%TF.GenerationSoftware,KiCad,Pcbnew,6.0.10+dfsg-1~bpo11+1*%
%TF.CreationDate,2023-02-13T14:10:20+00:00*%
%TF.ProjectId,ALTIMET02,414c5449-4d45-4543-9032-2e6b69636164,rev?*%
%TF.SameCoordinates,Original*%
%TF.FileFunction,Legend,Top*%
%TF.FilePolarity,Positive*%
%FSLAX46Y46*%
G04 Gerber Fmt 4.6, Leading zero omitted, Abs format (unit mm)*
G04 Created by KiCad (PCBNEW 6.0.10+dfsg-1~bpo11+1) date 2023-02-13 14:10:20*
%MOMM*%
%LPD*%
G01*
G04 APERTURE LIST*
%ADD10C,0.150000*%
%ADD11C,0.120000*%
%ADD12R,1.524000X1.524000*%
G04 APERTURE END LIST*
D10*
X127552476Y-97136000D02*
X127476285Y-97097904D01*
X127362000Y-97097904D01*
X127247714Y-97136000D01*
X127171523Y-97212190D01*
X127133428Y-97288380D01*
X127095333Y-97440761D01*
X127095333Y-97555047D01*
X127133428Y-97707428D01*
X127171523Y-97783619D01*
X127247714Y-97859809D01*
X127362000Y-97897904D01*
X127438190Y-97897904D01*
X127552476Y-97859809D01*
X127590571Y-97821714D01*
X127590571Y-97555047D01*
X127438190Y-97555047D01*
X127933428Y-97897904D02*
X127933428Y-97097904D01*
X128390571Y-97897904D01*
X128390571Y-97097904D01*
X124536285Y-97897904D02*
X124536285Y-97097904D01*
X124802952Y-97669333D01*
X125069619Y-97097904D01*
X125069619Y-97897904D01*
X125602952Y-97097904D02*
X125755333Y-97097904D01*
X125831523Y-97136000D01*
X125907714Y-97212190D01*
X125945809Y-97364571D01*
X125945809Y-97631238D01*
X125907714Y-97783619D01*
X125831523Y-97859809D01*
X125755333Y-97897904D01*
X125602952Y-97897904D01*
X125526761Y-97859809D01*
X125450571Y-97783619D01*
X125412476Y-97631238D01*
X125412476Y-97364571D01*
X125450571Y-97212190D01*
X125526761Y-97136000D01*
X125602952Y-97097904D01*
X134435809Y-105619428D02*
X134473904Y-105505142D01*
X134473904Y-105314666D01*
X134435809Y-105238476D01*
X134397714Y-105200380D01*
X134321523Y-105162285D01*
X134245333Y-105162285D01*
X134169142Y-105200380D01*
X134131047Y-105238476D01*
X134092952Y-105314666D01*
X134054857Y-105467047D01*
X134016761Y-105543238D01*
X133978666Y-105581333D01*
X133902476Y-105619428D01*
X133826285Y-105619428D01*
X133750095Y-105581333D01*
X133712000Y-105543238D01*
X133673904Y-105467047D01*
X133673904Y-105276571D01*
X133712000Y-105162285D01*
X134473904Y-104819428D02*
X133673904Y-104819428D01*
X133673904Y-104628952D01*
X133712000Y-104514666D01*
X133788190Y-104438476D01*
X133864380Y-104400380D01*
X134016761Y-104362285D01*
X134131047Y-104362285D01*
X134283428Y-104400380D01*
X134359619Y-104438476D01*
X134435809Y-104514666D01*
X134473904Y-104628952D01*
X134473904Y-104819428D01*
X134245333Y-104057523D02*
X134245333Y-103676571D01*
X134473904Y-104133714D02*
X133673904Y-103867047D01*
X134473904Y-103600380D01*
X127628666Y-104171714D02*
X127590571Y-104209809D01*
X127476285Y-104247904D01*
X127400095Y-104247904D01*
X127285809Y-104209809D01*
X127209619Y-104133619D01*
X127171523Y-104057428D01*
X127133428Y-103905047D01*
X127133428Y-103790761D01*
X127171523Y-103638380D01*
X127209619Y-103562190D01*
X127285809Y-103486000D01*
X127400095Y-103447904D01*
X127476285Y-103447904D01*
X127590571Y-103486000D01*
X127628666Y-103524095D01*
X127933428Y-104209809D02*
X128047714Y-104247904D01*
X128238190Y-104247904D01*
X128314380Y-104209809D01*
X128352476Y-104171714D01*
X128390571Y-104095523D01*
X128390571Y-104019333D01*
X128352476Y-103943142D01*
X128314380Y-103905047D01*
X128238190Y-103866952D01*
X128085809Y-103828857D01*
X128009619Y-103790761D01*
X127971523Y-103752666D01*
X127933428Y-103676476D01*
X127933428Y-103600285D01*
X127971523Y-103524095D01*
X128009619Y-103486000D01*
X128085809Y-103447904D01*
X128276285Y-103447904D01*
X128390571Y-103486000D01*
X141078000Y-105257523D02*
X141039904Y-105333714D01*
X141039904Y-105448000D01*
X141078000Y-105562285D01*
X141154190Y-105638476D01*
X141230380Y-105676571D01*
X141382761Y-105714666D01*
X141497047Y-105714666D01*
X141649428Y-105676571D01*
X141725619Y-105638476D01*
X141801809Y-105562285D01*
X141839904Y-105448000D01*
X141839904Y-105371809D01*
X141801809Y-105257523D01*
X141763714Y-105219428D01*
X141497047Y-105219428D01*
X141497047Y-105371809D01*
X141839904Y-104876571D02*
X141039904Y-104876571D01*
X141839904Y-104419428D01*
X141039904Y-104419428D01*
X141839904Y-104038476D02*
X141039904Y-104038476D01*
X141039904Y-103848000D01*
X141078000Y-103733714D01*
X141154190Y-103657523D01*
X141230380Y-103619428D01*
X141382761Y-103581333D01*
X141497047Y-103581333D01*
X141649428Y-103619428D01*
X141725619Y-103657523D01*
X141801809Y-103733714D01*
X141839904Y-103848000D01*
X141839904Y-104038476D01*
X139261809Y-105600380D02*
X139299904Y-105486095D01*
X139299904Y-105295619D01*
X139261809Y-105219428D01*
X139223714Y-105181333D01*
X139147523Y-105143238D01*
X139071333Y-105143238D01*
X138995142Y-105181333D01*
X138957047Y-105219428D01*
X138918952Y-105295619D01*
X138880857Y-105448000D01*
X138842761Y-105524190D01*
X138804666Y-105562285D01*
X138728476Y-105600380D01*
X138652285Y-105600380D01*
X138576095Y-105562285D01*
X138538000Y-105524190D01*
X138499904Y-105448000D01*
X138499904Y-105257523D01*
X138538000Y-105143238D01*
X139223714Y-104343238D02*
X139261809Y-104381333D01*
X139299904Y-104495619D01*
X139299904Y-104571809D01*
X139261809Y-104686095D01*
X139185619Y-104762285D01*
X139109428Y-104800380D01*
X138957047Y-104838476D01*
X138842761Y-104838476D01*
X138690380Y-104800380D01*
X138614190Y-104762285D01*
X138538000Y-104686095D01*
X138499904Y-104571809D01*
X138499904Y-104495619D01*
X138538000Y-104381333D01*
X138576095Y-104343238D01*
X139299904Y-103619428D02*
X139299904Y-104000380D01*
X138499904Y-104000380D01*
X136213904Y-105714666D02*
X137013904Y-105448000D01*
X136213904Y-105181333D01*
X137013904Y-104914666D02*
X136213904Y-104914666D01*
X136213904Y-104724190D01*
X136252000Y-104609904D01*
X136328190Y-104533714D01*
X136404380Y-104495619D01*
X136556761Y-104457523D01*
X136671047Y-104457523D01*
X136823428Y-104495619D01*
X136899619Y-104533714D01*
X136975809Y-104609904D01*
X137013904Y-104724190D01*
X137013904Y-104914666D01*
X137013904Y-104114666D02*
X136213904Y-104114666D01*
X136213904Y-103924190D01*
X136252000Y-103809904D01*
X136328190Y-103733714D01*
X136404380Y-103695619D01*
X136556761Y-103657523D01*
X136671047Y-103657523D01*
X136823428Y-103695619D01*
X136899619Y-103733714D01*
X136975809Y-103809904D01*
X137013904Y-103924190D01*
X137013904Y-104114666D01*
X136477809Y-108910380D02*
X136477809Y-107910380D01*
X136811142Y-108624666D01*
X137144476Y-107910380D01*
X137144476Y-108910380D01*
X137573047Y-108624666D02*
X138049238Y-108624666D01*
X137477809Y-108910380D02*
X137811142Y-107910380D01*
X138144476Y-108910380D01*
X138382571Y-107910380D02*
X139049238Y-108910380D01*
X139049238Y-107910380D02*
X138382571Y-108910380D01*
X140096857Y-107910380D02*
X140715904Y-107910380D01*
X140382571Y-108291333D01*
X140525428Y-108291333D01*
X140620666Y-108338952D01*
X140668285Y-108386571D01*
X140715904Y-108481809D01*
X140715904Y-108719904D01*
X140668285Y-108815142D01*
X140620666Y-108862761D01*
X140525428Y-108910380D01*
X140239714Y-108910380D01*
X140144476Y-108862761D01*
X140096857Y-108815142D01*
X141144476Y-108815142D02*
X141192095Y-108862761D01*
X141144476Y-108910380D01*
X141096857Y-108862761D01*
X141144476Y-108815142D01*
X141144476Y-108910380D01*
X141525428Y-107910380D02*
X142144476Y-107910380D01*
X141811142Y-108291333D01*
X141954000Y-108291333D01*
X142049238Y-108338952D01*
X142096857Y-108386571D01*
X142144476Y-108481809D01*
X142144476Y-108719904D01*
X142096857Y-108815142D01*
X142049238Y-108862761D01*
X141954000Y-108910380D01*
X141668285Y-108910380D01*
X141573047Y-108862761D01*
X141525428Y-108815142D01*
X142430190Y-107910380D02*
X142763523Y-108910380D01*
X143096857Y-107910380D01*
X143430190Y-108815142D02*
X143477809Y-108862761D01*
X143430190Y-108910380D01*
X143382571Y-108862761D01*
X143430190Y-108815142D01*
X143430190Y-108910380D01*
X143430190Y-108529428D02*
X143382571Y-107958000D01*
X143430190Y-107910380D01*
X143477809Y-107958000D01*
X143430190Y-108529428D01*
X143430190Y-107910380D01*
X129832380Y-110461904D02*
X129832380Y-109661904D01*
X130175238Y-109738095D02*
X130213333Y-109700000D01*
X130289523Y-109661904D01*
X130480000Y-109661904D01*
X130556190Y-109700000D01*
X130594285Y-109738095D01*
X130632380Y-109814285D01*
X130632380Y-109890476D01*
X130594285Y-110004761D01*
X130137142Y-110461904D01*
X130632380Y-110461904D01*
X131432380Y-110385714D02*
X131394285Y-110423809D01*
X131280000Y-110461904D01*
X131203809Y-110461904D01*
X131089523Y-110423809D01*
X131013333Y-110347619D01*
X130975238Y-110271428D01*
X130937142Y-110119047D01*
X130937142Y-110004761D01*
X130975238Y-109852380D01*
X131013333Y-109776190D01*
X131089523Y-109700000D01*
X131203809Y-109661904D01*
X131280000Y-109661904D01*
X131394285Y-109700000D01*
X131432380Y-109738095D01*
X132727619Y-110461904D02*
X132727619Y-110042857D01*
X132689523Y-109966666D01*
X132613333Y-109928571D01*
X132460952Y-109928571D01*
X132384761Y-109966666D01*
X132727619Y-110423809D02*
X132651428Y-110461904D01*
X132460952Y-110461904D01*
X132384761Y-110423809D01*
X132346666Y-110347619D01*
X132346666Y-110271428D01*
X132384761Y-110195238D01*
X132460952Y-110157142D01*
X132651428Y-110157142D01*
X132727619Y-110119047D01*
X133451428Y-110461904D02*
X133451428Y-109661904D01*
X133451428Y-110423809D02*
X133375238Y-110461904D01*
X133222857Y-110461904D01*
X133146666Y-110423809D01*
X133108571Y-110385714D01*
X133070476Y-110309523D01*
X133070476Y-110080952D01*
X133108571Y-110004761D01*
X133146666Y-109966666D01*
X133222857Y-109928571D01*
X133375238Y-109928571D01*
X133451428Y-109966666D01*
X133832380Y-110461904D02*
X133832380Y-109928571D01*
X133832380Y-110080952D02*
X133870476Y-110004761D01*
X133908571Y-109966666D01*
X133984761Y-109928571D01*
X134060952Y-109928571D01*
X134327619Y-110385714D02*
X134365714Y-110423809D01*
X134327619Y-110461904D01*
X134289523Y-110423809D01*
X134327619Y-110385714D01*
X134327619Y-110461904D01*
X129070476Y-110949904D02*
X129146666Y-110949904D01*
X129222857Y-110988000D01*
X129260952Y-111026095D01*
X129299047Y-111102285D01*
X129337142Y-111254666D01*
X129337142Y-111445142D01*
X129299047Y-111597523D01*
X129260952Y-111673714D01*
X129222857Y-111711809D01*
X129146666Y-111749904D01*
X129070476Y-111749904D01*
X128994285Y-111711809D01*
X128956190Y-111673714D01*
X128918095Y-111597523D01*
X128880000Y-111445142D01*
X128880000Y-111254666D01*
X128918095Y-111102285D01*
X128956190Y-111026095D01*
X128994285Y-110988000D01*
X129070476Y-110949904D01*
X129603809Y-111749904D02*
X130022857Y-111216571D01*
X129603809Y-111216571D02*
X130022857Y-111749904D01*
X130251428Y-110949904D02*
X130784761Y-110949904D01*
X130441904Y-111749904D01*
X131013333Y-110949904D02*
X131546666Y-110949904D01*
X131203809Y-111749904D01*
X132422857Y-110911809D02*
X131737142Y-111940380D01*
X132841904Y-110949904D02*
X132918095Y-110949904D01*
X132994285Y-110988000D01*
X133032380Y-111026095D01*
X133070476Y-111102285D01*
X133108571Y-111254666D01*
X133108571Y-111445142D01*
X133070476Y-111597523D01*
X133032380Y-111673714D01*
X132994285Y-111711809D01*
X132918095Y-111749904D01*
X132841904Y-111749904D01*
X132765714Y-111711809D01*
X132727619Y-111673714D01*
X132689523Y-111597523D01*
X132651428Y-111445142D01*
X132651428Y-111254666D01*
X132689523Y-111102285D01*
X132727619Y-111026095D01*
X132765714Y-110988000D01*
X132841904Y-110949904D01*
X133375238Y-111749904D02*
X133794285Y-111216571D01*
X133375238Y-111216571D02*
X133794285Y-111749904D01*
X134022857Y-110949904D02*
X134556190Y-110949904D01*
X134213333Y-111749904D01*
X135203809Y-110949904D02*
X135051428Y-110949904D01*
X134975238Y-110988000D01*
X134937142Y-111026095D01*
X134860952Y-111140380D01*
X134822857Y-111292761D01*
X134822857Y-111597523D01*
X134860952Y-111673714D01*
X134899047Y-111711809D01*
X134975238Y-111749904D01*
X135127619Y-111749904D01*
X135203809Y-111711809D01*
X135241904Y-111673714D01*
X135280000Y-111597523D01*
X135280000Y-111407047D01*
X135241904Y-111330857D01*
X135203809Y-111292761D01*
X135127619Y-111254666D01*
X134975238Y-111254666D01*
X134899047Y-111292761D01*
X134860952Y-111330857D01*
X134822857Y-111407047D01*
X124745809Y-104171714D02*
X124707714Y-104209809D01*
X124593428Y-104247904D01*
X124517238Y-104247904D01*
X124402952Y-104209809D01*
X124326761Y-104133619D01*
X124288666Y-104057428D01*
X124250571Y-103905047D01*
X124250571Y-103790761D01*
X124288666Y-103638380D01*
X124326761Y-103562190D01*
X124402952Y-103486000D01*
X124517238Y-103447904D01*
X124593428Y-103447904D01*
X124707714Y-103486000D01*
X124745809Y-103524095D01*
X125469619Y-104247904D02*
X125088666Y-104247904D01*
X125088666Y-103447904D01*
X125736285Y-104247904D02*
X125736285Y-103447904D01*
X126193428Y-104247904D02*
X125850571Y-103790761D01*
X126193428Y-103447904D02*
X125736285Y-103905047D01*
X130918000Y-105257523D02*
X130879904Y-105333714D01*
X130879904Y-105448000D01*
X130918000Y-105562285D01*
X130994190Y-105638476D01*
X131070380Y-105676571D01*
X131222761Y-105714666D01*
X131337047Y-105714666D01*
X131489428Y-105676571D01*
X131565619Y-105638476D01*
X131641809Y-105562285D01*
X131679904Y-105448000D01*
X131679904Y-105371809D01*
X131641809Y-105257523D01*
X131603714Y-105219428D01*
X131337047Y-105219428D01*
X131337047Y-105371809D01*
X131679904Y-104876571D02*
X130879904Y-104876571D01*
X131679904Y-104419428D01*
X130879904Y-104419428D01*
X131679904Y-104038476D02*
X130879904Y-104038476D01*
X130879904Y-103848000D01*
X130918000Y-103733714D01*
X130994190Y-103657523D01*
X131070380Y-103619428D01*
X131222761Y-103581333D01*
X131337047Y-103581333D01*
X131489428Y-103619428D01*
X131565619Y-103657523D01*
X131641809Y-103733714D01*
X131679904Y-103848000D01*
X131679904Y-104038476D01*
X121174380Y-107014666D02*
X121650571Y-107014666D01*
X121079142Y-107300380D02*
X121412476Y-106300380D01*
X121745809Y-107300380D01*
X122555333Y-107300380D02*
X122079142Y-107300380D01*
X122079142Y-106300380D01*
X122745809Y-106300380D02*
X123317238Y-106300380D01*
X123031523Y-107300380D02*
X123031523Y-106300380D01*
X123650571Y-107300380D02*
X123650571Y-106300380D01*
X124126761Y-107300380D02*
X124126761Y-106300380D01*
X124460095Y-107014666D01*
X124793428Y-106300380D01*
X124793428Y-107300380D01*
X125269619Y-106776571D02*
X125602952Y-106776571D01*
X125745809Y-107300380D02*
X125269619Y-107300380D01*
X125269619Y-106300380D01*
X125745809Y-106300380D01*
X126031523Y-106300380D02*
X126602952Y-106300380D01*
X126317238Y-107300380D02*
X126317238Y-106300380D01*
X127126761Y-106300380D02*
X127222000Y-106300380D01*
X127317238Y-106348000D01*
X127364857Y-106395619D01*
X127412476Y-106490857D01*
X127460095Y-106681333D01*
X127460095Y-106919428D01*
X127412476Y-107109904D01*
X127364857Y-107205142D01*
X127317238Y-107252761D01*
X127222000Y-107300380D01*
X127126761Y-107300380D01*
X127031523Y-107252761D01*
X126983904Y-107205142D01*
X126936285Y-107109904D01*
X126888666Y-106919428D01*
X126888666Y-106681333D01*
X126936285Y-106490857D01*
X126983904Y-106395619D01*
X127031523Y-106348000D01*
X127126761Y-106300380D01*
X127841047Y-106395619D02*
X127888666Y-106348000D01*
X127983904Y-106300380D01*
X128222000Y-106300380D01*
X128317238Y-106348000D01*
X128364857Y-106395619D01*
X128412476Y-106490857D01*
X128412476Y-106586095D01*
X128364857Y-106728952D01*
X127793428Y-107300380D01*
X128412476Y-107300380D01*
X128793428Y-107014666D02*
X129269619Y-107014666D01*
X128698190Y-107300380D02*
X129031523Y-106300380D01*
X129364857Y-107300380D01*
X122483904Y-108910380D02*
X122483904Y-107910380D01*
X122817238Y-108624666D01*
X123150571Y-107910380D01*
X123150571Y-108910380D01*
X124102952Y-108910380D02*
X123626761Y-108910380D01*
X123626761Y-107910380D01*
X124388666Y-108624666D02*
X124864857Y-108624666D01*
X124293428Y-108910380D02*
X124626761Y-107910380D01*
X124960095Y-108910380D01*
X125626761Y-108386571D02*
X125769619Y-108434190D01*
X125817238Y-108481809D01*
X125864857Y-108577047D01*
X125864857Y-108719904D01*
X125817238Y-108815142D01*
X125769619Y-108862761D01*
X125674380Y-108910380D01*
X125293428Y-108910380D01*
X125293428Y-107910380D01*
X125626761Y-107910380D01*
X125722000Y-107958000D01*
X125769619Y-108005619D01*
X125817238Y-108100857D01*
X125817238Y-108196095D01*
X125769619Y-108291333D01*
X125722000Y-108338952D01*
X125626761Y-108386571D01*
X125293428Y-108386571D01*
X126293428Y-108815142D02*
X126341047Y-108862761D01*
X126293428Y-108910380D01*
X126245809Y-108862761D01*
X126293428Y-108815142D01*
X126293428Y-108910380D01*
X127198190Y-108862761D02*
X127102952Y-108910380D01*
X126912476Y-108910380D01*
X126817238Y-108862761D01*
X126769619Y-108815142D01*
X126722000Y-108719904D01*
X126722000Y-108434190D01*
X126769619Y-108338952D01*
X126817238Y-108291333D01*
X126912476Y-108243714D01*
X127102952Y-108243714D01*
X127198190Y-108291333D01*
X127531523Y-108243714D02*
X128055333Y-108243714D01*
X127531523Y-108910380D01*
X128055333Y-108910380D01*
X123507714Y-109615619D02*
X123555333Y-109568000D01*
X123650571Y-109520380D01*
X123888666Y-109520380D01*
X123983904Y-109568000D01*
X124031523Y-109615619D01*
X124079142Y-109710857D01*
X124079142Y-109806095D01*
X124031523Y-109948952D01*
X123460095Y-110520380D01*
X124079142Y-110520380D01*
X124698190Y-109520380D02*
X124793428Y-109520380D01*
X124888666Y-109568000D01*
X124936285Y-109615619D01*
X124983904Y-109710857D01*
X125031523Y-109901333D01*
X125031523Y-110139428D01*
X124983904Y-110329904D01*
X124936285Y-110425142D01*
X124888666Y-110472761D01*
X124793428Y-110520380D01*
X124698190Y-110520380D01*
X124602952Y-110472761D01*
X124555333Y-110425142D01*
X124507714Y-110329904D01*
X124460095Y-110139428D01*
X124460095Y-109901333D01*
X124507714Y-109710857D01*
X124555333Y-109615619D01*
X124602952Y-109568000D01*
X124698190Y-109520380D01*
X125412476Y-109615619D02*
X125460095Y-109568000D01*
X125555333Y-109520380D01*
X125793428Y-109520380D01*
X125888666Y-109568000D01*
X125936285Y-109615619D01*
X125983904Y-109710857D01*
X125983904Y-109806095D01*
X125936285Y-109948952D01*
X125364857Y-110520380D01*
X125983904Y-110520380D01*
X126317238Y-109520380D02*
X126936285Y-109520380D01*
X126602952Y-109901333D01*
X126745809Y-109901333D01*
X126841047Y-109948952D01*
X126888666Y-109996571D01*
X126936285Y-110091809D01*
X126936285Y-110329904D01*
X126888666Y-110425142D01*
X126841047Y-110472761D01*
X126745809Y-110520380D01*
X126460095Y-110520380D01*
X126364857Y-110472761D01*
X126317238Y-110425142D01*
X122015333Y-97097904D02*
X122282000Y-97897904D01*
X122548666Y-97097904D01*
X122815333Y-97897904D02*
X122815333Y-97097904D01*
X123005809Y-97097904D01*
X123120095Y-97136000D01*
X123196285Y-97212190D01*
X123234380Y-97288380D01*
X123272476Y-97440761D01*
X123272476Y-97555047D01*
X123234380Y-97707428D01*
X123196285Y-97783619D01*
X123120095Y-97859809D01*
X123005809Y-97897904D01*
X122815333Y-97897904D01*
X122224857Y-104247904D02*
X122224857Y-103447904D01*
X122491523Y-104019333D01*
X122758190Y-103447904D01*
X122758190Y-104247904D01*
X123139142Y-104247904D02*
X123139142Y-103447904D01*
%TO.C,J3*%
X130048000Y-98044000D02*
X142748000Y-98044000D01*
X130048000Y-103124000D02*
X130048000Y-98044000D01*
X142748000Y-98044000D02*
X142748000Y-103124000D01*
X142748000Y-103124000D02*
X130048000Y-103124000D01*
%TO.C,J2*%
X129032000Y-103124000D02*
X121412000Y-103124000D01*
X129032000Y-98044000D02*
X129032000Y-103124000D01*
X121412000Y-103124000D02*
X121412000Y-98044000D01*
X121412000Y-98044000D02*
X129032000Y-98044000D01*
D11*
%TO.C,JP3*%
X130030000Y-113838000D02*
X130030000Y-113238000D01*
X133480000Y-114538000D02*
X130680000Y-114538000D01*
X130680000Y-112538000D02*
X133480000Y-112538000D01*
X134130000Y-113238000D02*
X134130000Y-113838000D01*
X130030000Y-113838000D02*
G75*
G03*
X130730000Y-114538000I699999J-1D01*
G01*
X133430000Y-114538000D02*
G75*
G03*
X134130000Y-113838000I0J700000D01*
G01*
X134130000Y-113238000D02*
G75*
G03*
X133430000Y-112538000I-700000J0D01*
G01*
X130730000Y-112538000D02*
G75*
G03*
X130030000Y-113238000I-1J-699999D01*
G01*
%TD*%
D12*
%TO.C,J3*%
X141478000Y-99314000D03*
X141478000Y-101854000D03*
X138938000Y-99314000D03*
X138938000Y-101854000D03*
X136398000Y-99314000D03*
X136398000Y-101854000D03*
X133858000Y-99314000D03*
X133858000Y-101854000D03*
X131318000Y-99314000D03*
X131318000Y-101854000D03*
%TD*%
M02*
