%TF.GenerationSoftware,KiCad,Pcbnew,6.0.10+dfsg-1~bpo11+1*%
%TF.CreationDate,2023-02-14T00:52:53+00:00*%
%TF.ProjectId,ALTIMET02,414c5449-4d45-4543-9032-2e6b69636164,rev?*%
%TF.SameCoordinates,Original*%
%TF.FileFunction,Copper,L2,Bot*%
%TF.FilePolarity,Positive*%
%FSLAX46Y46*%
G04 Gerber Fmt 4.6, Leading zero omitted, Abs format (unit mm)*
G04 Created by KiCad (PCBNEW 6.0.10+dfsg-1~bpo11+1) date 2023-02-14 00:52:53*
%MOMM*%
%LPD*%
G01*
G04 APERTURE LIST*
G04 Aperture macros list*
%AMRoundRect*
0 Rectangle with rounded corners*
0 $1 Rounding radius*
0 $2 $3 $4 $5 $6 $7 $8 $9 X,Y pos of 4 corners*
0 Add a 4 corners polygon primitive as box body*
4,1,4,$2,$3,$4,$5,$6,$7,$8,$9,$2,$3,0*
0 Add four circle primitives for the rounded corners*
1,1,$1+$1,$2,$3*
1,1,$1+$1,$4,$5*
1,1,$1+$1,$6,$7*
1,1,$1+$1,$8,$9*
0 Add four rect primitives between the rounded corners*
20,1,$1+$1,$2,$3,$4,$5,0*
20,1,$1+$1,$4,$5,$6,$7,0*
20,1,$1+$1,$6,$7,$8,$9,0*
20,1,$1+$1,$8,$9,$2,$3,0*%
%AMFreePoly0*
4,1,22,0.550000,-0.750000,0.000000,-0.750000,0.000000,-0.745033,-0.079941,-0.743568,-0.215256,-0.701293,-0.333266,-0.622738,-0.424486,-0.514219,-0.481581,-0.384460,-0.499164,-0.250000,-0.500000,-0.250000,-0.500000,0.250000,-0.499164,0.250000,-0.499963,0.256109,-0.478152,0.396186,-0.417904,0.524511,-0.324060,0.630769,-0.204165,0.706417,-0.067858,0.745374,0.000000,0.744959,0.000000,0.750000,
0.550000,0.750000,0.550000,-0.750000,0.550000,-0.750000,$1*%
%AMFreePoly1*
4,1,20,0.000000,0.744959,0.073905,0.744508,0.209726,0.703889,0.328688,0.626782,0.421226,0.519385,0.479903,0.390333,0.500000,0.250000,0.500000,-0.250000,0.499851,-0.262216,0.476331,-0.402017,0.414519,-0.529596,0.319384,-0.634700,0.198574,-0.708877,0.061801,-0.746166,0.000000,-0.745033,0.000000,-0.750000,-0.550000,-0.750000,-0.550000,0.750000,0.000000,0.750000,0.000000,0.744959,
0.000000,0.744959,$1*%
G04 Aperture macros list end*
%ADD10C,0.150000*%
%TA.AperFunction,NonConductor*%
%ADD11C,0.150000*%
%TD*%
%TA.AperFunction,ComponentPad*%
%ADD12R,1.524000X1.524000*%
%TD*%
%TA.AperFunction,ComponentPad*%
%ADD13C,6.000000*%
%TD*%
%TA.AperFunction,SMDPad,CuDef*%
%ADD14RoundRect,0.250000X-0.262500X-0.450000X0.262500X-0.450000X0.262500X0.450000X-0.262500X0.450000X0*%
%TD*%
%TA.AperFunction,SMDPad,CuDef*%
%ADD15RoundRect,0.250000X0.475000X-0.250000X0.475000X0.250000X-0.475000X0.250000X-0.475000X-0.250000X0*%
%TD*%
%TA.AperFunction,SMDPad,CuDef*%
%ADD16R,1.300000X1.700000*%
%TD*%
%TA.AperFunction,SMDPad,CuDef*%
%ADD17R,0.600000X1.100000*%
%TD*%
%TA.AperFunction,SMDPad,CuDef*%
%ADD18RoundRect,0.250000X0.262500X0.450000X-0.262500X0.450000X-0.262500X-0.450000X0.262500X-0.450000X0*%
%TD*%
%TA.AperFunction,SMDPad,CuDef*%
%ADD19FreePoly0,180.000000*%
%TD*%
%TA.AperFunction,SMDPad,CuDef*%
%ADD20R,1.000000X1.500000*%
%TD*%
%TA.AperFunction,SMDPad,CuDef*%
%ADD21FreePoly1,180.000000*%
%TD*%
%TA.AperFunction,ViaPad*%
%ADD22C,0.800000*%
%TD*%
%TA.AperFunction,Conductor*%
%ADD23C,0.508000*%
%TD*%
%TA.AperFunction,Conductor*%
%ADD24C,0.400000*%
%TD*%
%TA.AperFunction,Conductor*%
%ADD25C,0.250000*%
%TD*%
G04 APERTURE END LIST*
D10*
D11*
X150058095Y-107132380D02*
X150058095Y-106132380D01*
X149724761Y-106846666D01*
X149391428Y-106132380D01*
X149391428Y-107132380D01*
X148439047Y-107132380D02*
X148915238Y-107132380D01*
X148915238Y-106132380D01*
X148153333Y-106846666D02*
X147677142Y-106846666D01*
X148248571Y-107132380D02*
X147915238Y-106132380D01*
X147581904Y-107132380D01*
X146915238Y-106608571D02*
X146772380Y-106656190D01*
X146724761Y-106703809D01*
X146677142Y-106799047D01*
X146677142Y-106941904D01*
X146724761Y-107037142D01*
X146772380Y-107084761D01*
X146867619Y-107132380D01*
X147248571Y-107132380D01*
X147248571Y-106132380D01*
X146915238Y-106132380D01*
X146820000Y-106180000D01*
X146772380Y-106227619D01*
X146724761Y-106322857D01*
X146724761Y-106418095D01*
X146772380Y-106513333D01*
X146820000Y-106560952D01*
X146915238Y-106608571D01*
X147248571Y-106608571D01*
X146248571Y-107037142D02*
X146200952Y-107084761D01*
X146248571Y-107132380D01*
X146296190Y-107084761D01*
X146248571Y-107037142D01*
X146248571Y-107132380D01*
X145343809Y-107084761D02*
X145439047Y-107132380D01*
X145629523Y-107132380D01*
X145724761Y-107084761D01*
X145772380Y-107037142D01*
X145820000Y-106941904D01*
X145820000Y-106656190D01*
X145772380Y-106560952D01*
X145724761Y-106513333D01*
X145629523Y-106465714D01*
X145439047Y-106465714D01*
X145343809Y-106513333D01*
X145010476Y-106465714D02*
X144486666Y-106465714D01*
X145010476Y-107132380D01*
X144486666Y-107132380D01*
D10*
D11*
X121979819Y-106872066D02*
X121503628Y-106872066D01*
X122075057Y-107157780D02*
X121741723Y-106157780D01*
X121408390Y-107157780D01*
X120598866Y-107157780D02*
X121075057Y-107157780D01*
X121075057Y-106157780D01*
X120408390Y-106157780D02*
X119836961Y-106157780D01*
X120122676Y-107157780D02*
X120122676Y-106157780D01*
X119503628Y-107157780D02*
X119503628Y-106157780D01*
X119027438Y-107157780D02*
X119027438Y-106157780D01*
X118694104Y-106872066D01*
X118360771Y-106157780D01*
X118360771Y-107157780D01*
X117884580Y-106633971D02*
X117551247Y-106633971D01*
X117408390Y-107157780D02*
X117884580Y-107157780D01*
X117884580Y-106157780D01*
X117408390Y-106157780D01*
X117122676Y-106157780D02*
X116551247Y-106157780D01*
X116836961Y-107157780D02*
X116836961Y-106157780D01*
X116027438Y-106157780D02*
X115932200Y-106157780D01*
X115836961Y-106205400D01*
X115789342Y-106253019D01*
X115741723Y-106348257D01*
X115694104Y-106538733D01*
X115694104Y-106776828D01*
X115741723Y-106967304D01*
X115789342Y-107062542D01*
X115836961Y-107110161D01*
X115932200Y-107157780D01*
X116027438Y-107157780D01*
X116122676Y-107110161D01*
X116170295Y-107062542D01*
X116217914Y-106967304D01*
X116265533Y-106776828D01*
X116265533Y-106538733D01*
X116217914Y-106348257D01*
X116170295Y-106253019D01*
X116122676Y-106205400D01*
X116027438Y-106157780D01*
X115313152Y-106253019D02*
X115265533Y-106205400D01*
X115170295Y-106157780D01*
X114932200Y-106157780D01*
X114836961Y-106205400D01*
X114789342Y-106253019D01*
X114741723Y-106348257D01*
X114741723Y-106443495D01*
X114789342Y-106586352D01*
X115360771Y-107157780D01*
X114741723Y-107157780D01*
X114360771Y-106872066D02*
X113884580Y-106872066D01*
X114456009Y-107157780D02*
X114122676Y-106157780D01*
X113789342Y-107157780D01*
%TO.C,JP1*%
G36*
X132980000Y-113838000D02*
G01*
X132480000Y-113838000D01*
X132480000Y-113238000D01*
X132980000Y-113238000D01*
X132980000Y-113838000D01*
G37*
%TD*%
D12*
%TO.P,J3,1*%
%TO.N,GND*%
X141478000Y-99314000D03*
%TO.P,J3,2*%
X141478000Y-101854000D03*
%TO.P,J3,3*%
%TO.N,SCLK*%
X138938000Y-99314000D03*
%TO.P,J3,4*%
X138938000Y-101854000D03*
%TO.P,J3,5*%
%TO.N,VDD*%
X136398000Y-99314000D03*
%TO.P,J3,6*%
X136398000Y-101854000D03*
%TO.P,J3,7*%
%TO.N,MOSI{slash}SDA*%
X133858000Y-99314000D03*
%TO.P,J3,8*%
X133858000Y-101854000D03*
%TO.P,J3,9*%
%TO.N,GND*%
X131318000Y-99314000D03*
%TO.P,J3,10*%
X131318000Y-101854000D03*
%TD*%
%TO.P,J2,1*%
%TO.N,MISO*%
X122682000Y-101854000D03*
%TO.P,J2,2*%
%TO.N,VDD*%
X122682000Y-99314000D03*
%TO.P,J2,3*%
%TO.N,SCLK*%
X125222000Y-101854000D03*
%TO.P,J2,4*%
%TO.N,MOSI{slash}SDA*%
X125222000Y-99314000D03*
%TO.P,J2,5*%
%TO.N,CS{slash}A*%
X127762000Y-101854000D03*
%TO.P,J2,6*%
%TO.N,GND*%
X127762000Y-99314000D03*
%TD*%
D13*
%TO.P,H1,1,1*%
%TO.N,GND*%
X147320000Y-111760000D03*
%TD*%
%TO.P,H4,1,1*%
%TO.N,GND*%
X116840000Y-101600000D03*
%TD*%
%TO.P,H3,1,1*%
%TO.N,GND*%
X147320000Y-101600000D03*
%TD*%
%TO.P,H2,1,1*%
%TO.N,GND*%
X116840000Y-111760000D03*
%TD*%
D14*
%TO.P,R1,1*%
%TO.N,VDD*%
X137517500Y-104394000D03*
%TO.P,R1,2*%
%TO.N,SCLK*%
X139342500Y-104394000D03*
%TD*%
D15*
%TO.P,C2,1*%
%TO.N,VDD*%
X135636000Y-110490000D03*
%TO.P,C2,2*%
%TO.N,GND*%
X135636000Y-108590000D03*
%TD*%
D16*
%TO.P,D1,1,K*%
%TO.N,VDD*%
X138712000Y-108458000D03*
%TO.P,D1,2,A*%
%TO.N,GND*%
X142212000Y-108458000D03*
%TD*%
D17*
%TO.P,IC1,1,VDD*%
%TO.N,VDD*%
X131415000Y-110574000D03*
%TO.P,IC1,2,PS*%
%TO.N,/PS*%
X130165000Y-110574000D03*
%TO.P,IC1,3,GND*%
%TO.N,GND*%
X128915000Y-110574000D03*
%TO.P,IC1,4,CSB_1*%
%TO.N,CS{slash}A*%
X127665000Y-110574000D03*
%TO.P,IC1,5,CSB_2*%
%TO.N,unconnected-(IC1-Pad5)*%
X127665000Y-108374000D03*
%TO.P,IC1,6,SDO*%
%TO.N,MISO*%
X128915000Y-108374000D03*
%TO.P,IC1,7,SDI/SDA*%
%TO.N,MOSI{slash}SDA*%
X130165000Y-108374000D03*
%TO.P,IC1,8,SCLK*%
%TO.N,SCLK*%
X131415000Y-108374000D03*
%TD*%
D18*
%TO.P,R2,1*%
%TO.N,VDD*%
X135278500Y-104394000D03*
%TO.P,R2,2*%
%TO.N,MOSI{slash}SDA*%
X133453500Y-104394000D03*
%TD*%
D15*
%TO.P,C1,1*%
%TO.N,VDD*%
X133350000Y-110490000D03*
%TO.P,C1,2*%
%TO.N,GND*%
X133350000Y-108590000D03*
%TD*%
D19*
%TO.P,JP1,1,A*%
%TO.N,VDD*%
X133380000Y-113538000D03*
D20*
%TO.P,JP1,2,C*%
%TO.N,/PS*%
X132080000Y-113538000D03*
D21*
%TO.P,JP1,3,B*%
%TO.N,GND*%
X130780000Y-113538000D03*
%TD*%
D22*
%TO.N,VDD*%
X135128000Y-113538000D03*
X138684000Y-106717500D03*
%TO.N,CS{slash}A*%
X127254000Y-112014000D03*
%TO.N,GND*%
X141478000Y-106426000D03*
X135128000Y-107188000D03*
X134112000Y-107188000D03*
X137160000Y-107188000D03*
X129286000Y-113538000D03*
X129286000Y-104648000D03*
X142240000Y-110490000D03*
X137160000Y-109474000D03*
X142748000Y-106426000D03*
X129286000Y-112268000D03*
X133096000Y-107188000D03*
X144018000Y-108712000D03*
X136144000Y-107188000D03*
X128524000Y-113030000D03*
%TD*%
D23*
%TO.N,VDD*%
X136398000Y-103274500D02*
X135278500Y-104394000D01*
X138684000Y-108430000D02*
X138712000Y-108458000D01*
X131499000Y-110490000D02*
X131415000Y-110574000D01*
X133350000Y-110490000D02*
X135636000Y-110490000D01*
X135636000Y-110490000D02*
X135890000Y-110490000D01*
X133380000Y-110520000D02*
X133350000Y-110490000D01*
X133350000Y-110490000D02*
X131499000Y-110490000D01*
X138684000Y-106717500D02*
X138684000Y-108430000D01*
X136398000Y-103274500D02*
X137517500Y-104394000D01*
X136398000Y-99314000D02*
X136398000Y-101854000D01*
X135128000Y-113538000D02*
X133380000Y-113538000D01*
X133096000Y-110744000D02*
X133350000Y-110490000D01*
X133380000Y-113538000D02*
X133380000Y-110520000D01*
X136398000Y-101854000D02*
X136398000Y-103274500D01*
D24*
%TO.N,MOSI{slash}SDA*%
X132334000Y-97790000D02*
X126746000Y-97790000D01*
X130165000Y-106309000D02*
X130165000Y-108374000D01*
X126746000Y-97790000D02*
X125222000Y-99314000D01*
X133858000Y-101854000D02*
X133858000Y-103989500D01*
X133858000Y-99314000D02*
X133858000Y-101854000D01*
X132080000Y-104394000D02*
X130165000Y-106309000D01*
X133858000Y-103989500D02*
X133453500Y-104394000D01*
X133858000Y-99314000D02*
X132334000Y-97790000D01*
X133453500Y-104394000D02*
X132080000Y-104394000D01*
%TO.N,MISO*%
X123952000Y-100584000D02*
X122682000Y-101854000D01*
X126492000Y-100950000D02*
X126126000Y-100584000D01*
X126492000Y-104902000D02*
X126492000Y-100950000D01*
X128915000Y-107325000D02*
X126492000Y-104902000D01*
X128915000Y-108374000D02*
X128915000Y-108124000D01*
X126126000Y-100584000D02*
X123952000Y-100584000D01*
X128915000Y-108374000D02*
X128915000Y-107325000D01*
D25*
X128915000Y-108374000D02*
X128915000Y-108624000D01*
D24*
%TO.N,CS{slash}A*%
X127665000Y-111603000D02*
X127665000Y-110574000D01*
X127254000Y-112014000D02*
X127665000Y-111603000D01*
%TO.N,/PS*%
X131572000Y-112014000D02*
X132080000Y-112522000D01*
X130810000Y-112014000D02*
X131572000Y-112014000D01*
X130165000Y-111369000D02*
X130810000Y-112014000D01*
X132080000Y-112776000D02*
X132080000Y-113538000D01*
X132080000Y-112522000D02*
X132080000Y-112776000D01*
X130165000Y-110574000D02*
X130165000Y-111369000D01*
%TO.N,SCLK*%
X126238000Y-109474000D02*
X125222000Y-108458000D01*
X131415000Y-108624000D02*
X130565000Y-109474000D01*
X139342500Y-105259500D02*
X138684000Y-105918000D01*
X138684000Y-105918000D02*
X132588000Y-105918000D01*
X125222000Y-108458000D02*
X125222000Y-101854000D01*
D25*
X131415000Y-108374000D02*
X131415000Y-108624000D01*
D24*
X138938000Y-101854000D02*
X138938000Y-103989500D01*
X138938000Y-99314000D02*
X138938000Y-101854000D01*
X138938000Y-103989500D02*
X139342500Y-104394000D01*
X131415000Y-107091000D02*
X131415000Y-108374000D01*
X130565000Y-109474000D02*
X126238000Y-109474000D01*
X139342500Y-104394000D02*
X139342500Y-105259500D01*
X132588000Y-105918000D02*
X131415000Y-107091000D01*
%TD*%
%TA.AperFunction,Conductor*%
%TO.N,GND*%
G36*
X126015461Y-97302502D02*
G01*
X126061954Y-97356158D01*
X126072058Y-97426432D01*
X126042564Y-97491012D01*
X126036435Y-97497595D01*
X125527435Y-98006595D01*
X125465123Y-98040621D01*
X125438340Y-98043500D01*
X124411866Y-98043500D01*
X124349684Y-98050255D01*
X124213295Y-98101385D01*
X124096739Y-98188739D01*
X124091359Y-98195918D01*
X124091358Y-98195919D01*
X124052826Y-98247332D01*
X123995967Y-98289847D01*
X123925148Y-98294873D01*
X123862855Y-98260813D01*
X123851174Y-98247332D01*
X123812642Y-98195919D01*
X123812641Y-98195918D01*
X123807261Y-98188739D01*
X123690705Y-98101385D01*
X123554316Y-98050255D01*
X123492134Y-98043500D01*
X121871866Y-98043500D01*
X121809684Y-98050255D01*
X121673295Y-98101385D01*
X121556739Y-98188739D01*
X121469385Y-98305295D01*
X121418255Y-98441684D01*
X121411500Y-98503866D01*
X121411500Y-100124134D01*
X121418255Y-100186316D01*
X121469385Y-100322705D01*
X121556739Y-100439261D01*
X121563919Y-100444642D01*
X121615332Y-100483174D01*
X121657847Y-100540033D01*
X121662873Y-100610852D01*
X121628813Y-100673145D01*
X121615333Y-100684825D01*
X121556739Y-100728739D01*
X121469385Y-100845295D01*
X121418255Y-100981684D01*
X121411500Y-101043866D01*
X121411500Y-102664134D01*
X121418255Y-102726316D01*
X121469385Y-102862705D01*
X121556739Y-102979261D01*
X121673295Y-103066615D01*
X121809684Y-103117745D01*
X121871866Y-103124500D01*
X123492134Y-103124500D01*
X123554316Y-103117745D01*
X123690705Y-103066615D01*
X123807261Y-102979261D01*
X123851174Y-102920668D01*
X123908033Y-102878153D01*
X123978852Y-102873127D01*
X124041145Y-102907187D01*
X124052825Y-102920667D01*
X124096739Y-102979261D01*
X124213295Y-103066615D01*
X124349684Y-103117745D01*
X124357536Y-103118598D01*
X124357540Y-103118599D01*
X124389125Y-103122030D01*
X124401108Y-103123331D01*
X124466669Y-103150572D01*
X124507096Y-103208935D01*
X124513500Y-103248594D01*
X124513500Y-108429088D01*
X124513208Y-108437658D01*
X124509275Y-108495352D01*
X124510580Y-108502829D01*
X124510580Y-108502830D01*
X124520261Y-108558299D01*
X124521223Y-108564821D01*
X124528898Y-108628242D01*
X124531581Y-108635343D01*
X124532222Y-108637952D01*
X124536685Y-108654262D01*
X124537450Y-108656798D01*
X124538757Y-108664284D01*
X124541811Y-108671241D01*
X124564442Y-108722795D01*
X124566933Y-108728899D01*
X124589513Y-108788656D01*
X124593817Y-108794919D01*
X124595054Y-108797285D01*
X124603299Y-108812097D01*
X124604632Y-108814351D01*
X124607685Y-108821305D01*
X124639001Y-108862115D01*
X124646579Y-108871991D01*
X124650459Y-108877332D01*
X124682339Y-108923720D01*
X124682344Y-108923725D01*
X124686643Y-108929981D01*
X124692313Y-108935032D01*
X124692314Y-108935034D01*
X124733170Y-108971435D01*
X124738446Y-108976416D01*
X125716550Y-109954520D01*
X125722404Y-109960785D01*
X125760439Y-110004385D01*
X125766653Y-110008752D01*
X125812719Y-110041128D01*
X125818014Y-110045061D01*
X125868282Y-110084476D01*
X125875198Y-110087599D01*
X125877484Y-110088983D01*
X125892165Y-110097357D01*
X125894525Y-110098622D01*
X125900739Y-110102990D01*
X125907818Y-110105750D01*
X125907820Y-110105751D01*
X125960275Y-110126202D01*
X125966344Y-110128753D01*
X126024573Y-110155045D01*
X126032040Y-110156429D01*
X126034595Y-110157230D01*
X126050848Y-110161859D01*
X126053428Y-110162522D01*
X126060509Y-110165282D01*
X126068040Y-110166273D01*
X126068042Y-110166274D01*
X126097661Y-110170173D01*
X126123861Y-110173622D01*
X126130359Y-110174652D01*
X126193186Y-110186296D01*
X126200766Y-110185859D01*
X126200767Y-110185859D01*
X126255392Y-110182709D01*
X126262646Y-110182500D01*
X126730500Y-110182500D01*
X126798621Y-110202502D01*
X126845114Y-110256158D01*
X126856500Y-110308500D01*
X126856500Y-111116724D01*
X126836498Y-111184845D01*
X126796985Y-111222520D01*
X126797248Y-111222882D01*
X126794544Y-111224846D01*
X126794541Y-111224848D01*
X126642747Y-111335134D01*
X126638326Y-111340044D01*
X126638325Y-111340045D01*
X126553847Y-111433868D01*
X126514960Y-111477056D01*
X126502391Y-111498826D01*
X126428087Y-111627525D01*
X126419473Y-111642444D01*
X126360458Y-111824072D01*
X126359768Y-111830633D01*
X126359768Y-111830635D01*
X126345799Y-111963548D01*
X126340496Y-112014000D01*
X126360458Y-112203928D01*
X126419473Y-112385556D01*
X126514960Y-112550944D01*
X126519378Y-112555851D01*
X126519379Y-112555852D01*
X126608427Y-112654750D01*
X126642747Y-112692866D01*
X126728952Y-112755498D01*
X126784916Y-112796158D01*
X126797248Y-112805118D01*
X126803276Y-112807802D01*
X126803278Y-112807803D01*
X126965681Y-112880109D01*
X126971712Y-112882794D01*
X127065112Y-112902647D01*
X127152056Y-112921128D01*
X127152061Y-112921128D01*
X127158513Y-112922500D01*
X127349487Y-112922500D01*
X127355939Y-112921128D01*
X127355944Y-112921128D01*
X127442888Y-112902647D01*
X127536288Y-112882794D01*
X127542319Y-112880109D01*
X127704722Y-112807803D01*
X127704724Y-112807802D01*
X127710752Y-112805118D01*
X127723085Y-112796158D01*
X127779048Y-112755498D01*
X127865253Y-112692866D01*
X127899573Y-112654750D01*
X127988621Y-112555852D01*
X127988622Y-112555851D01*
X127993040Y-112550944D01*
X128088527Y-112385556D01*
X128147542Y-112203928D01*
X128151813Y-112163292D01*
X128178826Y-112097635D01*
X128184803Y-112091407D01*
X128184576Y-112091202D01*
X128189660Y-112085555D01*
X128195385Y-112080561D01*
X128232114Y-112028300D01*
X128236046Y-112023005D01*
X128270791Y-111978694D01*
X128275477Y-111972718D01*
X128278602Y-111965796D01*
X128279964Y-111963548D01*
X128288368Y-111948815D01*
X128289622Y-111946476D01*
X128293990Y-111940261D01*
X128296749Y-111933185D01*
X128296751Y-111933181D01*
X128317200Y-111880731D01*
X128319749Y-111874666D01*
X128346045Y-111816427D01*
X128347429Y-111808962D01*
X128348226Y-111806418D01*
X128352859Y-111790152D01*
X128353521Y-111787572D01*
X128356282Y-111780491D01*
X128357274Y-111772957D01*
X128362511Y-111733177D01*
X128391233Y-111668250D01*
X128450499Y-111629158D01*
X128504557Y-111627425D01*
X128504793Y-111625252D01*
X128563514Y-111631631D01*
X128570328Y-111632000D01*
X128642885Y-111632000D01*
X128658124Y-111627525D01*
X128659329Y-111626135D01*
X128661000Y-111618452D01*
X128661000Y-110446000D01*
X128681002Y-110377879D01*
X128734658Y-110331386D01*
X128787000Y-110320000D01*
X129043000Y-110320000D01*
X129111121Y-110340002D01*
X129157614Y-110393658D01*
X129169000Y-110446000D01*
X129169000Y-111613884D01*
X129173475Y-111629123D01*
X129174865Y-111630328D01*
X129182548Y-111631999D01*
X129259669Y-111631999D01*
X129266490Y-111631629D01*
X129317352Y-111626105D01*
X129332600Y-111622480D01*
X129364489Y-111610525D01*
X129435296Y-111605342D01*
X129497666Y-111639262D01*
X129526585Y-111683968D01*
X129532513Y-111699656D01*
X129536817Y-111705919D01*
X129538054Y-111708285D01*
X129546299Y-111723097D01*
X129547632Y-111725351D01*
X129550685Y-111732305D01*
X129587661Y-111780491D01*
X129589579Y-111782991D01*
X129593459Y-111788332D01*
X129625339Y-111834720D01*
X129625344Y-111834725D01*
X129629643Y-111840981D01*
X129635313Y-111846032D01*
X129635314Y-111846034D01*
X129676170Y-111882435D01*
X129681446Y-111887416D01*
X130288550Y-112494520D01*
X130294404Y-112500785D01*
X130332439Y-112544385D01*
X130338657Y-112548755D01*
X130384697Y-112581112D01*
X130389993Y-112585045D01*
X130440282Y-112624477D01*
X130447204Y-112627602D01*
X130449452Y-112628964D01*
X130464185Y-112637368D01*
X130466524Y-112638622D01*
X130472739Y-112642990D01*
X130479815Y-112645749D01*
X130479819Y-112645751D01*
X130532269Y-112666200D01*
X130538334Y-112668749D01*
X130596573Y-112695045D01*
X130604038Y-112696429D01*
X130606582Y-112697226D01*
X130622848Y-112701859D01*
X130625428Y-112702521D01*
X130632509Y-112705282D01*
X130640042Y-112706274D01*
X130640043Y-112706274D01*
X130672699Y-112710573D01*
X130695857Y-112713622D01*
X130702355Y-112714650D01*
X130765187Y-112726296D01*
X130772767Y-112725859D01*
X130772768Y-112725859D01*
X130827393Y-112722709D01*
X130834647Y-112722500D01*
X130945500Y-112722500D01*
X131013621Y-112742502D01*
X131060114Y-112796158D01*
X131071500Y-112848500D01*
X131071500Y-114336134D01*
X131078255Y-114398316D01*
X131129385Y-114534705D01*
X131216739Y-114651261D01*
X131333295Y-114738615D01*
X131469684Y-114789745D01*
X131531866Y-114796500D01*
X132628134Y-114796500D01*
X132690316Y-114789745D01*
X132690611Y-114789634D01*
X132732627Y-114787729D01*
X132825554Y-114801090D01*
X132825557Y-114801090D01*
X132830000Y-114801729D01*
X133370008Y-114801729D01*
X133370778Y-114801731D01*
X133440931Y-114802160D01*
X133440937Y-114802160D01*
X133445417Y-114802187D01*
X133535382Y-114789864D01*
X133585276Y-114783030D01*
X133585280Y-114783029D01*
X133589727Y-114782420D01*
X133727436Y-114743063D01*
X133860398Y-114683586D01*
X133864180Y-114681200D01*
X133864187Y-114681196D01*
X133977736Y-114609551D01*
X133981526Y-114607160D01*
X134092452Y-114512754D01*
X134187260Y-114405403D01*
X134191916Y-114398316D01*
X134218842Y-114357324D01*
X134272959Y-114311369D01*
X134324154Y-114300500D01*
X134590919Y-114300500D01*
X134659040Y-114320502D01*
X134664980Y-114324564D01*
X134671248Y-114329118D01*
X134677276Y-114331802D01*
X134677278Y-114331803D01*
X134809025Y-114390460D01*
X134845712Y-114406794D01*
X134939112Y-114426647D01*
X135026056Y-114445128D01*
X135026061Y-114445128D01*
X135032513Y-114446500D01*
X135223487Y-114446500D01*
X135229939Y-114445128D01*
X135229944Y-114445128D01*
X135316888Y-114426647D01*
X135410288Y-114406794D01*
X135446975Y-114390460D01*
X135578722Y-114331803D01*
X135578724Y-114331802D01*
X135584752Y-114329118D01*
X135739253Y-114216866D01*
X135867040Y-114074944D01*
X135962527Y-113909556D01*
X136021542Y-113727928D01*
X136041504Y-113538000D01*
X136021542Y-113348072D01*
X135962527Y-113166444D01*
X135867040Y-113001056D01*
X135739253Y-112859134D01*
X135594637Y-112754064D01*
X135590094Y-112750763D01*
X135590093Y-112750762D01*
X135584752Y-112746882D01*
X135578724Y-112744198D01*
X135578722Y-112744197D01*
X135416319Y-112671891D01*
X135416318Y-112671891D01*
X135410288Y-112669206D01*
X135299942Y-112645751D01*
X135229944Y-112630872D01*
X135229939Y-112630872D01*
X135223487Y-112629500D01*
X135032513Y-112629500D01*
X135026061Y-112630872D01*
X135026056Y-112630872D01*
X134956058Y-112645751D01*
X134845712Y-112669206D01*
X134839682Y-112671891D01*
X134839681Y-112671891D01*
X134677278Y-112744197D01*
X134677276Y-112744198D01*
X134671248Y-112746882D01*
X134665907Y-112750762D01*
X134665906Y-112750763D01*
X134664980Y-112751436D01*
X134664354Y-112751660D01*
X134660189Y-112754064D01*
X134659749Y-112753302D01*
X134598113Y-112775294D01*
X134590919Y-112775500D01*
X134324995Y-112775500D01*
X134256874Y-112755498D01*
X134218026Y-112716085D01*
X134202103Y-112690504D01*
X134172049Y-112654750D01*
X134143528Y-112589734D01*
X134142500Y-112573675D01*
X134142500Y-111505741D01*
X134162502Y-111437620D01*
X134202197Y-111398597D01*
X134293120Y-111342332D01*
X134299348Y-111338478D01*
X134348259Y-111289482D01*
X134410542Y-111255403D01*
X134437432Y-111252500D01*
X134548614Y-111252500D01*
X134616735Y-111272502D01*
X134637632Y-111289327D01*
X134687697Y-111339305D01*
X134693927Y-111343145D01*
X134693928Y-111343146D01*
X134831090Y-111427694D01*
X134838262Y-111432115D01*
X134889519Y-111449116D01*
X134999611Y-111485632D01*
X134999613Y-111485632D01*
X135006139Y-111487797D01*
X135012975Y-111488497D01*
X135012978Y-111488498D01*
X135056031Y-111492909D01*
X135110600Y-111498500D01*
X136161400Y-111498500D01*
X136164646Y-111498163D01*
X136164650Y-111498163D01*
X136260308Y-111488238D01*
X136260312Y-111488237D01*
X136267166Y-111487526D01*
X136273702Y-111485345D01*
X136273704Y-111485345D01*
X136416752Y-111437620D01*
X136434946Y-111431550D01*
X136585348Y-111338478D01*
X136710305Y-111213303D01*
X136735682Y-111172134D01*
X136799275Y-111068968D01*
X136799276Y-111068966D01*
X136803115Y-111062738D01*
X136858797Y-110894861D01*
X136869500Y-110790400D01*
X136869500Y-110189600D01*
X136868785Y-110182709D01*
X136859238Y-110090692D01*
X136859237Y-110090688D01*
X136858526Y-110083834D01*
X136844910Y-110043020D01*
X136804868Y-109923002D01*
X136802550Y-109916054D01*
X136709478Y-109765652D01*
X136584303Y-109640695D01*
X136579765Y-109637898D01*
X136539176Y-109580647D01*
X136535946Y-109509724D01*
X136571572Y-109448313D01*
X136580068Y-109440938D01*
X136590207Y-109432902D01*
X136704739Y-109318171D01*
X136713751Y-109306760D01*
X136798816Y-109168757D01*
X136804963Y-109155576D01*
X136856138Y-109001290D01*
X136859005Y-108987914D01*
X136868672Y-108893562D01*
X136869000Y-108887146D01*
X136869000Y-108862115D01*
X136864525Y-108846876D01*
X136863135Y-108845671D01*
X136855452Y-108844000D01*
X133222000Y-108844000D01*
X133153879Y-108823998D01*
X133107386Y-108770342D01*
X133096000Y-108718000D01*
X133096000Y-108317885D01*
X133604000Y-108317885D01*
X133608475Y-108333124D01*
X133609865Y-108334329D01*
X133617548Y-108336000D01*
X135363885Y-108336000D01*
X135379124Y-108331525D01*
X135380329Y-108330135D01*
X135382000Y-108322452D01*
X135382000Y-108317885D01*
X135890000Y-108317885D01*
X135894475Y-108333124D01*
X135895865Y-108334329D01*
X135903548Y-108336000D01*
X136850884Y-108336000D01*
X136866123Y-108331525D01*
X136867328Y-108330135D01*
X136868999Y-108322452D01*
X136868999Y-108292905D01*
X136868662Y-108286386D01*
X136858743Y-108190794D01*
X136855851Y-108177400D01*
X136804412Y-108023216D01*
X136798239Y-108010038D01*
X136712937Y-107872193D01*
X136703901Y-107860792D01*
X136589171Y-107746261D01*
X136577760Y-107737249D01*
X136439757Y-107652184D01*
X136426576Y-107646037D01*
X136272290Y-107594862D01*
X136258914Y-107591995D01*
X136164562Y-107582328D01*
X136158145Y-107582000D01*
X135908115Y-107582000D01*
X135892876Y-107586475D01*
X135891671Y-107587865D01*
X135890000Y-107595548D01*
X135890000Y-108317885D01*
X135382000Y-108317885D01*
X135382000Y-107600116D01*
X135377525Y-107584877D01*
X135376135Y-107583672D01*
X135368452Y-107582001D01*
X135113905Y-107582001D01*
X135107386Y-107582338D01*
X135011794Y-107592257D01*
X134998400Y-107595149D01*
X134844216Y-107646588D01*
X134831038Y-107652761D01*
X134693193Y-107738063D01*
X134681787Y-107747103D01*
X134582246Y-107846816D01*
X134519964Y-107880895D01*
X134449143Y-107875892D01*
X134404056Y-107846971D01*
X134303171Y-107746261D01*
X134291760Y-107737249D01*
X134153757Y-107652184D01*
X134140576Y-107646037D01*
X133986290Y-107594862D01*
X133972914Y-107591995D01*
X133878562Y-107582328D01*
X133872145Y-107582000D01*
X133622115Y-107582000D01*
X133606876Y-107586475D01*
X133605671Y-107587865D01*
X133604000Y-107595548D01*
X133604000Y-108317885D01*
X133096000Y-108317885D01*
X133096000Y-107600116D01*
X133091525Y-107584877D01*
X133090135Y-107583672D01*
X133082452Y-107582001D01*
X132827905Y-107582001D01*
X132821386Y-107582338D01*
X132725794Y-107592257D01*
X132712400Y-107595149D01*
X132558216Y-107646588D01*
X132545038Y-107652761D01*
X132407193Y-107738063D01*
X132402951Y-107741425D01*
X132337140Y-107768060D01*
X132267376Y-107754888D01*
X132215809Y-107706089D01*
X132206707Y-107686907D01*
X132168767Y-107585703D01*
X132165615Y-107577295D01*
X132148673Y-107554689D01*
X132123826Y-107488185D01*
X132123500Y-107479126D01*
X132123500Y-107436660D01*
X132143502Y-107368539D01*
X132160405Y-107347565D01*
X132844565Y-106663405D01*
X132906877Y-106629379D01*
X132933660Y-106626500D01*
X137647480Y-106626500D01*
X137715601Y-106646502D01*
X137762094Y-106700158D01*
X137772790Y-106739329D01*
X137790458Y-106907428D01*
X137792498Y-106913706D01*
X137832784Y-107037693D01*
X137834812Y-107108660D01*
X137798149Y-107169458D01*
X137788519Y-107177453D01*
X137698739Y-107244739D01*
X137611385Y-107361295D01*
X137560255Y-107497684D01*
X137553500Y-107559866D01*
X137553500Y-109356134D01*
X137560255Y-109418316D01*
X137611385Y-109554705D01*
X137698739Y-109671261D01*
X137815295Y-109758615D01*
X137951684Y-109809745D01*
X138013866Y-109816500D01*
X139410134Y-109816500D01*
X139472316Y-109809745D01*
X139608705Y-109758615D01*
X139725261Y-109671261D01*
X139812615Y-109554705D01*
X139863745Y-109418316D01*
X139870500Y-109356134D01*
X139870500Y-109352669D01*
X141054001Y-109352669D01*
X141054371Y-109359490D01*
X141059895Y-109410352D01*
X141063521Y-109425604D01*
X141108676Y-109546054D01*
X141117214Y-109561649D01*
X141193715Y-109663724D01*
X141206276Y-109676285D01*
X141308351Y-109752786D01*
X141323946Y-109761324D01*
X141444394Y-109806478D01*
X141459649Y-109810105D01*
X141510514Y-109815631D01*
X141517328Y-109816000D01*
X141939885Y-109816000D01*
X141955124Y-109811525D01*
X141956329Y-109810135D01*
X141958000Y-109802452D01*
X141958000Y-109797884D01*
X142466000Y-109797884D01*
X142470475Y-109813123D01*
X142471865Y-109814328D01*
X142479548Y-109815999D01*
X142906669Y-109815999D01*
X142913490Y-109815629D01*
X142964352Y-109810105D01*
X142979604Y-109806479D01*
X143100054Y-109761324D01*
X143115649Y-109752786D01*
X143217724Y-109676285D01*
X143230285Y-109663724D01*
X143306786Y-109561649D01*
X143315324Y-109546054D01*
X143360478Y-109425606D01*
X143364105Y-109410351D01*
X143369631Y-109359486D01*
X143370000Y-109352672D01*
X143370000Y-108730115D01*
X143365525Y-108714876D01*
X143364135Y-108713671D01*
X143356452Y-108712000D01*
X142484115Y-108712000D01*
X142468876Y-108716475D01*
X142467671Y-108717865D01*
X142466000Y-108725548D01*
X142466000Y-109797884D01*
X141958000Y-109797884D01*
X141958000Y-108730115D01*
X141953525Y-108714876D01*
X141952135Y-108713671D01*
X141944452Y-108712000D01*
X141072116Y-108712000D01*
X141056877Y-108716475D01*
X141055672Y-108717865D01*
X141054001Y-108725548D01*
X141054001Y-109352669D01*
X139870500Y-109352669D01*
X139870500Y-108185885D01*
X141054000Y-108185885D01*
X141058475Y-108201124D01*
X141059865Y-108202329D01*
X141067548Y-108204000D01*
X141939885Y-108204000D01*
X141955124Y-108199525D01*
X141956329Y-108198135D01*
X141958000Y-108190452D01*
X141958000Y-108185885D01*
X142466000Y-108185885D01*
X142470475Y-108201124D01*
X142471865Y-108202329D01*
X142479548Y-108204000D01*
X143351884Y-108204000D01*
X143367123Y-108199525D01*
X143368328Y-108198135D01*
X143369999Y-108190452D01*
X143369999Y-108106000D01*
X143760310Y-108106000D01*
X150879691Y-108106000D01*
X150879691Y-105254000D01*
X143760310Y-105254000D01*
X143760310Y-108106000D01*
X143369999Y-108106000D01*
X143369999Y-107563331D01*
X143369629Y-107556510D01*
X143364105Y-107505648D01*
X143360479Y-107490396D01*
X143315324Y-107369946D01*
X143306786Y-107354351D01*
X143230285Y-107252276D01*
X143217724Y-107239715D01*
X143115649Y-107163214D01*
X143100054Y-107154676D01*
X142979606Y-107109522D01*
X142964351Y-107105895D01*
X142913486Y-107100369D01*
X142906672Y-107100000D01*
X142484115Y-107100000D01*
X142468876Y-107104475D01*
X142467671Y-107105865D01*
X142466000Y-107113548D01*
X142466000Y-108185885D01*
X141958000Y-108185885D01*
X141958000Y-107118116D01*
X141953525Y-107102877D01*
X141952135Y-107101672D01*
X141944452Y-107100001D01*
X141517331Y-107100001D01*
X141510510Y-107100371D01*
X141459648Y-107105895D01*
X141444396Y-107109521D01*
X141323946Y-107154676D01*
X141308351Y-107163214D01*
X141206276Y-107239715D01*
X141193715Y-107252276D01*
X141117214Y-107354351D01*
X141108676Y-107369946D01*
X141063522Y-107490394D01*
X141059895Y-107505649D01*
X141054369Y-107556514D01*
X141054000Y-107563328D01*
X141054000Y-108185885D01*
X139870500Y-108185885D01*
X139870500Y-107559866D01*
X139863745Y-107497684D01*
X139812615Y-107361295D01*
X139725261Y-107244739D01*
X139608705Y-107157385D01*
X139603337Y-107155373D01*
X139554343Y-107106269D01*
X139539330Y-107036877D01*
X139545166Y-107007072D01*
X139575502Y-106913706D01*
X139577542Y-106907428D01*
X139597504Y-106717500D01*
X139593032Y-106674954D01*
X139578232Y-106534135D01*
X139578232Y-106534133D01*
X139577542Y-106527572D01*
X139518527Y-106345944D01*
X139471517Y-106264521D01*
X139454780Y-106195528D01*
X139478000Y-106128436D01*
X139491542Y-106112428D01*
X139823020Y-105780950D01*
X139829285Y-105775096D01*
X139867160Y-105742055D01*
X139872885Y-105737061D01*
X139909614Y-105684800D01*
X139913546Y-105679505D01*
X139948291Y-105635194D01*
X139952977Y-105629218D01*
X139956102Y-105622296D01*
X139957464Y-105620048D01*
X139965868Y-105605315D01*
X139967122Y-105602976D01*
X139971490Y-105596761D01*
X139974249Y-105589685D01*
X139974251Y-105589681D01*
X139994702Y-105537226D01*
X139997258Y-105531146D01*
X140005158Y-105513649D01*
X140053692Y-105458355D01*
X140073122Y-105446331D01*
X140073123Y-105446330D01*
X140079348Y-105442478D01*
X140204305Y-105317303D01*
X140224054Y-105285265D01*
X140293275Y-105172968D01*
X140293276Y-105172966D01*
X140297115Y-105166738D01*
X140352797Y-104998861D01*
X140363500Y-104894400D01*
X140363500Y-103893600D01*
X140363163Y-103890350D01*
X140353238Y-103794692D01*
X140353237Y-103794688D01*
X140352526Y-103787834D01*
X140349808Y-103779685D01*
X140298868Y-103627002D01*
X140296550Y-103620054D01*
X140203478Y-103469652D01*
X140078303Y-103344695D01*
X139960033Y-103271792D01*
X139912541Y-103219021D01*
X139901117Y-103148949D01*
X139929391Y-103083825D01*
X139950585Y-103063707D01*
X139950661Y-103063650D01*
X140063261Y-102979261D01*
X140107487Y-102920251D01*
X140164344Y-102877736D01*
X140235163Y-102872710D01*
X140297456Y-102906770D01*
X140309138Y-102920251D01*
X140347715Y-102971724D01*
X140360276Y-102984285D01*
X140462351Y-103060786D01*
X140477946Y-103069324D01*
X140598394Y-103114478D01*
X140613649Y-103118105D01*
X140664514Y-103123631D01*
X140671328Y-103124000D01*
X141205885Y-103124000D01*
X141221124Y-103119525D01*
X141222329Y-103118135D01*
X141224000Y-103110452D01*
X141224000Y-103105884D01*
X141732000Y-103105884D01*
X141736475Y-103121123D01*
X141737865Y-103122328D01*
X141745548Y-103123999D01*
X142284669Y-103123999D01*
X142291490Y-103123629D01*
X142342352Y-103118105D01*
X142357604Y-103114479D01*
X142478054Y-103069324D01*
X142493649Y-103060786D01*
X142595724Y-102984285D01*
X142608285Y-102971724D01*
X142684786Y-102869649D01*
X142693324Y-102854054D01*
X142738478Y-102733606D01*
X142742105Y-102718351D01*
X142747631Y-102667486D01*
X142748000Y-102660672D01*
X142748000Y-102126115D01*
X142743525Y-102110876D01*
X142742135Y-102109671D01*
X142734452Y-102108000D01*
X141750115Y-102108000D01*
X141734876Y-102112475D01*
X141733671Y-102113865D01*
X141732000Y-102121548D01*
X141732000Y-103105884D01*
X141224000Y-103105884D01*
X141224000Y-101581885D01*
X141732000Y-101581885D01*
X141736475Y-101597124D01*
X141737865Y-101598329D01*
X141745548Y-101600000D01*
X142729884Y-101600000D01*
X142745123Y-101595525D01*
X142746328Y-101594135D01*
X142747999Y-101586452D01*
X142747999Y-101047331D01*
X142747629Y-101040510D01*
X142742105Y-100989648D01*
X142738479Y-100974396D01*
X142693324Y-100853946D01*
X142684786Y-100838351D01*
X142608285Y-100736276D01*
X142595725Y-100723716D01*
X142543835Y-100684827D01*
X142501319Y-100627968D01*
X142496293Y-100557149D01*
X142530353Y-100494856D01*
X142543835Y-100483173D01*
X142595725Y-100444284D01*
X142608285Y-100431724D01*
X142684786Y-100329649D01*
X142693324Y-100314054D01*
X142738478Y-100193606D01*
X142742105Y-100178351D01*
X142747631Y-100127486D01*
X142748000Y-100120672D01*
X142748000Y-99586115D01*
X142743525Y-99570876D01*
X142742135Y-99569671D01*
X142734452Y-99568000D01*
X141750115Y-99568000D01*
X141734876Y-99572475D01*
X141733671Y-99573865D01*
X141732000Y-99581548D01*
X141732000Y-101581885D01*
X141224000Y-101581885D01*
X141224000Y-99041885D01*
X141732000Y-99041885D01*
X141736475Y-99057124D01*
X141737865Y-99058329D01*
X141745548Y-99060000D01*
X142729884Y-99060000D01*
X142745123Y-99055525D01*
X142746328Y-99054135D01*
X142747999Y-99046452D01*
X142747999Y-98507331D01*
X142747629Y-98500510D01*
X142742105Y-98449648D01*
X142738479Y-98434396D01*
X142693324Y-98313946D01*
X142684786Y-98298351D01*
X142608285Y-98196276D01*
X142595724Y-98183715D01*
X142493649Y-98107214D01*
X142478054Y-98098676D01*
X142357606Y-98053522D01*
X142342351Y-98049895D01*
X142291486Y-98044369D01*
X142284672Y-98044000D01*
X141750115Y-98044000D01*
X141734876Y-98048475D01*
X141733671Y-98049865D01*
X141732000Y-98057548D01*
X141732000Y-99041885D01*
X141224000Y-99041885D01*
X141224000Y-98062116D01*
X141219525Y-98046877D01*
X141218135Y-98045672D01*
X141210452Y-98044001D01*
X140671331Y-98044001D01*
X140664510Y-98044371D01*
X140613648Y-98049895D01*
X140598396Y-98053521D01*
X140477946Y-98098676D01*
X140462351Y-98107214D01*
X140360276Y-98183715D01*
X140347715Y-98196276D01*
X140309138Y-98247749D01*
X140252279Y-98290264D01*
X140181460Y-98295290D01*
X140119167Y-98261230D01*
X140107491Y-98247755D01*
X140063261Y-98188739D01*
X139946705Y-98101385D01*
X139810316Y-98050255D01*
X139748134Y-98043500D01*
X138127866Y-98043500D01*
X138065684Y-98050255D01*
X137929295Y-98101385D01*
X137812739Y-98188739D01*
X137807359Y-98195918D01*
X137807358Y-98195919D01*
X137768826Y-98247332D01*
X137711967Y-98289847D01*
X137641148Y-98294873D01*
X137578855Y-98260813D01*
X137567174Y-98247332D01*
X137528642Y-98195919D01*
X137528641Y-98195918D01*
X137523261Y-98188739D01*
X137406705Y-98101385D01*
X137270316Y-98050255D01*
X137208134Y-98043500D01*
X135587866Y-98043500D01*
X135525684Y-98050255D01*
X135389295Y-98101385D01*
X135272739Y-98188739D01*
X135267359Y-98195918D01*
X135267358Y-98195919D01*
X135228826Y-98247332D01*
X135171967Y-98289847D01*
X135101148Y-98294873D01*
X135038855Y-98260813D01*
X135027174Y-98247332D01*
X134988642Y-98195919D01*
X134988641Y-98195918D01*
X134983261Y-98188739D01*
X134866705Y-98101385D01*
X134730316Y-98050255D01*
X134668134Y-98043500D01*
X133641660Y-98043500D01*
X133573539Y-98023498D01*
X133552565Y-98006595D01*
X133043565Y-97497595D01*
X133009539Y-97435283D01*
X133014604Y-97364468D01*
X133057151Y-97307632D01*
X133123671Y-97282821D01*
X133132660Y-97282500D01*
X151511500Y-97282500D01*
X151579621Y-97302502D01*
X151626114Y-97356158D01*
X151637500Y-97408500D01*
X151637500Y-115951500D01*
X151617498Y-116019621D01*
X151563842Y-116066114D01*
X151511500Y-116077500D01*
X112648500Y-116077500D01*
X112580379Y-116057498D01*
X112533886Y-116003842D01*
X112522500Y-115951500D01*
X112522500Y-108131400D01*
X113110605Y-108131400D01*
X122753795Y-108131400D01*
X122753795Y-105279400D01*
X113110605Y-105279400D01*
X113110605Y-108131400D01*
X112522500Y-108131400D01*
X112522500Y-97408500D01*
X112542502Y-97340379D01*
X112596158Y-97293886D01*
X112648500Y-97282500D01*
X125947340Y-97282500D01*
X126015461Y-97302502D01*
G37*
%TD.AperFunction*%
%TA.AperFunction,Conductor*%
G36*
X129990121Y-98518502D02*
G01*
X130036614Y-98572158D01*
X130048000Y-98624500D01*
X130048000Y-99041885D01*
X130052475Y-99057124D01*
X130053865Y-99058329D01*
X130061548Y-99060000D01*
X131446000Y-99060000D01*
X131514121Y-99080002D01*
X131560614Y-99133658D01*
X131572000Y-99186000D01*
X131572000Y-103105884D01*
X131576475Y-103121123D01*
X131577865Y-103122328D01*
X131585548Y-103123999D01*
X132124669Y-103123999D01*
X132131490Y-103123629D01*
X132182352Y-103118105D01*
X132197604Y-103114479D01*
X132318054Y-103069324D01*
X132333649Y-103060786D01*
X132435724Y-102984285D01*
X132448285Y-102971724D01*
X132486862Y-102920251D01*
X132543721Y-102877736D01*
X132614540Y-102872710D01*
X132676833Y-102906770D01*
X132688509Y-102920245D01*
X132732739Y-102979261D01*
X132739919Y-102984642D01*
X132739920Y-102984643D01*
X132845338Y-103063650D01*
X132887853Y-103120510D01*
X132892878Y-103191328D01*
X132858819Y-103253621D01*
X132836077Y-103271619D01*
X132716652Y-103345522D01*
X132591695Y-103470697D01*
X132498885Y-103621262D01*
X132497205Y-103620226D01*
X132456879Y-103666031D01*
X132389595Y-103685500D01*
X132108912Y-103685500D01*
X132100342Y-103685208D01*
X132050224Y-103681791D01*
X132050220Y-103681791D01*
X132042648Y-103681275D01*
X132035171Y-103682580D01*
X132035170Y-103682580D01*
X132008692Y-103687201D01*
X131979697Y-103692262D01*
X131973179Y-103693223D01*
X131909758Y-103700898D01*
X131902657Y-103703581D01*
X131900048Y-103704222D01*
X131883738Y-103708685D01*
X131881202Y-103709450D01*
X131873716Y-103710757D01*
X131866759Y-103713811D01*
X131815205Y-103736442D01*
X131809101Y-103738933D01*
X131749344Y-103761513D01*
X131743081Y-103765817D01*
X131740715Y-103767054D01*
X131725903Y-103775299D01*
X131723649Y-103776632D01*
X131716695Y-103779685D01*
X131665998Y-103818587D01*
X131660668Y-103822459D01*
X131614280Y-103854339D01*
X131614275Y-103854344D01*
X131608019Y-103858643D01*
X131602968Y-103864313D01*
X131602966Y-103864314D01*
X131566565Y-103905170D01*
X131561584Y-103910446D01*
X129684480Y-105787550D01*
X129678215Y-105793404D01*
X129634615Y-105831439D01*
X129630248Y-105837653D01*
X129597872Y-105883719D01*
X129593939Y-105889014D01*
X129554524Y-105939282D01*
X129551401Y-105946198D01*
X129550017Y-105948484D01*
X129541643Y-105963165D01*
X129540378Y-105965525D01*
X129536010Y-105971739D01*
X129533250Y-105978818D01*
X129533249Y-105978820D01*
X129512798Y-106031275D01*
X129510247Y-106037344D01*
X129483955Y-106095573D01*
X129482571Y-106103040D01*
X129481770Y-106105595D01*
X129477141Y-106121848D01*
X129476478Y-106124428D01*
X129473718Y-106131509D01*
X129472727Y-106139040D01*
X129472726Y-106139042D01*
X129465379Y-106194852D01*
X129464348Y-106201359D01*
X129452704Y-106264186D01*
X129453141Y-106271766D01*
X129453141Y-106271767D01*
X129456291Y-106326392D01*
X129456500Y-106333646D01*
X129456500Y-106560340D01*
X129436498Y-106628461D01*
X129382842Y-106674954D01*
X129312568Y-106685058D01*
X129247988Y-106655564D01*
X129241405Y-106649435D01*
X127237405Y-104645435D01*
X127203379Y-104583123D01*
X127200500Y-104556340D01*
X127200500Y-103250500D01*
X127220502Y-103182379D01*
X127274158Y-103135886D01*
X127326500Y-103124500D01*
X128572134Y-103124500D01*
X128634316Y-103117745D01*
X128770705Y-103066615D01*
X128887261Y-102979261D01*
X128974615Y-102862705D01*
X129025745Y-102726316D01*
X129032500Y-102664134D01*
X129032500Y-102660669D01*
X130048001Y-102660669D01*
X130048371Y-102667490D01*
X130053895Y-102718352D01*
X130057521Y-102733604D01*
X130102676Y-102854054D01*
X130111214Y-102869649D01*
X130187715Y-102971724D01*
X130200276Y-102984285D01*
X130302351Y-103060786D01*
X130317946Y-103069324D01*
X130438394Y-103114478D01*
X130453649Y-103118105D01*
X130504514Y-103123631D01*
X130511328Y-103124000D01*
X131045885Y-103124000D01*
X131061124Y-103119525D01*
X131062329Y-103118135D01*
X131064000Y-103110452D01*
X131064000Y-102126115D01*
X131059525Y-102110876D01*
X131058135Y-102109671D01*
X131050452Y-102108000D01*
X130066116Y-102108000D01*
X130050877Y-102112475D01*
X130049672Y-102113865D01*
X130048001Y-102121548D01*
X130048001Y-102660669D01*
X129032500Y-102660669D01*
X129032500Y-101581885D01*
X130048000Y-101581885D01*
X130052475Y-101597124D01*
X130053865Y-101598329D01*
X130061548Y-101600000D01*
X131045885Y-101600000D01*
X131061124Y-101595525D01*
X131062329Y-101594135D01*
X131064000Y-101586452D01*
X131064000Y-99586115D01*
X131059525Y-99570876D01*
X131058135Y-99569671D01*
X131050452Y-99568000D01*
X130066116Y-99568000D01*
X130050877Y-99572475D01*
X130049672Y-99573865D01*
X130048001Y-99581548D01*
X130048001Y-100120669D01*
X130048371Y-100127490D01*
X130053895Y-100178352D01*
X130057521Y-100193604D01*
X130102676Y-100314054D01*
X130111214Y-100329649D01*
X130187715Y-100431724D01*
X130200275Y-100444284D01*
X130252165Y-100483173D01*
X130294681Y-100540032D01*
X130299707Y-100610851D01*
X130265647Y-100673144D01*
X130252165Y-100684827D01*
X130200275Y-100723716D01*
X130187715Y-100736276D01*
X130111214Y-100838351D01*
X130102676Y-100853946D01*
X130057522Y-100974394D01*
X130053895Y-100989649D01*
X130048369Y-101040514D01*
X130048000Y-101047328D01*
X130048000Y-101581885D01*
X129032500Y-101581885D01*
X129032500Y-101043866D01*
X129025745Y-100981684D01*
X128974615Y-100845295D01*
X128887261Y-100728739D01*
X128828251Y-100684513D01*
X128785736Y-100627656D01*
X128780710Y-100556837D01*
X128814770Y-100494544D01*
X128828251Y-100482862D01*
X128879724Y-100444285D01*
X128892285Y-100431724D01*
X128968786Y-100329649D01*
X128977324Y-100314054D01*
X129022478Y-100193606D01*
X129026105Y-100178351D01*
X129031631Y-100127486D01*
X129032000Y-100120672D01*
X129032000Y-99586115D01*
X129027525Y-99570876D01*
X129026135Y-99569671D01*
X129018452Y-99568000D01*
X127634000Y-99568000D01*
X127565879Y-99547998D01*
X127519386Y-99494342D01*
X127508000Y-99442000D01*
X127508000Y-99186000D01*
X127528002Y-99117879D01*
X127581658Y-99071386D01*
X127634000Y-99060000D01*
X129013884Y-99060000D01*
X129029123Y-99055525D01*
X129030328Y-99054135D01*
X129031999Y-99046452D01*
X129031999Y-98624500D01*
X129052001Y-98556379D01*
X129105657Y-98509886D01*
X129157999Y-98498500D01*
X129922000Y-98498500D01*
X129990121Y-98518502D01*
G37*
%TD.AperFunction*%
%TD*%
M02*
