M48
; DRILL file {KiCad 6.0.10+dfsg-1~bpo11+1} date Mon Feb 13 16:13:43 2023
; FORMAT={-:-/ absolute / metric / decimal}
; #@! TF.CreationDate,2023-02-13T16:13:43+00:00
; #@! TF.GenerationSoftware,Kicad,Pcbnew,6.0.10+dfsg-1~bpo11+1
; #@! TF.FileFunction,Plated,1,2,PTH
FMAT,2
METRIC
; #@! TA.AperFunction,Plated,PTH,ViaDrill
T1C0.400
; #@! TA.AperFunction,Plated,PTH,ComponentDrill
T2C0.889
; #@! TA.AperFunction,Plated,PTH,ComponentDrill
T3C3.000
%
G90
G05
T1
X127.254Y-112.014
X128.524Y-113.03
X129.286Y-104.648
X129.286Y-112.268
X129.286Y-113.538
X133.096Y-107.188
X134.112Y-107.188
X135.128Y-107.188
X135.128Y-113.538
X136.144Y-107.188
X137.16Y-107.188
X137.16Y-109.474
X138.684Y-106.718
X141.478Y-106.426
X142.24Y-110.49
X142.748Y-106.426
X144.018Y-108.712
T2
X122.682Y-99.314
X122.682Y-101.854
X125.222Y-99.314
X125.222Y-101.854
X127.762Y-99.314
X127.762Y-101.854
X131.318Y-99.314
X131.318Y-101.854
X133.858Y-99.314
X133.858Y-101.854
X136.398Y-99.314
X136.398Y-101.854
X138.938Y-99.314
X138.938Y-101.854
X141.478Y-99.314
X141.478Y-101.854
T3
X116.84Y-101.6
X116.84Y-111.76
X147.32Y-101.6
X147.32Y-111.76
T0
M30
