%TF.GenerationSoftware,KiCad,Pcbnew,6.0.10+dfsg-1~bpo11+1*%
%TF.CreationDate,2023-01-18T23:56:57+00:00*%
%TF.ProjectId,ALTIMET02A,414c5449-4d45-4543-9032-412e6b696361,rev?*%
%TF.SameCoordinates,Original*%
%TF.FileFunction,Copper,L1,Top*%
%TF.FilePolarity,Positive*%
%FSLAX46Y46*%
G04 Gerber Fmt 4.6, Leading zero omitted, Abs format (unit mm)*
G04 Created by KiCad (PCBNEW 6.0.10+dfsg-1~bpo11+1) date 2023-01-18 23:56:57*
%MOMM*%
%LPD*%
G01*
G04 APERTURE LIST*
G04 Aperture macros list*
%AMFreePoly0*
4,1,22,0.550000,-0.750000,0.000000,-0.750000,0.000000,-0.745033,-0.079941,-0.743568,-0.215256,-0.701293,-0.333266,-0.622738,-0.424486,-0.514219,-0.481581,-0.384460,-0.499164,-0.250000,-0.500000,-0.250000,-0.500000,0.250000,-0.499164,0.250000,-0.499963,0.256109,-0.478152,0.396186,-0.417904,0.524511,-0.324060,0.630769,-0.204165,0.706417,-0.067858,0.745374,0.000000,0.744959,0.000000,0.750000,
0.550000,0.750000,0.550000,-0.750000,0.550000,-0.750000,$1*%
%AMFreePoly1*
4,1,20,0.000000,0.744959,0.073905,0.744508,0.209726,0.703889,0.328688,0.626782,0.421226,0.519385,0.479903,0.390333,0.500000,0.250000,0.500000,-0.250000,0.499851,-0.262216,0.476331,-0.402017,0.414519,-0.529596,0.319384,-0.634700,0.198574,-0.708877,0.061801,-0.746166,0.000000,-0.745033,0.000000,-0.750000,-0.550000,-0.750000,-0.550000,0.750000,0.000000,0.750000,0.000000,0.744959,
0.000000,0.744959,$1*%
G04 Aperture macros list end*
%TA.AperFunction,ComponentPad*%
%ADD10R,1.524000X1.524000*%
%TD*%
%TA.AperFunction,ComponentPad*%
%ADD11C,6.000000*%
%TD*%
%TA.AperFunction,SMDPad,CuDef*%
%ADD12FreePoly0,0.000000*%
%TD*%
%TA.AperFunction,SMDPad,CuDef*%
%ADD13R,1.000000X1.500000*%
%TD*%
%TA.AperFunction,SMDPad,CuDef*%
%ADD14FreePoly1,0.000000*%
%TD*%
%TA.AperFunction,ViaPad*%
%ADD15C,0.800000*%
%TD*%
%TA.AperFunction,Conductor*%
%ADD16C,0.508000*%
%TD*%
%TA.AperFunction,Conductor*%
%ADD17C,0.400000*%
%TD*%
G04 APERTURE END LIST*
%TO.C,JP3*%
G36*
X133712000Y-114346000D02*
G01*
X133212000Y-114346000D01*
X133212000Y-113746000D01*
X133712000Y-113746000D01*
X133712000Y-114346000D01*
G37*
%TO.C,JP1*%
G36*
X140062000Y-114346000D02*
G01*
X139562000Y-114346000D01*
X139562000Y-113746000D01*
X140062000Y-113746000D01*
X140062000Y-114346000D01*
G37*
%TD*%
D10*
%TO.P,J3,1*%
%TO.N,GND*%
X141478000Y-99314000D03*
%TO.P,J3,2*%
X141478000Y-101854000D03*
%TO.P,J3,3*%
%TO.N,SCLK*%
X138938000Y-99314000D03*
%TO.P,J3,4*%
X138938000Y-101854000D03*
%TO.P,J3,5*%
%TO.N,VDD*%
X136398000Y-99314000D03*
%TO.P,J3,6*%
X136398000Y-101854000D03*
%TO.P,J3,7*%
%TO.N,MOSI{slash}SDA*%
X133858000Y-99314000D03*
%TO.P,J3,8*%
X133858000Y-101854000D03*
%TO.P,J3,9*%
%TO.N,GND*%
X131318000Y-99314000D03*
%TO.P,J3,10*%
X131318000Y-101854000D03*
%TD*%
%TO.P,J2,1*%
%TO.N,MISO*%
X122682000Y-101854000D03*
%TO.P,J2,2*%
%TO.N,VDD*%
X122682000Y-99314000D03*
%TO.P,J2,3*%
%TO.N,SCLK*%
X125222000Y-101854000D03*
%TO.P,J2,4*%
%TO.N,MOSI{slash}SDA*%
X125222000Y-99314000D03*
%TO.P,J2,5*%
%TO.N,CS{slash}A*%
X127762000Y-101854000D03*
%TO.P,J2,6*%
%TO.N,GND*%
X127762000Y-99314000D03*
%TD*%
D11*
%TO.P,H1,1,1*%
%TO.N,GND*%
X147320000Y-111760000D03*
%TD*%
%TO.P,H4,1,1*%
%TO.N,GND*%
X116840000Y-101600000D03*
%TD*%
D12*
%TO.P,JP3,1,A*%
%TO.N,GND*%
X132812000Y-114046000D03*
D13*
%TO.P,JP3,2,C*%
%TO.N,CS{slash}A*%
X134112000Y-114046000D03*
D14*
%TO.P,JP3,3,B*%
%TO.N,VDD*%
X135412000Y-114046000D03*
%TD*%
D11*
%TO.P,H3,1,1*%
%TO.N,GND*%
X147320000Y-101600000D03*
%TD*%
D12*
%TO.P,JP1,1,A*%
%TO.N,VDD*%
X139162000Y-114046000D03*
D13*
%TO.P,JP1,2,C*%
%TO.N,/PS*%
X140462000Y-114046000D03*
D14*
%TO.P,JP1,3,B*%
%TO.N,GND*%
X141762000Y-114046000D03*
%TD*%
D10*
%TO.P,J1,1*%
%TO.N,GND*%
X129540000Y-111506000D03*
%TO.P,J1,2*%
X129540000Y-114046000D03*
%TO.P,J1,3*%
%TO.N,VDD*%
X127000000Y-111506000D03*
%TO.P,J1,4*%
X127000000Y-114046000D03*
%TO.P,J1,5*%
%TO.N,GND*%
X124460000Y-111506000D03*
%TO.P,J1,6*%
X124460000Y-114046000D03*
%TD*%
D11*
%TO.P,H2,1,1*%
%TO.N,GND*%
X116840000Y-111760000D03*
%TD*%
D15*
%TO.N,VDD*%
X141732000Y-106172000D03*
X137160000Y-114046000D03*
%TO.N,CS{slash}A*%
X131318000Y-112268000D03*
%TO.N,/PS*%
X134620000Y-112014000D03*
%TD*%
D16*
%TO.N,VDD*%
X140716000Y-106172000D02*
X136398000Y-101854000D01*
X127000000Y-114046000D02*
X127000000Y-111506000D01*
X127000000Y-111506000D02*
X127000000Y-109474000D01*
X121158000Y-103632000D02*
X121158000Y-100838000D01*
X127000000Y-109474000D02*
X121158000Y-103632000D01*
X139162000Y-114046000D02*
X137160000Y-114046000D01*
X121158000Y-100838000D02*
X122682000Y-99314000D01*
X137160000Y-114046000D02*
X135412000Y-114046000D01*
X141732000Y-106172000D02*
X140716000Y-106172000D01*
D17*
%TO.N,CS{slash}A*%
X131318000Y-112268000D02*
X131318000Y-108458000D01*
X132012500Y-115248500D02*
X131318000Y-114554000D01*
X131318000Y-108458000D02*
X127762000Y-104902000D01*
X134112000Y-114994500D02*
X133858000Y-115248500D01*
X131318000Y-114554000D02*
X131318000Y-112268000D01*
X133858000Y-115248500D02*
X132012500Y-115248500D01*
X134112000Y-114046000D02*
X134112000Y-114994500D01*
X127762000Y-104902000D02*
X127762000Y-101854000D01*
%TO.N,/PS*%
X139700000Y-112014000D02*
X140462000Y-112776000D01*
X140462000Y-112776000D02*
X140462000Y-114046000D01*
X134620000Y-112014000D02*
X139700000Y-112014000D01*
%TD*%
%TA.AperFunction,Conductor*%
%TO.N,GND*%
G36*
X151579621Y-97302502D02*
G01*
X151626114Y-97356158D01*
X151637500Y-97408500D01*
X151637500Y-115951500D01*
X151617498Y-116019621D01*
X151563842Y-116066114D01*
X151511500Y-116077500D01*
X134312706Y-116077500D01*
X134244585Y-116057498D01*
X134198092Y-116003842D01*
X134187988Y-115933568D01*
X134217482Y-115868988D01*
X134236000Y-115851539D01*
X134243168Y-115846039D01*
X134272002Y-115823913D01*
X134277332Y-115820041D01*
X134323720Y-115788161D01*
X134323725Y-115788156D01*
X134329981Y-115783857D01*
X134371435Y-115737330D01*
X134376416Y-115732054D01*
X134592535Y-115515936D01*
X134598800Y-115510083D01*
X134636664Y-115477052D01*
X134636665Y-115477051D01*
X134642385Y-115472061D01*
X134679136Y-115419771D01*
X134683028Y-115414529D01*
X134722476Y-115364218D01*
X134722476Y-115364217D01*
X134722583Y-115364301D01*
X134772240Y-115318902D01*
X134845544Y-115307363D01*
X134857541Y-115309088D01*
X134857543Y-115309088D01*
X134862000Y-115309729D01*
X135399322Y-115309729D01*
X135401630Y-115309750D01*
X135465020Y-115310912D01*
X135496659Y-115306971D01*
X135605128Y-115293460D01*
X135605132Y-115293459D01*
X135609565Y-115292907D01*
X135747745Y-115255234D01*
X135751862Y-115253452D01*
X135751866Y-115253451D01*
X135877296Y-115199173D01*
X135877301Y-115199171D01*
X135881420Y-115197388D01*
X136003472Y-115122448D01*
X136006922Y-115119584D01*
X136112093Y-115032270D01*
X136112095Y-115032268D01*
X136115540Y-115029408D01*
X136211654Y-114923224D01*
X136251574Y-114864040D01*
X136306249Y-114818752D01*
X136356032Y-114808500D01*
X136622919Y-114808500D01*
X136691040Y-114828502D01*
X136696980Y-114832564D01*
X136703248Y-114837118D01*
X136709276Y-114839802D01*
X136709278Y-114839803D01*
X136858670Y-114906316D01*
X136877712Y-114914794D01*
X136971112Y-114934647D01*
X137058056Y-114953128D01*
X137058061Y-114953128D01*
X137064513Y-114954500D01*
X137255487Y-114954500D01*
X137261939Y-114953128D01*
X137261944Y-114953128D01*
X137348888Y-114934647D01*
X137442288Y-114914794D01*
X137461330Y-114906316D01*
X137610722Y-114839803D01*
X137610724Y-114839802D01*
X137616752Y-114837118D01*
X137623020Y-114832564D01*
X137623646Y-114832340D01*
X137627811Y-114829936D01*
X137628251Y-114830698D01*
X137689887Y-114808706D01*
X137697081Y-114808500D01*
X138217005Y-114808500D01*
X138285126Y-114828502D01*
X138323974Y-114867915D01*
X138339897Y-114893496D01*
X138342779Y-114896924D01*
X138342780Y-114896926D01*
X138364886Y-114923224D01*
X138432054Y-115003131D01*
X138540639Y-115100218D01*
X138544372Y-115102703D01*
X138544376Y-115102706D01*
X138656135Y-115177099D01*
X138659864Y-115179581D01*
X138791333Y-115242289D01*
X138795612Y-115243626D01*
X138795615Y-115243627D01*
X138827060Y-115253451D01*
X138928039Y-115284999D01*
X138932463Y-115285716D01*
X138932465Y-115285716D01*
X138962441Y-115290571D01*
X139071821Y-115308287D01*
X139138782Y-115309514D01*
X139210539Y-115310830D01*
X139210541Y-115310830D01*
X139215020Y-115310912D01*
X139219465Y-115310359D01*
X139223944Y-115310122D01*
X139223951Y-115310249D01*
X139232339Y-115309729D01*
X139712000Y-115309729D01*
X139732162Y-115308287D01*
X139778375Y-115304982D01*
X139778377Y-115304982D01*
X139785111Y-115304500D01*
X139794989Y-115301600D01*
X139797423Y-115300885D01*
X139851496Y-115299474D01*
X139851684Y-115297745D01*
X139913866Y-115304500D01*
X141010134Y-115304500D01*
X141072316Y-115297745D01*
X141208705Y-115246615D01*
X141325261Y-115159261D01*
X141412615Y-115042705D01*
X141463745Y-114906316D01*
X141470500Y-114844134D01*
X141470500Y-113247866D01*
X141463745Y-113185684D01*
X141412615Y-113049295D01*
X141325261Y-112932739D01*
X141224256Y-112857040D01*
X141181741Y-112800181D01*
X141175005Y-112753789D01*
X141174607Y-112753810D01*
X141174381Y-112749492D01*
X141174113Y-112747648D01*
X141174210Y-112746228D01*
X141174210Y-112746222D01*
X141174726Y-112738648D01*
X141163736Y-112675681D01*
X141162775Y-112669165D01*
X141155102Y-112605758D01*
X141152419Y-112598657D01*
X141151778Y-112596048D01*
X141147309Y-112579715D01*
X141146547Y-112577190D01*
X141145243Y-112569717D01*
X141139157Y-112555852D01*
X141119559Y-112511204D01*
X141117068Y-112505099D01*
X141097175Y-112452456D01*
X141097173Y-112452452D01*
X141094487Y-112445344D01*
X141090184Y-112439083D01*
X141088947Y-112436717D01*
X141080720Y-112421937D01*
X141079369Y-112419652D01*
X141076315Y-112412695D01*
X141071695Y-112406675D01*
X141071692Y-112406669D01*
X141037421Y-112362009D01*
X141033541Y-112356668D01*
X141001661Y-112310280D01*
X141001656Y-112310275D01*
X140997357Y-112304019D01*
X140950829Y-112262564D01*
X140945554Y-112257584D01*
X140221450Y-111533480D01*
X140215596Y-111527215D01*
X140215201Y-111526762D01*
X140177561Y-111483615D01*
X140125280Y-111446871D01*
X140119986Y-111442939D01*
X140075693Y-111408209D01*
X140069718Y-111403524D01*
X140062802Y-111400401D01*
X140060516Y-111399017D01*
X140045835Y-111390643D01*
X140043475Y-111389378D01*
X140037261Y-111385010D01*
X140030182Y-111382250D01*
X140030180Y-111382249D01*
X139977725Y-111361798D01*
X139971656Y-111359247D01*
X139913427Y-111332955D01*
X139905960Y-111331571D01*
X139903405Y-111330770D01*
X139887152Y-111326141D01*
X139884572Y-111325478D01*
X139877491Y-111322718D01*
X139869960Y-111321727D01*
X139869958Y-111321726D01*
X139840339Y-111317827D01*
X139814139Y-111314378D01*
X139807641Y-111313348D01*
X139744814Y-111301704D01*
X139737234Y-111302141D01*
X139737233Y-111302141D01*
X139682608Y-111305291D01*
X139675354Y-111305500D01*
X135231405Y-111305500D01*
X135163284Y-111285498D01*
X135157344Y-111281436D01*
X135082094Y-111226763D01*
X135082093Y-111226762D01*
X135076752Y-111222882D01*
X135070724Y-111220198D01*
X135070722Y-111220197D01*
X134908319Y-111147891D01*
X134908318Y-111147891D01*
X134902288Y-111145206D01*
X134808888Y-111125353D01*
X134721944Y-111106872D01*
X134721939Y-111106872D01*
X134715487Y-111105500D01*
X134524513Y-111105500D01*
X134518061Y-111106872D01*
X134518056Y-111106872D01*
X134431112Y-111125353D01*
X134337712Y-111145206D01*
X134331682Y-111147891D01*
X134331681Y-111147891D01*
X134169278Y-111220197D01*
X134169276Y-111220198D01*
X134163248Y-111222882D01*
X134157907Y-111226762D01*
X134157906Y-111226763D01*
X134123171Y-111252000D01*
X134008747Y-111335134D01*
X134004326Y-111340044D01*
X134004325Y-111340045D01*
X133951227Y-111399017D01*
X133880960Y-111477056D01*
X133785473Y-111642444D01*
X133726458Y-111824072D01*
X133706496Y-112014000D01*
X133726458Y-112203928D01*
X133785473Y-112385556D01*
X133788776Y-112391278D01*
X133788777Y-112391279D01*
X133801142Y-112412695D01*
X133880960Y-112550944D01*
X133885378Y-112555851D01*
X133885379Y-112555852D01*
X133904592Y-112577190D01*
X133935310Y-112641197D01*
X133926545Y-112711651D01*
X133881082Y-112766182D01*
X133810956Y-112787500D01*
X133563866Y-112787500D01*
X133501684Y-112794255D01*
X133365295Y-112845385D01*
X133248739Y-112932739D01*
X133161385Y-113049295D01*
X133110255Y-113185684D01*
X133103500Y-113247866D01*
X133103500Y-114414000D01*
X133083498Y-114482121D01*
X133029842Y-114528614D01*
X132977500Y-114540000D01*
X132358160Y-114540000D01*
X132290039Y-114519998D01*
X132269065Y-114503095D01*
X132063405Y-114297435D01*
X132029379Y-114235123D01*
X132026500Y-114208340D01*
X132026500Y-112886744D01*
X132046502Y-112818623D01*
X132050564Y-112812683D01*
X132052621Y-112809852D01*
X132057040Y-112804944D01*
X132086562Y-112753810D01*
X132149223Y-112645279D01*
X132149224Y-112645278D01*
X132152527Y-112639556D01*
X132211542Y-112457928D01*
X132213772Y-112436717D01*
X132230814Y-112274565D01*
X132231504Y-112268000D01*
X132211542Y-112078072D01*
X132152527Y-111896444D01*
X132057040Y-111731056D01*
X132052621Y-111726148D01*
X132050564Y-111723317D01*
X132026705Y-111656449D01*
X132026500Y-111649256D01*
X132026500Y-108486911D01*
X132026792Y-108478342D01*
X132030209Y-108428223D01*
X132030209Y-108428219D01*
X132030725Y-108420647D01*
X132019736Y-108357685D01*
X132018777Y-108351182D01*
X132012015Y-108295302D01*
X132011102Y-108287758D01*
X132008416Y-108280649D01*
X132007784Y-108278078D01*
X132003324Y-108261772D01*
X132002549Y-108259204D01*
X132001242Y-108251716D01*
X131975561Y-108193212D01*
X131973069Y-108187105D01*
X131953173Y-108134452D01*
X131953173Y-108134451D01*
X131950487Y-108127344D01*
X131946184Y-108121083D01*
X131944947Y-108118717D01*
X131936720Y-108103937D01*
X131935369Y-108101652D01*
X131932315Y-108094695D01*
X131927695Y-108088675D01*
X131927692Y-108088669D01*
X131893421Y-108044009D01*
X131889541Y-108038668D01*
X131857661Y-107992280D01*
X131857656Y-107992275D01*
X131853357Y-107986019D01*
X131806829Y-107944564D01*
X131801554Y-107939584D01*
X128507405Y-104645435D01*
X128473379Y-104583123D01*
X128470500Y-104556340D01*
X128470500Y-103248594D01*
X128490502Y-103180473D01*
X128544158Y-103133980D01*
X128582892Y-103123331D01*
X128594875Y-103122030D01*
X128626460Y-103118599D01*
X128626464Y-103118598D01*
X128634316Y-103117745D01*
X128770705Y-103066615D01*
X128887261Y-102979261D01*
X128974615Y-102862705D01*
X129025745Y-102726316D01*
X129032500Y-102664134D01*
X129032500Y-102660669D01*
X130048001Y-102660669D01*
X130048371Y-102667490D01*
X130053895Y-102718352D01*
X130057521Y-102733604D01*
X130102676Y-102854054D01*
X130111214Y-102869649D01*
X130187715Y-102971724D01*
X130200276Y-102984285D01*
X130302351Y-103060786D01*
X130317946Y-103069324D01*
X130438394Y-103114478D01*
X130453649Y-103118105D01*
X130504514Y-103123631D01*
X130511328Y-103124000D01*
X131045885Y-103124000D01*
X131061124Y-103119525D01*
X131062329Y-103118135D01*
X131064000Y-103110452D01*
X131064000Y-103105884D01*
X131572000Y-103105884D01*
X131576475Y-103121123D01*
X131577865Y-103122328D01*
X131585548Y-103123999D01*
X132124669Y-103123999D01*
X132131490Y-103123629D01*
X132182352Y-103118105D01*
X132197604Y-103114479D01*
X132318054Y-103069324D01*
X132333649Y-103060786D01*
X132435724Y-102984285D01*
X132448285Y-102971724D01*
X132486862Y-102920251D01*
X132543721Y-102877736D01*
X132614540Y-102872710D01*
X132676833Y-102906770D01*
X132688509Y-102920245D01*
X132732739Y-102979261D01*
X132849295Y-103066615D01*
X132985684Y-103117745D01*
X133047866Y-103124500D01*
X134668134Y-103124500D01*
X134730316Y-103117745D01*
X134866705Y-103066615D01*
X134983261Y-102979261D01*
X135027174Y-102920668D01*
X135084033Y-102878153D01*
X135154852Y-102873127D01*
X135217145Y-102907187D01*
X135228825Y-102920667D01*
X135272739Y-102979261D01*
X135389295Y-103066615D01*
X135525684Y-103117745D01*
X135587866Y-103124500D01*
X136537972Y-103124500D01*
X136606093Y-103144502D01*
X136627067Y-103161405D01*
X140129190Y-106663528D01*
X140141577Y-106677941D01*
X140154546Y-106695564D01*
X140160129Y-106700307D01*
X140195055Y-106729979D01*
X140202571Y-106736909D01*
X140208315Y-106742653D01*
X140211189Y-106744927D01*
X140211196Y-106744933D01*
X140230711Y-106760372D01*
X140234115Y-106763163D01*
X140284472Y-106805945D01*
X140284476Y-106805948D01*
X140290051Y-106810684D01*
X140296568Y-106814012D01*
X140301632Y-106817389D01*
X140306856Y-106820616D01*
X140312600Y-106825160D01*
X140319231Y-106828259D01*
X140379082Y-106856232D01*
X140383033Y-106858163D01*
X140448404Y-106891543D01*
X140455519Y-106893284D01*
X140461265Y-106895421D01*
X140467048Y-106897345D01*
X140473679Y-106900444D01*
X140545557Y-106915394D01*
X140549829Y-106916361D01*
X140621112Y-106933804D01*
X140626711Y-106934151D01*
X140626715Y-106934152D01*
X140632330Y-106934500D01*
X140632328Y-106934539D01*
X140636229Y-106934772D01*
X140640588Y-106935161D01*
X140647756Y-106936652D01*
X140655073Y-106936454D01*
X140725577Y-106934546D01*
X140728986Y-106934500D01*
X141194919Y-106934500D01*
X141263040Y-106954502D01*
X141268980Y-106958564D01*
X141275248Y-106963118D01*
X141281276Y-106965802D01*
X141281278Y-106965803D01*
X141443681Y-107038109D01*
X141449712Y-107040794D01*
X141543113Y-107060647D01*
X141630056Y-107079128D01*
X141630061Y-107079128D01*
X141636513Y-107080500D01*
X141827487Y-107080500D01*
X141833939Y-107079128D01*
X141833944Y-107079128D01*
X141920888Y-107060647D01*
X142014288Y-107040794D01*
X142020319Y-107038109D01*
X142182722Y-106965803D01*
X142182724Y-106965802D01*
X142188752Y-106963118D01*
X142228088Y-106934539D01*
X142275015Y-106900444D01*
X142343253Y-106850866D01*
X142347675Y-106845955D01*
X142466621Y-106713852D01*
X142466622Y-106713851D01*
X142471040Y-106708944D01*
X142566527Y-106543556D01*
X142625542Y-106361928D01*
X142645504Y-106172000D01*
X142625542Y-105982072D01*
X142566527Y-105800444D01*
X142471040Y-105635056D01*
X142343253Y-105493134D01*
X142198637Y-105388064D01*
X142194094Y-105384763D01*
X142194093Y-105384762D01*
X142188752Y-105380882D01*
X142182724Y-105378198D01*
X142182722Y-105378197D01*
X142020319Y-105305891D01*
X142020318Y-105305891D01*
X142014288Y-105303206D01*
X141920888Y-105283353D01*
X141833944Y-105264872D01*
X141833939Y-105264872D01*
X141827487Y-105263500D01*
X141636513Y-105263500D01*
X141630061Y-105264872D01*
X141630056Y-105264872D01*
X141543113Y-105283353D01*
X141449712Y-105303206D01*
X141443682Y-105305891D01*
X141443681Y-105305891D01*
X141281278Y-105378197D01*
X141281276Y-105378198D01*
X141275248Y-105380882D01*
X141269907Y-105384762D01*
X141269906Y-105384763D01*
X141268980Y-105385436D01*
X141268354Y-105385660D01*
X141264189Y-105388064D01*
X141263749Y-105387302D01*
X141202113Y-105409294D01*
X141194919Y-105409500D01*
X141084027Y-105409500D01*
X141015906Y-105389498D01*
X140994932Y-105372595D01*
X138961933Y-103339595D01*
X138927907Y-103277283D01*
X138932972Y-103206467D01*
X138975519Y-103149632D01*
X139042039Y-103124821D01*
X139051028Y-103124500D01*
X139748134Y-103124500D01*
X139810316Y-103117745D01*
X139946705Y-103066615D01*
X140063261Y-102979261D01*
X140107487Y-102920251D01*
X140164344Y-102877736D01*
X140235163Y-102872710D01*
X140297456Y-102906770D01*
X140309138Y-102920251D01*
X140347715Y-102971724D01*
X140360276Y-102984285D01*
X140462351Y-103060786D01*
X140477946Y-103069324D01*
X140598394Y-103114478D01*
X140613649Y-103118105D01*
X140664514Y-103123631D01*
X140671328Y-103124000D01*
X141205885Y-103124000D01*
X141221124Y-103119525D01*
X141222329Y-103118135D01*
X141224000Y-103110452D01*
X141224000Y-103105884D01*
X141732000Y-103105884D01*
X141736475Y-103121123D01*
X141737865Y-103122328D01*
X141745548Y-103123999D01*
X142284669Y-103123999D01*
X142291490Y-103123629D01*
X142342352Y-103118105D01*
X142357604Y-103114479D01*
X142478054Y-103069324D01*
X142493649Y-103060786D01*
X142595724Y-102984285D01*
X142608285Y-102971724D01*
X142684786Y-102869649D01*
X142693324Y-102854054D01*
X142738478Y-102733606D01*
X142742105Y-102718351D01*
X142747631Y-102667486D01*
X142748000Y-102660672D01*
X142748000Y-102126115D01*
X142743525Y-102110876D01*
X142742135Y-102109671D01*
X142734452Y-102108000D01*
X141750115Y-102108000D01*
X141734876Y-102112475D01*
X141733671Y-102113865D01*
X141732000Y-102121548D01*
X141732000Y-103105884D01*
X141224000Y-103105884D01*
X141224000Y-101581885D01*
X141732000Y-101581885D01*
X141736475Y-101597124D01*
X141737865Y-101598329D01*
X141745548Y-101600000D01*
X142729884Y-101600000D01*
X142745123Y-101595525D01*
X142746328Y-101594135D01*
X142747999Y-101586452D01*
X142747999Y-101047331D01*
X142747629Y-101040510D01*
X142742105Y-100989648D01*
X142738479Y-100974396D01*
X142693324Y-100853946D01*
X142684786Y-100838351D01*
X142608285Y-100736276D01*
X142595725Y-100723716D01*
X142543835Y-100684827D01*
X142501319Y-100627968D01*
X142496293Y-100557149D01*
X142530353Y-100494856D01*
X142543835Y-100483173D01*
X142595725Y-100444284D01*
X142608285Y-100431724D01*
X142684786Y-100329649D01*
X142693324Y-100314054D01*
X142738478Y-100193606D01*
X142742105Y-100178351D01*
X142747631Y-100127486D01*
X142748000Y-100120672D01*
X142748000Y-99586115D01*
X142743525Y-99570876D01*
X142742135Y-99569671D01*
X142734452Y-99568000D01*
X141750115Y-99568000D01*
X141734876Y-99572475D01*
X141733671Y-99573865D01*
X141732000Y-99581548D01*
X141732000Y-101581885D01*
X141224000Y-101581885D01*
X141224000Y-99041885D01*
X141732000Y-99041885D01*
X141736475Y-99057124D01*
X141737865Y-99058329D01*
X141745548Y-99060000D01*
X142729884Y-99060000D01*
X142745123Y-99055525D01*
X142746328Y-99054135D01*
X142747999Y-99046452D01*
X142747999Y-98507331D01*
X142747629Y-98500510D01*
X142742105Y-98449648D01*
X142738479Y-98434396D01*
X142693324Y-98313946D01*
X142684786Y-98298351D01*
X142608285Y-98196276D01*
X142595724Y-98183715D01*
X142493649Y-98107214D01*
X142478054Y-98098676D01*
X142357606Y-98053522D01*
X142342351Y-98049895D01*
X142291486Y-98044369D01*
X142284672Y-98044000D01*
X141750115Y-98044000D01*
X141734876Y-98048475D01*
X141733671Y-98049865D01*
X141732000Y-98057548D01*
X141732000Y-99041885D01*
X141224000Y-99041885D01*
X141224000Y-98062116D01*
X141219525Y-98046877D01*
X141218135Y-98045672D01*
X141210452Y-98044001D01*
X140671331Y-98044001D01*
X140664510Y-98044371D01*
X140613648Y-98049895D01*
X140598396Y-98053521D01*
X140477946Y-98098676D01*
X140462351Y-98107214D01*
X140360276Y-98183715D01*
X140347715Y-98196276D01*
X140309138Y-98247749D01*
X140252279Y-98290264D01*
X140181460Y-98295290D01*
X140119167Y-98261230D01*
X140107491Y-98247755D01*
X140063261Y-98188739D01*
X139946705Y-98101385D01*
X139810316Y-98050255D01*
X139748134Y-98043500D01*
X138127866Y-98043500D01*
X138065684Y-98050255D01*
X137929295Y-98101385D01*
X137812739Y-98188739D01*
X137807359Y-98195918D01*
X137807358Y-98195919D01*
X137768826Y-98247332D01*
X137711967Y-98289847D01*
X137641148Y-98294873D01*
X137578855Y-98260813D01*
X137567174Y-98247332D01*
X137528642Y-98195919D01*
X137528641Y-98195918D01*
X137523261Y-98188739D01*
X137406705Y-98101385D01*
X137270316Y-98050255D01*
X137208134Y-98043500D01*
X135587866Y-98043500D01*
X135525684Y-98050255D01*
X135389295Y-98101385D01*
X135272739Y-98188739D01*
X135267359Y-98195918D01*
X135267358Y-98195919D01*
X135228826Y-98247332D01*
X135171967Y-98289847D01*
X135101148Y-98294873D01*
X135038855Y-98260813D01*
X135027174Y-98247332D01*
X134988642Y-98195919D01*
X134988641Y-98195918D01*
X134983261Y-98188739D01*
X134866705Y-98101385D01*
X134730316Y-98050255D01*
X134668134Y-98043500D01*
X133047866Y-98043500D01*
X132985684Y-98050255D01*
X132849295Y-98101385D01*
X132732739Y-98188739D01*
X132688513Y-98247749D01*
X132631656Y-98290264D01*
X132560837Y-98295290D01*
X132498544Y-98261230D01*
X132486862Y-98247749D01*
X132448285Y-98196276D01*
X132435724Y-98183715D01*
X132333649Y-98107214D01*
X132318054Y-98098676D01*
X132197606Y-98053522D01*
X132182351Y-98049895D01*
X132131486Y-98044369D01*
X132124672Y-98044000D01*
X131590115Y-98044000D01*
X131574876Y-98048475D01*
X131573671Y-98049865D01*
X131572000Y-98057548D01*
X131572000Y-103105884D01*
X131064000Y-103105884D01*
X131064000Y-102126115D01*
X131059525Y-102110876D01*
X131058135Y-102109671D01*
X131050452Y-102108000D01*
X130066116Y-102108000D01*
X130050877Y-102112475D01*
X130049672Y-102113865D01*
X130048001Y-102121548D01*
X130048001Y-102660669D01*
X129032500Y-102660669D01*
X129032500Y-101581885D01*
X130048000Y-101581885D01*
X130052475Y-101597124D01*
X130053865Y-101598329D01*
X130061548Y-101600000D01*
X131045885Y-101600000D01*
X131061124Y-101595525D01*
X131062329Y-101594135D01*
X131064000Y-101586452D01*
X131064000Y-99586115D01*
X131059525Y-99570876D01*
X131058135Y-99569671D01*
X131050452Y-99568000D01*
X130066116Y-99568000D01*
X130050877Y-99572475D01*
X130049672Y-99573865D01*
X130048001Y-99581548D01*
X130048001Y-100120669D01*
X130048371Y-100127490D01*
X130053895Y-100178352D01*
X130057521Y-100193604D01*
X130102676Y-100314054D01*
X130111214Y-100329649D01*
X130187715Y-100431724D01*
X130200275Y-100444284D01*
X130252165Y-100483173D01*
X130294681Y-100540032D01*
X130299707Y-100610851D01*
X130265647Y-100673144D01*
X130252165Y-100684827D01*
X130200275Y-100723716D01*
X130187715Y-100736276D01*
X130111214Y-100838351D01*
X130102676Y-100853946D01*
X130057522Y-100974394D01*
X130053895Y-100989649D01*
X130048369Y-101040514D01*
X130048000Y-101047328D01*
X130048000Y-101581885D01*
X129032500Y-101581885D01*
X129032500Y-101043866D01*
X129025745Y-100981684D01*
X128974615Y-100845295D01*
X128887261Y-100728739D01*
X128828251Y-100684513D01*
X128785736Y-100627656D01*
X128780710Y-100556837D01*
X128814770Y-100494544D01*
X128828251Y-100482862D01*
X128879724Y-100444285D01*
X128892285Y-100431724D01*
X128968786Y-100329649D01*
X128977324Y-100314054D01*
X129022478Y-100193606D01*
X129026105Y-100178351D01*
X129031631Y-100127486D01*
X129032000Y-100120672D01*
X129032000Y-99586115D01*
X129027525Y-99570876D01*
X129026135Y-99569671D01*
X129018452Y-99568000D01*
X127634000Y-99568000D01*
X127565879Y-99547998D01*
X127519386Y-99494342D01*
X127508000Y-99442000D01*
X127508000Y-99041885D01*
X128016000Y-99041885D01*
X128020475Y-99057124D01*
X128021865Y-99058329D01*
X128029548Y-99060000D01*
X129013884Y-99060000D01*
X129029123Y-99055525D01*
X129030328Y-99054135D01*
X129031999Y-99046452D01*
X129031999Y-99041885D01*
X130048000Y-99041885D01*
X130052475Y-99057124D01*
X130053865Y-99058329D01*
X130061548Y-99060000D01*
X131045885Y-99060000D01*
X131061124Y-99055525D01*
X131062329Y-99054135D01*
X131064000Y-99046452D01*
X131064000Y-98062116D01*
X131059525Y-98046877D01*
X131058135Y-98045672D01*
X131050452Y-98044001D01*
X130511331Y-98044001D01*
X130504510Y-98044371D01*
X130453648Y-98049895D01*
X130438396Y-98053521D01*
X130317946Y-98098676D01*
X130302351Y-98107214D01*
X130200276Y-98183715D01*
X130187715Y-98196276D01*
X130111214Y-98298351D01*
X130102676Y-98313946D01*
X130057522Y-98434394D01*
X130053895Y-98449649D01*
X130048369Y-98500514D01*
X130048000Y-98507328D01*
X130048000Y-99041885D01*
X129031999Y-99041885D01*
X129031999Y-98507331D01*
X129031629Y-98500510D01*
X129026105Y-98449648D01*
X129022479Y-98434396D01*
X128977324Y-98313946D01*
X128968786Y-98298351D01*
X128892285Y-98196276D01*
X128879724Y-98183715D01*
X128777649Y-98107214D01*
X128762054Y-98098676D01*
X128641606Y-98053522D01*
X128626351Y-98049895D01*
X128575486Y-98044369D01*
X128568672Y-98044000D01*
X128034115Y-98044000D01*
X128018876Y-98048475D01*
X128017671Y-98049865D01*
X128016000Y-98057548D01*
X128016000Y-99041885D01*
X127508000Y-99041885D01*
X127508000Y-98062116D01*
X127503525Y-98046877D01*
X127502135Y-98045672D01*
X127494452Y-98044001D01*
X126955331Y-98044001D01*
X126948510Y-98044371D01*
X126897648Y-98049895D01*
X126882396Y-98053521D01*
X126761946Y-98098676D01*
X126746351Y-98107214D01*
X126644276Y-98183715D01*
X126631715Y-98196276D01*
X126593138Y-98247749D01*
X126536279Y-98290264D01*
X126465460Y-98295290D01*
X126403167Y-98261230D01*
X126391491Y-98247755D01*
X126347261Y-98188739D01*
X126230705Y-98101385D01*
X126094316Y-98050255D01*
X126032134Y-98043500D01*
X124411866Y-98043500D01*
X124349684Y-98050255D01*
X124213295Y-98101385D01*
X124096739Y-98188739D01*
X124091359Y-98195918D01*
X124091358Y-98195919D01*
X124052826Y-98247332D01*
X123995967Y-98289847D01*
X123925148Y-98294873D01*
X123862855Y-98260813D01*
X123851174Y-98247332D01*
X123812642Y-98195919D01*
X123812641Y-98195918D01*
X123807261Y-98188739D01*
X123690705Y-98101385D01*
X123554316Y-98050255D01*
X123492134Y-98043500D01*
X121871866Y-98043500D01*
X121809684Y-98050255D01*
X121673295Y-98101385D01*
X121556739Y-98188739D01*
X121469385Y-98305295D01*
X121418255Y-98441684D01*
X121411500Y-98503866D01*
X121411500Y-99453972D01*
X121391498Y-99522093D01*
X121374595Y-99543067D01*
X120666472Y-100251190D01*
X120652059Y-100263577D01*
X120634436Y-100276546D01*
X120629692Y-100282129D01*
X120629693Y-100282129D01*
X120600021Y-100317055D01*
X120593091Y-100324571D01*
X120587347Y-100330315D01*
X120585073Y-100333189D01*
X120585067Y-100333196D01*
X120569628Y-100352711D01*
X120566837Y-100356115D01*
X120524055Y-100406472D01*
X120524052Y-100406476D01*
X120519316Y-100412051D01*
X120515988Y-100418568D01*
X120512611Y-100423632D01*
X120509384Y-100428856D01*
X120504840Y-100434600D01*
X120501741Y-100441231D01*
X120473768Y-100501082D01*
X120471837Y-100505033D01*
X120438457Y-100570404D01*
X120436716Y-100577519D01*
X120434579Y-100583265D01*
X120432655Y-100589048D01*
X120429556Y-100595679D01*
X120420050Y-100641385D01*
X120414608Y-100667547D01*
X120413639Y-100671829D01*
X120396196Y-100743112D01*
X120395500Y-100754330D01*
X120395461Y-100754328D01*
X120395228Y-100758229D01*
X120394839Y-100762588D01*
X120393348Y-100769756D01*
X120393546Y-100777073D01*
X120395454Y-100847577D01*
X120395500Y-100850986D01*
X120395500Y-103564624D01*
X120394067Y-103583574D01*
X120391876Y-103597973D01*
X120391876Y-103597979D01*
X120390776Y-103605208D01*
X120391369Y-103612500D01*
X120391369Y-103612503D01*
X120395085Y-103658183D01*
X120395500Y-103668398D01*
X120395500Y-103676525D01*
X120398811Y-103704924D01*
X120399238Y-103709244D01*
X120405191Y-103782426D01*
X120407447Y-103789388D01*
X120408643Y-103795376D01*
X120410051Y-103801333D01*
X120410899Y-103808607D01*
X120413397Y-103815489D01*
X120413398Y-103815493D01*
X120435945Y-103877607D01*
X120437355Y-103881711D01*
X120459987Y-103951575D01*
X120463787Y-103957838D01*
X120466325Y-103963380D01*
X120469067Y-103968856D01*
X120471566Y-103975741D01*
X120475581Y-103981865D01*
X120511815Y-104037132D01*
X120514130Y-104040800D01*
X120552227Y-104103581D01*
X120555941Y-104107786D01*
X120555943Y-104107789D01*
X120559667Y-104112005D01*
X120559638Y-104112031D01*
X120562238Y-104114962D01*
X120565042Y-104118316D01*
X120569054Y-104124435D01*
X120574366Y-104129467D01*
X120625586Y-104177988D01*
X120628028Y-104180366D01*
X126200595Y-109752933D01*
X126234621Y-109815245D01*
X126237500Y-109842028D01*
X126237500Y-110117604D01*
X126217498Y-110185725D01*
X126163842Y-110232218D01*
X126140649Y-110240186D01*
X126135535Y-110241402D01*
X126127684Y-110242255D01*
X125991295Y-110293385D01*
X125874739Y-110380739D01*
X125830513Y-110439749D01*
X125773656Y-110482264D01*
X125702837Y-110487290D01*
X125640544Y-110453230D01*
X125628862Y-110439749D01*
X125590285Y-110388276D01*
X125577724Y-110375715D01*
X125475649Y-110299214D01*
X125460054Y-110290676D01*
X125339606Y-110245522D01*
X125324351Y-110241895D01*
X125273486Y-110236369D01*
X125266672Y-110236000D01*
X124732115Y-110236000D01*
X124716876Y-110240475D01*
X124715671Y-110241865D01*
X124714000Y-110249548D01*
X124714000Y-115297884D01*
X124718475Y-115313123D01*
X124719865Y-115314328D01*
X124727548Y-115315999D01*
X125266669Y-115315999D01*
X125273490Y-115315629D01*
X125324352Y-115310105D01*
X125339604Y-115306479D01*
X125460054Y-115261324D01*
X125475649Y-115252786D01*
X125577724Y-115176285D01*
X125590285Y-115163724D01*
X125628862Y-115112251D01*
X125685721Y-115069736D01*
X125756540Y-115064710D01*
X125818833Y-115098770D01*
X125830509Y-115112245D01*
X125874739Y-115171261D01*
X125991295Y-115258615D01*
X126127684Y-115309745D01*
X126189866Y-115316500D01*
X127810134Y-115316500D01*
X127872316Y-115309745D01*
X128008705Y-115258615D01*
X128125261Y-115171261D01*
X128169487Y-115112251D01*
X128226344Y-115069736D01*
X128297163Y-115064710D01*
X128359456Y-115098770D01*
X128371138Y-115112251D01*
X128409715Y-115163724D01*
X128422276Y-115176285D01*
X128524351Y-115252786D01*
X128539946Y-115261324D01*
X128660394Y-115306478D01*
X128675649Y-115310105D01*
X128726514Y-115315631D01*
X128733328Y-115316000D01*
X129267885Y-115316000D01*
X129283124Y-115311525D01*
X129284329Y-115310135D01*
X129286000Y-115302452D01*
X129286000Y-110254116D01*
X129281525Y-110238877D01*
X129280135Y-110237672D01*
X129272452Y-110236001D01*
X128733331Y-110236001D01*
X128726510Y-110236371D01*
X128675648Y-110241895D01*
X128660396Y-110245521D01*
X128539946Y-110290676D01*
X128524351Y-110299214D01*
X128422276Y-110375715D01*
X128409715Y-110388276D01*
X128371138Y-110439749D01*
X128314279Y-110482264D01*
X128243460Y-110487290D01*
X128181167Y-110453230D01*
X128169491Y-110439755D01*
X128125261Y-110380739D01*
X128008705Y-110293385D01*
X127872316Y-110242255D01*
X127864465Y-110241402D01*
X127859351Y-110240186D01*
X127797706Y-110204968D01*
X127764887Y-110142012D01*
X127762500Y-110117604D01*
X127762500Y-109541377D01*
X127763933Y-109522427D01*
X127766124Y-109508028D01*
X127766124Y-109508022D01*
X127767224Y-109500793D01*
X127762915Y-109447818D01*
X127762500Y-109437603D01*
X127762500Y-109429475D01*
X127762078Y-109425853D01*
X127762077Y-109425840D01*
X127759191Y-109401086D01*
X127758758Y-109396710D01*
X127753402Y-109330867D01*
X127752809Y-109323574D01*
X127750553Y-109316612D01*
X127749357Y-109310624D01*
X127747949Y-109304667D01*
X127747101Y-109297393D01*
X127744603Y-109290511D01*
X127744602Y-109290507D01*
X127722055Y-109228393D01*
X127720645Y-109224289D01*
X127698013Y-109154425D01*
X127694213Y-109148162D01*
X127691675Y-109142620D01*
X127688933Y-109137144D01*
X127686434Y-109130259D01*
X127646185Y-109068868D01*
X127643870Y-109065200D01*
X127605773Y-109002419D01*
X127598333Y-108993995D01*
X127598362Y-108993969D01*
X127595762Y-108991038D01*
X127592958Y-108987684D01*
X127588946Y-108981565D01*
X127532413Y-108928011D01*
X127529972Y-108925634D01*
X121957405Y-103353067D01*
X121923379Y-103290755D01*
X121920500Y-103263972D01*
X121920500Y-103250500D01*
X121940502Y-103182379D01*
X121994158Y-103135886D01*
X122046500Y-103124500D01*
X123492134Y-103124500D01*
X123554316Y-103117745D01*
X123690705Y-103066615D01*
X123807261Y-102979261D01*
X123851174Y-102920668D01*
X123908033Y-102878153D01*
X123978852Y-102873127D01*
X124041145Y-102907187D01*
X124052825Y-102920667D01*
X124096739Y-102979261D01*
X124213295Y-103066615D01*
X124349684Y-103117745D01*
X124411866Y-103124500D01*
X126032134Y-103124500D01*
X126094316Y-103117745D01*
X126230705Y-103066615D01*
X126347261Y-102979261D01*
X126391174Y-102920668D01*
X126448033Y-102878153D01*
X126518852Y-102873127D01*
X126581145Y-102907187D01*
X126592825Y-102920667D01*
X126636739Y-102979261D01*
X126753295Y-103066615D01*
X126889684Y-103117745D01*
X126897536Y-103118598D01*
X126897540Y-103118599D01*
X126929125Y-103122030D01*
X126941108Y-103123331D01*
X127006669Y-103150572D01*
X127047096Y-103208935D01*
X127053500Y-103248594D01*
X127053500Y-104873088D01*
X127053208Y-104881658D01*
X127049275Y-104939352D01*
X127050580Y-104946829D01*
X127050580Y-104946830D01*
X127060261Y-105002299D01*
X127061223Y-105008821D01*
X127068898Y-105072242D01*
X127071581Y-105079343D01*
X127072222Y-105081952D01*
X127076685Y-105098262D01*
X127077450Y-105100798D01*
X127078757Y-105108284D01*
X127081811Y-105115241D01*
X127104442Y-105166795D01*
X127106933Y-105172899D01*
X127129513Y-105232656D01*
X127133817Y-105238919D01*
X127135054Y-105241285D01*
X127143299Y-105256097D01*
X127144632Y-105258351D01*
X127147685Y-105265305D01*
X127178829Y-105305891D01*
X127186579Y-105315991D01*
X127190459Y-105321332D01*
X127222339Y-105367720D01*
X127222344Y-105367725D01*
X127226643Y-105373981D01*
X127232313Y-105379032D01*
X127232314Y-105379034D01*
X127273170Y-105415435D01*
X127278446Y-105420416D01*
X130572595Y-108714566D01*
X130606621Y-108776878D01*
X130609500Y-108803661D01*
X130609500Y-110134912D01*
X130589498Y-110203033D01*
X130535842Y-110249526D01*
X130465568Y-110259630D01*
X130439268Y-110252893D01*
X130419607Y-110245522D01*
X130404351Y-110241895D01*
X130353486Y-110236369D01*
X130346672Y-110236000D01*
X129812115Y-110236000D01*
X129796876Y-110240475D01*
X129795671Y-110241865D01*
X129794000Y-110249548D01*
X129794000Y-115297884D01*
X129798475Y-115313123D01*
X129799865Y-115314328D01*
X129807548Y-115315999D01*
X130346669Y-115315999D01*
X130353490Y-115315629D01*
X130404352Y-115310105D01*
X130419604Y-115306479D01*
X130540054Y-115261324D01*
X130555649Y-115252786D01*
X130657724Y-115176285D01*
X130670286Y-115163723D01*
X130692569Y-115133991D01*
X130749429Y-115091476D01*
X130820247Y-115086451D01*
X130882491Y-115120461D01*
X131227881Y-115465852D01*
X131491065Y-115729036D01*
X131496918Y-115735301D01*
X131534939Y-115778885D01*
X131587229Y-115815636D01*
X131592471Y-115819528D01*
X131634327Y-115852347D01*
X131675591Y-115910118D01*
X131679071Y-115981029D01*
X131643661Y-116042565D01*
X131580604Y-116075189D01*
X131556580Y-116077500D01*
X112648500Y-116077500D01*
X112580379Y-116057498D01*
X112533886Y-116003842D01*
X112522500Y-115951500D01*
X112522500Y-114852669D01*
X123190001Y-114852669D01*
X123190371Y-114859490D01*
X123195895Y-114910352D01*
X123199521Y-114925604D01*
X123244676Y-115046054D01*
X123253214Y-115061649D01*
X123329715Y-115163724D01*
X123342276Y-115176285D01*
X123444351Y-115252786D01*
X123459946Y-115261324D01*
X123580394Y-115306478D01*
X123595649Y-115310105D01*
X123646514Y-115315631D01*
X123653328Y-115316000D01*
X124187885Y-115316000D01*
X124203124Y-115311525D01*
X124204329Y-115310135D01*
X124206000Y-115302452D01*
X124206000Y-114318115D01*
X124201525Y-114302876D01*
X124200135Y-114301671D01*
X124192452Y-114300000D01*
X123208116Y-114300000D01*
X123192877Y-114304475D01*
X123191672Y-114305865D01*
X123190001Y-114313548D01*
X123190001Y-114852669D01*
X112522500Y-114852669D01*
X112522500Y-113773885D01*
X123190000Y-113773885D01*
X123194475Y-113789124D01*
X123195865Y-113790329D01*
X123203548Y-113792000D01*
X124187885Y-113792000D01*
X124203124Y-113787525D01*
X124204329Y-113786135D01*
X124206000Y-113778452D01*
X124206000Y-111778115D01*
X124201525Y-111762876D01*
X124200135Y-111761671D01*
X124192452Y-111760000D01*
X123208116Y-111760000D01*
X123192877Y-111764475D01*
X123191672Y-111765865D01*
X123190001Y-111773548D01*
X123190001Y-112312669D01*
X123190371Y-112319490D01*
X123195895Y-112370352D01*
X123199521Y-112385604D01*
X123244676Y-112506054D01*
X123253214Y-112521649D01*
X123329715Y-112623724D01*
X123342275Y-112636284D01*
X123394165Y-112675173D01*
X123436681Y-112732032D01*
X123441707Y-112802851D01*
X123407647Y-112865144D01*
X123394165Y-112876827D01*
X123342275Y-112915716D01*
X123329715Y-112928276D01*
X123253214Y-113030351D01*
X123244676Y-113045946D01*
X123199522Y-113166394D01*
X123195895Y-113181649D01*
X123190369Y-113232514D01*
X123190000Y-113239328D01*
X123190000Y-113773885D01*
X112522500Y-113773885D01*
X112522500Y-111233885D01*
X123190000Y-111233885D01*
X123194475Y-111249124D01*
X123195865Y-111250329D01*
X123203548Y-111252000D01*
X124187885Y-111252000D01*
X124203124Y-111247525D01*
X124204329Y-111246135D01*
X124206000Y-111238452D01*
X124206000Y-110254116D01*
X124201525Y-110238877D01*
X124200135Y-110237672D01*
X124192452Y-110236001D01*
X123653331Y-110236001D01*
X123646510Y-110236371D01*
X123595648Y-110241895D01*
X123580396Y-110245521D01*
X123459946Y-110290676D01*
X123444351Y-110299214D01*
X123342276Y-110375715D01*
X123329715Y-110388276D01*
X123253214Y-110490351D01*
X123244676Y-110505946D01*
X123199522Y-110626394D01*
X123195895Y-110641649D01*
X123190369Y-110692514D01*
X123190000Y-110699328D01*
X123190000Y-111233885D01*
X112522500Y-111233885D01*
X112522500Y-97408500D01*
X112542502Y-97340379D01*
X112596158Y-97293886D01*
X112648500Y-97282500D01*
X151511500Y-97282500D01*
X151579621Y-97302502D01*
G37*
%TD.AperFunction*%
%TD*%
M02*
