M48
; DRILL file {KiCad 6.0.4-6f826c9f35~116~ubuntu20.04.1} date Wed Jan 18 20:32:20 2023
; FORMAT={-:-/ absolute / metric / decimal}
; #@! TF.CreationDate,2023-01-18T20:32:20+00:00
; #@! TF.GenerationSoftware,Kicad,Pcbnew,6.0.4-6f826c9f35~116~ubuntu20.04.1
; #@! TF.FileFunction,Plated,1,2,PTH
FMAT,2
METRIC
; #@! TA.AperFunction,Plated,PTH,ViaDrill
T1C0.400
; #@! TA.AperFunction,Plated,PTH,ComponentDrill
T2C0.889
; #@! TA.AperFunction,Plated,PTH,ComponentDrill
T3C3.000
%
G90
G05
T1
X131.318Y-112.268
X134.62Y-112.014
X137.16Y-114.046
X141.732Y-106.172
T2
X122.682Y-99.314
X122.682Y-101.854
X124.46Y-111.506
X124.46Y-114.046
X125.222Y-99.314
X125.222Y-101.854
X127.0Y-111.506
X127.0Y-114.046
X127.762Y-99.314
X127.762Y-101.854
X129.54Y-111.506
X129.54Y-114.046
X131.318Y-99.314
X131.318Y-101.854
X133.858Y-99.314
X133.858Y-101.854
X136.398Y-99.314
X136.398Y-101.854
X138.938Y-99.314
X138.938Y-101.854
X141.478Y-99.314
X141.478Y-101.854
T3
X116.84Y-101.6
X116.84Y-111.76
X147.32Y-101.6
X147.32Y-111.76
T0
M30
