%TF.GenerationSoftware,KiCad,Pcbnew,6.0.10+dfsg-1~bpo11+1*%
%TF.CreationDate,2023-01-18T21:46:39+00:00*%
%TF.ProjectId,ALTIMET02A,414c5449-4d45-4543-9032-412e6b696361,rev?*%
%TF.SameCoordinates,Original*%
%TF.FileFunction,Legend,Bot*%
%TF.FilePolarity,Positive*%
%FSLAX46Y46*%
G04 Gerber Fmt 4.6, Leading zero omitted, Abs format (unit mm)*
G04 Created by KiCad (PCBNEW 6.0.10+dfsg-1~bpo11+1) date 2023-01-18 21:46:39*
%MOMM*%
%LPD*%
G01*
G04 APERTURE LIST*
%ADD10C,0.150000*%
%ADD11C,0.254000*%
%ADD12C,0.120000*%
G04 APERTURE END LIST*
D10*
%TO.C,R1*%
X141136666Y-104846380D02*
X141470000Y-104370190D01*
X141708095Y-104846380D02*
X141708095Y-103846380D01*
X141327142Y-103846380D01*
X141231904Y-103894000D01*
X141184285Y-103941619D01*
X141136666Y-104036857D01*
X141136666Y-104179714D01*
X141184285Y-104274952D01*
X141231904Y-104322571D01*
X141327142Y-104370190D01*
X141708095Y-104370190D01*
X140184285Y-104846380D02*
X140755714Y-104846380D01*
X140470000Y-104846380D02*
X140470000Y-103846380D01*
X140565238Y-103989238D01*
X140660476Y-104084476D01*
X140755714Y-104132095D01*
%TO.C,C2*%
X140057142Y-112421333D02*
X140104761Y-112373714D01*
X140152380Y-112230857D01*
X140152380Y-112135619D01*
X140104761Y-111992761D01*
X140009523Y-111897523D01*
X139914285Y-111849904D01*
X139723809Y-111802285D01*
X139580952Y-111802285D01*
X139390476Y-111849904D01*
X139295238Y-111897523D01*
X139200000Y-111992761D01*
X139152380Y-112135619D01*
X139152380Y-112230857D01*
X139200000Y-112373714D01*
X139247619Y-112421333D01*
X139247619Y-112802285D02*
X139200000Y-112849904D01*
X139152380Y-112945142D01*
X139152380Y-113183238D01*
X139200000Y-113278476D01*
X139247619Y-113326095D01*
X139342857Y-113373714D01*
X139438095Y-113373714D01*
X139580952Y-113326095D01*
X140152380Y-112754666D01*
X140152380Y-113373714D01*
D11*
%TO.C,IC1*%
X134178523Y-108488238D02*
X132908523Y-108488238D01*
X134057571Y-109818714D02*
X134118047Y-109758238D01*
X134178523Y-109576809D01*
X134178523Y-109455857D01*
X134118047Y-109274428D01*
X133997095Y-109153476D01*
X133876142Y-109093000D01*
X133634238Y-109032523D01*
X133452809Y-109032523D01*
X133210904Y-109093000D01*
X133089952Y-109153476D01*
X132969000Y-109274428D01*
X132908523Y-109455857D01*
X132908523Y-109576809D01*
X132969000Y-109758238D01*
X133029476Y-109818714D01*
X134178523Y-111028238D02*
X134178523Y-110302523D01*
X134178523Y-110665380D02*
X132908523Y-110665380D01*
X133089952Y-110544428D01*
X133210904Y-110423476D01*
X133271380Y-110302523D01*
D10*
%TO.C,R2*%
X131992666Y-104846380D02*
X132326000Y-104370190D01*
X132564095Y-104846380D02*
X132564095Y-103846380D01*
X132183142Y-103846380D01*
X132087904Y-103894000D01*
X132040285Y-103941619D01*
X131992666Y-104036857D01*
X131992666Y-104179714D01*
X132040285Y-104274952D01*
X132087904Y-104322571D01*
X132183142Y-104370190D01*
X132564095Y-104370190D01*
X131611714Y-103941619D02*
X131564095Y-103894000D01*
X131468857Y-103846380D01*
X131230761Y-103846380D01*
X131135523Y-103894000D01*
X131087904Y-103941619D01*
X131040285Y-104036857D01*
X131040285Y-104132095D01*
X131087904Y-104274952D01*
X131659333Y-104846380D01*
X131040285Y-104846380D01*
%TO.C,C1*%
X137771142Y-112421333D02*
X137818761Y-112373714D01*
X137866380Y-112230857D01*
X137866380Y-112135619D01*
X137818761Y-111992761D01*
X137723523Y-111897523D01*
X137628285Y-111849904D01*
X137437809Y-111802285D01*
X137294952Y-111802285D01*
X137104476Y-111849904D01*
X137009238Y-111897523D01*
X136914000Y-111992761D01*
X136866380Y-112135619D01*
X136866380Y-112230857D01*
X136914000Y-112373714D01*
X136961619Y-112421333D01*
X137866380Y-113373714D02*
X137866380Y-112802285D01*
X137866380Y-113088000D02*
X136866380Y-113088000D01*
X137009238Y-112992761D01*
X137104476Y-112897523D01*
X137152095Y-112802285D01*
D12*
%TO.C,R1*%
X138202936Y-105129000D02*
X138657064Y-105129000D01*
X138202936Y-103659000D02*
X138657064Y-103659000D01*
%TO.C,C2*%
X140435000Y-110055252D02*
X140435000Y-109532748D01*
X138965000Y-110055252D02*
X138965000Y-109532748D01*
D11*
%TO.C,IC1*%
X135954000Y-111228000D02*
X135954000Y-108228000D01*
X131254000Y-111228000D02*
X131254000Y-108228000D01*
X135946000Y-111760000D02*
G75*
G03*
X135946000Y-111760000I-45000J0D01*
G01*
D12*
%TO.C,R2*%
X134593064Y-105129000D02*
X134138936Y-105129000D01*
X134593064Y-103659000D02*
X134138936Y-103659000D01*
%TO.C,C1*%
X138149000Y-110055252D02*
X138149000Y-109532748D01*
X136679000Y-110055252D02*
X136679000Y-109532748D01*
%TD*%
M02*
