%TF.GenerationSoftware,KiCad,Pcbnew,6.0.10+dfsg-1~bpo11+1*%
%TF.CreationDate,2023-01-18T23:56:57+00:00*%
%TF.ProjectId,ALTIMET02A,414c5449-4d45-4543-9032-412e6b696361,rev?*%
%TF.SameCoordinates,Original*%
%TF.FileFunction,Copper,L2,Bot*%
%TF.FilePolarity,Positive*%
%FSLAX46Y46*%
G04 Gerber Fmt 4.6, Leading zero omitted, Abs format (unit mm)*
G04 Created by KiCad (PCBNEW 6.0.10+dfsg-1~bpo11+1) date 2023-01-18 23:56:57*
%MOMM*%
%LPD*%
G01*
G04 APERTURE LIST*
G04 Aperture macros list*
%AMRoundRect*
0 Rectangle with rounded corners*
0 $1 Rounding radius*
0 $2 $3 $4 $5 $6 $7 $8 $9 X,Y pos of 4 corners*
0 Add a 4 corners polygon primitive as box body*
4,1,4,$2,$3,$4,$5,$6,$7,$8,$9,$2,$3,0*
0 Add four circle primitives for the rounded corners*
1,1,$1+$1,$2,$3*
1,1,$1+$1,$4,$5*
1,1,$1+$1,$6,$7*
1,1,$1+$1,$8,$9*
0 Add four rect primitives between the rounded corners*
20,1,$1+$1,$2,$3,$4,$5,0*
20,1,$1+$1,$4,$5,$6,$7,0*
20,1,$1+$1,$6,$7,$8,$9,0*
20,1,$1+$1,$8,$9,$2,$3,0*%
G04 Aperture macros list end*
%TA.AperFunction,ComponentPad*%
%ADD10R,1.524000X1.524000*%
%TD*%
%TA.AperFunction,ComponentPad*%
%ADD11C,6.000000*%
%TD*%
%TA.AperFunction,SMDPad,CuDef*%
%ADD12RoundRect,0.250000X-0.262500X-0.450000X0.262500X-0.450000X0.262500X0.450000X-0.262500X0.450000X0*%
%TD*%
%TA.AperFunction,SMDPad,CuDef*%
%ADD13RoundRect,0.250000X0.475000X-0.250000X0.475000X0.250000X-0.475000X0.250000X-0.475000X-0.250000X0*%
%TD*%
%TA.AperFunction,SMDPad,CuDef*%
%ADD14R,0.600000X1.100000*%
%TD*%
%TA.AperFunction,SMDPad,CuDef*%
%ADD15RoundRect,0.250000X0.262500X0.450000X-0.262500X0.450000X-0.262500X-0.450000X0.262500X-0.450000X0*%
%TD*%
%TA.AperFunction,ViaPad*%
%ADD16C,0.800000*%
%TD*%
%TA.AperFunction,Conductor*%
%ADD17C,0.508000*%
%TD*%
%TA.AperFunction,Conductor*%
%ADD18C,0.400000*%
%TD*%
%TA.AperFunction,Conductor*%
%ADD19C,0.250000*%
%TD*%
G04 APERTURE END LIST*
D10*
%TO.P,J3,1*%
%TO.N,GND*%
X141478000Y-99314000D03*
%TO.P,J3,2*%
X141478000Y-101854000D03*
%TO.P,J3,3*%
%TO.N,SCLK*%
X138938000Y-99314000D03*
%TO.P,J3,4*%
X138938000Y-101854000D03*
%TO.P,J3,5*%
%TO.N,VDD*%
X136398000Y-99314000D03*
%TO.P,J3,6*%
X136398000Y-101854000D03*
%TO.P,J3,7*%
%TO.N,MOSI{slash}SDA*%
X133858000Y-99314000D03*
%TO.P,J3,8*%
X133858000Y-101854000D03*
%TO.P,J3,9*%
%TO.N,GND*%
X131318000Y-99314000D03*
%TO.P,J3,10*%
X131318000Y-101854000D03*
%TD*%
%TO.P,J2,1*%
%TO.N,MISO*%
X122682000Y-101854000D03*
%TO.P,J2,2*%
%TO.N,VDD*%
X122682000Y-99314000D03*
%TO.P,J2,3*%
%TO.N,SCLK*%
X125222000Y-101854000D03*
%TO.P,J2,4*%
%TO.N,MOSI{slash}SDA*%
X125222000Y-99314000D03*
%TO.P,J2,5*%
%TO.N,CS{slash}A*%
X127762000Y-101854000D03*
%TO.P,J2,6*%
%TO.N,GND*%
X127762000Y-99314000D03*
%TD*%
D11*
%TO.P,H1,1,1*%
%TO.N,GND*%
X147320000Y-111760000D03*
%TD*%
%TO.P,H4,1,1*%
%TO.N,GND*%
X116840000Y-101600000D03*
%TD*%
%TO.P,H3,1,1*%
%TO.N,GND*%
X147320000Y-101600000D03*
%TD*%
D10*
%TO.P,J1,1*%
%TO.N,GND*%
X129540000Y-111506000D03*
%TO.P,J1,2*%
X129540000Y-114046000D03*
%TO.P,J1,3*%
%TO.N,VDD*%
X127000000Y-111506000D03*
%TO.P,J1,4*%
X127000000Y-114046000D03*
%TO.P,J1,5*%
%TO.N,GND*%
X124460000Y-111506000D03*
%TO.P,J1,6*%
X124460000Y-114046000D03*
%TD*%
D11*
%TO.P,H2,1,1*%
%TO.N,GND*%
X116840000Y-111760000D03*
%TD*%
D12*
%TO.P,R1,1*%
%TO.N,VDD*%
X137517500Y-104394000D03*
%TO.P,R1,2*%
%TO.N,SCLK*%
X139342500Y-104394000D03*
%TD*%
D13*
%TO.P,C2,1*%
%TO.N,VDD*%
X139700000Y-110744000D03*
%TO.P,C2,2*%
%TO.N,GND*%
X139700000Y-108844000D03*
%TD*%
D14*
%TO.P,IC1,1,VDD*%
%TO.N,VDD*%
X135479000Y-110828000D03*
%TO.P,IC1,2,PS*%
%TO.N,/PS*%
X134229000Y-110828000D03*
%TO.P,IC1,3,GND*%
%TO.N,GND*%
X132979000Y-110828000D03*
%TO.P,IC1,4,CSB_1*%
%TO.N,CS{slash}A*%
X131729000Y-110828000D03*
%TO.P,IC1,5,CSB_2*%
%TO.N,unconnected-(IC1-Pad5)*%
X131729000Y-108628000D03*
%TO.P,IC1,6,SDO*%
%TO.N,MISO*%
X132979000Y-108628000D03*
%TO.P,IC1,7,SDI/SDA*%
%TO.N,MOSI{slash}SDA*%
X134229000Y-108628000D03*
%TO.P,IC1,8,SCLK*%
%TO.N,SCLK*%
X135479000Y-108628000D03*
%TD*%
D15*
%TO.P,R2,1*%
%TO.N,VDD*%
X135278500Y-104394000D03*
%TO.P,R2,2*%
%TO.N,MOSI{slash}SDA*%
X133453500Y-104394000D03*
%TD*%
D13*
%TO.P,C1,1*%
%TO.N,VDD*%
X137414000Y-110744000D03*
%TO.P,C1,2*%
%TO.N,GND*%
X137414000Y-108844000D03*
%TD*%
D16*
%TO.N,VDD*%
X141732000Y-106172000D03*
X137160000Y-114046000D03*
%TO.N,CS{slash}A*%
X131318000Y-112268000D03*
%TO.N,/PS*%
X134620000Y-112014000D03*
%TD*%
D17*
%TO.N,VDD*%
X135636000Y-115570000D02*
X128524000Y-115570000D01*
X136398000Y-103274500D02*
X135278500Y-104394000D01*
X135563000Y-110744000D02*
X135479000Y-110828000D01*
X139954000Y-110744000D02*
X141732000Y-108966000D01*
X141732000Y-108966000D02*
X141732000Y-106172000D01*
X128524000Y-115570000D02*
X127000000Y-114046000D01*
X137160000Y-114046000D02*
X137160000Y-110998000D01*
X137414000Y-110744000D02*
X139700000Y-110744000D01*
X139700000Y-110744000D02*
X139954000Y-110744000D01*
X137414000Y-110744000D02*
X135563000Y-110744000D01*
X136398000Y-103274500D02*
X137517500Y-104394000D01*
X137160000Y-114046000D02*
X135636000Y-115570000D01*
X136398000Y-99314000D02*
X136398000Y-101854000D01*
X137160000Y-110998000D02*
X137414000Y-110744000D01*
X136398000Y-101854000D02*
X136398000Y-103274500D01*
D18*
%TO.N,MOSI{slash}SDA*%
X132334000Y-97790000D02*
X126746000Y-97790000D01*
X134229000Y-108628000D02*
X134229000Y-107051000D01*
X126746000Y-97790000D02*
X125222000Y-99314000D01*
X133858000Y-101854000D02*
X133858000Y-103989500D01*
X133858000Y-99314000D02*
X133858000Y-101854000D01*
X134229000Y-107051000D02*
X133453500Y-106275500D01*
X133453500Y-106275500D02*
X133453500Y-104394000D01*
X133858000Y-103989500D02*
X133453500Y-104394000D01*
X133858000Y-99314000D02*
X132334000Y-97790000D01*
%TO.N,MISO*%
X128741000Y-104140000D02*
X127000000Y-104140000D01*
X127000000Y-104140000D02*
X126492000Y-103632000D01*
X126492000Y-103632000D02*
X126492000Y-100950000D01*
X132979000Y-108628000D02*
X132979000Y-108378000D01*
X126492000Y-100950000D02*
X126126000Y-100584000D01*
X123952000Y-100584000D02*
X122682000Y-101854000D01*
D19*
X132979000Y-108628000D02*
X132979000Y-108878000D01*
D18*
X132979000Y-108378000D02*
X128741000Y-104140000D01*
X126126000Y-100584000D02*
X123952000Y-100584000D01*
%TO.N,CS{slash}A*%
X131729000Y-111857000D02*
X131729000Y-110828000D01*
X131318000Y-112268000D02*
X131729000Y-111857000D01*
%TO.N,/PS*%
X134229000Y-111623000D02*
X134229000Y-110828000D01*
X134620000Y-112014000D02*
X134229000Y-111623000D01*
%TO.N,SCLK*%
X129032000Y-109728000D02*
X125222000Y-105918000D01*
X136652000Y-106172000D02*
X135479000Y-107345000D01*
X139342500Y-105259500D02*
X138430000Y-106172000D01*
D19*
X135479000Y-108628000D02*
X135479000Y-108878000D01*
D18*
X139342500Y-104394000D02*
X139342500Y-105259500D01*
X125222000Y-105918000D02*
X125222000Y-101854000D01*
X138430000Y-106172000D02*
X136652000Y-106172000D01*
X138938000Y-101854000D02*
X138938000Y-103989500D01*
X138938000Y-99314000D02*
X138938000Y-101854000D01*
X138938000Y-103989500D02*
X139342500Y-104394000D01*
X135479000Y-107345000D02*
X135479000Y-108628000D01*
X135479000Y-108878000D02*
X134629000Y-109728000D01*
X134629000Y-109728000D02*
X129032000Y-109728000D01*
%TD*%
%TA.AperFunction,Conductor*%
%TO.N,GND*%
G36*
X151579621Y-97302502D02*
G01*
X151626114Y-97356158D01*
X151637500Y-97408500D01*
X151637500Y-115951500D01*
X151617498Y-116019621D01*
X151563842Y-116066114D01*
X151511500Y-116077500D01*
X136511028Y-116077500D01*
X136442907Y-116057498D01*
X136396414Y-116003842D01*
X136386310Y-115933568D01*
X136415804Y-115868988D01*
X136421933Y-115862405D01*
X137323515Y-114960823D01*
X137386412Y-114926672D01*
X137435824Y-114916169D01*
X137435833Y-114916166D01*
X137442288Y-114914794D01*
X137452265Y-114910352D01*
X137610722Y-114839803D01*
X137610724Y-114839802D01*
X137616752Y-114837118D01*
X137771253Y-114724866D01*
X137899040Y-114582944D01*
X137994527Y-114417556D01*
X138053542Y-114235928D01*
X138073504Y-114046000D01*
X138053542Y-113856072D01*
X137994527Y-113674444D01*
X137939381Y-113578928D01*
X137922500Y-113515929D01*
X137922500Y-111867856D01*
X137942502Y-111799735D01*
X137996158Y-111753242D01*
X138035496Y-111742529D01*
X138045166Y-111741526D01*
X138051702Y-111739345D01*
X138051704Y-111739345D01*
X138199997Y-111689870D01*
X138212946Y-111685550D01*
X138363348Y-111592478D01*
X138412259Y-111543482D01*
X138474542Y-111509403D01*
X138501432Y-111506500D01*
X138612614Y-111506500D01*
X138680735Y-111526502D01*
X138701632Y-111543327D01*
X138751697Y-111593305D01*
X138757927Y-111597145D01*
X138757928Y-111597146D01*
X138895090Y-111681694D01*
X138902262Y-111686115D01*
X138954221Y-111703349D01*
X139063611Y-111739632D01*
X139063613Y-111739632D01*
X139070139Y-111741797D01*
X139076975Y-111742497D01*
X139076978Y-111742498D01*
X139117426Y-111746642D01*
X139174600Y-111752500D01*
X140225400Y-111752500D01*
X140228646Y-111752163D01*
X140228650Y-111752163D01*
X140324308Y-111742238D01*
X140324312Y-111742237D01*
X140331166Y-111741526D01*
X140337702Y-111739345D01*
X140337704Y-111739345D01*
X140485997Y-111689870D01*
X140498946Y-111685550D01*
X140649348Y-111592478D01*
X140774305Y-111467303D01*
X140799682Y-111426134D01*
X140863275Y-111322968D01*
X140863276Y-111322966D01*
X140867115Y-111316738D01*
X140922797Y-111148861D01*
X140933500Y-111044400D01*
X140933500Y-110895028D01*
X140953502Y-110826907D01*
X140970405Y-110805933D01*
X142223528Y-109552810D01*
X142237941Y-109540423D01*
X142249665Y-109531795D01*
X142255564Y-109527454D01*
X142289979Y-109486945D01*
X142296909Y-109479429D01*
X142302653Y-109473685D01*
X142304927Y-109470811D01*
X142304933Y-109470804D01*
X142320372Y-109451289D01*
X142323163Y-109447885D01*
X142365945Y-109397528D01*
X142365948Y-109397524D01*
X142370684Y-109391949D01*
X142374012Y-109385432D01*
X142377389Y-109380368D01*
X142380616Y-109375144D01*
X142385160Y-109369400D01*
X142416242Y-109302896D01*
X142418147Y-109298999D01*
X142451543Y-109233596D01*
X142453284Y-109226482D01*
X142455416Y-109220748D01*
X142457344Y-109214952D01*
X142460444Y-109208320D01*
X142475395Y-109136440D01*
X142476365Y-109132156D01*
X142492469Y-109066342D01*
X142493804Y-109060888D01*
X142494500Y-109049670D01*
X142494537Y-109049672D01*
X142494773Y-109045773D01*
X142495163Y-109041402D01*
X142496652Y-109034243D01*
X142494546Y-108956423D01*
X142494500Y-108953014D01*
X142494500Y-106702071D01*
X142511381Y-106639071D01*
X142563223Y-106549279D01*
X142563224Y-106549278D01*
X142566527Y-106543556D01*
X142625542Y-106361928D01*
X142628689Y-106331991D01*
X142644814Y-106178565D01*
X142645504Y-106172000D01*
X142639436Y-106114262D01*
X142626232Y-105988635D01*
X142626232Y-105988633D01*
X142625542Y-105982072D01*
X142566527Y-105800444D01*
X142471040Y-105635056D01*
X142465784Y-105629218D01*
X142347675Y-105498045D01*
X142347674Y-105498044D01*
X142343253Y-105493134D01*
X142188752Y-105380882D01*
X142182724Y-105378198D01*
X142182722Y-105378197D01*
X142020319Y-105305891D01*
X142020318Y-105305891D01*
X142014288Y-105303206D01*
X141906713Y-105280340D01*
X141833944Y-105264872D01*
X141833939Y-105264872D01*
X141827487Y-105263500D01*
X141636513Y-105263500D01*
X141630061Y-105264872D01*
X141630056Y-105264872D01*
X141557287Y-105280340D01*
X141449712Y-105303206D01*
X141443682Y-105305891D01*
X141443681Y-105305891D01*
X141281278Y-105378197D01*
X141281276Y-105378198D01*
X141275248Y-105380882D01*
X141120747Y-105493134D01*
X141116326Y-105498044D01*
X141116325Y-105498045D01*
X140998217Y-105629218D01*
X140992960Y-105635056D01*
X140897473Y-105800444D01*
X140838458Y-105982072D01*
X140837768Y-105988633D01*
X140837768Y-105988635D01*
X140824564Y-106114262D01*
X140818496Y-106172000D01*
X140819186Y-106178565D01*
X140835312Y-106331991D01*
X140838458Y-106361928D01*
X140897473Y-106543556D01*
X140900776Y-106549278D01*
X140900777Y-106549279D01*
X140952619Y-106639071D01*
X140969500Y-106702071D01*
X140969500Y-108012223D01*
X140949498Y-108080344D01*
X140895842Y-108126837D01*
X140825568Y-108136941D01*
X140760988Y-108107447D01*
X140754482Y-108101396D01*
X140653171Y-108000261D01*
X140641760Y-107991249D01*
X140503757Y-107906184D01*
X140490576Y-107900037D01*
X140336290Y-107848862D01*
X140322914Y-107845995D01*
X140228562Y-107836328D01*
X140222145Y-107836000D01*
X139972115Y-107836000D01*
X139956876Y-107840475D01*
X139955671Y-107841865D01*
X139954000Y-107849548D01*
X139954000Y-108972000D01*
X139933998Y-109040121D01*
X139880342Y-109086614D01*
X139828000Y-109098000D01*
X137286000Y-109098000D01*
X137217879Y-109077998D01*
X137171386Y-109024342D01*
X137160000Y-108972000D01*
X137160000Y-108571885D01*
X137668000Y-108571885D01*
X137672475Y-108587124D01*
X137673865Y-108588329D01*
X137681548Y-108590000D01*
X139427885Y-108590000D01*
X139443124Y-108585525D01*
X139444329Y-108584135D01*
X139446000Y-108576452D01*
X139446000Y-107854116D01*
X139441525Y-107838877D01*
X139440135Y-107837672D01*
X139432452Y-107836001D01*
X139177905Y-107836001D01*
X139171386Y-107836338D01*
X139075794Y-107846257D01*
X139062400Y-107849149D01*
X138908216Y-107900588D01*
X138895038Y-107906761D01*
X138757193Y-107992063D01*
X138745787Y-108001103D01*
X138646246Y-108100816D01*
X138583964Y-108134895D01*
X138513143Y-108129892D01*
X138468056Y-108100971D01*
X138367171Y-108000261D01*
X138355760Y-107991249D01*
X138217757Y-107906184D01*
X138204576Y-107900037D01*
X138050290Y-107848862D01*
X138036914Y-107845995D01*
X137942562Y-107836328D01*
X137936145Y-107836000D01*
X137686115Y-107836000D01*
X137670876Y-107840475D01*
X137669671Y-107841865D01*
X137668000Y-107849548D01*
X137668000Y-108571885D01*
X137160000Y-108571885D01*
X137160000Y-107854116D01*
X137155525Y-107838877D01*
X137154135Y-107837672D01*
X137146452Y-107836001D01*
X136891905Y-107836001D01*
X136885386Y-107836338D01*
X136789794Y-107846257D01*
X136776400Y-107849149D01*
X136622216Y-107900588D01*
X136609038Y-107906761D01*
X136471193Y-107992063D01*
X136466951Y-107995425D01*
X136401140Y-108022060D01*
X136331376Y-108008888D01*
X136279809Y-107960089D01*
X136270707Y-107940907D01*
X136232767Y-107839703D01*
X136229615Y-107831295D01*
X136212673Y-107808689D01*
X136187826Y-107742185D01*
X136187500Y-107733126D01*
X136187500Y-107690660D01*
X136207502Y-107622539D01*
X136224405Y-107601565D01*
X136908565Y-106917405D01*
X136970877Y-106883379D01*
X136997660Y-106880500D01*
X138401088Y-106880500D01*
X138409658Y-106880792D01*
X138459776Y-106884209D01*
X138459780Y-106884209D01*
X138467352Y-106884725D01*
X138474829Y-106883420D01*
X138474830Y-106883420D01*
X138501308Y-106878799D01*
X138530303Y-106873738D01*
X138536821Y-106872777D01*
X138600242Y-106865102D01*
X138607343Y-106862419D01*
X138609952Y-106861778D01*
X138626262Y-106857315D01*
X138628798Y-106856550D01*
X138636284Y-106855243D01*
X138694800Y-106829556D01*
X138700904Y-106827065D01*
X138702146Y-106826596D01*
X138760656Y-106804487D01*
X138766919Y-106800183D01*
X138769285Y-106798946D01*
X138784097Y-106790701D01*
X138786351Y-106789368D01*
X138793305Y-106786315D01*
X138844002Y-106747413D01*
X138849332Y-106743541D01*
X138895720Y-106711661D01*
X138895725Y-106711656D01*
X138901981Y-106707357D01*
X138913141Y-106694832D01*
X138943435Y-106660830D01*
X138948416Y-106655554D01*
X139823020Y-105780950D01*
X139829285Y-105775096D01*
X139829738Y-105774701D01*
X139872885Y-105737061D01*
X139909629Y-105684780D01*
X139913561Y-105679486D01*
X139948291Y-105635193D01*
X139952976Y-105629218D01*
X139956099Y-105622302D01*
X139957483Y-105620016D01*
X139965857Y-105605335D01*
X139967122Y-105602975D01*
X139971490Y-105596761D01*
X139974270Y-105589632D01*
X139993810Y-105539513D01*
X139994703Y-105537223D01*
X139997259Y-105531142D01*
X140000935Y-105523002D01*
X140005160Y-105513645D01*
X140053691Y-105458355D01*
X140079348Y-105442478D01*
X140204305Y-105317303D01*
X140208146Y-105311072D01*
X140293275Y-105172968D01*
X140293276Y-105172966D01*
X140297115Y-105166738D01*
X140350196Y-105006704D01*
X140350632Y-105005389D01*
X140350632Y-105005387D01*
X140352797Y-104998861D01*
X140357058Y-104957279D01*
X140363172Y-104897598D01*
X140363500Y-104894400D01*
X140363500Y-103893600D01*
X140352526Y-103787834D01*
X140296550Y-103620054D01*
X140203478Y-103469652D01*
X140078303Y-103344695D01*
X139960033Y-103271792D01*
X139912541Y-103219021D01*
X139901117Y-103148949D01*
X139929391Y-103083825D01*
X139950585Y-103063707D01*
X139950661Y-103063650D01*
X140063261Y-102979261D01*
X140107487Y-102920251D01*
X140164344Y-102877736D01*
X140235163Y-102872710D01*
X140297456Y-102906770D01*
X140309138Y-102920251D01*
X140347715Y-102971724D01*
X140360276Y-102984285D01*
X140462351Y-103060786D01*
X140477946Y-103069324D01*
X140598394Y-103114478D01*
X140613649Y-103118105D01*
X140664514Y-103123631D01*
X140671328Y-103124000D01*
X141205885Y-103124000D01*
X141221124Y-103119525D01*
X141222329Y-103118135D01*
X141224000Y-103110452D01*
X141224000Y-103105884D01*
X141732000Y-103105884D01*
X141736475Y-103121123D01*
X141737865Y-103122328D01*
X141745548Y-103123999D01*
X142284669Y-103123999D01*
X142291490Y-103123629D01*
X142342352Y-103118105D01*
X142357604Y-103114479D01*
X142478054Y-103069324D01*
X142493649Y-103060786D01*
X142595724Y-102984285D01*
X142608285Y-102971724D01*
X142684786Y-102869649D01*
X142693324Y-102854054D01*
X142738478Y-102733606D01*
X142742105Y-102718351D01*
X142747631Y-102667486D01*
X142748000Y-102660672D01*
X142748000Y-102126115D01*
X142743525Y-102110876D01*
X142742135Y-102109671D01*
X142734452Y-102108000D01*
X141750115Y-102108000D01*
X141734876Y-102112475D01*
X141733671Y-102113865D01*
X141732000Y-102121548D01*
X141732000Y-103105884D01*
X141224000Y-103105884D01*
X141224000Y-101581885D01*
X141732000Y-101581885D01*
X141736475Y-101597124D01*
X141737865Y-101598329D01*
X141745548Y-101600000D01*
X142729884Y-101600000D01*
X142745123Y-101595525D01*
X142746328Y-101594135D01*
X142747999Y-101586452D01*
X142747999Y-101047331D01*
X142747629Y-101040510D01*
X142742105Y-100989648D01*
X142738479Y-100974396D01*
X142693324Y-100853946D01*
X142684786Y-100838351D01*
X142608285Y-100736276D01*
X142595725Y-100723716D01*
X142543835Y-100684827D01*
X142501319Y-100627968D01*
X142496293Y-100557149D01*
X142530353Y-100494856D01*
X142543835Y-100483173D01*
X142595725Y-100444284D01*
X142608285Y-100431724D01*
X142684786Y-100329649D01*
X142693324Y-100314054D01*
X142738478Y-100193606D01*
X142742105Y-100178351D01*
X142747631Y-100127486D01*
X142748000Y-100120672D01*
X142748000Y-99586115D01*
X142743525Y-99570876D01*
X142742135Y-99569671D01*
X142734452Y-99568000D01*
X141750115Y-99568000D01*
X141734876Y-99572475D01*
X141733671Y-99573865D01*
X141732000Y-99581548D01*
X141732000Y-101581885D01*
X141224000Y-101581885D01*
X141224000Y-99041885D01*
X141732000Y-99041885D01*
X141736475Y-99057124D01*
X141737865Y-99058329D01*
X141745548Y-99060000D01*
X142729884Y-99060000D01*
X142745123Y-99055525D01*
X142746328Y-99054135D01*
X142747999Y-99046452D01*
X142747999Y-98507331D01*
X142747629Y-98500510D01*
X142742105Y-98449648D01*
X142738479Y-98434396D01*
X142693324Y-98313946D01*
X142684786Y-98298351D01*
X142608285Y-98196276D01*
X142595724Y-98183715D01*
X142493649Y-98107214D01*
X142478054Y-98098676D01*
X142357606Y-98053522D01*
X142342351Y-98049895D01*
X142291486Y-98044369D01*
X142284672Y-98044000D01*
X141750115Y-98044000D01*
X141734876Y-98048475D01*
X141733671Y-98049865D01*
X141732000Y-98057548D01*
X141732000Y-99041885D01*
X141224000Y-99041885D01*
X141224000Y-98062116D01*
X141219525Y-98046877D01*
X141218135Y-98045672D01*
X141210452Y-98044001D01*
X140671331Y-98044001D01*
X140664510Y-98044371D01*
X140613648Y-98049895D01*
X140598396Y-98053521D01*
X140477946Y-98098676D01*
X140462351Y-98107214D01*
X140360276Y-98183715D01*
X140347715Y-98196276D01*
X140309138Y-98247749D01*
X140252279Y-98290264D01*
X140181460Y-98295290D01*
X140119167Y-98261230D01*
X140107491Y-98247755D01*
X140063261Y-98188739D01*
X139946705Y-98101385D01*
X139810316Y-98050255D01*
X139748134Y-98043500D01*
X138127866Y-98043500D01*
X138065684Y-98050255D01*
X137929295Y-98101385D01*
X137812739Y-98188739D01*
X137807359Y-98195918D01*
X137807358Y-98195919D01*
X137768826Y-98247332D01*
X137711967Y-98289847D01*
X137641148Y-98294873D01*
X137578855Y-98260813D01*
X137567174Y-98247332D01*
X137528642Y-98195919D01*
X137528641Y-98195918D01*
X137523261Y-98188739D01*
X137406705Y-98101385D01*
X137270316Y-98050255D01*
X137208134Y-98043500D01*
X135587866Y-98043500D01*
X135525684Y-98050255D01*
X135389295Y-98101385D01*
X135272739Y-98188739D01*
X135267359Y-98195918D01*
X135267358Y-98195919D01*
X135228826Y-98247332D01*
X135171967Y-98289847D01*
X135101148Y-98294873D01*
X135038855Y-98260813D01*
X135027174Y-98247332D01*
X134988642Y-98195919D01*
X134988641Y-98195918D01*
X134983261Y-98188739D01*
X134866705Y-98101385D01*
X134730316Y-98050255D01*
X134668134Y-98043500D01*
X133641660Y-98043500D01*
X133573539Y-98023498D01*
X133552565Y-98006595D01*
X133043565Y-97497595D01*
X133009539Y-97435283D01*
X133014604Y-97364468D01*
X133057151Y-97307632D01*
X133123671Y-97282821D01*
X133132660Y-97282500D01*
X151511500Y-97282500D01*
X151579621Y-97302502D01*
G37*
%TD.AperFunction*%
%TA.AperFunction,Conductor*%
G36*
X126015461Y-97302502D02*
G01*
X126061954Y-97356158D01*
X126072058Y-97426432D01*
X126042564Y-97491012D01*
X126036435Y-97497595D01*
X125527435Y-98006595D01*
X125465123Y-98040621D01*
X125438340Y-98043500D01*
X124411866Y-98043500D01*
X124349684Y-98050255D01*
X124213295Y-98101385D01*
X124096739Y-98188739D01*
X124091359Y-98195918D01*
X124091358Y-98195919D01*
X124052826Y-98247332D01*
X123995967Y-98289847D01*
X123925148Y-98294873D01*
X123862855Y-98260813D01*
X123851174Y-98247332D01*
X123812642Y-98195919D01*
X123812641Y-98195918D01*
X123807261Y-98188739D01*
X123690705Y-98101385D01*
X123554316Y-98050255D01*
X123492134Y-98043500D01*
X121871866Y-98043500D01*
X121809684Y-98050255D01*
X121673295Y-98101385D01*
X121556739Y-98188739D01*
X121469385Y-98305295D01*
X121418255Y-98441684D01*
X121411500Y-98503866D01*
X121411500Y-100124134D01*
X121418255Y-100186316D01*
X121469385Y-100322705D01*
X121556739Y-100439261D01*
X121563919Y-100444642D01*
X121615332Y-100483174D01*
X121657847Y-100540033D01*
X121662873Y-100610852D01*
X121628813Y-100673145D01*
X121615333Y-100684825D01*
X121556739Y-100728739D01*
X121469385Y-100845295D01*
X121418255Y-100981684D01*
X121411500Y-101043866D01*
X121411500Y-102664134D01*
X121418255Y-102726316D01*
X121469385Y-102862705D01*
X121556739Y-102979261D01*
X121673295Y-103066615D01*
X121809684Y-103117745D01*
X121871866Y-103124500D01*
X123492134Y-103124500D01*
X123554316Y-103117745D01*
X123690705Y-103066615D01*
X123807261Y-102979261D01*
X123851174Y-102920668D01*
X123908033Y-102878153D01*
X123978852Y-102873127D01*
X124041145Y-102907187D01*
X124052825Y-102920667D01*
X124096739Y-102979261D01*
X124213295Y-103066615D01*
X124349684Y-103117745D01*
X124357536Y-103118598D01*
X124357540Y-103118599D01*
X124389125Y-103122030D01*
X124401108Y-103123331D01*
X124466669Y-103150572D01*
X124507096Y-103208935D01*
X124513500Y-103248594D01*
X124513500Y-105889088D01*
X124513208Y-105897658D01*
X124509275Y-105955352D01*
X124510580Y-105962829D01*
X124510580Y-105962830D01*
X124520261Y-106018299D01*
X124521223Y-106024821D01*
X124528898Y-106088242D01*
X124531581Y-106095343D01*
X124532222Y-106097952D01*
X124536685Y-106114262D01*
X124537450Y-106116798D01*
X124538757Y-106124284D01*
X124541811Y-106131241D01*
X124564442Y-106182795D01*
X124566933Y-106188899D01*
X124589513Y-106248656D01*
X124593817Y-106254919D01*
X124595054Y-106257285D01*
X124603299Y-106272097D01*
X124604632Y-106274351D01*
X124607685Y-106281305D01*
X124631893Y-106312852D01*
X124646579Y-106331991D01*
X124650459Y-106337332D01*
X124682339Y-106383720D01*
X124682344Y-106383725D01*
X124686643Y-106389981D01*
X124692313Y-106395032D01*
X124692314Y-106395034D01*
X124733170Y-106431435D01*
X124738446Y-106436416D01*
X128465540Y-110163510D01*
X128499566Y-110225822D01*
X128494501Y-110296637D01*
X128452009Y-110353432D01*
X128422275Y-110375716D01*
X128409715Y-110388276D01*
X128371138Y-110439749D01*
X128314279Y-110482264D01*
X128243460Y-110487290D01*
X128181167Y-110453230D01*
X128169491Y-110439755D01*
X128125261Y-110380739D01*
X128008705Y-110293385D01*
X127872316Y-110242255D01*
X127810134Y-110235500D01*
X126189866Y-110235500D01*
X126127684Y-110242255D01*
X125991295Y-110293385D01*
X125874739Y-110380739D01*
X125830513Y-110439749D01*
X125773656Y-110482264D01*
X125702837Y-110487290D01*
X125640544Y-110453230D01*
X125628862Y-110439749D01*
X125590285Y-110388276D01*
X125577724Y-110375715D01*
X125475649Y-110299214D01*
X125460054Y-110290676D01*
X125339606Y-110245522D01*
X125324351Y-110241895D01*
X125273486Y-110236369D01*
X125266672Y-110236000D01*
X124732115Y-110236000D01*
X124716876Y-110240475D01*
X124715671Y-110241865D01*
X124714000Y-110249548D01*
X124714000Y-115297884D01*
X124718475Y-115313123D01*
X124719865Y-115314328D01*
X124727548Y-115315999D01*
X125266669Y-115315999D01*
X125273490Y-115315629D01*
X125324352Y-115310105D01*
X125339604Y-115306479D01*
X125460054Y-115261324D01*
X125475649Y-115252786D01*
X125577724Y-115176285D01*
X125590285Y-115163724D01*
X125628862Y-115112251D01*
X125685721Y-115069736D01*
X125756540Y-115064710D01*
X125818833Y-115098770D01*
X125830509Y-115112245D01*
X125874739Y-115171261D01*
X125991295Y-115258615D01*
X126127684Y-115309745D01*
X126189866Y-115316500D01*
X127139972Y-115316500D01*
X127208093Y-115336502D01*
X127229067Y-115353405D01*
X127738067Y-115862405D01*
X127772093Y-115924717D01*
X127767028Y-115995532D01*
X127724481Y-116052368D01*
X127657961Y-116077179D01*
X127648972Y-116077500D01*
X112648500Y-116077500D01*
X112580379Y-116057498D01*
X112533886Y-116003842D01*
X112522500Y-115951500D01*
X112522500Y-114852669D01*
X123190001Y-114852669D01*
X123190371Y-114859490D01*
X123195895Y-114910352D01*
X123199521Y-114925604D01*
X123244676Y-115046054D01*
X123253214Y-115061649D01*
X123329715Y-115163724D01*
X123342276Y-115176285D01*
X123444351Y-115252786D01*
X123459946Y-115261324D01*
X123580394Y-115306478D01*
X123595649Y-115310105D01*
X123646514Y-115315631D01*
X123653328Y-115316000D01*
X124187885Y-115316000D01*
X124203124Y-115311525D01*
X124204329Y-115310135D01*
X124206000Y-115302452D01*
X124206000Y-114318115D01*
X124201525Y-114302876D01*
X124200135Y-114301671D01*
X124192452Y-114300000D01*
X123208116Y-114300000D01*
X123192877Y-114304475D01*
X123191672Y-114305865D01*
X123190001Y-114313548D01*
X123190001Y-114852669D01*
X112522500Y-114852669D01*
X112522500Y-113773885D01*
X123190000Y-113773885D01*
X123194475Y-113789124D01*
X123195865Y-113790329D01*
X123203548Y-113792000D01*
X124187885Y-113792000D01*
X124203124Y-113787525D01*
X124204329Y-113786135D01*
X124206000Y-113778452D01*
X124206000Y-111778115D01*
X124201525Y-111762876D01*
X124200135Y-111761671D01*
X124192452Y-111760000D01*
X123208116Y-111760000D01*
X123192877Y-111764475D01*
X123191672Y-111765865D01*
X123190001Y-111773548D01*
X123190001Y-112312669D01*
X123190371Y-112319490D01*
X123195895Y-112370352D01*
X123199521Y-112385604D01*
X123244676Y-112506054D01*
X123253214Y-112521649D01*
X123329715Y-112623724D01*
X123342275Y-112636284D01*
X123394165Y-112675173D01*
X123436681Y-112732032D01*
X123441707Y-112802851D01*
X123407647Y-112865144D01*
X123394165Y-112876827D01*
X123342275Y-112915716D01*
X123329715Y-112928276D01*
X123253214Y-113030351D01*
X123244676Y-113045946D01*
X123199522Y-113166394D01*
X123195895Y-113181649D01*
X123190369Y-113232514D01*
X123190000Y-113239328D01*
X123190000Y-113773885D01*
X112522500Y-113773885D01*
X112522500Y-111233885D01*
X123190000Y-111233885D01*
X123194475Y-111249124D01*
X123195865Y-111250329D01*
X123203548Y-111252000D01*
X124187885Y-111252000D01*
X124203124Y-111247525D01*
X124204329Y-111246135D01*
X124206000Y-111238452D01*
X124206000Y-110254116D01*
X124201525Y-110238877D01*
X124200135Y-110237672D01*
X124192452Y-110236001D01*
X123653331Y-110236001D01*
X123646510Y-110236371D01*
X123595648Y-110241895D01*
X123580396Y-110245521D01*
X123459946Y-110290676D01*
X123444351Y-110299214D01*
X123342276Y-110375715D01*
X123329715Y-110388276D01*
X123253214Y-110490351D01*
X123244676Y-110505946D01*
X123199522Y-110626394D01*
X123195895Y-110641649D01*
X123190369Y-110692514D01*
X123190000Y-110699328D01*
X123190000Y-111233885D01*
X112522500Y-111233885D01*
X112522500Y-97408500D01*
X112542502Y-97340379D01*
X112596158Y-97293886D01*
X112648500Y-97282500D01*
X125947340Y-97282500D01*
X126015461Y-97302502D01*
G37*
%TD.AperFunction*%
%TA.AperFunction,Conductor*%
G36*
X133175121Y-110594002D02*
G01*
X133221614Y-110647658D01*
X133233000Y-110700000D01*
X133233000Y-111867884D01*
X133237475Y-111883123D01*
X133238865Y-111884328D01*
X133246548Y-111885999D01*
X133323669Y-111885999D01*
X133330490Y-111885629D01*
X133381352Y-111880105D01*
X133396600Y-111876480D01*
X133428489Y-111864525D01*
X133499296Y-111859342D01*
X133561666Y-111893262D01*
X133590585Y-111937968D01*
X133596513Y-111953656D01*
X133600817Y-111959919D01*
X133602054Y-111962285D01*
X133610299Y-111977097D01*
X133611632Y-111979351D01*
X133614685Y-111986305D01*
X133651661Y-112034491D01*
X133653579Y-112036991D01*
X133657459Y-112042332D01*
X133689336Y-112088715D01*
X133689339Y-112088718D01*
X133691841Y-112092360D01*
X133691842Y-112092361D01*
X133693643Y-112094982D01*
X133693143Y-112095326D01*
X133721938Y-112160920D01*
X133726458Y-112203928D01*
X133785473Y-112385556D01*
X133880960Y-112550944D01*
X133885378Y-112555851D01*
X133885379Y-112555852D01*
X134004325Y-112687955D01*
X134008747Y-112692866D01*
X134163248Y-112805118D01*
X134169276Y-112807802D01*
X134169278Y-112807803D01*
X134331681Y-112880109D01*
X134337712Y-112882794D01*
X134431112Y-112902647D01*
X134518056Y-112921128D01*
X134518061Y-112921128D01*
X134524513Y-112922500D01*
X134715487Y-112922500D01*
X134721939Y-112921128D01*
X134721944Y-112921128D01*
X134808888Y-112902647D01*
X134902288Y-112882794D01*
X134908319Y-112880109D01*
X135070722Y-112807803D01*
X135070724Y-112807802D01*
X135076752Y-112805118D01*
X135231253Y-112692866D01*
X135235675Y-112687955D01*
X135354621Y-112555852D01*
X135354622Y-112555851D01*
X135359040Y-112550944D01*
X135454527Y-112385556D01*
X135513542Y-112203928D01*
X135521138Y-112131661D01*
X135532814Y-112020565D01*
X135533504Y-112014000D01*
X135533206Y-112011165D01*
X135552816Y-111944379D01*
X135606472Y-111897886D01*
X135658814Y-111886500D01*
X135827134Y-111886500D01*
X135889316Y-111879745D01*
X136025705Y-111828615D01*
X136142261Y-111741261D01*
X136170675Y-111703348D01*
X136227534Y-111660835D01*
X136298352Y-111655810D01*
X136360645Y-111689870D01*
X136394636Y-111752201D01*
X136397500Y-111778915D01*
X136397500Y-113515929D01*
X136380619Y-113578928D01*
X136325473Y-113674444D01*
X136288211Y-113789124D01*
X136273335Y-113834907D01*
X136242597Y-113885065D01*
X135357067Y-114770595D01*
X135294755Y-114804621D01*
X135267972Y-114807500D01*
X130936000Y-114807500D01*
X130867879Y-114787498D01*
X130821386Y-114733842D01*
X130810000Y-114681500D01*
X130810000Y-114318115D01*
X130805525Y-114302876D01*
X130804135Y-114301671D01*
X130796452Y-114300000D01*
X129412000Y-114300000D01*
X129343879Y-114279998D01*
X129297386Y-114226342D01*
X129286000Y-114174000D01*
X129286000Y-111378000D01*
X129306002Y-111309879D01*
X129359658Y-111263386D01*
X129412000Y-111252000D01*
X129668000Y-111252000D01*
X129736121Y-111272002D01*
X129782614Y-111325658D01*
X129794000Y-111378000D01*
X129794000Y-113773885D01*
X129798475Y-113789124D01*
X129799865Y-113790329D01*
X129807548Y-113792000D01*
X130791884Y-113792000D01*
X130807123Y-113787525D01*
X130808328Y-113786135D01*
X130809999Y-113778452D01*
X130809999Y-113239323D01*
X130809873Y-113236995D01*
X130809999Y-113236461D01*
X130809999Y-113235912D01*
X130810128Y-113235912D01*
X130826164Y-113167893D01*
X130877228Y-113118568D01*
X130946853Y-113104681D01*
X130986939Y-113115079D01*
X131029677Y-113134108D01*
X131029685Y-113134111D01*
X131035712Y-113136794D01*
X131129112Y-113156647D01*
X131216056Y-113175128D01*
X131216061Y-113175128D01*
X131222513Y-113176500D01*
X131413487Y-113176500D01*
X131419939Y-113175128D01*
X131419944Y-113175128D01*
X131506888Y-113156647D01*
X131600288Y-113136794D01*
X131606321Y-113134108D01*
X131768722Y-113061803D01*
X131768724Y-113061802D01*
X131774752Y-113059118D01*
X131929253Y-112946866D01*
X131933675Y-112941955D01*
X132052621Y-112809852D01*
X132052622Y-112809851D01*
X132057040Y-112804944D01*
X132131963Y-112675174D01*
X132149223Y-112645279D01*
X132149224Y-112645278D01*
X132152527Y-112639556D01*
X132211542Y-112457928D01*
X132215813Y-112417292D01*
X132242826Y-112351635D01*
X132248803Y-112345407D01*
X132248576Y-112345202D01*
X132253660Y-112339555D01*
X132259385Y-112334561D01*
X132296114Y-112282300D01*
X132300046Y-112277005D01*
X132334791Y-112232694D01*
X132339477Y-112226718D01*
X132342602Y-112219796D01*
X132343964Y-112217548D01*
X132352368Y-112202815D01*
X132353622Y-112200476D01*
X132357990Y-112194261D01*
X132360749Y-112187185D01*
X132360751Y-112187181D01*
X132381200Y-112134731D01*
X132383749Y-112128666D01*
X132410045Y-112070427D01*
X132411429Y-112062962D01*
X132412226Y-112060418D01*
X132416859Y-112044152D01*
X132417521Y-112041572D01*
X132420282Y-112034491D01*
X132421274Y-112026957D01*
X132426511Y-111987177D01*
X132455233Y-111922250D01*
X132514499Y-111883158D01*
X132568557Y-111881425D01*
X132568793Y-111879252D01*
X132627514Y-111885631D01*
X132634328Y-111886000D01*
X132706885Y-111886000D01*
X132722124Y-111881525D01*
X132723329Y-111880135D01*
X132725000Y-111872452D01*
X132725000Y-110700000D01*
X132745002Y-110631879D01*
X132798658Y-110585386D01*
X132851000Y-110574000D01*
X133107000Y-110574000D01*
X133175121Y-110594002D01*
G37*
%TD.AperFunction*%
%TA.AperFunction,Conductor*%
G36*
X129990121Y-98518502D02*
G01*
X130036614Y-98572158D01*
X130048000Y-98624500D01*
X130048000Y-99041885D01*
X130052475Y-99057124D01*
X130053865Y-99058329D01*
X130061548Y-99060000D01*
X131446000Y-99060000D01*
X131514121Y-99080002D01*
X131560614Y-99133658D01*
X131572000Y-99186000D01*
X131572000Y-103105884D01*
X131576475Y-103121123D01*
X131577865Y-103122328D01*
X131585548Y-103123999D01*
X132124669Y-103123999D01*
X132131490Y-103123629D01*
X132182352Y-103118105D01*
X132197604Y-103114479D01*
X132318054Y-103069324D01*
X132333649Y-103060786D01*
X132435724Y-102984285D01*
X132448285Y-102971724D01*
X132486862Y-102920251D01*
X132543721Y-102877736D01*
X132614540Y-102872710D01*
X132676833Y-102906770D01*
X132688509Y-102920245D01*
X132732739Y-102979261D01*
X132739919Y-102984642D01*
X132739920Y-102984643D01*
X132845338Y-103063650D01*
X132887853Y-103120510D01*
X132892878Y-103191328D01*
X132858819Y-103253621D01*
X132836077Y-103271619D01*
X132716652Y-103345522D01*
X132591695Y-103470697D01*
X132587855Y-103476927D01*
X132587854Y-103476928D01*
X132558212Y-103525017D01*
X132498885Y-103621262D01*
X132443203Y-103789139D01*
X132432500Y-103893600D01*
X132432500Y-104894400D01*
X132432837Y-104897646D01*
X132432837Y-104897650D01*
X132440550Y-104971983D01*
X132443474Y-105000166D01*
X132499450Y-105167946D01*
X132592522Y-105318348D01*
X132597704Y-105323521D01*
X132708018Y-105433643D01*
X132742097Y-105495926D01*
X132745000Y-105522816D01*
X132745000Y-106246588D01*
X132744708Y-106255158D01*
X132742926Y-106281305D01*
X132740775Y-106312852D01*
X132742080Y-106320329D01*
X132742080Y-106320330D01*
X132751761Y-106375799D01*
X132752723Y-106382321D01*
X132760398Y-106445742D01*
X132763081Y-106452843D01*
X132763722Y-106455452D01*
X132768185Y-106471762D01*
X132768950Y-106474298D01*
X132770257Y-106481784D01*
X132794615Y-106537271D01*
X132795942Y-106540295D01*
X132798433Y-106546399D01*
X132821013Y-106606156D01*
X132825317Y-106612419D01*
X132826554Y-106614785D01*
X132834799Y-106629597D01*
X132836132Y-106631851D01*
X132839185Y-106638805D01*
X132876701Y-106687695D01*
X132878079Y-106689491D01*
X132881959Y-106694832D01*
X132913839Y-106741220D01*
X132913844Y-106741225D01*
X132918143Y-106747481D01*
X132923813Y-106752532D01*
X132923814Y-106752534D01*
X132964670Y-106788935D01*
X132969946Y-106793916D01*
X133483595Y-107307565D01*
X133517621Y-107369877D01*
X133520500Y-107396660D01*
X133520500Y-107450077D01*
X133500498Y-107518198D01*
X133446842Y-107564691D01*
X133380892Y-107575340D01*
X133327134Y-107569500D01*
X133224660Y-107569500D01*
X133156539Y-107549498D01*
X133135565Y-107532595D01*
X129262450Y-103659480D01*
X129256596Y-103653215D01*
X129256201Y-103652762D01*
X129218561Y-103609615D01*
X129166280Y-103572871D01*
X129160986Y-103568939D01*
X129116693Y-103534209D01*
X129110718Y-103529524D01*
X129103802Y-103526401D01*
X129101516Y-103525017D01*
X129086835Y-103516643D01*
X129084475Y-103515378D01*
X129078261Y-103511010D01*
X129071182Y-103508250D01*
X129071180Y-103508249D01*
X129018725Y-103487798D01*
X129012656Y-103485247D01*
X128954427Y-103458955D01*
X128946960Y-103457571D01*
X128944405Y-103456770D01*
X128928152Y-103452141D01*
X128925572Y-103451478D01*
X128918491Y-103448718D01*
X128910960Y-103447727D01*
X128910958Y-103447726D01*
X128881339Y-103443827D01*
X128855139Y-103440378D01*
X128848641Y-103439348D01*
X128785814Y-103427704D01*
X128778234Y-103428141D01*
X128778233Y-103428141D01*
X128723608Y-103431291D01*
X128716354Y-103431500D01*
X127345660Y-103431500D01*
X127277539Y-103411498D01*
X127256565Y-103394595D01*
X127237405Y-103375435D01*
X127203379Y-103313123D01*
X127200500Y-103286340D01*
X127200500Y-103250500D01*
X127220502Y-103182379D01*
X127274158Y-103135886D01*
X127326500Y-103124500D01*
X128572134Y-103124500D01*
X128634316Y-103117745D01*
X128770705Y-103066615D01*
X128887261Y-102979261D01*
X128974615Y-102862705D01*
X129025745Y-102726316D01*
X129032500Y-102664134D01*
X129032500Y-102660669D01*
X130048001Y-102660669D01*
X130048371Y-102667490D01*
X130053895Y-102718352D01*
X130057521Y-102733604D01*
X130102676Y-102854054D01*
X130111214Y-102869649D01*
X130187715Y-102971724D01*
X130200276Y-102984285D01*
X130302351Y-103060786D01*
X130317946Y-103069324D01*
X130438394Y-103114478D01*
X130453649Y-103118105D01*
X130504514Y-103123631D01*
X130511328Y-103124000D01*
X131045885Y-103124000D01*
X131061124Y-103119525D01*
X131062329Y-103118135D01*
X131064000Y-103110452D01*
X131064000Y-102126115D01*
X131059525Y-102110876D01*
X131058135Y-102109671D01*
X131050452Y-102108000D01*
X130066116Y-102108000D01*
X130050877Y-102112475D01*
X130049672Y-102113865D01*
X130048001Y-102121548D01*
X130048001Y-102660669D01*
X129032500Y-102660669D01*
X129032500Y-101581885D01*
X130048000Y-101581885D01*
X130052475Y-101597124D01*
X130053865Y-101598329D01*
X130061548Y-101600000D01*
X131045885Y-101600000D01*
X131061124Y-101595525D01*
X131062329Y-101594135D01*
X131064000Y-101586452D01*
X131064000Y-99586115D01*
X131059525Y-99570876D01*
X131058135Y-99569671D01*
X131050452Y-99568000D01*
X130066116Y-99568000D01*
X130050877Y-99572475D01*
X130049672Y-99573865D01*
X130048001Y-99581548D01*
X130048001Y-100120669D01*
X130048371Y-100127490D01*
X130053895Y-100178352D01*
X130057521Y-100193604D01*
X130102676Y-100314054D01*
X130111214Y-100329649D01*
X130187715Y-100431724D01*
X130200275Y-100444284D01*
X130252165Y-100483173D01*
X130294681Y-100540032D01*
X130299707Y-100610851D01*
X130265647Y-100673144D01*
X130252165Y-100684827D01*
X130200275Y-100723716D01*
X130187715Y-100736276D01*
X130111214Y-100838351D01*
X130102676Y-100853946D01*
X130057522Y-100974394D01*
X130053895Y-100989649D01*
X130048369Y-101040514D01*
X130048000Y-101047328D01*
X130048000Y-101581885D01*
X129032500Y-101581885D01*
X129032500Y-101043866D01*
X129025745Y-100981684D01*
X128974615Y-100845295D01*
X128887261Y-100728739D01*
X128828251Y-100684513D01*
X128785736Y-100627656D01*
X128780710Y-100556837D01*
X128814770Y-100494544D01*
X128828251Y-100482862D01*
X128879724Y-100444285D01*
X128892285Y-100431724D01*
X128968786Y-100329649D01*
X128977324Y-100314054D01*
X129022478Y-100193606D01*
X129026105Y-100178351D01*
X129031631Y-100127486D01*
X129032000Y-100120672D01*
X129032000Y-99586115D01*
X129027525Y-99570876D01*
X129026135Y-99569671D01*
X129018452Y-99568000D01*
X127634000Y-99568000D01*
X127565879Y-99547998D01*
X127519386Y-99494342D01*
X127508000Y-99442000D01*
X127508000Y-99186000D01*
X127528002Y-99117879D01*
X127581658Y-99071386D01*
X127634000Y-99060000D01*
X129013884Y-99060000D01*
X129029123Y-99055525D01*
X129030328Y-99054135D01*
X129031999Y-99046452D01*
X129031999Y-98624500D01*
X129052001Y-98556379D01*
X129105657Y-98509886D01*
X129157999Y-98498500D01*
X129922000Y-98498500D01*
X129990121Y-98518502D01*
G37*
%TD.AperFunction*%
%TD*%
M02*
