%TF.GenerationSoftware,KiCad,Pcbnew,6.0.10+dfsg-1~bpo11+1*%
%TF.CreationDate,2023-01-19T09:11:00+00:00*%
%TF.ProjectId,ALTIMET02A,414c5449-4d45-4543-9032-412e6b696361,rev?*%
%TF.SameCoordinates,Original*%
%TF.FileFunction,Legend,Top*%
%TF.FilePolarity,Positive*%
%FSLAX46Y46*%
G04 Gerber Fmt 4.6, Leading zero omitted, Abs format (unit mm)*
G04 Created by KiCad (PCBNEW 6.0.10+dfsg-1~bpo11+1) date 2023-01-19 09:11:00*
%MOMM*%
%LPD*%
G01*
G04 APERTURE LIST*
%ADD10C,0.150000*%
%ADD11C,0.050000*%
%ADD12C,0.120000*%
%ADD13R,1.524000X1.524000*%
G04 APERTURE END LIST*
D10*
X127552476Y-97136000D02*
X127476285Y-97097904D01*
X127362000Y-97097904D01*
X127247714Y-97136000D01*
X127171523Y-97212190D01*
X127133428Y-97288380D01*
X127095333Y-97440761D01*
X127095333Y-97555047D01*
X127133428Y-97707428D01*
X127171523Y-97783619D01*
X127247714Y-97859809D01*
X127362000Y-97897904D01*
X127438190Y-97897904D01*
X127552476Y-97859809D01*
X127590571Y-97821714D01*
X127590571Y-97555047D01*
X127438190Y-97555047D01*
X127933428Y-97897904D02*
X127933428Y-97097904D01*
X128390571Y-97897904D01*
X128390571Y-97097904D01*
X124536285Y-97897904D02*
X124536285Y-97097904D01*
X124802952Y-97669333D01*
X125069619Y-97097904D01*
X125069619Y-97897904D01*
X125602952Y-97097904D02*
X125755333Y-97097904D01*
X125831523Y-97136000D01*
X125907714Y-97212190D01*
X125945809Y-97364571D01*
X125945809Y-97631238D01*
X125907714Y-97783619D01*
X125831523Y-97859809D01*
X125755333Y-97897904D01*
X125602952Y-97897904D01*
X125526761Y-97859809D01*
X125450571Y-97783619D01*
X125412476Y-97631238D01*
X125412476Y-97364571D01*
X125450571Y-97212190D01*
X125526761Y-97136000D01*
X125602952Y-97097904D01*
X132886571Y-104463809D02*
X133000857Y-104501904D01*
X133191333Y-104501904D01*
X133267523Y-104463809D01*
X133305619Y-104425714D01*
X133343714Y-104349523D01*
X133343714Y-104273333D01*
X133305619Y-104197142D01*
X133267523Y-104159047D01*
X133191333Y-104120952D01*
X133038952Y-104082857D01*
X132962761Y-104044761D01*
X132924666Y-104006666D01*
X132886571Y-103930476D01*
X132886571Y-103854285D01*
X132924666Y-103778095D01*
X132962761Y-103740000D01*
X133038952Y-103701904D01*
X133229428Y-103701904D01*
X133343714Y-103740000D01*
X133686571Y-104501904D02*
X133686571Y-103701904D01*
X133877047Y-103701904D01*
X133991333Y-103740000D01*
X134067523Y-103816190D01*
X134105619Y-103892380D01*
X134143714Y-104044761D01*
X134143714Y-104159047D01*
X134105619Y-104311428D01*
X134067523Y-104387619D01*
X133991333Y-104463809D01*
X133877047Y-104501904D01*
X133686571Y-104501904D01*
X134448476Y-104273333D02*
X134829428Y-104273333D01*
X134372285Y-104501904D02*
X134638952Y-103701904D01*
X134905619Y-104501904D01*
X127628666Y-104171714D02*
X127590571Y-104209809D01*
X127476285Y-104247904D01*
X127400095Y-104247904D01*
X127285809Y-104209809D01*
X127209619Y-104133619D01*
X127171523Y-104057428D01*
X127133428Y-103905047D01*
X127133428Y-103790761D01*
X127171523Y-103638380D01*
X127209619Y-103562190D01*
X127285809Y-103486000D01*
X127400095Y-103447904D01*
X127476285Y-103447904D01*
X127590571Y-103486000D01*
X127628666Y-103524095D01*
X127933428Y-104209809D02*
X128047714Y-104247904D01*
X128238190Y-104247904D01*
X128314380Y-104209809D01*
X128352476Y-104171714D01*
X128390571Y-104095523D01*
X128390571Y-104019333D01*
X128352476Y-103943142D01*
X128314380Y-103905047D01*
X128238190Y-103866952D01*
X128085809Y-103828857D01*
X128009619Y-103790761D01*
X127971523Y-103752666D01*
X127933428Y-103676476D01*
X127933428Y-103600285D01*
X127971523Y-103524095D01*
X128009619Y-103486000D01*
X128085809Y-103447904D01*
X128276285Y-103447904D01*
X128390571Y-103486000D01*
X137985619Y-104463809D02*
X138099904Y-104501904D01*
X138290380Y-104501904D01*
X138366571Y-104463809D01*
X138404666Y-104425714D01*
X138442761Y-104349523D01*
X138442761Y-104273333D01*
X138404666Y-104197142D01*
X138366571Y-104159047D01*
X138290380Y-104120952D01*
X138138000Y-104082857D01*
X138061809Y-104044761D01*
X138023714Y-104006666D01*
X137985619Y-103930476D01*
X137985619Y-103854285D01*
X138023714Y-103778095D01*
X138061809Y-103740000D01*
X138138000Y-103701904D01*
X138328476Y-103701904D01*
X138442761Y-103740000D01*
X139242761Y-104425714D02*
X139204666Y-104463809D01*
X139090380Y-104501904D01*
X139014190Y-104501904D01*
X138899904Y-104463809D01*
X138823714Y-104387619D01*
X138785619Y-104311428D01*
X138747523Y-104159047D01*
X138747523Y-104044761D01*
X138785619Y-103892380D01*
X138823714Y-103816190D01*
X138899904Y-103740000D01*
X139014190Y-103701904D01*
X139090380Y-103701904D01*
X139204666Y-103740000D01*
X139242761Y-103778095D01*
X139966571Y-104501904D02*
X139585619Y-104501904D01*
X139585619Y-103701904D01*
X135331333Y-103701904D02*
X135598000Y-104501904D01*
X135864666Y-103701904D01*
X136131333Y-104501904D02*
X136131333Y-103701904D01*
X136321809Y-103701904D01*
X136436095Y-103740000D01*
X136512285Y-103816190D01*
X136550380Y-103892380D01*
X136588476Y-104044761D01*
X136588476Y-104159047D01*
X136550380Y-104311428D01*
X136512285Y-104387619D01*
X136436095Y-104463809D01*
X136321809Y-104501904D01*
X136131333Y-104501904D01*
X136931333Y-104501904D02*
X136931333Y-103701904D01*
X137121809Y-103701904D01*
X137236095Y-103740000D01*
X137312285Y-103816190D01*
X137350380Y-103892380D01*
X137388476Y-104044761D01*
X137388476Y-104159047D01*
X137350380Y-104311428D01*
X137312285Y-104387619D01*
X137236095Y-104463809D01*
X137121809Y-104501904D01*
X136931333Y-104501904D01*
X123547619Y-107851380D02*
X123547619Y-106851380D01*
X123928571Y-106851380D01*
X124023809Y-106899000D01*
X124071428Y-106946619D01*
X124119047Y-107041857D01*
X124119047Y-107184714D01*
X124071428Y-107279952D01*
X124023809Y-107327571D01*
X123928571Y-107375190D01*
X123547619Y-107375190D01*
X124738095Y-106851380D02*
X124928571Y-106851380D01*
X125023809Y-106899000D01*
X125119047Y-106994238D01*
X125166666Y-107184714D01*
X125166666Y-107518047D01*
X125119047Y-107708523D01*
X125023809Y-107803761D01*
X124928571Y-107851380D01*
X124738095Y-107851380D01*
X124642857Y-107803761D01*
X124547619Y-107708523D01*
X124500000Y-107518047D01*
X124500000Y-107184714D01*
X124547619Y-106994238D01*
X124642857Y-106899000D01*
X124738095Y-106851380D01*
X125500000Y-106851380D02*
X125738095Y-107851380D01*
X125928571Y-107137095D01*
X126119047Y-107851380D01*
X126357142Y-106851380D01*
X126738095Y-107327571D02*
X127071428Y-107327571D01*
X127214285Y-107851380D02*
X126738095Y-107851380D01*
X126738095Y-106851380D01*
X127214285Y-106851380D01*
X128214285Y-107851380D02*
X127880952Y-107375190D01*
X127642857Y-107851380D02*
X127642857Y-106851380D01*
X128023809Y-106851380D01*
X128119047Y-106899000D01*
X128166666Y-106946619D01*
X128214285Y-107041857D01*
X128214285Y-107184714D01*
X128166666Y-107279952D01*
X128119047Y-107327571D01*
X128023809Y-107375190D01*
X127642857Y-107375190D01*
X129404761Y-107851380D02*
X129404761Y-106851380D01*
X129880952Y-107851380D02*
X129880952Y-106851380D01*
X130452380Y-107851380D01*
X130452380Y-106851380D01*
X124333333Y-109461380D02*
X123761904Y-109461380D01*
X124047619Y-109461380D02*
X124047619Y-108461380D01*
X123952380Y-108604238D01*
X123857142Y-108699476D01*
X123761904Y-108747095D01*
X124761904Y-109366142D02*
X124809523Y-109413761D01*
X124761904Y-109461380D01*
X124714285Y-109413761D01*
X124761904Y-109366142D01*
X124761904Y-109461380D01*
X125380952Y-108889952D02*
X125285714Y-108842333D01*
X125238095Y-108794714D01*
X125190476Y-108699476D01*
X125190476Y-108651857D01*
X125238095Y-108556619D01*
X125285714Y-108509000D01*
X125380952Y-108461380D01*
X125571428Y-108461380D01*
X125666666Y-108509000D01*
X125714285Y-108556619D01*
X125761904Y-108651857D01*
X125761904Y-108699476D01*
X125714285Y-108794714D01*
X125666666Y-108842333D01*
X125571428Y-108889952D01*
X125380952Y-108889952D01*
X125285714Y-108937571D01*
X125238095Y-108985190D01*
X125190476Y-109080428D01*
X125190476Y-109270904D01*
X125238095Y-109366142D01*
X125285714Y-109413761D01*
X125380952Y-109461380D01*
X125571428Y-109461380D01*
X125666666Y-109413761D01*
X125714285Y-109366142D01*
X125761904Y-109270904D01*
X125761904Y-109080428D01*
X125714285Y-108985190D01*
X125666666Y-108937571D01*
X125571428Y-108889952D01*
X126190476Y-109080428D02*
X126952380Y-109080428D01*
X127333333Y-108461380D02*
X127952380Y-108461380D01*
X127619047Y-108842333D01*
X127761904Y-108842333D01*
X127857142Y-108889952D01*
X127904761Y-108937571D01*
X127952380Y-109032809D01*
X127952380Y-109270904D01*
X127904761Y-109366142D01*
X127857142Y-109413761D01*
X127761904Y-109461380D01*
X127476190Y-109461380D01*
X127380952Y-109413761D01*
X127333333Y-109366142D01*
X128380952Y-109366142D02*
X128428571Y-109413761D01*
X128380952Y-109461380D01*
X128333333Y-109413761D01*
X128380952Y-109366142D01*
X128380952Y-109461380D01*
X129285714Y-108461380D02*
X129095238Y-108461380D01*
X129000000Y-108509000D01*
X128952380Y-108556619D01*
X128857142Y-108699476D01*
X128809523Y-108889952D01*
X128809523Y-109270904D01*
X128857142Y-109366142D01*
X128904761Y-109413761D01*
X129000000Y-109461380D01*
X129190476Y-109461380D01*
X129285714Y-109413761D01*
X129333333Y-109366142D01*
X129380952Y-109270904D01*
X129380952Y-109032809D01*
X129333333Y-108937571D01*
X129285714Y-108889952D01*
X129190476Y-108842333D01*
X129000000Y-108842333D01*
X128904761Y-108889952D01*
X128857142Y-108937571D01*
X128809523Y-109032809D01*
X129666666Y-108461380D02*
X130000000Y-109461380D01*
X130333333Y-108461380D01*
X131864380Y-111613904D02*
X131864380Y-110813904D01*
X132207238Y-110890095D02*
X132245333Y-110852000D01*
X132321523Y-110813904D01*
X132512000Y-110813904D01*
X132588190Y-110852000D01*
X132626285Y-110890095D01*
X132664380Y-110966285D01*
X132664380Y-111042476D01*
X132626285Y-111156761D01*
X132169142Y-111613904D01*
X132664380Y-111613904D01*
X133464380Y-111537714D02*
X133426285Y-111575809D01*
X133312000Y-111613904D01*
X133235809Y-111613904D01*
X133121523Y-111575809D01*
X133045333Y-111499619D01*
X133007238Y-111423428D01*
X132969142Y-111271047D01*
X132969142Y-111156761D01*
X133007238Y-111004380D01*
X133045333Y-110928190D01*
X133121523Y-110852000D01*
X133235809Y-110813904D01*
X133312000Y-110813904D01*
X133426285Y-110852000D01*
X133464380Y-110890095D01*
X134759619Y-111613904D02*
X134759619Y-111194857D01*
X134721523Y-111118666D01*
X134645333Y-111080571D01*
X134492952Y-111080571D01*
X134416761Y-111118666D01*
X134759619Y-111575809D02*
X134683428Y-111613904D01*
X134492952Y-111613904D01*
X134416761Y-111575809D01*
X134378666Y-111499619D01*
X134378666Y-111423428D01*
X134416761Y-111347238D01*
X134492952Y-111309142D01*
X134683428Y-111309142D01*
X134759619Y-111271047D01*
X135483428Y-111613904D02*
X135483428Y-110813904D01*
X135483428Y-111575809D02*
X135407238Y-111613904D01*
X135254857Y-111613904D01*
X135178666Y-111575809D01*
X135140571Y-111537714D01*
X135102476Y-111461523D01*
X135102476Y-111232952D01*
X135140571Y-111156761D01*
X135178666Y-111118666D01*
X135254857Y-111080571D01*
X135407238Y-111080571D01*
X135483428Y-111118666D01*
X135864380Y-111613904D02*
X135864380Y-111080571D01*
X135864380Y-111232952D02*
X135902476Y-111156761D01*
X135940571Y-111118666D01*
X136016761Y-111080571D01*
X136092952Y-111080571D01*
X136359619Y-111537714D02*
X136397714Y-111575809D01*
X136359619Y-111613904D01*
X136321523Y-111575809D01*
X136359619Y-111537714D01*
X136359619Y-111613904D01*
X124269619Y-104209809D02*
X124383904Y-104247904D01*
X124574380Y-104247904D01*
X124650571Y-104209809D01*
X124688666Y-104171714D01*
X124726761Y-104095523D01*
X124726761Y-104019333D01*
X124688666Y-103943142D01*
X124650571Y-103905047D01*
X124574380Y-103866952D01*
X124422000Y-103828857D01*
X124345809Y-103790761D01*
X124307714Y-103752666D01*
X124269619Y-103676476D01*
X124269619Y-103600285D01*
X124307714Y-103524095D01*
X124345809Y-103486000D01*
X124422000Y-103447904D01*
X124612476Y-103447904D01*
X124726761Y-103486000D01*
X125526761Y-104171714D02*
X125488666Y-104209809D01*
X125374380Y-104247904D01*
X125298190Y-104247904D01*
X125183904Y-104209809D01*
X125107714Y-104133619D01*
X125069619Y-104057428D01*
X125031523Y-103905047D01*
X125031523Y-103790761D01*
X125069619Y-103638380D01*
X125107714Y-103562190D01*
X125183904Y-103486000D01*
X125298190Y-103447904D01*
X125374380Y-103447904D01*
X125488666Y-103486000D01*
X125526761Y-103524095D01*
X126250571Y-104247904D02*
X125869619Y-104247904D01*
X125869619Y-103447904D01*
X133112380Y-108581666D02*
X133588571Y-108581666D01*
X133017142Y-108867380D02*
X133350476Y-107867380D01*
X133683809Y-108867380D01*
X134493333Y-108867380D02*
X134017142Y-108867380D01*
X134017142Y-107867380D01*
X134683809Y-107867380D02*
X135255238Y-107867380D01*
X134969523Y-108867380D02*
X134969523Y-107867380D01*
X135588571Y-108867380D02*
X135588571Y-107867380D01*
X136064761Y-108867380D02*
X136064761Y-107867380D01*
X136398095Y-108581666D01*
X136731428Y-107867380D01*
X136731428Y-108867380D01*
X137207619Y-108343571D02*
X137540952Y-108343571D01*
X137683809Y-108867380D02*
X137207619Y-108867380D01*
X137207619Y-107867380D01*
X137683809Y-107867380D01*
X137969523Y-107867380D02*
X138540952Y-107867380D01*
X138255238Y-108867380D02*
X138255238Y-107867380D01*
X139064761Y-107867380D02*
X139160000Y-107867380D01*
X139255238Y-107915000D01*
X139302857Y-107962619D01*
X139350476Y-108057857D01*
X139398095Y-108248333D01*
X139398095Y-108486428D01*
X139350476Y-108676904D01*
X139302857Y-108772142D01*
X139255238Y-108819761D01*
X139160000Y-108867380D01*
X139064761Y-108867380D01*
X138969523Y-108819761D01*
X138921904Y-108772142D01*
X138874285Y-108676904D01*
X138826666Y-108486428D01*
X138826666Y-108248333D01*
X138874285Y-108057857D01*
X138921904Y-107962619D01*
X138969523Y-107915000D01*
X139064761Y-107867380D01*
X139779047Y-107962619D02*
X139826666Y-107915000D01*
X139921904Y-107867380D01*
X140160000Y-107867380D01*
X140255238Y-107915000D01*
X140302857Y-107962619D01*
X140350476Y-108057857D01*
X140350476Y-108153095D01*
X140302857Y-108295952D01*
X139731428Y-108867380D01*
X140350476Y-108867380D01*
X140731428Y-108581666D02*
X141207619Y-108581666D01*
X140636190Y-108867380D02*
X140969523Y-107867380D01*
X141302857Y-108867380D01*
X135493333Y-110477380D02*
X135493333Y-109477380D01*
X135826666Y-110191666D01*
X136160000Y-109477380D01*
X136160000Y-110477380D01*
X137112380Y-110477380D02*
X136636190Y-110477380D01*
X136636190Y-109477380D01*
X137398095Y-110191666D02*
X137874285Y-110191666D01*
X137302857Y-110477380D02*
X137636190Y-109477380D01*
X137969523Y-110477380D01*
X138636190Y-109953571D02*
X138779047Y-110001190D01*
X138826666Y-110048809D01*
X138874285Y-110144047D01*
X138874285Y-110286904D01*
X138826666Y-110382142D01*
X138779047Y-110429761D01*
X138683809Y-110477380D01*
X138302857Y-110477380D01*
X138302857Y-109477380D01*
X138636190Y-109477380D01*
X138731428Y-109525000D01*
X138779047Y-109572619D01*
X138826666Y-109667857D01*
X138826666Y-109763095D01*
X138779047Y-109858333D01*
X138731428Y-109905952D01*
X138636190Y-109953571D01*
X138302857Y-109953571D01*
X122015333Y-97097904D02*
X122282000Y-97897904D01*
X122548666Y-97097904D01*
X122815333Y-97897904D02*
X122815333Y-97097904D01*
X123005809Y-97097904D01*
X123120095Y-97136000D01*
X123196285Y-97212190D01*
X123234380Y-97288380D01*
X123272476Y-97440761D01*
X123272476Y-97555047D01*
X123234380Y-97707428D01*
X123196285Y-97783619D01*
X123120095Y-97859809D01*
X123005809Y-97897904D01*
X122815333Y-97897904D01*
X122224857Y-104247904D02*
X122224857Y-103447904D01*
X122491523Y-104019333D01*
X122758190Y-103447904D01*
X122758190Y-104247904D01*
X123139142Y-104247904D02*
X123139142Y-103447904D01*
X138290571Y-111613904D02*
X138290571Y-110813904D01*
X138633428Y-110890095D02*
X138671523Y-110852000D01*
X138747714Y-110813904D01*
X138938190Y-110813904D01*
X139014380Y-110852000D01*
X139052476Y-110890095D01*
X139090571Y-110966285D01*
X139090571Y-111042476D01*
X139052476Y-111156761D01*
X138595333Y-111613904D01*
X139090571Y-111613904D01*
X139890571Y-111537714D02*
X139852476Y-111575809D01*
X139738190Y-111613904D01*
X139662000Y-111613904D01*
X139547714Y-111575809D01*
X139471523Y-111499619D01*
X139433428Y-111423428D01*
X139395333Y-111271047D01*
X139395333Y-111156761D01*
X139433428Y-111004380D01*
X139471523Y-110928190D01*
X139547714Y-110852000D01*
X139662000Y-110813904D01*
X139738190Y-110813904D01*
X139852476Y-110852000D01*
X139890571Y-110890095D01*
X140804857Y-110775809D02*
X140119142Y-111804380D01*
X141033428Y-111575809D02*
X141147714Y-111613904D01*
X141338190Y-111613904D01*
X141414380Y-111575809D01*
X141452476Y-111537714D01*
X141490571Y-111461523D01*
X141490571Y-111385333D01*
X141452476Y-111309142D01*
X141414380Y-111271047D01*
X141338190Y-111232952D01*
X141185809Y-111194857D01*
X141109619Y-111156761D01*
X141071523Y-111118666D01*
X141033428Y-111042476D01*
X141033428Y-110966285D01*
X141071523Y-110890095D01*
X141109619Y-110852000D01*
X141185809Y-110813904D01*
X141376285Y-110813904D01*
X141490571Y-110852000D01*
X141833428Y-111613904D02*
X141833428Y-110813904D01*
X142138190Y-110813904D01*
X142214380Y-110852000D01*
X142252476Y-110890095D01*
X142290571Y-110966285D01*
X142290571Y-111080571D01*
X142252476Y-111156761D01*
X142214380Y-111194857D01*
X142138190Y-111232952D01*
X141833428Y-111232952D01*
X142633428Y-111613904D02*
X142633428Y-110813904D01*
D11*
%TO.C,J3*%
X148575857Y-109222190D02*
X148290142Y-109222190D01*
X148433000Y-109222190D02*
X148433000Y-108722190D01*
X148385380Y-108793619D01*
X148337761Y-108841238D01*
X148290142Y-108865047D01*
%TO.C,J2*%
X121005262Y-103362142D02*
X121005262Y-103647857D01*
X121005262Y-103505000D02*
X120505262Y-103505000D01*
X120576691Y-103552619D01*
X120624310Y-103600238D01*
X120648119Y-103647857D01*
D10*
%TO.C,JP3*%
X136378666Y-113498380D02*
X136997714Y-113498380D01*
X136664380Y-113879333D01*
X136807238Y-113879333D01*
X136902476Y-113926952D01*
X136950095Y-113974571D01*
X136997714Y-114069809D01*
X136997714Y-114307904D01*
X136950095Y-114403142D01*
X136902476Y-114450761D01*
X136807238Y-114498380D01*
X136521523Y-114498380D01*
X136426285Y-114450761D01*
X136378666Y-114403142D01*
X131797714Y-114498380D02*
X131226285Y-114498380D01*
X131512000Y-114498380D02*
X131512000Y-113498380D01*
X131416761Y-113641238D01*
X131321523Y-113736476D01*
X131226285Y-113784095D01*
%TO.C,JP1*%
X138147714Y-114498380D02*
X137576285Y-114498380D01*
X137862000Y-114498380D02*
X137862000Y-113498380D01*
X137766761Y-113641238D01*
X137671523Y-113736476D01*
X137576285Y-113784095D01*
X142728666Y-113498380D02*
X143347714Y-113498380D01*
X143014380Y-113879333D01*
X143157238Y-113879333D01*
X143252476Y-113926952D01*
X143300095Y-113974571D01*
X143347714Y-114069809D01*
X143347714Y-114307904D01*
X143300095Y-114403142D01*
X143252476Y-114450761D01*
X143157238Y-114498380D01*
X142871523Y-114498380D01*
X142776285Y-114450761D01*
X142728666Y-114403142D01*
D11*
%TO.C,J1*%
X129766190Y-109712142D02*
X129766190Y-109997857D01*
X129766190Y-109855000D02*
X129266190Y-109855000D01*
X129337619Y-109902619D01*
X129385238Y-109950238D01*
X129409047Y-109997857D01*
D10*
%TO.C,J3*%
X130048000Y-98044000D02*
X142748000Y-98044000D01*
X130048000Y-103124000D02*
X130048000Y-98044000D01*
X142748000Y-98044000D02*
X142748000Y-103124000D01*
X142748000Y-103124000D02*
X130048000Y-103124000D01*
%TO.C,J2*%
X129032000Y-103124000D02*
X121412000Y-103124000D01*
X129032000Y-98044000D02*
X129032000Y-103124000D01*
X121412000Y-103124000D02*
X121412000Y-98044000D01*
X121412000Y-98044000D02*
X129032000Y-98044000D01*
D12*
%TO.C,JP3*%
X132062000Y-114346000D02*
X132062000Y-113746000D01*
X135512000Y-115046000D02*
X132712000Y-115046000D01*
X132712000Y-113046000D02*
X135512000Y-113046000D01*
X136162000Y-113746000D02*
X136162000Y-114346000D01*
X132062000Y-114346000D02*
G75*
G03*
X132762000Y-115046000I699999J-1D01*
G01*
X135462000Y-115046000D02*
G75*
G03*
X136162000Y-114346000I0J700000D01*
G01*
X136162000Y-113746000D02*
G75*
G03*
X135462000Y-113046000I-700000J0D01*
G01*
X132762000Y-113046000D02*
G75*
G03*
X132062000Y-113746000I-1J-699999D01*
G01*
%TO.C,JP1*%
X138412000Y-114346000D02*
X138412000Y-113746000D01*
X141862000Y-115046000D02*
X139062000Y-115046000D01*
X142512000Y-113746000D02*
X142512000Y-114346000D01*
X139062000Y-113046000D02*
X141862000Y-113046000D01*
X139112000Y-113046000D02*
G75*
G03*
X138412000Y-113746000I-1J-699999D01*
G01*
X141812000Y-115046000D02*
G75*
G03*
X142512000Y-114346000I0J700000D01*
G01*
X142512000Y-113746000D02*
G75*
G03*
X141812000Y-113046000I-700000J0D01*
G01*
X138412000Y-114346000D02*
G75*
G03*
X139112000Y-115046000I699999J-1D01*
G01*
D10*
%TO.C,J1*%
X123190000Y-110236000D02*
X130810000Y-110236000D01*
X130810000Y-110236000D02*
X130810000Y-115316000D01*
X123190000Y-115316000D02*
X123190000Y-110236000D01*
X130810000Y-115316000D02*
X123190000Y-115316000D01*
%TD*%
D13*
%TO.C,J3*%
X141478000Y-99314000D03*
X141478000Y-101854000D03*
X138938000Y-99314000D03*
X138938000Y-101854000D03*
X136398000Y-99314000D03*
X136398000Y-101854000D03*
X133858000Y-99314000D03*
X133858000Y-101854000D03*
X131318000Y-99314000D03*
X131318000Y-101854000D03*
%TD*%
M02*
