<?xml version='1.0' encoding='ASCII' standalone='yes'?>
<svg xmlns:svg="http://www.w3.org/2000/svg" xmlns="http://www.w3.org/2000/svg" xmlns:xlink="http://www.w3.org/1999/xlink" version="1.1" width="297.0022mm" height="210.0072mm" viewBox="0.0000 0.0000 297.0022 210.0072">
<title>SVG Image created as ALTIMET02-B_Fab.svg date 2023/09/20 18:23:53 </title>
  <desc>Image generated by PCBNEW </desc>
<g style="fill:#000084; fill-opacity:1.0000;stroke:#000084; stroke-opacity:1.0000; stroke-linecap:round; stroke-linejoin:round;" transform="translate(0 0) scale(1 1)">
</g>
<g style="fill:#000084; fill-opacity:0.0;  stroke:#000084; stroke-width:0.0000; stroke-opacity:1;  stroke-linecap:round; stroke-linejoin:round;">
</g>
<g style="fill:#000084; fill-opacity:0.01;  stroke:#000084; stroke-width:1.1066; stroke-opacity:1;  stroke-linecap:round; stroke-linejoin:round;">
<text x="193.7420" y="102.3773" transform="scale(-1 1) translate(-387.483954 0)" textLength="21.8682" font-size="9.8363" lengthAdjust="spacingAndGlyphs" text-anchor="middle" opacity="0.01" style="font-family:monospace">5k1</text>
<g class="stroked-text"><desc>5k1</desc>
<path d="M198.4845 94.6668 L201.9974 94.6668 "/>
<path d="M201.9974 94.6668 L202.3487 98.1797 "/>
<path d="M202.3487 98.1797 L201.9974 97.8284 "/>
<path d="M201.9974 97.8284 L201.2949 97.4771 "/>
<path d="M201.2949 97.4771 L199.5384 97.4771 "/>
<path d="M199.5384 97.4771 L198.8358 97.8284 "/>
<path d="M198.8358 97.8284 L198.4845 98.1797 "/>
<path d="M198.4845 98.1797 L198.1332 98.8823 "/>
<path d="M198.1332 98.8823 L198.1332 100.6388 "/>
<path d="M198.1332 100.6388 L198.4845 101.3414 "/>
<path d="M198.4845 101.3414 L198.8358 101.6927 "/>
<path d="M198.8358 101.6927 L199.5384 102.0440 "/>
<path d="M199.5384 102.0440 L201.2949 102.0440 "/>
<path d="M201.2949 102.0440 L201.9974 101.6927 "/>
<path d="M201.9974 101.6927 L202.3487 101.3414 "/>
<path d="M194.9715 102.0440 L194.9715 94.6668 "/>
<path d="M194.2689 99.2336 L192.1611 102.0440 "/>
<path d="M192.1611 97.1258 L194.9715 99.9362 "/>
<path d="M185.1352 102.0440 L189.3508 102.0440 "/>
<path d="M187.2430 102.0440 L187.2430 94.6668 "/>
<path d="M187.2430 94.6668 L187.9456 95.7207 "/>
<path d="M187.9456 95.7207 L188.6482 96.4232 "/>
<path d="M188.6482 96.4232 L189.3508 96.7745 "/>
</g></g>
<g style="fill:#000084; fill-opacity:0.01;  stroke:#000084; stroke-width:0.5902; stroke-opacity:1;  stroke-linecap:round; stroke-linejoin:round;">
<text x="193.7420" y="89.2901" transform="scale(-1 1) translate(-387.483954 0)" textLength="8.2344" font-size="4.9182" lengthAdjust="spacingAndGlyphs" text-anchor="middle" opacity="0.01" style="font-family:monospace">R1</text>
<g class="stroked-text"><desc>R1</desc>
<path d="M194.3567 89.1215 L195.5863 87.3650 "/>
<path d="M196.4645 89.1215 L196.4645 85.4329 "/>
<path d="M196.4645 85.4329 L195.0593 85.4329 "/>
<path d="M195.0593 85.4329 L194.7080 85.6086 "/>
<path d="M194.7080 85.6086 L194.5324 85.7842 "/>
<path d="M194.5324 85.7842 L194.3567 86.1355 "/>
<path d="M194.3567 86.1355 L194.3567 86.6624 "/>
<path d="M194.3567 86.6624 L194.5324 87.0137 "/>
<path d="M194.5324 87.0137 L194.7080 87.1894 "/>
<path d="M194.7080 87.1894 L195.0593 87.3650 "/>
<path d="M195.0593 87.3650 L196.4645 87.3650 "/>
<path d="M190.8438 89.1215 L192.9516 89.1215 "/>
<path d="M191.8977 89.1215 L191.8977 85.4329 "/>
<path d="M191.8977 85.4329 L192.2490 85.9599 "/>
<path d="M192.2490 85.9599 L192.6003 86.3111 "/>
<path d="M192.6003 86.3111 L192.9516 86.4868 "/>
</g></g>
<g style="fill:#000084; fill-opacity:0.0;  stroke:#000084; stroke-width:1.1066; stroke-opacity:1;  stroke-linecap:round; stroke-linejoin:round;">
<g transform="rotate(-90.000000 167.7011 119.2564)">
<text x="167.7011" y="122.9450" transform="scale(-1 1) translate(-335.402169 0)" textLength="35.9201" font-size="9.8363" lengthAdjust="spacingAndGlyphs" text-anchor="middle" opacity="0.01" style="font-family:monospace">100nF</text>
</g>
<g class="stroked-text"><desc>100nF</desc>
<path d="M171.0564 107.8393 L171.0564 103.6237 "/>
<path d="M171.0564 105.7315 L163.6792 105.7315 "/>
<path d="M163.6792 105.7315 L164.7330 105.0289 "/>
<path d="M164.7330 105.0289 L165.4356 104.3263 "/>
<path d="M165.4356 104.3263 L165.7869 103.6237 "/>
<path d="M163.6792 112.4061 L163.6792 113.1087 "/>
<path d="M163.6792 113.1087 L164.0305 113.8113 "/>
<path d="M164.0305 113.8113 L164.3818 114.1626 "/>
<path d="M164.3818 114.1626 L165.0843 114.5139 "/>
<path d="M165.0843 114.5139 L166.4895 114.8652 "/>
<path d="M166.4895 114.8652 L168.2460 114.8652 "/>
<path d="M168.2460 114.8652 L169.6512 114.5139 "/>
<path d="M169.6512 114.5139 L170.3538 114.1626 "/>
<path d="M170.3538 114.1626 L170.7051 113.8113 "/>
<path d="M170.7051 113.8113 L171.0564 113.1087 "/>
<path d="M171.0564 113.1087 L171.0564 112.4061 "/>
<path d="M171.0564 112.4061 L170.7051 111.7035 "/>
<path d="M170.7051 111.7035 L170.3538 111.3522 "/>
<path d="M170.3538 111.3522 L169.6512 111.0009 "/>
<path d="M169.6512 111.0009 L168.2460 110.6496 "/>
<path d="M168.2460 110.6496 L166.4895 110.6496 "/>
<path d="M166.4895 110.6496 L165.0843 111.0009 "/>
<path d="M165.0843 111.0009 L164.3818 111.3522 "/>
<path d="M164.3818 111.3522 L164.0305 111.7035 "/>
<path d="M164.0305 111.7035 L163.6792 112.4061 "/>
<path d="M163.6792 119.4321 L163.6792 120.1347 "/>
<path d="M163.6792 120.1347 L164.0305 120.8372 "/>
<path d="M164.0305 120.8372 L164.3818 121.1885 "/>
<path d="M164.3818 121.1885 L165.0843 121.5398 "/>
<path d="M165.0843 121.5398 L166.4895 121.8911 "/>
<path d="M166.4895 121.8911 L168.2460 121.8911 "/>
<path d="M168.2460 121.8911 L169.6512 121.5398 "/>
<path d="M169.6512 121.5398 L170.3538 121.1885 "/>
<path d="M170.3538 121.1885 L170.7051 120.8372 "/>
<path d="M170.7051 120.8372 L171.0564 120.1347 "/>
<path d="M171.0564 120.1347 L171.0564 119.4321 "/>
<path d="M171.0564 119.4321 L170.7051 118.7295 "/>
<path d="M170.7051 118.7295 L170.3538 118.3782 "/>
<path d="M170.3538 118.3782 L169.6512 118.0269 "/>
<path d="M169.6512 118.0269 L168.2460 117.6756 "/>
<path d="M168.2460 117.6756 L166.4895 117.6756 "/>
<path d="M166.4895 117.6756 L165.0843 118.0269 "/>
<path d="M165.0843 118.0269 L164.3818 118.3782 "/>
<path d="M164.3818 118.3782 L164.0305 118.7295 "/>
<path d="M164.0305 118.7295 L163.6792 119.4321 "/>
<path d="M166.1382 125.0528 L171.0564 125.0528 "/>
<path d="M166.8408 125.0528 L166.4895 125.4041 "/>
<path d="M166.4895 125.4041 L166.1382 126.1067 "/>
<path d="M166.1382 126.1067 L166.1382 127.1606 "/>
<path d="M166.1382 127.1606 L166.4895 127.8632 "/>
<path d="M166.4895 127.8632 L167.1921 128.2145 "/>
<path d="M167.1921 128.2145 L171.0564 128.2145 "/>
<path d="M167.1921 134.1865 L167.1921 131.7274 "/>
<path d="M171.0564 131.7274 L163.6792 131.7274 "/>
<path d="M163.6792 131.7274 L163.6792 135.2404 "/>
</g></g>
<g style="fill:#000084; fill-opacity:0.0;  stroke:#000084; stroke-width:0.5902; stroke-opacity:1;  stroke-linecap:round; stroke-linejoin:round;">
<g transform="rotate(-90.000000 180.0948 119.2564)">
<text x="180.0948" y="121.1007" transform="scale(-1 1) translate(-360.189670 0)" textLength="8.2344" font-size="4.9182" lengthAdjust="spacingAndGlyphs" text-anchor="middle" opacity="0.01" style="font-family:monospace">C2</text>
</g>
<g class="stroked-text"><desc>C2</desc>
<path d="M181.4193 118.6416 L181.5949 118.4660 "/>
<path d="M181.5949 118.4660 L181.7706 117.9390 "/>
<path d="M181.7706 117.9390 L181.7706 117.5878 "/>
<path d="M181.7706 117.5878 L181.5949 117.0608 "/>
<path d="M181.5949 117.0608 L181.2436 116.7095 "/>
<path d="M181.2436 116.7095 L180.8923 116.5339 "/>
<path d="M180.8923 116.5339 L180.1897 116.3582 "/>
<path d="M180.1897 116.3582 L179.6628 116.3582 "/>
<path d="M179.6628 116.3582 L178.9602 116.5339 "/>
<path d="M178.9602 116.5339 L178.6089 116.7095 "/>
<path d="M178.6089 116.7095 L178.2576 117.0608 "/>
<path d="M178.2576 117.0608 L178.0819 117.5878 "/>
<path d="M178.0819 117.5878 L178.0819 117.9390 "/>
<path d="M178.0819 117.9390 L178.2576 118.4660 "/>
<path d="M178.2576 118.4660 L178.4332 118.6416 "/>
<path d="M178.4332 120.0468 L178.2576 120.2225 "/>
<path d="M178.2576 120.2225 L178.0819 120.5738 "/>
<path d="M178.0819 120.5738 L178.0819 121.4520 "/>
<path d="M178.0819 121.4520 L178.2576 121.8033 "/>
<path d="M178.2576 121.8033 L178.4332 121.9790 "/>
<path d="M178.4332 121.9790 L178.7845 122.1546 "/>
<path d="M178.7845 122.1546 L179.1358 122.1546 "/>
<path d="M179.1358 122.1546 L179.6628 121.9790 "/>
<path d="M179.6628 121.9790 L181.7706 119.8712 "/>
<path d="M181.7706 119.8712 L181.7706 122.1546 "/>
</g></g>
<g style="fill:#000084; fill-opacity:0.0;  stroke:#000084; stroke-width:1.1066; stroke-opacity:1;  stroke-linecap:round; stroke-linejoin:round;">
<g transform="rotate(-90.000000 105.8341 115.6445)">
<text x="105.8341" y="119.3331" transform="scale(-1 1) translate(-211.668276 0)" textLength="82.2913" font-size="9.8363" lengthAdjust="spacingAndGlyphs" text-anchor="middle" opacity="0.01" style="font-family:monospace">MS5611-01BA</text>
</g>
<g class="stroked-text"><desc>MS5611-01BA</desc>
<path d="M109.1894 77.1775 L101.8122 77.1775 "/>
<path d="M101.8122 77.1775 L107.0817 79.6366 "/>
<path d="M107.0817 79.6366 L101.8122 82.0957 "/>
<path d="M101.8122 82.0957 L109.1894 82.0957 "/>
<path d="M108.8381 85.2573 L109.1894 86.3112 "/>
<path d="M109.1894 86.3112 L109.1894 88.0677 "/>
<path d="M109.1894 88.0677 L108.8381 88.7703 "/>
<path d="M108.8381 88.7703 L108.4868 89.1216 "/>
<path d="M108.4868 89.1216 L107.7843 89.4729 "/>
<path d="M107.7843 89.4729 L107.0817 89.4729 "/>
<path d="M107.0817 89.4729 L106.3791 89.1216 "/>
<path d="M106.3791 89.1216 L106.0278 88.7703 "/>
<path d="M106.0278 88.7703 L105.6765 88.0677 "/>
<path d="M105.6765 88.0677 L105.3252 86.6625 "/>
<path d="M105.3252 86.6625 L104.9739 85.9599 "/>
<path d="M104.9739 85.9599 L104.6226 85.6086 "/>
<path d="M104.6226 85.6086 L103.9200 85.2573 "/>
<path d="M103.9200 85.2573 L103.2174 85.2573 "/>
<path d="M103.2174 85.2573 L102.5148 85.6086 "/>
<path d="M102.5148 85.6086 L102.1635 85.9599 "/>
<path d="M102.1635 85.9599 L101.8122 86.6625 "/>
<path d="M101.8122 86.6625 L101.8122 88.4190 "/>
<path d="M101.8122 88.4190 L102.1635 89.4729 "/>
<path d="M101.8122 96.1475 L101.8122 92.6346 "/>
<path d="M101.8122 92.6346 L105.3252 92.2833 "/>
<path d="M105.3252 92.2833 L104.9739 92.6346 "/>
<path d="M104.9739 92.6346 L104.6226 93.3372 "/>
<path d="M104.6226 93.3372 L104.6226 95.0937 "/>
<path d="M104.6226 95.0937 L104.9739 95.7962 "/>
<path d="M104.9739 95.7962 L105.3252 96.1475 "/>
<path d="M105.3252 96.1475 L106.0278 96.4988 "/>
<path d="M106.0278 96.4988 L107.7843 96.4988 "/>
<path d="M107.7843 96.4988 L108.4868 96.1475 "/>
<path d="M108.4868 96.1475 L108.8381 95.7962 "/>
<path d="M108.8381 95.7962 L109.1894 95.0937 "/>
<path d="M109.1894 95.0937 L109.1894 93.3372 "/>
<path d="M109.1894 93.3372 L108.8381 92.6346 "/>
<path d="M108.8381 92.6346 L108.4868 92.2833 "/>
<path d="M101.8122 102.8222 L101.8122 101.4170 "/>
<path d="M101.8122 101.4170 L102.1635 100.7144 "/>
<path d="M102.1635 100.7144 L102.5148 100.3631 "/>
<path d="M102.5148 100.3631 L103.5687 99.6605 "/>
<path d="M103.5687 99.6605 L104.9739 99.3092 "/>
<path d="M104.9739 99.3092 L107.7843 99.3092 "/>
<path d="M107.7843 99.3092 L108.4868 99.6605 "/>
<path d="M108.4868 99.6605 L108.8381 100.0118 "/>
<path d="M108.8381 100.0118 L109.1894 100.7144 "/>
<path d="M109.1894 100.7144 L109.1894 102.1196 "/>
<path d="M109.1894 102.1196 L108.8381 102.8222 "/>
<path d="M108.8381 102.8222 L108.4868 103.1735 "/>
<path d="M108.4868 103.1735 L107.7843 103.5248 "/>
<path d="M107.7843 103.5248 L106.0278 103.5248 "/>
<path d="M106.0278 103.5248 L105.3252 103.1735 "/>
<path d="M105.3252 103.1735 L104.9739 102.8222 "/>
<path d="M104.9739 102.8222 L104.6226 102.1196 "/>
<path d="M104.6226 102.1196 L104.6226 100.7144 "/>
<path d="M104.6226 100.7144 L104.9739 100.0118 "/>
<path d="M104.9739 100.0118 L105.3252 99.6605 "/>
<path d="M105.3252 99.6605 L106.0278 99.3092 "/>
<path d="M109.1894 110.5507 L109.1894 106.3352 "/>
<path d="M109.1894 108.4429 L101.8122 108.4429 "/>
<path d="M101.8122 108.4429 L102.8661 107.7403 "/>
<path d="M102.8661 107.7403 L103.5687 107.0377 "/>
<path d="M103.5687 107.0377 L103.9200 106.3352 "/>
<path d="M109.1894 117.5766 L109.1894 113.3611 "/>
<path d="M109.1894 115.4689 L101.8122 115.4689 "/>
<path d="M101.8122 115.4689 L102.8661 114.7663 "/>
<path d="M102.8661 114.7663 L103.5687 114.0637 "/>
<path d="M103.5687 114.0637 L103.9200 113.3611 "/>
<path d="M106.3791 120.7383 L106.3791 126.3591 "/>
<path d="M101.8122 131.2772 L101.8122 131.9798 "/>
<path d="M101.8122 131.9798 L102.1635 132.6824 "/>
<path d="M102.1635 132.6824 L102.5148 133.0337 "/>
<path d="M102.5148 133.0337 L103.2174 133.3850 "/>
<path d="M103.2174 133.3850 L104.6226 133.7363 "/>
<path d="M104.6226 133.7363 L106.3791 133.7363 "/>
<path d="M106.3791 133.7363 L107.7843 133.3850 "/>
<path d="M107.7843 133.3850 L108.4868 133.0337 "/>
<path d="M108.4868 133.0337 L108.8381 132.6824 "/>
<path d="M108.8381 132.6824 L109.1894 131.9798 "/>
<path d="M109.1894 131.9798 L109.1894 131.2772 "/>
<path d="M109.1894 131.2772 L108.8381 130.5746 "/>
<path d="M108.8381 130.5746 L108.4868 130.2233 "/>
<path d="M108.4868 130.2233 L107.7843 129.8720 "/>
<path d="M107.7843 129.8720 L106.3791 129.5207 "/>
<path d="M106.3791 129.5207 L104.6226 129.5207 "/>
<path d="M104.6226 129.5207 L103.2174 129.8720 "/>
<path d="M103.2174 129.8720 L102.5148 130.2233 "/>
<path d="M102.5148 130.2233 L102.1635 130.5746 "/>
<path d="M102.1635 130.5746 L101.8122 131.2772 "/>
<path d="M109.1894 140.7622 L109.1894 136.5467 "/>
<path d="M109.1894 138.6545 L101.8122 138.6545 "/>
<path d="M101.8122 138.6545 L102.8661 137.9519 "/>
<path d="M102.8661 137.9519 L103.5687 137.2493 "/>
<path d="M103.5687 137.2493 L103.9200 136.5467 "/>
<path d="M105.3252 146.3830 L105.6765 147.4369 "/>
<path d="M105.6765 147.4369 L106.0278 147.7882 "/>
<path d="M106.0278 147.7882 L106.7304 148.1395 "/>
<path d="M106.7304 148.1395 L107.7843 148.1395 "/>
<path d="M107.7843 148.1395 L108.4868 147.7882 "/>
<path d="M108.4868 147.7882 L108.8381 147.4369 "/>
<path d="M108.8381 147.4369 L109.1894 146.7343 "/>
<path d="M109.1894 146.7343 L109.1894 143.9239 "/>
<path d="M109.1894 143.9239 L101.8122 143.9239 "/>
<path d="M101.8122 143.9239 L101.8122 146.3830 "/>
<path d="M101.8122 146.3830 L102.1635 147.0856 "/>
<path d="M102.1635 147.0856 L102.5148 147.4369 "/>
<path d="M102.5148 147.4369 L103.2174 147.7882 "/>
<path d="M103.2174 147.7882 L103.9200 147.7882 "/>
<path d="M103.9200 147.7882 L104.6226 147.4369 "/>
<path d="M104.6226 147.4369 L104.9739 147.0856 "/>
<path d="M104.9739 147.0856 L105.3252 146.3830 "/>
<path d="M105.3252 146.3830 L105.3252 143.9239 "/>
<path d="M107.0817 150.9498 L107.0817 154.4628 "/>
<path d="M109.1894 150.2473 L101.8122 152.7063 "/>
<path d="M101.8122 152.7063 L109.1894 155.1654 "/>
</g></g>
<g style="fill:#000084; fill-opacity:0.0;  stroke:#000084; stroke-width:0.5533; stroke-opacity:1;  stroke-linecap:round; stroke-linejoin:round;">
<g transform="rotate(-90.000000 132.7610 115.6445)">
<text x="132.7610" y="117.4888" transform="scale(-1 1) translate(-265.522072 0)" textLength="8.2994" font-size="4.9182" lengthAdjust="spacingAndGlyphs" text-anchor="middle" opacity="0.01" style="font-family:monospace">U1</text>
</g>
<g class="stroked-text"><desc>U1</desc>
<path d="M130.7501 112.8341 L133.7361 112.8341 "/>
<path d="M133.7361 112.8341 L134.0874 113.0098 "/>
<path d="M134.0874 113.0098 L134.2630 113.1854 "/>
<path d="M134.2630 113.1854 L134.4387 113.5367 "/>
<path d="M134.4387 113.5367 L134.4387 114.2393 "/>
<path d="M134.4387 114.2393 L134.2630 114.5906 "/>
<path d="M134.2630 114.5906 L134.0874 114.7663 "/>
<path d="M134.0874 114.7663 L133.7361 114.9419 "/>
<path d="M133.7361 114.9419 L130.7501 114.9419 "/>
<path d="M134.4387 118.6305 L134.4387 116.5228 "/>
<path d="M134.4387 117.5767 L130.7501 117.5767 "/>
<path d="M130.7501 117.5767 L131.2770 117.2254 "/>
<path d="M131.2770 117.2254 L131.6283 116.8741 "/>
<path d="M131.6283 116.8741 L131.8040 116.5228 "/>
</g></g>
<g style="fill:#000084; fill-opacity:0.01;  stroke:#000084; stroke-width:1.1066; stroke-opacity:1;  stroke-linecap:round; stroke-linejoin:round;">
<text x="208.4042" y="106.3167" transform="scale(-1 1) translate(-416.808453 0)" textLength="105.1256" font-size="9.8363" lengthAdjust="spacingAndGlyphs" text-anchor="middle" opacity="0.01" style="font-family:monospace">BZT52H-C3V6,115</text>
<g class="stroked-text"><desc>BZT52H-C3V6,115</desc>
<path d="M255.8293 102.1192 L254.7754 102.4705 "/>
<path d="M254.7754 102.4705 L254.4241 102.8218 "/>
<path d="M254.4241 102.8218 L254.0728 103.5244 "/>
<path d="M254.0728 103.5244 L254.0728 104.5782 "/>
<path d="M254.0728 104.5782 L254.4241 105.2808 "/>
<path d="M254.4241 105.2808 L254.7754 105.6321 "/>
<path d="M254.7754 105.6321 L255.4780 105.9834 "/>
<path d="M255.4780 105.9834 L258.2884 105.9834 "/>
<path d="M258.2884 105.9834 L258.2884 98.6062 "/>
<path d="M258.2884 98.6062 L255.8293 98.6062 "/>
<path d="M255.8293 98.6062 L255.1267 98.9575 "/>
<path d="M255.1267 98.9575 L254.7754 99.3088 "/>
<path d="M254.7754 99.3088 L254.4241 100.0114 "/>
<path d="M254.4241 100.0114 L254.4241 100.7140 "/>
<path d="M254.4241 100.7140 L254.7754 101.4166 "/>
<path d="M254.7754 101.4166 L255.1267 101.7679 "/>
<path d="M255.1267 101.7679 L255.8293 102.1192 "/>
<path d="M255.8293 102.1192 L258.2884 102.1192 "/>
<path d="M251.6137 98.6062 L246.6956 98.6062 "/>
<path d="M246.6956 98.6062 L251.6137 105.9834 "/>
<path d="M251.6137 105.9834 L246.6956 105.9834 "/>
<path d="M244.9391 98.6062 L240.7235 98.6062 "/>
<path d="M242.8313 105.9834 L242.8313 98.6062 "/>
<path d="M234.7515 98.6062 L238.2644 98.6062 "/>
<path d="M238.2644 98.6062 L238.6157 102.1192 "/>
<path d="M238.6157 102.1192 L238.2644 101.7679 "/>
<path d="M238.2644 101.7679 L237.5619 101.4166 "/>
<path d="M237.5619 101.4166 L235.8054 101.4166 "/>
<path d="M235.8054 101.4166 L235.1028 101.7679 "/>
<path d="M235.1028 101.7679 L234.7515 102.1192 "/>
<path d="M234.7515 102.1192 L234.4002 102.8218 "/>
<path d="M234.4002 102.8218 L234.4002 104.5782 "/>
<path d="M234.4002 104.5782 L234.7515 105.2808 "/>
<path d="M234.7515 105.2808 L235.1028 105.6321 "/>
<path d="M235.1028 105.6321 L235.8054 105.9834 "/>
<path d="M235.8054 105.9834 L237.5619 105.9834 "/>
<path d="M237.5619 105.9834 L238.2644 105.6321 "/>
<path d="M238.2644 105.6321 L238.6157 105.2808 "/>
<path d="M231.5898 99.3088 L231.2385 98.9575 "/>
<path d="M231.2385 98.9575 L230.5359 98.6062 "/>
<path d="M230.5359 98.6062 L228.7794 98.6062 "/>
<path d="M228.7794 98.6062 L228.0768 98.9575 "/>
<path d="M228.0768 98.9575 L227.7255 99.3088 "/>
<path d="M227.7255 99.3088 L227.3742 100.0114 "/>
<path d="M227.3742 100.0114 L227.3742 100.7140 "/>
<path d="M227.3742 100.7140 L227.7255 101.7679 "/>
<path d="M227.7255 101.7679 L231.9411 105.9834 "/>
<path d="M231.9411 105.9834 L227.3742 105.9834 "/>
<path d="M224.2126 105.9834 L224.2126 98.6062 "/>
<path d="M224.2126 102.1192 L219.9970 102.1192 "/>
<path d="M219.9970 105.9834 L219.9970 98.6062 "/>
<path d="M216.4840 103.1731 L210.8633 103.1731 "/>
<path d="M203.1348 105.2808 L203.4861 105.6321 "/>
<path d="M203.4861 105.6321 L204.5400 105.9834 "/>
<path d="M204.5400 105.9834 L205.2426 105.9834 "/>
<path d="M205.2426 105.9834 L206.2964 105.6321 "/>
<path d="M206.2964 105.6321 L206.9990 104.9295 "/>
<path d="M206.9990 104.9295 L207.3503 104.2269 "/>
<path d="M207.3503 104.2269 L207.7016 102.8218 "/>
<path d="M207.7016 102.8218 L207.7016 101.7679 "/>
<path d="M207.7016 101.7679 L207.3503 100.3627 "/>
<path d="M207.3503 100.3627 L206.9990 99.6601 "/>
<path d="M206.9990 99.6601 L206.2964 98.9575 "/>
<path d="M206.2964 98.9575 L205.2426 98.6062 "/>
<path d="M205.2426 98.6062 L204.5400 98.6062 "/>
<path d="M204.5400 98.6062 L203.4861 98.9575 "/>
<path d="M203.4861 98.9575 L203.1348 99.3088 "/>
<path d="M200.6757 98.6062 L196.1088 98.6062 "/>
<path d="M196.1088 98.6062 L198.5679 101.4166 "/>
<path d="M198.5679 101.4166 L197.5140 101.4166 "/>
<path d="M197.5140 101.4166 L196.8114 101.7679 "/>
<path d="M196.8114 101.7679 L196.4601 102.1192 "/>
<path d="M196.4601 102.1192 L196.1088 102.8218 "/>
<path d="M196.1088 102.8218 L196.1088 104.5782 "/>
<path d="M196.1088 104.5782 L196.4601 105.2808 "/>
<path d="M196.4601 105.2808 L196.8114 105.6321 "/>
<path d="M196.8114 105.6321 L197.5140 105.9834 "/>
<path d="M197.5140 105.9834 L199.6218 105.9834 "/>
<path d="M199.6218 105.9834 L200.3244 105.6321 "/>
<path d="M200.3244 105.6321 L200.6757 105.2808 "/>
<path d="M194.0011 98.6062 L191.5420 105.9834 "/>
<path d="M191.5420 105.9834 L189.0829 98.6062 "/>
<path d="M183.4622 98.6062 L184.8673 98.6062 "/>
<path d="M184.8673 98.6062 L185.5699 98.9575 "/>
<path d="M185.5699 98.9575 L185.9212 99.3088 "/>
<path d="M185.9212 99.3088 L186.6238 100.3627 "/>
<path d="M186.6238 100.3627 L186.9751 101.7679 "/>
<path d="M186.9751 101.7679 L186.9751 104.5782 "/>
<path d="M186.9751 104.5782 L186.6238 105.2808 "/>
<path d="M186.6238 105.2808 L186.2725 105.6321 "/>
<path d="M186.2725 105.6321 L185.5699 105.9834 "/>
<path d="M185.5699 105.9834 L184.1647 105.9834 "/>
<path d="M184.1647 105.9834 L183.4622 105.6321 "/>
<path d="M183.4622 105.6321 L183.1109 105.2808 "/>
<path d="M183.1109 105.2808 L182.7596 104.5782 "/>
<path d="M182.7596 104.5782 L182.7596 102.8218 "/>
<path d="M182.7596 102.8218 L183.1109 102.1192 "/>
<path d="M183.1109 102.1192 L183.4622 101.7679 "/>
<path d="M183.4622 101.7679 L184.1647 101.4166 "/>
<path d="M184.1647 101.4166 L185.5699 101.4166 "/>
<path d="M185.5699 101.4166 L186.2725 101.7679 "/>
<path d="M186.2725 101.7679 L186.6238 102.1192 "/>
<path d="M186.6238 102.1192 L186.9751 102.8218 "/>
<path d="M179.2466 105.6321 L179.2466 105.9834 "/>
<path d="M179.2466 105.9834 L179.5979 106.6860 "/>
<path d="M179.5979 106.6860 L179.9492 107.0373 "/>
<path d="M172.2207 105.9834 L176.4362 105.9834 "/>
<path d="M174.3284 105.9834 L174.3284 98.6062 "/>
<path d="M174.3284 98.6062 L175.0310 99.6601 "/>
<path d="M175.0310 99.6601 L175.7336 100.3627 "/>
<path d="M175.7336 100.3627 L176.4362 100.7140 "/>
<path d="M165.1947 105.9834 L169.4103 105.9834 "/>
<path d="M167.3025 105.9834 L167.3025 98.6062 "/>
<path d="M167.3025 98.6062 L168.0051 99.6601 "/>
<path d="M168.0051 99.6601 L168.7077 100.3627 "/>
<path d="M168.7077 100.3627 L169.4103 100.7140 "/>
<path d="M158.5201 98.6062 L162.0330 98.6062 "/>
<path d="M162.0330 98.6062 L162.3843 102.1192 "/>
<path d="M162.3843 102.1192 L162.0330 101.7679 "/>
<path d="M162.0330 101.7679 L161.3305 101.4166 "/>
<path d="M161.3305 101.4166 L159.5740 101.4166 "/>
<path d="M159.5740 101.4166 L158.8714 101.7679 "/>
<path d="M158.8714 101.7679 L158.5201 102.1192 "/>
<path d="M158.5201 102.1192 L158.1688 102.8218 "/>
<path d="M158.1688 102.8218 L158.1688 104.5782 "/>
<path d="M158.1688 104.5782 L158.5201 105.2808 "/>
<path d="M158.5201 105.2808 L158.8714 105.6321 "/>
<path d="M158.8714 105.6321 L159.5740 105.9834 "/>
<path d="M159.5740 105.9834 L161.3305 105.9834 "/>
<path d="M161.3305 105.9834 L162.0330 105.6321 "/>
<path d="M162.0330 105.6321 L162.3843 105.2808 "/>
</g><text x="207.4673" y="135.8626" transform="scale(-1 1) translate(-414.934636 0)" textLength="16.2475" font-size="9.8363" lengthAdjust="spacingAndGlyphs" text-anchor="middle" opacity="0.01" style="font-family:monospace">D1</text>
<g class="stroked-text"><desc>D1</desc>
<path d="M212.9124 135.5293 L212.9124 128.1520 "/>
<path d="M212.9124 128.1520 L211.1559 128.1520 "/>
<path d="M211.1559 128.1520 L210.1020 128.5033 "/>
<path d="M210.1020 128.5033 L209.3994 129.2059 "/>
<path d="M209.3994 129.2059 L209.0481 129.9085 "/>
<path d="M209.0481 129.9085 L208.6969 131.3137 "/>
<path d="M208.6969 131.3137 L208.6969 132.3676 "/>
<path d="M208.6969 132.3676 L209.0481 133.7728 "/>
<path d="M209.0481 133.7728 L209.3994 134.4754 "/>
<path d="M209.3994 134.4754 L210.1020 135.1780 "/>
<path d="M210.1020 135.1780 L211.1559 135.5293 "/>
<path d="M211.1559 135.5293 L212.9124 135.5293 "/>
<path d="M201.6709 135.5293 L205.8865 135.5293 "/>
<path d="M203.7787 135.5293 L203.7787 128.1520 "/>
<path d="M203.7787 128.1520 L204.4813 129.2059 "/>
<path d="M204.4813 129.2059 L205.1839 129.9085 "/>
<path d="M205.1839 129.9085 L205.8865 130.2598 "/>
</g><text x="98.4835" y="133.1846" transform="scale(-1 1) translate(-196.966927 0)" textLength="45.4051" font-size="9.8363" lengthAdjust="spacingAndGlyphs" text-anchor="middle" opacity="0.01" style="font-family:monospace">Fiducial</text>
<g class="stroked-text"><desc>Fiducial</desc>
<path d="M116.0483 128.9871 L118.5074 128.9871 "/>
<path d="M118.5074 132.8513 L118.5074 125.4741 "/>
<path d="M118.5074 125.4741 L114.9944 125.4741 "/>
<path d="M112.1840 132.8513 L112.1840 127.9332 "/>
<path d="M112.1840 125.4741 L112.5353 125.8254 "/>
<path d="M112.5353 125.8254 L112.1840 126.1767 "/>
<path d="M112.1840 126.1767 L111.8327 125.8254 "/>
<path d="M111.8327 125.8254 L112.1840 125.4741 "/>
<path d="M112.1840 125.4741 L112.1840 126.1767 "/>
<path d="M105.5094 132.8513 L105.5094 125.4741 "/>
<path d="M105.5094 132.5000 L106.2120 132.8513 "/>
<path d="M106.2120 132.8513 L107.6172 132.8513 "/>
<path d="M107.6172 132.8513 L108.3198 132.5000 "/>
<path d="M108.3198 132.5000 L108.6711 132.1487 "/>
<path d="M108.6711 132.1487 L109.0224 131.4461 "/>
<path d="M109.0224 131.4461 L109.0224 129.3383 "/>
<path d="M109.0224 129.3383 L108.6711 128.6358 "/>
<path d="M108.6711 128.6358 L108.3198 128.2845 "/>
<path d="M108.3198 128.2845 L107.6172 127.9332 "/>
<path d="M107.6172 127.9332 L106.2120 127.9332 "/>
<path d="M106.2120 127.9332 L105.5094 128.2845 "/>
<path d="M98.8348 127.9332 L98.8348 132.8513 "/>
<path d="M101.9964 127.9332 L101.9964 131.7974 "/>
<path d="M101.9964 131.7974 L101.6451 132.5000 "/>
<path d="M101.6451 132.5000 L100.9425 132.8513 "/>
<path d="M100.9425 132.8513 L99.8886 132.8513 "/>
<path d="M99.8886 132.8513 L99.1861 132.5000 "/>
<path d="M99.1861 132.5000 L98.8348 132.1487 "/>
<path d="M92.1601 132.5000 L92.8627 132.8513 "/>
<path d="M92.8627 132.8513 L94.2679 132.8513 "/>
<path d="M94.2679 132.8513 L94.9705 132.5000 "/>
<path d="M94.9705 132.5000 L95.3218 132.1487 "/>
<path d="M95.3218 132.1487 L95.6731 131.4461 "/>
<path d="M95.6731 131.4461 L95.6731 129.3383 "/>
<path d="M95.6731 129.3383 L95.3218 128.6358 "/>
<path d="M95.3218 128.6358 L94.9705 128.2845 "/>
<path d="M94.9705 128.2845 L94.2679 127.9332 "/>
<path d="M94.2679 127.9332 L92.8627 127.9332 "/>
<path d="M92.8627 127.9332 L92.1601 128.2845 "/>
<path d="M88.9984 132.8513 L88.9984 127.9332 "/>
<path d="M88.9984 125.4741 L89.3497 125.8254 "/>
<path d="M89.3497 125.8254 L88.9984 126.1767 "/>
<path d="M88.9984 126.1767 L88.6471 125.8254 "/>
<path d="M88.6471 125.8254 L88.9984 125.4741 "/>
<path d="M88.9984 125.4741 L88.9984 126.1767 "/>
<path d="M82.3238 132.8513 L82.3238 128.9871 "/>
<path d="M82.3238 128.9871 L82.6751 128.2845 "/>
<path d="M82.6751 128.2845 L83.3777 127.9332 "/>
<path d="M83.3777 127.9332 L84.7829 127.9332 "/>
<path d="M84.7829 127.9332 L85.4855 128.2845 "/>
<path d="M82.3238 132.5000 L83.0264 132.8513 "/>
<path d="M83.0264 132.8513 L84.7829 132.8513 "/>
<path d="M84.7829 132.8513 L85.4855 132.5000 "/>
<path d="M85.4855 132.5000 L85.8368 131.7974 "/>
<path d="M85.8368 131.7974 L85.8368 131.0948 "/>
<path d="M85.8368 131.0948 L85.4855 130.3922 "/>
<path d="M85.4855 130.3922 L84.7829 130.0409 "/>
<path d="M84.7829 130.0409 L83.0264 130.0409 "/>
<path d="M83.0264 130.0409 L82.3238 129.6896 "/>
<path d="M77.7570 132.8513 L78.4595 132.5000 "/>
<path d="M78.4595 132.5000 L78.8108 131.7974 "/>
<path d="M78.8108 131.7974 L78.8108 125.4741 "/>
</g></g>
<g style="fill:#000084; fill-opacity:0.01;  stroke:#000084; stroke-width:0.4426; stroke-opacity:1;  stroke-linecap:round; stroke-linejoin:round;">
<text x="98.4835" y="116.2170" transform="scale(-1 1) translate(-196.966927 0)" textLength="10.4335" font-size="3.9345" lengthAdjust="spacingAndGlyphs" text-anchor="middle" opacity="0.01" style="font-family:monospace">FID2</text>
<g class="stroked-text"><desc>FID2</desc>
<path d="M101.6451 114.5380 L102.6288 114.5380 "/>
<path d="M102.6288 116.0837 L102.6288 113.1328 "/>
<path d="M102.6288 113.1328 L101.2236 113.1328 "/>
<path d="M100.0994 116.0837 L100.0994 113.1328 "/>
<path d="M98.6942 116.0837 L98.6942 113.1328 "/>
<path d="M98.6942 113.1328 L97.9916 113.1328 "/>
<path d="M97.9916 113.1328 L97.5701 113.2733 "/>
<path d="M97.5701 113.2733 L97.2890 113.5543 "/>
<path d="M97.2890 113.5543 L97.1485 113.8354 "/>
<path d="M97.1485 113.8354 L97.0080 114.3974 "/>
<path d="M97.0080 114.3974 L97.0080 114.8190 "/>
<path d="M97.0080 114.8190 L97.1485 115.3811 "/>
<path d="M97.1485 115.3811 L97.2890 115.6621 "/>
<path d="M97.2890 115.6621 L97.5701 115.9432 "/>
<path d="M97.5701 115.9432 L97.9916 116.0837 "/>
<path d="M97.9916 116.0837 L98.6942 116.0837 "/>
<path d="M95.8839 113.4138 L95.7433 113.2733 "/>
<path d="M95.7433 113.2733 L95.4623 113.1328 "/>
<path d="M95.4623 113.1328 L94.7597 113.1328 "/>
<path d="M94.7597 113.1328 L94.4787 113.2733 "/>
<path d="M94.4787 113.2733 L94.3382 113.4138 "/>
<path d="M94.3382 113.4138 L94.1976 113.6949 "/>
<path d="M94.1976 113.6949 L94.1976 113.9759 "/>
<path d="M94.1976 113.9759 L94.3382 114.3974 "/>
<path d="M94.3382 114.3974 L96.0244 116.0837 "/>
<path d="M96.0244 116.0837 L94.1976 116.0837 "/>
</g></g>
<g style="fill:#000084; fill-opacity:0.01;  stroke:#000084; stroke-width:1.1066; stroke-opacity:1;  stroke-linecap:round; stroke-linejoin:round;">
<text x="158.4936" y="121.7420" transform="scale(-1 1) translate(-316.987121 0)" textLength="21.8682" font-size="9.8363" lengthAdjust="spacingAndGlyphs" text-anchor="middle" opacity="0.01" style="font-family:monospace">5k1</text>
<g class="stroked-text"><desc>5k1</desc>
<path d="M163.2361 114.0315 L166.7490 114.0315 "/>
<path d="M166.7490 114.0315 L167.1003 117.5444 "/>
<path d="M167.1003 117.5444 L166.7490 117.1931 "/>
<path d="M166.7490 117.1931 L166.0464 116.8418 "/>
<path d="M166.0464 116.8418 L164.2900 116.8418 "/>
<path d="M164.2900 116.8418 L163.5874 117.1931 "/>
<path d="M163.5874 117.1931 L163.2361 117.5444 "/>
<path d="M163.2361 117.5444 L162.8848 118.2470 "/>
<path d="M162.8848 118.2470 L162.8848 120.0035 "/>
<path d="M162.8848 120.0035 L163.2361 120.7061 "/>
<path d="M163.2361 120.7061 L163.5874 121.0574 "/>
<path d="M163.5874 121.0574 L164.2900 121.4087 "/>
<path d="M164.2900 121.4087 L166.0464 121.4087 "/>
<path d="M166.0464 121.4087 L166.7490 121.0574 "/>
<path d="M166.7490 121.0574 L167.1003 120.7061 "/>
<path d="M159.7231 121.4087 L159.7231 114.0315 "/>
<path d="M159.0205 118.5983 L156.9127 121.4087 "/>
<path d="M156.9127 116.4905 L159.7231 119.3009 "/>
<path d="M149.8868 121.4087 L154.1023 121.4087 "/>
<path d="M151.9946 121.4087 L151.9946 114.0315 "/>
<path d="M151.9946 114.0315 L152.6972 115.0854 "/>
<path d="M152.6972 115.0854 L153.3998 115.7879 "/>
<path d="M153.3998 115.7879 L154.1023 116.1392 "/>
</g></g>
<g style="fill:#000084; fill-opacity:0.01;  stroke:#000084; stroke-width:0.5902; stroke-opacity:1;  stroke-linecap:round; stroke-linejoin:round;">
<text x="166.9995" y="89.2901" transform="scale(-1 1) translate(-333.999019 0)" textLength="8.2344" font-size="4.9182" lengthAdjust="spacingAndGlyphs" text-anchor="middle" opacity="0.01" style="font-family:monospace">R2</text>
<g class="stroked-text"><desc>R2</desc>
<path d="M167.6143 89.1215 L168.8438 87.3650 "/>
<path d="M169.7221 89.1215 L169.7221 85.4329 "/>
<path d="M169.7221 85.4329 L168.3169 85.4329 "/>
<path d="M168.3169 85.4329 L167.9656 85.6086 "/>
<path d="M167.9656 85.6086 L167.7899 85.7842 "/>
<path d="M167.7899 85.7842 L167.6143 86.1355 "/>
<path d="M167.6143 86.1355 L167.6143 86.6624 "/>
<path d="M167.6143 86.6624 L167.7899 87.0137 "/>
<path d="M167.7899 87.0137 L167.9656 87.1894 "/>
<path d="M167.9656 87.1894 L168.3169 87.3650 "/>
<path d="M168.3169 87.3650 L169.7221 87.3650 "/>
<path d="M166.2091 85.7842 L166.0334 85.6086 "/>
<path d="M166.0334 85.6086 L165.6821 85.4329 "/>
<path d="M165.6821 85.4329 L164.8039 85.4329 "/>
<path d="M164.8039 85.4329 L164.4526 85.6086 "/>
<path d="M164.4526 85.6086 L164.2770 85.7842 "/>
<path d="M164.2770 85.7842 L164.1013 86.1355 "/>
<path d="M164.1013 86.1355 L164.1013 86.4868 "/>
<path d="M164.1013 86.4868 L164.2770 87.0137 "/>
<path d="M164.2770 87.0137 L166.3847 89.1215 "/>
<path d="M166.3847 89.1215 L164.1013 89.1215 "/>
</g></g>
<g style="fill:#000084; fill-opacity:0.01;  stroke:#000084; stroke-width:1.1066; stroke-opacity:1;  stroke-linecap:round; stroke-linejoin:round;">
<text x="218.7324" y="116.9547" transform="scale(-1 1) translate(-437.464704 0)" textLength="45.4051" font-size="9.8363" lengthAdjust="spacingAndGlyphs" text-anchor="middle" opacity="0.01" style="font-family:monospace">Fiducial</text>
<g class="stroked-text"><desc>Fiducial</desc>
<path d="M236.2972 112.7571 L238.7563 112.7571 "/>
<path d="M238.7563 116.6214 L238.7563 109.2442 "/>
<path d="M238.7563 109.2442 L235.2433 109.2442 "/>
<path d="M232.4329 116.6214 L232.4329 111.7032 "/>
<path d="M232.4329 109.2442 L232.7842 109.5955 "/>
<path d="M232.7842 109.5955 L232.4329 109.9468 "/>
<path d="M232.4329 109.9468 L232.0816 109.5955 "/>
<path d="M232.0816 109.5955 L232.4329 109.2442 "/>
<path d="M232.4329 109.2442 L232.4329 109.9468 "/>
<path d="M225.7583 116.6214 L225.7583 109.2442 "/>
<path d="M225.7583 116.2701 L226.4609 116.6214 "/>
<path d="M226.4609 116.6214 L227.8661 116.6214 "/>
<path d="M227.8661 116.6214 L228.5687 116.2701 "/>
<path d="M228.5687 116.2701 L228.9200 115.9188 "/>
<path d="M228.9200 115.9188 L229.2713 115.2162 "/>
<path d="M229.2713 115.2162 L229.2713 113.1084 "/>
<path d="M229.2713 113.1084 L228.9200 112.4058 "/>
<path d="M228.9200 112.4058 L228.5687 112.0545 "/>
<path d="M228.5687 112.0545 L227.8661 111.7032 "/>
<path d="M227.8661 111.7032 L226.4609 111.7032 "/>
<path d="M226.4609 111.7032 L225.7583 112.0545 "/>
<path d="M219.0836 111.7032 L219.0836 116.6214 "/>
<path d="M222.2453 111.7032 L222.2453 115.5675 "/>
<path d="M222.2453 115.5675 L221.8940 116.2701 "/>
<path d="M221.8940 116.2701 L221.1914 116.6214 "/>
<path d="M221.1914 116.6214 L220.1375 116.6214 "/>
<path d="M220.1375 116.6214 L219.4349 116.2701 "/>
<path d="M219.4349 116.2701 L219.0836 115.9188 "/>
<path d="M212.4090 116.2701 L213.1116 116.6214 "/>
<path d="M213.1116 116.6214 L214.5168 116.6214 "/>
<path d="M214.5168 116.6214 L215.2194 116.2701 "/>
<path d="M215.2194 116.2701 L215.5707 115.9188 "/>
<path d="M215.5707 115.9188 L215.9220 115.2162 "/>
<path d="M215.9220 115.2162 L215.9220 113.1084 "/>
<path d="M215.9220 113.1084 L215.5707 112.4058 "/>
<path d="M215.5707 112.4058 L215.2194 112.0545 "/>
<path d="M215.2194 112.0545 L214.5168 111.7032 "/>
<path d="M214.5168 111.7032 L213.1116 111.7032 "/>
<path d="M213.1116 111.7032 L212.4090 112.0545 "/>
<path d="M209.2473 116.6214 L209.2473 111.7032 "/>
<path d="M209.2473 109.2442 L209.5986 109.5955 "/>
<path d="M209.5986 109.5955 L209.2473 109.9468 "/>
<path d="M209.2473 109.9468 L208.8960 109.5955 "/>
<path d="M208.8960 109.5955 L209.2473 109.2442 "/>
<path d="M209.2473 109.2442 L209.2473 109.9468 "/>
<path d="M202.5727 116.6214 L202.5727 112.7571 "/>
<path d="M202.5727 112.7571 L202.9240 112.0545 "/>
<path d="M202.9240 112.0545 L203.6266 111.7032 "/>
<path d="M203.6266 111.7032 L205.0318 111.7032 "/>
<path d="M205.0318 111.7032 L205.7344 112.0545 "/>
<path d="M202.5727 116.2701 L203.2753 116.6214 "/>
<path d="M203.2753 116.6214 L205.0318 116.6214 "/>
<path d="M205.0318 116.6214 L205.7344 116.2701 "/>
<path d="M205.7344 116.2701 L206.0857 115.5675 "/>
<path d="M206.0857 115.5675 L206.0857 114.8649 "/>
<path d="M206.0857 114.8649 L205.7344 114.1623 "/>
<path d="M205.7344 114.1623 L205.0318 113.8110 "/>
<path d="M205.0318 113.8110 L203.2753 113.8110 "/>
<path d="M203.2753 113.8110 L202.5727 113.4597 "/>
<path d="M198.0058 116.6214 L198.7084 116.2701 "/>
<path d="M198.7084 116.2701 L199.0597 115.5675 "/>
<path d="M199.0597 115.5675 L199.0597 109.2442 "/>
</g></g>
<g style="fill:#000084; fill-opacity:0.01;  stroke:#000084; stroke-width:0.4426; stroke-opacity:1;  stroke-linecap:round; stroke-linejoin:round;">
<text x="218.7324" y="99.9871" transform="scale(-1 1) translate(-437.464704 0)" textLength="10.4335" font-size="3.9345" lengthAdjust="spacingAndGlyphs" text-anchor="middle" opacity="0.01" style="font-family:monospace">FID1</text>
<g class="stroked-text"><desc>FID1</desc>
<path d="M221.8940 98.3080 L222.8776 98.3080 "/>
<path d="M222.8776 99.8538 L222.8776 96.9029 "/>
<path d="M222.8776 96.9029 L221.4725 96.9029 "/>
<path d="M220.3483 99.8538 L220.3483 96.9029 "/>
<path d="M218.9431 99.8538 L218.9431 96.9029 "/>
<path d="M218.9431 96.9029 L218.2405 96.9029 "/>
<path d="M218.2405 96.9029 L217.8190 97.0434 "/>
<path d="M217.8190 97.0434 L217.5379 97.3244 "/>
<path d="M217.5379 97.3244 L217.3974 97.6055 "/>
<path d="M217.3974 97.6055 L217.2569 98.1675 "/>
<path d="M217.2569 98.1675 L217.2569 98.5891 "/>
<path d="M217.2569 98.5891 L217.3974 99.1512 "/>
<path d="M217.3974 99.1512 L217.5379 99.4322 "/>
<path d="M217.5379 99.4322 L217.8190 99.7132 "/>
<path d="M217.8190 99.7132 L218.2405 99.8538 "/>
<path d="M218.2405 99.8538 L218.9431 99.8538 "/>
<path d="M214.4465 99.8538 L216.1327 99.8538 "/>
<path d="M215.2896 99.8538 L215.2896 96.9029 "/>
<path d="M215.2896 96.9029 L215.5707 97.3244 "/>
<path d="M215.5707 97.3244 L215.8517 97.6055 "/>
<path d="M215.8517 97.6055 L216.1327 97.7460 "/>
</g></g>
<g style="fill:#000084; fill-opacity:0.0;  stroke:#000084; stroke-width:1.1066; stroke-opacity:1;  stroke-linecap:round; stroke-linejoin:round;">
<g transform="rotate(-90.000000 150.8367 119.2564)">
<text x="150.8367" y="122.9450" transform="scale(-1 1) translate(-301.673462 0)" textLength="28.8942" font-size="9.8363" lengthAdjust="spacingAndGlyphs" text-anchor="middle" opacity="0.01" style="font-family:monospace">10uF</text>
</g>
<g class="stroked-text"><desc>10uF</desc>
<path d="M154.1920 111.3522 L154.1920 107.1367 "/>
<path d="M154.1920 109.2445 L146.8148 109.2445 "/>
<path d="M146.8148 109.2445 L147.8687 108.5419 "/>
<path d="M147.8687 108.5419 L148.5713 107.8393 "/>
<path d="M148.5713 107.8393 L148.9226 107.1367 "/>
<path d="M146.8148 115.9191 L146.8148 116.6217 "/>
<path d="M146.8148 116.6217 L147.1661 117.3243 "/>
<path d="M147.1661 117.3243 L147.5174 117.6756 "/>
<path d="M147.5174 117.6756 L148.2200 118.0269 "/>
<path d="M148.2200 118.0269 L149.6252 118.3782 "/>
<path d="M149.6252 118.3782 L151.3817 118.3782 "/>
<path d="M151.3817 118.3782 L152.7868 118.0269 "/>
<path d="M152.7868 118.0269 L153.4894 117.6756 "/>
<path d="M153.4894 117.6756 L153.8407 117.3243 "/>
<path d="M153.8407 117.3243 L154.1920 116.6217 "/>
<path d="M154.1920 116.6217 L154.1920 115.9191 "/>
<path d="M154.1920 115.9191 L153.8407 115.2165 "/>
<path d="M153.8407 115.2165 L153.4894 114.8652 "/>
<path d="M153.4894 114.8652 L152.7868 114.5139 "/>
<path d="M152.7868 114.5139 L151.3817 114.1626 "/>
<path d="M151.3817 114.1626 L149.6252 114.1626 "/>
<path d="M149.6252 114.1626 L148.2200 114.5139 "/>
<path d="M148.2200 114.5139 L147.5174 114.8652 "/>
<path d="M147.5174 114.8652 L147.1661 115.2165 "/>
<path d="M147.1661 115.2165 L146.8148 115.9191 "/>
<path d="M149.2739 124.7015 L154.1920 124.7015 "/>
<path d="M149.2739 121.5398 L153.1381 121.5398 "/>
<path d="M153.1381 121.5398 L153.8407 121.8911 "/>
<path d="M153.8407 121.8911 L154.1920 122.5937 "/>
<path d="M154.1920 122.5937 L154.1920 123.6476 "/>
<path d="M154.1920 123.6476 L153.8407 124.3502 "/>
<path d="M153.8407 124.3502 L153.4894 124.7015 "/>
<path d="M150.3278 130.6736 L150.3278 128.2145 "/>
<path d="M154.1920 128.2145 L146.8148 128.2145 "/>
<path d="M146.8148 128.2145 L146.8148 131.7274 "/>
</g></g>
<g style="fill:#000084; fill-opacity:0.0;  stroke:#000084; stroke-width:0.5902; stroke-opacity:1;  stroke-linecap:round; stroke-linejoin:round;">
<g transform="rotate(-90.000000 163.2305 119.2564)">
<text x="163.2305" y="121.1007" transform="scale(-1 1) translate(-326.460963 0)" textLength="8.2344" font-size="4.9182" lengthAdjust="spacingAndGlyphs" text-anchor="middle" opacity="0.01" style="font-family:monospace">C1</text>
</g>
<g class="stroked-text"><desc>C1</desc>
<path d="M164.5549 118.6416 L164.7306 118.4660 "/>
<path d="M164.7306 118.4660 L164.9062 117.9390 "/>
<path d="M164.9062 117.9390 L164.9062 117.5878 "/>
<path d="M164.9062 117.5878 L164.7306 117.0608 "/>
<path d="M164.7306 117.0608 L164.3793 116.7095 "/>
<path d="M164.3793 116.7095 L164.0280 116.5339 "/>
<path d="M164.0280 116.5339 L163.3254 116.3582 "/>
<path d="M163.3254 116.3582 L162.7984 116.3582 "/>
<path d="M162.7984 116.3582 L162.0958 116.5339 "/>
<path d="M162.0958 116.5339 L161.7445 116.7095 "/>
<path d="M161.7445 116.7095 L161.3932 117.0608 "/>
<path d="M161.3932 117.0608 L161.2176 117.5878 "/>
<path d="M161.2176 117.5878 L161.2176 117.9390 "/>
<path d="M161.2176 117.9390 L161.3932 118.4660 "/>
<path d="M161.3932 118.4660 L161.5689 118.6416 "/>
<path d="M164.9062 122.1546 L164.9062 120.0468 "/>
<path d="M164.9062 121.1007 L161.2176 121.1007 "/>
<path d="M161.2176 121.1007 L161.7445 120.7494 "/>
<path d="M161.7445 120.7494 L162.0958 120.3981 "/>
<path d="M162.0958 120.3981 L162.2715 120.0468 "/>
</g></g>
<g style="fill:#000084; fill-opacity:0.01;  stroke:#000084; stroke-width:1.1066; stroke-opacity:1;  stroke-linecap:round; stroke-linejoin:round;">
<text x="138.3205" y="173.9512" transform="scale(-1 1) translate(-276.641037 0)" textLength="150.7942" font-size="9.8363" lengthAdjust="spacingAndGlyphs" text-anchor="middle" opacity="0.01" style="font-family:monospace">SolderJumper_3_Bridged12</text>
<g class="stroked-text"><desc>SolderJumper_3_Bridged12</desc>
<path d="M211.3902 173.2666 L210.3364 173.6179 "/>
<path d="M210.3364 173.6179 L208.5799 173.6179 "/>
<path d="M208.5799 173.6179 L207.8773 173.2666 "/>
<path d="M207.8773 173.2666 L207.5260 172.9153 "/>
<path d="M207.5260 172.9153 L207.1747 172.2127 "/>
<path d="M207.1747 172.2127 L207.1747 171.5101 "/>
<path d="M207.1747 171.5101 L207.5260 170.8075 "/>
<path d="M207.5260 170.8075 L207.8773 170.4562 "/>
<path d="M207.8773 170.4562 L208.5799 170.1049 "/>
<path d="M208.5799 170.1049 L209.9851 169.7536 "/>
<path d="M209.9851 169.7536 L210.6877 169.4023 "/>
<path d="M210.6877 169.4023 L211.0390 169.0510 "/>
<path d="M211.0390 169.0510 L211.3902 168.3485 "/>
<path d="M211.3902 168.3485 L211.3902 167.6459 "/>
<path d="M211.3902 167.6459 L211.0390 166.9433 "/>
<path d="M211.0390 166.9433 L210.6877 166.5920 "/>
<path d="M210.6877 166.5920 L209.9851 166.2407 "/>
<path d="M209.9851 166.2407 L208.2286 166.2407 "/>
<path d="M208.2286 166.2407 L207.1747 166.5920 "/>
<path d="M202.9591 173.6179 L203.6617 173.2666 "/>
<path d="M203.6617 173.2666 L204.0130 172.9153 "/>
<path d="M204.0130 172.9153 L204.3643 172.2127 "/>
<path d="M204.3643 172.2127 L204.3643 170.1049 "/>
<path d="M204.3643 170.1049 L204.0130 169.4023 "/>
<path d="M204.0130 169.4023 L203.6617 169.0510 "/>
<path d="M203.6617 169.0510 L202.9591 168.6997 "/>
<path d="M202.9591 168.6997 L201.9052 168.6997 "/>
<path d="M201.9052 168.6997 L201.2026 169.0510 "/>
<path d="M201.2026 169.0510 L200.8513 169.4023 "/>
<path d="M200.8513 169.4023 L200.5001 170.1049 "/>
<path d="M200.5001 170.1049 L200.5001 172.2127 "/>
<path d="M200.5001 172.2127 L200.8513 172.9153 "/>
<path d="M200.8513 172.9153 L201.2026 173.2666 "/>
<path d="M201.2026 173.2666 L201.9052 173.6179 "/>
<path d="M201.9052 173.6179 L202.9591 173.6179 "/>
<path d="M196.2845 173.6179 L196.9871 173.2666 "/>
<path d="M196.9871 173.2666 L197.3384 172.5640 "/>
<path d="M197.3384 172.5640 L197.3384 166.2407 "/>
<path d="M190.3124 173.6179 L190.3124 166.2407 "/>
<path d="M190.3124 173.2666 L191.0150 173.6179 "/>
<path d="M191.0150 173.6179 L192.4202 173.6179 "/>
<path d="M192.4202 173.6179 L193.1228 173.2666 "/>
<path d="M193.1228 173.2666 L193.4741 172.9153 "/>
<path d="M193.4741 172.9153 L193.8254 172.2127 "/>
<path d="M193.8254 172.2127 L193.8254 170.1049 "/>
<path d="M193.8254 170.1049 L193.4741 169.4023 "/>
<path d="M193.4741 169.4023 L193.1228 169.0510 "/>
<path d="M193.1228 169.0510 L192.4202 168.6997 "/>
<path d="M192.4202 168.6997 L191.0150 168.6997 "/>
<path d="M191.0150 168.6997 L190.3124 169.0510 "/>
<path d="M183.9891 173.2666 L184.6917 173.6179 "/>
<path d="M184.6917 173.6179 L186.0969 173.6179 "/>
<path d="M186.0969 173.6179 L186.7995 173.2666 "/>
<path d="M186.7995 173.2666 L187.1508 172.5640 "/>
<path d="M187.1508 172.5640 L187.1508 169.7536 "/>
<path d="M187.1508 169.7536 L186.7995 169.0510 "/>
<path d="M186.7995 169.0510 L186.0969 168.6997 "/>
<path d="M186.0969 168.6997 L184.6917 168.6997 "/>
<path d="M184.6917 168.6997 L183.9891 169.0510 "/>
<path d="M183.9891 169.0510 L183.6378 169.7536 "/>
<path d="M183.6378 169.7536 L183.6378 170.4562 "/>
<path d="M183.6378 170.4562 L187.1508 171.1588 "/>
<path d="M180.4761 173.6179 L180.4761 168.6997 "/>
<path d="M180.4761 170.1049 L180.1248 169.4023 "/>
<path d="M180.1248 169.4023 L179.7735 169.0510 "/>
<path d="M179.7735 169.0510 L179.0709 168.6997 "/>
<path d="M179.0709 168.6997 L178.3683 168.6997 "/>
<path d="M173.8015 166.2407 L173.8015 171.5101 "/>
<path d="M173.8015 171.5101 L174.1528 172.5640 "/>
<path d="M174.1528 172.5640 L174.8554 173.2666 "/>
<path d="M174.8554 173.2666 L175.9093 173.6179 "/>
<path d="M175.9093 173.6179 L176.6119 173.6179 "/>
<path d="M167.1268 168.6997 L167.1268 173.6179 "/>
<path d="M170.2885 168.6997 L170.2885 172.5640 "/>
<path d="M170.2885 172.5640 L169.9372 173.2666 "/>
<path d="M169.9372 173.2666 L169.2346 173.6179 "/>
<path d="M169.2346 173.6179 L168.1807 173.6179 "/>
<path d="M168.1807 173.6179 L167.4781 173.2666 "/>
<path d="M167.4781 173.2666 L167.1268 172.9153 "/>
<path d="M163.6139 173.6179 L163.6139 168.6997 "/>
<path d="M163.6139 169.4023 L163.2626 169.0510 "/>
<path d="M163.2626 169.0510 L162.5600 168.6997 "/>
<path d="M162.5600 168.6997 L161.5061 168.6997 "/>
<path d="M161.5061 168.6997 L160.8035 169.0510 "/>
<path d="M160.8035 169.0510 L160.4522 169.7536 "/>
<path d="M160.4522 169.7536 L160.4522 173.6179 "/>
<path d="M160.4522 169.7536 L160.1009 169.0510 "/>
<path d="M160.1009 169.0510 L159.3983 168.6997 "/>
<path d="M159.3983 168.6997 L158.3444 168.6997 "/>
<path d="M158.3444 168.6997 L157.6418 169.0510 "/>
<path d="M157.6418 169.0510 L157.2905 169.7536 "/>
<path d="M157.2905 169.7536 L157.2905 173.6179 "/>
<path d="M153.7776 168.6997 L153.7776 176.0770 "/>
<path d="M153.7776 169.0510 L153.0750 168.6997 "/>
<path d="M153.0750 168.6997 L151.6698 168.6997 "/>
<path d="M151.6698 168.6997 L150.9672 169.0510 "/>
<path d="M150.9672 169.0510 L150.6159 169.4023 "/>
<path d="M150.6159 169.4023 L150.2646 170.1049 "/>
<path d="M150.2646 170.1049 L150.2646 172.2127 "/>
<path d="M150.2646 172.2127 L150.6159 172.9153 "/>
<path d="M150.6159 172.9153 L150.9672 173.2666 "/>
<path d="M150.9672 173.2666 L151.6698 173.6179 "/>
<path d="M151.6698 173.6179 L153.0750 173.6179 "/>
<path d="M153.0750 173.6179 L153.7776 173.2666 "/>
<path d="M144.2926 173.2666 L144.9952 173.6179 "/>
<path d="M144.9952 173.6179 L146.4003 173.6179 "/>
<path d="M146.4003 173.6179 L147.1029 173.2666 "/>
<path d="M147.1029 173.2666 L147.4542 172.5640 "/>
<path d="M147.4542 172.5640 L147.4542 169.7536 "/>
<path d="M147.4542 169.7536 L147.1029 169.0510 "/>
<path d="M147.1029 169.0510 L146.4003 168.6997 "/>
<path d="M146.4003 168.6997 L144.9952 168.6997 "/>
<path d="M144.9952 168.6997 L144.2926 169.0510 "/>
<path d="M144.2926 169.0510 L143.9413 169.7536 "/>
<path d="M143.9413 169.7536 L143.9413 170.4562 "/>
<path d="M143.9413 170.4562 L147.4542 171.1588 "/>
<path d="M140.7796 173.6179 L140.7796 168.6997 "/>
<path d="M140.7796 170.1049 L140.4283 169.4023 "/>
<path d="M140.4283 169.4023 L140.0770 169.0510 "/>
<path d="M140.0770 169.0510 L139.3744 168.6997 "/>
<path d="M139.3744 168.6997 L138.6718 168.6997 "/>
<path d="M137.9692 174.3205 L132.3485 174.3205 "/>
<path d="M131.2946 166.2407 L126.7277 166.2407 "/>
<path d="M126.7277 166.2407 L129.1868 169.0510 "/>
<path d="M129.1868 169.0510 L128.1329 169.0510 "/>
<path d="M128.1329 169.0510 L127.4303 169.4023 "/>
<path d="M127.4303 169.4023 L127.0790 169.7536 "/>
<path d="M127.0790 169.7536 L126.7277 170.4562 "/>
<path d="M126.7277 170.4562 L126.7277 172.2127 "/>
<path d="M126.7277 172.2127 L127.0790 172.9153 "/>
<path d="M127.0790 172.9153 L127.4303 173.2666 "/>
<path d="M127.4303 173.2666 L128.1329 173.6179 "/>
<path d="M128.1329 173.6179 L130.2407 173.6179 "/>
<path d="M130.2407 173.6179 L130.9433 173.2666 "/>
<path d="M130.9433 173.2666 L131.2946 172.9153 "/>
<path d="M125.3225 174.3205 L119.7018 174.3205 "/>
<path d="M115.4862 169.7536 L114.4323 170.1049 "/>
<path d="M114.4323 170.1049 L114.0810 170.4562 "/>
<path d="M114.0810 170.4562 L113.7297 171.1588 "/>
<path d="M113.7297 171.1588 L113.7297 172.2127 "/>
<path d="M113.7297 172.2127 L114.0810 172.9153 "/>
<path d="M114.0810 172.9153 L114.4323 173.2666 "/>
<path d="M114.4323 173.2666 L115.1349 173.6179 "/>
<path d="M115.1349 173.6179 L117.9453 173.6179 "/>
<path d="M117.9453 173.6179 L117.9453 166.2407 "/>
<path d="M117.9453 166.2407 L115.4862 166.2407 "/>
<path d="M115.4862 166.2407 L114.7836 166.5920 "/>
<path d="M114.7836 166.5920 L114.4323 166.9433 "/>
<path d="M114.4323 166.9433 L114.0810 167.6459 "/>
<path d="M114.0810 167.6459 L114.0810 168.3485 "/>
<path d="M114.0810 168.3485 L114.4323 169.0510 "/>
<path d="M114.4323 169.0510 L114.7836 169.4023 "/>
<path d="M114.7836 169.4023 L115.4862 169.7536 "/>
<path d="M115.4862 169.7536 L117.9453 169.7536 "/>
<path d="M110.5681 173.6179 L110.5681 168.6997 "/>
<path d="M110.5681 170.1049 L110.2168 169.4023 "/>
<path d="M110.2168 169.4023 L109.8655 169.0510 "/>
<path d="M109.8655 169.0510 L109.1629 168.6997 "/>
<path d="M109.1629 168.6997 L108.4603 168.6997 "/>
<path d="M106.0012 173.6179 L106.0012 168.6997 "/>
<path d="M106.0012 166.2407 L106.3525 166.5920 "/>
<path d="M106.3525 166.5920 L106.0012 166.9433 "/>
<path d="M106.0012 166.9433 L105.6499 166.5920 "/>
<path d="M105.6499 166.5920 L106.0012 166.2407 "/>
<path d="M106.0012 166.2407 L106.0012 166.9433 "/>
<path d="M99.3266 173.6179 L99.3266 166.2407 "/>
<path d="M99.3266 173.2666 L100.0292 173.6179 "/>
<path d="M100.0292 173.6179 L101.4343 173.6179 "/>
<path d="M101.4343 173.6179 L102.1369 173.2666 "/>
<path d="M102.1369 173.2666 L102.4882 172.9153 "/>
<path d="M102.4882 172.9153 L102.8395 172.2127 "/>
<path d="M102.8395 172.2127 L102.8395 170.1049 "/>
<path d="M102.8395 170.1049 L102.4882 169.4023 "/>
<path d="M102.4882 169.4023 L102.1369 169.0510 "/>
<path d="M102.1369 169.0510 L101.4343 168.6997 "/>
<path d="M101.4343 168.6997 L100.0292 168.6997 "/>
<path d="M100.0292 168.6997 L99.3266 169.0510 "/>
<path d="M92.6519 168.6997 L92.6519 174.6718 "/>
<path d="M92.6519 174.6718 L93.0032 175.3744 "/>
<path d="M93.0032 175.3744 L93.3545 175.7257 "/>
<path d="M93.3545 175.7257 L94.0571 176.0770 "/>
<path d="M94.0571 176.0770 L95.1110 176.0770 "/>
<path d="M95.1110 176.0770 L95.8136 175.7257 "/>
<path d="M92.6519 173.2666 L93.3545 173.6179 "/>
<path d="M93.3545 173.6179 L94.7597 173.6179 "/>
<path d="M94.7597 173.6179 L95.4623 173.2666 "/>
<path d="M95.4623 173.2666 L95.8136 172.9153 "/>
<path d="M95.8136 172.9153 L96.1649 172.2127 "/>
<path d="M96.1649 172.2127 L96.1649 170.1049 "/>
<path d="M96.1649 170.1049 L95.8136 169.4023 "/>
<path d="M95.8136 169.4023 L95.4623 169.0510 "/>
<path d="M95.4623 169.0510 L94.7597 168.6997 "/>
<path d="M94.7597 168.6997 L93.3545 168.6997 "/>
<path d="M93.3545 168.6997 L92.6519 169.0510 "/>
<path d="M86.3286 173.2666 L87.0312 173.6179 "/>
<path d="M87.0312 173.6179 L88.4364 173.6179 "/>
<path d="M88.4364 173.6179 L89.1390 173.2666 "/>
<path d="M89.1390 173.2666 L89.4902 172.5640 "/>
<path d="M89.4902 172.5640 L89.4902 169.7536 "/>
<path d="M89.4902 169.7536 L89.1390 169.0510 "/>
<path d="M89.1390 169.0510 L88.4364 168.6997 "/>
<path d="M88.4364 168.6997 L87.0312 168.6997 "/>
<path d="M87.0312 168.6997 L86.3286 169.0510 "/>
<path d="M86.3286 169.0510 L85.9773 169.7536 "/>
<path d="M85.9773 169.7536 L85.9773 170.4562 "/>
<path d="M85.9773 170.4562 L89.4902 171.1588 "/>
<path d="M79.6539 173.6179 L79.6539 166.2407 "/>
<path d="M79.6539 173.2666 L80.3565 173.6179 "/>
<path d="M80.3565 173.6179 L81.7617 173.6179 "/>
<path d="M81.7617 173.6179 L82.4643 173.2666 "/>
<path d="M82.4643 173.2666 L82.8156 172.9153 "/>
<path d="M82.8156 172.9153 L83.1669 172.2127 "/>
<path d="M83.1669 172.2127 L83.1669 170.1049 "/>
<path d="M83.1669 170.1049 L82.8156 169.4023 "/>
<path d="M82.8156 169.4023 L82.4643 169.0510 "/>
<path d="M82.4643 169.0510 L81.7617 168.6997 "/>
<path d="M81.7617 168.6997 L80.3565 168.6997 "/>
<path d="M80.3565 168.6997 L79.6539 169.0510 "/>
<path d="M72.2767 173.6179 L76.4923 173.6179 "/>
<path d="M74.3845 173.6179 L74.3845 166.2407 "/>
<path d="M74.3845 166.2407 L75.0871 167.2946 "/>
<path d="M75.0871 167.2946 L75.7897 167.9972 "/>
<path d="M75.7897 167.9972 L76.4923 168.3485 "/>
<path d="M69.4663 166.9433 L69.1150 166.5920 "/>
<path d="M69.1150 166.5920 L68.4124 166.2407 "/>
<path d="M68.4124 166.2407 L66.6560 166.2407 "/>
<path d="M66.6560 166.2407 L65.9534 166.5920 "/>
<path d="M65.9534 166.5920 L65.6021 166.9433 "/>
<path d="M65.6021 166.9433 L65.2508 167.6459 "/>
<path d="M65.2508 167.6459 L65.2508 168.3485 "/>
<path d="M65.2508 168.3485 L65.6021 169.4023 "/>
<path d="M65.6021 169.4023 L69.8176 173.6179 "/>
<path d="M69.8176 173.6179 L65.2508 173.6179 "/>
</g></g>
<g style="fill:#000084; fill-opacity:0.0;  stroke:#000084; stroke-width:0.7377; stroke-opacity:1;  stroke-linecap:round; stroke-linejoin:round;">
<path d="M186.3647 82.8350 L186.3647 92.0566 "/>
<path d="M186.3647 92.0566 L201.1192 92.0566 "/>
<path d="M201.1192 82.8350 L186.3647 82.8350 "/>
<path d="M201.1192 92.0566 L201.1192 82.8350 "/>
<path d="M175.4841 126.6336 L184.7056 126.6336 "/>
<path d="M184.7056 126.6336 L184.7056 111.8792 "/>
<path d="M175.4841 111.8792 L175.4841 126.6336 "/>
<path d="M184.7056 111.8792 L175.4841 111.8792 "/>
<path d="M114.3180 126.7104 L145.6712 126.7104 "/>
<path d="M145.6712 126.7104 L151.2041 121.1774 "/>
<path d="M151.2041 121.1774 L151.2041 104.5787 "/>
<path d="M114.3180 104.5787 L114.3180 126.7104 "/>
<path d="M151.2041 104.5787 L114.3180 104.5787 "/>
<path d="M198.0761 111.4808 L198.0761 124.7598 "/>
<path d="M198.0761 124.7598 L218.7324 124.7598 "/>
<path d="M202.8713 118.1203 L205.8222 118.1203 "/>
<path d="M205.8222 118.1203 L205.8222 114.0628 "/>
<path d="M205.8222 118.1203 L205.8222 122.1778 "/>
<path d="M205.8222 118.1203 L210.2485 121.0712 "/>
<path d="M210.2485 115.1694 L205.8222 118.1203 "/>
<path d="M210.2485 118.1203 L213.9372 118.1203 "/>
<path d="M210.2485 121.0712 L210.2485 115.1694 "/>
<path d="M218.7324 111.4808 L198.0761 111.4808 "/>
<path d="M218.7324 124.7598 L218.7324 111.4808 "/>
<circle cx="98.4835" cy="114.7415" r="7.3772"/> 
<path d="M174.3767 92.0566 L174.3767 82.8350 "/>
<path d="M174.3767 82.8350 L159.6223 82.8350 "/>
<path d="M159.6223 92.0566 L174.3767 92.0566 "/>
<path d="M159.6223 82.8350 L159.6223 92.0566 "/>
<circle cx="218.7324" cy="98.5116" r="7.3772"/> 
<path d="M158.6197 126.6336 L167.8413 126.6336 "/>
<path d="M167.8413 126.6336 L167.8413 111.8792 "/>
<path d="M158.6197 111.8792 L158.6197 126.6336 "/>
<path d="M167.8413 111.8792 L158.6197 111.8792 "/>
<g>
</g>
<g>
</g>
<g>
</g>
<g>
</g>
<g>
</g>
<g>
</g>
<g>
</g>
<g>
</g>
<g>
</g>
<g>
</g>
<g>
</g>
<g>
</g>
<g>
</g>
<g>
</g>
<g>
</g>
<g>
</g>
<g>
</g>
<g>
</g>
<g>
</g>
<g>
</g>
</g> 
<svg:g><svg:g><svg:title>SVG Image created as ALTIMET02-Edge_Cuts.svg date 2023/09/20 18:23:53 </svg:title>
  <svg:desc>Image generated by PCBNEW </svg:desc>
<svg:g style="fill:#C2C200; fill-opacity:1.0000;stroke:#C2C200; stroke-opacity:1.0000; stroke-linecap:round; stroke-linejoin:round;" transform="translate(0 0) scale(1 1)">
</svg:g>
<svg:g style="fill:#C2C200; fill-opacity:0.0;  stroke:#C2C200; stroke-width:0.0000; stroke-opacity:1;  stroke-linecap:round; stroke-linejoin:round;">
</svg:g>
<svg:g style="fill:#C2C200; fill-opacity:0.0;  stroke:#C2C200; stroke-width:0.9369; stroke-opacity:1;  stroke-linecap:round; stroke-linejoin:round;">
<svg:path d="M0.4696 178.0825 L0.4696 31.9247 "/>
<svg:path d="M0.4696 31.9247 L296.5326 31.9247 "/>
<svg:path d="M296.5326 178.0825 L0.4696 178.0825 "/>
<svg:path d="M296.5326 31.9247 L296.5326 178.0825 "/>
<svg:g>
</svg:g>
<svg:g>
</svg:g>
<svg:g>
</svg:g>
<svg:g>
</svg:g>
<svg:g>
</svg:g>
<svg:g>
</svg:g>
<svg:g>
</svg:g>
<svg:g>
</svg:g>
<svg:g>
</svg:g>
<svg:g>
</svg:g>
<svg:g>
</svg:g>
<svg:g>
</svg:g>
<svg:g>
</svg:g>
<svg:g>
</svg:g>
<svg:g>
</svg:g>
<svg:g>
</svg:g>
<svg:g>
</svg:g>
<svg:g>
</svg:g>
<svg:g>
</svg:g>
<svg:g>
</svg:g>
</svg:g> 
</svg:g></svg:g></svg>
