<?xml version='1.0' encoding='ASCII' standalone='yes'?>
<svg xmlns:svg="http://www.w3.org/2000/svg" xmlns="http://www.w3.org/2000/svg" xmlns:xlink="http://www.w3.org/1999/xlink" version="1.1" width="297.0022mm" height="210.0072mm" viewBox="0.0000 0.0000 297.0022 210.0072">
<title>SVG Image created as ALTIMET02-F_Fab.svg date 2023/09/20 18:23:53 </title>
  <desc>Image generated by PCBNEW </desc>
<g style="fill:#848484; fill-opacity:1.0000;stroke:#848484; stroke-opacity:1.0000; stroke-linecap:round; stroke-linejoin:round;" transform="translate(0 0) scale(1 1)">
</g>
<g style="fill:#848484; fill-opacity:0.0;  stroke:#848484; stroke-width:0.0000; stroke-opacity:1;  stroke-linecap:round; stroke-linejoin:round;">
</g>
<g style="fill:#848484; fill-opacity:0.01;  stroke:#848484; stroke-width:1.1066; stroke-opacity:1;  stroke-linecap:round; stroke-linejoin:round;">
<text x="162.6285" y="145.9177" textLength="150.7942" font-size="9.8363" lengthAdjust="spacingAndGlyphs" text-anchor="middle" opacity="0.01" style="font-family:monospace">SolderJumper_3_Bridged12</text>
<g class="stroked-text"><desc>SolderJumper_3_Bridged12</desc>
<path d="M235.6982 145.2331 L234.6444 145.5844 "/>
<path d="M234.6444 145.5844 L232.8879 145.5844 "/>
<path d="M232.8879 145.5844 L232.1853 145.2331 "/>
<path d="M232.1853 145.2331 L231.8340 144.8818 "/>
<path d="M231.8340 144.8818 L231.4827 144.1792 "/>
<path d="M231.4827 144.1792 L231.4827 143.4766 "/>
<path d="M231.4827 143.4766 L231.8340 142.7740 "/>
<path d="M231.8340 142.7740 L232.1853 142.4227 "/>
<path d="M232.1853 142.4227 L232.8879 142.0715 "/>
<path d="M232.8879 142.0715 L234.2931 141.7202 "/>
<path d="M234.2931 141.7202 L234.9956 141.3689 "/>
<path d="M234.9956 141.3689 L235.3469 141.0176 "/>
<path d="M235.3469 141.0176 L235.6982 140.3150 "/>
<path d="M235.6982 140.3150 L235.6982 139.6124 "/>
<path d="M235.6982 139.6124 L235.3469 138.9098 "/>
<path d="M235.3469 138.9098 L234.9956 138.5585 "/>
<path d="M234.9956 138.5585 L234.2931 138.2072 "/>
<path d="M234.2931 138.2072 L232.5366 138.2072 "/>
<path d="M232.5366 138.2072 L231.4827 138.5585 "/>
<path d="M227.2671 145.5844 L227.9697 145.2331 "/>
<path d="M227.9697 145.2331 L228.3210 144.8818 "/>
<path d="M228.3210 144.8818 L228.6723 144.1792 "/>
<path d="M228.6723 144.1792 L228.6723 142.0715 "/>
<path d="M228.6723 142.0715 L228.3210 141.3689 "/>
<path d="M228.3210 141.3689 L227.9697 141.0176 "/>
<path d="M227.9697 141.0176 L227.2671 140.6663 "/>
<path d="M227.2671 140.6663 L226.2132 140.6663 "/>
<path d="M226.2132 140.6663 L225.5106 141.0176 "/>
<path d="M225.5106 141.0176 L225.1593 141.3689 "/>
<path d="M225.1593 141.3689 L224.8080 142.0715 "/>
<path d="M224.8080 142.0715 L224.8080 144.1792 "/>
<path d="M224.8080 144.1792 L225.1593 144.8818 "/>
<path d="M225.1593 144.8818 L225.5106 145.2331 "/>
<path d="M225.5106 145.2331 L226.2132 145.5844 "/>
<path d="M226.2132 145.5844 L227.2671 145.5844 "/>
<path d="M220.5925 145.5844 L221.2951 145.2331 "/>
<path d="M221.2951 145.2331 L221.6464 144.5305 "/>
<path d="M221.6464 144.5305 L221.6464 138.2072 "/>
<path d="M214.6204 145.5844 L214.6204 138.2072 "/>
<path d="M214.6204 145.2331 L215.3230 145.5844 "/>
<path d="M215.3230 145.5844 L216.7282 145.5844 "/>
<path d="M216.7282 145.5844 L217.4308 145.2331 "/>
<path d="M217.4308 145.2331 L217.7821 144.8818 "/>
<path d="M217.7821 144.8818 L218.1334 144.1792 "/>
<path d="M218.1334 144.1792 L218.1334 142.0715 "/>
<path d="M218.1334 142.0715 L217.7821 141.3689 "/>
<path d="M217.7821 141.3689 L217.4308 141.0176 "/>
<path d="M217.4308 141.0176 L216.7282 140.6663 "/>
<path d="M216.7282 140.6663 L215.3230 140.6663 "/>
<path d="M215.3230 140.6663 L214.6204 141.0176 "/>
<path d="M208.2971 145.2331 L208.9997 145.5844 "/>
<path d="M208.9997 145.5844 L210.4049 145.5844 "/>
<path d="M210.4049 145.5844 L211.1075 145.2331 "/>
<path d="M211.1075 145.2331 L211.4588 144.5305 "/>
<path d="M211.4588 144.5305 L211.4588 141.7202 "/>
<path d="M211.4588 141.7202 L211.1075 141.0176 "/>
<path d="M211.1075 141.0176 L210.4049 140.6663 "/>
<path d="M210.4049 140.6663 L208.9997 140.6663 "/>
<path d="M208.9997 140.6663 L208.2971 141.0176 "/>
<path d="M208.2971 141.0176 L207.9458 141.7202 "/>
<path d="M207.9458 141.7202 L207.9458 142.4227 "/>
<path d="M207.9458 142.4227 L211.4588 143.1253 "/>
<path d="M204.7841 145.5844 L204.7841 140.6663 "/>
<path d="M204.7841 142.0715 L204.4328 141.3689 "/>
<path d="M204.4328 141.3689 L204.0815 141.0176 "/>
<path d="M204.0815 141.0176 L203.3789 140.6663 "/>
<path d="M203.3789 140.6663 L202.6763 140.6663 "/>
<path d="M198.1095 138.2072 L198.1095 143.4766 "/>
<path d="M198.1095 143.4766 L198.4608 144.5305 "/>
<path d="M198.4608 144.5305 L199.1634 145.2331 "/>
<path d="M199.1634 145.2331 L200.2173 145.5844 "/>
<path d="M200.2173 145.5844 L200.9198 145.5844 "/>
<path d="M191.4348 140.6663 L191.4348 145.5844 "/>
<path d="M194.5965 140.6663 L194.5965 144.5305 "/>
<path d="M194.5965 144.5305 L194.2452 145.2331 "/>
<path d="M194.2452 145.2331 L193.5426 145.5844 "/>
<path d="M193.5426 145.5844 L192.4887 145.5844 "/>
<path d="M192.4887 145.5844 L191.7861 145.2331 "/>
<path d="M191.7861 145.2331 L191.4348 144.8818 "/>
<path d="M187.9219 145.5844 L187.9219 140.6663 "/>
<path d="M187.9219 141.3689 L187.5706 141.0176 "/>
<path d="M187.5706 141.0176 L186.8680 140.6663 "/>
<path d="M186.8680 140.6663 L185.8141 140.6663 "/>
<path d="M185.8141 140.6663 L185.1115 141.0176 "/>
<path d="M185.1115 141.0176 L184.7602 141.7202 "/>
<path d="M184.7602 141.7202 L184.7602 145.5844 "/>
<path d="M184.7602 141.7202 L184.4089 141.0176 "/>
<path d="M184.4089 141.0176 L183.7063 140.6663 "/>
<path d="M183.7063 140.6663 L182.6524 140.6663 "/>
<path d="M182.6524 140.6663 L181.9498 141.0176 "/>
<path d="M181.9498 141.0176 L181.5985 141.7202 "/>
<path d="M181.5985 141.7202 L181.5985 145.5844 "/>
<path d="M178.0856 140.6663 L178.0856 148.0435 "/>
<path d="M178.0856 141.0176 L177.3830 140.6663 "/>
<path d="M177.3830 140.6663 L175.9778 140.6663 "/>
<path d="M175.9778 140.6663 L175.2752 141.0176 "/>
<path d="M175.2752 141.0176 L174.9239 141.3689 "/>
<path d="M174.9239 141.3689 L174.5726 142.0715 "/>
<path d="M174.5726 142.0715 L174.5726 144.1792 "/>
<path d="M174.5726 144.1792 L174.9239 144.8818 "/>
<path d="M174.9239 144.8818 L175.2752 145.2331 "/>
<path d="M175.2752 145.2331 L175.9778 145.5844 "/>
<path d="M175.9778 145.5844 L177.3830 145.5844 "/>
<path d="M177.3830 145.5844 L178.0856 145.2331 "/>
<path d="M168.6005 145.2331 L169.3031 145.5844 "/>
<path d="M169.3031 145.5844 L170.7083 145.5844 "/>
<path d="M170.7083 145.5844 L171.4109 145.2331 "/>
<path d="M171.4109 145.2331 L171.7622 144.5305 "/>
<path d="M171.7622 144.5305 L171.7622 141.7202 "/>
<path d="M171.7622 141.7202 L171.4109 141.0176 "/>
<path d="M171.4109 141.0176 L170.7083 140.6663 "/>
<path d="M170.7083 140.6663 L169.3031 140.6663 "/>
<path d="M169.3031 140.6663 L168.6005 141.0176 "/>
<path d="M168.6005 141.0176 L168.2493 141.7202 "/>
<path d="M168.2493 141.7202 L168.2493 142.4227 "/>
<path d="M168.2493 142.4227 L171.7622 143.1253 "/>
<path d="M165.0876 145.5844 L165.0876 140.6663 "/>
<path d="M165.0876 142.0715 L164.7363 141.3689 "/>
<path d="M164.7363 141.3689 L164.3850 141.0176 "/>
<path d="M164.3850 141.0176 L163.6824 140.6663 "/>
<path d="M163.6824 140.6663 L162.9798 140.6663 "/>
<path d="M162.2772 146.2870 L156.6565 146.2870 "/>
<path d="M155.6026 138.2072 L151.0357 138.2072 "/>
<path d="M151.0357 138.2072 L153.4948 141.0176 "/>
<path d="M153.4948 141.0176 L152.4409 141.0176 "/>
<path d="M152.4409 141.0176 L151.7383 141.3689 "/>
<path d="M151.7383 141.3689 L151.3870 141.7202 "/>
<path d="M151.3870 141.7202 L151.0357 142.4227 "/>
<path d="M151.0357 142.4227 L151.0357 144.1792 "/>
<path d="M151.0357 144.1792 L151.3870 144.8818 "/>
<path d="M151.3870 144.8818 L151.7383 145.2331 "/>
<path d="M151.7383 145.2331 L152.4409 145.5844 "/>
<path d="M152.4409 145.5844 L154.5487 145.5844 "/>
<path d="M154.5487 145.5844 L155.2513 145.2331 "/>
<path d="M155.2513 145.2331 L155.6026 144.8818 "/>
<path d="M149.6305 146.2870 L144.0098 146.2870 "/>
<path d="M139.7942 141.7202 L138.7403 142.0715 "/>
<path d="M138.7403 142.0715 L138.3890 142.4227 "/>
<path d="M138.3890 142.4227 L138.0377 143.1253 "/>
<path d="M138.0377 143.1253 L138.0377 144.1792 "/>
<path d="M138.0377 144.1792 L138.3890 144.8818 "/>
<path d="M138.3890 144.8818 L138.7403 145.2331 "/>
<path d="M138.7403 145.2331 L139.4429 145.5844 "/>
<path d="M139.4429 145.5844 L142.2533 145.5844 "/>
<path d="M142.2533 145.5844 L142.2533 138.2072 "/>
<path d="M142.2533 138.2072 L139.7942 138.2072 "/>
<path d="M139.7942 138.2072 L139.0916 138.5585 "/>
<path d="M139.0916 138.5585 L138.7403 138.9098 "/>
<path d="M138.7403 138.9098 L138.3890 139.6124 "/>
<path d="M138.3890 139.6124 L138.3890 140.3150 "/>
<path d="M138.3890 140.3150 L138.7403 141.0176 "/>
<path d="M138.7403 141.0176 L139.0916 141.3689 "/>
<path d="M139.0916 141.3689 L139.7942 141.7202 "/>
<path d="M139.7942 141.7202 L142.2533 141.7202 "/>
<path d="M134.8760 145.5844 L134.8760 140.6663 "/>
<path d="M134.8760 142.0715 L134.5247 141.3689 "/>
<path d="M134.5247 141.3689 L134.1735 141.0176 "/>
<path d="M134.1735 141.0176 L133.4709 140.6663 "/>
<path d="M133.4709 140.6663 L132.7683 140.6663 "/>
<path d="M130.3092 145.5844 L130.3092 140.6663 "/>
<path d="M130.3092 138.2072 L130.6605 138.5585 "/>
<path d="M130.6605 138.5585 L130.3092 138.9098 "/>
<path d="M130.3092 138.9098 L129.9579 138.5585 "/>
<path d="M129.9579 138.5585 L130.3092 138.2072 "/>
<path d="M130.3092 138.2072 L130.3092 138.9098 "/>
<path d="M123.6346 145.5844 L123.6346 138.2072 "/>
<path d="M123.6346 145.2331 L124.3371 145.5844 "/>
<path d="M124.3371 145.5844 L125.7423 145.5844 "/>
<path d="M125.7423 145.5844 L126.4449 145.2331 "/>
<path d="M126.4449 145.2331 L126.7962 144.8818 "/>
<path d="M126.7962 144.8818 L127.1475 144.1792 "/>
<path d="M127.1475 144.1792 L127.1475 142.0715 "/>
<path d="M127.1475 142.0715 L126.7962 141.3689 "/>
<path d="M126.7962 141.3689 L126.4449 141.0176 "/>
<path d="M126.4449 141.0176 L125.7423 140.6663 "/>
<path d="M125.7423 140.6663 L124.3371 140.6663 "/>
<path d="M124.3371 140.6663 L123.6346 141.0176 "/>
<path d="M116.9599 140.6663 L116.9599 146.6383 "/>
<path d="M116.9599 146.6383 L117.3112 147.3409 "/>
<path d="M117.3112 147.3409 L117.6625 147.6922 "/>
<path d="M117.6625 147.6922 L118.3651 148.0435 "/>
<path d="M118.3651 148.0435 L119.4190 148.0435 "/>
<path d="M119.4190 148.0435 L120.1216 147.6922 "/>
<path d="M116.9599 145.2331 L117.6625 145.5844 "/>
<path d="M117.6625 145.5844 L119.0677 145.5844 "/>
<path d="M119.0677 145.5844 L119.7703 145.2331 "/>
<path d="M119.7703 145.2331 L120.1216 144.8818 "/>
<path d="M120.1216 144.8818 L120.4729 144.1792 "/>
<path d="M120.4729 144.1792 L120.4729 142.0715 "/>
<path d="M120.4729 142.0715 L120.1216 141.3689 "/>
<path d="M120.1216 141.3689 L119.7703 141.0176 "/>
<path d="M119.7703 141.0176 L119.0677 140.6663 "/>
<path d="M119.0677 140.6663 L117.6625 140.6663 "/>
<path d="M117.6625 140.6663 L116.9599 141.0176 "/>
<path d="M110.6366 145.2331 L111.3392 145.5844 "/>
<path d="M111.3392 145.5844 L112.7443 145.5844 "/>
<path d="M112.7443 145.5844 L113.4469 145.2331 "/>
<path d="M113.4469 145.2331 L113.7982 144.5305 "/>
<path d="M113.7982 144.5305 L113.7982 141.7202 "/>
<path d="M113.7982 141.7202 L113.4469 141.0176 "/>
<path d="M113.4469 141.0176 L112.7443 140.6663 "/>
<path d="M112.7443 140.6663 L111.3392 140.6663 "/>
<path d="M111.3392 140.6663 L110.6366 141.0176 "/>
<path d="M110.6366 141.0176 L110.2853 141.7202 "/>
<path d="M110.2853 141.7202 L110.2853 142.4227 "/>
<path d="M110.2853 142.4227 L113.7982 143.1253 "/>
<path d="M103.9619 145.5844 L103.9619 138.2072 "/>
<path d="M103.9619 145.2331 L104.6645 145.5844 "/>
<path d="M104.6645 145.5844 L106.0697 145.5844 "/>
<path d="M106.0697 145.5844 L106.7723 145.2331 "/>
<path d="M106.7723 145.2331 L107.1236 144.8818 "/>
<path d="M107.1236 144.8818 L107.4749 144.1792 "/>
<path d="M107.4749 144.1792 L107.4749 142.0715 "/>
<path d="M107.4749 142.0715 L107.1236 141.3689 "/>
<path d="M107.1236 141.3689 L106.7723 141.0176 "/>
<path d="M106.7723 141.0176 L106.0697 140.6663 "/>
<path d="M106.0697 140.6663 L104.6645 140.6663 "/>
<path d="M104.6645 140.6663 L103.9619 141.0176 "/>
<path d="M96.5847 145.5844 L100.8003 145.5844 "/>
<path d="M98.6925 145.5844 L98.6925 138.2072 "/>
<path d="M98.6925 138.2072 L99.3951 139.2611 "/>
<path d="M99.3951 139.2611 L100.0977 139.9637 "/>
<path d="M100.0977 139.9637 L100.8003 140.3150 "/>
<path d="M93.7743 138.9098 L93.4230 138.5585 "/>
<path d="M93.4230 138.5585 L92.7204 138.2072 "/>
<path d="M92.7204 138.2072 L90.9639 138.2072 "/>
<path d="M90.9639 138.2072 L90.2614 138.5585 "/>
<path d="M90.2614 138.5585 L89.9101 138.9098 "/>
<path d="M89.9101 138.9098 L89.5588 139.6124 "/>
<path d="M89.5588 139.6124 L89.5588 140.3150 "/>
<path d="M89.5588 140.3150 L89.9101 141.3689 "/>
<path d="M89.9101 141.3689 L94.1256 145.5844 "/>
<path d="M94.1256 145.5844 L89.5588 145.5844 "/>
</g></g>
<g style="fill:#848484; fill-opacity:0.0;  stroke:#848484; stroke-width:2.8107; stroke-opacity:1;  stroke-linecap:round; stroke-linejoin:round;">
<circle cx="36.0721" cy="142.4799" r="22.1298"/> 
<circle cx="260.9301" cy="67.5273" r="22.1298"/> 
</g>
<g style="fill:#848484; fill-opacity:0.0;  stroke:#848484; stroke-width:1.1066; stroke-opacity:1;  stroke-linecap:round; stroke-linejoin:round;">
<path d="M127.8891 170.5872 L127.8891 133.1109 "/>
<path d="M71.6746 170.5872 L127.8891 170.5872 "/>
<path d="M127.8891 133.1109 L71.6746 133.1109 "/>
<path d="M71.6746 133.1109 L71.6746 170.5872 "/>
</g>
<g style="fill:#848484; fill-opacity:0.0;  stroke:#848484; stroke-width:2.8107; stroke-opacity:1;  stroke-linecap:round; stroke-linejoin:round;">
<circle cx="36.0721" cy="67.5273" r="22.1298"/> 
<circle cx="260.9301" cy="142.4799" r="22.1298"/> 
<g>
</g>
<g>
</g>
<g>
</g>
<g>
</g>
<g>
</g>
<g>
</g>
<g>
</g>
<g>
</g>
<g>
</g>
<g>
</g>
<g>
</g>
<g>
</g>
<g>
</g>
<g>
</g>
<g>
</g>
<g>
</g>
<g>
</g>
<g>
</g>
<g>
</g>
<g>
</g>
</g> 
<svg:g><svg:g><svg:title>SVG Image created as ALTIMET02-Edge_Cuts.svg date 2023/09/20 18:23:53 </svg:title>
  <svg:desc>Image generated by PCBNEW </svg:desc>
<svg:g style="fill:#C2C200; fill-opacity:1.0000;stroke:#C2C200; stroke-opacity:1.0000; stroke-linecap:round; stroke-linejoin:round;" transform="translate(0 0) scale(1 1)">
</svg:g>
<svg:g style="fill:#C2C200; fill-opacity:0.0;  stroke:#C2C200; stroke-width:0.0000; stroke-opacity:1;  stroke-linecap:round; stroke-linejoin:round;">
</svg:g>
<svg:g style="fill:#C2C200; fill-opacity:0.0;  stroke:#C2C200; stroke-width:0.9369; stroke-opacity:1;  stroke-linecap:round; stroke-linejoin:round;">
<svg:path d="M296.5326 178.0825 L296.5326 31.9247 "/>
<svg:path d="M296.5326 31.9247 L0.4696 31.9247 "/>
<svg:path d="M0.4696 178.0825 L296.5326 178.0825 "/>
<svg:path d="M0.4696 31.9247 L0.4696 178.0825 "/>
<svg:g>
</svg:g>
<svg:g>
</svg:g>
<svg:g>
</svg:g>
<svg:g>
</svg:g>
<svg:g>
</svg:g>
<svg:g>
</svg:g>
<svg:g>
</svg:g>
<svg:g>
</svg:g>
<svg:g>
</svg:g>
<svg:g>
</svg:g>
<svg:g>
</svg:g>
<svg:g>
</svg:g>
<svg:g>
</svg:g>
<svg:g>
</svg:g>
<svg:g>
</svg:g>
<svg:g>
</svg:g>
<svg:g>
</svg:g>
<svg:g>
</svg:g>
<svg:g>
</svg:g>
<svg:g>
</svg:g>
</svg:g> 
</svg:g></svg:g></svg>
