  0
SECTION
  2
HEADER
  9
$ANGBASE
  50
0.0
  9
$ANGDIR
  70
1
  9
$MEASUREMENT
  70
0
  0
ENDSEC
  0
SECTION
  2
TABLES
  0
TABLE
  2
LTYPE
  70
4
  0
LTYPE
  5
40F
  2
CONTINUOUS
  70
0
  3
Solid line
  72
65
  73
0
  40
0.0
  0
LTYPE
  5
410
  2
DASHDOT
 70
0
  3
Dash Dot ____ _ ____ _
 72
65
 73
4
 40
2.0
 49
1.25
 49
-0.25
 49
0.25
 49
-0.25
  0
LTYPE
  5
411
  2
DASHED
 70
0
  3
Dashed __ __ __ __ __
 72
65
 73
2
 40
0.75
 49
0.5
 49
-0.25
  0
LTYPE
  5
43B
  2
DOTTED
 70
0
  3
Dotted .  .  .  .
 72
65
 73
2
 40
0.2
 49
0.0
 49
-0.2
  0
ENDTAB
  0
TABLE
  2
STYLE
  70
4
  0
STYLE
  2
KICAD
  70
0
  40
0
  41
1
  42
1
  50
0
  71
0
  3
isocp.shx
  0
STYLE
  2
KICADB
  70
0
  40
0
  41
1
  42
1
  50
0
  71
0
  3
isocp.shx
  0
STYLE
  2
KICADI
  70
0
  40
0
  41
1
  42
1
  50
15
  71
0
  3
isocp.shx
  0
STYLE
  2
KICADBI
  70
0
  40
0
  41
1
  42
1
  50
15
  71
0
  3
isocp.shx
  0
ENDTAB
  0
TABLE
  2
LAYER
  70
1
  0
LAYER
  2
BLACK
  70
0
  62
7
  6
CONTINUOUS
  0
ENDTAB
  0
ENDSEC
  0
SECTION
  2
ENTITIES
0
LINE
8
BLACK
6
CONTINUOUS
10
5.18896
20
-4.52963
11
5.21596
21
-4.57012
0
LINE
8
BLACK
6
CONTINUOUS
10
5.21596
20
-4.57012
11
5.21637
21
-4.57106
0
LINE
8
BLACK
6
CONTINUOUS
10
5.21637
20
-4.57106
11
5.21615
21
-4.57307
0
LINE
8
BLACK
6
CONTINUOUS
10
5.21615
20
-4.57307
11
5.21468
21
-4.57447
0
LINE
8
BLACK
6
CONTINUOUS
10
5.21468
20
-4.57447
11
5.21267
21
-4.5746
0
LINE
8
BLACK
6
CONTINUOUS
10
5.21267
20
-4.5746
11
5.21104
21
-4.5734
0
LINE
8
BLACK
6
CONTINUOUS
10
5.21104
20
-4.5734
11
5.18404
21
-4.53291
0
LINE
8
BLACK
6
CONTINUOUS
10
5.18404
20
-4.53291
11
5.18363
21
-4.53197
0
LINE
8
BLACK
6
CONTINUOUS
10
5.18363
20
-4.53197
11
5.18385
21
-4.52996
0
LINE
8
BLACK
6
CONTINUOUS
10
5.18385
20
-4.52996
11
5.18532
21
-4.52856
0
LINE
8
BLACK
6
CONTINUOUS
10
5.18532
20
-4.52856
11
5.18733
21
-4.52843
0
LINE
8
BLACK
6
CONTINUOUS
10
5.18733
20
-4.52843
11
5.18896
21
-4.52963
0
LINE
8
BLACK
6
CONTINUOUS
10
5.17251
20
-4.52999
11
5.17265
21
-4.53011
0
LINE
8
BLACK
6
CONTINUOUS
10
5.17265
20
-4.53011
11
5.17282
21
-4.53013
0
LINE
8
BLACK
6
CONTINUOUS
10
5.17282
20
-4.53013
11
5.17582
21
-4.53163
0
LINE
8
BLACK
6
CONTINUOUS
10
5.17582
20
-4.53163
11
5.17653
21
-4.53215
0
LINE
8
BLACK
6
CONTINUOUS
10
5.17653
20
-4.53215
11
5.17659
21
-4.53218
0
LINE
8
BLACK
6
CONTINUOUS
10
5.17659
20
-4.53218
11
5.17809
21
-4.53368
0
LINE
8
BLACK
6
CONTINUOUS
10
5.17809
20
-4.53368
11
5.1786
21
-4.5344
0
LINE
8
BLACK
6
CONTINUOUS
10
5.1786
20
-4.5344
11
5.17864
21
-4.53445
0
LINE
8
BLACK
6
CONTINUOUS
10
5.17864
20
-4.53445
11
5.18014
21
-4.53745
0
LINE
8
BLACK
6
CONTINUOUS
10
5.18014
20
-4.53745
11
5.18044
21
-4.53843
0
LINE
8
BLACK
6
CONTINUOUS
10
5.18044
20
-4.53843
11
5.1804
21
-4.5386
0
LINE
8
BLACK
6
CONTINUOUS
10
5.1804
20
-4.5386
11
5.18046
21
-4.53877
0
LINE
8
BLACK
6
CONTINUOUS
10
5.18046
20
-4.53877
11
5.18046
21
-4.54177
0
LINE
8
BLACK
6
CONTINUOUS
10
5.18046
20
-4.54177
11
5.18028
21
-4.54278
0
LINE
8
BLACK
6
CONTINUOUS
10
5.18028
20
-4.54278
11
5.18016
21
-4.54291
0
LINE
8
BLACK
6
CONTINUOUS
10
5.18016
20
-4.54291
11
5.18014
21
-4.54309
0
LINE
8
BLACK
6
CONTINUOUS
10
5.18014
20
-4.54309
11
5.17864
21
-4.54609
0
LINE
8
BLACK
6
CONTINUOUS
10
5.17864
20
-4.54609
11
5.17812
21
-4.5468
0
LINE
8
BLACK
6
CONTINUOUS
10
5.17812
20
-4.5468
11
5.17809
21
-4.54685
0
LINE
8
BLACK
6
CONTINUOUS
10
5.17809
20
-4.54685
11
5.17659
21
-4.54835
0
LINE
8
BLACK
6
CONTINUOUS
10
5.17659
20
-4.54835
11
5.17587
21
-4.54886
0
LINE
8
BLACK
6
CONTINUOUS
10
5.17587
20
-4.54886
11
5.17582
21
-4.54891
0
LINE
8
BLACK
6
CONTINUOUS
10
5.17582
20
-4.54891
11
5.17282
21
-4.55041
0
LINE
8
BLACK
6
CONTINUOUS
10
5.17282
20
-4.55041
11
5.17234
21
-4.55055
0
LINE
8
BLACK
6
CONTINUOUS
10
5.17234
20
-4.55055
11
5.17222
21
-4.55063
0
LINE
8
BLACK
6
CONTINUOUS
10
5.17222
20
-4.55063
11
5.16653
21
-4.55205
0
LINE
8
BLACK
6
CONTINUOUS
10
5.16653
20
-4.55205
11
5.16425
21
-4.55319
0
LINE
8
BLACK
6
CONTINUOUS
10
5.16425
20
-4.55319
11
5.16343
21
-4.55401
0
LINE
8
BLACK
6
CONTINUOUS
10
5.16343
20
-4.55401
11
5.16246
21
-4.55596
0
LINE
8
BLACK
6
CONTINUOUS
10
5.16246
20
-4.55596
11
5.16246
21
-4.55757
0
LINE
8
BLACK
6
CONTINUOUS
10
5.16246
20
-4.55757
11
5.16343
21
-4.55951
0
LINE
8
BLACK
6
CONTINUOUS
10
5.16343
20
-4.55951
11
5.16425
21
-4.56034
0
LINE
8
BLACK
6
CONTINUOUS
10
5.16425
20
-4.56034
11
5.1662
21
-4.56131
0
LINE
8
BLACK
6
CONTINUOUS
10
5.1662
20
-4.56131
11
5.17252
21
-4.56131
0
LINE
8
BLACK
6
CONTINUOUS
10
5.17252
20
-4.56131
11
5.17657
21
-4.55996
0
LINE
8
BLACK
6
CONTINUOUS
10
5.17657
20
-4.55996
11
5.17758
21
-4.55981
0
LINE
8
BLACK
6
CONTINUOUS
10
5.17758
20
-4.55981
11
5.17946
21
-4.56055
0
LINE
8
BLACK
6
CONTINUOUS
10
5.17946
20
-4.56055
11
5.18042
21
-4.56233
0
LINE
8
BLACK
6
CONTINUOUS
10
5.18042
20
-4.56233
11
5.18002
21
-4.56431
0
LINE
8
BLACK
6
CONTINUOUS
10
5.18002
20
-4.56431
11
5.17844
21
-4.56557
0
LINE
8
BLACK
6
CONTINUOUS
10
5.17844
20
-4.56557
11
5.17394
21
-4.56706
0
LINE
8
BLACK
6
CONTINUOUS
10
5.17394
20
-4.56706
11
5.17306
21
-4.56719
0
LINE
8
BLACK
6
CONTINUOUS
10
5.17306
20
-4.56719
11
5.173
21
-4.56722
0
LINE
8
BLACK
6
CONTINUOUS
10
5.173
20
-4.56722
11
5.1655
21
-4.56722
0
LINE
8
BLACK
6
CONTINUOUS
10
5.1655
20
-4.56722
11
5.16449
21
-4.56704
0
LINE
8
BLACK
6
CONTINUOUS
10
5.16449
20
-4.56704
11
5.16436
21
-4.56692
0
LINE
8
BLACK
6
CONTINUOUS
10
5.16436
20
-4.56692
11
5.16418
21
-4.5669
0
LINE
8
BLACK
6
CONTINUOUS
10
5.16418
20
-4.5669
11
5.16118
21
-4.5654
0
LINE
8
BLACK
6
CONTINUOUS
10
5.16118
20
-4.5654
11
5.16047
21
-4.56488
0
LINE
8
BLACK
6
CONTINUOUS
10
5.16047
20
-4.56488
11
5.16042
21
-4.56485
0
LINE
8
BLACK
6
CONTINUOUS
10
5.16042
20
-4.56485
11
5.15892
21
-4.56335
0
LINE
8
BLACK
6
CONTINUOUS
10
5.15892
20
-4.56335
11
5.15841
21
-4.56263
0
LINE
8
BLACK
6
CONTINUOUS
10
5.15841
20
-4.56263
11
5.15836
21
-4.56258
0
LINE
8
BLACK
6
CONTINUOUS
10
5.15836
20
-4.56258
11
5.15686
21
-4.55958
0
LINE
8
BLACK
6
CONTINUOUS
10
5.15686
20
-4.55958
11
5.15657
21
-4.5586
0
LINE
8
BLACK
6
CONTINUOUS
10
5.15657
20
-4.5586
11
5.15661
21
-4.55843
0
LINE
8
BLACK
6
CONTINUOUS
10
5.15661
20
-4.55843
11
5.15655
21
-4.55826
0
LINE
8
BLACK
6
CONTINUOUS
10
5.15655
20
-4.55826
11
5.15655
21
-4.55526
0
LINE
8
BLACK
6
CONTINUOUS
10
5.15655
20
-4.55526
11
5.15673
21
-4.55425
0
LINE
8
BLACK
6
CONTINUOUS
10
5.15673
20
-4.55425
11
5.15684
21
-4.55412
0
LINE
8
BLACK
6
CONTINUOUS
10
5.15684
20
-4.55412
11
5.15686
21
-4.55394
0
LINE
8
BLACK
6
CONTINUOUS
10
5.15686
20
-4.55394
11
5.15836
21
-4.55094
0
LINE
8
BLACK
6
CONTINUOUS
10
5.15836
20
-4.55094
11
5.15889
21
-4.55024
0
LINE
8
BLACK
6
CONTINUOUS
10
5.15889
20
-4.55024
11
5.15892
21
-4.55018
0
LINE
8
BLACK
6
CONTINUOUS
10
5.15892
20
-4.55018
11
5.16042
21
-4.54868
0
LINE
8
BLACK
6
CONTINUOUS
10
5.16042
20
-4.54868
11
5.16114
21
-4.54817
0
LINE
8
BLACK
6
CONTINUOUS
10
5.16114
20
-4.54817
11
5.16118
21
-4.54812
0
LINE
8
BLACK
6
CONTINUOUS
10
5.16118
20
-4.54812
11
5.16418
21
-4.54662
0
LINE
8
BLACK
6
CONTINUOUS
10
5.16418
20
-4.54662
11
5.16467
21
-4.54648
0
LINE
8
BLACK
6
CONTINUOUS
10
5.16467
20
-4.54648
11
5.16479
21
-4.5464
0
LINE
8
BLACK
6
CONTINUOUS
10
5.16479
20
-4.5464
11
5.17047
21
-4.54498
0
LINE
8
BLACK
6
CONTINUOUS
10
5.17047
20
-4.54498
11
5.17275
21
-4.54384
0
LINE
8
BLACK
6
CONTINUOUS
10
5.17275
20
-4.54384
11
5.17358
21
-4.54302
0
LINE
8
BLACK
6
CONTINUOUS
10
5.17358
20
-4.54302
11
5.17455
21
-4.54107
0
LINE
8
BLACK
6
CONTINUOUS
10
5.17455
20
-4.54107
11
5.17455
21
-4.53946
0
LINE
8
BLACK
6
CONTINUOUS
10
5.17455
20
-4.53946
11
5.17358
21
-4.53752
0
LINE
8
BLACK
6
CONTINUOUS
10
5.17358
20
-4.53752
11
5.17275
21
-4.53669
0
LINE
8
BLACK
6
CONTINUOUS
10
5.17275
20
-4.53669
11
5.17081
21
-4.53572
0
LINE
8
BLACK
6
CONTINUOUS
10
5.17081
20
-4.53572
11
5.16448
21
-4.53572
0
LINE
8
BLACK
6
CONTINUOUS
10
5.16448
20
-4.53572
11
5.16044
21
-4.53707
0
LINE
8
BLACK
6
CONTINUOUS
10
5.16044
20
-4.53707
11
5.15942
21
-4.53722
0
LINE
8
BLACK
6
CONTINUOUS
10
5.15942
20
-4.53722
11
5.15755
21
-4.53648
0
LINE
8
BLACK
6
CONTINUOUS
10
5.15755
20
-4.53648
11
5.15658
21
-4.5347
0
LINE
8
BLACK
6
CONTINUOUS
10
5.15658
20
-4.5347
11
5.15699
21
-4.53272
0
LINE
8
BLACK
6
CONTINUOUS
10
5.15699
20
-4.53272
11
5.15857
21
-4.53147
0
LINE
8
BLACK
6
CONTINUOUS
10
5.15857
20
-4.53147
11
5.16307
21
-4.52997
0
LINE
8
BLACK
6
CONTINUOUS
10
5.16307
20
-4.52997
11
5.16394
21
-4.52984
0
LINE
8
BLACK
6
CONTINUOUS
10
5.16394
20
-4.52984
11
5.164
21
-4.52981
0
LINE
8
BLACK
6
CONTINUOUS
10
5.164
20
-4.52981
11
5.1715
21
-4.52981
0
LINE
8
BLACK
6
CONTINUOUS
10
5.1715
20
-4.52981
11
5.17251
21
-4.52999
0
LINE
8
BLACK
6
CONTINUOUS
10
5.23237
20
-4.52997
11
5.23243
21
-4.52997
0
LINE
8
BLACK
6
CONTINUOUS
10
5.23243
20
-4.52997
11
5.23693
21
-4.53147
0
LINE
8
BLACK
6
CONTINUOUS
10
5.23693
20
-4.53147
11
5.23783
21
-4.53195
0
LINE
8
BLACK
6
CONTINUOUS
10
5.23783
20
-4.53195
11
5.23792
21
-4.5321
0
LINE
8
BLACK
6
CONTINUOUS
10
5.23792
20
-4.5321
11
5.23808
21
-4.53218
0
LINE
8
BLACK
6
CONTINUOUS
10
5.23808
20
-4.53218
11
5.24108
21
-4.53518
0
LINE
8
BLACK
6
CONTINUOUS
10
5.24108
20
-4.53518
11
5.24159
21
-4.5359
0
LINE
8
BLACK
6
CONTINUOUS
10
5.24159
20
-4.5359
11
5.24164
21
-4.53595
0
LINE
8
BLACK
6
CONTINUOUS
10
5.24164
20
-4.53595
11
5.24314
21
-4.53895
0
LINE
8
BLACK
6
CONTINUOUS
10
5.24314
20
-4.53895
11
5.24328
21
-4.53943
0
LINE
8
BLACK
6
CONTINUOUS
10
5.24328
20
-4.53943
11
5.24336
21
-4.53955
0
LINE
8
BLACK
6
CONTINUOUS
10
5.24336
20
-4.53955
11
5.24486
21
-4.54555
0
LINE
8
BLACK
6
CONTINUOUS
10
5.24486
20
-4.54555
11
5.2449
21
-4.54614
0
LINE
8
BLACK
6
CONTINUOUS
10
5.2449
20
-4.54614
11
5.24495
21
-4.54627
0
LINE
8
BLACK
6
CONTINUOUS
10
5.24495
20
-4.54627
11
5.24495
21
-4.55077
0
LINE
8
BLACK
6
CONTINUOUS
10
5.24495
20
-4.55077
11
5.24485
21
-4.55135
0
LINE
8
BLACK
6
CONTINUOUS
10
5.24485
20
-4.55135
11
5.24486
21
-4.55148
0
LINE
8
BLACK
6
CONTINUOUS
10
5.24486
20
-4.55148
11
5.24336
21
-4.55748
0
LINE
8
BLACK
6
CONTINUOUS
10
5.24336
20
-4.55748
11
5.24315
21
-4.55795
0
LINE
8
BLACK
6
CONTINUOUS
10
5.24315
20
-4.55795
11
5.24314
21
-4.55809
0
LINE
8
BLACK
6
CONTINUOUS
10
5.24314
20
-4.55809
11
5.24164
21
-4.56108
0
LINE
8
BLACK
6
CONTINUOUS
10
5.24164
20
-4.56108
11
5.24111
21
-4.56179
0
LINE
8
BLACK
6
CONTINUOUS
10
5.24111
20
-4.56179
11
5.24108
21
-4.56185
0
LINE
8
BLACK
6
CONTINUOUS
10
5.24108
20
-4.56185
11
5.23808
21
-4.56485
0
LINE
8
BLACK
6
CONTINUOUS
10
5.23808
20
-4.56485
11
5.23724
21
-4.56544
0
LINE
8
BLACK
6
CONTINUOUS
10
5.23724
20
-4.56544
11
5.23707
21
-4.56546
0
LINE
8
BLACK
6
CONTINUOUS
10
5.23707
20
-4.56546
11
5.23693
21
-4.56557
0
LINE
8
BLACK
6
CONTINUOUS
10
5.23693
20
-4.56557
11
5.23243
21
-4.56706
0
LINE
8
BLACK
6
CONTINUOUS
10
5.23243
20
-4.56706
11
5.23156
21
-4.56719
0
LINE
8
BLACK
6
CONTINUOUS
10
5.23156
20
-4.56719
11
5.2315
21
-4.56722
0
LINE
8
BLACK
6
CONTINUOUS
10
5.2315
20
-4.56722
11
5.2285
21
-4.56722
0
LINE
8
BLACK
6
CONTINUOUS
10
5.2285
20
-4.56722
11
5.22763
21
-4.56706
0
LINE
8
BLACK
6
CONTINUOUS
10
5.22763
20
-4.56706
11
5.22756
21
-4.56706
0
LINE
8
BLACK
6
CONTINUOUS
10
5.22756
20
-4.56706
11
5.22306
21
-4.56557
0
LINE
8
BLACK
6
CONTINUOUS
10
5.22306
20
-4.56557
11
5.22216
21
-4.56508
0
LINE
8
BLACK
6
CONTINUOUS
10
5.22216
20
-4.56508
11
5.22207
21
-4.56493
0
LINE
8
BLACK
6
CONTINUOUS
10
5.22207
20
-4.56493
11
5.22191
21
-4.56485
0
LINE
8
BLACK
6
CONTINUOUS
10
5.22191
20
-4.56485
11
5.22041
21
-4.56335
0
LINE
8
BLACK
6
CONTINUOUS
10
5.22041
20
-4.56335
11
5.21982
21
-4.56251
0
LINE
8
BLACK
6
CONTINUOUS
10
5.21982
20
-4.56251
11
5.21964
21
-4.5605
0
LINE
8
BLACK
6
CONTINUOUS
10
5.21964
20
-4.5605
11
5.2208
21
-4.55885
0
LINE
8
BLACK
6
CONTINUOUS
10
5.2208
20
-4.55885
11
5.22275
21
-4.55832
0
LINE
8
BLACK
6
CONTINUOUS
10
5.22275
20
-4.55832
11
5.22459
21
-4.55918
0
LINE
8
BLACK
6
CONTINUOUS
10
5.22459
20
-4.55918
11
5.22559
21
-4.56018
0
LINE
8
BLACK
6
CONTINUOUS
10
5.22559
20
-4.56018
11
5.22898
21
-4.56131
0
LINE
8
BLACK
6
CONTINUOUS
10
5.22898
20
-4.56131
11
5.23102
21
-4.56131
0
LINE
8
BLACK
6
CONTINUOUS
10
5.23102
20
-4.56131
11
5.2344
21
-4.56018
0
LINE
8
BLACK
6
CONTINUOUS
10
5.2344
20
-4.56018
11
5.23657
21
-4.55802
0
LINE
8
BLACK
6
CONTINUOUS
10
5.23657
20
-4.55802
11
5.23771
21
-4.55573
0
LINE
8
BLACK
6
CONTINUOUS
10
5.23771
20
-4.55573
11
5.23904
21
-4.5504
0
LINE
8
BLACK
6
CONTINUOUS
10
5.23904
20
-4.5504
11
5.23904
21
-4.54663
0
LINE
8
BLACK
6
CONTINUOUS
10
5.23904
20
-4.54663
11
5.23771
21
-4.5413
0
LINE
8
BLACK
6
CONTINUOUS
10
5.23771
20
-4.5413
11
5.23657
21
-4.53902
0
LINE
8
BLACK
6
CONTINUOUS
10
5.23657
20
-4.53902
11
5.2344
21
-4.53685
0
LINE
8
BLACK
6
CONTINUOUS
10
5.2344
20
-4.53685
11
5.23102
21
-4.53572
0
LINE
8
BLACK
6
CONTINUOUS
10
5.23102
20
-4.53572
11
5.22898
21
-4.53572
0
LINE
8
BLACK
6
CONTINUOUS
10
5.22898
20
-4.53572
11
5.22559
21
-4.53685
0
LINE
8
BLACK
6
CONTINUOUS
10
5.22559
20
-4.53685
11
5.22459
21
-4.53786
0
LINE
8
BLACK
6
CONTINUOUS
10
5.22459
20
-4.53786
11
5.22374
21
-4.53844
0
LINE
8
BLACK
6
CONTINUOUS
10
5.22374
20
-4.53844
11
5.22173
21
-4.53862
0
LINE
8
BLACK
6
CONTINUOUS
10
5.22173
20
-4.53862
11
5.22008
21
-4.53746
0
LINE
8
BLACK
6
CONTINUOUS
10
5.22008
20
-4.53746
11
5.21956
21
-4.53551
0
LINE
8
BLACK
6
CONTINUOUS
10
5.21956
20
-4.53551
11
5.22041
21
-4.53368
0
LINE
8
BLACK
6
CONTINUOUS
10
5.22041
20
-4.53368
11
5.22191
21
-4.53218
0
LINE
8
BLACK
6
CONTINUOUS
10
5.22191
20
-4.53218
11
5.22275
21
-4.53159
0
LINE
8
BLACK
6
CONTINUOUS
10
5.22275
20
-4.53159
11
5.22292
21
-4.53158
0
LINE
8
BLACK
6
CONTINUOUS
10
5.22292
20
-4.53158
11
5.22306
21
-4.53147
0
LINE
8
BLACK
6
CONTINUOUS
10
5.22306
20
-4.53147
11
5.22756
21
-4.52997
0
LINE
8
BLACK
6
CONTINUOUS
10
5.22756
20
-4.52997
11
5.22844
21
-4.52984
0
LINE
8
BLACK
6
CONTINUOUS
10
5.22844
20
-4.52984
11
5.2285
21
-4.52981
0
LINE
8
BLACK
6
CONTINUOUS
10
5.2285
20
-4.52981
11
5.2315
21
-4.52981
0
LINE
8
BLACK
6
CONTINUOUS
10
5.2315
20
-4.52981
11
5.23237
21
-4.52997
0
LINE
8
BLACK
6
CONTINUOUS
10
5.2685
20
-4.52999
11
5.26864
21
-4.53011
0
LINE
8
BLACK
6
CONTINUOUS
10
5.26864
20
-4.53011
11
5.26881
21
-4.53013
0
LINE
8
BLACK
6
CONTINUOUS
10
5.26881
20
-4.53013
11
5.27181
21
-4.53163
0
LINE
8
BLACK
6
CONTINUOUS
10
5.27181
20
-4.53163
11
5.27252
21
-4.53215
0
LINE
8
BLACK
6
CONTINUOUS
10
5.27252
20
-4.53215
11
5.27258
21
-4.53218
0
LINE
8
BLACK
6
CONTINUOUS
10
5.27258
20
-4.53218
11
5.27408
21
-4.53368
0
LINE
8
BLACK
6
CONTINUOUS
10
5.27408
20
-4.53368
11
5.27467
21
-4.53452
0
LINE
8
BLACK
6
CONTINUOUS
10
5.27467
20
-4.53452
11
5.27484
21
-4.53653
0
LINE
8
BLACK
6
CONTINUOUS
10
5.27484
20
-4.53653
11
5.27368
21
-4.53819
0
LINE
8
BLACK
6
CONTINUOUS
10
5.27368
20
-4.53819
11
5.27173
21
-4.53871
0
LINE
8
BLACK
6
CONTINUOUS
10
5.27173
20
-4.53871
11
5.2699
21
-4.53786
0
LINE
8
BLACK
6
CONTINUOUS
10
5.2699
20
-4.53786
11
5.26874
21
-4.53669
0
LINE
8
BLACK
6
CONTINUOUS
10
5.26874
20
-4.53669
11
5.26679
21
-4.53572
0
LINE
8
BLACK
6
CONTINUOUS
10
5.26679
20
-4.53572
11
5.26069
21
-4.53572
0
LINE
8
BLACK
6
CONTINUOUS
10
5.26069
20
-4.53572
11
5.25874
21
-4.53669
0
LINE
8
BLACK
6
CONTINUOUS
10
5.25874
20
-4.53669
11
5.25792
21
-4.53752
0
LINE
8
BLACK
6
CONTINUOUS
10
5.25792
20
-4.53752
11
5.25695
21
-4.53946
0
LINE
8
BLACK
6
CONTINUOUS
10
5.25695
20
-4.53946
11
5.25695
21
-4.54129
0
LINE
8
BLACK
6
CONTINUOUS
10
5.25695
20
-4.54129
11
5.25807
21
-4.54467
0
LINE
8
BLACK
6
CONTINUOUS
10
5.25807
20
-4.54467
11
5.27558
21
-4.56218
0
LINE
8
BLACK
6
CONTINUOUS
10
5.27558
20
-4.56218
11
5.27595
21
-4.5627
0
LINE
8
BLACK
6
CONTINUOUS
10
5.27595
20
-4.5627
11
5.27605
21
-4.56279
0
LINE
8
BLACK
6
CONTINUOUS
10
5.27605
20
-4.56279
11
5.27606
21
-4.56287
0
LINE
8
BLACK
6
CONTINUOUS
10
5.27606
20
-4.56287
11
5.27617
21
-4.56302
0
LINE
8
BLACK
6
CONTINUOUS
10
5.27617
20
-4.56302
11
5.27624
21
-4.5639
0
LINE
8
BLACK
6
CONTINUOUS
10
5.27624
20
-4.5639
11
5.2764
21
-4.56478
0
LINE
8
BLACK
6
CONTINUOUS
10
5.2764
20
-4.56478
11
5.27633
21
-4.56489
0
LINE
8
BLACK
6
CONTINUOUS
10
5.27633
20
-4.56489
11
5.27634
21
-4.56503
0
LINE
8
BLACK
6
CONTINUOUS
10
5.27634
20
-4.56503
11
5.27583
21
-4.56576
0
LINE
8
BLACK
6
CONTINUOUS
10
5.27583
20
-4.56576
11
5.27539
21
-4.56653
0
LINE
8
BLACK
6
CONTINUOUS
10
5.27539
20
-4.56653
11
5.27526
21
-4.56657
0
LINE
8
BLACK
6
CONTINUOUS
10
5.27526
20
-4.56657
11
5.27518
21
-4.56668
0
LINE
8
BLACK
6
CONTINUOUS
10
5.27518
20
-4.56668
11
5.27433
21
-4.56691
0
LINE
8
BLACK
6
CONTINUOUS
10
5.27433
20
-4.56691
11
5.27349
21
-4.56722
0
LINE
8
BLACK
6
CONTINUOUS
10
5.27349
20
-4.56722
11
5.25399
21
-4.56722
0
LINE
8
BLACK
6
CONTINUOUS
10
5.25399
20
-4.56722
11
5.25298
21
-4.56704
0
LINE
8
BLACK
6
CONTINUOUS
10
5.25298
20
-4.56704
11
5.25144
21
-4.56574
0
LINE
8
BLACK
6
CONTINUOUS
10
5.25144
20
-4.56574
11
5.25109
21
-4.56375
0
LINE
8
BLACK
6
CONTINUOUS
10
5.25109
20
-4.56375
11
5.2521
21
-4.562
0
LINE
8
BLACK
6
CONTINUOUS
10
5.2521
20
-4.562
11
5.25399
21
-4.56131
0
LINE
8
BLACK
6
CONTINUOUS
10
5.25399
20
-4.56131
11
5.26636
21
-4.56131
0
LINE
8
BLACK
6
CONTINUOUS
10
5.26636
20
-4.56131
11
5.25341
21
-4.54835
0
LINE
8
BLACK
6
CONTINUOUS
10
5.25341
20
-4.54835
11
5.25282
21
-4.54751
0
LINE
8
BLACK
6
CONTINUOUS
10
5.25282
20
-4.54751
11
5.2528
21
-4.54734
0
LINE
8
BLACK
6
CONTINUOUS
10
5.2528
20
-4.54734
11
5.25269
21
-4.5472
0
LINE
8
BLACK
6
CONTINUOUS
10
5.25269
20
-4.5472
11
5.25119
21
-4.5427
0
LINE
8
BLACK
6
CONTINUOUS
10
5.25119
20
-4.5427
11
5.25106
21
-4.54183
0
LINE
8
BLACK
6
CONTINUOUS
10
5.25106
20
-4.54183
11
5.25104
21
-4.54177
0
LINE
8
BLACK
6
CONTINUOUS
10
5.25104
20
-4.54177
11
5.25104
21
-4.53877
0
LINE
8
BLACK
6
CONTINUOUS
10
5.25104
20
-4.53877
11
5.25122
21
-4.53776
0
LINE
8
BLACK
6
CONTINUOUS
10
5.25122
20
-4.53776
11
5.25133
21
-4.53762
0
LINE
8
BLACK
6
CONTINUOUS
10
5.25133
20
-4.53762
11
5.25135
21
-4.53745
0
LINE
8
BLACK
6
CONTINUOUS
10
5.25135
20
-4.53745
11
5.25285
21
-4.53445
0
LINE
8
BLACK
6
CONTINUOUS
10
5.25285
20
-4.53445
11
5.25338
21
-4.53374
0
LINE
8
BLACK
6
CONTINUOUS
10
5.25338
20
-4.53374
11
5.25341
21
-4.53368
0
LINE
8
BLACK
6
CONTINUOUS
10
5.25341
20
-4.53368
11
5.2549
21
-4.53218
0
LINE
8
BLACK
6
CONTINUOUS
10
5.2549
20
-4.53218
11
5.25563
21
-4.53167
0
LINE
8
BLACK
6
CONTINUOUS
10
5.25563
20
-4.53167
11
5.25567
21
-4.53163
0
LINE
8
BLACK
6
CONTINUOUS
10
5.25567
20
-4.53163
11
5.25867
21
-4.53013
0
LINE
8
BLACK
6
CONTINUOUS
10
5.25867
20
-4.53013
11
5.25965
21
-4.52983
0
LINE
8
BLACK
6
CONTINUOUS
10
5.25965
20
-4.52983
11
5.25983
21
-4.52988
0
LINE
8
BLACK
6
CONTINUOUS
10
5.25983
20
-4.52988
11
5.25999
21
-4.52981
0
LINE
8
BLACK
6
CONTINUOUS
10
5.25999
20
-4.52981
11
5.26749
21
-4.52981
0
LINE
8
BLACK
6
CONTINUOUS
10
5.26749
20
-4.52981
11
5.2685
21
-4.52999
0
LINE
8
BLACK
6
CONTINUOUS
10
5.11677
20
-4.53087
11
5.11746
21
-4.53277
0
LINE
8
BLACK
6
CONTINUOUS
10
5.11746
20
-4.53277
11
5.11746
21
-4.56426
0
LINE
8
BLACK
6
CONTINUOUS
10
5.11746
20
-4.56426
11
5.11729
21
-4.56527
0
LINE
8
BLACK
6
CONTINUOUS
10
5.11729
20
-4.56527
11
5.11599
21
-4.56682
0
LINE
8
BLACK
6
CONTINUOUS
10
5.11599
20
-4.56682
11
5.114
21
-4.56717
0
LINE
8
BLACK
6
CONTINUOUS
10
5.114
20
-4.56717
11
5.11225
21
-4.56616
0
LINE
8
BLACK
6
CONTINUOUS
10
5.11225
20
-4.56616
11
5.11156
21
-4.56426
0
LINE
8
BLACK
6
CONTINUOUS
10
5.11156
20
-4.56426
11
5.11156
21
-4.53277
0
LINE
8
BLACK
6
CONTINUOUS
10
5.11156
20
-4.53277
11
5.11174
21
-4.53176
0
LINE
8
BLACK
6
CONTINUOUS
10
5.11174
20
-4.53176
11
5.11303
21
-4.53021
0
LINE
8
BLACK
6
CONTINUOUS
10
5.11303
20
-4.53021
11
5.11502
21
-4.52986
0
LINE
8
BLACK
6
CONTINUOUS
10
5.11502
20
-4.52986
11
5.11677
21
-4.53087
0
LINE
8
BLACK
6
CONTINUOUS
10
5.14639
20
-4.52988
11
5.14652
21
-4.52986
0
LINE
8
BLACK
6
CONTINUOUS
10
5.14652
20
-4.52986
11
5.14663
21
-4.52993
0
LINE
8
BLACK
6
CONTINUOUS
10
5.14663
20
-4.52993
11
5.14702
21
-4.52999
0
LINE
8
BLACK
6
CONTINUOUS
10
5.14702
20
-4.52999
11
5.1476
21
-4.53049
0
LINE
8
BLACK
6
CONTINUOUS
10
5.1476
20
-4.53049
11
5.14827
21
-4.53087
0
LINE
8
BLACK
6
CONTINUOUS
10
5.14827
20
-4.53087
11
5.14836
21
-4.53112
0
LINE
8
BLACK
6
CONTINUOUS
10
5.14836
20
-4.53112
11
5.14856
21
-4.53129
0
LINE
8
BLACK
6
CONTINUOUS
10
5.14856
20
-4.53129
11
5.1487
21
-4.53205
0
LINE
8
BLACK
6
CONTINUOUS
10
5.1487
20
-4.53205
11
5.14896
21
-4.53277
0
LINE
8
BLACK
6
CONTINUOUS
10
5.14896
20
-4.53277
11
5.14896
21
-4.56426
0
LINE
8
BLACK
6
CONTINUOUS
10
5.14896
20
-4.56426
11
5.14878
21
-4.56527
0
LINE
8
BLACK
6
CONTINUOUS
10
5.14878
20
-4.56527
11
5.14748
21
-4.56682
0
LINE
8
BLACK
6
CONTINUOUS
10
5.14748
20
-4.56682
11
5.14549
21
-4.56717
0
LINE
8
BLACK
6
CONTINUOUS
10
5.14549
20
-4.56717
11
5.14374
21
-4.56616
0
LINE
8
BLACK
6
CONTINUOUS
10
5.14374
20
-4.56616
11
5.14305
21
-4.56426
0
LINE
8
BLACK
6
CONTINUOUS
10
5.14305
20
-4.56426
11
5.14305
21
-4.55222
0
LINE
8
BLACK
6
CONTINUOUS
10
5.14305
20
-4.55222
11
5.13401
21
-4.55222
0
LINE
8
BLACK
6
CONTINUOUS
10
5.13401
20
-4.55222
11
5.133
21
-4.55204
0
LINE
8
BLACK
6
CONTINUOUS
10
5.133
20
-4.55204
11
5.13286
21
-4.55193
0
LINE
8
BLACK
6
CONTINUOUS
10
5.13286
20
-4.55193
11
5.13269
21
-4.55191
0
LINE
8
BLACK
6
CONTINUOUS
10
5.13269
20
-4.55191
11
5.12969
21
-4.55041
0
LINE
8
BLACK
6
CONTINUOUS
10
5.12969
20
-4.55041
11
5.12898
21
-4.54988
0
LINE
8
BLACK
6
CONTINUOUS
10
5.12898
20
-4.54988
11
5.12892
21
-4.54985
0
LINE
8
BLACK
6
CONTINUOUS
10
5.12892
20
-4.54985
11
5.12742
21
-4.54835
0
LINE
8
BLACK
6
CONTINUOUS
10
5.12742
20
-4.54835
11
5.12691
21
-4.54763
0
LINE
8
BLACK
6
CONTINUOUS
10
5.12691
20
-4.54763
11
5.12687
21
-4.54759
0
LINE
8
BLACK
6
CONTINUOUS
10
5.12687
20
-4.54759
11
5.12537
21
-4.54459
0
LINE
8
BLACK
6
CONTINUOUS
10
5.12537
20
-4.54459
11
5.12508
21
-4.5436
0
LINE
8
BLACK
6
CONTINUOUS
10
5.12508
20
-4.5436
11
5.12512
21
-4.54343
0
LINE
8
BLACK
6
CONTINUOUS
10
5.12512
20
-4.54343
11
5.12506
21
-4.54327
0
LINE
8
BLACK
6
CONTINUOUS
10
5.12506
20
-4.54327
11
5.12506
21
-4.53877
0
LINE
8
BLACK
6
CONTINUOUS
10
5.12506
20
-4.53877
11
5.12523
21
-4.53776
0
LINE
8
BLACK
6
CONTINUOUS
10
5.12523
20
-4.53776
11
5.12535
21
-4.53762
0
LINE
8
BLACK
6
CONTINUOUS
10
5.12535
20
-4.53762
11
5.12537
21
-4.53745
0
LINE
8
BLACK
6
CONTINUOUS
10
5.12537
20
-4.53745
11
5.12687
21
-4.53445
0
LINE
8
BLACK
6
CONTINUOUS
10
5.12687
20
-4.53445
11
5.12739
21
-4.53374
0
LINE
8
BLACK
6
CONTINUOUS
10
5.12739
20
-4.53374
11
5.12742
21
-4.53368
0
LINE
8
BLACK
6
CONTINUOUS
10
5.12742
20
-4.53368
11
5.12892
21
-4.53218
0
LINE
8
BLACK
6
CONTINUOUS
10
5.12892
20
-4.53218
11
5.12964
21
-4.53167
0
LINE
8
BLACK
6
CONTINUOUS
10
5.12964
20
-4.53167
11
5.12969
21
-4.53163
0
LINE
8
BLACK
6
CONTINUOUS
10
5.12969
20
-4.53163
11
5.13269
21
-4.53013
0
LINE
8
BLACK
6
CONTINUOUS
10
5.13269
20
-4.53013
11
5.13367
21
-4.52983
0
LINE
8
BLACK
6
CONTINUOUS
10
5.13367
20
-4.52983
11
5.13384
21
-4.52988
0
LINE
8
BLACK
6
CONTINUOUS
10
5.13384
20
-4.52988
11
5.13401
21
-4.52981
0
LINE
8
BLACK
6
CONTINUOUS
10
5.13401
20
-4.52981
11
5.14601
21
-4.52981
0
LINE
8
BLACK
6
CONTINUOUS
10
5.14601
20
-4.52981
11
5.14639
21
-4.52988
0
LINE
8
BLACK
6
CONTINUOUS
10
5.13276
20
-4.53669
11
5.13194
21
-4.53752
0
LINE
8
BLACK
6
CONTINUOUS
10
5.13194
20
-4.53752
11
5.13096
21
-4.53946
0
LINE
8
BLACK
6
CONTINUOUS
10
5.13096
20
-4.53946
11
5.13096
21
-4.54257
0
LINE
8
BLACK
6
CONTINUOUS
10
5.13096
20
-4.54257
11
5.13194
21
-4.54452
0
LINE
8
BLACK
6
CONTINUOUS
10
5.13194
20
-4.54452
11
5.13276
21
-4.54534
0
LINE
8
BLACK
6
CONTINUOUS
10
5.13276
20
-4.54534
11
5.13471
21
-4.54631
0
LINE
8
BLACK
6
CONTINUOUS
10
5.13471
20
-4.54631
11
5.14305
21
-4.54631
0
LINE
8
BLACK
6
CONTINUOUS
10
5.14305
20
-4.54631
11
5.14305
21
-4.53572
0
LINE
8
BLACK
6
CONTINUOUS
10
5.14305
20
-4.53572
11
5.13471
21
-4.53572
0
LINE
8
BLACK
6
CONTINUOUS
10
5.13471
20
-4.53572
11
5.13276
21
-4.53669
0
LINE
8
BLACK
6
CONTINUOUS
10
5.28775
20
-4.53087
11
5.28844
21
-4.53277
0
LINE
8
BLACK
6
CONTINUOUS
10
5.28844
20
-4.53277
11
5.28844
21
-4.56426
0
LINE
8
BLACK
6
CONTINUOUS
10
5.28844
20
-4.56426
11
5.28826
21
-4.56527
0
LINE
8
BLACK
6
CONTINUOUS
10
5.28826
20
-4.56527
11
5.28697
21
-4.56682
0
LINE
8
BLACK
6
CONTINUOUS
10
5.28697
20
-4.56682
11
5.28498
21
-4.56717
0
LINE
8
BLACK
6
CONTINUOUS
10
5.28498
20
-4.56717
11
5.28323
21
-4.56616
0
LINE
8
BLACK
6
CONTINUOUS
10
5.28323
20
-4.56616
11
5.28254
21
-4.56426
0
LINE
8
BLACK
6
CONTINUOUS
10
5.28254
20
-4.56426
11
5.28254
21
-4.53277
0
LINE
8
BLACK
6
CONTINUOUS
10
5.28254
20
-4.53277
11
5.28271
21
-4.53176
0
LINE
8
BLACK
6
CONTINUOUS
10
5.28271
20
-4.53176
11
5.28401
21
-4.53021
0
LINE
8
BLACK
6
CONTINUOUS
10
5.28401
20
-4.53021
11
5.286
21
-4.52986
0
LINE
8
BLACK
6
CONTINUOUS
10
5.286
20
-4.52986
11
5.28775
21
-4.53087
0
LINE
8
BLACK
6
CONTINUOUS
10
5.09413
20
-4.49576
11
5.09568
21
-4.49706
0
LINE
8
BLACK
6
CONTINUOUS
10
5.09568
20
-4.49706
11
5.09603
21
-4.49905
0
LINE
8
BLACK
6
CONTINUOUS
10
5.09603
20
-4.49905
11
5.09502
21
-4.5008
0
LINE
8
BLACK
6
CONTINUOUS
10
5.09502
20
-4.5008
11
5.09312
21
-4.50149
0
LINE
8
BLACK
6
CONTINUOUS
10
5.09312
20
-4.50149
11
5.07526
21
-4.50149
0
LINE
8
BLACK
6
CONTINUOUS
10
5.07526
20
-4.50149
11
5.0841
21
-4.51159
0
LINE
8
BLACK
6
CONTINUOUS
10
5.0841
20
-4.51159
11
5.08433
21
-4.51197
0
LINE
8
BLACK
6
CONTINUOUS
10
5.08433
20
-4.51197
11
5.08443
21
-4.51206
0
LINE
8
BLACK
6
CONTINUOUS
10
5.08443
20
-4.51206
11
5.08445
21
-4.51218
0
LINE
8
BLACK
6
CONTINUOUS
10
5.08445
20
-4.51218
11
5.08463
21
-4.51247
0
LINE
8
BLACK
6
CONTINUOUS
10
5.08463
20
-4.51247
11
5.08464
21
-4.51326
0
LINE
8
BLACK
6
CONTINUOUS
10
5.08464
20
-4.51326
11
5.08478
21
-4.51405
0
LINE
8
BLACK
6
CONTINUOUS
10
5.08478
20
-4.51405
11
5.08466
21
-4.51425
0
LINE
8
BLACK
6
CONTINUOUS
10
5.08466
20
-4.51425
11
5.08467
21
-4.51449
0
LINE
8
BLACK
6
CONTINUOUS
10
5.08467
20
-4.51449
11
5.08417
21
-4.51511
0
LINE
8
BLACK
6
CONTINUOUS
10
5.08417
20
-4.51511
11
5.08377
21
-4.5158
0
LINE
8
BLACK
6
CONTINUOUS
10
5.08377
20
-4.5158
11
5.08355
21
-4.51588
0
LINE
8
BLACK
6
CONTINUOUS
10
5.08355
20
-4.51588
11
5.0834
21
-4.51606
0
LINE
8
BLACK
6
CONTINUOUS
10
5.0834
20
-4.51606
11
5.08262
21
-4.51621
0
LINE
8
BLACK
6
CONTINUOUS
10
5.08262
20
-4.51621
11
5.08187
21
-4.51649
0
LINE
8
BLACK
6
CONTINUOUS
10
5.08187
20
-4.51649
11
5.07695
21
-4.51649
0
LINE
8
BLACK
6
CONTINUOUS
10
5.07695
20
-4.51649
11
5.07425
21
-4.51784
0
LINE
8
BLACK
6
CONTINUOUS
10
5.07425
20
-4.51784
11
5.07305
21
-4.51903
0
LINE
8
BLACK
6
CONTINUOUS
10
5.07305
20
-4.51903
11
5.0717
21
-4.52173
0
LINE
8
BLACK
6
CONTINUOUS
10
5.0717
20
-4.52173
11
5.0717
21
-4.52971
0
LINE
8
BLACK
6
CONTINUOUS
10
5.0717
20
-4.52971
11
5.07305
21
-4.53241
0
LINE
8
BLACK
6
CONTINUOUS
10
5.07305
20
-4.53241
11
5.07425
21
-4.5336
0
LINE
8
BLACK
6
CONTINUOUS
10
5.07425
20
-4.5336
11
5.07695
21
-4.53495
0
LINE
8
BLACK
6
CONTINUOUS
10
5.07695
20
-4.53495
11
5.0868
21
-4.53495
0
LINE
8
BLACK
6
CONTINUOUS
10
5.0868
20
-4.53495
11
5.0895
21
-4.5336
0
LINE
8
BLACK
6
CONTINUOUS
10
5.0895
20
-4.5336
11
5.09104
21
-4.53207
0
LINE
8
BLACK
6
CONTINUOUS
10
5.09104
20
-4.53207
11
5.09188
21
-4.53148
0
LINE
8
BLACK
6
CONTINUOUS
10
5.09188
20
-4.53148
11
5.09389
21
-4.5313
0
LINE
8
BLACK
6
CONTINUOUS
10
5.09389
20
-4.5313
11
5.09554
21
-4.53246
0
LINE
8
BLACK
6
CONTINUOUS
10
5.09554
20
-4.53246
11
5.09606
21
-4.53441
0
LINE
8
BLACK
6
CONTINUOUS
10
5.09606
20
-4.53441
11
5.09521
21
-4.53624
0
LINE
8
BLACK
6
CONTINUOUS
10
5.09521
20
-4.53624
11
5.09334
21
-4.53812
0
LINE
8
BLACK
6
CONTINUOUS
10
5.09334
20
-4.53812
11
5.09261
21
-4.53863
0
LINE
8
BLACK
6
CONTINUOUS
10
5.09261
20
-4.53863
11
5.09257
21
-4.53867
0
LINE
8
BLACK
6
CONTINUOUS
10
5.09257
20
-4.53867
11
5.08882
21
-4.54055
0
LINE
8
BLACK
6
CONTINUOUS
10
5.08882
20
-4.54055
11
5.08784
21
-4.54084
0
LINE
8
BLACK
6
CONTINUOUS
10
5.08784
20
-4.54084
11
5.08766
21
-4.5408
0
LINE
8
BLACK
6
CONTINUOUS
10
5.08766
20
-4.5408
11
5.0875
21
-4.54086
0
LINE
8
BLACK
6
CONTINUOUS
10
5.0875
20
-4.54086
11
5.07625
21
-4.54086
0
LINE
8
BLACK
6
CONTINUOUS
10
5.07625
20
-4.54086
11
5.07524
21
-4.54068
0
LINE
8
BLACK
6
CONTINUOUS
10
5.07524
20
-4.54068
11
5.07511
21
-4.54057
0
LINE
8
BLACK
6
CONTINUOUS
10
5.07511
20
-4.54057
11
5.07493
21
-4.54055
0
LINE
8
BLACK
6
CONTINUOUS
10
5.07493
20
-4.54055
11
5.07118
21
-4.53867
0
LINE
8
BLACK
6
CONTINUOUS
10
5.07118
20
-4.53867
11
5.07047
21
-4.53815
0
LINE
8
BLACK
6
CONTINUOUS
10
5.07047
20
-4.53815
11
5.07041
21
-4.53812
0
LINE
8
BLACK
6
CONTINUOUS
10
5.07041
20
-4.53812
11
5.06854
21
-4.53624
0
LINE
8
BLACK
6
CONTINUOUS
10
5.06854
20
-4.53624
11
5.06803
21
-4.53552
0
LINE
8
BLACK
6
CONTINUOUS
10
5.06803
20
-4.53552
11
5.06799
21
-4.53548
0
LINE
8
BLACK
6
CONTINUOUS
10
5.06799
20
-4.53548
11
5.06611
21
-4.53173
0
LINE
8
BLACK
6
CONTINUOUS
10
5.06611
20
-4.53173
11
5.06582
21
-4.53074
0
LINE
8
BLACK
6
CONTINUOUS
10
5.06582
20
-4.53074
11
5.06586
21
-4.53057
0
LINE
8
BLACK
6
CONTINUOUS
10
5.06586
20
-4.53057
11
5.0658
21
-4.53041
0
LINE
8
BLACK
6
CONTINUOUS
10
5.0658
20
-4.53041
11
5.0658
21
-4.52103
0
LINE
8
BLACK
6
CONTINUOUS
10
5.0658
20
-4.52103
11
5.06598
21
-4.52002
0
LINE
8
BLACK
6
CONTINUOUS
10
5.06598
20
-4.52002
11
5.06609
21
-4.51989
0
LINE
8
BLACK
6
CONTINUOUS
10
5.06609
20
-4.51989
11
5.06611
21
-4.51971
0
LINE
8
BLACK
6
CONTINUOUS
10
5.06611
20
-4.51971
11
5.06799
21
-4.51596
0
LINE
8
BLACK
6
CONTINUOUS
10
5.06799
20
-4.51596
11
5.06851
21
-4.51525
0
LINE
8
BLACK
6
CONTINUOUS
10
5.06851
20
-4.51525
11
5.06854
21
-4.5152
0
LINE
8
BLACK
6
CONTINUOUS
10
5.06854
20
-4.5152
11
5.07041
21
-4.51332
0
LINE
8
BLACK
6
CONTINUOUS
10
5.07041
20
-4.51332
11
5.07114
21
-4.51281
0
LINE
8
BLACK
6
CONTINUOUS
10
5.07114
20
-4.51281
11
5.07118
21
-4.51277
0
LINE
8
BLACK
6
CONTINUOUS
10
5.07118
20
-4.51277
11
5.07493
21
-4.51089
0
LINE
8
BLACK
6
CONTINUOUS
10
5.07493
20
-4.51089
11
5.07549
21
-4.51073
0
LINE
8
BLACK
6
CONTINUOUS
10
5.07549
20
-4.51073
11
5.06653
21
-4.50048
0
LINE
8
BLACK
6
CONTINUOUS
10
5.06653
20
-4.50048
11
5.0663
21
-4.5001
0
LINE
8
BLACK
6
CONTINUOUS
10
5.0663
20
-4.5001
11
5.06619
21
-4.50001
0
LINE
8
BLACK
6
CONTINUOUS
10
5.06619
20
-4.50001
11
5.06617
21
-4.49989
0
LINE
8
BLACK
6
CONTINUOUS
10
5.06617
20
-4.49989
11
5.066
21
-4.4996
0
LINE
8
BLACK
6
CONTINUOUS
10
5.066
20
-4.4996
11
5.06598
21
-4.49881
0
LINE
8
BLACK
6
CONTINUOUS
10
5.06598
20
-4.49881
11
5.06584
21
-4.49802
0
LINE
8
BLACK
6
CONTINUOUS
10
5.06584
20
-4.49802
11
5.06596
21
-4.49782
0
LINE
8
BLACK
6
CONTINUOUS
10
5.06596
20
-4.49782
11
5.06596
21
-4.49758
0
LINE
8
BLACK
6
CONTINUOUS
10
5.06596
20
-4.49758
11
5.06646
21
-4.49696
0
LINE
8
BLACK
6
CONTINUOUS
10
5.06646
20
-4.49696
11
5.06685
21
-4.49627
0
LINE
8
BLACK
6
CONTINUOUS
10
5.06685
20
-4.49627
11
5.06707
21
-4.49619
0
LINE
8
BLACK
6
CONTINUOUS
10
5.06707
20
-4.49619
11
5.06722
21
-4.49601
0
LINE
8
BLACK
6
CONTINUOUS
10
5.06722
20
-4.49601
11
5.068
21
-4.49586
0
LINE
8
BLACK
6
CONTINUOUS
10
5.068
20
-4.49586
11
5.06875
21
-4.49558
0
LINE
8
BLACK
6
CONTINUOUS
10
5.06875
20
-4.49558
11
5.09312
21
-4.49558
0
LINE
8
BLACK
6
CONTINUOUS
10
5.09312
20
-4.49558
11
5.09413
21
-4.49576
0
LINE
8
BLACK
6
CONTINUOUS
10
5.31066
20
-4.49571
11
5.31083
21
-4.4957
0
LINE
8
BLACK
6
CONTINUOUS
10
5.31083
20
-4.4957
11
5.31152
21
-4.49621
0
LINE
8
BLACK
6
CONTINUOUS
10
5.31152
20
-4.49621
11
5.31226
21
-4.49664
0
LINE
8
BLACK
6
CONTINUOUS
10
5.31226
20
-4.49664
11
5.31232
21
-4.4968
0
LINE
8
BLACK
6
CONTINUOUS
10
5.31232
20
-4.4968
11
5.31246
21
-4.4969
0
LINE
8
BLACK
6
CONTINUOUS
10
5.31246
20
-4.4969
11
5.31604
21
-4.50228
0
LINE
8
BLACK
6
CONTINUOUS
10
5.31604
20
-4.50228
11
5.31925
21
-4.50548
0
LINE
8
BLACK
6
CONTINUOUS
10
5.31925
20
-4.50548
11
5.32257
21
-4.50714
0
LINE
8
BLACK
6
CONTINUOUS
10
5.32257
20
-4.50714
11
5.32339
21
-4.50775
0
LINE
8
BLACK
6
CONTINUOUS
10
5.32339
20
-4.50775
11
5.3242
21
-4.50961
0
LINE
8
BLACK
6
CONTINUOUS
10
5.3242
20
-4.50961
11
5.32362
21
-4.51154
0
LINE
8
BLACK
6
CONTINUOUS
10
5.32362
20
-4.51154
11
5.32193
21
-4.51266
0
LINE
8
BLACK
6
CONTINUOUS
10
5.32193
20
-4.51266
11
5.31993
21
-4.51243
0
LINE
8
BLACK
6
CONTINUOUS
10
5.31993
20
-4.51243
11
5.31618
21
-4.51055
0
LINE
8
BLACK
6
CONTINUOUS
10
5.31618
20
-4.51055
11
5.31547
21
-4.51003
0
LINE
8
BLACK
6
CONTINUOUS
10
5.31547
20
-4.51003
11
5.31541
21
-4.51
0
LINE
8
BLACK
6
CONTINUOUS
10
5.31541
20
-4.51
11
5.31295
21
-4.50754
0
LINE
8
BLACK
6
CONTINUOUS
10
5.31295
20
-4.50754
11
5.31295
21
-4.53495
0
LINE
8
BLACK
6
CONTINUOUS
10
5.31295
20
-4.53495
11
5.32125
21
-4.53495
0
LINE
8
BLACK
6
CONTINUOUS
10
5.32125
20
-4.53495
11
5.32226
21
-4.53513
0
LINE
8
BLACK
6
CONTINUOUS
10
5.32226
20
-4.53513
11
5.32381
21
-4.53643
0
LINE
8
BLACK
6
CONTINUOUS
10
5.32381
20
-4.53643
11
5.32416
21
-4.53842
0
LINE
8
BLACK
6
CONTINUOUS
10
5.32416
20
-4.53842
11
5.32315
21
-4.54017
0
LINE
8
BLACK
6
CONTINUOUS
10
5.32315
20
-4.54017
11
5.32125
21
-4.54086
0
LINE
8
BLACK
6
CONTINUOUS
10
5.32125
20
-4.54086
11
5.29875
21
-4.54086
0
LINE
8
BLACK
6
CONTINUOUS
10
5.29875
20
-4.54086
11
5.29774
21
-4.54068
0
LINE
8
BLACK
6
CONTINUOUS
10
5.29774
20
-4.54068
11
5.29619
21
-4.53938
0
LINE
8
BLACK
6
CONTINUOUS
10
5.29619
20
-4.53938
11
5.29584
21
-4.53739
0
LINE
8
BLACK
6
CONTINUOUS
10
5.29584
20
-4.53739
11
5.29685
21
-4.53564
0
LINE
8
BLACK
6
CONTINUOUS
10
5.29685
20
-4.53564
11
5.29875
21
-4.53495
0
LINE
8
BLACK
6
CONTINUOUS
10
5.29875
20
-4.53495
11
5.30705
21
-4.53495
0
LINE
8
BLACK
6
CONTINUOUS
10
5.30705
20
-4.53495
11
5.30705
21
-4.49854
0
LINE
8
BLACK
6
CONTINUOUS
10
5.30705
20
-4.49854
11
5.30723
21
-4.49753
0
LINE
8
BLACK
6
CONTINUOUS
10
5.30723
20
-4.49753
11
5.30733
21
-4.4974
0
LINE
8
BLACK
6
CONTINUOUS
10
5.30733
20
-4.4974
11
5.30735
21
-4.49723
0
LINE
8
BLACK
6
CONTINUOUS
10
5.30735
20
-4.49723
11
5.30797
21
-4.49664
0
LINE
8
BLACK
6
CONTINUOUS
10
5.30797
20
-4.49664
11
5.30852
21
-4.49598
0
LINE
8
BLACK
6
CONTINUOUS
10
5.30852
20
-4.49598
11
5.30869
21
-4.49595
0
LINE
8
BLACK
6
CONTINUOUS
10
5.30869
20
-4.49595
11
5.30881
21
-4.49583
0
LINE
8
BLACK
6
CONTINUOUS
10
5.30881
20
-4.49583
11
5.30967
21
-4.49578
0
LINE
8
BLACK
6
CONTINUOUS
10
5.30967
20
-4.49578
11
5.31051
21
-4.49563
0
LINE
8
BLACK
6
CONTINUOUS
10
5.31051
20
-4.49563
11
5.31066
21
-4.49571
0
LINE
8
BLACK
6
CONTINUOUS
10
5.25573
20
-4.42852
11
5.25899
21
-4.42884
0
LINE
8
BLACK
6
CONTINUOUS
10
5.25899
20
-4.42884
11
5.2646
21
-4.43055
0
LINE
8
BLACK
6
CONTINUOUS
10
5.2646
20
-4.43055
11
5.26977
21
-4.43331
0
LINE
8
BLACK
6
CONTINUOUS
10
5.26977
20
-4.43331
11
5.27431
21
-4.43703
0
LINE
8
BLACK
6
CONTINUOUS
10
5.27431
20
-4.43703
11
5.27803
21
-4.44157
0
LINE
8
BLACK
6
CONTINUOUS
10
5.27803
20
-4.44157
11
5.28079
21
-4.44674
0
LINE
8
BLACK
6
CONTINUOUS
10
5.28079
20
-4.44674
11
5.2825
21
-4.45235
0
LINE
8
BLACK
6
CONTINUOUS
10
5.2825
20
-4.45235
11
5.28307
21
-4.45819
0
LINE
8
BLACK
6
CONTINUOUS
10
5.28307
20
-4.45819
11
5.28307
21
-4.45819
0
LINE
8
BLACK
6
CONTINUOUS
10
5.28307
20
-4.45819
11
5.28307
21
-4.48181
0
LINE
8
BLACK
6
CONTINUOUS
10
5.28307
20
-4.48181
11
5.2825
21
-4.48765
0
LINE
8
BLACK
6
CONTINUOUS
10
5.2825
20
-4.48765
11
5.28079
21
-4.49326
0
LINE
8
BLACK
6
CONTINUOUS
10
5.28079
20
-4.49326
11
5.27803
21
-4.49843
0
LINE
8
BLACK
6
CONTINUOUS
10
5.27803
20
-4.49843
11
5.27431
21
-4.50297
0
LINE
8
BLACK
6
CONTINUOUS
10
5.27431
20
-4.50297
11
5.26977
21
-4.50669
0
LINE
8
BLACK
6
CONTINUOUS
10
5.26977
20
-4.50669
11
5.2646
21
-4.50945
0
LINE
8
BLACK
6
CONTINUOUS
10
5.2646
20
-4.50945
11
5.25899
21
-4.51116
0
LINE
8
BLACK
6
CONTINUOUS
10
5.25899
20
-4.51116
11
5.25573
21
-4.51148
0
LINE
8
BLACK
6
CONTINUOUS
10
5.25573
20
-4.51148
11
5.25512
21
-4.51173
0
LINE
8
BLACK
6
CONTINUOUS
10
5.25512
20
-4.51173
11
5.25315
21
-4.51173
0
LINE
8
BLACK
6
CONTINUOUS
10
5.25315
20
-4.51173
11
5.14685
21
-4.51173
0
LINE
8
BLACK
6
CONTINUOUS
10
5.14685
20
-4.51173
11
5.14488
21
-4.51173
0
LINE
8
BLACK
6
CONTINUOUS
10
5.14488
20
-4.51173
11
5.14427
21
-4.51148
0
LINE
8
BLACK
6
CONTINUOUS
10
5.14427
20
-4.51148
11
5.14101
21
-4.51116
0
LINE
8
BLACK
6
CONTINUOUS
10
5.14101
20
-4.51116
11
5.1354
21
-4.50945
0
LINE
8
BLACK
6
CONTINUOUS
10
5.1354
20
-4.50945
11
5.13023
21
-4.50669
0
LINE
8
BLACK
6
CONTINUOUS
10
5.13023
20
-4.50669
11
5.12569
21
-4.50297
0
LINE
8
BLACK
6
CONTINUOUS
10
5.12569
20
-4.50297
11
5.12197
21
-4.49843
0
LINE
8
BLACK
6
CONTINUOUS
10
5.12197
20
-4.49843
11
5.11921
21
-4.49326
0
LINE
8
BLACK
6
CONTINUOUS
10
5.11921
20
-4.49326
11
5.1175
21
-4.48765
0
LINE
8
BLACK
6
CONTINUOUS
10
5.1175
20
-4.48765
11
5.11693
21
-4.48181
0
LINE
8
BLACK
6
CONTINUOUS
10
5.11693
20
-4.48181
11
5.11693
21
-4.45819
0
LINE
8
BLACK
6
CONTINUOUS
10
5.11693
20
-4.45819
11
5.1175
21
-4.45235
0
LINE
8
BLACK
6
CONTINUOUS
10
5.1175
20
-4.45235
11
5.11921
21
-4.44674
0
LINE
8
BLACK
6
CONTINUOUS
10
5.11921
20
-4.44674
11
5.12197
21
-4.44157
0
LINE
8
BLACK
6
CONTINUOUS
10
5.12197
20
-4.44157
11
5.12569
21
-4.43703
0
LINE
8
BLACK
6
CONTINUOUS
10
5.12569
20
-4.43703
11
5.13023
21
-4.43331
0
LINE
8
BLACK
6
CONTINUOUS
10
5.13023
20
-4.43331
11
5.1354
21
-4.43055
0
LINE
8
BLACK
6
CONTINUOUS
10
5.1354
20
-4.43055
11
5.14101
21
-4.42884
0
LINE
8
BLACK
6
CONTINUOUS
10
5.14101
20
-4.42884
11
5.14427
21
-4.42852
0
LINE
8
BLACK
6
CONTINUOUS
10
5.14427
20
-4.42852
11
5.14488
21
-4.42827
0
LINE
8
BLACK
6
CONTINUOUS
10
5.14488
20
-4.42827
11
5.25512
21
-4.42827
0
LINE
8
BLACK
6
CONTINUOUS
10
5.25512
20
-4.42827
11
5.25573
21
-4.42852
0
LINE
8
BLACK
6
CONTINUOUS
10
5.14685
20
-4.43299
11
5.14401
21
-4.43299
0
LINE
8
BLACK
6
CONTINUOUS
10
5.14401
20
-4.43299
11
5.13848
21
-4.43426
0
LINE
8
BLACK
6
CONTINUOUS
10
5.13848
20
-4.43426
11
5.13336
21
-4.43672
0
LINE
8
BLACK
6
CONTINUOUS
10
5.13336
20
-4.43672
11
5.12892
21
-4.44026
0
LINE
8
BLACK
6
CONTINUOUS
10
5.12892
20
-4.44026
11
5.12538
21
-4.4447
0
LINE
8
BLACK
6
CONTINUOUS
10
5.12538
20
-4.4447
11
5.12292
21
-4.44981
0
LINE
8
BLACK
6
CONTINUOUS
10
5.12292
20
-4.44981
11
5.12165
21
-4.45535
0
LINE
8
BLACK
6
CONTINUOUS
10
5.12165
20
-4.45535
11
5.12165
21
-4.45819
0
LINE
8
BLACK
6
CONTINUOUS
10
5.12165
20
-4.45819
11
5.12165
21
-4.48181
0
LINE
8
BLACK
6
CONTINUOUS
10
5.12165
20
-4.48181
11
5.12165
21
-4.48465
0
LINE
8
BLACK
6
CONTINUOUS
10
5.12165
20
-4.48465
11
5.12292
21
-4.49019
0
LINE
8
BLACK
6
CONTINUOUS
10
5.12292
20
-4.49019
11
5.12538
21
-4.4953
0
LINE
8
BLACK
6
CONTINUOUS
10
5.12538
20
-4.4953
11
5.12892
21
-4.49974
0
LINE
8
BLACK
6
CONTINUOUS
10
5.12892
20
-4.49974
11
5.13336
21
-4.50328
0
LINE
8
BLACK
6
CONTINUOUS
10
5.13336
20
-4.50328
11
5.13848
21
-4.50574
0
LINE
8
BLACK
6
CONTINUOUS
10
5.13848
20
-4.50574
11
5.14401
21
-4.50701
0
LINE
8
BLACK
6
CONTINUOUS
10
5.14401
20
-4.50701
11
5.14488
21
-4.50701
0
LINE
8
BLACK
6
CONTINUOUS
10
5.14488
20
-4.50701
11
5.25512
21
-4.50701
0
LINE
8
BLACK
6
CONTINUOUS
10
5.25512
20
-4.50701
11
5.25599
21
-4.50701
0
LINE
8
BLACK
6
CONTINUOUS
10
5.25599
20
-4.50701
11
5.26152
21
-4.50574
0
LINE
8
BLACK
6
CONTINUOUS
10
5.26152
20
-4.50574
11
5.26664
21
-4.50328
0
LINE
8
BLACK
6
CONTINUOUS
10
5.26664
20
-4.50328
11
5.27108
21
-4.49974
0
LINE
8
BLACK
6
CONTINUOUS
10
5.27108
20
-4.49974
11
5.27462
21
-4.4953
0
LINE
8
BLACK
6
CONTINUOUS
10
5.27462
20
-4.4953
11
5.27708
21
-4.49019
0
LINE
8
BLACK
6
CONTINUOUS
10
5.27708
20
-4.49019
11
5.27835
21
-4.48465
0
LINE
8
BLACK
6
CONTINUOUS
10
5.27835
20
-4.48465
11
5.27835
21
-4.48181
0
LINE
8
BLACK
6
CONTINUOUS
10
5.27835
20
-4.48181
11
5.27835
21
-4.45819
0
LINE
8
BLACK
6
CONTINUOUS
10
5.27835
20
-4.45819
11
5.27835
21
-4.45535
0
LINE
8
BLACK
6
CONTINUOUS
10
5.27835
20
-4.45535
11
5.27708
21
-4.44981
0
LINE
8
BLACK
6
CONTINUOUS
10
5.27708
20
-4.44981
11
5.27462
21
-4.4447
0
LINE
8
BLACK
6
CONTINUOUS
10
5.27462
20
-4.4447
11
5.27108
21
-4.44026
0
LINE
8
BLACK
6
CONTINUOUS
10
5.27108
20
-4.44026
11
5.26664
21
-4.43672
0
LINE
8
BLACK
6
CONTINUOUS
10
5.26664
20
-4.43672
11
5.26152
21
-4.43426
0
LINE
8
BLACK
6
CONTINUOUS
10
5.26152
20
-4.43426
11
5.25599
21
-4.43299
0
LINE
8
BLACK
6
CONTINUOUS
10
5.25599
20
-4.43299
11
5.25315
21
-4.43299
0
LINE
8
BLACK
6
CONTINUOUS
10
5.25315
20
-4.43299
11
5.14685
21
-4.43299
0
LINE
8
BLACK
6
CONTINUOUS
10
5.19466
20
-4.38471
11
5.19653
21
-4.38706
0
LINE
8
BLACK
6
CONTINUOUS
10
5.19653
20
-4.38706
11
5.1972
21
-4.39
0
LINE
8
BLACK
6
CONTINUOUS
10
5.1972
20
-4.39
11
5.19653
21
-4.39294
0
LINE
8
BLACK
6
CONTINUOUS
10
5.19653
20
-4.39294
11
5.19466
21
-4.39529
0
LINE
8
BLACK
6
CONTINUOUS
10
5.19466
20
-4.39529
11
5.19194
21
-4.3966
0
LINE
8
BLACK
6
CONTINUOUS
10
5.19194
20
-4.3966
11
5.18893
21
-4.3966
0
LINE
8
BLACK
6
CONTINUOUS
10
5.18893
20
-4.3966
11
5.18621
21
-4.39529
0
LINE
8
BLACK
6
CONTINUOUS
10
5.18621
20
-4.39529
11
5.18433
21
-4.39294
0
LINE
8
BLACK
6
CONTINUOUS
10
5.18433
20
-4.39294
11
5.18366
21
-4.39
0
LINE
8
BLACK
6
CONTINUOUS
10
5.18366
20
-4.39
11
5.18433
21
-4.38706
0
LINE
8
BLACK
6
CONTINUOUS
10
5.18433
20
-4.38706
11
5.18621
21
-4.38471
0
LINE
8
BLACK
6
CONTINUOUS
10
5.18621
20
-4.38471
11
5.18893
21
-4.3834
0
LINE
8
BLACK
6
CONTINUOUS
10
5.18893
20
-4.3834
11
5.19194
21
-4.3834
0
LINE
8
BLACK
6
CONTINUOUS
10
5.19194
20
-4.3834
11
5.19466
21
-4.38471
0
LINE
8
BLACK
6
CONTINUOUS
10
5.00956
20
-4.2464
11
5.01169
21
-4.24824
0
LINE
8
BLACK
6
CONTINUOUS
10
5.01169
20
-4.24824
11
5.01248
21
-4.25094
0
LINE
8
BLACK
6
CONTINUOUS
10
5.01248
20
-4.25094
11
5.01248
21
-4.36906
0
LINE
8
BLACK
6
CONTINUOUS
10
5.01248
20
-4.36906
11
5.01228
21
-4.37046
0
LINE
8
BLACK
6
CONTINUOUS
10
5.01228
20
-4.37046
11
5.01075
21
-4.37283
0
LINE
8
BLACK
6
CONTINUOUS
10
5.01075
20
-4.37283
11
5.00819
21
-4.374
0
LINE
8
BLACK
6
CONTINUOUS
10
5.00819
20
-4.374
11
5.0054
21
-4.3736
0
LINE
8
BLACK
6
CONTINUOUS
10
5.0054
20
-4.3736
11
5.00327
21
-4.37176
0
LINE
8
BLACK
6
CONTINUOUS
10
5.00327
20
-4.37176
11
5.00248
21
-4.36906
0
LINE
8
BLACK
6
CONTINUOUS
10
5.00248
20
-4.36906
11
5.00248
21
-4.25094
0
LINE
8
BLACK
6
CONTINUOUS
10
5.00248
20
-4.25094
11
5.00268
21
-4.24954
0
LINE
8
BLACK
6
CONTINUOUS
10
5.00268
20
-4.24954
11
5.00421
21
-4.24717
0
LINE
8
BLACK
6
CONTINUOUS
10
5.00421
20
-4.24717
11
5.00677
21
-4.246
0
LINE
8
BLACK
6
CONTINUOUS
10
5.00677
20
-4.246
11
5.00956
21
-4.2464
0
LINE
8
BLACK
6
CONTINUOUS
10
5.1946
20
-4.2464
11
5.19673
21
-4.24824
0
LINE
8
BLACK
6
CONTINUOUS
10
5.19673
20
-4.24824
11
5.19752
21
-4.25094
0
LINE
8
BLACK
6
CONTINUOUS
10
5.19752
20
-4.25094
11
5.19752
21
-4.36906
0
LINE
8
BLACK
6
CONTINUOUS
10
5.19752
20
-4.36906
11
5.19732
21
-4.37046
0
LINE
8
BLACK
6
CONTINUOUS
10
5.19732
20
-4.37046
11
5.19579
21
-4.37283
0
LINE
8
BLACK
6
CONTINUOUS
10
5.19579
20
-4.37283
11
5.19323
21
-4.374
0
LINE
8
BLACK
6
CONTINUOUS
10
5.19323
20
-4.374
11
5.19044
21
-4.3736
0
LINE
8
BLACK
6
CONTINUOUS
10
5.19044
20
-4.3736
11
5.18831
21
-4.37176
0
LINE
8
BLACK
6
CONTINUOUS
10
5.18831
20
-4.37176
11
5.18752
21
-4.36906
0
LINE
8
BLACK
6
CONTINUOUS
10
5.18752
20
-4.36906
11
5.18752
21
-4.25094
0
LINE
8
BLACK
6
CONTINUOUS
10
5.18752
20
-4.25094
11
5.18772
21
-4.24954
0
LINE
8
BLACK
6
CONTINUOUS
10
5.18772
20
-4.24954
11
5.18925
21
-4.24717
0
LINE
8
BLACK
6
CONTINUOUS
10
5.18925
20
-4.24717
11
5.19181
21
-4.246
0
LINE
8
BLACK
6
CONTINUOUS
10
5.19181
20
-4.246
11
5.1946
21
-4.2464
0
LINE
8
BLACK
6
CONTINUOUS
10
5.51097
20
-4.32445
11
5.51114
21
-4.32444
0
LINE
8
BLACK
6
CONTINUOUS
10
5.51114
20
-4.32444
11
5.51183
21
-4.32495
0
LINE
8
BLACK
6
CONTINUOUS
10
5.51183
20
-4.32495
11
5.51258
21
-4.32538
0
LINE
8
BLACK
6
CONTINUOUS
10
5.51258
20
-4.32538
11
5.51263
21
-4.32554
0
LINE
8
BLACK
6
CONTINUOUS
10
5.51263
20
-4.32554
11
5.51277
21
-4.32564
0
LINE
8
BLACK
6
CONTINUOUS
10
5.51277
20
-4.32564
11
5.51636
21
-4.33102
0
LINE
8
BLACK
6
CONTINUOUS
10
5.51636
20
-4.33102
11
5.51956
21
-4.33422
0
LINE
8
BLACK
6
CONTINUOUS
10
5.51956
20
-4.33422
11
5.52288
21
-4.33588
0
LINE
8
BLACK
6
CONTINUOUS
10
5.52288
20
-4.33588
11
5.52371
21
-4.33649
0
LINE
8
BLACK
6
CONTINUOUS
10
5.52371
20
-4.33649
11
5.52451
21
-4.33835
0
LINE
8
BLACK
6
CONTINUOUS
10
5.52451
20
-4.33835
11
5.52394
21
-4.34028
0
LINE
8
BLACK
6
CONTINUOUS
10
5.52394
20
-4.34028
11
5.52225
21
-4.3414
0
LINE
8
BLACK
6
CONTINUOUS
10
5.52225
20
-4.3414
11
5.52024
21
-4.34117
0
LINE
8
BLACK
6
CONTINUOUS
10
5.52024
20
-4.34117
11
5.51649
21
-4.33929
0
LINE
8
BLACK
6
CONTINUOUS
10
5.51649
20
-4.33929
11
5.51578
21
-4.33877
0
LINE
8
BLACK
6
CONTINUOUS
10
5.51578
20
-4.33877
11
5.51573
21
-4.33874
0
LINE
8
BLACK
6
CONTINUOUS
10
5.51573
20
-4.33874
11
5.51327
21
-4.33628
0
LINE
8
BLACK
6
CONTINUOUS
10
5.51327
20
-4.33628
11
5.51327
21
-4.36369
0
LINE
8
BLACK
6
CONTINUOUS
10
5.51327
20
-4.36369
11
5.52156
21
-4.36369
0
LINE
8
BLACK
6
CONTINUOUS
10
5.52156
20
-4.36369
11
5.52257
21
-4.36387
0
LINE
8
BLACK
6
CONTINUOUS
10
5.52257
20
-4.36387
11
5.52412
21
-4.36517
0
LINE
8
BLACK
6
CONTINUOUS
10
5.52412
20
-4.36517
11
5.52447
21
-4.36716
0
LINE
8
BLACK
6
CONTINUOUS
10
5.52447
20
-4.36716
11
5.52346
21
-4.36891
0
LINE
8
BLACK
6
CONTINUOUS
10
5.52346
20
-4.36891
11
5.52156
21
-4.3696
0
LINE
8
BLACK
6
CONTINUOUS
10
5.52156
20
-4.3696
11
5.49907
21
-4.3696
0
LINE
8
BLACK
6
CONTINUOUS
10
5.49907
20
-4.3696
11
5.49806
21
-4.36942
0
LINE
8
BLACK
6
CONTINUOUS
10
5.49806
20
-4.36942
11
5.49651
21
-4.36812
0
LINE
8
BLACK
6
CONTINUOUS
10
5.49651
20
-4.36812
11
5.49616
21
-4.36613
0
LINE
8
BLACK
6
CONTINUOUS
10
5.49616
20
-4.36613
11
5.49717
21
-4.36438
0
LINE
8
BLACK
6
CONTINUOUS
10
5.49717
20
-4.36438
11
5.49907
21
-4.36369
0
LINE
8
BLACK
6
CONTINUOUS
10
5.49907
20
-4.36369
11
5.50736
21
-4.36369
0
LINE
8
BLACK
6
CONTINUOUS
10
5.50736
20
-4.36369
11
5.50736
21
-4.32728
0
LINE
8
BLACK
6
CONTINUOUS
10
5.50736
20
-4.32728
11
5.50754
21
-4.32627
0
LINE
8
BLACK
6
CONTINUOUS
10
5.50754
20
-4.32627
11
5.50765
21
-4.32614
0
LINE
8
BLACK
6
CONTINUOUS
10
5.50765
20
-4.32614
11
5.50767
21
-4.32597
0
LINE
8
BLACK
6
CONTINUOUS
10
5.50767
20
-4.32597
11
5.50829
21
-4.32538
0
LINE
8
BLACK
6
CONTINUOUS
10
5.50829
20
-4.32538
11
5.50884
21
-4.32472
0
LINE
8
BLACK
6
CONTINUOUS
10
5.50884
20
-4.32472
11
5.50901
21
-4.32469
0
LINE
8
BLACK
6
CONTINUOUS
10
5.50901
20
-4.32469
11
5.50913
21
-4.32457
0
LINE
8
BLACK
6
CONTINUOUS
10
5.50913
20
-4.32457
11
5.50998
21
-4.32452
0
LINE
8
BLACK
6
CONTINUOUS
10
5.50998
20
-4.32452
11
5.51083
21
-4.32437
0
LINE
8
BLACK
6
CONTINUOUS
10
5.51083
20
-4.32437
11
5.51097
21
-4.32445
0
LINE
8
BLACK
6
CONTINUOUS
10
5.55944
20
-4.32439
11
5.55957
21
-4.32437
0
LINE
8
BLACK
6
CONTINUOUS
10
5.55957
20
-4.32437
11
5.55969
21
-4.32443
0
LINE
8
BLACK
6
CONTINUOUS
10
5.55969
20
-4.32443
11
5.56007
21
-4.3245
0
LINE
8
BLACK
6
CONTINUOUS
10
5.56007
20
-4.3245
11
5.56066
21
-4.32499
0
LINE
8
BLACK
6
CONTINUOUS
10
5.56066
20
-4.32499
11
5.56132
21
-4.32538
0
LINE
8
BLACK
6
CONTINUOUS
10
5.56132
20
-4.32538
11
5.56141
21
-4.32563
0
LINE
8
BLACK
6
CONTINUOUS
10
5.56141
20
-4.32563
11
5.56162
21
-4.3258
0
LINE
8
BLACK
6
CONTINUOUS
10
5.56162
20
-4.3258
11
5.56175
21
-4.32656
0
LINE
8
BLACK
6
CONTINUOUS
10
5.56175
20
-4.32656
11
5.56201
21
-4.32728
0
LINE
8
BLACK
6
CONTINUOUS
10
5.56201
20
-4.32728
11
5.56201
21
-4.36665
0
LINE
8
BLACK
6
CONTINUOUS
10
5.56201
20
-4.36665
11
5.56194
21
-4.36703
0
LINE
8
BLACK
6
CONTINUOUS
10
5.56194
20
-4.36703
11
5.56197
21
-4.36716
0
LINE
8
BLACK
6
CONTINUOUS
10
5.56197
20
-4.36716
11
5.5619
21
-4.36727
0
LINE
8
BLACK
6
CONTINUOUS
10
5.5619
20
-4.36727
11
5.56183
21
-4.36766
0
LINE
8
BLACK
6
CONTINUOUS
10
5.56183
20
-4.36766
11
5.56134
21
-4.36824
0
LINE
8
BLACK
6
CONTINUOUS
10
5.56134
20
-4.36824
11
5.56096
21
-4.36891
0
LINE
8
BLACK
6
CONTINUOUS
10
5.56096
20
-4.36891
11
5.56071
21
-4.369
0
LINE
8
BLACK
6
CONTINUOUS
10
5.56071
20
-4.369
11
5.56054
21
-4.3692
0
LINE
8
BLACK
6
CONTINUOUS
10
5.56054
20
-4.3692
11
5.55978
21
-4.36934
0
LINE
8
BLACK
6
CONTINUOUS
10
5.55978
20
-4.36934
11
5.55906
21
-4.3696
0
LINE
8
BLACK
6
CONTINUOUS
10
5.55906
20
-4.3696
11
5.54969
21
-4.3696
0
LINE
8
BLACK
6
CONTINUOUS
10
5.54969
20
-4.3696
11
5.54882
21
-4.36945
0
LINE
8
BLACK
6
CONTINUOUS
10
5.54882
20
-4.36945
11
5.54875
21
-4.36945
0
LINE
8
BLACK
6
CONTINUOUS
10
5.54875
20
-4.36945
11
5.54313
21
-4.36757
0
LINE
8
BLACK
6
CONTINUOUS
10
5.54313
20
-4.36757
11
5.54223
21
-4.36708
0
LINE
8
BLACK
6
CONTINUOUS
10
5.54223
20
-4.36708
11
5.54213
21
-4.36693
0
LINE
8
BLACK
6
CONTINUOUS
10
5.54213
20
-4.36693
11
5.54197
21
-4.36686
0
LINE
8
BLACK
6
CONTINUOUS
10
5.54197
20
-4.36686
11
5.53822
21
-4.36311
0
LINE
8
BLACK
6
CONTINUOUS
10
5.53822
20
-4.36311
11
5.53772
21
-4.36239
0
LINE
8
BLACK
6
CONTINUOUS
10
5.53772
20
-4.36239
11
5.53767
21
-4.36234
0
LINE
8
BLACK
6
CONTINUOUS
10
5.53767
20
-4.36234
11
5.5358
21
-4.35859
0
LINE
8
BLACK
6
CONTINUOUS
10
5.5358
20
-4.35859
11
5.53565
21
-4.3581
0
LINE
8
BLACK
6
CONTINUOUS
10
5.53565
20
-4.3581
11
5.53557
21
-4.35799
0
LINE
8
BLACK
6
CONTINUOUS
10
5.53557
20
-4.35799
11
5.5337
21
-4.35049
0
LINE
8
BLACK
6
CONTINUOUS
10
5.5337
20
-4.35049
11
5.53366
21
-4.3499
0
LINE
8
BLACK
6
CONTINUOUS
10
5.53366
20
-4.3499
11
5.53361
21
-4.34977
0
LINE
8
BLACK
6
CONTINUOUS
10
5.53361
20
-4.34977
11
5.53361
21
-4.34415
0
LINE
8
BLACK
6
CONTINUOUS
10
5.53361
20
-4.34415
11
5.53371
21
-4.34357
0
LINE
8
BLACK
6
CONTINUOUS
10
5.53371
20
-4.34357
11
5.5337
21
-4.34343
0
LINE
8
BLACK
6
CONTINUOUS
10
5.5337
20
-4.34343
11
5.53557
21
-4.33593
0
LINE
8
BLACK
6
CONTINUOUS
10
5.53557
20
-4.33593
11
5.53578
21
-4.33547
0
LINE
8
BLACK
6
CONTINUOUS
10
5.53578
20
-4.33547
11
5.5358
21
-4.33533
0
LINE
8
BLACK
6
CONTINUOUS
10
5.5358
20
-4.33533
11
5.53767
21
-4.33158
0
LINE
8
BLACK
6
CONTINUOUS
10
5.53767
20
-4.33158
11
5.5382
21
-4.33087
0
LINE
8
BLACK
6
CONTINUOUS
10
5.5382
20
-4.33087
11
5.53822
21
-4.33081
0
LINE
8
BLACK
6
CONTINUOUS
10
5.53822
20
-4.33081
11
5.54197
21
-4.32706
0
LINE
8
BLACK
6
CONTINUOUS
10
5.54197
20
-4.32706
11
5.54281
21
-4.32647
0
LINE
8
BLACK
6
CONTINUOUS
10
5.54281
20
-4.32647
11
5.54299
21
-4.32646
0
LINE
8
BLACK
6
CONTINUOUS
10
5.54299
20
-4.32646
11
5.54313
21
-4.32635
0
LINE
8
BLACK
6
CONTINUOUS
10
5.54313
20
-4.32635
11
5.54875
21
-4.32448
0
LINE
8
BLACK
6
CONTINUOUS
10
5.54875
20
-4.32448
11
5.54962
21
-4.32435
0
LINE
8
BLACK
6
CONTINUOUS
10
5.54962
20
-4.32435
11
5.54969
21
-4.32432
0
LINE
8
BLACK
6
CONTINUOUS
10
5.54969
20
-4.32432
11
5.55906
21
-4.32432
0
LINE
8
BLACK
6
CONTINUOUS
10
5.55906
20
-4.32432
11
5.55944
21
-4.32439
0
LINE
8
BLACK
6
CONTINUOUS
10
5.54566
20
-4.33173
11
5.54274
21
-4.33465
0
LINE
8
BLACK
6
CONTINUOUS
10
5.54274
20
-4.33465
11
5.54122
21
-4.33768
0
LINE
8
BLACK
6
CONTINUOUS
10
5.54122
20
-4.33768
11
5.53951
21
-4.34451
0
LINE
8
BLACK
6
CONTINUOUS
10
5.53951
20
-4.34451
11
5.53951
21
-4.34941
0
LINE
8
BLACK
6
CONTINUOUS
10
5.53951
20
-4.34941
11
5.54122
21
-4.35624
0
LINE
8
BLACK
6
CONTINUOUS
10
5.54122
20
-4.35624
11
5.54274
21
-4.35927
0
LINE
8
BLACK
6
CONTINUOUS
10
5.54274
20
-4.35927
11
5.54566
21
-4.36219
0
LINE
8
BLACK
6
CONTINUOUS
10
5.54566
20
-4.36219
11
5.55016
21
-4.36369
0
LINE
8
BLACK
6
CONTINUOUS
10
5.55016
20
-4.36369
11
5.55611
21
-4.36369
0
LINE
8
BLACK
6
CONTINUOUS
10
5.55611
20
-4.36369
11
5.55611
21
-4.33023
0
LINE
8
BLACK
6
CONTINUOUS
10
5.55611
20
-4.33023
11
5.55016
21
-4.33023
0
LINE
8
BLACK
6
CONTINUOUS
10
5.55016
20
-4.33023
11
5.54566
21
-4.33173
0
LINE
8
BLACK
6
CONTINUOUS
10
4.99469
20
-4.32807
11
4.99682
21
-4.32992
0
LINE
8
BLACK
6
CONTINUOUS
10
4.99682
20
-4.32992
11
4.99761
21
-4.33262
0
LINE
8
BLACK
6
CONTINUOUS
10
4.99761
20
-4.33262
11
4.99761
21
-4.36119
0
LINE
8
BLACK
6
CONTINUOUS
10
4.99761
20
-4.36119
11
4.99741
21
-4.3626
0
LINE
8
BLACK
6
CONTINUOUS
10
4.99741
20
-4.3626
11
4.99589
21
-4.36497
0
LINE
8
BLACK
6
CONTINUOUS
10
4.99589
20
-4.36497
11
4.99332
21
-4.36614
0
LINE
8
BLACK
6
CONTINUOUS
10
4.99332
20
-4.36614
11
4.99053
21
-4.36574
0
LINE
8
BLACK
6
CONTINUOUS
10
4.99053
20
-4.36574
11
4.9884
21
-4.36389
0
LINE
8
BLACK
6
CONTINUOUS
10
4.9884
20
-4.36389
11
4.98761
21
-4.36119
0
LINE
8
BLACK
6
CONTINUOUS
10
4.98761
20
-4.36119
11
4.98761
21
-4.3519
0
LINE
8
BLACK
6
CONTINUOUS
10
4.98761
20
-4.3519
11
4.94261
21
-4.3519
0
LINE
8
BLACK
6
CONTINUOUS
10
4.94261
20
-4.3519
11
4.94135
21
-4.35172
0
LINE
8
BLACK
6
CONTINUOUS
10
4.94135
20
-4.35172
11
4.94128
21
-4.35173
0
LINE
8
BLACK
6
CONTINUOUS
10
4.94128
20
-4.35173
11
4.94126
21
-4.35171
0
LINE
8
BLACK
6
CONTINUOUS
10
4.94126
20
-4.35171
11
4.9412
21
-4.3517
0
LINE
8
BLACK
6
CONTINUOUS
10
4.9412
20
-4.3517
11
4.94005
21
-4.35096
0
LINE
8
BLACK
6
CONTINUOUS
10
4.94005
20
-4.35096
11
4.93889
21
-4.35024
0
LINE
8
BLACK
6
CONTINUOUS
10
4.93889
20
-4.35024
11
4.93887
21
-4.3502
0
LINE
8
BLACK
6
CONTINUOUS
10
4.93887
20
-4.3502
11
4.93883
21
-4.35018
0
LINE
8
BLACK
6
CONTINUOUS
10
4.93883
20
-4.35018
11
4.93826
21
-4.34893
0
LINE
8
BLACK
6
CONTINUOUS
10
4.93826
20
-4.34893
11
4.93767
21
-4.3477
0
LINE
8
BLACK
6
CONTINUOUS
10
4.93767
20
-4.3477
11
4.93768
21
-4.34766
0
LINE
8
BLACK
6
CONTINUOUS
10
4.93768
20
-4.34766
11
4.93766
21
-4.34762
0
LINE
8
BLACK
6
CONTINUOUS
10
4.93766
20
-4.34762
11
4.93786
21
-4.34626
0
LINE
8
BLACK
6
CONTINUOUS
10
4.93786
20
-4.34626
11
4.93803
21
-4.3449
0
LINE
8
BLACK
6
CONTINUOUS
10
4.93803
20
-4.3449
11
4.93806
21
-4.34487
0
LINE
8
BLACK
6
CONTINUOUS
10
4.93806
20
-4.34487
11
4.93806
21
-4.34483
0
LINE
8
BLACK
6
CONTINUOUS
10
4.93806
20
-4.34483
11
4.93896
21
-4.34379
0
LINE
8
BLACK
6
CONTINUOUS
10
4.93896
20
-4.34379
11
4.93984
21
-4.34274
0
LINE
8
BLACK
6
CONTINUOUS
10
4.93984
20
-4.34274
11
4.94657
21
-4.33826
0
LINE
8
BLACK
6
CONTINUOUS
10
4.94657
20
-4.33826
11
4.95041
21
-4.33442
0
LINE
8
BLACK
6
CONTINUOUS
10
4.95041
20
-4.33442
11
4.95242
21
-4.33038
0
LINE
8
BLACK
6
CONTINUOUS
10
4.95242
20
-4.33038
11
4.95324
21
-4.32921
0
LINE
8
BLACK
6
CONTINUOUS
10
4.95324
20
-4.32921
11
4.95566
21
-4.32777
0
LINE
8
BLACK
6
CONTINUOUS
10
4.95566
20
-4.32777
11
4.95847
21
-4.32787
0
LINE
8
BLACK
6
CONTINUOUS
10
4.95847
20
-4.32787
11
4.96079
21
-4.32948
0
LINE
8
BLACK
6
CONTINUOUS
10
4.96079
20
-4.32948
11
4.96187
21
-4.33208
0
LINE
8
BLACK
6
CONTINUOUS
10
4.96187
20
-4.33208
11
4.96137
21
-4.33486
0
LINE
8
BLACK
6
CONTINUOUS
10
4.96137
20
-4.33486
11
4.95899
21
-4.33962
0
LINE
8
BLACK
6
CONTINUOUS
10
4.95899
20
-4.33962
11
4.95818
21
-4.34079
0
LINE
8
BLACK
6
CONTINUOUS
10
4.95818
20
-4.34079
11
4.9581
21
-4.34083
0
LINE
8
BLACK
6
CONTINUOUS
10
4.9581
20
-4.34083
11
4.95805
21
-4.34092
0
LINE
8
BLACK
6
CONTINUOUS
10
4.95805
20
-4.34092
11
4.95706
21
-4.3419
0
LINE
8
BLACK
6
CONTINUOUS
10
4.95706
20
-4.3419
11
4.98761
21
-4.3419
0
LINE
8
BLACK
6
CONTINUOUS
10
4.98761
20
-4.3419
11
4.98761
21
-4.33262
0
LINE
8
BLACK
6
CONTINUOUS
10
4.98761
20
-4.33262
11
4.98781
21
-4.33121
0
LINE
8
BLACK
6
CONTINUOUS
10
4.98781
20
-4.33121
11
4.98934
21
-4.32884
0
LINE
8
BLACK
6
CONTINUOUS
10
4.98934
20
-4.32884
11
4.9919
21
-4.32767
0
LINE
8
BLACK
6
CONTINUOUS
10
4.9919
20
-4.32767
11
4.99469
21
-4.32807
0
LINE
8
BLACK
6
CONTINUOUS
10
5.22273
20
-4.30064
11
5.22343
21
-4.30231
0
LINE
8
BLACK
6
CONTINUOUS
10
5.22343
20
-4.30231
11
5.22343
21
-4.32288
0
LINE
8
BLACK
6
CONTINUOUS
10
5.22343
20
-4.32288
11
5.22273
21
-4.32455
0
LINE
8
BLACK
6
CONTINUOUS
10
5.22273
20
-4.32455
11
5.22106
21
-4.32525
0
LINE
8
BLACK
6
CONTINUOUS
10
5.22106
20
-4.32525
11
5.21939
21
-4.32455
0
LINE
8
BLACK
6
CONTINUOUS
10
5.21939
20
-4.32455
11
5.2187
21
-4.32288
0
LINE
8
BLACK
6
CONTINUOUS
10
5.2187
20
-4.32288
11
5.2187
21
-4.30231
0
LINE
8
BLACK
6
CONTINUOUS
10
5.2187
20
-4.30231
11
5.21939
21
-4.30064
0
LINE
8
BLACK
6
CONTINUOUS
10
5.21939
20
-4.30064
11
5.22106
21
-4.29995
0
LINE
8
BLACK
6
CONTINUOUS
10
5.22106
20
-4.29995
11
5.22273
21
-4.30064
0
LINE
8
BLACK
6
CONTINUOUS
10
5.28061
20
-4.30064
11
5.2813
21
-4.30231
0
LINE
8
BLACK
6
CONTINUOUS
10
5.2813
20
-4.30231
11
5.2813
21
-4.32288
0
LINE
8
BLACK
6
CONTINUOUS
10
5.2813
20
-4.32288
11
5.28061
21
-4.32455
0
LINE
8
BLACK
6
CONTINUOUS
10
5.28061
20
-4.32455
11
5.27894
21
-4.32525
0
LINE
8
BLACK
6
CONTINUOUS
10
5.27894
20
-4.32525
11
5.27727
21
-4.32455
0
LINE
8
BLACK
6
CONTINUOUS
10
5.27727
20
-4.32455
11
5.27657
21
-4.32288
0
LINE
8
BLACK
6
CONTINUOUS
10
5.27657
20
-4.32288
11
5.27657
21
-4.30231
0
LINE
8
BLACK
6
CONTINUOUS
10
5.27657
20
-4.30231
11
5.27727
21
-4.30064
0
LINE
8
BLACK
6
CONTINUOUS
10
5.27727
20
-4.30064
11
5.27894
21
-4.29995
0
LINE
8
BLACK
6
CONTINUOUS
10
5.27894
20
-4.29995
11
5.28061
21
-4.30064
0
LINE
8
BLACK
6
CONTINUOUS
10
5.31273
20
-4.30064
11
5.31343
21
-4.30231
0
LINE
8
BLACK
6
CONTINUOUS
10
5.31343
20
-4.30231
11
5.31343
21
-4.32288
0
LINE
8
BLACK
6
CONTINUOUS
10
5.31343
20
-4.32288
11
5.31273
21
-4.32455
0
LINE
8
BLACK
6
CONTINUOUS
10
5.31273
20
-4.32455
11
5.31106
21
-4.32525
0
LINE
8
BLACK
6
CONTINUOUS
10
5.31106
20
-4.32525
11
5.30939
21
-4.32455
0
LINE
8
BLACK
6
CONTINUOUS
10
5.30939
20
-4.32455
11
5.3087
21
-4.32288
0
LINE
8
BLACK
6
CONTINUOUS
10
5.3087
20
-4.32288
11
5.3087
21
-4.30231
0
LINE
8
BLACK
6
CONTINUOUS
10
5.3087
20
-4.30231
11
5.30939
21
-4.30064
0
LINE
8
BLACK
6
CONTINUOUS
10
5.30939
20
-4.30064
11
5.31106
21
-4.29995
0
LINE
8
BLACK
6
CONTINUOUS
10
5.31106
20
-4.29995
11
5.31273
21
-4.30064
0
LINE
8
BLACK
6
CONTINUOUS
10
5.37061
20
-4.30064
11
5.3713
21
-4.30231
0
LINE
8
BLACK
6
CONTINUOUS
10
5.3713
20
-4.30231
11
5.3713
21
-4.32288
0
LINE
8
BLACK
6
CONTINUOUS
10
5.3713
20
-4.32288
11
5.37061
21
-4.32455
0
LINE
8
BLACK
6
CONTINUOUS
10
5.37061
20
-4.32455
11
5.36894
21
-4.32525
0
LINE
8
BLACK
6
CONTINUOUS
10
5.36894
20
-4.32525
11
5.36727
21
-4.32455
0
LINE
8
BLACK
6
CONTINUOUS
10
5.36727
20
-4.32455
11
5.36657
21
-4.32288
0
LINE
8
BLACK
6
CONTINUOUS
10
5.36657
20
-4.32288
11
5.36657
21
-4.30231
0
LINE
8
BLACK
6
CONTINUOUS
10
5.36657
20
-4.30231
11
5.36727
21
-4.30064
0
LINE
8
BLACK
6
CONTINUOUS
10
5.36727
20
-4.30064
11
5.36894
21
-4.29995
0
LINE
8
BLACK
6
CONTINUOUS
10
5.36894
20
-4.29995
11
5.37061
21
-4.30064
0
LINE
8
BLACK
6
CONTINUOUS
10
4.97226
20
-4.27777
11
4.9724
21
-4.27777
0
LINE
8
BLACK
6
CONTINUOUS
10
4.9724
20
-4.27777
11
4.98192
21
-4.28015
0
LINE
8
BLACK
6
CONTINUOUS
10
4.98192
20
-4.28015
11
4.98277
21
-4.2805
0
LINE
8
BLACK
6
CONTINUOUS
10
4.98277
20
-4.2805
11
4.98294
21
-4.28053
0
LINE
8
BLACK
6
CONTINUOUS
10
4.98294
20
-4.28053
11
4.9877
21
-4.28291
0
LINE
8
BLACK
6
CONTINUOUS
10
4.9877
20
-4.28291
11
4.98887
21
-4.28372
0
LINE
8
BLACK
6
CONTINUOUS
10
4.98887
20
-4.28372
11
4.98892
21
-4.2838
0
LINE
8
BLACK
6
CONTINUOUS
10
4.98892
20
-4.2838
11
4.989
21
-4.28385
0
LINE
8
BLACK
6
CONTINUOUS
10
4.989
20
-4.28385
11
4.99377
21
-4.28861
0
LINE
8
BLACK
6
CONTINUOUS
10
4.99377
20
-4.28861
11
4.99462
21
-4.28975
0
LINE
8
BLACK
6
CONTINUOUS
10
4.99462
20
-4.28975
11
4.99471
21
-4.29019
0
LINE
8
BLACK
6
CONTINUOUS
10
4.99471
20
-4.29019
11
4.99497
21
-4.29056
0
LINE
8
BLACK
6
CONTINUOUS
10
4.99497
20
-4.29056
11
4.99735
21
-4.2977
0
LINE
8
BLACK
6
CONTINUOUS
10
4.99735
20
-4.2977
11
4.99761
21
-4.2991
0
LINE
8
BLACK
6
CONTINUOUS
10
4.99761
20
-4.2991
11
4.99758
21
-4.2992
0
LINE
8
BLACK
6
CONTINUOUS
10
4.99758
20
-4.2992
11
4.99761
21
-4.29929
0
LINE
8
BLACK
6
CONTINUOUS
10
4.99761
20
-4.29929
11
4.99761
21
-4.30405
0
LINE
8
BLACK
6
CONTINUOUS
10
4.99761
20
-4.30405
11
4.99741
21
-4.30546
0
LINE
8
BLACK
6
CONTINUOUS
10
4.99741
20
-4.30546
11
4.99736
21
-4.30554
0
LINE
8
BLACK
6
CONTINUOUS
10
4.99736
20
-4.30554
11
4.99735
21
-4.30563
0
LINE
8
BLACK
6
CONTINUOUS
10
4.99735
20
-4.30563
11
4.99497
21
-4.31277
0
LINE
8
BLACK
6
CONTINUOUS
10
4.99497
20
-4.31277
11
4.99434
21
-4.31404
0
LINE
8
BLACK
6
CONTINUOUS
10
4.99434
20
-4.31404
11
4.99398
21
-4.31433
0
LINE
8
BLACK
6
CONTINUOUS
10
4.99398
20
-4.31433
11
4.99377
21
-4.31473
0
LINE
8
BLACK
6
CONTINUOUS
10
4.99377
20
-4.31473
11
4.99138
21
-4.31711
0
LINE
8
BLACK
6
CONTINUOUS
10
4.99138
20
-4.31711
11
4.99025
21
-4.31796
0
LINE
8
BLACK
6
CONTINUOUS
10
4.99025
20
-4.31796
11
4.98749
21
-4.31856
0
LINE
8
BLACK
6
CONTINUOUS
10
4.98749
20
-4.31856
11
4.98485
21
-4.31757
0
LINE
8
BLACK
6
CONTINUOUS
10
4.98485
20
-4.31757
11
4.98316
21
-4.31532
0
LINE
8
BLACK
6
CONTINUOUS
10
4.98316
20
-4.31532
11
4.98296
21
-4.31251
0
LINE
8
BLACK
6
CONTINUOUS
10
4.98296
20
-4.31251
11
4.98431
21
-4.31004
0
LINE
8
BLACK
6
CONTINUOUS
10
4.98431
20
-4.31004
11
4.98586
21
-4.30849
0
LINE
8
BLACK
6
CONTINUOUS
10
4.98586
20
-4.30849
11
4.98761
21
-4.30324
0
LINE
8
BLACK
6
CONTINUOUS
10
4.98761
20
-4.30324
11
4.98761
21
-4.3001
0
LINE
8
BLACK
6
CONTINUOUS
10
4.98761
20
-4.3001
11
4.98586
21
-4.29484
0
LINE
8
BLACK
6
CONTINUOUS
10
4.98586
20
-4.29484
11
4.98251
21
-4.29149
0
LINE
8
BLACK
6
CONTINUOUS
10
4.98251
20
-4.29149
11
4.97896
21
-4.28972
0
LINE
8
BLACK
6
CONTINUOUS
10
4.97896
20
-4.28972
11
4.97057
21
-4.28762
0
LINE
8
BLACK
6
CONTINUOUS
10
4.97057
20
-4.28762
11
4.96465
21
-4.28762
0
LINE
8
BLACK
6
CONTINUOUS
10
4.96465
20
-4.28762
11
4.95626
21
-4.28972
0
LINE
8
BLACK
6
CONTINUOUS
10
4.95626
20
-4.28972
11
4.95272
21
-4.29149
0
LINE
8
BLACK
6
CONTINUOUS
10
4.95272
20
-4.29149
11
4.94936
21
-4.29484
0
LINE
8
BLACK
6
CONTINUOUS
10
4.94936
20
-4.29484
11
4.94761
21
-4.3001
0
LINE
8
BLACK
6
CONTINUOUS
10
4.94761
20
-4.3001
11
4.94761
21
-4.30324
0
LINE
8
BLACK
6
CONTINUOUS
10
4.94761
20
-4.30324
11
4.94936
21
-4.30849
0
LINE
8
BLACK
6
CONTINUOUS
10
4.94936
20
-4.30849
11
4.95091
21
-4.31004
0
LINE
8
BLACK
6
CONTINUOUS
10
4.95091
20
-4.31004
11
4.95176
21
-4.31118
0
LINE
8
BLACK
6
CONTINUOUS
10
4.95176
20
-4.31118
11
4.95236
21
-4.31393
0
LINE
8
BLACK
6
CONTINUOUS
10
4.95236
20
-4.31393
11
4.95138
21
-4.31657
0
LINE
8
BLACK
6
CONTINUOUS
10
4.95138
20
-4.31657
11
4.94912
21
-4.31826
0
LINE
8
BLACK
6
CONTINUOUS
10
4.94912
20
-4.31826
11
4.94631
21
-4.31846
0
LINE
8
BLACK
6
CONTINUOUS
10
4.94631
20
-4.31846
11
4.94384
21
-4.31711
0
LINE
8
BLACK
6
CONTINUOUS
10
4.94384
20
-4.31711
11
4.94146
21
-4.31473
0
LINE
8
BLACK
6
CONTINUOUS
10
4.94146
20
-4.31473
11
4.9406
21
-4.31359
0
LINE
8
BLACK
6
CONTINUOUS
10
4.9406
20
-4.31359
11
4.94051
21
-4.31314
0
LINE
8
BLACK
6
CONTINUOUS
10
4.94051
20
-4.31314
11
4.94025
21
-4.31277
0
LINE
8
BLACK
6
CONTINUOUS
10
4.94025
20
-4.31277
11
4.93787
21
-4.30563
0
LINE
8
BLACK
6
CONTINUOUS
10
4.93787
20
-4.30563
11
4.93761
21
-4.30423
0
LINE
8
BLACK
6
CONTINUOUS
10
4.93761
20
-4.30423
11
4.93764
21
-4.30414
0
LINE
8
BLACK
6
CONTINUOUS
10
4.93764
20
-4.30414
11
4.93761
21
-4.30405
0
LINE
8
BLACK
6
CONTINUOUS
10
4.93761
20
-4.30405
11
4.93761
21
-4.29929
0
LINE
8
BLACK
6
CONTINUOUS
10
4.93761
20
-4.29929
11
4.93781
21
-4.29788
0
LINE
8
BLACK
6
CONTINUOUS
10
4.93781
20
-4.29788
11
4.93786
21
-4.2978
0
LINE
8
BLACK
6
CONTINUOUS
10
4.93786
20
-4.2978
11
4.93787
21
-4.2977
0
LINE
8
BLACK
6
CONTINUOUS
10
4.93787
20
-4.2977
11
4.94025
21
-4.29056
0
LINE
8
BLACK
6
CONTINUOUS
10
4.94025
20
-4.29056
11
4.94089
21
-4.28929
0
LINE
8
BLACK
6
CONTINUOUS
10
4.94089
20
-4.28929
11
4.94124
21
-4.28901
0
LINE
8
BLACK
6
CONTINUOUS
10
4.94124
20
-4.28901
11
4.94146
21
-4.28861
0
LINE
8
BLACK
6
CONTINUOUS
10
4.94146
20
-4.28861
11
4.94622
21
-4.28385
0
LINE
8
BLACK
6
CONTINUOUS
10
4.94622
20
-4.28385
11
4.94736
21
-4.28299
0
LINE
8
BLACK
6
CONTINUOUS
10
4.94736
20
-4.28299
11
4.94745
21
-4.28297
0
LINE
8
BLACK
6
CONTINUOUS
10
4.94745
20
-4.28297
11
4.94752
21
-4.28291
0
LINE
8
BLACK
6
CONTINUOUS
10
4.94752
20
-4.28291
11
4.95228
21
-4.28053
0
LINE
8
BLACK
6
CONTINUOUS
10
4.95228
20
-4.28053
11
4.95315
21
-4.28024
0
LINE
8
BLACK
6
CONTINUOUS
10
4.95315
20
-4.28024
11
4.9533
21
-4.28015
0
LINE
8
BLACK
6
CONTINUOUS
10
4.9533
20
-4.28015
11
4.96283
21
-4.27777
0
LINE
8
BLACK
6
CONTINUOUS
10
4.96283
20
-4.27777
11
4.96391
21
-4.27766
0
LINE
8
BLACK
6
CONTINUOUS
10
4.96391
20
-4.27766
11
4.96404
21
-4.27762
0
LINE
8
BLACK
6
CONTINUOUS
10
4.96404
20
-4.27762
11
4.97118
21
-4.27762
0
LINE
8
BLACK
6
CONTINUOUS
10
4.97118
20
-4.27762
11
4.97226
21
-4.27777
0
LINE
8
BLACK
6
CONTINUOUS
10
5.60057
20
-4.22896
11
5.60126
21
-4.23063
0
LINE
8
BLACK
6
CONTINUOUS
10
5.60126
20
-4.23063
11
5.60057
21
-4.2323
0
LINE
8
BLACK
6
CONTINUOUS
10
5.60057
20
-4.2323
11
5.5989
21
-4.23299
0
LINE
8
BLACK
6
CONTINUOUS
10
5.5989
20
-4.23299
11
5.43197
21
-4.23299
0
LINE
8
BLACK
6
CONTINUOUS
10
5.43197
20
-4.23299
11
5.43197
21
-4.30701
0
LINE
8
BLACK
6
CONTINUOUS
10
5.43197
20
-4.30701
11
5.5989
21
-4.30701
0
LINE
8
BLACK
6
CONTINUOUS
10
5.5989
20
-4.30701
11
5.60057
21
-4.3077
0
LINE
8
BLACK
6
CONTINUOUS
10
5.60057
20
-4.3077
11
5.60126
21
-4.30937
0
LINE
8
BLACK
6
CONTINUOUS
10
5.60126
20
-4.30937
11
5.60057
21
-4.31104
0
LINE
8
BLACK
6
CONTINUOUS
10
5.60057
20
-4.31104
11
5.5989
21
-4.31173
0
LINE
8
BLACK
6
CONTINUOUS
10
5.5989
20
-4.31173
11
5.42961
21
-4.31173
0
LINE
8
BLACK
6
CONTINUOUS
10
5.42961
20
-4.31173
11
5.42794
21
-4.31104
0
LINE
8
BLACK
6
CONTINUOUS
10
5.42794
20
-4.31104
11
5.42724
21
-4.30937
0
LINE
8
BLACK
6
CONTINUOUS
10
5.42724
20
-4.30937
11
5.42724
21
-4.23063
0
LINE
8
BLACK
6
CONTINUOUS
10
5.42724
20
-4.23063
11
5.42794
21
-4.22896
0
LINE
8
BLACK
6
CONTINUOUS
10
5.42794
20
-4.22896
11
5.42961
21
-4.22827
0
LINE
8
BLACK
6
CONTINUOUS
10
5.42961
20
-4.22827
11
5.5989
21
-4.22827
0
LINE
8
BLACK
6
CONTINUOUS
10
5.5989
20
-4.22827
11
5.60057
21
-4.22896
0
LINE
8
BLACK
6
CONTINUOUS
10
4.99402
20
-4.25639
11
4.99639
21
-4.25792
0
LINE
8
BLACK
6
CONTINUOUS
10
4.99639
20
-4.25792
11
4.99756
21
-4.26048
0
LINE
8
BLACK
6
CONTINUOUS
10
4.99756
20
-4.26048
11
4.99716
21
-4.26327
0
LINE
8
BLACK
6
CONTINUOUS
10
4.99716
20
-4.26327
11
4.99531
21
-4.2654
0
LINE
8
BLACK
6
CONTINUOUS
10
4.99531
20
-4.2654
11
4.99261
21
-4.26619
0
LINE
8
BLACK
6
CONTINUOUS
10
4.99261
20
-4.26619
11
4.94261
21
-4.26619
0
LINE
8
BLACK
6
CONTINUOUS
10
4.94261
20
-4.26619
11
4.9412
21
-4.26599
0
LINE
8
BLACK
6
CONTINUOUS
10
4.9412
20
-4.26599
11
4.93883
21
-4.26446
0
LINE
8
BLACK
6
CONTINUOUS
10
4.93883
20
-4.26446
11
4.93766
21
-4.2619
0
LINE
8
BLACK
6
CONTINUOUS
10
4.93766
20
-4.2619
11
4.93806
21
-4.25911
0
LINE
8
BLACK
6
CONTINUOUS
10
4.93806
20
-4.25911
11
4.93991
21
-4.25698
0
LINE
8
BLACK
6
CONTINUOUS
10
4.93991
20
-4.25698
11
4.94261
21
-4.25619
0
LINE
8
BLACK
6
CONTINUOUS
10
4.94261
20
-4.25619
11
4.99261
21
-4.25619
0
LINE
8
BLACK
6
CONTINUOUS
10
4.99261
20
-4.25619
11
4.99402
21
-4.25639
0
LINE
8
BLACK
6
CONTINUOUS
10
5.35854
20
-4.18372
11
5.35867
21
-4.18371
0
LINE
8
BLACK
6
CONTINUOUS
10
5.35867
20
-4.18371
11
5.3594
21
-4.18422
0
LINE
8
BLACK
6
CONTINUOUS
10
5.3594
20
-4.18422
11
5.36017
21
-4.18466
0
LINE
8
BLACK
6
CONTINUOUS
10
5.36017
20
-4.18466
11
5.36021
21
-4.18479
0
LINE
8
BLACK
6
CONTINUOUS
10
5.36021
20
-4.18479
11
5.36033
21
-4.18487
0
LINE
8
BLACK
6
CONTINUOUS
10
5.36033
20
-4.18487
11
5.36056
21
-4.18573
0
LINE
8
BLACK
6
CONTINUOUS
10
5.36056
20
-4.18573
11
5.36086
21
-4.18656
0
LINE
8
BLACK
6
CONTINUOUS
10
5.36086
20
-4.18656
11
5.36086
21
-4.21093
0
LINE
8
BLACK
6
CONTINUOUS
10
5.36086
20
-4.21093
11
5.36068
21
-4.21194
0
LINE
8
BLACK
6
CONTINUOUS
10
5.36068
20
-4.21194
11
5.35938
21
-4.21349
0
LINE
8
BLACK
6
CONTINUOUS
10
5.35938
20
-4.21349
11
5.35739
21
-4.21384
0
LINE
8
BLACK
6
CONTINUOUS
10
5.35739
20
-4.21384
11
5.35564
21
-4.21283
0
LINE
8
BLACK
6
CONTINUOUS
10
5.35564
20
-4.21283
11
5.35495
21
-4.21093
0
LINE
8
BLACK
6
CONTINUOUS
10
5.35495
20
-4.21093
11
5.35495
21
-4.19369
0
LINE
8
BLACK
6
CONTINUOUS
10
5.35495
20
-4.19369
11
5.3375
21
-4.21115
0
LINE
8
BLACK
6
CONTINUOUS
10
5.3375
20
-4.21115
11
5.33666
21
-4.21173
0
LINE
8
BLACK
6
CONTINUOUS
10
5.33666
20
-4.21173
11
5.33648
21
-4.21175
0
LINE
8
BLACK
6
CONTINUOUS
10
5.33648
20
-4.21175
11
5.33634
21
-4.21186
0
LINE
8
BLACK
6
CONTINUOUS
10
5.33634
20
-4.21186
11
5.33072
21
-4.21373
0
LINE
8
BLACK
6
CONTINUOUS
10
5.33072
20
-4.21373
11
5.32985
21
-4.21386
0
LINE
8
BLACK
6
CONTINUOUS
10
5.32985
20
-4.21386
11
5.32978
21
-4.21389
0
LINE
8
BLACK
6
CONTINUOUS
10
5.32978
20
-4.21389
11
5.32604
21
-4.21389
0
LINE
8
BLACK
6
CONTINUOUS
10
5.32604
20
-4.21389
11
5.32503
21
-4.21371
0
LINE
8
BLACK
6
CONTINUOUS
10
5.32503
20
-4.21371
11
5.32489
21
-4.21359
0
LINE
8
BLACK
6
CONTINUOUS
10
5.32489
20
-4.21359
11
5.32471
21
-4.21357
0
LINE
8
BLACK
6
CONTINUOUS
10
5.32471
20
-4.21357
11
5.32097
21
-4.2117
0
LINE
8
BLACK
6
CONTINUOUS
10
5.32097
20
-4.2117
11
5.32026
21
-4.21117
0
LINE
8
BLACK
6
CONTINUOUS
10
5.32026
20
-4.21117
11
5.3202
21
-4.21115
0
LINE
8
BLACK
6
CONTINUOUS
10
5.3202
20
-4.21115
11
5.31832
21
-4.20927
0
LINE
8
BLACK
6
CONTINUOUS
10
5.31832
20
-4.20927
11
5.31782
21
-4.20855
0
LINE
8
BLACK
6
CONTINUOUS
10
5.31782
20
-4.20855
11
5.31777
21
-4.2085
0
LINE
8
BLACK
6
CONTINUOUS
10
5.31777
20
-4.2085
11
5.3159
21
-4.20476
0
LINE
8
BLACK
6
CONTINUOUS
10
5.3159
20
-4.20476
11
5.3156
21
-4.20377
0
LINE
8
BLACK
6
CONTINUOUS
10
5.3156
20
-4.20377
11
5.31564
21
-4.2036
0
LINE
8
BLACK
6
CONTINUOUS
10
5.31564
20
-4.2036
11
5.31558
21
-4.20343
0
LINE
8
BLACK
6
CONTINUOUS
10
5.31558
20
-4.20343
11
5.31558
21
-4.19406
0
LINE
8
BLACK
6
CONTINUOUS
10
5.31558
20
-4.19406
11
5.31576
21
-4.19305
0
LINE
8
BLACK
6
CONTINUOUS
10
5.31576
20
-4.19305
11
5.31587
21
-4.19292
0
LINE
8
BLACK
6
CONTINUOUS
10
5.31587
20
-4.19292
11
5.3159
21
-4.19274
0
LINE
8
BLACK
6
CONTINUOUS
10
5.3159
20
-4.19274
11
5.31777
21
-4.18899
0
LINE
8
BLACK
6
CONTINUOUS
10
5.31777
20
-4.18899
11
5.3183
21
-4.18828
0
LINE
8
BLACK
6
CONTINUOUS
10
5.3183
20
-4.18828
11
5.31832
21
-4.18822
0
LINE
8
BLACK
6
CONTINUOUS
10
5.31832
20
-4.18822
11
5.3202
21
-4.18635
0
LINE
8
BLACK
6
CONTINUOUS
10
5.3202
20
-4.18635
11
5.32104
21
-4.18576
0
LINE
8
BLACK
6
CONTINUOUS
10
5.32104
20
-4.18576
11
5.32305
21
-4.18558
0
LINE
8
BLACK
6
CONTINUOUS
10
5.32305
20
-4.18558
11
5.3247
21
-4.18674
0
LINE
8
BLACK
6
CONTINUOUS
10
5.3247
20
-4.18674
11
5.32523
21
-4.18869
0
LINE
8
BLACK
6
CONTINUOUS
10
5.32523
20
-4.18869
11
5.32437
21
-4.19052
0
LINE
8
BLACK
6
CONTINUOUS
10
5.32437
20
-4.19052
11
5.32284
21
-4.19206
0
LINE
8
BLACK
6
CONTINUOUS
10
5.32284
20
-4.19206
11
5.32149
21
-4.19476
0
LINE
8
BLACK
6
CONTINUOUS
10
5.32149
20
-4.19476
11
5.32149
21
-4.20274
0
LINE
8
BLACK
6
CONTINUOUS
10
5.32149
20
-4.20274
11
5.32284
21
-4.20543
0
LINE
8
BLACK
6
CONTINUOUS
10
5.32284
20
-4.20543
11
5.32403
21
-4.20663
0
LINE
8
BLACK
6
CONTINUOUS
10
5.32403
20
-4.20663
11
5.32673
21
-4.20798
0
LINE
8
BLACK
6
CONTINUOUS
10
5.32673
20
-4.20798
11
5.32931
21
-4.20798
0
LINE
8
BLACK
6
CONTINUOUS
10
5.32931
20
-4.20798
11
5.33381
21
-4.20648
0
LINE
8
BLACK
6
CONTINUOUS
10
5.33381
20
-4.20648
11
5.35582
21
-4.18447
0
LINE
8
BLACK
6
CONTINUOUS
10
5.35582
20
-4.18447
11
5.35635
21
-4.1841
0
LINE
8
BLACK
6
CONTINUOUS
10
5.35635
20
-4.1841
11
5.35643
21
-4.184
0
LINE
8
BLACK
6
CONTINUOUS
10
5.35643
20
-4.184
11
5.35651
21
-4.18399
0
LINE
8
BLACK
6
CONTINUOUS
10
5.35651
20
-4.18399
11
5.35666
21
-4.18389
0
LINE
8
BLACK
6
CONTINUOUS
10
5.35666
20
-4.18389
11
5.35754
21
-4.18381
0
LINE
8
BLACK
6
CONTINUOUS
10
5.35754
20
-4.18381
11
5.35842
21
-4.18365
0
LINE
8
BLACK
6
CONTINUOUS
10
5.35842
20
-4.18365
11
5.35854
21
-4.18372
0
LINE
8
BLACK
6
CONTINUOUS
10
5.24154
20
-4.18606
11
5.24266
21
-4.18775
0
LINE
8
BLACK
6
CONTINUOUS
10
5.24266
20
-4.18775
11
5.24243
21
-4.18976
0
LINE
8
BLACK
6
CONTINUOUS
10
5.24243
20
-4.18976
11
5.24055
21
-4.19351
0
LINE
8
BLACK
6
CONTINUOUS
10
5.24055
20
-4.19351
11
5.24003
21
-4.19422
0
LINE
8
BLACK
6
CONTINUOUS
10
5.24003
20
-4.19422
11
5.24
21
-4.19427
0
LINE
8
BLACK
6
CONTINUOUS
10
5.24
20
-4.19427
11
5.23754
21
-4.19673
0
LINE
8
BLACK
6
CONTINUOUS
10
5.23754
20
-4.19673
11
5.26495
21
-4.19673
0
LINE
8
BLACK
6
CONTINUOUS
10
5.26495
20
-4.19673
11
5.26495
21
-4.18844
0
LINE
8
BLACK
6
CONTINUOUS
10
5.26495
20
-4.18844
11
5.26513
21
-4.18743
0
LINE
8
BLACK
6
CONTINUOUS
10
5.26513
20
-4.18743
11
5.26643
21
-4.18588
0
LINE
8
BLACK
6
CONTINUOUS
10
5.26643
20
-4.18588
11
5.26842
21
-4.18553
0
LINE
8
BLACK
6
CONTINUOUS
10
5.26842
20
-4.18553
11
5.27017
21
-4.18654
0
LINE
8
BLACK
6
CONTINUOUS
10
5.27017
20
-4.18654
11
5.27086
21
-4.18844
0
LINE
8
BLACK
6
CONTINUOUS
10
5.27086
20
-4.18844
11
5.27086
21
-4.21093
0
LINE
8
BLACK
6
CONTINUOUS
10
5.27086
20
-4.21093
11
5.27068
21
-4.21194
0
LINE
8
BLACK
6
CONTINUOUS
10
5.27068
20
-4.21194
11
5.26938
21
-4.21349
0
LINE
8
BLACK
6
CONTINUOUS
10
5.26938
20
-4.21349
11
5.26739
21
-4.21384
0
LINE
8
BLACK
6
CONTINUOUS
10
5.26739
20
-4.21384
11
5.26564
21
-4.21283
0
LINE
8
BLACK
6
CONTINUOUS
10
5.26564
20
-4.21283
11
5.26495
21
-4.21093
0
LINE
8
BLACK
6
CONTINUOUS
10
5.26495
20
-4.21093
11
5.26495
21
-4.20264
0
LINE
8
BLACK
6
CONTINUOUS
10
5.26495
20
-4.20264
11
5.22854
21
-4.20264
0
LINE
8
BLACK
6
CONTINUOUS
10
5.22854
20
-4.20264
11
5.22753
21
-4.20246
0
LINE
8
BLACK
6
CONTINUOUS
10
5.22753
20
-4.20246
11
5.2274
21
-4.20235
0
LINE
8
BLACK
6
CONTINUOUS
10
5.2274
20
-4.20235
11
5.22723
21
-4.20233
0
LINE
8
BLACK
6
CONTINUOUS
10
5.22723
20
-4.20233
11
5.22664
21
-4.20171
0
LINE
8
BLACK
6
CONTINUOUS
10
5.22664
20
-4.20171
11
5.22598
21
-4.20116
0
LINE
8
BLACK
6
CONTINUOUS
10
5.22598
20
-4.20116
11
5.22595
21
-4.20099
0
LINE
8
BLACK
6
CONTINUOUS
10
5.22595
20
-4.20099
11
5.22583
21
-4.20087
0
LINE
8
BLACK
6
CONTINUOUS
10
5.22583
20
-4.20087
11
5.22578
21
-4.20002
0
LINE
8
BLACK
6
CONTINUOUS
10
5.22578
20
-4.20002
11
5.22563
21
-4.19917
0
LINE
8
BLACK
6
CONTINUOUS
10
5.22563
20
-4.19917
11
5.22571
21
-4.19903
0
LINE
8
BLACK
6
CONTINUOUS
10
5.22571
20
-4.19903
11
5.2257
21
-4.19886
0
LINE
8
BLACK
6
CONTINUOUS
10
5.2257
20
-4.19886
11
5.22621
21
-4.19817
0
LINE
8
BLACK
6
CONTINUOUS
10
5.22621
20
-4.19817
11
5.22664
21
-4.19742
0
LINE
8
BLACK
6
CONTINUOUS
10
5.22664
20
-4.19742
11
5.2268
21
-4.19737
0
LINE
8
BLACK
6
CONTINUOUS
10
5.2268
20
-4.19737
11
5.2269
21
-4.19723
0
LINE
8
BLACK
6
CONTINUOUS
10
5.2269
20
-4.19723
11
5.23228
21
-4.19364
0
LINE
8
BLACK
6
CONTINUOUS
10
5.23228
20
-4.19364
11
5.23548
21
-4.19044
0
LINE
8
BLACK
6
CONTINUOUS
10
5.23548
20
-4.19044
11
5.23714
21
-4.18712
0
LINE
8
BLACK
6
CONTINUOUS
10
5.23714
20
-4.18712
11
5.23775
21
-4.18629
0
LINE
8
BLACK
6
CONTINUOUS
10
5.23775
20
-4.18629
11
5.23961
21
-4.18549
0
LINE
8
BLACK
6
CONTINUOUS
10
5.23961
20
-4.18549
11
5.24154
21
-4.18606
0
LINE
8
BLACK
6
CONTINUOUS
10
5.25161
20
-4.14622
11
5.25175
21
-4.1462
0
LINE
8
BLACK
6
CONTINUOUS
10
5.25175
20
-4.1462
11
5.25925
21
-4.14808
0
LINE
8
BLACK
6
CONTINUOUS
10
5.25925
20
-4.14808
11
5.25971
21
-4.14828
0
LINE
8
BLACK
6
CONTINUOUS
10
5.25971
20
-4.14828
11
5.25985
21
-4.1483
0
LINE
8
BLACK
6
CONTINUOUS
10
5.25985
20
-4.1483
11
5.2636
21
-4.15017
0
LINE
8
BLACK
6
CONTINUOUS
10
5.2636
20
-4.15017
11
5.26431
21
-4.1507
0
LINE
8
BLACK
6
CONTINUOUS
10
5.26431
20
-4.1507
11
5.26437
21
-4.15073
0
LINE
8
BLACK
6
CONTINUOUS
10
5.26437
20
-4.15073
11
5.26812
21
-4.15448
0
LINE
8
BLACK
6
CONTINUOUS
10
5.26812
20
-4.15448
11
5.26871
21
-4.15532
0
LINE
8
BLACK
6
CONTINUOUS
10
5.26871
20
-4.15532
11
5.26872
21
-4.15549
0
LINE
8
BLACK
6
CONTINUOUS
10
5.26872
20
-4.15549
11
5.26883
21
-4.15563
0
LINE
8
BLACK
6
CONTINUOUS
10
5.26883
20
-4.15563
11
5.27071
21
-4.16126
0
LINE
8
BLACK
6
CONTINUOUS
10
5.27071
20
-4.16126
11
5.27084
21
-4.16213
0
LINE
8
BLACK
6
CONTINUOUS
10
5.27084
20
-4.16213
11
5.27086
21
-4.16219
0
LINE
8
BLACK
6
CONTINUOUS
10
5.27086
20
-4.16219
11
5.27086
21
-4.16594
0
LINE
8
BLACK
6
CONTINUOUS
10
5.27086
20
-4.16594
11
5.27071
21
-4.16681
0
LINE
8
BLACK
6
CONTINUOUS
10
5.27071
20
-4.16681
11
5.27071
21
-4.16687
0
LINE
8
BLACK
6
CONTINUOUS
10
5.27071
20
-4.16687
11
5.26883
21
-4.1725
0
LINE
8
BLACK
6
CONTINUOUS
10
5.26883
20
-4.1725
11
5.26834
21
-4.1734
0
LINE
8
BLACK
6
CONTINUOUS
10
5.26834
20
-4.1734
11
5.26819
21
-4.17349
0
LINE
8
BLACK
6
CONTINUOUS
10
5.26819
20
-4.17349
11
5.26812
21
-4.17365
0
LINE
8
BLACK
6
CONTINUOUS
10
5.26812
20
-4.17365
11
5.26624
21
-4.17553
0
LINE
8
BLACK
6
CONTINUOUS
10
5.26624
20
-4.17553
11
5.2654
21
-4.17611
0
LINE
8
BLACK
6
CONTINUOUS
10
5.2654
20
-4.17611
11
5.26339
21
-4.17629
0
LINE
8
BLACK
6
CONTINUOUS
10
5.26339
20
-4.17629
11
5.26174
21
-4.17513
0
LINE
8
BLACK
6
CONTINUOUS
10
5.26174
20
-4.17513
11
5.26122
21
-4.17318
0
LINE
8
BLACK
6
CONTINUOUS
10
5.26122
20
-4.17318
11
5.26207
21
-4.17135
0
LINE
8
BLACK
6
CONTINUOUS
10
5.26207
20
-4.17135
11
5.26345
21
-4.16997
0
LINE
8
BLACK
6
CONTINUOUS
10
5.26345
20
-4.16997
11
5.26495
21
-4.16546
0
LINE
8
BLACK
6
CONTINUOUS
10
5.26495
20
-4.16546
11
5.26495
21
-4.16267
0
LINE
8
BLACK
6
CONTINUOUS
10
5.26495
20
-4.16267
11
5.26345
21
-4.15816
0
LINE
8
BLACK
6
CONTINUOUS
10
5.26345
20
-4.15816
11
5.26053
21
-4.15524
0
LINE
8
BLACK
6
CONTINUOUS
10
5.26053
20
-4.15524
11
5.2575
21
-4.15373
0
LINE
8
BLACK
6
CONTINUOUS
10
5.2575
20
-4.15373
11
5.25067
21
-4.15202
0
LINE
8
BLACK
6
CONTINUOUS
10
5.25067
20
-4.15202
11
5.24577
21
-4.15202
0
LINE
8
BLACK
6
CONTINUOUS
10
5.24577
20
-4.15202
11
5.23894
21
-4.15373
0
LINE
8
BLACK
6
CONTINUOUS
10
5.23894
20
-4.15373
11
5.23591
21
-4.15524
0
LINE
8
BLACK
6
CONTINUOUS
10
5.23591
20
-4.15524
11
5.23299
21
-4.15816
0
LINE
8
BLACK
6
CONTINUOUS
10
5.23299
20
-4.15816
11
5.23149
21
-4.16267
0
LINE
8
BLACK
6
CONTINUOUS
10
5.23149
20
-4.16267
11
5.23149
21
-4.16546
0
LINE
8
BLACK
6
CONTINUOUS
10
5.23149
20
-4.16546
11
5.23299
21
-4.16997
0
LINE
8
BLACK
6
CONTINUOUS
10
5.23299
20
-4.16997
11
5.23437
21
-4.17135
0
LINE
8
BLACK
6
CONTINUOUS
10
5.23437
20
-4.17135
11
5.23496
21
-4.17219
0
LINE
8
BLACK
6
CONTINUOUS
10
5.23496
20
-4.17219
11
5.23514
21
-4.1742
0
LINE
8
BLACK
6
CONTINUOUS
10
5.23514
20
-4.1742
11
5.23398
21
-4.17586
0
LINE
8
BLACK
6
CONTINUOUS
10
5.23398
20
-4.17586
11
5.23203
21
-4.17638
0
LINE
8
BLACK
6
CONTINUOUS
10
5.23203
20
-4.17638
11
5.2302
21
-4.17553
0
LINE
8
BLACK
6
CONTINUOUS
10
5.2302
20
-4.17553
11
5.22832
21
-4.17365
0
LINE
8
BLACK
6
CONTINUOUS
10
5.22832
20
-4.17365
11
5.22773
21
-4.17281
0
LINE
8
BLACK
6
CONTINUOUS
10
5.22773
20
-4.17281
11
5.22772
21
-4.17264
0
LINE
8
BLACK
6
CONTINUOUS
10
5.22772
20
-4.17264
11
5.22761
21
-4.1725
0
LINE
8
BLACK
6
CONTINUOUS
10
5.22761
20
-4.1725
11
5.22573
21
-4.16687
0
LINE
8
BLACK
6
CONTINUOUS
10
5.22573
20
-4.16687
11
5.22561
21
-4.166
0
LINE
8
BLACK
6
CONTINUOUS
10
5.22561
20
-4.166
11
5.22558
21
-4.16594
0
LINE
8
BLACK
6
CONTINUOUS
10
5.22558
20
-4.16594
11
5.22558
21
-4.16219
0
LINE
8
BLACK
6
CONTINUOUS
10
5.22558
20
-4.16219
11
5.22574
21
-4.16132
0
LINE
8
BLACK
6
CONTINUOUS
10
5.22574
20
-4.16132
11
5.22573
21
-4.16126
0
LINE
8
BLACK
6
CONTINUOUS
10
5.22573
20
-4.16126
11
5.22761
21
-4.15563
0
LINE
8
BLACK
6
CONTINUOUS
10
5.22761
20
-4.15563
11
5.2281
21
-4.15473
0
LINE
8
BLACK
6
CONTINUOUS
10
5.2281
20
-4.15473
11
5.22825
21
-4.15464
0
LINE
8
BLACK
6
CONTINUOUS
10
5.22825
20
-4.15464
11
5.22832
21
-4.15448
0
LINE
8
BLACK
6
CONTINUOUS
10
5.22832
20
-4.15448
11
5.23207
21
-4.15073
0
LINE
8
BLACK
6
CONTINUOUS
10
5.23207
20
-4.15073
11
5.2328
21
-4.15022
0
LINE
8
BLACK
6
CONTINUOUS
10
5.2328
20
-4.15022
11
5.23284
21
-4.15017
0
LINE
8
BLACK
6
CONTINUOUS
10
5.23284
20
-4.15017
11
5.23659
21
-4.1483
0
LINE
8
BLACK
6
CONTINUOUS
10
5.23659
20
-4.1483
11
5.23708
21
-4.14815
0
LINE
8
BLACK
6
CONTINUOUS
10
5.23708
20
-4.14815
11
5.23719
21
-4.14808
0
LINE
8
BLACK
6
CONTINUOUS
10
5.23719
20
-4.14808
11
5.24469
21
-4.1462
0
LINE
8
BLACK
6
CONTINUOUS
10
5.24469
20
-4.1462
11
5.24528
21
-4.14616
0
LINE
8
BLACK
6
CONTINUOUS
10
5.24528
20
-4.14616
11
5.24541
21
-4.14611
0
LINE
8
BLACK
6
CONTINUOUS
10
5.24541
20
-4.14611
11
5.25103
21
-4.14611
0
LINE
8
BLACK
6
CONTINUOUS
10
5.25103
20
-4.14611
11
5.25161
21
-4.14622
0
LINE
8
BLACK
6
CONTINUOUS
10
5.34161
20
-4.14622
11
5.34175
21
-4.1462
0
LINE
8
BLACK
6
CONTINUOUS
10
5.34175
20
-4.1462
11
5.34925
21
-4.14808
0
LINE
8
BLACK
6
CONTINUOUS
10
5.34925
20
-4.14808
11
5.34971
21
-4.14828
0
LINE
8
BLACK
6
CONTINUOUS
10
5.34971
20
-4.14828
11
5.34985
21
-4.1483
0
LINE
8
BLACK
6
CONTINUOUS
10
5.34985
20
-4.1483
11
5.3536
21
-4.15017
0
LINE
8
BLACK
6
CONTINUOUS
10
5.3536
20
-4.15017
11
5.35431
21
-4.1507
0
LINE
8
BLACK
6
CONTINUOUS
10
5.35431
20
-4.1507
11
5.35437
21
-4.15073
0
LINE
8
BLACK
6
CONTINUOUS
10
5.35437
20
-4.15073
11
5.35812
21
-4.15448
0
LINE
8
BLACK
6
CONTINUOUS
10
5.35812
20
-4.15448
11
5.35871
21
-4.15532
0
LINE
8
BLACK
6
CONTINUOUS
10
5.35871
20
-4.15532
11
5.35872
21
-4.15549
0
LINE
8
BLACK
6
CONTINUOUS
10
5.35872
20
-4.15549
11
5.35883
21
-4.15563
0
LINE
8
BLACK
6
CONTINUOUS
10
5.35883
20
-4.15563
11
5.36071
21
-4.16126
0
LINE
8
BLACK
6
CONTINUOUS
10
5.36071
20
-4.16126
11
5.36084
21
-4.16213
0
LINE
8
BLACK
6
CONTINUOUS
10
5.36084
20
-4.16213
11
5.36086
21
-4.16219
0
LINE
8
BLACK
6
CONTINUOUS
10
5.36086
20
-4.16219
11
5.36086
21
-4.16594
0
LINE
8
BLACK
6
CONTINUOUS
10
5.36086
20
-4.16594
11
5.36071
21
-4.16681
0
LINE
8
BLACK
6
CONTINUOUS
10
5.36071
20
-4.16681
11
5.36071
21
-4.16687
0
LINE
8
BLACK
6
CONTINUOUS
10
5.36071
20
-4.16687
11
5.35883
21
-4.1725
0
LINE
8
BLACK
6
CONTINUOUS
10
5.35883
20
-4.1725
11
5.35834
21
-4.1734
0
LINE
8
BLACK
6
CONTINUOUS
10
5.35834
20
-4.1734
11
5.35819
21
-4.17349
0
LINE
8
BLACK
6
CONTINUOUS
10
5.35819
20
-4.17349
11
5.35812
21
-4.17365
0
LINE
8
BLACK
6
CONTINUOUS
10
5.35812
20
-4.17365
11
5.35624
21
-4.17553
0
LINE
8
BLACK
6
CONTINUOUS
10
5.35624
20
-4.17553
11
5.3554
21
-4.17611
0
LINE
8
BLACK
6
CONTINUOUS
10
5.3554
20
-4.17611
11
5.35339
21
-4.17629
0
LINE
8
BLACK
6
CONTINUOUS
10
5.35339
20
-4.17629
11
5.35174
21
-4.17513
0
LINE
8
BLACK
6
CONTINUOUS
10
5.35174
20
-4.17513
11
5.35122
21
-4.17318
0
LINE
8
BLACK
6
CONTINUOUS
10
5.35122
20
-4.17318
11
5.35207
21
-4.17135
0
LINE
8
BLACK
6
CONTINUOUS
10
5.35207
20
-4.17135
11
5.35345
21
-4.16997
0
LINE
8
BLACK
6
CONTINUOUS
10
5.35345
20
-4.16997
11
5.35495
21
-4.16546
0
LINE
8
BLACK
6
CONTINUOUS
10
5.35495
20
-4.16546
11
5.35495
21
-4.16267
0
LINE
8
BLACK
6
CONTINUOUS
10
5.35495
20
-4.16267
11
5.35345
21
-4.15816
0
LINE
8
BLACK
6
CONTINUOUS
10
5.35345
20
-4.15816
11
5.35053
21
-4.15524
0
LINE
8
BLACK
6
CONTINUOUS
10
5.35053
20
-4.15524
11
5.3475
21
-4.15373
0
LINE
8
BLACK
6
CONTINUOUS
10
5.3475
20
-4.15373
11
5.34067
21
-4.15202
0
LINE
8
BLACK
6
CONTINUOUS
10
5.34067
20
-4.15202
11
5.33577
21
-4.15202
0
LINE
8
BLACK
6
CONTINUOUS
10
5.33577
20
-4.15202
11
5.32894
21
-4.15373
0
LINE
8
BLACK
6
CONTINUOUS
10
5.32894
20
-4.15373
11
5.32591
21
-4.15524
0
LINE
8
BLACK
6
CONTINUOUS
10
5.32591
20
-4.15524
11
5.32299
21
-4.15816
0
LINE
8
BLACK
6
CONTINUOUS
10
5.32299
20
-4.15816
11
5.32149
21
-4.16267
0
LINE
8
BLACK
6
CONTINUOUS
10
5.32149
20
-4.16267
11
5.32149
21
-4.16546
0
LINE
8
BLACK
6
CONTINUOUS
10
5.32149
20
-4.16546
11
5.32299
21
-4.16997
0
LINE
8
BLACK
6
CONTINUOUS
10
5.32299
20
-4.16997
11
5.32437
21
-4.17135
0
LINE
8
BLACK
6
CONTINUOUS
10
5.32437
20
-4.17135
11
5.32496
21
-4.17219
0
LINE
8
BLACK
6
CONTINUOUS
10
5.32496
20
-4.17219
11
5.32514
21
-4.1742
0
LINE
8
BLACK
6
CONTINUOUS
10
5.32514
20
-4.1742
11
5.32398
21
-4.17586
0
LINE
8
BLACK
6
CONTINUOUS
10
5.32398
20
-4.17586
11
5.32203
21
-4.17638
0
LINE
8
BLACK
6
CONTINUOUS
10
5.32203
20
-4.17638
11
5.3202
21
-4.17553
0
LINE
8
BLACK
6
CONTINUOUS
10
5.3202
20
-4.17553
11
5.31832
21
-4.17365
0
LINE
8
BLACK
6
CONTINUOUS
10
5.31832
20
-4.17365
11
5.31773
21
-4.17281
0
LINE
8
BLACK
6
CONTINUOUS
10
5.31773
20
-4.17281
11
5.31772
21
-4.17264
0
LINE
8
BLACK
6
CONTINUOUS
10
5.31772
20
-4.17264
11
5.31761
21
-4.1725
0
LINE
8
BLACK
6
CONTINUOUS
10
5.31761
20
-4.1725
11
5.31573
21
-4.16687
0
LINE
8
BLACK
6
CONTINUOUS
10
5.31573
20
-4.16687
11
5.31561
21
-4.166
0
LINE
8
BLACK
6
CONTINUOUS
10
5.31561
20
-4.166
11
5.31558
21
-4.16594
0
LINE
8
BLACK
6
CONTINUOUS
10
5.31558
20
-4.16594
11
5.31558
21
-4.16219
0
LINE
8
BLACK
6
CONTINUOUS
10
5.31558
20
-4.16219
11
5.31574
21
-4.16132
0
LINE
8
BLACK
6
CONTINUOUS
10
5.31574
20
-4.16132
11
5.31573
21
-4.16126
0
LINE
8
BLACK
6
CONTINUOUS
10
5.31573
20
-4.16126
11
5.31761
21
-4.15563
0
LINE
8
BLACK
6
CONTINUOUS
10
5.31761
20
-4.15563
11
5.3181
21
-4.15473
0
LINE
8
BLACK
6
CONTINUOUS
10
5.3181
20
-4.15473
11
5.31825
21
-4.15464
0
LINE
8
BLACK
6
CONTINUOUS
10
5.31825
20
-4.15464
11
5.31832
21
-4.15448
0
LINE
8
BLACK
6
CONTINUOUS
10
5.31832
20
-4.15448
11
5.32207
21
-4.15073
0
LINE
8
BLACK
6
CONTINUOUS
10
5.32207
20
-4.15073
11
5.3228
21
-4.15022
0
LINE
8
BLACK
6
CONTINUOUS
10
5.3228
20
-4.15022
11
5.32284
21
-4.15017
0
LINE
8
BLACK
6
CONTINUOUS
10
5.32284
20
-4.15017
11
5.32659
21
-4.1483
0
LINE
8
BLACK
6
CONTINUOUS
10
5.32659
20
-4.1483
11
5.32708
21
-4.14815
0
LINE
8
BLACK
6
CONTINUOUS
10
5.32708
20
-4.14815
11
5.32719
21
-4.14808
0
LINE
8
BLACK
6
CONTINUOUS
10
5.32719
20
-4.14808
11
5.33469
21
-4.1462
0
LINE
8
BLACK
6
CONTINUOUS
10
5.33469
20
-4.1462
11
5.33528
21
-4.14616
0
LINE
8
BLACK
6
CONTINUOUS
10
5.33528
20
-4.14616
11
5.33541
21
-4.14611
0
LINE
8
BLACK
6
CONTINUOUS
10
5.33541
20
-4.14611
11
5.34103
21
-4.14611
0
LINE
8
BLACK
6
CONTINUOUS
10
5.34103
20
-4.14611
11
5.34161
21
-4.14622
0
LINE
8
BLACK
6
CONTINUOUS
10
5.30061
20
-4.13727
11
5.3013
21
-4.13894
0
LINE
8
BLACK
6
CONTINUOUS
10
5.3013
20
-4.13894
11
5.30061
21
-4.14061
0
LINE
8
BLACK
6
CONTINUOUS
10
5.30061
20
-4.14061
11
5.29894
21
-4.1413
0
LINE
8
BLACK
6
CONTINUOUS
10
5.29894
20
-4.1413
11
5.28106
21
-4.1413
0
LINE
8
BLACK
6
CONTINUOUS
10
5.28106
20
-4.1413
11
5.27939
21
-4.14061
0
LINE
8
BLACK
6
CONTINUOUS
10
5.27939
20
-4.14061
11
5.2787
21
-4.13894
0
LINE
8
BLACK
6
CONTINUOUS
10
5.2787
20
-4.13894
11
5.27939
21
-4.13727
0
LINE
8
BLACK
6
CONTINUOUS
10
5.27939
20
-4.13727
11
5.28106
21
-4.13657
0
LINE
8
BLACK
6
CONTINUOUS
10
5.28106
20
-4.13657
11
5.29894
21
-4.13657
0
LINE
8
BLACK
6
CONTINUOUS
10
5.29894
20
-4.13657
11
5.30061
21
-4.13727
0
LINE
8
BLACK
6
CONTINUOUS
10
5.46061
20
-4.13727
11
5.4613
21
-4.13894
0
LINE
8
BLACK
6
CONTINUOUS
10
5.4613
20
-4.13894
11
5.46061
21
-4.14061
0
LINE
8
BLACK
6
CONTINUOUS
10
5.46061
20
-4.14061
11
5.45894
21
-4.1413
0
LINE
8
BLACK
6
CONTINUOUS
10
5.45894
20
-4.1413
11
5.44106
21
-4.1413
0
LINE
8
BLACK
6
CONTINUOUS
10
5.44106
20
-4.1413
11
5.43939
21
-4.14061
0
LINE
8
BLACK
6
CONTINUOUS
10
5.43939
20
-4.14061
11
5.4387
21
-4.13894
0
LINE
8
BLACK
6
CONTINUOUS
10
5.4387
20
-4.13894
11
5.43939
21
-4.13727
0
LINE
8
BLACK
6
CONTINUOUS
10
5.43939
20
-4.13727
11
5.44106
21
-4.13657
0
LINE
8
BLACK
6
CONTINUOUS
10
5.44106
20
-4.13657
11
5.45894
21
-4.13657
0
LINE
8
BLACK
6
CONTINUOUS
10
5.45894
20
-4.13657
11
5.46061
21
-4.13727
0
LINE
8
BLACK
6
CONTINUOUS
10
5.17695
20
-4.08576
11
5.17708
21
-4.08587
0
LINE
8
BLACK
6
CONTINUOUS
10
5.17708
20
-4.08587
11
5.17726
21
-4.0859
0
LINE
8
BLACK
6
CONTINUOUS
10
5.17726
20
-4.0859
11
5.18101
21
-4.08777
0
LINE
8
BLACK
6
CONTINUOUS
10
5.18101
20
-4.08777
11
5.18172
21
-4.0883
0
LINE
8
BLACK
6
CONTINUOUS
10
5.18172
20
-4.0883
11
5.18178
21
-4.08832
0
LINE
8
BLACK
6
CONTINUOUS
10
5.18178
20
-4.08832
11
5.18365
21
-4.0902
0
LINE
8
BLACK
6
CONTINUOUS
10
5.18365
20
-4.0902
11
5.18424
21
-4.09104
0
LINE
8
BLACK
6
CONTINUOUS
10
5.18424
20
-4.09104
11
5.18442
21
-4.09305
0
LINE
8
BLACK
6
CONTINUOUS
10
5.18442
20
-4.09305
11
5.18326
21
-4.0947
0
LINE
8
BLACK
6
CONTINUOUS
10
5.18326
20
-4.0947
11
5.18131
21
-4.09523
0
LINE
8
BLACK
6
CONTINUOUS
10
5.18131
20
-4.09523
11
5.17948
21
-4.09437
0
LINE
8
BLACK
6
CONTINUOUS
10
5.17948
20
-4.09437
11
5.17794
21
-4.09284
0
LINE
8
BLACK
6
CONTINUOUS
10
5.17794
20
-4.09284
11
5.17524
21
-4.09149
0
LINE
8
BLACK
6
CONTINUOUS
10
5.17524
20
-4.09149
11
5.16726
21
-4.09149
0
LINE
8
BLACK
6
CONTINUOUS
10
5.16726
20
-4.09149
11
5.16456
21
-4.09284
0
LINE
8
BLACK
6
CONTINUOUS
10
5.16456
20
-4.09284
11
5.16337
21
-4.09403
0
LINE
8
BLACK
6
CONTINUOUS
10
5.16337
20
-4.09403
11
5.16202
21
-4.09673
0
LINE
8
BLACK
6
CONTINUOUS
10
5.16202
20
-4.09673
11
5.16202
21
-4.09931
0
LINE
8
BLACK
6
CONTINUOUS
10
5.16202
20
-4.09931
11
5.16352
21
-4.10381
0
LINE
8
BLACK
6
CONTINUOUS
10
5.16352
20
-4.10381
11
5.18553
21
-4.12582
0
LINE
8
BLACK
6
CONTINUOUS
10
5.18553
20
-4.12582
11
5.1859
21
-4.12635
0
LINE
8
BLACK
6
CONTINUOUS
10
5.1859
20
-4.12635
11
5.186
21
-4.12643
0
LINE
8
BLACK
6
CONTINUOUS
10
5.186
20
-4.12643
11
5.18601
21
-4.12651
0
LINE
8
BLACK
6
CONTINUOUS
10
5.18601
20
-4.12651
11
5.18611
21
-4.12666
0
LINE
8
BLACK
6
CONTINUOUS
10
5.18611
20
-4.12666
11
5.18619
21
-4.12754
0
LINE
8
BLACK
6
CONTINUOUS
10
5.18619
20
-4.12754
11
5.18635
21
-4.12842
0
LINE
8
BLACK
6
CONTINUOUS
10
5.18635
20
-4.12842
11
5.18628
21
-4.12854
0
LINE
8
BLACK
6
CONTINUOUS
10
5.18628
20
-4.12854
11
5.18629
21
-4.12867
0
LINE
8
BLACK
6
CONTINUOUS
10
5.18629
20
-4.12867
11
5.18578
21
-4.1294
0
LINE
8
BLACK
6
CONTINUOUS
10
5.18578
20
-4.1294
11
5.18534
21
-4.13017
0
LINE
8
BLACK
6
CONTINUOUS
10
5.18534
20
-4.13017
11
5.18521
21
-4.13021
0
LINE
8
BLACK
6
CONTINUOUS
10
5.18521
20
-4.13021
11
5.18513
21
-4.13033
0
LINE
8
BLACK
6
CONTINUOUS
10
5.18513
20
-4.13033
11
5.18427
21
-4.13056
0
LINE
8
BLACK
6
CONTINUOUS
10
5.18427
20
-4.13056
11
5.18344
21
-4.13086
0
LINE
8
BLACK
6
CONTINUOUS
10
5.18344
20
-4.13086
11
5.15907
21
-4.13086
0
LINE
8
BLACK
6
CONTINUOUS
10
5.15907
20
-4.13086
11
5.15806
21
-4.13068
0
LINE
8
BLACK
6
CONTINUOUS
10
5.15806
20
-4.13068
11
5.15651
21
-4.12938
0
LINE
8
BLACK
6
CONTINUOUS
10
5.15651
20
-4.12938
11
5.15616
21
-4.12739
0
LINE
8
BLACK
6
CONTINUOUS
10
5.15616
20
-4.12739
11
5.15717
21
-4.12564
0
LINE
8
BLACK
6
CONTINUOUS
10
5.15717
20
-4.12564
11
5.15907
21
-4.12495
0
LINE
8
BLACK
6
CONTINUOUS
10
5.15907
20
-4.12495
11
5.17631
21
-4.12495
0
LINE
8
BLACK
6
CONTINUOUS
10
5.17631
20
-4.12495
11
5.15885
21
-4.1075
0
LINE
8
BLACK
6
CONTINUOUS
10
5.15885
20
-4.1075
11
5.15827
21
-4.10666
0
LINE
8
BLACK
6
CONTINUOUS
10
5.15827
20
-4.10666
11
5.15825
21
-4.10648
0
LINE
8
BLACK
6
CONTINUOUS
10
5.15825
20
-4.10648
11
5.15814
21
-4.10634
0
LINE
8
BLACK
6
CONTINUOUS
10
5.15814
20
-4.10634
11
5.15627
21
-4.10072
0
LINE
8
BLACK
6
CONTINUOUS
10
5.15627
20
-4.10072
11
5.15614
21
-4.09985
0
LINE
8
BLACK
6
CONTINUOUS
10
5.15614
20
-4.09985
11
5.15611
21
-4.09978
0
LINE
8
BLACK
6
CONTINUOUS
10
5.15611
20
-4.09978
11
5.15611
21
-4.09604
0
LINE
8
BLACK
6
CONTINUOUS
10
5.15611
20
-4.09604
11
5.15629
21
-4.09503
0
LINE
8
BLACK
6
CONTINUOUS
10
5.15629
20
-4.09503
11
5.15641
21
-4.09489
0
LINE
8
BLACK
6
CONTINUOUS
10
5.15641
20
-4.09489
11
5.15643
21
-4.09471
0
LINE
8
BLACK
6
CONTINUOUS
10
5.15643
20
-4.09471
11
5.1583
21
-4.09097
0
LINE
8
BLACK
6
CONTINUOUS
10
5.1583
20
-4.09097
11
5.15883
21
-4.09026
0
LINE
8
BLACK
6
CONTINUOUS
10
5.15883
20
-4.09026
11
5.15885
21
-4.0902
0
LINE
8
BLACK
6
CONTINUOUS
10
5.15885
20
-4.0902
11
5.16073
21
-4.08832
0
LINE
8
BLACK
6
CONTINUOUS
10
5.16073
20
-4.08832
11
5.16145
21
-4.08782
0
LINE
8
BLACK
6
CONTINUOUS
10
5.16145
20
-4.08782
11
5.1615
21
-4.08777
0
LINE
8
BLACK
6
CONTINUOUS
10
5.1615
20
-4.08777
11
5.16524
21
-4.0859
0
LINE
8
BLACK
6
CONTINUOUS
10
5.16524
20
-4.0859
11
5.16623
21
-4.0856
0
LINE
8
BLACK
6
CONTINUOUS
10
5.16623
20
-4.0856
11
5.1664
21
-4.08564
0
LINE
8
BLACK
6
CONTINUOUS
10
5.1664
20
-4.08564
11
5.16657
21
-4.08558
0
LINE
8
BLACK
6
CONTINUOUS
10
5.16657
20
-4.08558
11
5.17594
21
-4.08558
0
LINE
8
BLACK
6
CONTINUOUS
10
5.17594
20
-4.08558
11
5.17695
21
-4.08576
0
LINE
8
BLACK
6
CONTINUOUS
10
5.53097
20
-4.08571
11
5.53114
21
-4.0857
0
LINE
8
BLACK
6
CONTINUOUS
10
5.53114
20
-4.0857
11
5.53183
21
-4.08621
0
LINE
8
BLACK
6
CONTINUOUS
10
5.53183
20
-4.08621
11
5.53258
21
-4.08664
0
LINE
8
BLACK
6
CONTINUOUS
10
5.53258
20
-4.08664
11
5.53263
21
-4.0868
0
LINE
8
BLACK
6
CONTINUOUS
10
5.53263
20
-4.0868
11
5.53277
21
-4.0869
0
LINE
8
BLACK
6
CONTINUOUS
10
5.53277
20
-4.0869
11
5.53636
21
-4.09228
0
LINE
8
BLACK
6
CONTINUOUS
10
5.53636
20
-4.09228
11
5.53956
21
-4.09548
0
LINE
8
BLACK
6
CONTINUOUS
10
5.53956
20
-4.09548
11
5.54288
21
-4.09714
0
LINE
8
BLACK
6
CONTINUOUS
10
5.54288
20
-4.09714
11
5.54371
21
-4.09775
0
LINE
8
BLACK
6
CONTINUOUS
10
5.54371
20
-4.09775
11
5.54451
21
-4.09961
0
LINE
8
BLACK
6
CONTINUOUS
10
5.54451
20
-4.09961
11
5.54394
21
-4.10154
0
LINE
8
BLACK
6
CONTINUOUS
10
5.54394
20
-4.10154
11
5.54225
21
-4.10266
0
LINE
8
BLACK
6
CONTINUOUS
10
5.54225
20
-4.10266
11
5.54024
21
-4.10243
0
LINE
8
BLACK
6
CONTINUOUS
10
5.54024
20
-4.10243
11
5.53649
21
-4.10055
0
LINE
8
BLACK
6
CONTINUOUS
10
5.53649
20
-4.10055
11
5.53578
21
-4.10003
0
LINE
8
BLACK
6
CONTINUOUS
10
5.53578
20
-4.10003
11
5.53573
21
-4.1
0
LINE
8
BLACK
6
CONTINUOUS
10
5.53573
20
-4.1
11
5.53327
21
-4.09754
0
LINE
8
BLACK
6
CONTINUOUS
10
5.53327
20
-4.09754
11
5.53327
21
-4.12495
0
LINE
8
BLACK
6
CONTINUOUS
10
5.53327
20
-4.12495
11
5.54156
21
-4.12495
0
LINE
8
BLACK
6
CONTINUOUS
10
5.54156
20
-4.12495
11
5.54257
21
-4.12513
0
LINE
8
BLACK
6
CONTINUOUS
10
5.54257
20
-4.12513
11
5.54412
21
-4.12643
0
LINE
8
BLACK
6
CONTINUOUS
10
5.54412
20
-4.12643
11
5.54447
21
-4.12842
0
LINE
8
BLACK
6
CONTINUOUS
10
5.54447
20
-4.12842
11
5.54346
21
-4.13017
0
LINE
8
BLACK
6
CONTINUOUS
10
5.54346
20
-4.13017
11
5.54156
21
-4.13086
0
LINE
8
BLACK
6
CONTINUOUS
10
5.54156
20
-4.13086
11
5.51907
21
-4.13086
0
LINE
8
BLACK
6
CONTINUOUS
10
5.51907
20
-4.13086
11
5.51806
21
-4.13068
0
LINE
8
BLACK
6
CONTINUOUS
10
5.51806
20
-4.13068
11
5.51651
21
-4.12938
0
LINE
8
BLACK
6
CONTINUOUS
10
5.51651
20
-4.12938
11
5.51616
21
-4.12739
0
LINE
8
BLACK
6
CONTINUOUS
10
5.51616
20
-4.12739
11
5.51717
21
-4.12564
0
LINE
8
BLACK
6
CONTINUOUS
10
5.51717
20
-4.12564
11
5.51907
21
-4.12495
0
LINE
8
BLACK
6
CONTINUOUS
10
5.51907
20
-4.12495
11
5.52736
21
-4.12495
0
LINE
8
BLACK
6
CONTINUOUS
10
5.52736
20
-4.12495
11
5.52736
21
-4.08854
0
LINE
8
BLACK
6
CONTINUOUS
10
5.52736
20
-4.08854
11
5.52754
21
-4.08753
0
LINE
8
BLACK
6
CONTINUOUS
10
5.52754
20
-4.08753
11
5.52765
21
-4.0874
0
LINE
8
BLACK
6
CONTINUOUS
10
5.52765
20
-4.0874
11
5.52767
21
-4.08723
0
LINE
8
BLACK
6
CONTINUOUS
10
5.52767
20
-4.08723
11
5.52829
21
-4.08664
0
LINE
8
BLACK
6
CONTINUOUS
10
5.52829
20
-4.08664
11
5.52884
21
-4.08598
0
LINE
8
BLACK
6
CONTINUOUS
10
5.52884
20
-4.08598
11
5.52901
21
-4.08595
0
LINE
8
BLACK
6
CONTINUOUS
10
5.52901
20
-4.08595
11
5.52913
21
-4.08583
0
LINE
8
BLACK
6
CONTINUOUS
10
5.52913
20
-4.08583
11
5.52998
21
-4.08578
0
LINE
8
BLACK
6
CONTINUOUS
10
5.52998
20
-4.08578
11
5.53083
21
-4.08563
0
LINE
8
BLACK
6
CONTINUOUS
10
5.53083
20
-4.08563
11
5.53097
21
-4.08571
0
LINE
8
BLACK
6
CONTINUOUS
10
5.21944
20
-4.08565
11
5.21957
21
-4.08563
0
LINE
8
BLACK
6
CONTINUOUS
10
5.21957
20
-4.08563
11
5.21969
21
-4.08569
0
LINE
8
BLACK
6
CONTINUOUS
10
5.21969
20
-4.08569
11
5.22007
21
-4.08576
0
LINE
8
BLACK
6
CONTINUOUS
10
5.22007
20
-4.08576
11
5.22066
21
-4.08625
0
LINE
8
BLACK
6
CONTINUOUS
10
5.22066
20
-4.08625
11
5.22132
21
-4.08664
0
LINE
8
BLACK
6
CONTINUOUS
10
5.22132
20
-4.08664
11
5.22141
21
-4.08689
0
LINE
8
BLACK
6
CONTINUOUS
10
5.22141
20
-4.08689
11
5.22162
21
-4.08706
0
LINE
8
BLACK
6
CONTINUOUS
10
5.22162
20
-4.08706
11
5.22175
21
-4.08782
0
LINE
8
BLACK
6
CONTINUOUS
10
5.22175
20
-4.08782
11
5.22201
21
-4.08854
0
LINE
8
BLACK
6
CONTINUOUS
10
5.22201
20
-4.08854
11
5.22201
21
-4.12791
0
LINE
8
BLACK
6
CONTINUOUS
10
5.22201
20
-4.12791
11
5.22183
21
-4.12892
0
LINE
8
BLACK
6
CONTINUOUS
10
5.22183
20
-4.12892
11
5.22054
21
-4.13046
0
LINE
8
BLACK
6
CONTINUOUS
10
5.22054
20
-4.13046
11
5.21855
21
-4.13081
0
LINE
8
BLACK
6
CONTINUOUS
10
5.21855
20
-4.13081
11
5.2168
21
-4.1298
0
LINE
8
BLACK
6
CONTINUOUS
10
5.2168
20
-4.1298
11
5.21611
21
-4.12791
0
LINE
8
BLACK
6
CONTINUOUS
10
5.21611
20
-4.12791
11
5.21611
21
-4.11211
0
LINE
8
BLACK
6
CONTINUOUS
10
5.21611
20
-4.11211
11
5.21122
21
-4.11211
0
LINE
8
BLACK
6
CONTINUOUS
10
5.21122
20
-4.11211
11
5.19898
21
-4.1296
0
LINE
8
BLACK
6
CONTINUOUS
10
5.19898
20
-4.1296
11
5.19826
21
-4.13032
0
LINE
8
BLACK
6
CONTINUOUS
10
5.19826
20
-4.13032
11
5.1963
21
-4.13085
0
LINE
8
BLACK
6
CONTINUOUS
10
5.1963
20
-4.13085
11
5.19447
21
-4.12999
0
LINE
8
BLACK
6
CONTINUOUS
10
5.19447
20
-4.12999
11
5.19362
21
-4.12816
0
LINE
8
BLACK
6
CONTINUOUS
10
5.19362
20
-4.12816
11
5.19414
21
-4.12621
0
LINE
8
BLACK
6
CONTINUOUS
10
5.19414
20
-4.12621
11
5.20402
21
-4.1121
0
LINE
8
BLACK
6
CONTINUOUS
10
5.20402
20
-4.1121
11
5.20305
21
-4.11193
0
LINE
8
BLACK
6
CONTINUOUS
10
5.20305
20
-4.11193
11
5.20292
21
-4.11182
0
LINE
8
BLACK
6
CONTINUOUS
10
5.20292
20
-4.11182
11
5.20274
21
-4.1118
0
LINE
8
BLACK
6
CONTINUOUS
10
5.20274
20
-4.1118
11
5.19899
21
-4.10992
0
LINE
8
BLACK
6
CONTINUOUS
10
5.19899
20
-4.10992
11
5.19828
21
-4.1094
0
LINE
8
BLACK
6
CONTINUOUS
10
5.19828
20
-4.1094
11
5.19822
21
-4.10937
0
LINE
8
BLACK
6
CONTINUOUS
10
5.19822
20
-4.10937
11
5.19635
21
-4.1075
0
LINE
8
BLACK
6
CONTINUOUS
10
5.19635
20
-4.1075
11
5.19584
21
-4.10677
0
LINE
8
BLACK
6
CONTINUOUS
10
5.19584
20
-4.10677
11
5.1958
21
-4.10673
0
LINE
8
BLACK
6
CONTINUOUS
10
5.1958
20
-4.10673
11
5.19392
21
-4.10298
0
LINE
8
BLACK
6
CONTINUOUS
10
5.19392
20
-4.10298
11
5.19363
21
-4.102
0
LINE
8
BLACK
6
CONTINUOUS
10
5.19363
20
-4.102
11
5.19367
21
-4.10183
0
LINE
8
BLACK
6
CONTINUOUS
10
5.19367
20
-4.10183
11
5.19361
21
-4.10166
0
LINE
8
BLACK
6
CONTINUOUS
10
5.19361
20
-4.10166
11
5.19361
21
-4.09604
0
LINE
8
BLACK
6
CONTINUOUS
10
5.19361
20
-4.09604
11
5.19379
21
-4.09503
0
LINE
8
BLACK
6
CONTINUOUS
10
5.19379
20
-4.09503
11
5.1939
21
-4.09489
0
LINE
8
BLACK
6
CONTINUOUS
10
5.1939
20
-4.09489
11
5.19392
21
-4.09471
0
LINE
8
BLACK
6
CONTINUOUS
10
5.19392
20
-4.09471
11
5.1958
21
-4.09097
0
LINE
8
BLACK
6
CONTINUOUS
10
5.1958
20
-4.09097
11
5.19632
21
-4.09026
0
LINE
8
BLACK
6
CONTINUOUS
10
5.19632
20
-4.09026
11
5.19635
21
-4.0902
0
LINE
8
BLACK
6
CONTINUOUS
10
5.19635
20
-4.0902
11
5.19822
21
-4.08832
0
LINE
8
BLACK
6
CONTINUOUS
10
5.19822
20
-4.08832
11
5.19895
21
-4.08782
0
LINE
8
BLACK
6
CONTINUOUS
10
5.19895
20
-4.08782
11
5.19899
21
-4.08777
0
LINE
8
BLACK
6
CONTINUOUS
10
5.19899
20
-4.08777
11
5.20274
21
-4.0859
0
LINE
8
BLACK
6
CONTINUOUS
10
5.20274
20
-4.0859
11
5.20372
21
-4.0856
0
LINE
8
BLACK
6
CONTINUOUS
10
5.20372
20
-4.0856
11
5.20389
21
-4.08564
0
LINE
8
BLACK
6
CONTINUOUS
10
5.20389
20
-4.08564
11
5.20406
21
-4.08558
0
LINE
8
BLACK
6
CONTINUOUS
10
5.20406
20
-4.08558
11
5.21906
21
-4.08558
0
LINE
8
BLACK
6
CONTINUOUS
10
5.21906
20
-4.08558
11
5.21944
21
-4.08565
0
LINE
8
BLACK
6
CONTINUOUS
10
5.20206
20
-4.09284
11
5.20086
21
-4.09403
0
LINE
8
BLACK
6
CONTINUOUS
10
5.20086
20
-4.09403
11
5.19951
21
-4.09673
0
LINE
8
BLACK
6
CONTINUOUS
10
5.19951
20
-4.09673
11
5.19951
21
-4.10096
0
LINE
8
BLACK
6
CONTINUOUS
10
5.19951
20
-4.10096
11
5.20086
21
-4.10366
0
LINE
8
BLACK
6
CONTINUOUS
10
5.20086
20
-4.10366
11
5.20206
21
-4.10486
0
LINE
8
BLACK
6
CONTINUOUS
10
5.20206
20
-4.10486
11
5.20476
21
-4.10621
0
LINE
8
BLACK
6
CONTINUOUS
10
5.20476
20
-4.10621
11
5.21611
21
-4.10621
0
LINE
8
BLACK
6
CONTINUOUS
10
5.21611
20
-4.10621
11
5.21611
21
-4.09149
0
LINE
8
BLACK
6
CONTINUOUS
10
5.21611
20
-4.09149
11
5.20476
21
-4.09149
0
LINE
8
BLACK
6
CONTINUOUS
10
5.20476
20
-4.09149
11
5.20206
21
-4.09284
0
LINE
8
BLACK
6
CONTINUOUS
10
5.57944
20
-4.08565
11
5.57957
21
-4.08563
0
LINE
8
BLACK
6
CONTINUOUS
10
5.57957
20
-4.08563
11
5.57969
21
-4.08569
0
LINE
8
BLACK
6
CONTINUOUS
10
5.57969
20
-4.08569
11
5.58007
21
-4.08576
0
LINE
8
BLACK
6
CONTINUOUS
10
5.58007
20
-4.08576
11
5.58066
21
-4.08625
0
LINE
8
BLACK
6
CONTINUOUS
10
5.58066
20
-4.08625
11
5.58132
21
-4.08664
0
LINE
8
BLACK
6
CONTINUOUS
10
5.58132
20
-4.08664
11
5.58141
21
-4.08689
0
LINE
8
BLACK
6
CONTINUOUS
10
5.58141
20
-4.08689
11
5.58162
21
-4.08706
0
LINE
8
BLACK
6
CONTINUOUS
10
5.58162
20
-4.08706
11
5.58175
21
-4.08782
0
LINE
8
BLACK
6
CONTINUOUS
10
5.58175
20
-4.08782
11
5.58201
21
-4.08854
0
LINE
8
BLACK
6
CONTINUOUS
10
5.58201
20
-4.08854
11
5.58201
21
-4.12791
0
LINE
8
BLACK
6
CONTINUOUS
10
5.58201
20
-4.12791
11
5.58183
21
-4.12892
0
LINE
8
BLACK
6
CONTINUOUS
10
5.58183
20
-4.12892
11
5.58054
21
-4.13046
0
LINE
8
BLACK
6
CONTINUOUS
10
5.58054
20
-4.13046
11
5.57855
21
-4.13081
0
LINE
8
BLACK
6
CONTINUOUS
10
5.57855
20
-4.13081
11
5.5768
21
-4.1298
0
LINE
8
BLACK
6
CONTINUOUS
10
5.5768
20
-4.1298
11
5.57611
21
-4.12791
0
LINE
8
BLACK
6
CONTINUOUS
10
5.57611
20
-4.12791
11
5.57611
21
-4.11211
0
LINE
8
BLACK
6
CONTINUOUS
10
5.57611
20
-4.11211
11
5.57122
21
-4.11211
0
LINE
8
BLACK
6
CONTINUOUS
10
5.57122
20
-4.11211
11
5.55898
21
-4.1296
0
LINE
8
BLACK
6
CONTINUOUS
10
5.55898
20
-4.1296
11
5.55826
21
-4.13032
0
LINE
8
BLACK
6
CONTINUOUS
10
5.55826
20
-4.13032
11
5.5563
21
-4.13085
0
LINE
8
BLACK
6
CONTINUOUS
10
5.5563
20
-4.13085
11
5.55447
21
-4.12999
0
LINE
8
BLACK
6
CONTINUOUS
10
5.55447
20
-4.12999
11
5.55362
21
-4.12816
0
LINE
8
BLACK
6
CONTINUOUS
10
5.55362
20
-4.12816
11
5.55414
21
-4.12621
0
LINE
8
BLACK
6
CONTINUOUS
10
5.55414
20
-4.12621
11
5.56402
21
-4.1121
0
LINE
8
BLACK
6
CONTINUOUS
10
5.56402
20
-4.1121
11
5.56305
21
-4.11193
0
LINE
8
BLACK
6
CONTINUOUS
10
5.56305
20
-4.11193
11
5.56292
21
-4.11182
0
LINE
8
BLACK
6
CONTINUOUS
10
5.56292
20
-4.11182
11
5.56274
21
-4.1118
0
LINE
8
BLACK
6
CONTINUOUS
10
5.56274
20
-4.1118
11
5.55899
21
-4.10992
0
LINE
8
BLACK
6
CONTINUOUS
10
5.55899
20
-4.10992
11
5.55828
21
-4.1094
0
LINE
8
BLACK
6
CONTINUOUS
10
5.55828
20
-4.1094
11
5.55822
21
-4.10937
0
LINE
8
BLACK
6
CONTINUOUS
10
5.55822
20
-4.10937
11
5.55635
21
-4.1075
0
LINE
8
BLACK
6
CONTINUOUS
10
5.55635
20
-4.1075
11
5.55584
21
-4.10677
0
LINE
8
BLACK
6
CONTINUOUS
10
5.55584
20
-4.10677
11
5.5558
21
-4.10673
0
LINE
8
BLACK
6
CONTINUOUS
10
5.5558
20
-4.10673
11
5.55392
21
-4.10298
0
LINE
8
BLACK
6
CONTINUOUS
10
5.55392
20
-4.10298
11
5.55363
21
-4.102
0
LINE
8
BLACK
6
CONTINUOUS
10
5.55363
20
-4.102
11
5.55367
21
-4.10183
0
LINE
8
BLACK
6
CONTINUOUS
10
5.55367
20
-4.10183
11
5.55361
21
-4.10166
0
LINE
8
BLACK
6
CONTINUOUS
10
5.55361
20
-4.10166
11
5.55361
21
-4.09604
0
LINE
8
BLACK
6
CONTINUOUS
10
5.55361
20
-4.09604
11
5.55379
21
-4.09503
0
LINE
8
BLACK
6
CONTINUOUS
10
5.55379
20
-4.09503
11
5.5539
21
-4.09489
0
LINE
8
BLACK
6
CONTINUOUS
10
5.5539
20
-4.09489
11
5.55392
21
-4.09471
0
LINE
8
BLACK
6
CONTINUOUS
10
5.55392
20
-4.09471
11
5.5558
21
-4.09097
0
LINE
8
BLACK
6
CONTINUOUS
10
5.5558
20
-4.09097
11
5.55632
21
-4.09026
0
LINE
8
BLACK
6
CONTINUOUS
10
5.55632
20
-4.09026
11
5.55635
21
-4.0902
0
LINE
8
BLACK
6
CONTINUOUS
10
5.55635
20
-4.0902
11
5.55822
21
-4.08832
0
LINE
8
BLACK
6
CONTINUOUS
10
5.55822
20
-4.08832
11
5.55895
21
-4.08782
0
LINE
8
BLACK
6
CONTINUOUS
10
5.55895
20
-4.08782
11
5.55899
21
-4.08777
0
LINE
8
BLACK
6
CONTINUOUS
10
5.55899
20
-4.08777
11
5.56274
21
-4.0859
0
LINE
8
BLACK
6
CONTINUOUS
10
5.56274
20
-4.0859
11
5.56372
21
-4.0856
0
LINE
8
BLACK
6
CONTINUOUS
10
5.56372
20
-4.0856
11
5.56389
21
-4.08564
0
LINE
8
BLACK
6
CONTINUOUS
10
5.56389
20
-4.08564
11
5.56406
21
-4.08558
0
LINE
8
BLACK
6
CONTINUOUS
10
5.56406
20
-4.08558
11
5.57906
21
-4.08558
0
LINE
8
BLACK
6
CONTINUOUS
10
5.57906
20
-4.08558
11
5.57944
21
-4.08565
0
LINE
8
BLACK
6
CONTINUOUS
10
5.56206
20
-4.09284
11
5.56086
21
-4.09403
0
LINE
8
BLACK
6
CONTINUOUS
10
5.56086
20
-4.09403
11
5.55951
21
-4.09673
0
LINE
8
BLACK
6
CONTINUOUS
10
5.55951
20
-4.09673
11
5.55951
21
-4.10096
0
LINE
8
BLACK
6
CONTINUOUS
10
5.55951
20
-4.10096
11
5.56086
21
-4.10366
0
LINE
8
BLACK
6
CONTINUOUS
10
5.56086
20
-4.10366
11
5.56206
21
-4.10486
0
LINE
8
BLACK
6
CONTINUOUS
10
5.56206
20
-4.10486
11
5.56476
21
-4.10621
0
LINE
8
BLACK
6
CONTINUOUS
10
5.56476
20
-4.10621
11
5.57611
21
-4.10621
0
LINE
8
BLACK
6
CONTINUOUS
10
5.57611
20
-4.10621
11
5.57611
21
-4.09149
0
LINE
8
BLACK
6
CONTINUOUS
10
5.57611
20
-4.09149
11
5.56476
21
-4.09149
0
LINE
8
BLACK
6
CONTINUOUS
10
5.56476
20
-4.09149
11
5.56206
21
-4.09284
0
LINE
8
BLACK
6
CONTINUOUS
10
5.30061
20
-4.07939
11
5.3013
21
-4.08106
0
LINE
8
BLACK
6
CONTINUOUS
10
5.3013
20
-4.08106
11
5.30061
21
-4.08273
0
LINE
8
BLACK
6
CONTINUOUS
10
5.30061
20
-4.08273
11
5.29894
21
-4.08343
0
LINE
8
BLACK
6
CONTINUOUS
10
5.29894
20
-4.08343
11
5.28106
21
-4.08343
0
LINE
8
BLACK
6
CONTINUOUS
10
5.28106
20
-4.08343
11
5.27939
21
-4.08273
0
LINE
8
BLACK
6
CONTINUOUS
10
5.27939
20
-4.08273
11
5.2787
21
-4.08106
0
LINE
8
BLACK
6
CONTINUOUS
10
5.2787
20
-4.08106
11
5.27939
21
-4.07939
0
LINE
8
BLACK
6
CONTINUOUS
10
5.27939
20
-4.07939
11
5.28106
21
-4.0787
0
LINE
8
BLACK
6
CONTINUOUS
10
5.28106
20
-4.0787
11
5.29894
21
-4.0787
0
LINE
8
BLACK
6
CONTINUOUS
10
5.29894
20
-4.0787
11
5.30061
21
-4.07939
0
LINE
8
BLACK
6
CONTINUOUS
10
5.46061
20
-4.07939
11
5.4613
21
-4.08106
0
LINE
8
BLACK
6
CONTINUOUS
10
5.4613
20
-4.08106
11
5.46061
21
-4.08273
0
LINE
8
BLACK
6
CONTINUOUS
10
5.46061
20
-4.08273
11
5.45894
21
-4.08343
0
LINE
8
BLACK
6
CONTINUOUS
10
5.45894
20
-4.08343
11
5.44106
21
-4.08343
0
LINE
8
BLACK
6
CONTINUOUS
10
5.44106
20
-4.08343
11
5.43939
21
-4.08273
0
LINE
8
BLACK
6
CONTINUOUS
10
5.43939
20
-4.08273
11
5.4387
21
-4.08106
0
LINE
8
BLACK
6
CONTINUOUS
10
5.4387
20
-4.08106
11
5.43939
21
-4.07939
0
LINE
8
BLACK
6
CONTINUOUS
10
5.43939
20
-4.07939
11
5.44106
21
-4.0787
0
LINE
8
BLACK
6
CONTINUOUS
10
5.44106
20
-4.0787
11
5.45894
21
-4.0787
0
LINE
8
BLACK
6
CONTINUOUS
10
5.45894
20
-4.0787
11
5.46061
21
-4.07939
0
CIRCLE
8
BLACK
10
5.57
20
-3.91
40
0.00688976
0
CIRCLE
8
BLACK
10
5.57
20
-4.01
40
0.00688976
0
CIRCLE
8
BLACK
10
5.47
20
-3.91
40
0.00688976
0
CIRCLE
8
BLACK
10
5.47
20
-4.01
40
0.00688976
0
CIRCLE
8
BLACK
10
5.37
20
-3.91
40
0.00688976
0
CIRCLE
8
BLACK
10
5.37
20
-4.01
40
0.00688976
0
CIRCLE
8
BLACK
10
5.27
20
-3.91
40
0.00688976
0
CIRCLE
8
BLACK
10
5.27
20
-4.01
40
0.00688976
0
CIRCLE
8
BLACK
10
5.17
20
-3.91
40
0.00688976
0
CIRCLE
8
BLACK
10
5.17
20
-4.01
40
0.00688976
0
CIRCLE
8
BLACK
10
4.83
20
-4.01
40
0.00688976
0
CIRCLE
8
BLACK
10
4.83
20
-3.91
40
0.00688976
0
CIRCLE
8
BLACK
10
4.93
20
-4.01
40
0.00688976
0
CIRCLE
8
BLACK
10
4.93
20
-3.91
40
0.00688976
0
CIRCLE
8
BLACK
10
5.03
20
-4.01
40
0.00688976
0
CIRCLE
8
BLACK
10
5.03
20
-3.91
40
0.00688976
0
CIRCLE
8
BLACK
10
5.8
20
-4.4
40
0.00688976
0
CIRCLE
8
BLACK
10
4.6
20
-4
40
0.00688976
0
CIRCLE
8
BLACK
10
5.8
20
-4
40
0.00688976
0
CIRCLE
8
BLACK
10
4.6
20
-4.4
40
0.00688976
  0
ENDSEC
  0
EOF
