  0
SECTION
  2
HEADER
  9
$ANGBASE
  50
0.0
  9
$ANGDIR
  70
1
  9
$MEASUREMENT
  70
0
  0
ENDSEC
  0
SECTION
  2
TABLES
  0
TABLE
  2
LTYPE
  70
4
  0
LTYPE
  5
40F
  2
CONTINUOUS
  70
0
  3
Solid line
  72
65
  73
0
  40
0.0
  0
LTYPE
  5
410
  2
DASHDOT
 70
0
  3
Dash Dot ____ _ ____ _
 72
65
 73
4
 40
2.0
 49
1.25
 49
-0.25
 49
0.25
 49
-0.25
  0
LTYPE
  5
411
  2
DASHED
 70
0
  3
Dashed __ __ __ __ __
 72
65
 73
2
 40
0.75
 49
0.5
 49
-0.25
  0
LTYPE
  5
43B
  2
DOTTED
 70
0
  3
Dotted .  .  .  .
 72
65
 73
2
 40
0.2
 49
0.0
 49
-0.2
  0
ENDTAB
  0
TABLE
  2
STYLE
  70
4
  0
STYLE
  2
KICAD
  70
0
  40
0
  41
1
  42
1
  50
0
  71
0
  3
isocp.shx
  0
STYLE
  2
KICADB
  70
0
  40
0
  41
1
  42
1
  50
0
  71
0
  3
isocp.shx
  0
STYLE
  2
KICADI
  70
0
  40
0
  41
1
  42
1
  50
15
  71
0
  3
isocp.shx
  0
STYLE
  2
KICADBI
  70
0
  40
0
  41
1
  42
1
  50
15
  71
0
  3
isocp.shx
  0
ENDTAB
  0
TABLE
  2
LAYER
  70
1
  0
LAYER
  2
BLACK
  70
0
  62
7
  6
CONTINUOUS
  0
ENDTAB
  0
ENDSEC
  0
SECTION
  2
ENTITIES
0
LINE
8
BLACK
6
CONTINUOUS
10
5.45268
20
-4.38638
11
5.45423
21
-4.38768
0
LINE
8
BLACK
6
CONTINUOUS
10
5.45423
20
-4.38768
11
5.45458
21
-4.38967
0
LINE
8
BLACK
6
CONTINUOUS
10
5.45458
20
-4.38967
11
5.45357
21
-4.39141
0
LINE
8
BLACK
6
CONTINUOUS
10
5.45357
20
-4.39141
11
5.45167
21
-4.39211
0
LINE
8
BLACK
6
CONTINUOUS
10
5.45167
20
-4.39211
11
5.434
21
-4.39211
0
LINE
8
BLACK
6
CONTINUOUS
10
5.434
20
-4.39211
11
5.434
21
-4.40228
0
LINE
8
BLACK
6
CONTINUOUS
10
5.434
20
-4.40228
11
5.43382
21
-4.40329
0
LINE
8
BLACK
6
CONTINUOUS
10
5.43382
20
-4.40329
11
5.43252
21
-4.40483
0
LINE
8
BLACK
6
CONTINUOUS
10
5.43252
20
-4.40483
11
5.43053
21
-4.40518
0
LINE
8
BLACK
6
CONTINUOUS
10
5.43053
20
-4.40518
11
5.42878
21
-4.40417
0
LINE
8
BLACK
6
CONTINUOUS
10
5.42878
20
-4.40417
11
5.42809
21
-4.40228
0
LINE
8
BLACK
6
CONTINUOUS
10
5.42809
20
-4.40228
11
5.42809
21
-4.39211
0
LINE
8
BLACK
6
CONTINUOUS
10
5.42809
20
-4.39211
11
5.41525
21
-4.39211
0
LINE
8
BLACK
6
CONTINUOUS
10
5.41525
20
-4.39211
11
5.41525
21
-4.4079
0
LINE
8
BLACK
6
CONTINUOUS
10
5.41525
20
-4.4079
11
5.41507
21
-4.40891
0
LINE
8
BLACK
6
CONTINUOUS
10
5.41507
20
-4.40891
11
5.41377
21
-4.41046
0
LINE
8
BLACK
6
CONTINUOUS
10
5.41377
20
-4.41046
11
5.41179
21
-4.41081
0
LINE
8
BLACK
6
CONTINUOUS
10
5.41179
20
-4.41081
11
5.41004
21
-4.4098
0
LINE
8
BLACK
6
CONTINUOUS
10
5.41004
20
-4.4098
11
5.40935
21
-4.4079
0
LINE
8
BLACK
6
CONTINUOUS
10
5.40935
20
-4.4079
11
5.40935
21
-4.38915
0
LINE
8
BLACK
6
CONTINUOUS
10
5.40935
20
-4.38915
11
5.40941
21
-4.38877
0
LINE
8
BLACK
6
CONTINUOUS
10
5.40941
20
-4.38877
11
5.40939
21
-4.38864
0
LINE
8
BLACK
6
CONTINUOUS
10
5.40939
20
-4.38864
11
5.40946
21
-4.38853
0
LINE
8
BLACK
6
CONTINUOUS
10
5.40946
20
-4.38853
11
5.40952
21
-4.38814
0
LINE
8
BLACK
6
CONTINUOUS
10
5.40952
20
-4.38814
11
5.41002
21
-4.38755
0
LINE
8
BLACK
6
CONTINUOUS
10
5.41002
20
-4.38755
11
5.4104
21
-4.38689
0
LINE
8
BLACK
6
CONTINUOUS
10
5.4104
20
-4.38689
11
5.41065
21
-4.3868
0
LINE
8
BLACK
6
CONTINUOUS
10
5.41065
20
-4.3868
11
5.41082
21
-4.3866
0
LINE
8
BLACK
6
CONTINUOUS
10
5.41082
20
-4.3866
11
5.41158
21
-4.38646
0
LINE
8
BLACK
6
CONTINUOUS
10
5.41158
20
-4.38646
11
5.4123
21
-4.3862
0
LINE
8
BLACK
6
CONTINUOUS
10
5.4123
20
-4.3862
11
5.45167
21
-4.3862
0
LINE
8
BLACK
6
CONTINUOUS
10
5.45167
20
-4.3862
11
5.45268
21
-4.38638
0
LINE
8
BLACK
6
CONTINUOUS
10
5.25758
20
-4.22543
11
5.2577
21
-4.22541
0
LINE
8
BLACK
6
CONTINUOUS
10
5.2577
20
-4.22541
11
5.25782
21
-4.22548
0
LINE
8
BLACK
6
CONTINUOUS
10
5.25782
20
-4.22548
11
5.2582
21
-4.22554
0
LINE
8
BLACK
6
CONTINUOUS
10
5.2582
20
-4.22554
11
5.25879
21
-4.22604
0
LINE
8
BLACK
6
CONTINUOUS
10
5.25879
20
-4.22604
11
5.25945
21
-4.22642
0
LINE
8
BLACK
6
CONTINUOUS
10
5.25945
20
-4.22642
11
5.25954
21
-4.22667
0
LINE
8
BLACK
6
CONTINUOUS
10
5.25954
20
-4.22667
11
5.25975
21
-4.22684
0
LINE
8
BLACK
6
CONTINUOUS
10
5.25975
20
-4.22684
11
5.25988
21
-4.2276
0
LINE
8
BLACK
6
CONTINUOUS
10
5.25988
20
-4.2276
11
5.26014
21
-4.22832
0
LINE
8
BLACK
6
CONTINUOUS
10
5.26014
20
-4.22832
11
5.26014
21
-4.25594
0
LINE
8
BLACK
6
CONTINUOUS
10
5.26014
20
-4.25594
11
5.27299
21
-4.25594
0
LINE
8
BLACK
6
CONTINUOUS
10
5.27299
20
-4.25594
11
5.27299
21
-4.22832
0
LINE
8
BLACK
6
CONTINUOUS
10
5.27299
20
-4.22832
11
5.27316
21
-4.22731
0
LINE
8
BLACK
6
CONTINUOUS
10
5.27316
20
-4.22731
11
5.27446
21
-4.22576
0
LINE
8
BLACK
6
CONTINUOUS
10
5.27446
20
-4.22576
11
5.27645
21
-4.22541
0
LINE
8
BLACK
6
CONTINUOUS
10
5.27645
20
-4.22541
11
5.2782
21
-4.22642
0
LINE
8
BLACK
6
CONTINUOUS
10
5.2782
20
-4.22642
11
5.27889
21
-4.22832
0
LINE
8
BLACK
6
CONTINUOUS
10
5.27889
20
-4.22832
11
5.27889
21
-4.25594
0
LINE
8
BLACK
6
CONTINUOUS
10
5.27889
20
-4.25594
11
5.27925
21
-4.25594
0
LINE
8
BLACK
6
CONTINUOUS
10
5.27925
20
-4.25594
11
5.29587
21
-4.22685
0
LINE
8
BLACK
6
CONTINUOUS
10
5.29587
20
-4.22685
11
5.29653
21
-4.22607
0
LINE
8
BLACK
6
CONTINUOUS
10
5.29653
20
-4.22607
11
5.29678
21
-4.22597
0
LINE
8
BLACK
6
CONTINUOUS
10
5.29678
20
-4.22597
11
5.29696
21
-4.22576
0
LINE
8
BLACK
6
CONTINUOUS
10
5.29696
20
-4.22576
11
5.29771
21
-4.22563
0
LINE
8
BLACK
6
CONTINUOUS
10
5.29771
20
-4.22563
11
5.29842
21
-4.22537
0
LINE
8
BLACK
6
CONTINUOUS
10
5.29842
20
-4.22537
11
5.29868
21
-4.22546
0
LINE
8
BLACK
6
CONTINUOUS
10
5.29868
20
-4.22546
11
5.29895
21
-4.22541
0
LINE
8
BLACK
6
CONTINUOUS
10
5.29895
20
-4.22541
11
5.29961
21
-4.22579
0
LINE
8
BLACK
6
CONTINUOUS
10
5.29961
20
-4.22579
11
5.30032
21
-4.22605
0
LINE
8
BLACK
6
CONTINUOUS
10
5.30032
20
-4.22605
11
5.30046
21
-4.22628
0
LINE
8
BLACK
6
CONTINUOUS
10
5.30046
20
-4.22628
11
5.3007
21
-4.22642
0
LINE
8
BLACK
6
CONTINUOUS
10
5.3007
20
-4.22642
11
5.30096
21
-4.22714
0
LINE
8
BLACK
6
CONTINUOUS
10
5.30096
20
-4.22714
11
5.30134
21
-4.22779
0
LINE
8
BLACK
6
CONTINUOUS
10
5.30134
20
-4.22779
11
5.3013
21
-4.22806
0
LINE
8
BLACK
6
CONTINUOUS
10
5.3013
20
-4.22806
11
5.30139
21
-4.22832
0
LINE
8
BLACK
6
CONTINUOUS
10
5.30139
20
-4.22832
11
5.30139
21
-4.25594
0
LINE
8
BLACK
6
CONTINUOUS
10
5.30139
20
-4.25594
11
5.31355
21
-4.25594
0
LINE
8
BLACK
6
CONTINUOUS
10
5.31355
20
-4.25594
11
5.31244
21
-4.25153
0
LINE
8
BLACK
6
CONTINUOUS
10
5.31244
20
-4.25153
11
5.3124
21
-4.25094
0
LINE
8
BLACK
6
CONTINUOUS
10
5.3124
20
-4.25094
11
5.31236
21
-4.25082
0
LINE
8
BLACK
6
CONTINUOUS
10
5.31236
20
-4.25082
11
5.31236
21
-4.24519
0
LINE
8
BLACK
6
CONTINUOUS
10
5.31236
20
-4.24519
11
5.31246
21
-4.24461
0
LINE
8
BLACK
6
CONTINUOUS
10
5.31246
20
-4.24461
11
5.31244
21
-4.24448
0
LINE
8
BLACK
6
CONTINUOUS
10
5.31244
20
-4.24448
11
5.31432
21
-4.23698
0
LINE
8
BLACK
6
CONTINUOUS
10
5.31432
20
-4.23698
11
5.31453
21
-4.23651
0
LINE
8
BLACK
6
CONTINUOUS
10
5.31453
20
-4.23651
11
5.31454
21
-4.23637
0
LINE
8
BLACK
6
CONTINUOUS
10
5.31454
20
-4.23637
11
5.31642
21
-4.23262
0
LINE
8
BLACK
6
CONTINUOUS
10
5.31642
20
-4.23262
11
5.31694
21
-4.23191
0
LINE
8
BLACK
6
CONTINUOUS
10
5.31694
20
-4.23191
11
5.31697
21
-4.23186
0
LINE
8
BLACK
6
CONTINUOUS
10
5.31697
20
-4.23186
11
5.32072
21
-4.22811
0
LINE
8
BLACK
6
CONTINUOUS
10
5.32072
20
-4.22811
11
5.32156
21
-4.22752
0
LINE
8
BLACK
6
CONTINUOUS
10
5.32156
20
-4.22752
11
5.32174
21
-4.2275
0
LINE
8
BLACK
6
CONTINUOUS
10
5.32174
20
-4.2275
11
5.32187
21
-4.22739
0
LINE
8
BLACK
6
CONTINUOUS
10
5.32187
20
-4.22739
11
5.3275
21
-4.22552
0
LINE
8
BLACK
6
CONTINUOUS
10
5.3275
20
-4.22552
11
5.32837
21
-4.22539
0
LINE
8
BLACK
6
CONTINUOUS
10
5.32837
20
-4.22539
11
5.32843
21
-4.22537
0
LINE
8
BLACK
6
CONTINUOUS
10
5.32843
20
-4.22537
11
5.33781
21
-4.22537
0
LINE
8
BLACK
6
CONTINUOUS
10
5.33781
20
-4.22537
11
5.33819
21
-4.22543
0
LINE
8
BLACK
6
CONTINUOUS
10
5.33819
20
-4.22543
11
5.33832
21
-4.22541
0
LINE
8
BLACK
6
CONTINUOUS
10
5.33832
20
-4.22541
11
5.33843
21
-4.22548
0
LINE
8
BLACK
6
CONTINUOUS
10
5.33843
20
-4.22548
11
5.33882
21
-4.22554
0
LINE
8
BLACK
6
CONTINUOUS
10
5.33882
20
-4.22554
11
5.3394
21
-4.22604
0
LINE
8
BLACK
6
CONTINUOUS
10
5.3394
20
-4.22604
11
5.34007
21
-4.22642
0
LINE
8
BLACK
6
CONTINUOUS
10
5.34007
20
-4.22642
11
5.34016
21
-4.22667
0
LINE
8
BLACK
6
CONTINUOUS
10
5.34016
20
-4.22667
11
5.34036
21
-4.22684
0
LINE
8
BLACK
6
CONTINUOUS
10
5.34036
20
-4.22684
11
5.3405
21
-4.2276
0
LINE
8
BLACK
6
CONTINUOUS
10
5.3405
20
-4.2276
11
5.34076
21
-4.22832
0
LINE
8
BLACK
6
CONTINUOUS
10
5.34076
20
-4.22832
11
5.34076
21
-4.25594
0
LINE
8
BLACK
6
CONTINUOUS
10
5.34076
20
-4.25594
11
5.35252
21
-4.25594
0
LINE
8
BLACK
6
CONTINUOUS
10
5.35252
20
-4.25594
11
5.35394
21
-4.25615
0
LINE
8
BLACK
6
CONTINUOUS
10
5.35394
20
-4.25615
11
5.35424
21
-4.25635
0
LINE
8
BLACK
6
CONTINUOUS
10
5.35424
20
-4.25635
11
5.3546
21
-4.2564
0
LINE
8
BLACK
6
CONTINUOUS
10
5.3546
20
-4.2564
11
5.35541
21
-4.2571
0
LINE
8
BLACK
6
CONTINUOUS
10
5.35541
20
-4.2571
11
5.3563
21
-4.25768
0
LINE
8
BLACK
6
CONTINUOUS
10
5.3563
20
-4.25768
11
5.35645
21
-4.25801
0
LINE
8
BLACK
6
CONTINUOUS
10
5.35645
20
-4.25801
11
5.35673
21
-4.25824
0
LINE
8
BLACK
6
CONTINUOUS
10
5.35673
20
-4.25824
11
5.35703
21
-4.25927
0
LINE
8
BLACK
6
CONTINUOUS
10
5.35703
20
-4.25927
11
5.35747
21
-4.26024
0
LINE
8
BLACK
6
CONTINUOUS
10
5.35747
20
-4.26024
11
5.35742
21
-4.2606
0
LINE
8
BLACK
6
CONTINUOUS
10
5.35742
20
-4.2606
11
5.35752
21
-4.26094
0
LINE
8
BLACK
6
CONTINUOUS
10
5.35752
20
-4.26094
11
5.35752
21
-4.26621
0
LINE
8
BLACK
6
CONTINUOUS
10
5.35752
20
-4.26621
11
5.35872
21
-4.26621
0
LINE
8
BLACK
6
CONTINUOUS
10
5.35872
20
-4.26621
11
5.35872
21
-4.25792
0
LINE
8
BLACK
6
CONTINUOUS
10
5.35872
20
-4.25792
11
5.35889
21
-4.25691
0
LINE
8
BLACK
6
CONTINUOUS
10
5.35889
20
-4.25691
11
5.36019
21
-4.25536
0
LINE
8
BLACK
6
CONTINUOUS
10
5.36019
20
-4.25536
11
5.36218
21
-4.25501
0
LINE
8
BLACK
6
CONTINUOUS
10
5.36218
20
-4.25501
11
5.36393
21
-4.25602
0
LINE
8
BLACK
6
CONTINUOUS
10
5.36393
20
-4.25602
11
5.36462
21
-4.25792
0
LINE
8
BLACK
6
CONTINUOUS
10
5.36462
20
-4.25792
11
5.36462
21
-4.28042
0
LINE
8
BLACK
6
CONTINUOUS
10
5.36462
20
-4.28042
11
5.36444
21
-4.28143
0
LINE
8
BLACK
6
CONTINUOUS
10
5.36444
20
-4.28143
11
5.36314
21
-4.28297
0
LINE
8
BLACK
6
CONTINUOUS
10
5.36314
20
-4.28297
11
5.36116
21
-4.28332
0
LINE
8
BLACK
6
CONTINUOUS
10
5.36116
20
-4.28332
11
5.35941
21
-4.28231
0
LINE
8
BLACK
6
CONTINUOUS
10
5.35941
20
-4.28231
11
5.35872
21
-4.28042
0
LINE
8
BLACK
6
CONTINUOUS
10
5.35872
20
-4.28042
11
5.35872
21
-4.27212
0
LINE
8
BLACK
6
CONTINUOUS
10
5.35872
20
-4.27212
11
5.35752
21
-4.27212
0
LINE
8
BLACK
6
CONTINUOUS
10
5.35752
20
-4.27212
11
5.35752
21
-4.29566
0
LINE
8
BLACK
6
CONTINUOUS
10
5.35752
20
-4.29566
11
5.35924
21
-4.29652
0
LINE
8
BLACK
6
CONTINUOUS
10
5.35924
20
-4.29652
11
5.35995
21
-4.29705
0
LINE
8
BLACK
6
CONTINUOUS
10
5.35995
20
-4.29705
11
5.36001
21
-4.29708
0
LINE
8
BLACK
6
CONTINUOUS
10
5.36001
20
-4.29708
11
5.36188
21
-4.29895
0
LINE
8
BLACK
6
CONTINUOUS
10
5.36188
20
-4.29895
11
5.36239
21
-4.29967
0
LINE
8
BLACK
6
CONTINUOUS
10
5.36239
20
-4.29967
11
5.36243
21
-4.29972
0
LINE
8
BLACK
6
CONTINUOUS
10
5.36243
20
-4.29972
11
5.36431
21
-4.30347
0
LINE
8
BLACK
6
CONTINUOUS
10
5.36431
20
-4.30347
11
5.3646
21
-4.30445
0
LINE
8
BLACK
6
CONTINUOUS
10
5.3646
20
-4.30445
11
5.36456
21
-4.30462
0
LINE
8
BLACK
6
CONTINUOUS
10
5.36456
20
-4.30462
11
5.36462
21
-4.30479
0
LINE
8
BLACK
6
CONTINUOUS
10
5.36462
20
-4.30479
11
5.36462
21
-4.30854
0
LINE
8
BLACK
6
CONTINUOUS
10
5.36462
20
-4.30854
11
5.36444
21
-4.30955
0
LINE
8
BLACK
6
CONTINUOUS
10
5.36444
20
-4.30955
11
5.36433
21
-4.30968
0
LINE
8
BLACK
6
CONTINUOUS
10
5.36433
20
-4.30968
11
5.36431
21
-4.30986
0
LINE
8
BLACK
6
CONTINUOUS
10
5.36431
20
-4.30986
11
5.36243
21
-4.31361
0
LINE
8
BLACK
6
CONTINUOUS
10
5.36243
20
-4.31361
11
5.36191
21
-4.31432
0
LINE
8
BLACK
6
CONTINUOUS
10
5.36191
20
-4.31432
11
5.36188
21
-4.31438
0
LINE
8
BLACK
6
CONTINUOUS
10
5.36188
20
-4.31438
11
5.36001
21
-4.31625
0
LINE
8
BLACK
6
CONTINUOUS
10
5.36001
20
-4.31625
11
5.35928
21
-4.31676
0
LINE
8
BLACK
6
CONTINUOUS
10
5.35928
20
-4.31676
11
5.35924
21
-4.3168
0
LINE
8
BLACK
6
CONTINUOUS
10
5.35924
20
-4.3168
11
5.35752
21
-4.31766
0
LINE
8
BLACK
6
CONTINUOUS
10
5.35752
20
-4.31766
11
5.35752
21
-4.33222
0
LINE
8
BLACK
6
CONTINUOUS
10
5.35752
20
-4.33222
11
5.36111
21
-4.33402
0
LINE
8
BLACK
6
CONTINUOUS
10
5.36111
20
-4.33402
11
5.36194
21
-4.33463
0
LINE
8
BLACK
6
CONTINUOUS
10
5.36194
20
-4.33463
11
5.36211
21
-4.33503
0
LINE
8
BLACK
6
CONTINUOUS
10
5.36211
20
-4.33503
11
5.36243
21
-4.33534
0
LINE
8
BLACK
6
CONTINUOUS
10
5.36243
20
-4.33534
11
5.36431
21
-4.33909
0
LINE
8
BLACK
6
CONTINUOUS
10
5.36431
20
-4.33909
11
5.3646
21
-4.34007
0
LINE
8
BLACK
6
CONTINUOUS
10
5.3646
20
-4.34007
11
5.36456
21
-4.34024
0
LINE
8
BLACK
6
CONTINUOUS
10
5.36456
20
-4.34024
11
5.36462
21
-4.34041
0
LINE
8
BLACK
6
CONTINUOUS
10
5.36462
20
-4.34041
11
5.36462
21
-4.34603
0
LINE
8
BLACK
6
CONTINUOUS
10
5.36462
20
-4.34603
11
5.36444
21
-4.34704
0
LINE
8
BLACK
6
CONTINUOUS
10
5.36444
20
-4.34704
11
5.36433
21
-4.34718
0
LINE
8
BLACK
6
CONTINUOUS
10
5.36433
20
-4.34718
11
5.36431
21
-4.34735
0
LINE
8
BLACK
6
CONTINUOUS
10
5.36431
20
-4.34735
11
5.36329
21
-4.34939
0
LINE
8
BLACK
6
CONTINUOUS
10
5.36329
20
-4.34939
11
5.36423
21
-4.35018
0
LINE
8
BLACK
6
CONTINUOUS
10
5.36423
20
-4.35018
11
5.36458
21
-4.35217
0
LINE
8
BLACK
6
CONTINUOUS
10
5.36458
20
-4.35217
11
5.36357
21
-4.35392
0
LINE
8
BLACK
6
CONTINUOUS
10
5.36357
20
-4.35392
11
5.36167
21
-4.35461
0
LINE
8
BLACK
6
CONTINUOUS
10
5.36167
20
-4.35461
11
5.35752
21
-4.35461
0
LINE
8
BLACK
6
CONTINUOUS
10
5.35752
20
-4.35461
11
5.35752
21
-4.36745
0
LINE
8
BLACK
6
CONTINUOUS
10
5.35752
20
-4.36745
11
5.36167
21
-4.36745
0
LINE
8
BLACK
6
CONTINUOUS
10
5.36167
20
-4.36745
11
5.36268
21
-4.36763
0
LINE
8
BLACK
6
CONTINUOUS
10
5.36268
20
-4.36763
11
5.36423
21
-4.36893
0
LINE
8
BLACK
6
CONTINUOUS
10
5.36423
20
-4.36893
11
5.36458
21
-4.37092
0
LINE
8
BLACK
6
CONTINUOUS
10
5.36458
20
-4.37092
11
5.36357
21
-4.37267
0
LINE
8
BLACK
6
CONTINUOUS
10
5.36357
20
-4.37267
11
5.36167
21
-4.37336
0
LINE
8
BLACK
6
CONTINUOUS
10
5.36167
20
-4.37336
11
5.35752
21
-4.37336
0
LINE
8
BLACK
6
CONTINUOUS
10
5.35752
20
-4.37336
11
5.35752
21
-4.37906
0
LINE
8
BLACK
6
CONTINUOUS
10
5.35752
20
-4.37906
11
5.35731
21
-4.38048
0
LINE
8
BLACK
6
CONTINUOUS
10
5.35731
20
-4.38048
11
5.35712
21
-4.38078
0
LINE
8
BLACK
6
CONTINUOUS
10
5.35712
20
-4.38078
11
5.35707
21
-4.38114
0
LINE
8
BLACK
6
CONTINUOUS
10
5.35707
20
-4.38114
11
5.35637
21
-4.38194
0
LINE
8
BLACK
6
CONTINUOUS
10
5.35637
20
-4.38194
11
5.35579
21
-4.38284
0
LINE
8
BLACK
6
CONTINUOUS
10
5.35579
20
-4.38284
11
5.35546
21
-4.38299
0
LINE
8
BLACK
6
CONTINUOUS
10
5.35546
20
-4.38299
11
5.35522
21
-4.38326
0
LINE
8
BLACK
6
CONTINUOUS
10
5.35522
20
-4.38326
11
5.3542
21
-4.38356
0
LINE
8
BLACK
6
CONTINUOUS
10
5.3542
20
-4.38356
11
5.35322
21
-4.38401
0
LINE
8
BLACK
6
CONTINUOUS
10
5.35322
20
-4.38401
11
5.35287
21
-4.38395
0
LINE
8
BLACK
6
CONTINUOUS
10
5.35287
20
-4.38395
11
5.35252
21
-4.38406
0
LINE
8
BLACK
6
CONTINUOUS
10
5.35252
20
-4.38406
11
5.34391
21
-4.38406
0
LINE
8
BLACK
6
CONTINUOUS
10
5.34391
20
-4.38406
11
5.34382
21
-4.38454
0
LINE
8
BLACK
6
CONTINUOUS
10
5.34382
20
-4.38454
11
5.34252
21
-4.38609
0
LINE
8
BLACK
6
CONTINUOUS
10
5.34252
20
-4.38609
11
5.34053
21
-4.38644
0
LINE
8
BLACK
6
CONTINUOUS
10
5.34053
20
-4.38644
11
5.33878
21
-4.38543
0
LINE
8
BLACK
6
CONTINUOUS
10
5.33878
20
-4.38543
11
5.33829
21
-4.38406
0
LINE
8
BLACK
6
CONTINUOUS
10
5.33829
20
-4.38406
11
5.32525
21
-4.38406
0
LINE
8
BLACK
6
CONTINUOUS
10
5.32525
20
-4.38406
11
5.32525
21
-4.38915
0
LINE
8
BLACK
6
CONTINUOUS
10
5.32525
20
-4.38915
11
5.32507
21
-4.39016
0
LINE
8
BLACK
6
CONTINUOUS
10
5.32507
20
-4.39016
11
5.32377
21
-4.39171
0
LINE
8
BLACK
6
CONTINUOUS
10
5.32377
20
-4.39171
11
5.32179
21
-4.39206
0
LINE
8
BLACK
6
CONTINUOUS
10
5.32179
20
-4.39206
11
5.32004
21
-4.39105
0
LINE
8
BLACK
6
CONTINUOUS
10
5.32004
20
-4.39105
11
5.31935
21
-4.38915
0
LINE
8
BLACK
6
CONTINUOUS
10
5.31935
20
-4.38915
11
5.31935
21
-4.38406
0
LINE
8
BLACK
6
CONTINUOUS
10
5.31935
20
-4.38406
11
5.16748
21
-4.38406
0
LINE
8
BLACK
6
CONTINUOUS
10
5.16748
20
-4.38406
11
5.16606
21
-4.38385
0
LINE
8
BLACK
6
CONTINUOUS
10
5.16606
20
-4.38385
11
5.16576
21
-4.38365
0
LINE
8
BLACK
6
CONTINUOUS
10
5.16576
20
-4.38365
11
5.1654
21
-4.3836
0
LINE
8
BLACK
6
CONTINUOUS
10
5.1654
20
-4.3836
11
5.16459
21
-4.3829
0
LINE
8
BLACK
6
CONTINUOUS
10
5.16459
20
-4.3829
11
5.1637
21
-4.38232
0
LINE
8
BLACK
6
CONTINUOUS
10
5.1637
20
-4.38232
11
5.16355
21
-4.38199
0
LINE
8
BLACK
6
CONTINUOUS
10
5.16355
20
-4.38199
11
5.16327
21
-4.38176
0
LINE
8
BLACK
6
CONTINUOUS
10
5.16327
20
-4.38176
11
5.16297
21
-4.38073
0
LINE
8
BLACK
6
CONTINUOUS
10
5.16297
20
-4.38073
11
5.16253
21
-4.37976
0
LINE
8
BLACK
6
CONTINUOUS
10
5.16253
20
-4.37976
11
5.16258
21
-4.3794
0
LINE
8
BLACK
6
CONTINUOUS
10
5.16258
20
-4.3794
11
5.16248
21
-4.37906
0
LINE
8
BLACK
6
CONTINUOUS
10
5.16248
20
-4.37906
11
5.16248
21
-4.26094
0
LINE
8
BLACK
6
CONTINUOUS
10
5.16248
20
-4.26094
11
5.16269
21
-4.25952
0
LINE
8
BLACK
6
CONTINUOUS
10
5.16269
20
-4.25952
11
5.16288
21
-4.25922
0
LINE
8
BLACK
6
CONTINUOUS
10
5.16288
20
-4.25922
11
5.16293
21
-4.25886
0
LINE
8
BLACK
6
CONTINUOUS
10
5.16293
20
-4.25886
11
5.16363
21
-4.25806
0
LINE
8
BLACK
6
CONTINUOUS
10
5.16363
20
-4.25806
11
5.16421
21
-4.25716
0
LINE
8
BLACK
6
CONTINUOUS
10
5.16421
20
-4.25716
11
5.16454
21
-4.25701
0
LINE
8
BLACK
6
CONTINUOUS
10
5.16454
20
-4.25701
11
5.16478
21
-4.25674
0
LINE
8
BLACK
6
CONTINUOUS
10
5.16478
20
-4.25674
11
5.1658
21
-4.25644
0
LINE
8
BLACK
6
CONTINUOUS
10
5.1658
20
-4.25644
11
5.16678
21
-4.25599
0
LINE
8
BLACK
6
CONTINUOUS
10
5.16678
20
-4.25599
11
5.16713
21
-4.25605
0
LINE
8
BLACK
6
CONTINUOUS
10
5.16713
20
-4.25605
11
5.16748
21
-4.25594
0
LINE
8
BLACK
6
CONTINUOUS
10
5.16748
20
-4.25594
11
5.25424
21
-4.25594
0
LINE
8
BLACK
6
CONTINUOUS
10
5.25424
20
-4.25594
11
5.25424
21
-4.25002
0
LINE
8
BLACK
6
CONTINUOUS
10
5.25424
20
-4.25002
11
5.24407
21
-4.25002
0
LINE
8
BLACK
6
CONTINUOUS
10
5.24407
20
-4.25002
11
5.24306
21
-4.24984
0
LINE
8
BLACK
6
CONTINUOUS
10
5.24306
20
-4.24984
11
5.24151
21
-4.24854
0
LINE
8
BLACK
6
CONTINUOUS
10
5.24151
20
-4.24854
11
5.24116
21
-4.24655
0
LINE
8
BLACK
6
CONTINUOUS
10
5.24116
20
-4.24655
11
5.24217
21
-4.2448
0
LINE
8
BLACK
6
CONTINUOUS
10
5.24217
20
-4.2448
11
5.24407
21
-4.24411
0
LINE
8
BLACK
6
CONTINUOUS
10
5.24407
20
-4.24411
11
5.25424
21
-4.24411
0
LINE
8
BLACK
6
CONTINUOUS
10
5.25424
20
-4.24411
11
5.25424
21
-4.23127
0
LINE
8
BLACK
6
CONTINUOUS
10
5.25424
20
-4.23127
11
5.23844
21
-4.23127
0
LINE
8
BLACK
6
CONTINUOUS
10
5.23844
20
-4.23127
11
5.23743
21
-4.23109
0
LINE
8
BLACK
6
CONTINUOUS
10
5.23743
20
-4.23109
11
5.23589
21
-4.2298
0
LINE
8
BLACK
6
CONTINUOUS
10
5.23589
20
-4.2298
11
5.23554
21
-4.22781
0
LINE
8
BLACK
6
CONTINUOUS
10
5.23554
20
-4.22781
11
5.23655
21
-4.22606
0
LINE
8
BLACK
6
CONTINUOUS
10
5.23655
20
-4.22606
11
5.23844
21
-4.22537
0
LINE
8
BLACK
6
CONTINUOUS
10
5.23844
20
-4.22537
11
5.25719
21
-4.22537
0
LINE
8
BLACK
6
CONTINUOUS
10
5.25719
20
-4.22537
11
5.25758
21
-4.22543
0
LINE
8
BLACK
6
CONTINUOUS
10
5.30139
20
-4.26594
11
5.30139
21
-4.26769
0
LINE
8
BLACK
6
CONTINUOUS
10
5.30139
20
-4.26769
11
5.30121
21
-4.2687
0
LINE
8
BLACK
6
CONTINUOUS
10
5.30121
20
-4.2687
11
5.29991
21
-4.27025
0
LINE
8
BLACK
6
CONTINUOUS
10
5.29991
20
-4.27025
11
5.29792
21
-4.2706
0
LINE
8
BLACK
6
CONTINUOUS
10
5.29792
20
-4.2706
11
5.29617
21
-4.26959
0
LINE
8
BLACK
6
CONTINUOUS
10
5.29617
20
-4.26959
11
5.29548
21
-4.26769
0
LINE
8
BLACK
6
CONTINUOUS
10
5.29548
20
-4.26769
11
5.29548
21
-4.26594
0
LINE
8
BLACK
6
CONTINUOUS
10
5.29548
20
-4.26594
11
5.28034
21
-4.26594
0
LINE
8
BLACK
6
CONTINUOUS
10
5.28034
20
-4.26594
11
5.2785
21
-4.26915
0
LINE
8
BLACK
6
CONTINUOUS
10
5.2785
20
-4.26915
11
5.27785
21
-4.26994
0
LINE
8
BLACK
6
CONTINUOUS
10
5.27785
20
-4.26994
11
5.27759
21
-4.27004
0
LINE
8
BLACK
6
CONTINUOUS
10
5.27759
20
-4.27004
11
5.27742
21
-4.27025
0
LINE
8
BLACK
6
CONTINUOUS
10
5.27742
20
-4.27025
11
5.27667
21
-4.27038
0
LINE
8
BLACK
6
CONTINUOUS
10
5.27667
20
-4.27038
11
5.27595
21
-4.27064
0
LINE
8
BLACK
6
CONTINUOUS
10
5.27595
20
-4.27064
11
5.2757
21
-4.27055
0
LINE
8
BLACK
6
CONTINUOUS
10
5.2757
20
-4.27055
11
5.27543
21
-4.2706
0
LINE
8
BLACK
6
CONTINUOUS
10
5.27543
20
-4.2706
11
5.27477
21
-4.27022
0
LINE
8
BLACK
6
CONTINUOUS
10
5.27477
20
-4.27022
11
5.27405
21
-4.26996
0
LINE
8
BLACK
6
CONTINUOUS
10
5.27405
20
-4.26996
11
5.27391
21
-4.26972
0
LINE
8
BLACK
6
CONTINUOUS
10
5.27391
20
-4.26972
11
5.27368
21
-4.26959
0
LINE
8
BLACK
6
CONTINUOUS
10
5.27368
20
-4.26959
11
5.27342
21
-4.26887
0
LINE
8
BLACK
6
CONTINUOUS
10
5.27342
20
-4.26887
11
5.27303
21
-4.26821
0
LINE
8
BLACK
6
CONTINUOUS
10
5.27303
20
-4.26821
11
5.27308
21
-4.26795
0
LINE
8
BLACK
6
CONTINUOUS
10
5.27308
20
-4.26795
11
5.27299
21
-4.26769
0
LINE
8
BLACK
6
CONTINUOUS
10
5.27299
20
-4.26769
11
5.27299
21
-4.26594
0
LINE
8
BLACK
6
CONTINUOUS
10
5.27299
20
-4.26594
11
5.26014
21
-4.26594
0
LINE
8
BLACK
6
CONTINUOUS
10
5.26014
20
-4.26594
11
5.26014
21
-4.26769
0
LINE
8
BLACK
6
CONTINUOUS
10
5.26014
20
-4.26769
11
5.25997
21
-4.2687
0
LINE
8
BLACK
6
CONTINUOUS
10
5.25997
20
-4.2687
11
5.25867
21
-4.27025
0
LINE
8
BLACK
6
CONTINUOUS
10
5.25867
20
-4.27025
11
5.25668
21
-4.2706
0
LINE
8
BLACK
6
CONTINUOUS
10
5.25668
20
-4.2706
11
5.25493
21
-4.26959
0
LINE
8
BLACK
6
CONTINUOUS
10
5.25493
20
-4.26959
11
5.25424
21
-4.26769
0
LINE
8
BLACK
6
CONTINUOUS
10
5.25424
20
-4.26769
11
5.25424
21
-4.26594
0
LINE
8
BLACK
6
CONTINUOUS
10
5.25424
20
-4.26594
11
5.17248
21
-4.26594
0
LINE
8
BLACK
6
CONTINUOUS
10
5.17248
20
-4.26594
11
5.17248
21
-4.37406
0
LINE
8
BLACK
6
CONTINUOUS
10
5.17248
20
-4.37406
11
5.31935
21
-4.37406
0
LINE
8
BLACK
6
CONTINUOUS
10
5.31935
20
-4.37406
11
5.31935
21
-4.3704
0
LINE
8
BLACK
6
CONTINUOUS
10
5.31935
20
-4.3704
11
5.31941
21
-4.37002
0
LINE
8
BLACK
6
CONTINUOUS
10
5.31941
20
-4.37002
11
5.31939
21
-4.36989
0
LINE
8
BLACK
6
CONTINUOUS
10
5.31939
20
-4.36989
11
5.31946
21
-4.36978
0
LINE
8
BLACK
6
CONTINUOUS
10
5.31946
20
-4.36978
11
5.31952
21
-4.36939
0
LINE
8
BLACK
6
CONTINUOUS
10
5.31952
20
-4.36939
11
5.32002
21
-4.36881
0
LINE
8
BLACK
6
CONTINUOUS
10
5.32002
20
-4.36881
11
5.3204
21
-4.36814
0
LINE
8
BLACK
6
CONTINUOUS
10
5.3204
20
-4.36814
11
5.32065
21
-4.36805
0
LINE
8
BLACK
6
CONTINUOUS
10
5.32065
20
-4.36805
11
5.32082
21
-4.36785
0
LINE
8
BLACK
6
CONTINUOUS
10
5.32082
20
-4.36785
11
5.32158
21
-4.36771
0
LINE
8
BLACK
6
CONTINUOUS
10
5.32158
20
-4.36771
11
5.3223
21
-4.36745
0
LINE
8
BLACK
6
CONTINUOUS
10
5.3223
20
-4.36745
11
5.34752
21
-4.36745
0
LINE
8
BLACK
6
CONTINUOUS
10
5.34752
20
-4.36745
11
5.34752
21
-4.35461
0
LINE
8
BLACK
6
CONTINUOUS
10
5.34752
20
-4.35461
11
5.33542
21
-4.35461
0
LINE
8
BLACK
6
CONTINUOUS
10
5.33542
20
-4.35461
11
5.33441
21
-4.35443
0
LINE
8
BLACK
6
CONTINUOUS
10
5.33441
20
-4.35443
11
5.33286
21
-4.35313
0
LINE
8
BLACK
6
CONTINUOUS
10
5.33286
20
-4.35313
11
5.33251
21
-4.35114
0
LINE
8
BLACK
6
CONTINUOUS
10
5.33251
20
-4.35114
11
5.33352
21
-4.3494
0
LINE
8
BLACK
6
CONTINUOUS
10
5.33352
20
-4.3494
11
5.33542
21
-4.3487
0
LINE
8
BLACK
6
CONTINUOUS
10
5.33542
20
-4.3487
11
5.34752
21
-4.3487
0
LINE
8
BLACK
6
CONTINUOUS
10
5.34752
20
-4.3487
11
5.34752
21
-4.33774
0
LINE
8
BLACK
6
CONTINUOUS
10
5.34752
20
-4.33774
11
5.33542
21
-4.33774
0
LINE
8
BLACK
6
CONTINUOUS
10
5.33542
20
-4.33774
11
5.33441
21
-4.33756
0
LINE
8
BLACK
6
CONTINUOUS
10
5.33441
20
-4.33756
11
5.33286
21
-4.33626
0
LINE
8
BLACK
6
CONTINUOUS
10
5.33286
20
-4.33626
11
5.33251
21
-4.33427
0
LINE
8
BLACK
6
CONTINUOUS
10
5.33251
20
-4.33427
11
5.33352
21
-4.33252
0
LINE
8
BLACK
6
CONTINUOUS
10
5.33352
20
-4.33252
11
5.33542
21
-4.33183
0
LINE
8
BLACK
6
CONTINUOUS
10
5.33542
20
-4.33183
11
5.34752
21
-4.33183
0
LINE
8
BLACK
6
CONTINUOUS
10
5.34752
20
-4.33183
11
5.34752
21
-4.32074
0
LINE
8
BLACK
6
CONTINUOUS
10
5.34752
20
-4.32074
11
5.34739
21
-4.32078
0
LINE
8
BLACK
6
CONTINUOUS
10
5.34739
20
-4.32078
11
5.3468
21
-4.32082
0
LINE
8
BLACK
6
CONTINUOUS
10
5.3468
20
-4.32082
11
5.34667
21
-4.32086
0
LINE
8
BLACK
6
CONTINUOUS
10
5.34667
20
-4.32086
11
5.3373
21
-4.32086
0
LINE
8
BLACK
6
CONTINUOUS
10
5.3373
20
-4.32086
11
5.33672
21
-4.32076
0
LINE
8
BLACK
6
CONTINUOUS
10
5.33672
20
-4.32076
11
5.33658
21
-4.32078
0
LINE
8
BLACK
6
CONTINUOUS
10
5.33658
20
-4.32078
11
5.32908
21
-4.3189
0
LINE
8
BLACK
6
CONTINUOUS
10
5.32908
20
-4.3189
11
5.32862
21
-4.31869
0
LINE
8
BLACK
6
CONTINUOUS
10
5.32862
20
-4.31869
11
5.32848
21
-4.31868
0
LINE
8
BLACK
6
CONTINUOUS
10
5.32848
20
-4.31868
11
5.32473
21
-4.3168
0
LINE
8
BLACK
6
CONTINUOUS
10
5.32473
20
-4.3168
11
5.32402
21
-4.31628
0
LINE
8
BLACK
6
CONTINUOUS
10
5.32402
20
-4.31628
11
5.32396
21
-4.31625
0
LINE
8
BLACK
6
CONTINUOUS
10
5.32396
20
-4.31625
11
5.32209
21
-4.31438
0
LINE
8
BLACK
6
CONTINUOUS
10
5.32209
20
-4.31438
11
5.32158
21
-4.31365
0
LINE
8
BLACK
6
CONTINUOUS
10
5.32158
20
-4.31365
11
5.32153
21
-4.31361
0
LINE
8
BLACK
6
CONTINUOUS
10
5.32153
20
-4.31361
11
5.31966
21
-4.30986
0
LINE
8
BLACK
6
CONTINUOUS
10
5.31966
20
-4.30986
11
5.31937
21
-4.30888
0
LINE
8
BLACK
6
CONTINUOUS
10
5.31937
20
-4.30888
11
5.31941
21
-4.3087
0
LINE
8
BLACK
6
CONTINUOUS
10
5.31941
20
-4.3087
11
5.31935
21
-4.30854
0
LINE
8
BLACK
6
CONTINUOUS
10
5.31935
20
-4.30854
11
5.31935
21
-4.30479
0
LINE
8
BLACK
6
CONTINUOUS
10
5.31935
20
-4.30479
11
5.31952
21
-4.30378
0
LINE
8
BLACK
6
CONTINUOUS
10
5.31952
20
-4.30378
11
5.31964
21
-4.30364
0
LINE
8
BLACK
6
CONTINUOUS
10
5.31964
20
-4.30364
11
5.31966
21
-4.30347
0
LINE
8
BLACK
6
CONTINUOUS
10
5.31966
20
-4.30347
11
5.32153
21
-4.29972
0
LINE
8
BLACK
6
CONTINUOUS
10
5.32153
20
-4.29972
11
5.32206
21
-4.29901
0
LINE
8
BLACK
6
CONTINUOUS
10
5.32206
20
-4.29901
11
5.32209
21
-4.29895
0
LINE
8
BLACK
6
CONTINUOUS
10
5.32209
20
-4.29895
11
5.32396
21
-4.29708
0
LINE
8
BLACK
6
CONTINUOUS
10
5.32396
20
-4.29708
11
5.32468
21
-4.29657
0
LINE
8
BLACK
6
CONTINUOUS
10
5.32468
20
-4.29657
11
5.32473
21
-4.29652
0
LINE
8
BLACK
6
CONTINUOUS
10
5.32473
20
-4.29652
11
5.32848
21
-4.29465
0
LINE
8
BLACK
6
CONTINUOUS
10
5.32848
20
-4.29465
11
5.32897
21
-4.2945
0
LINE
8
BLACK
6
CONTINUOUS
10
5.32897
20
-4.2945
11
5.32908
21
-4.29442
0
LINE
8
BLACK
6
CONTINUOUS
10
5.32908
20
-4.29442
11
5.33658
21
-4.29255
0
LINE
8
BLACK
6
CONTINUOUS
10
5.33658
20
-4.29255
11
5.33717
21
-4.29251
0
LINE
8
BLACK
6
CONTINUOUS
10
5.33717
20
-4.29251
11
5.3373
21
-4.29246
0
LINE
8
BLACK
6
CONTINUOUS
10
5.3373
20
-4.29246
11
5.34667
21
-4.29246
0
LINE
8
BLACK
6
CONTINUOUS
10
5.34667
20
-4.29246
11
5.34725
21
-4.29256
0
LINE
8
BLACK
6
CONTINUOUS
10
5.34725
20
-4.29256
11
5.34739
21
-4.29255
0
LINE
8
BLACK
6
CONTINUOUS
10
5.34739
20
-4.29255
11
5.34752
21
-4.29258
0
LINE
8
BLACK
6
CONTINUOUS
10
5.34752
20
-4.29258
11
5.34752
21
-4.27212
0
LINE
8
BLACK
6
CONTINUOUS
10
5.34752
20
-4.27212
11
5.3223
21
-4.27212
0
LINE
8
BLACK
6
CONTINUOUS
10
5.3223
20
-4.27212
11
5.32129
21
-4.27194
0
LINE
8
BLACK
6
CONTINUOUS
10
5.32129
20
-4.27194
11
5.32116
21
-4.27183
0
LINE
8
BLACK
6
CONTINUOUS
10
5.32116
20
-4.27183
11
5.32099
21
-4.27181
0
LINE
8
BLACK
6
CONTINUOUS
10
5.32099
20
-4.27181
11
5.3204
21
-4.27119
0
LINE
8
BLACK
6
CONTINUOUS
10
5.3204
20
-4.27119
11
5.31974
21
-4.27064
0
LINE
8
BLACK
6
CONTINUOUS
10
5.31974
20
-4.27064
11
5.31971
21
-4.27048
0
LINE
8
BLACK
6
CONTINUOUS
10
5.31971
20
-4.27048
11
5.31959
21
-4.27035
0
LINE
8
BLACK
6
CONTINUOUS
10
5.31959
20
-4.27035
11
5.31954
21
-4.2695
0
LINE
8
BLACK
6
CONTINUOUS
10
5.31954
20
-4.2695
11
5.31939
21
-4.26865
0
LINE
8
BLACK
6
CONTINUOUS
10
5.31939
20
-4.26865
11
5.31948
21
-4.26851
0
LINE
8
BLACK
6
CONTINUOUS
10
5.31948
20
-4.26851
11
5.31946
21
-4.26834
0
LINE
8
BLACK
6
CONTINUOUS
10
5.31946
20
-4.26834
11
5.31997
21
-4.26765
0
LINE
8
BLACK
6
CONTINUOUS
10
5.31997
20
-4.26765
11
5.32015
21
-4.26733
0
LINE
8
BLACK
6
CONTINUOUS
10
5.32015
20
-4.26733
11
5.31876
21
-4.26594
0
LINE
8
BLACK
6
CONTINUOUS
10
5.31876
20
-4.26594
11
5.30139
21
-4.26594
0
LINE
8
BLACK
6
CONTINUOUS
10
5.32525
20
-4.37336
11
5.32525
21
-4.37406
0
LINE
8
BLACK
6
CONTINUOUS
10
5.32525
20
-4.37406
11
5.33809
21
-4.37406
0
LINE
8
BLACK
6
CONTINUOUS
10
5.33809
20
-4.37406
11
5.33809
21
-4.37336
0
LINE
8
BLACK
6
CONTINUOUS
10
5.33809
20
-4.37336
11
5.32525
21
-4.37336
0
LINE
8
BLACK
6
CONTINUOUS
10
5.344
20
-4.37336
11
5.344
21
-4.37406
0
LINE
8
BLACK
6
CONTINUOUS
10
5.344
20
-4.37406
11
5.34752
21
-4.37406
0
LINE
8
BLACK
6
CONTINUOUS
10
5.34752
20
-4.37406
11
5.34752
21
-4.37336
0
LINE
8
BLACK
6
CONTINUOUS
10
5.34752
20
-4.37336
11
5.344
21
-4.37336
0
LINE
8
BLACK
6
CONTINUOUS
10
5.35752
20
-4.34773
11
5.35872
21
-4.34534
0
LINE
8
BLACK
6
CONTINUOUS
10
5.35872
20
-4.34534
11
5.35872
21
-4.34111
0
LINE
8
BLACK
6
CONTINUOUS
10
5.35872
20
-4.34111
11
5.35759
21
-4.33886
0
LINE
8
BLACK
6
CONTINUOUS
10
5.35759
20
-4.33886
11
5.35752
21
-4.33882
0
LINE
8
BLACK
6
CONTINUOUS
10
5.35752
20
-4.33882
11
5.35752
21
-4.34773
0
LINE
8
BLACK
6
CONTINUOUS
10
5.33766
20
-4.29837
11
5.33083
21
-4.30008
0
LINE
8
BLACK
6
CONTINUOUS
10
5.33083
20
-4.30008
11
5.3278
21
-4.30159
0
LINE
8
BLACK
6
CONTINUOUS
10
5.3278
20
-4.30159
11
5.3266
21
-4.30279
0
LINE
8
BLACK
6
CONTINUOUS
10
5.3266
20
-4.30279
11
5.32525
21
-4.30549
0
LINE
8
BLACK
6
CONTINUOUS
10
5.32525
20
-4.30549
11
5.32525
21
-4.30784
0
LINE
8
BLACK
6
CONTINUOUS
10
5.32525
20
-4.30784
11
5.3266
21
-4.31054
0
LINE
8
BLACK
6
CONTINUOUS
10
5.3266
20
-4.31054
11
5.3278
21
-4.31174
0
LINE
8
BLACK
6
CONTINUOUS
10
5.3278
20
-4.31174
11
5.33083
21
-4.31325
0
LINE
8
BLACK
6
CONTINUOUS
10
5.33083
20
-4.31325
11
5.33766
21
-4.31496
0
LINE
8
BLACK
6
CONTINUOUS
10
5.33766
20
-4.31496
11
5.34631
21
-4.31496
0
LINE
8
BLACK
6
CONTINUOUS
10
5.34631
20
-4.31496
11
5.34752
21
-4.31466
0
LINE
8
BLACK
6
CONTINUOUS
10
5.34752
20
-4.31466
11
5.34752
21
-4.29867
0
LINE
8
BLACK
6
CONTINUOUS
10
5.34752
20
-4.29867
11
5.34631
21
-4.29837
0
LINE
8
BLACK
6
CONTINUOUS
10
5.34631
20
-4.29837
11
5.33766
21
-4.29837
0
LINE
8
BLACK
6
CONTINUOUS
10
5.35752
20
-4.31023
11
5.35872
21
-4.30784
0
LINE
8
BLACK
6
CONTINUOUS
10
5.35872
20
-4.30784
11
5.35872
21
-4.30549
0
LINE
8
BLACK
6
CONTINUOUS
10
5.35872
20
-4.30549
11
5.35752
21
-4.30309
0
LINE
8
BLACK
6
CONTINUOUS
10
5.35752
20
-4.30309
11
5.35752
21
-4.31023
0
LINE
8
BLACK
6
CONTINUOUS
10
5.34076
20
-4.26594
11
5.34076
21
-4.26621
0
LINE
8
BLACK
6
CONTINUOUS
10
5.34076
20
-4.26621
11
5.34752
21
-4.26621
0
LINE
8
BLACK
6
CONTINUOUS
10
5.34752
20
-4.26621
11
5.34752
21
-4.26594
0
LINE
8
BLACK
6
CONTINUOUS
10
5.34752
20
-4.26594
11
5.34076
21
-4.26594
0
LINE
8
BLACK
6
CONTINUOUS
10
5.28605
20
-4.25594
11
5.29548
21
-4.25594
0
LINE
8
BLACK
6
CONTINUOUS
10
5.29548
20
-4.25594
11
5.29548
21
-4.23944
0
LINE
8
BLACK
6
CONTINUOUS
10
5.29548
20
-4.23944
11
5.28605
21
-4.25594
0
LINE
8
BLACK
6
CONTINUOUS
10
5.32891
20
-4.23127
11
5.3244
21
-4.23277
0
LINE
8
BLACK
6
CONTINUOUS
10
5.3244
20
-4.23277
11
5.32149
21
-4.23569
0
LINE
8
BLACK
6
CONTINUOUS
10
5.32149
20
-4.23569
11
5.31997
21
-4.23872
0
LINE
8
BLACK
6
CONTINUOUS
10
5.31997
20
-4.23872
11
5.31826
21
-4.24556
0
LINE
8
BLACK
6
CONTINUOUS
10
5.31826
20
-4.24556
11
5.31826
21
-4.25045
0
LINE
8
BLACK
6
CONTINUOUS
10
5.31826
20
-4.25045
11
5.31964
21
-4.25594
0
LINE
8
BLACK
6
CONTINUOUS
10
5.31964
20
-4.25594
11
5.33139
21
-4.25594
0
LINE
8
BLACK
6
CONTINUOUS
10
5.33139
20
-4.25594
11
5.33152
21
-4.25577
0
LINE
8
BLACK
6
CONTINUOUS
10
5.33152
20
-4.25577
11
5.33337
21
-4.25497
0
LINE
8
BLACK
6
CONTINUOUS
10
5.33337
20
-4.25497
11
5.33485
21
-4.25541
0
LINE
8
BLACK
6
CONTINUOUS
10
5.33485
20
-4.25541
11
5.33485
21
-4.23127
0
LINE
8
BLACK
6
CONTINUOUS
10
5.33485
20
-4.23127
11
5.32891
21
-4.23127
0
LINE
8
BLACK
6
CONTINUOUS
10
5.11494
20
-4.35272
11
5.11706
21
-4.35456
0
LINE
8
BLACK
6
CONTINUOUS
10
5.11706
20
-4.35456
11
5.11786
21
-4.35726
0
LINE
8
BLACK
6
CONTINUOUS
10
5.11786
20
-4.35726
11
5.11786
21
-4.38584
0
LINE
8
BLACK
6
CONTINUOUS
10
5.11786
20
-4.38584
11
5.11765
21
-4.38726
0
LINE
8
BLACK
6
CONTINUOUS
10
5.11765
20
-4.38726
11
5.11612
21
-4.38962
0
LINE
8
BLACK
6
CONTINUOUS
10
5.11612
20
-4.38962
11
5.11356
21
-4.39079
0
LINE
8
BLACK
6
CONTINUOUS
10
5.11356
20
-4.39079
11
5.11077
21
-4.39038
0
LINE
8
BLACK
6
CONTINUOUS
10
5.11077
20
-4.39038
11
5.10865
21
-4.38854
0
LINE
8
BLACK
6
CONTINUOUS
10
5.10865
20
-4.38854
11
5.10786
21
-4.38584
0
LINE
8
BLACK
6
CONTINUOUS
10
5.10786
20
-4.38584
11
5.10786
21
-4.37655
0
LINE
8
BLACK
6
CONTINUOUS
10
5.10786
20
-4.37655
11
5.06286
21
-4.37655
0
LINE
8
BLACK
6
CONTINUOUS
10
5.06286
20
-4.37655
11
5.06159
21
-4.37637
0
LINE
8
BLACK
6
CONTINUOUS
10
5.06159
20
-4.37637
11
5.06152
21
-4.37637
0
LINE
8
BLACK
6
CONTINUOUS
10
5.06152
20
-4.37637
11
5.06149
21
-4.37635
0
LINE
8
BLACK
6
CONTINUOUS
10
5.06149
20
-4.37635
11
5.06144
21
-4.37634
0
LINE
8
BLACK
6
CONTINUOUS
10
5.06144
20
-4.37634
11
5.06029
21
-4.3756
0
LINE
8
BLACK
6
CONTINUOUS
10
5.06029
20
-4.3756
11
5.05913
21
-4.37488
0
LINE
8
BLACK
6
CONTINUOUS
10
5.05913
20
-4.37488
11
5.05911
21
-4.37484
0
LINE
8
BLACK
6
CONTINUOUS
10
5.05911
20
-4.37484
11
5.05907
21
-4.37482
0
LINE
8
BLACK
6
CONTINUOUS
10
5.05907
20
-4.37482
11
5.05851
21
-4.37358
0
LINE
8
BLACK
6
CONTINUOUS
10
5.05851
20
-4.37358
11
5.05792
21
-4.37234
0
LINE
8
BLACK
6
CONTINUOUS
10
5.05792
20
-4.37234
11
5.05792
21
-4.3723
0
LINE
8
BLACK
6
CONTINUOUS
10
5.05792
20
-4.3723
11
5.05791
21
-4.37225
0
LINE
8
BLACK
6
CONTINUOUS
10
5.05791
20
-4.37225
11
5.0581
21
-4.3709
0
LINE
8
BLACK
6
CONTINUOUS
10
5.0581
20
-4.3709
11
5.05827
21
-4.36955
0
LINE
8
BLACK
6
CONTINUOUS
10
5.05827
20
-4.36955
11
5.0583
21
-4.36951
0
LINE
8
BLACK
6
CONTINUOUS
10
5.0583
20
-4.36951
11
5.05831
21
-4.36947
0
LINE
8
BLACK
6
CONTINUOUS
10
5.05831
20
-4.36947
11
5.0592
21
-4.36844
0
LINE
8
BLACK
6
CONTINUOUS
10
5.0592
20
-4.36844
11
5.06008
21
-4.36739
0
LINE
8
BLACK
6
CONTINUOUS
10
5.06008
20
-4.36739
11
5.06681
21
-4.3629
0
LINE
8
BLACK
6
CONTINUOUS
10
5.06681
20
-4.3629
11
5.07065
21
-4.35906
0
LINE
8
BLACK
6
CONTINUOUS
10
5.07065
20
-4.35906
11
5.07267
21
-4.35503
0
LINE
8
BLACK
6
CONTINUOUS
10
5.07267
20
-4.35503
11
5.07349
21
-4.35385
0
LINE
8
BLACK
6
CONTINUOUS
10
5.07349
20
-4.35385
11
5.07591
21
-4.35242
0
LINE
8
BLACK
6
CONTINUOUS
10
5.07591
20
-4.35242
11
5.07872
21
-4.35252
0
LINE
8
BLACK
6
CONTINUOUS
10
5.07872
20
-4.35252
11
5.08104
21
-4.35413
0
LINE
8
BLACK
6
CONTINUOUS
10
5.08104
20
-4.35413
11
5.08211
21
-4.35673
0
LINE
8
BLACK
6
CONTINUOUS
10
5.08211
20
-4.35673
11
5.08161
21
-4.3595
0
LINE
8
BLACK
6
CONTINUOUS
10
5.08161
20
-4.3595
11
5.07923
21
-4.36426
0
LINE
8
BLACK
6
CONTINUOUS
10
5.07923
20
-4.36426
11
5.07841
21
-4.36544
0
LINE
8
BLACK
6
CONTINUOUS
10
5.07841
20
-4.36544
11
5.07834
21
-4.36549
0
LINE
8
BLACK
6
CONTINUOUS
10
5.07834
20
-4.36549
11
5.0783
21
-4.36556
0
LINE
8
BLACK
6
CONTINUOUS
10
5.0783
20
-4.36556
11
5.07731
21
-4.36655
0
LINE
8
BLACK
6
CONTINUOUS
10
5.07731
20
-4.36655
11
5.10786
21
-4.36655
0
LINE
8
BLACK
6
CONTINUOUS
10
5.10786
20
-4.36655
11
5.10786
21
-4.35726
0
LINE
8
BLACK
6
CONTINUOUS
10
5.10786
20
-4.35726
11
5.10806
21
-4.35584
0
LINE
8
BLACK
6
CONTINUOUS
10
5.10806
20
-4.35584
11
5.10959
21
-4.35348
0
LINE
8
BLACK
6
CONTINUOUS
10
5.10959
20
-4.35348
11
5.11215
21
-4.35231
0
LINE
8
BLACK
6
CONTINUOUS
10
5.11215
20
-4.35231
11
5.11494
21
-4.35272
0
LINE
8
BLACK
6
CONTINUOUS
10
5.42837
20
-4.36408
11
5.4295
21
-4.36633
0
LINE
8
BLACK
6
CONTINUOUS
10
5.4295
20
-4.36633
11
5.43174
21
-4.36745
0
LINE
8
BLACK
6
CONTINUOUS
10
5.43174
20
-4.36745
11
5.45167
21
-4.36745
0
LINE
8
BLACK
6
CONTINUOUS
10
5.45167
20
-4.36745
11
5.45268
21
-4.36763
0
LINE
8
BLACK
6
CONTINUOUS
10
5.45268
20
-4.36763
11
5.45423
21
-4.36893
0
LINE
8
BLACK
6
CONTINUOUS
10
5.45423
20
-4.36893
11
5.45458
21
-4.37092
0
LINE
8
BLACK
6
CONTINUOUS
10
5.45458
20
-4.37092
11
5.45357
21
-4.37267
0
LINE
8
BLACK
6
CONTINUOUS
10
5.45357
20
-4.37267
11
5.45167
21
-4.37336
0
LINE
8
BLACK
6
CONTINUOUS
10
5.45167
20
-4.37336
11
5.43105
21
-4.37336
0
LINE
8
BLACK
6
CONTINUOUS
10
5.43105
20
-4.37336
11
5.43004
21
-4.37318
0
LINE
8
BLACK
6
CONTINUOUS
10
5.43004
20
-4.37318
11
5.4299
21
-4.37307
0
LINE
8
BLACK
6
CONTINUOUS
10
5.4299
20
-4.37307
11
5.42973
21
-4.37305
0
LINE
8
BLACK
6
CONTINUOUS
10
5.42973
20
-4.37305
11
5.42598
21
-4.37117
0
LINE
8
BLACK
6
CONTINUOUS
10
5.42598
20
-4.37117
11
5.42515
21
-4.37056
0
LINE
8
BLACK
6
CONTINUOUS
10
5.42515
20
-4.37056
11
5.42498
21
-4.37015
0
LINE
8
BLACK
6
CONTINUOUS
10
5.42498
20
-4.37015
11
5.42466
21
-4.36985
0
LINE
8
BLACK
6
CONTINUOUS
10
5.42466
20
-4.36985
11
5.42278
21
-4.3661
0
LINE
8
BLACK
6
CONTINUOUS
10
5.42278
20
-4.3661
11
5.42249
21
-4.36512
0
LINE
8
BLACK
6
CONTINUOUS
10
5.42249
20
-4.36512
11
5.42253
21
-4.36495
0
LINE
8
BLACK
6
CONTINUOUS
10
5.42253
20
-4.36495
11
5.42247
21
-4.36478
0
LINE
8
BLACK
6
CONTINUOUS
10
5.42247
20
-4.36478
11
5.42247
21
-4.36394
0
LINE
8
BLACK
6
CONTINUOUS
10
5.42247
20
-4.36394
11
5.38539
21
-4.36394
0
LINE
8
BLACK
6
CONTINUOUS
10
5.38539
20
-4.36394
11
5.384
21
-4.36336
0
LINE
8
BLACK
6
CONTINUOUS
10
5.384
20
-4.36336
11
5.38343
21
-4.36197
0
LINE
8
BLACK
6
CONTINUOUS
10
5.38343
20
-4.36197
11
5.38343
21
-4.28323
0
LINE
8
BLACK
6
CONTINUOUS
10
5.38343
20
-4.28323
11
5.384
21
-4.28184
0
LINE
8
BLACK
6
CONTINUOUS
10
5.384
20
-4.28184
11
5.38539
21
-4.28126
0
LINE
8
BLACK
6
CONTINUOUS
10
5.38539
20
-4.28126
11
5.41139
21
-4.28126
0
LINE
8
BLACK
6
CONTINUOUS
10
5.41139
20
-4.28126
11
5.41153
21
-4.28097
0
LINE
8
BLACK
6
CONTINUOUS
10
5.41153
20
-4.28097
11
5.41206
21
-4.28026
0
LINE
8
BLACK
6
CONTINUOUS
10
5.41206
20
-4.28026
11
5.41209
21
-4.2802
0
LINE
8
BLACK
6
CONTINUOUS
10
5.41209
20
-4.2802
11
5.41396
21
-4.27833
0
LINE
8
BLACK
6
CONTINUOUS
10
5.41396
20
-4.27833
11
5.41468
21
-4.27782
0
LINE
8
BLACK
6
CONTINUOUS
10
5.41468
20
-4.27782
11
5.41473
21
-4.27778
0
LINE
8
BLACK
6
CONTINUOUS
10
5.41473
20
-4.27778
11
5.41848
21
-4.2759
0
LINE
8
BLACK
6
CONTINUOUS
10
5.41848
20
-4.2759
11
5.41897
21
-4.27576
0
LINE
8
BLACK
6
CONTINUOUS
10
5.41897
20
-4.27576
11
5.41908
21
-4.27568
0
LINE
8
BLACK
6
CONTINUOUS
10
5.41908
20
-4.27568
11
5.42658
21
-4.2738
0
LINE
8
BLACK
6
CONTINUOUS
10
5.42658
20
-4.2738
11
5.42717
21
-4.27376
0
LINE
8
BLACK
6
CONTINUOUS
10
5.42717
20
-4.27376
11
5.4273
21
-4.27371
0
LINE
8
BLACK
6
CONTINUOUS
10
5.4273
20
-4.27371
11
5.43667
21
-4.27371
0
LINE
8
BLACK
6
CONTINUOUS
10
5.43667
20
-4.27371
11
5.43725
21
-4.27382
0
LINE
8
BLACK
6
CONTINUOUS
10
5.43725
20
-4.27382
11
5.43739
21
-4.2738
0
LINE
8
BLACK
6
CONTINUOUS
10
5.43739
20
-4.2738
11
5.44489
21
-4.27568
0
LINE
8
BLACK
6
CONTINUOUS
10
5.44489
20
-4.27568
11
5.44535
21
-4.27588
0
LINE
8
BLACK
6
CONTINUOUS
10
5.44535
20
-4.27588
11
5.44549
21
-4.2759
0
LINE
8
BLACK
6
CONTINUOUS
10
5.44549
20
-4.2759
11
5.44924
21
-4.27778
0
LINE
8
BLACK
6
CONTINUOUS
10
5.44924
20
-4.27778
11
5.44995
21
-4.2783
0
LINE
8
BLACK
6
CONTINUOUS
10
5.44995
20
-4.2783
11
5.45001
21
-4.27833
0
LINE
8
BLACK
6
CONTINUOUS
10
5.45001
20
-4.27833
11
5.45188
21
-4.2802
0
LINE
8
BLACK
6
CONTINUOUS
10
5.45188
20
-4.2802
11
5.45239
21
-4.28093
0
LINE
8
BLACK
6
CONTINUOUS
10
5.45239
20
-4.28093
11
5.45243
21
-4.28097
0
LINE
8
BLACK
6
CONTINUOUS
10
5.45243
20
-4.28097
11
5.45431
21
-4.28472
0
LINE
8
BLACK
6
CONTINUOUS
10
5.45431
20
-4.28472
11
5.4546
21
-4.2857
0
LINE
8
BLACK
6
CONTINUOUS
10
5.4546
20
-4.2857
11
5.45456
21
-4.28587
0
LINE
8
BLACK
6
CONTINUOUS
10
5.45456
20
-4.28587
11
5.45462
21
-4.28604
0
LINE
8
BLACK
6
CONTINUOUS
10
5.45462
20
-4.28604
11
5.45462
21
-4.28979
0
LINE
8
BLACK
6
CONTINUOUS
10
5.45462
20
-4.28979
11
5.45444
21
-4.2908
0
LINE
8
BLACK
6
CONTINUOUS
10
5.45444
20
-4.2908
11
5.45433
21
-4.29094
0
LINE
8
BLACK
6
CONTINUOUS
10
5.45433
20
-4.29094
11
5.45431
21
-4.29111
0
LINE
8
BLACK
6
CONTINUOUS
10
5.45431
20
-4.29111
11
5.45243
21
-4.29486
0
LINE
8
BLACK
6
CONTINUOUS
10
5.45243
20
-4.29486
11
5.45191
21
-4.29557
0
LINE
8
BLACK
6
CONTINUOUS
10
5.45191
20
-4.29557
11
5.45188
21
-4.29563
0
LINE
8
BLACK
6
CONTINUOUS
10
5.45188
20
-4.29563
11
5.45001
21
-4.2975
0
LINE
8
BLACK
6
CONTINUOUS
10
5.45001
20
-4.2975
11
5.44928
21
-4.29801
0
LINE
8
BLACK
6
CONTINUOUS
10
5.44928
20
-4.29801
11
5.44924
21
-4.29806
0
LINE
8
BLACK
6
CONTINUOUS
10
5.44924
20
-4.29806
11
5.44549
21
-4.29993
0
LINE
8
BLACK
6
CONTINUOUS
10
5.44549
20
-4.29993
11
5.445
21
-4.30008
0
LINE
8
BLACK
6
CONTINUOUS
10
5.445
20
-4.30008
11
5.44489
21
-4.30015
0
LINE
8
BLACK
6
CONTINUOUS
10
5.44489
20
-4.30015
11
5.43739
21
-4.30203
0
LINE
8
BLACK
6
CONTINUOUS
10
5.43739
20
-4.30203
11
5.4368
21
-4.30207
0
LINE
8
BLACK
6
CONTINUOUS
10
5.4368
20
-4.30207
11
5.43667
21
-4.30212
0
LINE
8
BLACK
6
CONTINUOUS
10
5.43667
20
-4.30212
11
5.43657
21
-4.30212
0
LINE
8
BLACK
6
CONTINUOUS
10
5.43657
20
-4.30212
11
5.43657
21
-4.31121
0
LINE
8
BLACK
6
CONTINUOUS
10
5.43657
20
-4.31121
11
5.43667
21
-4.31121
0
LINE
8
BLACK
6
CONTINUOUS
10
5.43667
20
-4.31121
11
5.43725
21
-4.31131
0
LINE
8
BLACK
6
CONTINUOUS
10
5.43725
20
-4.31131
11
5.43739
21
-4.3113
0
LINE
8
BLACK
6
CONTINUOUS
10
5.43739
20
-4.3113
11
5.44489
21
-4.31317
0
LINE
8
BLACK
6
CONTINUOUS
10
5.44489
20
-4.31317
11
5.44535
21
-4.31338
0
LINE
8
BLACK
6
CONTINUOUS
10
5.44535
20
-4.31338
11
5.44549
21
-4.3134
0
LINE
8
BLACK
6
CONTINUOUS
10
5.44549
20
-4.3134
11
5.44924
21
-4.31527
0
LINE
8
BLACK
6
CONTINUOUS
10
5.44924
20
-4.31527
11
5.44995
21
-4.3158
0
LINE
8
BLACK
6
CONTINUOUS
10
5.44995
20
-4.3158
11
5.45001
21
-4.31582
0
LINE
8
BLACK
6
CONTINUOUS
10
5.45001
20
-4.31582
11
5.45188
21
-4.3177
0
LINE
8
BLACK
6
CONTINUOUS
10
5.45188
20
-4.3177
11
5.45239
21
-4.31842
0
LINE
8
BLACK
6
CONTINUOUS
10
5.45239
20
-4.31842
11
5.45243
21
-4.31847
0
LINE
8
BLACK
6
CONTINUOUS
10
5.45243
20
-4.31847
11
5.45431
21
-4.32222
0
LINE
8
BLACK
6
CONTINUOUS
10
5.45431
20
-4.32222
11
5.4546
21
-4.3232
0
LINE
8
BLACK
6
CONTINUOUS
10
5.4546
20
-4.3232
11
5.45456
21
-4.32337
0
LINE
8
BLACK
6
CONTINUOUS
10
5.45456
20
-4.32337
11
5.45462
21
-4.32354
0
LINE
8
BLACK
6
CONTINUOUS
10
5.45462
20
-4.32354
11
5.45462
21
-4.32729
0
LINE
8
BLACK
6
CONTINUOUS
10
5.45462
20
-4.32729
11
5.45444
21
-4.3283
0
LINE
8
BLACK
6
CONTINUOUS
10
5.45444
20
-4.3283
11
5.45433
21
-4.32843
0
LINE
8
BLACK
6
CONTINUOUS
10
5.45433
20
-4.32843
11
5.45431
21
-4.32861
0
LINE
8
BLACK
6
CONTINUOUS
10
5.45431
20
-4.32861
11
5.45243
21
-4.33236
0
LINE
8
BLACK
6
CONTINUOUS
10
5.45243
20
-4.33236
11
5.45191
21
-4.33306
0
LINE
8
BLACK
6
CONTINUOUS
10
5.45191
20
-4.33306
11
5.45188
21
-4.33312
0
LINE
8
BLACK
6
CONTINUOUS
10
5.45188
20
-4.33312
11
5.45001
21
-4.335
0
LINE
8
BLACK
6
CONTINUOUS
10
5.45001
20
-4.335
11
5.44928
21
-4.3355
0
LINE
8
BLACK
6
CONTINUOUS
10
5.44928
20
-4.3355
11
5.44924
21
-4.33555
0
LINE
8
BLACK
6
CONTINUOUS
10
5.44924
20
-4.33555
11
5.44549
21
-4.33743
0
LINE
8
BLACK
6
CONTINUOUS
10
5.44549
20
-4.33743
11
5.445
21
-4.33757
0
LINE
8
BLACK
6
CONTINUOUS
10
5.445
20
-4.33757
11
5.44489
21
-4.33765
0
LINE
8
BLACK
6
CONTINUOUS
10
5.44489
20
-4.33765
11
5.43739
21
-4.33952
0
LINE
8
BLACK
6
CONTINUOUS
10
5.43739
20
-4.33952
11
5.4368
21
-4.33957
0
LINE
8
BLACK
6
CONTINUOUS
10
5.4368
20
-4.33957
11
5.43667
21
-4.33961
0
LINE
8
BLACK
6
CONTINUOUS
10
5.43667
20
-4.33961
11
5.43657
21
-4.33961
0
LINE
8
BLACK
6
CONTINUOUS
10
5.43657
20
-4.33961
11
5.43657
21
-4.35058
0
LINE
8
BLACK
6
CONTINUOUS
10
5.43657
20
-4.35058
11
5.45167
21
-4.35058
0
LINE
8
BLACK
6
CONTINUOUS
10
5.45167
20
-4.35058
11
5.45268
21
-4.35076
0
LINE
8
BLACK
6
CONTINUOUS
10
5.45268
20
-4.35076
11
5.45423
21
-4.35206
0
LINE
8
BLACK
6
CONTINUOUS
10
5.45423
20
-4.35206
11
5.45458
21
-4.35404
0
LINE
8
BLACK
6
CONTINUOUS
10
5.45458
20
-4.35404
11
5.45357
21
-4.35579
0
LINE
8
BLACK
6
CONTINUOUS
10
5.45357
20
-4.35579
11
5.45167
21
-4.35648
0
LINE
8
BLACK
6
CONTINUOUS
10
5.45167
20
-4.35648
11
5.43657
21
-4.35648
0
LINE
8
BLACK
6
CONTINUOUS
10
5.43657
20
-4.35648
11
5.43657
21
-4.36197
0
LINE
8
BLACK
6
CONTINUOUS
10
5.43657
20
-4.36197
11
5.436
21
-4.36336
0
LINE
8
BLACK
6
CONTINUOUS
10
5.436
20
-4.36336
11
5.43461
21
-4.36394
0
LINE
8
BLACK
6
CONTINUOUS
10
5.43461
20
-4.36394
11
5.42837
21
-4.36394
0
LINE
8
BLACK
6
CONTINUOUS
10
5.42837
20
-4.36394
11
5.42837
21
-4.36408
0
LINE
8
BLACK
6
CONTINUOUS
10
5.38736
20
-4.2852
11
5.38736
21
-4.36
0
LINE
8
BLACK
6
CONTINUOUS
10
5.38736
20
-4.36
11
5.42247
21
-4.36
0
LINE
8
BLACK
6
CONTINUOUS
10
5.42247
20
-4.36
11
5.42247
21
-4.35916
0
LINE
8
BLACK
6
CONTINUOUS
10
5.42247
20
-4.35916
11
5.42265
21
-4.35815
0
LINE
8
BLACK
6
CONTINUOUS
10
5.42265
20
-4.35815
11
5.42276
21
-4.35801
0
LINE
8
BLACK
6
CONTINUOUS
10
5.42276
20
-4.35801
11
5.42278
21
-4.35784
0
LINE
8
BLACK
6
CONTINUOUS
10
5.42278
20
-4.35784
11
5.4238
21
-4.35579
0
LINE
8
BLACK
6
CONTINUOUS
10
5.4238
20
-4.35579
11
5.42286
21
-4.35501
0
LINE
8
BLACK
6
CONTINUOUS
10
5.42286
20
-4.35501
11
5.42251
21
-4.35302
0
LINE
8
BLACK
6
CONTINUOUS
10
5.42251
20
-4.35302
11
5.42352
21
-4.35127
0
LINE
8
BLACK
6
CONTINUOUS
10
5.42352
20
-4.35127
11
5.42542
21
-4.35058
0
LINE
8
BLACK
6
CONTINUOUS
10
5.42542
20
-4.35058
11
5.43264
21
-4.35058
0
LINE
8
BLACK
6
CONTINUOUS
10
5.43264
20
-4.35058
11
5.43264
21
-4.33961
0
LINE
8
BLACK
6
CONTINUOUS
10
5.43264
20
-4.33961
11
5.4273
21
-4.33961
0
LINE
8
BLACK
6
CONTINUOUS
10
5.4273
20
-4.33961
11
5.42672
21
-4.33951
0
LINE
8
BLACK
6
CONTINUOUS
10
5.42672
20
-4.33951
11
5.42658
21
-4.33952
0
LINE
8
BLACK
6
CONTINUOUS
10
5.42658
20
-4.33952
11
5.42048
21
-4.338
0
LINE
8
BLACK
6
CONTINUOUS
10
5.42048
20
-4.338
11
5.42048
21
-4.33807
0
LINE
8
BLACK
6
CONTINUOUS
10
5.42048
20
-4.33807
11
5.42002
21
-4.33918
0
LINE
8
BLACK
6
CONTINUOUS
10
5.42002
20
-4.33918
11
5.41891
21
-4.33964
0
LINE
8
BLACK
6
CONTINUOUS
10
5.41891
20
-4.33964
11
5.41779
21
-4.33918
0
LINE
8
BLACK
6
CONTINUOUS
10
5.41779
20
-4.33918
11
5.41733
21
-4.33807
0
LINE
8
BLACK
6
CONTINUOUS
10
5.41733
20
-4.33807
11
5.41733
21
-4.33685
0
LINE
8
BLACK
6
CONTINUOUS
10
5.41733
20
-4.33685
11
5.41473
21
-4.33555
0
LINE
8
BLACK
6
CONTINUOUS
10
5.41473
20
-4.33555
11
5.41402
21
-4.33502
0
LINE
8
BLACK
6
CONTINUOUS
10
5.41402
20
-4.33502
11
5.41396
21
-4.335
0
LINE
8
BLACK
6
CONTINUOUS
10
5.41396
20
-4.335
11
5.41298
21
-4.33402
0
LINE
8
BLACK
6
CONTINUOUS
10
5.41298
20
-4.33402
11
5.39922
21
-4.33402
0
LINE
8
BLACK
6
CONTINUOUS
10
5.39922
20
-4.33402
11
5.39907
21
-4.33395
0
LINE
8
BLACK
6
CONTINUOUS
10
5.39907
20
-4.33395
11
5.39891
21
-4.33399
0
LINE
8
BLACK
6
CONTINUOUS
10
5.39891
20
-4.33399
11
5.39853
21
-4.33373
0
LINE
8
BLACK
6
CONTINUOUS
10
5.39853
20
-4.33373
11
5.39811
21
-4.33355
0
LINE
8
BLACK
6
CONTINUOUS
10
5.39811
20
-4.33355
11
5.39804
21
-4.3334
0
LINE
8
BLACK
6
CONTINUOUS
10
5.39804
20
-4.3334
11
5.39791
21
-4.33331
0
LINE
8
BLACK
6
CONTINUOUS
10
5.39791
20
-4.33331
11
5.39782
21
-4.33286
0
LINE
8
BLACK
6
CONTINUOUS
10
5.39782
20
-4.33286
11
5.39765
21
-4.33244
0
LINE
8
BLACK
6
CONTINUOUS
10
5.39765
20
-4.33244
11
5.39771
21
-4.33229
0
LINE
8
BLACK
6
CONTINUOUS
10
5.39771
20
-4.33229
11
5.39768
21
-4.33213
0
LINE
8
BLACK
6
CONTINUOUS
10
5.39768
20
-4.33213
11
5.39793
21
-4.33175
0
LINE
8
BLACK
6
CONTINUOUS
10
5.39793
20
-4.33175
11
5.39811
21
-4.33133
0
LINE
8
BLACK
6
CONTINUOUS
10
5.39811
20
-4.33133
11
5.39826
21
-4.33127
0
LINE
8
BLACK
6
CONTINUOUS
10
5.39826
20
-4.33127
11
5.39835
21
-4.33113
0
LINE
8
BLACK
6
CONTINUOUS
10
5.39835
20
-4.33113
11
5.40103
21
-4.32934
0
LINE
8
BLACK
6
CONTINUOUS
10
5.40103
20
-4.32934
11
5.40261
21
-4.32776
0
LINE
8
BLACK
6
CONTINUOUS
10
5.40261
20
-4.32776
11
5.40344
21
-4.32611
0
LINE
8
BLACK
6
CONTINUOUS
10
5.40344
20
-4.32611
11
5.40435
21
-4.32532
0
LINE
8
BLACK
6
CONTINUOUS
10
5.40435
20
-4.32532
11
5.40555
21
-4.32541
0
LINE
8
BLACK
6
CONTINUOUS
10
5.40555
20
-4.32541
11
5.40634
21
-4.32632
0
LINE
8
BLACK
6
CONTINUOUS
10
5.40634
20
-4.32632
11
5.40625
21
-4.32752
0
LINE
8
BLACK
6
CONTINUOUS
10
5.40625
20
-4.32752
11
5.40532
21
-4.3294
0
LINE
8
BLACK
6
CONTINUOUS
10
5.40532
20
-4.3294
11
5.40512
21
-4.32957
0
LINE
8
BLACK
6
CONTINUOUS
10
5.40512
20
-4.32957
11
5.40502
21
-4.3298
0
LINE
8
BLACK
6
CONTINUOUS
10
5.40502
20
-4.3298
11
5.40396
21
-4.33087
0
LINE
8
BLACK
6
CONTINUOUS
10
5.40396
20
-4.33087
11
5.41079
21
-4.33087
0
LINE
8
BLACK
6
CONTINUOUS
10
5.41079
20
-4.33087
11
5.40966
21
-4.32861
0
LINE
8
BLACK
6
CONTINUOUS
10
5.40966
20
-4.32861
11
5.40937
21
-4.32762
0
LINE
8
BLACK
6
CONTINUOUS
10
5.40937
20
-4.32762
11
5.40941
21
-4.32745
0
LINE
8
BLACK
6
CONTINUOUS
10
5.40941
20
-4.32745
11
5.40935
21
-4.32729
0
LINE
8
BLACK
6
CONTINUOUS
10
5.40935
20
-4.32729
11
5.40935
21
-4.32354
0
LINE
8
BLACK
6
CONTINUOUS
10
5.40935
20
-4.32354
11
5.40952
21
-4.32253
0
LINE
8
BLACK
6
CONTINUOUS
10
5.40952
20
-4.32253
11
5.40964
21
-4.32239
0
LINE
8
BLACK
6
CONTINUOUS
10
5.40964
20
-4.32239
11
5.40966
21
-4.32222
0
LINE
8
BLACK
6
CONTINUOUS
10
5.40966
20
-4.32222
11
5.41153
21
-4.31847
0
LINE
8
BLACK
6
CONTINUOUS
10
5.41153
20
-4.31847
11
5.41206
21
-4.31776
0
LINE
8
BLACK
6
CONTINUOUS
10
5.41206
20
-4.31776
11
5.41209
21
-4.3177
0
LINE
8
BLACK
6
CONTINUOUS
10
5.41209
20
-4.3177
11
5.41396
21
-4.31582
0
LINE
8
BLACK
6
CONTINUOUS
10
5.41396
20
-4.31582
11
5.41468
21
-4.31532
0
LINE
8
BLACK
6
CONTINUOUS
10
5.41468
20
-4.31532
11
5.41473
21
-4.31527
0
LINE
8
BLACK
6
CONTINUOUS
10
5.41473
20
-4.31527
11
5.41733
21
-4.31397
0
LINE
8
BLACK
6
CONTINUOUS
10
5.41733
20
-4.31397
11
5.41733
21
-4.31395
0
LINE
8
BLACK
6
CONTINUOUS
10
5.41733
20
-4.31395
11
5.41659
21
-4.31173
0
LINE
8
BLACK
6
CONTINUOUS
10
5.41659
20
-4.31173
11
5.41516
21
-4.3103
0
LINE
8
BLACK
6
CONTINUOUS
10
5.41516
20
-4.3103
11
5.41367
21
-4.30955
0
LINE
8
BLACK
6
CONTINUOUS
10
5.41367
20
-4.30955
11
5.41027
21
-4.30871
0
LINE
8
BLACK
6
CONTINUOUS
10
5.41027
20
-4.30871
11
5.40785
21
-4.30871
0
LINE
8
BLACK
6
CONTINUOUS
10
5.40785
20
-4.30871
11
5.40446
21
-4.30955
0
LINE
8
BLACK
6
CONTINUOUS
10
5.40446
20
-4.30955
11
5.40297
21
-4.3103
0
LINE
8
BLACK
6
CONTINUOUS
10
5.40297
20
-4.3103
11
5.40153
21
-4.31173
0
LINE
8
BLACK
6
CONTINUOUS
10
5.40153
20
-4.31173
11
5.40079
21
-4.31395
0
LINE
8
BLACK
6
CONTINUOUS
10
5.40079
20
-4.31395
11
5.40079
21
-4.31531
0
LINE
8
BLACK
6
CONTINUOUS
10
5.40079
20
-4.31531
11
5.40153
21
-4.31753
0
LINE
8
BLACK
6
CONTINUOUS
10
5.40153
20
-4.31753
11
5.40221
21
-4.3182
0
LINE
8
BLACK
6
CONTINUOUS
10
5.40221
20
-4.3182
11
5.40267
21
-4.31932
0
LINE
8
BLACK
6
CONTINUOUS
10
5.40267
20
-4.31932
11
5.40221
21
-4.32043
0
LINE
8
BLACK
6
CONTINUOUS
10
5.40221
20
-4.32043
11
5.40109
21
-4.32089
0
LINE
8
BLACK
6
CONTINUOUS
10
5.40109
20
-4.32089
11
5.39998
21
-4.32043
0
LINE
8
BLACK
6
CONTINUOUS
10
5.39998
20
-4.32043
11
5.39904
21
-4.31949
0
LINE
8
BLACK
6
CONTINUOUS
10
5.39904
20
-4.31949
11
5.3989
21
-4.31916
0
LINE
8
BLACK
6
CONTINUOUS
10
5.3989
20
-4.31916
11
5.39866
21
-4.31888
0
LINE
8
BLACK
6
CONTINUOUS
10
5.39866
20
-4.31888
11
5.39773
21
-4.31607
0
LINE
8
BLACK
6
CONTINUOUS
10
5.39773
20
-4.31607
11
5.39774
21
-4.31581
0
LINE
8
BLACK
6
CONTINUOUS
10
5.39774
20
-4.31581
11
5.39765
21
-4.31557
0
LINE
8
BLACK
6
CONTINUOUS
10
5.39765
20
-4.31557
11
5.39765
21
-4.31369
0
LINE
8
BLACK
6
CONTINUOUS
10
5.39765
20
-4.31369
11
5.39774
21
-4.31345
0
LINE
8
BLACK
6
CONTINUOUS
10
5.39774
20
-4.31345
11
5.39773
21
-4.3132
0
LINE
8
BLACK
6
CONTINUOUS
10
5.39773
20
-4.3132
11
5.39866
21
-4.31038
0
LINE
8
BLACK
6
CONTINUOUS
10
5.39866
20
-4.31038
11
5.3989
21
-4.31011
0
LINE
8
BLACK
6
CONTINUOUS
10
5.3989
20
-4.31011
11
5.39904
21
-4.30977
0
LINE
8
BLACK
6
CONTINUOUS
10
5.39904
20
-4.30977
11
5.40092
21
-4.30789
0
LINE
8
BLACK
6
CONTINUOUS
10
5.40092
20
-4.30789
11
5.40116
21
-4.30779
0
LINE
8
BLACK
6
CONTINUOUS
10
5.40116
20
-4.30779
11
5.40133
21
-4.3076
0
LINE
8
BLACK
6
CONTINUOUS
10
5.40133
20
-4.3076
11
5.4032
21
-4.30666
0
LINE
8
BLACK
6
CONTINUOUS
10
5.4032
20
-4.30666
11
5.40338
21
-4.30665
0
LINE
8
BLACK
6
CONTINUOUS
10
5.40338
20
-4.30665
11
5.40353
21
-4.30654
0
LINE
8
BLACK
6
CONTINUOUS
10
5.40353
20
-4.30654
11
5.40727
21
-4.3056
0
LINE
8
BLACK
6
CONTINUOUS
10
5.40727
20
-4.3056
11
5.40747
21
-4.30563
0
LINE
8
BLACK
6
CONTINUOUS
10
5.40747
20
-4.30563
11
5.40766
21
-4.30556
0
LINE
8
BLACK
6
CONTINUOUS
10
5.40766
20
-4.30556
11
5.41047
21
-4.30556
0
LINE
8
BLACK
6
CONTINUOUS
10
5.41047
20
-4.30556
11
5.41065
21
-4.30563
0
LINE
8
BLACK
6
CONTINUOUS
10
5.41065
20
-4.30563
11
5.41085
21
-4.3056
0
LINE
8
BLACK
6
CONTINUOUS
10
5.41085
20
-4.3056
11
5.4146
21
-4.30654
0
LINE
8
BLACK
6
CONTINUOUS
10
5.4146
20
-4.30654
11
5.41474
21
-4.30665
0
LINE
8
BLACK
6
CONTINUOUS
10
5.41474
20
-4.30665
11
5.41492
21
-4.30666
0
LINE
8
BLACK
6
CONTINUOUS
10
5.41492
20
-4.30666
11
5.4168
21
-4.3076
0
LINE
8
BLACK
6
CONTINUOUS
10
5.4168
20
-4.3076
11
5.41697
21
-4.30779
0
LINE
8
BLACK
6
CONTINUOUS
10
5.41697
20
-4.30779
11
5.41721
21
-4.30789
0
LINE
8
BLACK
6
CONTINUOUS
10
5.41721
20
-4.30789
11
5.41908
21
-4.30977
0
LINE
8
BLACK
6
CONTINUOUS
10
5.41908
20
-4.30977
11
5.41922
21
-4.31011
0
LINE
8
BLACK
6
CONTINUOUS
10
5.41922
20
-4.31011
11
5.41946
21
-4.31038
0
LINE
8
BLACK
6
CONTINUOUS
10
5.41946
20
-4.31038
11
5.42029
21
-4.31287
0
LINE
8
BLACK
6
CONTINUOUS
10
5.42029
20
-4.31287
11
5.42658
21
-4.3113
0
LINE
8
BLACK
6
CONTINUOUS
10
5.42658
20
-4.3113
11
5.42717
21
-4.31126
0
LINE
8
BLACK
6
CONTINUOUS
10
5.42717
20
-4.31126
11
5.4273
21
-4.31121
0
LINE
8
BLACK
6
CONTINUOUS
10
5.4273
20
-4.31121
11
5.43264
21
-4.31121
0
LINE
8
BLACK
6
CONTINUOUS
10
5.43264
20
-4.31121
11
5.43264
21
-4.30212
0
LINE
8
BLACK
6
CONTINUOUS
10
5.43264
20
-4.30212
11
5.4273
21
-4.30212
0
LINE
8
BLACK
6
CONTINUOUS
10
5.4273
20
-4.30212
11
5.42672
21
-4.30201
0
LINE
8
BLACK
6
CONTINUOUS
10
5.42672
20
-4.30201
11
5.42658
21
-4.30203
0
LINE
8
BLACK
6
CONTINUOUS
10
5.42658
20
-4.30203
11
5.41908
21
-4.30015
0
LINE
8
BLACK
6
CONTINUOUS
10
5.41908
20
-4.30015
11
5.41862
21
-4.29995
0
LINE
8
BLACK
6
CONTINUOUS
10
5.41862
20
-4.29995
11
5.41848
21
-4.29993
0
LINE
8
BLACK
6
CONTINUOUS
10
5.41848
20
-4.29993
11
5.41473
21
-4.29806
0
LINE
8
BLACK
6
CONTINUOUS
10
5.41473
20
-4.29806
11
5.41402
21
-4.29753
0
LINE
8
BLACK
6
CONTINUOUS
10
5.41402
20
-4.29753
11
5.41396
21
-4.2975
0
LINE
8
BLACK
6
CONTINUOUS
10
5.41396
20
-4.2975
11
5.41209
21
-4.29563
0
LINE
8
BLACK
6
CONTINUOUS
10
5.41209
20
-4.29563
11
5.41158
21
-4.2949
0
LINE
8
BLACK
6
CONTINUOUS
10
5.41158
20
-4.2949
11
5.41153
21
-4.29486
0
LINE
8
BLACK
6
CONTINUOUS
10
5.41153
20
-4.29486
11
5.40966
21
-4.29111
0
LINE
8
BLACK
6
CONTINUOUS
10
5.40966
20
-4.29111
11
5.40937
21
-4.29013
0
LINE
8
BLACK
6
CONTINUOUS
10
5.40937
20
-4.29013
11
5.40941
21
-4.28996
0
LINE
8
BLACK
6
CONTINUOUS
10
5.40941
20
-4.28996
11
5.40935
21
-4.28979
0
LINE
8
BLACK
6
CONTINUOUS
10
5.40935
20
-4.28979
11
5.40935
21
-4.28604
0
LINE
8
BLACK
6
CONTINUOUS
10
5.40935
20
-4.28604
11
5.40949
21
-4.2852
0
LINE
8
BLACK
6
CONTINUOUS
10
5.40949
20
-4.2852
11
5.38736
21
-4.2852
0
LINE
8
BLACK
6
CONTINUOUS
10
5.43039
20
-4.35648
11
5.42972
21
-4.35716
0
LINE
8
BLACK
6
CONTINUOUS
10
5.42972
20
-4.35716
11
5.42837
21
-4.35985
0
LINE
8
BLACK
6
CONTINUOUS
10
5.42837
20
-4.35985
11
5.42837
21
-4.36
0
LINE
8
BLACK
6
CONTINUOUS
10
5.42837
20
-4.36
11
5.43264
21
-4.36
0
LINE
8
BLACK
6
CONTINUOUS
10
5.43264
20
-4.36
11
5.43264
21
-4.35648
0
LINE
8
BLACK
6
CONTINUOUS
10
5.43264
20
-4.35648
11
5.43039
21
-4.35648
0
LINE
8
BLACK
6
CONTINUOUS
10
5.42766
20
-4.31711
11
5.42083
21
-4.31882
0
LINE
8
BLACK
6
CONTINUOUS
10
5.42083
20
-4.31882
11
5.41868
21
-4.3199
0
LINE
8
BLACK
6
CONTINUOUS
10
5.41868
20
-4.3199
11
5.41814
21
-4.32043
0
LINE
8
BLACK
6
CONTINUOUS
10
5.41814
20
-4.32043
11
5.41739
21
-4.32074
0
LINE
8
BLACK
6
CONTINUOUS
10
5.41739
20
-4.32074
11
5.4166
21
-4.32154
0
LINE
8
BLACK
6
CONTINUOUS
10
5.4166
20
-4.32154
11
5.41525
21
-4.32423
0
LINE
8
BLACK
6
CONTINUOUS
10
5.41525
20
-4.32423
11
5.41525
21
-4.32659
0
LINE
8
BLACK
6
CONTINUOUS
10
5.41525
20
-4.32659
11
5.4166
21
-4.32929
0
LINE
8
BLACK
6
CONTINUOUS
10
5.4166
20
-4.32929
11
5.41733
21
-4.33002
0
LINE
8
BLACK
6
CONTINUOUS
10
5.41733
20
-4.33002
11
5.41733
21
-4.32682
0
LINE
8
BLACK
6
CONTINUOUS
10
5.41733
20
-4.32682
11
5.41779
21
-4.3257
0
LINE
8
BLACK
6
CONTINUOUS
10
5.41779
20
-4.3257
11
5.41891
21
-4.32524
0
LINE
8
BLACK
6
CONTINUOUS
10
5.41891
20
-4.32524
11
5.42002
21
-4.3257
0
LINE
8
BLACK
6
CONTINUOUS
10
5.42002
20
-4.3257
11
5.42048
21
-4.32682
0
LINE
8
BLACK
6
CONTINUOUS
10
5.42048
20
-4.32682
11
5.42048
21
-4.33182
0
LINE
8
BLACK
6
CONTINUOUS
10
5.42048
20
-4.33182
11
5.42083
21
-4.332
0
LINE
8
BLACK
6
CONTINUOUS
10
5.42083
20
-4.332
11
5.42766
21
-4.33371
0
LINE
8
BLACK
6
CONTINUOUS
10
5.42766
20
-4.33371
11
5.43264
21
-4.33371
0
LINE
8
BLACK
6
CONTINUOUS
10
5.43264
20
-4.33371
11
5.43264
21
-4.31711
0
LINE
8
BLACK
6
CONTINUOUS
10
5.43264
20
-4.31711
11
5.42766
21
-4.31711
0
LINE
8
BLACK
6
CONTINUOUS
10
5.43657
20
-4.33364
11
5.44314
21
-4.332
0
LINE
8
BLACK
6
CONTINUOUS
10
5.44314
20
-4.332
11
5.44617
21
-4.33048
0
LINE
8
BLACK
6
CONTINUOUS
10
5.44617
20
-4.33048
11
5.44737
21
-4.32929
0
LINE
8
BLACK
6
CONTINUOUS
10
5.44737
20
-4.32929
11
5.44872
21
-4.32659
0
LINE
8
BLACK
6
CONTINUOUS
10
5.44872
20
-4.32659
11
5.44872
21
-4.32423
0
LINE
8
BLACK
6
CONTINUOUS
10
5.44872
20
-4.32423
11
5.44737
21
-4.32154
0
LINE
8
BLACK
6
CONTINUOUS
10
5.44737
20
-4.32154
11
5.44617
21
-4.32034
0
LINE
8
BLACK
6
CONTINUOUS
10
5.44617
20
-4.32034
11
5.44314
21
-4.31882
0
LINE
8
BLACK
6
CONTINUOUS
10
5.44314
20
-4.31882
11
5.43657
21
-4.31718
0
LINE
8
BLACK
6
CONTINUOUS
10
5.43657
20
-4.31718
11
5.43657
21
-4.33364
0
LINE
8
BLACK
6
CONTINUOUS
10
5.41602
20
-4.2852
11
5.41525
21
-4.28674
0
LINE
8
BLACK
6
CONTINUOUS
10
5.41525
20
-4.28674
11
5.41525
21
-4.28909
0
LINE
8
BLACK
6
CONTINUOUS
10
5.41525
20
-4.28909
11
5.4166
21
-4.29179
0
LINE
8
BLACK
6
CONTINUOUS
10
5.4166
20
-4.29179
11
5.4178
21
-4.29299
0
LINE
8
BLACK
6
CONTINUOUS
10
5.4178
20
-4.29299
11
5.42083
21
-4.2945
0
LINE
8
BLACK
6
CONTINUOUS
10
5.42083
20
-4.2945
11
5.42766
21
-4.29621
0
LINE
8
BLACK
6
CONTINUOUS
10
5.42766
20
-4.29621
11
5.43264
21
-4.29621
0
LINE
8
BLACK
6
CONTINUOUS
10
5.43264
20
-4.29621
11
5.43264
21
-4.2852
0
LINE
8
BLACK
6
CONTINUOUS
10
5.43264
20
-4.2852
11
5.41602
21
-4.2852
0
LINE
8
BLACK
6
CONTINUOUS
10
5.43657
20
-4.28323
11
5.43657
21
-4.29614
0
LINE
8
BLACK
6
CONTINUOUS
10
5.43657
20
-4.29614
11
5.44314
21
-4.2945
0
LINE
8
BLACK
6
CONTINUOUS
10
5.44314
20
-4.2945
11
5.44617
21
-4.29299
0
LINE
8
BLACK
6
CONTINUOUS
10
5.44617
20
-4.29299
11
5.44737
21
-4.29179
0
LINE
8
BLACK
6
CONTINUOUS
10
5.44737
20
-4.29179
11
5.44872
21
-4.28909
0
LINE
8
BLACK
6
CONTINUOUS
10
5.44872
20
-4.28909
11
5.44872
21
-4.28674
0
LINE
8
BLACK
6
CONTINUOUS
10
5.44872
20
-4.28674
11
5.44737
21
-4.28404
0
LINE
8
BLACK
6
CONTINUOUS
10
5.44737
20
-4.28404
11
5.44617
21
-4.28284
0
LINE
8
BLACK
6
CONTINUOUS
10
5.44617
20
-4.28284
11
5.44314
21
-4.28133
0
LINE
8
BLACK
6
CONTINUOUS
10
5.44314
20
-4.28133
11
5.43631
21
-4.27962
0
LINE
8
BLACK
6
CONTINUOUS
10
5.43631
20
-4.27962
11
5.42766
21
-4.27962
0
LINE
8
BLACK
6
CONTINUOUS
10
5.42766
20
-4.27962
11
5.4211
21
-4.28126
0
LINE
8
BLACK
6
CONTINUOUS
10
5.4211
20
-4.28126
11
5.43461
21
-4.28126
0
LINE
8
BLACK
6
CONTINUOUS
10
5.43461
20
-4.28126
11
5.436
21
-4.28184
0
LINE
8
BLACK
6
CONTINUOUS
10
5.436
20
-4.28184
11
5.43657
21
-4.28323
0
LINE
8
BLACK
6
CONTINUOUS
10
5.474
20
-4.36336
11
5.47343
21
-4.36197
0
LINE
8
BLACK
6
CONTINUOUS
10
5.47343
20
-4.36197
11
5.47343
21
-4.28323
0
LINE
8
BLACK
6
CONTINUOUS
10
5.47343
20
-4.28323
11
5.474
21
-4.28184
0
LINE
8
BLACK
6
CONTINUOUS
10
5.474
20
-4.28184
11
5.47539
21
-4.28126
0
LINE
8
BLACK
6
CONTINUOUS
10
5.47539
20
-4.28126
11
5.52461
21
-4.28126
0
LINE
8
BLACK
6
CONTINUOUS
10
5.52461
20
-4.28126
11
5.526
21
-4.28184
0
LINE
8
BLACK
6
CONTINUOUS
10
5.526
20
-4.28184
11
5.52657
21
-4.28323
0
LINE
8
BLACK
6
CONTINUOUS
10
5.52657
20
-4.28323
11
5.52657
21
-4.36197
0
LINE
8
BLACK
6
CONTINUOUS
10
5.52657
20
-4.36197
11
5.526
21
-4.36336
0
LINE
8
BLACK
6
CONTINUOUS
10
5.526
20
-4.36336
11
5.52461
21
-4.36394
0
LINE
8
BLACK
6
CONTINUOUS
10
5.52461
20
-4.36394
11
5.47539
21
-4.36394
0
LINE
8
BLACK
6
CONTINUOUS
10
5.47539
20
-4.36394
11
5.474
21
-4.36336
0
LINE
8
BLACK
6
CONTINUOUS
10
5.47736
20
-4.2852
11
5.47736
21
-4.36
0
LINE
8
BLACK
6
CONTINUOUS
10
5.47736
20
-4.36
11
5.52264
21
-4.36
0
LINE
8
BLACK
6
CONTINUOUS
10
5.52264
20
-4.36
11
5.52264
21
-4.2852
0
LINE
8
BLACK
6
CONTINUOUS
10
5.52264
20
-4.2852
11
5.47736
21
-4.2852
0
LINE
8
BLACK
6
CONTINUOUS
10
5.51002
20
-4.32477
11
5.51046
21
-4.32583
0
LINE
8
BLACK
6
CONTINUOUS
10
5.51046
20
-4.32583
11
5.51048
21
-4.32588
0
LINE
8
BLACK
6
CONTINUOUS
10
5.51048
20
-4.32588
11
5.51048
21
-4.33807
0
LINE
8
BLACK
6
CONTINUOUS
10
5.51048
20
-4.33807
11
5.51002
21
-4.33918
0
LINE
8
BLACK
6
CONTINUOUS
10
5.51002
20
-4.33918
11
5.50891
21
-4.33964
0
LINE
8
BLACK
6
CONTINUOUS
10
5.50891
20
-4.33964
11
5.50779
21
-4.33918
0
LINE
8
BLACK
6
CONTINUOUS
10
5.50779
20
-4.33918
11
5.50733
21
-4.33807
0
LINE
8
BLACK
6
CONTINUOUS
10
5.50733
20
-4.33807
11
5.50733
21
-4.32968
0
LINE
8
BLACK
6
CONTINUOUS
10
5.50733
20
-4.32968
11
5.49877
21
-4.33824
0
LINE
8
BLACK
6
CONTINUOUS
10
5.49877
20
-4.33824
11
5.49843
21
-4.33838
0
LINE
8
BLACK
6
CONTINUOUS
10
5.49843
20
-4.33838
11
5.49815
21
-4.33862
0
LINE
8
BLACK
6
CONTINUOUS
10
5.49815
20
-4.33862
11
5.49534
21
-4.33956
0
LINE
8
BLACK
6
CONTINUOUS
10
5.49534
20
-4.33956
11
5.49508
21
-4.33954
0
LINE
8
BLACK
6
CONTINUOUS
10
5.49508
20
-4.33954
11
5.49484
21
-4.33964
0
LINE
8
BLACK
6
CONTINUOUS
10
5.49484
20
-4.33964
11
5.49297
21
-4.33964
0
LINE
8
BLACK
6
CONTINUOUS
10
5.49297
20
-4.33964
11
5.49263
21
-4.3395
0
LINE
8
BLACK
6
CONTINUOUS
10
5.49263
20
-4.3395
11
5.49227
21
-4.33947
0
LINE
8
BLACK
6
CONTINUOUS
10
5.49227
20
-4.33947
11
5.49039
21
-4.33854
0
LINE
8
BLACK
6
CONTINUOUS
10
5.49039
20
-4.33854
11
5.49022
21
-4.33834
0
LINE
8
BLACK
6
CONTINUOUS
10
5.49022
20
-4.33834
11
5.48998
21
-4.33824
0
LINE
8
BLACK
6
CONTINUOUS
10
5.48998
20
-4.33824
11
5.48904
21
-4.3373
0
LINE
8
BLACK
6
CONTINUOUS
10
5.48904
20
-4.3373
11
5.48894
21
-4.33706
0
LINE
8
BLACK
6
CONTINUOUS
10
5.48894
20
-4.33706
11
5.48875
21
-4.33689
0
LINE
8
BLACK
6
CONTINUOUS
10
5.48875
20
-4.33689
11
5.48781
21
-4.33502
0
LINE
8
BLACK
6
CONTINUOUS
10
5.48781
20
-4.33502
11
5.48779
21
-4.33465
0
LINE
8
BLACK
6
CONTINUOUS
10
5.48779
20
-4.33465
11
5.48765
21
-4.33432
0
LINE
8
BLACK
6
CONTINUOUS
10
5.48765
20
-4.33432
11
5.48765
21
-4.32963
0
LINE
8
BLACK
6
CONTINUOUS
10
5.48765
20
-4.32963
11
5.48779
21
-4.32929
0
LINE
8
BLACK
6
CONTINUOUS
10
5.48779
20
-4.32929
11
5.48781
21
-4.32892
0
LINE
8
BLACK
6
CONTINUOUS
10
5.48781
20
-4.32892
11
5.48875
21
-4.32705
0
LINE
8
BLACK
6
CONTINUOUS
10
5.48875
20
-4.32705
11
5.48894
21
-4.32688
0
LINE
8
BLACK
6
CONTINUOUS
10
5.48894
20
-4.32688
11
5.48904
21
-4.32664
0
LINE
8
BLACK
6
CONTINUOUS
10
5.48904
20
-4.32664
11
5.48998
21
-4.3257
0
LINE
8
BLACK
6
CONTINUOUS
10
5.48998
20
-4.3257
11
5.49109
21
-4.32524
0
LINE
8
BLACK
6
CONTINUOUS
10
5.49109
20
-4.32524
11
5.49221
21
-4.3257
0
LINE
8
BLACK
6
CONTINUOUS
10
5.49221
20
-4.3257
11
5.49267
21
-4.32682
0
LINE
8
BLACK
6
CONTINUOUS
10
5.49267
20
-4.32682
11
5.49221
21
-4.32793
0
LINE
8
BLACK
6
CONTINUOUS
10
5.49221
20
-4.32793
11
5.49145
21
-4.32869
0
LINE
8
BLACK
6
CONTINUOUS
10
5.49145
20
-4.32869
11
5.49079
21
-4.33
0
LINE
8
BLACK
6
CONTINUOUS
10
5.49079
20
-4.33
11
5.49079
21
-4.33394
0
LINE
8
BLACK
6
CONTINUOUS
10
5.49079
20
-4.33394
11
5.49145
21
-4.33526
0
LINE
8
BLACK
6
CONTINUOUS
10
5.49145
20
-4.33526
11
5.49203
21
-4.33583
0
LINE
8
BLACK
6
CONTINUOUS
10
5.49203
20
-4.33583
11
5.49334
21
-4.33649
0
LINE
8
BLACK
6
CONTINUOUS
10
5.49334
20
-4.33649
11
5.49459
21
-4.33649
0
LINE
8
BLACK
6
CONTINUOUS
10
5.49459
20
-4.33649
11
5.49681
21
-4.33575
0
LINE
8
BLACK
6
CONTINUOUS
10
5.49681
20
-4.33575
11
5.50779
21
-4.32477
0
LINE
8
BLACK
6
CONTINUOUS
10
5.50779
20
-4.32477
11
5.50891
21
-4.3243
0
LINE
8
BLACK
6
CONTINUOUS
10
5.50891
20
-4.3243
11
5.51002
21
-4.32477
0
LINE
8
BLACK
6
CONTINUOUS
10
5.50065
20
-4.30563
11
5.50085
21
-4.3056
0
LINE
8
BLACK
6
CONTINUOUS
10
5.50085
20
-4.3056
11
5.5046
21
-4.30654
0
LINE
8
BLACK
6
CONTINUOUS
10
5.5046
20
-4.30654
11
5.50474
21
-4.30665
0
LINE
8
BLACK
6
CONTINUOUS
10
5.50474
20
-4.30665
11
5.50492
21
-4.30666
0
LINE
8
BLACK
6
CONTINUOUS
10
5.50492
20
-4.30666
11
5.5068
21
-4.3076
0
LINE
8
BLACK
6
CONTINUOUS
10
5.5068
20
-4.3076
11
5.50697
21
-4.30779
0
LINE
8
BLACK
6
CONTINUOUS
10
5.50697
20
-4.30779
11
5.50721
21
-4.30789
0
LINE
8
BLACK
6
CONTINUOUS
10
5.50721
20
-4.30789
11
5.50908
21
-4.30977
0
LINE
8
BLACK
6
CONTINUOUS
10
5.50908
20
-4.30977
11
5.50922
21
-4.31011
0
LINE
8
BLACK
6
CONTINUOUS
10
5.50922
20
-4.31011
11
5.50946
21
-4.31038
0
LINE
8
BLACK
6
CONTINUOUS
10
5.50946
20
-4.31038
11
5.5104
21
-4.3132
0
LINE
8
BLACK
6
CONTINUOUS
10
5.5104
20
-4.3132
11
5.51038
21
-4.31345
0
LINE
8
BLACK
6
CONTINUOUS
10
5.51038
20
-4.31345
11
5.51048
21
-4.31369
0
LINE
8
BLACK
6
CONTINUOUS
10
5.51048
20
-4.31369
11
5.51048
21
-4.31557
0
LINE
8
BLACK
6
CONTINUOUS
10
5.51048
20
-4.31557
11
5.51038
21
-4.31581
0
LINE
8
BLACK
6
CONTINUOUS
10
5.51038
20
-4.31581
11
5.5104
21
-4.31607
0
LINE
8
BLACK
6
CONTINUOUS
10
5.5104
20
-4.31607
11
5.50946
21
-4.31888
0
LINE
8
BLACK
6
CONTINUOUS
10
5.50946
20
-4.31888
11
5.50922
21
-4.31916
0
LINE
8
BLACK
6
CONTINUOUS
10
5.50922
20
-4.31916
11
5.50908
21
-4.31949
0
LINE
8
BLACK
6
CONTINUOUS
10
5.50908
20
-4.31949
11
5.50814
21
-4.32043
0
LINE
8
BLACK
6
CONTINUOUS
10
5.50814
20
-4.32043
11
5.50703
21
-4.32089
0
LINE
8
BLACK
6
CONTINUOUS
10
5.50703
20
-4.32089
11
5.50592
21
-4.32043
0
LINE
8
BLACK
6
CONTINUOUS
10
5.50592
20
-4.32043
11
5.50546
21
-4.31932
0
LINE
8
BLACK
6
CONTINUOUS
10
5.50546
20
-4.31932
11
5.50592
21
-4.3182
0
LINE
8
BLACK
6
CONTINUOUS
10
5.50592
20
-4.3182
11
5.50659
21
-4.31753
0
LINE
8
BLACK
6
CONTINUOUS
10
5.50659
20
-4.31753
11
5.50733
21
-4.31531
0
LINE
8
BLACK
6
CONTINUOUS
10
5.50733
20
-4.31531
11
5.50733
21
-4.31395
0
LINE
8
BLACK
6
CONTINUOUS
10
5.50733
20
-4.31395
11
5.50659
21
-4.31173
0
LINE
8
BLACK
6
CONTINUOUS
10
5.50659
20
-4.31173
11
5.50516
21
-4.3103
0
LINE
8
BLACK
6
CONTINUOUS
10
5.50516
20
-4.3103
11
5.50367
21
-4.30955
0
LINE
8
BLACK
6
CONTINUOUS
10
5.50367
20
-4.30955
11
5.50027
21
-4.30871
0
LINE
8
BLACK
6
CONTINUOUS
10
5.50027
20
-4.30871
11
5.49785
21
-4.30871
0
LINE
8
BLACK
6
CONTINUOUS
10
5.49785
20
-4.30871
11
5.49446
21
-4.30955
0
LINE
8
BLACK
6
CONTINUOUS
10
5.49446
20
-4.30955
11
5.49297
21
-4.3103
0
LINE
8
BLACK
6
CONTINUOUS
10
5.49297
20
-4.3103
11
5.49153
21
-4.31173
0
LINE
8
BLACK
6
CONTINUOUS
10
5.49153
20
-4.31173
11
5.49079
21
-4.31395
0
LINE
8
BLACK
6
CONTINUOUS
10
5.49079
20
-4.31395
11
5.49079
21
-4.31531
0
LINE
8
BLACK
6
CONTINUOUS
10
5.49079
20
-4.31531
11
5.49153
21
-4.31753
0
LINE
8
BLACK
6
CONTINUOUS
10
5.49153
20
-4.31753
11
5.49221
21
-4.3182
0
LINE
8
BLACK
6
CONTINUOUS
10
5.49221
20
-4.3182
11
5.49267
21
-4.31932
0
LINE
8
BLACK
6
CONTINUOUS
10
5.49267
20
-4.31932
11
5.49221
21
-4.32043
0
LINE
8
BLACK
6
CONTINUOUS
10
5.49221
20
-4.32043
11
5.49109
21
-4.32089
0
LINE
8
BLACK
6
CONTINUOUS
10
5.49109
20
-4.32089
11
5.48998
21
-4.32043
0
LINE
8
BLACK
6
CONTINUOUS
10
5.48998
20
-4.32043
11
5.48904
21
-4.31949
0
LINE
8
BLACK
6
CONTINUOUS
10
5.48904
20
-4.31949
11
5.4889
21
-4.31916
0
LINE
8
BLACK
6
CONTINUOUS
10
5.4889
20
-4.31916
11
5.48866
21
-4.31888
0
LINE
8
BLACK
6
CONTINUOUS
10
5.48866
20
-4.31888
11
5.48773
21
-4.31607
0
LINE
8
BLACK
6
CONTINUOUS
10
5.48773
20
-4.31607
11
5.48774
21
-4.31581
0
LINE
8
BLACK
6
CONTINUOUS
10
5.48774
20
-4.31581
11
5.48765
21
-4.31557
0
LINE
8
BLACK
6
CONTINUOUS
10
5.48765
20
-4.31557
11
5.48765
21
-4.31369
0
LINE
8
BLACK
6
CONTINUOUS
10
5.48765
20
-4.31369
11
5.48774
21
-4.31345
0
LINE
8
BLACK
6
CONTINUOUS
10
5.48774
20
-4.31345
11
5.48773
21
-4.3132
0
LINE
8
BLACK
6
CONTINUOUS
10
5.48773
20
-4.3132
11
5.48866
21
-4.31038
0
LINE
8
BLACK
6
CONTINUOUS
10
5.48866
20
-4.31038
11
5.4889
21
-4.31011
0
LINE
8
BLACK
6
CONTINUOUS
10
5.4889
20
-4.31011
11
5.48904
21
-4.30977
0
LINE
8
BLACK
6
CONTINUOUS
10
5.48904
20
-4.30977
11
5.49092
21
-4.30789
0
LINE
8
BLACK
6
CONTINUOUS
10
5.49092
20
-4.30789
11
5.49116
21
-4.30779
0
LINE
8
BLACK
6
CONTINUOUS
10
5.49116
20
-4.30779
11
5.49133
21
-4.3076
0
LINE
8
BLACK
6
CONTINUOUS
10
5.49133
20
-4.3076
11
5.4932
21
-4.30666
0
LINE
8
BLACK
6
CONTINUOUS
10
5.4932
20
-4.30666
11
5.49338
21
-4.30665
0
LINE
8
BLACK
6
CONTINUOUS
10
5.49338
20
-4.30665
11
5.49353
21
-4.30654
0
LINE
8
BLACK
6
CONTINUOUS
10
5.49353
20
-4.30654
11
5.49727
21
-4.3056
0
LINE
8
BLACK
6
CONTINUOUS
10
5.49727
20
-4.3056
11
5.49747
21
-4.30563
0
LINE
8
BLACK
6
CONTINUOUS
10
5.49747
20
-4.30563
11
5.49766
21
-4.30556
0
LINE
8
BLACK
6
CONTINUOUS
10
5.49766
20
-4.30556
11
5.50047
21
-4.30556
0
LINE
8
BLACK
6
CONTINUOUS
10
5.50047
20
-4.30556
11
5.50065
21
-4.30563
0
LINE
8
BLACK
6
CONTINUOUS
10
5.0925
20
-4.30242
11
5.09264
21
-4.30241
0
LINE
8
BLACK
6
CONTINUOUS
10
5.09264
20
-4.30241
11
5.10216
21
-4.30479
0
LINE
8
BLACK
6
CONTINUOUS
10
5.10216
20
-4.30479
11
5.10301
21
-4.30514
0
LINE
8
BLACK
6
CONTINUOUS
10
5.10301
20
-4.30514
11
5.10319
21
-4.30517
0
LINE
8
BLACK
6
CONTINUOUS
10
5.10319
20
-4.30517
11
5.10795
21
-4.30755
0
LINE
8
BLACK
6
CONTINUOUS
10
5.10795
20
-4.30755
11
5.10913
21
-4.30837
0
LINE
8
BLACK
6
CONTINUOUS
10
5.10913
20
-4.30837
11
5.10917
21
-4.30845
0
LINE
8
BLACK
6
CONTINUOUS
10
5.10917
20
-4.30845
11
5.10925
21
-4.30849
0
LINE
8
BLACK
6
CONTINUOUS
10
5.10925
20
-4.30849
11
5.11401
21
-4.31325
0
LINE
8
BLACK
6
CONTINUOUS
10
5.11401
20
-4.31325
11
5.11487
21
-4.3144
0
LINE
8
BLACK
6
CONTINUOUS
10
5.11487
20
-4.3144
11
5.11496
21
-4.31484
0
LINE
8
BLACK
6
CONTINUOUS
10
5.11496
20
-4.31484
11
5.11522
21
-4.31521
0
LINE
8
BLACK
6
CONTINUOUS
10
5.11522
20
-4.31521
11
5.1176
21
-4.32235
0
LINE
8
BLACK
6
CONTINUOUS
10
5.1176
20
-4.32235
11
5.11785
21
-4.32376
0
LINE
8
BLACK
6
CONTINUOUS
10
5.11785
20
-4.32376
11
5.11783
21
-4.32385
0
LINE
8
BLACK
6
CONTINUOUS
10
5.11783
20
-4.32385
11
5.11786
21
-4.32393
0
LINE
8
BLACK
6
CONTINUOUS
10
5.11786
20
-4.32393
11
5.11786
21
-4.32869
0
LINE
8
BLACK
6
CONTINUOUS
10
5.11786
20
-4.32869
11
5.11765
21
-4.33011
0
LINE
8
BLACK
6
CONTINUOUS
10
5.11765
20
-4.33011
11
5.1176
21
-4.33019
0
LINE
8
BLACK
6
CONTINUOUS
10
5.1176
20
-4.33019
11
5.1176
21
-4.33027
0
LINE
8
BLACK
6
CONTINUOUS
10
5.1176
20
-4.33027
11
5.11522
21
-4.33742
0
LINE
8
BLACK
6
CONTINUOUS
10
5.11522
20
-4.33742
11
5.11457
21
-4.3387
0
LINE
8
BLACK
6
CONTINUOUS
10
5.11457
20
-4.3387
11
5.11422
21
-4.33898
0
LINE
8
BLACK
6
CONTINUOUS
10
5.11422
20
-4.33898
11
5.11401
21
-4.33937
0
LINE
8
BLACK
6
CONTINUOUS
10
5.11401
20
-4.33937
11
5.11163
21
-4.34175
0
LINE
8
BLACK
6
CONTINUOUS
10
5.11163
20
-4.34175
11
5.11048
21
-4.34261
0
LINE
8
BLACK
6
CONTINUOUS
10
5.11048
20
-4.34261
11
5.10773
21
-4.3432
0
LINE
8
BLACK
6
CONTINUOUS
10
5.10773
20
-4.3432
11
5.10509
21
-4.34222
0
LINE
8
BLACK
6
CONTINUOUS
10
5.10509
20
-4.34222
11
5.10341
21
-4.33996
0
LINE
8
BLACK
6
CONTINUOUS
10
5.10341
20
-4.33996
11
5.10321
21
-4.33715
0
LINE
8
BLACK
6
CONTINUOUS
10
5.10321
20
-4.33715
11
5.10456
21
-4.33468
0
LINE
8
BLACK
6
CONTINUOUS
10
5.10456
20
-4.33468
11
5.1061
21
-4.33314
0
LINE
8
BLACK
6
CONTINUOUS
10
5.1061
20
-4.33314
11
5.10786
21
-4.32788
0
LINE
8
BLACK
6
CONTINUOUS
10
5.10786
20
-4.32788
11
5.10786
21
-4.32474
0
LINE
8
BLACK
6
CONTINUOUS
10
5.10786
20
-4.32474
11
5.1061
21
-4.31949
0
LINE
8
BLACK
6
CONTINUOUS
10
5.1061
20
-4.31949
11
5.10275
21
-4.31614
0
LINE
8
BLACK
6
CONTINUOUS
10
5.10275
20
-4.31614
11
5.09921
21
-4.31436
0
LINE
8
BLACK
6
CONTINUOUS
10
5.09921
20
-4.31436
11
5.09081
21
-4.31226
0
LINE
8
BLACK
6
CONTINUOUS
10
5.09081
20
-4.31226
11
5.0849
21
-4.31226
0
LINE
8
BLACK
6
CONTINUOUS
10
5.0849
20
-4.31226
11
5.07651
21
-4.31436
0
LINE
8
BLACK
6
CONTINUOUS
10
5.07651
20
-4.31436
11
5.07296
21
-4.31614
0
LINE
8
BLACK
6
CONTINUOUS
10
5.07296
20
-4.31614
11
5.06961
21
-4.31949
0
LINE
8
BLACK
6
CONTINUOUS
10
5.06961
20
-4.31949
11
5.06786
21
-4.32474
0
LINE
8
BLACK
6
CONTINUOUS
10
5.06786
20
-4.32474
11
5.06786
21
-4.32788
0
LINE
8
BLACK
6
CONTINUOUS
10
5.06786
20
-4.32788
11
5.06961
21
-4.33314
0
LINE
8
BLACK
6
CONTINUOUS
10
5.06961
20
-4.33314
11
5.07115
21
-4.33468
0
LINE
8
BLACK
6
CONTINUOUS
10
5.07115
20
-4.33468
11
5.07201
21
-4.33583
0
LINE
8
BLACK
6
CONTINUOUS
10
5.07201
20
-4.33583
11
5.0726
21
-4.33858
0
LINE
8
BLACK
6
CONTINUOUS
10
5.0726
20
-4.33858
11
5.07162
21
-4.34122
0
LINE
8
BLACK
6
CONTINUOUS
10
5.07162
20
-4.34122
11
5.06936
21
-4.3429
0
LINE
8
BLACK
6
CONTINUOUS
10
5.06936
20
-4.3429
11
5.06655
21
-4.3431
0
LINE
8
BLACK
6
CONTINUOUS
10
5.06655
20
-4.3431
11
5.06408
21
-4.34175
0
LINE
8
BLACK
6
CONTINUOUS
10
5.06408
20
-4.34175
11
5.0617
21
-4.33937
0
LINE
8
BLACK
6
CONTINUOUS
10
5.0617
20
-4.33937
11
5.06084
21
-4.33822
0
LINE
8
BLACK
6
CONTINUOUS
10
5.06084
20
-4.33822
11
5.06075
21
-4.33778
0
LINE
8
BLACK
6
CONTINUOUS
10
5.06075
20
-4.33778
11
5.06049
21
-4.33742
0
LINE
8
BLACK
6
CONTINUOUS
10
5.06049
20
-4.33742
11
5.05811
21
-4.33027
0
LINE
8
BLACK
6
CONTINUOUS
10
5.05811
20
-4.33027
11
5.05786
21
-4.32886
0
LINE
8
BLACK
6
CONTINUOUS
10
5.05786
20
-4.32886
11
5.05788
21
-4.32878
0
LINE
8
BLACK
6
CONTINUOUS
10
5.05788
20
-4.32878
11
5.05786
21
-4.32869
0
LINE
8
BLACK
6
CONTINUOUS
10
5.05786
20
-4.32869
11
5.05786
21
-4.32393
0
LINE
8
BLACK
6
CONTINUOUS
10
5.05786
20
-4.32393
11
5.05806
21
-4.32251
0
LINE
8
BLACK
6
CONTINUOUS
10
5.05806
20
-4.32251
11
5.05811
21
-4.32244
0
LINE
8
BLACK
6
CONTINUOUS
10
5.05811
20
-4.32244
11
5.05811
21
-4.32235
0
LINE
8
BLACK
6
CONTINUOUS
10
5.05811
20
-4.32235
11
5.06049
21
-4.31521
0
LINE
8
BLACK
6
CONTINUOUS
10
5.06049
20
-4.31521
11
5.06114
21
-4.31393
0
LINE
8
BLACK
6
CONTINUOUS
10
5.06114
20
-4.31393
11
5.06149
21
-4.31365
0
LINE
8
BLACK
6
CONTINUOUS
10
5.06149
20
-4.31365
11
5.0617
21
-4.31325
0
LINE
8
BLACK
6
CONTINUOUS
10
5.0617
20
-4.31325
11
5.06646
21
-4.30849
0
LINE
8
BLACK
6
CONTINUOUS
10
5.06646
20
-4.30849
11
5.06761
21
-4.30763
0
LINE
8
BLACK
6
CONTINUOUS
10
5.06761
20
-4.30763
11
5.0677
21
-4.30761
0
LINE
8
BLACK
6
CONTINUOUS
10
5.0677
20
-4.30761
11
5.06776
21
-4.30755
0
LINE
8
BLACK
6
CONTINUOUS
10
5.06776
20
-4.30755
11
5.07252
21
-4.30517
0
LINE
8
BLACK
6
CONTINUOUS
10
5.07252
20
-4.30517
11
5.07339
21
-4.30489
0
LINE
8
BLACK
6
CONTINUOUS
10
5.07339
20
-4.30489
11
5.07355
21
-4.30479
0
LINE
8
BLACK
6
CONTINUOUS
10
5.07355
20
-4.30479
11
5.08307
21
-4.30241
0
LINE
8
BLACK
6
CONTINUOUS
10
5.08307
20
-4.30241
11
5.08415
21
-4.30231
0
LINE
8
BLACK
6
CONTINUOUS
10
5.08415
20
-4.30231
11
5.08428
21
-4.30226
0
LINE
8
BLACK
6
CONTINUOUS
10
5.08428
20
-4.30226
11
5.09143
21
-4.30226
0
LINE
8
BLACK
6
CONTINUOUS
10
5.09143
20
-4.30226
11
5.0925
21
-4.30242
0
LINE
8
BLACK
6
CONTINUOUS
10
5.11428
20
-4.28104
11
5.11664
21
-4.28257
0
LINE
8
BLACK
6
CONTINUOUS
10
5.11664
20
-4.28257
11
5.11781
21
-4.28513
0
LINE
8
BLACK
6
CONTINUOUS
10
5.11781
20
-4.28513
11
5.1174
21
-4.28792
0
LINE
8
BLACK
6
CONTINUOUS
10
5.1174
20
-4.28792
11
5.11556
21
-4.29004
0
LINE
8
BLACK
6
CONTINUOUS
10
5.11556
20
-4.29004
11
5.11286
21
-4.29084
0
LINE
8
BLACK
6
CONTINUOUS
10
5.11286
20
-4.29084
11
5.06286
21
-4.29084
0
LINE
8
BLACK
6
CONTINUOUS
10
5.06286
20
-4.29084
11
5.06144
21
-4.29063
0
LINE
8
BLACK
6
CONTINUOUS
10
5.06144
20
-4.29063
11
5.05907
21
-4.2891
0
LINE
8
BLACK
6
CONTINUOUS
10
5.05907
20
-4.2891
11
5.05791
21
-4.28654
0
LINE
8
BLACK
6
CONTINUOUS
10
5.05791
20
-4.28654
11
5.05831
21
-4.28375
0
LINE
8
BLACK
6
CONTINUOUS
10
5.05831
20
-4.28375
11
5.06015
21
-4.28163
0
LINE
8
BLACK
6
CONTINUOUS
10
5.06015
20
-4.28163
11
5.06286
21
-4.28084
0
LINE
8
BLACK
6
CONTINUOUS
10
5.06286
20
-4.28084
11
5.11286
21
-4.28084
0
LINE
8
BLACK
6
CONTINUOUS
10
5.11286
20
-4.28084
11
5.11428
21
-4.28104
0
LINE
8
BLACK
6
CONTINUOUS
10
5.42531
20
-4.2368
11
5.42642
21
-4.23849
0
LINE
8
BLACK
6
CONTINUOUS
10
5.42642
20
-4.23849
11
5.42619
21
-4.24049
0
LINE
8
BLACK
6
CONTINUOUS
10
5.42619
20
-4.24049
11
5.42431
21
-4.24424
0
LINE
8
BLACK
6
CONTINUOUS
10
5.42431
20
-4.24424
11
5.42379
21
-4.24495
0
LINE
8
BLACK
6
CONTINUOUS
10
5.42379
20
-4.24495
11
5.42376
21
-4.24501
0
LINE
8
BLACK
6
CONTINUOUS
10
5.42376
20
-4.24501
11
5.4213
21
-4.24747
0
LINE
8
BLACK
6
CONTINUOUS
10
5.4213
20
-4.24747
11
5.44872
21
-4.24747
0
LINE
8
BLACK
6
CONTINUOUS
10
5.44872
20
-4.24747
11
5.44872
21
-4.23917
0
LINE
8
BLACK
6
CONTINUOUS
10
5.44872
20
-4.23917
11
5.44889
21
-4.23816
0
LINE
8
BLACK
6
CONTINUOUS
10
5.44889
20
-4.23816
11
5.45019
21
-4.23661
0
LINE
8
BLACK
6
CONTINUOUS
10
5.45019
20
-4.23661
11
5.45218
21
-4.23626
0
LINE
8
BLACK
6
CONTINUOUS
10
5.45218
20
-4.23626
11
5.45393
21
-4.23727
0
LINE
8
BLACK
6
CONTINUOUS
10
5.45393
20
-4.23727
11
5.45462
21
-4.23917
0
LINE
8
BLACK
6
CONTINUOUS
10
5.45462
20
-4.23917
11
5.45462
21
-4.26167
0
LINE
8
BLACK
6
CONTINUOUS
10
5.45462
20
-4.26167
11
5.45444
21
-4.26268
0
LINE
8
BLACK
6
CONTINUOUS
10
5.45444
20
-4.26268
11
5.45314
21
-4.26423
0
LINE
8
BLACK
6
CONTINUOUS
10
5.45314
20
-4.26423
11
5.45116
21
-4.26458
0
LINE
8
BLACK
6
CONTINUOUS
10
5.45116
20
-4.26458
11
5.44941
21
-4.26357
0
LINE
8
BLACK
6
CONTINUOUS
10
5.44941
20
-4.26357
11
5.44872
21
-4.26167
0
LINE
8
BLACK
6
CONTINUOUS
10
5.44872
20
-4.26167
11
5.44872
21
-4.25337
0
LINE
8
BLACK
6
CONTINUOUS
10
5.44872
20
-4.25337
11
5.4123
21
-4.25337
0
LINE
8
BLACK
6
CONTINUOUS
10
5.4123
20
-4.25337
11
5.41129
21
-4.25319
0
LINE
8
BLACK
6
CONTINUOUS
10
5.41129
20
-4.25319
11
5.41116
21
-4.25309
0
LINE
8
BLACK
6
CONTINUOUS
10
5.41116
20
-4.25309
11
5.41099
21
-4.25307
0
LINE
8
BLACK
6
CONTINUOUS
10
5.41099
20
-4.25307
11
5.4104
21
-4.25245
0
LINE
8
BLACK
6
CONTINUOUS
10
5.4104
20
-4.25245
11
5.40974
21
-4.2519
0
LINE
8
BLACK
6
CONTINUOUS
10
5.40974
20
-4.2519
11
5.40971
21
-4.25173
0
LINE
8
BLACK
6
CONTINUOUS
10
5.40971
20
-4.25173
11
5.40959
21
-4.25161
0
LINE
8
BLACK
6
CONTINUOUS
10
5.40959
20
-4.25161
11
5.40954
21
-4.25075
0
LINE
8
BLACK
6
CONTINUOUS
10
5.40954
20
-4.25075
11
5.40939
21
-4.24991
0
LINE
8
BLACK
6
CONTINUOUS
10
5.40939
20
-4.24991
11
5.40948
21
-4.24976
0
LINE
8
BLACK
6
CONTINUOUS
10
5.40948
20
-4.24976
11
5.40946
21
-4.24959
0
LINE
8
BLACK
6
CONTINUOUS
10
5.40946
20
-4.24959
11
5.40997
21
-4.2489
0
LINE
8
BLACK
6
CONTINUOUS
10
5.40997
20
-4.2489
11
5.4104
21
-4.24816
0
LINE
8
BLACK
6
CONTINUOUS
10
5.4104
20
-4.24816
11
5.41056
21
-4.2481
0
LINE
8
BLACK
6
CONTINUOUS
10
5.41056
20
-4.2481
11
5.41066
21
-4.24796
0
LINE
8
BLACK
6
CONTINUOUS
10
5.41066
20
-4.24796
11
5.41604
21
-4.24438
0
LINE
8
BLACK
6
CONTINUOUS
10
5.41604
20
-4.24438
11
5.41925
21
-4.24117
0
LINE
8
BLACK
6
CONTINUOUS
10
5.41925
20
-4.24117
11
5.42091
21
-4.23785
0
LINE
8
BLACK
6
CONTINUOUS
10
5.42091
20
-4.23785
11
5.42152
21
-4.23703
0
LINE
8
BLACK
6
CONTINUOUS
10
5.42152
20
-4.23703
11
5.42337
21
-4.23622
0
LINE
8
BLACK
6
CONTINUOUS
10
5.42337
20
-4.23622
11
5.42531
21
-4.2368
0
LINE
8
BLACK
6
CONTINUOUS
10
5.49819
20
-4.14556
11
5.49832
21
-4.14553
0
LINE
8
BLACK
6
CONTINUOUS
10
5.49832
20
-4.14553
11
5.49843
21
-4.1456
0
LINE
8
BLACK
6
CONTINUOUS
10
5.49843
20
-4.1456
11
5.49882
21
-4.14567
0
LINE
8
BLACK
6
CONTINUOUS
10
5.49882
20
-4.14567
11
5.4994
21
-4.14616
0
LINE
8
BLACK
6
CONTINUOUS
10
5.4994
20
-4.14616
11
5.50007
21
-4.14654
0
LINE
8
BLACK
6
CONTINUOUS
10
5.50007
20
-4.14654
11
5.50016
21
-4.14679
0
LINE
8
BLACK
6
CONTINUOUS
10
5.50016
20
-4.14679
11
5.50036
21
-4.14696
0
LINE
8
BLACK
6
CONTINUOUS
10
5.50036
20
-4.14696
11
5.5005
21
-4.14772
0
LINE
8
BLACK
6
CONTINUOUS
10
5.5005
20
-4.14772
11
5.50076
21
-4.14844
0
LINE
8
BLACK
6
CONTINUOUS
10
5.50076
20
-4.14844
11
5.50076
21
-4.18781
0
LINE
8
BLACK
6
CONTINUOUS
10
5.50076
20
-4.18781
11
5.50069
21
-4.18819
0
LINE
8
BLACK
6
CONTINUOUS
10
5.50069
20
-4.18819
11
5.50071
21
-4.18832
0
LINE
8
BLACK
6
CONTINUOUS
10
5.50071
20
-4.18832
11
5.50065
21
-4.18844
0
LINE
8
BLACK
6
CONTINUOUS
10
5.50065
20
-4.18844
11
5.50058
21
-4.18882
0
LINE
8
BLACK
6
CONTINUOUS
10
5.50058
20
-4.18882
11
5.50009
21
-4.18941
0
LINE
8
BLACK
6
CONTINUOUS
10
5.50009
20
-4.18941
11
5.4997
21
-4.19007
0
LINE
8
BLACK
6
CONTINUOUS
10
5.4997
20
-4.19007
11
5.49945
21
-4.19016
0
LINE
8
BLACK
6
CONTINUOUS
10
5.49945
20
-4.19016
11
5.49928
21
-4.19037
0
LINE
8
BLACK
6
CONTINUOUS
10
5.49928
20
-4.19037
11
5.49853
21
-4.1905
0
LINE
8
BLACK
6
CONTINUOUS
10
5.49853
20
-4.1905
11
5.49781
21
-4.19076
0
LINE
8
BLACK
6
CONTINUOUS
10
5.49781
20
-4.19076
11
5.48843
21
-4.19076
0
LINE
8
BLACK
6
CONTINUOUS
10
5.48843
20
-4.19076
11
5.48756
21
-4.19061
0
LINE
8
BLACK
6
CONTINUOUS
10
5.48756
20
-4.19061
11
5.4875
21
-4.19061
0
LINE
8
BLACK
6
CONTINUOUS
10
5.4875
20
-4.19061
11
5.48187
21
-4.18874
0
LINE
8
BLACK
6
CONTINUOUS
10
5.48187
20
-4.18874
11
5.48097
21
-4.18825
0
LINE
8
BLACK
6
CONTINUOUS
10
5.48097
20
-4.18825
11
5.48088
21
-4.1881
0
LINE
8
BLACK
6
CONTINUOUS
10
5.48088
20
-4.1881
11
5.48072
21
-4.18802
0
LINE
8
BLACK
6
CONTINUOUS
10
5.48072
20
-4.18802
11
5.47697
21
-4.18427
0
LINE
8
BLACK
6
CONTINUOUS
10
5.47697
20
-4.18427
11
5.47646
21
-4.18355
0
LINE
8
BLACK
6
CONTINUOUS
10
5.47646
20
-4.18355
11
5.47642
21
-4.18351
0
LINE
8
BLACK
6
CONTINUOUS
10
5.47642
20
-4.18351
11
5.47454
21
-4.17976
0
LINE
8
BLACK
6
CONTINUOUS
10
5.47454
20
-4.17976
11
5.4744
21
-4.17927
0
LINE
8
BLACK
6
CONTINUOUS
10
5.4744
20
-4.17927
11
5.47432
21
-4.17915
0
LINE
8
BLACK
6
CONTINUOUS
10
5.47432
20
-4.17915
11
5.47244
21
-4.17165
0
LINE
8
BLACK
6
CONTINUOUS
10
5.47244
20
-4.17165
11
5.4724
21
-4.17107
0
LINE
8
BLACK
6
CONTINUOUS
10
5.4724
20
-4.17107
11
5.47236
21
-4.17094
0
LINE
8
BLACK
6
CONTINUOUS
10
5.47236
20
-4.17094
11
5.47236
21
-4.16531
0
LINE
8
BLACK
6
CONTINUOUS
10
5.47236
20
-4.16531
11
5.47246
21
-4.16473
0
LINE
8
BLACK
6
CONTINUOUS
10
5.47246
20
-4.16473
11
5.47244
21
-4.1646
0
LINE
8
BLACK
6
CONTINUOUS
10
5.47244
20
-4.1646
11
5.47432
21
-4.1571
0
LINE
8
BLACK
6
CONTINUOUS
10
5.47432
20
-4.1571
11
5.47453
21
-4.15663
0
LINE
8
BLACK
6
CONTINUOUS
10
5.47453
20
-4.15663
11
5.47454
21
-4.15649
0
LINE
8
BLACK
6
CONTINUOUS
10
5.47454
20
-4.15649
11
5.47642
21
-4.15274
0
LINE
8
BLACK
6
CONTINUOUS
10
5.47642
20
-4.15274
11
5.47694
21
-4.15203
0
LINE
8
BLACK
6
CONTINUOUS
10
5.47694
20
-4.15203
11
5.47697
21
-4.15198
0
LINE
8
BLACK
6
CONTINUOUS
10
5.47697
20
-4.15198
11
5.48072
21
-4.14823
0
LINE
8
BLACK
6
CONTINUOUS
10
5.48072
20
-4.14823
11
5.48156
21
-4.14764
0
LINE
8
BLACK
6
CONTINUOUS
10
5.48156
20
-4.14764
11
5.48174
21
-4.14762
0
LINE
8
BLACK
6
CONTINUOUS
10
5.48174
20
-4.14762
11
5.48187
21
-4.14751
0
LINE
8
BLACK
6
CONTINUOUS
10
5.48187
20
-4.14751
11
5.4875
21
-4.14564
0
LINE
8
BLACK
6
CONTINUOUS
10
5.4875
20
-4.14564
11
5.48837
21
-4.14551
0
LINE
8
BLACK
6
CONTINUOUS
10
5.48837
20
-4.14551
11
5.48843
21
-4.14549
0
LINE
8
BLACK
6
CONTINUOUS
10
5.48843
20
-4.14549
11
5.49781
21
-4.14549
0
LINE
8
BLACK
6
CONTINUOUS
10
5.49781
20
-4.14549
11
5.49819
21
-4.14556
0
LINE
8
BLACK
6
CONTINUOUS
10
5.48891
20
-4.15139
11
5.4844
21
-4.1529
0
LINE
8
BLACK
6
CONTINUOUS
10
5.4844
20
-4.1529
11
5.48149
21
-4.15581
0
LINE
8
BLACK
6
CONTINUOUS
10
5.48149
20
-4.15581
11
5.47997
21
-4.15884
0
LINE
8
BLACK
6
CONTINUOUS
10
5.47997
20
-4.15884
11
5.47826
21
-4.16568
0
LINE
8
BLACK
6
CONTINUOUS
10
5.47826
20
-4.16568
11
5.47826
21
-4.17057
0
LINE
8
BLACK
6
CONTINUOUS
10
5.47826
20
-4.17057
11
5.47997
21
-4.17741
0
LINE
8
BLACK
6
CONTINUOUS
10
5.47997
20
-4.17741
11
5.48149
21
-4.18044
0
LINE
8
BLACK
6
CONTINUOUS
10
5.48149
20
-4.18044
11
5.4844
21
-4.18335
0
LINE
8
BLACK
6
CONTINUOUS
10
5.4844
20
-4.18335
11
5.48891
21
-4.18486
0
LINE
8
BLACK
6
CONTINUOUS
10
5.48891
20
-4.18486
11
5.49485
21
-4.18486
0
LINE
8
BLACK
6
CONTINUOUS
10
5.49485
20
-4.18486
11
5.49485
21
-4.15139
0
LINE
8
BLACK
6
CONTINUOUS
10
5.49485
20
-4.15139
11
5.48891
21
-4.15139
0
LINE
8
BLACK
6
CONTINUOUS
10
5.45868
20
-4.14558
11
5.45895
21
-4.14553
0
LINE
8
BLACK
6
CONTINUOUS
10
5.45895
20
-4.14553
11
5.45961
21
-4.14591
0
LINE
8
BLACK
6
CONTINUOUS
10
5.45961
20
-4.14591
11
5.46032
21
-4.14617
0
LINE
8
BLACK
6
CONTINUOUS
10
5.46032
20
-4.14617
11
5.46046
21
-4.14641
0
LINE
8
BLACK
6
CONTINUOUS
10
5.46046
20
-4.14641
11
5.4607
21
-4.14654
0
LINE
8
BLACK
6
CONTINUOUS
10
5.4607
20
-4.14654
11
5.46096
21
-4.14726
0
LINE
8
BLACK
6
CONTINUOUS
10
5.46096
20
-4.14726
11
5.46134
21
-4.14791
0
LINE
8
BLACK
6
CONTINUOUS
10
5.46134
20
-4.14791
11
5.4613
21
-4.14818
0
LINE
8
BLACK
6
CONTINUOUS
10
5.4613
20
-4.14818
11
5.46139
21
-4.14844
0
LINE
8
BLACK
6
CONTINUOUS
10
5.46139
20
-4.14844
11
5.46139
21
-4.18781
0
LINE
8
BLACK
6
CONTINUOUS
10
5.46139
20
-4.18781
11
5.46121
21
-4.18882
0
LINE
8
BLACK
6
CONTINUOUS
10
5.46121
20
-4.18882
11
5.45991
21
-4.19037
0
LINE
8
BLACK
6
CONTINUOUS
10
5.45991
20
-4.19037
11
5.45792
21
-4.19072
0
LINE
8
BLACK
6
CONTINUOUS
10
5.45792
20
-4.19072
11
5.45617
21
-4.18971
0
LINE
8
BLACK
6
CONTINUOUS
10
5.45617
20
-4.18971
11
5.45548
21
-4.18781
0
LINE
8
BLACK
6
CONTINUOUS
10
5.45548
20
-4.18781
11
5.45548
21
-4.15956
0
LINE
8
BLACK
6
CONTINUOUS
10
5.45548
20
-4.15956
11
5.4385
21
-4.18928
0
LINE
8
BLACK
6
CONTINUOUS
10
5.4385
20
-4.18928
11
5.43785
21
-4.19006
0
LINE
8
BLACK
6
CONTINUOUS
10
5.43785
20
-4.19006
11
5.43759
21
-4.19016
0
LINE
8
BLACK
6
CONTINUOUS
10
5.43759
20
-4.19016
11
5.43742
21
-4.19037
0
LINE
8
BLACK
6
CONTINUOUS
10
5.43742
20
-4.19037
11
5.43667
21
-4.1905
0
LINE
8
BLACK
6
CONTINUOUS
10
5.43667
20
-4.1905
11
5.43595
21
-4.19076
0
LINE
8
BLACK
6
CONTINUOUS
10
5.43595
20
-4.19076
11
5.4357
21
-4.19067
0
LINE
8
BLACK
6
CONTINUOUS
10
5.4357
20
-4.19067
11
5.43543
21
-4.19072
0
LINE
8
BLACK
6
CONTINUOUS
10
5.43543
20
-4.19072
11
5.43477
21
-4.19034
0
LINE
8
BLACK
6
CONTINUOUS
10
5.43477
20
-4.19034
11
5.43405
21
-4.19008
0
LINE
8
BLACK
6
CONTINUOUS
10
5.43405
20
-4.19008
11
5.43391
21
-4.18984
0
LINE
8
BLACK
6
CONTINUOUS
10
5.43391
20
-4.18984
11
5.43368
21
-4.18971
0
LINE
8
BLACK
6
CONTINUOUS
10
5.43368
20
-4.18971
11
5.43342
21
-4.18899
0
LINE
8
BLACK
6
CONTINUOUS
10
5.43342
20
-4.18899
11
5.43303
21
-4.18834
0
LINE
8
BLACK
6
CONTINUOUS
10
5.43303
20
-4.18834
11
5.43308
21
-4.18807
0
LINE
8
BLACK
6
CONTINUOUS
10
5.43308
20
-4.18807
11
5.43299
21
-4.18781
0
LINE
8
BLACK
6
CONTINUOUS
10
5.43299
20
-4.18781
11
5.43299
21
-4.14844
0
LINE
8
BLACK
6
CONTINUOUS
10
5.43299
20
-4.14844
11
5.43316
21
-4.14743
0
LINE
8
BLACK
6
CONTINUOUS
10
5.43316
20
-4.14743
11
5.43446
21
-4.14588
0
LINE
8
BLACK
6
CONTINUOUS
10
5.43446
20
-4.14588
11
5.43645
21
-4.14553
0
LINE
8
BLACK
6
CONTINUOUS
10
5.43645
20
-4.14553
11
5.4382
21
-4.14654
0
LINE
8
BLACK
6
CONTINUOUS
10
5.4382
20
-4.14654
11
5.43889
21
-4.14844
0
LINE
8
BLACK
6
CONTINUOUS
10
5.43889
20
-4.14844
11
5.43889
21
-4.17669
0
LINE
8
BLACK
6
CONTINUOUS
10
5.43889
20
-4.17669
11
5.45587
21
-4.14698
0
LINE
8
BLACK
6
CONTINUOUS
10
5.45587
20
-4.14698
11
5.45653
21
-4.14619
0
LINE
8
BLACK
6
CONTINUOUS
10
5.45653
20
-4.14619
11
5.45678
21
-4.14609
0
LINE
8
BLACK
6
CONTINUOUS
10
5.45678
20
-4.14609
11
5.45696
21
-4.14588
0
LINE
8
BLACK
6
CONTINUOUS
10
5.45696
20
-4.14588
11
5.45771
21
-4.14575
0
LINE
8
BLACK
6
CONTINUOUS
10
5.45771
20
-4.14575
11
5.45842
21
-4.14549
0
LINE
8
BLACK
6
CONTINUOUS
10
5.45842
20
-4.14549
11
5.45868
21
-4.14558
0
LINE
8
BLACK
6
CONTINUOUS
10
5.41758
20
-4.14556
11
5.4177
21
-4.14553
0
LINE
8
BLACK
6
CONTINUOUS
10
5.4177
20
-4.14553
11
5.41782
21
-4.1456
0
LINE
8
BLACK
6
CONTINUOUS
10
5.41782
20
-4.1456
11
5.4182
21
-4.14567
0
LINE
8
BLACK
6
CONTINUOUS
10
5.4182
20
-4.14567
11
5.41879
21
-4.14616
0
LINE
8
BLACK
6
CONTINUOUS
10
5.41879
20
-4.14616
11
5.41945
21
-4.14654
0
LINE
8
BLACK
6
CONTINUOUS
10
5.41945
20
-4.14654
11
5.41954
21
-4.14679
0
LINE
8
BLACK
6
CONTINUOUS
10
5.41954
20
-4.14679
11
5.41975
21
-4.14696
0
LINE
8
BLACK
6
CONTINUOUS
10
5.41975
20
-4.14696
11
5.41988
21
-4.14772
0
LINE
8
BLACK
6
CONTINUOUS
10
5.41988
20
-4.14772
11
5.42014
21
-4.14844
0
LINE
8
BLACK
6
CONTINUOUS
10
5.42014
20
-4.14844
11
5.42014
21
-4.18781
0
LINE
8
BLACK
6
CONTINUOUS
10
5.42014
20
-4.18781
11
5.41997
21
-4.18882
0
LINE
8
BLACK
6
CONTINUOUS
10
5.41997
20
-4.18882
11
5.41867
21
-4.19037
0
LINE
8
BLACK
6
CONTINUOUS
10
5.41867
20
-4.19037
11
5.41668
21
-4.19072
0
LINE
8
BLACK
6
CONTINUOUS
10
5.41668
20
-4.19072
11
5.41493
21
-4.18971
0
LINE
8
BLACK
6
CONTINUOUS
10
5.41493
20
-4.18971
11
5.41424
21
-4.18781
0
LINE
8
BLACK
6
CONTINUOUS
10
5.41424
20
-4.18781
11
5.41424
21
-4.17014
0
LINE
8
BLACK
6
CONTINUOUS
10
5.41424
20
-4.17014
11
5.40407
21
-4.17014
0
LINE
8
BLACK
6
CONTINUOUS
10
5.40407
20
-4.17014
11
5.40306
21
-4.16996
0
LINE
8
BLACK
6
CONTINUOUS
10
5.40306
20
-4.16996
11
5.40151
21
-4.16866
0
LINE
8
BLACK
6
CONTINUOUS
10
5.40151
20
-4.16866
11
5.40116
21
-4.16668
0
LINE
8
BLACK
6
CONTINUOUS
10
5.40116
20
-4.16668
11
5.40217
21
-4.16493
0
LINE
8
BLACK
6
CONTINUOUS
10
5.40217
20
-4.16493
11
5.40407
21
-4.16424
0
LINE
8
BLACK
6
CONTINUOUS
10
5.40407
20
-4.16424
11
5.41424
21
-4.16424
0
LINE
8
BLACK
6
CONTINUOUS
10
5.41424
20
-4.16424
11
5.41424
21
-4.15139
0
LINE
8
BLACK
6
CONTINUOUS
10
5.41424
20
-4.15139
11
5.39844
21
-4.15139
0
LINE
8
BLACK
6
CONTINUOUS
10
5.39844
20
-4.15139
11
5.39743
21
-4.15121
0
LINE
8
BLACK
6
CONTINUOUS
10
5.39743
20
-4.15121
11
5.39589
21
-4.14992
0
LINE
8
BLACK
6
CONTINUOUS
10
5.39589
20
-4.14992
11
5.39554
21
-4.14793
0
LINE
8
BLACK
6
CONTINUOUS
10
5.39554
20
-4.14793
11
5.39655
21
-4.14618
0
LINE
8
BLACK
6
CONTINUOUS
10
5.39655
20
-4.14618
11
5.39844
21
-4.14549
0
LINE
8
BLACK
6
CONTINUOUS
10
5.39844
20
-4.14549
11
5.41719
21
-4.14549
0
LINE
8
BLACK
6
CONTINUOUS
10
5.41719
20
-4.14549
11
5.41758
21
-4.14556
0
LINE
8
BLACK
6
CONTINUOUS
10
5.40924
20
-4.136
11
5.40866
21
-4.13461
0
LINE
8
BLACK
6
CONTINUOUS
10
5.40866
20
-4.13461
11
5.40866
21
-4.08539
0
LINE
8
BLACK
6
CONTINUOUS
10
5.40866
20
-4.08539
11
5.40924
21
-4.084
0
LINE
8
BLACK
6
CONTINUOUS
10
5.40924
20
-4.084
11
5.41063
21
-4.08343
0
LINE
8
BLACK
6
CONTINUOUS
10
5.41063
20
-4.08343
11
5.48937
21
-4.08343
0
LINE
8
BLACK
6
CONTINUOUS
10
5.48937
20
-4.08343
11
5.49076
21
-4.084
0
LINE
8
BLACK
6
CONTINUOUS
10
5.49076
20
-4.084
11
5.49134
21
-4.08539
0
LINE
8
BLACK
6
CONTINUOUS
10
5.49134
20
-4.08539
11
5.49134
21
-4.13461
0
LINE
8
BLACK
6
CONTINUOUS
10
5.49134
20
-4.13461
11
5.49076
21
-4.136
0
LINE
8
BLACK
6
CONTINUOUS
10
5.49076
20
-4.136
11
5.48937
21
-4.13657
0
LINE
8
BLACK
6
CONTINUOUS
10
5.48937
20
-4.13657
11
5.41063
21
-4.13657
0
LINE
8
BLACK
6
CONTINUOUS
10
5.41063
20
-4.13657
11
5.40924
21
-4.136
0
LINE
8
BLACK
6
CONTINUOUS
10
5.4126
20
-4.08736
11
5.4126
21
-4.13264
0
LINE
8
BLACK
6
CONTINUOUS
10
5.4126
20
-4.13264
11
5.4874
21
-4.13264
0
LINE
8
BLACK
6
CONTINUOUS
10
5.4874
20
-4.13264
11
5.4874
21
-4.08736
0
LINE
8
BLACK
6
CONTINUOUS
10
5.4874
20
-4.08736
11
5.4126
21
-4.08736
0
LINE
8
BLACK
6
CONTINUOUS
10
5.43342
20
-4.12002
11
5.43296
21
-4.11891
0
LINE
8
BLACK
6
CONTINUOUS
10
5.43296
20
-4.11891
11
5.43342
21
-4.11779
0
LINE
8
BLACK
6
CONTINUOUS
10
5.43342
20
-4.11779
11
5.43453
21
-4.11733
0
LINE
8
BLACK
6
CONTINUOUS
10
5.43453
20
-4.11733
11
5.43858
21
-4.11733
0
LINE
8
BLACK
6
CONTINUOUS
10
5.43858
20
-4.11733
11
5.43858
21
-4.09922
0
LINE
8
BLACK
6
CONTINUOUS
10
5.43858
20
-4.09922
11
5.43864
21
-4.09907
0
LINE
8
BLACK
6
CONTINUOUS
10
5.43864
20
-4.09907
11
5.43861
21
-4.09891
0
LINE
8
BLACK
6
CONTINUOUS
10
5.43861
20
-4.09891
11
5.43887
21
-4.09853
0
LINE
8
BLACK
6
CONTINUOUS
10
5.43887
20
-4.09853
11
5.43904
21
-4.09811
0
LINE
8
BLACK
6
CONTINUOUS
10
5.43904
20
-4.09811
11
5.43919
21
-4.09804
0
LINE
8
BLACK
6
CONTINUOUS
10
5.43919
20
-4.09804
11
5.43928
21
-4.09791
0
LINE
8
BLACK
6
CONTINUOUS
10
5.43928
20
-4.09791
11
5.43973
21
-4.09782
0
LINE
8
BLACK
6
CONTINUOUS
10
5.43973
20
-4.09782
11
5.44016
21
-4.09765
0
LINE
8
BLACK
6
CONTINUOUS
10
5.44016
20
-4.09765
11
5.44031
21
-4.09771
0
LINE
8
BLACK
6
CONTINUOUS
10
5.44031
20
-4.09771
11
5.44047
21
-4.09768
0
LINE
8
BLACK
6
CONTINUOUS
10
5.44047
20
-4.09768
11
5.44085
21
-4.09793
0
LINE
8
BLACK
6
CONTINUOUS
10
5.44085
20
-4.09793
11
5.44127
21
-4.09811
0
LINE
8
BLACK
6
CONTINUOUS
10
5.44127
20
-4.09811
11
5.44133
21
-4.09826
0
LINE
8
BLACK
6
CONTINUOUS
10
5.44133
20
-4.09826
11
5.44147
21
-4.09835
0
LINE
8
BLACK
6
CONTINUOUS
10
5.44147
20
-4.09835
11
5.44326
21
-4.10103
0
LINE
8
BLACK
6
CONTINUOUS
10
5.44326
20
-4.10103
11
5.44484
21
-4.10261
0
LINE
8
BLACK
6
CONTINUOUS
10
5.44484
20
-4.10261
11
5.44649
21
-4.10344
0
LINE
8
BLACK
6
CONTINUOUS
10
5.44649
20
-4.10344
11
5.44728
21
-4.10435
0
LINE
8
BLACK
6
CONTINUOUS
10
5.44728
20
-4.10435
11
5.44719
21
-4.10555
0
LINE
8
BLACK
6
CONTINUOUS
10
5.44719
20
-4.10555
11
5.44628
21
-4.10634
0
LINE
8
BLACK
6
CONTINUOUS
10
5.44628
20
-4.10634
11
5.44508
21
-4.10625
0
LINE
8
BLACK
6
CONTINUOUS
10
5.44508
20
-4.10625
11
5.4432
21
-4.10532
0
LINE
8
BLACK
6
CONTINUOUS
10
5.4432
20
-4.10532
11
5.44303
21
-4.10512
0
LINE
8
BLACK
6
CONTINUOUS
10
5.44303
20
-4.10512
11
5.44279
21
-4.10502
0
LINE
8
BLACK
6
CONTINUOUS
10
5.44279
20
-4.10502
11
5.44173
21
-4.10396
0
LINE
8
BLACK
6
CONTINUOUS
10
5.44173
20
-4.10396
11
5.44173
21
-4.11733
0
LINE
8
BLACK
6
CONTINUOUS
10
5.44173
20
-4.11733
11
5.44578
21
-4.11733
0
LINE
8
BLACK
6
CONTINUOUS
10
5.44578
20
-4.11733
11
5.4469
21
-4.11779
0
LINE
8
BLACK
6
CONTINUOUS
10
5.4469
20
-4.11779
11
5.44736
21
-4.11891
0
LINE
8
BLACK
6
CONTINUOUS
10
5.44736
20
-4.11891
11
5.4469
21
-4.12002
0
LINE
8
BLACK
6
CONTINUOUS
10
5.4469
20
-4.12002
11
5.44578
21
-4.12048
0
LINE
8
BLACK
6
CONTINUOUS
10
5.44578
20
-4.12048
11
5.43453
21
-4.12048
0
LINE
8
BLACK
6
CONTINUOUS
10
5.43453
20
-4.12048
11
5.43342
21
-4.12002
0
LINE
8
BLACK
6
CONTINUOUS
10
5.46564
20
-4.09811
11
5.4661
21
-4.09922
0
LINE
8
BLACK
6
CONTINUOUS
10
5.4661
20
-4.09922
11
5.4661
21
-4.11891
0
LINE
8
BLACK
6
CONTINUOUS
10
5.4661
20
-4.11891
11
5.46564
21
-4.12002
0
LINE
8
BLACK
6
CONTINUOUS
10
5.46564
20
-4.12002
11
5.46453
21
-4.12048
0
LINE
8
BLACK
6
CONTINUOUS
10
5.46453
20
-4.12048
11
5.46342
21
-4.12002
0
LINE
8
BLACK
6
CONTINUOUS
10
5.46342
20
-4.12002
11
5.46295
21
-4.11891
0
LINE
8
BLACK
6
CONTINUOUS
10
5.46295
20
-4.11891
11
5.46295
21
-4.11111
0
LINE
8
BLACK
6
CONTINUOUS
10
5.46295
20
-4.11111
11
5.46066
21
-4.11111
0
LINE
8
BLACK
6
CONTINUOUS
10
5.46066
20
-4.11111
11
5.45457
21
-4.11981
0
LINE
8
BLACK
6
CONTINUOUS
10
5.45457
20
-4.11981
11
5.45355
21
-4.12046
0
LINE
8
BLACK
6
CONTINUOUS
10
5.45355
20
-4.12046
11
5.45238
21
-4.1202
0
LINE
8
BLACK
6
CONTINUOUS
10
5.45238
20
-4.1202
11
5.45173
21
-4.11918
0
LINE
8
BLACK
6
CONTINUOUS
10
5.45173
20
-4.11918
11
5.45199
21
-4.118
0
LINE
8
BLACK
6
CONTINUOUS
10
5.45199
20
-4.118
11
5.45687
21
-4.11104
0
LINE
8
BLACK
6
CONTINUOUS
10
5.45687
20
-4.11104
11
5.45669
21
-4.11097
0
LINE
8
BLACK
6
CONTINUOUS
10
5.45669
20
-4.11097
11
5.45633
21
-4.11094
0
LINE
8
BLACK
6
CONTINUOUS
10
5.45633
20
-4.11094
11
5.45445
21
-4.11
0
LINE
8
BLACK
6
CONTINUOUS
10
5.45445
20
-4.11
11
5.45428
21
-4.10981
0
LINE
8
BLACK
6
CONTINUOUS
10
5.45428
20
-4.10981
11
5.45404
21
-4.10971
0
LINE
8
BLACK
6
CONTINUOUS
10
5.45404
20
-4.10971
11
5.4531
21
-4.10877
0
LINE
8
BLACK
6
CONTINUOUS
10
5.4531
20
-4.10877
11
5.45301
21
-4.10853
0
LINE
8
BLACK
6
CONTINUOUS
10
5.45301
20
-4.10853
11
5.45281
21
-4.10836
0
LINE
8
BLACK
6
CONTINUOUS
10
5.45281
20
-4.10836
11
5.45187
21
-4.10649
0
LINE
8
BLACK
6
CONTINUOUS
10
5.45187
20
-4.10649
11
5.45185
21
-4.10612
0
LINE
8
BLACK
6
CONTINUOUS
10
5.45185
20
-4.10612
11
5.45171
21
-4.10578
0
LINE
8
BLACK
6
CONTINUOUS
10
5.45171
20
-4.10578
11
5.45171
21
-4.10297
0
LINE
8
BLACK
6
CONTINUOUS
10
5.45171
20
-4.10297
11
5.45185
21
-4.10263
0
LINE
8
BLACK
6
CONTINUOUS
10
5.45185
20
-4.10263
11
5.45187
21
-4.10227
0
LINE
8
BLACK
6
CONTINUOUS
10
5.45187
20
-4.10227
11
5.45281
21
-4.10039
0
LINE
8
BLACK
6
CONTINUOUS
10
5.45281
20
-4.10039
11
5.45301
21
-4.10022
0
LINE
8
BLACK
6
CONTINUOUS
10
5.45301
20
-4.10022
11
5.4531
21
-4.09998
0
LINE
8
BLACK
6
CONTINUOUS
10
5.4531
20
-4.09998
11
5.45404
21
-4.09904
0
LINE
8
BLACK
6
CONTINUOUS
10
5.45404
20
-4.09904
11
5.45428
21
-4.09894
0
LINE
8
BLACK
6
CONTINUOUS
10
5.45428
20
-4.09894
11
5.45445
21
-4.09875
0
LINE
8
BLACK
6
CONTINUOUS
10
5.45445
20
-4.09875
11
5.45633
21
-4.09781
0
LINE
8
BLACK
6
CONTINUOUS
10
5.45633
20
-4.09781
11
5.45669
21
-4.09779
0
LINE
8
BLACK
6
CONTINUOUS
10
5.45669
20
-4.09779
11
5.45703
21
-4.09765
0
LINE
8
BLACK
6
CONTINUOUS
10
5.45703
20
-4.09765
11
5.46453
21
-4.09765
0
LINE
8
BLACK
6
CONTINUOUS
10
5.46453
20
-4.09765
11
5.46564
21
-4.09811
0
LINE
8
BLACK
6
CONTINUOUS
10
5.4574
20
-4.10079
11
5.45609
21
-4.10145
0
LINE
8
BLACK
6
CONTINUOUS
10
5.45609
20
-4.10145
11
5.45551
21
-4.10203
0
LINE
8
BLACK
6
CONTINUOUS
10
5.45551
20
-4.10203
11
5.45486
21
-4.10334
0
LINE
8
BLACK
6
CONTINUOUS
10
5.45486
20
-4.10334
11
5.45486
21
-4.10541
0
LINE
8
BLACK
6
CONTINUOUS
10
5.45486
20
-4.10541
11
5.45551
21
-4.10672
0
LINE
8
BLACK
6
CONTINUOUS
10
5.45551
20
-4.10672
11
5.45609
21
-4.1073
0
LINE
8
BLACK
6
CONTINUOUS
10
5.45609
20
-4.1073
11
5.4574
21
-4.10796
0
LINE
8
BLACK
6
CONTINUOUS
10
5.4574
20
-4.10796
11
5.46295
21
-4.10796
0
LINE
8
BLACK
6
CONTINUOUS
10
5.46295
20
-4.10796
11
5.46295
21
-4.10079
0
LINE
8
BLACK
6
CONTINUOUS
10
5.46295
20
-4.10079
11
5.4574
21
-4.10079
0
LINE
8
BLACK
6
CONTINUOUS
10
5.24924
20
-4.136
11
5.24866
21
-4.13461
0
LINE
8
BLACK
6
CONTINUOUS
10
5.24866
20
-4.13461
11
5.24866
21
-4.08539
0
LINE
8
BLACK
6
CONTINUOUS
10
5.24866
20
-4.08539
11
5.24924
21
-4.084
0
LINE
8
BLACK
6
CONTINUOUS
10
5.24924
20
-4.084
11
5.25063
21
-4.08343
0
LINE
8
BLACK
6
CONTINUOUS
10
5.25063
20
-4.08343
11
5.32937
21
-4.08343
0
LINE
8
BLACK
6
CONTINUOUS
10
5.32937
20
-4.08343
11
5.33076
21
-4.084
0
LINE
8
BLACK
6
CONTINUOUS
10
5.33076
20
-4.084
11
5.33134
21
-4.08539
0
LINE
8
BLACK
6
CONTINUOUS
10
5.33134
20
-4.08539
11
5.33134
21
-4.13461
0
LINE
8
BLACK
6
CONTINUOUS
10
5.33134
20
-4.13461
11
5.33076
21
-4.136
0
LINE
8
BLACK
6
CONTINUOUS
10
5.33076
20
-4.136
11
5.32937
21
-4.13657
0
LINE
8
BLACK
6
CONTINUOUS
10
5.32937
20
-4.13657
11
5.25063
21
-4.13657
0
LINE
8
BLACK
6
CONTINUOUS
10
5.25063
20
-4.13657
11
5.24924
21
-4.136
0
LINE
8
BLACK
6
CONTINUOUS
10
5.2526
20
-4.08736
11
5.2526
21
-4.13264
0
LINE
8
BLACK
6
CONTINUOUS
10
5.2526
20
-4.13264
11
5.3274
21
-4.13264
0
LINE
8
BLACK
6
CONTINUOUS
10
5.3274
20
-4.13264
11
5.3274
21
-4.08736
0
LINE
8
BLACK
6
CONTINUOUS
10
5.3274
20
-4.08736
11
5.2526
21
-4.08736
0
LINE
8
BLACK
6
CONTINUOUS
10
5.27342
20
-4.12002
11
5.27296
21
-4.11891
0
LINE
8
BLACK
6
CONTINUOUS
10
5.27296
20
-4.11891
11
5.27342
21
-4.11779
0
LINE
8
BLACK
6
CONTINUOUS
10
5.27342
20
-4.11779
11
5.27453
21
-4.11733
0
LINE
8
BLACK
6
CONTINUOUS
10
5.27453
20
-4.11733
11
5.28292
21
-4.11733
0
LINE
8
BLACK
6
CONTINUOUS
10
5.28292
20
-4.11733
11
5.27436
21
-4.10877
0
LINE
8
BLACK
6
CONTINUOUS
10
5.27436
20
-4.10877
11
5.27422
21
-4.10843
0
LINE
8
BLACK
6
CONTINUOUS
10
5.27422
20
-4.10843
11
5.27398
21
-4.10815
0
LINE
8
BLACK
6
CONTINUOUS
10
5.27398
20
-4.10815
11
5.27304
21
-4.10534
0
LINE
8
BLACK
6
CONTINUOUS
10
5.27304
20
-4.10534
11
5.27306
21
-4.10508
0
LINE
8
BLACK
6
CONTINUOUS
10
5.27306
20
-4.10508
11
5.27296
21
-4.10484
0
LINE
8
BLACK
6
CONTINUOUS
10
5.27296
20
-4.10484
11
5.27296
21
-4.10297
0
LINE
8
BLACK
6
CONTINUOUS
10
5.27296
20
-4.10297
11
5.2731
21
-4.10263
0
LINE
8
BLACK
6
CONTINUOUS
10
5.2731
20
-4.10263
11
5.27312
21
-4.10227
0
LINE
8
BLACK
6
CONTINUOUS
10
5.27312
20
-4.10227
11
5.27406
21
-4.10039
0
LINE
8
BLACK
6
CONTINUOUS
10
5.27406
20
-4.10039
11
5.27426
21
-4.10022
0
LINE
8
BLACK
6
CONTINUOUS
10
5.27426
20
-4.10022
11
5.27436
21
-4.09998
0
LINE
8
BLACK
6
CONTINUOUS
10
5.27436
20
-4.09998
11
5.27529
21
-4.09904
0
LINE
8
BLACK
6
CONTINUOUS
10
5.27529
20
-4.09904
11
5.27553
21
-4.09894
0
LINE
8
BLACK
6
CONTINUOUS
10
5.27553
20
-4.09894
11
5.2757
21
-4.09875
0
LINE
8
BLACK
6
CONTINUOUS
10
5.2757
20
-4.09875
11
5.27758
21
-4.09781
0
LINE
8
BLACK
6
CONTINUOUS
10
5.27758
20
-4.09781
11
5.27794
21
-4.09779
0
LINE
8
BLACK
6
CONTINUOUS
10
5.27794
20
-4.09779
11
5.27828
21
-4.09765
0
LINE
8
BLACK
6
CONTINUOUS
10
5.27828
20
-4.09765
11
5.28297
21
-4.09765
0
LINE
8
BLACK
6
CONTINUOUS
10
5.28297
20
-4.09765
11
5.28331
21
-4.09779
0
LINE
8
BLACK
6
CONTINUOUS
10
5.28331
20
-4.09779
11
5.28367
21
-4.09781
0
LINE
8
BLACK
6
CONTINUOUS
10
5.28367
20
-4.09781
11
5.28555
21
-4.09875
0
LINE
8
BLACK
6
CONTINUOUS
10
5.28555
20
-4.09875
11
5.28572
21
-4.09894
0
LINE
8
BLACK
6
CONTINUOUS
10
5.28572
20
-4.09894
11
5.28596
21
-4.09904
0
LINE
8
BLACK
6
CONTINUOUS
10
5.28596
20
-4.09904
11
5.2869
21
-4.09998
0
LINE
8
BLACK
6
CONTINUOUS
10
5.2869
20
-4.09998
11
5.28736
21
-4.10109
0
LINE
8
BLACK
6
CONTINUOUS
10
5.28736
20
-4.10109
11
5.2869
21
-4.10221
0
LINE
8
BLACK
6
CONTINUOUS
10
5.2869
20
-4.10221
11
5.28578
21
-4.10267
0
LINE
8
BLACK
6
CONTINUOUS
10
5.28578
20
-4.10267
11
5.28467
21
-4.10221
0
LINE
8
BLACK
6
CONTINUOUS
10
5.28467
20
-4.10221
11
5.28391
21
-4.10145
0
LINE
8
BLACK
6
CONTINUOUS
10
5.28391
20
-4.10145
11
5.2826
21
-4.10079
0
LINE
8
BLACK
6
CONTINUOUS
10
5.2826
20
-4.10079
11
5.27865
21
-4.10079
0
LINE
8
BLACK
6
CONTINUOUS
10
5.27865
20
-4.10079
11
5.27734
21
-4.10145
0
LINE
8
BLACK
6
CONTINUOUS
10
5.27734
20
-4.10145
11
5.27676
21
-4.10203
0
LINE
8
BLACK
6
CONTINUOUS
10
5.27676
20
-4.10203
11
5.27611
21
-4.10334
0
LINE
8
BLACK
6
CONTINUOUS
10
5.27611
20
-4.10334
11
5.27611
21
-4.10459
0
LINE
8
BLACK
6
CONTINUOUS
10
5.27611
20
-4.10459
11
5.27685
21
-4.10681
0
LINE
8
BLACK
6
CONTINUOUS
10
5.27685
20
-4.10681
11
5.28783
21
-4.11779
0
LINE
8
BLACK
6
CONTINUOUS
10
5.28783
20
-4.11779
11
5.28829
21
-4.11891
0
LINE
8
BLACK
6
CONTINUOUS
10
5.28829
20
-4.11891
11
5.28783
21
-4.12002
0
LINE
8
BLACK
6
CONTINUOUS
10
5.28783
20
-4.12002
11
5.28672
21
-4.12048
0
LINE
8
BLACK
6
CONTINUOUS
10
5.28672
20
-4.12048
11
5.27453
21
-4.12048
0
LINE
8
BLACK
6
CONTINUOUS
10
5.27453
20
-4.12048
11
5.27342
21
-4.12002
0
LINE
8
BLACK
6
CONTINUOUS
10
5.30564
20
-4.09811
11
5.3061
21
-4.09922
0
LINE
8
BLACK
6
CONTINUOUS
10
5.3061
20
-4.09922
11
5.3061
21
-4.11891
0
LINE
8
BLACK
6
CONTINUOUS
10
5.3061
20
-4.11891
11
5.30564
21
-4.12002
0
LINE
8
BLACK
6
CONTINUOUS
10
5.30564
20
-4.12002
11
5.30453
21
-4.12048
0
LINE
8
BLACK
6
CONTINUOUS
10
5.30453
20
-4.12048
11
5.30342
21
-4.12002
0
LINE
8
BLACK
6
CONTINUOUS
10
5.30342
20
-4.12002
11
5.30295
21
-4.11891
0
LINE
8
BLACK
6
CONTINUOUS
10
5.30295
20
-4.11891
11
5.30295
21
-4.11111
0
LINE
8
BLACK
6
CONTINUOUS
10
5.30295
20
-4.11111
11
5.30066
21
-4.11111
0
LINE
8
BLACK
6
CONTINUOUS
10
5.30066
20
-4.11111
11
5.29457
21
-4.11981
0
LINE
8
BLACK
6
CONTINUOUS
10
5.29457
20
-4.11981
11
5.29355
21
-4.12046
0
LINE
8
BLACK
6
CONTINUOUS
10
5.29355
20
-4.12046
11
5.29238
21
-4.1202
0
LINE
8
BLACK
6
CONTINUOUS
10
5.29238
20
-4.1202
11
5.29173
21
-4.11918
0
LINE
8
BLACK
6
CONTINUOUS
10
5.29173
20
-4.11918
11
5.29199
21
-4.118
0
LINE
8
BLACK
6
CONTINUOUS
10
5.29199
20
-4.118
11
5.29687
21
-4.11104
0
LINE
8
BLACK
6
CONTINUOUS
10
5.29687
20
-4.11104
11
5.29669
21
-4.11097
0
LINE
8
BLACK
6
CONTINUOUS
10
5.29669
20
-4.11097
11
5.29633
21
-4.11094
0
LINE
8
BLACK
6
CONTINUOUS
10
5.29633
20
-4.11094
11
5.29445
21
-4.11
0
LINE
8
BLACK
6
CONTINUOUS
10
5.29445
20
-4.11
11
5.29428
21
-4.10981
0
LINE
8
BLACK
6
CONTINUOUS
10
5.29428
20
-4.10981
11
5.29404
21
-4.10971
0
LINE
8
BLACK
6
CONTINUOUS
10
5.29404
20
-4.10971
11
5.2931
21
-4.10877
0
LINE
8
BLACK
6
CONTINUOUS
10
5.2931
20
-4.10877
11
5.29301
21
-4.10853
0
LINE
8
BLACK
6
CONTINUOUS
10
5.29301
20
-4.10853
11
5.29281
21
-4.10836
0
LINE
8
BLACK
6
CONTINUOUS
10
5.29281
20
-4.10836
11
5.29187
21
-4.10649
0
LINE
8
BLACK
6
CONTINUOUS
10
5.29187
20
-4.10649
11
5.29185
21
-4.10612
0
LINE
8
BLACK
6
CONTINUOUS
10
5.29185
20
-4.10612
11
5.29171
21
-4.10578
0
LINE
8
BLACK
6
CONTINUOUS
10
5.29171
20
-4.10578
11
5.29171
21
-4.10297
0
LINE
8
BLACK
6
CONTINUOUS
10
5.29171
20
-4.10297
11
5.29185
21
-4.10263
0
LINE
8
BLACK
6
CONTINUOUS
10
5.29185
20
-4.10263
11
5.29187
21
-4.10227
0
LINE
8
BLACK
6
CONTINUOUS
10
5.29187
20
-4.10227
11
5.29281
21
-4.10039
0
LINE
8
BLACK
6
CONTINUOUS
10
5.29281
20
-4.10039
11
5.29301
21
-4.10022
0
LINE
8
BLACK
6
CONTINUOUS
10
5.29301
20
-4.10022
11
5.2931
21
-4.09998
0
LINE
8
BLACK
6
CONTINUOUS
10
5.2931
20
-4.09998
11
5.29404
21
-4.09904
0
LINE
8
BLACK
6
CONTINUOUS
10
5.29404
20
-4.09904
11
5.29428
21
-4.09894
0
LINE
8
BLACK
6
CONTINUOUS
10
5.29428
20
-4.09894
11
5.29445
21
-4.09875
0
LINE
8
BLACK
6
CONTINUOUS
10
5.29445
20
-4.09875
11
5.29633
21
-4.09781
0
LINE
8
BLACK
6
CONTINUOUS
10
5.29633
20
-4.09781
11
5.29669
21
-4.09779
0
LINE
8
BLACK
6
CONTINUOUS
10
5.29669
20
-4.09779
11
5.29703
21
-4.09765
0
LINE
8
BLACK
6
CONTINUOUS
10
5.29703
20
-4.09765
11
5.30453
21
-4.09765
0
LINE
8
BLACK
6
CONTINUOUS
10
5.30453
20
-4.09765
11
5.30564
21
-4.09811
0
LINE
8
BLACK
6
CONTINUOUS
10
5.2974
20
-4.10079
11
5.29609
21
-4.10145
0
LINE
8
BLACK
6
CONTINUOUS
10
5.29609
20
-4.10145
11
5.29551
21
-4.10203
0
LINE
8
BLACK
6
CONTINUOUS
10
5.29551
20
-4.10203
11
5.29486
21
-4.10334
0
LINE
8
BLACK
6
CONTINUOUS
10
5.29486
20
-4.10334
11
5.29486
21
-4.10541
0
LINE
8
BLACK
6
CONTINUOUS
10
5.29486
20
-4.10541
11
5.29551
21
-4.10672
0
LINE
8
BLACK
6
CONTINUOUS
10
5.29551
20
-4.10672
11
5.29609
21
-4.1073
0
LINE
8
BLACK
6
CONTINUOUS
10
5.29609
20
-4.1073
11
5.2974
21
-4.10796
0
LINE
8
BLACK
6
CONTINUOUS
10
5.2974
20
-4.10796
11
5.30295
21
-4.10796
0
LINE
8
BLACK
6
CONTINUOUS
10
5.30295
20
-4.10796
11
5.30295
21
-4.10079
0
LINE
8
BLACK
6
CONTINUOUS
10
5.30295
20
-4.10079
11
5.2974
21
-4.10079
  0
ENDSEC
  0
EOF
