  0
SECTION
  2
HEADER
  9
$ANGBASE
  50
0.0
  9
$ANGDIR
  70
1
  9
$MEASUREMENT
  70
0
  0
ENDSEC
  0
SECTION
  2
TABLES
  0
TABLE
  2
LTYPE
  70
4
  0
LTYPE
  5
40F
  2
CONTINUOUS
  70
0
  3
Solid line
  72
65
  73
0
  40
0.0
  0
LTYPE
  5
410
  2
DASHDOT
 70
0
  3
Dash Dot ____ _ ____ _
 72
65
 73
4
 40
2.0
 49
1.25
 49
-0.25
 49
0.25
 49
-0.25
  0
LTYPE
  5
411
  2
DASHED
 70
0
  3
Dashed __ __ __ __ __
 72
65
 73
2
 40
0.75
 49
0.5
 49
-0.25
  0
LTYPE
  5
43B
  2
DOTTED
 70
0
  3
Dotted .  .  .  .
 72
65
 73
2
 40
0.2
 49
0.0
 49
-0.2
  0
ENDTAB
  0
TABLE
  2
STYLE
  70
4
  0
STYLE
  2
KICAD
  70
0
  40
0
  41
1
  42
1
  50
0
  71
0
  3
isocp.shx
  0
STYLE
  2
KICADB
  70
0
  40
0
  41
1
  42
1
  50
0
  71
0
  3
isocp.shx
  0
STYLE
  2
KICADI
  70
0
  40
0
  41
1
  42
1
  50
15
  71
0
  3
isocp.shx
  0
STYLE
  2
KICADBI
  70
0
  40
0
  41
1
  42
1
  50
15
  71
0
  3
isocp.shx
  0
ENDTAB
  0
TABLE
  2
LAYER
  70
1
  0
LAYER
  2
BLACK
  70
0
  62
7
  6
CONTINUOUS
  0
ENDTAB
  0
ENDSEC
  0
SECTION
  2
ENTITIES
0
LINE
8
BLACK
6
CONTINUOUS
10
5.44098
20
-4.53369
11
5.44112
21
-4.5338
0
LINE
8
BLACK
6
CONTINUOUS
10
5.44112
20
-4.5338
11
5.44129
21
-4.53382
0
LINE
8
BLACK
6
CONTINUOUS
10
5.44129
20
-4.53382
11
5.44201
21
-4.53418
0
LINE
8
BLACK
6
CONTINUOUS
10
5.44201
20
-4.53418
11
5.44224
21
-4.53391
0
LINE
8
BLACK
6
CONTINUOUS
10
5.44224
20
-4.53391
11
5.44423
21
-4.53355
0
LINE
8
BLACK
6
CONTINUOUS
10
5.44423
20
-4.53355
11
5.44598
21
-4.53456
0
LINE
8
BLACK
6
CONTINUOUS
10
5.44598
20
-4.53456
11
5.44667
21
-4.53646
0
LINE
8
BLACK
6
CONTINUOUS
10
5.44667
20
-4.53646
11
5.44667
21
-4.56833
0
LINE
8
BLACK
6
CONTINUOUS
10
5.44667
20
-4.56833
11
5.44649
21
-4.56934
0
LINE
8
BLACK
6
CONTINUOUS
10
5.44649
20
-4.56934
11
5.44638
21
-4.56948
0
LINE
8
BLACK
6
CONTINUOUS
10
5.44638
20
-4.56948
11
5.44636
21
-4.56965
0
LINE
8
BLACK
6
CONTINUOUS
10
5.44636
20
-4.56965
11
5.44449
21
-4.5734
0
LINE
8
BLACK
6
CONTINUOUS
10
5.44449
20
-4.5734
11
5.44396
21
-4.57411
0
LINE
8
BLACK
6
CONTINUOUS
10
5.44396
20
-4.57411
11
5.44393
21
-4.57417
0
LINE
8
BLACK
6
CONTINUOUS
10
5.44393
20
-4.57417
11
5.44206
21
-4.57605
0
LINE
8
BLACK
6
CONTINUOUS
10
5.44206
20
-4.57605
11
5.44133
21
-4.57655
0
LINE
8
BLACK
6
CONTINUOUS
10
5.44133
20
-4.57655
11
5.44129
21
-4.5766
0
LINE
8
BLACK
6
CONTINUOUS
10
5.44129
20
-4.5766
11
5.43754
21
-4.57847
0
LINE
8
BLACK
6
CONTINUOUS
10
5.43754
20
-4.57847
11
5.43656
21
-4.57877
0
LINE
8
BLACK
6
CONTINUOUS
10
5.43656
20
-4.57877
11
5.43639
21
-4.57873
0
LINE
8
BLACK
6
CONTINUOUS
10
5.43639
20
-4.57873
11
5.43622
21
-4.57879
0
LINE
8
BLACK
6
CONTINUOUS
10
5.43622
20
-4.57879
11
5.4306
21
-4.57879
0
LINE
8
BLACK
6
CONTINUOUS
10
5.4306
20
-4.57879
11
5.42959
21
-4.57861
0
LINE
8
BLACK
6
CONTINUOUS
10
5.42959
20
-4.57861
11
5.42945
21
-4.57849
0
LINE
8
BLACK
6
CONTINUOUS
10
5.42945
20
-4.57849
11
5.42928
21
-4.57847
0
LINE
8
BLACK
6
CONTINUOUS
10
5.42928
20
-4.57847
11
5.42553
21
-4.5766
0
LINE
8
BLACK
6
CONTINUOUS
10
5.42553
20
-4.5766
11
5.4247
21
-4.57599
0
LINE
8
BLACK
6
CONTINUOUS
10
5.4247
20
-4.57599
11
5.4239
21
-4.57413
0
LINE
8
BLACK
6
CONTINUOUS
10
5.4239
20
-4.57413
11
5.42448
21
-4.5722
0
LINE
8
BLACK
6
CONTINUOUS
10
5.42448
20
-4.5722
11
5.42616
21
-4.57109
0
LINE
8
BLACK
6
CONTINUOUS
10
5.42616
20
-4.57109
11
5.42817
21
-4.57132
0
LINE
8
BLACK
6
CONTINUOUS
10
5.42817
20
-4.57132
11
5.43129
21
-4.57288
0
LINE
8
BLACK
6
CONTINUOUS
10
5.43129
20
-4.57288
11
5.43552
21
-4.57288
0
LINE
8
BLACK
6
CONTINUOUS
10
5.43552
20
-4.57288
11
5.43822
21
-4.57153
0
LINE
8
BLACK
6
CONTINUOUS
10
5.43822
20
-4.57153
11
5.43942
21
-4.57033
0
LINE
8
BLACK
6
CONTINUOUS
10
5.43942
20
-4.57033
11
5.44077
21
-4.56764
0
LINE
8
BLACK
6
CONTINUOUS
10
5.44077
20
-4.56764
11
5.44077
21
-4.56551
0
LINE
8
BLACK
6
CONTINUOUS
10
5.44077
20
-4.56551
11
5.44031
21
-4.56564
0
LINE
8
BLACK
6
CONTINUOUS
10
5.44031
20
-4.56564
11
5.44014
21
-4.5656
0
LINE
8
BLACK
6
CONTINUOUS
10
5.44014
20
-4.5656
11
5.43997
21
-4.56566
0
LINE
8
BLACK
6
CONTINUOUS
10
5.43997
20
-4.56566
11
5.43247
21
-4.56566
0
LINE
8
BLACK
6
CONTINUOUS
10
5.43247
20
-4.56566
11
5.43146
21
-4.56548
0
LINE
8
BLACK
6
CONTINUOUS
10
5.43146
20
-4.56548
11
5.43133
21
-4.56537
0
LINE
8
BLACK
6
CONTINUOUS
10
5.43133
20
-4.56537
11
5.43115
21
-4.56535
0
LINE
8
BLACK
6
CONTINUOUS
10
5.43115
20
-4.56535
11
5.4274
21
-4.56348
0
LINE
8
BLACK
6
CONTINUOUS
10
5.4274
20
-4.56348
11
5.42669
21
-4.56295
0
LINE
8
BLACK
6
CONTINUOUS
10
5.42669
20
-4.56295
11
5.42663
21
-4.56292
0
LINE
8
BLACK
6
CONTINUOUS
10
5.42663
20
-4.56292
11
5.42476
21
-4.56105
0
LINE
8
BLACK
6
CONTINUOUS
10
5.42476
20
-4.56105
11
5.42425
21
-4.56032
0
LINE
8
BLACK
6
CONTINUOUS
10
5.42425
20
-4.56032
11
5.42421
21
-4.56028
0
LINE
8
BLACK
6
CONTINUOUS
10
5.42421
20
-4.56028
11
5.42233
21
-4.55653
0
LINE
8
BLACK
6
CONTINUOUS
10
5.42233
20
-4.55653
11
5.42204
21
-4.55555
0
LINE
8
BLACK
6
CONTINUOUS
10
5.42204
20
-4.55555
11
5.42208
21
-4.55538
0
LINE
8
BLACK
6
CONTINUOUS
10
5.42208
20
-4.55538
11
5.42202
21
-4.55521
0
LINE
8
BLACK
6
CONTINUOUS
10
5.42202
20
-4.55521
11
5.42202
21
-4.54396
0
LINE
8
BLACK
6
CONTINUOUS
10
5.42202
20
-4.54396
11
5.4222
21
-4.54295
0
LINE
8
BLACK
6
CONTINUOUS
10
5.4222
20
-4.54295
11
5.42231
21
-4.54282
0
LINE
8
BLACK
6
CONTINUOUS
10
5.42231
20
-4.54282
11
5.42233
21
-4.54264
0
LINE
8
BLACK
6
CONTINUOUS
10
5.42233
20
-4.54264
11
5.42421
21
-4.53889
0
LINE
8
BLACK
6
CONTINUOUS
10
5.42421
20
-4.53889
11
5.42473
21
-4.53818
0
LINE
8
BLACK
6
CONTINUOUS
10
5.42473
20
-4.53818
11
5.42476
21
-4.53812
0
LINE
8
BLACK
6
CONTINUOUS
10
5.42476
20
-4.53812
11
5.42663
21
-4.53625
0
LINE
8
BLACK
6
CONTINUOUS
10
5.42663
20
-4.53625
11
5.42736
21
-4.53574
0
LINE
8
BLACK
6
CONTINUOUS
10
5.42736
20
-4.53574
11
5.4274
21
-4.5357
0
LINE
8
BLACK
6
CONTINUOUS
10
5.4274
20
-4.5357
11
5.43115
21
-4.53382
0
LINE
8
BLACK
6
CONTINUOUS
10
5.43115
20
-4.53382
11
5.43213
21
-4.53353
0
LINE
8
BLACK
6
CONTINUOUS
10
5.43213
20
-4.53353
11
5.43231
21
-4.53357
0
LINE
8
BLACK
6
CONTINUOUS
10
5.43231
20
-4.53357
11
5.43247
21
-4.53351
0
LINE
8
BLACK
6
CONTINUOUS
10
5.43247
20
-4.53351
11
5.43997
21
-4.53351
0
LINE
8
BLACK
6
CONTINUOUS
10
5.43997
20
-4.53351
11
5.44098
21
-4.53369
0
LINE
8
BLACK
6
CONTINUOUS
10
5.43047
20
-4.54076
11
5.42927
21
-4.54196
0
LINE
8
BLACK
6
CONTINUOUS
10
5.42927
20
-4.54196
11
5.42792
21
-4.54466
0
LINE
8
BLACK
6
CONTINUOUS
10
5.42792
20
-4.54466
11
5.42792
21
-4.55451
0
LINE
8
BLACK
6
CONTINUOUS
10
5.42792
20
-4.55451
11
5.42927
21
-4.55721
0
LINE
8
BLACK
6
CONTINUOUS
10
5.42927
20
-4.55721
11
5.43047
21
-4.55841
0
LINE
8
BLACK
6
CONTINUOUS
10
5.43047
20
-4.55841
11
5.43317
21
-4.55976
0
LINE
8
BLACK
6
CONTINUOUS
10
5.43317
20
-4.55976
11
5.43927
21
-4.55976
0
LINE
8
BLACK
6
CONTINUOUS
10
5.43927
20
-4.55976
11
5.44077
21
-4.55901
0
LINE
8
BLACK
6
CONTINUOUS
10
5.44077
20
-4.55901
11
5.44077
21
-4.54016
0
LINE
8
BLACK
6
CONTINUOUS
10
5.44077
20
-4.54016
11
5.43927
21
-4.53942
0
LINE
8
BLACK
6
CONTINUOUS
10
5.43927
20
-4.53942
11
5.43317
21
-4.53942
0
LINE
8
BLACK
6
CONTINUOUS
10
5.43317
20
-4.53942
11
5.43047
21
-4.54076
0
LINE
8
BLACK
6
CONTINUOUS
10
5.12977
20
-4.53369
11
5.1299
21
-4.5338
0
LINE
8
BLACK
6
CONTINUOUS
10
5.1299
20
-4.5338
11
5.13008
21
-4.53382
0
LINE
8
BLACK
6
CONTINUOUS
10
5.13008
20
-4.53382
11
5.13383
21
-4.5357
0
LINE
8
BLACK
6
CONTINUOUS
10
5.13383
20
-4.5357
11
5.13454
21
-4.53622
0
LINE
8
BLACK
6
CONTINUOUS
10
5.13454
20
-4.53622
11
5.1346
21
-4.53625
0
LINE
8
BLACK
6
CONTINUOUS
10
5.1346
20
-4.53625
11
5.13647
21
-4.53812
0
LINE
8
BLACK
6
CONTINUOUS
10
5.13647
20
-4.53812
11
5.13698
21
-4.53885
0
LINE
8
BLACK
6
CONTINUOUS
10
5.13698
20
-4.53885
11
5.13702
21
-4.53889
0
LINE
8
BLACK
6
CONTINUOUS
10
5.13702
20
-4.53889
11
5.1389
21
-4.54264
0
LINE
8
BLACK
6
CONTINUOUS
10
5.1389
20
-4.54264
11
5.13919
21
-4.54362
0
LINE
8
BLACK
6
CONTINUOUS
10
5.13919
20
-4.54362
11
5.13915
21
-4.5438
0
LINE
8
BLACK
6
CONTINUOUS
10
5.13915
20
-4.5438
11
5.13921
21
-4.54396
0
LINE
8
BLACK
6
CONTINUOUS
10
5.13921
20
-4.54396
11
5.13921
21
-4.55521
0
LINE
8
BLACK
6
CONTINUOUS
10
5.13921
20
-4.55521
11
5.13903
21
-4.55622
0
LINE
8
BLACK
6
CONTINUOUS
10
5.13903
20
-4.55622
11
5.13892
21
-4.55636
0
LINE
8
BLACK
6
CONTINUOUS
10
5.13892
20
-4.55636
11
5.1389
21
-4.55653
0
LINE
8
BLACK
6
CONTINUOUS
10
5.1389
20
-4.55653
11
5.13702
21
-4.56028
0
LINE
8
BLACK
6
CONTINUOUS
10
5.13702
20
-4.56028
11
5.1365
21
-4.56099
0
LINE
8
BLACK
6
CONTINUOUS
10
5.1365
20
-4.56099
11
5.13647
21
-4.56105
0
LINE
8
BLACK
6
CONTINUOUS
10
5.13647
20
-4.56105
11
5.1346
21
-4.56292
0
LINE
8
BLACK
6
CONTINUOUS
10
5.1346
20
-4.56292
11
5.13387
21
-4.56343
0
LINE
8
BLACK
6
CONTINUOUS
10
5.13387
20
-4.56343
11
5.13383
21
-4.56348
0
LINE
8
BLACK
6
CONTINUOUS
10
5.13383
20
-4.56348
11
5.13008
21
-4.56535
0
LINE
8
BLACK
6
CONTINUOUS
10
5.13008
20
-4.56535
11
5.1291
21
-4.56564
0
LINE
8
BLACK
6
CONTINUOUS
10
5.1291
20
-4.56564
11
5.12892
21
-4.5656
0
LINE
8
BLACK
6
CONTINUOUS
10
5.12892
20
-4.5656
11
5.12876
21
-4.56566
0
LINE
8
BLACK
6
CONTINUOUS
10
5.12876
20
-4.56566
11
5.12126
21
-4.56566
0
LINE
8
BLACK
6
CONTINUOUS
10
5.12126
20
-4.56566
11
5.12046
21
-4.56552
0
LINE
8
BLACK
6
CONTINUOUS
10
5.12046
20
-4.56552
11
5.12046
21
-4.57583
0
LINE
8
BLACK
6
CONTINUOUS
10
5.12046
20
-4.57583
11
5.12028
21
-4.57684
0
LINE
8
BLACK
6
CONTINUOUS
10
5.12028
20
-4.57684
11
5.11899
21
-4.57839
0
LINE
8
BLACK
6
CONTINUOUS
10
5.11899
20
-4.57839
11
5.117
21
-4.57874
0
LINE
8
BLACK
6
CONTINUOUS
10
5.117
20
-4.57874
11
5.11525
21
-4.57773
0
LINE
8
BLACK
6
CONTINUOUS
10
5.11525
20
-4.57773
11
5.11456
21
-4.57583
0
LINE
8
BLACK
6
CONTINUOUS
10
5.11456
20
-4.57583
11
5.11456
21
-4.53646
0
LINE
8
BLACK
6
CONTINUOUS
10
5.11456
20
-4.53646
11
5.11474
21
-4.53545
0
LINE
8
BLACK
6
CONTINUOUS
10
5.11474
20
-4.53545
11
5.11603
21
-4.53391
0
LINE
8
BLACK
6
CONTINUOUS
10
5.11603
20
-4.53391
11
5.11802
21
-4.53355
0
LINE
8
BLACK
6
CONTINUOUS
10
5.11802
20
-4.53355
11
5.11916
21
-4.53421
0
LINE
8
BLACK
6
CONTINUOUS
10
5.11916
20
-4.53421
11
5.11994
21
-4.53382
0
LINE
8
BLACK
6
CONTINUOUS
10
5.11994
20
-4.53382
11
5.12092
21
-4.53353
0
LINE
8
BLACK
6
CONTINUOUS
10
5.12092
20
-4.53353
11
5.12109
21
-4.53357
0
LINE
8
BLACK
6
CONTINUOUS
10
5.12109
20
-4.53357
11
5.12126
21
-4.53351
0
LINE
8
BLACK
6
CONTINUOUS
10
5.12126
20
-4.53351
11
5.12876
21
-4.53351
0
LINE
8
BLACK
6
CONTINUOUS
10
5.12876
20
-4.53351
11
5.12977
21
-4.53369
0
LINE
8
BLACK
6
CONTINUOUS
10
5.12046
20
-4.54016
11
5.12046
21
-4.55901
0
LINE
8
BLACK
6
CONTINUOUS
10
5.12046
20
-4.55901
11
5.12196
21
-4.55976
0
LINE
8
BLACK
6
CONTINUOUS
10
5.12196
20
-4.55976
11
5.12806
21
-4.55976
0
LINE
8
BLACK
6
CONTINUOUS
10
5.12806
20
-4.55976
11
5.13076
21
-4.55841
0
LINE
8
BLACK
6
CONTINUOUS
10
5.13076
20
-4.55841
11
5.13196
21
-4.55721
0
LINE
8
BLACK
6
CONTINUOUS
10
5.13196
20
-4.55721
11
5.13331
21
-4.55451
0
LINE
8
BLACK
6
CONTINUOUS
10
5.13331
20
-4.55451
11
5.13331
21
-4.54466
0
LINE
8
BLACK
6
CONTINUOUS
10
5.13331
20
-4.54466
11
5.13196
21
-4.54196
0
LINE
8
BLACK
6
CONTINUOUS
10
5.13196
20
-4.54196
11
5.13076
21
-4.54076
0
LINE
8
BLACK
6
CONTINUOUS
10
5.13076
20
-4.54076
11
5.12806
21
-4.53942
0
LINE
8
BLACK
6
CONTINUOUS
10
5.12806
20
-4.53942
11
5.12196
21
-4.53942
0
LINE
8
BLACK
6
CONTINUOUS
10
5.12196
20
-4.53942
11
5.12046
21
-4.54016
0
LINE
8
BLACK
6
CONTINUOUS
10
5.23288
20
-4.56368
11
5.23443
21
-4.56498
0
LINE
8
BLACK
6
CONTINUOUS
10
5.23443
20
-4.56498
11
5.23478
21
-4.56697
0
LINE
8
BLACK
6
CONTINUOUS
10
5.23478
20
-4.56697
11
5.23377
21
-4.56872
0
LINE
8
BLACK
6
CONTINUOUS
10
5.23377
20
-4.56872
11
5.23187
21
-4.56941
0
LINE
8
BLACK
6
CONTINUOUS
10
5.23187
20
-4.56941
11
5.20187
21
-4.56941
0
LINE
8
BLACK
6
CONTINUOUS
10
5.20187
20
-4.56941
11
5.20086
21
-4.56923
0
LINE
8
BLACK
6
CONTINUOUS
10
5.20086
20
-4.56923
11
5.19932
21
-4.56794
0
LINE
8
BLACK
6
CONTINUOUS
10
5.19932
20
-4.56794
11
5.19897
21
-4.56595
0
LINE
8
BLACK
6
CONTINUOUS
10
5.19897
20
-4.56595
11
5.19998
21
-4.5642
0
LINE
8
BLACK
6
CONTINUOUS
10
5.19998
20
-4.5642
11
5.20187
21
-4.56351
0
LINE
8
BLACK
6
CONTINUOUS
10
5.20187
20
-4.56351
11
5.23187
21
-4.56351
0
LINE
8
BLACK
6
CONTINUOUS
10
5.23187
20
-4.56351
11
5.23288
21
-4.56368
0
LINE
8
BLACK
6
CONTINUOUS
10
5.30037
20
-4.56368
11
5.30192
21
-4.56498
0
LINE
8
BLACK
6
CONTINUOUS
10
5.30192
20
-4.56498
11
5.30227
21
-4.56697
0
LINE
8
BLACK
6
CONTINUOUS
10
5.30227
20
-4.56697
11
5.30126
21
-4.56872
0
LINE
8
BLACK
6
CONTINUOUS
10
5.30126
20
-4.56872
11
5.29936
21
-4.56941
0
LINE
8
BLACK
6
CONTINUOUS
10
5.29936
20
-4.56941
11
5.26937
21
-4.56941
0
LINE
8
BLACK
6
CONTINUOUS
10
5.26937
20
-4.56941
11
5.26836
21
-4.56923
0
LINE
8
BLACK
6
CONTINUOUS
10
5.26836
20
-4.56923
11
5.26681
21
-4.56794
0
LINE
8
BLACK
6
CONTINUOUS
10
5.26681
20
-4.56794
11
5.26646
21
-4.56595
0
LINE
8
BLACK
6
CONTINUOUS
10
5.26646
20
-4.56595
11
5.26747
21
-4.5642
0
LINE
8
BLACK
6
CONTINUOUS
10
5.26747
20
-4.5642
11
5.26937
21
-4.56351
0
LINE
8
BLACK
6
CONTINUOUS
10
5.26937
20
-4.56351
11
5.29936
21
-4.56351
0
LINE
8
BLACK
6
CONTINUOUS
10
5.29936
20
-4.56351
11
5.30037
21
-4.56368
0
LINE
8
BLACK
6
CONTINUOUS
10
4.82779
20
-4.52054
11
4.82786
21
-4.52054
0
LINE
8
BLACK
6
CONTINUOUS
10
4.82786
20
-4.52054
11
4.83348
21
-4.52241
0
LINE
8
BLACK
6
CONTINUOUS
10
4.83348
20
-4.52241
11
4.83438
21
-4.5229
0
LINE
8
BLACK
6
CONTINUOUS
10
4.83438
20
-4.5229
11
4.83544
21
-4.52462
0
LINE
8
BLACK
6
CONTINUOUS
10
4.83544
20
-4.52462
11
4.83514
21
-4.52662
0
LINE
8
BLACK
6
CONTINUOUS
10
4.83514
20
-4.52662
11
4.83363
21
-4.52796
0
LINE
8
BLACK
6
CONTINUOUS
10
4.83363
20
-4.52796
11
4.83161
21
-4.52802
0
LINE
8
BLACK
6
CONTINUOUS
10
4.83161
20
-4.52802
11
4.82644
21
-4.52629
0
LINE
8
BLACK
6
CONTINUOUS
10
4.82644
20
-4.52629
11
4.81824
21
-4.52629
0
LINE
8
BLACK
6
CONTINUOUS
10
4.81824
20
-4.52629
11
4.81555
21
-4.52764
0
LINE
8
BLACK
6
CONTINUOUS
10
4.81555
20
-4.52764
11
4.81435
21
-4.52884
0
LINE
8
BLACK
6
CONTINUOUS
10
4.81435
20
-4.52884
11
4.813
21
-4.53154
0
LINE
8
BLACK
6
CONTINUOUS
10
4.813
20
-4.53154
11
4.813
21
-4.53389
0
LINE
8
BLACK
6
CONTINUOUS
10
4.813
20
-4.53389
11
4.81435
21
-4.53659
0
LINE
8
BLACK
6
CONTINUOUS
10
4.81435
20
-4.53659
11
4.81555
21
-4.53779
0
LINE
8
BLACK
6
CONTINUOUS
10
4.81555
20
-4.53779
11
4.81858
21
-4.5393
0
LINE
8
BLACK
6
CONTINUOUS
10
4.81858
20
-4.5393
11
4.82576
21
-4.5411
0
LINE
8
BLACK
6
CONTINUOUS
10
4.82576
20
-4.5411
11
4.82623
21
-4.5413
0
LINE
8
BLACK
6
CONTINUOUS
10
4.82623
20
-4.5413
11
4.82637
21
-4.54132
0
LINE
8
BLACK
6
CONTINUOUS
10
4.82637
20
-4.54132
11
4.83012
21
-4.5432
0
LINE
8
BLACK
6
CONTINUOUS
10
4.83012
20
-4.5432
11
4.83083
21
-4.54372
0
LINE
8
BLACK
6
CONTINUOUS
10
4.83083
20
-4.54372
11
4.83088
21
-4.54375
0
LINE
8
BLACK
6
CONTINUOUS
10
4.83088
20
-4.54375
11
4.83276
21
-4.54562
0
LINE
8
BLACK
6
CONTINUOUS
10
4.83276
20
-4.54562
11
4.83327
21
-4.54635
0
LINE
8
BLACK
6
CONTINUOUS
10
4.83327
20
-4.54635
11
4.83331
21
-4.54639
0
LINE
8
BLACK
6
CONTINUOUS
10
4.83331
20
-4.54639
11
4.83519
21
-4.55014
0
LINE
8
BLACK
6
CONTINUOUS
10
4.83519
20
-4.55014
11
4.83548
21
-4.55112
0
LINE
8
BLACK
6
CONTINUOUS
10
4.83548
20
-4.55112
11
4.83544
21
-4.55129
0
LINE
8
BLACK
6
CONTINUOUS
10
4.83544
20
-4.55129
11
4.8355
21
-4.55146
0
LINE
8
BLACK
6
CONTINUOUS
10
4.8355
20
-4.55146
11
4.8355
21
-4.55521
0
LINE
8
BLACK
6
CONTINUOUS
10
4.8355
20
-4.55521
11
4.83532
21
-4.55622
0
LINE
8
BLACK
6
CONTINUOUS
10
4.83532
20
-4.55622
11
4.83521
21
-4.55636
0
LINE
8
BLACK
6
CONTINUOUS
10
4.83521
20
-4.55636
11
4.83519
21
-4.55653
0
LINE
8
BLACK
6
CONTINUOUS
10
4.83519
20
-4.55653
11
4.83331
21
-4.56028
0
LINE
8
BLACK
6
CONTINUOUS
10
4.83331
20
-4.56028
11
4.83279
21
-4.56099
0
LINE
8
BLACK
6
CONTINUOUS
10
4.83279
20
-4.56099
11
4.83276
21
-4.56105
0
LINE
8
BLACK
6
CONTINUOUS
10
4.83276
20
-4.56105
11
4.83088
21
-4.56292
0
LINE
8
BLACK
6
CONTINUOUS
10
4.83088
20
-4.56292
11
4.83016
21
-4.56343
0
LINE
8
BLACK
6
CONTINUOUS
10
4.83016
20
-4.56343
11
4.83012
21
-4.56348
0
LINE
8
BLACK
6
CONTINUOUS
10
4.83012
20
-4.56348
11
4.82637
21
-4.56535
0
LINE
8
BLACK
6
CONTINUOUS
10
4.82637
20
-4.56535
11
4.82538
21
-4.56564
0
LINE
8
BLACK
6
CONTINUOUS
10
4.82538
20
-4.56564
11
4.82521
21
-4.5656
0
LINE
8
BLACK
6
CONTINUOUS
10
4.82521
20
-4.5656
11
4.82505
21
-4.56566
0
LINE
8
BLACK
6
CONTINUOUS
10
4.82505
20
-4.56566
11
4.81567
21
-4.56566
0
LINE
8
BLACK
6
CONTINUOUS
10
4.81567
20
-4.56566
11
4.8148
21
-4.56551
0
LINE
8
BLACK
6
CONTINUOUS
10
4.8148
20
-4.56551
11
4.81474
21
-4.56551
0
LINE
8
BLACK
6
CONTINUOUS
10
4.81474
20
-4.56551
11
4.80911
21
-4.56364
0
LINE
8
BLACK
6
CONTINUOUS
10
4.80911
20
-4.56364
11
4.80821
21
-4.56315
0
LINE
8
BLACK
6
CONTINUOUS
10
4.80821
20
-4.56315
11
4.80716
21
-4.56143
0
LINE
8
BLACK
6
CONTINUOUS
10
4.80716
20
-4.56143
11
4.80745
21
-4.55943
0
LINE
8
BLACK
6
CONTINUOUS
10
4.80745
20
-4.55943
11
4.80896
21
-4.55809
0
LINE
8
BLACK
6
CONTINUOUS
10
4.80896
20
-4.55809
11
4.81098
21
-4.55803
0
LINE
8
BLACK
6
CONTINUOUS
10
4.81098
20
-4.55803
11
4.81615
21
-4.55976
0
LINE
8
BLACK
6
CONTINUOUS
10
4.81615
20
-4.55976
11
4.82435
21
-4.55976
0
LINE
8
BLACK
6
CONTINUOUS
10
4.82435
20
-4.55976
11
4.82705
21
-4.55841
0
LINE
8
BLACK
6
CONTINUOUS
10
4.82705
20
-4.55841
11
4.82824
21
-4.55721
0
LINE
8
BLACK
6
CONTINUOUS
10
4.82824
20
-4.55721
11
4.82959
21
-4.55451
0
LINE
8
BLACK
6
CONTINUOUS
10
4.82959
20
-4.55451
11
4.82959
21
-4.55216
0
LINE
8
BLACK
6
CONTINUOUS
10
4.82959
20
-4.55216
11
4.82824
21
-4.54946
0
LINE
8
BLACK
6
CONTINUOUS
10
4.82824
20
-4.54946
11
4.82705
21
-4.54826
0
LINE
8
BLACK
6
CONTINUOUS
10
4.82705
20
-4.54826
11
4.82402
21
-4.54675
0
LINE
8
BLACK
6
CONTINUOUS
10
4.82402
20
-4.54675
11
4.81683
21
-4.54495
0
LINE
8
BLACK
6
CONTINUOUS
10
4.81683
20
-4.54495
11
4.81637
21
-4.54474
0
LINE
8
BLACK
6
CONTINUOUS
10
4.81637
20
-4.54474
11
4.81623
21
-4.54473
0
LINE
8
BLACK
6
CONTINUOUS
10
4.81623
20
-4.54473
11
4.81248
21
-4.54285
0
LINE
8
BLACK
6
CONTINUOUS
10
4.81248
20
-4.54285
11
4.81177
21
-4.54233
0
LINE
8
BLACK
6
CONTINUOUS
10
4.81177
20
-4.54233
11
4.81171
21
-4.5423
0
LINE
8
BLACK
6
CONTINUOUS
10
4.81171
20
-4.5423
11
4.80984
21
-4.54043
0
LINE
8
BLACK
6
CONTINUOUS
10
4.80984
20
-4.54043
11
4.80933
21
-4.5397
0
LINE
8
BLACK
6
CONTINUOUS
10
4.80933
20
-4.5397
11
4.80928
21
-4.53966
0
LINE
8
BLACK
6
CONTINUOUS
10
4.80928
20
-4.53966
11
4.80741
21
-4.53591
0
LINE
8
BLACK
6
CONTINUOUS
10
4.80741
20
-4.53591
11
4.80712
21
-4.53493
0
LINE
8
BLACK
6
CONTINUOUS
10
4.80712
20
-4.53493
11
4.80716
21
-4.53475
0
LINE
8
BLACK
6
CONTINUOUS
10
4.80716
20
-4.53475
11
4.8071
21
-4.53459
0
LINE
8
BLACK
6
CONTINUOUS
10
4.8071
20
-4.53459
11
4.8071
21
-4.53084
0
LINE
8
BLACK
6
CONTINUOUS
10
4.8071
20
-4.53084
11
4.80727
21
-4.52983
0
LINE
8
BLACK
6
CONTINUOUS
10
4.80727
20
-4.52983
11
4.80739
21
-4.52969
0
LINE
8
BLACK
6
CONTINUOUS
10
4.80739
20
-4.52969
11
4.80741
21
-4.52952
0
LINE
8
BLACK
6
CONTINUOUS
10
4.80741
20
-4.52952
11
4.80928
21
-4.52577
0
LINE
8
BLACK
6
CONTINUOUS
10
4.80928
20
-4.52577
11
4.80981
21
-4.52506
0
LINE
8
BLACK
6
CONTINUOUS
10
4.80981
20
-4.52506
11
4.80984
21
-4.525
0
LINE
8
BLACK
6
CONTINUOUS
10
4.80984
20
-4.525
11
4.81171
21
-4.52313
0
LINE
8
BLACK
6
CONTINUOUS
10
4.81171
20
-4.52313
11
4.81243
21
-4.52262
0
LINE
8
BLACK
6
CONTINUOUS
10
4.81243
20
-4.52262
11
4.81248
21
-4.52257
0
LINE
8
BLACK
6
CONTINUOUS
10
4.81248
20
-4.52257
11
4.81623
21
-4.5207
0
LINE
8
BLACK
6
CONTINUOUS
10
4.81623
20
-4.5207
11
4.81721
21
-4.52041
0
LINE
8
BLACK
6
CONTINUOUS
10
4.81721
20
-4.52041
11
4.81738
21
-4.52045
0
LINE
8
BLACK
6
CONTINUOUS
10
4.81738
20
-4.52045
11
4.81755
21
-4.52039
0
LINE
8
BLACK
6
CONTINUOUS
10
4.81755
20
-4.52039
11
4.82692
21
-4.52039
0
LINE
8
BLACK
6
CONTINUOUS
10
4.82692
20
-4.52039
11
4.82779
21
-4.52054
0
LINE
8
BLACK
6
CONTINUOUS
10
4.86168
20
-4.53369
11
4.86181
21
-4.5338
0
LINE
8
BLACK
6
CONTINUOUS
10
4.86181
20
-4.5338
11
4.86199
21
-4.53382
0
LINE
8
BLACK
6
CONTINUOUS
10
4.86199
20
-4.53382
11
4.86574
21
-4.5357
0
LINE
8
BLACK
6
CONTINUOUS
10
4.86574
20
-4.5357
11
4.86645
21
-4.53622
0
LINE
8
BLACK
6
CONTINUOUS
10
4.86645
20
-4.53622
11
4.8665
21
-4.53625
0
LINE
8
BLACK
6
CONTINUOUS
10
4.8665
20
-4.53625
11
4.86838
21
-4.53812
0
LINE
8
BLACK
6
CONTINUOUS
10
4.86838
20
-4.53812
11
4.86889
21
-4.53885
0
LINE
8
BLACK
6
CONTINUOUS
10
4.86889
20
-4.53885
11
4.86893
21
-4.53889
0
LINE
8
BLACK
6
CONTINUOUS
10
4.86893
20
-4.53889
11
4.87081
21
-4.54264
0
LINE
8
BLACK
6
CONTINUOUS
10
4.87081
20
-4.54264
11
4.8711
21
-4.54362
0
LINE
8
BLACK
6
CONTINUOUS
10
4.8711
20
-4.54362
11
4.87106
21
-4.5438
0
LINE
8
BLACK
6
CONTINUOUS
10
4.87106
20
-4.5438
11
4.87112
21
-4.54396
0
LINE
8
BLACK
6
CONTINUOUS
10
4.87112
20
-4.54396
11
4.87112
21
-4.55521
0
LINE
8
BLACK
6
CONTINUOUS
10
4.87112
20
-4.55521
11
4.87094
21
-4.55622
0
LINE
8
BLACK
6
CONTINUOUS
10
4.87094
20
-4.55622
11
4.87083
21
-4.55636
0
LINE
8
BLACK
6
CONTINUOUS
10
4.87083
20
-4.55636
11
4.87081
21
-4.55653
0
LINE
8
BLACK
6
CONTINUOUS
10
4.87081
20
-4.55653
11
4.86893
21
-4.56028
0
LINE
8
BLACK
6
CONTINUOUS
10
4.86893
20
-4.56028
11
4.86841
21
-4.56099
0
LINE
8
BLACK
6
CONTINUOUS
10
4.86841
20
-4.56099
11
4.86838
21
-4.56105
0
LINE
8
BLACK
6
CONTINUOUS
10
4.86838
20
-4.56105
11
4.8665
21
-4.56292
0
LINE
8
BLACK
6
CONTINUOUS
10
4.8665
20
-4.56292
11
4.86578
21
-4.56343
0
LINE
8
BLACK
6
CONTINUOUS
10
4.86578
20
-4.56343
11
4.86574
21
-4.56348
0
LINE
8
BLACK
6
CONTINUOUS
10
4.86574
20
-4.56348
11
4.86199
21
-4.56535
0
LINE
8
BLACK
6
CONTINUOUS
10
4.86199
20
-4.56535
11
4.861
21
-4.56564
0
LINE
8
BLACK
6
CONTINUOUS
10
4.861
20
-4.56564
11
4.86083
21
-4.5656
0
LINE
8
BLACK
6
CONTINUOUS
10
4.86083
20
-4.5656
11
4.86067
21
-4.56566
0
LINE
8
BLACK
6
CONTINUOUS
10
4.86067
20
-4.56566
11
4.85504
21
-4.56566
0
LINE
8
BLACK
6
CONTINUOUS
10
4.85504
20
-4.56566
11
4.85403
21
-4.56548
0
LINE
8
BLACK
6
CONTINUOUS
10
4.85403
20
-4.56548
11
4.8539
21
-4.56537
0
LINE
8
BLACK
6
CONTINUOUS
10
4.8539
20
-4.56537
11
4.85372
21
-4.56535
0
LINE
8
BLACK
6
CONTINUOUS
10
4.85372
20
-4.56535
11
4.84997
21
-4.56348
0
LINE
8
BLACK
6
CONTINUOUS
10
4.84997
20
-4.56348
11
4.84926
21
-4.56295
0
LINE
8
BLACK
6
CONTINUOUS
10
4.84926
20
-4.56295
11
4.84921
21
-4.56292
0
LINE
8
BLACK
6
CONTINUOUS
10
4.84921
20
-4.56292
11
4.84733
21
-4.56105
0
LINE
8
BLACK
6
CONTINUOUS
10
4.84733
20
-4.56105
11
4.84682
21
-4.56032
0
LINE
8
BLACK
6
CONTINUOUS
10
4.84682
20
-4.56032
11
4.84678
21
-4.56028
0
LINE
8
BLACK
6
CONTINUOUS
10
4.84678
20
-4.56028
11
4.8449
21
-4.55653
0
LINE
8
BLACK
6
CONTINUOUS
10
4.8449
20
-4.55653
11
4.84461
21
-4.55555
0
LINE
8
BLACK
6
CONTINUOUS
10
4.84461
20
-4.55555
11
4.84465
21
-4.55538
0
LINE
8
BLACK
6
CONTINUOUS
10
4.84465
20
-4.55538
11
4.84459
21
-4.55521
0
LINE
8
BLACK
6
CONTINUOUS
10
4.84459
20
-4.55521
11
4.84459
21
-4.54396
0
LINE
8
BLACK
6
CONTINUOUS
10
4.84459
20
-4.54396
11
4.84477
21
-4.54295
0
LINE
8
BLACK
6
CONTINUOUS
10
4.84477
20
-4.54295
11
4.84488
21
-4.54282
0
LINE
8
BLACK
6
CONTINUOUS
10
4.84488
20
-4.54282
11
4.8449
21
-4.54264
0
LINE
8
BLACK
6
CONTINUOUS
10
4.8449
20
-4.54264
11
4.84678
21
-4.53889
0
LINE
8
BLACK
6
CONTINUOUS
10
4.84678
20
-4.53889
11
4.8473
21
-4.53818
0
LINE
8
BLACK
6
CONTINUOUS
10
4.8473
20
-4.53818
11
4.84733
21
-4.53812
0
LINE
8
BLACK
6
CONTINUOUS
10
4.84733
20
-4.53812
11
4.84921
21
-4.53625
0
LINE
8
BLACK
6
CONTINUOUS
10
4.84921
20
-4.53625
11
4.84993
21
-4.53574
0
LINE
8
BLACK
6
CONTINUOUS
10
4.84993
20
-4.53574
11
4.84997
21
-4.5357
0
LINE
8
BLACK
6
CONTINUOUS
10
4.84997
20
-4.5357
11
4.85372
21
-4.53382
0
LINE
8
BLACK
6
CONTINUOUS
10
4.85372
20
-4.53382
11
4.85471
21
-4.53353
0
LINE
8
BLACK
6
CONTINUOUS
10
4.85471
20
-4.53353
11
4.85488
21
-4.53357
0
LINE
8
BLACK
6
CONTINUOUS
10
4.85488
20
-4.53357
11
4.85504
21
-4.53351
0
LINE
8
BLACK
6
CONTINUOUS
10
4.85504
20
-4.53351
11
4.86067
21
-4.53351
0
LINE
8
BLACK
6
CONTINUOUS
10
4.86067
20
-4.53351
11
4.86168
21
-4.53369
0
LINE
8
BLACK
6
CONTINUOUS
10
4.85304
20
-4.54076
11
4.85185
21
-4.54196
0
LINE
8
BLACK
6
CONTINUOUS
10
4.85185
20
-4.54196
11
4.8505
21
-4.54466
0
LINE
8
BLACK
6
CONTINUOUS
10
4.8505
20
-4.54466
11
4.8505
21
-4.55451
0
LINE
8
BLACK
6
CONTINUOUS
10
4.8505
20
-4.55451
11
4.85185
21
-4.55721
0
LINE
8
BLACK
6
CONTINUOUS
10
4.85185
20
-4.55721
11
4.85304
21
-4.55841
0
LINE
8
BLACK
6
CONTINUOUS
10
4.85304
20
-4.55841
11
4.85574
21
-4.55976
0
LINE
8
BLACK
6
CONTINUOUS
10
4.85574
20
-4.55976
11
4.85997
21
-4.55976
0
LINE
8
BLACK
6
CONTINUOUS
10
4.85997
20
-4.55976
11
4.86267
21
-4.55841
0
LINE
8
BLACK
6
CONTINUOUS
10
4.86267
20
-4.55841
11
4.86386
21
-4.55721
0
LINE
8
BLACK
6
CONTINUOUS
10
4.86386
20
-4.55721
11
4.86521
21
-4.55451
0
LINE
8
BLACK
6
CONTINUOUS
10
4.86521
20
-4.55451
11
4.86521
21
-4.54466
0
LINE
8
BLACK
6
CONTINUOUS
10
4.86521
20
-4.54466
11
4.86386
21
-4.54196
0
LINE
8
BLACK
6
CONTINUOUS
10
4.86386
20
-4.54196
11
4.86267
21
-4.54076
0
LINE
8
BLACK
6
CONTINUOUS
10
4.86267
20
-4.54076
11
4.85997
21
-4.53942
0
LINE
8
BLACK
6
CONTINUOUS
10
4.85997
20
-4.53942
11
4.85574
21
-4.53942
0
LINE
8
BLACK
6
CONTINUOUS
10
4.85574
20
-4.53942
11
4.85304
21
-4.54076
0
LINE
8
BLACK
6
CONTINUOUS
10
4.9248
20
-4.52144
11
4.92549
21
-4.52334
0
LINE
8
BLACK
6
CONTINUOUS
10
4.92549
20
-4.52334
11
4.92549
21
-4.56271
0
LINE
8
BLACK
6
CONTINUOUS
10
4.92549
20
-4.56271
11
4.92531
21
-4.56372
0
LINE
8
BLACK
6
CONTINUOUS
10
4.92531
20
-4.56372
11
4.92401
21
-4.56527
0
LINE
8
BLACK
6
CONTINUOUS
10
4.92401
20
-4.56527
11
4.92202
21
-4.56562
0
LINE
8
BLACK
6
CONTINUOUS
10
4.92202
20
-4.56562
11
4.92088
21
-4.56496
0
LINE
8
BLACK
6
CONTINUOUS
10
4.92088
20
-4.56496
11
4.92011
21
-4.56535
0
LINE
8
BLACK
6
CONTINUOUS
10
4.92011
20
-4.56535
11
4.91912
21
-4.56564
0
LINE
8
BLACK
6
CONTINUOUS
10
4.91912
20
-4.56564
11
4.91895
21
-4.5656
0
LINE
8
BLACK
6
CONTINUOUS
10
4.91895
20
-4.5656
11
4.91879
21
-4.56566
0
LINE
8
BLACK
6
CONTINUOUS
10
4.91879
20
-4.56566
11
4.91129
21
-4.56566
0
LINE
8
BLACK
6
CONTINUOUS
10
4.91129
20
-4.56566
11
4.91028
21
-4.56548
0
LINE
8
BLACK
6
CONTINUOUS
10
4.91028
20
-4.56548
11
4.91014
21
-4.56537
0
LINE
8
BLACK
6
CONTINUOUS
10
4.91014
20
-4.56537
11
4.90997
21
-4.56535
0
LINE
8
BLACK
6
CONTINUOUS
10
4.90997
20
-4.56535
11
4.90622
21
-4.56348
0
LINE
8
BLACK
6
CONTINUOUS
10
4.90622
20
-4.56348
11
4.90551
21
-4.56295
0
LINE
8
BLACK
6
CONTINUOUS
10
4.90551
20
-4.56295
11
4.90545
21
-4.56292
0
LINE
8
BLACK
6
CONTINUOUS
10
4.90545
20
-4.56292
11
4.90357
21
-4.56105
0
LINE
8
BLACK
6
CONTINUOUS
10
4.90357
20
-4.56105
11
4.90307
21
-4.56032
0
LINE
8
BLACK
6
CONTINUOUS
10
4.90307
20
-4.56032
11
4.90302
21
-4.56028
0
LINE
8
BLACK
6
CONTINUOUS
10
4.90302
20
-4.56028
11
4.90115
21
-4.55653
0
LINE
8
BLACK
6
CONTINUOUS
10
4.90115
20
-4.55653
11
4.90085
21
-4.55555
0
LINE
8
BLACK
6
CONTINUOUS
10
4.90085
20
-4.55555
11
4.90089
21
-4.55538
0
LINE
8
BLACK
6
CONTINUOUS
10
4.90089
20
-4.55538
11
4.90083
21
-4.55521
0
LINE
8
BLACK
6
CONTINUOUS
10
4.90083
20
-4.55521
11
4.90083
21
-4.54396
0
LINE
8
BLACK
6
CONTINUOUS
10
4.90083
20
-4.54396
11
4.90101
21
-4.54295
0
LINE
8
BLACK
6
CONTINUOUS
10
4.90101
20
-4.54295
11
4.90113
21
-4.54282
0
LINE
8
BLACK
6
CONTINUOUS
10
4.90113
20
-4.54282
11
4.90115
21
-4.54264
0
LINE
8
BLACK
6
CONTINUOUS
10
4.90115
20
-4.54264
11
4.90302
21
-4.53889
0
LINE
8
BLACK
6
CONTINUOUS
10
4.90302
20
-4.53889
11
4.90355
21
-4.53818
0
LINE
8
BLACK
6
CONTINUOUS
10
4.90355
20
-4.53818
11
4.90357
21
-4.53812
0
LINE
8
BLACK
6
CONTINUOUS
10
4.90357
20
-4.53812
11
4.90545
21
-4.53625
0
LINE
8
BLACK
6
CONTINUOUS
10
4.90545
20
-4.53625
11
4.90617
21
-4.53574
0
LINE
8
BLACK
6
CONTINUOUS
10
4.90617
20
-4.53574
11
4.90622
21
-4.5357
0
LINE
8
BLACK
6
CONTINUOUS
10
4.90622
20
-4.5357
11
4.90997
21
-4.53382
0
LINE
8
BLACK
6
CONTINUOUS
10
4.90997
20
-4.53382
11
4.91095
21
-4.53353
0
LINE
8
BLACK
6
CONTINUOUS
10
4.91095
20
-4.53353
11
4.91112
21
-4.53357
0
LINE
8
BLACK
6
CONTINUOUS
10
4.91112
20
-4.53357
11
4.91129
21
-4.53351
0
LINE
8
BLACK
6
CONTINUOUS
10
4.91129
20
-4.53351
11
4.91879
21
-4.53351
0
LINE
8
BLACK
6
CONTINUOUS
10
4.91879
20
-4.53351
11
4.91958
21
-4.53365
0
LINE
8
BLACK
6
CONTINUOUS
10
4.91958
20
-4.53365
11
4.91958
21
-4.52334
0
LINE
8
BLACK
6
CONTINUOUS
10
4.91958
20
-4.52334
11
4.91976
21
-4.52233
0
LINE
8
BLACK
6
CONTINUOUS
10
4.91976
20
-4.52233
11
4.92106
21
-4.52078
0
LINE
8
BLACK
6
CONTINUOUS
10
4.92106
20
-4.52078
11
4.92305
21
-4.52043
0
LINE
8
BLACK
6
CONTINUOUS
10
4.92305
20
-4.52043
11
4.9248
21
-4.52144
0
LINE
8
BLACK
6
CONTINUOUS
10
4.90929
20
-4.54076
11
4.90809
21
-4.54196
0
LINE
8
BLACK
6
CONTINUOUS
10
4.90809
20
-4.54196
11
4.90674
21
-4.54466
0
LINE
8
BLACK
6
CONTINUOUS
10
4.90674
20
-4.54466
11
4.90674
21
-4.55451
0
LINE
8
BLACK
6
CONTINUOUS
10
4.90674
20
-4.55451
11
4.90809
21
-4.55721
0
LINE
8
BLACK
6
CONTINUOUS
10
4.90809
20
-4.55721
11
4.90929
21
-4.55841
0
LINE
8
BLACK
6
CONTINUOUS
10
4.90929
20
-4.55841
11
4.91198
21
-4.55976
0
LINE
8
BLACK
6
CONTINUOUS
10
4.91198
20
-4.55976
11
4.91809
21
-4.55976
0
LINE
8
BLACK
6
CONTINUOUS
10
4.91809
20
-4.55976
11
4.91958
21
-4.55901
0
LINE
8
BLACK
6
CONTINUOUS
10
4.91958
20
-4.55901
11
4.91958
21
-4.54016
0
LINE
8
BLACK
6
CONTINUOUS
10
4.91958
20
-4.54016
11
4.91809
21
-4.53942
0
LINE
8
BLACK
6
CONTINUOUS
10
4.91809
20
-4.53942
11
4.91198
21
-4.53942
0
LINE
8
BLACK
6
CONTINUOUS
10
4.91198
20
-4.53942
11
4.90929
21
-4.54076
0
LINE
8
BLACK
6
CONTINUOUS
10
4.95354
20
-4.53369
11
4.95368
21
-4.5338
0
LINE
8
BLACK
6
CONTINUOUS
10
4.95368
20
-4.5338
11
4.95385
21
-4.53382
0
LINE
8
BLACK
6
CONTINUOUS
10
4.95385
20
-4.53382
11
4.9576
21
-4.5357
0
LINE
8
BLACK
6
CONTINUOUS
10
4.9576
20
-4.5357
11
4.95842
21
-4.53631
0
LINE
8
BLACK
6
CONTINUOUS
10
4.95842
20
-4.53631
11
4.9586
21
-4.53671
0
LINE
8
BLACK
6
CONTINUOUS
10
4.9586
20
-4.53671
11
4.95892
21
-4.53702
0
LINE
8
BLACK
6
CONTINUOUS
10
4.95892
20
-4.53702
11
4.9608
21
-4.54077
0
LINE
8
BLACK
6
CONTINUOUS
10
4.9608
20
-4.54077
11
4.96109
21
-4.54175
0
LINE
8
BLACK
6
CONTINUOUS
10
4.96109
20
-4.54175
11
4.96105
21
-4.54192
0
LINE
8
BLACK
6
CONTINUOUS
10
4.96105
20
-4.54192
11
4.96111
21
-4.54209
0
LINE
8
BLACK
6
CONTINUOUS
10
4.96111
20
-4.54209
11
4.96111
21
-4.54584
0
LINE
8
BLACK
6
CONTINUOUS
10
4.96111
20
-4.54584
11
4.96093
21
-4.54685
0
LINE
8
BLACK
6
CONTINUOUS
10
4.96093
20
-4.54685
11
4.96062
21
-4.54722
0
LINE
8
BLACK
6
CONTINUOUS
10
4.96062
20
-4.54722
11
4.96046
21
-4.54768
0
LINE
8
BLACK
6
CONTINUOUS
10
4.96046
20
-4.54768
11
4.95999
21
-4.54797
0
LINE
8
BLACK
6
CONTINUOUS
10
4.95999
20
-4.54797
11
4.95963
21
-4.54839
0
LINE
8
BLACK
6
CONTINUOUS
10
4.95963
20
-4.54839
11
4.95915
21
-4.54848
0
LINE
8
BLACK
6
CONTINUOUS
10
4.95915
20
-4.54848
11
4.95873
21
-4.54873
0
LINE
8
BLACK
6
CONTINUOUS
10
4.95873
20
-4.54873
11
4.94236
21
-4.55201
0
LINE
8
BLACK
6
CONTINUOUS
10
4.94236
20
-4.55201
11
4.94236
21
-4.55639
0
LINE
8
BLACK
6
CONTINUOUS
10
4.94236
20
-4.55639
11
4.94348
21
-4.55863
0
LINE
8
BLACK
6
CONTINUOUS
10
4.94348
20
-4.55863
11
4.94573
21
-4.55976
0
LINE
8
BLACK
6
CONTINUOUS
10
4.94573
20
-4.55976
11
4.95183
21
-4.55976
0
LINE
8
BLACK
6
CONTINUOUS
10
4.95183
20
-4.55976
11
4.95496
21
-4.55819
0
LINE
8
BLACK
6
CONTINUOUS
10
4.95496
20
-4.55819
11
4.95594
21
-4.5579
0
LINE
8
BLACK
6
CONTINUOUS
10
4.95594
20
-4.5579
11
4.95791
21
-4.55837
0
LINE
8
BLACK
6
CONTINUOUS
10
4.95791
20
-4.55837
11
4.95911
21
-4.55999
0
LINE
8
BLACK
6
CONTINUOUS
10
4.95911
20
-4.55999
11
4.95899
21
-4.56201
0
LINE
8
BLACK
6
CONTINUOUS
10
4.95899
20
-4.56201
11
4.9576
21
-4.56348
0
LINE
8
BLACK
6
CONTINUOUS
10
4.9576
20
-4.56348
11
4.95385
21
-4.56535
0
LINE
8
BLACK
6
CONTINUOUS
10
4.95385
20
-4.56535
11
4.95287
21
-4.56564
0
LINE
8
BLACK
6
CONTINUOUS
10
4.95287
20
-4.56564
11
4.9527
21
-4.5656
0
LINE
8
BLACK
6
CONTINUOUS
10
4.9527
20
-4.5656
11
4.95253
21
-4.56566
0
LINE
8
BLACK
6
CONTINUOUS
10
4.95253
20
-4.56566
11
4.94503
21
-4.56566
0
LINE
8
BLACK
6
CONTINUOUS
10
4.94503
20
-4.56566
11
4.94402
21
-4.56548
0
LINE
8
BLACK
6
CONTINUOUS
10
4.94402
20
-4.56548
11
4.94389
21
-4.56537
0
LINE
8
BLACK
6
CONTINUOUS
10
4.94389
20
-4.56537
11
4.94371
21
-4.56535
0
LINE
8
BLACK
6
CONTINUOUS
10
4.94371
20
-4.56535
11
4.93996
21
-4.56348
0
LINE
8
BLACK
6
CONTINUOUS
10
4.93996
20
-4.56348
11
4.93914
21
-4.56286
0
LINE
8
BLACK
6
CONTINUOUS
10
4.93914
20
-4.56286
11
4.93896
21
-4.56246
0
LINE
8
BLACK
6
CONTINUOUS
10
4.93896
20
-4.56246
11
4.93864
21
-4.56216
0
LINE
8
BLACK
6
CONTINUOUS
10
4.93864
20
-4.56216
11
4.93677
21
-4.55841
0
LINE
8
BLACK
6
CONTINUOUS
10
4.93677
20
-4.55841
11
4.93647
21
-4.55742
0
LINE
8
BLACK
6
CONTINUOUS
10
4.93647
20
-4.55742
11
4.93652
21
-4.55725
0
LINE
8
BLACK
6
CONTINUOUS
10
4.93652
20
-4.55725
11
4.93645
21
-4.55709
0
LINE
8
BLACK
6
CONTINUOUS
10
4.93645
20
-4.55709
11
4.93645
21
-4.54209
0
LINE
8
BLACK
6
CONTINUOUS
10
4.93645
20
-4.54209
11
4.93663
21
-4.54108
0
LINE
8
BLACK
6
CONTINUOUS
10
4.93663
20
-4.54108
11
4.93675
21
-4.54094
0
LINE
8
BLACK
6
CONTINUOUS
10
4.93675
20
-4.54094
11
4.93677
21
-4.54077
0
LINE
8
BLACK
6
CONTINUOUS
10
4.93677
20
-4.54077
11
4.93864
21
-4.53702
0
LINE
8
BLACK
6
CONTINUOUS
10
4.93864
20
-4.53702
11
4.93925
21
-4.53619
0
LINE
8
BLACK
6
CONTINUOUS
10
4.93925
20
-4.53619
11
4.93966
21
-4.53602
0
LINE
8
BLACK
6
CONTINUOUS
10
4.93966
20
-4.53602
11
4.93996
21
-4.5357
0
LINE
8
BLACK
6
CONTINUOUS
10
4.93996
20
-4.5357
11
4.94371
21
-4.53382
0
LINE
8
BLACK
6
CONTINUOUS
10
4.94371
20
-4.53382
11
4.94469
21
-4.53353
0
LINE
8
BLACK
6
CONTINUOUS
10
4.94469
20
-4.53353
11
4.94487
21
-4.53357
0
LINE
8
BLACK
6
CONTINUOUS
10
4.94487
20
-4.53357
11
4.94503
21
-4.53351
0
LINE
8
BLACK
6
CONTINUOUS
10
4.94503
20
-4.53351
11
4.95253
21
-4.53351
0
LINE
8
BLACK
6
CONTINUOUS
10
4.95253
20
-4.53351
11
4.95354
21
-4.53369
0
LINE
8
BLACK
6
CONTINUOUS
10
4.94348
20
-4.54054
11
4.94236
21
-4.54278
0
LINE
8
BLACK
6
CONTINUOUS
10
4.94236
20
-4.54278
11
4.94236
21
-4.54598
0
LINE
8
BLACK
6
CONTINUOUS
10
4.94236
20
-4.54598
11
4.9552
21
-4.54342
0
LINE
8
BLACK
6
CONTINUOUS
10
4.9552
20
-4.54342
11
4.9552
21
-4.54278
0
LINE
8
BLACK
6
CONTINUOUS
10
4.9552
20
-4.54278
11
4.95408
21
-4.54054
0
LINE
8
BLACK
6
CONTINUOUS
10
4.95408
20
-4.54054
11
4.95183
21
-4.53942
0
LINE
8
BLACK
6
CONTINUOUS
10
4.95183
20
-4.53942
11
4.94573
21
-4.53942
0
LINE
8
BLACK
6
CONTINUOUS
10
4.94573
20
-4.53942
11
4.94348
21
-4.54054
0
LINE
8
BLACK
6
CONTINUOUS
10
5.01291
20
-4.52144
11
5.0136
21
-4.52334
0
LINE
8
BLACK
6
CONTINUOUS
10
5.0136
20
-4.52334
11
5.0136
21
-4.55146
0
LINE
8
BLACK
6
CONTINUOUS
10
5.0136
20
-4.55146
11
5.01345
21
-4.55233
0
LINE
8
BLACK
6
CONTINUOUS
10
5.01345
20
-4.55233
11
5.01345
21
-4.55239
0
LINE
8
BLACK
6
CONTINUOUS
10
5.01345
20
-4.55239
11
5.01158
21
-4.55802
0
LINE
8
BLACK
6
CONTINUOUS
10
5.01158
20
-4.55802
11
5.01109
21
-4.55892
0
LINE
8
BLACK
6
CONTINUOUS
10
5.01109
20
-4.55892
11
5.01094
21
-4.55901
0
LINE
8
BLACK
6
CONTINUOUS
10
5.01094
20
-4.55901
11
5.01086
21
-4.55917
0
LINE
8
BLACK
6
CONTINUOUS
10
5.01086
20
-4.55917
11
5.00711
21
-4.56292
0
LINE
8
BLACK
6
CONTINUOUS
10
5.00711
20
-4.56292
11
5.00627
21
-4.56351
0
LINE
8
BLACK
6
CONTINUOUS
10
5.00627
20
-4.56351
11
5.0061
21
-4.56353
0
LINE
8
BLACK
6
CONTINUOUS
10
5.0061
20
-4.56353
11
5.00596
21
-4.56364
0
LINE
8
BLACK
6
CONTINUOUS
10
5.00596
20
-4.56364
11
5.00033
21
-4.56551
0
LINE
8
BLACK
6
CONTINUOUS
10
5.00033
20
-4.56551
11
4.99946
21
-4.56564
0
LINE
8
BLACK
6
CONTINUOUS
10
4.99946
20
-4.56564
11
4.9994
21
-4.56566
0
LINE
8
BLACK
6
CONTINUOUS
10
4.9994
20
-4.56566
11
4.99565
21
-4.56566
0
LINE
8
BLACK
6
CONTINUOUS
10
4.99565
20
-4.56566
11
4.99464
21
-4.56548
0
LINE
8
BLACK
6
CONTINUOUS
10
4.99464
20
-4.56548
11
4.99309
21
-4.56419
0
LINE
8
BLACK
6
CONTINUOUS
10
4.99309
20
-4.56419
11
4.99274
21
-4.5622
0
LINE
8
BLACK
6
CONTINUOUS
10
4.99274
20
-4.5622
11
4.99375
21
-4.56045
0
LINE
8
BLACK
6
CONTINUOUS
10
4.99375
20
-4.56045
11
4.99565
21
-4.55976
0
LINE
8
BLACK
6
CONTINUOUS
10
4.99565
20
-4.55976
11
4.99892
21
-4.55976
0
LINE
8
BLACK
6
CONTINUOUS
10
4.99892
20
-4.55976
11
5.00343
21
-4.55825
0
LINE
8
BLACK
6
CONTINUOUS
10
5.00343
20
-4.55825
11
5.00619
21
-4.55549
0
LINE
8
BLACK
6
CONTINUOUS
10
5.00619
20
-4.55549
11
5.0077
21
-4.55098
0
LINE
8
BLACK
6
CONTINUOUS
10
5.0077
20
-4.55098
11
5.0077
21
-4.52334
0
LINE
8
BLACK
6
CONTINUOUS
10
5.0077
20
-4.52334
11
5.00787
21
-4.52233
0
LINE
8
BLACK
6
CONTINUOUS
10
5.00787
20
-4.52233
11
5.00917
21
-4.52078
0
LINE
8
BLACK
6
CONTINUOUS
10
5.00917
20
-4.52078
11
5.01116
21
-4.52043
0
LINE
8
BLACK
6
CONTINUOUS
10
5.01116
20
-4.52043
11
5.01291
21
-4.52144
0
LINE
8
BLACK
6
CONTINUOUS
10
5.04853
20
-4.53456
11
5.04922
21
-4.53646
0
LINE
8
BLACK
6
CONTINUOUS
10
5.04922
20
-4.53646
11
5.04922
21
-4.56271
0
LINE
8
BLACK
6
CONTINUOUS
10
5.04922
20
-4.56271
11
5.04904
21
-4.56372
0
LINE
8
BLACK
6
CONTINUOUS
10
5.04904
20
-4.56372
11
5.04775
21
-4.56527
0
LINE
8
BLACK
6
CONTINUOUS
10
5.04775
20
-4.56527
11
5.04576
21
-4.56562
0
LINE
8
BLACK
6
CONTINUOUS
10
5.04576
20
-4.56562
11
5.04401
21
-4.56461
0
LINE
8
BLACK
6
CONTINUOUS
10
5.04401
20
-4.56461
11
5.04392
21
-4.56437
0
LINE
8
BLACK
6
CONTINUOUS
10
5.04392
20
-4.56437
11
5.04197
21
-4.56535
0
LINE
8
BLACK
6
CONTINUOUS
10
5.04197
20
-4.56535
11
5.04098
21
-4.56564
0
LINE
8
BLACK
6
CONTINUOUS
10
5.04098
20
-4.56564
11
5.04081
21
-4.5656
0
LINE
8
BLACK
6
CONTINUOUS
10
5.04081
20
-4.5656
11
5.04064
21
-4.56566
0
LINE
8
BLACK
6
CONTINUOUS
10
5.04064
20
-4.56566
11
5.03502
21
-4.56566
0
LINE
8
BLACK
6
CONTINUOUS
10
5.03502
20
-4.56566
11
5.03401
21
-4.56548
0
LINE
8
BLACK
6
CONTINUOUS
10
5.03401
20
-4.56548
11
5.03388
21
-4.56537
0
LINE
8
BLACK
6
CONTINUOUS
10
5.03388
20
-4.56537
11
5.0337
21
-4.56535
0
LINE
8
BLACK
6
CONTINUOUS
10
5.0337
20
-4.56535
11
5.02995
21
-4.56348
0
LINE
8
BLACK
6
CONTINUOUS
10
5.02995
20
-4.56348
11
5.02913
21
-4.56286
0
LINE
8
BLACK
6
CONTINUOUS
10
5.02913
20
-4.56286
11
5.02895
21
-4.56246
0
LINE
8
BLACK
6
CONTINUOUS
10
5.02895
20
-4.56246
11
5.02863
21
-4.56216
0
LINE
8
BLACK
6
CONTINUOUS
10
5.02863
20
-4.56216
11
5.02676
21
-4.55841
0
LINE
8
BLACK
6
CONTINUOUS
10
5.02676
20
-4.55841
11
5.02646
21
-4.55742
0
LINE
8
BLACK
6
CONTINUOUS
10
5.02646
20
-4.55742
11
5.0265
21
-4.55725
0
LINE
8
BLACK
6
CONTINUOUS
10
5.0265
20
-4.55725
11
5.02644
21
-4.55709
0
LINE
8
BLACK
6
CONTINUOUS
10
5.02644
20
-4.55709
11
5.02644
21
-4.53646
0
LINE
8
BLACK
6
CONTINUOUS
10
5.02644
20
-4.53646
11
5.02662
21
-4.53545
0
LINE
8
BLACK
6
CONTINUOUS
10
5.02662
20
-4.53545
11
5.02792
21
-4.53391
0
LINE
8
BLACK
6
CONTINUOUS
10
5.02792
20
-4.53391
11
5.02991
21
-4.53355
0
LINE
8
BLACK
6
CONTINUOUS
10
5.02991
20
-4.53355
11
5.03166
21
-4.53456
0
LINE
8
BLACK
6
CONTINUOUS
10
5.03166
20
-4.53456
11
5.03235
21
-4.53646
0
LINE
8
BLACK
6
CONTINUOUS
10
5.03235
20
-4.53646
11
5.03235
21
-4.55639
0
LINE
8
BLACK
6
CONTINUOUS
10
5.03235
20
-4.55639
11
5.03347
21
-4.55863
0
LINE
8
BLACK
6
CONTINUOUS
10
5.03347
20
-4.55863
11
5.03572
21
-4.55976
0
LINE
8
BLACK
6
CONTINUOUS
10
5.03572
20
-4.55976
11
5.03995
21
-4.55976
0
LINE
8
BLACK
6
CONTINUOUS
10
5.03995
20
-4.55976
11
5.04265
21
-4.55841
0
LINE
8
BLACK
6
CONTINUOUS
10
5.04265
20
-4.55841
11
5.04332
21
-4.55774
0
LINE
8
BLACK
6
CONTINUOUS
10
5.04332
20
-4.55774
11
5.04332
21
-4.53646
0
LINE
8
BLACK
6
CONTINUOUS
10
5.04332
20
-4.53646
11
5.04349
21
-4.53545
0
LINE
8
BLACK
6
CONTINUOUS
10
5.04349
20
-4.53545
11
5.04479
21
-4.53391
0
LINE
8
BLACK
6
CONTINUOUS
10
5.04479
20
-4.53391
11
5.04678
21
-4.53355
0
LINE
8
BLACK
6
CONTINUOUS
10
5.04678
20
-4.53355
11
5.04853
21
-4.53456
0
LINE
8
BLACK
6
CONTINUOUS
10
5.16539
20
-4.53369
11
5.16552
21
-4.5338
0
LINE
8
BLACK
6
CONTINUOUS
10
5.16552
20
-4.5338
11
5.1657
21
-4.53382
0
LINE
8
BLACK
6
CONTINUOUS
10
5.1657
20
-4.53382
11
5.16945
21
-4.5357
0
LINE
8
BLACK
6
CONTINUOUS
10
5.16945
20
-4.5357
11
5.17027
21
-4.53631
0
LINE
8
BLACK
6
CONTINUOUS
10
5.17027
20
-4.53631
11
5.17045
21
-4.53671
0
LINE
8
BLACK
6
CONTINUOUS
10
5.17045
20
-4.53671
11
5.17077
21
-4.53702
0
LINE
8
BLACK
6
CONTINUOUS
10
5.17077
20
-4.53702
11
5.17264
21
-4.54077
0
LINE
8
BLACK
6
CONTINUOUS
10
5.17264
20
-4.54077
11
5.17294
21
-4.54175
0
LINE
8
BLACK
6
CONTINUOUS
10
5.17294
20
-4.54175
11
5.1729
21
-4.54192
0
LINE
8
BLACK
6
CONTINUOUS
10
5.1729
20
-4.54192
11
5.17296
21
-4.54209
0
LINE
8
BLACK
6
CONTINUOUS
10
5.17296
20
-4.54209
11
5.17296
21
-4.54584
0
LINE
8
BLACK
6
CONTINUOUS
10
5.17296
20
-4.54584
11
5.17278
21
-4.54685
0
LINE
8
BLACK
6
CONTINUOUS
10
5.17278
20
-4.54685
11
5.17246
21
-4.54722
0
LINE
8
BLACK
6
CONTINUOUS
10
5.17246
20
-4.54722
11
5.17231
21
-4.54768
0
LINE
8
BLACK
6
CONTINUOUS
10
5.17231
20
-4.54768
11
5.17184
21
-4.54797
0
LINE
8
BLACK
6
CONTINUOUS
10
5.17184
20
-4.54797
11
5.17148
21
-4.54839
0
LINE
8
BLACK
6
CONTINUOUS
10
5.17148
20
-4.54839
11
5.171
21
-4.54848
0
LINE
8
BLACK
6
CONTINUOUS
10
5.171
20
-4.54848
11
5.17058
21
-4.54873
0
LINE
8
BLACK
6
CONTINUOUS
10
5.17058
20
-4.54873
11
5.15421
21
-4.55201
0
LINE
8
BLACK
6
CONTINUOUS
10
5.15421
20
-4.55201
11
5.15421
21
-4.55639
0
LINE
8
BLACK
6
CONTINUOUS
10
5.15421
20
-4.55639
11
5.15533
21
-4.55863
0
LINE
8
BLACK
6
CONTINUOUS
10
5.15533
20
-4.55863
11
5.15758
21
-4.55976
0
LINE
8
BLACK
6
CONTINUOUS
10
5.15758
20
-4.55976
11
5.16368
21
-4.55976
0
LINE
8
BLACK
6
CONTINUOUS
10
5.16368
20
-4.55976
11
5.16681
21
-4.55819
0
LINE
8
BLACK
6
CONTINUOUS
10
5.16681
20
-4.55819
11
5.16779
21
-4.5579
0
LINE
8
BLACK
6
CONTINUOUS
10
5.16779
20
-4.5579
11
5.16976
21
-4.55837
0
LINE
8
BLACK
6
CONTINUOUS
10
5.16976
20
-4.55837
11
5.17096
21
-4.55999
0
LINE
8
BLACK
6
CONTINUOUS
10
5.17096
20
-4.55999
11
5.17084
21
-4.56201
0
LINE
8
BLACK
6
CONTINUOUS
10
5.17084
20
-4.56201
11
5.16945
21
-4.56348
0
LINE
8
BLACK
6
CONTINUOUS
10
5.16945
20
-4.56348
11
5.1657
21
-4.56535
0
LINE
8
BLACK
6
CONTINUOUS
10
5.1657
20
-4.56535
11
5.16472
21
-4.56564
0
LINE
8
BLACK
6
CONTINUOUS
10
5.16472
20
-4.56564
11
5.16455
21
-4.5656
0
LINE
8
BLACK
6
CONTINUOUS
10
5.16455
20
-4.5656
11
5.16438
21
-4.56566
0
LINE
8
BLACK
6
CONTINUOUS
10
5.16438
20
-4.56566
11
5.15688
21
-4.56566
0
LINE
8
BLACK
6
CONTINUOUS
10
5.15688
20
-4.56566
11
5.15587
21
-4.56548
0
LINE
8
BLACK
6
CONTINUOUS
10
5.15587
20
-4.56548
11
5.15574
21
-4.56537
0
LINE
8
BLACK
6
CONTINUOUS
10
5.15574
20
-4.56537
11
5.15556
21
-4.56535
0
LINE
8
BLACK
6
CONTINUOUS
10
5.15556
20
-4.56535
11
5.15181
21
-4.56348
0
LINE
8
BLACK
6
CONTINUOUS
10
5.15181
20
-4.56348
11
5.15099
21
-4.56286
0
LINE
8
BLACK
6
CONTINUOUS
10
5.15099
20
-4.56286
11
5.15081
21
-4.56246
0
LINE
8
BLACK
6
CONTINUOUS
10
5.15081
20
-4.56246
11
5.15049
21
-4.56216
0
LINE
8
BLACK
6
CONTINUOUS
10
5.15049
20
-4.56216
11
5.14862
21
-4.55841
0
LINE
8
BLACK
6
CONTINUOUS
10
5.14862
20
-4.55841
11
5.14832
21
-4.55742
0
LINE
8
BLACK
6
CONTINUOUS
10
5.14832
20
-4.55742
11
5.14836
21
-4.55725
0
LINE
8
BLACK
6
CONTINUOUS
10
5.14836
20
-4.55725
11
5.1483
21
-4.55709
0
LINE
8
BLACK
6
CONTINUOUS
10
5.1483
20
-4.55709
11
5.1483
21
-4.54209
0
LINE
8
BLACK
6
CONTINUOUS
10
5.1483
20
-4.54209
11
5.14848
21
-4.54108
0
LINE
8
BLACK
6
CONTINUOUS
10
5.14848
20
-4.54108
11
5.14859
21
-4.54094
0
LINE
8
BLACK
6
CONTINUOUS
10
5.14859
20
-4.54094
11
5.14862
21
-4.54077
0
LINE
8
BLACK
6
CONTINUOUS
10
5.14862
20
-4.54077
11
5.15049
21
-4.53702
0
LINE
8
BLACK
6
CONTINUOUS
10
5.15049
20
-4.53702
11
5.1511
21
-4.53619
0
LINE
8
BLACK
6
CONTINUOUS
10
5.1511
20
-4.53619
11
5.15151
21
-4.53602
0
LINE
8
BLACK
6
CONTINUOUS
10
5.15151
20
-4.53602
11
5.15181
21
-4.5357
0
LINE
8
BLACK
6
CONTINUOUS
10
5.15181
20
-4.5357
11
5.15556
21
-4.53382
0
LINE
8
BLACK
6
CONTINUOUS
10
5.15556
20
-4.53382
11
5.15654
21
-4.53353
0
LINE
8
BLACK
6
CONTINUOUS
10
5.15654
20
-4.53353
11
5.15671
21
-4.53357
0
LINE
8
BLACK
6
CONTINUOUS
10
5.15671
20
-4.53357
11
5.15688
21
-4.53351
0
LINE
8
BLACK
6
CONTINUOUS
10
5.15688
20
-4.53351
11
5.16438
21
-4.53351
0
LINE
8
BLACK
6
CONTINUOUS
10
5.16438
20
-4.53351
11
5.16539
21
-4.53369
0
LINE
8
BLACK
6
CONTINUOUS
10
5.15533
20
-4.54054
11
5.15421
21
-4.54278
0
LINE
8
BLACK
6
CONTINUOUS
10
5.15421
20
-4.54278
11
5.15421
21
-4.54598
0
LINE
8
BLACK
6
CONTINUOUS
10
5.15421
20
-4.54598
11
5.16705
21
-4.54342
0
LINE
8
BLACK
6
CONTINUOUS
10
5.16705
20
-4.54342
11
5.16705
21
-4.54278
0
LINE
8
BLACK
6
CONTINUOUS
10
5.16705
20
-4.54278
11
5.16593
21
-4.54054
0
LINE
8
BLACK
6
CONTINUOUS
10
5.16593
20
-4.54054
11
5.16368
21
-4.53942
0
LINE
8
BLACK
6
CONTINUOUS
10
5.16368
20
-4.53942
11
5.15758
21
-4.53942
0
LINE
8
BLACK
6
CONTINUOUS
10
5.15758
20
-4.53942
11
5.15533
21
-4.54054
0
LINE
8
BLACK
6
CONTINUOUS
10
5.2623
20
-4.52046
11
5.26244
21
-4.52044
0
LINE
8
BLACK
6
CONTINUOUS
10
5.26244
20
-4.52044
11
5.26254
21
-4.52051
0
LINE
8
BLACK
6
CONTINUOUS
10
5.26254
20
-4.52051
11
5.26288
21
-4.52056
0
LINE
8
BLACK
6
CONTINUOUS
10
5.26288
20
-4.52056
11
5.26349
21
-4.52108
0
LINE
8
BLACK
6
CONTINUOUS
10
5.26349
20
-4.52108
11
5.26417
21
-4.52149
0
LINE
8
BLACK
6
CONTINUOUS
10
5.26417
20
-4.52149
11
5.26424
21
-4.52171
0
LINE
8
BLACK
6
CONTINUOUS
10
5.26424
20
-4.52171
11
5.26442
21
-4.52186
0
LINE
8
BLACK
6
CONTINUOUS
10
5.26442
20
-4.52186
11
5.26456
21
-4.52265
0
LINE
8
BLACK
6
CONTINUOUS
10
5.26456
20
-4.52265
11
5.26482
21
-4.5234
0
LINE
8
BLACK
6
CONTINUOUS
10
5.26482
20
-4.5234
11
5.26473
21
-4.52362
0
LINE
8
BLACK
6
CONTINUOUS
10
5.26473
20
-4.52362
11
5.26478
21
-4.52385
0
LINE
8
BLACK
6
CONTINUOUS
10
5.26478
20
-4.52385
11
5.26438
21
-4.52454
0
LINE
8
BLACK
6
CONTINUOUS
10
5.26438
20
-4.52454
11
5.26409
21
-4.52528
0
LINE
8
BLACK
6
CONTINUOUS
10
5.26409
20
-4.52528
11
5.25513
21
-4.53552
0
LINE
8
BLACK
6
CONTINUOUS
10
5.25513
20
-4.53552
11
5.25538
21
-4.53556
0
LINE
8
BLACK
6
CONTINUOUS
10
5.25538
20
-4.53556
11
5.25551
21
-4.53568
0
LINE
8
BLACK
6
CONTINUOUS
10
5.25551
20
-4.53568
11
5.25569
21
-4.5357
0
LINE
8
BLACK
6
CONTINUOUS
10
5.25569
20
-4.5357
11
5.25944
21
-4.53757
0
LINE
8
BLACK
6
CONTINUOUS
10
5.25944
20
-4.53757
11
5.26015
21
-4.5381
0
LINE
8
BLACK
6
CONTINUOUS
10
5.26015
20
-4.5381
11
5.26021
21
-4.53812
0
LINE
8
BLACK
6
CONTINUOUS
10
5.26021
20
-4.53812
11
5.26208
21
-4.54
0
LINE
8
BLACK
6
CONTINUOUS
10
5.26208
20
-4.54
11
5.26259
21
-4.54072
0
LINE
8
BLACK
6
CONTINUOUS
10
5.26259
20
-4.54072
11
5.26263
21
-4.54077
0
LINE
8
BLACK
6
CONTINUOUS
10
5.26263
20
-4.54077
11
5.26451
21
-4.54452
0
LINE
8
BLACK
6
CONTINUOUS
10
5.26451
20
-4.54452
11
5.2648
21
-4.5455
0
LINE
8
BLACK
6
CONTINUOUS
10
5.2648
20
-4.5455
11
5.26476
21
-4.54567
0
LINE
8
BLACK
6
CONTINUOUS
10
5.26476
20
-4.54567
11
5.26482
21
-4.54584
0
LINE
8
BLACK
6
CONTINUOUS
10
5.26482
20
-4.54584
11
5.26482
21
-4.55521
0
LINE
8
BLACK
6
CONTINUOUS
10
5.26482
20
-4.55521
11
5.26464
21
-4.55622
0
LINE
8
BLACK
6
CONTINUOUS
10
5.26464
20
-4.55622
11
5.26453
21
-4.55636
0
LINE
8
BLACK
6
CONTINUOUS
10
5.26453
20
-4.55636
11
5.26451
21
-4.55653
0
LINE
8
BLACK
6
CONTINUOUS
10
5.26451
20
-4.55653
11
5.26263
21
-4.56028
0
LINE
8
BLACK
6
CONTINUOUS
10
5.26263
20
-4.56028
11
5.26211
21
-4.56099
0
LINE
8
BLACK
6
CONTINUOUS
10
5.26211
20
-4.56099
11
5.26208
21
-4.56105
0
LINE
8
BLACK
6
CONTINUOUS
10
5.26208
20
-4.56105
11
5.26021
21
-4.56292
0
LINE
8
BLACK
6
CONTINUOUS
10
5.26021
20
-4.56292
11
5.25948
21
-4.56343
0
LINE
8
BLACK
6
CONTINUOUS
10
5.25948
20
-4.56343
11
5.25944
21
-4.56348
0
LINE
8
BLACK
6
CONTINUOUS
10
5.25944
20
-4.56348
11
5.25569
21
-4.56535
0
LINE
8
BLACK
6
CONTINUOUS
10
5.25569
20
-4.56535
11
5.25471
21
-4.56564
0
LINE
8
BLACK
6
CONTINUOUS
10
5.25471
20
-4.56564
11
5.25453
21
-4.5656
0
LINE
8
BLACK
6
CONTINUOUS
10
5.25453
20
-4.5656
11
5.25437
21
-4.56566
0
LINE
8
BLACK
6
CONTINUOUS
10
5.25437
20
-4.56566
11
5.24312
21
-4.56566
0
LINE
8
BLACK
6
CONTINUOUS
10
5.24312
20
-4.56566
11
5.24211
21
-4.56548
0
LINE
8
BLACK
6
CONTINUOUS
10
5.24211
20
-4.56548
11
5.24197
21
-4.56537
0
LINE
8
BLACK
6
CONTINUOUS
10
5.24197
20
-4.56537
11
5.2418
21
-4.56535
0
LINE
8
BLACK
6
CONTINUOUS
10
5.2418
20
-4.56535
11
5.23805
21
-4.56348
0
LINE
8
BLACK
6
CONTINUOUS
10
5.23805
20
-4.56348
11
5.23734
21
-4.56295
0
LINE
8
BLACK
6
CONTINUOUS
10
5.23734
20
-4.56295
11
5.23728
21
-4.56292
0
LINE
8
BLACK
6
CONTINUOUS
10
5.23728
20
-4.56292
11
5.23541
21
-4.56105
0
LINE
8
BLACK
6
CONTINUOUS
10
5.23541
20
-4.56105
11
5.23482
21
-4.56021
0
LINE
8
BLACK
6
CONTINUOUS
10
5.23482
20
-4.56021
11
5.23464
21
-4.5582
0
LINE
8
BLACK
6
CONTINUOUS
10
5.23464
20
-4.5582
11
5.2358
21
-4.55654
0
LINE
8
BLACK
6
CONTINUOUS
10
5.2358
20
-4.55654
11
5.23775
21
-4.55602
0
LINE
8
BLACK
6
CONTINUOUS
10
5.23775
20
-4.55602
11
5.23958
21
-4.55687
0
LINE
8
BLACK
6
CONTINUOUS
10
5.23958
20
-4.55687
11
5.24112
21
-4.55841
0
LINE
8
BLACK
6
CONTINUOUS
10
5.24112
20
-4.55841
11
5.24382
21
-4.55976
0
LINE
8
BLACK
6
CONTINUOUS
10
5.24382
20
-4.55976
11
5.25367
21
-4.55976
0
LINE
8
BLACK
6
CONTINUOUS
10
5.25367
20
-4.55976
11
5.25637
21
-4.55841
0
LINE
8
BLACK
6
CONTINUOUS
10
5.25637
20
-4.55841
11
5.25757
21
-4.55721
0
LINE
8
BLACK
6
CONTINUOUS
10
5.25757
20
-4.55721
11
5.25891
21
-4.55451
0
LINE
8
BLACK
6
CONTINUOUS
10
5.25891
20
-4.55451
11
5.25891
21
-4.54653
0
LINE
8
BLACK
6
CONTINUOUS
10
5.25891
20
-4.54653
11
5.25757
21
-4.54384
0
LINE
8
BLACK
6
CONTINUOUS
10
5.25757
20
-4.54384
11
5.25637
21
-4.54264
0
LINE
8
BLACK
6
CONTINUOUS
10
5.25637
20
-4.54264
11
5.25367
21
-4.54129
0
LINE
8
BLACK
6
CONTINUOUS
10
5.25367
20
-4.54129
11
5.24874
21
-4.54129
0
LINE
8
BLACK
6
CONTINUOUS
10
5.24874
20
-4.54129
11
5.24831
21
-4.54121
0
LINE
8
BLACK
6
CONTINUOUS
10
5.24831
20
-4.54121
11
5.24817
21
-4.54123
0
LINE
8
BLACK
6
CONTINUOUS
10
5.24817
20
-4.54123
11
5.24807
21
-4.54117
0
LINE
8
BLACK
6
CONTINUOUS
10
5.24807
20
-4.54117
11
5.24773
21
-4.54111
0
LINE
8
BLACK
6
CONTINUOUS
10
5.24773
20
-4.54111
11
5.24712
21
-4.5406
0
LINE
8
BLACK
6
CONTINUOUS
10
5.24712
20
-4.5406
11
5.24644
21
-4.54019
0
LINE
8
BLACK
6
CONTINUOUS
10
5.24644
20
-4.54019
11
5.24637
21
-4.53997
0
LINE
8
BLACK
6
CONTINUOUS
10
5.24637
20
-4.53997
11
5.24619
21
-4.53981
0
LINE
8
BLACK
6
CONTINUOUS
10
5.24619
20
-4.53981
11
5.24605
21
-4.53903
0
LINE
8
BLACK
6
CONTINUOUS
10
5.24605
20
-4.53903
11
5.24579
21
-4.53828
0
LINE
8
BLACK
6
CONTINUOUS
10
5.24579
20
-4.53828
11
5.24588
21
-4.53806
0
LINE
8
BLACK
6
CONTINUOUS
10
5.24588
20
-4.53806
11
5.24584
21
-4.53782
0
LINE
8
BLACK
6
CONTINUOUS
10
5.24584
20
-4.53782
11
5.24623
21
-4.53714
0
LINE
8
BLACK
6
CONTINUOUS
10
5.24623
20
-4.53714
11
5.24652
21
-4.53639
0
LINE
8
BLACK
6
CONTINUOUS
10
5.24652
20
-4.53639
11
5.25536
21
-4.52629
0
LINE
8
BLACK
6
CONTINUOUS
10
5.25536
20
-4.52629
11
5.2375
21
-4.52629
0
LINE
8
BLACK
6
CONTINUOUS
10
5.2375
20
-4.52629
11
5.23649
21
-4.52611
0
LINE
8
BLACK
6
CONTINUOUS
10
5.23649
20
-4.52611
11
5.23494
21
-4.52482
0
LINE
8
BLACK
6
CONTINUOUS
10
5.23494
20
-4.52482
11
5.23459
21
-4.52283
0
LINE
8
BLACK
6
CONTINUOUS
10
5.23459
20
-4.52283
11
5.2356
21
-4.52108
0
LINE
8
BLACK
6
CONTINUOUS
10
5.2356
20
-4.52108
11
5.2375
21
-4.52039
0
LINE
8
BLACK
6
CONTINUOUS
10
5.2375
20
-4.52039
11
5.26187
21
-4.52039
0
LINE
8
BLACK
6
CONTINUOUS
10
5.26187
20
-4.52039
11
5.2623
21
-4.52046
0
LINE
8
BLACK
6
CONTINUOUS
10
5.32287
20
-4.52056
11
5.323
21
-4.52068
0
LINE
8
BLACK
6
CONTINUOUS
10
5.323
20
-4.52068
11
5.32318
21
-4.5207
0
LINE
8
BLACK
6
CONTINUOUS
10
5.32318
20
-4.5207
11
5.32693
21
-4.52257
0
LINE
8
BLACK
6
CONTINUOUS
10
5.32693
20
-4.52257
11
5.32764
21
-4.5231
0
LINE
8
BLACK
6
CONTINUOUS
10
5.32764
20
-4.5231
11
5.3277
21
-4.52313
0
LINE
8
BLACK
6
CONTINUOUS
10
5.3277
20
-4.52313
11
5.32957
21
-4.525
0
LINE
8
BLACK
6
CONTINUOUS
10
5.32957
20
-4.525
11
5.33008
21
-4.52572
0
LINE
8
BLACK
6
CONTINUOUS
10
5.33008
20
-4.52572
11
5.33013
21
-4.52577
0
LINE
8
BLACK
6
CONTINUOUS
10
5.33013
20
-4.52577
11
5.332
21
-4.52952
0
LINE
8
BLACK
6
CONTINUOUS
10
5.332
20
-4.52952
11
5.33229
21
-4.5305
0
LINE
8
BLACK
6
CONTINUOUS
10
5.33229
20
-4.5305
11
5.33225
21
-4.53067
0
LINE
8
BLACK
6
CONTINUOUS
10
5.33225
20
-4.53067
11
5.33231
21
-4.53084
0
LINE
8
BLACK
6
CONTINUOUS
10
5.33231
20
-4.53084
11
5.33231
21
-4.53459
0
LINE
8
BLACK
6
CONTINUOUS
10
5.33231
20
-4.53459
11
5.33213
21
-4.5356
0
LINE
8
BLACK
6
CONTINUOUS
10
5.33213
20
-4.5356
11
5.33202
21
-4.53573
0
LINE
8
BLACK
6
CONTINUOUS
10
5.33202
20
-4.53573
11
5.332
21
-4.53591
0
LINE
8
BLACK
6
CONTINUOUS
10
5.332
20
-4.53591
11
5.33013
21
-4.53966
0
LINE
8
BLACK
6
CONTINUOUS
10
5.33013
20
-4.53966
11
5.3296
21
-4.54037
0
LINE
8
BLACK
6
CONTINUOUS
10
5.3296
20
-4.54037
11
5.32957
21
-4.54043
0
LINE
8
BLACK
6
CONTINUOUS
10
5.32957
20
-4.54043
11
5.32869
21
-4.54131
0
LINE
8
BLACK
6
CONTINUOUS
10
5.32869
20
-4.54131
11
5.32932
21
-4.54165
0
LINE
8
BLACK
6
CONTINUOUS
10
5.32932
20
-4.54165
11
5.32941
21
-4.5418
0
LINE
8
BLACK
6
CONTINUOUS
10
5.32941
20
-4.5418
11
5.32957
21
-4.54187
0
LINE
8
BLACK
6
CONTINUOUS
10
5.32957
20
-4.54187
11
5.33145
21
-4.54375
0
LINE
8
BLACK
6
CONTINUOUS
10
5.33145
20
-4.54375
11
5.33195
21
-4.54447
0
LINE
8
BLACK
6
CONTINUOUS
10
5.33195
20
-4.54447
11
5.332
21
-4.54452
0
LINE
8
BLACK
6
CONTINUOUS
10
5.332
20
-4.54452
11
5.33387
21
-4.54827
0
LINE
8
BLACK
6
CONTINUOUS
10
5.33387
20
-4.54827
11
5.33417
21
-4.54925
0
LINE
8
BLACK
6
CONTINUOUS
10
5.33417
20
-4.54925
11
5.33413
21
-4.54942
0
LINE
8
BLACK
6
CONTINUOUS
10
5.33413
20
-4.54942
11
5.33419
21
-4.54959
0
LINE
8
BLACK
6
CONTINUOUS
10
5.33419
20
-4.54959
11
5.33419
21
-4.55521
0
LINE
8
BLACK
6
CONTINUOUS
10
5.33419
20
-4.55521
11
5.33401
21
-4.55622
0
LINE
8
BLACK
6
CONTINUOUS
10
5.33401
20
-4.55622
11
5.33389
21
-4.55636
0
LINE
8
BLACK
6
CONTINUOUS
10
5.33389
20
-4.55636
11
5.33387
21
-4.55653
0
LINE
8
BLACK
6
CONTINUOUS
10
5.33387
20
-4.55653
11
5.332
21
-4.56028
0
LINE
8
BLACK
6
CONTINUOUS
10
5.332
20
-4.56028
11
5.33147
21
-4.56099
0
LINE
8
BLACK
6
CONTINUOUS
10
5.33147
20
-4.56099
11
5.33145
21
-4.56105
0
LINE
8
BLACK
6
CONTINUOUS
10
5.33145
20
-4.56105
11
5.32957
21
-4.56292
0
LINE
8
BLACK
6
CONTINUOUS
10
5.32957
20
-4.56292
11
5.32885
21
-4.56343
0
LINE
8
BLACK
6
CONTINUOUS
10
5.32885
20
-4.56343
11
5.3288
21
-4.56348
0
LINE
8
BLACK
6
CONTINUOUS
10
5.3288
20
-4.56348
11
5.32506
21
-4.56535
0
LINE
8
BLACK
6
CONTINUOUS
10
5.32506
20
-4.56535
11
5.32407
21
-4.56564
0
LINE
8
BLACK
6
CONTINUOUS
10
5.32407
20
-4.56564
11
5.3239
21
-4.5656
0
LINE
8
BLACK
6
CONTINUOUS
10
5.3239
20
-4.5656
11
5.32373
21
-4.56566
0
LINE
8
BLACK
6
CONTINUOUS
10
5.32373
20
-4.56566
11
5.30874
21
-4.56566
0
LINE
8
BLACK
6
CONTINUOUS
10
5.30874
20
-4.56566
11
5.30835
21
-4.56559
0
LINE
8
BLACK
6
CONTINUOUS
10
5.30835
20
-4.56559
11
5.30822
21
-4.56562
0
LINE
8
BLACK
6
CONTINUOUS
10
5.30822
20
-4.56562
11
5.30811
21
-4.56555
0
LINE
8
BLACK
6
CONTINUOUS
10
5.30811
20
-4.56555
11
5.30773
21
-4.56548
0
LINE
8
BLACK
6
CONTINUOUS
10
5.30773
20
-4.56548
11
5.30714
21
-4.56499
0
LINE
8
BLACK
6
CONTINUOUS
10
5.30714
20
-4.56499
11
5.30647
21
-4.56461
0
LINE
8
BLACK
6
CONTINUOUS
10
5.30647
20
-4.56461
11
5.30638
21
-4.56436
0
LINE
8
BLACK
6
CONTINUOUS
10
5.30638
20
-4.56436
11
5.30618
21
-4.56419
0
LINE
8
BLACK
6
CONTINUOUS
10
5.30618
20
-4.56419
11
5.30605
21
-4.56343
0
LINE
8
BLACK
6
CONTINUOUS
10
5.30605
20
-4.56343
11
5.30578
21
-4.56271
0
LINE
8
BLACK
6
CONTINUOUS
10
5.30578
20
-4.56271
11
5.30578
21
-4.52334
0
LINE
8
BLACK
6
CONTINUOUS
10
5.30578
20
-4.52334
11
5.30585
21
-4.52296
0
LINE
8
BLACK
6
CONTINUOUS
10
5.30585
20
-4.52296
11
5.30583
21
-4.52283
0
LINE
8
BLACK
6
CONTINUOUS
10
5.30583
20
-4.52283
11
5.30589
21
-4.52271
0
LINE
8
BLACK
6
CONTINUOUS
10
5.30589
20
-4.52271
11
5.30596
21
-4.52233
0
LINE
8
BLACK
6
CONTINUOUS
10
5.30596
20
-4.52233
11
5.30645
21
-4.52174
0
LINE
8
BLACK
6
CONTINUOUS
10
5.30645
20
-4.52174
11
5.30684
21
-4.52108
0
LINE
8
BLACK
6
CONTINUOUS
10
5.30684
20
-4.52108
11
5.30709
21
-4.52099
0
LINE
8
BLACK
6
CONTINUOUS
10
5.30709
20
-4.52099
11
5.30726
21
-4.52078
0
LINE
8
BLACK
6
CONTINUOUS
10
5.30726
20
-4.52078
11
5.30802
21
-4.52065
0
LINE
8
BLACK
6
CONTINUOUS
10
5.30802
20
-4.52065
11
5.30874
21
-4.52039
0
LINE
8
BLACK
6
CONTINUOUS
10
5.30874
20
-4.52039
11
5.32186
21
-4.52039
0
LINE
8
BLACK
6
CONTINUOUS
10
5.32186
20
-4.52039
11
5.32287
21
-4.52056
0
LINE
8
BLACK
6
CONTINUOUS
10
5.31169
20
-4.55976
11
5.32304
21
-4.55976
0
LINE
8
BLACK
6
CONTINUOUS
10
5.32304
20
-4.55976
11
5.32573
21
-4.55841
0
LINE
8
BLACK
6
CONTINUOUS
10
5.32573
20
-4.55841
11
5.32693
21
-4.55721
0
LINE
8
BLACK
6
CONTINUOUS
10
5.32693
20
-4.55721
11
5.32828
21
-4.55451
0
LINE
8
BLACK
6
CONTINUOUS
10
5.32828
20
-4.55451
11
5.32828
21
-4.55028
0
LINE
8
BLACK
6
CONTINUOUS
10
5.32828
20
-4.55028
11
5.32693
21
-4.54759
0
LINE
8
BLACK
6
CONTINUOUS
10
5.32693
20
-4.54759
11
5.32589
21
-4.54654
0
LINE
8
BLACK
6
CONTINUOUS
10
5.32589
20
-4.54654
11
5.32138
21
-4.54504
0
LINE
8
BLACK
6
CONTINUOUS
10
5.32138
20
-4.54504
11
5.31169
21
-4.54504
0
LINE
8
BLACK
6
CONTINUOUS
10
5.31169
20
-4.54504
11
5.31169
21
-4.55976
0
LINE
8
BLACK
6
CONTINUOUS
10
5.31169
20
-4.53913
11
5.32116
21
-4.53913
0
LINE
8
BLACK
6
CONTINUOUS
10
5.32116
20
-4.53913
11
5.32386
21
-4.53779
0
LINE
8
BLACK
6
CONTINUOUS
10
5.32386
20
-4.53779
11
5.32506
21
-4.53659
0
LINE
8
BLACK
6
CONTINUOUS
10
5.32506
20
-4.53659
11
5.32641
21
-4.53389
0
LINE
8
BLACK
6
CONTINUOUS
10
5.32641
20
-4.53389
11
5.32641
21
-4.53154
0
LINE
8
BLACK
6
CONTINUOUS
10
5.32641
20
-4.53154
11
5.32506
21
-4.52884
0
LINE
8
BLACK
6
CONTINUOUS
10
5.32506
20
-4.52884
11
5.32386
21
-4.52764
0
LINE
8
BLACK
6
CONTINUOUS
10
5.32386
20
-4.52764
11
5.32116
21
-4.52629
0
LINE
8
BLACK
6
CONTINUOUS
10
5.32116
20
-4.52629
11
5.31169
21
-4.52629
0
LINE
8
BLACK
6
CONTINUOUS
10
5.31169
20
-4.52629
11
5.31169
21
-4.53913
0
LINE
8
BLACK
6
CONTINUOUS
10
5.41036
20
-4.52144
11
5.41105
21
-4.52334
0
LINE
8
BLACK
6
CONTINUOUS
10
5.41105
20
-4.52334
11
5.41105
21
-4.56271
0
LINE
8
BLACK
6
CONTINUOUS
10
5.41105
20
-4.56271
11
5.41087
21
-4.56372
0
LINE
8
BLACK
6
CONTINUOUS
10
5.41087
20
-4.56372
11
5.40958
21
-4.56527
0
LINE
8
BLACK
6
CONTINUOUS
10
5.40958
20
-4.56527
11
5.40759
21
-4.56562
0
LINE
8
BLACK
6
CONTINUOUS
10
5.40759
20
-4.56562
11
5.40645
21
-4.56496
0
LINE
8
BLACK
6
CONTINUOUS
10
5.40645
20
-4.56496
11
5.40567
21
-4.56535
0
LINE
8
BLACK
6
CONTINUOUS
10
5.40567
20
-4.56535
11
5.40469
21
-4.56564
0
LINE
8
BLACK
6
CONTINUOUS
10
5.40469
20
-4.56564
11
5.40452
21
-4.5656
0
LINE
8
BLACK
6
CONTINUOUS
10
5.40452
20
-4.5656
11
5.40435
21
-4.56566
0
LINE
8
BLACK
6
CONTINUOUS
10
5.40435
20
-4.56566
11
5.39685
21
-4.56566
0
LINE
8
BLACK
6
CONTINUOUS
10
5.39685
20
-4.56566
11
5.39584
21
-4.56548
0
LINE
8
BLACK
6
CONTINUOUS
10
5.39584
20
-4.56548
11
5.39571
21
-4.56537
0
LINE
8
BLACK
6
CONTINUOUS
10
5.39571
20
-4.56537
11
5.39553
21
-4.56535
0
LINE
8
BLACK
6
CONTINUOUS
10
5.39553
20
-4.56535
11
5.39178
21
-4.56348
0
LINE
8
BLACK
6
CONTINUOUS
10
5.39178
20
-4.56348
11
5.39107
21
-4.56295
0
LINE
8
BLACK
6
CONTINUOUS
10
5.39107
20
-4.56295
11
5.39101
21
-4.56292
0
LINE
8
BLACK
6
CONTINUOUS
10
5.39101
20
-4.56292
11
5.38914
21
-4.56105
0
LINE
8
BLACK
6
CONTINUOUS
10
5.38914
20
-4.56105
11
5.38863
21
-4.56032
0
LINE
8
BLACK
6
CONTINUOUS
10
5.38863
20
-4.56032
11
5.38859
21
-4.56028
0
LINE
8
BLACK
6
CONTINUOUS
10
5.38859
20
-4.56028
11
5.38671
21
-4.55653
0
LINE
8
BLACK
6
CONTINUOUS
10
5.38671
20
-4.55653
11
5.38642
21
-4.55555
0
LINE
8
BLACK
6
CONTINUOUS
10
5.38642
20
-4.55555
11
5.38646
21
-4.55538
0
LINE
8
BLACK
6
CONTINUOUS
10
5.38646
20
-4.55538
11
5.3864
21
-4.55521
0
LINE
8
BLACK
6
CONTINUOUS
10
5.3864
20
-4.55521
11
5.3864
21
-4.54396
0
LINE
8
BLACK
6
CONTINUOUS
10
5.3864
20
-4.54396
11
5.38658
21
-4.54295
0
LINE
8
BLACK
6
CONTINUOUS
10
5.38658
20
-4.54295
11
5.38669
21
-4.54282
0
LINE
8
BLACK
6
CONTINUOUS
10
5.38669
20
-4.54282
11
5.38671
21
-4.54264
0
LINE
8
BLACK
6
CONTINUOUS
10
5.38671
20
-4.54264
11
5.38859
21
-4.53889
0
LINE
8
BLACK
6
CONTINUOUS
10
5.38859
20
-4.53889
11
5.38911
21
-4.53818
0
LINE
8
BLACK
6
CONTINUOUS
10
5.38911
20
-4.53818
11
5.38914
21
-4.53812
0
LINE
8
BLACK
6
CONTINUOUS
10
5.38914
20
-4.53812
11
5.39101
21
-4.53625
0
LINE
8
BLACK
6
CONTINUOUS
10
5.39101
20
-4.53625
11
5.39174
21
-4.53574
0
LINE
8
BLACK
6
CONTINUOUS
10
5.39174
20
-4.53574
11
5.39178
21
-4.5357
0
LINE
8
BLACK
6
CONTINUOUS
10
5.39178
20
-4.5357
11
5.39553
21
-4.53382
0
LINE
8
BLACK
6
CONTINUOUS
10
5.39553
20
-4.53382
11
5.39651
21
-4.53353
0
LINE
8
BLACK
6
CONTINUOUS
10
5.39651
20
-4.53353
11
5.39668
21
-4.53357
0
LINE
8
BLACK
6
CONTINUOUS
10
5.39668
20
-4.53357
11
5.39685
21
-4.53351
0
LINE
8
BLACK
6
CONTINUOUS
10
5.39685
20
-4.53351
11
5.40435
21
-4.53351
0
LINE
8
BLACK
6
CONTINUOUS
10
5.40435
20
-4.53351
11
5.40515
21
-4.53365
0
LINE
8
BLACK
6
CONTINUOUS
10
5.40515
20
-4.53365
11
5.40515
21
-4.52334
0
LINE
8
BLACK
6
CONTINUOUS
10
5.40515
20
-4.52334
11
5.40532
21
-4.52233
0
LINE
8
BLACK
6
CONTINUOUS
10
5.40532
20
-4.52233
11
5.40662
21
-4.52078
0
LINE
8
BLACK
6
CONTINUOUS
10
5.40662
20
-4.52078
11
5.40861
21
-4.52043
0
LINE
8
BLACK
6
CONTINUOUS
10
5.40861
20
-4.52043
11
5.41036
21
-4.52144
0
LINE
8
BLACK
6
CONTINUOUS
10
5.39485
20
-4.54076
11
5.39365
21
-4.54196
0
LINE
8
BLACK
6
CONTINUOUS
10
5.39365
20
-4.54196
11
5.3923
21
-4.54466
0
LINE
8
BLACK
6
CONTINUOUS
10
5.3923
20
-4.54466
11
5.3923
21
-4.55451
0
LINE
8
BLACK
6
CONTINUOUS
10
5.3923
20
-4.55451
11
5.39365
21
-4.55721
0
LINE
8
BLACK
6
CONTINUOUS
10
5.39365
20
-4.55721
11
5.39485
21
-4.55841
0
LINE
8
BLACK
6
CONTINUOUS
10
5.39485
20
-4.55841
11
5.39755
21
-4.55976
0
LINE
8
BLACK
6
CONTINUOUS
10
5.39755
20
-4.55976
11
5.40365
21
-4.55976
0
LINE
8
BLACK
6
CONTINUOUS
10
5.40365
20
-4.55976
11
5.40515
21
-4.55901
0
LINE
8
BLACK
6
CONTINUOUS
10
5.40515
20
-4.55901
11
5.40515
21
-4.54016
0
LINE
8
BLACK
6
CONTINUOUS
10
5.40515
20
-4.54016
11
5.40365
21
-4.53942
0
LINE
8
BLACK
6
CONTINUOUS
10
5.40365
20
-4.53942
11
5.39755
21
-4.53942
0
LINE
8
BLACK
6
CONTINUOUS
10
5.39755
20
-4.53942
11
5.39485
21
-4.54076
0
LINE
8
BLACK
6
CONTINUOUS
10
5.47473
20
-4.53369
11
5.47486
21
-4.5338
0
LINE
8
BLACK
6
CONTINUOUS
10
5.47486
20
-4.5338
11
5.47504
21
-4.53382
0
LINE
8
BLACK
6
CONTINUOUS
10
5.47504
20
-4.53382
11
5.47879
21
-4.5357
0
LINE
8
BLACK
6
CONTINUOUS
10
5.47879
20
-4.5357
11
5.47961
21
-4.53631
0
LINE
8
BLACK
6
CONTINUOUS
10
5.47961
20
-4.53631
11
5.47979
21
-4.53671
0
LINE
8
BLACK
6
CONTINUOUS
10
5.47979
20
-4.53671
11
5.48011
21
-4.53702
0
LINE
8
BLACK
6
CONTINUOUS
10
5.48011
20
-4.53702
11
5.48198
21
-4.54077
0
LINE
8
BLACK
6
CONTINUOUS
10
5.48198
20
-4.54077
11
5.48227
21
-4.54175
0
LINE
8
BLACK
6
CONTINUOUS
10
5.48227
20
-4.54175
11
5.48223
21
-4.54192
0
LINE
8
BLACK
6
CONTINUOUS
10
5.48223
20
-4.54192
11
5.48229
21
-4.54209
0
LINE
8
BLACK
6
CONTINUOUS
10
5.48229
20
-4.54209
11
5.48229
21
-4.54584
0
LINE
8
BLACK
6
CONTINUOUS
10
5.48229
20
-4.54584
11
5.48211
21
-4.54685
0
LINE
8
BLACK
6
CONTINUOUS
10
5.48211
20
-4.54685
11
5.4818
21
-4.54722
0
LINE
8
BLACK
6
CONTINUOUS
10
5.4818
20
-4.54722
11
5.48164
21
-4.54768
0
LINE
8
BLACK
6
CONTINUOUS
10
5.48164
20
-4.54768
11
5.48117
21
-4.54797
0
LINE
8
BLACK
6
CONTINUOUS
10
5.48117
20
-4.54797
11
5.48082
21
-4.54839
0
LINE
8
BLACK
6
CONTINUOUS
10
5.48082
20
-4.54839
11
5.48034
21
-4.54848
0
LINE
8
BLACK
6
CONTINUOUS
10
5.48034
20
-4.54848
11
5.47992
21
-4.54873
0
LINE
8
BLACK
6
CONTINUOUS
10
5.47992
20
-4.54873
11
5.46355
21
-4.55201
0
LINE
8
BLACK
6
CONTINUOUS
10
5.46355
20
-4.55201
11
5.46355
21
-4.55639
0
LINE
8
BLACK
6
CONTINUOUS
10
5.46355
20
-4.55639
11
5.46467
21
-4.55863
0
LINE
8
BLACK
6
CONTINUOUS
10
5.46467
20
-4.55863
11
5.46691
21
-4.55976
0
LINE
8
BLACK
6
CONTINUOUS
10
5.46691
20
-4.55976
11
5.47302
21
-4.55976
0
LINE
8
BLACK
6
CONTINUOUS
10
5.47302
20
-4.55976
11
5.47614
21
-4.55819
0
LINE
8
BLACK
6
CONTINUOUS
10
5.47614
20
-4.55819
11
5.47713
21
-4.5579
0
LINE
8
BLACK
6
CONTINUOUS
10
5.47713
20
-4.5579
11
5.47909
21
-4.55837
0
LINE
8
BLACK
6
CONTINUOUS
10
5.47909
20
-4.55837
11
5.4803
21
-4.55999
0
LINE
8
BLACK
6
CONTINUOUS
10
5.4803
20
-4.55999
11
5.48017
21
-4.56201
0
LINE
8
BLACK
6
CONTINUOUS
10
5.48017
20
-4.56201
11
5.47879
21
-4.56348
0
LINE
8
BLACK
6
CONTINUOUS
10
5.47879
20
-4.56348
11
5.47504
21
-4.56535
0
LINE
8
BLACK
6
CONTINUOUS
10
5.47504
20
-4.56535
11
5.47405
21
-4.56564
0
LINE
8
BLACK
6
CONTINUOUS
10
5.47405
20
-4.56564
11
5.47388
21
-4.5656
0
LINE
8
BLACK
6
CONTINUOUS
10
5.47388
20
-4.5656
11
5.47372
21
-4.56566
0
LINE
8
BLACK
6
CONTINUOUS
10
5.47372
20
-4.56566
11
5.46622
21
-4.56566
0
LINE
8
BLACK
6
CONTINUOUS
10
5.46622
20
-4.56566
11
5.46521
21
-4.56548
0
LINE
8
BLACK
6
CONTINUOUS
10
5.46521
20
-4.56548
11
5.46507
21
-4.56537
0
LINE
8
BLACK
6
CONTINUOUS
10
5.46507
20
-4.56537
11
5.4649
21
-4.56535
0
LINE
8
BLACK
6
CONTINUOUS
10
5.4649
20
-4.56535
11
5.46115
21
-4.56348
0
LINE
8
BLACK
6
CONTINUOUS
10
5.46115
20
-4.56348
11
5.46032
21
-4.56286
0
LINE
8
BLACK
6
CONTINUOUS
10
5.46032
20
-4.56286
11
5.46015
21
-4.56246
0
LINE
8
BLACK
6
CONTINUOUS
10
5.46015
20
-4.56246
11
5.45983
21
-4.56216
0
LINE
8
BLACK
6
CONTINUOUS
10
5.45983
20
-4.56216
11
5.45795
21
-4.55841
0
LINE
8
BLACK
6
CONTINUOUS
10
5.45795
20
-4.55841
11
5.45766
21
-4.55742
0
LINE
8
BLACK
6
CONTINUOUS
10
5.45766
20
-4.55742
11
5.4577
21
-4.55725
0
LINE
8
BLACK
6
CONTINUOUS
10
5.4577
20
-4.55725
11
5.45764
21
-4.55709
0
LINE
8
BLACK
6
CONTINUOUS
10
5.45764
20
-4.55709
11
5.45764
21
-4.54209
0
LINE
8
BLACK
6
CONTINUOUS
10
5.45764
20
-4.54209
11
5.45782
21
-4.54108
0
LINE
8
BLACK
6
CONTINUOUS
10
5.45782
20
-4.54108
11
5.45793
21
-4.54094
0
LINE
8
BLACK
6
CONTINUOUS
10
5.45793
20
-4.54094
11
5.45795
21
-4.54077
0
LINE
8
BLACK
6
CONTINUOUS
10
5.45795
20
-4.54077
11
5.45983
21
-4.53702
0
LINE
8
BLACK
6
CONTINUOUS
10
5.45983
20
-4.53702
11
5.46044
21
-4.53619
0
LINE
8
BLACK
6
CONTINUOUS
10
5.46044
20
-4.53619
11
5.46084
21
-4.53602
0
LINE
8
BLACK
6
CONTINUOUS
10
5.46084
20
-4.53602
11
5.46115
21
-4.5357
0
LINE
8
BLACK
6
CONTINUOUS
10
5.46115
20
-4.5357
11
5.4649
21
-4.53382
0
LINE
8
BLACK
6
CONTINUOUS
10
5.4649
20
-4.53382
11
5.46588
21
-4.53353
0
LINE
8
BLACK
6
CONTINUOUS
10
5.46588
20
-4.53353
11
5.46605
21
-4.53357
0
LINE
8
BLACK
6
CONTINUOUS
10
5.46605
20
-4.53357
11
5.46622
21
-4.53351
0
LINE
8
BLACK
6
CONTINUOUS
10
5.46622
20
-4.53351
11
5.47372
21
-4.53351
0
LINE
8
BLACK
6
CONTINUOUS
10
5.47372
20
-4.53351
11
5.47473
21
-4.53369
0
LINE
8
BLACK
6
CONTINUOUS
10
5.46467
20
-4.54054
11
5.46355
21
-4.54278
0
LINE
8
BLACK
6
CONTINUOUS
10
5.46355
20
-4.54278
11
5.46355
21
-4.54598
0
LINE
8
BLACK
6
CONTINUOUS
10
5.46355
20
-4.54598
11
5.47639
21
-4.54342
0
LINE
8
BLACK
6
CONTINUOUS
10
5.47639
20
-4.54342
11
5.47639
21
-4.54278
0
LINE
8
BLACK
6
CONTINUOUS
10
5.47639
20
-4.54278
11
5.47526
21
-4.54054
0
LINE
8
BLACK
6
CONTINUOUS
10
5.47526
20
-4.54054
11
5.47302
21
-4.53942
0
LINE
8
BLACK
6
CONTINUOUS
10
5.47302
20
-4.53942
11
5.46691
21
-4.53942
0
LINE
8
BLACK
6
CONTINUOUS
10
5.46691
20
-4.53942
11
5.46467
21
-4.54054
0
LINE
8
BLACK
6
CONTINUOUS
10
5.51535
20
-4.52144
11
5.51604
21
-4.52334
0
LINE
8
BLACK
6
CONTINUOUS
10
5.51604
20
-4.52334
11
5.51604
21
-4.56271
0
LINE
8
BLACK
6
CONTINUOUS
10
5.51604
20
-4.56271
11
5.51586
21
-4.56372
0
LINE
8
BLACK
6
CONTINUOUS
10
5.51586
20
-4.56372
11
5.51456
21
-4.56527
0
LINE
8
BLACK
6
CONTINUOUS
10
5.51456
20
-4.56527
11
5.51257
21
-4.56562
0
LINE
8
BLACK
6
CONTINUOUS
10
5.51257
20
-4.56562
11
5.51144
21
-4.56496
0
LINE
8
BLACK
6
CONTINUOUS
10
5.51144
20
-4.56496
11
5.51066
21
-4.56535
0
LINE
8
BLACK
6
CONTINUOUS
10
5.51066
20
-4.56535
11
5.50967
21
-4.56564
0
LINE
8
BLACK
6
CONTINUOUS
10
5.50967
20
-4.56564
11
5.5095
21
-4.5656
0
LINE
8
BLACK
6
CONTINUOUS
10
5.5095
20
-4.5656
11
5.50934
21
-4.56566
0
LINE
8
BLACK
6
CONTINUOUS
10
5.50934
20
-4.56566
11
5.50184
21
-4.56566
0
LINE
8
BLACK
6
CONTINUOUS
10
5.50184
20
-4.56566
11
5.50083
21
-4.56548
0
LINE
8
BLACK
6
CONTINUOUS
10
5.50083
20
-4.56548
11
5.50069
21
-4.56537
0
LINE
8
BLACK
6
CONTINUOUS
10
5.50069
20
-4.56537
11
5.50052
21
-4.56535
0
LINE
8
BLACK
6
CONTINUOUS
10
5.50052
20
-4.56535
11
5.49677
21
-4.56348
0
LINE
8
BLACK
6
CONTINUOUS
10
5.49677
20
-4.56348
11
5.49606
21
-4.56295
0
LINE
8
BLACK
6
CONTINUOUS
10
5.49606
20
-4.56295
11
5.496
21
-4.56292
0
LINE
8
BLACK
6
CONTINUOUS
10
5.496
20
-4.56292
11
5.49413
21
-4.56105
0
LINE
8
BLACK
6
CONTINUOUS
10
5.49413
20
-4.56105
11
5.49362
21
-4.56032
0
LINE
8
BLACK
6
CONTINUOUS
10
5.49362
20
-4.56032
11
5.49357
21
-4.56028
0
LINE
8
BLACK
6
CONTINUOUS
10
5.49357
20
-4.56028
11
5.4917
21
-4.55653
0
LINE
8
BLACK
6
CONTINUOUS
10
5.4917
20
-4.55653
11
5.4914
21
-4.55555
0
LINE
8
BLACK
6
CONTINUOUS
10
5.4914
20
-4.55555
11
5.49145
21
-4.55538
0
LINE
8
BLACK
6
CONTINUOUS
10
5.49145
20
-4.55538
11
5.49139
21
-4.55521
0
LINE
8
BLACK
6
CONTINUOUS
10
5.49139
20
-4.55521
11
5.49139
21
-4.54396
0
LINE
8
BLACK
6
CONTINUOUS
10
5.49139
20
-4.54396
11
5.49156
21
-4.54295
0
LINE
8
BLACK
6
CONTINUOUS
10
5.49156
20
-4.54295
11
5.49168
21
-4.54282
0
LINE
8
BLACK
6
CONTINUOUS
10
5.49168
20
-4.54282
11
5.4917
21
-4.54264
0
LINE
8
BLACK
6
CONTINUOUS
10
5.4917
20
-4.54264
11
5.49357
21
-4.53889
0
LINE
8
BLACK
6
CONTINUOUS
10
5.49357
20
-4.53889
11
5.4941
21
-4.53818
0
LINE
8
BLACK
6
CONTINUOUS
10
5.4941
20
-4.53818
11
5.49413
21
-4.53812
0
LINE
8
BLACK
6
CONTINUOUS
10
5.49413
20
-4.53812
11
5.496
21
-4.53625
0
LINE
8
BLACK
6
CONTINUOUS
10
5.496
20
-4.53625
11
5.49672
21
-4.53574
0
LINE
8
BLACK
6
CONTINUOUS
10
5.49672
20
-4.53574
11
5.49677
21
-4.5357
0
LINE
8
BLACK
6
CONTINUOUS
10
5.49677
20
-4.5357
11
5.50052
21
-4.53382
0
LINE
8
BLACK
6
CONTINUOUS
10
5.50052
20
-4.53382
11
5.5015
21
-4.53353
0
LINE
8
BLACK
6
CONTINUOUS
10
5.5015
20
-4.53353
11
5.50167
21
-4.53357
0
LINE
8
BLACK
6
CONTINUOUS
10
5.50167
20
-4.53357
11
5.50184
21
-4.53351
0
LINE
8
BLACK
6
CONTINUOUS
10
5.50184
20
-4.53351
11
5.50934
21
-4.53351
0
LINE
8
BLACK
6
CONTINUOUS
10
5.50934
20
-4.53351
11
5.51013
21
-4.53365
0
LINE
8
BLACK
6
CONTINUOUS
10
5.51013
20
-4.53365
11
5.51013
21
-4.52334
0
LINE
8
BLACK
6
CONTINUOUS
10
5.51013
20
-4.52334
11
5.51031
21
-4.52233
0
LINE
8
BLACK
6
CONTINUOUS
10
5.51031
20
-4.52233
11
5.51161
21
-4.52078
0
LINE
8
BLACK
6
CONTINUOUS
10
5.51161
20
-4.52078
11
5.5136
21
-4.52043
0
LINE
8
BLACK
6
CONTINUOUS
10
5.5136
20
-4.52043
11
5.51535
21
-4.52144
0
LINE
8
BLACK
6
CONTINUOUS
10
5.49984
20
-4.54076
11
5.49864
21
-4.54196
0
LINE
8
BLACK
6
CONTINUOUS
10
5.49864
20
-4.54196
11
5.49729
21
-4.54466
0
LINE
8
BLACK
6
CONTINUOUS
10
5.49729
20
-4.54466
11
5.49729
21
-4.55451
0
LINE
8
BLACK
6
CONTINUOUS
10
5.49729
20
-4.55451
11
5.49864
21
-4.55721
0
LINE
8
BLACK
6
CONTINUOUS
10
5.49864
20
-4.55721
11
5.49984
21
-4.55841
0
LINE
8
BLACK
6
CONTINUOUS
10
5.49984
20
-4.55841
11
5.50253
21
-4.55976
0
LINE
8
BLACK
6
CONTINUOUS
10
5.50253
20
-4.55976
11
5.50864
21
-4.55976
0
LINE
8
BLACK
6
CONTINUOUS
10
5.50864
20
-4.55976
11
5.51013
21
-4.55901
0
LINE
8
BLACK
6
CONTINUOUS
10
5.51013
20
-4.55901
11
5.51013
21
-4.54016
0
LINE
8
BLACK
6
CONTINUOUS
10
5.51013
20
-4.54016
11
5.50864
21
-4.53942
0
LINE
8
BLACK
6
CONTINUOUS
10
5.50864
20
-4.53942
11
5.50253
21
-4.53942
0
LINE
8
BLACK
6
CONTINUOUS
10
5.50253
20
-4.53942
11
5.49984
21
-4.54076
0
LINE
8
BLACK
6
CONTINUOUS
10
5.54155
20
-4.52046
11
5.54172
21
-4.52043
0
LINE
8
BLACK
6
CONTINUOUS
10
5.54172
20
-4.52043
11
5.54246
21
-4.52086
0
LINE
8
BLACK
6
CONTINUOUS
10
5.54246
20
-4.52086
11
5.54325
21
-4.5212
0
LINE
8
BLACK
6
CONTINUOUS
10
5.54325
20
-4.5212
11
5.54332
21
-4.52136
0
LINE
8
BLACK
6
CONTINUOUS
10
5.54332
20
-4.52136
11
5.54347
21
-4.52144
0
LINE
8
BLACK
6
CONTINUOUS
10
5.54347
20
-4.52144
11
5.54376
21
-4.52225
0
LINE
8
BLACK
6
CONTINUOUS
10
5.54376
20
-4.52225
11
5.54414
21
-4.52301
0
LINE
8
BLACK
6
CONTINUOUS
10
5.54414
20
-4.52301
11
5.5441
21
-4.52318
0
LINE
8
BLACK
6
CONTINUOUS
10
5.5441
20
-4.52318
11
5.54416
21
-4.52334
0
LINE
8
BLACK
6
CONTINUOUS
10
5.54416
20
-4.52334
11
5.54416
21
-4.55976
0
LINE
8
BLACK
6
CONTINUOUS
10
5.54416
20
-4.55976
11
5.55246
21
-4.55976
0
LINE
8
BLACK
6
CONTINUOUS
10
5.55246
20
-4.55976
11
5.55347
21
-4.55993
0
LINE
8
BLACK
6
CONTINUOUS
10
5.55347
20
-4.55993
11
5.55501
21
-4.56123
0
LINE
8
BLACK
6
CONTINUOUS
10
5.55501
20
-4.56123
11
5.55536
21
-4.56322
0
LINE
8
BLACK
6
CONTINUOUS
10
5.55536
20
-4.56322
11
5.55435
21
-4.56497
0
LINE
8
BLACK
6
CONTINUOUS
10
5.55435
20
-4.56497
11
5.55246
21
-4.56566
0
LINE
8
BLACK
6
CONTINUOUS
10
5.55246
20
-4.56566
11
5.52996
21
-4.56566
0
LINE
8
BLACK
6
CONTINUOUS
10
5.52996
20
-4.56566
11
5.52895
21
-4.56548
0
LINE
8
BLACK
6
CONTINUOUS
10
5.52895
20
-4.56548
11
5.5274
21
-4.56419
0
LINE
8
BLACK
6
CONTINUOUS
10
5.5274
20
-4.56419
11
5.52705
21
-4.5622
0
LINE
8
BLACK
6
CONTINUOUS
10
5.52705
20
-4.5622
11
5.52806
21
-4.56045
0
LINE
8
BLACK
6
CONTINUOUS
10
5.52806
20
-4.56045
11
5.52996
21
-4.55976
0
LINE
8
BLACK
6
CONTINUOUS
10
5.52996
20
-4.55976
11
5.53825
21
-4.55976
0
LINE
8
BLACK
6
CONTINUOUS
10
5.53825
20
-4.55976
11
5.53825
21
-4.53234
0
LINE
8
BLACK
6
CONTINUOUS
10
5.53825
20
-4.53234
11
5.5358
21
-4.5348
0
LINE
8
BLACK
6
CONTINUOUS
10
5.5358
20
-4.5348
11
5.53507
21
-4.53531
0
LINE
8
BLACK
6
CONTINUOUS
10
5.53507
20
-4.53531
11
5.53503
21
-4.53535
0
LINE
8
BLACK
6
CONTINUOUS
10
5.53503
20
-4.53535
11
5.53128
21
-4.53723
0
LINE
8
BLACK
6
CONTINUOUS
10
5.53128
20
-4.53723
11
5.5303
21
-4.53752
0
LINE
8
BLACK
6
CONTINUOUS
10
5.5303
20
-4.53752
11
5.52833
21
-4.53705
0
LINE
8
BLACK
6
CONTINUOUS
10
5.52833
20
-4.53705
11
5.52713
21
-4.53543
0
LINE
8
BLACK
6
CONTINUOUS
10
5.52713
20
-4.53543
11
5.52725
21
-4.53341
0
LINE
8
BLACK
6
CONTINUOUS
10
5.52725
20
-4.53341
11
5.52864
21
-4.53195
0
LINE
8
BLACK
6
CONTINUOUS
10
5.52864
20
-4.53195
11
5.53196
21
-4.53029
0
LINE
8
BLACK
6
CONTINUOUS
10
5.53196
20
-4.53029
11
5.53516
21
-4.52708
0
LINE
8
BLACK
6
CONTINUOUS
10
5.53516
20
-4.52708
11
5.53875
21
-4.5217
0
LINE
8
BLACK
6
CONTINUOUS
10
5.53875
20
-4.5217
11
5.53946
21
-4.52096
0
LINE
8
BLACK
6
CONTINUOUS
10
5.53946
20
-4.52096
11
5.53962
21
-4.52091
0
LINE
8
BLACK
6
CONTINUOUS
10
5.53962
20
-4.52091
11
5.53973
21
-4.52078
0
LINE
8
BLACK
6
CONTINUOUS
10
5.53973
20
-4.52078
11
5.54057
21
-4.52063
0
LINE
8
BLACK
6
CONTINUOUS
10
5.54057
20
-4.52063
11
5.5414
21
-4.52039
0
LINE
8
BLACK
6
CONTINUOUS
10
5.5414
20
-4.52039
11
5.54155
21
-4.52046
0
LINE
8
BLACK
6
CONTINUOUS
10
5.58346
20
-4.52056
11
5.5836
21
-4.52068
0
LINE
8
BLACK
6
CONTINUOUS
10
5.5836
20
-4.52068
11
5.58377
21
-4.5207
0
LINE
8
BLACK
6
CONTINUOUS
10
5.58377
20
-4.5207
11
5.58752
21
-4.52257
0
LINE
8
BLACK
6
CONTINUOUS
10
5.58752
20
-4.52257
11
5.58823
21
-4.5231
0
LINE
8
BLACK
6
CONTINUOUS
10
5.58823
20
-4.5231
11
5.58829
21
-4.52313
0
LINE
8
BLACK
6
CONTINUOUS
10
5.58829
20
-4.52313
11
5.59016
21
-4.525
0
LINE
8
BLACK
6
CONTINUOUS
10
5.59016
20
-4.525
11
5.59067
21
-4.52572
0
LINE
8
BLACK
6
CONTINUOUS
10
5.59067
20
-4.52572
11
5.59072
21
-4.52577
0
LINE
8
BLACK
6
CONTINUOUS
10
5.59072
20
-4.52577
11
5.59259
21
-4.52952
0
LINE
8
BLACK
6
CONTINUOUS
10
5.59259
20
-4.52952
11
5.59288
21
-4.5305
0
LINE
8
BLACK
6
CONTINUOUS
10
5.59288
20
-4.5305
11
5.59284
21
-4.53067
0
LINE
8
BLACK
6
CONTINUOUS
10
5.59284
20
-4.53067
11
5.5929
21
-4.53084
0
LINE
8
BLACK
6
CONTINUOUS
10
5.5929
20
-4.53084
11
5.5929
21
-4.53459
0
LINE
8
BLACK
6
CONTINUOUS
10
5.5929
20
-4.53459
11
5.59275
21
-4.53546
0
LINE
8
BLACK
6
CONTINUOUS
10
5.59275
20
-4.53546
11
5.59275
21
-4.53552
0
LINE
8
BLACK
6
CONTINUOUS
10
5.59275
20
-4.53552
11
5.59088
21
-4.54115
0
LINE
8
BLACK
6
CONTINUOUS
10
5.59088
20
-4.54115
11
5.59039
21
-4.54205
0
LINE
8
BLACK
6
CONTINUOUS
10
5.59039
20
-4.54205
11
5.59024
21
-4.54214
0
LINE
8
BLACK
6
CONTINUOUS
10
5.59024
20
-4.54214
11
5.59016
21
-4.5423
0
LINE
8
BLACK
6
CONTINUOUS
10
5.59016
20
-4.5423
11
5.57271
21
-4.55976
0
LINE
8
BLACK
6
CONTINUOUS
10
5.57271
20
-4.55976
11
5.58995
21
-4.55976
0
LINE
8
BLACK
6
CONTINUOUS
10
5.58995
20
-4.55976
11
5.59096
21
-4.55993
0
LINE
8
BLACK
6
CONTINUOUS
10
5.59096
20
-4.55993
11
5.59251
21
-4.56123
0
LINE
8
BLACK
6
CONTINUOUS
10
5.59251
20
-4.56123
11
5.59286
21
-4.56322
0
LINE
8
BLACK
6
CONTINUOUS
10
5.59286
20
-4.56322
11
5.59185
21
-4.56497
0
LINE
8
BLACK
6
CONTINUOUS
10
5.59185
20
-4.56497
11
5.58995
21
-4.56566
0
LINE
8
BLACK
6
CONTINUOUS
10
5.58995
20
-4.56566
11
5.56558
21
-4.56566
0
LINE
8
BLACK
6
CONTINUOUS
10
5.56558
20
-4.56566
11
5.56494
21
-4.56555
0
LINE
8
BLACK
6
CONTINUOUS
10
5.56494
20
-4.56555
11
5.56482
21
-4.56556
0
LINE
8
BLACK
6
CONTINUOUS
10
5.56482
20
-4.56556
11
5.56475
21
-4.56552
0
LINE
8
BLACK
6
CONTINUOUS
10
5.56475
20
-4.56552
11
5.56457
21
-4.56548
0
LINE
8
BLACK
6
CONTINUOUS
10
5.56457
20
-4.56548
11
5.56389
21
-4.56491
0
LINE
8
BLACK
6
CONTINUOUS
10
5.56389
20
-4.56491
11
5.56316
21
-4.5644
0
LINE
8
BLACK
6
CONTINUOUS
10
5.56316
20
-4.5644
11
5.56313
21
-4.56427
0
LINE
8
BLACK
6
CONTINUOUS
10
5.56313
20
-4.56427
11
5.56302
21
-4.56419
0
LINE
8
BLACK
6
CONTINUOUS
10
5.56302
20
-4.56419
11
5.56287
21
-4.56331
0
LINE
8
BLACK
6
CONTINUOUS
10
5.56287
20
-4.56331
11
5.56264
21
-4.56245
0
LINE
8
BLACK
6
CONTINUOUS
10
5.56264
20
-4.56245
11
5.56269
21
-4.56233
0
LINE
8
BLACK
6
CONTINUOUS
10
5.56269
20
-4.56233
11
5.56267
21
-4.5622
0
LINE
8
BLACK
6
CONTINUOUS
10
5.56267
20
-4.5622
11
5.56312
21
-4.56143
0
LINE
8
BLACK
6
CONTINUOUS
10
5.56312
20
-4.56143
11
5.56349
21
-4.56062
0
LINE
8
BLACK
6
CONTINUOUS
10
5.56349
20
-4.56062
11
5.5855
21
-4.53862
0
LINE
8
BLACK
6
CONTINUOUS
10
5.5855
20
-4.53862
11
5.587
21
-4.53411
0
LINE
8
BLACK
6
CONTINUOUS
10
5.587
20
-4.53411
11
5.587
21
-4.53154
0
LINE
8
BLACK
6
CONTINUOUS
10
5.587
20
-4.53154
11
5.58565
21
-4.52884
0
LINE
8
BLACK
6
CONTINUOUS
10
5.58565
20
-4.52884
11
5.58445
21
-4.52764
0
LINE
8
BLACK
6
CONTINUOUS
10
5.58445
20
-4.52764
11
5.58176
21
-4.52629
0
LINE
8
BLACK
6
CONTINUOUS
10
5.58176
20
-4.52629
11
5.57378
21
-4.52629
0
LINE
8
BLACK
6
CONTINUOUS
10
5.57378
20
-4.52629
11
5.57108
21
-4.52764
0
LINE
8
BLACK
6
CONTINUOUS
10
5.57108
20
-4.52764
11
5.56954
21
-4.52918
0
LINE
8
BLACK
6
CONTINUOUS
10
5.56954
20
-4.52918
11
5.5687
21
-4.52976
0
LINE
8
BLACK
6
CONTINUOUS
10
5.5687
20
-4.52976
11
5.56669
21
-4.52994
0
LINE
8
BLACK
6
CONTINUOUS
10
5.56669
20
-4.52994
11
5.56504
21
-4.52878
0
LINE
8
BLACK
6
CONTINUOUS
10
5.56504
20
-4.52878
11
5.56451
21
-4.52683
0
LINE
8
BLACK
6
CONTINUOUS
10
5.56451
20
-4.52683
11
5.56537
21
-4.525
0
LINE
8
BLACK
6
CONTINUOUS
10
5.56537
20
-4.525
11
5.56724
21
-4.52313
0
LINE
8
BLACK
6
CONTINUOUS
10
5.56724
20
-4.52313
11
5.56796
21
-4.52262
0
LINE
8
BLACK
6
CONTINUOUS
10
5.56796
20
-4.52262
11
5.56801
21
-4.52257
0
LINE
8
BLACK
6
CONTINUOUS
10
5.56801
20
-4.52257
11
5.57176
21
-4.5207
0
LINE
8
BLACK
6
CONTINUOUS
10
5.57176
20
-4.5207
11
5.57274
21
-4.52041
0
LINE
8
BLACK
6
CONTINUOUS
10
5.57274
20
-4.52041
11
5.57291
21
-4.52045
0
LINE
8
BLACK
6
CONTINUOUS
10
5.57291
20
-4.52045
11
5.57308
21
-4.52039
0
LINE
8
BLACK
6
CONTINUOUS
10
5.57308
20
-4.52039
11
5.58245
21
-4.52039
0
LINE
8
BLACK
6
CONTINUOUS
10
5.58245
20
-4.52039
11
5.58346
21
-4.52056
0
LINE
8
BLACK
6
CONTINUOUS
10
4.98729
20
-4.53369
11
4.98883
21
-4.53499
0
LINE
8
BLACK
6
CONTINUOUS
10
4.98883
20
-4.53499
11
4.98918
21
-4.53698
0
LINE
8
BLACK
6
CONTINUOUS
10
4.98918
20
-4.53698
11
4.98817
21
-4.53872
0
LINE
8
BLACK
6
CONTINUOUS
10
4.98817
20
-4.53872
11
4.98628
21
-4.53942
0
LINE
8
BLACK
6
CONTINUOUS
10
4.98628
20
-4.53942
11
4.98322
21
-4.53942
0
LINE
8
BLACK
6
CONTINUOUS
10
4.98322
20
-4.53942
11
4.98053
21
-4.54076
0
LINE
8
BLACK
6
CONTINUOUS
10
4.98053
20
-4.54076
11
4.97933
21
-4.54196
0
LINE
8
BLACK
6
CONTINUOUS
10
4.97933
20
-4.54196
11
4.97798
21
-4.54466
0
LINE
8
BLACK
6
CONTINUOUS
10
4.97798
20
-4.54466
11
4.97798
21
-4.56271
0
LINE
8
BLACK
6
CONTINUOUS
10
4.97798
20
-4.56271
11
4.9778
21
-4.56372
0
LINE
8
BLACK
6
CONTINUOUS
10
4.9778
20
-4.56372
11
4.9765
21
-4.56527
0
LINE
8
BLACK
6
CONTINUOUS
10
4.9765
20
-4.56527
11
4.97452
21
-4.56562
0
LINE
8
BLACK
6
CONTINUOUS
10
4.97452
20
-4.56562
11
4.97277
21
-4.56461
0
LINE
8
BLACK
6
CONTINUOUS
10
4.97277
20
-4.56461
11
4.97208
21
-4.56271
0
LINE
8
BLACK
6
CONTINUOUS
10
4.97208
20
-4.56271
11
4.97208
21
-4.53646
0
LINE
8
BLACK
6
CONTINUOUS
10
4.97208
20
-4.53646
11
4.97225
21
-4.53545
0
LINE
8
BLACK
6
CONTINUOUS
10
4.97225
20
-4.53545
11
4.97355
21
-4.53391
0
LINE
8
BLACK
6
CONTINUOUS
10
4.97355
20
-4.53391
11
4.97554
21
-4.53355
0
LINE
8
BLACK
6
CONTINUOUS
10
4.97554
20
-4.53355
11
4.97729
21
-4.53456
0
LINE
8
BLACK
6
CONTINUOUS
10
4.97729
20
-4.53456
11
4.97766
21
-4.53559
0
LINE
8
BLACK
6
CONTINUOUS
10
4.97766
20
-4.53559
11
4.98121
21
-4.53382
0
LINE
8
BLACK
6
CONTINUOUS
10
4.98121
20
-4.53382
11
4.98219
21
-4.53353
0
LINE
8
BLACK
6
CONTINUOUS
10
4.98219
20
-4.53353
11
4.98236
21
-4.53357
0
LINE
8
BLACK
6
CONTINUOUS
10
4.98236
20
-4.53357
11
4.98253
21
-4.53351
0
LINE
8
BLACK
6
CONTINUOUS
10
4.98253
20
-4.53351
11
4.98628
21
-4.53351
0
LINE
8
BLACK
6
CONTINUOUS
10
4.98628
20
-4.53351
11
4.98729
21
-4.53369
0
LINE
8
BLACK
6
CONTINUOUS
10
5.07728
20
-4.53369
11
5.07741
21
-4.5338
0
LINE
8
BLACK
6
CONTINUOUS
10
5.07741
20
-4.5338
11
5.07759
21
-4.53382
0
LINE
8
BLACK
6
CONTINUOUS
10
5.07759
20
-4.53382
11
5.08134
21
-4.5357
0
LINE
8
BLACK
6
CONTINUOUS
10
5.08134
20
-4.5357
11
5.08191
21
-4.53612
0
LINE
8
BLACK
6
CONTINUOUS
10
5.08191
20
-4.53612
11
5.08214
21
-4.53602
0
LINE
8
BLACK
6
CONTINUOUS
10
5.08214
20
-4.53602
11
5.08244
21
-4.5357
0
LINE
8
BLACK
6
CONTINUOUS
10
5.08244
20
-4.5357
11
5.08619
21
-4.53382
0
LINE
8
BLACK
6
CONTINUOUS
10
5.08619
20
-4.53382
11
5.08718
21
-4.53353
0
LINE
8
BLACK
6
CONTINUOUS
10
5.08718
20
-4.53353
11
5.08735
21
-4.53357
0
LINE
8
BLACK
6
CONTINUOUS
10
5.08735
20
-4.53357
11
5.08751
21
-4.53351
0
LINE
8
BLACK
6
CONTINUOUS
10
5.08751
20
-4.53351
11
5.09314
21
-4.53351
0
LINE
8
BLACK
6
CONTINUOUS
10
5.09314
20
-4.53351
11
5.09415
21
-4.53369
0
LINE
8
BLACK
6
CONTINUOUS
10
5.09415
20
-4.53369
11
5.09428
21
-4.5338
0
LINE
8
BLACK
6
CONTINUOUS
10
5.09428
20
-4.5338
11
5.09446
21
-4.53382
0
LINE
8
BLACK
6
CONTINUOUS
10
5.09446
20
-4.53382
11
5.09821
21
-4.5357
0
LINE
8
BLACK
6
CONTINUOUS
10
5.09821
20
-4.5357
11
5.09903
21
-4.53631
0
LINE
8
BLACK
6
CONTINUOUS
10
5.09903
20
-4.53631
11
5.09921
21
-4.53671
0
LINE
8
BLACK
6
CONTINUOUS
10
5.09921
20
-4.53671
11
5.09953
21
-4.53702
0
LINE
8
BLACK
6
CONTINUOUS
10
5.09953
20
-4.53702
11
5.1014
21
-4.54077
0
LINE
8
BLACK
6
CONTINUOUS
10
5.1014
20
-4.54077
11
5.1017
21
-4.54175
0
LINE
8
BLACK
6
CONTINUOUS
10
5.1017
20
-4.54175
11
5.10166
21
-4.54192
0
LINE
8
BLACK
6
CONTINUOUS
10
5.10166
20
-4.54192
11
5.10172
21
-4.54209
0
LINE
8
BLACK
6
CONTINUOUS
10
5.10172
20
-4.54209
11
5.10172
21
-4.56271
0
LINE
8
BLACK
6
CONTINUOUS
10
5.10172
20
-4.56271
11
5.10154
21
-4.56372
0
LINE
8
BLACK
6
CONTINUOUS
10
5.10154
20
-4.56372
11
5.10024
21
-4.56527
0
LINE
8
BLACK
6
CONTINUOUS
10
5.10024
20
-4.56527
11
5.09825
21
-4.56562
0
LINE
8
BLACK
6
CONTINUOUS
10
5.09825
20
-4.56562
11
5.0965
21
-4.56461
0
LINE
8
BLACK
6
CONTINUOUS
10
5.0965
20
-4.56461
11
5.09581
21
-4.56271
0
LINE
8
BLACK
6
CONTINUOUS
10
5.09581
20
-4.56271
11
5.09581
21
-4.54278
0
LINE
8
BLACK
6
CONTINUOUS
10
5.09581
20
-4.54278
11
5.09469
21
-4.54054
0
LINE
8
BLACK
6
CONTINUOUS
10
5.09469
20
-4.54054
11
5.09244
21
-4.53942
0
LINE
8
BLACK
6
CONTINUOUS
10
5.09244
20
-4.53942
11
5.08821
21
-4.53942
0
LINE
8
BLACK
6
CONTINUOUS
10
5.08821
20
-4.53942
11
5.08597
21
-4.54054
0
LINE
8
BLACK
6
CONTINUOUS
10
5.08597
20
-4.54054
11
5.08484
21
-4.54278
0
LINE
8
BLACK
6
CONTINUOUS
10
5.08484
20
-4.54278
11
5.08484
21
-4.56271
0
LINE
8
BLACK
6
CONTINUOUS
10
5.08484
20
-4.56271
11
5.08466
21
-4.56372
0
LINE
8
BLACK
6
CONTINUOUS
10
5.08466
20
-4.56372
11
5.08337
21
-4.56527
0
LINE
8
BLACK
6
CONTINUOUS
10
5.08337
20
-4.56527
11
5.08138
21
-4.56562
0
LINE
8
BLACK
6
CONTINUOUS
10
5.08138
20
-4.56562
11
5.07963
21
-4.56461
0
LINE
8
BLACK
6
CONTINUOUS
10
5.07963
20
-4.56461
11
5.07894
21
-4.56271
0
LINE
8
BLACK
6
CONTINUOUS
10
5.07894
20
-4.56271
11
5.07894
21
-4.54278
0
LINE
8
BLACK
6
CONTINUOUS
10
5.07894
20
-4.54278
11
5.07781
21
-4.54054
0
LINE
8
BLACK
6
CONTINUOUS
10
5.07781
20
-4.54054
11
5.07557
21
-4.53942
0
LINE
8
BLACK
6
CONTINUOUS
10
5.07557
20
-4.53942
11
5.07134
21
-4.53942
0
LINE
8
BLACK
6
CONTINUOUS
10
5.07134
20
-4.53942
11
5.06864
21
-4.54076
0
LINE
8
BLACK
6
CONTINUOUS
10
5.06864
20
-4.54076
11
5.06797
21
-4.54144
0
LINE
8
BLACK
6
CONTINUOUS
10
5.06797
20
-4.54144
11
5.06797
21
-4.56271
0
LINE
8
BLACK
6
CONTINUOUS
10
5.06797
20
-4.56271
11
5.06779
21
-4.56372
0
LINE
8
BLACK
6
CONTINUOUS
10
5.06779
20
-4.56372
11
5.06649
21
-4.56527
0
LINE
8
BLACK
6
CONTINUOUS
10
5.06649
20
-4.56527
11
5.0645
21
-4.56562
0
LINE
8
BLACK
6
CONTINUOUS
10
5.0645
20
-4.56562
11
5.06275
21
-4.56461
0
LINE
8
BLACK
6
CONTINUOUS
10
5.06275
20
-4.56461
11
5.06206
21
-4.56271
0
LINE
8
BLACK
6
CONTINUOUS
10
5.06206
20
-4.56271
11
5.06206
21
-4.53646
0
LINE
8
BLACK
6
CONTINUOUS
10
5.06206
20
-4.53646
11
5.06224
21
-4.53545
0
LINE
8
BLACK
6
CONTINUOUS
10
5.06224
20
-4.53545
11
5.06354
21
-4.53391
0
LINE
8
BLACK
6
CONTINUOUS
10
5.06354
20
-4.53391
11
5.06553
21
-4.53355
0
LINE
8
BLACK
6
CONTINUOUS
10
5.06553
20
-4.53355
11
5.06728
21
-4.53456
0
LINE
8
BLACK
6
CONTINUOUS
10
5.06728
20
-4.53456
11
5.06736
21
-4.5348
0
LINE
8
BLACK
6
CONTINUOUS
10
5.06736
20
-4.5348
11
5.06932
21
-4.53382
0
LINE
8
BLACK
6
CONTINUOUS
10
5.06932
20
-4.53382
11
5.0703
21
-4.53353
0
LINE
8
BLACK
6
CONTINUOUS
10
5.0703
20
-4.53353
11
5.07048
21
-4.53357
0
LINE
8
BLACK
6
CONTINUOUS
10
5.07048
20
-4.53357
11
5.07064
21
-4.53351
0
LINE
8
BLACK
6
CONTINUOUS
10
5.07064
20
-4.53351
11
5.07627
21
-4.53351
0
LINE
8
BLACK
6
CONTINUOUS
10
5.07627
20
-4.53351
11
5.07728
21
-4.53369
0
LINE
8
BLACK
6
CONTINUOUS
10
5.19914
20
-4.53369
11
5.20068
21
-4.53499
0
LINE
8
BLACK
6
CONTINUOUS
10
5.20068
20
-4.53499
11
5.20103
21
-4.53698
0
LINE
8
BLACK
6
CONTINUOUS
10
5.20103
20
-4.53698
11
5.20002
21
-4.53872
0
LINE
8
BLACK
6
CONTINUOUS
10
5.20002
20
-4.53872
11
5.19813
21
-4.53942
0
LINE
8
BLACK
6
CONTINUOUS
10
5.19813
20
-4.53942
11
5.19507
21
-4.53942
0
LINE
8
BLACK
6
CONTINUOUS
10
5.19507
20
-4.53942
11
5.19238
21
-4.54076
0
LINE
8
BLACK
6
CONTINUOUS
10
5.19238
20
-4.54076
11
5.19118
21
-4.54196
0
LINE
8
BLACK
6
CONTINUOUS
10
5.19118
20
-4.54196
11
5.18983
21
-4.54466
0
LINE
8
BLACK
6
CONTINUOUS
10
5.18983
20
-4.54466
11
5.18983
21
-4.56271
0
LINE
8
BLACK
6
CONTINUOUS
10
5.18983
20
-4.56271
11
5.18965
21
-4.56372
0
LINE
8
BLACK
6
CONTINUOUS
10
5.18965
20
-4.56372
11
5.18835
21
-4.56527
0
LINE
8
BLACK
6
CONTINUOUS
10
5.18835
20
-4.56527
11
5.18636
21
-4.56562
0
LINE
8
BLACK
6
CONTINUOUS
10
5.18636
20
-4.56562
11
5.18461
21
-4.56461
0
LINE
8
BLACK
6
CONTINUOUS
10
5.18461
20
-4.56461
11
5.18392
21
-4.56271
0
LINE
8
BLACK
6
CONTINUOUS
10
5.18392
20
-4.56271
11
5.18392
21
-4.53646
0
LINE
8
BLACK
6
CONTINUOUS
10
5.18392
20
-4.53646
11
5.1841
21
-4.53545
0
LINE
8
BLACK
6
CONTINUOUS
10
5.1841
20
-4.53545
11
5.1854
21
-4.53391
0
LINE
8
BLACK
6
CONTINUOUS
10
5.1854
20
-4.53391
11
5.18739
21
-4.53355
0
LINE
8
BLACK
6
CONTINUOUS
10
5.18739
20
-4.53355
11
5.18914
21
-4.53456
0
LINE
8
BLACK
6
CONTINUOUS
10
5.18914
20
-4.53456
11
5.18951
21
-4.53559
0
LINE
8
BLACK
6
CONTINUOUS
10
5.18951
20
-4.53559
11
5.19306
21
-4.53382
0
LINE
8
BLACK
6
CONTINUOUS
10
5.19306
20
-4.53382
11
5.19404
21
-4.53353
0
LINE
8
BLACK
6
CONTINUOUS
10
5.19404
20
-4.53353
11
5.19421
21
-4.53357
0
LINE
8
BLACK
6
CONTINUOUS
10
5.19421
20
-4.53357
11
5.19438
21
-4.53351
0
LINE
8
BLACK
6
CONTINUOUS
10
5.19438
20
-4.53351
11
5.19813
21
-4.53351
0
LINE
8
BLACK
6
CONTINUOUS
10
5.19813
20
-4.53351
11
5.19914
21
-4.53369
0
LINE
8
BLACK
6
CONTINUOUS
10
5.36037
20
-4.53369
11
5.36191
21
-4.53499
0
LINE
8
BLACK
6
CONTINUOUS
10
5.36191
20
-4.53499
11
5.36226
21
-4.53698
0
LINE
8
BLACK
6
CONTINUOUS
10
5.36226
20
-4.53698
11
5.36125
21
-4.53872
0
LINE
8
BLACK
6
CONTINUOUS
10
5.36125
20
-4.53872
11
5.35936
21
-4.53942
0
LINE
8
BLACK
6
CONTINUOUS
10
5.35936
20
-4.53942
11
5.3563
21
-4.53942
0
LINE
8
BLACK
6
CONTINUOUS
10
5.3563
20
-4.53942
11
5.35361
21
-4.54076
0
LINE
8
BLACK
6
CONTINUOUS
10
5.35361
20
-4.54076
11
5.35241
21
-4.54196
0
LINE
8
BLACK
6
CONTINUOUS
10
5.35241
20
-4.54196
11
5.35106
21
-4.54466
0
LINE
8
BLACK
6
CONTINUOUS
10
5.35106
20
-4.54466
11
5.35106
21
-4.56271
0
LINE
8
BLACK
6
CONTINUOUS
10
5.35106
20
-4.56271
11
5.35088
21
-4.56372
0
LINE
8
BLACK
6
CONTINUOUS
10
5.35088
20
-4.56372
11
5.34958
21
-4.56527
0
LINE
8
BLACK
6
CONTINUOUS
10
5.34958
20
-4.56527
11
5.34759
21
-4.56562
0
LINE
8
BLACK
6
CONTINUOUS
10
5.34759
20
-4.56562
11
5.34584
21
-4.56461
0
LINE
8
BLACK
6
CONTINUOUS
10
5.34584
20
-4.56461
11
5.34515
21
-4.56271
0
LINE
8
BLACK
6
CONTINUOUS
10
5.34515
20
-4.56271
11
5.34515
21
-4.53646
0
LINE
8
BLACK
6
CONTINUOUS
10
5.34515
20
-4.53646
11
5.34533
21
-4.53545
0
LINE
8
BLACK
6
CONTINUOUS
10
5.34533
20
-4.53545
11
5.34663
21
-4.53391
0
LINE
8
BLACK
6
CONTINUOUS
10
5.34663
20
-4.53391
11
5.34862
21
-4.53355
0
LINE
8
BLACK
6
CONTINUOUS
10
5.34862
20
-4.53355
11
5.35037
21
-4.53456
0
LINE
8
BLACK
6
CONTINUOUS
10
5.35037
20
-4.53456
11
5.35074
21
-4.53559
0
LINE
8
BLACK
6
CONTINUOUS
10
5.35074
20
-4.53559
11
5.35429
21
-4.53382
0
LINE
8
BLACK
6
CONTINUOUS
10
5.35429
20
-4.53382
11
5.35527
21
-4.53353
0
LINE
8
BLACK
6
CONTINUOUS
10
5.35527
20
-4.53353
11
5.35544
21
-4.53357
0
LINE
8
BLACK
6
CONTINUOUS
10
5.35544
20
-4.53357
11
5.35561
21
-4.53351
0
LINE
8
BLACK
6
CONTINUOUS
10
5.35561
20
-4.53351
11
5.35936
21
-4.53351
0
LINE
8
BLACK
6
CONTINUOUS
10
5.35936
20
-4.53351
11
5.36037
21
-4.53369
0
LINE
8
BLACK
6
CONTINUOUS
10
5.37474
20
-4.53456
11
5.37543
21
-4.53646
0
LINE
8
BLACK
6
CONTINUOUS
10
5.37543
20
-4.53646
11
5.37543
21
-4.56271
0
LINE
8
BLACK
6
CONTINUOUS
10
5.37543
20
-4.56271
11
5.37525
21
-4.56372
0
LINE
8
BLACK
6
CONTINUOUS
10
5.37525
20
-4.56372
11
5.37395
21
-4.56527
0
LINE
8
BLACK
6
CONTINUOUS
10
5.37395
20
-4.56527
11
5.37197
21
-4.56562
0
LINE
8
BLACK
6
CONTINUOUS
10
5.37197
20
-4.56562
11
5.37022
21
-4.56461
0
LINE
8
BLACK
6
CONTINUOUS
10
5.37022
20
-4.56461
11
5.36953
21
-4.56271
0
LINE
8
BLACK
6
CONTINUOUS
10
5.36953
20
-4.56271
11
5.36953
21
-4.53646
0
LINE
8
BLACK
6
CONTINUOUS
10
5.36953
20
-4.53646
11
5.3697
21
-4.53545
0
LINE
8
BLACK
6
CONTINUOUS
10
5.3697
20
-4.53545
11
5.371
21
-4.53391
0
LINE
8
BLACK
6
CONTINUOUS
10
5.371
20
-4.53391
11
5.37299
21
-4.53355
0
LINE
8
BLACK
6
CONTINUOUS
10
5.37299
20
-4.53355
11
5.37474
21
-4.53456
0
LINE
8
BLACK
6
CONTINUOUS
10
4.8873
20
-4.52144
11
4.88799
21
-4.52334
0
LINE
8
BLACK
6
CONTINUOUS
10
4.88799
20
-4.52334
11
4.88799
21
-4.55639
0
LINE
8
BLACK
6
CONTINUOUS
10
4.88799
20
-4.55639
11
4.88911
21
-4.55863
0
LINE
8
BLACK
6
CONTINUOUS
10
4.88911
20
-4.55863
11
4.89198
21
-4.56007
0
LINE
8
BLACK
6
CONTINUOUS
10
4.89198
20
-4.56007
11
4.89281
21
-4.56068
0
LINE
8
BLACK
6
CONTINUOUS
10
4.89281
20
-4.56068
11
4.89361
21
-4.56253
0
LINE
8
BLACK
6
CONTINUOUS
10
4.89361
20
-4.56253
11
4.89304
21
-4.56447
0
LINE
8
BLACK
6
CONTINUOUS
10
4.89304
20
-4.56447
11
4.89135
21
-4.56558
0
LINE
8
BLACK
6
CONTINUOUS
10
4.89135
20
-4.56558
11
4.88934
21
-4.56535
0
LINE
8
BLACK
6
CONTINUOUS
10
4.88934
20
-4.56535
11
4.88559
21
-4.56348
0
LINE
8
BLACK
6
CONTINUOUS
10
4.88559
20
-4.56348
11
4.88477
21
-4.56286
0
LINE
8
BLACK
6
CONTINUOUS
10
4.88477
20
-4.56286
11
4.88459
21
-4.56246
0
LINE
8
BLACK
6
CONTINUOUS
10
4.88459
20
-4.56246
11
4.88427
21
-4.56216
0
LINE
8
BLACK
6
CONTINUOUS
10
4.88427
20
-4.56216
11
4.8824
21
-4.55841
0
LINE
8
BLACK
6
CONTINUOUS
10
4.8824
20
-4.55841
11
4.88211
21
-4.55742
0
LINE
8
BLACK
6
CONTINUOUS
10
4.88211
20
-4.55742
11
4.88215
21
-4.55725
0
LINE
8
BLACK
6
CONTINUOUS
10
4.88215
20
-4.55725
11
4.88209
21
-4.55709
0
LINE
8
BLACK
6
CONTINUOUS
10
4.88209
20
-4.55709
11
4.88209
21
-4.52334
0
LINE
8
BLACK
6
CONTINUOUS
10
4.88209
20
-4.52334
11
4.88226
21
-4.52233
0
LINE
8
BLACK
6
CONTINUOUS
10
4.88226
20
-4.52233
11
4.88356
21
-4.52078
0
LINE
8
BLACK
6
CONTINUOUS
10
4.88356
20
-4.52078
11
4.88555
21
-4.52043
0
LINE
8
BLACK
6
CONTINUOUS
10
4.88555
20
-4.52043
11
4.8873
21
-4.52144
0
LINE
8
BLACK
6
CONTINUOUS
10
5.37286
20
-4.52045
11
5.37299
21
-4.52043
0
LINE
8
BLACK
6
CONTINUOUS
10
5.37299
20
-4.52043
11
5.37311
21
-4.5205
0
LINE
8
BLACK
6
CONTINUOUS
10
5.37311
20
-4.5205
11
5.37324
21
-4.52049
0
LINE
8
BLACK
6
CONTINUOUS
10
5.37324
20
-4.52049
11
5.37387
21
-4.52093
0
LINE
8
BLACK
6
CONTINUOUS
10
5.37387
20
-4.52093
11
5.37457
21
-4.52125
0
LINE
8
BLACK
6
CONTINUOUS
10
5.37457
20
-4.52125
11
5.37644
21
-4.52313
0
LINE
8
BLACK
6
CONTINUOUS
10
5.37644
20
-4.52313
11
5.37666
21
-4.52345
0
LINE
8
BLACK
6
CONTINUOUS
10
5.37666
20
-4.52345
11
5.37677
21
-4.52352
0
LINE
8
BLACK
6
CONTINUOUS
10
5.37677
20
-4.52352
11
5.37681
21
-4.52365
0
LINE
8
BLACK
6
CONTINUOUS
10
5.37681
20
-4.52365
11
5.37703
21
-4.52397
0
LINE
8
BLACK
6
CONTINUOUS
10
5.37703
20
-4.52397
11
5.3771
21
-4.52473
0
LINE
8
BLACK
6
CONTINUOUS
10
5.3771
20
-4.52473
11
5.37729
21
-4.52547
0
LINE
8
BLACK
6
CONTINUOUS
10
5.37729
20
-4.52547
11
5.37718
21
-4.52571
0
LINE
8
BLACK
6
CONTINUOUS
10
5.37718
20
-4.52571
11
5.37721
21
-4.52598
0
LINE
8
BLACK
6
CONTINUOUS
10
5.37721
20
-4.52598
11
5.37677
21
-4.52661
0
LINE
8
BLACK
6
CONTINUOUS
10
5.37677
20
-4.52661
11
5.37644
21
-4.5273
0
LINE
8
BLACK
6
CONTINUOUS
10
5.37644
20
-4.5273
11
5.37457
21
-4.52918
0
LINE
8
BLACK
6
CONTINUOUS
10
5.37457
20
-4.52918
11
5.37425
21
-4.5294
0
LINE
8
BLACK
6
CONTINUOUS
10
5.37425
20
-4.5294
11
5.37417
21
-4.52951
0
LINE
8
BLACK
6
CONTINUOUS
10
5.37417
20
-4.52951
11
5.37405
21
-4.52954
0
LINE
8
BLACK
6
CONTINUOUS
10
5.37405
20
-4.52954
11
5.37404
21
-4.52955
0
LINE
8
BLACK
6
CONTINUOUS
10
5.37404
20
-4.52955
11
5.37395
21
-4.52965
0
LINE
8
BLACK
6
CONTINUOUS
10
5.37395
20
-4.52965
11
5.37388
21
-4.52966
0
LINE
8
BLACK
6
CONTINUOUS
10
5.37388
20
-4.52966
11
5.37373
21
-4.52976
0
LINE
8
BLACK
6
CONTINUOUS
10
5.37373
20
-4.52976
11
5.37296
21
-4.52983
0
LINE
8
BLACK
6
CONTINUOUS
10
5.37296
20
-4.52983
11
5.37222
21
-4.53003
0
LINE
8
BLACK
6
CONTINUOUS
10
5.37222
20
-4.53003
11
5.3721
21
-4.52997
0
LINE
8
BLACK
6
CONTINUOUS
10
5.3721
20
-4.52997
11
5.37197
21
-4.53
0
LINE
8
BLACK
6
CONTINUOUS
10
5.37197
20
-4.53
11
5.37185
21
-4.52993
0
LINE
8
BLACK
6
CONTINUOUS
10
5.37185
20
-4.52993
11
5.37171
21
-4.52994
0
LINE
8
BLACK
6
CONTINUOUS
10
5.37171
20
-4.52994
11
5.37109
21
-4.5295
0
LINE
8
BLACK
6
CONTINUOUS
10
5.37109
20
-4.5295
11
5.37039
21
-4.52918
0
LINE
8
BLACK
6
CONTINUOUS
10
5.37039
20
-4.52918
11
5.36852
21
-4.5273
0
LINE
8
BLACK
6
CONTINUOUS
10
5.36852
20
-4.5273
11
5.36829
21
-4.52698
0
LINE
8
BLACK
6
CONTINUOUS
10
5.36829
20
-4.52698
11
5.36818
21
-4.52691
0
LINE
8
BLACK
6
CONTINUOUS
10
5.36818
20
-4.52691
11
5.36815
21
-4.52678
0
LINE
8
BLACK
6
CONTINUOUS
10
5.36815
20
-4.52678
11
5.36793
21
-4.52646
0
LINE
8
BLACK
6
CONTINUOUS
10
5.36793
20
-4.52646
11
5.36786
21
-4.5257
0
LINE
8
BLACK
6
CONTINUOUS
10
5.36786
20
-4.5257
11
5.36766
21
-4.52496
0
LINE
8
BLACK
6
CONTINUOUS
10
5.36766
20
-4.52496
11
5.36777
21
-4.52472
0
LINE
8
BLACK
6
CONTINUOUS
10
5.36777
20
-4.52472
11
5.36775
21
-4.52445
0
LINE
8
BLACK
6
CONTINUOUS
10
5.36775
20
-4.52445
11
5.36819
21
-4.52382
0
LINE
8
BLACK
6
CONTINUOUS
10
5.36819
20
-4.52382
11
5.36852
21
-4.52313
0
LINE
8
BLACK
6
CONTINUOUS
10
5.36852
20
-4.52313
11
5.37039
21
-4.52125
0
LINE
8
BLACK
6
CONTINUOUS
10
5.37039
20
-4.52125
11
5.37071
21
-4.52103
0
LINE
8
BLACK
6
CONTINUOUS
10
5.37071
20
-4.52103
11
5.37078
21
-4.52092
0
LINE
8
BLACK
6
CONTINUOUS
10
5.37078
20
-4.52092
11
5.37091
21
-4.52089
0
LINE
8
BLACK
6
CONTINUOUS
10
5.37091
20
-4.52089
11
5.37092
21
-4.52088
0
LINE
8
BLACK
6
CONTINUOUS
10
5.37092
20
-4.52088
11
5.371
21
-4.52078
0
LINE
8
BLACK
6
CONTINUOUS
10
5.371
20
-4.52078
11
5.37108
21
-4.52077
0
LINE
8
BLACK
6
CONTINUOUS
10
5.37108
20
-4.52077
11
5.37123
21
-4.52066
0
LINE
8
BLACK
6
CONTINUOUS
10
5.37123
20
-4.52066
11
5.37199
21
-4.5206
0
LINE
8
BLACK
6
CONTINUOUS
10
5.37199
20
-4.5206
11
5.37274
21
-4.5204
0
LINE
8
BLACK
6
CONTINUOUS
10
5.37274
20
-4.5204
11
5.37286
21
-4.52045
0
LINE
8
BLACK
6
CONTINUOUS
10
4.61406
20
-4.27519
11
4.62795
21
-4.27755
0
LINE
8
BLACK
6
CONTINUOUS
10
4.62795
20
-4.27755
11
4.64148
21
-4.28145
0
LINE
8
BLACK
6
CONTINUOUS
10
4.64148
20
-4.28145
11
4.6545
21
-4.28684
0
LINE
8
BLACK
6
CONTINUOUS
10
4.6545
20
-4.28684
11
4.66682
21
-4.29365
0
LINE
8
BLACK
6
CONTINUOUS
10
4.66682
20
-4.29365
11
4.67831
21
-4.3018
0
LINE
8
BLACK
6
CONTINUOUS
10
4.67831
20
-4.3018
11
4.68881
21
-4.31119
0
LINE
8
BLACK
6
CONTINUOUS
10
4.68881
20
-4.31119
11
4.6982
21
-4.32169
0
LINE
8
BLACK
6
CONTINUOUS
10
4.6982
20
-4.32169
11
4.70635
21
-4.33318
0
LINE
8
BLACK
6
CONTINUOUS
10
4.70635
20
-4.33318
11
4.71316
21
-4.3455
0
LINE
8
BLACK
6
CONTINUOUS
10
4.71316
20
-4.3455
11
4.71855
21
-4.35852
0
LINE
8
BLACK
6
CONTINUOUS
10
4.71855
20
-4.35852
11
4.72245
21
-4.37205
0
LINE
8
BLACK
6
CONTINUOUS
10
4.72245
20
-4.37205
11
4.72481
21
-4.38594
0
LINE
8
BLACK
6
CONTINUOUS
10
4.72481
20
-4.38594
11
4.7256
21
-4.4
0
LINE
8
BLACK
6
CONTINUOUS
10
4.7256
20
-4.4
11
4.72481
21
-4.41406
0
LINE
8
BLACK
6
CONTINUOUS
10
4.72481
20
-4.41406
11
4.72245
21
-4.42795
0
LINE
8
BLACK
6
CONTINUOUS
10
4.72245
20
-4.42795
11
4.71855
21
-4.44148
0
LINE
8
BLACK
6
CONTINUOUS
10
4.71855
20
-4.44148
11
4.71316
21
-4.4545
0
LINE
8
BLACK
6
CONTINUOUS
10
4.71316
20
-4.4545
11
4.70635
21
-4.46682
0
LINE
8
BLACK
6
CONTINUOUS
10
4.70635
20
-4.46682
11
4.6982
21
-4.47831
0
LINE
8
BLACK
6
CONTINUOUS
10
4.6982
20
-4.47831
11
4.68881
21
-4.48881
0
LINE
8
BLACK
6
CONTINUOUS
10
4.68881
20
-4.48881
11
4.67831
21
-4.4982
0
LINE
8
BLACK
6
CONTINUOUS
10
4.67831
20
-4.4982
11
4.66682
21
-4.50635
0
LINE
8
BLACK
6
CONTINUOUS
10
4.66682
20
-4.50635
11
4.6545
21
-4.51316
0
LINE
8
BLACK
6
CONTINUOUS
10
4.6545
20
-4.51316
11
4.64148
21
-4.51855
0
LINE
8
BLACK
6
CONTINUOUS
10
4.64148
20
-4.51855
11
4.62795
21
-4.52245
0
LINE
8
BLACK
6
CONTINUOUS
10
4.62795
20
-4.52245
11
4.61406
21
-4.52481
0
LINE
8
BLACK
6
CONTINUOUS
10
4.61406
20
-4.52481
11
4.6
21
-4.5256
0
LINE
8
BLACK
6
CONTINUOUS
10
4.6
20
-4.5256
11
4.58594
21
-4.52481
0
LINE
8
BLACK
6
CONTINUOUS
10
4.58594
20
-4.52481
11
4.57205
21
-4.52245
0
LINE
8
BLACK
6
CONTINUOUS
10
4.57205
20
-4.52245
11
4.55852
21
-4.51855
0
LINE
8
BLACK
6
CONTINUOUS
10
4.55852
20
-4.51855
11
4.5455
21
-4.51316
0
LINE
8
BLACK
6
CONTINUOUS
10
4.5455
20
-4.51316
11
4.53318
21
-4.50635
0
LINE
8
BLACK
6
CONTINUOUS
10
4.53318
20
-4.50635
11
4.52169
21
-4.4982
0
LINE
8
BLACK
6
CONTINUOUS
10
4.52169
20
-4.4982
11
4.51119
21
-4.48881
0
LINE
8
BLACK
6
CONTINUOUS
10
4.51119
20
-4.48881
11
4.5018
21
-4.47831
0
LINE
8
BLACK
6
CONTINUOUS
10
4.5018
20
-4.47831
11
4.49365
21
-4.46682
0
LINE
8
BLACK
6
CONTINUOUS
10
4.49365
20
-4.46682
11
4.48684
21
-4.4545
0
LINE
8
BLACK
6
CONTINUOUS
10
4.48684
20
-4.4545
11
4.48145
21
-4.44148
0
LINE
8
BLACK
6
CONTINUOUS
10
4.48145
20
-4.44148
11
4.47755
21
-4.42795
0
LINE
8
BLACK
6
CONTINUOUS
10
4.47755
20
-4.42795
11
4.47519
21
-4.41406
0
LINE
8
BLACK
6
CONTINUOUS
10
4.47519
20
-4.41406
11
4.4744
21
-4.4
0
LINE
8
BLACK
6
CONTINUOUS
10
4.4744
20
-4.4
11
4.47519
21
-4.38594
0
LINE
8
BLACK
6
CONTINUOUS
10
4.47519
20
-4.38594
11
4.47755
21
-4.37205
0
LINE
8
BLACK
6
CONTINUOUS
10
4.47755
20
-4.37205
11
4.48145
21
-4.35852
0
LINE
8
BLACK
6
CONTINUOUS
10
4.48145
20
-4.35852
11
4.48684
21
-4.3455
0
LINE
8
BLACK
6
CONTINUOUS
10
4.48684
20
-4.3455
11
4.49365
21
-4.33318
0
LINE
8
BLACK
6
CONTINUOUS
10
4.49365
20
-4.33318
11
4.5018
21
-4.32169
0
LINE
8
BLACK
6
CONTINUOUS
10
4.5018
20
-4.32169
11
4.51119
21
-4.31119
0
LINE
8
BLACK
6
CONTINUOUS
10
4.51119
20
-4.31119
11
4.52169
21
-4.3018
0
LINE
8
BLACK
6
CONTINUOUS
10
4.52169
20
-4.3018
11
4.53318
21
-4.29365
0
LINE
8
BLACK
6
CONTINUOUS
10
4.53318
20
-4.29365
11
4.5455
21
-4.28684
0
LINE
8
BLACK
6
CONTINUOUS
10
4.5455
20
-4.28684
11
4.55852
21
-4.28145
0
LINE
8
BLACK
6
CONTINUOUS
10
4.55852
20
-4.28145
11
4.57205
21
-4.27755
0
LINE
8
BLACK
6
CONTINUOUS
10
4.57205
20
-4.27755
11
4.58594
21
-4.27519
0
LINE
8
BLACK
6
CONTINUOUS
10
4.58594
20
-4.27519
11
4.6
21
-4.2744
0
LINE
8
BLACK
6
CONTINUOUS
10
4.6
20
-4.2744
11
4.61406
21
-4.27519
0
LINE
8
BLACK
6
CONTINUOUS
10
4.48996
20
-4.41286
11
4.4922
21
-4.42555
0
LINE
8
BLACK
6
CONTINUOUS
10
4.4922
20
-4.42555
11
4.49589
21
-4.43789
0
LINE
8
BLACK
6
CONTINUOUS
10
4.49589
20
-4.43789
11
4.501
21
-4.44972
0
LINE
8
BLACK
6
CONTINUOUS
10
4.501
20
-4.44972
11
4.50744
21
-4.46088
0
LINE
8
BLACK
6
CONTINUOUS
10
4.50744
20
-4.46088
11
4.51513
21
-4.47121
0
LINE
8
BLACK
6
CONTINUOUS
10
4.51513
20
-4.47121
11
4.52397
21
-4.48058
0
LINE
8
BLACK
6
CONTINUOUS
10
4.52397
20
-4.48058
11
4.53384
21
-4.48887
0
LINE
8
BLACK
6
CONTINUOUS
10
4.53384
20
-4.48887
11
4.54461
21
-4.49594
0
LINE
8
BLACK
6
CONTINUOUS
10
4.54461
20
-4.49594
11
4.55612
21
-4.50173
0
LINE
8
BLACK
6
CONTINUOUS
10
4.55612
20
-4.50173
11
4.56823
21
-4.50613
0
LINE
8
BLACK
6
CONTINUOUS
10
4.56823
20
-4.50613
11
4.58076
21
-4.5091
0
LINE
8
BLACK
6
CONTINUOUS
10
4.58076
20
-4.5091
11
4.59356
21
-4.5106
0
LINE
8
BLACK
6
CONTINUOUS
10
4.59356
20
-4.5106
11
4.60644
21
-4.5106
0
LINE
8
BLACK
6
CONTINUOUS
10
4.60644
20
-4.5106
11
4.61924
21
-4.5091
0
LINE
8
BLACK
6
CONTINUOUS
10
4.61924
20
-4.5091
11
4.63177
21
-4.50613
0
LINE
8
BLACK
6
CONTINUOUS
10
4.63177
20
-4.50613
11
4.64388
21
-4.50173
0
LINE
8
BLACK
6
CONTINUOUS
10
4.64388
20
-4.50173
11
4.65539
21
-4.49594
0
LINE
8
BLACK
6
CONTINUOUS
10
4.65539
20
-4.49594
11
4.66616
21
-4.48887
0
LINE
8
BLACK
6
CONTINUOUS
10
4.66616
20
-4.48887
11
4.67603
21
-4.48058
0
LINE
8
BLACK
6
CONTINUOUS
10
4.67603
20
-4.48058
11
4.68487
21
-4.47121
0
LINE
8
BLACK
6
CONTINUOUS
10
4.68487
20
-4.47121
11
4.69256
21
-4.46088
0
LINE
8
BLACK
6
CONTINUOUS
10
4.69256
20
-4.46088
11
4.699
21
-4.44972
0
LINE
8
BLACK
6
CONTINUOUS
10
4.699
20
-4.44972
11
4.70411
21
-4.43789
0
LINE
8
BLACK
6
CONTINUOUS
10
4.70411
20
-4.43789
11
4.7078
21
-4.42555
0
LINE
8
BLACK
6
CONTINUOUS
10
4.7078
20
-4.42555
11
4.71004
21
-4.41286
0
LINE
8
BLACK
6
CONTINUOUS
10
4.71004
20
-4.41286
11
4.71079
21
-4.4
0
LINE
8
BLACK
6
CONTINUOUS
10
4.71079
20
-4.4
11
4.71004
21
-4.38714
0
LINE
8
BLACK
6
CONTINUOUS
10
4.71004
20
-4.38714
11
4.7078
21
-4.37445
0
LINE
8
BLACK
6
CONTINUOUS
10
4.7078
20
-4.37445
11
4.70411
21
-4.36211
0
LINE
8
BLACK
6
CONTINUOUS
10
4.70411
20
-4.36211
11
4.699
21
-4.35028
0
LINE
8
BLACK
6
CONTINUOUS
10
4.699
20
-4.35028
11
4.69256
21
-4.33912
0
LINE
8
BLACK
6
CONTINUOUS
10
4.69256
20
-4.33912
11
4.68487
21
-4.32879
0
LINE
8
BLACK
6
CONTINUOUS
10
4.68487
20
-4.32879
11
4.67603
21
-4.31942
0
LINE
8
BLACK
6
CONTINUOUS
10
4.67603
20
-4.31942
11
4.66616
21
-4.31113
0
LINE
8
BLACK
6
CONTINUOUS
10
4.66616
20
-4.31113
11
4.65539
21
-4.30406
0
LINE
8
BLACK
6
CONTINUOUS
10
4.65539
20
-4.30406
11
4.64388
21
-4.29827
0
LINE
8
BLACK
6
CONTINUOUS
10
4.64388
20
-4.29827
11
4.63177
21
-4.29387
0
LINE
8
BLACK
6
CONTINUOUS
10
4.63177
20
-4.29387
11
4.61924
21
-4.2909
0
LINE
8
BLACK
6
CONTINUOUS
10
4.61924
20
-4.2909
11
4.60644
21
-4.2894
0
LINE
8
BLACK
6
CONTINUOUS
10
4.60644
20
-4.2894
11
4.59356
21
-4.2894
0
LINE
8
BLACK
6
CONTINUOUS
10
4.59356
20
-4.2894
11
4.58076
21
-4.2909
0
LINE
8
BLACK
6
CONTINUOUS
10
4.58076
20
-4.2909
11
4.56823
21
-4.29387
0
LINE
8
BLACK
6
CONTINUOUS
10
4.56823
20
-4.29387
11
4.55612
21
-4.29827
0
LINE
8
BLACK
6
CONTINUOUS
10
4.55612
20
-4.29827
11
4.54461
21
-4.30406
0
LINE
8
BLACK
6
CONTINUOUS
10
4.54461
20
-4.30406
11
4.53384
21
-4.31113
0
LINE
8
BLACK
6
CONTINUOUS
10
4.53384
20
-4.31113
11
4.52397
21
-4.31942
0
LINE
8
BLACK
6
CONTINUOUS
10
4.52397
20
-4.31942
11
4.51513
21
-4.32879
0
LINE
8
BLACK
6
CONTINUOUS
10
4.51513
20
-4.32879
11
4.50744
21
-4.33912
0
LINE
8
BLACK
6
CONTINUOUS
10
4.50744
20
-4.33912
11
4.501
21
-4.35028
0
LINE
8
BLACK
6
CONTINUOUS
10
4.501
20
-4.35028
11
4.49589
21
-4.36211
0
LINE
8
BLACK
6
CONTINUOUS
10
4.49589
20
-4.36211
11
4.4922
21
-4.37445
0
LINE
8
BLACK
6
CONTINUOUS
10
4.4922
20
-4.37445
11
4.48996
21
-4.38714
0
LINE
8
BLACK
6
CONTINUOUS
10
4.48996
20
-4.38714
11
4.48921
21
-4.4
0
LINE
8
BLACK
6
CONTINUOUS
10
4.48921
20
-4.4
11
4.48996
21
-4.41286
0
LINE
8
BLACK
6
CONTINUOUS
10
5.81406
20
-4.27519
11
5.82795
21
-4.27755
0
LINE
8
BLACK
6
CONTINUOUS
10
5.82795
20
-4.27755
11
5.84148
21
-4.28145
0
LINE
8
BLACK
6
CONTINUOUS
10
5.84148
20
-4.28145
11
5.8545
21
-4.28684
0
LINE
8
BLACK
6
CONTINUOUS
10
5.8545
20
-4.28684
11
5.86682
21
-4.29365
0
LINE
8
BLACK
6
CONTINUOUS
10
5.86682
20
-4.29365
11
5.87831
21
-4.3018
0
LINE
8
BLACK
6
CONTINUOUS
10
5.87831
20
-4.3018
11
5.88881
21
-4.31119
0
LINE
8
BLACK
6
CONTINUOUS
10
5.88881
20
-4.31119
11
5.8982
21
-4.32169
0
LINE
8
BLACK
6
CONTINUOUS
10
5.8982
20
-4.32169
11
5.90635
21
-4.33318
0
LINE
8
BLACK
6
CONTINUOUS
10
5.90635
20
-4.33318
11
5.91316
21
-4.3455
0
LINE
8
BLACK
6
CONTINUOUS
10
5.91316
20
-4.3455
11
5.91855
21
-4.35852
0
LINE
8
BLACK
6
CONTINUOUS
10
5.91855
20
-4.35852
11
5.92245
21
-4.37205
0
LINE
8
BLACK
6
CONTINUOUS
10
5.92245
20
-4.37205
11
5.92481
21
-4.38594
0
LINE
8
BLACK
6
CONTINUOUS
10
5.92481
20
-4.38594
11
5.9256
21
-4.4
0
LINE
8
BLACK
6
CONTINUOUS
10
5.9256
20
-4.4
11
5.92481
21
-4.41406
0
LINE
8
BLACK
6
CONTINUOUS
10
5.92481
20
-4.41406
11
5.92245
21
-4.42795
0
LINE
8
BLACK
6
CONTINUOUS
10
5.92245
20
-4.42795
11
5.91855
21
-4.44148
0
LINE
8
BLACK
6
CONTINUOUS
10
5.91855
20
-4.44148
11
5.91316
21
-4.4545
0
LINE
8
BLACK
6
CONTINUOUS
10
5.91316
20
-4.4545
11
5.90635
21
-4.46682
0
LINE
8
BLACK
6
CONTINUOUS
10
5.90635
20
-4.46682
11
5.8982
21
-4.47831
0
LINE
8
BLACK
6
CONTINUOUS
10
5.8982
20
-4.47831
11
5.88881
21
-4.48881
0
LINE
8
BLACK
6
CONTINUOUS
10
5.88881
20
-4.48881
11
5.87831
21
-4.4982
0
LINE
8
BLACK
6
CONTINUOUS
10
5.87831
20
-4.4982
11
5.86682
21
-4.50635
0
LINE
8
BLACK
6
CONTINUOUS
10
5.86682
20
-4.50635
11
5.8545
21
-4.51316
0
LINE
8
BLACK
6
CONTINUOUS
10
5.8545
20
-4.51316
11
5.84148
21
-4.51855
0
LINE
8
BLACK
6
CONTINUOUS
10
5.84148
20
-4.51855
11
5.82795
21
-4.52245
0
LINE
8
BLACK
6
CONTINUOUS
10
5.82795
20
-4.52245
11
5.81406
21
-4.52481
0
LINE
8
BLACK
6
CONTINUOUS
10
5.81406
20
-4.52481
11
5.8
21
-4.5256
0
LINE
8
BLACK
6
CONTINUOUS
10
5.8
20
-4.5256
11
5.78594
21
-4.52481
0
LINE
8
BLACK
6
CONTINUOUS
10
5.78594
20
-4.52481
11
5.77205
21
-4.52245
0
LINE
8
BLACK
6
CONTINUOUS
10
5.77205
20
-4.52245
11
5.75852
21
-4.51855
0
LINE
8
BLACK
6
CONTINUOUS
10
5.75852
20
-4.51855
11
5.7455
21
-4.51316
0
LINE
8
BLACK
6
CONTINUOUS
10
5.7455
20
-4.51316
11
5.73318
21
-4.50635
0
LINE
8
BLACK
6
CONTINUOUS
10
5.73318
20
-4.50635
11
5.72169
21
-4.4982
0
LINE
8
BLACK
6
CONTINUOUS
10
5.72169
20
-4.4982
11
5.71119
21
-4.48881
0
LINE
8
BLACK
6
CONTINUOUS
10
5.71119
20
-4.48881
11
5.7018
21
-4.47831
0
LINE
8
BLACK
6
CONTINUOUS
10
5.7018
20
-4.47831
11
5.69365
21
-4.46682
0
LINE
8
BLACK
6
CONTINUOUS
10
5.69365
20
-4.46682
11
5.68684
21
-4.4545
0
LINE
8
BLACK
6
CONTINUOUS
10
5.68684
20
-4.4545
11
5.68145
21
-4.44148
0
LINE
8
BLACK
6
CONTINUOUS
10
5.68145
20
-4.44148
11
5.67755
21
-4.42795
0
LINE
8
BLACK
6
CONTINUOUS
10
5.67755
20
-4.42795
11
5.67519
21
-4.41406
0
LINE
8
BLACK
6
CONTINUOUS
10
5.67519
20
-4.41406
11
5.6744
21
-4.4
0
LINE
8
BLACK
6
CONTINUOUS
10
5.6744
20
-4.4
11
5.67519
21
-4.38594
0
LINE
8
BLACK
6
CONTINUOUS
10
5.67519
20
-4.38594
11
5.67755
21
-4.37205
0
LINE
8
BLACK
6
CONTINUOUS
10
5.67755
20
-4.37205
11
5.68145
21
-4.35852
0
LINE
8
BLACK
6
CONTINUOUS
10
5.68145
20
-4.35852
11
5.68684
21
-4.3455
0
LINE
8
BLACK
6
CONTINUOUS
10
5.68684
20
-4.3455
11
5.69365
21
-4.33318
0
LINE
8
BLACK
6
CONTINUOUS
10
5.69365
20
-4.33318
11
5.7018
21
-4.32169
0
LINE
8
BLACK
6
CONTINUOUS
10
5.7018
20
-4.32169
11
5.71119
21
-4.31119
0
LINE
8
BLACK
6
CONTINUOUS
10
5.71119
20
-4.31119
11
5.72169
21
-4.3018
0
LINE
8
BLACK
6
CONTINUOUS
10
5.72169
20
-4.3018
11
5.73318
21
-4.29365
0
LINE
8
BLACK
6
CONTINUOUS
10
5.73318
20
-4.29365
11
5.7455
21
-4.28684
0
LINE
8
BLACK
6
CONTINUOUS
10
5.7455
20
-4.28684
11
5.75852
21
-4.28145
0
LINE
8
BLACK
6
CONTINUOUS
10
5.75852
20
-4.28145
11
5.77205
21
-4.27755
0
LINE
8
BLACK
6
CONTINUOUS
10
5.77205
20
-4.27755
11
5.78594
21
-4.27519
0
LINE
8
BLACK
6
CONTINUOUS
10
5.78594
20
-4.27519
11
5.8
21
-4.2744
0
LINE
8
BLACK
6
CONTINUOUS
10
5.8
20
-4.2744
11
5.81406
21
-4.27519
0
LINE
8
BLACK
6
CONTINUOUS
10
5.68996
20
-4.41286
11
5.6922
21
-4.42555
0
LINE
8
BLACK
6
CONTINUOUS
10
5.6922
20
-4.42555
11
5.69589
21
-4.43789
0
LINE
8
BLACK
6
CONTINUOUS
10
5.69589
20
-4.43789
11
5.701
21
-4.44972
0
LINE
8
BLACK
6
CONTINUOUS
10
5.701
20
-4.44972
11
5.70744
21
-4.46088
0
LINE
8
BLACK
6
CONTINUOUS
10
5.70744
20
-4.46088
11
5.71513
21
-4.47121
0
LINE
8
BLACK
6
CONTINUOUS
10
5.71513
20
-4.47121
11
5.72397
21
-4.48058
0
LINE
8
BLACK
6
CONTINUOUS
10
5.72397
20
-4.48058
11
5.73384
21
-4.48887
0
LINE
8
BLACK
6
CONTINUOUS
10
5.73384
20
-4.48887
11
5.74461
21
-4.49594
0
LINE
8
BLACK
6
CONTINUOUS
10
5.74461
20
-4.49594
11
5.75612
21
-4.50173
0
LINE
8
BLACK
6
CONTINUOUS
10
5.75612
20
-4.50173
11
5.76823
21
-4.50613
0
LINE
8
BLACK
6
CONTINUOUS
10
5.76823
20
-4.50613
11
5.78076
21
-4.5091
0
LINE
8
BLACK
6
CONTINUOUS
10
5.78076
20
-4.5091
11
5.79356
21
-4.5106
0
LINE
8
BLACK
6
CONTINUOUS
10
5.79356
20
-4.5106
11
5.80644
21
-4.5106
0
LINE
8
BLACK
6
CONTINUOUS
10
5.80644
20
-4.5106
11
5.81924
21
-4.5091
0
LINE
8
BLACK
6
CONTINUOUS
10
5.81924
20
-4.5091
11
5.83177
21
-4.50613
0
LINE
8
BLACK
6
CONTINUOUS
10
5.83177
20
-4.50613
11
5.84388
21
-4.50173
0
LINE
8
BLACK
6
CONTINUOUS
10
5.84388
20
-4.50173
11
5.85539
21
-4.49594
0
LINE
8
BLACK
6
CONTINUOUS
10
5.85539
20
-4.49594
11
5.86616
21
-4.48887
0
LINE
8
BLACK
6
CONTINUOUS
10
5.86616
20
-4.48887
11
5.87603
21
-4.48058
0
LINE
8
BLACK
6
CONTINUOUS
10
5.87603
20
-4.48058
11
5.88487
21
-4.47121
0
LINE
8
BLACK
6
CONTINUOUS
10
5.88487
20
-4.47121
11
5.89256
21
-4.46088
0
LINE
8
BLACK
6
CONTINUOUS
10
5.89256
20
-4.46088
11
5.899
21
-4.44972
0
LINE
8
BLACK
6
CONTINUOUS
10
5.899
20
-4.44972
11
5.90411
21
-4.43789
0
LINE
8
BLACK
6
CONTINUOUS
10
5.90411
20
-4.43789
11
5.9078
21
-4.42555
0
LINE
8
BLACK
6
CONTINUOUS
10
5.9078
20
-4.42555
11
5.91004
21
-4.41286
0
LINE
8
BLACK
6
CONTINUOUS
10
5.91004
20
-4.41286
11
5.91079
21
-4.4
0
LINE
8
BLACK
6
CONTINUOUS
10
5.91079
20
-4.4
11
5.91004
21
-4.38714
0
LINE
8
BLACK
6
CONTINUOUS
10
5.91004
20
-4.38714
11
5.9078
21
-4.37445
0
LINE
8
BLACK
6
CONTINUOUS
10
5.9078
20
-4.37445
11
5.90411
21
-4.36211
0
LINE
8
BLACK
6
CONTINUOUS
10
5.90411
20
-4.36211
11
5.899
21
-4.35028
0
LINE
8
BLACK
6
CONTINUOUS
10
5.899
20
-4.35028
11
5.89256
21
-4.33912
0
LINE
8
BLACK
6
CONTINUOUS
10
5.89256
20
-4.33912
11
5.88487
21
-4.32879
0
LINE
8
BLACK
6
CONTINUOUS
10
5.88487
20
-4.32879
11
5.87603
21
-4.31942
0
LINE
8
BLACK
6
CONTINUOUS
10
5.87603
20
-4.31942
11
5.86616
21
-4.31113
0
LINE
8
BLACK
6
CONTINUOUS
10
5.86616
20
-4.31113
11
5.85539
21
-4.30406
0
LINE
8
BLACK
6
CONTINUOUS
10
5.85539
20
-4.30406
11
5.84388
21
-4.29827
0
LINE
8
BLACK
6
CONTINUOUS
10
5.84388
20
-4.29827
11
5.83177
21
-4.29387
0
LINE
8
BLACK
6
CONTINUOUS
10
5.83177
20
-4.29387
11
5.81924
21
-4.2909
0
LINE
8
BLACK
6
CONTINUOUS
10
5.81924
20
-4.2909
11
5.80644
21
-4.2894
0
LINE
8
BLACK
6
CONTINUOUS
10
5.80644
20
-4.2894
11
5.79356
21
-4.2894
0
LINE
8
BLACK
6
CONTINUOUS
10
5.79356
20
-4.2894
11
5.78076
21
-4.2909
0
LINE
8
BLACK
6
CONTINUOUS
10
5.78076
20
-4.2909
11
5.76823
21
-4.29387
0
LINE
8
BLACK
6
CONTINUOUS
10
5.76823
20
-4.29387
11
5.75612
21
-4.29827
0
LINE
8
BLACK
6
CONTINUOUS
10
5.75612
20
-4.29827
11
5.74461
21
-4.30406
0
LINE
8
BLACK
6
CONTINUOUS
10
5.74461
20
-4.30406
11
5.73384
21
-4.31113
0
LINE
8
BLACK
6
CONTINUOUS
10
5.73384
20
-4.31113
11
5.72397
21
-4.31942
0
LINE
8
BLACK
6
CONTINUOUS
10
5.72397
20
-4.31942
11
5.71513
21
-4.32879
0
LINE
8
BLACK
6
CONTINUOUS
10
5.71513
20
-4.32879
11
5.70744
21
-4.33912
0
LINE
8
BLACK
6
CONTINUOUS
10
5.70744
20
-4.33912
11
5.701
21
-4.35028
0
LINE
8
BLACK
6
CONTINUOUS
10
5.701
20
-4.35028
11
5.69589
21
-4.36211
0
LINE
8
BLACK
6
CONTINUOUS
10
5.69589
20
-4.36211
11
5.6922
21
-4.37445
0
LINE
8
BLACK
6
CONTINUOUS
10
5.6922
20
-4.37445
11
5.68996
21
-4.38714
0
LINE
8
BLACK
6
CONTINUOUS
10
5.68996
20
-4.38714
11
5.68921
21
-4.4
0
LINE
8
BLACK
6
CONTINUOUS
10
5.68921
20
-4.4
11
5.68996
21
-4.41286
0
LINE
8
BLACK
6
CONTINUOUS
10
4.61406
20
-3.87519
11
4.62795
21
-3.87755
0
LINE
8
BLACK
6
CONTINUOUS
10
4.62795
20
-3.87755
11
4.64148
21
-3.88145
0
LINE
8
BLACK
6
CONTINUOUS
10
4.64148
20
-3.88145
11
4.6545
21
-3.88684
0
LINE
8
BLACK
6
CONTINUOUS
10
4.6545
20
-3.88684
11
4.66682
21
-3.89365
0
LINE
8
BLACK
6
CONTINUOUS
10
4.66682
20
-3.89365
11
4.67831
21
-3.9018
0
LINE
8
BLACK
6
CONTINUOUS
10
4.67831
20
-3.9018
11
4.68881
21
-3.91119
0
LINE
8
BLACK
6
CONTINUOUS
10
4.68881
20
-3.91119
11
4.6982
21
-3.92169
0
LINE
8
BLACK
6
CONTINUOUS
10
4.6982
20
-3.92169
11
4.70635
21
-3.93318
0
LINE
8
BLACK
6
CONTINUOUS
10
4.70635
20
-3.93318
11
4.71316
21
-3.9455
0
LINE
8
BLACK
6
CONTINUOUS
10
4.71316
20
-3.9455
11
4.71855
21
-3.95852
0
LINE
8
BLACK
6
CONTINUOUS
10
4.71855
20
-3.95852
11
4.72245
21
-3.97205
0
LINE
8
BLACK
6
CONTINUOUS
10
4.72245
20
-3.97205
11
4.72481
21
-3.98594
0
LINE
8
BLACK
6
CONTINUOUS
10
4.72481
20
-3.98594
11
4.7256
21
-4
0
LINE
8
BLACK
6
CONTINUOUS
10
4.7256
20
-4
11
4.72481
21
-4.01406
0
LINE
8
BLACK
6
CONTINUOUS
10
4.72481
20
-4.01406
11
4.72245
21
-4.02795
0
LINE
8
BLACK
6
CONTINUOUS
10
4.72245
20
-4.02795
11
4.71855
21
-4.04148
0
LINE
8
BLACK
6
CONTINUOUS
10
4.71855
20
-4.04148
11
4.71316
21
-4.0545
0
LINE
8
BLACK
6
CONTINUOUS
10
4.71316
20
-4.0545
11
4.70635
21
-4.06682
0
LINE
8
BLACK
6
CONTINUOUS
10
4.70635
20
-4.06682
11
4.6982
21
-4.07831
0
LINE
8
BLACK
6
CONTINUOUS
10
4.6982
20
-4.07831
11
4.68881
21
-4.08881
0
LINE
8
BLACK
6
CONTINUOUS
10
4.68881
20
-4.08881
11
4.67831
21
-4.0982
0
LINE
8
BLACK
6
CONTINUOUS
10
4.67831
20
-4.0982
11
4.66682
21
-4.10635
0
LINE
8
BLACK
6
CONTINUOUS
10
4.66682
20
-4.10635
11
4.6545
21
-4.11316
0
LINE
8
BLACK
6
CONTINUOUS
10
4.6545
20
-4.11316
11
4.64148
21
-4.11855
0
LINE
8
BLACK
6
CONTINUOUS
10
4.64148
20
-4.11855
11
4.62795
21
-4.12245
0
LINE
8
BLACK
6
CONTINUOUS
10
4.62795
20
-4.12245
11
4.61406
21
-4.12481
0
LINE
8
BLACK
6
CONTINUOUS
10
4.61406
20
-4.12481
11
4.6
21
-4.1256
0
LINE
8
BLACK
6
CONTINUOUS
10
4.6
20
-4.1256
11
4.58594
21
-4.12481
0
LINE
8
BLACK
6
CONTINUOUS
10
4.58594
20
-4.12481
11
4.57205
21
-4.12245
0
LINE
8
BLACK
6
CONTINUOUS
10
4.57205
20
-4.12245
11
4.55852
21
-4.11855
0
LINE
8
BLACK
6
CONTINUOUS
10
4.55852
20
-4.11855
11
4.5455
21
-4.11316
0
LINE
8
BLACK
6
CONTINUOUS
10
4.5455
20
-4.11316
11
4.53318
21
-4.10635
0
LINE
8
BLACK
6
CONTINUOUS
10
4.53318
20
-4.10635
11
4.52169
21
-4.0982
0
LINE
8
BLACK
6
CONTINUOUS
10
4.52169
20
-4.0982
11
4.51119
21
-4.08881
0
LINE
8
BLACK
6
CONTINUOUS
10
4.51119
20
-4.08881
11
4.5018
21
-4.07831
0
LINE
8
BLACK
6
CONTINUOUS
10
4.5018
20
-4.07831
11
4.49365
21
-4.06682
0
LINE
8
BLACK
6
CONTINUOUS
10
4.49365
20
-4.06682
11
4.48684
21
-4.0545
0
LINE
8
BLACK
6
CONTINUOUS
10
4.48684
20
-4.0545
11
4.48145
21
-4.04148
0
LINE
8
BLACK
6
CONTINUOUS
10
4.48145
20
-4.04148
11
4.47755
21
-4.02795
0
LINE
8
BLACK
6
CONTINUOUS
10
4.47755
20
-4.02795
11
4.47519
21
-4.01406
0
LINE
8
BLACK
6
CONTINUOUS
10
4.47519
20
-4.01406
11
4.4744
21
-4
0
LINE
8
BLACK
6
CONTINUOUS
10
4.4744
20
-4
11
4.47519
21
-3.98594
0
LINE
8
BLACK
6
CONTINUOUS
10
4.47519
20
-3.98594
11
4.47755
21
-3.97205
0
LINE
8
BLACK
6
CONTINUOUS
10
4.47755
20
-3.97205
11
4.48145
21
-3.95852
0
LINE
8
BLACK
6
CONTINUOUS
10
4.48145
20
-3.95852
11
4.48684
21
-3.9455
0
LINE
8
BLACK
6
CONTINUOUS
10
4.48684
20
-3.9455
11
4.49365
21
-3.93318
0
LINE
8
BLACK
6
CONTINUOUS
10
4.49365
20
-3.93318
11
4.5018
21
-3.92169
0
LINE
8
BLACK
6
CONTINUOUS
10
4.5018
20
-3.92169
11
4.51119
21
-3.91119
0
LINE
8
BLACK
6
CONTINUOUS
10
4.51119
20
-3.91119
11
4.52169
21
-3.9018
0
LINE
8
BLACK
6
CONTINUOUS
10
4.52169
20
-3.9018
11
4.53318
21
-3.89365
0
LINE
8
BLACK
6
CONTINUOUS
10
4.53318
20
-3.89365
11
4.5455
21
-3.88684
0
LINE
8
BLACK
6
CONTINUOUS
10
4.5455
20
-3.88684
11
4.55852
21
-3.88145
0
LINE
8
BLACK
6
CONTINUOUS
10
4.55852
20
-3.88145
11
4.57205
21
-3.87755
0
LINE
8
BLACK
6
CONTINUOUS
10
4.57205
20
-3.87755
11
4.58594
21
-3.87519
0
LINE
8
BLACK
6
CONTINUOUS
10
4.58594
20
-3.87519
11
4.6
21
-3.8744
0
LINE
8
BLACK
6
CONTINUOUS
10
4.6
20
-3.8744
11
4.61406
21
-3.87519
0
LINE
8
BLACK
6
CONTINUOUS
10
4.48996
20
-4.01286
11
4.4922
21
-4.02555
0
LINE
8
BLACK
6
CONTINUOUS
10
4.4922
20
-4.02555
11
4.49589
21
-4.03789
0
LINE
8
BLACK
6
CONTINUOUS
10
4.49589
20
-4.03789
11
4.501
21
-4.04972
0
LINE
8
BLACK
6
CONTINUOUS
10
4.501
20
-4.04972
11
4.50744
21
-4.06088
0
LINE
8
BLACK
6
CONTINUOUS
10
4.50744
20
-4.06088
11
4.51513
21
-4.07121
0
LINE
8
BLACK
6
CONTINUOUS
10
4.51513
20
-4.07121
11
4.52397
21
-4.08058
0
LINE
8
BLACK
6
CONTINUOUS
10
4.52397
20
-4.08058
11
4.53384
21
-4.08887
0
LINE
8
BLACK
6
CONTINUOUS
10
4.53384
20
-4.08887
11
4.54461
21
-4.09594
0
LINE
8
BLACK
6
CONTINUOUS
10
4.54461
20
-4.09594
11
4.55612
21
-4.10173
0
LINE
8
BLACK
6
CONTINUOUS
10
4.55612
20
-4.10173
11
4.56823
21
-4.10613
0
LINE
8
BLACK
6
CONTINUOUS
10
4.56823
20
-4.10613
11
4.58076
21
-4.1091
0
LINE
8
BLACK
6
CONTINUOUS
10
4.58076
20
-4.1091
11
4.59356
21
-4.1106
0
LINE
8
BLACK
6
CONTINUOUS
10
4.59356
20
-4.1106
11
4.60644
21
-4.1106
0
LINE
8
BLACK
6
CONTINUOUS
10
4.60644
20
-4.1106
11
4.61924
21
-4.1091
0
LINE
8
BLACK
6
CONTINUOUS
10
4.61924
20
-4.1091
11
4.63177
21
-4.10613
0
LINE
8
BLACK
6
CONTINUOUS
10
4.63177
20
-4.10613
11
4.64388
21
-4.10173
0
LINE
8
BLACK
6
CONTINUOUS
10
4.64388
20
-4.10173
11
4.65539
21
-4.09594
0
LINE
8
BLACK
6
CONTINUOUS
10
4.65539
20
-4.09594
11
4.66616
21
-4.08887
0
LINE
8
BLACK
6
CONTINUOUS
10
4.66616
20
-4.08887
11
4.67603
21
-4.08058
0
LINE
8
BLACK
6
CONTINUOUS
10
4.67603
20
-4.08058
11
4.68487
21
-4.07121
0
LINE
8
BLACK
6
CONTINUOUS
10
4.68487
20
-4.07121
11
4.69256
21
-4.06088
0
LINE
8
BLACK
6
CONTINUOUS
10
4.69256
20
-4.06088
11
4.699
21
-4.04972
0
LINE
8
BLACK
6
CONTINUOUS
10
4.699
20
-4.04972
11
4.70411
21
-4.03789
0
LINE
8
BLACK
6
CONTINUOUS
10
4.70411
20
-4.03789
11
4.7078
21
-4.02555
0
LINE
8
BLACK
6
CONTINUOUS
10
4.7078
20
-4.02555
11
4.71004
21
-4.01286
0
LINE
8
BLACK
6
CONTINUOUS
10
4.71004
20
-4.01286
11
4.71079
21
-4
0
LINE
8
BLACK
6
CONTINUOUS
10
4.71079
20
-4
11
4.71004
21
-3.98714
0
LINE
8
BLACK
6
CONTINUOUS
10
4.71004
20
-3.98714
11
4.7078
21
-3.97445
0
LINE
8
BLACK
6
CONTINUOUS
10
4.7078
20
-3.97445
11
4.70411
21
-3.96211
0
LINE
8
BLACK
6
CONTINUOUS
10
4.70411
20
-3.96211
11
4.699
21
-3.95028
0
LINE
8
BLACK
6
CONTINUOUS
10
4.699
20
-3.95028
11
4.69256
21
-3.93912
0
LINE
8
BLACK
6
CONTINUOUS
10
4.69256
20
-3.93912
11
4.68487
21
-3.92879
0
LINE
8
BLACK
6
CONTINUOUS
10
4.68487
20
-3.92879
11
4.67603
21
-3.91942
0
LINE
8
BLACK
6
CONTINUOUS
10
4.67603
20
-3.91942
11
4.66616
21
-3.91113
0
LINE
8
BLACK
6
CONTINUOUS
10
4.66616
20
-3.91113
11
4.65539
21
-3.90406
0
LINE
8
BLACK
6
CONTINUOUS
10
4.65539
20
-3.90406
11
4.64388
21
-3.89827
0
LINE
8
BLACK
6
CONTINUOUS
10
4.64388
20
-3.89827
11
4.63177
21
-3.89387
0
LINE
8
BLACK
6
CONTINUOUS
10
4.63177
20
-3.89387
11
4.61924
21
-3.8909
0
LINE
8
BLACK
6
CONTINUOUS
10
4.61924
20
-3.8909
11
4.60644
21
-3.8894
0
LINE
8
BLACK
6
CONTINUOUS
10
4.60644
20
-3.8894
11
4.59356
21
-3.8894
0
LINE
8
BLACK
6
CONTINUOUS
10
4.59356
20
-3.8894
11
4.58076
21
-3.8909
0
LINE
8
BLACK
6
CONTINUOUS
10
4.58076
20
-3.8909
11
4.56823
21
-3.89387
0
LINE
8
BLACK
6
CONTINUOUS
10
4.56823
20
-3.89387
11
4.55612
21
-3.89827
0
LINE
8
BLACK
6
CONTINUOUS
10
4.55612
20
-3.89827
11
4.54461
21
-3.90406
0
LINE
8
BLACK
6
CONTINUOUS
10
4.54461
20
-3.90406
11
4.53384
21
-3.91113
0
LINE
8
BLACK
6
CONTINUOUS
10
4.53384
20
-3.91113
11
4.52397
21
-3.91942
0
LINE
8
BLACK
6
CONTINUOUS
10
4.52397
20
-3.91942
11
4.51513
21
-3.92879
0
LINE
8
BLACK
6
CONTINUOUS
10
4.51513
20
-3.92879
11
4.50744
21
-3.93912
0
LINE
8
BLACK
6
CONTINUOUS
10
4.50744
20
-3.93912
11
4.501
21
-3.95028
0
LINE
8
BLACK
6
CONTINUOUS
10
4.501
20
-3.95028
11
4.49589
21
-3.96211
0
LINE
8
BLACK
6
CONTINUOUS
10
4.49589
20
-3.96211
11
4.4922
21
-3.97445
0
LINE
8
BLACK
6
CONTINUOUS
10
4.4922
20
-3.97445
11
4.48996
21
-3.98714
0
LINE
8
BLACK
6
CONTINUOUS
10
4.48996
20
-3.98714
11
4.48921
21
-4
0
LINE
8
BLACK
6
CONTINUOUS
10
4.48921
20
-4
11
4.48996
21
-4.01286
0
LINE
8
BLACK
6
CONTINUOUS
10
5.81406
20
-3.87519
11
5.82795
21
-3.87755
0
LINE
8
BLACK
6
CONTINUOUS
10
5.82795
20
-3.87755
11
5.84148
21
-3.88145
0
LINE
8
BLACK
6
CONTINUOUS
10
5.84148
20
-3.88145
11
5.8545
21
-3.88684
0
LINE
8
BLACK
6
CONTINUOUS
10
5.8545
20
-3.88684
11
5.86682
21
-3.89365
0
LINE
8
BLACK
6
CONTINUOUS
10
5.86682
20
-3.89365
11
5.87831
21
-3.9018
0
LINE
8
BLACK
6
CONTINUOUS
10
5.87831
20
-3.9018
11
5.88881
21
-3.91119
0
LINE
8
BLACK
6
CONTINUOUS
10
5.88881
20
-3.91119
11
5.8982
21
-3.92169
0
LINE
8
BLACK
6
CONTINUOUS
10
5.8982
20
-3.92169
11
5.90635
21
-3.93318
0
LINE
8
BLACK
6
CONTINUOUS
10
5.90635
20
-3.93318
11
5.91316
21
-3.9455
0
LINE
8
BLACK
6
CONTINUOUS
10
5.91316
20
-3.9455
11
5.91855
21
-3.95852
0
LINE
8
BLACK
6
CONTINUOUS
10
5.91855
20
-3.95852
11
5.92245
21
-3.97205
0
LINE
8
BLACK
6
CONTINUOUS
10
5.92245
20
-3.97205
11
5.92481
21
-3.98594
0
LINE
8
BLACK
6
CONTINUOUS
10
5.92481
20
-3.98594
11
5.9256
21
-4
0
LINE
8
BLACK
6
CONTINUOUS
10
5.9256
20
-4
11
5.92481
21
-4.01406
0
LINE
8
BLACK
6
CONTINUOUS
10
5.92481
20
-4.01406
11
5.92245
21
-4.02795
0
LINE
8
BLACK
6
CONTINUOUS
10
5.92245
20
-4.02795
11
5.91855
21
-4.04148
0
LINE
8
BLACK
6
CONTINUOUS
10
5.91855
20
-4.04148
11
5.91316
21
-4.0545
0
LINE
8
BLACK
6
CONTINUOUS
10
5.91316
20
-4.0545
11
5.90635
21
-4.06682
0
LINE
8
BLACK
6
CONTINUOUS
10
5.90635
20
-4.06682
11
5.8982
21
-4.07831
0
LINE
8
BLACK
6
CONTINUOUS
10
5.8982
20
-4.07831
11
5.88881
21
-4.08881
0
LINE
8
BLACK
6
CONTINUOUS
10
5.88881
20
-4.08881
11
5.87831
21
-4.0982
0
LINE
8
BLACK
6
CONTINUOUS
10
5.87831
20
-4.0982
11
5.86682
21
-4.10635
0
LINE
8
BLACK
6
CONTINUOUS
10
5.86682
20
-4.10635
11
5.8545
21
-4.11316
0
LINE
8
BLACK
6
CONTINUOUS
10
5.8545
20
-4.11316
11
5.84148
21
-4.11855
0
LINE
8
BLACK
6
CONTINUOUS
10
5.84148
20
-4.11855
11
5.82795
21
-4.12245
0
LINE
8
BLACK
6
CONTINUOUS
10
5.82795
20
-4.12245
11
5.81406
21
-4.12481
0
LINE
8
BLACK
6
CONTINUOUS
10
5.81406
20
-4.12481
11
5.8
21
-4.1256
0
LINE
8
BLACK
6
CONTINUOUS
10
5.8
20
-4.1256
11
5.78594
21
-4.12481
0
LINE
8
BLACK
6
CONTINUOUS
10
5.78594
20
-4.12481
11
5.77205
21
-4.12245
0
LINE
8
BLACK
6
CONTINUOUS
10
5.77205
20
-4.12245
11
5.75852
21
-4.11855
0
LINE
8
BLACK
6
CONTINUOUS
10
5.75852
20
-4.11855
11
5.7455
21
-4.11316
0
LINE
8
BLACK
6
CONTINUOUS
10
5.7455
20
-4.11316
11
5.73318
21
-4.10635
0
LINE
8
BLACK
6
CONTINUOUS
10
5.73318
20
-4.10635
11
5.72169
21
-4.0982
0
LINE
8
BLACK
6
CONTINUOUS
10
5.72169
20
-4.0982
11
5.71119
21
-4.08881
0
LINE
8
BLACK
6
CONTINUOUS
10
5.71119
20
-4.08881
11
5.7018
21
-4.07831
0
LINE
8
BLACK
6
CONTINUOUS
10
5.7018
20
-4.07831
11
5.69365
21
-4.06682
0
LINE
8
BLACK
6
CONTINUOUS
10
5.69365
20
-4.06682
11
5.68684
21
-4.0545
0
LINE
8
BLACK
6
CONTINUOUS
10
5.68684
20
-4.0545
11
5.68145
21
-4.04148
0
LINE
8
BLACK
6
CONTINUOUS
10
5.68145
20
-4.04148
11
5.67755
21
-4.02795
0
LINE
8
BLACK
6
CONTINUOUS
10
5.67755
20
-4.02795
11
5.67519
21
-4.01406
0
LINE
8
BLACK
6
CONTINUOUS
10
5.67519
20
-4.01406
11
5.6744
21
-4
0
LINE
8
BLACK
6
CONTINUOUS
10
5.6744
20
-4
11
5.67519
21
-3.98594
0
LINE
8
BLACK
6
CONTINUOUS
10
5.67519
20
-3.98594
11
5.67755
21
-3.97205
0
LINE
8
BLACK
6
CONTINUOUS
10
5.67755
20
-3.97205
11
5.68145
21
-3.95852
0
LINE
8
BLACK
6
CONTINUOUS
10
5.68145
20
-3.95852
11
5.68684
21
-3.9455
0
LINE
8
BLACK
6
CONTINUOUS
10
5.68684
20
-3.9455
11
5.69365
21
-3.93318
0
LINE
8
BLACK
6
CONTINUOUS
10
5.69365
20
-3.93318
11
5.7018
21
-3.92169
0
LINE
8
BLACK
6
CONTINUOUS
10
5.7018
20
-3.92169
11
5.71119
21
-3.91119
0
LINE
8
BLACK
6
CONTINUOUS
10
5.71119
20
-3.91119
11
5.72169
21
-3.9018
0
LINE
8
BLACK
6
CONTINUOUS
10
5.72169
20
-3.9018
11
5.73318
21
-3.89365
0
LINE
8
BLACK
6
CONTINUOUS
10
5.73318
20
-3.89365
11
5.7455
21
-3.88684
0
LINE
8
BLACK
6
CONTINUOUS
10
5.7455
20
-3.88684
11
5.75852
21
-3.88145
0
LINE
8
BLACK
6
CONTINUOUS
10
5.75852
20
-3.88145
11
5.77205
21
-3.87755
0
LINE
8
BLACK
6
CONTINUOUS
10
5.77205
20
-3.87755
11
5.78594
21
-3.87519
0
LINE
8
BLACK
6
CONTINUOUS
10
5.78594
20
-3.87519
11
5.8
21
-3.8744
0
LINE
8
BLACK
6
CONTINUOUS
10
5.8
20
-3.8744
11
5.81406
21
-3.87519
0
LINE
8
BLACK
6
CONTINUOUS
10
5.68996
20
-4.01286
11
5.6922
21
-4.02555
0
LINE
8
BLACK
6
CONTINUOUS
10
5.6922
20
-4.02555
11
5.69589
21
-4.03789
0
LINE
8
BLACK
6
CONTINUOUS
10
5.69589
20
-4.03789
11
5.701
21
-4.04972
0
LINE
8
BLACK
6
CONTINUOUS
10
5.701
20
-4.04972
11
5.70744
21
-4.06088
0
LINE
8
BLACK
6
CONTINUOUS
10
5.70744
20
-4.06088
11
5.71513
21
-4.07121
0
LINE
8
BLACK
6
CONTINUOUS
10
5.71513
20
-4.07121
11
5.72397
21
-4.08058
0
LINE
8
BLACK
6
CONTINUOUS
10
5.72397
20
-4.08058
11
5.73384
21
-4.08887
0
LINE
8
BLACK
6
CONTINUOUS
10
5.73384
20
-4.08887
11
5.74461
21
-4.09594
0
LINE
8
BLACK
6
CONTINUOUS
10
5.74461
20
-4.09594
11
5.75612
21
-4.10173
0
LINE
8
BLACK
6
CONTINUOUS
10
5.75612
20
-4.10173
11
5.76823
21
-4.10613
0
LINE
8
BLACK
6
CONTINUOUS
10
5.76823
20
-4.10613
11
5.78076
21
-4.1091
0
LINE
8
BLACK
6
CONTINUOUS
10
5.78076
20
-4.1091
11
5.79356
21
-4.1106
0
LINE
8
BLACK
6
CONTINUOUS
10
5.79356
20
-4.1106
11
5.80644
21
-4.1106
0
LINE
8
BLACK
6
CONTINUOUS
10
5.80644
20
-4.1106
11
5.81924
21
-4.1091
0
LINE
8
BLACK
6
CONTINUOUS
10
5.81924
20
-4.1091
11
5.83177
21
-4.10613
0
LINE
8
BLACK
6
CONTINUOUS
10
5.83177
20
-4.10613
11
5.84388
21
-4.10173
0
LINE
8
BLACK
6
CONTINUOUS
10
5.84388
20
-4.10173
11
5.85539
21
-4.09594
0
LINE
8
BLACK
6
CONTINUOUS
10
5.85539
20
-4.09594
11
5.86616
21
-4.08887
0
LINE
8
BLACK
6
CONTINUOUS
10
5.86616
20
-4.08887
11
5.87603
21
-4.08058
0
LINE
8
BLACK
6
CONTINUOUS
10
5.87603
20
-4.08058
11
5.88487
21
-4.07121
0
LINE
8
BLACK
6
CONTINUOUS
10
5.88487
20
-4.07121
11
5.89256
21
-4.06088
0
LINE
8
BLACK
6
CONTINUOUS
10
5.89256
20
-4.06088
11
5.899
21
-4.04972
0
LINE
8
BLACK
6
CONTINUOUS
10
5.899
20
-4.04972
11
5.90411
21
-4.03789
0
LINE
8
BLACK
6
CONTINUOUS
10
5.90411
20
-4.03789
11
5.9078
21
-4.02555
0
LINE
8
BLACK
6
CONTINUOUS
10
5.9078
20
-4.02555
11
5.91004
21
-4.01286
0
LINE
8
BLACK
6
CONTINUOUS
10
5.91004
20
-4.01286
11
5.91079
21
-4
0
LINE
8
BLACK
6
CONTINUOUS
10
5.91079
20
-4
11
5.91004
21
-3.98714
0
LINE
8
BLACK
6
CONTINUOUS
10
5.91004
20
-3.98714
11
5.9078
21
-3.97445
0
LINE
8
BLACK
6
CONTINUOUS
10
5.9078
20
-3.97445
11
5.90411
21
-3.96211
0
LINE
8
BLACK
6
CONTINUOUS
10
5.90411
20
-3.96211
11
5.899
21
-3.95028
0
LINE
8
BLACK
6
CONTINUOUS
10
5.899
20
-3.95028
11
5.89256
21
-3.93912
0
LINE
8
BLACK
6
CONTINUOUS
10
5.89256
20
-3.93912
11
5.88487
21
-3.92879
0
LINE
8
BLACK
6
CONTINUOUS
10
5.88487
20
-3.92879
11
5.87603
21
-3.91942
0
LINE
8
BLACK
6
CONTINUOUS
10
5.87603
20
-3.91942
11
5.86616
21
-3.91113
0
LINE
8
BLACK
6
CONTINUOUS
10
5.86616
20
-3.91113
11
5.85539
21
-3.90406
0
LINE
8
BLACK
6
CONTINUOUS
10
5.85539
20
-3.90406
11
5.84388
21
-3.89827
0
LINE
8
BLACK
6
CONTINUOUS
10
5.84388
20
-3.89827
11
5.83177
21
-3.89387
0
LINE
8
BLACK
6
CONTINUOUS
10
5.83177
20
-3.89387
11
5.81924
21
-3.8909
0
LINE
8
BLACK
6
CONTINUOUS
10
5.81924
20
-3.8909
11
5.80644
21
-3.8894
0
LINE
8
BLACK
6
CONTINUOUS
10
5.80644
20
-3.8894
11
5.79356
21
-3.8894
0
LINE
8
BLACK
6
CONTINUOUS
10
5.79356
20
-3.8894
11
5.78076
21
-3.8909
0
LINE
8
BLACK
6
CONTINUOUS
10
5.78076
20
-3.8909
11
5.76823
21
-3.89387
0
LINE
8
BLACK
6
CONTINUOUS
10
5.76823
20
-3.89387
11
5.75612
21
-3.89827
0
LINE
8
BLACK
6
CONTINUOUS
10
5.75612
20
-3.89827
11
5.74461
21
-3.90406
0
LINE
8
BLACK
6
CONTINUOUS
10
5.74461
20
-3.90406
11
5.73384
21
-3.91113
0
LINE
8
BLACK
6
CONTINUOUS
10
5.73384
20
-3.91113
11
5.72397
21
-3.91942
0
LINE
8
BLACK
6
CONTINUOUS
10
5.72397
20
-3.91942
11
5.71513
21
-3.92879
0
LINE
8
BLACK
6
CONTINUOUS
10
5.71513
20
-3.92879
11
5.70744
21
-3.93912
0
LINE
8
BLACK
6
CONTINUOUS
10
5.70744
20
-3.93912
11
5.701
21
-3.95028
0
LINE
8
BLACK
6
CONTINUOUS
10
5.701
20
-3.95028
11
5.69589
21
-3.96211
0
LINE
8
BLACK
6
CONTINUOUS
10
5.69589
20
-3.96211
11
5.6922
21
-3.97445
0
LINE
8
BLACK
6
CONTINUOUS
10
5.6922
20
-3.97445
11
5.68996
21
-3.98714
0
LINE
8
BLACK
6
CONTINUOUS
10
5.68996
20
-3.98714
11
5.68921
21
-4
0
LINE
8
BLACK
6
CONTINUOUS
10
5.68921
20
-4
11
5.68996
21
-4.01286
0
LINE
8
BLACK
6
CONTINUOUS
10
5.08038
20
-3.85711
11
5.08051
21
-3.85709
0
LINE
8
BLACK
6
CONTINUOUS
10
5.08051
20
-3.85709
11
5.08063
21
-3.85716
0
LINE
8
BLACK
6
CONTINUOUS
10
5.08063
20
-3.85716
11
5.08101
21
-3.85723
0
LINE
8
BLACK
6
CONTINUOUS
10
5.08101
20
-3.85723
11
5.0816
21
-3.85772
0
LINE
8
BLACK
6
CONTINUOUS
10
5.0816
20
-3.85772
11
5.08226
21
-3.8581
0
LINE
8
BLACK
6
CONTINUOUS
10
5.08226
20
-3.8581
11
5.08235
21
-3.85835
0
LINE
8
BLACK
6
CONTINUOUS
10
5.08235
20
-3.85835
11
5.08256
21
-3.85852
0
LINE
8
BLACK
6
CONTINUOUS
10
5.08256
20
-3.85852
11
5.08269
21
-3.85928
0
LINE
8
BLACK
6
CONTINUOUS
10
5.08269
20
-3.85928
11
5.08295
21
-3.86
0
LINE
8
BLACK
6
CONTINUOUS
10
5.08295
20
-3.86
11
5.08295
21
-4.06
0
LINE
8
BLACK
6
CONTINUOUS
10
5.08295
20
-4.06
11
5.08289
21
-4.06038
0
LINE
8
BLACK
6
CONTINUOUS
10
5.08289
20
-4.06038
11
5.08291
21
-4.06051
0
LINE
8
BLACK
6
CONTINUOUS
10
5.08291
20
-4.06051
11
5.08284
21
-4.06063
0
LINE
8
BLACK
6
CONTINUOUS
10
5.08284
20
-4.06063
11
5.08277
21
-4.06101
0
LINE
8
BLACK
6
CONTINUOUS
10
5.08277
20
-4.06101
11
5.08228
21
-4.0616
0
LINE
8
BLACK
6
CONTINUOUS
10
5.08228
20
-4.0616
11
5.0819
21
-4.06226
0
LINE
8
BLACK
6
CONTINUOUS
10
5.0819
20
-4.06226
11
5.08165
21
-4.06235
0
LINE
8
BLACK
6
CONTINUOUS
10
5.08165
20
-4.06235
11
5.08148
21
-4.06256
0
LINE
8
BLACK
6
CONTINUOUS
10
5.08148
20
-4.06256
11
5.08072
21
-4.06269
0
LINE
8
BLACK
6
CONTINUOUS
10
5.08072
20
-4.06269
11
5.08
21
-4.06295
0
LINE
8
BLACK
6
CONTINUOUS
10
5.08
20
-4.06295
11
4.78
21
-4.06295
0
LINE
8
BLACK
6
CONTINUOUS
10
4.78
20
-4.06295
11
4.77962
21
-4.06289
0
LINE
8
BLACK
6
CONTINUOUS
10
4.77962
20
-4.06289
11
4.77949
21
-4.06291
0
LINE
8
BLACK
6
CONTINUOUS
10
4.77949
20
-4.06291
11
4.77937
21
-4.06284
0
LINE
8
BLACK
6
CONTINUOUS
10
4.77937
20
-4.06284
11
4.77899
21
-4.06277
0
LINE
8
BLACK
6
CONTINUOUS
10
4.77899
20
-4.06277
11
4.7784
21
-4.06228
0
LINE
8
BLACK
6
CONTINUOUS
10
4.7784
20
-4.06228
11
4.77774
21
-4.0619
0
LINE
8
BLACK
6
CONTINUOUS
10
4.77774
20
-4.0619
11
4.77765
21
-4.06165
0
LINE
8
BLACK
6
CONTINUOUS
10
4.77765
20
-4.06165
11
4.77744
21
-4.06148
0
LINE
8
BLACK
6
CONTINUOUS
10
4.77744
20
-4.06148
11
4.77731
21
-4.06072
0
LINE
8
BLACK
6
CONTINUOUS
10
4.77731
20
-4.06072
11
4.77705
21
-4.06
0
LINE
8
BLACK
6
CONTINUOUS
10
4.77705
20
-4.06
11
4.77705
21
-3.86
0
LINE
8
BLACK
6
CONTINUOUS
10
4.77705
20
-3.86
11
4.77711
21
-3.85962
0
LINE
8
BLACK
6
CONTINUOUS
10
4.77711
20
-3.85962
11
4.77709
21
-3.85949
0
LINE
8
BLACK
6
CONTINUOUS
10
4.77709
20
-3.85949
11
4.77716
21
-3.85937
0
LINE
8
BLACK
6
CONTINUOUS
10
4.77716
20
-3.85937
11
4.77723
21
-3.85899
0
LINE
8
BLACK
6
CONTINUOUS
10
4.77723
20
-3.85899
11
4.77772
21
-3.8584
0
LINE
8
BLACK
6
CONTINUOUS
10
4.77772
20
-3.8584
11
4.7781
21
-3.85774
0
LINE
8
BLACK
6
CONTINUOUS
10
4.7781
20
-3.85774
11
4.77835
21
-3.85765
0
LINE
8
BLACK
6
CONTINUOUS
10
4.77835
20
-3.85765
11
4.77852
21
-3.85744
0
LINE
8
BLACK
6
CONTINUOUS
10
4.77852
20
-3.85744
11
4.77928
21
-3.85731
0
LINE
8
BLACK
6
CONTINUOUS
10
4.77928
20
-3.85731
11
4.78
21
-3.85705
0
LINE
8
BLACK
6
CONTINUOUS
10
4.78
20
-3.85705
11
5.08
21
-3.85705
0
LINE
8
BLACK
6
CONTINUOUS
10
5.08
20
-3.85705
11
5.08038
21
-3.85711
0
LINE
8
BLACK
6
CONTINUOUS
10
4.78295
20
-3.86295
11
4.78295
21
-4.05705
0
LINE
8
BLACK
6
CONTINUOUS
10
4.78295
20
-4.05705
11
5.07705
21
-4.05705
0
LINE
8
BLACK
6
CONTINUOUS
10
5.07705
20
-4.05705
11
5.07705
21
-3.86295
0
LINE
8
BLACK
6
CONTINUOUS
10
5.07705
20
-3.86295
11
4.78295
21
-3.86295
  0
ENDSEC
  0
EOF
