  0
SECTION
  2
HEADER
  9
$ANGBASE
  50
0.0
  9
$ANGDIR
  70
1
  9
$MEASUREMENT
  70
0
  0
ENDSEC
  0
SECTION
  2
TABLES
  0
TABLE
  2
LTYPE
  70
4
  0
LTYPE
  5
40F
  2
CONTINUOUS
  70
0
  3
Solid line
  72
65
  73
0
  40
0.0
  0
LTYPE
  5
410
  2
DASHDOT
 70
0
  3
Dash Dot ____ _ ____ _
 72
65
 73
4
 40
2.0
 49
1.25
 49
-0.25
 49
0.25
 49
-0.25
  0
LTYPE
  5
411
  2
DASHED
 70
0
  3
Dashed __ __ __ __ __
 72
65
 73
2
 40
0.75
 49
0.5
 49
-0.25
  0
LTYPE
  5
43B
  2
DOTTED
 70
0
  3
Dotted .  .  .  .
 72
65
 73
2
 40
0.2
 49
0.0
 49
-0.2
  0
ENDTAB
  0
TABLE
  2
STYLE
  70
4
  0
STYLE
  2
KICAD
  70
0
  40
0
  41
1
  42
1
  50
0
  71
0
  3
isocp.shx
  0
STYLE
  2
KICADB
  70
0
  40
0
  41
1
  42
1
  50
0
  71
0
  3
isocp.shx
  0
STYLE
  2
KICADI
  70
0
  40
0
  41
1
  42
1
  50
15
  71
0
  3
isocp.shx
  0
STYLE
  2
KICADBI
  70
0
  40
0
  41
1
  42
1
  50
15
  71
0
  3
isocp.shx
  0
ENDTAB
  0
TABLE
  2
LAYER
  70
1
  0
LAYER
  2
BLACK
  70
0
  62
7
  6
CONTINUOUS
  0
ENDTAB
  0
ENDSEC
  0
SECTION
  2
ENTITIES
0
LINE
8
BLACK
6
CONTINUOUS
10
5.49
20
-4.53
11
5.43
21
-4.53
0
LINE
8
BLACK
6
CONTINUOUS
10
5.43
20
-4.53
11
5.43
21
-4.47
0
LINE
8
BLACK
6
CONTINUOUS
10
5.43
20
-4.47
11
5.49
21
-4.47
0
LINE
8
BLACK
6
CONTINUOUS
10
5.49
20
-4.47
11
5.49
21
-4.53
0
LINE
8
BLACK
6
CONTINUOUS
10
5.49
20
-4.43
11
5.43
21
-4.43
0
LINE
8
BLACK
6
CONTINUOUS
10
5.43
20
-4.43
11
5.43
21
-4.37
0
LINE
8
BLACK
6
CONTINUOUS
10
5.43
20
-4.37
11
5.49
21
-4.37
0
LINE
8
BLACK
6
CONTINUOUS
10
5.49
20
-4.37
11
5.49
21
-4.43
0
LINE
8
BLACK
6
CONTINUOUS
10
5.04705
20
-4.33502
11
5.05144
21
-4.33726
0
LINE
8
BLACK
6
CONTINUOUS
10
5.05144
20
-4.33726
11
5.05492
21
-4.34074
0
LINE
8
BLACK
6
CONTINUOUS
10
5.05492
20
-4.34074
11
5.05716
21
-4.34513
0
LINE
8
BLACK
6
CONTINUOUS
10
5.05716
20
-4.34513
11
5.05793
21
-4.35
0
LINE
8
BLACK
6
CONTINUOUS
10
5.05793
20
-4.35
11
5.05723
21
-4.35444
0
LINE
8
BLACK
6
CONTINUOUS
10
5.05723
20
-4.35444
11
5.12991
21
-4.42712
0
LINE
8
BLACK
6
CONTINUOUS
10
5.12991
20
-4.42712
11
5.13058
21
-4.42819
0
LINE
8
BLACK
6
CONTINUOUS
10
5.13058
20
-4.42819
11
5.13136
21
-4.42917
0
LINE
8
BLACK
6
CONTINUOUS
10
5.13136
20
-4.42917
11
5.13146
21
-4.42959
0
LINE
8
BLACK
6
CONTINUOUS
10
5.13146
20
-4.42959
11
5.13169
21
-4.42995
0
LINE
8
BLACK
6
CONTINUOUS
10
5.13169
20
-4.42995
11
5.13183
21
-4.4312
0
LINE
8
BLACK
6
CONTINUOUS
10
5.13183
20
-4.4312
11
5.13211
21
-4.43243
0
LINE
8
BLACK
6
CONTINUOUS
10
5.13211
20
-4.43243
11
5.13211
21
-4.44394
0
LINE
8
BLACK
6
CONTINUOUS
10
5.13211
20
-4.44394
11
5.14429
21
-4.44394
0
LINE
8
BLACK
6
CONTINUOUS
10
5.14429
20
-4.44394
11
5.14429
21
-4.46165
0
LINE
8
BLACK
6
CONTINUOUS
10
5.14429
20
-4.46165
11
5.15413
21
-4.46165
0
LINE
8
BLACK
6
CONTINUOUS
10
5.15413
20
-4.46165
11
5.15413
21
-4.44394
0
LINE
8
BLACK
6
CONTINUOUS
10
5.15413
20
-4.44394
11
5.17579
21
-4.44394
0
LINE
8
BLACK
6
CONTINUOUS
10
5.17579
20
-4.44394
11
5.17579
21
-4.44414
0
LINE
8
BLACK
6
CONTINUOUS
10
5.17579
20
-4.44414
11
5.17859
21
-4.44414
0
LINE
8
BLACK
6
CONTINUOUS
10
5.17859
20
-4.44414
11
5.18396
21
-4.44572
0
LINE
8
BLACK
6
CONTINUOUS
10
5.18396
20
-4.44572
11
5.18868
21
-4.44875
0
LINE
8
BLACK
6
CONTINUOUS
10
5.18868
20
-4.44875
11
5.19235
21
-4.45298
0
LINE
8
BLACK
6
CONTINUOUS
10
5.19235
20
-4.45298
11
5.19468
21
-4.45808
0
LINE
8
BLACK
6
CONTINUOUS
10
5.19468
20
-4.45808
11
5.19547
21
-4.46362
0
LINE
8
BLACK
6
CONTINUOUS
10
5.19547
20
-4.46362
11
5.19547
21
-4.48331
0
LINE
8
BLACK
6
CONTINUOUS
10
5.19547
20
-4.48331
11
5.19468
21
-4.48885
0
LINE
8
BLACK
6
CONTINUOUS
10
5.19468
20
-4.48885
11
5.19235
21
-4.49395
0
LINE
8
BLACK
6
CONTINUOUS
10
5.19235
20
-4.49395
11
5.18868
21
-4.49818
0
LINE
8
BLACK
6
CONTINUOUS
10
5.18868
20
-4.49818
11
5.18396
21
-4.50121
0
LINE
8
BLACK
6
CONTINUOUS
10
5.18396
20
-4.50121
11
5.17859
21
-4.50279
0
LINE
8
BLACK
6
CONTINUOUS
10
5.17859
20
-4.50279
11
5.17579
21
-4.50279
0
LINE
8
BLACK
6
CONTINUOUS
10
5.17579
20
-4.50279
11
5.17579
21
-4.50299
0
LINE
8
BLACK
6
CONTINUOUS
10
5.17579
20
-4.50299
11
5.15413
21
-4.50299
0
LINE
8
BLACK
6
CONTINUOUS
10
5.15413
20
-4.50299
11
5.15413
21
-4.48528
0
LINE
8
BLACK
6
CONTINUOUS
10
5.15413
20
-4.48528
11
5.14429
21
-4.48528
0
LINE
8
BLACK
6
CONTINUOUS
10
5.14429
20
-4.48528
11
5.14429
21
-4.50299
0
LINE
8
BLACK
6
CONTINUOUS
10
5.14429
20
-4.50299
11
5.10492
21
-4.50299
0
LINE
8
BLACK
6
CONTINUOUS
10
5.10492
20
-4.50299
11
5.10492
21
-4.44394
0
LINE
8
BLACK
6
CONTINUOUS
10
5.10492
20
-4.44394
11
5.11711
21
-4.44394
0
LINE
8
BLACK
6
CONTINUOUS
10
5.11711
20
-4.44394
11
5.11711
21
-4.43553
0
LINE
8
BLACK
6
CONTINUOUS
10
5.11711
20
-4.43553
11
5.04662
21
-4.36505
0
LINE
8
BLACK
6
CONTINUOUS
10
5.04662
20
-4.36505
11
5.04218
21
-4.36575
0
LINE
8
BLACK
6
CONTINUOUS
10
5.04218
20
-4.36575
11
5.03731
21
-4.36498
0
LINE
8
BLACK
6
CONTINUOUS
10
5.03731
20
-4.36498
11
5.03292
21
-4.36274
0
LINE
8
BLACK
6
CONTINUOUS
10
5.03292
20
-4.36274
11
5.02944
21
-4.35926
0
LINE
8
BLACK
6
CONTINUOUS
10
5.02944
20
-4.35926
11
5.0272
21
-4.35487
0
LINE
8
BLACK
6
CONTINUOUS
10
5.0272
20
-4.35487
11
5.02643
21
-4.35
0
LINE
8
BLACK
6
CONTINUOUS
10
5.02643
20
-4.35
11
5.0272
21
-4.34513
0
LINE
8
BLACK
6
CONTINUOUS
10
5.0272
20
-4.34513
11
5.02944
21
-4.34074
0
LINE
8
BLACK
6
CONTINUOUS
10
5.02944
20
-4.34074
11
5.03292
21
-4.33726
0
LINE
8
BLACK
6
CONTINUOUS
10
5.03292
20
-4.33726
11
5.03731
21
-4.33502
0
LINE
8
BLACK
6
CONTINUOUS
10
5.03731
20
-4.33502
11
5.04218
21
-4.33425
0
LINE
8
BLACK
6
CONTINUOUS
10
5.04218
20
-4.33425
11
5.04705
21
-4.33502
0
LINE
8
BLACK
6
CONTINUOUS
10
5.4
20
-4.04
11
5.38
21
-4.04
0
LINE
8
BLACK
6
CONTINUOUS
10
5.38
20
-4.04
11
5.38
21
-4.11586
0
LINE
8
BLACK
6
CONTINUOUS
10
5.38
20
-4.11586
11
5.45861
21
-4.19447
0
LINE
8
BLACK
6
CONTINUOUS
10
5.45861
20
-4.19447
11
5.46
21
-4.19425
0
LINE
8
BLACK
6
CONTINUOUS
10
5.46
20
-4.19425
11
5.46487
21
-4.19502
0
LINE
8
BLACK
6
CONTINUOUS
10
5.46487
20
-4.19502
11
5.46926
21
-4.19726
0
LINE
8
BLACK
6
CONTINUOUS
10
5.46926
20
-4.19726
11
5.47274
21
-4.20074
0
LINE
8
BLACK
6
CONTINUOUS
10
5.47274
20
-4.20074
11
5.47498
21
-4.20513
0
LINE
8
BLACK
6
CONTINUOUS
10
5.47498
20
-4.20513
11
5.47575
21
-4.21
0
LINE
8
BLACK
6
CONTINUOUS
10
5.47575
20
-4.21
11
5.47498
21
-4.21487
0
LINE
8
BLACK
6
CONTINUOUS
10
5.47498
20
-4.21487
11
5.47274
21
-4.21926
0
LINE
8
BLACK
6
CONTINUOUS
10
5.47274
20
-4.21926
11
5.46926
21
-4.22274
0
LINE
8
BLACK
6
CONTINUOUS
10
5.46926
20
-4.22274
11
5.46487
21
-4.22498
0
LINE
8
BLACK
6
CONTINUOUS
10
5.46487
20
-4.22498
11
5.46
21
-4.22575
0
LINE
8
BLACK
6
CONTINUOUS
10
5.46
20
-4.22575
11
5.45513
21
-4.22498
0
LINE
8
BLACK
6
CONTINUOUS
10
5.45513
20
-4.22498
11
5.45074
21
-4.22274
0
LINE
8
BLACK
6
CONTINUOUS
10
5.45074
20
-4.22274
11
5.44726
21
-4.21926
0
LINE
8
BLACK
6
CONTINUOUS
10
5.44726
20
-4.21926
11
5.44502
21
-4.21487
0
LINE
8
BLACK
6
CONTINUOUS
10
5.44502
20
-4.21487
11
5.44425
21
-4.21
0
LINE
8
BLACK
6
CONTINUOUS
10
5.44425
20
-4.21
11
5.44447
21
-4.20861
0
LINE
8
BLACK
6
CONTINUOUS
10
5.44447
20
-4.20861
11
5.36293
21
-4.12707
0
LINE
8
BLACK
6
CONTINUOUS
10
5.36293
20
-4.12707
11
5.36263
21
-4.12662
0
LINE
8
BLACK
6
CONTINUOUS
10
5.36263
20
-4.12662
11
5.36076
21
-4.12383
0
LINE
8
BLACK
6
CONTINUOUS
10
5.36076
20
-4.12383
11
5.36
21
-4.12
0
LINE
8
BLACK
6
CONTINUOUS
10
5.36
20
-4.12
11
5.36
21
-4.04
0
LINE
8
BLACK
6
CONTINUOUS
10
5.36
20
-4.04
11
5.34
21
-4.04
0
LINE
8
BLACK
6
CONTINUOUS
10
5.34
20
-4.04
11
5.34
21
-3.98
0
LINE
8
BLACK
6
CONTINUOUS
10
5.34
20
-3.98
11
5.4
21
-3.98
0
LINE
8
BLACK
6
CONTINUOUS
10
5.4
20
-3.98
11
5.4
21
-4.04
0
LINE
8
BLACK
6
CONTINUOUS
10
5.3
20
-4.04
11
5.24
21
-4.04
0
LINE
8
BLACK
6
CONTINUOUS
10
5.24
20
-4.04
11
5.24
21
-3.98
0
LINE
8
BLACK
6
CONTINUOUS
10
5.24
20
-3.98
11
5.3
21
-3.98
0
LINE
8
BLACK
6
CONTINUOUS
10
5.3
20
-3.98
11
5.3
21
-4.04
0
LINE
8
BLACK
6
CONTINUOUS
10
5.5
20
-4.04
11
5.44
21
-4.04
0
LINE
8
BLACK
6
CONTINUOUS
10
5.44
20
-4.04
11
5.44
21
-3.98
0
LINE
8
BLACK
6
CONTINUOUS
10
5.44
20
-3.98
11
5.5
21
-3.98
0
LINE
8
BLACK
6
CONTINUOUS
10
5.5
20
-3.98
11
5.5
21
-4.04
0
LINE
8
BLACK
6
CONTINUOUS
10
5.3
20
-3.94
11
5.24
21
-3.94
0
LINE
8
BLACK
6
CONTINUOUS
10
5.24
20
-3.94
11
5.24
21
-3.88
0
LINE
8
BLACK
6
CONTINUOUS
10
5.24
20
-3.88
11
5.3
21
-3.88
0
LINE
8
BLACK
6
CONTINUOUS
10
5.3
20
-3.88
11
5.3
21
-3.94
0
LINE
8
BLACK
6
CONTINUOUS
10
5.4
20
-3.94
11
5.34
21
-3.94
0
LINE
8
BLACK
6
CONTINUOUS
10
5.34
20
-3.94
11
5.34
21
-3.88
0
LINE
8
BLACK
6
CONTINUOUS
10
5.34
20
-3.88
11
5.4
21
-3.88
0
LINE
8
BLACK
6
CONTINUOUS
10
5.4
20
-3.88
11
5.4
21
-3.94
0
LINE
8
BLACK
6
CONTINUOUS
10
5.5
20
-3.94
11
5.44
21
-3.94
0
LINE
8
BLACK
6
CONTINUOUS
10
5.44
20
-3.94
11
5.44
21
-3.88
0
LINE
8
BLACK
6
CONTINUOUS
10
5.44
20
-3.88
11
5.5
21
-3.88
0
LINE
8
BLACK
6
CONTINUOUS
10
5.5
20
-3.88
11
5.5
21
-3.94
0
LINE
8
BLACK
6
CONTINUOUS
10
4.53946
20
-4.17664
11
4.54015
21
-4.17854
0
LINE
8
BLACK
6
CONTINUOUS
10
4.54015
20
-4.17854
11
4.54015
21
-4.21495
0
LINE
8
BLACK
6
CONTINUOUS
10
4.54015
20
-4.21495
11
4.55594
21
-4.21495
0
LINE
8
BLACK
6
CONTINUOUS
10
4.55594
20
-4.21495
11
4.55695
21
-4.21513
0
LINE
8
BLACK
6
CONTINUOUS
10
4.55695
20
-4.21513
11
4.5585
21
-4.21643
0
LINE
8
BLACK
6
CONTINUOUS
10
4.5585
20
-4.21643
11
4.55885
21
-4.21842
0
LINE
8
BLACK
6
CONTINUOUS
10
4.55885
20
-4.21842
11
4.55784
21
-4.22017
0
LINE
8
BLACK
6
CONTINUOUS
10
4.55784
20
-4.22017
11
4.55594
21
-4.22086
0
LINE
8
BLACK
6
CONTINUOUS
10
4.55594
20
-4.22086
11
4.5372
21
-4.22086
0
LINE
8
BLACK
6
CONTINUOUS
10
4.5372
20
-4.22086
11
4.53681
21
-4.22079
0
LINE
8
BLACK
6
CONTINUOUS
10
4.53681
20
-4.22079
11
4.53668
21
-4.22081
0
LINE
8
BLACK
6
CONTINUOUS
10
4.53668
20
-4.22081
11
4.53657
21
-4.22075
0
LINE
8
BLACK
6
CONTINUOUS
10
4.53657
20
-4.22075
11
4.53619
21
-4.22068
0
LINE
8
BLACK
6
CONTINUOUS
10
4.53619
20
-4.22068
11
4.5356
21
-4.22019
0
LINE
8
BLACK
6
CONTINUOUS
10
4.5356
20
-4.22019
11
4.53493
21
-4.2198
0
LINE
8
BLACK
6
CONTINUOUS
10
4.53493
20
-4.2198
11
4.53484
21
-4.21955
0
LINE
8
BLACK
6
CONTINUOUS
10
4.53484
20
-4.21955
11
4.53464
21
-4.21938
0
LINE
8
BLACK
6
CONTINUOUS
10
4.53464
20
-4.21938
11
4.5345
21
-4.21863
0
LINE
8
BLACK
6
CONTINUOUS
10
4.5345
20
-4.21863
11
4.53424
21
-4.21791
0
LINE
8
BLACK
6
CONTINUOUS
10
4.53424
20
-4.21791
11
4.53424
21
-4.17854
0
LINE
8
BLACK
6
CONTINUOUS
10
4.53424
20
-4.17854
11
4.53442
21
-4.17753
0
LINE
8
BLACK
6
CONTINUOUS
10
4.53442
20
-4.17753
11
4.53572
21
-4.17598
0
LINE
8
BLACK
6
CONTINUOUS
10
4.53572
20
-4.17598
11
4.53771
21
-4.17563
0
LINE
8
BLACK
6
CONTINUOUS
10
4.53771
20
-4.17563
11
4.53946
21
-4.17664
0
LINE
8
BLACK
6
CONTINUOUS
10
4.61695
20
-4.17576
11
4.61708
21
-4.17587
0
LINE
8
BLACK
6
CONTINUOUS
10
4.61708
20
-4.17587
11
4.61726
21
-4.1759
0
LINE
8
BLACK
6
CONTINUOUS
10
4.61726
20
-4.1759
11
4.62101
21
-4.17777
0
LINE
8
BLACK
6
CONTINUOUS
10
4.62101
20
-4.17777
11
4.62171
21
-4.1783
0
LINE
8
BLACK
6
CONTINUOUS
10
4.62171
20
-4.1783
11
4.62177
21
-4.17832
0
LINE
8
BLACK
6
CONTINUOUS
10
4.62177
20
-4.17832
11
4.62365
21
-4.1802
0
LINE
8
BLACK
6
CONTINUOUS
10
4.62365
20
-4.1802
11
4.62415
21
-4.18092
0
LINE
8
BLACK
6
CONTINUOUS
10
4.62415
20
-4.18092
11
4.6242
21
-4.18097
0
LINE
8
BLACK
6
CONTINUOUS
10
4.6242
20
-4.18097
11
4.62608
21
-4.18471
0
LINE
8
BLACK
6
CONTINUOUS
10
4.62608
20
-4.18471
11
4.62637
21
-4.1857
0
LINE
8
BLACK
6
CONTINUOUS
10
4.62637
20
-4.1857
11
4.62633
21
-4.18587
0
LINE
8
BLACK
6
CONTINUOUS
10
4.62633
20
-4.18587
11
4.62639
21
-4.18604
0
LINE
8
BLACK
6
CONTINUOUS
10
4.62639
20
-4.18604
11
4.62639
21
-4.18978
0
LINE
8
BLACK
6
CONTINUOUS
10
4.62639
20
-4.18978
11
4.62621
21
-4.19079
0
LINE
8
BLACK
6
CONTINUOUS
10
4.62621
20
-4.19079
11
4.6261
21
-4.19093
0
LINE
8
BLACK
6
CONTINUOUS
10
4.6261
20
-4.19093
11
4.62608
21
-4.19111
0
LINE
8
BLACK
6
CONTINUOUS
10
4.62608
20
-4.19111
11
4.6242
21
-4.19485
0
LINE
8
BLACK
6
CONTINUOUS
10
4.6242
20
-4.19485
11
4.62367
21
-4.19556
0
LINE
8
BLACK
6
CONTINUOUS
10
4.62367
20
-4.19556
11
4.62365
21
-4.19562
0
LINE
8
BLACK
6
CONTINUOUS
10
4.62365
20
-4.19562
11
4.62277
21
-4.1965
0
LINE
8
BLACK
6
CONTINUOUS
10
4.62277
20
-4.1965
11
4.6234
21
-4.19685
0
LINE
8
BLACK
6
CONTINUOUS
10
4.6234
20
-4.19685
11
4.62349
21
-4.197
0
LINE
8
BLACK
6
CONTINUOUS
10
4.62349
20
-4.197
11
4.62365
21
-4.19707
0
LINE
8
BLACK
6
CONTINUOUS
10
4.62365
20
-4.19707
11
4.62552
21
-4.19895
0
LINE
8
BLACK
6
CONTINUOUS
10
4.62552
20
-4.19895
11
4.62603
21
-4.19967
0
LINE
8
BLACK
6
CONTINUOUS
10
4.62603
20
-4.19967
11
4.62608
21
-4.19971
0
LINE
8
BLACK
6
CONTINUOUS
10
4.62608
20
-4.19971
11
4.62795
21
-4.20346
0
LINE
8
BLACK
6
CONTINUOUS
10
4.62795
20
-4.20346
11
4.62824
21
-4.20445
0
LINE
8
BLACK
6
CONTINUOUS
10
4.62824
20
-4.20445
11
4.6282
21
-4.20462
0
LINE
8
BLACK
6
CONTINUOUS
10
4.6282
20
-4.20462
11
4.62826
21
-4.20478
0
LINE
8
BLACK
6
CONTINUOUS
10
4.62826
20
-4.20478
11
4.62826
21
-4.21041
0
LINE
8
BLACK
6
CONTINUOUS
10
4.62826
20
-4.21041
11
4.62808
21
-4.21142
0
LINE
8
BLACK
6
CONTINUOUS
10
4.62808
20
-4.21142
11
4.62797
21
-4.21155
0
LINE
8
BLACK
6
CONTINUOUS
10
4.62797
20
-4.21155
11
4.62795
21
-4.21173
0
LINE
8
BLACK
6
CONTINUOUS
10
4.62795
20
-4.21173
11
4.62608
21
-4.21548
0
LINE
8
BLACK
6
CONTINUOUS
10
4.62608
20
-4.21548
11
4.62555
21
-4.21619
0
LINE
8
BLACK
6
CONTINUOUS
10
4.62555
20
-4.21619
11
4.62552
21
-4.21624
0
LINE
8
BLACK
6
CONTINUOUS
10
4.62552
20
-4.21624
11
4.62365
21
-4.21812
0
LINE
8
BLACK
6
CONTINUOUS
10
4.62365
20
-4.21812
11
4.62292
21
-4.21863
0
LINE
8
BLACK
6
CONTINUOUS
10
4.62292
20
-4.21863
11
4.62288
21
-4.21867
0
LINE
8
BLACK
6
CONTINUOUS
10
4.62288
20
-4.21867
11
4.61913
21
-4.22055
0
LINE
8
BLACK
6
CONTINUOUS
10
4.61913
20
-4.22055
11
4.61815
21
-4.22084
0
LINE
8
BLACK
6
CONTINUOUS
10
4.61815
20
-4.22084
11
4.61798
21
-4.2208
0
LINE
8
BLACK
6
CONTINUOUS
10
4.61798
20
-4.2208
11
4.61781
21
-4.22086
0
LINE
8
BLACK
6
CONTINUOUS
10
4.61781
20
-4.22086
11
4.60281
21
-4.22086
0
LINE
8
BLACK
6
CONTINUOUS
10
4.60281
20
-4.22086
11
4.60243
21
-4.22079
0
LINE
8
BLACK
6
CONTINUOUS
10
4.60243
20
-4.22079
11
4.6023
21
-4.22081
0
LINE
8
BLACK
6
CONTINUOUS
10
4.6023
20
-4.22081
11
4.60219
21
-4.22075
0
LINE
8
BLACK
6
CONTINUOUS
10
4.60219
20
-4.22075
11
4.6018
21
-4.22068
0
LINE
8
BLACK
6
CONTINUOUS
10
4.6018
20
-4.22068
11
4.60121
21
-4.22019
0
LINE
8
BLACK
6
CONTINUOUS
10
4.60121
20
-4.22019
11
4.60055
21
-4.2198
0
LINE
8
BLACK
6
CONTINUOUS
10
4.60055
20
-4.2198
11
4.60046
21
-4.21955
0
LINE
8
BLACK
6
CONTINUOUS
10
4.60046
20
-4.21955
11
4.60025
21
-4.21938
0
LINE
8
BLACK
6
CONTINUOUS
10
4.60025
20
-4.21938
11
4.60012
21
-4.21863
0
LINE
8
BLACK
6
CONTINUOUS
10
4.60012
20
-4.21863
11
4.59986
21
-4.21791
0
LINE
8
BLACK
6
CONTINUOUS
10
4.59986
20
-4.21791
11
4.59986
21
-4.17854
0
LINE
8
BLACK
6
CONTINUOUS
10
4.59986
20
-4.17854
11
4.59993
21
-4.17815
0
LINE
8
BLACK
6
CONTINUOUS
10
4.59993
20
-4.17815
11
4.5999
21
-4.17802
0
LINE
8
BLACK
6
CONTINUOUS
10
4.5999
20
-4.17802
11
4.59997
21
-4.17791
0
LINE
8
BLACK
6
CONTINUOUS
10
4.59997
20
-4.17791
11
4.60004
21
-4.17753
0
LINE
8
BLACK
6
CONTINUOUS
10
4.60004
20
-4.17753
11
4.60053
21
-4.17694
0
LINE
8
BLACK
6
CONTINUOUS
10
4.60053
20
-4.17694
11
4.60091
21
-4.17627
0
LINE
8
BLACK
6
CONTINUOUS
10
4.60091
20
-4.17627
11
4.60116
21
-4.17618
0
LINE
8
BLACK
6
CONTINUOUS
10
4.60116
20
-4.17618
11
4.60134
21
-4.17598
0
LINE
8
BLACK
6
CONTINUOUS
10
4.60134
20
-4.17598
11
4.60209
21
-4.17585
0
LINE
8
BLACK
6
CONTINUOUS
10
4.60209
20
-4.17585
11
4.60281
21
-4.17558
0
LINE
8
BLACK
6
CONTINUOUS
10
4.60281
20
-4.17558
11
4.61594
21
-4.17558
0
LINE
8
BLACK
6
CONTINUOUS
10
4.61594
20
-4.17558
11
4.61695
21
-4.17576
0
LINE
8
BLACK
6
CONTINUOUS
10
4.60576
20
-4.21495
11
4.61711
21
-4.21495
0
LINE
8
BLACK
6
CONTINUOUS
10
4.61711
20
-4.21495
11
4.61981
21
-4.2136
0
LINE
8
BLACK
6
CONTINUOUS
10
4.61981
20
-4.2136
11
4.62101
21
-4.21241
0
LINE
8
BLACK
6
CONTINUOUS
10
4.62101
20
-4.21241
11
4.62236
21
-4.20971
0
LINE
8
BLACK
6
CONTINUOUS
10
4.62236
20
-4.20971
11
4.62236
21
-4.20548
0
LINE
8
BLACK
6
CONTINUOUS
10
4.62236
20
-4.20548
11
4.62101
21
-4.20278
0
LINE
8
BLACK
6
CONTINUOUS
10
4.62101
20
-4.20278
11
4.61996
21
-4.20174
0
LINE
8
BLACK
6
CONTINUOUS
10
4.61996
20
-4.20174
11
4.61546
21
-4.20024
0
LINE
8
BLACK
6
CONTINUOUS
10
4.61546
20
-4.20024
11
4.60576
21
-4.20024
0
LINE
8
BLACK
6
CONTINUOUS
10
4.60576
20
-4.20024
11
4.60576
21
-4.21495
0
LINE
8
BLACK
6
CONTINUOUS
10
4.60576
20
-4.19433
11
4.61524
21
-4.19433
0
LINE
8
BLACK
6
CONTINUOUS
10
4.61524
20
-4.19433
11
4.61794
21
-4.19298
0
LINE
8
BLACK
6
CONTINUOUS
10
4.61794
20
-4.19298
11
4.61913
21
-4.19179
0
LINE
8
BLACK
6
CONTINUOUS
10
4.61913
20
-4.19179
11
4.62048
21
-4.18909
0
LINE
8
BLACK
6
CONTINUOUS
10
4.62048
20
-4.18909
11
4.62048
21
-4.18673
0
LINE
8
BLACK
6
CONTINUOUS
10
4.62048
20
-4.18673
11
4.61913
21
-4.18403
0
LINE
8
BLACK
6
CONTINUOUS
10
4.61913
20
-4.18403
11
4.61794
21
-4.18284
0
LINE
8
BLACK
6
CONTINUOUS
10
4.61794
20
-4.18284
11
4.61524
21
-4.18149
0
LINE
8
BLACK
6
CONTINUOUS
10
4.61524
20
-4.18149
11
4.60576
21
-4.18149
0
LINE
8
BLACK
6
CONTINUOUS
10
4.60576
20
-4.18149
11
4.60576
21
-4.19433
0
LINE
8
BLACK
6
CONTINUOUS
10
4.67506
20
-4.18888
11
4.6752
21
-4.189
0
LINE
8
BLACK
6
CONTINUOUS
10
4.6752
20
-4.189
11
4.67537
21
-4.18902
0
LINE
8
BLACK
6
CONTINUOUS
10
4.67537
20
-4.18902
11
4.67912
21
-4.19089
0
LINE
8
BLACK
6
CONTINUOUS
10
4.67912
20
-4.19089
11
4.67995
21
-4.1915
0
LINE
8
BLACK
6
CONTINUOUS
10
4.67995
20
-4.1915
11
4.68075
21
-4.19336
0
LINE
8
BLACK
6
CONTINUOUS
10
4.68075
20
-4.19336
11
4.68017
21
-4.19529
0
LINE
8
BLACK
6
CONTINUOUS
10
4.68017
20
-4.19529
11
4.67849
21
-4.19641
0
LINE
8
BLACK
6
CONTINUOUS
10
4.67849
20
-4.19641
11
4.67648
21
-4.19618
0
LINE
8
BLACK
6
CONTINUOUS
10
4.67648
20
-4.19618
11
4.67336
21
-4.19461
0
LINE
8
BLACK
6
CONTINUOUS
10
4.67336
20
-4.19461
11
4.66725
21
-4.19461
0
LINE
8
BLACK
6
CONTINUOUS
10
4.66725
20
-4.19461
11
4.66455
21
-4.19596
0
LINE
8
BLACK
6
CONTINUOUS
10
4.66455
20
-4.19596
11
4.66336
21
-4.19716
0
LINE
8
BLACK
6
CONTINUOUS
10
4.66336
20
-4.19716
11
4.66201
21
-4.19986
0
LINE
8
BLACK
6
CONTINUOUS
10
4.66201
20
-4.19986
11
4.66201
21
-4.20971
0
LINE
8
BLACK
6
CONTINUOUS
10
4.66201
20
-4.20971
11
4.66336
21
-4.21241
0
LINE
8
BLACK
6
CONTINUOUS
10
4.66336
20
-4.21241
11
4.66455
21
-4.2136
0
LINE
8
BLACK
6
CONTINUOUS
10
4.66455
20
-4.2136
11
4.66725
21
-4.21495
0
LINE
8
BLACK
6
CONTINUOUS
10
4.66725
20
-4.21495
11
4.67336
21
-4.21495
0
LINE
8
BLACK
6
CONTINUOUS
10
4.67336
20
-4.21495
11
4.67648
21
-4.21339
0
LINE
8
BLACK
6
CONTINUOUS
10
4.67648
20
-4.21339
11
4.67747
21
-4.2131
0
LINE
8
BLACK
6
CONTINUOUS
10
4.67747
20
-4.2131
11
4.67943
21
-4.21357
0
LINE
8
BLACK
6
CONTINUOUS
10
4.67943
20
-4.21357
11
4.68063
21
-4.21519
0
LINE
8
BLACK
6
CONTINUOUS
10
4.68063
20
-4.21519
11
4.68051
21
-4.21721
0
LINE
8
BLACK
6
CONTINUOUS
10
4.68051
20
-4.21721
11
4.67912
21
-4.21867
0
LINE
8
BLACK
6
CONTINUOUS
10
4.67912
20
-4.21867
11
4.67537
21
-4.22055
0
LINE
8
BLACK
6
CONTINUOUS
10
4.67537
20
-4.22055
11
4.67439
21
-4.22084
0
LINE
8
BLACK
6
CONTINUOUS
10
4.67439
20
-4.22084
11
4.67422
21
-4.2208
0
LINE
8
BLACK
6
CONTINUOUS
10
4.67422
20
-4.2208
11
4.67405
21
-4.22086
0
LINE
8
BLACK
6
CONTINUOUS
10
4.67405
20
-4.22086
11
4.66655
21
-4.22086
0
LINE
8
BLACK
6
CONTINUOUS
10
4.66655
20
-4.22086
11
4.66554
21
-4.22068
0
LINE
8
BLACK
6
CONTINUOUS
10
4.66554
20
-4.22068
11
4.66541
21
-4.22057
0
LINE
8
BLACK
6
CONTINUOUS
10
4.66541
20
-4.22057
11
4.66523
21
-4.22055
0
LINE
8
BLACK
6
CONTINUOUS
10
4.66523
20
-4.22055
11
4.66148
21
-4.21867
0
LINE
8
BLACK
6
CONTINUOUS
10
4.66148
20
-4.21867
11
4.66078
21
-4.21815
0
LINE
8
BLACK
6
CONTINUOUS
10
4.66078
20
-4.21815
11
4.66072
21
-4.21812
0
LINE
8
BLACK
6
CONTINUOUS
10
4.66072
20
-4.21812
11
4.65884
21
-4.21624
0
LINE
8
BLACK
6
CONTINUOUS
10
4.65884
20
-4.21624
11
4.65834
21
-4.21552
0
LINE
8
BLACK
6
CONTINUOUS
10
4.65834
20
-4.21552
11
4.65829
21
-4.21548
0
LINE
8
BLACK
6
CONTINUOUS
10
4.65829
20
-4.21548
11
4.65641
21
-4.21173
0
LINE
8
BLACK
6
CONTINUOUS
10
4.65641
20
-4.21173
11
4.65612
21
-4.21074
0
LINE
8
BLACK
6
CONTINUOUS
10
4.65612
20
-4.21074
11
4.65616
21
-4.21057
0
LINE
8
BLACK
6
CONTINUOUS
10
4.65616
20
-4.21057
11
4.6561
21
-4.21041
0
LINE
8
BLACK
6
CONTINUOUS
10
4.6561
20
-4.21041
11
4.6561
21
-4.19916
0
LINE
8
BLACK
6
CONTINUOUS
10
4.6561
20
-4.19916
11
4.65628
21
-4.19815
0
LINE
8
BLACK
6
CONTINUOUS
10
4.65628
20
-4.19815
11
4.65639
21
-4.19801
0
LINE
8
BLACK
6
CONTINUOUS
10
4.65639
20
-4.19801
11
4.65641
21
-4.19784
0
LINE
8
BLACK
6
CONTINUOUS
10
4.65641
20
-4.19784
11
4.65829
21
-4.19409
0
LINE
8
BLACK
6
CONTINUOUS
10
4.65829
20
-4.19409
11
4.65881
21
-4.19338
0
LINE
8
BLACK
6
CONTINUOUS
10
4.65881
20
-4.19338
11
4.65884
21
-4.19332
0
LINE
8
BLACK
6
CONTINUOUS
10
4.65884
20
-4.19332
11
4.66072
21
-4.19145
0
LINE
8
BLACK
6
CONTINUOUS
10
4.66072
20
-4.19145
11
4.66144
21
-4.19094
0
LINE
8
BLACK
6
CONTINUOUS
10
4.66144
20
-4.19094
11
4.66148
21
-4.19089
0
LINE
8
BLACK
6
CONTINUOUS
10
4.66148
20
-4.19089
11
4.66523
21
-4.18902
0
LINE
8
BLACK
6
CONTINUOUS
10
4.66523
20
-4.18902
11
4.66622
21
-4.18873
0
LINE
8
BLACK
6
CONTINUOUS
10
4.66622
20
-4.18873
11
4.66639
21
-4.18877
0
LINE
8
BLACK
6
CONTINUOUS
10
4.66639
20
-4.18877
11
4.66655
21
-4.18871
0
LINE
8
BLACK
6
CONTINUOUS
10
4.66655
20
-4.18871
11
4.67405
21
-4.18871
0
LINE
8
BLACK
6
CONTINUOUS
10
4.67405
20
-4.18871
11
4.67506
21
-4.18888
0
LINE
8
BLACK
6
CONTINUOUS
10
4.71185
20
-4.18876
11
4.71197
21
-4.18874
0
LINE
8
BLACK
6
CONTINUOUS
10
4.71197
20
-4.18874
11
4.71209
21
-4.1888
0
LINE
8
BLACK
6
CONTINUOUS
10
4.71209
20
-4.1888
11
4.71256
21
-4.18888
0
LINE
8
BLACK
6
CONTINUOUS
10
4.71256
20
-4.18888
11
4.71311
21
-4.18935
0
LINE
8
BLACK
6
CONTINUOUS
10
4.71311
20
-4.18935
11
4.71375
21
-4.18969
0
LINE
8
BLACK
6
CONTINUOUS
10
4.71375
20
-4.18969
11
4.71387
21
-4.18998
0
LINE
8
BLACK
6
CONTINUOUS
10
4.71387
20
-4.18998
11
4.71411
21
-4.19018
0
LINE
8
BLACK
6
CONTINUOUS
10
4.71411
20
-4.19018
11
4.71423
21
-4.19089
0
LINE
8
BLACK
6
CONTINUOUS
10
4.71423
20
-4.19089
11
4.7145
21
-4.19156
0
LINE
8
BLACK
6
CONTINUOUS
10
4.7145
20
-4.19156
11
4.7144
21
-4.19186
0
LINE
8
BLACK
6
CONTINUOUS
10
4.7144
20
-4.19186
11
4.71446
21
-4.19217
0
LINE
8
BLACK
6
CONTINUOUS
10
4.71446
20
-4.19217
11
4.7141
21
-4.1928
0
LINE
8
BLACK
6
CONTINUOUS
10
4.7141
20
-4.1928
11
4.71387
21
-4.19348
0
LINE
8
BLACK
6
CONTINUOUS
10
4.71387
20
-4.19348
11
4.697
21
-4.21495
0
LINE
8
BLACK
6
CONTINUOUS
10
4.697
20
-4.21495
11
4.71155
21
-4.21495
0
LINE
8
BLACK
6
CONTINUOUS
10
4.71155
20
-4.21495
11
4.71256
21
-4.21513
0
LINE
8
BLACK
6
CONTINUOUS
10
4.71256
20
-4.21513
11
4.71411
21
-4.21643
0
LINE
8
BLACK
6
CONTINUOUS
10
4.71411
20
-4.21643
11
4.71446
21
-4.21842
0
LINE
8
BLACK
6
CONTINUOUS
10
4.71446
20
-4.21842
11
4.71345
21
-4.22017
0
LINE
8
BLACK
6
CONTINUOUS
10
4.71345
20
-4.22017
11
4.71155
21
-4.22086
0
LINE
8
BLACK
6
CONTINUOUS
10
4.71155
20
-4.22086
11
4.69093
21
-4.22086
0
LINE
8
BLACK
6
CONTINUOUS
10
4.69093
20
-4.22086
11
4.69062
21
-4.22081
0
LINE
8
BLACK
6
CONTINUOUS
10
4.69062
20
-4.22081
11
4.69051
21
-4.22083
0
LINE
8
BLACK
6
CONTINUOUS
10
4.69051
20
-4.22083
11
4.69038
21
-4.22076
0
LINE
8
BLACK
6
CONTINUOUS
10
4.69038
20
-4.22076
11
4.68992
21
-4.22068
0
LINE
8
BLACK
6
CONTINUOUS
10
4.68992
20
-4.22068
11
4.68936
21
-4.22022
0
LINE
8
BLACK
6
CONTINUOUS
10
4.68936
20
-4.22022
11
4.68873
21
-4.21988
0
LINE
8
BLACK
6
CONTINUOUS
10
4.68873
20
-4.21988
11
4.68861
21
-4.21958
0
LINE
8
BLACK
6
CONTINUOUS
10
4.68861
20
-4.21958
11
4.68837
21
-4.21938
0
LINE
8
BLACK
6
CONTINUOUS
10
4.68837
20
-4.21938
11
4.68824
21
-4.21867
0
LINE
8
BLACK
6
CONTINUOUS
10
4.68824
20
-4.21867
11
4.68797
21
-4.218
0
LINE
8
BLACK
6
CONTINUOUS
10
4.68797
20
-4.218
11
4.68807
21
-4.2177
0
LINE
8
BLACK
6
CONTINUOUS
10
4.68807
20
-4.2177
11
4.68802
21
-4.21739
0
LINE
8
BLACK
6
CONTINUOUS
10
4.68802
20
-4.21739
11
4.68838
21
-4.21677
0
LINE
8
BLACK
6
CONTINUOUS
10
4.68838
20
-4.21677
11
4.6886
21
-4.21608
0
LINE
8
BLACK
6
CONTINUOUS
10
4.6886
20
-4.21608
11
4.70547
21
-4.19461
0
LINE
8
BLACK
6
CONTINUOUS
10
4.70547
20
-4.19461
11
4.69093
21
-4.19461
0
LINE
8
BLACK
6
CONTINUOUS
10
4.69093
20
-4.19461
11
4.68992
21
-4.19443
0
LINE
8
BLACK
6
CONTINUOUS
10
4.68992
20
-4.19443
11
4.68837
21
-4.19314
0
LINE
8
BLACK
6
CONTINUOUS
10
4.68837
20
-4.19314
11
4.68802
21
-4.19115
0
LINE
8
BLACK
6
CONTINUOUS
10
4.68802
20
-4.19115
11
4.68903
21
-4.1894
0
LINE
8
BLACK
6
CONTINUOUS
10
4.68903
20
-4.1894
11
4.69093
21
-4.18871
0
LINE
8
BLACK
6
CONTINUOUS
10
4.69093
20
-4.18871
11
4.71155
21
-4.18871
0
LINE
8
BLACK
6
CONTINUOUS
10
4.71155
20
-4.18871
11
4.71185
21
-4.18876
0
LINE
8
BLACK
6
CONTINUOUS
10
4.64256
20
-4.21127
11
4.64269
21
-4.21125
0
LINE
8
BLACK
6
CONTINUOUS
10
4.64269
20
-4.21125
11
4.64281
21
-4.21132
0
LINE
8
BLACK
6
CONTINUOUS
10
4.64281
20
-4.21132
11
4.64295
21
-4.2113
0
LINE
8
BLACK
6
CONTINUOUS
10
4.64295
20
-4.2113
11
4.64358
21
-4.21174
0
LINE
8
BLACK
6
CONTINUOUS
10
4.64358
20
-4.21174
11
4.64427
21
-4.21207
0
LINE
8
BLACK
6
CONTINUOUS
10
4.64427
20
-4.21207
11
4.64614
21
-4.21394
0
LINE
8
BLACK
6
CONTINUOUS
10
4.64614
20
-4.21394
11
4.64637
21
-4.21426
0
LINE
8
BLACK
6
CONTINUOUS
10
4.64637
20
-4.21426
11
4.64648
21
-4.21434
0
LINE
8
BLACK
6
CONTINUOUS
10
4.64648
20
-4.21434
11
4.64651
21
-4.21446
0
LINE
8
BLACK
6
CONTINUOUS
10
4.64651
20
-4.21446
11
4.64673
21
-4.21478
0
LINE
8
BLACK
6
CONTINUOUS
10
4.64673
20
-4.21478
11
4.6468
21
-4.21555
0
LINE
8
BLACK
6
CONTINUOUS
10
4.6468
20
-4.21555
11
4.647
21
-4.21629
0
LINE
8
BLACK
6
CONTINUOUS
10
4.647
20
-4.21629
11
4.64689
21
-4.21653
0
LINE
8
BLACK
6
CONTINUOUS
10
4.64689
20
-4.21653
11
4.64691
21
-4.2168
0
LINE
8
BLACK
6
CONTINUOUS
10
4.64691
20
-4.2168
11
4.64647
21
-4.21742
0
LINE
8
BLACK
6
CONTINUOUS
10
4.64647
20
-4.21742
11
4.64614
21
-4.21812
0
LINE
8
BLACK
6
CONTINUOUS
10
4.64614
20
-4.21812
11
4.64427
21
-4.21999
0
LINE
8
BLACK
6
CONTINUOUS
10
4.64427
20
-4.21999
11
4.64395
21
-4.22022
0
LINE
8
BLACK
6
CONTINUOUS
10
4.64395
20
-4.22022
11
4.64388
21
-4.22033
0
LINE
8
BLACK
6
CONTINUOUS
10
4.64388
20
-4.22033
11
4.64375
21
-4.22036
0
LINE
8
BLACK
6
CONTINUOUS
10
4.64375
20
-4.22036
11
4.64374
21
-4.22036
0
LINE
8
BLACK
6
CONTINUOUS
10
4.64374
20
-4.22036
11
4.64366
21
-4.22046
0
LINE
8
BLACK
6
CONTINUOUS
10
4.64366
20
-4.22046
11
4.64358
21
-4.22048
0
LINE
8
BLACK
6
CONTINUOUS
10
4.64358
20
-4.22048
11
4.64343
21
-4.22058
0
LINE
8
BLACK
6
CONTINUOUS
10
4.64343
20
-4.22058
11
4.64267
21
-4.22065
0
LINE
8
BLACK
6
CONTINUOUS
10
4.64267
20
-4.22065
11
4.64192
21
-4.22085
0
LINE
8
BLACK
6
CONTINUOUS
10
4.64192
20
-4.22085
11
4.6418
21
-4.22079
0
LINE
8
BLACK
6
CONTINUOUS
10
4.6418
20
-4.22079
11
4.64167
21
-4.22081
0
LINE
8
BLACK
6
CONTINUOUS
10
4.64167
20
-4.22081
11
4.64155
21
-4.22075
0
LINE
8
BLACK
6
CONTINUOUS
10
4.64155
20
-4.22075
11
4.64142
21
-4.22076
0
LINE
8
BLACK
6
CONTINUOUS
10
4.64142
20
-4.22076
11
4.64079
21
-4.22032
0
LINE
8
BLACK
6
CONTINUOUS
10
4.64079
20
-4.22032
11
4.64009
21
-4.21999
0
LINE
8
BLACK
6
CONTINUOUS
10
4.64009
20
-4.21999
11
4.63822
21
-4.21812
0
LINE
8
BLACK
6
CONTINUOUS
10
4.63822
20
-4.21812
11
4.638
21
-4.2178
0
LINE
8
BLACK
6
CONTINUOUS
10
4.638
20
-4.2178
11
4.63789
21
-4.21773
0
LINE
8
BLACK
6
CONTINUOUS
10
4.63789
20
-4.21773
11
4.63785
21
-4.2176
0
LINE
8
BLACK
6
CONTINUOUS
10
4.63785
20
-4.2176
11
4.63763
21
-4.21728
0
LINE
8
BLACK
6
CONTINUOUS
10
4.63763
20
-4.21728
11
4.63756
21
-4.21652
0
LINE
8
BLACK
6
CONTINUOUS
10
4.63756
20
-4.21652
11
4.63737
21
-4.21577
0
LINE
8
BLACK
6
CONTINUOUS
10
4.63737
20
-4.21577
11
4.63748
21
-4.21553
0
LINE
8
BLACK
6
CONTINUOUS
10
4.63748
20
-4.21553
11
4.63746
21
-4.21527
0
LINE
8
BLACK
6
CONTINUOUS
10
4.63746
20
-4.21527
11
4.6379
21
-4.21464
0
LINE
8
BLACK
6
CONTINUOUS
10
4.6379
20
-4.21464
11
4.63822
21
-4.21394
0
LINE
8
BLACK
6
CONTINUOUS
10
4.63822
20
-4.21394
11
4.64009
21
-4.21207
0
LINE
8
BLACK
6
CONTINUOUS
10
4.64009
20
-4.21207
11
4.64041
21
-4.21185
0
LINE
8
BLACK
6
CONTINUOUS
10
4.64041
20
-4.21185
11
4.64049
21
-4.21174
0
LINE
8
BLACK
6
CONTINUOUS
10
4.64049
20
-4.21174
11
4.64062
21
-4.2117
0
LINE
8
BLACK
6
CONTINUOUS
10
4.64062
20
-4.2117
11
4.64062
21
-4.2117
0
LINE
8
BLACK
6
CONTINUOUS
10
4.64062
20
-4.2117
11
4.64071
21
-4.2116
0
LINE
8
BLACK
6
CONTINUOUS
10
4.64071
20
-4.2116
11
4.64078
21
-4.21159
0
LINE
8
BLACK
6
CONTINUOUS
10
4.64078
20
-4.21159
11
4.64093
21
-4.21148
0
LINE
8
BLACK
6
CONTINUOUS
10
4.64093
20
-4.21148
11
4.6417
21
-4.21141
0
LINE
8
BLACK
6
CONTINUOUS
10
4.6417
20
-4.21141
11
4.64244
21
-4.21122
0
LINE
8
BLACK
6
CONTINUOUS
10
4.64244
20
-4.21122
11
4.64256
21
-4.21127
0
LINE
8
BLACK
6
CONTINUOUS
10
4.57705
20
-4.1758
11
4.57797
21
-4.17594
0
LINE
8
BLACK
6
CONTINUOUS
10
4.57797
20
-4.17594
11
4.57803
21
-4.176
0
LINE
8
BLACK
6
CONTINUOUS
10
4.57803
20
-4.176
11
4.57811
21
-4.17602
0
LINE
8
BLACK
6
CONTINUOUS
10
4.57811
20
-4.17602
11
4.57869
21
-4.17675
0
LINE
8
BLACK
6
CONTINUOUS
10
4.57869
20
-4.17675
11
4.57931
21
-4.17745
0
LINE
8
BLACK
6
CONTINUOUS
10
4.57931
20
-4.17745
11
4.57931
21
-4.17754
0
LINE
8
BLACK
6
CONTINUOUS
10
4.57931
20
-4.17754
11
4.57937
21
-4.1776
0
LINE
8
BLACK
6
CONTINUOUS
10
4.57937
20
-4.1776
11
4.59249
21
-4.21697
0
LINE
8
BLACK
6
CONTINUOUS
10
4.59249
20
-4.21697
11
4.59264
21
-4.21799
0
LINE
8
BLACK
6
CONTINUOUS
10
4.59264
20
-4.21799
11
4.5919
21
-4.21987
0
LINE
8
BLACK
6
CONTINUOUS
10
4.5919
20
-4.21987
11
4.59012
21
-4.22083
0
LINE
8
BLACK
6
CONTINUOUS
10
4.59012
20
-4.22083
11
4.58814
21
-4.22042
0
LINE
8
BLACK
6
CONTINUOUS
10
4.58814
20
-4.22042
11
4.58689
21
-4.21884
0
LINE
8
BLACK
6
CONTINUOUS
10
4.58689
20
-4.21884
11
4.58381
21
-4.20961
0
LINE
8
BLACK
6
CONTINUOUS
10
4.58381
20
-4.20961
11
4.56932
21
-4.20961
0
LINE
8
BLACK
6
CONTINUOUS
10
4.56932
20
-4.20961
11
4.56624
21
-4.21884
0
LINE
8
BLACK
6
CONTINUOUS
10
4.56624
20
-4.21884
11
4.56576
21
-4.21974
0
LINE
8
BLACK
6
CONTINUOUS
10
4.56576
20
-4.21974
11
4.56403
21
-4.2208
0
LINE
8
BLACK
6
CONTINUOUS
10
4.56403
20
-4.2208
11
4.56204
21
-4.2205
0
LINE
8
BLACK
6
CONTINUOUS
10
4.56204
20
-4.2205
11
4.5607
21
-4.21899
0
LINE
8
BLACK
6
CONTINUOUS
10
4.5607
20
-4.21899
11
4.56064
21
-4.21697
0
LINE
8
BLACK
6
CONTINUOUS
10
4.56064
20
-4.21697
11
4.57376
21
-4.1776
0
LINE
8
BLACK
6
CONTINUOUS
10
4.57376
20
-4.1776
11
4.57425
21
-4.1767
0
LINE
8
BLACK
6
CONTINUOUS
10
4.57425
20
-4.1767
11
4.57432
21
-4.17666
0
LINE
8
BLACK
6
CONTINUOUS
10
4.57432
20
-4.17666
11
4.57436
21
-4.17658
0
LINE
8
BLACK
6
CONTINUOUS
10
4.57436
20
-4.17658
11
4.57518
21
-4.17613
0
LINE
8
BLACK
6
CONTINUOUS
10
4.57518
20
-4.17613
11
4.57597
21
-4.17564
0
LINE
8
BLACK
6
CONTINUOUS
10
4.57597
20
-4.17564
11
4.57606
21
-4.17566
0
LINE
8
BLACK
6
CONTINUOUS
10
4.57606
20
-4.17566
11
4.57613
21
-4.17562
0
LINE
8
BLACK
6
CONTINUOUS
10
4.57613
20
-4.17562
11
4.57705
21
-4.1758
0
LINE
8
BLACK
6
CONTINUOUS
10
4.57129
20
-4.2037
11
4.58184
21
-4.2037
0
LINE
8
BLACK
6
CONTINUOUS
10
4.58184
20
-4.2037
11
4.57657
21
-4.18787
0
LINE
8
BLACK
6
CONTINUOUS
10
4.57657
20
-4.18787
11
4.57129
21
-4.2037
0
LINE
8
BLACK
6
CONTINUOUS
10
4.51857
20
-4.1757
11
4.51896
21
-4.17563
0
LINE
8
BLACK
6
CONTINUOUS
10
4.51896
20
-4.17563
11
4.51952
21
-4.17595
0
LINE
8
BLACK
6
CONTINUOUS
10
4.51952
20
-4.17595
11
4.52014
21
-4.17612
0
LINE
8
BLACK
6
CONTINUOUS
10
4.52014
20
-4.17612
11
4.52037
21
-4.17644
0
LINE
8
BLACK
6
CONTINUOUS
10
4.52037
20
-4.17644
11
4.52071
21
-4.17664
0
LINE
8
BLACK
6
CONTINUOUS
10
4.52071
20
-4.17664
11
4.52093
21
-4.17724
0
LINE
8
BLACK
6
CONTINUOUS
10
4.52093
20
-4.17724
11
4.5213
21
-4.17777
0
LINE
8
BLACK
6
CONTINUOUS
10
4.5213
20
-4.17777
11
4.52127
21
-4.17817
0
LINE
8
BLACK
6
CONTINUOUS
10
4.52127
20
-4.17817
11
4.5214
21
-4.17854
0
LINE
8
BLACK
6
CONTINUOUS
10
4.5214
20
-4.17854
11
4.5214
21
-4.21791
0
LINE
8
BLACK
6
CONTINUOUS
10
4.5214
20
-4.21791
11
4.52122
21
-4.21892
0
LINE
8
BLACK
6
CONTINUOUS
10
4.52122
20
-4.21892
11
4.51992
21
-4.22046
0
LINE
8
BLACK
6
CONTINUOUS
10
4.51992
20
-4.22046
11
4.51793
21
-4.22081
0
LINE
8
BLACK
6
CONTINUOUS
10
4.51793
20
-4.22081
11
4.51619
21
-4.2198
0
LINE
8
BLACK
6
CONTINUOUS
10
4.51619
20
-4.2198
11
4.51549
21
-4.21791
0
LINE
8
BLACK
6
CONTINUOUS
10
4.51549
20
-4.21791
11
4.51549
21
-4.19185
0
LINE
8
BLACK
6
CONTINUOUS
10
4.51549
20
-4.19185
11
4.508
21
-4.20791
0
LINE
8
BLACK
6
CONTINUOUS
10
4.508
20
-4.20791
11
4.50778
21
-4.20822
0
LINE
8
BLACK
6
CONTINUOUS
10
4.50778
20
-4.20822
11
4.50774
21
-4.20835
0
LINE
8
BLACK
6
CONTINUOUS
10
4.50774
20
-4.20835
11
4.50764
21
-4.20843
0
LINE
8
BLACK
6
CONTINUOUS
10
4.50764
20
-4.20843
11
4.50741
21
-4.20875
0
LINE
8
BLACK
6
CONTINUOUS
10
4.50741
20
-4.20875
11
4.50672
21
-4.20907
0
LINE
8
BLACK
6
CONTINUOUS
10
4.50672
20
-4.20907
11
4.50609
21
-4.20951
0
LINE
8
BLACK
6
CONTINUOUS
10
4.50609
20
-4.20951
11
4.50582
21
-4.20949
0
LINE
8
BLACK
6
CONTINUOUS
10
4.50582
20
-4.20949
11
4.50558
21
-4.2096
0
LINE
8
BLACK
6
CONTINUOUS
10
4.50558
20
-4.2096
11
4.50484
21
-4.2094
0
LINE
8
BLACK
6
CONTINUOUS
10
4.50484
20
-4.2094
11
4.50408
21
-4.20933
0
LINE
8
BLACK
6
CONTINUOUS
10
4.50408
20
-4.20933
11
4.50389
21
-4.20915
0
LINE
8
BLACK
6
CONTINUOUS
10
4.50389
20
-4.20915
11
4.50363
21
-4.20908
0
LINE
8
BLACK
6
CONTINUOUS
10
4.50363
20
-4.20908
11
4.50319
21
-4.20845
0
LINE
8
BLACK
6
CONTINUOUS
10
4.50319
20
-4.20845
11
4.50265
21
-4.20791
0
LINE
8
BLACK
6
CONTINUOUS
10
4.50265
20
-4.20791
11
4.49515
21
-4.19185
0
LINE
8
BLACK
6
CONTINUOUS
10
4.49515
20
-4.19185
11
4.49515
21
-4.21791
0
LINE
8
BLACK
6
CONTINUOUS
10
4.49515
20
-4.21791
11
4.49498
21
-4.21892
0
LINE
8
BLACK
6
CONTINUOUS
10
4.49498
20
-4.21892
11
4.49368
21
-4.22046
0
LINE
8
BLACK
6
CONTINUOUS
10
4.49368
20
-4.22046
11
4.49169
21
-4.22081
0
LINE
8
BLACK
6
CONTINUOUS
10
4.49169
20
-4.22081
11
4.48994
21
-4.2198
0
LINE
8
BLACK
6
CONTINUOUS
10
4.48994
20
-4.2198
11
4.48925
21
-4.21791
0
LINE
8
BLACK
6
CONTINUOUS
10
4.48925
20
-4.21791
11
4.48925
21
-4.17854
0
LINE
8
BLACK
6
CONTINUOUS
10
4.48925
20
-4.17854
11
4.48943
21
-4.17753
0
LINE
8
BLACK
6
CONTINUOUS
10
4.48943
20
-4.17753
11
4.48968
21
-4.17722
0
LINE
8
BLACK
6
CONTINUOUS
10
4.48968
20
-4.17722
11
4.48978
21
-4.17684
0
LINE
8
BLACK
6
CONTINUOUS
10
4.48978
20
-4.17684
11
4.49031
21
-4.17647
0
LINE
8
BLACK
6
CONTINUOUS
10
4.49031
20
-4.17647
11
4.49072
21
-4.17598
0
LINE
8
BLACK
6
CONTINUOUS
10
4.49072
20
-4.17598
11
4.49111
21
-4.17591
0
LINE
8
BLACK
6
CONTINUOUS
10
4.49111
20
-4.17591
11
4.49144
21
-4.17568
0
LINE
8
BLACK
6
CONTINUOUS
10
4.49144
20
-4.17568
11
4.49208
21
-4.17574
0
LINE
8
BLACK
6
CONTINUOUS
10
4.49208
20
-4.17574
11
4.49271
21
-4.17563
0
LINE
8
BLACK
6
CONTINUOUS
10
4.49271
20
-4.17563
11
4.49306
21
-4.17583
0
LINE
8
BLACK
6
CONTINUOUS
10
4.49306
20
-4.17583
11
4.49345
21
-4.17586
0
LINE
8
BLACK
6
CONTINUOUS
10
4.49345
20
-4.17586
11
4.4939
21
-4.17632
0
LINE
8
BLACK
6
CONTINUOUS
10
4.4939
20
-4.17632
11
4.49446
21
-4.17664
0
LINE
8
BLACK
6
CONTINUOUS
10
4.49446
20
-4.17664
11
4.4946
21
-4.17701
0
LINE
8
BLACK
6
CONTINUOUS
10
4.4946
20
-4.17701
11
4.49488
21
-4.17729
0
LINE
8
BLACK
6
CONTINUOUS
10
4.49488
20
-4.17729
11
4.50532
21
-4.19968
0
LINE
8
BLACK
6
CONTINUOUS
10
4.50532
20
-4.19968
11
4.51577
21
-4.17729
0
LINE
8
BLACK
6
CONTINUOUS
10
4.51577
20
-4.17729
11
4.51636
21
-4.17645
0
LINE
8
BLACK
6
CONTINUOUS
10
4.51636
20
-4.17645
11
4.51672
21
-4.17628
0
LINE
8
BLACK
6
CONTINUOUS
10
4.51672
20
-4.17628
11
4.51697
21
-4.17598
0
LINE
8
BLACK
6
CONTINUOUS
10
4.51697
20
-4.17598
11
4.51761
21
-4.17587
0
LINE
8
BLACK
6
CONTINUOUS
10
4.51761
20
-4.17587
11
4.51819
21
-4.17559
0
LINE
8
BLACK
6
CONTINUOUS
10
4.51819
20
-4.17559
11
4.51857
21
-4.1757
0
LINE
8
BLACK
6
CONTINUOUS
10
4.91
20
-4.04
11
4.85
21
-4.04
0
LINE
8
BLACK
6
CONTINUOUS
10
4.85
20
-4.04
11
4.85
21
-3.98
0
LINE
8
BLACK
6
CONTINUOUS
10
4.85
20
-3.98
11
4.91
21
-3.98
0
LINE
8
BLACK
6
CONTINUOUS
10
4.91
20
-3.98
11
4.91
21
-4.04
0
LINE
8
BLACK
6
CONTINUOUS
10
5.01
20
-4.04
11
4.95
21
-4.04
0
LINE
8
BLACK
6
CONTINUOUS
10
4.95
20
-4.04
11
4.95
21
-3.98
0
LINE
8
BLACK
6
CONTINUOUS
10
4.95
20
-3.98
11
5.01
21
-3.98
0
LINE
8
BLACK
6
CONTINUOUS
10
5.01
20
-3.98
11
5.01
21
-4.04
0
LINE
8
BLACK
6
CONTINUOUS
10
4.91
20
-3.94
11
4.85
21
-3.94
0
LINE
8
BLACK
6
CONTINUOUS
10
4.85
20
-3.94
11
4.85
21
-3.88
0
LINE
8
BLACK
6
CONTINUOUS
10
4.85
20
-3.88
11
4.91
21
-3.88
0
LINE
8
BLACK
6
CONTINUOUS
10
4.91
20
-3.88
11
4.91
21
-3.94
0
LINE
8
BLACK
6
CONTINUOUS
10
5.01
20
-3.94
11
4.95
21
-3.94
0
LINE
8
BLACK
6
CONTINUOUS
10
4.95
20
-3.94
11
4.95
21
-3.88
0
LINE
8
BLACK
6
CONTINUOUS
10
4.95
20
-3.88
11
5.01
21
-3.88
0
LINE
8
BLACK
6
CONTINUOUS
10
5.01
20
-3.88
11
5.01
21
-3.94
0
LINE
8
BLACK
6
CONTINUOUS
10
5.96776
20
-3.83078
11
5.96956
21
-3.83285
0
LINE
8
BLACK
6
CONTINUOUS
10
5.96956
20
-3.83285
11
5.97
21
-3.83488
0
LINE
8
BLACK
6
CONTINUOUS
10
5.97
20
-3.83488
11
5.97
21
-4.56512
0
LINE
8
BLACK
6
CONTINUOUS
10
5.97
20
-4.56512
11
5.96922
21
-4.56776
0
LINE
8
BLACK
6
CONTINUOUS
10
5.96922
20
-4.56776
11
5.96715
21
-4.56956
0
LINE
8
BLACK
6
CONTINUOUS
10
5.96715
20
-4.56956
11
5.96512
21
-4.57
0
LINE
8
BLACK
6
CONTINUOUS
10
5.96512
20
-4.57
11
4.43488
21
-4.57
0
LINE
8
BLACK
6
CONTINUOUS
10
4.43488
20
-4.57
11
4.43224
21
-4.56923
0
LINE
8
BLACK
6
CONTINUOUS
10
4.43224
20
-4.56923
11
4.43044
21
-4.56715
0
LINE
8
BLACK
6
CONTINUOUS
10
4.43044
20
-4.56715
11
4.43
21
-4.56512
0
LINE
8
BLACK
6
CONTINUOUS
10
4.43
20
-4.56512
11
4.43
21
-4.53188
0
LINE
8
BLACK
6
CONTINUOUS
10
4.43
20
-4.53188
11
4.43
21
-4.35
0
LINE
8
BLACK
6
CONTINUOUS
10
4.43
20
-4.35
11
4.43
21
-4.24074
0
LINE
8
BLACK
6
CONTINUOUS
10
4.43
20
-4.24074
11
4.43
21
-4.04188
0
LINE
8
BLACK
6
CONTINUOUS
10
4.43
20
-4.04188
11
4.43
21
-3.83488
0
LINE
8
BLACK
6
CONTINUOUS
10
4.43
20
-3.83488
11
4.43077
21
-3.83224
0
LINE
8
BLACK
6
CONTINUOUS
10
4.43077
20
-3.83224
11
4.43285
21
-3.83044
0
LINE
8
BLACK
6
CONTINUOUS
10
4.43285
20
-3.83044
11
4.43488
21
-3.83
0
LINE
8
BLACK
6
CONTINUOUS
10
4.43488
20
-3.83
11
5.96512
21
-3.83
0
LINE
8
BLACK
6
CONTINUOUS
10
5.96512
20
-3.83
11
5.96776
21
-3.83078
0
LINE
8
BLACK
6
CONTINUOUS
10
5.42812
20
-4.3503
11
5.42577
21
-4.35055
0
LINE
8
BLACK
6
CONTINUOUS
10
5.42577
20
-4.35055
11
5.42046
21
-4.35253
0
LINE
8
BLACK
6
CONTINUOUS
10
5.42046
20
-4.35253
11
5.42046
21
-4.35253
0
LINE
8
BLACK
6
CONTINUOUS
10
5.42046
20
-4.35253
11
5.41592
21
-4.35592
0
LINE
8
BLACK
6
CONTINUOUS
10
5.41592
20
-4.35592
11
5.4139
21
-4.35863
0
LINE
8
BLACK
6
CONTINUOUS
10
5.4139
20
-4.35863
11
5.41169
21
-4.36028
0
LINE
8
BLACK
6
CONTINUOUS
10
5.41169
20
-4.36028
11
5.40895
21
-4.36048
0
LINE
8
BLACK
6
CONTINUOUS
10
5.40895
20
-4.36048
11
5.40654
21
-4.35916
0
LINE
8
BLACK
6
CONTINUOUS
10
5.40654
20
-4.35916
11
5.40608
21
-4.35863
0
LINE
8
BLACK
6
CONTINUOUS
10
5.40608
20
-4.35863
11
5.40406
21
-4.35594
0
LINE
8
BLACK
6
CONTINUOUS
10
5.40406
20
-4.35594
11
5.39953
21
-4.35255
0
LINE
8
BLACK
6
CONTINUOUS
10
5.39953
20
-4.35255
11
5.39953
21
-4.35255
0
LINE
8
BLACK
6
CONTINUOUS
10
5.39953
20
-4.35255
11
5.39423
21
-4.35057
0
LINE
8
BLACK
6
CONTINUOUS
10
5.39423
20
-4.35057
11
5.39423
21
-4.35057
0
LINE
8
BLACK
6
CONTINUOUS
10
5.39423
20
-4.35057
11
5.39188
21
-4.35031
0
LINE
8
BLACK
6
CONTINUOUS
10
5.39188
20
-4.35031
11
5.36984
21
-4.35031
0
LINE
8
BLACK
6
CONTINUOUS
10
5.36984
20
-4.35031
11
5.36984
21
-4.37
0
LINE
8
BLACK
6
CONTINUOUS
10
5.36984
20
-4.37
11
5.39
21
-4.37
0
LINE
8
BLACK
6
CONTINUOUS
10
5.39
20
-4.37
11
5.39
21
-4.43
0
LINE
8
BLACK
6
CONTINUOUS
10
5.39
20
-4.43
11
5.36984
21
-4.43
0
LINE
8
BLACK
6
CONTINUOUS
10
5.36984
20
-4.43
11
5.36984
21
-4.47
0
LINE
8
BLACK
6
CONTINUOUS
10
5.36984
20
-4.47
11
5.39
21
-4.47
0
LINE
8
BLACK
6
CONTINUOUS
10
5.39
20
-4.47
11
5.39
21
-4.53
0
LINE
8
BLACK
6
CONTINUOUS
10
5.39
20
-4.53
11
5.36984
21
-4.53
0
LINE
8
BLACK
6
CONTINUOUS
10
5.36984
20
-4.53
11
5.36984
21
-4.54969
0
LINE
8
BLACK
6
CONTINUOUS
10
5.36984
20
-4.54969
11
5.39188
21
-4.54969
0
LINE
8
BLACK
6
CONTINUOUS
10
5.39188
20
-4.54969
11
5.39188
21
-4.54969
0
LINE
8
BLACK
6
CONTINUOUS
10
5.39188
20
-4.54969
11
5.39423
21
-4.54943
0
LINE
8
BLACK
6
CONTINUOUS
10
5.39423
20
-4.54943
11
5.39423
21
-4.54943
0
LINE
8
BLACK
6
CONTINUOUS
10
5.39423
20
-4.54943
11
5.39953
21
-4.54745
0
LINE
8
BLACK
6
CONTINUOUS
10
5.39953
20
-4.54745
11
5.39953
21
-4.54745
0
LINE
8
BLACK
6
CONTINUOUS
10
5.39953
20
-4.54745
11
5.40406
21
-4.54406
0
LINE
8
BLACK
6
CONTINUOUS
10
5.40406
20
-4.54406
11
5.40406
21
-4.54406
0
LINE
8
BLACK
6
CONTINUOUS
10
5.40406
20
-4.54406
11
5.40608
21
-4.54137
0
LINE
8
BLACK
6
CONTINUOUS
10
5.40608
20
-4.54137
11
5.40828
21
-4.53972
0
LINE
8
BLACK
6
CONTINUOUS
10
5.40828
20
-4.53972
11
5.41103
21
-4.53952
0
LINE
8
BLACK
6
CONTINUOUS
10
5.41103
20
-4.53952
11
5.41344
21
-4.54084
0
LINE
8
BLACK
6
CONTINUOUS
10
5.41344
20
-4.54084
11
5.4139
21
-4.54137
0
LINE
8
BLACK
6
CONTINUOUS
10
5.4139
20
-4.54137
11
5.41497
21
-4.5428
0
LINE
8
BLACK
6
CONTINUOUS
10
5.41497
20
-4.5428
11
5.41591
21
-4.54406
0
LINE
8
BLACK
6
CONTINUOUS
10
5.41591
20
-4.54406
11
5.41592
21
-4.54408
0
LINE
8
BLACK
6
CONTINUOUS
10
5.41592
20
-4.54408
11
5.42046
21
-4.54747
0
LINE
8
BLACK
6
CONTINUOUS
10
5.42046
20
-4.54747
11
5.42046
21
-4.54747
0
LINE
8
BLACK
6
CONTINUOUS
10
5.42046
20
-4.54747
11
5.42577
21
-4.54945
0
LINE
8
BLACK
6
CONTINUOUS
10
5.42577
20
-4.54945
11
5.42577
21
-4.54945
0
LINE
8
BLACK
6
CONTINUOUS
10
5.42577
20
-4.54945
11
5.42604
21
-4.54948
0
LINE
8
BLACK
6
CONTINUOUS
10
5.42604
20
-4.54948
11
5.42812
21
-4.5497
0
LINE
8
BLACK
6
CONTINUOUS
10
5.42812
20
-4.5497
11
5.49188
21
-4.5497
0
LINE
8
BLACK
6
CONTINUOUS
10
5.49188
20
-4.5497
11
5.49423
21
-4.54945
0
LINE
8
BLACK
6
CONTINUOUS
10
5.49423
20
-4.54945
11
5.49954
21
-4.54747
0
LINE
8
BLACK
6
CONTINUOUS
10
5.49954
20
-4.54747
11
5.50408
21
-4.54408
0
LINE
8
BLACK
6
CONTINUOUS
10
5.50408
20
-4.54408
11
5.5061
21
-4.54137
0
LINE
8
BLACK
6
CONTINUOUS
10
5.5061
20
-4.54137
11
5.50831
21
-4.53972
0
LINE
8
BLACK
6
CONTINUOUS
10
5.50831
20
-4.53972
11
5.51105
21
-4.53952
0
LINE
8
BLACK
6
CONTINUOUS
10
5.51105
20
-4.53952
11
5.51346
21
-4.54084
0
LINE
8
BLACK
6
CONTINUOUS
10
5.51346
20
-4.54084
11
5.51392
21
-4.54137
0
LINE
8
BLACK
6
CONTINUOUS
10
5.51392
20
-4.54137
11
5.51594
21
-4.54406
0
LINE
8
BLACK
6
CONTINUOUS
10
5.51594
20
-4.54406
11
5.52047
21
-4.54745
0
LINE
8
BLACK
6
CONTINUOUS
10
5.52047
20
-4.54745
11
5.52047
21
-4.54745
0
LINE
8
BLACK
6
CONTINUOUS
10
5.52047
20
-4.54745
11
5.52577
21
-4.54943
0
LINE
8
BLACK
6
CONTINUOUS
10
5.52577
20
-4.54943
11
5.52577
21
-4.54943
0
LINE
8
BLACK
6
CONTINUOUS
10
5.52577
20
-4.54943
11
5.52812
21
-4.54969
0
LINE
8
BLACK
6
CONTINUOUS
10
5.52812
20
-4.54969
11
5.52812
21
-4.54969
0
LINE
8
BLACK
6
CONTINUOUS
10
5.52812
20
-4.54969
11
5.55016
21
-4.54969
0
LINE
8
BLACK
6
CONTINUOUS
10
5.55016
20
-4.54969
11
5.55016
21
-4.53
0
LINE
8
BLACK
6
CONTINUOUS
10
5.55016
20
-4.53
11
5.53
21
-4.53
0
LINE
8
BLACK
6
CONTINUOUS
10
5.53
20
-4.53
11
5.53
21
-4.47
0
LINE
8
BLACK
6
CONTINUOUS
10
5.53
20
-4.47
11
5.55016
21
-4.47
0
LINE
8
BLACK
6
CONTINUOUS
10
5.55016
20
-4.47
11
5.55016
21
-4.43
0
LINE
8
BLACK
6
CONTINUOUS
10
5.55016
20
-4.43
11
5.53
21
-4.43
0
LINE
8
BLACK
6
CONTINUOUS
10
5.53
20
-4.43
11
5.53
21
-4.37
0
LINE
8
BLACK
6
CONTINUOUS
10
5.53
20
-4.37
11
5.55016
21
-4.37
0
LINE
8
BLACK
6
CONTINUOUS
10
5.55016
20
-4.37
11
5.55016
21
-4.35031
0
LINE
8
BLACK
6
CONTINUOUS
10
5.55016
20
-4.35031
11
5.52812
21
-4.35031
0
LINE
8
BLACK
6
CONTINUOUS
10
5.52812
20
-4.35031
11
5.52577
21
-4.35057
0
LINE
8
BLACK
6
CONTINUOUS
10
5.52577
20
-4.35057
11
5.52577
21
-4.35057
0
LINE
8
BLACK
6
CONTINUOUS
10
5.52577
20
-4.35057
11
5.52047
21
-4.35255
0
LINE
8
BLACK
6
CONTINUOUS
10
5.52047
20
-4.35255
11
5.52047
21
-4.35255
0
LINE
8
BLACK
6
CONTINUOUS
10
5.52047
20
-4.35255
11
5.51594
21
-4.35594
0
LINE
8
BLACK
6
CONTINUOUS
10
5.51594
20
-4.35594
11
5.51392
21
-4.35863
0
LINE
8
BLACK
6
CONTINUOUS
10
5.51392
20
-4.35863
11
5.51172
21
-4.36028
0
LINE
8
BLACK
6
CONTINUOUS
10
5.51172
20
-4.36028
11
5.50897
21
-4.36048
0
LINE
8
BLACK
6
CONTINUOUS
10
5.50897
20
-4.36048
11
5.50656
21
-4.35916
0
LINE
8
BLACK
6
CONTINUOUS
10
5.50656
20
-4.35916
11
5.5061
21
-4.35863
0
LINE
8
BLACK
6
CONTINUOUS
10
5.5061
20
-4.35863
11
5.50408
21
-4.35592
0
LINE
8
BLACK
6
CONTINUOUS
10
5.50408
20
-4.35592
11
5.50408
21
-4.35592
0
LINE
8
BLACK
6
CONTINUOUS
10
5.50408
20
-4.35592
11
5.49954
21
-4.35253
0
LINE
8
BLACK
6
CONTINUOUS
10
5.49954
20
-4.35253
11
5.49954
21
-4.35253
0
LINE
8
BLACK
6
CONTINUOUS
10
5.49954
20
-4.35253
11
5.49423
21
-4.35055
0
LINE
8
BLACK
6
CONTINUOUS
10
5.49423
20
-4.35055
11
5.49423
21
-4.35055
0
LINE
8
BLACK
6
CONTINUOUS
10
5.49423
20
-4.35055
11
5.49189
21
-4.3503
0
LINE
8
BLACK
6
CONTINUOUS
10
5.49189
20
-4.3503
11
5.49189
21
-4.3503
0
LINE
8
BLACK
6
CONTINUOUS
10
5.49189
20
-4.3503
11
5.49188
21
-4.3503
0
LINE
8
BLACK
6
CONTINUOUS
10
5.49188
20
-4.3503
11
5.49188
21
-4.3503
0
LINE
8
BLACK
6
CONTINUOUS
10
5.49188
20
-4.3503
11
5.42812
21
-4.3503
0
LINE
8
BLACK
6
CONTINUOUS
10
5.42812
20
-4.3503
11
5.42812
21
-4.3503
0
LINE
8
BLACK
6
CONTINUOUS
10
5.31031
20
-4.50984
11
5.31031
21
-4.53188
0
LINE
8
BLACK
6
CONTINUOUS
10
5.31031
20
-4.53188
11
5.31057
21
-4.53423
0
LINE
8
BLACK
6
CONTINUOUS
10
5.31057
20
-4.53423
11
5.31057
21
-4.53423
0
LINE
8
BLACK
6
CONTINUOUS
10
5.31057
20
-4.53423
11
5.31255
21
-4.53953
0
LINE
8
BLACK
6
CONTINUOUS
10
5.31255
20
-4.53953
11
5.31255
21
-4.53953
0
LINE
8
BLACK
6
CONTINUOUS
10
5.31255
20
-4.53953
11
5.31594
21
-4.54406
0
LINE
8
BLACK
6
CONTINUOUS
10
5.31594
20
-4.54406
11
5.31594
21
-4.54406
0
LINE
8
BLACK
6
CONTINUOUS
10
5.31594
20
-4.54406
11
5.32047
21
-4.54745
0
LINE
8
BLACK
6
CONTINUOUS
10
5.32047
20
-4.54745
11
5.32047
21
-4.54745
0
LINE
8
BLACK
6
CONTINUOUS
10
5.32047
20
-4.54745
11
5.32577
21
-4.54943
0
LINE
8
BLACK
6
CONTINUOUS
10
5.32577
20
-4.54943
11
5.32577
21
-4.54943
0
LINE
8
BLACK
6
CONTINUOUS
10
5.32577
20
-4.54943
11
5.32812
21
-4.54969
0
LINE
8
BLACK
6
CONTINUOUS
10
5.32812
20
-4.54969
11
5.32812
21
-4.54969
0
LINE
8
BLACK
6
CONTINUOUS
10
5.32812
20
-4.54969
11
5.35016
21
-4.54969
0
LINE
8
BLACK
6
CONTINUOUS
10
5.35016
20
-4.54969
11
5.35016
21
-4.53
0
LINE
8
BLACK
6
CONTINUOUS
10
5.35016
20
-4.53
11
5.33
21
-4.53
0
LINE
8
BLACK
6
CONTINUOUS
10
5.33
20
-4.53
11
5.33
21
-4.50984
0
LINE
8
BLACK
6
CONTINUOUS
10
5.33
20
-4.50984
11
5.31031
21
-4.50984
0
LINE
8
BLACK
6
CONTINUOUS
10
5.59
20
-4.53
11
5.56984
21
-4.53
0
LINE
8
BLACK
6
CONTINUOUS
10
5.56984
20
-4.53
11
5.56984
21
-4.54969
0
LINE
8
BLACK
6
CONTINUOUS
10
5.56984
20
-4.54969
11
5.59188
21
-4.54969
0
LINE
8
BLACK
6
CONTINUOUS
10
5.59188
20
-4.54969
11
5.59188
21
-4.54969
0
LINE
8
BLACK
6
CONTINUOUS
10
5.59188
20
-4.54969
11
5.59423
21
-4.54943
0
LINE
8
BLACK
6
CONTINUOUS
10
5.59423
20
-4.54943
11
5.59423
21
-4.54943
0
LINE
8
BLACK
6
CONTINUOUS
10
5.59423
20
-4.54943
11
5.59953
21
-4.54745
0
LINE
8
BLACK
6
CONTINUOUS
10
5.59953
20
-4.54745
11
5.59953
21
-4.54745
0
LINE
8
BLACK
6
CONTINUOUS
10
5.59953
20
-4.54745
11
5.60406
21
-4.54406
0
LINE
8
BLACK
6
CONTINUOUS
10
5.60406
20
-4.54406
11
5.60406
21
-4.54406
0
LINE
8
BLACK
6
CONTINUOUS
10
5.60406
20
-4.54406
11
5.60745
21
-4.53953
0
LINE
8
BLACK
6
CONTINUOUS
10
5.60745
20
-4.53953
11
5.60745
21
-4.53953
0
LINE
8
BLACK
6
CONTINUOUS
10
5.60745
20
-4.53953
11
5.60943
21
-4.53423
0
LINE
8
BLACK
6
CONTINUOUS
10
5.60943
20
-4.53423
11
5.60943
21
-4.53423
0
LINE
8
BLACK
6
CONTINUOUS
10
5.60943
20
-4.53423
11
5.60968
21
-4.53188
0
LINE
8
BLACK
6
CONTINUOUS
10
5.60968
20
-4.53188
11
5.60969
21
-4.53188
0
LINE
8
BLACK
6
CONTINUOUS
10
5.60969
20
-4.53188
11
5.60969
21
-4.50984
0
LINE
8
BLACK
6
CONTINUOUS
10
5.60969
20
-4.50984
11
5.59
21
-4.50984
0
LINE
8
BLACK
6
CONTINUOUS
10
5.59
20
-4.50984
11
5.59
21
-4.53
0
LINE
8
BLACK
6
CONTINUOUS
10
5.03718
20
-4.31482
11
5.03117
21
-4.3161
0
LINE
8
BLACK
6
CONTINUOUS
10
5.03117
20
-4.3161
11
5.03117
21
-4.3161
0
LINE
8
BLACK
6
CONTINUOUS
10
5.03117
20
-4.3161
11
5.02436
21
-4.31913
0
LINE
8
BLACK
6
CONTINUOUS
10
5.02436
20
-4.31913
11
5.02436
21
-4.31913
0
LINE
8
BLACK
6
CONTINUOUS
10
5.02436
20
-4.31913
11
5.01833
21
-4.32351
0
LINE
8
BLACK
6
CONTINUOUS
10
5.01833
20
-4.32351
11
5.01334
21
-4.32905
0
LINE
8
BLACK
6
CONTINUOUS
10
5.01334
20
-4.32905
11
5.00962
21
-4.3355
0
LINE
8
BLACK
6
CONTINUOUS
10
5.00962
20
-4.3355
11
5.00961
21
-4.3355
0
LINE
8
BLACK
6
CONTINUOUS
10
5.00961
20
-4.3355
11
5.00731
21
-4.34259
0
LINE
8
BLACK
6
CONTINUOUS
10
5.00731
20
-4.34259
11
5.00731
21
-4.34259
0
LINE
8
BLACK
6
CONTINUOUS
10
5.00731
20
-4.34259
11
5.00653
21
-4.35
0
LINE
8
BLACK
6
CONTINUOUS
10
5.00653
20
-4.35
11
5.00731
21
-4.35741
0
LINE
8
BLACK
6
CONTINUOUS
10
5.00731
20
-4.35741
11
5.00731
21
-4.35741
0
LINE
8
BLACK
6
CONTINUOUS
10
5.00731
20
-4.35741
11
5.00961
21
-4.3645
0
LINE
8
BLACK
6
CONTINUOUS
10
5.00961
20
-4.3645
11
5.00962
21
-4.3645
0
LINE
8
BLACK
6
CONTINUOUS
10
5.00962
20
-4.3645
11
5.01334
21
-4.37095
0
LINE
8
BLACK
6
CONTINUOUS
10
5.01334
20
-4.37095
11
5.01833
21
-4.37649
0
LINE
8
BLACK
6
CONTINUOUS
10
5.01833
20
-4.37649
11
5.01833
21
-4.37649
0
LINE
8
BLACK
6
CONTINUOUS
10
5.01833
20
-4.37649
11
5.02436
21
-4.38087
0
LINE
8
BLACK
6
CONTINUOUS
10
5.02436
20
-4.38087
11
5.02436
21
-4.38087
0
LINE
8
BLACK
6
CONTINUOUS
10
5.02436
20
-4.38087
11
5.03117
21
-4.3839
0
LINE
8
BLACK
6
CONTINUOUS
10
5.03117
20
-4.3839
11
5.03117
21
-4.3839
0
LINE
8
BLACK
6
CONTINUOUS
10
5.03117
20
-4.3839
11
5.03117
21
-4.3839
0
LINE
8
BLACK
6
CONTINUOUS
10
5.03117
20
-4.3839
11
5.03794
21
-4.38534
0
LINE
8
BLACK
6
CONTINUOUS
10
5.03794
20
-4.38534
11
5.04036
21
-4.38665
0
LINE
8
BLACK
6
CONTINUOUS
10
5.04036
20
-4.38665
11
5.04037
21
-4.38667
0
LINE
8
BLACK
6
CONTINUOUS
10
5.04037
20
-4.38667
11
5.08541
21
-4.4317
0
LINE
8
BLACK
6
CONTINUOUS
10
5.08541
20
-4.4317
11
5.08673
21
-4.43411
0
LINE
8
BLACK
6
CONTINUOUS
10
5.08673
20
-4.43411
11
5.08653
21
-4.43686
0
LINE
8
BLACK
6
CONTINUOUS
10
5.08653
20
-4.43686
11
5.08547
21
-4.43971
0
LINE
8
BLACK
6
CONTINUOUS
10
5.08547
20
-4.43971
11
5.08522
21
-4.44205
0
LINE
8
BLACK
6
CONTINUOUS
10
5.08522
20
-4.44205
11
5.08522
21
-4.44205
0
LINE
8
BLACK
6
CONTINUOUS
10
5.08522
20
-4.44205
11
5.08522
21
-4.44394
0
LINE
8
BLACK
6
CONTINUOUS
10
5.08522
20
-4.44394
11
5.09508
21
-4.44394
0
LINE
8
BLACK
6
CONTINUOUS
10
5.09508
20
-4.44394
11
5.09508
21
-4.50299
0
LINE
8
BLACK
6
CONTINUOUS
10
5.09508
20
-4.50299
11
5.08522
21
-4.50299
0
LINE
8
BLACK
6
CONTINUOUS
10
5.08522
20
-4.50299
11
5.08522
21
-4.50488
0
LINE
8
BLACK
6
CONTINUOUS
10
5.08522
20
-4.50488
11
5.08522
21
-4.50488
0
LINE
8
BLACK
6
CONTINUOUS
10
5.08522
20
-4.50488
11
5.08547
21
-4.50722
0
LINE
8
BLACK
6
CONTINUOUS
10
5.08547
20
-4.50722
11
5.08745
21
-4.51253
0
LINE
8
BLACK
6
CONTINUOUS
10
5.08745
20
-4.51253
11
5.08745
21
-4.51253
0
LINE
8
BLACK
6
CONTINUOUS
10
5.08745
20
-4.51253
11
5.09084
21
-4.51707
0
LINE
8
BLACK
6
CONTINUOUS
10
5.09084
20
-4.51707
11
5.09084
21
-4.51707
0
LINE
8
BLACK
6
CONTINUOUS
10
5.09084
20
-4.51707
11
5.09538
21
-4.52046
0
LINE
8
BLACK
6
CONTINUOUS
10
5.09538
20
-4.52046
11
5.09538
21
-4.52046
0
LINE
8
BLACK
6
CONTINUOUS
10
5.09538
20
-4.52046
11
5.10069
21
-4.52244
0
LINE
8
BLACK
6
CONTINUOUS
10
5.10069
20
-4.52244
11
5.10069
21
-4.52244
0
LINE
8
BLACK
6
CONTINUOUS
10
5.10069
20
-4.52244
11
5.10096
21
-4.52247
0
LINE
8
BLACK
6
CONTINUOUS
10
5.10096
20
-4.52247
11
5.10304
21
-4.5227
0
LINE
8
BLACK
6
CONTINUOUS
10
5.10304
20
-4.5227
11
5.14618
21
-4.5227
0
LINE
8
BLACK
6
CONTINUOUS
10
5.14618
20
-4.5227
11
5.14852
21
-4.52244
0
LINE
8
BLACK
6
CONTINUOUS
10
5.14852
20
-4.52244
11
5.14852
21
-4.52244
0
LINE
8
BLACK
6
CONTINUOUS
10
5.14852
20
-4.52244
11
5.14855
21
-4.52244
0
LINE
8
BLACK
6
CONTINUOUS
10
5.14855
20
-4.52244
11
5.1486
21
-4.52244
0
LINE
8
BLACK
6
CONTINUOUS
10
5.1486
20
-4.52244
11
5.14883
21
-4.52241
0
LINE
8
BLACK
6
CONTINUOUS
10
5.14883
20
-4.52241
11
5.14883
21
-4.52243
0
LINE
8
BLACK
6
CONTINUOUS
10
5.14883
20
-4.52243
11
5.15036
21
-4.52236
0
LINE
8
BLACK
6
CONTINUOUS
10
5.15036
20
-4.52236
11
5.15413
21
-4.5229
0
LINE
8
BLACK
6
CONTINUOUS
10
5.15413
20
-4.5229
11
5.15413
21
-4.5229
0
LINE
8
BLACK
6
CONTINUOUS
10
5.15413
20
-4.5229
11
5.17862
21
-4.5229
0
LINE
8
BLACK
6
CONTINUOUS
10
5.17862
20
-4.5229
11
5.17862
21
-4.5229
0
LINE
8
BLACK
6
CONTINUOUS
10
5.17862
20
-4.5229
11
5.18423
21
-4.52209
0
LINE
8
BLACK
6
CONTINUOUS
10
5.18423
20
-4.52209
11
5.18966
21
-4.5205
0
LINE
8
BLACK
6
CONTINUOUS
10
5.18966
20
-4.5205
11
5.19481
21
-4.51814
0
LINE
8
BLACK
6
CONTINUOUS
10
5.19481
20
-4.51814
11
5.19957
21
-4.51508
0
LINE
8
BLACK
6
CONTINUOUS
10
5.19957
20
-4.51508
11
5.19957
21
-4.51508
0
LINE
8
BLACK
6
CONTINUOUS
10
5.19957
20
-4.51508
11
5.19957
21
-4.51508
0
LINE
8
BLACK
6
CONTINUOUS
10
5.19957
20
-4.51508
11
5.20386
21
-4.51137
0
LINE
8
BLACK
6
CONTINUOUS
10
5.20386
20
-4.51137
11
5.20386
21
-4.51137
0
LINE
8
BLACK
6
CONTINUOUS
10
5.20386
20
-4.51137
11
5.20756
21
-4.5071
0
LINE
8
BLACK
6
CONTINUOUS
10
5.20756
20
-4.5071
11
5.20756
21
-4.5071
0
LINE
8
BLACK
6
CONTINUOUS
10
5.20756
20
-4.5071
11
5.20756
21
-4.5071
0
LINE
8
BLACK
6
CONTINUOUS
10
5.20756
20
-4.5071
11
5.21063
21
-4.50233
0
LINE
8
BLACK
6
CONTINUOUS
10
5.21063
20
-4.50233
11
5.21063
21
-4.50233
0
LINE
8
BLACK
6
CONTINUOUS
10
5.21063
20
-4.50233
11
5.21063
21
-4.50233
0
LINE
8
BLACK
6
CONTINUOUS
10
5.21063
20
-4.50233
11
5.21229
21
-4.49868
0
LINE
8
BLACK
6
CONTINUOUS
10
5.21229
20
-4.49868
11
5.21298
21
-4.49718
0
LINE
8
BLACK
6
CONTINUOUS
10
5.21298
20
-4.49718
11
5.21298
21
-4.49718
0
LINE
8
BLACK
6
CONTINUOUS
10
5.21298
20
-4.49718
11
5.21298
21
-4.49718
0
LINE
8
BLACK
6
CONTINUOUS
10
5.21298
20
-4.49718
11
5.21298
21
-4.49716
0
LINE
8
BLACK
6
CONTINUOUS
10
5.21298
20
-4.49716
11
5.213
21
-4.4971
0
LINE
8
BLACK
6
CONTINUOUS
10
5.213
20
-4.4971
11
5.21457
21
-4.49174
0
LINE
8
BLACK
6
CONTINUOUS
10
5.21457
20
-4.49174
11
5.21538
21
-4.48614
0
LINE
8
BLACK
6
CONTINUOUS
10
5.21538
20
-4.48614
11
5.21538
21
-4.48392
0
LINE
8
BLACK
6
CONTINUOUS
10
5.21538
20
-4.48392
11
5.21538
21
-4.48392
0
LINE
8
BLACK
6
CONTINUOUS
10
5.21538
20
-4.48392
11
5.21538
21
-4.4819
0
LINE
8
BLACK
6
CONTINUOUS
10
5.21538
20
-4.4819
11
5.21538
21
-4.46503
0
LINE
8
BLACK
6
CONTINUOUS
10
5.21538
20
-4.46503
11
5.21538
21
-4.46503
0
LINE
8
BLACK
6
CONTINUOUS
10
5.21538
20
-4.46503
11
5.21538
21
-4.46301
0
LINE
8
BLACK
6
CONTINUOUS
10
5.21538
20
-4.46301
11
5.21538
21
-4.46301
0
LINE
8
BLACK
6
CONTINUOUS
10
5.21538
20
-4.46301
11
5.21538
21
-4.46079
0
LINE
8
BLACK
6
CONTINUOUS
10
5.21538
20
-4.46079
11
5.21538
21
-4.46079
0
LINE
8
BLACK
6
CONTINUOUS
10
5.21538
20
-4.46079
11
5.21468
21
-4.45594
0
LINE
8
BLACK
6
CONTINUOUS
10
5.21468
20
-4.45594
11
5.21459
21
-4.45528
0
LINE
8
BLACK
6
CONTINUOUS
10
5.21459
20
-4.45528
11
5.21457
21
-4.45519
0
LINE
8
BLACK
6
CONTINUOUS
10
5.21457
20
-4.45519
11
5.2142
21
-4.45391
0
LINE
8
BLACK
6
CONTINUOUS
10
5.2142
20
-4.45391
11
5.21298
21
-4.44975
0
LINE
8
BLACK
6
CONTINUOUS
10
5.21298
20
-4.44975
11
5.21296
21
-4.4497
0
LINE
8
BLACK
6
CONTINUOUS
10
5.21296
20
-4.4497
11
5.21063
21
-4.4446
0
LINE
8
BLACK
6
CONTINUOUS
10
5.21063
20
-4.4446
11
5.21063
21
-4.4446
0
LINE
8
BLACK
6
CONTINUOUS
10
5.21063
20
-4.4446
11
5.20756
21
-4.43983
0
LINE
8
BLACK
6
CONTINUOUS
10
5.20756
20
-4.43983
11
5.20756
21
-4.43983
0
LINE
8
BLACK
6
CONTINUOUS
10
5.20756
20
-4.43983
11
5.20386
21
-4.43556
0
LINE
8
BLACK
6
CONTINUOUS
10
5.20386
20
-4.43556
11
5.20386
21
-4.43556
0
LINE
8
BLACK
6
CONTINUOUS
10
5.20386
20
-4.43556
11
5.19957
21
-4.43184
0
LINE
8
BLACK
6
CONTINUOUS
10
5.19957
20
-4.43184
11
5.19819
21
-4.43095
0
LINE
8
BLACK
6
CONTINUOUS
10
5.19819
20
-4.43095
11
5.19481
21
-4.42878
0
LINE
8
BLACK
6
CONTINUOUS
10
5.19481
20
-4.42878
11
5.19481
21
-4.42878
0
LINE
8
BLACK
6
CONTINUOUS
10
5.19481
20
-4.42878
11
5.19481
21
-4.42878
0
LINE
8
BLACK
6
CONTINUOUS
10
5.19481
20
-4.42878
11
5.18966
21
-4.42643
0
LINE
8
BLACK
6
CONTINUOUS
10
5.18966
20
-4.42643
11
5.18423
21
-4.42484
0
LINE
8
BLACK
6
CONTINUOUS
10
5.18423
20
-4.42484
11
5.18423
21
-4.42484
0
LINE
8
BLACK
6
CONTINUOUS
10
5.18423
20
-4.42484
11
5.17862
21
-4.42403
0
LINE
8
BLACK
6
CONTINUOUS
10
5.17862
20
-4.42403
11
5.15413
21
-4.42403
0
LINE
8
BLACK
6
CONTINUOUS
10
5.15413
20
-4.42403
11
5.15413
21
-4.42403
0
LINE
8
BLACK
6
CONTINUOUS
10
5.15413
20
-4.42403
11
5.15406
21
-4.42403
0
LINE
8
BLACK
6
CONTINUOUS
10
5.15406
20
-4.42403
11
5.1514
21
-4.42335
0
LINE
8
BLACK
6
CONTINUOUS
10
5.1514
20
-4.42335
11
5.14952
21
-4.42134
0
LINE
8
BLACK
6
CONTINUOUS
10
5.14952
20
-4.42134
11
5.14933
21
-4.42089
0
LINE
8
BLACK
6
CONTINUOUS
10
5.14933
20
-4.42089
11
5.14887
21
-4.41969
0
LINE
8
BLACK
6
CONTINUOUS
10
5.14887
20
-4.41969
11
5.14865
21
-4.41937
0
LINE
8
BLACK
6
CONTINUOUS
10
5.14865
20
-4.41937
11
5.14822
21
-4.4186
0
LINE
8
BLACK
6
CONTINUOUS
10
5.14822
20
-4.4186
11
5.14806
21
-4.41825
0
LINE
8
BLACK
6
CONTINUOUS
10
5.14806
20
-4.41825
11
5.14657
21
-4.41635
0
LINE
8
BLACK
6
CONTINUOUS
10
5.14657
20
-4.41635
11
5.14649
21
-4.41623
0
LINE
8
BLACK
6
CONTINUOUS
10
5.14649
20
-4.41623
11
5.14512
21
-4.41425
0
LINE
8
BLACK
6
CONTINUOUS
10
5.14512
20
-4.41425
11
5.14367
21
-4.41297
0
LINE
8
BLACK
6
CONTINUOUS
10
5.14367
20
-4.41297
11
5.14332
21
-4.41266
0
LINE
8
BLACK
6
CONTINUOUS
10
5.14332
20
-4.41266
11
5.14321
21
-4.41256
0
LINE
8
BLACK
6
CONTINUOUS
10
5.14321
20
-4.41256
11
5.09537
21
-4.36472
0
LINE
8
BLACK
6
CONTINUOUS
10
5.09537
20
-4.36472
11
5.09487
21
-4.36498
0
LINE
8
BLACK
6
CONTINUOUS
10
5.09487
20
-4.36498
11
5.09
21
-4.36575
0
LINE
8
BLACK
6
CONTINUOUS
10
5.09
20
-4.36575
11
5.08513
21
-4.36498
0
LINE
8
BLACK
6
CONTINUOUS
10
5.08513
20
-4.36498
11
5.08074
21
-4.36274
0
LINE
8
BLACK
6
CONTINUOUS
10
5.08074
20
-4.36274
11
5.07726
21
-4.35926
0
LINE
8
BLACK
6
CONTINUOUS
10
5.07726
20
-4.35926
11
5.07502
21
-4.35487
0
LINE
8
BLACK
6
CONTINUOUS
10
5.07502
20
-4.35487
11
5.07425
21
-4.35
0
LINE
8
BLACK
6
CONTINUOUS
10
5.07425
20
-4.35
11
5.07502
21
-4.34513
0
LINE
8
BLACK
6
CONTINUOUS
10
5.07502
20
-4.34513
11
5.07677
21
-4.34171
0
LINE
8
BLACK
6
CONTINUOUS
10
5.07677
20
-4.34171
11
5.07475
21
-4.3355
0
LINE
8
BLACK
6
CONTINUOUS
10
5.07475
20
-4.3355
11
5.07102
21
-4.32905
0
LINE
8
BLACK
6
CONTINUOUS
10
5.07102
20
-4.32905
11
5.06603
21
-4.32351
0
LINE
8
BLACK
6
CONTINUOUS
10
5.06603
20
-4.32351
11
5.06603
21
-4.32351
0
LINE
8
BLACK
6
CONTINUOUS
10
5.06603
20
-4.32351
11
5.06001
21
-4.31913
0
LINE
8
BLACK
6
CONTINUOUS
10
5.06001
20
-4.31913
11
5.06001
21
-4.31913
0
LINE
8
BLACK
6
CONTINUOUS
10
5.06001
20
-4.31913
11
5.0532
21
-4.3161
0
LINE
8
BLACK
6
CONTINUOUS
10
5.0532
20
-4.3161
11
5.0532
21
-4.3161
0
LINE
8
BLACK
6
CONTINUOUS
10
5.0532
20
-4.3161
11
5.04746
21
-4.31488
0
LINE
8
BLACK
6
CONTINUOUS
10
5.04746
20
-4.31488
11
5.04591
21
-4.31455
0
LINE
8
BLACK
6
CONTINUOUS
10
5.04591
20
-4.31455
11
5.03845
21
-4.31455
0
LINE
8
BLACK
6
CONTINUOUS
10
5.03845
20
-4.31455
11
5.03718
21
-4.31482
0
LINE
8
BLACK
6
CONTINUOUS
10
5.59
20
-4.43
11
5.56984
21
-4.43
0
LINE
8
BLACK
6
CONTINUOUS
10
5.56984
20
-4.43
11
5.56984
21
-4.47
0
LINE
8
BLACK
6
CONTINUOUS
10
5.56984
20
-4.47
11
5.59
21
-4.47
0
LINE
8
BLACK
6
CONTINUOUS
10
5.59
20
-4.47
11
5.59
21
-4.49016
0
LINE
8
BLACK
6
CONTINUOUS
10
5.59
20
-4.49016
11
5.60969
21
-4.49016
0
LINE
8
BLACK
6
CONTINUOUS
10
5.60969
20
-4.49016
11
5.60969
21
-4.46812
0
LINE
8
BLACK
6
CONTINUOUS
10
5.60969
20
-4.46812
11
5.60968
21
-4.46812
0
LINE
8
BLACK
6
CONTINUOUS
10
5.60968
20
-4.46812
11
5.60943
21
-4.46577
0
LINE
8
BLACK
6
CONTINUOUS
10
5.60943
20
-4.46577
11
5.60943
21
-4.46577
0
LINE
8
BLACK
6
CONTINUOUS
10
5.60943
20
-4.46577
11
5.60745
21
-4.46047
0
LINE
8
BLACK
6
CONTINUOUS
10
5.60745
20
-4.46047
11
5.60745
21
-4.46047
0
LINE
8
BLACK
6
CONTINUOUS
10
5.60745
20
-4.46047
11
5.60406
21
-4.45594
0
LINE
8
BLACK
6
CONTINUOUS
10
5.60406
20
-4.45594
11
5.60135
21
-4.45391
0
LINE
8
BLACK
6
CONTINUOUS
10
5.60135
20
-4.45391
11
5.5997
21
-4.45171
0
LINE
8
BLACK
6
CONTINUOUS
10
5.5997
20
-4.45171
11
5.59951
21
-4.44896
0
LINE
8
BLACK
6
CONTINUOUS
10
5.59951
20
-4.44896
11
5.60083
21
-4.44655
0
LINE
8
BLACK
6
CONTINUOUS
10
5.60083
20
-4.44655
11
5.60135
21
-4.44609
0
LINE
8
BLACK
6
CONTINUOUS
10
5.60135
20
-4.44609
11
5.60406
21
-4.44406
0
LINE
8
BLACK
6
CONTINUOUS
10
5.60406
20
-4.44406
11
5.60745
21
-4.43953
0
LINE
8
BLACK
6
CONTINUOUS
10
5.60745
20
-4.43953
11
5.60745
21
-4.43953
0
LINE
8
BLACK
6
CONTINUOUS
10
5.60745
20
-4.43953
11
5.60943
21
-4.43423
0
LINE
8
BLACK
6
CONTINUOUS
10
5.60943
20
-4.43423
11
5.60943
21
-4.43423
0
LINE
8
BLACK
6
CONTINUOUS
10
5.60943
20
-4.43423
11
5.60968
21
-4.43188
0
LINE
8
BLACK
6
CONTINUOUS
10
5.60968
20
-4.43188
11
5.60969
21
-4.43188
0
LINE
8
BLACK
6
CONTINUOUS
10
5.60969
20
-4.43188
11
5.60969
21
-4.40984
0
LINE
8
BLACK
6
CONTINUOUS
10
5.60969
20
-4.40984
11
5.59
21
-4.40984
0
LINE
8
BLACK
6
CONTINUOUS
10
5.59
20
-4.40984
11
5.59
21
-4.43
0
LINE
8
BLACK
6
CONTINUOUS
10
5.31031
20
-4.40984
11
5.31031
21
-4.43188
0
LINE
8
BLACK
6
CONTINUOUS
10
5.31031
20
-4.43188
11
5.31057
21
-4.43423
0
LINE
8
BLACK
6
CONTINUOUS
10
5.31057
20
-4.43423
11
5.31057
21
-4.43423
0
LINE
8
BLACK
6
CONTINUOUS
10
5.31057
20
-4.43423
11
5.31255
21
-4.43953
0
LINE
8
BLACK
6
CONTINUOUS
10
5.31255
20
-4.43953
11
5.31255
21
-4.43953
0
LINE
8
BLACK
6
CONTINUOUS
10
5.31255
20
-4.43953
11
5.31594
21
-4.44406
0
LINE
8
BLACK
6
CONTINUOUS
10
5.31594
20
-4.44406
11
5.31865
21
-4.44609
0
LINE
8
BLACK
6
CONTINUOUS
10
5.31865
20
-4.44609
11
5.3203
21
-4.44829
0
LINE
8
BLACK
6
CONTINUOUS
10
5.3203
20
-4.44829
11
5.32049
21
-4.45104
0
LINE
8
BLACK
6
CONTINUOUS
10
5.32049
20
-4.45104
11
5.31917
21
-4.45345
0
LINE
8
BLACK
6
CONTINUOUS
10
5.31917
20
-4.45345
11
5.31865
21
-4.45391
0
LINE
8
BLACK
6
CONTINUOUS
10
5.31865
20
-4.45391
11
5.31594
21
-4.45594
0
LINE
8
BLACK
6
CONTINUOUS
10
5.31594
20
-4.45594
11
5.31255
21
-4.46047
0
LINE
8
BLACK
6
CONTINUOUS
10
5.31255
20
-4.46047
11
5.31255
21
-4.46047
0
LINE
8
BLACK
6
CONTINUOUS
10
5.31255
20
-4.46047
11
5.31057
21
-4.46577
0
LINE
8
BLACK
6
CONTINUOUS
10
5.31057
20
-4.46577
11
5.31057
21
-4.46577
0
LINE
8
BLACK
6
CONTINUOUS
10
5.31057
20
-4.46577
11
5.31031
21
-4.46812
0
LINE
8
BLACK
6
CONTINUOUS
10
5.31031
20
-4.46812
11
5.31031
21
-4.49016
0
LINE
8
BLACK
6
CONTINUOUS
10
5.31031
20
-4.49016
11
5.33
21
-4.49016
0
LINE
8
BLACK
6
CONTINUOUS
10
5.33
20
-4.49016
11
5.33
21
-4.47
0
LINE
8
BLACK
6
CONTINUOUS
10
5.33
20
-4.47
11
5.35016
21
-4.47
0
LINE
8
BLACK
6
CONTINUOUS
10
5.35016
20
-4.47
11
5.35016
21
-4.43
0
LINE
8
BLACK
6
CONTINUOUS
10
5.35016
20
-4.43
11
5.33
21
-4.43
0
LINE
8
BLACK
6
CONTINUOUS
10
5.33
20
-4.43
11
5.33
21
-4.40984
0
LINE
8
BLACK
6
CONTINUOUS
10
5.33
20
-4.40984
11
5.31031
21
-4.40984
0
LINE
8
BLACK
6
CONTINUOUS
10
5.56984
20
-4.37
11
5.59
21
-4.37
0
LINE
8
BLACK
6
CONTINUOUS
10
5.59
20
-4.37
11
5.59
21
-4.39016
0
LINE
8
BLACK
6
CONTINUOUS
10
5.59
20
-4.39016
11
5.60969
21
-4.39016
0
LINE
8
BLACK
6
CONTINUOUS
10
5.60969
20
-4.39016
11
5.60969
21
-4.36812
0
LINE
8
BLACK
6
CONTINUOUS
10
5.60969
20
-4.36812
11
5.60968
21
-4.36812
0
LINE
8
BLACK
6
CONTINUOUS
10
5.60968
20
-4.36812
11
5.60943
21
-4.36577
0
LINE
8
BLACK
6
CONTINUOUS
10
5.60943
20
-4.36577
11
5.60943
21
-4.36577
0
LINE
8
BLACK
6
CONTINUOUS
10
5.60943
20
-4.36577
11
5.60745
21
-4.36047
0
LINE
8
BLACK
6
CONTINUOUS
10
5.60745
20
-4.36047
11
5.60745
21
-4.36047
0
LINE
8
BLACK
6
CONTINUOUS
10
5.60745
20
-4.36047
11
5.60406
21
-4.35594
0
LINE
8
BLACK
6
CONTINUOUS
10
5.60406
20
-4.35594
11
5.60406
21
-4.35594
0
LINE
8
BLACK
6
CONTINUOUS
10
5.60406
20
-4.35594
11
5.59953
21
-4.35255
0
LINE
8
BLACK
6
CONTINUOUS
10
5.59953
20
-4.35255
11
5.59953
21
-4.35255
0
LINE
8
BLACK
6
CONTINUOUS
10
5.59953
20
-4.35255
11
5.59423
21
-4.35057
0
LINE
8
BLACK
6
CONTINUOUS
10
5.59423
20
-4.35057
11
5.59423
21
-4.35057
0
LINE
8
BLACK
6
CONTINUOUS
10
5.59423
20
-4.35057
11
5.59188
21
-4.35031
0
LINE
8
BLACK
6
CONTINUOUS
10
5.59188
20
-4.35031
11
5.56984
21
-4.35031
0
LINE
8
BLACK
6
CONTINUOUS
10
5.56984
20
-4.35031
11
5.56984
21
-4.37
0
LINE
8
BLACK
6
CONTINUOUS
10
5.32577
20
-4.35057
11
5.32577
21
-4.35057
0
LINE
8
BLACK
6
CONTINUOUS
10
5.32577
20
-4.35057
11
5.32047
21
-4.35255
0
LINE
8
BLACK
6
CONTINUOUS
10
5.32047
20
-4.35255
11
5.32047
21
-4.35255
0
LINE
8
BLACK
6
CONTINUOUS
10
5.32047
20
-4.35255
11
5.31594
21
-4.35594
0
LINE
8
BLACK
6
CONTINUOUS
10
5.31594
20
-4.35594
11
5.31594
21
-4.35594
0
LINE
8
BLACK
6
CONTINUOUS
10
5.31594
20
-4.35594
11
5.31255
21
-4.36047
0
LINE
8
BLACK
6
CONTINUOUS
10
5.31255
20
-4.36047
11
5.31255
21
-4.36047
0
LINE
8
BLACK
6
CONTINUOUS
10
5.31255
20
-4.36047
11
5.31057
21
-4.36577
0
LINE
8
BLACK
6
CONTINUOUS
10
5.31057
20
-4.36577
11
5.31057
21
-4.36577
0
LINE
8
BLACK
6
CONTINUOUS
10
5.31057
20
-4.36577
11
5.31031
21
-4.36812
0
LINE
8
BLACK
6
CONTINUOUS
10
5.31031
20
-4.36812
11
5.31031
21
-4.39016
0
LINE
8
BLACK
6
CONTINUOUS
10
5.31031
20
-4.39016
11
5.33
21
-4.39016
0
LINE
8
BLACK
6
CONTINUOUS
10
5.33
20
-4.39016
11
5.33
21
-4.37
0
LINE
8
BLACK
6
CONTINUOUS
10
5.33
20
-4.37
11
5.35016
21
-4.37
0
LINE
8
BLACK
6
CONTINUOUS
10
5.35016
20
-4.37
11
5.35016
21
-4.35031
0
LINE
8
BLACK
6
CONTINUOUS
10
5.35016
20
-4.35031
11
5.32812
21
-4.35031
0
LINE
8
BLACK
6
CONTINUOUS
10
5.32812
20
-4.35031
11
5.32577
21
-4.35057
0
LINE
8
BLACK
6
CONTINUOUS
10
5.23812
20
-3.8603
11
5.23577
21
-3.86055
0
LINE
8
BLACK
6
CONTINUOUS
10
5.23577
20
-3.86055
11
5.23046
21
-3.86253
0
LINE
8
BLACK
6
CONTINUOUS
10
5.23046
20
-3.86253
11
5.23046
21
-3.86253
0
LINE
8
BLACK
6
CONTINUOUS
10
5.23046
20
-3.86253
11
5.22592
21
-3.86592
0
LINE
8
BLACK
6
CONTINUOUS
10
5.22592
20
-3.86592
11
5.2239
21
-3.86863
0
LINE
8
BLACK
6
CONTINUOUS
10
5.2239
20
-3.86863
11
5.22169
21
-3.87028
0
LINE
8
BLACK
6
CONTINUOUS
10
5.22169
20
-3.87028
11
5.21895
21
-3.87048
0
LINE
8
BLACK
6
CONTINUOUS
10
5.21895
20
-3.87048
11
5.21654
21
-3.86916
0
LINE
8
BLACK
6
CONTINUOUS
10
5.21654
20
-3.86916
11
5.21608
21
-3.86863
0
LINE
8
BLACK
6
CONTINUOUS
10
5.21608
20
-3.86863
11
5.21406
21
-3.86594
0
LINE
8
BLACK
6
CONTINUOUS
10
5.21406
20
-3.86594
11
5.20953
21
-3.86255
0
LINE
8
BLACK
6
CONTINUOUS
10
5.20953
20
-3.86255
11
5.20953
21
-3.86255
0
LINE
8
BLACK
6
CONTINUOUS
10
5.20953
20
-3.86255
11
5.20423
21
-3.86057
0
LINE
8
BLACK
6
CONTINUOUS
10
5.20423
20
-3.86057
11
5.20423
21
-3.86057
0
LINE
8
BLACK
6
CONTINUOUS
10
5.20423
20
-3.86057
11
5.20188
21
-3.86031
0
LINE
8
BLACK
6
CONTINUOUS
10
5.20188
20
-3.86031
11
5.17984
21
-3.86031
0
LINE
8
BLACK
6
CONTINUOUS
10
5.17984
20
-3.86031
11
5.17984
21
-3.88
0
LINE
8
BLACK
6
CONTINUOUS
10
5.17984
20
-3.88
11
5.2
21
-3.88
0
LINE
8
BLACK
6
CONTINUOUS
10
5.2
20
-3.88
11
5.2
21
-3.94
0
LINE
8
BLACK
6
CONTINUOUS
10
5.2
20
-3.94
11
5.17984
21
-3.94
0
LINE
8
BLACK
6
CONTINUOUS
10
5.17984
20
-3.94
11
5.17984
21
-3.98
0
LINE
8
BLACK
6
CONTINUOUS
10
5.17984
20
-3.98
11
5.2
21
-3.98
0
LINE
8
BLACK
6
CONTINUOUS
10
5.2
20
-3.98
11
5.2
21
-4.04
0
LINE
8
BLACK
6
CONTINUOUS
10
5.2
20
-4.04
11
5.17984
21
-4.04
0
LINE
8
BLACK
6
CONTINUOUS
10
5.17984
20
-4.04
11
5.17984
21
-4.05969
0
LINE
8
BLACK
6
CONTINUOUS
10
5.17984
20
-4.05969
11
5.20188
21
-4.05969
0
LINE
8
BLACK
6
CONTINUOUS
10
5.20188
20
-4.05969
11
5.20188
21
-4.05968
0
LINE
8
BLACK
6
CONTINUOUS
10
5.20188
20
-4.05968
11
5.20423
21
-4.05943
0
LINE
8
BLACK
6
CONTINUOUS
10
5.20423
20
-4.05943
11
5.20423
21
-4.05943
0
LINE
8
BLACK
6
CONTINUOUS
10
5.20423
20
-4.05943
11
5.20953
21
-4.05745
0
LINE
8
BLACK
6
CONTINUOUS
10
5.20953
20
-4.05745
11
5.20953
21
-4.05745
0
LINE
8
BLACK
6
CONTINUOUS
10
5.20953
20
-4.05745
11
5.21406
21
-4.05406
0
LINE
8
BLACK
6
CONTINUOUS
10
5.21406
20
-4.05406
11
5.21406
21
-4.05406
0
LINE
8
BLACK
6
CONTINUOUS
10
5.21406
20
-4.05406
11
5.21608
21
-4.05137
0
LINE
8
BLACK
6
CONTINUOUS
10
5.21608
20
-4.05137
11
5.21828
21
-4.04972
0
LINE
8
BLACK
6
CONTINUOUS
10
5.21828
20
-4.04972
11
5.22103
21
-4.04952
0
LINE
8
BLACK
6
CONTINUOUS
10
5.22103
20
-4.04952
11
5.22344
21
-4.05084
0
LINE
8
BLACK
6
CONTINUOUS
10
5.22344
20
-4.05084
11
5.2239
21
-4.05137
0
LINE
8
BLACK
6
CONTINUOUS
10
5.2239
20
-4.05137
11
5.22391
21
-4.05138
0
LINE
8
BLACK
6
CONTINUOUS
10
5.22391
20
-4.05138
11
5.22591
21
-4.05406
0
LINE
8
BLACK
6
CONTINUOUS
10
5.22591
20
-4.05406
11
5.22592
21
-4.05408
0
LINE
8
BLACK
6
CONTINUOUS
10
5.22592
20
-4.05408
11
5.23046
21
-4.05747
0
LINE
8
BLACK
6
CONTINUOUS
10
5.23046
20
-4.05747
11
5.23046
21
-4.05747
0
LINE
8
BLACK
6
CONTINUOUS
10
5.23046
20
-4.05747
11
5.23577
21
-4.05945
0
LINE
8
BLACK
6
CONTINUOUS
10
5.23577
20
-4.05945
11
5.23577
21
-4.05945
0
LINE
8
BLACK
6
CONTINUOUS
10
5.23577
20
-4.05945
11
5.23593
21
-4.05947
0
LINE
8
BLACK
6
CONTINUOUS
10
5.23593
20
-4.05947
11
5.23812
21
-4.0597
0
LINE
8
BLACK
6
CONTINUOUS
10
5.23812
20
-4.0597
11
5.30188
21
-4.0597
0
LINE
8
BLACK
6
CONTINUOUS
10
5.30188
20
-4.0597
11
5.30423
21
-4.05945
0
LINE
8
BLACK
6
CONTINUOUS
10
5.30423
20
-4.05945
11
5.30954
21
-4.05747
0
LINE
8
BLACK
6
CONTINUOUS
10
5.30954
20
-4.05747
11
5.31408
21
-4.05408
0
LINE
8
BLACK
6
CONTINUOUS
10
5.31408
20
-4.05408
11
5.31609
21
-4.05138
0
LINE
8
BLACK
6
CONTINUOUS
10
5.31609
20
-4.05138
11
5.31829
21
-4.04974
0
LINE
8
BLACK
6
CONTINUOUS
10
5.31829
20
-4.04974
11
5.32104
21
-4.04954
0
LINE
8
BLACK
6
CONTINUOUS
10
5.32104
20
-4.04954
11
5.32345
21
-4.05086
0
LINE
8
BLACK
6
CONTINUOUS
10
5.32345
20
-4.05086
11
5.32391
21
-4.05138
0
LINE
8
BLACK
6
CONTINUOUS
10
5.32391
20
-4.05138
11
5.32592
21
-4.05408
0
LINE
8
BLACK
6
CONTINUOUS
10
5.32592
20
-4.05408
11
5.32592
21
-4.05408
0
LINE
8
BLACK
6
CONTINUOUS
10
5.32592
20
-4.05408
11
5.33046
21
-4.05747
0
LINE
8
BLACK
6
CONTINUOUS
10
5.33046
20
-4.05747
11
5.33046
21
-4.05747
0
LINE
8
BLACK
6
CONTINUOUS
10
5.33046
20
-4.05747
11
5.33577
21
-4.05945
0
LINE
8
BLACK
6
CONTINUOUS
10
5.33577
20
-4.05945
11
5.33577
21
-4.05945
0
LINE
8
BLACK
6
CONTINUOUS
10
5.33577
20
-4.05945
11
5.33594
21
-4.05947
0
LINE
8
BLACK
6
CONTINUOUS
10
5.33594
20
-4.05947
11
5.33606
21
-4.05952
0
LINE
8
BLACK
6
CONTINUOUS
10
5.33606
20
-4.05952
11
5.33607
21
-4.05952
0
LINE
8
BLACK
6
CONTINUOUS
10
5.33607
20
-4.05952
11
5.33607
21
-4.05952
0
LINE
8
BLACK
6
CONTINUOUS
10
5.33607
20
-4.05952
11
5.33848
21
-4.06052
0
LINE
8
BLACK
6
CONTINUOUS
10
5.33848
20
-4.06052
11
5.34005
21
-4.06278
0
LINE
8
BLACK
6
CONTINUOUS
10
5.34005
20
-4.06278
11
5.3403
21
-4.06432
0
LINE
8
BLACK
6
CONTINUOUS
10
5.3403
20
-4.06432
11
5.3403
21
-4.11748
0
LINE
8
BLACK
6
CONTINUOUS
10
5.3403
20
-4.11748
11
5.34024
21
-4.11819
0
LINE
8
BLACK
6
CONTINUOUS
10
5.34024
20
-4.11819
11
5.34011
21
-4.11913
0
LINE
8
BLACK
6
CONTINUOUS
10
5.34011
20
-4.11913
11
5.34029
21
-4.12119
0
LINE
8
BLACK
6
CONTINUOUS
10
5.34029
20
-4.12119
11
5.3403
21
-4.1214
0
LINE
8
BLACK
6
CONTINUOUS
10
5.3403
20
-4.1214
11
5.3403
21
-4.12173
0
LINE
8
BLACK
6
CONTINUOUS
10
5.3403
20
-4.12173
11
5.34045
21
-4.12302
0
LINE
8
BLACK
6
CONTINUOUS
10
5.34045
20
-4.12302
11
5.34071
21
-4.12605
0
LINE
8
BLACK
6
CONTINUOUS
10
5.34071
20
-4.12605
11
5.34077
21
-4.12633
0
LINE
8
BLACK
6
CONTINUOUS
10
5.34077
20
-4.12633
11
5.34077
21
-4.12633
0
LINE
8
BLACK
6
CONTINUOUS
10
5.34077
20
-4.12633
11
5.34083
21
-4.12662
0
LINE
8
BLACK
6
CONTINUOUS
10
5.34083
20
-4.12662
11
5.34083
21
-4.12662
0
LINE
8
BLACK
6
CONTINUOUS
10
5.34083
20
-4.12662
11
5.3409
21
-4.1269
0
LINE
8
BLACK
6
CONTINUOUS
10
5.3409
20
-4.1269
11
5.34194
21
-4.12975
0
LINE
8
BLACK
6
CONTINUOUS
10
5.34194
20
-4.12975
11
5.3429
21
-4.13264
0
LINE
8
BLACK
6
CONTINUOUS
10
5.3429
20
-4.13264
11
5.34302
21
-4.1329
0
LINE
8
BLACK
6
CONTINUOUS
10
5.34302
20
-4.1329
11
5.34301
21
-4.1329
0
LINE
8
BLACK
6
CONTINUOUS
10
5.34301
20
-4.1329
11
5.34314
21
-4.13317
0
LINE
8
BLACK
6
CONTINUOUS
10
5.34314
20
-4.13317
11
5.34315
21
-4.13317
0
LINE
8
BLACK
6
CONTINUOUS
10
5.34315
20
-4.13317
11
5.34327
21
-4.13342
0
LINE
8
BLACK
6
CONTINUOUS
10
5.34327
20
-4.13342
11
5.34494
21
-4.13596
0
LINE
8
BLACK
6
CONTINUOUS
10
5.34494
20
-4.13596
11
5.34654
21
-4.13855
0
LINE
8
BLACK
6
CONTINUOUS
10
5.34654
20
-4.13855
11
5.34672
21
-4.13877
0
LINE
8
BLACK
6
CONTINUOUS
10
5.34672
20
-4.13877
11
5.34672
21
-4.13877
0
LINE
8
BLACK
6
CONTINUOUS
10
5.34672
20
-4.13877
11
5.34691
21
-4.13901
0
LINE
8
BLACK
6
CONTINUOUS
10
5.34691
20
-4.13901
11
5.34691
21
-4.13901
0
LINE
8
BLACK
6
CONTINUOUS
10
5.34691
20
-4.13901
11
5.34709
21
-4.13922
0
LINE
8
BLACK
6
CONTINUOUS
10
5.34709
20
-4.13922
11
5.34709
21
-4.13922
0
LINE
8
BLACK
6
CONTINUOUS
10
5.34709
20
-4.13922
11
5.3482
21
-4.14027
0
LINE
8
BLACK
6
CONTINUOUS
10
5.3482
20
-4.14027
11
5.3493
21
-4.14131
0
LINE
8
BLACK
6
CONTINUOUS
10
5.3493
20
-4.14131
11
5.42417
21
-4.21618
0
LINE
8
BLACK
6
CONTINUOUS
10
5.42417
20
-4.21618
11
5.42536
21
-4.21812
0
LINE
8
BLACK
6
CONTINUOUS
10
5.42536
20
-4.21812
11
5.42743
21
-4.2245
0
LINE
8
BLACK
6
CONTINUOUS
10
5.42743
20
-4.2245
11
5.42743
21
-4.2245
0
LINE
8
BLACK
6
CONTINUOUS
10
5.42743
20
-4.2245
11
5.43116
21
-4.23095
0
LINE
8
BLACK
6
CONTINUOUS
10
5.43116
20
-4.23095
11
5.43615
21
-4.23649
0
LINE
8
BLACK
6
CONTINUOUS
10
5.43615
20
-4.23649
11
5.43615
21
-4.23649
0
LINE
8
BLACK
6
CONTINUOUS
10
5.43615
20
-4.23649
11
5.44218
21
-4.24087
0
LINE
8
BLACK
6
CONTINUOUS
10
5.44218
20
-4.24087
11
5.44218
21
-4.24087
0
LINE
8
BLACK
6
CONTINUOUS
10
5.44218
20
-4.24087
11
5.44898
21
-4.2439
0
LINE
8
BLACK
6
CONTINUOUS
10
5.44898
20
-4.2439
11
5.44898
21
-4.2439
0
LINE
8
BLACK
6
CONTINUOUS
10
5.44898
20
-4.2439
11
5.45627
21
-4.24545
0
LINE
8
BLACK
6
CONTINUOUS
10
5.45627
20
-4.24545
11
5.45627
21
-4.24545
0
LINE
8
BLACK
6
CONTINUOUS
10
5.45627
20
-4.24545
11
5.46373
21
-4.24545
0
LINE
8
BLACK
6
CONTINUOUS
10
5.46373
20
-4.24545
11
5.46373
21
-4.24545
0
LINE
8
BLACK
6
CONTINUOUS
10
5.46373
20
-4.24545
11
5.47102
21
-4.2439
0
LINE
8
BLACK
6
CONTINUOUS
10
5.47102
20
-4.2439
11
5.47782
21
-4.24087
0
LINE
8
BLACK
6
CONTINUOUS
10
5.47782
20
-4.24087
11
5.48385
21
-4.23649
0
LINE
8
BLACK
6
CONTINUOUS
10
5.48385
20
-4.23649
11
5.48884
21
-4.23095
0
LINE
8
BLACK
6
CONTINUOUS
10
5.48884
20
-4.23095
11
5.49257
21
-4.2245
0
LINE
8
BLACK
6
CONTINUOUS
10
5.49257
20
-4.2245
11
5.49487
21
-4.21741
0
LINE
8
BLACK
6
CONTINUOUS
10
5.49487
20
-4.21741
11
5.49565
21
-4.21
0
LINE
8
BLACK
6
CONTINUOUS
10
5.49565
20
-4.21
11
5.49487
21
-4.20259
0
LINE
8
BLACK
6
CONTINUOUS
10
5.49487
20
-4.20259
11
5.49257
21
-4.1955
0
LINE
8
BLACK
6
CONTINUOUS
10
5.49257
20
-4.1955
11
5.48884
21
-4.18905
0
LINE
8
BLACK
6
CONTINUOUS
10
5.48884
20
-4.18905
11
5.48385
21
-4.18351
0
LINE
8
BLACK
6
CONTINUOUS
10
5.48385
20
-4.18351
11
5.48385
21
-4.18351
0
LINE
8
BLACK
6
CONTINUOUS
10
5.48385
20
-4.18351
11
5.47782
21
-4.17913
0
LINE
8
BLACK
6
CONTINUOUS
10
5.47782
20
-4.17913
11
5.47782
21
-4.17913
0
LINE
8
BLACK
6
CONTINUOUS
10
5.47782
20
-4.17913
11
5.47102
21
-4.1761
0
LINE
8
BLACK
6
CONTINUOUS
10
5.47102
20
-4.1761
11
5.47102
21
-4.1761
0
LINE
8
BLACK
6
CONTINUOUS
10
5.47102
20
-4.1761
11
5.46873
21
-4.17561
0
LINE
8
BLACK
6
CONTINUOUS
10
5.46873
20
-4.17561
11
5.46631
21
-4.1743
0
LINE
8
BLACK
6
CONTINUOUS
10
5.46631
20
-4.1743
11
5.4663
21
-4.17429
0
LINE
8
BLACK
6
CONTINUOUS
10
5.4663
20
-4.17429
11
5.40113
21
-4.10913
0
LINE
8
BLACK
6
CONTINUOUS
10
5.40113
20
-4.10913
11
5.39982
21
-4.10671
0
LINE
8
BLACK
6
CONTINUOUS
10
5.39982
20
-4.10671
11
5.3997
21
-4.10567
0
LINE
8
BLACK
6
CONTINUOUS
10
5.3997
20
-4.10567
11
5.3997
21
-4.06432
0
LINE
8
BLACK
6
CONTINUOUS
10
5.3997
20
-4.06432
11
5.40048
21
-4.06168
0
LINE
8
BLACK
6
CONTINUOUS
10
5.40048
20
-4.06168
11
5.40256
21
-4.05988
0
LINE
8
BLACK
6
CONTINUOUS
10
5.40256
20
-4.05988
11
5.40407
21
-4.05947
0
LINE
8
BLACK
6
CONTINUOUS
10
5.40407
20
-4.05947
11
5.40417
21
-4.05946
0
LINE
8
BLACK
6
CONTINUOUS
10
5.40417
20
-4.05946
11
5.40423
21
-4.05945
0
LINE
8
BLACK
6
CONTINUOUS
10
5.40423
20
-4.05945
11
5.40954
21
-4.05747
0
LINE
8
BLACK
6
CONTINUOUS
10
5.40954
20
-4.05747
11
5.41408
21
-4.05408
0
LINE
8
BLACK
6
CONTINUOUS
10
5.41408
20
-4.05408
11
5.41609
21
-4.05138
0
LINE
8
BLACK
6
CONTINUOUS
10
5.41609
20
-4.05138
11
5.41829
21
-4.04974
0
LINE
8
BLACK
6
CONTINUOUS
10
5.41829
20
-4.04974
11
5.42104
21
-4.04954
0
LINE
8
BLACK
6
CONTINUOUS
10
5.42104
20
-4.04954
11
5.42345
21
-4.05086
0
LINE
8
BLACK
6
CONTINUOUS
10
5.42345
20
-4.05086
11
5.42391
21
-4.05138
0
LINE
8
BLACK
6
CONTINUOUS
10
5.42391
20
-4.05138
11
5.42592
21
-4.05408
0
LINE
8
BLACK
6
CONTINUOUS
10
5.42592
20
-4.05408
11
5.42592
21
-4.05408
0
LINE
8
BLACK
6
CONTINUOUS
10
5.42592
20
-4.05408
11
5.43046
21
-4.05747
0
LINE
8
BLACK
6
CONTINUOUS
10
5.43046
20
-4.05747
11
5.43046
21
-4.05747
0
LINE
8
BLACK
6
CONTINUOUS
10
5.43046
20
-4.05747
11
5.43577
21
-4.05945
0
LINE
8
BLACK
6
CONTINUOUS
10
5.43577
20
-4.05945
11
5.43577
21
-4.05945
0
LINE
8
BLACK
6
CONTINUOUS
10
5.43577
20
-4.05945
11
5.43593
21
-4.05947
0
LINE
8
BLACK
6
CONTINUOUS
10
5.43593
20
-4.05947
11
5.43812
21
-4.0597
0
LINE
8
BLACK
6
CONTINUOUS
10
5.43812
20
-4.0597
11
5.50188
21
-4.0597
0
LINE
8
BLACK
6
CONTINUOUS
10
5.50188
20
-4.0597
11
5.50423
21
-4.05945
0
LINE
8
BLACK
6
CONTINUOUS
10
5.50423
20
-4.05945
11
5.50954
21
-4.05747
0
LINE
8
BLACK
6
CONTINUOUS
10
5.50954
20
-4.05747
11
5.51408
21
-4.05408
0
LINE
8
BLACK
6
CONTINUOUS
10
5.51408
20
-4.05408
11
5.5161
21
-4.05137
0
LINE
8
BLACK
6
CONTINUOUS
10
5.5161
20
-4.05137
11
5.51831
21
-4.04972
0
LINE
8
BLACK
6
CONTINUOUS
10
5.51831
20
-4.04972
11
5.52105
21
-4.04952
0
LINE
8
BLACK
6
CONTINUOUS
10
5.52105
20
-4.04952
11
5.52346
21
-4.05084
0
LINE
8
BLACK
6
CONTINUOUS
10
5.52346
20
-4.05084
11
5.52392
21
-4.05137
0
LINE
8
BLACK
6
CONTINUOUS
10
5.52392
20
-4.05137
11
5.52594
21
-4.05406
0
LINE
8
BLACK
6
CONTINUOUS
10
5.52594
20
-4.05406
11
5.53047
21
-4.05745
0
LINE
8
BLACK
6
CONTINUOUS
10
5.53047
20
-4.05745
11
5.53047
21
-4.05745
0
LINE
8
BLACK
6
CONTINUOUS
10
5.53047
20
-4.05745
11
5.53577
21
-4.05943
0
LINE
8
BLACK
6
CONTINUOUS
10
5.53577
20
-4.05943
11
5.53577
21
-4.05943
0
LINE
8
BLACK
6
CONTINUOUS
10
5.53577
20
-4.05943
11
5.53812
21
-4.05968
0
LINE
8
BLACK
6
CONTINUOUS
10
5.53812
20
-4.05968
11
5.53812
21
-4.05969
0
LINE
8
BLACK
6
CONTINUOUS
10
5.53812
20
-4.05969
11
5.56016
21
-4.05969
0
LINE
8
BLACK
6
CONTINUOUS
10
5.56016
20
-4.05969
11
5.56016
21
-4.04
0
LINE
8
BLACK
6
CONTINUOUS
10
5.56016
20
-4.04
11
5.54
21
-4.04
0
LINE
8
BLACK
6
CONTINUOUS
10
5.54
20
-4.04
11
5.54
21
-3.98
0
LINE
8
BLACK
6
CONTINUOUS
10
5.54
20
-3.98
11
5.56016
21
-3.98
0
LINE
8
BLACK
6
CONTINUOUS
10
5.56016
20
-3.98
11
5.56016
21
-3.94
0
LINE
8
BLACK
6
CONTINUOUS
10
5.56016
20
-3.94
11
5.54
21
-3.94
0
LINE
8
BLACK
6
CONTINUOUS
10
5.54
20
-3.94
11
5.54
21
-3.88
0
LINE
8
BLACK
6
CONTINUOUS
10
5.54
20
-3.88
11
5.56016
21
-3.88
0
LINE
8
BLACK
6
CONTINUOUS
10
5.56016
20
-3.88
11
5.56016
21
-3.86031
0
LINE
8
BLACK
6
CONTINUOUS
10
5.56016
20
-3.86031
11
5.53812
21
-3.86031
0
LINE
8
BLACK
6
CONTINUOUS
10
5.53812
20
-3.86031
11
5.53577
21
-3.86057
0
LINE
8
BLACK
6
CONTINUOUS
10
5.53577
20
-3.86057
11
5.53577
21
-3.86057
0
LINE
8
BLACK
6
CONTINUOUS
10
5.53577
20
-3.86057
11
5.53047
21
-3.86255
0
LINE
8
BLACK
6
CONTINUOUS
10
5.53047
20
-3.86255
11
5.53047
21
-3.86255
0
LINE
8
BLACK
6
CONTINUOUS
10
5.53047
20
-3.86255
11
5.52594
21
-3.86594
0
LINE
8
BLACK
6
CONTINUOUS
10
5.52594
20
-3.86594
11
5.52392
21
-3.86863
0
LINE
8
BLACK
6
CONTINUOUS
10
5.52392
20
-3.86863
11
5.52172
21
-3.87028
0
LINE
8
BLACK
6
CONTINUOUS
10
5.52172
20
-3.87028
11
5.51897
21
-3.87048
0
LINE
8
BLACK
6
CONTINUOUS
10
5.51897
20
-3.87048
11
5.51656
21
-3.86916
0
LINE
8
BLACK
6
CONTINUOUS
10
5.51656
20
-3.86916
11
5.5161
21
-3.86863
0
LINE
8
BLACK
6
CONTINUOUS
10
5.5161
20
-3.86863
11
5.51408
21
-3.86592
0
LINE
8
BLACK
6
CONTINUOUS
10
5.51408
20
-3.86592
11
5.51408
21
-3.86592
0
LINE
8
BLACK
6
CONTINUOUS
10
5.51408
20
-3.86592
11
5.50954
21
-3.86253
0
LINE
8
BLACK
6
CONTINUOUS
10
5.50954
20
-3.86253
11
5.50954
21
-3.86253
0
LINE
8
BLACK
6
CONTINUOUS
10
5.50954
20
-3.86253
11
5.50423
21
-3.86055
0
LINE
8
BLACK
6
CONTINUOUS
10
5.50423
20
-3.86055
11
5.50423
21
-3.86055
0
LINE
8
BLACK
6
CONTINUOUS
10
5.50423
20
-3.86055
11
5.50189
21
-3.8603
0
LINE
8
BLACK
6
CONTINUOUS
10
5.50189
20
-3.8603
11
5.50189
21
-3.8603
0
LINE
8
BLACK
6
CONTINUOUS
10
5.50189
20
-3.8603
11
5.50188
21
-3.8603
0
LINE
8
BLACK
6
CONTINUOUS
10
5.50188
20
-3.8603
11
5.50188
21
-3.8603
0
LINE
8
BLACK
6
CONTINUOUS
10
5.50188
20
-3.8603
11
5.43812
21
-3.8603
0
LINE
8
BLACK
6
CONTINUOUS
10
5.43812
20
-3.8603
11
5.43812
21
-3.8603
0
LINE
8
BLACK
6
CONTINUOUS
10
5.43812
20
-3.8603
11
5.43577
21
-3.86055
0
LINE
8
BLACK
6
CONTINUOUS
10
5.43577
20
-3.86055
11
5.43046
21
-3.86253
0
LINE
8
BLACK
6
CONTINUOUS
10
5.43046
20
-3.86253
11
5.43046
21
-3.86253
0
LINE
8
BLACK
6
CONTINUOUS
10
5.43046
20
-3.86253
11
5.42592
21
-3.86592
0
LINE
8
BLACK
6
CONTINUOUS
10
5.42592
20
-3.86592
11
5.42391
21
-3.86862
0
LINE
8
BLACK
6
CONTINUOUS
10
5.42391
20
-3.86862
11
5.42171
21
-3.87026
0
LINE
8
BLACK
6
CONTINUOUS
10
5.42171
20
-3.87026
11
5.41896
21
-3.87046
0
LINE
8
BLACK
6
CONTINUOUS
10
5.41896
20
-3.87046
11
5.41655
21
-3.86914
0
LINE
8
BLACK
6
CONTINUOUS
10
5.41655
20
-3.86914
11
5.41609
21
-3.86862
0
LINE
8
BLACK
6
CONTINUOUS
10
5.41609
20
-3.86862
11
5.41552
21
-3.86785
0
LINE
8
BLACK
6
CONTINUOUS
10
5.41552
20
-3.86785
11
5.41408
21
-3.86592
0
LINE
8
BLACK
6
CONTINUOUS
10
5.41408
20
-3.86592
11
5.41408
21
-3.86592
0
LINE
8
BLACK
6
CONTINUOUS
10
5.41408
20
-3.86592
11
5.41408
21
-3.86592
0
LINE
8
BLACK
6
CONTINUOUS
10
5.41408
20
-3.86592
11
5.40954
21
-3.86253
0
LINE
8
BLACK
6
CONTINUOUS
10
5.40954
20
-3.86253
11
5.40954
21
-3.86253
0
LINE
8
BLACK
6
CONTINUOUS
10
5.40954
20
-3.86253
11
5.40423
21
-3.86055
0
LINE
8
BLACK
6
CONTINUOUS
10
5.40423
20
-3.86055
11
5.40423
21
-3.86055
0
LINE
8
BLACK
6
CONTINUOUS
10
5.40423
20
-3.86055
11
5.40189
21
-3.8603
0
LINE
8
BLACK
6
CONTINUOUS
10
5.40189
20
-3.8603
11
5.40189
21
-3.8603
0
LINE
8
BLACK
6
CONTINUOUS
10
5.40189
20
-3.8603
11
5.40188
21
-3.8603
0
LINE
8
BLACK
6
CONTINUOUS
10
5.40188
20
-3.8603
11
5.40188
21
-3.8603
0
LINE
8
BLACK
6
CONTINUOUS
10
5.40188
20
-3.8603
11
5.33812
21
-3.8603
0
LINE
8
BLACK
6
CONTINUOUS
10
5.33812
20
-3.8603
11
5.33812
21
-3.8603
0
LINE
8
BLACK
6
CONTINUOUS
10
5.33812
20
-3.8603
11
5.33577
21
-3.86055
0
LINE
8
BLACK
6
CONTINUOUS
10
5.33577
20
-3.86055
11
5.33046
21
-3.86253
0
LINE
8
BLACK
6
CONTINUOUS
10
5.33046
20
-3.86253
11
5.33046
21
-3.86253
0
LINE
8
BLACK
6
CONTINUOUS
10
5.33046
20
-3.86253
11
5.32592
21
-3.86592
0
LINE
8
BLACK
6
CONTINUOUS
10
5.32592
20
-3.86592
11
5.32391
21
-3.86862
0
LINE
8
BLACK
6
CONTINUOUS
10
5.32391
20
-3.86862
11
5.32171
21
-3.87026
0
LINE
8
BLACK
6
CONTINUOUS
10
5.32171
20
-3.87026
11
5.31896
21
-3.87046
0
LINE
8
BLACK
6
CONTINUOUS
10
5.31896
20
-3.87046
11
5.31655
21
-3.86914
0
LINE
8
BLACK
6
CONTINUOUS
10
5.31655
20
-3.86914
11
5.31609
21
-3.86862
0
LINE
8
BLACK
6
CONTINUOUS
10
5.31609
20
-3.86862
11
5.31552
21
-3.86785
0
LINE
8
BLACK
6
CONTINUOUS
10
5.31552
20
-3.86785
11
5.31408
21
-3.86592
0
LINE
8
BLACK
6
CONTINUOUS
10
5.31408
20
-3.86592
11
5.31408
21
-3.86592
0
LINE
8
BLACK
6
CONTINUOUS
10
5.31408
20
-3.86592
11
5.31408
21
-3.86592
0
LINE
8
BLACK
6
CONTINUOUS
10
5.31408
20
-3.86592
11
5.30954
21
-3.86253
0
LINE
8
BLACK
6
CONTINUOUS
10
5.30954
20
-3.86253
11
5.30954
21
-3.86253
0
LINE
8
BLACK
6
CONTINUOUS
10
5.30954
20
-3.86253
11
5.30423
21
-3.86055
0
LINE
8
BLACK
6
CONTINUOUS
10
5.30423
20
-3.86055
11
5.30423
21
-3.86055
0
LINE
8
BLACK
6
CONTINUOUS
10
5.30423
20
-3.86055
11
5.30189
21
-3.8603
0
LINE
8
BLACK
6
CONTINUOUS
10
5.30189
20
-3.8603
11
5.30189
21
-3.8603
0
LINE
8
BLACK
6
CONTINUOUS
10
5.30189
20
-3.8603
11
5.30188
21
-3.8603
0
LINE
8
BLACK
6
CONTINUOUS
10
5.30188
20
-3.8603
11
5.30188
21
-3.8603
0
LINE
8
BLACK
6
CONTINUOUS
10
5.30188
20
-3.8603
11
5.23812
21
-3.8603
0
LINE
8
BLACK
6
CONTINUOUS
10
5.23812
20
-3.8603
11
5.23812
21
-3.8603
0
LINE
8
BLACK
6
CONTINUOUS
10
4.46937
20
-4.24074
11
4.73439
21
-4.24074
0
LINE
8
BLACK
6
CONTINUOUS
10
4.73439
20
-4.24074
11
4.73439
21
-4.1557
0
LINE
8
BLACK
6
CONTINUOUS
10
4.73439
20
-4.1557
11
4.46937
21
-4.1557
0
LINE
8
BLACK
6
CONTINUOUS
10
4.46937
20
-4.1557
11
4.46937
21
-4.24074
0
LINE
8
BLACK
6
CONTINUOUS
10
4.46937
20
-4.24074
11
4.46937
21
-4.24074
0
LINE
8
BLACK
6
CONTINUOUS
10
4.84812
20
-3.8603
11
4.84577
21
-3.86055
0
LINE
8
BLACK
6
CONTINUOUS
10
4.84577
20
-3.86055
11
4.84046
21
-3.86253
0
LINE
8
BLACK
6
CONTINUOUS
10
4.84046
20
-3.86253
11
4.84046
21
-3.86253
0
LINE
8
BLACK
6
CONTINUOUS
10
4.84046
20
-3.86253
11
4.83592
21
-3.86592
0
LINE
8
BLACK
6
CONTINUOUS
10
4.83592
20
-3.86592
11
4.83592
21
-3.86592
0
LINE
8
BLACK
6
CONTINUOUS
10
4.83592
20
-3.86592
11
4.83253
21
-3.87046
0
LINE
8
BLACK
6
CONTINUOUS
10
4.83253
20
-3.87046
11
4.83253
21
-3.87046
0
LINE
8
BLACK
6
CONTINUOUS
10
4.83253
20
-3.87046
11
4.83055
21
-3.87577
0
LINE
8
BLACK
6
CONTINUOUS
10
4.83055
20
-3.87577
11
4.8303
21
-3.87811
0
LINE
8
BLACK
6
CONTINUOUS
10
4.8303
20
-3.87811
11
4.8303
21
-3.87812
0
LINE
8
BLACK
6
CONTINUOUS
10
4.8303
20
-3.87812
11
4.8303
21
-3.87812
0
LINE
8
BLACK
6
CONTINUOUS
10
4.8303
20
-3.87812
11
4.8303
21
-3.94188
0
LINE
8
BLACK
6
CONTINUOUS
10
4.8303
20
-3.94188
11
4.8303
21
-3.94188
0
LINE
8
BLACK
6
CONTINUOUS
10
4.8303
20
-3.94188
11
4.83055
21
-3.94423
0
LINE
8
BLACK
6
CONTINUOUS
10
4.83055
20
-3.94423
11
4.83253
21
-3.94954
0
LINE
8
BLACK
6
CONTINUOUS
10
4.83253
20
-3.94954
11
4.83253
21
-3.94954
0
LINE
8
BLACK
6
CONTINUOUS
10
4.83253
20
-3.94954
11
4.83592
21
-3.95408
0
LINE
8
BLACK
6
CONTINUOUS
10
4.83592
20
-3.95408
11
4.83592
21
-3.95408
0
LINE
8
BLACK
6
CONTINUOUS
10
4.83592
20
-3.95408
11
4.83592
21
-3.95408
0
LINE
8
BLACK
6
CONTINUOUS
10
4.83592
20
-3.95408
11
4.83785
21
-3.95552
0
LINE
8
BLACK
6
CONTINUOUS
10
4.83785
20
-3.95552
11
4.83862
21
-3.95609
0
LINE
8
BLACK
6
CONTINUOUS
10
4.83862
20
-3.95609
11
4.84026
21
-3.95829
0
LINE
8
BLACK
6
CONTINUOUS
10
4.84026
20
-3.95829
11
4.84046
21
-3.96104
0
LINE
8
BLACK
6
CONTINUOUS
10
4.84046
20
-3.96104
11
4.83914
21
-3.96345
0
LINE
8
BLACK
6
CONTINUOUS
10
4.83914
20
-3.96345
11
4.83862
21
-3.96391
0
LINE
8
BLACK
6
CONTINUOUS
10
4.83862
20
-3.96391
11
4.83592
21
-3.96592
0
LINE
8
BLACK
6
CONTINUOUS
10
4.83592
20
-3.96592
11
4.83253
21
-3.97046
0
LINE
8
BLACK
6
CONTINUOUS
10
4.83253
20
-3.97046
11
4.83253
21
-3.97046
0
LINE
8
BLACK
6
CONTINUOUS
10
4.83253
20
-3.97046
11
4.83055
21
-3.97577
0
LINE
8
BLACK
6
CONTINUOUS
10
4.83055
20
-3.97577
11
4.8303
21
-3.97811
0
LINE
8
BLACK
6
CONTINUOUS
10
4.8303
20
-3.97811
11
4.8303
21
-3.97812
0
LINE
8
BLACK
6
CONTINUOUS
10
4.8303
20
-3.97812
11
4.8303
21
-3.97812
0
LINE
8
BLACK
6
CONTINUOUS
10
4.8303
20
-3.97812
11
4.8303
21
-4.04188
0
LINE
8
BLACK
6
CONTINUOUS
10
4.8303
20
-4.04188
11
4.8303
21
-4.04188
0
LINE
8
BLACK
6
CONTINUOUS
10
4.8303
20
-4.04188
11
4.83055
21
-4.04423
0
LINE
8
BLACK
6
CONTINUOUS
10
4.83055
20
-4.04423
11
4.83253
21
-4.04954
0
LINE
8
BLACK
6
CONTINUOUS
10
4.83253
20
-4.04954
11
4.83253
21
-4.04954
0
LINE
8
BLACK
6
CONTINUOUS
10
4.83253
20
-4.04954
11
4.83592
21
-4.05408
0
LINE
8
BLACK
6
CONTINUOUS
10
4.83592
20
-4.05408
11
4.83592
21
-4.05408
0
LINE
8
BLACK
6
CONTINUOUS
10
4.83592
20
-4.05408
11
4.84046
21
-4.05747
0
LINE
8
BLACK
6
CONTINUOUS
10
4.84046
20
-4.05747
11
4.84046
21
-4.05747
0
LINE
8
BLACK
6
CONTINUOUS
10
4.84046
20
-4.05747
11
4.84577
21
-4.05945
0
LINE
8
BLACK
6
CONTINUOUS
10
4.84577
20
-4.05945
11
4.84577
21
-4.05945
0
LINE
8
BLACK
6
CONTINUOUS
10
4.84577
20
-4.05945
11
4.84593
21
-4.05947
0
LINE
8
BLACK
6
CONTINUOUS
10
4.84593
20
-4.05947
11
4.84812
21
-4.0597
0
LINE
8
BLACK
6
CONTINUOUS
10
4.84812
20
-4.0597
11
4.91188
21
-4.0597
0
LINE
8
BLACK
6
CONTINUOUS
10
4.91188
20
-4.0597
11
4.91423
21
-4.05945
0
LINE
8
BLACK
6
CONTINUOUS
10
4.91423
20
-4.05945
11
4.91954
21
-4.05747
0
LINE
8
BLACK
6
CONTINUOUS
10
4.91954
20
-4.05747
11
4.92408
21
-4.05408
0
LINE
8
BLACK
6
CONTINUOUS
10
4.92408
20
-4.05408
11
4.92609
21
-4.05138
0
LINE
8
BLACK
6
CONTINUOUS
10
4.92609
20
-4.05138
11
4.92829
21
-4.04974
0
LINE
8
BLACK
6
CONTINUOUS
10
4.92829
20
-4.04974
11
4.93104
21
-4.04954
0
LINE
8
BLACK
6
CONTINUOUS
10
4.93104
20
-4.04954
11
4.93345
21
-4.05086
0
LINE
8
BLACK
6
CONTINUOUS
10
4.93345
20
-4.05086
11
4.93391
21
-4.05138
0
LINE
8
BLACK
6
CONTINUOUS
10
4.93391
20
-4.05138
11
4.93592
21
-4.05408
0
LINE
8
BLACK
6
CONTINUOUS
10
4.93592
20
-4.05408
11
4.93592
21
-4.05408
0
LINE
8
BLACK
6
CONTINUOUS
10
4.93592
20
-4.05408
11
4.94046
21
-4.05747
0
LINE
8
BLACK
6
CONTINUOUS
10
4.94046
20
-4.05747
11
4.94046
21
-4.05747
0
LINE
8
BLACK
6
CONTINUOUS
10
4.94046
20
-4.05747
11
4.94577
21
-4.05945
0
LINE
8
BLACK
6
CONTINUOUS
10
4.94577
20
-4.05945
11
4.94577
21
-4.05945
0
LINE
8
BLACK
6
CONTINUOUS
10
4.94577
20
-4.05945
11
4.94593
21
-4.05947
0
LINE
8
BLACK
6
CONTINUOUS
10
4.94593
20
-4.05947
11
4.94812
21
-4.0597
0
LINE
8
BLACK
6
CONTINUOUS
10
4.94812
20
-4.0597
11
5.01188
21
-4.0597
0
LINE
8
BLACK
6
CONTINUOUS
10
5.01188
20
-4.0597
11
5.01423
21
-4.05945
0
LINE
8
BLACK
6
CONTINUOUS
10
5.01423
20
-4.05945
11
5.01954
21
-4.05747
0
LINE
8
BLACK
6
CONTINUOUS
10
5.01954
20
-4.05747
11
5.02408
21
-4.05408
0
LINE
8
BLACK
6
CONTINUOUS
10
5.02408
20
-4.05408
11
5.02747
21
-4.04954
0
LINE
8
BLACK
6
CONTINUOUS
10
5.02747
20
-4.04954
11
5.02945
21
-4.04423
0
LINE
8
BLACK
6
CONTINUOUS
10
5.02945
20
-4.04423
11
5.0297
21
-4.04188
0
LINE
8
BLACK
6
CONTINUOUS
10
5.0297
20
-4.04188
11
5.0297
21
-4.04188
0
LINE
8
BLACK
6
CONTINUOUS
10
5.0297
20
-4.04188
11
5.0297
21
-3.97812
0
LINE
8
BLACK
6
CONTINUOUS
10
5.0297
20
-3.97812
11
5.02945
21
-3.97577
0
LINE
8
BLACK
6
CONTINUOUS
10
5.02945
20
-3.97577
11
5.02748
21
-3.97047
0
LINE
8
BLACK
6
CONTINUOUS
10
5.02748
20
-3.97047
11
5.02747
21
-3.97046
0
LINE
8
BLACK
6
CONTINUOUS
10
5.02747
20
-3.97046
11
5.02747
21
-3.97046
0
LINE
8
BLACK
6
CONTINUOUS
10
5.02747
20
-3.97046
11
5.02409
21
-3.96594
0
LINE
8
BLACK
6
CONTINUOUS
10
5.02409
20
-3.96594
11
5.02408
21
-3.96592
0
LINE
8
BLACK
6
CONTINUOUS
10
5.02408
20
-3.96592
11
5.02138
21
-3.96391
0
LINE
8
BLACK
6
CONTINUOUS
10
5.02138
20
-3.96391
11
5.01974
21
-3.96171
0
LINE
8
BLACK
6
CONTINUOUS
10
5.01974
20
-3.96171
11
5.01954
21
-3.95896
0
LINE
8
BLACK
6
CONTINUOUS
10
5.01954
20
-3.95896
11
5.02086
21
-3.95655
0
LINE
8
BLACK
6
CONTINUOUS
10
5.02086
20
-3.95655
11
5.02138
21
-3.95609
0
LINE
8
BLACK
6
CONTINUOUS
10
5.02138
20
-3.95609
11
5.02408
21
-3.95408
0
LINE
8
BLACK
6
CONTINUOUS
10
5.02408
20
-3.95408
11
5.02747
21
-3.94954
0
LINE
8
BLACK
6
CONTINUOUS
10
5.02747
20
-3.94954
11
5.02945
21
-3.94423
0
LINE
8
BLACK
6
CONTINUOUS
10
5.02945
20
-3.94423
11
5.0297
21
-3.94188
0
LINE
8
BLACK
6
CONTINUOUS
10
5.0297
20
-3.94188
11
5.0297
21
-3.87812
0
LINE
8
BLACK
6
CONTINUOUS
10
5.0297
20
-3.87812
11
5.02945
21
-3.87577
0
LINE
8
BLACK
6
CONTINUOUS
10
5.02945
20
-3.87577
11
5.02748
21
-3.87047
0
LINE
8
BLACK
6
CONTINUOUS
10
5.02748
20
-3.87047
11
5.02747
21
-3.87046
0
LINE
8
BLACK
6
CONTINUOUS
10
5.02747
20
-3.87046
11
5.02747
21
-3.87046
0
LINE
8
BLACK
6
CONTINUOUS
10
5.02747
20
-3.87046
11
5.02408
21
-3.86592
0
LINE
8
BLACK
6
CONTINUOUS
10
5.02408
20
-3.86592
11
5.02408
21
-3.86592
0
LINE
8
BLACK
6
CONTINUOUS
10
5.02408
20
-3.86592
11
5.01954
21
-3.86253
0
LINE
8
BLACK
6
CONTINUOUS
10
5.01954
20
-3.86253
11
5.01954
21
-3.86253
0
LINE
8
BLACK
6
CONTINUOUS
10
5.01954
20
-3.86253
11
5.01423
21
-3.86055
0
LINE
8
BLACK
6
CONTINUOUS
10
5.01423
20
-3.86055
11
5.01423
21
-3.86055
0
LINE
8
BLACK
6
CONTINUOUS
10
5.01423
20
-3.86055
11
5.01189
21
-3.8603
0
LINE
8
BLACK
6
CONTINUOUS
10
5.01189
20
-3.8603
11
5.01189
21
-3.8603
0
LINE
8
BLACK
6
CONTINUOUS
10
5.01189
20
-3.8603
11
5.01188
21
-3.8603
0
LINE
8
BLACK
6
CONTINUOUS
10
5.01188
20
-3.8603
11
5.01188
21
-3.8603
0
LINE
8
BLACK
6
CONTINUOUS
10
5.01188
20
-3.8603
11
4.94812
21
-3.8603
0
LINE
8
BLACK
6
CONTINUOUS
10
4.94812
20
-3.8603
11
4.94812
21
-3.8603
0
LINE
8
BLACK
6
CONTINUOUS
10
4.94812
20
-3.8603
11
4.94577
21
-3.86055
0
LINE
8
BLACK
6
CONTINUOUS
10
4.94577
20
-3.86055
11
4.94046
21
-3.86253
0
LINE
8
BLACK
6
CONTINUOUS
10
4.94046
20
-3.86253
11
4.94046
21
-3.86253
0
LINE
8
BLACK
6
CONTINUOUS
10
4.94046
20
-3.86253
11
4.93592
21
-3.86592
0
LINE
8
BLACK
6
CONTINUOUS
10
4.93592
20
-3.86592
11
4.93391
21
-3.86862
0
LINE
8
BLACK
6
CONTINUOUS
10
4.93391
20
-3.86862
11
4.93171
21
-3.87026
0
LINE
8
BLACK
6
CONTINUOUS
10
4.93171
20
-3.87026
11
4.92896
21
-3.87046
0
LINE
8
BLACK
6
CONTINUOUS
10
4.92896
20
-3.87046
11
4.92655
21
-3.86914
0
LINE
8
BLACK
6
CONTINUOUS
10
4.92655
20
-3.86914
11
4.92609
21
-3.86862
0
LINE
8
BLACK
6
CONTINUOUS
10
4.92609
20
-3.86862
11
4.92552
21
-3.86785
0
LINE
8
BLACK
6
CONTINUOUS
10
4.92552
20
-3.86785
11
4.92408
21
-3.86592
0
LINE
8
BLACK
6
CONTINUOUS
10
4.92408
20
-3.86592
11
4.92408
21
-3.86592
0
LINE
8
BLACK
6
CONTINUOUS
10
4.92408
20
-3.86592
11
4.92408
21
-3.86592
0
LINE
8
BLACK
6
CONTINUOUS
10
4.92408
20
-3.86592
11
4.91954
21
-3.86253
0
LINE
8
BLACK
6
CONTINUOUS
10
4.91954
20
-3.86253
11
4.91954
21
-3.86253
0
LINE
8
BLACK
6
CONTINUOUS
10
4.91954
20
-3.86253
11
4.91423
21
-3.86055
0
LINE
8
BLACK
6
CONTINUOUS
10
4.91423
20
-3.86055
11
4.91423
21
-3.86055
0
LINE
8
BLACK
6
CONTINUOUS
10
4.91423
20
-3.86055
11
4.91189
21
-3.8603
0
LINE
8
BLACK
6
CONTINUOUS
10
4.91189
20
-3.8603
11
4.91189
21
-3.8603
0
LINE
8
BLACK
6
CONTINUOUS
10
4.91189
20
-3.8603
11
4.91188
21
-3.8603
0
LINE
8
BLACK
6
CONTINUOUS
10
4.91188
20
-3.8603
11
4.91188
21
-3.8603
0
LINE
8
BLACK
6
CONTINUOUS
10
4.91188
20
-3.8603
11
4.84812
21
-3.8603
0
LINE
8
BLACK
6
CONTINUOUS
10
4.84812
20
-3.8603
11
4.84812
21
-3.8603
0
LINE
8
BLACK
6
CONTINUOUS
10
5.6
20
-4.04
11
5.57984
21
-4.04
0
LINE
8
BLACK
6
CONTINUOUS
10
5.57984
20
-4.04
11
5.57984
21
-4.05969
0
LINE
8
BLACK
6
CONTINUOUS
10
5.57984
20
-4.05969
11
5.60188
21
-4.05969
0
LINE
8
BLACK
6
CONTINUOUS
10
5.60188
20
-4.05969
11
5.60188
21
-4.05968
0
LINE
8
BLACK
6
CONTINUOUS
10
5.60188
20
-4.05968
11
5.60423
21
-4.05943
0
LINE
8
BLACK
6
CONTINUOUS
10
5.60423
20
-4.05943
11
5.60423
21
-4.05943
0
LINE
8
BLACK
6
CONTINUOUS
10
5.60423
20
-4.05943
11
5.60953
21
-4.05745
0
LINE
8
BLACK
6
CONTINUOUS
10
5.60953
20
-4.05745
11
5.60953
21
-4.05745
0
LINE
8
BLACK
6
CONTINUOUS
10
5.60953
20
-4.05745
11
5.61406
21
-4.05406
0
LINE
8
BLACK
6
CONTINUOUS
10
5.61406
20
-4.05406
11
5.61406
21
-4.05406
0
LINE
8
BLACK
6
CONTINUOUS
10
5.61406
20
-4.05406
11
5.61745
21
-4.04953
0
LINE
8
BLACK
6
CONTINUOUS
10
5.61745
20
-4.04953
11
5.61745
21
-4.04953
0
LINE
8
BLACK
6
CONTINUOUS
10
5.61745
20
-4.04953
11
5.61943
21
-4.04423
0
LINE
8
BLACK
6
CONTINUOUS
10
5.61943
20
-4.04423
11
5.61943
21
-4.04423
0
LINE
8
BLACK
6
CONTINUOUS
10
5.61943
20
-4.04423
11
5.61968
21
-4.04188
0
LINE
8
BLACK
6
CONTINUOUS
10
5.61968
20
-4.04188
11
5.61969
21
-4.04188
0
LINE
8
BLACK
6
CONTINUOUS
10
5.61969
20
-4.04188
11
5.61969
21
-4.01984
0
LINE
8
BLACK
6
CONTINUOUS
10
5.61969
20
-4.01984
11
5.6
21
-4.01984
0
LINE
8
BLACK
6
CONTINUOUS
10
5.6
20
-4.01984
11
5.6
21
-4.04
0
LINE
8
BLACK
6
CONTINUOUS
10
5.6
20
-3.94
11
5.57984
21
-3.94
0
LINE
8
BLACK
6
CONTINUOUS
10
5.57984
20
-3.94
11
5.57984
21
-3.98
0
LINE
8
BLACK
6
CONTINUOUS
10
5.57984
20
-3.98
11
5.6
21
-3.98
0
LINE
8
BLACK
6
CONTINUOUS
10
5.6
20
-3.98
11
5.6
21
-4.00016
0
LINE
8
BLACK
6
CONTINUOUS
10
5.6
20
-4.00016
11
5.61969
21
-4.00016
0
LINE
8
BLACK
6
CONTINUOUS
10
5.61969
20
-4.00016
11
5.61969
21
-3.97812
0
LINE
8
BLACK
6
CONTINUOUS
10
5.61969
20
-3.97812
11
5.61968
21
-3.97812
0
LINE
8
BLACK
6
CONTINUOUS
10
5.61968
20
-3.97812
11
5.61943
21
-3.97577
0
LINE
8
BLACK
6
CONTINUOUS
10
5.61943
20
-3.97577
11
5.61943
21
-3.97577
0
LINE
8
BLACK
6
CONTINUOUS
10
5.61943
20
-3.97577
11
5.61745
21
-3.97047
0
LINE
8
BLACK
6
CONTINUOUS
10
5.61745
20
-3.97047
11
5.61745
21
-3.97047
0
LINE
8
BLACK
6
CONTINUOUS
10
5.61745
20
-3.97047
11
5.61406
21
-3.96594
0
LINE
8
BLACK
6
CONTINUOUS
10
5.61406
20
-3.96594
11
5.61135
21
-3.96391
0
LINE
8
BLACK
6
CONTINUOUS
10
5.61135
20
-3.96391
11
5.6097
21
-3.96171
0
LINE
8
BLACK
6
CONTINUOUS
10
5.6097
20
-3.96171
11
5.60951
21
-3.95896
0
LINE
8
BLACK
6
CONTINUOUS
10
5.60951
20
-3.95896
11
5.61083
21
-3.95655
0
LINE
8
BLACK
6
CONTINUOUS
10
5.61083
20
-3.95655
11
5.61135
21
-3.95609
0
LINE
8
BLACK
6
CONTINUOUS
10
5.61135
20
-3.95609
11
5.61406
21
-3.95406
0
LINE
8
BLACK
6
CONTINUOUS
10
5.61406
20
-3.95406
11
5.61406
21
-3.95406
0
LINE
8
BLACK
6
CONTINUOUS
10
5.61406
20
-3.95406
11
5.61745
21
-3.94953
0
LINE
8
BLACK
6
CONTINUOUS
10
5.61745
20
-3.94953
11
5.61745
21
-3.94953
0
LINE
8
BLACK
6
CONTINUOUS
10
5.61745
20
-3.94953
11
5.61943
21
-3.94423
0
LINE
8
BLACK
6
CONTINUOUS
10
5.61943
20
-3.94423
11
5.61943
21
-3.94423
0
LINE
8
BLACK
6
CONTINUOUS
10
5.61943
20
-3.94423
11
5.61968
21
-3.94188
0
LINE
8
BLACK
6
CONTINUOUS
10
5.61968
20
-3.94188
11
5.61969
21
-3.94188
0
LINE
8
BLACK
6
CONTINUOUS
10
5.61969
20
-3.94188
11
5.61969
21
-3.91984
0
LINE
8
BLACK
6
CONTINUOUS
10
5.61969
20
-3.91984
11
5.6
21
-3.91984
0
LINE
8
BLACK
6
CONTINUOUS
10
5.6
20
-3.91984
11
5.6
21
-3.94
0
LINE
8
BLACK
6
CONTINUOUS
10
5.12031
20
-3.91984
11
5.12031
21
-3.94188
0
LINE
8
BLACK
6
CONTINUOUS
10
5.12031
20
-3.94188
11
5.12057
21
-3.94423
0
LINE
8
BLACK
6
CONTINUOUS
10
5.12057
20
-3.94423
11
5.12057
21
-3.94423
0
LINE
8
BLACK
6
CONTINUOUS
10
5.12057
20
-3.94423
11
5.12255
21
-3.94953
0
LINE
8
BLACK
6
CONTINUOUS
10
5.12255
20
-3.94953
11
5.12255
21
-3.94953
0
LINE
8
BLACK
6
CONTINUOUS
10
5.12255
20
-3.94953
11
5.12594
21
-3.95406
0
LINE
8
BLACK
6
CONTINUOUS
10
5.12594
20
-3.95406
11
5.12865
21
-3.95609
0
LINE
8
BLACK
6
CONTINUOUS
10
5.12865
20
-3.95609
11
5.1303
21
-3.95829
0
LINE
8
BLACK
6
CONTINUOUS
10
5.1303
20
-3.95829
11
5.13049
21
-3.96104
0
LINE
8
BLACK
6
CONTINUOUS
10
5.13049
20
-3.96104
11
5.12917
21
-3.96345
0
LINE
8
BLACK
6
CONTINUOUS
10
5.12917
20
-3.96345
11
5.12865
21
-3.96391
0
LINE
8
BLACK
6
CONTINUOUS
10
5.12865
20
-3.96391
11
5.12594
21
-3.96594
0
LINE
8
BLACK
6
CONTINUOUS
10
5.12594
20
-3.96594
11
5.12255
21
-3.97047
0
LINE
8
BLACK
6
CONTINUOUS
10
5.12255
20
-3.97047
11
5.12255
21
-3.97047
0
LINE
8
BLACK
6
CONTINUOUS
10
5.12255
20
-3.97047
11
5.12057
21
-3.97577
0
LINE
8
BLACK
6
CONTINUOUS
10
5.12057
20
-3.97577
11
5.12057
21
-3.97577
0
LINE
8
BLACK
6
CONTINUOUS
10
5.12057
20
-3.97577
11
5.12031
21
-3.97812
0
LINE
8
BLACK
6
CONTINUOUS
10
5.12031
20
-3.97812
11
5.12031
21
-4.00016
0
LINE
8
BLACK
6
CONTINUOUS
10
5.12031
20
-4.00016
11
5.14
21
-4.00016
0
LINE
8
BLACK
6
CONTINUOUS
10
5.14
20
-4.00016
11
5.14
21
-3.98
0
LINE
8
BLACK
6
CONTINUOUS
10
5.14
20
-3.98
11
5.16016
21
-3.98
0
LINE
8
BLACK
6
CONTINUOUS
10
5.16016
20
-3.98
11
5.16016
21
-3.94
0
LINE
8
BLACK
6
CONTINUOUS
10
5.16016
20
-3.94
11
5.14
21
-3.94
0
LINE
8
BLACK
6
CONTINUOUS
10
5.14
20
-3.94
11
5.14
21
-3.91984
0
LINE
8
BLACK
6
CONTINUOUS
10
5.14
20
-3.91984
11
5.12031
21
-3.91984
0
LINE
8
BLACK
6
CONTINUOUS
10
5.57984
20
-3.88
11
5.6
21
-3.88
0
LINE
8
BLACK
6
CONTINUOUS
10
5.6
20
-3.88
11
5.6
21
-3.90016
0
LINE
8
BLACK
6
CONTINUOUS
10
5.6
20
-3.90016
11
5.61969
21
-3.90016
0
LINE
8
BLACK
6
CONTINUOUS
10
5.61969
20
-3.90016
11
5.61969
21
-3.87812
0
LINE
8
BLACK
6
CONTINUOUS
10
5.61969
20
-3.87812
11
5.61968
21
-3.87812
0
LINE
8
BLACK
6
CONTINUOUS
10
5.61968
20
-3.87812
11
5.61943
21
-3.87577
0
LINE
8
BLACK
6
CONTINUOUS
10
5.61943
20
-3.87577
11
5.61943
21
-3.87577
0
LINE
8
BLACK
6
CONTINUOUS
10
5.61943
20
-3.87577
11
5.61745
21
-3.87047
0
LINE
8
BLACK
6
CONTINUOUS
10
5.61745
20
-3.87047
11
5.61745
21
-3.87047
0
LINE
8
BLACK
6
CONTINUOUS
10
5.61745
20
-3.87047
11
5.61406
21
-3.86594
0
LINE
8
BLACK
6
CONTINUOUS
10
5.61406
20
-3.86594
11
5.61406
21
-3.86594
0
LINE
8
BLACK
6
CONTINUOUS
10
5.61406
20
-3.86594
11
5.60953
21
-3.86255
0
LINE
8
BLACK
6
CONTINUOUS
10
5.60953
20
-3.86255
11
5.60953
21
-3.86255
0
LINE
8
BLACK
6
CONTINUOUS
10
5.60953
20
-3.86255
11
5.60423
21
-3.86057
0
LINE
8
BLACK
6
CONTINUOUS
10
5.60423
20
-3.86057
11
5.60423
21
-3.86057
0
LINE
8
BLACK
6
CONTINUOUS
10
5.60423
20
-3.86057
11
5.60188
21
-3.86031
0
LINE
8
BLACK
6
CONTINUOUS
10
5.60188
20
-3.86031
11
5.57984
21
-3.86031
0
LINE
8
BLACK
6
CONTINUOUS
10
5.57984
20
-3.86031
11
5.57984
21
-3.88
0
LINE
8
BLACK
6
CONTINUOUS
10
5.13577
20
-3.86057
11
5.13577
21
-3.86057
0
LINE
8
BLACK
6
CONTINUOUS
10
5.13577
20
-3.86057
11
5.13047
21
-3.86255
0
LINE
8
BLACK
6
CONTINUOUS
10
5.13047
20
-3.86255
11
5.13047
21
-3.86255
0
LINE
8
BLACK
6
CONTINUOUS
10
5.13047
20
-3.86255
11
5.12594
21
-3.86594
0
LINE
8
BLACK
6
CONTINUOUS
10
5.12594
20
-3.86594
11
5.12594
21
-3.86594
0
LINE
8
BLACK
6
CONTINUOUS
10
5.12594
20
-3.86594
11
5.12255
21
-3.87047
0
LINE
8
BLACK
6
CONTINUOUS
10
5.12255
20
-3.87047
11
5.12255
21
-3.87047
0
LINE
8
BLACK
6
CONTINUOUS
10
5.12255
20
-3.87047
11
5.12057
21
-3.87577
0
LINE
8
BLACK
6
CONTINUOUS
10
5.12057
20
-3.87577
11
5.12057
21
-3.87577
0
LINE
8
BLACK
6
CONTINUOUS
10
5.12057
20
-3.87577
11
5.12031
21
-3.87812
0
LINE
8
BLACK
6
CONTINUOUS
10
5.12031
20
-3.87812
11
5.12031
21
-3.90016
0
LINE
8
BLACK
6
CONTINUOUS
10
5.12031
20
-3.90016
11
5.14
21
-3.90016
0
LINE
8
BLACK
6
CONTINUOUS
10
5.14
20
-3.90016
11
5.14
21
-3.88
0
LINE
8
BLACK
6
CONTINUOUS
10
5.14
20
-3.88
11
5.16016
21
-3.88
0
LINE
8
BLACK
6
CONTINUOUS
10
5.16016
20
-3.88
11
5.16016
21
-3.86031
0
LINE
8
BLACK
6
CONTINUOUS
10
5.16016
20
-3.86031
11
5.13812
21
-3.86031
0
LINE
8
BLACK
6
CONTINUOUS
10
5.13812
20
-3.86031
11
5.13577
21
-3.86057
0
LINE
8
BLACK
6
CONTINUOUS
10
5.12057
20
-4.04423
11
5.12057
21
-4.04423
0
LINE
8
BLACK
6
CONTINUOUS
10
5.12057
20
-4.04423
11
5.12255
21
-4.04953
0
LINE
8
BLACK
6
CONTINUOUS
10
5.12255
20
-4.04953
11
5.12255
21
-4.04953
0
LINE
8
BLACK
6
CONTINUOUS
10
5.12255
20
-4.04953
11
5.12594
21
-4.05406
0
LINE
8
BLACK
6
CONTINUOUS
10
5.12594
20
-4.05406
11
5.12594
21
-4.05406
0
LINE
8
BLACK
6
CONTINUOUS
10
5.12594
20
-4.05406
11
5.13047
21
-4.05745
0
LINE
8
BLACK
6
CONTINUOUS
10
5.13047
20
-4.05745
11
5.13047
21
-4.05745
0
LINE
8
BLACK
6
CONTINUOUS
10
5.13047
20
-4.05745
11
5.13577
21
-4.05943
0
LINE
8
BLACK
6
CONTINUOUS
10
5.13577
20
-4.05943
11
5.13577
21
-4.05943
0
LINE
8
BLACK
6
CONTINUOUS
10
5.13577
20
-4.05943
11
5.13812
21
-4.05968
0
LINE
8
BLACK
6
CONTINUOUS
10
5.13812
20
-4.05968
11
5.13812
21
-4.05969
0
LINE
8
BLACK
6
CONTINUOUS
10
5.13812
20
-4.05969
11
5.16016
21
-4.05969
0
LINE
8
BLACK
6
CONTINUOUS
10
5.16016
20
-4.05969
11
5.16016
21
-4.04
0
LINE
8
BLACK
6
CONTINUOUS
10
5.16016
20
-4.04
11
5.14
21
-4.04
0
LINE
8
BLACK
6
CONTINUOUS
10
5.14
20
-4.04
11
5.14
21
-4.01984
0
LINE
8
BLACK
6
CONTINUOUS
10
5.14
20
-4.01984
11
5.12031
21
-4.01984
0
LINE
8
BLACK
6
CONTINUOUS
10
5.12031
20
-4.01984
11
5.12031
21
-4.04188
0
LINE
8
BLACK
6
CONTINUOUS
10
5.12031
20
-4.04188
11
5.12057
21
-4.04423
0
CIRCLE
8
BLACK
10
5.57
20
-3.91
40
0.00688976
0
CIRCLE
8
BLACK
10
5.57
20
-4.01
40
0.00688976
0
CIRCLE
8
BLACK
10
5.47
20
-3.91
40
0.00688976
0
CIRCLE
8
BLACK
10
5.47
20
-4.01
40
0.00688976
0
CIRCLE
8
BLACK
10
5.37
20
-3.91
40
0.00688976
0
CIRCLE
8
BLACK
10
5.37
20
-4.01
40
0.00688976
0
CIRCLE
8
BLACK
10
5.27
20
-3.91
40
0.00688976
0
CIRCLE
8
BLACK
10
5.27
20
-4.01
40
0.00688976
0
CIRCLE
8
BLACK
10
5.17
20
-3.91
40
0.00688976
0
CIRCLE
8
BLACK
10
5.17
20
-4.01
40
0.00688976
0
CIRCLE
8
BLACK
10
4.98
20
-3.91
40
0.00688976
0
CIRCLE
8
BLACK
10
4.98
20
-4.01
40
0.00688976
0
CIRCLE
8
BLACK
10
4.88
20
-3.91
40
0.00688976
0
CIRCLE
8
BLACK
10
4.88
20
-4.01
40
0.00688976
0
CIRCLE
8
BLACK
10
5.8
20
-4.4
40
0.00688976
0
CIRCLE
8
BLACK
10
4.6
20
-4
40
0.00688976
0
CIRCLE
8
BLACK
10
5.36
20
-4.5
40
0.00688976
0
CIRCLE
8
BLACK
10
5.36
20
-4.4
40
0.00688976
0
CIRCLE
8
BLACK
10
5.46
20
-4.5
40
0.00688976
0
CIRCLE
8
BLACK
10
5.46
20
-4.4
40
0.00688976
0
CIRCLE
8
BLACK
10
5.56
20
-4.5
40
0.00688976
0
CIRCLE
8
BLACK
10
5.56
20
-4.4
40
0.00688976
0
CIRCLE
8
BLACK
10
5.8
20
-4
40
0.00688976
0
CIRCLE
8
BLACK
10
4.6
20
-4.4
40
0.00688976
0
CIRCLE
8
BLACK
10
5.46
20
-4.21
40
0.00787402
0
CIRCLE
8
BLACK
10
5.04218
20
-4.35
40
0.00787402
0
CIRCLE
8
BLACK
10
5.01
20
-4.52
40
0.00787402
0
CIRCLE
8
BLACK
10
5.25
20
-4.19
40
0.00787402
0
CIRCLE
8
BLACK
10
5.29
20
-4.19
40
0.00787402
0
CIRCLE
8
BLACK
10
5.37
20
-4.19
40
0.00787402
0
CIRCLE
8
BLACK
10
5.62
20
-4.2
40
0.00787402
0
CIRCLE
8
BLACK
10
5.01
20
-4.44
40
0.00787402
0
CIRCLE
8
BLACK
10
5.33
20
-4.19
40
0.00787402
0
CIRCLE
8
BLACK
10
5.66
20
-4.28
40
0.00787402
0
CIRCLE
8
BLACK
10
5.09
20
-4.35
40
0.00787402
0
CIRCLE
8
BLACK
10
5.01
20
-4.48
40
0.00787402
0
CIRCLE
8
BLACK
10
5.58
20
-4.2
40
0.00787402
  0
ENDSEC
  0
EOF
