  0
SECTION
  2
HEADER
  9
$ANGBASE
  50
0.0
  9
$ANGDIR
  70
1
  9
$MEASUREMENT
  70
0
  0
ENDSEC
  0
SECTION
  2
TABLES
  0
TABLE
  2
LTYPE
  70
4
  0
LTYPE
  5
40F
  2
CONTINUOUS
  70
0
  3
Solid line
  72
65
  73
0
  40
0.0
  0
LTYPE
  5
410
  2
DASHDOT
 70
0
  3
Dash Dot ____ _ ____ _
 72
65
 73
4
 40
2.0
 49
1.25
 49
-0.25
 49
0.25
 49
-0.25
  0
LTYPE
  5
411
  2
DASHED
 70
0
  3
Dashed __ __ __ __ __
 72
65
 73
2
 40
0.75
 49
0.5
 49
-0.25
  0
LTYPE
  5
43B
  2
DOTTED
 70
0
  3
Dotted .  .  .  .
 72
65
 73
2
 40
0.2
 49
0.0
 49
-0.2
  0
ENDTAB
  0
TABLE
  2
STYLE
  70
4
  0
STYLE
  2
KICAD
  70
0
  40
0
  41
1
  42
1
  50
0
  71
0
  3
isocp.shx
  0
STYLE
  2
KICADB
  70
0
  40
0
  41
1
  42
1
  50
0
  71
0
  3
isocp.shx
  0
STYLE
  2
KICADI
  70
0
  40
0
  41
1
  42
1
  50
15
  71
0
  3
isocp.shx
  0
STYLE
  2
KICADBI
  70
0
  40
0
  41
1
  42
1
  50
15
  71
0
  3
isocp.shx
  0
ENDTAB
  0
TABLE
  2
LAYER
  70
1
  0
LAYER
  2
BLACK
  70
0
  62
7
  6
CONTINUOUS
  0
ENDTAB
  0
ENDSEC
  0
SECTION
  2
ENTITIES
0
LINE
8
BLACK
6
CONTINUOUS
10
5.39
20
-4.53
11
5.33
21
-4.53
0
LINE
8
BLACK
6
CONTINUOUS
10
5.33
20
-4.53
11
5.33
21
-4.47
0
LINE
8
BLACK
6
CONTINUOUS
10
5.33
20
-4.47
11
5.39
21
-4.47
0
LINE
8
BLACK
6
CONTINUOUS
10
5.39
20
-4.47
11
5.39
21
-4.53
0
LINE
8
BLACK
6
CONTINUOUS
10
5.49
20
-4.53
11
5.43
21
-4.53
0
LINE
8
BLACK
6
CONTINUOUS
10
5.43
20
-4.53
11
5.43
21
-4.47
0
LINE
8
BLACK
6
CONTINUOUS
10
5.43
20
-4.47
11
5.49
21
-4.47
0
LINE
8
BLACK
6
CONTINUOUS
10
5.49
20
-4.47
11
5.49
21
-4.53
0
LINE
8
BLACK
6
CONTINUOUS
10
5.59
20
-4.53
11
5.53
21
-4.53
0
LINE
8
BLACK
6
CONTINUOUS
10
5.53
20
-4.53
11
5.53
21
-4.47
0
LINE
8
BLACK
6
CONTINUOUS
10
5.53
20
-4.47
11
5.59
21
-4.47
0
LINE
8
BLACK
6
CONTINUOUS
10
5.59
20
-4.47
11
5.59
21
-4.53
0
LINE
8
BLACK
6
CONTINUOUS
10
4.62051
20
-4.28368
11
4.63387
21
-4.28685
0
LINE
8
BLACK
6
CONTINUOUS
10
4.63387
20
-4.28685
11
4.64678
21
-4.29155
0
LINE
8
BLACK
6
CONTINUOUS
10
4.64678
20
-4.29155
11
4.65906
21
-4.29771
0
LINE
8
BLACK
6
CONTINUOUS
10
4.65906
20
-4.29771
11
4.67053
21
-4.30526
0
LINE
8
BLACK
6
CONTINUOUS
10
4.67053
20
-4.30526
11
4.68105
21
-4.31409
0
LINE
8
BLACK
6
CONTINUOUS
10
4.68105
20
-4.31409
11
4.69048
21
-4.32408
0
LINE
8
BLACK
6
CONTINUOUS
10
4.69048
20
-4.32408
11
4.69868
21
-4.3351
0
LINE
8
BLACK
6
CONTINUOUS
10
4.69868
20
-4.3351
11
4.70555
21
-4.34699
0
LINE
8
BLACK
6
CONTINUOUS
10
4.70555
20
-4.34699
11
4.71099
21
-4.3596
0
LINE
8
BLACK
6
CONTINUOUS
10
4.71099
20
-4.3596
11
4.71493
21
-4.37276
0
LINE
8
BLACK
6
CONTINUOUS
10
4.71493
20
-4.37276
11
4.71731
21
-4.38629
0
LINE
8
BLACK
6
CONTINUOUS
10
4.71731
20
-4.38629
11
4.71811
21
-4.4
0
LINE
8
BLACK
6
CONTINUOUS
10
4.71811
20
-4.4
11
4.71731
21
-4.41371
0
LINE
8
BLACK
6
CONTINUOUS
10
4.71731
20
-4.41371
11
4.71493
21
-4.42724
0
LINE
8
BLACK
6
CONTINUOUS
10
4.71493
20
-4.42724
11
4.71099
21
-4.4404
0
LINE
8
BLACK
6
CONTINUOUS
10
4.71099
20
-4.4404
11
4.70555
21
-4.45301
0
LINE
8
BLACK
6
CONTINUOUS
10
4.70555
20
-4.45301
11
4.69868
21
-4.4649
0
LINE
8
BLACK
6
CONTINUOUS
10
4.69868
20
-4.4649
11
4.69048
21
-4.47592
0
LINE
8
BLACK
6
CONTINUOUS
10
4.69048
20
-4.47592
11
4.68105
21
-4.48591
0
LINE
8
BLACK
6
CONTINUOUS
10
4.68105
20
-4.48591
11
4.67053
21
-4.49474
0
LINE
8
BLACK
6
CONTINUOUS
10
4.67053
20
-4.49474
11
4.65906
21
-4.50229
0
LINE
8
BLACK
6
CONTINUOUS
10
4.65906
20
-4.50229
11
4.64678
21
-4.50845
0
LINE
8
BLACK
6
CONTINUOUS
10
4.64678
20
-4.50845
11
4.63387
21
-4.51315
0
LINE
8
BLACK
6
CONTINUOUS
10
4.63387
20
-4.51315
11
4.62051
21
-4.51632
0
LINE
8
BLACK
6
CONTINUOUS
10
4.62051
20
-4.51632
11
4.60687
21
-4.51791
0
LINE
8
BLACK
6
CONTINUOUS
10
4.60687
20
-4.51791
11
4.59313
21
-4.51791
0
LINE
8
BLACK
6
CONTINUOUS
10
4.59313
20
-4.51791
11
4.57949
21
-4.51632
0
LINE
8
BLACK
6
CONTINUOUS
10
4.57949
20
-4.51632
11
4.56613
21
-4.51315
0
LINE
8
BLACK
6
CONTINUOUS
10
4.56613
20
-4.51315
11
4.55322
21
-4.50845
0
LINE
8
BLACK
6
CONTINUOUS
10
4.55322
20
-4.50845
11
4.54094
21
-4.50229
0
LINE
8
BLACK
6
CONTINUOUS
10
4.54094
20
-4.50229
11
4.52947
21
-4.49474
0
LINE
8
BLACK
6
CONTINUOUS
10
4.52947
20
-4.49474
11
4.51895
21
-4.48591
0
LINE
8
BLACK
6
CONTINUOUS
10
4.51895
20
-4.48591
11
4.50952
21
-4.47592
0
LINE
8
BLACK
6
CONTINUOUS
10
4.50952
20
-4.47592
11
4.50132
21
-4.4649
0
LINE
8
BLACK
6
CONTINUOUS
10
4.50132
20
-4.4649
11
4.49445
21
-4.45301
0
LINE
8
BLACK
6
CONTINUOUS
10
4.49445
20
-4.45301
11
4.48901
21
-4.4404
0
LINE
8
BLACK
6
CONTINUOUS
10
4.48901
20
-4.4404
11
4.48507
21
-4.42724
0
LINE
8
BLACK
6
CONTINUOUS
10
4.48507
20
-4.42724
11
4.48269
21
-4.41371
0
LINE
8
BLACK
6
CONTINUOUS
10
4.48269
20
-4.41371
11
4.48189
21
-4.4
0
LINE
8
BLACK
6
CONTINUOUS
10
4.48189
20
-4.4
11
4.48269
21
-4.38629
0
LINE
8
BLACK
6
CONTINUOUS
10
4.48269
20
-4.38629
11
4.48507
21
-4.37276
0
LINE
8
BLACK
6
CONTINUOUS
10
4.48507
20
-4.37276
11
4.48901
21
-4.3596
0
LINE
8
BLACK
6
CONTINUOUS
10
4.48901
20
-4.3596
11
4.49445
21
-4.34699
0
LINE
8
BLACK
6
CONTINUOUS
10
4.49445
20
-4.34699
11
4.50132
21
-4.3351
0
LINE
8
BLACK
6
CONTINUOUS
10
4.50132
20
-4.3351
11
4.50952
21
-4.32408
0
LINE
8
BLACK
6
CONTINUOUS
10
4.50952
20
-4.32408
11
4.51895
21
-4.31409
0
LINE
8
BLACK
6
CONTINUOUS
10
4.51895
20
-4.31409
11
4.52947
21
-4.30526
0
LINE
8
BLACK
6
CONTINUOUS
10
4.52947
20
-4.30526
11
4.54094
21
-4.29771
0
LINE
8
BLACK
6
CONTINUOUS
10
4.54094
20
-4.29771
11
4.55322
21
-4.29155
0
LINE
8
BLACK
6
CONTINUOUS
10
4.55322
20
-4.29155
11
4.56613
21
-4.28685
0
LINE
8
BLACK
6
CONTINUOUS
10
4.56613
20
-4.28685
11
4.57949
21
-4.28368
0
LINE
8
BLACK
6
CONTINUOUS
10
4.57949
20
-4.28368
11
4.59313
21
-4.28209
0
LINE
8
BLACK
6
CONTINUOUS
10
4.59313
20
-4.28209
11
4.60687
21
-4.28209
0
LINE
8
BLACK
6
CONTINUOUS
10
4.60687
20
-4.28209
11
4.62051
21
-4.28368
0
LINE
8
BLACK
6
CONTINUOUS
10
5.82051
20
-4.28368
11
5.83387
21
-4.28685
0
LINE
8
BLACK
6
CONTINUOUS
10
5.83387
20
-4.28685
11
5.84678
21
-4.29155
0
LINE
8
BLACK
6
CONTINUOUS
10
5.84678
20
-4.29155
11
5.85906
21
-4.29771
0
LINE
8
BLACK
6
CONTINUOUS
10
5.85906
20
-4.29771
11
5.87053
21
-4.30526
0
LINE
8
BLACK
6
CONTINUOUS
10
5.87053
20
-4.30526
11
5.88105
21
-4.31409
0
LINE
8
BLACK
6
CONTINUOUS
10
5.88105
20
-4.31409
11
5.89048
21
-4.32408
0
LINE
8
BLACK
6
CONTINUOUS
10
5.89048
20
-4.32408
11
5.89868
21
-4.3351
0
LINE
8
BLACK
6
CONTINUOUS
10
5.89868
20
-4.3351
11
5.90555
21
-4.34699
0
LINE
8
BLACK
6
CONTINUOUS
10
5.90555
20
-4.34699
11
5.91099
21
-4.3596
0
LINE
8
BLACK
6
CONTINUOUS
10
5.91099
20
-4.3596
11
5.91493
21
-4.37276
0
LINE
8
BLACK
6
CONTINUOUS
10
5.91493
20
-4.37276
11
5.91731
21
-4.38629
0
LINE
8
BLACK
6
CONTINUOUS
10
5.91731
20
-4.38629
11
5.91811
21
-4.4
0
LINE
8
BLACK
6
CONTINUOUS
10
5.91811
20
-4.4
11
5.91731
21
-4.41371
0
LINE
8
BLACK
6
CONTINUOUS
10
5.91731
20
-4.41371
11
5.91493
21
-4.42724
0
LINE
8
BLACK
6
CONTINUOUS
10
5.91493
20
-4.42724
11
5.91099
21
-4.4404
0
LINE
8
BLACK
6
CONTINUOUS
10
5.91099
20
-4.4404
11
5.90555
21
-4.45301
0
LINE
8
BLACK
6
CONTINUOUS
10
5.90555
20
-4.45301
11
5.89868
21
-4.4649
0
LINE
8
BLACK
6
CONTINUOUS
10
5.89868
20
-4.4649
11
5.89048
21
-4.47592
0
LINE
8
BLACK
6
CONTINUOUS
10
5.89048
20
-4.47592
11
5.88105
21
-4.48591
0
LINE
8
BLACK
6
CONTINUOUS
10
5.88105
20
-4.48591
11
5.87053
21
-4.49474
0
LINE
8
BLACK
6
CONTINUOUS
10
5.87053
20
-4.49474
11
5.85906
21
-4.50229
0
LINE
8
BLACK
6
CONTINUOUS
10
5.85906
20
-4.50229
11
5.84678
21
-4.50845
0
LINE
8
BLACK
6
CONTINUOUS
10
5.84678
20
-4.50845
11
5.83387
21
-4.51315
0
LINE
8
BLACK
6
CONTINUOUS
10
5.83387
20
-4.51315
11
5.82051
21
-4.51632
0
LINE
8
BLACK
6
CONTINUOUS
10
5.82051
20
-4.51632
11
5.80687
21
-4.51791
0
LINE
8
BLACK
6
CONTINUOUS
10
5.80687
20
-4.51791
11
5.79313
21
-4.51791
0
LINE
8
BLACK
6
CONTINUOUS
10
5.79313
20
-4.51791
11
5.77949
21
-4.51632
0
LINE
8
BLACK
6
CONTINUOUS
10
5.77949
20
-4.51632
11
5.76613
21
-4.51315
0
LINE
8
BLACK
6
CONTINUOUS
10
5.76613
20
-4.51315
11
5.75322
21
-4.50845
0
LINE
8
BLACK
6
CONTINUOUS
10
5.75322
20
-4.50845
11
5.74094
21
-4.50229
0
LINE
8
BLACK
6
CONTINUOUS
10
5.74094
20
-4.50229
11
5.72947
21
-4.49474
0
LINE
8
BLACK
6
CONTINUOUS
10
5.72947
20
-4.49474
11
5.71895
21
-4.48591
0
LINE
8
BLACK
6
CONTINUOUS
10
5.71895
20
-4.48591
11
5.70952
21
-4.47592
0
LINE
8
BLACK
6
CONTINUOUS
10
5.70952
20
-4.47592
11
5.70132
21
-4.4649
0
LINE
8
BLACK
6
CONTINUOUS
10
5.70132
20
-4.4649
11
5.69445
21
-4.45301
0
LINE
8
BLACK
6
CONTINUOUS
10
5.69445
20
-4.45301
11
5.68901
21
-4.4404
0
LINE
8
BLACK
6
CONTINUOUS
10
5.68901
20
-4.4404
11
5.68507
21
-4.42724
0
LINE
8
BLACK
6
CONTINUOUS
10
5.68507
20
-4.42724
11
5.68269
21
-4.41371
0
LINE
8
BLACK
6
CONTINUOUS
10
5.68269
20
-4.41371
11
5.68189
21
-4.4
0
LINE
8
BLACK
6
CONTINUOUS
10
5.68189
20
-4.4
11
5.68269
21
-4.38629
0
LINE
8
BLACK
6
CONTINUOUS
10
5.68269
20
-4.38629
11
5.68507
21
-4.37276
0
LINE
8
BLACK
6
CONTINUOUS
10
5.68507
20
-4.37276
11
5.68901
21
-4.3596
0
LINE
8
BLACK
6
CONTINUOUS
10
5.68901
20
-4.3596
11
5.69445
21
-4.34699
0
LINE
8
BLACK
6
CONTINUOUS
10
5.69445
20
-4.34699
11
5.70132
21
-4.3351
0
LINE
8
BLACK
6
CONTINUOUS
10
5.70132
20
-4.3351
11
5.70952
21
-4.32408
0
LINE
8
BLACK
6
CONTINUOUS
10
5.70952
20
-4.32408
11
5.71895
21
-4.31409
0
LINE
8
BLACK
6
CONTINUOUS
10
5.71895
20
-4.31409
11
5.72947
21
-4.30526
0
LINE
8
BLACK
6
CONTINUOUS
10
5.72947
20
-4.30526
11
5.74094
21
-4.29771
0
LINE
8
BLACK
6
CONTINUOUS
10
5.74094
20
-4.29771
11
5.75322
21
-4.29155
0
LINE
8
BLACK
6
CONTINUOUS
10
5.75322
20
-4.29155
11
5.76613
21
-4.28685
0
LINE
8
BLACK
6
CONTINUOUS
10
5.76613
20
-4.28685
11
5.77949
21
-4.28368
0
LINE
8
BLACK
6
CONTINUOUS
10
5.77949
20
-4.28368
11
5.79313
21
-4.28209
0
LINE
8
BLACK
6
CONTINUOUS
10
5.79313
20
-4.28209
11
5.80687
21
-4.28209
0
LINE
8
BLACK
6
CONTINUOUS
10
5.80687
20
-4.28209
11
5.82051
21
-4.28368
0
LINE
8
BLACK
6
CONTINUOUS
10
5.11614
20
-4.50299
11
5.09449
21
-4.50299
0
LINE
8
BLACK
6
CONTINUOUS
10
5.09449
20
-4.50299
11
5.09449
21
-4.50279
0
LINE
8
BLACK
6
CONTINUOUS
10
5.09449
20
-4.50279
11
5.09169
21
-4.50279
0
LINE
8
BLACK
6
CONTINUOUS
10
5.09169
20
-4.50279
11
5.08631
21
-4.50121
0
LINE
8
BLACK
6
CONTINUOUS
10
5.08631
20
-4.50121
11
5.0816
21
-4.49818
0
LINE
8
BLACK
6
CONTINUOUS
10
5.0816
20
-4.49818
11
5.07793
21
-4.49395
0
LINE
8
BLACK
6
CONTINUOUS
10
5.07793
20
-4.49395
11
5.0756
21
-4.48885
0
LINE
8
BLACK
6
CONTINUOUS
10
5.0756
20
-4.48885
11
5.0748
21
-4.48331
0
LINE
8
BLACK
6
CONTINUOUS
10
5.0748
20
-4.48331
11
5.0748
21
-4.46362
0
LINE
8
BLACK
6
CONTINUOUS
10
5.0748
20
-4.46362
11
5.0756
21
-4.45808
0
LINE
8
BLACK
6
CONTINUOUS
10
5.0756
20
-4.45808
11
5.07793
21
-4.45298
0
LINE
8
BLACK
6
CONTINUOUS
10
5.07793
20
-4.45298
11
5.0816
21
-4.44875
0
LINE
8
BLACK
6
CONTINUOUS
10
5.0816
20
-4.44875
11
5.08631
21
-4.44572
0
LINE
8
BLACK
6
CONTINUOUS
10
5.08631
20
-4.44572
11
5.09169
21
-4.44414
0
LINE
8
BLACK
6
CONTINUOUS
10
5.09169
20
-4.44414
11
5.09449
21
-4.44414
0
LINE
8
BLACK
6
CONTINUOUS
10
5.09449
20
-4.44414
11
5.09449
21
-4.44394
0
LINE
8
BLACK
6
CONTINUOUS
10
5.09449
20
-4.44394
11
5.11614
21
-4.44394
0
LINE
8
BLACK
6
CONTINUOUS
10
5.11614
20
-4.44394
11
5.11614
21
-4.50299
0
LINE
8
BLACK
6
CONTINUOUS
10
5.16535
20
-4.50299
11
5.12598
21
-4.50299
0
LINE
8
BLACK
6
CONTINUOUS
10
5.12598
20
-4.50299
11
5.12598
21
-4.44394
0
LINE
8
BLACK
6
CONTINUOUS
10
5.12598
20
-4.44394
11
5.16535
21
-4.44394
0
LINE
8
BLACK
6
CONTINUOUS
10
5.16535
20
-4.44394
11
5.16535
21
-4.50299
0
LINE
8
BLACK
6
CONTINUOUS
10
5.19685
20
-4.44414
11
5.19965
21
-4.44414
0
LINE
8
BLACK
6
CONTINUOUS
10
5.19965
20
-4.44414
11
5.20503
21
-4.44572
0
LINE
8
BLACK
6
CONTINUOUS
10
5.20503
20
-4.44572
11
5.20974
21
-4.44875
0
LINE
8
BLACK
6
CONTINUOUS
10
5.20974
20
-4.44875
11
5.21341
21
-4.45298
0
LINE
8
BLACK
6
CONTINUOUS
10
5.21341
20
-4.45298
11
5.21574
21
-4.45808
0
LINE
8
BLACK
6
CONTINUOUS
10
5.21574
20
-4.45808
11
5.21654
21
-4.46362
0
LINE
8
BLACK
6
CONTINUOUS
10
5.21654
20
-4.46362
11
5.21654
21
-4.48331
0
LINE
8
BLACK
6
CONTINUOUS
10
5.21654
20
-4.48331
11
5.21574
21
-4.48885
0
LINE
8
BLACK
6
CONTINUOUS
10
5.21574
20
-4.48885
11
5.21341
21
-4.49395
0
LINE
8
BLACK
6
CONTINUOUS
10
5.21341
20
-4.49395
11
5.20974
21
-4.49818
0
LINE
8
BLACK
6
CONTINUOUS
10
5.20974
20
-4.49818
11
5.20503
21
-4.50121
0
LINE
8
BLACK
6
CONTINUOUS
10
5.20503
20
-4.50121
11
5.19965
21
-4.50279
0
LINE
8
BLACK
6
CONTINUOUS
10
5.19965
20
-4.50279
11
5.19685
21
-4.50279
0
LINE
8
BLACK
6
CONTINUOUS
10
5.19685
20
-4.50279
11
5.19685
21
-4.50299
0
LINE
8
BLACK
6
CONTINUOUS
10
5.19685
20
-4.50299
11
5.1752
21
-4.50299
0
LINE
8
BLACK
6
CONTINUOUS
10
5.1752
20
-4.50299
11
5.1752
21
-4.44394
0
LINE
8
BLACK
6
CONTINUOUS
10
5.1752
20
-4.44394
11
5.19685
21
-4.44394
0
LINE
8
BLACK
6
CONTINUOUS
10
5.19685
20
-4.44394
11
5.19685
21
-4.44414
0
LINE
8
BLACK
6
CONTINUOUS
10
5.39
20
-4.43
11
5.33
21
-4.43
0
LINE
8
BLACK
6
CONTINUOUS
10
5.33
20
-4.43
11
5.33
21
-4.37
0
LINE
8
BLACK
6
CONTINUOUS
10
5.33
20
-4.37
11
5.39
21
-4.37
0
LINE
8
BLACK
6
CONTINUOUS
10
5.39
20
-4.37
11
5.39
21
-4.43
0
LINE
8
BLACK
6
CONTINUOUS
10
5.49
20
-4.43
11
5.43
21
-4.43
0
LINE
8
BLACK
6
CONTINUOUS
10
5.43
20
-4.43
11
5.43
21
-4.37
0
LINE
8
BLACK
6
CONTINUOUS
10
5.43
20
-4.37
11
5.49
21
-4.37
0
LINE
8
BLACK
6
CONTINUOUS
10
5.49
20
-4.37
11
5.49
21
-4.43
0
LINE
8
BLACK
6
CONTINUOUS
10
5.59
20
-4.43
11
5.53
21
-4.43
0
LINE
8
BLACK
6
CONTINUOUS
10
5.53
20
-4.43
11
5.53
21
-4.37
0
LINE
8
BLACK
6
CONTINUOUS
10
5.53
20
-4.37
11
5.59
21
-4.37
0
LINE
8
BLACK
6
CONTINUOUS
10
5.59
20
-4.37
11
5.59
21
-4.43
0
LINE
8
BLACK
6
CONTINUOUS
10
5.30107
20
-4.29453
11
5.30427
21
-4.29666
0
LINE
8
BLACK
6
CONTINUOUS
10
5.30427
20
-4.29666
11
5.3064
21
-4.29986
0
LINE
8
BLACK
6
CONTINUOUS
10
5.3064
20
-4.29986
11
5.30715
21
-4.30362
0
LINE
8
BLACK
6
CONTINUOUS
10
5.30715
20
-4.30362
11
5.30715
21
-4.32331
0
LINE
8
BLACK
6
CONTINUOUS
10
5.30715
20
-4.32331
11
5.3064
21
-4.32707
0
LINE
8
BLACK
6
CONTINUOUS
10
5.3064
20
-4.32707
11
5.30427
21
-4.33027
0
LINE
8
BLACK
6
CONTINUOUS
10
5.30427
20
-4.33027
11
5.30107
21
-4.3324
0
LINE
8
BLACK
6
CONTINUOUS
10
5.30107
20
-4.3324
11
5.29731
21
-4.33315
0
LINE
8
BLACK
6
CONTINUOUS
10
5.29731
20
-4.33315
11
5.25991
21
-4.33315
0
LINE
8
BLACK
6
CONTINUOUS
10
5.25991
20
-4.33315
11
5.25614
21
-4.3324
0
LINE
8
BLACK
6
CONTINUOUS
10
5.25614
20
-4.3324
11
5.25295
21
-4.33027
0
LINE
8
BLACK
6
CONTINUOUS
10
5.25295
20
-4.33027
11
5.25081
21
-4.32707
0
LINE
8
BLACK
6
CONTINUOUS
10
5.25081
20
-4.32707
11
5.25006
21
-4.32331
0
LINE
8
BLACK
6
CONTINUOUS
10
5.25006
20
-4.32331
11
5.25006
21
-4.30362
0
LINE
8
BLACK
6
CONTINUOUS
10
5.25006
20
-4.30362
11
5.25081
21
-4.29986
0
LINE
8
BLACK
6
CONTINUOUS
10
5.25081
20
-4.29986
11
5.25295
21
-4.29666
0
LINE
8
BLACK
6
CONTINUOUS
10
5.25295
20
-4.29666
11
5.25614
21
-4.29453
0
LINE
8
BLACK
6
CONTINUOUS
10
5.25614
20
-4.29453
11
5.25991
21
-4.29378
0
LINE
8
BLACK
6
CONTINUOUS
10
5.25991
20
-4.29378
11
5.29731
21
-4.29378
0
LINE
8
BLACK
6
CONTINUOUS
10
5.29731
20
-4.29378
11
5.30107
21
-4.29453
0
LINE
8
BLACK
6
CONTINUOUS
10
5.39107
20
-4.29453
11
5.39427
21
-4.29666
0
LINE
8
BLACK
6
CONTINUOUS
10
5.39427
20
-4.29666
11
5.3964
21
-4.29986
0
LINE
8
BLACK
6
CONTINUOUS
10
5.3964
20
-4.29986
11
5.39715
21
-4.30362
0
LINE
8
BLACK
6
CONTINUOUS
10
5.39715
20
-4.30362
11
5.39715
21
-4.32331
0
LINE
8
BLACK
6
CONTINUOUS
10
5.39715
20
-4.32331
11
5.3964
21
-4.32707
0
LINE
8
BLACK
6
CONTINUOUS
10
5.3964
20
-4.32707
11
5.39427
21
-4.33027
0
LINE
8
BLACK
6
CONTINUOUS
10
5.39427
20
-4.33027
11
5.39107
21
-4.3324
0
LINE
8
BLACK
6
CONTINUOUS
10
5.39107
20
-4.3324
11
5.38731
21
-4.33315
0
LINE
8
BLACK
6
CONTINUOUS
10
5.38731
20
-4.33315
11
5.34991
21
-4.33315
0
LINE
8
BLACK
6
CONTINUOUS
10
5.34991
20
-4.33315
11
5.34614
21
-4.3324
0
LINE
8
BLACK
6
CONTINUOUS
10
5.34614
20
-4.3324
11
5.34295
21
-4.33027
0
LINE
8
BLACK
6
CONTINUOUS
10
5.34295
20
-4.33027
11
5.34081
21
-4.32707
0
LINE
8
BLACK
6
CONTINUOUS
10
5.34081
20
-4.32707
11
5.34006
21
-4.32331
0
LINE
8
BLACK
6
CONTINUOUS
10
5.34006
20
-4.32331
11
5.34006
21
-4.30362
0
LINE
8
BLACK
6
CONTINUOUS
10
5.34006
20
-4.30362
11
5.34081
21
-4.29986
0
LINE
8
BLACK
6
CONTINUOUS
10
5.34081
20
-4.29986
11
5.34295
21
-4.29666
0
LINE
8
BLACK
6
CONTINUOUS
10
5.34295
20
-4.29666
11
5.34614
21
-4.29453
0
LINE
8
BLACK
6
CONTINUOUS
10
5.34614
20
-4.29453
11
5.34991
21
-4.29378
0
LINE
8
BLACK
6
CONTINUOUS
10
5.34991
20
-4.29378
11
5.38731
21
-4.29378
0
LINE
8
BLACK
6
CONTINUOUS
10
5.38731
20
-4.29378
11
5.39107
21
-4.29453
0
LINE
8
BLACK
6
CONTINUOUS
10
5.05301
20
-4.31781
11
5.03135
21
-4.31781
0
LINE
8
BLACK
6
CONTINUOUS
10
5.03135
20
-4.31781
11
5.03135
21
-4.28041
0
LINE
8
BLACK
6
CONTINUOUS
10
5.03135
20
-4.28041
11
5.05301
21
-4.28041
0
LINE
8
BLACK
6
CONTINUOUS
10
5.05301
20
-4.28041
11
5.05301
21
-4.31781
0
LINE
8
BLACK
6
CONTINUOUS
10
5.10222
20
-4.31781
11
5.08057
21
-4.31781
0
LINE
8
BLACK
6
CONTINUOUS
10
5.08057
20
-4.31781
11
5.08057
21
-4.28041
0
LINE
8
BLACK
6
CONTINUOUS
10
5.08057
20
-4.28041
11
5.10222
21
-4.28041
0
LINE
8
BLACK
6
CONTINUOUS
10
5.10222
20
-4.28041
11
5.10222
21
-4.31781
0
LINE
8
BLACK
6
CONTINUOUS
10
5.15143
20
-4.31781
11
5.12978
21
-4.31781
0
LINE
8
BLACK
6
CONTINUOUS
10
5.12978
20
-4.31781
11
5.12978
21
-4.28041
0
LINE
8
BLACK
6
CONTINUOUS
10
5.12978
20
-4.28041
11
5.15143
21
-4.28041
0
LINE
8
BLACK
6
CONTINUOUS
10
5.15143
20
-4.28041
11
5.15143
21
-4.31781
0
LINE
8
BLACK
6
CONTINUOUS
10
5.20065
20
-4.31781
11
5.17899
21
-4.31781
0
LINE
8
BLACK
6
CONTINUOUS
10
5.17899
20
-4.31781
11
5.17899
21
-4.28041
0
LINE
8
BLACK
6
CONTINUOUS
10
5.17899
20
-4.28041
11
5.20065
21
-4.28041
0
LINE
8
BLACK
6
CONTINUOUS
10
5.20065
20
-4.28041
11
5.20065
21
-4.31781
0
LINE
8
BLACK
6
CONTINUOUS
10
5.48014
20
-4.2491
11
5.48334
21
-4.25123
0
LINE
8
BLACK
6
CONTINUOUS
10
5.48334
20
-4.25123
11
5.48547
21
-4.25442
0
LINE
8
BLACK
6
CONTINUOUS
10
5.48547
20
-4.25442
11
5.48622
21
-4.25819
0
LINE
8
BLACK
6
CONTINUOUS
10
5.48622
20
-4.25819
11
5.48622
21
-4.28181
0
LINE
8
BLACK
6
CONTINUOUS
10
5.48622
20
-4.28181
11
5.48547
21
-4.28558
0
LINE
8
BLACK
6
CONTINUOUS
10
5.48547
20
-4.28558
11
5.48334
21
-4.28877
0
LINE
8
BLACK
6
CONTINUOUS
10
5.48334
20
-4.28877
11
5.48014
21
-4.2909
0
LINE
8
BLACK
6
CONTINUOUS
10
5.48014
20
-4.2909
11
5.47638
21
-4.29165
0
LINE
8
BLACK
6
CONTINUOUS
10
5.47638
20
-4.29165
11
5.45276
21
-4.29165
0
LINE
8
BLACK
6
CONTINUOUS
10
5.45276
20
-4.29165
11
5.44899
21
-4.2909
0
LINE
8
BLACK
6
CONTINUOUS
10
5.44899
20
-4.2909
11
5.4458
21
-4.28877
0
LINE
8
BLACK
6
CONTINUOUS
10
5.4458
20
-4.28877
11
5.44366
21
-4.28558
0
LINE
8
BLACK
6
CONTINUOUS
10
5.44366
20
-4.28558
11
5.44291
21
-4.28181
0
LINE
8
BLACK
6
CONTINUOUS
10
5.44291
20
-4.28181
11
5.44291
21
-4.25819
0
LINE
8
BLACK
6
CONTINUOUS
10
5.44291
20
-4.25819
11
5.44366
21
-4.25442
0
LINE
8
BLACK
6
CONTINUOUS
10
5.44366
20
-4.25442
11
5.4458
21
-4.25123
0
LINE
8
BLACK
6
CONTINUOUS
10
5.4458
20
-4.25123
11
5.44899
21
-4.2491
0
LINE
8
BLACK
6
CONTINUOUS
10
5.44899
20
-4.2491
11
5.45276
21
-4.24835
0
LINE
8
BLACK
6
CONTINUOUS
10
5.45276
20
-4.24835
11
5.47638
21
-4.24835
0
LINE
8
BLACK
6
CONTINUOUS
10
5.47638
20
-4.24835
11
5.48014
21
-4.2491
0
LINE
8
BLACK
6
CONTINUOUS
10
5.59038
20
-4.2491
11
5.59357
21
-4.25123
0
LINE
8
BLACK
6
CONTINUOUS
10
5.59357
20
-4.25123
11
5.59571
21
-4.25442
0
LINE
8
BLACK
6
CONTINUOUS
10
5.59571
20
-4.25442
11
5.59646
21
-4.25819
0
LINE
8
BLACK
6
CONTINUOUS
10
5.59646
20
-4.25819
11
5.59646
21
-4.28181
0
LINE
8
BLACK
6
CONTINUOUS
10
5.59646
20
-4.28181
11
5.59571
21
-4.28558
0
LINE
8
BLACK
6
CONTINUOUS
10
5.59571
20
-4.28558
11
5.59357
21
-4.28877
0
LINE
8
BLACK
6
CONTINUOUS
10
5.59357
20
-4.28877
11
5.59038
21
-4.2909
0
LINE
8
BLACK
6
CONTINUOUS
10
5.59038
20
-4.2909
11
5.58661
21
-4.29165
0
LINE
8
BLACK
6
CONTINUOUS
10
5.58661
20
-4.29165
11
5.56299
21
-4.29165
0
LINE
8
BLACK
6
CONTINUOUS
10
5.56299
20
-4.29165
11
5.55923
21
-4.2909
0
LINE
8
BLACK
6
CONTINUOUS
10
5.55923
20
-4.2909
11
5.55603
21
-4.28877
0
LINE
8
BLACK
6
CONTINUOUS
10
5.55603
20
-4.28877
11
5.5539
21
-4.28558
0
LINE
8
BLACK
6
CONTINUOUS
10
5.5539
20
-4.28558
11
5.55315
21
-4.28181
0
LINE
8
BLACK
6
CONTINUOUS
10
5.55315
20
-4.28181
11
5.55315
21
-4.25819
0
LINE
8
BLACK
6
CONTINUOUS
10
5.55315
20
-4.25819
11
5.5539
21
-4.25442
0
LINE
8
BLACK
6
CONTINUOUS
10
5.5539
20
-4.25442
11
5.55603
21
-4.25123
0
LINE
8
BLACK
6
CONTINUOUS
10
5.55603
20
-4.25123
11
5.55923
21
-4.2491
0
LINE
8
BLACK
6
CONTINUOUS
10
5.55923
20
-4.2491
11
5.56299
21
-4.24835
0
LINE
8
BLACK
6
CONTINUOUS
10
5.56299
20
-4.24835
11
5.58661
21
-4.24835
0
LINE
8
BLACK
6
CONTINUOUS
10
5.58661
20
-4.24835
11
5.59038
21
-4.2491
0
LINE
8
BLACK
6
CONTINUOUS
10
4.94075
20
-4.21335
11
4.94814
21
-4.2156
0
LINE
8
BLACK
6
CONTINUOUS
10
4.94814
20
-4.2156
11
4.95494
21
-4.21923
0
LINE
8
BLACK
6
CONTINUOUS
10
4.95494
20
-4.21923
11
4.96091
21
-4.22413
0
LINE
8
BLACK
6
CONTINUOUS
10
4.96091
20
-4.22413
11
4.96581
21
-4.2301
0
LINE
8
BLACK
6
CONTINUOUS
10
4.96581
20
-4.2301
11
4.96944
21
-4.2369
0
LINE
8
BLACK
6
CONTINUOUS
10
4.96944
20
-4.2369
11
4.97168
21
-4.24429
0
LINE
8
BLACK
6
CONTINUOUS
10
4.97168
20
-4.24429
11
4.97244
21
-4.25197
0
LINE
8
BLACK
6
CONTINUOUS
10
4.97244
20
-4.25197
11
4.97168
21
-4.25965
0
LINE
8
BLACK
6
CONTINUOUS
10
4.97168
20
-4.25965
11
4.96944
21
-4.26703
0
LINE
8
BLACK
6
CONTINUOUS
10
4.96944
20
-4.26703
11
4.96581
21
-4.27384
0
LINE
8
BLACK
6
CONTINUOUS
10
4.96581
20
-4.27384
11
4.96091
21
-4.27981
0
LINE
8
BLACK
6
CONTINUOUS
10
4.96091
20
-4.27981
11
4.95494
21
-4.2847
0
LINE
8
BLACK
6
CONTINUOUS
10
4.95494
20
-4.2847
11
4.94814
21
-4.28834
0
LINE
8
BLACK
6
CONTINUOUS
10
4.94814
20
-4.28834
11
4.94075
21
-4.29058
0
LINE
8
BLACK
6
CONTINUOUS
10
4.94075
20
-4.29058
11
4.93307
21
-4.29134
0
LINE
8
BLACK
6
CONTINUOUS
10
4.93307
20
-4.29134
11
4.92539
21
-4.29058
0
LINE
8
BLACK
6
CONTINUOUS
10
4.92539
20
-4.29058
11
4.918
21
-4.28834
0
LINE
8
BLACK
6
CONTINUOUS
10
4.918
20
-4.28834
11
4.9112
21
-4.2847
0
LINE
8
BLACK
6
CONTINUOUS
10
4.9112
20
-4.2847
11
4.90523
21
-4.27981
0
LINE
8
BLACK
6
CONTINUOUS
10
4.90523
20
-4.27981
11
4.90034
21
-4.27384
0
LINE
8
BLACK
6
CONTINUOUS
10
4.90034
20
-4.27384
11
4.8967
21
-4.26703
0
LINE
8
BLACK
6
CONTINUOUS
10
4.8967
20
-4.26703
11
4.89446
21
-4.25965
0
LINE
8
BLACK
6
CONTINUOUS
10
4.89446
20
-4.25965
11
4.8937
21
-4.25197
0
LINE
8
BLACK
6
CONTINUOUS
10
4.8937
20
-4.25197
11
4.89446
21
-4.24429
0
LINE
8
BLACK
6
CONTINUOUS
10
4.89446
20
-4.24429
11
4.8967
21
-4.2369
0
LINE
8
BLACK
6
CONTINUOUS
10
4.8967
20
-4.2369
11
4.90034
21
-4.2301
0
LINE
8
BLACK
6
CONTINUOUS
10
4.90034
20
-4.2301
11
4.90523
21
-4.22413
0
LINE
8
BLACK
6
CONTINUOUS
10
4.90523
20
-4.22413
11
4.9112
21
-4.21923
0
LINE
8
BLACK
6
CONTINUOUS
10
4.9112
20
-4.21923
11
4.918
21
-4.2156
0
LINE
8
BLACK
6
CONTINUOUS
10
4.918
20
-4.2156
11
4.92539
21
-4.21335
0
LINE
8
BLACK
6
CONTINUOUS
10
4.92539
20
-4.21335
11
4.93307
21
-4.2126
0
LINE
8
BLACK
6
CONTINUOUS
10
4.93307
20
-4.2126
11
4.94075
21
-4.21335
0
LINE
8
BLACK
6
CONTINUOUS
10
5.30107
20
-4.21973
11
5.30427
21
-4.22186
0
LINE
8
BLACK
6
CONTINUOUS
10
5.30427
20
-4.22186
11
5.3064
21
-4.22505
0
LINE
8
BLACK
6
CONTINUOUS
10
5.3064
20
-4.22505
11
5.30715
21
-4.22882
0
LINE
8
BLACK
6
CONTINUOUS
10
5.30715
20
-4.22882
11
5.30715
21
-4.2485
0
LINE
8
BLACK
6
CONTINUOUS
10
5.30715
20
-4.2485
11
5.3064
21
-4.25227
0
LINE
8
BLACK
6
CONTINUOUS
10
5.3064
20
-4.25227
11
5.30427
21
-4.25546
0
LINE
8
BLACK
6
CONTINUOUS
10
5.30427
20
-4.25546
11
5.30107
21
-4.2576
0
LINE
8
BLACK
6
CONTINUOUS
10
5.30107
20
-4.2576
11
5.29731
21
-4.25835
0
LINE
8
BLACK
6
CONTINUOUS
10
5.29731
20
-4.25835
11
5.25991
21
-4.25835
0
LINE
8
BLACK
6
CONTINUOUS
10
5.25991
20
-4.25835
11
5.25614
21
-4.2576
0
LINE
8
BLACK
6
CONTINUOUS
10
5.25614
20
-4.2576
11
5.25295
21
-4.25546
0
LINE
8
BLACK
6
CONTINUOUS
10
5.25295
20
-4.25546
11
5.25081
21
-4.25227
0
LINE
8
BLACK
6
CONTINUOUS
10
5.25081
20
-4.25227
11
5.25006
21
-4.2485
0
LINE
8
BLACK
6
CONTINUOUS
10
5.25006
20
-4.2485
11
5.25006
21
-4.22882
0
LINE
8
BLACK
6
CONTINUOUS
10
5.25006
20
-4.22882
11
5.25081
21
-4.22505
0
LINE
8
BLACK
6
CONTINUOUS
10
5.25081
20
-4.22505
11
5.25295
21
-4.22186
0
LINE
8
BLACK
6
CONTINUOUS
10
5.25295
20
-4.22186
11
5.25614
21
-4.21973
0
LINE
8
BLACK
6
CONTINUOUS
10
5.25614
20
-4.21973
11
5.25991
21
-4.21898
0
LINE
8
BLACK
6
CONTINUOUS
10
5.25991
20
-4.21898
11
5.29731
21
-4.21898
0
LINE
8
BLACK
6
CONTINUOUS
10
5.29731
20
-4.21898
11
5.30107
21
-4.21973
0
LINE
8
BLACK
6
CONTINUOUS
10
5.39107
20
-4.21973
11
5.39427
21
-4.22186
0
LINE
8
BLACK
6
CONTINUOUS
10
5.39427
20
-4.22186
11
5.3964
21
-4.22505
0
LINE
8
BLACK
6
CONTINUOUS
10
5.3964
20
-4.22505
11
5.39715
21
-4.22882
0
LINE
8
BLACK
6
CONTINUOUS
10
5.39715
20
-4.22882
11
5.39715
21
-4.2485
0
LINE
8
BLACK
6
CONTINUOUS
10
5.39715
20
-4.2485
11
5.3964
21
-4.25227
0
LINE
8
BLACK
6
CONTINUOUS
10
5.3964
20
-4.25227
11
5.39427
21
-4.25546
0
LINE
8
BLACK
6
CONTINUOUS
10
5.39427
20
-4.25546
11
5.39107
21
-4.2576
0
LINE
8
BLACK
6
CONTINUOUS
10
5.39107
20
-4.2576
11
5.38731
21
-4.25835
0
LINE
8
BLACK
6
CONTINUOUS
10
5.38731
20
-4.25835
11
5.34991
21
-4.25835
0
LINE
8
BLACK
6
CONTINUOUS
10
5.34991
20
-4.25835
11
5.34614
21
-4.2576
0
LINE
8
BLACK
6
CONTINUOUS
10
5.34614
20
-4.2576
11
5.34295
21
-4.25546
0
LINE
8
BLACK
6
CONTINUOUS
10
5.34295
20
-4.25546
11
5.34081
21
-4.25227
0
LINE
8
BLACK
6
CONTINUOUS
10
5.34081
20
-4.25227
11
5.34006
21
-4.2485
0
LINE
8
BLACK
6
CONTINUOUS
10
5.34006
20
-4.2485
11
5.34006
21
-4.22882
0
LINE
8
BLACK
6
CONTINUOUS
10
5.34006
20
-4.22882
11
5.34081
21
-4.22505
0
LINE
8
BLACK
6
CONTINUOUS
10
5.34081
20
-4.22505
11
5.34295
21
-4.22186
0
LINE
8
BLACK
6
CONTINUOUS
10
5.34295
20
-4.22186
11
5.34614
21
-4.21973
0
LINE
8
BLACK
6
CONTINUOUS
10
5.34614
20
-4.21973
11
5.34991
21
-4.21898
0
LINE
8
BLACK
6
CONTINUOUS
10
5.34991
20
-4.21898
11
5.38731
21
-4.21898
0
LINE
8
BLACK
6
CONTINUOUS
10
5.38731
20
-4.21898
11
5.39107
21
-4.21973
0
LINE
8
BLACK
6
CONTINUOUS
10
5.05301
20
-4.23317
11
5.03135
21
-4.23317
0
LINE
8
BLACK
6
CONTINUOUS
10
5.03135
20
-4.23317
11
5.03135
21
-4.19576
0
LINE
8
BLACK
6
CONTINUOUS
10
5.03135
20
-4.19576
11
5.05301
21
-4.19576
0
LINE
8
BLACK
6
CONTINUOUS
10
5.05301
20
-4.19576
11
5.05301
21
-4.23317
0
LINE
8
BLACK
6
CONTINUOUS
10
5.10222
20
-4.23317
11
5.08057
21
-4.23317
0
LINE
8
BLACK
6
CONTINUOUS
10
5.08057
20
-4.23317
11
5.08057
21
-4.19576
0
LINE
8
BLACK
6
CONTINUOUS
10
5.08057
20
-4.19576
11
5.10222
21
-4.19576
0
LINE
8
BLACK
6
CONTINUOUS
10
5.10222
20
-4.19576
11
5.10222
21
-4.23317
0
LINE
8
BLACK
6
CONTINUOUS
10
5.15143
20
-4.23317
11
5.12978
21
-4.23317
0
LINE
8
BLACK
6
CONTINUOUS
10
5.12978
20
-4.23317
11
5.12978
21
-4.19576
0
LINE
8
BLACK
6
CONTINUOUS
10
5.12978
20
-4.19576
11
5.15143
21
-4.19576
0
LINE
8
BLACK
6
CONTINUOUS
10
5.15143
20
-4.19576
11
5.15143
21
-4.23317
0
LINE
8
BLACK
6
CONTINUOUS
10
5.20065
20
-4.23317
11
5.17899
21
-4.23317
0
LINE
8
BLACK
6
CONTINUOUS
10
5.17899
20
-4.23317
11
5.17899
21
-4.19576
0
LINE
8
BLACK
6
CONTINUOUS
10
5.17899
20
-4.19576
11
5.20065
21
-4.19576
0
LINE
8
BLACK
6
CONTINUOUS
10
5.20065
20
-4.19576
11
5.20065
21
-4.23317
0
LINE
8
BLACK
6
CONTINUOUS
10
5.58248
20
-4.12674
11
5.58987
21
-4.12898
0
LINE
8
BLACK
6
CONTINUOUS
10
5.58987
20
-4.12898
11
5.59668
21
-4.13262
0
LINE
8
BLACK
6
CONTINUOUS
10
5.59668
20
-4.13262
11
5.60264
21
-4.13752
0
LINE
8
BLACK
6
CONTINUOUS
10
5.60264
20
-4.13752
11
5.60754
21
-4.14348
0
LINE
8
BLACK
6
CONTINUOUS
10
5.60754
20
-4.14348
11
5.61118
21
-4.15029
0
LINE
8
BLACK
6
CONTINUOUS
10
5.61118
20
-4.15029
11
5.61342
21
-4.15767
0
LINE
8
BLACK
6
CONTINUOUS
10
5.61342
20
-4.15767
11
5.61417
21
-4.16535
0
LINE
8
BLACK
6
CONTINUOUS
10
5.61417
20
-4.16535
11
5.61342
21
-4.17304
0
LINE
8
BLACK
6
CONTINUOUS
10
5.61342
20
-4.17304
11
5.61118
21
-4.18042
0
LINE
8
BLACK
6
CONTINUOUS
10
5.61118
20
-4.18042
11
5.60754
21
-4.18723
0
LINE
8
BLACK
6
CONTINUOUS
10
5.60754
20
-4.18723
11
5.60264
21
-4.19319
0
LINE
8
BLACK
6
CONTINUOUS
10
5.60264
20
-4.19319
11
5.59668
21
-4.19809
0
LINE
8
BLACK
6
CONTINUOUS
10
5.59668
20
-4.19809
11
5.58987
21
-4.20173
0
LINE
8
BLACK
6
CONTINUOUS
10
5.58987
20
-4.20173
11
5.58248
21
-4.20397
0
LINE
8
BLACK
6
CONTINUOUS
10
5.58248
20
-4.20397
11
5.5748
21
-4.20472
0
LINE
8
BLACK
6
CONTINUOUS
10
5.5748
20
-4.20472
11
5.56712
21
-4.20397
0
LINE
8
BLACK
6
CONTINUOUS
10
5.56712
20
-4.20397
11
5.55974
21
-4.20173
0
LINE
8
BLACK
6
CONTINUOUS
10
5.55974
20
-4.20173
11
5.55293
21
-4.19809
0
LINE
8
BLACK
6
CONTINUOUS
10
5.55293
20
-4.19809
11
5.54696
21
-4.19319
0
LINE
8
BLACK
6
CONTINUOUS
10
5.54696
20
-4.19319
11
5.54207
21
-4.18723
0
LINE
8
BLACK
6
CONTINUOUS
10
5.54207
20
-4.18723
11
5.53843
21
-4.18042
0
LINE
8
BLACK
6
CONTINUOUS
10
5.53843
20
-4.18042
11
5.53619
21
-4.17304
0
LINE
8
BLACK
6
CONTINUOUS
10
5.53619
20
-4.17304
11
5.53543
21
-4.16535
0
LINE
8
BLACK
6
CONTINUOUS
10
5.53543
20
-4.16535
11
5.53619
21
-4.15767
0
LINE
8
BLACK
6
CONTINUOUS
10
5.53619
20
-4.15767
11
5.53843
21
-4.15029
0
LINE
8
BLACK
6
CONTINUOUS
10
5.53843
20
-4.15029
11
5.54207
21
-4.14348
0
LINE
8
BLACK
6
CONTINUOUS
10
5.54207
20
-4.14348
11
5.54696
21
-4.13752
0
LINE
8
BLACK
6
CONTINUOUS
10
5.54696
20
-4.13752
11
5.55293
21
-4.13262
0
LINE
8
BLACK
6
CONTINUOUS
10
5.55293
20
-4.13262
11
5.55974
21
-4.12898
0
LINE
8
BLACK
6
CONTINUOUS
10
5.55974
20
-4.12898
11
5.56712
21
-4.12674
0
LINE
8
BLACK
6
CONTINUOUS
10
5.56712
20
-4.12674
11
5.5748
21
-4.12598
0
LINE
8
BLACK
6
CONTINUOUS
10
5.5748
20
-4.12598
11
5.58248
21
-4.12674
0
LINE
8
BLACK
6
CONTINUOUS
10
5.2769
20
-4.07949
11
5.28009
21
-4.08162
0
LINE
8
BLACK
6
CONTINUOUS
10
5.28009
20
-4.08162
11
5.28222
21
-4.08482
0
LINE
8
BLACK
6
CONTINUOUS
10
5.28222
20
-4.08482
11
5.28297
21
-4.08858
0
LINE
8
BLACK
6
CONTINUOUS
10
5.28297
20
-4.08858
11
5.28297
21
-4.12402
0
LINE
8
BLACK
6
CONTINUOUS
10
5.28297
20
-4.12402
11
5.28222
21
-4.12778
0
LINE
8
BLACK
6
CONTINUOUS
10
5.28222
20
-4.12778
11
5.28009
21
-4.13098
0
LINE
8
BLACK
6
CONTINUOUS
10
5.28009
20
-4.13098
11
5.2769
21
-4.13311
0
LINE
8
BLACK
6
CONTINUOUS
10
5.2769
20
-4.13311
11
5.27313
21
-4.13386
0
LINE
8
BLACK
6
CONTINUOUS
10
5.27313
20
-4.13386
11
5.25246
21
-4.13386
0
LINE
8
BLACK
6
CONTINUOUS
10
5.25246
20
-4.13386
11
5.24869
21
-4.13311
0
LINE
8
BLACK
6
CONTINUOUS
10
5.24869
20
-4.13311
11
5.2455
21
-4.13098
0
LINE
8
BLACK
6
CONTINUOUS
10
5.2455
20
-4.13098
11
5.24337
21
-4.12778
0
LINE
8
BLACK
6
CONTINUOUS
10
5.24337
20
-4.12778
11
5.24262
21
-4.12402
0
LINE
8
BLACK
6
CONTINUOUS
10
5.24262
20
-4.12402
11
5.24262
21
-4.08858
0
LINE
8
BLACK
6
CONTINUOUS
10
5.24262
20
-4.08858
11
5.24337
21
-4.08482
0
LINE
8
BLACK
6
CONTINUOUS
10
5.24337
20
-4.08482
11
5.2455
21
-4.08162
0
LINE
8
BLACK
6
CONTINUOUS
10
5.2455
20
-4.08162
11
5.24869
21
-4.07949
0
LINE
8
BLACK
6
CONTINUOUS
10
5.24869
20
-4.07949
11
5.25246
21
-4.07874
0
LINE
8
BLACK
6
CONTINUOUS
10
5.25246
20
-4.07874
11
5.27313
21
-4.07874
0
LINE
8
BLACK
6
CONTINUOUS
10
5.27313
20
-4.07874
11
5.2769
21
-4.07949
0
LINE
8
BLACK
6
CONTINUOUS
10
5.34875
20
-4.07949
11
5.35194
21
-4.08162
0
LINE
8
BLACK
6
CONTINUOUS
10
5.35194
20
-4.08162
11
5.35407
21
-4.08482
0
LINE
8
BLACK
6
CONTINUOUS
10
5.35407
20
-4.08482
11
5.35482
21
-4.08858
0
LINE
8
BLACK
6
CONTINUOUS
10
5.35482
20
-4.08858
11
5.35482
21
-4.12402
0
LINE
8
BLACK
6
CONTINUOUS
10
5.35482
20
-4.12402
11
5.35407
21
-4.12778
0
LINE
8
BLACK
6
CONTINUOUS
10
5.35407
20
-4.12778
11
5.35194
21
-4.13098
0
LINE
8
BLACK
6
CONTINUOUS
10
5.35194
20
-4.13098
11
5.34875
21
-4.13311
0
LINE
8
BLACK
6
CONTINUOUS
10
5.34875
20
-4.13311
11
5.34498
21
-4.13386
0
LINE
8
BLACK
6
CONTINUOUS
10
5.34498
20
-4.13386
11
5.32431
21
-4.13386
0
LINE
8
BLACK
6
CONTINUOUS
10
5.32431
20
-4.13386
11
5.32054
21
-4.13311
0
LINE
8
BLACK
6
CONTINUOUS
10
5.32054
20
-4.13311
11
5.31735
21
-4.13098
0
LINE
8
BLACK
6
CONTINUOUS
10
5.31735
20
-4.13098
11
5.31522
21
-4.12778
0
LINE
8
BLACK
6
CONTINUOUS
10
5.31522
20
-4.12778
11
5.31447
21
-4.12402
0
LINE
8
BLACK
6
CONTINUOUS
10
5.31447
20
-4.12402
11
5.31447
21
-4.08858
0
LINE
8
BLACK
6
CONTINUOUS
10
5.31447
20
-4.08858
11
5.31522
21
-4.08482
0
LINE
8
BLACK
6
CONTINUOUS
10
5.31522
20
-4.08482
11
5.31735
21
-4.08162
0
LINE
8
BLACK
6
CONTINUOUS
10
5.31735
20
-4.08162
11
5.32054
21
-4.07949
0
LINE
8
BLACK
6
CONTINUOUS
10
5.32054
20
-4.07949
11
5.32431
21
-4.07874
0
LINE
8
BLACK
6
CONTINUOUS
10
5.32431
20
-4.07874
11
5.34498
21
-4.07874
0
LINE
8
BLACK
6
CONTINUOUS
10
5.34498
20
-4.07874
11
5.34875
21
-4.07949
0
LINE
8
BLACK
6
CONTINUOUS
10
5.41961
20
-4.07949
11
5.42281
21
-4.08162
0
LINE
8
BLACK
6
CONTINUOUS
10
5.42281
20
-4.08162
11
5.42494
21
-4.08482
0
LINE
8
BLACK
6
CONTINUOUS
10
5.42494
20
-4.08482
11
5.42569
21
-4.08858
0
LINE
8
BLACK
6
CONTINUOUS
10
5.42569
20
-4.08858
11
5.42569
21
-4.12402
0
LINE
8
BLACK
6
CONTINUOUS
10
5.42569
20
-4.12402
11
5.42494
21
-4.12778
0
LINE
8
BLACK
6
CONTINUOUS
10
5.42494
20
-4.12778
11
5.42281
21
-4.13098
0
LINE
8
BLACK
6
CONTINUOUS
10
5.42281
20
-4.13098
11
5.41961
21
-4.13311
0
LINE
8
BLACK
6
CONTINUOUS
10
5.41961
20
-4.13311
11
5.41585
21
-4.13386
0
LINE
8
BLACK
6
CONTINUOUS
10
5.41585
20
-4.13386
11
5.39518
21
-4.13386
0
LINE
8
BLACK
6
CONTINUOUS
10
5.39518
20
-4.13386
11
5.39141
21
-4.13311
0
LINE
8
BLACK
6
CONTINUOUS
10
5.39141
20
-4.13311
11
5.38822
21
-4.13098
0
LINE
8
BLACK
6
CONTINUOUS
10
5.38822
20
-4.13098
11
5.38608
21
-4.12778
0
LINE
8
BLACK
6
CONTINUOUS
10
5.38608
20
-4.12778
11
5.38533
21
-4.12402
0
LINE
8
BLACK
6
CONTINUOUS
10
5.38533
20
-4.12402
11
5.38533
21
-4.08858
0
LINE
8
BLACK
6
CONTINUOUS
10
5.38533
20
-4.08858
11
5.38608
21
-4.08482
0
LINE
8
BLACK
6
CONTINUOUS
10
5.38608
20
-4.08482
11
5.38822
21
-4.08162
0
LINE
8
BLACK
6
CONTINUOUS
10
5.38822
20
-4.08162
11
5.39141
21
-4.07949
0
LINE
8
BLACK
6
CONTINUOUS
10
5.39141
20
-4.07949
11
5.39518
21
-4.07874
0
LINE
8
BLACK
6
CONTINUOUS
10
5.39518
20
-4.07874
11
5.41585
21
-4.07874
0
LINE
8
BLACK
6
CONTINUOUS
10
5.41585
20
-4.07874
11
5.41961
21
-4.07949
0
LINE
8
BLACK
6
CONTINUOUS
10
5.49146
20
-4.07949
11
5.49466
21
-4.08162
0
LINE
8
BLACK
6
CONTINUOUS
10
5.49466
20
-4.08162
11
5.49679
21
-4.08482
0
LINE
8
BLACK
6
CONTINUOUS
10
5.49679
20
-4.08482
11
5.49754
21
-4.08858
0
LINE
8
BLACK
6
CONTINUOUS
10
5.49754
20
-4.08858
11
5.49754
21
-4.12402
0
LINE
8
BLACK
6
CONTINUOUS
10
5.49754
20
-4.12402
11
5.49679
21
-4.12778
0
LINE
8
BLACK
6
CONTINUOUS
10
5.49679
20
-4.12778
11
5.49466
21
-4.13098
0
LINE
8
BLACK
6
CONTINUOUS
10
5.49466
20
-4.13098
11
5.49146
21
-4.13311
0
LINE
8
BLACK
6
CONTINUOUS
10
5.49146
20
-4.13311
11
5.4877
21
-4.13386
0
LINE
8
BLACK
6
CONTINUOUS
10
5.4877
20
-4.13386
11
5.46703
21
-4.13386
0
LINE
8
BLACK
6
CONTINUOUS
10
5.46703
20
-4.13386
11
5.46326
21
-4.13311
0
LINE
8
BLACK
6
CONTINUOUS
10
5.46326
20
-4.13311
11
5.46007
21
-4.13098
0
LINE
8
BLACK
6
CONTINUOUS
10
5.46007
20
-4.13098
11
5.45793
21
-4.12778
0
LINE
8
BLACK
6
CONTINUOUS
10
5.45793
20
-4.12778
11
5.45719
21
-4.12402
0
LINE
8
BLACK
6
CONTINUOUS
10
5.45719
20
-4.12402
11
5.45719
21
-4.08858
0
LINE
8
BLACK
6
CONTINUOUS
10
5.45719
20
-4.08858
11
5.45793
21
-4.08482
0
LINE
8
BLACK
6
CONTINUOUS
10
5.45793
20
-4.08482
11
5.46007
21
-4.08162
0
LINE
8
BLACK
6
CONTINUOUS
10
5.46007
20
-4.08162
11
5.46326
21
-4.07949
0
LINE
8
BLACK
6
CONTINUOUS
10
5.46326
20
-4.07949
11
5.46703
21
-4.07874
0
LINE
8
BLACK
6
CONTINUOUS
10
5.46703
20
-4.07874
11
5.4877
21
-4.07874
0
LINE
8
BLACK
6
CONTINUOUS
10
5.4877
20
-4.07874
11
5.49146
21
-4.07949
0
LINE
8
BLACK
6
CONTINUOUS
10
4.62051
20
-3.88368
11
4.63387
21
-3.88685
0
LINE
8
BLACK
6
CONTINUOUS
10
4.63387
20
-3.88685
11
4.64678
21
-3.89155
0
LINE
8
BLACK
6
CONTINUOUS
10
4.64678
20
-3.89155
11
4.65906
21
-3.89771
0
LINE
8
BLACK
6
CONTINUOUS
10
4.65906
20
-3.89771
11
4.67053
21
-3.90526
0
LINE
8
BLACK
6
CONTINUOUS
10
4.67053
20
-3.90526
11
4.68105
21
-3.91409
0
LINE
8
BLACK
6
CONTINUOUS
10
4.68105
20
-3.91409
11
4.69048
21
-3.92408
0
LINE
8
BLACK
6
CONTINUOUS
10
4.69048
20
-3.92408
11
4.69868
21
-3.9351
0
LINE
8
BLACK
6
CONTINUOUS
10
4.69868
20
-3.9351
11
4.70555
21
-3.94699
0
LINE
8
BLACK
6
CONTINUOUS
10
4.70555
20
-3.94699
11
4.71099
21
-3.9596
0
LINE
8
BLACK
6
CONTINUOUS
10
4.71099
20
-3.9596
11
4.71493
21
-3.97276
0
LINE
8
BLACK
6
CONTINUOUS
10
4.71493
20
-3.97276
11
4.71731
21
-3.98629
0
LINE
8
BLACK
6
CONTINUOUS
10
4.71731
20
-3.98629
11
4.71811
21
-4
0
LINE
8
BLACK
6
CONTINUOUS
10
4.71811
20
-4
11
4.71731
21
-4.01371
0
LINE
8
BLACK
6
CONTINUOUS
10
4.71731
20
-4.01371
11
4.71493
21
-4.02724
0
LINE
8
BLACK
6
CONTINUOUS
10
4.71493
20
-4.02724
11
4.71099
21
-4.0404
0
LINE
8
BLACK
6
CONTINUOUS
10
4.71099
20
-4.0404
11
4.70555
21
-4.05301
0
LINE
8
BLACK
6
CONTINUOUS
10
4.70555
20
-4.05301
11
4.69868
21
-4.0649
0
LINE
8
BLACK
6
CONTINUOUS
10
4.69868
20
-4.0649
11
4.69048
21
-4.07592
0
LINE
8
BLACK
6
CONTINUOUS
10
4.69048
20
-4.07592
11
4.68105
21
-4.08591
0
LINE
8
BLACK
6
CONTINUOUS
10
4.68105
20
-4.08591
11
4.67053
21
-4.09474
0
LINE
8
BLACK
6
CONTINUOUS
10
4.67053
20
-4.09474
11
4.65906
21
-4.10229
0
LINE
8
BLACK
6
CONTINUOUS
10
4.65906
20
-4.10229
11
4.64678
21
-4.10845
0
LINE
8
BLACK
6
CONTINUOUS
10
4.64678
20
-4.10845
11
4.63387
21
-4.11315
0
LINE
8
BLACK
6
CONTINUOUS
10
4.63387
20
-4.11315
11
4.62051
21
-4.11632
0
LINE
8
BLACK
6
CONTINUOUS
10
4.62051
20
-4.11632
11
4.60687
21
-4.11791
0
LINE
8
BLACK
6
CONTINUOUS
10
4.60687
20
-4.11791
11
4.59313
21
-4.11791
0
LINE
8
BLACK
6
CONTINUOUS
10
4.59313
20
-4.11791
11
4.57949
21
-4.11632
0
LINE
8
BLACK
6
CONTINUOUS
10
4.57949
20
-4.11632
11
4.56613
21
-4.11315
0
LINE
8
BLACK
6
CONTINUOUS
10
4.56613
20
-4.11315
11
4.55322
21
-4.10845
0
LINE
8
BLACK
6
CONTINUOUS
10
4.55322
20
-4.10845
11
4.54094
21
-4.10229
0
LINE
8
BLACK
6
CONTINUOUS
10
4.54094
20
-4.10229
11
4.52947
21
-4.09474
0
LINE
8
BLACK
6
CONTINUOUS
10
4.52947
20
-4.09474
11
4.51895
21
-4.08591
0
LINE
8
BLACK
6
CONTINUOUS
10
4.51895
20
-4.08591
11
4.50952
21
-4.07592
0
LINE
8
BLACK
6
CONTINUOUS
10
4.50952
20
-4.07592
11
4.50132
21
-4.0649
0
LINE
8
BLACK
6
CONTINUOUS
10
4.50132
20
-4.0649
11
4.49445
21
-4.05301
0
LINE
8
BLACK
6
CONTINUOUS
10
4.49445
20
-4.05301
11
4.48901
21
-4.0404
0
LINE
8
BLACK
6
CONTINUOUS
10
4.48901
20
-4.0404
11
4.48507
21
-4.02724
0
LINE
8
BLACK
6
CONTINUOUS
10
4.48507
20
-4.02724
11
4.48269
21
-4.01371
0
LINE
8
BLACK
6
CONTINUOUS
10
4.48269
20
-4.01371
11
4.48189
21
-4
0
LINE
8
BLACK
6
CONTINUOUS
10
4.48189
20
-4
11
4.48269
21
-3.98629
0
LINE
8
BLACK
6
CONTINUOUS
10
4.48269
20
-3.98629
11
4.48507
21
-3.97276
0
LINE
8
BLACK
6
CONTINUOUS
10
4.48507
20
-3.97276
11
4.48901
21
-3.9596
0
LINE
8
BLACK
6
CONTINUOUS
10
4.48901
20
-3.9596
11
4.49445
21
-3.94699
0
LINE
8
BLACK
6
CONTINUOUS
10
4.49445
20
-3.94699
11
4.50132
21
-3.9351
0
LINE
8
BLACK
6
CONTINUOUS
10
4.50132
20
-3.9351
11
4.50952
21
-3.92408
0
LINE
8
BLACK
6
CONTINUOUS
10
4.50952
20
-3.92408
11
4.51895
21
-3.91409
0
LINE
8
BLACK
6
CONTINUOUS
10
4.51895
20
-3.91409
11
4.52947
21
-3.90526
0
LINE
8
BLACK
6
CONTINUOUS
10
4.52947
20
-3.90526
11
4.54094
21
-3.89771
0
LINE
8
BLACK
6
CONTINUOUS
10
4.54094
20
-3.89771
11
4.55322
21
-3.89155
0
LINE
8
BLACK
6
CONTINUOUS
10
4.55322
20
-3.89155
11
4.56613
21
-3.88685
0
LINE
8
BLACK
6
CONTINUOUS
10
4.56613
20
-3.88685
11
4.57949
21
-3.88368
0
LINE
8
BLACK
6
CONTINUOUS
10
4.57949
20
-3.88368
11
4.59313
21
-3.88209
0
LINE
8
BLACK
6
CONTINUOUS
10
4.59313
20
-3.88209
11
4.60687
21
-3.88209
0
LINE
8
BLACK
6
CONTINUOUS
10
4.60687
20
-3.88209
11
4.62051
21
-3.88368
0
LINE
8
BLACK
6
CONTINUOUS
10
5.82051
20
-3.88368
11
5.83387
21
-3.88685
0
LINE
8
BLACK
6
CONTINUOUS
10
5.83387
20
-3.88685
11
5.84678
21
-3.89155
0
LINE
8
BLACK
6
CONTINUOUS
10
5.84678
20
-3.89155
11
5.85906
21
-3.89771
0
LINE
8
BLACK
6
CONTINUOUS
10
5.85906
20
-3.89771
11
5.87053
21
-3.90526
0
LINE
8
BLACK
6
CONTINUOUS
10
5.87053
20
-3.90526
11
5.88105
21
-3.91409
0
LINE
8
BLACK
6
CONTINUOUS
10
5.88105
20
-3.91409
11
5.89048
21
-3.92408
0
LINE
8
BLACK
6
CONTINUOUS
10
5.89048
20
-3.92408
11
5.89868
21
-3.9351
0
LINE
8
BLACK
6
CONTINUOUS
10
5.89868
20
-3.9351
11
5.90555
21
-3.94699
0
LINE
8
BLACK
6
CONTINUOUS
10
5.90555
20
-3.94699
11
5.91099
21
-3.9596
0
LINE
8
BLACK
6
CONTINUOUS
10
5.91099
20
-3.9596
11
5.91493
21
-3.97276
0
LINE
8
BLACK
6
CONTINUOUS
10
5.91493
20
-3.97276
11
5.91731
21
-3.98629
0
LINE
8
BLACK
6
CONTINUOUS
10
5.91731
20
-3.98629
11
5.91811
21
-4
0
LINE
8
BLACK
6
CONTINUOUS
10
5.91811
20
-4
11
5.91731
21
-4.01371
0
LINE
8
BLACK
6
CONTINUOUS
10
5.91731
20
-4.01371
11
5.91493
21
-4.02724
0
LINE
8
BLACK
6
CONTINUOUS
10
5.91493
20
-4.02724
11
5.91099
21
-4.0404
0
LINE
8
BLACK
6
CONTINUOUS
10
5.91099
20
-4.0404
11
5.90555
21
-4.05301
0
LINE
8
BLACK
6
CONTINUOUS
10
5.90555
20
-4.05301
11
5.89868
21
-4.0649
0
LINE
8
BLACK
6
CONTINUOUS
10
5.89868
20
-4.0649
11
5.89048
21
-4.07592
0
LINE
8
BLACK
6
CONTINUOUS
10
5.89048
20
-4.07592
11
5.88105
21
-4.08591
0
LINE
8
BLACK
6
CONTINUOUS
10
5.88105
20
-4.08591
11
5.87053
21
-4.09474
0
LINE
8
BLACK
6
CONTINUOUS
10
5.87053
20
-4.09474
11
5.85906
21
-4.10229
0
LINE
8
BLACK
6
CONTINUOUS
10
5.85906
20
-4.10229
11
5.84678
21
-4.10845
0
LINE
8
BLACK
6
CONTINUOUS
10
5.84678
20
-4.10845
11
5.83387
21
-4.11315
0
LINE
8
BLACK
6
CONTINUOUS
10
5.83387
20
-4.11315
11
5.82051
21
-4.11632
0
LINE
8
BLACK
6
CONTINUOUS
10
5.82051
20
-4.11632
11
5.80687
21
-4.11791
0
LINE
8
BLACK
6
CONTINUOUS
10
5.80687
20
-4.11791
11
5.79313
21
-4.11791
0
LINE
8
BLACK
6
CONTINUOUS
10
5.79313
20
-4.11791
11
5.77949
21
-4.11632
0
LINE
8
BLACK
6
CONTINUOUS
10
5.77949
20
-4.11632
11
5.76613
21
-4.11315
0
LINE
8
BLACK
6
CONTINUOUS
10
5.76613
20
-4.11315
11
5.75322
21
-4.10845
0
LINE
8
BLACK
6
CONTINUOUS
10
5.75322
20
-4.10845
11
5.74094
21
-4.10229
0
LINE
8
BLACK
6
CONTINUOUS
10
5.74094
20
-4.10229
11
5.72947
21
-4.09474
0
LINE
8
BLACK
6
CONTINUOUS
10
5.72947
20
-4.09474
11
5.71895
21
-4.08591
0
LINE
8
BLACK
6
CONTINUOUS
10
5.71895
20
-4.08591
11
5.70952
21
-4.07592
0
LINE
8
BLACK
6
CONTINUOUS
10
5.70952
20
-4.07592
11
5.70132
21
-4.0649
0
LINE
8
BLACK
6
CONTINUOUS
10
5.70132
20
-4.0649
11
5.69445
21
-4.05301
0
LINE
8
BLACK
6
CONTINUOUS
10
5.69445
20
-4.05301
11
5.68901
21
-4.0404
0
LINE
8
BLACK
6
CONTINUOUS
10
5.68901
20
-4.0404
11
5.68507
21
-4.02724
0
LINE
8
BLACK
6
CONTINUOUS
10
5.68507
20
-4.02724
11
5.68269
21
-4.01371
0
LINE
8
BLACK
6
CONTINUOUS
10
5.68269
20
-4.01371
11
5.68189
21
-4
0
LINE
8
BLACK
6
CONTINUOUS
10
5.68189
20
-4
11
5.68269
21
-3.98629
0
LINE
8
BLACK
6
CONTINUOUS
10
5.68269
20
-3.98629
11
5.68507
21
-3.97276
0
LINE
8
BLACK
6
CONTINUOUS
10
5.68507
20
-3.97276
11
5.68901
21
-3.9596
0
LINE
8
BLACK
6
CONTINUOUS
10
5.68901
20
-3.9596
11
5.69445
21
-3.94699
0
LINE
8
BLACK
6
CONTINUOUS
10
5.69445
20
-3.94699
11
5.70132
21
-3.9351
0
LINE
8
BLACK
6
CONTINUOUS
10
5.70132
20
-3.9351
11
5.70952
21
-3.92408
0
LINE
8
BLACK
6
CONTINUOUS
10
5.70952
20
-3.92408
11
5.71895
21
-3.91409
0
LINE
8
BLACK
6
CONTINUOUS
10
5.71895
20
-3.91409
11
5.72947
21
-3.90526
0
LINE
8
BLACK
6
CONTINUOUS
10
5.72947
20
-3.90526
11
5.74094
21
-3.89771
0
LINE
8
BLACK
6
CONTINUOUS
10
5.74094
20
-3.89771
11
5.75322
21
-3.89155
0
LINE
8
BLACK
6
CONTINUOUS
10
5.75322
20
-3.89155
11
5.76613
21
-3.88685
0
LINE
8
BLACK
6
CONTINUOUS
10
5.76613
20
-3.88685
11
5.77949
21
-3.88368
0
LINE
8
BLACK
6
CONTINUOUS
10
5.77949
20
-3.88368
11
5.79313
21
-3.88209
0
LINE
8
BLACK
6
CONTINUOUS
10
5.79313
20
-3.88209
11
5.80687
21
-3.88209
0
LINE
8
BLACK
6
CONTINUOUS
10
5.80687
20
-3.88209
11
5.82051
21
-3.88368
0
LINE
8
BLACK
6
CONTINUOUS
10
4.91
20
-4.04
11
4.85
21
-4.04
0
LINE
8
BLACK
6
CONTINUOUS
10
4.85
20
-4.04
11
4.85
21
-3.98
0
LINE
8
BLACK
6
CONTINUOUS
10
4.85
20
-3.98
11
4.91
21
-3.98
0
LINE
8
BLACK
6
CONTINUOUS
10
4.91
20
-3.98
11
4.91
21
-4.04
0
LINE
8
BLACK
6
CONTINUOUS
10
5.01
20
-4.04
11
4.95
21
-4.04
0
LINE
8
BLACK
6
CONTINUOUS
10
4.95
20
-4.04
11
4.95
21
-3.98
0
LINE
8
BLACK
6
CONTINUOUS
10
4.95
20
-3.98
11
5.01
21
-3.98
0
LINE
8
BLACK
6
CONTINUOUS
10
5.01
20
-3.98
11
5.01
21
-4.04
0
LINE
8
BLACK
6
CONTINUOUS
10
5.2
20
-4.04
11
5.14
21
-4.04
0
LINE
8
BLACK
6
CONTINUOUS
10
5.14
20
-4.04
11
5.14
21
-3.98
0
LINE
8
BLACK
6
CONTINUOUS
10
5.14
20
-3.98
11
5.2
21
-3.98
0
LINE
8
BLACK
6
CONTINUOUS
10
5.2
20
-3.98
11
5.2
21
-4.04
0
LINE
8
BLACK
6
CONTINUOUS
10
5.3
20
-4.04
11
5.24
21
-4.04
0
LINE
8
BLACK
6
CONTINUOUS
10
5.24
20
-4.04
11
5.24
21
-3.98
0
LINE
8
BLACK
6
CONTINUOUS
10
5.24
20
-3.98
11
5.3
21
-3.98
0
LINE
8
BLACK
6
CONTINUOUS
10
5.3
20
-3.98
11
5.3
21
-4.04
0
LINE
8
BLACK
6
CONTINUOUS
10
5.4
20
-4.04
11
5.34
21
-4.04
0
LINE
8
BLACK
6
CONTINUOUS
10
5.34
20
-4.04
11
5.34
21
-3.98
0
LINE
8
BLACK
6
CONTINUOUS
10
5.34
20
-3.98
11
5.4
21
-3.98
0
LINE
8
BLACK
6
CONTINUOUS
10
5.4
20
-3.98
11
5.4
21
-4.04
0
LINE
8
BLACK
6
CONTINUOUS
10
5.5
20
-4.04
11
5.44
21
-4.04
0
LINE
8
BLACK
6
CONTINUOUS
10
5.44
20
-4.04
11
5.44
21
-3.98
0
LINE
8
BLACK
6
CONTINUOUS
10
5.44
20
-3.98
11
5.5
21
-3.98
0
LINE
8
BLACK
6
CONTINUOUS
10
5.5
20
-3.98
11
5.5
21
-4.04
0
LINE
8
BLACK
6
CONTINUOUS
10
5.6
20
-4.04
11
5.54
21
-4.04
0
LINE
8
BLACK
6
CONTINUOUS
10
5.54
20
-4.04
11
5.54
21
-3.98
0
LINE
8
BLACK
6
CONTINUOUS
10
5.54
20
-3.98
11
5.6
21
-3.98
0
LINE
8
BLACK
6
CONTINUOUS
10
5.6
20
-3.98
11
5.6
21
-4.04
0
LINE
8
BLACK
6
CONTINUOUS
10
4.91
20
-3.94
11
4.85
21
-3.94
0
LINE
8
BLACK
6
CONTINUOUS
10
4.85
20
-3.94
11
4.85
21
-3.88
0
LINE
8
BLACK
6
CONTINUOUS
10
4.85
20
-3.88
11
4.91
21
-3.88
0
LINE
8
BLACK
6
CONTINUOUS
10
4.91
20
-3.88
11
4.91
21
-3.94
0
LINE
8
BLACK
6
CONTINUOUS
10
5.01
20
-3.94
11
4.95
21
-3.94
0
LINE
8
BLACK
6
CONTINUOUS
10
4.95
20
-3.94
11
4.95
21
-3.88
0
LINE
8
BLACK
6
CONTINUOUS
10
4.95
20
-3.88
11
5.01
21
-3.88
0
LINE
8
BLACK
6
CONTINUOUS
10
5.01
20
-3.88
11
5.01
21
-3.94
0
LINE
8
BLACK
6
CONTINUOUS
10
5.2
20
-3.94
11
5.14
21
-3.94
0
LINE
8
BLACK
6
CONTINUOUS
10
5.14
20
-3.94
11
5.14
21
-3.88
0
LINE
8
BLACK
6
CONTINUOUS
10
5.14
20
-3.88
11
5.2
21
-3.88
0
LINE
8
BLACK
6
CONTINUOUS
10
5.2
20
-3.88
11
5.2
21
-3.94
0
LINE
8
BLACK
6
CONTINUOUS
10
5.3
20
-3.94
11
5.24
21
-3.94
0
LINE
8
BLACK
6
CONTINUOUS
10
5.24
20
-3.94
11
5.24
21
-3.88
0
LINE
8
BLACK
6
CONTINUOUS
10
5.24
20
-3.88
11
5.3
21
-3.88
0
LINE
8
BLACK
6
CONTINUOUS
10
5.3
20
-3.88
11
5.3
21
-3.94
0
LINE
8
BLACK
6
CONTINUOUS
10
5.4
20
-3.94
11
5.34
21
-3.94
0
LINE
8
BLACK
6
CONTINUOUS
10
5.34
20
-3.94
11
5.34
21
-3.88
0
LINE
8
BLACK
6
CONTINUOUS
10
5.34
20
-3.88
11
5.4
21
-3.88
0
LINE
8
BLACK
6
CONTINUOUS
10
5.4
20
-3.88
11
5.4
21
-3.94
0
LINE
8
BLACK
6
CONTINUOUS
10
5.5
20
-3.94
11
5.44
21
-3.94
0
LINE
8
BLACK
6
CONTINUOUS
10
5.44
20
-3.94
11
5.44
21
-3.88
0
LINE
8
BLACK
6
CONTINUOUS
10
5.44
20
-3.88
11
5.5
21
-3.88
0
LINE
8
BLACK
6
CONTINUOUS
10
5.5
20
-3.88
11
5.5
21
-3.94
0
LINE
8
BLACK
6
CONTINUOUS
10
5.6
20
-3.94
11
5.54
21
-3.94
0
LINE
8
BLACK
6
CONTINUOUS
10
5.54
20
-3.94
11
5.54
21
-3.88
0
LINE
8
BLACK
6
CONTINUOUS
10
5.54
20
-3.88
11
5.6
21
-3.88
0
LINE
8
BLACK
6
CONTINUOUS
10
5.6
20
-3.88
11
5.6
21
-3.94
  0
ENDSEC
  0
EOF
