  0
SECTION
  2
HEADER
  9
$ANGBASE
  50
0.0
  9
$ANGDIR
  70
1
  9
$MEASUREMENT
  70
0
  0
ENDSEC
  0
SECTION
  2
TABLES
  0
TABLE
  2
LTYPE
  70
4
  0
LTYPE
  5
40F
  2
CONTINUOUS
  70
0
  3
Solid line
  72
65
  73
0
  40
0.0
  0
LTYPE
  5
410
  2
DASHDOT
 70
0
  3
Dash Dot ____ _ ____ _
 72
65
 73
4
 40
2.0
 49
1.25
 49
-0.25
 49
0.25
 49
-0.25
  0
LTYPE
  5
411
  2
DASHED
 70
0
  3
Dashed __ __ __ __ __
 72
65
 73
2
 40
0.75
 49
0.5
 49
-0.25
  0
LTYPE
  5
43B
  2
DOTTED
 70
0
  3
Dotted .  .  .  .
 72
65
 73
2
 40
0.2
 49
0.0
 49
-0.2
  0
ENDTAB
  0
TABLE
  2
STYLE
  70
4
  0
STYLE
  2
KICAD
  70
0
  40
0
  41
1
  42
1
  50
0
  71
0
  3
isocp.shx
  0
STYLE
  2
KICADB
  70
0
  40
0
  41
1
  42
1
  50
0
  71
0
  3
isocp.shx
  0
STYLE
  2
KICADI
  70
0
  40
0
  41
1
  42
1
  50
15
  71
0
  3
isocp.shx
  0
STYLE
  2
KICADBI
  70
0
  40
0
  41
1
  42
1
  50
15
  71
0
  3
isocp.shx
  0
ENDTAB
  0
TABLE
  2
LAYER
  70
1
  0
LAYER
  2
BLACK
  70
0
  62
7
  6
CONTINUOUS
  0
ENDTAB
  0
ENDSEC
  0
SECTION
  2
ENTITIES
0
LINE
8
BLACK
6
CONTINUOUS
10
4.93
20
-4.52
11
4.87
21
-4.52
0
LINE
8
BLACK
6
CONTINUOUS
10
4.87
20
-4.52
11
4.87
21
-4.46
0
LINE
8
BLACK
6
CONTINUOUS
10
4.87
20
-4.46
11
4.93
21
-4.46
0
LINE
8
BLACK
6
CONTINUOUS
10
4.93
20
-4.46
11
4.93
21
-4.52
0
LINE
8
BLACK
6
CONTINUOUS
10
5.03
20
-4.52
11
4.97
21
-4.52
0
LINE
8
BLACK
6
CONTINUOUS
10
4.97
20
-4.52
11
4.97
21
-4.46
0
LINE
8
BLACK
6
CONTINUOUS
10
4.97
20
-4.46
11
5.03
21
-4.46
0
LINE
8
BLACK
6
CONTINUOUS
10
5.03
20
-4.46
11
5.03
21
-4.52
0
LINE
8
BLACK
6
CONTINUOUS
10
5.13
20
-4.52
11
5.07
21
-4.52
0
LINE
8
BLACK
6
CONTINUOUS
10
5.07
20
-4.52
11
5.07
21
-4.46
0
LINE
8
BLACK
6
CONTINUOUS
10
5.07
20
-4.46
11
5.13
21
-4.46
0
LINE
8
BLACK
6
CONTINUOUS
10
5.13
20
-4.46
11
5.13
21
-4.52
0
LINE
8
BLACK
6
CONTINUOUS
10
5.58118
20
-4.46067
11
5.58409
21
-4.46069
0
LINE
8
BLACK
6
CONTINUOUS
10
5.58409
20
-4.46069
11
5.58944
21
-4.46229
0
LINE
8
BLACK
6
CONTINUOUS
10
5.58944
20
-4.46229
11
5.59412
21
-4.46532
0
LINE
8
BLACK
6
CONTINUOUS
10
5.59412
20
-4.46532
11
5.59776
21
-4.46955
0
LINE
8
BLACK
6
CONTINUOUS
10
5.59776
20
-4.46955
11
5.60007
21
-4.47463
0
LINE
8
BLACK
6
CONTINUOUS
10
5.60007
20
-4.47463
11
5.60087
21
-4.48016
0
LINE
8
BLACK
6
CONTINUOUS
10
5.60087
20
-4.48016
11
5.60087
21
-4.49984
0
LINE
8
BLACK
6
CONTINUOUS
10
5.60087
20
-4.49984
11
5.60086
21
-4.50032
0
LINE
8
BLACK
6
CONTINUOUS
10
5.60086
20
-4.50032
11
5.59993
21
-4.50583
0
LINE
8
BLACK
6
CONTINUOUS
10
5.59993
20
-4.50583
11
5.5975
21
-4.51085
0
LINE
8
BLACK
6
CONTINUOUS
10
5.5975
20
-4.51085
11
5.59376
21
-4.51499
0
LINE
8
BLACK
6
CONTINUOUS
10
5.59376
20
-4.51499
11
5.589
21
-4.51791
0
LINE
8
BLACK
6
CONTINUOUS
10
5.589
20
-4.51791
11
5.58361
21
-4.51938
0
LINE
8
BLACK
6
CONTINUOUS
10
5.58361
20
-4.51938
11
5.58118
21
-4.51933
0
LINE
8
BLACK
6
CONTINUOUS
10
5.58118
20
-4.51933
11
5.58118
21
-4.51953
0
LINE
8
BLACK
6
CONTINUOUS
10
5.58118
20
-4.51953
11
5.55953
21
-4.51953
0
LINE
8
BLACK
6
CONTINUOUS
10
5.55953
20
-4.51953
11
5.55953
21
-4.46047
0
LINE
8
BLACK
6
CONTINUOUS
10
5.55953
20
-4.46047
11
5.58118
21
-4.46047
0
LINE
8
BLACK
6
CONTINUOUS
10
5.58118
20
-4.46047
11
5.58118
21
-4.46067
0
LINE
8
BLACK
6
CONTINUOUS
10
5.54969
20
-4.51953
11
5.51031
21
-4.51953
0
LINE
8
BLACK
6
CONTINUOUS
10
5.51031
20
-4.51953
11
5.51031
21
-4.46047
0
LINE
8
BLACK
6
CONTINUOUS
10
5.51031
20
-4.46047
11
5.54969
21
-4.46047
0
LINE
8
BLACK
6
CONTINUOUS
10
5.54969
20
-4.46047
11
5.54969
21
-4.51953
0
LINE
8
BLACK
6
CONTINUOUS
10
5.50047
20
-4.51953
11
5.47882
21
-4.51953
0
LINE
8
BLACK
6
CONTINUOUS
10
5.47882
20
-4.51953
11
5.47882
21
-4.51933
0
LINE
8
BLACK
6
CONTINUOUS
10
5.47882
20
-4.51933
11
5.47567
21
-4.51927
0
LINE
8
BLACK
6
CONTINUOUS
10
5.47567
20
-4.51927
11
5.47034
21
-4.51761
0
LINE
8
BLACK
6
CONTINUOUS
10
5.47034
20
-4.51761
11
5.4657
21
-4.51452
0
LINE
8
BLACK
6
CONTINUOUS
10
5.4657
20
-4.51452
11
5.46211
21
-4.51024
0
LINE
8
BLACK
6
CONTINUOUS
10
5.46211
20
-4.51024
11
5.45986
21
-4.50514
0
LINE
8
BLACK
6
CONTINUOUS
10
5.45986
20
-4.50514
11
5.45917
21
-4.49984
0
LINE
8
BLACK
6
CONTINUOUS
10
5.45917
20
-4.49984
11
5.45913
21
-4.49984
0
LINE
8
BLACK
6
CONTINUOUS
10
5.45913
20
-4.49984
11
5.45913
21
-4.48016
0
LINE
8
BLACK
6
CONTINUOUS
10
5.45913
20
-4.48016
11
5.45917
21
-4.48016
0
LINE
8
BLACK
6
CONTINUOUS
10
5.45917
20
-4.48016
11
5.45914
21
-4.47992
0
LINE
8
BLACK
6
CONTINUOUS
10
5.45914
20
-4.47992
11
5.45999
21
-4.4744
0
LINE
8
BLACK
6
CONTINUOUS
10
5.45999
20
-4.4744
11
5.46237
21
-4.46935
0
LINE
8
BLACK
6
CONTINUOUS
10
5.46237
20
-4.46935
11
5.46606
21
-4.46517
0
LINE
8
BLACK
6
CONTINUOUS
10
5.46606
20
-4.46517
11
5.47078
21
-4.46219
0
LINE
8
BLACK
6
CONTINUOUS
10
5.47078
20
-4.46219
11
5.47615
21
-4.46065
0
LINE
8
BLACK
6
CONTINUOUS
10
5.47615
20
-4.46065
11
5.47882
21
-4.46067
0
LINE
8
BLACK
6
CONTINUOUS
10
5.47882
20
-4.46067
11
5.47882
21
-4.46047
0
LINE
8
BLACK
6
CONTINUOUS
10
5.47882
20
-4.46047
11
5.50047
21
-4.46047
0
LINE
8
BLACK
6
CONTINUOUS
10
5.50047
20
-4.46047
11
5.50047
21
-4.51953
0
LINE
8
BLACK
6
CONTINUOUS
10
5.33118
20
-4.46067
11
5.33409
21
-4.46069
0
LINE
8
BLACK
6
CONTINUOUS
10
5.33409
20
-4.46069
11
5.33944
21
-4.46229
0
LINE
8
BLACK
6
CONTINUOUS
10
5.33944
20
-4.46229
11
5.34412
21
-4.46532
0
LINE
8
BLACK
6
CONTINUOUS
10
5.34412
20
-4.46532
11
5.34776
21
-4.46955
0
LINE
8
BLACK
6
CONTINUOUS
10
5.34776
20
-4.46955
11
5.35007
21
-4.47463
0
LINE
8
BLACK
6
CONTINUOUS
10
5.35007
20
-4.47463
11
5.35087
21
-4.48016
0
LINE
8
BLACK
6
CONTINUOUS
10
5.35087
20
-4.48016
11
5.35087
21
-4.49984
0
LINE
8
BLACK
6
CONTINUOUS
10
5.35087
20
-4.49984
11
5.35086
21
-4.50032
0
LINE
8
BLACK
6
CONTINUOUS
10
5.35086
20
-4.50032
11
5.34993
21
-4.50583
0
LINE
8
BLACK
6
CONTINUOUS
10
5.34993
20
-4.50583
11
5.3475
21
-4.51085
0
LINE
8
BLACK
6
CONTINUOUS
10
5.3475
20
-4.51085
11
5.34376
21
-4.51499
0
LINE
8
BLACK
6
CONTINUOUS
10
5.34376
20
-4.51499
11
5.339
21
-4.51791
0
LINE
8
BLACK
6
CONTINUOUS
10
5.339
20
-4.51791
11
5.33361
21
-4.51938
0
LINE
8
BLACK
6
CONTINUOUS
10
5.33361
20
-4.51938
11
5.33118
21
-4.51933
0
LINE
8
BLACK
6
CONTINUOUS
10
5.33118
20
-4.51933
11
5.33118
21
-4.51953
0
LINE
8
BLACK
6
CONTINUOUS
10
5.33118
20
-4.51953
11
5.30953
21
-4.51953
0
LINE
8
BLACK
6
CONTINUOUS
10
5.30953
20
-4.51953
11
5.30953
21
-4.46047
0
LINE
8
BLACK
6
CONTINUOUS
10
5.30953
20
-4.46047
11
5.33118
21
-4.46047
0
LINE
8
BLACK
6
CONTINUOUS
10
5.33118
20
-4.46047
11
5.33118
21
-4.46067
0
LINE
8
BLACK
6
CONTINUOUS
10
5.29969
20
-4.51953
11
5.26031
21
-4.51953
0
LINE
8
BLACK
6
CONTINUOUS
10
5.26031
20
-4.51953
11
5.26031
21
-4.46047
0
LINE
8
BLACK
6
CONTINUOUS
10
5.26031
20
-4.46047
11
5.29969
21
-4.46047
0
LINE
8
BLACK
6
CONTINUOUS
10
5.29969
20
-4.46047
11
5.29969
21
-4.51953
0
LINE
8
BLACK
6
CONTINUOUS
10
5.25047
20
-4.51953
11
5.22882
21
-4.51953
0
LINE
8
BLACK
6
CONTINUOUS
10
5.22882
20
-4.51953
11
5.22882
21
-4.51933
0
LINE
8
BLACK
6
CONTINUOUS
10
5.22882
20
-4.51933
11
5.22567
21
-4.51927
0
LINE
8
BLACK
6
CONTINUOUS
10
5.22567
20
-4.51927
11
5.22034
21
-4.51761
0
LINE
8
BLACK
6
CONTINUOUS
10
5.22034
20
-4.51761
11
5.2157
21
-4.51452
0
LINE
8
BLACK
6
CONTINUOUS
10
5.2157
20
-4.51452
11
5.21211
21
-4.51024
0
LINE
8
BLACK
6
CONTINUOUS
10
5.21211
20
-4.51024
11
5.20986
21
-4.50514
0
LINE
8
BLACK
6
CONTINUOUS
10
5.20986
20
-4.50514
11
5.20917
21
-4.49984
0
LINE
8
BLACK
6
CONTINUOUS
10
5.20917
20
-4.49984
11
5.20913
21
-4.49984
0
LINE
8
BLACK
6
CONTINUOUS
10
5.20913
20
-4.49984
11
5.20913
21
-4.48016
0
LINE
8
BLACK
6
CONTINUOUS
10
5.20913
20
-4.48016
11
5.20917
21
-4.48016
0
LINE
8
BLACK
6
CONTINUOUS
10
5.20917
20
-4.48016
11
5.20914
21
-4.47992
0
LINE
8
BLACK
6
CONTINUOUS
10
5.20914
20
-4.47992
11
5.20999
21
-4.4744
0
LINE
8
BLACK
6
CONTINUOUS
10
5.20999
20
-4.4744
11
5.21237
21
-4.46935
0
LINE
8
BLACK
6
CONTINUOUS
10
5.21237
20
-4.46935
11
5.21606
21
-4.46517
0
LINE
8
BLACK
6
CONTINUOUS
10
5.21606
20
-4.46517
11
5.22078
21
-4.46219
0
LINE
8
BLACK
6
CONTINUOUS
10
5.22078
20
-4.46219
11
5.22615
21
-4.46065
0
LINE
8
BLACK
6
CONTINUOUS
10
5.22615
20
-4.46065
11
5.22882
21
-4.46067
0
LINE
8
BLACK
6
CONTINUOUS
10
5.22882
20
-4.46067
11
5.22882
21
-4.46047
0
LINE
8
BLACK
6
CONTINUOUS
10
5.22882
20
-4.46047
11
5.25047
21
-4.46047
0
LINE
8
BLACK
6
CONTINUOUS
10
5.25047
20
-4.46047
11
5.25047
21
-4.51953
0
LINE
8
BLACK
6
CONTINUOUS
10
4.60865
20
-4.28221
11
4.62213
21
-4.28398
0
LINE
8
BLACK
6
CONTINUOUS
10
4.62213
20
-4.28398
11
4.63532
21
-4.28729
0
LINE
8
BLACK
6
CONTINUOUS
10
4.63532
20
-4.28729
11
4.64804
21
-4.2921
0
LINE
8
BLACK
6
CONTINUOUS
10
4.64804
20
-4.2921
11
4.66012
21
-4.29834
0
LINE
8
BLACK
6
CONTINUOUS
10
4.66012
20
-4.29834
11
4.67141
21
-4.30592
0
LINE
8
BLACK
6
CONTINUOUS
10
4.67141
20
-4.30592
11
4.68175
21
-4.31475
0
LINE
8
BLACK
6
CONTINUOUS
10
4.68175
20
-4.31475
11
4.69101
21
-4.32471
0
LINE
8
BLACK
6
CONTINUOUS
10
4.69101
20
-4.32471
11
4.69906
21
-4.33567
0
LINE
8
BLACK
6
CONTINUOUS
10
4.69906
20
-4.33567
11
4.70579
21
-4.34748
0
LINE
8
BLACK
6
CONTINUOUS
10
4.70579
20
-4.34748
11
4.71113
21
-4.35999
0
LINE
8
BLACK
6
CONTINUOUS
10
4.71113
20
-4.35999
11
4.71499
21
-4.37303
0
LINE
8
BLACK
6
CONTINUOUS
10
4.71499
20
-4.37303
11
4.71733
21
-4.38642
0
LINE
8
BLACK
6
CONTINUOUS
10
4.71733
20
-4.38642
11
4.71811
21
-4.4
0
LINE
8
BLACK
6
CONTINUOUS
10
4.71811
20
-4.4
11
4.71788
21
-4.40742
0
LINE
8
BLACK
6
CONTINUOUS
10
4.71788
20
-4.40742
11
4.71624
21
-4.42092
0
LINE
8
BLACK
6
CONTINUOUS
10
4.71624
20
-4.42092
11
4.71307
21
-4.43414
0
LINE
8
BLACK
6
CONTINUOUS
10
4.71307
20
-4.43414
11
4.7084
21
-4.44691
0
LINE
8
BLACK
6
CONTINUOUS
10
4.7084
20
-4.44691
11
4.70229
21
-4.45906
0
LINE
8
BLACK
6
CONTINUOUS
10
4.70229
20
-4.45906
11
4.69482
21
-4.47042
0
LINE
8
BLACK
6
CONTINUOUS
10
4.69482
20
-4.47042
11
4.6861
21
-4.48085
0
LINE
8
BLACK
6
CONTINUOUS
10
4.6861
20
-4.48085
11
4.67624
21
-4.49021
0
LINE
8
BLACK
6
CONTINUOUS
10
4.67624
20
-4.49021
11
4.66536
21
-4.49838
0
LINE
8
BLACK
6
CONTINUOUS
10
4.66536
20
-4.49838
11
4.65362
21
-4.50524
0
LINE
8
BLACK
6
CONTINUOUS
10
4.65362
20
-4.50524
11
4.64117
21
-4.5107
0
LINE
8
BLACK
6
CONTINUOUS
10
4.64117
20
-4.5107
11
4.62817
21
-4.5147
0
LINE
8
BLACK
6
CONTINUOUS
10
4.62817
20
-4.5147
11
4.6148
21
-4.51718
0
LINE
8
BLACK
6
CONTINUOUS
10
4.6148
20
-4.51718
11
4.60124
21
-4.5181
0
LINE
8
BLACK
6
CONTINUOUS
10
4.60124
20
-4.5181
11
4.58765
21
-4.51746
0
LINE
8
BLACK
6
CONTINUOUS
10
4.58765
20
-4.51746
11
4.57424
21
-4.51527
0
LINE
8
BLACK
6
CONTINUOUS
10
4.57424
20
-4.51527
11
4.56116
21
-4.51154
0
LINE
8
BLACK
6
CONTINUOUS
10
4.56116
20
-4.51154
11
4.54859
21
-4.50634
0
LINE
8
BLACK
6
CONTINUOUS
10
4.54859
20
-4.50634
11
4.53671
21
-4.49972
0
LINE
8
BLACK
6
CONTINUOUS
10
4.53671
20
-4.49972
11
4.52567
21
-4.49179
0
LINE
8
BLACK
6
CONTINUOUS
10
4.52567
20
-4.49179
11
4.51561
21
-4.48264
0
LINE
8
BLACK
6
CONTINUOUS
10
4.51561
20
-4.48264
11
4.50667
21
-4.47239
0
LINE
8
BLACK
6
CONTINUOUS
10
4.50667
20
-4.47239
11
4.49897
21
-4.46118
0
LINE
8
BLACK
6
CONTINUOUS
10
4.49897
20
-4.46118
11
4.49261
21
-4.44917
0
LINE
8
BLACK
6
CONTINUOUS
10
4.49261
20
-4.44917
11
4.48767
21
-4.4365
0
LINE
8
BLACK
6
CONTINUOUS
10
4.48767
20
-4.4365
11
4.48422
21
-4.42335
0
LINE
8
BLACK
6
CONTINUOUS
10
4.48422
20
-4.42335
11
4.4823
21
-4.40988
0
LINE
8
BLACK
6
CONTINUOUS
10
4.4823
20
-4.40988
11
4.48195
21
-4.39629
0
LINE
8
BLACK
6
CONTINUOUS
10
4.48195
20
-4.39629
11
4.48316
21
-4.38275
0
LINE
8
BLACK
6
CONTINUOUS
10
4.48316
20
-4.38275
11
4.48591
21
-4.36943
0
LINE
8
BLACK
6
CONTINUOUS
10
4.48591
20
-4.36943
11
4.49018
21
-4.35652
0
LINE
8
BLACK
6
CONTINUOUS
10
4.49018
20
-4.35652
11
4.49591
21
-4.34419
0
LINE
8
BLACK
6
CONTINUOUS
10
4.49591
20
-4.34419
11
4.50301
21
-4.33259
0
LINE
8
BLACK
6
CONTINUOUS
10
4.50301
20
-4.33259
11
4.5114
21
-4.32189
0
LINE
8
BLACK
6
CONTINUOUS
10
4.5114
20
-4.32189
11
4.52097
21
-4.31223
0
LINE
8
BLACK
6
CONTINUOUS
10
4.52097
20
-4.31223
11
4.53158
21
-4.30373
0
LINE
8
BLACK
6
CONTINUOUS
10
4.53158
20
-4.30373
11
4.5431
21
-4.2965
0
LINE
8
BLACK
6
CONTINUOUS
10
4.5431
20
-4.2965
11
4.55537
21
-4.29065
0
LINE
8
BLACK
6
CONTINUOUS
10
4.55537
20
-4.29065
11
4.56824
21
-4.28624
0
LINE
8
BLACK
6
CONTINUOUS
10
4.56824
20
-4.28624
11
4.58152
21
-4.28334
0
LINE
8
BLACK
6
CONTINUOUS
10
4.58152
20
-4.28334
11
4.59505
21
-4.28199
0
LINE
8
BLACK
6
CONTINUOUS
10
4.59505
20
-4.28199
11
4.60865
21
-4.28221
0
LINE
8
BLACK
6
CONTINUOUS
10
5.80865
20
-4.28221
11
5.82213
21
-4.28398
0
LINE
8
BLACK
6
CONTINUOUS
10
5.82213
20
-4.28398
11
5.83532
21
-4.28729
0
LINE
8
BLACK
6
CONTINUOUS
10
5.83532
20
-4.28729
11
5.84804
21
-4.2921
0
LINE
8
BLACK
6
CONTINUOUS
10
5.84804
20
-4.2921
11
5.86012
21
-4.29834
0
LINE
8
BLACK
6
CONTINUOUS
10
5.86012
20
-4.29834
11
5.87141
21
-4.30592
0
LINE
8
BLACK
6
CONTINUOUS
10
5.87141
20
-4.30592
11
5.88175
21
-4.31475
0
LINE
8
BLACK
6
CONTINUOUS
10
5.88175
20
-4.31475
11
5.89101
21
-4.32471
0
LINE
8
BLACK
6
CONTINUOUS
10
5.89101
20
-4.32471
11
5.89906
21
-4.33567
0
LINE
8
BLACK
6
CONTINUOUS
10
5.89906
20
-4.33567
11
5.90579
21
-4.34748
0
LINE
8
BLACK
6
CONTINUOUS
10
5.90579
20
-4.34748
11
5.91113
21
-4.35999
0
LINE
8
BLACK
6
CONTINUOUS
10
5.91113
20
-4.35999
11
5.91499
21
-4.37303
0
LINE
8
BLACK
6
CONTINUOUS
10
5.91499
20
-4.37303
11
5.91733
21
-4.38642
0
LINE
8
BLACK
6
CONTINUOUS
10
5.91733
20
-4.38642
11
5.91811
21
-4.4
0
LINE
8
BLACK
6
CONTINUOUS
10
5.91811
20
-4.4
11
5.91788
21
-4.40742
0
LINE
8
BLACK
6
CONTINUOUS
10
5.91788
20
-4.40742
11
5.91624
21
-4.42092
0
LINE
8
BLACK
6
CONTINUOUS
10
5.91624
20
-4.42092
11
5.91307
21
-4.43414
0
LINE
8
BLACK
6
CONTINUOUS
10
5.91307
20
-4.43414
11
5.9084
21
-4.44691
0
LINE
8
BLACK
6
CONTINUOUS
10
5.9084
20
-4.44691
11
5.90229
21
-4.45906
0
LINE
8
BLACK
6
CONTINUOUS
10
5.90229
20
-4.45906
11
5.89482
21
-4.47042
0
LINE
8
BLACK
6
CONTINUOUS
10
5.89482
20
-4.47042
11
5.8861
21
-4.48085
0
LINE
8
BLACK
6
CONTINUOUS
10
5.8861
20
-4.48085
11
5.87624
21
-4.49021
0
LINE
8
BLACK
6
CONTINUOUS
10
5.87624
20
-4.49021
11
5.86536
21
-4.49838
0
LINE
8
BLACK
6
CONTINUOUS
10
5.86536
20
-4.49838
11
5.85362
21
-4.50524
0
LINE
8
BLACK
6
CONTINUOUS
10
5.85362
20
-4.50524
11
5.84117
21
-4.5107
0
LINE
8
BLACK
6
CONTINUOUS
10
5.84117
20
-4.5107
11
5.82817
21
-4.5147
0
LINE
8
BLACK
6
CONTINUOUS
10
5.82817
20
-4.5147
11
5.8148
21
-4.51718
0
LINE
8
BLACK
6
CONTINUOUS
10
5.8148
20
-4.51718
11
5.80124
21
-4.5181
0
LINE
8
BLACK
6
CONTINUOUS
10
5.80124
20
-4.5181
11
5.78765
21
-4.51746
0
LINE
8
BLACK
6
CONTINUOUS
10
5.78765
20
-4.51746
11
5.77424
21
-4.51527
0
LINE
8
BLACK
6
CONTINUOUS
10
5.77424
20
-4.51527
11
5.76116
21
-4.51154
0
LINE
8
BLACK
6
CONTINUOUS
10
5.76116
20
-4.51154
11
5.74859
21
-4.50634
0
LINE
8
BLACK
6
CONTINUOUS
10
5.74859
20
-4.50634
11
5.73671
21
-4.49972
0
LINE
8
BLACK
6
CONTINUOUS
10
5.73671
20
-4.49972
11
5.72567
21
-4.49179
0
LINE
8
BLACK
6
CONTINUOUS
10
5.72567
20
-4.49179
11
5.71561
21
-4.48264
0
LINE
8
BLACK
6
CONTINUOUS
10
5.71561
20
-4.48264
11
5.70667
21
-4.47239
0
LINE
8
BLACK
6
CONTINUOUS
10
5.70667
20
-4.47239
11
5.69897
21
-4.46118
0
LINE
8
BLACK
6
CONTINUOUS
10
5.69897
20
-4.46118
11
5.69261
21
-4.44917
0
LINE
8
BLACK
6
CONTINUOUS
10
5.69261
20
-4.44917
11
5.68767
21
-4.4365
0
LINE
8
BLACK
6
CONTINUOUS
10
5.68767
20
-4.4365
11
5.68422
21
-4.42335
0
LINE
8
BLACK
6
CONTINUOUS
10
5.68422
20
-4.42335
11
5.6823
21
-4.40988
0
LINE
8
BLACK
6
CONTINUOUS
10
5.6823
20
-4.40988
11
5.68195
21
-4.39629
0
LINE
8
BLACK
6
CONTINUOUS
10
5.68195
20
-4.39629
11
5.68316
21
-4.38275
0
LINE
8
BLACK
6
CONTINUOUS
10
5.68316
20
-4.38275
11
5.68591
21
-4.36943
0
LINE
8
BLACK
6
CONTINUOUS
10
5.68591
20
-4.36943
11
5.69018
21
-4.35652
0
LINE
8
BLACK
6
CONTINUOUS
10
5.69018
20
-4.35652
11
5.69591
21
-4.34419
0
LINE
8
BLACK
6
CONTINUOUS
10
5.69591
20
-4.34419
11
5.70301
21
-4.33259
0
LINE
8
BLACK
6
CONTINUOUS
10
5.70301
20
-4.33259
11
5.7114
21
-4.32189
0
LINE
8
BLACK
6
CONTINUOUS
10
5.7114
20
-4.32189
11
5.72097
21
-4.31223
0
LINE
8
BLACK
6
CONTINUOUS
10
5.72097
20
-4.31223
11
5.73158
21
-4.30373
0
LINE
8
BLACK
6
CONTINUOUS
10
5.73158
20
-4.30373
11
5.7431
21
-4.2965
0
LINE
8
BLACK
6
CONTINUOUS
10
5.7431
20
-4.2965
11
5.75537
21
-4.29065
0
LINE
8
BLACK
6
CONTINUOUS
10
5.75537
20
-4.29065
11
5.76824
21
-4.28624
0
LINE
8
BLACK
6
CONTINUOUS
10
5.76824
20
-4.28624
11
5.78152
21
-4.28334
0
LINE
8
BLACK
6
CONTINUOUS
10
5.78152
20
-4.28334
11
5.79505
21
-4.28199
0
LINE
8
BLACK
6
CONTINUOUS
10
5.79505
20
-4.28199
11
5.80865
21
-4.28221
0
LINE
8
BLACK
6
CONTINUOUS
10
4.93
20
-4.42
11
4.87
21
-4.42
0
LINE
8
BLACK
6
CONTINUOUS
10
4.87
20
-4.42
11
4.87
21
-4.36
0
LINE
8
BLACK
6
CONTINUOUS
10
4.87
20
-4.36
11
4.93
21
-4.36
0
LINE
8
BLACK
6
CONTINUOUS
10
4.93
20
-4.36
11
4.93
21
-4.42
0
LINE
8
BLACK
6
CONTINUOUS
10
5.03
20
-4.42
11
4.97
21
-4.42
0
LINE
8
BLACK
6
CONTINUOUS
10
4.97
20
-4.42
11
4.97
21
-4.36
0
LINE
8
BLACK
6
CONTINUOUS
10
4.97
20
-4.36
11
5.03
21
-4.36
0
LINE
8
BLACK
6
CONTINUOUS
10
5.03
20
-4.36
11
5.03
21
-4.42
0
LINE
8
BLACK
6
CONTINUOUS
10
5.13
20
-4.42
11
5.07
21
-4.42
0
LINE
8
BLACK
6
CONTINUOUS
10
5.07
20
-4.42
11
5.07
21
-4.36
0
LINE
8
BLACK
6
CONTINUOUS
10
5.07
20
-4.36
11
5.13
21
-4.36
0
LINE
8
BLACK
6
CONTINUOUS
10
5.13
20
-4.36
11
5.13
21
-4.42
0
LINE
8
BLACK
6
CONTINUOUS
10
4.60865
20
-3.88221
11
4.62213
21
-3.88398
0
LINE
8
BLACK
6
CONTINUOUS
10
4.62213
20
-3.88398
11
4.63532
21
-3.88729
0
LINE
8
BLACK
6
CONTINUOUS
10
4.63532
20
-3.88729
11
4.64804
21
-3.8921
0
LINE
8
BLACK
6
CONTINUOUS
10
4.64804
20
-3.8921
11
4.66012
21
-3.89834
0
LINE
8
BLACK
6
CONTINUOUS
10
4.66012
20
-3.89834
11
4.67141
21
-3.90592
0
LINE
8
BLACK
6
CONTINUOUS
10
4.67141
20
-3.90592
11
4.68175
21
-3.91475
0
LINE
8
BLACK
6
CONTINUOUS
10
4.68175
20
-3.91475
11
4.69101
21
-3.92471
0
LINE
8
BLACK
6
CONTINUOUS
10
4.69101
20
-3.92471
11
4.69906
21
-3.93567
0
LINE
8
BLACK
6
CONTINUOUS
10
4.69906
20
-3.93567
11
4.70579
21
-3.94748
0
LINE
8
BLACK
6
CONTINUOUS
10
4.70579
20
-3.94748
11
4.71113
21
-3.95999
0
LINE
8
BLACK
6
CONTINUOUS
10
4.71113
20
-3.95999
11
4.71499
21
-3.97303
0
LINE
8
BLACK
6
CONTINUOUS
10
4.71499
20
-3.97303
11
4.71733
21
-3.98642
0
LINE
8
BLACK
6
CONTINUOUS
10
4.71733
20
-3.98642
11
4.71811
21
-4
0
LINE
8
BLACK
6
CONTINUOUS
10
4.71811
20
-4
11
4.71788
21
-4.00742
0
LINE
8
BLACK
6
CONTINUOUS
10
4.71788
20
-4.00742
11
4.71624
21
-4.02092
0
LINE
8
BLACK
6
CONTINUOUS
10
4.71624
20
-4.02092
11
4.71307
21
-4.03414
0
LINE
8
BLACK
6
CONTINUOUS
10
4.71307
20
-4.03414
11
4.7084
21
-4.04691
0
LINE
8
BLACK
6
CONTINUOUS
10
4.7084
20
-4.04691
11
4.70229
21
-4.05906
0
LINE
8
BLACK
6
CONTINUOUS
10
4.70229
20
-4.05906
11
4.69482
21
-4.07042
0
LINE
8
BLACK
6
CONTINUOUS
10
4.69482
20
-4.07042
11
4.6861
21
-4.08085
0
LINE
8
BLACK
6
CONTINUOUS
10
4.6861
20
-4.08085
11
4.67624
21
-4.09021
0
LINE
8
BLACK
6
CONTINUOUS
10
4.67624
20
-4.09021
11
4.66536
21
-4.09838
0
LINE
8
BLACK
6
CONTINUOUS
10
4.66536
20
-4.09838
11
4.65362
21
-4.10524
0
LINE
8
BLACK
6
CONTINUOUS
10
4.65362
20
-4.10524
11
4.64117
21
-4.1107
0
LINE
8
BLACK
6
CONTINUOUS
10
4.64117
20
-4.1107
11
4.62817
21
-4.1147
0
LINE
8
BLACK
6
CONTINUOUS
10
4.62817
20
-4.1147
11
4.6148
21
-4.11718
0
LINE
8
BLACK
6
CONTINUOUS
10
4.6148
20
-4.11718
11
4.60124
21
-4.1181
0
LINE
8
BLACK
6
CONTINUOUS
10
4.60124
20
-4.1181
11
4.58765
21
-4.11746
0
LINE
8
BLACK
6
CONTINUOUS
10
4.58765
20
-4.11746
11
4.57424
21
-4.11527
0
LINE
8
BLACK
6
CONTINUOUS
10
4.57424
20
-4.11527
11
4.56116
21
-4.11154
0
LINE
8
BLACK
6
CONTINUOUS
10
4.56116
20
-4.11154
11
4.54859
21
-4.10634
0
LINE
8
BLACK
6
CONTINUOUS
10
4.54859
20
-4.10634
11
4.53671
21
-4.09972
0
LINE
8
BLACK
6
CONTINUOUS
10
4.53671
20
-4.09972
11
4.52567
21
-4.09179
0
LINE
8
BLACK
6
CONTINUOUS
10
4.52567
20
-4.09179
11
4.51561
21
-4.08264
0
LINE
8
BLACK
6
CONTINUOUS
10
4.51561
20
-4.08264
11
4.50667
21
-4.07239
0
LINE
8
BLACK
6
CONTINUOUS
10
4.50667
20
-4.07239
11
4.49897
21
-4.06118
0
LINE
8
BLACK
6
CONTINUOUS
10
4.49897
20
-4.06118
11
4.49261
21
-4.04917
0
LINE
8
BLACK
6
CONTINUOUS
10
4.49261
20
-4.04917
11
4.48767
21
-4.0365
0
LINE
8
BLACK
6
CONTINUOUS
10
4.48767
20
-4.0365
11
4.48422
21
-4.02335
0
LINE
8
BLACK
6
CONTINUOUS
10
4.48422
20
-4.02335
11
4.4823
21
-4.00988
0
LINE
8
BLACK
6
CONTINUOUS
10
4.4823
20
-4.00988
11
4.48195
21
-3.99629
0
LINE
8
BLACK
6
CONTINUOUS
10
4.48195
20
-3.99629
11
4.48316
21
-3.98275
0
LINE
8
BLACK
6
CONTINUOUS
10
4.48316
20
-3.98275
11
4.48591
21
-3.96943
0
LINE
8
BLACK
6
CONTINUOUS
10
4.48591
20
-3.96943
11
4.49018
21
-3.95652
0
LINE
8
BLACK
6
CONTINUOUS
10
4.49018
20
-3.95652
11
4.49591
21
-3.94419
0
LINE
8
BLACK
6
CONTINUOUS
10
4.49591
20
-3.94419
11
4.50301
21
-3.93259
0
LINE
8
BLACK
6
CONTINUOUS
10
4.50301
20
-3.93259
11
4.5114
21
-3.92189
0
LINE
8
BLACK
6
CONTINUOUS
10
4.5114
20
-3.92189
11
4.52097
21
-3.91223
0
LINE
8
BLACK
6
CONTINUOUS
10
4.52097
20
-3.91223
11
4.53158
21
-3.90373
0
LINE
8
BLACK
6
CONTINUOUS
10
4.53158
20
-3.90373
11
4.5431
21
-3.8965
0
LINE
8
BLACK
6
CONTINUOUS
10
4.5431
20
-3.8965
11
4.55537
21
-3.89065
0
LINE
8
BLACK
6
CONTINUOUS
10
4.55537
20
-3.89065
11
4.56824
21
-3.88624
0
LINE
8
BLACK
6
CONTINUOUS
10
4.56824
20
-3.88624
11
4.58152
21
-3.88334
0
LINE
8
BLACK
6
CONTINUOUS
10
4.58152
20
-3.88334
11
4.59505
21
-3.88199
0
LINE
8
BLACK
6
CONTINUOUS
10
4.59505
20
-3.88199
11
4.60865
21
-3.88221
0
LINE
8
BLACK
6
CONTINUOUS
10
5.80865
20
-3.88221
11
5.82213
21
-3.88398
0
LINE
8
BLACK
6
CONTINUOUS
10
5.82213
20
-3.88398
11
5.83532
21
-3.88729
0
LINE
8
BLACK
6
CONTINUOUS
10
5.83532
20
-3.88729
11
5.84804
21
-3.8921
0
LINE
8
BLACK
6
CONTINUOUS
10
5.84804
20
-3.8921
11
5.86012
21
-3.89834
0
LINE
8
BLACK
6
CONTINUOUS
10
5.86012
20
-3.89834
11
5.87141
21
-3.90592
0
LINE
8
BLACK
6
CONTINUOUS
10
5.87141
20
-3.90592
11
5.88175
21
-3.91475
0
LINE
8
BLACK
6
CONTINUOUS
10
5.88175
20
-3.91475
11
5.89101
21
-3.92471
0
LINE
8
BLACK
6
CONTINUOUS
10
5.89101
20
-3.92471
11
5.89906
21
-3.93567
0
LINE
8
BLACK
6
CONTINUOUS
10
5.89906
20
-3.93567
11
5.90579
21
-3.94748
0
LINE
8
BLACK
6
CONTINUOUS
10
5.90579
20
-3.94748
11
5.91113
21
-3.95999
0
LINE
8
BLACK
6
CONTINUOUS
10
5.91113
20
-3.95999
11
5.91499
21
-3.97303
0
LINE
8
BLACK
6
CONTINUOUS
10
5.91499
20
-3.97303
11
5.91733
21
-3.98642
0
LINE
8
BLACK
6
CONTINUOUS
10
5.91733
20
-3.98642
11
5.91811
21
-4
0
LINE
8
BLACK
6
CONTINUOUS
10
5.91811
20
-4
11
5.91788
21
-4.00742
0
LINE
8
BLACK
6
CONTINUOUS
10
5.91788
20
-4.00742
11
5.91624
21
-4.02092
0
LINE
8
BLACK
6
CONTINUOUS
10
5.91624
20
-4.02092
11
5.91307
21
-4.03414
0
LINE
8
BLACK
6
CONTINUOUS
10
5.91307
20
-4.03414
11
5.9084
21
-4.04691
0
LINE
8
BLACK
6
CONTINUOUS
10
5.9084
20
-4.04691
11
5.90229
21
-4.05906
0
LINE
8
BLACK
6
CONTINUOUS
10
5.90229
20
-4.05906
11
5.89482
21
-4.07042
0
LINE
8
BLACK
6
CONTINUOUS
10
5.89482
20
-4.07042
11
5.8861
21
-4.08085
0
LINE
8
BLACK
6
CONTINUOUS
10
5.8861
20
-4.08085
11
5.87624
21
-4.09021
0
LINE
8
BLACK
6
CONTINUOUS
10
5.87624
20
-4.09021
11
5.86536
21
-4.09838
0
LINE
8
BLACK
6
CONTINUOUS
10
5.86536
20
-4.09838
11
5.85362
21
-4.10524
0
LINE
8
BLACK
6
CONTINUOUS
10
5.85362
20
-4.10524
11
5.84117
21
-4.1107
0
LINE
8
BLACK
6
CONTINUOUS
10
5.84117
20
-4.1107
11
5.82817
21
-4.1147
0
LINE
8
BLACK
6
CONTINUOUS
10
5.82817
20
-4.1147
11
5.8148
21
-4.11718
0
LINE
8
BLACK
6
CONTINUOUS
10
5.8148
20
-4.11718
11
5.80124
21
-4.1181
0
LINE
8
BLACK
6
CONTINUOUS
10
5.80124
20
-4.1181
11
5.78765
21
-4.11746
0
LINE
8
BLACK
6
CONTINUOUS
10
5.78765
20
-4.11746
11
5.77424
21
-4.11527
0
LINE
8
BLACK
6
CONTINUOUS
10
5.77424
20
-4.11527
11
5.76116
21
-4.11154
0
LINE
8
BLACK
6
CONTINUOUS
10
5.76116
20
-4.11154
11
5.74859
21
-4.10634
0
LINE
8
BLACK
6
CONTINUOUS
10
5.74859
20
-4.10634
11
5.73671
21
-4.09972
0
LINE
8
BLACK
6
CONTINUOUS
10
5.73671
20
-4.09972
11
5.72567
21
-4.09179
0
LINE
8
BLACK
6
CONTINUOUS
10
5.72567
20
-4.09179
11
5.71561
21
-4.08264
0
LINE
8
BLACK
6
CONTINUOUS
10
5.71561
20
-4.08264
11
5.70667
21
-4.07239
0
LINE
8
BLACK
6
CONTINUOUS
10
5.70667
20
-4.07239
11
5.69897
21
-4.06118
0
LINE
8
BLACK
6
CONTINUOUS
10
5.69897
20
-4.06118
11
5.69261
21
-4.04917
0
LINE
8
BLACK
6
CONTINUOUS
10
5.69261
20
-4.04917
11
5.68767
21
-4.0365
0
LINE
8
BLACK
6
CONTINUOUS
10
5.68767
20
-4.0365
11
5.68422
21
-4.02335
0
LINE
8
BLACK
6
CONTINUOUS
10
5.68422
20
-4.02335
11
5.6823
21
-4.00988
0
LINE
8
BLACK
6
CONTINUOUS
10
5.6823
20
-4.00988
11
5.68195
21
-3.99629
0
LINE
8
BLACK
6
CONTINUOUS
10
5.68195
20
-3.99629
11
5.68316
21
-3.98275
0
LINE
8
BLACK
6
CONTINUOUS
10
5.68316
20
-3.98275
11
5.68591
21
-3.96943
0
LINE
8
BLACK
6
CONTINUOUS
10
5.68591
20
-3.96943
11
5.69018
21
-3.95652
0
LINE
8
BLACK
6
CONTINUOUS
10
5.69018
20
-3.95652
11
5.69591
21
-3.94419
0
LINE
8
BLACK
6
CONTINUOUS
10
5.69591
20
-3.94419
11
5.70301
21
-3.93259
0
LINE
8
BLACK
6
CONTINUOUS
10
5.70301
20
-3.93259
11
5.7114
21
-3.92189
0
LINE
8
BLACK
6
CONTINUOUS
10
5.7114
20
-3.92189
11
5.72097
21
-3.91223
0
LINE
8
BLACK
6
CONTINUOUS
10
5.72097
20
-3.91223
11
5.73158
21
-3.90373
0
LINE
8
BLACK
6
CONTINUOUS
10
5.73158
20
-3.90373
11
5.7431
21
-3.8965
0
LINE
8
BLACK
6
CONTINUOUS
10
5.7431
20
-3.8965
11
5.75537
21
-3.89065
0
LINE
8
BLACK
6
CONTINUOUS
10
5.75537
20
-3.89065
11
5.76824
21
-3.88624
0
LINE
8
BLACK
6
CONTINUOUS
10
5.76824
20
-3.88624
11
5.78152
21
-3.88334
0
LINE
8
BLACK
6
CONTINUOUS
10
5.78152
20
-3.88334
11
5.79505
21
-3.88199
0
LINE
8
BLACK
6
CONTINUOUS
10
5.79505
20
-3.88199
11
5.80865
21
-3.88221
0
LINE
8
BLACK
6
CONTINUOUS
10
5.06
20
-4.04
11
5
21
-4.04
0
LINE
8
BLACK
6
CONTINUOUS
10
5
20
-4.04
11
5
21
-3.98
0
LINE
8
BLACK
6
CONTINUOUS
10
5
20
-3.98
11
5.06
21
-3.98
0
LINE
8
BLACK
6
CONTINUOUS
10
5.06
20
-3.98
11
5.06
21
-4.04
0
LINE
8
BLACK
6
CONTINUOUS
10
5.6
20
-4.04
11
5.54
21
-4.04
0
LINE
8
BLACK
6
CONTINUOUS
10
5.54
20
-4.04
11
5.54
21
-3.98
0
LINE
8
BLACK
6
CONTINUOUS
10
5.54
20
-3.98
11
5.6
21
-3.98
0
LINE
8
BLACK
6
CONTINUOUS
10
5.6
20
-3.98
11
5.6
21
-4.04
0
LINE
8
BLACK
6
CONTINUOUS
10
5.5
20
-4.04
11
5.44
21
-4.04
0
LINE
8
BLACK
6
CONTINUOUS
10
5.44
20
-4.04
11
5.44
21
-3.98
0
LINE
8
BLACK
6
CONTINUOUS
10
5.44
20
-3.98
11
5.5
21
-3.98
0
LINE
8
BLACK
6
CONTINUOUS
10
5.5
20
-3.98
11
5.5
21
-4.04
0
LINE
8
BLACK
6
CONTINUOUS
10
5.4
20
-4.04
11
5.34
21
-4.04
0
LINE
8
BLACK
6
CONTINUOUS
10
5.34
20
-4.04
11
5.34
21
-3.98
0
LINE
8
BLACK
6
CONTINUOUS
10
5.34
20
-3.98
11
5.4
21
-3.98
0
LINE
8
BLACK
6
CONTINUOUS
10
5.4
20
-3.98
11
5.4
21
-4.04
0
LINE
8
BLACK
6
CONTINUOUS
10
5.3
20
-4.04
11
5.24
21
-4.04
0
LINE
8
BLACK
6
CONTINUOUS
10
5.24
20
-4.04
11
5.24
21
-3.98
0
LINE
8
BLACK
6
CONTINUOUS
10
5.24
20
-3.98
11
5.3
21
-3.98
0
LINE
8
BLACK
6
CONTINUOUS
10
5.3
20
-3.98
11
5.3
21
-4.04
0
LINE
8
BLACK
6
CONTINUOUS
10
5.2
20
-4.04
11
5.14
21
-4.04
0
LINE
8
BLACK
6
CONTINUOUS
10
5.14
20
-4.04
11
5.14
21
-3.98
0
LINE
8
BLACK
6
CONTINUOUS
10
5.14
20
-3.98
11
5.2
21
-3.98
0
LINE
8
BLACK
6
CONTINUOUS
10
5.2
20
-3.98
11
5.2
21
-4.04
0
LINE
8
BLACK
6
CONTINUOUS
10
4.86
20
-4.04
11
4.8
21
-4.04
0
LINE
8
BLACK
6
CONTINUOUS
10
4.8
20
-4.04
11
4.8
21
-3.98
0
LINE
8
BLACK
6
CONTINUOUS
10
4.8
20
-3.98
11
4.86
21
-3.98
0
LINE
8
BLACK
6
CONTINUOUS
10
4.86
20
-3.98
11
4.86
21
-4.04
0
LINE
8
BLACK
6
CONTINUOUS
10
4.96
20
-4.04
11
4.9
21
-4.04
0
LINE
8
BLACK
6
CONTINUOUS
10
4.9
20
-4.04
11
4.9
21
-3.98
0
LINE
8
BLACK
6
CONTINUOUS
10
4.9
20
-3.98
11
4.96
21
-3.98
0
LINE
8
BLACK
6
CONTINUOUS
10
4.96
20
-3.98
11
4.96
21
-4.04
0
LINE
8
BLACK
6
CONTINUOUS
10
5.2
20
-3.94
11
5.14
21
-3.94
0
LINE
8
BLACK
6
CONTINUOUS
10
5.14
20
-3.94
11
5.14
21
-3.88
0
LINE
8
BLACK
6
CONTINUOUS
10
5.14
20
-3.88
11
5.2
21
-3.88
0
LINE
8
BLACK
6
CONTINUOUS
10
5.2
20
-3.88
11
5.2
21
-3.94
0
LINE
8
BLACK
6
CONTINUOUS
10
5.3
20
-3.94
11
5.24
21
-3.94
0
LINE
8
BLACK
6
CONTINUOUS
10
5.24
20
-3.94
11
5.24
21
-3.88
0
LINE
8
BLACK
6
CONTINUOUS
10
5.24
20
-3.88
11
5.3
21
-3.88
0
LINE
8
BLACK
6
CONTINUOUS
10
5.3
20
-3.88
11
5.3
21
-3.94
0
LINE
8
BLACK
6
CONTINUOUS
10
5.4
20
-3.94
11
5.34
21
-3.94
0
LINE
8
BLACK
6
CONTINUOUS
10
5.34
20
-3.94
11
5.34
21
-3.88
0
LINE
8
BLACK
6
CONTINUOUS
10
5.34
20
-3.88
11
5.4
21
-3.88
0
LINE
8
BLACK
6
CONTINUOUS
10
5.4
20
-3.88
11
5.4
21
-3.94
0
LINE
8
BLACK
6
CONTINUOUS
10
4.86
20
-3.94
11
4.8
21
-3.94
0
LINE
8
BLACK
6
CONTINUOUS
10
4.8
20
-3.94
11
4.8
21
-3.88
0
LINE
8
BLACK
6
CONTINUOUS
10
4.8
20
-3.88
11
4.86
21
-3.88
0
LINE
8
BLACK
6
CONTINUOUS
10
4.86
20
-3.88
11
4.86
21
-3.94
0
LINE
8
BLACK
6
CONTINUOUS
10
5.5
20
-3.94
11
5.44
21
-3.94
0
LINE
8
BLACK
6
CONTINUOUS
10
5.44
20
-3.94
11
5.44
21
-3.88
0
LINE
8
BLACK
6
CONTINUOUS
10
5.44
20
-3.88
11
5.5
21
-3.88
0
LINE
8
BLACK
6
CONTINUOUS
10
5.5
20
-3.88
11
5.5
21
-3.94
0
LINE
8
BLACK
6
CONTINUOUS
10
5.06
20
-3.94
11
5
21
-3.94
0
LINE
8
BLACK
6
CONTINUOUS
10
5
20
-3.94
11
5
21
-3.88
0
LINE
8
BLACK
6
CONTINUOUS
10
5
20
-3.88
11
5.06
21
-3.88
0
LINE
8
BLACK
6
CONTINUOUS
10
5.06
20
-3.88
11
5.06
21
-3.94
0
LINE
8
BLACK
6
CONTINUOUS
10
4.96
20
-3.94
11
4.9
21
-3.94
0
LINE
8
BLACK
6
CONTINUOUS
10
4.9
20
-3.94
11
4.9
21
-3.88
0
LINE
8
BLACK
6
CONTINUOUS
10
4.9
20
-3.88
11
4.96
21
-3.88
0
LINE
8
BLACK
6
CONTINUOUS
10
4.96
20
-3.88
11
4.96
21
-3.94
0
LINE
8
BLACK
6
CONTINUOUS
10
5.6
20
-3.94
11
5.54
21
-3.94
0
LINE
8
BLACK
6
CONTINUOUS
10
5.54
20
-3.94
11
5.54
21
-3.88
0
LINE
8
BLACK
6
CONTINUOUS
10
5.54
20
-3.88
11
5.6
21
-3.88
0
LINE
8
BLACK
6
CONTINUOUS
10
5.6
20
-3.88
11
5.6
21
-3.94
  0
ENDSEC
  0
EOF
