  0
SECTION
  2
HEADER
  9
$ANGBASE
  50
0.0
  9
$ANGDIR
  70
1
  9
$MEASUREMENT
  70
0
  0
ENDSEC
  0
SECTION
  2
TABLES
  0
TABLE
  2
LTYPE
  70
4
  0
LTYPE
  5
40F
  2
CONTINUOUS
  70
0
  3
Solid line
  72
65
  73
0
  40
0.0
  0
LTYPE
  5
410
  2
DASHDOT
 70
0
  3
Dash Dot ____ _ ____ _
 72
65
 73
4
 40
2.0
 49
1.25
 49
-0.25
 49
0.25
 49
-0.25
  0
LTYPE
  5
411
  2
DASHED
 70
0
  3
Dashed __ __ __ __ __
 72
65
 73
2
 40
0.75
 49
0.5
 49
-0.25
  0
LTYPE
  5
43B
  2
DOTTED
 70
0
  3
Dotted .  .  .  .
 72
65
 73
2
 40
0.2
 49
0.0
 49
-0.2
  0
ENDTAB
  0
TABLE
  2
STYLE
  70
4
  0
STYLE
  2
KICAD
  70
0
  40
0
  41
1
  42
1
  50
0
  71
0
  3
isocp.shx
  0
STYLE
  2
KICADB
  70
0
  40
0
  41
1
  42
1
  50
0
  71
0
  3
isocp.shx
  0
STYLE
  2
KICADI
  70
0
  40
0
  41
1
  42
1
  50
15
  71
0
  3
isocp.shx
  0
STYLE
  2
KICADBI
  70
0
  40
0
  41
1
  42
1
  50
15
  71
0
  3
isocp.shx
  0
ENDTAB
  0
TABLE
  2
LAYER
  70
1
  0
LAYER
  2
BLACK
  70
0
  62
7
  6
CONTINUOUS
  0
ENDTAB
  0
ENDSEC
  0
SECTION
  2
ENTITIES
0
LINE
8
BLACK
6
CONTINUOUS
10
5.39301
20
-4.46273
11
5.39557
21
-4.46443
0
LINE
8
BLACK
6
CONTINUOUS
10
5.39557
20
-4.46443
11
5.39727
21
-4.46699
0
LINE
8
BLACK
6
CONTINUOUS
10
5.39727
20
-4.46699
11
5.39787
21
-4.47
0
LINE
8
BLACK
6
CONTINUOUS
10
5.39787
20
-4.47
11
5.39787
21
-4.53
0
LINE
8
BLACK
6
CONTINUOUS
10
5.39787
20
-4.53
11
5.39727
21
-4.53301
0
LINE
8
BLACK
6
CONTINUOUS
10
5.39727
20
-4.53301
11
5.39557
21
-4.53557
0
LINE
8
BLACK
6
CONTINUOUS
10
5.39557
20
-4.53557
11
5.39301
21
-4.53727
0
LINE
8
BLACK
6
CONTINUOUS
10
5.39301
20
-4.53727
11
5.39
21
-4.53787
0
LINE
8
BLACK
6
CONTINUOUS
10
5.39
20
-4.53787
11
5.33
21
-4.53787
0
LINE
8
BLACK
6
CONTINUOUS
10
5.33
20
-4.53787
11
5.32699
21
-4.53727
0
LINE
8
BLACK
6
CONTINUOUS
10
5.32699
20
-4.53727
11
5.32443
21
-4.53557
0
LINE
8
BLACK
6
CONTINUOUS
10
5.32443
20
-4.53557
11
5.32273
21
-4.53301
0
LINE
8
BLACK
6
CONTINUOUS
10
5.32273
20
-4.53301
11
5.32213
21
-4.53
0
LINE
8
BLACK
6
CONTINUOUS
10
5.32213
20
-4.53
11
5.32213
21
-4.47
0
LINE
8
BLACK
6
CONTINUOUS
10
5.32213
20
-4.47
11
5.32273
21
-4.46699
0
LINE
8
BLACK
6
CONTINUOUS
10
5.32273
20
-4.46699
11
5.32443
21
-4.46443
0
LINE
8
BLACK
6
CONTINUOUS
10
5.32443
20
-4.46443
11
5.32699
21
-4.46273
0
LINE
8
BLACK
6
CONTINUOUS
10
5.32699
20
-4.46273
11
5.33
21
-4.46213
0
LINE
8
BLACK
6
CONTINUOUS
10
5.33
20
-4.46213
11
5.39
21
-4.46213
0
LINE
8
BLACK
6
CONTINUOUS
10
5.39
20
-4.46213
11
5.39301
21
-4.46273
0
LINE
8
BLACK
6
CONTINUOUS
10
5.49301
20
-4.46273
11
5.49557
21
-4.46443
0
LINE
8
BLACK
6
CONTINUOUS
10
5.49557
20
-4.46443
11
5.49727
21
-4.46699
0
LINE
8
BLACK
6
CONTINUOUS
10
5.49727
20
-4.46699
11
5.49787
21
-4.47
0
LINE
8
BLACK
6
CONTINUOUS
10
5.49787
20
-4.47
11
5.49787
21
-4.53
0
LINE
8
BLACK
6
CONTINUOUS
10
5.49787
20
-4.53
11
5.49727
21
-4.53301
0
LINE
8
BLACK
6
CONTINUOUS
10
5.49727
20
-4.53301
11
5.49557
21
-4.53557
0
LINE
8
BLACK
6
CONTINUOUS
10
5.49557
20
-4.53557
11
5.49301
21
-4.53727
0
LINE
8
BLACK
6
CONTINUOUS
10
5.49301
20
-4.53727
11
5.49
21
-4.53787
0
LINE
8
BLACK
6
CONTINUOUS
10
5.49
20
-4.53787
11
5.43
21
-4.53787
0
LINE
8
BLACK
6
CONTINUOUS
10
5.43
20
-4.53787
11
5.42699
21
-4.53727
0
LINE
8
BLACK
6
CONTINUOUS
10
5.42699
20
-4.53727
11
5.42443
21
-4.53557
0
LINE
8
BLACK
6
CONTINUOUS
10
5.42443
20
-4.53557
11
5.42273
21
-4.53301
0
LINE
8
BLACK
6
CONTINUOUS
10
5.42273
20
-4.53301
11
5.42213
21
-4.53
0
LINE
8
BLACK
6
CONTINUOUS
10
5.42213
20
-4.53
11
5.42213
21
-4.47
0
LINE
8
BLACK
6
CONTINUOUS
10
5.42213
20
-4.47
11
5.42273
21
-4.46699
0
LINE
8
BLACK
6
CONTINUOUS
10
5.42273
20
-4.46699
11
5.42443
21
-4.46443
0
LINE
8
BLACK
6
CONTINUOUS
10
5.42443
20
-4.46443
11
5.42699
21
-4.46273
0
LINE
8
BLACK
6
CONTINUOUS
10
5.42699
20
-4.46273
11
5.43
21
-4.46213
0
LINE
8
BLACK
6
CONTINUOUS
10
5.43
20
-4.46213
11
5.49
21
-4.46213
0
LINE
8
BLACK
6
CONTINUOUS
10
5.49
20
-4.46213
11
5.49301
21
-4.46273
0
LINE
8
BLACK
6
CONTINUOUS
10
5.59301
20
-4.46273
11
5.59557
21
-4.46443
0
LINE
8
BLACK
6
CONTINUOUS
10
5.59557
20
-4.46443
11
5.59727
21
-4.46699
0
LINE
8
BLACK
6
CONTINUOUS
10
5.59727
20
-4.46699
11
5.59787
21
-4.47
0
LINE
8
BLACK
6
CONTINUOUS
10
5.59787
20
-4.47
11
5.59787
21
-4.53
0
LINE
8
BLACK
6
CONTINUOUS
10
5.59787
20
-4.53
11
5.59727
21
-4.53301
0
LINE
8
BLACK
6
CONTINUOUS
10
5.59727
20
-4.53301
11
5.59557
21
-4.53557
0
LINE
8
BLACK
6
CONTINUOUS
10
5.59557
20
-4.53557
11
5.59301
21
-4.53727
0
LINE
8
BLACK
6
CONTINUOUS
10
5.59301
20
-4.53727
11
5.59
21
-4.53787
0
LINE
8
BLACK
6
CONTINUOUS
10
5.59
20
-4.53787
11
5.53
21
-4.53787
0
LINE
8
BLACK
6
CONTINUOUS
10
5.53
20
-4.53787
11
5.52699
21
-4.53727
0
LINE
8
BLACK
6
CONTINUOUS
10
5.52699
20
-4.53727
11
5.52443
21
-4.53557
0
LINE
8
BLACK
6
CONTINUOUS
10
5.52443
20
-4.53557
11
5.52273
21
-4.53301
0
LINE
8
BLACK
6
CONTINUOUS
10
5.52273
20
-4.53301
11
5.52213
21
-4.53
0
LINE
8
BLACK
6
CONTINUOUS
10
5.52213
20
-4.53
11
5.52213
21
-4.47
0
LINE
8
BLACK
6
CONTINUOUS
10
5.52213
20
-4.47
11
5.52273
21
-4.46699
0
LINE
8
BLACK
6
CONTINUOUS
10
5.52273
20
-4.46699
11
5.52443
21
-4.46443
0
LINE
8
BLACK
6
CONTINUOUS
10
5.52443
20
-4.46443
11
5.52699
21
-4.46273
0
LINE
8
BLACK
6
CONTINUOUS
10
5.52699
20
-4.46273
11
5.53
21
-4.46213
0
LINE
8
BLACK
6
CONTINUOUS
10
5.53
20
-4.46213
11
5.59
21
-4.46213
0
LINE
8
BLACK
6
CONTINUOUS
10
5.59
20
-4.46213
11
5.59301
21
-4.46273
0
LINE
8
BLACK
6
CONTINUOUS
10
4.61411
20
-4.27481
11
4.62803
21
-4.27717
0
LINE
8
BLACK
6
CONTINUOUS
10
4.62803
20
-4.27717
11
4.64161
21
-4.28109
0
LINE
8
BLACK
6
CONTINUOUS
10
4.64161
20
-4.28109
11
4.65466
21
-4.28649
0
LINE
8
BLACK
6
CONTINUOUS
10
4.65466
20
-4.28649
11
4.66703
21
-4.29333
0
LINE
8
BLACK
6
CONTINUOUS
10
4.66703
20
-4.29333
11
4.67855
21
-4.3015
0
LINE
8
BLACK
6
CONTINUOUS
10
4.67855
20
-4.3015
11
4.68908
21
-4.31092
0
LINE
8
BLACK
6
CONTINUOUS
10
4.68908
20
-4.31092
11
4.6985
21
-4.32145
0
LINE
8
BLACK
6
CONTINUOUS
10
4.6985
20
-4.32145
11
4.70667
21
-4.33297
0
LINE
8
BLACK
6
CONTINUOUS
10
4.70667
20
-4.33297
11
4.71351
21
-4.34534
0
LINE
8
BLACK
6
CONTINUOUS
10
4.71351
20
-4.34534
11
4.71891
21
-4.35839
0
LINE
8
BLACK
6
CONTINUOUS
10
4.71891
20
-4.35839
11
4.72283
21
-4.37197
0
LINE
8
BLACK
6
CONTINUOUS
10
4.72283
20
-4.37197
11
4.72519
21
-4.38589
0
LINE
8
BLACK
6
CONTINUOUS
10
4.72519
20
-4.38589
11
4.72598
21
-4.4
0
LINE
8
BLACK
6
CONTINUOUS
10
4.72598
20
-4.4
11
4.72519
21
-4.41411
0
LINE
8
BLACK
6
CONTINUOUS
10
4.72519
20
-4.41411
11
4.72283
21
-4.42803
0
LINE
8
BLACK
6
CONTINUOUS
10
4.72283
20
-4.42803
11
4.71891
21
-4.44161
0
LINE
8
BLACK
6
CONTINUOUS
10
4.71891
20
-4.44161
11
4.71351
21
-4.45466
0
LINE
8
BLACK
6
CONTINUOUS
10
4.71351
20
-4.45466
11
4.70667
21
-4.46703
0
LINE
8
BLACK
6
CONTINUOUS
10
4.70667
20
-4.46703
11
4.6985
21
-4.47855
0
LINE
8
BLACK
6
CONTINUOUS
10
4.6985
20
-4.47855
11
4.68908
21
-4.48908
0
LINE
8
BLACK
6
CONTINUOUS
10
4.68908
20
-4.48908
11
4.67855
21
-4.4985
0
LINE
8
BLACK
6
CONTINUOUS
10
4.67855
20
-4.4985
11
4.66703
21
-4.50667
0
LINE
8
BLACK
6
CONTINUOUS
10
4.66703
20
-4.50667
11
4.65466
21
-4.51351
0
LINE
8
BLACK
6
CONTINUOUS
10
4.65466
20
-4.51351
11
4.64161
21
-4.51891
0
LINE
8
BLACK
6
CONTINUOUS
10
4.64161
20
-4.51891
11
4.62803
21
-4.52283
0
LINE
8
BLACK
6
CONTINUOUS
10
4.62803
20
-4.52283
11
4.61411
21
-4.52519
0
LINE
8
BLACK
6
CONTINUOUS
10
4.61411
20
-4.52519
11
4.6
21
-4.52598
0
LINE
8
BLACK
6
CONTINUOUS
10
4.6
20
-4.52598
11
4.58589
21
-4.52519
0
LINE
8
BLACK
6
CONTINUOUS
10
4.58589
20
-4.52519
11
4.57197
21
-4.52283
0
LINE
8
BLACK
6
CONTINUOUS
10
4.57197
20
-4.52283
11
4.55839
21
-4.51891
0
LINE
8
BLACK
6
CONTINUOUS
10
4.55839
20
-4.51891
11
4.54534
21
-4.51351
0
LINE
8
BLACK
6
CONTINUOUS
10
4.54534
20
-4.51351
11
4.53297
21
-4.50667
0
LINE
8
BLACK
6
CONTINUOUS
10
4.53297
20
-4.50667
11
4.52145
21
-4.4985
0
LINE
8
BLACK
6
CONTINUOUS
10
4.52145
20
-4.4985
11
4.51092
21
-4.48908
0
LINE
8
BLACK
6
CONTINUOUS
10
4.51092
20
-4.48908
11
4.5015
21
-4.47855
0
LINE
8
BLACK
6
CONTINUOUS
10
4.5015
20
-4.47855
11
4.49333
21
-4.46703
0
LINE
8
BLACK
6
CONTINUOUS
10
4.49333
20
-4.46703
11
4.48649
21
-4.45466
0
LINE
8
BLACK
6
CONTINUOUS
10
4.48649
20
-4.45466
11
4.48109
21
-4.44161
0
LINE
8
BLACK
6
CONTINUOUS
10
4.48109
20
-4.44161
11
4.47717
21
-4.42803
0
LINE
8
BLACK
6
CONTINUOUS
10
4.47717
20
-4.42803
11
4.47481
21
-4.41411
0
LINE
8
BLACK
6
CONTINUOUS
10
4.47481
20
-4.41411
11
4.47402
21
-4.4
0
LINE
8
BLACK
6
CONTINUOUS
10
4.47402
20
-4.4
11
4.47481
21
-4.38589
0
LINE
8
BLACK
6
CONTINUOUS
10
4.47481
20
-4.38589
11
4.47717
21
-4.37197
0
LINE
8
BLACK
6
CONTINUOUS
10
4.47717
20
-4.37197
11
4.48109
21
-4.35839
0
LINE
8
BLACK
6
CONTINUOUS
10
4.48109
20
-4.35839
11
4.48649
21
-4.34534
0
LINE
8
BLACK
6
CONTINUOUS
10
4.48649
20
-4.34534
11
4.49333
21
-4.33297
0
LINE
8
BLACK
6
CONTINUOUS
10
4.49333
20
-4.33297
11
4.5015
21
-4.32145
0
LINE
8
BLACK
6
CONTINUOUS
10
4.5015
20
-4.32145
11
4.51092
21
-4.31092
0
LINE
8
BLACK
6
CONTINUOUS
10
4.51092
20
-4.31092
11
4.52145
21
-4.3015
0
LINE
8
BLACK
6
CONTINUOUS
10
4.52145
20
-4.3015
11
4.53297
21
-4.29333
0
LINE
8
BLACK
6
CONTINUOUS
10
4.53297
20
-4.29333
11
4.54534
21
-4.28649
0
LINE
8
BLACK
6
CONTINUOUS
10
4.54534
20
-4.28649
11
4.55839
21
-4.28109
0
LINE
8
BLACK
6
CONTINUOUS
10
4.55839
20
-4.28109
11
4.57197
21
-4.27717
0
LINE
8
BLACK
6
CONTINUOUS
10
4.57197
20
-4.27717
11
4.58589
21
-4.27481
0
LINE
8
BLACK
6
CONTINUOUS
10
4.58589
20
-4.27481
11
4.6
21
-4.27402
0
LINE
8
BLACK
6
CONTINUOUS
10
4.6
20
-4.27402
11
4.61411
21
-4.27481
0
LINE
8
BLACK
6
CONTINUOUS
10
5.81411
20
-4.27481
11
5.82803
21
-4.27717
0
LINE
8
BLACK
6
CONTINUOUS
10
5.82803
20
-4.27717
11
5.84161
21
-4.28109
0
LINE
8
BLACK
6
CONTINUOUS
10
5.84161
20
-4.28109
11
5.85466
21
-4.28649
0
LINE
8
BLACK
6
CONTINUOUS
10
5.85466
20
-4.28649
11
5.86703
21
-4.29333
0
LINE
8
BLACK
6
CONTINUOUS
10
5.86703
20
-4.29333
11
5.87855
21
-4.3015
0
LINE
8
BLACK
6
CONTINUOUS
10
5.87855
20
-4.3015
11
5.88908
21
-4.31092
0
LINE
8
BLACK
6
CONTINUOUS
10
5.88908
20
-4.31092
11
5.8985
21
-4.32145
0
LINE
8
BLACK
6
CONTINUOUS
10
5.8985
20
-4.32145
11
5.90667
21
-4.33297
0
LINE
8
BLACK
6
CONTINUOUS
10
5.90667
20
-4.33297
11
5.91351
21
-4.34534
0
LINE
8
BLACK
6
CONTINUOUS
10
5.91351
20
-4.34534
11
5.91891
21
-4.35839
0
LINE
8
BLACK
6
CONTINUOUS
10
5.91891
20
-4.35839
11
5.92283
21
-4.37197
0
LINE
8
BLACK
6
CONTINUOUS
10
5.92283
20
-4.37197
11
5.92519
21
-4.38589
0
LINE
8
BLACK
6
CONTINUOUS
10
5.92519
20
-4.38589
11
5.92598
21
-4.4
0
LINE
8
BLACK
6
CONTINUOUS
10
5.92598
20
-4.4
11
5.92519
21
-4.41411
0
LINE
8
BLACK
6
CONTINUOUS
10
5.92519
20
-4.41411
11
5.92283
21
-4.42803
0
LINE
8
BLACK
6
CONTINUOUS
10
5.92283
20
-4.42803
11
5.91891
21
-4.44161
0
LINE
8
BLACK
6
CONTINUOUS
10
5.91891
20
-4.44161
11
5.91351
21
-4.45466
0
LINE
8
BLACK
6
CONTINUOUS
10
5.91351
20
-4.45466
11
5.90667
21
-4.46703
0
LINE
8
BLACK
6
CONTINUOUS
10
5.90667
20
-4.46703
11
5.8985
21
-4.47855
0
LINE
8
BLACK
6
CONTINUOUS
10
5.8985
20
-4.47855
11
5.88908
21
-4.48908
0
LINE
8
BLACK
6
CONTINUOUS
10
5.88908
20
-4.48908
11
5.87855
21
-4.4985
0
LINE
8
BLACK
6
CONTINUOUS
10
5.87855
20
-4.4985
11
5.86703
21
-4.50667
0
LINE
8
BLACK
6
CONTINUOUS
10
5.86703
20
-4.50667
11
5.85466
21
-4.51351
0
LINE
8
BLACK
6
CONTINUOUS
10
5.85466
20
-4.51351
11
5.84161
21
-4.51891
0
LINE
8
BLACK
6
CONTINUOUS
10
5.84161
20
-4.51891
11
5.82803
21
-4.52283
0
LINE
8
BLACK
6
CONTINUOUS
10
5.82803
20
-4.52283
11
5.81411
21
-4.52519
0
LINE
8
BLACK
6
CONTINUOUS
10
5.81411
20
-4.52519
11
5.8
21
-4.52598
0
LINE
8
BLACK
6
CONTINUOUS
10
5.8
20
-4.52598
11
5.78589
21
-4.52519
0
LINE
8
BLACK
6
CONTINUOUS
10
5.78589
20
-4.52519
11
5.77197
21
-4.52283
0
LINE
8
BLACK
6
CONTINUOUS
10
5.77197
20
-4.52283
11
5.75839
21
-4.51891
0
LINE
8
BLACK
6
CONTINUOUS
10
5.75839
20
-4.51891
11
5.74534
21
-4.51351
0
LINE
8
BLACK
6
CONTINUOUS
10
5.74534
20
-4.51351
11
5.73297
21
-4.50667
0
LINE
8
BLACK
6
CONTINUOUS
10
5.73297
20
-4.50667
11
5.72145
21
-4.4985
0
LINE
8
BLACK
6
CONTINUOUS
10
5.72145
20
-4.4985
11
5.71092
21
-4.48908
0
LINE
8
BLACK
6
CONTINUOUS
10
5.71092
20
-4.48908
11
5.7015
21
-4.47855
0
LINE
8
BLACK
6
CONTINUOUS
10
5.7015
20
-4.47855
11
5.69333
21
-4.46703
0
LINE
8
BLACK
6
CONTINUOUS
10
5.69333
20
-4.46703
11
5.68649
21
-4.45466
0
LINE
8
BLACK
6
CONTINUOUS
10
5.68649
20
-4.45466
11
5.68109
21
-4.44161
0
LINE
8
BLACK
6
CONTINUOUS
10
5.68109
20
-4.44161
11
5.67717
21
-4.42803
0
LINE
8
BLACK
6
CONTINUOUS
10
5.67717
20
-4.42803
11
5.67481
21
-4.41411
0
LINE
8
BLACK
6
CONTINUOUS
10
5.67481
20
-4.41411
11
5.67402
21
-4.4
0
LINE
8
BLACK
6
CONTINUOUS
10
5.67402
20
-4.4
11
5.67481
21
-4.38589
0
LINE
8
BLACK
6
CONTINUOUS
10
5.67481
20
-4.38589
11
5.67717
21
-4.37197
0
LINE
8
BLACK
6
CONTINUOUS
10
5.67717
20
-4.37197
11
5.68109
21
-4.35839
0
LINE
8
BLACK
6
CONTINUOUS
10
5.68109
20
-4.35839
11
5.68649
21
-4.34534
0
LINE
8
BLACK
6
CONTINUOUS
10
5.68649
20
-4.34534
11
5.69333
21
-4.33297
0
LINE
8
BLACK
6
CONTINUOUS
10
5.69333
20
-4.33297
11
5.7015
21
-4.32145
0
LINE
8
BLACK
6
CONTINUOUS
10
5.7015
20
-4.32145
11
5.71092
21
-4.31092
0
LINE
8
BLACK
6
CONTINUOUS
10
5.71092
20
-4.31092
11
5.72145
21
-4.3015
0
LINE
8
BLACK
6
CONTINUOUS
10
5.72145
20
-4.3015
11
5.73297
21
-4.29333
0
LINE
8
BLACK
6
CONTINUOUS
10
5.73297
20
-4.29333
11
5.74534
21
-4.28649
0
LINE
8
BLACK
6
CONTINUOUS
10
5.74534
20
-4.28649
11
5.75839
21
-4.28109
0
LINE
8
BLACK
6
CONTINUOUS
10
5.75839
20
-4.28109
11
5.77197
21
-4.27717
0
LINE
8
BLACK
6
CONTINUOUS
10
5.77197
20
-4.27717
11
5.78589
21
-4.27481
0
LINE
8
BLACK
6
CONTINUOUS
10
5.78589
20
-4.27481
11
5.8
21
-4.27402
0
LINE
8
BLACK
6
CONTINUOUS
10
5.8
20
-4.27402
11
5.81411
21
-4.27481
0
LINE
8
BLACK
6
CONTINUOUS
10
5.09809
20
-4.43666
11
5.1
21
-4.43794
0
LINE
8
BLACK
6
CONTINUOUS
10
5.1
20
-4.43794
11
5.10191
21
-4.43666
0
LINE
8
BLACK
6
CONTINUOUS
10
5.10191
20
-4.43666
11
5.10492
21
-4.43606
0
LINE
8
BLACK
6
CONTINUOUS
10
5.10492
20
-4.43606
11
5.14429
21
-4.43606
0
LINE
8
BLACK
6
CONTINUOUS
10
5.14429
20
-4.43606
11
5.1473
21
-4.43666
0
LINE
8
BLACK
6
CONTINUOUS
10
5.1473
20
-4.43666
11
5.14921
21
-4.43794
0
LINE
8
BLACK
6
CONTINUOUS
10
5.14921
20
-4.43794
11
5.15112
21
-4.43666
0
LINE
8
BLACK
6
CONTINUOUS
10
5.15112
20
-4.43666
11
5.15413
21
-4.43606
0
LINE
8
BLACK
6
CONTINUOUS
10
5.15413
20
-4.43606
11
5.17579
21
-4.43606
0
LINE
8
BLACK
6
CONTINUOUS
10
5.17579
20
-4.43606
11
5.17679
21
-4.43626
0
LINE
8
BLACK
6
CONTINUOUS
10
5.17679
20
-4.43626
11
5.17859
21
-4.43626
0
LINE
8
BLACK
6
CONTINUOUS
10
5.17859
20
-4.43626
11
5.18081
21
-4.43658
0
LINE
8
BLACK
6
CONTINUOUS
10
5.18081
20
-4.43658
11
5.18618
21
-4.43816
0
LINE
8
BLACK
6
CONTINUOUS
10
5.18618
20
-4.43816
11
5.18822
21
-4.43909
0
LINE
8
BLACK
6
CONTINUOUS
10
5.18822
20
-4.43909
11
5.19294
21
-4.44212
0
LINE
8
BLACK
6
CONTINUOUS
10
5.19294
20
-4.44212
11
5.19463
21
-4.44359
0
LINE
8
BLACK
6
CONTINUOUS
10
5.19463
20
-4.44359
11
5.1983
21
-4.44782
0
LINE
8
BLACK
6
CONTINUOUS
10
5.1983
20
-4.44782
11
5.19951
21
-4.44971
0
LINE
8
BLACK
6
CONTINUOUS
10
5.19951
20
-4.44971
11
5.20184
21
-4.45481
0
LINE
8
BLACK
6
CONTINUOUS
10
5.20184
20
-4.45481
11
5.20247
21
-4.45696
0
LINE
8
BLACK
6
CONTINUOUS
10
5.20247
20
-4.45696
11
5.20327
21
-4.4625
0
LINE
8
BLACK
6
CONTINUOUS
10
5.20327
20
-4.4625
11
5.20335
21
-4.46362
0
LINE
8
BLACK
6
CONTINUOUS
10
5.20335
20
-4.46362
11
5.20335
21
-4.48331
0
LINE
8
BLACK
6
CONTINUOUS
10
5.20335
20
-4.48331
11
5.20327
21
-4.48443
0
LINE
8
BLACK
6
CONTINUOUS
10
5.20327
20
-4.48443
11
5.20247
21
-4.48997
0
LINE
8
BLACK
6
CONTINUOUS
10
5.20247
20
-4.48997
11
5.20184
21
-4.49212
0
LINE
8
BLACK
6
CONTINUOUS
10
5.20184
20
-4.49212
11
5.19951
21
-4.49722
0
LINE
8
BLACK
6
CONTINUOUS
10
5.19951
20
-4.49722
11
5.1983
21
-4.49911
0
LINE
8
BLACK
6
CONTINUOUS
10
5.1983
20
-4.49911
11
5.19463
21
-4.50334
0
LINE
8
BLACK
6
CONTINUOUS
10
5.19463
20
-4.50334
11
5.19294
21
-4.50481
0
LINE
8
BLACK
6
CONTINUOUS
10
5.19294
20
-4.50481
11
5.18822
21
-4.50784
0
LINE
8
BLACK
6
CONTINUOUS
10
5.18822
20
-4.50784
11
5.18618
21
-4.50877
0
LINE
8
BLACK
6
CONTINUOUS
10
5.18618
20
-4.50877
11
5.18081
21
-4.51035
0
LINE
8
BLACK
6
CONTINUOUS
10
5.18081
20
-4.51035
11
5.17859
21
-4.51067
0
LINE
8
BLACK
6
CONTINUOUS
10
5.17859
20
-4.51067
11
5.17679
21
-4.51067
0
LINE
8
BLACK
6
CONTINUOUS
10
5.17679
20
-4.51067
11
5.17579
21
-4.51087
0
LINE
8
BLACK
6
CONTINUOUS
10
5.17579
20
-4.51087
11
5.15413
21
-4.51087
0
LINE
8
BLACK
6
CONTINUOUS
10
5.15413
20
-4.51087
11
5.15112
21
-4.51027
0
LINE
8
BLACK
6
CONTINUOUS
10
5.15112
20
-4.51027
11
5.14921
21
-4.50899
0
LINE
8
BLACK
6
CONTINUOUS
10
5.14921
20
-4.50899
11
5.1473
21
-4.51027
0
LINE
8
BLACK
6
CONTINUOUS
10
5.1473
20
-4.51027
11
5.14429
21
-4.51087
0
LINE
8
BLACK
6
CONTINUOUS
10
5.14429
20
-4.51087
11
5.10492
21
-4.51087
0
LINE
8
BLACK
6
CONTINUOUS
10
5.10492
20
-4.51087
11
5.10191
21
-4.51027
0
LINE
8
BLACK
6
CONTINUOUS
10
5.10191
20
-4.51027
11
5.1
21
-4.50899
0
LINE
8
BLACK
6
CONTINUOUS
10
5.1
20
-4.50899
11
5.09809
21
-4.51027
0
LINE
8
BLACK
6
CONTINUOUS
10
5.09809
20
-4.51027
11
5.09508
21
-4.51087
0
LINE
8
BLACK
6
CONTINUOUS
10
5.09508
20
-4.51087
11
5.07343
21
-4.51087
0
LINE
8
BLACK
6
CONTINUOUS
10
5.07343
20
-4.51087
11
5.07242
21
-4.51067
0
LINE
8
BLACK
6
CONTINUOUS
10
5.07242
20
-4.51067
11
5.07062
21
-4.51067
0
LINE
8
BLACK
6
CONTINUOUS
10
5.07062
20
-4.51067
11
5.06841
21
-4.51035
0
LINE
8
BLACK
6
CONTINUOUS
10
5.06841
20
-4.51035
11
5.06303
21
-4.50877
0
LINE
8
BLACK
6
CONTINUOUS
10
5.06303
20
-4.50877
11
5.06099
21
-4.50784
0
LINE
8
BLACK
6
CONTINUOUS
10
5.06099
20
-4.50784
11
5.05628
21
-4.50481
0
LINE
8
BLACK
6
CONTINUOUS
10
5.05628
20
-4.50481
11
5.05458
21
-4.50334
0
LINE
8
BLACK
6
CONTINUOUS
10
5.05458
20
-4.50334
11
5.05091
21
-4.49911
0
LINE
8
BLACK
6
CONTINUOUS
10
5.05091
20
-4.49911
11
5.0497
21
-4.49722
0
LINE
8
BLACK
6
CONTINUOUS
10
5.0497
20
-4.49722
11
5.04738
21
-4.49212
0
LINE
8
BLACK
6
CONTINUOUS
10
5.04738
20
-4.49212
11
5.04674
21
-4.48997
0
LINE
8
BLACK
6
CONTINUOUS
10
5.04674
20
-4.48997
11
5.04595
21
-4.48443
0
LINE
8
BLACK
6
CONTINUOUS
10
5.04595
20
-4.48443
11
5.04587
21
-4.48331
0
LINE
8
BLACK
6
CONTINUOUS
10
5.04587
20
-4.48331
11
5.04587
21
-4.46362
0
LINE
8
BLACK
6
CONTINUOUS
10
5.04587
20
-4.46362
11
5.04595
21
-4.4625
0
LINE
8
BLACK
6
CONTINUOUS
10
5.04595
20
-4.4625
11
5.04674
21
-4.45696
0
LINE
8
BLACK
6
CONTINUOUS
10
5.04674
20
-4.45696
11
5.04738
21
-4.45481
0
LINE
8
BLACK
6
CONTINUOUS
10
5.04738
20
-4.45481
11
5.0497
21
-4.44971
0
LINE
8
BLACK
6
CONTINUOUS
10
5.0497
20
-4.44971
11
5.05091
21
-4.44782
0
LINE
8
BLACK
6
CONTINUOUS
10
5.05091
20
-4.44782
11
5.05458
21
-4.44359
0
LINE
8
BLACK
6
CONTINUOUS
10
5.05458
20
-4.44359
11
5.05628
21
-4.44212
0
LINE
8
BLACK
6
CONTINUOUS
10
5.05628
20
-4.44212
11
5.06099
21
-4.43909
0
LINE
8
BLACK
6
CONTINUOUS
10
5.06099
20
-4.43909
11
5.06303
21
-4.43816
0
LINE
8
BLACK
6
CONTINUOUS
10
5.06303
20
-4.43816
11
5.06841
21
-4.43658
0
LINE
8
BLACK
6
CONTINUOUS
10
5.06841
20
-4.43658
11
5.07062
21
-4.43626
0
LINE
8
BLACK
6
CONTINUOUS
10
5.07062
20
-4.43626
11
5.07242
21
-4.43626
0
LINE
8
BLACK
6
CONTINUOUS
10
5.07242
20
-4.43626
11
5.07343
21
-4.43606
0
LINE
8
BLACK
6
CONTINUOUS
10
5.07343
20
-4.43606
11
5.09508
21
-4.43606
0
LINE
8
BLACK
6
CONTINUOUS
10
5.09508
20
-4.43606
11
5.09809
21
-4.43666
0
LINE
8
BLACK
6
CONTINUOUS
10
5.39301
20
-4.36273
11
5.39557
21
-4.36443
0
LINE
8
BLACK
6
CONTINUOUS
10
5.39557
20
-4.36443
11
5.39727
21
-4.36699
0
LINE
8
BLACK
6
CONTINUOUS
10
5.39727
20
-4.36699
11
5.39787
21
-4.37
0
LINE
8
BLACK
6
CONTINUOUS
10
5.39787
20
-4.37
11
5.39787
21
-4.43
0
LINE
8
BLACK
6
CONTINUOUS
10
5.39787
20
-4.43
11
5.39727
21
-4.43301
0
LINE
8
BLACK
6
CONTINUOUS
10
5.39727
20
-4.43301
11
5.39557
21
-4.43557
0
LINE
8
BLACK
6
CONTINUOUS
10
5.39557
20
-4.43557
11
5.39301
21
-4.43727
0
LINE
8
BLACK
6
CONTINUOUS
10
5.39301
20
-4.43727
11
5.39
21
-4.43787
0
LINE
8
BLACK
6
CONTINUOUS
10
5.39
20
-4.43787
11
5.33
21
-4.43787
0
LINE
8
BLACK
6
CONTINUOUS
10
5.33
20
-4.43787
11
5.32699
21
-4.43727
0
LINE
8
BLACK
6
CONTINUOUS
10
5.32699
20
-4.43727
11
5.32443
21
-4.43557
0
LINE
8
BLACK
6
CONTINUOUS
10
5.32443
20
-4.43557
11
5.32273
21
-4.43301
0
LINE
8
BLACK
6
CONTINUOUS
10
5.32273
20
-4.43301
11
5.32213
21
-4.43
0
LINE
8
BLACK
6
CONTINUOUS
10
5.32213
20
-4.43
11
5.32213
21
-4.37
0
LINE
8
BLACK
6
CONTINUOUS
10
5.32213
20
-4.37
11
5.32273
21
-4.36699
0
LINE
8
BLACK
6
CONTINUOUS
10
5.32273
20
-4.36699
11
5.32443
21
-4.36443
0
LINE
8
BLACK
6
CONTINUOUS
10
5.32443
20
-4.36443
11
5.32699
21
-4.36273
0
LINE
8
BLACK
6
CONTINUOUS
10
5.32699
20
-4.36273
11
5.33
21
-4.36213
0
LINE
8
BLACK
6
CONTINUOUS
10
5.33
20
-4.36213
11
5.39
21
-4.36213
0
LINE
8
BLACK
6
CONTINUOUS
10
5.39
20
-4.36213
11
5.39301
21
-4.36273
0
LINE
8
BLACK
6
CONTINUOUS
10
5.49301
20
-4.36273
11
5.49557
21
-4.36443
0
LINE
8
BLACK
6
CONTINUOUS
10
5.49557
20
-4.36443
11
5.49727
21
-4.36699
0
LINE
8
BLACK
6
CONTINUOUS
10
5.49727
20
-4.36699
11
5.49787
21
-4.37
0
LINE
8
BLACK
6
CONTINUOUS
10
5.49787
20
-4.37
11
5.49787
21
-4.43
0
LINE
8
BLACK
6
CONTINUOUS
10
5.49787
20
-4.43
11
5.49727
21
-4.43301
0
LINE
8
BLACK
6
CONTINUOUS
10
5.49727
20
-4.43301
11
5.49557
21
-4.43557
0
LINE
8
BLACK
6
CONTINUOUS
10
5.49557
20
-4.43557
11
5.49301
21
-4.43727
0
LINE
8
BLACK
6
CONTINUOUS
10
5.49301
20
-4.43727
11
5.49
21
-4.43787
0
LINE
8
BLACK
6
CONTINUOUS
10
5.49
20
-4.43787
11
5.43
21
-4.43787
0
LINE
8
BLACK
6
CONTINUOUS
10
5.43
20
-4.43787
11
5.42699
21
-4.43727
0
LINE
8
BLACK
6
CONTINUOUS
10
5.42699
20
-4.43727
11
5.42443
21
-4.43557
0
LINE
8
BLACK
6
CONTINUOUS
10
5.42443
20
-4.43557
11
5.42273
21
-4.43301
0
LINE
8
BLACK
6
CONTINUOUS
10
5.42273
20
-4.43301
11
5.42213
21
-4.43
0
LINE
8
BLACK
6
CONTINUOUS
10
5.42213
20
-4.43
11
5.42213
21
-4.37
0
LINE
8
BLACK
6
CONTINUOUS
10
5.42213
20
-4.37
11
5.42273
21
-4.36699
0
LINE
8
BLACK
6
CONTINUOUS
10
5.42273
20
-4.36699
11
5.42443
21
-4.36443
0
LINE
8
BLACK
6
CONTINUOUS
10
5.42443
20
-4.36443
11
5.42699
21
-4.36273
0
LINE
8
BLACK
6
CONTINUOUS
10
5.42699
20
-4.36273
11
5.43
21
-4.36213
0
LINE
8
BLACK
6
CONTINUOUS
10
5.43
20
-4.36213
11
5.49
21
-4.36213
0
LINE
8
BLACK
6
CONTINUOUS
10
5.49
20
-4.36213
11
5.49301
21
-4.36273
0
LINE
8
BLACK
6
CONTINUOUS
10
5.59301
20
-4.36273
11
5.59557
21
-4.36443
0
LINE
8
BLACK
6
CONTINUOUS
10
5.59557
20
-4.36443
11
5.59727
21
-4.36699
0
LINE
8
BLACK
6
CONTINUOUS
10
5.59727
20
-4.36699
11
5.59787
21
-4.37
0
LINE
8
BLACK
6
CONTINUOUS
10
5.59787
20
-4.37
11
5.59787
21
-4.43
0
LINE
8
BLACK
6
CONTINUOUS
10
5.59787
20
-4.43
11
5.59727
21
-4.43301
0
LINE
8
BLACK
6
CONTINUOUS
10
5.59727
20
-4.43301
11
5.59557
21
-4.43557
0
LINE
8
BLACK
6
CONTINUOUS
10
5.59557
20
-4.43557
11
5.59301
21
-4.43727
0
LINE
8
BLACK
6
CONTINUOUS
10
5.59301
20
-4.43727
11
5.59
21
-4.43787
0
LINE
8
BLACK
6
CONTINUOUS
10
5.59
20
-4.43787
11
5.53
21
-4.43787
0
LINE
8
BLACK
6
CONTINUOUS
10
5.53
20
-4.43787
11
5.52699
21
-4.43727
0
LINE
8
BLACK
6
CONTINUOUS
10
5.52699
20
-4.43727
11
5.52443
21
-4.43557
0
LINE
8
BLACK
6
CONTINUOUS
10
5.52443
20
-4.43557
11
5.52273
21
-4.43301
0
LINE
8
BLACK
6
CONTINUOUS
10
5.52273
20
-4.43301
11
5.52213
21
-4.43
0
LINE
8
BLACK
6
CONTINUOUS
10
5.52213
20
-4.43
11
5.52213
21
-4.37
0
LINE
8
BLACK
6
CONTINUOUS
10
5.52213
20
-4.37
11
5.52273
21
-4.36699
0
LINE
8
BLACK
6
CONTINUOUS
10
5.52273
20
-4.36699
11
5.52443
21
-4.36443
0
LINE
8
BLACK
6
CONTINUOUS
10
5.52443
20
-4.36443
11
5.52699
21
-4.36273
0
LINE
8
BLACK
6
CONTINUOUS
10
5.52699
20
-4.36273
11
5.53
21
-4.36213
0
LINE
8
BLACK
6
CONTINUOUS
10
5.53
20
-4.36213
11
5.59
21
-4.36213
0
LINE
8
BLACK
6
CONTINUOUS
10
5.59
20
-4.36213
11
5.59301
21
-4.36273
0
LINE
8
BLACK
6
CONTINUOUS
10
4.61411
20
-3.87481
11
4.62803
21
-3.87717
0
LINE
8
BLACK
6
CONTINUOUS
10
4.62803
20
-3.87717
11
4.64161
21
-3.88109
0
LINE
8
BLACK
6
CONTINUOUS
10
4.64161
20
-3.88109
11
4.65466
21
-3.88649
0
LINE
8
BLACK
6
CONTINUOUS
10
4.65466
20
-3.88649
11
4.66703
21
-3.89333
0
LINE
8
BLACK
6
CONTINUOUS
10
4.66703
20
-3.89333
11
4.67855
21
-3.9015
0
LINE
8
BLACK
6
CONTINUOUS
10
4.67855
20
-3.9015
11
4.68908
21
-3.91092
0
LINE
8
BLACK
6
CONTINUOUS
10
4.68908
20
-3.91092
11
4.6985
21
-3.92145
0
LINE
8
BLACK
6
CONTINUOUS
10
4.6985
20
-3.92145
11
4.70667
21
-3.93297
0
LINE
8
BLACK
6
CONTINUOUS
10
4.70667
20
-3.93297
11
4.71351
21
-3.94534
0
LINE
8
BLACK
6
CONTINUOUS
10
4.71351
20
-3.94534
11
4.71891
21
-3.95839
0
LINE
8
BLACK
6
CONTINUOUS
10
4.71891
20
-3.95839
11
4.72283
21
-3.97197
0
LINE
8
BLACK
6
CONTINUOUS
10
4.72283
20
-3.97197
11
4.72519
21
-3.98589
0
LINE
8
BLACK
6
CONTINUOUS
10
4.72519
20
-3.98589
11
4.72598
21
-4
0
LINE
8
BLACK
6
CONTINUOUS
10
4.72598
20
-4
11
4.72519
21
-4.01411
0
LINE
8
BLACK
6
CONTINUOUS
10
4.72519
20
-4.01411
11
4.72283
21
-4.02803
0
LINE
8
BLACK
6
CONTINUOUS
10
4.72283
20
-4.02803
11
4.71891
21
-4.04161
0
LINE
8
BLACK
6
CONTINUOUS
10
4.71891
20
-4.04161
11
4.71351
21
-4.05466
0
LINE
8
BLACK
6
CONTINUOUS
10
4.71351
20
-4.05466
11
4.70667
21
-4.06703
0
LINE
8
BLACK
6
CONTINUOUS
10
4.70667
20
-4.06703
11
4.6985
21
-4.07855
0
LINE
8
BLACK
6
CONTINUOUS
10
4.6985
20
-4.07855
11
4.68908
21
-4.08908
0
LINE
8
BLACK
6
CONTINUOUS
10
4.68908
20
-4.08908
11
4.67855
21
-4.0985
0
LINE
8
BLACK
6
CONTINUOUS
10
4.67855
20
-4.0985
11
4.66703
21
-4.10667
0
LINE
8
BLACK
6
CONTINUOUS
10
4.66703
20
-4.10667
11
4.65466
21
-4.11351
0
LINE
8
BLACK
6
CONTINUOUS
10
4.65466
20
-4.11351
11
4.64161
21
-4.11891
0
LINE
8
BLACK
6
CONTINUOUS
10
4.64161
20
-4.11891
11
4.62803
21
-4.12283
0
LINE
8
BLACK
6
CONTINUOUS
10
4.62803
20
-4.12283
11
4.61411
21
-4.12519
0
LINE
8
BLACK
6
CONTINUOUS
10
4.61411
20
-4.12519
11
4.6
21
-4.12598
0
LINE
8
BLACK
6
CONTINUOUS
10
4.6
20
-4.12598
11
4.58589
21
-4.12519
0
LINE
8
BLACK
6
CONTINUOUS
10
4.58589
20
-4.12519
11
4.57197
21
-4.12283
0
LINE
8
BLACK
6
CONTINUOUS
10
4.57197
20
-4.12283
11
4.55839
21
-4.11891
0
LINE
8
BLACK
6
CONTINUOUS
10
4.55839
20
-4.11891
11
4.54534
21
-4.11351
0
LINE
8
BLACK
6
CONTINUOUS
10
4.54534
20
-4.11351
11
4.53297
21
-4.10667
0
LINE
8
BLACK
6
CONTINUOUS
10
4.53297
20
-4.10667
11
4.52145
21
-4.0985
0
LINE
8
BLACK
6
CONTINUOUS
10
4.52145
20
-4.0985
11
4.51092
21
-4.08908
0
LINE
8
BLACK
6
CONTINUOUS
10
4.51092
20
-4.08908
11
4.5015
21
-4.07855
0
LINE
8
BLACK
6
CONTINUOUS
10
4.5015
20
-4.07855
11
4.49333
21
-4.06703
0
LINE
8
BLACK
6
CONTINUOUS
10
4.49333
20
-4.06703
11
4.48649
21
-4.05466
0
LINE
8
BLACK
6
CONTINUOUS
10
4.48649
20
-4.05466
11
4.48109
21
-4.04161
0
LINE
8
BLACK
6
CONTINUOUS
10
4.48109
20
-4.04161
11
4.47717
21
-4.02803
0
LINE
8
BLACK
6
CONTINUOUS
10
4.47717
20
-4.02803
11
4.47481
21
-4.01411
0
LINE
8
BLACK
6
CONTINUOUS
10
4.47481
20
-4.01411
11
4.47402
21
-4
0
LINE
8
BLACK
6
CONTINUOUS
10
4.47402
20
-4
11
4.47481
21
-3.98589
0
LINE
8
BLACK
6
CONTINUOUS
10
4.47481
20
-3.98589
11
4.47717
21
-3.97197
0
LINE
8
BLACK
6
CONTINUOUS
10
4.47717
20
-3.97197
11
4.48109
21
-3.95839
0
LINE
8
BLACK
6
CONTINUOUS
10
4.48109
20
-3.95839
11
4.48649
21
-3.94534
0
LINE
8
BLACK
6
CONTINUOUS
10
4.48649
20
-3.94534
11
4.49333
21
-3.93297
0
LINE
8
BLACK
6
CONTINUOUS
10
4.49333
20
-3.93297
11
4.5015
21
-3.92145
0
LINE
8
BLACK
6
CONTINUOUS
10
4.5015
20
-3.92145
11
4.51092
21
-3.91092
0
LINE
8
BLACK
6
CONTINUOUS
10
4.51092
20
-3.91092
11
4.52145
21
-3.9015
0
LINE
8
BLACK
6
CONTINUOUS
10
4.52145
20
-3.9015
11
4.53297
21
-3.89333
0
LINE
8
BLACK
6
CONTINUOUS
10
4.53297
20
-3.89333
11
4.54534
21
-3.88649
0
LINE
8
BLACK
6
CONTINUOUS
10
4.54534
20
-3.88649
11
4.55839
21
-3.88109
0
LINE
8
BLACK
6
CONTINUOUS
10
4.55839
20
-3.88109
11
4.57197
21
-3.87717
0
LINE
8
BLACK
6
CONTINUOUS
10
4.57197
20
-3.87717
11
4.58589
21
-3.87481
0
LINE
8
BLACK
6
CONTINUOUS
10
4.58589
20
-3.87481
11
4.6
21
-3.87402
0
LINE
8
BLACK
6
CONTINUOUS
10
4.6
20
-3.87402
11
4.61411
21
-3.87481
0
LINE
8
BLACK
6
CONTINUOUS
10
5.81411
20
-3.87481
11
5.82803
21
-3.87717
0
LINE
8
BLACK
6
CONTINUOUS
10
5.82803
20
-3.87717
11
5.84161
21
-3.88109
0
LINE
8
BLACK
6
CONTINUOUS
10
5.84161
20
-3.88109
11
5.85466
21
-3.88649
0
LINE
8
BLACK
6
CONTINUOUS
10
5.85466
20
-3.88649
11
5.86703
21
-3.89333
0
LINE
8
BLACK
6
CONTINUOUS
10
5.86703
20
-3.89333
11
5.87855
21
-3.9015
0
LINE
8
BLACK
6
CONTINUOUS
10
5.87855
20
-3.9015
11
5.88908
21
-3.91092
0
LINE
8
BLACK
6
CONTINUOUS
10
5.88908
20
-3.91092
11
5.8985
21
-3.92145
0
LINE
8
BLACK
6
CONTINUOUS
10
5.8985
20
-3.92145
11
5.90667
21
-3.93297
0
LINE
8
BLACK
6
CONTINUOUS
10
5.90667
20
-3.93297
11
5.91351
21
-3.94534
0
LINE
8
BLACK
6
CONTINUOUS
10
5.91351
20
-3.94534
11
5.91891
21
-3.95839
0
LINE
8
BLACK
6
CONTINUOUS
10
5.91891
20
-3.95839
11
5.92283
21
-3.97197
0
LINE
8
BLACK
6
CONTINUOUS
10
5.92283
20
-3.97197
11
5.92519
21
-3.98589
0
LINE
8
BLACK
6
CONTINUOUS
10
5.92519
20
-3.98589
11
5.92598
21
-4
0
LINE
8
BLACK
6
CONTINUOUS
10
5.92598
20
-4
11
5.92519
21
-4.01411
0
LINE
8
BLACK
6
CONTINUOUS
10
5.92519
20
-4.01411
11
5.92283
21
-4.02803
0
LINE
8
BLACK
6
CONTINUOUS
10
5.92283
20
-4.02803
11
5.91891
21
-4.04161
0
LINE
8
BLACK
6
CONTINUOUS
10
5.91891
20
-4.04161
11
5.91351
21
-4.05466
0
LINE
8
BLACK
6
CONTINUOUS
10
5.91351
20
-4.05466
11
5.90667
21
-4.06703
0
LINE
8
BLACK
6
CONTINUOUS
10
5.90667
20
-4.06703
11
5.8985
21
-4.07855
0
LINE
8
BLACK
6
CONTINUOUS
10
5.8985
20
-4.07855
11
5.88908
21
-4.08908
0
LINE
8
BLACK
6
CONTINUOUS
10
5.88908
20
-4.08908
11
5.87855
21
-4.0985
0
LINE
8
BLACK
6
CONTINUOUS
10
5.87855
20
-4.0985
11
5.86703
21
-4.10667
0
LINE
8
BLACK
6
CONTINUOUS
10
5.86703
20
-4.10667
11
5.85466
21
-4.11351
0
LINE
8
BLACK
6
CONTINUOUS
10
5.85466
20
-4.11351
11
5.84161
21
-4.11891
0
LINE
8
BLACK
6
CONTINUOUS
10
5.84161
20
-4.11891
11
5.82803
21
-4.12283
0
LINE
8
BLACK
6
CONTINUOUS
10
5.82803
20
-4.12283
11
5.81411
21
-4.12519
0
LINE
8
BLACK
6
CONTINUOUS
10
5.81411
20
-4.12519
11
5.8
21
-4.12598
0
LINE
8
BLACK
6
CONTINUOUS
10
5.8
20
-4.12598
11
5.78589
21
-4.12519
0
LINE
8
BLACK
6
CONTINUOUS
10
5.78589
20
-4.12519
11
5.77197
21
-4.12283
0
LINE
8
BLACK
6
CONTINUOUS
10
5.77197
20
-4.12283
11
5.75839
21
-4.11891
0
LINE
8
BLACK
6
CONTINUOUS
10
5.75839
20
-4.11891
11
5.74534
21
-4.11351
0
LINE
8
BLACK
6
CONTINUOUS
10
5.74534
20
-4.11351
11
5.73297
21
-4.10667
0
LINE
8
BLACK
6
CONTINUOUS
10
5.73297
20
-4.10667
11
5.72145
21
-4.0985
0
LINE
8
BLACK
6
CONTINUOUS
10
5.72145
20
-4.0985
11
5.71092
21
-4.08908
0
LINE
8
BLACK
6
CONTINUOUS
10
5.71092
20
-4.08908
11
5.7015
21
-4.07855
0
LINE
8
BLACK
6
CONTINUOUS
10
5.7015
20
-4.07855
11
5.69333
21
-4.06703
0
LINE
8
BLACK
6
CONTINUOUS
10
5.69333
20
-4.06703
11
5.68649
21
-4.05466
0
LINE
8
BLACK
6
CONTINUOUS
10
5.68649
20
-4.05466
11
5.68109
21
-4.04161
0
LINE
8
BLACK
6
CONTINUOUS
10
5.68109
20
-4.04161
11
5.67717
21
-4.02803
0
LINE
8
BLACK
6
CONTINUOUS
10
5.67717
20
-4.02803
11
5.67481
21
-4.01411
0
LINE
8
BLACK
6
CONTINUOUS
10
5.67481
20
-4.01411
11
5.67402
21
-4
0
LINE
8
BLACK
6
CONTINUOUS
10
5.67402
20
-4
11
5.67481
21
-3.98589
0
LINE
8
BLACK
6
CONTINUOUS
10
5.67481
20
-3.98589
11
5.67717
21
-3.97197
0
LINE
8
BLACK
6
CONTINUOUS
10
5.67717
20
-3.97197
11
5.68109
21
-3.95839
0
LINE
8
BLACK
6
CONTINUOUS
10
5.68109
20
-3.95839
11
5.68649
21
-3.94534
0
LINE
8
BLACK
6
CONTINUOUS
10
5.68649
20
-3.94534
11
5.69333
21
-3.93297
0
LINE
8
BLACK
6
CONTINUOUS
10
5.69333
20
-3.93297
11
5.7015
21
-3.92145
0
LINE
8
BLACK
6
CONTINUOUS
10
5.7015
20
-3.92145
11
5.71092
21
-3.91092
0
LINE
8
BLACK
6
CONTINUOUS
10
5.71092
20
-3.91092
11
5.72145
21
-3.9015
0
LINE
8
BLACK
6
CONTINUOUS
10
5.72145
20
-3.9015
11
5.73297
21
-3.89333
0
LINE
8
BLACK
6
CONTINUOUS
10
5.73297
20
-3.89333
11
5.74534
21
-3.88649
0
LINE
8
BLACK
6
CONTINUOUS
10
5.74534
20
-3.88649
11
5.75839
21
-3.88109
0
LINE
8
BLACK
6
CONTINUOUS
10
5.75839
20
-3.88109
11
5.77197
21
-3.87717
0
LINE
8
BLACK
6
CONTINUOUS
10
5.77197
20
-3.87717
11
5.78589
21
-3.87481
0
LINE
8
BLACK
6
CONTINUOUS
10
5.78589
20
-3.87481
11
5.8
21
-3.87402
0
LINE
8
BLACK
6
CONTINUOUS
10
5.8
20
-3.87402
11
5.81411
21
-3.87481
0
LINE
8
BLACK
6
CONTINUOUS
10
4.91301
20
-3.97273
11
4.91557
21
-3.97443
0
LINE
8
BLACK
6
CONTINUOUS
10
4.91557
20
-3.97443
11
4.91727
21
-3.97699
0
LINE
8
BLACK
6
CONTINUOUS
10
4.91727
20
-3.97699
11
4.91787
21
-3.98
0
LINE
8
BLACK
6
CONTINUOUS
10
4.91787
20
-3.98
11
4.91787
21
-4.04
0
LINE
8
BLACK
6
CONTINUOUS
10
4.91787
20
-4.04
11
4.91727
21
-4.04301
0
LINE
8
BLACK
6
CONTINUOUS
10
4.91727
20
-4.04301
11
4.91557
21
-4.04557
0
LINE
8
BLACK
6
CONTINUOUS
10
4.91557
20
-4.04557
11
4.91301
21
-4.04727
0
LINE
8
BLACK
6
CONTINUOUS
10
4.91301
20
-4.04727
11
4.91
21
-4.04787
0
LINE
8
BLACK
6
CONTINUOUS
10
4.91
20
-4.04787
11
4.85
21
-4.04787
0
LINE
8
BLACK
6
CONTINUOUS
10
4.85
20
-4.04787
11
4.84699
21
-4.04727
0
LINE
8
BLACK
6
CONTINUOUS
10
4.84699
20
-4.04727
11
4.84443
21
-4.04557
0
LINE
8
BLACK
6
CONTINUOUS
10
4.84443
20
-4.04557
11
4.84273
21
-4.04301
0
LINE
8
BLACK
6
CONTINUOUS
10
4.84273
20
-4.04301
11
4.84213
21
-4.04
0
LINE
8
BLACK
6
CONTINUOUS
10
4.84213
20
-4.04
11
4.84213
21
-3.98
0
LINE
8
BLACK
6
CONTINUOUS
10
4.84213
20
-3.98
11
4.84273
21
-3.97699
0
LINE
8
BLACK
6
CONTINUOUS
10
4.84273
20
-3.97699
11
4.84443
21
-3.97443
0
LINE
8
BLACK
6
CONTINUOUS
10
4.84443
20
-3.97443
11
4.84699
21
-3.97273
0
LINE
8
BLACK
6
CONTINUOUS
10
4.84699
20
-3.97273
11
4.85
21
-3.97213
0
LINE
8
BLACK
6
CONTINUOUS
10
4.85
20
-3.97213
11
4.91
21
-3.97213
0
LINE
8
BLACK
6
CONTINUOUS
10
4.91
20
-3.97213
11
4.91301
21
-3.97273
0
LINE
8
BLACK
6
CONTINUOUS
10
5.01301
20
-3.97273
11
5.01557
21
-3.97443
0
LINE
8
BLACK
6
CONTINUOUS
10
5.01557
20
-3.97443
11
5.01727
21
-3.97699
0
LINE
8
BLACK
6
CONTINUOUS
10
5.01727
20
-3.97699
11
5.01787
21
-3.98
0
LINE
8
BLACK
6
CONTINUOUS
10
5.01787
20
-3.98
11
5.01787
21
-4.04
0
LINE
8
BLACK
6
CONTINUOUS
10
5.01787
20
-4.04
11
5.01727
21
-4.04301
0
LINE
8
BLACK
6
CONTINUOUS
10
5.01727
20
-4.04301
11
5.01557
21
-4.04557
0
LINE
8
BLACK
6
CONTINUOUS
10
5.01557
20
-4.04557
11
5.01301
21
-4.04727
0
LINE
8
BLACK
6
CONTINUOUS
10
5.01301
20
-4.04727
11
5.01
21
-4.04787
0
LINE
8
BLACK
6
CONTINUOUS
10
5.01
20
-4.04787
11
4.95
21
-4.04787
0
LINE
8
BLACK
6
CONTINUOUS
10
4.95
20
-4.04787
11
4.94699
21
-4.04727
0
LINE
8
BLACK
6
CONTINUOUS
10
4.94699
20
-4.04727
11
4.94443
21
-4.04557
0
LINE
8
BLACK
6
CONTINUOUS
10
4.94443
20
-4.04557
11
4.94273
21
-4.04301
0
LINE
8
BLACK
6
CONTINUOUS
10
4.94273
20
-4.04301
11
4.94213
21
-4.04
0
LINE
8
BLACK
6
CONTINUOUS
10
4.94213
20
-4.04
11
4.94213
21
-3.98
0
LINE
8
BLACK
6
CONTINUOUS
10
4.94213
20
-3.98
11
4.94273
21
-3.97699
0
LINE
8
BLACK
6
CONTINUOUS
10
4.94273
20
-3.97699
11
4.94443
21
-3.97443
0
LINE
8
BLACK
6
CONTINUOUS
10
4.94443
20
-3.97443
11
4.94699
21
-3.97273
0
LINE
8
BLACK
6
CONTINUOUS
10
4.94699
20
-3.97273
11
4.95
21
-3.97213
0
LINE
8
BLACK
6
CONTINUOUS
10
4.95
20
-3.97213
11
5.01
21
-3.97213
0
LINE
8
BLACK
6
CONTINUOUS
10
5.01
20
-3.97213
11
5.01301
21
-3.97273
0
LINE
8
BLACK
6
CONTINUOUS
10
5.20301
20
-3.97273
11
5.20557
21
-3.97443
0
LINE
8
BLACK
6
CONTINUOUS
10
5.20557
20
-3.97443
11
5.20727
21
-3.97699
0
LINE
8
BLACK
6
CONTINUOUS
10
5.20727
20
-3.97699
11
5.20787
21
-3.98
0
LINE
8
BLACK
6
CONTINUOUS
10
5.20787
20
-3.98
11
5.20787
21
-4.04
0
LINE
8
BLACK
6
CONTINUOUS
10
5.20787
20
-4.04
11
5.20727
21
-4.04301
0
LINE
8
BLACK
6
CONTINUOUS
10
5.20727
20
-4.04301
11
5.20557
21
-4.04557
0
LINE
8
BLACK
6
CONTINUOUS
10
5.20557
20
-4.04557
11
5.20301
21
-4.04727
0
LINE
8
BLACK
6
CONTINUOUS
10
5.20301
20
-4.04727
11
5.2
21
-4.04787
0
LINE
8
BLACK
6
CONTINUOUS
10
5.2
20
-4.04787
11
5.14
21
-4.04787
0
LINE
8
BLACK
6
CONTINUOUS
10
5.14
20
-4.04787
11
5.13699
21
-4.04727
0
LINE
8
BLACK
6
CONTINUOUS
10
5.13699
20
-4.04727
11
5.13443
21
-4.04557
0
LINE
8
BLACK
6
CONTINUOUS
10
5.13443
20
-4.04557
11
5.13273
21
-4.04301
0
LINE
8
BLACK
6
CONTINUOUS
10
5.13273
20
-4.04301
11
5.13213
21
-4.04
0
LINE
8
BLACK
6
CONTINUOUS
10
5.13213
20
-4.04
11
5.13213
21
-3.98
0
LINE
8
BLACK
6
CONTINUOUS
10
5.13213
20
-3.98
11
5.13273
21
-3.97699
0
LINE
8
BLACK
6
CONTINUOUS
10
5.13273
20
-3.97699
11
5.13443
21
-3.97443
0
LINE
8
BLACK
6
CONTINUOUS
10
5.13443
20
-3.97443
11
5.13699
21
-3.97273
0
LINE
8
BLACK
6
CONTINUOUS
10
5.13699
20
-3.97273
11
5.14
21
-3.97213
0
LINE
8
BLACK
6
CONTINUOUS
10
5.14
20
-3.97213
11
5.2
21
-3.97213
0
LINE
8
BLACK
6
CONTINUOUS
10
5.2
20
-3.97213
11
5.20301
21
-3.97273
0
LINE
8
BLACK
6
CONTINUOUS
10
5.30301
20
-3.97273
11
5.30557
21
-3.97443
0
LINE
8
BLACK
6
CONTINUOUS
10
5.30557
20
-3.97443
11
5.30727
21
-3.97699
0
LINE
8
BLACK
6
CONTINUOUS
10
5.30727
20
-3.97699
11
5.30787
21
-3.98
0
LINE
8
BLACK
6
CONTINUOUS
10
5.30787
20
-3.98
11
5.30787
21
-4.04
0
LINE
8
BLACK
6
CONTINUOUS
10
5.30787
20
-4.04
11
5.30727
21
-4.04301
0
LINE
8
BLACK
6
CONTINUOUS
10
5.30727
20
-4.04301
11
5.30557
21
-4.04557
0
LINE
8
BLACK
6
CONTINUOUS
10
5.30557
20
-4.04557
11
5.30301
21
-4.04727
0
LINE
8
BLACK
6
CONTINUOUS
10
5.30301
20
-4.04727
11
5.3
21
-4.04787
0
LINE
8
BLACK
6
CONTINUOUS
10
5.3
20
-4.04787
11
5.24
21
-4.04787
0
LINE
8
BLACK
6
CONTINUOUS
10
5.24
20
-4.04787
11
5.23699
21
-4.04727
0
LINE
8
BLACK
6
CONTINUOUS
10
5.23699
20
-4.04727
11
5.23443
21
-4.04557
0
LINE
8
BLACK
6
CONTINUOUS
10
5.23443
20
-4.04557
11
5.23273
21
-4.04301
0
LINE
8
BLACK
6
CONTINUOUS
10
5.23273
20
-4.04301
11
5.23213
21
-4.04
0
LINE
8
BLACK
6
CONTINUOUS
10
5.23213
20
-4.04
11
5.23213
21
-3.98
0
LINE
8
BLACK
6
CONTINUOUS
10
5.23213
20
-3.98
11
5.23273
21
-3.97699
0
LINE
8
BLACK
6
CONTINUOUS
10
5.23273
20
-3.97699
11
5.23443
21
-3.97443
0
LINE
8
BLACK
6
CONTINUOUS
10
5.23443
20
-3.97443
11
5.23699
21
-3.97273
0
LINE
8
BLACK
6
CONTINUOUS
10
5.23699
20
-3.97273
11
5.24
21
-3.97213
0
LINE
8
BLACK
6
CONTINUOUS
10
5.24
20
-3.97213
11
5.3
21
-3.97213
0
LINE
8
BLACK
6
CONTINUOUS
10
5.3
20
-3.97213
11
5.30301
21
-3.97273
0
LINE
8
BLACK
6
CONTINUOUS
10
5.40301
20
-3.97273
11
5.40557
21
-3.97443
0
LINE
8
BLACK
6
CONTINUOUS
10
5.40557
20
-3.97443
11
5.40727
21
-3.97699
0
LINE
8
BLACK
6
CONTINUOUS
10
5.40727
20
-3.97699
11
5.40787
21
-3.98
0
LINE
8
BLACK
6
CONTINUOUS
10
5.40787
20
-3.98
11
5.40787
21
-4.04
0
LINE
8
BLACK
6
CONTINUOUS
10
5.40787
20
-4.04
11
5.40727
21
-4.04301
0
LINE
8
BLACK
6
CONTINUOUS
10
5.40727
20
-4.04301
11
5.40557
21
-4.04557
0
LINE
8
BLACK
6
CONTINUOUS
10
5.40557
20
-4.04557
11
5.40301
21
-4.04727
0
LINE
8
BLACK
6
CONTINUOUS
10
5.40301
20
-4.04727
11
5.4
21
-4.04787
0
LINE
8
BLACK
6
CONTINUOUS
10
5.4
20
-4.04787
11
5.34
21
-4.04787
0
LINE
8
BLACK
6
CONTINUOUS
10
5.34
20
-4.04787
11
5.33699
21
-4.04727
0
LINE
8
BLACK
6
CONTINUOUS
10
5.33699
20
-4.04727
11
5.33443
21
-4.04557
0
LINE
8
BLACK
6
CONTINUOUS
10
5.33443
20
-4.04557
11
5.33273
21
-4.04301
0
LINE
8
BLACK
6
CONTINUOUS
10
5.33273
20
-4.04301
11
5.33213
21
-4.04
0
LINE
8
BLACK
6
CONTINUOUS
10
5.33213
20
-4.04
11
5.33213
21
-3.98
0
LINE
8
BLACK
6
CONTINUOUS
10
5.33213
20
-3.98
11
5.33273
21
-3.97699
0
LINE
8
BLACK
6
CONTINUOUS
10
5.33273
20
-3.97699
11
5.33443
21
-3.97443
0
LINE
8
BLACK
6
CONTINUOUS
10
5.33443
20
-3.97443
11
5.33699
21
-3.97273
0
LINE
8
BLACK
6
CONTINUOUS
10
5.33699
20
-3.97273
11
5.34
21
-3.97213
0
LINE
8
BLACK
6
CONTINUOUS
10
5.34
20
-3.97213
11
5.4
21
-3.97213
0
LINE
8
BLACK
6
CONTINUOUS
10
5.4
20
-3.97213
11
5.40301
21
-3.97273
0
LINE
8
BLACK
6
CONTINUOUS
10
5.50301
20
-3.97273
11
5.50557
21
-3.97443
0
LINE
8
BLACK
6
CONTINUOUS
10
5.50557
20
-3.97443
11
5.50727
21
-3.97699
0
LINE
8
BLACK
6
CONTINUOUS
10
5.50727
20
-3.97699
11
5.50787
21
-3.98
0
LINE
8
BLACK
6
CONTINUOUS
10
5.50787
20
-3.98
11
5.50787
21
-4.04
0
LINE
8
BLACK
6
CONTINUOUS
10
5.50787
20
-4.04
11
5.50727
21
-4.04301
0
LINE
8
BLACK
6
CONTINUOUS
10
5.50727
20
-4.04301
11
5.50557
21
-4.04557
0
LINE
8
BLACK
6
CONTINUOUS
10
5.50557
20
-4.04557
11
5.50301
21
-4.04727
0
LINE
8
BLACK
6
CONTINUOUS
10
5.50301
20
-4.04727
11
5.5
21
-4.04787
0
LINE
8
BLACK
6
CONTINUOUS
10
5.5
20
-4.04787
11
5.44
21
-4.04787
0
LINE
8
BLACK
6
CONTINUOUS
10
5.44
20
-4.04787
11
5.43699
21
-4.04727
0
LINE
8
BLACK
6
CONTINUOUS
10
5.43699
20
-4.04727
11
5.43443
21
-4.04557
0
LINE
8
BLACK
6
CONTINUOUS
10
5.43443
20
-4.04557
11
5.43273
21
-4.04301
0
LINE
8
BLACK
6
CONTINUOUS
10
5.43273
20
-4.04301
11
5.43213
21
-4.04
0
LINE
8
BLACK
6
CONTINUOUS
10
5.43213
20
-4.04
11
5.43213
21
-3.98
0
LINE
8
BLACK
6
CONTINUOUS
10
5.43213
20
-3.98
11
5.43273
21
-3.97699
0
LINE
8
BLACK
6
CONTINUOUS
10
5.43273
20
-3.97699
11
5.43443
21
-3.97443
0
LINE
8
BLACK
6
CONTINUOUS
10
5.43443
20
-3.97443
11
5.43699
21
-3.97273
0
LINE
8
BLACK
6
CONTINUOUS
10
5.43699
20
-3.97273
11
5.44
21
-3.97213
0
LINE
8
BLACK
6
CONTINUOUS
10
5.44
20
-3.97213
11
5.5
21
-3.97213
0
LINE
8
BLACK
6
CONTINUOUS
10
5.5
20
-3.97213
11
5.50301
21
-3.97273
0
LINE
8
BLACK
6
CONTINUOUS
10
5.60301
20
-3.97273
11
5.60557
21
-3.97443
0
LINE
8
BLACK
6
CONTINUOUS
10
5.60557
20
-3.97443
11
5.60727
21
-3.97699
0
LINE
8
BLACK
6
CONTINUOUS
10
5.60727
20
-3.97699
11
5.60787
21
-3.98
0
LINE
8
BLACK
6
CONTINUOUS
10
5.60787
20
-3.98
11
5.60787
21
-4.04
0
LINE
8
BLACK
6
CONTINUOUS
10
5.60787
20
-4.04
11
5.60727
21
-4.04301
0
LINE
8
BLACK
6
CONTINUOUS
10
5.60727
20
-4.04301
11
5.60557
21
-4.04557
0
LINE
8
BLACK
6
CONTINUOUS
10
5.60557
20
-4.04557
11
5.60301
21
-4.04727
0
LINE
8
BLACK
6
CONTINUOUS
10
5.60301
20
-4.04727
11
5.6
21
-4.04787
0
LINE
8
BLACK
6
CONTINUOUS
10
5.6
20
-4.04787
11
5.54
21
-4.04787
0
LINE
8
BLACK
6
CONTINUOUS
10
5.54
20
-4.04787
11
5.53699
21
-4.04727
0
LINE
8
BLACK
6
CONTINUOUS
10
5.53699
20
-4.04727
11
5.53443
21
-4.04557
0
LINE
8
BLACK
6
CONTINUOUS
10
5.53443
20
-4.04557
11
5.53273
21
-4.04301
0
LINE
8
BLACK
6
CONTINUOUS
10
5.53273
20
-4.04301
11
5.53213
21
-4.04
0
LINE
8
BLACK
6
CONTINUOUS
10
5.53213
20
-4.04
11
5.53213
21
-3.98
0
LINE
8
BLACK
6
CONTINUOUS
10
5.53213
20
-3.98
11
5.53273
21
-3.97699
0
LINE
8
BLACK
6
CONTINUOUS
10
5.53273
20
-3.97699
11
5.53443
21
-3.97443
0
LINE
8
BLACK
6
CONTINUOUS
10
5.53443
20
-3.97443
11
5.53699
21
-3.97273
0
LINE
8
BLACK
6
CONTINUOUS
10
5.53699
20
-3.97273
11
5.54
21
-3.97213
0
LINE
8
BLACK
6
CONTINUOUS
10
5.54
20
-3.97213
11
5.6
21
-3.97213
0
LINE
8
BLACK
6
CONTINUOUS
10
5.6
20
-3.97213
11
5.60301
21
-3.97273
0
LINE
8
BLACK
6
CONTINUOUS
10
4.91301
20
-3.87273
11
4.91557
21
-3.87443
0
LINE
8
BLACK
6
CONTINUOUS
10
4.91557
20
-3.87443
11
4.91727
21
-3.87699
0
LINE
8
BLACK
6
CONTINUOUS
10
4.91727
20
-3.87699
11
4.91787
21
-3.88
0
LINE
8
BLACK
6
CONTINUOUS
10
4.91787
20
-3.88
11
4.91787
21
-3.94
0
LINE
8
BLACK
6
CONTINUOUS
10
4.91787
20
-3.94
11
4.91727
21
-3.94301
0
LINE
8
BLACK
6
CONTINUOUS
10
4.91727
20
-3.94301
11
4.91557
21
-3.94557
0
LINE
8
BLACK
6
CONTINUOUS
10
4.91557
20
-3.94557
11
4.91301
21
-3.94727
0
LINE
8
BLACK
6
CONTINUOUS
10
4.91301
20
-3.94727
11
4.91
21
-3.94787
0
LINE
8
BLACK
6
CONTINUOUS
10
4.91
20
-3.94787
11
4.85
21
-3.94787
0
LINE
8
BLACK
6
CONTINUOUS
10
4.85
20
-3.94787
11
4.84699
21
-3.94727
0
LINE
8
BLACK
6
CONTINUOUS
10
4.84699
20
-3.94727
11
4.84443
21
-3.94557
0
LINE
8
BLACK
6
CONTINUOUS
10
4.84443
20
-3.94557
11
4.84273
21
-3.94301
0
LINE
8
BLACK
6
CONTINUOUS
10
4.84273
20
-3.94301
11
4.84213
21
-3.94
0
LINE
8
BLACK
6
CONTINUOUS
10
4.84213
20
-3.94
11
4.84213
21
-3.88
0
LINE
8
BLACK
6
CONTINUOUS
10
4.84213
20
-3.88
11
4.84273
21
-3.87699
0
LINE
8
BLACK
6
CONTINUOUS
10
4.84273
20
-3.87699
11
4.84443
21
-3.87443
0
LINE
8
BLACK
6
CONTINUOUS
10
4.84443
20
-3.87443
11
4.84699
21
-3.87273
0
LINE
8
BLACK
6
CONTINUOUS
10
4.84699
20
-3.87273
11
4.85
21
-3.87213
0
LINE
8
BLACK
6
CONTINUOUS
10
4.85
20
-3.87213
11
4.91
21
-3.87213
0
LINE
8
BLACK
6
CONTINUOUS
10
4.91
20
-3.87213
11
4.91301
21
-3.87273
0
LINE
8
BLACK
6
CONTINUOUS
10
5.01301
20
-3.87273
11
5.01557
21
-3.87443
0
LINE
8
BLACK
6
CONTINUOUS
10
5.01557
20
-3.87443
11
5.01727
21
-3.87699
0
LINE
8
BLACK
6
CONTINUOUS
10
5.01727
20
-3.87699
11
5.01787
21
-3.88
0
LINE
8
BLACK
6
CONTINUOUS
10
5.01787
20
-3.88
11
5.01787
21
-3.94
0
LINE
8
BLACK
6
CONTINUOUS
10
5.01787
20
-3.94
11
5.01727
21
-3.94301
0
LINE
8
BLACK
6
CONTINUOUS
10
5.01727
20
-3.94301
11
5.01557
21
-3.94557
0
LINE
8
BLACK
6
CONTINUOUS
10
5.01557
20
-3.94557
11
5.01301
21
-3.94727
0
LINE
8
BLACK
6
CONTINUOUS
10
5.01301
20
-3.94727
11
5.01
21
-3.94787
0
LINE
8
BLACK
6
CONTINUOUS
10
5.01
20
-3.94787
11
4.95
21
-3.94787
0
LINE
8
BLACK
6
CONTINUOUS
10
4.95
20
-3.94787
11
4.94699
21
-3.94727
0
LINE
8
BLACK
6
CONTINUOUS
10
4.94699
20
-3.94727
11
4.94443
21
-3.94557
0
LINE
8
BLACK
6
CONTINUOUS
10
4.94443
20
-3.94557
11
4.94273
21
-3.94301
0
LINE
8
BLACK
6
CONTINUOUS
10
4.94273
20
-3.94301
11
4.94213
21
-3.94
0
LINE
8
BLACK
6
CONTINUOUS
10
4.94213
20
-3.94
11
4.94213
21
-3.88
0
LINE
8
BLACK
6
CONTINUOUS
10
4.94213
20
-3.88
11
4.94273
21
-3.87699
0
LINE
8
BLACK
6
CONTINUOUS
10
4.94273
20
-3.87699
11
4.94443
21
-3.87443
0
LINE
8
BLACK
6
CONTINUOUS
10
4.94443
20
-3.87443
11
4.94699
21
-3.87273
0
LINE
8
BLACK
6
CONTINUOUS
10
4.94699
20
-3.87273
11
4.95
21
-3.87213
0
LINE
8
BLACK
6
CONTINUOUS
10
4.95
20
-3.87213
11
5.01
21
-3.87213
0
LINE
8
BLACK
6
CONTINUOUS
10
5.01
20
-3.87213
11
5.01301
21
-3.87273
0
LINE
8
BLACK
6
CONTINUOUS
10
5.20301
20
-3.87273
11
5.20557
21
-3.87443
0
LINE
8
BLACK
6
CONTINUOUS
10
5.20557
20
-3.87443
11
5.20727
21
-3.87699
0
LINE
8
BLACK
6
CONTINUOUS
10
5.20727
20
-3.87699
11
5.20787
21
-3.88
0
LINE
8
BLACK
6
CONTINUOUS
10
5.20787
20
-3.88
11
5.20787
21
-3.94
0
LINE
8
BLACK
6
CONTINUOUS
10
5.20787
20
-3.94
11
5.20727
21
-3.94301
0
LINE
8
BLACK
6
CONTINUOUS
10
5.20727
20
-3.94301
11
5.20557
21
-3.94557
0
LINE
8
BLACK
6
CONTINUOUS
10
5.20557
20
-3.94557
11
5.20301
21
-3.94727
0
LINE
8
BLACK
6
CONTINUOUS
10
5.20301
20
-3.94727
11
5.2
21
-3.94787
0
LINE
8
BLACK
6
CONTINUOUS
10
5.2
20
-3.94787
11
5.14
21
-3.94787
0
LINE
8
BLACK
6
CONTINUOUS
10
5.14
20
-3.94787
11
5.13699
21
-3.94727
0
LINE
8
BLACK
6
CONTINUOUS
10
5.13699
20
-3.94727
11
5.13443
21
-3.94557
0
LINE
8
BLACK
6
CONTINUOUS
10
5.13443
20
-3.94557
11
5.13273
21
-3.94301
0
LINE
8
BLACK
6
CONTINUOUS
10
5.13273
20
-3.94301
11
5.13213
21
-3.94
0
LINE
8
BLACK
6
CONTINUOUS
10
5.13213
20
-3.94
11
5.13213
21
-3.88
0
LINE
8
BLACK
6
CONTINUOUS
10
5.13213
20
-3.88
11
5.13273
21
-3.87699
0
LINE
8
BLACK
6
CONTINUOUS
10
5.13273
20
-3.87699
11
5.13443
21
-3.87443
0
LINE
8
BLACK
6
CONTINUOUS
10
5.13443
20
-3.87443
11
5.13699
21
-3.87273
0
LINE
8
BLACK
6
CONTINUOUS
10
5.13699
20
-3.87273
11
5.14
21
-3.87213
0
LINE
8
BLACK
6
CONTINUOUS
10
5.14
20
-3.87213
11
5.2
21
-3.87213
0
LINE
8
BLACK
6
CONTINUOUS
10
5.2
20
-3.87213
11
5.20301
21
-3.87273
0
LINE
8
BLACK
6
CONTINUOUS
10
5.30301
20
-3.87273
11
5.30557
21
-3.87443
0
LINE
8
BLACK
6
CONTINUOUS
10
5.30557
20
-3.87443
11
5.30727
21
-3.87699
0
LINE
8
BLACK
6
CONTINUOUS
10
5.30727
20
-3.87699
11
5.30787
21
-3.88
0
LINE
8
BLACK
6
CONTINUOUS
10
5.30787
20
-3.88
11
5.30787
21
-3.94
0
LINE
8
BLACK
6
CONTINUOUS
10
5.30787
20
-3.94
11
5.30727
21
-3.94301
0
LINE
8
BLACK
6
CONTINUOUS
10
5.30727
20
-3.94301
11
5.30557
21
-3.94557
0
LINE
8
BLACK
6
CONTINUOUS
10
5.30557
20
-3.94557
11
5.30301
21
-3.94727
0
LINE
8
BLACK
6
CONTINUOUS
10
5.30301
20
-3.94727
11
5.3
21
-3.94787
0
LINE
8
BLACK
6
CONTINUOUS
10
5.3
20
-3.94787
11
5.24
21
-3.94787
0
LINE
8
BLACK
6
CONTINUOUS
10
5.24
20
-3.94787
11
5.23699
21
-3.94727
0
LINE
8
BLACK
6
CONTINUOUS
10
5.23699
20
-3.94727
11
5.23443
21
-3.94557
0
LINE
8
BLACK
6
CONTINUOUS
10
5.23443
20
-3.94557
11
5.23273
21
-3.94301
0
LINE
8
BLACK
6
CONTINUOUS
10
5.23273
20
-3.94301
11
5.23213
21
-3.94
0
LINE
8
BLACK
6
CONTINUOUS
10
5.23213
20
-3.94
11
5.23213
21
-3.88
0
LINE
8
BLACK
6
CONTINUOUS
10
5.23213
20
-3.88
11
5.23273
21
-3.87699
0
LINE
8
BLACK
6
CONTINUOUS
10
5.23273
20
-3.87699
11
5.23443
21
-3.87443
0
LINE
8
BLACK
6
CONTINUOUS
10
5.23443
20
-3.87443
11
5.23699
21
-3.87273
0
LINE
8
BLACK
6
CONTINUOUS
10
5.23699
20
-3.87273
11
5.24
21
-3.87213
0
LINE
8
BLACK
6
CONTINUOUS
10
5.24
20
-3.87213
11
5.3
21
-3.87213
0
LINE
8
BLACK
6
CONTINUOUS
10
5.3
20
-3.87213
11
5.30301
21
-3.87273
0
LINE
8
BLACK
6
CONTINUOUS
10
5.40301
20
-3.87273
11
5.40557
21
-3.87443
0
LINE
8
BLACK
6
CONTINUOUS
10
5.40557
20
-3.87443
11
5.40727
21
-3.87699
0
LINE
8
BLACK
6
CONTINUOUS
10
5.40727
20
-3.87699
11
5.40787
21
-3.88
0
LINE
8
BLACK
6
CONTINUOUS
10
5.40787
20
-3.88
11
5.40787
21
-3.94
0
LINE
8
BLACK
6
CONTINUOUS
10
5.40787
20
-3.94
11
5.40727
21
-3.94301
0
LINE
8
BLACK
6
CONTINUOUS
10
5.40727
20
-3.94301
11
5.40557
21
-3.94557
0
LINE
8
BLACK
6
CONTINUOUS
10
5.40557
20
-3.94557
11
5.40301
21
-3.94727
0
LINE
8
BLACK
6
CONTINUOUS
10
5.40301
20
-3.94727
11
5.4
21
-3.94787
0
LINE
8
BLACK
6
CONTINUOUS
10
5.4
20
-3.94787
11
5.34
21
-3.94787
0
LINE
8
BLACK
6
CONTINUOUS
10
5.34
20
-3.94787
11
5.33699
21
-3.94727
0
LINE
8
BLACK
6
CONTINUOUS
10
5.33699
20
-3.94727
11
5.33443
21
-3.94557
0
LINE
8
BLACK
6
CONTINUOUS
10
5.33443
20
-3.94557
11
5.33273
21
-3.94301
0
LINE
8
BLACK
6
CONTINUOUS
10
5.33273
20
-3.94301
11
5.33213
21
-3.94
0
LINE
8
BLACK
6
CONTINUOUS
10
5.33213
20
-3.94
11
5.33213
21
-3.88
0
LINE
8
BLACK
6
CONTINUOUS
10
5.33213
20
-3.88
11
5.33273
21
-3.87699
0
LINE
8
BLACK
6
CONTINUOUS
10
5.33273
20
-3.87699
11
5.33443
21
-3.87443
0
LINE
8
BLACK
6
CONTINUOUS
10
5.33443
20
-3.87443
11
5.33699
21
-3.87273
0
LINE
8
BLACK
6
CONTINUOUS
10
5.33699
20
-3.87273
11
5.34
21
-3.87213
0
LINE
8
BLACK
6
CONTINUOUS
10
5.34
20
-3.87213
11
5.4
21
-3.87213
0
LINE
8
BLACK
6
CONTINUOUS
10
5.4
20
-3.87213
11
5.40301
21
-3.87273
0
LINE
8
BLACK
6
CONTINUOUS
10
5.50301
20
-3.87273
11
5.50557
21
-3.87443
0
LINE
8
BLACK
6
CONTINUOUS
10
5.50557
20
-3.87443
11
5.50727
21
-3.87699
0
LINE
8
BLACK
6
CONTINUOUS
10
5.50727
20
-3.87699
11
5.50787
21
-3.88
0
LINE
8
BLACK
6
CONTINUOUS
10
5.50787
20
-3.88
11
5.50787
21
-3.94
0
LINE
8
BLACK
6
CONTINUOUS
10
5.50787
20
-3.94
11
5.50727
21
-3.94301
0
LINE
8
BLACK
6
CONTINUOUS
10
5.50727
20
-3.94301
11
5.50557
21
-3.94557
0
LINE
8
BLACK
6
CONTINUOUS
10
5.50557
20
-3.94557
11
5.50301
21
-3.94727
0
LINE
8
BLACK
6
CONTINUOUS
10
5.50301
20
-3.94727
11
5.5
21
-3.94787
0
LINE
8
BLACK
6
CONTINUOUS
10
5.5
20
-3.94787
11
5.44
21
-3.94787
0
LINE
8
BLACK
6
CONTINUOUS
10
5.44
20
-3.94787
11
5.43699
21
-3.94727
0
LINE
8
BLACK
6
CONTINUOUS
10
5.43699
20
-3.94727
11
5.43443
21
-3.94557
0
LINE
8
BLACK
6
CONTINUOUS
10
5.43443
20
-3.94557
11
5.43273
21
-3.94301
0
LINE
8
BLACK
6
CONTINUOUS
10
5.43273
20
-3.94301
11
5.43213
21
-3.94
0
LINE
8
BLACK
6
CONTINUOUS
10
5.43213
20
-3.94
11
5.43213
21
-3.88
0
LINE
8
BLACK
6
CONTINUOUS
10
5.43213
20
-3.88
11
5.43273
21
-3.87699
0
LINE
8
BLACK
6
CONTINUOUS
10
5.43273
20
-3.87699
11
5.43443
21
-3.87443
0
LINE
8
BLACK
6
CONTINUOUS
10
5.43443
20
-3.87443
11
5.43699
21
-3.87273
0
LINE
8
BLACK
6
CONTINUOUS
10
5.43699
20
-3.87273
11
5.44
21
-3.87213
0
LINE
8
BLACK
6
CONTINUOUS
10
5.44
20
-3.87213
11
5.5
21
-3.87213
0
LINE
8
BLACK
6
CONTINUOUS
10
5.5
20
-3.87213
11
5.50301
21
-3.87273
0
LINE
8
BLACK
6
CONTINUOUS
10
5.60301
20
-3.87273
11
5.60557
21
-3.87443
0
LINE
8
BLACK
6
CONTINUOUS
10
5.60557
20
-3.87443
11
5.60727
21
-3.87699
0
LINE
8
BLACK
6
CONTINUOUS
10
5.60727
20
-3.87699
11
5.60787
21
-3.88
0
LINE
8
BLACK
6
CONTINUOUS
10
5.60787
20
-3.88
11
5.60787
21
-3.94
0
LINE
8
BLACK
6
CONTINUOUS
10
5.60787
20
-3.94
11
5.60727
21
-3.94301
0
LINE
8
BLACK
6
CONTINUOUS
10
5.60727
20
-3.94301
11
5.60557
21
-3.94557
0
LINE
8
BLACK
6
CONTINUOUS
10
5.60557
20
-3.94557
11
5.60301
21
-3.94727
0
LINE
8
BLACK
6
CONTINUOUS
10
5.60301
20
-3.94727
11
5.6
21
-3.94787
0
LINE
8
BLACK
6
CONTINUOUS
10
5.6
20
-3.94787
11
5.54
21
-3.94787
0
LINE
8
BLACK
6
CONTINUOUS
10
5.54
20
-3.94787
11
5.53699
21
-3.94727
0
LINE
8
BLACK
6
CONTINUOUS
10
5.53699
20
-3.94727
11
5.53443
21
-3.94557
0
LINE
8
BLACK
6
CONTINUOUS
10
5.53443
20
-3.94557
11
5.53273
21
-3.94301
0
LINE
8
BLACK
6
CONTINUOUS
10
5.53273
20
-3.94301
11
5.53213
21
-3.94
0
LINE
8
BLACK
6
CONTINUOUS
10
5.53213
20
-3.94
11
5.53213
21
-3.88
0
LINE
8
BLACK
6
CONTINUOUS
10
5.53213
20
-3.88
11
5.53273
21
-3.87699
0
LINE
8
BLACK
6
CONTINUOUS
10
5.53273
20
-3.87699
11
5.53443
21
-3.87443
0
LINE
8
BLACK
6
CONTINUOUS
10
5.53443
20
-3.87443
11
5.53699
21
-3.87273
0
LINE
8
BLACK
6
CONTINUOUS
10
5.53699
20
-3.87273
11
5.54
21
-3.87213
0
LINE
8
BLACK
6
CONTINUOUS
10
5.54
20
-3.87213
11
5.6
21
-3.87213
0
LINE
8
BLACK
6
CONTINUOUS
10
5.6
20
-3.87213
11
5.60301
21
-3.87273
  0
ENDSEC
  0
EOF
