  0
SECTION
  2
HEADER
  9
$ANGBASE
  50
0.0
  9
$ANGDIR
  70
1
  9
$MEASUREMENT
  70
0
  0
ENDSEC
  0
SECTION
  2
TABLES
  0
TABLE
  2
LTYPE
  70
4
  0
LTYPE
  5
40F
  2
CONTINUOUS
  70
0
  3
Solid line
  72
65
  73
0
  40
0.0
  0
LTYPE
  5
410
  2
DASHDOT
 70
0
  3
Dash Dot ____ _ ____ _
 72
65
 73
4
 40
2.0
 49
1.25
 49
-0.25
 49
0.25
 49
-0.25
  0
LTYPE
  5
411
  2
DASHED
 70
0
  3
Dashed __ __ __ __ __
 72
65
 73
2
 40
0.75
 49
0.5
 49
-0.25
  0
LTYPE
  5
43B
  2
DOTTED
 70
0
  3
Dotted .  .  .  .
 72
65
 73
2
 40
0.2
 49
0.0
 49
-0.2
  0
ENDTAB
  0
TABLE
  2
STYLE
  70
4
  0
STYLE
  2
KICAD
  70
0
  40
0
  41
1
  42
1
  50
0
  71
0
  3
isocp.shx
  0
STYLE
  2
KICADB
  70
0
  40
0
  41
1
  42
1
  50
0
  71
0
  3
isocp.shx
  0
STYLE
  2
KICADI
  70
0
  40
0
  41
1
  42
1
  50
15
  71
0
  3
isocp.shx
  0
STYLE
  2
KICADBI
  70
0
  40
0
  41
1
  42
1
  50
15
  71
0
  3
isocp.shx
  0
ENDTAB
  0
TABLE
  2
LAYER
  70
1
  0
LAYER
  2
BLACK
  70
0
  62
7
  6
CONTINUOUS
  0
ENDTAB
  0
ENDSEC
  0
SECTION
  2
ENTITIES
0
LINE
8
BLACK
6
CONTINUOUS
10
5.03799
20
-4.37496
11
5.01437
21
-4.37496
0
LINE
8
BLACK
6
CONTINUOUS
10
5.01437
20
-4.37496
11
5.01437
21
-4.33165
0
LINE
8
BLACK
6
CONTINUOUS
10
5.01437
20
-4.33165
11
5.03799
21
-4.33165
0
LINE
8
BLACK
6
CONTINUOUS
10
5.03799
20
-4.33165
11
5.03799
21
-4.37496
0
LINE
8
BLACK
6
CONTINUOUS
10
5.18563
20
-4.37496
11
5.16201
21
-4.37496
0
LINE
8
BLACK
6
CONTINUOUS
10
5.16201
20
-4.37496
11
5.16201
21
-4.33165
0
LINE
8
BLACK
6
CONTINUOUS
10
5.16201
20
-4.33165
11
5.18563
21
-4.33165
0
LINE
8
BLACK
6
CONTINUOUS
10
5.18563
20
-4.33165
11
5.18563
21
-4.37496
0
LINE
8
BLACK
6
CONTINUOUS
10
5.13642
20
-4.37496
11
5.1128
21
-4.37496
0
LINE
8
BLACK
6
CONTINUOUS
10
5.1128
20
-4.37496
11
5.1128
21
-4.33165
0
LINE
8
BLACK
6
CONTINUOUS
10
5.1128
20
-4.33165
11
5.13642
21
-4.33165
0
LINE
8
BLACK
6
CONTINUOUS
10
5.13642
20
-4.33165
11
5.13642
21
-4.37496
0
LINE
8
BLACK
6
CONTINUOUS
10
5.0872
20
-4.37496
11
5.06358
21
-4.37496
0
LINE
8
BLACK
6
CONTINUOUS
10
5.06358
20
-4.37496
11
5.06358
21
-4.33165
0
LINE
8
BLACK
6
CONTINUOUS
10
5.06358
20
-4.33165
11
5.0872
21
-4.33165
0
LINE
8
BLACK
6
CONTINUOUS
10
5.0872
20
-4.33165
11
5.0872
21
-4.37496
0
LINE
8
BLACK
6
CONTINUOUS
10
5.27247
20
-4.33106
11
5.27566
21
-4.3332
0
LINE
8
BLACK
6
CONTINUOUS
10
5.27566
20
-4.3332
11
5.27779
21
-4.33639
0
LINE
8
BLACK
6
CONTINUOUS
10
5.27779
20
-4.33639
11
5.27854
21
-4.34016
0
LINE
8
BLACK
6
CONTINUOUS
10
5.27854
20
-4.34016
11
5.27854
21
-4.35984
0
LINE
8
BLACK
6
CONTINUOUS
10
5.27854
20
-4.35984
11
5.27779
21
-4.36361
0
LINE
8
BLACK
6
CONTINUOUS
10
5.27779
20
-4.36361
11
5.27566
21
-4.3668
0
LINE
8
BLACK
6
CONTINUOUS
10
5.27566
20
-4.3668
11
5.27247
21
-4.36894
0
LINE
8
BLACK
6
CONTINUOUS
10
5.27247
20
-4.36894
11
5.2687
21
-4.36969
0
LINE
8
BLACK
6
CONTINUOUS
10
5.2687
20
-4.36969
11
5.2313
21
-4.36969
0
LINE
8
BLACK
6
CONTINUOUS
10
5.2313
20
-4.36969
11
5.22753
21
-4.36894
0
LINE
8
BLACK
6
CONTINUOUS
10
5.22753
20
-4.36894
11
5.22434
21
-4.3668
0
LINE
8
BLACK
6
CONTINUOUS
10
5.22434
20
-4.3668
11
5.22221
21
-4.36361
0
LINE
8
BLACK
6
CONTINUOUS
10
5.22221
20
-4.36361
11
5.22146
21
-4.35984
0
LINE
8
BLACK
6
CONTINUOUS
10
5.22146
20
-4.35984
11
5.22146
21
-4.34016
0
LINE
8
BLACK
6
CONTINUOUS
10
5.22146
20
-4.34016
11
5.22221
21
-4.33639
0
LINE
8
BLACK
6
CONTINUOUS
10
5.22221
20
-4.33639
11
5.22434
21
-4.3332
0
LINE
8
BLACK
6
CONTINUOUS
10
5.22434
20
-4.3332
11
5.22753
21
-4.33106
0
LINE
8
BLACK
6
CONTINUOUS
10
5.22753
20
-4.33106
11
5.2313
21
-4.33031
0
LINE
8
BLACK
6
CONTINUOUS
10
5.2313
20
-4.33031
11
5.2687
21
-4.33031
0
LINE
8
BLACK
6
CONTINUOUS
10
5.2687
20
-4.33031
11
5.27247
21
-4.33106
0
LINE
8
BLACK
6
CONTINUOUS
10
5.36247
20
-4.33106
11
5.36566
21
-4.3332
0
LINE
8
BLACK
6
CONTINUOUS
10
5.36566
20
-4.3332
11
5.36779
21
-4.33639
0
LINE
8
BLACK
6
CONTINUOUS
10
5.36779
20
-4.33639
11
5.36854
21
-4.34016
0
LINE
8
BLACK
6
CONTINUOUS
10
5.36854
20
-4.34016
11
5.36854
21
-4.35984
0
LINE
8
BLACK
6
CONTINUOUS
10
5.36854
20
-4.35984
11
5.36779
21
-4.36361
0
LINE
8
BLACK
6
CONTINUOUS
10
5.36779
20
-4.36361
11
5.36566
21
-4.3668
0
LINE
8
BLACK
6
CONTINUOUS
10
5.36566
20
-4.3668
11
5.36247
21
-4.36894
0
LINE
8
BLACK
6
CONTINUOUS
10
5.36247
20
-4.36894
11
5.3587
21
-4.36969
0
LINE
8
BLACK
6
CONTINUOUS
10
5.3587
20
-4.36969
11
5.3213
21
-4.36969
0
LINE
8
BLACK
6
CONTINUOUS
10
5.3213
20
-4.36969
11
5.31753
21
-4.36894
0
LINE
8
BLACK
6
CONTINUOUS
10
5.31753
20
-4.36894
11
5.31434
21
-4.3668
0
LINE
8
BLACK
6
CONTINUOUS
10
5.31434
20
-4.3668
11
5.31221
21
-4.36361
0
LINE
8
BLACK
6
CONTINUOUS
10
5.31221
20
-4.36361
11
5.31146
21
-4.35984
0
LINE
8
BLACK
6
CONTINUOUS
10
5.31146
20
-4.35984
11
5.31146
21
-4.34016
0
LINE
8
BLACK
6
CONTINUOUS
10
5.31146
20
-4.34016
11
5.31221
21
-4.33639
0
LINE
8
BLACK
6
CONTINUOUS
10
5.31221
20
-4.33639
11
5.31434
21
-4.3332
0
LINE
8
BLACK
6
CONTINUOUS
10
5.31434
20
-4.3332
11
5.31753
21
-4.33106
0
LINE
8
BLACK
6
CONTINUOUS
10
5.31753
20
-4.33106
11
5.3213
21
-4.33031
0
LINE
8
BLACK
6
CONTINUOUS
10
5.3213
20
-4.33031
11
5.3587
21
-4.33031
0
LINE
8
BLACK
6
CONTINUOUS
10
5.3587
20
-4.33031
11
5.36247
21
-4.33106
0
LINE
8
BLACK
6
CONTINUOUS
10
5.48669
20
-4.30346
11
5.43551
21
-4.30346
0
LINE
8
BLACK
6
CONTINUOUS
10
5.43551
20
-4.30346
11
5.43551
21
-4.23654
0
LINE
8
BLACK
6
CONTINUOUS
10
5.43551
20
-4.23654
11
5.48669
21
-4.23654
0
LINE
8
BLACK
6
CONTINUOUS
10
5.48669
20
-4.23654
11
5.48669
21
-4.30346
0
LINE
8
BLACK
6
CONTINUOUS
10
5.62449
20
-4.30346
11
5.57331
21
-4.30346
0
LINE
8
BLACK
6
CONTINUOUS
10
5.57331
20
-4.30346
11
5.57331
21
-4.23654
0
LINE
8
BLACK
6
CONTINUOUS
10
5.57331
20
-4.23654
11
5.62449
21
-4.23654
0
LINE
8
BLACK
6
CONTINUOUS
10
5.62449
20
-4.23654
11
5.62449
21
-4.30346
0
LINE
8
BLACK
6
CONTINUOUS
10
5.27247
20
-4.25626
11
5.27566
21
-4.25839
0
LINE
8
BLACK
6
CONTINUOUS
10
5.27566
20
-4.25839
11
5.27779
21
-4.26159
0
LINE
8
BLACK
6
CONTINUOUS
10
5.27779
20
-4.26159
11
5.27854
21
-4.26535
0
LINE
8
BLACK
6
CONTINUOUS
10
5.27854
20
-4.26535
11
5.27854
21
-4.28504
0
LINE
8
BLACK
6
CONTINUOUS
10
5.27854
20
-4.28504
11
5.27779
21
-4.28881
0
LINE
8
BLACK
6
CONTINUOUS
10
5.27779
20
-4.28881
11
5.27566
21
-4.292
0
LINE
8
BLACK
6
CONTINUOUS
10
5.27566
20
-4.292
11
5.27247
21
-4.29413
0
LINE
8
BLACK
6
CONTINUOUS
10
5.27247
20
-4.29413
11
5.2687
21
-4.29488
0
LINE
8
BLACK
6
CONTINUOUS
10
5.2687
20
-4.29488
11
5.2313
21
-4.29488
0
LINE
8
BLACK
6
CONTINUOUS
10
5.2313
20
-4.29488
11
5.22753
21
-4.29413
0
LINE
8
BLACK
6
CONTINUOUS
10
5.22753
20
-4.29413
11
5.22434
21
-4.292
0
LINE
8
BLACK
6
CONTINUOUS
10
5.22434
20
-4.292
11
5.22221
21
-4.28881
0
LINE
8
BLACK
6
CONTINUOUS
10
5.22221
20
-4.28881
11
5.22146
21
-4.28504
0
LINE
8
BLACK
6
CONTINUOUS
10
5.22146
20
-4.28504
11
5.22146
21
-4.26535
0
LINE
8
BLACK
6
CONTINUOUS
10
5.22146
20
-4.26535
11
5.22221
21
-4.26159
0
LINE
8
BLACK
6
CONTINUOUS
10
5.22221
20
-4.26159
11
5.22434
21
-4.25839
0
LINE
8
BLACK
6
CONTINUOUS
10
5.22434
20
-4.25839
11
5.22753
21
-4.25626
0
LINE
8
BLACK
6
CONTINUOUS
10
5.22753
20
-4.25626
11
5.2313
21
-4.25551
0
LINE
8
BLACK
6
CONTINUOUS
10
5.2313
20
-4.25551
11
5.2687
21
-4.25551
0
LINE
8
BLACK
6
CONTINUOUS
10
5.2687
20
-4.25551
11
5.27247
21
-4.25626
0
LINE
8
BLACK
6
CONTINUOUS
10
5.36247
20
-4.25626
11
5.36566
21
-4.25839
0
LINE
8
BLACK
6
CONTINUOUS
10
5.36566
20
-4.25839
11
5.36779
21
-4.26159
0
LINE
8
BLACK
6
CONTINUOUS
10
5.36779
20
-4.26159
11
5.36854
21
-4.26535
0
LINE
8
BLACK
6
CONTINUOUS
10
5.36854
20
-4.26535
11
5.36854
21
-4.28504
0
LINE
8
BLACK
6
CONTINUOUS
10
5.36854
20
-4.28504
11
5.36779
21
-4.28881
0
LINE
8
BLACK
6
CONTINUOUS
10
5.36779
20
-4.28881
11
5.36566
21
-4.292
0
LINE
8
BLACK
6
CONTINUOUS
10
5.36566
20
-4.292
11
5.36247
21
-4.29413
0
LINE
8
BLACK
6
CONTINUOUS
10
5.36247
20
-4.29413
11
5.3587
21
-4.29488
0
LINE
8
BLACK
6
CONTINUOUS
10
5.3587
20
-4.29488
11
5.3213
21
-4.29488
0
LINE
8
BLACK
6
CONTINUOUS
10
5.3213
20
-4.29488
11
5.31753
21
-4.29413
0
LINE
8
BLACK
6
CONTINUOUS
10
5.31753
20
-4.29413
11
5.31434
21
-4.292
0
LINE
8
BLACK
6
CONTINUOUS
10
5.31434
20
-4.292
11
5.31221
21
-4.28881
0
LINE
8
BLACK
6
CONTINUOUS
10
5.31221
20
-4.28881
11
5.31146
21
-4.28504
0
LINE
8
BLACK
6
CONTINUOUS
10
5.31146
20
-4.28504
11
5.31146
21
-4.26535
0
LINE
8
BLACK
6
CONTINUOUS
10
5.31146
20
-4.26535
11
5.31221
21
-4.26159
0
LINE
8
BLACK
6
CONTINUOUS
10
5.31221
20
-4.26159
11
5.31434
21
-4.25839
0
LINE
8
BLACK
6
CONTINUOUS
10
5.31434
20
-4.25839
11
5.31753
21
-4.25626
0
LINE
8
BLACK
6
CONTINUOUS
10
5.31753
20
-4.25626
11
5.3213
21
-4.25551
0
LINE
8
BLACK
6
CONTINUOUS
10
5.3213
20
-4.25551
11
5.3587
21
-4.25551
0
LINE
8
BLACK
6
CONTINUOUS
10
5.3587
20
-4.25551
11
5.36247
21
-4.25626
0
LINE
8
BLACK
6
CONTINUOUS
10
5.03799
20
-4.28835
11
5.01437
21
-4.28835
0
LINE
8
BLACK
6
CONTINUOUS
10
5.01437
20
-4.28835
11
5.01437
21
-4.24504
0
LINE
8
BLACK
6
CONTINUOUS
10
5.01437
20
-4.24504
11
5.03799
21
-4.24504
0
LINE
8
BLACK
6
CONTINUOUS
10
5.03799
20
-4.24504
11
5.03799
21
-4.28835
0
LINE
8
BLACK
6
CONTINUOUS
10
5.0872
20
-4.28835
11
5.06358
21
-4.28835
0
LINE
8
BLACK
6
CONTINUOUS
10
5.06358
20
-4.28835
11
5.06358
21
-4.24504
0
LINE
8
BLACK
6
CONTINUOUS
10
5.06358
20
-4.24504
11
5.0872
21
-4.24504
0
LINE
8
BLACK
6
CONTINUOUS
10
5.0872
20
-4.24504
11
5.0872
21
-4.28835
0
LINE
8
BLACK
6
CONTINUOUS
10
5.13642
20
-4.28835
11
5.1128
21
-4.28835
0
LINE
8
BLACK
6
CONTINUOUS
10
5.1128
20
-4.28835
11
5.1128
21
-4.24504
0
LINE
8
BLACK
6
CONTINUOUS
10
5.1128
20
-4.24504
11
5.13642
21
-4.24504
0
LINE
8
BLACK
6
CONTINUOUS
10
5.13642
20
-4.24504
11
5.13642
21
-4.28835
0
LINE
8
BLACK
6
CONTINUOUS
10
5.18563
20
-4.28835
11
5.16201
21
-4.28835
0
LINE
8
BLACK
6
CONTINUOUS
10
5.16201
20
-4.28835
11
5.16201
21
-4.24504
0
LINE
8
BLACK
6
CONTINUOUS
10
5.16201
20
-4.24504
11
5.18563
21
-4.24504
0
LINE
8
BLACK
6
CONTINUOUS
10
5.18563
20
-4.24504
11
5.18563
21
-4.28835
0
LINE
8
BLACK
6
CONTINUOUS
10
5.34003
20
-4.08319
11
5.34322
21
-4.08532
0
LINE
8
BLACK
6
CONTINUOUS
10
5.34322
20
-4.08532
11
5.34535
21
-4.08852
0
LINE
8
BLACK
6
CONTINUOUS
10
5.34535
20
-4.08852
11
5.3461
21
-4.09228
0
LINE
8
BLACK
6
CONTINUOUS
10
5.3461
20
-4.09228
11
5.3461
21
-4.12772
0
LINE
8
BLACK
6
CONTINUOUS
10
5.3461
20
-4.12772
11
5.34535
21
-4.13148
0
LINE
8
BLACK
6
CONTINUOUS
10
5.34535
20
-4.13148
11
5.34322
21
-4.13468
0
LINE
8
BLACK
6
CONTINUOUS
10
5.34322
20
-4.13468
11
5.34003
21
-4.13681
0
LINE
8
BLACK
6
CONTINUOUS
10
5.34003
20
-4.13681
11
5.33626
21
-4.13756
0
LINE
8
BLACK
6
CONTINUOUS
10
5.33626
20
-4.13756
11
5.31559
21
-4.13756
0
LINE
8
BLACK
6
CONTINUOUS
10
5.31559
20
-4.13756
11
5.31182
21
-4.13681
0
LINE
8
BLACK
6
CONTINUOUS
10
5.31182
20
-4.13681
11
5.30863
21
-4.13468
0
LINE
8
BLACK
6
CONTINUOUS
10
5.30863
20
-4.13468
11
5.3065
21
-4.13148
0
LINE
8
BLACK
6
CONTINUOUS
10
5.3065
20
-4.13148
11
5.30575
21
-4.12772
0
LINE
8
BLACK
6
CONTINUOUS
10
5.30575
20
-4.12772
11
5.30575
21
-4.09228
0
LINE
8
BLACK
6
CONTINUOUS
10
5.30575
20
-4.09228
11
5.3065
21
-4.08852
0
LINE
8
BLACK
6
CONTINUOUS
10
5.3065
20
-4.08852
11
5.30863
21
-4.08532
0
LINE
8
BLACK
6
CONTINUOUS
10
5.30863
20
-4.08532
11
5.31182
21
-4.08319
0
LINE
8
BLACK
6
CONTINUOUS
10
5.31182
20
-4.08319
11
5.31559
21
-4.08244
0
LINE
8
BLACK
6
CONTINUOUS
10
5.31559
20
-4.08244
11
5.33626
21
-4.08244
0
LINE
8
BLACK
6
CONTINUOUS
10
5.33626
20
-4.08244
11
5.34003
21
-4.08319
0
LINE
8
BLACK
6
CONTINUOUS
10
5.26818
20
-4.08319
11
5.27137
21
-4.08532
0
LINE
8
BLACK
6
CONTINUOUS
10
5.27137
20
-4.08532
11
5.2735
21
-4.08852
0
LINE
8
BLACK
6
CONTINUOUS
10
5.2735
20
-4.08852
11
5.27425
21
-4.09228
0
LINE
8
BLACK
6
CONTINUOUS
10
5.27425
20
-4.09228
11
5.27425
21
-4.12772
0
LINE
8
BLACK
6
CONTINUOUS
10
5.27425
20
-4.12772
11
5.2735
21
-4.13148
0
LINE
8
BLACK
6
CONTINUOUS
10
5.2735
20
-4.13148
11
5.27137
21
-4.13468
0
LINE
8
BLACK
6
CONTINUOUS
10
5.27137
20
-4.13468
11
5.26818
21
-4.13681
0
LINE
8
BLACK
6
CONTINUOUS
10
5.26818
20
-4.13681
11
5.26441
21
-4.13756
0
LINE
8
BLACK
6
CONTINUOUS
10
5.26441
20
-4.13756
11
5.24374
21
-4.13756
0
LINE
8
BLACK
6
CONTINUOUS
10
5.24374
20
-4.13756
11
5.23997
21
-4.13681
0
LINE
8
BLACK
6
CONTINUOUS
10
5.23997
20
-4.13681
11
5.23678
21
-4.13468
0
LINE
8
BLACK
6
CONTINUOUS
10
5.23678
20
-4.13468
11
5.23465
21
-4.13148
0
LINE
8
BLACK
6
CONTINUOUS
10
5.23465
20
-4.13148
11
5.2339
21
-4.12772
0
LINE
8
BLACK
6
CONTINUOUS
10
5.2339
20
-4.12772
11
5.2339
21
-4.09228
0
LINE
8
BLACK
6
CONTINUOUS
10
5.2339
20
-4.09228
11
5.23465
21
-4.08852
0
LINE
8
BLACK
6
CONTINUOUS
10
5.23465
20
-4.08852
11
5.23678
21
-4.08532
0
LINE
8
BLACK
6
CONTINUOUS
10
5.23678
20
-4.08532
11
5.23997
21
-4.08319
0
LINE
8
BLACK
6
CONTINUOUS
10
5.23997
20
-4.08319
11
5.24374
21
-4.08244
0
LINE
8
BLACK
6
CONTINUOUS
10
5.24374
20
-4.08244
11
5.26441
21
-4.08244
0
LINE
8
BLACK
6
CONTINUOUS
10
5.26441
20
-4.08244
11
5.26818
21
-4.08319
0
LINE
8
BLACK
6
CONTINUOUS
10
5.50003
20
-4.08319
11
5.50322
21
-4.08532
0
LINE
8
BLACK
6
CONTINUOUS
10
5.50322
20
-4.08532
11
5.50535
21
-4.08852
0
LINE
8
BLACK
6
CONTINUOUS
10
5.50535
20
-4.08852
11
5.5061
21
-4.09228
0
LINE
8
BLACK
6
CONTINUOUS
10
5.5061
20
-4.09228
11
5.5061
21
-4.12772
0
LINE
8
BLACK
6
CONTINUOUS
10
5.5061
20
-4.12772
11
5.50535
21
-4.13148
0
LINE
8
BLACK
6
CONTINUOUS
10
5.50535
20
-4.13148
11
5.50322
21
-4.13468
0
LINE
8
BLACK
6
CONTINUOUS
10
5.50322
20
-4.13468
11
5.50003
21
-4.13681
0
LINE
8
BLACK
6
CONTINUOUS
10
5.50003
20
-4.13681
11
5.49626
21
-4.13756
0
LINE
8
BLACK
6
CONTINUOUS
10
5.49626
20
-4.13756
11
5.47559
21
-4.13756
0
LINE
8
BLACK
6
CONTINUOUS
10
5.47559
20
-4.13756
11
5.47182
21
-4.13681
0
LINE
8
BLACK
6
CONTINUOUS
10
5.47182
20
-4.13681
11
5.46863
21
-4.13468
0
LINE
8
BLACK
6
CONTINUOUS
10
5.46863
20
-4.13468
11
5.4665
21
-4.13148
0
LINE
8
BLACK
6
CONTINUOUS
10
5.4665
20
-4.13148
11
5.46575
21
-4.12772
0
LINE
8
BLACK
6
CONTINUOUS
10
5.46575
20
-4.12772
11
5.46575
21
-4.09228
0
LINE
8
BLACK
6
CONTINUOUS
10
5.46575
20
-4.09228
11
5.4665
21
-4.08852
0
LINE
8
BLACK
6
CONTINUOUS
10
5.4665
20
-4.08852
11
5.46863
21
-4.08532
0
LINE
8
BLACK
6
CONTINUOUS
10
5.46863
20
-4.08532
11
5.47182
21
-4.08319
0
LINE
8
BLACK
6
CONTINUOUS
10
5.47182
20
-4.08319
11
5.47559
21
-4.08244
0
LINE
8
BLACK
6
CONTINUOUS
10
5.47559
20
-4.08244
11
5.49626
21
-4.08244
0
LINE
8
BLACK
6
CONTINUOUS
10
5.49626
20
-4.08244
11
5.50003
21
-4.08319
0
LINE
8
BLACK
6
CONTINUOUS
10
5.42818
20
-4.08319
11
5.43137
21
-4.08532
0
LINE
8
BLACK
6
CONTINUOUS
10
5.43137
20
-4.08532
11
5.4335
21
-4.08852
0
LINE
8
BLACK
6
CONTINUOUS
10
5.4335
20
-4.08852
11
5.43425
21
-4.09228
0
LINE
8
BLACK
6
CONTINUOUS
10
5.43425
20
-4.09228
11
5.43425
21
-4.12772
0
LINE
8
BLACK
6
CONTINUOUS
10
5.43425
20
-4.12772
11
5.4335
21
-4.13148
0
LINE
8
BLACK
6
CONTINUOUS
10
5.4335
20
-4.13148
11
5.43137
21
-4.13468
0
LINE
8
BLACK
6
CONTINUOUS
10
5.43137
20
-4.13468
11
5.42818
21
-4.13681
0
LINE
8
BLACK
6
CONTINUOUS
10
5.42818
20
-4.13681
11
5.42441
21
-4.13756
0
LINE
8
BLACK
6
CONTINUOUS
10
5.42441
20
-4.13756
11
5.40374
21
-4.13756
0
LINE
8
BLACK
6
CONTINUOUS
10
5.40374
20
-4.13756
11
5.39997
21
-4.13681
0
LINE
8
BLACK
6
CONTINUOUS
10
5.39997
20
-4.13681
11
5.39678
21
-4.13468
0
LINE
8
BLACK
6
CONTINUOUS
10
5.39678
20
-4.13468
11
5.39465
21
-4.13148
0
LINE
8
BLACK
6
CONTINUOUS
10
5.39465
20
-4.13148
11
5.3939
21
-4.12772
0
LINE
8
BLACK
6
CONTINUOUS
10
5.3939
20
-4.12772
11
5.3939
21
-4.09228
0
LINE
8
BLACK
6
CONTINUOUS
10
5.3939
20
-4.09228
11
5.39465
21
-4.08852
0
LINE
8
BLACK
6
CONTINUOUS
10
5.39465
20
-4.08852
11
5.39678
21
-4.08532
0
LINE
8
BLACK
6
CONTINUOUS
10
5.39678
20
-4.08532
11
5.39997
21
-4.08319
0
LINE
8
BLACK
6
CONTINUOUS
10
5.39997
20
-4.08319
11
5.40374
21
-4.08244
0
LINE
8
BLACK
6
CONTINUOUS
10
5.40374
20
-4.08244
11
5.42441
21
-4.08244
0
LINE
8
BLACK
6
CONTINUOUS
10
5.42441
20
-4.08244
11
5.42818
21
-4.08319
  0
ENDSEC
  0
EOF
