  0
SECTION
  2
HEADER
  9
$ANGBASE
  50
0.0
  9
$ANGDIR
  70
1
  9
$MEASUREMENT
  70
0
  0
ENDSEC
  0
SECTION
  2
TABLES
  0
TABLE
  2
LTYPE
  70
4
  0
LTYPE
  5
40F
  2
CONTINUOUS
  70
0
  3
Solid line
  72
65
  73
0
  40
0.0
  0
LTYPE
  5
410
  2
DASHDOT
 70
0
  3
Dash Dot ____ _ ____ _
 72
65
 73
4
 40
2.0
 49
1.25
 49
-0.25
 49
0.25
 49
-0.25
  0
LTYPE
  5
411
  2
DASHED
 70
0
  3
Dashed __ __ __ __ __
 72
65
 73
2
 40
0.75
 49
0.5
 49
-0.25
  0
LTYPE
  5
43B
  2
DOTTED
 70
0
  3
Dotted .  .  .  .
 72
65
 73
2
 40
0.2
 49
0.0
 49
-0.2
  0
ENDTAB
  0
TABLE
  2
STYLE
  70
4
  0
STYLE
  2
KICAD
  70
0
  40
0
  41
1
  42
1
  50
0
  71
0
  3
isocp.shx
  0
STYLE
  2
KICADB
  70
0
  40
0
  41
1
  42
1
  50
0
  71
0
  3
isocp.shx
  0
STYLE
  2
KICADI
  70
0
  40
0
  41
1
  42
1
  50
15
  71
0
  3
isocp.shx
  0
STYLE
  2
KICADBI
  70
0
  40
0
  41
1
  42
1
  50
15
  71
0
  3
isocp.shx
  0
ENDTAB
  0
TABLE
  2
LAYER
  70
1
  0
LAYER
  2
BLACK
  70
0
  62
7
  6
CONTINUOUS
  0
ENDTAB
  0
ENDSEC
  0
SECTION
  2
ENTITIES
0
LINE
8
BLACK
6
CONTINUOUS
10
5.23622
20
-4.42327
11
5.23692
21
-4.42356
0
LINE
8
BLACK
6
CONTINUOUS
10
5.23692
20
-4.42356
11
5.2372
21
-4.42425
0
LINE
8
BLACK
6
CONTINUOUS
10
5.2372
20
-4.42425
11
5.2372
21
-4.52268
0
LINE
8
BLACK
6
CONTINUOUS
10
5.2372
20
-4.52268
11
5.23692
21
-4.52337
0
LINE
8
BLACK
6
CONTINUOUS
10
5.23692
20
-4.52337
11
5.23622
21
-4.52366
0
LINE
8
BLACK
6
CONTINUOUS
10
5.23622
20
-4.52366
11
5.05512
21
-4.52366
0
LINE
8
BLACK
6
CONTINUOUS
10
5.05512
20
-4.52366
11
5.05442
21
-4.52337
0
LINE
8
BLACK
6
CONTINUOUS
10
5.05442
20
-4.52337
11
5.05413
21
-4.52268
0
LINE
8
BLACK
6
CONTINUOUS
10
5.05413
20
-4.52268
11
5.05413
21
-4.42425
0
LINE
8
BLACK
6
CONTINUOUS
10
5.05413
20
-4.42425
11
5.05442
21
-4.42356
0
LINE
8
BLACK
6
CONTINUOUS
10
5.05442
20
-4.42356
11
5.05512
21
-4.42327
0
LINE
8
BLACK
6
CONTINUOUS
10
5.05512
20
-4.42327
11
5.23622
21
-4.42327
0
LINE
8
BLACK
6
CONTINUOUS
10
5.0561
20
-4.42524
11
5.0561
21
-4.52169
0
LINE
8
BLACK
6
CONTINUOUS
10
5.0561
20
-4.52169
11
5.23524
21
-4.52169
0
LINE
8
BLACK
6
CONTINUOUS
10
5.23524
20
-4.52169
11
5.23524
21
-4.42524
0
LINE
8
BLACK
6
CONTINUOUS
10
5.23524
20
-4.42524
11
5.0561
21
-4.42524
0
LINE
8
BLACK
6
CONTINUOUS
10
5.31719
20
-4.20815
11
5.31788
21
-4.20844
0
LINE
8
BLACK
6
CONTINUOUS
10
5.31788
20
-4.20844
11
5.31817
21
-4.20913
0
LINE
8
BLACK
6
CONTINUOUS
10
5.31817
20
-4.20913
11
5.31817
21
-4.34299
0
LINE
8
BLACK
6
CONTINUOUS
10
5.31817
20
-4.34299
11
5.31788
21
-4.34369
0
LINE
8
BLACK
6
CONTINUOUS
10
5.31788
20
-4.34369
11
5.31719
21
-4.34398
0
LINE
8
BLACK
6
CONTINUOUS
10
5.31719
20
-4.34398
11
5.24002
21
-4.34398
0
LINE
8
BLACK
6
CONTINUOUS
10
5.24002
20
-4.34398
11
5.23933
21
-4.34369
0
LINE
8
BLACK
6
CONTINUOUS
10
5.23933
20
-4.34369
11
5.23904
21
-4.34299
0
LINE
8
BLACK
6
CONTINUOUS
10
5.23904
20
-4.34299
11
5.23904
21
-4.20913
0
LINE
8
BLACK
6
CONTINUOUS
10
5.23904
20
-4.20913
11
5.23933
21
-4.20844
0
LINE
8
BLACK
6
CONTINUOUS
10
5.23933
20
-4.20844
11
5.24002
21
-4.20815
0
LINE
8
BLACK
6
CONTINUOUS
10
5.24002
20
-4.20815
11
5.31719
21
-4.20815
0
LINE
8
BLACK
6
CONTINUOUS
10
5.24101
20
-4.21012
11
5.24101
21
-4.34201
0
LINE
8
BLACK
6
CONTINUOUS
10
5.24101
20
-4.34201
11
5.3162
21
-4.34201
0
LINE
8
BLACK
6
CONTINUOUS
10
5.3162
20
-4.34201
11
5.3162
21
-4.21012
0
LINE
8
BLACK
6
CONTINUOUS
10
5.3162
20
-4.21012
11
5.24101
21
-4.21012
0
LINE
8
BLACK
6
CONTINUOUS
10
5.40719
20
-4.20815
11
5.40788
21
-4.20844
0
LINE
8
BLACK
6
CONTINUOUS
10
5.40788
20
-4.20844
11
5.40817
21
-4.20913
0
LINE
8
BLACK
6
CONTINUOUS
10
5.40817
20
-4.20913
11
5.40817
21
-4.34299
0
LINE
8
BLACK
6
CONTINUOUS
10
5.40817
20
-4.34299
11
5.40788
21
-4.34369
0
LINE
8
BLACK
6
CONTINUOUS
10
5.40788
20
-4.34369
11
5.40719
21
-4.34398
0
LINE
8
BLACK
6
CONTINUOUS
10
5.40719
20
-4.34398
11
5.33002
21
-4.34398
0
LINE
8
BLACK
6
CONTINUOUS
10
5.33002
20
-4.34398
11
5.32933
21
-4.34369
0
LINE
8
BLACK
6
CONTINUOUS
10
5.32933
20
-4.34369
11
5.32904
21
-4.34299
0
LINE
8
BLACK
6
CONTINUOUS
10
5.32904
20
-4.34299
11
5.32904
21
-4.20913
0
LINE
8
BLACK
6
CONTINUOUS
10
5.32904
20
-4.20913
11
5.32933
21
-4.20844
0
LINE
8
BLACK
6
CONTINUOUS
10
5.32933
20
-4.20844
11
5.33002
21
-4.20815
0
LINE
8
BLACK
6
CONTINUOUS
10
5.33002
20
-4.20815
11
5.40719
21
-4.20815
0
LINE
8
BLACK
6
CONTINUOUS
10
5.33101
20
-4.21012
11
5.33101
21
-4.34201
0
LINE
8
BLACK
6
CONTINUOUS
10
5.33101
20
-4.34201
11
5.4062
21
-4.34201
0
LINE
8
BLACK
6
CONTINUOUS
10
5.4062
20
-4.34201
11
5.4062
21
-4.21012
0
LINE
8
BLACK
6
CONTINUOUS
10
5.4062
20
-4.21012
11
5.33101
21
-4.21012
0
LINE
8
BLACK
6
CONTINUOUS
10
5.22427
20
-4.18494
11
5.22496
21
-4.18523
0
LINE
8
BLACK
6
CONTINUOUS
10
5.22496
20
-4.18523
11
5.22525
21
-4.18592
0
LINE
8
BLACK
6
CONTINUOUS
10
5.22525
20
-4.18592
11
5.22525
21
-4.32765
0
LINE
8
BLACK
6
CONTINUOUS
10
5.22525
20
-4.32765
11
5.22496
21
-4.32835
0
LINE
8
BLACK
6
CONTINUOUS
10
5.22496
20
-4.32835
11
5.22427
21
-4.32864
0
LINE
8
BLACK
6
CONTINUOUS
10
5.22427
20
-4.32864
11
5.00773
21
-4.32864
0
LINE
8
BLACK
6
CONTINUOUS
10
5.00773
20
-4.32864
11
5.00704
21
-4.32835
0
LINE
8
BLACK
6
CONTINUOUS
10
5.00704
20
-4.32835
11
5.00675
21
-4.32765
0
LINE
8
BLACK
6
CONTINUOUS
10
5.00675
20
-4.32765
11
5.00675
21
-4.18592
0
LINE
8
BLACK
6
CONTINUOUS
10
5.00675
20
-4.18592
11
5.00704
21
-4.18523
0
LINE
8
BLACK
6
CONTINUOUS
10
5.00704
20
-4.18523
11
5.00773
21
-4.18494
0
LINE
8
BLACK
6
CONTINUOUS
10
5.00773
20
-4.18494
11
5.22427
21
-4.18494
0
LINE
8
BLACK
6
CONTINUOUS
10
5.00872
20
-4.18691
11
5.00872
21
-4.32667
0
LINE
8
BLACK
6
CONTINUOUS
10
5.00872
20
-4.32667
11
5.22328
21
-4.32667
0
LINE
8
BLACK
6
CONTINUOUS
10
5.22328
20
-4.32667
11
5.22328
21
-4.18691
0
LINE
8
BLACK
6
CONTINUOUS
10
5.22328
20
-4.18691
11
5.00872
21
-4.18691
0
LINE
8
BLACK
6
CONTINUOUS
10
5.6063
20
-4.22374
11
5.607
21
-4.22403
0
LINE
8
BLACK
6
CONTINUOUS
10
5.607
20
-4.22403
11
5.60728
21
-4.22472
0
LINE
8
BLACK
6
CONTINUOUS
10
5.60728
20
-4.22472
11
5.60728
21
-4.31528
0
LINE
8
BLACK
6
CONTINUOUS
10
5.60728
20
-4.31528
11
5.607
21
-4.31597
0
LINE
8
BLACK
6
CONTINUOUS
10
5.607
20
-4.31597
11
5.6063
21
-4.31626
0
LINE
8
BLACK
6
CONTINUOUS
10
5.6063
20
-4.31626
11
5.43307
21
-4.31626
0
LINE
8
BLACK
6
CONTINUOUS
10
5.43307
20
-4.31626
11
5.43237
21
-4.31597
0
LINE
8
BLACK
6
CONTINUOUS
10
5.43237
20
-4.31597
11
5.43209
21
-4.31528
0
LINE
8
BLACK
6
CONTINUOUS
10
5.43209
20
-4.31528
11
5.43209
21
-4.22472
0
LINE
8
BLACK
6
CONTINUOUS
10
5.43209
20
-4.22472
11
5.43237
21
-4.22403
0
LINE
8
BLACK
6
CONTINUOUS
10
5.43237
20
-4.22403
11
5.43307
21
-4.22374
0
LINE
8
BLACK
6
CONTINUOUS
10
5.43307
20
-4.22374
11
5.6063
21
-4.22374
0
LINE
8
BLACK
6
CONTINUOUS
10
5.43406
20
-4.22571
11
5.43406
21
-4.31429
0
LINE
8
BLACK
6
CONTINUOUS
10
5.43406
20
-4.31429
11
5.60531
21
-4.31429
0
LINE
8
BLACK
6
CONTINUOUS
10
5.60531
20
-4.31429
11
5.60531
21
-4.22571
0
LINE
8
BLACK
6
CONTINUOUS
10
5.60531
20
-4.22571
11
5.43406
21
-4.22571
0
LINE
8
BLACK
6
CONTINUOUS
10
5.36486
20
-4.06791
11
5.36556
21
-4.0682
0
LINE
8
BLACK
6
CONTINUOUS
10
5.36556
20
-4.0682
11
5.36585
21
-4.0689
0
LINE
8
BLACK
6
CONTINUOUS
10
5.36585
20
-4.0689
11
5.36585
21
-4.1437
0
LINE
8
BLACK
6
CONTINUOUS
10
5.36585
20
-4.1437
11
5.36556
21
-4.1444
0
LINE
8
BLACK
6
CONTINUOUS
10
5.36556
20
-4.1444
11
5.36486
21
-4.14469
0
LINE
8
BLACK
6
CONTINUOUS
10
5.36486
20
-4.14469
11
5.23258
21
-4.14469
0
LINE
8
BLACK
6
CONTINUOUS
10
5.23258
20
-4.14469
11
5.23188
21
-4.1444
0
LINE
8
BLACK
6
CONTINUOUS
10
5.23188
20
-4.1444
11
5.23159
21
-4.1437
0
LINE
8
BLACK
6
CONTINUOUS
10
5.23159
20
-4.1437
11
5.23159
21
-4.0689
0
LINE
8
BLACK
6
CONTINUOUS
10
5.23159
20
-4.0689
11
5.23188
21
-4.0682
0
LINE
8
BLACK
6
CONTINUOUS
10
5.23188
20
-4.0682
11
5.23258
21
-4.06791
0
LINE
8
BLACK
6
CONTINUOUS
10
5.23258
20
-4.06791
11
5.36486
21
-4.06791
0
LINE
8
BLACK
6
CONTINUOUS
10
5.23356
20
-4.06988
11
5.23356
21
-4.14272
0
LINE
8
BLACK
6
CONTINUOUS
10
5.23356
20
-4.14272
11
5.36388
21
-4.14272
0
LINE
8
BLACK
6
CONTINUOUS
10
5.36388
20
-4.14272
11
5.36388
21
-4.06988
0
LINE
8
BLACK
6
CONTINUOUS
10
5.36388
20
-4.06988
11
5.23356
21
-4.06988
0
LINE
8
BLACK
6
CONTINUOUS
10
5.50758
20
-4.06791
11
5.50827
21
-4.0682
0
LINE
8
BLACK
6
CONTINUOUS
10
5.50827
20
-4.0682
11
5.50856
21
-4.0689
0
LINE
8
BLACK
6
CONTINUOUS
10
5.50856
20
-4.0689
11
5.50856
21
-4.1437
0
LINE
8
BLACK
6
CONTINUOUS
10
5.50856
20
-4.1437
11
5.50827
21
-4.1444
0
LINE
8
BLACK
6
CONTINUOUS
10
5.50827
20
-4.1444
11
5.50758
21
-4.14469
0
LINE
8
BLACK
6
CONTINUOUS
10
5.50758
20
-4.14469
11
5.3753
21
-4.14469
0
LINE
8
BLACK
6
CONTINUOUS
10
5.3753
20
-4.14469
11
5.3746
21
-4.1444
0
LINE
8
BLACK
6
CONTINUOUS
10
5.3746
20
-4.1444
11
5.37431
21
-4.1437
0
LINE
8
BLACK
6
CONTINUOUS
10
5.37431
20
-4.1437
11
5.37431
21
-4.0689
0
LINE
8
BLACK
6
CONTINUOUS
10
5.37431
20
-4.0689
11
5.3746
21
-4.0682
0
LINE
8
BLACK
6
CONTINUOUS
10
5.3746
20
-4.0682
11
5.3753
21
-4.06791
0
LINE
8
BLACK
6
CONTINUOUS
10
5.3753
20
-4.06791
11
5.50758
21
-4.06791
0
LINE
8
BLACK
6
CONTINUOUS
10
5.37628
20
-4.06988
11
5.37628
21
-4.14272
0
LINE
8
BLACK
6
CONTINUOUS
10
5.37628
20
-4.14272
11
5.50659
21
-4.14272
0
LINE
8
BLACK
6
CONTINUOUS
10
5.50659
20
-4.14272
11
5.50659
21
-4.06988
0
LINE
8
BLACK
6
CONTINUOUS
10
5.50659
20
-4.06988
11
5.37628
21
-4.06988
  0
ENDSEC
  0
EOF
