  0
SECTION
  2
HEADER
  9
$ANGBASE
  50
0.0
  9
$ANGDIR
  70
1
  9
$MEASUREMENT
  70
0
  0
ENDSEC
  0
SECTION
  2
TABLES
  0
TABLE
  2
LTYPE
  70
4
  0
LTYPE
  5
40F
  2
CONTINUOUS
  70
0
  3
Solid line
  72
65
  73
0
  40
0.0
  0
LTYPE
  5
410
  2
DASHDOT
 70
0
  3
Dash Dot ____ _ ____ _
 72
65
 73
4
 40
2.0
 49
1.25
 49
-0.25
 49
0.25
 49
-0.25
  0
LTYPE
  5
411
  2
DASHED
 70
0
  3
Dashed __ __ __ __ __
 72
65
 73
2
 40
0.75
 49
0.5
 49
-0.25
  0
LTYPE
  5
43B
  2
DOTTED
 70
0
  3
Dotted .  .  .  .
 72
65
 73
2
 40
0.2
 49
0.0
 49
-0.2
  0
ENDTAB
  0
TABLE
  2
STYLE
  70
4
  0
STYLE
  2
KICAD
  70
0
  40
0
  41
1
  42
1
  50
0
  71
0
  3
isocp.shx
  0
STYLE
  2
KICADB
  70
0
  40
0
  41
1
  42
1
  50
0
  71
0
  3
isocp.shx
  0
STYLE
  2
KICADI
  70
0
  40
0
  41
1
  42
1
  50
15
  71
0
  3
isocp.shx
  0
STYLE
  2
KICADBI
  70
0
  40
0
  41
1
  42
1
  50
15
  71
0
  3
isocp.shx
  0
ENDTAB
  0
TABLE
  2
LAYER
  70
1
  0
LAYER
  2
BLACK
  70
0
  62
7
  6
CONTINUOUS
  0
ENDTAB
  0
ENDSEC
  0
SECTION
  2
ENTITIES
0
LINE
8
BLACK
6
CONTINUOUS
10
5.21516
20
-4.42327
11
5.21585
21
-4.42356
0
LINE
8
BLACK
6
CONTINUOUS
10
5.21585
20
-4.42356
11
5.21614
21
-4.42425
0
LINE
8
BLACK
6
CONTINUOUS
10
5.21614
20
-4.42425
11
5.21614
21
-4.52268
0
LINE
8
BLACK
6
CONTINUOUS
10
5.21614
20
-4.52268
11
5.21585
21
-4.52337
0
LINE
8
BLACK
6
CONTINUOUS
10
5.21585
20
-4.52337
11
5.21516
21
-4.52366
0
LINE
8
BLACK
6
CONTINUOUS
10
5.21516
20
-4.52366
11
5.03406
21
-4.52366
0
LINE
8
BLACK
6
CONTINUOUS
10
5.03406
20
-4.52366
11
5.03336
21
-4.52337
0
LINE
8
BLACK
6
CONTINUOUS
10
5.03336
20
-4.52337
11
5.03307
21
-4.52268
0
LINE
8
BLACK
6
CONTINUOUS
10
5.03307
20
-4.52268
11
5.03307
21
-4.42425
0
LINE
8
BLACK
6
CONTINUOUS
10
5.03307
20
-4.42425
11
5.03336
21
-4.42356
0
LINE
8
BLACK
6
CONTINUOUS
10
5.03336
20
-4.42356
11
5.03406
21
-4.42327
0
LINE
8
BLACK
6
CONTINUOUS
10
5.03406
20
-4.42327
11
5.21516
21
-4.42327
0
LINE
8
BLACK
6
CONTINUOUS
10
5.03504
20
-4.42524
11
5.03504
21
-4.52169
0
LINE
8
BLACK
6
CONTINUOUS
10
5.03504
20
-4.52169
11
5.21417
21
-4.52169
0
LINE
8
BLACK
6
CONTINUOUS
10
5.21417
20
-4.52169
11
5.21417
21
-4.42524
0
LINE
8
BLACK
6
CONTINUOUS
10
5.21417
20
-4.42524
11
5.03504
21
-4.42524
0
LINE
8
BLACK
6
CONTINUOUS
10
5.31719
20
-4.20815
11
5.31788
21
-4.20844
0
LINE
8
BLACK
6
CONTINUOUS
10
5.31788
20
-4.20844
11
5.31817
21
-4.20913
0
LINE
8
BLACK
6
CONTINUOUS
10
5.31817
20
-4.20913
11
5.31817
21
-4.34299
0
LINE
8
BLACK
6
CONTINUOUS
10
5.31817
20
-4.34299
11
5.31788
21
-4.34369
0
LINE
8
BLACK
6
CONTINUOUS
10
5.31788
20
-4.34369
11
5.31719
21
-4.34398
0
LINE
8
BLACK
6
CONTINUOUS
10
5.31719
20
-4.34398
11
5.24002
21
-4.34398
0
LINE
8
BLACK
6
CONTINUOUS
10
5.24002
20
-4.34398
11
5.23933
21
-4.34369
0
LINE
8
BLACK
6
CONTINUOUS
10
5.23933
20
-4.34369
11
5.23904
21
-4.34299
0
LINE
8
BLACK
6
CONTINUOUS
10
5.23904
20
-4.34299
11
5.23904
21
-4.20913
0
LINE
8
BLACK
6
CONTINUOUS
10
5.23904
20
-4.20913
11
5.23933
21
-4.20844
0
LINE
8
BLACK
6
CONTINUOUS
10
5.23933
20
-4.20844
11
5.24002
21
-4.20815
0
LINE
8
BLACK
6
CONTINUOUS
10
5.24002
20
-4.20815
11
5.31719
21
-4.20815
0
LINE
8
BLACK
6
CONTINUOUS
10
5.24101
20
-4.21012
11
5.24101
21
-4.34201
0
LINE
8
BLACK
6
CONTINUOUS
10
5.24101
20
-4.34201
11
5.3162
21
-4.34201
0
LINE
8
BLACK
6
CONTINUOUS
10
5.3162
20
-4.34201
11
5.3162
21
-4.21012
0
LINE
8
BLACK
6
CONTINUOUS
10
5.3162
20
-4.21012
11
5.24101
21
-4.21012
0
LINE
8
BLACK
6
CONTINUOUS
10
5.40719
20
-4.20815
11
5.40788
21
-4.20844
0
LINE
8
BLACK
6
CONTINUOUS
10
5.40788
20
-4.20844
11
5.40817
21
-4.20913
0
LINE
8
BLACK
6
CONTINUOUS
10
5.40817
20
-4.20913
11
5.40817
21
-4.34299
0
LINE
8
BLACK
6
CONTINUOUS
10
5.40817
20
-4.34299
11
5.40788
21
-4.34369
0
LINE
8
BLACK
6
CONTINUOUS
10
5.40788
20
-4.34369
11
5.40719
21
-4.34398
0
LINE
8
BLACK
6
CONTINUOUS
10
5.40719
20
-4.34398
11
5.33002
21
-4.34398
0
LINE
8
BLACK
6
CONTINUOUS
10
5.33002
20
-4.34398
11
5.32933
21
-4.34369
0
LINE
8
BLACK
6
CONTINUOUS
10
5.32933
20
-4.34369
11
5.32904
21
-4.34299
0
LINE
8
BLACK
6
CONTINUOUS
10
5.32904
20
-4.34299
11
5.32904
21
-4.20913
0
LINE
8
BLACK
6
CONTINUOUS
10
5.32904
20
-4.20913
11
5.32933
21
-4.20844
0
LINE
8
BLACK
6
CONTINUOUS
10
5.32933
20
-4.20844
11
5.33002
21
-4.20815
0
LINE
8
BLACK
6
CONTINUOUS
10
5.33002
20
-4.20815
11
5.40719
21
-4.20815
0
LINE
8
BLACK
6
CONTINUOUS
10
5.33101
20
-4.21012
11
5.33101
21
-4.34201
0
LINE
8
BLACK
6
CONTINUOUS
10
5.33101
20
-4.34201
11
5.4062
21
-4.34201
0
LINE
8
BLACK
6
CONTINUOUS
10
5.4062
20
-4.34201
11
5.4062
21
-4.21012
0
LINE
8
BLACK
6
CONTINUOUS
10
5.4062
20
-4.21012
11
5.33101
21
-4.21012
0
LINE
8
BLACK
6
CONTINUOUS
10
5.22427
20
-4.18494
11
5.22496
21
-4.18523
0
LINE
8
BLACK
6
CONTINUOUS
10
5.22496
20
-4.18523
11
5.22525
21
-4.18592
0
LINE
8
BLACK
6
CONTINUOUS
10
5.22525
20
-4.18592
11
5.22525
21
-4.32765
0
LINE
8
BLACK
6
CONTINUOUS
10
5.22525
20
-4.32765
11
5.22496
21
-4.32835
0
LINE
8
BLACK
6
CONTINUOUS
10
5.22496
20
-4.32835
11
5.22427
21
-4.32864
0
LINE
8
BLACK
6
CONTINUOUS
10
5.22427
20
-4.32864
11
5.00773
21
-4.32864
0
LINE
8
BLACK
6
CONTINUOUS
10
5.00773
20
-4.32864
11
5.00704
21
-4.32835
0
LINE
8
BLACK
6
CONTINUOUS
10
5.00704
20
-4.32835
11
5.00675
21
-4.32765
0
LINE
8
BLACK
6
CONTINUOUS
10
5.00675
20
-4.32765
11
5.00675
21
-4.18592
0
LINE
8
BLACK
6
CONTINUOUS
10
5.00675
20
-4.18592
11
5.00704
21
-4.18523
0
LINE
8
BLACK
6
CONTINUOUS
10
5.00704
20
-4.18523
11
5.00773
21
-4.18494
0
LINE
8
BLACK
6
CONTINUOUS
10
5.00773
20
-4.18494
11
5.22427
21
-4.18494
0
LINE
8
BLACK
6
CONTINUOUS
10
5.00872
20
-4.18691
11
5.00872
21
-4.32667
0
LINE
8
BLACK
6
CONTINUOUS
10
5.00872
20
-4.32667
11
5.22328
21
-4.32667
0
LINE
8
BLACK
6
CONTINUOUS
10
5.22328
20
-4.32667
11
5.22328
21
-4.18691
0
LINE
8
BLACK
6
CONTINUOUS
10
5.22328
20
-4.18691
11
5.00872
21
-4.18691
0
LINE
8
BLACK
6
CONTINUOUS
10
5.63433
20
-4.22571
11
5.63503
21
-4.226
0
LINE
8
BLACK
6
CONTINUOUS
10
5.63503
20
-4.226
11
5.63531
21
-4.22669
0
LINE
8
BLACK
6
CONTINUOUS
10
5.63531
20
-4.22669
11
5.63531
21
-4.31331
0
LINE
8
BLACK
6
CONTINUOUS
10
5.63531
20
-4.31331
11
5.63503
21
-4.314
0
LINE
8
BLACK
6
CONTINUOUS
10
5.63503
20
-4.314
11
5.63433
21
-4.31429
0
LINE
8
BLACK
6
CONTINUOUS
10
5.63433
20
-4.31429
11
5.42567
21
-4.31429
0
LINE
8
BLACK
6
CONTINUOUS
10
5.42567
20
-4.31429
11
5.42497
21
-4.314
0
LINE
8
BLACK
6
CONTINUOUS
10
5.42497
20
-4.314
11
5.42469
21
-4.31331
0
LINE
8
BLACK
6
CONTINUOUS
10
5.42469
20
-4.31331
11
5.42469
21
-4.22669
0
LINE
8
BLACK
6
CONTINUOUS
10
5.42469
20
-4.22669
11
5.42497
21
-4.226
0
LINE
8
BLACK
6
CONTINUOUS
10
5.42497
20
-4.226
11
5.42567
21
-4.22571
0
LINE
8
BLACK
6
CONTINUOUS
10
5.42567
20
-4.22571
11
5.63433
21
-4.22571
0
LINE
8
BLACK
6
CONTINUOUS
10
5.42665
20
-4.22768
11
5.42665
21
-4.31232
0
LINE
8
BLACK
6
CONTINUOUS
10
5.42665
20
-4.31232
11
5.63335
21
-4.31232
0
LINE
8
BLACK
6
CONTINUOUS
10
5.63335
20
-4.31232
11
5.63335
21
-4.22768
0
LINE
8
BLACK
6
CONTINUOUS
10
5.63335
20
-4.22768
11
5.42665
21
-4.22768
0
LINE
8
BLACK
6
CONTINUOUS
10
5.35614
20
-4.07161
11
5.35684
21
-4.0719
0
LINE
8
BLACK
6
CONTINUOUS
10
5.35684
20
-4.0719
11
5.35713
21
-4.0726
0
LINE
8
BLACK
6
CONTINUOUS
10
5.35713
20
-4.0726
11
5.35713
21
-4.1474
0
LINE
8
BLACK
6
CONTINUOUS
10
5.35713
20
-4.1474
11
5.35684
21
-4.1481
0
LINE
8
BLACK
6
CONTINUOUS
10
5.35684
20
-4.1481
11
5.35614
21
-4.14839
0
LINE
8
BLACK
6
CONTINUOUS
10
5.35614
20
-4.14839
11
5.22386
21
-4.14839
0
LINE
8
BLACK
6
CONTINUOUS
10
5.22386
20
-4.14839
11
5.22316
21
-4.1481
0
LINE
8
BLACK
6
CONTINUOUS
10
5.22316
20
-4.1481
11
5.22287
21
-4.1474
0
LINE
8
BLACK
6
CONTINUOUS
10
5.22287
20
-4.1474
11
5.22287
21
-4.1474
0
LINE
8
BLACK
6
CONTINUOUS
10
5.22287
20
-4.1474
11
5.22287
21
-4.0726
0
LINE
8
BLACK
6
CONTINUOUS
10
5.22287
20
-4.0726
11
5.22316
21
-4.0719
0
LINE
8
BLACK
6
CONTINUOUS
10
5.22316
20
-4.0719
11
5.22386
21
-4.07161
0
LINE
8
BLACK
6
CONTINUOUS
10
5.22386
20
-4.07161
11
5.35614
21
-4.07161
0
LINE
8
BLACK
6
CONTINUOUS
10
5.22484
20
-4.07358
11
5.22484
21
-4.14642
0
LINE
8
BLACK
6
CONTINUOUS
10
5.22484
20
-4.14642
11
5.35516
21
-4.14642
0
LINE
8
BLACK
6
CONTINUOUS
10
5.35516
20
-4.14642
11
5.35516
21
-4.07358
0
LINE
8
BLACK
6
CONTINUOUS
10
5.35516
20
-4.07358
11
5.22484
21
-4.07358
0
LINE
8
BLACK
6
CONTINUOUS
10
5.51614
20
-4.07161
11
5.51684
21
-4.0719
0
LINE
8
BLACK
6
CONTINUOUS
10
5.51684
20
-4.0719
11
5.51713
21
-4.0726
0
LINE
8
BLACK
6
CONTINUOUS
10
5.51713
20
-4.0726
11
5.51713
21
-4.1474
0
LINE
8
BLACK
6
CONTINUOUS
10
5.51713
20
-4.1474
11
5.51684
21
-4.1481
0
LINE
8
BLACK
6
CONTINUOUS
10
5.51684
20
-4.1481
11
5.51614
21
-4.14839
0
LINE
8
BLACK
6
CONTINUOUS
10
5.51614
20
-4.14839
11
5.38386
21
-4.14839
0
LINE
8
BLACK
6
CONTINUOUS
10
5.38386
20
-4.14839
11
5.38316
21
-4.1481
0
LINE
8
BLACK
6
CONTINUOUS
10
5.38316
20
-4.1481
11
5.38287
21
-4.1474
0
LINE
8
BLACK
6
CONTINUOUS
10
5.38287
20
-4.1474
11
5.38287
21
-4.1474
0
LINE
8
BLACK
6
CONTINUOUS
10
5.38287
20
-4.1474
11
5.38287
21
-4.0726
0
LINE
8
BLACK
6
CONTINUOUS
10
5.38287
20
-4.0726
11
5.38316
21
-4.0719
0
LINE
8
BLACK
6
CONTINUOUS
10
5.38316
20
-4.0719
11
5.38386
21
-4.07161
0
LINE
8
BLACK
6
CONTINUOUS
10
5.38386
20
-4.07161
11
5.51614
21
-4.07161
0
LINE
8
BLACK
6
CONTINUOUS
10
5.38484
20
-4.07358
11
5.38484
21
-4.14642
0
LINE
8
BLACK
6
CONTINUOUS
10
5.38484
20
-4.14642
11
5.51516
21
-4.14642
0
LINE
8
BLACK
6
CONTINUOUS
10
5.51516
20
-4.14642
11
5.51516
21
-4.07358
0
LINE
8
BLACK
6
CONTINUOUS
10
5.51516
20
-4.07358
11
5.38484
21
-4.07358
  0
ENDSEC
  0
EOF
