  0
SECTION
  2
HEADER
  9
$ANGBASE
  50
0.0
  9
$ANGDIR
  70
1
  9
$MEASUREMENT
  70
0
  0
ENDSEC
  0
SECTION
  2
TABLES
  0
TABLE
  2
LTYPE
  70
4
  0
LTYPE
  5
40F
  2
CONTINUOUS
  70
0
  3
Solid line
  72
65
  73
0
  40
0.0
  0
LTYPE
  5
410
  2
DASHDOT
 70
0
  3
Dash Dot ____ _ ____ _
 72
65
 73
4
 40
2.0
 49
1.25
 49
-0.25
 49
0.25
 49
-0.25
  0
LTYPE
  5
411
  2
DASHED
 70
0
  3
Dashed __ __ __ __ __
 72
65
 73
2
 40
0.75
 49
0.5
 49
-0.25
  0
LTYPE
  5
43B
  2
DOTTED
 70
0
  3
Dotted .  .  .  .
 72
65
 73
2
 40
0.2
 49
0.0
 49
-0.2
  0
ENDTAB
  0
TABLE
  2
STYLE
  70
4
  0
STYLE
  2
KICAD
  70
0
  40
0
  41
1
  42
1
  50
0
  71
0
  3
isocp.shx
  0
STYLE
  2
KICADB
  70
0
  40
0
  41
1
  42
1
  50
0
  71
0
  3
isocp.shx
  0
STYLE
  2
KICADI
  70
0
  40
0
  41
1
  42
1
  50
15
  71
0
  3
isocp.shx
  0
STYLE
  2
KICADBI
  70
0
  40
0
  41
1
  42
1
  50
15
  71
0
  3
isocp.shx
  0
ENDTAB
  0
TABLE
  2
LAYER
  70
1
  0
LAYER
  2
BLACK
  70
0
  62
7
  6
CONTINUOUS
  0
ENDTAB
  0
ENDSEC
  0
SECTION
  2
ENTITIES
0
LINE
8
BLACK
6
CONTINUOUS
10
5.71008
20
-4.18888
11
5.71163
21
-4.19018
0
LINE
8
BLACK
6
CONTINUOUS
10
5.71163
20
-4.19018
11
5.71198
21
-4.19217
0
LINE
8
BLACK
6
CONTINUOUS
10
5.71198
20
-4.19217
11
5.71097
21
-4.19392
0
LINE
8
BLACK
6
CONTINUOUS
10
5.71097
20
-4.19392
11
5.70907
21
-4.19461
0
LINE
8
BLACK
6
CONTINUOUS
10
5.70907
20
-4.19461
11
5.69453
21
-4.19461
0
LINE
8
BLACK
6
CONTINUOUS
10
5.69453
20
-4.19461
11
5.7114
21
-4.21608
0
LINE
8
BLACK
6
CONTINUOUS
10
5.7114
20
-4.21608
11
5.71154
21
-4.21636
0
LINE
8
BLACK
6
CONTINUOUS
10
5.71154
20
-4.21636
11
5.71163
21
-4.21643
0
LINE
8
BLACK
6
CONTINUOUS
10
5.71163
20
-4.21643
11
5.71166
21
-4.21657
0
LINE
8
BLACK
6
CONTINUOUS
10
5.71166
20
-4.21657
11
5.71188
21
-4.21699
0
LINE
8
BLACK
6
CONTINUOUS
10
5.71188
20
-4.21699
11
5.71186
21
-4.21771
0
LINE
8
BLACK
6
CONTINUOUS
10
5.71186
20
-4.21771
11
5.71198
21
-4.21842
0
LINE
8
BLACK
6
CONTINUOUS
10
5.71198
20
-4.21842
11
5.71182
21
-4.21869
0
LINE
8
BLACK
6
CONTINUOUS
10
5.71182
20
-4.21869
11
5.71181
21
-4.219
0
LINE
8
BLACK
6
CONTINUOUS
10
5.71181
20
-4.219
11
5.71133
21
-4.21954
0
LINE
8
BLACK
6
CONTINUOUS
10
5.71133
20
-4.21954
11
5.71097
21
-4.22017
0
LINE
8
BLACK
6
CONTINUOUS
10
5.71097
20
-4.22017
11
5.71068
21
-4.22028
0
LINE
8
BLACK
6
CONTINUOUS
10
5.71068
20
-4.22028
11
5.71047
21
-4.22051
0
LINE
8
BLACK
6
CONTINUOUS
10
5.71047
20
-4.22051
11
5.70975
21
-4.22061
0
LINE
8
BLACK
6
CONTINUOUS
10
5.70975
20
-4.22061
11
5.70907
21
-4.22086
0
LINE
8
BLACK
6
CONTINUOUS
10
5.70907
20
-4.22086
11
5.68845
21
-4.22086
0
LINE
8
BLACK
6
CONTINUOUS
10
5.68845
20
-4.22086
11
5.68744
21
-4.22068
0
LINE
8
BLACK
6
CONTINUOUS
10
5.68744
20
-4.22068
11
5.68589
21
-4.21938
0
LINE
8
BLACK
6
CONTINUOUS
10
5.68589
20
-4.21938
11
5.68554
21
-4.21739
0
LINE
8
BLACK
6
CONTINUOUS
10
5.68554
20
-4.21739
11
5.68655
21
-4.21564
0
LINE
8
BLACK
6
CONTINUOUS
10
5.68655
20
-4.21564
11
5.68845
21
-4.21495
0
LINE
8
BLACK
6
CONTINUOUS
10
5.68845
20
-4.21495
11
5.703
21
-4.21495
0
LINE
8
BLACK
6
CONTINUOUS
10
5.703
20
-4.21495
11
5.68613
21
-4.19348
0
LINE
8
BLACK
6
CONTINUOUS
10
5.68613
20
-4.19348
11
5.68598
21
-4.19321
0
LINE
8
BLACK
6
CONTINUOUS
10
5.68598
20
-4.19321
11
5.68589
21
-4.19314
0
LINE
8
BLACK
6
CONTINUOUS
10
5.68589
20
-4.19314
11
5.68587
21
-4.193
0
LINE
8
BLACK
6
CONTINUOUS
10
5.68587
20
-4.193
11
5.68565
21
-4.19258
0
LINE
8
BLACK
6
CONTINUOUS
10
5.68565
20
-4.19258
11
5.68567
21
-4.19186
0
LINE
8
BLACK
6
CONTINUOUS
10
5.68567
20
-4.19186
11
5.68554
21
-4.19115
0
LINE
8
BLACK
6
CONTINUOUS
10
5.68554
20
-4.19115
11
5.6857
21
-4.19087
0
LINE
8
BLACK
6
CONTINUOUS
10
5.6857
20
-4.19087
11
5.68571
21
-4.19056
0
LINE
8
BLACK
6
CONTINUOUS
10
5.68571
20
-4.19056
11
5.68619
21
-4.19002
0
LINE
8
BLACK
6
CONTINUOUS
10
5.68619
20
-4.19002
11
5.68655
21
-4.1894
0
LINE
8
BLACK
6
CONTINUOUS
10
5.68655
20
-4.1894
11
5.68685
21
-4.18929
0
LINE
8
BLACK
6
CONTINUOUS
10
5.68685
20
-4.18929
11
5.68706
21
-4.18906
0
LINE
8
BLACK
6
CONTINUOUS
10
5.68706
20
-4.18906
11
5.68777
21
-4.18895
0
LINE
8
BLACK
6
CONTINUOUS
10
5.68777
20
-4.18895
11
5.68845
21
-4.18871
0
LINE
8
BLACK
6
CONTINUOUS
10
5.68845
20
-4.18871
11
5.70907
21
-4.18871
0
LINE
8
BLACK
6
CONTINUOUS
10
5.70907
20
-4.18871
11
5.71008
21
-4.18888
0
LINE
8
BLACK
6
CONTINUOUS
10
5.73446
20
-4.18888
11
5.73459
21
-4.189
0
LINE
8
BLACK
6
CONTINUOUS
10
5.73459
20
-4.189
11
5.73477
21
-4.18902
0
LINE
8
BLACK
6
CONTINUOUS
10
5.73477
20
-4.18902
11
5.73852
21
-4.19089
0
LINE
8
BLACK
6
CONTINUOUS
10
5.73852
20
-4.19089
11
5.73922
21
-4.19142
0
LINE
8
BLACK
6
CONTINUOUS
10
5.73922
20
-4.19142
11
5.73928
21
-4.19145
0
LINE
8
BLACK
6
CONTINUOUS
10
5.73928
20
-4.19145
11
5.74116
21
-4.19332
0
LINE
8
BLACK
6
CONTINUOUS
10
5.74116
20
-4.19332
11
5.74166
21
-4.19404
0
LINE
8
BLACK
6
CONTINUOUS
10
5.74166
20
-4.19404
11
5.74171
21
-4.19409
0
LINE
8
BLACK
6
CONTINUOUS
10
5.74171
20
-4.19409
11
5.74359
21
-4.19784
0
LINE
8
BLACK
6
CONTINUOUS
10
5.74359
20
-4.19784
11
5.74388
21
-4.19882
0
LINE
8
BLACK
6
CONTINUOUS
10
5.74388
20
-4.19882
11
5.74384
21
-4.19899
0
LINE
8
BLACK
6
CONTINUOUS
10
5.74384
20
-4.19899
11
5.7439
21
-4.19916
0
LINE
8
BLACK
6
CONTINUOUS
10
5.7439
20
-4.19916
11
5.7439
21
-4.21041
0
LINE
8
BLACK
6
CONTINUOUS
10
5.7439
20
-4.21041
11
5.74372
21
-4.21142
0
LINE
8
BLACK
6
CONTINUOUS
10
5.74372
20
-4.21142
11
5.74361
21
-4.21155
0
LINE
8
BLACK
6
CONTINUOUS
10
5.74361
20
-4.21155
11
5.74359
21
-4.21173
0
LINE
8
BLACK
6
CONTINUOUS
10
5.74359
20
-4.21173
11
5.74171
21
-4.21548
0
LINE
8
BLACK
6
CONTINUOUS
10
5.74171
20
-4.21548
11
5.74119
21
-4.21619
0
LINE
8
BLACK
6
CONTINUOUS
10
5.74119
20
-4.21619
11
5.74116
21
-4.21624
0
LINE
8
BLACK
6
CONTINUOUS
10
5.74116
20
-4.21624
11
5.73928
21
-4.21812
0
LINE
8
BLACK
6
CONTINUOUS
10
5.73928
20
-4.21812
11
5.73856
21
-4.21863
0
LINE
8
BLACK
6
CONTINUOUS
10
5.73856
20
-4.21863
11
5.73852
21
-4.21867
0
LINE
8
BLACK
6
CONTINUOUS
10
5.73852
20
-4.21867
11
5.73477
21
-4.22055
0
LINE
8
BLACK
6
CONTINUOUS
10
5.73477
20
-4.22055
11
5.73378
21
-4.22084
0
LINE
8
BLACK
6
CONTINUOUS
10
5.73378
20
-4.22084
11
5.73361
21
-4.2208
0
LINE
8
BLACK
6
CONTINUOUS
10
5.73361
20
-4.2208
11
5.73345
21
-4.22086
0
LINE
8
BLACK
6
CONTINUOUS
10
5.73345
20
-4.22086
11
5.72595
21
-4.22086
0
LINE
8
BLACK
6
CONTINUOUS
10
5.72595
20
-4.22086
11
5.72494
21
-4.22068
0
LINE
8
BLACK
6
CONTINUOUS
10
5.72494
20
-4.22068
11
5.7248
21
-4.22057
0
LINE
8
BLACK
6
CONTINUOUS
10
5.7248
20
-4.22057
11
5.72463
21
-4.22055
0
LINE
8
BLACK
6
CONTINUOUS
10
5.72463
20
-4.22055
11
5.72088
21
-4.21867
0
LINE
8
BLACK
6
CONTINUOUS
10
5.72088
20
-4.21867
11
5.72005
21
-4.21806
0
LINE
8
BLACK
6
CONTINUOUS
10
5.72005
20
-4.21806
11
5.71925
21
-4.21621
0
LINE
8
BLACK
6
CONTINUOUS
10
5.71925
20
-4.21621
11
5.71983
21
-4.21427
0
LINE
8
BLACK
6
CONTINUOUS
10
5.71983
20
-4.21427
11
5.72151
21
-4.21316
0
LINE
8
BLACK
6
CONTINUOUS
10
5.72151
20
-4.21316
11
5.72352
21
-4.21339
0
LINE
8
BLACK
6
CONTINUOUS
10
5.72352
20
-4.21339
11
5.72664
21
-4.21495
0
LINE
8
BLACK
6
CONTINUOUS
10
5.72664
20
-4.21495
11
5.73275
21
-4.21495
0
LINE
8
BLACK
6
CONTINUOUS
10
5.73275
20
-4.21495
11
5.73545
21
-4.2136
0
LINE
8
BLACK
6
CONTINUOUS
10
5.73545
20
-4.2136
11
5.73664
21
-4.21241
0
LINE
8
BLACK
6
CONTINUOUS
10
5.73664
20
-4.21241
11
5.73799
21
-4.20971
0
LINE
8
BLACK
6
CONTINUOUS
10
5.73799
20
-4.20971
11
5.73799
21
-4.19986
0
LINE
8
BLACK
6
CONTINUOUS
10
5.73799
20
-4.19986
11
5.73664
21
-4.19716
0
LINE
8
BLACK
6
CONTINUOUS
10
5.73664
20
-4.19716
11
5.73545
21
-4.19596
0
LINE
8
BLACK
6
CONTINUOUS
10
5.73545
20
-4.19596
11
5.73275
21
-4.19461
0
LINE
8
BLACK
6
CONTINUOUS
10
5.73275
20
-4.19461
11
5.72664
21
-4.19461
0
LINE
8
BLACK
6
CONTINUOUS
10
5.72664
20
-4.19461
11
5.72352
21
-4.19618
0
LINE
8
BLACK
6
CONTINUOUS
10
5.72352
20
-4.19618
11
5.72253
21
-4.19647
0
LINE
8
BLACK
6
CONTINUOUS
10
5.72253
20
-4.19647
11
5.72057
21
-4.196
0
LINE
8
BLACK
6
CONTINUOUS
10
5.72057
20
-4.196
11
5.71937
21
-4.19438
0
LINE
8
BLACK
6
CONTINUOUS
10
5.71937
20
-4.19438
11
5.71949
21
-4.19236
0
LINE
8
BLACK
6
CONTINUOUS
10
5.71949
20
-4.19236
11
5.72088
21
-4.19089
0
LINE
8
BLACK
6
CONTINUOUS
10
5.72088
20
-4.19089
11
5.72463
21
-4.18902
0
LINE
8
BLACK
6
CONTINUOUS
10
5.72463
20
-4.18902
11
5.72561
21
-4.18873
0
LINE
8
BLACK
6
CONTINUOUS
10
5.72561
20
-4.18873
11
5.72578
21
-4.18877
0
LINE
8
BLACK
6
CONTINUOUS
10
5.72578
20
-4.18877
11
5.72595
21
-4.18871
0
LINE
8
BLACK
6
CONTINUOUS
10
5.72595
20
-4.18871
11
5.73345
21
-4.18871
0
LINE
8
BLACK
6
CONTINUOUS
10
5.73345
20
-4.18871
11
5.73446
21
-4.18888
0
LINE
8
BLACK
6
CONTINUOUS
10
5.79757
20
-4.17565
11
5.7977
21
-4.17563
0
LINE
8
BLACK
6
CONTINUOUS
10
5.7977
20
-4.17563
11
5.79781
21
-4.17569
0
LINE
8
BLACK
6
CONTINUOUS
10
5.79781
20
-4.17569
11
5.7982
21
-4.17576
0
LINE
8
BLACK
6
CONTINUOUS
10
5.7982
20
-4.17576
11
5.79879
21
-4.17625
0
LINE
8
BLACK
6
CONTINUOUS
10
5.79879
20
-4.17625
11
5.79945
21
-4.17664
0
LINE
8
BLACK
6
CONTINUOUS
10
5.79945
20
-4.17664
11
5.79954
21
-4.17689
0
LINE
8
BLACK
6
CONTINUOUS
10
5.79954
20
-4.17689
11
5.79974
21
-4.17706
0
LINE
8
BLACK
6
CONTINUOUS
10
5.79974
20
-4.17706
11
5.79988
21
-4.17782
0
LINE
8
BLACK
6
CONTINUOUS
10
5.79988
20
-4.17782
11
5.80014
21
-4.17854
0
LINE
8
BLACK
6
CONTINUOUS
10
5.80014
20
-4.17854
11
5.80014
21
-4.21791
0
LINE
8
BLACK
6
CONTINUOUS
10
5.80014
20
-4.21791
11
5.80007
21
-4.21829
0
LINE
8
BLACK
6
CONTINUOUS
10
5.80007
20
-4.21829
11
5.8001
21
-4.21842
0
LINE
8
BLACK
6
CONTINUOUS
10
5.8001
20
-4.21842
11
5.80003
21
-4.21853
0
LINE
8
BLACK
6
CONTINUOUS
10
5.80003
20
-4.21853
11
5.79996
21
-4.21892
0
LINE
8
BLACK
6
CONTINUOUS
10
5.79996
20
-4.21892
11
5.79947
21
-4.2195
0
LINE
8
BLACK
6
CONTINUOUS
10
5.79947
20
-4.2195
11
5.79909
21
-4.22017
0
LINE
8
BLACK
6
CONTINUOUS
10
5.79909
20
-4.22017
11
5.79884
21
-4.22026
0
LINE
8
BLACK
6
CONTINUOUS
10
5.79884
20
-4.22026
11
5.79866
21
-4.22046
0
LINE
8
BLACK
6
CONTINUOUS
10
5.79866
20
-4.22046
11
5.79791
21
-4.2206
0
LINE
8
BLACK
6
CONTINUOUS
10
5.79791
20
-4.2206
11
5.79719
21
-4.22086
0
LINE
8
BLACK
6
CONTINUOUS
10
5.79719
20
-4.22086
11
5.78219
21
-4.22086
0
LINE
8
BLACK
6
CONTINUOUS
10
5.78219
20
-4.22086
11
5.78118
21
-4.22068
0
LINE
8
BLACK
6
CONTINUOUS
10
5.78118
20
-4.22068
11
5.78104
21
-4.22057
0
LINE
8
BLACK
6
CONTINUOUS
10
5.78104
20
-4.22057
11
5.78087
21
-4.22055
0
LINE
8
BLACK
6
CONTINUOUS
10
5.78087
20
-4.22055
11
5.77712
21
-4.21867
0
LINE
8
BLACK
6
CONTINUOUS
10
5.77712
20
-4.21867
11
5.77641
21
-4.21815
0
LINE
8
BLACK
6
CONTINUOUS
10
5.77641
20
-4.21815
11
5.77635
21
-4.21812
0
LINE
8
BLACK
6
CONTINUOUS
10
5.77635
20
-4.21812
11
5.77448
21
-4.21624
0
LINE
8
BLACK
6
CONTINUOUS
10
5.77448
20
-4.21624
11
5.77397
21
-4.21552
0
LINE
8
BLACK
6
CONTINUOUS
10
5.77397
20
-4.21552
11
5.77392
21
-4.21548
0
LINE
8
BLACK
6
CONTINUOUS
10
5.77392
20
-4.21548
11
5.77205
21
-4.21173
0
LINE
8
BLACK
6
CONTINUOUS
10
5.77205
20
-4.21173
11
5.77176
21
-4.21074
0
LINE
8
BLACK
6
CONTINUOUS
10
5.77176
20
-4.21074
11
5.7718
21
-4.21057
0
LINE
8
BLACK
6
CONTINUOUS
10
5.7718
20
-4.21057
11
5.77174
21
-4.21041
0
LINE
8
BLACK
6
CONTINUOUS
10
5.77174
20
-4.21041
11
5.77174
21
-4.20478
0
LINE
8
BLACK
6
CONTINUOUS
10
5.77174
20
-4.20478
11
5.77192
21
-4.20377
0
LINE
8
BLACK
6
CONTINUOUS
10
5.77192
20
-4.20377
11
5.77203
21
-4.20364
0
LINE
8
BLACK
6
CONTINUOUS
10
5.77203
20
-4.20364
11
5.77205
21
-4.20346
0
LINE
8
BLACK
6
CONTINUOUS
10
5.77205
20
-4.20346
11
5.77392
21
-4.19971
0
LINE
8
BLACK
6
CONTINUOUS
10
5.77392
20
-4.19971
11
5.77445
21
-4.199
0
LINE
8
BLACK
6
CONTINUOUS
10
5.77445
20
-4.199
11
5.77448
21
-4.19895
0
LINE
8
BLACK
6
CONTINUOUS
10
5.77448
20
-4.19895
11
5.77635
21
-4.19707
0
LINE
8
BLACK
6
CONTINUOUS
10
5.77635
20
-4.19707
11
5.77719
21
-4.19648
0
LINE
8
BLACK
6
CONTINUOUS
10
5.77719
20
-4.19648
11
5.77721
21
-4.19648
0
LINE
8
BLACK
6
CONTINUOUS
10
5.77721
20
-4.19648
11
5.77635
21
-4.19562
0
LINE
8
BLACK
6
CONTINUOUS
10
5.77635
20
-4.19562
11
5.77585
21
-4.1949
0
LINE
8
BLACK
6
CONTINUOUS
10
5.77585
20
-4.1949
11
5.7758
21
-4.19485
0
LINE
8
BLACK
6
CONTINUOUS
10
5.7758
20
-4.19485
11
5.77392
21
-4.19111
0
LINE
8
BLACK
6
CONTINUOUS
10
5.77392
20
-4.19111
11
5.77363
21
-4.19012
0
LINE
8
BLACK
6
CONTINUOUS
10
5.77363
20
-4.19012
11
5.77367
21
-4.18995
0
LINE
8
BLACK
6
CONTINUOUS
10
5.77367
20
-4.18995
11
5.77361
21
-4.18978
0
LINE
8
BLACK
6
CONTINUOUS
10
5.77361
20
-4.18978
11
5.77361
21
-4.18604
0
LINE
8
BLACK
6
CONTINUOUS
10
5.77361
20
-4.18604
11
5.77379
21
-4.18503
0
LINE
8
BLACK
6
CONTINUOUS
10
5.77379
20
-4.18503
11
5.7739
21
-4.18489
0
LINE
8
BLACK
6
CONTINUOUS
10
5.7739
20
-4.18489
11
5.77392
21
-4.18471
0
LINE
8
BLACK
6
CONTINUOUS
10
5.77392
20
-4.18471
11
5.7758
21
-4.18097
0
LINE
8
BLACK
6
CONTINUOUS
10
5.7758
20
-4.18097
11
5.77633
21
-4.18026
0
LINE
8
BLACK
6
CONTINUOUS
10
5.77633
20
-4.18026
11
5.77635
21
-4.1802
0
LINE
8
BLACK
6
CONTINUOUS
10
5.77635
20
-4.1802
11
5.77823
21
-4.17832
0
LINE
8
BLACK
6
CONTINUOUS
10
5.77823
20
-4.17832
11
5.77895
21
-4.17782
0
LINE
8
BLACK
6
CONTINUOUS
10
5.77895
20
-4.17782
11
5.77899
21
-4.17777
0
LINE
8
BLACK
6
CONTINUOUS
10
5.77899
20
-4.17777
11
5.78274
21
-4.1759
0
LINE
8
BLACK
6
CONTINUOUS
10
5.78274
20
-4.1759
11
5.78373
21
-4.1756
0
LINE
8
BLACK
6
CONTINUOUS
10
5.78373
20
-4.1756
11
5.7839
21
-4.17564
0
LINE
8
BLACK
6
CONTINUOUS
10
5.7839
20
-4.17564
11
5.78406
21
-4.17558
0
LINE
8
BLACK
6
CONTINUOUS
10
5.78406
20
-4.17558
11
5.79719
21
-4.17558
0
LINE
8
BLACK
6
CONTINUOUS
10
5.79719
20
-4.17558
11
5.79757
21
-4.17565
0
LINE
8
BLACK
6
CONTINUOUS
10
5.78004
20
-4.20174
11
5.77899
21
-4.20278
0
LINE
8
BLACK
6
CONTINUOUS
10
5.77899
20
-4.20278
11
5.77764
21
-4.20548
0
LINE
8
BLACK
6
CONTINUOUS
10
5.77764
20
-4.20548
11
5.77764
21
-4.20971
0
LINE
8
BLACK
6
CONTINUOUS
10
5.77764
20
-4.20971
11
5.77899
21
-4.21241
0
LINE
8
BLACK
6
CONTINUOUS
10
5.77899
20
-4.21241
11
5.78019
21
-4.2136
0
LINE
8
BLACK
6
CONTINUOUS
10
5.78019
20
-4.2136
11
5.78289
21
-4.21495
0
LINE
8
BLACK
6
CONTINUOUS
10
5.78289
20
-4.21495
11
5.79424
21
-4.21495
0
LINE
8
BLACK
6
CONTINUOUS
10
5.79424
20
-4.21495
11
5.79424
21
-4.20024
0
LINE
8
BLACK
6
CONTINUOUS
10
5.79424
20
-4.20024
11
5.78454
21
-4.20024
0
LINE
8
BLACK
6
CONTINUOUS
10
5.78454
20
-4.20024
11
5.78004
21
-4.20174
0
LINE
8
BLACK
6
CONTINUOUS
10
5.78206
20
-4.18284
11
5.78087
21
-4.18403
0
LINE
8
BLACK
6
CONTINUOUS
10
5.78087
20
-4.18403
11
5.77952
21
-4.18673
0
LINE
8
BLACK
6
CONTINUOUS
10
5.77952
20
-4.18673
11
5.77952
21
-4.18909
0
LINE
8
BLACK
6
CONTINUOUS
10
5.77952
20
-4.18909
11
5.78087
21
-4.19179
0
LINE
8
BLACK
6
CONTINUOUS
10
5.78087
20
-4.19179
11
5.78206
21
-4.19298
0
LINE
8
BLACK
6
CONTINUOUS
10
5.78206
20
-4.19298
11
5.78476
21
-4.19433
0
LINE
8
BLACK
6
CONTINUOUS
10
5.78476
20
-4.19433
11
5.79424
21
-4.19433
0
LINE
8
BLACK
6
CONTINUOUS
10
5.79424
20
-4.19433
11
5.79424
21
-4.18149
0
LINE
8
BLACK
6
CONTINUOUS
10
5.79424
20
-4.18149
11
5.78476
21
-4.18149
0
LINE
8
BLACK
6
CONTINUOUS
10
5.78476
20
-4.18149
11
5.78206
21
-4.18284
0
LINE
8
BLACK
6
CONTINUOUS
10
5.86507
20
-4.17664
11
5.86576
21
-4.17854
0
LINE
8
BLACK
6
CONTINUOUS
10
5.86576
20
-4.17854
11
5.86576
21
-4.21791
0
LINE
8
BLACK
6
CONTINUOUS
10
5.86576
20
-4.21791
11
5.86569
21
-4.21829
0
LINE
8
BLACK
6
CONTINUOUS
10
5.86569
20
-4.21829
11
5.86571
21
-4.21842
0
LINE
8
BLACK
6
CONTINUOUS
10
5.86571
20
-4.21842
11
5.86565
21
-4.21853
0
LINE
8
BLACK
6
CONTINUOUS
10
5.86565
20
-4.21853
11
5.86558
21
-4.21892
0
LINE
8
BLACK
6
CONTINUOUS
10
5.86558
20
-4.21892
11
5.86509
21
-4.2195
0
LINE
8
BLACK
6
CONTINUOUS
10
5.86509
20
-4.2195
11
5.8647
21
-4.22017
0
LINE
8
BLACK
6
CONTINUOUS
10
5.8647
20
-4.22017
11
5.86445
21
-4.22026
0
LINE
8
BLACK
6
CONTINUOUS
10
5.86445
20
-4.22026
11
5.86428
21
-4.22046
0
LINE
8
BLACK
6
CONTINUOUS
10
5.86428
20
-4.22046
11
5.86353
21
-4.2206
0
LINE
8
BLACK
6
CONTINUOUS
10
5.86353
20
-4.2206
11
5.8628
21
-4.22086
0
LINE
8
BLACK
6
CONTINUOUS
10
5.8628
20
-4.22086
11
5.84406
21
-4.22086
0
LINE
8
BLACK
6
CONTINUOUS
10
5.84406
20
-4.22086
11
5.84305
21
-4.22068
0
LINE
8
BLACK
6
CONTINUOUS
10
5.84305
20
-4.22068
11
5.8415
21
-4.21938
0
LINE
8
BLACK
6
CONTINUOUS
10
5.8415
20
-4.21938
11
5.84115
21
-4.21739
0
LINE
8
BLACK
6
CONTINUOUS
10
5.84115
20
-4.21739
11
5.84216
21
-4.21564
0
LINE
8
BLACK
6
CONTINUOUS
10
5.84216
20
-4.21564
11
5.84406
21
-4.21495
0
LINE
8
BLACK
6
CONTINUOUS
10
5.84406
20
-4.21495
11
5.85985
21
-4.21495
0
LINE
8
BLACK
6
CONTINUOUS
10
5.85985
20
-4.21495
11
5.85985
21
-4.17854
0
LINE
8
BLACK
6
CONTINUOUS
10
5.85985
20
-4.17854
11
5.86003
21
-4.17753
0
LINE
8
BLACK
6
CONTINUOUS
10
5.86003
20
-4.17753
11
5.86133
21
-4.17598
0
LINE
8
BLACK
6
CONTINUOUS
10
5.86133
20
-4.17598
11
5.86332
21
-4.17563
0
LINE
8
BLACK
6
CONTINUOUS
10
5.86332
20
-4.17563
11
5.86507
21
-4.17664
0
LINE
8
BLACK
6
CONTINUOUS
10
5.7582
20
-4.21127
11
5.75833
21
-4.21125
0
LINE
8
BLACK
6
CONTINUOUS
10
5.75833
20
-4.21125
11
5.75845
21
-4.21132
0
LINE
8
BLACK
6
CONTINUOUS
10
5.75845
20
-4.21132
11
5.75858
21
-4.2113
0
LINE
8
BLACK
6
CONTINUOUS
10
5.75858
20
-4.2113
11
5.75921
21
-4.21174
0
LINE
8
BLACK
6
CONTINUOUS
10
5.75921
20
-4.21174
11
5.75991
21
-4.21207
0
LINE
8
BLACK
6
CONTINUOUS
10
5.75991
20
-4.21207
11
5.76178
21
-4.21394
0
LINE
8
BLACK
6
CONTINUOUS
10
5.76178
20
-4.21394
11
5.762
21
-4.21426
0
LINE
8
BLACK
6
CONTINUOUS
10
5.762
20
-4.21426
11
5.76211
21
-4.21434
0
LINE
8
BLACK
6
CONTINUOUS
10
5.76211
20
-4.21434
11
5.76215
21
-4.21446
0
LINE
8
BLACK
6
CONTINUOUS
10
5.76215
20
-4.21446
11
5.76237
21
-4.21478
0
LINE
8
BLACK
6
CONTINUOUS
10
5.76237
20
-4.21478
11
5.76244
21
-4.21555
0
LINE
8
BLACK
6
CONTINUOUS
10
5.76244
20
-4.21555
11
5.76263
21
-4.21629
0
LINE
8
BLACK
6
CONTINUOUS
10
5.76263
20
-4.21629
11
5.76252
21
-4.21653
0
LINE
8
BLACK
6
CONTINUOUS
10
5.76252
20
-4.21653
11
5.76254
21
-4.2168
0
LINE
8
BLACK
6
CONTINUOUS
10
5.76254
20
-4.2168
11
5.7621
21
-4.21742
0
LINE
8
BLACK
6
CONTINUOUS
10
5.7621
20
-4.21742
11
5.76178
21
-4.21812
0
LINE
8
BLACK
6
CONTINUOUS
10
5.76178
20
-4.21812
11
5.75991
21
-4.21999
0
LINE
8
BLACK
6
CONTINUOUS
10
5.75991
20
-4.21999
11
5.75959
21
-4.22022
0
LINE
8
BLACK
6
CONTINUOUS
10
5.75959
20
-4.22022
11
5.75951
21
-4.22033
0
LINE
8
BLACK
6
CONTINUOUS
10
5.75951
20
-4.22033
11
5.75938
21
-4.22036
0
LINE
8
BLACK
6
CONTINUOUS
10
5.75938
20
-4.22036
11
5.75938
21
-4.22036
0
LINE
8
BLACK
6
CONTINUOUS
10
5.75938
20
-4.22036
11
5.75929
21
-4.22046
0
LINE
8
BLACK
6
CONTINUOUS
10
5.75929
20
-4.22046
11
5.75922
21
-4.22048
0
LINE
8
BLACK
6
CONTINUOUS
10
5.75922
20
-4.22048
11
5.75907
21
-4.22058
0
LINE
8
BLACK
6
CONTINUOUS
10
5.75907
20
-4.22058
11
5.7583
21
-4.22065
0
LINE
8
BLACK
6
CONTINUOUS
10
5.7583
20
-4.22065
11
5.75756
21
-4.22085
0
LINE
8
BLACK
6
CONTINUOUS
10
5.75756
20
-4.22085
11
5.75744
21
-4.22079
0
LINE
8
BLACK
6
CONTINUOUS
10
5.75744
20
-4.22079
11
5.7573
21
-4.22081
0
LINE
8
BLACK
6
CONTINUOUS
10
5.7573
20
-4.22081
11
5.75719
21
-4.22075
0
LINE
8
BLACK
6
CONTINUOUS
10
5.75719
20
-4.22075
11
5.75705
21
-4.22076
0
LINE
8
BLACK
6
CONTINUOUS
10
5.75705
20
-4.22076
11
5.75643
21
-4.22032
0
LINE
8
BLACK
6
CONTINUOUS
10
5.75643
20
-4.22032
11
5.75573
21
-4.21999
0
LINE
8
BLACK
6
CONTINUOUS
10
5.75573
20
-4.21999
11
5.75386
21
-4.21812
0
LINE
8
BLACK
6
CONTINUOUS
10
5.75386
20
-4.21812
11
5.75363
21
-4.2178
0
LINE
8
BLACK
6
CONTINUOUS
10
5.75363
20
-4.2178
11
5.75352
21
-4.21773
0
LINE
8
BLACK
6
CONTINUOUS
10
5.75352
20
-4.21773
11
5.75349
21
-4.2176
0
LINE
8
BLACK
6
CONTINUOUS
10
5.75349
20
-4.2176
11
5.75327
21
-4.21728
0
LINE
8
BLACK
6
CONTINUOUS
10
5.75327
20
-4.21728
11
5.7532
21
-4.21652
0
LINE
8
BLACK
6
CONTINUOUS
10
5.7532
20
-4.21652
11
5.753
21
-4.21577
0
LINE
8
BLACK
6
CONTINUOUS
10
5.753
20
-4.21577
11
5.75311
21
-4.21553
0
LINE
8
BLACK
6
CONTINUOUS
10
5.75311
20
-4.21553
11
5.75309
21
-4.21527
0
LINE
8
BLACK
6
CONTINUOUS
10
5.75309
20
-4.21527
11
5.75353
21
-4.21464
0
LINE
8
BLACK
6
CONTINUOUS
10
5.75353
20
-4.21464
11
5.75385
21
-4.21394
0
LINE
8
BLACK
6
CONTINUOUS
10
5.75385
20
-4.21394
11
5.75573
21
-4.21207
0
LINE
8
BLACK
6
CONTINUOUS
10
5.75573
20
-4.21207
11
5.75605
21
-4.21185
0
LINE
8
BLACK
6
CONTINUOUS
10
5.75605
20
-4.21185
11
5.75612
21
-4.21174
0
LINE
8
BLACK
6
CONTINUOUS
10
5.75612
20
-4.21174
11
5.75625
21
-4.2117
0
LINE
8
BLACK
6
CONTINUOUS
10
5.75625
20
-4.2117
11
5.75626
21
-4.2117
0
LINE
8
BLACK
6
CONTINUOUS
10
5.75626
20
-4.2117
11
5.75634
21
-4.2116
0
LINE
8
BLACK
6
CONTINUOUS
10
5.75634
20
-4.2116
11
5.75642
21
-4.21159
0
LINE
8
BLACK
6
CONTINUOUS
10
5.75642
20
-4.21159
11
5.75657
21
-4.21148
0
LINE
8
BLACK
6
CONTINUOUS
10
5.75657
20
-4.21148
11
5.75733
21
-4.21141
0
LINE
8
BLACK
6
CONTINUOUS
10
5.75733
20
-4.21141
11
5.75808
21
-4.21122
0
LINE
8
BLACK
6
CONTINUOUS
10
5.75808
20
-4.21122
11
5.7582
21
-4.21127
0
LINE
8
BLACK
6
CONTINUOUS
10
5.82392
20
-4.1758
11
5.82484
21
-4.17594
0
LINE
8
BLACK
6
CONTINUOUS
10
5.82484
20
-4.17594
11
5.8249
21
-4.176
0
LINE
8
BLACK
6
CONTINUOUS
10
5.8249
20
-4.176
11
5.82498
21
-4.17602
0
LINE
8
BLACK
6
CONTINUOUS
10
5.82498
20
-4.17602
11
5.82556
21
-4.17675
0
LINE
8
BLACK
6
CONTINUOUS
10
5.82556
20
-4.17675
11
5.82618
21
-4.17745
0
LINE
8
BLACK
6
CONTINUOUS
10
5.82618
20
-4.17745
11
5.82618
21
-4.17754
0
LINE
8
BLACK
6
CONTINUOUS
10
5.82618
20
-4.17754
11
5.82624
21
-4.1776
0
LINE
8
BLACK
6
CONTINUOUS
10
5.82624
20
-4.1776
11
5.83936
21
-4.21697
0
LINE
8
BLACK
6
CONTINUOUS
10
5.83936
20
-4.21697
11
5.83951
21
-4.21799
0
LINE
8
BLACK
6
CONTINUOUS
10
5.83951
20
-4.21799
11
5.83877
21
-4.21987
0
LINE
8
BLACK
6
CONTINUOUS
10
5.83877
20
-4.21987
11
5.83699
21
-4.22083
0
LINE
8
BLACK
6
CONTINUOUS
10
5.83699
20
-4.22083
11
5.83501
21
-4.22042
0
LINE
8
BLACK
6
CONTINUOUS
10
5.83501
20
-4.22042
11
5.83376
21
-4.21884
0
LINE
8
BLACK
6
CONTINUOUS
10
5.83376
20
-4.21884
11
5.83068
21
-4.20961
0
LINE
8
BLACK
6
CONTINUOUS
10
5.83068
20
-4.20961
11
5.81619
21
-4.20961
0
LINE
8
BLACK
6
CONTINUOUS
10
5.81619
20
-4.20961
11
5.81311
21
-4.21884
0
LINE
8
BLACK
6
CONTINUOUS
10
5.81311
20
-4.21884
11
5.81262
21
-4.21974
0
LINE
8
BLACK
6
CONTINUOUS
10
5.81262
20
-4.21974
11
5.8109
21
-4.2208
0
LINE
8
BLACK
6
CONTINUOUS
10
5.8109
20
-4.2208
11
5.80891
21
-4.2205
0
LINE
8
BLACK
6
CONTINUOUS
10
5.80891
20
-4.2205
11
5.80757
21
-4.21899
0
LINE
8
BLACK
6
CONTINUOUS
10
5.80757
20
-4.21899
11
5.80751
21
-4.21697
0
LINE
8
BLACK
6
CONTINUOUS
10
5.80751
20
-4.21697
11
5.82063
21
-4.1776
0
LINE
8
BLACK
6
CONTINUOUS
10
5.82063
20
-4.1776
11
5.82112
21
-4.1767
0
LINE
8
BLACK
6
CONTINUOUS
10
5.82112
20
-4.1767
11
5.82119
21
-4.17666
0
LINE
8
BLACK
6
CONTINUOUS
10
5.82119
20
-4.17666
11
5.82123
21
-4.17658
0
LINE
8
BLACK
6
CONTINUOUS
10
5.82123
20
-4.17658
11
5.82205
21
-4.17613
0
LINE
8
BLACK
6
CONTINUOUS
10
5.82205
20
-4.17613
11
5.82284
21
-4.17564
0
LINE
8
BLACK
6
CONTINUOUS
10
5.82284
20
-4.17564
11
5.82293
21
-4.17566
0
LINE
8
BLACK
6
CONTINUOUS
10
5.82293
20
-4.17566
11
5.823
21
-4.17562
0
LINE
8
BLACK
6
CONTINUOUS
10
5.823
20
-4.17562
11
5.82392
21
-4.1758
0
LINE
8
BLACK
6
CONTINUOUS
10
5.81816
20
-4.2037
11
5.82871
21
-4.2037
0
LINE
8
BLACK
6
CONTINUOUS
10
5.82871
20
-4.2037
11
5.82343
21
-4.18787
0
LINE
8
BLACK
6
CONTINUOUS
10
5.82343
20
-4.18787
11
5.81816
21
-4.2037
0
LINE
8
BLACK
6
CONTINUOUS
10
5.90792
20
-4.1757
11
5.90831
21
-4.17563
0
LINE
8
BLACK
6
CONTINUOUS
10
5.90831
20
-4.17563
11
5.90887
21
-4.17595
0
LINE
8
BLACK
6
CONTINUOUS
10
5.90887
20
-4.17595
11
5.90949
21
-4.17612
0
LINE
8
BLACK
6
CONTINUOUS
10
5.90949
20
-4.17612
11
5.90972
21
-4.17644
0
LINE
8
BLACK
6
CONTINUOUS
10
5.90972
20
-4.17644
11
5.91006
21
-4.17664
0
LINE
8
BLACK
6
CONTINUOUS
10
5.91006
20
-4.17664
11
5.91028
21
-4.17724
0
LINE
8
BLACK
6
CONTINUOUS
10
5.91028
20
-4.17724
11
5.91065
21
-4.17777
0
LINE
8
BLACK
6
CONTINUOUS
10
5.91065
20
-4.17777
11
5.91062
21
-4.17817
0
LINE
8
BLACK
6
CONTINUOUS
10
5.91062
20
-4.17817
11
5.91075
21
-4.17854
0
LINE
8
BLACK
6
CONTINUOUS
10
5.91075
20
-4.17854
11
5.91075
21
-4.21791
0
LINE
8
BLACK
6
CONTINUOUS
10
5.91075
20
-4.21791
11
5.91057
21
-4.21892
0
LINE
8
BLACK
6
CONTINUOUS
10
5.91057
20
-4.21892
11
5.90928
21
-4.22046
0
LINE
8
BLACK
6
CONTINUOUS
10
5.90928
20
-4.22046
11
5.90729
21
-4.22081
0
LINE
8
BLACK
6
CONTINUOUS
10
5.90729
20
-4.22081
11
5.90554
21
-4.2198
0
LINE
8
BLACK
6
CONTINUOUS
10
5.90554
20
-4.2198
11
5.90485
21
-4.21791
0
LINE
8
BLACK
6
CONTINUOUS
10
5.90485
20
-4.21791
11
5.90485
21
-4.19185
0
LINE
8
BLACK
6
CONTINUOUS
10
5.90485
20
-4.19185
11
5.89735
21
-4.20791
0
LINE
8
BLACK
6
CONTINUOUS
10
5.89735
20
-4.20791
11
5.89713
21
-4.20822
0
LINE
8
BLACK
6
CONTINUOUS
10
5.89713
20
-4.20822
11
5.89709
21
-4.20835
0
LINE
8
BLACK
6
CONTINUOUS
10
5.89709
20
-4.20835
11
5.89699
21
-4.20843
0
LINE
8
BLACK
6
CONTINUOUS
10
5.89699
20
-4.20843
11
5.89676
21
-4.20875
0
LINE
8
BLACK
6
CONTINUOUS
10
5.89676
20
-4.20875
11
5.89607
21
-4.20907
0
LINE
8
BLACK
6
CONTINUOUS
10
5.89607
20
-4.20907
11
5.89544
21
-4.20951
0
LINE
8
BLACK
6
CONTINUOUS
10
5.89544
20
-4.20951
11
5.89517
21
-4.20949
0
LINE
8
BLACK
6
CONTINUOUS
10
5.89517
20
-4.20949
11
5.89493
21
-4.2096
0
LINE
8
BLACK
6
CONTINUOUS
10
5.89493
20
-4.2096
11
5.89419
21
-4.2094
0
LINE
8
BLACK
6
CONTINUOUS
10
5.89419
20
-4.2094
11
5.89343
21
-4.20933
0
LINE
8
BLACK
6
CONTINUOUS
10
5.89343
20
-4.20933
11
5.89324
21
-4.20915
0
LINE
8
BLACK
6
CONTINUOUS
10
5.89324
20
-4.20915
11
5.89298
21
-4.20908
0
LINE
8
BLACK
6
CONTINUOUS
10
5.89298
20
-4.20908
11
5.89254
21
-4.20845
0
LINE
8
BLACK
6
CONTINUOUS
10
5.89254
20
-4.20845
11
5.892
21
-4.20791
0
LINE
8
BLACK
6
CONTINUOUS
10
5.892
20
-4.20791
11
5.88451
21
-4.19185
0
LINE
8
BLACK
6
CONTINUOUS
10
5.88451
20
-4.19185
11
5.88451
21
-4.21791
0
LINE
8
BLACK
6
CONTINUOUS
10
5.88451
20
-4.21791
11
5.88433
21
-4.21892
0
LINE
8
BLACK
6
CONTINUOUS
10
5.88433
20
-4.21892
11
5.88303
21
-4.22046
0
LINE
8
BLACK
6
CONTINUOUS
10
5.88303
20
-4.22046
11
5.88104
21
-4.22081
0
LINE
8
BLACK
6
CONTINUOUS
10
5.88104
20
-4.22081
11
5.87929
21
-4.2198
0
LINE
8
BLACK
6
CONTINUOUS
10
5.87929
20
-4.2198
11
5.8786
21
-4.21791
0
LINE
8
BLACK
6
CONTINUOUS
10
5.8786
20
-4.21791
11
5.8786
21
-4.17854
0
LINE
8
BLACK
6
CONTINUOUS
10
5.8786
20
-4.17854
11
5.87878
21
-4.17753
0
LINE
8
BLACK
6
CONTINUOUS
10
5.87878
20
-4.17753
11
5.87903
21
-4.17722
0
LINE
8
BLACK
6
CONTINUOUS
10
5.87903
20
-4.17722
11
5.87913
21
-4.17684
0
LINE
8
BLACK
6
CONTINUOUS
10
5.87913
20
-4.17684
11
5.87966
21
-4.17647
0
LINE
8
BLACK
6
CONTINUOUS
10
5.87966
20
-4.17647
11
5.88008
21
-4.17598
0
LINE
8
BLACK
6
CONTINUOUS
10
5.88008
20
-4.17598
11
5.88046
21
-4.17591
0
LINE
8
BLACK
6
CONTINUOUS
10
5.88046
20
-4.17591
11
5.88079
21
-4.17568
0
LINE
8
BLACK
6
CONTINUOUS
10
5.88079
20
-4.17568
11
5.88143
21
-4.17574
0
LINE
8
BLACK
6
CONTINUOUS
10
5.88143
20
-4.17574
11
5.88207
21
-4.17563
0
LINE
8
BLACK
6
CONTINUOUS
10
5.88207
20
-4.17563
11
5.88241
21
-4.17583
0
LINE
8
BLACK
6
CONTINUOUS
10
5.88241
20
-4.17583
11
5.8828
21
-4.17586
0
LINE
8
BLACK
6
CONTINUOUS
10
5.8828
20
-4.17586
11
5.88326
21
-4.17632
0
LINE
8
BLACK
6
CONTINUOUS
10
5.88326
20
-4.17632
11
5.88381
21
-4.17664
0
LINE
8
BLACK
6
CONTINUOUS
10
5.88381
20
-4.17664
11
5.88395
21
-4.17701
0
LINE
8
BLACK
6
CONTINUOUS
10
5.88395
20
-4.17701
11
5.88423
21
-4.17729
0
LINE
8
BLACK
6
CONTINUOUS
10
5.88423
20
-4.17729
11
5.89468
21
-4.19968
0
LINE
8
BLACK
6
CONTINUOUS
10
5.89468
20
-4.19968
11
5.90512
21
-4.17729
0
LINE
8
BLACK
6
CONTINUOUS
10
5.90512
20
-4.17729
11
5.90571
21
-4.17645
0
LINE
8
BLACK
6
CONTINUOUS
10
5.90571
20
-4.17645
11
5.90607
21
-4.17628
0
LINE
8
BLACK
6
CONTINUOUS
10
5.90607
20
-4.17628
11
5.90632
21
-4.17598
0
LINE
8
BLACK
6
CONTINUOUS
10
5.90632
20
-4.17598
11
5.90696
21
-4.17587
0
LINE
8
BLACK
6
CONTINUOUS
10
5.90696
20
-4.17587
11
5.90754
21
-4.17559
0
LINE
8
BLACK
6
CONTINUOUS
10
5.90754
20
-4.17559
11
5.90792
21
-4.1757
0
LINE
8
BLACK
6
CONTINUOUS
10
4.53527
20
-4.17676
11
4.53541
21
-4.17687
0
LINE
8
BLACK
6
CONTINUOUS
10
4.53541
20
-4.17687
11
4.53558
21
-4.1769
0
LINE
8
BLACK
6
CONTINUOUS
10
4.53558
20
-4.1769
11
4.53933
21
-4.17877
0
LINE
8
BLACK
6
CONTINUOUS
10
4.53933
20
-4.17877
11
4.54004
21
-4.1793
0
LINE
8
BLACK
6
CONTINUOUS
10
4.54004
20
-4.1793
11
4.5401
21
-4.17932
0
LINE
8
BLACK
6
CONTINUOUS
10
4.5401
20
-4.17932
11
4.54198
21
-4.1812
0
LINE
8
BLACK
6
CONTINUOUS
10
4.54198
20
-4.1812
11
4.54256
21
-4.18204
0
LINE
8
BLACK
6
CONTINUOUS
10
4.54256
20
-4.18204
11
4.54274
21
-4.18405
0
LINE
8
BLACK
6
CONTINUOUS
10
4.54274
20
-4.18405
11
4.54158
21
-4.1857
0
LINE
8
BLACK
6
CONTINUOUS
10
4.54158
20
-4.1857
11
4.53963
21
-4.18623
0
LINE
8
BLACK
6
CONTINUOUS
10
4.53963
20
-4.18623
11
4.5378
21
-4.18537
0
LINE
8
BLACK
6
CONTINUOUS
10
4.5378
20
-4.18537
11
4.53626
21
-4.18384
0
LINE
8
BLACK
6
CONTINUOUS
10
4.53626
20
-4.18384
11
4.53357
21
-4.18249
0
LINE
8
BLACK
6
CONTINUOUS
10
4.53357
20
-4.18249
11
4.52559
21
-4.18249
0
LINE
8
BLACK
6
CONTINUOUS
10
4.52559
20
-4.18249
11
4.52289
21
-4.18384
0
LINE
8
BLACK
6
CONTINUOUS
10
4.52289
20
-4.18384
11
4.52169
21
-4.18503
0
LINE
8
BLACK
6
CONTINUOUS
10
4.52169
20
-4.18503
11
4.52034
21
-4.18773
0
LINE
8
BLACK
6
CONTINUOUS
10
4.52034
20
-4.18773
11
4.52034
21
-4.19031
0
LINE
8
BLACK
6
CONTINUOUS
10
4.52034
20
-4.19031
11
4.52185
21
-4.19481
0
LINE
8
BLACK
6
CONTINUOUS
10
4.52185
20
-4.19481
11
4.54385
21
-4.21682
0
LINE
8
BLACK
6
CONTINUOUS
10
4.54385
20
-4.21682
11
4.54422
21
-4.21735
0
LINE
8
BLACK
6
CONTINUOUS
10
4.54422
20
-4.21735
11
4.54432
21
-4.21743
0
LINE
8
BLACK
6
CONTINUOUS
10
4.54432
20
-4.21743
11
4.54433
21
-4.21751
0
LINE
8
BLACK
6
CONTINUOUS
10
4.54433
20
-4.21751
11
4.54444
21
-4.21766
0
LINE
8
BLACK
6
CONTINUOUS
10
4.54444
20
-4.21766
11
4.54452
21
-4.21854
0
LINE
8
BLACK
6
CONTINUOUS
10
4.54452
20
-4.21854
11
4.54467
21
-4.21942
0
LINE
8
BLACK
6
CONTINUOUS
10
4.54467
20
-4.21942
11
4.5446
21
-4.21954
0
LINE
8
BLACK
6
CONTINUOUS
10
4.5446
20
-4.21954
11
4.54461
21
-4.21967
0
LINE
8
BLACK
6
CONTINUOUS
10
4.54461
20
-4.21967
11
4.5441
21
-4.2204
0
LINE
8
BLACK
6
CONTINUOUS
10
4.5441
20
-4.2204
11
4.54366
21
-4.22117
0
LINE
8
BLACK
6
CONTINUOUS
10
4.54366
20
-4.22117
11
4.54353
21
-4.22121
0
LINE
8
BLACK
6
CONTINUOUS
10
4.54353
20
-4.22121
11
4.54346
21
-4.22133
0
LINE
8
BLACK
6
CONTINUOUS
10
4.54346
20
-4.22133
11
4.5426
21
-4.22156
0
LINE
8
BLACK
6
CONTINUOUS
10
4.5426
20
-4.22156
11
4.54176
21
-4.22186
0
LINE
8
BLACK
6
CONTINUOUS
10
4.54176
20
-4.22186
11
4.51739
21
-4.22186
0
LINE
8
BLACK
6
CONTINUOUS
10
4.51739
20
-4.22186
11
4.51638
21
-4.22168
0
LINE
8
BLACK
6
CONTINUOUS
10
4.51638
20
-4.22168
11
4.51483
21
-4.22038
0
LINE
8
BLACK
6
CONTINUOUS
10
4.51483
20
-4.22038
11
4.51448
21
-4.21839
0
LINE
8
BLACK
6
CONTINUOUS
10
4.51448
20
-4.21839
11
4.51549
21
-4.21664
0
LINE
8
BLACK
6
CONTINUOUS
10
4.51549
20
-4.21664
11
4.51739
21
-4.21595
0
LINE
8
BLACK
6
CONTINUOUS
10
4.51739
20
-4.21595
11
4.53463
21
-4.21595
0
LINE
8
BLACK
6
CONTINUOUS
10
4.53463
20
-4.21595
11
4.51718
21
-4.1985
0
LINE
8
BLACK
6
CONTINUOUS
10
4.51718
20
-4.1985
11
4.51659
21
-4.19766
0
LINE
8
BLACK
6
CONTINUOUS
10
4.51659
20
-4.19766
11
4.51657
21
-4.19748
0
LINE
8
BLACK
6
CONTINUOUS
10
4.51657
20
-4.19748
11
4.51646
21
-4.19734
0
LINE
8
BLACK
6
CONTINUOUS
10
4.51646
20
-4.19734
11
4.51459
21
-4.19172
0
LINE
8
BLACK
6
CONTINUOUS
10
4.51459
20
-4.19172
11
4.51446
21
-4.19085
0
LINE
8
BLACK
6
CONTINUOUS
10
4.51446
20
-4.19085
11
4.51444
21
-4.19078
0
LINE
8
BLACK
6
CONTINUOUS
10
4.51444
20
-4.19078
11
4.51444
21
-4.18704
0
LINE
8
BLACK
6
CONTINUOUS
10
4.51444
20
-4.18704
11
4.51462
21
-4.18603
0
LINE
8
BLACK
6
CONTINUOUS
10
4.51462
20
-4.18603
11
4.51473
21
-4.18589
0
LINE
8
BLACK
6
CONTINUOUS
10
4.51473
20
-4.18589
11
4.51475
21
-4.18571
0
LINE
8
BLACK
6
CONTINUOUS
10
4.51475
20
-4.18571
11
4.51662
21
-4.18197
0
LINE
8
BLACK
6
CONTINUOUS
10
4.51662
20
-4.18197
11
4.51715
21
-4.18126
0
LINE
8
BLACK
6
CONTINUOUS
10
4.51715
20
-4.18126
11
4.51718
21
-4.1812
0
LINE
8
BLACK
6
CONTINUOUS
10
4.51718
20
-4.1812
11
4.51905
21
-4.17932
0
LINE
8
BLACK
6
CONTINUOUS
10
4.51905
20
-4.17932
11
4.51978
21
-4.17882
0
LINE
8
BLACK
6
CONTINUOUS
10
4.51978
20
-4.17882
11
4.51982
21
-4.17877
0
LINE
8
BLACK
6
CONTINUOUS
10
4.51982
20
-4.17877
11
4.52357
21
-4.1769
0
LINE
8
BLACK
6
CONTINUOUS
10
4.52357
20
-4.1769
11
4.52455
21
-4.1766
0
LINE
8
BLACK
6
CONTINUOUS
10
4.52455
20
-4.1766
11
4.52472
21
-4.17664
0
LINE
8
BLACK
6
CONTINUOUS
10
4.52472
20
-4.17664
11
4.52489
21
-4.17658
0
LINE
8
BLACK
6
CONTINUOUS
10
4.52489
20
-4.17658
11
4.53426
21
-4.17658
0
LINE
8
BLACK
6
CONTINUOUS
10
4.53426
20
-4.17658
11
4.53527
21
-4.17676
0
LINE
8
BLACK
6
CONTINUOUS
10
4.56902
20
-4.17676
11
4.56915
21
-4.17687
0
LINE
8
BLACK
6
CONTINUOUS
10
4.56915
20
-4.17687
11
4.56933
21
-4.1769
0
LINE
8
BLACK
6
CONTINUOUS
10
4.56933
20
-4.1769
11
4.57308
21
-4.17877
0
LINE
8
BLACK
6
CONTINUOUS
10
4.57308
20
-4.17877
11
4.57379
21
-4.1793
0
LINE
8
BLACK
6
CONTINUOUS
10
4.57379
20
-4.1793
11
4.57385
21
-4.17932
0
LINE
8
BLACK
6
CONTINUOUS
10
4.57385
20
-4.17932
11
4.57572
21
-4.1812
0
LINE
8
BLACK
6
CONTINUOUS
10
4.57572
20
-4.1812
11
4.57623
21
-4.18192
0
LINE
8
BLACK
6
CONTINUOUS
10
4.57623
20
-4.18192
11
4.57627
21
-4.18197
0
LINE
8
BLACK
6
CONTINUOUS
10
4.57627
20
-4.18197
11
4.57815
21
-4.18571
0
LINE
8
BLACK
6
CONTINUOUS
10
4.57815
20
-4.18571
11
4.57829
21
-4.1862
0
LINE
8
BLACK
6
CONTINUOUS
10
4.57829
20
-4.1862
11
4.57837
21
-4.18632
0
LINE
8
BLACK
6
CONTINUOUS
10
4.57837
20
-4.18632
11
4.58025
21
-4.19382
0
LINE
8
BLACK
6
CONTINUOUS
10
4.58025
20
-4.19382
11
4.58029
21
-4.19441
0
LINE
8
BLACK
6
CONTINUOUS
10
4.58029
20
-4.19441
11
4.58034
21
-4.19453
0
LINE
8
BLACK
6
CONTINUOUS
10
4.58034
20
-4.19453
11
4.58034
21
-4.20391
0
LINE
8
BLACK
6
CONTINUOUS
10
4.58034
20
-4.20391
11
4.58023
21
-4.20449
0
LINE
8
BLACK
6
CONTINUOUS
10
4.58023
20
-4.20449
11
4.58025
21
-4.20462
0
LINE
8
BLACK
6
CONTINUOUS
10
4.58025
20
-4.20462
11
4.57837
21
-4.21212
0
LINE
8
BLACK
6
CONTINUOUS
10
4.57837
20
-4.21212
11
4.57817
21
-4.21259
0
LINE
8
BLACK
6
CONTINUOUS
10
4.57817
20
-4.21259
11
4.57815
21
-4.21273
0
LINE
8
BLACK
6
CONTINUOUS
10
4.57815
20
-4.21273
11
4.57627
21
-4.21648
0
LINE
8
BLACK
6
CONTINUOUS
10
4.57627
20
-4.21648
11
4.57575
21
-4.21719
0
LINE
8
BLACK
6
CONTINUOUS
10
4.57575
20
-4.21719
11
4.57572
21
-4.21724
0
LINE
8
BLACK
6
CONTINUOUS
10
4.57572
20
-4.21724
11
4.57385
21
-4.21912
0
LINE
8
BLACK
6
CONTINUOUS
10
4.57385
20
-4.21912
11
4.57312
21
-4.21963
0
LINE
8
BLACK
6
CONTINUOUS
10
4.57312
20
-4.21963
11
4.57308
21
-4.21967
0
LINE
8
BLACK
6
CONTINUOUS
10
4.57308
20
-4.21967
11
4.56933
21
-4.22155
0
LINE
8
BLACK
6
CONTINUOUS
10
4.56933
20
-4.22155
11
4.56835
21
-4.22184
0
LINE
8
BLACK
6
CONTINUOUS
10
4.56835
20
-4.22184
11
4.56818
21
-4.2218
0
LINE
8
BLACK
6
CONTINUOUS
10
4.56818
20
-4.2218
11
4.56801
21
-4.22186
0
LINE
8
BLACK
6
CONTINUOUS
10
4.56801
20
-4.22186
11
4.56426
21
-4.22186
0
LINE
8
BLACK
6
CONTINUOUS
10
4.56426
20
-4.22186
11
4.56325
21
-4.22168
0
LINE
8
BLACK
6
CONTINUOUS
10
4.56325
20
-4.22168
11
4.56311
21
-4.22157
0
LINE
8
BLACK
6
CONTINUOUS
10
4.56311
20
-4.22157
11
4.56294
21
-4.22155
0
LINE
8
BLACK
6
CONTINUOUS
10
4.56294
20
-4.22155
11
4.55919
21
-4.21967
0
LINE
8
BLACK
6
CONTINUOUS
10
4.55919
20
-4.21967
11
4.55848
21
-4.21915
0
LINE
8
BLACK
6
CONTINUOUS
10
4.55848
20
-4.21915
11
4.55842
21
-4.21912
0
LINE
8
BLACK
6
CONTINUOUS
10
4.55842
20
-4.21912
11
4.55655
21
-4.21724
0
LINE
8
BLACK
6
CONTINUOUS
10
4.55655
20
-4.21724
11
4.55604
21
-4.21652
0
LINE
8
BLACK
6
CONTINUOUS
10
4.55604
20
-4.21652
11
4.55599
21
-4.21648
0
LINE
8
BLACK
6
CONTINUOUS
10
4.55599
20
-4.21648
11
4.55412
21
-4.21273
0
LINE
8
BLACK
6
CONTINUOUS
10
4.55412
20
-4.21273
11
4.55397
21
-4.21224
0
LINE
8
BLACK
6
CONTINUOUS
10
4.55397
20
-4.21224
11
4.5539
21
-4.21212
0
LINE
8
BLACK
6
CONTINUOUS
10
4.5539
20
-4.21212
11
4.55202
21
-4.20462
0
LINE
8
BLACK
6
CONTINUOUS
10
4.55202
20
-4.20462
11
4.55198
21
-4.20404
0
LINE
8
BLACK
6
CONTINUOUS
10
4.55198
20
-4.20404
11
4.55193
21
-4.20391
0
LINE
8
BLACK
6
CONTINUOUS
10
4.55193
20
-4.20391
11
4.55193
21
-4.19453
0
LINE
8
BLACK
6
CONTINUOUS
10
4.55193
20
-4.19453
11
4.55204
21
-4.19395
0
LINE
8
BLACK
6
CONTINUOUS
10
4.55204
20
-4.19395
11
4.55202
21
-4.19382
0
LINE
8
BLACK
6
CONTINUOUS
10
4.55202
20
-4.19382
11
4.5539
21
-4.18632
0
LINE
8
BLACK
6
CONTINUOUS
10
4.5539
20
-4.18632
11
4.5541
21
-4.18585
0
LINE
8
BLACK
6
CONTINUOUS
10
4.5541
20
-4.18585
11
4.55412
21
-4.18571
0
LINE
8
BLACK
6
CONTINUOUS
10
4.55412
20
-4.18571
11
4.55599
21
-4.18197
0
LINE
8
BLACK
6
CONTINUOUS
10
4.55599
20
-4.18197
11
4.55652
21
-4.18126
0
LINE
8
BLACK
6
CONTINUOUS
10
4.55652
20
-4.18126
11
4.55655
21
-4.1812
0
LINE
8
BLACK
6
CONTINUOUS
10
4.55655
20
-4.1812
11
4.55842
21
-4.17932
0
LINE
8
BLACK
6
CONTINUOUS
10
4.55842
20
-4.17932
11
4.55915
21
-4.17882
0
LINE
8
BLACK
6
CONTINUOUS
10
4.55915
20
-4.17882
11
4.55919
21
-4.17877
0
LINE
8
BLACK
6
CONTINUOUS
10
4.55919
20
-4.17877
11
4.56294
21
-4.1769
0
LINE
8
BLACK
6
CONTINUOUS
10
4.56294
20
-4.1769
11
4.56392
21
-4.1766
0
LINE
8
BLACK
6
CONTINUOUS
10
4.56392
20
-4.1766
11
4.56409
21
-4.17664
0
LINE
8
BLACK
6
CONTINUOUS
10
4.56409
20
-4.17664
11
4.56426
21
-4.17658
0
LINE
8
BLACK
6
CONTINUOUS
10
4.56426
20
-4.17658
11
4.56801
21
-4.17658
0
LINE
8
BLACK
6
CONTINUOUS
10
4.56801
20
-4.17658
11
4.56902
21
-4.17676
0
LINE
8
BLACK
6
CONTINUOUS
10
4.56226
20
-4.18384
11
4.56106
21
-4.18503
0
LINE
8
BLACK
6
CONTINUOUS
10
4.56106
20
-4.18503
11
4.55955
21
-4.18807
0
LINE
8
BLACK
6
CONTINUOUS
10
4.55955
20
-4.18807
11
4.55784
21
-4.1949
0
LINE
8
BLACK
6
CONTINUOUS
10
4.55784
20
-4.1949
11
4.55784
21
-4.20354
0
LINE
8
BLACK
6
CONTINUOUS
10
4.55784
20
-4.20354
11
4.55955
21
-4.21038
0
LINE
8
BLACK
6
CONTINUOUS
10
4.55955
20
-4.21038
11
4.56106
21
-4.21341
0
LINE
8
BLACK
6
CONTINUOUS
10
4.56106
20
-4.21341
11
4.56226
21
-4.2146
0
LINE
8
BLACK
6
CONTINUOUS
10
4.56226
20
-4.2146
11
4.56496
21
-4.21595
0
LINE
8
BLACK
6
CONTINUOUS
10
4.56496
20
-4.21595
11
4.56731
21
-4.21595
0
LINE
8
BLACK
6
CONTINUOUS
10
4.56731
20
-4.21595
11
4.57001
21
-4.2146
0
LINE
8
BLACK
6
CONTINUOUS
10
4.57001
20
-4.2146
11
4.57121
21
-4.21341
0
LINE
8
BLACK
6
CONTINUOUS
10
4.57121
20
-4.21341
11
4.57272
21
-4.21038
0
LINE
8
BLACK
6
CONTINUOUS
10
4.57272
20
-4.21038
11
4.57443
21
-4.20354
0
LINE
8
BLACK
6
CONTINUOUS
10
4.57443
20
-4.20354
11
4.57443
21
-4.1949
0
LINE
8
BLACK
6
CONTINUOUS
10
4.57443
20
-4.1949
11
4.57272
21
-4.18807
0
LINE
8
BLACK
6
CONTINUOUS
10
4.57272
20
-4.18807
11
4.57121
21
-4.18503
0
LINE
8
BLACK
6
CONTINUOUS
10
4.57121
20
-4.18503
11
4.57001
21
-4.18384
0
LINE
8
BLACK
6
CONTINUOUS
10
4.57001
20
-4.18384
11
4.56731
21
-4.18249
0
LINE
8
BLACK
6
CONTINUOUS
10
4.56731
20
-4.18249
11
4.56496
21
-4.18249
0
LINE
8
BLACK
6
CONTINUOUS
10
4.56496
20
-4.18249
11
4.56226
21
-4.18384
0
LINE
8
BLACK
6
CONTINUOUS
10
4.64151
20
-4.17665
11
4.64164
21
-4.17663
0
LINE
8
BLACK
6
CONTINUOUS
10
4.64164
20
-4.17663
11
4.64175
21
-4.17669
0
LINE
8
BLACK
6
CONTINUOUS
10
4.64175
20
-4.17669
11
4.64214
21
-4.17676
0
LINE
8
BLACK
6
CONTINUOUS
10
4.64214
20
-4.17676
11
4.64272
21
-4.17725
0
LINE
8
BLACK
6
CONTINUOUS
10
4.64272
20
-4.17725
11
4.64339
21
-4.17764
0
LINE
8
BLACK
6
CONTINUOUS
10
4.64339
20
-4.17764
11
4.64348
21
-4.17789
0
LINE
8
BLACK
6
CONTINUOUS
10
4.64348
20
-4.17789
11
4.64368
21
-4.17806
0
LINE
8
BLACK
6
CONTINUOUS
10
4.64368
20
-4.17806
11
4.64382
21
-4.17882
0
LINE
8
BLACK
6
CONTINUOUS
10
4.64382
20
-4.17882
11
4.64408
21
-4.17954
0
LINE
8
BLACK
6
CONTINUOUS
10
4.64408
20
-4.17954
11
4.64408
21
-4.21891
0
LINE
8
BLACK
6
CONTINUOUS
10
4.64408
20
-4.21891
11
4.64401
21
-4.21929
0
LINE
8
BLACK
6
CONTINUOUS
10
4.64401
20
-4.21929
11
4.64403
21
-4.21942
0
LINE
8
BLACK
6
CONTINUOUS
10
4.64403
20
-4.21942
11
4.64397
21
-4.21953
0
LINE
8
BLACK
6
CONTINUOUS
10
4.64397
20
-4.21953
11
4.6439
21
-4.21992
0
LINE
8
BLACK
6
CONTINUOUS
10
4.6439
20
-4.21992
11
4.64341
21
-4.2205
0
LINE
8
BLACK
6
CONTINUOUS
10
4.64341
20
-4.2205
11
4.64302
21
-4.22117
0
LINE
8
BLACK
6
CONTINUOUS
10
4.64302
20
-4.22117
11
4.64277
21
-4.22126
0
LINE
8
BLACK
6
CONTINUOUS
10
4.64277
20
-4.22126
11
4.6426
21
-4.22146
0
LINE
8
BLACK
6
CONTINUOUS
10
4.6426
20
-4.22146
11
4.64185
21
-4.2216
0
LINE
8
BLACK
6
CONTINUOUS
10
4.64185
20
-4.2216
11
4.64113
21
-4.22186
0
LINE
8
BLACK
6
CONTINUOUS
10
4.64113
20
-4.22186
11
4.62238
21
-4.22186
0
LINE
8
BLACK
6
CONTINUOUS
10
4.62238
20
-4.22186
11
4.62137
21
-4.22168
0
LINE
8
BLACK
6
CONTINUOUS
10
4.62137
20
-4.22168
11
4.61982
21
-4.22038
0
LINE
8
BLACK
6
CONTINUOUS
10
4.61982
20
-4.22038
11
4.61947
21
-4.21839
0
LINE
8
BLACK
6
CONTINUOUS
10
4.61947
20
-4.21839
11
4.62048
21
-4.21664
0
LINE
8
BLACK
6
CONTINUOUS
10
4.62048
20
-4.21664
11
4.62238
21
-4.21595
0
LINE
8
BLACK
6
CONTINUOUS
10
4.62238
20
-4.21595
11
4.63817
21
-4.21595
0
LINE
8
BLACK
6
CONTINUOUS
10
4.63817
20
-4.21595
11
4.63817
21
-4.20124
0
LINE
8
BLACK
6
CONTINUOUS
10
4.63817
20
-4.20124
11
4.628
21
-4.20124
0
LINE
8
BLACK
6
CONTINUOUS
10
4.628
20
-4.20124
11
4.62699
21
-4.20106
0
LINE
8
BLACK
6
CONTINUOUS
10
4.62699
20
-4.20106
11
4.62544
21
-4.19976
0
LINE
8
BLACK
6
CONTINUOUS
10
4.62544
20
-4.19976
11
4.62509
21
-4.19777
0
LINE
8
BLACK
6
CONTINUOUS
10
4.62509
20
-4.19777
11
4.6261
21
-4.19602
0
LINE
8
BLACK
6
CONTINUOUS
10
4.6261
20
-4.19602
11
4.628
21
-4.19533
0
LINE
8
BLACK
6
CONTINUOUS
10
4.628
20
-4.19533
11
4.63817
21
-4.19533
0
LINE
8
BLACK
6
CONTINUOUS
10
4.63817
20
-4.19533
11
4.63817
21
-4.18249
0
LINE
8
BLACK
6
CONTINUOUS
10
4.63817
20
-4.18249
11
4.62238
21
-4.18249
0
LINE
8
BLACK
6
CONTINUOUS
10
4.62238
20
-4.18249
11
4.62137
21
-4.18231
0
LINE
8
BLACK
6
CONTINUOUS
10
4.62137
20
-4.18231
11
4.61982
21
-4.18101
0
LINE
8
BLACK
6
CONTINUOUS
10
4.61982
20
-4.18101
11
4.61947
21
-4.17902
0
LINE
8
BLACK
6
CONTINUOUS
10
4.61947
20
-4.17902
11
4.62048
21
-4.17727
0
LINE
8
BLACK
6
CONTINUOUS
10
4.62048
20
-4.17727
11
4.62238
21
-4.17658
0
LINE
8
BLACK
6
CONTINUOUS
10
4.62238
20
-4.17658
11
4.64113
21
-4.17658
0
LINE
8
BLACK
6
CONTINUOUS
10
4.64113
20
-4.17658
11
4.64151
21
-4.17665
0
LINE
8
BLACK
6
CONTINUOUS
10
4.769
20
-4.17764
11
4.76969
21
-4.17954
0
LINE
8
BLACK
6
CONTINUOUS
10
4.76969
20
-4.17954
11
4.76969
21
-4.21891
0
LINE
8
BLACK
6
CONTINUOUS
10
4.76969
20
-4.21891
11
4.76962
21
-4.21929
0
LINE
8
BLACK
6
CONTINUOUS
10
4.76962
20
-4.21929
11
4.76964
21
-4.21942
0
LINE
8
BLACK
6
CONTINUOUS
10
4.76964
20
-4.21942
11
4.76958
21
-4.21953
0
LINE
8
BLACK
6
CONTINUOUS
10
4.76958
20
-4.21953
11
4.76951
21
-4.21992
0
LINE
8
BLACK
6
CONTINUOUS
10
4.76951
20
-4.21992
11
4.76902
21
-4.2205
0
LINE
8
BLACK
6
CONTINUOUS
10
4.76902
20
-4.2205
11
4.76863
21
-4.22117
0
LINE
8
BLACK
6
CONTINUOUS
10
4.76863
20
-4.22117
11
4.76838
21
-4.22126
0
LINE
8
BLACK
6
CONTINUOUS
10
4.76838
20
-4.22126
11
4.76821
21
-4.22146
0
LINE
8
BLACK
6
CONTINUOUS
10
4.76821
20
-4.22146
11
4.76746
21
-4.2216
0
LINE
8
BLACK
6
CONTINUOUS
10
4.76746
20
-4.2216
11
4.76673
21
-4.22186
0
LINE
8
BLACK
6
CONTINUOUS
10
4.76673
20
-4.22186
11
4.74799
21
-4.22186
0
LINE
8
BLACK
6
CONTINUOUS
10
4.74799
20
-4.22186
11
4.74698
21
-4.22168
0
LINE
8
BLACK
6
CONTINUOUS
10
4.74698
20
-4.22168
11
4.74543
21
-4.22038
0
LINE
8
BLACK
6
CONTINUOUS
10
4.74543
20
-4.22038
11
4.74508
21
-4.21839
0
LINE
8
BLACK
6
CONTINUOUS
10
4.74508
20
-4.21839
11
4.74609
21
-4.21664
0
LINE
8
BLACK
6
CONTINUOUS
10
4.74609
20
-4.21664
11
4.74799
21
-4.21595
0
LINE
8
BLACK
6
CONTINUOUS
10
4.74799
20
-4.21595
11
4.76378
21
-4.21595
0
LINE
8
BLACK
6
CONTINUOUS
10
4.76378
20
-4.21595
11
4.76378
21
-4.17954
0
LINE
8
BLACK
6
CONTINUOUS
10
4.76378
20
-4.17954
11
4.76396
21
-4.17853
0
LINE
8
BLACK
6
CONTINUOUS
10
4.76396
20
-4.17853
11
4.76526
21
-4.17698
0
LINE
8
BLACK
6
CONTINUOUS
10
4.76526
20
-4.17698
11
4.76725
21
-4.17663
0
LINE
8
BLACK
6
CONTINUOUS
10
4.76725
20
-4.17663
11
4.769
21
-4.17764
0
LINE
8
BLACK
6
CONTINUOUS
10
4.4935
20
-4.1768
11
4.49442
21
-4.17694
0
LINE
8
BLACK
6
CONTINUOUS
10
4.49442
20
-4.17694
11
4.49448
21
-4.177
0
LINE
8
BLACK
6
CONTINUOUS
10
4.49448
20
-4.177
11
4.49456
21
-4.17702
0
LINE
8
BLACK
6
CONTINUOUS
10
4.49456
20
-4.17702
11
4.49514
21
-4.17775
0
LINE
8
BLACK
6
CONTINUOUS
10
4.49514
20
-4.17775
11
4.49576
21
-4.17845
0
LINE
8
BLACK
6
CONTINUOUS
10
4.49576
20
-4.17845
11
4.49577
21
-4.17854
0
LINE
8
BLACK
6
CONTINUOUS
10
4.49577
20
-4.17854
11
4.49582
21
-4.1786
0
LINE
8
BLACK
6
CONTINUOUS
10
4.49582
20
-4.1786
11
4.50894
21
-4.21797
0
LINE
8
BLACK
6
CONTINUOUS
10
4.50894
20
-4.21797
11
4.50909
21
-4.21899
0
LINE
8
BLACK
6
CONTINUOUS
10
4.50909
20
-4.21899
11
4.50835
21
-4.22087
0
LINE
8
BLACK
6
CONTINUOUS
10
4.50835
20
-4.22087
11
4.50658
21
-4.22183
0
LINE
8
BLACK
6
CONTINUOUS
10
4.50658
20
-4.22183
11
4.5046
21
-4.22142
0
LINE
8
BLACK
6
CONTINUOUS
10
4.5046
20
-4.22142
11
4.50334
21
-4.21984
0
LINE
8
BLACK
6
CONTINUOUS
10
4.50334
20
-4.21984
11
4.50026
21
-4.21061
0
LINE
8
BLACK
6
CONTINUOUS
10
4.50026
20
-4.21061
11
4.48577
21
-4.21061
0
LINE
8
BLACK
6
CONTINUOUS
10
4.48577
20
-4.21061
11
4.4827
21
-4.21984
0
LINE
8
BLACK
6
CONTINUOUS
10
4.4827
20
-4.21984
11
4.48221
21
-4.22074
0
LINE
8
BLACK
6
CONTINUOUS
10
4.48221
20
-4.22074
11
4.48049
21
-4.2218
0
LINE
8
BLACK
6
CONTINUOUS
10
4.48049
20
-4.2218
11
4.47849
21
-4.2215
0
LINE
8
BLACK
6
CONTINUOUS
10
4.47849
20
-4.2215
11
4.47715
21
-4.21999
0
LINE
8
BLACK
6
CONTINUOUS
10
4.47715
20
-4.21999
11
4.47709
21
-4.21797
0
LINE
8
BLACK
6
CONTINUOUS
10
4.47709
20
-4.21797
11
4.49022
21
-4.1786
0
LINE
8
BLACK
6
CONTINUOUS
10
4.49022
20
-4.1786
11
4.49071
21
-4.1777
0
LINE
8
BLACK
6
CONTINUOUS
10
4.49071
20
-4.1777
11
4.49078
21
-4.17766
0
LINE
8
BLACK
6
CONTINUOUS
10
4.49078
20
-4.17766
11
4.49081
21
-4.17758
0
LINE
8
BLACK
6
CONTINUOUS
10
4.49081
20
-4.17758
11
4.49163
21
-4.17713
0
LINE
8
BLACK
6
CONTINUOUS
10
4.49163
20
-4.17713
11
4.49243
21
-4.17664
0
LINE
8
BLACK
6
CONTINUOUS
10
4.49243
20
-4.17664
11
4.49251
21
-4.17666
0
LINE
8
BLACK
6
CONTINUOUS
10
4.49251
20
-4.17666
11
4.49259
21
-4.17662
0
LINE
8
BLACK
6
CONTINUOUS
10
4.49259
20
-4.17662
11
4.4935
21
-4.1768
0
LINE
8
BLACK
6
CONTINUOUS
10
4.48774
20
-4.2047
11
4.4983
21
-4.2047
0
LINE
8
BLACK
6
CONTINUOUS
10
4.4983
20
-4.2047
11
4.49302
21
-4.18887
0
LINE
8
BLACK
6
CONTINUOUS
10
4.49302
20
-4.18887
11
4.48774
21
-4.2047
0
LINE
8
BLACK
6
CONTINUOUS
10
4.79346
20
-4.1768
11
4.79439
21
-4.17694
0
LINE
8
BLACK
6
CONTINUOUS
10
4.79439
20
-4.17694
11
4.79444
21
-4.177
0
LINE
8
BLACK
6
CONTINUOUS
10
4.79444
20
-4.177
11
4.79453
21
-4.17702
0
LINE
8
BLACK
6
CONTINUOUS
10
4.79453
20
-4.17702
11
4.79511
21
-4.17775
0
LINE
8
BLACK
6
CONTINUOUS
10
4.79511
20
-4.17775
11
4.79573
21
-4.17845
0
LINE
8
BLACK
6
CONTINUOUS
10
4.79573
20
-4.17845
11
4.79573
21
-4.17854
0
LINE
8
BLACK
6
CONTINUOUS
10
4.79573
20
-4.17854
11
4.79578
21
-4.1786
0
LINE
8
BLACK
6
CONTINUOUS
10
4.79578
20
-4.1786
11
4.80891
21
-4.21797
0
LINE
8
BLACK
6
CONTINUOUS
10
4.80891
20
-4.21797
11
4.80906
21
-4.21899
0
LINE
8
BLACK
6
CONTINUOUS
10
4.80906
20
-4.21899
11
4.80831
21
-4.22087
0
LINE
8
BLACK
6
CONTINUOUS
10
4.80831
20
-4.22087
11
4.80654
21
-4.22183
0
LINE
8
BLACK
6
CONTINUOUS
10
4.80654
20
-4.22183
11
4.80456
21
-4.22142
0
LINE
8
BLACK
6
CONTINUOUS
10
4.80456
20
-4.22142
11
4.8033
21
-4.21984
0
LINE
8
BLACK
6
CONTINUOUS
10
4.8033
20
-4.21984
11
4.80023
21
-4.21061
0
LINE
8
BLACK
6
CONTINUOUS
10
4.80023
20
-4.21061
11
4.78574
21
-4.21061
0
LINE
8
BLACK
6
CONTINUOUS
10
4.78574
20
-4.21061
11
4.78266
21
-4.21984
0
LINE
8
BLACK
6
CONTINUOUS
10
4.78266
20
-4.21984
11
4.78217
21
-4.22074
0
LINE
8
BLACK
6
CONTINUOUS
10
4.78217
20
-4.22074
11
4.78045
21
-4.2218
0
LINE
8
BLACK
6
CONTINUOUS
10
4.78045
20
-4.2218
11
4.77845
21
-4.2215
0
LINE
8
BLACK
6
CONTINUOUS
10
4.77845
20
-4.2215
11
4.77711
21
-4.21999
0
LINE
8
BLACK
6
CONTINUOUS
10
4.77711
20
-4.21999
11
4.77706
21
-4.21797
0
LINE
8
BLACK
6
CONTINUOUS
10
4.77706
20
-4.21797
11
4.79018
21
-4.1786
0
LINE
8
BLACK
6
CONTINUOUS
10
4.79018
20
-4.1786
11
4.79067
21
-4.1777
0
LINE
8
BLACK
6
CONTINUOUS
10
4.79067
20
-4.1777
11
4.79074
21
-4.17766
0
LINE
8
BLACK
6
CONTINUOUS
10
4.79074
20
-4.17766
11
4.79077
21
-4.17758
0
LINE
8
BLACK
6
CONTINUOUS
10
4.79077
20
-4.17758
11
4.79159
21
-4.17713
0
LINE
8
BLACK
6
CONTINUOUS
10
4.79159
20
-4.17713
11
4.79239
21
-4.17664
0
LINE
8
BLACK
6
CONTINUOUS
10
4.79239
20
-4.17664
11
4.79247
21
-4.17666
0
LINE
8
BLACK
6
CONTINUOUS
10
4.79247
20
-4.17666
11
4.79255
21
-4.17662
0
LINE
8
BLACK
6
CONTINUOUS
10
4.79255
20
-4.17662
11
4.79346
21
-4.1768
0
LINE
8
BLACK
6
CONTINUOUS
10
4.7877
20
-4.2047
11
4.79826
21
-4.2047
0
LINE
8
BLACK
6
CONTINUOUS
10
4.79826
20
-4.2047
11
4.79298
21
-4.18887
0
LINE
8
BLACK
6
CONTINUOUS
10
4.79298
20
-4.18887
11
4.7877
21
-4.2047
0
LINE
8
BLACK
6
CONTINUOUS
10
4.61214
20
-4.17676
11
4.61369
21
-4.17806
0
LINE
8
BLACK
6
CONTINUOUS
10
4.61369
20
-4.17806
11
4.61404
21
-4.18005
0
LINE
8
BLACK
6
CONTINUOUS
10
4.61404
20
-4.18005
11
4.61303
21
-4.1818
0
LINE
8
BLACK
6
CONTINUOUS
10
4.61303
20
-4.1818
11
4.61113
21
-4.18249
0
LINE
8
BLACK
6
CONTINUOUS
10
4.61113
20
-4.18249
11
4.60283
21
-4.18249
0
LINE
8
BLACK
6
CONTINUOUS
10
4.60283
20
-4.18249
11
4.60283
21
-4.21891
0
LINE
8
BLACK
6
CONTINUOUS
10
4.60283
20
-4.21891
11
4.60266
21
-4.21992
0
LINE
8
BLACK
6
CONTINUOUS
10
4.60266
20
-4.21992
11
4.60136
21
-4.22146
0
LINE
8
BLACK
6
CONTINUOUS
10
4.60136
20
-4.22146
11
4.59937
21
-4.22181
0
LINE
8
BLACK
6
CONTINUOUS
10
4.59937
20
-4.22181
11
4.59762
21
-4.2208
0
LINE
8
BLACK
6
CONTINUOUS
10
4.59762
20
-4.2208
11
4.59693
21
-4.21891
0
LINE
8
BLACK
6
CONTINUOUS
10
4.59693
20
-4.21891
11
4.59693
21
-4.18249
0
LINE
8
BLACK
6
CONTINUOUS
10
4.59693
20
-4.18249
11
4.58863
21
-4.18249
0
LINE
8
BLACK
6
CONTINUOUS
10
4.58863
20
-4.18249
11
4.58762
21
-4.18231
0
LINE
8
BLACK
6
CONTINUOUS
10
4.58762
20
-4.18231
11
4.58607
21
-4.18101
0
LINE
8
BLACK
6
CONTINUOUS
10
4.58607
20
-4.18101
11
4.58572
21
-4.17902
0
LINE
8
BLACK
6
CONTINUOUS
10
4.58572
20
-4.17902
11
4.58673
21
-4.17727
0
LINE
8
BLACK
6
CONTINUOUS
10
4.58673
20
-4.17727
11
4.58863
21
-4.17658
0
LINE
8
BLACK
6
CONTINUOUS
10
4.58863
20
-4.17658
11
4.61113
21
-4.17658
0
LINE
8
BLACK
6
CONTINUOUS
10
4.61113
20
-4.17658
11
4.61214
21
-4.17676
0
LINE
8
BLACK
6
CONTINUOUS
10
4.68624
20
-4.1767
11
4.68663
21
-4.17663
0
LINE
8
BLACK
6
CONTINUOUS
10
4.68663
20
-4.17663
11
4.68719
21
-4.17695
0
LINE
8
BLACK
6
CONTINUOUS
10
4.68719
20
-4.17695
11
4.68781
21
-4.17712
0
LINE
8
BLACK
6
CONTINUOUS
10
4.68781
20
-4.17712
11
4.68804
21
-4.17744
0
LINE
8
BLACK
6
CONTINUOUS
10
4.68804
20
-4.17744
11
4.68838
21
-4.17764
0
LINE
8
BLACK
6
CONTINUOUS
10
4.68838
20
-4.17764
11
4.6886
21
-4.17824
0
LINE
8
BLACK
6
CONTINUOUS
10
4.6886
20
-4.17824
11
4.68897
21
-4.17877
0
LINE
8
BLACK
6
CONTINUOUS
10
4.68897
20
-4.17877
11
4.68894
21
-4.17917
0
LINE
8
BLACK
6
CONTINUOUS
10
4.68894
20
-4.17917
11
4.68907
21
-4.17954
0
LINE
8
BLACK
6
CONTINUOUS
10
4.68907
20
-4.17954
11
4.68907
21
-4.21891
0
LINE
8
BLACK
6
CONTINUOUS
10
4.68907
20
-4.21891
11
4.68889
21
-4.21992
0
LINE
8
BLACK
6
CONTINUOUS
10
4.68889
20
-4.21992
11
4.6876
21
-4.22146
0
LINE
8
BLACK
6
CONTINUOUS
10
4.6876
20
-4.22146
11
4.68561
21
-4.22181
0
LINE
8
BLACK
6
CONTINUOUS
10
4.68561
20
-4.22181
11
4.68386
21
-4.2208
0
LINE
8
BLACK
6
CONTINUOUS
10
4.68386
20
-4.2208
11
4.68317
21
-4.21891
0
LINE
8
BLACK
6
CONTINUOUS
10
4.68317
20
-4.21891
11
4.68317
21
-4.19285
0
LINE
8
BLACK
6
CONTINUOUS
10
4.68317
20
-4.19285
11
4.67567
21
-4.20891
0
LINE
8
BLACK
6
CONTINUOUS
10
4.67567
20
-4.20891
11
4.67545
21
-4.20922
0
LINE
8
BLACK
6
CONTINUOUS
10
4.67545
20
-4.20922
11
4.67542
21
-4.20935
0
LINE
8
BLACK
6
CONTINUOUS
10
4.67542
20
-4.20935
11
4.67531
21
-4.20943
0
LINE
8
BLACK
6
CONTINUOUS
10
4.67531
20
-4.20943
11
4.67508
21
-4.20975
0
LINE
8
BLACK
6
CONTINUOUS
10
4.67508
20
-4.20975
11
4.67439
21
-4.21007
0
LINE
8
BLACK
6
CONTINUOUS
10
4.67439
20
-4.21007
11
4.67376
21
-4.21051
0
LINE
8
BLACK
6
CONTINUOUS
10
4.67376
20
-4.21051
11
4.67349
21
-4.21049
0
LINE
8
BLACK
6
CONTINUOUS
10
4.67349
20
-4.21049
11
4.67325
21
-4.2106
0
LINE
8
BLACK
6
CONTINUOUS
10
4.67325
20
-4.2106
11
4.67251
21
-4.2104
0
LINE
8
BLACK
6
CONTINUOUS
10
4.67251
20
-4.2104
11
4.67175
21
-4.21033
0
LINE
8
BLACK
6
CONTINUOUS
10
4.67175
20
-4.21033
11
4.67156
21
-4.21015
0
LINE
8
BLACK
6
CONTINUOUS
10
4.67156
20
-4.21015
11
4.6713
21
-4.21008
0
LINE
8
BLACK
6
CONTINUOUS
10
4.6713
20
-4.21008
11
4.67086
21
-4.20945
0
LINE
8
BLACK
6
CONTINUOUS
10
4.67086
20
-4.20945
11
4.67032
21
-4.20891
0
LINE
8
BLACK
6
CONTINUOUS
10
4.67032
20
-4.20891
11
4.66283
21
-4.19285
0
LINE
8
BLACK
6
CONTINUOUS
10
4.66283
20
-4.19285
11
4.66283
21
-4.21891
0
LINE
8
BLACK
6
CONTINUOUS
10
4.66283
20
-4.21891
11
4.66265
21
-4.21992
0
LINE
8
BLACK
6
CONTINUOUS
10
4.66265
20
-4.21992
11
4.66135
21
-4.22146
0
LINE
8
BLACK
6
CONTINUOUS
10
4.66135
20
-4.22146
11
4.65936
21
-4.22181
0
LINE
8
BLACK
6
CONTINUOUS
10
4.65936
20
-4.22181
11
4.65761
21
-4.2208
0
LINE
8
BLACK
6
CONTINUOUS
10
4.65761
20
-4.2208
11
4.65692
21
-4.21891
0
LINE
8
BLACK
6
CONTINUOUS
10
4.65692
20
-4.21891
11
4.65692
21
-4.17954
0
LINE
8
BLACK
6
CONTINUOUS
10
4.65692
20
-4.17954
11
4.6571
21
-4.17853
0
LINE
8
BLACK
6
CONTINUOUS
10
4.6571
20
-4.17853
11
4.65735
21
-4.17822
0
LINE
8
BLACK
6
CONTINUOUS
10
4.65735
20
-4.17822
11
4.65745
21
-4.17784
0
LINE
8
BLACK
6
CONTINUOUS
10
4.65745
20
-4.17784
11
4.65798
21
-4.17747
0
LINE
8
BLACK
6
CONTINUOUS
10
4.65798
20
-4.17747
11
4.6584
21
-4.17698
0
LINE
8
BLACK
6
CONTINUOUS
10
4.6584
20
-4.17698
11
4.65878
21
-4.17691
0
LINE
8
BLACK
6
CONTINUOUS
10
4.65878
20
-4.17691
11
4.65911
21
-4.17668
0
LINE
8
BLACK
6
CONTINUOUS
10
4.65911
20
-4.17668
11
4.65975
21
-4.17674
0
LINE
8
BLACK
6
CONTINUOUS
10
4.65975
20
-4.17674
11
4.66039
21
-4.17663
0
LINE
8
BLACK
6
CONTINUOUS
10
4.66039
20
-4.17663
11
4.66073
21
-4.17683
0
LINE
8
BLACK
6
CONTINUOUS
10
4.66073
20
-4.17683
11
4.66112
21
-4.17686
0
LINE
8
BLACK
6
CONTINUOUS
10
4.66112
20
-4.17686
11
4.66158
21
-4.17732
0
LINE
8
BLACK
6
CONTINUOUS
10
4.66158
20
-4.17732
11
4.66213
21
-4.17764
0
LINE
8
BLACK
6
CONTINUOUS
10
4.66213
20
-4.17764
11
4.66227
21
-4.17801
0
LINE
8
BLACK
6
CONTINUOUS
10
4.66227
20
-4.17801
11
4.66255
21
-4.17829
0
LINE
8
BLACK
6
CONTINUOUS
10
4.66255
20
-4.17829
11
4.673
21
-4.20068
0
LINE
8
BLACK
6
CONTINUOUS
10
4.673
20
-4.20068
11
4.68344
21
-4.17829
0
LINE
8
BLACK
6
CONTINUOUS
10
4.68344
20
-4.17829
11
4.68403
21
-4.17745
0
LINE
8
BLACK
6
CONTINUOUS
10
4.68403
20
-4.17745
11
4.68439
21
-4.17728
0
LINE
8
BLACK
6
CONTINUOUS
10
4.68439
20
-4.17728
11
4.68464
21
-4.17698
0
LINE
8
BLACK
6
CONTINUOUS
10
4.68464
20
-4.17698
11
4.68528
21
-4.17687
0
LINE
8
BLACK
6
CONTINUOUS
10
4.68528
20
-4.17687
11
4.68586
21
-4.17659
0
LINE
8
BLACK
6
CONTINUOUS
10
4.68586
20
-4.17659
11
4.68624
21
-4.1767
0
LINE
8
BLACK
6
CONTINUOUS
10
4.70713
20
-4.17764
11
4.70782
21
-4.17954
0
LINE
8
BLACK
6
CONTINUOUS
10
4.70782
20
-4.17954
11
4.70782
21
-4.21891
0
LINE
8
BLACK
6
CONTINUOUS
10
4.70782
20
-4.21891
11
4.70764
21
-4.21992
0
LINE
8
BLACK
6
CONTINUOUS
10
4.70764
20
-4.21992
11
4.70634
21
-4.22146
0
LINE
8
BLACK
6
CONTINUOUS
10
4.70634
20
-4.22146
11
4.70435
21
-4.22181
0
LINE
8
BLACK
6
CONTINUOUS
10
4.70435
20
-4.22181
11
4.70261
21
-4.2208
0
LINE
8
BLACK
6
CONTINUOUS
10
4.70261
20
-4.2208
11
4.70191
21
-4.21891
0
LINE
8
BLACK
6
CONTINUOUS
10
4.70191
20
-4.21891
11
4.70191
21
-4.17954
0
LINE
8
BLACK
6
CONTINUOUS
10
4.70191
20
-4.17954
11
4.70209
21
-4.17853
0
LINE
8
BLACK
6
CONTINUOUS
10
4.70209
20
-4.17853
11
4.70339
21
-4.17698
0
LINE
8
BLACK
6
CONTINUOUS
10
4.70339
20
-4.17698
11
4.70538
21
-4.17663
0
LINE
8
BLACK
6
CONTINUOUS
10
4.70538
20
-4.17663
11
4.70713
21
-4.17764
0
LINE
8
BLACK
6
CONTINUOUS
10
4.7415
20
-4.17676
11
4.74304
21
-4.17806
0
LINE
8
BLACK
6
CONTINUOUS
10
4.74304
20
-4.17806
11
4.7434
21
-4.18005
0
LINE
8
BLACK
6
CONTINUOUS
10
4.7434
20
-4.18005
11
4.74239
21
-4.1818
0
LINE
8
BLACK
6
CONTINUOUS
10
4.74239
20
-4.1818
11
4.74049
21
-4.18249
0
LINE
8
BLACK
6
CONTINUOUS
10
4.74049
20
-4.18249
11
4.73219
21
-4.18249
0
LINE
8
BLACK
6
CONTINUOUS
10
4.73219
20
-4.18249
11
4.73219
21
-4.21891
0
LINE
8
BLACK
6
CONTINUOUS
10
4.73219
20
-4.21891
11
4.73201
21
-4.21992
0
LINE
8
BLACK
6
CONTINUOUS
10
4.73201
20
-4.21992
11
4.73072
21
-4.22146
0
LINE
8
BLACK
6
CONTINUOUS
10
4.73072
20
-4.22146
11
4.72873
21
-4.22181
0
LINE
8
BLACK
6
CONTINUOUS
10
4.72873
20
-4.22181
11
4.72698
21
-4.2208
0
LINE
8
BLACK
6
CONTINUOUS
10
4.72698
20
-4.2208
11
4.72629
21
-4.21891
0
LINE
8
BLACK
6
CONTINUOUS
10
4.72629
20
-4.21891
11
4.72629
21
-4.18249
0
LINE
8
BLACK
6
CONTINUOUS
10
4.72629
20
-4.18249
11
4.71799
21
-4.18249
0
LINE
8
BLACK
6
CONTINUOUS
10
4.71799
20
-4.18249
11
4.71698
21
-4.18231
0
LINE
8
BLACK
6
CONTINUOUS
10
4.71698
20
-4.18231
11
4.71543
21
-4.18101
0
LINE
8
BLACK
6
CONTINUOUS
10
4.71543
20
-4.18101
11
4.71508
21
-4.17902
0
LINE
8
BLACK
6
CONTINUOUS
10
4.71508
20
-4.17902
11
4.71609
21
-4.17727
0
LINE
8
BLACK
6
CONTINUOUS
10
4.71609
20
-4.17727
11
4.71799
21
-4.17658
0
LINE
8
BLACK
6
CONTINUOUS
10
4.71799
20
-4.17658
11
4.74049
21
-4.17658
0
LINE
8
BLACK
6
CONTINUOUS
10
4.74049
20
-4.17658
11
4.7415
21
-4.17676
0
LINE
8
BLACK
6
CONTINUOUS
10
4.96126
20
-3.83079
11
4.96309
21
-3.8329
0
LINE
8
BLACK
6
CONTINUOUS
10
4.96309
20
-3.8329
11
4.96349
21
-3.83567
0
LINE
8
BLACK
6
CONTINUOUS
10
4.96349
20
-3.83567
11
4.96233
21
-3.83821
0
LINE
8
BLACK
6
CONTINUOUS
10
4.96233
20
-3.83821
11
4.96208
21
-3.83847
0
LINE
8
BLACK
6
CONTINUOUS
10
4.96208
20
-3.83847
11
4.94202
21
-3.85853
0
LINE
8
BLACK
6
CONTINUOUS
10
4.94202
20
-3.85853
11
4.93957
21
-3.85987
0
LINE
8
BLACK
6
CONTINUOUS
10
4.93957
20
-3.85987
11
4.93852
21
-3.85998
0
LINE
8
BLACK
6
CONTINUOUS
10
4.93852
20
-3.85998
11
4.89808
21
-3.85998
0
LINE
8
BLACK
6
CONTINUOUS
10
4.89808
20
-3.85998
11
4.8957
21
-3.86024
0
LINE
8
BLACK
6
CONTINUOUS
10
4.8957
20
-3.86024
11
4.8957
21
-3.86024
0
LINE
8
BLACK
6
CONTINUOUS
10
4.8957
20
-3.86024
11
4.89031
21
-3.86225
0
LINE
8
BLACK
6
CONTINUOUS
10
4.89031
20
-3.86225
11
4.89031
21
-3.86225
0
LINE
8
BLACK
6
CONTINUOUS
10
4.89031
20
-3.86225
11
4.8857
21
-3.8657
0
LINE
8
BLACK
6
CONTINUOUS
10
4.8857
20
-3.8657
11
4.88397
21
-3.86801
0
LINE
8
BLACK
6
CONTINUOUS
10
4.88397
20
-3.86801
11
4.88173
21
-3.86968
0
LINE
8
BLACK
6
CONTINUOUS
10
4.88173
20
-3.86968
11
4.87895
21
-3.86988
0
LINE
8
BLACK
6
CONTINUOUS
10
4.87895
20
-3.86988
11
4.87649
21
-3.86854
0
LINE
8
BLACK
6
CONTINUOUS
10
4.87649
20
-3.86854
11
4.87603
21
-3.86801
0
LINE
8
BLACK
6
CONTINUOUS
10
4.87603
20
-3.86801
11
4.8743
21
-3.8657
0
LINE
8
BLACK
6
CONTINUOUS
10
4.8743
20
-3.8657
11
4.86969
21
-3.86225
0
LINE
8
BLACK
6
CONTINUOUS
10
4.86969
20
-3.86225
11
4.86969
21
-3.86225
0
LINE
8
BLACK
6
CONTINUOUS
10
4.86969
20
-3.86225
11
4.8643
21
-3.86024
0
LINE
8
BLACK
6
CONTINUOUS
10
4.8643
20
-3.86024
11
4.8643
21
-3.86024
0
LINE
8
BLACK
6
CONTINUOUS
10
4.8643
20
-3.86024
11
4.86192
21
-3.85998
0
LINE
8
BLACK
6
CONTINUOUS
10
4.86192
20
-3.85998
11
4.86191
21
-3.85998
0
LINE
8
BLACK
6
CONTINUOUS
10
4.86191
20
-3.85998
11
4.79809
21
-3.85998
0
LINE
8
BLACK
6
CONTINUOUS
10
4.79809
20
-3.85998
11
4.79808
21
-3.85998
0
LINE
8
BLACK
6
CONTINUOUS
10
4.79808
20
-3.85998
11
4.7957
21
-3.86024
0
LINE
8
BLACK
6
CONTINUOUS
10
4.7957
20
-3.86024
11
4.7957
21
-3.86024
0
LINE
8
BLACK
6
CONTINUOUS
10
4.7957
20
-3.86024
11
4.79031
21
-3.86225
0
LINE
8
BLACK
6
CONTINUOUS
10
4.79031
20
-3.86225
11
4.79031
21
-3.86225
0
LINE
8
BLACK
6
CONTINUOUS
10
4.79031
20
-3.86225
11
4.7857
21
-3.8657
0
LINE
8
BLACK
6
CONTINUOUS
10
4.7857
20
-3.8657
11
4.78225
21
-3.87031
0
LINE
8
BLACK
6
CONTINUOUS
10
4.78225
20
-3.87031
11
4.78225
21
-3.87031
0
LINE
8
BLACK
6
CONTINUOUS
10
4.78225
20
-3.87031
11
4.78024
21
-3.8757
0
LINE
8
BLACK
6
CONTINUOUS
10
4.78024
20
-3.8757
11
4.78024
21
-3.8757
0
LINE
8
BLACK
6
CONTINUOUS
10
4.78024
20
-3.8757
11
4.77998
21
-3.87808
0
LINE
8
BLACK
6
CONTINUOUS
10
4.77998
20
-3.87808
11
4.77998
21
-3.94192
0
LINE
8
BLACK
6
CONTINUOUS
10
4.77998
20
-3.94192
11
4.78024
21
-3.9443
0
LINE
8
BLACK
6
CONTINUOUS
10
4.78024
20
-3.9443
11
4.78024
21
-3.9443
0
LINE
8
BLACK
6
CONTINUOUS
10
4.78024
20
-3.9443
11
4.78225
21
-3.94969
0
LINE
8
BLACK
6
CONTINUOUS
10
4.78225
20
-3.94969
11
4.78225
21
-3.94969
0
LINE
8
BLACK
6
CONTINUOUS
10
4.78225
20
-3.94969
11
4.7857
21
-3.9543
0
LINE
8
BLACK
6
CONTINUOUS
10
4.7857
20
-3.9543
11
4.78801
21
-3.95603
0
LINE
8
BLACK
6
CONTINUOUS
10
4.78801
20
-3.95603
11
4.78968
21
-3.95827
0
LINE
8
BLACK
6
CONTINUOUS
10
4.78968
20
-3.95827
11
4.78988
21
-3.96105
0
LINE
8
BLACK
6
CONTINUOUS
10
4.78988
20
-3.96105
11
4.78854
21
-3.96351
0
LINE
8
BLACK
6
CONTINUOUS
10
4.78854
20
-3.96351
11
4.78801
21
-3.96397
0
LINE
8
BLACK
6
CONTINUOUS
10
4.78801
20
-3.96397
11
4.7857
21
-3.9657
0
LINE
8
BLACK
6
CONTINUOUS
10
4.7857
20
-3.9657
11
4.78225
21
-3.97031
0
LINE
8
BLACK
6
CONTINUOUS
10
4.78225
20
-3.97031
11
4.78225
21
-3.97031
0
LINE
8
BLACK
6
CONTINUOUS
10
4.78225
20
-3.97031
11
4.78024
21
-3.9757
0
LINE
8
BLACK
6
CONTINUOUS
10
4.78024
20
-3.9757
11
4.78024
21
-3.9757
0
LINE
8
BLACK
6
CONTINUOUS
10
4.78024
20
-3.9757
11
4.77998
21
-3.97808
0
LINE
8
BLACK
6
CONTINUOUS
10
4.77998
20
-3.97808
11
4.77998
21
-4.04192
0
LINE
8
BLACK
6
CONTINUOUS
10
4.77998
20
-4.04192
11
4.78024
21
-4.0443
0
LINE
8
BLACK
6
CONTINUOUS
10
4.78024
20
-4.0443
11
4.78024
21
-4.0443
0
LINE
8
BLACK
6
CONTINUOUS
10
4.78024
20
-4.0443
11
4.78225
21
-4.04969
0
LINE
8
BLACK
6
CONTINUOUS
10
4.78225
20
-4.04969
11
4.78225
21
-4.04969
0
LINE
8
BLACK
6
CONTINUOUS
10
4.78225
20
-4.04969
11
4.7857
21
-4.0543
0
LINE
8
BLACK
6
CONTINUOUS
10
4.7857
20
-4.0543
11
4.79031
21
-4.05775
0
LINE
8
BLACK
6
CONTINUOUS
10
4.79031
20
-4.05775
11
4.79031
21
-4.05775
0
LINE
8
BLACK
6
CONTINUOUS
10
4.79031
20
-4.05775
11
4.79031
21
-4.05775
0
LINE
8
BLACK
6
CONTINUOUS
10
4.79031
20
-4.05775
11
4.79263
21
-4.05862
0
LINE
8
BLACK
6
CONTINUOUS
10
4.79263
20
-4.05862
11
4.7957
21
-4.05976
0
LINE
8
BLACK
6
CONTINUOUS
10
4.7957
20
-4.05976
11
4.7957
21
-4.05976
0
LINE
8
BLACK
6
CONTINUOUS
10
4.7957
20
-4.05976
11
4.79808
21
-4.06002
0
LINE
8
BLACK
6
CONTINUOUS
10
4.79808
20
-4.06002
11
4.79808
21
-4.06002
0
LINE
8
BLACK
6
CONTINUOUS
10
4.79808
20
-4.06002
11
4.79809
21
-4.06002
0
LINE
8
BLACK
6
CONTINUOUS
10
4.79809
20
-4.06002
11
4.79809
21
-4.06002
0
LINE
8
BLACK
6
CONTINUOUS
10
4.79809
20
-4.06002
11
4.86191
21
-4.06002
0
LINE
8
BLACK
6
CONTINUOUS
10
4.86191
20
-4.06002
11
4.86191
21
-4.06002
0
LINE
8
BLACK
6
CONTINUOUS
10
4.86191
20
-4.06002
11
4.86192
21
-4.06002
0
LINE
8
BLACK
6
CONTINUOUS
10
4.86192
20
-4.06002
11
4.86192
21
-4.06002
0
LINE
8
BLACK
6
CONTINUOUS
10
4.86192
20
-4.06002
11
4.8643
21
-4.05976
0
LINE
8
BLACK
6
CONTINUOUS
10
4.8643
20
-4.05976
11
4.8643
21
-4.05976
0
LINE
8
BLACK
6
CONTINUOUS
10
4.8643
20
-4.05976
11
4.8643
21
-4.05976
0
LINE
8
BLACK
6
CONTINUOUS
10
4.8643
20
-4.05976
11
4.86969
21
-4.05775
0
LINE
8
BLACK
6
CONTINUOUS
10
4.86969
20
-4.05775
11
4.86972
21
-4.05773
0
LINE
8
BLACK
6
CONTINUOUS
10
4.86972
20
-4.05773
11
4.87083
21
-4.0569
0
LINE
8
BLACK
6
CONTINUOUS
10
4.87083
20
-4.0569
11
4.8743
21
-4.0543
0
LINE
8
BLACK
6
CONTINUOUS
10
4.8743
20
-4.0543
11
4.87603
21
-4.05199
0
LINE
8
BLACK
6
CONTINUOUS
10
4.87603
20
-4.05199
11
4.87827
21
-4.05032
0
LINE
8
BLACK
6
CONTINUOUS
10
4.87827
20
-4.05032
11
4.88105
21
-4.05012
0
LINE
8
BLACK
6
CONTINUOUS
10
4.88105
20
-4.05012
11
4.88351
21
-4.05146
0
LINE
8
BLACK
6
CONTINUOUS
10
4.88351
20
-4.05146
11
4.88397
21
-4.05199
0
LINE
8
BLACK
6
CONTINUOUS
10
4.88397
20
-4.05199
11
4.8857
21
-4.0543
0
LINE
8
BLACK
6
CONTINUOUS
10
4.8857
20
-4.0543
11
4.89031
21
-4.05775
0
LINE
8
BLACK
6
CONTINUOUS
10
4.89031
20
-4.05775
11
4.89031
21
-4.05775
0
LINE
8
BLACK
6
CONTINUOUS
10
4.89031
20
-4.05775
11
4.89031
21
-4.05775
0
LINE
8
BLACK
6
CONTINUOUS
10
4.89031
20
-4.05775
11
4.89263
21
-4.05862
0
LINE
8
BLACK
6
CONTINUOUS
10
4.89263
20
-4.05862
11
4.8957
21
-4.05976
0
LINE
8
BLACK
6
CONTINUOUS
10
4.8957
20
-4.05976
11
4.8957
21
-4.05976
0
LINE
8
BLACK
6
CONTINUOUS
10
4.8957
20
-4.05976
11
4.8957
21
-4.05976
0
LINE
8
BLACK
6
CONTINUOUS
10
4.8957
20
-4.05976
11
4.8957
21
-4.05976
0
LINE
8
BLACK
6
CONTINUOUS
10
4.8957
20
-4.05976
11
4.897
21
-4.0599
0
LINE
8
BLACK
6
CONTINUOUS
10
4.897
20
-4.0599
11
4.89768
21
-4.05998
0
LINE
8
BLACK
6
CONTINUOUS
10
4.89768
20
-4.05998
11
4.90026
21
-4.06105
0
LINE
8
BLACK
6
CONTINUOUS
10
4.90026
20
-4.06105
11
4.90185
21
-4.06334
0
LINE
8
BLACK
6
CONTINUOUS
10
4.90185
20
-4.06334
11
4.90211
21
-4.06491
0
LINE
8
BLACK
6
CONTINUOUS
10
4.90211
20
-4.06491
11
4.90211
21
-4.26908
0
LINE
8
BLACK
6
CONTINUOUS
10
4.90211
20
-4.26908
11
4.9021
21
-4.26923
0
LINE
8
BLACK
6
CONTINUOUS
10
4.9021
20
-4.26923
11
4.90195
21
-4.2717
0
LINE
8
BLACK
6
CONTINUOUS
10
4.90195
20
-4.2717
11
4.9024
21
-4.27413
0
LINE
8
BLACK
6
CONTINUOUS
10
4.9024
20
-4.27413
11
4.90242
21
-4.27427
0
LINE
8
BLACK
6
CONTINUOUS
10
4.90242
20
-4.27427
11
4.90272
21
-4.27672
0
LINE
8
BLACK
6
CONTINUOUS
10
4.90272
20
-4.27672
11
4.90272
21
-4.27672
0
LINE
8
BLACK
6
CONTINUOUS
10
4.90272
20
-4.27672
11
4.90286
21
-4.2771
0
LINE
8
BLACK
6
CONTINUOUS
10
4.90286
20
-4.2771
11
4.9031
21
-4.27796
0
LINE
8
BLACK
6
CONTINUOUS
10
4.9031
20
-4.27796
11
4.90317
21
-4.27836
0
LINE
8
BLACK
6
CONTINUOUS
10
4.90317
20
-4.27836
11
4.90419
21
-4.28061
0
LINE
8
BLACK
6
CONTINUOUS
10
4.90419
20
-4.28061
11
4.90424
21
-4.28075
0
LINE
8
BLACK
6
CONTINUOUS
10
4.90424
20
-4.28075
11
4.90459
21
-4.28166
0
LINE
8
BLACK
6
CONTINUOUS
10
4.90459
20
-4.28166
11
4.90512
21
-4.28306
0
LINE
8
BLACK
6
CONTINUOUS
10
4.90512
20
-4.28306
11
4.90535
21
-4.28339
0
LINE
8
BLACK
6
CONTINUOUS
10
4.90535
20
-4.28339
11
4.90579
21
-4.28417
0
LINE
8
BLACK
6
CONTINUOUS
10
4.90579
20
-4.28417
11
4.9059
21
-4.28441
0
LINE
8
BLACK
6
CONTINUOUS
10
4.9059
20
-4.28441
11
4.90595
21
-4.28454
0
LINE
8
BLACK
6
CONTINUOUS
10
4.90595
20
-4.28454
11
4.90647
21
-4.2852
0
LINE
8
BLACK
6
CONTINUOUS
10
4.90647
20
-4.2852
11
4.90748
21
-4.28648
0
LINE
8
BLACK
6
CONTINUOUS
10
4.90748
20
-4.28648
11
4.90757
21
-4.2866
0
LINE
8
BLACK
6
CONTINUOUS
10
4.90757
20
-4.2866
11
4.90897
21
-4.28863
0
LINE
8
BLACK
6
CONTINUOUS
10
4.90897
20
-4.28863
11
4.90897
21
-4.28863
0
LINE
8
BLACK
6
CONTINUOUS
10
4.90897
20
-4.28863
11
4.90897
21
-4.28863
0
LINE
8
BLACK
6
CONTINUOUS
10
4.90897
20
-4.28863
11
4.91082
21
-4.29027
0
LINE
8
BLACK
6
CONTINUOUS
10
4.91082
20
-4.29027
11
4.91092
21
-4.29037
0
LINE
8
BLACK
6
CONTINUOUS
10
4.91092
20
-4.29037
11
4.94963
21
-4.32907
0
LINE
8
BLACK
6
CONTINUOUS
10
4.94963
20
-4.32907
11
4.94973
21
-4.32918
0
LINE
8
BLACK
6
CONTINUOUS
10
4.94973
20
-4.32918
11
4.95137
21
-4.33103
0
LINE
8
BLACK
6
CONTINUOUS
10
4.95137
20
-4.33103
11
4.9534
21
-4.33243
0
LINE
8
BLACK
6
CONTINUOUS
10
4.9534
20
-4.33243
11
4.95352
21
-4.33252
0
LINE
8
BLACK
6
CONTINUOUS
10
4.95352
20
-4.33252
11
4.95546
21
-4.33405
0
LINE
8
BLACK
6
CONTINUOUS
10
4.95546
20
-4.33405
11
4.95583
21
-4.33421
0
LINE
8
BLACK
6
CONTINUOUS
10
4.95583
20
-4.33421
11
4.95661
21
-4.33465
0
LINE
8
BLACK
6
CONTINUOUS
10
4.95661
20
-4.33465
11
4.95694
21
-4.33488
0
LINE
8
BLACK
6
CONTINUOUS
10
4.95694
20
-4.33488
11
4.95694
21
-4.33488
0
LINE
8
BLACK
6
CONTINUOUS
10
4.95694
20
-4.33488
11
4.95694
21
-4.33488
0
LINE
8
BLACK
6
CONTINUOUS
10
4.95694
20
-4.33488
11
4.95694
21
-4.33488
0
LINE
8
BLACK
6
CONTINUOUS
10
4.95694
20
-4.33488
11
4.95694
21
-4.33488
0
LINE
8
BLACK
6
CONTINUOUS
10
4.95694
20
-4.33488
11
4.95797
21
-4.33527
0
LINE
8
BLACK
6
CONTINUOUS
10
4.95797
20
-4.33527
11
4.95925
21
-4.33576
0
LINE
8
BLACK
6
CONTINUOUS
10
4.95925
20
-4.33576
11
4.95939
21
-4.33581
0
LINE
8
BLACK
6
CONTINUOUS
10
4.95939
20
-4.33581
11
4.96164
21
-4.33683
0
LINE
8
BLACK
6
CONTINUOUS
10
4.96164
20
-4.33683
11
4.96204
21
-4.3369
0
LINE
8
BLACK
6
CONTINUOUS
10
4.96204
20
-4.3369
11
4.9629
21
-4.33714
0
LINE
8
BLACK
6
CONTINUOUS
10
4.9629
20
-4.33714
11
4.96328
21
-4.33728
0
LINE
8
BLACK
6
CONTINUOUS
10
4.96328
20
-4.33728
11
4.96328
21
-4.33728
0
LINE
8
BLACK
6
CONTINUOUS
10
4.96328
20
-4.33728
11
4.96573
21
-4.33758
0
LINE
8
BLACK
6
CONTINUOUS
10
4.96573
20
-4.33758
11
4.96587
21
-4.3376
0
LINE
8
BLACK
6
CONTINUOUS
10
4.96587
20
-4.3376
11
4.9683
21
-4.33805
0
LINE
8
BLACK
6
CONTINUOUS
10
4.9683
20
-4.33805
11
4.97077
21
-4.3379
0
LINE
8
BLACK
6
CONTINUOUS
10
4.97077
20
-4.3379
11
4.97092
21
-4.33789
0
LINE
8
BLACK
6
CONTINUOUS
10
4.97092
20
-4.33789
11
4.98939
21
-4.33789
0
LINE
8
BLACK
6
CONTINUOUS
10
4.98939
20
-4.33789
11
4.99207
21
-4.33868
0
LINE
8
BLACK
6
CONTINUOUS
10
4.99207
20
-4.33868
11
4.9939
21
-4.34079
0
LINE
8
BLACK
6
CONTINUOUS
10
4.9939
20
-4.34079
11
4.99435
21
-4.34285
0
LINE
8
BLACK
6
CONTINUOUS
10
4.99435
20
-4.34285
11
4.99435
21
-4.37464
0
LINE
8
BLACK
6
CONTINUOUS
10
4.99435
20
-4.37464
11
4.99356
21
-4.37732
0
LINE
8
BLACK
6
CONTINUOUS
10
4.99356
20
-4.37732
11
4.99218
21
-4.37864
0
LINE
8
BLACK
6
CONTINUOUS
10
4.99218
20
-4.37864
11
4.99223
21
-4.3787
0
LINE
8
BLACK
6
CONTINUOUS
10
4.99223
20
-4.3787
11
4.98593
21
-4.38327
0
LINE
8
BLACK
6
CONTINUOUS
10
4.98593
20
-4.38327
11
4.9809
21
-4.38886
0
LINE
8
BLACK
6
CONTINUOUS
10
4.9809
20
-4.38886
11
4.9809
21
-4.38886
0
LINE
8
BLACK
6
CONTINUOUS
10
4.9809
20
-4.38886
11
4.97714
21
-4.39537
0
LINE
8
BLACK
6
CONTINUOUS
10
4.97714
20
-4.39537
11
4.97714
21
-4.39537
0
LINE
8
BLACK
6
CONTINUOUS
10
4.97714
20
-4.39537
11
4.97482
21
-4.40252
0
LINE
8
BLACK
6
CONTINUOUS
10
4.97482
20
-4.40252
11
4.97404
21
-4.41
0
LINE
8
BLACK
6
CONTINUOUS
10
4.97404
20
-4.41
11
4.97482
21
-4.41748
0
LINE
8
BLACK
6
CONTINUOUS
10
4.97482
20
-4.41748
11
4.976
21
-4.42112
0
LINE
8
BLACK
6
CONTINUOUS
10
4.976
20
-4.42112
11
4.97714
21
-4.42463
0
LINE
8
BLACK
6
CONTINUOUS
10
4.97714
20
-4.42463
11
4.97714
21
-4.42463
0
LINE
8
BLACK
6
CONTINUOUS
10
4.97714
20
-4.42463
11
4.9809
21
-4.43114
0
LINE
8
BLACK
6
CONTINUOUS
10
4.9809
20
-4.43114
11
4.9809
21
-4.43114
0
LINE
8
BLACK
6
CONTINUOUS
10
4.9809
20
-4.43114
11
4.98593
21
-4.43673
0
LINE
8
BLACK
6
CONTINUOUS
10
4.98593
20
-4.43673
11
4.98755
21
-4.4379
0
LINE
8
BLACK
6
CONTINUOUS
10
4.98755
20
-4.4379
11
4.99202
21
-4.44115
0
LINE
8
BLACK
6
CONTINUOUS
10
4.99202
20
-4.44115
11
4.99889
21
-4.4442
0
LINE
8
BLACK
6
CONTINUOUS
10
4.99889
20
-4.4442
11
5.00624
21
-4.44577
0
LINE
8
BLACK
6
CONTINUOUS
10
5.00624
20
-4.44577
11
5.01376
21
-4.44577
0
LINE
8
BLACK
6
CONTINUOUS
10
5.01376
20
-4.44577
11
5.02111
21
-4.4442
0
LINE
8
BLACK
6
CONTINUOUS
10
5.02111
20
-4.4442
11
5.02798
21
-4.44115
0
LINE
8
BLACK
6
CONTINUOUS
10
5.02798
20
-4.44115
11
5.03407
21
-4.43673
0
LINE
8
BLACK
6
CONTINUOUS
10
5.03407
20
-4.43673
11
5.03457
21
-4.43616
0
LINE
8
BLACK
6
CONTINUOUS
10
5.03457
20
-4.43616
11
5.0391
21
-4.43114
0
LINE
8
BLACK
6
CONTINUOUS
10
5.0391
20
-4.43114
11
5.0391
21
-4.43114
0
LINE
8
BLACK
6
CONTINUOUS
10
5.0391
20
-4.43114
11
5.0391
21
-4.43114
0
LINE
8
BLACK
6
CONTINUOUS
10
5.0391
20
-4.43114
11
5.04286
21
-4.42463
0
LINE
8
BLACK
6
CONTINUOUS
10
5.04286
20
-4.42463
11
5.04518
21
-4.41748
0
LINE
8
BLACK
6
CONTINUOUS
10
5.04518
20
-4.41748
11
5.04535
21
-4.41584
0
LINE
8
BLACK
6
CONTINUOUS
10
5.04535
20
-4.41584
11
5.04641
21
-4.41325
0
LINE
8
BLACK
6
CONTINUOUS
10
5.04641
20
-4.41325
11
5.04699
21
-4.41265
0
LINE
8
BLACK
6
CONTINUOUS
10
5.04699
20
-4.41265
11
5.04721
21
-4.41245
0
LINE
8
BLACK
6
CONTINUOUS
10
5.04721
20
-4.41245
11
5.04862
21
-4.41042
0
LINE
8
BLACK
6
CONTINUOUS
10
5.04862
20
-4.41042
11
5.0487
21
-4.4103
0
LINE
8
BLACK
6
CONTINUOUS
10
5.0487
20
-4.4103
11
5.05023
21
-4.40836
0
LINE
8
BLACK
6
CONTINUOUS
10
5.05023
20
-4.40836
11
5.05039
21
-4.40799
0
LINE
8
BLACK
6
CONTINUOUS
10
5.05039
20
-4.40799
11
5.05083
21
-4.40721
0
LINE
8
BLACK
6
CONTINUOUS
10
5.05083
20
-4.40721
11
5.05106
21
-4.40688
0
LINE
8
BLACK
6
CONTINUOUS
10
5.05106
20
-4.40688
11
5.05194
21
-4.40457
0
LINE
8
BLACK
6
CONTINUOUS
10
5.05194
20
-4.40457
11
5.05199
21
-4.40443
0
LINE
8
BLACK
6
CONTINUOUS
10
5.05199
20
-4.40443
11
5.05301
21
-4.40218
0
LINE
8
BLACK
6
CONTINUOUS
10
5.05301
20
-4.40218
11
5.05308
21
-4.40178
0
LINE
8
BLACK
6
CONTINUOUS
10
5.05308
20
-4.40178
11
5.05332
21
-4.40092
0
LINE
8
BLACK
6
CONTINUOUS
10
5.05332
20
-4.40092
11
5.05346
21
-4.40054
0
LINE
8
BLACK
6
CONTINUOUS
10
5.05346
20
-4.40054
11
5.05365
21
-4.39902
0
LINE
8
BLACK
6
CONTINUOUS
10
5.05365
20
-4.39902
11
5.05475
21
-4.39645
0
LINE
8
BLACK
6
CONTINUOUS
10
5.05475
20
-4.39645
11
5.05707
21
-4.39489
0
LINE
8
BLACK
6
CONTINUOUS
10
5.05707
20
-4.39489
11
5.0591
21
-4.39468
0
LINE
8
BLACK
6
CONTINUOUS
10
5.0591
20
-4.39468
11
5.06167
21
-4.39496
0
LINE
8
BLACK
6
CONTINUOUS
10
5.06167
20
-4.39496
11
5.06167
21
-4.39496
0
LINE
8
BLACK
6
CONTINUOUS
10
5.06167
20
-4.39496
11
5.06539
21
-4.39496
0
LINE
8
BLACK
6
CONTINUOUS
10
5.06539
20
-4.39496
11
5.06539
21
-4.37496
0
LINE
8
BLACK
6
CONTINUOUS
10
5.06539
20
-4.37496
11
5.06358
21
-4.37496
0
LINE
8
BLACK
6
CONTINUOUS
10
5.06358
20
-4.37496
11
5.06358
21
-4.33165
0
LINE
8
BLACK
6
CONTINUOUS
10
5.06358
20
-4.33165
11
5.0872
21
-4.33165
0
LINE
8
BLACK
6
CONTINUOUS
10
5.0872
20
-4.33165
11
5.0872
21
-4.37496
0
LINE
8
BLACK
6
CONTINUOUS
10
5.0872
20
-4.37496
11
5.08539
21
-4.37496
0
LINE
8
BLACK
6
CONTINUOUS
10
5.08539
20
-4.37496
11
5.08539
21
-4.39496
0
LINE
8
BLACK
6
CONTINUOUS
10
5.08539
20
-4.39496
11
5.08912
21
-4.39496
0
LINE
8
BLACK
6
CONTINUOUS
10
5.08912
20
-4.39496
11
5.08912
21
-4.39496
0
LINE
8
BLACK
6
CONTINUOUS
10
5.08912
20
-4.39496
11
5.0915
21
-4.3947
0
LINE
8
BLACK
6
CONTINUOUS
10
5.0915
20
-4.3947
11
5.0931
21
-4.39411
0
LINE
8
BLACK
6
CONTINUOUS
10
5.0931
20
-4.39411
11
5.09589
21
-4.39391
0
LINE
8
BLACK
6
CONTINUOUS
10
5.09589
20
-4.39391
11
5.09834
21
-4.39525
0
LINE
8
BLACK
6
CONTINUOUS
10
5.09834
20
-4.39525
11
5.09947
21
-4.397
0
LINE
8
BLACK
6
CONTINUOUS
10
5.09947
20
-4.397
11
5.09973
21
-4.39766
0
LINE
8
BLACK
6
CONTINUOUS
10
5.09973
20
-4.39766
11
5.09973
21
-4.39766
0
LINE
8
BLACK
6
CONTINUOUS
10
5.09973
20
-4.39766
11
5.09995
21
-4.39799
0
LINE
8
BLACK
6
CONTINUOUS
10
5.09995
20
-4.39799
11
5.1004
21
-4.39878
0
LINE
8
BLACK
6
CONTINUOUS
10
5.1004
20
-4.39878
11
5.1005
21
-4.39902
0
LINE
8
BLACK
6
CONTINUOUS
10
5.1005
20
-4.39902
11
5.10056
21
-4.39914
0
LINE
8
BLACK
6
CONTINUOUS
10
5.10056
20
-4.39914
11
5.10151
21
-4.40036
0
LINE
8
BLACK
6
CONTINUOUS
10
5.10151
20
-4.40036
11
5.10208
21
-4.40109
0
LINE
8
BLACK
6
CONTINUOUS
10
5.10208
20
-4.40109
11
5.10217
21
-4.40121
0
LINE
8
BLACK
6
CONTINUOUS
10
5.10217
20
-4.40121
11
5.10357
21
-4.40324
0
LINE
8
BLACK
6
CONTINUOUS
10
5.10357
20
-4.40324
11
5.10357
21
-4.40324
0
LINE
8
BLACK
6
CONTINUOUS
10
5.10357
20
-4.40324
11
5.10357
21
-4.40324
0
LINE
8
BLACK
6
CONTINUOUS
10
5.10357
20
-4.40324
11
5.10542
21
-4.40488
0
LINE
8
BLACK
6
CONTINUOUS
10
5.10542
20
-4.40488
11
5.10553
21
-4.40498
0
LINE
8
BLACK
6
CONTINUOUS
10
5.10553
20
-4.40498
11
5.12963
21
-4.42907
0
LINE
8
BLACK
6
CONTINUOUS
10
5.12963
20
-4.42907
11
5.12973
21
-4.42918
0
LINE
8
BLACK
6
CONTINUOUS
10
5.12973
20
-4.42918
11
5.13137
21
-4.43103
0
LINE
8
BLACK
6
CONTINUOUS
10
5.13137
20
-4.43103
11
5.1334
21
-4.43243
0
LINE
8
BLACK
6
CONTINUOUS
10
5.1334
20
-4.43243
11
5.13352
21
-4.43252
0
LINE
8
BLACK
6
CONTINUOUS
10
5.13352
20
-4.43252
11
5.13546
21
-4.43405
0
LINE
8
BLACK
6
CONTINUOUS
10
5.13546
20
-4.43405
11
5.13583
21
-4.43421
0
LINE
8
BLACK
6
CONTINUOUS
10
5.13583
20
-4.43421
11
5.13661
21
-4.43465
0
LINE
8
BLACK
6
CONTINUOUS
10
5.13661
20
-4.43465
11
5.13694
21
-4.43488
0
LINE
8
BLACK
6
CONTINUOUS
10
5.13694
20
-4.43488
11
5.13694
21
-4.43488
0
LINE
8
BLACK
6
CONTINUOUS
10
5.13694
20
-4.43488
11
5.13694
21
-4.43488
0
LINE
8
BLACK
6
CONTINUOUS
10
5.13694
20
-4.43488
11
5.13694
21
-4.43488
0
LINE
8
BLACK
6
CONTINUOUS
10
5.13694
20
-4.43488
11
5.13694
21
-4.43488
0
LINE
8
BLACK
6
CONTINUOUS
10
5.13694
20
-4.43488
11
5.13793
21
-4.43526
0
LINE
8
BLACK
6
CONTINUOUS
10
5.13793
20
-4.43526
11
5.13925
21
-4.43576
0
LINE
8
BLACK
6
CONTINUOUS
10
5.13925
20
-4.43576
11
5.13939
21
-4.43581
0
LINE
8
BLACK
6
CONTINUOUS
10
5.13939
20
-4.43581
11
5.14164
21
-4.43683
0
LINE
8
BLACK
6
CONTINUOUS
10
5.14164
20
-4.43683
11
5.14204
21
-4.4369
0
LINE
8
BLACK
6
CONTINUOUS
10
5.14204
20
-4.4369
11
5.1429
21
-4.43714
0
LINE
8
BLACK
6
CONTINUOUS
10
5.1429
20
-4.43714
11
5.14328
21
-4.43728
0
LINE
8
BLACK
6
CONTINUOUS
10
5.14328
20
-4.43728
11
5.14328
21
-4.43728
0
LINE
8
BLACK
6
CONTINUOUS
10
5.14328
20
-4.43728
11
5.14573
21
-4.43758
0
LINE
8
BLACK
6
CONTINUOUS
10
5.14573
20
-4.43758
11
5.14587
21
-4.4376
0
LINE
8
BLACK
6
CONTINUOUS
10
5.14587
20
-4.4376
11
5.1483
21
-4.43805
0
LINE
8
BLACK
6
CONTINUOUS
10
5.1483
20
-4.43805
11
5.15077
21
-4.4379
0
LINE
8
BLACK
6
CONTINUOUS
10
5.15077
20
-4.4379
11
5.15092
21
-4.43789
0
LINE
8
BLACK
6
CONTINUOUS
10
5.15092
20
-4.43789
11
5.15533
21
-4.43789
0
LINE
8
BLACK
6
CONTINUOUS
10
5.15533
20
-4.43789
11
5.15802
21
-4.43868
0
LINE
8
BLACK
6
CONTINUOUS
10
5.15802
20
-4.43868
11
5.15957
21
-4.44047
0
LINE
8
BLACK
6
CONTINUOUS
10
5.15957
20
-4.44047
11
5.17047
21
-4.44047
0
LINE
8
BLACK
6
CONTINUOUS
10
5.17047
20
-4.44047
11
5.17047
21
-4.49953
0
LINE
8
BLACK
6
CONTINUOUS
10
5.17047
20
-4.49953
11
5.1603
21
-4.49953
0
LINE
8
BLACK
6
CONTINUOUS
10
5.1603
20
-4.49953
11
5.1603
21
-4.50144
0
LINE
8
BLACK
6
CONTINUOUS
10
5.1603
20
-4.50144
11
5.16055
21
-4.50383
0
LINE
8
BLACK
6
CONTINUOUS
10
5.16055
20
-4.50383
11
5.16055
21
-4.50383
0
LINE
8
BLACK
6
CONTINUOUS
10
5.16055
20
-4.50383
11
5.16256
21
-4.50922
0
LINE
8
BLACK
6
CONTINUOUS
10
5.16256
20
-4.50922
11
5.16256
21
-4.50922
0
LINE
8
BLACK
6
CONTINUOUS
10
5.16256
20
-4.50922
11
5.16601
21
-4.51383
0
LINE
8
BLACK
6
CONTINUOUS
10
5.16601
20
-4.51383
11
5.17062
21
-4.51728
0
LINE
8
BLACK
6
CONTINUOUS
10
5.17062
20
-4.51728
11
5.17062
21
-4.51728
0
LINE
8
BLACK
6
CONTINUOUS
10
5.17062
20
-4.51728
11
5.17062
21
-4.51728
0
LINE
8
BLACK
6
CONTINUOUS
10
5.17062
20
-4.51728
11
5.17295
21
-4.51815
0
LINE
8
BLACK
6
CONTINUOUS
10
5.17295
20
-4.51815
11
5.17602
21
-4.51929
0
LINE
8
BLACK
6
CONTINUOUS
10
5.17602
20
-4.51929
11
5.17602
21
-4.51929
0
LINE
8
BLACK
6
CONTINUOUS
10
5.17602
20
-4.51929
11
5.1784
21
-4.51955
0
LINE
8
BLACK
6
CONTINUOUS
10
5.1784
20
-4.51955
11
5.1784
21
-4.51955
0
LINE
8
BLACK
6
CONTINUOUS
10
5.1784
20
-4.51955
11
5.1784
21
-4.51955
0
LINE
8
BLACK
6
CONTINUOUS
10
5.1784
20
-4.51955
11
5.1784
21
-4.51955
0
LINE
8
BLACK
6
CONTINUOUS
10
5.1784
20
-4.51955
11
5.2216
21
-4.51955
0
LINE
8
BLACK
6
CONTINUOUS
10
5.2216
20
-4.51955
11
5.2216
21
-4.51955
0
LINE
8
BLACK
6
CONTINUOUS
10
5.2216
20
-4.51955
11
5.22398
21
-4.51929
0
LINE
8
BLACK
6
CONTINUOUS
10
5.22398
20
-4.51929
11
5.22398
21
-4.51929
0
LINE
8
BLACK
6
CONTINUOUS
10
5.22398
20
-4.51929
11
5.22429
21
-4.51926
0
LINE
8
BLACK
6
CONTINUOUS
10
5.22429
20
-4.51926
11
5.2243
21
-4.51928
0
LINE
8
BLACK
6
CONTINUOUS
10
5.2243
20
-4.51928
11
5.2258
21
-4.51922
0
LINE
8
BLACK
6
CONTINUOUS
10
5.2258
20
-4.51922
11
5.2281
21
-4.51955
0
LINE
8
BLACK
6
CONTINUOUS
10
5.2281
20
-4.51955
11
5.22953
21
-4.51975
0
LINE
8
BLACK
6
CONTINUOUS
10
5.22953
20
-4.51975
11
5.22953
21
-4.51975
0
LINE
8
BLACK
6
CONTINUOUS
10
5.22953
20
-4.51975
11
5.25401
21
-4.51975
0
LINE
8
BLACK
6
CONTINUOUS
10
5.25401
20
-4.51975
11
5.25401
21
-4.51975
0
LINE
8
BLACK
6
CONTINUOUS
10
5.25401
20
-4.51975
11
5.25971
21
-4.51893
0
LINE
8
BLACK
6
CONTINUOUS
10
5.25971
20
-4.51893
11
5.26514
21
-4.51734
0
LINE
8
BLACK
6
CONTINUOUS
10
5.26514
20
-4.51734
11
5.27038
21
-4.51495
0
LINE
8
BLACK
6
CONTINUOUS
10
5.27038
20
-4.51495
11
5.27514
21
-4.51189
0
LINE
8
BLACK
6
CONTINUOUS
10
5.27514
20
-4.51189
11
5.27514
21
-4.51189
0
LINE
8
BLACK
6
CONTINUOUS
10
5.27514
20
-4.51189
11
5.27949
21
-4.50812
0
LINE
8
BLACK
6
CONTINUOUS
10
5.27949
20
-4.50812
11
5.2832
21
-4.50384
0
LINE
8
BLACK
6
CONTINUOUS
10
5.2832
20
-4.50384
11
5.28359
21
-4.50323
0
LINE
8
BLACK
6
CONTINUOUS
10
5.28359
20
-4.50323
11
5.28419
21
-4.5023
0
LINE
8
BLACK
6
CONTINUOUS
10
5.28419
20
-4.5023
11
5.2863
21
-4.50047
0
LINE
8
BLACK
6
CONTINUOUS
10
5.2863
20
-4.50047
11
5.28836
21
-4.50002
0
LINE
8
BLACK
6
CONTINUOUS
10
5.28836
20
-4.50002
11
5.29886
21
-4.50002
0
LINE
8
BLACK
6
CONTINUOUS
10
5.29886
20
-4.50002
11
5.30154
21
-4.50081
0
LINE
8
BLACK
6
CONTINUOUS
10
5.30154
20
-4.50081
11
5.30177
21
-4.50097
0
LINE
8
BLACK
6
CONTINUOUS
10
5.30177
20
-4.50097
11
5.30202
21
-4.50115
0
LINE
8
BLACK
6
CONTINUOUS
10
5.30202
20
-4.50115
11
5.30889
21
-4.5042
0
LINE
8
BLACK
6
CONTINUOUS
10
5.30889
20
-4.5042
11
5.31624
21
-4.50577
0
LINE
8
BLACK
6
CONTINUOUS
10
5.31624
20
-4.50577
11
5.32376
21
-4.50577
0
LINE
8
BLACK
6
CONTINUOUS
10
5.32376
20
-4.50577
11
5.33111
21
-4.5042
0
LINE
8
BLACK
6
CONTINUOUS
10
5.33111
20
-4.5042
11
5.33798
21
-4.50115
0
LINE
8
BLACK
6
CONTINUOUS
10
5.33798
20
-4.50115
11
5.34407
21
-4.49673
0
LINE
8
BLACK
6
CONTINUOUS
10
5.34407
20
-4.49673
11
5.3491
21
-4.49114
0
LINE
8
BLACK
6
CONTINUOUS
10
5.3491
20
-4.49114
11
5.35286
21
-4.48463
0
LINE
8
BLACK
6
CONTINUOUS
10
5.35286
20
-4.48463
11
5.35518
21
-4.47748
0
LINE
8
BLACK
6
CONTINUOUS
10
5.35518
20
-4.47748
11
5.35596
21
-4.47
0
LINE
8
BLACK
6
CONTINUOUS
10
5.35596
20
-4.47
11
5.35518
21
-4.46252
0
LINE
8
BLACK
6
CONTINUOUS
10
5.35518
20
-4.46252
11
5.35286
21
-4.45537
0
LINE
8
BLACK
6
CONTINUOUS
10
5.35286
20
-4.45537
11
5.3491
21
-4.44886
0
LINE
8
BLACK
6
CONTINUOUS
10
5.3491
20
-4.44886
11
5.3491
21
-4.44886
0
LINE
8
BLACK
6
CONTINUOUS
10
5.3491
20
-4.44886
11
5.3491
21
-4.44886
0
LINE
8
BLACK
6
CONTINUOUS
10
5.3491
20
-4.44886
11
5.34407
21
-4.44327
0
LINE
8
BLACK
6
CONTINUOUS
10
5.34407
20
-4.44327
11
5.33798
21
-4.43885
0
LINE
8
BLACK
6
CONTINUOUS
10
5.33798
20
-4.43885
11
5.33111
21
-4.4358
0
LINE
8
BLACK
6
CONTINUOUS
10
5.33111
20
-4.4358
11
5.32376
21
-4.43423
0
LINE
8
BLACK
6
CONTINUOUS
10
5.32376
20
-4.43423
11
5.31624
21
-4.43423
0
LINE
8
BLACK
6
CONTINUOUS
10
5.31624
20
-4.43423
11
5.30889
21
-4.4358
0
LINE
8
BLACK
6
CONTINUOUS
10
5.30889
20
-4.4358
11
5.30202
21
-4.43885
0
LINE
8
BLACK
6
CONTINUOUS
10
5.30202
20
-4.43885
11
5.30177
21
-4.43903
0
LINE
8
BLACK
6
CONTINUOUS
10
5.30177
20
-4.43903
11
5.29914
21
-4.43997
0
LINE
8
BLACK
6
CONTINUOUS
10
5.29914
20
-4.43997
11
5.29886
21
-4.43998
0
LINE
8
BLACK
6
CONTINUOUS
10
5.29886
20
-4.43998
11
5.28836
21
-4.43998
0
LINE
8
BLACK
6
CONTINUOUS
10
5.28836
20
-4.43998
11
5.28568
21
-4.43919
0
LINE
8
BLACK
6
CONTINUOUS
10
5.28568
20
-4.43919
11
5.28419
21
-4.4377
0
LINE
8
BLACK
6
CONTINUOUS
10
5.28419
20
-4.4377
11
5.2832
21
-4.43616
0
LINE
8
BLACK
6
CONTINUOUS
10
5.2832
20
-4.43616
11
5.2832
21
-4.43616
0
LINE
8
BLACK
6
CONTINUOUS
10
5.2832
20
-4.43616
11
5.28241
21
-4.43526
0
LINE
8
BLACK
6
CONTINUOUS
10
5.28241
20
-4.43526
11
5.28125
21
-4.43271
0
LINE
8
BLACK
6
CONTINUOUS
10
5.28125
20
-4.43271
11
5.2812
21
-4.43201
0
LINE
8
BLACK
6
CONTINUOUS
10
5.2812
20
-4.43201
11
5.2812
21
-4.38999
0
LINE
8
BLACK
6
CONTINUOUS
10
5.2812
20
-4.38999
11
5.28199
21
-4.3873
0
LINE
8
BLACK
6
CONTINUOUS
10
5.28199
20
-4.3873
11
5.28356
21
-4.38576
0
LINE
8
BLACK
6
CONTINUOUS
10
5.28356
20
-4.38576
11
5.28735
21
-4.38343
0
LINE
8
BLACK
6
CONTINUOUS
10
5.28735
20
-4.38343
11
5.2893
21
-4.38147
0
LINE
8
BLACK
6
CONTINUOUS
10
5.2893
20
-4.38147
11
5.29176
21
-4.38013
0
LINE
8
BLACK
6
CONTINUOUS
10
5.29176
20
-4.38013
11
5.29281
21
-4.38002
0
LINE
8
BLACK
6
CONTINUOUS
10
5.29281
20
-4.38002
11
5.29719
21
-4.38002
0
LINE
8
BLACK
6
CONTINUOUS
10
5.29719
20
-4.38002
11
5.29987
21
-4.38081
0
LINE
8
BLACK
6
CONTINUOUS
10
5.29987
20
-4.38081
11
5.3007
21
-4.38147
0
LINE
8
BLACK
6
CONTINUOUS
10
5.3007
20
-4.38147
11
5.30265
21
-4.38343
0
LINE
8
BLACK
6
CONTINUOUS
10
5.30265
20
-4.38343
11
5.30859
21
-4.38709
0
LINE
8
BLACK
6
CONTINUOUS
10
5.30859
20
-4.38709
11
5.31522
21
-4.38929
0
LINE
8
BLACK
6
CONTINUOUS
10
5.31522
20
-4.38929
11
5.31931
21
-4.3897
0
LINE
8
BLACK
6
CONTINUOUS
10
5.31931
20
-4.3897
11
5.36069
21
-4.3897
0
LINE
8
BLACK
6
CONTINUOUS
10
5.36069
20
-4.3897
11
5.36478
21
-4.38929
0
LINE
8
BLACK
6
CONTINUOUS
10
5.36478
20
-4.38929
11
5.37141
21
-4.38709
0
LINE
8
BLACK
6
CONTINUOUS
10
5.37141
20
-4.38709
11
5.37735
21
-4.38343
0
LINE
8
BLACK
6
CONTINUOUS
10
5.37735
20
-4.38343
11
5.38228
21
-4.37849
0
LINE
8
BLACK
6
CONTINUOUS
10
5.38228
20
-4.37849
11
5.38595
21
-4.37255
0
LINE
8
BLACK
6
CONTINUOUS
10
5.38595
20
-4.37255
11
5.38815
21
-4.36592
0
LINE
8
BLACK
6
CONTINUOUS
10
5.38815
20
-4.36592
11
5.38856
21
-4.36183
0
LINE
8
BLACK
6
CONTINUOUS
10
5.38856
20
-4.36183
11
5.38856
21
-4.33817
0
LINE
8
BLACK
6
CONTINUOUS
10
5.38856
20
-4.33817
11
5.38853
21
-4.33789
0
LINE
8
BLACK
6
CONTINUOUS
10
5.38853
20
-4.33789
11
5.38815
21
-4.33408
0
LINE
8
BLACK
6
CONTINUOUS
10
5.38815
20
-4.33408
11
5.38813
21
-4.33405
0
LINE
8
BLACK
6
CONTINUOUS
10
5.38813
20
-4.33405
11
5.38595
21
-4.32745
0
LINE
8
BLACK
6
CONTINUOUS
10
5.38595
20
-4.32745
11
5.38228
21
-4.32151
0
LINE
8
BLACK
6
CONTINUOUS
10
5.38228
20
-4.32151
11
5.38228
21
-4.32151
0
LINE
8
BLACK
6
CONTINUOUS
10
5.38228
20
-4.32151
11
5.38228
21
-4.32151
0
LINE
8
BLACK
6
CONTINUOUS
10
5.38228
20
-4.32151
11
5.37735
21
-4.31657
0
LINE
8
BLACK
6
CONTINUOUS
10
5.37735
20
-4.31657
11
5.37723
21
-4.31648
0
LINE
8
BLACK
6
CONTINUOUS
10
5.37723
20
-4.31648
11
5.37716
21
-4.31639
0
LINE
8
BLACK
6
CONTINUOUS
10
5.37716
20
-4.31639
11
5.37714
21
-4.31637
0
LINE
8
BLACK
6
CONTINUOUS
10
5.37714
20
-4.31637
11
5.37715
21
-4.31637
0
LINE
8
BLACK
6
CONTINUOUS
10
5.37715
20
-4.31637
11
5.37561
21
-4.3142
0
LINE
8
BLACK
6
CONTINUOUS
10
5.37561
20
-4.3142
11
5.37549
21
-4.3114
0
LINE
8
BLACK
6
CONTINUOUS
10
5.37549
20
-4.3114
11
5.37689
21
-4.30899
0
LINE
8
BLACK
6
CONTINUOUS
10
5.37689
20
-4.30899
11
5.37723
21
-4.30869
0
LINE
8
BLACK
6
CONTINUOUS
10
5.37723
20
-4.30869
11
5.37734
21
-4.30861
0
LINE
8
BLACK
6
CONTINUOUS
10
5.37734
20
-4.30861
11
5.38227
21
-4.30368
0
LINE
8
BLACK
6
CONTINUOUS
10
5.38227
20
-4.30368
11
5.38227
21
-4.30367
0
LINE
8
BLACK
6
CONTINUOUS
10
5.38227
20
-4.30367
11
5.38593
21
-4.29774
0
LINE
8
BLACK
6
CONTINUOUS
10
5.38593
20
-4.29774
11
5.38813
21
-4.29111
0
LINE
8
BLACK
6
CONTINUOUS
10
5.38813
20
-4.29111
11
5.38813
21
-4.29111
0
LINE
8
BLACK
6
CONTINUOUS
10
5.38813
20
-4.29111
11
5.38854
21
-4.28703
0
LINE
8
BLACK
6
CONTINUOUS
10
5.38854
20
-4.28703
11
5.38854
21
-4.28703
0
LINE
8
BLACK
6
CONTINUOUS
10
5.38854
20
-4.28703
11
5.38854
21
-4.2852
0
LINE
8
BLACK
6
CONTINUOUS
10
5.38854
20
-4.2852
11
5.36851
21
-4.2852
0
LINE
8
BLACK
6
CONTINUOUS
10
5.36851
20
-4.2852
11
5.36779
21
-4.28881
0
LINE
8
BLACK
6
CONTINUOUS
10
5.36779
20
-4.28881
11
5.36566
21
-4.292
0
LINE
8
BLACK
6
CONTINUOUS
10
5.36566
20
-4.292
11
5.36247
21
-4.29413
0
LINE
8
BLACK
6
CONTINUOUS
10
5.36247
20
-4.29413
11
5.3587
21
-4.29488
0
LINE
8
BLACK
6
CONTINUOUS
10
5.3587
20
-4.29488
11
5.3213
21
-4.29488
0
LINE
8
BLACK
6
CONTINUOUS
10
5.3213
20
-4.29488
11
5.31753
21
-4.29413
0
LINE
8
BLACK
6
CONTINUOUS
10
5.31753
20
-4.29413
11
5.31434
21
-4.292
0
LINE
8
BLACK
6
CONTINUOUS
10
5.31434
20
-4.292
11
5.31221
21
-4.28881
0
LINE
8
BLACK
6
CONTINUOUS
10
5.31221
20
-4.28881
11
5.31149
21
-4.2852
0
LINE
8
BLACK
6
CONTINUOUS
10
5.31149
20
-4.2852
11
5.27851
21
-4.2852
0
LINE
8
BLACK
6
CONTINUOUS
10
5.27851
20
-4.2852
11
5.27779
21
-4.28881
0
LINE
8
BLACK
6
CONTINUOUS
10
5.27779
20
-4.28881
11
5.27566
21
-4.292
0
LINE
8
BLACK
6
CONTINUOUS
10
5.27566
20
-4.292
11
5.27247
21
-4.29413
0
LINE
8
BLACK
6
CONTINUOUS
10
5.27247
20
-4.29413
11
5.2687
21
-4.29488
0
LINE
8
BLACK
6
CONTINUOUS
10
5.2687
20
-4.29488
11
5.2313
21
-4.29488
0
LINE
8
BLACK
6
CONTINUOUS
10
5.2313
20
-4.29488
11
5.22753
21
-4.29413
0
LINE
8
BLACK
6
CONTINUOUS
10
5.22753
20
-4.29413
11
5.22434
21
-4.292
0
LINE
8
BLACK
6
CONTINUOUS
10
5.22434
20
-4.292
11
5.22221
21
-4.28881
0
LINE
8
BLACK
6
CONTINUOUS
10
5.22221
20
-4.28881
11
5.22146
21
-4.28504
0
LINE
8
BLACK
6
CONTINUOUS
10
5.22146
20
-4.28504
11
5.22146
21
-4.26535
0
LINE
8
BLACK
6
CONTINUOUS
10
5.22146
20
-4.26535
11
5.22221
21
-4.26159
0
LINE
8
BLACK
6
CONTINUOUS
10
5.22221
20
-4.26159
11
5.22434
21
-4.25839
0
LINE
8
BLACK
6
CONTINUOUS
10
5.22434
20
-4.25839
11
5.22753
21
-4.25626
0
LINE
8
BLACK
6
CONTINUOUS
10
5.22753
20
-4.25626
11
5.2313
21
-4.25551
0
LINE
8
BLACK
6
CONTINUOUS
10
5.2313
20
-4.25551
11
5.24
21
-4.25551
0
LINE
8
BLACK
6
CONTINUOUS
10
5.24
20
-4.25551
11
5.24
21
-4.23575
0
LINE
8
BLACK
6
CONTINUOUS
10
5.24
20
-4.23575
11
5.23851
21
-4.23551
0
LINE
8
BLACK
6
CONTINUOUS
10
5.23851
20
-4.23551
11
5.22931
21
-4.23551
0
LINE
8
BLACK
6
CONTINUOUS
10
5.22931
20
-4.23551
11
5.22522
21
-4.23593
0
LINE
8
BLACK
6
CONTINUOUS
10
5.22522
20
-4.23593
11
5.22522
21
-4.23593
0
LINE
8
BLACK
6
CONTINUOUS
10
5.22522
20
-4.23593
11
5.2186
21
-4.23812
0
LINE
8
BLACK
6
CONTINUOUS
10
5.2186
20
-4.23812
11
5.21242
21
-4.24194
0
LINE
8
BLACK
6
CONTINUOUS
10
5.21242
20
-4.24194
11
5.21239
21
-4.24189
0
LINE
8
BLACK
6
CONTINUOUS
10
5.21239
20
-4.24189
11
5.2101
21
-4.24281
0
LINE
8
BLACK
6
CONTINUOUS
10
5.2101
20
-4.24281
11
5.20736
21
-4.24229
0
LINE
8
BLACK
6
CONTINUOUS
10
5.20736
20
-4.24229
11
5.20533
21
-4.24036
0
LINE
8
BLACK
6
CONTINUOUS
10
5.20533
20
-4.24036
11
5.20497
21
-4.2396
0
LINE
8
BLACK
6
CONTINUOUS
10
5.20497
20
-4.2396
11
5.20338
21
-4.23535
0
LINE
8
BLACK
6
CONTINUOUS
10
5.20338
20
-4.23535
11
5.20338
21
-4.23535
0
LINE
8
BLACK
6
CONTINUOUS
10
5.20338
20
-4.23535
11
5.2027
21
-4.23444
0
LINE
8
BLACK
6
CONTINUOUS
10
5.2027
20
-4.23444
11
5.20173
21
-4.23182
0
LINE
8
BLACK
6
CONTINUOUS
10
5.20173
20
-4.23182
11
5.20171
21
-4.23147
0
LINE
8
BLACK
6
CONTINUOUS
10
5.20171
20
-4.23147
11
5.20171
21
-4.22979
0
LINE
8
BLACK
6
CONTINUOUS
10
5.20171
20
-4.22979
11
5.2025
21
-4.22711
0
LINE
8
BLACK
6
CONTINUOUS
10
5.2025
20
-4.22711
11
5.20317
21
-4.22628
0
LINE
8
BLACK
6
CONTINUOUS
10
5.20317
20
-4.22628
11
5.2301
21
-4.19935
0
LINE
8
BLACK
6
CONTINUOUS
10
5.2301
20
-4.19935
11
5.23255
21
-4.19801
0
LINE
8
BLACK
6
CONTINUOUS
10
5.23255
20
-4.19801
11
5.23361
21
-4.19789
0
LINE
8
BLACK
6
CONTINUOUS
10
5.23361
20
-4.19789
11
5.41919
21
-4.19789
0
LINE
8
BLACK
6
CONTINUOUS
10
5.41919
20
-4.19789
11
5.42187
21
-4.19868
0
LINE
8
BLACK
6
CONTINUOUS
10
5.42187
20
-4.19868
11
5.4237
21
-4.20079
0
LINE
8
BLACK
6
CONTINUOUS
10
5.4237
20
-4.20079
11
5.42413
21
-4.20234
0
LINE
8
BLACK
6
CONTINUOUS
10
5.42413
20
-4.20234
11
5.42437
21
-4.20467
0
LINE
8
BLACK
6
CONTINUOUS
10
5.42437
20
-4.20467
11
5.42482
21
-4.20895
0
LINE
8
BLACK
6
CONTINUOUS
10
5.42482
20
-4.20895
11
5.42649
21
-4.21408
0
LINE
8
BLACK
6
CONTINUOUS
10
5.42649
20
-4.21408
11
5.42657
21
-4.21688
0
LINE
8
BLACK
6
CONTINUOUS
10
5.42657
20
-4.21688
11
5.42512
21
-4.21927
0
LINE
8
BLACK
6
CONTINUOUS
10
5.42512
20
-4.21927
11
5.42474
21
-4.21959
0
LINE
8
BLACK
6
CONTINUOUS
10
5.42474
20
-4.21959
11
5.42121
21
-4.22223
0
LINE
8
BLACK
6
CONTINUOUS
10
5.42121
20
-4.22223
11
5.41776
21
-4.22684
0
LINE
8
BLACK
6
CONTINUOUS
10
5.41776
20
-4.22684
11
5.41776
21
-4.22684
0
LINE
8
BLACK
6
CONTINUOUS
10
5.41776
20
-4.22684
11
5.41575
21
-4.23224
0
LINE
8
BLACK
6
CONTINUOUS
10
5.41575
20
-4.23224
11
5.41575
21
-4.23224
0
LINE
8
BLACK
6
CONTINUOUS
10
5.41575
20
-4.23224
11
5.41549
21
-4.23462
0
LINE
8
BLACK
6
CONTINUOUS
10
5.41549
20
-4.23462
11
5.41549
21
-4.30538
0
LINE
8
BLACK
6
CONTINUOUS
10
5.41549
20
-4.30538
11
5.41575
21
-4.30776
0
LINE
8
BLACK
6
CONTINUOUS
10
5.41575
20
-4.30776
11
5.41575
21
-4.30776
0
LINE
8
BLACK
6
CONTINUOUS
10
5.41575
20
-4.30776
11
5.41776
21
-4.31316
0
LINE
8
BLACK
6
CONTINUOUS
10
5.41776
20
-4.31316
11
5.41776
21
-4.31316
0
LINE
8
BLACK
6
CONTINUOUS
10
5.41776
20
-4.31316
11
5.42121
21
-4.31777
0
LINE
8
BLACK
6
CONTINUOUS
10
5.42121
20
-4.31777
11
5.42582
21
-4.32122
0
LINE
8
BLACK
6
CONTINUOUS
10
5.42582
20
-4.32122
11
5.42582
21
-4.32122
0
LINE
8
BLACK
6
CONTINUOUS
10
5.42582
20
-4.32122
11
5.42582
21
-4.32122
0
LINE
8
BLACK
6
CONTINUOUS
10
5.42582
20
-4.32122
11
5.42814
21
-4.32208
0
LINE
8
BLACK
6
CONTINUOUS
10
5.42814
20
-4.32208
11
5.43121
21
-4.32323
0
LINE
8
BLACK
6
CONTINUOUS
10
5.43121
20
-4.32323
11
5.43121
21
-4.32323
0
LINE
8
BLACK
6
CONTINUOUS
10
5.43121
20
-4.32323
11
5.4336
21
-4.32348
0
LINE
8
BLACK
6
CONTINUOUS
10
5.4336
20
-4.32348
11
5.4336
21
-4.32348
0
LINE
8
BLACK
6
CONTINUOUS
10
5.4336
20
-4.32348
11
5.4336
21
-4.32348
0
LINE
8
BLACK
6
CONTINUOUS
10
5.4336
20
-4.32348
11
5.4336
21
-4.32348
0
LINE
8
BLACK
6
CONTINUOUS
10
5.4336
20
-4.32348
11
5.48861
21
-4.32348
0
LINE
8
BLACK
6
CONTINUOUS
10
5.48861
20
-4.32348
11
5.48861
21
-4.32348
0
LINE
8
BLACK
6
CONTINUOUS
10
5.48861
20
-4.32348
11
5.48861
21
-4.32348
0
LINE
8
BLACK
6
CONTINUOUS
10
5.48861
20
-4.32348
11
5.48861
21
-4.32348
0
LINE
8
BLACK
6
CONTINUOUS
10
5.48861
20
-4.32348
11
5.49099
21
-4.32323
0
LINE
8
BLACK
6
CONTINUOUS
10
5.49099
20
-4.32323
11
5.49099
21
-4.32323
0
LINE
8
BLACK
6
CONTINUOUS
10
5.49099
20
-4.32323
11
5.49099
21
-4.32323
0
LINE
8
BLACK
6
CONTINUOUS
10
5.49099
20
-4.32323
11
5.49639
21
-4.32122
0
LINE
8
BLACK
6
CONTINUOUS
10
5.49639
20
-4.32122
11
5.49641
21
-4.3212
0
LINE
8
BLACK
6
CONTINUOUS
10
5.49641
20
-4.3212
11
5.50099
21
-4.31777
0
LINE
8
BLACK
6
CONTINUOUS
10
5.50099
20
-4.31777
11
5.50444
21
-4.31316
0
LINE
8
BLACK
6
CONTINUOUS
10
5.50444
20
-4.31316
11
5.50444
21
-4.31316
0
LINE
8
BLACK
6
CONTINUOUS
10
5.50444
20
-4.31316
11
5.50444
21
-4.31316
0
LINE
8
BLACK
6
CONTINUOUS
10
5.50444
20
-4.31316
11
5.50646
21
-4.30776
0
LINE
8
BLACK
6
CONTINUOUS
10
5.50646
20
-4.30776
11
5.50671
21
-4.30538
0
LINE
8
BLACK
6
CONTINUOUS
10
5.50671
20
-4.30538
11
5.50671
21
-4.28
0
LINE
8
BLACK
6
CONTINUOUS
10
5.50671
20
-4.28
11
5.50671
21
-4.26
0
LINE
8
BLACK
6
CONTINUOUS
10
5.50671
20
-4.26
11
5.50671
21
-4.23462
0
LINE
8
BLACK
6
CONTINUOUS
10
5.50671
20
-4.23462
11
5.50671
21
-4.23462
0
LINE
8
BLACK
6
CONTINUOUS
10
5.50671
20
-4.23462
11
5.50646
21
-4.23224
0
LINE
8
BLACK
6
CONTINUOUS
10
5.50646
20
-4.23224
11
5.50646
21
-4.23224
0
LINE
8
BLACK
6
CONTINUOUS
10
5.50646
20
-4.23224
11
5.50531
21
-4.22917
0
LINE
8
BLACK
6
CONTINUOUS
10
5.50531
20
-4.22917
11
5.50444
21
-4.22684
0
LINE
8
BLACK
6
CONTINUOUS
10
5.50444
20
-4.22684
11
5.50444
21
-4.22684
0
LINE
8
BLACK
6
CONTINUOUS
10
5.50444
20
-4.22684
11
5.50444
21
-4.22684
0
LINE
8
BLACK
6
CONTINUOUS
10
5.50444
20
-4.22684
11
5.50099
21
-4.22223
0
LINE
8
BLACK
6
CONTINUOUS
10
5.50099
20
-4.22223
11
5.49746
21
-4.21959
0
LINE
8
BLACK
6
CONTINUOUS
10
5.49746
20
-4.21959
11
5.49639
21
-4.21878
0
LINE
8
BLACK
6
CONTINUOUS
10
5.49639
20
-4.21878
11
5.49639
21
-4.21878
0
LINE
8
BLACK
6
CONTINUOUS
10
5.49639
20
-4.21878
11
5.49626
21
-4.21872
0
LINE
8
BLACK
6
CONTINUOUS
10
5.49626
20
-4.21872
11
5.49616
21
-4.21861
0
LINE
8
BLACK
6
CONTINUOUS
10
5.49616
20
-4.21861
11
5.4961
21
-4.21857
0
LINE
8
BLACK
6
CONTINUOUS
10
5.4961
20
-4.21857
11
5.49611
21
-4.21856
0
LINE
8
BLACK
6
CONTINUOUS
10
5.49611
20
-4.21856
11
5.49428
21
-4.21674
0
LINE
8
BLACK
6
CONTINUOUS
10
5.49428
20
-4.21674
11
5.49369
21
-4.21401
0
LINE
8
BLACK
6
CONTINUOUS
10
5.49369
20
-4.21401
11
5.49392
21
-4.21283
0
LINE
8
BLACK
6
CONTINUOUS
10
5.49392
20
-4.21283
11
5.49518
21
-4.20895
0
LINE
8
BLACK
6
CONTINUOUS
10
5.49518
20
-4.20895
11
5.49596
21
-4.20148
0
LINE
8
BLACK
6
CONTINUOUS
10
5.49596
20
-4.20148
11
5.49518
21
-4.194
0
LINE
8
BLACK
6
CONTINUOUS
10
5.49518
20
-4.194
11
5.49286
21
-4.18685
0
LINE
8
BLACK
6
CONTINUOUS
10
5.49286
20
-4.18685
11
5.49286
21
-4.18685
0
LINE
8
BLACK
6
CONTINUOUS
10
5.49286
20
-4.18685
11
5.49286
21
-4.18685
0
LINE
8
BLACK
6
CONTINUOUS
10
5.49286
20
-4.18685
11
5.491
21
-4.18364
0
LINE
8
BLACK
6
CONTINUOUS
10
5.491
20
-4.18364
11
5.49035
21
-4.18093
0
LINE
8
BLACK
6
CONTINUOUS
10
5.49035
20
-4.18093
11
5.49126
21
-4.17828
0
LINE
8
BLACK
6
CONTINUOUS
10
5.49126
20
-4.17828
11
5.49179
21
-4.17765
0
LINE
8
BLACK
6
CONTINUOUS
10
5.49179
20
-4.17765
11
5.505
21
-4.16445
0
LINE
8
BLACK
6
CONTINUOUS
10
5.505
20
-4.16445
11
5.50511
21
-4.16435
0
LINE
8
BLACK
6
CONTINUOUS
10
5.50511
20
-4.16435
11
5.50696
21
-4.16271
0
LINE
8
BLACK
6
CONTINUOUS
10
5.50696
20
-4.16271
11
5.50836
21
-4.16068
0
LINE
8
BLACK
6
CONTINUOUS
10
5.50836
20
-4.16068
11
5.50845
21
-4.16056
0
LINE
8
BLACK
6
CONTINUOUS
10
5.50845
20
-4.16056
11
5.50997
21
-4.15861
0
LINE
8
BLACK
6
CONTINUOUS
10
5.50997
20
-4.15861
11
5.51014
21
-4.15825
0
LINE
8
BLACK
6
CONTINUOUS
10
5.51014
20
-4.15825
11
5.51058
21
-4.15746
0
LINE
8
BLACK
6
CONTINUOUS
10
5.51058
20
-4.15746
11
5.51081
21
-4.15713
0
LINE
8
BLACK
6
CONTINUOUS
10
5.51081
20
-4.15713
11
5.51112
21
-4.1563
0
LINE
8
BLACK
6
CONTINUOUS
10
5.51112
20
-4.1563
11
5.51168
21
-4.15482
0
LINE
8
BLACK
6
CONTINUOUS
10
5.51168
20
-4.15482
11
5.51174
21
-4.15469
0
LINE
8
BLACK
6
CONTINUOUS
10
5.51174
20
-4.15469
11
5.512
21
-4.15409
0
LINE
8
BLACK
6
CONTINUOUS
10
5.512
20
-4.15409
11
5.51382
21
-4.15197
0
LINE
8
BLACK
6
CONTINUOUS
10
5.51382
20
-4.15197
11
5.51392
21
-4.15191
0
LINE
8
BLACK
6
CONTINUOUS
10
5.51392
20
-4.15191
11
5.51491
21
-4.1513
0
LINE
8
BLACK
6
CONTINUOUS
10
5.51491
20
-4.1513
11
5.51984
21
-4.14636
0
LINE
8
BLACK
6
CONTINUOUS
10
5.51984
20
-4.14636
11
5.52351
21
-4.14042
0
LINE
8
BLACK
6
CONTINUOUS
10
5.52351
20
-4.14042
11
5.5257
21
-4.1338
0
LINE
8
BLACK
6
CONTINUOUS
10
5.5257
20
-4.1338
11
5.52612
21
-4.12971
0
LINE
8
BLACK
6
CONTINUOUS
10
5.52612
20
-4.12971
11
5.52612
21
-4.09029
0
LINE
8
BLACK
6
CONTINUOUS
10
5.52612
20
-4.09029
11
5.52584
21
-4.08752
0
LINE
8
BLACK
6
CONTINUOUS
10
5.52584
20
-4.08752
11
5.5257
21
-4.0862
0
LINE
8
BLACK
6
CONTINUOUS
10
5.5257
20
-4.0862
11
5.5246
21
-4.08286
0
LINE
8
BLACK
6
CONTINUOUS
10
5.5246
20
-4.08286
11
5.52351
21
-4.07958
0
LINE
8
BLACK
6
CONTINUOUS
10
5.52351
20
-4.07958
11
5.51984
21
-4.07364
0
LINE
8
BLACK
6
CONTINUOUS
10
5.51984
20
-4.07364
11
5.51984
21
-4.07364
0
LINE
8
BLACK
6
CONTINUOUS
10
5.51984
20
-4.07364
11
5.51984
21
-4.07364
0
LINE
8
BLACK
6
CONTINUOUS
10
5.51984
20
-4.07364
11
5.51491
21
-4.0687
0
LINE
8
BLACK
6
CONTINUOUS
10
5.51491
20
-4.0687
11
5.51491
21
-4.0687
0
LINE
8
BLACK
6
CONTINUOUS
10
5.51491
20
-4.0687
11
5.51023
21
-4.06582
0
LINE
8
BLACK
6
CONTINUOUS
10
5.51023
20
-4.06582
11
5.50836
21
-4.06374
0
LINE
8
BLACK
6
CONTINUOUS
10
5.50836
20
-4.06374
11
5.50791
21
-4.06098
0
LINE
8
BLACK
6
CONTINUOUS
10
5.50791
20
-4.06098
11
5.50903
21
-4.05842
0
LINE
8
BLACK
6
CONTINUOUS
10
5.50903
20
-4.05842
11
5.50986
21
-4.05762
0
LINE
8
BLACK
6
CONTINUOUS
10
5.50986
20
-4.05762
11
5.5143
21
-4.0543
0
LINE
8
BLACK
6
CONTINUOUS
10
5.5143
20
-4.0543
11
5.51604
21
-4.05198
0
LINE
8
BLACK
6
CONTINUOUS
10
5.51604
20
-4.05198
11
5.51828
21
-4.0503
0
LINE
8
BLACK
6
CONTINUOUS
10
5.51828
20
-4.0503
11
5.52107
21
-4.0501
0
LINE
8
BLACK
6
CONTINUOUS
10
5.52107
20
-4.0501
11
5.52352
21
-4.05144
0
LINE
8
BLACK
6
CONTINUOUS
10
5.52352
20
-4.05144
11
5.52398
21
-4.05198
0
LINE
8
BLACK
6
CONTINUOUS
10
5.52398
20
-4.05198
11
5.52571
21
-4.05429
0
LINE
8
BLACK
6
CONTINUOUS
10
5.52571
20
-4.05429
11
5.53032
21
-4.05773
0
LINE
8
BLACK
6
CONTINUOUS
10
5.53032
20
-4.05773
11
5.5357
21
-4.05974
0
LINE
8
BLACK
6
CONTINUOUS
10
5.5357
20
-4.05974
11
5.53809
21
-4.06
0
LINE
8
BLACK
6
CONTINUOUS
10
5.53809
20
-4.06
11
5.53809
21
-4.06
0
LINE
8
BLACK
6
CONTINUOUS
10
5.53809
20
-4.06
11
5.56
21
-4.06
0
LINE
8
BLACK
6
CONTINUOUS
10
5.56
20
-4.06
11
5.56
21
-4.04
0
LINE
8
BLACK
6
CONTINUOUS
10
5.56
20
-4.04
11
5.54
21
-4.04
0
LINE
8
BLACK
6
CONTINUOUS
10
5.54
20
-4.04
11
5.54
21
-3.98
0
LINE
8
BLACK
6
CONTINUOUS
10
5.54
20
-3.98
11
5.56
21
-3.98
0
LINE
8
BLACK
6
CONTINUOUS
10
5.56
20
-3.98
11
5.56
21
-3.94
0
LINE
8
BLACK
6
CONTINUOUS
10
5.56
20
-3.94
11
5.54
21
-3.94
0
LINE
8
BLACK
6
CONTINUOUS
10
5.54
20
-3.94
11
5.54
21
-3.88
0
LINE
8
BLACK
6
CONTINUOUS
10
5.54
20
-3.88
11
5.56
21
-3.88
0
LINE
8
BLACK
6
CONTINUOUS
10
5.56
20
-3.88
11
5.56
21
-3.86
0
LINE
8
BLACK
6
CONTINUOUS
10
5.56
20
-3.86
11
5.53809
21
-3.86
0
LINE
8
BLACK
6
CONTINUOUS
10
5.53809
20
-3.86
11
5.5357
21
-3.86026
0
LINE
8
BLACK
6
CONTINUOUS
10
5.5357
20
-3.86026
11
5.53032
21
-3.86227
0
LINE
8
BLACK
6
CONTINUOUS
10
5.53032
20
-3.86227
11
5.53032
21
-3.86227
0
LINE
8
BLACK
6
CONTINUOUS
10
5.53032
20
-3.86227
11
5.52571
21
-3.86571
0
LINE
8
BLACK
6
CONTINUOUS
10
5.52571
20
-3.86571
11
5.52398
21
-3.86802
0
LINE
8
BLACK
6
CONTINUOUS
10
5.52398
20
-3.86802
11
5.52175
21
-3.8697
0
LINE
8
BLACK
6
CONTINUOUS
10
5.52175
20
-3.8697
11
5.51896
21
-3.8699
0
LINE
8
BLACK
6
CONTINUOUS
10
5.51896
20
-3.8699
11
5.5165
21
-3.86856
0
LINE
8
BLACK
6
CONTINUOUS
10
5.5165
20
-3.86856
11
5.51604
21
-3.86802
0
LINE
8
BLACK
6
CONTINUOUS
10
5.51604
20
-3.86802
11
5.51431
21
-3.86571
0
LINE
8
BLACK
6
CONTINUOUS
10
5.51431
20
-3.86571
11
5.5143
21
-3.8657
0
LINE
8
BLACK
6
CONTINUOUS
10
5.5143
20
-3.8657
11
5.5143
21
-3.8657
0
LINE
8
BLACK
6
CONTINUOUS
10
5.5143
20
-3.8657
11
5.5143
21
-3.8657
0
LINE
8
BLACK
6
CONTINUOUS
10
5.5143
20
-3.8657
11
5.50969
21
-3.86225
0
LINE
8
BLACK
6
CONTINUOUS
10
5.50969
20
-3.86225
11
5.50969
21
-3.86225
0
LINE
8
BLACK
6
CONTINUOUS
10
5.50969
20
-3.86225
11
5.5043
21
-3.86024
0
LINE
8
BLACK
6
CONTINUOUS
10
5.5043
20
-3.86024
11
5.5043
21
-3.86024
0
LINE
8
BLACK
6
CONTINUOUS
10
5.5043
20
-3.86024
11
5.50192
21
-3.85998
0
LINE
8
BLACK
6
CONTINUOUS
10
5.50192
20
-3.85998
11
5.50191
21
-3.85998
0
LINE
8
BLACK
6
CONTINUOUS
10
5.50191
20
-3.85998
11
5.43809
21
-3.85998
0
LINE
8
BLACK
6
CONTINUOUS
10
5.43809
20
-3.85998
11
5.43808
21
-3.85998
0
LINE
8
BLACK
6
CONTINUOUS
10
5.43808
20
-3.85998
11
5.4357
21
-3.86024
0
LINE
8
BLACK
6
CONTINUOUS
10
5.4357
20
-3.86024
11
5.4357
21
-3.86024
0
LINE
8
BLACK
6
CONTINUOUS
10
5.4357
20
-3.86024
11
5.43031
21
-3.86225
0
LINE
8
BLACK
6
CONTINUOUS
10
5.43031
20
-3.86225
11
5.43031
21
-3.86225
0
LINE
8
BLACK
6
CONTINUOUS
10
5.43031
20
-3.86225
11
5.4257
21
-3.8657
0
LINE
8
BLACK
6
CONTINUOUS
10
5.4257
20
-3.8657
11
5.42397
21
-3.86801
0
LINE
8
BLACK
6
CONTINUOUS
10
5.42397
20
-3.86801
11
5.42173
21
-3.86968
0
LINE
8
BLACK
6
CONTINUOUS
10
5.42173
20
-3.86968
11
5.41895
21
-3.86988
0
LINE
8
BLACK
6
CONTINUOUS
10
5.41895
20
-3.86988
11
5.41649
21
-3.86854
0
LINE
8
BLACK
6
CONTINUOUS
10
5.41649
20
-3.86854
11
5.41603
21
-3.86801
0
LINE
8
BLACK
6
CONTINUOUS
10
5.41603
20
-3.86801
11
5.4143
21
-3.8657
0
LINE
8
BLACK
6
CONTINUOUS
10
5.4143
20
-3.8657
11
5.40969
21
-3.86225
0
LINE
8
BLACK
6
CONTINUOUS
10
5.40969
20
-3.86225
11
5.40969
21
-3.86225
0
LINE
8
BLACK
6
CONTINUOUS
10
5.40969
20
-3.86225
11
5.4043
21
-3.86024
0
LINE
8
BLACK
6
CONTINUOUS
10
5.4043
20
-3.86024
11
5.4043
21
-3.86024
0
LINE
8
BLACK
6
CONTINUOUS
10
5.4043
20
-3.86024
11
5.40192
21
-3.85998
0
LINE
8
BLACK
6
CONTINUOUS
10
5.40192
20
-3.85998
11
5.40191
21
-3.85998
0
LINE
8
BLACK
6
CONTINUOUS
10
5.40191
20
-3.85998
11
5.33809
21
-3.85998
0
LINE
8
BLACK
6
CONTINUOUS
10
5.33809
20
-3.85998
11
5.33808
21
-3.85998
0
LINE
8
BLACK
6
CONTINUOUS
10
5.33808
20
-3.85998
11
5.3357
21
-3.86024
0
LINE
8
BLACK
6
CONTINUOUS
10
5.3357
20
-3.86024
11
5.3357
21
-3.86024
0
LINE
8
BLACK
6
CONTINUOUS
10
5.3357
20
-3.86024
11
5.33031
21
-3.86225
0
LINE
8
BLACK
6
CONTINUOUS
10
5.33031
20
-3.86225
11
5.33031
21
-3.86225
0
LINE
8
BLACK
6
CONTINUOUS
10
5.33031
20
-3.86225
11
5.3257
21
-3.8657
0
LINE
8
BLACK
6
CONTINUOUS
10
5.3257
20
-3.8657
11
5.32397
21
-3.86801
0
LINE
8
BLACK
6
CONTINUOUS
10
5.32397
20
-3.86801
11
5.32173
21
-3.86968
0
LINE
8
BLACK
6
CONTINUOUS
10
5.32173
20
-3.86968
11
5.31895
21
-3.86988
0
LINE
8
BLACK
6
CONTINUOUS
10
5.31895
20
-3.86988
11
5.31649
21
-3.86854
0
LINE
8
BLACK
6
CONTINUOUS
10
5.31649
20
-3.86854
11
5.31603
21
-3.86801
0
LINE
8
BLACK
6
CONTINUOUS
10
5.31603
20
-3.86801
11
5.3143
21
-3.8657
0
LINE
8
BLACK
6
CONTINUOUS
10
5.3143
20
-3.8657
11
5.30969
21
-3.86225
0
LINE
8
BLACK
6
CONTINUOUS
10
5.30969
20
-3.86225
11
5.30969
21
-3.86225
0
LINE
8
BLACK
6
CONTINUOUS
10
5.30969
20
-3.86225
11
5.3043
21
-3.86024
0
LINE
8
BLACK
6
CONTINUOUS
10
5.3043
20
-3.86024
11
5.3043
21
-3.86024
0
LINE
8
BLACK
6
CONTINUOUS
10
5.3043
20
-3.86024
11
5.30192
21
-3.85998
0
LINE
8
BLACK
6
CONTINUOUS
10
5.30192
20
-3.85998
11
5.30191
21
-3.85998
0
LINE
8
BLACK
6
CONTINUOUS
10
5.30191
20
-3.85998
11
5.26148
21
-3.85998
0
LINE
8
BLACK
6
CONTINUOUS
10
5.26148
20
-3.85998
11
5.2588
21
-3.85919
0
LINE
8
BLACK
6
CONTINUOUS
10
5.2588
20
-3.85919
11
5.25798
21
-3.85853
0
LINE
8
BLACK
6
CONTINUOUS
10
5.25798
20
-3.85853
11
5.23792
21
-3.83847
0
LINE
8
BLACK
6
CONTINUOUS
10
5.23792
20
-3.83847
11
5.23658
21
-3.83602
0
LINE
8
BLACK
6
CONTINUOUS
10
5.23658
20
-3.83602
11
5.23678
21
-3.83323
0
LINE
8
BLACK
6
CONTINUOUS
10
5.23678
20
-3.83323
11
5.23845
21
-3.83099
0
LINE
8
BLACK
6
CONTINUOUS
10
5.23845
20
-3.83099
11
5.24107
21
-3.83001
0
LINE
8
BLACK
6
CONTINUOUS
10
5.24107
20
-3.83001
11
5.24142
21
-3.83
0
LINE
8
BLACK
6
CONTINUOUS
10
5.24142
20
-3.83
11
5.96504
21
-3.83
0
LINE
8
BLACK
6
CONTINUOUS
10
5.96504
20
-3.83
11
5.96772
21
-3.83079
0
LINE
8
BLACK
6
CONTINUOUS
10
5.96772
20
-3.83079
11
5.96955
21
-3.8329
0
LINE
8
BLACK
6
CONTINUOUS
10
5.96955
20
-3.8329
11
5.97
21
-3.83496
0
LINE
8
BLACK
6
CONTINUOUS
10
5.97
20
-3.83496
11
5.97
21
-4.56504
0
LINE
8
BLACK
6
CONTINUOUS
10
5.97
20
-4.56504
11
5.96921
21
-4.56772
0
LINE
8
BLACK
6
CONTINUOUS
10
5.96921
20
-4.56772
11
5.9671
21
-4.56955
0
LINE
8
BLACK
6
CONTINUOUS
10
5.9671
20
-4.56955
11
5.96504
21
-4.57
0
LINE
8
BLACK
6
CONTINUOUS
10
5.96504
20
-4.57
11
4.43496
21
-4.57
0
LINE
8
BLACK
6
CONTINUOUS
10
4.43496
20
-4.57
11
4.43228
21
-4.56921
0
LINE
8
BLACK
6
CONTINUOUS
10
4.43228
20
-4.56921
11
4.43045
21
-4.5671
0
LINE
8
BLACK
6
CONTINUOUS
10
4.43045
20
-4.5671
11
4.43
21
-4.56504
0
LINE
8
BLACK
6
CONTINUOUS
10
4.43
20
-4.56504
11
4.43
21
-4.14829
0
LINE
8
BLACK
6
CONTINUOUS
10
4.43
20
-4.14829
11
4.43
21
-3.83496
0
LINE
8
BLACK
6
CONTINUOUS
10
4.43
20
-3.83496
11
4.43079
21
-3.83228
0
LINE
8
BLACK
6
CONTINUOUS
10
4.43079
20
-3.83228
11
4.4329
21
-3.83045
0
LINE
8
BLACK
6
CONTINUOUS
10
4.4329
20
-3.83045
11
4.43496
21
-3.83
0
LINE
8
BLACK
6
CONTINUOUS
10
4.43496
20
-3.83
11
4.95858
21
-3.83
0
LINE
8
BLACK
6
CONTINUOUS
10
4.95858
20
-3.83
11
4.96126
21
-3.83079
0
LINE
8
BLACK
6
CONTINUOUS
10
5.55331
20
-4.30538
11
5.55356
21
-4.30776
0
LINE
8
BLACK
6
CONTINUOUS
10
5.55356
20
-4.30776
11
5.55557
21
-4.31315
0
LINE
8
BLACK
6
CONTINUOUS
10
5.55557
20
-4.31315
11
5.55557
21
-4.31315
0
LINE
8
BLACK
6
CONTINUOUS
10
5.55557
20
-4.31315
11
5.55902
21
-4.31775
0
LINE
8
BLACK
6
CONTINUOUS
10
5.55902
20
-4.31775
11
5.56362
21
-4.3212
0
LINE
8
BLACK
6
CONTINUOUS
10
5.56362
20
-4.3212
11
5.56901
21
-4.32321
0
LINE
8
BLACK
6
CONTINUOUS
10
5.56901
20
-4.32321
11
5.57139
21
-4.32346
0
LINE
8
BLACK
6
CONTINUOUS
10
5.57139
20
-4.32346
11
5.57139
21
-4.32346
0
LINE
8
BLACK
6
CONTINUOUS
10
5.57139
20
-4.32346
11
5.5889
21
-4.32346
0
LINE
8
BLACK
6
CONTINUOUS
10
5.5889
20
-4.32346
11
5.5889
21
-4.30346
0
LINE
8
BLACK
6
CONTINUOUS
10
5.5889
20
-4.30346
11
5.57331
21
-4.30346
0
LINE
8
BLACK
6
CONTINUOUS
10
5.57331
20
-4.30346
11
5.57331
21
-4.28
0
LINE
8
BLACK
6
CONTINUOUS
10
5.57331
20
-4.28
11
5.55331
21
-4.28
0
LINE
8
BLACK
6
CONTINUOUS
10
5.55331
20
-4.28
11
5.55331
21
-4.30538
0
LINE
8
BLACK
6
CONTINUOUS
10
5.62449
20
-4.30346
11
5.6089
21
-4.30346
0
LINE
8
BLACK
6
CONTINUOUS
10
5.6089
20
-4.30346
11
5.6089
21
-4.32346
0
LINE
8
BLACK
6
CONTINUOUS
10
5.6089
20
-4.32346
11
5.6264
21
-4.32346
0
LINE
8
BLACK
6
CONTINUOUS
10
5.6264
20
-4.32346
11
5.6264
21
-4.32346
0
LINE
8
BLACK
6
CONTINUOUS
10
5.6264
20
-4.32346
11
5.62878
21
-4.32321
0
LINE
8
BLACK
6
CONTINUOUS
10
5.62878
20
-4.32321
11
5.63417
21
-4.3212
0
LINE
8
BLACK
6
CONTINUOUS
10
5.63417
20
-4.3212
11
5.63417
21
-4.3212
0
LINE
8
BLACK
6
CONTINUOUS
10
5.63417
20
-4.3212
11
5.63878
21
-4.31775
0
LINE
8
BLACK
6
CONTINUOUS
10
5.63878
20
-4.31775
11
5.64222
21
-4.31315
0
LINE
8
BLACK
6
CONTINUOUS
10
5.64222
20
-4.31315
11
5.64222
21
-4.31315
0
LINE
8
BLACK
6
CONTINUOUS
10
5.64222
20
-4.31315
11
5.64423
21
-4.30776
0
LINE
8
BLACK
6
CONTINUOUS
10
5.64423
20
-4.30776
11
5.64449
21
-4.30538
0
LINE
8
BLACK
6
CONTINUOUS
10
5.64449
20
-4.30538
11
5.64449
21
-4.30538
0
LINE
8
BLACK
6
CONTINUOUS
10
5.64449
20
-4.30538
11
5.64449
21
-4.28
0
LINE
8
BLACK
6
CONTINUOUS
10
5.64449
20
-4.28
11
5.62449
21
-4.28
0
LINE
8
BLACK
6
CONTINUOUS
10
5.62449
20
-4.28
11
5.62449
21
-4.30346
0
LINE
8
BLACK
6
CONTINUOUS
10
5.35
20
-4.25551
11
5.3587
21
-4.25551
0
LINE
8
BLACK
6
CONTINUOUS
10
5.3587
20
-4.25551
11
5.36247
21
-4.25626
0
LINE
8
BLACK
6
CONTINUOUS
10
5.36247
20
-4.25626
11
5.36566
21
-4.25839
0
LINE
8
BLACK
6
CONTINUOUS
10
5.36566
20
-4.25839
11
5.36779
21
-4.26159
0
LINE
8
BLACK
6
CONTINUOUS
10
5.36779
20
-4.26159
11
5.36851
21
-4.2652
0
LINE
8
BLACK
6
CONTINUOUS
10
5.36851
20
-4.2652
11
5.38854
21
-4.2652
0
LINE
8
BLACK
6
CONTINUOUS
10
5.38854
20
-4.2652
11
5.38854
21
-4.26337
0
LINE
8
BLACK
6
CONTINUOUS
10
5.38854
20
-4.26337
11
5.38813
21
-4.25928
0
LINE
8
BLACK
6
CONTINUOUS
10
5.38813
20
-4.25928
11
5.38813
21
-4.25928
0
LINE
8
BLACK
6
CONTINUOUS
10
5.38813
20
-4.25928
11
5.38593
21
-4.25266
0
LINE
8
BLACK
6
CONTINUOUS
10
5.38593
20
-4.25266
11
5.38227
21
-4.24672
0
LINE
8
BLACK
6
CONTINUOUS
10
5.38227
20
-4.24672
11
5.38227
21
-4.24672
0
LINE
8
BLACK
6
CONTINUOUS
10
5.38227
20
-4.24672
11
5.37734
21
-4.24179
0
LINE
8
BLACK
6
CONTINUOUS
10
5.37734
20
-4.24179
11
5.37734
21
-4.24179
0
LINE
8
BLACK
6
CONTINUOUS
10
5.37734
20
-4.24179
11
5.3714
21
-4.23812
0
LINE
8
BLACK
6
CONTINUOUS
10
5.3714
20
-4.23812
11
5.36478
21
-4.23593
0
LINE
8
BLACK
6
CONTINUOUS
10
5.36478
20
-4.23593
11
5.36478
21
-4.23593
0
LINE
8
BLACK
6
CONTINUOUS
10
5.36478
20
-4.23593
11
5.36118
21
-4.23556
0
LINE
8
BLACK
6
CONTINUOUS
10
5.36118
20
-4.23556
11
5.36
21
-4.23575
0
LINE
8
BLACK
6
CONTINUOUS
10
5.36
20
-4.23575
11
5.35851
21
-4.23551
0
LINE
8
BLACK
6
CONTINUOUS
10
5.35851
20
-4.23551
11
5.35
21
-4.23551
0
LINE
8
BLACK
6
CONTINUOUS
10
5.35
20
-4.23551
11
5.35
21
-4.25551
0
LINE
8
BLACK
6
CONTINUOUS
10
5.26
20
-4.25551
11
5.2687
21
-4.25551
0
LINE
8
BLACK
6
CONTINUOUS
10
5.2687
20
-4.25551
11
5.27247
21
-4.25626
0
LINE
8
BLACK
6
CONTINUOUS
10
5.27247
20
-4.25626
11
5.27566
21
-4.25839
0
LINE
8
BLACK
6
CONTINUOUS
10
5.27566
20
-4.25839
11
5.27779
21
-4.26159
0
LINE
8
BLACK
6
CONTINUOUS
10
5.27779
20
-4.26159
11
5.27851
21
-4.2652
0
LINE
8
BLACK
6
CONTINUOUS
10
5.27851
20
-4.2652
11
5.31149
21
-4.2652
0
LINE
8
BLACK
6
CONTINUOUS
10
5.31149
20
-4.2652
11
5.31221
21
-4.26159
0
LINE
8
BLACK
6
CONTINUOUS
10
5.31221
20
-4.26159
11
5.31434
21
-4.25839
0
LINE
8
BLACK
6
CONTINUOUS
10
5.31434
20
-4.25839
11
5.31753
21
-4.25626
0
LINE
8
BLACK
6
CONTINUOUS
10
5.31753
20
-4.25626
11
5.3213
21
-4.25551
0
LINE
8
BLACK
6
CONTINUOUS
10
5.3213
20
-4.25551
11
5.33
21
-4.25551
0
LINE
8
BLACK
6
CONTINUOUS
10
5.33
20
-4.25551
11
5.33
21
-4.23551
0
LINE
8
BLACK
6
CONTINUOUS
10
5.33
20
-4.23551
11
5.32149
21
-4.23551
0
LINE
8
BLACK
6
CONTINUOUS
10
5.32149
20
-4.23551
11
5.32
21
-4.23575
0
LINE
8
BLACK
6
CONTINUOUS
10
5.32
20
-4.23575
11
5.31882
21
-4.23556
0
LINE
8
BLACK
6
CONTINUOUS
10
5.31882
20
-4.23556
11
5.31522
21
-4.23593
0
LINE
8
BLACK
6
CONTINUOUS
10
5.31522
20
-4.23593
11
5.31522
21
-4.23593
0
LINE
8
BLACK
6
CONTINUOUS
10
5.31522
20
-4.23593
11
5.3086
21
-4.23812
0
LINE
8
BLACK
6
CONTINUOUS
10
5.3086
20
-4.23812
11
5.30266
21
-4.24179
0
LINE
8
BLACK
6
CONTINUOUS
10
5.30266
20
-4.24179
11
5.30266
21
-4.24179
0
LINE
8
BLACK
6
CONTINUOUS
10
5.30266
20
-4.24179
11
5.29851
21
-4.24594
0
LINE
8
BLACK
6
CONTINUOUS
10
5.29851
20
-4.24594
11
5.29605
21
-4.24728
0
LINE
8
BLACK
6
CONTINUOUS
10
5.29605
20
-4.24728
11
5.29327
21
-4.24708
0
LINE
8
BLACK
6
CONTINUOUS
10
5.29327
20
-4.24708
11
5.29149
21
-4.24594
0
LINE
8
BLACK
6
CONTINUOUS
10
5.29149
20
-4.24594
11
5.28734
21
-4.24179
0
LINE
8
BLACK
6
CONTINUOUS
10
5.28734
20
-4.24179
11
5.28734
21
-4.24179
0
LINE
8
BLACK
6
CONTINUOUS
10
5.28734
20
-4.24179
11
5.2814
21
-4.23812
0
LINE
8
BLACK
6
CONTINUOUS
10
5.2814
20
-4.23812
11
5.27478
21
-4.23593
0
LINE
8
BLACK
6
CONTINUOUS
10
5.27478
20
-4.23593
11
5.27478
21
-4.23593
0
LINE
8
BLACK
6
CONTINUOUS
10
5.27478
20
-4.23593
11
5.27069
21
-4.23551
0
LINE
8
BLACK
6
CONTINUOUS
10
5.27069
20
-4.23551
11
5.26
21
-4.23551
0
LINE
8
BLACK
6
CONTINUOUS
10
5.26
20
-4.23551
11
5.26
21
-4.25551
0
LINE
8
BLACK
6
CONTINUOUS
10
5.65374
20
-4.23023
11
5.65295
21
-4.23291
0
LINE
8
BLACK
6
CONTINUOUS
10
5.65295
20
-4.23291
11
5.65084
21
-4.23475
0
LINE
8
BLACK
6
CONTINUOUS
10
5.65084
20
-4.23475
11
5.64807
21
-4.23514
0
LINE
8
BLACK
6
CONTINUOUS
10
5.64807
20
-4.23514
11
5.64553
21
-4.23398
0
LINE
8
BLACK
6
CONTINUOUS
10
5.64553
20
-4.23398
11
5.64413
21
-4.23197
0
LINE
8
BLACK
6
CONTINUOUS
10
5.64413
20
-4.23197
11
5.64222
21
-4.22685
0
LINE
8
BLACK
6
CONTINUOUS
10
5.64222
20
-4.22685
11
5.63878
21
-4.22225
0
LINE
8
BLACK
6
CONTINUOUS
10
5.63878
20
-4.22225
11
5.63417
21
-4.2188
0
LINE
8
BLACK
6
CONTINUOUS
10
5.63417
20
-4.2188
11
5.62878
21
-4.21679
0
LINE
8
BLACK
6
CONTINUOUS
10
5.62878
20
-4.21679
11
5.6264
21
-4.21654
0
LINE
8
BLACK
6
CONTINUOUS
10
5.6264
20
-4.21654
11
5.6089
21
-4.21654
0
LINE
8
BLACK
6
CONTINUOUS
10
5.6089
20
-4.21654
11
5.6089
21
-4.23654
0
LINE
8
BLACK
6
CONTINUOUS
10
5.6089
20
-4.23654
11
5.62449
21
-4.23654
0
LINE
8
BLACK
6
CONTINUOUS
10
5.62449
20
-4.23654
11
5.62449
21
-4.26
0
LINE
8
BLACK
6
CONTINUOUS
10
5.62449
20
-4.26
11
5.64449
21
-4.26
0
LINE
8
BLACK
6
CONTINUOUS
10
5.64449
20
-4.26
11
5.64449
21
-4.25544
0
LINE
8
BLACK
6
CONTINUOUS
10
5.64449
20
-4.25544
11
5.64528
21
-4.25275
0
LINE
8
BLACK
6
CONTINUOUS
10
5.64528
20
-4.25275
11
5.64739
21
-4.25092
0
LINE
8
BLACK
6
CONTINUOUS
10
5.64739
20
-4.25092
11
5.65015
21
-4.25053
0
LINE
8
BLACK
6
CONTINUOUS
10
5.65015
20
-4.25053
11
5.6527
21
-4.25169
0
LINE
8
BLACK
6
CONTINUOUS
10
5.6527
20
-4.25169
11
5.65296
21
-4.25193
0
LINE
8
BLACK
6
CONTINUOUS
10
5.65296
20
-4.25193
11
5.65374
21
-4.25271
0
LINE
8
BLACK
6
CONTINUOUS
10
5.65374
20
-4.25271
11
5.65374
21
-4.25271
0
LINE
8
BLACK
6
CONTINUOUS
10
5.65374
20
-4.25271
11
5.94626
21
-4.25271
0
LINE
8
BLACK
6
CONTINUOUS
10
5.94626
20
-4.25271
11
5.94626
21
-4.14729
0
LINE
8
BLACK
6
CONTINUOUS
10
5.94626
20
-4.14729
11
5.65374
21
-4.14729
0
LINE
8
BLACK
6
CONTINUOUS
10
5.65374
20
-4.14729
11
5.65374
21
-4.23023
0
LINE
8
BLACK
6
CONTINUOUS
10
4.44706
20
-4.25371
11
4.83894
21
-4.25371
0
LINE
8
BLACK
6
CONTINUOUS
10
4.83894
20
-4.25371
11
4.83894
21
-4.14829
0
LINE
8
BLACK
6
CONTINUOUS
10
4.83894
20
-4.14829
11
4.44706
21
-4.14829
0
LINE
8
BLACK
6
CONTINUOUS
10
4.44706
20
-4.14829
11
4.44706
21
-4.25371
0
LINE
8
BLACK
6
CONTINUOUS
10
5.6
20
-4.04
11
5.58
21
-4.04
0
LINE
8
BLACK
6
CONTINUOUS
10
5.58
20
-4.04
11
5.58
21
-4.06
0
LINE
8
BLACK
6
CONTINUOUS
10
5.58
20
-4.06
11
5.60191
21
-4.06
0
LINE
8
BLACK
6
CONTINUOUS
10
5.60191
20
-4.06
11
5.60191
21
-4.06
0
LINE
8
BLACK
6
CONTINUOUS
10
5.60191
20
-4.06
11
5.60429
21
-4.05974
0
LINE
8
BLACK
6
CONTINUOUS
10
5.60429
20
-4.05974
11
5.60968
21
-4.05773
0
LINE
8
BLACK
6
CONTINUOUS
10
5.60968
20
-4.05773
11
5.60968
21
-4.05773
0
LINE
8
BLACK
6
CONTINUOUS
10
5.60968
20
-4.05773
11
5.61429
21
-4.05429
0
LINE
8
BLACK
6
CONTINUOUS
10
5.61429
20
-4.05429
11
5.61773
21
-4.04968
0
LINE
8
BLACK
6
CONTINUOUS
10
5.61773
20
-4.04968
11
5.61773
21
-4.04968
0
LINE
8
BLACK
6
CONTINUOUS
10
5.61773
20
-4.04968
11
5.61974
21
-4.04429
0
LINE
8
BLACK
6
CONTINUOUS
10
5.61974
20
-4.04429
11
5.62
21
-4.04191
0
LINE
8
BLACK
6
CONTINUOUS
10
5.62
20
-4.04191
11
5.62
21
-4.04191
0
LINE
8
BLACK
6
CONTINUOUS
10
5.62
20
-4.04191
11
5.62
21
-4.02
0
LINE
8
BLACK
6
CONTINUOUS
10
5.62
20
-4.02
11
5.6
21
-4.02
0
LINE
8
BLACK
6
CONTINUOUS
10
5.6
20
-4.02
11
5.6
21
-4.04
0
LINE
8
BLACK
6
CONTINUOUS
10
5.6
20
-3.94
11
5.58
21
-3.94
0
LINE
8
BLACK
6
CONTINUOUS
10
5.58
20
-3.94
11
5.58
21
-3.98
0
LINE
8
BLACK
6
CONTINUOUS
10
5.58
20
-3.98
11
5.6
21
-3.98
0
LINE
8
BLACK
6
CONTINUOUS
10
5.6
20
-3.98
11
5.6
21
-4
0
LINE
8
BLACK
6
CONTINUOUS
10
5.6
20
-4
11
5.62
21
-4
0
LINE
8
BLACK
6
CONTINUOUS
10
5.62
20
-4
11
5.62
21
-3.97809
0
LINE
8
BLACK
6
CONTINUOUS
10
5.62
20
-3.97809
11
5.62
21
-3.97809
0
LINE
8
BLACK
6
CONTINUOUS
10
5.62
20
-3.97809
11
5.61974
21
-3.9757
0
LINE
8
BLACK
6
CONTINUOUS
10
5.61974
20
-3.9757
11
5.61773
21
-3.97032
0
LINE
8
BLACK
6
CONTINUOUS
10
5.61773
20
-3.97032
11
5.61773
21
-3.97032
0
LINE
8
BLACK
6
CONTINUOUS
10
5.61773
20
-3.97032
11
5.61429
21
-3.96571
0
LINE
8
BLACK
6
CONTINUOUS
10
5.61429
20
-3.96571
11
5.61196
21
-3.96397
0
LINE
8
BLACK
6
CONTINUOUS
10
5.61196
20
-3.96397
11
5.61029
21
-3.96173
0
LINE
8
BLACK
6
CONTINUOUS
10
5.61029
20
-3.96173
11
5.61009
21
-3.95895
0
LINE
8
BLACK
6
CONTINUOUS
10
5.61009
20
-3.95895
11
5.61143
21
-3.95649
0
LINE
8
BLACK
6
CONTINUOUS
10
5.61143
20
-3.95649
11
5.61196
21
-3.95603
0
LINE
8
BLACK
6
CONTINUOUS
10
5.61196
20
-3.95603
11
5.61429
21
-3.95429
0
LINE
8
BLACK
6
CONTINUOUS
10
5.61429
20
-3.95429
11
5.61773
21
-3.94968
0
LINE
8
BLACK
6
CONTINUOUS
10
5.61773
20
-3.94968
11
5.61773
21
-3.94968
0
LINE
8
BLACK
6
CONTINUOUS
10
5.61773
20
-3.94968
11
5.61974
21
-3.94429
0
LINE
8
BLACK
6
CONTINUOUS
10
5.61974
20
-3.94429
11
5.62
21
-3.94191
0
LINE
8
BLACK
6
CONTINUOUS
10
5.62
20
-3.94191
11
5.62
21
-3.94191
0
LINE
8
BLACK
6
CONTINUOUS
10
5.62
20
-3.94191
11
5.62
21
-3.92
0
LINE
8
BLACK
6
CONTINUOUS
10
5.62
20
-3.92
11
5.6
21
-3.92
0
LINE
8
BLACK
6
CONTINUOUS
10
5.6
20
-3.92
11
5.6
21
-3.94
0
LINE
8
BLACK
6
CONTINUOUS
10
5.58
20
-3.88
11
5.6
21
-3.88
0
LINE
8
BLACK
6
CONTINUOUS
10
5.6
20
-3.88
11
5.6
21
-3.9
0
LINE
8
BLACK
6
CONTINUOUS
10
5.6
20
-3.9
11
5.62
21
-3.9
0
LINE
8
BLACK
6
CONTINUOUS
10
5.62
20
-3.9
11
5.62
21
-3.87809
0
LINE
8
BLACK
6
CONTINUOUS
10
5.62
20
-3.87809
11
5.62
21
-3.87809
0
LINE
8
BLACK
6
CONTINUOUS
10
5.62
20
-3.87809
11
5.61974
21
-3.8757
0
LINE
8
BLACK
6
CONTINUOUS
10
5.61974
20
-3.8757
11
5.61773
21
-3.87032
0
LINE
8
BLACK
6
CONTINUOUS
10
5.61773
20
-3.87032
11
5.61773
21
-3.87032
0
LINE
8
BLACK
6
CONTINUOUS
10
5.61773
20
-3.87032
11
5.61429
21
-3.86571
0
LINE
8
BLACK
6
CONTINUOUS
10
5.61429
20
-3.86571
11
5.60968
21
-3.86227
0
LINE
8
BLACK
6
CONTINUOUS
10
5.60968
20
-3.86227
11
5.60429
21
-3.86026
0
LINE
8
BLACK
6
CONTINUOUS
10
5.60429
20
-3.86026
11
5.60191
21
-3.86
0
LINE
8
BLACK
6
CONTINUOUS
10
5.60191
20
-3.86
11
5.58
21
-3.86
0
LINE
8
BLACK
6
CONTINUOUS
10
5.58
20
-3.86
11
5.58
21
-3.88
0
LINE
8
BLACK
6
CONTINUOUS
10
5.57331
20
-4.26
11
5.57331
21
-4.23654
0
LINE
8
BLACK
6
CONTINUOUS
10
5.57331
20
-4.23654
11
5.5889
21
-4.23654
0
LINE
8
BLACK
6
CONTINUOUS
10
5.5889
20
-4.23654
11
5.5889
21
-4.21654
0
LINE
8
BLACK
6
CONTINUOUS
10
5.5889
20
-4.21654
11
5.57139
21
-4.21654
0
LINE
8
BLACK
6
CONTINUOUS
10
5.57139
20
-4.21654
11
5.56901
21
-4.21679
0
LINE
8
BLACK
6
CONTINUOUS
10
5.56901
20
-4.21679
11
5.56362
21
-4.2188
0
LINE
8
BLACK
6
CONTINUOUS
10
5.56362
20
-4.2188
11
5.56362
21
-4.2188
0
LINE
8
BLACK
6
CONTINUOUS
10
5.56362
20
-4.2188
11
5.55902
21
-4.22225
0
LINE
8
BLACK
6
CONTINUOUS
10
5.55902
20
-4.22225
11
5.55557
21
-4.22685
0
LINE
8
BLACK
6
CONTINUOUS
10
5.55557
20
-4.22685
11
5.55557
21
-4.22685
0
LINE
8
BLACK
6
CONTINUOUS
10
5.55557
20
-4.22685
11
5.55356
21
-4.23224
0
LINE
8
BLACK
6
CONTINUOUS
10
5.55356
20
-4.23224
11
5.55331
21
-4.23462
0
LINE
8
BLACK
6
CONTINUOUS
10
5.55331
20
-4.23462
11
5.55331
21
-4.26
0
LINE
8
BLACK
6
CONTINUOUS
10
5.55331
20
-4.26
11
5.57331
21
-4.26
0
LINE
8
BLACK
6
CONTINUOUS
10
5.27247
20
-4.33106
11
5.27566
21
-4.3332
0
LINE
8
BLACK
6
CONTINUOUS
10
5.27566
20
-4.3332
11
5.27779
21
-4.33639
0
LINE
8
BLACK
6
CONTINUOUS
10
5.27779
20
-4.33639
11
5.27851
21
-4.34
0
LINE
8
BLACK
6
CONTINUOUS
10
5.27851
20
-4.34
11
5.31149
21
-4.34
0
LINE
8
BLACK
6
CONTINUOUS
10
5.31149
20
-4.34
11
5.31221
21
-4.33639
0
LINE
8
BLACK
6
CONTINUOUS
10
5.31221
20
-4.33639
11
5.31434
21
-4.3332
0
LINE
8
BLACK
6
CONTINUOUS
10
5.31434
20
-4.3332
11
5.31753
21
-4.33106
0
LINE
8
BLACK
6
CONTINUOUS
10
5.31753
20
-4.33106
11
5.3213
21
-4.33031
0
LINE
8
BLACK
6
CONTINUOUS
10
5.3213
20
-4.33031
11
5.3587
21
-4.33031
0
LINE
8
BLACK
6
CONTINUOUS
10
5.3587
20
-4.33031
11
5.36247
21
-4.33106
0
LINE
8
BLACK
6
CONTINUOUS
10
5.36247
20
-4.33106
11
5.36566
21
-4.3332
0
LINE
8
BLACK
6
CONTINUOUS
10
5.36566
20
-4.3332
11
5.36779
21
-4.33639
0
LINE
8
BLACK
6
CONTINUOUS
10
5.36779
20
-4.33639
11
5.36854
21
-4.34016
0
LINE
8
BLACK
6
CONTINUOUS
10
5.36854
20
-4.34016
11
5.36854
21
-4.35984
0
LINE
8
BLACK
6
CONTINUOUS
10
5.36854
20
-4.35984
11
5.36779
21
-4.36361
0
LINE
8
BLACK
6
CONTINUOUS
10
5.36779
20
-4.36361
11
5.36566
21
-4.3668
0
LINE
8
BLACK
6
CONTINUOUS
10
5.36566
20
-4.3668
11
5.36247
21
-4.36894
0
LINE
8
BLACK
6
CONTINUOUS
10
5.36247
20
-4.36894
11
5.3587
21
-4.36969
0
LINE
8
BLACK
6
CONTINUOUS
10
5.3587
20
-4.36969
11
5.3213
21
-4.36969
0
LINE
8
BLACK
6
CONTINUOUS
10
5.3213
20
-4.36969
11
5.31753
21
-4.36894
0
LINE
8
BLACK
6
CONTINUOUS
10
5.31753
20
-4.36894
11
5.31434
21
-4.3668
0
LINE
8
BLACK
6
CONTINUOUS
10
5.31434
20
-4.3668
11
5.31221
21
-4.36361
0
LINE
8
BLACK
6
CONTINUOUS
10
5.31221
20
-4.36361
11
5.31149
21
-4.36
0
LINE
8
BLACK
6
CONTINUOUS
10
5.31149
20
-4.36
11
5.27851
21
-4.36
0
LINE
8
BLACK
6
CONTINUOUS
10
5.27851
20
-4.36
11
5.27779
21
-4.36361
0
LINE
8
BLACK
6
CONTINUOUS
10
5.27779
20
-4.36361
11
5.27566
21
-4.3668
0
LINE
8
BLACK
6
CONTINUOUS
10
5.27566
20
-4.3668
11
5.27247
21
-4.36894
0
LINE
8
BLACK
6
CONTINUOUS
10
5.27247
20
-4.36894
11
5.2687
21
-4.36969
0
LINE
8
BLACK
6
CONTINUOUS
10
5.2687
20
-4.36969
11
5.26118
21
-4.36969
0
LINE
8
BLACK
6
CONTINUOUS
10
5.26118
20
-4.36969
11
5.26118
21
-4.44342
0
LINE
8
BLACK
6
CONTINUOUS
10
5.26118
20
-4.44342
11
5.26407
21
-4.44528
0
LINE
8
BLACK
6
CONTINUOUS
10
5.26407
20
-4.44528
11
5.26774
21
-4.44951
0
LINE
8
BLACK
6
CONTINUOUS
10
5.26774
20
-4.44951
11
5.27007
21
-4.45461
0
LINE
8
BLACK
6
CONTINUOUS
10
5.27007
20
-4.45461
11
5.27084
21
-4.46
0
LINE
8
BLACK
6
CONTINUOUS
10
5.27084
20
-4.46
11
5.308
21
-4.46
0
LINE
8
BLACK
6
CONTINUOUS
10
5.308
20
-4.46
11
5.31074
21
-4.45726
0
LINE
8
BLACK
6
CONTINUOUS
10
5.31074
20
-4.45726
11
5.31513
21
-4.45502
0
LINE
8
BLACK
6
CONTINUOUS
10
5.31513
20
-4.45502
11
5.32
21
-4.45425
0
LINE
8
BLACK
6
CONTINUOUS
10
5.32
20
-4.45425
11
5.32487
21
-4.45502
0
LINE
8
BLACK
6
CONTINUOUS
10
5.32487
20
-4.45502
11
5.32926
21
-4.45726
0
LINE
8
BLACK
6
CONTINUOUS
10
5.32926
20
-4.45726
11
5.33274
21
-4.46074
0
LINE
8
BLACK
6
CONTINUOUS
10
5.33274
20
-4.46074
11
5.33498
21
-4.46513
0
LINE
8
BLACK
6
CONTINUOUS
10
5.33498
20
-4.46513
11
5.33575
21
-4.47
0
LINE
8
BLACK
6
CONTINUOUS
10
5.33575
20
-4.47
11
5.33498
21
-4.47487
0
LINE
8
BLACK
6
CONTINUOUS
10
5.33498
20
-4.47487
11
5.33274
21
-4.47926
0
LINE
8
BLACK
6
CONTINUOUS
10
5.33274
20
-4.47926
11
5.32926
21
-4.48274
0
LINE
8
BLACK
6
CONTINUOUS
10
5.32926
20
-4.48274
11
5.32487
21
-4.48498
0
LINE
8
BLACK
6
CONTINUOUS
10
5.32487
20
-4.48498
11
5.32
21
-4.48575
0
LINE
8
BLACK
6
CONTINUOUS
10
5.32
20
-4.48575
11
5.31513
21
-4.48498
0
LINE
8
BLACK
6
CONTINUOUS
10
5.31513
20
-4.48498
11
5.31074
21
-4.48274
0
LINE
8
BLACK
6
CONTINUOUS
10
5.31074
20
-4.48274
11
5.308
21
-4.48
0
LINE
8
BLACK
6
CONTINUOUS
10
5.308
20
-4.48
11
5.27084
21
-4.48
0
LINE
8
BLACK
6
CONTINUOUS
10
5.27084
20
-4.48
11
5.27007
21
-4.48539
0
LINE
8
BLACK
6
CONTINUOUS
10
5.27007
20
-4.48539
11
5.26774
21
-4.49049
0
LINE
8
BLACK
6
CONTINUOUS
10
5.26774
20
-4.49049
11
5.26407
21
-4.49472
0
LINE
8
BLACK
6
CONTINUOUS
10
5.26407
20
-4.49472
11
5.25936
21
-4.49775
0
LINE
8
BLACK
6
CONTINUOUS
10
5.25936
20
-4.49775
11
5.25398
21
-4.49933
0
LINE
8
BLACK
6
CONTINUOUS
10
5.25398
20
-4.49933
11
5.25118
21
-4.49933
0
LINE
8
BLACK
6
CONTINUOUS
10
5.25118
20
-4.49933
11
5.25118
21
-4.49953
0
LINE
8
BLACK
6
CONTINUOUS
10
5.25118
20
-4.49953
11
5.22953
21
-4.49953
0
LINE
8
BLACK
6
CONTINUOUS
10
5.22953
20
-4.49953
11
5.22953
21
-4.48181
0
LINE
8
BLACK
6
CONTINUOUS
10
5.22953
20
-4.48181
11
5.21969
21
-4.48181
0
LINE
8
BLACK
6
CONTINUOUS
10
5.21969
20
-4.48181
11
5.21969
21
-4.49953
0
LINE
8
BLACK
6
CONTINUOUS
10
5.21969
20
-4.49953
11
5.18031
21
-4.49953
0
LINE
8
BLACK
6
CONTINUOUS
10
5.18031
20
-4.49953
11
5.18031
21
-4.44047
0
LINE
8
BLACK
6
CONTINUOUS
10
5.18031
20
-4.44047
11
5.19213
21
-4.44047
0
LINE
8
BLACK
6
CONTINUOUS
10
5.19213
20
-4.44047
11
5.19213
21
-4.44
0
LINE
8
BLACK
6
CONTINUOUS
10
5.19213
20
-4.44
11
5.19213
21
-4.43326
0
LINE
8
BLACK
6
CONTINUOUS
10
5.19213
20
-4.43326
11
5.17674
21
-4.41787
0
LINE
8
BLACK
6
CONTINUOUS
10
5.17674
20
-4.41787
11
5.15
21
-4.41787
0
LINE
8
BLACK
6
CONTINUOUS
10
5.15
20
-4.41787
11
5.14871
21
-4.41758
0
LINE
8
BLACK
6
CONTINUOUS
10
5.14871
20
-4.41758
11
5.1474
21
-4.41743
0
LINE
8
BLACK
6
CONTINUOUS
10
5.1474
20
-4.41743
11
5.14702
21
-4.41719
0
LINE
8
BLACK
6
CONTINUOUS
10
5.14702
20
-4.41719
11
5.14658
21
-4.41709
0
LINE
8
BLACK
6
CONTINUOUS
10
5.14658
20
-4.41709
11
5.14555
21
-4.41627
0
LINE
8
BLACK
6
CONTINUOUS
10
5.14555
20
-4.41627
11
5.14443
21
-4.41557
0
LINE
8
BLACK
6
CONTINUOUS
10
5.14443
20
-4.41557
11
5.11904
21
-4.39017
0
LINE
8
BLACK
6
CONTINUOUS
10
5.11904
20
-4.39017
11
5.11834
21
-4.38906
0
LINE
8
BLACK
6
CONTINUOUS
10
5.11834
20
-4.38906
11
5.11751
21
-4.38802
0
LINE
8
BLACK
6
CONTINUOUS
10
5.11751
20
-4.38802
11
5.11741
21
-4.38759
0
LINE
8
BLACK
6
CONTINUOUS
10
5.11741
20
-4.38759
11
5.11717
21
-4.38721
0
LINE
8
BLACK
6
CONTINUOUS
10
5.11717
20
-4.38721
11
5.11703
21
-4.38589
0
LINE
8
BLACK
6
CONTINUOUS
10
5.11703
20
-4.38589
11
5.11673
21
-4.38461
0
LINE
8
BLACK
6
CONTINUOUS
10
5.11673
20
-4.38461
11
5.11673
21
-4.37496
0
LINE
8
BLACK
6
CONTINUOUS
10
5.11673
20
-4.37496
11
5.1128
21
-4.37496
0
LINE
8
BLACK
6
CONTINUOUS
10
5.1128
20
-4.37496
11
5.1128
21
-4.33165
0
LINE
8
BLACK
6
CONTINUOUS
10
5.1128
20
-4.33165
11
5.13642
21
-4.33165
0
LINE
8
BLACK
6
CONTINUOUS
10
5.13642
20
-4.33165
11
5.13642
21
-4.37496
0
LINE
8
BLACK
6
CONTINUOUS
10
5.13642
20
-4.37496
11
5.13248
21
-4.37496
0
LINE
8
BLACK
6
CONTINUOUS
10
5.13248
20
-4.37496
11
5.13248
21
-4.38134
0
LINE
8
BLACK
6
CONTINUOUS
10
5.13248
20
-4.38134
11
5.15326
21
-4.40213
0
LINE
8
BLACK
6
CONTINUOUS
10
5.15326
20
-4.40213
11
5.18
21
-4.40213
0
LINE
8
BLACK
6
CONTINUOUS
10
5.18
20
-4.40213
11
5.18129
21
-4.40242
0
LINE
8
BLACK
6
CONTINUOUS
10
5.18129
20
-4.40242
11
5.1826
21
-4.40257
0
LINE
8
BLACK
6
CONTINUOUS
10
5.1826
20
-4.40257
11
5.18298
21
-4.40281
0
LINE
8
BLACK
6
CONTINUOUS
10
5.18298
20
-4.40281
11
5.18342
21
-4.40291
0
LINE
8
BLACK
6
CONTINUOUS
10
5.18342
20
-4.40291
11
5.18445
21
-4.40373
0
LINE
8
BLACK
6
CONTINUOUS
10
5.18445
20
-4.40373
11
5.18557
21
-4.40443
0
LINE
8
BLACK
6
CONTINUOUS
10
5.18557
20
-4.40443
11
5.20557
21
-4.42443
0
LINE
8
BLACK
6
CONTINUOUS
10
5.20557
20
-4.42443
11
5.20627
21
-4.42555
0
LINE
8
BLACK
6
CONTINUOUS
10
5.20627
20
-4.42555
11
5.20709
21
-4.42658
0
LINE
8
BLACK
6
CONTINUOUS
10
5.20709
20
-4.42658
11
5.20719
21
-4.42702
0
LINE
8
BLACK
6
CONTINUOUS
10
5.20719
20
-4.42702
11
5.20743
21
-4.4274
0
LINE
8
BLACK
6
CONTINUOUS
10
5.20743
20
-4.4274
11
5.20758
21
-4.42871
0
LINE
8
BLACK
6
CONTINUOUS
10
5.20758
20
-4.42871
11
5.20787
21
-4.43
0
LINE
8
BLACK
6
CONTINUOUS
10
5.20787
20
-4.43
11
5.20787
21
-4.44
0
LINE
8
BLACK
6
CONTINUOUS
10
5.20787
20
-4.44
11
5.20787
21
-4.44047
0
LINE
8
BLACK
6
CONTINUOUS
10
5.20787
20
-4.44047
11
5.21969
21
-4.44047
0
LINE
8
BLACK
6
CONTINUOUS
10
5.21969
20
-4.44047
11
5.21969
21
-4.45819
0
LINE
8
BLACK
6
CONTINUOUS
10
5.21969
20
-4.45819
11
5.22953
21
-4.45819
0
LINE
8
BLACK
6
CONTINUOUS
10
5.22953
20
-4.45819
11
5.22953
21
-4.44047
0
LINE
8
BLACK
6
CONTINUOUS
10
5.22953
20
-4.44047
11
5.24118
21
-4.44047
0
LINE
8
BLACK
6
CONTINUOUS
10
5.24118
20
-4.44047
11
5.24118
21
-4.36977
0
LINE
8
BLACK
6
CONTINUOUS
10
5.24118
20
-4.36977
11
5.24
21
-4.37
0
LINE
8
BLACK
6
CONTINUOUS
10
5.24
20
-4.37
11
5.23842
21
-4.36969
0
LINE
8
BLACK
6
CONTINUOUS
10
5.23842
20
-4.36969
11
5.2313
21
-4.36969
0
LINE
8
BLACK
6
CONTINUOUS
10
5.2313
20
-4.36969
11
5.22753
21
-4.36894
0
LINE
8
BLACK
6
CONTINUOUS
10
5.22753
20
-4.36894
11
5.22434
21
-4.3668
0
LINE
8
BLACK
6
CONTINUOUS
10
5.22434
20
-4.3668
11
5.22221
21
-4.36361
0
LINE
8
BLACK
6
CONTINUOUS
10
5.22221
20
-4.36361
11
5.22149
21
-4.36
0
LINE
8
BLACK
6
CONTINUOUS
10
5.22149
20
-4.36
11
5.18563
21
-4.36
0
LINE
8
BLACK
6
CONTINUOUS
10
5.18563
20
-4.36
11
5.18563
21
-4.37496
0
LINE
8
BLACK
6
CONTINUOUS
10
5.18563
20
-4.37496
11
5.16201
21
-4.37496
0
LINE
8
BLACK
6
CONTINUOUS
10
5.16201
20
-4.37496
11
5.16201
21
-4.33165
0
LINE
8
BLACK
6
CONTINUOUS
10
5.16201
20
-4.33165
11
5.18563
21
-4.33165
0
LINE
8
BLACK
6
CONTINUOUS
10
5.18563
20
-4.33165
11
5.18563
21
-4.34
0
LINE
8
BLACK
6
CONTINUOUS
10
5.18563
20
-4.34
11
5.22149
21
-4.34
0
LINE
8
BLACK
6
CONTINUOUS
10
5.22149
20
-4.34
11
5.22221
21
-4.33639
0
LINE
8
BLACK
6
CONTINUOUS
10
5.22221
20
-4.33639
11
5.22434
21
-4.3332
0
LINE
8
BLACK
6
CONTINUOUS
10
5.22434
20
-4.3332
11
5.22753
21
-4.33106
0
LINE
8
BLACK
6
CONTINUOUS
10
5.22753
20
-4.33106
11
5.2313
21
-4.33031
0
LINE
8
BLACK
6
CONTINUOUS
10
5.2313
20
-4.33031
11
5.2687
21
-4.33031
0
LINE
8
BLACK
6
CONTINUOUS
10
5.2687
20
-4.33031
11
5.27247
21
-4.33106
0
LINE
8
BLACK
6
CONTINUOUS
10
5.03799
20
-4.37496
11
5.03406
21
-4.37496
0
LINE
8
BLACK
6
CONTINUOUS
10
5.03406
20
-4.37496
11
5.03406
21
-4.39382
0
LINE
8
BLACK
6
CONTINUOUS
10
5.03406
20
-4.39382
11
5.03376
21
-4.39511
0
LINE
8
BLACK
6
CONTINUOUS
10
5.03376
20
-4.39511
11
5.03361
21
-4.39642
0
LINE
8
BLACK
6
CONTINUOUS
10
5.03361
20
-4.39642
11
5.03337
21
-4.3968
0
LINE
8
BLACK
6
CONTINUOUS
10
5.03337
20
-4.3968
11
5.03328
21
-4.39724
0
LINE
8
BLACK
6
CONTINUOUS
10
5.03328
20
-4.39724
11
5.03245
21
-4.39827
0
LINE
8
BLACK
6
CONTINUOUS
10
5.03245
20
-4.39827
11
5.03175
21
-4.39939
0
LINE
8
BLACK
6
CONTINUOUS
10
5.03175
20
-4.39939
11
5.02512
21
-4.40602
0
LINE
8
BLACK
6
CONTINUOUS
10
5.02512
20
-4.40602
11
5.02575
21
-4.41
0
LINE
8
BLACK
6
CONTINUOUS
10
5.02575
20
-4.41
11
5.02498
21
-4.41487
0
LINE
8
BLACK
6
CONTINUOUS
10
5.02498
20
-4.41487
11
5.02274
21
-4.41926
0
LINE
8
BLACK
6
CONTINUOUS
10
5.02274
20
-4.41926
11
5.01926
21
-4.42274
0
LINE
8
BLACK
6
CONTINUOUS
10
5.01926
20
-4.42274
11
5.01487
21
-4.42498
0
LINE
8
BLACK
6
CONTINUOUS
10
5.01487
20
-4.42498
11
5.01
21
-4.42575
0
LINE
8
BLACK
6
CONTINUOUS
10
5.01
20
-4.42575
11
5.00513
21
-4.42498
0
LINE
8
BLACK
6
CONTINUOUS
10
5.00513
20
-4.42498
11
5.00074
21
-4.42274
0
LINE
8
BLACK
6
CONTINUOUS
10
5.00074
20
-4.42274
11
4.99726
21
-4.41926
0
LINE
8
BLACK
6
CONTINUOUS
10
4.99726
20
-4.41926
11
4.99502
21
-4.41487
0
LINE
8
BLACK
6
CONTINUOUS
10
4.99502
20
-4.41487
11
4.99425
21
-4.41
0
LINE
8
BLACK
6
CONTINUOUS
10
4.99425
20
-4.41
11
4.99502
21
-4.40513
0
LINE
8
BLACK
6
CONTINUOUS
10
4.99502
20
-4.40513
11
4.99726
21
-4.40074
0
LINE
8
BLACK
6
CONTINUOUS
10
4.99726
20
-4.40074
11
5.00074
21
-4.39726
0
LINE
8
BLACK
6
CONTINUOUS
10
5.00074
20
-4.39726
11
5.00513
21
-4.39502
0
LINE
8
BLACK
6
CONTINUOUS
10
5.00513
20
-4.39502
11
5.01
21
-4.39425
0
LINE
8
BLACK
6
CONTINUOUS
10
5.01
20
-4.39425
11
5.01398
21
-4.39488
0
LINE
8
BLACK
6
CONTINUOUS
10
5.01398
20
-4.39488
11
5.01831
21
-4.39056
0
LINE
8
BLACK
6
CONTINUOUS
10
5.01831
20
-4.39056
11
5.01831
21
-4.37496
0
LINE
8
BLACK
6
CONTINUOUS
10
5.01831
20
-4.37496
11
5.01437
21
-4.37496
0
LINE
8
BLACK
6
CONTINUOUS
10
5.01437
20
-4.37496
11
5.01437
21
-4.33165
0
LINE
8
BLACK
6
CONTINUOUS
10
5.01437
20
-4.33165
11
5.03799
21
-4.33165
0
LINE
8
BLACK
6
CONTINUOUS
10
5.03799
20
-4.33165
11
5.03799
21
-4.37496
0
LINE
8
BLACK
6
CONTINUOUS
10
5.5
20
-3.94
11
5.47787
21
-3.94
0
LINE
8
BLACK
6
CONTINUOUS
10
5.47787
20
-3.94
11
5.47787
21
-3.98
0
LINE
8
BLACK
6
CONTINUOUS
10
5.47787
20
-3.98
11
5.5
21
-3.98
0
LINE
8
BLACK
6
CONTINUOUS
10
5.5
20
-3.98
11
5.5
21
-4.04
0
LINE
8
BLACK
6
CONTINUOUS
10
5.5
20
-4.04
11
5.47787
21
-4.04
0
LINE
8
BLACK
6
CONTINUOUS
10
5.47787
20
-4.04
11
5.47787
21
-4.08244
0
LINE
8
BLACK
6
CONTINUOUS
10
5.47787
20
-4.08244
11
5.49626
21
-4.08244
0
LINE
8
BLACK
6
CONTINUOUS
10
5.49626
20
-4.08244
11
5.50003
21
-4.08319
0
LINE
8
BLACK
6
CONTINUOUS
10
5.50003
20
-4.08319
11
5.50322
21
-4.08532
0
LINE
8
BLACK
6
CONTINUOUS
10
5.50322
20
-4.08532
11
5.50535
21
-4.08852
0
LINE
8
BLACK
6
CONTINUOUS
10
5.50535
20
-4.08852
11
5.5061
21
-4.09228
0
LINE
8
BLACK
6
CONTINUOUS
10
5.5061
20
-4.09228
11
5.5061
21
-4.12772
0
LINE
8
BLACK
6
CONTINUOUS
10
5.5061
20
-4.12772
11
5.50535
21
-4.13148
0
LINE
8
BLACK
6
CONTINUOUS
10
5.50535
20
-4.13148
11
5.50322
21
-4.13468
0
LINE
8
BLACK
6
CONTINUOUS
10
5.50322
20
-4.13468
11
5.50003
21
-4.13681
0
LINE
8
BLACK
6
CONTINUOUS
10
5.50003
20
-4.13681
11
5.49626
21
-4.13756
0
LINE
8
BLACK
6
CONTINUOUS
10
5.49626
20
-4.13756
11
5.4938
21
-4.13756
0
LINE
8
BLACK
6
CONTINUOUS
10
5.4938
20
-4.13756
11
5.4938
21
-4.14407
0
LINE
8
BLACK
6
CONTINUOUS
10
5.4938
20
-4.14407
11
5.49351
21
-4.14536
0
LINE
8
BLACK
6
CONTINUOUS
10
5.49351
20
-4.14536
11
5.49336
21
-4.14668
0
LINE
8
BLACK
6
CONTINUOUS
10
5.49336
20
-4.14668
11
5.49312
21
-4.14705
0
LINE
8
BLACK
6
CONTINUOUS
10
5.49312
20
-4.14705
11
5.49302
21
-4.14749
0
LINE
8
BLACK
6
CONTINUOUS
10
5.49302
20
-4.14749
11
5.4922
21
-4.14852
0
LINE
8
BLACK
6
CONTINUOUS
10
5.4922
20
-4.14852
11
5.49149
21
-4.14964
0
LINE
8
BLACK
6
CONTINUOUS
10
5.49149
20
-4.14964
11
5.46557
21
-4.17557
0
LINE
8
BLACK
6
CONTINUOUS
10
5.46557
20
-4.17557
11
5.46445
21
-4.17627
0
LINE
8
BLACK
6
CONTINUOUS
10
5.46445
20
-4.17627
11
5.46342
21
-4.17709
0
LINE
8
BLACK
6
CONTINUOUS
10
5.46342
20
-4.17709
11
5.46298
21
-4.17719
0
LINE
8
BLACK
6
CONTINUOUS
10
5.46298
20
-4.17719
11
5.4626
21
-4.17743
0
LINE
8
BLACK
6
CONTINUOUS
10
5.4626
20
-4.17743
11
5.46129
21
-4.17758
0
LINE
8
BLACK
6
CONTINUOUS
10
5.46129
20
-4.17758
11
5.46
21
-4.17787
0
LINE
8
BLACK
6
CONTINUOUS
10
5.46
20
-4.17787
11
5.22326
21
-4.17787
0
LINE
8
BLACK
6
CONTINUOUS
10
5.22326
20
-4.17787
11
5.18169
21
-4.21944
0
LINE
8
BLACK
6
CONTINUOUS
10
5.18169
20
-4.21944
11
5.18169
21
-4.24504
0
LINE
8
BLACK
6
CONTINUOUS
10
5.18169
20
-4.24504
11
5.18563
21
-4.24504
0
LINE
8
BLACK
6
CONTINUOUS
10
5.18563
20
-4.24504
11
5.18563
21
-4.28835
0
LINE
8
BLACK
6
CONTINUOUS
10
5.18563
20
-4.28835
11
5.17314
21
-4.28835
0
LINE
8
BLACK
6
CONTINUOUS
10
5.17314
20
-4.28835
11
5.14592
21
-4.31557
0
LINE
8
BLACK
6
CONTINUOUS
10
5.14592
20
-4.31557
11
5.1448
21
-4.31627
0
LINE
8
BLACK
6
CONTINUOUS
10
5.1448
20
-4.31627
11
5.14377
21
-4.31709
0
LINE
8
BLACK
6
CONTINUOUS
10
5.14377
20
-4.31709
11
5.14333
21
-4.31719
0
LINE
8
BLACK
6
CONTINUOUS
10
5.14333
20
-4.31719
11
5.14295
21
-4.31743
0
LINE
8
BLACK
6
CONTINUOUS
10
5.14295
20
-4.31743
11
5.14164
21
-4.31758
0
LINE
8
BLACK
6
CONTINUOUS
10
5.14164
20
-4.31758
11
5.14035
21
-4.31787
0
LINE
8
BLACK
6
CONTINUOUS
10
5.14035
20
-4.31787
11
4.97
21
-4.31787
0
LINE
8
BLACK
6
CONTINUOUS
10
4.97
20
-4.31787
11
4.96871
21
-4.31758
0
LINE
8
BLACK
6
CONTINUOUS
10
4.96871
20
-4.31758
11
4.9674
21
-4.31743
0
LINE
8
BLACK
6
CONTINUOUS
10
4.9674
20
-4.31743
11
4.96702
21
-4.31719
0
LINE
8
BLACK
6
CONTINUOUS
10
4.96702
20
-4.31719
11
4.96658
21
-4.31709
0
LINE
8
BLACK
6
CONTINUOUS
10
4.96658
20
-4.31709
11
4.96555
21
-4.31627
0
LINE
8
BLACK
6
CONTINUOUS
10
4.96555
20
-4.31627
11
4.96443
21
-4.31557
0
LINE
8
BLACK
6
CONTINUOUS
10
4.96443
20
-4.31557
11
4.92443
21
-4.27557
0
LINE
8
BLACK
6
CONTINUOUS
10
4.92443
20
-4.27557
11
4.92373
21
-4.27445
0
LINE
8
BLACK
6
CONTINUOUS
10
4.92373
20
-4.27445
11
4.92291
21
-4.27342
0
LINE
8
BLACK
6
CONTINUOUS
10
4.92291
20
-4.27342
11
4.92281
21
-4.27298
0
LINE
8
BLACK
6
CONTINUOUS
10
4.92281
20
-4.27298
11
4.92257
21
-4.2726
0
LINE
8
BLACK
6
CONTINUOUS
10
4.92257
20
-4.2726
11
4.92242
21
-4.27129
0
LINE
8
BLACK
6
CONTINUOUS
10
4.92242
20
-4.27129
11
4.92213
21
-4.27
0
LINE
8
BLACK
6
CONTINUOUS
10
4.92213
20
-4.27
11
4.92213
21
-4.04
0
LINE
8
BLACK
6
CONTINUOUS
10
4.92213
20
-4.04
11
4.9
21
-4.04
0
LINE
8
BLACK
6
CONTINUOUS
10
4.9
20
-4.04
11
4.9
21
-3.98
0
LINE
8
BLACK
6
CONTINUOUS
10
4.9
20
-3.98
11
4.96
21
-3.98
0
LINE
8
BLACK
6
CONTINUOUS
10
4.96
20
-3.98
11
4.96
21
-4.04
0
LINE
8
BLACK
6
CONTINUOUS
10
4.96
20
-4.04
11
4.93787
21
-4.04
0
LINE
8
BLACK
6
CONTINUOUS
10
4.93787
20
-4.04
11
4.93787
21
-4.26674
0
LINE
8
BLACK
6
CONTINUOUS
10
4.93787
20
-4.26674
11
4.97326
21
-4.30213
0
LINE
8
BLACK
6
CONTINUOUS
10
4.97326
20
-4.30213
11
5.13709
21
-4.30213
0
LINE
8
BLACK
6
CONTINUOUS
10
5.13709
20
-4.30213
11
5.16201
21
-4.27721
0
LINE
8
BLACK
6
CONTINUOUS
10
5.16201
20
-4.27721
11
5.16201
21
-4.24504
0
LINE
8
BLACK
6
CONTINUOUS
10
5.16201
20
-4.24504
11
5.16594
21
-4.24504
0
LINE
8
BLACK
6
CONTINUOUS
10
5.16594
20
-4.24504
11
5.16594
21
-4.21618
0
LINE
8
BLACK
6
CONTINUOUS
10
5.16594
20
-4.21618
11
5.16624
21
-4.21489
0
LINE
8
BLACK
6
CONTINUOUS
10
5.16624
20
-4.21489
11
5.16639
21
-4.21358
0
LINE
8
BLACK
6
CONTINUOUS
10
5.16639
20
-4.21358
11
5.16662
21
-4.2132
0
LINE
8
BLACK
6
CONTINUOUS
10
5.16662
20
-4.2132
11
5.16672
21
-4.21276
0
LINE
8
BLACK
6
CONTINUOUS
10
5.16672
20
-4.21276
11
5.16755
21
-4.21173
0
LINE
8
BLACK
6
CONTINUOUS
10
5.16755
20
-4.21173
11
5.16825
21
-4.21061
0
LINE
8
BLACK
6
CONTINUOUS
10
5.16825
20
-4.21061
11
5.21443
21
-4.16443
0
LINE
8
BLACK
6
CONTINUOUS
10
5.21443
20
-4.16443
11
5.21555
21
-4.16373
0
LINE
8
BLACK
6
CONTINUOUS
10
5.21555
20
-4.16373
11
5.21658
21
-4.16291
0
LINE
8
BLACK
6
CONTINUOUS
10
5.21658
20
-4.16291
11
5.21702
21
-4.16281
0
LINE
8
BLACK
6
CONTINUOUS
10
5.21702
20
-4.16281
11
5.2174
21
-4.16257
0
LINE
8
BLACK
6
CONTINUOUS
10
5.2174
20
-4.16257
11
5.21871
21
-4.16242
0
LINE
8
BLACK
6
CONTINUOUS
10
5.21871
20
-4.16242
11
5.22
21
-4.16213
0
LINE
8
BLACK
6
CONTINUOUS
10
5.22
20
-4.16213
11
5.45674
21
-4.16213
0
LINE
8
BLACK
6
CONTINUOUS
10
5.45674
20
-4.16213
11
5.47805
21
-4.14081
0
LINE
8
BLACK
6
CONTINUOUS
10
5.47805
20
-4.14081
11
5.47805
21
-4.13756
0
LINE
8
BLACK
6
CONTINUOUS
10
5.47805
20
-4.13756
11
5.47559
21
-4.13756
0
LINE
8
BLACK
6
CONTINUOUS
10
5.47559
20
-4.13756
11
5.47182
21
-4.13681
0
LINE
8
BLACK
6
CONTINUOUS
10
5.47182
20
-4.13681
11
5.46863
21
-4.13468
0
LINE
8
BLACK
6
CONTINUOUS
10
5.46863
20
-4.13468
11
5.4665
21
-4.13148
0
LINE
8
BLACK
6
CONTINUOUS
10
5.4665
20
-4.13148
11
5.46575
21
-4.12772
0
LINE
8
BLACK
6
CONTINUOUS
10
5.46575
20
-4.12772
11
5.46575
21
-4.10096
0
LINE
8
BLACK
6
CONTINUOUS
10
5.46575
20
-4.10096
11
5.46443
21
-4.09964
0
LINE
8
BLACK
6
CONTINUOUS
10
5.46443
20
-4.09964
11
5.46373
21
-4.09852
0
LINE
8
BLACK
6
CONTINUOUS
10
5.46373
20
-4.09852
11
5.46291
21
-4.09749
0
LINE
8
BLACK
6
CONTINUOUS
10
5.46291
20
-4.09749
11
5.46281
21
-4.09705
0
LINE
8
BLACK
6
CONTINUOUS
10
5.46281
20
-4.09705
11
5.46257
21
-4.09668
0
LINE
8
BLACK
6
CONTINUOUS
10
5.46257
20
-4.09668
11
5.46242
21
-4.09536
0
LINE
8
BLACK
6
CONTINUOUS
10
5.46242
20
-4.09536
11
5.46213
21
-4.09407
0
LINE
8
BLACK
6
CONTINUOUS
10
5.46213
20
-4.09407
11
5.46213
21
-4.04
0
LINE
8
BLACK
6
CONTINUOUS
10
5.46213
20
-4.04
11
5.44
21
-4.04
0
LINE
8
BLACK
6
CONTINUOUS
10
5.44
20
-4.04
11
5.44
21
-3.98
0
LINE
8
BLACK
6
CONTINUOUS
10
5.44
20
-3.98
11
5.46213
21
-3.98
0
LINE
8
BLACK
6
CONTINUOUS
10
5.46213
20
-3.98
11
5.46213
21
-3.94
0
LINE
8
BLACK
6
CONTINUOUS
10
5.46213
20
-3.94
11
5.44
21
-3.94
0
LINE
8
BLACK
6
CONTINUOUS
10
5.44
20
-3.94
11
5.44
21
-3.88
0
LINE
8
BLACK
6
CONTINUOUS
10
5.44
20
-3.88
11
5.5
21
-3.88
0
LINE
8
BLACK
6
CONTINUOUS
10
5.5
20
-3.88
11
5.5
21
-3.94
0
LINE
8
BLACK
6
CONTINUOUS
10
5.46487
20
-4.1865
11
5.46926
21
-4.18874
0
LINE
8
BLACK
6
CONTINUOUS
10
5.46926
20
-4.18874
11
5.47274
21
-4.19222
0
LINE
8
BLACK
6
CONTINUOUS
10
5.47274
20
-4.19222
11
5.47498
21
-4.19661
0
LINE
8
BLACK
6
CONTINUOUS
10
5.47498
20
-4.19661
11
5.47575
21
-4.20148
0
LINE
8
BLACK
6
CONTINUOUS
10
5.47575
20
-4.20148
11
5.47498
21
-4.20634
0
LINE
8
BLACK
6
CONTINUOUS
10
5.47498
20
-4.20634
11
5.47274
21
-4.21073
0
LINE
8
BLACK
6
CONTINUOUS
10
5.47274
20
-4.21073
11
5.47
21
-4.21347
0
LINE
8
BLACK
6
CONTINUOUS
10
5.47
20
-4.21347
11
5.47
21
-4.23654
0
LINE
8
BLACK
6
CONTINUOUS
10
5.47
20
-4.23654
11
5.48669
21
-4.23654
0
LINE
8
BLACK
6
CONTINUOUS
10
5.48669
20
-4.23654
11
5.48669
21
-4.30346
0
LINE
8
BLACK
6
CONTINUOUS
10
5.48669
20
-4.30346
11
5.43551
21
-4.30346
0
LINE
8
BLACK
6
CONTINUOUS
10
5.43551
20
-4.30346
11
5.43551
21
-4.23654
0
LINE
8
BLACK
6
CONTINUOUS
10
5.43551
20
-4.23654
11
5.45
21
-4.23654
0
LINE
8
BLACK
6
CONTINUOUS
10
5.45
20
-4.23654
11
5.45
21
-4.21347
0
LINE
8
BLACK
6
CONTINUOUS
10
5.45
20
-4.21347
11
5.44726
21
-4.21073
0
LINE
8
BLACK
6
CONTINUOUS
10
5.44726
20
-4.21073
11
5.44502
21
-4.20634
0
LINE
8
BLACK
6
CONTINUOUS
10
5.44502
20
-4.20634
11
5.44425
21
-4.20148
0
LINE
8
BLACK
6
CONTINUOUS
10
5.44425
20
-4.20148
11
5.44502
21
-4.19661
0
LINE
8
BLACK
6
CONTINUOUS
10
5.44502
20
-4.19661
11
5.44726
21
-4.19222
0
LINE
8
BLACK
6
CONTINUOUS
10
5.44726
20
-4.19222
11
5.45074
21
-4.18874
0
LINE
8
BLACK
6
CONTINUOUS
10
5.45074
20
-4.18874
11
5.45513
21
-4.1865
0
LINE
8
BLACK
6
CONTINUOUS
10
5.45513
20
-4.1865
11
5.46
21
-4.18573
0
LINE
8
BLACK
6
CONTINUOUS
10
5.46
20
-4.18573
11
5.46487
21
-4.1865
0
LINE
8
BLACK
6
CONTINUOUS
10
5.03799
20
-4.28835
11
5.01437
21
-4.28835
0
LINE
8
BLACK
6
CONTINUOUS
10
5.01437
20
-4.28835
11
5.01437
21
-4.24504
0
LINE
8
BLACK
6
CONTINUOUS
10
5.01437
20
-4.24504
11
5.03799
21
-4.24504
0
LINE
8
BLACK
6
CONTINUOUS
10
5.03799
20
-4.24504
11
5.03799
21
-4.28835
0
LINE
8
BLACK
6
CONTINUOUS
10
4.96688
20
-3.95242
11
4.96819
21
-3.95257
0
LINE
8
BLACK
6
CONTINUOUS
10
4.96819
20
-3.95257
11
4.96857
21
-3.95281
0
LINE
8
BLACK
6
CONTINUOUS
10
4.96857
20
-3.95281
11
4.96901
21
-3.95291
0
LINE
8
BLACK
6
CONTINUOUS
10
4.96901
20
-3.95291
11
4.97004
21
-3.95373
0
LINE
8
BLACK
6
CONTINUOUS
10
4.97004
20
-3.95373
11
4.97116
21
-3.95443
0
LINE
8
BLACK
6
CONTINUOUS
10
4.97116
20
-3.95443
11
4.98557
21
-3.96884
0
LINE
8
BLACK
6
CONTINUOUS
10
4.98557
20
-3.96884
11
4.98627
21
-3.96996
0
LINE
8
BLACK
6
CONTINUOUS
10
4.98627
20
-3.96996
11
4.98709
21
-3.97099
0
LINE
8
BLACK
6
CONTINUOUS
10
4.98709
20
-3.97099
11
4.98719
21
-3.97143
0
LINE
8
BLACK
6
CONTINUOUS
10
4.98719
20
-3.97143
11
4.98743
21
-3.97181
0
LINE
8
BLACK
6
CONTINUOUS
10
4.98743
20
-3.97181
11
4.98758
21
-3.97312
0
LINE
8
BLACK
6
CONTINUOUS
10
4.98758
20
-3.97312
11
4.98787
21
-3.97441
0
LINE
8
BLACK
6
CONTINUOUS
10
4.98787
20
-3.97441
11
4.98787
21
-4.12674
0
LINE
8
BLACK
6
CONTINUOUS
10
4.98787
20
-4.12674
11
5.08096
21
-4.21983
0
LINE
8
BLACK
6
CONTINUOUS
10
5.08096
20
-4.21983
11
5.08166
21
-4.22094
0
LINE
8
BLACK
6
CONTINUOUS
10
5.08166
20
-4.22094
11
5.08249
21
-4.22198
0
LINE
8
BLACK
6
CONTINUOUS
10
5.08249
20
-4.22198
11
5.08259
21
-4.22241
0
LINE
8
BLACK
6
CONTINUOUS
10
5.08259
20
-4.22241
11
5.08283
21
-4.22279
0
LINE
8
BLACK
6
CONTINUOUS
10
5.08283
20
-4.22279
11
5.08297
21
-4.22411
0
LINE
8
BLACK
6
CONTINUOUS
10
5.08297
20
-4.22411
11
5.08327
21
-4.22539
0
LINE
8
BLACK
6
CONTINUOUS
10
5.08327
20
-4.22539
11
5.08327
21
-4.24504
0
LINE
8
BLACK
6
CONTINUOUS
10
5.08327
20
-4.24504
11
5.0872
21
-4.24504
0
LINE
8
BLACK
6
CONTINUOUS
10
5.0872
20
-4.24504
11
5.0872
21
-4.28835
0
LINE
8
BLACK
6
CONTINUOUS
10
5.0872
20
-4.28835
11
5.06358
21
-4.28835
0
LINE
8
BLACK
6
CONTINUOUS
10
5.06358
20
-4.28835
11
5.06358
21
-4.24504
0
LINE
8
BLACK
6
CONTINUOUS
10
5.06358
20
-4.24504
11
5.06752
21
-4.24504
0
LINE
8
BLACK
6
CONTINUOUS
10
5.06752
20
-4.24504
11
5.06752
21
-4.22866
0
LINE
8
BLACK
6
CONTINUOUS
10
5.06752
20
-4.22866
11
4.97443
21
-4.13557
0
LINE
8
BLACK
6
CONTINUOUS
10
4.97443
20
-4.13557
11
4.97373
21
-4.13445
0
LINE
8
BLACK
6
CONTINUOUS
10
4.97373
20
-4.13445
11
4.97291
21
-4.13342
0
LINE
8
BLACK
6
CONTINUOUS
10
4.97291
20
-4.13342
11
4.97281
21
-4.13298
0
LINE
8
BLACK
6
CONTINUOUS
10
4.97281
20
-4.13298
11
4.97257
21
-4.1326
0
LINE
8
BLACK
6
CONTINUOUS
10
4.97257
20
-4.1326
11
4.97242
21
-4.13129
0
LINE
8
BLACK
6
CONTINUOUS
10
4.97242
20
-4.13129
11
4.97213
21
-4.13
0
LINE
8
BLACK
6
CONTINUOUS
10
4.97213
20
-4.13
11
4.97213
21
-3.97767
0
LINE
8
BLACK
6
CONTINUOUS
10
4.97213
20
-3.97767
11
4.96233
21
-3.96787
0
LINE
8
BLACK
6
CONTINUOUS
10
4.96233
20
-3.96787
11
4.88326
21
-3.96787
0
LINE
8
BLACK
6
CONTINUOUS
10
4.88326
20
-3.96787
11
4.86
21
-3.99114
0
LINE
8
BLACK
6
CONTINUOUS
10
4.86
20
-3.99114
11
4.86
21
-4.04
0
LINE
8
BLACK
6
CONTINUOUS
10
4.86
20
-4.04
11
4.8
21
-4.04
0
LINE
8
BLACK
6
CONTINUOUS
10
4.8
20
-4.04
11
4.8
21
-3.98
0
LINE
8
BLACK
6
CONTINUOUS
10
4.8
20
-3.98
11
4.84886
21
-3.98
0
LINE
8
BLACK
6
CONTINUOUS
10
4.84886
20
-3.98
11
4.87443
21
-3.95443
0
LINE
8
BLACK
6
CONTINUOUS
10
4.87443
20
-3.95443
11
4.87555
21
-3.95373
0
LINE
8
BLACK
6
CONTINUOUS
10
4.87555
20
-3.95373
11
4.87658
21
-3.95291
0
LINE
8
BLACK
6
CONTINUOUS
10
4.87658
20
-3.95291
11
4.87702
21
-3.95281
0
LINE
8
BLACK
6
CONTINUOUS
10
4.87702
20
-3.95281
11
4.8774
21
-3.95257
0
LINE
8
BLACK
6
CONTINUOUS
10
4.8774
20
-3.95257
11
4.87871
21
-3.95242
0
LINE
8
BLACK
6
CONTINUOUS
10
4.87871
20
-3.95242
11
4.88
21
-3.95213
0
LINE
8
BLACK
6
CONTINUOUS
10
4.88
20
-3.95213
11
4.96559
21
-3.95213
0
LINE
8
BLACK
6
CONTINUOUS
10
4.96559
20
-3.95213
11
4.96688
21
-3.95242
0
LINE
8
BLACK
6
CONTINUOUS
10
5.21129
20
-3.84242
11
5.2126
21
-3.84257
0
LINE
8
BLACK
6
CONTINUOUS
10
5.2126
20
-3.84257
11
5.21298
21
-3.84281
0
LINE
8
BLACK
6
CONTINUOUS
10
5.21298
20
-3.84281
11
5.21342
21
-3.84291
0
LINE
8
BLACK
6
CONTINUOUS
10
5.21342
20
-3.84291
11
5.21445
21
-3.84373
0
LINE
8
BLACK
6
CONTINUOUS
10
5.21445
20
-3.84373
11
5.21557
21
-3.84443
0
LINE
8
BLACK
6
CONTINUOUS
10
5.21557
20
-3.84443
11
5.25114
21
-3.88
0
LINE
8
BLACK
6
CONTINUOUS
10
5.25114
20
-3.88
11
5.3
21
-3.88
0
LINE
8
BLACK
6
CONTINUOUS
10
5.3
20
-3.88
11
5.3
21
-3.94
0
LINE
8
BLACK
6
CONTINUOUS
10
5.3
20
-3.94
11
5.27787
21
-3.94
0
LINE
8
BLACK
6
CONTINUOUS
10
5.27787
20
-3.94
11
5.27787
21
-3.98
0
LINE
8
BLACK
6
CONTINUOUS
10
5.27787
20
-3.98
11
5.3
21
-3.98
0
LINE
8
BLACK
6
CONTINUOUS
10
5.3
20
-3.98
11
5.3
21
-4.04
0
LINE
8
BLACK
6
CONTINUOUS
10
5.3
20
-4.04
11
5.27787
21
-4.04
0
LINE
8
BLACK
6
CONTINUOUS
10
5.27787
20
-4.04
11
5.27787
21
-4.09407
0
LINE
8
BLACK
6
CONTINUOUS
10
5.27787
20
-4.09407
11
5.27758
21
-4.09536
0
LINE
8
BLACK
6
CONTINUOUS
10
5.27758
20
-4.09536
11
5.27743
21
-4.09668
0
LINE
8
BLACK
6
CONTINUOUS
10
5.27743
20
-4.09668
11
5.27719
21
-4.09705
0
LINE
8
BLACK
6
CONTINUOUS
10
5.27719
20
-4.09705
11
5.27709
21
-4.09749
0
LINE
8
BLACK
6
CONTINUOUS
10
5.27709
20
-4.09749
11
5.27627
21
-4.09852
0
LINE
8
BLACK
6
CONTINUOUS
10
5.27627
20
-4.09852
11
5.27557
21
-4.09964
0
LINE
8
BLACK
6
CONTINUOUS
10
5.27557
20
-4.09964
11
5.27425
21
-4.10096
0
LINE
8
BLACK
6
CONTINUOUS
10
5.27425
20
-4.10096
11
5.27425
21
-4.12772
0
LINE
8
BLACK
6
CONTINUOUS
10
5.27425
20
-4.12772
11
5.2735
21
-4.13148
0
LINE
8
BLACK
6
CONTINUOUS
10
5.2735
20
-4.13148
11
5.27137
21
-4.13468
0
LINE
8
BLACK
6
CONTINUOUS
10
5.27137
20
-4.13468
11
5.26818
21
-4.13681
0
LINE
8
BLACK
6
CONTINUOUS
10
5.26818
20
-4.13681
11
5.26441
21
-4.13756
0
LINE
8
BLACK
6
CONTINUOUS
10
5.26441
20
-4.13756
11
5.24374
21
-4.13756
0
LINE
8
BLACK
6
CONTINUOUS
10
5.24374
20
-4.13756
11
5.23997
21
-4.13681
0
LINE
8
BLACK
6
CONTINUOUS
10
5.23997
20
-4.13681
11
5.23678
21
-4.13468
0
LINE
8
BLACK
6
CONTINUOUS
10
5.23678
20
-4.13468
11
5.23465
21
-4.13148
0
LINE
8
BLACK
6
CONTINUOUS
10
5.23465
20
-4.13148
11
5.2339
21
-4.12772
0
LINE
8
BLACK
6
CONTINUOUS
10
5.2339
20
-4.12772
11
5.2339
21
-4.11787
0
LINE
8
BLACK
6
CONTINUOUS
10
5.2339
20
-4.11787
11
5.20326
21
-4.11787
0
LINE
8
BLACK
6
CONTINUOUS
10
5.20326
20
-4.11787
11
5.13248
21
-4.18866
0
LINE
8
BLACK
6
CONTINUOUS
10
5.13248
20
-4.18866
11
5.13248
21
-4.24504
0
LINE
8
BLACK
6
CONTINUOUS
10
5.13248
20
-4.24504
11
5.13642
21
-4.24504
0
LINE
8
BLACK
6
CONTINUOUS
10
5.13642
20
-4.24504
11
5.13642
21
-4.28835
0
LINE
8
BLACK
6
CONTINUOUS
10
5.13642
20
-4.28835
11
5.1128
21
-4.28835
0
LINE
8
BLACK
6
CONTINUOUS
10
5.1128
20
-4.28835
11
5.1128
21
-4.24504
0
LINE
8
BLACK
6
CONTINUOUS
10
5.1128
20
-4.24504
11
5.11673
21
-4.24504
0
LINE
8
BLACK
6
CONTINUOUS
10
5.11673
20
-4.24504
11
5.11673
21
-4.18539
0
LINE
8
BLACK
6
CONTINUOUS
10
5.11673
20
-4.18539
11
5.11703
21
-4.18411
0
LINE
8
BLACK
6
CONTINUOUS
10
5.11703
20
-4.18411
11
5.11717
21
-4.18279
0
LINE
8
BLACK
6
CONTINUOUS
10
5.11717
20
-4.18279
11
5.11741
21
-4.18241
0
LINE
8
BLACK
6
CONTINUOUS
10
5.11741
20
-4.18241
11
5.11751
21
-4.18198
0
LINE
8
BLACK
6
CONTINUOUS
10
5.11751
20
-4.18198
11
5.11834
21
-4.18094
0
LINE
8
BLACK
6
CONTINUOUS
10
5.11834
20
-4.18094
11
5.11904
21
-4.17983
0
LINE
8
BLACK
6
CONTINUOUS
10
5.11904
20
-4.17983
11
5.19443
21
-4.10443
0
LINE
8
BLACK
6
CONTINUOUS
10
5.19443
20
-4.10443
11
5.19555
21
-4.10373
0
LINE
8
BLACK
6
CONTINUOUS
10
5.19555
20
-4.10373
11
5.19658
21
-4.10291
0
LINE
8
BLACK
6
CONTINUOUS
10
5.19658
20
-4.10291
11
5.19702
21
-4.10281
0
LINE
8
BLACK
6
CONTINUOUS
10
5.19702
20
-4.10281
11
5.1974
21
-4.10257
0
LINE
8
BLACK
6
CONTINUOUS
10
5.1974
20
-4.10257
11
5.19871
21
-4.10242
0
LINE
8
BLACK
6
CONTINUOUS
10
5.19871
20
-4.10242
11
5.2
21
-4.10213
0
LINE
8
BLACK
6
CONTINUOUS
10
5.2
20
-4.10213
11
5.2339
21
-4.10213
0
LINE
8
BLACK
6
CONTINUOUS
10
5.2339
20
-4.10213
11
5.2339
21
-4.09228
0
LINE
8
BLACK
6
CONTINUOUS
10
5.2339
20
-4.09228
11
5.23465
21
-4.08852
0
LINE
8
BLACK
6
CONTINUOUS
10
5.23465
20
-4.08852
11
5.23678
21
-4.08532
0
LINE
8
BLACK
6
CONTINUOUS
10
5.23678
20
-4.08532
11
5.23997
21
-4.08319
0
LINE
8
BLACK
6
CONTINUOUS
10
5.23997
20
-4.08319
11
5.24374
21
-4.08244
0
LINE
8
BLACK
6
CONTINUOUS
10
5.24374
20
-4.08244
11
5.26213
21
-4.08244
0
LINE
8
BLACK
6
CONTINUOUS
10
5.26213
20
-4.08244
11
5.26213
21
-4.04
0
LINE
8
BLACK
6
CONTINUOUS
10
5.26213
20
-4.04
11
5.24
21
-4.04
0
LINE
8
BLACK
6
CONTINUOUS
10
5.24
20
-4.04
11
5.24
21
-3.98
0
LINE
8
BLACK
6
CONTINUOUS
10
5.24
20
-3.98
11
5.26213
21
-3.98
0
LINE
8
BLACK
6
CONTINUOUS
10
5.26213
20
-3.98
11
5.26213
21
-3.94
0
LINE
8
BLACK
6
CONTINUOUS
10
5.26213
20
-3.94
11
5.24
21
-3.94
0
LINE
8
BLACK
6
CONTINUOUS
10
5.24
20
-3.94
11
5.24
21
-3.89114
0
LINE
8
BLACK
6
CONTINUOUS
10
5.24
20
-3.89114
11
5.20674
21
-3.85787
0
LINE
8
BLACK
6
CONTINUOUS
10
5.20674
20
-3.85787
11
4.99326
21
-3.85787
0
LINE
8
BLACK
6
CONTINUOUS
10
4.99326
20
-3.85787
11
4.96
21
-3.89114
0
LINE
8
BLACK
6
CONTINUOUS
10
4.96
20
-3.89114
11
4.96
21
-3.94
0
LINE
8
BLACK
6
CONTINUOUS
10
4.96
20
-3.94
11
4.9
21
-3.94
0
LINE
8
BLACK
6
CONTINUOUS
10
4.9
20
-3.94
11
4.9
21
-3.88
0
LINE
8
BLACK
6
CONTINUOUS
10
4.9
20
-3.88
11
4.94886
21
-3.88
0
LINE
8
BLACK
6
CONTINUOUS
10
4.94886
20
-3.88
11
4.98443
21
-3.84443
0
LINE
8
BLACK
6
CONTINUOUS
10
4.98443
20
-3.84443
11
4.98555
21
-3.84373
0
LINE
8
BLACK
6
CONTINUOUS
10
4.98555
20
-3.84373
11
4.98658
21
-3.84291
0
LINE
8
BLACK
6
CONTINUOUS
10
4.98658
20
-3.84291
11
4.98702
21
-3.84281
0
LINE
8
BLACK
6
CONTINUOUS
10
4.98702
20
-3.84281
11
4.9874
21
-3.84257
0
LINE
8
BLACK
6
CONTINUOUS
10
4.9874
20
-3.84257
11
4.98871
21
-3.84242
0
LINE
8
BLACK
6
CONTINUOUS
10
4.98871
20
-3.84242
11
4.99
21
-3.84213
0
LINE
8
BLACK
6
CONTINUOUS
10
4.99
20
-3.84213
11
5.21
21
-3.84213
0
LINE
8
BLACK
6
CONTINUOUS
10
5.21
20
-3.84213
11
5.21129
21
-3.84242
0
LINE
8
BLACK
6
CONTINUOUS
10
5.11772
20
-3.87868
11
5.11955
21
-3.88079
0
LINE
8
BLACK
6
CONTINUOUS
10
5.11955
20
-3.88079
11
5.12
21
-3.88285
0
LINE
8
BLACK
6
CONTINUOUS
10
5.12
20
-3.88285
11
5.12
21
-3.9
0
LINE
8
BLACK
6
CONTINUOUS
10
5.12
20
-3.9
11
5.14
21
-3.9
0
LINE
8
BLACK
6
CONTINUOUS
10
5.14
20
-3.9
11
5.14
21
-3.88
0
LINE
8
BLACK
6
CONTINUOUS
10
5.14
20
-3.88
11
5.2
21
-3.88
0
LINE
8
BLACK
6
CONTINUOUS
10
5.2
20
-3.88
11
5.2
21
-3.94
0
LINE
8
BLACK
6
CONTINUOUS
10
5.2
20
-3.94
11
5.18
21
-3.94
0
LINE
8
BLACK
6
CONTINUOUS
10
5.18
20
-3.94
11
5.18
21
-3.98
0
LINE
8
BLACK
6
CONTINUOUS
10
5.18
20
-3.98
11
5.2
21
-3.98
0
LINE
8
BLACK
6
CONTINUOUS
10
5.2
20
-3.98
11
5.2
21
-4.04
0
LINE
8
BLACK
6
CONTINUOUS
10
5.2
20
-4.04
11
5.18
21
-4.04
0
LINE
8
BLACK
6
CONTINUOUS
10
5.18
20
-4.04
11
5.18
21
-4.06
0
LINE
8
BLACK
6
CONTINUOUS
10
5.18
20
-4.06
11
5.20191
21
-4.06
0
LINE
8
BLACK
6
CONTINUOUS
10
5.20191
20
-4.06
11
5.20191
21
-4.06
0
LINE
8
BLACK
6
CONTINUOUS
10
5.20191
20
-4.06
11
5.2043
21
-4.05974
0
LINE
8
BLACK
6
CONTINUOUS
10
5.2043
20
-4.05974
11
5.20968
21
-4.05773
0
LINE
8
BLACK
6
CONTINUOUS
10
5.20968
20
-4.05773
11
5.20968
21
-4.05773
0
LINE
8
BLACK
6
CONTINUOUS
10
5.20968
20
-4.05773
11
5.21429
21
-4.05429
0
LINE
8
BLACK
6
CONTINUOUS
10
5.21429
20
-4.05429
11
5.21602
21
-4.05198
0
LINE
8
BLACK
6
CONTINUOUS
10
5.21602
20
-4.05198
11
5.21825
21
-4.0503
0
LINE
8
BLACK
6
CONTINUOUS
10
5.21825
20
-4.0503
11
5.22104
21
-4.0501
0
LINE
8
BLACK
6
CONTINUOUS
10
5.22104
20
-4.0501
11
5.2235
21
-4.05144
0
LINE
8
BLACK
6
CONTINUOUS
10
5.2235
20
-4.05144
11
5.22396
21
-4.05198
0
LINE
8
BLACK
6
CONTINUOUS
10
5.22396
20
-4.05198
11
5.2257
21
-4.0543
0
LINE
8
BLACK
6
CONTINUOUS
10
5.2257
20
-4.0543
11
5.23014
21
-4.05762
0
LINE
8
BLACK
6
CONTINUOUS
10
5.23014
20
-4.05762
11
5.23181
21
-4.05986
0
LINE
8
BLACK
6
CONTINUOUS
10
5.23181
20
-4.05986
11
5.23201
21
-4.06265
0
LINE
8
BLACK
6
CONTINUOUS
10
5.23201
20
-4.06265
11
5.23067
21
-4.0651
0
LINE
8
BLACK
6
CONTINUOUS
10
5.23067
20
-4.0651
11
5.22977
21
-4.06582
0
LINE
8
BLACK
6
CONTINUOUS
10
5.22977
20
-4.06582
11
5.22509
21
-4.0687
0
LINE
8
BLACK
6
CONTINUOUS
10
5.22509
20
-4.0687
11
5.22509
21
-4.0687
0
LINE
8
BLACK
6
CONTINUOUS
10
5.22509
20
-4.0687
11
5.22016
21
-4.07364
0
LINE
8
BLACK
6
CONTINUOUS
10
5.22016
20
-4.07364
11
5.22016
21
-4.07364
0
LINE
8
BLACK
6
CONTINUOUS
10
5.22016
20
-4.07364
11
5.2184
21
-4.07649
0
LINE
8
BLACK
6
CONTINUOUS
10
5.2184
20
-4.07649
11
5.21649
21
-4.07958
0
LINE
8
BLACK
6
CONTINUOUS
10
5.21649
20
-4.07958
11
5.21649
21
-4.07958
0
LINE
8
BLACK
6
CONTINUOUS
10
5.21649
20
-4.07958
11
5.21639
21
-4.07975
0
LINE
8
BLACK
6
CONTINUOUS
10
5.21639
20
-4.07975
11
5.21431
21
-4.08162
0
LINE
8
BLACK
6
CONTINUOUS
10
5.21431
20
-4.08162
11
5.21216
21
-4.08211
0
LINE
8
BLACK
6
CONTINUOUS
10
5.21216
20
-4.08211
11
5.20092
21
-4.08211
0
LINE
8
BLACK
6
CONTINUOUS
10
5.20092
20
-4.08211
11
5.20077
21
-4.0821
0
LINE
8
BLACK
6
CONTINUOUS
10
5.20077
20
-4.0821
11
5.1983
21
-4.08195
0
LINE
8
BLACK
6
CONTINUOUS
10
5.1983
20
-4.08195
11
5.1983
21
-4.08195
0
LINE
8
BLACK
6
CONTINUOUS
10
5.1983
20
-4.08195
11
5.1983
21
-4.08195
0
LINE
8
BLACK
6
CONTINUOUS
10
5.1983
20
-4.08195
11
5.19587
21
-4.0824
0
LINE
8
BLACK
6
CONTINUOUS
10
5.19587
20
-4.0824
11
5.19573
21
-4.08242
0
LINE
8
BLACK
6
CONTINUOUS
10
5.19573
20
-4.08242
11
5.1954
21
-4.08246
0
LINE
8
BLACK
6
CONTINUOUS
10
5.1954
20
-4.08246
11
5.19328
21
-4.08272
0
LINE
8
BLACK
6
CONTINUOUS
10
5.19328
20
-4.08272
11
5.19328
21
-4.08272
0
LINE
8
BLACK
6
CONTINUOUS
10
5.19328
20
-4.08272
11
5.1929
21
-4.08286
0
LINE
8
BLACK
6
CONTINUOUS
10
5.1929
20
-4.08286
11
5.19204
21
-4.0831
0
LINE
8
BLACK
6
CONTINUOUS
10
5.19204
20
-4.0831
11
5.19164
21
-4.08317
0
LINE
8
BLACK
6
CONTINUOUS
10
5.19164
20
-4.08317
11
5.19164
21
-4.08317
0
LINE
8
BLACK
6
CONTINUOUS
10
5.19164
20
-4.08317
11
5.18939
21
-4.08419
0
LINE
8
BLACK
6
CONTINUOUS
10
5.18939
20
-4.08419
11
5.18925
21
-4.08424
0
LINE
8
BLACK
6
CONTINUOUS
10
5.18925
20
-4.08424
11
5.18694
21
-4.08512
0
LINE
8
BLACK
6
CONTINUOUS
10
5.18694
20
-4.08512
11
5.18661
21
-4.08535
0
LINE
8
BLACK
6
CONTINUOUS
10
5.18661
20
-4.08535
11
5.18583
21
-4.08579
0
LINE
8
BLACK
6
CONTINUOUS
10
5.18583
20
-4.08579
11
5.18546
21
-4.08595
0
LINE
8
BLACK
6
CONTINUOUS
10
5.18546
20
-4.08595
11
5.18546
21
-4.08595
0
LINE
8
BLACK
6
CONTINUOUS
10
5.18546
20
-4.08595
11
5.18352
21
-4.08748
0
LINE
8
BLACK
6
CONTINUOUS
10
5.18352
20
-4.08748
11
5.1834
21
-4.08757
0
LINE
8
BLACK
6
CONTINUOUS
10
5.1834
20
-4.08757
11
5.18137
21
-4.08897
0
LINE
8
BLACK
6
CONTINUOUS
10
5.18137
20
-4.08897
11
5.17973
21
-4.09082
0
LINE
8
BLACK
6
CONTINUOUS
10
5.17973
20
-4.09082
11
5.17963
21
-4.09093
0
LINE
8
BLACK
6
CONTINUOUS
10
5.17963
20
-4.09093
11
5.10553
21
-4.16502
0
LINE
8
BLACK
6
CONTINUOUS
10
5.10553
20
-4.16502
11
5.10542
21
-4.16512
0
LINE
8
BLACK
6
CONTINUOUS
10
5.10542
20
-4.16512
11
5.10357
21
-4.16676
0
LINE
8
BLACK
6
CONTINUOUS
10
5.10357
20
-4.16676
11
5.10217
21
-4.16879
0
LINE
8
BLACK
6
CONTINUOUS
10
5.10217
20
-4.16879
11
5.10208
21
-4.16891
0
LINE
8
BLACK
6
CONTINUOUS
10
5.10208
20
-4.16891
11
5.10056
21
-4.17086
0
LINE
8
BLACK
6
CONTINUOUS
10
5.10056
20
-4.17086
11
5.10056
21
-4.17086
0
LINE
8
BLACK
6
CONTINUOUS
10
5.10056
20
-4.17086
11
5.1004
21
-4.17122
0
LINE
8
BLACK
6
CONTINUOUS
10
5.1004
20
-4.17122
11
5.09995
21
-4.172
0
LINE
8
BLACK
6
CONTINUOUS
10
5.09995
20
-4.172
11
5.09973
21
-4.17234
0
LINE
8
BLACK
6
CONTINUOUS
10
5.09973
20
-4.17234
11
5.09885
21
-4.17464
0
LINE
8
BLACK
6
CONTINUOUS
10
5.09885
20
-4.17464
11
5.09879
21
-4.17478
0
LINE
8
BLACK
6
CONTINUOUS
10
5.09879
20
-4.17478
11
5.09778
21
-4.17703
0
LINE
8
BLACK
6
CONTINUOUS
10
5.09778
20
-4.17703
11
5.09778
21
-4.17703
0
LINE
8
BLACK
6
CONTINUOUS
10
5.09778
20
-4.17703
11
5.09771
21
-4.17743
0
LINE
8
BLACK
6
CONTINUOUS
10
5.09771
20
-4.17743
11
5.09747
21
-4.17829
0
LINE
8
BLACK
6
CONTINUOUS
10
5.09747
20
-4.17829
11
5.09732
21
-4.17867
0
LINE
8
BLACK
6
CONTINUOUS
10
5.09732
20
-4.17867
11
5.09703
21
-4.18112
0
LINE
8
BLACK
6
CONTINUOUS
10
5.09703
20
-4.18112
11
5.097
21
-4.18127
0
LINE
8
BLACK
6
CONTINUOUS
10
5.097
20
-4.18127
11
5.09656
21
-4.1837
0
LINE
8
BLACK
6
CONTINUOUS
10
5.09656
20
-4.1837
11
5.09671
21
-4.18616
0
LINE
8
BLACK
6
CONTINUOUS
10
5.09671
20
-4.18616
11
5.09671
21
-4.18631
0
LINE
8
BLACK
6
CONTINUOUS
10
5.09671
20
-4.18631
11
5.09671
21
-4.19529
0
LINE
8
BLACK
6
CONTINUOUS
10
5.09671
20
-4.19529
11
5.09593
21
-4.19797
0
LINE
8
BLACK
6
CONTINUOUS
10
5.09593
20
-4.19797
11
5.09381
21
-4.1998
0
LINE
8
BLACK
6
CONTINUOUS
10
5.09381
20
-4.1998
11
5.09105
21
-4.2002
0
LINE
8
BLACK
6
CONTINUOUS
10
5.09105
20
-4.2002
11
5.0885
21
-4.19904
0
LINE
8
BLACK
6
CONTINUOUS
10
5.0885
20
-4.19904
11
5.08824
21
-4.1988
0
LINE
8
BLACK
6
CONTINUOUS
10
5.08824
20
-4.1988
11
5.00935
21
-4.1199
0
LINE
8
BLACK
6
CONTINUOUS
10
5.00935
20
-4.1199
11
5.00801
21
-4.11745
0
LINE
8
BLACK
6
CONTINUOUS
10
5.00801
20
-4.11745
11
5.00789
21
-4.11639
0
LINE
8
BLACK
6
CONTINUOUS
10
5.00789
20
-4.11639
11
5.00789
21
-4.06498
0
LINE
8
BLACK
6
CONTINUOUS
10
5.00789
20
-4.06498
11
5.00868
21
-4.0623
0
LINE
8
BLACK
6
CONTINUOUS
10
5.00868
20
-4.0623
11
5.01079
21
-4.06047
0
LINE
8
BLACK
6
CONTINUOUS
10
5.01079
20
-4.06047
11
5.01285
21
-4.06002
0
LINE
8
BLACK
6
CONTINUOUS
10
5.01285
20
-4.06002
11
5.06191
21
-4.06002
0
LINE
8
BLACK
6
CONTINUOUS
10
5.06191
20
-4.06002
11
5.06191
21
-4.06002
0
LINE
8
BLACK
6
CONTINUOUS
10
5.06191
20
-4.06002
11
5.06192
21
-4.06002
0
LINE
8
BLACK
6
CONTINUOUS
10
5.06192
20
-4.06002
11
5.06192
21
-4.06002
0
LINE
8
BLACK
6
CONTINUOUS
10
5.06192
20
-4.06002
11
5.0643
21
-4.05976
0
LINE
8
BLACK
6
CONTINUOUS
10
5.0643
20
-4.05976
11
5.0643
21
-4.05976
0
LINE
8
BLACK
6
CONTINUOUS
10
5.0643
20
-4.05976
11
5.0643
21
-4.05976
0
LINE
8
BLACK
6
CONTINUOUS
10
5.0643
20
-4.05976
11
5.06969
21
-4.05775
0
LINE
8
BLACK
6
CONTINUOUS
10
5.06969
20
-4.05775
11
5.06972
21
-4.05773
0
LINE
8
BLACK
6
CONTINUOUS
10
5.06972
20
-4.05773
11
5.0743
21
-4.0543
0
LINE
8
BLACK
6
CONTINUOUS
10
5.0743
20
-4.0543
11
5.07775
21
-4.04969
0
LINE
8
BLACK
6
CONTINUOUS
10
5.07775
20
-4.04969
11
5.07775
21
-4.04969
0
LINE
8
BLACK
6
CONTINUOUS
10
5.07775
20
-4.04969
11
5.07775
21
-4.04969
0
LINE
8
BLACK
6
CONTINUOUS
10
5.07775
20
-4.04969
11
5.07976
21
-4.0443
0
LINE
8
BLACK
6
CONTINUOUS
10
5.07976
20
-4.0443
11
5.08002
21
-4.04191
0
LINE
8
BLACK
6
CONTINUOUS
10
5.08002
20
-4.04191
11
5.08002
21
-3.97809
0
LINE
8
BLACK
6
CONTINUOUS
10
5.08002
20
-3.97809
11
5.07976
21
-3.9757
0
LINE
8
BLACK
6
CONTINUOUS
10
5.07976
20
-3.9757
11
5.07976
21
-3.9757
0
LINE
8
BLACK
6
CONTINUOUS
10
5.07976
20
-3.9757
11
5.07976
21
-3.9757
0
LINE
8
BLACK
6
CONTINUOUS
10
5.07976
20
-3.9757
11
5.07776
21
-3.97032
0
LINE
8
BLACK
6
CONTINUOUS
10
5.07776
20
-3.97032
11
5.07775
21
-3.97031
0
LINE
8
BLACK
6
CONTINUOUS
10
5.07775
20
-3.97031
11
5.07775
21
-3.97031
0
LINE
8
BLACK
6
CONTINUOUS
10
5.07775
20
-3.97031
11
5.07775
21
-3.97031
0
LINE
8
BLACK
6
CONTINUOUS
10
5.07775
20
-3.97031
11
5.0743
21
-3.9657
0
LINE
8
BLACK
6
CONTINUOUS
10
5.0743
20
-3.9657
11
5.07198
21
-3.96396
0
LINE
8
BLACK
6
CONTINUOUS
10
5.07198
20
-3.96396
11
5.0703
21
-3.96172
0
LINE
8
BLACK
6
CONTINUOUS
10
5.0703
20
-3.96172
11
5.0701
21
-3.95893
0
LINE
8
BLACK
6
CONTINUOUS
10
5.0701
20
-3.95893
11
5.07144
21
-3.95648
0
LINE
8
BLACK
6
CONTINUOUS
10
5.07144
20
-3.95648
11
5.07198
21
-3.95602
0
LINE
8
BLACK
6
CONTINUOUS
10
5.07198
20
-3.95602
11
5.07429
21
-3.95429
0
LINE
8
BLACK
6
CONTINUOUS
10
5.07429
20
-3.95429
11
5.07773
21
-3.94968
0
LINE
8
BLACK
6
CONTINUOUS
10
5.07773
20
-3.94968
11
5.07773
21
-3.94968
0
LINE
8
BLACK
6
CONTINUOUS
10
5.07773
20
-3.94968
11
5.07974
21
-3.94429
0
LINE
8
BLACK
6
CONTINUOUS
10
5.07974
20
-3.94429
11
5.08
21
-3.94191
0
LINE
8
BLACK
6
CONTINUOUS
10
5.08
20
-3.94191
11
5.08
21
-3.94191
0
LINE
8
BLACK
6
CONTINUOUS
10
5.08
20
-3.94191
11
5.08
21
-3.92
0
LINE
8
BLACK
6
CONTINUOUS
10
5.08
20
-3.92
11
5.06
21
-3.92
0
LINE
8
BLACK
6
CONTINUOUS
10
5.06
20
-3.92
11
5.06
21
-3.94
0
LINE
8
BLACK
6
CONTINUOUS
10
5.06
20
-3.94
11
5
21
-3.94
0
LINE
8
BLACK
6
CONTINUOUS
10
5
20
-3.94
11
5
21
-3.88
0
LINE
8
BLACK
6
CONTINUOUS
10
5
20
-3.88
11
5.06
21
-3.88
0
LINE
8
BLACK
6
CONTINUOUS
10
5.06
20
-3.88
11
5.06
21
-3.9
0
LINE
8
BLACK
6
CONTINUOUS
10
5.06
20
-3.9
11
5.08
21
-3.9
0
LINE
8
BLACK
6
CONTINUOUS
10
5.08
20
-3.9
11
5.08
21
-3.88285
0
LINE
8
BLACK
6
CONTINUOUS
10
5.08
20
-3.88285
11
5.08079
21
-3.88017
0
LINE
8
BLACK
6
CONTINUOUS
10
5.08079
20
-3.88017
11
5.0829
21
-3.87834
0
LINE
8
BLACK
6
CONTINUOUS
10
5.0829
20
-3.87834
11
5.08496
21
-3.87789
0
LINE
8
BLACK
6
CONTINUOUS
10
5.08496
20
-3.87789
11
5.11504
21
-3.87789
0
LINE
8
BLACK
6
CONTINUOUS
10
5.11504
20
-3.87789
11
5.11772
21
-3.87868
0
LINE
8
BLACK
6
CONTINUOUS
10
5.12
20
-4.02
11
5.12
21
-4.04191
0
LINE
8
BLACK
6
CONTINUOUS
10
5.12
20
-4.04191
11
5.12026
21
-4.04429
0
LINE
8
BLACK
6
CONTINUOUS
10
5.12026
20
-4.04429
11
5.12227
21
-4.04968
0
LINE
8
BLACK
6
CONTINUOUS
10
5.12227
20
-4.04968
11
5.12227
21
-4.04968
0
LINE
8
BLACK
6
CONTINUOUS
10
5.12227
20
-4.04968
11
5.12571
21
-4.05429
0
LINE
8
BLACK
6
CONTINUOUS
10
5.12571
20
-4.05429
11
5.13032
21
-4.05773
0
LINE
8
BLACK
6
CONTINUOUS
10
5.13032
20
-4.05773
11
5.1357
21
-4.05974
0
LINE
8
BLACK
6
CONTINUOUS
10
5.1357
20
-4.05974
11
5.13809
21
-4.06
0
LINE
8
BLACK
6
CONTINUOUS
10
5.13809
20
-4.06
11
5.13809
21
-4.06
0
LINE
8
BLACK
6
CONTINUOUS
10
5.13809
20
-4.06
11
5.16
21
-4.06
0
LINE
8
BLACK
6
CONTINUOUS
10
5.16
20
-4.06
11
5.16
21
-4.04
0
LINE
8
BLACK
6
CONTINUOUS
10
5.16
20
-4.04
11
5.14
21
-4.04
0
LINE
8
BLACK
6
CONTINUOUS
10
5.14
20
-4.04
11
5.14
21
-4.02
0
LINE
8
BLACK
6
CONTINUOUS
10
5.14
20
-4.02
11
5.12
21
-4.02
0
LINE
8
BLACK
6
CONTINUOUS
10
5.12
20
-3.92
11
5.12
21
-3.94191
0
LINE
8
BLACK
6
CONTINUOUS
10
5.12
20
-3.94191
11
5.12026
21
-3.94429
0
LINE
8
BLACK
6
CONTINUOUS
10
5.12026
20
-3.94429
11
5.12227
21
-3.94968
0
LINE
8
BLACK
6
CONTINUOUS
10
5.12227
20
-3.94968
11
5.12227
21
-3.94968
0
LINE
8
BLACK
6
CONTINUOUS
10
5.12227
20
-3.94968
11
5.12571
21
-3.95429
0
LINE
8
BLACK
6
CONTINUOUS
10
5.12571
20
-3.95429
11
5.12804
21
-3.95603
0
LINE
8
BLACK
6
CONTINUOUS
10
5.12804
20
-3.95603
11
5.12971
21
-3.95827
0
LINE
8
BLACK
6
CONTINUOUS
10
5.12971
20
-3.95827
11
5.12991
21
-3.96105
0
LINE
8
BLACK
6
CONTINUOUS
10
5.12991
20
-3.96105
11
5.12857
21
-3.96351
0
LINE
8
BLACK
6
CONTINUOUS
10
5.12857
20
-3.96351
11
5.12804
21
-3.96397
0
LINE
8
BLACK
6
CONTINUOUS
10
5.12804
20
-3.96397
11
5.12571
21
-3.96571
0
LINE
8
BLACK
6
CONTINUOUS
10
5.12571
20
-3.96571
11
5.12227
21
-3.97032
0
LINE
8
BLACK
6
CONTINUOUS
10
5.12227
20
-3.97032
11
5.12227
21
-3.97032
0
LINE
8
BLACK
6
CONTINUOUS
10
5.12227
20
-3.97032
11
5.12026
21
-3.9757
0
LINE
8
BLACK
6
CONTINUOUS
10
5.12026
20
-3.9757
11
5.12
21
-3.97809
0
LINE
8
BLACK
6
CONTINUOUS
10
5.12
20
-3.97809
11
5.12
21
-4
0
LINE
8
BLACK
6
CONTINUOUS
10
5.12
20
-4
11
5.14
21
-4
0
LINE
8
BLACK
6
CONTINUOUS
10
5.14
20
-4
11
5.14
21
-3.98
0
LINE
8
BLACK
6
CONTINUOUS
10
5.14
20
-3.98
11
5.16
21
-3.98
0
LINE
8
BLACK
6
CONTINUOUS
10
5.16
20
-3.98
11
5.16
21
-3.94
0
LINE
8
BLACK
6
CONTINUOUS
10
5.16
20
-3.94
11
5.14
21
-3.94
0
LINE
8
BLACK
6
CONTINUOUS
10
5.14
20
-3.94
11
5.14
21
-3.92
0
LINE
8
BLACK
6
CONTINUOUS
10
5.14
20
-3.92
11
5.12
21
-3.92
0
LINE
8
BLACK
6
CONTINUOUS
10
5.4
20
-3.94
11
5.38
21
-3.94
0
LINE
8
BLACK
6
CONTINUOUS
10
5.38
20
-3.94
11
5.38
21
-3.98
0
LINE
8
BLACK
6
CONTINUOUS
10
5.38
20
-3.98
11
5.4
21
-3.98
0
LINE
8
BLACK
6
CONTINUOUS
10
5.4
20
-3.98
11
5.4
21
-4.04
0
LINE
8
BLACK
6
CONTINUOUS
10
5.4
20
-4.04
11
5.38
21
-4.04
0
LINE
8
BLACK
6
CONTINUOUS
10
5.38
20
-4.04
11
5.38
21
-4.06178
0
LINE
8
BLACK
6
CONTINUOUS
10
5.38
20
-4.06178
11
5.40117
21
-4.08295
0
LINE
8
BLACK
6
CONTINUOUS
10
5.40117
20
-4.08295
11
5.40374
21
-4.08244
0
LINE
8
BLACK
6
CONTINUOUS
10
5.40374
20
-4.08244
11
5.42441
21
-4.08244
0
LINE
8
BLACK
6
CONTINUOUS
10
5.42441
20
-4.08244
11
5.42818
21
-4.08319
0
LINE
8
BLACK
6
CONTINUOUS
10
5.42818
20
-4.08319
11
5.43137
21
-4.08532
0
LINE
8
BLACK
6
CONTINUOUS
10
5.43137
20
-4.08532
11
5.4335
21
-4.08852
0
LINE
8
BLACK
6
CONTINUOUS
10
5.4335
20
-4.08852
11
5.43425
21
-4.09228
0
LINE
8
BLACK
6
CONTINUOUS
10
5.43425
20
-4.09228
11
5.43425
21
-4.12772
0
LINE
8
BLACK
6
CONTINUOUS
10
5.43425
20
-4.12772
11
5.4335
21
-4.13148
0
LINE
8
BLACK
6
CONTINUOUS
10
5.4335
20
-4.13148
11
5.43137
21
-4.13468
0
LINE
8
BLACK
6
CONTINUOUS
10
5.43137
20
-4.13468
11
5.42818
21
-4.13681
0
LINE
8
BLACK
6
CONTINUOUS
10
5.42818
20
-4.13681
11
5.42441
21
-4.13756
0
LINE
8
BLACK
6
CONTINUOUS
10
5.42441
20
-4.13756
11
5.40374
21
-4.13756
0
LINE
8
BLACK
6
CONTINUOUS
10
5.40374
20
-4.13756
11
5.39997
21
-4.13681
0
LINE
8
BLACK
6
CONTINUOUS
10
5.39997
20
-4.13681
11
5.39678
21
-4.13468
0
LINE
8
BLACK
6
CONTINUOUS
10
5.39678
20
-4.13468
11
5.39465
21
-4.13148
0
LINE
8
BLACK
6
CONTINUOUS
10
5.39465
20
-4.13148
11
5.3939
21
-4.12772
0
LINE
8
BLACK
6
CONTINUOUS
10
5.3939
20
-4.12772
11
5.3939
21
-4.10396
0
LINE
8
BLACK
6
CONTINUOUS
10
5.3939
20
-4.10396
11
5.37
21
-4.08007
0
LINE
8
BLACK
6
CONTINUOUS
10
5.37
20
-4.08007
11
5.3461
21
-4.10396
0
LINE
8
BLACK
6
CONTINUOUS
10
5.3461
20
-4.10396
11
5.3461
21
-4.12772
0
LINE
8
BLACK
6
CONTINUOUS
10
5.3461
20
-4.12772
11
5.34535
21
-4.13148
0
LINE
8
BLACK
6
CONTINUOUS
10
5.34535
20
-4.13148
11
5.34322
21
-4.13468
0
LINE
8
BLACK
6
CONTINUOUS
10
5.34322
20
-4.13468
11
5.34003
21
-4.13681
0
LINE
8
BLACK
6
CONTINUOUS
10
5.34003
20
-4.13681
11
5.33626
21
-4.13756
0
LINE
8
BLACK
6
CONTINUOUS
10
5.33626
20
-4.13756
11
5.31559
21
-4.13756
0
LINE
8
BLACK
6
CONTINUOUS
10
5.31559
20
-4.13756
11
5.31182
21
-4.13681
0
LINE
8
BLACK
6
CONTINUOUS
10
5.31182
20
-4.13681
11
5.30863
21
-4.13468
0
LINE
8
BLACK
6
CONTINUOUS
10
5.30863
20
-4.13468
11
5.3065
21
-4.13148
0
LINE
8
BLACK
6
CONTINUOUS
10
5.3065
20
-4.13148
11
5.30575
21
-4.12772
0
LINE
8
BLACK
6
CONTINUOUS
10
5.30575
20
-4.12772
11
5.30575
21
-4.09228
0
LINE
8
BLACK
6
CONTINUOUS
10
5.30575
20
-4.09228
11
5.3065
21
-4.08852
0
LINE
8
BLACK
6
CONTINUOUS
10
5.3065
20
-4.08852
11
5.30863
21
-4.08532
0
LINE
8
BLACK
6
CONTINUOUS
10
5.30863
20
-4.08532
11
5.31182
21
-4.08319
0
LINE
8
BLACK
6
CONTINUOUS
10
5.31182
20
-4.08319
11
5.31559
21
-4.08244
0
LINE
8
BLACK
6
CONTINUOUS
10
5.31559
20
-4.08244
11
5.33626
21
-4.08244
0
LINE
8
BLACK
6
CONTINUOUS
10
5.33626
20
-4.08244
11
5.33883
21
-4.08295
0
LINE
8
BLACK
6
CONTINUOUS
10
5.33883
20
-4.08295
11
5.36
21
-4.06178
0
LINE
8
BLACK
6
CONTINUOUS
10
5.36
20
-4.06178
11
5.36
21
-4.04
0
LINE
8
BLACK
6
CONTINUOUS
10
5.36
20
-4.04
11
5.34
21
-4.04
0
LINE
8
BLACK
6
CONTINUOUS
10
5.34
20
-4.04
11
5.34
21
-3.98
0
LINE
8
BLACK
6
CONTINUOUS
10
5.34
20
-3.98
11
5.36
21
-3.98
0
LINE
8
BLACK
6
CONTINUOUS
10
5.36
20
-3.98
11
5.36
21
-3.94
0
LINE
8
BLACK
6
CONTINUOUS
10
5.36
20
-3.94
11
5.34
21
-3.94
0
LINE
8
BLACK
6
CONTINUOUS
10
5.34
20
-3.94
11
5.34
21
-3.88
0
LINE
8
BLACK
6
CONTINUOUS
10
5.34
20
-3.88
11
5.4
21
-3.88
0
LINE
8
BLACK
6
CONTINUOUS
10
5.4
20
-3.88
11
5.4
21
-3.94
0
LINE
8
BLACK
6
CONTINUOUS
10
5.06
20
-4.04
11
5
21
-4.04
0
LINE
8
BLACK
6
CONTINUOUS
10
5
20
-4.04
11
5
21
-3.98
0
LINE
8
BLACK
6
CONTINUOUS
10
5
20
-3.98
11
5.06
21
-3.98
0
LINE
8
BLACK
6
CONTINUOUS
10
5.06
20
-3.98
11
5.06
21
-4.04
0
LINE
8
BLACK
6
CONTINUOUS
10
4.86
20
-3.94
11
4.8
21
-3.94
0
LINE
8
BLACK
6
CONTINUOUS
10
4.8
20
-3.94
11
4.8
21
-3.88
0
LINE
8
BLACK
6
CONTINUOUS
10
4.8
20
-3.88
11
4.86
21
-3.88
0
LINE
8
BLACK
6
CONTINUOUS
10
4.86
20
-3.88
11
4.86
21
-3.94
0
CIRCLE
8
BLACK
10
5.57
20
-3.91
40
0.00688976
0
CIRCLE
8
BLACK
10
5.57
20
-4.01
40
0.00688976
0
CIRCLE
8
BLACK
10
5.47
20
-3.91
40
0.00688976
0
CIRCLE
8
BLACK
10
5.47
20
-4.01
40
0.00688976
0
CIRCLE
8
BLACK
10
5.37
20
-3.91
40
0.00688976
0
CIRCLE
8
BLACK
10
5.37
20
-4.01
40
0.00688976
0
CIRCLE
8
BLACK
10
5.27
20
-3.91
40
0.00688976
0
CIRCLE
8
BLACK
10
5.27
20
-4.01
40
0.00688976
0
CIRCLE
8
BLACK
10
5.17
20
-3.91
40
0.00688976
0
CIRCLE
8
BLACK
10
5.17
20
-4.01
40
0.00688976
0
CIRCLE
8
BLACK
10
4.83
20
-4.01
40
0.00688976
0
CIRCLE
8
BLACK
10
4.83
20
-3.91
40
0.00688976
0
CIRCLE
8
BLACK
10
4.93
20
-4.01
40
0.00688976
0
CIRCLE
8
BLACK
10
4.93
20
-3.91
40
0.00688976
0
CIRCLE
8
BLACK
10
5.03
20
-4.01
40
0.00688976
0
CIRCLE
8
BLACK
10
5.03
20
-3.91
40
0.00688976
0
CIRCLE
8
BLACK
10
5.8
20
-4.4
40
0.00688976
0
CIRCLE
8
BLACK
10
4.6
20
-4
40
0.00688976
0
CIRCLE
8
BLACK
10
5.8
20
-4
40
0.00688976
0
CIRCLE
8
BLACK
10
4.6
20
-4.4
40
0.00688976
0
CIRCLE
8
BLACK
10
5.32
20
-4.47
40
0.00787402
0
CIRCLE
8
BLACK
10
5.46
20
-4.20148
40
0.00787402
0
CIRCLE
8
BLACK
10
5.01
20
-4.41
40
0.00787402
0
CIRCLE
8
BLACK
10
5.57
20
-4.19
40
0.00787402
0
CIRCLE
8
BLACK
10
5.32
20
-4.22
40
0.00787402
0
CIRCLE
8
BLACK
10
5.28
20
-4.22
40
0.00787402
0
CIRCLE
8
BLACK
10
5.4
20
-4.22
40
0.00787402
0
CIRCLE
8
BLACK
10
5.09
20
-4.47
40
0.00787402
0
CIRCLE
8
BLACK
10
5.09
20
-4.12
40
0.00787402
0
CIRCLE
8
BLACK
10
5.6
20
-4.35
40
0.00787402
0
CIRCLE
8
BLACK
10
5.4
20
-4.31
40
0.00787402
0
CIRCLE
8
BLACK
10
5.62
20
-4.19
40
0.00787402
0
CIRCLE
8
BLACK
10
5.09
20
-4.42
40
0.00787402
0
CIRCLE
8
BLACK
10
5.24
20
-4.22
40
0.00787402
0
CIRCLE
8
BLACK
10
5.67
20
-4.28
40
0.00787402
0
CIRCLE
8
BLACK
10
5.36
20
-4.22
40
0.00787402
0
CIRCLE
8
BLACK
10
5.06
20
-4.45
40
0.00787402
  0
ENDSEC
  0
EOF
