  0
SECTION
  2
HEADER
  9
$ANGBASE
  50
0.0
  9
$ANGDIR
  70
1
  9
$MEASUREMENT
  70
0
  0
ENDSEC
  0
SECTION
  2
TABLES
  0
TABLE
  2
LTYPE
  70
4
  0
LTYPE
  5
40F
  2
CONTINUOUS
  70
0
  3
Solid line
  72
65
  73
0
  40
0.0
  0
LTYPE
  5
410
  2
DASHDOT
 70
0
  3
Dash Dot ____ _ ____ _
 72
65
 73
4
 40
2.0
 49
1.25
 49
-0.25
 49
0.25
 49
-0.25
  0
LTYPE
  5
411
  2
DASHED
 70
0
  3
Dashed __ __ __ __ __
 72
65
 73
2
 40
0.75
 49
0.5
 49
-0.25
  0
LTYPE
  5
43B
  2
DOTTED
 70
0
  3
Dotted .  .  .  .
 72
65
 73
2
 40
0.2
 49
0.0
 49
-0.2
  0
ENDTAB
  0
TABLE
  2
STYLE
  70
4
  0
STYLE
  2
KICAD
  70
0
  40
0
  41
1
  42
1
  50
0
  71
0
  3
isocp.shx
  0
STYLE
  2
KICADB
  70
0
  40
0
  41
1
  42
1
  50
0
  71
0
  3
isocp.shx
  0
STYLE
  2
KICADI
  70
0
  40
0
  41
1
  42
1
  50
15
  71
0
  3
isocp.shx
  0
STYLE
  2
KICADBI
  70
0
  40
0
  41
1
  42
1
  50
15
  71
0
  3
isocp.shx
  0
ENDTAB
  0
TABLE
  2
LAYER
  70
1
  0
LAYER
  2
BLACK
  70
0
  62
7
  6
CONTINUOUS
  0
ENDTAB
  0
ENDSEC
  0
SECTION
  2
ENTITIES
0
LINE
8
BLACK
6
CONTINUOUS
10
4.43081
20
-3.8323
11
4.43292
21
-3.83047
0
LINE
8
BLACK
6
CONTINUOUS
10
4.43292
20
-3.83047
11
4.43498
21
-3.83002
0
LINE
8
BLACK
6
CONTINUOUS
10
4.43498
20
-3.83002
11
4.95856
21
-3.83002
0
LINE
8
BLACK
6
CONTINUOUS
10
4.95856
20
-3.83002
11
4.96124
21
-3.83081
0
LINE
8
BLACK
6
CONTINUOUS
10
4.96124
20
-3.83081
11
4.96307
21
-3.83292
0
LINE
8
BLACK
6
CONTINUOUS
10
4.96307
20
-3.83292
11
4.96347
21
-3.83569
0
LINE
8
BLACK
6
CONTINUOUS
10
4.96347
20
-3.83569
11
4.96231
21
-3.83823
0
LINE
8
BLACK
6
CONTINUOUS
10
4.96231
20
-3.83823
11
4.96206
21
-3.83849
0
LINE
8
BLACK
6
CONTINUOUS
10
4.96206
20
-3.83849
11
4.94203
21
-3.85853
0
LINE
8
BLACK
6
CONTINUOUS
10
4.94203
20
-3.85853
11
4.93957
21
-3.85987
0
LINE
8
BLACK
6
CONTINUOUS
10
4.93957
20
-3.85987
11
4.93852
21
-3.85998
0
LINE
8
BLACK
6
CONTINUOUS
10
4.93852
20
-3.85998
11
4.8981
21
-3.85998
0
LINE
8
BLACK
6
CONTINUOUS
10
4.8981
20
-3.85998
11
4.89566
21
-3.86025
0
LINE
8
BLACK
6
CONTINUOUS
10
4.89566
20
-3.86025
11
4.89029
21
-3.86226
0
LINE
8
BLACK
6
CONTINUOUS
10
4.89029
20
-3.86226
11
4.8857
21
-3.8657
0
LINE
8
BLACK
6
CONTINUOUS
10
4.8857
20
-3.8657
11
4.88549
21
-3.86598
0
LINE
8
BLACK
6
CONTINUOUS
10
4.88549
20
-3.86598
11
4.88549
21
-3.86598
0
LINE
8
BLACK
6
CONTINUOUS
10
4.88549
20
-3.86598
11
4.88397
21
-3.86801
0
LINE
8
BLACK
6
CONTINUOUS
10
4.88397
20
-3.86801
11
4.88173
21
-3.86968
0
LINE
8
BLACK
6
CONTINUOUS
10
4.88173
20
-3.86968
11
4.87894
21
-3.86988
0
LINE
8
BLACK
6
CONTINUOUS
10
4.87894
20
-3.86988
11
4.87649
21
-3.86854
0
LINE
8
BLACK
6
CONTINUOUS
10
4.87649
20
-3.86854
11
4.87603
21
-3.86801
0
LINE
8
BLACK
6
CONTINUOUS
10
4.87603
20
-3.86801
11
4.87451
21
-3.86598
0
LINE
8
BLACK
6
CONTINUOUS
10
4.87451
20
-3.86598
11
4.87451
21
-3.86598
0
LINE
8
BLACK
6
CONTINUOUS
10
4.87451
20
-3.86598
11
4.8743
21
-3.8657
0
LINE
8
BLACK
6
CONTINUOUS
10
4.8743
20
-3.8657
11
4.86971
21
-3.86226
0
LINE
8
BLACK
6
CONTINUOUS
10
4.86971
20
-3.86226
11
4.86434
21
-3.86025
0
LINE
8
BLACK
6
CONTINUOUS
10
4.86434
20
-3.86025
11
4.8619
21
-3.85998
0
LINE
8
BLACK
6
CONTINUOUS
10
4.8619
20
-3.85998
11
4.7981
21
-3.85998
0
LINE
8
BLACK
6
CONTINUOUS
10
4.7981
20
-3.85998
11
4.79566
21
-3.86025
0
LINE
8
BLACK
6
CONTINUOUS
10
4.79566
20
-3.86025
11
4.79029
21
-3.86226
0
LINE
8
BLACK
6
CONTINUOUS
10
4.79029
20
-3.86226
11
4.7857
21
-3.8657
0
LINE
8
BLACK
6
CONTINUOUS
10
4.7857
20
-3.8657
11
4.78226
21
-3.87029
0
LINE
8
BLACK
6
CONTINUOUS
10
4.78226
20
-3.87029
11
4.78025
21
-3.87566
0
LINE
8
BLACK
6
CONTINUOUS
10
4.78025
20
-3.87566
11
4.77998
21
-3.8781
0
LINE
8
BLACK
6
CONTINUOUS
10
4.77998
20
-3.8781
11
4.77998
21
-3.9419
0
LINE
8
BLACK
6
CONTINUOUS
10
4.77998
20
-3.9419
11
4.78025
21
-3.94434
0
LINE
8
BLACK
6
CONTINUOUS
10
4.78025
20
-3.94434
11
4.78226
21
-3.94971
0
LINE
8
BLACK
6
CONTINUOUS
10
4.78226
20
-3.94971
11
4.7857
21
-3.9543
0
LINE
8
BLACK
6
CONTINUOUS
10
4.7857
20
-3.9543
11
4.78598
21
-3.95451
0
LINE
8
BLACK
6
CONTINUOUS
10
4.78598
20
-3.95451
11
4.78801
21
-3.95603
0
LINE
8
BLACK
6
CONTINUOUS
10
4.78801
20
-3.95603
11
4.78968
21
-3.95827
0
LINE
8
BLACK
6
CONTINUOUS
10
4.78968
20
-3.95827
11
4.78988
21
-3.96106
0
LINE
8
BLACK
6
CONTINUOUS
10
4.78988
20
-3.96106
11
4.78854
21
-3.96351
0
LINE
8
BLACK
6
CONTINUOUS
10
4.78854
20
-3.96351
11
4.78801
21
-3.96397
0
LINE
8
BLACK
6
CONTINUOUS
10
4.78801
20
-3.96397
11
4.7857
21
-3.9657
0
LINE
8
BLACK
6
CONTINUOUS
10
4.7857
20
-3.9657
11
4.78226
21
-3.97029
0
LINE
8
BLACK
6
CONTINUOUS
10
4.78226
20
-3.97029
11
4.78025
21
-3.97566
0
LINE
8
BLACK
6
CONTINUOUS
10
4.78025
20
-3.97566
11
4.77998
21
-3.9781
0
LINE
8
BLACK
6
CONTINUOUS
10
4.77998
20
-3.9781
11
4.77998
21
-4.0419
0
LINE
8
BLACK
6
CONTINUOUS
10
4.77998
20
-4.0419
11
4.78025
21
-4.04434
0
LINE
8
BLACK
6
CONTINUOUS
10
4.78025
20
-4.04434
11
4.78226
21
-4.04971
0
LINE
8
BLACK
6
CONTINUOUS
10
4.78226
20
-4.04971
11
4.7857
21
-4.0543
0
LINE
8
BLACK
6
CONTINUOUS
10
4.7857
20
-4.0543
11
4.79029
21
-4.05774
0
LINE
8
BLACK
6
CONTINUOUS
10
4.79029
20
-4.05774
11
4.79566
21
-4.05975
0
LINE
8
BLACK
6
CONTINUOUS
10
4.79566
20
-4.05975
11
4.7981
21
-4.06002
0
LINE
8
BLACK
6
CONTINUOUS
10
4.7981
20
-4.06002
11
4.8619
21
-4.06002
0
LINE
8
BLACK
6
CONTINUOUS
10
4.8619
20
-4.06002
11
4.86434
21
-4.05975
0
LINE
8
BLACK
6
CONTINUOUS
10
4.86434
20
-4.05975
11
4.86971
21
-4.05774
0
LINE
8
BLACK
6
CONTINUOUS
10
4.86971
20
-4.05774
11
4.8743
21
-4.0543
0
LINE
8
BLACK
6
CONTINUOUS
10
4.8743
20
-4.0543
11
4.87603
21
-4.05199
0
LINE
8
BLACK
6
CONTINUOUS
10
4.87603
20
-4.05199
11
4.87827
21
-4.05032
0
LINE
8
BLACK
6
CONTINUOUS
10
4.87827
20
-4.05032
11
4.88106
21
-4.05012
0
LINE
8
BLACK
6
CONTINUOUS
10
4.88106
20
-4.05012
11
4.88351
21
-4.05146
0
LINE
8
BLACK
6
CONTINUOUS
10
4.88351
20
-4.05146
11
4.88397
21
-4.05199
0
LINE
8
BLACK
6
CONTINUOUS
10
4.88397
20
-4.05199
11
4.8857
21
-4.0543
0
LINE
8
BLACK
6
CONTINUOUS
10
4.8857
20
-4.0543
11
4.89029
21
-4.05774
0
LINE
8
BLACK
6
CONTINUOUS
10
4.89029
20
-4.05774
11
4.89566
21
-4.05975
0
LINE
8
BLACK
6
CONTINUOUS
10
4.89566
20
-4.05975
11
4.89597
21
-4.05979
0
LINE
8
BLACK
6
CONTINUOUS
10
4.89597
20
-4.05979
11
4.89597
21
-4.05979
0
LINE
8
BLACK
6
CONTINUOUS
10
4.89597
20
-4.05979
11
4.89721
21
-4.05992
0
LINE
8
BLACK
6
CONTINUOUS
10
4.89721
20
-4.05992
11
4.89768
21
-4.05997
0
LINE
8
BLACK
6
CONTINUOUS
10
4.89768
20
-4.05997
11
4.90026
21
-4.06105
0
LINE
8
BLACK
6
CONTINUOUS
10
4.90026
20
-4.06105
11
4.90185
21
-4.06334
0
LINE
8
BLACK
6
CONTINUOUS
10
4.90185
20
-4.06334
11
4.90211
21
-4.06491
0
LINE
8
BLACK
6
CONTINUOUS
10
4.90211
20
-4.06491
11
4.90211
21
-4.26886
0
LINE
8
BLACK
6
CONTINUOUS
10
4.90211
20
-4.26886
11
4.90209
21
-4.2692
0
LINE
8
BLACK
6
CONTINUOUS
10
4.90209
20
-4.2692
11
4.90194
21
-4.27147
0
LINE
8
BLACK
6
CONTINUOUS
10
4.90194
20
-4.27147
11
4.90199
21
-4.27176
0
LINE
8
BLACK
6
CONTINUOUS
10
4.90199
20
-4.27176
11
4.90199
21
-4.27176
0
LINE
8
BLACK
6
CONTINUOUS
10
4.90199
20
-4.27176
11
4.90237
21
-4.27395
0
LINE
8
BLACK
6
CONTINUOUS
10
4.90237
20
-4.27395
11
4.90241
21
-4.27421
0
LINE
8
BLACK
6
CONTINUOUS
10
4.90241
20
-4.27421
11
4.90271
21
-4.2767
0
LINE
8
BLACK
6
CONTINUOUS
10
4.90271
20
-4.2767
11
4.90282
21
-4.27698
0
LINE
8
BLACK
6
CONTINUOUS
10
4.90282
20
-4.27698
11
4.90284
21
-4.27708
0
LINE
8
BLACK
6
CONTINUOUS
10
4.90284
20
-4.27708
11
4.90302
21
-4.27773
0
LINE
8
BLACK
6
CONTINUOUS
10
4.90302
20
-4.27773
11
4.90305
21
-4.27783
0
LINE
8
BLACK
6
CONTINUOUS
10
4.90305
20
-4.27783
11
4.9031
21
-4.27812
0
LINE
8
BLACK
6
CONTINUOUS
10
4.9031
20
-4.27812
11
4.90322
21
-4.2784
0
LINE
8
BLACK
6
CONTINUOUS
10
4.90322
20
-4.2784
11
4.90411
21
-4.28043
0
LINE
8
BLACK
6
CONTINUOUS
10
4.90411
20
-4.28043
11
4.90421
21
-4.28067
0
LINE
8
BLACK
6
CONTINUOUS
10
4.90421
20
-4.28067
11
4.9051
21
-4.28302
0
LINE
8
BLACK
6
CONTINUOUS
10
4.9051
20
-4.28302
11
4.90527
21
-4.28326
0
LINE
8
BLACK
6
CONTINUOUS
10
4.90527
20
-4.28326
11
4.90532
21
-4.28336
0
LINE
8
BLACK
6
CONTINUOUS
10
4.90532
20
-4.28336
11
4.90564
21
-4.28394
0
LINE
8
BLACK
6
CONTINUOUS
10
4.90564
20
-4.28394
11
4.90569
21
-4.28403
0
LINE
8
BLACK
6
CONTINUOUS
10
4.90569
20
-4.28403
11
4.90581
21
-4.2843
0
LINE
8
BLACK
6
CONTINUOUS
10
4.90581
20
-4.2843
11
4.90705
21
-4.28591
0
LINE
8
BLACK
6
CONTINUOUS
10
4.90705
20
-4.28591
11
4.90735
21
-4.2863
0
LINE
8
BLACK
6
CONTINUOUS
10
4.90735
20
-4.2863
11
4.9075
21
-4.28651
0
LINE
8
BLACK
6
CONTINUOUS
10
4.9075
20
-4.28651
11
4.90875
21
-4.28834
0
LINE
8
BLACK
6
CONTINUOUS
10
4.90875
20
-4.28834
11
4.90875
21
-4.28834
0
LINE
8
BLACK
6
CONTINUOUS
10
4.90875
20
-4.28834
11
4.90892
21
-4.28858
0
LINE
8
BLACK
6
CONTINUOUS
10
4.90892
20
-4.28858
11
4.90915
21
-4.28878
0
LINE
8
BLACK
6
CONTINUOUS
10
4.90915
20
-4.28878
11
4.90915
21
-4.28878
0
LINE
8
BLACK
6
CONTINUOUS
10
4.90915
20
-4.28878
11
4.91075
21
-4.29021
0
LINE
8
BLACK
6
CONTINUOUS
10
4.91075
20
-4.29021
11
4.91096
21
-4.29041
0
LINE
8
BLACK
6
CONTINUOUS
10
4.91096
20
-4.29041
11
4.94947
21
-4.32892
0
LINE
8
BLACK
6
CONTINUOUS
10
4.94947
20
-4.32892
11
4.9497
21
-4.32916
0
LINE
8
BLACK
6
CONTINUOUS
10
4.9497
20
-4.32916
11
4.9512
21
-4.33088
0
LINE
8
BLACK
6
CONTINUOUS
10
4.9512
20
-4.33088
11
4.95144
21
-4.33105
0
LINE
8
BLACK
6
CONTINUOUS
10
4.95144
20
-4.33105
11
4.95326
21
-4.33233
0
LINE
8
BLACK
6
CONTINUOUS
10
4.95326
20
-4.33233
11
4.95347
21
-4.33248
0
LINE
8
BLACK
6
CONTINUOUS
10
4.95347
20
-4.33248
11
4.95544
21
-4.33403
0
LINE
8
BLACK
6
CONTINUOUS
10
4.95544
20
-4.33403
11
4.95572
21
-4.33416
0
LINE
8
BLACK
6
CONTINUOUS
10
4.95572
20
-4.33416
11
4.95581
21
-4.33421
0
LINE
8
BLACK
6
CONTINUOUS
10
4.95581
20
-4.33421
11
4.95638
21
-4.33454
0
LINE
8
BLACK
6
CONTINUOUS
10
4.95638
20
-4.33454
11
4.95648
21
-4.33459
0
LINE
8
BLACK
6
CONTINUOUS
10
4.95648
20
-4.33459
11
4.95672
21
-4.33476
0
LINE
8
BLACK
6
CONTINUOUS
10
4.95672
20
-4.33476
11
4.957
21
-4.33487
0
LINE
8
BLACK
6
CONTINUOUS
10
4.957
20
-4.33487
11
4.957
21
-4.33487
0
LINE
8
BLACK
6
CONTINUOUS
10
4.957
20
-4.33487
11
4.95907
21
-4.33568
0
LINE
8
BLACK
6
CONTINUOUS
10
4.95907
20
-4.33568
11
4.9593
21
-4.33578
0
LINE
8
BLACK
6
CONTINUOUS
10
4.9593
20
-4.33578
11
4.9616
21
-4.33681
0
LINE
8
BLACK
6
CONTINUOUS
10
4.9616
20
-4.33681
11
4.96189
21
-4.33687
0
LINE
8
BLACK
6
CONTINUOUS
10
4.96189
20
-4.33687
11
4.96199
21
-4.3369
0
LINE
8
BLACK
6
CONTINUOUS
10
4.96199
20
-4.3369
11
4.96263
21
-4.33708
0
LINE
8
BLACK
6
CONTINUOUS
10
4.96263
20
-4.33708
11
4.96273
21
-4.33711
0
LINE
8
BLACK
6
CONTINUOUS
10
4.96273
20
-4.33711
11
4.96301
21
-4.33722
0
LINE
8
BLACK
6
CONTINUOUS
10
4.96301
20
-4.33722
11
4.96331
21
-4.33725
0
LINE
8
BLACK
6
CONTINUOUS
10
4.96331
20
-4.33725
11
4.96331
21
-4.33725
0
LINE
8
BLACK
6
CONTINUOUS
10
4.96331
20
-4.33725
11
4.96447
21
-4.33741
0
LINE
8
BLACK
6
CONTINUOUS
10
4.96447
20
-4.33741
11
4.96551
21
-4.33754
0
LINE
8
BLACK
6
CONTINUOUS
10
4.96551
20
-4.33754
11
4.96576
21
-4.33758
0
LINE
8
BLACK
6
CONTINUOUS
10
4.96576
20
-4.33758
11
4.96824
21
-4.33804
0
LINE
8
BLACK
6
CONTINUOUS
10
4.96824
20
-4.33804
11
4.96853
21
-4.33803
0
LINE
8
BLACK
6
CONTINUOUS
10
4.96853
20
-4.33803
11
4.96853
21
-4.33803
0
LINE
8
BLACK
6
CONTINUOUS
10
4.96853
20
-4.33803
11
4.97068
21
-4.3379
0
LINE
8
BLACK
6
CONTINUOUS
10
4.97068
20
-4.3379
11
4.97097
21
-4.33789
0
LINE
8
BLACK
6
CONTINUOUS
10
4.97097
20
-4.33789
11
4.98939
21
-4.33789
0
LINE
8
BLACK
6
CONTINUOUS
10
4.98939
20
-4.33789
11
4.99207
21
-4.33868
0
LINE
8
BLACK
6
CONTINUOUS
10
4.99207
20
-4.33868
11
4.9939
21
-4.34079
0
LINE
8
BLACK
6
CONTINUOUS
10
4.9939
20
-4.34079
11
4.99435
21
-4.34285
0
LINE
8
BLACK
6
CONTINUOUS
10
4.99435
20
-4.34285
11
4.99435
21
-4.37467
0
LINE
8
BLACK
6
CONTINUOUS
10
4.99435
20
-4.37467
11
4.99356
21
-4.37736
0
LINE
8
BLACK
6
CONTINUOUS
10
4.99356
20
-4.37736
11
4.99201
21
-4.37884
0
LINE
8
BLACK
6
CONTINUOUS
10
4.99201
20
-4.37884
11
4.99202
21
-4.37885
0
LINE
8
BLACK
6
CONTINUOUS
10
4.99202
20
-4.37885
11
4.99191
21
-4.37893
0
LINE
8
BLACK
6
CONTINUOUS
10
4.99191
20
-4.37893
11
4.99191
21
-4.37893
0
LINE
8
BLACK
6
CONTINUOUS
10
4.99191
20
-4.37893
11
4.98593
21
-4.38327
0
LINE
8
BLACK
6
CONTINUOUS
10
4.98593
20
-4.38327
11
4.98576
21
-4.38347
0
LINE
8
BLACK
6
CONTINUOUS
10
4.98576
20
-4.38347
11
4.98576
21
-4.38347
0
LINE
8
BLACK
6
CONTINUOUS
10
4.98576
20
-4.38347
11
4.98243
21
-4.38716
0
LINE
8
BLACK
6
CONTINUOUS
10
4.98243
20
-4.38716
11
4.9809
21
-4.38886
0
LINE
8
BLACK
6
CONTINUOUS
10
4.9809
20
-4.38886
11
4.98041
21
-4.38972
0
LINE
8
BLACK
6
CONTINUOUS
10
4.98041
20
-4.38972
11
4.97748
21
-4.39478
0
LINE
8
BLACK
6
CONTINUOUS
10
4.97748
20
-4.39478
11
4.97714
21
-4.39537
0
LINE
8
BLACK
6
CONTINUOUS
10
4.97714
20
-4.39537
11
4.97482
21
-4.40252
0
LINE
8
BLACK
6
CONTINUOUS
10
4.97482
20
-4.40252
11
4.97479
21
-4.40278
0
LINE
8
BLACK
6
CONTINUOUS
10
4.97479
20
-4.40278
11
4.97479
21
-4.40278
0
LINE
8
BLACK
6
CONTINUOUS
10
4.97479
20
-4.40278
11
4.97424
21
-4.40801
0
LINE
8
BLACK
6
CONTINUOUS
10
4.97424
20
-4.40801
11
4.97404
21
-4.41
0
LINE
8
BLACK
6
CONTINUOUS
10
4.97404
20
-4.41
11
4.97482
21
-4.41748
0
LINE
8
BLACK
6
CONTINUOUS
10
4.97482
20
-4.41748
11
4.97714
21
-4.42463
0
LINE
8
BLACK
6
CONTINUOUS
10
4.97714
20
-4.42463
11
4.9809
21
-4.43114
0
LINE
8
BLACK
6
CONTINUOUS
10
4.9809
20
-4.43114
11
4.98108
21
-4.43133
0
LINE
8
BLACK
6
CONTINUOUS
10
4.98108
20
-4.43133
11
4.98108
21
-4.43133
0
LINE
8
BLACK
6
CONTINUOUS
10
4.98108
20
-4.43133
11
4.98458
21
-4.43523
0
LINE
8
BLACK
6
CONTINUOUS
10
4.98458
20
-4.43523
11
4.98593
21
-4.43673
0
LINE
8
BLACK
6
CONTINUOUS
10
4.98593
20
-4.43673
11
4.98933
21
-4.43919
0
LINE
8
BLACK
6
CONTINUOUS
10
4.98933
20
-4.43919
11
4.99153
21
-4.44079
0
LINE
8
BLACK
6
CONTINUOUS
10
4.99153
20
-4.44079
11
4.99202
21
-4.44115
0
LINE
8
BLACK
6
CONTINUOUS
10
4.99202
20
-4.44115
11
4.99225
21
-4.44125
0
LINE
8
BLACK
6
CONTINUOUS
10
4.99225
20
-4.44125
11
4.99226
21
-4.44125
0
LINE
8
BLACK
6
CONTINUOUS
10
4.99226
20
-4.44125
11
4.99865
21
-4.4441
0
LINE
8
BLACK
6
CONTINUOUS
10
4.99865
20
-4.4441
11
4.99889
21
-4.4442
0
LINE
8
BLACK
6
CONTINUOUS
10
4.99889
20
-4.4442
11
5.00256
21
-4.44499
0
LINE
8
BLACK
6
CONTINUOUS
10
5.00256
20
-4.44499
11
5.00599
21
-4.44571
0
LINE
8
BLACK
6
CONTINUOUS
10
5.00599
20
-4.44571
11
5.00599
21
-4.44571
0
LINE
8
BLACK
6
CONTINUOUS
10
5.00599
20
-4.44571
11
5.00624
21
-4.44577
0
LINE
8
BLACK
6
CONTINUOUS
10
5.00624
20
-4.44577
11
5.01376
21
-4.44577
0
LINE
8
BLACK
6
CONTINUOUS
10
5.01376
20
-4.44577
11
5.01401
21
-4.44571
0
LINE
8
BLACK
6
CONTINUOUS
10
5.01401
20
-4.44571
11
5.01401
21
-4.44571
0
LINE
8
BLACK
6
CONTINUOUS
10
5.01401
20
-4.44571
11
5.01744
21
-4.44499
0
LINE
8
BLACK
6
CONTINUOUS
10
5.01744
20
-4.44499
11
5.02111
21
-4.4442
0
LINE
8
BLACK
6
CONTINUOUS
10
5.02111
20
-4.4442
11
5.02135
21
-4.4441
0
LINE
8
BLACK
6
CONTINUOUS
10
5.02135
20
-4.4441
11
5.02774
21
-4.44125
0
LINE
8
BLACK
6
CONTINUOUS
10
5.02774
20
-4.44125
11
5.02775
21
-4.44125
0
LINE
8
BLACK
6
CONTINUOUS
10
5.02775
20
-4.44125
11
5.02798
21
-4.44115
0
LINE
8
BLACK
6
CONTINUOUS
10
5.02798
20
-4.44115
11
5.02847
21
-4.44079
0
LINE
8
BLACK
6
CONTINUOUS
10
5.02847
20
-4.44079
11
5.03067
21
-4.43919
0
LINE
8
BLACK
6
CONTINUOUS
10
5.03067
20
-4.43919
11
5.03407
21
-4.43673
0
LINE
8
BLACK
6
CONTINUOUS
10
5.03407
20
-4.43673
11
5.03542
21
-4.43523
0
LINE
8
BLACK
6
CONTINUOUS
10
5.03542
20
-4.43523
11
5.03892
21
-4.43133
0
LINE
8
BLACK
6
CONTINUOUS
10
5.03892
20
-4.43133
11
5.03892
21
-4.43133
0
LINE
8
BLACK
6
CONTINUOUS
10
5.03892
20
-4.43133
11
5.0391
21
-4.43114
0
LINE
8
BLACK
6
CONTINUOUS
10
5.0391
20
-4.43114
11
5.04286
21
-4.42463
0
LINE
8
BLACK
6
CONTINUOUS
10
5.04286
20
-4.42463
11
5.04518
21
-4.41748
0
LINE
8
BLACK
6
CONTINUOUS
10
5.04518
20
-4.41748
11
5.04535
21
-4.41588
0
LINE
8
BLACK
6
CONTINUOUS
10
5.04535
20
-4.41588
11
5.04641
21
-4.41329
0
LINE
8
BLACK
6
CONTINUOUS
10
5.04641
20
-4.41329
11
5.04665
21
-4.41305
0
LINE
8
BLACK
6
CONTINUOUS
10
5.04665
20
-4.41305
11
5.04664
21
-4.41304
0
LINE
8
BLACK
6
CONTINUOUS
10
5.04664
20
-4.41304
11
5.04684
21
-4.41282
0
LINE
8
BLACK
6
CONTINUOUS
10
5.04684
20
-4.41282
11
5.04706
21
-4.41262
0
LINE
8
BLACK
6
CONTINUOUS
10
5.04706
20
-4.41262
11
5.04851
21
-4.41056
0
LINE
8
BLACK
6
CONTINUOUS
10
5.04851
20
-4.41056
11
5.04866
21
-4.41035
0
LINE
8
BLACK
6
CONTINUOUS
10
5.04866
20
-4.41035
11
5.05003
21
-4.40861
0
LINE
8
BLACK
6
CONTINUOUS
10
5.05003
20
-4.40861
11
5.05022
21
-4.40837
0
LINE
8
BLACK
6
CONTINUOUS
10
5.05022
20
-4.40837
11
5.05034
21
-4.4081
0
LINE
8
BLACK
6
CONTINUOUS
10
5.05034
20
-4.4081
11
5.05039
21
-4.40801
0
LINE
8
BLACK
6
CONTINUOUS
10
5.05039
20
-4.40801
11
5.05072
21
-4.40743
0
LINE
8
BLACK
6
CONTINUOUS
10
5.05072
20
-4.40743
11
5.05077
21
-4.40734
0
LINE
8
BLACK
6
CONTINUOUS
10
5.05077
20
-4.40734
11
5.05094
21
-4.4071
0
LINE
8
BLACK
6
CONTINUOUS
10
5.05094
20
-4.4071
11
5.05105
21
-4.40682
0
LINE
8
BLACK
6
CONTINUOUS
10
5.05105
20
-4.40682
11
5.05105
21
-4.40682
0
LINE
8
BLACK
6
CONTINUOUS
10
5.05105
20
-4.40682
11
5.05186
21
-4.40475
0
LINE
8
BLACK
6
CONTINUOUS
10
5.05186
20
-4.40475
11
5.05196
21
-4.40451
0
LINE
8
BLACK
6
CONTINUOUS
10
5.05196
20
-4.40451
11
5.05299
21
-4.40222
0
LINE
8
BLACK
6
CONTINUOUS
10
5.05299
20
-4.40222
11
5.05305
21
-4.40193
0
LINE
8
BLACK
6
CONTINUOUS
10
5.05305
20
-4.40193
11
5.05308
21
-4.40183
0
LINE
8
BLACK
6
CONTINUOUS
10
5.05308
20
-4.40183
11
5.05326
21
-4.40119
0
LINE
8
BLACK
6
CONTINUOUS
10
5.05326
20
-4.40119
11
5.05329
21
-4.40109
0
LINE
8
BLACK
6
CONTINUOUS
10
5.05329
20
-4.40109
11
5.0534
21
-4.40081
0
LINE
8
BLACK
6
CONTINUOUS
10
5.0534
20
-4.40081
11
5.05344
21
-4.40051
0
LINE
8
BLACK
6
CONTINUOUS
10
5.05344
20
-4.40051
11
5.05364
21
-4.39894
0
LINE
8
BLACK
6
CONTINUOUS
10
5.05364
20
-4.39894
11
5.05477
21
-4.39639
0
LINE
8
BLACK
6
CONTINUOUS
10
5.05477
20
-4.39639
11
5.05711
21
-4.39485
0
LINE
8
BLACK
6
CONTINUOUS
10
5.05711
20
-4.39485
11
5.05923
21
-4.39478
0
LINE
8
BLACK
6
CONTINUOUS
10
5.05923
20
-4.39478
11
5.05924
21
-4.39469
0
LINE
8
BLACK
6
CONTINUOUS
10
5.05924
20
-4.39469
11
5.06156
21
-4.39495
0
LINE
8
BLACK
6
CONTINUOUS
10
5.06156
20
-4.39495
11
5.06182
21
-4.39496
0
LINE
8
BLACK
6
CONTINUOUS
10
5.06182
20
-4.39496
11
5.06468
21
-4.39496
0
LINE
8
BLACK
6
CONTINUOUS
10
5.06468
20
-4.39496
11
5.06528
21
-4.39478
0
LINE
8
BLACK
6
CONTINUOUS
10
5.06528
20
-4.39478
11
5.06533
21
-4.39473
0
LINE
8
BLACK
6
CONTINUOUS
10
5.06533
20
-4.39473
11
5.06539
21
-4.39443
0
LINE
8
BLACK
6
CONTINUOUS
10
5.06539
20
-4.39443
11
5.06539
21
-4.37496
0
LINE
8
BLACK
6
CONTINUOUS
10
5.06539
20
-4.37496
11
5.06358
21
-4.37496
0
LINE
8
BLACK
6
CONTINUOUS
10
5.06358
20
-4.37496
11
5.06358
21
-4.33165
0
LINE
8
BLACK
6
CONTINUOUS
10
5.06358
20
-4.33165
11
5.0872
21
-4.33165
0
LINE
8
BLACK
6
CONTINUOUS
10
5.0872
20
-4.33165
11
5.0872
21
-4.37496
0
LINE
8
BLACK
6
CONTINUOUS
10
5.0872
20
-4.37496
11
5.08539
21
-4.37496
0
LINE
8
BLACK
6
CONTINUOUS
10
5.08539
20
-4.37496
11
5.08539
21
-4.39425
0
LINE
8
BLACK
6
CONTINUOUS
10
5.08539
20
-4.39425
11
5.08557
21
-4.39485
0
LINE
8
BLACK
6
CONTINUOUS
10
5.08557
20
-4.39485
11
5.08562
21
-4.39489
0
LINE
8
BLACK
6
CONTINUOUS
10
5.08562
20
-4.39489
11
5.08593
21
-4.39496
0
LINE
8
BLACK
6
CONTINUOUS
10
5.08593
20
-4.39496
11
5.08896
21
-4.39496
0
LINE
8
BLACK
6
CONTINUOUS
10
5.08896
20
-4.39496
11
5.08923
21
-4.39495
0
LINE
8
BLACK
6
CONTINUOUS
10
5.08923
20
-4.39495
11
5.09123
21
-4.39473
0
LINE
8
BLACK
6
CONTINUOUS
10
5.09123
20
-4.39473
11
5.09183
21
-4.39459
0
LINE
8
BLACK
6
CONTINUOUS
10
5.09183
20
-4.39459
11
5.09309
21
-4.39412
0
LINE
8
BLACK
6
CONTINUOUS
10
5.09309
20
-4.39412
11
5.09588
21
-4.39391
0
LINE
8
BLACK
6
CONTINUOUS
10
5.09588
20
-4.39391
11
5.09833
21
-4.39525
0
LINE
8
BLACK
6
CONTINUOUS
10
5.09833
20
-4.39525
11
5.09947
21
-4.39701
0
LINE
8
BLACK
6
CONTINUOUS
10
5.09947
20
-4.39701
11
5.09971
21
-4.39762
0
LINE
8
BLACK
6
CONTINUOUS
10
5.09971
20
-4.39762
11
5.09987
21
-4.39787
0
LINE
8
BLACK
6
CONTINUOUS
10
5.09987
20
-4.39787
11
5.09992
21
-4.39796
0
LINE
8
BLACK
6
CONTINUOUS
10
5.09992
20
-4.39796
11
5.10025
21
-4.39855
0
LINE
8
BLACK
6
CONTINUOUS
10
5.10025
20
-4.39855
11
5.1003
21
-4.39864
0
LINE
8
BLACK
6
CONTINUOUS
10
5.1003
20
-4.39864
11
5.10042
21
-4.39891
0
LINE
8
BLACK
6
CONTINUOUS
10
5.10042
20
-4.39891
11
5.10188
21
-4.40081
0
LINE
8
BLACK
6
CONTINUOUS
10
5.10188
20
-4.40081
11
5.10195
21
-4.40091
0
LINE
8
BLACK
6
CONTINUOUS
10
5.10195
20
-4.40091
11
5.1021
21
-4.40112
0
LINE
8
BLACK
6
CONTINUOUS
10
5.1021
20
-4.40112
11
5.10336
21
-4.40294
0
LINE
8
BLACK
6
CONTINUOUS
10
5.10336
20
-4.40294
11
5.10336
21
-4.40294
0
LINE
8
BLACK
6
CONTINUOUS
10
5.10336
20
-4.40294
11
5.10353
21
-4.40319
0
LINE
8
BLACK
6
CONTINUOUS
10
5.10353
20
-4.40319
11
5.10375
21
-4.40339
0
LINE
8
BLACK
6
CONTINUOUS
10
5.10375
20
-4.40339
11
5.10375
21
-4.40339
0
LINE
8
BLACK
6
CONTINUOUS
10
5.10375
20
-4.40339
11
5.10536
21
-4.40482
0
LINE
8
BLACK
6
CONTINUOUS
10
5.10536
20
-4.40482
11
5.10557
21
-4.40502
0
LINE
8
BLACK
6
CONTINUOUS
10
5.10557
20
-4.40502
11
5.12947
21
-4.42892
0
LINE
8
BLACK
6
CONTINUOUS
10
5.12947
20
-4.42892
11
5.1297
21
-4.42916
0
LINE
8
BLACK
6
CONTINUOUS
10
5.1297
20
-4.42916
11
5.1312
21
-4.43088
0
LINE
8
BLACK
6
CONTINUOUS
10
5.1312
20
-4.43088
11
5.13144
21
-4.43105
0
LINE
8
BLACK
6
CONTINUOUS
10
5.13144
20
-4.43105
11
5.13326
21
-4.43233
0
LINE
8
BLACK
6
CONTINUOUS
10
5.13326
20
-4.43233
11
5.13346
21
-4.43248
0
LINE
8
BLACK
6
CONTINUOUS
10
5.13346
20
-4.43248
11
5.13544
21
-4.43403
0
LINE
8
BLACK
6
CONTINUOUS
10
5.13544
20
-4.43403
11
5.13572
21
-4.43416
0
LINE
8
BLACK
6
CONTINUOUS
10
5.13572
20
-4.43416
11
5.13581
21
-4.43421
0
LINE
8
BLACK
6
CONTINUOUS
10
5.13581
20
-4.43421
11
5.13639
21
-4.43454
0
LINE
8
BLACK
6
CONTINUOUS
10
5.13639
20
-4.43454
11
5.13648
21
-4.43459
0
LINE
8
BLACK
6
CONTINUOUS
10
5.13648
20
-4.43459
11
5.13672
21
-4.43476
0
LINE
8
BLACK
6
CONTINUOUS
10
5.13672
20
-4.43476
11
5.137
21
-4.43487
0
LINE
8
BLACK
6
CONTINUOUS
10
5.137
20
-4.43487
11
5.137
21
-4.43487
0
LINE
8
BLACK
6
CONTINUOUS
10
5.137
20
-4.43487
11
5.13907
21
-4.43568
0
LINE
8
BLACK
6
CONTINUOUS
10
5.13907
20
-4.43568
11
5.1393
21
-4.43578
0
LINE
8
BLACK
6
CONTINUOUS
10
5.1393
20
-4.43578
11
5.1416
21
-4.43681
0
LINE
8
BLACK
6
CONTINUOUS
10
5.1416
20
-4.43681
11
5.14189
21
-4.43687
0
LINE
8
BLACK
6
CONTINUOUS
10
5.14189
20
-4.43687
11
5.14199
21
-4.4369
0
LINE
8
BLACK
6
CONTINUOUS
10
5.14199
20
-4.4369
11
5.14263
21
-4.43708
0
LINE
8
BLACK
6
CONTINUOUS
10
5.14263
20
-4.43708
11
5.14273
21
-4.43711
0
LINE
8
BLACK
6
CONTINUOUS
10
5.14273
20
-4.43711
11
5.14301
21
-4.43722
0
LINE
8
BLACK
6
CONTINUOUS
10
5.14301
20
-4.43722
11
5.14331
21
-4.43725
0
LINE
8
BLACK
6
CONTINUOUS
10
5.14331
20
-4.43725
11
5.14331
21
-4.43725
0
LINE
8
BLACK
6
CONTINUOUS
10
5.14331
20
-4.43725
11
5.14459
21
-4.43742
0
LINE
8
BLACK
6
CONTINUOUS
10
5.14459
20
-4.43742
11
5.14551
21
-4.43754
0
LINE
8
BLACK
6
CONTINUOUS
10
5.14551
20
-4.43754
11
5.14576
21
-4.43758
0
LINE
8
BLACK
6
CONTINUOUS
10
5.14576
20
-4.43758
11
5.14824
21
-4.43804
0
LINE
8
BLACK
6
CONTINUOUS
10
5.14824
20
-4.43804
11
5.14853
21
-4.43803
0
LINE
8
BLACK
6
CONTINUOUS
10
5.14853
20
-4.43803
11
5.14853
21
-4.43803
0
LINE
8
BLACK
6
CONTINUOUS
10
5.14853
20
-4.43803
11
5.15068
21
-4.4379
0
LINE
8
BLACK
6
CONTINUOUS
10
5.15068
20
-4.4379
11
5.15097
21
-4.43789
0
LINE
8
BLACK
6
CONTINUOUS
10
5.15097
20
-4.43789
11
5.15533
21
-4.43789
0
LINE
8
BLACK
6
CONTINUOUS
10
5.15533
20
-4.43789
11
5.15802
21
-4.43868
0
LINE
8
BLACK
6
CONTINUOUS
10
5.15802
20
-4.43868
11
5.15957
21
-4.44047
0
LINE
8
BLACK
6
CONTINUOUS
10
5.15957
20
-4.44047
11
5.17047
21
-4.44047
0
LINE
8
BLACK
6
CONTINUOUS
10
5.17047
20
-4.44047
11
5.17047
21
-4.49953
0
LINE
8
BLACK
6
CONTINUOUS
10
5.17047
20
-4.49953
11
5.1603
21
-4.49953
0
LINE
8
BLACK
6
CONTINUOUS
10
5.1603
20
-4.49953
11
5.1603
21
-4.50142
0
LINE
8
BLACK
6
CONTINUOUS
10
5.1603
20
-4.50142
11
5.16056
21
-4.50387
0
LINE
8
BLACK
6
CONTINUOUS
10
5.16056
20
-4.50387
11
5.16257
21
-4.50924
0
LINE
8
BLACK
6
CONTINUOUS
10
5.16257
20
-4.50924
11
5.16601
21
-4.51383
0
LINE
8
BLACK
6
CONTINUOUS
10
5.16601
20
-4.51383
11
5.1706
21
-4.51727
0
LINE
8
BLACK
6
CONTINUOUS
10
5.1706
20
-4.51727
11
5.17597
21
-4.51928
0
LINE
8
BLACK
6
CONTINUOUS
10
5.17597
20
-4.51928
11
5.17842
21
-4.51955
0
LINE
8
BLACK
6
CONTINUOUS
10
5.17842
20
-4.51955
11
5.22158
21
-4.51955
0
LINE
8
BLACK
6
CONTINUOUS
10
5.22158
20
-4.51955
11
5.22403
21
-4.51928
0
LINE
8
BLACK
6
CONTINUOUS
10
5.22403
20
-4.51928
11
5.22404
21
-4.51928
0
LINE
8
BLACK
6
CONTINUOUS
10
5.22404
20
-4.51928
11
5.22569
21
-4.5192
0
LINE
8
BLACK
6
CONTINUOUS
10
5.22569
20
-4.5192
11
5.22935
21
-4.51973
0
LINE
8
BLACK
6
CONTINUOUS
10
5.22935
20
-4.51973
11
5.22935
21
-4.51973
0
LINE
8
BLACK
6
CONTINUOUS
10
5.22935
20
-4.51973
11
5.22953
21
-4.51975
0
LINE
8
BLACK
6
CONTINUOUS
10
5.22953
20
-4.51975
11
5.25079
21
-4.51975
0
LINE
8
BLACK
6
CONTINUOUS
10
5.25079
20
-4.51975
11
5.25082
21
-4.51975
0
LINE
8
BLACK
6
CONTINUOUS
10
5.25082
20
-4.51975
11
5.25358
21
-4.51977
0
LINE
8
BLACK
6
CONTINUOUS
10
5.25358
20
-4.51977
11
5.25358
21
-4.51977
0
LINE
8
BLACK
6
CONTINUOUS
10
5.25358
20
-4.51977
11
5.25376
21
-4.51977
0
LINE
8
BLACK
6
CONTINUOUS
10
5.25376
20
-4.51977
11
5.2573
21
-4.51929
0
LINE
8
BLACK
6
CONTINUOUS
10
5.2573
20
-4.51929
11
5.25926
21
-4.51902
0
LINE
8
BLACK
6
CONTINUOUS
10
5.25926
20
-4.51902
11
5.25926
21
-4.51902
0
LINE
8
BLACK
6
CONTINUOUS
10
5.25926
20
-4.51902
11
5.25944
21
-4.51899
0
LINE
8
BLACK
6
CONTINUOUS
10
5.25944
20
-4.51899
11
5.26486
21
-4.51744
0
LINE
8
BLACK
6
CONTINUOUS
10
5.26486
20
-4.51744
11
5.27009
21
-4.5151
0
LINE
8
BLACK
6
CONTINUOUS
10
5.27009
20
-4.5151
11
5.27024
21
-4.51501
0
LINE
8
BLACK
6
CONTINUOUS
10
5.27024
20
-4.51501
11
5.27024
21
-4.51501
0
LINE
8
BLACK
6
CONTINUOUS
10
5.27024
20
-4.51501
11
5.27471
21
-4.51219
0
LINE
8
BLACK
6
CONTINUOUS
10
5.27471
20
-4.51219
11
5.27486
21
-4.51209
0
LINE
8
BLACK
6
CONTINUOUS
10
5.27486
20
-4.51209
11
5.27923
21
-4.50838
0
LINE
8
BLACK
6
CONTINUOUS
10
5.27923
20
-4.50838
11
5.28296
21
-4.50415
0
LINE
8
BLACK
6
CONTINUOUS
10
5.28296
20
-4.50415
11
5.28315
21
-4.50387
0
LINE
8
BLACK
6
CONTINUOUS
10
5.28315
20
-4.50387
11
5.28421
21
-4.50226
0
LINE
8
BLACK
6
CONTINUOUS
10
5.28421
20
-4.50226
11
5.28634
21
-4.50045
0
LINE
8
BLACK
6
CONTINUOUS
10
5.28634
20
-4.50045
11
5.28835
21
-4.50002
0
LINE
8
BLACK
6
CONTINUOUS
10
5.28835
20
-4.50002
11
5.29886
21
-4.50002
0
LINE
8
BLACK
6
CONTINUOUS
10
5.29886
20
-4.50002
11
5.30154
21
-4.50081
0
LINE
8
BLACK
6
CONTINUOUS
10
5.30154
20
-4.50081
11
5.30177
21
-4.50097
0
LINE
8
BLACK
6
CONTINUOUS
10
5.30177
20
-4.50097
11
5.30202
21
-4.50115
0
LINE
8
BLACK
6
CONTINUOUS
10
5.30202
20
-4.50115
11
5.30225
21
-4.50125
0
LINE
8
BLACK
6
CONTINUOUS
10
5.30225
20
-4.50125
11
5.30226
21
-4.50125
0
LINE
8
BLACK
6
CONTINUOUS
10
5.30226
20
-4.50125
11
5.30744
21
-4.50356
0
LINE
8
BLACK
6
CONTINUOUS
10
5.30744
20
-4.50356
11
5.30889
21
-4.5042
0
LINE
8
BLACK
6
CONTINUOUS
10
5.30889
20
-4.5042
11
5.31256
21
-4.50499
0
LINE
8
BLACK
6
CONTINUOUS
10
5.31256
20
-4.50499
11
5.31599
21
-4.50571
0
LINE
8
BLACK
6
CONTINUOUS
10
5.31599
20
-4.50571
11
5.31599
21
-4.50571
0
LINE
8
BLACK
6
CONTINUOUS
10
5.31599
20
-4.50571
11
5.31624
21
-4.50577
0
LINE
8
BLACK
6
CONTINUOUS
10
5.31624
20
-4.50577
11
5.32376
21
-4.50577
0
LINE
8
BLACK
6
CONTINUOUS
10
5.32376
20
-4.50577
11
5.32401
21
-4.50571
0
LINE
8
BLACK
6
CONTINUOUS
10
5.32401
20
-4.50571
11
5.32401
21
-4.50571
0
LINE
8
BLACK
6
CONTINUOUS
10
5.32401
20
-4.50571
11
5.32744
21
-4.50499
0
LINE
8
BLACK
6
CONTINUOUS
10
5.32744
20
-4.50499
11
5.33111
21
-4.5042
0
LINE
8
BLACK
6
CONTINUOUS
10
5.33111
20
-4.5042
11
5.33256
21
-4.50356
0
LINE
8
BLACK
6
CONTINUOUS
10
5.33256
20
-4.50356
11
5.33774
21
-4.50125
0
LINE
8
BLACK
6
CONTINUOUS
10
5.33774
20
-4.50125
11
5.33775
21
-4.50125
0
LINE
8
BLACK
6
CONTINUOUS
10
5.33775
20
-4.50125
11
5.33798
21
-4.50115
0
LINE
8
BLACK
6
CONTINUOUS
10
5.33798
20
-4.50115
11
5.34407
21
-4.49673
0
LINE
8
BLACK
6
CONTINUOUS
10
5.34407
20
-4.49673
11
5.3491
21
-4.49114
0
LINE
8
BLACK
6
CONTINUOUS
10
5.3491
20
-4.49114
11
5.35286
21
-4.48463
0
LINE
8
BLACK
6
CONTINUOUS
10
5.35286
20
-4.48463
11
5.35518
21
-4.47748
0
LINE
8
BLACK
6
CONTINUOUS
10
5.35518
20
-4.47748
11
5.35596
21
-4.47
0
LINE
8
BLACK
6
CONTINUOUS
10
5.35596
20
-4.47
11
5.35518
21
-4.46252
0
LINE
8
BLACK
6
CONTINUOUS
10
5.35518
20
-4.46252
11
5.35286
21
-4.45537
0
LINE
8
BLACK
6
CONTINUOUS
10
5.35286
20
-4.45537
11
5.3491
21
-4.44886
0
LINE
8
BLACK
6
CONTINUOUS
10
5.3491
20
-4.44886
11
5.34407
21
-4.44327
0
LINE
8
BLACK
6
CONTINUOUS
10
5.34407
20
-4.44327
11
5.33837
21
-4.43914
0
LINE
8
BLACK
6
CONTINUOUS
10
5.33837
20
-4.43914
11
5.33819
21
-4.43901
0
LINE
8
BLACK
6
CONTINUOUS
10
5.33819
20
-4.43901
11
5.33819
21
-4.43901
0
LINE
8
BLACK
6
CONTINUOUS
10
5.33819
20
-4.43901
11
5.33798
21
-4.43885
0
LINE
8
BLACK
6
CONTINUOUS
10
5.33798
20
-4.43885
11
5.33775
21
-4.43875
0
LINE
8
BLACK
6
CONTINUOUS
10
5.33775
20
-4.43875
11
5.33774
21
-4.43875
0
LINE
8
BLACK
6
CONTINUOUS
10
5.33774
20
-4.43875
11
5.33135
21
-4.4359
0
LINE
8
BLACK
6
CONTINUOUS
10
5.33135
20
-4.4359
11
5.33135
21
-4.4359
0
LINE
8
BLACK
6
CONTINUOUS
10
5.33135
20
-4.4359
11
5.33111
21
-4.4358
0
LINE
8
BLACK
6
CONTINUOUS
10
5.33111
20
-4.4358
11
5.32677
21
-4.43487
0
LINE
8
BLACK
6
CONTINUOUS
10
5.32677
20
-4.43487
11
5.32401
21
-4.43429
0
LINE
8
BLACK
6
CONTINUOUS
10
5.32401
20
-4.43429
11
5.32401
21
-4.43429
0
LINE
8
BLACK
6
CONTINUOUS
10
5.32401
20
-4.43429
11
5.32376
21
-4.43423
0
LINE
8
BLACK
6
CONTINUOUS
10
5.32376
20
-4.43423
11
5.31624
21
-4.43423
0
LINE
8
BLACK
6
CONTINUOUS
10
5.31624
20
-4.43423
11
5.31599
21
-4.43429
0
LINE
8
BLACK
6
CONTINUOUS
10
5.31599
20
-4.43429
11
5.31599
21
-4.43429
0
LINE
8
BLACK
6
CONTINUOUS
10
5.31599
20
-4.43429
11
5.31323
21
-4.43487
0
LINE
8
BLACK
6
CONTINUOUS
10
5.31323
20
-4.43487
11
5.30889
21
-4.4358
0
LINE
8
BLACK
6
CONTINUOUS
10
5.30889
20
-4.4358
11
5.30865
21
-4.4359
0
LINE
8
BLACK
6
CONTINUOUS
10
5.30865
20
-4.4359
11
5.30865
21
-4.4359
0
LINE
8
BLACK
6
CONTINUOUS
10
5.30865
20
-4.4359
11
5.30226
21
-4.43875
0
LINE
8
BLACK
6
CONTINUOUS
10
5.30226
20
-4.43875
11
5.30225
21
-4.43875
0
LINE
8
BLACK
6
CONTINUOUS
10
5.30225
20
-4.43875
11
5.30202
21
-4.43885
0
LINE
8
BLACK
6
CONTINUOUS
10
5.30202
20
-4.43885
11
5.30181
21
-4.43901
0
LINE
8
BLACK
6
CONTINUOUS
10
5.30181
20
-4.43901
11
5.30181
21
-4.43901
0
LINE
8
BLACK
6
CONTINUOUS
10
5.30181
20
-4.43901
11
5.30177
21
-4.43903
0
LINE
8
BLACK
6
CONTINUOUS
10
5.30177
20
-4.43903
11
5.30175
21
-4.43904
0
LINE
8
BLACK
6
CONTINUOUS
10
5.30175
20
-4.43904
11
5.30158
21
-4.43914
0
LINE
8
BLACK
6
CONTINUOUS
10
5.30158
20
-4.43914
11
5.30156
21
-4.43911
0
LINE
8
BLACK
6
CONTINUOUS
10
5.30156
20
-4.43911
11
5.29914
21
-4.43997
0
LINE
8
BLACK
6
CONTINUOUS
10
5.29914
20
-4.43997
11
5.29886
21
-4.43998
0
LINE
8
BLACK
6
CONTINUOUS
10
5.29886
20
-4.43998
11
5.28839
21
-4.43998
0
LINE
8
BLACK
6
CONTINUOUS
10
5.28839
20
-4.43998
11
5.2857
21
-4.43919
0
LINE
8
BLACK
6
CONTINUOUS
10
5.2857
20
-4.43919
11
5.28417
21
-4.43764
0
LINE
8
BLACK
6
CONTINUOUS
10
5.28417
20
-4.43764
11
5.28355
21
-4.43663
0
LINE
8
BLACK
6
CONTINUOUS
10
5.28355
20
-4.43663
11
5.28236
21
-4.43523
0
LINE
8
BLACK
6
CONTINUOUS
10
5.28236
20
-4.43523
11
5.28124
21
-4.43267
0
LINE
8
BLACK
6
CONTINUOUS
10
5.28124
20
-4.43267
11
5.2812
21
-4.43203
0
LINE
8
BLACK
6
CONTINUOUS
10
5.2812
20
-4.43203
11
5.2812
21
-4.38999
0
LINE
8
BLACK
6
CONTINUOUS
10
5.2812
20
-4.38999
11
5.28199
21
-4.38731
0
LINE
8
BLACK
6
CONTINUOUS
10
5.28199
20
-4.38731
11
5.28355
21
-4.38577
0
LINE
8
BLACK
6
CONTINUOUS
10
5.28355
20
-4.38577
11
5.28713
21
-4.38356
0
LINE
8
BLACK
6
CONTINUOUS
10
5.28713
20
-4.38356
11
5.28738
21
-4.3834
0
LINE
8
BLACK
6
CONTINUOUS
10
5.28738
20
-4.3834
11
5.2893
21
-4.38148
0
LINE
8
BLACK
6
CONTINUOUS
10
5.2893
20
-4.38148
11
5.29175
21
-4.38013
0
LINE
8
BLACK
6
CONTINUOUS
10
5.29175
20
-4.38013
11
5.29281
21
-4.38002
0
LINE
8
BLACK
6
CONTINUOUS
10
5.29281
20
-4.38002
11
5.29719
21
-4.38002
0
LINE
8
BLACK
6
CONTINUOUS
10
5.29719
20
-4.38002
11
5.29987
21
-4.38081
0
LINE
8
BLACK
6
CONTINUOUS
10
5.29987
20
-4.38081
11
5.30069
21
-4.38147
0
LINE
8
BLACK
6
CONTINUOUS
10
5.30069
20
-4.38147
11
5.30267
21
-4.38344
0
LINE
8
BLACK
6
CONTINUOUS
10
5.30267
20
-4.38344
11
5.30291
21
-4.38359
0
LINE
8
BLACK
6
CONTINUOUS
10
5.30291
20
-4.38359
11
5.30291
21
-4.38359
0
LINE
8
BLACK
6
CONTINUOUS
10
5.30291
20
-4.38359
11
5.30831
21
-4.38692
0
LINE
8
BLACK
6
CONTINUOUS
10
5.30831
20
-4.38692
11
5.30859
21
-4.38709
0
LINE
8
BLACK
6
CONTINUOUS
10
5.30859
20
-4.38709
11
5.31061
21
-4.38776
0
LINE
8
BLACK
6
CONTINUOUS
10
5.31061
20
-4.38776
11
5.31495
21
-4.3892
0
LINE
8
BLACK
6
CONTINUOUS
10
5.31495
20
-4.3892
11
5.31495
21
-4.3892
0
LINE
8
BLACK
6
CONTINUOUS
10
5.31495
20
-4.3892
11
5.3152
21
-4.38928
0
LINE
8
BLACK
6
CONTINUOUS
10
5.3152
20
-4.38928
11
5.31547
21
-4.38931
0
LINE
8
BLACK
6
CONTINUOUS
10
5.31547
20
-4.38931
11
5.31547
21
-4.38931
0
LINE
8
BLACK
6
CONTINUOUS
10
5.31547
20
-4.38931
11
5.31717
21
-4.38948
0
LINE
8
BLACK
6
CONTINUOUS
10
5.31717
20
-4.38948
11
5.31931
21
-4.3897
0
LINE
8
BLACK
6
CONTINUOUS
10
5.31931
20
-4.3897
11
5.36069
21
-4.3897
0
LINE
8
BLACK
6
CONTINUOUS
10
5.36069
20
-4.3897
11
5.36081
21
-4.38969
0
LINE
8
BLACK
6
CONTINUOUS
10
5.36081
20
-4.38969
11
5.36081
21
-4.38969
0
LINE
8
BLACK
6
CONTINUOUS
10
5.36081
20
-4.38969
11
5.36458
21
-4.3893
0
LINE
8
BLACK
6
CONTINUOUS
10
5.36458
20
-4.3893
11
5.36458
21
-4.3893
0
LINE
8
BLACK
6
CONTINUOUS
10
5.36458
20
-4.3893
11
5.36485
21
-4.38927
0
LINE
8
BLACK
6
CONTINUOUS
10
5.36485
20
-4.38927
11
5.36511
21
-4.38919
0
LINE
8
BLACK
6
CONTINUOUS
10
5.36511
20
-4.38919
11
5.36511
21
-4.38919
0
LINE
8
BLACK
6
CONTINUOUS
10
5.36511
20
-4.38919
11
5.37074
21
-4.38731
0
LINE
8
BLACK
6
CONTINUOUS
10
5.37074
20
-4.38731
11
5.37145
21
-4.38707
0
LINE
8
BLACK
6
CONTINUOUS
10
5.37145
20
-4.38707
11
5.37738
21
-4.3834
0
LINE
8
BLACK
6
CONTINUOUS
10
5.37738
20
-4.3834
11
5.3823
21
-4.37848
0
LINE
8
BLACK
6
CONTINUOUS
10
5.3823
20
-4.37848
11
5.38329
21
-4.37686
0
LINE
8
BLACK
6
CONTINUOUS
10
5.38329
20
-4.37686
11
5.3858
21
-4.37279
0
LINE
8
BLACK
6
CONTINUOUS
10
5.3858
20
-4.37279
11
5.3858
21
-4.37279
0
LINE
8
BLACK
6
CONTINUOUS
10
5.3858
20
-4.37279
11
5.38595
21
-4.37255
0
LINE
8
BLACK
6
CONTINUOUS
10
5.38595
20
-4.37255
11
5.38814
21
-4.36594
0
LINE
8
BLACK
6
CONTINUOUS
10
5.38814
20
-4.36594
11
5.38856
21
-4.36183
0
LINE
8
BLACK
6
CONTINUOUS
10
5.38856
20
-4.36183
11
5.38856
21
-4.33817
0
LINE
8
BLACK
6
CONTINUOUS
10
5.38856
20
-4.33817
11
5.38853
21
-4.3379
0
LINE
8
BLACK
6
CONTINUOUS
10
5.38853
20
-4.3379
11
5.38816
21
-4.33428
0
LINE
8
BLACK
6
CONTINUOUS
10
5.38816
20
-4.33428
11
5.38816
21
-4.33428
0
LINE
8
BLACK
6
CONTINUOUS
10
5.38816
20
-4.33428
11
5.38813
21
-4.33401
0
LINE
8
BLACK
6
CONTINUOUS
10
5.38813
20
-4.33401
11
5.38759
21
-4.3324
0
LINE
8
BLACK
6
CONTINUOUS
10
5.38759
20
-4.3324
11
5.38602
21
-4.32768
0
LINE
8
BLACK
6
CONTINUOUS
10
5.38602
20
-4.32768
11
5.38593
21
-4.3274
0
LINE
8
BLACK
6
CONTINUOUS
10
5.38593
20
-4.3274
11
5.38226
21
-4.32148
0
LINE
8
BLACK
6
CONTINUOUS
10
5.38226
20
-4.32148
11
5.37733
21
-4.31656
0
LINE
8
BLACK
6
CONTINUOUS
10
5.37733
20
-4.31656
11
5.37716
21
-4.31645
0
LINE
8
BLACK
6
CONTINUOUS
10
5.37716
20
-4.31645
11
5.37556
21
-4.3142
0
LINE
8
BLACK
6
CONTINUOUS
10
5.37556
20
-4.3142
11
5.37543
21
-4.31141
0
LINE
8
BLACK
6
CONTINUOUS
10
5.37543
20
-4.31141
11
5.37683
21
-4.30899
0
LINE
8
BLACK
6
CONTINUOUS
10
5.37683
20
-4.30899
11
5.37717
21
-4.3087
0
LINE
8
BLACK
6
CONTINUOUS
10
5.37717
20
-4.3087
11
5.37757
21
-4.30838
0
LINE
8
BLACK
6
CONTINUOUS
10
5.37757
20
-4.30838
11
5.38208
21
-4.30387
0
LINE
8
BLACK
6
CONTINUOUS
10
5.38208
20
-4.30387
11
5.38243
21
-4.30342
0
LINE
8
BLACK
6
CONTINUOUS
10
5.38243
20
-4.30342
11
5.38578
21
-4.29798
0
LINE
8
BLACK
6
CONTINUOUS
10
5.38578
20
-4.29798
11
5.38602
21
-4.29746
0
LINE
8
BLACK
6
CONTINUOUS
10
5.38602
20
-4.29746
11
5.38804
21
-4.29139
0
LINE
8
BLACK
6
CONTINUOUS
10
5.38804
20
-4.29139
11
5.38815
21
-4.29086
0
LINE
8
BLACK
6
CONTINUOUS
10
5.38815
20
-4.29086
11
5.38853
21
-4.28715
0
LINE
8
BLACK
6
CONTINUOUS
10
5.38853
20
-4.28715
11
5.38854
21
-4.2869
0
LINE
8
BLACK
6
CONTINUOUS
10
5.38854
20
-4.2869
11
5.38854
21
-4.28591
0
LINE
8
BLACK
6
CONTINUOUS
10
5.38854
20
-4.28591
11
5.38837
21
-4.28531
0
LINE
8
BLACK
6
CONTINUOUS
10
5.38837
20
-4.28531
11
5.38831
21
-4.28526
0
LINE
8
BLACK
6
CONTINUOUS
10
5.38831
20
-4.28526
11
5.38801
21
-4.2852
0
LINE
8
BLACK
6
CONTINUOUS
10
5.38801
20
-4.2852
11
5.36851
21
-4.2852
0
LINE
8
BLACK
6
CONTINUOUS
10
5.36851
20
-4.2852
11
5.36779
21
-4.28881
0
LINE
8
BLACK
6
CONTINUOUS
10
5.36779
20
-4.28881
11
5.36566
21
-4.292
0
LINE
8
BLACK
6
CONTINUOUS
10
5.36566
20
-4.292
11
5.36247
21
-4.29413
0
LINE
8
BLACK
6
CONTINUOUS
10
5.36247
20
-4.29413
11
5.3587
21
-4.29488
0
LINE
8
BLACK
6
CONTINUOUS
10
5.3587
20
-4.29488
11
5.3213
21
-4.29488
0
LINE
8
BLACK
6
CONTINUOUS
10
5.3213
20
-4.29488
11
5.31753
21
-4.29413
0
LINE
8
BLACK
6
CONTINUOUS
10
5.31753
20
-4.29413
11
5.31434
21
-4.292
0
LINE
8
BLACK
6
CONTINUOUS
10
5.31434
20
-4.292
11
5.31221
21
-4.28881
0
LINE
8
BLACK
6
CONTINUOUS
10
5.31221
20
-4.28881
11
5.31149
21
-4.2852
0
LINE
8
BLACK
6
CONTINUOUS
10
5.31149
20
-4.2852
11
5.27851
21
-4.2852
0
LINE
8
BLACK
6
CONTINUOUS
10
5.27851
20
-4.2852
11
5.27779
21
-4.28881
0
LINE
8
BLACK
6
CONTINUOUS
10
5.27779
20
-4.28881
11
5.27566
21
-4.292
0
LINE
8
BLACK
6
CONTINUOUS
10
5.27566
20
-4.292
11
5.27247
21
-4.29413
0
LINE
8
BLACK
6
CONTINUOUS
10
5.27247
20
-4.29413
11
5.2687
21
-4.29488
0
LINE
8
BLACK
6
CONTINUOUS
10
5.2687
20
-4.29488
11
5.2313
21
-4.29488
0
LINE
8
BLACK
6
CONTINUOUS
10
5.2313
20
-4.29488
11
5.22753
21
-4.29413
0
LINE
8
BLACK
6
CONTINUOUS
10
5.22753
20
-4.29413
11
5.22434
21
-4.292
0
LINE
8
BLACK
6
CONTINUOUS
10
5.22434
20
-4.292
11
5.22221
21
-4.28881
0
LINE
8
BLACK
6
CONTINUOUS
10
5.22221
20
-4.28881
11
5.22146
21
-4.28504
0
LINE
8
BLACK
6
CONTINUOUS
10
5.22146
20
-4.28504
11
5.22146
21
-4.26535
0
LINE
8
BLACK
6
CONTINUOUS
10
5.22146
20
-4.26535
11
5.22221
21
-4.26159
0
LINE
8
BLACK
6
CONTINUOUS
10
5.22221
20
-4.26159
11
5.22434
21
-4.25839
0
LINE
8
BLACK
6
CONTINUOUS
10
5.22434
20
-4.25839
11
5.22753
21
-4.25626
0
LINE
8
BLACK
6
CONTINUOUS
10
5.22753
20
-4.25626
11
5.2313
21
-4.25551
0
LINE
8
BLACK
6
CONTINUOUS
10
5.2313
20
-4.25551
11
5.24
21
-4.25551
0
LINE
8
BLACK
6
CONTINUOUS
10
5.24
20
-4.25551
11
5.24
21
-4.23623
0
LINE
8
BLACK
6
CONTINUOUS
10
5.24
20
-4.23623
11
5.23985
21
-4.23572
0
LINE
8
BLACK
6
CONTINUOUS
10
5.23985
20
-4.23572
11
5.23851
21
-4.23551
0
LINE
8
BLACK
6
CONTINUOUS
10
5.23851
20
-4.23551
11
5.22945
21
-4.23551
0
LINE
8
BLACK
6
CONTINUOUS
10
5.22945
20
-4.23551
11
5.22919
21
-4.23553
0
LINE
8
BLACK
6
CONTINUOUS
10
5.22919
20
-4.23553
11
5.22542
21
-4.23592
0
LINE
8
BLACK
6
CONTINUOUS
10
5.22542
20
-4.23592
11
5.2249
21
-4.23603
0
LINE
8
BLACK
6
CONTINUOUS
10
5.2249
20
-4.23603
11
5.21883
21
-4.23805
0
LINE
8
BLACK
6
CONTINUOUS
10
5.21883
20
-4.23805
11
5.21831
21
-4.2383
0
LINE
8
BLACK
6
CONTINUOUS
10
5.21831
20
-4.2383
11
5.21288
21
-4.24166
0
LINE
8
BLACK
6
CONTINUOUS
10
5.21288
20
-4.24166
11
5.21271
21
-4.24179
0
LINE
8
BLACK
6
CONTINUOUS
10
5.21271
20
-4.24179
11
5.21012
21
-4.24284
0
LINE
8
BLACK
6
CONTINUOUS
10
5.21012
20
-4.24284
11
5.20738
21
-4.24232
0
LINE
8
BLACK
6
CONTINUOUS
10
5.20738
20
-4.24232
11
5.20535
21
-4.2404
0
LINE
8
BLACK
6
CONTINUOUS
10
5.20535
20
-4.2404
11
5.20499
21
-4.23964
0
LINE
8
BLACK
6
CONTINUOUS
10
5.20499
20
-4.23964
11
5.20349
21
-4.23566
0
LINE
8
BLACK
6
CONTINUOUS
10
5.20349
20
-4.23566
11
5.20337
21
-4.23533
0
LINE
8
BLACK
6
CONTINUOUS
10
5.20337
20
-4.23533
11
5.2027
21
-4.23444
0
LINE
8
BLACK
6
CONTINUOUS
10
5.2027
20
-4.23444
11
5.20173
21
-4.23182
0
LINE
8
BLACK
6
CONTINUOUS
10
5.20173
20
-4.23182
11
5.20171
21
-4.23146
0
LINE
8
BLACK
6
CONTINUOUS
10
5.20171
20
-4.23146
11
5.20171
21
-4.22979
0
LINE
8
BLACK
6
CONTINUOUS
10
5.20171
20
-4.22979
11
5.2025
21
-4.22711
0
LINE
8
BLACK
6
CONTINUOUS
10
5.2025
20
-4.22711
11
5.20317
21
-4.22628
0
LINE
8
BLACK
6
CONTINUOUS
10
5.20317
20
-4.22628
11
5.2301
21
-4.19935
0
LINE
8
BLACK
6
CONTINUOUS
10
5.2301
20
-4.19935
11
5.23255
21
-4.19801
0
LINE
8
BLACK
6
CONTINUOUS
10
5.23255
20
-4.19801
11
5.23361
21
-4.19789
0
LINE
8
BLACK
6
CONTINUOUS
10
5.23361
20
-4.19789
11
5.41919
21
-4.19789
0
LINE
8
BLACK
6
CONTINUOUS
10
5.41919
20
-4.19789
11
5.42187
21
-4.19868
0
LINE
8
BLACK
6
CONTINUOUS
10
5.42187
20
-4.19868
11
5.4237
21
-4.20079
0
LINE
8
BLACK
6
CONTINUOUS
10
5.4237
20
-4.20079
11
5.42413
21
-4.20234
0
LINE
8
BLACK
6
CONTINUOUS
10
5.42413
20
-4.20234
11
5.42479
21
-4.20868
0
LINE
8
BLACK
6
CONTINUOUS
10
5.42479
20
-4.20868
11
5.42482
21
-4.20895
0
LINE
8
BLACK
6
CONTINUOUS
10
5.42482
20
-4.20895
11
5.4249
21
-4.2092
0
LINE
8
BLACK
6
CONTINUOUS
10
5.4249
20
-4.2092
11
5.42649
21
-4.21408
0
LINE
8
BLACK
6
CONTINUOUS
10
5.42649
20
-4.21408
11
5.42657
21
-4.21688
0
LINE
8
BLACK
6
CONTINUOUS
10
5.42657
20
-4.21688
11
5.42512
21
-4.21927
0
LINE
8
BLACK
6
CONTINUOUS
10
5.42512
20
-4.21927
11
5.42474
21
-4.21958
0
LINE
8
BLACK
6
CONTINUOUS
10
5.42474
20
-4.21958
11
5.42121
21
-4.22223
0
LINE
8
BLACK
6
CONTINUOUS
10
5.42121
20
-4.22223
11
5.41777
21
-4.22682
0
LINE
8
BLACK
6
CONTINUOUS
10
5.41777
20
-4.22682
11
5.41576
21
-4.23219
0
LINE
8
BLACK
6
CONTINUOUS
10
5.41576
20
-4.23219
11
5.41549
21
-4.23464
0
LINE
8
BLACK
6
CONTINUOUS
10
5.41549
20
-4.23464
11
5.41549
21
-4.30536
0
LINE
8
BLACK
6
CONTINUOUS
10
5.41549
20
-4.30536
11
5.41576
21
-4.30781
0
LINE
8
BLACK
6
CONTINUOUS
10
5.41576
20
-4.30781
11
5.41777
21
-4.31318
0
LINE
8
BLACK
6
CONTINUOUS
10
5.41777
20
-4.31318
11
5.42121
21
-4.31777
0
LINE
8
BLACK
6
CONTINUOUS
10
5.42121
20
-4.31777
11
5.4258
21
-4.32121
0
LINE
8
BLACK
6
CONTINUOUS
10
5.4258
20
-4.32121
11
5.43117
21
-4.32322
0
LINE
8
BLACK
6
CONTINUOUS
10
5.43117
20
-4.32322
11
5.43362
21
-4.32348
0
LINE
8
BLACK
6
CONTINUOUS
10
5.43362
20
-4.32348
11
5.48859
21
-4.32348
0
LINE
8
BLACK
6
CONTINUOUS
10
5.48859
20
-4.32348
11
5.49104
21
-4.32322
0
LINE
8
BLACK
6
CONTINUOUS
10
5.49104
20
-4.32322
11
5.49641
21
-4.32121
0
LINE
8
BLACK
6
CONTINUOUS
10
5.49641
20
-4.32121
11
5.50099
21
-4.31777
0
LINE
8
BLACK
6
CONTINUOUS
10
5.50099
20
-4.31777
11
5.50443
21
-4.31318
0
LINE
8
BLACK
6
CONTINUOUS
10
5.50443
20
-4.31318
11
5.50645
21
-4.30781
0
LINE
8
BLACK
6
CONTINUOUS
10
5.50645
20
-4.30781
11
5.50671
21
-4.30536
0
LINE
8
BLACK
6
CONTINUOUS
10
5.50671
20
-4.30536
11
5.50671
21
-4.23464
0
LINE
8
BLACK
6
CONTINUOUS
10
5.50671
20
-4.23464
11
5.50645
21
-4.23219
0
LINE
8
BLACK
6
CONTINUOUS
10
5.50645
20
-4.23219
11
5.50443
21
-4.22682
0
LINE
8
BLACK
6
CONTINUOUS
10
5.50443
20
-4.22682
11
5.50099
21
-4.22223
0
LINE
8
BLACK
6
CONTINUOUS
10
5.50099
20
-4.22223
11
5.49641
21
-4.21879
0
LINE
8
BLACK
6
CONTINUOUS
10
5.49641
20
-4.21879
11
5.49619
21
-4.21872
0
LINE
8
BLACK
6
CONTINUOUS
10
5.49619
20
-4.21872
11
5.49427
21
-4.21678
0
LINE
8
BLACK
6
CONTINUOUS
10
5.49427
20
-4.21678
11
5.49367
21
-4.21405
0
LINE
8
BLACK
6
CONTINUOUS
10
5.49367
20
-4.21405
11
5.4939
21
-4.21288
0
LINE
8
BLACK
6
CONTINUOUS
10
5.4939
20
-4.21288
11
5.4951
21
-4.2092
0
LINE
8
BLACK
6
CONTINUOUS
10
5.4951
20
-4.2092
11
5.49518
21
-4.20895
0
LINE
8
BLACK
6
CONTINUOUS
10
5.49518
20
-4.20895
11
5.49527
21
-4.20804
0
LINE
8
BLACK
6
CONTINUOUS
10
5.49527
20
-4.20804
11
5.49594
21
-4.20173
0
LINE
8
BLACK
6
CONTINUOUS
10
5.49594
20
-4.20173
11
5.49596
21
-4.20148
0
LINE
8
BLACK
6
CONTINUOUS
10
5.49596
20
-4.20148
11
5.49579
21
-4.1998
0
LINE
8
BLACK
6
CONTINUOUS
10
5.49579
20
-4.1998
11
5.49521
21
-4.19426
0
LINE
8
BLACK
6
CONTINUOUS
10
5.49521
20
-4.19426
11
5.49521
21
-4.19426
0
LINE
8
BLACK
6
CONTINUOUS
10
5.49521
20
-4.19426
11
5.49518
21
-4.194
0
LINE
8
BLACK
6
CONTINUOUS
10
5.49518
20
-4.194
11
5.49286
21
-4.18685
0
LINE
8
BLACK
6
CONTINUOUS
10
5.49286
20
-4.18685
11
5.491
21
-4.18364
0
LINE
8
BLACK
6
CONTINUOUS
10
5.491
20
-4.18364
11
5.49035
21
-4.18093
0
LINE
8
BLACK
6
CONTINUOUS
10
5.49035
20
-4.18093
11
5.49126
21
-4.17828
0
LINE
8
BLACK
6
CONTINUOUS
10
5.49126
20
-4.17828
11
5.49179
21
-4.17765
0
LINE
8
BLACK
6
CONTINUOUS
10
5.49179
20
-4.17765
11
5.50484
21
-4.1646
0
LINE
8
BLACK
6
CONTINUOUS
10
5.50484
20
-4.1646
11
5.50509
21
-4.16437
0
LINE
8
BLACK
6
CONTINUOUS
10
5.50509
20
-4.16437
11
5.50658
21
-4.16307
0
LINE
8
BLACK
6
CONTINUOUS
10
5.50658
20
-4.16307
11
5.50681
21
-4.16288
0
LINE
8
BLACK
6
CONTINUOUS
10
5.50681
20
-4.16288
11
5.50825
21
-4.16082
0
LINE
8
BLACK
6
CONTINUOUS
10
5.50825
20
-4.16082
11
5.50841
21
-4.16061
0
LINE
8
BLACK
6
CONTINUOUS
10
5.50841
20
-4.16061
11
5.50958
21
-4.15912
0
LINE
8
BLACK
6
CONTINUOUS
10
5.50958
20
-4.15912
11
5.50996
21
-4.15863
0
LINE
8
BLACK
6
CONTINUOUS
10
5.50996
20
-4.15863
11
5.51008
21
-4.15836
0
LINE
8
BLACK
6
CONTINUOUS
10
5.51008
20
-4.15836
11
5.51014
21
-4.15827
0
LINE
8
BLACK
6
CONTINUOUS
10
5.51014
20
-4.15827
11
5.51047
21
-4.15769
0
LINE
8
BLACK
6
CONTINUOUS
10
5.51047
20
-4.15769
11
5.51052
21
-4.1576
0
LINE
8
BLACK
6
CONTINUOUS
10
5.51052
20
-4.1576
11
5.51069
21
-4.15735
0
LINE
8
BLACK
6
CONTINUOUS
10
5.51069
20
-4.15735
11
5.5108
21
-4.15707
0
LINE
8
BLACK
6
CONTINUOUS
10
5.5108
20
-4.15707
11
5.5108
21
-4.15707
0
LINE
8
BLACK
6
CONTINUOUS
10
5.5108
20
-4.15707
11
5.5116
21
-4.15501
0
LINE
8
BLACK
6
CONTINUOUS
10
5.5116
20
-4.15501
11
5.5117
21
-4.15477
0
LINE
8
BLACK
6
CONTINUOUS
10
5.5117
20
-4.15477
11
5.51201
21
-4.15408
0
LINE
8
BLACK
6
CONTINUOUS
10
5.51201
20
-4.15408
11
5.51392
21
-4.1519
0
LINE
8
BLACK
6
CONTINUOUS
10
5.51392
20
-4.1519
11
5.51469
21
-4.15143
0
LINE
8
BLACK
6
CONTINUOUS
10
5.51469
20
-4.15143
11
5.51469
21
-4.15143
0
LINE
8
BLACK
6
CONTINUOUS
10
5.51469
20
-4.15143
11
5.51493
21
-4.15128
0
LINE
8
BLACK
6
CONTINUOUS
10
5.51493
20
-4.15128
11
5.51985
21
-4.14635
0
LINE
8
BLACK
6
CONTINUOUS
10
5.51985
20
-4.14635
11
5.52063
21
-4.14509
0
LINE
8
BLACK
6
CONTINUOUS
10
5.52063
20
-4.14509
11
5.52336
21
-4.14067
0
LINE
8
BLACK
6
CONTINUOUS
10
5.52336
20
-4.14067
11
5.52336
21
-4.14067
0
LINE
8
BLACK
6
CONTINUOUS
10
5.52336
20
-4.14067
11
5.52351
21
-4.14042
0
LINE
8
BLACK
6
CONTINUOUS
10
5.52351
20
-4.14042
11
5.5257
21
-4.13381
0
LINE
8
BLACK
6
CONTINUOUS
10
5.5257
20
-4.13381
11
5.52612
21
-4.1297
0
LINE
8
BLACK
6
CONTINUOUS
10
5.52612
20
-4.1297
11
5.52612
21
-4.0903
0
LINE
8
BLACK
6
CONTINUOUS
10
5.52612
20
-4.0903
11
5.52611
21
-4.09017
0
LINE
8
BLACK
6
CONTINUOUS
10
5.52611
20
-4.09017
11
5.52572
21
-4.08641
0
LINE
8
BLACK
6
CONTINUOUS
10
5.52572
20
-4.08641
11
5.52572
21
-4.08641
0
LINE
8
BLACK
6
CONTINUOUS
10
5.52572
20
-4.08641
11
5.52569
21
-4.08614
0
LINE
8
BLACK
6
CONTINUOUS
10
5.52569
20
-4.08614
11
5.52558
21
-4.08581
0
LINE
8
BLACK
6
CONTINUOUS
10
5.52558
20
-4.08581
11
5.52358
21
-4.0798
0
LINE
8
BLACK
6
CONTINUOUS
10
5.52358
20
-4.0798
11
5.52349
21
-4.07953
0
LINE
8
BLACK
6
CONTINUOUS
10
5.52349
20
-4.07953
11
5.51982
21
-4.07361
0
LINE
8
BLACK
6
CONTINUOUS
10
5.51982
20
-4.07361
11
5.51489
21
-4.06869
0
LINE
8
BLACK
6
CONTINUOUS
10
5.51489
20
-4.06869
11
5.51024
21
-4.06582
0
LINE
8
BLACK
6
CONTINUOUS
10
5.51024
20
-4.06582
11
5.50837
21
-4.06374
0
LINE
8
BLACK
6
CONTINUOUS
10
5.50837
20
-4.06374
11
5.50792
21
-4.06098
0
LINE
8
BLACK
6
CONTINUOUS
10
5.50792
20
-4.06098
11
5.50903
21
-4.05842
0
LINE
8
BLACK
6
CONTINUOUS
10
5.50903
20
-4.05842
11
5.50987
21
-4.05763
0
LINE
8
BLACK
6
CONTINUOUS
10
5.50987
20
-4.05763
11
5.50987
21
-4.05762
0
LINE
8
BLACK
6
CONTINUOUS
10
5.50987
20
-4.05762
11
5.5143
21
-4.0543
0
LINE
8
BLACK
6
CONTINUOUS
10
5.5143
20
-4.0543
11
5.51604
21
-4.05198
0
LINE
8
BLACK
6
CONTINUOUS
10
5.51604
20
-4.05198
11
5.51828
21
-4.0503
0
LINE
8
BLACK
6
CONTINUOUS
10
5.51828
20
-4.0503
11
5.52107
21
-4.05011
0
LINE
8
BLACK
6
CONTINUOUS
10
5.52107
20
-4.05011
11
5.52352
21
-4.05145
0
LINE
8
BLACK
6
CONTINUOUS
10
5.52352
20
-4.05145
11
5.52398
21
-4.05198
0
LINE
8
BLACK
6
CONTINUOUS
10
5.52398
20
-4.05198
11
5.5255
21
-4.054
0
LINE
8
BLACK
6
CONTINUOUS
10
5.5255
20
-4.054
11
5.526
21
-4.0545
0
LINE
8
BLACK
6
CONTINUOUS
10
5.526
20
-4.0545
11
5.53001
21
-4.05751
0
LINE
8
BLACK
6
CONTINUOUS
10
5.53001
20
-4.05751
11
5.53063
21
-4.05785
0
LINE
8
BLACK
6
CONTINUOUS
10
5.53063
20
-4.05785
11
5.53537
21
-4.05963
0
LINE
8
BLACK
6
CONTINUOUS
10
5.53537
20
-4.05963
11
5.53597
21
-4.05977
0
LINE
8
BLACK
6
CONTINUOUS
10
5.53597
20
-4.05977
11
5.53797
21
-4.05999
0
LINE
8
BLACK
6
CONTINUOUS
10
5.53797
20
-4.05999
11
5.53824
21
-4.06
0
LINE
8
BLACK
6
CONTINUOUS
10
5.53824
20
-4.06
11
5.55929
21
-4.06
0
LINE
8
BLACK
6
CONTINUOUS
10
5.55929
20
-4.06
11
5.55989
21
-4.05982
0
LINE
8
BLACK
6
CONTINUOUS
10
5.55989
20
-4.05982
11
5.55993
21
-4.05977
0
LINE
8
BLACK
6
CONTINUOUS
10
5.55993
20
-4.05977
11
5.56
21
-4.05947
0
LINE
8
BLACK
6
CONTINUOUS
10
5.56
20
-4.05947
11
5.56
21
-4.04
0
LINE
8
BLACK
6
CONTINUOUS
10
5.56
20
-4.04
11
5.54
21
-4.04
0
LINE
8
BLACK
6
CONTINUOUS
10
5.54
20
-4.04
11
5.54
21
-3.98
0
LINE
8
BLACK
6
CONTINUOUS
10
5.54
20
-3.98
11
5.56
21
-3.98
0
LINE
8
BLACK
6
CONTINUOUS
10
5.56
20
-3.98
11
5.56
21
-3.94
0
LINE
8
BLACK
6
CONTINUOUS
10
5.56
20
-3.94
11
5.54
21
-3.94
0
LINE
8
BLACK
6
CONTINUOUS
10
5.54
20
-3.94
11
5.54
21
-3.88
0
LINE
8
BLACK
6
CONTINUOUS
10
5.54
20
-3.88
11
5.56
21
-3.88
0
LINE
8
BLACK
6
CONTINUOUS
10
5.56
20
-3.88
11
5.56
21
-3.86071
0
LINE
8
BLACK
6
CONTINUOUS
10
5.56
20
-3.86071
11
5.55982
21
-3.86011
0
LINE
8
BLACK
6
CONTINUOUS
10
5.55982
20
-3.86011
11
5.55977
21
-3.86007
0
LINE
8
BLACK
6
CONTINUOUS
10
5.55977
20
-3.86007
11
5.55947
21
-3.86
0
LINE
8
BLACK
6
CONTINUOUS
10
5.55947
20
-3.86
11
5.53824
21
-3.86
0
LINE
8
BLACK
6
CONTINUOUS
10
5.53824
20
-3.86
11
5.53797
21
-3.86001
0
LINE
8
BLACK
6
CONTINUOUS
10
5.53797
20
-3.86001
11
5.53597
21
-3.86023
0
LINE
8
BLACK
6
CONTINUOUS
10
5.53597
20
-3.86023
11
5.53537
21
-3.86037
0
LINE
8
BLACK
6
CONTINUOUS
10
5.53537
20
-3.86037
11
5.53063
21
-3.86215
0
LINE
8
BLACK
6
CONTINUOUS
10
5.53063
20
-3.86215
11
5.53001
21
-3.86249
0
LINE
8
BLACK
6
CONTINUOUS
10
5.53001
20
-3.86249
11
5.526
21
-3.8655
0
LINE
8
BLACK
6
CONTINUOUS
10
5.526
20
-3.8655
11
5.5255
21
-3.866
0
LINE
8
BLACK
6
CONTINUOUS
10
5.5255
20
-3.866
11
5.52398
21
-3.86802
0
LINE
8
BLACK
6
CONTINUOUS
10
5.52398
20
-3.86802
11
5.52174
21
-3.8697
0
LINE
8
BLACK
6
CONTINUOUS
10
5.52174
20
-3.8697
11
5.51896
21
-3.86989
0
LINE
8
BLACK
6
CONTINUOUS
10
5.51896
20
-3.86989
11
5.5165
21
-3.86855
0
LINE
8
BLACK
6
CONTINUOUS
10
5.5165
20
-3.86855
11
5.51604
21
-3.86802
0
LINE
8
BLACK
6
CONTINUOUS
10
5.51604
20
-3.86802
11
5.5143
21
-3.8657
0
LINE
8
BLACK
6
CONTINUOUS
10
5.5143
20
-3.8657
11
5.50971
21
-3.86226
0
LINE
8
BLACK
6
CONTINUOUS
10
5.50971
20
-3.86226
11
5.50434
21
-3.86025
0
LINE
8
BLACK
6
CONTINUOUS
10
5.50434
20
-3.86025
11
5.5019
21
-3.85998
0
LINE
8
BLACK
6
CONTINUOUS
10
5.5019
20
-3.85998
11
5.4381
21
-3.85998
0
LINE
8
BLACK
6
CONTINUOUS
10
5.4381
20
-3.85998
11
5.43566
21
-3.86025
0
LINE
8
BLACK
6
CONTINUOUS
10
5.43566
20
-3.86025
11
5.43029
21
-3.86226
0
LINE
8
BLACK
6
CONTINUOUS
10
5.43029
20
-3.86226
11
5.4257
21
-3.8657
0
LINE
8
BLACK
6
CONTINUOUS
10
5.4257
20
-3.8657
11
5.42549
21
-3.86598
0
LINE
8
BLACK
6
CONTINUOUS
10
5.42549
20
-3.86598
11
5.42549
21
-3.86598
0
LINE
8
BLACK
6
CONTINUOUS
10
5.42549
20
-3.86598
11
5.42397
21
-3.86801
0
LINE
8
BLACK
6
CONTINUOUS
10
5.42397
20
-3.86801
11
5.42173
21
-3.86968
0
LINE
8
BLACK
6
CONTINUOUS
10
5.42173
20
-3.86968
11
5.41894
21
-3.86988
0
LINE
8
BLACK
6
CONTINUOUS
10
5.41894
20
-3.86988
11
5.41649
21
-3.86854
0
LINE
8
BLACK
6
CONTINUOUS
10
5.41649
20
-3.86854
11
5.41603
21
-3.86801
0
LINE
8
BLACK
6
CONTINUOUS
10
5.41603
20
-3.86801
11
5.41451
21
-3.86598
0
LINE
8
BLACK
6
CONTINUOUS
10
5.41451
20
-3.86598
11
5.41451
21
-3.86598
0
LINE
8
BLACK
6
CONTINUOUS
10
5.41451
20
-3.86598
11
5.4143
21
-3.8657
0
LINE
8
BLACK
6
CONTINUOUS
10
5.4143
20
-3.8657
11
5.40971
21
-3.86226
0
LINE
8
BLACK
6
CONTINUOUS
10
5.40971
20
-3.86226
11
5.40434
21
-3.86025
0
LINE
8
BLACK
6
CONTINUOUS
10
5.40434
20
-3.86025
11
5.4019
21
-3.85998
0
LINE
8
BLACK
6
CONTINUOUS
10
5.4019
20
-3.85998
11
5.3381
21
-3.85998
0
LINE
8
BLACK
6
CONTINUOUS
10
5.3381
20
-3.85998
11
5.33566
21
-3.86025
0
LINE
8
BLACK
6
CONTINUOUS
10
5.33566
20
-3.86025
11
5.33029
21
-3.86226
0
LINE
8
BLACK
6
CONTINUOUS
10
5.33029
20
-3.86226
11
5.3257
21
-3.8657
0
LINE
8
BLACK
6
CONTINUOUS
10
5.3257
20
-3.8657
11
5.32549
21
-3.86598
0
LINE
8
BLACK
6
CONTINUOUS
10
5.32549
20
-3.86598
11
5.32549
21
-3.86598
0
LINE
8
BLACK
6
CONTINUOUS
10
5.32549
20
-3.86598
11
5.32397
21
-3.86801
0
LINE
8
BLACK
6
CONTINUOUS
10
5.32397
20
-3.86801
11
5.32173
21
-3.86968
0
LINE
8
BLACK
6
CONTINUOUS
10
5.32173
20
-3.86968
11
5.31894
21
-3.86988
0
LINE
8
BLACK
6
CONTINUOUS
10
5.31894
20
-3.86988
11
5.31649
21
-3.86854
0
LINE
8
BLACK
6
CONTINUOUS
10
5.31649
20
-3.86854
11
5.31603
21
-3.86801
0
LINE
8
BLACK
6
CONTINUOUS
10
5.31603
20
-3.86801
11
5.31451
21
-3.86598
0
LINE
8
BLACK
6
CONTINUOUS
10
5.31451
20
-3.86598
11
5.31451
21
-3.86598
0
LINE
8
BLACK
6
CONTINUOUS
10
5.31451
20
-3.86598
11
5.3143
21
-3.8657
0
LINE
8
BLACK
6
CONTINUOUS
10
5.3143
20
-3.8657
11
5.30971
21
-3.86226
0
LINE
8
BLACK
6
CONTINUOUS
10
5.30971
20
-3.86226
11
5.30434
21
-3.86025
0
LINE
8
BLACK
6
CONTINUOUS
10
5.30434
20
-3.86025
11
5.3019
21
-3.85998
0
LINE
8
BLACK
6
CONTINUOUS
10
5.3019
20
-3.85998
11
5.26148
21
-3.85998
0
LINE
8
BLACK
6
CONTINUOUS
10
5.26148
20
-3.85998
11
5.2588
21
-3.85919
0
LINE
8
BLACK
6
CONTINUOUS
10
5.2588
20
-3.85919
11
5.25798
21
-3.85853
0
LINE
8
BLACK
6
CONTINUOUS
10
5.25798
20
-3.85853
11
5.23794
21
-3.83849
0
LINE
8
BLACK
6
CONTINUOUS
10
5.23794
20
-3.83849
11
5.2366
21
-3.83603
0
LINE
8
BLACK
6
CONTINUOUS
10
5.2366
20
-3.83603
11
5.2368
21
-3.83325
0
LINE
8
BLACK
6
CONTINUOUS
10
5.2368
20
-3.83325
11
5.23847
21
-3.83101
0
LINE
8
BLACK
6
CONTINUOUS
10
5.23847
20
-3.83101
11
5.24109
21
-3.83003
0
LINE
8
BLACK
6
CONTINUOUS
10
5.24109
20
-3.83003
11
5.24144
21
-3.83002
0
LINE
8
BLACK
6
CONTINUOUS
10
5.24144
20
-3.83002
11
5.96502
21
-3.83002
0
LINE
8
BLACK
6
CONTINUOUS
10
5.96502
20
-3.83002
11
5.9677
21
-3.83081
0
LINE
8
BLACK
6
CONTINUOUS
10
5.9677
20
-3.83081
11
5.96953
21
-3.83292
0
LINE
8
BLACK
6
CONTINUOUS
10
5.96953
20
-3.83292
11
5.96998
21
-3.83498
0
LINE
8
BLACK
6
CONTINUOUS
10
5.96998
20
-3.83498
11
5.96998
21
-4.56502
0
LINE
8
BLACK
6
CONTINUOUS
10
5.96998
20
-4.56502
11
5.96919
21
-4.5677
0
LINE
8
BLACK
6
CONTINUOUS
10
5.96919
20
-4.5677
11
5.96708
21
-4.56953
0
LINE
8
BLACK
6
CONTINUOUS
10
5.96708
20
-4.56953
11
5.96502
21
-4.56998
0
LINE
8
BLACK
6
CONTINUOUS
10
5.96502
20
-4.56998
11
4.43498
21
-4.56998
0
LINE
8
BLACK
6
CONTINUOUS
10
4.43498
20
-4.56998
11
4.4323
21
-4.56919
0
LINE
8
BLACK
6
CONTINUOUS
10
4.4323
20
-4.56919
11
4.43047
21
-4.56708
0
LINE
8
BLACK
6
CONTINUOUS
10
4.43047
20
-4.56708
11
4.43002
21
-4.56502
0
LINE
8
BLACK
6
CONTINUOUS
10
4.43002
20
-4.56502
11
4.43002
21
-3.83498
0
LINE
8
BLACK
6
CONTINUOUS
10
4.43002
20
-3.83498
11
4.43081
21
-3.8323
0
LINE
8
BLACK
6
CONTINUOUS
10
5.60913
20
-4.3234
11
5.60943
21
-4.32346
0
LINE
8
BLACK
6
CONTINUOUS
10
5.60943
20
-4.32346
11
5.62625
21
-4.32346
0
LINE
8
BLACK
6
CONTINUOUS
10
5.62625
20
-4.32346
11
5.62652
21
-4.32345
0
LINE
8
BLACK
6
CONTINUOUS
10
5.62652
20
-4.32345
11
5.62852
21
-4.32323
0
LINE
8
BLACK
6
CONTINUOUS
10
5.62852
20
-4.32323
11
5.62912
21
-4.32309
0
LINE
8
BLACK
6
CONTINUOUS
10
5.62912
20
-4.32309
11
5.63386
21
-4.32131
0
LINE
8
BLACK
6
CONTINUOUS
10
5.63386
20
-4.32131
11
5.63447
21
-4.32098
0
LINE
8
BLACK
6
CONTINUOUS
10
5.63447
20
-4.32098
11
5.63849
21
-4.31796
0
LINE
8
BLACK
6
CONTINUOUS
10
5.63849
20
-4.31796
11
5.63899
21
-4.31747
0
LINE
8
BLACK
6
CONTINUOUS
10
5.63899
20
-4.31747
11
5.642
21
-4.31345
0
LINE
8
BLACK
6
CONTINUOUS
10
5.642
20
-4.31345
11
5.64234
21
-4.31284
0
LINE
8
BLACK
6
CONTINUOUS
10
5.64234
20
-4.31284
11
5.64411
21
-4.30809
0
LINE
8
BLACK
6
CONTINUOUS
10
5.64411
20
-4.30809
11
5.64426
21
-4.30749
0
LINE
8
BLACK
6
CONTINUOUS
10
5.64426
20
-4.30749
11
5.64447
21
-4.30549
0
LINE
8
BLACK
6
CONTINUOUS
10
5.64447
20
-4.30549
11
5.64449
21
-4.30522
0
LINE
8
BLACK
6
CONTINUOUS
10
5.64449
20
-4.30522
11
5.64449
21
-4.28071
0
LINE
8
BLACK
6
CONTINUOUS
10
5.64449
20
-4.28071
11
5.64431
21
-4.28011
0
LINE
8
BLACK
6
CONTINUOUS
10
5.64431
20
-4.28011
11
5.64426
21
-4.28007
0
LINE
8
BLACK
6
CONTINUOUS
10
5.64426
20
-4.28007
11
5.64395
21
-4.28
0
LINE
8
BLACK
6
CONTINUOUS
10
5.64395
20
-4.28
11
5.62449
21
-4.28
0
LINE
8
BLACK
6
CONTINUOUS
10
5.62449
20
-4.28
11
5.62449
21
-4.30346
0
LINE
8
BLACK
6
CONTINUOUS
10
5.62449
20
-4.30346
11
5.6089
21
-4.30346
0
LINE
8
BLACK
6
CONTINUOUS
10
5.6089
20
-4.30346
11
5.6089
21
-4.32275
0
LINE
8
BLACK
6
CONTINUOUS
10
5.6089
20
-4.32275
11
5.60907
21
-4.32335
0
LINE
8
BLACK
6
CONTINUOUS
10
5.60907
20
-4.32335
11
5.60913
21
-4.3234
0
LINE
8
BLACK
6
CONTINUOUS
10
5.26071
20
-4.23551
11
5.26011
21
-4.23569
0
LINE
8
BLACK
6
CONTINUOUS
10
5.26011
20
-4.23569
11
5.26007
21
-4.23574
0
LINE
8
BLACK
6
CONTINUOUS
10
5.26007
20
-4.23574
11
5.26
21
-4.23605
0
LINE
8
BLACK
6
CONTINUOUS
10
5.26
20
-4.23605
11
5.26
21
-4.25551
0
LINE
8
BLACK
6
CONTINUOUS
10
5.26
20
-4.25551
11
5.2687
21
-4.25551
0
LINE
8
BLACK
6
CONTINUOUS
10
5.2687
20
-4.25551
11
5.27247
21
-4.25626
0
LINE
8
BLACK
6
CONTINUOUS
10
5.27247
20
-4.25626
11
5.27566
21
-4.25839
0
LINE
8
BLACK
6
CONTINUOUS
10
5.27566
20
-4.25839
11
5.27779
21
-4.26159
0
LINE
8
BLACK
6
CONTINUOUS
10
5.27779
20
-4.26159
11
5.27851
21
-4.2652
0
LINE
8
BLACK
6
CONTINUOUS
10
5.27851
20
-4.2652
11
5.31149
21
-4.2652
0
LINE
8
BLACK
6
CONTINUOUS
10
5.31149
20
-4.2652
11
5.31221
21
-4.26159
0
LINE
8
BLACK
6
CONTINUOUS
10
5.31221
20
-4.26159
11
5.31434
21
-4.25839
0
LINE
8
BLACK
6
CONTINUOUS
10
5.31434
20
-4.25839
11
5.31753
21
-4.25626
0
LINE
8
BLACK
6
CONTINUOUS
10
5.31753
20
-4.25626
11
5.3213
21
-4.25551
0
LINE
8
BLACK
6
CONTINUOUS
10
5.3213
20
-4.25551
11
5.33
21
-4.25551
0
LINE
8
BLACK
6
CONTINUOUS
10
5.33
20
-4.25551
11
5.33
21
-4.23623
0
LINE
8
BLACK
6
CONTINUOUS
10
5.33
20
-4.23623
11
5.32982
21
-4.23563
0
LINE
8
BLACK
6
CONTINUOUS
10
5.32982
20
-4.23563
11
5.32977
21
-4.23558
0
LINE
8
BLACK
6
CONTINUOUS
10
5.32977
20
-4.23558
11
5.32947
21
-4.23551
0
LINE
8
BLACK
6
CONTINUOUS
10
5.32947
20
-4.23551
11
5.32149
21
-4.23551
0
LINE
8
BLACK
6
CONTINUOUS
10
5.32149
20
-4.23551
11
5.32
21
-4.23575
0
LINE
8
BLACK
6
CONTINUOUS
10
5.32
20
-4.23575
11
5.31883
21
-4.23556
0
LINE
8
BLACK
6
CONTINUOUS
10
5.31883
20
-4.23556
11
5.31542
21
-4.23592
0
LINE
8
BLACK
6
CONTINUOUS
10
5.31542
20
-4.23592
11
5.3149
21
-4.23603
0
LINE
8
BLACK
6
CONTINUOUS
10
5.3149
20
-4.23603
11
5.30883
21
-4.23805
0
LINE
8
BLACK
6
CONTINUOUS
10
5.30883
20
-4.23805
11
5.30831
21
-4.2383
0
LINE
8
BLACK
6
CONTINUOUS
10
5.30831
20
-4.2383
11
5.30288
21
-4.24166
0
LINE
8
BLACK
6
CONTINUOUS
10
5.30288
20
-4.24166
11
5.30243
21
-4.24201
0
LINE
8
BLACK
6
CONTINUOUS
10
5.30243
20
-4.24201
11
5.29851
21
-4.24594
0
LINE
8
BLACK
6
CONTINUOUS
10
5.29851
20
-4.24594
11
5.29606
21
-4.24728
0
LINE
8
BLACK
6
CONTINUOUS
10
5.29606
20
-4.24728
11
5.29327
21
-4.24708
0
LINE
8
BLACK
6
CONTINUOUS
10
5.29327
20
-4.24708
11
5.2915
21
-4.24594
0
LINE
8
BLACK
6
CONTINUOUS
10
5.2915
20
-4.24594
11
5.28753
21
-4.24198
0
LINE
8
BLACK
6
CONTINUOUS
10
5.28753
20
-4.24198
11
5.28708
21
-4.24162
0
LINE
8
BLACK
6
CONTINUOUS
10
5.28708
20
-4.24162
11
5.28164
21
-4.23827
0
LINE
8
BLACK
6
CONTINUOUS
10
5.28164
20
-4.23827
11
5.28113
21
-4.23803
0
LINE
8
BLACK
6
CONTINUOUS
10
5.28113
20
-4.23803
11
5.27505
21
-4.23602
0
LINE
8
BLACK
6
CONTINUOUS
10
5.27505
20
-4.23602
11
5.27452
21
-4.23591
0
LINE
8
BLACK
6
CONTINUOUS
10
5.27452
20
-4.23591
11
5.27081
21
-4.23552
0
LINE
8
BLACK
6
CONTINUOUS
10
5.27081
20
-4.23552
11
5.27056
21
-4.23551
0
LINE
8
BLACK
6
CONTINUOUS
10
5.27056
20
-4.23551
11
5.26071
21
-4.23551
0
LINE
8
BLACK
6
CONTINUOUS
10
5.35071
20
-4.23551
11
5.35011
21
-4.23569
0
LINE
8
BLACK
6
CONTINUOUS
10
5.35011
20
-4.23569
11
5.35007
21
-4.23574
0
LINE
8
BLACK
6
CONTINUOUS
10
5.35007
20
-4.23574
11
5.35
21
-4.23605
0
LINE
8
BLACK
6
CONTINUOUS
10
5.35
20
-4.23605
11
5.35
21
-4.25551
0
LINE
8
BLACK
6
CONTINUOUS
10
5.35
20
-4.25551
11
5.3587
21
-4.25551
0
LINE
8
BLACK
6
CONTINUOUS
10
5.3587
20
-4.25551
11
5.36247
21
-4.25626
0
LINE
8
BLACK
6
CONTINUOUS
10
5.36247
20
-4.25626
11
5.36566
21
-4.25839
0
LINE
8
BLACK
6
CONTINUOUS
10
5.36566
20
-4.25839
11
5.36779
21
-4.26159
0
LINE
8
BLACK
6
CONTINUOUS
10
5.36779
20
-4.26159
11
5.36851
21
-4.2652
0
LINE
8
BLACK
6
CONTINUOUS
10
5.36851
20
-4.2652
11
5.38783
21
-4.2652
0
LINE
8
BLACK
6
CONTINUOUS
10
5.38783
20
-4.2652
11
5.38843
21
-4.26502
0
LINE
8
BLACK
6
CONTINUOUS
10
5.38843
20
-4.26502
11
5.38848
21
-4.26497
0
LINE
8
BLACK
6
CONTINUOUS
10
5.38848
20
-4.26497
11
5.38854
21
-4.26466
0
LINE
8
BLACK
6
CONTINUOUS
10
5.38854
20
-4.26466
11
5.38854
21
-4.2635
0
LINE
8
BLACK
6
CONTINUOUS
10
5.38854
20
-4.2635
11
5.38853
21
-4.26324
0
LINE
8
BLACK
6
CONTINUOUS
10
5.38853
20
-4.26324
11
5.38814
21
-4.25948
0
LINE
8
BLACK
6
CONTINUOUS
10
5.38814
20
-4.25948
11
5.38803
21
-4.25895
0
LINE
8
BLACK
6
CONTINUOUS
10
5.38803
20
-4.25895
11
5.386
21
-4.25288
0
LINE
8
BLACK
6
CONTINUOUS
10
5.386
20
-4.25288
11
5.38576
21
-4.25236
0
LINE
8
BLACK
6
CONTINUOUS
10
5.38576
20
-4.25236
11
5.3824
21
-4.24694
0
LINE
8
BLACK
6
CONTINUOUS
10
5.3824
20
-4.24694
11
5.38204
21
-4.24649
0
LINE
8
BLACK
6
CONTINUOUS
10
5.38204
20
-4.24649
11
5.37753
21
-4.24198
0
LINE
8
BLACK
6
CONTINUOUS
10
5.37753
20
-4.24198
11
5.37708
21
-4.24162
0
LINE
8
BLACK
6
CONTINUOUS
10
5.37708
20
-4.24162
11
5.37164
21
-4.23827
0
LINE
8
BLACK
6
CONTINUOUS
10
5.37164
20
-4.23827
11
5.37113
21
-4.23803
0
LINE
8
BLACK
6
CONTINUOUS
10
5.37113
20
-4.23803
11
5.36505
21
-4.23602
0
LINE
8
BLACK
6
CONTINUOUS
10
5.36505
20
-4.23602
11
5.36452
21
-4.23591
0
LINE
8
BLACK
6
CONTINUOUS
10
5.36452
20
-4.23591
11
5.36117
21
-4.23556
0
LINE
8
BLACK
6
CONTINUOUS
10
5.36117
20
-4.23556
11
5.36
21
-4.23575
0
LINE
8
BLACK
6
CONTINUOUS
10
5.36
20
-4.23575
11
5.35851
21
-4.23551
0
LINE
8
BLACK
6
CONTINUOUS
10
5.35851
20
-4.23551
11
5.35071
21
-4.23551
0
LINE
8
BLACK
6
CONTINUOUS
10
5.94015
20
-4.14386
11
5.65985
21
-4.14386
0
LINE
8
BLACK
6
CONTINUOUS
10
5.65985
20
-4.14386
11
5.65985
21
-4.25614
0
LINE
8
BLACK
6
CONTINUOUS
10
5.65985
20
-4.25614
11
5.94015
21
-4.25614
0
LINE
8
BLACK
6
CONTINUOUS
10
5.94015
20
-4.25614
11
5.94015
21
-4.14386
0
LINE
8
BLACK
6
CONTINUOUS
10
5.6
20
-3.92
11
5.6
21
-3.94
0
LINE
8
BLACK
6
CONTINUOUS
10
5.6
20
-3.94
11
5.58
21
-3.94
0
LINE
8
BLACK
6
CONTINUOUS
10
5.58
20
-3.94
11
5.58
21
-3.98
0
LINE
8
BLACK
6
CONTINUOUS
10
5.58
20
-3.98
11
5.6
21
-3.98
0
LINE
8
BLACK
6
CONTINUOUS
10
5.6
20
-3.98
11
5.6
21
-4
0
LINE
8
BLACK
6
CONTINUOUS
10
5.6
20
-4
11
5.61929
21
-4
0
LINE
8
BLACK
6
CONTINUOUS
10
5.61929
20
-4
11
5.61989
21
-3.99982
0
LINE
8
BLACK
6
CONTINUOUS
10
5.61989
20
-3.99982
11
5.61993
21
-3.99977
0
LINE
8
BLACK
6
CONTINUOUS
10
5.61993
20
-3.99977
11
5.62
21
-3.99947
0
LINE
8
BLACK
6
CONTINUOUS
10
5.62
20
-3.99947
11
5.62
21
-3.97824
0
LINE
8
BLACK
6
CONTINUOUS
10
5.62
20
-3.97824
11
5.61999
21
-3.97797
0
LINE
8
BLACK
6
CONTINUOUS
10
5.61999
20
-3.97797
11
5.61977
21
-3.97597
0
LINE
8
BLACK
6
CONTINUOUS
10
5.61977
20
-3.97597
11
5.61963
21
-3.97537
0
LINE
8
BLACK
6
CONTINUOUS
10
5.61963
20
-3.97537
11
5.61785
21
-3.97063
0
LINE
8
BLACK
6
CONTINUOUS
10
5.61785
20
-3.97063
11
5.61751
21
-3.97001
0
LINE
8
BLACK
6
CONTINUOUS
10
5.61751
20
-3.97001
11
5.6145
21
-3.966
0
LINE
8
BLACK
6
CONTINUOUS
10
5.6145
20
-3.966
11
5.614
21
-3.9655
0
LINE
8
BLACK
6
CONTINUOUS
10
5.614
20
-3.9655
11
5.61196
21
-3.96397
0
LINE
8
BLACK
6
CONTINUOUS
10
5.61196
20
-3.96397
11
5.61029
21
-3.96173
0
LINE
8
BLACK
6
CONTINUOUS
10
5.61029
20
-3.96173
11
5.61009
21
-3.95894
0
LINE
8
BLACK
6
CONTINUOUS
10
5.61009
20
-3.95894
11
5.61143
21
-3.95649
0
LINE
8
BLACK
6
CONTINUOUS
10
5.61143
20
-3.95649
11
5.61196
21
-3.95603
0
LINE
8
BLACK
6
CONTINUOUS
10
5.61196
20
-3.95603
11
5.614
21
-3.9545
0
LINE
8
BLACK
6
CONTINUOUS
10
5.614
20
-3.9545
11
5.6145
21
-3.954
0
LINE
8
BLACK
6
CONTINUOUS
10
5.6145
20
-3.954
11
5.61751
21
-3.94999
0
LINE
8
BLACK
6
CONTINUOUS
10
5.61751
20
-3.94999
11
5.61785
21
-3.94937
0
LINE
8
BLACK
6
CONTINUOUS
10
5.61785
20
-3.94937
11
5.61963
21
-3.94463
0
LINE
8
BLACK
6
CONTINUOUS
10
5.61963
20
-3.94463
11
5.61977
21
-3.94403
0
LINE
8
BLACK
6
CONTINUOUS
10
5.61977
20
-3.94403
11
5.61999
21
-3.94203
0
LINE
8
BLACK
6
CONTINUOUS
10
5.61999
20
-3.94203
11
5.62
21
-3.94176
0
LINE
8
BLACK
6
CONTINUOUS
10
5.62
20
-3.94176
11
5.62
21
-3.92071
0
LINE
8
BLACK
6
CONTINUOUS
10
5.62
20
-3.92071
11
5.61982
21
-3.92011
0
LINE
8
BLACK
6
CONTINUOUS
10
5.61982
20
-3.92011
11
5.61977
21
-3.92007
0
LINE
8
BLACK
6
CONTINUOUS
10
5.61977
20
-3.92007
11
5.61947
21
-3.92
0
LINE
8
BLACK
6
CONTINUOUS
10
5.61947
20
-3.92
11
5.6
21
-3.92
0
LINE
8
BLACK
6
CONTINUOUS
10
5.58071
20
-3.86
11
5.58011
21
-3.86018
0
LINE
8
BLACK
6
CONTINUOUS
10
5.58011
20
-3.86018
11
5.58007
21
-3.86023
0
LINE
8
BLACK
6
CONTINUOUS
10
5.58007
20
-3.86023
11
5.58
21
-3.86053
0
LINE
8
BLACK
6
CONTINUOUS
10
5.58
20
-3.86053
11
5.58
21
-3.88
0
LINE
8
BLACK
6
CONTINUOUS
10
5.58
20
-3.88
11
5.6
21
-3.88
0
LINE
8
BLACK
6
CONTINUOUS
10
5.6
20
-3.88
11
5.6
21
-3.9
0
LINE
8
BLACK
6
CONTINUOUS
10
5.6
20
-3.9
11
5.61929
21
-3.9
0
LINE
8
BLACK
6
CONTINUOUS
10
5.61929
20
-3.9
11
5.61989
21
-3.89982
0
LINE
8
BLACK
6
CONTINUOUS
10
5.61989
20
-3.89982
11
5.61993
21
-3.89977
0
LINE
8
BLACK
6
CONTINUOUS
10
5.61993
20
-3.89977
11
5.62
21
-3.89947
0
LINE
8
BLACK
6
CONTINUOUS
10
5.62
20
-3.89947
11
5.62
21
-3.87824
0
LINE
8
BLACK
6
CONTINUOUS
10
5.62
20
-3.87824
11
5.61999
21
-3.87797
0
LINE
8
BLACK
6
CONTINUOUS
10
5.61999
20
-3.87797
11
5.61977
21
-3.87597
0
LINE
8
BLACK
6
CONTINUOUS
10
5.61977
20
-3.87597
11
5.61963
21
-3.87537
0
LINE
8
BLACK
6
CONTINUOUS
10
5.61963
20
-3.87537
11
5.61785
21
-3.87063
0
LINE
8
BLACK
6
CONTINUOUS
10
5.61785
20
-3.87063
11
5.61751
21
-3.87001
0
LINE
8
BLACK
6
CONTINUOUS
10
5.61751
20
-3.87001
11
5.6145
21
-3.866
0
LINE
8
BLACK
6
CONTINUOUS
10
5.6145
20
-3.866
11
5.614
21
-3.8655
0
LINE
8
BLACK
6
CONTINUOUS
10
5.614
20
-3.8655
11
5.60999
21
-3.86249
0
LINE
8
BLACK
6
CONTINUOUS
10
5.60999
20
-3.86249
11
5.60937
21
-3.86215
0
LINE
8
BLACK
6
CONTINUOUS
10
5.60937
20
-3.86215
11
5.60463
21
-3.86037
0
LINE
8
BLACK
6
CONTINUOUS
10
5.60463
20
-3.86037
11
5.60403
21
-3.86023
0
LINE
8
BLACK
6
CONTINUOUS
10
5.60403
20
-3.86023
11
5.60203
21
-3.86001
0
LINE
8
BLACK
6
CONTINUOUS
10
5.60203
20
-3.86001
11
5.60176
21
-3.86
0
LINE
8
BLACK
6
CONTINUOUS
10
5.60176
20
-3.86
11
5.58071
21
-3.86
0
LINE
8
BLACK
6
CONTINUOUS
10
5.57331
20
-4.30346
11
5.57331
21
-4.28
0
LINE
8
BLACK
6
CONTINUOUS
10
5.57331
20
-4.28
11
5.55402
21
-4.28
0
LINE
8
BLACK
6
CONTINUOUS
10
5.55402
20
-4.28
11
5.55342
21
-4.28018
0
LINE
8
BLACK
6
CONTINUOUS
10
5.55342
20
-4.28018
11
5.55337
21
-4.28023
0
LINE
8
BLACK
6
CONTINUOUS
10
5.55337
20
-4.28023
11
5.55331
21
-4.28053
0
LINE
8
BLACK
6
CONTINUOUS
10
5.55331
20
-4.28053
11
5.55331
21
-4.30522
0
LINE
8
BLACK
6
CONTINUOUS
10
5.55331
20
-4.30522
11
5.55332
21
-4.30549
0
LINE
8
BLACK
6
CONTINUOUS
10
5.55332
20
-4.30549
11
5.55354
21
-4.30749
0
LINE
8
BLACK
6
CONTINUOUS
10
5.55354
20
-4.30749
11
5.55368
21
-4.30809
0
LINE
8
BLACK
6
CONTINUOUS
10
5.55368
20
-4.30809
11
5.55546
21
-4.31284
0
LINE
8
BLACK
6
CONTINUOUS
10
5.55546
20
-4.31284
11
5.5558
21
-4.31345
0
LINE
8
BLACK
6
CONTINUOUS
10
5.5558
20
-4.31345
11
5.55881
21
-4.31747
0
LINE
8
BLACK
6
CONTINUOUS
10
5.55881
20
-4.31747
11
5.5593
21
-4.31796
0
LINE
8
BLACK
6
CONTINUOUS
10
5.5593
20
-4.31796
11
5.56332
21
-4.32098
0
LINE
8
BLACK
6
CONTINUOUS
10
5.56332
20
-4.32098
11
5.56393
21
-4.32131
0
LINE
8
BLACK
6
CONTINUOUS
10
5.56393
20
-4.32131
11
5.56868
21
-4.32309
0
LINE
8
BLACK
6
CONTINUOUS
10
5.56868
20
-4.32309
11
5.56928
21
-4.32323
0
LINE
8
BLACK
6
CONTINUOUS
10
5.56928
20
-4.32323
11
5.57128
21
-4.32345
0
LINE
8
BLACK
6
CONTINUOUS
10
5.57128
20
-4.32345
11
5.57155
21
-4.32346
0
LINE
8
BLACK
6
CONTINUOUS
10
5.57155
20
-4.32346
11
5.58818
21
-4.32346
0
LINE
8
BLACK
6
CONTINUOUS
10
5.58818
20
-4.32346
11
5.58878
21
-4.32329
0
LINE
8
BLACK
6
CONTINUOUS
10
5.58878
20
-4.32329
11
5.58883
21
-4.32323
0
LINE
8
BLACK
6
CONTINUOUS
10
5.58883
20
-4.32323
11
5.5889
21
-4.32293
0
LINE
8
BLACK
6
CONTINUOUS
10
5.5889
20
-4.32293
11
5.5889
21
-4.30346
0
LINE
8
BLACK
6
CONTINUOUS
10
5.5889
20
-4.30346
11
5.57331
21
-4.30346
0
LINE
8
BLACK
6
CONTINUOUS
10
5.55354
20
-4.25993
11
5.55384
21
-4.26
0
LINE
8
BLACK
6
CONTINUOUS
10
5.55384
20
-4.26
11
5.57331
21
-4.26
0
LINE
8
BLACK
6
CONTINUOUS
10
5.57331
20
-4.26
11
5.57331
21
-4.23654
0
LINE
8
BLACK
6
CONTINUOUS
10
5.57331
20
-4.23654
11
5.5889
21
-4.23654
0
LINE
8
BLACK
6
CONTINUOUS
10
5.5889
20
-4.23654
11
5.5889
21
-4.21725
0
LINE
8
BLACK
6
CONTINUOUS
10
5.5889
20
-4.21725
11
5.58872
21
-4.21665
0
LINE
8
BLACK
6
CONTINUOUS
10
5.58872
20
-4.21665
11
5.58867
21
-4.2166
0
LINE
8
BLACK
6
CONTINUOUS
10
5.58867
20
-4.2166
11
5.58836
21
-4.21654
0
LINE
8
BLACK
6
CONTINUOUS
10
5.58836
20
-4.21654
11
5.57155
21
-4.21654
0
LINE
8
BLACK
6
CONTINUOUS
10
5.57155
20
-4.21654
11
5.57128
21
-4.21655
0
LINE
8
BLACK
6
CONTINUOUS
10
5.57128
20
-4.21655
11
5.56928
21
-4.21677
0
LINE
8
BLACK
6
CONTINUOUS
10
5.56928
20
-4.21677
11
5.56868
21
-4.21691
0
LINE
8
BLACK
6
CONTINUOUS
10
5.56868
20
-4.21691
11
5.56393
21
-4.21869
0
LINE
8
BLACK
6
CONTINUOUS
10
5.56393
20
-4.21869
11
5.56332
21
-4.21902
0
LINE
8
BLACK
6
CONTINUOUS
10
5.56332
20
-4.21902
11
5.5593
21
-4.22204
0
LINE
8
BLACK
6
CONTINUOUS
10
5.5593
20
-4.22204
11
5.55881
21
-4.22253
0
LINE
8
BLACK
6
CONTINUOUS
10
5.55881
20
-4.22253
11
5.5558
21
-4.22655
0
LINE
8
BLACK
6
CONTINUOUS
10
5.5558
20
-4.22655
11
5.55546
21
-4.22716
0
LINE
8
BLACK
6
CONTINUOUS
10
5.55546
20
-4.22716
11
5.55368
21
-4.23191
0
LINE
8
BLACK
6
CONTINUOUS
10
5.55368
20
-4.23191
11
5.55354
21
-4.23251
0
LINE
8
BLACK
6
CONTINUOUS
10
5.55354
20
-4.23251
11
5.55332
21
-4.23451
0
LINE
8
BLACK
6
CONTINUOUS
10
5.55332
20
-4.23451
11
5.55331
21
-4.23478
0
LINE
8
BLACK
6
CONTINUOUS
10
5.55331
20
-4.23478
11
5.55331
21
-4.25929
0
LINE
8
BLACK
6
CONTINUOUS
10
5.55331
20
-4.25929
11
5.55348
21
-4.25989
0
LINE
8
BLACK
6
CONTINUOUS
10
5.55348
20
-4.25989
11
5.55354
21
-4.25993
0
LINE
8
BLACK
6
CONTINUOUS
10
4.83283
20
-4.14486
11
4.45317
21
-4.14486
0
LINE
8
BLACK
6
CONTINUOUS
10
4.45317
20
-4.14486
11
4.45317
21
-4.25714
0
LINE
8
BLACK
6
CONTINUOUS
10
4.45317
20
-4.25714
11
4.83283
21
-4.25714
0
LINE
8
BLACK
6
CONTINUOUS
10
4.83283
20
-4.25714
11
4.83283
21
-4.14486
0
LINE
8
BLACK
6
CONTINUOUS
10
5.58023
20
-4.05993
11
5.58053
21
-4.06
0
LINE
8
BLACK
6
CONTINUOUS
10
5.58053
20
-4.06
11
5.60176
21
-4.06
0
LINE
8
BLACK
6
CONTINUOUS
10
5.60176
20
-4.06
11
5.60203
21
-4.05999
0
LINE
8
BLACK
6
CONTINUOUS
10
5.60203
20
-4.05999
11
5.60403
21
-4.05977
0
LINE
8
BLACK
6
CONTINUOUS
10
5.60403
20
-4.05977
11
5.60463
21
-4.05963
0
LINE
8
BLACK
6
CONTINUOUS
10
5.60463
20
-4.05963
11
5.60937
21
-4.05785
0
LINE
8
BLACK
6
CONTINUOUS
10
5.60937
20
-4.05785
11
5.60999
21
-4.05751
0
LINE
8
BLACK
6
CONTINUOUS
10
5.60999
20
-4.05751
11
5.614
21
-4.0545
0
LINE
8
BLACK
6
CONTINUOUS
10
5.614
20
-4.0545
11
5.6145
21
-4.054
0
LINE
8
BLACK
6
CONTINUOUS
10
5.6145
20
-4.054
11
5.61751
21
-4.04999
0
LINE
8
BLACK
6
CONTINUOUS
10
5.61751
20
-4.04999
11
5.61785
21
-4.04937
0
LINE
8
BLACK
6
CONTINUOUS
10
5.61785
20
-4.04937
11
5.61963
21
-4.04463
0
LINE
8
BLACK
6
CONTINUOUS
10
5.61963
20
-4.04463
11
5.61977
21
-4.04403
0
LINE
8
BLACK
6
CONTINUOUS
10
5.61977
20
-4.04403
11
5.61999
21
-4.04203
0
LINE
8
BLACK
6
CONTINUOUS
10
5.61999
20
-4.04203
11
5.62
21
-4.04176
0
LINE
8
BLACK
6
CONTINUOUS
10
5.62
20
-4.04176
11
5.62
21
-4.02071
0
LINE
8
BLACK
6
CONTINUOUS
10
5.62
20
-4.02071
11
5.61982
21
-4.02011
0
LINE
8
BLACK
6
CONTINUOUS
10
5.61982
20
-4.02011
11
5.61977
21
-4.02007
0
LINE
8
BLACK
6
CONTINUOUS
10
5.61977
20
-4.02007
11
5.61947
21
-4.02
0
LINE
8
BLACK
6
CONTINUOUS
10
5.61947
20
-4.02
11
5.6
21
-4.02
0
LINE
8
BLACK
6
CONTINUOUS
10
5.6
20
-4.02
11
5.6
21
-4.04
0
LINE
8
BLACK
6
CONTINUOUS
10
5.6
20
-4.04
11
5.58
21
-4.04
0
LINE
8
BLACK
6
CONTINUOUS
10
5.58
20
-4.04
11
5.58
21
-4.05929
0
LINE
8
BLACK
6
CONTINUOUS
10
5.58
20
-4.05929
11
5.58018
21
-4.05989
0
LINE
8
BLACK
6
CONTINUOUS
10
5.58018
20
-4.05989
11
5.58023
21
-4.05993
0
LINE
8
BLACK
6
CONTINUOUS
10
5.64447
20
-4.23451
11
5.64426
21
-4.23251
0
LINE
8
BLACK
6
CONTINUOUS
10
5.64426
20
-4.23251
11
5.64411
21
-4.23191
0
LINE
8
BLACK
6
CONTINUOUS
10
5.64411
20
-4.23191
11
5.64234
21
-4.22716
0
LINE
8
BLACK
6
CONTINUOUS
10
5.64234
20
-4.22716
11
5.642
21
-4.22655
0
LINE
8
BLACK
6
CONTINUOUS
10
5.642
20
-4.22655
11
5.63899
21
-4.22253
0
LINE
8
BLACK
6
CONTINUOUS
10
5.63899
20
-4.22253
11
5.63849
21
-4.22204
0
LINE
8
BLACK
6
CONTINUOUS
10
5.63849
20
-4.22204
11
5.63447
21
-4.21902
0
LINE
8
BLACK
6
CONTINUOUS
10
5.63447
20
-4.21902
11
5.63386
21
-4.21869
0
LINE
8
BLACK
6
CONTINUOUS
10
5.63386
20
-4.21869
11
5.62912
21
-4.21691
0
LINE
8
BLACK
6
CONTINUOUS
10
5.62912
20
-4.21691
11
5.62852
21
-4.21677
0
LINE
8
BLACK
6
CONTINUOUS
10
5.62852
20
-4.21677
11
5.62652
21
-4.21655
0
LINE
8
BLACK
6
CONTINUOUS
10
5.62652
20
-4.21655
11
5.62625
21
-4.21654
0
LINE
8
BLACK
6
CONTINUOUS
10
5.62625
20
-4.21654
11
5.60961
21
-4.21654
0
LINE
8
BLACK
6
CONTINUOUS
10
5.60961
20
-4.21654
11
5.60901
21
-4.21671
0
LINE
8
BLACK
6
CONTINUOUS
10
5.60901
20
-4.21671
11
5.60896
21
-4.21677
0
LINE
8
BLACK
6
CONTINUOUS
10
5.60896
20
-4.21677
11
5.6089
21
-4.21707
0
LINE
8
BLACK
6
CONTINUOUS
10
5.6089
20
-4.21707
11
5.6089
21
-4.23654
0
LINE
8
BLACK
6
CONTINUOUS
10
5.6089
20
-4.23654
11
5.62449
21
-4.23654
0
LINE
8
BLACK
6
CONTINUOUS
10
5.62449
20
-4.23654
11
5.62449
21
-4.26
0
LINE
8
BLACK
6
CONTINUOUS
10
5.62449
20
-4.26
11
5.64377
21
-4.26
0
LINE
8
BLACK
6
CONTINUOUS
10
5.64377
20
-4.26
11
5.64437
21
-4.25982
0
LINE
8
BLACK
6
CONTINUOUS
10
5.64437
20
-4.25982
11
5.64442
21
-4.25977
0
LINE
8
BLACK
6
CONTINUOUS
10
5.64442
20
-4.25977
11
5.64449
21
-4.25947
0
LINE
8
BLACK
6
CONTINUOUS
10
5.64449
20
-4.25947
11
5.64449
21
-4.23478
0
LINE
8
BLACK
6
CONTINUOUS
10
5.64449
20
-4.23478
11
5.64447
21
-4.23451
0
LINE
8
BLACK
6
CONTINUOUS
10
5.17674
20
-4.41787
11
5.14999
21
-4.41787
0
LINE
8
BLACK
6
CONTINUOUS
10
5.14999
20
-4.41787
11
5.1487
21
-4.41758
0
LINE
8
BLACK
6
CONTINUOUS
10
5.1487
20
-4.41758
11
5.1474
21
-4.41743
0
LINE
8
BLACK
6
CONTINUOUS
10
5.1474
20
-4.41743
11
5.14701
21
-4.41719
0
LINE
8
BLACK
6
CONTINUOUS
10
5.14701
20
-4.41719
11
5.14657
21
-4.41709
0
LINE
8
BLACK
6
CONTINUOUS
10
5.14657
20
-4.41709
11
5.14555
21
-4.41627
0
LINE
8
BLACK
6
CONTINUOUS
10
5.14555
20
-4.41627
11
5.14443
21
-4.41557
0
LINE
8
BLACK
6
CONTINUOUS
10
5.14443
20
-4.41557
11
5.11903
21
-4.39016
0
LINE
8
BLACK
6
CONTINUOUS
10
5.11903
20
-4.39016
11
5.11833
21
-4.38905
0
LINE
8
BLACK
6
CONTINUOUS
10
5.11833
20
-4.38905
11
5.11751
21
-4.38802
0
LINE
8
BLACK
6
CONTINUOUS
10
5.11751
20
-4.38802
11
5.11741
21
-4.38758
0
LINE
8
BLACK
6
CONTINUOUS
10
5.11741
20
-4.38758
11
5.11717
21
-4.3872
0
LINE
8
BLACK
6
CONTINUOUS
10
5.11717
20
-4.3872
11
5.11702
21
-4.38589
0
LINE
8
BLACK
6
CONTINUOUS
10
5.11702
20
-4.38589
11
5.11673
21
-4.38461
0
LINE
8
BLACK
6
CONTINUOUS
10
5.11673
20
-4.38461
11
5.11673
21
-4.37496
0
LINE
8
BLACK
6
CONTINUOUS
10
5.11673
20
-4.37496
11
5.1128
21
-4.37496
0
LINE
8
BLACK
6
CONTINUOUS
10
5.1128
20
-4.37496
11
5.1128
21
-4.33165
0
LINE
8
BLACK
6
CONTINUOUS
10
5.1128
20
-4.33165
11
5.13642
21
-4.33165
0
LINE
8
BLACK
6
CONTINUOUS
10
5.13642
20
-4.33165
11
5.13642
21
-4.37496
0
LINE
8
BLACK
6
CONTINUOUS
10
5.13642
20
-4.37496
11
5.13248
21
-4.37496
0
LINE
8
BLACK
6
CONTINUOUS
10
5.13248
20
-4.37496
11
5.13248
21
-4.38134
0
LINE
8
BLACK
6
CONTINUOUS
10
5.13248
20
-4.38134
11
5.15326
21
-4.40213
0
LINE
8
BLACK
6
CONTINUOUS
10
5.15326
20
-4.40213
11
5.18001
21
-4.40213
0
LINE
8
BLACK
6
CONTINUOUS
10
5.18001
20
-4.40213
11
5.1813
21
-4.40242
0
LINE
8
BLACK
6
CONTINUOUS
10
5.1813
20
-4.40242
11
5.1826
21
-4.40257
0
LINE
8
BLACK
6
CONTINUOUS
10
5.1826
20
-4.40257
11
5.18299
21
-4.40281
0
LINE
8
BLACK
6
CONTINUOUS
10
5.18299
20
-4.40281
11
5.18343
21
-4.40291
0
LINE
8
BLACK
6
CONTINUOUS
10
5.18343
20
-4.40291
11
5.18445
21
-4.40373
0
LINE
8
BLACK
6
CONTINUOUS
10
5.18445
20
-4.40373
11
5.18557
21
-4.40443
0
LINE
8
BLACK
6
CONTINUOUS
10
5.18557
20
-4.40443
11
5.20558
21
-4.42444
0
LINE
8
BLACK
6
CONTINUOUS
10
5.20558
20
-4.42444
11
5.20628
21
-4.42556
0
LINE
8
BLACK
6
CONTINUOUS
10
5.20628
20
-4.42556
11
5.2071
21
-4.42659
0
LINE
8
BLACK
6
CONTINUOUS
10
5.2071
20
-4.42659
11
5.2072
21
-4.42703
0
LINE
8
BLACK
6
CONTINUOUS
10
5.2072
20
-4.42703
11
5.20744
21
-4.42741
0
LINE
8
BLACK
6
CONTINUOUS
10
5.20744
20
-4.42741
11
5.20758
21
-4.42872
0
LINE
8
BLACK
6
CONTINUOUS
10
5.20758
20
-4.42872
11
5.20787
21
-4.43
0
LINE
8
BLACK
6
CONTINUOUS
10
5.20787
20
-4.43
11
5.20787
21
-4.44047
0
LINE
8
BLACK
6
CONTINUOUS
10
5.20787
20
-4.44047
11
5.21969
21
-4.44047
0
LINE
8
BLACK
6
CONTINUOUS
10
5.21969
20
-4.44047
11
5.21969
21
-4.45819
0
LINE
8
BLACK
6
CONTINUOUS
10
5.21969
20
-4.45819
11
5.22953
21
-4.45819
0
LINE
8
BLACK
6
CONTINUOUS
10
5.22953
20
-4.45819
11
5.22953
21
-4.44047
0
LINE
8
BLACK
6
CONTINUOUS
10
5.22953
20
-4.44047
11
5.24118
21
-4.44047
0
LINE
8
BLACK
6
CONTINUOUS
10
5.24118
20
-4.44047
11
5.24118
21
-4.36977
0
LINE
8
BLACK
6
CONTINUOUS
10
5.24118
20
-4.36977
11
5.24
21
-4.37
0
LINE
8
BLACK
6
CONTINUOUS
10
5.24
20
-4.37
11
5.23842
21
-4.36969
0
LINE
8
BLACK
6
CONTINUOUS
10
5.23842
20
-4.36969
11
5.2313
21
-4.36969
0
LINE
8
BLACK
6
CONTINUOUS
10
5.2313
20
-4.36969
11
5.22753
21
-4.36894
0
LINE
8
BLACK
6
CONTINUOUS
10
5.22753
20
-4.36894
11
5.22434
21
-4.3668
0
LINE
8
BLACK
6
CONTINUOUS
10
5.22434
20
-4.3668
11
5.22221
21
-4.36361
0
LINE
8
BLACK
6
CONTINUOUS
10
5.22221
20
-4.36361
11
5.22149
21
-4.36
0
LINE
8
BLACK
6
CONTINUOUS
10
5.22149
20
-4.36
11
5.18563
21
-4.36
0
LINE
8
BLACK
6
CONTINUOUS
10
5.18563
20
-4.36
11
5.18563
21
-4.37496
0
LINE
8
BLACK
6
CONTINUOUS
10
5.18563
20
-4.37496
11
5.16201
21
-4.37496
0
LINE
8
BLACK
6
CONTINUOUS
10
5.16201
20
-4.37496
11
5.16201
21
-4.33165
0
LINE
8
BLACK
6
CONTINUOUS
10
5.16201
20
-4.33165
11
5.18563
21
-4.33165
0
LINE
8
BLACK
6
CONTINUOUS
10
5.18563
20
-4.33165
11
5.18563
21
-4.34
0
LINE
8
BLACK
6
CONTINUOUS
10
5.18563
20
-4.34
11
5.22149
21
-4.34
0
LINE
8
BLACK
6
CONTINUOUS
10
5.22149
20
-4.34
11
5.22221
21
-4.33639
0
LINE
8
BLACK
6
CONTINUOUS
10
5.22221
20
-4.33639
11
5.22434
21
-4.3332
0
LINE
8
BLACK
6
CONTINUOUS
10
5.22434
20
-4.3332
11
5.22753
21
-4.33106
0
LINE
8
BLACK
6
CONTINUOUS
10
5.22753
20
-4.33106
11
5.2313
21
-4.33031
0
LINE
8
BLACK
6
CONTINUOUS
10
5.2313
20
-4.33031
11
5.2687
21
-4.33031
0
LINE
8
BLACK
6
CONTINUOUS
10
5.2687
20
-4.33031
11
5.27247
21
-4.33106
0
LINE
8
BLACK
6
CONTINUOUS
10
5.27247
20
-4.33106
11
5.27566
21
-4.3332
0
LINE
8
BLACK
6
CONTINUOUS
10
5.27566
20
-4.3332
11
5.27779
21
-4.33639
0
LINE
8
BLACK
6
CONTINUOUS
10
5.27779
20
-4.33639
11
5.27851
21
-4.34
0
LINE
8
BLACK
6
CONTINUOUS
10
5.27851
20
-4.34
11
5.31149
21
-4.34
0
LINE
8
BLACK
6
CONTINUOUS
10
5.31149
20
-4.34
11
5.31221
21
-4.33639
0
LINE
8
BLACK
6
CONTINUOUS
10
5.31221
20
-4.33639
11
5.31434
21
-4.3332
0
LINE
8
BLACK
6
CONTINUOUS
10
5.31434
20
-4.3332
11
5.31753
21
-4.33106
0
LINE
8
BLACK
6
CONTINUOUS
10
5.31753
20
-4.33106
11
5.3213
21
-4.33031
0
LINE
8
BLACK
6
CONTINUOUS
10
5.3213
20
-4.33031
11
5.3587
21
-4.33031
0
LINE
8
BLACK
6
CONTINUOUS
10
5.3587
20
-4.33031
11
5.36247
21
-4.33106
0
LINE
8
BLACK
6
CONTINUOUS
10
5.36247
20
-4.33106
11
5.36566
21
-4.3332
0
LINE
8
BLACK
6
CONTINUOUS
10
5.36566
20
-4.3332
11
5.36779
21
-4.33639
0
LINE
8
BLACK
6
CONTINUOUS
10
5.36779
20
-4.33639
11
5.36854
21
-4.34016
0
LINE
8
BLACK
6
CONTINUOUS
10
5.36854
20
-4.34016
11
5.36854
21
-4.35984
0
LINE
8
BLACK
6
CONTINUOUS
10
5.36854
20
-4.35984
11
5.36779
21
-4.36361
0
LINE
8
BLACK
6
CONTINUOUS
10
5.36779
20
-4.36361
11
5.36566
21
-4.3668
0
LINE
8
BLACK
6
CONTINUOUS
10
5.36566
20
-4.3668
11
5.36247
21
-4.36894
0
LINE
8
BLACK
6
CONTINUOUS
10
5.36247
20
-4.36894
11
5.3587
21
-4.36969
0
LINE
8
BLACK
6
CONTINUOUS
10
5.3587
20
-4.36969
11
5.3213
21
-4.36969
0
LINE
8
BLACK
6
CONTINUOUS
10
5.3213
20
-4.36969
11
5.31753
21
-4.36894
0
LINE
8
BLACK
6
CONTINUOUS
10
5.31753
20
-4.36894
11
5.31434
21
-4.3668
0
LINE
8
BLACK
6
CONTINUOUS
10
5.31434
20
-4.3668
11
5.31221
21
-4.36361
0
LINE
8
BLACK
6
CONTINUOUS
10
5.31221
20
-4.36361
11
5.31149
21
-4.36
0
LINE
8
BLACK
6
CONTINUOUS
10
5.31149
20
-4.36
11
5.27851
21
-4.36
0
LINE
8
BLACK
6
CONTINUOUS
10
5.27851
20
-4.36
11
5.27779
21
-4.36361
0
LINE
8
BLACK
6
CONTINUOUS
10
5.27779
20
-4.36361
11
5.27566
21
-4.3668
0
LINE
8
BLACK
6
CONTINUOUS
10
5.27566
20
-4.3668
11
5.27247
21
-4.36894
0
LINE
8
BLACK
6
CONTINUOUS
10
5.27247
20
-4.36894
11
5.2687
21
-4.36969
0
LINE
8
BLACK
6
CONTINUOUS
10
5.2687
20
-4.36969
11
5.26118
21
-4.36969
0
LINE
8
BLACK
6
CONTINUOUS
10
5.26118
20
-4.36969
11
5.26118
21
-4.44341
0
LINE
8
BLACK
6
CONTINUOUS
10
5.26118
20
-4.44341
11
5.2643
21
-4.44548
0
LINE
8
BLACK
6
CONTINUOUS
10
5.2643
20
-4.44548
11
5.26789
21
-4.44976
0
LINE
8
BLACK
6
CONTINUOUS
10
5.26789
20
-4.44976
11
5.27014
21
-4.45486
0
LINE
8
BLACK
6
CONTINUOUS
10
5.27014
20
-4.45486
11
5.27081
21
-4.46
0
LINE
8
BLACK
6
CONTINUOUS
10
5.27081
20
-4.46
11
5.308
21
-4.46
0
LINE
8
BLACK
6
CONTINUOUS
10
5.308
20
-4.46
11
5.31074
21
-4.45726
0
LINE
8
BLACK
6
CONTINUOUS
10
5.31074
20
-4.45726
11
5.31513
21
-4.45502
0
LINE
8
BLACK
6
CONTINUOUS
10
5.31513
20
-4.45502
11
5.32
21
-4.45425
0
LINE
8
BLACK
6
CONTINUOUS
10
5.32
20
-4.45425
11
5.32487
21
-4.45502
0
LINE
8
BLACK
6
CONTINUOUS
10
5.32487
20
-4.45502
11
5.32926
21
-4.45726
0
LINE
8
BLACK
6
CONTINUOUS
10
5.32926
20
-4.45726
11
5.33274
21
-4.46074
0
LINE
8
BLACK
6
CONTINUOUS
10
5.33274
20
-4.46074
11
5.33498
21
-4.46513
0
LINE
8
BLACK
6
CONTINUOUS
10
5.33498
20
-4.46513
11
5.33575
21
-4.47
0
LINE
8
BLACK
6
CONTINUOUS
10
5.33575
20
-4.47
11
5.33498
21
-4.47487
0
LINE
8
BLACK
6
CONTINUOUS
10
5.33498
20
-4.47487
11
5.33274
21
-4.47926
0
LINE
8
BLACK
6
CONTINUOUS
10
5.33274
20
-4.47926
11
5.32926
21
-4.48274
0
LINE
8
BLACK
6
CONTINUOUS
10
5.32926
20
-4.48274
11
5.32487
21
-4.48498
0
LINE
8
BLACK
6
CONTINUOUS
10
5.32487
20
-4.48498
11
5.32
21
-4.48575
0
LINE
8
BLACK
6
CONTINUOUS
10
5.32
20
-4.48575
11
5.31513
21
-4.48498
0
LINE
8
BLACK
6
CONTINUOUS
10
5.31513
20
-4.48498
11
5.31074
21
-4.48274
0
LINE
8
BLACK
6
CONTINUOUS
10
5.31074
20
-4.48274
11
5.308
21
-4.48
0
LINE
8
BLACK
6
CONTINUOUS
10
5.308
20
-4.48
11
5.27085
21
-4.48
0
LINE
8
BLACK
6
CONTINUOUS
10
5.27085
20
-4.48
11
5.27086
21
-4.48008
0
LINE
8
BLACK
6
CONTINUOUS
10
5.27086
20
-4.48008
11
5.27001
21
-4.4856
0
LINE
8
BLACK
6
CONTINUOUS
10
5.27001
20
-4.4856
11
5.26763
21
-4.49065
0
LINE
8
BLACK
6
CONTINUOUS
10
5.26763
20
-4.49065
11
5.26394
21
-4.49483
0
LINE
8
BLACK
6
CONTINUOUS
10
5.26394
20
-4.49483
11
5.25922
21
-4.49781
0
LINE
8
BLACK
6
CONTINUOUS
10
5.25922
20
-4.49781
11
5.25385
21
-4.49935
0
LINE
8
BLACK
6
CONTINUOUS
10
5.25385
20
-4.49935
11
5.25118
21
-4.49933
0
LINE
8
BLACK
6
CONTINUOUS
10
5.25118
20
-4.49933
11
5.25118
21
-4.49953
0
LINE
8
BLACK
6
CONTINUOUS
10
5.25118
20
-4.49953
11
5.22953
21
-4.49953
0
LINE
8
BLACK
6
CONTINUOUS
10
5.22953
20
-4.49953
11
5.22953
21
-4.48181
0
LINE
8
BLACK
6
CONTINUOUS
10
5.22953
20
-4.48181
11
5.21969
21
-4.48181
0
LINE
8
BLACK
6
CONTINUOUS
10
5.21969
20
-4.48181
11
5.21969
21
-4.49953
0
LINE
8
BLACK
6
CONTINUOUS
10
5.21969
20
-4.49953
11
5.18031
21
-4.49953
0
LINE
8
BLACK
6
CONTINUOUS
10
5.18031
20
-4.49953
11
5.18031
21
-4.44047
0
LINE
8
BLACK
6
CONTINUOUS
10
5.18031
20
-4.44047
11
5.19213
21
-4.44047
0
LINE
8
BLACK
6
CONTINUOUS
10
5.19213
20
-4.44047
11
5.19213
21
-4.43326
0
LINE
8
BLACK
6
CONTINUOUS
10
5.19213
20
-4.43326
11
5.17674
21
-4.41787
0
LINE
8
BLACK
6
CONTINUOUS
10
5.03799
20
-4.37496
11
5.03406
21
-4.37496
0
LINE
8
BLACK
6
CONTINUOUS
10
5.03406
20
-4.37496
11
5.03406
21
-4.39383
0
LINE
8
BLACK
6
CONTINUOUS
10
5.03406
20
-4.39383
11
5.03376
21
-4.39511
0
LINE
8
BLACK
6
CONTINUOUS
10
5.03376
20
-4.39511
11
5.03361
21
-4.39642
0
LINE
8
BLACK
6
CONTINUOUS
10
5.03361
20
-4.39642
11
5.03337
21
-4.3968
0
LINE
8
BLACK
6
CONTINUOUS
10
5.03337
20
-4.3968
11
5.03327
21
-4.39725
0
LINE
8
BLACK
6
CONTINUOUS
10
5.03327
20
-4.39725
11
5.03245
21
-4.39827
0
LINE
8
BLACK
6
CONTINUOUS
10
5.03245
20
-4.39827
11
5.03175
21
-4.39939
0
LINE
8
BLACK
6
CONTINUOUS
10
5.03175
20
-4.39939
11
5.02512
21
-4.40602
0
LINE
8
BLACK
6
CONTINUOUS
10
5.02512
20
-4.40602
11
5.02575
21
-4.41
0
LINE
8
BLACK
6
CONTINUOUS
10
5.02575
20
-4.41
11
5.02498
21
-4.41487
0
LINE
8
BLACK
6
CONTINUOUS
10
5.02498
20
-4.41487
11
5.02274
21
-4.41926
0
LINE
8
BLACK
6
CONTINUOUS
10
5.02274
20
-4.41926
11
5.01926
21
-4.42274
0
LINE
8
BLACK
6
CONTINUOUS
10
5.01926
20
-4.42274
11
5.01487
21
-4.42498
0
LINE
8
BLACK
6
CONTINUOUS
10
5.01487
20
-4.42498
11
5.01
21
-4.42575
0
LINE
8
BLACK
6
CONTINUOUS
10
5.01
20
-4.42575
11
5.00513
21
-4.42498
0
LINE
8
BLACK
6
CONTINUOUS
10
5.00513
20
-4.42498
11
5.00074
21
-4.42274
0
LINE
8
BLACK
6
CONTINUOUS
10
5.00074
20
-4.42274
11
4.99726
21
-4.41926
0
LINE
8
BLACK
6
CONTINUOUS
10
4.99726
20
-4.41926
11
4.99502
21
-4.41487
0
LINE
8
BLACK
6
CONTINUOUS
10
4.99502
20
-4.41487
11
4.99425
21
-4.41
0
LINE
8
BLACK
6
CONTINUOUS
10
4.99425
20
-4.41
11
4.99502
21
-4.40513
0
LINE
8
BLACK
6
CONTINUOUS
10
4.99502
20
-4.40513
11
4.99726
21
-4.40074
0
LINE
8
BLACK
6
CONTINUOUS
10
4.99726
20
-4.40074
11
5.00074
21
-4.39726
0
LINE
8
BLACK
6
CONTINUOUS
10
5.00074
20
-4.39726
11
5.00513
21
-4.39502
0
LINE
8
BLACK
6
CONTINUOUS
10
5.00513
20
-4.39502
11
5.01
21
-4.39425
0
LINE
8
BLACK
6
CONTINUOUS
10
5.01
20
-4.39425
11
5.01398
21
-4.39488
0
LINE
8
BLACK
6
CONTINUOUS
10
5.01398
20
-4.39488
11
5.01831
21
-4.39056
0
LINE
8
BLACK
6
CONTINUOUS
10
5.01831
20
-4.39056
11
5.01831
21
-4.37496
0
LINE
8
BLACK
6
CONTINUOUS
10
5.01831
20
-4.37496
11
5.01437
21
-4.37496
0
LINE
8
BLACK
6
CONTINUOUS
10
5.01437
20
-4.37496
11
5.01437
21
-4.33165
0
LINE
8
BLACK
6
CONTINUOUS
10
5.01437
20
-4.33165
11
5.03799
21
-4.33165
0
LINE
8
BLACK
6
CONTINUOUS
10
5.03799
20
-4.33165
11
5.03799
21
-4.37496
0
LINE
8
BLACK
6
CONTINUOUS
10
5.5
20
-3.94
11
5.47787
21
-3.94
0
LINE
8
BLACK
6
CONTINUOUS
10
5.47787
20
-3.94
11
5.47787
21
-3.98
0
LINE
8
BLACK
6
CONTINUOUS
10
5.47787
20
-3.98
11
5.5
21
-3.98
0
LINE
8
BLACK
6
CONTINUOUS
10
5.5
20
-3.98
11
5.5
21
-4.04
0
LINE
8
BLACK
6
CONTINUOUS
10
5.5
20
-4.04
11
5.47787
21
-4.04
0
LINE
8
BLACK
6
CONTINUOUS
10
5.47787
20
-4.04
11
5.47787
21
-4.08244
0
LINE
8
BLACK
6
CONTINUOUS
10
5.47787
20
-4.08244
11
5.49626
21
-4.08244
0
LINE
8
BLACK
6
CONTINUOUS
10
5.49626
20
-4.08244
11
5.50003
21
-4.08319
0
LINE
8
BLACK
6
CONTINUOUS
10
5.50003
20
-4.08319
11
5.50322
21
-4.08532
0
LINE
8
BLACK
6
CONTINUOUS
10
5.50322
20
-4.08532
11
5.50535
21
-4.08852
0
LINE
8
BLACK
6
CONTINUOUS
10
5.50535
20
-4.08852
11
5.5061
21
-4.09228
0
LINE
8
BLACK
6
CONTINUOUS
10
5.5061
20
-4.09228
11
5.5061
21
-4.12772
0
LINE
8
BLACK
6
CONTINUOUS
10
5.5061
20
-4.12772
11
5.50535
21
-4.13148
0
LINE
8
BLACK
6
CONTINUOUS
10
5.50535
20
-4.13148
11
5.50322
21
-4.13468
0
LINE
8
BLACK
6
CONTINUOUS
10
5.50322
20
-4.13468
11
5.50003
21
-4.13681
0
LINE
8
BLACK
6
CONTINUOUS
10
5.50003
20
-4.13681
11
5.49626
21
-4.13756
0
LINE
8
BLACK
6
CONTINUOUS
10
5.49626
20
-4.13756
11
5.4938
21
-4.13756
0
LINE
8
BLACK
6
CONTINUOUS
10
5.4938
20
-4.13756
11
5.4938
21
-4.14409
0
LINE
8
BLACK
6
CONTINUOUS
10
5.4938
20
-4.14409
11
5.4935
21
-4.14537
0
LINE
8
BLACK
6
CONTINUOUS
10
5.4935
20
-4.14537
11
5.49336
21
-4.14668
0
LINE
8
BLACK
6
CONTINUOUS
10
5.49336
20
-4.14668
11
5.49312
21
-4.14706
0
LINE
8
BLACK
6
CONTINUOUS
10
5.49312
20
-4.14706
11
5.49301
21
-4.1475
0
LINE
8
BLACK
6
CONTINUOUS
10
5.49301
20
-4.1475
11
5.49219
21
-4.14853
0
LINE
8
BLACK
6
CONTINUOUS
10
5.49219
20
-4.14853
11
5.49149
21
-4.14964
0
LINE
8
BLACK
6
CONTINUOUS
10
5.49149
20
-4.14964
11
5.46556
21
-4.17558
0
LINE
8
BLACK
6
CONTINUOUS
10
5.46556
20
-4.17558
11
5.46444
21
-4.17628
0
LINE
8
BLACK
6
CONTINUOUS
10
5.46444
20
-4.17628
11
5.46341
21
-4.1771
0
LINE
8
BLACK
6
CONTINUOUS
10
5.46341
20
-4.1771
11
5.46297
21
-4.1772
0
LINE
8
BLACK
6
CONTINUOUS
10
5.46297
20
-4.1772
11
5.46259
21
-4.17744
0
LINE
8
BLACK
6
CONTINUOUS
10
5.46259
20
-4.17744
11
5.46128
21
-4.17758
0
LINE
8
BLACK
6
CONTINUOUS
10
5.46128
20
-4.17758
11
5.46
21
-4.17787
0
LINE
8
BLACK
6
CONTINUOUS
10
5.46
20
-4.17787
11
5.22326
21
-4.17787
0
LINE
8
BLACK
6
CONTINUOUS
10
5.22326
20
-4.17787
11
5.18169
21
-4.21944
0
LINE
8
BLACK
6
CONTINUOUS
10
5.18169
20
-4.21944
11
5.18169
21
-4.24504
0
LINE
8
BLACK
6
CONTINUOUS
10
5.18169
20
-4.24504
11
5.18563
21
-4.24504
0
LINE
8
BLACK
6
CONTINUOUS
10
5.18563
20
-4.24504
11
5.18563
21
-4.28835
0
LINE
8
BLACK
6
CONTINUOUS
10
5.18563
20
-4.28835
11
5.17314
21
-4.28835
0
LINE
8
BLACK
6
CONTINUOUS
10
5.17314
20
-4.28835
11
5.14591
21
-4.31558
0
LINE
8
BLACK
6
CONTINUOUS
10
5.14591
20
-4.31558
11
5.1448
21
-4.31628
0
LINE
8
BLACK
6
CONTINUOUS
10
5.1448
20
-4.31628
11
5.14377
21
-4.3171
0
LINE
8
BLACK
6
CONTINUOUS
10
5.14377
20
-4.3171
11
5.14333
21
-4.3172
0
LINE
8
BLACK
6
CONTINUOUS
10
5.14333
20
-4.3172
11
5.14294
21
-4.31744
0
LINE
8
BLACK
6
CONTINUOUS
10
5.14294
20
-4.31744
11
5.14164
21
-4.31758
0
LINE
8
BLACK
6
CONTINUOUS
10
5.14164
20
-4.31758
11
5.14035
21
-4.31787
0
LINE
8
BLACK
6
CONTINUOUS
10
5.14035
20
-4.31787
11
4.96999
21
-4.31787
0
LINE
8
BLACK
6
CONTINUOUS
10
4.96999
20
-4.31787
11
4.9687
21
-4.31758
0
LINE
8
BLACK
6
CONTINUOUS
10
4.9687
20
-4.31758
11
4.9674
21
-4.31743
0
LINE
8
BLACK
6
CONTINUOUS
10
4.9674
20
-4.31743
11
4.96701
21
-4.31719
0
LINE
8
BLACK
6
CONTINUOUS
10
4.96701
20
-4.31719
11
4.96657
21
-4.31709
0
LINE
8
BLACK
6
CONTINUOUS
10
4.96657
20
-4.31709
11
4.96555
21
-4.31627
0
LINE
8
BLACK
6
CONTINUOUS
10
4.96555
20
-4.31627
11
4.96443
21
-4.31557
0
LINE
8
BLACK
6
CONTINUOUS
10
4.96443
20
-4.31557
11
4.92442
21
-4.27556
0
LINE
8
BLACK
6
CONTINUOUS
10
4.92442
20
-4.27556
11
4.92372
21
-4.27444
0
LINE
8
BLACK
6
CONTINUOUS
10
4.92372
20
-4.27444
11
4.9229
21
-4.27341
0
LINE
8
BLACK
6
CONTINUOUS
10
4.9229
20
-4.27341
11
4.9228
21
-4.27297
0
LINE
8
BLACK
6
CONTINUOUS
10
4.9228
20
-4.27297
11
4.92256
21
-4.27259
0
LINE
8
BLACK
6
CONTINUOUS
10
4.92256
20
-4.27259
11
4.92242
21
-4.27128
0
LINE
8
BLACK
6
CONTINUOUS
10
4.92242
20
-4.27128
11
4.92213
21
-4.27
0
LINE
8
BLACK
6
CONTINUOUS
10
4.92213
20
-4.27
11
4.92213
21
-4.04
0
LINE
8
BLACK
6
CONTINUOUS
10
4.92213
20
-4.04
11
4.9
21
-4.04
0
LINE
8
BLACK
6
CONTINUOUS
10
4.9
20
-4.04
11
4.9
21
-3.98
0
LINE
8
BLACK
6
CONTINUOUS
10
4.9
20
-3.98
11
4.96
21
-3.98
0
LINE
8
BLACK
6
CONTINUOUS
10
4.96
20
-3.98
11
4.96
21
-4.04
0
LINE
8
BLACK
6
CONTINUOUS
10
4.96
20
-4.04
11
4.93787
21
-4.04
0
LINE
8
BLACK
6
CONTINUOUS
10
4.93787
20
-4.04
11
4.93787
21
-4.26674
0
LINE
8
BLACK
6
CONTINUOUS
10
4.93787
20
-4.26674
11
4.97326
21
-4.30213
0
LINE
8
BLACK
6
CONTINUOUS
10
4.97326
20
-4.30213
11
5.13709
21
-4.30213
0
LINE
8
BLACK
6
CONTINUOUS
10
5.13709
20
-4.30213
11
5.16201
21
-4.27721
0
LINE
8
BLACK
6
CONTINUOUS
10
5.16201
20
-4.27721
11
5.16201
21
-4.24504
0
LINE
8
BLACK
6
CONTINUOUS
10
5.16201
20
-4.24504
11
5.16594
21
-4.24504
0
LINE
8
BLACK
6
CONTINUOUS
10
5.16594
20
-4.24504
11
5.16594
21
-4.21617
0
LINE
8
BLACK
6
CONTINUOUS
10
5.16594
20
-4.21617
11
5.16624
21
-4.21489
0
LINE
8
BLACK
6
CONTINUOUS
10
5.16624
20
-4.21489
11
5.16639
21
-4.21358
0
LINE
8
BLACK
6
CONTINUOUS
10
5.16639
20
-4.21358
11
5.16663
21
-4.2132
0
LINE
8
BLACK
6
CONTINUOUS
10
5.16663
20
-4.2132
11
5.16673
21
-4.21275
0
LINE
8
BLACK
6
CONTINUOUS
10
5.16673
20
-4.21275
11
5.16755
21
-4.21173
0
LINE
8
BLACK
6
CONTINUOUS
10
5.16755
20
-4.21173
11
5.16825
21
-4.21061
0
LINE
8
BLACK
6
CONTINUOUS
10
5.16825
20
-4.21061
11
5.21444
21
-4.16442
0
LINE
8
BLACK
6
CONTINUOUS
10
5.21444
20
-4.16442
11
5.21556
21
-4.16372
0
LINE
8
BLACK
6
CONTINUOUS
10
5.21556
20
-4.16372
11
5.21659
21
-4.1629
0
LINE
8
BLACK
6
CONTINUOUS
10
5.21659
20
-4.1629
11
5.21703
21
-4.1628
0
LINE
8
BLACK
6
CONTINUOUS
10
5.21703
20
-4.1628
11
5.21741
21
-4.16256
0
LINE
8
BLACK
6
CONTINUOUS
10
5.21741
20
-4.16256
11
5.21872
21
-4.16242
0
LINE
8
BLACK
6
CONTINUOUS
10
5.21872
20
-4.16242
11
5.22
21
-4.16213
0
LINE
8
BLACK
6
CONTINUOUS
10
5.22
20
-4.16213
11
5.45674
21
-4.16213
0
LINE
8
BLACK
6
CONTINUOUS
10
5.45674
20
-4.16213
11
5.47805
21
-4.14081
0
LINE
8
BLACK
6
CONTINUOUS
10
5.47805
20
-4.14081
11
5.47805
21
-4.13756
0
LINE
8
BLACK
6
CONTINUOUS
10
5.47805
20
-4.13756
11
5.47559
21
-4.13756
0
LINE
8
BLACK
6
CONTINUOUS
10
5.47559
20
-4.13756
11
5.47182
21
-4.13681
0
LINE
8
BLACK
6
CONTINUOUS
10
5.47182
20
-4.13681
11
5.46863
21
-4.13468
0
LINE
8
BLACK
6
CONTINUOUS
10
5.46863
20
-4.13468
11
5.4665
21
-4.13148
0
LINE
8
BLACK
6
CONTINUOUS
10
5.4665
20
-4.13148
11
5.46575
21
-4.12772
0
LINE
8
BLACK
6
CONTINUOUS
10
5.46575
20
-4.12772
11
5.46575
21
-4.10096
0
LINE
8
BLACK
6
CONTINUOUS
10
5.46575
20
-4.10096
11
5.46442
21
-4.09963
0
LINE
8
BLACK
6
CONTINUOUS
10
5.46442
20
-4.09963
11
5.46372
21
-4.09852
0
LINE
8
BLACK
6
CONTINUOUS
10
5.46372
20
-4.09852
11
5.4629
21
-4.09749
0
LINE
8
BLACK
6
CONTINUOUS
10
5.4629
20
-4.09749
11
5.4628
21
-4.09705
0
LINE
8
BLACK
6
CONTINUOUS
10
5.4628
20
-4.09705
11
5.46256
21
-4.09666
0
LINE
8
BLACK
6
CONTINUOUS
10
5.46256
20
-4.09666
11
5.46242
21
-4.09536
0
LINE
8
BLACK
6
CONTINUOUS
10
5.46242
20
-4.09536
11
5.46213
21
-4.09407
0
LINE
8
BLACK
6
CONTINUOUS
10
5.46213
20
-4.09407
11
5.46213
21
-4.04
0
LINE
8
BLACK
6
CONTINUOUS
10
5.46213
20
-4.04
11
5.44
21
-4.04
0
LINE
8
BLACK
6
CONTINUOUS
10
5.44
20
-4.04
11
5.44
21
-3.98
0
LINE
8
BLACK
6
CONTINUOUS
10
5.44
20
-3.98
11
5.46213
21
-3.98
0
LINE
8
BLACK
6
CONTINUOUS
10
5.46213
20
-3.98
11
5.46213
21
-3.94
0
LINE
8
BLACK
6
CONTINUOUS
10
5.46213
20
-3.94
11
5.44
21
-3.94
0
LINE
8
BLACK
6
CONTINUOUS
10
5.44
20
-3.94
11
5.44
21
-3.88
0
LINE
8
BLACK
6
CONTINUOUS
10
5.44
20
-3.88
11
5.5
21
-3.88
0
LINE
8
BLACK
6
CONTINUOUS
10
5.5
20
-3.88
11
5.5
21
-3.94
0
LINE
8
BLACK
6
CONTINUOUS
10
5.46487
20
-4.1865
11
5.46926
21
-4.18874
0
LINE
8
BLACK
6
CONTINUOUS
10
5.46926
20
-4.18874
11
5.47274
21
-4.19222
0
LINE
8
BLACK
6
CONTINUOUS
10
5.47274
20
-4.19222
11
5.47498
21
-4.19661
0
LINE
8
BLACK
6
CONTINUOUS
10
5.47498
20
-4.19661
11
5.47575
21
-4.20148
0
LINE
8
BLACK
6
CONTINUOUS
10
5.47575
20
-4.20148
11
5.47498
21
-4.20634
0
LINE
8
BLACK
6
CONTINUOUS
10
5.47498
20
-4.20634
11
5.47274
21
-4.21073
0
LINE
8
BLACK
6
CONTINUOUS
10
5.47274
20
-4.21073
11
5.47
21
-4.21347
0
LINE
8
BLACK
6
CONTINUOUS
10
5.47
20
-4.21347
11
5.47
21
-4.23654
0
LINE
8
BLACK
6
CONTINUOUS
10
5.47
20
-4.23654
11
5.48669
21
-4.23654
0
LINE
8
BLACK
6
CONTINUOUS
10
5.48669
20
-4.23654
11
5.48669
21
-4.30346
0
LINE
8
BLACK
6
CONTINUOUS
10
5.48669
20
-4.30346
11
5.43551
21
-4.30346
0
LINE
8
BLACK
6
CONTINUOUS
10
5.43551
20
-4.30346
11
5.43551
21
-4.23654
0
LINE
8
BLACK
6
CONTINUOUS
10
5.43551
20
-4.23654
11
5.45
21
-4.23654
0
LINE
8
BLACK
6
CONTINUOUS
10
5.45
20
-4.23654
11
5.45
21
-4.21347
0
LINE
8
BLACK
6
CONTINUOUS
10
5.45
20
-4.21347
11
5.44726
21
-4.21073
0
LINE
8
BLACK
6
CONTINUOUS
10
5.44726
20
-4.21073
11
5.44502
21
-4.20634
0
LINE
8
BLACK
6
CONTINUOUS
10
5.44502
20
-4.20634
11
5.44425
21
-4.20148
0
LINE
8
BLACK
6
CONTINUOUS
10
5.44425
20
-4.20148
11
5.44502
21
-4.19661
0
LINE
8
BLACK
6
CONTINUOUS
10
5.44502
20
-4.19661
11
5.44726
21
-4.19222
0
LINE
8
BLACK
6
CONTINUOUS
10
5.44726
20
-4.19222
11
5.45074
21
-4.18874
0
LINE
8
BLACK
6
CONTINUOUS
10
5.45074
20
-4.18874
11
5.45513
21
-4.1865
0
LINE
8
BLACK
6
CONTINUOUS
10
5.45513
20
-4.1865
11
5.46
21
-4.18573
0
LINE
8
BLACK
6
CONTINUOUS
10
5.46
20
-4.18573
11
5.46487
21
-4.1865
0
LINE
8
BLACK
6
CONTINUOUS
10
5.2113
20
-3.84242
11
5.2126
21
-3.84257
0
LINE
8
BLACK
6
CONTINUOUS
10
5.2126
20
-3.84257
11
5.21299
21
-3.84281
0
LINE
8
BLACK
6
CONTINUOUS
10
5.21299
20
-3.84281
11
5.21343
21
-3.84291
0
LINE
8
BLACK
6
CONTINUOUS
10
5.21343
20
-3.84291
11
5.21445
21
-3.84373
0
LINE
8
BLACK
6
CONTINUOUS
10
5.21445
20
-3.84373
11
5.21557
21
-3.84443
0
LINE
8
BLACK
6
CONTINUOUS
10
5.21557
20
-3.84443
11
5.25114
21
-3.88
0
LINE
8
BLACK
6
CONTINUOUS
10
5.25114
20
-3.88
11
5.3
21
-3.88
0
LINE
8
BLACK
6
CONTINUOUS
10
5.3
20
-3.88
11
5.3
21
-3.94
0
LINE
8
BLACK
6
CONTINUOUS
10
5.3
20
-3.94
11
5.27787
21
-3.94
0
LINE
8
BLACK
6
CONTINUOUS
10
5.27787
20
-3.94
11
5.27787
21
-3.98
0
LINE
8
BLACK
6
CONTINUOUS
10
5.27787
20
-3.98
11
5.3
21
-3.98
0
LINE
8
BLACK
6
CONTINUOUS
10
5.3
20
-3.98
11
5.3
21
-4.04
0
LINE
8
BLACK
6
CONTINUOUS
10
5.3
20
-4.04
11
5.27787
21
-4.04
0
LINE
8
BLACK
6
CONTINUOUS
10
5.27787
20
-4.04
11
5.27787
21
-4.09409
0
LINE
8
BLACK
6
CONTINUOUS
10
5.27787
20
-4.09409
11
5.27758
21
-4.09537
0
LINE
8
BLACK
6
CONTINUOUS
10
5.27758
20
-4.09537
11
5.27743
21
-4.09668
0
LINE
8
BLACK
6
CONTINUOUS
10
5.27743
20
-4.09668
11
5.27719
21
-4.09706
0
LINE
8
BLACK
6
CONTINUOUS
10
5.27719
20
-4.09706
11
5.27709
21
-4.0975
0
LINE
8
BLACK
6
CONTINUOUS
10
5.27709
20
-4.0975
11
5.27627
21
-4.09853
0
LINE
8
BLACK
6
CONTINUOUS
10
5.27627
20
-4.09853
11
5.27557
21
-4.09964
0
LINE
8
BLACK
6
CONTINUOUS
10
5.27557
20
-4.09964
11
5.27425
21
-4.10096
0
LINE
8
BLACK
6
CONTINUOUS
10
5.27425
20
-4.10096
11
5.27425
21
-4.12772
0
LINE
8
BLACK
6
CONTINUOUS
10
5.27425
20
-4.12772
11
5.2735
21
-4.13148
0
LINE
8
BLACK
6
CONTINUOUS
10
5.2735
20
-4.13148
11
5.27137
21
-4.13468
0
LINE
8
BLACK
6
CONTINUOUS
10
5.27137
20
-4.13468
11
5.26818
21
-4.13681
0
LINE
8
BLACK
6
CONTINUOUS
10
5.26818
20
-4.13681
11
5.26441
21
-4.13756
0
LINE
8
BLACK
6
CONTINUOUS
10
5.26441
20
-4.13756
11
5.24374
21
-4.13756
0
LINE
8
BLACK
6
CONTINUOUS
10
5.24374
20
-4.13756
11
5.23997
21
-4.13681
0
LINE
8
BLACK
6
CONTINUOUS
10
5.23997
20
-4.13681
11
5.23678
21
-4.13468
0
LINE
8
BLACK
6
CONTINUOUS
10
5.23678
20
-4.13468
11
5.23465
21
-4.13148
0
LINE
8
BLACK
6
CONTINUOUS
10
5.23465
20
-4.13148
11
5.2339
21
-4.12772
0
LINE
8
BLACK
6
CONTINUOUS
10
5.2339
20
-4.12772
11
5.2339
21
-4.11787
0
LINE
8
BLACK
6
CONTINUOUS
10
5.2339
20
-4.11787
11
5.20326
21
-4.11787
0
LINE
8
BLACK
6
CONTINUOUS
10
5.20326
20
-4.11787
11
5.13248
21
-4.18866
0
LINE
8
BLACK
6
CONTINUOUS
10
5.13248
20
-4.18866
11
5.13248
21
-4.24504
0
LINE
8
BLACK
6
CONTINUOUS
10
5.13248
20
-4.24504
11
5.13642
21
-4.24504
0
LINE
8
BLACK
6
CONTINUOUS
10
5.13642
20
-4.24504
11
5.13642
21
-4.28835
0
LINE
8
BLACK
6
CONTINUOUS
10
5.13642
20
-4.28835
11
5.1128
21
-4.28835
0
LINE
8
BLACK
6
CONTINUOUS
10
5.1128
20
-4.28835
11
5.1128
21
-4.24504
0
LINE
8
BLACK
6
CONTINUOUS
10
5.1128
20
-4.24504
11
5.11673
21
-4.24504
0
LINE
8
BLACK
6
CONTINUOUS
10
5.11673
20
-4.24504
11
5.11673
21
-4.18538
0
LINE
8
BLACK
6
CONTINUOUS
10
5.11673
20
-4.18538
11
5.11703
21
-4.1841
0
LINE
8
BLACK
6
CONTINUOUS
10
5.11703
20
-4.1841
11
5.11717
21
-4.18279
0
LINE
8
BLACK
6
CONTINUOUS
10
5.11717
20
-4.18279
11
5.11742
21
-4.18241
0
LINE
8
BLACK
6
CONTINUOUS
10
5.11742
20
-4.18241
11
5.11752
21
-4.18197
0
LINE
8
BLACK
6
CONTINUOUS
10
5.11752
20
-4.18197
11
5.11834
21
-4.18094
0
LINE
8
BLACK
6
CONTINUOUS
10
5.11834
20
-4.18094
11
5.11904
21
-4.17983
0
LINE
8
BLACK
6
CONTINUOUS
10
5.11904
20
-4.17983
11
5.19444
21
-4.10442
0
LINE
8
BLACK
6
CONTINUOUS
10
5.19444
20
-4.10442
11
5.19556
21
-4.10372
0
LINE
8
BLACK
6
CONTINUOUS
10
5.19556
20
-4.10372
11
5.19659
21
-4.1029
0
LINE
8
BLACK
6
CONTINUOUS
10
5.19659
20
-4.1029
11
5.19703
21
-4.1028
0
LINE
8
BLACK
6
CONTINUOUS
10
5.19703
20
-4.1028
11
5.19741
21
-4.10256
0
LINE
8
BLACK
6
CONTINUOUS
10
5.19741
20
-4.10256
11
5.19872
21
-4.10242
0
LINE
8
BLACK
6
CONTINUOUS
10
5.19872
20
-4.10242
11
5.2
21
-4.10213
0
LINE
8
BLACK
6
CONTINUOUS
10
5.2
20
-4.10213
11
5.2339
21
-4.10213
0
LINE
8
BLACK
6
CONTINUOUS
10
5.2339
20
-4.10213
11
5.2339
21
-4.09228
0
LINE
8
BLACK
6
CONTINUOUS
10
5.2339
20
-4.09228
11
5.23465
21
-4.08852
0
LINE
8
BLACK
6
CONTINUOUS
10
5.23465
20
-4.08852
11
5.23678
21
-4.08532
0
LINE
8
BLACK
6
CONTINUOUS
10
5.23678
20
-4.08532
11
5.23997
21
-4.08319
0
LINE
8
BLACK
6
CONTINUOUS
10
5.23997
20
-4.08319
11
5.24374
21
-4.08244
0
LINE
8
BLACK
6
CONTINUOUS
10
5.24374
20
-4.08244
11
5.26213
21
-4.08244
0
LINE
8
BLACK
6
CONTINUOUS
10
5.26213
20
-4.08244
11
5.26213
21
-4.04
0
LINE
8
BLACK
6
CONTINUOUS
10
5.26213
20
-4.04
11
5.24
21
-4.04
0
LINE
8
BLACK
6
CONTINUOUS
10
5.24
20
-4.04
11
5.24
21
-3.98
0
LINE
8
BLACK
6
CONTINUOUS
10
5.24
20
-3.98
11
5.26213
21
-3.98
0
LINE
8
BLACK
6
CONTINUOUS
10
5.26213
20
-3.98
11
5.26213
21
-3.94
0
LINE
8
BLACK
6
CONTINUOUS
10
5.26213
20
-3.94
11
5.24
21
-3.94
0
LINE
8
BLACK
6
CONTINUOUS
10
5.24
20
-3.94
11
5.24
21
-3.89114
0
LINE
8
BLACK
6
CONTINUOUS
10
5.24
20
-3.89114
11
5.20674
21
-3.85787
0
LINE
8
BLACK
6
CONTINUOUS
10
5.20674
20
-3.85787
11
4.99326
21
-3.85787
0
LINE
8
BLACK
6
CONTINUOUS
10
4.99326
20
-3.85787
11
4.96
21
-3.89114
0
LINE
8
BLACK
6
CONTINUOUS
10
4.96
20
-3.89114
11
4.96
21
-3.94
0
LINE
8
BLACK
6
CONTINUOUS
10
4.96
20
-3.94
11
4.9
21
-3.94
0
LINE
8
BLACK
6
CONTINUOUS
10
4.9
20
-3.94
11
4.9
21
-3.88
0
LINE
8
BLACK
6
CONTINUOUS
10
4.9
20
-3.88
11
4.94886
21
-3.88
0
LINE
8
BLACK
6
CONTINUOUS
10
4.94886
20
-3.88
11
4.98444
21
-3.84442
0
LINE
8
BLACK
6
CONTINUOUS
10
4.98444
20
-3.84442
11
4.98556
21
-3.84372
0
LINE
8
BLACK
6
CONTINUOUS
10
4.98556
20
-3.84372
11
4.98659
21
-3.8429
0
LINE
8
BLACK
6
CONTINUOUS
10
4.98659
20
-3.8429
11
4.98703
21
-3.8428
0
LINE
8
BLACK
6
CONTINUOUS
10
4.98703
20
-3.8428
11
4.98741
21
-3.84256
0
LINE
8
BLACK
6
CONTINUOUS
10
4.98741
20
-3.84256
11
4.98872
21
-3.84242
0
LINE
8
BLACK
6
CONTINUOUS
10
4.98872
20
-3.84242
11
4.99
21
-3.84213
0
LINE
8
BLACK
6
CONTINUOUS
10
4.99
20
-3.84213
11
5.21001
21
-3.84213
0
LINE
8
BLACK
6
CONTINUOUS
10
5.21001
20
-3.84213
11
5.2113
21
-3.84242
0
LINE
8
BLACK
6
CONTINUOUS
10
4.99326
20
-4.17213
11
5.03001
21
-4.17213
0
LINE
8
BLACK
6
CONTINUOUS
10
5.03001
20
-4.17213
11
5.0313
21
-4.17242
0
LINE
8
BLACK
6
CONTINUOUS
10
5.0313
20
-4.17242
11
5.0326
21
-4.17257
0
LINE
8
BLACK
6
CONTINUOUS
10
5.0326
20
-4.17257
11
5.03299
21
-4.17281
0
LINE
8
BLACK
6
CONTINUOUS
10
5.03299
20
-4.17281
11
5.03343
21
-4.17291
0
LINE
8
BLACK
6
CONTINUOUS
10
5.03343
20
-4.17291
11
5.03445
21
-4.17373
0
LINE
8
BLACK
6
CONTINUOUS
10
5.03445
20
-4.17373
11
5.03557
21
-4.17443
0
LINE
8
BLACK
6
CONTINUOUS
10
5.03557
20
-4.17443
11
5.08097
21
-4.21984
0
LINE
8
BLACK
6
CONTINUOUS
10
5.08097
20
-4.21984
11
5.08167
21
-4.22095
0
LINE
8
BLACK
6
CONTINUOUS
10
5.08167
20
-4.22095
11
5.08249
21
-4.22198
0
LINE
8
BLACK
6
CONTINUOUS
10
5.08249
20
-4.22198
11
5.08259
21
-4.22242
0
LINE
8
BLACK
6
CONTINUOUS
10
5.08259
20
-4.22242
11
5.08283
21
-4.2228
0
LINE
8
BLACK
6
CONTINUOUS
10
5.08283
20
-4.2228
11
5.08298
21
-4.22411
0
LINE
8
BLACK
6
CONTINUOUS
10
5.08298
20
-4.22411
11
5.08327
21
-4.22539
0
LINE
8
BLACK
6
CONTINUOUS
10
5.08327
20
-4.22539
11
5.08327
21
-4.24504
0
LINE
8
BLACK
6
CONTINUOUS
10
5.08327
20
-4.24504
11
5.0872
21
-4.24504
0
LINE
8
BLACK
6
CONTINUOUS
10
5.0872
20
-4.24504
11
5.0872
21
-4.28835
0
LINE
8
BLACK
6
CONTINUOUS
10
5.0872
20
-4.28835
11
5.06358
21
-4.28835
0
LINE
8
BLACK
6
CONTINUOUS
10
5.06358
20
-4.28835
11
5.06358
21
-4.24504
0
LINE
8
BLACK
6
CONTINUOUS
10
5.06358
20
-4.24504
11
5.06752
21
-4.24504
0
LINE
8
BLACK
6
CONTINUOUS
10
5.06752
20
-4.24504
11
5.06752
21
-4.22866
0
LINE
8
BLACK
6
CONTINUOUS
10
5.06752
20
-4.22866
11
5.02674
21
-4.18787
0
LINE
8
BLACK
6
CONTINUOUS
10
5.02674
20
-4.18787
11
4.98999
21
-4.18787
0
LINE
8
BLACK
6
CONTINUOUS
10
4.98999
20
-4.18787
11
4.9887
21
-4.18758
0
LINE
8
BLACK
6
CONTINUOUS
10
4.9887
20
-4.18758
11
4.9874
21
-4.18743
0
LINE
8
BLACK
6
CONTINUOUS
10
4.9874
20
-4.18743
11
4.98701
21
-4.18719
0
LINE
8
BLACK
6
CONTINUOUS
10
4.98701
20
-4.18719
11
4.98657
21
-4.18709
0
LINE
8
BLACK
6
CONTINUOUS
10
4.98657
20
-4.18709
11
4.98555
21
-4.18627
0
LINE
8
BLACK
6
CONTINUOUS
10
4.98555
20
-4.18627
11
4.98443
21
-4.18557
0
LINE
8
BLACK
6
CONTINUOUS
10
4.98443
20
-4.18557
11
4.97442
21
-4.17556
0
LINE
8
BLACK
6
CONTINUOUS
10
4.97442
20
-4.17556
11
4.97372
21
-4.17444
0
LINE
8
BLACK
6
CONTINUOUS
10
4.97372
20
-4.17444
11
4.9729
21
-4.17341
0
LINE
8
BLACK
6
CONTINUOUS
10
4.9729
20
-4.17341
11
4.9728
21
-4.17297
0
LINE
8
BLACK
6
CONTINUOUS
10
4.9728
20
-4.17297
11
4.97256
21
-4.17259
0
LINE
8
BLACK
6
CONTINUOUS
10
4.97256
20
-4.17259
11
4.97242
21
-4.17128
0
LINE
8
BLACK
6
CONTINUOUS
10
4.97242
20
-4.17128
11
4.97213
21
-4.17
0
LINE
8
BLACK
6
CONTINUOUS
10
4.97213
20
-4.17
11
4.97213
21
-3.97767
0
LINE
8
BLACK
6
CONTINUOUS
10
4.97213
20
-3.97767
11
4.96233
21
-3.96787
0
LINE
8
BLACK
6
CONTINUOUS
10
4.96233
20
-3.96787
11
4.88326
21
-3.96787
0
LINE
8
BLACK
6
CONTINUOUS
10
4.88326
20
-3.96787
11
4.86
21
-3.99114
0
LINE
8
BLACK
6
CONTINUOUS
10
4.86
20
-3.99114
11
4.86
21
-4.04
0
LINE
8
BLACK
6
CONTINUOUS
10
4.86
20
-4.04
11
4.8
21
-4.04
0
LINE
8
BLACK
6
CONTINUOUS
10
4.8
20
-4.04
11
4.8
21
-3.98
0
LINE
8
BLACK
6
CONTINUOUS
10
4.8
20
-3.98
11
4.84886
21
-3.98
0
LINE
8
BLACK
6
CONTINUOUS
10
4.84886
20
-3.98
11
4.87444
21
-3.95442
0
LINE
8
BLACK
6
CONTINUOUS
10
4.87444
20
-3.95442
11
4.87556
21
-3.95372
0
LINE
8
BLACK
6
CONTINUOUS
10
4.87556
20
-3.95372
11
4.87659
21
-3.9529
0
LINE
8
BLACK
6
CONTINUOUS
10
4.87659
20
-3.9529
11
4.87703
21
-3.9528
0
LINE
8
BLACK
6
CONTINUOUS
10
4.87703
20
-3.9528
11
4.87741
21
-3.95256
0
LINE
8
BLACK
6
CONTINUOUS
10
4.87741
20
-3.95256
11
4.87872
21
-3.95242
0
LINE
8
BLACK
6
CONTINUOUS
10
4.87872
20
-3.95242
11
4.88
21
-3.95213
0
LINE
8
BLACK
6
CONTINUOUS
10
4.88
20
-3.95213
11
4.9656
21
-3.95213
0
LINE
8
BLACK
6
CONTINUOUS
10
4.9656
20
-3.95213
11
4.96689
21
-3.95242
0
LINE
8
BLACK
6
CONTINUOUS
10
4.96689
20
-3.95242
11
4.96819
21
-3.95257
0
LINE
8
BLACK
6
CONTINUOUS
10
4.96819
20
-3.95257
11
4.96858
21
-3.95281
0
LINE
8
BLACK
6
CONTINUOUS
10
4.96858
20
-3.95281
11
4.96902
21
-3.95291
0
LINE
8
BLACK
6
CONTINUOUS
10
4.96902
20
-3.95291
11
4.97004
21
-3.95373
0
LINE
8
BLACK
6
CONTINUOUS
10
4.97004
20
-3.95373
11
4.97116
21
-3.95443
0
LINE
8
BLACK
6
CONTINUOUS
10
4.97116
20
-3.95443
11
4.98558
21
-3.96885
0
LINE
8
BLACK
6
CONTINUOUS
10
4.98558
20
-3.96885
11
4.98628
21
-3.96997
0
LINE
8
BLACK
6
CONTINUOUS
10
4.98628
20
-3.96997
11
4.9871
21
-3.97099
0
LINE
8
BLACK
6
CONTINUOUS
10
4.9871
20
-3.97099
11
4.9872
21
-3.97144
0
LINE
8
BLACK
6
CONTINUOUS
10
4.9872
20
-3.97144
11
4.98744
21
-3.97182
0
LINE
8
BLACK
6
CONTINUOUS
10
4.98744
20
-3.97182
11
4.98758
21
-3.97313
0
LINE
8
BLACK
6
CONTINUOUS
10
4.98758
20
-3.97313
11
4.98787
21
-3.97441
0
LINE
8
BLACK
6
CONTINUOUS
10
4.98787
20
-3.97441
11
4.98787
21
-4.16674
0
LINE
8
BLACK
6
CONTINUOUS
10
4.98787
20
-4.16674
11
4.99326
21
-4.17213
0
LINE
8
BLACK
6
CONTINUOUS
10
5.03799
20
-4.28835
11
5.01437
21
-4.28835
0
LINE
8
BLACK
6
CONTINUOUS
10
5.01437
20
-4.28835
11
5.01437
21
-4.24504
0
LINE
8
BLACK
6
CONTINUOUS
10
5.01437
20
-4.24504
11
5.03799
21
-4.24504
0
LINE
8
BLACK
6
CONTINUOUS
10
5.03799
20
-4.24504
11
5.03799
21
-4.28835
0
LINE
8
BLACK
6
CONTINUOUS
10
5.4
20
-3.94
11
5.38
21
-3.94
0
LINE
8
BLACK
6
CONTINUOUS
10
5.38
20
-3.94
11
5.38
21
-3.98
0
LINE
8
BLACK
6
CONTINUOUS
10
5.38
20
-3.98
11
5.4
21
-3.98
0
LINE
8
BLACK
6
CONTINUOUS
10
5.4
20
-3.98
11
5.4
21
-4.04
0
LINE
8
BLACK
6
CONTINUOUS
10
5.4
20
-4.04
11
5.38
21
-4.04
0
LINE
8
BLACK
6
CONTINUOUS
10
5.38
20
-4.04
11
5.38
21
-4.06178
0
LINE
8
BLACK
6
CONTINUOUS
10
5.38
20
-4.06178
11
5.40117
21
-4.08295
0
LINE
8
BLACK
6
CONTINUOUS
10
5.40117
20
-4.08295
11
5.40374
21
-4.08244
0
LINE
8
BLACK
6
CONTINUOUS
10
5.40374
20
-4.08244
11
5.42441
21
-4.08244
0
LINE
8
BLACK
6
CONTINUOUS
10
5.42441
20
-4.08244
11
5.42818
21
-4.08319
0
LINE
8
BLACK
6
CONTINUOUS
10
5.42818
20
-4.08319
11
5.43137
21
-4.08532
0
LINE
8
BLACK
6
CONTINUOUS
10
5.43137
20
-4.08532
11
5.4335
21
-4.08852
0
LINE
8
BLACK
6
CONTINUOUS
10
5.4335
20
-4.08852
11
5.43425
21
-4.09228
0
LINE
8
BLACK
6
CONTINUOUS
10
5.43425
20
-4.09228
11
5.43425
21
-4.12772
0
LINE
8
BLACK
6
CONTINUOUS
10
5.43425
20
-4.12772
11
5.4335
21
-4.13148
0
LINE
8
BLACK
6
CONTINUOUS
10
5.4335
20
-4.13148
11
5.43137
21
-4.13468
0
LINE
8
BLACK
6
CONTINUOUS
10
5.43137
20
-4.13468
11
5.42818
21
-4.13681
0
LINE
8
BLACK
6
CONTINUOUS
10
5.42818
20
-4.13681
11
5.42441
21
-4.13756
0
LINE
8
BLACK
6
CONTINUOUS
10
5.42441
20
-4.13756
11
5.40374
21
-4.13756
0
LINE
8
BLACK
6
CONTINUOUS
10
5.40374
20
-4.13756
11
5.39997
21
-4.13681
0
LINE
8
BLACK
6
CONTINUOUS
10
5.39997
20
-4.13681
11
5.39678
21
-4.13468
0
LINE
8
BLACK
6
CONTINUOUS
10
5.39678
20
-4.13468
11
5.39465
21
-4.13148
0
LINE
8
BLACK
6
CONTINUOUS
10
5.39465
20
-4.13148
11
5.3939
21
-4.12772
0
LINE
8
BLACK
6
CONTINUOUS
10
5.3939
20
-4.12772
11
5.3939
21
-4.10396
0
LINE
8
BLACK
6
CONTINUOUS
10
5.3939
20
-4.10396
11
5.37
21
-4.08007
0
LINE
8
BLACK
6
CONTINUOUS
10
5.37
20
-4.08007
11
5.3461
21
-4.10396
0
LINE
8
BLACK
6
CONTINUOUS
10
5.3461
20
-4.10396
11
5.3461
21
-4.12772
0
LINE
8
BLACK
6
CONTINUOUS
10
5.3461
20
-4.12772
11
5.34535
21
-4.13148
0
LINE
8
BLACK
6
CONTINUOUS
10
5.34535
20
-4.13148
11
5.34322
21
-4.13468
0
LINE
8
BLACK
6
CONTINUOUS
10
5.34322
20
-4.13468
11
5.34003
21
-4.13681
0
LINE
8
BLACK
6
CONTINUOUS
10
5.34003
20
-4.13681
11
5.33626
21
-4.13756
0
LINE
8
BLACK
6
CONTINUOUS
10
5.33626
20
-4.13756
11
5.31559
21
-4.13756
0
LINE
8
BLACK
6
CONTINUOUS
10
5.31559
20
-4.13756
11
5.31182
21
-4.13681
0
LINE
8
BLACK
6
CONTINUOUS
10
5.31182
20
-4.13681
11
5.30863
21
-4.13468
0
LINE
8
BLACK
6
CONTINUOUS
10
5.30863
20
-4.13468
11
5.3065
21
-4.13148
0
LINE
8
BLACK
6
CONTINUOUS
10
5.3065
20
-4.13148
11
5.30575
21
-4.12772
0
LINE
8
BLACK
6
CONTINUOUS
10
5.30575
20
-4.12772
11
5.30575
21
-4.09228
0
LINE
8
BLACK
6
CONTINUOUS
10
5.30575
20
-4.09228
11
5.3065
21
-4.08852
0
LINE
8
BLACK
6
CONTINUOUS
10
5.3065
20
-4.08852
11
5.30863
21
-4.08532
0
LINE
8
BLACK
6
CONTINUOUS
10
5.30863
20
-4.08532
11
5.31182
21
-4.08319
0
LINE
8
BLACK
6
CONTINUOUS
10
5.31182
20
-4.08319
11
5.31559
21
-4.08244
0
LINE
8
BLACK
6
CONTINUOUS
10
5.31559
20
-4.08244
11
5.33626
21
-4.08244
0
LINE
8
BLACK
6
CONTINUOUS
10
5.33626
20
-4.08244
11
5.33883
21
-4.08295
0
LINE
8
BLACK
6
CONTINUOUS
10
5.33883
20
-4.08295
11
5.36
21
-4.06178
0
LINE
8
BLACK
6
CONTINUOUS
10
5.36
20
-4.06178
11
5.36
21
-4.04
0
LINE
8
BLACK
6
CONTINUOUS
10
5.36
20
-4.04
11
5.34
21
-4.04
0
LINE
8
BLACK
6
CONTINUOUS
10
5.34
20
-4.04
11
5.34
21
-3.98
0
LINE
8
BLACK
6
CONTINUOUS
10
5.34
20
-3.98
11
5.36
21
-3.98
0
LINE
8
BLACK
6
CONTINUOUS
10
5.36
20
-3.98
11
5.36
21
-3.94
0
LINE
8
BLACK
6
CONTINUOUS
10
5.36
20
-3.94
11
5.34
21
-3.94
0
LINE
8
BLACK
6
CONTINUOUS
10
5.34
20
-3.94
11
5.34
21
-3.88
0
LINE
8
BLACK
6
CONTINUOUS
10
5.34
20
-3.88
11
5.4
21
-3.88
0
LINE
8
BLACK
6
CONTINUOUS
10
5.4
20
-3.88
11
5.4
21
-3.94
0
LINE
8
BLACK
6
CONTINUOUS
10
5.06
20
-4.04
11
5
21
-4.04
0
LINE
8
BLACK
6
CONTINUOUS
10
5
20
-4.04
11
5
21
-3.98
0
LINE
8
BLACK
6
CONTINUOUS
10
5
20
-3.98
11
5.06
21
-3.98
0
LINE
8
BLACK
6
CONTINUOUS
10
5.06
20
-3.98
11
5.06
21
-4.04
0
LINE
8
BLACK
6
CONTINUOUS
10
4.86
20
-3.94
11
4.8
21
-3.94
0
LINE
8
BLACK
6
CONTINUOUS
10
4.8
20
-3.94
11
4.8
21
-3.88
0
LINE
8
BLACK
6
CONTINUOUS
10
4.8
20
-3.88
11
4.86
21
-3.88
0
LINE
8
BLACK
6
CONTINUOUS
10
4.86
20
-3.88
11
4.86
21
-3.94
0
LINE
8
BLACK
6
CONTINUOUS
10
5
20
-3.94
11
5
21
-3.88
0
LINE
8
BLACK
6
CONTINUOUS
10
5
20
-3.88
11
5.06
21
-3.88
0
LINE
8
BLACK
6
CONTINUOUS
10
5.06
20
-3.88
11
5.06
21
-3.9
0
LINE
8
BLACK
6
CONTINUOUS
10
5.06
20
-3.9
11
5.07929
21
-3.9
0
LINE
8
BLACK
6
CONTINUOUS
10
5.07929
20
-3.9
11
5.07989
21
-3.89982
0
LINE
8
BLACK
6
CONTINUOUS
10
5.07989
20
-3.89982
11
5.07993
21
-3.89977
0
LINE
8
BLACK
6
CONTINUOUS
10
5.07993
20
-3.89977
11
5.08
21
-3.89947
0
LINE
8
BLACK
6
CONTINUOUS
10
5.08
20
-3.89947
11
5.08
21
-3.88285
0
LINE
8
BLACK
6
CONTINUOUS
10
5.08
20
-3.88285
11
5.08079
21
-3.88017
0
LINE
8
BLACK
6
CONTINUOUS
10
5.08079
20
-3.88017
11
5.0829
21
-3.87834
0
LINE
8
BLACK
6
CONTINUOUS
10
5.0829
20
-3.87834
11
5.08496
21
-3.87789
0
LINE
8
BLACK
6
CONTINUOUS
10
5.08496
20
-3.87789
11
5.11504
21
-3.87789
0
LINE
8
BLACK
6
CONTINUOUS
10
5.11504
20
-3.87789
11
5.11772
21
-3.87868
0
LINE
8
BLACK
6
CONTINUOUS
10
5.11772
20
-3.87868
11
5.11955
21
-3.88079
0
LINE
8
BLACK
6
CONTINUOUS
10
5.11955
20
-3.88079
11
5.12
21
-3.88285
0
LINE
8
BLACK
6
CONTINUOUS
10
5.12
20
-3.88285
11
5.12
21
-3.89929
0
LINE
8
BLACK
6
CONTINUOUS
10
5.12
20
-3.89929
11
5.12018
21
-3.89989
0
LINE
8
BLACK
6
CONTINUOUS
10
5.12018
20
-3.89989
11
5.12023
21
-3.89993
0
LINE
8
BLACK
6
CONTINUOUS
10
5.12023
20
-3.89993
11
5.12053
21
-3.9
0
LINE
8
BLACK
6
CONTINUOUS
10
5.12053
20
-3.9
11
5.14
21
-3.9
0
LINE
8
BLACK
6
CONTINUOUS
10
5.14
20
-3.9
11
5.14
21
-3.88
0
LINE
8
BLACK
6
CONTINUOUS
10
5.14
20
-3.88
11
5.2
21
-3.88
0
LINE
8
BLACK
6
CONTINUOUS
10
5.2
20
-3.88
11
5.2
21
-3.94
0
LINE
8
BLACK
6
CONTINUOUS
10
5.2
20
-3.94
11
5.18
21
-3.94
0
LINE
8
BLACK
6
CONTINUOUS
10
5.18
20
-3.94
11
5.18
21
-3.98
0
LINE
8
BLACK
6
CONTINUOUS
10
5.18
20
-3.98
11
5.2
21
-3.98
0
LINE
8
BLACK
6
CONTINUOUS
10
5.2
20
-3.98
11
5.2
21
-4.04
0
LINE
8
BLACK
6
CONTINUOUS
10
5.2
20
-4.04
11
5.18
21
-4.04
0
LINE
8
BLACK
6
CONTINUOUS
10
5.18
20
-4.04
11
5.18
21
-4.05929
0
LINE
8
BLACK
6
CONTINUOUS
10
5.18
20
-4.05929
11
5.18018
21
-4.05989
0
LINE
8
BLACK
6
CONTINUOUS
10
5.18018
20
-4.05989
11
5.18023
21
-4.05993
0
LINE
8
BLACK
6
CONTINUOUS
10
5.18023
20
-4.05993
11
5.18053
21
-4.06
0
LINE
8
BLACK
6
CONTINUOUS
10
5.18053
20
-4.06
11
5.20176
21
-4.06
0
LINE
8
BLACK
6
CONTINUOUS
10
5.20176
20
-4.06
11
5.20203
21
-4.05999
0
LINE
8
BLACK
6
CONTINUOUS
10
5.20203
20
-4.05999
11
5.20403
21
-4.05977
0
LINE
8
BLACK
6
CONTINUOUS
10
5.20403
20
-4.05977
11
5.20463
21
-4.05963
0
LINE
8
BLACK
6
CONTINUOUS
10
5.20463
20
-4.05963
11
5.20937
21
-4.05785
0
LINE
8
BLACK
6
CONTINUOUS
10
5.20937
20
-4.05785
11
5.20999
21
-4.05751
0
LINE
8
BLACK
6
CONTINUOUS
10
5.20999
20
-4.05751
11
5.214
21
-4.0545
0
LINE
8
BLACK
6
CONTINUOUS
10
5.214
20
-4.0545
11
5.2145
21
-4.054
0
LINE
8
BLACK
6
CONTINUOUS
10
5.2145
20
-4.054
11
5.21602
21
-4.05198
0
LINE
8
BLACK
6
CONTINUOUS
10
5.21602
20
-4.05198
11
5.21826
21
-4.0503
0
LINE
8
BLACK
6
CONTINUOUS
10
5.21826
20
-4.0503
11
5.22104
21
-4.05011
0
LINE
8
BLACK
6
CONTINUOUS
10
5.22104
20
-4.05011
11
5.2235
21
-4.05145
0
LINE
8
BLACK
6
CONTINUOUS
10
5.2235
20
-4.05145
11
5.22396
21
-4.05198
0
LINE
8
BLACK
6
CONTINUOUS
10
5.22396
20
-4.05198
11
5.2257
21
-4.0543
0
LINE
8
BLACK
6
CONTINUOUS
10
5.2257
20
-4.0543
11
5.22598
21
-4.05451
0
LINE
8
BLACK
6
CONTINUOUS
10
5.22598
20
-4.05451
11
5.22598
21
-4.05451
0
LINE
8
BLACK
6
CONTINUOUS
10
5.22598
20
-4.05451
11
5.23013
21
-4.05762
0
LINE
8
BLACK
6
CONTINUOUS
10
5.23013
20
-4.05762
11
5.23181
21
-4.05986
0
LINE
8
BLACK
6
CONTINUOUS
10
5.23181
20
-4.05986
11
5.232
21
-4.06265
0
LINE
8
BLACK
6
CONTINUOUS
10
5.232
20
-4.06265
11
5.23066
21
-4.0651
0
LINE
8
BLACK
6
CONTINUOUS
10
5.23066
20
-4.0651
11
5.22977
21
-4.06581
0
LINE
8
BLACK
6
CONTINUOUS
10
5.22977
20
-4.06581
11
5.22507
21
-4.06872
0
LINE
8
BLACK
6
CONTINUOUS
10
5.22507
20
-4.06872
11
5.22015
21
-4.07365
0
LINE
8
BLACK
6
CONTINUOUS
10
5.22015
20
-4.07365
11
5.21649
21
-4.07958
0
LINE
8
BLACK
6
CONTINUOUS
10
5.21649
20
-4.07958
11
5.21643
21
-4.07954
0
LINE
8
BLACK
6
CONTINUOUS
10
5.21643
20
-4.07954
11
5.21484
21
-4.08134
0
LINE
8
BLACK
6
CONTINUOUS
10
5.21484
20
-4.08134
11
5.21219
21
-4.08211
0
LINE
8
BLACK
6
CONTINUOUS
10
5.21219
20
-4.08211
11
5.20114
21
-4.08211
0
LINE
8
BLACK
6
CONTINUOUS
10
5.20114
20
-4.08211
11
5.2008
21
-4.08209
0
LINE
8
BLACK
6
CONTINUOUS
10
5.2008
20
-4.08209
11
5.19883
21
-4.08196
0
LINE
8
BLACK
6
CONTINUOUS
10
5.19883
20
-4.08196
11
5.19883
21
-4.08196
0
LINE
8
BLACK
6
CONTINUOUS
10
5.19883
20
-4.08196
11
5.19853
21
-4.08194
0
LINE
8
BLACK
6
CONTINUOUS
10
5.19853
20
-4.08194
11
5.19824
21
-4.08199
0
LINE
8
BLACK
6
CONTINUOUS
10
5.19824
20
-4.08199
11
5.19824
21
-4.08199
0
LINE
8
BLACK
6
CONTINUOUS
10
5.19824
20
-4.08199
11
5.19719
21
-4.08217
0
LINE
8
BLACK
6
CONTINUOUS
10
5.19719
20
-4.08217
11
5.19605
21
-4.08237
0
LINE
8
BLACK
6
CONTINUOUS
10
5.19605
20
-4.08237
11
5.19579
21
-4.08241
0
LINE
8
BLACK
6
CONTINUOUS
10
5.19579
20
-4.08241
11
5.1933
21
-4.08271
0
LINE
8
BLACK
6
CONTINUOUS
10
5.1933
20
-4.08271
11
5.19302
21
-4.08282
0
LINE
8
BLACK
6
CONTINUOUS
10
5.19302
20
-4.08282
11
5.19292
21
-4.08284
0
LINE
8
BLACK
6
CONTINUOUS
10
5.19292
20
-4.08284
11
5.19227
21
-4.08302
0
LINE
8
BLACK
6
CONTINUOUS
10
5.19227
20
-4.08302
11
5.19217
21
-4.08305
0
LINE
8
BLACK
6
CONTINUOUS
10
5.19217
20
-4.08305
11
5.19188
21
-4.0831
0
LINE
8
BLACK
6
CONTINUOUS
10
5.19188
20
-4.0831
11
5.1916
21
-4.08322
0
LINE
8
BLACK
6
CONTINUOUS
10
5.1916
20
-4.08322
11
5.18957
21
-4.08411
0
LINE
8
BLACK
6
CONTINUOUS
10
5.18957
20
-4.08411
11
5.18933
21
-4.08421
0
LINE
8
BLACK
6
CONTINUOUS
10
5.18933
20
-4.08421
11
5.18698
21
-4.0851
0
LINE
8
BLACK
6
CONTINUOUS
10
5.18698
20
-4.0851
11
5.18674
21
-4.08527
0
LINE
8
BLACK
6
CONTINUOUS
10
5.18674
20
-4.08527
11
5.18664
21
-4.08532
0
LINE
8
BLACK
6
CONTINUOUS
10
5.18664
20
-4.08532
11
5.18606
21
-4.08564
0
LINE
8
BLACK
6
CONTINUOUS
10
5.18606
20
-4.08564
11
5.18597
21
-4.08569
0
LINE
8
BLACK
6
CONTINUOUS
10
5.18597
20
-4.08569
11
5.1857
21
-4.08581
0
LINE
8
BLACK
6
CONTINUOUS
10
5.1857
20
-4.08581
11
5.1837
21
-4.08735
0
LINE
8
BLACK
6
CONTINUOUS
10
5.1837
20
-4.08735
11
5.18349
21
-4.0875
0
LINE
8
BLACK
6
CONTINUOUS
10
5.18349
20
-4.0875
11
5.18166
21
-4.08875
0
LINE
8
BLACK
6
CONTINUOUS
10
5.18166
20
-4.08875
11
5.18166
21
-4.08875
0
LINE
8
BLACK
6
CONTINUOUS
10
5.18166
20
-4.08875
11
5.18142
21
-4.08892
0
LINE
8
BLACK
6
CONTINUOUS
10
5.18142
20
-4.08892
11
5.18122
21
-4.08915
0
LINE
8
BLACK
6
CONTINUOUS
10
5.18122
20
-4.08915
11
5.18122
21
-4.08915
0
LINE
8
BLACK
6
CONTINUOUS
10
5.18122
20
-4.08915
11
5.17979
21
-4.09075
0
LINE
8
BLACK
6
CONTINUOUS
10
5.17979
20
-4.09075
11
5.17959
21
-4.09096
0
LINE
8
BLACK
6
CONTINUOUS
10
5.17959
20
-4.09096
11
5.10569
21
-4.16486
0
LINE
8
BLACK
6
CONTINUOUS
10
5.10569
20
-4.16486
11
5.10544
21
-4.16509
0
LINE
8
BLACK
6
CONTINUOUS
10
5.10544
20
-4.16509
11
5.10372
21
-4.16659
0
LINE
8
BLACK
6
CONTINUOUS
10
5.10372
20
-4.16659
11
5.10355
21
-4.16684
0
LINE
8
BLACK
6
CONTINUOUS
10
5.10355
20
-4.16684
11
5.10228
21
-4.16865
0
LINE
8
BLACK
6
CONTINUOUS
10
5.10228
20
-4.16865
11
5.10212
21
-4.16886
0
LINE
8
BLACK
6
CONTINUOUS
10
5.10212
20
-4.16886
11
5.10057
21
-4.17084
0
LINE
8
BLACK
6
CONTINUOUS
10
5.10057
20
-4.17084
11
5.10045
21
-4.17111
0
LINE
8
BLACK
6
CONTINUOUS
10
5.10045
20
-4.17111
11
5.10039
21
-4.1712
0
LINE
8
BLACK
6
CONTINUOUS
10
5.10039
20
-4.1712
11
5.10006
21
-4.17178
0
LINE
8
BLACK
6
CONTINUOUS
10
5.10006
20
-4.17178
11
5.10001
21
-4.17187
0
LINE
8
BLACK
6
CONTINUOUS
10
5.10001
20
-4.17187
11
5.09984
21
-4.17212
0
LINE
8
BLACK
6
CONTINUOUS
10
5.09984
20
-4.17212
11
5.09973
21
-4.17239
0
LINE
8
BLACK
6
CONTINUOUS
10
5.09973
20
-4.17239
11
5.09973
21
-4.17239
0
LINE
8
BLACK
6
CONTINUOUS
10
5.09973
20
-4.17239
11
5.09893
21
-4.17446
0
LINE
8
BLACK
6
CONTINUOUS
10
5.09893
20
-4.17446
11
5.09883
21
-4.1747
0
LINE
8
BLACK
6
CONTINUOUS
10
5.09883
20
-4.1747
11
5.09779
21
-4.17699
0
LINE
8
BLACK
6
CONTINUOUS
10
5.09779
20
-4.17699
11
5.09774
21
-4.17729
0
LINE
8
BLACK
6
CONTINUOUS
10
5.09774
20
-4.17729
11
5.09771
21
-4.17739
0
LINE
8
BLACK
6
CONTINUOUS
10
5.09771
20
-4.17739
11
5.09753
21
-4.17803
0
LINE
8
BLACK
6
CONTINUOUS
10
5.09753
20
-4.17803
11
5.0975
21
-4.17813
0
LINE
8
BLACK
6
CONTINUOUS
10
5.0975
20
-4.17813
11
5.09739
21
-4.17841
0
LINE
8
BLACK
6
CONTINUOUS
10
5.09739
20
-4.17841
11
5.09735
21
-4.1787
0
LINE
8
BLACK
6
CONTINUOUS
10
5.09735
20
-4.1787
11
5.09735
21
-4.1787
0
LINE
8
BLACK
6
CONTINUOUS
10
5.09735
20
-4.1787
11
5.09706
21
-4.1809
0
LINE
8
BLACK
6
CONTINUOUS
10
5.09706
20
-4.1809
11
5.09702
21
-4.18116
0
LINE
8
BLACK
6
CONTINUOUS
10
5.09702
20
-4.18116
11
5.09656
21
-4.18363
0
LINE
8
BLACK
6
CONTINUOUS
10
5.09656
20
-4.18363
11
5.09658
21
-4.18393
0
LINE
8
BLACK
6
CONTINUOUS
10
5.09658
20
-4.18393
11
5.09658
21
-4.18393
0
LINE
8
BLACK
6
CONTINUOUS
10
5.09658
20
-4.18393
11
5.0967
21
-4.18608
0
LINE
8
BLACK
6
CONTINUOUS
10
5.0967
20
-4.18608
11
5.09671
21
-4.18636
0
LINE
8
BLACK
6
CONTINUOUS
10
5.09671
20
-4.18636
11
5.09671
21
-4.19529
0
LINE
8
BLACK
6
CONTINUOUS
10
5.09671
20
-4.19529
11
5.09593
21
-4.19797
0
LINE
8
BLACK
6
CONTINUOUS
10
5.09593
20
-4.19797
11
5.09381
21
-4.1998
0
LINE
8
BLACK
6
CONTINUOUS
10
5.09381
20
-4.1998
11
5.09105
21
-4.2002
0
LINE
8
BLACK
6
CONTINUOUS
10
5.09105
20
-4.2002
11
5.0885
21
-4.19904
0
LINE
8
BLACK
6
CONTINUOUS
10
5.0885
20
-4.19904
11
5.08824
21
-4.1988
0
LINE
8
BLACK
6
CONTINUOUS
10
5.08824
20
-4.1988
11
5.05053
21
-4.16108
0
LINE
8
BLACK
6
CONTINUOUS
10
5.05053
20
-4.16108
11
5.0503
21
-4.16084
0
LINE
8
BLACK
6
CONTINUOUS
10
5.0503
20
-4.16084
11
5.0501
21
-4.16061
0
LINE
8
BLACK
6
CONTINUOUS
10
5.0501
20
-4.16061
11
5.0488
21
-4.15912
0
LINE
8
BLACK
6
CONTINUOUS
10
5.0488
20
-4.15912
11
5.04674
21
-4.15767
0
LINE
8
BLACK
6
CONTINUOUS
10
5.04674
20
-4.15767
11
5.04653
21
-4.15752
0
LINE
8
BLACK
6
CONTINUOUS
10
5.04653
20
-4.15752
11
5.04479
21
-4.15615
0
LINE
8
BLACK
6
CONTINUOUS
10
5.04479
20
-4.15615
11
5.04456
21
-4.15597
0
LINE
8
BLACK
6
CONTINUOUS
10
5.04456
20
-4.15597
11
5.04428
21
-4.15584
0
LINE
8
BLACK
6
CONTINUOUS
10
5.04428
20
-4.15584
11
5.04419
21
-4.15579
0
LINE
8
BLACK
6
CONTINUOUS
10
5.04419
20
-4.15579
11
5.04362
21
-4.15546
0
LINE
8
BLACK
6
CONTINUOUS
10
5.04362
20
-4.15546
11
5.04352
21
-4.15541
0
LINE
8
BLACK
6
CONTINUOUS
10
5.04352
20
-4.15541
11
5.04328
21
-4.15524
0
LINE
8
BLACK
6
CONTINUOUS
10
5.04328
20
-4.15524
11
5.043
21
-4.15513
0
LINE
8
BLACK
6
CONTINUOUS
10
5.043
20
-4.15513
11
5.043
21
-4.15513
0
LINE
8
BLACK
6
CONTINUOUS
10
5.043
20
-4.15513
11
5.04093
21
-4.15432
0
LINE
8
BLACK
6
CONTINUOUS
10
5.04093
20
-4.15432
11
5.0407
21
-4.15422
0
LINE
8
BLACK
6
CONTINUOUS
10
5.0407
20
-4.15422
11
5.0384
21
-4.15319
0
LINE
8
BLACK
6
CONTINUOUS
10
5.0384
20
-4.15319
11
5.03811
21
-4.15313
0
LINE
8
BLACK
6
CONTINUOUS
10
5.03811
20
-4.15313
11
5.03801
21
-4.1531
0
LINE
8
BLACK
6
CONTINUOUS
10
5.03801
20
-4.1531
11
5.03737
21
-4.15292
0
LINE
8
BLACK
6
CONTINUOUS
10
5.03737
20
-4.15292
11
5.03727
21
-4.15289
0
LINE
8
BLACK
6
CONTINUOUS
10
5.03727
20
-4.15289
11
5.03699
21
-4.15278
0
LINE
8
BLACK
6
CONTINUOUS
10
5.03699
20
-4.15278
11
5.03669
21
-4.15275
0
LINE
8
BLACK
6
CONTINUOUS
10
5.03669
20
-4.15275
11
5.03669
21
-4.15275
0
LINE
8
BLACK
6
CONTINUOUS
10
5.03669
20
-4.15275
11
5.03553
21
-4.15259
0
LINE
8
BLACK
6
CONTINUOUS
10
5.03553
20
-4.15259
11
5.03449
21
-4.15246
0
LINE
8
BLACK
6
CONTINUOUS
10
5.03449
20
-4.15246
11
5.03424
21
-4.15242
0
LINE
8
BLACK
6
CONTINUOUS
10
5.03424
20
-4.15242
11
5.03176
21
-4.15196
0
LINE
8
BLACK
6
CONTINUOUS
10
5.03176
20
-4.15196
11
5.03147
21
-4.15197
0
LINE
8
BLACK
6
CONTINUOUS
10
5.03147
20
-4.15197
11
5.03147
21
-4.15197
0
LINE
8
BLACK
6
CONTINUOUS
10
5.03147
20
-4.15197
11
5.02932
21
-4.1521
0
LINE
8
BLACK
6
CONTINUOUS
10
5.02932
20
-4.1521
11
5.02903
21
-4.15211
0
LINE
8
BLACK
6
CONTINUOUS
10
5.02903
20
-4.15211
11
5.01285
21
-4.15211
0
LINE
8
BLACK
6
CONTINUOUS
10
5.01285
20
-4.15211
11
5.01017
21
-4.15132
0
LINE
8
BLACK
6
CONTINUOUS
10
5.01017
20
-4.15132
11
5.00834
21
-4.14921
0
LINE
8
BLACK
6
CONTINUOUS
10
5.00834
20
-4.14921
11
5.00789
21
-4.14715
0
LINE
8
BLACK
6
CONTINUOUS
10
5.00789
20
-4.14715
11
5.00789
21
-4.06498
0
LINE
8
BLACK
6
CONTINUOUS
10
5.00789
20
-4.06498
11
5.00868
21
-4.0623
0
LINE
8
BLACK
6
CONTINUOUS
10
5.00868
20
-4.0623
11
5.01079
21
-4.06047
0
LINE
8
BLACK
6
CONTINUOUS
10
5.01079
20
-4.06047
11
5.01285
21
-4.06002
0
LINE
8
BLACK
6
CONTINUOUS
10
5.01285
20
-4.06002
11
5.0619
21
-4.06002
0
LINE
8
BLACK
6
CONTINUOUS
10
5.0619
20
-4.06002
11
5.06434
21
-4.05975
0
LINE
8
BLACK
6
CONTINUOUS
10
5.06434
20
-4.05975
11
5.06971
21
-4.05774
0
LINE
8
BLACK
6
CONTINUOUS
10
5.06971
20
-4.05774
11
5.0743
21
-4.0543
0
LINE
8
BLACK
6
CONTINUOUS
10
5.0743
20
-4.0543
11
5.07774
21
-4.04971
0
LINE
8
BLACK
6
CONTINUOUS
10
5.07774
20
-4.04971
11
5.07975
21
-4.04434
0
LINE
8
BLACK
6
CONTINUOUS
10
5.07975
20
-4.04434
11
5.08002
21
-4.0419
0
LINE
8
BLACK
6
CONTINUOUS
10
5.08002
20
-4.0419
11
5.08002
21
-3.9781
0
LINE
8
BLACK
6
CONTINUOUS
10
5.08002
20
-3.9781
11
5.07975
21
-3.97566
0
LINE
8
BLACK
6
CONTINUOUS
10
5.07975
20
-3.97566
11
5.07774
21
-3.97029
0
LINE
8
BLACK
6
CONTINUOUS
10
5.07774
20
-3.97029
11
5.0743
21
-3.9657
0
LINE
8
BLACK
6
CONTINUOUS
10
5.0743
20
-3.9657
11
5.07198
21
-3.96396
0
LINE
8
BLACK
6
CONTINUOUS
10
5.07198
20
-3.96396
11
5.0703
21
-3.96172
0
LINE
8
BLACK
6
CONTINUOUS
10
5.0703
20
-3.96172
11
5.07011
21
-3.95893
0
LINE
8
BLACK
6
CONTINUOUS
10
5.07011
20
-3.95893
11
5.07145
21
-3.95648
0
LINE
8
BLACK
6
CONTINUOUS
10
5.07145
20
-3.95648
11
5.07198
21
-3.95602
0
LINE
8
BLACK
6
CONTINUOUS
10
5.07198
20
-3.95602
11
5.074
21
-3.9545
0
LINE
8
BLACK
6
CONTINUOUS
10
5.074
20
-3.9545
11
5.0745
21
-3.954
0
LINE
8
BLACK
6
CONTINUOUS
10
5.0745
20
-3.954
11
5.07751
21
-3.94999
0
LINE
8
BLACK
6
CONTINUOUS
10
5.07751
20
-3.94999
11
5.07785
21
-3.94937
0
LINE
8
BLACK
6
CONTINUOUS
10
5.07785
20
-3.94937
11
5.07963
21
-3.94463
0
LINE
8
BLACK
6
CONTINUOUS
10
5.07963
20
-3.94463
11
5.07977
21
-3.94403
0
LINE
8
BLACK
6
CONTINUOUS
10
5.07977
20
-3.94403
11
5.07999
21
-3.94203
0
LINE
8
BLACK
6
CONTINUOUS
10
5.07999
20
-3.94203
11
5.08
21
-3.94176
0
LINE
8
BLACK
6
CONTINUOUS
10
5.08
20
-3.94176
11
5.08
21
-3.92071
0
LINE
8
BLACK
6
CONTINUOUS
10
5.08
20
-3.92071
11
5.07982
21
-3.92011
0
LINE
8
BLACK
6
CONTINUOUS
10
5.07982
20
-3.92011
11
5.07977
21
-3.92007
0
LINE
8
BLACK
6
CONTINUOUS
10
5.07977
20
-3.92007
11
5.07947
21
-3.92
0
LINE
8
BLACK
6
CONTINUOUS
10
5.07947
20
-3.92
11
5.06
21
-3.92
0
LINE
8
BLACK
6
CONTINUOUS
10
5.06
20
-3.92
11
5.06
21
-3.94
0
LINE
8
BLACK
6
CONTINUOUS
10
5.06
20
-3.94
11
5
21
-3.94
0
LINE
8
BLACK
6
CONTINUOUS
10
5.12023
20
-4.04403
11
5.12037
21
-4.04463
0
LINE
8
BLACK
6
CONTINUOUS
10
5.12037
20
-4.04463
11
5.12215
21
-4.04937
0
LINE
8
BLACK
6
CONTINUOUS
10
5.12215
20
-4.04937
11
5.12249
21
-4.04999
0
LINE
8
BLACK
6
CONTINUOUS
10
5.12249
20
-4.04999
11
5.1255
21
-4.054
0
LINE
8
BLACK
6
CONTINUOUS
10
5.1255
20
-4.054
11
5.126
21
-4.0545
0
LINE
8
BLACK
6
CONTINUOUS
10
5.126
20
-4.0545
11
5.13001
21
-4.05751
0
LINE
8
BLACK
6
CONTINUOUS
10
5.13001
20
-4.05751
11
5.13063
21
-4.05785
0
LINE
8
BLACK
6
CONTINUOUS
10
5.13063
20
-4.05785
11
5.13537
21
-4.05963
0
LINE
8
BLACK
6
CONTINUOUS
10
5.13537
20
-4.05963
11
5.13597
21
-4.05977
0
LINE
8
BLACK
6
CONTINUOUS
10
5.13597
20
-4.05977
11
5.13797
21
-4.05999
0
LINE
8
BLACK
6
CONTINUOUS
10
5.13797
20
-4.05999
11
5.13824
21
-4.06
0
LINE
8
BLACK
6
CONTINUOUS
10
5.13824
20
-4.06
11
5.15929
21
-4.06
0
LINE
8
BLACK
6
CONTINUOUS
10
5.15929
20
-4.06
11
5.15989
21
-4.05982
0
LINE
8
BLACK
6
CONTINUOUS
10
5.15989
20
-4.05982
11
5.15993
21
-4.05977
0
LINE
8
BLACK
6
CONTINUOUS
10
5.15993
20
-4.05977
11
5.16
21
-4.05947
0
LINE
8
BLACK
6
CONTINUOUS
10
5.16
20
-4.05947
11
5.16
21
-4.04
0
LINE
8
BLACK
6
CONTINUOUS
10
5.16
20
-4.04
11
5.14
21
-4.04
0
LINE
8
BLACK
6
CONTINUOUS
10
5.14
20
-4.04
11
5.14
21
-4.02
0
LINE
8
BLACK
6
CONTINUOUS
10
5.14
20
-4.02
11
5.12071
21
-4.02
0
LINE
8
BLACK
6
CONTINUOUS
10
5.12071
20
-4.02
11
5.12011
21
-4.02018
0
LINE
8
BLACK
6
CONTINUOUS
10
5.12011
20
-4.02018
11
5.12007
21
-4.02023
0
LINE
8
BLACK
6
CONTINUOUS
10
5.12007
20
-4.02023
11
5.12
21
-4.02053
0
LINE
8
BLACK
6
CONTINUOUS
10
5.12
20
-4.02053
11
5.12
21
-4.04176
0
LINE
8
BLACK
6
CONTINUOUS
10
5.12
20
-4.04176
11
5.12001
21
-4.04203
0
LINE
8
BLACK
6
CONTINUOUS
10
5.12001
20
-4.04203
11
5.12023
21
-4.04403
0
LINE
8
BLACK
6
CONTINUOUS
10
5.12023
20
-3.99993
11
5.12053
21
-4
0
LINE
8
BLACK
6
CONTINUOUS
10
5.12053
20
-4
11
5.14
21
-4
0
LINE
8
BLACK
6
CONTINUOUS
10
5.14
20
-4
11
5.14
21
-3.98
0
LINE
8
BLACK
6
CONTINUOUS
10
5.14
20
-3.98
11
5.16
21
-3.98
0
LINE
8
BLACK
6
CONTINUOUS
10
5.16
20
-3.98
11
5.16
21
-3.94
0
LINE
8
BLACK
6
CONTINUOUS
10
5.16
20
-3.94
11
5.14
21
-3.94
0
LINE
8
BLACK
6
CONTINUOUS
10
5.14
20
-3.94
11
5.14
21
-3.92
0
LINE
8
BLACK
6
CONTINUOUS
10
5.14
20
-3.92
11
5.12071
21
-3.92
0
LINE
8
BLACK
6
CONTINUOUS
10
5.12071
20
-3.92
11
5.12011
21
-3.92018
0
LINE
8
BLACK
6
CONTINUOUS
10
5.12011
20
-3.92018
11
5.12007
21
-3.92023
0
LINE
8
BLACK
6
CONTINUOUS
10
5.12007
20
-3.92023
11
5.12
21
-3.92053
0
LINE
8
BLACK
6
CONTINUOUS
10
5.12
20
-3.92053
11
5.12
21
-3.94176
0
LINE
8
BLACK
6
CONTINUOUS
10
5.12
20
-3.94176
11
5.12001
21
-3.94203
0
LINE
8
BLACK
6
CONTINUOUS
10
5.12001
20
-3.94203
11
5.12023
21
-3.94403
0
LINE
8
BLACK
6
CONTINUOUS
10
5.12023
20
-3.94403
11
5.12037
21
-3.94463
0
LINE
8
BLACK
6
CONTINUOUS
10
5.12037
20
-3.94463
11
5.12215
21
-3.94937
0
LINE
8
BLACK
6
CONTINUOUS
10
5.12215
20
-3.94937
11
5.12249
21
-3.94999
0
LINE
8
BLACK
6
CONTINUOUS
10
5.12249
20
-3.94999
11
5.1255
21
-3.954
0
LINE
8
BLACK
6
CONTINUOUS
10
5.1255
20
-3.954
11
5.126
21
-3.9545
0
LINE
8
BLACK
6
CONTINUOUS
10
5.126
20
-3.9545
11
5.12804
21
-3.95603
0
LINE
8
BLACK
6
CONTINUOUS
10
5.12804
20
-3.95603
11
5.12971
21
-3.95827
0
LINE
8
BLACK
6
CONTINUOUS
10
5.12971
20
-3.95827
11
5.12991
21
-3.96106
0
LINE
8
BLACK
6
CONTINUOUS
10
5.12991
20
-3.96106
11
5.12857
21
-3.96351
0
LINE
8
BLACK
6
CONTINUOUS
10
5.12857
20
-3.96351
11
5.12804
21
-3.96397
0
LINE
8
BLACK
6
CONTINUOUS
10
5.12804
20
-3.96397
11
5.126
21
-3.9655
0
LINE
8
BLACK
6
CONTINUOUS
10
5.126
20
-3.9655
11
5.1255
21
-3.966
0
LINE
8
BLACK
6
CONTINUOUS
10
5.1255
20
-3.966
11
5.12249
21
-3.97001
0
LINE
8
BLACK
6
CONTINUOUS
10
5.12249
20
-3.97001
11
5.12215
21
-3.97063
0
LINE
8
BLACK
6
CONTINUOUS
10
5.12215
20
-3.97063
11
5.12037
21
-3.97537
0
LINE
8
BLACK
6
CONTINUOUS
10
5.12037
20
-3.97537
11
5.12023
21
-3.97597
0
LINE
8
BLACK
6
CONTINUOUS
10
5.12023
20
-3.97597
11
5.12001
21
-3.97797
0
LINE
8
BLACK
6
CONTINUOUS
10
5.12001
20
-3.97797
11
5.12
21
-3.97824
0
LINE
8
BLACK
6
CONTINUOUS
10
5.12
20
-3.97824
11
5.12
21
-3.99929
0
LINE
8
BLACK
6
CONTINUOUS
10
5.12
20
-3.99929
11
5.12018
21
-3.99989
0
LINE
8
BLACK
6
CONTINUOUS
10
5.12018
20
-3.99989
11
5.12023
21
-3.99993
0
LINE
8
BLACK
6
CONTINUOUS
10
5.73446
20
-4.18879
11
5.73459
21
-4.1889
0
LINE
8
BLACK
6
CONTINUOUS
10
5.73459
20
-4.1889
11
5.73477
21
-4.18892
0
LINE
8
BLACK
6
CONTINUOUS
10
5.73477
20
-4.18892
11
5.73852
21
-4.1908
0
LINE
8
BLACK
6
CONTINUOUS
10
5.73852
20
-4.1908
11
5.73922
21
-4.19132
0
LINE
8
BLACK
6
CONTINUOUS
10
5.73922
20
-4.19132
11
5.73928
21
-4.19135
0
LINE
8
BLACK
6
CONTINUOUS
10
5.73928
20
-4.19135
11
5.74116
21
-4.19323
0
LINE
8
BLACK
6
CONTINUOUS
10
5.74116
20
-4.19323
11
5.74166
21
-4.19395
0
LINE
8
BLACK
6
CONTINUOUS
10
5.74166
20
-4.19395
11
5.74171
21
-4.19399
0
LINE
8
BLACK
6
CONTINUOUS
10
5.74171
20
-4.19399
11
5.74359
21
-4.19774
0
LINE
8
BLACK
6
CONTINUOUS
10
5.74359
20
-4.19774
11
5.74388
21
-4.19872
0
LINE
8
BLACK
6
CONTINUOUS
10
5.74388
20
-4.19872
11
5.74384
21
-4.1989
0
LINE
8
BLACK
6
CONTINUOUS
10
5.74384
20
-4.1989
11
5.7439
21
-4.19906
0
LINE
8
BLACK
6
CONTINUOUS
10
5.7439
20
-4.19906
11
5.7439
21
-4.21031
0
LINE
8
BLACK
6
CONTINUOUS
10
5.7439
20
-4.21031
11
5.74372
21
-4.21132
0
LINE
8
BLACK
6
CONTINUOUS
10
5.74372
20
-4.21132
11
5.74361
21
-4.21146
0
LINE
8
BLACK
6
CONTINUOUS
10
5.74361
20
-4.21146
11
5.74359
21
-4.21163
0
LINE
8
BLACK
6
CONTINUOUS
10
5.74359
20
-4.21163
11
5.74171
21
-4.21538
0
LINE
8
BLACK
6
CONTINUOUS
10
5.74171
20
-4.21538
11
5.74119
21
-4.21609
0
LINE
8
BLACK
6
CONTINUOUS
10
5.74119
20
-4.21609
11
5.74116
21
-4.21615
0
LINE
8
BLACK
6
CONTINUOUS
10
5.74116
20
-4.21615
11
5.73928
21
-4.21802
0
LINE
8
BLACK
6
CONTINUOUS
10
5.73928
20
-4.21802
11
5.73856
21
-4.21853
0
LINE
8
BLACK
6
CONTINUOUS
10
5.73856
20
-4.21853
11
5.73852
21
-4.21858
0
LINE
8
BLACK
6
CONTINUOUS
10
5.73852
20
-4.21858
11
5.73477
21
-4.22045
0
LINE
8
BLACK
6
CONTINUOUS
10
5.73477
20
-4.22045
11
5.73378
21
-4.22074
0
LINE
8
BLACK
6
CONTINUOUS
10
5.73378
20
-4.22074
11
5.73361
21
-4.2207
0
LINE
8
BLACK
6
CONTINUOUS
10
5.73361
20
-4.2207
11
5.73345
21
-4.22076
0
LINE
8
BLACK
6
CONTINUOUS
10
5.73345
20
-4.22076
11
5.72595
21
-4.22076
0
LINE
8
BLACK
6
CONTINUOUS
10
5.72595
20
-4.22076
11
5.72494
21
-4.22058
0
LINE
8
BLACK
6
CONTINUOUS
10
5.72494
20
-4.22058
11
5.7248
21
-4.22047
0
LINE
8
BLACK
6
CONTINUOUS
10
5.7248
20
-4.22047
11
5.72463
21
-4.22045
0
LINE
8
BLACK
6
CONTINUOUS
10
5.72463
20
-4.22045
11
5.72088
21
-4.21858
0
LINE
8
BLACK
6
CONTINUOUS
10
5.72088
20
-4.21858
11
5.72005
21
-4.21797
0
LINE
8
BLACK
6
CONTINUOUS
10
5.72005
20
-4.21797
11
5.71925
21
-4.21611
0
LINE
8
BLACK
6
CONTINUOUS
10
5.71925
20
-4.21611
11
5.71983
21
-4.21418
0
LINE
8
BLACK
6
CONTINUOUS
10
5.71983
20
-4.21418
11
5.72151
21
-4.21306
0
LINE
8
BLACK
6
CONTINUOUS
10
5.72151
20
-4.21306
11
5.72352
21
-4.21329
0
LINE
8
BLACK
6
CONTINUOUS
10
5.72352
20
-4.21329
11
5.72664
21
-4.21486
0
LINE
8
BLACK
6
CONTINUOUS
10
5.72664
20
-4.21486
11
5.73275
21
-4.21486
0
LINE
8
BLACK
6
CONTINUOUS
10
5.73275
20
-4.21486
11
5.73545
21
-4.21351
0
LINE
8
BLACK
6
CONTINUOUS
10
5.73545
20
-4.21351
11
5.73664
21
-4.21231
0
LINE
8
BLACK
6
CONTINUOUS
10
5.73664
20
-4.21231
11
5.73799
21
-4.20961
0
LINE
8
BLACK
6
CONTINUOUS
10
5.73799
20
-4.20961
11
5.73799
21
-4.19976
0
LINE
8
BLACK
6
CONTINUOUS
10
5.73799
20
-4.19976
11
5.73664
21
-4.19706
0
LINE
8
BLACK
6
CONTINUOUS
10
5.73664
20
-4.19706
11
5.73545
21
-4.19587
0
LINE
8
BLACK
6
CONTINUOUS
10
5.73545
20
-4.19587
11
5.73275
21
-4.19452
0
LINE
8
BLACK
6
CONTINUOUS
10
5.73275
20
-4.19452
11
5.72664
21
-4.19452
0
LINE
8
BLACK
6
CONTINUOUS
10
5.72664
20
-4.19452
11
5.72352
21
-4.19608
0
LINE
8
BLACK
6
CONTINUOUS
10
5.72352
20
-4.19608
11
5.72253
21
-4.19637
0
LINE
8
BLACK
6
CONTINUOUS
10
5.72253
20
-4.19637
11
5.72057
21
-4.1959
0
LINE
8
BLACK
6
CONTINUOUS
10
5.72057
20
-4.1959
11
5.71937
21
-4.19428
0
LINE
8
BLACK
6
CONTINUOUS
10
5.71937
20
-4.19428
11
5.71949
21
-4.19226
0
LINE
8
BLACK
6
CONTINUOUS
10
5.71949
20
-4.19226
11
5.72088
21
-4.1908
0
LINE
8
BLACK
6
CONTINUOUS
10
5.72088
20
-4.1908
11
5.72463
21
-4.18892
0
LINE
8
BLACK
6
CONTINUOUS
10
5.72463
20
-4.18892
11
5.72561
21
-4.18863
0
LINE
8
BLACK
6
CONTINUOUS
10
5.72561
20
-4.18863
11
5.72578
21
-4.18867
0
LINE
8
BLACK
6
CONTINUOUS
10
5.72578
20
-4.18867
11
5.72595
21
-4.18861
0
LINE
8
BLACK
6
CONTINUOUS
10
5.72595
20
-4.18861
11
5.73345
21
-4.18861
0
LINE
8
BLACK
6
CONTINUOUS
10
5.73345
20
-4.18861
11
5.73446
21
-4.18879
0
LINE
8
BLACK
6
CONTINUOUS
10
5.86507
20
-4.17654
11
5.86576
21
-4.17844
0
LINE
8
BLACK
6
CONTINUOUS
10
5.86576
20
-4.17844
11
5.86576
21
-4.21781
0
LINE
8
BLACK
6
CONTINUOUS
10
5.86576
20
-4.21781
11
5.86569
21
-4.21819
0
LINE
8
BLACK
6
CONTINUOUS
10
5.86569
20
-4.21819
11
5.86571
21
-4.21832
0
LINE
8
BLACK
6
CONTINUOUS
10
5.86571
20
-4.21832
11
5.86565
21
-4.21844
0
LINE
8
BLACK
6
CONTINUOUS
10
5.86565
20
-4.21844
11
5.86558
21
-4.21882
0
LINE
8
BLACK
6
CONTINUOUS
10
5.86558
20
-4.21882
11
5.86509
21
-4.21941
0
LINE
8
BLACK
6
CONTINUOUS
10
5.86509
20
-4.21941
11
5.8647
21
-4.22007
0
LINE
8
BLACK
6
CONTINUOUS
10
5.8647
20
-4.22007
11
5.86445
21
-4.22016
0
LINE
8
BLACK
6
CONTINUOUS
10
5.86445
20
-4.22016
11
5.86428
21
-4.22037
0
LINE
8
BLACK
6
CONTINUOUS
10
5.86428
20
-4.22037
11
5.86353
21
-4.2205
0
LINE
8
BLACK
6
CONTINUOUS
10
5.86353
20
-4.2205
11
5.8628
21
-4.22076
0
LINE
8
BLACK
6
CONTINUOUS
10
5.8628
20
-4.22076
11
5.84406
21
-4.22076
0
LINE
8
BLACK
6
CONTINUOUS
10
5.84406
20
-4.22076
11
5.84305
21
-4.22058
0
LINE
8
BLACK
6
CONTINUOUS
10
5.84305
20
-4.22058
11
5.8415
21
-4.21929
0
LINE
8
BLACK
6
CONTINUOUS
10
5.8415
20
-4.21929
11
5.84115
21
-4.2173
0
LINE
8
BLACK
6
CONTINUOUS
10
5.84115
20
-4.2173
11
5.84216
21
-4.21555
0
LINE
8
BLACK
6
CONTINUOUS
10
5.84216
20
-4.21555
11
5.84406
21
-4.21486
0
LINE
8
BLACK
6
CONTINUOUS
10
5.84406
20
-4.21486
11
5.85985
21
-4.21486
0
LINE
8
BLACK
6
CONTINUOUS
10
5.85985
20
-4.21486
11
5.85985
21
-4.17844
0
LINE
8
BLACK
6
CONTINUOUS
10
5.85985
20
-4.17844
11
5.86003
21
-4.17743
0
LINE
8
BLACK
6
CONTINUOUS
10
5.86003
20
-4.17743
11
5.86133
21
-4.17588
0
LINE
8
BLACK
6
CONTINUOUS
10
5.86133
20
-4.17588
11
5.86332
21
-4.17553
0
LINE
8
BLACK
6
CONTINUOUS
10
5.86332
20
-4.17553
11
5.86507
21
-4.17654
0
LINE
8
BLACK
6
CONTINUOUS
10
5.71008
20
-4.18879
11
5.71163
21
-4.19009
0
LINE
8
BLACK
6
CONTINUOUS
10
5.71163
20
-4.19009
11
5.71198
21
-4.19208
0
LINE
8
BLACK
6
CONTINUOUS
10
5.71198
20
-4.19208
11
5.71097
21
-4.19383
0
LINE
8
BLACK
6
CONTINUOUS
10
5.71097
20
-4.19383
11
5.70907
21
-4.19452
0
LINE
8
BLACK
6
CONTINUOUS
10
5.70907
20
-4.19452
11
5.69453
21
-4.19452
0
LINE
8
BLACK
6
CONTINUOUS
10
5.69453
20
-4.19452
11
5.7114
21
-4.21599
0
LINE
8
BLACK
6
CONTINUOUS
10
5.7114
20
-4.21599
11
5.71154
21
-4.21626
0
LINE
8
BLACK
6
CONTINUOUS
10
5.71154
20
-4.21626
11
5.71163
21
-4.21633
0
LINE
8
BLACK
6
CONTINUOUS
10
5.71163
20
-4.21633
11
5.71166
21
-4.21647
0
LINE
8
BLACK
6
CONTINUOUS
10
5.71166
20
-4.21647
11
5.71188
21
-4.21689
0
LINE
8
BLACK
6
CONTINUOUS
10
5.71188
20
-4.21689
11
5.71186
21
-4.21761
0
LINE
8
BLACK
6
CONTINUOUS
10
5.71186
20
-4.21761
11
5.71198
21
-4.21832
0
LINE
8
BLACK
6
CONTINUOUS
10
5.71198
20
-4.21832
11
5.71182
21
-4.21859
0
LINE
8
BLACK
6
CONTINUOUS
10
5.71182
20
-4.21859
11
5.71181
21
-4.21891
0
LINE
8
BLACK
6
CONTINUOUS
10
5.71181
20
-4.21891
11
5.71133
21
-4.21945
0
LINE
8
BLACK
6
CONTINUOUS
10
5.71133
20
-4.21945
11
5.71097
21
-4.22007
0
LINE
8
BLACK
6
CONTINUOUS
10
5.71097
20
-4.22007
11
5.71068
21
-4.22018
0
LINE
8
BLACK
6
CONTINUOUS
10
5.71068
20
-4.22018
11
5.71047
21
-4.22041
0
LINE
8
BLACK
6
CONTINUOUS
10
5.71047
20
-4.22041
11
5.70975
21
-4.22052
0
LINE
8
BLACK
6
CONTINUOUS
10
5.70975
20
-4.22052
11
5.70907
21
-4.22076
0
LINE
8
BLACK
6
CONTINUOUS
10
5.70907
20
-4.22076
11
5.68845
21
-4.22076
0
LINE
8
BLACK
6
CONTINUOUS
10
5.68845
20
-4.22076
11
5.68744
21
-4.22058
0
LINE
8
BLACK
6
CONTINUOUS
10
5.68744
20
-4.22058
11
5.68589
21
-4.21929
0
LINE
8
BLACK
6
CONTINUOUS
10
5.68589
20
-4.21929
11
5.68554
21
-4.2173
0
LINE
8
BLACK
6
CONTINUOUS
10
5.68554
20
-4.2173
11
5.68655
21
-4.21555
0
LINE
8
BLACK
6
CONTINUOUS
10
5.68655
20
-4.21555
11
5.68845
21
-4.21486
0
LINE
8
BLACK
6
CONTINUOUS
10
5.68845
20
-4.21486
11
5.703
21
-4.21486
0
LINE
8
BLACK
6
CONTINUOUS
10
5.703
20
-4.21486
11
5.68613
21
-4.19339
0
LINE
8
BLACK
6
CONTINUOUS
10
5.68613
20
-4.19339
11
5.68598
21
-4.19311
0
LINE
8
BLACK
6
CONTINUOUS
10
5.68598
20
-4.19311
11
5.68589
21
-4.19304
0
LINE
8
BLACK
6
CONTINUOUS
10
5.68589
20
-4.19304
11
5.68587
21
-4.1929
0
LINE
8
BLACK
6
CONTINUOUS
10
5.68587
20
-4.1929
11
5.68565
21
-4.19248
0
LINE
8
BLACK
6
CONTINUOUS
10
5.68565
20
-4.19248
11
5.68567
21
-4.19176
0
LINE
8
BLACK
6
CONTINUOUS
10
5.68567
20
-4.19176
11
5.68554
21
-4.19105
0
LINE
8
BLACK
6
CONTINUOUS
10
5.68554
20
-4.19105
11
5.6857
21
-4.19078
0
LINE
8
BLACK
6
CONTINUOUS
10
5.6857
20
-4.19078
11
5.68571
21
-4.19046
0
LINE
8
BLACK
6
CONTINUOUS
10
5.68571
20
-4.19046
11
5.68619
21
-4.18993
0
LINE
8
BLACK
6
CONTINUOUS
10
5.68619
20
-4.18993
11
5.68655
21
-4.1893
0
LINE
8
BLACK
6
CONTINUOUS
10
5.68655
20
-4.1893
11
5.68685
21
-4.18919
0
LINE
8
BLACK
6
CONTINUOUS
10
5.68685
20
-4.18919
11
5.68706
21
-4.18896
0
LINE
8
BLACK
6
CONTINUOUS
10
5.68706
20
-4.18896
11
5.68777
21
-4.18886
0
LINE
8
BLACK
6
CONTINUOUS
10
5.68777
20
-4.18886
11
5.68845
21
-4.18861
0
LINE
8
BLACK
6
CONTINUOUS
10
5.68845
20
-4.18861
11
5.70907
21
-4.18861
0
LINE
8
BLACK
6
CONTINUOUS
10
5.70907
20
-4.18861
11
5.71008
21
-4.18879
0
LINE
8
BLACK
6
CONTINUOUS
10
5.79757
20
-4.17556
11
5.7977
21
-4.17553
0
LINE
8
BLACK
6
CONTINUOUS
10
5.7977
20
-4.17553
11
5.79781
21
-4.1756
0
LINE
8
BLACK
6
CONTINUOUS
10
5.79781
20
-4.1756
11
5.7982
21
-4.17567
0
LINE
8
BLACK
6
CONTINUOUS
10
5.7982
20
-4.17567
11
5.79879
21
-4.17616
0
LINE
8
BLACK
6
CONTINUOUS
10
5.79879
20
-4.17616
11
5.79945
21
-4.17654
0
LINE
8
BLACK
6
CONTINUOUS
10
5.79945
20
-4.17654
11
5.79954
21
-4.17679
0
LINE
8
BLACK
6
CONTINUOUS
10
5.79954
20
-4.17679
11
5.79974
21
-4.17696
0
LINE
8
BLACK
6
CONTINUOUS
10
5.79974
20
-4.17696
11
5.79988
21
-4.17772
0
LINE
8
BLACK
6
CONTINUOUS
10
5.79988
20
-4.17772
11
5.80014
21
-4.17844
0
LINE
8
BLACK
6
CONTINUOUS
10
5.80014
20
-4.17844
11
5.80014
21
-4.21781
0
LINE
8
BLACK
6
CONTINUOUS
10
5.80014
20
-4.21781
11
5.80007
21
-4.21819
0
LINE
8
BLACK
6
CONTINUOUS
10
5.80007
20
-4.21819
11
5.8001
21
-4.21832
0
LINE
8
BLACK
6
CONTINUOUS
10
5.8001
20
-4.21832
11
5.80003
21
-4.21844
0
LINE
8
BLACK
6
CONTINUOUS
10
5.80003
20
-4.21844
11
5.79996
21
-4.21882
0
LINE
8
BLACK
6
CONTINUOUS
10
5.79996
20
-4.21882
11
5.79947
21
-4.21941
0
LINE
8
BLACK
6
CONTINUOUS
10
5.79947
20
-4.21941
11
5.79909
21
-4.22007
0
LINE
8
BLACK
6
CONTINUOUS
10
5.79909
20
-4.22007
11
5.79884
21
-4.22016
0
LINE
8
BLACK
6
CONTINUOUS
10
5.79884
20
-4.22016
11
5.79866
21
-4.22037
0
LINE
8
BLACK
6
CONTINUOUS
10
5.79866
20
-4.22037
11
5.79791
21
-4.2205
0
LINE
8
BLACK
6
CONTINUOUS
10
5.79791
20
-4.2205
11
5.79719
21
-4.22076
0
LINE
8
BLACK
6
CONTINUOUS
10
5.79719
20
-4.22076
11
5.78219
21
-4.22076
0
LINE
8
BLACK
6
CONTINUOUS
10
5.78219
20
-4.22076
11
5.78118
21
-4.22058
0
LINE
8
BLACK
6
CONTINUOUS
10
5.78118
20
-4.22058
11
5.78104
21
-4.22047
0
LINE
8
BLACK
6
CONTINUOUS
10
5.78104
20
-4.22047
11
5.78087
21
-4.22045
0
LINE
8
BLACK
6
CONTINUOUS
10
5.78087
20
-4.22045
11
5.77712
21
-4.21858
0
LINE
8
BLACK
6
CONTINUOUS
10
5.77712
20
-4.21858
11
5.77641
21
-4.21805
0
LINE
8
BLACK
6
CONTINUOUS
10
5.77641
20
-4.21805
11
5.77635
21
-4.21802
0
LINE
8
BLACK
6
CONTINUOUS
10
5.77635
20
-4.21802
11
5.77448
21
-4.21615
0
LINE
8
BLACK
6
CONTINUOUS
10
5.77448
20
-4.21615
11
5.77397
21
-4.21543
0
LINE
8
BLACK
6
CONTINUOUS
10
5.77397
20
-4.21543
11
5.77392
21
-4.21538
0
LINE
8
BLACK
6
CONTINUOUS
10
5.77392
20
-4.21538
11
5.77205
21
-4.21163
0
LINE
8
BLACK
6
CONTINUOUS
10
5.77205
20
-4.21163
11
5.77176
21
-4.21065
0
LINE
8
BLACK
6
CONTINUOUS
10
5.77176
20
-4.21065
11
5.7718
21
-4.21048
0
LINE
8
BLACK
6
CONTINUOUS
10
5.7718
20
-4.21048
11
5.77174
21
-4.21031
0
LINE
8
BLACK
6
CONTINUOUS
10
5.77174
20
-4.21031
11
5.77174
21
-4.20469
0
LINE
8
BLACK
6
CONTINUOUS
10
5.77174
20
-4.20469
11
5.77192
21
-4.20368
0
LINE
8
BLACK
6
CONTINUOUS
10
5.77192
20
-4.20368
11
5.77203
21
-4.20354
0
LINE
8
BLACK
6
CONTINUOUS
10
5.77203
20
-4.20354
11
5.77205
21
-4.20337
0
LINE
8
BLACK
6
CONTINUOUS
10
5.77205
20
-4.20337
11
5.77392
21
-4.19962
0
LINE
8
BLACK
6
CONTINUOUS
10
5.77392
20
-4.19962
11
5.77445
21
-4.19891
0
LINE
8
BLACK
6
CONTINUOUS
10
5.77445
20
-4.19891
11
5.77448
21
-4.19885
0
LINE
8
BLACK
6
CONTINUOUS
10
5.77448
20
-4.19885
11
5.77635
21
-4.19697
0
LINE
8
BLACK
6
CONTINUOUS
10
5.77635
20
-4.19697
11
5.77719
21
-4.19639
0
LINE
8
BLACK
6
CONTINUOUS
10
5.77719
20
-4.19639
11
5.77721
21
-4.19638
0
LINE
8
BLACK
6
CONTINUOUS
10
5.77721
20
-4.19638
11
5.77635
21
-4.19553
0
LINE
8
BLACK
6
CONTINUOUS
10
5.77635
20
-4.19553
11
5.77585
21
-4.1948
0
LINE
8
BLACK
6
CONTINUOUS
10
5.77585
20
-4.1948
11
5.7758
21
-4.19476
0
LINE
8
BLACK
6
CONTINUOUS
10
5.7758
20
-4.19476
11
5.77392
21
-4.19101
0
LINE
8
BLACK
6
CONTINUOUS
10
5.77392
20
-4.19101
11
5.77363
21
-4.19003
0
LINE
8
BLACK
6
CONTINUOUS
10
5.77363
20
-4.19003
11
5.77367
21
-4.18985
0
LINE
8
BLACK
6
CONTINUOUS
10
5.77367
20
-4.18985
11
5.77361
21
-4.18969
0
LINE
8
BLACK
6
CONTINUOUS
10
5.77361
20
-4.18969
11
5.77361
21
-4.18594
0
LINE
8
BLACK
6
CONTINUOUS
10
5.77361
20
-4.18594
11
5.77379
21
-4.18493
0
LINE
8
BLACK
6
CONTINUOUS
10
5.77379
20
-4.18493
11
5.7739
21
-4.18479
0
LINE
8
BLACK
6
CONTINUOUS
10
5.7739
20
-4.18479
11
5.77392
21
-4.18462
0
LINE
8
BLACK
6
CONTINUOUS
10
5.77392
20
-4.18462
11
5.7758
21
-4.18087
0
LINE
8
BLACK
6
CONTINUOUS
10
5.7758
20
-4.18087
11
5.77633
21
-4.18016
0
LINE
8
BLACK
6
CONTINUOUS
10
5.77633
20
-4.18016
11
5.77635
21
-4.1801
0
LINE
8
BLACK
6
CONTINUOUS
10
5.77635
20
-4.1801
11
5.77823
21
-4.17823
0
LINE
8
BLACK
6
CONTINUOUS
10
5.77823
20
-4.17823
11
5.77895
21
-4.17772
0
LINE
8
BLACK
6
CONTINUOUS
10
5.77895
20
-4.17772
11
5.77899
21
-4.17767
0
LINE
8
BLACK
6
CONTINUOUS
10
5.77899
20
-4.17767
11
5.78274
21
-4.1758
0
LINE
8
BLACK
6
CONTINUOUS
10
5.78274
20
-4.1758
11
5.78373
21
-4.17551
0
LINE
8
BLACK
6
CONTINUOUS
10
5.78373
20
-4.17551
11
5.7839
21
-4.17555
0
LINE
8
BLACK
6
CONTINUOUS
10
5.7839
20
-4.17555
11
5.78406
21
-4.17549
0
LINE
8
BLACK
6
CONTINUOUS
10
5.78406
20
-4.17549
11
5.79719
21
-4.17549
0
LINE
8
BLACK
6
CONTINUOUS
10
5.79719
20
-4.17549
11
5.79757
21
-4.17556
0
LINE
8
BLACK
6
CONTINUOUS
10
5.78454
20
-4.20014
11
5.78004
21
-4.20164
0
LINE
8
BLACK
6
CONTINUOUS
10
5.78004
20
-4.20164
11
5.77899
21
-4.20269
0
LINE
8
BLACK
6
CONTINUOUS
10
5.77899
20
-4.20269
11
5.77764
21
-4.20538
0
LINE
8
BLACK
6
CONTINUOUS
10
5.77764
20
-4.20538
11
5.77764
21
-4.20961
0
LINE
8
BLACK
6
CONTINUOUS
10
5.77764
20
-4.20961
11
5.77899
21
-4.21231
0
LINE
8
BLACK
6
CONTINUOUS
10
5.77899
20
-4.21231
11
5.78019
21
-4.21351
0
LINE
8
BLACK
6
CONTINUOUS
10
5.78019
20
-4.21351
11
5.78289
21
-4.21486
0
LINE
8
BLACK
6
CONTINUOUS
10
5.78289
20
-4.21486
11
5.79424
21
-4.21486
0
LINE
8
BLACK
6
CONTINUOUS
10
5.79424
20
-4.21486
11
5.79424
21
-4.20014
0
LINE
8
BLACK
6
CONTINUOUS
10
5.79424
20
-4.20014
11
5.78454
21
-4.20014
0
LINE
8
BLACK
6
CONTINUOUS
10
5.78476
20
-4.18139
11
5.78206
21
-4.18274
0
LINE
8
BLACK
6
CONTINUOUS
10
5.78206
20
-4.18274
11
5.78087
21
-4.18394
0
LINE
8
BLACK
6
CONTINUOUS
10
5.78087
20
-4.18394
11
5.77952
21
-4.18664
0
LINE
8
BLACK
6
CONTINUOUS
10
5.77952
20
-4.18664
11
5.77952
21
-4.18899
0
LINE
8
BLACK
6
CONTINUOUS
10
5.77952
20
-4.18899
11
5.78087
21
-4.19169
0
LINE
8
BLACK
6
CONTINUOUS
10
5.78087
20
-4.19169
11
5.78206
21
-4.19289
0
LINE
8
BLACK
6
CONTINUOUS
10
5.78206
20
-4.19289
11
5.78476
21
-4.19424
0
LINE
8
BLACK
6
CONTINUOUS
10
5.78476
20
-4.19424
11
5.79424
21
-4.19424
0
LINE
8
BLACK
6
CONTINUOUS
10
5.79424
20
-4.19424
11
5.79424
21
-4.18139
0
LINE
8
BLACK
6
CONTINUOUS
10
5.79424
20
-4.18139
11
5.78476
21
-4.18139
0
LINE
8
BLACK
6
CONTINUOUS
10
5.7582
20
-4.21118
11
5.75833
21
-4.21115
0
LINE
8
BLACK
6
CONTINUOUS
10
5.75833
20
-4.21115
11
5.75845
21
-4.21122
0
LINE
8
BLACK
6
CONTINUOUS
10
5.75845
20
-4.21122
11
5.75858
21
-4.21121
0
LINE
8
BLACK
6
CONTINUOUS
10
5.75858
20
-4.21121
11
5.75921
21
-4.21165
0
LINE
8
BLACK
6
CONTINUOUS
10
5.75921
20
-4.21165
11
5.75991
21
-4.21197
0
LINE
8
BLACK
6
CONTINUOUS
10
5.75991
20
-4.21197
11
5.76178
21
-4.21385
0
LINE
8
BLACK
6
CONTINUOUS
10
5.76178
20
-4.21385
11
5.762
21
-4.21417
0
LINE
8
BLACK
6
CONTINUOUS
10
5.762
20
-4.21417
11
5.76211
21
-4.21424
0
LINE
8
BLACK
6
CONTINUOUS
10
5.76211
20
-4.21424
11
5.76215
21
-4.21437
0
LINE
8
BLACK
6
CONTINUOUS
10
5.76215
20
-4.21437
11
5.76237
21
-4.21469
0
LINE
8
BLACK
6
CONTINUOUS
10
5.76237
20
-4.21469
11
5.76244
21
-4.21545
0
LINE
8
BLACK
6
CONTINUOUS
10
5.76244
20
-4.21545
11
5.76263
21
-4.21619
0
LINE
8
BLACK
6
CONTINUOUS
10
5.76263
20
-4.21619
11
5.76252
21
-4.21643
0
LINE
8
BLACK
6
CONTINUOUS
10
5.76252
20
-4.21643
11
5.76254
21
-4.2167
0
LINE
8
BLACK
6
CONTINUOUS
10
5.76254
20
-4.2167
11
5.7621
21
-4.21733
0
LINE
8
BLACK
6
CONTINUOUS
10
5.7621
20
-4.21733
11
5.76178
21
-4.21802
0
LINE
8
BLACK
6
CONTINUOUS
10
5.76178
20
-4.21802
11
5.75991
21
-4.2199
0
LINE
8
BLACK
6
CONTINUOUS
10
5.75991
20
-4.2199
11
5.75959
21
-4.22012
0
LINE
8
BLACK
6
CONTINUOUS
10
5.75959
20
-4.22012
11
5.75951
21
-4.22023
0
LINE
8
BLACK
6
CONTINUOUS
10
5.75951
20
-4.22023
11
5.75938
21
-4.22026
0
LINE
8
BLACK
6
CONTINUOUS
10
5.75938
20
-4.22026
11
5.75938
21
-4.22027
0
LINE
8
BLACK
6
CONTINUOUS
10
5.75938
20
-4.22027
11
5.75929
21
-4.22037
0
LINE
8
BLACK
6
CONTINUOUS
10
5.75929
20
-4.22037
11
5.75922
21
-4.22038
0
LINE
8
BLACK
6
CONTINUOUS
10
5.75922
20
-4.22038
11
5.75907
21
-4.22049
0
LINE
8
BLACK
6
CONTINUOUS
10
5.75907
20
-4.22049
11
5.7583
21
-4.22055
0
LINE
8
BLACK
6
CONTINUOUS
10
5.7583
20
-4.22055
11
5.75756
21
-4.22075
0
LINE
8
BLACK
6
CONTINUOUS
10
5.75756
20
-4.22075
11
5.75744
21
-4.22069
0
LINE
8
BLACK
6
CONTINUOUS
10
5.75744
20
-4.22069
11
5.7573
21
-4.22072
0
LINE
8
BLACK
6
CONTINUOUS
10
5.7573
20
-4.22072
11
5.75719
21
-4.22065
0
LINE
8
BLACK
6
CONTINUOUS
10
5.75719
20
-4.22065
11
5.75705
21
-4.22066
0
LINE
8
BLACK
6
CONTINUOUS
10
5.75705
20
-4.22066
11
5.75643
21
-4.22022
0
LINE
8
BLACK
6
CONTINUOUS
10
5.75643
20
-4.22022
11
5.75573
21
-4.2199
0
LINE
8
BLACK
6
CONTINUOUS
10
5.75573
20
-4.2199
11
5.75386
21
-4.21802
0
LINE
8
BLACK
6
CONTINUOUS
10
5.75386
20
-4.21802
11
5.75363
21
-4.2177
0
LINE
8
BLACK
6
CONTINUOUS
10
5.75363
20
-4.2177
11
5.75352
21
-4.21763
0
LINE
8
BLACK
6
CONTINUOUS
10
5.75352
20
-4.21763
11
5.75349
21
-4.2175
0
LINE
8
BLACK
6
CONTINUOUS
10
5.75349
20
-4.2175
11
5.75327
21
-4.21718
0
LINE
8
BLACK
6
CONTINUOUS
10
5.75327
20
-4.21718
11
5.7532
21
-4.21642
0
LINE
8
BLACK
6
CONTINUOUS
10
5.7532
20
-4.21642
11
5.753
21
-4.21568
0
LINE
8
BLACK
6
CONTINUOUS
10
5.753
20
-4.21568
11
5.75311
21
-4.21544
0
LINE
8
BLACK
6
CONTINUOUS
10
5.75311
20
-4.21544
11
5.75309
21
-4.21517
0
LINE
8
BLACK
6
CONTINUOUS
10
5.75309
20
-4.21517
11
5.75353
21
-4.21454
0
LINE
8
BLACK
6
CONTINUOUS
10
5.75353
20
-4.21454
11
5.75386
21
-4.21385
0
LINE
8
BLACK
6
CONTINUOUS
10
5.75386
20
-4.21385
11
5.75573
21
-4.21197
0
LINE
8
BLACK
6
CONTINUOUS
10
5.75573
20
-4.21197
11
5.75605
21
-4.21175
0
LINE
8
BLACK
6
CONTINUOUS
10
5.75605
20
-4.21175
11
5.75612
21
-4.21164
0
LINE
8
BLACK
6
CONTINUOUS
10
5.75612
20
-4.21164
11
5.75625
21
-4.21161
0
LINE
8
BLACK
6
CONTINUOUS
10
5.75625
20
-4.21161
11
5.75626
21
-4.2116
0
LINE
8
BLACK
6
CONTINUOUS
10
5.75626
20
-4.2116
11
5.75634
21
-4.2115
0
LINE
8
BLACK
6
CONTINUOUS
10
5.75634
20
-4.2115
11
5.75642
21
-4.21149
0
LINE
8
BLACK
6
CONTINUOUS
10
5.75642
20
-4.21149
11
5.75657
21
-4.21138
0
LINE
8
BLACK
6
CONTINUOUS
10
5.75657
20
-4.21138
11
5.75733
21
-4.21132
0
LINE
8
BLACK
6
CONTINUOUS
10
5.75733
20
-4.21132
11
5.75808
21
-4.21112
0
LINE
8
BLACK
6
CONTINUOUS
10
5.75808
20
-4.21112
11
5.7582
21
-4.21118
0
LINE
8
BLACK
6
CONTINUOUS
10
5.82392
20
-4.17571
11
5.82484
21
-4.17584
0
LINE
8
BLACK
6
CONTINUOUS
10
5.82484
20
-4.17584
11
5.8249
21
-4.17591
0
LINE
8
BLACK
6
CONTINUOUS
10
5.8249
20
-4.17591
11
5.82498
21
-4.17592
0
LINE
8
BLACK
6
CONTINUOUS
10
5.82498
20
-4.17592
11
5.82556
21
-4.17666
0
LINE
8
BLACK
6
CONTINUOUS
10
5.82556
20
-4.17666
11
5.82618
21
-4.17735
0
LINE
8
BLACK
6
CONTINUOUS
10
5.82618
20
-4.17735
11
5.82618
21
-4.17744
0
LINE
8
BLACK
6
CONTINUOUS
10
5.82618
20
-4.17744
11
5.82624
21
-4.17751
0
LINE
8
BLACK
6
CONTINUOUS
10
5.82624
20
-4.17751
11
5.83936
21
-4.21688
0
LINE
8
BLACK
6
CONTINUOUS
10
5.83936
20
-4.21688
11
5.83951
21
-4.21789
0
LINE
8
BLACK
6
CONTINUOUS
10
5.83951
20
-4.21789
11
5.83877
21
-4.21977
0
LINE
8
BLACK
6
CONTINUOUS
10
5.83877
20
-4.21977
11
5.83699
21
-4.22073
0
LINE
8
BLACK
6
CONTINUOUS
10
5.83699
20
-4.22073
11
5.83501
21
-4.22033
0
LINE
8
BLACK
6
CONTINUOUS
10
5.83501
20
-4.22033
11
5.83376
21
-4.21874
0
LINE
8
BLACK
6
CONTINUOUS
10
5.83376
20
-4.21874
11
5.83068
21
-4.20951
0
LINE
8
BLACK
6
CONTINUOUS
10
5.83068
20
-4.20951
11
5.81619
21
-4.20951
0
LINE
8
BLACK
6
CONTINUOUS
10
5.81619
20
-4.20951
11
5.81311
21
-4.21874
0
LINE
8
BLACK
6
CONTINUOUS
10
5.81311
20
-4.21874
11
5.81262
21
-4.21965
0
LINE
8
BLACK
6
CONTINUOUS
10
5.81262
20
-4.21965
11
5.8109
21
-4.2207
0
LINE
8
BLACK
6
CONTINUOUS
10
5.8109
20
-4.2207
11
5.80891
21
-4.22041
0
LINE
8
BLACK
6
CONTINUOUS
10
5.80891
20
-4.22041
11
5.80757
21
-4.2189
0
LINE
8
BLACK
6
CONTINUOUS
10
5.80757
20
-4.2189
11
5.80751
21
-4.21688
0
LINE
8
BLACK
6
CONTINUOUS
10
5.80751
20
-4.21688
11
5.82063
21
-4.17751
0
LINE
8
BLACK
6
CONTINUOUS
10
5.82063
20
-4.17751
11
5.82112
21
-4.1766
0
LINE
8
BLACK
6
CONTINUOUS
10
5.82112
20
-4.1766
11
5.82119
21
-4.17656
0
LINE
8
BLACK
6
CONTINUOUS
10
5.82119
20
-4.17656
11
5.82123
21
-4.17648
0
LINE
8
BLACK
6
CONTINUOUS
10
5.82123
20
-4.17648
11
5.82205
21
-4.17604
0
LINE
8
BLACK
6
CONTINUOUS
10
5.82205
20
-4.17604
11
5.82284
21
-4.17555
0
LINE
8
BLACK
6
CONTINUOUS
10
5.82284
20
-4.17555
11
5.82293
21
-4.17556
0
LINE
8
BLACK
6
CONTINUOUS
10
5.82293
20
-4.17556
11
5.823
21
-4.17552
0
LINE
8
BLACK
6
CONTINUOUS
10
5.823
20
-4.17552
11
5.82392
21
-4.17571
0
LINE
8
BLACK
6
CONTINUOUS
10
5.81816
20
-4.20361
11
5.82871
21
-4.20361
0
LINE
8
BLACK
6
CONTINUOUS
10
5.82871
20
-4.20361
11
5.82343
21
-4.18778
0
LINE
8
BLACK
6
CONTINUOUS
10
5.82343
20
-4.18778
11
5.81816
21
-4.20361
0
LINE
8
BLACK
6
CONTINUOUS
10
5.90792
20
-4.1756
11
5.90831
21
-4.17553
0
LINE
8
BLACK
6
CONTINUOUS
10
5.90831
20
-4.17553
11
5.90887
21
-4.17585
0
LINE
8
BLACK
6
CONTINUOUS
10
5.90887
20
-4.17585
11
5.90949
21
-4.17602
0
LINE
8
BLACK
6
CONTINUOUS
10
5.90949
20
-4.17602
11
5.90972
21
-4.17635
0
LINE
8
BLACK
6
CONTINUOUS
10
5.90972
20
-4.17635
11
5.91006
21
-4.17654
0
LINE
8
BLACK
6
CONTINUOUS
10
5.91006
20
-4.17654
11
5.91028
21
-4.17715
0
LINE
8
BLACK
6
CONTINUOUS
10
5.91028
20
-4.17715
11
5.91065
21
-4.17768
0
LINE
8
BLACK
6
CONTINUOUS
10
5.91065
20
-4.17768
11
5.91062
21
-4.17807
0
LINE
8
BLACK
6
CONTINUOUS
10
5.91062
20
-4.17807
11
5.91075
21
-4.17844
0
LINE
8
BLACK
6
CONTINUOUS
10
5.91075
20
-4.17844
11
5.91075
21
-4.21781
0
LINE
8
BLACK
6
CONTINUOUS
10
5.91075
20
-4.21781
11
5.91057
21
-4.21882
0
LINE
8
BLACK
6
CONTINUOUS
10
5.91057
20
-4.21882
11
5.90928
21
-4.22037
0
LINE
8
BLACK
6
CONTINUOUS
10
5.90928
20
-4.22037
11
5.90729
21
-4.22072
0
LINE
8
BLACK
6
CONTINUOUS
10
5.90729
20
-4.22072
11
5.90554
21
-4.21971
0
LINE
8
BLACK
6
CONTINUOUS
10
5.90554
20
-4.21971
11
5.90485
21
-4.21781
0
LINE
8
BLACK
6
CONTINUOUS
10
5.90485
20
-4.21781
11
5.90485
21
-4.19175
0
LINE
8
BLACK
6
CONTINUOUS
10
5.90485
20
-4.19175
11
5.89735
21
-4.20781
0
LINE
8
BLACK
6
CONTINUOUS
10
5.89735
20
-4.20781
11
5.89713
21
-4.20813
0
LINE
8
BLACK
6
CONTINUOUS
10
5.89713
20
-4.20813
11
5.89709
21
-4.20825
0
LINE
8
BLACK
6
CONTINUOUS
10
5.89709
20
-4.20825
11
5.89699
21
-4.20833
0
LINE
8
BLACK
6
CONTINUOUS
10
5.89699
20
-4.20833
11
5.89676
21
-4.20865
0
LINE
8
BLACK
6
CONTINUOUS
10
5.89676
20
-4.20865
11
5.89607
21
-4.20897
0
LINE
8
BLACK
6
CONTINUOUS
10
5.89607
20
-4.20897
11
5.89544
21
-4.20941
0
LINE
8
BLACK
6
CONTINUOUS
10
5.89544
20
-4.20941
11
5.89517
21
-4.20939
0
LINE
8
BLACK
6
CONTINUOUS
10
5.89517
20
-4.20939
11
5.89493
21
-4.2095
0
LINE
8
BLACK
6
CONTINUOUS
10
5.89493
20
-4.2095
11
5.89419
21
-4.2093
0
LINE
8
BLACK
6
CONTINUOUS
10
5.89419
20
-4.2093
11
5.89343
21
-4.20924
0
LINE
8
BLACK
6
CONTINUOUS
10
5.89343
20
-4.20924
11
5.89324
21
-4.20905
0
LINE
8
BLACK
6
CONTINUOUS
10
5.89324
20
-4.20905
11
5.89298
21
-4.20898
0
LINE
8
BLACK
6
CONTINUOUS
10
5.89298
20
-4.20898
11
5.89254
21
-4.20835
0
LINE
8
BLACK
6
CONTINUOUS
10
5.89254
20
-4.20835
11
5.892
21
-4.20781
0
LINE
8
BLACK
6
CONTINUOUS
10
5.892
20
-4.20781
11
5.88451
21
-4.19175
0
LINE
8
BLACK
6
CONTINUOUS
10
5.88451
20
-4.19175
11
5.88451
21
-4.21781
0
LINE
8
BLACK
6
CONTINUOUS
10
5.88451
20
-4.21781
11
5.88433
21
-4.21882
0
LINE
8
BLACK
6
CONTINUOUS
10
5.88433
20
-4.21882
11
5.88303
21
-4.22037
0
LINE
8
BLACK
6
CONTINUOUS
10
5.88303
20
-4.22037
11
5.88104
21
-4.22072
0
LINE
8
BLACK
6
CONTINUOUS
10
5.88104
20
-4.22072
11
5.87929
21
-4.21971
0
LINE
8
BLACK
6
CONTINUOUS
10
5.87929
20
-4.21971
11
5.8786
21
-4.21781
0
LINE
8
BLACK
6
CONTINUOUS
10
5.8786
20
-4.21781
11
5.8786
21
-4.17844
0
LINE
8
BLACK
6
CONTINUOUS
10
5.8786
20
-4.17844
11
5.87878
21
-4.17743
0
LINE
8
BLACK
6
CONTINUOUS
10
5.87878
20
-4.17743
11
5.87903
21
-4.17713
0
LINE
8
BLACK
6
CONTINUOUS
10
5.87903
20
-4.17713
11
5.87913
21
-4.17675
0
LINE
8
BLACK
6
CONTINUOUS
10
5.87913
20
-4.17675
11
5.87966
21
-4.17638
0
LINE
8
BLACK
6
CONTINUOUS
10
5.87966
20
-4.17638
11
5.88008
21
-4.17588
0
LINE
8
BLACK
6
CONTINUOUS
10
5.88008
20
-4.17588
11
5.88046
21
-4.17581
0
LINE
8
BLACK
6
CONTINUOUS
10
5.88046
20
-4.17581
11
5.88079
21
-4.17559
0
LINE
8
BLACK
6
CONTINUOUS
10
5.88079
20
-4.17559
11
5.88143
21
-4.17564
0
LINE
8
BLACK
6
CONTINUOUS
10
5.88143
20
-4.17564
11
5.88207
21
-4.17553
0
LINE
8
BLACK
6
CONTINUOUS
10
5.88207
20
-4.17553
11
5.88241
21
-4.17573
0
LINE
8
BLACK
6
CONTINUOUS
10
5.88241
20
-4.17573
11
5.8828
21
-4.17576
0
LINE
8
BLACK
6
CONTINUOUS
10
5.8828
20
-4.17576
11
5.88326
21
-4.17622
0
LINE
8
BLACK
6
CONTINUOUS
10
5.88326
20
-4.17622
11
5.88381
21
-4.17654
0
LINE
8
BLACK
6
CONTINUOUS
10
5.88381
20
-4.17654
11
5.88395
21
-4.17691
0
LINE
8
BLACK
6
CONTINUOUS
10
5.88395
20
-4.17691
11
5.88423
21
-4.17719
0
LINE
8
BLACK
6
CONTINUOUS
10
5.88423
20
-4.17719
11
5.89468
21
-4.19958
0
LINE
8
BLACK
6
CONTINUOUS
10
5.89468
20
-4.19958
11
5.90512
21
-4.17719
0
LINE
8
BLACK
6
CONTINUOUS
10
5.90512
20
-4.17719
11
5.90571
21
-4.17635
0
LINE
8
BLACK
6
CONTINUOUS
10
5.90571
20
-4.17635
11
5.90607
21
-4.17619
0
LINE
8
BLACK
6
CONTINUOUS
10
5.90607
20
-4.17619
11
5.90632
21
-4.17588
0
LINE
8
BLACK
6
CONTINUOUS
10
5.90632
20
-4.17588
11
5.90696
21
-4.17577
0
LINE
8
BLACK
6
CONTINUOUS
10
5.90696
20
-4.17577
11
5.90754
21
-4.1755
0
LINE
8
BLACK
6
CONTINUOUS
10
5.90754
20
-4.1755
11
5.90792
21
-4.1756
0
LINE
8
BLACK
6
CONTINUOUS
10
4.53527
20
-4.17667
11
4.53541
21
-4.17678
0
LINE
8
BLACK
6
CONTINUOUS
10
4.53541
20
-4.17678
11
4.53558
21
-4.1768
0
LINE
8
BLACK
6
CONTINUOUS
10
4.53558
20
-4.1768
11
4.53933
21
-4.17867
0
LINE
8
BLACK
6
CONTINUOUS
10
4.53933
20
-4.17867
11
4.54004
21
-4.1792
0
LINE
8
BLACK
6
CONTINUOUS
10
4.54004
20
-4.1792
11
4.5401
21
-4.17923
0
LINE
8
BLACK
6
CONTINUOUS
10
4.5401
20
-4.17923
11
4.54198
21
-4.1811
0
LINE
8
BLACK
6
CONTINUOUS
10
4.54198
20
-4.1811
11
4.54256
21
-4.18194
0
LINE
8
BLACK
6
CONTINUOUS
10
4.54256
20
-4.18194
11
4.54274
21
-4.18395
0
LINE
8
BLACK
6
CONTINUOUS
10
4.54274
20
-4.18395
11
4.54158
21
-4.18561
0
LINE
8
BLACK
6
CONTINUOUS
10
4.54158
20
-4.18561
11
4.53963
21
-4.18613
0
LINE
8
BLACK
6
CONTINUOUS
10
4.53963
20
-4.18613
11
4.5378
21
-4.18528
0
LINE
8
BLACK
6
CONTINUOUS
10
4.5378
20
-4.18528
11
4.53626
21
-4.18374
0
LINE
8
BLACK
6
CONTINUOUS
10
4.53626
20
-4.18374
11
4.53357
21
-4.18239
0
LINE
8
BLACK
6
CONTINUOUS
10
4.53357
20
-4.18239
11
4.52559
21
-4.18239
0
LINE
8
BLACK
6
CONTINUOUS
10
4.52559
20
-4.18239
11
4.52289
21
-4.18374
0
LINE
8
BLACK
6
CONTINUOUS
10
4.52289
20
-4.18374
11
4.52169
21
-4.18494
0
LINE
8
BLACK
6
CONTINUOUS
10
4.52169
20
-4.18494
11
4.52034
21
-4.18764
0
LINE
8
BLACK
6
CONTINUOUS
10
4.52034
20
-4.18764
11
4.52034
21
-4.19021
0
LINE
8
BLACK
6
CONTINUOUS
10
4.52034
20
-4.19021
11
4.52185
21
-4.19472
0
LINE
8
BLACK
6
CONTINUOUS
10
4.52185
20
-4.19472
11
4.54385
21
-4.21672
0
LINE
8
BLACK
6
CONTINUOUS
10
4.54385
20
-4.21672
11
4.54422
21
-4.21725
0
LINE
8
BLACK
6
CONTINUOUS
10
4.54422
20
-4.21725
11
4.54432
21
-4.21733
0
LINE
8
BLACK
6
CONTINUOUS
10
4.54432
20
-4.21733
11
4.54433
21
-4.21741
0
LINE
8
BLACK
6
CONTINUOUS
10
4.54433
20
-4.21741
11
4.54444
21
-4.21756
0
LINE
8
BLACK
6
CONTINUOUS
10
4.54444
20
-4.21756
11
4.54452
21
-4.21845
0
LINE
8
BLACK
6
CONTINUOUS
10
4.54452
20
-4.21845
11
4.54467
21
-4.21932
0
LINE
8
BLACK
6
CONTINUOUS
10
4.54467
20
-4.21932
11
4.5446
21
-4.21944
0
LINE
8
BLACK
6
CONTINUOUS
10
4.5446
20
-4.21944
11
4.54461
21
-4.21957
0
LINE
8
BLACK
6
CONTINUOUS
10
4.54461
20
-4.21957
11
4.54411
21
-4.2203
0
LINE
8
BLACK
6
CONTINUOUS
10
4.54411
20
-4.2203
11
4.54366
21
-4.22107
0
LINE
8
BLACK
6
CONTINUOUS
10
4.54366
20
-4.22107
11
4.54353
21
-4.22112
0
LINE
8
BLACK
6
CONTINUOUS
10
4.54353
20
-4.22112
11
4.54346
21
-4.22123
0
LINE
8
BLACK
6
CONTINUOUS
10
4.54346
20
-4.22123
11
4.5426
21
-4.22146
0
LINE
8
BLACK
6
CONTINUOUS
10
4.5426
20
-4.22146
11
4.54176
21
-4.22176
0
LINE
8
BLACK
6
CONTINUOUS
10
4.54176
20
-4.22176
11
4.51739
21
-4.22176
0
LINE
8
BLACK
6
CONTINUOUS
10
4.51739
20
-4.22176
11
4.51638
21
-4.22158
0
LINE
8
BLACK
6
CONTINUOUS
10
4.51638
20
-4.22158
11
4.51483
21
-4.22029
0
LINE
8
BLACK
6
CONTINUOUS
10
4.51483
20
-4.22029
11
4.51448
21
-4.2183
0
LINE
8
BLACK
6
CONTINUOUS
10
4.51448
20
-4.2183
11
4.51549
21
-4.21655
0
LINE
8
BLACK
6
CONTINUOUS
10
4.51549
20
-4.21655
11
4.51739
21
-4.21586
0
LINE
8
BLACK
6
CONTINUOUS
10
4.51739
20
-4.21586
11
4.53463
21
-4.21586
0
LINE
8
BLACK
6
CONTINUOUS
10
4.53463
20
-4.21586
11
4.51718
21
-4.1984
0
LINE
8
BLACK
6
CONTINUOUS
10
4.51718
20
-4.1984
11
4.51659
21
-4.19756
0
LINE
8
BLACK
6
CONTINUOUS
10
4.51659
20
-4.19756
11
4.51657
21
-4.19739
0
LINE
8
BLACK
6
CONTINUOUS
10
4.51657
20
-4.19739
11
4.51646
21
-4.19725
0
LINE
8
BLACK
6
CONTINUOUS
10
4.51646
20
-4.19725
11
4.51459
21
-4.19162
0
LINE
8
BLACK
6
CONTINUOUS
10
4.51459
20
-4.19162
11
4.51446
21
-4.19075
0
LINE
8
BLACK
6
CONTINUOUS
10
4.51446
20
-4.19075
11
4.51444
21
-4.19069
0
LINE
8
BLACK
6
CONTINUOUS
10
4.51444
20
-4.19069
11
4.51444
21
-4.18694
0
LINE
8
BLACK
6
CONTINUOUS
10
4.51444
20
-4.18694
11
4.51462
21
-4.18593
0
LINE
8
BLACK
6
CONTINUOUS
10
4.51462
20
-4.18593
11
4.51473
21
-4.18579
0
LINE
8
BLACK
6
CONTINUOUS
10
4.51473
20
-4.18579
11
4.51475
21
-4.18562
0
LINE
8
BLACK
6
CONTINUOUS
10
4.51475
20
-4.18562
11
4.51662
21
-4.18187
0
LINE
8
BLACK
6
CONTINUOUS
10
4.51662
20
-4.18187
11
4.51715
21
-4.18116
0
LINE
8
BLACK
6
CONTINUOUS
10
4.51715
20
-4.18116
11
4.51718
21
-4.1811
0
LINE
8
BLACK
6
CONTINUOUS
10
4.51718
20
-4.1811
11
4.51905
21
-4.17923
0
LINE
8
BLACK
6
CONTINUOUS
10
4.51905
20
-4.17923
11
4.51978
21
-4.17872
0
LINE
8
BLACK
6
CONTINUOUS
10
4.51978
20
-4.17872
11
4.51982
21
-4.17867
0
LINE
8
BLACK
6
CONTINUOUS
10
4.51982
20
-4.17867
11
4.52357
21
-4.1768
0
LINE
8
BLACK
6
CONTINUOUS
10
4.52357
20
-4.1768
11
4.52455
21
-4.17651
0
LINE
8
BLACK
6
CONTINUOUS
10
4.52455
20
-4.17651
11
4.52472
21
-4.17655
0
LINE
8
BLACK
6
CONTINUOUS
10
4.52472
20
-4.17655
11
4.52489
21
-4.17649
0
LINE
8
BLACK
6
CONTINUOUS
10
4.52489
20
-4.17649
11
4.53426
21
-4.17649
0
LINE
8
BLACK
6
CONTINUOUS
10
4.53426
20
-4.17649
11
4.53527
21
-4.17667
0
LINE
8
BLACK
6
CONTINUOUS
10
4.769
20
-4.17754
11
4.76969
21
-4.17944
0
LINE
8
BLACK
6
CONTINUOUS
10
4.76969
20
-4.17944
11
4.76969
21
-4.21881
0
LINE
8
BLACK
6
CONTINUOUS
10
4.76969
20
-4.21881
11
4.76962
21
-4.21919
0
LINE
8
BLACK
6
CONTINUOUS
10
4.76962
20
-4.21919
11
4.76964
21
-4.21932
0
LINE
8
BLACK
6
CONTINUOUS
10
4.76964
20
-4.21932
11
4.76958
21
-4.21944
0
LINE
8
BLACK
6
CONTINUOUS
10
4.76958
20
-4.21944
11
4.76951
21
-4.21982
0
LINE
8
BLACK
6
CONTINUOUS
10
4.76951
20
-4.21982
11
4.76902
21
-4.22041
0
LINE
8
BLACK
6
CONTINUOUS
10
4.76902
20
-4.22041
11
4.76863
21
-4.22107
0
LINE
8
BLACK
6
CONTINUOUS
10
4.76863
20
-4.22107
11
4.76838
21
-4.22116
0
LINE
8
BLACK
6
CONTINUOUS
10
4.76838
20
-4.22116
11
4.76821
21
-4.22137
0
LINE
8
BLACK
6
CONTINUOUS
10
4.76821
20
-4.22137
11
4.76746
21
-4.2215
0
LINE
8
BLACK
6
CONTINUOUS
10
4.76746
20
-4.2215
11
4.76673
21
-4.22176
0
LINE
8
BLACK
6
CONTINUOUS
10
4.76673
20
-4.22176
11
4.74799
21
-4.22176
0
LINE
8
BLACK
6
CONTINUOUS
10
4.74799
20
-4.22176
11
4.74698
21
-4.22158
0
LINE
8
BLACK
6
CONTINUOUS
10
4.74698
20
-4.22158
11
4.74543
21
-4.22029
0
LINE
8
BLACK
6
CONTINUOUS
10
4.74543
20
-4.22029
11
4.74508
21
-4.2183
0
LINE
8
BLACK
6
CONTINUOUS
10
4.74508
20
-4.2183
11
4.74609
21
-4.21655
0
LINE
8
BLACK
6
CONTINUOUS
10
4.74609
20
-4.21655
11
4.74799
21
-4.21586
0
LINE
8
BLACK
6
CONTINUOUS
10
4.74799
20
-4.21586
11
4.76378
21
-4.21586
0
LINE
8
BLACK
6
CONTINUOUS
10
4.76378
20
-4.21586
11
4.76378
21
-4.17944
0
LINE
8
BLACK
6
CONTINUOUS
10
4.76378
20
-4.17944
11
4.76396
21
-4.17843
0
LINE
8
BLACK
6
CONTINUOUS
10
4.76396
20
-4.17843
11
4.76526
21
-4.17688
0
LINE
8
BLACK
6
CONTINUOUS
10
4.76526
20
-4.17688
11
4.76725
21
-4.17653
0
LINE
8
BLACK
6
CONTINUOUS
10
4.76725
20
-4.17653
11
4.769
21
-4.17754
0
LINE
8
BLACK
6
CONTINUOUS
10
4.56902
20
-4.17667
11
4.56915
21
-4.17678
0
LINE
8
BLACK
6
CONTINUOUS
10
4.56915
20
-4.17678
11
4.56933
21
-4.1768
0
LINE
8
BLACK
6
CONTINUOUS
10
4.56933
20
-4.1768
11
4.57308
21
-4.17867
0
LINE
8
BLACK
6
CONTINUOUS
10
4.57308
20
-4.17867
11
4.57379
21
-4.1792
0
LINE
8
BLACK
6
CONTINUOUS
10
4.57379
20
-4.1792
11
4.57385
21
-4.17923
0
LINE
8
BLACK
6
CONTINUOUS
10
4.57385
20
-4.17923
11
4.57572
21
-4.1811
0
LINE
8
BLACK
6
CONTINUOUS
10
4.57572
20
-4.1811
11
4.57623
21
-4.18182
0
LINE
8
BLACK
6
CONTINUOUS
10
4.57623
20
-4.18182
11
4.57627
21
-4.18187
0
LINE
8
BLACK
6
CONTINUOUS
10
4.57627
20
-4.18187
11
4.57815
21
-4.18562
0
LINE
8
BLACK
6
CONTINUOUS
10
4.57815
20
-4.18562
11
4.57829
21
-4.18611
0
LINE
8
BLACK
6
CONTINUOUS
10
4.57829
20
-4.18611
11
4.57837
21
-4.18622
0
LINE
8
BLACK
6
CONTINUOUS
10
4.57837
20
-4.18622
11
4.58025
21
-4.19372
0
LINE
8
BLACK
6
CONTINUOUS
10
4.58025
20
-4.19372
11
4.58029
21
-4.19431
0
LINE
8
BLACK
6
CONTINUOUS
10
4.58029
20
-4.19431
11
4.58034
21
-4.19444
0
LINE
8
BLACK
6
CONTINUOUS
10
4.58034
20
-4.19444
11
4.58034
21
-4.20381
0
LINE
8
BLACK
6
CONTINUOUS
10
4.58034
20
-4.20381
11
4.58023
21
-4.20439
0
LINE
8
BLACK
6
CONTINUOUS
10
4.58023
20
-4.20439
11
4.58025
21
-4.20453
0
LINE
8
BLACK
6
CONTINUOUS
10
4.58025
20
-4.20453
11
4.57837
21
-4.21203
0
LINE
8
BLACK
6
CONTINUOUS
10
4.57837
20
-4.21203
11
4.57817
21
-4.21249
0
LINE
8
BLACK
6
CONTINUOUS
10
4.57817
20
-4.21249
11
4.57815
21
-4.21263
0
LINE
8
BLACK
6
CONTINUOUS
10
4.57815
20
-4.21263
11
4.57627
21
-4.21638
0
LINE
8
BLACK
6
CONTINUOUS
10
4.57627
20
-4.21638
11
4.57575
21
-4.21709
0
LINE
8
BLACK
6
CONTINUOUS
10
4.57575
20
-4.21709
11
4.57572
21
-4.21715
0
LINE
8
BLACK
6
CONTINUOUS
10
4.57572
20
-4.21715
11
4.57385
21
-4.21902
0
LINE
8
BLACK
6
CONTINUOUS
10
4.57385
20
-4.21902
11
4.57312
21
-4.21953
0
LINE
8
BLACK
6
CONTINUOUS
10
4.57312
20
-4.21953
11
4.57308
21
-4.21958
0
LINE
8
BLACK
6
CONTINUOUS
10
4.57308
20
-4.21958
11
4.56933
21
-4.22145
0
LINE
8
BLACK
6
CONTINUOUS
10
4.56933
20
-4.22145
11
4.56835
21
-4.22174
0
LINE
8
BLACK
6
CONTINUOUS
10
4.56835
20
-4.22174
11
4.56818
21
-4.2217
0
LINE
8
BLACK
6
CONTINUOUS
10
4.56818
20
-4.2217
11
4.56801
21
-4.22176
0
LINE
8
BLACK
6
CONTINUOUS
10
4.56801
20
-4.22176
11
4.56426
21
-4.22176
0
LINE
8
BLACK
6
CONTINUOUS
10
4.56426
20
-4.22176
11
4.56325
21
-4.22158
0
LINE
8
BLACK
6
CONTINUOUS
10
4.56325
20
-4.22158
11
4.56311
21
-4.22147
0
LINE
8
BLACK
6
CONTINUOUS
10
4.56311
20
-4.22147
11
4.56294
21
-4.22145
0
LINE
8
BLACK
6
CONTINUOUS
10
4.56294
20
-4.22145
11
4.55919
21
-4.21958
0
LINE
8
BLACK
6
CONTINUOUS
10
4.55919
20
-4.21958
11
4.55848
21
-4.21905
0
LINE
8
BLACK
6
CONTINUOUS
10
4.55848
20
-4.21905
11
4.55842
21
-4.21902
0
LINE
8
BLACK
6
CONTINUOUS
10
4.55842
20
-4.21902
11
4.55655
21
-4.21715
0
LINE
8
BLACK
6
CONTINUOUS
10
4.55655
20
-4.21715
11
4.55604
21
-4.21643
0
LINE
8
BLACK
6
CONTINUOUS
10
4.55604
20
-4.21643
11
4.55599
21
-4.21638
0
LINE
8
BLACK
6
CONTINUOUS
10
4.55599
20
-4.21638
11
4.55412
21
-4.21263
0
LINE
8
BLACK
6
CONTINUOUS
10
4.55412
20
-4.21263
11
4.55397
21
-4.21214
0
LINE
8
BLACK
6
CONTINUOUS
10
4.55397
20
-4.21214
11
4.5539
21
-4.21203
0
LINE
8
BLACK
6
CONTINUOUS
10
4.5539
20
-4.21203
11
4.55202
21
-4.20453
0
LINE
8
BLACK
6
CONTINUOUS
10
4.55202
20
-4.20453
11
4.55198
21
-4.20394
0
LINE
8
BLACK
6
CONTINUOUS
10
4.55198
20
-4.20394
11
4.55193
21
-4.20381
0
LINE
8
BLACK
6
CONTINUOUS
10
4.55193
20
-4.20381
11
4.55193
21
-4.19444
0
LINE
8
BLACK
6
CONTINUOUS
10
4.55193
20
-4.19444
11
4.55204
21
-4.19386
0
LINE
8
BLACK
6
CONTINUOUS
10
4.55204
20
-4.19386
11
4.55202
21
-4.19372
0
LINE
8
BLACK
6
CONTINUOUS
10
4.55202
20
-4.19372
11
4.5539
21
-4.18622
0
LINE
8
BLACK
6
CONTINUOUS
10
4.5539
20
-4.18622
11
4.5541
21
-4.18576
0
LINE
8
BLACK
6
CONTINUOUS
10
4.5541
20
-4.18576
11
4.55412
21
-4.18562
0
LINE
8
BLACK
6
CONTINUOUS
10
4.55412
20
-4.18562
11
4.55599
21
-4.18187
0
LINE
8
BLACK
6
CONTINUOUS
10
4.55599
20
-4.18187
11
4.55652
21
-4.18116
0
LINE
8
BLACK
6
CONTINUOUS
10
4.55652
20
-4.18116
11
4.55655
21
-4.1811
0
LINE
8
BLACK
6
CONTINUOUS
10
4.55655
20
-4.1811
11
4.55842
21
-4.17923
0
LINE
8
BLACK
6
CONTINUOUS
10
4.55842
20
-4.17923
11
4.55915
21
-4.17872
0
LINE
8
BLACK
6
CONTINUOUS
10
4.55915
20
-4.17872
11
4.55919
21
-4.17867
0
LINE
8
BLACK
6
CONTINUOUS
10
4.55919
20
-4.17867
11
4.56294
21
-4.1768
0
LINE
8
BLACK
6
CONTINUOUS
10
4.56294
20
-4.1768
11
4.56392
21
-4.17651
0
LINE
8
BLACK
6
CONTINUOUS
10
4.56392
20
-4.17651
11
4.56409
21
-4.17655
0
LINE
8
BLACK
6
CONTINUOUS
10
4.56409
20
-4.17655
11
4.56426
21
-4.17649
0
LINE
8
BLACK
6
CONTINUOUS
10
4.56426
20
-4.17649
11
4.56801
21
-4.17649
0
LINE
8
BLACK
6
CONTINUOUS
10
4.56801
20
-4.17649
11
4.56902
21
-4.17667
0
LINE
8
BLACK
6
CONTINUOUS
10
4.56496
20
-4.18239
11
4.56226
21
-4.18374
0
LINE
8
BLACK
6
CONTINUOUS
10
4.56226
20
-4.18374
11
4.56106
21
-4.18494
0
LINE
8
BLACK
6
CONTINUOUS
10
4.56106
20
-4.18494
11
4.55955
21
-4.18797
0
LINE
8
BLACK
6
CONTINUOUS
10
4.55955
20
-4.18797
11
4.55784
21
-4.1948
0
LINE
8
BLACK
6
CONTINUOUS
10
4.55784
20
-4.1948
11
4.55784
21
-4.20345
0
LINE
8
BLACK
6
CONTINUOUS
10
4.55784
20
-4.20345
11
4.55955
21
-4.21028
0
LINE
8
BLACK
6
CONTINUOUS
10
4.55955
20
-4.21028
11
4.56106
21
-4.21331
0
LINE
8
BLACK
6
CONTINUOUS
10
4.56106
20
-4.21331
11
4.56226
21
-4.21451
0
LINE
8
BLACK
6
CONTINUOUS
10
4.56226
20
-4.21451
11
4.56496
21
-4.21586
0
LINE
8
BLACK
6
CONTINUOUS
10
4.56496
20
-4.21586
11
4.56731
21
-4.21586
0
LINE
8
BLACK
6
CONTINUOUS
10
4.56731
20
-4.21586
11
4.57001
21
-4.21451
0
LINE
8
BLACK
6
CONTINUOUS
10
4.57001
20
-4.21451
11
4.57121
21
-4.21331
0
LINE
8
BLACK
6
CONTINUOUS
10
4.57121
20
-4.21331
11
4.57272
21
-4.21028
0
LINE
8
BLACK
6
CONTINUOUS
10
4.57272
20
-4.21028
11
4.57443
21
-4.20345
0
LINE
8
BLACK
6
CONTINUOUS
10
4.57443
20
-4.20345
11
4.57443
21
-4.1948
0
LINE
8
BLACK
6
CONTINUOUS
10
4.57443
20
-4.1948
11
4.57272
21
-4.18797
0
LINE
8
BLACK
6
CONTINUOUS
10
4.57272
20
-4.18797
11
4.57121
21
-4.18494
0
LINE
8
BLACK
6
CONTINUOUS
10
4.57121
20
-4.18494
11
4.57001
21
-4.18374
0
LINE
8
BLACK
6
CONTINUOUS
10
4.57001
20
-4.18374
11
4.56731
21
-4.18239
0
LINE
8
BLACK
6
CONTINUOUS
10
4.56731
20
-4.18239
11
4.56496
21
-4.18239
0
LINE
8
BLACK
6
CONTINUOUS
10
4.64151
20
-4.17656
11
4.64164
21
-4.17653
0
LINE
8
BLACK
6
CONTINUOUS
10
4.64164
20
-4.17653
11
4.64175
21
-4.1766
0
LINE
8
BLACK
6
CONTINUOUS
10
4.64175
20
-4.1766
11
4.64214
21
-4.17667
0
LINE
8
BLACK
6
CONTINUOUS
10
4.64214
20
-4.17667
11
4.64272
21
-4.17716
0
LINE
8
BLACK
6
CONTINUOUS
10
4.64272
20
-4.17716
11
4.64339
21
-4.17754
0
LINE
8
BLACK
6
CONTINUOUS
10
4.64339
20
-4.17754
11
4.64348
21
-4.17779
0
LINE
8
BLACK
6
CONTINUOUS
10
4.64348
20
-4.17779
11
4.64368
21
-4.17796
0
LINE
8
BLACK
6
CONTINUOUS
10
4.64368
20
-4.17796
11
4.64382
21
-4.17872
0
LINE
8
BLACK
6
CONTINUOUS
10
4.64382
20
-4.17872
11
4.64408
21
-4.17944
0
LINE
8
BLACK
6
CONTINUOUS
10
4.64408
20
-4.17944
11
4.64408
21
-4.21881
0
LINE
8
BLACK
6
CONTINUOUS
10
4.64408
20
-4.21881
11
4.64401
21
-4.21919
0
LINE
8
BLACK
6
CONTINUOUS
10
4.64401
20
-4.21919
11
4.64403
21
-4.21932
0
LINE
8
BLACK
6
CONTINUOUS
10
4.64403
20
-4.21932
11
4.64397
21
-4.21944
0
LINE
8
BLACK
6
CONTINUOUS
10
4.64397
20
-4.21944
11
4.6439
21
-4.21982
0
LINE
8
BLACK
6
CONTINUOUS
10
4.6439
20
-4.21982
11
4.64341
21
-4.22041
0
LINE
8
BLACK
6
CONTINUOUS
10
4.64341
20
-4.22041
11
4.64302
21
-4.22107
0
LINE
8
BLACK
6
CONTINUOUS
10
4.64302
20
-4.22107
11
4.64277
21
-4.22116
0
LINE
8
BLACK
6
CONTINUOUS
10
4.64277
20
-4.22116
11
4.6426
21
-4.22137
0
LINE
8
BLACK
6
CONTINUOUS
10
4.6426
20
-4.22137
11
4.64185
21
-4.2215
0
LINE
8
BLACK
6
CONTINUOUS
10
4.64185
20
-4.2215
11
4.64113
21
-4.22176
0
LINE
8
BLACK
6
CONTINUOUS
10
4.64113
20
-4.22176
11
4.62238
21
-4.22176
0
LINE
8
BLACK
6
CONTINUOUS
10
4.62238
20
-4.22176
11
4.62137
21
-4.22158
0
LINE
8
BLACK
6
CONTINUOUS
10
4.62137
20
-4.22158
11
4.61982
21
-4.22029
0
LINE
8
BLACK
6
CONTINUOUS
10
4.61982
20
-4.22029
11
4.61947
21
-4.2183
0
LINE
8
BLACK
6
CONTINUOUS
10
4.61947
20
-4.2183
11
4.62048
21
-4.21655
0
LINE
8
BLACK
6
CONTINUOUS
10
4.62048
20
-4.21655
11
4.62238
21
-4.21586
0
LINE
8
BLACK
6
CONTINUOUS
10
4.62238
20
-4.21586
11
4.63817
21
-4.21586
0
LINE
8
BLACK
6
CONTINUOUS
10
4.63817
20
-4.21586
11
4.63817
21
-4.20114
0
LINE
8
BLACK
6
CONTINUOUS
10
4.63817
20
-4.20114
11
4.628
21
-4.20114
0
LINE
8
BLACK
6
CONTINUOUS
10
4.628
20
-4.20114
11
4.62699
21
-4.20096
0
LINE
8
BLACK
6
CONTINUOUS
10
4.62699
20
-4.20096
11
4.62544
21
-4.19966
0
LINE
8
BLACK
6
CONTINUOUS
10
4.62544
20
-4.19966
11
4.62509
21
-4.19768
0
LINE
8
BLACK
6
CONTINUOUS
10
4.62509
20
-4.19768
11
4.6261
21
-4.19593
0
LINE
8
BLACK
6
CONTINUOUS
10
4.6261
20
-4.19593
11
4.628
21
-4.19524
0
LINE
8
BLACK
6
CONTINUOUS
10
4.628
20
-4.19524
11
4.63817
21
-4.19524
0
LINE
8
BLACK
6
CONTINUOUS
10
4.63817
20
-4.19524
11
4.63817
21
-4.18239
0
LINE
8
BLACK
6
CONTINUOUS
10
4.63817
20
-4.18239
11
4.62238
21
-4.18239
0
LINE
8
BLACK
6
CONTINUOUS
10
4.62238
20
-4.18239
11
4.62137
21
-4.18221
0
LINE
8
BLACK
6
CONTINUOUS
10
4.62137
20
-4.18221
11
4.61982
21
-4.18092
0
LINE
8
BLACK
6
CONTINUOUS
10
4.61982
20
-4.18092
11
4.61947
21
-4.17893
0
LINE
8
BLACK
6
CONTINUOUS
10
4.61947
20
-4.17893
11
4.62048
21
-4.17718
0
LINE
8
BLACK
6
CONTINUOUS
10
4.62048
20
-4.17718
11
4.62238
21
-4.17649
0
LINE
8
BLACK
6
CONTINUOUS
10
4.62238
20
-4.17649
11
4.64113
21
-4.17649
0
LINE
8
BLACK
6
CONTINUOUS
10
4.64113
20
-4.17649
11
4.64151
21
-4.17656
0
LINE
8
BLACK
6
CONTINUOUS
10
4.79346
20
-4.17671
11
4.79439
21
-4.17684
0
LINE
8
BLACK
6
CONTINUOUS
10
4.79439
20
-4.17684
11
4.79444
21
-4.17691
0
LINE
8
BLACK
6
CONTINUOUS
10
4.79444
20
-4.17691
11
4.79453
21
-4.17692
0
LINE
8
BLACK
6
CONTINUOUS
10
4.79453
20
-4.17692
11
4.79511
21
-4.17766
0
LINE
8
BLACK
6
CONTINUOUS
10
4.79511
20
-4.17766
11
4.79573
21
-4.17835
0
LINE
8
BLACK
6
CONTINUOUS
10
4.79573
20
-4.17835
11
4.79573
21
-4.17844
0
LINE
8
BLACK
6
CONTINUOUS
10
4.79573
20
-4.17844
11
4.79578
21
-4.17851
0
LINE
8
BLACK
6
CONTINUOUS
10
4.79578
20
-4.17851
11
4.80891
21
-4.21788
0
LINE
8
BLACK
6
CONTINUOUS
10
4.80891
20
-4.21788
11
4.80906
21
-4.21889
0
LINE
8
BLACK
6
CONTINUOUS
10
4.80906
20
-4.21889
11
4.80831
21
-4.22077
0
LINE
8
BLACK
6
CONTINUOUS
10
4.80831
20
-4.22077
11
4.80654
21
-4.22173
0
LINE
8
BLACK
6
CONTINUOUS
10
4.80654
20
-4.22173
11
4.80456
21
-4.22133
0
LINE
8
BLACK
6
CONTINUOUS
10
4.80456
20
-4.22133
11
4.8033
21
-4.21974
0
LINE
8
BLACK
6
CONTINUOUS
10
4.8033
20
-4.21974
11
4.80023
21
-4.21051
0
LINE
8
BLACK
6
CONTINUOUS
10
4.80023
20
-4.21051
11
4.78574
21
-4.21051
0
LINE
8
BLACK
6
CONTINUOUS
10
4.78574
20
-4.21051
11
4.78266
21
-4.21974
0
LINE
8
BLACK
6
CONTINUOUS
10
4.78266
20
-4.21974
11
4.78217
21
-4.22065
0
LINE
8
BLACK
6
CONTINUOUS
10
4.78217
20
-4.22065
11
4.78045
21
-4.2217
0
LINE
8
BLACK
6
CONTINUOUS
10
4.78045
20
-4.2217
11
4.77845
21
-4.22141
0
LINE
8
BLACK
6
CONTINUOUS
10
4.77845
20
-4.22141
11
4.77711
21
-4.2199
0
LINE
8
BLACK
6
CONTINUOUS
10
4.77711
20
-4.2199
11
4.77706
21
-4.21788
0
LINE
8
BLACK
6
CONTINUOUS
10
4.77706
20
-4.21788
11
4.79018
21
-4.17851
0
LINE
8
BLACK
6
CONTINUOUS
10
4.79018
20
-4.17851
11
4.79067
21
-4.1776
0
LINE
8
BLACK
6
CONTINUOUS
10
4.79067
20
-4.1776
11
4.79074
21
-4.17756
0
LINE
8
BLACK
6
CONTINUOUS
10
4.79074
20
-4.17756
11
4.79077
21
-4.17748
0
LINE
8
BLACK
6
CONTINUOUS
10
4.79077
20
-4.17748
11
4.79159
21
-4.17704
0
LINE
8
BLACK
6
CONTINUOUS
10
4.79159
20
-4.17704
11
4.79239
21
-4.17655
0
LINE
8
BLACK
6
CONTINUOUS
10
4.79239
20
-4.17655
11
4.79247
21
-4.17656
0
LINE
8
BLACK
6
CONTINUOUS
10
4.79247
20
-4.17656
11
4.79255
21
-4.17652
0
LINE
8
BLACK
6
CONTINUOUS
10
4.79255
20
-4.17652
11
4.79346
21
-4.17671
0
LINE
8
BLACK
6
CONTINUOUS
10
4.7877
20
-4.20461
11
4.79826
21
-4.20461
0
LINE
8
BLACK
6
CONTINUOUS
10
4.79826
20
-4.20461
11
4.79298
21
-4.18878
0
LINE
8
BLACK
6
CONTINUOUS
10
4.79298
20
-4.18878
11
4.7877
21
-4.20461
0
LINE
8
BLACK
6
CONTINUOUS
10
4.4935
20
-4.17671
11
4.49442
21
-4.17684
0
LINE
8
BLACK
6
CONTINUOUS
10
4.49442
20
-4.17684
11
4.49448
21
-4.17691
0
LINE
8
BLACK
6
CONTINUOUS
10
4.49448
20
-4.17691
11
4.49456
21
-4.17692
0
LINE
8
BLACK
6
CONTINUOUS
10
4.49456
20
-4.17692
11
4.49514
21
-4.17766
0
LINE
8
BLACK
6
CONTINUOUS
10
4.49514
20
-4.17766
11
4.49576
21
-4.17835
0
LINE
8
BLACK
6
CONTINUOUS
10
4.49576
20
-4.17835
11
4.49577
21
-4.17844
0
LINE
8
BLACK
6
CONTINUOUS
10
4.49577
20
-4.17844
11
4.49582
21
-4.17851
0
LINE
8
BLACK
6
CONTINUOUS
10
4.49582
20
-4.17851
11
4.50894
21
-4.21788
0
LINE
8
BLACK
6
CONTINUOUS
10
4.50894
20
-4.21788
11
4.50909
21
-4.21889
0
LINE
8
BLACK
6
CONTINUOUS
10
4.50909
20
-4.21889
11
4.50835
21
-4.22077
0
LINE
8
BLACK
6
CONTINUOUS
10
4.50835
20
-4.22077
11
4.50658
21
-4.22173
0
LINE
8
BLACK
6
CONTINUOUS
10
4.50658
20
-4.22173
11
4.5046
21
-4.22133
0
LINE
8
BLACK
6
CONTINUOUS
10
4.5046
20
-4.22133
11
4.50334
21
-4.21974
0
LINE
8
BLACK
6
CONTINUOUS
10
4.50334
20
-4.21974
11
4.50026
21
-4.21051
0
LINE
8
BLACK
6
CONTINUOUS
10
4.50026
20
-4.21051
11
4.48577
21
-4.21051
0
LINE
8
BLACK
6
CONTINUOUS
10
4.48577
20
-4.21051
11
4.4827
21
-4.21974
0
LINE
8
BLACK
6
CONTINUOUS
10
4.4827
20
-4.21974
11
4.48221
21
-4.22065
0
LINE
8
BLACK
6
CONTINUOUS
10
4.48221
20
-4.22065
11
4.48049
21
-4.2217
0
LINE
8
BLACK
6
CONTINUOUS
10
4.48049
20
-4.2217
11
4.47849
21
-4.22141
0
LINE
8
BLACK
6
CONTINUOUS
10
4.47849
20
-4.22141
11
4.47715
21
-4.2199
0
LINE
8
BLACK
6
CONTINUOUS
10
4.47715
20
-4.2199
11
4.47709
21
-4.21788
0
LINE
8
BLACK
6
CONTINUOUS
10
4.47709
20
-4.21788
11
4.49022
21
-4.17851
0
LINE
8
BLACK
6
CONTINUOUS
10
4.49022
20
-4.17851
11
4.49071
21
-4.1776
0
LINE
8
BLACK
6
CONTINUOUS
10
4.49071
20
-4.1776
11
4.49078
21
-4.17756
0
LINE
8
BLACK
6
CONTINUOUS
10
4.49078
20
-4.17756
11
4.49081
21
-4.17748
0
LINE
8
BLACK
6
CONTINUOUS
10
4.49081
20
-4.17748
11
4.49163
21
-4.17704
0
LINE
8
BLACK
6
CONTINUOUS
10
4.49163
20
-4.17704
11
4.49243
21
-4.17655
0
LINE
8
BLACK
6
CONTINUOUS
10
4.49243
20
-4.17655
11
4.49251
21
-4.17656
0
LINE
8
BLACK
6
CONTINUOUS
10
4.49251
20
-4.17656
11
4.49259
21
-4.17652
0
LINE
8
BLACK
6
CONTINUOUS
10
4.49259
20
-4.17652
11
4.4935
21
-4.17671
0
LINE
8
BLACK
6
CONTINUOUS
10
4.48774
20
-4.20461
11
4.4983
21
-4.20461
0
LINE
8
BLACK
6
CONTINUOUS
10
4.4983
20
-4.20461
11
4.49302
21
-4.18878
0
LINE
8
BLACK
6
CONTINUOUS
10
4.49302
20
-4.18878
11
4.48774
21
-4.20461
0
LINE
8
BLACK
6
CONTINUOUS
10
4.68624
20
-4.1766
11
4.68663
21
-4.17653
0
LINE
8
BLACK
6
CONTINUOUS
10
4.68663
20
-4.17653
11
4.68719
21
-4.17685
0
LINE
8
BLACK
6
CONTINUOUS
10
4.68719
20
-4.17685
11
4.68781
21
-4.17702
0
LINE
8
BLACK
6
CONTINUOUS
10
4.68781
20
-4.17702
11
4.68804
21
-4.17735
0
LINE
8
BLACK
6
CONTINUOUS
10
4.68804
20
-4.17735
11
4.68838
21
-4.17754
0
LINE
8
BLACK
6
CONTINUOUS
10
4.68838
20
-4.17754
11
4.6886
21
-4.17815
0
LINE
8
BLACK
6
CONTINUOUS
10
4.6886
20
-4.17815
11
4.68897
21
-4.17868
0
LINE
8
BLACK
6
CONTINUOUS
10
4.68897
20
-4.17868
11
4.68894
21
-4.17907
0
LINE
8
BLACK
6
CONTINUOUS
10
4.68894
20
-4.17907
11
4.68907
21
-4.17944
0
LINE
8
BLACK
6
CONTINUOUS
10
4.68907
20
-4.17944
11
4.68907
21
-4.21881
0
LINE
8
BLACK
6
CONTINUOUS
10
4.68907
20
-4.21881
11
4.68889
21
-4.21982
0
LINE
8
BLACK
6
CONTINUOUS
10
4.68889
20
-4.21982
11
4.6876
21
-4.22137
0
LINE
8
BLACK
6
CONTINUOUS
10
4.6876
20
-4.22137
11
4.68561
21
-4.22172
0
LINE
8
BLACK
6
CONTINUOUS
10
4.68561
20
-4.22172
11
4.68386
21
-4.22071
0
LINE
8
BLACK
6
CONTINUOUS
10
4.68386
20
-4.22071
11
4.68317
21
-4.21881
0
LINE
8
BLACK
6
CONTINUOUS
10
4.68317
20
-4.21881
11
4.68317
21
-4.19275
0
LINE
8
BLACK
6
CONTINUOUS
10
4.68317
20
-4.19275
11
4.67567
21
-4.20881
0
LINE
8
BLACK
6
CONTINUOUS
10
4.67567
20
-4.20881
11
4.67545
21
-4.20913
0
LINE
8
BLACK
6
CONTINUOUS
10
4.67545
20
-4.20913
11
4.67542
21
-4.20925
0
LINE
8
BLACK
6
CONTINUOUS
10
4.67542
20
-4.20925
11
4.67531
21
-4.20933
0
LINE
8
BLACK
6
CONTINUOUS
10
4.67531
20
-4.20933
11
4.67508
21
-4.20965
0
LINE
8
BLACK
6
CONTINUOUS
10
4.67508
20
-4.20965
11
4.67439
21
-4.20997
0
LINE
8
BLACK
6
CONTINUOUS
10
4.67439
20
-4.20997
11
4.67376
21
-4.21041
0
LINE
8
BLACK
6
CONTINUOUS
10
4.67376
20
-4.21041
11
4.67349
21
-4.21039
0
LINE
8
BLACK
6
CONTINUOUS
10
4.67349
20
-4.21039
11
4.67325
21
-4.2105
0
LINE
8
BLACK
6
CONTINUOUS
10
4.67325
20
-4.2105
11
4.67251
21
-4.2103
0
LINE
8
BLACK
6
CONTINUOUS
10
4.67251
20
-4.2103
11
4.67175
21
-4.21024
0
LINE
8
BLACK
6
CONTINUOUS
10
4.67175
20
-4.21024
11
4.67156
21
-4.21005
0
LINE
8
BLACK
6
CONTINUOUS
10
4.67156
20
-4.21005
11
4.6713
21
-4.20998
0
LINE
8
BLACK
6
CONTINUOUS
10
4.6713
20
-4.20998
11
4.67086
21
-4.20935
0
LINE
8
BLACK
6
CONTINUOUS
10
4.67086
20
-4.20935
11
4.67032
21
-4.20881
0
LINE
8
BLACK
6
CONTINUOUS
10
4.67032
20
-4.20881
11
4.66283
21
-4.19275
0
LINE
8
BLACK
6
CONTINUOUS
10
4.66283
20
-4.19275
11
4.66283
21
-4.21881
0
LINE
8
BLACK
6
CONTINUOUS
10
4.66283
20
-4.21881
11
4.66265
21
-4.21982
0
LINE
8
BLACK
6
CONTINUOUS
10
4.66265
20
-4.21982
11
4.66135
21
-4.22137
0
LINE
8
BLACK
6
CONTINUOUS
10
4.66135
20
-4.22137
11
4.65936
21
-4.22172
0
LINE
8
BLACK
6
CONTINUOUS
10
4.65936
20
-4.22172
11
4.65761
21
-4.22071
0
LINE
8
BLACK
6
CONTINUOUS
10
4.65761
20
-4.22071
11
4.65692
21
-4.21881
0
LINE
8
BLACK
6
CONTINUOUS
10
4.65692
20
-4.21881
11
4.65692
21
-4.17944
0
LINE
8
BLACK
6
CONTINUOUS
10
4.65692
20
-4.17944
11
4.6571
21
-4.17843
0
LINE
8
BLACK
6
CONTINUOUS
10
4.6571
20
-4.17843
11
4.65735
21
-4.17813
0
LINE
8
BLACK
6
CONTINUOUS
10
4.65735
20
-4.17813
11
4.65745
21
-4.17775
0
LINE
8
BLACK
6
CONTINUOUS
10
4.65745
20
-4.17775
11
4.65798
21
-4.17738
0
LINE
8
BLACK
6
CONTINUOUS
10
4.65798
20
-4.17738
11
4.6584
21
-4.17688
0
LINE
8
BLACK
6
CONTINUOUS
10
4.6584
20
-4.17688
11
4.65878
21
-4.17681
0
LINE
8
BLACK
6
CONTINUOUS
10
4.65878
20
-4.17681
11
4.65911
21
-4.17659
0
LINE
8
BLACK
6
CONTINUOUS
10
4.65911
20
-4.17659
11
4.65975
21
-4.17664
0
LINE
8
BLACK
6
CONTINUOUS
10
4.65975
20
-4.17664
11
4.66039
21
-4.17653
0
LINE
8
BLACK
6
CONTINUOUS
10
4.66039
20
-4.17653
11
4.66073
21
-4.17673
0
LINE
8
BLACK
6
CONTINUOUS
10
4.66073
20
-4.17673
11
4.66112
21
-4.17676
0
LINE
8
BLACK
6
CONTINUOUS
10
4.66112
20
-4.17676
11
4.66158
21
-4.17722
0
LINE
8
BLACK
6
CONTINUOUS
10
4.66158
20
-4.17722
11
4.66213
21
-4.17754
0
LINE
8
BLACK
6
CONTINUOUS
10
4.66213
20
-4.17754
11
4.66227
21
-4.17791
0
LINE
8
BLACK
6
CONTINUOUS
10
4.66227
20
-4.17791
11
4.66255
21
-4.17819
0
LINE
8
BLACK
6
CONTINUOUS
10
4.66255
20
-4.17819
11
4.673
21
-4.20058
0
LINE
8
BLACK
6
CONTINUOUS
10
4.673
20
-4.20058
11
4.68344
21
-4.17819
0
LINE
8
BLACK
6
CONTINUOUS
10
4.68344
20
-4.17819
11
4.68403
21
-4.17735
0
LINE
8
BLACK
6
CONTINUOUS
10
4.68403
20
-4.17735
11
4.68439
21
-4.17719
0
LINE
8
BLACK
6
CONTINUOUS
10
4.68439
20
-4.17719
11
4.68464
21
-4.17688
0
LINE
8
BLACK
6
CONTINUOUS
10
4.68464
20
-4.17688
11
4.68528
21
-4.17677
0
LINE
8
BLACK
6
CONTINUOUS
10
4.68528
20
-4.17677
11
4.68586
21
-4.1765
0
LINE
8
BLACK
6
CONTINUOUS
10
4.68586
20
-4.1765
11
4.68624
21
-4.1766
0
LINE
8
BLACK
6
CONTINUOUS
10
4.70713
20
-4.17754
11
4.70782
21
-4.17944
0
LINE
8
BLACK
6
CONTINUOUS
10
4.70782
20
-4.17944
11
4.70782
21
-4.21881
0
LINE
8
BLACK
6
CONTINUOUS
10
4.70782
20
-4.21881
11
4.70764
21
-4.21982
0
LINE
8
BLACK
6
CONTINUOUS
10
4.70764
20
-4.21982
11
4.70634
21
-4.22137
0
LINE
8
BLACK
6
CONTINUOUS
10
4.70634
20
-4.22137
11
4.70435
21
-4.22172
0
LINE
8
BLACK
6
CONTINUOUS
10
4.70435
20
-4.22172
11
4.70261
21
-4.22071
0
LINE
8
BLACK
6
CONTINUOUS
10
4.70261
20
-4.22071
11
4.70191
21
-4.21881
0
LINE
8
BLACK
6
CONTINUOUS
10
4.70191
20
-4.21881
11
4.70191
21
-4.17944
0
LINE
8
BLACK
6
CONTINUOUS
10
4.70191
20
-4.17944
11
4.70209
21
-4.17843
0
LINE
8
BLACK
6
CONTINUOUS
10
4.70209
20
-4.17843
11
4.70339
21
-4.17688
0
LINE
8
BLACK
6
CONTINUOUS
10
4.70339
20
-4.17688
11
4.70538
21
-4.17653
0
LINE
8
BLACK
6
CONTINUOUS
10
4.70538
20
-4.17653
11
4.70713
21
-4.17754
0
LINE
8
BLACK
6
CONTINUOUS
10
4.61214
20
-4.17667
11
4.61369
21
-4.17796
0
LINE
8
BLACK
6
CONTINUOUS
10
4.61369
20
-4.17796
11
4.61404
21
-4.17995
0
LINE
8
BLACK
6
CONTINUOUS
10
4.61404
20
-4.17995
11
4.61303
21
-4.1817
0
LINE
8
BLACK
6
CONTINUOUS
10
4.61303
20
-4.1817
11
4.61113
21
-4.18239
0
LINE
8
BLACK
6
CONTINUOUS
10
4.61113
20
-4.18239
11
4.60283
21
-4.18239
0
LINE
8
BLACK
6
CONTINUOUS
10
4.60283
20
-4.18239
11
4.60283
21
-4.21881
0
LINE
8
BLACK
6
CONTINUOUS
10
4.60283
20
-4.21881
11
4.60266
21
-4.21982
0
LINE
8
BLACK
6
CONTINUOUS
10
4.60266
20
-4.21982
11
4.60136
21
-4.22137
0
LINE
8
BLACK
6
CONTINUOUS
10
4.60136
20
-4.22137
11
4.59937
21
-4.22172
0
LINE
8
BLACK
6
CONTINUOUS
10
4.59937
20
-4.22172
11
4.59762
21
-4.22071
0
LINE
8
BLACK
6
CONTINUOUS
10
4.59762
20
-4.22071
11
4.59693
21
-4.21881
0
LINE
8
BLACK
6
CONTINUOUS
10
4.59693
20
-4.21881
11
4.59693
21
-4.18239
0
LINE
8
BLACK
6
CONTINUOUS
10
4.59693
20
-4.18239
11
4.58863
21
-4.18239
0
LINE
8
BLACK
6
CONTINUOUS
10
4.58863
20
-4.18239
11
4.58762
21
-4.18221
0
LINE
8
BLACK
6
CONTINUOUS
10
4.58762
20
-4.18221
11
4.58607
21
-4.18092
0
LINE
8
BLACK
6
CONTINUOUS
10
4.58607
20
-4.18092
11
4.58572
21
-4.17893
0
LINE
8
BLACK
6
CONTINUOUS
10
4.58572
20
-4.17893
11
4.58673
21
-4.17718
0
LINE
8
BLACK
6
CONTINUOUS
10
4.58673
20
-4.17718
11
4.58863
21
-4.17649
0
LINE
8
BLACK
6
CONTINUOUS
10
4.58863
20
-4.17649
11
4.61113
21
-4.17649
0
LINE
8
BLACK
6
CONTINUOUS
10
4.61113
20
-4.17649
11
4.61214
21
-4.17667
0
LINE
8
BLACK
6
CONTINUOUS
10
4.7415
20
-4.17667
11
4.74304
21
-4.17796
0
LINE
8
BLACK
6
CONTINUOUS
10
4.74304
20
-4.17796
11
4.7434
21
-4.17995
0
LINE
8
BLACK
6
CONTINUOUS
10
4.7434
20
-4.17995
11
4.74239
21
-4.1817
0
LINE
8
BLACK
6
CONTINUOUS
10
4.74239
20
-4.1817
11
4.74049
21
-4.18239
0
LINE
8
BLACK
6
CONTINUOUS
10
4.74049
20
-4.18239
11
4.73219
21
-4.18239
0
LINE
8
BLACK
6
CONTINUOUS
10
4.73219
20
-4.18239
11
4.73219
21
-4.21881
0
LINE
8
BLACK
6
CONTINUOUS
10
4.73219
20
-4.21881
11
4.73201
21
-4.21982
0
LINE
8
BLACK
6
CONTINUOUS
10
4.73201
20
-4.21982
11
4.73072
21
-4.22137
0
LINE
8
BLACK
6
CONTINUOUS
10
4.73072
20
-4.22137
11
4.72873
21
-4.22172
0
LINE
8
BLACK
6
CONTINUOUS
10
4.72873
20
-4.22172
11
4.72698
21
-4.22071
0
LINE
8
BLACK
6
CONTINUOUS
10
4.72698
20
-4.22071
11
4.72629
21
-4.21881
0
LINE
8
BLACK
6
CONTINUOUS
10
4.72629
20
-4.21881
11
4.72629
21
-4.18239
0
LINE
8
BLACK
6
CONTINUOUS
10
4.72629
20
-4.18239
11
4.71799
21
-4.18239
0
LINE
8
BLACK
6
CONTINUOUS
10
4.71799
20
-4.18239
11
4.71698
21
-4.18221
0
LINE
8
BLACK
6
CONTINUOUS
10
4.71698
20
-4.18221
11
4.71543
21
-4.18092
0
LINE
8
BLACK
6
CONTINUOUS
10
4.71543
20
-4.18092
11
4.71508
21
-4.17893
0
LINE
8
BLACK
6
CONTINUOUS
10
4.71508
20
-4.17893
11
4.71609
21
-4.17718
0
LINE
8
BLACK
6
CONTINUOUS
10
4.71609
20
-4.17718
11
4.71799
21
-4.17649
0
LINE
8
BLACK
6
CONTINUOUS
10
4.71799
20
-4.17649
11
4.74049
21
-4.17649
0
LINE
8
BLACK
6
CONTINUOUS
10
4.74049
20
-4.17649
11
4.7415
21
-4.17667
0
CIRCLE
8
BLACK
10
5.32
20
-4.47
40
0.00787402
0
CIRCLE
8
BLACK
10
5.46
20
-4.20148
40
0.00787402
0
CIRCLE
8
BLACK
10
5.01
20
-4.41
40
0.00787402
0
CIRCLE
8
BLACK
10
5.57
20
-4.19
40
0.00787402
0
CIRCLE
8
BLACK
10
5.32
20
-4.22
40
0.00787402
0
CIRCLE
8
BLACK
10
5.28
20
-4.22
40
0.00787402
0
CIRCLE
8
BLACK
10
5.4
20
-4.22
40
0.00787402
0
CIRCLE
8
BLACK
10
5.09
20
-4.47
40
0.00787402
0
CIRCLE
8
BLACK
10
5.6
20
-4.35
40
0.00787402
0
CIRCLE
8
BLACK
10
5.4
20
-4.31
40
0.00787402
0
CIRCLE
8
BLACK
10
5.62
20
-4.19
40
0.00787402
0
CIRCLE
8
BLACK
10
5.07
20
-4.42
40
0.00787402
0
CIRCLE
8
BLACK
10
5.24
20
-4.22
40
0.00787402
0
CIRCLE
8
BLACK
10
5.67
20
-4.28
40
0.00787402
0
CIRCLE
8
BLACK
10
5.36
20
-4.22
40
0.00787402
0
CIRCLE
8
BLACK
10
5.06
20
-4.45
40
0.00787402
  0
ENDSEC
  0
EOF
