  0
SECTION
  2
HEADER
  9
$ANGBASE
  50
0.0
  9
$ANGDIR
  70
1
  9
$MEASUREMENT
  70
0
  0
ENDSEC
  0
SECTION
  2
TABLES
  0
TABLE
  2
LTYPE
  70
4
  0
LTYPE
  5
40F
  2
CONTINUOUS
  70
0
  3
Solid line
  72
65
  73
0
  40
0.0
  0
LTYPE
  5
410
  2
DASHDOT
 70
0
  3
Dash Dot ____ _ ____ _
 72
65
 73
4
 40
2.0
 49
1.25
 49
-0.25
 49
0.25
 49
-0.25
  0
LTYPE
  5
411
  2
DASHED
 70
0
  3
Dashed __ __ __ __ __
 72
65
 73
2
 40
0.75
 49
0.5
 49
-0.25
  0
LTYPE
  5
43B
  2
DOTTED
 70
0
  3
Dotted .  .  .  .
 72
65
 73
2
 40
0.2
 49
0.0
 49
-0.2
  0
ENDTAB
  0
TABLE
  2
STYLE
  70
4
  0
STYLE
  2
KICAD
  70
0
  40
0
  41
1
  42
1
  50
0
  71
0
  3
isocp.shx
  0
STYLE
  2
KICADB
  70
0
  40
0
  41
1
  42
1
  50
0
  71
0
  3
isocp.shx
  0
STYLE
  2
KICADI
  70
0
  40
0
  41
1
  42
1
  50
15
  71
0
  3
isocp.shx
  0
STYLE
  2
KICADBI
  70
0
  40
0
  41
1
  42
1
  50
15
  71
0
  3
isocp.shx
  0
ENDTAB
  0
TABLE
  2
LAYER
  70
1
  0
LAYER
  2
BLACK
  70
0
  62
7
  6
CONTINUOUS
  0
ENDTAB
  0
ENDSEC
  0
SECTION
  2
ENTITIES
0
LINE
8
BLACK
6
CONTINUOUS
10
5.51844
20
-4.43632
11
5.51857
21
-4.43631
0
LINE
8
BLACK
6
CONTINUOUS
10
5.51857
20
-4.43631
11
5.5193
21
-4.43682
0
LINE
8
BLACK
6
CONTINUOUS
10
5.5193
20
-4.43682
11
5.52007
21
-4.43726
0
LINE
8
BLACK
6
CONTINUOUS
10
5.52007
20
-4.43726
11
5.52012
21
-4.43739
0
LINE
8
BLACK
6
CONTINUOUS
10
5.52012
20
-4.43739
11
5.52023
21
-4.43747
0
LINE
8
BLACK
6
CONTINUOUS
10
5.52023
20
-4.43747
11
5.52046
21
-4.43833
0
LINE
8
BLACK
6
CONTINUOUS
10
5.52046
20
-4.43833
11
5.52076
21
-4.43916
0
LINE
8
BLACK
6
CONTINUOUS
10
5.52076
20
-4.43916
11
5.52076
21
-4.46353
0
LINE
8
BLACK
6
CONTINUOUS
10
5.52076
20
-4.46353
11
5.52058
21
-4.46454
0
LINE
8
BLACK
6
CONTINUOUS
10
5.52058
20
-4.46454
11
5.51929
21
-4.46609
0
LINE
8
BLACK
6
CONTINUOUS
10
5.51929
20
-4.46609
11
5.5173
21
-4.46644
0
LINE
8
BLACK
6
CONTINUOUS
10
5.5173
20
-4.46644
11
5.51555
21
-4.46543
0
LINE
8
BLACK
6
CONTINUOUS
10
5.51555
20
-4.46543
11
5.51486
21
-4.46353
0
LINE
8
BLACK
6
CONTINUOUS
10
5.51486
20
-4.46353
11
5.51486
21
-4.44629
0
LINE
8
BLACK
6
CONTINUOUS
10
5.51486
20
-4.44629
11
5.4974
21
-4.46375
0
LINE
8
BLACK
6
CONTINUOUS
10
5.4974
20
-4.46375
11
5.49656
21
-4.46433
0
LINE
8
BLACK
6
CONTINUOUS
10
5.49656
20
-4.46433
11
5.49639
21
-4.46435
0
LINE
8
BLACK
6
CONTINUOUS
10
5.49639
20
-4.46435
11
5.49625
21
-4.46446
0
LINE
8
BLACK
6
CONTINUOUS
10
5.49625
20
-4.46446
11
5.49062
21
-4.46633
0
LINE
8
BLACK
6
CONTINUOUS
10
5.49062
20
-4.46633
11
5.48975
21
-4.46646
0
LINE
8
BLACK
6
CONTINUOUS
10
5.48975
20
-4.46646
11
5.48969
21
-4.46648
0
LINE
8
BLACK
6
CONTINUOUS
10
5.48969
20
-4.46648
11
5.48594
21
-4.46648
0
LINE
8
BLACK
6
CONTINUOUS
10
5.48594
20
-4.46648
11
5.48493
21
-4.46631
0
LINE
8
BLACK
6
CONTINUOUS
10
5.48493
20
-4.46631
11
5.48479
21
-4.46619
0
LINE
8
BLACK
6
CONTINUOUS
10
5.48479
20
-4.46619
11
5.48462
21
-4.46617
0
LINE
8
BLACK
6
CONTINUOUS
10
5.48462
20
-4.46617
11
5.48087
21
-4.4643
0
LINE
8
BLACK
6
CONTINUOUS
10
5.48087
20
-4.4643
11
5.48016
21
-4.46377
0
LINE
8
BLACK
6
CONTINUOUS
10
5.48016
20
-4.46377
11
5.4801
21
-4.46375
0
LINE
8
BLACK
6
CONTINUOUS
10
5.4801
20
-4.46375
11
5.47823
21
-4.46187
0
LINE
8
BLACK
6
CONTINUOUS
10
5.47823
20
-4.46187
11
5.47772
21
-4.46115
0
LINE
8
BLACK
6
CONTINUOUS
10
5.47772
20
-4.46115
11
5.47767
21
-4.4611
0
LINE
8
BLACK
6
CONTINUOUS
10
5.47767
20
-4.4611
11
5.4758
21
-4.45735
0
LINE
8
BLACK
6
CONTINUOUS
10
5.4758
20
-4.45735
11
5.47551
21
-4.45637
0
LINE
8
BLACK
6
CONTINUOUS
10
5.47551
20
-4.45637
11
5.47555
21
-4.4562
0
LINE
8
BLACK
6
CONTINUOUS
10
5.47555
20
-4.4562
11
5.47549
21
-4.45603
0
LINE
8
BLACK
6
CONTINUOUS
10
5.47549
20
-4.45603
11
5.47549
21
-4.44666
0
LINE
8
BLACK
6
CONTINUOUS
10
5.47549
20
-4.44666
11
5.47567
21
-4.44565
0
LINE
8
BLACK
6
CONTINUOUS
10
5.47567
20
-4.44565
11
5.47578
21
-4.44551
0
LINE
8
BLACK
6
CONTINUOUS
10
5.47578
20
-4.44551
11
5.4758
21
-4.44534
0
LINE
8
BLACK
6
CONTINUOUS
10
5.4758
20
-4.44534
11
5.47767
21
-4.44159
0
LINE
8
BLACK
6
CONTINUOUS
10
5.47767
20
-4.44159
11
5.4782
21
-4.44088
0
LINE
8
BLACK
6
CONTINUOUS
10
5.4782
20
-4.44088
11
5.47823
21
-4.44082
0
LINE
8
BLACK
6
CONTINUOUS
10
5.47823
20
-4.44082
11
5.4801
21
-4.43895
0
LINE
8
BLACK
6
CONTINUOUS
10
5.4801
20
-4.43895
11
5.48094
21
-4.43836
0
LINE
8
BLACK
6
CONTINUOUS
10
5.48094
20
-4.43836
11
5.48295
21
-4.43818
0
LINE
8
BLACK
6
CONTINUOUS
10
5.48295
20
-4.43818
11
5.48461
21
-4.43934
0
LINE
8
BLACK
6
CONTINUOUS
10
5.48461
20
-4.43934
11
5.48513
21
-4.44129
0
LINE
8
BLACK
6
CONTINUOUS
10
5.48513
20
-4.44129
11
5.48428
21
-4.44312
0
LINE
8
BLACK
6
CONTINUOUS
10
5.48428
20
-4.44312
11
5.48274
21
-4.44466
0
LINE
8
BLACK
6
CONTINUOUS
10
5.48274
20
-4.44466
11
5.48139
21
-4.44736
0
LINE
8
BLACK
6
CONTINUOUS
10
5.48139
20
-4.44736
11
5.48139
21
-4.45534
0
LINE
8
BLACK
6
CONTINUOUS
10
5.48139
20
-4.45534
11
5.48274
21
-4.45803
0
LINE
8
BLACK
6
CONTINUOUS
10
5.48274
20
-4.45803
11
5.48394
21
-4.45923
0
LINE
8
BLACK
6
CONTINUOUS
10
5.48394
20
-4.45923
11
5.48664
21
-4.46058
0
LINE
8
BLACK
6
CONTINUOUS
10
5.48664
20
-4.46058
11
5.48921
21
-4.46058
0
LINE
8
BLACK
6
CONTINUOUS
10
5.48921
20
-4.46058
11
5.49372
21
-4.45908
0
LINE
8
BLACK
6
CONTINUOUS
10
5.49372
20
-4.45908
11
5.51572
21
-4.43707
0
LINE
8
BLACK
6
CONTINUOUS
10
5.51572
20
-4.43707
11
5.51625
21
-4.4367
0
LINE
8
BLACK
6
CONTINUOUS
10
5.51625
20
-4.4367
11
5.51633
21
-4.4366
0
LINE
8
BLACK
6
CONTINUOUS
10
5.51633
20
-4.4366
11
5.51641
21
-4.43659
0
LINE
8
BLACK
6
CONTINUOUS
10
5.51641
20
-4.43659
11
5.51656
21
-4.43648
0
LINE
8
BLACK
6
CONTINUOUS
10
5.51656
20
-4.43648
11
5.51745
21
-4.43641
0
LINE
8
BLACK
6
CONTINUOUS
10
5.51745
20
-4.43641
11
5.51832
21
-4.43625
0
LINE
8
BLACK
6
CONTINUOUS
10
5.51832
20
-4.43625
11
5.51844
21
-4.43632
0
LINE
8
BLACK
6
CONTINUOUS
10
5.40145
20
-4.43866
11
5.40256
21
-4.44035
0
LINE
8
BLACK
6
CONTINUOUS
10
5.40256
20
-4.44035
11
5.40233
21
-4.44236
0
LINE
8
BLACK
6
CONTINUOUS
10
5.40233
20
-4.44236
11
5.40046
21
-4.4461
0
LINE
8
BLACK
6
CONTINUOUS
10
5.40046
20
-4.4461
11
5.39993
21
-4.44681
0
LINE
8
BLACK
6
CONTINUOUS
10
5.39993
20
-4.44681
11
5.3999
21
-4.44687
0
LINE
8
BLACK
6
CONTINUOUS
10
5.3999
20
-4.44687
11
5.39744
21
-4.44933
0
LINE
8
BLACK
6
CONTINUOUS
10
5.39744
20
-4.44933
11
5.42486
21
-4.44933
0
LINE
8
BLACK
6
CONTINUOUS
10
5.42486
20
-4.44933
11
5.42486
21
-4.44103
0
LINE
8
BLACK
6
CONTINUOUS
10
5.42486
20
-4.44103
11
5.42504
21
-4.44002
0
LINE
8
BLACK
6
CONTINUOUS
10
5.42504
20
-4.44002
11
5.42633
21
-4.43848
0
LINE
8
BLACK
6
CONTINUOUS
10
5.42633
20
-4.43848
11
5.42832
21
-4.43813
0
LINE
8
BLACK
6
CONTINUOUS
10
5.42832
20
-4.43813
11
5.43007
21
-4.43914
0
LINE
8
BLACK
6
CONTINUOUS
10
5.43007
20
-4.43914
11
5.43076
21
-4.44103
0
LINE
8
BLACK
6
CONTINUOUS
10
5.43076
20
-4.44103
11
5.43076
21
-4.46353
0
LINE
8
BLACK
6
CONTINUOUS
10
5.43076
20
-4.46353
11
5.43058
21
-4.46454
0
LINE
8
BLACK
6
CONTINUOUS
10
5.43058
20
-4.46454
11
5.42929
21
-4.46609
0
LINE
8
BLACK
6
CONTINUOUS
10
5.42929
20
-4.46609
11
5.4273
21
-4.46644
0
LINE
8
BLACK
6
CONTINUOUS
10
5.4273
20
-4.46644
11
5.42555
21
-4.46543
0
LINE
8
BLACK
6
CONTINUOUS
10
5.42555
20
-4.46543
11
5.42486
21
-4.46353
0
LINE
8
BLACK
6
CONTINUOUS
10
5.42486
20
-4.46353
11
5.42486
21
-4.45524
0
LINE
8
BLACK
6
CONTINUOUS
10
5.42486
20
-4.45524
11
5.38844
21
-4.45524
0
LINE
8
BLACK
6
CONTINUOUS
10
5.38844
20
-4.45524
11
5.38743
21
-4.45506
0
LINE
8
BLACK
6
CONTINUOUS
10
5.38743
20
-4.45506
11
5.3873
21
-4.45495
0
LINE
8
BLACK
6
CONTINUOUS
10
5.3873
20
-4.45495
11
5.38713
21
-4.45493
0
LINE
8
BLACK
6
CONTINUOUS
10
5.38713
20
-4.45493
11
5.38654
21
-4.45431
0
LINE
8
BLACK
6
CONTINUOUS
10
5.38654
20
-4.45431
11
5.38588
21
-4.45376
0
LINE
8
BLACK
6
CONTINUOUS
10
5.38588
20
-4.45376
11
5.38585
21
-4.45359
0
LINE
8
BLACK
6
CONTINUOUS
10
5.38585
20
-4.45359
11
5.38574
21
-4.45347
0
LINE
8
BLACK
6
CONTINUOUS
10
5.38574
20
-4.45347
11
5.38568
21
-4.45261
0
LINE
8
BLACK
6
CONTINUOUS
10
5.38568
20
-4.45261
11
5.38553
21
-4.45177
0
LINE
8
BLACK
6
CONTINUOUS
10
5.38553
20
-4.45177
11
5.38562
21
-4.45162
0
LINE
8
BLACK
6
CONTINUOUS
10
5.38562
20
-4.45162
11
5.38561
21
-4.45145
0
LINE
8
BLACK
6
CONTINUOUS
10
5.38561
20
-4.45145
11
5.38611
21
-4.45076
0
LINE
8
BLACK
6
CONTINUOUS
10
5.38611
20
-4.45076
11
5.38654
21
-4.45002
0
LINE
8
BLACK
6
CONTINUOUS
10
5.38654
20
-4.45002
11
5.3867
21
-4.44996
0
LINE
8
BLACK
6
CONTINUOUS
10
5.3867
20
-4.44996
11
5.3868
21
-4.44983
0
LINE
8
BLACK
6
CONTINUOUS
10
5.3868
20
-4.44983
11
5.39218
21
-4.44624
0
LINE
8
BLACK
6
CONTINUOUS
10
5.39218
20
-4.44624
11
5.39539
21
-4.44304
0
LINE
8
BLACK
6
CONTINUOUS
10
5.39539
20
-4.44304
11
5.39705
21
-4.43971
0
LINE
8
BLACK
6
CONTINUOUS
10
5.39705
20
-4.43971
11
5.39766
21
-4.43889
0
LINE
8
BLACK
6
CONTINUOUS
10
5.39766
20
-4.43889
11
5.39951
21
-4.43809
0
LINE
8
BLACK
6
CONTINUOUS
10
5.39951
20
-4.43809
11
5.40145
21
-4.43866
0
LINE
8
BLACK
6
CONTINUOUS
10
5.41152
20
-4.39881
11
5.41165
21
-4.3988
0
LINE
8
BLACK
6
CONTINUOUS
10
5.41165
20
-4.3988
11
5.41915
21
-4.40067
0
LINE
8
BLACK
6
CONTINUOUS
10
5.41915
20
-4.40067
11
5.41962
21
-4.40088
0
LINE
8
BLACK
6
CONTINUOUS
10
5.41962
20
-4.40088
11
5.41976
21
-4.4009
0
LINE
8
BLACK
6
CONTINUOUS
10
5.41976
20
-4.4009
11
5.42351
21
-4.40277
0
LINE
8
BLACK
6
CONTINUOUS
10
5.42351
20
-4.40277
11
5.42422
21
-4.4033
0
LINE
8
BLACK
6
CONTINUOUS
10
5.42422
20
-4.4033
11
5.42427
21
-4.40333
0
LINE
8
BLACK
6
CONTINUOUS
10
5.42427
20
-4.40333
11
5.42802
21
-4.40708
0
LINE
8
BLACK
6
CONTINUOUS
10
5.42802
20
-4.40708
11
5.42861
21
-4.40792
0
LINE
8
BLACK
6
CONTINUOUS
10
5.42861
20
-4.40792
11
5.42863
21
-4.40809
0
LINE
8
BLACK
6
CONTINUOUS
10
5.42863
20
-4.40809
11
5.42874
21
-4.40823
0
LINE
8
BLACK
6
CONTINUOUS
10
5.42874
20
-4.40823
11
5.43061
21
-4.41385
0
LINE
8
BLACK
6
CONTINUOUS
10
5.43061
20
-4.41385
11
5.43074
21
-4.41473
0
LINE
8
BLACK
6
CONTINUOUS
10
5.43074
20
-4.41473
11
5.43076
21
-4.41479
0
LINE
8
BLACK
6
CONTINUOUS
10
5.43076
20
-4.41479
11
5.43076
21
-4.41854
0
LINE
8
BLACK
6
CONTINUOUS
10
5.43076
20
-4.41854
11
5.43061
21
-4.41941
0
LINE
8
BLACK
6
CONTINUOUS
10
5.43061
20
-4.41941
11
5.43061
21
-4.41947
0
LINE
8
BLACK
6
CONTINUOUS
10
5.43061
20
-4.41947
11
5.42874
21
-4.4251
0
LINE
8
BLACK
6
CONTINUOUS
10
5.42874
20
-4.4251
11
5.42825
21
-4.426
0
LINE
8
BLACK
6
CONTINUOUS
10
5.42825
20
-4.426
11
5.4281
21
-4.42609
0
LINE
8
BLACK
6
CONTINUOUS
10
5.4281
20
-4.42609
11
5.42802
21
-4.42625
0
LINE
8
BLACK
6
CONTINUOUS
10
5.42802
20
-4.42625
11
5.42615
21
-4.42812
0
LINE
8
BLACK
6
CONTINUOUS
10
5.42615
20
-4.42812
11
5.42531
21
-4.42871
0
LINE
8
BLACK
6
CONTINUOUS
10
5.42531
20
-4.42871
11
5.4233
21
-4.42889
0
LINE
8
BLACK
6
CONTINUOUS
10
5.4233
20
-4.42889
11
5.42164
21
-4.42773
0
LINE
8
BLACK
6
CONTINUOUS
10
5.42164
20
-4.42773
11
5.42112
21
-4.42578
0
LINE
8
BLACK
6
CONTINUOUS
10
5.42112
20
-4.42578
11
5.42197
21
-4.42395
0
LINE
8
BLACK
6
CONTINUOUS
10
5.42197
20
-4.42395
11
5.42335
21
-4.42257
0
LINE
8
BLACK
6
CONTINUOUS
10
5.42335
20
-4.42257
11
5.42486
21
-4.41806
0
LINE
8
BLACK
6
CONTINUOUS
10
5.42486
20
-4.41806
11
5.42486
21
-4.41527
0
LINE
8
BLACK
6
CONTINUOUS
10
5.42486
20
-4.41527
11
5.42335
21
-4.41076
0
LINE
8
BLACK
6
CONTINUOUS
10
5.42335
20
-4.41076
11
5.42044
21
-4.40784
0
LINE
8
BLACK
6
CONTINUOUS
10
5.42044
20
-4.40784
11
5.41741
21
-4.40633
0
LINE
8
BLACK
6
CONTINUOUS
10
5.41741
20
-4.40633
11
5.41057
21
-4.40462
0
LINE
8
BLACK
6
CONTINUOUS
10
5.41057
20
-4.40462
11
5.40568
21
-4.40462
0
LINE
8
BLACK
6
CONTINUOUS
10
5.40568
20
-4.40462
11
5.39884
21
-4.40633
0
LINE
8
BLACK
6
CONTINUOUS
10
5.39884
20
-4.40633
11
5.39581
21
-4.40784
0
LINE
8
BLACK
6
CONTINUOUS
10
5.39581
20
-4.40784
11
5.3929
21
-4.41076
0
LINE
8
BLACK
6
CONTINUOUS
10
5.3929
20
-4.41076
11
5.39139
21
-4.41527
0
LINE
8
BLACK
6
CONTINUOUS
10
5.39139
20
-4.41527
11
5.39139
21
-4.41806
0
LINE
8
BLACK
6
CONTINUOUS
10
5.39139
20
-4.41806
11
5.3929
21
-4.42257
0
LINE
8
BLACK
6
CONTINUOUS
10
5.3929
20
-4.42257
11
5.39428
21
-4.42395
0
LINE
8
BLACK
6
CONTINUOUS
10
5.39428
20
-4.42395
11
5.39487
21
-4.42479
0
LINE
8
BLACK
6
CONTINUOUS
10
5.39487
20
-4.42479
11
5.39504
21
-4.4268
0
LINE
8
BLACK
6
CONTINUOUS
10
5.39504
20
-4.4268
11
5.39388
21
-4.42846
0
LINE
8
BLACK
6
CONTINUOUS
10
5.39388
20
-4.42846
11
5.39193
21
-4.42898
0
LINE
8
BLACK
6
CONTINUOUS
10
5.39193
20
-4.42898
11
5.3901
21
-4.42812
0
LINE
8
BLACK
6
CONTINUOUS
10
5.3901
20
-4.42812
11
5.38823
21
-4.42625
0
LINE
8
BLACK
6
CONTINUOUS
10
5.38823
20
-4.42625
11
5.38764
21
-4.42541
0
LINE
8
BLACK
6
CONTINUOUS
10
5.38764
20
-4.42541
11
5.38762
21
-4.42523
0
LINE
8
BLACK
6
CONTINUOUS
10
5.38762
20
-4.42523
11
5.38751
21
-4.4251
0
LINE
8
BLACK
6
CONTINUOUS
10
5.38751
20
-4.4251
11
5.38564
21
-4.41947
0
LINE
8
BLACK
6
CONTINUOUS
10
5.38564
20
-4.41947
11
5.38551
21
-4.4186
0
LINE
8
BLACK
6
CONTINUOUS
10
5.38551
20
-4.4186
11
5.38549
21
-4.41854
0
LINE
8
BLACK
6
CONTINUOUS
10
5.38549
20
-4.41854
11
5.38549
21
-4.41479
0
LINE
8
BLACK
6
CONTINUOUS
10
5.38549
20
-4.41479
11
5.38564
21
-4.41392
0
LINE
8
BLACK
6
CONTINUOUS
10
5.38564
20
-4.41392
11
5.38564
21
-4.41385
0
LINE
8
BLACK
6
CONTINUOUS
10
5.38564
20
-4.41385
11
5.38751
21
-4.40823
0
LINE
8
BLACK
6
CONTINUOUS
10
5.38751
20
-4.40823
11
5.388
21
-4.40733
0
LINE
8
BLACK
6
CONTINUOUS
10
5.388
20
-4.40733
11
5.38815
21
-4.40724
0
LINE
8
BLACK
6
CONTINUOUS
10
5.38815
20
-4.40724
11
5.38823
21
-4.40708
0
LINE
8
BLACK
6
CONTINUOUS
10
5.38823
20
-4.40708
11
5.39198
21
-4.40333
0
LINE
8
BLACK
6
CONTINUOUS
10
5.39198
20
-4.40333
11
5.3927
21
-4.40282
0
LINE
8
BLACK
6
CONTINUOUS
10
5.3927
20
-4.40282
11
5.39274
21
-4.40277
0
LINE
8
BLACK
6
CONTINUOUS
10
5.39274
20
-4.40277
11
5.39649
21
-4.4009
0
LINE
8
BLACK
6
CONTINUOUS
10
5.39649
20
-4.4009
11
5.39698
21
-4.40075
0
LINE
8
BLACK
6
CONTINUOUS
10
5.39698
20
-4.40075
11
5.3971
21
-4.40067
0
LINE
8
BLACK
6
CONTINUOUS
10
5.3971
20
-4.40067
11
5.4046
21
-4.3988
0
LINE
8
BLACK
6
CONTINUOUS
10
5.4046
20
-4.3988
11
5.40518
21
-4.39876
0
LINE
8
BLACK
6
CONTINUOUS
10
5.40518
20
-4.39876
11
5.40531
21
-4.39871
0
LINE
8
BLACK
6
CONTINUOUS
10
5.40531
20
-4.39871
11
5.41094
21
-4.39871
0
LINE
8
BLACK
6
CONTINUOUS
10
5.41094
20
-4.39871
11
5.41152
21
-4.39881
0
LINE
8
BLACK
6
CONTINUOUS
10
5.50152
20
-4.39881
11
5.50165
21
-4.3988
0
LINE
8
BLACK
6
CONTINUOUS
10
5.50165
20
-4.3988
11
5.50915
21
-4.40067
0
LINE
8
BLACK
6
CONTINUOUS
10
5.50915
20
-4.40067
11
5.50962
21
-4.40088
0
LINE
8
BLACK
6
CONTINUOUS
10
5.50962
20
-4.40088
11
5.50976
21
-4.4009
0
LINE
8
BLACK
6
CONTINUOUS
10
5.50976
20
-4.4009
11
5.51351
21
-4.40277
0
LINE
8
BLACK
6
CONTINUOUS
10
5.51351
20
-4.40277
11
5.51422
21
-4.4033
0
LINE
8
BLACK
6
CONTINUOUS
10
5.51422
20
-4.4033
11
5.51427
21
-4.40333
0
LINE
8
BLACK
6
CONTINUOUS
10
5.51427
20
-4.40333
11
5.51802
21
-4.40708
0
LINE
8
BLACK
6
CONTINUOUS
10
5.51802
20
-4.40708
11
5.51861
21
-4.40792
0
LINE
8
BLACK
6
CONTINUOUS
10
5.51861
20
-4.40792
11
5.51863
21
-4.40809
0
LINE
8
BLACK
6
CONTINUOUS
10
5.51863
20
-4.40809
11
5.51874
21
-4.40823
0
LINE
8
BLACK
6
CONTINUOUS
10
5.51874
20
-4.40823
11
5.52061
21
-4.41385
0
LINE
8
BLACK
6
CONTINUOUS
10
5.52061
20
-4.41385
11
5.52074
21
-4.41473
0
LINE
8
BLACK
6
CONTINUOUS
10
5.52074
20
-4.41473
11
5.52076
21
-4.41479
0
LINE
8
BLACK
6
CONTINUOUS
10
5.52076
20
-4.41479
11
5.52076
21
-4.41854
0
LINE
8
BLACK
6
CONTINUOUS
10
5.52076
20
-4.41854
11
5.52061
21
-4.41941
0
LINE
8
BLACK
6
CONTINUOUS
10
5.52061
20
-4.41941
11
5.52061
21
-4.41947
0
LINE
8
BLACK
6
CONTINUOUS
10
5.52061
20
-4.41947
11
5.51874
21
-4.4251
0
LINE
8
BLACK
6
CONTINUOUS
10
5.51874
20
-4.4251
11
5.51825
21
-4.426
0
LINE
8
BLACK
6
CONTINUOUS
10
5.51825
20
-4.426
11
5.5181
21
-4.42609
0
LINE
8
BLACK
6
CONTINUOUS
10
5.5181
20
-4.42609
11
5.51802
21
-4.42625
0
LINE
8
BLACK
6
CONTINUOUS
10
5.51802
20
-4.42625
11
5.51615
21
-4.42812
0
LINE
8
BLACK
6
CONTINUOUS
10
5.51615
20
-4.42812
11
5.51531
21
-4.42871
0
LINE
8
BLACK
6
CONTINUOUS
10
5.51531
20
-4.42871
11
5.5133
21
-4.42889
0
LINE
8
BLACK
6
CONTINUOUS
10
5.5133
20
-4.42889
11
5.51164
21
-4.42773
0
LINE
8
BLACK
6
CONTINUOUS
10
5.51164
20
-4.42773
11
5.51112
21
-4.42578
0
LINE
8
BLACK
6
CONTINUOUS
10
5.51112
20
-4.42578
11
5.51197
21
-4.42395
0
LINE
8
BLACK
6
CONTINUOUS
10
5.51197
20
-4.42395
11
5.51335
21
-4.42257
0
LINE
8
BLACK
6
CONTINUOUS
10
5.51335
20
-4.42257
11
5.51486
21
-4.41806
0
LINE
8
BLACK
6
CONTINUOUS
10
5.51486
20
-4.41806
11
5.51486
21
-4.41527
0
LINE
8
BLACK
6
CONTINUOUS
10
5.51486
20
-4.41527
11
5.51335
21
-4.41076
0
LINE
8
BLACK
6
CONTINUOUS
10
5.51335
20
-4.41076
11
5.51044
21
-4.40784
0
LINE
8
BLACK
6
CONTINUOUS
10
5.51044
20
-4.40784
11
5.50741
21
-4.40633
0
LINE
8
BLACK
6
CONTINUOUS
10
5.50741
20
-4.40633
11
5.50057
21
-4.40462
0
LINE
8
BLACK
6
CONTINUOUS
10
5.50057
20
-4.40462
11
5.49568
21
-4.40462
0
LINE
8
BLACK
6
CONTINUOUS
10
5.49568
20
-4.40462
11
5.48884
21
-4.40633
0
LINE
8
BLACK
6
CONTINUOUS
10
5.48884
20
-4.40633
11
5.48581
21
-4.40784
0
LINE
8
BLACK
6
CONTINUOUS
10
5.48581
20
-4.40784
11
5.4829
21
-4.41076
0
LINE
8
BLACK
6
CONTINUOUS
10
5.4829
20
-4.41076
11
5.48139
21
-4.41527
0
LINE
8
BLACK
6
CONTINUOUS
10
5.48139
20
-4.41527
11
5.48139
21
-4.41806
0
LINE
8
BLACK
6
CONTINUOUS
10
5.48139
20
-4.41806
11
5.4829
21
-4.42257
0
LINE
8
BLACK
6
CONTINUOUS
10
5.4829
20
-4.42257
11
5.48428
21
-4.42395
0
LINE
8
BLACK
6
CONTINUOUS
10
5.48428
20
-4.42395
11
5.48487
21
-4.42479
0
LINE
8
BLACK
6
CONTINUOUS
10
5.48487
20
-4.42479
11
5.48504
21
-4.4268
0
LINE
8
BLACK
6
CONTINUOUS
10
5.48504
20
-4.4268
11
5.48388
21
-4.42846
0
LINE
8
BLACK
6
CONTINUOUS
10
5.48388
20
-4.42846
11
5.48193
21
-4.42898
0
LINE
8
BLACK
6
CONTINUOUS
10
5.48193
20
-4.42898
11
5.4801
21
-4.42812
0
LINE
8
BLACK
6
CONTINUOUS
10
5.4801
20
-4.42812
11
5.47823
21
-4.42625
0
LINE
8
BLACK
6
CONTINUOUS
10
5.47823
20
-4.42625
11
5.47764
21
-4.42541
0
LINE
8
BLACK
6
CONTINUOUS
10
5.47764
20
-4.42541
11
5.47762
21
-4.42523
0
LINE
8
BLACK
6
CONTINUOUS
10
5.47762
20
-4.42523
11
5.47751
21
-4.4251
0
LINE
8
BLACK
6
CONTINUOUS
10
5.47751
20
-4.4251
11
5.47564
21
-4.41947
0
LINE
8
BLACK
6
CONTINUOUS
10
5.47564
20
-4.41947
11
5.47551
21
-4.4186
0
LINE
8
BLACK
6
CONTINUOUS
10
5.47551
20
-4.4186
11
5.47549
21
-4.41854
0
LINE
8
BLACK
6
CONTINUOUS
10
5.47549
20
-4.41854
11
5.47549
21
-4.41479
0
LINE
8
BLACK
6
CONTINUOUS
10
5.47549
20
-4.41479
11
5.47564
21
-4.41392
0
LINE
8
BLACK
6
CONTINUOUS
10
5.47564
20
-4.41392
11
5.47564
21
-4.41385
0
LINE
8
BLACK
6
CONTINUOUS
10
5.47564
20
-4.41385
11
5.47751
21
-4.40823
0
LINE
8
BLACK
6
CONTINUOUS
10
5.47751
20
-4.40823
11
5.478
21
-4.40733
0
LINE
8
BLACK
6
CONTINUOUS
10
5.478
20
-4.40733
11
5.47815
21
-4.40724
0
LINE
8
BLACK
6
CONTINUOUS
10
5.47815
20
-4.40724
11
5.47823
21
-4.40708
0
LINE
8
BLACK
6
CONTINUOUS
10
5.47823
20
-4.40708
11
5.48198
21
-4.40333
0
LINE
8
BLACK
6
CONTINUOUS
10
5.48198
20
-4.40333
11
5.4827
21
-4.40282
0
LINE
8
BLACK
6
CONTINUOUS
10
5.4827
20
-4.40282
11
5.48274
21
-4.40277
0
LINE
8
BLACK
6
CONTINUOUS
10
5.48274
20
-4.40277
11
5.48649
21
-4.4009
0
LINE
8
BLACK
6
CONTINUOUS
10
5.48649
20
-4.4009
11
5.48698
21
-4.40075
0
LINE
8
BLACK
6
CONTINUOUS
10
5.48698
20
-4.40075
11
5.4871
21
-4.40067
0
LINE
8
BLACK
6
CONTINUOUS
10
5.4871
20
-4.40067
11
5.4946
21
-4.3988
0
LINE
8
BLACK
6
CONTINUOUS
10
5.4946
20
-4.3988
11
5.49518
21
-4.39876
0
LINE
8
BLACK
6
CONTINUOUS
10
5.49518
20
-4.39876
11
5.49531
21
-4.39871
0
LINE
8
BLACK
6
CONTINUOUS
10
5.49531
20
-4.39871
11
5.50094
21
-4.39871
0
LINE
8
BLACK
6
CONTINUOUS
10
5.50094
20
-4.39871
11
5.50152
21
-4.39881
0
LINE
8
BLACK
6
CONTINUOUS
10
5.35194
20
-4.3934
11
5.35466
21
-4.39471
0
LINE
8
BLACK
6
CONTINUOUS
10
5.35466
20
-4.39471
11
5.35653
21
-4.39706
0
LINE
8
BLACK
6
CONTINUOUS
10
5.35653
20
-4.39706
11
5.3572
21
-4.4
0
LINE
8
BLACK
6
CONTINUOUS
10
5.3572
20
-4.4
11
5.3572
21
-4.40002
0
LINE
8
BLACK
6
CONTINUOUS
10
5.3572
20
-4.40002
11
5.35652
21
-4.40296
0
LINE
8
BLACK
6
CONTINUOUS
10
5.35652
20
-4.40296
11
5.35464
21
-4.40531
0
LINE
8
BLACK
6
CONTINUOUS
10
5.35464
20
-4.40531
11
5.35192
21
-4.40661
0
LINE
8
BLACK
6
CONTINUOUS
10
5.35192
20
-4.40661
11
5.34891
21
-4.4066
0
LINE
8
BLACK
6
CONTINUOUS
10
5.34891
20
-4.4066
11
5.3462
21
-4.40528
0
LINE
8
BLACK
6
CONTINUOUS
10
5.3462
20
-4.40528
11
5.34433
21
-4.40293
0
LINE
8
BLACK
6
CONTINUOUS
10
5.34433
20
-4.40293
11
5.34366
21
-4.39999
0
LINE
8
BLACK
6
CONTINUOUS
10
5.34366
20
-4.39999
11
5.34434
21
-4.39705
0
LINE
8
BLACK
6
CONTINUOUS
10
5.34434
20
-4.39705
11
5.34622
21
-4.3947
0
LINE
8
BLACK
6
CONTINUOUS
10
5.34622
20
-4.3947
11
5.34893
21
-4.3934
0
LINE
8
BLACK
6
CONTINUOUS
10
5.34893
20
-4.3934
11
5.35194
21
-4.3934
0
LINE
8
BLACK
6
CONTINUOUS
10
5.3546
20
-4.2564
11
5.35673
21
-4.25824
0
LINE
8
BLACK
6
CONTINUOUS
10
5.35673
20
-4.25824
11
5.35752
21
-4.26094
0
LINE
8
BLACK
6
CONTINUOUS
10
5.35752
20
-4.26094
11
5.35752
21
-4.37906
0
LINE
8
BLACK
6
CONTINUOUS
10
5.35752
20
-4.37906
11
5.35731
21
-4.38048
0
LINE
8
BLACK
6
CONTINUOUS
10
5.35731
20
-4.38048
11
5.35579
21
-4.38284
0
LINE
8
BLACK
6
CONTINUOUS
10
5.35579
20
-4.38284
11
5.35322
21
-4.38401
0
LINE
8
BLACK
6
CONTINUOUS
10
5.35322
20
-4.38401
11
5.35044
21
-4.3836
0
LINE
8
BLACK
6
CONTINUOUS
10
5.35044
20
-4.3836
11
5.34831
21
-4.38176
0
LINE
8
BLACK
6
CONTINUOUS
10
5.34831
20
-4.38176
11
5.34752
21
-4.37906
0
LINE
8
BLACK
6
CONTINUOUS
10
5.34752
20
-4.37906
11
5.34752
21
-4.26094
0
LINE
8
BLACK
6
CONTINUOUS
10
5.34752
20
-4.26094
11
5.34773
21
-4.25952
0
LINE
8
BLACK
6
CONTINUOUS
10
5.34773
20
-4.25952
11
5.34925
21
-4.25716
0
LINE
8
BLACK
6
CONTINUOUS
10
5.34925
20
-4.25716
11
5.35182
21
-4.25599
0
LINE
8
BLACK
6
CONTINUOUS
10
5.35182
20
-4.25599
11
5.3546
21
-4.2564
0
LINE
8
BLACK
6
CONTINUOUS
10
5.16956
20
-4.2564
11
5.17169
21
-4.25824
0
LINE
8
BLACK
6
CONTINUOUS
10
5.17169
20
-4.25824
11
5.17248
21
-4.26094
0
LINE
8
BLACK
6
CONTINUOUS
10
5.17248
20
-4.26094
11
5.17248
21
-4.37906
0
LINE
8
BLACK
6
CONTINUOUS
10
5.17248
20
-4.37906
11
5.17227
21
-4.38048
0
LINE
8
BLACK
6
CONTINUOUS
10
5.17227
20
-4.38048
11
5.17075
21
-4.38284
0
LINE
8
BLACK
6
CONTINUOUS
10
5.17075
20
-4.38284
11
5.16818
21
-4.38401
0
LINE
8
BLACK
6
CONTINUOUS
10
5.16818
20
-4.38401
11
5.1654
21
-4.3836
0
LINE
8
BLACK
6
CONTINUOUS
10
5.1654
20
-4.3836
11
5.16327
21
-4.38176
0
LINE
8
BLACK
6
CONTINUOUS
10
5.16327
20
-4.38176
11
5.16248
21
-4.37906
0
LINE
8
BLACK
6
CONTINUOUS
10
5.16248
20
-4.37906
11
5.16248
21
-4.26094
0
LINE
8
BLACK
6
CONTINUOUS
10
5.16248
20
-4.26094
11
5.16269
21
-4.25952
0
LINE
8
BLACK
6
CONTINUOUS
10
5.16269
20
-4.25952
11
5.16421
21
-4.25716
0
LINE
8
BLACK
6
CONTINUOUS
10
5.16421
20
-4.25716
11
5.16678
21
-4.25599
0
LINE
8
BLACK
6
CONTINUOUS
10
5.16678
20
-4.25599
11
5.16956
21
-4.2564
0
LINE
8
BLACK
6
CONTINUOUS
10
5.44061
20
-4.31064
11
5.4413
21
-4.31231
0
LINE
8
BLACK
6
CONTINUOUS
10
5.4413
20
-4.31231
11
5.4413
21
-4.33288
0
LINE
8
BLACK
6
CONTINUOUS
10
5.4413
20
-4.33288
11
5.44061
21
-4.33455
0
LINE
8
BLACK
6
CONTINUOUS
10
5.44061
20
-4.33455
11
5.43894
21
-4.33525
0
LINE
8
BLACK
6
CONTINUOUS
10
5.43894
20
-4.33525
11
5.43727
21
-4.33455
0
LINE
8
BLACK
6
CONTINUOUS
10
5.43727
20
-4.33455
11
5.43657
21
-4.33288
0
LINE
8
BLACK
6
CONTINUOUS
10
5.43657
20
-4.33288
11
5.43657
21
-4.31231
0
LINE
8
BLACK
6
CONTINUOUS
10
5.43657
20
-4.31231
11
5.43727
21
-4.31064
0
LINE
8
BLACK
6
CONTINUOUS
10
5.43727
20
-4.31064
11
5.43894
21
-4.30995
0
LINE
8
BLACK
6
CONTINUOUS
10
5.43894
20
-4.30995
11
5.44061
21
-4.31064
0
LINE
8
BLACK
6
CONTINUOUS
10
5.38273
20
-4.31064
11
5.38343
21
-4.31231
0
LINE
8
BLACK
6
CONTINUOUS
10
5.38343
20
-4.31231
11
5.38343
21
-4.33288
0
LINE
8
BLACK
6
CONTINUOUS
10
5.38343
20
-4.33288
11
5.38273
21
-4.33455
0
LINE
8
BLACK
6
CONTINUOUS
10
5.38273
20
-4.33455
11
5.38106
21
-4.33525
0
LINE
8
BLACK
6
CONTINUOUS
10
5.38106
20
-4.33525
11
5.37939
21
-4.33455
0
LINE
8
BLACK
6
CONTINUOUS
10
5.37939
20
-4.33455
11
5.3787
21
-4.33288
0
LINE
8
BLACK
6
CONTINUOUS
10
5.3787
20
-4.33288
11
5.3787
21
-4.31231
0
LINE
8
BLACK
6
CONTINUOUS
10
5.3787
20
-4.31231
11
5.37939
21
-4.31064
0
LINE
8
BLACK
6
CONTINUOUS
10
5.37939
20
-4.31064
11
5.38106
21
-4.30995
0
LINE
8
BLACK
6
CONTINUOUS
10
5.38106
20
-4.30995
11
5.38273
21
-4.31064
0
LINE
8
BLACK
6
CONTINUOUS
10
5.53061
20
-4.31064
11
5.5313
21
-4.31231
0
LINE
8
BLACK
6
CONTINUOUS
10
5.5313
20
-4.31231
11
5.5313
21
-4.33288
0
LINE
8
BLACK
6
CONTINUOUS
10
5.5313
20
-4.33288
11
5.53061
21
-4.33455
0
LINE
8
BLACK
6
CONTINUOUS
10
5.53061
20
-4.33455
11
5.52894
21
-4.33525
0
LINE
8
BLACK
6
CONTINUOUS
10
5.52894
20
-4.33525
11
5.52727
21
-4.33455
0
LINE
8
BLACK
6
CONTINUOUS
10
5.52727
20
-4.33455
11
5.52657
21
-4.33288
0
LINE
8
BLACK
6
CONTINUOUS
10
5.52657
20
-4.33288
11
5.52657
21
-4.31231
0
LINE
8
BLACK
6
CONTINUOUS
10
5.52657
20
-4.31231
11
5.52727
21
-4.31064
0
LINE
8
BLACK
6
CONTINUOUS
10
5.52727
20
-4.31064
11
5.52894
21
-4.30995
0
LINE
8
BLACK
6
CONTINUOUS
10
5.52894
20
-4.30995
11
5.53061
21
-4.31064
0
LINE
8
BLACK
6
CONTINUOUS
10
5.47273
20
-4.31064
11
5.47343
21
-4.31231
0
LINE
8
BLACK
6
CONTINUOUS
10
5.47343
20
-4.31231
11
5.47343
21
-4.33288
0
LINE
8
BLACK
6
CONTINUOUS
10
5.47343
20
-4.33288
11
5.47273
21
-4.33455
0
LINE
8
BLACK
6
CONTINUOUS
10
5.47273
20
-4.33455
11
5.47106
21
-4.33525
0
LINE
8
BLACK
6
CONTINUOUS
10
5.47106
20
-4.33525
11
5.46939
21
-4.33455
0
LINE
8
BLACK
6
CONTINUOUS
10
5.46939
20
-4.33455
11
5.4687
21
-4.33288
0
LINE
8
BLACK
6
CONTINUOUS
10
5.4687
20
-4.33288
11
5.4687
21
-4.31231
0
LINE
8
BLACK
6
CONTINUOUS
10
5.4687
20
-4.31231
11
5.46939
21
-4.31064
0
LINE
8
BLACK
6
CONTINUOUS
10
5.46939
20
-4.31064
11
5.47106
21
-4.30995
0
LINE
8
BLACK
6
CONTINUOUS
10
5.47106
20
-4.30995
11
5.47273
21
-4.31064
0
LINE
8
BLACK
6
CONTINUOUS
10
5.1507
20
-4.28207
11
5.15283
21
-4.28392
0
LINE
8
BLACK
6
CONTINUOUS
10
5.15283
20
-4.28392
11
5.15362
21
-4.28662
0
LINE
8
BLACK
6
CONTINUOUS
10
5.15362
20
-4.28662
11
5.15362
21
-4.31519
0
LINE
8
BLACK
6
CONTINUOUS
10
5.15362
20
-4.31519
11
5.15341
21
-4.31661
0
LINE
8
BLACK
6
CONTINUOUS
10
5.15341
20
-4.31661
11
5.15189
21
-4.31898
0
LINE
8
BLACK
6
CONTINUOUS
10
5.15189
20
-4.31898
11
5.14932
21
-4.32014
0
LINE
8
BLACK
6
CONTINUOUS
10
5.14932
20
-4.32014
11
5.14654
21
-4.31974
0
LINE
8
BLACK
6
CONTINUOUS
10
5.14654
20
-4.31974
11
5.14441
21
-4.31789
0
LINE
8
BLACK
6
CONTINUOUS
10
5.14441
20
-4.31789
11
5.14362
21
-4.31519
0
LINE
8
BLACK
6
CONTINUOUS
10
5.14362
20
-4.31519
11
5.14362
21
-4.3059
0
LINE
8
BLACK
6
CONTINUOUS
10
5.14362
20
-4.3059
11
5.09862
21
-4.3059
0
LINE
8
BLACK
6
CONTINUOUS
10
5.09862
20
-4.3059
11
5.09736
21
-4.30572
0
LINE
8
BLACK
6
CONTINUOUS
10
5.09736
20
-4.30572
11
5.09728
21
-4.30572
0
LINE
8
BLACK
6
CONTINUOUS
10
5.09728
20
-4.30572
11
5.09726
21
-4.30571
0
LINE
8
BLACK
6
CONTINUOUS
10
5.09726
20
-4.30571
11
5.0972
21
-4.3057
0
LINE
8
BLACK
6
CONTINUOUS
10
5.0972
20
-4.3057
11
5.09605
21
-4.30496
0
LINE
8
BLACK
6
CONTINUOUS
10
5.09605
20
-4.30496
11
5.09489
21
-4.30424
0
LINE
8
BLACK
6
CONTINUOUS
10
5.09489
20
-4.30424
11
5.09487
21
-4.3042
0
LINE
8
BLACK
6
CONTINUOUS
10
5.09487
20
-4.3042
11
5.09483
21
-4.30417
0
LINE
8
BLACK
6
CONTINUOUS
10
5.09483
20
-4.30417
11
5.09427
21
-4.30293
0
LINE
8
BLACK
6
CONTINUOUS
10
5.09427
20
-4.30293
11
5.09368
21
-4.30169
0
LINE
8
BLACK
6
CONTINUOUS
10
5.09368
20
-4.30169
11
5.09369
21
-4.30165
0
LINE
8
BLACK
6
CONTINUOUS
10
5.09369
20
-4.30165
11
5.09367
21
-4.30161
0
LINE
8
BLACK
6
CONTINUOUS
10
5.09367
20
-4.30161
11
5.09386
21
-4.30026
0
LINE
8
BLACK
6
CONTINUOUS
10
5.09386
20
-4.30026
11
5.09404
21
-4.2989
0
LINE
8
BLACK
6
CONTINUOUS
10
5.09404
20
-4.2989
11
5.09407
21
-4.29887
0
LINE
8
BLACK
6
CONTINUOUS
10
5.09407
20
-4.29887
11
5.09407
21
-4.29882
0
LINE
8
BLACK
6
CONTINUOUS
10
5.09407
20
-4.29882
11
5.09497
21
-4.29779
0
LINE
8
BLACK
6
CONTINUOUS
10
5.09497
20
-4.29779
11
5.09585
21
-4.29674
0
LINE
8
BLACK
6
CONTINUOUS
10
5.09585
20
-4.29674
11
5.10258
21
-4.29226
0
LINE
8
BLACK
6
CONTINUOUS
10
5.10258
20
-4.29226
11
5.10641
21
-4.28842
0
LINE
8
BLACK
6
CONTINUOUS
10
5.10641
20
-4.28842
11
5.10843
21
-4.28438
0
LINE
8
BLACK
6
CONTINUOUS
10
5.10843
20
-4.28438
11
5.10925
21
-4.2832
0
LINE
8
BLACK
6
CONTINUOUS
10
5.10925
20
-4.2832
11
5.11168
21
-4.28177
0
LINE
8
BLACK
6
CONTINUOUS
10
5.11168
20
-4.28177
11
5.11449
21
-4.28188
0
LINE
8
BLACK
6
CONTINUOUS
10
5.11449
20
-4.28188
11
5.1168
21
-4.28348
0
LINE
8
BLACK
6
CONTINUOUS
10
5.1168
20
-4.28348
11
5.11788
21
-4.28608
0
LINE
8
BLACK
6
CONTINUOUS
10
5.11788
20
-4.28608
11
5.11738
21
-4.28886
0
LINE
8
BLACK
6
CONTINUOUS
10
5.11738
20
-4.28886
11
5.115
21
-4.29362
0
LINE
8
BLACK
6
CONTINUOUS
10
5.115
20
-4.29362
11
5.11418
21
-4.2948
0
LINE
8
BLACK
6
CONTINUOUS
10
5.11418
20
-4.2948
11
5.1141
21
-4.29484
0
LINE
8
BLACK
6
CONTINUOUS
10
5.1141
20
-4.29484
11
5.11406
21
-4.29492
0
LINE
8
BLACK
6
CONTINUOUS
10
5.11406
20
-4.29492
11
5.11307
21
-4.2959
0
LINE
8
BLACK
6
CONTINUOUS
10
5.11307
20
-4.2959
11
5.14362
21
-4.2959
0
LINE
8
BLACK
6
CONTINUOUS
10
5.14362
20
-4.2959
11
5.14362
21
-4.28662
0
LINE
8
BLACK
6
CONTINUOUS
10
5.14362
20
-4.28662
11
5.14382
21
-4.2852
0
LINE
8
BLACK
6
CONTINUOUS
10
5.14382
20
-4.2852
11
5.14535
21
-4.28283
0
LINE
8
BLACK
6
CONTINUOUS
10
5.14535
20
-4.28283
11
5.14791
21
-4.28167
0
LINE
8
BLACK
6
CONTINUOUS
10
5.14791
20
-4.28167
11
5.1507
21
-4.28207
0
LINE
8
BLACK
6
CONTINUOUS
10
5.12826
20
-4.23177
11
5.1284
21
-4.23177
0
LINE
8
BLACK
6
CONTINUOUS
10
5.1284
20
-4.23177
11
5.13793
21
-4.23415
0
LINE
8
BLACK
6
CONTINUOUS
10
5.13793
20
-4.23415
11
5.13877
21
-4.2345
0
LINE
8
BLACK
6
CONTINUOUS
10
5.13877
20
-4.2345
11
5.13895
21
-4.23453
0
LINE
8
BLACK
6
CONTINUOUS
10
5.13895
20
-4.23453
11
5.14371
21
-4.23691
0
LINE
8
BLACK
6
CONTINUOUS
10
5.14371
20
-4.23691
11
5.14489
21
-4.23773
0
LINE
8
BLACK
6
CONTINUOUS
10
5.14489
20
-4.23773
11
5.14493
21
-4.2378
0
LINE
8
BLACK
6
CONTINUOUS
10
5.14493
20
-4.2378
11
5.14501
21
-4.23785
0
LINE
8
BLACK
6
CONTINUOUS
10
5.14501
20
-4.23785
11
5.14977
21
-4.24261
0
LINE
8
BLACK
6
CONTINUOUS
10
5.14977
20
-4.24261
11
5.15063
21
-4.24376
0
LINE
8
BLACK
6
CONTINUOUS
10
5.15063
20
-4.24376
11
5.15073
21
-4.24419
0
LINE
8
BLACK
6
CONTINUOUS
10
5.15073
20
-4.24419
11
5.15098
21
-4.24456
0
LINE
8
BLACK
6
CONTINUOUS
10
5.15098
20
-4.24456
11
5.15336
21
-4.2517
0
LINE
8
BLACK
6
CONTINUOUS
10
5.15336
20
-4.2517
11
5.15362
21
-4.25312
0
LINE
8
BLACK
6
CONTINUOUS
10
5.15362
20
-4.25312
11
5.15359
21
-4.2532
0
LINE
8
BLACK
6
CONTINUOUS
10
5.15359
20
-4.2532
11
5.15362
21
-4.25329
0
LINE
8
BLACK
6
CONTINUOUS
10
5.15362
20
-4.25329
11
5.15362
21
-4.25805
0
LINE
8
BLACK
6
CONTINUOUS
10
5.15362
20
-4.25805
11
5.15341
21
-4.25947
0
LINE
8
BLACK
6
CONTINUOUS
10
5.15341
20
-4.25947
11
5.15337
21
-4.25954
0
LINE
8
BLACK
6
CONTINUOUS
10
5.15337
20
-4.25954
11
5.15336
21
-4.25963
0
LINE
8
BLACK
6
CONTINUOUS
10
5.15336
20
-4.25963
11
5.15098
21
-4.26677
0
LINE
8
BLACK
6
CONTINUOUS
10
5.15098
20
-4.26677
11
5.15034
21
-4.26805
0
LINE
8
BLACK
6
CONTINUOUS
10
5.15034
20
-4.26805
11
5.14999
21
-4.26833
0
LINE
8
BLACK
6
CONTINUOUS
10
5.14999
20
-4.26833
11
5.14977
21
-4.26873
0
LINE
8
BLACK
6
CONTINUOUS
10
5.14977
20
-4.26873
11
5.14739
21
-4.27111
0
LINE
8
BLACK
6
CONTINUOUS
10
5.14739
20
-4.27111
11
5.14624
21
-4.27197
0
LINE
8
BLACK
6
CONTINUOUS
10
5.14624
20
-4.27197
11
5.14349
21
-4.27256
0
LINE
8
BLACK
6
CONTINUOUS
10
5.14349
20
-4.27256
11
5.14086
21
-4.27157
0
LINE
8
BLACK
6
CONTINUOUS
10
5.14086
20
-4.27157
11
5.13917
21
-4.26931
0
LINE
8
BLACK
6
CONTINUOUS
10
5.13917
20
-4.26931
11
5.13897
21
-4.26651
0
LINE
8
BLACK
6
CONTINUOUS
10
5.13897
20
-4.26651
11
5.14032
21
-4.26404
0
LINE
8
BLACK
6
CONTINUOUS
10
5.14032
20
-4.26404
11
5.14187
21
-4.26249
0
LINE
8
BLACK
6
CONTINUOUS
10
5.14187
20
-4.26249
11
5.14362
21
-4.25724
0
LINE
8
BLACK
6
CONTINUOUS
10
5.14362
20
-4.25724
11
5.14362
21
-4.2541
0
LINE
8
BLACK
6
CONTINUOUS
10
5.14362
20
-4.2541
11
5.14187
21
-4.24884
0
LINE
8
BLACK
6
CONTINUOUS
10
5.14187
20
-4.24884
11
5.13851
21
-4.24549
0
LINE
8
BLACK
6
CONTINUOUS
10
5.13851
20
-4.24549
11
5.13497
21
-4.24372
0
LINE
8
BLACK
6
CONTINUOUS
10
5.13497
20
-4.24372
11
5.12657
21
-4.24162
0
LINE
8
BLACK
6
CONTINUOUS
10
5.12657
20
-4.24162
11
5.12066
21
-4.24162
0
LINE
8
BLACK
6
CONTINUOUS
10
5.12066
20
-4.24162
11
5.11227
21
-4.24372
0
LINE
8
BLACK
6
CONTINUOUS
10
5.11227
20
-4.24372
11
5.10872
21
-4.24549
0
LINE
8
BLACK
6
CONTINUOUS
10
5.10872
20
-4.24549
11
5.10537
21
-4.24884
0
LINE
8
BLACK
6
CONTINUOUS
10
5.10537
20
-4.24884
11
5.10362
21
-4.2541
0
LINE
8
BLACK
6
CONTINUOUS
10
5.10362
20
-4.2541
11
5.10362
21
-4.25724
0
LINE
8
BLACK
6
CONTINUOUS
10
5.10362
20
-4.25724
11
5.10537
21
-4.26249
0
LINE
8
BLACK
6
CONTINUOUS
10
5.10537
20
-4.26249
11
5.10692
21
-4.26404
0
LINE
8
BLACK
6
CONTINUOUS
10
5.10692
20
-4.26404
11
5.10778
21
-4.26519
0
LINE
8
BLACK
6
CONTINUOUS
10
5.10778
20
-4.26519
11
5.10837
21
-4.26794
0
LINE
8
BLACK
6
CONTINUOUS
10
5.10837
20
-4.26794
11
5.10738
21
-4.27057
0
LINE
8
BLACK
6
CONTINUOUS
10
5.10738
20
-4.27057
11
5.10512
21
-4.27226
0
LINE
8
BLACK
6
CONTINUOUS
10
5.10512
20
-4.27226
11
5.10232
21
-4.27246
0
LINE
8
BLACK
6
CONTINUOUS
10
5.10232
20
-4.27246
11
5.09985
21
-4.27111
0
LINE
8
BLACK
6
CONTINUOUS
10
5.09985
20
-4.27111
11
5.09746
21
-4.26873
0
LINE
8
BLACK
6
CONTINUOUS
10
5.09746
20
-4.26873
11
5.09661
21
-4.26758
0
LINE
8
BLACK
6
CONTINUOUS
10
5.09661
20
-4.26758
11
5.09651
21
-4.26714
0
LINE
8
BLACK
6
CONTINUOUS
10
5.09651
20
-4.26714
11
5.09626
21
-4.26677
0
LINE
8
BLACK
6
CONTINUOUS
10
5.09626
20
-4.26677
11
5.09388
21
-4.25963
0
LINE
8
BLACK
6
CONTINUOUS
10
5.09388
20
-4.25963
11
5.09362
21
-4.25822
0
LINE
8
BLACK
6
CONTINUOUS
10
5.09362
20
-4.25822
11
5.09364
21
-4.25813
0
LINE
8
BLACK
6
CONTINUOUS
10
5.09364
20
-4.25813
11
5.09362
21
-4.25805
0
LINE
8
BLACK
6
CONTINUOUS
10
5.09362
20
-4.25805
11
5.09362
21
-4.25329
0
LINE
8
BLACK
6
CONTINUOUS
10
5.09362
20
-4.25329
11
5.09382
21
-4.25187
0
LINE
8
BLACK
6
CONTINUOUS
10
5.09382
20
-4.25187
11
5.09387
21
-4.25179
0
LINE
8
BLACK
6
CONTINUOUS
10
5.09387
20
-4.25179
11
5.09388
21
-4.2517
0
LINE
8
BLACK
6
CONTINUOUS
10
5.09388
20
-4.2517
11
5.09626
21
-4.24456
0
LINE
8
BLACK
6
CONTINUOUS
10
5.09626
20
-4.24456
11
5.0969
21
-4.24328
0
LINE
8
BLACK
6
CONTINUOUS
10
5.0969
20
-4.24328
11
5.09725
21
-4.243
0
LINE
8
BLACK
6
CONTINUOUS
10
5.09725
20
-4.243
11
5.09746
21
-4.24261
0
LINE
8
BLACK
6
CONTINUOUS
10
5.09746
20
-4.24261
11
5.10223
21
-4.23785
0
LINE
8
BLACK
6
CONTINUOUS
10
5.10223
20
-4.23785
11
5.10338
21
-4.23699
0
LINE
8
BLACK
6
CONTINUOUS
10
5.10338
20
-4.23699
11
5.10346
21
-4.23697
0
LINE
8
BLACK
6
CONTINUOUS
10
5.10346
20
-4.23697
11
5.10353
21
-4.23691
0
LINE
8
BLACK
6
CONTINUOUS
10
5.10353
20
-4.23691
11
5.10829
21
-4.23453
0
LINE
8
BLACK
6
CONTINUOUS
10
5.10829
20
-4.23453
11
5.10916
21
-4.23424
0
LINE
8
BLACK
6
CONTINUOUS
10
5.10916
20
-4.23424
11
5.10931
21
-4.23415
0
LINE
8
BLACK
6
CONTINUOUS
10
5.10931
20
-4.23415
11
5.11883
21
-4.23177
0
LINE
8
BLACK
6
CONTINUOUS
10
5.11883
20
-4.23177
11
5.11991
21
-4.23166
0
LINE
8
BLACK
6
CONTINUOUS
10
5.11991
20
-4.23166
11
5.12005
21
-4.23162
0
LINE
8
BLACK
6
CONTINUOUS
10
5.12005
20
-4.23162
11
5.12719
21
-4.23162
0
LINE
8
BLACK
6
CONTINUOUS
10
5.12719
20
-4.23162
11
5.12826
21
-4.23177
0
LINE
8
BLACK
6
CONTINUOUS
10
5.15004
20
-4.2104
11
5.1524
21
-4.21192
0
LINE
8
BLACK
6
CONTINUOUS
10
5.1524
20
-4.21192
11
5.15357
21
-4.21449
0
LINE
8
BLACK
6
CONTINUOUS
10
5.15357
20
-4.21449
11
5.15317
21
-4.21727
0
LINE
8
BLACK
6
CONTINUOUS
10
5.15317
20
-4.21727
11
5.15132
21
-4.2194
0
LINE
8
BLACK
6
CONTINUOUS
10
5.15132
20
-4.2194
11
5.14862
21
-4.22019
0
LINE
8
BLACK
6
CONTINUOUS
10
5.14862
20
-4.22019
11
5.09862
21
-4.22019
0
LINE
8
BLACK
6
CONTINUOUS
10
5.09862
20
-4.22019
11
5.0972
21
-4.21998
0
LINE
8
BLACK
6
CONTINUOUS
10
5.0972
20
-4.21998
11
5.09483
21
-4.21846
0
LINE
8
BLACK
6
CONTINUOUS
10
5.09483
20
-4.21846
11
5.09367
21
-4.21589
0
LINE
8
BLACK
6
CONTINUOUS
10
5.09367
20
-4.21589
11
5.09407
21
-4.21311
0
LINE
8
BLACK
6
CONTINUOUS
10
5.09407
20
-4.21311
11
5.09592
21
-4.21098
0
LINE
8
BLACK
6
CONTINUOUS
10
5.09592
20
-4.21098
11
5.09862
21
-4.21019
0
LINE
8
BLACK
6
CONTINUOUS
10
5.09862
20
-4.21019
11
5.14862
21
-4.21019
0
LINE
8
BLACK
6
CONTINUOUS
10
5.14862
20
-4.21019
11
5.15004
21
-4.2104
0
LINE
8
BLACK
6
CONTINUOUS
10
5.46061
20
-4.13727
11
5.4613
21
-4.13894
0
LINE
8
BLACK
6
CONTINUOUS
10
5.4613
20
-4.13894
11
5.46061
21
-4.14061
0
LINE
8
BLACK
6
CONTINUOUS
10
5.46061
20
-4.14061
11
5.45894
21
-4.1413
0
LINE
8
BLACK
6
CONTINUOUS
10
5.45894
20
-4.1413
11
5.44106
21
-4.1413
0
LINE
8
BLACK
6
CONTINUOUS
10
5.44106
20
-4.1413
11
5.43939
21
-4.14061
0
LINE
8
BLACK
6
CONTINUOUS
10
5.43939
20
-4.14061
11
5.4387
21
-4.13894
0
LINE
8
BLACK
6
CONTINUOUS
10
5.4387
20
-4.13894
11
5.43939
21
-4.13727
0
LINE
8
BLACK
6
CONTINUOUS
10
5.43939
20
-4.13727
11
5.44106
21
-4.13657
0
LINE
8
BLACK
6
CONTINUOUS
10
5.44106
20
-4.13657
11
5.45894
21
-4.13657
0
LINE
8
BLACK
6
CONTINUOUS
10
5.45894
20
-4.13657
11
5.46061
21
-4.13727
0
LINE
8
BLACK
6
CONTINUOUS
10
5.30061
20
-4.13727
11
5.3013
21
-4.13894
0
LINE
8
BLACK
6
CONTINUOUS
10
5.3013
20
-4.13894
11
5.30061
21
-4.14061
0
LINE
8
BLACK
6
CONTINUOUS
10
5.30061
20
-4.14061
11
5.29894
21
-4.1413
0
LINE
8
BLACK
6
CONTINUOUS
10
5.29894
20
-4.1413
11
5.28106
21
-4.1413
0
LINE
8
BLACK
6
CONTINUOUS
10
5.28106
20
-4.1413
11
5.27939
21
-4.14061
0
LINE
8
BLACK
6
CONTINUOUS
10
5.27939
20
-4.14061
11
5.2787
21
-4.13894
0
LINE
8
BLACK
6
CONTINUOUS
10
5.2787
20
-4.13894
11
5.27939
21
-4.13727
0
LINE
8
BLACK
6
CONTINUOUS
10
5.27939
20
-4.13727
11
5.28106
21
-4.13657
0
LINE
8
BLACK
6
CONTINUOUS
10
5.28106
20
-4.13657
11
5.29894
21
-4.13657
0
LINE
8
BLACK
6
CONTINUOUS
10
5.29894
20
-4.13657
11
5.30061
21
-4.13727
0
LINE
8
BLACK
6
CONTINUOUS
10
5.53097
20
-4.08562
11
5.53114
21
-4.08561
0
LINE
8
BLACK
6
CONTINUOUS
10
5.53114
20
-4.08561
11
5.53183
21
-4.08611
0
LINE
8
BLACK
6
CONTINUOUS
10
5.53183
20
-4.08611
11
5.53258
21
-4.08654
0
LINE
8
BLACK
6
CONTINUOUS
10
5.53258
20
-4.08654
11
5.53263
21
-4.0867
0
LINE
8
BLACK
6
CONTINUOUS
10
5.53263
20
-4.0867
11
5.53277
21
-4.0868
0
LINE
8
BLACK
6
CONTINUOUS
10
5.53277
20
-4.0868
11
5.53636
21
-4.09218
0
LINE
8
BLACK
6
CONTINUOUS
10
5.53636
20
-4.09218
11
5.53956
21
-4.09539
0
LINE
8
BLACK
6
CONTINUOUS
10
5.53956
20
-4.09539
11
5.54288
21
-4.09705
0
LINE
8
BLACK
6
CONTINUOUS
10
5.54288
20
-4.09705
11
5.54371
21
-4.09766
0
LINE
8
BLACK
6
CONTINUOUS
10
5.54371
20
-4.09766
11
5.54451
21
-4.09951
0
LINE
8
BLACK
6
CONTINUOUS
10
5.54451
20
-4.09951
11
5.54394
21
-4.10145
0
LINE
8
BLACK
6
CONTINUOUS
10
5.54394
20
-4.10145
11
5.54225
21
-4.10256
0
LINE
8
BLACK
6
CONTINUOUS
10
5.54225
20
-4.10256
11
5.54024
21
-4.10233
0
LINE
8
BLACK
6
CONTINUOUS
10
5.54024
20
-4.10233
11
5.53649
21
-4.10046
0
LINE
8
BLACK
6
CONTINUOUS
10
5.53649
20
-4.10046
11
5.53578
21
-4.09993
0
LINE
8
BLACK
6
CONTINUOUS
10
5.53578
20
-4.09993
11
5.53573
21
-4.0999
0
LINE
8
BLACK
6
CONTINUOUS
10
5.53573
20
-4.0999
11
5.53327
21
-4.09744
0
LINE
8
BLACK
6
CONTINUOUS
10
5.53327
20
-4.09744
11
5.53327
21
-4.12486
0
LINE
8
BLACK
6
CONTINUOUS
10
5.53327
20
-4.12486
11
5.54156
21
-4.12486
0
LINE
8
BLACK
6
CONTINUOUS
10
5.54156
20
-4.12486
11
5.54257
21
-4.12504
0
LINE
8
BLACK
6
CONTINUOUS
10
5.54257
20
-4.12504
11
5.54412
21
-4.12633
0
LINE
8
BLACK
6
CONTINUOUS
10
5.54412
20
-4.12633
11
5.54447
21
-4.12832
0
LINE
8
BLACK
6
CONTINUOUS
10
5.54447
20
-4.12832
11
5.54346
21
-4.13007
0
LINE
8
BLACK
6
CONTINUOUS
10
5.54346
20
-4.13007
11
5.54156
21
-4.13076
0
LINE
8
BLACK
6
CONTINUOUS
10
5.54156
20
-4.13076
11
5.51907
21
-4.13076
0
LINE
8
BLACK
6
CONTINUOUS
10
5.51907
20
-4.13076
11
5.51806
21
-4.13058
0
LINE
8
BLACK
6
CONTINUOUS
10
5.51806
20
-4.13058
11
5.51651
21
-4.12929
0
LINE
8
BLACK
6
CONTINUOUS
10
5.51651
20
-4.12929
11
5.51616
21
-4.1273
0
LINE
8
BLACK
6
CONTINUOUS
10
5.51616
20
-4.1273
11
5.51717
21
-4.12555
0
LINE
8
BLACK
6
CONTINUOUS
10
5.51717
20
-4.12555
11
5.51907
21
-4.12486
0
LINE
8
BLACK
6
CONTINUOUS
10
5.51907
20
-4.12486
11
5.52736
21
-4.12486
0
LINE
8
BLACK
6
CONTINUOUS
10
5.52736
20
-4.12486
11
5.52736
21
-4.08844
0
LINE
8
BLACK
6
CONTINUOUS
10
5.52736
20
-4.08844
11
5.52754
21
-4.08743
0
LINE
8
BLACK
6
CONTINUOUS
10
5.52754
20
-4.08743
11
5.52765
21
-4.0873
0
LINE
8
BLACK
6
CONTINUOUS
10
5.52765
20
-4.0873
11
5.52767
21
-4.08713
0
LINE
8
BLACK
6
CONTINUOUS
10
5.52767
20
-4.08713
11
5.52829
21
-4.08654
0
LINE
8
BLACK
6
CONTINUOUS
10
5.52829
20
-4.08654
11
5.52884
21
-4.08588
0
LINE
8
BLACK
6
CONTINUOUS
10
5.52884
20
-4.08588
11
5.52901
21
-4.08585
0
LINE
8
BLACK
6
CONTINUOUS
10
5.52901
20
-4.08585
11
5.52913
21
-4.08574
0
LINE
8
BLACK
6
CONTINUOUS
10
5.52913
20
-4.08574
11
5.52998
21
-4.08568
0
LINE
8
BLACK
6
CONTINUOUS
10
5.52998
20
-4.08568
11
5.53083
21
-4.08553
0
LINE
8
BLACK
6
CONTINUOUS
10
5.53083
20
-4.08553
11
5.53097
21
-4.08562
0
LINE
8
BLACK
6
CONTINUOUS
10
5.17695
20
-4.08567
11
5.17708
21
-4.08578
0
LINE
8
BLACK
6
CONTINUOUS
10
5.17708
20
-4.08578
11
5.17726
21
-4.0858
0
LINE
8
BLACK
6
CONTINUOUS
10
5.17726
20
-4.0858
11
5.18101
21
-4.08767
0
LINE
8
BLACK
6
CONTINUOUS
10
5.18101
20
-4.08767
11
5.18172
21
-4.0882
0
LINE
8
BLACK
6
CONTINUOUS
10
5.18172
20
-4.0882
11
5.18178
21
-4.08823
0
LINE
8
BLACK
6
CONTINUOUS
10
5.18178
20
-4.08823
11
5.18365
21
-4.0901
0
LINE
8
BLACK
6
CONTINUOUS
10
5.18365
20
-4.0901
11
5.18424
21
-4.09094
0
LINE
8
BLACK
6
CONTINUOUS
10
5.18424
20
-4.09094
11
5.18442
21
-4.09295
0
LINE
8
BLACK
6
CONTINUOUS
10
5.18442
20
-4.09295
11
5.18326
21
-4.09461
0
LINE
8
BLACK
6
CONTINUOUS
10
5.18326
20
-4.09461
11
5.18131
21
-4.09513
0
LINE
8
BLACK
6
CONTINUOUS
10
5.18131
20
-4.09513
11
5.17948
21
-4.09428
0
LINE
8
BLACK
6
CONTINUOUS
10
5.17948
20
-4.09428
11
5.17794
21
-4.09274
0
LINE
8
BLACK
6
CONTINUOUS
10
5.17794
20
-4.09274
11
5.17524
21
-4.09139
0
LINE
8
BLACK
6
CONTINUOUS
10
5.17524
20
-4.09139
11
5.16726
21
-4.09139
0
LINE
8
BLACK
6
CONTINUOUS
10
5.16726
20
-4.09139
11
5.16456
21
-4.09274
0
LINE
8
BLACK
6
CONTINUOUS
10
5.16456
20
-4.09274
11
5.16337
21
-4.09394
0
LINE
8
BLACK
6
CONTINUOUS
10
5.16337
20
-4.09394
11
5.16202
21
-4.09664
0
LINE
8
BLACK
6
CONTINUOUS
10
5.16202
20
-4.09664
11
5.16202
21
-4.09921
0
LINE
8
BLACK
6
CONTINUOUS
10
5.16202
20
-4.09921
11
5.16352
21
-4.10372
0
LINE
8
BLACK
6
CONTINUOUS
10
5.16352
20
-4.10372
11
5.18553
21
-4.12572
0
LINE
8
BLACK
6
CONTINUOUS
10
5.18553
20
-4.12572
11
5.1859
21
-4.12625
0
LINE
8
BLACK
6
CONTINUOUS
10
5.1859
20
-4.12625
11
5.186
21
-4.12633
0
LINE
8
BLACK
6
CONTINUOUS
10
5.186
20
-4.12633
11
5.18601
21
-4.12641
0
LINE
8
BLACK
6
CONTINUOUS
10
5.18601
20
-4.12641
11
5.18611
21
-4.12656
0
LINE
8
BLACK
6
CONTINUOUS
10
5.18611
20
-4.12656
11
5.18619
21
-4.12745
0
LINE
8
BLACK
6
CONTINUOUS
10
5.18619
20
-4.12745
11
5.18635
21
-4.12832
0
LINE
8
BLACK
6
CONTINUOUS
10
5.18635
20
-4.12832
11
5.18628
21
-4.12844
0
LINE
8
BLACK
6
CONTINUOUS
10
5.18628
20
-4.12844
11
5.18629
21
-4.12857
0
LINE
8
BLACK
6
CONTINUOUS
10
5.18629
20
-4.12857
11
5.18578
21
-4.1293
0
LINE
8
BLACK
6
CONTINUOUS
10
5.18578
20
-4.1293
11
5.18534
21
-4.13007
0
LINE
8
BLACK
6
CONTINUOUS
10
5.18534
20
-4.13007
11
5.18521
21
-4.13012
0
LINE
8
BLACK
6
CONTINUOUS
10
5.18521
20
-4.13012
11
5.18513
21
-4.13023
0
LINE
8
BLACK
6
CONTINUOUS
10
5.18513
20
-4.13023
11
5.18427
21
-4.13046
0
LINE
8
BLACK
6
CONTINUOUS
10
5.18427
20
-4.13046
11
5.18344
21
-4.13076
0
LINE
8
BLACK
6
CONTINUOUS
10
5.18344
20
-4.13076
11
5.15907
21
-4.13076
0
LINE
8
BLACK
6
CONTINUOUS
10
5.15907
20
-4.13076
11
5.15806
21
-4.13058
0
LINE
8
BLACK
6
CONTINUOUS
10
5.15806
20
-4.13058
11
5.15651
21
-4.12929
0
LINE
8
BLACK
6
CONTINUOUS
10
5.15651
20
-4.12929
11
5.15616
21
-4.1273
0
LINE
8
BLACK
6
CONTINUOUS
10
5.15616
20
-4.1273
11
5.15717
21
-4.12555
0
LINE
8
BLACK
6
CONTINUOUS
10
5.15717
20
-4.12555
11
5.15907
21
-4.12486
0
LINE
8
BLACK
6
CONTINUOUS
10
5.15907
20
-4.12486
11
5.17631
21
-4.12486
0
LINE
8
BLACK
6
CONTINUOUS
10
5.17631
20
-4.12486
11
5.15885
21
-4.1074
0
LINE
8
BLACK
6
CONTINUOUS
10
5.15885
20
-4.1074
11
5.15827
21
-4.10656
0
LINE
8
BLACK
6
CONTINUOUS
10
5.15827
20
-4.10656
11
5.15825
21
-4.10639
0
LINE
8
BLACK
6
CONTINUOUS
10
5.15825
20
-4.10639
11
5.15814
21
-4.10625
0
LINE
8
BLACK
6
CONTINUOUS
10
5.15814
20
-4.10625
11
5.15627
21
-4.10062
0
LINE
8
BLACK
6
CONTINUOUS
10
5.15627
20
-4.10062
11
5.15614
21
-4.09975
0
LINE
8
BLACK
6
CONTINUOUS
10
5.15614
20
-4.09975
11
5.15611
21
-4.09969
0
LINE
8
BLACK
6
CONTINUOUS
10
5.15611
20
-4.09969
11
5.15611
21
-4.09594
0
LINE
8
BLACK
6
CONTINUOUS
10
5.15611
20
-4.09594
11
5.15629
21
-4.09493
0
LINE
8
BLACK
6
CONTINUOUS
10
5.15629
20
-4.09493
11
5.15641
21
-4.09479
0
LINE
8
BLACK
6
CONTINUOUS
10
5.15641
20
-4.09479
11
5.15643
21
-4.09462
0
LINE
8
BLACK
6
CONTINUOUS
10
5.15643
20
-4.09462
11
5.1583
21
-4.09087
0
LINE
8
BLACK
6
CONTINUOUS
10
5.1583
20
-4.09087
11
5.15883
21
-4.09016
0
LINE
8
BLACK
6
CONTINUOUS
10
5.15883
20
-4.09016
11
5.15885
21
-4.0901
0
LINE
8
BLACK
6
CONTINUOUS
10
5.15885
20
-4.0901
11
5.16073
21
-4.08823
0
LINE
8
BLACK
6
CONTINUOUS
10
5.16073
20
-4.08823
11
5.16145
21
-4.08772
0
LINE
8
BLACK
6
CONTINUOUS
10
5.16145
20
-4.08772
11
5.1615
21
-4.08767
0
LINE
8
BLACK
6
CONTINUOUS
10
5.1615
20
-4.08767
11
5.16524
21
-4.0858
0
LINE
8
BLACK
6
CONTINUOUS
10
5.16524
20
-4.0858
11
5.16623
21
-4.08551
0
LINE
8
BLACK
6
CONTINUOUS
10
5.16623
20
-4.08551
11
5.1664
21
-4.08555
0
LINE
8
BLACK
6
CONTINUOUS
10
5.1664
20
-4.08555
11
5.16657
21
-4.08549
0
LINE
8
BLACK
6
CONTINUOUS
10
5.16657
20
-4.08549
11
5.17594
21
-4.08549
0
LINE
8
BLACK
6
CONTINUOUS
10
5.17594
20
-4.08549
11
5.17695
21
-4.08567
0
LINE
8
BLACK
6
CONTINUOUS
10
5.21944
20
-4.08556
11
5.21957
21
-4.08553
0
LINE
8
BLACK
6
CONTINUOUS
10
5.21957
20
-4.08553
11
5.21969
21
-4.0856
0
LINE
8
BLACK
6
CONTINUOUS
10
5.21969
20
-4.0856
11
5.22007
21
-4.08567
0
LINE
8
BLACK
6
CONTINUOUS
10
5.22007
20
-4.08567
11
5.22066
21
-4.08616
0
LINE
8
BLACK
6
CONTINUOUS
10
5.22066
20
-4.08616
11
5.22132
21
-4.08654
0
LINE
8
BLACK
6
CONTINUOUS
10
5.22132
20
-4.08654
11
5.22141
21
-4.08679
0
LINE
8
BLACK
6
CONTINUOUS
10
5.22141
20
-4.08679
11
5.22162
21
-4.08696
0
LINE
8
BLACK
6
CONTINUOUS
10
5.22162
20
-4.08696
11
5.22175
21
-4.08772
0
LINE
8
BLACK
6
CONTINUOUS
10
5.22175
20
-4.08772
11
5.22201
21
-4.08844
0
LINE
8
BLACK
6
CONTINUOUS
10
5.22201
20
-4.08844
11
5.22201
21
-4.12781
0
LINE
8
BLACK
6
CONTINUOUS
10
5.22201
20
-4.12781
11
5.22183
21
-4.12882
0
LINE
8
BLACK
6
CONTINUOUS
10
5.22183
20
-4.12882
11
5.22054
21
-4.13037
0
LINE
8
BLACK
6
CONTINUOUS
10
5.22054
20
-4.13037
11
5.21855
21
-4.13072
0
LINE
8
BLACK
6
CONTINUOUS
10
5.21855
20
-4.13072
11
5.2168
21
-4.12971
0
LINE
8
BLACK
6
CONTINUOUS
10
5.2168
20
-4.12971
11
5.21611
21
-4.12781
0
LINE
8
BLACK
6
CONTINUOUS
10
5.21611
20
-4.12781
11
5.21611
21
-4.11202
0
LINE
8
BLACK
6
CONTINUOUS
10
5.21611
20
-4.11202
11
5.21122
21
-4.11202
0
LINE
8
BLACK
6
CONTINUOUS
10
5.21122
20
-4.11202
11
5.19898
21
-4.1295
0
LINE
8
BLACK
6
CONTINUOUS
10
5.19898
20
-4.1295
11
5.19826
21
-4.13023
0
LINE
8
BLACK
6
CONTINUOUS
10
5.19826
20
-4.13023
11
5.1963
21
-4.13075
0
LINE
8
BLACK
6
CONTINUOUS
10
5.1963
20
-4.13075
11
5.19447
21
-4.1299
0
LINE
8
BLACK
6
CONTINUOUS
10
5.19447
20
-4.1299
11
5.19362
21
-4.12807
0
LINE
8
BLACK
6
CONTINUOUS
10
5.19362
20
-4.12807
11
5.19414
21
-4.12612
0
LINE
8
BLACK
6
CONTINUOUS
10
5.19414
20
-4.12612
11
5.20402
21
-4.11201
0
LINE
8
BLACK
6
CONTINUOUS
10
5.20402
20
-4.11201
11
5.20305
21
-4.11184
0
LINE
8
BLACK
6
CONTINUOUS
10
5.20305
20
-4.11184
11
5.20292
21
-4.11172
0
LINE
8
BLACK
6
CONTINUOUS
10
5.20292
20
-4.11172
11
5.20274
21
-4.1117
0
LINE
8
BLACK
6
CONTINUOUS
10
5.20274
20
-4.1117
11
5.19899
21
-4.10983
0
LINE
8
BLACK
6
CONTINUOUS
10
5.19899
20
-4.10983
11
5.19828
21
-4.1093
0
LINE
8
BLACK
6
CONTINUOUS
10
5.19828
20
-4.1093
11
5.19822
21
-4.10928
0
LINE
8
BLACK
6
CONTINUOUS
10
5.19822
20
-4.10928
11
5.19635
21
-4.1074
0
LINE
8
BLACK
6
CONTINUOUS
10
5.19635
20
-4.1074
11
5.19584
21
-4.10668
0
LINE
8
BLACK
6
CONTINUOUS
10
5.19584
20
-4.10668
11
5.1958
21
-4.10663
0
LINE
8
BLACK
6
CONTINUOUS
10
5.1958
20
-4.10663
11
5.19392
21
-4.10288
0
LINE
8
BLACK
6
CONTINUOUS
10
5.19392
20
-4.10288
11
5.19363
21
-4.1019
0
LINE
8
BLACK
6
CONTINUOUS
10
5.19363
20
-4.1019
11
5.19367
21
-4.10173
0
LINE
8
BLACK
6
CONTINUOUS
10
5.19367
20
-4.10173
11
5.19361
21
-4.10156
0
LINE
8
BLACK
6
CONTINUOUS
10
5.19361
20
-4.10156
11
5.19361
21
-4.09594
0
LINE
8
BLACK
6
CONTINUOUS
10
5.19361
20
-4.09594
11
5.19379
21
-4.09493
0
LINE
8
BLACK
6
CONTINUOUS
10
5.19379
20
-4.09493
11
5.1939
21
-4.09479
0
LINE
8
BLACK
6
CONTINUOUS
10
5.1939
20
-4.09479
11
5.19392
21
-4.09462
0
LINE
8
BLACK
6
CONTINUOUS
10
5.19392
20
-4.09462
11
5.1958
21
-4.09087
0
LINE
8
BLACK
6
CONTINUOUS
10
5.1958
20
-4.09087
11
5.19632
21
-4.09016
0
LINE
8
BLACK
6
CONTINUOUS
10
5.19632
20
-4.09016
11
5.19635
21
-4.0901
0
LINE
8
BLACK
6
CONTINUOUS
10
5.19635
20
-4.0901
11
5.19822
21
-4.08823
0
LINE
8
BLACK
6
CONTINUOUS
10
5.19822
20
-4.08823
11
5.19895
21
-4.08772
0
LINE
8
BLACK
6
CONTINUOUS
10
5.19895
20
-4.08772
11
5.19899
21
-4.08767
0
LINE
8
BLACK
6
CONTINUOUS
10
5.19899
20
-4.08767
11
5.20274
21
-4.0858
0
LINE
8
BLACK
6
CONTINUOUS
10
5.20274
20
-4.0858
11
5.20372
21
-4.08551
0
LINE
8
BLACK
6
CONTINUOUS
10
5.20372
20
-4.08551
11
5.20389
21
-4.08555
0
LINE
8
BLACK
6
CONTINUOUS
10
5.20389
20
-4.08555
11
5.20406
21
-4.08549
0
LINE
8
BLACK
6
CONTINUOUS
10
5.20406
20
-4.08549
11
5.21906
21
-4.08549
0
LINE
8
BLACK
6
CONTINUOUS
10
5.21906
20
-4.08549
11
5.21944
21
-4.08556
0
LINE
8
BLACK
6
CONTINUOUS
10
5.20476
20
-4.09139
11
5.20206
21
-4.09274
0
LINE
8
BLACK
6
CONTINUOUS
10
5.20206
20
-4.09274
11
5.20086
21
-4.09394
0
LINE
8
BLACK
6
CONTINUOUS
10
5.20086
20
-4.09394
11
5.19951
21
-4.09664
0
LINE
8
BLACK
6
CONTINUOUS
10
5.19951
20
-4.09664
11
5.19951
21
-4.10087
0
LINE
8
BLACK
6
CONTINUOUS
10
5.19951
20
-4.10087
11
5.20086
21
-4.10356
0
LINE
8
BLACK
6
CONTINUOUS
10
5.20086
20
-4.10356
11
5.20206
21
-4.10476
0
LINE
8
BLACK
6
CONTINUOUS
10
5.20206
20
-4.10476
11
5.20476
21
-4.10611
0
LINE
8
BLACK
6
CONTINUOUS
10
5.20476
20
-4.10611
11
5.21611
21
-4.10611
0
LINE
8
BLACK
6
CONTINUOUS
10
5.21611
20
-4.10611
11
5.21611
21
-4.09139
0
LINE
8
BLACK
6
CONTINUOUS
10
5.21611
20
-4.09139
11
5.20476
21
-4.09139
0
LINE
8
BLACK
6
CONTINUOUS
10
5.57944
20
-4.08556
11
5.57957
21
-4.08553
0
LINE
8
BLACK
6
CONTINUOUS
10
5.57957
20
-4.08553
11
5.57969
21
-4.0856
0
LINE
8
BLACK
6
CONTINUOUS
10
5.57969
20
-4.0856
11
5.58007
21
-4.08567
0
LINE
8
BLACK
6
CONTINUOUS
10
5.58007
20
-4.08567
11
5.58066
21
-4.08616
0
LINE
8
BLACK
6
CONTINUOUS
10
5.58066
20
-4.08616
11
5.58132
21
-4.08654
0
LINE
8
BLACK
6
CONTINUOUS
10
5.58132
20
-4.08654
11
5.58141
21
-4.08679
0
LINE
8
BLACK
6
CONTINUOUS
10
5.58141
20
-4.08679
11
5.58162
21
-4.08696
0
LINE
8
BLACK
6
CONTINUOUS
10
5.58162
20
-4.08696
11
5.58175
21
-4.08772
0
LINE
8
BLACK
6
CONTINUOUS
10
5.58175
20
-4.08772
11
5.58201
21
-4.08844
0
LINE
8
BLACK
6
CONTINUOUS
10
5.58201
20
-4.08844
11
5.58201
21
-4.12781
0
LINE
8
BLACK
6
CONTINUOUS
10
5.58201
20
-4.12781
11
5.58183
21
-4.12882
0
LINE
8
BLACK
6
CONTINUOUS
10
5.58183
20
-4.12882
11
5.58054
21
-4.13037
0
LINE
8
BLACK
6
CONTINUOUS
10
5.58054
20
-4.13037
11
5.57855
21
-4.13072
0
LINE
8
BLACK
6
CONTINUOUS
10
5.57855
20
-4.13072
11
5.5768
21
-4.12971
0
LINE
8
BLACK
6
CONTINUOUS
10
5.5768
20
-4.12971
11
5.57611
21
-4.12781
0
LINE
8
BLACK
6
CONTINUOUS
10
5.57611
20
-4.12781
11
5.57611
21
-4.11202
0
LINE
8
BLACK
6
CONTINUOUS
10
5.57611
20
-4.11202
11
5.57122
21
-4.11202
0
LINE
8
BLACK
6
CONTINUOUS
10
5.57122
20
-4.11202
11
5.55898
21
-4.1295
0
LINE
8
BLACK
6
CONTINUOUS
10
5.55898
20
-4.1295
11
5.55826
21
-4.13023
0
LINE
8
BLACK
6
CONTINUOUS
10
5.55826
20
-4.13023
11
5.5563
21
-4.13075
0
LINE
8
BLACK
6
CONTINUOUS
10
5.5563
20
-4.13075
11
5.55447
21
-4.1299
0
LINE
8
BLACK
6
CONTINUOUS
10
5.55447
20
-4.1299
11
5.55362
21
-4.12807
0
LINE
8
BLACK
6
CONTINUOUS
10
5.55362
20
-4.12807
11
5.55414
21
-4.12612
0
LINE
8
BLACK
6
CONTINUOUS
10
5.55414
20
-4.12612
11
5.56402
21
-4.11201
0
LINE
8
BLACK
6
CONTINUOUS
10
5.56402
20
-4.11201
11
5.56305
21
-4.11184
0
LINE
8
BLACK
6
CONTINUOUS
10
5.56305
20
-4.11184
11
5.56292
21
-4.11172
0
LINE
8
BLACK
6
CONTINUOUS
10
5.56292
20
-4.11172
11
5.56274
21
-4.1117
0
LINE
8
BLACK
6
CONTINUOUS
10
5.56274
20
-4.1117
11
5.55899
21
-4.10983
0
LINE
8
BLACK
6
CONTINUOUS
10
5.55899
20
-4.10983
11
5.55828
21
-4.1093
0
LINE
8
BLACK
6
CONTINUOUS
10
5.55828
20
-4.1093
11
5.55822
21
-4.10928
0
LINE
8
BLACK
6
CONTINUOUS
10
5.55822
20
-4.10928
11
5.55635
21
-4.1074
0
LINE
8
BLACK
6
CONTINUOUS
10
5.55635
20
-4.1074
11
5.55584
21
-4.10668
0
LINE
8
BLACK
6
CONTINUOUS
10
5.55584
20
-4.10668
11
5.5558
21
-4.10663
0
LINE
8
BLACK
6
CONTINUOUS
10
5.5558
20
-4.10663
11
5.55392
21
-4.10288
0
LINE
8
BLACK
6
CONTINUOUS
10
5.55392
20
-4.10288
11
5.55363
21
-4.1019
0
LINE
8
BLACK
6
CONTINUOUS
10
5.55363
20
-4.1019
11
5.55367
21
-4.10173
0
LINE
8
BLACK
6
CONTINUOUS
10
5.55367
20
-4.10173
11
5.55361
21
-4.10156
0
LINE
8
BLACK
6
CONTINUOUS
10
5.55361
20
-4.10156
11
5.55361
21
-4.09594
0
LINE
8
BLACK
6
CONTINUOUS
10
5.55361
20
-4.09594
11
5.55379
21
-4.09493
0
LINE
8
BLACK
6
CONTINUOUS
10
5.55379
20
-4.09493
11
5.5539
21
-4.09479
0
LINE
8
BLACK
6
CONTINUOUS
10
5.5539
20
-4.09479
11
5.55392
21
-4.09462
0
LINE
8
BLACK
6
CONTINUOUS
10
5.55392
20
-4.09462
11
5.5558
21
-4.09087
0
LINE
8
BLACK
6
CONTINUOUS
10
5.5558
20
-4.09087
11
5.55632
21
-4.09016
0
LINE
8
BLACK
6
CONTINUOUS
10
5.55632
20
-4.09016
11
5.55635
21
-4.0901
0
LINE
8
BLACK
6
CONTINUOUS
10
5.55635
20
-4.0901
11
5.55822
21
-4.08823
0
LINE
8
BLACK
6
CONTINUOUS
10
5.55822
20
-4.08823
11
5.55895
21
-4.08772
0
LINE
8
BLACK
6
CONTINUOUS
10
5.55895
20
-4.08772
11
5.55899
21
-4.08767
0
LINE
8
BLACK
6
CONTINUOUS
10
5.55899
20
-4.08767
11
5.56274
21
-4.0858
0
LINE
8
BLACK
6
CONTINUOUS
10
5.56274
20
-4.0858
11
5.56372
21
-4.08551
0
LINE
8
BLACK
6
CONTINUOUS
10
5.56372
20
-4.08551
11
5.56389
21
-4.08555
0
LINE
8
BLACK
6
CONTINUOUS
10
5.56389
20
-4.08555
11
5.56406
21
-4.08549
0
LINE
8
BLACK
6
CONTINUOUS
10
5.56406
20
-4.08549
11
5.57906
21
-4.08549
0
LINE
8
BLACK
6
CONTINUOUS
10
5.57906
20
-4.08549
11
5.57944
21
-4.08556
0
LINE
8
BLACK
6
CONTINUOUS
10
5.56476
20
-4.09139
11
5.56206
21
-4.09274
0
LINE
8
BLACK
6
CONTINUOUS
10
5.56206
20
-4.09274
11
5.56086
21
-4.09394
0
LINE
8
BLACK
6
CONTINUOUS
10
5.56086
20
-4.09394
11
5.55951
21
-4.09664
0
LINE
8
BLACK
6
CONTINUOUS
10
5.55951
20
-4.09664
11
5.55951
21
-4.10087
0
LINE
8
BLACK
6
CONTINUOUS
10
5.55951
20
-4.10087
11
5.56086
21
-4.10356
0
LINE
8
BLACK
6
CONTINUOUS
10
5.56086
20
-4.10356
11
5.56206
21
-4.10476
0
LINE
8
BLACK
6
CONTINUOUS
10
5.56206
20
-4.10476
11
5.56476
21
-4.10611
0
LINE
8
BLACK
6
CONTINUOUS
10
5.56476
20
-4.10611
11
5.57611
21
-4.10611
0
LINE
8
BLACK
6
CONTINUOUS
10
5.57611
20
-4.10611
11
5.57611
21
-4.09139
0
LINE
8
BLACK
6
CONTINUOUS
10
5.57611
20
-4.09139
11
5.56476
21
-4.09139
0
LINE
8
BLACK
6
CONTINUOUS
10
5.30061
20
-4.07939
11
5.3013
21
-4.08106
0
LINE
8
BLACK
6
CONTINUOUS
10
5.3013
20
-4.08106
11
5.30061
21
-4.08273
0
LINE
8
BLACK
6
CONTINUOUS
10
5.30061
20
-4.08273
11
5.29894
21
-4.08343
0
LINE
8
BLACK
6
CONTINUOUS
10
5.29894
20
-4.08343
11
5.28106
21
-4.08343
0
LINE
8
BLACK
6
CONTINUOUS
10
5.28106
20
-4.08343
11
5.27939
21
-4.08273
0
LINE
8
BLACK
6
CONTINUOUS
10
5.27939
20
-4.08273
11
5.2787
21
-4.08106
0
LINE
8
BLACK
6
CONTINUOUS
10
5.2787
20
-4.08106
11
5.27939
21
-4.07939
0
LINE
8
BLACK
6
CONTINUOUS
10
5.27939
20
-4.07939
11
5.28106
21
-4.0787
0
LINE
8
BLACK
6
CONTINUOUS
10
5.28106
20
-4.0787
11
5.29894
21
-4.0787
0
LINE
8
BLACK
6
CONTINUOUS
10
5.29894
20
-4.0787
11
5.30061
21
-4.07939
0
LINE
8
BLACK
6
CONTINUOUS
10
5.46061
20
-4.07939
11
5.4613
21
-4.08106
0
LINE
8
BLACK
6
CONTINUOUS
10
5.4613
20
-4.08106
11
5.46061
21
-4.08273
0
LINE
8
BLACK
6
CONTINUOUS
10
5.46061
20
-4.08273
11
5.45894
21
-4.08343
0
LINE
8
BLACK
6
CONTINUOUS
10
5.45894
20
-4.08343
11
5.44106
21
-4.08343
0
LINE
8
BLACK
6
CONTINUOUS
10
5.44106
20
-4.08343
11
5.43939
21
-4.08273
0
LINE
8
BLACK
6
CONTINUOUS
10
5.43939
20
-4.08273
11
5.4387
21
-4.08106
0
LINE
8
BLACK
6
CONTINUOUS
10
5.4387
20
-4.08106
11
5.43939
21
-4.07939
0
LINE
8
BLACK
6
CONTINUOUS
10
5.43939
20
-4.07939
11
5.44106
21
-4.0787
0
LINE
8
BLACK
6
CONTINUOUS
10
5.44106
20
-4.0787
11
5.45894
21
-4.0787
0
LINE
8
BLACK
6
CONTINUOUS
10
5.45894
20
-4.0787
11
5.46061
21
-4.07939
  0
ENDSEC
  0
EOF
