  0
SECTION
  2
HEADER
  9
$ANGBASE
  50
0.0
  9
$ANGDIR
  70
1
  9
$MEASUREMENT
  70
0
  0
ENDSEC
  0
SECTION
  2
TABLES
  0
TABLE
  2
LTYPE
  70
4
  0
LTYPE
  5
40F
  2
CONTINUOUS
  70
0
  3
Solid line
  72
65
  73
0
  40
0.0
  0
LTYPE
  5
410
  2
DASHDOT
 70
0
  3
Dash Dot ____ _ ____ _
 72
65
 73
4
 40
2.0
 49
1.25
 49
-0.25
 49
0.25
 49
-0.25
  0
LTYPE
  5
411
  2
DASHED
 70
0
  3
Dashed __ __ __ __ __
 72
65
 73
2
 40
0.75
 49
0.5
 49
-0.25
  0
LTYPE
  5
43B
  2
DOTTED
 70
0
  3
Dotted .  .  .  .
 72
65
 73
2
 40
0.2
 49
0.0
 49
-0.2
  0
ENDTAB
  0
TABLE
  2
STYLE
  70
4
  0
STYLE
  2
KICAD
  70
0
  40
0
  41
1
  42
1
  50
0
  71
0
  3
isocp.shx
  0
STYLE
  2
KICADB
  70
0
  40
0
  41
1
  42
1
  50
0
  71
0
  3
isocp.shx
  0
STYLE
  2
KICADI
  70
0
  40
0
  41
1
  42
1
  50
15
  71
0
  3
isocp.shx
  0
STYLE
  2
KICADBI
  70
0
  40
0
  41
1
  42
1
  50
15
  71
0
  3
isocp.shx
  0
ENDTAB
  0
TABLE
  2
LAYER
  70
1
  0
LAYER
  2
BLACK
  70
0
  62
7
  6
CONTINUOUS
  0
ENDTAB
  0
ENDSEC
  0
SECTION
  2
ENTITIES
0
LINE
8
BLACK
6
CONTINUOUS
10
5.36559
20
-4.38755
11
5.36572
21
-4.38766
0
LINE
8
BLACK
6
CONTINUOUS
10
5.36572
20
-4.38766
11
5.3659
21
-4.38768
0
LINE
8
BLACK
6
CONTINUOUS
10
5.3659
20
-4.38768
11
5.36662
21
-4.38804
0
LINE
8
BLACK
6
CONTINUOUS
10
5.36662
20
-4.38804
11
5.36685
21
-4.38776
0
LINE
8
BLACK
6
CONTINUOUS
10
5.36685
20
-4.38776
11
5.36884
21
-4.38741
0
LINE
8
BLACK
6
CONTINUOUS
10
5.36884
20
-4.38741
11
5.37059
21
-4.38842
0
LINE
8
BLACK
6
CONTINUOUS
10
5.37059
20
-4.38842
11
5.37128
21
-4.39032
0
LINE
8
BLACK
6
CONTINUOUS
10
5.37128
20
-4.39032
11
5.37128
21
-4.42219
0
LINE
8
BLACK
6
CONTINUOUS
10
5.37128
20
-4.42219
11
5.3711
21
-4.4232
0
LINE
8
BLACK
6
CONTINUOUS
10
5.3711
20
-4.4232
11
5.37099
21
-4.42334
0
LINE
8
BLACK
6
CONTINUOUS
10
5.37099
20
-4.42334
11
5.37097
21
-4.42351
0
LINE
8
BLACK
6
CONTINUOUS
10
5.37097
20
-4.42351
11
5.36909
21
-4.42726
0
LINE
8
BLACK
6
CONTINUOUS
10
5.36909
20
-4.42726
11
5.36857
21
-4.42797
0
LINE
8
BLACK
6
CONTINUOUS
10
5.36857
20
-4.42797
11
5.36854
21
-4.42803
0
LINE
8
BLACK
6
CONTINUOUS
10
5.36854
20
-4.42803
11
5.36666
21
-4.4299
0
LINE
8
BLACK
6
CONTINUOUS
10
5.36666
20
-4.4299
11
5.36594
21
-4.43041
0
LINE
8
BLACK
6
CONTINUOUS
10
5.36594
20
-4.43041
11
5.3659
21
-4.43046
0
LINE
8
BLACK
6
CONTINUOUS
10
5.3659
20
-4.43046
11
5.36215
21
-4.43233
0
LINE
8
BLACK
6
CONTINUOUS
10
5.36215
20
-4.43233
11
5.36116
21
-4.43262
0
LINE
8
BLACK
6
CONTINUOUS
10
5.36116
20
-4.43262
11
5.36099
21
-4.43258
0
LINE
8
BLACK
6
CONTINUOUS
10
5.36099
20
-4.43258
11
5.36083
21
-4.43264
0
LINE
8
BLACK
6
CONTINUOUS
10
5.36083
20
-4.43264
11
5.3552
21
-4.43264
0
LINE
8
BLACK
6
CONTINUOUS
10
5.3552
20
-4.43264
11
5.35419
21
-4.43247
0
LINE
8
BLACK
6
CONTINUOUS
10
5.35419
20
-4.43247
11
5.35406
21
-4.43235
0
LINE
8
BLACK
6
CONTINUOUS
10
5.35406
20
-4.43235
11
5.35388
21
-4.43233
0
LINE
8
BLACK
6
CONTINUOUS
10
5.35388
20
-4.43233
11
5.35013
21
-4.43046
0
LINE
8
BLACK
6
CONTINUOUS
10
5.35013
20
-4.43046
11
5.34931
21
-4.42985
0
LINE
8
BLACK
6
CONTINUOUS
10
5.34931
20
-4.42985
11
5.34851
21
-4.42799
0
LINE
8
BLACK
6
CONTINUOUS
10
5.34851
20
-4.42799
11
5.34908
21
-4.42606
0
LINE
8
BLACK
6
CONTINUOUS
10
5.34908
20
-4.42606
11
5.35077
21
-4.42494
0
LINE
8
BLACK
6
CONTINUOUS
10
5.35077
20
-4.42494
11
5.35277
21
-4.42518
0
LINE
8
BLACK
6
CONTINUOUS
10
5.35277
20
-4.42518
11
5.3559
21
-4.42674
0
LINE
8
BLACK
6
CONTINUOUS
10
5.3559
20
-4.42674
11
5.36013
21
-4.42674
0
LINE
8
BLACK
6
CONTINUOUS
10
5.36013
20
-4.42674
11
5.36283
21
-4.42539
0
LINE
8
BLACK
6
CONTINUOUS
10
5.36283
20
-4.42539
11
5.36402
21
-4.42419
0
LINE
8
BLACK
6
CONTINUOUS
10
5.36402
20
-4.42419
11
5.36537
21
-4.42149
0
LINE
8
BLACK
6
CONTINUOUS
10
5.36537
20
-4.42149
11
5.36537
21
-4.41936
0
LINE
8
BLACK
6
CONTINUOUS
10
5.36537
20
-4.41936
11
5.36491
21
-4.4195
0
LINE
8
BLACK
6
CONTINUOUS
10
5.36491
20
-4.4195
11
5.36474
21
-4.41946
0
LINE
8
BLACK
6
CONTINUOUS
10
5.36474
20
-4.41946
11
5.36458
21
-4.41952
0
LINE
8
BLACK
6
CONTINUOUS
10
5.36458
20
-4.41952
11
5.35708
21
-4.41952
0
LINE
8
BLACK
6
CONTINUOUS
10
5.35708
20
-4.41952
11
5.35607
21
-4.41934
0
LINE
8
BLACK
6
CONTINUOUS
10
5.35607
20
-4.41934
11
5.35593
21
-4.41923
0
LINE
8
BLACK
6
CONTINUOUS
10
5.35593
20
-4.41923
11
5.35576
21
-4.41921
0
LINE
8
BLACK
6
CONTINUOUS
10
5.35576
20
-4.41921
11
5.35201
21
-4.41733
0
LINE
8
BLACK
6
CONTINUOUS
10
5.35201
20
-4.41733
11
5.3513
21
-4.41681
0
LINE
8
BLACK
6
CONTINUOUS
10
5.3513
20
-4.41681
11
5.35124
21
-4.41678
0
LINE
8
BLACK
6
CONTINUOUS
10
5.35124
20
-4.41678
11
5.34937
21
-4.41491
0
LINE
8
BLACK
6
CONTINUOUS
10
5.34937
20
-4.41491
11
5.34886
21
-4.41418
0
LINE
8
BLACK
6
CONTINUOUS
10
5.34886
20
-4.41418
11
5.34881
21
-4.41414
0
LINE
8
BLACK
6
CONTINUOUS
10
5.34881
20
-4.41414
11
5.34694
21
-4.41039
0
LINE
8
BLACK
6
CONTINUOUS
10
5.34694
20
-4.41039
11
5.34664
21
-4.40941
0
LINE
8
BLACK
6
CONTINUOUS
10
5.34664
20
-4.40941
11
5.34669
21
-4.40923
0
LINE
8
BLACK
6
CONTINUOUS
10
5.34669
20
-4.40923
11
5.34663
21
-4.40907
0
LINE
8
BLACK
6
CONTINUOUS
10
5.34663
20
-4.40907
11
5.34663
21
-4.39782
0
LINE
8
BLACK
6
CONTINUOUS
10
5.34663
20
-4.39782
11
5.3468
21
-4.39681
0
LINE
8
BLACK
6
CONTINUOUS
10
5.3468
20
-4.39681
11
5.34692
21
-4.39667
0
LINE
8
BLACK
6
CONTINUOUS
10
5.34692
20
-4.39667
11
5.34694
21
-4.3965
0
LINE
8
BLACK
6
CONTINUOUS
10
5.34694
20
-4.3965
11
5.34881
21
-4.39275
0
LINE
8
BLACK
6
CONTINUOUS
10
5.34881
20
-4.39275
11
5.34934
21
-4.39204
0
LINE
8
BLACK
6
CONTINUOUS
10
5.34934
20
-4.39204
11
5.34937
21
-4.39198
0
LINE
8
BLACK
6
CONTINUOUS
10
5.34937
20
-4.39198
11
5.35124
21
-4.39011
0
LINE
8
BLACK
6
CONTINUOUS
10
5.35124
20
-4.39011
11
5.35196
21
-4.3896
0
LINE
8
BLACK
6
CONTINUOUS
10
5.35196
20
-4.3896
11
5.35201
21
-4.38955
0
LINE
8
BLACK
6
CONTINUOUS
10
5.35201
20
-4.38955
11
5.35576
21
-4.38768
0
LINE
8
BLACK
6
CONTINUOUS
10
5.35576
20
-4.38768
11
5.35674
21
-4.38739
0
LINE
8
BLACK
6
CONTINUOUS
10
5.35674
20
-4.38739
11
5.35691
21
-4.38743
0
LINE
8
BLACK
6
CONTINUOUS
10
5.35691
20
-4.38743
11
5.35708
21
-4.38737
0
LINE
8
BLACK
6
CONTINUOUS
10
5.35708
20
-4.38737
11
5.36458
21
-4.38737
0
LINE
8
BLACK
6
CONTINUOUS
10
5.36458
20
-4.38737
11
5.36559
21
-4.38755
0
LINE
8
BLACK
6
CONTINUOUS
10
5.35508
20
-4.39462
11
5.35388
21
-4.39582
0
LINE
8
BLACK
6
CONTINUOUS
10
5.35388
20
-4.39582
11
5.35253
21
-4.39852
0
LINE
8
BLACK
6
CONTINUOUS
10
5.35253
20
-4.39852
11
5.35253
21
-4.40837
0
LINE
8
BLACK
6
CONTINUOUS
10
5.35253
20
-4.40837
11
5.35388
21
-4.41107
0
LINE
8
BLACK
6
CONTINUOUS
10
5.35388
20
-4.41107
11
5.35508
21
-4.41227
0
LINE
8
BLACK
6
CONTINUOUS
10
5.35508
20
-4.41227
11
5.35777
21
-4.41361
0
LINE
8
BLACK
6
CONTINUOUS
10
5.35777
20
-4.41361
11
5.36388
21
-4.41361
0
LINE
8
BLACK
6
CONTINUOUS
10
5.36388
20
-4.41361
11
5.36537
21
-4.41287
0
LINE
8
BLACK
6
CONTINUOUS
10
5.36537
20
-4.41287
11
5.36537
21
-4.39402
0
LINE
8
BLACK
6
CONTINUOUS
10
5.36537
20
-4.39402
11
5.36388
21
-4.39327
0
LINE
8
BLACK
6
CONTINUOUS
10
5.36388
20
-4.39327
11
5.35777
21
-4.39327
0
LINE
8
BLACK
6
CONTINUOUS
10
5.35777
20
-4.39327
11
5.35508
21
-4.39462
0
LINE
8
BLACK
6
CONTINUOUS
10
5.39933
20
-4.38755
11
5.39947
21
-4.38766
0
LINE
8
BLACK
6
CONTINUOUS
10
5.39947
20
-4.38766
11
5.39964
21
-4.38768
0
LINE
8
BLACK
6
CONTINUOUS
10
5.39964
20
-4.38768
11
5.40339
21
-4.38955
0
LINE
8
BLACK
6
CONTINUOUS
10
5.40339
20
-4.38955
11
5.40422
21
-4.39017
0
LINE
8
BLACK
6
CONTINUOUS
10
5.40422
20
-4.39017
11
5.40439
21
-4.39057
0
LINE
8
BLACK
6
CONTINUOUS
10
5.40439
20
-4.39057
11
5.40471
21
-4.39088
0
LINE
8
BLACK
6
CONTINUOUS
10
5.40471
20
-4.39088
11
5.40659
21
-4.39462
0
LINE
8
BLACK
6
CONTINUOUS
10
5.40659
20
-4.39462
11
5.40688
21
-4.39561
0
LINE
8
BLACK
6
CONTINUOUS
10
5.40688
20
-4.39561
11
5.40684
21
-4.39578
0
LINE
8
BLACK
6
CONTINUOUS
10
5.40684
20
-4.39578
11
5.4069
21
-4.39595
0
LINE
8
BLACK
6
CONTINUOUS
10
5.4069
20
-4.39595
11
5.4069
21
-4.39969
0
LINE
8
BLACK
6
CONTINUOUS
10
5.4069
20
-4.39969
11
5.40672
21
-4.4007
0
LINE
8
BLACK
6
CONTINUOUS
10
5.40672
20
-4.4007
11
5.40641
21
-4.40108
0
LINE
8
BLACK
6
CONTINUOUS
10
5.40641
20
-4.40108
11
5.40625
21
-4.40154
0
LINE
8
BLACK
6
CONTINUOUS
10
5.40625
20
-4.40154
11
5.40578
21
-4.40183
0
LINE
8
BLACK
6
CONTINUOUS
10
5.40578
20
-4.40183
11
5.40542
21
-4.40225
0
LINE
8
BLACK
6
CONTINUOUS
10
5.40542
20
-4.40225
11
5.40494
21
-4.40234
0
LINE
8
BLACK
6
CONTINUOUS
10
5.40494
20
-4.40234
11
5.40453
21
-4.40259
0
LINE
8
BLACK
6
CONTINUOUS
10
5.40453
20
-4.40259
11
5.38815
21
-4.40586
0
LINE
8
BLACK
6
CONTINUOUS
10
5.38815
20
-4.40586
11
5.38815
21
-4.41025
0
LINE
8
BLACK
6
CONTINUOUS
10
5.38815
20
-4.41025
11
5.38927
21
-4.41249
0
LINE
8
BLACK
6
CONTINUOUS
10
5.38927
20
-4.41249
11
5.39152
21
-4.41361
0
LINE
8
BLACK
6
CONTINUOUS
10
5.39152
20
-4.41361
11
5.39763
21
-4.41361
0
LINE
8
BLACK
6
CONTINUOUS
10
5.39763
20
-4.41361
11
5.40075
21
-4.41205
0
LINE
8
BLACK
6
CONTINUOUS
10
5.40075
20
-4.41205
11
5.40173
21
-4.41176
0
LINE
8
BLACK
6
CONTINUOUS
10
5.40173
20
-4.41176
11
5.4037
21
-4.41223
0
LINE
8
BLACK
6
CONTINUOUS
10
5.4037
20
-4.41223
11
5.4049
21
-4.41385
0
LINE
8
BLACK
6
CONTINUOUS
10
5.4049
20
-4.41385
11
5.40478
21
-4.41587
0
LINE
8
BLACK
6
CONTINUOUS
10
5.40478
20
-4.41587
11
5.40339
21
-4.41733
0
LINE
8
BLACK
6
CONTINUOUS
10
5.40339
20
-4.41733
11
5.39964
21
-4.41921
0
LINE
8
BLACK
6
CONTINUOUS
10
5.39964
20
-4.41921
11
5.39866
21
-4.4195
0
LINE
8
BLACK
6
CONTINUOUS
10
5.39866
20
-4.4195
11
5.39849
21
-4.41946
0
LINE
8
BLACK
6
CONTINUOUS
10
5.39849
20
-4.41946
11
5.39832
21
-4.41952
0
LINE
8
BLACK
6
CONTINUOUS
10
5.39832
20
-4.41952
11
5.39082
21
-4.41952
0
LINE
8
BLACK
6
CONTINUOUS
10
5.39082
20
-4.41952
11
5.38981
21
-4.41934
0
LINE
8
BLACK
6
CONTINUOUS
10
5.38981
20
-4.41934
11
5.38968
21
-4.41923
0
LINE
8
BLACK
6
CONTINUOUS
10
5.38968
20
-4.41923
11
5.3895
21
-4.41921
0
LINE
8
BLACK
6
CONTINUOUS
10
5.3895
20
-4.41921
11
5.38575
21
-4.41733
0
LINE
8
BLACK
6
CONTINUOUS
10
5.38575
20
-4.41733
11
5.38493
21
-4.41672
0
LINE
8
BLACK
6
CONTINUOUS
10
5.38493
20
-4.41672
11
5.38475
21
-4.41632
0
LINE
8
BLACK
6
CONTINUOUS
10
5.38475
20
-4.41632
11
5.38443
21
-4.41601
0
LINE
8
BLACK
6
CONTINUOUS
10
5.38443
20
-4.41601
11
5.38256
21
-4.41226
0
LINE
8
BLACK
6
CONTINUOUS
10
5.38256
20
-4.41226
11
5.38227
21
-4.41128
0
LINE
8
BLACK
6
CONTINUOUS
10
5.38227
20
-4.41128
11
5.38231
21
-4.41111
0
LINE
8
BLACK
6
CONTINUOUS
10
5.38231
20
-4.41111
11
5.38225
21
-4.41094
0
LINE
8
BLACK
6
CONTINUOUS
10
5.38225
20
-4.41094
11
5.38225
21
-4.39595
0
LINE
8
BLACK
6
CONTINUOUS
10
5.38225
20
-4.39595
11
5.38242
21
-4.39494
0
LINE
8
BLACK
6
CONTINUOUS
10
5.38242
20
-4.39494
11
5.38254
21
-4.3948
0
LINE
8
BLACK
6
CONTINUOUS
10
5.38254
20
-4.3948
11
5.38256
21
-4.39462
0
LINE
8
BLACK
6
CONTINUOUS
10
5.38256
20
-4.39462
11
5.38443
21
-4.39088
0
LINE
8
BLACK
6
CONTINUOUS
10
5.38443
20
-4.39088
11
5.38504
21
-4.39005
0
LINE
8
BLACK
6
CONTINUOUS
10
5.38504
20
-4.39005
11
5.38545
21
-4.38988
0
LINE
8
BLACK
6
CONTINUOUS
10
5.38545
20
-4.38988
11
5.38575
21
-4.38955
0
LINE
8
BLACK
6
CONTINUOUS
10
5.38575
20
-4.38955
11
5.3895
21
-4.38768
0
LINE
8
BLACK
6
CONTINUOUS
10
5.3895
20
-4.38768
11
5.39049
21
-4.38739
0
LINE
8
BLACK
6
CONTINUOUS
10
5.39049
20
-4.38739
11
5.39066
21
-4.38743
0
LINE
8
BLACK
6
CONTINUOUS
10
5.39066
20
-4.38743
11
5.39082
21
-4.38737
0
LINE
8
BLACK
6
CONTINUOUS
10
5.39082
20
-4.38737
11
5.39832
21
-4.38737
0
LINE
8
BLACK
6
CONTINUOUS
10
5.39832
20
-4.38737
11
5.39933
21
-4.38755
0
LINE
8
BLACK
6
CONTINUOUS
10
5.38927
20
-4.3944
11
5.38815
21
-4.39664
0
LINE
8
BLACK
6
CONTINUOUS
10
5.38815
20
-4.39664
11
5.38815
21
-4.39984
0
LINE
8
BLACK
6
CONTINUOUS
10
5.38815
20
-4.39984
11
5.40099
21
-4.39727
0
LINE
8
BLACK
6
CONTINUOUS
10
5.40099
20
-4.39727
11
5.40099
21
-4.39664
0
LINE
8
BLACK
6
CONTINUOUS
10
5.40099
20
-4.39664
11
5.39987
21
-4.3944
0
LINE
8
BLACK
6
CONTINUOUS
10
5.39987
20
-4.3944
11
5.39763
21
-4.39327
0
LINE
8
BLACK
6
CONTINUOUS
10
5.39763
20
-4.39327
11
5.39152
21
-4.39327
0
LINE
8
BLACK
6
CONTINUOUS
10
5.39152
20
-4.39327
11
5.38927
21
-4.3944
0
LINE
8
BLACK
6
CONTINUOUS
10
5.43995
20
-4.3753
11
5.44064
21
-4.3772
0
LINE
8
BLACK
6
CONTINUOUS
10
5.44064
20
-4.3772
11
5.44064
21
-4.41657
0
LINE
8
BLACK
6
CONTINUOUS
10
5.44064
20
-4.41657
11
5.44047
21
-4.41758
0
LINE
8
BLACK
6
CONTINUOUS
10
5.44047
20
-4.41758
11
5.43917
21
-4.41912
0
LINE
8
BLACK
6
CONTINUOUS
10
5.43917
20
-4.41912
11
5.43718
21
-4.41948
0
LINE
8
BLACK
6
CONTINUOUS
10
5.43718
20
-4.41948
11
5.43604
21
-4.41882
0
LINE
8
BLACK
6
CONTINUOUS
10
5.43604
20
-4.41882
11
5.43526
21
-4.41921
0
LINE
8
BLACK
6
CONTINUOUS
10
5.43526
20
-4.41921
11
5.43428
21
-4.4195
0
LINE
8
BLACK
6
CONTINUOUS
10
5.43428
20
-4.4195
11
5.43411
21
-4.41946
0
LINE
8
BLACK
6
CONTINUOUS
10
5.43411
20
-4.41946
11
5.43394
21
-4.41952
0
LINE
8
BLACK
6
CONTINUOUS
10
5.43394
20
-4.41952
11
5.42644
21
-4.41952
0
LINE
8
BLACK
6
CONTINUOUS
10
5.42644
20
-4.41952
11
5.42543
21
-4.41934
0
LINE
8
BLACK
6
CONTINUOUS
10
5.42543
20
-4.41934
11
5.4253
21
-4.41923
0
LINE
8
BLACK
6
CONTINUOUS
10
5.4253
20
-4.41923
11
5.42512
21
-4.41921
0
LINE
8
BLACK
6
CONTINUOUS
10
5.42512
20
-4.41921
11
5.42137
21
-4.41733
0
LINE
8
BLACK
6
CONTINUOUS
10
5.42137
20
-4.41733
11
5.42066
21
-4.41681
0
LINE
8
BLACK
6
CONTINUOUS
10
5.42066
20
-4.41681
11
5.42061
21
-4.41678
0
LINE
8
BLACK
6
CONTINUOUS
10
5.42061
20
-4.41678
11
5.41873
21
-4.41491
0
LINE
8
BLACK
6
CONTINUOUS
10
5.41873
20
-4.41491
11
5.41823
21
-4.41418
0
LINE
8
BLACK
6
CONTINUOUS
10
5.41823
20
-4.41418
11
5.41818
21
-4.41414
0
LINE
8
BLACK
6
CONTINUOUS
10
5.41818
20
-4.41414
11
5.4163
21
-4.41039
0
LINE
8
BLACK
6
CONTINUOUS
10
5.4163
20
-4.41039
11
5.41601
21
-4.40941
0
LINE
8
BLACK
6
CONTINUOUS
10
5.41601
20
-4.40941
11
5.41605
21
-4.40923
0
LINE
8
BLACK
6
CONTINUOUS
10
5.41605
20
-4.40923
11
5.41599
21
-4.40907
0
LINE
8
BLACK
6
CONTINUOUS
10
5.41599
20
-4.40907
11
5.41599
21
-4.39782
0
LINE
8
BLACK
6
CONTINUOUS
10
5.41599
20
-4.39782
11
5.41617
21
-4.39681
0
LINE
8
BLACK
6
CONTINUOUS
10
5.41617
20
-4.39681
11
5.41628
21
-4.39667
0
LINE
8
BLACK
6
CONTINUOUS
10
5.41628
20
-4.39667
11
5.4163
21
-4.3965
0
LINE
8
BLACK
6
CONTINUOUS
10
5.4163
20
-4.3965
11
5.41818
21
-4.39275
0
LINE
8
BLACK
6
CONTINUOUS
10
5.41818
20
-4.39275
11
5.4187
21
-4.39204
0
LINE
8
BLACK
6
CONTINUOUS
10
5.4187
20
-4.39204
11
5.41873
21
-4.39198
0
LINE
8
BLACK
6
CONTINUOUS
10
5.41873
20
-4.39198
11
5.42061
21
-4.39011
0
LINE
8
BLACK
6
CONTINUOUS
10
5.42061
20
-4.39011
11
5.42133
21
-4.3896
0
LINE
8
BLACK
6
CONTINUOUS
10
5.42133
20
-4.3896
11
5.42137
21
-4.38955
0
LINE
8
BLACK
6
CONTINUOUS
10
5.42137
20
-4.38955
11
5.42512
21
-4.38768
0
LINE
8
BLACK
6
CONTINUOUS
10
5.42512
20
-4.38768
11
5.42611
21
-4.38739
0
LINE
8
BLACK
6
CONTINUOUS
10
5.42611
20
-4.38739
11
5.42628
21
-4.38743
0
LINE
8
BLACK
6
CONTINUOUS
10
5.42628
20
-4.38743
11
5.42644
21
-4.38737
0
LINE
8
BLACK
6
CONTINUOUS
10
5.42644
20
-4.38737
11
5.43394
21
-4.38737
0
LINE
8
BLACK
6
CONTINUOUS
10
5.43394
20
-4.38737
11
5.43474
21
-4.38751
0
LINE
8
BLACK
6
CONTINUOUS
10
5.43474
20
-4.38751
11
5.43474
21
-4.3772
0
LINE
8
BLACK
6
CONTINUOUS
10
5.43474
20
-4.3772
11
5.43492
21
-4.37619
0
LINE
8
BLACK
6
CONTINUOUS
10
5.43492
20
-4.37619
11
5.43622
21
-4.37464
0
LINE
8
BLACK
6
CONTINUOUS
10
5.43622
20
-4.37464
11
5.4382
21
-4.37429
0
LINE
8
BLACK
6
CONTINUOUS
10
5.4382
20
-4.37429
11
5.43995
21
-4.3753
0
LINE
8
BLACK
6
CONTINUOUS
10
5.42444
20
-4.39462
11
5.42325
21
-4.39582
0
LINE
8
BLACK
6
CONTINUOUS
10
5.42325
20
-4.39582
11
5.4219
21
-4.39852
0
LINE
8
BLACK
6
CONTINUOUS
10
5.4219
20
-4.39852
11
5.4219
21
-4.40837
0
LINE
8
BLACK
6
CONTINUOUS
10
5.4219
20
-4.40837
11
5.42325
21
-4.41107
0
LINE
8
BLACK
6
CONTINUOUS
10
5.42325
20
-4.41107
11
5.42444
21
-4.41227
0
LINE
8
BLACK
6
CONTINUOUS
10
5.42444
20
-4.41227
11
5.42714
21
-4.41361
0
LINE
8
BLACK
6
CONTINUOUS
10
5.42714
20
-4.41361
11
5.43325
21
-4.41361
0
LINE
8
BLACK
6
CONTINUOUS
10
5.43325
20
-4.41361
11
5.43474
21
-4.41287
0
LINE
8
BLACK
6
CONTINUOUS
10
5.43474
20
-4.41287
11
5.43474
21
-4.39402
0
LINE
8
BLACK
6
CONTINUOUS
10
5.43474
20
-4.39402
11
5.43325
21
-4.39327
0
LINE
8
BLACK
6
CONTINUOUS
10
5.43325
20
-4.39327
11
5.42714
21
-4.39327
0
LINE
8
BLACK
6
CONTINUOUS
10
5.42714
20
-4.39327
11
5.42444
21
-4.39462
0
LINE
8
BLACK
6
CONTINUOUS
10
5.46616
20
-4.37432
11
5.46633
21
-4.37429
0
LINE
8
BLACK
6
CONTINUOUS
10
5.46633
20
-4.37429
11
5.46707
21
-4.37472
0
LINE
8
BLACK
6
CONTINUOUS
10
5.46707
20
-4.37472
11
5.46785
21
-4.37506
0
LINE
8
BLACK
6
CONTINUOUS
10
5.46785
20
-4.37506
11
5.46793
21
-4.37521
0
LINE
8
BLACK
6
CONTINUOUS
10
5.46793
20
-4.37521
11
5.46808
21
-4.3753
0
LINE
8
BLACK
6
CONTINUOUS
10
5.46808
20
-4.3753
11
5.46837
21
-4.3761
0
LINE
8
BLACK
6
CONTINUOUS
10
5.46837
20
-4.3761
11
5.46875
21
-4.37687
0
LINE
8
BLACK
6
CONTINUOUS
10
5.46875
20
-4.37687
11
5.46871
21
-4.37704
0
LINE
8
BLACK
6
CONTINUOUS
10
5.46871
20
-4.37704
11
5.46877
21
-4.3772
0
LINE
8
BLACK
6
CONTINUOUS
10
5.46877
20
-4.3772
11
5.46877
21
-4.41361
0
LINE
8
BLACK
6
CONTINUOUS
10
5.46877
20
-4.41361
11
5.47706
21
-4.41361
0
LINE
8
BLACK
6
CONTINUOUS
10
5.47706
20
-4.41361
11
5.47807
21
-4.41379
0
LINE
8
BLACK
6
CONTINUOUS
10
5.47807
20
-4.41379
11
5.47962
21
-4.41509
0
LINE
8
BLACK
6
CONTINUOUS
10
5.47962
20
-4.41509
11
5.47997
21
-4.41708
0
LINE
8
BLACK
6
CONTINUOUS
10
5.47997
20
-4.41708
11
5.47896
21
-4.41883
0
LINE
8
BLACK
6
CONTINUOUS
10
5.47896
20
-4.41883
11
5.47706
21
-4.41952
0
LINE
8
BLACK
6
CONTINUOUS
10
5.47706
20
-4.41952
11
5.45457
21
-4.41952
0
LINE
8
BLACK
6
CONTINUOUS
10
5.45457
20
-4.41952
11
5.45356
21
-4.41934
0
LINE
8
BLACK
6
CONTINUOUS
10
5.45356
20
-4.41934
11
5.45201
21
-4.41804
0
LINE
8
BLACK
6
CONTINUOUS
10
5.45201
20
-4.41804
11
5.45166
21
-4.41605
0
LINE
8
BLACK
6
CONTINUOUS
10
5.45166
20
-4.41605
11
5.45267
21
-4.41431
0
LINE
8
BLACK
6
CONTINUOUS
10
5.45267
20
-4.41431
11
5.45457
21
-4.41361
0
LINE
8
BLACK
6
CONTINUOUS
10
5.45457
20
-4.41361
11
5.46286
21
-4.41361
0
LINE
8
BLACK
6
CONTINUOUS
10
5.46286
20
-4.41361
11
5.46286
21
-4.3862
0
LINE
8
BLACK
6
CONTINUOUS
10
5.46286
20
-4.3862
11
5.4604
21
-4.38866
0
LINE
8
BLACK
6
CONTINUOUS
10
5.4604
20
-4.38866
11
5.45968
21
-4.38917
0
LINE
8
BLACK
6
CONTINUOUS
10
5.45968
20
-4.38917
11
5.45964
21
-4.38921
0
LINE
8
BLACK
6
CONTINUOUS
10
5.45964
20
-4.38921
11
5.45589
21
-4.39109
0
LINE
8
BLACK
6
CONTINUOUS
10
5.45589
20
-4.39109
11
5.4549
21
-4.39138
0
LINE
8
BLACK
6
CONTINUOUS
10
5.4549
20
-4.39138
11
5.45294
21
-4.39091
0
LINE
8
BLACK
6
CONTINUOUS
10
5.45294
20
-4.39091
11
5.45173
21
-4.38929
0
LINE
8
BLACK
6
CONTINUOUS
10
5.45173
20
-4.38929
11
5.45186
21
-4.38727
0
LINE
8
BLACK
6
CONTINUOUS
10
5.45186
20
-4.38727
11
5.45324
21
-4.38581
0
LINE
8
BLACK
6
CONTINUOUS
10
5.45324
20
-4.38581
11
5.45657
21
-4.38414
0
LINE
8
BLACK
6
CONTINUOUS
10
5.45657
20
-4.38414
11
5.45977
21
-4.38094
0
LINE
8
BLACK
6
CONTINUOUS
10
5.45977
20
-4.38094
11
5.46336
21
-4.37556
0
LINE
8
BLACK
6
CONTINUOUS
10
5.46336
20
-4.37556
11
5.46407
21
-4.37482
0
LINE
8
BLACK
6
CONTINUOUS
10
5.46407
20
-4.37482
11
5.46423
21
-4.37477
0
LINE
8
BLACK
6
CONTINUOUS
10
5.46423
20
-4.37477
11
5.46434
21
-4.37464
0
LINE
8
BLACK
6
CONTINUOUS
10
5.46434
20
-4.37464
11
5.46518
21
-4.37449
0
LINE
8
BLACK
6
CONTINUOUS
10
5.46518
20
-4.37449
11
5.466
21
-4.37425
0
LINE
8
BLACK
6
CONTINUOUS
10
5.466
20
-4.37425
11
5.46616
21
-4.37432
0
LINE
8
BLACK
6
CONTINUOUS
10
5.50807
20
-4.37442
11
5.5082
21
-4.37454
0
LINE
8
BLACK
6
CONTINUOUS
10
5.5082
20
-4.37454
11
5.50838
21
-4.37456
0
LINE
8
BLACK
6
CONTINUOUS
10
5.50838
20
-4.37456
11
5.51213
21
-4.37643
0
LINE
8
BLACK
6
CONTINUOUS
10
5.51213
20
-4.37643
11
5.51284
21
-4.37696
0
LINE
8
BLACK
6
CONTINUOUS
10
5.51284
20
-4.37696
11
5.5129
21
-4.37698
0
LINE
8
BLACK
6
CONTINUOUS
10
5.5129
20
-4.37698
11
5.51477
21
-4.37886
0
LINE
8
BLACK
6
CONTINUOUS
10
5.51477
20
-4.37886
11
5.51528
21
-4.37958
0
LINE
8
BLACK
6
CONTINUOUS
10
5.51528
20
-4.37958
11
5.51532
21
-4.37963
0
LINE
8
BLACK
6
CONTINUOUS
10
5.51532
20
-4.37963
11
5.5172
21
-4.38338
0
LINE
8
BLACK
6
CONTINUOUS
10
5.5172
20
-4.38338
11
5.51749
21
-4.38436
0
LINE
8
BLACK
6
CONTINUOUS
10
5.51749
20
-4.38436
11
5.51745
21
-4.38453
0
LINE
8
BLACK
6
CONTINUOUS
10
5.51745
20
-4.38453
11
5.51751
21
-4.3847
0
LINE
8
BLACK
6
CONTINUOUS
10
5.51751
20
-4.3847
11
5.51751
21
-4.38845
0
LINE
8
BLACK
6
CONTINUOUS
10
5.51751
20
-4.38845
11
5.51736
21
-4.38932
0
LINE
8
BLACK
6
CONTINUOUS
10
5.51736
20
-4.38932
11
5.51736
21
-4.38938
0
LINE
8
BLACK
6
CONTINUOUS
10
5.51736
20
-4.38938
11
5.51548
21
-4.395
0
LINE
8
BLACK
6
CONTINUOUS
10
5.51548
20
-4.395
11
5.515
21
-4.39591
0
LINE
8
BLACK
6
CONTINUOUS
10
5.515
20
-4.39591
11
5.51485
21
-4.396
0
LINE
8
BLACK
6
CONTINUOUS
10
5.51485
20
-4.396
11
5.51477
21
-4.39616
0
LINE
8
BLACK
6
CONTINUOUS
10
5.51477
20
-4.39616
11
5.49731
21
-4.41361
0
LINE
8
BLACK
6
CONTINUOUS
10
5.49731
20
-4.41361
11
5.51456
21
-4.41361
0
LINE
8
BLACK
6
CONTINUOUS
10
5.51456
20
-4.41361
11
5.51557
21
-4.41379
0
LINE
8
BLACK
6
CONTINUOUS
10
5.51557
20
-4.41379
11
5.51711
21
-4.41509
0
LINE
8
BLACK
6
CONTINUOUS
10
5.51711
20
-4.41509
11
5.51747
21
-4.41708
0
LINE
8
BLACK
6
CONTINUOUS
10
5.51747
20
-4.41708
11
5.51646
21
-4.41883
0
LINE
8
BLACK
6
CONTINUOUS
10
5.51646
20
-4.41883
11
5.51456
21
-4.41952
0
LINE
8
BLACK
6
CONTINUOUS
10
5.51456
20
-4.41952
11
5.49019
21
-4.41952
0
LINE
8
BLACK
6
CONTINUOUS
10
5.49019
20
-4.41952
11
5.48955
21
-4.41941
0
LINE
8
BLACK
6
CONTINUOUS
10
5.48955
20
-4.41941
11
5.48942
21
-4.41942
0
LINE
8
BLACK
6
CONTINUOUS
10
5.48942
20
-4.41942
11
5.48936
21
-4.41937
0
LINE
8
BLACK
6
CONTINUOUS
10
5.48936
20
-4.41937
11
5.48918
21
-4.41934
0
LINE
8
BLACK
6
CONTINUOUS
10
5.48918
20
-4.41934
11
5.48849
21
-4.41877
0
LINE
8
BLACK
6
CONTINUOUS
10
5.48849
20
-4.41877
11
5.48777
21
-4.41826
0
LINE
8
BLACK
6
CONTINUOUS
10
5.48777
20
-4.41826
11
5.48773
21
-4.41813
0
LINE
8
BLACK
6
CONTINUOUS
10
5.48773
20
-4.41813
11
5.48763
21
-4.41804
0
LINE
8
BLACK
6
CONTINUOUS
10
5.48763
20
-4.41804
11
5.48747
21
-4.41717
0
LINE
8
BLACK
6
CONTINUOUS
10
5.48747
20
-4.41717
11
5.48724
21
-4.41631
0
LINE
8
BLACK
6
CONTINUOUS
10
5.48724
20
-4.41631
11
5.4873
21
-4.41619
0
LINE
8
BLACK
6
CONTINUOUS
10
5.4873
20
-4.41619
11
5.48728
21
-4.41605
0
LINE
8
BLACK
6
CONTINUOUS
10
5.48728
20
-4.41605
11
5.48772
21
-4.41528
0
LINE
8
BLACK
6
CONTINUOUS
10
5.48772
20
-4.41528
11
5.4881
21
-4.41448
0
LINE
8
BLACK
6
CONTINUOUS
10
5.4881
20
-4.41448
11
5.5101
21
-4.39248
0
LINE
8
BLACK
6
CONTINUOUS
10
5.5101
20
-4.39248
11
5.5116
21
-4.38797
0
LINE
8
BLACK
6
CONTINUOUS
10
5.5116
20
-4.38797
11
5.5116
21
-4.38539
0
LINE
8
BLACK
6
CONTINUOUS
10
5.5116
20
-4.38539
11
5.51026
21
-4.3827
0
LINE
8
BLACK
6
CONTINUOUS
10
5.51026
20
-4.3827
11
5.50906
21
-4.3815
0
LINE
8
BLACK
6
CONTINUOUS
10
5.50906
20
-4.3815
11
5.50636
21
-4.38015
0
LINE
8
BLACK
6
CONTINUOUS
10
5.50636
20
-4.38015
11
5.49838
21
-4.38015
0
LINE
8
BLACK
6
CONTINUOUS
10
5.49838
20
-4.38015
11
5.49568
21
-4.3815
0
LINE
8
BLACK
6
CONTINUOUS
10
5.49568
20
-4.3815
11
5.49415
21
-4.38304
0
LINE
8
BLACK
6
CONTINUOUS
10
5.49415
20
-4.38304
11
5.49331
21
-4.38362
0
LINE
8
BLACK
6
CONTINUOUS
10
5.49331
20
-4.38362
11
5.4913
21
-4.3838
0
LINE
8
BLACK
6
CONTINUOUS
10
5.4913
20
-4.3838
11
5.48964
21
-4.38264
0
LINE
8
BLACK
6
CONTINUOUS
10
5.48964
20
-4.38264
11
5.48912
21
-4.38069
0
LINE
8
BLACK
6
CONTINUOUS
10
5.48912
20
-4.38069
11
5.48997
21
-4.37886
0
LINE
8
BLACK
6
CONTINUOUS
10
5.48997
20
-4.37886
11
5.49185
21
-4.37698
0
LINE
8
BLACK
6
CONTINUOUS
10
5.49185
20
-4.37698
11
5.49257
21
-4.37648
0
LINE
8
BLACK
6
CONTINUOUS
10
5.49257
20
-4.37648
11
5.49261
21
-4.37643
0
LINE
8
BLACK
6
CONTINUOUS
10
5.49261
20
-4.37643
11
5.49636
21
-4.37456
0
LINE
8
BLACK
6
CONTINUOUS
10
5.49636
20
-4.37456
11
5.49735
21
-4.37426
0
LINE
8
BLACK
6
CONTINUOUS
10
5.49735
20
-4.37426
11
5.49752
21
-4.37431
0
LINE
8
BLACK
6
CONTINUOUS
10
5.49752
20
-4.37431
11
5.49768
21
-4.37424
0
LINE
8
BLACK
6
CONTINUOUS
10
5.49768
20
-4.37424
11
5.50706
21
-4.37424
0
LINE
8
BLACK
6
CONTINUOUS
10
5.50706
20
-4.37424
11
5.50807
21
-4.37442
0
LINE
8
BLACK
6
CONTINUOUS
10
5.61038
20
-4.34711
11
5.61051
21
-4.34709
0
LINE
8
BLACK
6
CONTINUOUS
10
5.61051
20
-4.34709
11
5.61063
21
-4.34716
0
LINE
8
BLACK
6
CONTINUOUS
10
5.61063
20
-4.34716
11
5.61101
21
-4.34723
0
LINE
8
BLACK
6
CONTINUOUS
10
5.61101
20
-4.34723
11
5.6116
21
-4.34772
0
LINE
8
BLACK
6
CONTINUOUS
10
5.6116
20
-4.34772
11
5.61226
21
-4.3481
0
LINE
8
BLACK
6
CONTINUOUS
10
5.61226
20
-4.3481
11
5.61235
21
-4.34835
0
LINE
8
BLACK
6
CONTINUOUS
10
5.61235
20
-4.34835
11
5.61256
21
-4.34852
0
LINE
8
BLACK
6
CONTINUOUS
10
5.61256
20
-4.34852
11
5.61269
21
-4.34928
0
LINE
8
BLACK
6
CONTINUOUS
10
5.61269
20
-4.34928
11
5.61295
21
-4.35
0
LINE
8
BLACK
6
CONTINUOUS
10
5.61295
20
-4.35
11
5.61295
21
-4.55
0
LINE
8
BLACK
6
CONTINUOUS
10
5.61295
20
-4.55
11
5.61289
21
-4.55038
0
LINE
8
BLACK
6
CONTINUOUS
10
5.61289
20
-4.55038
11
5.61291
21
-4.55051
0
LINE
8
BLACK
6
CONTINUOUS
10
5.61291
20
-4.55051
11
5.61284
21
-4.55063
0
LINE
8
BLACK
6
CONTINUOUS
10
5.61284
20
-4.55063
11
5.61277
21
-4.55101
0
LINE
8
BLACK
6
CONTINUOUS
10
5.61277
20
-4.55101
11
5.61228
21
-4.5516
0
LINE
8
BLACK
6
CONTINUOUS
10
5.61228
20
-4.5516
11
5.6119
21
-4.55226
0
LINE
8
BLACK
6
CONTINUOUS
10
5.6119
20
-4.55226
11
5.61165
21
-4.55235
0
LINE
8
BLACK
6
CONTINUOUS
10
5.61165
20
-4.55235
11
5.61148
21
-4.55256
0
LINE
8
BLACK
6
CONTINUOUS
10
5.61148
20
-4.55256
11
5.61072
21
-4.55269
0
LINE
8
BLACK
6
CONTINUOUS
10
5.61072
20
-4.55269
11
5.61
21
-4.55295
0
LINE
8
BLACK
6
CONTINUOUS
10
5.61
20
-4.55295
11
5.31
21
-4.55295
0
LINE
8
BLACK
6
CONTINUOUS
10
5.31
20
-4.55295
11
5.30962
21
-4.55289
0
LINE
8
BLACK
6
CONTINUOUS
10
5.30962
20
-4.55289
11
5.30949
21
-4.55291
0
LINE
8
BLACK
6
CONTINUOUS
10
5.30949
20
-4.55291
11
5.30937
21
-4.55284
0
LINE
8
BLACK
6
CONTINUOUS
10
5.30937
20
-4.55284
11
5.30899
21
-4.55277
0
LINE
8
BLACK
6
CONTINUOUS
10
5.30899
20
-4.55277
11
5.3084
21
-4.55228
0
LINE
8
BLACK
6
CONTINUOUS
10
5.3084
20
-4.55228
11
5.30774
21
-4.5519
0
LINE
8
BLACK
6
CONTINUOUS
10
5.30774
20
-4.5519
11
5.30765
21
-4.55165
0
LINE
8
BLACK
6
CONTINUOUS
10
5.30765
20
-4.55165
11
5.30744
21
-4.55148
0
LINE
8
BLACK
6
CONTINUOUS
10
5.30744
20
-4.55148
11
5.30731
21
-4.55072
0
LINE
8
BLACK
6
CONTINUOUS
10
5.30731
20
-4.55072
11
5.30705
21
-4.55
0
LINE
8
BLACK
6
CONTINUOUS
10
5.30705
20
-4.55
11
5.30705
21
-4.35
0
LINE
8
BLACK
6
CONTINUOUS
10
5.30705
20
-4.35
11
5.30711
21
-4.34962
0
LINE
8
BLACK
6
CONTINUOUS
10
5.30711
20
-4.34962
11
5.30709
21
-4.34949
0
LINE
8
BLACK
6
CONTINUOUS
10
5.30709
20
-4.34949
11
5.30716
21
-4.34937
0
LINE
8
BLACK
6
CONTINUOUS
10
5.30716
20
-4.34937
11
5.30723
21
-4.34899
0
LINE
8
BLACK
6
CONTINUOUS
10
5.30723
20
-4.34899
11
5.30772
21
-4.3484
0
LINE
8
BLACK
6
CONTINUOUS
10
5.30772
20
-4.3484
11
5.3081
21
-4.34774
0
LINE
8
BLACK
6
CONTINUOUS
10
5.3081
20
-4.34774
11
5.30835
21
-4.34765
0
LINE
8
BLACK
6
CONTINUOUS
10
5.30835
20
-4.34765
11
5.30852
21
-4.34744
0
LINE
8
BLACK
6
CONTINUOUS
10
5.30852
20
-4.34744
11
5.30928
21
-4.34731
0
LINE
8
BLACK
6
CONTINUOUS
10
5.30928
20
-4.34731
11
5.31
21
-4.34705
0
LINE
8
BLACK
6
CONTINUOUS
10
5.31
20
-4.34705
11
5.61
21
-4.34705
0
LINE
8
BLACK
6
CONTINUOUS
10
5.61
20
-4.34705
11
5.61038
21
-4.34711
0
LINE
8
BLACK
6
CONTINUOUS
10
5.31295
20
-4.35295
11
5.31295
21
-4.39323
0
LINE
8
BLACK
6
CONTINUOUS
10
5.31295
20
-4.39323
11
5.31319
21
-4.39275
0
LINE
8
BLACK
6
CONTINUOUS
10
5.31319
20
-4.39275
11
5.31372
21
-4.39204
0
LINE
8
BLACK
6
CONTINUOUS
10
5.31372
20
-4.39204
11
5.31374
21
-4.39198
0
LINE
8
BLACK
6
CONTINUOUS
10
5.31374
20
-4.39198
11
5.31562
21
-4.39011
0
LINE
8
BLACK
6
CONTINUOUS
10
5.31562
20
-4.39011
11
5.31634
21
-4.3896
0
LINE
8
BLACK
6
CONTINUOUS
10
5.31634
20
-4.3896
11
5.31639
21
-4.38955
0
LINE
8
BLACK
6
CONTINUOUS
10
5.31639
20
-4.38955
11
5.32014
21
-4.38768
0
LINE
8
BLACK
6
CONTINUOUS
10
5.32014
20
-4.38768
11
5.32112
21
-4.38739
0
LINE
8
BLACK
6
CONTINUOUS
10
5.32112
20
-4.38739
11
5.32129
21
-4.38743
0
LINE
8
BLACK
6
CONTINUOUS
10
5.32129
20
-4.38743
11
5.32146
21
-4.38737
0
LINE
8
BLACK
6
CONTINUOUS
10
5.32146
20
-4.38737
11
5.32896
21
-4.38737
0
LINE
8
BLACK
6
CONTINUOUS
10
5.32896
20
-4.38737
11
5.32975
21
-4.38751
0
LINE
8
BLACK
6
CONTINUOUS
10
5.32975
20
-4.38751
11
5.32975
21
-4.3772
0
LINE
8
BLACK
6
CONTINUOUS
10
5.32975
20
-4.3772
11
5.32993
21
-4.37619
0
LINE
8
BLACK
6
CONTINUOUS
10
5.32993
20
-4.37619
11
5.33123
21
-4.37464
0
LINE
8
BLACK
6
CONTINUOUS
10
5.33123
20
-4.37464
11
5.33322
21
-4.37429
0
LINE
8
BLACK
6
CONTINUOUS
10
5.33322
20
-4.37429
11
5.33497
21
-4.3753
0
LINE
8
BLACK
6
CONTINUOUS
10
5.33497
20
-4.3753
11
5.33566
21
-4.3772
0
LINE
8
BLACK
6
CONTINUOUS
10
5.33566
20
-4.3772
11
5.33566
21
-4.41657
0
LINE
8
BLACK
6
CONTINUOUS
10
5.33566
20
-4.41657
11
5.33548
21
-4.41758
0
LINE
8
BLACK
6
CONTINUOUS
10
5.33548
20
-4.41758
11
5.33418
21
-4.41912
0
LINE
8
BLACK
6
CONTINUOUS
10
5.33418
20
-4.41912
11
5.33219
21
-4.41948
0
LINE
8
BLACK
6
CONTINUOUS
10
5.33219
20
-4.41948
11
5.33106
21
-4.41882
0
LINE
8
BLACK
6
CONTINUOUS
10
5.33106
20
-4.41882
11
5.33028
21
-4.41921
0
LINE
8
BLACK
6
CONTINUOUS
10
5.33028
20
-4.41921
11
5.32929
21
-4.4195
0
LINE
8
BLACK
6
CONTINUOUS
10
5.32929
20
-4.4195
11
5.32912
21
-4.41946
0
LINE
8
BLACK
6
CONTINUOUS
10
5.32912
20
-4.41946
11
5.32896
21
-4.41952
0
LINE
8
BLACK
6
CONTINUOUS
10
5.32896
20
-4.41952
11
5.32146
21
-4.41952
0
LINE
8
BLACK
6
CONTINUOUS
10
5.32146
20
-4.41952
11
5.32045
21
-4.41934
0
LINE
8
BLACK
6
CONTINUOUS
10
5.32045
20
-4.41934
11
5.32031
21
-4.41923
0
LINE
8
BLACK
6
CONTINUOUS
10
5.32031
20
-4.41923
11
5.32014
21
-4.41921
0
LINE
8
BLACK
6
CONTINUOUS
10
5.32014
20
-4.41921
11
5.31639
21
-4.41733
0
LINE
8
BLACK
6
CONTINUOUS
10
5.31639
20
-4.41733
11
5.31568
21
-4.41681
0
LINE
8
BLACK
6
CONTINUOUS
10
5.31568
20
-4.41681
11
5.31562
21
-4.41678
0
LINE
8
BLACK
6
CONTINUOUS
10
5.31562
20
-4.41678
11
5.31374
21
-4.41491
0
LINE
8
BLACK
6
CONTINUOUS
10
5.31374
20
-4.41491
11
5.31324
21
-4.41418
0
LINE
8
BLACK
6
CONTINUOUS
10
5.31324
20
-4.41418
11
5.31319
21
-4.41414
0
LINE
8
BLACK
6
CONTINUOUS
10
5.31319
20
-4.41414
11
5.31295
21
-4.41366
0
LINE
8
BLACK
6
CONTINUOUS
10
5.31295
20
-4.41366
11
5.31295
21
-4.54705
0
LINE
8
BLACK
6
CONTINUOUS
10
5.31295
20
-4.54705
11
5.60705
21
-4.54705
0
LINE
8
BLACK
6
CONTINUOUS
10
5.60705
20
-4.54705
11
5.60705
21
-4.35295
0
LINE
8
BLACK
6
CONTINUOUS
10
5.60705
20
-4.35295
11
5.31295
21
-4.35295
0
LINE
8
BLACK
6
CONTINUOUS
10
5.31946
20
-4.39462
11
5.31826
21
-4.39582
0
LINE
8
BLACK
6
CONTINUOUS
10
5.31826
20
-4.39582
11
5.31691
21
-4.39852
0
LINE
8
BLACK
6
CONTINUOUS
10
5.31691
20
-4.39852
11
5.31691
21
-4.40837
0
LINE
8
BLACK
6
CONTINUOUS
10
5.31691
20
-4.40837
11
5.31826
21
-4.41107
0
LINE
8
BLACK
6
CONTINUOUS
10
5.31826
20
-4.41107
11
5.31946
21
-4.41227
0
LINE
8
BLACK
6
CONTINUOUS
10
5.31946
20
-4.41227
11
5.32215
21
-4.41361
0
LINE
8
BLACK
6
CONTINUOUS
10
5.32215
20
-4.41361
11
5.32826
21
-4.41361
0
LINE
8
BLACK
6
CONTINUOUS
10
5.32826
20
-4.41361
11
5.32975
21
-4.41287
0
LINE
8
BLACK
6
CONTINUOUS
10
5.32975
20
-4.41287
11
5.32975
21
-4.39402
0
LINE
8
BLACK
6
CONTINUOUS
10
5.32975
20
-4.39402
11
5.32826
21
-4.39327
0
LINE
8
BLACK
6
CONTINUOUS
10
5.32826
20
-4.39327
11
5.32215
21
-4.39327
0
LINE
8
BLACK
6
CONTINUOUS
10
5.32215
20
-4.39327
11
5.31946
21
-4.39462
0
LINE
8
BLACK
6
CONTINUOUS
10
4.61406
20
-4.27519
11
4.62795
21
-4.27755
0
LINE
8
BLACK
6
CONTINUOUS
10
4.62795
20
-4.27755
11
4.64148
21
-4.28145
0
LINE
8
BLACK
6
CONTINUOUS
10
4.64148
20
-4.28145
11
4.6545
21
-4.28684
0
LINE
8
BLACK
6
CONTINUOUS
10
4.6545
20
-4.28684
11
4.66682
21
-4.29365
0
LINE
8
BLACK
6
CONTINUOUS
10
4.66682
20
-4.29365
11
4.67831
21
-4.3018
0
LINE
8
BLACK
6
CONTINUOUS
10
4.67831
20
-4.3018
11
4.68881
21
-4.31119
0
LINE
8
BLACK
6
CONTINUOUS
10
4.68881
20
-4.31119
11
4.6982
21
-4.32169
0
LINE
8
BLACK
6
CONTINUOUS
10
4.6982
20
-4.32169
11
4.70635
21
-4.33318
0
LINE
8
BLACK
6
CONTINUOUS
10
4.70635
20
-4.33318
11
4.71316
21
-4.3455
0
LINE
8
BLACK
6
CONTINUOUS
10
4.71316
20
-4.3455
11
4.71855
21
-4.35852
0
LINE
8
BLACK
6
CONTINUOUS
10
4.71855
20
-4.35852
11
4.72245
21
-4.37205
0
LINE
8
BLACK
6
CONTINUOUS
10
4.72245
20
-4.37205
11
4.72481
21
-4.38594
0
LINE
8
BLACK
6
CONTINUOUS
10
4.72481
20
-4.38594
11
4.7256
21
-4.4
0
LINE
8
BLACK
6
CONTINUOUS
10
4.7256
20
-4.4
11
4.72481
21
-4.41406
0
LINE
8
BLACK
6
CONTINUOUS
10
4.72481
20
-4.41406
11
4.72245
21
-4.42795
0
LINE
8
BLACK
6
CONTINUOUS
10
4.72245
20
-4.42795
11
4.71855
21
-4.44148
0
LINE
8
BLACK
6
CONTINUOUS
10
4.71855
20
-4.44148
11
4.71316
21
-4.4545
0
LINE
8
BLACK
6
CONTINUOUS
10
4.71316
20
-4.4545
11
4.70635
21
-4.46682
0
LINE
8
BLACK
6
CONTINUOUS
10
4.70635
20
-4.46682
11
4.6982
21
-4.47831
0
LINE
8
BLACK
6
CONTINUOUS
10
4.6982
20
-4.47831
11
4.68881
21
-4.48881
0
LINE
8
BLACK
6
CONTINUOUS
10
4.68881
20
-4.48881
11
4.67831
21
-4.4982
0
LINE
8
BLACK
6
CONTINUOUS
10
4.67831
20
-4.4982
11
4.66682
21
-4.50635
0
LINE
8
BLACK
6
CONTINUOUS
10
4.66682
20
-4.50635
11
4.6545
21
-4.51316
0
LINE
8
BLACK
6
CONTINUOUS
10
4.6545
20
-4.51316
11
4.64148
21
-4.51855
0
LINE
8
BLACK
6
CONTINUOUS
10
4.64148
20
-4.51855
11
4.62795
21
-4.52245
0
LINE
8
BLACK
6
CONTINUOUS
10
4.62795
20
-4.52245
11
4.61406
21
-4.52481
0
LINE
8
BLACK
6
CONTINUOUS
10
4.61406
20
-4.52481
11
4.6
21
-4.5256
0
LINE
8
BLACK
6
CONTINUOUS
10
4.6
20
-4.5256
11
4.58594
21
-4.52481
0
LINE
8
BLACK
6
CONTINUOUS
10
4.58594
20
-4.52481
11
4.57205
21
-4.52245
0
LINE
8
BLACK
6
CONTINUOUS
10
4.57205
20
-4.52245
11
4.55852
21
-4.51855
0
LINE
8
BLACK
6
CONTINUOUS
10
4.55852
20
-4.51855
11
4.5455
21
-4.51316
0
LINE
8
BLACK
6
CONTINUOUS
10
4.5455
20
-4.51316
11
4.53318
21
-4.50635
0
LINE
8
BLACK
6
CONTINUOUS
10
4.53318
20
-4.50635
11
4.52169
21
-4.4982
0
LINE
8
BLACK
6
CONTINUOUS
10
4.52169
20
-4.4982
11
4.51119
21
-4.48881
0
LINE
8
BLACK
6
CONTINUOUS
10
4.51119
20
-4.48881
11
4.5018
21
-4.47831
0
LINE
8
BLACK
6
CONTINUOUS
10
4.5018
20
-4.47831
11
4.49365
21
-4.46682
0
LINE
8
BLACK
6
CONTINUOUS
10
4.49365
20
-4.46682
11
4.48684
21
-4.4545
0
LINE
8
BLACK
6
CONTINUOUS
10
4.48684
20
-4.4545
11
4.48145
21
-4.44148
0
LINE
8
BLACK
6
CONTINUOUS
10
4.48145
20
-4.44148
11
4.47755
21
-4.42795
0
LINE
8
BLACK
6
CONTINUOUS
10
4.47755
20
-4.42795
11
4.47519
21
-4.41406
0
LINE
8
BLACK
6
CONTINUOUS
10
4.47519
20
-4.41406
11
4.4744
21
-4.4
0
LINE
8
BLACK
6
CONTINUOUS
10
4.4744
20
-4.4
11
4.47519
21
-4.38594
0
LINE
8
BLACK
6
CONTINUOUS
10
4.47519
20
-4.38594
11
4.47755
21
-4.37205
0
LINE
8
BLACK
6
CONTINUOUS
10
4.47755
20
-4.37205
11
4.48145
21
-4.35852
0
LINE
8
BLACK
6
CONTINUOUS
10
4.48145
20
-4.35852
11
4.48684
21
-4.3455
0
LINE
8
BLACK
6
CONTINUOUS
10
4.48684
20
-4.3455
11
4.49365
21
-4.33318
0
LINE
8
BLACK
6
CONTINUOUS
10
4.49365
20
-4.33318
11
4.5018
21
-4.32169
0
LINE
8
BLACK
6
CONTINUOUS
10
4.5018
20
-4.32169
11
4.51119
21
-4.31119
0
LINE
8
BLACK
6
CONTINUOUS
10
4.51119
20
-4.31119
11
4.52169
21
-4.3018
0
LINE
8
BLACK
6
CONTINUOUS
10
4.52169
20
-4.3018
11
4.53318
21
-4.29365
0
LINE
8
BLACK
6
CONTINUOUS
10
4.53318
20
-4.29365
11
4.5455
21
-4.28684
0
LINE
8
BLACK
6
CONTINUOUS
10
4.5455
20
-4.28684
11
4.55852
21
-4.28145
0
LINE
8
BLACK
6
CONTINUOUS
10
4.55852
20
-4.28145
11
4.57205
21
-4.27755
0
LINE
8
BLACK
6
CONTINUOUS
10
4.57205
20
-4.27755
11
4.58594
21
-4.27519
0
LINE
8
BLACK
6
CONTINUOUS
10
4.58594
20
-4.27519
11
4.6
21
-4.2744
0
LINE
8
BLACK
6
CONTINUOUS
10
4.6
20
-4.2744
11
4.61406
21
-4.27519
0
LINE
8
BLACK
6
CONTINUOUS
10
4.48996
20
-4.41286
11
4.4922
21
-4.42555
0
LINE
8
BLACK
6
CONTINUOUS
10
4.4922
20
-4.42555
11
4.49589
21
-4.43789
0
LINE
8
BLACK
6
CONTINUOUS
10
4.49589
20
-4.43789
11
4.501
21
-4.44972
0
LINE
8
BLACK
6
CONTINUOUS
10
4.501
20
-4.44972
11
4.50744
21
-4.46088
0
LINE
8
BLACK
6
CONTINUOUS
10
4.50744
20
-4.46088
11
4.51513
21
-4.47121
0
LINE
8
BLACK
6
CONTINUOUS
10
4.51513
20
-4.47121
11
4.52397
21
-4.48058
0
LINE
8
BLACK
6
CONTINUOUS
10
4.52397
20
-4.48058
11
4.53384
21
-4.48887
0
LINE
8
BLACK
6
CONTINUOUS
10
4.53384
20
-4.48887
11
4.54461
21
-4.49594
0
LINE
8
BLACK
6
CONTINUOUS
10
4.54461
20
-4.49594
11
4.55612
21
-4.50173
0
LINE
8
BLACK
6
CONTINUOUS
10
4.55612
20
-4.50173
11
4.56823
21
-4.50613
0
LINE
8
BLACK
6
CONTINUOUS
10
4.56823
20
-4.50613
11
4.58076
21
-4.5091
0
LINE
8
BLACK
6
CONTINUOUS
10
4.58076
20
-4.5091
11
4.59356
21
-4.5106
0
LINE
8
BLACK
6
CONTINUOUS
10
4.59356
20
-4.5106
11
4.60644
21
-4.5106
0
LINE
8
BLACK
6
CONTINUOUS
10
4.60644
20
-4.5106
11
4.61924
21
-4.5091
0
LINE
8
BLACK
6
CONTINUOUS
10
4.61924
20
-4.5091
11
4.63177
21
-4.50613
0
LINE
8
BLACK
6
CONTINUOUS
10
4.63177
20
-4.50613
11
4.64388
21
-4.50173
0
LINE
8
BLACK
6
CONTINUOUS
10
4.64388
20
-4.50173
11
4.65539
21
-4.49594
0
LINE
8
BLACK
6
CONTINUOUS
10
4.65539
20
-4.49594
11
4.66616
21
-4.48887
0
LINE
8
BLACK
6
CONTINUOUS
10
4.66616
20
-4.48887
11
4.67603
21
-4.48058
0
LINE
8
BLACK
6
CONTINUOUS
10
4.67603
20
-4.48058
11
4.68487
21
-4.47121
0
LINE
8
BLACK
6
CONTINUOUS
10
4.68487
20
-4.47121
11
4.69256
21
-4.46088
0
LINE
8
BLACK
6
CONTINUOUS
10
4.69256
20
-4.46088
11
4.699
21
-4.44972
0
LINE
8
BLACK
6
CONTINUOUS
10
4.699
20
-4.44972
11
4.70411
21
-4.43789
0
LINE
8
BLACK
6
CONTINUOUS
10
4.70411
20
-4.43789
11
4.7078
21
-4.42555
0
LINE
8
BLACK
6
CONTINUOUS
10
4.7078
20
-4.42555
11
4.71004
21
-4.41286
0
LINE
8
BLACK
6
CONTINUOUS
10
4.71004
20
-4.41286
11
4.71079
21
-4.4
0
LINE
8
BLACK
6
CONTINUOUS
10
4.71079
20
-4.4
11
4.71004
21
-4.38714
0
LINE
8
BLACK
6
CONTINUOUS
10
4.71004
20
-4.38714
11
4.7078
21
-4.37445
0
LINE
8
BLACK
6
CONTINUOUS
10
4.7078
20
-4.37445
11
4.70411
21
-4.36211
0
LINE
8
BLACK
6
CONTINUOUS
10
4.70411
20
-4.36211
11
4.699
21
-4.35028
0
LINE
8
BLACK
6
CONTINUOUS
10
4.699
20
-4.35028
11
4.69256
21
-4.33912
0
LINE
8
BLACK
6
CONTINUOUS
10
4.69256
20
-4.33912
11
4.68487
21
-4.32879
0
LINE
8
BLACK
6
CONTINUOUS
10
4.68487
20
-4.32879
11
4.67603
21
-4.31942
0
LINE
8
BLACK
6
CONTINUOUS
10
4.67603
20
-4.31942
11
4.66616
21
-4.31113
0
LINE
8
BLACK
6
CONTINUOUS
10
4.66616
20
-4.31113
11
4.65539
21
-4.30406
0
LINE
8
BLACK
6
CONTINUOUS
10
4.65539
20
-4.30406
11
4.64388
21
-4.29827
0
LINE
8
BLACK
6
CONTINUOUS
10
4.64388
20
-4.29827
11
4.63177
21
-4.29387
0
LINE
8
BLACK
6
CONTINUOUS
10
4.63177
20
-4.29387
11
4.61924
21
-4.2909
0
LINE
8
BLACK
6
CONTINUOUS
10
4.61924
20
-4.2909
11
4.60644
21
-4.2894
0
LINE
8
BLACK
6
CONTINUOUS
10
4.60644
20
-4.2894
11
4.59356
21
-4.2894
0
LINE
8
BLACK
6
CONTINUOUS
10
4.59356
20
-4.2894
11
4.58076
21
-4.2909
0
LINE
8
BLACK
6
CONTINUOUS
10
4.58076
20
-4.2909
11
4.56823
21
-4.29387
0
LINE
8
BLACK
6
CONTINUOUS
10
4.56823
20
-4.29387
11
4.55612
21
-4.29827
0
LINE
8
BLACK
6
CONTINUOUS
10
4.55612
20
-4.29827
11
4.54461
21
-4.30406
0
LINE
8
BLACK
6
CONTINUOUS
10
4.54461
20
-4.30406
11
4.53384
21
-4.31113
0
LINE
8
BLACK
6
CONTINUOUS
10
4.53384
20
-4.31113
11
4.52397
21
-4.31942
0
LINE
8
BLACK
6
CONTINUOUS
10
4.52397
20
-4.31942
11
4.51513
21
-4.32879
0
LINE
8
BLACK
6
CONTINUOUS
10
4.51513
20
-4.32879
11
4.50744
21
-4.33912
0
LINE
8
BLACK
6
CONTINUOUS
10
4.50744
20
-4.33912
11
4.501
21
-4.35028
0
LINE
8
BLACK
6
CONTINUOUS
10
4.501
20
-4.35028
11
4.49589
21
-4.36211
0
LINE
8
BLACK
6
CONTINUOUS
10
4.49589
20
-4.36211
11
4.4922
21
-4.37445
0
LINE
8
BLACK
6
CONTINUOUS
10
4.4922
20
-4.37445
11
4.48996
21
-4.38714
0
LINE
8
BLACK
6
CONTINUOUS
10
4.48996
20
-4.38714
11
4.48921
21
-4.4
0
LINE
8
BLACK
6
CONTINUOUS
10
4.48921
20
-4.4
11
4.48996
21
-4.41286
0
LINE
8
BLACK
6
CONTINUOUS
10
5.81406
20
-4.27519
11
5.82795
21
-4.27755
0
LINE
8
BLACK
6
CONTINUOUS
10
5.82795
20
-4.27755
11
5.84148
21
-4.28145
0
LINE
8
BLACK
6
CONTINUOUS
10
5.84148
20
-4.28145
11
5.8545
21
-4.28684
0
LINE
8
BLACK
6
CONTINUOUS
10
5.8545
20
-4.28684
11
5.86682
21
-4.29365
0
LINE
8
BLACK
6
CONTINUOUS
10
5.86682
20
-4.29365
11
5.87831
21
-4.3018
0
LINE
8
BLACK
6
CONTINUOUS
10
5.87831
20
-4.3018
11
5.88881
21
-4.31119
0
LINE
8
BLACK
6
CONTINUOUS
10
5.88881
20
-4.31119
11
5.8982
21
-4.32169
0
LINE
8
BLACK
6
CONTINUOUS
10
5.8982
20
-4.32169
11
5.90635
21
-4.33318
0
LINE
8
BLACK
6
CONTINUOUS
10
5.90635
20
-4.33318
11
5.91316
21
-4.3455
0
LINE
8
BLACK
6
CONTINUOUS
10
5.91316
20
-4.3455
11
5.91855
21
-4.35852
0
LINE
8
BLACK
6
CONTINUOUS
10
5.91855
20
-4.35852
11
5.92245
21
-4.37205
0
LINE
8
BLACK
6
CONTINUOUS
10
5.92245
20
-4.37205
11
5.92481
21
-4.38594
0
LINE
8
BLACK
6
CONTINUOUS
10
5.92481
20
-4.38594
11
5.9256
21
-4.4
0
LINE
8
BLACK
6
CONTINUOUS
10
5.9256
20
-4.4
11
5.92481
21
-4.41406
0
LINE
8
BLACK
6
CONTINUOUS
10
5.92481
20
-4.41406
11
5.92245
21
-4.42795
0
LINE
8
BLACK
6
CONTINUOUS
10
5.92245
20
-4.42795
11
5.91855
21
-4.44148
0
LINE
8
BLACK
6
CONTINUOUS
10
5.91855
20
-4.44148
11
5.91316
21
-4.4545
0
LINE
8
BLACK
6
CONTINUOUS
10
5.91316
20
-4.4545
11
5.90635
21
-4.46682
0
LINE
8
BLACK
6
CONTINUOUS
10
5.90635
20
-4.46682
11
5.8982
21
-4.47831
0
LINE
8
BLACK
6
CONTINUOUS
10
5.8982
20
-4.47831
11
5.88881
21
-4.48881
0
LINE
8
BLACK
6
CONTINUOUS
10
5.88881
20
-4.48881
11
5.87831
21
-4.4982
0
LINE
8
BLACK
6
CONTINUOUS
10
5.87831
20
-4.4982
11
5.86682
21
-4.50635
0
LINE
8
BLACK
6
CONTINUOUS
10
5.86682
20
-4.50635
11
5.8545
21
-4.51316
0
LINE
8
BLACK
6
CONTINUOUS
10
5.8545
20
-4.51316
11
5.84148
21
-4.51855
0
LINE
8
BLACK
6
CONTINUOUS
10
5.84148
20
-4.51855
11
5.82795
21
-4.52245
0
LINE
8
BLACK
6
CONTINUOUS
10
5.82795
20
-4.52245
11
5.81406
21
-4.52481
0
LINE
8
BLACK
6
CONTINUOUS
10
5.81406
20
-4.52481
11
5.8
21
-4.5256
0
LINE
8
BLACK
6
CONTINUOUS
10
5.8
20
-4.5256
11
5.78594
21
-4.52481
0
LINE
8
BLACK
6
CONTINUOUS
10
5.78594
20
-4.52481
11
5.77205
21
-4.52245
0
LINE
8
BLACK
6
CONTINUOUS
10
5.77205
20
-4.52245
11
5.75852
21
-4.51855
0
LINE
8
BLACK
6
CONTINUOUS
10
5.75852
20
-4.51855
11
5.7455
21
-4.51316
0
LINE
8
BLACK
6
CONTINUOUS
10
5.7455
20
-4.51316
11
5.73318
21
-4.50635
0
LINE
8
BLACK
6
CONTINUOUS
10
5.73318
20
-4.50635
11
5.72169
21
-4.4982
0
LINE
8
BLACK
6
CONTINUOUS
10
5.72169
20
-4.4982
11
5.71119
21
-4.48881
0
LINE
8
BLACK
6
CONTINUOUS
10
5.71119
20
-4.48881
11
5.7018
21
-4.47831
0
LINE
8
BLACK
6
CONTINUOUS
10
5.7018
20
-4.47831
11
5.69365
21
-4.46682
0
LINE
8
BLACK
6
CONTINUOUS
10
5.69365
20
-4.46682
11
5.68684
21
-4.4545
0
LINE
8
BLACK
6
CONTINUOUS
10
5.68684
20
-4.4545
11
5.68145
21
-4.44148
0
LINE
8
BLACK
6
CONTINUOUS
10
5.68145
20
-4.44148
11
5.67755
21
-4.42795
0
LINE
8
BLACK
6
CONTINUOUS
10
5.67755
20
-4.42795
11
5.67519
21
-4.41406
0
LINE
8
BLACK
6
CONTINUOUS
10
5.67519
20
-4.41406
11
5.6744
21
-4.4
0
LINE
8
BLACK
6
CONTINUOUS
10
5.6744
20
-4.4
11
5.67519
21
-4.38594
0
LINE
8
BLACK
6
CONTINUOUS
10
5.67519
20
-4.38594
11
5.67755
21
-4.37205
0
LINE
8
BLACK
6
CONTINUOUS
10
5.67755
20
-4.37205
11
5.68145
21
-4.35852
0
LINE
8
BLACK
6
CONTINUOUS
10
5.68145
20
-4.35852
11
5.68684
21
-4.3455
0
LINE
8
BLACK
6
CONTINUOUS
10
5.68684
20
-4.3455
11
5.69365
21
-4.33318
0
LINE
8
BLACK
6
CONTINUOUS
10
5.69365
20
-4.33318
11
5.7018
21
-4.32169
0
LINE
8
BLACK
6
CONTINUOUS
10
5.7018
20
-4.32169
11
5.71119
21
-4.31119
0
LINE
8
BLACK
6
CONTINUOUS
10
5.71119
20
-4.31119
11
5.72169
21
-4.3018
0
LINE
8
BLACK
6
CONTINUOUS
10
5.72169
20
-4.3018
11
5.73318
21
-4.29365
0
LINE
8
BLACK
6
CONTINUOUS
10
5.73318
20
-4.29365
11
5.7455
21
-4.28684
0
LINE
8
BLACK
6
CONTINUOUS
10
5.7455
20
-4.28684
11
5.75852
21
-4.28145
0
LINE
8
BLACK
6
CONTINUOUS
10
5.75852
20
-4.28145
11
5.77205
21
-4.27755
0
LINE
8
BLACK
6
CONTINUOUS
10
5.77205
20
-4.27755
11
5.78594
21
-4.27519
0
LINE
8
BLACK
6
CONTINUOUS
10
5.78594
20
-4.27519
11
5.8
21
-4.2744
0
LINE
8
BLACK
6
CONTINUOUS
10
5.8
20
-4.2744
11
5.81406
21
-4.27519
0
LINE
8
BLACK
6
CONTINUOUS
10
5.68996
20
-4.41286
11
5.6922
21
-4.42555
0
LINE
8
BLACK
6
CONTINUOUS
10
5.6922
20
-4.42555
11
5.69589
21
-4.43789
0
LINE
8
BLACK
6
CONTINUOUS
10
5.69589
20
-4.43789
11
5.701
21
-4.44972
0
LINE
8
BLACK
6
CONTINUOUS
10
5.701
20
-4.44972
11
5.70744
21
-4.46088
0
LINE
8
BLACK
6
CONTINUOUS
10
5.70744
20
-4.46088
11
5.71513
21
-4.47121
0
LINE
8
BLACK
6
CONTINUOUS
10
5.71513
20
-4.47121
11
5.72397
21
-4.48058
0
LINE
8
BLACK
6
CONTINUOUS
10
5.72397
20
-4.48058
11
5.73384
21
-4.48887
0
LINE
8
BLACK
6
CONTINUOUS
10
5.73384
20
-4.48887
11
5.74461
21
-4.49594
0
LINE
8
BLACK
6
CONTINUOUS
10
5.74461
20
-4.49594
11
5.75612
21
-4.50173
0
LINE
8
BLACK
6
CONTINUOUS
10
5.75612
20
-4.50173
11
5.76823
21
-4.50613
0
LINE
8
BLACK
6
CONTINUOUS
10
5.76823
20
-4.50613
11
5.78076
21
-4.5091
0
LINE
8
BLACK
6
CONTINUOUS
10
5.78076
20
-4.5091
11
5.79356
21
-4.5106
0
LINE
8
BLACK
6
CONTINUOUS
10
5.79356
20
-4.5106
11
5.80644
21
-4.5106
0
LINE
8
BLACK
6
CONTINUOUS
10
5.80644
20
-4.5106
11
5.81924
21
-4.5091
0
LINE
8
BLACK
6
CONTINUOUS
10
5.81924
20
-4.5091
11
5.83177
21
-4.50613
0
LINE
8
BLACK
6
CONTINUOUS
10
5.83177
20
-4.50613
11
5.84388
21
-4.50173
0
LINE
8
BLACK
6
CONTINUOUS
10
5.84388
20
-4.50173
11
5.85539
21
-4.49594
0
LINE
8
BLACK
6
CONTINUOUS
10
5.85539
20
-4.49594
11
5.86616
21
-4.48887
0
LINE
8
BLACK
6
CONTINUOUS
10
5.86616
20
-4.48887
11
5.87603
21
-4.48058
0
LINE
8
BLACK
6
CONTINUOUS
10
5.87603
20
-4.48058
11
5.88487
21
-4.47121
0
LINE
8
BLACK
6
CONTINUOUS
10
5.88487
20
-4.47121
11
5.89256
21
-4.46088
0
LINE
8
BLACK
6
CONTINUOUS
10
5.89256
20
-4.46088
11
5.899
21
-4.44972
0
LINE
8
BLACK
6
CONTINUOUS
10
5.899
20
-4.44972
11
5.90411
21
-4.43789
0
LINE
8
BLACK
6
CONTINUOUS
10
5.90411
20
-4.43789
11
5.9078
21
-4.42555
0
LINE
8
BLACK
6
CONTINUOUS
10
5.9078
20
-4.42555
11
5.91004
21
-4.41286
0
LINE
8
BLACK
6
CONTINUOUS
10
5.91004
20
-4.41286
11
5.91079
21
-4.4
0
LINE
8
BLACK
6
CONTINUOUS
10
5.91079
20
-4.4
11
5.91004
21
-4.38714
0
LINE
8
BLACK
6
CONTINUOUS
10
5.91004
20
-4.38714
11
5.9078
21
-4.37445
0
LINE
8
BLACK
6
CONTINUOUS
10
5.9078
20
-4.37445
11
5.90411
21
-4.36211
0
LINE
8
BLACK
6
CONTINUOUS
10
5.90411
20
-4.36211
11
5.899
21
-4.35028
0
LINE
8
BLACK
6
CONTINUOUS
10
5.899
20
-4.35028
11
5.89256
21
-4.33912
0
LINE
8
BLACK
6
CONTINUOUS
10
5.89256
20
-4.33912
11
5.88487
21
-4.32879
0
LINE
8
BLACK
6
CONTINUOUS
10
5.88487
20
-4.32879
11
5.87603
21
-4.31942
0
LINE
8
BLACK
6
CONTINUOUS
10
5.87603
20
-4.31942
11
5.86616
21
-4.31113
0
LINE
8
BLACK
6
CONTINUOUS
10
5.86616
20
-4.31113
11
5.85539
21
-4.30406
0
LINE
8
BLACK
6
CONTINUOUS
10
5.85539
20
-4.30406
11
5.84388
21
-4.29827
0
LINE
8
BLACK
6
CONTINUOUS
10
5.84388
20
-4.29827
11
5.83177
21
-4.29387
0
LINE
8
BLACK
6
CONTINUOUS
10
5.83177
20
-4.29387
11
5.81924
21
-4.2909
0
LINE
8
BLACK
6
CONTINUOUS
10
5.81924
20
-4.2909
11
5.80644
21
-4.2894
0
LINE
8
BLACK
6
CONTINUOUS
10
5.80644
20
-4.2894
11
5.79356
21
-4.2894
0
LINE
8
BLACK
6
CONTINUOUS
10
5.79356
20
-4.2894
11
5.78076
21
-4.2909
0
LINE
8
BLACK
6
CONTINUOUS
10
5.78076
20
-4.2909
11
5.76823
21
-4.29387
0
LINE
8
BLACK
6
CONTINUOUS
10
5.76823
20
-4.29387
11
5.75612
21
-4.29827
0
LINE
8
BLACK
6
CONTINUOUS
10
5.75612
20
-4.29827
11
5.74461
21
-4.30406
0
LINE
8
BLACK
6
CONTINUOUS
10
5.74461
20
-4.30406
11
5.73384
21
-4.31113
0
LINE
8
BLACK
6
CONTINUOUS
10
5.73384
20
-4.31113
11
5.72397
21
-4.31942
0
LINE
8
BLACK
6
CONTINUOUS
10
5.72397
20
-4.31942
11
5.71513
21
-4.32879
0
LINE
8
BLACK
6
CONTINUOUS
10
5.71513
20
-4.32879
11
5.70744
21
-4.33912
0
LINE
8
BLACK
6
CONTINUOUS
10
5.70744
20
-4.33912
11
5.701
21
-4.35028
0
LINE
8
BLACK
6
CONTINUOUS
10
5.701
20
-4.35028
11
5.69589
21
-4.36211
0
LINE
8
BLACK
6
CONTINUOUS
10
5.69589
20
-4.36211
11
5.6922
21
-4.37445
0
LINE
8
BLACK
6
CONTINUOUS
10
5.6922
20
-4.37445
11
5.68996
21
-4.38714
0
LINE
8
BLACK
6
CONTINUOUS
10
5.68996
20
-4.38714
11
5.68921
21
-4.4
0
LINE
8
BLACK
6
CONTINUOUS
10
5.68921
20
-4.4
11
5.68996
21
-4.41286
0
LINE
8
BLACK
6
CONTINUOUS
10
5.05438
20
-4.38755
11
5.05451
21
-4.38766
0
LINE
8
BLACK
6
CONTINUOUS
10
5.05451
20
-4.38766
11
5.05469
21
-4.38768
0
LINE
8
BLACK
6
CONTINUOUS
10
5.05469
20
-4.38768
11
5.05844
21
-4.38955
0
LINE
8
BLACK
6
CONTINUOUS
10
5.05844
20
-4.38955
11
5.05914
21
-4.39008
0
LINE
8
BLACK
6
CONTINUOUS
10
5.05914
20
-4.39008
11
5.0592
21
-4.39011
0
LINE
8
BLACK
6
CONTINUOUS
10
5.0592
20
-4.39011
11
5.06108
21
-4.39198
0
LINE
8
BLACK
6
CONTINUOUS
10
5.06108
20
-4.39198
11
5.06158
21
-4.39271
0
LINE
8
BLACK
6
CONTINUOUS
10
5.06158
20
-4.39271
11
5.06163
21
-4.39275
0
LINE
8
BLACK
6
CONTINUOUS
10
5.06163
20
-4.39275
11
5.06351
21
-4.3965
0
LINE
8
BLACK
6
CONTINUOUS
10
5.06351
20
-4.3965
11
5.0638
21
-4.39748
0
LINE
8
BLACK
6
CONTINUOUS
10
5.0638
20
-4.39748
11
5.06376
21
-4.39765
0
LINE
8
BLACK
6
CONTINUOUS
10
5.06376
20
-4.39765
11
5.06382
21
-4.39782
0
LINE
8
BLACK
6
CONTINUOUS
10
5.06382
20
-4.39782
11
5.06382
21
-4.40907
0
LINE
8
BLACK
6
CONTINUOUS
10
5.06382
20
-4.40907
11
5.06364
21
-4.41008
0
LINE
8
BLACK
6
CONTINUOUS
10
5.06364
20
-4.41008
11
5.06353
21
-4.41021
0
LINE
8
BLACK
6
CONTINUOUS
10
5.06353
20
-4.41021
11
5.06351
21
-4.41039
0
LINE
8
BLACK
6
CONTINUOUS
10
5.06351
20
-4.41039
11
5.06163
21
-4.41414
0
LINE
8
BLACK
6
CONTINUOUS
10
5.06163
20
-4.41414
11
5.0611
21
-4.41485
0
LINE
8
BLACK
6
CONTINUOUS
10
5.0611
20
-4.41485
11
5.06108
21
-4.41491
0
LINE
8
BLACK
6
CONTINUOUS
10
5.06108
20
-4.41491
11
5.0592
21
-4.41678
0
LINE
8
BLACK
6
CONTINUOUS
10
5.0592
20
-4.41678
11
5.05848
21
-4.41729
0
LINE
8
BLACK
6
CONTINUOUS
10
5.05848
20
-4.41729
11
5.05844
21
-4.41733
0
LINE
8
BLACK
6
CONTINUOUS
10
5.05844
20
-4.41733
11
5.05469
21
-4.41921
0
LINE
8
BLACK
6
CONTINUOUS
10
5.05469
20
-4.41921
11
5.0537
21
-4.4195
0
LINE
8
BLACK
6
CONTINUOUS
10
5.0537
20
-4.4195
11
5.05353
21
-4.41946
0
LINE
8
BLACK
6
CONTINUOUS
10
5.05353
20
-4.41946
11
5.05337
21
-4.41952
0
LINE
8
BLACK
6
CONTINUOUS
10
5.05337
20
-4.41952
11
5.04587
21
-4.41952
0
LINE
8
BLACK
6
CONTINUOUS
10
5.04587
20
-4.41952
11
5.04507
21
-4.41938
0
LINE
8
BLACK
6
CONTINUOUS
10
5.04507
20
-4.41938
11
5.04507
21
-4.42969
0
LINE
8
BLACK
6
CONTINUOUS
10
5.04507
20
-4.42969
11
5.04489
21
-4.4307
0
LINE
8
BLACK
6
CONTINUOUS
10
5.04489
20
-4.4307
11
5.04359
21
-4.43225
0
LINE
8
BLACK
6
CONTINUOUS
10
5.04359
20
-4.43225
11
5.0416
21
-4.4326
0
LINE
8
BLACK
6
CONTINUOUS
10
5.0416
20
-4.4326
11
5.03985
21
-4.43159
0
LINE
8
BLACK
6
CONTINUOUS
10
5.03985
20
-4.43159
11
5.03916
21
-4.42969
0
LINE
8
BLACK
6
CONTINUOUS
10
5.03916
20
-4.42969
11
5.03916
21
-4.39032
0
LINE
8
BLACK
6
CONTINUOUS
10
5.03916
20
-4.39032
11
5.03934
21
-4.38931
0
LINE
8
BLACK
6
CONTINUOUS
10
5.03934
20
-4.38931
11
5.04064
21
-4.38776
0
LINE
8
BLACK
6
CONTINUOUS
10
5.04064
20
-4.38776
11
5.04263
21
-4.38741
0
LINE
8
BLACK
6
CONTINUOUS
10
5.04263
20
-4.38741
11
5.04377
21
-4.38807
0
LINE
8
BLACK
6
CONTINUOUS
10
5.04377
20
-4.38807
11
5.04455
21
-4.38768
0
LINE
8
BLACK
6
CONTINUOUS
10
5.04455
20
-4.38768
11
5.04553
21
-4.38739
0
LINE
8
BLACK
6
CONTINUOUS
10
5.04553
20
-4.38739
11
5.0457
21
-4.38743
0
LINE
8
BLACK
6
CONTINUOUS
10
5.0457
20
-4.38743
11
5.04587
21
-4.38737
0
LINE
8
BLACK
6
CONTINUOUS
10
5.04587
20
-4.38737
11
5.05337
21
-4.38737
0
LINE
8
BLACK
6
CONTINUOUS
10
5.05337
20
-4.38737
11
5.05438
21
-4.38755
0
LINE
8
BLACK
6
CONTINUOUS
10
5.04507
20
-4.39402
11
5.04507
21
-4.41287
0
LINE
8
BLACK
6
CONTINUOUS
10
5.04507
20
-4.41287
11
5.04656
21
-4.41361
0
LINE
8
BLACK
6
CONTINUOUS
10
5.04656
20
-4.41361
11
5.05267
21
-4.41361
0
LINE
8
BLACK
6
CONTINUOUS
10
5.05267
20
-4.41361
11
5.05537
21
-4.41227
0
LINE
8
BLACK
6
CONTINUOUS
10
5.05537
20
-4.41227
11
5.05656
21
-4.41107
0
LINE
8
BLACK
6
CONTINUOUS
10
5.05656
20
-4.41107
11
5.05791
21
-4.40837
0
LINE
8
BLACK
6
CONTINUOUS
10
5.05791
20
-4.40837
11
5.05791
21
-4.39852
0
LINE
8
BLACK
6
CONTINUOUS
10
5.05791
20
-4.39852
11
5.05656
21
-4.39582
0
LINE
8
BLACK
6
CONTINUOUS
10
5.05656
20
-4.39582
11
5.05537
21
-4.39462
0
LINE
8
BLACK
6
CONTINUOUS
10
5.05537
20
-4.39462
11
5.05267
21
-4.39327
0
LINE
8
BLACK
6
CONTINUOUS
10
5.05267
20
-4.39327
11
5.04656
21
-4.39327
0
LINE
8
BLACK
6
CONTINUOUS
10
5.04656
20
-4.39327
11
5.04507
21
-4.39402
0
LINE
8
BLACK
6
CONTINUOUS
10
5.15749
20
-4.41754
11
5.15903
21
-4.41884
0
LINE
8
BLACK
6
CONTINUOUS
10
5.15903
20
-4.41884
11
5.15939
21
-4.42083
0
LINE
8
BLACK
6
CONTINUOUS
10
5.15939
20
-4.42083
11
5.15838
21
-4.42258
0
LINE
8
BLACK
6
CONTINUOUS
10
5.15838
20
-4.42258
11
5.15648
21
-4.42327
0
LINE
8
BLACK
6
CONTINUOUS
10
5.15648
20
-4.42327
11
5.12648
21
-4.42327
0
LINE
8
BLACK
6
CONTINUOUS
10
5.12648
20
-4.42327
11
5.12547
21
-4.42309
0
LINE
8
BLACK
6
CONTINUOUS
10
5.12547
20
-4.42309
11
5.12392
21
-4.42179
0
LINE
8
BLACK
6
CONTINUOUS
10
5.12392
20
-4.42179
11
5.12357
21
-4.4198
0
LINE
8
BLACK
6
CONTINUOUS
10
5.12357
20
-4.4198
11
5.12458
21
-4.41806
0
LINE
8
BLACK
6
CONTINUOUS
10
5.12458
20
-4.41806
11
5.12648
21
-4.41736
0
LINE
8
BLACK
6
CONTINUOUS
10
5.12648
20
-4.41736
11
5.15648
21
-4.41736
0
LINE
8
BLACK
6
CONTINUOUS
10
5.15648
20
-4.41736
11
5.15749
21
-4.41754
0
LINE
8
BLACK
6
CONTINUOUS
10
5.22498
20
-4.41754
11
5.22653
21
-4.41884
0
LINE
8
BLACK
6
CONTINUOUS
10
5.22653
20
-4.41884
11
5.22688
21
-4.42083
0
LINE
8
BLACK
6
CONTINUOUS
10
5.22688
20
-4.42083
11
5.22587
21
-4.42258
0
LINE
8
BLACK
6
CONTINUOUS
10
5.22587
20
-4.42258
11
5.22397
21
-4.42327
0
LINE
8
BLACK
6
CONTINUOUS
10
5.22397
20
-4.42327
11
5.19397
21
-4.42327
0
LINE
8
BLACK
6
CONTINUOUS
10
5.19397
20
-4.42327
11
5.19296
21
-4.42309
0
LINE
8
BLACK
6
CONTINUOUS
10
5.19296
20
-4.42309
11
5.19142
21
-4.42179
0
LINE
8
BLACK
6
CONTINUOUS
10
5.19142
20
-4.42179
11
5.19106
21
-4.4198
0
LINE
8
BLACK
6
CONTINUOUS
10
5.19106
20
-4.4198
11
5.19207
21
-4.41806
0
LINE
8
BLACK
6
CONTINUOUS
10
5.19207
20
-4.41806
11
5.19397
21
-4.41736
0
LINE
8
BLACK
6
CONTINUOUS
10
5.19397
20
-4.41736
11
5.22397
21
-4.41736
0
LINE
8
BLACK
6
CONTINUOUS
10
5.22397
20
-4.41736
11
5.22498
21
-4.41754
0
LINE
8
BLACK
6
CONTINUOUS
10
4.7524
20
-4.3744
11
4.75246
21
-4.3744
0
LINE
8
BLACK
6
CONTINUOUS
10
4.75246
20
-4.3744
11
4.75809
21
-4.37627
0
LINE
8
BLACK
6
CONTINUOUS
10
4.75809
20
-4.37627
11
4.75899
21
-4.37676
0
LINE
8
BLACK
6
CONTINUOUS
10
4.75899
20
-4.37676
11
4.76004
21
-4.37848
0
LINE
8
BLACK
6
CONTINUOUS
10
4.76004
20
-4.37848
11
4.75975
21
-4.38048
0
LINE
8
BLACK
6
CONTINUOUS
10
4.75975
20
-4.38048
11
4.75824
21
-4.38182
0
LINE
8
BLACK
6
CONTINUOUS
10
4.75824
20
-4.38182
11
4.75622
21
-4.38187
0
LINE
8
BLACK
6
CONTINUOUS
10
4.75622
20
-4.38187
11
4.75105
21
-4.38015
0
LINE
8
BLACK
6
CONTINUOUS
10
4.75105
20
-4.38015
11
4.74285
21
-4.38015
0
LINE
8
BLACK
6
CONTINUOUS
10
4.74285
20
-4.38015
11
4.74015
21
-4.3815
0
LINE
8
BLACK
6
CONTINUOUS
10
4.74015
20
-4.3815
11
4.73896
21
-4.3827
0
LINE
8
BLACK
6
CONTINUOUS
10
4.73896
20
-4.3827
11
4.73761
21
-4.38539
0
LINE
8
BLACK
6
CONTINUOUS
10
4.73761
20
-4.38539
11
4.73761
21
-4.38775
0
LINE
8
BLACK
6
CONTINUOUS
10
4.73761
20
-4.38775
11
4.73896
21
-4.39045
0
LINE
8
BLACK
6
CONTINUOUS
10
4.73896
20
-4.39045
11
4.74015
21
-4.39164
0
LINE
8
BLACK
6
CONTINUOUS
10
4.74015
20
-4.39164
11
4.74318
21
-4.39316
0
LINE
8
BLACK
6
CONTINUOUS
10
4.74318
20
-4.39316
11
4.75037
21
-4.39496
0
LINE
8
BLACK
6
CONTINUOUS
10
4.75037
20
-4.39496
11
4.75083
21
-4.39516
0
LINE
8
BLACK
6
CONTINUOUS
10
4.75083
20
-4.39516
11
4.75097
21
-4.39518
0
LINE
8
BLACK
6
CONTINUOUS
10
4.75097
20
-4.39518
11
4.75472
21
-4.39705
0
LINE
8
BLACK
6
CONTINUOUS
10
4.75472
20
-4.39705
11
4.75543
21
-4.39758
0
LINE
8
BLACK
6
CONTINUOUS
10
4.75543
20
-4.39758
11
4.75549
21
-4.39761
0
LINE
8
BLACK
6
CONTINUOUS
10
4.75549
20
-4.39761
11
4.75737
21
-4.39948
0
LINE
8
BLACK
6
CONTINUOUS
10
4.75737
20
-4.39948
11
4.75787
21
-4.4002
0
LINE
8
BLACK
6
CONTINUOUS
10
4.75787
20
-4.4002
11
4.75792
21
-4.40025
0
LINE
8
BLACK
6
CONTINUOUS
10
4.75792
20
-4.40025
11
4.75979
21
-4.404
0
LINE
8
BLACK
6
CONTINUOUS
10
4.75979
20
-4.404
11
4.76009
21
-4.40498
0
LINE
8
BLACK
6
CONTINUOUS
10
4.76009
20
-4.40498
11
4.76004
21
-4.40515
0
LINE
8
BLACK
6
CONTINUOUS
10
4.76004
20
-4.40515
11
4.7601
21
-4.40532
0
LINE
8
BLACK
6
CONTINUOUS
10
4.7601
20
-4.40532
11
4.7601
21
-4.40907
0
LINE
8
BLACK
6
CONTINUOUS
10
4.7601
20
-4.40907
11
4.75993
21
-4.41008
0
LINE
8
BLACK
6
CONTINUOUS
10
4.75993
20
-4.41008
11
4.75981
21
-4.41021
0
LINE
8
BLACK
6
CONTINUOUS
10
4.75981
20
-4.41021
11
4.75979
21
-4.41039
0
LINE
8
BLACK
6
CONTINUOUS
10
4.75979
20
-4.41039
11
4.75792
21
-4.41414
0
LINE
8
BLACK
6
CONTINUOUS
10
4.75792
20
-4.41414
11
4.75739
21
-4.41485
0
LINE
8
BLACK
6
CONTINUOUS
10
4.75739
20
-4.41485
11
4.75737
21
-4.41491
0
LINE
8
BLACK
6
CONTINUOUS
10
4.75737
20
-4.41491
11
4.75549
21
-4.41678
0
LINE
8
BLACK
6
CONTINUOUS
10
4.75549
20
-4.41678
11
4.75477
21
-4.41729
0
LINE
8
BLACK
6
CONTINUOUS
10
4.75477
20
-4.41729
11
4.75472
21
-4.41733
0
LINE
8
BLACK
6
CONTINUOUS
10
4.75472
20
-4.41733
11
4.75097
21
-4.41921
0
LINE
8
BLACK
6
CONTINUOUS
10
4.75097
20
-4.41921
11
4.74999
21
-4.4195
0
LINE
8
BLACK
6
CONTINUOUS
10
4.74999
20
-4.4195
11
4.74982
21
-4.41946
0
LINE
8
BLACK
6
CONTINUOUS
10
4.74982
20
-4.41946
11
4.74965
21
-4.41952
0
LINE
8
BLACK
6
CONTINUOUS
10
4.74965
20
-4.41952
11
4.74028
21
-4.41952
0
LINE
8
BLACK
6
CONTINUOUS
10
4.74028
20
-4.41952
11
4.73941
21
-4.41937
0
LINE
8
BLACK
6
CONTINUOUS
10
4.73941
20
-4.41937
11
4.73935
21
-4.41937
0
LINE
8
BLACK
6
CONTINUOUS
10
4.73935
20
-4.41937
11
4.73372
21
-4.41749
0
LINE
8
BLACK
6
CONTINUOUS
10
4.73372
20
-4.41749
11
4.73282
21
-4.41701
0
LINE
8
BLACK
6
CONTINUOUS
10
4.73282
20
-4.41701
11
4.73176
21
-4.41528
0
LINE
8
BLACK
6
CONTINUOUS
10
4.73176
20
-4.41528
11
4.73206
21
-4.41329
0
LINE
8
BLACK
6
CONTINUOUS
10
4.73206
20
-4.41329
11
4.73357
21
-4.41195
0
LINE
8
BLACK
6
CONTINUOUS
10
4.73357
20
-4.41195
11
4.73559
21
-4.41189
0
LINE
8
BLACK
6
CONTINUOUS
10
4.73559
20
-4.41189
11
4.74076
21
-4.41361
0
LINE
8
BLACK
6
CONTINUOUS
10
4.74076
20
-4.41361
11
4.74896
21
-4.41361
0
LINE
8
BLACK
6
CONTINUOUS
10
4.74896
20
-4.41361
11
4.75165
21
-4.41227
0
LINE
8
BLACK
6
CONTINUOUS
10
4.75165
20
-4.41227
11
4.75285
21
-4.41107
0
LINE
8
BLACK
6
CONTINUOUS
10
4.75285
20
-4.41107
11
4.7542
21
-4.40837
0
LINE
8
BLACK
6
CONTINUOUS
10
4.7542
20
-4.40837
11
4.7542
21
-4.40602
0
LINE
8
BLACK
6
CONTINUOUS
10
4.7542
20
-4.40602
11
4.75285
21
-4.40332
0
LINE
8
BLACK
6
CONTINUOUS
10
4.75285
20
-4.40332
11
4.75165
21
-4.40212
0
LINE
8
BLACK
6
CONTINUOUS
10
4.75165
20
-4.40212
11
4.74862
21
-4.40061
0
LINE
8
BLACK
6
CONTINUOUS
10
4.74862
20
-4.40061
11
4.74144
21
-4.39881
0
LINE
8
BLACK
6
CONTINUOUS
10
4.74144
20
-4.39881
11
4.74097
21
-4.3986
0
LINE
8
BLACK
6
CONTINUOUS
10
4.74097
20
-4.3986
11
4.74083
21
-4.39859
0
LINE
8
BLACK
6
CONTINUOUS
10
4.74083
20
-4.39859
11
4.73708
21
-4.39671
0
LINE
8
BLACK
6
CONTINUOUS
10
4.73708
20
-4.39671
11
4.73637
21
-4.39619
0
LINE
8
BLACK
6
CONTINUOUS
10
4.73637
20
-4.39619
11
4.73632
21
-4.39616
0
LINE
8
BLACK
6
CONTINUOUS
10
4.73632
20
-4.39616
11
4.73444
21
-4.39428
0
LINE
8
BLACK
6
CONTINUOUS
10
4.73444
20
-4.39428
11
4.73394
21
-4.39356
0
LINE
8
BLACK
6
CONTINUOUS
10
4.73394
20
-4.39356
11
4.73389
21
-4.39352
0
LINE
8
BLACK
6
CONTINUOUS
10
4.73389
20
-4.39352
11
4.73201
21
-4.38977
0
LINE
8
BLACK
6
CONTINUOUS
10
4.73201
20
-4.38977
11
4.73172
21
-4.38878
0
LINE
8
BLACK
6
CONTINUOUS
10
4.73172
20
-4.38878
11
4.73176
21
-4.38861
0
LINE
8
BLACK
6
CONTINUOUS
10
4.73176
20
-4.38861
11
4.7317
21
-4.38845
0
LINE
8
BLACK
6
CONTINUOUS
10
4.7317
20
-4.38845
11
4.7317
21
-4.3847
0
LINE
8
BLACK
6
CONTINUOUS
10
4.7317
20
-4.3847
11
4.73188
21
-4.38369
0
LINE
8
BLACK
6
CONTINUOUS
10
4.73188
20
-4.38369
11
4.73199
21
-4.38355
0
LINE
8
BLACK
6
CONTINUOUS
10
4.73199
20
-4.38355
11
4.73201
21
-4.38338
0
LINE
8
BLACK
6
CONTINUOUS
10
4.73201
20
-4.38338
11
4.73389
21
-4.37963
0
LINE
8
BLACK
6
CONTINUOUS
10
4.73389
20
-4.37963
11
4.73441
21
-4.37892
0
LINE
8
BLACK
6
CONTINUOUS
10
4.73441
20
-4.37892
11
4.73444
21
-4.37886
0
LINE
8
BLACK
6
CONTINUOUS
10
4.73444
20
-4.37886
11
4.73632
21
-4.37698
0
LINE
8
BLACK
6
CONTINUOUS
10
4.73632
20
-4.37698
11
4.73704
21
-4.37648
0
LINE
8
BLACK
6
CONTINUOUS
10
4.73704
20
-4.37648
11
4.73708
21
-4.37643
0
LINE
8
BLACK
6
CONTINUOUS
10
4.73708
20
-4.37643
11
4.74083
21
-4.37456
0
LINE
8
BLACK
6
CONTINUOUS
10
4.74083
20
-4.37456
11
4.74182
21
-4.37426
0
LINE
8
BLACK
6
CONTINUOUS
10
4.74182
20
-4.37426
11
4.74199
21
-4.37431
0
LINE
8
BLACK
6
CONTINUOUS
10
4.74199
20
-4.37431
11
4.74215
21
-4.37424
0
LINE
8
BLACK
6
CONTINUOUS
10
4.74215
20
-4.37424
11
4.75153
21
-4.37424
0
LINE
8
BLACK
6
CONTINUOUS
10
4.75153
20
-4.37424
11
4.7524
21
-4.3744
0
LINE
8
BLACK
6
CONTINUOUS
10
4.78628
20
-4.38755
11
4.78642
21
-4.38766
0
LINE
8
BLACK
6
CONTINUOUS
10
4.78642
20
-4.38766
11
4.78659
21
-4.38768
0
LINE
8
BLACK
6
CONTINUOUS
10
4.78659
20
-4.38768
11
4.79034
21
-4.38955
0
LINE
8
BLACK
6
CONTINUOUS
10
4.79034
20
-4.38955
11
4.79105
21
-4.39008
0
LINE
8
BLACK
6
CONTINUOUS
10
4.79105
20
-4.39008
11
4.79111
21
-4.39011
0
LINE
8
BLACK
6
CONTINUOUS
10
4.79111
20
-4.39011
11
4.79299
21
-4.39198
0
LINE
8
BLACK
6
CONTINUOUS
10
4.79299
20
-4.39198
11
4.79349
21
-4.39271
0
LINE
8
BLACK
6
CONTINUOUS
10
4.79349
20
-4.39271
11
4.79354
21
-4.39275
0
LINE
8
BLACK
6
CONTINUOUS
10
4.79354
20
-4.39275
11
4.79541
21
-4.3965
0
LINE
8
BLACK
6
CONTINUOUS
10
4.79541
20
-4.3965
11
4.79571
21
-4.39748
0
LINE
8
BLACK
6
CONTINUOUS
10
4.79571
20
-4.39748
11
4.79567
21
-4.39765
0
LINE
8
BLACK
6
CONTINUOUS
10
4.79567
20
-4.39765
11
4.79573
21
-4.39782
0
LINE
8
BLACK
6
CONTINUOUS
10
4.79573
20
-4.39782
11
4.79573
21
-4.40907
0
LINE
8
BLACK
6
CONTINUOUS
10
4.79573
20
-4.40907
11
4.79555
21
-4.41008
0
LINE
8
BLACK
6
CONTINUOUS
10
4.79555
20
-4.41008
11
4.79543
21
-4.41021
0
LINE
8
BLACK
6
CONTINUOUS
10
4.79543
20
-4.41021
11
4.79541
21
-4.41039
0
LINE
8
BLACK
6
CONTINUOUS
10
4.79541
20
-4.41039
11
4.79354
21
-4.41414
0
LINE
8
BLACK
6
CONTINUOUS
10
4.79354
20
-4.41414
11
4.79301
21
-4.41485
0
LINE
8
BLACK
6
CONTINUOUS
10
4.79301
20
-4.41485
11
4.79299
21
-4.41491
0
LINE
8
BLACK
6
CONTINUOUS
10
4.79299
20
-4.41491
11
4.79111
21
-4.41678
0
LINE
8
BLACK
6
CONTINUOUS
10
4.79111
20
-4.41678
11
4.79039
21
-4.41729
0
LINE
8
BLACK
6
CONTINUOUS
10
4.79039
20
-4.41729
11
4.79034
21
-4.41733
0
LINE
8
BLACK
6
CONTINUOUS
10
4.79034
20
-4.41733
11
4.78659
21
-4.41921
0
LINE
8
BLACK
6
CONTINUOUS
10
4.78659
20
-4.41921
11
4.78561
21
-4.4195
0
LINE
8
BLACK
6
CONTINUOUS
10
4.78561
20
-4.4195
11
4.78544
21
-4.41946
0
LINE
8
BLACK
6
CONTINUOUS
10
4.78544
20
-4.41946
11
4.78527
21
-4.41952
0
LINE
8
BLACK
6
CONTINUOUS
10
4.78527
20
-4.41952
11
4.77965
21
-4.41952
0
LINE
8
BLACK
6
CONTINUOUS
10
4.77965
20
-4.41952
11
4.77864
21
-4.41934
0
LINE
8
BLACK
6
CONTINUOUS
10
4.77864
20
-4.41934
11
4.7785
21
-4.41923
0
LINE
8
BLACK
6
CONTINUOUS
10
4.7785
20
-4.41923
11
4.77833
21
-4.41921
0
LINE
8
BLACK
6
CONTINUOUS
10
4.77833
20
-4.41921
11
4.77458
21
-4.41733
0
LINE
8
BLACK
6
CONTINUOUS
10
4.77458
20
-4.41733
11
4.77387
21
-4.41681
0
LINE
8
BLACK
6
CONTINUOUS
10
4.77387
20
-4.41681
11
4.77381
21
-4.41678
0
LINE
8
BLACK
6
CONTINUOUS
10
4.77381
20
-4.41678
11
4.77194
21
-4.41491
0
LINE
8
BLACK
6
CONTINUOUS
10
4.77194
20
-4.41491
11
4.77143
21
-4.41418
0
LINE
8
BLACK
6
CONTINUOUS
10
4.77143
20
-4.41418
11
4.77138
21
-4.41414
0
LINE
8
BLACK
6
CONTINUOUS
10
4.77138
20
-4.41414
11
4.76951
21
-4.41039
0
LINE
8
BLACK
6
CONTINUOUS
10
4.76951
20
-4.41039
11
4.76922
21
-4.40941
0
LINE
8
BLACK
6
CONTINUOUS
10
4.76922
20
-4.40941
11
4.76926
21
-4.40923
0
LINE
8
BLACK
6
CONTINUOUS
10
4.76926
20
-4.40923
11
4.7692
21
-4.40907
0
LINE
8
BLACK
6
CONTINUOUS
10
4.7692
20
-4.40907
11
4.7692
21
-4.39782
0
LINE
8
BLACK
6
CONTINUOUS
10
4.7692
20
-4.39782
11
4.76938
21
-4.39681
0
LINE
8
BLACK
6
CONTINUOUS
10
4.76938
20
-4.39681
11
4.76949
21
-4.39667
0
LINE
8
BLACK
6
CONTINUOUS
10
4.76949
20
-4.39667
11
4.76951
21
-4.3965
0
LINE
8
BLACK
6
CONTINUOUS
10
4.76951
20
-4.3965
11
4.77138
21
-4.39275
0
LINE
8
BLACK
6
CONTINUOUS
10
4.77138
20
-4.39275
11
4.77191
21
-4.39204
0
LINE
8
BLACK
6
CONTINUOUS
10
4.77191
20
-4.39204
11
4.77194
21
-4.39198
0
LINE
8
BLACK
6
CONTINUOUS
10
4.77194
20
-4.39198
11
4.77381
21
-4.39011
0
LINE
8
BLACK
6
CONTINUOUS
10
4.77381
20
-4.39011
11
4.77454
21
-4.3896
0
LINE
8
BLACK
6
CONTINUOUS
10
4.77454
20
-4.3896
11
4.77458
21
-4.38955
0
LINE
8
BLACK
6
CONTINUOUS
10
4.77458
20
-4.38955
11
4.77833
21
-4.38768
0
LINE
8
BLACK
6
CONTINUOUS
10
4.77833
20
-4.38768
11
4.77931
21
-4.38739
0
LINE
8
BLACK
6
CONTINUOUS
10
4.77931
20
-4.38739
11
4.77948
21
-4.38743
0
LINE
8
BLACK
6
CONTINUOUS
10
4.77948
20
-4.38743
11
4.77965
21
-4.38737
0
LINE
8
BLACK
6
CONTINUOUS
10
4.77965
20
-4.38737
11
4.78527
21
-4.38737
0
LINE
8
BLACK
6
CONTINUOUS
10
4.78527
20
-4.38737
11
4.78628
21
-4.38755
0
LINE
8
BLACK
6
CONTINUOUS
10
4.77765
20
-4.39462
11
4.77645
21
-4.39582
0
LINE
8
BLACK
6
CONTINUOUS
10
4.77645
20
-4.39582
11
4.7751
21
-4.39852
0
LINE
8
BLACK
6
CONTINUOUS
10
4.7751
20
-4.39852
11
4.7751
21
-4.40837
0
LINE
8
BLACK
6
CONTINUOUS
10
4.7751
20
-4.40837
11
4.77645
21
-4.41107
0
LINE
8
BLACK
6
CONTINUOUS
10
4.77645
20
-4.41107
11
4.77765
21
-4.41227
0
LINE
8
BLACK
6
CONTINUOUS
10
4.77765
20
-4.41227
11
4.78035
21
-4.41361
0
LINE
8
BLACK
6
CONTINUOUS
10
4.78035
20
-4.41361
11
4.78458
21
-4.41361
0
LINE
8
BLACK
6
CONTINUOUS
10
4.78458
20
-4.41361
11
4.78727
21
-4.41227
0
LINE
8
BLACK
6
CONTINUOUS
10
4.78727
20
-4.41227
11
4.78847
21
-4.41107
0
LINE
8
BLACK
6
CONTINUOUS
10
4.78847
20
-4.41107
11
4.78982
21
-4.40837
0
LINE
8
BLACK
6
CONTINUOUS
10
4.78982
20
-4.40837
11
4.78982
21
-4.39852
0
LINE
8
BLACK
6
CONTINUOUS
10
4.78982
20
-4.39852
11
4.78847
21
-4.39582
0
LINE
8
BLACK
6
CONTINUOUS
10
4.78847
20
-4.39582
11
4.78727
21
-4.39462
0
LINE
8
BLACK
6
CONTINUOUS
10
4.78727
20
-4.39462
11
4.78458
21
-4.39327
0
LINE
8
BLACK
6
CONTINUOUS
10
4.78458
20
-4.39327
11
4.78035
21
-4.39327
0
LINE
8
BLACK
6
CONTINUOUS
10
4.78035
20
-4.39327
11
4.77765
21
-4.39462
0
LINE
8
BLACK
6
CONTINUOUS
10
4.8494
20
-4.3753
11
4.85009
21
-4.3772
0
LINE
8
BLACK
6
CONTINUOUS
10
4.85009
20
-4.3772
11
4.85009
21
-4.41657
0
LINE
8
BLACK
6
CONTINUOUS
10
4.85009
20
-4.41657
11
4.84992
21
-4.41758
0
LINE
8
BLACK
6
CONTINUOUS
10
4.84992
20
-4.41758
11
4.84862
21
-4.41912
0
LINE
8
BLACK
6
CONTINUOUS
10
4.84862
20
-4.41912
11
4.84663
21
-4.41948
0
LINE
8
BLACK
6
CONTINUOUS
10
4.84663
20
-4.41948
11
4.84549
21
-4.41882
0
LINE
8
BLACK
6
CONTINUOUS
10
4.84549
20
-4.41882
11
4.84471
21
-4.41921
0
LINE
8
BLACK
6
CONTINUOUS
10
4.84471
20
-4.41921
11
4.84373
21
-4.4195
0
LINE
8
BLACK
6
CONTINUOUS
10
4.84373
20
-4.4195
11
4.84356
21
-4.41946
0
LINE
8
BLACK
6
CONTINUOUS
10
4.84356
20
-4.41946
11
4.84339
21
-4.41952
0
LINE
8
BLACK
6
CONTINUOUS
10
4.84339
20
-4.41952
11
4.83589
21
-4.41952
0
LINE
8
BLACK
6
CONTINUOUS
10
4.83589
20
-4.41952
11
4.83488
21
-4.41934
0
LINE
8
BLACK
6
CONTINUOUS
10
4.83488
20
-4.41934
11
4.83475
21
-4.41923
0
LINE
8
BLACK
6
CONTINUOUS
10
4.83475
20
-4.41923
11
4.83457
21
-4.41921
0
LINE
8
BLACK
6
CONTINUOUS
10
4.83457
20
-4.41921
11
4.83082
21
-4.41733
0
LINE
8
BLACK
6
CONTINUOUS
10
4.83082
20
-4.41733
11
4.83011
21
-4.41681
0
LINE
8
BLACK
6
CONTINUOUS
10
4.83011
20
-4.41681
11
4.83005
21
-4.41678
0
LINE
8
BLACK
6
CONTINUOUS
10
4.83005
20
-4.41678
11
4.82818
21
-4.41491
0
LINE
8
BLACK
6
CONTINUOUS
10
4.82818
20
-4.41491
11
4.82767
21
-4.41418
0
LINE
8
BLACK
6
CONTINUOUS
10
4.82767
20
-4.41418
11
4.82763
21
-4.41414
0
LINE
8
BLACK
6
CONTINUOUS
10
4.82763
20
-4.41414
11
4.82575
21
-4.41039
0
LINE
8
BLACK
6
CONTINUOUS
10
4.82575
20
-4.41039
11
4.82546
21
-4.40941
0
LINE
8
BLACK
6
CONTINUOUS
10
4.82546
20
-4.40941
11
4.8255
21
-4.40923
0
LINE
8
BLACK
6
CONTINUOUS
10
4.8255
20
-4.40923
11
4.82544
21
-4.40907
0
LINE
8
BLACK
6
CONTINUOUS
10
4.82544
20
-4.40907
11
4.82544
21
-4.39782
0
LINE
8
BLACK
6
CONTINUOUS
10
4.82544
20
-4.39782
11
4.82562
21
-4.39681
0
LINE
8
BLACK
6
CONTINUOUS
10
4.82562
20
-4.39681
11
4.82573
21
-4.39667
0
LINE
8
BLACK
6
CONTINUOUS
10
4.82573
20
-4.39667
11
4.82575
21
-4.3965
0
LINE
8
BLACK
6
CONTINUOUS
10
4.82575
20
-4.3965
11
4.82763
21
-4.39275
0
LINE
8
BLACK
6
CONTINUOUS
10
4.82763
20
-4.39275
11
4.82815
21
-4.39204
0
LINE
8
BLACK
6
CONTINUOUS
10
4.82815
20
-4.39204
11
4.82818
21
-4.39198
0
LINE
8
BLACK
6
CONTINUOUS
10
4.82818
20
-4.39198
11
4.83005
21
-4.39011
0
LINE
8
BLACK
6
CONTINUOUS
10
4.83005
20
-4.39011
11
4.83078
21
-4.3896
0
LINE
8
BLACK
6
CONTINUOUS
10
4.83078
20
-4.3896
11
4.83082
21
-4.38955
0
LINE
8
BLACK
6
CONTINUOUS
10
4.83082
20
-4.38955
11
4.83457
21
-4.38768
0
LINE
8
BLACK
6
CONTINUOUS
10
4.83457
20
-4.38768
11
4.83555
21
-4.38739
0
LINE
8
BLACK
6
CONTINUOUS
10
4.83555
20
-4.38739
11
4.83573
21
-4.38743
0
LINE
8
BLACK
6
CONTINUOUS
10
4.83573
20
-4.38743
11
4.83589
21
-4.38737
0
LINE
8
BLACK
6
CONTINUOUS
10
4.83589
20
-4.38737
11
4.84339
21
-4.38737
0
LINE
8
BLACK
6
CONTINUOUS
10
4.84339
20
-4.38737
11
4.84419
21
-4.38751
0
LINE
8
BLACK
6
CONTINUOUS
10
4.84419
20
-4.38751
11
4.84419
21
-4.3772
0
LINE
8
BLACK
6
CONTINUOUS
10
4.84419
20
-4.3772
11
4.84437
21
-4.37619
0
LINE
8
BLACK
6
CONTINUOUS
10
4.84437
20
-4.37619
11
4.84566
21
-4.37464
0
LINE
8
BLACK
6
CONTINUOUS
10
4.84566
20
-4.37464
11
4.84765
21
-4.37429
0
LINE
8
BLACK
6
CONTINUOUS
10
4.84765
20
-4.37429
11
4.8494
21
-4.3753
0
LINE
8
BLACK
6
CONTINUOUS
10
4.83389
20
-4.39462
11
4.83269
21
-4.39582
0
LINE
8
BLACK
6
CONTINUOUS
10
4.83269
20
-4.39582
11
4.83135
21
-4.39852
0
LINE
8
BLACK
6
CONTINUOUS
10
4.83135
20
-4.39852
11
4.83135
21
-4.40837
0
LINE
8
BLACK
6
CONTINUOUS
10
4.83135
20
-4.40837
11
4.83269
21
-4.41107
0
LINE
8
BLACK
6
CONTINUOUS
10
4.83269
20
-4.41107
11
4.83389
21
-4.41227
0
LINE
8
BLACK
6
CONTINUOUS
10
4.83389
20
-4.41227
11
4.83659
21
-4.41361
0
LINE
8
BLACK
6
CONTINUOUS
10
4.83659
20
-4.41361
11
4.84269
21
-4.41361
0
LINE
8
BLACK
6
CONTINUOUS
10
4.84269
20
-4.41361
11
4.84419
21
-4.41287
0
LINE
8
BLACK
6
CONTINUOUS
10
4.84419
20
-4.41287
11
4.84419
21
-4.39402
0
LINE
8
BLACK
6
CONTINUOUS
10
4.84419
20
-4.39402
11
4.84269
21
-4.39327
0
LINE
8
BLACK
6
CONTINUOUS
10
4.84269
20
-4.39327
11
4.83659
21
-4.39327
0
LINE
8
BLACK
6
CONTINUOUS
10
4.83659
20
-4.39327
11
4.83389
21
-4.39462
0
LINE
8
BLACK
6
CONTINUOUS
10
4.87815
20
-4.38755
11
4.87828
21
-4.38766
0
LINE
8
BLACK
6
CONTINUOUS
10
4.87828
20
-4.38766
11
4.87846
21
-4.38768
0
LINE
8
BLACK
6
CONTINUOUS
10
4.87846
20
-4.38768
11
4.88221
21
-4.38955
0
LINE
8
BLACK
6
CONTINUOUS
10
4.88221
20
-4.38955
11
4.88303
21
-4.39017
0
LINE
8
BLACK
6
CONTINUOUS
10
4.88303
20
-4.39017
11
4.88321
21
-4.39057
0
LINE
8
BLACK
6
CONTINUOUS
10
4.88321
20
-4.39057
11
4.88353
21
-4.39088
0
LINE
8
BLACK
6
CONTINUOUS
10
4.88353
20
-4.39088
11
4.8854
21
-4.39462
0
LINE
8
BLACK
6
CONTINUOUS
10
4.8854
20
-4.39462
11
4.88569
21
-4.39561
0
LINE
8
BLACK
6
CONTINUOUS
10
4.88569
20
-4.39561
11
4.88565
21
-4.39578
0
LINE
8
BLACK
6
CONTINUOUS
10
4.88565
20
-4.39578
11
4.88571
21
-4.39595
0
LINE
8
BLACK
6
CONTINUOUS
10
4.88571
20
-4.39595
11
4.88571
21
-4.39969
0
LINE
8
BLACK
6
CONTINUOUS
10
4.88571
20
-4.39969
11
4.88554
21
-4.4007
0
LINE
8
BLACK
6
CONTINUOUS
10
4.88554
20
-4.4007
11
4.88522
21
-4.40108
0
LINE
8
BLACK
6
CONTINUOUS
10
4.88522
20
-4.40108
11
4.88507
21
-4.40154
0
LINE
8
BLACK
6
CONTINUOUS
10
4.88507
20
-4.40154
11
4.88459
21
-4.40183
0
LINE
8
BLACK
6
CONTINUOUS
10
4.88459
20
-4.40183
11
4.88424
21
-4.40225
0
LINE
8
BLACK
6
CONTINUOUS
10
4.88424
20
-4.40225
11
4.88376
21
-4.40234
0
LINE
8
BLACK
6
CONTINUOUS
10
4.88376
20
-4.40234
11
4.88334
21
-4.40259
0
LINE
8
BLACK
6
CONTINUOUS
10
4.88334
20
-4.40259
11
4.86697
21
-4.40586
0
LINE
8
BLACK
6
CONTINUOUS
10
4.86697
20
-4.40586
11
4.86697
21
-4.41025
0
LINE
8
BLACK
6
CONTINUOUS
10
4.86697
20
-4.41025
11
4.86809
21
-4.41249
0
LINE
8
BLACK
6
CONTINUOUS
10
4.86809
20
-4.41249
11
4.87034
21
-4.41361
0
LINE
8
BLACK
6
CONTINUOUS
10
4.87034
20
-4.41361
11
4.87644
21
-4.41361
0
LINE
8
BLACK
6
CONTINUOUS
10
4.87644
20
-4.41361
11
4.87957
21
-4.41205
0
LINE
8
BLACK
6
CONTINUOUS
10
4.87957
20
-4.41205
11
4.88055
21
-4.41176
0
LINE
8
BLACK
6
CONTINUOUS
10
4.88055
20
-4.41176
11
4.88251
21
-4.41223
0
LINE
8
BLACK
6
CONTINUOUS
10
4.88251
20
-4.41223
11
4.88372
21
-4.41385
0
LINE
8
BLACK
6
CONTINUOUS
10
4.88372
20
-4.41385
11
4.8836
21
-4.41587
0
LINE
8
BLACK
6
CONTINUOUS
10
4.8836
20
-4.41587
11
4.88221
21
-4.41733
0
LINE
8
BLACK
6
CONTINUOUS
10
4.88221
20
-4.41733
11
4.87846
21
-4.41921
0
LINE
8
BLACK
6
CONTINUOUS
10
4.87846
20
-4.41921
11
4.87747
21
-4.4195
0
LINE
8
BLACK
6
CONTINUOUS
10
4.87747
20
-4.4195
11
4.8773
21
-4.41946
0
LINE
8
BLACK
6
CONTINUOUS
10
4.8773
20
-4.41946
11
4.87714
21
-4.41952
0
LINE
8
BLACK
6
CONTINUOUS
10
4.87714
20
-4.41952
11
4.86964
21
-4.41952
0
LINE
8
BLACK
6
CONTINUOUS
10
4.86964
20
-4.41952
11
4.86863
21
-4.41934
0
LINE
8
BLACK
6
CONTINUOUS
10
4.86863
20
-4.41934
11
4.86849
21
-4.41923
0
LINE
8
BLACK
6
CONTINUOUS
10
4.86849
20
-4.41923
11
4.86832
21
-4.41921
0
LINE
8
BLACK
6
CONTINUOUS
10
4.86832
20
-4.41921
11
4.86457
21
-4.41733
0
LINE
8
BLACK
6
CONTINUOUS
10
4.86457
20
-4.41733
11
4.86374
21
-4.41672
0
LINE
8
BLACK
6
CONTINUOUS
10
4.86374
20
-4.41672
11
4.86357
21
-4.41632
0
LINE
8
BLACK
6
CONTINUOUS
10
4.86357
20
-4.41632
11
4.86325
21
-4.41601
0
LINE
8
BLACK
6
CONTINUOUS
10
4.86325
20
-4.41601
11
4.86137
21
-4.41226
0
LINE
8
BLACK
6
CONTINUOUS
10
4.86137
20
-4.41226
11
4.86108
21
-4.41128
0
LINE
8
BLACK
6
CONTINUOUS
10
4.86108
20
-4.41128
11
4.86112
21
-4.41111
0
LINE
8
BLACK
6
CONTINUOUS
10
4.86112
20
-4.41111
11
4.86106
21
-4.41094
0
LINE
8
BLACK
6
CONTINUOUS
10
4.86106
20
-4.41094
11
4.86106
21
-4.39595
0
LINE
8
BLACK
6
CONTINUOUS
10
4.86106
20
-4.39595
11
4.86124
21
-4.39494
0
LINE
8
BLACK
6
CONTINUOUS
10
4.86124
20
-4.39494
11
4.86135
21
-4.3948
0
LINE
8
BLACK
6
CONTINUOUS
10
4.86135
20
-4.3948
11
4.86137
21
-4.39462
0
LINE
8
BLACK
6
CONTINUOUS
10
4.86137
20
-4.39462
11
4.86325
21
-4.39088
0
LINE
8
BLACK
6
CONTINUOUS
10
4.86325
20
-4.39088
11
4.86386
21
-4.39005
0
LINE
8
BLACK
6
CONTINUOUS
10
4.86386
20
-4.39005
11
4.86426
21
-4.38988
0
LINE
8
BLACK
6
CONTINUOUS
10
4.86426
20
-4.38988
11
4.86457
21
-4.38955
0
LINE
8
BLACK
6
CONTINUOUS
10
4.86457
20
-4.38955
11
4.86832
21
-4.38768
0
LINE
8
BLACK
6
CONTINUOUS
10
4.86832
20
-4.38768
11
4.8693
21
-4.38739
0
LINE
8
BLACK
6
CONTINUOUS
10
4.8693
20
-4.38739
11
4.86947
21
-4.38743
0
LINE
8
BLACK
6
CONTINUOUS
10
4.86947
20
-4.38743
11
4.86964
21
-4.38737
0
LINE
8
BLACK
6
CONTINUOUS
10
4.86964
20
-4.38737
11
4.87714
21
-4.38737
0
LINE
8
BLACK
6
CONTINUOUS
10
4.87714
20
-4.38737
11
4.87815
21
-4.38755
0
LINE
8
BLACK
6
CONTINUOUS
10
4.86809
20
-4.3944
11
4.86697
21
-4.39664
0
LINE
8
BLACK
6
CONTINUOUS
10
4.86697
20
-4.39664
11
4.86697
21
-4.39984
0
LINE
8
BLACK
6
CONTINUOUS
10
4.86697
20
-4.39984
11
4.87981
21
-4.39727
0
LINE
8
BLACK
6
CONTINUOUS
10
4.87981
20
-4.39727
11
4.87981
21
-4.39664
0
LINE
8
BLACK
6
CONTINUOUS
10
4.87981
20
-4.39664
11
4.87869
21
-4.3944
0
LINE
8
BLACK
6
CONTINUOUS
10
4.87869
20
-4.3944
11
4.87644
21
-4.39327
0
LINE
8
BLACK
6
CONTINUOUS
10
4.87644
20
-4.39327
11
4.87034
21
-4.39327
0
LINE
8
BLACK
6
CONTINUOUS
10
4.87034
20
-4.39327
11
4.86809
21
-4.3944
0
LINE
8
BLACK
6
CONTINUOUS
10
4.93752
20
-4.3753
11
4.93821
21
-4.3772
0
LINE
8
BLACK
6
CONTINUOUS
10
4.93821
20
-4.3772
11
4.93821
21
-4.40532
0
LINE
8
BLACK
6
CONTINUOUS
10
4.93821
20
-4.40532
11
4.93805
21
-4.40619
0
LINE
8
BLACK
6
CONTINUOUS
10
4.93805
20
-4.40619
11
4.93806
21
-4.40625
0
LINE
8
BLACK
6
CONTINUOUS
10
4.93806
20
-4.40625
11
4.93618
21
-4.41188
0
LINE
8
BLACK
6
CONTINUOUS
10
4.93618
20
-4.41188
11
4.93569
21
-4.41278
0
LINE
8
BLACK
6
CONTINUOUS
10
4.93569
20
-4.41278
11
4.93554
21
-4.41287
0
LINE
8
BLACK
6
CONTINUOUS
10
4.93554
20
-4.41287
11
4.93547
21
-4.41303
0
LINE
8
BLACK
6
CONTINUOUS
10
4.93547
20
-4.41303
11
4.93172
21
-4.41678
0
LINE
8
BLACK
6
CONTINUOUS
10
4.93172
20
-4.41678
11
4.93088
21
-4.41737
0
LINE
8
BLACK
6
CONTINUOUS
10
4.93088
20
-4.41737
11
4.9307
21
-4.41738
0
LINE
8
BLACK
6
CONTINUOUS
10
4.9307
20
-4.41738
11
4.93056
21
-4.41749
0
LINE
8
BLACK
6
CONTINUOUS
10
4.93056
20
-4.41749
11
4.92494
21
-4.41937
0
LINE
8
BLACK
6
CONTINUOUS
10
4.92494
20
-4.41937
11
4.92407
21
-4.4195
0
LINE
8
BLACK
6
CONTINUOUS
10
4.92407
20
-4.4195
11
4.92401
21
-4.41952
0
LINE
8
BLACK
6
CONTINUOUS
10
4.92401
20
-4.41952
11
4.92026
21
-4.41952
0
LINE
8
BLACK
6
CONTINUOUS
10
4.92026
20
-4.41952
11
4.91925
21
-4.41934
0
LINE
8
BLACK
6
CONTINUOUS
10
4.91925
20
-4.41934
11
4.9177
21
-4.41804
0
LINE
8
BLACK
6
CONTINUOUS
10
4.9177
20
-4.41804
11
4.91735
21
-4.41605
0
LINE
8
BLACK
6
CONTINUOUS
10
4.91735
20
-4.41605
11
4.91836
21
-4.41431
0
LINE
8
BLACK
6
CONTINUOUS
10
4.91836
20
-4.41431
11
4.92026
21
-4.41361
0
LINE
8
BLACK
6
CONTINUOUS
10
4.92026
20
-4.41361
11
4.92353
21
-4.41361
0
LINE
8
BLACK
6
CONTINUOUS
10
4.92353
20
-4.41361
11
4.92804
21
-4.41211
0
LINE
8
BLACK
6
CONTINUOUS
10
4.92804
20
-4.41211
11
4.9308
21
-4.40935
0
LINE
8
BLACK
6
CONTINUOUS
10
4.9308
20
-4.40935
11
4.9323
21
-4.40484
0
LINE
8
BLACK
6
CONTINUOUS
10
4.9323
20
-4.40484
11
4.9323
21
-4.3772
0
LINE
8
BLACK
6
CONTINUOUS
10
4.9323
20
-4.3772
11
4.93248
21
-4.37619
0
LINE
8
BLACK
6
CONTINUOUS
10
4.93248
20
-4.37619
11
4.93378
21
-4.37464
0
LINE
8
BLACK
6
CONTINUOUS
10
4.93378
20
-4.37464
11
4.93577
21
-4.37429
0
LINE
8
BLACK
6
CONTINUOUS
10
4.93577
20
-4.37429
11
4.93752
21
-4.3753
0
LINE
8
BLACK
6
CONTINUOUS
10
4.97314
20
-4.38842
11
4.97383
21
-4.39032
0
LINE
8
BLACK
6
CONTINUOUS
10
4.97383
20
-4.39032
11
4.97383
21
-4.41657
0
LINE
8
BLACK
6
CONTINUOUS
10
4.97383
20
-4.41657
11
4.97365
21
-4.41758
0
LINE
8
BLACK
6
CONTINUOUS
10
4.97365
20
-4.41758
11
4.97235
21
-4.41912
0
LINE
8
BLACK
6
CONTINUOUS
10
4.97235
20
-4.41912
11
4.97036
21
-4.41948
0
LINE
8
BLACK
6
CONTINUOUS
10
4.97036
20
-4.41948
11
4.96861
21
-4.41847
0
LINE
8
BLACK
6
CONTINUOUS
10
4.96861
20
-4.41847
11
4.96853
21
-4.41823
0
LINE
8
BLACK
6
CONTINUOUS
10
4.96853
20
-4.41823
11
4.96657
21
-4.41921
0
LINE
8
BLACK
6
CONTINUOUS
10
4.96657
20
-4.41921
11
4.96559
21
-4.4195
0
LINE
8
BLACK
6
CONTINUOUS
10
4.96559
20
-4.4195
11
4.96542
21
-4.41946
0
LINE
8
BLACK
6
CONTINUOUS
10
4.96542
20
-4.41946
11
4.96525
21
-4.41952
0
LINE
8
BLACK
6
CONTINUOUS
10
4.96525
20
-4.41952
11
4.95963
21
-4.41952
0
LINE
8
BLACK
6
CONTINUOUS
10
4.95963
20
-4.41952
11
4.95862
21
-4.41934
0
LINE
8
BLACK
6
CONTINUOUS
10
4.95862
20
-4.41934
11
4.95848
21
-4.41923
0
LINE
8
BLACK
6
CONTINUOUS
10
4.95848
20
-4.41923
11
4.95831
21
-4.41921
0
LINE
8
BLACK
6
CONTINUOUS
10
4.95831
20
-4.41921
11
4.95456
21
-4.41733
0
LINE
8
BLACK
6
CONTINUOUS
10
4.95456
20
-4.41733
11
4.95373
21
-4.41672
0
LINE
8
BLACK
6
CONTINUOUS
10
4.95373
20
-4.41672
11
4.95356
21
-4.41632
0
LINE
8
BLACK
6
CONTINUOUS
10
4.95356
20
-4.41632
11
4.95324
21
-4.41601
0
LINE
8
BLACK
6
CONTINUOUS
10
4.95324
20
-4.41601
11
4.95136
21
-4.41226
0
LINE
8
BLACK
6
CONTINUOUS
10
4.95136
20
-4.41226
11
4.95107
21
-4.41128
0
LINE
8
BLACK
6
CONTINUOUS
10
4.95107
20
-4.41128
11
4.95111
21
-4.41111
0
LINE
8
BLACK
6
CONTINUOUS
10
4.95111
20
-4.41111
11
4.95105
21
-4.41094
0
LINE
8
BLACK
6
CONTINUOUS
10
4.95105
20
-4.41094
11
4.95105
21
-4.39032
0
LINE
8
BLACK
6
CONTINUOUS
10
4.95105
20
-4.39032
11
4.95123
21
-4.38931
0
LINE
8
BLACK
6
CONTINUOUS
10
4.95123
20
-4.38931
11
4.95253
21
-4.38776
0
LINE
8
BLACK
6
CONTINUOUS
10
4.95253
20
-4.38776
11
4.95452
21
-4.38741
0
LINE
8
BLACK
6
CONTINUOUS
10
4.95452
20
-4.38741
11
4.95626
21
-4.38842
0
LINE
8
BLACK
6
CONTINUOUS
10
4.95626
20
-4.38842
11
4.95696
21
-4.39032
0
LINE
8
BLACK
6
CONTINUOUS
10
4.95696
20
-4.39032
11
4.95696
21
-4.41025
0
LINE
8
BLACK
6
CONTINUOUS
10
4.95696
20
-4.41025
11
4.95808
21
-4.41249
0
LINE
8
BLACK
6
CONTINUOUS
10
4.95808
20
-4.41249
11
4.96032
21
-4.41361
0
LINE
8
BLACK
6
CONTINUOUS
10
4.96032
20
-4.41361
11
4.96455
21
-4.41361
0
LINE
8
BLACK
6
CONTINUOUS
10
4.96455
20
-4.41361
11
4.96725
21
-4.41227
0
LINE
8
BLACK
6
CONTINUOUS
10
4.96725
20
-4.41227
11
4.96792
21
-4.4116
0
LINE
8
BLACK
6
CONTINUOUS
10
4.96792
20
-4.4116
11
4.96792
21
-4.39032
0
LINE
8
BLACK
6
CONTINUOUS
10
4.96792
20
-4.39032
11
4.9681
21
-4.38931
0
LINE
8
BLACK
6
CONTINUOUS
10
4.9681
20
-4.38931
11
4.9694
21
-4.38776
0
LINE
8
BLACK
6
CONTINUOUS
10
4.9694
20
-4.38776
11
4.97139
21
-4.38741
0
LINE
8
BLACK
6
CONTINUOUS
10
4.97139
20
-4.38741
11
4.97314
21
-4.38842
0
LINE
8
BLACK
6
CONTINUOUS
10
5.09
20
-4.38755
11
5.09013
21
-4.38766
0
LINE
8
BLACK
6
CONTINUOUS
10
5.09013
20
-4.38766
11
5.09031
21
-4.38768
0
LINE
8
BLACK
6
CONTINUOUS
10
5.09031
20
-4.38768
11
5.09406
21
-4.38955
0
LINE
8
BLACK
6
CONTINUOUS
10
5.09406
20
-4.38955
11
5.09488
21
-4.39017
0
LINE
8
BLACK
6
CONTINUOUS
10
5.09488
20
-4.39017
11
5.09506
21
-4.39057
0
LINE
8
BLACK
6
CONTINUOUS
10
5.09506
20
-4.39057
11
5.09538
21
-4.39088
0
LINE
8
BLACK
6
CONTINUOUS
10
5.09538
20
-4.39088
11
5.09725
21
-4.39462
0
LINE
8
BLACK
6
CONTINUOUS
10
5.09725
20
-4.39462
11
5.09754
21
-4.39561
0
LINE
8
BLACK
6
CONTINUOUS
10
5.09754
20
-4.39561
11
5.0975
21
-4.39578
0
LINE
8
BLACK
6
CONTINUOUS
10
5.0975
20
-4.39578
11
5.09756
21
-4.39595
0
LINE
8
BLACK
6
CONTINUOUS
10
5.09756
20
-4.39595
11
5.09756
21
-4.39969
0
LINE
8
BLACK
6
CONTINUOUS
10
5.09756
20
-4.39969
11
5.09738
21
-4.4007
0
LINE
8
BLACK
6
CONTINUOUS
10
5.09738
20
-4.4007
11
5.09707
21
-4.40108
0
LINE
8
BLACK
6
CONTINUOUS
10
5.09707
20
-4.40108
11
5.09691
21
-4.40154
0
LINE
8
BLACK
6
CONTINUOUS
10
5.09691
20
-4.40154
11
5.09644
21
-4.40183
0
LINE
8
BLACK
6
CONTINUOUS
10
5.09644
20
-4.40183
11
5.09609
21
-4.40225
0
LINE
8
BLACK
6
CONTINUOUS
10
5.09609
20
-4.40225
11
5.09561
21
-4.40234
0
LINE
8
BLACK
6
CONTINUOUS
10
5.09561
20
-4.40234
11
5.09519
21
-4.40259
0
LINE
8
BLACK
6
CONTINUOUS
10
5.09519
20
-4.40259
11
5.07882
21
-4.40586
0
LINE
8
BLACK
6
CONTINUOUS
10
5.07882
20
-4.40586
11
5.07882
21
-4.41025
0
LINE
8
BLACK
6
CONTINUOUS
10
5.07882
20
-4.41025
11
5.07994
21
-4.41249
0
LINE
8
BLACK
6
CONTINUOUS
10
5.07994
20
-4.41249
11
5.08218
21
-4.41361
0
LINE
8
BLACK
6
CONTINUOUS
10
5.08218
20
-4.41361
11
5.08829
21
-4.41361
0
LINE
8
BLACK
6
CONTINUOUS
10
5.08829
20
-4.41361
11
5.09141
21
-4.41205
0
LINE
8
BLACK
6
CONTINUOUS
10
5.09141
20
-4.41205
11
5.0924
21
-4.41176
0
LINE
8
BLACK
6
CONTINUOUS
10
5.0924
20
-4.41176
11
5.09436
21
-4.41223
0
LINE
8
BLACK
6
CONTINUOUS
10
5.09436
20
-4.41223
11
5.09557
21
-4.41385
0
LINE
8
BLACK
6
CONTINUOUS
10
5.09557
20
-4.41385
11
5.09544
21
-4.41587
0
LINE
8
BLACK
6
CONTINUOUS
10
5.09544
20
-4.41587
11
5.09406
21
-4.41733
0
LINE
8
BLACK
6
CONTINUOUS
10
5.09406
20
-4.41733
11
5.09031
21
-4.41921
0
LINE
8
BLACK
6
CONTINUOUS
10
5.09031
20
-4.41921
11
5.08932
21
-4.4195
0
LINE
8
BLACK
6
CONTINUOUS
10
5.08932
20
-4.4195
11
5.08915
21
-4.41946
0
LINE
8
BLACK
6
CONTINUOUS
10
5.08915
20
-4.41946
11
5.08899
21
-4.41952
0
LINE
8
BLACK
6
CONTINUOUS
10
5.08899
20
-4.41952
11
5.08149
21
-4.41952
0
LINE
8
BLACK
6
CONTINUOUS
10
5.08149
20
-4.41952
11
5.08048
21
-4.41934
0
LINE
8
BLACK
6
CONTINUOUS
10
5.08048
20
-4.41934
11
5.08034
21
-4.41923
0
LINE
8
BLACK
6
CONTINUOUS
10
5.08034
20
-4.41923
11
5.08017
21
-4.41921
0
LINE
8
BLACK
6
CONTINUOUS
10
5.08017
20
-4.41921
11
5.07642
21
-4.41733
0
LINE
8
BLACK
6
CONTINUOUS
10
5.07642
20
-4.41733
11
5.07559
21
-4.41672
0
LINE
8
BLACK
6
CONTINUOUS
10
5.07559
20
-4.41672
11
5.07542
21
-4.41632
0
LINE
8
BLACK
6
CONTINUOUS
10
5.07542
20
-4.41632
11
5.0751
21
-4.41601
0
LINE
8
BLACK
6
CONTINUOUS
10
5.0751
20
-4.41601
11
5.07322
21
-4.41226
0
LINE
8
BLACK
6
CONTINUOUS
10
5.07322
20
-4.41226
11
5.07293
21
-4.41128
0
LINE
8
BLACK
6
CONTINUOUS
10
5.07293
20
-4.41128
11
5.07297
21
-4.41111
0
LINE
8
BLACK
6
CONTINUOUS
10
5.07297
20
-4.41111
11
5.07291
21
-4.41094
0
LINE
8
BLACK
6
CONTINUOUS
10
5.07291
20
-4.41094
11
5.07291
21
-4.39595
0
LINE
8
BLACK
6
CONTINUOUS
10
5.07291
20
-4.39595
11
5.07309
21
-4.39494
0
LINE
8
BLACK
6
CONTINUOUS
10
5.07309
20
-4.39494
11
5.0732
21
-4.3948
0
LINE
8
BLACK
6
CONTINUOUS
10
5.0732
20
-4.3948
11
5.07322
21
-4.39462
0
LINE
8
BLACK
6
CONTINUOUS
10
5.07322
20
-4.39462
11
5.0751
21
-4.39088
0
LINE
8
BLACK
6
CONTINUOUS
10
5.0751
20
-4.39088
11
5.07571
21
-4.39005
0
LINE
8
BLACK
6
CONTINUOUS
10
5.07571
20
-4.39005
11
5.07611
21
-4.38988
0
LINE
8
BLACK
6
CONTINUOUS
10
5.07611
20
-4.38988
11
5.07642
21
-4.38955
0
LINE
8
BLACK
6
CONTINUOUS
10
5.07642
20
-4.38955
11
5.08017
21
-4.38768
0
LINE
8
BLACK
6
CONTINUOUS
10
5.08017
20
-4.38768
11
5.08115
21
-4.38739
0
LINE
8
BLACK
6
CONTINUOUS
10
5.08115
20
-4.38739
11
5.08132
21
-4.38743
0
LINE
8
BLACK
6
CONTINUOUS
10
5.08132
20
-4.38743
11
5.08149
21
-4.38737
0
LINE
8
BLACK
6
CONTINUOUS
10
5.08149
20
-4.38737
11
5.08899
21
-4.38737
0
LINE
8
BLACK
6
CONTINUOUS
10
5.08899
20
-4.38737
11
5.09
21
-4.38755
0
LINE
8
BLACK
6
CONTINUOUS
10
5.07994
20
-4.3944
11
5.07882
21
-4.39664
0
LINE
8
BLACK
6
CONTINUOUS
10
5.07882
20
-4.39664
11
5.07882
21
-4.39984
0
LINE
8
BLACK
6
CONTINUOUS
10
5.07882
20
-4.39984
11
5.09166
21
-4.39727
0
LINE
8
BLACK
6
CONTINUOUS
10
5.09166
20
-4.39727
11
5.09166
21
-4.39664
0
LINE
8
BLACK
6
CONTINUOUS
10
5.09166
20
-4.39664
11
5.09053
21
-4.3944
0
LINE
8
BLACK
6
CONTINUOUS
10
5.09053
20
-4.3944
11
5.08829
21
-4.39327
0
LINE
8
BLACK
6
CONTINUOUS
10
5.08829
20
-4.39327
11
5.08218
21
-4.39327
0
LINE
8
BLACK
6
CONTINUOUS
10
5.08218
20
-4.39327
11
5.07994
21
-4.3944
0
LINE
8
BLACK
6
CONTINUOUS
10
5.18691
20
-4.37432
11
5.18705
21
-4.3743
0
LINE
8
BLACK
6
CONTINUOUS
10
5.18705
20
-4.3743
11
5.18715
21
-4.37436
0
LINE
8
BLACK
6
CONTINUOUS
10
5.18715
20
-4.37436
11
5.18748
21
-4.37442
0
LINE
8
BLACK
6
CONTINUOUS
10
5.18748
20
-4.37442
11
5.18809
21
-4.37493
0
LINE
8
BLACK
6
CONTINUOUS
10
5.18809
20
-4.37493
11
5.18877
21
-4.37535
0
LINE
8
BLACK
6
CONTINUOUS
10
5.18877
20
-4.37535
11
5.18885
21
-4.37557
0
LINE
8
BLACK
6
CONTINUOUS
10
5.18885
20
-4.37557
11
5.18903
21
-4.37572
0
LINE
8
BLACK
6
CONTINUOUS
10
5.18903
20
-4.37572
11
5.18917
21
-4.37651
0
LINE
8
BLACK
6
CONTINUOUS
10
5.18917
20
-4.37651
11
5.18943
21
-4.37726
0
LINE
8
BLACK
6
CONTINUOUS
10
5.18943
20
-4.37726
11
5.18934
21
-4.37748
0
LINE
8
BLACK
6
CONTINUOUS
10
5.18934
20
-4.37748
11
5.18938
21
-4.37771
0
LINE
8
BLACK
6
CONTINUOUS
10
5.18938
20
-4.37771
11
5.18898
21
-4.3784
0
LINE
8
BLACK
6
CONTINUOUS
10
5.18898
20
-4.3784
11
5.1887
21
-4.37914
0
LINE
8
BLACK
6
CONTINUOUS
10
5.1887
20
-4.37914
11
5.17974
21
-4.38938
0
LINE
8
BLACK
6
CONTINUOUS
10
5.17974
20
-4.38938
11
5.17998
21
-4.38942
0
LINE
8
BLACK
6
CONTINUOUS
10
5.17998
20
-4.38942
11
5.18012
21
-4.38953
0
LINE
8
BLACK
6
CONTINUOUS
10
5.18012
20
-4.38953
11
5.1803
21
-4.38955
0
LINE
8
BLACK
6
CONTINUOUS
10
5.1803
20
-4.38955
11
5.18404
21
-4.39143
0
LINE
8
BLACK
6
CONTINUOUS
10
5.18404
20
-4.39143
11
5.18475
21
-4.39196
0
LINE
8
BLACK
6
CONTINUOUS
10
5.18475
20
-4.39196
11
5.18481
21
-4.39198
0
LINE
8
BLACK
6
CONTINUOUS
10
5.18481
20
-4.39198
11
5.18669
21
-4.39386
0
LINE
8
BLACK
6
CONTINUOUS
10
5.18669
20
-4.39386
11
5.18719
21
-4.39458
0
LINE
8
BLACK
6
CONTINUOUS
10
5.18719
20
-4.39458
11
5.18724
21
-4.39462
0
LINE
8
BLACK
6
CONTINUOUS
10
5.18724
20
-4.39462
11
5.18911
21
-4.39837
0
LINE
8
BLACK
6
CONTINUOUS
10
5.18911
20
-4.39837
11
5.18941
21
-4.39936
0
LINE
8
BLACK
6
CONTINUOUS
10
5.18941
20
-4.39936
11
5.18937
21
-4.39953
0
LINE
8
BLACK
6
CONTINUOUS
10
5.18937
20
-4.39953
11
5.18943
21
-4.39969
0
LINE
8
BLACK
6
CONTINUOUS
10
5.18943
20
-4.39969
11
5.18943
21
-4.40907
0
LINE
8
BLACK
6
CONTINUOUS
10
5.18943
20
-4.40907
11
5.18925
21
-4.41008
0
LINE
8
BLACK
6
CONTINUOUS
10
5.18925
20
-4.41008
11
5.18913
21
-4.41021
0
LINE
8
BLACK
6
CONTINUOUS
10
5.18913
20
-4.41021
11
5.18911
21
-4.41039
0
LINE
8
BLACK
6
CONTINUOUS
10
5.18911
20
-4.41039
11
5.18724
21
-4.41414
0
LINE
8
BLACK
6
CONTINUOUS
10
5.18724
20
-4.41414
11
5.18671
21
-4.41485
0
LINE
8
BLACK
6
CONTINUOUS
10
5.18671
20
-4.41485
11
5.18669
21
-4.41491
0
LINE
8
BLACK
6
CONTINUOUS
10
5.18669
20
-4.41491
11
5.18481
21
-4.41678
0
LINE
8
BLACK
6
CONTINUOUS
10
5.18481
20
-4.41678
11
5.18409
21
-4.41729
0
LINE
8
BLACK
6
CONTINUOUS
10
5.18409
20
-4.41729
11
5.18404
21
-4.41733
0
LINE
8
BLACK
6
CONTINUOUS
10
5.18404
20
-4.41733
11
5.1803
21
-4.41921
0
LINE
8
BLACK
6
CONTINUOUS
10
5.1803
20
-4.41921
11
5.17931
21
-4.4195
0
LINE
8
BLACK
6
CONTINUOUS
10
5.17931
20
-4.4195
11
5.17914
21
-4.41946
0
LINE
8
BLACK
6
CONTINUOUS
10
5.17914
20
-4.41946
11
5.17897
21
-4.41952
0
LINE
8
BLACK
6
CONTINUOUS
10
5.17897
20
-4.41952
11
5.16773
21
-4.41952
0
LINE
8
BLACK
6
CONTINUOUS
10
5.16773
20
-4.41952
11
5.16672
21
-4.41934
0
LINE
8
BLACK
6
CONTINUOUS
10
5.16672
20
-4.41934
11
5.16658
21
-4.41923
0
LINE
8
BLACK
6
CONTINUOUS
10
5.16658
20
-4.41923
11
5.16641
21
-4.41921
0
LINE
8
BLACK
6
CONTINUOUS
10
5.16641
20
-4.41921
11
5.16266
21
-4.41733
0
LINE
8
BLACK
6
CONTINUOUS
10
5.16266
20
-4.41733
11
5.16195
21
-4.41681
0
LINE
8
BLACK
6
CONTINUOUS
10
5.16195
20
-4.41681
11
5.16189
21
-4.41678
0
LINE
8
BLACK
6
CONTINUOUS
10
5.16189
20
-4.41678
11
5.16001
21
-4.41491
0
LINE
8
BLACK
6
CONTINUOUS
10
5.16001
20
-4.41491
11
5.15943
21
-4.41407
0
LINE
8
BLACK
6
CONTINUOUS
10
5.15943
20
-4.41407
11
5.15925
21
-4.41205
0
LINE
8
BLACK
6
CONTINUOUS
10
5.15925
20
-4.41205
11
5.16041
21
-4.4104
0
LINE
8
BLACK
6
CONTINUOUS
10
5.16041
20
-4.4104
11
5.16236
21
-4.40988
0
LINE
8
BLACK
6
CONTINUOUS
10
5.16236
20
-4.40988
11
5.16419
21
-4.41073
0
LINE
8
BLACK
6
CONTINUOUS
10
5.16419
20
-4.41073
11
5.16573
21
-4.41227
0
LINE
8
BLACK
6
CONTINUOUS
10
5.16573
20
-4.41227
11
5.16842
21
-4.41361
0
LINE
8
BLACK
6
CONTINUOUS
10
5.16842
20
-4.41361
11
5.17828
21
-4.41361
0
LINE
8
BLACK
6
CONTINUOUS
10
5.17828
20
-4.41361
11
5.18097
21
-4.41227
0
LINE
8
BLACK
6
CONTINUOUS
10
5.18097
20
-4.41227
11
5.18217
21
-4.41107
0
LINE
8
BLACK
6
CONTINUOUS
10
5.18217
20
-4.41107
11
5.18352
21
-4.40837
0
LINE
8
BLACK
6
CONTINUOUS
10
5.18352
20
-4.40837
11
5.18352
21
-4.40039
0
LINE
8
BLACK
6
CONTINUOUS
10
5.18352
20
-4.40039
11
5.18217
21
-4.39769
0
LINE
8
BLACK
6
CONTINUOUS
10
5.18217
20
-4.39769
11
5.18097
21
-4.3965
0
LINE
8
BLACK
6
CONTINUOUS
10
5.18097
20
-4.3965
11
5.17828
21
-4.39515
0
LINE
8
BLACK
6
CONTINUOUS
10
5.17828
20
-4.39515
11
5.17335
21
-4.39515
0
LINE
8
BLACK
6
CONTINUOUS
10
5.17335
20
-4.39515
11
5.17291
21
-4.39507
0
LINE
8
BLACK
6
CONTINUOUS
10
5.17291
20
-4.39507
11
5.17278
21
-4.39509
0
LINE
8
BLACK
6
CONTINUOUS
10
5.17278
20
-4.39509
11
5.17267
21
-4.39503
0
LINE
8
BLACK
6
CONTINUOUS
10
5.17267
20
-4.39503
11
5.17234
21
-4.39497
0
LINE
8
BLACK
6
CONTINUOUS
10
5.17234
20
-4.39497
11
5.17173
21
-4.39446
0
LINE
8
BLACK
6
CONTINUOUS
10
5.17173
20
-4.39446
11
5.17105
21
-4.39405
0
LINE
8
BLACK
6
CONTINUOUS
10
5.17105
20
-4.39405
11
5.17097
21
-4.39382
0
LINE
8
BLACK
6
CONTINUOUS
10
5.17097
20
-4.39382
11
5.17079
21
-4.39367
0
LINE
8
BLACK
6
CONTINUOUS
10
5.17079
20
-4.39367
11
5.17065
21
-4.39289
0
LINE
8
BLACK
6
CONTINUOUS
10
5.17065
20
-4.39289
11
5.1704
21
-4.39213
0
LINE
8
BLACK
6
CONTINUOUS
10
5.1704
20
-4.39213
11
5.17048
21
-4.39191
0
LINE
8
BLACK
6
CONTINUOUS
10
5.17048
20
-4.39191
11
5.17044
21
-4.39168
0
LINE
8
BLACK
6
CONTINUOUS
10
5.17044
20
-4.39168
11
5.17084
21
-4.39099
0
LINE
8
BLACK
6
CONTINUOUS
10
5.17084
20
-4.39099
11
5.17113
21
-4.39025
0
LINE
8
BLACK
6
CONTINUOUS
10
5.17113
20
-4.39025
11
5.17997
21
-4.38015
0
LINE
8
BLACK
6
CONTINUOUS
10
5.17997
20
-4.38015
11
5.1621
21
-4.38015
0
LINE
8
BLACK
6
CONTINUOUS
10
5.1621
20
-4.38015
11
5.16109
21
-4.37997
0
LINE
8
BLACK
6
CONTINUOUS
10
5.16109
20
-4.37997
11
5.15954
21
-4.37867
0
LINE
8
BLACK
6
CONTINUOUS
10
5.15954
20
-4.37867
11
5.15919
21
-4.37668
0
LINE
8
BLACK
6
CONTINUOUS
10
5.15919
20
-4.37668
11
5.1602
21
-4.37494
0
LINE
8
BLACK
6
CONTINUOUS
10
5.1602
20
-4.37494
11
5.1621
21
-4.37424
0
LINE
8
BLACK
6
CONTINUOUS
10
5.1621
20
-4.37424
11
5.18647
21
-4.37424
0
LINE
8
BLACK
6
CONTINUOUS
10
5.18647
20
-4.37424
11
5.18691
21
-4.37432
0
LINE
8
BLACK
6
CONTINUOUS
10
5.24748
20
-4.37442
11
5.24761
21
-4.37454
0
LINE
8
BLACK
6
CONTINUOUS
10
5.24761
20
-4.37454
11
5.24779
21
-4.37456
0
LINE
8
BLACK
6
CONTINUOUS
10
5.24779
20
-4.37456
11
5.25154
21
-4.37643
0
LINE
8
BLACK
6
CONTINUOUS
10
5.25154
20
-4.37643
11
5.25225
21
-4.37696
0
LINE
8
BLACK
6
CONTINUOUS
10
5.25225
20
-4.37696
11
5.2523
21
-4.37698
0
LINE
8
BLACK
6
CONTINUOUS
10
5.2523
20
-4.37698
11
5.25418
21
-4.37886
0
LINE
8
BLACK
6
CONTINUOUS
10
5.25418
20
-4.37886
11
5.25468
21
-4.37958
0
LINE
8
BLACK
6
CONTINUOUS
10
5.25468
20
-4.37958
11
5.25473
21
-4.37963
0
LINE
8
BLACK
6
CONTINUOUS
10
5.25473
20
-4.37963
11
5.25661
21
-4.38338
0
LINE
8
BLACK
6
CONTINUOUS
10
5.25661
20
-4.38338
11
5.2569
21
-4.38436
0
LINE
8
BLACK
6
CONTINUOUS
10
5.2569
20
-4.38436
11
5.25686
21
-4.38453
0
LINE
8
BLACK
6
CONTINUOUS
10
5.25686
20
-4.38453
11
5.25692
21
-4.3847
0
LINE
8
BLACK
6
CONTINUOUS
10
5.25692
20
-4.3847
11
5.25692
21
-4.38845
0
LINE
8
BLACK
6
CONTINUOUS
10
5.25692
20
-4.38845
11
5.25674
21
-4.38946
0
LINE
8
BLACK
6
CONTINUOUS
10
5.25674
20
-4.38946
11
5.25663
21
-4.38959
0
LINE
8
BLACK
6
CONTINUOUS
10
5.25663
20
-4.38959
11
5.25661
21
-4.38977
0
LINE
8
BLACK
6
CONTINUOUS
10
5.25661
20
-4.38977
11
5.25473
21
-4.39352
0
LINE
8
BLACK
6
CONTINUOUS
10
5.25473
20
-4.39352
11
5.25421
21
-4.39423
0
LINE
8
BLACK
6
CONTINUOUS
10
5.25421
20
-4.39423
11
5.25418
21
-4.39428
0
LINE
8
BLACK
6
CONTINUOUS
10
5.25418
20
-4.39428
11
5.2533
21
-4.39517
0
LINE
8
BLACK
6
CONTINUOUS
10
5.2533
20
-4.39517
11
5.25393
21
-4.39551
0
LINE
8
BLACK
6
CONTINUOUS
10
5.25393
20
-4.39551
11
5.25402
21
-4.39566
0
LINE
8
BLACK
6
CONTINUOUS
10
5.25402
20
-4.39566
11
5.25418
21
-4.39573
0
LINE
8
BLACK
6
CONTINUOUS
10
5.25418
20
-4.39573
11
5.25605
21
-4.39761
0
LINE
8
BLACK
6
CONTINUOUS
10
5.25605
20
-4.39761
11
5.25656
21
-4.39833
0
LINE
8
BLACK
6
CONTINUOUS
10
5.25656
20
-4.39833
11
5.25661
21
-4.39837
0
LINE
8
BLACK
6
CONTINUOUS
10
5.25661
20
-4.39837
11
5.25848
21
-4.40212
0
LINE
8
BLACK
6
CONTINUOUS
10
5.25848
20
-4.40212
11
5.25877
21
-4.40311
0
LINE
8
BLACK
6
CONTINUOUS
10
5.25877
20
-4.40311
11
5.25873
21
-4.40328
0
LINE
8
BLACK
6
CONTINUOUS
10
5.25873
20
-4.40328
11
5.25879
21
-4.40344
0
LINE
8
BLACK
6
CONTINUOUS
10
5.25879
20
-4.40344
11
5.25879
21
-4.40907
0
LINE
8
BLACK
6
CONTINUOUS
10
5.25879
20
-4.40907
11
5.25861
21
-4.41008
0
LINE
8
BLACK
6
CONTINUOUS
10
5.25861
20
-4.41008
11
5.2585
21
-4.41021
0
LINE
8
BLACK
6
CONTINUOUS
10
5.2585
20
-4.41021
11
5.25848
21
-4.41039
0
LINE
8
BLACK
6
CONTINUOUS
10
5.25848
20
-4.41039
11
5.25661
21
-4.41414
0
LINE
8
BLACK
6
CONTINUOUS
10
5.25661
20
-4.41414
11
5.25608
21
-4.41485
0
LINE
8
BLACK
6
CONTINUOUS
10
5.25608
20
-4.41485
11
5.25605
21
-4.41491
0
LINE
8
BLACK
6
CONTINUOUS
10
5.25605
20
-4.41491
11
5.25418
21
-4.41678
0
LINE
8
BLACK
6
CONTINUOUS
10
5.25418
20
-4.41678
11
5.25346
21
-4.41729
0
LINE
8
BLACK
6
CONTINUOUS
10
5.25346
20
-4.41729
11
5.25341
21
-4.41733
0
LINE
8
BLACK
6
CONTINUOUS
10
5.25341
20
-4.41733
11
5.24966
21
-4.41921
0
LINE
8
BLACK
6
CONTINUOUS
10
5.24966
20
-4.41921
11
5.24868
21
-4.4195
0
LINE
8
BLACK
6
CONTINUOUS
10
5.24868
20
-4.4195
11
5.24851
21
-4.41946
0
LINE
8
BLACK
6
CONTINUOUS
10
5.24851
20
-4.41946
11
5.24834
21
-4.41952
0
LINE
8
BLACK
6
CONTINUOUS
10
5.24834
20
-4.41952
11
5.23334
21
-4.41952
0
LINE
8
BLACK
6
CONTINUOUS
10
5.23334
20
-4.41952
11
5.23296
21
-4.41945
0
LINE
8
BLACK
6
CONTINUOUS
10
5.23296
20
-4.41945
11
5.23283
21
-4.41948
0
LINE
8
BLACK
6
CONTINUOUS
10
5.23283
20
-4.41948
11
5.23272
21
-4.41941
0
LINE
8
BLACK
6
CONTINUOUS
10
5.23272
20
-4.41941
11
5.23233
21
-4.41934
0
LINE
8
BLACK
6
CONTINUOUS
10
5.23233
20
-4.41934
11
5.23175
21
-4.41885
0
LINE
8
BLACK
6
CONTINUOUS
10
5.23175
20
-4.41885
11
5.23108
21
-4.41847
0
LINE
8
BLACK
6
CONTINUOUS
10
5.23108
20
-4.41847
11
5.23099
21
-4.41822
0
LINE
8
BLACK
6
CONTINUOUS
10
5.23099
20
-4.41822
11
5.23079
21
-4.41804
0
LINE
8
BLACK
6
CONTINUOUS
10
5.23079
20
-4.41804
11
5.23065
21
-4.41729
0
LINE
8
BLACK
6
CONTINUOUS
10
5.23065
20
-4.41729
11
5.23039
21
-4.41657
0
LINE
8
BLACK
6
CONTINUOUS
10
5.23039
20
-4.41657
11
5.23039
21
-4.3772
0
LINE
8
BLACK
6
CONTINUOUS
10
5.23039
20
-4.3772
11
5.23046
21
-4.37681
0
LINE
8
BLACK
6
CONTINUOUS
10
5.23046
20
-4.37681
11
5.23043
21
-4.37668
0
LINE
8
BLACK
6
CONTINUOUS
10
5.23043
20
-4.37668
11
5.2305
21
-4.37657
0
LINE
8
BLACK
6
CONTINUOUS
10
5.2305
20
-4.37657
11
5.23057
21
-4.37619
0
LINE
8
BLACK
6
CONTINUOUS
10
5.23057
20
-4.37619
11
5.23106
21
-4.3756
0
LINE
8
BLACK
6
CONTINUOUS
10
5.23106
20
-4.3756
11
5.23144
21
-4.37494
0
LINE
8
BLACK
6
CONTINUOUS
10
5.23144
20
-4.37494
11
5.2317
21
-4.37484
0
LINE
8
BLACK
6
CONTINUOUS
10
5.2317
20
-4.37484
11
5.23187
21
-4.37464
0
LINE
8
BLACK
6
CONTINUOUS
10
5.23187
20
-4.37464
11
5.23262
21
-4.37451
0
LINE
8
BLACK
6
CONTINUOUS
10
5.23262
20
-4.37451
11
5.23334
21
-4.37424
0
LINE
8
BLACK
6
CONTINUOUS
10
5.23334
20
-4.37424
11
5.24647
21
-4.37424
0
LINE
8
BLACK
6
CONTINUOUS
10
5.24647
20
-4.37424
11
5.24748
21
-4.37442
0
LINE
8
BLACK
6
CONTINUOUS
10
5.2363
20
-4.41361
11
5.24764
21
-4.41361
0
LINE
8
BLACK
6
CONTINUOUS
10
5.24764
20
-4.41361
11
5.25034
21
-4.41227
0
LINE
8
BLACK
6
CONTINUOUS
10
5.25034
20
-4.41227
11
5.25154
21
-4.41107
0
LINE
8
BLACK
6
CONTINUOUS
10
5.25154
20
-4.41107
11
5.25289
21
-4.40837
0
LINE
8
BLACK
6
CONTINUOUS
10
5.25289
20
-4.40837
11
5.25289
21
-4.40414
0
LINE
8
BLACK
6
CONTINUOUS
10
5.25289
20
-4.40414
11
5.25154
21
-4.40144
0
LINE
8
BLACK
6
CONTINUOUS
10
5.25154
20
-4.40144
11
5.2505
21
-4.4004
0
LINE
8
BLACK
6
CONTINUOUS
10
5.2505
20
-4.4004
11
5.24599
21
-4.3989
0
LINE
8
BLACK
6
CONTINUOUS
10
5.24599
20
-4.3989
11
5.2363
21
-4.3989
0
LINE
8
BLACK
6
CONTINUOUS
10
5.2363
20
-4.3989
11
5.2363
21
-4.41361
0
LINE
8
BLACK
6
CONTINUOUS
10
5.2363
20
-4.39299
11
5.24577
21
-4.39299
0
LINE
8
BLACK
6
CONTINUOUS
10
5.24577
20
-4.39299
11
5.24847
21
-4.39164
0
LINE
8
BLACK
6
CONTINUOUS
10
5.24847
20
-4.39164
11
5.24966
21
-4.39045
0
LINE
8
BLACK
6
CONTINUOUS
10
5.24966
20
-4.39045
11
5.25101
21
-4.38775
0
LINE
8
BLACK
6
CONTINUOUS
10
5.25101
20
-4.38775
11
5.25101
21
-4.38539
0
LINE
8
BLACK
6
CONTINUOUS
10
5.25101
20
-4.38539
11
5.24966
21
-4.3827
0
LINE
8
BLACK
6
CONTINUOUS
10
5.24966
20
-4.3827
11
5.24847
21
-4.3815
0
LINE
8
BLACK
6
CONTINUOUS
10
5.24847
20
-4.3815
11
5.24577
21
-4.38015
0
LINE
8
BLACK
6
CONTINUOUS
10
5.24577
20
-4.38015
11
5.2363
21
-4.38015
0
LINE
8
BLACK
6
CONTINUOUS
10
5.2363
20
-4.38015
11
5.2363
21
-4.39299
0
LINE
8
BLACK
6
CONTINUOUS
10
4.91189
20
-4.38755
11
4.91344
21
-4.38884
0
LINE
8
BLACK
6
CONTINUOUS
10
4.91344
20
-4.38884
11
4.91379
21
-4.39083
0
LINE
8
BLACK
6
CONTINUOUS
10
4.91379
20
-4.39083
11
4.91278
21
-4.39258
0
LINE
8
BLACK
6
CONTINUOUS
10
4.91278
20
-4.39258
11
4.91088
21
-4.39327
0
LINE
8
BLACK
6
CONTINUOUS
10
4.91088
20
-4.39327
11
4.90783
21
-4.39327
0
LINE
8
BLACK
6
CONTINUOUS
10
4.90783
20
-4.39327
11
4.90513
21
-4.39462
0
LINE
8
BLACK
6
CONTINUOUS
10
4.90513
20
-4.39462
11
4.90394
21
-4.39582
0
LINE
8
BLACK
6
CONTINUOUS
10
4.90394
20
-4.39582
11
4.90259
21
-4.39852
0
LINE
8
BLACK
6
CONTINUOUS
10
4.90259
20
-4.39852
11
4.90259
21
-4.41657
0
LINE
8
BLACK
6
CONTINUOUS
10
4.90259
20
-4.41657
11
4.90241
21
-4.41758
0
LINE
8
BLACK
6
CONTINUOUS
10
4.90241
20
-4.41758
11
4.90111
21
-4.41912
0
LINE
8
BLACK
6
CONTINUOUS
10
4.90111
20
-4.41912
11
4.89912
21
-4.41948
0
LINE
8
BLACK
6
CONTINUOUS
10
4.89912
20
-4.41948
11
4.89737
21
-4.41847
0
LINE
8
BLACK
6
CONTINUOUS
10
4.89737
20
-4.41847
11
4.89668
21
-4.41657
0
LINE
8
BLACK
6
CONTINUOUS
10
4.89668
20
-4.41657
11
4.89668
21
-4.39032
0
LINE
8
BLACK
6
CONTINUOUS
10
4.89668
20
-4.39032
11
4.89686
21
-4.38931
0
LINE
8
BLACK
6
CONTINUOUS
10
4.89686
20
-4.38931
11
4.89816
21
-4.38776
0
LINE
8
BLACK
6
CONTINUOUS
10
4.89816
20
-4.38776
11
4.90015
21
-4.38741
0
LINE
8
BLACK
6
CONTINUOUS
10
4.90015
20
-4.38741
11
4.9019
21
-4.38842
0
LINE
8
BLACK
6
CONTINUOUS
10
4.9019
20
-4.38842
11
4.90227
21
-4.38945
0
LINE
8
BLACK
6
CONTINUOUS
10
4.90227
20
-4.38945
11
4.90581
21
-4.38768
0
LINE
8
BLACK
6
CONTINUOUS
10
4.90581
20
-4.38768
11
4.9068
21
-4.38739
0
LINE
8
BLACK
6
CONTINUOUS
10
4.9068
20
-4.38739
11
4.90697
21
-4.38743
0
LINE
8
BLACK
6
CONTINUOUS
10
4.90697
20
-4.38743
11
4.90713
21
-4.38737
0
LINE
8
BLACK
6
CONTINUOUS
10
4.90713
20
-4.38737
11
4.91088
21
-4.38737
0
LINE
8
BLACK
6
CONTINUOUS
10
4.91088
20
-4.38737
11
4.91189
21
-4.38755
0
LINE
8
BLACK
6
CONTINUOUS
10
5.00188
20
-4.38755
11
5.00202
21
-4.38766
0
LINE
8
BLACK
6
CONTINUOUS
10
5.00202
20
-4.38766
11
5.00219
21
-4.38768
0
LINE
8
BLACK
6
CONTINUOUS
10
5.00219
20
-4.38768
11
5.00594
21
-4.38955
0
LINE
8
BLACK
6
CONTINUOUS
10
5.00594
20
-4.38955
11
5.00651
21
-4.38998
0
LINE
8
BLACK
6
CONTINUOUS
10
5.00651
20
-4.38998
11
5.00675
21
-4.38988
0
LINE
8
BLACK
6
CONTINUOUS
10
5.00675
20
-4.38988
11
5.00705
21
-4.38955
0
LINE
8
BLACK
6
CONTINUOUS
10
5.00705
20
-4.38955
11
5.0108
21
-4.38768
0
LINE
8
BLACK
6
CONTINUOUS
10
5.0108
20
-4.38768
11
5.01178
21
-4.38739
0
LINE
8
BLACK
6
CONTINUOUS
10
5.01178
20
-4.38739
11
5.01195
21
-4.38743
0
LINE
8
BLACK
6
CONTINUOUS
10
5.01195
20
-4.38743
11
5.01212
21
-4.38737
0
LINE
8
BLACK
6
CONTINUOUS
10
5.01212
20
-4.38737
11
5.01774
21
-4.38737
0
LINE
8
BLACK
6
CONTINUOUS
10
5.01774
20
-4.38737
11
5.01875
21
-4.38755
0
LINE
8
BLACK
6
CONTINUOUS
10
5.01875
20
-4.38755
11
5.01889
21
-4.38766
0
LINE
8
BLACK
6
CONTINUOUS
10
5.01889
20
-4.38766
11
5.01907
21
-4.38768
0
LINE
8
BLACK
6
CONTINUOUS
10
5.01907
20
-4.38768
11
5.02281
21
-4.38955
0
LINE
8
BLACK
6
CONTINUOUS
10
5.02281
20
-4.38955
11
5.02364
21
-4.39017
0
LINE
8
BLACK
6
CONTINUOUS
10
5.02364
20
-4.39017
11
5.02381
21
-4.39057
0
LINE
8
BLACK
6
CONTINUOUS
10
5.02381
20
-4.39057
11
5.02414
21
-4.39088
0
LINE
8
BLACK
6
CONTINUOUS
10
5.02414
20
-4.39088
11
5.02601
21
-4.39462
0
LINE
8
BLACK
6
CONTINUOUS
10
5.02601
20
-4.39462
11
5.0263
21
-4.39561
0
LINE
8
BLACK
6
CONTINUOUS
10
5.0263
20
-4.39561
11
5.02626
21
-4.39578
0
LINE
8
BLACK
6
CONTINUOUS
10
5.02626
20
-4.39578
11
5.02632
21
-4.39595
0
LINE
8
BLACK
6
CONTINUOUS
10
5.02632
20
-4.39595
11
5.02632
21
-4.41657
0
LINE
8
BLACK
6
CONTINUOUS
10
5.02632
20
-4.41657
11
5.02614
21
-4.41758
0
LINE
8
BLACK
6
CONTINUOUS
10
5.02614
20
-4.41758
11
5.02485
21
-4.41912
0
LINE
8
BLACK
6
CONTINUOUS
10
5.02485
20
-4.41912
11
5.02286
21
-4.41948
0
LINE
8
BLACK
6
CONTINUOUS
10
5.02286
20
-4.41948
11
5.02111
21
-4.41847
0
LINE
8
BLACK
6
CONTINUOUS
10
5.02111
20
-4.41847
11
5.02042
21
-4.41657
0
LINE
8
BLACK
6
CONTINUOUS
10
5.02042
20
-4.41657
11
5.02042
21
-4.39664
0
LINE
8
BLACK
6
CONTINUOUS
10
5.02042
20
-4.39664
11
5.01929
21
-4.3944
0
LINE
8
BLACK
6
CONTINUOUS
10
5.01929
20
-4.3944
11
5.01705
21
-4.39327
0
LINE
8
BLACK
6
CONTINUOUS
10
5.01705
20
-4.39327
11
5.01282
21
-4.39327
0
LINE
8
BLACK
6
CONTINUOUS
10
5.01282
20
-4.39327
11
5.01057
21
-4.3944
0
LINE
8
BLACK
6
CONTINUOUS
10
5.01057
20
-4.3944
11
5.00945
21
-4.39664
0
LINE
8
BLACK
6
CONTINUOUS
10
5.00945
20
-4.39664
11
5.00945
21
-4.41657
0
LINE
8
BLACK
6
CONTINUOUS
10
5.00945
20
-4.41657
11
5.00927
21
-4.41758
0
LINE
8
BLACK
6
CONTINUOUS
10
5.00927
20
-4.41758
11
5.00797
21
-4.41912
0
LINE
8
BLACK
6
CONTINUOUS
10
5.00797
20
-4.41912
11
5.00598
21
-4.41948
0
LINE
8
BLACK
6
CONTINUOUS
10
5.00598
20
-4.41948
11
5.00423
21
-4.41847
0
LINE
8
BLACK
6
CONTINUOUS
10
5.00423
20
-4.41847
11
5.00354
21
-4.41657
0
LINE
8
BLACK
6
CONTINUOUS
10
5.00354
20
-4.41657
11
5.00354
21
-4.39664
0
LINE
8
BLACK
6
CONTINUOUS
10
5.00354
20
-4.39664
11
5.00242
21
-4.3944
0
LINE
8
BLACK
6
CONTINUOUS
10
5.00242
20
-4.3944
11
5.00017
21
-4.39327
0
LINE
8
BLACK
6
CONTINUOUS
10
5.00017
20
-4.39327
11
4.99594
21
-4.39327
0
LINE
8
BLACK
6
CONTINUOUS
10
4.99594
20
-4.39327
11
4.99325
21
-4.39462
0
LINE
8
BLACK
6
CONTINUOUS
10
4.99325
20
-4.39462
11
4.99258
21
-4.39529
0
LINE
8
BLACK
6
CONTINUOUS
10
4.99258
20
-4.39529
11
4.99258
21
-4.41657
0
LINE
8
BLACK
6
CONTINUOUS
10
4.99258
20
-4.41657
11
4.9924
21
-4.41758
0
LINE
8
BLACK
6
CONTINUOUS
10
4.9924
20
-4.41758
11
4.9911
21
-4.41912
0
LINE
8
BLACK
6
CONTINUOUS
10
4.9911
20
-4.41912
11
4.98911
21
-4.41948
0
LINE
8
BLACK
6
CONTINUOUS
10
4.98911
20
-4.41948
11
4.98736
21
-4.41847
0
LINE
8
BLACK
6
CONTINUOUS
10
4.98736
20
-4.41847
11
4.98667
21
-4.41657
0
LINE
8
BLACK
6
CONTINUOUS
10
4.98667
20
-4.41657
11
4.98667
21
-4.39032
0
LINE
8
BLACK
6
CONTINUOUS
10
4.98667
20
-4.39032
11
4.98685
21
-4.38931
0
LINE
8
BLACK
6
CONTINUOUS
10
4.98685
20
-4.38931
11
4.98815
21
-4.38776
0
LINE
8
BLACK
6
CONTINUOUS
10
4.98815
20
-4.38776
11
4.99014
21
-4.38741
0
LINE
8
BLACK
6
CONTINUOUS
10
4.99014
20
-4.38741
11
4.99189
21
-4.38842
0
LINE
8
BLACK
6
CONTINUOUS
10
4.99189
20
-4.38842
11
4.99197
21
-4.38866
0
LINE
8
BLACK
6
CONTINUOUS
10
4.99197
20
-4.38866
11
4.99393
21
-4.38768
0
LINE
8
BLACK
6
CONTINUOUS
10
4.99393
20
-4.38768
11
4.99491
21
-4.38739
0
LINE
8
BLACK
6
CONTINUOUS
10
4.99491
20
-4.38739
11
4.99508
21
-4.38743
0
LINE
8
BLACK
6
CONTINUOUS
10
4.99508
20
-4.38743
11
4.99525
21
-4.38737
0
LINE
8
BLACK
6
CONTINUOUS
10
4.99525
20
-4.38737
11
5.00087
21
-4.38737
0
LINE
8
BLACK
6
CONTINUOUS
10
5.00087
20
-4.38737
11
5.00188
21
-4.38755
0
LINE
8
BLACK
6
CONTINUOUS
10
5.12374
20
-4.38755
11
5.12529
21
-4.38884
0
LINE
8
BLACK
6
CONTINUOUS
10
5.12529
20
-4.38884
11
5.12564
21
-4.39083
0
LINE
8
BLACK
6
CONTINUOUS
10
5.12564
20
-4.39083
11
5.12463
21
-4.39258
0
LINE
8
BLACK
6
CONTINUOUS
10
5.12463
20
-4.39258
11
5.12273
21
-4.39327
0
LINE
8
BLACK
6
CONTINUOUS
10
5.12273
20
-4.39327
11
5.11968
21
-4.39327
0
LINE
8
BLACK
6
CONTINUOUS
10
5.11968
20
-4.39327
11
5.11698
21
-4.39462
0
LINE
8
BLACK
6
CONTINUOUS
10
5.11698
20
-4.39462
11
5.11578
21
-4.39582
0
LINE
8
BLACK
6
CONTINUOUS
10
5.11578
20
-4.39582
11
5.11444
21
-4.39852
0
LINE
8
BLACK
6
CONTINUOUS
10
5.11444
20
-4.39852
11
5.11444
21
-4.41657
0
LINE
8
BLACK
6
CONTINUOUS
10
5.11444
20
-4.41657
11
5.11426
21
-4.41758
0
LINE
8
BLACK
6
CONTINUOUS
10
5.11426
20
-4.41758
11
5.11296
21
-4.41912
0
LINE
8
BLACK
6
CONTINUOUS
10
5.11296
20
-4.41912
11
5.11097
21
-4.41948
0
LINE
8
BLACK
6
CONTINUOUS
10
5.11097
20
-4.41948
11
5.10922
21
-4.41847
0
LINE
8
BLACK
6
CONTINUOUS
10
5.10922
20
-4.41847
11
5.10853
21
-4.41657
0
LINE
8
BLACK
6
CONTINUOUS
10
5.10853
20
-4.41657
11
5.10853
21
-4.39032
0
LINE
8
BLACK
6
CONTINUOUS
10
5.10853
20
-4.39032
11
5.10871
21
-4.38931
0
LINE
8
BLACK
6
CONTINUOUS
10
5.10871
20
-4.38931
11
5.11001
21
-4.38776
0
LINE
8
BLACK
6
CONTINUOUS
10
5.11001
20
-4.38776
11
5.112
21
-4.38741
0
LINE
8
BLACK
6
CONTINUOUS
10
5.112
20
-4.38741
11
5.11374
21
-4.38842
0
LINE
8
BLACK
6
CONTINUOUS
10
5.11374
20
-4.38842
11
5.11412
21
-4.38945
0
LINE
8
BLACK
6
CONTINUOUS
10
5.11412
20
-4.38945
11
5.11766
21
-4.38768
0
LINE
8
BLACK
6
CONTINUOUS
10
5.11766
20
-4.38768
11
5.11864
21
-4.38739
0
LINE
8
BLACK
6
CONTINUOUS
10
5.11864
20
-4.38739
11
5.11882
21
-4.38743
0
LINE
8
BLACK
6
CONTINUOUS
10
5.11882
20
-4.38743
11
5.11898
21
-4.38737
0
LINE
8
BLACK
6
CONTINUOUS
10
5.11898
20
-4.38737
11
5.12273
21
-4.38737
0
LINE
8
BLACK
6
CONTINUOUS
10
5.12273
20
-4.38737
11
5.12374
21
-4.38755
0
LINE
8
BLACK
6
CONTINUOUS
10
5.28497
20
-4.38755
11
5.28652
21
-4.38884
0
LINE
8
BLACK
6
CONTINUOUS
10
5.28652
20
-4.38884
11
5.28687
21
-4.39083
0
LINE
8
BLACK
6
CONTINUOUS
10
5.28687
20
-4.39083
11
5.28586
21
-4.39258
0
LINE
8
BLACK
6
CONTINUOUS
10
5.28586
20
-4.39258
11
5.28396
21
-4.39327
0
LINE
8
BLACK
6
CONTINUOUS
10
5.28396
20
-4.39327
11
5.28091
21
-4.39327
0
LINE
8
BLACK
6
CONTINUOUS
10
5.28091
20
-4.39327
11
5.27821
21
-4.39462
0
LINE
8
BLACK
6
CONTINUOUS
10
5.27821
20
-4.39462
11
5.27701
21
-4.39582
0
LINE
8
BLACK
6
CONTINUOUS
10
5.27701
20
-4.39582
11
5.27567
21
-4.39852
0
LINE
8
BLACK
6
CONTINUOUS
10
5.27567
20
-4.39852
11
5.27567
21
-4.41657
0
LINE
8
BLACK
6
CONTINUOUS
10
5.27567
20
-4.41657
11
5.27549
21
-4.41758
0
LINE
8
BLACK
6
CONTINUOUS
10
5.27549
20
-4.41758
11
5.27419
21
-4.41912
0
LINE
8
BLACK
6
CONTINUOUS
10
5.27419
20
-4.41912
11
5.2722
21
-4.41948
0
LINE
8
BLACK
6
CONTINUOUS
10
5.2722
20
-4.41948
11
5.27045
21
-4.41847
0
LINE
8
BLACK
6
CONTINUOUS
10
5.27045
20
-4.41847
11
5.26976
21
-4.41657
0
LINE
8
BLACK
6
CONTINUOUS
10
5.26976
20
-4.41657
11
5.26976
21
-4.39032
0
LINE
8
BLACK
6
CONTINUOUS
10
5.26976
20
-4.39032
11
5.26994
21
-4.38931
0
LINE
8
BLACK
6
CONTINUOUS
10
5.26994
20
-4.38931
11
5.27124
21
-4.38776
0
LINE
8
BLACK
6
CONTINUOUS
10
5.27124
20
-4.38776
11
5.27323
21
-4.38741
0
LINE
8
BLACK
6
CONTINUOUS
10
5.27323
20
-4.38741
11
5.27497
21
-4.38842
0
LINE
8
BLACK
6
CONTINUOUS
10
5.27497
20
-4.38842
11
5.27535
21
-4.38945
0
LINE
8
BLACK
6
CONTINUOUS
10
5.27535
20
-4.38945
11
5.27889
21
-4.38768
0
LINE
8
BLACK
6
CONTINUOUS
10
5.27889
20
-4.38768
11
5.27987
21
-4.38739
0
LINE
8
BLACK
6
CONTINUOUS
10
5.27987
20
-4.38739
11
5.28005
21
-4.38743
0
LINE
8
BLACK
6
CONTINUOUS
10
5.28005
20
-4.38743
11
5.28021
21
-4.38737
0
LINE
8
BLACK
6
CONTINUOUS
10
5.28021
20
-4.38737
11
5.28396
21
-4.38737
0
LINE
8
BLACK
6
CONTINUOUS
10
5.28396
20
-4.38737
11
5.28497
21
-4.38755
0
LINE
8
BLACK
6
CONTINUOUS
10
5.29935
20
-4.38842
11
5.30004
21
-4.39032
0
LINE
8
BLACK
6
CONTINUOUS
10
5.30004
20
-4.39032
11
5.30004
21
-4.41657
0
LINE
8
BLACK
6
CONTINUOUS
10
5.30004
20
-4.41657
11
5.29986
21
-4.41758
0
LINE
8
BLACK
6
CONTINUOUS
10
5.29986
20
-4.41758
11
5.29856
21
-4.41912
0
LINE
8
BLACK
6
CONTINUOUS
10
5.29856
20
-4.41912
11
5.29657
21
-4.41948
0
LINE
8
BLACK
6
CONTINUOUS
10
5.29657
20
-4.41948
11
5.29482
21
-4.41847
0
LINE
8
BLACK
6
CONTINUOUS
10
5.29482
20
-4.41847
11
5.29413
21
-4.41657
0
LINE
8
BLACK
6
CONTINUOUS
10
5.29413
20
-4.41657
11
5.29413
21
-4.39032
0
LINE
8
BLACK
6
CONTINUOUS
10
5.29413
20
-4.39032
11
5.29431
21
-4.38931
0
LINE
8
BLACK
6
CONTINUOUS
10
5.29431
20
-4.38931
11
5.29561
21
-4.38776
0
LINE
8
BLACK
6
CONTINUOUS
10
5.29561
20
-4.38776
11
5.2976
21
-4.38741
0
LINE
8
BLACK
6
CONTINUOUS
10
5.2976
20
-4.38741
11
5.29935
21
-4.38842
0
LINE
8
BLACK
6
CONTINUOUS
10
4.81191
20
-4.3753
11
4.8126
21
-4.3772
0
LINE
8
BLACK
6
CONTINUOUS
10
4.8126
20
-4.3772
11
4.8126
21
-4.41025
0
LINE
8
BLACK
6
CONTINUOUS
10
4.8126
20
-4.41025
11
4.81372
21
-4.41249
0
LINE
8
BLACK
6
CONTINUOUS
10
4.81372
20
-4.41249
11
4.81659
21
-4.41393
0
LINE
8
BLACK
6
CONTINUOUS
10
4.81659
20
-4.41393
11
4.81741
21
-4.41454
0
LINE
8
BLACK
6
CONTINUOUS
10
4.81741
20
-4.41454
11
4.81822
21
-4.41639
0
LINE
8
BLACK
6
CONTINUOUS
10
4.81822
20
-4.41639
11
4.81764
21
-4.41833
0
LINE
8
BLACK
6
CONTINUOUS
10
4.81764
20
-4.41833
11
4.81596
21
-4.41944
0
LINE
8
BLACK
6
CONTINUOUS
10
4.81596
20
-4.41944
11
4.81395
21
-4.41921
0
LINE
8
BLACK
6
CONTINUOUS
10
4.81395
20
-4.41921
11
4.8102
21
-4.41733
0
LINE
8
BLACK
6
CONTINUOUS
10
4.8102
20
-4.41733
11
4.80938
21
-4.41672
0
LINE
8
BLACK
6
CONTINUOUS
10
4.80938
20
-4.41672
11
4.8092
21
-4.41632
0
LINE
8
BLACK
6
CONTINUOUS
10
4.8092
20
-4.41632
11
4.80888
21
-4.41601
0
LINE
8
BLACK
6
CONTINUOUS
10
4.80888
20
-4.41601
11
4.807
21
-4.41226
0
LINE
8
BLACK
6
CONTINUOUS
10
4.807
20
-4.41226
11
4.80671
21
-4.41128
0
LINE
8
BLACK
6
CONTINUOUS
10
4.80671
20
-4.41128
11
4.80675
21
-4.41111
0
LINE
8
BLACK
6
CONTINUOUS
10
4.80675
20
-4.41111
11
4.80669
21
-4.41094
0
LINE
8
BLACK
6
CONTINUOUS
10
4.80669
20
-4.41094
11
4.80669
21
-4.3772
0
LINE
8
BLACK
6
CONTINUOUS
10
4.80669
20
-4.3772
11
4.80687
21
-4.37619
0
LINE
8
BLACK
6
CONTINUOUS
10
4.80687
20
-4.37619
11
4.80817
21
-4.37464
0
LINE
8
BLACK
6
CONTINUOUS
10
4.80817
20
-4.37464
11
4.81016
21
-4.37429
0
LINE
8
BLACK
6
CONTINUOUS
10
4.81016
20
-4.37429
11
4.81191
21
-4.3753
0
LINE
8
BLACK
6
CONTINUOUS
10
5.29746
20
-4.37431
11
5.2976
21
-4.37429
0
LINE
8
BLACK
6
CONTINUOUS
10
5.2976
20
-4.37429
11
5.29771
21
-4.37436
0
LINE
8
BLACK
6
CONTINUOUS
10
5.29771
20
-4.37436
11
5.29785
21
-4.37435
0
LINE
8
BLACK
6
CONTINUOUS
10
5.29785
20
-4.37435
11
5.29848
21
-4.37479
0
LINE
8
BLACK
6
CONTINUOUS
10
5.29848
20
-4.37479
11
5.29917
21
-4.37511
0
LINE
8
BLACK
6
CONTINUOUS
10
5.29917
20
-4.37511
11
5.30105
21
-4.37698
0
LINE
8
BLACK
6
CONTINUOUS
10
5.30105
20
-4.37698
11
5.30127
21
-4.3773
0
LINE
8
BLACK
6
CONTINUOUS
10
5.30127
20
-4.3773
11
5.30138
21
-4.37738
0
LINE
8
BLACK
6
CONTINUOUS
10
5.30138
20
-4.37738
11
5.30141
21
-4.37751
0
LINE
8
BLACK
6
CONTINUOUS
10
5.30141
20
-4.37751
11
5.30164
21
-4.37782
0
LINE
8
BLACK
6
CONTINUOUS
10
5.30164
20
-4.37782
11
5.3017
21
-4.37859
0
LINE
8
BLACK
6
CONTINUOUS
10
5.3017
20
-4.37859
11
5.3019
21
-4.37933
0
LINE
8
BLACK
6
CONTINUOUS
10
5.3019
20
-4.37933
11
5.30179
21
-4.37957
0
LINE
8
BLACK
6
CONTINUOUS
10
5.30179
20
-4.37957
11
5.30181
21
-4.37984
0
LINE
8
BLACK
6
CONTINUOUS
10
5.30181
20
-4.37984
11
5.30137
21
-4.38046
0
LINE
8
BLACK
6
CONTINUOUS
10
5.30137
20
-4.38046
11
5.30105
21
-4.38116
0
LINE
8
BLACK
6
CONTINUOUS
10
5.30105
20
-4.38116
11
5.29917
21
-4.38304
0
LINE
8
BLACK
6
CONTINUOUS
10
5.29917
20
-4.38304
11
5.29885
21
-4.38326
0
LINE
8
BLACK
6
CONTINUOUS
10
5.29885
20
-4.38326
11
5.29878
21
-4.38337
0
LINE
8
BLACK
6
CONTINUOUS
10
5.29878
20
-4.38337
11
5.29865
21
-4.3834
0
LINE
8
BLACK
6
CONTINUOUS
10
5.29865
20
-4.3834
11
5.29864
21
-4.3834
0
LINE
8
BLACK
6
CONTINUOUS
10
5.29864
20
-4.3834
11
5.29856
21
-4.3835
0
LINE
8
BLACK
6
CONTINUOUS
10
5.29856
20
-4.3835
11
5.29848
21
-4.38352
0
LINE
8
BLACK
6
CONTINUOUS
10
5.29848
20
-4.38352
11
5.29833
21
-4.38362
0
LINE
8
BLACK
6
CONTINUOUS
10
5.29833
20
-4.38362
11
5.29757
21
-4.38369
0
LINE
8
BLACK
6
CONTINUOUS
10
5.29757
20
-4.38369
11
5.29683
21
-4.38389
0
LINE
8
BLACK
6
CONTINUOUS
10
5.29683
20
-4.38389
11
5.29671
21
-4.38383
0
LINE
8
BLACK
6
CONTINUOUS
10
5.29671
20
-4.38383
11
5.29657
21
-4.38386
0
LINE
8
BLACK
6
CONTINUOUS
10
5.29657
20
-4.38386
11
5.29646
21
-4.38379
0
LINE
8
BLACK
6
CONTINUOUS
10
5.29646
20
-4.38379
11
5.29632
21
-4.3838
0
LINE
8
BLACK
6
CONTINUOUS
10
5.29632
20
-4.3838
11
5.29569
21
-4.38336
0
LINE
8
BLACK
6
CONTINUOUS
10
5.29569
20
-4.38336
11
5.295
21
-4.38304
0
LINE
8
BLACK
6
CONTINUOUS
10
5.295
20
-4.38304
11
5.29312
21
-4.38116
0
LINE
8
BLACK
6
CONTINUOUS
10
5.29312
20
-4.38116
11
5.2929
21
-4.38084
0
LINE
8
BLACK
6
CONTINUOUS
10
5.2929
20
-4.38084
11
5.29279
21
-4.38077
0
LINE
8
BLACK
6
CONTINUOUS
10
5.29279
20
-4.38077
11
5.29276
21
-4.38064
0
LINE
8
BLACK
6
CONTINUOUS
10
5.29276
20
-4.38064
11
5.29253
21
-4.38032
0
LINE
8
BLACK
6
CONTINUOUS
10
5.29253
20
-4.38032
11
5.29247
21
-4.37956
0
LINE
8
BLACK
6
CONTINUOUS
10
5.29247
20
-4.37956
11
5.29227
21
-4.37882
0
LINE
8
BLACK
6
CONTINUOUS
10
5.29227
20
-4.37882
11
5.29238
21
-4.37857
0
LINE
8
BLACK
6
CONTINUOUS
10
5.29238
20
-4.37857
11
5.29236
21
-4.37831
0
LINE
8
BLACK
6
CONTINUOUS
10
5.29236
20
-4.37831
11
5.2928
21
-4.37768
0
LINE
8
BLACK
6
CONTINUOUS
10
5.2928
20
-4.37768
11
5.29312
21
-4.37698
0
LINE
8
BLACK
6
CONTINUOUS
10
5.29312
20
-4.37698
11
5.295
21
-4.37511
0
LINE
8
BLACK
6
CONTINUOUS
10
5.295
20
-4.37511
11
5.29532
21
-4.37489
0
LINE
8
BLACK
6
CONTINUOUS
10
5.29532
20
-4.37489
11
5.29539
21
-4.37478
0
LINE
8
BLACK
6
CONTINUOUS
10
5.29539
20
-4.37478
11
5.29552
21
-4.37474
0
LINE
8
BLACK
6
CONTINUOUS
10
5.29552
20
-4.37474
11
5.29552
21
-4.37474
0
LINE
8
BLACK
6
CONTINUOUS
10
5.29552
20
-4.37474
11
5.29561
21
-4.37464
0
LINE
8
BLACK
6
CONTINUOUS
10
5.29561
20
-4.37464
11
5.29569
21
-4.37463
0
LINE
8
BLACK
6
CONTINUOUS
10
5.29569
20
-4.37463
11
5.29584
21
-4.37452
0
LINE
8
BLACK
6
CONTINUOUS
10
5.29584
20
-4.37452
11
5.2966
21
-4.37445
0
LINE
8
BLACK
6
CONTINUOUS
10
5.2966
20
-4.37445
11
5.29734
21
-4.37426
0
LINE
8
BLACK
6
CONTINUOUS
10
5.29734
20
-4.37426
11
5.29746
21
-4.37431
0
LINE
8
BLACK
6
CONTINUOUS
10
4.61406
20
-3.87519
11
4.62795
21
-3.87755
0
LINE
8
BLACK
6
CONTINUOUS
10
4.62795
20
-3.87755
11
4.64148
21
-3.88145
0
LINE
8
BLACK
6
CONTINUOUS
10
4.64148
20
-3.88145
11
4.6545
21
-3.88684
0
LINE
8
BLACK
6
CONTINUOUS
10
4.6545
20
-3.88684
11
4.66682
21
-3.89365
0
LINE
8
BLACK
6
CONTINUOUS
10
4.66682
20
-3.89365
11
4.67831
21
-3.9018
0
LINE
8
BLACK
6
CONTINUOUS
10
4.67831
20
-3.9018
11
4.68881
21
-3.91119
0
LINE
8
BLACK
6
CONTINUOUS
10
4.68881
20
-3.91119
11
4.6982
21
-3.92169
0
LINE
8
BLACK
6
CONTINUOUS
10
4.6982
20
-3.92169
11
4.70635
21
-3.93318
0
LINE
8
BLACK
6
CONTINUOUS
10
4.70635
20
-3.93318
11
4.71316
21
-3.9455
0
LINE
8
BLACK
6
CONTINUOUS
10
4.71316
20
-3.9455
11
4.71855
21
-3.95852
0
LINE
8
BLACK
6
CONTINUOUS
10
4.71855
20
-3.95852
11
4.72245
21
-3.97205
0
LINE
8
BLACK
6
CONTINUOUS
10
4.72245
20
-3.97205
11
4.72481
21
-3.98594
0
LINE
8
BLACK
6
CONTINUOUS
10
4.72481
20
-3.98594
11
4.7256
21
-4
0
LINE
8
BLACK
6
CONTINUOUS
10
4.7256
20
-4
11
4.72481
21
-4.01406
0
LINE
8
BLACK
6
CONTINUOUS
10
4.72481
20
-4.01406
11
4.72245
21
-4.02795
0
LINE
8
BLACK
6
CONTINUOUS
10
4.72245
20
-4.02795
11
4.71855
21
-4.04148
0
LINE
8
BLACK
6
CONTINUOUS
10
4.71855
20
-4.04148
11
4.71316
21
-4.0545
0
LINE
8
BLACK
6
CONTINUOUS
10
4.71316
20
-4.0545
11
4.70635
21
-4.06682
0
LINE
8
BLACK
6
CONTINUOUS
10
4.70635
20
-4.06682
11
4.6982
21
-4.07831
0
LINE
8
BLACK
6
CONTINUOUS
10
4.6982
20
-4.07831
11
4.68881
21
-4.08881
0
LINE
8
BLACK
6
CONTINUOUS
10
4.68881
20
-4.08881
11
4.67831
21
-4.0982
0
LINE
8
BLACK
6
CONTINUOUS
10
4.67831
20
-4.0982
11
4.66682
21
-4.10635
0
LINE
8
BLACK
6
CONTINUOUS
10
4.66682
20
-4.10635
11
4.6545
21
-4.11316
0
LINE
8
BLACK
6
CONTINUOUS
10
4.6545
20
-4.11316
11
4.64148
21
-4.11855
0
LINE
8
BLACK
6
CONTINUOUS
10
4.64148
20
-4.11855
11
4.62795
21
-4.12245
0
LINE
8
BLACK
6
CONTINUOUS
10
4.62795
20
-4.12245
11
4.61406
21
-4.12481
0
LINE
8
BLACK
6
CONTINUOUS
10
4.61406
20
-4.12481
11
4.6
21
-4.1256
0
LINE
8
BLACK
6
CONTINUOUS
10
4.6
20
-4.1256
11
4.58594
21
-4.12481
0
LINE
8
BLACK
6
CONTINUOUS
10
4.58594
20
-4.12481
11
4.57205
21
-4.12245
0
LINE
8
BLACK
6
CONTINUOUS
10
4.57205
20
-4.12245
11
4.55852
21
-4.11855
0
LINE
8
BLACK
6
CONTINUOUS
10
4.55852
20
-4.11855
11
4.5455
21
-4.11316
0
LINE
8
BLACK
6
CONTINUOUS
10
4.5455
20
-4.11316
11
4.53318
21
-4.10635
0
LINE
8
BLACK
6
CONTINUOUS
10
4.53318
20
-4.10635
11
4.52169
21
-4.0982
0
LINE
8
BLACK
6
CONTINUOUS
10
4.52169
20
-4.0982
11
4.51119
21
-4.08881
0
LINE
8
BLACK
6
CONTINUOUS
10
4.51119
20
-4.08881
11
4.5018
21
-4.07831
0
LINE
8
BLACK
6
CONTINUOUS
10
4.5018
20
-4.07831
11
4.49365
21
-4.06682
0
LINE
8
BLACK
6
CONTINUOUS
10
4.49365
20
-4.06682
11
4.48684
21
-4.0545
0
LINE
8
BLACK
6
CONTINUOUS
10
4.48684
20
-4.0545
11
4.48145
21
-4.04148
0
LINE
8
BLACK
6
CONTINUOUS
10
4.48145
20
-4.04148
11
4.47755
21
-4.02795
0
LINE
8
BLACK
6
CONTINUOUS
10
4.47755
20
-4.02795
11
4.47519
21
-4.01406
0
LINE
8
BLACK
6
CONTINUOUS
10
4.47519
20
-4.01406
11
4.4744
21
-4
0
LINE
8
BLACK
6
CONTINUOUS
10
4.4744
20
-4
11
4.47519
21
-3.98594
0
LINE
8
BLACK
6
CONTINUOUS
10
4.47519
20
-3.98594
11
4.47755
21
-3.97205
0
LINE
8
BLACK
6
CONTINUOUS
10
4.47755
20
-3.97205
11
4.48145
21
-3.95852
0
LINE
8
BLACK
6
CONTINUOUS
10
4.48145
20
-3.95852
11
4.48684
21
-3.9455
0
LINE
8
BLACK
6
CONTINUOUS
10
4.48684
20
-3.9455
11
4.49365
21
-3.93318
0
LINE
8
BLACK
6
CONTINUOUS
10
4.49365
20
-3.93318
11
4.5018
21
-3.92169
0
LINE
8
BLACK
6
CONTINUOUS
10
4.5018
20
-3.92169
11
4.51119
21
-3.91119
0
LINE
8
BLACK
6
CONTINUOUS
10
4.51119
20
-3.91119
11
4.52169
21
-3.9018
0
LINE
8
BLACK
6
CONTINUOUS
10
4.52169
20
-3.9018
11
4.53318
21
-3.89365
0
LINE
8
BLACK
6
CONTINUOUS
10
4.53318
20
-3.89365
11
4.5455
21
-3.88684
0
LINE
8
BLACK
6
CONTINUOUS
10
4.5455
20
-3.88684
11
4.55852
21
-3.88145
0
LINE
8
BLACK
6
CONTINUOUS
10
4.55852
20
-3.88145
11
4.57205
21
-3.87755
0
LINE
8
BLACK
6
CONTINUOUS
10
4.57205
20
-3.87755
11
4.58594
21
-3.87519
0
LINE
8
BLACK
6
CONTINUOUS
10
4.58594
20
-3.87519
11
4.6
21
-3.8744
0
LINE
8
BLACK
6
CONTINUOUS
10
4.6
20
-3.8744
11
4.61406
21
-3.87519
0
LINE
8
BLACK
6
CONTINUOUS
10
4.48996
20
-4.01286
11
4.4922
21
-4.02555
0
LINE
8
BLACK
6
CONTINUOUS
10
4.4922
20
-4.02555
11
4.49589
21
-4.03789
0
LINE
8
BLACK
6
CONTINUOUS
10
4.49589
20
-4.03789
11
4.501
21
-4.04972
0
LINE
8
BLACK
6
CONTINUOUS
10
4.501
20
-4.04972
11
4.50744
21
-4.06088
0
LINE
8
BLACK
6
CONTINUOUS
10
4.50744
20
-4.06088
11
4.51513
21
-4.07121
0
LINE
8
BLACK
6
CONTINUOUS
10
4.51513
20
-4.07121
11
4.52397
21
-4.08058
0
LINE
8
BLACK
6
CONTINUOUS
10
4.52397
20
-4.08058
11
4.53384
21
-4.08887
0
LINE
8
BLACK
6
CONTINUOUS
10
4.53384
20
-4.08887
11
4.54461
21
-4.09594
0
LINE
8
BLACK
6
CONTINUOUS
10
4.54461
20
-4.09594
11
4.55612
21
-4.10173
0
LINE
8
BLACK
6
CONTINUOUS
10
4.55612
20
-4.10173
11
4.56823
21
-4.10613
0
LINE
8
BLACK
6
CONTINUOUS
10
4.56823
20
-4.10613
11
4.58076
21
-4.1091
0
LINE
8
BLACK
6
CONTINUOUS
10
4.58076
20
-4.1091
11
4.59356
21
-4.1106
0
LINE
8
BLACK
6
CONTINUOUS
10
4.59356
20
-4.1106
11
4.60644
21
-4.1106
0
LINE
8
BLACK
6
CONTINUOUS
10
4.60644
20
-4.1106
11
4.61924
21
-4.1091
0
LINE
8
BLACK
6
CONTINUOUS
10
4.61924
20
-4.1091
11
4.63177
21
-4.10613
0
LINE
8
BLACK
6
CONTINUOUS
10
4.63177
20
-4.10613
11
4.64388
21
-4.10173
0
LINE
8
BLACK
6
CONTINUOUS
10
4.64388
20
-4.10173
11
4.65539
21
-4.09594
0
LINE
8
BLACK
6
CONTINUOUS
10
4.65539
20
-4.09594
11
4.66616
21
-4.08887
0
LINE
8
BLACK
6
CONTINUOUS
10
4.66616
20
-4.08887
11
4.67603
21
-4.08058
0
LINE
8
BLACK
6
CONTINUOUS
10
4.67603
20
-4.08058
11
4.68487
21
-4.07121
0
LINE
8
BLACK
6
CONTINUOUS
10
4.68487
20
-4.07121
11
4.69256
21
-4.06088
0
LINE
8
BLACK
6
CONTINUOUS
10
4.69256
20
-4.06088
11
4.699
21
-4.04972
0
LINE
8
BLACK
6
CONTINUOUS
10
4.699
20
-4.04972
11
4.70411
21
-4.03789
0
LINE
8
BLACK
6
CONTINUOUS
10
4.70411
20
-4.03789
11
4.7078
21
-4.02555
0
LINE
8
BLACK
6
CONTINUOUS
10
4.7078
20
-4.02555
11
4.71004
21
-4.01286
0
LINE
8
BLACK
6
CONTINUOUS
10
4.71004
20
-4.01286
11
4.71079
21
-4
0
LINE
8
BLACK
6
CONTINUOUS
10
4.71079
20
-4
11
4.71004
21
-3.98714
0
LINE
8
BLACK
6
CONTINUOUS
10
4.71004
20
-3.98714
11
4.7078
21
-3.97445
0
LINE
8
BLACK
6
CONTINUOUS
10
4.7078
20
-3.97445
11
4.70411
21
-3.96211
0
LINE
8
BLACK
6
CONTINUOUS
10
4.70411
20
-3.96211
11
4.699
21
-3.95028
0
LINE
8
BLACK
6
CONTINUOUS
10
4.699
20
-3.95028
11
4.69256
21
-3.93912
0
LINE
8
BLACK
6
CONTINUOUS
10
4.69256
20
-3.93912
11
4.68487
21
-3.92879
0
LINE
8
BLACK
6
CONTINUOUS
10
4.68487
20
-3.92879
11
4.67603
21
-3.91942
0
LINE
8
BLACK
6
CONTINUOUS
10
4.67603
20
-3.91942
11
4.66616
21
-3.91113
0
LINE
8
BLACK
6
CONTINUOUS
10
4.66616
20
-3.91113
11
4.65539
21
-3.90406
0
LINE
8
BLACK
6
CONTINUOUS
10
4.65539
20
-3.90406
11
4.64388
21
-3.89827
0
LINE
8
BLACK
6
CONTINUOUS
10
4.64388
20
-3.89827
11
4.63177
21
-3.89387
0
LINE
8
BLACK
6
CONTINUOUS
10
4.63177
20
-3.89387
11
4.61924
21
-3.8909
0
LINE
8
BLACK
6
CONTINUOUS
10
4.61924
20
-3.8909
11
4.60644
21
-3.8894
0
LINE
8
BLACK
6
CONTINUOUS
10
4.60644
20
-3.8894
11
4.59356
21
-3.8894
0
LINE
8
BLACK
6
CONTINUOUS
10
4.59356
20
-3.8894
11
4.58076
21
-3.8909
0
LINE
8
BLACK
6
CONTINUOUS
10
4.58076
20
-3.8909
11
4.56823
21
-3.89387
0
LINE
8
BLACK
6
CONTINUOUS
10
4.56823
20
-3.89387
11
4.55612
21
-3.89827
0
LINE
8
BLACK
6
CONTINUOUS
10
4.55612
20
-3.89827
11
4.54461
21
-3.90406
0
LINE
8
BLACK
6
CONTINUOUS
10
4.54461
20
-3.90406
11
4.53384
21
-3.91113
0
LINE
8
BLACK
6
CONTINUOUS
10
4.53384
20
-3.91113
11
4.52397
21
-3.91942
0
LINE
8
BLACK
6
CONTINUOUS
10
4.52397
20
-3.91942
11
4.51513
21
-3.92879
0
LINE
8
BLACK
6
CONTINUOUS
10
4.51513
20
-3.92879
11
4.50744
21
-3.93912
0
LINE
8
BLACK
6
CONTINUOUS
10
4.50744
20
-3.93912
11
4.501
21
-3.95028
0
LINE
8
BLACK
6
CONTINUOUS
10
4.501
20
-3.95028
11
4.49589
21
-3.96211
0
LINE
8
BLACK
6
CONTINUOUS
10
4.49589
20
-3.96211
11
4.4922
21
-3.97445
0
LINE
8
BLACK
6
CONTINUOUS
10
4.4922
20
-3.97445
11
4.48996
21
-3.98714
0
LINE
8
BLACK
6
CONTINUOUS
10
4.48996
20
-3.98714
11
4.48921
21
-4
0
LINE
8
BLACK
6
CONTINUOUS
10
4.48921
20
-4
11
4.48996
21
-4.01286
0
LINE
8
BLACK
6
CONTINUOUS
10
5.81406
20
-3.87519
11
5.82795
21
-3.87755
0
LINE
8
BLACK
6
CONTINUOUS
10
5.82795
20
-3.87755
11
5.84148
21
-3.88145
0
LINE
8
BLACK
6
CONTINUOUS
10
5.84148
20
-3.88145
11
5.8545
21
-3.88684
0
LINE
8
BLACK
6
CONTINUOUS
10
5.8545
20
-3.88684
11
5.86682
21
-3.89365
0
LINE
8
BLACK
6
CONTINUOUS
10
5.86682
20
-3.89365
11
5.87831
21
-3.9018
0
LINE
8
BLACK
6
CONTINUOUS
10
5.87831
20
-3.9018
11
5.88881
21
-3.91119
0
LINE
8
BLACK
6
CONTINUOUS
10
5.88881
20
-3.91119
11
5.8982
21
-3.92169
0
LINE
8
BLACK
6
CONTINUOUS
10
5.8982
20
-3.92169
11
5.90635
21
-3.93318
0
LINE
8
BLACK
6
CONTINUOUS
10
5.90635
20
-3.93318
11
5.91316
21
-3.9455
0
LINE
8
BLACK
6
CONTINUOUS
10
5.91316
20
-3.9455
11
5.91855
21
-3.95852
0
LINE
8
BLACK
6
CONTINUOUS
10
5.91855
20
-3.95852
11
5.92245
21
-3.97205
0
LINE
8
BLACK
6
CONTINUOUS
10
5.92245
20
-3.97205
11
5.92481
21
-3.98594
0
LINE
8
BLACK
6
CONTINUOUS
10
5.92481
20
-3.98594
11
5.9256
21
-4
0
LINE
8
BLACK
6
CONTINUOUS
10
5.9256
20
-4
11
5.92481
21
-4.01406
0
LINE
8
BLACK
6
CONTINUOUS
10
5.92481
20
-4.01406
11
5.92245
21
-4.02795
0
LINE
8
BLACK
6
CONTINUOUS
10
5.92245
20
-4.02795
11
5.91855
21
-4.04148
0
LINE
8
BLACK
6
CONTINUOUS
10
5.91855
20
-4.04148
11
5.91316
21
-4.0545
0
LINE
8
BLACK
6
CONTINUOUS
10
5.91316
20
-4.0545
11
5.90635
21
-4.06682
0
LINE
8
BLACK
6
CONTINUOUS
10
5.90635
20
-4.06682
11
5.8982
21
-4.07831
0
LINE
8
BLACK
6
CONTINUOUS
10
5.8982
20
-4.07831
11
5.88881
21
-4.08881
0
LINE
8
BLACK
6
CONTINUOUS
10
5.88881
20
-4.08881
11
5.87831
21
-4.0982
0
LINE
8
BLACK
6
CONTINUOUS
10
5.87831
20
-4.0982
11
5.86682
21
-4.10635
0
LINE
8
BLACK
6
CONTINUOUS
10
5.86682
20
-4.10635
11
5.8545
21
-4.11316
0
LINE
8
BLACK
6
CONTINUOUS
10
5.8545
20
-4.11316
11
5.84148
21
-4.11855
0
LINE
8
BLACK
6
CONTINUOUS
10
5.84148
20
-4.11855
11
5.82795
21
-4.12245
0
LINE
8
BLACK
6
CONTINUOUS
10
5.82795
20
-4.12245
11
5.81406
21
-4.12481
0
LINE
8
BLACK
6
CONTINUOUS
10
5.81406
20
-4.12481
11
5.8
21
-4.1256
0
LINE
8
BLACK
6
CONTINUOUS
10
5.8
20
-4.1256
11
5.78594
21
-4.12481
0
LINE
8
BLACK
6
CONTINUOUS
10
5.78594
20
-4.12481
11
5.77205
21
-4.12245
0
LINE
8
BLACK
6
CONTINUOUS
10
5.77205
20
-4.12245
11
5.75852
21
-4.11855
0
LINE
8
BLACK
6
CONTINUOUS
10
5.75852
20
-4.11855
11
5.7455
21
-4.11316
0
LINE
8
BLACK
6
CONTINUOUS
10
5.7455
20
-4.11316
11
5.73318
21
-4.10635
0
LINE
8
BLACK
6
CONTINUOUS
10
5.73318
20
-4.10635
11
5.72169
21
-4.0982
0
LINE
8
BLACK
6
CONTINUOUS
10
5.72169
20
-4.0982
11
5.71119
21
-4.08881
0
LINE
8
BLACK
6
CONTINUOUS
10
5.71119
20
-4.08881
11
5.7018
21
-4.07831
0
LINE
8
BLACK
6
CONTINUOUS
10
5.7018
20
-4.07831
11
5.69365
21
-4.06682
0
LINE
8
BLACK
6
CONTINUOUS
10
5.69365
20
-4.06682
11
5.68684
21
-4.0545
0
LINE
8
BLACK
6
CONTINUOUS
10
5.68684
20
-4.0545
11
5.68145
21
-4.04148
0
LINE
8
BLACK
6
CONTINUOUS
10
5.68145
20
-4.04148
11
5.67755
21
-4.02795
0
LINE
8
BLACK
6
CONTINUOUS
10
5.67755
20
-4.02795
11
5.67519
21
-4.01406
0
LINE
8
BLACK
6
CONTINUOUS
10
5.67519
20
-4.01406
11
5.6744
21
-4
0
LINE
8
BLACK
6
CONTINUOUS
10
5.6744
20
-4
11
5.67519
21
-3.98594
0
LINE
8
BLACK
6
CONTINUOUS
10
5.67519
20
-3.98594
11
5.67755
21
-3.97205
0
LINE
8
BLACK
6
CONTINUOUS
10
5.67755
20
-3.97205
11
5.68145
21
-3.95852
0
LINE
8
BLACK
6
CONTINUOUS
10
5.68145
20
-3.95852
11
5.68684
21
-3.9455
0
LINE
8
BLACK
6
CONTINUOUS
10
5.68684
20
-3.9455
11
5.69365
21
-3.93318
0
LINE
8
BLACK
6
CONTINUOUS
10
5.69365
20
-3.93318
11
5.7018
21
-3.92169
0
LINE
8
BLACK
6
CONTINUOUS
10
5.7018
20
-3.92169
11
5.71119
21
-3.91119
0
LINE
8
BLACK
6
CONTINUOUS
10
5.71119
20
-3.91119
11
5.72169
21
-3.9018
0
LINE
8
BLACK
6
CONTINUOUS
10
5.72169
20
-3.9018
11
5.73318
21
-3.89365
0
LINE
8
BLACK
6
CONTINUOUS
10
5.73318
20
-3.89365
11
5.7455
21
-3.88684
0
LINE
8
BLACK
6
CONTINUOUS
10
5.7455
20
-3.88684
11
5.75852
21
-3.88145
0
LINE
8
BLACK
6
CONTINUOUS
10
5.75852
20
-3.88145
11
5.77205
21
-3.87755
0
LINE
8
BLACK
6
CONTINUOUS
10
5.77205
20
-3.87755
11
5.78594
21
-3.87519
0
LINE
8
BLACK
6
CONTINUOUS
10
5.78594
20
-3.87519
11
5.8
21
-3.8744
0
LINE
8
BLACK
6
CONTINUOUS
10
5.8
20
-3.8744
11
5.81406
21
-3.87519
0
LINE
8
BLACK
6
CONTINUOUS
10
5.68996
20
-4.01286
11
5.6922
21
-4.02555
0
LINE
8
BLACK
6
CONTINUOUS
10
5.6922
20
-4.02555
11
5.69589
21
-4.03789
0
LINE
8
BLACK
6
CONTINUOUS
10
5.69589
20
-4.03789
11
5.701
21
-4.04972
0
LINE
8
BLACK
6
CONTINUOUS
10
5.701
20
-4.04972
11
5.70744
21
-4.06088
0
LINE
8
BLACK
6
CONTINUOUS
10
5.70744
20
-4.06088
11
5.71513
21
-4.07121
0
LINE
8
BLACK
6
CONTINUOUS
10
5.71513
20
-4.07121
11
5.72397
21
-4.08058
0
LINE
8
BLACK
6
CONTINUOUS
10
5.72397
20
-4.08058
11
5.73384
21
-4.08887
0
LINE
8
BLACK
6
CONTINUOUS
10
5.73384
20
-4.08887
11
5.74461
21
-4.09594
0
LINE
8
BLACK
6
CONTINUOUS
10
5.74461
20
-4.09594
11
5.75612
21
-4.10173
0
LINE
8
BLACK
6
CONTINUOUS
10
5.75612
20
-4.10173
11
5.76823
21
-4.10613
0
LINE
8
BLACK
6
CONTINUOUS
10
5.76823
20
-4.10613
11
5.78076
21
-4.1091
0
LINE
8
BLACK
6
CONTINUOUS
10
5.78076
20
-4.1091
11
5.79356
21
-4.1106
0
LINE
8
BLACK
6
CONTINUOUS
10
5.79356
20
-4.1106
11
5.80644
21
-4.1106
0
LINE
8
BLACK
6
CONTINUOUS
10
5.80644
20
-4.1106
11
5.81924
21
-4.1091
0
LINE
8
BLACK
6
CONTINUOUS
10
5.81924
20
-4.1091
11
5.83177
21
-4.10613
0
LINE
8
BLACK
6
CONTINUOUS
10
5.83177
20
-4.10613
11
5.84388
21
-4.10173
0
LINE
8
BLACK
6
CONTINUOUS
10
5.84388
20
-4.10173
11
5.85539
21
-4.09594
0
LINE
8
BLACK
6
CONTINUOUS
10
5.85539
20
-4.09594
11
5.86616
21
-4.08887
0
LINE
8
BLACK
6
CONTINUOUS
10
5.86616
20
-4.08887
11
5.87603
21
-4.08058
0
LINE
8
BLACK
6
CONTINUOUS
10
5.87603
20
-4.08058
11
5.88487
21
-4.07121
0
LINE
8
BLACK
6
CONTINUOUS
10
5.88487
20
-4.07121
11
5.89256
21
-4.06088
0
LINE
8
BLACK
6
CONTINUOUS
10
5.89256
20
-4.06088
11
5.899
21
-4.04972
0
LINE
8
BLACK
6
CONTINUOUS
10
5.899
20
-4.04972
11
5.90411
21
-4.03789
0
LINE
8
BLACK
6
CONTINUOUS
10
5.90411
20
-4.03789
11
5.9078
21
-4.02555
0
LINE
8
BLACK
6
CONTINUOUS
10
5.9078
20
-4.02555
11
5.91004
21
-4.01286
0
LINE
8
BLACK
6
CONTINUOUS
10
5.91004
20
-4.01286
11
5.91079
21
-4
0
LINE
8
BLACK
6
CONTINUOUS
10
5.91079
20
-4
11
5.91004
21
-3.98714
0
LINE
8
BLACK
6
CONTINUOUS
10
5.91004
20
-3.98714
11
5.9078
21
-3.97445
0
LINE
8
BLACK
6
CONTINUOUS
10
5.9078
20
-3.97445
11
5.90411
21
-3.96211
0
LINE
8
BLACK
6
CONTINUOUS
10
5.90411
20
-3.96211
11
5.899
21
-3.95028
0
LINE
8
BLACK
6
CONTINUOUS
10
5.899
20
-3.95028
11
5.89256
21
-3.93912
0
LINE
8
BLACK
6
CONTINUOUS
10
5.89256
20
-3.93912
11
5.88487
21
-3.92879
0
LINE
8
BLACK
6
CONTINUOUS
10
5.88487
20
-3.92879
11
5.87603
21
-3.91942
0
LINE
8
BLACK
6
CONTINUOUS
10
5.87603
20
-3.91942
11
5.86616
21
-3.91113
0
LINE
8
BLACK
6
CONTINUOUS
10
5.86616
20
-3.91113
11
5.85539
21
-3.90406
0
LINE
8
BLACK
6
CONTINUOUS
10
5.85539
20
-3.90406
11
5.84388
21
-3.89827
0
LINE
8
BLACK
6
CONTINUOUS
10
5.84388
20
-3.89827
11
5.83177
21
-3.89387
0
LINE
8
BLACK
6
CONTINUOUS
10
5.83177
20
-3.89387
11
5.81924
21
-3.8909
0
LINE
8
BLACK
6
CONTINUOUS
10
5.81924
20
-3.8909
11
5.80644
21
-3.8894
0
LINE
8
BLACK
6
CONTINUOUS
10
5.80644
20
-3.8894
11
5.79356
21
-3.8894
0
LINE
8
BLACK
6
CONTINUOUS
10
5.79356
20
-3.8894
11
5.78076
21
-3.8909
0
LINE
8
BLACK
6
CONTINUOUS
10
5.78076
20
-3.8909
11
5.76823
21
-3.89387
0
LINE
8
BLACK
6
CONTINUOUS
10
5.76823
20
-3.89387
11
5.75612
21
-3.89827
0
LINE
8
BLACK
6
CONTINUOUS
10
5.75612
20
-3.89827
11
5.74461
21
-3.90406
0
LINE
8
BLACK
6
CONTINUOUS
10
5.74461
20
-3.90406
11
5.73384
21
-3.91113
0
LINE
8
BLACK
6
CONTINUOUS
10
5.73384
20
-3.91113
11
5.72397
21
-3.91942
0
LINE
8
BLACK
6
CONTINUOUS
10
5.72397
20
-3.91942
11
5.71513
21
-3.92879
0
LINE
8
BLACK
6
CONTINUOUS
10
5.71513
20
-3.92879
11
5.70744
21
-3.93912
0
LINE
8
BLACK
6
CONTINUOUS
10
5.70744
20
-3.93912
11
5.701
21
-3.95028
0
LINE
8
BLACK
6
CONTINUOUS
10
5.701
20
-3.95028
11
5.69589
21
-3.96211
0
LINE
8
BLACK
6
CONTINUOUS
10
5.69589
20
-3.96211
11
5.6922
21
-3.97445
0
LINE
8
BLACK
6
CONTINUOUS
10
5.6922
20
-3.97445
11
5.68996
21
-3.98714
0
LINE
8
BLACK
6
CONTINUOUS
10
5.68996
20
-3.98714
11
5.68921
21
-4
0
LINE
8
BLACK
6
CONTINUOUS
10
5.68921
20
-4
11
5.68996
21
-4.01286
  0
ENDSEC
  0
EOF
