  0
SECTION
  2
HEADER
  9
$ANGBASE
  50
0.0
  9
$ANGDIR
  70
1
  9
$MEASUREMENT
  70
0
  0
ENDSEC
  0
SECTION
  2
TABLES
  0
TABLE
  2
LTYPE
  70
4
  0
LTYPE
  5
40F
  2
CONTINUOUS
  70
0
  3
Solid line
  72
65
  73
0
  40
0.0
  0
LTYPE
  5
410
  2
DASHDOT
 70
0
  3
Dash Dot ____ _ ____ _
 72
65
 73
4
 40
2.0
 49
1.25
 49
-0.25
 49
0.25
 49
-0.25
  0
LTYPE
  5
411
  2
DASHED
 70
0
  3
Dashed __ __ __ __ __
 72
65
 73
2
 40
0.75
 49
0.5
 49
-0.25
  0
LTYPE
  5
43B
  2
DOTTED
 70
0
  3
Dotted .  .  .  .
 72
65
 73
2
 40
0.2
 49
0.0
 49
-0.2
  0
ENDTAB
  0
TABLE
  2
STYLE
  70
4
  0
STYLE
  2
KICAD
  70
0
  40
0
  41
1
  42
1
  50
0
  71
0
  3
isocp.shx
  0
STYLE
  2
KICADB
  70
0
  40
0
  41
1
  42
1
  50
0
  71
0
  3
isocp.shx
  0
STYLE
  2
KICADI
  70
0
  40
0
  41
1
  42
1
  50
15
  71
0
  3
isocp.shx
  0
STYLE
  2
KICADBI
  70
0
  40
0
  41
1
  42
1
  50
15
  71
0
  3
isocp.shx
  0
ENDTAB
  0
TABLE
  2
LAYER
  70
1
  0
LAYER
  2
BLACK
  70
0
  62
7
  6
CONTINUOUS
  0
ENDTAB
  0
ENDSEC
  0
SECTION
  2
ENTITIES
0
LINE
8
BLACK
6
CONTINUOUS
10
5.18875
20
-4.53991
11
5.18846
21
-4.53921
0
LINE
8
BLACK
6
CONTINUOUS
10
5.18846
20
-4.53921
11
5.18846
21
-4.44079
0
LINE
8
BLACK
6
CONTINUOUS
10
5.18846
20
-4.44079
11
5.18875
21
-4.44009
0
LINE
8
BLACK
6
CONTINUOUS
10
5.18875
20
-4.44009
11
5.18945
21
-4.4398
0
LINE
8
BLACK
6
CONTINUOUS
10
5.18945
20
-4.4398
11
5.37055
21
-4.4398
0
LINE
8
BLACK
6
CONTINUOUS
10
5.37055
20
-4.4398
11
5.37125
21
-4.44009
0
LINE
8
BLACK
6
CONTINUOUS
10
5.37125
20
-4.44009
11
5.37154
21
-4.44079
0
LINE
8
BLACK
6
CONTINUOUS
10
5.37154
20
-4.44079
11
5.37154
21
-4.53921
0
LINE
8
BLACK
6
CONTINUOUS
10
5.37154
20
-4.53921
11
5.37125
21
-4.53991
0
LINE
8
BLACK
6
CONTINUOUS
10
5.37125
20
-4.53991
11
5.37055
21
-4.5402
0
LINE
8
BLACK
6
CONTINUOUS
10
5.37055
20
-4.5402
11
5.18945
21
-4.5402
0
LINE
8
BLACK
6
CONTINUOUS
10
5.18945
20
-4.5402
11
5.18875
21
-4.53991
0
LINE
8
BLACK
6
CONTINUOUS
10
5.19043
20
-4.44177
11
5.19043
21
-4.53823
0
LINE
8
BLACK
6
CONTINUOUS
10
5.19043
20
-4.53823
11
5.36957
21
-4.53823
0
LINE
8
BLACK
6
CONTINUOUS
10
5.36957
20
-4.53823
11
5.36957
21
-4.44177
0
LINE
8
BLACK
6
CONTINUOUS
10
5.36957
20
-4.44177
11
5.19043
21
-4.44177
0
LINE
8
BLACK
6
CONTINUOUS
10
5.43875
20
-4.53991
11
5.43846
21
-4.53921
0
LINE
8
BLACK
6
CONTINUOUS
10
5.43846
20
-4.53921
11
5.43846
21
-4.44079
0
LINE
8
BLACK
6
CONTINUOUS
10
5.43846
20
-4.44079
11
5.43875
21
-4.44009
0
LINE
8
BLACK
6
CONTINUOUS
10
5.43875
20
-4.44009
11
5.43945
21
-4.4398
0
LINE
8
BLACK
6
CONTINUOUS
10
5.43945
20
-4.4398
11
5.62055
21
-4.4398
0
LINE
8
BLACK
6
CONTINUOUS
10
5.62055
20
-4.4398
11
5.62125
21
-4.44009
0
LINE
8
BLACK
6
CONTINUOUS
10
5.62125
20
-4.44009
11
5.62154
21
-4.44079
0
LINE
8
BLACK
6
CONTINUOUS
10
5.62154
20
-4.44079
11
5.62154
21
-4.53921
0
LINE
8
BLACK
6
CONTINUOUS
10
5.62154
20
-4.53921
11
5.62125
21
-4.53991
0
LINE
8
BLACK
6
CONTINUOUS
10
5.62125
20
-4.53991
11
5.62055
21
-4.5402
0
LINE
8
BLACK
6
CONTINUOUS
10
5.62055
20
-4.5402
11
5.43945
21
-4.5402
0
LINE
8
BLACK
6
CONTINUOUS
10
5.43945
20
-4.5402
11
5.43875
21
-4.53991
0
LINE
8
BLACK
6
CONTINUOUS
10
5.44043
20
-4.44177
11
5.44043
21
-4.53823
0
LINE
8
BLACK
6
CONTINUOUS
10
5.44043
20
-4.53823
11
5.61957
21
-4.53823
0
LINE
8
BLACK
6
CONTINUOUS
10
5.61957
20
-4.53823
11
5.61957
21
-4.44177
0
LINE
8
BLACK
6
CONTINUOUS
10
5.61957
20
-4.44177
11
5.44043
21
-4.44177
  0
ENDSEC
  0
EOF
