  0
SECTION
  2
HEADER
  9
$ANGBASE
  50
0.0
  9
$ANGDIR
  70
1
  9
$MEASUREMENT
  70
0
  0
ENDSEC
  0
SECTION
  2
TABLES
  0
TABLE
  2
LTYPE
  70
4
  0
LTYPE
  5
40F
  2
CONTINUOUS
  70
0
  3
Solid line
  72
65
  73
0
  40
0.0
  0
LTYPE
  5
410
  2
DASHDOT
 70
0
  3
Dash Dot ____ _ ____ _
 72
65
 73
4
 40
2.0
 49
1.25
 49
-0.25
 49
0.25
 49
-0.25
  0
LTYPE
  5
411
  2
DASHED
 70
0
  3
Dashed __ __ __ __ __
 72
65
 73
2
 40
0.75
 49
0.5
 49
-0.25
  0
LTYPE
  5
43B
  2
DOTTED
 70
0
  3
Dotted .  .  .  .
 72
65
 73
2
 40
0.2
 49
0.0
 49
-0.2
  0
ENDTAB
  0
TABLE
  2
STYLE
  70
4
  0
STYLE
  2
KICAD
  70
0
  40
0
  41
1
  42
1
  50
0
  71
0
  3
isocp.shx
  0
STYLE
  2
KICADB
  70
0
  40
0
  41
1
  42
1
  50
0
  71
0
  3
isocp.shx
  0
STYLE
  2
KICADI
  70
0
  40
0
  41
1
  42
1
  50
15
  71
0
  3
isocp.shx
  0
STYLE
  2
KICADBI
  70
0
  40
0
  41
1
  42
1
  50
15
  71
0
  3
isocp.shx
  0
ENDTAB
  0
TABLE
  2
LAYER
  70
1
  0
LAYER
  2
BLACK
  70
0
  62
7
  6
CONTINUOUS
  0
ENDTAB
  0
ENDSEC
  0
SECTION
  2
ENTITIES
0
LINE
8
BLACK
6
CONTINUOUS
10
5.18896
20
-4.52961
11
5.21596
21
-4.57011
0
LINE
8
BLACK
6
CONTINUOUS
10
5.21596
20
-4.57011
11
5.21637
21
-4.57105
0
LINE
8
BLACK
6
CONTINUOUS
10
5.21637
20
-4.57105
11
5.21615
21
-4.57306
0
LINE
8
BLACK
6
CONTINUOUS
10
5.21615
20
-4.57306
11
5.21468
21
-4.57445
0
LINE
8
BLACK
6
CONTINUOUS
10
5.21468
20
-4.57445
11
5.21267
21
-4.57458
0
LINE
8
BLACK
6
CONTINUOUS
10
5.21267
20
-4.57458
11
5.21104
21
-4.57339
0
LINE
8
BLACK
6
CONTINUOUS
10
5.21104
20
-4.57339
11
5.18404
21
-4.53289
0
LINE
8
BLACK
6
CONTINUOUS
10
5.18404
20
-4.53289
11
5.18363
21
-4.53195
0
LINE
8
BLACK
6
CONTINUOUS
10
5.18363
20
-4.53195
11
5.18385
21
-4.52994
0
LINE
8
BLACK
6
CONTINUOUS
10
5.18385
20
-4.52994
11
5.18532
21
-4.52855
0
LINE
8
BLACK
6
CONTINUOUS
10
5.18532
20
-4.52855
11
5.18733
21
-4.52842
0
LINE
8
BLACK
6
CONTINUOUS
10
5.18733
20
-4.52842
11
5.18896
21
-4.52961
0
LINE
8
BLACK
6
CONTINUOUS
10
5.17251
20
-4.52998
11
5.17265
21
-4.53009
0
LINE
8
BLACK
6
CONTINUOUS
10
5.17265
20
-4.53009
11
5.17282
21
-4.53011
0
LINE
8
BLACK
6
CONTINUOUS
10
5.17282
20
-4.53011
11
5.17582
21
-4.53161
0
LINE
8
BLACK
6
CONTINUOUS
10
5.17582
20
-4.53161
11
5.17653
21
-4.53214
0
LINE
8
BLACK
6
CONTINUOUS
10
5.17653
20
-4.53214
11
5.17659
21
-4.53216
0
LINE
8
BLACK
6
CONTINUOUS
10
5.17659
20
-4.53216
11
5.17809
21
-4.53366
0
LINE
8
BLACK
6
CONTINUOUS
10
5.17809
20
-4.53366
11
5.1786
21
-4.53439
0
LINE
8
BLACK
6
CONTINUOUS
10
5.1786
20
-4.53439
11
5.17864
21
-4.53443
0
LINE
8
BLACK
6
CONTINUOUS
10
5.17864
20
-4.53443
11
5.18014
21
-4.53743
0
LINE
8
BLACK
6
CONTINUOUS
10
5.18014
20
-4.53743
11
5.18044
21
-4.53841
0
LINE
8
BLACK
6
CONTINUOUS
10
5.18044
20
-4.53841
11
5.1804
21
-4.53859
0
LINE
8
BLACK
6
CONTINUOUS
10
5.1804
20
-4.53859
11
5.18046
21
-4.53875
0
LINE
8
BLACK
6
CONTINUOUS
10
5.18046
20
-4.53875
11
5.18046
21
-4.54175
0
LINE
8
BLACK
6
CONTINUOUS
10
5.18046
20
-4.54175
11
5.18028
21
-4.54276
0
LINE
8
BLACK
6
CONTINUOUS
10
5.18028
20
-4.54276
11
5.18016
21
-4.5429
0
LINE
8
BLACK
6
CONTINUOUS
10
5.18016
20
-4.5429
11
5.18014
21
-4.54307
0
LINE
8
BLACK
6
CONTINUOUS
10
5.18014
20
-4.54307
11
5.17864
21
-4.54607
0
LINE
8
BLACK
6
CONTINUOUS
10
5.17864
20
-4.54607
11
5.17812
21
-4.54678
0
LINE
8
BLACK
6
CONTINUOUS
10
5.17812
20
-4.54678
11
5.17809
21
-4.54684
0
LINE
8
BLACK
6
CONTINUOUS
10
5.17809
20
-4.54684
11
5.17659
21
-4.54834
0
LINE
8
BLACK
6
CONTINUOUS
10
5.17659
20
-4.54834
11
5.17587
21
-4.54884
0
LINE
8
BLACK
6
CONTINUOUS
10
5.17587
20
-4.54884
11
5.17582
21
-4.54889
0
LINE
8
BLACK
6
CONTINUOUS
10
5.17582
20
-4.54889
11
5.17282
21
-4.55039
0
LINE
8
BLACK
6
CONTINUOUS
10
5.17282
20
-4.55039
11
5.17234
21
-4.55054
0
LINE
8
BLACK
6
CONTINUOUS
10
5.17234
20
-4.55054
11
5.17222
21
-4.55061
0
LINE
8
BLACK
6
CONTINUOUS
10
5.17222
20
-4.55061
11
5.16653
21
-4.55204
0
LINE
8
BLACK
6
CONTINUOUS
10
5.16653
20
-4.55204
11
5.16425
21
-4.55318
0
LINE
8
BLACK
6
CONTINUOUS
10
5.16425
20
-4.55318
11
5.16343
21
-4.554
0
LINE
8
BLACK
6
CONTINUOUS
10
5.16343
20
-4.554
11
5.16246
21
-4.55595
0
LINE
8
BLACK
6
CONTINUOUS
10
5.16246
20
-4.55595
11
5.16246
21
-4.55755
0
LINE
8
BLACK
6
CONTINUOUS
10
5.16246
20
-4.55755
11
5.16343
21
-4.5595
0
LINE
8
BLACK
6
CONTINUOUS
10
5.16343
20
-4.5595
11
5.16425
21
-4.56032
0
LINE
8
BLACK
6
CONTINUOUS
10
5.16425
20
-4.56032
11
5.1662
21
-4.5613
0
LINE
8
BLACK
6
CONTINUOUS
10
5.1662
20
-4.5613
11
5.17252
21
-4.5613
0
LINE
8
BLACK
6
CONTINUOUS
10
5.17252
20
-4.5613
11
5.17657
21
-4.55995
0
LINE
8
BLACK
6
CONTINUOUS
10
5.17657
20
-4.55995
11
5.17758
21
-4.5598
0
LINE
8
BLACK
6
CONTINUOUS
10
5.17758
20
-4.5598
11
5.17946
21
-4.56054
0
LINE
8
BLACK
6
CONTINUOUS
10
5.17946
20
-4.56054
11
5.18042
21
-4.56232
0
LINE
8
BLACK
6
CONTINUOUS
10
5.18042
20
-4.56232
11
5.18002
21
-4.56429
0
LINE
8
BLACK
6
CONTINUOUS
10
5.18002
20
-4.56429
11
5.17844
21
-4.56555
0
LINE
8
BLACK
6
CONTINUOUS
10
5.17844
20
-4.56555
11
5.17394
21
-4.56705
0
LINE
8
BLACK
6
CONTINUOUS
10
5.17394
20
-4.56705
11
5.17306
21
-4.56718
0
LINE
8
BLACK
6
CONTINUOUS
10
5.17306
20
-4.56718
11
5.173
21
-4.5672
0
LINE
8
BLACK
6
CONTINUOUS
10
5.173
20
-4.5672
11
5.1655
21
-4.5672
0
LINE
8
BLACK
6
CONTINUOUS
10
5.1655
20
-4.5672
11
5.16449
21
-4.56702
0
LINE
8
BLACK
6
CONTINUOUS
10
5.16449
20
-4.56702
11
5.16436
21
-4.56691
0
LINE
8
BLACK
6
CONTINUOUS
10
5.16436
20
-4.56691
11
5.16418
21
-4.56689
0
LINE
8
BLACK
6
CONTINUOUS
10
5.16418
20
-4.56689
11
5.16118
21
-4.56539
0
LINE
8
BLACK
6
CONTINUOUS
10
5.16118
20
-4.56539
11
5.16048
21
-4.56486
0
LINE
8
BLACK
6
CONTINUOUS
10
5.16048
20
-4.56486
11
5.16042
21
-4.56484
0
LINE
8
BLACK
6
CONTINUOUS
10
5.16042
20
-4.56484
11
5.15892
21
-4.56334
0
LINE
8
BLACK
6
CONTINUOUS
10
5.15892
20
-4.56334
11
5.15841
21
-4.56261
0
LINE
8
BLACK
6
CONTINUOUS
10
5.15841
20
-4.56261
11
5.15836
21
-4.56257
0
LINE
8
BLACK
6
CONTINUOUS
10
5.15836
20
-4.56257
11
5.15686
21
-4.55957
0
LINE
8
BLACK
6
CONTINUOUS
10
5.15686
20
-4.55957
11
5.15657
21
-4.55859
0
LINE
8
BLACK
6
CONTINUOUS
10
5.15657
20
-4.55859
11
5.15661
21
-4.55841
0
LINE
8
BLACK
6
CONTINUOUS
10
5.15661
20
-4.55841
11
5.15655
21
-4.55825
0
LINE
8
BLACK
6
CONTINUOUS
10
5.15655
20
-4.55825
11
5.15655
21
-4.55525
0
LINE
8
BLACK
6
CONTINUOUS
10
5.15655
20
-4.55525
11
5.15673
21
-4.55424
0
LINE
8
BLACK
6
CONTINUOUS
10
5.15673
20
-4.55424
11
5.15684
21
-4.5541
0
LINE
8
BLACK
6
CONTINUOUS
10
5.15684
20
-4.5541
11
5.15686
21
-4.55393
0
LINE
8
BLACK
6
CONTINUOUS
10
5.15686
20
-4.55393
11
5.15836
21
-4.55093
0
LINE
8
BLACK
6
CONTINUOUS
10
5.15836
20
-4.55093
11
5.15889
21
-4.55022
0
LINE
8
BLACK
6
CONTINUOUS
10
5.15889
20
-4.55022
11
5.15892
21
-4.55016
0
LINE
8
BLACK
6
CONTINUOUS
10
5.15892
20
-4.55016
11
5.16042
21
-4.54866
0
LINE
8
BLACK
6
CONTINUOUS
10
5.16042
20
-4.54866
11
5.16114
21
-4.54816
0
LINE
8
BLACK
6
CONTINUOUS
10
5.16114
20
-4.54816
11
5.16118
21
-4.54811
0
LINE
8
BLACK
6
CONTINUOUS
10
5.16118
20
-4.54811
11
5.16418
21
-4.54661
0
LINE
8
BLACK
6
CONTINUOUS
10
5.16418
20
-4.54661
11
5.16467
21
-4.54646
0
LINE
8
BLACK
6
CONTINUOUS
10
5.16467
20
-4.54646
11
5.16479
21
-4.54639
0
LINE
8
BLACK
6
CONTINUOUS
10
5.16479
20
-4.54639
11
5.17047
21
-4.54496
0
LINE
8
BLACK
6
CONTINUOUS
10
5.17047
20
-4.54496
11
5.17275
21
-4.54382
0
LINE
8
BLACK
6
CONTINUOUS
10
5.17275
20
-4.54382
11
5.17358
21
-4.543
0
LINE
8
BLACK
6
CONTINUOUS
10
5.17358
20
-4.543
11
5.17455
21
-4.54105
0
LINE
8
BLACK
6
CONTINUOUS
10
5.17455
20
-4.54105
11
5.17455
21
-4.53945
0
LINE
8
BLACK
6
CONTINUOUS
10
5.17455
20
-4.53945
11
5.17358
21
-4.5375
0
LINE
8
BLACK
6
CONTINUOUS
10
5.17358
20
-4.5375
11
5.17275
21
-4.53668
0
LINE
8
BLACK
6
CONTINUOUS
10
5.17275
20
-4.53668
11
5.17081
21
-4.5357
0
LINE
8
BLACK
6
CONTINUOUS
10
5.17081
20
-4.5357
11
5.16448
21
-4.5357
0
LINE
8
BLACK
6
CONTINUOUS
10
5.16448
20
-4.5357
11
5.16044
21
-4.53705
0
LINE
8
BLACK
6
CONTINUOUS
10
5.16044
20
-4.53705
11
5.15942
21
-4.5372
0
LINE
8
BLACK
6
CONTINUOUS
10
5.15942
20
-4.5372
11
5.15755
21
-4.53646
0
LINE
8
BLACK
6
CONTINUOUS
10
5.15755
20
-4.53646
11
5.15658
21
-4.53469
0
LINE
8
BLACK
6
CONTINUOUS
10
5.15658
20
-4.53469
11
5.15699
21
-4.53271
0
LINE
8
BLACK
6
CONTINUOUS
10
5.15699
20
-4.53271
11
5.15857
21
-4.53145
0
LINE
8
BLACK
6
CONTINUOUS
10
5.15857
20
-4.53145
11
5.16307
21
-4.52995
0
LINE
8
BLACK
6
CONTINUOUS
10
5.16307
20
-4.52995
11
5.16394
21
-4.52982
0
LINE
8
BLACK
6
CONTINUOUS
10
5.16394
20
-4.52982
11
5.164
21
-4.5298
0
LINE
8
BLACK
6
CONTINUOUS
10
5.164
20
-4.5298
11
5.1715
21
-4.5298
0
LINE
8
BLACK
6
CONTINUOUS
10
5.1715
20
-4.5298
11
5.17251
21
-4.52998
0
LINE
8
BLACK
6
CONTINUOUS
10
5.2685
20
-4.52998
11
5.26864
21
-4.53009
0
LINE
8
BLACK
6
CONTINUOUS
10
5.26864
20
-4.53009
11
5.26881
21
-4.53011
0
LINE
8
BLACK
6
CONTINUOUS
10
5.26881
20
-4.53011
11
5.27181
21
-4.53161
0
LINE
8
BLACK
6
CONTINUOUS
10
5.27181
20
-4.53161
11
5.27252
21
-4.53214
0
LINE
8
BLACK
6
CONTINUOUS
10
5.27252
20
-4.53214
11
5.27258
21
-4.53216
0
LINE
8
BLACK
6
CONTINUOUS
10
5.27258
20
-4.53216
11
5.27408
21
-4.53366
0
LINE
8
BLACK
6
CONTINUOUS
10
5.27408
20
-4.53366
11
5.27467
21
-4.5345
0
LINE
8
BLACK
6
CONTINUOUS
10
5.27467
20
-4.5345
11
5.27484
21
-4.53652
0
LINE
8
BLACK
6
CONTINUOUS
10
5.27484
20
-4.53652
11
5.27368
21
-4.53817
0
LINE
8
BLACK
6
CONTINUOUS
10
5.27368
20
-4.53817
11
5.27173
21
-4.53869
0
LINE
8
BLACK
6
CONTINUOUS
10
5.27173
20
-4.53869
11
5.2699
21
-4.53784
0
LINE
8
BLACK
6
CONTINUOUS
10
5.2699
20
-4.53784
11
5.26874
21
-4.53668
0
LINE
8
BLACK
6
CONTINUOUS
10
5.26874
20
-4.53668
11
5.26679
21
-4.5357
0
LINE
8
BLACK
6
CONTINUOUS
10
5.26679
20
-4.5357
11
5.26069
21
-4.5357
0
LINE
8
BLACK
6
CONTINUOUS
10
5.26069
20
-4.5357
11
5.25874
21
-4.53668
0
LINE
8
BLACK
6
CONTINUOUS
10
5.25874
20
-4.53668
11
5.25792
21
-4.5375
0
LINE
8
BLACK
6
CONTINUOUS
10
5.25792
20
-4.5375
11
5.25695
21
-4.53945
0
LINE
8
BLACK
6
CONTINUOUS
10
5.25695
20
-4.53945
11
5.25695
21
-4.54127
0
LINE
8
BLACK
6
CONTINUOUS
10
5.25695
20
-4.54127
11
5.25807
21
-4.54466
0
LINE
8
BLACK
6
CONTINUOUS
10
5.25807
20
-4.54466
11
5.27558
21
-4.56216
0
LINE
8
BLACK
6
CONTINUOUS
10
5.27558
20
-4.56216
11
5.27595
21
-4.56269
0
LINE
8
BLACK
6
CONTINUOUS
10
5.27595
20
-4.56269
11
5.27605
21
-4.56277
0
LINE
8
BLACK
6
CONTINUOUS
10
5.27605
20
-4.56277
11
5.27606
21
-4.56285
0
LINE
8
BLACK
6
CONTINUOUS
10
5.27606
20
-4.56285
11
5.27617
21
-4.563
0
LINE
8
BLACK
6
CONTINUOUS
10
5.27617
20
-4.563
11
5.27624
21
-4.56389
0
LINE
8
BLACK
6
CONTINUOUS
10
5.27624
20
-4.56389
11
5.2764
21
-4.56476
0
LINE
8
BLACK
6
CONTINUOUS
10
5.2764
20
-4.56476
11
5.27633
21
-4.56488
0
LINE
8
BLACK
6
CONTINUOUS
10
5.27633
20
-4.56488
11
5.27634
21
-4.56501
0
LINE
8
BLACK
6
CONTINUOUS
10
5.27634
20
-4.56501
11
5.27583
21
-4.56574
0
LINE
8
BLACK
6
CONTINUOUS
10
5.27583
20
-4.56574
11
5.27539
21
-4.56651
0
LINE
8
BLACK
6
CONTINUOUS
10
5.27539
20
-4.56651
11
5.27526
21
-4.56656
0
LINE
8
BLACK
6
CONTINUOUS
10
5.27526
20
-4.56656
11
5.27518
21
-4.56667
0
LINE
8
BLACK
6
CONTINUOUS
10
5.27518
20
-4.56667
11
5.27433
21
-4.5669
0
LINE
8
BLACK
6
CONTINUOUS
10
5.27433
20
-4.5669
11
5.27349
21
-4.5672
0
LINE
8
BLACK
6
CONTINUOUS
10
5.27349
20
-4.5672
11
5.25399
21
-4.5672
0
LINE
8
BLACK
6
CONTINUOUS
10
5.25399
20
-4.5672
11
5.25298
21
-4.56702
0
LINE
8
BLACK
6
CONTINUOUS
10
5.25298
20
-4.56702
11
5.25144
21
-4.56572
0
LINE
8
BLACK
6
CONTINUOUS
10
5.25144
20
-4.56572
11
5.25109
21
-4.56374
0
LINE
8
BLACK
6
CONTINUOUS
10
5.25109
20
-4.56374
11
5.2521
21
-4.56199
0
LINE
8
BLACK
6
CONTINUOUS
10
5.2521
20
-4.56199
11
5.25399
21
-4.5613
0
LINE
8
BLACK
6
CONTINUOUS
10
5.25399
20
-4.5613
11
5.26636
21
-4.5613
0
LINE
8
BLACK
6
CONTINUOUS
10
5.26636
20
-4.5613
11
5.25341
21
-4.54834
0
LINE
8
BLACK
6
CONTINUOUS
10
5.25341
20
-4.54834
11
5.25282
21
-4.5475
0
LINE
8
BLACK
6
CONTINUOUS
10
5.25282
20
-4.5475
11
5.2528
21
-4.54732
0
LINE
8
BLACK
6
CONTINUOUS
10
5.2528
20
-4.54732
11
5.25269
21
-4.54718
0
LINE
8
BLACK
6
CONTINUOUS
10
5.25269
20
-4.54718
11
5.25119
21
-4.54268
0
LINE
8
BLACK
6
CONTINUOUS
10
5.25119
20
-4.54268
11
5.25106
21
-4.54181
0
LINE
8
BLACK
6
CONTINUOUS
10
5.25106
20
-4.54181
11
5.25104
21
-4.54175
0
LINE
8
BLACK
6
CONTINUOUS
10
5.25104
20
-4.54175
11
5.25104
21
-4.53875
0
LINE
8
BLACK
6
CONTINUOUS
10
5.25104
20
-4.53875
11
5.25122
21
-4.53774
0
LINE
8
BLACK
6
CONTINUOUS
10
5.25122
20
-4.53774
11
5.25133
21
-4.53761
0
LINE
8
BLACK
6
CONTINUOUS
10
5.25133
20
-4.53761
11
5.25135
21
-4.53743
0
LINE
8
BLACK
6
CONTINUOUS
10
5.25135
20
-4.53743
11
5.25285
21
-4.53443
0
LINE
8
BLACK
6
CONTINUOUS
10
5.25285
20
-4.53443
11
5.25338
21
-4.53372
0
LINE
8
BLACK
6
CONTINUOUS
10
5.25338
20
-4.53372
11
5.25341
21
-4.53366
0
LINE
8
BLACK
6
CONTINUOUS
10
5.25341
20
-4.53366
11
5.2549
21
-4.53216
0
LINE
8
BLACK
6
CONTINUOUS
10
5.2549
20
-4.53216
11
5.25563
21
-4.53166
0
LINE
8
BLACK
6
CONTINUOUS
10
5.25563
20
-4.53166
11
5.25567
21
-4.53161
0
LINE
8
BLACK
6
CONTINUOUS
10
5.25567
20
-4.53161
11
5.25867
21
-4.53011
0
LINE
8
BLACK
6
CONTINUOUS
10
5.25867
20
-4.53011
11
5.25965
21
-4.52982
0
LINE
8
BLACK
6
CONTINUOUS
10
5.25965
20
-4.52982
11
5.25983
21
-4.52986
0
LINE
8
BLACK
6
CONTINUOUS
10
5.25983
20
-4.52986
11
5.25999
21
-4.5298
0
LINE
8
BLACK
6
CONTINUOUS
10
5.25999
20
-4.5298
11
5.26749
21
-4.5298
0
LINE
8
BLACK
6
CONTINUOUS
10
5.26749
20
-4.5298
11
5.2685
21
-4.52998
0
LINE
8
BLACK
6
CONTINUOUS
10
5.23237
20
-4.52995
11
5.23243
21
-4.52995
0
LINE
8
BLACK
6
CONTINUOUS
10
5.23243
20
-4.52995
11
5.23693
21
-4.53145
0
LINE
8
BLACK
6
CONTINUOUS
10
5.23693
20
-4.53145
11
5.23783
21
-4.53194
0
LINE
8
BLACK
6
CONTINUOUS
10
5.23783
20
-4.53194
11
5.23792
21
-4.53209
0
LINE
8
BLACK
6
CONTINUOUS
10
5.23792
20
-4.53209
11
5.23808
21
-4.53216
0
LINE
8
BLACK
6
CONTINUOUS
10
5.23808
20
-4.53216
11
5.24108
21
-4.53516
0
LINE
8
BLACK
6
CONTINUOUS
10
5.24108
20
-4.53516
11
5.24159
21
-4.53589
0
LINE
8
BLACK
6
CONTINUOUS
10
5.24159
20
-4.53589
11
5.24164
21
-4.53593
0
LINE
8
BLACK
6
CONTINUOUS
10
5.24164
20
-4.53593
11
5.24314
21
-4.53893
0
LINE
8
BLACK
6
CONTINUOUS
10
5.24314
20
-4.53893
11
5.24328
21
-4.53942
0
LINE
8
BLACK
6
CONTINUOUS
10
5.24328
20
-4.53942
11
5.24336
21
-4.53954
0
LINE
8
BLACK
6
CONTINUOUS
10
5.24336
20
-4.53954
11
5.24486
21
-4.54553
0
LINE
8
BLACK
6
CONTINUOUS
10
5.24486
20
-4.54553
11
5.2449
21
-4.54612
0
LINE
8
BLACK
6
CONTINUOUS
10
5.2449
20
-4.54612
11
5.24495
21
-4.54625
0
LINE
8
BLACK
6
CONTINUOUS
10
5.24495
20
-4.54625
11
5.24495
21
-4.55075
0
LINE
8
BLACK
6
CONTINUOUS
10
5.24495
20
-4.55075
11
5.24485
21
-4.55133
0
LINE
8
BLACK
6
CONTINUOUS
10
5.24485
20
-4.55133
11
5.24486
21
-4.55147
0
LINE
8
BLACK
6
CONTINUOUS
10
5.24486
20
-4.55147
11
5.24336
21
-4.55747
0
LINE
8
BLACK
6
CONTINUOUS
10
5.24336
20
-4.55747
11
5.24315
21
-4.55793
0
LINE
8
BLACK
6
CONTINUOUS
10
5.24315
20
-4.55793
11
5.24314
21
-4.55807
0
LINE
8
BLACK
6
CONTINUOUS
10
5.24314
20
-4.55807
11
5.24164
21
-4.56107
0
LINE
8
BLACK
6
CONTINUOUS
10
5.24164
20
-4.56107
11
5.24111
21
-4.56178
0
LINE
8
BLACK
6
CONTINUOUS
10
5.24111
20
-4.56178
11
5.24108
21
-4.56184
0
LINE
8
BLACK
6
CONTINUOUS
10
5.24108
20
-4.56184
11
5.23808
21
-4.56484
0
LINE
8
BLACK
6
CONTINUOUS
10
5.23808
20
-4.56484
11
5.23724
21
-4.56542
0
LINE
8
BLACK
6
CONTINUOUS
10
5.23724
20
-4.56542
11
5.23707
21
-4.56544
0
LINE
8
BLACK
6
CONTINUOUS
10
5.23707
20
-4.56544
11
5.23693
21
-4.56555
0
LINE
8
BLACK
6
CONTINUOUS
10
5.23693
20
-4.56555
11
5.23243
21
-4.56705
0
LINE
8
BLACK
6
CONTINUOUS
10
5.23243
20
-4.56705
11
5.23156
21
-4.56718
0
LINE
8
BLACK
6
CONTINUOUS
10
5.23156
20
-4.56718
11
5.2315
21
-4.5672
0
LINE
8
BLACK
6
CONTINUOUS
10
5.2315
20
-4.5672
11
5.2285
21
-4.5672
0
LINE
8
BLACK
6
CONTINUOUS
10
5.2285
20
-4.5672
11
5.22763
21
-4.56705
0
LINE
8
BLACK
6
CONTINUOUS
10
5.22763
20
-4.56705
11
5.22756
21
-4.56705
0
LINE
8
BLACK
6
CONTINUOUS
10
5.22756
20
-4.56705
11
5.22306
21
-4.56555
0
LINE
8
BLACK
6
CONTINUOUS
10
5.22306
20
-4.56555
11
5.22216
21
-4.56506
0
LINE
8
BLACK
6
CONTINUOUS
10
5.22216
20
-4.56506
11
5.22207
21
-4.56491
0
LINE
8
BLACK
6
CONTINUOUS
10
5.22207
20
-4.56491
11
5.22191
21
-4.56484
0
LINE
8
BLACK
6
CONTINUOUS
10
5.22191
20
-4.56484
11
5.22041
21
-4.56334
0
LINE
8
BLACK
6
CONTINUOUS
10
5.22041
20
-4.56334
11
5.21982
21
-4.5625
0
LINE
8
BLACK
6
CONTINUOUS
10
5.21982
20
-4.5625
11
5.21964
21
-4.56048
0
LINE
8
BLACK
6
CONTINUOUS
10
5.21964
20
-4.56048
11
5.2208
21
-4.55883
0
LINE
8
BLACK
6
CONTINUOUS
10
5.2208
20
-4.55883
11
5.22275
21
-4.55831
0
LINE
8
BLACK
6
CONTINUOUS
10
5.22275
20
-4.55831
11
5.22459
21
-4.55916
0
LINE
8
BLACK
6
CONTINUOUS
10
5.22459
20
-4.55916
11
5.22559
21
-4.56017
0
LINE
8
BLACK
6
CONTINUOUS
10
5.22559
20
-4.56017
11
5.22898
21
-4.5613
0
LINE
8
BLACK
6
CONTINUOUS
10
5.22898
20
-4.5613
11
5.23102
21
-4.5613
0
LINE
8
BLACK
6
CONTINUOUS
10
5.23102
20
-4.5613
11
5.2344
21
-4.56017
0
LINE
8
BLACK
6
CONTINUOUS
10
5.2344
20
-4.56017
11
5.23657
21
-4.558
0
LINE
8
BLACK
6
CONTINUOUS
10
5.23657
20
-4.558
11
5.23771
21
-4.55572
0
LINE
8
BLACK
6
CONTINUOUS
10
5.23771
20
-4.55572
11
5.23904
21
-4.55039
0
LINE
8
BLACK
6
CONTINUOUS
10
5.23904
20
-4.55039
11
5.23904
21
-4.54661
0
LINE
8
BLACK
6
CONTINUOUS
10
5.23904
20
-4.54661
11
5.23771
21
-4.54128
0
LINE
8
BLACK
6
CONTINUOUS
10
5.23771
20
-4.54128
11
5.23657
21
-4.539
0
LINE
8
BLACK
6
CONTINUOUS
10
5.23657
20
-4.539
11
5.2344
21
-4.53683
0
LINE
8
BLACK
6
CONTINUOUS
10
5.2344
20
-4.53683
11
5.23102
21
-4.5357
0
LINE
8
BLACK
6
CONTINUOUS
10
5.23102
20
-4.5357
11
5.22898
21
-4.5357
0
LINE
8
BLACK
6
CONTINUOUS
10
5.22898
20
-4.5357
11
5.22559
21
-4.53683
0
LINE
8
BLACK
6
CONTINUOUS
10
5.22559
20
-4.53683
11
5.22459
21
-4.53784
0
LINE
8
BLACK
6
CONTINUOUS
10
5.22459
20
-4.53784
11
5.22375
21
-4.53843
0
LINE
8
BLACK
6
CONTINUOUS
10
5.22375
20
-4.53843
11
5.22173
21
-4.5386
0
LINE
8
BLACK
6
CONTINUOUS
10
5.22173
20
-4.5386
11
5.22008
21
-4.53745
0
LINE
8
BLACK
6
CONTINUOUS
10
5.22008
20
-4.53745
11
5.21956
21
-4.53549
0
LINE
8
BLACK
6
CONTINUOUS
10
5.21956
20
-4.53549
11
5.22041
21
-4.53366
0
LINE
8
BLACK
6
CONTINUOUS
10
5.22041
20
-4.53366
11
5.22191
21
-4.53216
0
LINE
8
BLACK
6
CONTINUOUS
10
5.22191
20
-4.53216
11
5.22275
21
-4.53158
0
LINE
8
BLACK
6
CONTINUOUS
10
5.22275
20
-4.53158
11
5.22292
21
-4.53156
0
LINE
8
BLACK
6
CONTINUOUS
10
5.22292
20
-4.53156
11
5.22306
21
-4.53145
0
LINE
8
BLACK
6
CONTINUOUS
10
5.22306
20
-4.53145
11
5.22756
21
-4.52995
0
LINE
8
BLACK
6
CONTINUOUS
10
5.22756
20
-4.52995
11
5.22844
21
-4.52982
0
LINE
8
BLACK
6
CONTINUOUS
10
5.22844
20
-4.52982
11
5.2285
21
-4.5298
0
LINE
8
BLACK
6
CONTINUOUS
10
5.2285
20
-4.5298
11
5.2315
21
-4.5298
0
LINE
8
BLACK
6
CONTINUOUS
10
5.2315
20
-4.5298
11
5.23237
21
-4.52995
0
LINE
8
BLACK
6
CONTINUOUS
10
5.11677
20
-4.53085
11
5.11746
21
-4.53275
0
LINE
8
BLACK
6
CONTINUOUS
10
5.11746
20
-4.53275
11
5.11746
21
-4.56425
0
LINE
8
BLACK
6
CONTINUOUS
10
5.11746
20
-4.56425
11
5.11729
21
-4.56526
0
LINE
8
BLACK
6
CONTINUOUS
10
5.11729
20
-4.56526
11
5.11599
21
-4.56681
0
LINE
8
BLACK
6
CONTINUOUS
10
5.11599
20
-4.56681
11
5.114
21
-4.56716
0
LINE
8
BLACK
6
CONTINUOUS
10
5.114
20
-4.56716
11
5.11225
21
-4.56615
0
LINE
8
BLACK
6
CONTINUOUS
10
5.11225
20
-4.56615
11
5.11156
21
-4.56425
0
LINE
8
BLACK
6
CONTINUOUS
10
5.11156
20
-4.56425
11
5.11156
21
-4.53275
0
LINE
8
BLACK
6
CONTINUOUS
10
5.11156
20
-4.53275
11
5.11174
21
-4.53174
0
LINE
8
BLACK
6
CONTINUOUS
10
5.11174
20
-4.53174
11
5.11303
21
-4.53019
0
LINE
8
BLACK
6
CONTINUOUS
10
5.11303
20
-4.53019
11
5.11502
21
-4.52984
0
LINE
8
BLACK
6
CONTINUOUS
10
5.11502
20
-4.52984
11
5.11677
21
-4.53085
0
LINE
8
BLACK
6
CONTINUOUS
10
5.28775
20
-4.53085
11
5.28844
21
-4.53275
0
LINE
8
BLACK
6
CONTINUOUS
10
5.28844
20
-4.53275
11
5.28844
21
-4.56425
0
LINE
8
BLACK
6
CONTINUOUS
10
5.28844
20
-4.56425
11
5.28826
21
-4.56526
0
LINE
8
BLACK
6
CONTINUOUS
10
5.28826
20
-4.56526
11
5.28697
21
-4.56681
0
LINE
8
BLACK
6
CONTINUOUS
10
5.28697
20
-4.56681
11
5.28498
21
-4.56716
0
LINE
8
BLACK
6
CONTINUOUS
10
5.28498
20
-4.56716
11
5.28323
21
-4.56615
0
LINE
8
BLACK
6
CONTINUOUS
10
5.28323
20
-4.56615
11
5.28254
21
-4.56425
0
LINE
8
BLACK
6
CONTINUOUS
10
5.28254
20
-4.56425
11
5.28254
21
-4.53275
0
LINE
8
BLACK
6
CONTINUOUS
10
5.28254
20
-4.53275
11
5.28271
21
-4.53174
0
LINE
8
BLACK
6
CONTINUOUS
10
5.28271
20
-4.53174
11
5.28401
21
-4.53019
0
LINE
8
BLACK
6
CONTINUOUS
10
5.28401
20
-4.53019
11
5.286
21
-4.52984
0
LINE
8
BLACK
6
CONTINUOUS
10
5.286
20
-4.52984
11
5.28775
21
-4.53085
0
LINE
8
BLACK
6
CONTINUOUS
10
5.14639
20
-4.52987
11
5.14652
21
-4.52984
0
LINE
8
BLACK
6
CONTINUOUS
10
5.14652
20
-4.52984
11
5.14663
21
-4.52991
0
LINE
8
BLACK
6
CONTINUOUS
10
5.14663
20
-4.52991
11
5.14702
21
-4.52998
0
LINE
8
BLACK
6
CONTINUOUS
10
5.14702
20
-4.52998
11
5.1476
21
-4.53047
0
LINE
8
BLACK
6
CONTINUOUS
10
5.1476
20
-4.53047
11
5.14827
21
-4.53085
0
LINE
8
BLACK
6
CONTINUOUS
10
5.14827
20
-4.53085
11
5.14836
21
-4.5311
0
LINE
8
BLACK
6
CONTINUOUS
10
5.14836
20
-4.5311
11
5.14856
21
-4.53128
0
LINE
8
BLACK
6
CONTINUOUS
10
5.14856
20
-4.53128
11
5.1487
21
-4.53203
0
LINE
8
BLACK
6
CONTINUOUS
10
5.1487
20
-4.53203
11
5.14896
21
-4.53275
0
LINE
8
BLACK
6
CONTINUOUS
10
5.14896
20
-4.53275
11
5.14896
21
-4.56425
0
LINE
8
BLACK
6
CONTINUOUS
10
5.14896
20
-4.56425
11
5.14878
21
-4.56526
0
LINE
8
BLACK
6
CONTINUOUS
10
5.14878
20
-4.56526
11
5.14748
21
-4.56681
0
LINE
8
BLACK
6
CONTINUOUS
10
5.14748
20
-4.56681
11
5.14549
21
-4.56716
0
LINE
8
BLACK
6
CONTINUOUS
10
5.14549
20
-4.56716
11
5.14374
21
-4.56615
0
LINE
8
BLACK
6
CONTINUOUS
10
5.14374
20
-4.56615
11
5.14305
21
-4.56425
0
LINE
8
BLACK
6
CONTINUOUS
10
5.14305
20
-4.56425
11
5.14305
21
-4.5522
0
LINE
8
BLACK
6
CONTINUOUS
10
5.14305
20
-4.5522
11
5.13401
21
-4.5522
0
LINE
8
BLACK
6
CONTINUOUS
10
5.13401
20
-4.5522
11
5.133
21
-4.55202
0
LINE
8
BLACK
6
CONTINUOUS
10
5.133
20
-4.55202
11
5.13286
21
-4.55191
0
LINE
8
BLACK
6
CONTINUOUS
10
5.13286
20
-4.55191
11
5.13269
21
-4.55189
0
LINE
8
BLACK
6
CONTINUOUS
10
5.13269
20
-4.55189
11
5.12969
21
-4.55039
0
LINE
8
BLACK
6
CONTINUOUS
10
5.12969
20
-4.55039
11
5.12898
21
-4.54987
0
LINE
8
BLACK
6
CONTINUOUS
10
5.12898
20
-4.54987
11
5.12892
21
-4.54984
0
LINE
8
BLACK
6
CONTINUOUS
10
5.12892
20
-4.54984
11
5.12742
21
-4.54834
0
LINE
8
BLACK
6
CONTINUOUS
10
5.12742
20
-4.54834
11
5.12691
21
-4.54762
0
LINE
8
BLACK
6
CONTINUOUS
10
5.12691
20
-4.54762
11
5.12687
21
-4.54757
0
LINE
8
BLACK
6
CONTINUOUS
10
5.12687
20
-4.54757
11
5.12537
21
-4.54457
0
LINE
8
BLACK
6
CONTINUOUS
10
5.12537
20
-4.54457
11
5.12508
21
-4.54359
0
LINE
8
BLACK
6
CONTINUOUS
10
5.12508
20
-4.54359
11
5.12512
21
-4.54342
0
LINE
8
BLACK
6
CONTINUOUS
10
5.12512
20
-4.54342
11
5.12506
21
-4.54325
0
LINE
8
BLACK
6
CONTINUOUS
10
5.12506
20
-4.54325
11
5.12506
21
-4.53875
0
LINE
8
BLACK
6
CONTINUOUS
10
5.12506
20
-4.53875
11
5.12523
21
-4.53774
0
LINE
8
BLACK
6
CONTINUOUS
10
5.12523
20
-4.53774
11
5.12535
21
-4.53761
0
LINE
8
BLACK
6
CONTINUOUS
10
5.12535
20
-4.53761
11
5.12537
21
-4.53743
0
LINE
8
BLACK
6
CONTINUOUS
10
5.12537
20
-4.53743
11
5.12687
21
-4.53443
0
LINE
8
BLACK
6
CONTINUOUS
10
5.12687
20
-4.53443
11
5.12739
21
-4.53372
0
LINE
8
BLACK
6
CONTINUOUS
10
5.12739
20
-4.53372
11
5.12742
21
-4.53366
0
LINE
8
BLACK
6
CONTINUOUS
10
5.12742
20
-4.53366
11
5.12892
21
-4.53216
0
LINE
8
BLACK
6
CONTINUOUS
10
5.12892
20
-4.53216
11
5.12964
21
-4.53166
0
LINE
8
BLACK
6
CONTINUOUS
10
5.12964
20
-4.53166
11
5.12969
21
-4.53161
0
LINE
8
BLACK
6
CONTINUOUS
10
5.12969
20
-4.53161
11
5.13269
21
-4.53011
0
LINE
8
BLACK
6
CONTINUOUS
10
5.13269
20
-4.53011
11
5.13367
21
-4.52982
0
LINE
8
BLACK
6
CONTINUOUS
10
5.13367
20
-4.52982
11
5.13384
21
-4.52986
0
LINE
8
BLACK
6
CONTINUOUS
10
5.13384
20
-4.52986
11
5.13401
21
-4.5298
0
LINE
8
BLACK
6
CONTINUOUS
10
5.13401
20
-4.5298
11
5.14601
21
-4.5298
0
LINE
8
BLACK
6
CONTINUOUS
10
5.14601
20
-4.5298
11
5.14639
21
-4.52987
0
LINE
8
BLACK
6
CONTINUOUS
10
5.13471
20
-4.5357
11
5.13276
21
-4.53668
0
LINE
8
BLACK
6
CONTINUOUS
10
5.13276
20
-4.53668
11
5.13194
21
-4.5375
0
LINE
8
BLACK
6
CONTINUOUS
10
5.13194
20
-4.5375
11
5.13096
21
-4.53945
0
LINE
8
BLACK
6
CONTINUOUS
10
5.13096
20
-4.53945
11
5.13096
21
-4.54255
0
LINE
8
BLACK
6
CONTINUOUS
10
5.13096
20
-4.54255
11
5.13194
21
-4.5445
0
LINE
8
BLACK
6
CONTINUOUS
10
5.13194
20
-4.5445
11
5.13276
21
-4.54532
0
LINE
8
BLACK
6
CONTINUOUS
10
5.13276
20
-4.54532
11
5.13471
21
-4.5463
0
LINE
8
BLACK
6
CONTINUOUS
10
5.13471
20
-4.5463
11
5.14305
21
-4.5463
0
LINE
8
BLACK
6
CONTINUOUS
10
5.14305
20
-4.5463
11
5.14305
21
-4.5357
0
LINE
8
BLACK
6
CONTINUOUS
10
5.14305
20
-4.5357
11
5.13471
21
-4.5357
0
LINE
8
BLACK
6
CONTINUOUS
10
5.31066
20
-4.49562
11
5.31083
21
-4.49561
0
LINE
8
BLACK
6
CONTINUOUS
10
5.31083
20
-4.49561
11
5.31152
21
-4.49611
0
LINE
8
BLACK
6
CONTINUOUS
10
5.31152
20
-4.49611
11
5.31226
21
-4.49654
0
LINE
8
BLACK
6
CONTINUOUS
10
5.31226
20
-4.49654
11
5.31232
21
-4.4967
0
LINE
8
BLACK
6
CONTINUOUS
10
5.31232
20
-4.4967
11
5.31246
21
-4.4968
0
LINE
8
BLACK
6
CONTINUOUS
10
5.31246
20
-4.4968
11
5.31604
21
-4.50218
0
LINE
8
BLACK
6
CONTINUOUS
10
5.31604
20
-4.50218
11
5.31925
21
-4.50539
0
LINE
8
BLACK
6
CONTINUOUS
10
5.31925
20
-4.50539
11
5.32257
21
-4.50705
0
LINE
8
BLACK
6
CONTINUOUS
10
5.32257
20
-4.50705
11
5.32339
21
-4.50766
0
LINE
8
BLACK
6
CONTINUOUS
10
5.32339
20
-4.50766
11
5.3242
21
-4.50951
0
LINE
8
BLACK
6
CONTINUOUS
10
5.3242
20
-4.50951
11
5.32362
21
-4.51145
0
LINE
8
BLACK
6
CONTINUOUS
10
5.32362
20
-4.51145
11
5.32193
21
-4.51256
0
LINE
8
BLACK
6
CONTINUOUS
10
5.32193
20
-4.51256
11
5.31993
21
-4.51233
0
LINE
8
BLACK
6
CONTINUOUS
10
5.31993
20
-4.51233
11
5.31618
21
-4.51046
0
LINE
8
BLACK
6
CONTINUOUS
10
5.31618
20
-4.51046
11
5.31547
21
-4.50993
0
LINE
8
BLACK
6
CONTINUOUS
10
5.31547
20
-4.50993
11
5.31541
21
-4.5099
0
LINE
8
BLACK
6
CONTINUOUS
10
5.31541
20
-4.5099
11
5.31295
21
-4.50744
0
LINE
8
BLACK
6
CONTINUOUS
10
5.31295
20
-4.50744
11
5.31295
21
-4.53486
0
LINE
8
BLACK
6
CONTINUOUS
10
5.31295
20
-4.53486
11
5.32125
21
-4.53486
0
LINE
8
BLACK
6
CONTINUOUS
10
5.32125
20
-4.53486
11
5.32226
21
-4.53504
0
LINE
8
BLACK
6
CONTINUOUS
10
5.32226
20
-4.53504
11
5.32381
21
-4.53633
0
LINE
8
BLACK
6
CONTINUOUS
10
5.32381
20
-4.53633
11
5.32416
21
-4.53832
0
LINE
8
BLACK
6
CONTINUOUS
10
5.32416
20
-4.53832
11
5.32315
21
-4.54007
0
LINE
8
BLACK
6
CONTINUOUS
10
5.32315
20
-4.54007
11
5.32125
21
-4.54076
0
LINE
8
BLACK
6
CONTINUOUS
10
5.32125
20
-4.54076
11
5.29875
21
-4.54076
0
LINE
8
BLACK
6
CONTINUOUS
10
5.29875
20
-4.54076
11
5.29774
21
-4.54058
0
LINE
8
BLACK
6
CONTINUOUS
10
5.29774
20
-4.54058
11
5.29619
21
-4.53929
0
LINE
8
BLACK
6
CONTINUOUS
10
5.29619
20
-4.53929
11
5.29584
21
-4.5373
0
LINE
8
BLACK
6
CONTINUOUS
10
5.29584
20
-4.5373
11
5.29685
21
-4.53555
0
LINE
8
BLACK
6
CONTINUOUS
10
5.29685
20
-4.53555
11
5.29875
21
-4.53486
0
LINE
8
BLACK
6
CONTINUOUS
10
5.29875
20
-4.53486
11
5.30705
21
-4.53486
0
LINE
8
BLACK
6
CONTINUOUS
10
5.30705
20
-4.53486
11
5.30705
21
-4.49844
0
LINE
8
BLACK
6
CONTINUOUS
10
5.30705
20
-4.49844
11
5.30723
21
-4.49743
0
LINE
8
BLACK
6
CONTINUOUS
10
5.30723
20
-4.49743
11
5.30733
21
-4.4973
0
LINE
8
BLACK
6
CONTINUOUS
10
5.30733
20
-4.4973
11
5.30735
21
-4.49713
0
LINE
8
BLACK
6
CONTINUOUS
10
5.30735
20
-4.49713
11
5.30797
21
-4.49654
0
LINE
8
BLACK
6
CONTINUOUS
10
5.30797
20
-4.49654
11
5.30852
21
-4.49588
0
LINE
8
BLACK
6
CONTINUOUS
10
5.30852
20
-4.49588
11
5.30869
21
-4.49585
0
LINE
8
BLACK
6
CONTINUOUS
10
5.30869
20
-4.49585
11
5.30881
21
-4.49574
0
LINE
8
BLACK
6
CONTINUOUS
10
5.30881
20
-4.49574
11
5.30967
21
-4.49568
0
LINE
8
BLACK
6
CONTINUOUS
10
5.30967
20
-4.49568
11
5.31051
21
-4.49553
0
LINE
8
BLACK
6
CONTINUOUS
10
5.31051
20
-4.49553
11
5.31066
21
-4.49562
0
LINE
8
BLACK
6
CONTINUOUS
10
5.09413
20
-4.49567
11
5.09568
21
-4.49696
0
LINE
8
BLACK
6
CONTINUOUS
10
5.09568
20
-4.49696
11
5.09603
21
-4.49895
0
LINE
8
BLACK
6
CONTINUOUS
10
5.09603
20
-4.49895
11
5.09502
21
-4.5007
0
LINE
8
BLACK
6
CONTINUOUS
10
5.09502
20
-4.5007
11
5.09312
21
-4.50139
0
LINE
8
BLACK
6
CONTINUOUS
10
5.09312
20
-4.50139
11
5.07526
21
-4.50139
0
LINE
8
BLACK
6
CONTINUOUS
10
5.07526
20
-4.50139
11
5.0841
21
-4.51149
0
LINE
8
BLACK
6
CONTINUOUS
10
5.0841
20
-4.51149
11
5.08433
21
-4.51187
0
LINE
8
BLACK
6
CONTINUOUS
10
5.08433
20
-4.51187
11
5.08443
21
-4.51196
0
LINE
8
BLACK
6
CONTINUOUS
10
5.08443
20
-4.51196
11
5.08445
21
-4.51208
0
LINE
8
BLACK
6
CONTINUOUS
10
5.08445
20
-4.51208
11
5.08463
21
-4.51237
0
LINE
8
BLACK
6
CONTINUOUS
10
5.08463
20
-4.51237
11
5.08464
21
-4.51317
0
LINE
8
BLACK
6
CONTINUOUS
10
5.08464
20
-4.51317
11
5.08478
21
-4.51395
0
LINE
8
BLACK
6
CONTINUOUS
10
5.08478
20
-4.51395
11
5.08466
21
-4.51416
0
LINE
8
BLACK
6
CONTINUOUS
10
5.08466
20
-4.51416
11
5.08467
21
-4.51439
0
LINE
8
BLACK
6
CONTINUOUS
10
5.08467
20
-4.51439
11
5.08417
21
-4.51501
0
LINE
8
BLACK
6
CONTINUOUS
10
5.08417
20
-4.51501
11
5.08377
21
-4.5157
0
LINE
8
BLACK
6
CONTINUOUS
10
5.08377
20
-4.5157
11
5.08355
21
-4.51578
0
LINE
8
BLACK
6
CONTINUOUS
10
5.08355
20
-4.51578
11
5.0834
21
-4.51596
0
LINE
8
BLACK
6
CONTINUOUS
10
5.0834
20
-4.51596
11
5.08262
21
-4.51612
0
LINE
8
BLACK
6
CONTINUOUS
10
5.08262
20
-4.51612
11
5.08187
21
-4.51639
0
LINE
8
BLACK
6
CONTINUOUS
10
5.08187
20
-4.51639
11
5.07695
21
-4.51639
0
LINE
8
BLACK
6
CONTINUOUS
10
5.07695
20
-4.51639
11
5.07425
21
-4.51774
0
LINE
8
BLACK
6
CONTINUOUS
10
5.07425
20
-4.51774
11
5.07305
21
-4.51894
0
LINE
8
BLACK
6
CONTINUOUS
10
5.07305
20
-4.51894
11
5.0717
21
-4.52163
0
LINE
8
BLACK
6
CONTINUOUS
10
5.0717
20
-4.52163
11
5.0717
21
-4.52961
0
LINE
8
BLACK
6
CONTINUOUS
10
5.0717
20
-4.52961
11
5.07305
21
-4.53231
0
LINE
8
BLACK
6
CONTINUOUS
10
5.07305
20
-4.53231
11
5.07425
21
-4.53351
0
LINE
8
BLACK
6
CONTINUOUS
10
5.07425
20
-4.53351
11
5.07695
21
-4.53486
0
LINE
8
BLACK
6
CONTINUOUS
10
5.07695
20
-4.53486
11
5.0868
21
-4.53486
0
LINE
8
BLACK
6
CONTINUOUS
10
5.0868
20
-4.53486
11
5.0895
21
-4.53351
0
LINE
8
BLACK
6
CONTINUOUS
10
5.0895
20
-4.53351
11
5.09104
21
-4.53197
0
LINE
8
BLACK
6
CONTINUOUS
10
5.09104
20
-4.53197
11
5.09188
21
-4.53138
0
LINE
8
BLACK
6
CONTINUOUS
10
5.09188
20
-4.53138
11
5.09389
21
-4.53121
0
LINE
8
BLACK
6
CONTINUOUS
10
5.09389
20
-4.53121
11
5.09554
21
-4.53237
0
LINE
8
BLACK
6
CONTINUOUS
10
5.09554
20
-4.53237
11
5.09606
21
-4.53432
0
LINE
8
BLACK
6
CONTINUOUS
10
5.09606
20
-4.53432
11
5.09521
21
-4.53615
0
LINE
8
BLACK
6
CONTINUOUS
10
5.09521
20
-4.53615
11
5.09334
21
-4.53802
0
LINE
8
BLACK
6
CONTINUOUS
10
5.09334
20
-4.53802
11
5.09261
21
-4.53853
0
LINE
8
BLACK
6
CONTINUOUS
10
5.09261
20
-4.53853
11
5.09257
21
-4.53858
0
LINE
8
BLACK
6
CONTINUOUS
10
5.09257
20
-4.53858
11
5.08882
21
-4.54045
0
LINE
8
BLACK
6
CONTINUOUS
10
5.08882
20
-4.54045
11
5.08784
21
-4.54074
0
LINE
8
BLACK
6
CONTINUOUS
10
5.08784
20
-4.54074
11
5.08766
21
-4.5407
0
LINE
8
BLACK
6
CONTINUOUS
10
5.08766
20
-4.5407
11
5.0875
21
-4.54076
0
LINE
8
BLACK
6
CONTINUOUS
10
5.0875
20
-4.54076
11
5.07625
21
-4.54076
0
LINE
8
BLACK
6
CONTINUOUS
10
5.07625
20
-4.54076
11
5.07524
21
-4.54058
0
LINE
8
BLACK
6
CONTINUOUS
10
5.07524
20
-4.54058
11
5.07511
21
-4.54047
0
LINE
8
BLACK
6
CONTINUOUS
10
5.07511
20
-4.54047
11
5.07493
21
-4.54045
0
LINE
8
BLACK
6
CONTINUOUS
10
5.07493
20
-4.54045
11
5.07118
21
-4.53858
0
LINE
8
BLACK
6
CONTINUOUS
10
5.07118
20
-4.53858
11
5.07047
21
-4.53805
0
LINE
8
BLACK
6
CONTINUOUS
10
5.07047
20
-4.53805
11
5.07041
21
-4.53802
0
LINE
8
BLACK
6
CONTINUOUS
10
5.07041
20
-4.53802
11
5.06854
21
-4.53615
0
LINE
8
BLACK
6
CONTINUOUS
10
5.06854
20
-4.53615
11
5.06803
21
-4.53543
0
LINE
8
BLACK
6
CONTINUOUS
10
5.06803
20
-4.53543
11
5.06799
21
-4.53538
0
LINE
8
BLACK
6
CONTINUOUS
10
5.06799
20
-4.53538
11
5.06611
21
-4.53163
0
LINE
8
BLACK
6
CONTINUOUS
10
5.06611
20
-4.53163
11
5.06582
21
-4.53065
0
LINE
8
BLACK
6
CONTINUOUS
10
5.06582
20
-4.53065
11
5.06586
21
-4.53048
0
LINE
8
BLACK
6
CONTINUOUS
10
5.06586
20
-4.53048
11
5.0658
21
-4.53031
0
LINE
8
BLACK
6
CONTINUOUS
10
5.0658
20
-4.53031
11
5.0658
21
-4.52094
0
LINE
8
BLACK
6
CONTINUOUS
10
5.0658
20
-4.52094
11
5.06598
21
-4.51993
0
LINE
8
BLACK
6
CONTINUOUS
10
5.06598
20
-4.51993
11
5.06609
21
-4.51979
0
LINE
8
BLACK
6
CONTINUOUS
10
5.06609
20
-4.51979
11
5.06611
21
-4.51962
0
LINE
8
BLACK
6
CONTINUOUS
10
5.06611
20
-4.51962
11
5.06799
21
-4.51587
0
LINE
8
BLACK
6
CONTINUOUS
10
5.06799
20
-4.51587
11
5.06851
21
-4.51516
0
LINE
8
BLACK
6
CONTINUOUS
10
5.06851
20
-4.51516
11
5.06854
21
-4.5151
0
LINE
8
BLACK
6
CONTINUOUS
10
5.06854
20
-4.5151
11
5.07041
21
-4.51323
0
LINE
8
BLACK
6
CONTINUOUS
10
5.07041
20
-4.51323
11
5.07114
21
-4.51272
0
LINE
8
BLACK
6
CONTINUOUS
10
5.07114
20
-4.51272
11
5.07118
21
-4.51267
0
LINE
8
BLACK
6
CONTINUOUS
10
5.07118
20
-4.51267
11
5.07493
21
-4.5108
0
LINE
8
BLACK
6
CONTINUOUS
10
5.07493
20
-4.5108
11
5.07549
21
-4.51063
0
LINE
8
BLACK
6
CONTINUOUS
10
5.07549
20
-4.51063
11
5.06653
21
-4.50038
0
LINE
8
BLACK
6
CONTINUOUS
10
5.06653
20
-4.50038
11
5.0663
21
-4.5
0
LINE
8
BLACK
6
CONTINUOUS
10
5.0663
20
-4.5
11
5.06619
21
-4.49992
0
LINE
8
BLACK
6
CONTINUOUS
10
5.06619
20
-4.49992
11
5.06617
21
-4.4998
0
LINE
8
BLACK
6
CONTINUOUS
10
5.06617
20
-4.4998
11
5.066
21
-4.49951
0
LINE
8
BLACK
6
CONTINUOUS
10
5.066
20
-4.49951
11
5.06598
21
-4.49871
0
LINE
8
BLACK
6
CONTINUOUS
10
5.06598
20
-4.49871
11
5.06584
21
-4.49793
0
LINE
8
BLACK
6
CONTINUOUS
10
5.06584
20
-4.49793
11
5.06596
21
-4.49772
0
LINE
8
BLACK
6
CONTINUOUS
10
5.06596
20
-4.49772
11
5.06596
21
-4.49749
0
LINE
8
BLACK
6
CONTINUOUS
10
5.06596
20
-4.49749
11
5.06646
21
-4.49687
0
LINE
8
BLACK
6
CONTINUOUS
10
5.06646
20
-4.49687
11
5.06685
21
-4.49618
0
LINE
8
BLACK
6
CONTINUOUS
10
5.06685
20
-4.49618
11
5.06707
21
-4.4961
0
LINE
8
BLACK
6
CONTINUOUS
10
5.06707
20
-4.4961
11
5.06722
21
-4.49591
0
LINE
8
BLACK
6
CONTINUOUS
10
5.06722
20
-4.49591
11
5.068
21
-4.49576
0
LINE
8
BLACK
6
CONTINUOUS
10
5.068
20
-4.49576
11
5.06875
21
-4.49549
0
LINE
8
BLACK
6
CONTINUOUS
10
5.06875
20
-4.49549
11
5.09312
21
-4.49549
0
LINE
8
BLACK
6
CONTINUOUS
10
5.09312
20
-4.49549
11
5.09413
21
-4.49567
0
LINE
8
BLACK
6
CONTINUOUS
10
5.14427
20
-4.51148
11
5.14101
21
-4.51116
0
LINE
8
BLACK
6
CONTINUOUS
10
5.14101
20
-4.51116
11
5.1354
21
-4.50945
0
LINE
8
BLACK
6
CONTINUOUS
10
5.1354
20
-4.50945
11
5.13023
21
-4.50669
0
LINE
8
BLACK
6
CONTINUOUS
10
5.13023
20
-4.50669
11
5.12569
21
-4.50297
0
LINE
8
BLACK
6
CONTINUOUS
10
5.12569
20
-4.50297
11
5.12197
21
-4.49843
0
LINE
8
BLACK
6
CONTINUOUS
10
5.12197
20
-4.49843
11
5.11921
21
-4.49326
0
LINE
8
BLACK
6
CONTINUOUS
10
5.11921
20
-4.49326
11
5.1175
21
-4.48765
0
LINE
8
BLACK
6
CONTINUOUS
10
5.1175
20
-4.48765
11
5.11693
21
-4.48181
0
LINE
8
BLACK
6
CONTINUOUS
10
5.11693
20
-4.48181
11
5.11693
21
-4.45819
0
LINE
8
BLACK
6
CONTINUOUS
10
5.11693
20
-4.45819
11
5.1175
21
-4.45235
0
LINE
8
BLACK
6
CONTINUOUS
10
5.1175
20
-4.45235
11
5.11921
21
-4.44674
0
LINE
8
BLACK
6
CONTINUOUS
10
5.11921
20
-4.44674
11
5.12197
21
-4.44157
0
LINE
8
BLACK
6
CONTINUOUS
10
5.12197
20
-4.44157
11
5.12569
21
-4.43703
0
LINE
8
BLACK
6
CONTINUOUS
10
5.12569
20
-4.43703
11
5.13023
21
-4.43331
0
LINE
8
BLACK
6
CONTINUOUS
10
5.13023
20
-4.43331
11
5.1354
21
-4.43055
0
LINE
8
BLACK
6
CONTINUOUS
10
5.1354
20
-4.43055
11
5.14101
21
-4.42884
0
LINE
8
BLACK
6
CONTINUOUS
10
5.14101
20
-4.42884
11
5.14427
21
-4.42852
0
LINE
8
BLACK
6
CONTINUOUS
10
5.14427
20
-4.42852
11
5.14488
21
-4.42827
0
LINE
8
BLACK
6
CONTINUOUS
10
5.14488
20
-4.42827
11
5.25512
21
-4.42827
0
LINE
8
BLACK
6
CONTINUOUS
10
5.25512
20
-4.42827
11
5.25573
21
-4.42852
0
LINE
8
BLACK
6
CONTINUOUS
10
5.25573
20
-4.42852
11
5.25899
21
-4.42884
0
LINE
8
BLACK
6
CONTINUOUS
10
5.25899
20
-4.42884
11
5.2646
21
-4.43055
0
LINE
8
BLACK
6
CONTINUOUS
10
5.2646
20
-4.43055
11
5.26977
21
-4.43331
0
LINE
8
BLACK
6
CONTINUOUS
10
5.26977
20
-4.43331
11
5.27431
21
-4.43703
0
LINE
8
BLACK
6
CONTINUOUS
10
5.27431
20
-4.43703
11
5.27803
21
-4.44157
0
LINE
8
BLACK
6
CONTINUOUS
10
5.27803
20
-4.44157
11
5.28079
21
-4.44674
0
LINE
8
BLACK
6
CONTINUOUS
10
5.28079
20
-4.44674
11
5.2825
21
-4.45235
0
LINE
8
BLACK
6
CONTINUOUS
10
5.2825
20
-4.45235
11
5.28307
21
-4.45819
0
LINE
8
BLACK
6
CONTINUOUS
10
5.28307
20
-4.45819
11
5.28307
21
-4.48181
0
LINE
8
BLACK
6
CONTINUOUS
10
5.28307
20
-4.48181
11
5.2825
21
-4.48765
0
LINE
8
BLACK
6
CONTINUOUS
10
5.2825
20
-4.48765
11
5.28079
21
-4.49326
0
LINE
8
BLACK
6
CONTINUOUS
10
5.28079
20
-4.49326
11
5.27803
21
-4.49843
0
LINE
8
BLACK
6
CONTINUOUS
10
5.27803
20
-4.49843
11
5.27431
21
-4.50297
0
LINE
8
BLACK
6
CONTINUOUS
10
5.27431
20
-4.50297
11
5.26977
21
-4.50669
0
LINE
8
BLACK
6
CONTINUOUS
10
5.26977
20
-4.50669
11
5.2646
21
-4.50945
0
LINE
8
BLACK
6
CONTINUOUS
10
5.2646
20
-4.50945
11
5.25899
21
-4.51116
0
LINE
8
BLACK
6
CONTINUOUS
10
5.25899
20
-4.51116
11
5.25573
21
-4.51148
0
LINE
8
BLACK
6
CONTINUOUS
10
5.25573
20
-4.51148
11
5.25512
21
-4.51173
0
LINE
8
BLACK
6
CONTINUOUS
10
5.25512
20
-4.51173
11
5.14488
21
-4.51173
0
LINE
8
BLACK
6
CONTINUOUS
10
5.14488
20
-4.51173
11
5.14427
21
-4.51148
0
LINE
8
BLACK
6
CONTINUOUS
10
5.14121
20
-4.43347
11
5.13585
21
-4.43534
0
LINE
8
BLACK
6
CONTINUOUS
10
5.13585
20
-4.43534
11
5.13104
21
-4.43836
0
LINE
8
BLACK
6
CONTINUOUS
10
5.13104
20
-4.43836
11
5.12703
21
-4.44238
0
LINE
8
BLACK
6
CONTINUOUS
10
5.12703
20
-4.44238
11
5.12401
21
-4.44719
0
LINE
8
BLACK
6
CONTINUOUS
10
5.12401
20
-4.44719
11
5.12213
21
-4.45255
0
LINE
8
BLACK
6
CONTINUOUS
10
5.12213
20
-4.45255
11
5.12153
21
-4.45789
0
LINE
8
BLACK
6
CONTINUOUS
10
5.12153
20
-4.45789
11
5.12165
21
-4.45819
0
LINE
8
BLACK
6
CONTINUOUS
10
5.12165
20
-4.45819
11
5.12165
21
-4.48181
0
LINE
8
BLACK
6
CONTINUOUS
10
5.12165
20
-4.48181
11
5.12153
21
-4.48211
0
LINE
8
BLACK
6
CONTINUOUS
10
5.12153
20
-4.48211
11
5.12213
21
-4.48745
0
LINE
8
BLACK
6
CONTINUOUS
10
5.12213
20
-4.48745
11
5.12401
21
-4.49281
0
LINE
8
BLACK
6
CONTINUOUS
10
5.12401
20
-4.49281
11
5.12703
21
-4.49762
0
LINE
8
BLACK
6
CONTINUOUS
10
5.12703
20
-4.49762
11
5.13104
21
-4.50164
0
LINE
8
BLACK
6
CONTINUOUS
10
5.13104
20
-4.50164
11
5.13585
21
-4.50466
0
LINE
8
BLACK
6
CONTINUOUS
10
5.13585
20
-4.50466
11
5.14121
21
-4.50653
0
LINE
8
BLACK
6
CONTINUOUS
10
5.14121
20
-4.50653
11
5.14544
21
-4.50701
0
LINE
8
BLACK
6
CONTINUOUS
10
5.14544
20
-4.50701
11
5.25456
21
-4.50701
0
LINE
8
BLACK
6
CONTINUOUS
10
5.25456
20
-4.50701
11
5.25879
21
-4.50653
0
LINE
8
BLACK
6
CONTINUOUS
10
5.25879
20
-4.50653
11
5.26415
21
-4.50466
0
LINE
8
BLACK
6
CONTINUOUS
10
5.26415
20
-4.50466
11
5.26896
21
-4.50164
0
LINE
8
BLACK
6
CONTINUOUS
10
5.26896
20
-4.50164
11
5.27297
21
-4.49762
0
LINE
8
BLACK
6
CONTINUOUS
10
5.27297
20
-4.49762
11
5.27599
21
-4.49281
0
LINE
8
BLACK
6
CONTINUOUS
10
5.27599
20
-4.49281
11
5.27787
21
-4.48745
0
LINE
8
BLACK
6
CONTINUOUS
10
5.27787
20
-4.48745
11
5.27847
21
-4.48211
0
LINE
8
BLACK
6
CONTINUOUS
10
5.27847
20
-4.48211
11
5.27835
21
-4.48181
0
LINE
8
BLACK
6
CONTINUOUS
10
5.27835
20
-4.48181
11
5.27835
21
-4.45819
0
LINE
8
BLACK
6
CONTINUOUS
10
5.27835
20
-4.45819
11
5.27847
21
-4.45789
0
LINE
8
BLACK
6
CONTINUOUS
10
5.27847
20
-4.45789
11
5.27787
21
-4.45255
0
LINE
8
BLACK
6
CONTINUOUS
10
5.27787
20
-4.45255
11
5.27599
21
-4.44719
0
LINE
8
BLACK
6
CONTINUOUS
10
5.27599
20
-4.44719
11
5.27297
21
-4.44238
0
LINE
8
BLACK
6
CONTINUOUS
10
5.27297
20
-4.44238
11
5.26896
21
-4.43836
0
LINE
8
BLACK
6
CONTINUOUS
10
5.26896
20
-4.43836
11
5.26415
21
-4.43534
0
LINE
8
BLACK
6
CONTINUOUS
10
5.26415
20
-4.43534
11
5.25879
21
-4.43347
0
LINE
8
BLACK
6
CONTINUOUS
10
5.25879
20
-4.43347
11
5.25456
21
-4.43299
0
LINE
8
BLACK
6
CONTINUOUS
10
5.25456
20
-4.43299
11
5.14544
21
-4.43299
0
LINE
8
BLACK
6
CONTINUOUS
10
5.14544
20
-4.43299
11
5.14121
21
-4.43347
0
LINE
8
BLACK
6
CONTINUOUS
10
5.19194
20
-4.3834
11
5.19466
21
-4.38471
0
LINE
8
BLACK
6
CONTINUOUS
10
5.19466
20
-4.38471
11
5.19653
21
-4.38706
0
LINE
8
BLACK
6
CONTINUOUS
10
5.19653
20
-4.38706
11
5.1972
21
-4.39
0
LINE
8
BLACK
6
CONTINUOUS
10
5.1972
20
-4.39
11
5.1972
21
-4.39002
0
LINE
8
BLACK
6
CONTINUOUS
10
5.1972
20
-4.39002
11
5.19652
21
-4.39296
0
LINE
8
BLACK
6
CONTINUOUS
10
5.19652
20
-4.39296
11
5.19464
21
-4.39531
0
LINE
8
BLACK
6
CONTINUOUS
10
5.19464
20
-4.39531
11
5.19192
21
-4.39661
0
LINE
8
BLACK
6
CONTINUOUS
10
5.19192
20
-4.39661
11
5.18891
21
-4.3966
0
LINE
8
BLACK
6
CONTINUOUS
10
5.18891
20
-4.3966
11
5.1862
21
-4.39528
0
LINE
8
BLACK
6
CONTINUOUS
10
5.1862
20
-4.39528
11
5.18433
21
-4.39293
0
LINE
8
BLACK
6
CONTINUOUS
10
5.18433
20
-4.39293
11
5.18366
21
-4.38999
0
LINE
8
BLACK
6
CONTINUOUS
10
5.18366
20
-4.38999
11
5.18434
21
-4.38705
0
LINE
8
BLACK
6
CONTINUOUS
10
5.18434
20
-4.38705
11
5.18622
21
-4.3847
0
LINE
8
BLACK
6
CONTINUOUS
10
5.18622
20
-4.3847
11
5.18893
21
-4.3834
0
LINE
8
BLACK
6
CONTINUOUS
10
5.18893
20
-4.3834
11
5.19194
21
-4.3834
0
LINE
8
BLACK
6
CONTINUOUS
10
5.00956
20
-4.2464
11
5.01169
21
-4.24824
0
LINE
8
BLACK
6
CONTINUOUS
10
5.01169
20
-4.24824
11
5.01248
21
-4.25094
0
LINE
8
BLACK
6
CONTINUOUS
10
5.01248
20
-4.25094
11
5.01248
21
-4.36906
0
LINE
8
BLACK
6
CONTINUOUS
10
5.01248
20
-4.36906
11
5.01227
21
-4.37048
0
LINE
8
BLACK
6
CONTINUOUS
10
5.01227
20
-4.37048
11
5.01075
21
-4.37284
0
LINE
8
BLACK
6
CONTINUOUS
10
5.01075
20
-4.37284
11
5.00818
21
-4.37401
0
LINE
8
BLACK
6
CONTINUOUS
10
5.00818
20
-4.37401
11
5.0054
21
-4.3736
0
LINE
8
BLACK
6
CONTINUOUS
10
5.0054
20
-4.3736
11
5.00327
21
-4.37176
0
LINE
8
BLACK
6
CONTINUOUS
10
5.00327
20
-4.37176
11
5.00248
21
-4.36906
0
LINE
8
BLACK
6
CONTINUOUS
10
5.00248
20
-4.36906
11
5.00248
21
-4.25094
0
LINE
8
BLACK
6
CONTINUOUS
10
5.00248
20
-4.25094
11
5.00269
21
-4.24952
0
LINE
8
BLACK
6
CONTINUOUS
10
5.00269
20
-4.24952
11
5.00421
21
-4.24716
0
LINE
8
BLACK
6
CONTINUOUS
10
5.00421
20
-4.24716
11
5.00678
21
-4.24599
0
LINE
8
BLACK
6
CONTINUOUS
10
5.00678
20
-4.24599
11
5.00956
21
-4.2464
0
LINE
8
BLACK
6
CONTINUOUS
10
5.1946
20
-4.2464
11
5.19673
21
-4.24824
0
LINE
8
BLACK
6
CONTINUOUS
10
5.19673
20
-4.24824
11
5.19752
21
-4.25094
0
LINE
8
BLACK
6
CONTINUOUS
10
5.19752
20
-4.25094
11
5.19752
21
-4.36906
0
LINE
8
BLACK
6
CONTINUOUS
10
5.19752
20
-4.36906
11
5.19731
21
-4.37048
0
LINE
8
BLACK
6
CONTINUOUS
10
5.19731
20
-4.37048
11
5.19579
21
-4.37284
0
LINE
8
BLACK
6
CONTINUOUS
10
5.19579
20
-4.37284
11
5.19322
21
-4.37401
0
LINE
8
BLACK
6
CONTINUOUS
10
5.19322
20
-4.37401
11
5.19044
21
-4.3736
0
LINE
8
BLACK
6
CONTINUOUS
10
5.19044
20
-4.3736
11
5.18831
21
-4.37176
0
LINE
8
BLACK
6
CONTINUOUS
10
5.18831
20
-4.37176
11
5.18752
21
-4.36906
0
LINE
8
BLACK
6
CONTINUOUS
10
5.18752
20
-4.36906
11
5.18752
21
-4.25094
0
LINE
8
BLACK
6
CONTINUOUS
10
5.18752
20
-4.25094
11
5.18773
21
-4.24952
0
LINE
8
BLACK
6
CONTINUOUS
10
5.18773
20
-4.24952
11
5.18925
21
-4.24716
0
LINE
8
BLACK
6
CONTINUOUS
10
5.18925
20
-4.24716
11
5.19182
21
-4.24599
0
LINE
8
BLACK
6
CONTINUOUS
10
5.19182
20
-4.24599
11
5.1946
21
-4.2464
0
LINE
8
BLACK
6
CONTINUOUS
10
5.55944
20
-4.3243
11
5.55957
21
-4.32427
0
LINE
8
BLACK
6
CONTINUOUS
10
5.55957
20
-4.32427
11
5.55969
21
-4.32434
0
LINE
8
BLACK
6
CONTINUOUS
10
5.55969
20
-4.32434
11
5.56007
21
-4.32441
0
LINE
8
BLACK
6
CONTINUOUS
10
5.56007
20
-4.32441
11
5.56066
21
-4.3249
0
LINE
8
BLACK
6
CONTINUOUS
10
5.56066
20
-4.3249
11
5.56132
21
-4.32528
0
LINE
8
BLACK
6
CONTINUOUS
10
5.56132
20
-4.32528
11
5.56141
21
-4.32553
0
LINE
8
BLACK
6
CONTINUOUS
10
5.56141
20
-4.32553
11
5.56162
21
-4.3257
0
LINE
8
BLACK
6
CONTINUOUS
10
5.56162
20
-4.3257
11
5.56175
21
-4.32646
0
LINE
8
BLACK
6
CONTINUOUS
10
5.56175
20
-4.32646
11
5.56201
21
-4.32718
0
LINE
8
BLACK
6
CONTINUOUS
10
5.56201
20
-4.32718
11
5.56201
21
-4.36655
0
LINE
8
BLACK
6
CONTINUOUS
10
5.56201
20
-4.36655
11
5.56194
21
-4.36693
0
LINE
8
BLACK
6
CONTINUOUS
10
5.56194
20
-4.36693
11
5.56197
21
-4.36706
0
LINE
8
BLACK
6
CONTINUOUS
10
5.56197
20
-4.36706
11
5.5619
21
-4.36718
0
LINE
8
BLACK
6
CONTINUOUS
10
5.5619
20
-4.36718
11
5.56183
21
-4.36756
0
LINE
8
BLACK
6
CONTINUOUS
10
5.56183
20
-4.36756
11
5.56134
21
-4.36815
0
LINE
8
BLACK
6
CONTINUOUS
10
5.56134
20
-4.36815
11
5.56096
21
-4.36881
0
LINE
8
BLACK
6
CONTINUOUS
10
5.56096
20
-4.36881
11
5.56071
21
-4.3689
0
LINE
8
BLACK
6
CONTINUOUS
10
5.56071
20
-4.3689
11
5.56054
21
-4.36911
0
LINE
8
BLACK
6
CONTINUOUS
10
5.56054
20
-4.36911
11
5.55978
21
-4.36924
0
LINE
8
BLACK
6
CONTINUOUS
10
5.55978
20
-4.36924
11
5.55906
21
-4.3695
0
LINE
8
BLACK
6
CONTINUOUS
10
5.55906
20
-4.3695
11
5.54969
21
-4.3695
0
LINE
8
BLACK
6
CONTINUOUS
10
5.54969
20
-4.3695
11
5.54882
21
-4.36935
0
LINE
8
BLACK
6
CONTINUOUS
10
5.54882
20
-4.36935
11
5.54875
21
-4.36935
0
LINE
8
BLACK
6
CONTINUOUS
10
5.54875
20
-4.36935
11
5.54313
21
-4.36748
0
LINE
8
BLACK
6
CONTINUOUS
10
5.54313
20
-4.36748
11
5.54223
21
-4.36699
0
LINE
8
BLACK
6
CONTINUOUS
10
5.54223
20
-4.36699
11
5.54213
21
-4.36684
0
LINE
8
BLACK
6
CONTINUOUS
10
5.54213
20
-4.36684
11
5.54197
21
-4.36676
0
LINE
8
BLACK
6
CONTINUOUS
10
5.54197
20
-4.36676
11
5.53822
21
-4.36301
0
LINE
8
BLACK
6
CONTINUOUS
10
5.53822
20
-4.36301
11
5.53772
21
-4.36229
0
LINE
8
BLACK
6
CONTINUOUS
10
5.53772
20
-4.36229
11
5.53767
21
-4.36225
0
LINE
8
BLACK
6
CONTINUOUS
10
5.53767
20
-4.36225
11
5.5358
21
-4.3585
0
LINE
8
BLACK
6
CONTINUOUS
10
5.5358
20
-4.3585
11
5.53565
21
-4.35801
0
LINE
8
BLACK
6
CONTINUOUS
10
5.53565
20
-4.35801
11
5.53557
21
-4.35789
0
LINE
8
BLACK
6
CONTINUOUS
10
5.53557
20
-4.35789
11
5.5337
21
-4.35039
0
LINE
8
BLACK
6
CONTINUOUS
10
5.5337
20
-4.35039
11
5.53366
21
-4.34981
0
LINE
8
BLACK
6
CONTINUOUS
10
5.53366
20
-4.34981
11
5.53361
21
-4.34968
0
LINE
8
BLACK
6
CONTINUOUS
10
5.53361
20
-4.34968
11
5.53361
21
-4.34405
0
LINE
8
BLACK
6
CONTINUOUS
10
5.53361
20
-4.34405
11
5.53371
21
-4.34347
0
LINE
8
BLACK
6
CONTINUOUS
10
5.53371
20
-4.34347
11
5.5337
21
-4.34334
0
LINE
8
BLACK
6
CONTINUOUS
10
5.5337
20
-4.34334
11
5.53557
21
-4.33584
0
LINE
8
BLACK
6
CONTINUOUS
10
5.53557
20
-4.33584
11
5.53578
21
-4.33537
0
LINE
8
BLACK
6
CONTINUOUS
10
5.53578
20
-4.33537
11
5.5358
21
-4.33523
0
LINE
8
BLACK
6
CONTINUOUS
10
5.5358
20
-4.33523
11
5.53767
21
-4.33148
0
LINE
8
BLACK
6
CONTINUOUS
10
5.53767
20
-4.33148
11
5.5382
21
-4.33078
0
LINE
8
BLACK
6
CONTINUOUS
10
5.5382
20
-4.33078
11
5.53822
21
-4.33072
0
LINE
8
BLACK
6
CONTINUOUS
10
5.53822
20
-4.33072
11
5.54197
21
-4.32697
0
LINE
8
BLACK
6
CONTINUOUS
10
5.54197
20
-4.32697
11
5.54281
21
-4.32638
0
LINE
8
BLACK
6
CONTINUOUS
10
5.54281
20
-4.32638
11
5.54299
21
-4.32636
0
LINE
8
BLACK
6
CONTINUOUS
10
5.54299
20
-4.32636
11
5.54313
21
-4.32625
0
LINE
8
BLACK
6
CONTINUOUS
10
5.54313
20
-4.32625
11
5.54875
21
-4.32438
0
LINE
8
BLACK
6
CONTINUOUS
10
5.54875
20
-4.32438
11
5.54962
21
-4.32425
0
LINE
8
BLACK
6
CONTINUOUS
10
5.54962
20
-4.32425
11
5.54969
21
-4.32423
0
LINE
8
BLACK
6
CONTINUOUS
10
5.54969
20
-4.32423
11
5.55906
21
-4.32423
0
LINE
8
BLACK
6
CONTINUOUS
10
5.55906
20
-4.32423
11
5.55944
21
-4.3243
0
LINE
8
BLACK
6
CONTINUOUS
10
5.55016
20
-4.33013
11
5.54566
21
-4.33164
0
LINE
8
BLACK
6
CONTINUOUS
10
5.54566
20
-4.33164
11
5.54274
21
-4.33455
0
LINE
8
BLACK
6
CONTINUOUS
10
5.54274
20
-4.33455
11
5.54122
21
-4.33758
0
LINE
8
BLACK
6
CONTINUOUS
10
5.54122
20
-4.33758
11
5.53951
21
-4.34442
0
LINE
8
BLACK
6
CONTINUOUS
10
5.53951
20
-4.34442
11
5.53951
21
-4.34931
0
LINE
8
BLACK
6
CONTINUOUS
10
5.53951
20
-4.34931
11
5.54122
21
-4.35615
0
LINE
8
BLACK
6
CONTINUOUS
10
5.54122
20
-4.35615
11
5.54274
21
-4.35918
0
LINE
8
BLACK
6
CONTINUOUS
10
5.54274
20
-4.35918
11
5.54566
21
-4.36209
0
LINE
8
BLACK
6
CONTINUOUS
10
5.54566
20
-4.36209
11
5.55016
21
-4.3636
0
LINE
8
BLACK
6
CONTINUOUS
10
5.55016
20
-4.3636
11
5.55611
21
-4.3636
0
LINE
8
BLACK
6
CONTINUOUS
10
5.55611
20
-4.3636
11
5.55611
21
-4.33013
0
LINE
8
BLACK
6
CONTINUOUS
10
5.55611
20
-4.33013
11
5.55016
21
-4.33013
0
LINE
8
BLACK
6
CONTINUOUS
10
5.51097
20
-4.32436
11
5.51114
21
-4.32435
0
LINE
8
BLACK
6
CONTINUOUS
10
5.51114
20
-4.32435
11
5.51183
21
-4.32485
0
LINE
8
BLACK
6
CONTINUOUS
10
5.51183
20
-4.32485
11
5.51258
21
-4.32528
0
LINE
8
BLACK
6
CONTINUOUS
10
5.51258
20
-4.32528
11
5.51263
21
-4.32544
0
LINE
8
BLACK
6
CONTINUOUS
10
5.51263
20
-4.32544
11
5.51277
21
-4.32554
0
LINE
8
BLACK
6
CONTINUOUS
10
5.51277
20
-4.32554
11
5.51636
21
-4.33092
0
LINE
8
BLACK
6
CONTINUOUS
10
5.51636
20
-4.33092
11
5.51956
21
-4.33413
0
LINE
8
BLACK
6
CONTINUOUS
10
5.51956
20
-4.33413
11
5.52288
21
-4.33579
0
LINE
8
BLACK
6
CONTINUOUS
10
5.52288
20
-4.33579
11
5.52371
21
-4.3364
0
LINE
8
BLACK
6
CONTINUOUS
10
5.52371
20
-4.3364
11
5.52451
21
-4.33825
0
LINE
8
BLACK
6
CONTINUOUS
10
5.52451
20
-4.33825
11
5.52394
21
-4.34019
0
LINE
8
BLACK
6
CONTINUOUS
10
5.52394
20
-4.34019
11
5.52225
21
-4.3413
0
LINE
8
BLACK
6
CONTINUOUS
10
5.52225
20
-4.3413
11
5.52024
21
-4.34107
0
LINE
8
BLACK
6
CONTINUOUS
10
5.52024
20
-4.34107
11
5.51649
21
-4.3392
0
LINE
8
BLACK
6
CONTINUOUS
10
5.51649
20
-4.3392
11
5.51578
21
-4.33867
0
LINE
8
BLACK
6
CONTINUOUS
10
5.51578
20
-4.33867
11
5.51573
21
-4.33864
0
LINE
8
BLACK
6
CONTINUOUS
10
5.51573
20
-4.33864
11
5.51327
21
-4.33618
0
LINE
8
BLACK
6
CONTINUOUS
10
5.51327
20
-4.33618
11
5.51327
21
-4.3636
0
LINE
8
BLACK
6
CONTINUOUS
10
5.51327
20
-4.3636
11
5.52156
21
-4.3636
0
LINE
8
BLACK
6
CONTINUOUS
10
5.52156
20
-4.3636
11
5.52257
21
-4.36378
0
LINE
8
BLACK
6
CONTINUOUS
10
5.52257
20
-4.36378
11
5.52412
21
-4.36507
0
LINE
8
BLACK
6
CONTINUOUS
10
5.52412
20
-4.36507
11
5.52447
21
-4.36706
0
LINE
8
BLACK
6
CONTINUOUS
10
5.52447
20
-4.36706
11
5.52346
21
-4.36881
0
LINE
8
BLACK
6
CONTINUOUS
10
5.52346
20
-4.36881
11
5.52156
21
-4.3695
0
LINE
8
BLACK
6
CONTINUOUS
10
5.52156
20
-4.3695
11
5.49907
21
-4.3695
0
LINE
8
BLACK
6
CONTINUOUS
10
5.49907
20
-4.3695
11
5.49806
21
-4.36933
0
LINE
8
BLACK
6
CONTINUOUS
10
5.49806
20
-4.36933
11
5.49651
21
-4.36803
0
LINE
8
BLACK
6
CONTINUOUS
10
5.49651
20
-4.36803
11
5.49616
21
-4.36604
0
LINE
8
BLACK
6
CONTINUOUS
10
5.49616
20
-4.36604
11
5.49717
21
-4.36429
0
LINE
8
BLACK
6
CONTINUOUS
10
5.49717
20
-4.36429
11
5.49907
21
-4.3636
0
LINE
8
BLACK
6
CONTINUOUS
10
5.49907
20
-4.3636
11
5.50736
21
-4.3636
0
LINE
8
BLACK
6
CONTINUOUS
10
5.50736
20
-4.3636
11
5.50736
21
-4.32718
0
LINE
8
BLACK
6
CONTINUOUS
10
5.50736
20
-4.32718
11
5.50754
21
-4.32617
0
LINE
8
BLACK
6
CONTINUOUS
10
5.50754
20
-4.32617
11
5.50765
21
-4.32604
0
LINE
8
BLACK
6
CONTINUOUS
10
5.50765
20
-4.32604
11
5.50767
21
-4.32587
0
LINE
8
BLACK
6
CONTINUOUS
10
5.50767
20
-4.32587
11
5.50829
21
-4.32528
0
LINE
8
BLACK
6
CONTINUOUS
10
5.50829
20
-4.32528
11
5.50884
21
-4.32462
0
LINE
8
BLACK
6
CONTINUOUS
10
5.50884
20
-4.32462
11
5.50901
21
-4.32459
0
LINE
8
BLACK
6
CONTINUOUS
10
5.50901
20
-4.32459
11
5.50913
21
-4.32448
0
LINE
8
BLACK
6
CONTINUOUS
10
5.50913
20
-4.32448
11
5.50998
21
-4.32442
0
LINE
8
BLACK
6
CONTINUOUS
10
5.50998
20
-4.32442
11
5.51083
21
-4.32427
0
LINE
8
BLACK
6
CONTINUOUS
10
5.51083
20
-4.32427
11
5.51097
21
-4.32436
0
LINE
8
BLACK
6
CONTINUOUS
10
4.9947
20
-4.32807
11
4.99683
21
-4.32992
0
LINE
8
BLACK
6
CONTINUOUS
10
4.99683
20
-4.32992
11
4.99762
21
-4.33262
0
LINE
8
BLACK
6
CONTINUOUS
10
4.99762
20
-4.33262
11
4.99762
21
-4.36119
0
LINE
8
BLACK
6
CONTINUOUS
10
4.99762
20
-4.36119
11
4.99741
21
-4.36261
0
LINE
8
BLACK
6
CONTINUOUS
10
4.99741
20
-4.36261
11
4.99589
21
-4.36498
0
LINE
8
BLACK
6
CONTINUOUS
10
4.99589
20
-4.36498
11
4.99332
21
-4.36614
0
LINE
8
BLACK
6
CONTINUOUS
10
4.99332
20
-4.36614
11
4.99054
21
-4.36574
0
LINE
8
BLACK
6
CONTINUOUS
10
4.99054
20
-4.36574
11
4.98841
21
-4.36389
0
LINE
8
BLACK
6
CONTINUOUS
10
4.98841
20
-4.36389
11
4.98762
21
-4.36119
0
LINE
8
BLACK
6
CONTINUOUS
10
4.98762
20
-4.36119
11
4.98762
21
-4.3519
0
LINE
8
BLACK
6
CONTINUOUS
10
4.98762
20
-4.3519
11
4.94262
21
-4.3519
0
LINE
8
BLACK
6
CONTINUOUS
10
4.94262
20
-4.3519
11
4.94136
21
-4.35172
0
LINE
8
BLACK
6
CONTINUOUS
10
4.94136
20
-4.35172
11
4.94128
21
-4.35172
0
LINE
8
BLACK
6
CONTINUOUS
10
4.94128
20
-4.35172
11
4.94126
21
-4.35171
0
LINE
8
BLACK
6
CONTINUOUS
10
4.94126
20
-4.35171
11
4.9412
21
-4.3517
0
LINE
8
BLACK
6
CONTINUOUS
10
4.9412
20
-4.3517
11
4.94005
21
-4.35096
0
LINE
8
BLACK
6
CONTINUOUS
10
4.94005
20
-4.35096
11
4.93889
21
-4.35024
0
LINE
8
BLACK
6
CONTINUOUS
10
4.93889
20
-4.35024
11
4.93887
21
-4.3502
0
LINE
8
BLACK
6
CONTINUOUS
10
4.93887
20
-4.3502
11
4.93883
21
-4.35017
0
LINE
8
BLACK
6
CONTINUOUS
10
4.93883
20
-4.35017
11
4.93827
21
-4.34893
0
LINE
8
BLACK
6
CONTINUOUS
10
4.93827
20
-4.34893
11
4.93768
21
-4.34769
0
LINE
8
BLACK
6
CONTINUOUS
10
4.93768
20
-4.34769
11
4.93769
21
-4.34765
0
LINE
8
BLACK
6
CONTINUOUS
10
4.93769
20
-4.34765
11
4.93767
21
-4.34761
0
LINE
8
BLACK
6
CONTINUOUS
10
4.93767
20
-4.34761
11
4.93786
21
-4.34626
0
LINE
8
BLACK
6
CONTINUOUS
10
4.93786
20
-4.34626
11
4.93804
21
-4.3449
0
LINE
8
BLACK
6
CONTINUOUS
10
4.93804
20
-4.3449
11
4.93807
21
-4.34487
0
LINE
8
BLACK
6
CONTINUOUS
10
4.93807
20
-4.34487
11
4.93807
21
-4.34482
0
LINE
8
BLACK
6
CONTINUOUS
10
4.93807
20
-4.34482
11
4.93897
21
-4.34379
0
LINE
8
BLACK
6
CONTINUOUS
10
4.93897
20
-4.34379
11
4.93985
21
-4.34274
0
LINE
8
BLACK
6
CONTINUOUS
10
4.93985
20
-4.34274
11
4.94658
21
-4.33826
0
LINE
8
BLACK
6
CONTINUOUS
10
4.94658
20
-4.33826
11
4.95041
21
-4.33442
0
LINE
8
BLACK
6
CONTINUOUS
10
4.95041
20
-4.33442
11
4.95243
21
-4.33038
0
LINE
8
BLACK
6
CONTINUOUS
10
4.95243
20
-4.33038
11
4.95325
21
-4.3292
0
LINE
8
BLACK
6
CONTINUOUS
10
4.95325
20
-4.3292
11
4.95568
21
-4.32777
0
LINE
8
BLACK
6
CONTINUOUS
10
4.95568
20
-4.32777
11
4.95849
21
-4.32788
0
LINE
8
BLACK
6
CONTINUOUS
10
4.95849
20
-4.32788
11
4.9608
21
-4.32948
0
LINE
8
BLACK
6
CONTINUOUS
10
4.9608
20
-4.32948
11
4.96188
21
-4.33208
0
LINE
8
BLACK
6
CONTINUOUS
10
4.96188
20
-4.33208
11
4.96138
21
-4.33486
0
LINE
8
BLACK
6
CONTINUOUS
10
4.96138
20
-4.33486
11
4.959
21
-4.33962
0
LINE
8
BLACK
6
CONTINUOUS
10
4.959
20
-4.33962
11
4.95818
21
-4.3408
0
LINE
8
BLACK
6
CONTINUOUS
10
4.95818
20
-4.3408
11
4.9581
21
-4.34084
0
LINE
8
BLACK
6
CONTINUOUS
10
4.9581
20
-4.34084
11
4.95806
21
-4.34092
0
LINE
8
BLACK
6
CONTINUOUS
10
4.95806
20
-4.34092
11
4.95707
21
-4.3419
0
LINE
8
BLACK
6
CONTINUOUS
10
4.95707
20
-4.3419
11
4.98762
21
-4.3419
0
LINE
8
BLACK
6
CONTINUOUS
10
4.98762
20
-4.3419
11
4.98762
21
-4.33262
0
LINE
8
BLACK
6
CONTINUOUS
10
4.98762
20
-4.33262
11
4.98782
21
-4.3312
0
LINE
8
BLACK
6
CONTINUOUS
10
4.98782
20
-4.3312
11
4.98935
21
-4.32883
0
LINE
8
BLACK
6
CONTINUOUS
10
4.98935
20
-4.32883
11
4.99191
21
-4.32767
0
LINE
8
BLACK
6
CONTINUOUS
10
4.99191
20
-4.32767
11
4.9947
21
-4.32807
0
LINE
8
BLACK
6
CONTINUOUS
10
5.37061
20
-4.30064
11
5.3713
21
-4.30231
0
LINE
8
BLACK
6
CONTINUOUS
10
5.3713
20
-4.30231
11
5.3713
21
-4.32288
0
LINE
8
BLACK
6
CONTINUOUS
10
5.3713
20
-4.32288
11
5.37061
21
-4.32455
0
LINE
8
BLACK
6
CONTINUOUS
10
5.37061
20
-4.32455
11
5.36894
21
-4.32525
0
LINE
8
BLACK
6
CONTINUOUS
10
5.36894
20
-4.32525
11
5.36727
21
-4.32455
0
LINE
8
BLACK
6
CONTINUOUS
10
5.36727
20
-4.32455
11
5.36657
21
-4.32288
0
LINE
8
BLACK
6
CONTINUOUS
10
5.36657
20
-4.32288
11
5.36657
21
-4.30231
0
LINE
8
BLACK
6
CONTINUOUS
10
5.36657
20
-4.30231
11
5.36727
21
-4.30064
0
LINE
8
BLACK
6
CONTINUOUS
10
5.36727
20
-4.30064
11
5.36894
21
-4.29995
0
LINE
8
BLACK
6
CONTINUOUS
10
5.36894
20
-4.29995
11
5.37061
21
-4.30064
0
LINE
8
BLACK
6
CONTINUOUS
10
5.28061
20
-4.30064
11
5.2813
21
-4.30231
0
LINE
8
BLACK
6
CONTINUOUS
10
5.2813
20
-4.30231
11
5.2813
21
-4.32288
0
LINE
8
BLACK
6
CONTINUOUS
10
5.2813
20
-4.32288
11
5.28061
21
-4.32455
0
LINE
8
BLACK
6
CONTINUOUS
10
5.28061
20
-4.32455
11
5.27894
21
-4.32525
0
LINE
8
BLACK
6
CONTINUOUS
10
5.27894
20
-4.32525
11
5.27727
21
-4.32455
0
LINE
8
BLACK
6
CONTINUOUS
10
5.27727
20
-4.32455
11
5.27657
21
-4.32288
0
LINE
8
BLACK
6
CONTINUOUS
10
5.27657
20
-4.32288
11
5.27657
21
-4.30231
0
LINE
8
BLACK
6
CONTINUOUS
10
5.27657
20
-4.30231
11
5.27727
21
-4.30064
0
LINE
8
BLACK
6
CONTINUOUS
10
5.27727
20
-4.30064
11
5.27894
21
-4.29995
0
LINE
8
BLACK
6
CONTINUOUS
10
5.27894
20
-4.29995
11
5.28061
21
-4.30064
0
LINE
8
BLACK
6
CONTINUOUS
10
5.22273
20
-4.30064
11
5.22343
21
-4.30231
0
LINE
8
BLACK
6
CONTINUOUS
10
5.22343
20
-4.30231
11
5.22343
21
-4.32288
0
LINE
8
BLACK
6
CONTINUOUS
10
5.22343
20
-4.32288
11
5.22273
21
-4.32455
0
LINE
8
BLACK
6
CONTINUOUS
10
5.22273
20
-4.32455
11
5.22106
21
-4.32525
0
LINE
8
BLACK
6
CONTINUOUS
10
5.22106
20
-4.32525
11
5.21939
21
-4.32455
0
LINE
8
BLACK
6
CONTINUOUS
10
5.21939
20
-4.32455
11
5.2187
21
-4.32288
0
LINE
8
BLACK
6
CONTINUOUS
10
5.2187
20
-4.32288
11
5.2187
21
-4.30231
0
LINE
8
BLACK
6
CONTINUOUS
10
5.2187
20
-4.30231
11
5.21939
21
-4.30064
0
LINE
8
BLACK
6
CONTINUOUS
10
5.21939
20
-4.30064
11
5.22106
21
-4.29995
0
LINE
8
BLACK
6
CONTINUOUS
10
5.22106
20
-4.29995
11
5.22273
21
-4.30064
0
LINE
8
BLACK
6
CONTINUOUS
10
5.31273
20
-4.30064
11
5.31343
21
-4.30231
0
LINE
8
BLACK
6
CONTINUOUS
10
5.31343
20
-4.30231
11
5.31343
21
-4.32288
0
LINE
8
BLACK
6
CONTINUOUS
10
5.31343
20
-4.32288
11
5.31273
21
-4.32455
0
LINE
8
BLACK
6
CONTINUOUS
10
5.31273
20
-4.32455
11
5.31106
21
-4.32525
0
LINE
8
BLACK
6
CONTINUOUS
10
5.31106
20
-4.32525
11
5.30939
21
-4.32455
0
LINE
8
BLACK
6
CONTINUOUS
10
5.30939
20
-4.32455
11
5.3087
21
-4.32288
0
LINE
8
BLACK
6
CONTINUOUS
10
5.3087
20
-4.32288
11
5.3087
21
-4.30231
0
LINE
8
BLACK
6
CONTINUOUS
10
5.3087
20
-4.30231
11
5.30939
21
-4.30064
0
LINE
8
BLACK
6
CONTINUOUS
10
5.30939
20
-4.30064
11
5.31106
21
-4.29995
0
LINE
8
BLACK
6
CONTINUOUS
10
5.31106
20
-4.29995
11
5.31273
21
-4.30064
0
LINE
8
BLACK
6
CONTINUOUS
10
4.97226
20
-4.27777
11
4.9724
21
-4.27777
0
LINE
8
BLACK
6
CONTINUOUS
10
4.9724
20
-4.27777
11
4.98193
21
-4.28015
0
LINE
8
BLACK
6
CONTINUOUS
10
4.98193
20
-4.28015
11
4.98277
21
-4.2805
0
LINE
8
BLACK
6
CONTINUOUS
10
4.98277
20
-4.2805
11
4.98295
21
-4.28053
0
LINE
8
BLACK
6
CONTINUOUS
10
4.98295
20
-4.28053
11
4.98771
21
-4.28291
0
LINE
8
BLACK
6
CONTINUOUS
10
4.98771
20
-4.28291
11
4.98889
21
-4.28373
0
LINE
8
BLACK
6
CONTINUOUS
10
4.98889
20
-4.28373
11
4.98893
21
-4.2838
0
LINE
8
BLACK
6
CONTINUOUS
10
4.98893
20
-4.2838
11
4.98901
21
-4.28385
0
LINE
8
BLACK
6
CONTINUOUS
10
4.98901
20
-4.28385
11
4.99377
21
-4.28861
0
LINE
8
BLACK
6
CONTINUOUS
10
4.99377
20
-4.28861
11
4.99463
21
-4.28976
0
LINE
8
BLACK
6
CONTINUOUS
10
4.99463
20
-4.28976
11
4.99473
21
-4.29019
0
LINE
8
BLACK
6
CONTINUOUS
10
4.99473
20
-4.29019
11
4.99498
21
-4.29056
0
LINE
8
BLACK
6
CONTINUOUS
10
4.99498
20
-4.29056
11
4.99736
21
-4.2977
0
LINE
8
BLACK
6
CONTINUOUS
10
4.99736
20
-4.2977
11
4.99762
21
-4.29912
0
LINE
8
BLACK
6
CONTINUOUS
10
4.99762
20
-4.29912
11
4.99759
21
-4.2992
0
LINE
8
BLACK
6
CONTINUOUS
10
4.99759
20
-4.2992
11
4.99762
21
-4.29929
0
LINE
8
BLACK
6
CONTINUOUS
10
4.99762
20
-4.29929
11
4.99762
21
-4.30405
0
LINE
8
BLACK
6
CONTINUOUS
10
4.99762
20
-4.30405
11
4.99741
21
-4.30547
0
LINE
8
BLACK
6
CONTINUOUS
10
4.99741
20
-4.30547
11
4.99737
21
-4.30554
0
LINE
8
BLACK
6
CONTINUOUS
10
4.99737
20
-4.30554
11
4.99736
21
-4.30563
0
LINE
8
BLACK
6
CONTINUOUS
10
4.99736
20
-4.30563
11
4.99498
21
-4.31277
0
LINE
8
BLACK
6
CONTINUOUS
10
4.99498
20
-4.31277
11
4.99434
21
-4.31405
0
LINE
8
BLACK
6
CONTINUOUS
10
4.99434
20
-4.31405
11
4.99399
21
-4.31433
0
LINE
8
BLACK
6
CONTINUOUS
10
4.99399
20
-4.31433
11
4.99377
21
-4.31473
0
LINE
8
BLACK
6
CONTINUOUS
10
4.99377
20
-4.31473
11
4.99139
21
-4.31711
0
LINE
8
BLACK
6
CONTINUOUS
10
4.99139
20
-4.31711
11
4.99024
21
-4.31797
0
LINE
8
BLACK
6
CONTINUOUS
10
4.99024
20
-4.31797
11
4.98749
21
-4.31856
0
LINE
8
BLACK
6
CONTINUOUS
10
4.98749
20
-4.31856
11
4.98485
21
-4.31757
0
LINE
8
BLACK
6
CONTINUOUS
10
4.98485
20
-4.31757
11
4.98317
21
-4.31531
0
LINE
8
BLACK
6
CONTINUOUS
10
4.98317
20
-4.31531
11
4.98297
21
-4.31251
0
LINE
8
BLACK
6
CONTINUOUS
10
4.98297
20
-4.31251
11
4.98432
21
-4.31004
0
LINE
8
BLACK
6
CONTINUOUS
10
4.98432
20
-4.31004
11
4.98587
21
-4.30849
0
LINE
8
BLACK
6
CONTINUOUS
10
4.98587
20
-4.30849
11
4.98762
21
-4.30324
0
LINE
8
BLACK
6
CONTINUOUS
10
4.98762
20
-4.30324
11
4.98762
21
-4.3001
0
LINE
8
BLACK
6
CONTINUOUS
10
4.98762
20
-4.3001
11
4.98587
21
-4.29484
0
LINE
8
BLACK
6
CONTINUOUS
10
4.98587
20
-4.29484
11
4.98251
21
-4.29149
0
LINE
8
BLACK
6
CONTINUOUS
10
4.98251
20
-4.29149
11
4.97897
21
-4.28972
0
LINE
8
BLACK
6
CONTINUOUS
10
4.97897
20
-4.28972
11
4.97057
21
-4.28762
0
LINE
8
BLACK
6
CONTINUOUS
10
4.97057
20
-4.28762
11
4.96466
21
-4.28762
0
LINE
8
BLACK
6
CONTINUOUS
10
4.96466
20
-4.28762
11
4.95627
21
-4.28972
0
LINE
8
BLACK
6
CONTINUOUS
10
4.95627
20
-4.28972
11
4.95272
21
-4.29149
0
LINE
8
BLACK
6
CONTINUOUS
10
4.95272
20
-4.29149
11
4.94937
21
-4.29484
0
LINE
8
BLACK
6
CONTINUOUS
10
4.94937
20
-4.29484
11
4.94762
21
-4.3001
0
LINE
8
BLACK
6
CONTINUOUS
10
4.94762
20
-4.3001
11
4.94762
21
-4.30324
0
LINE
8
BLACK
6
CONTINUOUS
10
4.94762
20
-4.30324
11
4.94937
21
-4.30849
0
LINE
8
BLACK
6
CONTINUOUS
10
4.94937
20
-4.30849
11
4.95092
21
-4.31004
0
LINE
8
BLACK
6
CONTINUOUS
10
4.95092
20
-4.31004
11
4.95178
21
-4.31119
0
LINE
8
BLACK
6
CONTINUOUS
10
4.95178
20
-4.31119
11
4.95237
21
-4.31394
0
LINE
8
BLACK
6
CONTINUOUS
10
4.95237
20
-4.31394
11
4.95138
21
-4.31657
0
LINE
8
BLACK
6
CONTINUOUS
10
4.95138
20
-4.31657
11
4.94912
21
-4.31826
0
LINE
8
BLACK
6
CONTINUOUS
10
4.94912
20
-4.31826
11
4.94632
21
-4.31846
0
LINE
8
BLACK
6
CONTINUOUS
10
4.94632
20
-4.31846
11
4.94385
21
-4.31711
0
LINE
8
BLACK
6
CONTINUOUS
10
4.94385
20
-4.31711
11
4.94146
21
-4.31473
0
LINE
8
BLACK
6
CONTINUOUS
10
4.94146
20
-4.31473
11
4.94061
21
-4.31358
0
LINE
8
BLACK
6
CONTINUOUS
10
4.94061
20
-4.31358
11
4.94051
21
-4.31314
0
LINE
8
BLACK
6
CONTINUOUS
10
4.94051
20
-4.31314
11
4.94026
21
-4.31277
0
LINE
8
BLACK
6
CONTINUOUS
10
4.94026
20
-4.31277
11
4.93788
21
-4.30563
0
LINE
8
BLACK
6
CONTINUOUS
10
4.93788
20
-4.30563
11
4.93762
21
-4.30422
0
LINE
8
BLACK
6
CONTINUOUS
10
4.93762
20
-4.30422
11
4.93764
21
-4.30413
0
LINE
8
BLACK
6
CONTINUOUS
10
4.93764
20
-4.30413
11
4.93762
21
-4.30405
0
LINE
8
BLACK
6
CONTINUOUS
10
4.93762
20
-4.30405
11
4.93762
21
-4.29929
0
LINE
8
BLACK
6
CONTINUOUS
10
4.93762
20
-4.29929
11
4.93782
21
-4.29787
0
LINE
8
BLACK
6
CONTINUOUS
10
4.93782
20
-4.29787
11
4.93787
21
-4.29779
0
LINE
8
BLACK
6
CONTINUOUS
10
4.93787
20
-4.29779
11
4.93788
21
-4.2977
0
LINE
8
BLACK
6
CONTINUOUS
10
4.93788
20
-4.2977
11
4.94026
21
-4.29056
0
LINE
8
BLACK
6
CONTINUOUS
10
4.94026
20
-4.29056
11
4.9409
21
-4.28928
0
LINE
8
BLACK
6
CONTINUOUS
10
4.9409
20
-4.28928
11
4.94125
21
-4.289
0
LINE
8
BLACK
6
CONTINUOUS
10
4.94125
20
-4.289
11
4.94146
21
-4.28861
0
LINE
8
BLACK
6
CONTINUOUS
10
4.94146
20
-4.28861
11
4.94623
21
-4.28385
0
LINE
8
BLACK
6
CONTINUOUS
10
4.94623
20
-4.28385
11
4.94738
21
-4.28299
0
LINE
8
BLACK
6
CONTINUOUS
10
4.94738
20
-4.28299
11
4.94746
21
-4.28297
0
LINE
8
BLACK
6
CONTINUOUS
10
4.94746
20
-4.28297
11
4.94753
21
-4.28291
0
LINE
8
BLACK
6
CONTINUOUS
10
4.94753
20
-4.28291
11
4.95229
21
-4.28053
0
LINE
8
BLACK
6
CONTINUOUS
10
4.95229
20
-4.28053
11
4.95316
21
-4.28024
0
LINE
8
BLACK
6
CONTINUOUS
10
4.95316
20
-4.28024
11
4.95331
21
-4.28015
0
LINE
8
BLACK
6
CONTINUOUS
10
4.95331
20
-4.28015
11
4.96283
21
-4.27777
0
LINE
8
BLACK
6
CONTINUOUS
10
4.96283
20
-4.27777
11
4.96391
21
-4.27766
0
LINE
8
BLACK
6
CONTINUOUS
10
4.96391
20
-4.27766
11
4.96405
21
-4.27762
0
LINE
8
BLACK
6
CONTINUOUS
10
4.96405
20
-4.27762
11
4.97119
21
-4.27762
0
LINE
8
BLACK
6
CONTINUOUS
10
4.97119
20
-4.27762
11
4.97226
21
-4.27777
0
LINE
8
BLACK
6
CONTINUOUS
10
5.60057
20
-4.22896
11
5.60126
21
-4.23063
0
LINE
8
BLACK
6
CONTINUOUS
10
5.60126
20
-4.23063
11
5.60057
21
-4.2323
0
LINE
8
BLACK
6
CONTINUOUS
10
5.60057
20
-4.2323
11
5.5989
21
-4.23299
0
LINE
8
BLACK
6
CONTINUOUS
10
5.5989
20
-4.23299
11
5.43197
21
-4.23299
0
LINE
8
BLACK
6
CONTINUOUS
10
5.43197
20
-4.23299
11
5.43197
21
-4.30701
0
LINE
8
BLACK
6
CONTINUOUS
10
5.43197
20
-4.30701
11
5.5989
21
-4.30701
0
LINE
8
BLACK
6
CONTINUOUS
10
5.5989
20
-4.30701
11
5.60057
21
-4.3077
0
LINE
8
BLACK
6
CONTINUOUS
10
5.60057
20
-4.3077
11
5.60126
21
-4.30937
0
LINE
8
BLACK
6
CONTINUOUS
10
5.60126
20
-4.30937
11
5.60057
21
-4.31104
0
LINE
8
BLACK
6
CONTINUOUS
10
5.60057
20
-4.31104
11
5.5989
21
-4.31173
0
LINE
8
BLACK
6
CONTINUOUS
10
5.5989
20
-4.31173
11
5.42961
21
-4.31173
0
LINE
8
BLACK
6
CONTINUOUS
10
5.42961
20
-4.31173
11
5.42794
21
-4.31104
0
LINE
8
BLACK
6
CONTINUOUS
10
5.42794
20
-4.31104
11
5.42724
21
-4.30937
0
LINE
8
BLACK
6
CONTINUOUS
10
5.42724
20
-4.30937
11
5.42724
21
-4.23063
0
LINE
8
BLACK
6
CONTINUOUS
10
5.42724
20
-4.23063
11
5.42794
21
-4.22896
0
LINE
8
BLACK
6
CONTINUOUS
10
5.42794
20
-4.22896
11
5.42961
21
-4.22827
0
LINE
8
BLACK
6
CONTINUOUS
10
5.42961
20
-4.22827
11
5.5989
21
-4.22827
0
LINE
8
BLACK
6
CONTINUOUS
10
5.5989
20
-4.22827
11
5.60057
21
-4.22896
0
LINE
8
BLACK
6
CONTINUOUS
10
4.99404
20
-4.2564
11
4.9964
21
-4.25792
0
LINE
8
BLACK
6
CONTINUOUS
10
4.9964
20
-4.25792
11
4.99757
21
-4.26049
0
LINE
8
BLACK
6
CONTINUOUS
10
4.99757
20
-4.26049
11
4.99717
21
-4.26327
0
LINE
8
BLACK
6
CONTINUOUS
10
4.99717
20
-4.26327
11
4.99532
21
-4.2654
0
LINE
8
BLACK
6
CONTINUOUS
10
4.99532
20
-4.2654
11
4.99262
21
-4.26619
0
LINE
8
BLACK
6
CONTINUOUS
10
4.99262
20
-4.26619
11
4.94262
21
-4.26619
0
LINE
8
BLACK
6
CONTINUOUS
10
4.94262
20
-4.26619
11
4.9412
21
-4.26598
0
LINE
8
BLACK
6
CONTINUOUS
10
4.9412
20
-4.26598
11
4.93883
21
-4.26446
0
LINE
8
BLACK
6
CONTINUOUS
10
4.93883
20
-4.26446
11
4.93767
21
-4.26189
0
LINE
8
BLACK
6
CONTINUOUS
10
4.93767
20
-4.26189
11
4.93807
21
-4.25911
0
LINE
8
BLACK
6
CONTINUOUS
10
4.93807
20
-4.25911
11
4.93992
21
-4.25698
0
LINE
8
BLACK
6
CONTINUOUS
10
4.93992
20
-4.25698
11
4.94262
21
-4.25619
0
LINE
8
BLACK
6
CONTINUOUS
10
4.94262
20
-4.25619
11
4.99262
21
-4.25619
0
LINE
8
BLACK
6
CONTINUOUS
10
4.99262
20
-4.25619
11
4.99404
21
-4.2564
0
LINE
8
BLACK
6
CONTINUOUS
10
5.35844
20
-4.18372
11
5.35857
21
-4.18371
0
LINE
8
BLACK
6
CONTINUOUS
10
5.35857
20
-4.18371
11
5.3593
21
-4.18422
0
LINE
8
BLACK
6
CONTINUOUS
10
5.3593
20
-4.18422
11
5.36007
21
-4.18466
0
LINE
8
BLACK
6
CONTINUOUS
10
5.36007
20
-4.18466
11
5.36012
21
-4.18479
0
LINE
8
BLACK
6
CONTINUOUS
10
5.36012
20
-4.18479
11
5.36023
21
-4.18487
0
LINE
8
BLACK
6
CONTINUOUS
10
5.36023
20
-4.18487
11
5.36046
21
-4.18573
0
LINE
8
BLACK
6
CONTINUOUS
10
5.36046
20
-4.18573
11
5.36076
21
-4.18656
0
LINE
8
BLACK
6
CONTINUOUS
10
5.36076
20
-4.18656
11
5.36076
21
-4.21093
0
LINE
8
BLACK
6
CONTINUOUS
10
5.36076
20
-4.21093
11
5.36058
21
-4.21194
0
LINE
8
BLACK
6
CONTINUOUS
10
5.36058
20
-4.21194
11
5.35929
21
-4.21349
0
LINE
8
BLACK
6
CONTINUOUS
10
5.35929
20
-4.21349
11
5.3573
21
-4.21384
0
LINE
8
BLACK
6
CONTINUOUS
10
5.3573
20
-4.21384
11
5.35555
21
-4.21283
0
LINE
8
BLACK
6
CONTINUOUS
10
5.35555
20
-4.21283
11
5.35486
21
-4.21093
0
LINE
8
BLACK
6
CONTINUOUS
10
5.35486
20
-4.21093
11
5.35486
21
-4.19369
0
LINE
8
BLACK
6
CONTINUOUS
10
5.35486
20
-4.19369
11
5.3374
21
-4.21115
0
LINE
8
BLACK
6
CONTINUOUS
10
5.3374
20
-4.21115
11
5.33656
21
-4.21173
0
LINE
8
BLACK
6
CONTINUOUS
10
5.33656
20
-4.21173
11
5.33639
21
-4.21175
0
LINE
8
BLACK
6
CONTINUOUS
10
5.33639
20
-4.21175
11
5.33625
21
-4.21186
0
LINE
8
BLACK
6
CONTINUOUS
10
5.33625
20
-4.21186
11
5.33062
21
-4.21373
0
LINE
8
BLACK
6
CONTINUOUS
10
5.33062
20
-4.21373
11
5.32975
21
-4.21386
0
LINE
8
BLACK
6
CONTINUOUS
10
5.32975
20
-4.21386
11
5.32969
21
-4.21389
0
LINE
8
BLACK
6
CONTINUOUS
10
5.32969
20
-4.21389
11
5.32594
21
-4.21389
0
LINE
8
BLACK
6
CONTINUOUS
10
5.32594
20
-4.21389
11
5.32493
21
-4.21371
0
LINE
8
BLACK
6
CONTINUOUS
10
5.32493
20
-4.21371
11
5.32479
21
-4.21359
0
LINE
8
BLACK
6
CONTINUOUS
10
5.32479
20
-4.21359
11
5.32462
21
-4.21357
0
LINE
8
BLACK
6
CONTINUOUS
10
5.32462
20
-4.21357
11
5.32087
21
-4.2117
0
LINE
8
BLACK
6
CONTINUOUS
10
5.32087
20
-4.2117
11
5.32016
21
-4.21117
0
LINE
8
BLACK
6
CONTINUOUS
10
5.32016
20
-4.21117
11
5.3201
21
-4.21115
0
LINE
8
BLACK
6
CONTINUOUS
10
5.3201
20
-4.21115
11
5.31823
21
-4.20927
0
LINE
8
BLACK
6
CONTINUOUS
10
5.31823
20
-4.20927
11
5.31772
21
-4.20855
0
LINE
8
BLACK
6
CONTINUOUS
10
5.31772
20
-4.20855
11
5.31767
21
-4.2085
0
LINE
8
BLACK
6
CONTINUOUS
10
5.31767
20
-4.2085
11
5.3158
21
-4.20476
0
LINE
8
BLACK
6
CONTINUOUS
10
5.3158
20
-4.20476
11
5.31551
21
-4.20377
0
LINE
8
BLACK
6
CONTINUOUS
10
5.31551
20
-4.20377
11
5.31555
21
-4.2036
0
LINE
8
BLACK
6
CONTINUOUS
10
5.31555
20
-4.2036
11
5.31549
21
-4.20343
0
LINE
8
BLACK
6
CONTINUOUS
10
5.31549
20
-4.20343
11
5.31549
21
-4.19406
0
LINE
8
BLACK
6
CONTINUOUS
10
5.31549
20
-4.19406
11
5.31567
21
-4.19305
0
LINE
8
BLACK
6
CONTINUOUS
10
5.31567
20
-4.19305
11
5.31578
21
-4.19292
0
LINE
8
BLACK
6
CONTINUOUS
10
5.31578
20
-4.19292
11
5.3158
21
-4.19274
0
LINE
8
BLACK
6
CONTINUOUS
10
5.3158
20
-4.19274
11
5.31767
21
-4.18899
0
LINE
8
BLACK
6
CONTINUOUS
10
5.31767
20
-4.18899
11
5.3182
21
-4.18828
0
LINE
8
BLACK
6
CONTINUOUS
10
5.3182
20
-4.18828
11
5.31823
21
-4.18822
0
LINE
8
BLACK
6
CONTINUOUS
10
5.31823
20
-4.18822
11
5.3201
21
-4.18635
0
LINE
8
BLACK
6
CONTINUOUS
10
5.3201
20
-4.18635
11
5.32094
21
-4.18576
0
LINE
8
BLACK
6
CONTINUOUS
10
5.32094
20
-4.18576
11
5.32295
21
-4.18558
0
LINE
8
BLACK
6
CONTINUOUS
10
5.32295
20
-4.18558
11
5.32461
21
-4.18674
0
LINE
8
BLACK
6
CONTINUOUS
10
5.32461
20
-4.18674
11
5.32513
21
-4.18869
0
LINE
8
BLACK
6
CONTINUOUS
10
5.32513
20
-4.18869
11
5.32428
21
-4.19052
0
LINE
8
BLACK
6
CONTINUOUS
10
5.32428
20
-4.19052
11
5.32274
21
-4.19206
0
LINE
8
BLACK
6
CONTINUOUS
10
5.32274
20
-4.19206
11
5.32139
21
-4.19476
0
LINE
8
BLACK
6
CONTINUOUS
10
5.32139
20
-4.19476
11
5.32139
21
-4.20274
0
LINE
8
BLACK
6
CONTINUOUS
10
5.32139
20
-4.20274
11
5.32274
21
-4.20543
0
LINE
8
BLACK
6
CONTINUOUS
10
5.32274
20
-4.20543
11
5.32394
21
-4.20663
0
LINE
8
BLACK
6
CONTINUOUS
10
5.32394
20
-4.20663
11
5.32664
21
-4.20798
0
LINE
8
BLACK
6
CONTINUOUS
10
5.32664
20
-4.20798
11
5.32921
21
-4.20798
0
LINE
8
BLACK
6
CONTINUOUS
10
5.32921
20
-4.20798
11
5.33372
21
-4.20648
0
LINE
8
BLACK
6
CONTINUOUS
10
5.33372
20
-4.20648
11
5.35572
21
-4.18447
0
LINE
8
BLACK
6
CONTINUOUS
10
5.35572
20
-4.18447
11
5.35625
21
-4.1841
0
LINE
8
BLACK
6
CONTINUOUS
10
5.35625
20
-4.1841
11
5.35633
21
-4.184
0
LINE
8
BLACK
6
CONTINUOUS
10
5.35633
20
-4.184
11
5.35641
21
-4.18399
0
LINE
8
BLACK
6
CONTINUOUS
10
5.35641
20
-4.18399
11
5.35656
21
-4.18389
0
LINE
8
BLACK
6
CONTINUOUS
10
5.35656
20
-4.18389
11
5.35745
21
-4.18381
0
LINE
8
BLACK
6
CONTINUOUS
10
5.35745
20
-4.18381
11
5.35832
21
-4.18365
0
LINE
8
BLACK
6
CONTINUOUS
10
5.35832
20
-4.18365
11
5.35844
21
-4.18372
0
LINE
8
BLACK
6
CONTINUOUS
10
5.24145
20
-4.18606
11
5.24256
21
-4.18775
0
LINE
8
BLACK
6
CONTINUOUS
10
5.24256
20
-4.18775
11
5.24233
21
-4.18976
0
LINE
8
BLACK
6
CONTINUOUS
10
5.24233
20
-4.18976
11
5.24046
21
-4.19351
0
LINE
8
BLACK
6
CONTINUOUS
10
5.24046
20
-4.19351
11
5.23993
21
-4.19422
0
LINE
8
BLACK
6
CONTINUOUS
10
5.23993
20
-4.19422
11
5.2399
21
-4.19427
0
LINE
8
BLACK
6
CONTINUOUS
10
5.2399
20
-4.19427
11
5.23744
21
-4.19673
0
LINE
8
BLACK
6
CONTINUOUS
10
5.23744
20
-4.19673
11
5.26486
21
-4.19673
0
LINE
8
BLACK
6
CONTINUOUS
10
5.26486
20
-4.19673
11
5.26486
21
-4.18844
0
LINE
8
BLACK
6
CONTINUOUS
10
5.26486
20
-4.18844
11
5.26504
21
-4.18743
0
LINE
8
BLACK
6
CONTINUOUS
10
5.26504
20
-4.18743
11
5.26633
21
-4.18588
0
LINE
8
BLACK
6
CONTINUOUS
10
5.26633
20
-4.18588
11
5.26832
21
-4.18553
0
LINE
8
BLACK
6
CONTINUOUS
10
5.26832
20
-4.18553
11
5.27007
21
-4.18654
0
LINE
8
BLACK
6
CONTINUOUS
10
5.27007
20
-4.18654
11
5.27076
21
-4.18844
0
LINE
8
BLACK
6
CONTINUOUS
10
5.27076
20
-4.18844
11
5.27076
21
-4.21093
0
LINE
8
BLACK
6
CONTINUOUS
10
5.27076
20
-4.21093
11
5.27058
21
-4.21194
0
LINE
8
BLACK
6
CONTINUOUS
10
5.27058
20
-4.21194
11
5.26929
21
-4.21349
0
LINE
8
BLACK
6
CONTINUOUS
10
5.26929
20
-4.21349
11
5.2673
21
-4.21384
0
LINE
8
BLACK
6
CONTINUOUS
10
5.2673
20
-4.21384
11
5.26555
21
-4.21283
0
LINE
8
BLACK
6
CONTINUOUS
10
5.26555
20
-4.21283
11
5.26486
21
-4.21093
0
LINE
8
BLACK
6
CONTINUOUS
10
5.26486
20
-4.21093
11
5.26486
21
-4.20264
0
LINE
8
BLACK
6
CONTINUOUS
10
5.26486
20
-4.20264
11
5.22844
21
-4.20264
0
LINE
8
BLACK
6
CONTINUOUS
10
5.22844
20
-4.20264
11
5.22743
21
-4.20246
0
LINE
8
BLACK
6
CONTINUOUS
10
5.22743
20
-4.20246
11
5.2273
21
-4.20235
0
LINE
8
BLACK
6
CONTINUOUS
10
5.2273
20
-4.20235
11
5.22713
21
-4.20233
0
LINE
8
BLACK
6
CONTINUOUS
10
5.22713
20
-4.20233
11
5.22654
21
-4.20171
0
LINE
8
BLACK
6
CONTINUOUS
10
5.22654
20
-4.20171
11
5.22588
21
-4.20116
0
LINE
8
BLACK
6
CONTINUOUS
10
5.22588
20
-4.20116
11
5.22585
21
-4.20099
0
LINE
8
BLACK
6
CONTINUOUS
10
5.22585
20
-4.20099
11
5.22574
21
-4.20087
0
LINE
8
BLACK
6
CONTINUOUS
10
5.22574
20
-4.20087
11
5.22568
21
-4.20002
0
LINE
8
BLACK
6
CONTINUOUS
10
5.22568
20
-4.20002
11
5.22553
21
-4.19917
0
LINE
8
BLACK
6
CONTINUOUS
10
5.22553
20
-4.19917
11
5.22562
21
-4.19903
0
LINE
8
BLACK
6
CONTINUOUS
10
5.22562
20
-4.19903
11
5.22561
21
-4.19886
0
LINE
8
BLACK
6
CONTINUOUS
10
5.22561
20
-4.19886
11
5.22611
21
-4.19817
0
LINE
8
BLACK
6
CONTINUOUS
10
5.22611
20
-4.19817
11
5.22654
21
-4.19742
0
LINE
8
BLACK
6
CONTINUOUS
10
5.22654
20
-4.19742
11
5.2267
21
-4.19737
0
LINE
8
BLACK
6
CONTINUOUS
10
5.2267
20
-4.19737
11
5.2268
21
-4.19723
0
LINE
8
BLACK
6
CONTINUOUS
10
5.2268
20
-4.19723
11
5.23218
21
-4.19364
0
LINE
8
BLACK
6
CONTINUOUS
10
5.23218
20
-4.19364
11
5.23539
21
-4.19044
0
LINE
8
BLACK
6
CONTINUOUS
10
5.23539
20
-4.19044
11
5.23705
21
-4.18712
0
LINE
8
BLACK
6
CONTINUOUS
10
5.23705
20
-4.18712
11
5.23766
21
-4.18629
0
LINE
8
BLACK
6
CONTINUOUS
10
5.23766
20
-4.18629
11
5.23951
21
-4.18549
0
LINE
8
BLACK
6
CONTINUOUS
10
5.23951
20
-4.18549
11
5.24145
21
-4.18606
0
LINE
8
BLACK
6
CONTINUOUS
10
5.34152
20
-4.14622
11
5.34165
21
-4.1462
0
LINE
8
BLACK
6
CONTINUOUS
10
5.34165
20
-4.1462
11
5.34915
21
-4.14808
0
LINE
8
BLACK
6
CONTINUOUS
10
5.34915
20
-4.14808
11
5.34962
21
-4.14828
0
LINE
8
BLACK
6
CONTINUOUS
10
5.34962
20
-4.14828
11
5.34976
21
-4.1483
0
LINE
8
BLACK
6
CONTINUOUS
10
5.34976
20
-4.1483
11
5.35351
21
-4.15017
0
LINE
8
BLACK
6
CONTINUOUS
10
5.35351
20
-4.15017
11
5.35422
21
-4.1507
0
LINE
8
BLACK
6
CONTINUOUS
10
5.35422
20
-4.1507
11
5.35427
21
-4.15073
0
LINE
8
BLACK
6
CONTINUOUS
10
5.35427
20
-4.15073
11
5.35802
21
-4.15448
0
LINE
8
BLACK
6
CONTINUOUS
10
5.35802
20
-4.15448
11
5.35861
21
-4.15532
0
LINE
8
BLACK
6
CONTINUOUS
10
5.35861
20
-4.15532
11
5.35863
21
-4.15549
0
LINE
8
BLACK
6
CONTINUOUS
10
5.35863
20
-4.15549
11
5.35874
21
-4.15563
0
LINE
8
BLACK
6
CONTINUOUS
10
5.35874
20
-4.15563
11
5.36061
21
-4.16126
0
LINE
8
BLACK
6
CONTINUOUS
10
5.36061
20
-4.16126
11
5.36074
21
-4.16213
0
LINE
8
BLACK
6
CONTINUOUS
10
5.36074
20
-4.16213
11
5.36076
21
-4.16219
0
LINE
8
BLACK
6
CONTINUOUS
10
5.36076
20
-4.16219
11
5.36076
21
-4.16594
0
LINE
8
BLACK
6
CONTINUOUS
10
5.36076
20
-4.16594
11
5.36061
21
-4.16681
0
LINE
8
BLACK
6
CONTINUOUS
10
5.36061
20
-4.16681
11
5.36061
21
-4.16687
0
LINE
8
BLACK
6
CONTINUOUS
10
5.36061
20
-4.16687
11
5.35874
21
-4.1725
0
LINE
8
BLACK
6
CONTINUOUS
10
5.35874
20
-4.1725
11
5.35825
21
-4.1734
0
LINE
8
BLACK
6
CONTINUOUS
10
5.35825
20
-4.1734
11
5.3581
21
-4.17349
0
LINE
8
BLACK
6
CONTINUOUS
10
5.3581
20
-4.17349
11
5.35802
21
-4.17365
0
LINE
8
BLACK
6
CONTINUOUS
10
5.35802
20
-4.17365
11
5.35615
21
-4.17553
0
LINE
8
BLACK
6
CONTINUOUS
10
5.35615
20
-4.17553
11
5.35531
21
-4.17611
0
LINE
8
BLACK
6
CONTINUOUS
10
5.35531
20
-4.17611
11
5.3533
21
-4.17629
0
LINE
8
BLACK
6
CONTINUOUS
10
5.3533
20
-4.17629
11
5.35164
21
-4.17513
0
LINE
8
BLACK
6
CONTINUOUS
10
5.35164
20
-4.17513
11
5.35112
21
-4.17318
0
LINE
8
BLACK
6
CONTINUOUS
10
5.35112
20
-4.17318
11
5.35197
21
-4.17135
0
LINE
8
BLACK
6
CONTINUOUS
10
5.35197
20
-4.17135
11
5.35335
21
-4.16997
0
LINE
8
BLACK
6
CONTINUOUS
10
5.35335
20
-4.16997
11
5.35486
21
-4.16546
0
LINE
8
BLACK
6
CONTINUOUS
10
5.35486
20
-4.16546
11
5.35486
21
-4.16267
0
LINE
8
BLACK
6
CONTINUOUS
10
5.35486
20
-4.16267
11
5.35335
21
-4.15816
0
LINE
8
BLACK
6
CONTINUOUS
10
5.35335
20
-4.15816
11
5.35044
21
-4.15524
0
LINE
8
BLACK
6
CONTINUOUS
10
5.35044
20
-4.15524
11
5.34741
21
-4.15373
0
LINE
8
BLACK
6
CONTINUOUS
10
5.34741
20
-4.15373
11
5.34057
21
-4.15202
0
LINE
8
BLACK
6
CONTINUOUS
10
5.34057
20
-4.15202
11
5.33568
21
-4.15202
0
LINE
8
BLACK
6
CONTINUOUS
10
5.33568
20
-4.15202
11
5.32884
21
-4.15373
0
LINE
8
BLACK
6
CONTINUOUS
10
5.32884
20
-4.15373
11
5.32581
21
-4.15524
0
LINE
8
BLACK
6
CONTINUOUS
10
5.32581
20
-4.15524
11
5.3229
21
-4.15816
0
LINE
8
BLACK
6
CONTINUOUS
10
5.3229
20
-4.15816
11
5.32139
21
-4.16267
0
LINE
8
BLACK
6
CONTINUOUS
10
5.32139
20
-4.16267
11
5.32139
21
-4.16546
0
LINE
8
BLACK
6
CONTINUOUS
10
5.32139
20
-4.16546
11
5.3229
21
-4.16997
0
LINE
8
BLACK
6
CONTINUOUS
10
5.3229
20
-4.16997
11
5.32428
21
-4.17135
0
LINE
8
BLACK
6
CONTINUOUS
10
5.32428
20
-4.17135
11
5.32487
21
-4.17219
0
LINE
8
BLACK
6
CONTINUOUS
10
5.32487
20
-4.17219
11
5.32504
21
-4.1742
0
LINE
8
BLACK
6
CONTINUOUS
10
5.32504
20
-4.1742
11
5.32388
21
-4.17586
0
LINE
8
BLACK
6
CONTINUOUS
10
5.32388
20
-4.17586
11
5.32193
21
-4.17638
0
LINE
8
BLACK
6
CONTINUOUS
10
5.32193
20
-4.17638
11
5.3201
21
-4.17553
0
LINE
8
BLACK
6
CONTINUOUS
10
5.3201
20
-4.17553
11
5.31823
21
-4.17365
0
LINE
8
BLACK
6
CONTINUOUS
10
5.31823
20
-4.17365
11
5.31764
21
-4.17281
0
LINE
8
BLACK
6
CONTINUOUS
10
5.31764
20
-4.17281
11
5.31762
21
-4.17264
0
LINE
8
BLACK
6
CONTINUOUS
10
5.31762
20
-4.17264
11
5.31751
21
-4.1725
0
LINE
8
BLACK
6
CONTINUOUS
10
5.31751
20
-4.1725
11
5.31564
21
-4.16687
0
LINE
8
BLACK
6
CONTINUOUS
10
5.31564
20
-4.16687
11
5.31551
21
-4.166
0
LINE
8
BLACK
6
CONTINUOUS
10
5.31551
20
-4.166
11
5.31549
21
-4.16594
0
LINE
8
BLACK
6
CONTINUOUS
10
5.31549
20
-4.16594
11
5.31549
21
-4.16219
0
LINE
8
BLACK
6
CONTINUOUS
10
5.31549
20
-4.16219
11
5.31564
21
-4.16132
0
LINE
8
BLACK
6
CONTINUOUS
10
5.31564
20
-4.16132
11
5.31564
21
-4.16126
0
LINE
8
BLACK
6
CONTINUOUS
10
5.31564
20
-4.16126
11
5.31751
21
-4.15563
0
LINE
8
BLACK
6
CONTINUOUS
10
5.31751
20
-4.15563
11
5.318
21
-4.15473
0
LINE
8
BLACK
6
CONTINUOUS
10
5.318
20
-4.15473
11
5.31815
21
-4.15464
0
LINE
8
BLACK
6
CONTINUOUS
10
5.31815
20
-4.15464
11
5.31823
21
-4.15448
0
LINE
8
BLACK
6
CONTINUOUS
10
5.31823
20
-4.15448
11
5.32198
21
-4.15073
0
LINE
8
BLACK
6
CONTINUOUS
10
5.32198
20
-4.15073
11
5.3227
21
-4.15022
0
LINE
8
BLACK
6
CONTINUOUS
10
5.3227
20
-4.15022
11
5.32274
21
-4.15017
0
LINE
8
BLACK
6
CONTINUOUS
10
5.32274
20
-4.15017
11
5.32649
21
-4.1483
0
LINE
8
BLACK
6
CONTINUOUS
10
5.32649
20
-4.1483
11
5.32698
21
-4.14815
0
LINE
8
BLACK
6
CONTINUOUS
10
5.32698
20
-4.14815
11
5.3271
21
-4.14808
0
LINE
8
BLACK
6
CONTINUOUS
10
5.3271
20
-4.14808
11
5.3346
21
-4.1462
0
LINE
8
BLACK
6
CONTINUOUS
10
5.3346
20
-4.1462
11
5.33518
21
-4.14616
0
LINE
8
BLACK
6
CONTINUOUS
10
5.33518
20
-4.14616
11
5.33531
21
-4.14611
0
LINE
8
BLACK
6
CONTINUOUS
10
5.33531
20
-4.14611
11
5.34094
21
-4.14611
0
LINE
8
BLACK
6
CONTINUOUS
10
5.34094
20
-4.14611
11
5.34152
21
-4.14622
0
LINE
8
BLACK
6
CONTINUOUS
10
5.25152
20
-4.14622
11
5.25165
21
-4.1462
0
LINE
8
BLACK
6
CONTINUOUS
10
5.25165
20
-4.1462
11
5.25915
21
-4.14808
0
LINE
8
BLACK
6
CONTINUOUS
10
5.25915
20
-4.14808
11
5.25962
21
-4.14828
0
LINE
8
BLACK
6
CONTINUOUS
10
5.25962
20
-4.14828
11
5.25976
21
-4.1483
0
LINE
8
BLACK
6
CONTINUOUS
10
5.25976
20
-4.1483
11
5.26351
21
-4.15017
0
LINE
8
BLACK
6
CONTINUOUS
10
5.26351
20
-4.15017
11
5.26422
21
-4.1507
0
LINE
8
BLACK
6
CONTINUOUS
10
5.26422
20
-4.1507
11
5.26427
21
-4.15073
0
LINE
8
BLACK
6
CONTINUOUS
10
5.26427
20
-4.15073
11
5.26802
21
-4.15448
0
LINE
8
BLACK
6
CONTINUOUS
10
5.26802
20
-4.15448
11
5.26861
21
-4.15532
0
LINE
8
BLACK
6
CONTINUOUS
10
5.26861
20
-4.15532
11
5.26863
21
-4.15549
0
LINE
8
BLACK
6
CONTINUOUS
10
5.26863
20
-4.15549
11
5.26874
21
-4.15563
0
LINE
8
BLACK
6
CONTINUOUS
10
5.26874
20
-4.15563
11
5.27061
21
-4.16126
0
LINE
8
BLACK
6
CONTINUOUS
10
5.27061
20
-4.16126
11
5.27074
21
-4.16213
0
LINE
8
BLACK
6
CONTINUOUS
10
5.27074
20
-4.16213
11
5.27076
21
-4.16219
0
LINE
8
BLACK
6
CONTINUOUS
10
5.27076
20
-4.16219
11
5.27076
21
-4.16594
0
LINE
8
BLACK
6
CONTINUOUS
10
5.27076
20
-4.16594
11
5.27061
21
-4.16681
0
LINE
8
BLACK
6
CONTINUOUS
10
5.27061
20
-4.16681
11
5.27061
21
-4.16687
0
LINE
8
BLACK
6
CONTINUOUS
10
5.27061
20
-4.16687
11
5.26874
21
-4.1725
0
LINE
8
BLACK
6
CONTINUOUS
10
5.26874
20
-4.1725
11
5.26825
21
-4.1734
0
LINE
8
BLACK
6
CONTINUOUS
10
5.26825
20
-4.1734
11
5.2681
21
-4.17349
0
LINE
8
BLACK
6
CONTINUOUS
10
5.2681
20
-4.17349
11
5.26802
21
-4.17365
0
LINE
8
BLACK
6
CONTINUOUS
10
5.26802
20
-4.17365
11
5.26615
21
-4.17553
0
LINE
8
BLACK
6
CONTINUOUS
10
5.26615
20
-4.17553
11
5.26531
21
-4.17611
0
LINE
8
BLACK
6
CONTINUOUS
10
5.26531
20
-4.17611
11
5.2633
21
-4.17629
0
LINE
8
BLACK
6
CONTINUOUS
10
5.2633
20
-4.17629
11
5.26164
21
-4.17513
0
LINE
8
BLACK
6
CONTINUOUS
10
5.26164
20
-4.17513
11
5.26112
21
-4.17318
0
LINE
8
BLACK
6
CONTINUOUS
10
5.26112
20
-4.17318
11
5.26197
21
-4.17135
0
LINE
8
BLACK
6
CONTINUOUS
10
5.26197
20
-4.17135
11
5.26335
21
-4.16997
0
LINE
8
BLACK
6
CONTINUOUS
10
5.26335
20
-4.16997
11
5.26486
21
-4.16546
0
LINE
8
BLACK
6
CONTINUOUS
10
5.26486
20
-4.16546
11
5.26486
21
-4.16267
0
LINE
8
BLACK
6
CONTINUOUS
10
5.26486
20
-4.16267
11
5.26335
21
-4.15816
0
LINE
8
BLACK
6
CONTINUOUS
10
5.26335
20
-4.15816
11
5.26044
21
-4.15524
0
LINE
8
BLACK
6
CONTINUOUS
10
5.26044
20
-4.15524
11
5.25741
21
-4.15373
0
LINE
8
BLACK
6
CONTINUOUS
10
5.25741
20
-4.15373
11
5.25057
21
-4.15202
0
LINE
8
BLACK
6
CONTINUOUS
10
5.25057
20
-4.15202
11
5.24568
21
-4.15202
0
LINE
8
BLACK
6
CONTINUOUS
10
5.24568
20
-4.15202
11
5.23884
21
-4.15373
0
LINE
8
BLACK
6
CONTINUOUS
10
5.23884
20
-4.15373
11
5.23581
21
-4.15524
0
LINE
8
BLACK
6
CONTINUOUS
10
5.23581
20
-4.15524
11
5.2329
21
-4.15816
0
LINE
8
BLACK
6
CONTINUOUS
10
5.2329
20
-4.15816
11
5.23139
21
-4.16267
0
LINE
8
BLACK
6
CONTINUOUS
10
5.23139
20
-4.16267
11
5.23139
21
-4.16546
0
LINE
8
BLACK
6
CONTINUOUS
10
5.23139
20
-4.16546
11
5.2329
21
-4.16997
0
LINE
8
BLACK
6
CONTINUOUS
10
5.2329
20
-4.16997
11
5.23428
21
-4.17135
0
LINE
8
BLACK
6
CONTINUOUS
10
5.23428
20
-4.17135
11
5.23487
21
-4.17219
0
LINE
8
BLACK
6
CONTINUOUS
10
5.23487
20
-4.17219
11
5.23504
21
-4.1742
0
LINE
8
BLACK
6
CONTINUOUS
10
5.23504
20
-4.1742
11
5.23388
21
-4.17586
0
LINE
8
BLACK
6
CONTINUOUS
10
5.23388
20
-4.17586
11
5.23193
21
-4.17638
0
LINE
8
BLACK
6
CONTINUOUS
10
5.23193
20
-4.17638
11
5.2301
21
-4.17553
0
LINE
8
BLACK
6
CONTINUOUS
10
5.2301
20
-4.17553
11
5.22823
21
-4.17365
0
LINE
8
BLACK
6
CONTINUOUS
10
5.22823
20
-4.17365
11
5.22764
21
-4.17281
0
LINE
8
BLACK
6
CONTINUOUS
10
5.22764
20
-4.17281
11
5.22762
21
-4.17264
0
LINE
8
BLACK
6
CONTINUOUS
10
5.22762
20
-4.17264
11
5.22751
21
-4.1725
0
LINE
8
BLACK
6
CONTINUOUS
10
5.22751
20
-4.1725
11
5.22564
21
-4.16687
0
LINE
8
BLACK
6
CONTINUOUS
10
5.22564
20
-4.16687
11
5.22551
21
-4.166
0
LINE
8
BLACK
6
CONTINUOUS
10
5.22551
20
-4.166
11
5.22549
21
-4.16594
0
LINE
8
BLACK
6
CONTINUOUS
10
5.22549
20
-4.16594
11
5.22549
21
-4.16219
0
LINE
8
BLACK
6
CONTINUOUS
10
5.22549
20
-4.16219
11
5.22564
21
-4.16132
0
LINE
8
BLACK
6
CONTINUOUS
10
5.22564
20
-4.16132
11
5.22564
21
-4.16126
0
LINE
8
BLACK
6
CONTINUOUS
10
5.22564
20
-4.16126
11
5.22751
21
-4.15563
0
LINE
8
BLACK
6
CONTINUOUS
10
5.22751
20
-4.15563
11
5.228
21
-4.15473
0
LINE
8
BLACK
6
CONTINUOUS
10
5.228
20
-4.15473
11
5.22815
21
-4.15464
0
LINE
8
BLACK
6
CONTINUOUS
10
5.22815
20
-4.15464
11
5.22823
21
-4.15448
0
LINE
8
BLACK
6
CONTINUOUS
10
5.22823
20
-4.15448
11
5.23198
21
-4.15073
0
LINE
8
BLACK
6
CONTINUOUS
10
5.23198
20
-4.15073
11
5.2327
21
-4.15022
0
LINE
8
BLACK
6
CONTINUOUS
10
5.2327
20
-4.15022
11
5.23274
21
-4.15017
0
LINE
8
BLACK
6
CONTINUOUS
10
5.23274
20
-4.15017
11
5.23649
21
-4.1483
0
LINE
8
BLACK
6
CONTINUOUS
10
5.23649
20
-4.1483
11
5.23698
21
-4.14815
0
LINE
8
BLACK
6
CONTINUOUS
10
5.23698
20
-4.14815
11
5.2371
21
-4.14808
0
LINE
8
BLACK
6
CONTINUOUS
10
5.2371
20
-4.14808
11
5.2446
21
-4.1462
0
LINE
8
BLACK
6
CONTINUOUS
10
5.2446
20
-4.1462
11
5.24518
21
-4.14616
0
LINE
8
BLACK
6
CONTINUOUS
10
5.24518
20
-4.14616
11
5.24531
21
-4.14611
0
LINE
8
BLACK
6
CONTINUOUS
10
5.24531
20
-4.14611
11
5.25094
21
-4.14611
0
LINE
8
BLACK
6
CONTINUOUS
10
5.25094
20
-4.14611
11
5.25152
21
-4.14622
0
LINE
8
BLACK
6
CONTINUOUS
10
5.46061
20
-4.13727
11
5.4613
21
-4.13894
0
LINE
8
BLACK
6
CONTINUOUS
10
5.4613
20
-4.13894
11
5.46061
21
-4.14061
0
LINE
8
BLACK
6
CONTINUOUS
10
5.46061
20
-4.14061
11
5.45894
21
-4.1413
0
LINE
8
BLACK
6
CONTINUOUS
10
5.45894
20
-4.1413
11
5.44106
21
-4.1413
0
LINE
8
BLACK
6
CONTINUOUS
10
5.44106
20
-4.1413
11
5.43939
21
-4.14061
0
LINE
8
BLACK
6
CONTINUOUS
10
5.43939
20
-4.14061
11
5.4387
21
-4.13894
0
LINE
8
BLACK
6
CONTINUOUS
10
5.4387
20
-4.13894
11
5.43939
21
-4.13727
0
LINE
8
BLACK
6
CONTINUOUS
10
5.43939
20
-4.13727
11
5.44106
21
-4.13657
0
LINE
8
BLACK
6
CONTINUOUS
10
5.44106
20
-4.13657
11
5.45894
21
-4.13657
0
LINE
8
BLACK
6
CONTINUOUS
10
5.45894
20
-4.13657
11
5.46061
21
-4.13727
0
LINE
8
BLACK
6
CONTINUOUS
10
5.30061
20
-4.13727
11
5.3013
21
-4.13894
0
LINE
8
BLACK
6
CONTINUOUS
10
5.3013
20
-4.13894
11
5.30061
21
-4.14061
0
LINE
8
BLACK
6
CONTINUOUS
10
5.30061
20
-4.14061
11
5.29894
21
-4.1413
0
LINE
8
BLACK
6
CONTINUOUS
10
5.29894
20
-4.1413
11
5.28106
21
-4.1413
0
LINE
8
BLACK
6
CONTINUOUS
10
5.28106
20
-4.1413
11
5.27939
21
-4.14061
0
LINE
8
BLACK
6
CONTINUOUS
10
5.27939
20
-4.14061
11
5.2787
21
-4.13894
0
LINE
8
BLACK
6
CONTINUOUS
10
5.2787
20
-4.13894
11
5.27939
21
-4.13727
0
LINE
8
BLACK
6
CONTINUOUS
10
5.27939
20
-4.13727
11
5.28106
21
-4.13657
0
LINE
8
BLACK
6
CONTINUOUS
10
5.28106
20
-4.13657
11
5.29894
21
-4.13657
0
LINE
8
BLACK
6
CONTINUOUS
10
5.29894
20
-4.13657
11
5.30061
21
-4.13727
0
LINE
8
BLACK
6
CONTINUOUS
10
5.53097
20
-4.08562
11
5.53114
21
-4.08561
0
LINE
8
BLACK
6
CONTINUOUS
10
5.53114
20
-4.08561
11
5.53183
21
-4.08611
0
LINE
8
BLACK
6
CONTINUOUS
10
5.53183
20
-4.08611
11
5.53258
21
-4.08654
0
LINE
8
BLACK
6
CONTINUOUS
10
5.53258
20
-4.08654
11
5.53263
21
-4.0867
0
LINE
8
BLACK
6
CONTINUOUS
10
5.53263
20
-4.0867
11
5.53277
21
-4.0868
0
LINE
8
BLACK
6
CONTINUOUS
10
5.53277
20
-4.0868
11
5.53636
21
-4.09218
0
LINE
8
BLACK
6
CONTINUOUS
10
5.53636
20
-4.09218
11
5.53956
21
-4.09539
0
LINE
8
BLACK
6
CONTINUOUS
10
5.53956
20
-4.09539
11
5.54288
21
-4.09705
0
LINE
8
BLACK
6
CONTINUOUS
10
5.54288
20
-4.09705
11
5.54371
21
-4.09766
0
LINE
8
BLACK
6
CONTINUOUS
10
5.54371
20
-4.09766
11
5.54451
21
-4.09951
0
LINE
8
BLACK
6
CONTINUOUS
10
5.54451
20
-4.09951
11
5.54394
21
-4.10145
0
LINE
8
BLACK
6
CONTINUOUS
10
5.54394
20
-4.10145
11
5.54225
21
-4.10256
0
LINE
8
BLACK
6
CONTINUOUS
10
5.54225
20
-4.10256
11
5.54024
21
-4.10233
0
LINE
8
BLACK
6
CONTINUOUS
10
5.54024
20
-4.10233
11
5.53649
21
-4.10046
0
LINE
8
BLACK
6
CONTINUOUS
10
5.53649
20
-4.10046
11
5.53578
21
-4.09993
0
LINE
8
BLACK
6
CONTINUOUS
10
5.53578
20
-4.09993
11
5.53573
21
-4.0999
0
LINE
8
BLACK
6
CONTINUOUS
10
5.53573
20
-4.0999
11
5.53327
21
-4.09744
0
LINE
8
BLACK
6
CONTINUOUS
10
5.53327
20
-4.09744
11
5.53327
21
-4.12486
0
LINE
8
BLACK
6
CONTINUOUS
10
5.53327
20
-4.12486
11
5.54156
21
-4.12486
0
LINE
8
BLACK
6
CONTINUOUS
10
5.54156
20
-4.12486
11
5.54257
21
-4.12504
0
LINE
8
BLACK
6
CONTINUOUS
10
5.54257
20
-4.12504
11
5.54412
21
-4.12633
0
LINE
8
BLACK
6
CONTINUOUS
10
5.54412
20
-4.12633
11
5.54447
21
-4.12832
0
LINE
8
BLACK
6
CONTINUOUS
10
5.54447
20
-4.12832
11
5.54346
21
-4.13007
0
LINE
8
BLACK
6
CONTINUOUS
10
5.54346
20
-4.13007
11
5.54156
21
-4.13076
0
LINE
8
BLACK
6
CONTINUOUS
10
5.54156
20
-4.13076
11
5.51907
21
-4.13076
0
LINE
8
BLACK
6
CONTINUOUS
10
5.51907
20
-4.13076
11
5.51806
21
-4.13058
0
LINE
8
BLACK
6
CONTINUOUS
10
5.51806
20
-4.13058
11
5.51651
21
-4.12929
0
LINE
8
BLACK
6
CONTINUOUS
10
5.51651
20
-4.12929
11
5.51616
21
-4.1273
0
LINE
8
BLACK
6
CONTINUOUS
10
5.51616
20
-4.1273
11
5.51717
21
-4.12555
0
LINE
8
BLACK
6
CONTINUOUS
10
5.51717
20
-4.12555
11
5.51907
21
-4.12486
0
LINE
8
BLACK
6
CONTINUOUS
10
5.51907
20
-4.12486
11
5.52736
21
-4.12486
0
LINE
8
BLACK
6
CONTINUOUS
10
5.52736
20
-4.12486
11
5.52736
21
-4.08844
0
LINE
8
BLACK
6
CONTINUOUS
10
5.52736
20
-4.08844
11
5.52754
21
-4.08743
0
LINE
8
BLACK
6
CONTINUOUS
10
5.52754
20
-4.08743
11
5.52765
21
-4.0873
0
LINE
8
BLACK
6
CONTINUOUS
10
5.52765
20
-4.0873
11
5.52767
21
-4.08713
0
LINE
8
BLACK
6
CONTINUOUS
10
5.52767
20
-4.08713
11
5.52829
21
-4.08654
0
LINE
8
BLACK
6
CONTINUOUS
10
5.52829
20
-4.08654
11
5.52884
21
-4.08588
0
LINE
8
BLACK
6
CONTINUOUS
10
5.52884
20
-4.08588
11
5.52901
21
-4.08585
0
LINE
8
BLACK
6
CONTINUOUS
10
5.52901
20
-4.08585
11
5.52913
21
-4.08574
0
LINE
8
BLACK
6
CONTINUOUS
10
5.52913
20
-4.08574
11
5.52998
21
-4.08568
0
LINE
8
BLACK
6
CONTINUOUS
10
5.52998
20
-4.08568
11
5.53083
21
-4.08553
0
LINE
8
BLACK
6
CONTINUOUS
10
5.53083
20
-4.08553
11
5.53097
21
-4.08562
0
LINE
8
BLACK
6
CONTINUOUS
10
5.17695
20
-4.08567
11
5.17708
21
-4.08578
0
LINE
8
BLACK
6
CONTINUOUS
10
5.17708
20
-4.08578
11
5.17726
21
-4.0858
0
LINE
8
BLACK
6
CONTINUOUS
10
5.17726
20
-4.0858
11
5.18101
21
-4.08767
0
LINE
8
BLACK
6
CONTINUOUS
10
5.18101
20
-4.08767
11
5.18172
21
-4.0882
0
LINE
8
BLACK
6
CONTINUOUS
10
5.18172
20
-4.0882
11
5.18178
21
-4.08823
0
LINE
8
BLACK
6
CONTINUOUS
10
5.18178
20
-4.08823
11
5.18365
21
-4.0901
0
LINE
8
BLACK
6
CONTINUOUS
10
5.18365
20
-4.0901
11
5.18424
21
-4.09094
0
LINE
8
BLACK
6
CONTINUOUS
10
5.18424
20
-4.09094
11
5.18442
21
-4.09295
0
LINE
8
BLACK
6
CONTINUOUS
10
5.18442
20
-4.09295
11
5.18326
21
-4.09461
0
LINE
8
BLACK
6
CONTINUOUS
10
5.18326
20
-4.09461
11
5.18131
21
-4.09513
0
LINE
8
BLACK
6
CONTINUOUS
10
5.18131
20
-4.09513
11
5.17948
21
-4.09428
0
LINE
8
BLACK
6
CONTINUOUS
10
5.17948
20
-4.09428
11
5.17794
21
-4.09274
0
LINE
8
BLACK
6
CONTINUOUS
10
5.17794
20
-4.09274
11
5.17524
21
-4.09139
0
LINE
8
BLACK
6
CONTINUOUS
10
5.17524
20
-4.09139
11
5.16726
21
-4.09139
0
LINE
8
BLACK
6
CONTINUOUS
10
5.16726
20
-4.09139
11
5.16456
21
-4.09274
0
LINE
8
BLACK
6
CONTINUOUS
10
5.16456
20
-4.09274
11
5.16337
21
-4.09394
0
LINE
8
BLACK
6
CONTINUOUS
10
5.16337
20
-4.09394
11
5.16202
21
-4.09664
0
LINE
8
BLACK
6
CONTINUOUS
10
5.16202
20
-4.09664
11
5.16202
21
-4.09921
0
LINE
8
BLACK
6
CONTINUOUS
10
5.16202
20
-4.09921
11
5.16352
21
-4.10372
0
LINE
8
BLACK
6
CONTINUOUS
10
5.16352
20
-4.10372
11
5.18553
21
-4.12572
0
LINE
8
BLACK
6
CONTINUOUS
10
5.18553
20
-4.12572
11
5.1859
21
-4.12625
0
LINE
8
BLACK
6
CONTINUOUS
10
5.1859
20
-4.12625
11
5.186
21
-4.12633
0
LINE
8
BLACK
6
CONTINUOUS
10
5.186
20
-4.12633
11
5.18601
21
-4.12641
0
LINE
8
BLACK
6
CONTINUOUS
10
5.18601
20
-4.12641
11
5.18611
21
-4.12656
0
LINE
8
BLACK
6
CONTINUOUS
10
5.18611
20
-4.12656
11
5.18619
21
-4.12745
0
LINE
8
BLACK
6
CONTINUOUS
10
5.18619
20
-4.12745
11
5.18635
21
-4.12832
0
LINE
8
BLACK
6
CONTINUOUS
10
5.18635
20
-4.12832
11
5.18628
21
-4.12844
0
LINE
8
BLACK
6
CONTINUOUS
10
5.18628
20
-4.12844
11
5.18629
21
-4.12857
0
LINE
8
BLACK
6
CONTINUOUS
10
5.18629
20
-4.12857
11
5.18578
21
-4.1293
0
LINE
8
BLACK
6
CONTINUOUS
10
5.18578
20
-4.1293
11
5.18534
21
-4.13007
0
LINE
8
BLACK
6
CONTINUOUS
10
5.18534
20
-4.13007
11
5.18521
21
-4.13012
0
LINE
8
BLACK
6
CONTINUOUS
10
5.18521
20
-4.13012
11
5.18513
21
-4.13023
0
LINE
8
BLACK
6
CONTINUOUS
10
5.18513
20
-4.13023
11
5.18427
21
-4.13046
0
LINE
8
BLACK
6
CONTINUOUS
10
5.18427
20
-4.13046
11
5.18344
21
-4.13076
0
LINE
8
BLACK
6
CONTINUOUS
10
5.18344
20
-4.13076
11
5.15907
21
-4.13076
0
LINE
8
BLACK
6
CONTINUOUS
10
5.15907
20
-4.13076
11
5.15806
21
-4.13058
0
LINE
8
BLACK
6
CONTINUOUS
10
5.15806
20
-4.13058
11
5.15651
21
-4.12929
0
LINE
8
BLACK
6
CONTINUOUS
10
5.15651
20
-4.12929
11
5.15616
21
-4.1273
0
LINE
8
BLACK
6
CONTINUOUS
10
5.15616
20
-4.1273
11
5.15717
21
-4.12555
0
LINE
8
BLACK
6
CONTINUOUS
10
5.15717
20
-4.12555
11
5.15907
21
-4.12486
0
LINE
8
BLACK
6
CONTINUOUS
10
5.15907
20
-4.12486
11
5.17631
21
-4.12486
0
LINE
8
BLACK
6
CONTINUOUS
10
5.17631
20
-4.12486
11
5.15885
21
-4.1074
0
LINE
8
BLACK
6
CONTINUOUS
10
5.15885
20
-4.1074
11
5.15827
21
-4.10656
0
LINE
8
BLACK
6
CONTINUOUS
10
5.15827
20
-4.10656
11
5.15825
21
-4.10639
0
LINE
8
BLACK
6
CONTINUOUS
10
5.15825
20
-4.10639
11
5.15814
21
-4.10625
0
LINE
8
BLACK
6
CONTINUOUS
10
5.15814
20
-4.10625
11
5.15627
21
-4.10062
0
LINE
8
BLACK
6
CONTINUOUS
10
5.15627
20
-4.10062
11
5.15614
21
-4.09975
0
LINE
8
BLACK
6
CONTINUOUS
10
5.15614
20
-4.09975
11
5.15611
21
-4.09969
0
LINE
8
BLACK
6
CONTINUOUS
10
5.15611
20
-4.09969
11
5.15611
21
-4.09594
0
LINE
8
BLACK
6
CONTINUOUS
10
5.15611
20
-4.09594
11
5.15629
21
-4.09493
0
LINE
8
BLACK
6
CONTINUOUS
10
5.15629
20
-4.09493
11
5.15641
21
-4.09479
0
LINE
8
BLACK
6
CONTINUOUS
10
5.15641
20
-4.09479
11
5.15643
21
-4.09462
0
LINE
8
BLACK
6
CONTINUOUS
10
5.15643
20
-4.09462
11
5.1583
21
-4.09087
0
LINE
8
BLACK
6
CONTINUOUS
10
5.1583
20
-4.09087
11
5.15883
21
-4.09016
0
LINE
8
BLACK
6
CONTINUOUS
10
5.15883
20
-4.09016
11
5.15885
21
-4.0901
0
LINE
8
BLACK
6
CONTINUOUS
10
5.15885
20
-4.0901
11
5.16073
21
-4.08823
0
LINE
8
BLACK
6
CONTINUOUS
10
5.16073
20
-4.08823
11
5.16145
21
-4.08772
0
LINE
8
BLACK
6
CONTINUOUS
10
5.16145
20
-4.08772
11
5.1615
21
-4.08767
0
LINE
8
BLACK
6
CONTINUOUS
10
5.1615
20
-4.08767
11
5.16524
21
-4.0858
0
LINE
8
BLACK
6
CONTINUOUS
10
5.16524
20
-4.0858
11
5.16623
21
-4.08551
0
LINE
8
BLACK
6
CONTINUOUS
10
5.16623
20
-4.08551
11
5.1664
21
-4.08555
0
LINE
8
BLACK
6
CONTINUOUS
10
5.1664
20
-4.08555
11
5.16657
21
-4.08549
0
LINE
8
BLACK
6
CONTINUOUS
10
5.16657
20
-4.08549
11
5.17594
21
-4.08549
0
LINE
8
BLACK
6
CONTINUOUS
10
5.17594
20
-4.08549
11
5.17695
21
-4.08567
0
LINE
8
BLACK
6
CONTINUOUS
10
5.57944
20
-4.08556
11
5.57957
21
-4.08553
0
LINE
8
BLACK
6
CONTINUOUS
10
5.57957
20
-4.08553
11
5.57969
21
-4.0856
0
LINE
8
BLACK
6
CONTINUOUS
10
5.57969
20
-4.0856
11
5.58007
21
-4.08567
0
LINE
8
BLACK
6
CONTINUOUS
10
5.58007
20
-4.08567
11
5.58066
21
-4.08616
0
LINE
8
BLACK
6
CONTINUOUS
10
5.58066
20
-4.08616
11
5.58132
21
-4.08654
0
LINE
8
BLACK
6
CONTINUOUS
10
5.58132
20
-4.08654
11
5.58141
21
-4.08679
0
LINE
8
BLACK
6
CONTINUOUS
10
5.58141
20
-4.08679
11
5.58162
21
-4.08696
0
LINE
8
BLACK
6
CONTINUOUS
10
5.58162
20
-4.08696
11
5.58175
21
-4.08772
0
LINE
8
BLACK
6
CONTINUOUS
10
5.58175
20
-4.08772
11
5.58201
21
-4.08844
0
LINE
8
BLACK
6
CONTINUOUS
10
5.58201
20
-4.08844
11
5.58201
21
-4.12781
0
LINE
8
BLACK
6
CONTINUOUS
10
5.58201
20
-4.12781
11
5.58183
21
-4.12882
0
LINE
8
BLACK
6
CONTINUOUS
10
5.58183
20
-4.12882
11
5.58054
21
-4.13037
0
LINE
8
BLACK
6
CONTINUOUS
10
5.58054
20
-4.13037
11
5.57855
21
-4.13072
0
LINE
8
BLACK
6
CONTINUOUS
10
5.57855
20
-4.13072
11
5.5768
21
-4.12971
0
LINE
8
BLACK
6
CONTINUOUS
10
5.5768
20
-4.12971
11
5.57611
21
-4.12781
0
LINE
8
BLACK
6
CONTINUOUS
10
5.57611
20
-4.12781
11
5.57611
21
-4.11202
0
LINE
8
BLACK
6
CONTINUOUS
10
5.57611
20
-4.11202
11
5.57122
21
-4.11202
0
LINE
8
BLACK
6
CONTINUOUS
10
5.57122
20
-4.11202
11
5.55898
21
-4.1295
0
LINE
8
BLACK
6
CONTINUOUS
10
5.55898
20
-4.1295
11
5.55826
21
-4.13023
0
LINE
8
BLACK
6
CONTINUOUS
10
5.55826
20
-4.13023
11
5.5563
21
-4.13075
0
LINE
8
BLACK
6
CONTINUOUS
10
5.5563
20
-4.13075
11
5.55447
21
-4.1299
0
LINE
8
BLACK
6
CONTINUOUS
10
5.55447
20
-4.1299
11
5.55362
21
-4.12807
0
LINE
8
BLACK
6
CONTINUOUS
10
5.55362
20
-4.12807
11
5.55414
21
-4.12612
0
LINE
8
BLACK
6
CONTINUOUS
10
5.55414
20
-4.12612
11
5.56402
21
-4.11201
0
LINE
8
BLACK
6
CONTINUOUS
10
5.56402
20
-4.11201
11
5.56305
21
-4.11184
0
LINE
8
BLACK
6
CONTINUOUS
10
5.56305
20
-4.11184
11
5.56292
21
-4.11172
0
LINE
8
BLACK
6
CONTINUOUS
10
5.56292
20
-4.11172
11
5.56274
21
-4.1117
0
LINE
8
BLACK
6
CONTINUOUS
10
5.56274
20
-4.1117
11
5.55899
21
-4.10983
0
LINE
8
BLACK
6
CONTINUOUS
10
5.55899
20
-4.10983
11
5.55828
21
-4.1093
0
LINE
8
BLACK
6
CONTINUOUS
10
5.55828
20
-4.1093
11
5.55822
21
-4.10928
0
LINE
8
BLACK
6
CONTINUOUS
10
5.55822
20
-4.10928
11
5.55635
21
-4.1074
0
LINE
8
BLACK
6
CONTINUOUS
10
5.55635
20
-4.1074
11
5.55584
21
-4.10668
0
LINE
8
BLACK
6
CONTINUOUS
10
5.55584
20
-4.10668
11
5.5558
21
-4.10663
0
LINE
8
BLACK
6
CONTINUOUS
10
5.5558
20
-4.10663
11
5.55392
21
-4.10288
0
LINE
8
BLACK
6
CONTINUOUS
10
5.55392
20
-4.10288
11
5.55363
21
-4.1019
0
LINE
8
BLACK
6
CONTINUOUS
10
5.55363
20
-4.1019
11
5.55367
21
-4.10173
0
LINE
8
BLACK
6
CONTINUOUS
10
5.55367
20
-4.10173
11
5.55361
21
-4.10156
0
LINE
8
BLACK
6
CONTINUOUS
10
5.55361
20
-4.10156
11
5.55361
21
-4.09594
0
LINE
8
BLACK
6
CONTINUOUS
10
5.55361
20
-4.09594
11
5.55379
21
-4.09493
0
LINE
8
BLACK
6
CONTINUOUS
10
5.55379
20
-4.09493
11
5.5539
21
-4.09479
0
LINE
8
BLACK
6
CONTINUOUS
10
5.5539
20
-4.09479
11
5.55392
21
-4.09462
0
LINE
8
BLACK
6
CONTINUOUS
10
5.55392
20
-4.09462
11
5.5558
21
-4.09087
0
LINE
8
BLACK
6
CONTINUOUS
10
5.5558
20
-4.09087
11
5.55632
21
-4.09016
0
LINE
8
BLACK
6
CONTINUOUS
10
5.55632
20
-4.09016
11
5.55635
21
-4.0901
0
LINE
8
BLACK
6
CONTINUOUS
10
5.55635
20
-4.0901
11
5.55822
21
-4.08823
0
LINE
8
BLACK
6
CONTINUOUS
10
5.55822
20
-4.08823
11
5.55895
21
-4.08772
0
LINE
8
BLACK
6
CONTINUOUS
10
5.55895
20
-4.08772
11
5.55899
21
-4.08767
0
LINE
8
BLACK
6
CONTINUOUS
10
5.55899
20
-4.08767
11
5.56274
21
-4.0858
0
LINE
8
BLACK
6
CONTINUOUS
10
5.56274
20
-4.0858
11
5.56372
21
-4.08551
0
LINE
8
BLACK
6
CONTINUOUS
10
5.56372
20
-4.08551
11
5.56389
21
-4.08555
0
LINE
8
BLACK
6
CONTINUOUS
10
5.56389
20
-4.08555
11
5.56406
21
-4.08549
0
LINE
8
BLACK
6
CONTINUOUS
10
5.56406
20
-4.08549
11
5.57906
21
-4.08549
0
LINE
8
BLACK
6
CONTINUOUS
10
5.57906
20
-4.08549
11
5.57944
21
-4.08556
0
LINE
8
BLACK
6
CONTINUOUS
10
5.56476
20
-4.09139
11
5.56206
21
-4.09274
0
LINE
8
BLACK
6
CONTINUOUS
10
5.56206
20
-4.09274
11
5.56086
21
-4.09394
0
LINE
8
BLACK
6
CONTINUOUS
10
5.56086
20
-4.09394
11
5.55951
21
-4.09664
0
LINE
8
BLACK
6
CONTINUOUS
10
5.55951
20
-4.09664
11
5.55951
21
-4.10087
0
LINE
8
BLACK
6
CONTINUOUS
10
5.55951
20
-4.10087
11
5.56086
21
-4.10356
0
LINE
8
BLACK
6
CONTINUOUS
10
5.56086
20
-4.10356
11
5.56206
21
-4.10476
0
LINE
8
BLACK
6
CONTINUOUS
10
5.56206
20
-4.10476
11
5.56476
21
-4.10611
0
LINE
8
BLACK
6
CONTINUOUS
10
5.56476
20
-4.10611
11
5.57611
21
-4.10611
0
LINE
8
BLACK
6
CONTINUOUS
10
5.57611
20
-4.10611
11
5.57611
21
-4.09139
0
LINE
8
BLACK
6
CONTINUOUS
10
5.57611
20
-4.09139
11
5.56476
21
-4.09139
0
LINE
8
BLACK
6
CONTINUOUS
10
5.21944
20
-4.08556
11
5.21957
21
-4.08553
0
LINE
8
BLACK
6
CONTINUOUS
10
5.21957
20
-4.08553
11
5.21969
21
-4.0856
0
LINE
8
BLACK
6
CONTINUOUS
10
5.21969
20
-4.0856
11
5.22007
21
-4.08567
0
LINE
8
BLACK
6
CONTINUOUS
10
5.22007
20
-4.08567
11
5.22066
21
-4.08616
0
LINE
8
BLACK
6
CONTINUOUS
10
5.22066
20
-4.08616
11
5.22132
21
-4.08654
0
LINE
8
BLACK
6
CONTINUOUS
10
5.22132
20
-4.08654
11
5.22141
21
-4.08679
0
LINE
8
BLACK
6
CONTINUOUS
10
5.22141
20
-4.08679
11
5.22162
21
-4.08696
0
LINE
8
BLACK
6
CONTINUOUS
10
5.22162
20
-4.08696
11
5.22175
21
-4.08772
0
LINE
8
BLACK
6
CONTINUOUS
10
5.22175
20
-4.08772
11
5.22201
21
-4.08844
0
LINE
8
BLACK
6
CONTINUOUS
10
5.22201
20
-4.08844
11
5.22201
21
-4.12781
0
LINE
8
BLACK
6
CONTINUOUS
10
5.22201
20
-4.12781
11
5.22183
21
-4.12882
0
LINE
8
BLACK
6
CONTINUOUS
10
5.22183
20
-4.12882
11
5.22054
21
-4.13037
0
LINE
8
BLACK
6
CONTINUOUS
10
5.22054
20
-4.13037
11
5.21855
21
-4.13072
0
LINE
8
BLACK
6
CONTINUOUS
10
5.21855
20
-4.13072
11
5.2168
21
-4.12971
0
LINE
8
BLACK
6
CONTINUOUS
10
5.2168
20
-4.12971
11
5.21611
21
-4.12781
0
LINE
8
BLACK
6
CONTINUOUS
10
5.21611
20
-4.12781
11
5.21611
21
-4.11202
0
LINE
8
BLACK
6
CONTINUOUS
10
5.21611
20
-4.11202
11
5.21122
21
-4.11202
0
LINE
8
BLACK
6
CONTINUOUS
10
5.21122
20
-4.11202
11
5.19898
21
-4.1295
0
LINE
8
BLACK
6
CONTINUOUS
10
5.19898
20
-4.1295
11
5.19826
21
-4.13023
0
LINE
8
BLACK
6
CONTINUOUS
10
5.19826
20
-4.13023
11
5.1963
21
-4.13075
0
LINE
8
BLACK
6
CONTINUOUS
10
5.1963
20
-4.13075
11
5.19447
21
-4.1299
0
LINE
8
BLACK
6
CONTINUOUS
10
5.19447
20
-4.1299
11
5.19362
21
-4.12807
0
LINE
8
BLACK
6
CONTINUOUS
10
5.19362
20
-4.12807
11
5.19414
21
-4.12612
0
LINE
8
BLACK
6
CONTINUOUS
10
5.19414
20
-4.12612
11
5.20402
21
-4.11201
0
LINE
8
BLACK
6
CONTINUOUS
10
5.20402
20
-4.11201
11
5.20305
21
-4.11184
0
LINE
8
BLACK
6
CONTINUOUS
10
5.20305
20
-4.11184
11
5.20292
21
-4.11172
0
LINE
8
BLACK
6
CONTINUOUS
10
5.20292
20
-4.11172
11
5.20274
21
-4.1117
0
LINE
8
BLACK
6
CONTINUOUS
10
5.20274
20
-4.1117
11
5.19899
21
-4.10983
0
LINE
8
BLACK
6
CONTINUOUS
10
5.19899
20
-4.10983
11
5.19828
21
-4.1093
0
LINE
8
BLACK
6
CONTINUOUS
10
5.19828
20
-4.1093
11
5.19822
21
-4.10928
0
LINE
8
BLACK
6
CONTINUOUS
10
5.19822
20
-4.10928
11
5.19635
21
-4.1074
0
LINE
8
BLACK
6
CONTINUOUS
10
5.19635
20
-4.1074
11
5.19584
21
-4.10668
0
LINE
8
BLACK
6
CONTINUOUS
10
5.19584
20
-4.10668
11
5.1958
21
-4.10663
0
LINE
8
BLACK
6
CONTINUOUS
10
5.1958
20
-4.10663
11
5.19392
21
-4.10288
0
LINE
8
BLACK
6
CONTINUOUS
10
5.19392
20
-4.10288
11
5.19363
21
-4.1019
0
LINE
8
BLACK
6
CONTINUOUS
10
5.19363
20
-4.1019
11
5.19367
21
-4.10173
0
LINE
8
BLACK
6
CONTINUOUS
10
5.19367
20
-4.10173
11
5.19361
21
-4.10156
0
LINE
8
BLACK
6
CONTINUOUS
10
5.19361
20
-4.10156
11
5.19361
21
-4.09594
0
LINE
8
BLACK
6
CONTINUOUS
10
5.19361
20
-4.09594
11
5.19379
21
-4.09493
0
LINE
8
BLACK
6
CONTINUOUS
10
5.19379
20
-4.09493
11
5.1939
21
-4.09479
0
LINE
8
BLACK
6
CONTINUOUS
10
5.1939
20
-4.09479
11
5.19392
21
-4.09462
0
LINE
8
BLACK
6
CONTINUOUS
10
5.19392
20
-4.09462
11
5.1958
21
-4.09087
0
LINE
8
BLACK
6
CONTINUOUS
10
5.1958
20
-4.09087
11
5.19632
21
-4.09016
0
LINE
8
BLACK
6
CONTINUOUS
10
5.19632
20
-4.09016
11
5.19635
21
-4.0901
0
LINE
8
BLACK
6
CONTINUOUS
10
5.19635
20
-4.0901
11
5.19822
21
-4.08823
0
LINE
8
BLACK
6
CONTINUOUS
10
5.19822
20
-4.08823
11
5.19895
21
-4.08772
0
LINE
8
BLACK
6
CONTINUOUS
10
5.19895
20
-4.08772
11
5.19899
21
-4.08767
0
LINE
8
BLACK
6
CONTINUOUS
10
5.19899
20
-4.08767
11
5.20274
21
-4.0858
0
LINE
8
BLACK
6
CONTINUOUS
10
5.20274
20
-4.0858
11
5.20372
21
-4.08551
0
LINE
8
BLACK
6
CONTINUOUS
10
5.20372
20
-4.08551
11
5.20389
21
-4.08555
0
LINE
8
BLACK
6
CONTINUOUS
10
5.20389
20
-4.08555
11
5.20406
21
-4.08549
0
LINE
8
BLACK
6
CONTINUOUS
10
5.20406
20
-4.08549
11
5.21906
21
-4.08549
0
LINE
8
BLACK
6
CONTINUOUS
10
5.21906
20
-4.08549
11
5.21944
21
-4.08556
0
LINE
8
BLACK
6
CONTINUOUS
10
5.20476
20
-4.09139
11
5.20206
21
-4.09274
0
LINE
8
BLACK
6
CONTINUOUS
10
5.20206
20
-4.09274
11
5.20086
21
-4.09394
0
LINE
8
BLACK
6
CONTINUOUS
10
5.20086
20
-4.09394
11
5.19951
21
-4.09664
0
LINE
8
BLACK
6
CONTINUOUS
10
5.19951
20
-4.09664
11
5.19951
21
-4.10087
0
LINE
8
BLACK
6
CONTINUOUS
10
5.19951
20
-4.10087
11
5.20086
21
-4.10356
0
LINE
8
BLACK
6
CONTINUOUS
10
5.20086
20
-4.10356
11
5.20206
21
-4.10476
0
LINE
8
BLACK
6
CONTINUOUS
10
5.20206
20
-4.10476
11
5.20476
21
-4.10611
0
LINE
8
BLACK
6
CONTINUOUS
10
5.20476
20
-4.10611
11
5.21611
21
-4.10611
0
LINE
8
BLACK
6
CONTINUOUS
10
5.21611
20
-4.10611
11
5.21611
21
-4.09139
0
LINE
8
BLACK
6
CONTINUOUS
10
5.21611
20
-4.09139
11
5.20476
21
-4.09139
0
LINE
8
BLACK
6
CONTINUOUS
10
5.30061
20
-4.07939
11
5.3013
21
-4.08106
0
LINE
8
BLACK
6
CONTINUOUS
10
5.3013
20
-4.08106
11
5.30061
21
-4.08273
0
LINE
8
BLACK
6
CONTINUOUS
10
5.30061
20
-4.08273
11
5.29894
21
-4.08343
0
LINE
8
BLACK
6
CONTINUOUS
10
5.29894
20
-4.08343
11
5.28106
21
-4.08343
0
LINE
8
BLACK
6
CONTINUOUS
10
5.28106
20
-4.08343
11
5.27939
21
-4.08273
0
LINE
8
BLACK
6
CONTINUOUS
10
5.27939
20
-4.08273
11
5.2787
21
-4.08106
0
LINE
8
BLACK
6
CONTINUOUS
10
5.2787
20
-4.08106
11
5.27939
21
-4.07939
0
LINE
8
BLACK
6
CONTINUOUS
10
5.27939
20
-4.07939
11
5.28106
21
-4.0787
0
LINE
8
BLACK
6
CONTINUOUS
10
5.28106
20
-4.0787
11
5.29894
21
-4.0787
0
LINE
8
BLACK
6
CONTINUOUS
10
5.29894
20
-4.0787
11
5.30061
21
-4.07939
0
LINE
8
BLACK
6
CONTINUOUS
10
5.46061
20
-4.07939
11
5.4613
21
-4.08106
0
LINE
8
BLACK
6
CONTINUOUS
10
5.4613
20
-4.08106
11
5.46061
21
-4.08273
0
LINE
8
BLACK
6
CONTINUOUS
10
5.46061
20
-4.08273
11
5.45894
21
-4.08343
0
LINE
8
BLACK
6
CONTINUOUS
10
5.45894
20
-4.08343
11
5.44106
21
-4.08343
0
LINE
8
BLACK
6
CONTINUOUS
10
5.44106
20
-4.08343
11
5.43939
21
-4.08273
0
LINE
8
BLACK
6
CONTINUOUS
10
5.43939
20
-4.08273
11
5.4387
21
-4.08106
0
LINE
8
BLACK
6
CONTINUOUS
10
5.4387
20
-4.08106
11
5.43939
21
-4.07939
0
LINE
8
BLACK
6
CONTINUOUS
10
5.43939
20
-4.07939
11
5.44106
21
-4.0787
0
LINE
8
BLACK
6
CONTINUOUS
10
5.44106
20
-4.0787
11
5.45894
21
-4.0787
0
LINE
8
BLACK
6
CONTINUOUS
10
5.45894
20
-4.0787
11
5.46061
21
-4.07939
  0
ENDSEC
  0
EOF
