  0
SECTION
  2
HEADER
  9
$ANGBASE
  50
0.0
  9
$ANGDIR
  70
1
  9
$MEASUREMENT
  70
0
  0
ENDSEC
  0
SECTION
  2
TABLES
  0
TABLE
  2
LTYPE
  70
4
  0
LTYPE
  5
40F
  2
CONTINUOUS
  70
0
  3
Solid line
  72
65
  73
0
  40
0.0
  0
LTYPE
  5
410
  2
DASHDOT
 70
0
  3
Dash Dot ____ _ ____ _
 72
65
 73
4
 40
2.0
 49
1.25
 49
-0.25
 49
0.25
 49
-0.25
  0
LTYPE
  5
411
  2
DASHED
 70
0
  3
Dashed __ __ __ __ __
 72
65
 73
2
 40
0.75
 49
0.5
 49
-0.25
  0
LTYPE
  5
43B
  2
DOTTED
 70
0
  3
Dotted .  .  .  .
 72
65
 73
2
 40
0.2
 49
0.0
 49
-0.2
  0
ENDTAB
  0
TABLE
  2
STYLE
  70
4
  0
STYLE
  2
KICAD
  70
0
  40
0
  41
1
  42
1
  50
0
  71
0
  3
isocp.shx
  0
STYLE
  2
KICADB
  70
0
  40
0
  41
1
  42
1
  50
0
  71
0
  3
isocp.shx
  0
STYLE
  2
KICADI
  70
0
  40
0
  41
1
  42
1
  50
15
  71
0
  3
isocp.shx
  0
STYLE
  2
KICADBI
  70
0
  40
0
  41
1
  42
1
  50
15
  71
0
  3
isocp.shx
  0
ENDTAB
  0
TABLE
  2
LAYER
  70
1
  0
LAYER
  2
BLACK
  70
0
  62
7
  6
CONTINUOUS
  0
ENDTAB
  0
ENDSEC
  0
SECTION
  2
ENTITIES
0
LINE
8
BLACK
6
CONTINUOUS
10
5.13069
20
-4.52294
11
5.15769
21
-4.56343
0
LINE
8
BLACK
6
CONTINUOUS
10
5.15769
20
-4.56343
11
5.1581
21
-4.56437
0
LINE
8
BLACK
6
CONTINUOUS
10
5.1581
20
-4.56437
11
5.15788
21
-4.56638
0
LINE
8
BLACK
6
CONTINUOUS
10
5.15788
20
-4.56638
11
5.15642
21
-4.56777
0
LINE
8
BLACK
6
CONTINUOUS
10
5.15642
20
-4.56777
11
5.1544
21
-4.5679
0
LINE
8
BLACK
6
CONTINUOUS
10
5.1544
20
-4.5679
11
5.15277
21
-4.56671
0
LINE
8
BLACK
6
CONTINUOUS
10
5.15277
20
-4.56671
11
5.12578
21
-4.52621
0
LINE
8
BLACK
6
CONTINUOUS
10
5.12578
20
-4.52621
11
5.12537
21
-4.52527
0
LINE
8
BLACK
6
CONTINUOUS
10
5.12537
20
-4.52527
11
5.12559
21
-4.52327
0
LINE
8
BLACK
6
CONTINUOUS
10
5.12559
20
-4.52327
11
5.12705
21
-4.52187
0
LINE
8
BLACK
6
CONTINUOUS
10
5.12705
20
-4.52187
11
5.12906
21
-4.52174
0
LINE
8
BLACK
6
CONTINUOUS
10
5.12906
20
-4.52174
11
5.13069
21
-4.52294
0
LINE
8
BLACK
6
CONTINUOUS
10
5.11425
20
-4.5233
11
5.11438
21
-4.52341
0
LINE
8
BLACK
6
CONTINUOUS
10
5.11438
20
-4.52341
11
5.11456
21
-4.52343
0
LINE
8
BLACK
6
CONTINUOUS
10
5.11456
20
-4.52343
11
5.11756
21
-4.52493
0
LINE
8
BLACK
6
CONTINUOUS
10
5.11756
20
-4.52493
11
5.11827
21
-4.52546
0
LINE
8
BLACK
6
CONTINUOUS
10
5.11827
20
-4.52546
11
5.11832
21
-4.52549
0
LINE
8
BLACK
6
CONTINUOUS
10
5.11832
20
-4.52549
11
5.11982
21
-4.52699
0
LINE
8
BLACK
6
CONTINUOUS
10
5.11982
20
-4.52699
11
5.12033
21
-4.52771
0
LINE
8
BLACK
6
CONTINUOUS
10
5.12033
20
-4.52771
11
5.12038
21
-4.52775
0
LINE
8
BLACK
6
CONTINUOUS
10
5.12038
20
-4.52775
11
5.12188
21
-4.53075
0
LINE
8
BLACK
6
CONTINUOUS
10
5.12188
20
-4.53075
11
5.12217
21
-4.53174
0
LINE
8
BLACK
6
CONTINUOUS
10
5.12217
20
-4.53174
11
5.12213
21
-4.53191
0
LINE
8
BLACK
6
CONTINUOUS
10
5.12213
20
-4.53191
11
5.12219
21
-4.53207
0
LINE
8
BLACK
6
CONTINUOUS
10
5.12219
20
-4.53207
11
5.12219
21
-4.53507
0
LINE
8
BLACK
6
CONTINUOUS
10
5.12219
20
-4.53507
11
5.12201
21
-4.53608
0
LINE
8
BLACK
6
CONTINUOUS
10
5.12201
20
-4.53608
11
5.1219
21
-4.53622
0
LINE
8
BLACK
6
CONTINUOUS
10
5.1219
20
-4.53622
11
5.12188
21
-4.53639
0
LINE
8
BLACK
6
CONTINUOUS
10
5.12188
20
-4.53639
11
5.12038
21
-4.53939
0
LINE
8
BLACK
6
CONTINUOUS
10
5.12038
20
-4.53939
11
5.11985
21
-4.5401
0
LINE
8
BLACK
6
CONTINUOUS
10
5.11985
20
-4.5401
11
5.11982
21
-4.54016
0
LINE
8
BLACK
6
CONTINUOUS
10
5.11982
20
-4.54016
11
5.11832
21
-4.54166
0
LINE
8
BLACK
6
CONTINUOUS
10
5.11832
20
-4.54166
11
5.1176
21
-4.54217
0
LINE
8
BLACK
6
CONTINUOUS
10
5.1176
20
-4.54217
11
5.11756
21
-4.54221
0
LINE
8
BLACK
6
CONTINUOUS
10
5.11756
20
-4.54221
11
5.11456
21
-4.54371
0
LINE
8
BLACK
6
CONTINUOUS
10
5.11456
20
-4.54371
11
5.11407
21
-4.54386
0
LINE
8
BLACK
6
CONTINUOUS
10
5.11407
20
-4.54386
11
5.11395
21
-4.54394
0
LINE
8
BLACK
6
CONTINUOUS
10
5.11395
20
-4.54394
11
5.10827
21
-4.54536
0
LINE
8
BLACK
6
CONTINUOUS
10
5.10827
20
-4.54536
11
5.10599
21
-4.5465
0
LINE
8
BLACK
6
CONTINUOUS
10
5.10599
20
-4.5465
11
5.10516
21
-4.54732
0
LINE
8
BLACK
6
CONTINUOUS
10
5.10516
20
-4.54732
11
5.10419
21
-4.54927
0
LINE
8
BLACK
6
CONTINUOUS
10
5.10419
20
-4.54927
11
5.10419
21
-4.55087
0
LINE
8
BLACK
6
CONTINUOUS
10
5.10419
20
-4.55087
11
5.10516
21
-4.55282
0
LINE
8
BLACK
6
CONTINUOUS
10
5.10516
20
-4.55282
11
5.10599
21
-4.55364
0
LINE
8
BLACK
6
CONTINUOUS
10
5.10599
20
-4.55364
11
5.10793
21
-4.55462
0
LINE
8
BLACK
6
CONTINUOUS
10
5.10793
20
-4.55462
11
5.11426
21
-4.55462
0
LINE
8
BLACK
6
CONTINUOUS
10
5.11426
20
-4.55462
11
5.1183
21
-4.55327
0
LINE
8
BLACK
6
CONTINUOUS
10
5.1183
20
-4.55327
11
5.11932
21
-4.55312
0
LINE
8
BLACK
6
CONTINUOUS
10
5.11932
20
-4.55312
11
5.12119
21
-4.55386
0
LINE
8
BLACK
6
CONTINUOUS
10
5.12119
20
-4.55386
11
5.12216
21
-4.55564
0
LINE
8
BLACK
6
CONTINUOUS
10
5.12216
20
-4.55564
11
5.12175
21
-4.55762
0
LINE
8
BLACK
6
CONTINUOUS
10
5.12175
20
-4.55762
11
5.12017
21
-4.55887
0
LINE
8
BLACK
6
CONTINUOUS
10
5.12017
20
-4.55887
11
5.11567
21
-4.56037
0
LINE
8
BLACK
6
CONTINUOUS
10
5.11567
20
-4.56037
11
5.1148
21
-4.5605
0
LINE
8
BLACK
6
CONTINUOUS
10
5.1148
20
-4.5605
11
5.11474
21
-4.56052
0
LINE
8
BLACK
6
CONTINUOUS
10
5.11474
20
-4.56052
11
5.10724
21
-4.56052
0
LINE
8
BLACK
6
CONTINUOUS
10
5.10724
20
-4.56052
11
5.10623
21
-4.56035
0
LINE
8
BLACK
6
CONTINUOUS
10
5.10623
20
-4.56035
11
5.10609
21
-4.56023
0
LINE
8
BLACK
6
CONTINUOUS
10
5.10609
20
-4.56023
11
5.10592
21
-4.56021
0
LINE
8
BLACK
6
CONTINUOUS
10
5.10592
20
-4.56021
11
5.10292
21
-4.55871
0
LINE
8
BLACK
6
CONTINUOUS
10
5.10292
20
-4.55871
11
5.10221
21
-4.55819
0
LINE
8
BLACK
6
CONTINUOUS
10
5.10221
20
-4.55819
11
5.10215
21
-4.55816
0
LINE
8
BLACK
6
CONTINUOUS
10
5.10215
20
-4.55816
11
5.10065
21
-4.55666
0
LINE
8
BLACK
6
CONTINUOUS
10
5.10065
20
-4.55666
11
5.10014
21
-4.55594
0
LINE
8
BLACK
6
CONTINUOUS
10
5.10014
20
-4.55594
11
5.1001
21
-4.55589
0
LINE
8
BLACK
6
CONTINUOUS
10
5.1001
20
-4.55589
11
5.0986
21
-4.55289
0
LINE
8
BLACK
6
CONTINUOUS
10
5.0986
20
-4.55289
11
5.0983
21
-4.55191
0
LINE
8
BLACK
6
CONTINUOUS
10
5.0983
20
-4.55191
11
5.09834
21
-4.55174
0
LINE
8
BLACK
6
CONTINUOUS
10
5.09834
20
-4.55174
11
5.09828
21
-4.55157
0
LINE
8
BLACK
6
CONTINUOUS
10
5.09828
20
-4.55157
11
5.09828
21
-4.54857
0
LINE
8
BLACK
6
CONTINUOUS
10
5.09828
20
-4.54857
11
5.09846
21
-4.54756
0
LINE
8
BLACK
6
CONTINUOUS
10
5.09846
20
-4.54756
11
5.09858
21
-4.54743
0
LINE
8
BLACK
6
CONTINUOUS
10
5.09858
20
-4.54743
11
5.0986
21
-4.54725
0
LINE
8
BLACK
6
CONTINUOUS
10
5.0986
20
-4.54725
11
5.1001
21
-4.54425
0
LINE
8
BLACK
6
CONTINUOUS
10
5.1001
20
-4.54425
11
5.10062
21
-4.54354
0
LINE
8
BLACK
6
CONTINUOUS
10
5.10062
20
-4.54354
11
5.10065
21
-4.54348
0
LINE
8
BLACK
6
CONTINUOUS
10
5.10065
20
-4.54348
11
5.10215
21
-4.54198
0
LINE
8
BLACK
6
CONTINUOUS
10
5.10215
20
-4.54198
11
5.10287
21
-4.54148
0
LINE
8
BLACK
6
CONTINUOUS
10
5.10287
20
-4.54148
11
5.10292
21
-4.54143
0
LINE
8
BLACK
6
CONTINUOUS
10
5.10292
20
-4.54143
11
5.10592
21
-4.53993
0
LINE
8
BLACK
6
CONTINUOUS
10
5.10592
20
-4.53993
11
5.1064
21
-4.53979
0
LINE
8
BLACK
6
CONTINUOUS
10
5.1064
20
-4.53979
11
5.10652
21
-4.53971
0
LINE
8
BLACK
6
CONTINUOUS
10
5.10652
20
-4.53971
11
5.11221
21
-4.53829
0
LINE
8
BLACK
6
CONTINUOUS
10
5.11221
20
-4.53829
11
5.11449
21
-4.53715
0
LINE
8
BLACK
6
CONTINUOUS
10
5.11449
20
-4.53715
11
5.11531
21
-4.53632
0
LINE
8
BLACK
6
CONTINUOUS
10
5.11531
20
-4.53632
11
5.11628
21
-4.53438
0
LINE
8
BLACK
6
CONTINUOUS
10
5.11628
20
-4.53438
11
5.11628
21
-4.53277
0
LINE
8
BLACK
6
CONTINUOUS
10
5.11628
20
-4.53277
11
5.11531
21
-4.53082
0
LINE
8
BLACK
6
CONTINUOUS
10
5.11531
20
-4.53082
11
5.11449
21
-4.53
0
LINE
8
BLACK
6
CONTINUOUS
10
5.11449
20
-4.53
11
5.11254
21
-4.52903
0
LINE
8
BLACK
6
CONTINUOUS
10
5.11254
20
-4.52903
11
5.10622
21
-4.52903
0
LINE
8
BLACK
6
CONTINUOUS
10
5.10622
20
-4.52903
11
5.10217
21
-4.53038
0
LINE
8
BLACK
6
CONTINUOUS
10
5.10217
20
-4.53038
11
5.10116
21
-4.53053
0
LINE
8
BLACK
6
CONTINUOUS
10
5.10116
20
-4.53053
11
5.09928
21
-4.52978
0
LINE
8
BLACK
6
CONTINUOUS
10
5.09928
20
-4.52978
11
5.09832
21
-4.52801
0
LINE
8
BLACK
6
CONTINUOUS
10
5.09832
20
-4.52801
11
5.09872
21
-4.52603
0
LINE
8
BLACK
6
CONTINUOUS
10
5.09872
20
-4.52603
11
5.1003
21
-4.52477
0
LINE
8
BLACK
6
CONTINUOUS
10
5.1003
20
-4.52477
11
5.1048
21
-4.52327
0
LINE
8
BLACK
6
CONTINUOUS
10
5.1048
20
-4.52327
11
5.10568
21
-4.52314
0
LINE
8
BLACK
6
CONTINUOUS
10
5.10568
20
-4.52314
11
5.10574
21
-4.52312
0
LINE
8
BLACK
6
CONTINUOUS
10
5.10574
20
-4.52312
11
5.11324
21
-4.52312
0
LINE
8
BLACK
6
CONTINUOUS
10
5.11324
20
-4.52312
11
5.11425
21
-4.5233
0
LINE
8
BLACK
6
CONTINUOUS
10
5.1741
20
-4.52328
11
5.17416
21
-4.52327
0
LINE
8
BLACK
6
CONTINUOUS
10
5.17416
20
-4.52327
11
5.17866
21
-4.52477
0
LINE
8
BLACK
6
CONTINUOUS
10
5.17866
20
-4.52477
11
5.17956
21
-4.52526
0
LINE
8
BLACK
6
CONTINUOUS
10
5.17956
20
-4.52526
11
5.17966
21
-4.52541
0
LINE
8
BLACK
6
CONTINUOUS
10
5.17966
20
-4.52541
11
5.17982
21
-4.52549
0
LINE
8
BLACK
6
CONTINUOUS
10
5.17982
20
-4.52549
11
5.18282
21
-4.52849
0
LINE
8
BLACK
6
CONTINUOUS
10
5.18282
20
-4.52849
11
5.18332
21
-4.52921
0
LINE
8
BLACK
6
CONTINUOUS
10
5.18332
20
-4.52921
11
5.18337
21
-4.52925
0
LINE
8
BLACK
6
CONTINUOUS
10
5.18337
20
-4.52925
11
5.18487
21
-4.53225
0
LINE
8
BLACK
6
CONTINUOUS
10
5.18487
20
-4.53225
11
5.18501
21
-4.53274
0
LINE
8
BLACK
6
CONTINUOUS
10
5.18501
20
-4.53274
11
5.18509
21
-4.53286
0
LINE
8
BLACK
6
CONTINUOUS
10
5.18509
20
-4.53286
11
5.18659
21
-4.53886
0
LINE
8
BLACK
6
CONTINUOUS
10
5.18659
20
-4.53886
11
5.18663
21
-4.53944
0
LINE
8
BLACK
6
CONTINUOUS
10
5.18663
20
-4.53944
11
5.18668
21
-4.53957
0
LINE
8
BLACK
6
CONTINUOUS
10
5.18668
20
-4.53957
11
5.18668
21
-4.54407
0
LINE
8
BLACK
6
CONTINUOUS
10
5.18668
20
-4.54407
11
5.18658
21
-4.54465
0
LINE
8
BLACK
6
CONTINUOUS
10
5.18658
20
-4.54465
11
5.18659
21
-4.54479
0
LINE
8
BLACK
6
CONTINUOUS
10
5.18659
20
-4.54479
11
5.18509
21
-4.55079
0
LINE
8
BLACK
6
CONTINUOUS
10
5.18509
20
-4.55079
11
5.18488
21
-4.55125
0
LINE
8
BLACK
6
CONTINUOUS
10
5.18488
20
-4.55125
11
5.18487
21
-4.55139
0
LINE
8
BLACK
6
CONTINUOUS
10
5.18487
20
-4.55139
11
5.18337
21
-4.55439
0
LINE
8
BLACK
6
CONTINUOUS
10
5.18337
20
-4.55439
11
5.18284
21
-4.5551
0
LINE
8
BLACK
6
CONTINUOUS
10
5.18284
20
-4.5551
11
5.18282
21
-4.55516
0
LINE
8
BLACK
6
CONTINUOUS
10
5.18282
20
-4.55516
11
5.17982
21
-4.55816
0
LINE
8
BLACK
6
CONTINUOUS
10
5.17982
20
-4.55816
11
5.17898
21
-4.55875
0
LINE
8
BLACK
6
CONTINUOUS
10
5.17898
20
-4.55875
11
5.1788
21
-4.55876
0
LINE
8
BLACK
6
CONTINUOUS
10
5.1788
20
-4.55876
11
5.17866
21
-4.55887
0
LINE
8
BLACK
6
CONTINUOUS
10
5.17866
20
-4.55887
11
5.17416
21
-4.56037
0
LINE
8
BLACK
6
CONTINUOUS
10
5.17416
20
-4.56037
11
5.17329
21
-4.5605
0
LINE
8
BLACK
6
CONTINUOUS
10
5.17329
20
-4.5605
11
5.17323
21
-4.56052
0
LINE
8
BLACK
6
CONTINUOUS
10
5.17323
20
-4.56052
11
5.17023
21
-4.56052
0
LINE
8
BLACK
6
CONTINUOUS
10
5.17023
20
-4.56052
11
5.16936
21
-4.56037
0
LINE
8
BLACK
6
CONTINUOUS
10
5.16936
20
-4.56037
11
5.16929
21
-4.56037
0
LINE
8
BLACK
6
CONTINUOUS
10
5.16929
20
-4.56037
11
5.1648
21
-4.55887
0
LINE
8
BLACK
6
CONTINUOUS
10
5.1648
20
-4.55887
11
5.16389
21
-4.55838
0
LINE
8
BLACK
6
CONTINUOUS
10
5.16389
20
-4.55838
11
5.1638
21
-4.55823
0
LINE
8
BLACK
6
CONTINUOUS
10
5.1638
20
-4.55823
11
5.16364
21
-4.55816
0
LINE
8
BLACK
6
CONTINUOUS
10
5.16364
20
-4.55816
11
5.16214
21
-4.55666
0
LINE
8
BLACK
6
CONTINUOUS
10
5.16214
20
-4.55666
11
5.16155
21
-4.55582
0
LINE
8
BLACK
6
CONTINUOUS
10
5.16155
20
-4.55582
11
5.16138
21
-4.55381
0
LINE
8
BLACK
6
CONTINUOUS
10
5.16138
20
-4.55381
11
5.16254
21
-4.55215
0
LINE
8
BLACK
6
CONTINUOUS
10
5.16254
20
-4.55215
11
5.16449
21
-4.55163
0
LINE
8
BLACK
6
CONTINUOUS
10
5.16449
20
-4.55163
11
5.16632
21
-4.55248
0
LINE
8
BLACK
6
CONTINUOUS
10
5.16632
20
-4.55248
11
5.16732
21
-4.55349
0
LINE
8
BLACK
6
CONTINUOUS
10
5.16732
20
-4.55349
11
5.17071
21
-4.55462
0
LINE
8
BLACK
6
CONTINUOUS
10
5.17071
20
-4.55462
11
5.17275
21
-4.55462
0
LINE
8
BLACK
6
CONTINUOUS
10
5.17275
20
-4.55462
11
5.17613
21
-4.55349
0
LINE
8
BLACK
6
CONTINUOUS
10
5.17613
20
-4.55349
11
5.1783
21
-4.55132
0
LINE
8
BLACK
6
CONTINUOUS
10
5.1783
20
-4.55132
11
5.17944
21
-4.54904
0
LINE
8
BLACK
6
CONTINUOUS
10
5.17944
20
-4.54904
11
5.18077
21
-4.54371
0
LINE
8
BLACK
6
CONTINUOUS
10
5.18077
20
-4.54371
11
5.18077
21
-4.53994
0
LINE
8
BLACK
6
CONTINUOUS
10
5.18077
20
-4.53994
11
5.17944
21
-4.5346
0
LINE
8
BLACK
6
CONTINUOUS
10
5.17944
20
-4.5346
11
5.1783
21
-4.53232
0
LINE
8
BLACK
6
CONTINUOUS
10
5.1783
20
-4.53232
11
5.17613
21
-4.53016
0
LINE
8
BLACK
6
CONTINUOUS
10
5.17613
20
-4.53016
11
5.17275
21
-4.52903
0
LINE
8
BLACK
6
CONTINUOUS
10
5.17275
20
-4.52903
11
5.17071
21
-4.52903
0
LINE
8
BLACK
6
CONTINUOUS
10
5.17071
20
-4.52903
11
5.16732
21
-4.53016
0
LINE
8
BLACK
6
CONTINUOUS
10
5.16732
20
-4.53016
11
5.16632
21
-4.53116
0
LINE
8
BLACK
6
CONTINUOUS
10
5.16632
20
-4.53116
11
5.16548
21
-4.53175
0
LINE
8
BLACK
6
CONTINUOUS
10
5.16548
20
-4.53175
11
5.16347
21
-4.53193
0
LINE
8
BLACK
6
CONTINUOUS
10
5.16347
20
-4.53193
11
5.16181
21
-4.53077
0
LINE
8
BLACK
6
CONTINUOUS
10
5.16181
20
-4.53077
11
5.16129
21
-4.52882
0
LINE
8
BLACK
6
CONTINUOUS
10
5.16129
20
-4.52882
11
5.16214
21
-4.52699
0
LINE
8
BLACK
6
CONTINUOUS
10
5.16214
20
-4.52699
11
5.16364
21
-4.52549
0
LINE
8
BLACK
6
CONTINUOUS
10
5.16364
20
-4.52549
11
5.16448
21
-4.5249
0
LINE
8
BLACK
6
CONTINUOUS
10
5.16448
20
-4.5249
11
5.16466
21
-4.52488
0
LINE
8
BLACK
6
CONTINUOUS
10
5.16466
20
-4.52488
11
5.1648
21
-4.52477
0
LINE
8
BLACK
6
CONTINUOUS
10
5.1648
20
-4.52477
11
5.16929
21
-4.52327
0
LINE
8
BLACK
6
CONTINUOUS
10
5.16929
20
-4.52327
11
5.17017
21
-4.52314
0
LINE
8
BLACK
6
CONTINUOUS
10
5.17017
20
-4.52314
11
5.17023
21
-4.52312
0
LINE
8
BLACK
6
CONTINUOUS
10
5.17023
20
-4.52312
11
5.17323
21
-4.52312
0
LINE
8
BLACK
6
CONTINUOUS
10
5.17323
20
-4.52312
11
5.1741
21
-4.52328
0
LINE
8
BLACK
6
CONTINUOUS
10
5.21023
20
-4.5233
11
5.21037
21
-4.52341
0
LINE
8
BLACK
6
CONTINUOUS
10
5.21037
20
-4.52341
11
5.21054
21
-4.52343
0
LINE
8
BLACK
6
CONTINUOUS
10
5.21054
20
-4.52343
11
5.21354
21
-4.52493
0
LINE
8
BLACK
6
CONTINUOUS
10
5.21354
20
-4.52493
11
5.21425
21
-4.52546
0
LINE
8
BLACK
6
CONTINUOUS
10
5.21425
20
-4.52546
11
5.21431
21
-4.52549
0
LINE
8
BLACK
6
CONTINUOUS
10
5.21431
20
-4.52549
11
5.21581
21
-4.52699
0
LINE
8
BLACK
6
CONTINUOUS
10
5.21581
20
-4.52699
11
5.2164
21
-4.52783
0
LINE
8
BLACK
6
CONTINUOUS
10
5.2164
20
-4.52783
11
5.21658
21
-4.52984
0
LINE
8
BLACK
6
CONTINUOUS
10
5.21658
20
-4.52984
11
5.21542
21
-4.53149
0
LINE
8
BLACK
6
CONTINUOUS
10
5.21542
20
-4.53149
11
5.21347
21
-4.53202
0
LINE
8
BLACK
6
CONTINUOUS
10
5.21347
20
-4.53202
11
5.21164
21
-4.53116
0
LINE
8
BLACK
6
CONTINUOUS
10
5.21164
20
-4.53116
11
5.21047
21
-4.53
0
LINE
8
BLACK
6
CONTINUOUS
10
5.21047
20
-4.53
11
5.20853
21
-4.52903
0
LINE
8
BLACK
6
CONTINUOUS
10
5.20853
20
-4.52903
11
5.20242
21
-4.52903
0
LINE
8
BLACK
6
CONTINUOUS
10
5.20242
20
-4.52903
11
5.20047
21
-4.53
0
LINE
8
BLACK
6
CONTINUOUS
10
5.20047
20
-4.53
11
5.19965
21
-4.53082
0
LINE
8
BLACK
6
CONTINUOUS
10
5.19965
20
-4.53082
11
5.19868
21
-4.53277
0
LINE
8
BLACK
6
CONTINUOUS
10
5.19868
20
-4.53277
11
5.19868
21
-4.53459
0
LINE
8
BLACK
6
CONTINUOUS
10
5.19868
20
-4.53459
11
5.19981
21
-4.53798
0
LINE
8
BLACK
6
CONTINUOUS
10
5.19981
20
-4.53798
11
5.21731
21
-4.55548
0
LINE
8
BLACK
6
CONTINUOUS
10
5.21731
20
-4.55548
11
5.21768
21
-4.55601
0
LINE
8
BLACK
6
CONTINUOUS
10
5.21768
20
-4.55601
11
5.21778
21
-4.55609
0
LINE
8
BLACK
6
CONTINUOUS
10
5.21778
20
-4.55609
11
5.21779
21
-4.55617
0
LINE
8
BLACK
6
CONTINUOUS
10
5.21779
20
-4.55617
11
5.2179
21
-4.55632
0
LINE
8
BLACK
6
CONTINUOUS
10
5.2179
20
-4.55632
11
5.21798
21
-4.55721
0
LINE
8
BLACK
6
CONTINUOUS
10
5.21798
20
-4.55721
11
5.21813
21
-4.55808
0
LINE
8
BLACK
6
CONTINUOUS
10
5.21813
20
-4.55808
11
5.21806
21
-4.5582
0
LINE
8
BLACK
6
CONTINUOUS
10
5.21806
20
-4.5582
11
5.21808
21
-4.55833
0
LINE
8
BLACK
6
CONTINUOUS
10
5.21808
20
-4.55833
11
5.21757
21
-4.55906
0
LINE
8
BLACK
6
CONTINUOUS
10
5.21757
20
-4.55906
11
5.21712
21
-4.55983
0
LINE
8
BLACK
6
CONTINUOUS
10
5.21712
20
-4.55983
11
5.21699
21
-4.55988
0
LINE
8
BLACK
6
CONTINUOUS
10
5.21699
20
-4.55988
11
5.21692
21
-4.55999
0
LINE
8
BLACK
6
CONTINUOUS
10
5.21692
20
-4.55999
11
5.21606
21
-4.56022
0
LINE
8
BLACK
6
CONTINUOUS
10
5.21606
20
-4.56022
11
5.21522
21
-4.56052
0
LINE
8
BLACK
6
CONTINUOUS
10
5.21522
20
-4.56052
11
5.19573
21
-4.56052
0
LINE
8
BLACK
6
CONTINUOUS
10
5.19573
20
-4.56052
11
5.19472
21
-4.56035
0
LINE
8
BLACK
6
CONTINUOUS
10
5.19472
20
-4.56035
11
5.19317
21
-4.55905
0
LINE
8
BLACK
6
CONTINUOUS
10
5.19317
20
-4.55905
11
5.19282
21
-4.55706
0
LINE
8
BLACK
6
CONTINUOUS
10
5.19282
20
-4.55706
11
5.19383
21
-4.55531
0
LINE
8
BLACK
6
CONTINUOUS
10
5.19383
20
-4.55531
11
5.19573
21
-4.55462
0
LINE
8
BLACK
6
CONTINUOUS
10
5.19573
20
-4.55462
11
5.20809
21
-4.55462
0
LINE
8
BLACK
6
CONTINUOUS
10
5.20809
20
-4.55462
11
5.19514
21
-4.54166
0
LINE
8
BLACK
6
CONTINUOUS
10
5.19514
20
-4.54166
11
5.19455
21
-4.54082
0
LINE
8
BLACK
6
CONTINUOUS
10
5.19455
20
-4.54082
11
5.19453
21
-4.54064
0
LINE
8
BLACK
6
CONTINUOUS
10
5.19453
20
-4.54064
11
5.19442
21
-4.54051
0
LINE
8
BLACK
6
CONTINUOUS
10
5.19442
20
-4.54051
11
5.19292
21
-4.53601
0
LINE
8
BLACK
6
CONTINUOUS
10
5.19292
20
-4.53601
11
5.19279
21
-4.53513
0
LINE
8
BLACK
6
CONTINUOUS
10
5.19279
20
-4.53513
11
5.19277
21
-4.53507
0
LINE
8
BLACK
6
CONTINUOUS
10
5.19277
20
-4.53507
11
5.19277
21
-4.53207
0
LINE
8
BLACK
6
CONTINUOUS
10
5.19277
20
-4.53207
11
5.19295
21
-4.53106
0
LINE
8
BLACK
6
CONTINUOUS
10
5.19295
20
-4.53106
11
5.19306
21
-4.53093
0
LINE
8
BLACK
6
CONTINUOUS
10
5.19306
20
-4.53093
11
5.19308
21
-4.53075
0
LINE
8
BLACK
6
CONTINUOUS
10
5.19308
20
-4.53075
11
5.19458
21
-4.52775
0
LINE
8
BLACK
6
CONTINUOUS
10
5.19458
20
-4.52775
11
5.19511
21
-4.52704
0
LINE
8
BLACK
6
CONTINUOUS
10
5.19511
20
-4.52704
11
5.19514
21
-4.52699
0
LINE
8
BLACK
6
CONTINUOUS
10
5.19514
20
-4.52699
11
5.19664
21
-4.52549
0
LINE
8
BLACK
6
CONTINUOUS
10
5.19664
20
-4.52549
11
5.19736
21
-4.52498
0
LINE
8
BLACK
6
CONTINUOUS
10
5.19736
20
-4.52498
11
5.1974
21
-4.52493
0
LINE
8
BLACK
6
CONTINUOUS
10
5.1974
20
-4.52493
11
5.2004
21
-4.52343
0
LINE
8
BLACK
6
CONTINUOUS
10
5.2004
20
-4.52343
11
5.20139
21
-4.52314
0
LINE
8
BLACK
6
CONTINUOUS
10
5.20139
20
-4.52314
11
5.20156
21
-4.52318
0
LINE
8
BLACK
6
CONTINUOUS
10
5.20156
20
-4.52318
11
5.20172
21
-4.52312
0
LINE
8
BLACK
6
CONTINUOUS
10
5.20172
20
-4.52312
11
5.20922
21
-4.52312
0
LINE
8
BLACK
6
CONTINUOUS
10
5.20922
20
-4.52312
11
5.21023
21
-4.5233
0
LINE
8
BLACK
6
CONTINUOUS
10
5.0585
20
-4.52418
11
5.0592
21
-4.52607
0
LINE
8
BLACK
6
CONTINUOUS
10
5.0592
20
-4.52607
11
5.0592
21
-4.55757
0
LINE
8
BLACK
6
CONTINUOUS
10
5.0592
20
-4.55757
11
5.05902
21
-4.55858
0
LINE
8
BLACK
6
CONTINUOUS
10
5.05902
20
-4.55858
11
5.05772
21
-4.56013
0
LINE
8
BLACK
6
CONTINUOUS
10
5.05772
20
-4.56013
11
5.05573
21
-4.56048
0
LINE
8
BLACK
6
CONTINUOUS
10
5.05573
20
-4.56048
11
5.05398
21
-4.55947
0
LINE
8
BLACK
6
CONTINUOUS
10
5.05398
20
-4.55947
11
5.05329
21
-4.55757
0
LINE
8
BLACK
6
CONTINUOUS
10
5.05329
20
-4.55757
11
5.05329
21
-4.52607
0
LINE
8
BLACK
6
CONTINUOUS
10
5.05329
20
-4.52607
11
5.05347
21
-4.52506
0
LINE
8
BLACK
6
CONTINUOUS
10
5.05347
20
-4.52506
11
5.05477
21
-4.52352
0
LINE
8
BLACK
6
CONTINUOUS
10
5.05477
20
-4.52352
11
5.05676
21
-4.52317
0
LINE
8
BLACK
6
CONTINUOUS
10
5.05676
20
-4.52317
11
5.0585
21
-4.52418
0
LINE
8
BLACK
6
CONTINUOUS
10
5.08812
20
-4.52319
11
5.08825
21
-4.52317
0
LINE
8
BLACK
6
CONTINUOUS
10
5.08825
20
-4.52317
11
5.08837
21
-4.52323
0
LINE
8
BLACK
6
CONTINUOUS
10
5.08837
20
-4.52323
11
5.08875
21
-4.5233
0
LINE
8
BLACK
6
CONTINUOUS
10
5.08875
20
-4.5233
11
5.08934
21
-4.52379
0
LINE
8
BLACK
6
CONTINUOUS
10
5.08934
20
-4.52379
11
5.09
21
-4.52418
0
LINE
8
BLACK
6
CONTINUOUS
10
5.09
20
-4.52418
11
5.09009
21
-4.52443
0
LINE
8
BLACK
6
CONTINUOUS
10
5.09009
20
-4.52443
11
5.0903
21
-4.5246
0
LINE
8
BLACK
6
CONTINUOUS
10
5.0903
20
-4.5246
11
5.09043
21
-4.52535
0
LINE
8
BLACK
6
CONTINUOUS
10
5.09043
20
-4.52535
11
5.09069
21
-4.52607
0
LINE
8
BLACK
6
CONTINUOUS
10
5.09069
20
-4.52607
11
5.09069
21
-4.55757
0
LINE
8
BLACK
6
CONTINUOUS
10
5.09069
20
-4.55757
11
5.09051
21
-4.55858
0
LINE
8
BLACK
6
CONTINUOUS
10
5.09051
20
-4.55858
11
5.08922
21
-4.56013
0
LINE
8
BLACK
6
CONTINUOUS
10
5.08922
20
-4.56013
11
5.08723
21
-4.56048
0
LINE
8
BLACK
6
CONTINUOUS
10
5.08723
20
-4.56048
11
5.08548
21
-4.55947
0
LINE
8
BLACK
6
CONTINUOUS
10
5.08548
20
-4.55947
11
5.08479
21
-4.55757
0
LINE
8
BLACK
6
CONTINUOUS
10
5.08479
20
-4.55757
11
5.08479
21
-4.54553
0
LINE
8
BLACK
6
CONTINUOUS
10
5.08479
20
-4.54553
11
5.07574
21
-4.54553
0
LINE
8
BLACK
6
CONTINUOUS
10
5.07574
20
-4.54553
11
5.07473
21
-4.54535
0
LINE
8
BLACK
6
CONTINUOUS
10
5.07473
20
-4.54535
11
5.0746
21
-4.54523
0
LINE
8
BLACK
6
CONTINUOUS
10
5.0746
20
-4.54523
11
5.07442
21
-4.54521
0
LINE
8
BLACK
6
CONTINUOUS
10
5.07442
20
-4.54521
11
5.07142
21
-4.54371
0
LINE
8
BLACK
6
CONTINUOUS
10
5.07142
20
-4.54371
11
5.07071
21
-4.54319
0
LINE
8
BLACK
6
CONTINUOUS
10
5.07071
20
-4.54319
11
5.07065
21
-4.54316
0
LINE
8
BLACK
6
CONTINUOUS
10
5.07065
20
-4.54316
11
5.06915
21
-4.54166
0
LINE
8
BLACK
6
CONTINUOUS
10
5.06915
20
-4.54166
11
5.06865
21
-4.54094
0
LINE
8
BLACK
6
CONTINUOUS
10
5.06865
20
-4.54094
11
5.0686
21
-4.54089
0
LINE
8
BLACK
6
CONTINUOUS
10
5.0686
20
-4.54089
11
5.0671
21
-4.53789
0
LINE
8
BLACK
6
CONTINUOUS
10
5.0671
20
-4.53789
11
5.06681
21
-4.53691
0
LINE
8
BLACK
6
CONTINUOUS
10
5.06681
20
-4.53691
11
5.06685
21
-4.53674
0
LINE
8
BLACK
6
CONTINUOUS
10
5.06685
20
-4.53674
11
5.06679
21
-4.53657
0
LINE
8
BLACK
6
CONTINUOUS
10
5.06679
20
-4.53657
11
5.06679
21
-4.53207
0
LINE
8
BLACK
6
CONTINUOUS
10
5.06679
20
-4.53207
11
5.06697
21
-4.53106
0
LINE
8
BLACK
6
CONTINUOUS
10
5.06697
20
-4.53106
11
5.06708
21
-4.53093
0
LINE
8
BLACK
6
CONTINUOUS
10
5.06708
20
-4.53093
11
5.0671
21
-4.53075
0
LINE
8
BLACK
6
CONTINUOUS
10
5.0671
20
-4.53075
11
5.0686
21
-4.52775
0
LINE
8
BLACK
6
CONTINUOUS
10
5.0686
20
-4.52775
11
5.06913
21
-4.52704
0
LINE
8
BLACK
6
CONTINUOUS
10
5.06913
20
-4.52704
11
5.06915
21
-4.52699
0
LINE
8
BLACK
6
CONTINUOUS
10
5.06915
20
-4.52699
11
5.07065
21
-4.52549
0
LINE
8
BLACK
6
CONTINUOUS
10
5.07065
20
-4.52549
11
5.07138
21
-4.52498
0
LINE
8
BLACK
6
CONTINUOUS
10
5.07138
20
-4.52498
11
5.07142
21
-4.52493
0
LINE
8
BLACK
6
CONTINUOUS
10
5.07142
20
-4.52493
11
5.07442
21
-4.52343
0
LINE
8
BLACK
6
CONTINUOUS
10
5.07442
20
-4.52343
11
5.0754
21
-4.52314
0
LINE
8
BLACK
6
CONTINUOUS
10
5.0754
20
-4.52314
11
5.07557
21
-4.52318
0
LINE
8
BLACK
6
CONTINUOUS
10
5.07557
20
-4.52318
11
5.07574
21
-4.52312
0
LINE
8
BLACK
6
CONTINUOUS
10
5.07574
20
-4.52312
11
5.08774
21
-4.52312
0
LINE
8
BLACK
6
CONTINUOUS
10
5.08774
20
-4.52312
11
5.08812
21
-4.52319
0
LINE
8
BLACK
6
CONTINUOUS
10
5.07449
20
-4.53
11
5.07367
21
-4.53082
0
LINE
8
BLACK
6
CONTINUOUS
10
5.07367
20
-4.53082
11
5.07269
21
-4.53277
0
LINE
8
BLACK
6
CONTINUOUS
10
5.07269
20
-4.53277
11
5.07269
21
-4.53588
0
LINE
8
BLACK
6
CONTINUOUS
10
5.07269
20
-4.53588
11
5.07367
21
-4.53782
0
LINE
8
BLACK
6
CONTINUOUS
10
5.07367
20
-4.53782
11
5.07449
21
-4.53865
0
LINE
8
BLACK
6
CONTINUOUS
10
5.07449
20
-4.53865
11
5.07644
21
-4.53962
0
LINE
8
BLACK
6
CONTINUOUS
10
5.07644
20
-4.53962
11
5.08479
21
-4.53962
0
LINE
8
BLACK
6
CONTINUOUS
10
5.08479
20
-4.53962
11
5.08479
21
-4.52903
0
LINE
8
BLACK
6
CONTINUOUS
10
5.08479
20
-4.52903
11
5.07644
21
-4.52903
0
LINE
8
BLACK
6
CONTINUOUS
10
5.07644
20
-4.52903
11
5.07449
21
-4.53
0
LINE
8
BLACK
6
CONTINUOUS
10
5.22948
20
-4.52418
11
5.23017
21
-4.52607
0
LINE
8
BLACK
6
CONTINUOUS
10
5.23017
20
-4.52607
11
5.23017
21
-4.55757
0
LINE
8
BLACK
6
CONTINUOUS
10
5.23017
20
-4.55757
11
5.23
21
-4.55858
0
LINE
8
BLACK
6
CONTINUOUS
10
5.23
20
-4.55858
11
5.2287
21
-4.56013
0
LINE
8
BLACK
6
CONTINUOUS
10
5.2287
20
-4.56013
11
5.22671
21
-4.56048
0
LINE
8
BLACK
6
CONTINUOUS
10
5.22671
20
-4.56048
11
5.22496
21
-4.55947
0
LINE
8
BLACK
6
CONTINUOUS
10
5.22496
20
-4.55947
11
5.22427
21
-4.55757
0
LINE
8
BLACK
6
CONTINUOUS
10
5.22427
20
-4.55757
11
5.22427
21
-4.52607
0
LINE
8
BLACK
6
CONTINUOUS
10
5.22427
20
-4.52607
11
5.22445
21
-4.52506
0
LINE
8
BLACK
6
CONTINUOUS
10
5.22445
20
-4.52506
11
5.22575
21
-4.52352
0
LINE
8
BLACK
6
CONTINUOUS
10
5.22575
20
-4.52352
11
5.22773
21
-4.52317
0
LINE
8
BLACK
6
CONTINUOUS
10
5.22773
20
-4.52317
11
5.22948
21
-4.52418
0
LINE
8
BLACK
6
CONTINUOUS
10
5.2014
20
-4.43199
11
5.20466
21
-4.43231
0
LINE
8
BLACK
6
CONTINUOUS
10
5.20466
20
-4.43231
11
5.21027
21
-4.43401
0
LINE
8
BLACK
6
CONTINUOUS
10
5.21027
20
-4.43401
11
5.21544
21
-4.43677
0
LINE
8
BLACK
6
CONTINUOUS
10
5.21544
20
-4.43677
11
5.21998
21
-4.4405
0
LINE
8
BLACK
6
CONTINUOUS
10
5.21998
20
-4.4405
11
5.2237
21
-4.44503
0
LINE
8
BLACK
6
CONTINUOUS
10
5.2237
20
-4.44503
11
5.22646
21
-4.4502
0
LINE
8
BLACK
6
CONTINUOUS
10
5.22646
20
-4.4502
11
5.22817
21
-4.45582
0
LINE
8
BLACK
6
CONTINUOUS
10
5.22817
20
-4.45582
11
5.22874
21
-4.46165
0
LINE
8
BLACK
6
CONTINUOUS
10
5.22874
20
-4.46165
11
5.22874
21
-4.48528
0
LINE
8
BLACK
6
CONTINUOUS
10
5.22874
20
-4.48528
11
5.22817
21
-4.49111
0
LINE
8
BLACK
6
CONTINUOUS
10
5.22817
20
-4.49111
11
5.22646
21
-4.49673
0
LINE
8
BLACK
6
CONTINUOUS
10
5.22646
20
-4.49673
11
5.2237
21
-4.5019
0
LINE
8
BLACK
6
CONTINUOUS
10
5.2237
20
-4.5019
11
5.21998
21
-4.50643
0
LINE
8
BLACK
6
CONTINUOUS
10
5.21998
20
-4.50643
11
5.21544
21
-4.51015
0
LINE
8
BLACK
6
CONTINUOUS
10
5.21544
20
-4.51015
11
5.21027
21
-4.51292
0
LINE
8
BLACK
6
CONTINUOUS
10
5.21027
20
-4.51292
11
5.20466
21
-4.51462
0
LINE
8
BLACK
6
CONTINUOUS
10
5.20466
20
-4.51462
11
5.2014
21
-4.51494
0
LINE
8
BLACK
6
CONTINUOUS
10
5.2014
20
-4.51494
11
5.20079
21
-4.5152
0
LINE
8
BLACK
6
CONTINUOUS
10
5.20079
20
-4.5152
11
5.19882
21
-4.5152
0
LINE
8
BLACK
6
CONTINUOUS
10
5.19882
20
-4.5152
11
5.09252
21
-4.5152
0
LINE
8
BLACK
6
CONTINUOUS
10
5.09252
20
-4.5152
11
5.09055
21
-4.5152
0
LINE
8
BLACK
6
CONTINUOUS
10
5.09055
20
-4.5152
11
5.08994
21
-4.51494
0
LINE
8
BLACK
6
CONTINUOUS
10
5.08994
20
-4.51494
11
5.08668
21
-4.51462
0
LINE
8
BLACK
6
CONTINUOUS
10
5.08668
20
-4.51462
11
5.08107
21
-4.51292
0
LINE
8
BLACK
6
CONTINUOUS
10
5.08107
20
-4.51292
11
5.0759
21
-4.51015
0
LINE
8
BLACK
6
CONTINUOUS
10
5.0759
20
-4.51015
11
5.07136
21
-4.50643
0
LINE
8
BLACK
6
CONTINUOUS
10
5.07136
20
-4.50643
11
5.06764
21
-4.5019
0
LINE
8
BLACK
6
CONTINUOUS
10
5.06764
20
-4.5019
11
5.06488
21
-4.49673
0
LINE
8
BLACK
6
CONTINUOUS
10
5.06488
20
-4.49673
11
5.06317
21
-4.49111
0
LINE
8
BLACK
6
CONTINUOUS
10
5.06317
20
-4.49111
11
5.0626
21
-4.48528
0
LINE
8
BLACK
6
CONTINUOUS
10
5.0626
20
-4.48528
11
5.0626
21
-4.46165
0
LINE
8
BLACK
6
CONTINUOUS
10
5.0626
20
-4.46165
11
5.06317
21
-4.45582
0
LINE
8
BLACK
6
CONTINUOUS
10
5.06317
20
-4.45582
11
5.06488
21
-4.4502
0
LINE
8
BLACK
6
CONTINUOUS
10
5.06488
20
-4.4502
11
5.06764
21
-4.44503
0
LINE
8
BLACK
6
CONTINUOUS
10
5.06764
20
-4.44503
11
5.07136
21
-4.4405
0
LINE
8
BLACK
6
CONTINUOUS
10
5.07136
20
-4.4405
11
5.0759
21
-4.43677
0
LINE
8
BLACK
6
CONTINUOUS
10
5.0759
20
-4.43677
11
5.08107
21
-4.43401
0
LINE
8
BLACK
6
CONTINUOUS
10
5.08107
20
-4.43401
11
5.08668
21
-4.43231
0
LINE
8
BLACK
6
CONTINUOUS
10
5.08668
20
-4.43231
11
5.08994
21
-4.43199
0
LINE
8
BLACK
6
CONTINUOUS
10
5.08994
20
-4.43199
11
5.09055
21
-4.43173
0
LINE
8
BLACK
6
CONTINUOUS
10
5.09055
20
-4.43173
11
5.20079
21
-4.43173
0
LINE
8
BLACK
6
CONTINUOUS
10
5.20079
20
-4.43173
11
5.2014
21
-4.43199
0
LINE
8
BLACK
6
CONTINUOUS
10
5.09252
20
-4.43646
11
5.08968
21
-4.43646
0
LINE
8
BLACK
6
CONTINUOUS
10
5.08968
20
-4.43646
11
5.08415
21
-4.43772
0
LINE
8
BLACK
6
CONTINUOUS
10
5.08415
20
-4.43772
11
5.07903
21
-4.44018
0
LINE
8
BLACK
6
CONTINUOUS
10
5.07903
20
-4.44018
11
5.07459
21
-4.44372
0
LINE
8
BLACK
6
CONTINUOUS
10
5.07459
20
-4.44372
11
5.07105
21
-4.44816
0
LINE
8
BLACK
6
CONTINUOUS
10
5.07105
20
-4.44816
11
5.06859
21
-4.45328
0
LINE
8
BLACK
6
CONTINUOUS
10
5.06859
20
-4.45328
11
5.06732
21
-4.45881
0
LINE
8
BLACK
6
CONTINUOUS
10
5.06732
20
-4.45881
11
5.06732
21
-4.46165
0
LINE
8
BLACK
6
CONTINUOUS
10
5.06732
20
-4.46165
11
5.06732
21
-4.46165
0
LINE
8
BLACK
6
CONTINUOUS
10
5.06732
20
-4.46165
11
5.06732
21
-4.48528
0
LINE
8
BLACK
6
CONTINUOUS
10
5.06732
20
-4.48528
11
5.06732
21
-4.48811
0
LINE
8
BLACK
6
CONTINUOUS
10
5.06732
20
-4.48811
11
5.06859
21
-4.49365
0
LINE
8
BLACK
6
CONTINUOUS
10
5.06859
20
-4.49365
11
5.07105
21
-4.49877
0
LINE
8
BLACK
6
CONTINUOUS
10
5.07105
20
-4.49877
11
5.07459
21
-4.50321
0
LINE
8
BLACK
6
CONTINUOUS
10
5.07459
20
-4.50321
11
5.07903
21
-4.50675
0
LINE
8
BLACK
6
CONTINUOUS
10
5.07903
20
-4.50675
11
5.08415
21
-4.50921
0
LINE
8
BLACK
6
CONTINUOUS
10
5.08415
20
-4.50921
11
5.08968
21
-4.51047
0
LINE
8
BLACK
6
CONTINUOUS
10
5.08968
20
-4.51047
11
5.09055
21
-4.51047
0
LINE
8
BLACK
6
CONTINUOUS
10
5.09055
20
-4.51047
11
5.20079
21
-4.51047
0
LINE
8
BLACK
6
CONTINUOUS
10
5.20079
20
-4.51047
11
5.20166
21
-4.51047
0
LINE
8
BLACK
6
CONTINUOUS
10
5.20166
20
-4.51047
11
5.20719
21
-4.50921
0
LINE
8
BLACK
6
CONTINUOUS
10
5.20719
20
-4.50921
11
5.21231
21
-4.50675
0
LINE
8
BLACK
6
CONTINUOUS
10
5.21231
20
-4.50675
11
5.21675
21
-4.50321
0
LINE
8
BLACK
6
CONTINUOUS
10
5.21675
20
-4.50321
11
5.22029
21
-4.49877
0
LINE
8
BLACK
6
CONTINUOUS
10
5.22029
20
-4.49877
11
5.22275
21
-4.49365
0
LINE
8
BLACK
6
CONTINUOUS
10
5.22275
20
-4.49365
11
5.22402
21
-4.48811
0
LINE
8
BLACK
6
CONTINUOUS
10
5.22402
20
-4.48811
11
5.22402
21
-4.48528
0
LINE
8
BLACK
6
CONTINUOUS
10
5.22402
20
-4.48528
11
5.22402
21
-4.46165
0
LINE
8
BLACK
6
CONTINUOUS
10
5.22402
20
-4.46165
11
5.22402
21
-4.46165
0
LINE
8
BLACK
6
CONTINUOUS
10
5.22402
20
-4.46165
11
5.22402
21
-4.45881
0
LINE
8
BLACK
6
CONTINUOUS
10
5.22402
20
-4.45881
11
5.22275
21
-4.45328
0
LINE
8
BLACK
6
CONTINUOUS
10
5.22275
20
-4.45328
11
5.22029
21
-4.44816
0
LINE
8
BLACK
6
CONTINUOUS
10
5.22029
20
-4.44816
11
5.21675
21
-4.44372
0
LINE
8
BLACK
6
CONTINUOUS
10
5.21675
20
-4.44372
11
5.21231
21
-4.44018
0
LINE
8
BLACK
6
CONTINUOUS
10
5.21231
20
-4.44018
11
5.20719
21
-4.43772
0
LINE
8
BLACK
6
CONTINUOUS
10
5.20719
20
-4.43772
11
5.20166
21
-4.43646
0
LINE
8
BLACK
6
CONTINUOUS
10
5.20166
20
-4.43646
11
5.19882
21
-4.43646
0
LINE
8
BLACK
6
CONTINUOUS
10
5.19882
20
-4.43646
11
5.09252
21
-4.43646
0
LINE
8
BLACK
6
CONTINUOUS
10
5.17295
20
-4.33004
11
5.17312
21
-4.33003
0
LINE
8
BLACK
6
CONTINUOUS
10
5.17312
20
-4.33003
11
5.17381
21
-4.33054
0
LINE
8
BLACK
6
CONTINUOUS
10
5.17381
20
-4.33054
11
5.17455
21
-4.33097
0
LINE
8
BLACK
6
CONTINUOUS
10
5.17455
20
-4.33097
11
5.17461
21
-4.33113
0
LINE
8
BLACK
6
CONTINUOUS
10
5.17461
20
-4.33113
11
5.17475
21
-4.33123
0
LINE
8
BLACK
6
CONTINUOUS
10
5.17475
20
-4.33123
11
5.17834
21
-4.33661
0
LINE
8
BLACK
6
CONTINUOUS
10
5.17834
20
-4.33661
11
5.18154
21
-4.33981
0
LINE
8
BLACK
6
CONTINUOUS
10
5.18154
20
-4.33981
11
5.18486
21
-4.34147
0
LINE
8
BLACK
6
CONTINUOUS
10
5.18486
20
-4.34147
11
5.18568
21
-4.34209
0
LINE
8
BLACK
6
CONTINUOUS
10
5.18568
20
-4.34209
11
5.18649
21
-4.34394
0
LINE
8
BLACK
6
CONTINUOUS
10
5.18649
20
-4.34394
11
5.18591
21
-4.34587
0
LINE
8
BLACK
6
CONTINUOUS
10
5.18591
20
-4.34587
11
5.18423
21
-4.34699
0
LINE
8
BLACK
6
CONTINUOUS
10
5.18423
20
-4.34699
11
5.18222
21
-4.34676
0
LINE
8
BLACK
6
CONTINUOUS
10
5.18222
20
-4.34676
11
5.17847
21
-4.34488
0
LINE
8
BLACK
6
CONTINUOUS
10
5.17847
20
-4.34488
11
5.17776
21
-4.34436
0
LINE
8
BLACK
6
CONTINUOUS
10
5.17776
20
-4.34436
11
5.1777
21
-4.34433
0
LINE
8
BLACK
6
CONTINUOUS
10
5.1777
20
-4.34433
11
5.17524
21
-4.34187
0
LINE
8
BLACK
6
CONTINUOUS
10
5.17524
20
-4.34187
11
5.17524
21
-4.36928
0
LINE
8
BLACK
6
CONTINUOUS
10
5.17524
20
-4.36928
11
5.18354
21
-4.36928
0
LINE
8
BLACK
6
CONTINUOUS
10
5.18354
20
-4.36928
11
5.18455
21
-4.36946
0
LINE
8
BLACK
6
CONTINUOUS
10
5.18455
20
-4.36946
11
5.1861
21
-4.37076
0
LINE
8
BLACK
6
CONTINUOUS
10
5.1861
20
-4.37076
11
5.18645
21
-4.37275
0
LINE
8
BLACK
6
CONTINUOUS
10
5.18645
20
-4.37275
11
5.18544
21
-4.3745
0
LINE
8
BLACK
6
CONTINUOUS
10
5.18544
20
-4.3745
11
5.18354
21
-4.37519
0
LINE
8
BLACK
6
CONTINUOUS
10
5.18354
20
-4.37519
11
5.16104
21
-4.37519
0
LINE
8
BLACK
6
CONTINUOUS
10
5.16104
20
-4.37519
11
5.16003
21
-4.37501
0
LINE
8
BLACK
6
CONTINUOUS
10
5.16003
20
-4.37501
11
5.15849
21
-4.37371
0
LINE
8
BLACK
6
CONTINUOUS
10
5.15849
20
-4.37371
11
5.15813
21
-4.37172
0
LINE
8
BLACK
6
CONTINUOUS
10
5.15813
20
-4.37172
11
5.15914
21
-4.36998
0
LINE
8
BLACK
6
CONTINUOUS
10
5.15914
20
-4.36998
11
5.16104
21
-4.36928
0
LINE
8
BLACK
6
CONTINUOUS
10
5.16104
20
-4.36928
11
5.16934
21
-4.36928
0
LINE
8
BLACK
6
CONTINUOUS
10
5.16934
20
-4.36928
11
5.16934
21
-4.33287
0
LINE
8
BLACK
6
CONTINUOUS
10
5.16934
20
-4.33287
11
5.16952
21
-4.33186
0
LINE
8
BLACK
6
CONTINUOUS
10
5.16952
20
-4.33186
11
5.16963
21
-4.33173
0
LINE
8
BLACK
6
CONTINUOUS
10
5.16963
20
-4.33173
11
5.16964
21
-4.33156
0
LINE
8
BLACK
6
CONTINUOUS
10
5.16964
20
-4.33156
11
5.17026
21
-4.33097
0
LINE
8
BLACK
6
CONTINUOUS
10
5.17026
20
-4.33097
11
5.17081
21
-4.33031
0
LINE
8
BLACK
6
CONTINUOUS
10
5.17081
20
-4.33031
11
5.17098
21
-4.33028
0
LINE
8
BLACK
6
CONTINUOUS
10
5.17098
20
-4.33028
11
5.1711
21
-4.33016
0
LINE
8
BLACK
6
CONTINUOUS
10
5.1711
20
-4.33016
11
5.17196
21
-4.33011
0
LINE
8
BLACK
6
CONTINUOUS
10
5.17196
20
-4.33011
11
5.1728
21
-4.32996
0
LINE
8
BLACK
6
CONTINUOUS
10
5.1728
20
-4.32996
11
5.17295
21
-4.33004
0
LINE
8
BLACK
6
CONTINUOUS
10
5.22517
20
-4.33097
11
5.22586
21
-4.33287
0
LINE
8
BLACK
6
CONTINUOUS
10
5.22586
20
-4.33287
11
5.22586
21
-4.36474
0
LINE
8
BLACK
6
CONTINUOUS
10
5.22586
20
-4.36474
11
5.22568
21
-4.36575
0
LINE
8
BLACK
6
CONTINUOUS
10
5.22568
20
-4.36575
11
5.22557
21
-4.36588
0
LINE
8
BLACK
6
CONTINUOUS
10
5.22557
20
-4.36588
11
5.22555
21
-4.36606
0
LINE
8
BLACK
6
CONTINUOUS
10
5.22555
20
-4.36606
11
5.22368
21
-4.36981
0
LINE
8
BLACK
6
CONTINUOUS
10
5.22368
20
-4.36981
11
5.22315
21
-4.37052
0
LINE
8
BLACK
6
CONTINUOUS
10
5.22315
20
-4.37052
11
5.22312
21
-4.37058
0
LINE
8
BLACK
6
CONTINUOUS
10
5.22312
20
-4.37058
11
5.22125
21
-4.37245
0
LINE
8
BLACK
6
CONTINUOUS
10
5.22125
20
-4.37245
11
5.22052
21
-4.37296
0
LINE
8
BLACK
6
CONTINUOUS
10
5.22052
20
-4.37296
11
5.22048
21
-4.373
0
LINE
8
BLACK
6
CONTINUOUS
10
5.22048
20
-4.373
11
5.21673
21
-4.37488
0
LINE
8
BLACK
6
CONTINUOUS
10
5.21673
20
-4.37488
11
5.21575
21
-4.37517
0
LINE
8
BLACK
6
CONTINUOUS
10
5.21575
20
-4.37517
11
5.21558
21
-4.37513
0
LINE
8
BLACK
6
CONTINUOUS
10
5.21558
20
-4.37513
11
5.21541
21
-4.37519
0
LINE
8
BLACK
6
CONTINUOUS
10
5.21541
20
-4.37519
11
5.20791
21
-4.37519
0
LINE
8
BLACK
6
CONTINUOUS
10
5.20791
20
-4.37519
11
5.2069
21
-4.37501
0
LINE
8
BLACK
6
CONTINUOUS
10
5.2069
20
-4.37501
11
5.20677
21
-4.3749
0
LINE
8
BLACK
6
CONTINUOUS
10
5.20677
20
-4.3749
11
5.20659
21
-4.37488
0
LINE
8
BLACK
6
CONTINUOUS
10
5.20659
20
-4.37488
11
5.20284
21
-4.373
0
LINE
8
BLACK
6
CONTINUOUS
10
5.20284
20
-4.373
11
5.20213
21
-4.37248
0
LINE
8
BLACK
6
CONTINUOUS
10
5.20213
20
-4.37248
11
5.20207
21
-4.37245
0
LINE
8
BLACK
6
CONTINUOUS
10
5.20207
20
-4.37245
11
5.2002
21
-4.37058
0
LINE
8
BLACK
6
CONTINUOUS
10
5.2002
20
-4.37058
11
5.19969
21
-4.36985
0
LINE
8
BLACK
6
CONTINUOUS
10
5.19969
20
-4.36985
11
5.19965
21
-4.36981
0
LINE
8
BLACK
6
CONTINUOUS
10
5.19965
20
-4.36981
11
5.19777
21
-4.36606
0
LINE
8
BLACK
6
CONTINUOUS
10
5.19777
20
-4.36606
11
5.19748
21
-4.36508
0
LINE
8
BLACK
6
CONTINUOUS
10
5.19748
20
-4.36508
11
5.19752
21
-4.3649
0
LINE
8
BLACK
6
CONTINUOUS
10
5.19752
20
-4.3649
11
5.19746
21
-4.36474
0
LINE
8
BLACK
6
CONTINUOUS
10
5.19746
20
-4.36474
11
5.19746
21
-4.33287
0
LINE
8
BLACK
6
CONTINUOUS
10
5.19746
20
-4.33287
11
5.19764
21
-4.33186
0
LINE
8
BLACK
6
CONTINUOUS
10
5.19764
20
-4.33186
11
5.19894
21
-4.33031
0
LINE
8
BLACK
6
CONTINUOUS
10
5.19894
20
-4.33031
11
5.20093
21
-4.32996
0
LINE
8
BLACK
6
CONTINUOUS
10
5.20093
20
-4.32996
11
5.20267
21
-4.33097
0
LINE
8
BLACK
6
CONTINUOUS
10
5.20267
20
-4.33097
11
5.20337
21
-4.33287
0
LINE
8
BLACK
6
CONTINUOUS
10
5.20337
20
-4.33287
11
5.20337
21
-4.36404
0
LINE
8
BLACK
6
CONTINUOUS
10
5.20337
20
-4.36404
11
5.20471
21
-4.36674
0
LINE
8
BLACK
6
CONTINUOUS
10
5.20471
20
-4.36674
11
5.20591
21
-4.36794
0
LINE
8
BLACK
6
CONTINUOUS
10
5.20591
20
-4.36794
11
5.20861
21
-4.36928
0
LINE
8
BLACK
6
CONTINUOUS
10
5.20861
20
-4.36928
11
5.21471
21
-4.36928
0
LINE
8
BLACK
6
CONTINUOUS
10
5.21471
20
-4.36928
11
5.21741
21
-4.36794
0
LINE
8
BLACK
6
CONTINUOUS
10
5.21741
20
-4.36794
11
5.21861
21
-4.36674
0
LINE
8
BLACK
6
CONTINUOUS
10
5.21861
20
-4.36674
11
5.21996
21
-4.36404
0
LINE
8
BLACK
6
CONTINUOUS
10
5.21996
20
-4.36404
11
5.21996
21
-4.33287
0
LINE
8
BLACK
6
CONTINUOUS
10
5.21996
20
-4.33287
11
5.22013
21
-4.33186
0
LINE
8
BLACK
6
CONTINUOUS
10
5.22013
20
-4.33186
11
5.22143
21
-4.33031
0
LINE
8
BLACK
6
CONTINUOUS
10
5.22143
20
-4.33031
11
5.22342
21
-4.32996
0
LINE
8
BLACK
6
CONTINUOUS
10
5.22342
20
-4.32996
11
5.22517
21
-4.33097
0
LINE
8
BLACK
6
CONTINUOUS
10
5.01531
20
-4.30039
11
5.016
21
-4.30206
0
LINE
8
BLACK
6
CONTINUOUS
10
5.016
20
-4.30206
11
5.016
21
-4.31939
0
LINE
8
BLACK
6
CONTINUOUS
10
5.016
20
-4.31939
11
5.03332
21
-4.31939
0
LINE
8
BLACK
6
CONTINUOUS
10
5.03332
20
-4.31939
11
5.03499
21
-4.32008
0
LINE
8
BLACK
6
CONTINUOUS
10
5.03499
20
-4.32008
11
5.03569
21
-4.32175
0
LINE
8
BLACK
6
CONTINUOUS
10
5.03569
20
-4.32175
11
5.03499
21
-4.32342
0
LINE
8
BLACK
6
CONTINUOUS
10
5.03499
20
-4.32342
11
5.03332
21
-4.32411
0
LINE
8
BLACK
6
CONTINUOUS
10
5.03332
20
-4.32411
11
5.01364
21
-4.32411
0
LINE
8
BLACK
6
CONTINUOUS
10
5.01364
20
-4.32411
11
5.01197
21
-4.32342
0
LINE
8
BLACK
6
CONTINUOUS
10
5.01197
20
-4.32342
11
5.01128
21
-4.32175
0
LINE
8
BLACK
6
CONTINUOUS
10
5.01128
20
-4.32175
11
5.01128
21
-4.30206
0
LINE
8
BLACK
6
CONTINUOUS
10
5.01128
20
-4.30206
11
5.01197
21
-4.30039
0
LINE
8
BLACK
6
CONTINUOUS
10
5.01197
20
-4.30039
11
5.01364
21
-4.2997
0
LINE
8
BLACK
6
CONTINUOUS
10
5.01364
20
-4.2997
11
5.01531
21
-4.30039
0
LINE
8
BLACK
6
CONTINUOUS
10
5.22003
20
-4.27874
11
5.22072
21
-4.28041
0
LINE
8
BLACK
6
CONTINUOUS
10
5.22072
20
-4.28041
11
5.22072
21
-4.31781
0
LINE
8
BLACK
6
CONTINUOUS
10
5.22072
20
-4.31781
11
5.22003
21
-4.31948
0
LINE
8
BLACK
6
CONTINUOUS
10
5.22003
20
-4.31948
11
5.21836
21
-4.32017
0
LINE
8
BLACK
6
CONTINUOUS
10
5.21836
20
-4.32017
11
5.21669
21
-4.31948
0
LINE
8
BLACK
6
CONTINUOUS
10
5.21669
20
-4.31948
11
5.216
21
-4.31781
0
LINE
8
BLACK
6
CONTINUOUS
10
5.216
20
-4.31781
11
5.216
21
-4.28041
0
LINE
8
BLACK
6
CONTINUOUS
10
5.216
20
-4.28041
11
5.21669
21
-4.27874
0
LINE
8
BLACK
6
CONTINUOUS
10
5.21669
20
-4.27874
11
5.21836
21
-4.27805
0
LINE
8
BLACK
6
CONTINUOUS
10
5.21836
20
-4.27805
11
5.22003
21
-4.27874
0
LINE
8
BLACK
6
CONTINUOUS
10
5.58632
20
-4.22896
11
5.58701
21
-4.23063
0
LINE
8
BLACK
6
CONTINUOUS
10
5.58701
20
-4.23063
11
5.58632
21
-4.2323
0
LINE
8
BLACK
6
CONTINUOUS
10
5.58632
20
-4.2323
11
5.58465
21
-4.23299
0
LINE
8
BLACK
6
CONTINUOUS
10
5.58465
20
-4.23299
11
5.43504
21
-4.23299
0
LINE
8
BLACK
6
CONTINUOUS
10
5.43504
20
-4.23299
11
5.43504
21
-4.30701
0
LINE
8
BLACK
6
CONTINUOUS
10
5.43504
20
-4.30701
11
5.58465
21
-4.30701
0
LINE
8
BLACK
6
CONTINUOUS
10
5.58465
20
-4.30701
11
5.58632
21
-4.3077
0
LINE
8
BLACK
6
CONTINUOUS
10
5.58632
20
-4.3077
11
5.58701
21
-4.30937
0
LINE
8
BLACK
6
CONTINUOUS
10
5.58701
20
-4.30937
11
5.58632
21
-4.31104
0
LINE
8
BLACK
6
CONTINUOUS
10
5.58632
20
-4.31104
11
5.58465
21
-4.31173
0
LINE
8
BLACK
6
CONTINUOUS
10
5.58465
20
-4.31173
11
5.43268
21
-4.31173
0
LINE
8
BLACK
6
CONTINUOUS
10
5.43268
20
-4.31173
11
5.43101
21
-4.31104
0
LINE
8
BLACK
6
CONTINUOUS
10
5.43101
20
-4.31104
11
5.43031
21
-4.30937
0
LINE
8
BLACK
6
CONTINUOUS
10
5.43031
20
-4.30937
11
5.43031
21
-4.23063
0
LINE
8
BLACK
6
CONTINUOUS
10
5.43031
20
-4.23063
11
5.43101
21
-4.22896
0
LINE
8
BLACK
6
CONTINUOUS
10
5.43101
20
-4.22896
11
5.43268
21
-4.22827
0
LINE
8
BLACK
6
CONTINUOUS
10
5.43268
20
-4.22827
11
5.58465
21
-4.22827
0
LINE
8
BLACK
6
CONTINUOUS
10
5.58465
20
-4.22827
11
5.58632
21
-4.22896
0
LINE
8
BLACK
6
CONTINUOUS
10
5.25134
20
-4.26411
11
5.25203
21
-4.26578
0
LINE
8
BLACK
6
CONTINUOUS
10
5.25203
20
-4.26578
11
5.25203
21
-4.28635
0
LINE
8
BLACK
6
CONTINUOUS
10
5.25203
20
-4.28635
11
5.25134
21
-4.28802
0
LINE
8
BLACK
6
CONTINUOUS
10
5.25134
20
-4.28802
11
5.24967
21
-4.28871
0
LINE
8
BLACK
6
CONTINUOUS
10
5.24967
20
-4.28871
11
5.248
21
-4.28802
0
LINE
8
BLACK
6
CONTINUOUS
10
5.248
20
-4.28802
11
5.24731
21
-4.28635
0
LINE
8
BLACK
6
CONTINUOUS
10
5.24731
20
-4.28635
11
5.24731
21
-4.26578
0
LINE
8
BLACK
6
CONTINUOUS
10
5.24731
20
-4.26578
11
5.248
21
-4.26411
0
LINE
8
BLACK
6
CONTINUOUS
10
5.248
20
-4.26411
11
5.24967
21
-4.26342
0
LINE
8
BLACK
6
CONTINUOUS
10
5.24967
20
-4.26342
11
5.25134
21
-4.26411
0
LINE
8
BLACK
6
CONTINUOUS
10
5.30921
20
-4.26411
11
5.30991
21
-4.26578
0
LINE
8
BLACK
6
CONTINUOUS
10
5.30991
20
-4.26578
11
5.30991
21
-4.28635
0
LINE
8
BLACK
6
CONTINUOUS
10
5.30991
20
-4.28635
11
5.30921
21
-4.28802
0
LINE
8
BLACK
6
CONTINUOUS
10
5.30921
20
-4.28802
11
5.30754
21
-4.28871
0
LINE
8
BLACK
6
CONTINUOUS
10
5.30754
20
-4.28871
11
5.30587
21
-4.28802
0
LINE
8
BLACK
6
CONTINUOUS
10
5.30587
20
-4.28802
11
5.30518
21
-4.28635
0
LINE
8
BLACK
6
CONTINUOUS
10
5.30518
20
-4.28635
11
5.30518
21
-4.26578
0
LINE
8
BLACK
6
CONTINUOUS
10
5.30518
20
-4.26578
11
5.30587
21
-4.26411
0
LINE
8
BLACK
6
CONTINUOUS
10
5.30587
20
-4.26411
11
5.30754
21
-4.26342
0
LINE
8
BLACK
6
CONTINUOUS
10
5.30754
20
-4.26342
11
5.30921
21
-4.26411
0
LINE
8
BLACK
6
CONTINUOUS
10
5.35273
20
-4.26411
11
5.35343
21
-4.26578
0
LINE
8
BLACK
6
CONTINUOUS
10
5.35343
20
-4.26578
11
5.35343
21
-4.28635
0
LINE
8
BLACK
6
CONTINUOUS
10
5.35343
20
-4.28635
11
5.35273
21
-4.28802
0
LINE
8
BLACK
6
CONTINUOUS
10
5.35273
20
-4.28802
11
5.35106
21
-4.28871
0
LINE
8
BLACK
6
CONTINUOUS
10
5.35106
20
-4.28871
11
5.34939
21
-4.28802
0
LINE
8
BLACK
6
CONTINUOUS
10
5.34939
20
-4.28802
11
5.3487
21
-4.28635
0
LINE
8
BLACK
6
CONTINUOUS
10
5.3487
20
-4.28635
11
5.3487
21
-4.26578
0
LINE
8
BLACK
6
CONTINUOUS
10
5.3487
20
-4.26578
11
5.34939
21
-4.26411
0
LINE
8
BLACK
6
CONTINUOUS
10
5.34939
20
-4.26411
11
5.35106
21
-4.26342
0
LINE
8
BLACK
6
CONTINUOUS
10
5.35106
20
-4.26342
11
5.35273
21
-4.26411
0
LINE
8
BLACK
6
CONTINUOUS
10
5.41061
20
-4.26411
11
5.4113
21
-4.26578
0
LINE
8
BLACK
6
CONTINUOUS
10
5.4113
20
-4.26578
11
5.4113
21
-4.28635
0
LINE
8
BLACK
6
CONTINUOUS
10
5.4113
20
-4.28635
11
5.41061
21
-4.28802
0
LINE
8
BLACK
6
CONTINUOUS
10
5.41061
20
-4.28802
11
5.40894
21
-4.28871
0
LINE
8
BLACK
6
CONTINUOUS
10
5.40894
20
-4.28871
11
5.40727
21
-4.28802
0
LINE
8
BLACK
6
CONTINUOUS
10
5.40727
20
-4.28802
11
5.40657
21
-4.28635
0
LINE
8
BLACK
6
CONTINUOUS
10
5.40657
20
-4.28635
11
5.40657
21
-4.26578
0
LINE
8
BLACK
6
CONTINUOUS
10
5.40657
20
-4.26578
11
5.40727
21
-4.26411
0
LINE
8
BLACK
6
CONTINUOUS
10
5.40727
20
-4.26411
11
5.40894
21
-4.26342
0
LINE
8
BLACK
6
CONTINUOUS
10
5.40894
20
-4.26342
11
5.41061
21
-4.26411
0
LINE
8
BLACK
6
CONTINUOUS
10
5.44554
20
-4.1765
11
5.44571
21
-4.17649
0
LINE
8
BLACK
6
CONTINUOUS
10
5.44571
20
-4.17649
11
5.4464
21
-4.177
0
LINE
8
BLACK
6
CONTINUOUS
10
5.4464
20
-4.177
11
5.44714
21
-4.17743
0
LINE
8
BLACK
6
CONTINUOUS
10
5.44714
20
-4.17743
11
5.4472
21
-4.17759
0
LINE
8
BLACK
6
CONTINUOUS
10
5.4472
20
-4.17759
11
5.44734
21
-4.17769
0
LINE
8
BLACK
6
CONTINUOUS
10
5.44734
20
-4.17769
11
5.45093
21
-4.18307
0
LINE
8
BLACK
6
CONTINUOUS
10
5.45093
20
-4.18307
11
5.45413
21
-4.18627
0
LINE
8
BLACK
6
CONTINUOUS
10
5.45413
20
-4.18627
11
5.45745
21
-4.18793
0
LINE
8
BLACK
6
CONTINUOUS
10
5.45745
20
-4.18793
11
5.45827
21
-4.18854
0
LINE
8
BLACK
6
CONTINUOUS
10
5.45827
20
-4.18854
11
5.45908
21
-4.1904
0
LINE
8
BLACK
6
CONTINUOUS
10
5.45908
20
-4.1904
11
5.4585
21
-4.19233
0
LINE
8
BLACK
6
CONTINUOUS
10
5.4585
20
-4.19233
11
5.45682
21
-4.19344
0
LINE
8
BLACK
6
CONTINUOUS
10
5.45682
20
-4.19344
11
5.45481
21
-4.19321
0
LINE
8
BLACK
6
CONTINUOUS
10
5.45481
20
-4.19321
11
5.45106
21
-4.19134
0
LINE
8
BLACK
6
CONTINUOUS
10
5.45106
20
-4.19134
11
5.45035
21
-4.19081
0
LINE
8
BLACK
6
CONTINUOUS
10
5.45035
20
-4.19081
11
5.45029
21
-4.19079
0
LINE
8
BLACK
6
CONTINUOUS
10
5.45029
20
-4.19079
11
5.44783
21
-4.18833
0
LINE
8
BLACK
6
CONTINUOUS
10
5.44783
20
-4.18833
11
5.44783
21
-4.21574
0
LINE
8
BLACK
6
CONTINUOUS
10
5.44783
20
-4.21574
11
5.45613
21
-4.21574
0
LINE
8
BLACK
6
CONTINUOUS
10
5.45613
20
-4.21574
11
5.45714
21
-4.21592
0
LINE
8
BLACK
6
CONTINUOUS
10
5.45714
20
-4.21592
11
5.45869
21
-4.21722
0
LINE
8
BLACK
6
CONTINUOUS
10
5.45869
20
-4.21722
11
5.45904
21
-4.21921
0
LINE
8
BLACK
6
CONTINUOUS
10
5.45904
20
-4.21921
11
5.45803
21
-4.22096
0
LINE
8
BLACK
6
CONTINUOUS
10
5.45803
20
-4.22096
11
5.45613
21
-4.22165
0
LINE
8
BLACK
6
CONTINUOUS
10
5.45613
20
-4.22165
11
5.43363
21
-4.22165
0
LINE
8
BLACK
6
CONTINUOUS
10
5.43363
20
-4.22165
11
5.43262
21
-4.22147
0
LINE
8
BLACK
6
CONTINUOUS
10
5.43262
20
-4.22147
11
5.43108
21
-4.22017
0
LINE
8
BLACK
6
CONTINUOUS
10
5.43108
20
-4.22017
11
5.43073
21
-4.21818
0
LINE
8
BLACK
6
CONTINUOUS
10
5.43073
20
-4.21818
11
5.43174
21
-4.21643
0
LINE
8
BLACK
6
CONTINUOUS
10
5.43174
20
-4.21643
11
5.43363
21
-4.21574
0
LINE
8
BLACK
6
CONTINUOUS
10
5.43363
20
-4.21574
11
5.44193
21
-4.21574
0
LINE
8
BLACK
6
CONTINUOUS
10
5.44193
20
-4.21574
11
5.44193
21
-4.17932
0
LINE
8
BLACK
6
CONTINUOUS
10
5.44193
20
-4.17932
11
5.44211
21
-4.17831
0
LINE
8
BLACK
6
CONTINUOUS
10
5.44211
20
-4.17831
11
5.44222
21
-4.17818
0
LINE
8
BLACK
6
CONTINUOUS
10
5.44222
20
-4.17818
11
5.44223
21
-4.17801
0
LINE
8
BLACK
6
CONTINUOUS
10
5.44223
20
-4.17801
11
5.44285
21
-4.17742
0
LINE
8
BLACK
6
CONTINUOUS
10
5.44285
20
-4.17742
11
5.44341
21
-4.17677
0
LINE
8
BLACK
6
CONTINUOUS
10
5.44341
20
-4.17677
11
5.44357
21
-4.17674
0
LINE
8
BLACK
6
CONTINUOUS
10
5.44357
20
-4.17674
11
5.4437
21
-4.17662
0
LINE
8
BLACK
6
CONTINUOUS
10
5.4437
20
-4.17662
11
5.44455
21
-4.17656
0
LINE
8
BLACK
6
CONTINUOUS
10
5.44455
20
-4.17656
11
5.44539
21
-4.17642
0
LINE
8
BLACK
6
CONTINUOUS
10
5.44539
20
-4.17642
11
5.44554
21
-4.1765
0
LINE
8
BLACK
6
CONTINUOUS
10
5.49401
20
-4.17644
11
5.49414
21
-4.17642
0
LINE
8
BLACK
6
CONTINUOUS
10
5.49414
20
-4.17642
11
5.49425
21
-4.17648
0
LINE
8
BLACK
6
CONTINUOUS
10
5.49425
20
-4.17648
11
5.49464
21
-4.17655
0
LINE
8
BLACK
6
CONTINUOUS
10
5.49464
20
-4.17655
11
5.49522
21
-4.17704
0
LINE
8
BLACK
6
CONTINUOUS
10
5.49522
20
-4.17704
11
5.49589
21
-4.17743
0
LINE
8
BLACK
6
CONTINUOUS
10
5.49589
20
-4.17743
11
5.49598
21
-4.17768
0
LINE
8
BLACK
6
CONTINUOUS
10
5.49598
20
-4.17768
11
5.49618
21
-4.17785
0
LINE
8
BLACK
6
CONTINUOUS
10
5.49618
20
-4.17785
11
5.49632
21
-4.1786
0
LINE
8
BLACK
6
CONTINUOUS
10
5.49632
20
-4.1786
11
5.49658
21
-4.17932
0
LINE
8
BLACK
6
CONTINUOUS
10
5.49658
20
-4.17932
11
5.49658
21
-4.21869
0
LINE
8
BLACK
6
CONTINUOUS
10
5.49658
20
-4.21869
11
5.49651
21
-4.21908
0
LINE
8
BLACK
6
CONTINUOUS
10
5.49651
20
-4.21908
11
5.49653
21
-4.21921
0
LINE
8
BLACK
6
CONTINUOUS
10
5.49653
20
-4.21921
11
5.49647
21
-4.21932
0
LINE
8
BLACK
6
CONTINUOUS
10
5.49647
20
-4.21932
11
5.4964
21
-4.2197
0
LINE
8
BLACK
6
CONTINUOUS
10
5.4964
20
-4.2197
11
5.49591
21
-4.22029
0
LINE
8
BLACK
6
CONTINUOUS
10
5.49591
20
-4.22029
11
5.49552
21
-4.22096
0
LINE
8
BLACK
6
CONTINUOUS
10
5.49552
20
-4.22096
11
5.49527
21
-4.22105
0
LINE
8
BLACK
6
CONTINUOUS
10
5.49527
20
-4.22105
11
5.4951
21
-4.22125
0
LINE
8
BLACK
6
CONTINUOUS
10
5.4951
20
-4.22125
11
5.49435
21
-4.22138
0
LINE
8
BLACK
6
CONTINUOUS
10
5.49435
20
-4.22138
11
5.49363
21
-4.22165
0
LINE
8
BLACK
6
CONTINUOUS
10
5.49363
20
-4.22165
11
5.48425
21
-4.22165
0
LINE
8
BLACK
6
CONTINUOUS
10
5.48425
20
-4.22165
11
5.48338
21
-4.22149
0
LINE
8
BLACK
6
CONTINUOUS
10
5.48338
20
-4.22149
11
5.48332
21
-4.22149
0
LINE
8
BLACK
6
CONTINUOUS
10
5.48332
20
-4.22149
11
5.47769
21
-4.21962
0
LINE
8
BLACK
6
CONTINUOUS
10
5.47769
20
-4.21962
11
5.47679
21
-4.21913
0
LINE
8
BLACK
6
CONTINUOUS
10
5.47679
20
-4.21913
11
5.4767
21
-4.21898
0
LINE
8
BLACK
6
CONTINUOUS
10
5.4767
20
-4.21898
11
5.47654
21
-4.21891
0
LINE
8
BLACK
6
CONTINUOUS
10
5.47654
20
-4.21891
11
5.47279
21
-4.21516
0
LINE
8
BLACK
6
CONTINUOUS
10
5.47279
20
-4.21516
11
5.47228
21
-4.21443
0
LINE
8
BLACK
6
CONTINUOUS
10
5.47228
20
-4.21443
11
5.47224
21
-4.21439
0
LINE
8
BLACK
6
CONTINUOUS
10
5.47224
20
-4.21439
11
5.47036
21
-4.21064
0
LINE
8
BLACK
6
CONTINUOUS
10
5.47036
20
-4.21064
11
5.47022
21
-4.21015
0
LINE
8
BLACK
6
CONTINUOUS
10
5.47022
20
-4.21015
11
5.47014
21
-4.21004
0
LINE
8
BLACK
6
CONTINUOUS
10
5.47014
20
-4.21004
11
5.46826
21
-4.20254
0
LINE
8
BLACK
6
CONTINUOUS
10
5.46826
20
-4.20254
11
5.46822
21
-4.20195
0
LINE
8
BLACK
6
CONTINUOUS
10
5.46822
20
-4.20195
11
5.46818
21
-4.20182
0
LINE
8
BLACK
6
CONTINUOUS
10
5.46818
20
-4.20182
11
5.46818
21
-4.1962
0
LINE
8
BLACK
6
CONTINUOUS
10
5.46818
20
-4.1962
11
5.46828
21
-4.19562
0
LINE
8
BLACK
6
CONTINUOUS
10
5.46828
20
-4.19562
11
5.46826
21
-4.19548
0
LINE
8
BLACK
6
CONTINUOUS
10
5.46826
20
-4.19548
11
5.47014
21
-4.18798
0
LINE
8
BLACK
6
CONTINUOUS
10
5.47014
20
-4.18798
11
5.47035
21
-4.18752
0
LINE
8
BLACK
6
CONTINUOUS
10
5.47035
20
-4.18752
11
5.47036
21
-4.18738
0
LINE
8
BLACK
6
CONTINUOUS
10
5.47036
20
-4.18738
11
5.47224
21
-4.18363
0
LINE
8
BLACK
6
CONTINUOUS
10
5.47224
20
-4.18363
11
5.47276
21
-4.18292
0
LINE
8
BLACK
6
CONTINUOUS
10
5.47276
20
-4.18292
11
5.47279
21
-4.18286
0
LINE
8
BLACK
6
CONTINUOUS
10
5.47279
20
-4.18286
11
5.47654
21
-4.17911
0
LINE
8
BLACK
6
CONTINUOUS
10
5.47654
20
-4.17911
11
5.47738
21
-4.17852
0
LINE
8
BLACK
6
CONTINUOUS
10
5.47738
20
-4.17852
11
5.47756
21
-4.17851
0
LINE
8
BLACK
6
CONTINUOUS
10
5.47756
20
-4.17851
11
5.47769
21
-4.1784
0
LINE
8
BLACK
6
CONTINUOUS
10
5.47769
20
-4.1784
11
5.48332
21
-4.17652
0
LINE
8
BLACK
6
CONTINUOUS
10
5.48332
20
-4.17652
11
5.48419
21
-4.17639
0
LINE
8
BLACK
6
CONTINUOUS
10
5.48419
20
-4.17639
11
5.48425
21
-4.17637
0
LINE
8
BLACK
6
CONTINUOUS
10
5.48425
20
-4.17637
11
5.49363
21
-4.17637
0
LINE
8
BLACK
6
CONTINUOUS
10
5.49363
20
-4.17637
11
5.49401
21
-4.17644
0
LINE
8
BLACK
6
CONTINUOUS
10
5.48022
20
-4.18378
11
5.4773
21
-4.1867
0
LINE
8
BLACK
6
CONTINUOUS
10
5.4773
20
-4.1867
11
5.47579
21
-4.18973
0
LINE
8
BLACK
6
CONTINUOUS
10
5.47579
20
-4.18973
11
5.47408
21
-4.19656
0
LINE
8
BLACK
6
CONTINUOUS
10
5.47408
20
-4.19656
11
5.47408
21
-4.20146
0
LINE
8
BLACK
6
CONTINUOUS
10
5.47408
20
-4.20146
11
5.47579
21
-4.20829
0
LINE
8
BLACK
6
CONTINUOUS
10
5.47579
20
-4.20829
11
5.4773
21
-4.21132
0
LINE
8
BLACK
6
CONTINUOUS
10
5.4773
20
-4.21132
11
5.48022
21
-4.21424
0
LINE
8
BLACK
6
CONTINUOUS
10
5.48022
20
-4.21424
11
5.48473
21
-4.21574
0
LINE
8
BLACK
6
CONTINUOUS
10
5.48473
20
-4.21574
11
5.49067
21
-4.21574
0
LINE
8
BLACK
6
CONTINUOUS
10
5.49067
20
-4.21574
11
5.49067
21
-4.18228
0
LINE
8
BLACK
6
CONTINUOUS
10
5.49067
20
-4.18228
11
5.48473
21
-4.18228
0
LINE
8
BLACK
6
CONTINUOUS
10
5.48473
20
-4.18228
11
5.48022
21
-4.18378
0
LINE
8
BLACK
6
CONTINUOUS
10
5.03499
20
-4.19016
11
5.03569
21
-4.19183
0
LINE
8
BLACK
6
CONTINUOUS
10
5.03569
20
-4.19183
11
5.03499
21
-4.1935
0
LINE
8
BLACK
6
CONTINUOUS
10
5.03499
20
-4.1935
11
5.03332
21
-4.19419
0
LINE
8
BLACK
6
CONTINUOUS
10
5.03332
20
-4.19419
11
5.016
21
-4.19419
0
LINE
8
BLACK
6
CONTINUOUS
10
5.016
20
-4.19419
11
5.016
21
-4.21151
0
LINE
8
BLACK
6
CONTINUOUS
10
5.016
20
-4.21151
11
5.01531
21
-4.21318
0
LINE
8
BLACK
6
CONTINUOUS
10
5.01531
20
-4.21318
11
5.01364
21
-4.21387
0
LINE
8
BLACK
6
CONTINUOUS
10
5.01364
20
-4.21387
11
5.01197
21
-4.21318
0
LINE
8
BLACK
6
CONTINUOUS
10
5.01197
20
-4.21318
11
5.01128
21
-4.21151
0
LINE
8
BLACK
6
CONTINUOUS
10
5.01128
20
-4.21151
11
5.01128
21
-4.19183
0
LINE
8
BLACK
6
CONTINUOUS
10
5.01128
20
-4.19183
11
5.01197
21
-4.19016
0
LINE
8
BLACK
6
CONTINUOUS
10
5.01197
20
-4.19016
11
5.01364
21
-4.18946
0
LINE
8
BLACK
6
CONTINUOUS
10
5.01364
20
-4.18946
11
5.03332
21
-4.18946
0
LINE
8
BLACK
6
CONTINUOUS
10
5.03332
20
-4.18946
11
5.03499
21
-4.19016
0
LINE
8
BLACK
6
CONTINUOUS
10
5.21836
20
-4.18946
11
5.22003
21
-4.19016
0
LINE
8
BLACK
6
CONTINUOUS
10
5.22003
20
-4.19016
11
5.22072
21
-4.19183
0
LINE
8
BLACK
6
CONTINUOUS
10
5.22072
20
-4.19183
11
5.22072
21
-4.21151
0
LINE
8
BLACK
6
CONTINUOUS
10
5.22072
20
-4.21151
11
5.22003
21
-4.21318
0
LINE
8
BLACK
6
CONTINUOUS
10
5.22003
20
-4.21318
11
5.21836
21
-4.21387
0
LINE
8
BLACK
6
CONTINUOUS
10
5.21836
20
-4.21387
11
5.21669
21
-4.21318
0
LINE
8
BLACK
6
CONTINUOUS
10
5.21669
20
-4.21318
11
5.216
21
-4.21151
0
LINE
8
BLACK
6
CONTINUOUS
10
5.216
20
-4.21151
11
5.216
21
-4.19419
0
LINE
8
BLACK
6
CONTINUOUS
10
5.216
20
-4.19419
11
5.19868
21
-4.19419
0
LINE
8
BLACK
6
CONTINUOUS
10
5.19868
20
-4.19419
11
5.19701
21
-4.1935
0
LINE
8
BLACK
6
CONTINUOUS
10
5.19701
20
-4.1935
11
5.19631
21
-4.19183
0
LINE
8
BLACK
6
CONTINUOUS
10
5.19631
20
-4.19183
11
5.19701
21
-4.19016
0
LINE
8
BLACK
6
CONTINUOUS
10
5.19701
20
-4.19016
11
5.19868
21
-4.18946
0
LINE
8
BLACK
6
CONTINUOUS
10
5.19868
20
-4.18946
11
5.21836
21
-4.18946
0
LINE
8
BLACK
6
CONTINUOUS
10
5.36834
20
-4.16576
11
5.36848
21
-4.16587
0
LINE
8
BLACK
6
CONTINUOUS
10
5.36848
20
-4.16587
11
5.36865
21
-4.1659
0
LINE
8
BLACK
6
CONTINUOUS
10
5.36865
20
-4.1659
11
5.3724
21
-4.16777
0
LINE
8
BLACK
6
CONTINUOUS
10
5.3724
20
-4.16777
11
5.37311
21
-4.1683
0
LINE
8
BLACK
6
CONTINUOUS
10
5.37311
20
-4.1683
11
5.37317
21
-4.16832
0
LINE
8
BLACK
6
CONTINUOUS
10
5.37317
20
-4.16832
11
5.37505
21
-4.1702
0
LINE
8
BLACK
6
CONTINUOUS
10
5.37505
20
-4.1702
11
5.37563
21
-4.17104
0
LINE
8
BLACK
6
CONTINUOUS
10
5.37563
20
-4.17104
11
5.37581
21
-4.17305
0
LINE
8
BLACK
6
CONTINUOUS
10
5.37581
20
-4.17305
11
5.37465
21
-4.1747
0
LINE
8
BLACK
6
CONTINUOUS
10
5.37465
20
-4.1747
11
5.3727
21
-4.17523
0
LINE
8
BLACK
6
CONTINUOUS
10
5.3727
20
-4.17523
11
5.37087
21
-4.17437
0
LINE
8
BLACK
6
CONTINUOUS
10
5.37087
20
-4.17437
11
5.36933
21
-4.17284
0
LINE
8
BLACK
6
CONTINUOUS
10
5.36933
20
-4.17284
11
5.36664
21
-4.17149
0
LINE
8
BLACK
6
CONTINUOUS
10
5.36664
20
-4.17149
11
5.35866
21
-4.17149
0
LINE
8
BLACK
6
CONTINUOUS
10
5.35866
20
-4.17149
11
5.35596
21
-4.17284
0
LINE
8
BLACK
6
CONTINUOUS
10
5.35596
20
-4.17284
11
5.35476
21
-4.17403
0
LINE
8
BLACK
6
CONTINUOUS
10
5.35476
20
-4.17403
11
5.35341
21
-4.17673
0
LINE
8
BLACK
6
CONTINUOUS
10
5.35341
20
-4.17673
11
5.35341
21
-4.17931
0
LINE
8
BLACK
6
CONTINUOUS
10
5.35341
20
-4.17931
11
5.35492
21
-4.18381
0
LINE
8
BLACK
6
CONTINUOUS
10
5.35492
20
-4.18381
11
5.37692
21
-4.20582
0
LINE
8
BLACK
6
CONTINUOUS
10
5.37692
20
-4.20582
11
5.37729
21
-4.20635
0
LINE
8
BLACK
6
CONTINUOUS
10
5.37729
20
-4.20635
11
5.37739
21
-4.20643
0
LINE
8
BLACK
6
CONTINUOUS
10
5.37739
20
-4.20643
11
5.3774
21
-4.20651
0
LINE
8
BLACK
6
CONTINUOUS
10
5.3774
20
-4.20651
11
5.37751
21
-4.20666
0
LINE
8
BLACK
6
CONTINUOUS
10
5.37751
20
-4.20666
11
5.37759
21
-4.20754
0
LINE
8
BLACK
6
CONTINUOUS
10
5.37759
20
-4.20754
11
5.37774
21
-4.20842
0
LINE
8
BLACK
6
CONTINUOUS
10
5.37774
20
-4.20842
11
5.37767
21
-4.20854
0
LINE
8
BLACK
6
CONTINUOUS
10
5.37767
20
-4.20854
11
5.37768
21
-4.20867
0
LINE
8
BLACK
6
CONTINUOUS
10
5.37768
20
-4.20867
11
5.37717
21
-4.2094
0
LINE
8
BLACK
6
CONTINUOUS
10
5.37717
20
-4.2094
11
5.37673
21
-4.21017
0
LINE
8
BLACK
6
CONTINUOUS
10
5.37673
20
-4.21017
11
5.3766
21
-4.21021
0
LINE
8
BLACK
6
CONTINUOUS
10
5.3766
20
-4.21021
11
5.37653
21
-4.21033
0
LINE
8
BLACK
6
CONTINUOUS
10
5.37653
20
-4.21033
11
5.37567
21
-4.21056
0
LINE
8
BLACK
6
CONTINUOUS
10
5.37567
20
-4.21056
11
5.37483
21
-4.21086
0
LINE
8
BLACK
6
CONTINUOUS
10
5.37483
20
-4.21086
11
5.35046
21
-4.21086
0
LINE
8
BLACK
6
CONTINUOUS
10
5.35046
20
-4.21086
11
5.34945
21
-4.21068
0
LINE
8
BLACK
6
CONTINUOUS
10
5.34945
20
-4.21068
11
5.3479
21
-4.20938
0
LINE
8
BLACK
6
CONTINUOUS
10
5.3479
20
-4.20938
11
5.34755
21
-4.20739
0
LINE
8
BLACK
6
CONTINUOUS
10
5.34755
20
-4.20739
11
5.34856
21
-4.20564
0
LINE
8
BLACK
6
CONTINUOUS
10
5.34856
20
-4.20564
11
5.35046
21
-4.20495
0
LINE
8
BLACK
6
CONTINUOUS
10
5.35046
20
-4.20495
11
5.3677
21
-4.20495
0
LINE
8
BLACK
6
CONTINUOUS
10
5.3677
20
-4.20495
11
5.35025
21
-4.1875
0
LINE
8
BLACK
6
CONTINUOUS
10
5.35025
20
-4.1875
11
5.34966
21
-4.18666
0
LINE
8
BLACK
6
CONTINUOUS
10
5.34966
20
-4.18666
11
5.34964
21
-4.18648
0
LINE
8
BLACK
6
CONTINUOUS
10
5.34964
20
-4.18648
11
5.34953
21
-4.18634
0
LINE
8
BLACK
6
CONTINUOUS
10
5.34953
20
-4.18634
11
5.34766
21
-4.18072
0
LINE
8
BLACK
6
CONTINUOUS
10
5.34766
20
-4.18072
11
5.34753
21
-4.17985
0
LINE
8
BLACK
6
CONTINUOUS
10
5.34753
20
-4.17985
11
5.34751
21
-4.17978
0
LINE
8
BLACK
6
CONTINUOUS
10
5.34751
20
-4.17978
11
5.34751
21
-4.17604
0
LINE
8
BLACK
6
CONTINUOUS
10
5.34751
20
-4.17604
11
5.34769
21
-4.17503
0
LINE
8
BLACK
6
CONTINUOUS
10
5.34769
20
-4.17503
11
5.3478
21
-4.17489
0
LINE
8
BLACK
6
CONTINUOUS
10
5.3478
20
-4.17489
11
5.34782
21
-4.17471
0
LINE
8
BLACK
6
CONTINUOUS
10
5.34782
20
-4.17471
11
5.34969
21
-4.17097
0
LINE
8
BLACK
6
CONTINUOUS
10
5.34969
20
-4.17097
11
5.35022
21
-4.17026
0
LINE
8
BLACK
6
CONTINUOUS
10
5.35022
20
-4.17026
11
5.35025
21
-4.1702
0
LINE
8
BLACK
6
CONTINUOUS
10
5.35025
20
-4.1702
11
5.35212
21
-4.16832
0
LINE
8
BLACK
6
CONTINUOUS
10
5.35212
20
-4.16832
11
5.35284
21
-4.16782
0
LINE
8
BLACK
6
CONTINUOUS
10
5.35284
20
-4.16782
11
5.35289
21
-4.16777
0
LINE
8
BLACK
6
CONTINUOUS
10
5.35289
20
-4.16777
11
5.35664
21
-4.1659
0
LINE
8
BLACK
6
CONTINUOUS
10
5.35664
20
-4.1659
11
5.35762
21
-4.1656
0
LINE
8
BLACK
6
CONTINUOUS
10
5.35762
20
-4.1656
11
5.35779
21
-4.16564
0
LINE
8
BLACK
6
CONTINUOUS
10
5.35779
20
-4.16564
11
5.35796
21
-4.16558
0
LINE
8
BLACK
6
CONTINUOUS
10
5.35796
20
-4.16558
11
5.36733
21
-4.16558
0
LINE
8
BLACK
6
CONTINUOUS
10
5.36733
20
-4.16558
11
5.36834
21
-4.16576
0
LINE
8
BLACK
6
CONTINUOUS
10
5.40007
20
-4.16574
11
5.40014
21
-4.16573
0
LINE
8
BLACK
6
CONTINUOUS
10
5.40014
20
-4.16573
11
5.40576
21
-4.16761
0
LINE
8
BLACK
6
CONTINUOUS
10
5.40576
20
-4.16761
11
5.40666
21
-4.1681
0
LINE
8
BLACK
6
CONTINUOUS
10
5.40666
20
-4.1681
11
5.40676
21
-4.16825
0
LINE
8
BLACK
6
CONTINUOUS
10
5.40676
20
-4.16825
11
5.40692
21
-4.16832
0
LINE
8
BLACK
6
CONTINUOUS
10
5.40692
20
-4.16832
11
5.41067
21
-4.17207
0
LINE
8
BLACK
6
CONTINUOUS
10
5.41067
20
-4.17207
11
5.41117
21
-4.1728
0
LINE
8
BLACK
6
CONTINUOUS
10
5.41117
20
-4.1728
11
5.41122
21
-4.17284
0
LINE
8
BLACK
6
CONTINUOUS
10
5.41122
20
-4.17284
11
5.41309
21
-4.17659
0
LINE
8
BLACK
6
CONTINUOUS
10
5.41309
20
-4.17659
11
5.41324
21
-4.17708
0
LINE
8
BLACK
6
CONTINUOUS
10
5.41324
20
-4.17708
11
5.41332
21
-4.17719
0
LINE
8
BLACK
6
CONTINUOUS
10
5.41332
20
-4.17719
11
5.41519
21
-4.18469
0
LINE
8
BLACK
6
CONTINUOUS
10
5.41519
20
-4.18469
11
5.41523
21
-4.18528
0
LINE
8
BLACK
6
CONTINUOUS
10
5.41523
20
-4.18528
11
5.41528
21
-4.18541
0
LINE
8
BLACK
6
CONTINUOUS
10
5.41528
20
-4.18541
11
5.41528
21
-4.19103
0
LINE
8
BLACK
6
CONTINUOUS
10
5.41528
20
-4.19103
11
5.41518
21
-4.19161
0
LINE
8
BLACK
6
CONTINUOUS
10
5.41518
20
-4.19161
11
5.41519
21
-4.19175
0
LINE
8
BLACK
6
CONTINUOUS
10
5.41519
20
-4.19175
11
5.41332
21
-4.19925
0
LINE
8
BLACK
6
CONTINUOUS
10
5.41332
20
-4.19925
11
5.41311
21
-4.19971
0
LINE
8
BLACK
6
CONTINUOUS
10
5.41311
20
-4.19971
11
5.41309
21
-4.19985
0
LINE
8
BLACK
6
CONTINUOUS
10
5.41309
20
-4.19985
11
5.41122
21
-4.2036
0
LINE
8
BLACK
6
CONTINUOUS
10
5.41122
20
-4.2036
11
5.41069
21
-4.20431
0
LINE
8
BLACK
6
CONTINUOUS
10
5.41069
20
-4.20431
11
5.41067
21
-4.20437
0
LINE
8
BLACK
6
CONTINUOUS
10
5.41067
20
-4.20437
11
5.40692
21
-4.20812
0
LINE
8
BLACK
6
CONTINUOUS
10
5.40692
20
-4.20812
11
5.40608
21
-4.20871
0
LINE
8
BLACK
6
CONTINUOUS
10
5.40608
20
-4.20871
11
5.4059
21
-4.20872
0
LINE
8
BLACK
6
CONTINUOUS
10
5.4059
20
-4.20872
11
5.40576
21
-4.20883
0
LINE
8
BLACK
6
CONTINUOUS
10
5.40576
20
-4.20883
11
5.40014
21
-4.21071
0
LINE
8
BLACK
6
CONTINUOUS
10
5.40014
20
-4.21071
11
5.39926
21
-4.21084
0
LINE
8
BLACK
6
CONTINUOUS
10
5.39926
20
-4.21084
11
5.3992
21
-4.21086
0
LINE
8
BLACK
6
CONTINUOUS
10
5.3992
20
-4.21086
11
5.39545
21
-4.21086
0
LINE
8
BLACK
6
CONTINUOUS
10
5.39545
20
-4.21086
11
5.39459
21
-4.21071
0
LINE
8
BLACK
6
CONTINUOUS
10
5.39459
20
-4.21071
11
5.39452
21
-4.21071
0
LINE
8
BLACK
6
CONTINUOUS
10
5.39452
20
-4.21071
11
5.3889
21
-4.20883
0
LINE
8
BLACK
6
CONTINUOUS
10
5.3889
20
-4.20883
11
5.38799
21
-4.20834
0
LINE
8
BLACK
6
CONTINUOUS
10
5.38799
20
-4.20834
11
5.3879
21
-4.20819
0
LINE
8
BLACK
6
CONTINUOUS
10
5.3879
20
-4.20819
11
5.38774
21
-4.20812
0
LINE
8
BLACK
6
CONTINUOUS
10
5.38774
20
-4.20812
11
5.38587
21
-4.20624
0
LINE
8
BLACK
6
CONTINUOUS
10
5.38587
20
-4.20624
11
5.38528
21
-4.2054
0
LINE
8
BLACK
6
CONTINUOUS
10
5.38528
20
-4.2054
11
5.3851
21
-4.20339
0
LINE
8
BLACK
6
CONTINUOUS
10
5.3851
20
-4.20339
11
5.38626
21
-4.20174
0
LINE
8
BLACK
6
CONTINUOUS
10
5.38626
20
-4.20174
11
5.38821
21
-4.20122
0
LINE
8
BLACK
6
CONTINUOUS
10
5.38821
20
-4.20122
11
5.39004
21
-4.20207
0
LINE
8
BLACK
6
CONTINUOUS
10
5.39004
20
-4.20207
11
5.39143
21
-4.20345
0
LINE
8
BLACK
6
CONTINUOUS
10
5.39143
20
-4.20345
11
5.39593
21
-4.20495
0
LINE
8
BLACK
6
CONTINUOUS
10
5.39593
20
-4.20495
11
5.39872
21
-4.20495
0
LINE
8
BLACK
6
CONTINUOUS
10
5.39872
20
-4.20495
11
5.40323
21
-4.20345
0
LINE
8
BLACK
6
CONTINUOUS
10
5.40323
20
-4.20345
11
5.40615
21
-4.20053
0
LINE
8
BLACK
6
CONTINUOUS
10
5.40615
20
-4.20053
11
5.40767
21
-4.1975
0
LINE
8
BLACK
6
CONTINUOUS
10
5.40767
20
-4.1975
11
5.40937
21
-4.19067
0
LINE
8
BLACK
6
CONTINUOUS
10
5.40937
20
-4.19067
11
5.40937
21
-4.18577
0
LINE
8
BLACK
6
CONTINUOUS
10
5.40937
20
-4.18577
11
5.40767
21
-4.17894
0
LINE
8
BLACK
6
CONTINUOUS
10
5.40767
20
-4.17894
11
5.40615
21
-4.17591
0
LINE
8
BLACK
6
CONTINUOUS
10
5.40615
20
-4.17591
11
5.40323
21
-4.17299
0
LINE
8
BLACK
6
CONTINUOUS
10
5.40323
20
-4.17299
11
5.39872
21
-4.17149
0
LINE
8
BLACK
6
CONTINUOUS
10
5.39872
20
-4.17149
11
5.39593
21
-4.17149
0
LINE
8
BLACK
6
CONTINUOUS
10
5.39593
20
-4.17149
11
5.39143
21
-4.17299
0
LINE
8
BLACK
6
CONTINUOUS
10
5.39143
20
-4.17299
11
5.39004
21
-4.17437
0
LINE
8
BLACK
6
CONTINUOUS
10
5.39004
20
-4.17437
11
5.3892
21
-4.17496
0
LINE
8
BLACK
6
CONTINUOUS
10
5.3892
20
-4.17496
11
5.38719
21
-4.17514
0
LINE
8
BLACK
6
CONTINUOUS
10
5.38719
20
-4.17514
11
5.38554
21
-4.17398
0
LINE
8
BLACK
6
CONTINUOUS
10
5.38554
20
-4.17398
11
5.38501
21
-4.17203
0
LINE
8
BLACK
6
CONTINUOUS
10
5.38501
20
-4.17203
11
5.38587
21
-4.1702
0
LINE
8
BLACK
6
CONTINUOUS
10
5.38587
20
-4.1702
11
5.38774
21
-4.16832
0
LINE
8
BLACK
6
CONTINUOUS
10
5.38774
20
-4.16832
11
5.38858
21
-4.16773
0
LINE
8
BLACK
6
CONTINUOUS
10
5.38858
20
-4.16773
11
5.38876
21
-4.16772
0
LINE
8
BLACK
6
CONTINUOUS
10
5.38876
20
-4.16772
11
5.3889
21
-4.16761
0
LINE
8
BLACK
6
CONTINUOUS
10
5.3889
20
-4.16761
11
5.39452
21
-4.16573
0
LINE
8
BLACK
6
CONTINUOUS
10
5.39452
20
-4.16573
11
5.39539
21
-4.16561
0
LINE
8
BLACK
6
CONTINUOUS
10
5.39539
20
-4.16561
11
5.39545
21
-4.16558
0
LINE
8
BLACK
6
CONTINUOUS
10
5.39545
20
-4.16558
11
5.3992
21
-4.16558
0
LINE
8
BLACK
6
CONTINUOUS
10
5.3992
20
-4.16558
11
5.40007
21
-4.16574
0
LINE
8
BLACK
6
CONTINUOUS
10
5.2605
20
-4.16075
11
5.26067
21
-4.16074
0
LINE
8
BLACK
6
CONTINUOUS
10
5.26067
20
-4.16074
11
5.26136
21
-4.16125
0
LINE
8
BLACK
6
CONTINUOUS
10
5.26136
20
-4.16125
11
5.2621
21
-4.16168
0
LINE
8
BLACK
6
CONTINUOUS
10
5.2621
20
-4.16168
11
5.26216
21
-4.16184
0
LINE
8
BLACK
6
CONTINUOUS
10
5.26216
20
-4.16184
11
5.2623
21
-4.16194
0
LINE
8
BLACK
6
CONTINUOUS
10
5.2623
20
-4.16194
11
5.26589
21
-4.16732
0
LINE
8
BLACK
6
CONTINUOUS
10
5.26589
20
-4.16732
11
5.26909
21
-4.17052
0
LINE
8
BLACK
6
CONTINUOUS
10
5.26909
20
-4.17052
11
5.27241
21
-4.17218
0
LINE
8
BLACK
6
CONTINUOUS
10
5.27241
20
-4.17218
11
5.27324
21
-4.17279
0
LINE
8
BLACK
6
CONTINUOUS
10
5.27324
20
-4.17279
11
5.27404
21
-4.17465
0
LINE
8
BLACK
6
CONTINUOUS
10
5.27404
20
-4.17465
11
5.27346
21
-4.17658
0
LINE
8
BLACK
6
CONTINUOUS
10
5.27346
20
-4.17658
11
5.27178
21
-4.1777
0
LINE
8
BLACK
6
CONTINUOUS
10
5.27178
20
-4.1777
11
5.26977
21
-4.17747
0
LINE
8
BLACK
6
CONTINUOUS
10
5.26977
20
-4.17747
11
5.26602
21
-4.17559
0
LINE
8
BLACK
6
CONTINUOUS
10
5.26602
20
-4.17559
11
5.26531
21
-4.17506
0
LINE
8
BLACK
6
CONTINUOUS
10
5.26531
20
-4.17506
11
5.26525
21
-4.17504
0
LINE
8
BLACK
6
CONTINUOUS
10
5.26525
20
-4.17504
11
5.2628
21
-4.17258
0
LINE
8
BLACK
6
CONTINUOUS
10
5.2628
20
-4.17258
11
5.2628
21
-4.19999
0
LINE
8
BLACK
6
CONTINUOUS
10
5.2628
20
-4.19999
11
5.27109
21
-4.19999
0
LINE
8
BLACK
6
CONTINUOUS
10
5.27109
20
-4.19999
11
5.2721
21
-4.20017
0
LINE
8
BLACK
6
CONTINUOUS
10
5.2721
20
-4.20017
11
5.27365
21
-4.20147
0
LINE
8
BLACK
6
CONTINUOUS
10
5.27365
20
-4.20147
11
5.274
21
-4.20346
0
LINE
8
BLACK
6
CONTINUOUS
10
5.274
20
-4.20346
11
5.27299
21
-4.20521
0
LINE
8
BLACK
6
CONTINUOUS
10
5.27299
20
-4.20521
11
5.27109
21
-4.2059
0
LINE
8
BLACK
6
CONTINUOUS
10
5.27109
20
-4.2059
11
5.24859
21
-4.2059
0
LINE
8
BLACK
6
CONTINUOUS
10
5.24859
20
-4.2059
11
5.24758
21
-4.20572
0
LINE
8
BLACK
6
CONTINUOUS
10
5.24758
20
-4.20572
11
5.24604
21
-4.20442
0
LINE
8
BLACK
6
CONTINUOUS
10
5.24604
20
-4.20442
11
5.24569
21
-4.20243
0
LINE
8
BLACK
6
CONTINUOUS
10
5.24569
20
-4.20243
11
5.2467
21
-4.20068
0
LINE
8
BLACK
6
CONTINUOUS
10
5.2467
20
-4.20068
11
5.24859
21
-4.19999
0
LINE
8
BLACK
6
CONTINUOUS
10
5.24859
20
-4.19999
11
5.25689
21
-4.19999
0
LINE
8
BLACK
6
CONTINUOUS
10
5.25689
20
-4.19999
11
5.25689
21
-4.16358
0
LINE
8
BLACK
6
CONTINUOUS
10
5.25689
20
-4.16358
11
5.25707
21
-4.16257
0
LINE
8
BLACK
6
CONTINUOUS
10
5.25707
20
-4.16257
11
5.25718
21
-4.16244
0
LINE
8
BLACK
6
CONTINUOUS
10
5.25718
20
-4.16244
11
5.2572
21
-4.16227
0
LINE
8
BLACK
6
CONTINUOUS
10
5.2572
20
-4.16227
11
5.25782
21
-4.16167
0
LINE
8
BLACK
6
CONTINUOUS
10
5.25782
20
-4.16167
11
5.25837
21
-4.16102
0
LINE
8
BLACK
6
CONTINUOUS
10
5.25837
20
-4.16102
11
5.25853
21
-4.16099
0
LINE
8
BLACK
6
CONTINUOUS
10
5.25853
20
-4.16099
11
5.25866
21
-4.16087
0
LINE
8
BLACK
6
CONTINUOUS
10
5.25866
20
-4.16087
11
5.25951
21
-4.16082
0
LINE
8
BLACK
6
CONTINUOUS
10
5.25951
20
-4.16082
11
5.26036
21
-4.16067
0
LINE
8
BLACK
6
CONTINUOUS
10
5.26036
20
-4.16067
11
5.2605
21
-4.16075
0
LINE
8
BLACK
6
CONTINUOUS
10
5.29821
20
-4.16078
11
5.29827
21
-4.16077
0
LINE
8
BLACK
6
CONTINUOUS
10
5.29827
20
-4.16077
11
5.3039
21
-4.16265
0
LINE
8
BLACK
6
CONTINUOUS
10
5.3039
20
-4.16265
11
5.3048
21
-4.16314
0
LINE
8
BLACK
6
CONTINUOUS
10
5.3048
20
-4.16314
11
5.30489
21
-4.16329
0
LINE
8
BLACK
6
CONTINUOUS
10
5.30489
20
-4.16329
11
5.30505
21
-4.16336
0
LINE
8
BLACK
6
CONTINUOUS
10
5.30505
20
-4.16336
11
5.3088
21
-4.16711
0
LINE
8
BLACK
6
CONTINUOUS
10
5.3088
20
-4.16711
11
5.30931
21
-4.16784
0
LINE
8
BLACK
6
CONTINUOUS
10
5.30931
20
-4.16784
11
5.30935
21
-4.16788
0
LINE
8
BLACK
6
CONTINUOUS
10
5.30935
20
-4.16788
11
5.31123
21
-4.17163
0
LINE
8
BLACK
6
CONTINUOUS
10
5.31123
20
-4.17163
11
5.31137
21
-4.17212
0
LINE
8
BLACK
6
CONTINUOUS
10
5.31137
20
-4.17212
11
5.31145
21
-4.17223
0
LINE
8
BLACK
6
CONTINUOUS
10
5.31145
20
-4.17223
11
5.31333
21
-4.17973
0
LINE
8
BLACK
6
CONTINUOUS
10
5.31333
20
-4.17973
11
5.31337
21
-4.18032
0
LINE
8
BLACK
6
CONTINUOUS
10
5.31337
20
-4.18032
11
5.31341
21
-4.18045
0
LINE
8
BLACK
6
CONTINUOUS
10
5.31341
20
-4.18045
11
5.31341
21
-4.18607
0
LINE
8
BLACK
6
CONTINUOUS
10
5.31341
20
-4.18607
11
5.31331
21
-4.18665
0
LINE
8
BLACK
6
CONTINUOUS
10
5.31331
20
-4.18665
11
5.31333
21
-4.18679
0
LINE
8
BLACK
6
CONTINUOUS
10
5.31333
20
-4.18679
11
5.31145
21
-4.19429
0
LINE
8
BLACK
6
CONTINUOUS
10
5.31145
20
-4.19429
11
5.31124
21
-4.19475
0
LINE
8
BLACK
6
CONTINUOUS
10
5.31124
20
-4.19475
11
5.31123
21
-4.19489
0
LINE
8
BLACK
6
CONTINUOUS
10
5.31123
20
-4.19489
11
5.30935
21
-4.19864
0
LINE
8
BLACK
6
CONTINUOUS
10
5.30935
20
-4.19864
11
5.30883
21
-4.19935
0
LINE
8
BLACK
6
CONTINUOUS
10
5.30883
20
-4.19935
11
5.3088
21
-4.19941
0
LINE
8
BLACK
6
CONTINUOUS
10
5.3088
20
-4.19941
11
5.30505
21
-4.20316
0
LINE
8
BLACK
6
CONTINUOUS
10
5.30505
20
-4.20316
11
5.30421
21
-4.20375
0
LINE
8
BLACK
6
CONTINUOUS
10
5.30421
20
-4.20375
11
5.30403
21
-4.20376
0
LINE
8
BLACK
6
CONTINUOUS
10
5.30403
20
-4.20376
11
5.3039
21
-4.20387
0
LINE
8
BLACK
6
CONTINUOUS
10
5.3039
20
-4.20387
11
5.29827
21
-4.20575
0
LINE
8
BLACK
6
CONTINUOUS
10
5.29827
20
-4.20575
11
5.2974
21
-4.20588
0
LINE
8
BLACK
6
CONTINUOUS
10
5.2974
20
-4.20588
11
5.29734
21
-4.2059
0
LINE
8
BLACK
6
CONTINUOUS
10
5.29734
20
-4.2059
11
5.29359
21
-4.2059
0
LINE
8
BLACK
6
CONTINUOUS
10
5.29359
20
-4.2059
11
5.29272
21
-4.20575
0
LINE
8
BLACK
6
CONTINUOUS
10
5.29272
20
-4.20575
11
5.29265
21
-4.20575
0
LINE
8
BLACK
6
CONTINUOUS
10
5.29265
20
-4.20575
11
5.28703
21
-4.20387
0
LINE
8
BLACK
6
CONTINUOUS
10
5.28703
20
-4.20387
11
5.28613
21
-4.20338
0
LINE
8
BLACK
6
CONTINUOUS
10
5.28613
20
-4.20338
11
5.28604
21
-4.20323
0
LINE
8
BLACK
6
CONTINUOUS
10
5.28604
20
-4.20323
11
5.28588
21
-4.20316
0
LINE
8
BLACK
6
CONTINUOUS
10
5.28588
20
-4.20316
11
5.284
21
-4.20128
0
LINE
8
BLACK
6
CONTINUOUS
10
5.284
20
-4.20128
11
5.28341
21
-4.20044
0
LINE
8
BLACK
6
CONTINUOUS
10
5.28341
20
-4.20044
11
5.28324
21
-4.19843
0
LINE
8
BLACK
6
CONTINUOUS
10
5.28324
20
-4.19843
11
5.2844
21
-4.19678
0
LINE
8
BLACK
6
CONTINUOUS
10
5.2844
20
-4.19678
11
5.28635
21
-4.19625
0
LINE
8
BLACK
6
CONTINUOUS
10
5.28635
20
-4.19625
11
5.28818
21
-4.19711
0
LINE
8
BLACK
6
CONTINUOUS
10
5.28818
20
-4.19711
11
5.28956
21
-4.19849
0
LINE
8
BLACK
6
CONTINUOUS
10
5.28956
20
-4.19849
11
5.29407
21
-4.19999
0
LINE
8
BLACK
6
CONTINUOUS
10
5.29407
20
-4.19999
11
5.29686
21
-4.19999
0
LINE
8
BLACK
6
CONTINUOUS
10
5.29686
20
-4.19999
11
5.30137
21
-4.19849
0
LINE
8
BLACK
6
CONTINUOUS
10
5.30137
20
-4.19849
11
5.30428
21
-4.19557
0
LINE
8
BLACK
6
CONTINUOUS
10
5.30428
20
-4.19557
11
5.3058
21
-4.19254
0
LINE
8
BLACK
6
CONTINUOUS
10
5.3058
20
-4.19254
11
5.30751
21
-4.18571
0
LINE
8
BLACK
6
CONTINUOUS
10
5.30751
20
-4.18571
11
5.30751
21
-4.18081
0
LINE
8
BLACK
6
CONTINUOUS
10
5.30751
20
-4.18081
11
5.3058
21
-4.17398
0
LINE
8
BLACK
6
CONTINUOUS
10
5.3058
20
-4.17398
11
5.30428
21
-4.17095
0
LINE
8
BLACK
6
CONTINUOUS
10
5.30428
20
-4.17095
11
5.30137
21
-4.16803
0
LINE
8
BLACK
6
CONTINUOUS
10
5.30137
20
-4.16803
11
5.29686
21
-4.16653
0
LINE
8
BLACK
6
CONTINUOUS
10
5.29686
20
-4.16653
11
5.29407
21
-4.16653
0
LINE
8
BLACK
6
CONTINUOUS
10
5.29407
20
-4.16653
11
5.28956
21
-4.16803
0
LINE
8
BLACK
6
CONTINUOUS
10
5.28956
20
-4.16803
11
5.28818
21
-4.16941
0
LINE
8
BLACK
6
CONTINUOUS
10
5.28818
20
-4.16941
11
5.28734
21
-4.17
0
LINE
8
BLACK
6
CONTINUOUS
10
5.28734
20
-4.17
11
5.28533
21
-4.17018
0
LINE
8
BLACK
6
CONTINUOUS
10
5.28533
20
-4.17018
11
5.28367
21
-4.16902
0
LINE
8
BLACK
6
CONTINUOUS
10
5.28367
20
-4.16902
11
5.28315
21
-4.16707
0
LINE
8
BLACK
6
CONTINUOUS
10
5.28315
20
-4.16707
11
5.284
21
-4.16524
0
LINE
8
BLACK
6
CONTINUOUS
10
5.284
20
-4.16524
11
5.28588
21
-4.16336
0
LINE
8
BLACK
6
CONTINUOUS
10
5.28588
20
-4.16336
11
5.28672
21
-4.16277
0
LINE
8
BLACK
6
CONTINUOUS
10
5.28672
20
-4.16277
11
5.28689
21
-4.16276
0
LINE
8
BLACK
6
CONTINUOUS
10
5.28689
20
-4.16276
11
5.28703
21
-4.16265
0
LINE
8
BLACK
6
CONTINUOUS
10
5.28703
20
-4.16265
11
5.29265
21
-4.16077
0
LINE
8
BLACK
6
CONTINUOUS
10
5.29265
20
-4.16077
11
5.29353
21
-4.16064
0
LINE
8
BLACK
6
CONTINUOUS
10
5.29353
20
-4.16064
11
5.29359
21
-4.16062
0
LINE
8
BLACK
6
CONTINUOUS
10
5.29359
20
-4.16062
11
5.29734
21
-4.16062
0
LINE
8
BLACK
6
CONTINUOUS
10
5.29734
20
-4.16062
11
5.29821
21
-4.16078
0
LINE
8
BLACK
6
CONTINUOUS
10
5.30061
20
-4.13357
11
5.3013
21
-4.13524
0
LINE
8
BLACK
6
CONTINUOUS
10
5.3013
20
-4.13524
11
5.30061
21
-4.13691
0
LINE
8
BLACK
6
CONTINUOUS
10
5.30061
20
-4.13691
11
5.29894
21
-4.1376
0
LINE
8
BLACK
6
CONTINUOUS
10
5.29894
20
-4.1376
11
5.28106
21
-4.1376
0
LINE
8
BLACK
6
CONTINUOUS
10
5.28106
20
-4.1376
11
5.27939
21
-4.13691
0
LINE
8
BLACK
6
CONTINUOUS
10
5.27939
20
-4.13691
11
5.2787
21
-4.13524
0
LINE
8
BLACK
6
CONTINUOUS
10
5.2787
20
-4.13524
11
5.27939
21
-4.13357
0
LINE
8
BLACK
6
CONTINUOUS
10
5.27939
20
-4.13357
11
5.28106
21
-4.13287
0
LINE
8
BLACK
6
CONTINUOUS
10
5.28106
20
-4.13287
11
5.29894
21
-4.13287
0
LINE
8
BLACK
6
CONTINUOUS
10
5.29894
20
-4.13287
11
5.30061
21
-4.13357
0
LINE
8
BLACK
6
CONTINUOUS
10
5.45205
20
-4.13357
11
5.45274
21
-4.13524
0
LINE
8
BLACK
6
CONTINUOUS
10
5.45274
20
-4.13524
11
5.45205
21
-4.13691
0
LINE
8
BLACK
6
CONTINUOUS
10
5.45205
20
-4.13691
11
5.45038
21
-4.1376
0
LINE
8
BLACK
6
CONTINUOUS
10
5.45038
20
-4.1376
11
5.4325
21
-4.1376
0
LINE
8
BLACK
6
CONTINUOUS
10
5.4325
20
-4.1376
11
5.43083
21
-4.13691
0
LINE
8
BLACK
6
CONTINUOUS
10
5.43083
20
-4.13691
11
5.43014
21
-4.13524
0
LINE
8
BLACK
6
CONTINUOUS
10
5.43014
20
-4.13524
11
5.43083
21
-4.13357
0
LINE
8
BLACK
6
CONTINUOUS
10
5.43083
20
-4.13357
11
5.4325
21
-4.13287
0
LINE
8
BLACK
6
CONTINUOUS
10
5.4325
20
-4.13287
11
5.45038
21
-4.13287
0
LINE
8
BLACK
6
CONTINUOUS
10
5.45038
20
-4.13287
11
5.45205
21
-4.13357
0
LINE
8
BLACK
6
CONTINUOUS
10
5.17695
20
-4.08206
11
5.17708
21
-4.08217
0
LINE
8
BLACK
6
CONTINUOUS
10
5.17708
20
-4.08217
11
5.17726
21
-4.08219
0
LINE
8
BLACK
6
CONTINUOUS
10
5.17726
20
-4.08219
11
5.18101
21
-4.08407
0
LINE
8
BLACK
6
CONTINUOUS
10
5.18101
20
-4.08407
11
5.18172
21
-4.0846
0
LINE
8
BLACK
6
CONTINUOUS
10
5.18172
20
-4.0846
11
5.18178
21
-4.08462
0
LINE
8
BLACK
6
CONTINUOUS
10
5.18178
20
-4.08462
11
5.18365
21
-4.0865
0
LINE
8
BLACK
6
CONTINUOUS
10
5.18365
20
-4.0865
11
5.18424
21
-4.08734
0
LINE
8
BLACK
6
CONTINUOUS
10
5.18424
20
-4.08734
11
5.18442
21
-4.08935
0
LINE
8
BLACK
6
CONTINUOUS
10
5.18442
20
-4.08935
11
5.18326
21
-4.091
0
LINE
8
BLACK
6
CONTINUOUS
10
5.18326
20
-4.091
11
5.18131
21
-4.09153
0
LINE
8
BLACK
6
CONTINUOUS
10
5.18131
20
-4.09153
11
5.17948
21
-4.09067
0
LINE
8
BLACK
6
CONTINUOUS
10
5.17948
20
-4.09067
11
5.17794
21
-4.08914
0
LINE
8
BLACK
6
CONTINUOUS
10
5.17794
20
-4.08914
11
5.17524
21
-4.08779
0
LINE
8
BLACK
6
CONTINUOUS
10
5.17524
20
-4.08779
11
5.16726
21
-4.08779
0
LINE
8
BLACK
6
CONTINUOUS
10
5.16726
20
-4.08779
11
5.16456
21
-4.08914
0
LINE
8
BLACK
6
CONTINUOUS
10
5.16456
20
-4.08914
11
5.16337
21
-4.09033
0
LINE
8
BLACK
6
CONTINUOUS
10
5.16337
20
-4.09033
11
5.16202
21
-4.09303
0
LINE
8
BLACK
6
CONTINUOUS
10
5.16202
20
-4.09303
11
5.16202
21
-4.0956
0
LINE
8
BLACK
6
CONTINUOUS
10
5.16202
20
-4.0956
11
5.16352
21
-4.10011
0
LINE
8
BLACK
6
CONTINUOUS
10
5.16352
20
-4.10011
11
5.18553
21
-4.12212
0
LINE
8
BLACK
6
CONTINUOUS
10
5.18553
20
-4.12212
11
5.1859
21
-4.12265
0
LINE
8
BLACK
6
CONTINUOUS
10
5.1859
20
-4.12265
11
5.186
21
-4.12273
0
LINE
8
BLACK
6
CONTINUOUS
10
5.186
20
-4.12273
11
5.18601
21
-4.12281
0
LINE
8
BLACK
6
CONTINUOUS
10
5.18601
20
-4.12281
11
5.18611
21
-4.12296
0
LINE
8
BLACK
6
CONTINUOUS
10
5.18611
20
-4.12296
11
5.18619
21
-4.12384
0
LINE
8
BLACK
6
CONTINUOUS
10
5.18619
20
-4.12384
11
5.18635
21
-4.12472
0
LINE
8
BLACK
6
CONTINUOUS
10
5.18635
20
-4.12472
11
5.18628
21
-4.12484
0
LINE
8
BLACK
6
CONTINUOUS
10
5.18628
20
-4.12484
11
5.18629
21
-4.12497
0
LINE
8
BLACK
6
CONTINUOUS
10
5.18629
20
-4.12497
11
5.18578
21
-4.1257
0
LINE
8
BLACK
6
CONTINUOUS
10
5.18578
20
-4.1257
11
5.18534
21
-4.12647
0
LINE
8
BLACK
6
CONTINUOUS
10
5.18534
20
-4.12647
11
5.18521
21
-4.12651
0
LINE
8
BLACK
6
CONTINUOUS
10
5.18521
20
-4.12651
11
5.18513
21
-4.12662
0
LINE
8
BLACK
6
CONTINUOUS
10
5.18513
20
-4.12662
11
5.18427
21
-4.12685
0
LINE
8
BLACK
6
CONTINUOUS
10
5.18427
20
-4.12685
11
5.18344
21
-4.12716
0
LINE
8
BLACK
6
CONTINUOUS
10
5.18344
20
-4.12716
11
5.15907
21
-4.12716
0
LINE
8
BLACK
6
CONTINUOUS
10
5.15907
20
-4.12716
11
5.15806
21
-4.12698
0
LINE
8
BLACK
6
CONTINUOUS
10
5.15806
20
-4.12698
11
5.15651
21
-4.12568
0
LINE
8
BLACK
6
CONTINUOUS
10
5.15651
20
-4.12568
11
5.15616
21
-4.12369
0
LINE
8
BLACK
6
CONTINUOUS
10
5.15616
20
-4.12369
11
5.15717
21
-4.12194
0
LINE
8
BLACK
6
CONTINUOUS
10
5.15717
20
-4.12194
11
5.15907
21
-4.12125
0
LINE
8
BLACK
6
CONTINUOUS
10
5.15907
20
-4.12125
11
5.17631
21
-4.12125
0
LINE
8
BLACK
6
CONTINUOUS
10
5.17631
20
-4.12125
11
5.15885
21
-4.1038
0
LINE
8
BLACK
6
CONTINUOUS
10
5.15885
20
-4.1038
11
5.15827
21
-4.10296
0
LINE
8
BLACK
6
CONTINUOUS
10
5.15827
20
-4.10296
11
5.15825
21
-4.10278
0
LINE
8
BLACK
6
CONTINUOUS
10
5.15825
20
-4.10278
11
5.15814
21
-4.10264
0
LINE
8
BLACK
6
CONTINUOUS
10
5.15814
20
-4.10264
11
5.15627
21
-4.09702
0
LINE
8
BLACK
6
CONTINUOUS
10
5.15627
20
-4.09702
11
5.15614
21
-4.09614
0
LINE
8
BLACK
6
CONTINUOUS
10
5.15614
20
-4.09614
11
5.15611
21
-4.09608
0
LINE
8
BLACK
6
CONTINUOUS
10
5.15611
20
-4.09608
11
5.15611
21
-4.09233
0
LINE
8
BLACK
6
CONTINUOUS
10
5.15611
20
-4.09233
11
5.15629
21
-4.09132
0
LINE
8
BLACK
6
CONTINUOUS
10
5.15629
20
-4.09132
11
5.15641
21
-4.09119
0
LINE
8
BLACK
6
CONTINUOUS
10
5.15641
20
-4.09119
11
5.15643
21
-4.09101
0
LINE
8
BLACK
6
CONTINUOUS
10
5.15643
20
-4.09101
11
5.1583
21
-4.08726
0
LINE
8
BLACK
6
CONTINUOUS
10
5.1583
20
-4.08726
11
5.15883
21
-4.08656
0
LINE
8
BLACK
6
CONTINUOUS
10
5.15883
20
-4.08656
11
5.15885
21
-4.0865
0
LINE
8
BLACK
6
CONTINUOUS
10
5.15885
20
-4.0865
11
5.16073
21
-4.08462
0
LINE
8
BLACK
6
CONTINUOUS
10
5.16073
20
-4.08462
11
5.16145
21
-4.08412
0
LINE
8
BLACK
6
CONTINUOUS
10
5.16145
20
-4.08412
11
5.1615
21
-4.08407
0
LINE
8
BLACK
6
CONTINUOUS
10
5.1615
20
-4.08407
11
5.16524
21
-4.08219
0
LINE
8
BLACK
6
CONTINUOUS
10
5.16524
20
-4.08219
11
5.16623
21
-4.0819
0
LINE
8
BLACK
6
CONTINUOUS
10
5.16623
20
-4.0819
11
5.1664
21
-4.08194
0
LINE
8
BLACK
6
CONTINUOUS
10
5.1664
20
-4.08194
11
5.16657
21
-4.08188
0
LINE
8
BLACK
6
CONTINUOUS
10
5.16657
20
-4.08188
11
5.17594
21
-4.08188
0
LINE
8
BLACK
6
CONTINUOUS
10
5.17594
20
-4.08188
11
5.17695
21
-4.08206
0
LINE
8
BLACK
6
CONTINUOUS
10
5.21944
20
-4.08195
11
5.21957
21
-4.08193
0
LINE
8
BLACK
6
CONTINUOUS
10
5.21957
20
-4.08193
11
5.21969
21
-4.08199
0
LINE
8
BLACK
6
CONTINUOUS
10
5.21969
20
-4.08199
11
5.22007
21
-4.08206
0
LINE
8
BLACK
6
CONTINUOUS
10
5.22007
20
-4.08206
11
5.22066
21
-4.08255
0
LINE
8
BLACK
6
CONTINUOUS
10
5.22066
20
-4.08255
11
5.22132
21
-4.08294
0
LINE
8
BLACK
6
CONTINUOUS
10
5.22132
20
-4.08294
11
5.22141
21
-4.08319
0
LINE
8
BLACK
6
CONTINUOUS
10
5.22141
20
-4.08319
11
5.22162
21
-4.08336
0
LINE
8
BLACK
6
CONTINUOUS
10
5.22162
20
-4.08336
11
5.22175
21
-4.08411
0
LINE
8
BLACK
6
CONTINUOUS
10
5.22175
20
-4.08411
11
5.22201
21
-4.08484
0
LINE
8
BLACK
6
CONTINUOUS
10
5.22201
20
-4.08484
11
5.22201
21
-4.12421
0
LINE
8
BLACK
6
CONTINUOUS
10
5.22201
20
-4.12421
11
5.22183
21
-4.12522
0
LINE
8
BLACK
6
CONTINUOUS
10
5.22183
20
-4.12522
11
5.22054
21
-4.12676
0
LINE
8
BLACK
6
CONTINUOUS
10
5.22054
20
-4.12676
11
5.21855
21
-4.12711
0
LINE
8
BLACK
6
CONTINUOUS
10
5.21855
20
-4.12711
11
5.2168
21
-4.1261
0
LINE
8
BLACK
6
CONTINUOUS
10
5.2168
20
-4.1261
11
5.21611
21
-4.12421
0
LINE
8
BLACK
6
CONTINUOUS
10
5.21611
20
-4.12421
11
5.21611
21
-4.10841
0
LINE
8
BLACK
6
CONTINUOUS
10
5.21611
20
-4.10841
11
5.21122
21
-4.10841
0
LINE
8
BLACK
6
CONTINUOUS
10
5.21122
20
-4.10841
11
5.19898
21
-4.1259
0
LINE
8
BLACK
6
CONTINUOUS
10
5.19898
20
-4.1259
11
5.19826
21
-4.12662
0
LINE
8
BLACK
6
CONTINUOUS
10
5.19826
20
-4.12662
11
5.1963
21
-4.12715
0
LINE
8
BLACK
6
CONTINUOUS
10
5.1963
20
-4.12715
11
5.19447
21
-4.12629
0
LINE
8
BLACK
6
CONTINUOUS
10
5.19447
20
-4.12629
11
5.19362
21
-4.12446
0
LINE
8
BLACK
6
CONTINUOUS
10
5.19362
20
-4.12446
11
5.19414
21
-4.12251
0
LINE
8
BLACK
6
CONTINUOUS
10
5.19414
20
-4.12251
11
5.20402
21
-4.1084
0
LINE
8
BLACK
6
CONTINUOUS
10
5.20402
20
-4.1084
11
5.20305
21
-4.10823
0
LINE
8
BLACK
6
CONTINUOUS
10
5.20305
20
-4.10823
11
5.20292
21
-4.10812
0
LINE
8
BLACK
6
CONTINUOUS
10
5.20292
20
-4.10812
11
5.20274
21
-4.1081
0
LINE
8
BLACK
6
CONTINUOUS
10
5.20274
20
-4.1081
11
5.19899
21
-4.10622
0
LINE
8
BLACK
6
CONTINUOUS
10
5.19899
20
-4.10622
11
5.19828
21
-4.1057
0
LINE
8
BLACK
6
CONTINUOUS
10
5.19828
20
-4.1057
11
5.19822
21
-4.10567
0
LINE
8
BLACK
6
CONTINUOUS
10
5.19822
20
-4.10567
11
5.19635
21
-4.1038
0
LINE
8
BLACK
6
CONTINUOUS
10
5.19635
20
-4.1038
11
5.19584
21
-4.10307
0
LINE
8
BLACK
6
CONTINUOUS
10
5.19584
20
-4.10307
11
5.1958
21
-4.10303
0
LINE
8
BLACK
6
CONTINUOUS
10
5.1958
20
-4.10303
11
5.19392
21
-4.09928
0
LINE
8
BLACK
6
CONTINUOUS
10
5.19392
20
-4.09928
11
5.19363
21
-4.0983
0
LINE
8
BLACK
6
CONTINUOUS
10
5.19363
20
-4.0983
11
5.19367
21
-4.09812
0
LINE
8
BLACK
6
CONTINUOUS
10
5.19367
20
-4.09812
11
5.19361
21
-4.09796
0
LINE
8
BLACK
6
CONTINUOUS
10
5.19361
20
-4.09796
11
5.19361
21
-4.09233
0
LINE
8
BLACK
6
CONTINUOUS
10
5.19361
20
-4.09233
11
5.19379
21
-4.09132
0
LINE
8
BLACK
6
CONTINUOUS
10
5.19379
20
-4.09132
11
5.1939
21
-4.09119
0
LINE
8
BLACK
6
CONTINUOUS
10
5.1939
20
-4.09119
11
5.19392
21
-4.09101
0
LINE
8
BLACK
6
CONTINUOUS
10
5.19392
20
-4.09101
11
5.1958
21
-4.08726
0
LINE
8
BLACK
6
CONTINUOUS
10
5.1958
20
-4.08726
11
5.19632
21
-4.08656
0
LINE
8
BLACK
6
CONTINUOUS
10
5.19632
20
-4.08656
11
5.19635
21
-4.0865
0
LINE
8
BLACK
6
CONTINUOUS
10
5.19635
20
-4.0865
11
5.19822
21
-4.08462
0
LINE
8
BLACK
6
CONTINUOUS
10
5.19822
20
-4.08462
11
5.19895
21
-4.08412
0
LINE
8
BLACK
6
CONTINUOUS
10
5.19895
20
-4.08412
11
5.19899
21
-4.08407
0
LINE
8
BLACK
6
CONTINUOUS
10
5.19899
20
-4.08407
11
5.20274
21
-4.08219
0
LINE
8
BLACK
6
CONTINUOUS
10
5.20274
20
-4.08219
11
5.20372
21
-4.0819
0
LINE
8
BLACK
6
CONTINUOUS
10
5.20372
20
-4.0819
11
5.20389
21
-4.08194
0
LINE
8
BLACK
6
CONTINUOUS
10
5.20389
20
-4.08194
11
5.20406
21
-4.08188
0
LINE
8
BLACK
6
CONTINUOUS
10
5.20406
20
-4.08188
11
5.21906
21
-4.08188
0
LINE
8
BLACK
6
CONTINUOUS
10
5.21906
20
-4.08188
11
5.21944
21
-4.08195
0
LINE
8
BLACK
6
CONTINUOUS
10
5.20206
20
-4.08914
11
5.20086
21
-4.09033
0
LINE
8
BLACK
6
CONTINUOUS
10
5.20086
20
-4.09033
11
5.19951
21
-4.09303
0
LINE
8
BLACK
6
CONTINUOUS
10
5.19951
20
-4.09303
11
5.19951
21
-4.09726
0
LINE
8
BLACK
6
CONTINUOUS
10
5.19951
20
-4.09726
11
5.20086
21
-4.09996
0
LINE
8
BLACK
6
CONTINUOUS
10
5.20086
20
-4.09996
11
5.20206
21
-4.10116
0
LINE
8
BLACK
6
CONTINUOUS
10
5.20206
20
-4.10116
11
5.20476
21
-4.10251
0
LINE
8
BLACK
6
CONTINUOUS
10
5.20476
20
-4.10251
11
5.21611
21
-4.10251
0
LINE
8
BLACK
6
CONTINUOUS
10
5.21611
20
-4.10251
11
5.21611
21
-4.08779
0
LINE
8
BLACK
6
CONTINUOUS
10
5.21611
20
-4.08779
11
5.20476
21
-4.08779
0
LINE
8
BLACK
6
CONTINUOUS
10
5.20476
20
-4.08779
11
5.20206
21
-4.08914
0
LINE
8
BLACK
6
CONTINUOUS
10
5.52241
20
-4.06571
11
5.52258
21
-4.0657
0
LINE
8
BLACK
6
CONTINUOUS
10
5.52258
20
-4.0657
11
5.52327
21
-4.06621
0
LINE
8
BLACK
6
CONTINUOUS
10
5.52327
20
-4.06621
11
5.52401
21
-4.06664
0
LINE
8
BLACK
6
CONTINUOUS
10
5.52401
20
-4.06664
11
5.52407
21
-4.0668
0
LINE
8
BLACK
6
CONTINUOUS
10
5.52407
20
-4.0668
11
5.52421
21
-4.0669
0
LINE
8
BLACK
6
CONTINUOUS
10
5.52421
20
-4.0669
11
5.5278
21
-4.07228
0
LINE
8
BLACK
6
CONTINUOUS
10
5.5278
20
-4.07228
11
5.531
21
-4.07548
0
LINE
8
BLACK
6
CONTINUOUS
10
5.531
20
-4.07548
11
5.53432
21
-4.07714
0
LINE
8
BLACK
6
CONTINUOUS
10
5.53432
20
-4.07714
11
5.53514
21
-4.07775
0
LINE
8
BLACK
6
CONTINUOUS
10
5.53514
20
-4.07775
11
5.53595
21
-4.07961
0
LINE
8
BLACK
6
CONTINUOUS
10
5.53595
20
-4.07961
11
5.53537
21
-4.08154
0
LINE
8
BLACK
6
CONTINUOUS
10
5.53537
20
-4.08154
11
5.53369
21
-4.08266
0
LINE
8
BLACK
6
CONTINUOUS
10
5.53369
20
-4.08266
11
5.53168
21
-4.08243
0
LINE
8
BLACK
6
CONTINUOUS
10
5.53168
20
-4.08243
11
5.52793
21
-4.08055
0
LINE
8
BLACK
6
CONTINUOUS
10
5.52793
20
-4.08055
11
5.52722
21
-4.08003
0
LINE
8
BLACK
6
CONTINUOUS
10
5.52722
20
-4.08003
11
5.52716
21
-4.08
0
LINE
8
BLACK
6
CONTINUOUS
10
5.52716
20
-4.08
11
5.5247
21
-4.07754
0
LINE
8
BLACK
6
CONTINUOUS
10
5.5247
20
-4.07754
11
5.5247
21
-4.10495
0
LINE
8
BLACK
6
CONTINUOUS
10
5.5247
20
-4.10495
11
5.533
21
-4.10495
0
LINE
8
BLACK
6
CONTINUOUS
10
5.533
20
-4.10495
11
5.53401
21
-4.10513
0
LINE
8
BLACK
6
CONTINUOUS
10
5.53401
20
-4.10513
11
5.53556
21
-4.10643
0
LINE
8
BLACK
6
CONTINUOUS
10
5.53556
20
-4.10643
11
5.53591
21
-4.10842
0
LINE
8
BLACK
6
CONTINUOUS
10
5.53591
20
-4.10842
11
5.5349
21
-4.11017
0
LINE
8
BLACK
6
CONTINUOUS
10
5.5349
20
-4.11017
11
5.533
21
-4.11086
0
LINE
8
BLACK
6
CONTINUOUS
10
5.533
20
-4.11086
11
5.5105
21
-4.11086
0
LINE
8
BLACK
6
CONTINUOUS
10
5.5105
20
-4.11086
11
5.50949
21
-4.11068
0
LINE
8
BLACK
6
CONTINUOUS
10
5.50949
20
-4.11068
11
5.50795
21
-4.10938
0
LINE
8
BLACK
6
CONTINUOUS
10
5.50795
20
-4.10938
11
5.5076
21
-4.10739
0
LINE
8
BLACK
6
CONTINUOUS
10
5.5076
20
-4.10739
11
5.50861
21
-4.10564
0
LINE
8
BLACK
6
CONTINUOUS
10
5.50861
20
-4.10564
11
5.5105
21
-4.10495
0
LINE
8
BLACK
6
CONTINUOUS
10
5.5105
20
-4.10495
11
5.5188
21
-4.10495
0
LINE
8
BLACK
6
CONTINUOUS
10
5.5188
20
-4.10495
11
5.5188
21
-4.06854
0
LINE
8
BLACK
6
CONTINUOUS
10
5.5188
20
-4.06854
11
5.51898
21
-4.06753
0
LINE
8
BLACK
6
CONTINUOUS
10
5.51898
20
-4.06753
11
5.51909
21
-4.0674
0
LINE
8
BLACK
6
CONTINUOUS
10
5.51909
20
-4.0674
11
5.51911
21
-4.06723
0
LINE
8
BLACK
6
CONTINUOUS
10
5.51911
20
-4.06723
11
5.51972
21
-4.06664
0
LINE
8
BLACK
6
CONTINUOUS
10
5.51972
20
-4.06664
11
5.52028
21
-4.06598
0
LINE
8
BLACK
6
CONTINUOUS
10
5.52028
20
-4.06598
11
5.52044
21
-4.06595
0
LINE
8
BLACK
6
CONTINUOUS
10
5.52044
20
-4.06595
11
5.52057
21
-4.06583
0
LINE
8
BLACK
6
CONTINUOUS
10
5.52057
20
-4.06583
11
5.52142
21
-4.06578
0
LINE
8
BLACK
6
CONTINUOUS
10
5.52142
20
-4.06578
11
5.52226
21
-4.06563
0
LINE
8
BLACK
6
CONTINUOUS
10
5.52226
20
-4.06563
11
5.52241
21
-4.06571
0
LINE
8
BLACK
6
CONTINUOUS
10
5.57088
20
-4.06565
11
5.57101
21
-4.06563
0
LINE
8
BLACK
6
CONTINUOUS
10
5.57101
20
-4.06563
11
5.57112
21
-4.06569
0
LINE
8
BLACK
6
CONTINUOUS
10
5.57112
20
-4.06569
11
5.57151
21
-4.06576
0
LINE
8
BLACK
6
CONTINUOUS
10
5.57151
20
-4.06576
11
5.57209
21
-4.06625
0
LINE
8
BLACK
6
CONTINUOUS
10
5.57209
20
-4.06625
11
5.57276
21
-4.06664
0
LINE
8
BLACK
6
CONTINUOUS
10
5.57276
20
-4.06664
11
5.57285
21
-4.06689
0
LINE
8
BLACK
6
CONTINUOUS
10
5.57285
20
-4.06689
11
5.57305
21
-4.06706
0
LINE
8
BLACK
6
CONTINUOUS
10
5.57305
20
-4.06706
11
5.57319
21
-4.06782
0
LINE
8
BLACK
6
CONTINUOUS
10
5.57319
20
-4.06782
11
5.57345
21
-4.06854
0
LINE
8
BLACK
6
CONTINUOUS
10
5.57345
20
-4.06854
11
5.57345
21
-4.10791
0
LINE
8
BLACK
6
CONTINUOUS
10
5.57345
20
-4.10791
11
5.57327
21
-4.10892
0
LINE
8
BLACK
6
CONTINUOUS
10
5.57327
20
-4.10892
11
5.57197
21
-4.11046
0
LINE
8
BLACK
6
CONTINUOUS
10
5.57197
20
-4.11046
11
5.56998
21
-4.11081
0
LINE
8
BLACK
6
CONTINUOUS
10
5.56998
20
-4.11081
11
5.56823
21
-4.1098
0
LINE
8
BLACK
6
CONTINUOUS
10
5.56823
20
-4.1098
11
5.56754
21
-4.10791
0
LINE
8
BLACK
6
CONTINUOUS
10
5.56754
20
-4.10791
11
5.56754
21
-4.09211
0
LINE
8
BLACK
6
CONTINUOUS
10
5.56754
20
-4.09211
11
5.56266
21
-4.09211
0
LINE
8
BLACK
6
CONTINUOUS
10
5.56266
20
-4.09211
11
5.55042
21
-4.1096
0
LINE
8
BLACK
6
CONTINUOUS
10
5.55042
20
-4.1096
11
5.54969
21
-4.11032
0
LINE
8
BLACK
6
CONTINUOUS
10
5.54969
20
-4.11032
11
5.54774
21
-4.11085
0
LINE
8
BLACK
6
CONTINUOUS
10
5.54774
20
-4.11085
11
5.54591
21
-4.10999
0
LINE
8
BLACK
6
CONTINUOUS
10
5.54591
20
-4.10999
11
5.54506
21
-4.10816
0
LINE
8
BLACK
6
CONTINUOUS
10
5.54506
20
-4.10816
11
5.54558
21
-4.10621
0
LINE
8
BLACK
6
CONTINUOUS
10
5.54558
20
-4.10621
11
5.55546
21
-4.0921
0
LINE
8
BLACK
6
CONTINUOUS
10
5.55546
20
-4.0921
11
5.55449
21
-4.09193
0
LINE
8
BLACK
6
CONTINUOUS
10
5.55449
20
-4.09193
11
5.55435
21
-4.09182
0
LINE
8
BLACK
6
CONTINUOUS
10
5.55435
20
-4.09182
11
5.55418
21
-4.0918
0
LINE
8
BLACK
6
CONTINUOUS
10
5.55418
20
-4.0918
11
5.55043
21
-4.08992
0
LINE
8
BLACK
6
CONTINUOUS
10
5.55043
20
-4.08992
11
5.54972
21
-4.0894
0
LINE
8
BLACK
6
CONTINUOUS
10
5.54972
20
-4.0894
11
5.54966
21
-4.08937
0
LINE
8
BLACK
6
CONTINUOUS
10
5.54966
20
-4.08937
11
5.54779
21
-4.0875
0
LINE
8
BLACK
6
CONTINUOUS
10
5.54779
20
-4.0875
11
5.54728
21
-4.08677
0
LINE
8
BLACK
6
CONTINUOUS
10
5.54728
20
-4.08677
11
5.54723
21
-4.08673
0
LINE
8
BLACK
6
CONTINUOUS
10
5.54723
20
-4.08673
11
5.54536
21
-4.08298
0
LINE
8
BLACK
6
CONTINUOUS
10
5.54536
20
-4.08298
11
5.54507
21
-4.082
0
LINE
8
BLACK
6
CONTINUOUS
10
5.54507
20
-4.082
11
5.54511
21
-4.08183
0
LINE
8
BLACK
6
CONTINUOUS
10
5.54511
20
-4.08183
11
5.54505
21
-4.08166
0
LINE
8
BLACK
6
CONTINUOUS
10
5.54505
20
-4.08166
11
5.54505
21
-4.07604
0
LINE
8
BLACK
6
CONTINUOUS
10
5.54505
20
-4.07604
11
5.54522
21
-4.07503
0
LINE
8
BLACK
6
CONTINUOUS
10
5.54522
20
-4.07503
11
5.54534
21
-4.07489
0
LINE
8
BLACK
6
CONTINUOUS
10
5.54534
20
-4.07489
11
5.54536
21
-4.07471
0
LINE
8
BLACK
6
CONTINUOUS
10
5.54536
20
-4.07471
11
5.54723
21
-4.07097
0
LINE
8
BLACK
6
CONTINUOUS
10
5.54723
20
-4.07097
11
5.54776
21
-4.07026
0
LINE
8
BLACK
6
CONTINUOUS
10
5.54776
20
-4.07026
11
5.54779
21
-4.0702
0
LINE
8
BLACK
6
CONTINUOUS
10
5.54779
20
-4.0702
11
5.54966
21
-4.06832
0
LINE
8
BLACK
6
CONTINUOUS
10
5.54966
20
-4.06832
11
5.55038
21
-4.06782
0
LINE
8
BLACK
6
CONTINUOUS
10
5.55038
20
-4.06782
11
5.55043
21
-4.06777
0
LINE
8
BLACK
6
CONTINUOUS
10
5.55043
20
-4.06777
11
5.55418
21
-4.0659
0
LINE
8
BLACK
6
CONTINUOUS
10
5.55418
20
-4.0659
11
5.55516
21
-4.0656
0
LINE
8
BLACK
6
CONTINUOUS
10
5.55516
20
-4.0656
11
5.55533
21
-4.06564
0
LINE
8
BLACK
6
CONTINUOUS
10
5.55533
20
-4.06564
11
5.5555
21
-4.06558
0
LINE
8
BLACK
6
CONTINUOUS
10
5.5555
20
-4.06558
11
5.5705
21
-4.06558
0
LINE
8
BLACK
6
CONTINUOUS
10
5.5705
20
-4.06558
11
5.57088
21
-4.06565
0
LINE
8
BLACK
6
CONTINUOUS
10
5.5535
20
-4.07284
11
5.5523
21
-4.07403
0
LINE
8
BLACK
6
CONTINUOUS
10
5.5523
20
-4.07403
11
5.55095
21
-4.07673
0
LINE
8
BLACK
6
CONTINUOUS
10
5.55095
20
-4.07673
11
5.55095
21
-4.08096
0
LINE
8
BLACK
6
CONTINUOUS
10
5.55095
20
-4.08096
11
5.5523
21
-4.08366
0
LINE
8
BLACK
6
CONTINUOUS
10
5.5523
20
-4.08366
11
5.5535
21
-4.08486
0
LINE
8
BLACK
6
CONTINUOUS
10
5.5535
20
-4.08486
11
5.55619
21
-4.08621
0
LINE
8
BLACK
6
CONTINUOUS
10
5.55619
20
-4.08621
11
5.56754
21
-4.08621
0
LINE
8
BLACK
6
CONTINUOUS
10
5.56754
20
-4.08621
11
5.56754
21
-4.07149
0
LINE
8
BLACK
6
CONTINUOUS
10
5.56754
20
-4.07149
11
5.55619
21
-4.07149
0
LINE
8
BLACK
6
CONTINUOUS
10
5.55619
20
-4.07149
11
5.5535
21
-4.07284
0
LINE
8
BLACK
6
CONTINUOUS
10
5.30061
20
-4.07569
11
5.3013
21
-4.07736
0
LINE
8
BLACK
6
CONTINUOUS
10
5.3013
20
-4.07736
11
5.30061
21
-4.07903
0
LINE
8
BLACK
6
CONTINUOUS
10
5.30061
20
-4.07903
11
5.29894
21
-4.07972
0
LINE
8
BLACK
6
CONTINUOUS
10
5.29894
20
-4.07972
11
5.28106
21
-4.07972
0
LINE
8
BLACK
6
CONTINUOUS
10
5.28106
20
-4.07972
11
5.27939
21
-4.07903
0
LINE
8
BLACK
6
CONTINUOUS
10
5.27939
20
-4.07903
11
5.2787
21
-4.07736
0
LINE
8
BLACK
6
CONTINUOUS
10
5.2787
20
-4.07736
11
5.27939
21
-4.07569
0
LINE
8
BLACK
6
CONTINUOUS
10
5.27939
20
-4.07569
11
5.28106
21
-4.075
0
LINE
8
BLACK
6
CONTINUOUS
10
5.28106
20
-4.075
11
5.29894
21
-4.075
0
LINE
8
BLACK
6
CONTINUOUS
10
5.29894
20
-4.075
11
5.30061
21
-4.07569
0
LINE
8
BLACK
6
CONTINUOUS
10
5.45205
20
-4.07569
11
5.45274
21
-4.07736
0
LINE
8
BLACK
6
CONTINUOUS
10
5.45274
20
-4.07736
11
5.45205
21
-4.07903
0
LINE
8
BLACK
6
CONTINUOUS
10
5.45205
20
-4.07903
11
5.45038
21
-4.07972
0
LINE
8
BLACK
6
CONTINUOUS
10
5.45038
20
-4.07972
11
5.4325
21
-4.07972
0
LINE
8
BLACK
6
CONTINUOUS
10
5.4325
20
-4.07972
11
5.43083
21
-4.07903
0
LINE
8
BLACK
6
CONTINUOUS
10
5.43083
20
-4.07903
11
5.43014
21
-4.07736
0
LINE
8
BLACK
6
CONTINUOUS
10
5.43014
20
-4.07736
11
5.43083
21
-4.07569
0
LINE
8
BLACK
6
CONTINUOUS
10
5.43083
20
-4.07569
11
5.4325
21
-4.075
0
LINE
8
BLACK
6
CONTINUOUS
10
5.4325
20
-4.075
11
5.45038
21
-4.075
0
LINE
8
BLACK
6
CONTINUOUS
10
5.45038
20
-4.075
11
5.45205
21
-4.07569
0
CIRCLE
8
BLACK
10
5.57
20
-3.91
40
0.00688976
0
CIRCLE
8
BLACK
10
5.57
20
-4.01
40
0.00688976
0
CIRCLE
8
BLACK
10
5.47
20
-3.91
40
0.00688976
0
CIRCLE
8
BLACK
10
5.47
20
-4.01
40
0.00688976
0
CIRCLE
8
BLACK
10
5.37
20
-3.91
40
0.00688976
0
CIRCLE
8
BLACK
10
5.37
20
-4.01
40
0.00688976
0
CIRCLE
8
BLACK
10
5.27
20
-3.91
40
0.00688976
0
CIRCLE
8
BLACK
10
5.27
20
-4.01
40
0.00688976
0
CIRCLE
8
BLACK
10
5.17
20
-3.91
40
0.00688976
0
CIRCLE
8
BLACK
10
5.17
20
-4.01
40
0.00688976
0
CIRCLE
8
BLACK
10
4.98
20
-3.91
40
0.00688976
0
CIRCLE
8
BLACK
10
4.98
20
-4.01
40
0.00688976
0
CIRCLE
8
BLACK
10
4.88
20
-3.91
40
0.00688976
0
CIRCLE
8
BLACK
10
4.88
20
-4.01
40
0.00688976
0
CIRCLE
8
BLACK
10
5.8
20
-4.4
40
0.00688976
0
CIRCLE
8
BLACK
10
4.6
20
-4
40
0.00688976
0
CIRCLE
8
BLACK
10
5.36
20
-4.5
40
0.00688976
0
CIRCLE
8
BLACK
10
5.36
20
-4.4
40
0.00688976
0
CIRCLE
8
BLACK
10
5.46
20
-4.5
40
0.00688976
0
CIRCLE
8
BLACK
10
5.46
20
-4.4
40
0.00688976
0
CIRCLE
8
BLACK
10
5.56
20
-4.5
40
0.00688976
0
CIRCLE
8
BLACK
10
5.56
20
-4.4
40
0.00688976
0
CIRCLE
8
BLACK
10
5.8
20
-4
40
0.00688976
0
CIRCLE
8
BLACK
10
4.6
20
-4.4
40
0.00688976
  0
ENDSEC
  0
EOF
