  0
SECTION
  2
HEADER
  9
$ANGBASE
  50
0.0
  9
$ANGDIR
  70
1
  9
$MEASUREMENT
  70
0
  0
ENDSEC
  0
SECTION
  2
TABLES
  0
TABLE
  2
LTYPE
  70
4
  0
LTYPE
  5
40F
  2
CONTINUOUS
  70
0
  3
Solid line
  72
65
  73
0
  40
0.0
  0
LTYPE
  5
410
  2
DASHDOT
 70
0
  3
Dash Dot ____ _ ____ _
 72
65
 73
4
 40
2.0
 49
1.25
 49
-0.25
 49
0.25
 49
-0.25
  0
LTYPE
  5
411
  2
DASHED
 70
0
  3
Dashed __ __ __ __ __
 72
65
 73
2
 40
0.75
 49
0.5
 49
-0.25
  0
LTYPE
  5
43B
  2
DOTTED
 70
0
  3
Dotted .  .  .  .
 72
65
 73
2
 40
0.2
 49
0.0
 49
-0.2
  0
ENDTAB
  0
TABLE
  2
STYLE
  70
4
  0
STYLE
  2
KICAD
  70
0
  40
0
  41
1
  42
1
  50
0
  71
0
  3
isocp.shx
  0
STYLE
  2
KICADB
  70
0
  40
0
  41
1
  42
1
  50
0
  71
0
  3
isocp.shx
  0
STYLE
  2
KICADI
  70
0
  40
0
  41
1
  42
1
  50
15
  71
0
  3
isocp.shx
  0
STYLE
  2
KICADBI
  70
0
  40
0
  41
1
  42
1
  50
15
  71
0
  3
isocp.shx
  0
ENDTAB
  0
TABLE
  2
LAYER
  70
1
  0
LAYER
  2
BLACK
  70
0
  62
7
  6
CONTINUOUS
  0
ENDTAB
  0
ENDSEC
  0
SECTION
  2
ENTITIES
0
LINE
8
BLACK
6
CONTINUOUS
10
5.39301
20
-4.46273
11
5.39557
21
-4.46443
0
LINE
8
BLACK
6
CONTINUOUS
10
5.39557
20
-4.46443
11
5.39727
21
-4.46699
0
LINE
8
BLACK
6
CONTINUOUS
10
5.39727
20
-4.46699
11
5.39787
21
-4.47
0
LINE
8
BLACK
6
CONTINUOUS
10
5.39787
20
-4.47
11
5.39787
21
-4.53
0
LINE
8
BLACK
6
CONTINUOUS
10
5.39787
20
-4.53
11
5.39727
21
-4.53301
0
LINE
8
BLACK
6
CONTINUOUS
10
5.39727
20
-4.53301
11
5.39557
21
-4.53557
0
LINE
8
BLACK
6
CONTINUOUS
10
5.39557
20
-4.53557
11
5.39301
21
-4.53727
0
LINE
8
BLACK
6
CONTINUOUS
10
5.39301
20
-4.53727
11
5.39
21
-4.53787
0
LINE
8
BLACK
6
CONTINUOUS
10
5.39
20
-4.53787
11
5.33
21
-4.53787
0
LINE
8
BLACK
6
CONTINUOUS
10
5.33
20
-4.53787
11
5.32699
21
-4.53727
0
LINE
8
BLACK
6
CONTINUOUS
10
5.32699
20
-4.53727
11
5.32443
21
-4.53557
0
LINE
8
BLACK
6
CONTINUOUS
10
5.32443
20
-4.53557
11
5.32273
21
-4.53301
0
LINE
8
BLACK
6
CONTINUOUS
10
5.32273
20
-4.53301
11
5.32213
21
-4.53
0
LINE
8
BLACK
6
CONTINUOUS
10
5.32213
20
-4.53
11
5.32213
21
-4.47
0
LINE
8
BLACK
6
CONTINUOUS
10
5.32213
20
-4.47
11
5.32273
21
-4.46699
0
LINE
8
BLACK
6
CONTINUOUS
10
5.32273
20
-4.46699
11
5.32443
21
-4.46443
0
LINE
8
BLACK
6
CONTINUOUS
10
5.32443
20
-4.46443
11
5.32699
21
-4.46273
0
LINE
8
BLACK
6
CONTINUOUS
10
5.32699
20
-4.46273
11
5.33
21
-4.46213
0
LINE
8
BLACK
6
CONTINUOUS
10
5.33
20
-4.46213
11
5.39
21
-4.46213
0
LINE
8
BLACK
6
CONTINUOUS
10
5.39
20
-4.46213
11
5.39301
21
-4.46273
0
LINE
8
BLACK
6
CONTINUOUS
10
5.49301
20
-4.46273
11
5.49557
21
-4.46443
0
LINE
8
BLACK
6
CONTINUOUS
10
5.49557
20
-4.46443
11
5.49727
21
-4.46699
0
LINE
8
BLACK
6
CONTINUOUS
10
5.49727
20
-4.46699
11
5.49787
21
-4.47
0
LINE
8
BLACK
6
CONTINUOUS
10
5.49787
20
-4.47
11
5.49787
21
-4.53
0
LINE
8
BLACK
6
CONTINUOUS
10
5.49787
20
-4.53
11
5.49727
21
-4.53301
0
LINE
8
BLACK
6
CONTINUOUS
10
5.49727
20
-4.53301
11
5.49557
21
-4.53557
0
LINE
8
BLACK
6
CONTINUOUS
10
5.49557
20
-4.53557
11
5.49301
21
-4.53727
0
LINE
8
BLACK
6
CONTINUOUS
10
5.49301
20
-4.53727
11
5.49
21
-4.53787
0
LINE
8
BLACK
6
CONTINUOUS
10
5.49
20
-4.53787
11
5.43
21
-4.53787
0
LINE
8
BLACK
6
CONTINUOUS
10
5.43
20
-4.53787
11
5.42699
21
-4.53727
0
LINE
8
BLACK
6
CONTINUOUS
10
5.42699
20
-4.53727
11
5.42443
21
-4.53557
0
LINE
8
BLACK
6
CONTINUOUS
10
5.42443
20
-4.53557
11
5.42273
21
-4.53301
0
LINE
8
BLACK
6
CONTINUOUS
10
5.42273
20
-4.53301
11
5.42213
21
-4.53
0
LINE
8
BLACK
6
CONTINUOUS
10
5.42213
20
-4.53
11
5.42213
21
-4.47
0
LINE
8
BLACK
6
CONTINUOUS
10
5.42213
20
-4.47
11
5.42273
21
-4.46699
0
LINE
8
BLACK
6
CONTINUOUS
10
5.42273
20
-4.46699
11
5.42443
21
-4.46443
0
LINE
8
BLACK
6
CONTINUOUS
10
5.42443
20
-4.46443
11
5.42699
21
-4.46273
0
LINE
8
BLACK
6
CONTINUOUS
10
5.42699
20
-4.46273
11
5.43
21
-4.46213
0
LINE
8
BLACK
6
CONTINUOUS
10
5.43
20
-4.46213
11
5.49
21
-4.46213
0
LINE
8
BLACK
6
CONTINUOUS
10
5.49
20
-4.46213
11
5.49301
21
-4.46273
0
LINE
8
BLACK
6
CONTINUOUS
10
5.59301
20
-4.46273
11
5.59557
21
-4.46443
0
LINE
8
BLACK
6
CONTINUOUS
10
5.59557
20
-4.46443
11
5.59727
21
-4.46699
0
LINE
8
BLACK
6
CONTINUOUS
10
5.59727
20
-4.46699
11
5.59787
21
-4.47
0
LINE
8
BLACK
6
CONTINUOUS
10
5.59787
20
-4.47
11
5.59787
21
-4.53
0
LINE
8
BLACK
6
CONTINUOUS
10
5.59787
20
-4.53
11
5.59727
21
-4.53301
0
LINE
8
BLACK
6
CONTINUOUS
10
5.59727
20
-4.53301
11
5.59557
21
-4.53557
0
LINE
8
BLACK
6
CONTINUOUS
10
5.59557
20
-4.53557
11
5.59301
21
-4.53727
0
LINE
8
BLACK
6
CONTINUOUS
10
5.59301
20
-4.53727
11
5.59
21
-4.53787
0
LINE
8
BLACK
6
CONTINUOUS
10
5.59
20
-4.53787
11
5.53
21
-4.53787
0
LINE
8
BLACK
6
CONTINUOUS
10
5.53
20
-4.53787
11
5.52699
21
-4.53727
0
LINE
8
BLACK
6
CONTINUOUS
10
5.52699
20
-4.53727
11
5.52443
21
-4.53557
0
LINE
8
BLACK
6
CONTINUOUS
10
5.52443
20
-4.53557
11
5.52273
21
-4.53301
0
LINE
8
BLACK
6
CONTINUOUS
10
5.52273
20
-4.53301
11
5.52213
21
-4.53
0
LINE
8
BLACK
6
CONTINUOUS
10
5.52213
20
-4.53
11
5.52213
21
-4.47
0
LINE
8
BLACK
6
CONTINUOUS
10
5.52213
20
-4.47
11
5.52273
21
-4.46699
0
LINE
8
BLACK
6
CONTINUOUS
10
5.52273
20
-4.46699
11
5.52443
21
-4.46443
0
LINE
8
BLACK
6
CONTINUOUS
10
5.52443
20
-4.46443
11
5.52699
21
-4.46273
0
LINE
8
BLACK
6
CONTINUOUS
10
5.52699
20
-4.46273
11
5.53
21
-4.46213
0
LINE
8
BLACK
6
CONTINUOUS
10
5.53
20
-4.46213
11
5.59
21
-4.46213
0
LINE
8
BLACK
6
CONTINUOUS
10
5.59
20
-4.46213
11
5.59301
21
-4.46273
0
LINE
8
BLACK
6
CONTINUOUS
10
4.61411
20
-4.27481
11
4.62803
21
-4.27717
0
LINE
8
BLACK
6
CONTINUOUS
10
4.62803
20
-4.27717
11
4.64161
21
-4.28109
0
LINE
8
BLACK
6
CONTINUOUS
10
4.64161
20
-4.28109
11
4.65466
21
-4.28649
0
LINE
8
BLACK
6
CONTINUOUS
10
4.65466
20
-4.28649
11
4.66703
21
-4.29333
0
LINE
8
BLACK
6
CONTINUOUS
10
4.66703
20
-4.29333
11
4.67855
21
-4.3015
0
LINE
8
BLACK
6
CONTINUOUS
10
4.67855
20
-4.3015
11
4.68908
21
-4.31092
0
LINE
8
BLACK
6
CONTINUOUS
10
4.68908
20
-4.31092
11
4.6985
21
-4.32145
0
LINE
8
BLACK
6
CONTINUOUS
10
4.6985
20
-4.32145
11
4.70667
21
-4.33297
0
LINE
8
BLACK
6
CONTINUOUS
10
4.70667
20
-4.33297
11
4.71351
21
-4.34534
0
LINE
8
BLACK
6
CONTINUOUS
10
4.71351
20
-4.34534
11
4.71891
21
-4.35839
0
LINE
8
BLACK
6
CONTINUOUS
10
4.71891
20
-4.35839
11
4.72283
21
-4.37197
0
LINE
8
BLACK
6
CONTINUOUS
10
4.72283
20
-4.37197
11
4.72519
21
-4.38589
0
LINE
8
BLACK
6
CONTINUOUS
10
4.72519
20
-4.38589
11
4.72598
21
-4.4
0
LINE
8
BLACK
6
CONTINUOUS
10
4.72598
20
-4.4
11
4.72519
21
-4.41411
0
LINE
8
BLACK
6
CONTINUOUS
10
4.72519
20
-4.41411
11
4.72283
21
-4.42803
0
LINE
8
BLACK
6
CONTINUOUS
10
4.72283
20
-4.42803
11
4.71891
21
-4.44161
0
LINE
8
BLACK
6
CONTINUOUS
10
4.71891
20
-4.44161
11
4.71351
21
-4.45466
0
LINE
8
BLACK
6
CONTINUOUS
10
4.71351
20
-4.45466
11
4.70667
21
-4.46703
0
LINE
8
BLACK
6
CONTINUOUS
10
4.70667
20
-4.46703
11
4.6985
21
-4.47855
0
LINE
8
BLACK
6
CONTINUOUS
10
4.6985
20
-4.47855
11
4.68908
21
-4.48908
0
LINE
8
BLACK
6
CONTINUOUS
10
4.68908
20
-4.48908
11
4.67855
21
-4.4985
0
LINE
8
BLACK
6
CONTINUOUS
10
4.67855
20
-4.4985
11
4.66703
21
-4.50667
0
LINE
8
BLACK
6
CONTINUOUS
10
4.66703
20
-4.50667
11
4.65466
21
-4.51351
0
LINE
8
BLACK
6
CONTINUOUS
10
4.65466
20
-4.51351
11
4.64161
21
-4.51891
0
LINE
8
BLACK
6
CONTINUOUS
10
4.64161
20
-4.51891
11
4.62803
21
-4.52283
0
LINE
8
BLACK
6
CONTINUOUS
10
4.62803
20
-4.52283
11
4.61411
21
-4.52519
0
LINE
8
BLACK
6
CONTINUOUS
10
4.61411
20
-4.52519
11
4.6
21
-4.52598
0
LINE
8
BLACK
6
CONTINUOUS
10
4.6
20
-4.52598
11
4.58589
21
-4.52519
0
LINE
8
BLACK
6
CONTINUOUS
10
4.58589
20
-4.52519
11
4.57197
21
-4.52283
0
LINE
8
BLACK
6
CONTINUOUS
10
4.57197
20
-4.52283
11
4.55839
21
-4.51891
0
LINE
8
BLACK
6
CONTINUOUS
10
4.55839
20
-4.51891
11
4.54534
21
-4.51351
0
LINE
8
BLACK
6
CONTINUOUS
10
4.54534
20
-4.51351
11
4.53297
21
-4.50667
0
LINE
8
BLACK
6
CONTINUOUS
10
4.53297
20
-4.50667
11
4.52145
21
-4.4985
0
LINE
8
BLACK
6
CONTINUOUS
10
4.52145
20
-4.4985
11
4.51092
21
-4.48908
0
LINE
8
BLACK
6
CONTINUOUS
10
4.51092
20
-4.48908
11
4.5015
21
-4.47855
0
LINE
8
BLACK
6
CONTINUOUS
10
4.5015
20
-4.47855
11
4.49333
21
-4.46703
0
LINE
8
BLACK
6
CONTINUOUS
10
4.49333
20
-4.46703
11
4.48649
21
-4.45466
0
LINE
8
BLACK
6
CONTINUOUS
10
4.48649
20
-4.45466
11
4.48109
21
-4.44161
0
LINE
8
BLACK
6
CONTINUOUS
10
4.48109
20
-4.44161
11
4.47717
21
-4.42803
0
LINE
8
BLACK
6
CONTINUOUS
10
4.47717
20
-4.42803
11
4.47481
21
-4.41411
0
LINE
8
BLACK
6
CONTINUOUS
10
4.47481
20
-4.41411
11
4.47402
21
-4.4
0
LINE
8
BLACK
6
CONTINUOUS
10
4.47402
20
-4.4
11
4.47481
21
-4.38589
0
LINE
8
BLACK
6
CONTINUOUS
10
4.47481
20
-4.38589
11
4.47717
21
-4.37197
0
LINE
8
BLACK
6
CONTINUOUS
10
4.47717
20
-4.37197
11
4.48109
21
-4.35839
0
LINE
8
BLACK
6
CONTINUOUS
10
4.48109
20
-4.35839
11
4.48649
21
-4.34534
0
LINE
8
BLACK
6
CONTINUOUS
10
4.48649
20
-4.34534
11
4.49333
21
-4.33297
0
LINE
8
BLACK
6
CONTINUOUS
10
4.49333
20
-4.33297
11
4.5015
21
-4.32145
0
LINE
8
BLACK
6
CONTINUOUS
10
4.5015
20
-4.32145
11
4.51092
21
-4.31092
0
LINE
8
BLACK
6
CONTINUOUS
10
4.51092
20
-4.31092
11
4.52145
21
-4.3015
0
LINE
8
BLACK
6
CONTINUOUS
10
4.52145
20
-4.3015
11
4.53297
21
-4.29333
0
LINE
8
BLACK
6
CONTINUOUS
10
4.53297
20
-4.29333
11
4.54534
21
-4.28649
0
LINE
8
BLACK
6
CONTINUOUS
10
4.54534
20
-4.28649
11
4.55839
21
-4.28109
0
LINE
8
BLACK
6
CONTINUOUS
10
4.55839
20
-4.28109
11
4.57197
21
-4.27717
0
LINE
8
BLACK
6
CONTINUOUS
10
4.57197
20
-4.27717
11
4.58589
21
-4.27481
0
LINE
8
BLACK
6
CONTINUOUS
10
4.58589
20
-4.27481
11
4.6
21
-4.27402
0
LINE
8
BLACK
6
CONTINUOUS
10
4.6
20
-4.27402
11
4.61411
21
-4.27481
0
LINE
8
BLACK
6
CONTINUOUS
10
5.81411
20
-4.27481
11
5.82803
21
-4.27717
0
LINE
8
BLACK
6
CONTINUOUS
10
5.82803
20
-4.27717
11
5.84161
21
-4.28109
0
LINE
8
BLACK
6
CONTINUOUS
10
5.84161
20
-4.28109
11
5.85466
21
-4.28649
0
LINE
8
BLACK
6
CONTINUOUS
10
5.85466
20
-4.28649
11
5.86703
21
-4.29333
0
LINE
8
BLACK
6
CONTINUOUS
10
5.86703
20
-4.29333
11
5.87855
21
-4.3015
0
LINE
8
BLACK
6
CONTINUOUS
10
5.87855
20
-4.3015
11
5.88908
21
-4.31092
0
LINE
8
BLACK
6
CONTINUOUS
10
5.88908
20
-4.31092
11
5.8985
21
-4.32145
0
LINE
8
BLACK
6
CONTINUOUS
10
5.8985
20
-4.32145
11
5.90667
21
-4.33297
0
LINE
8
BLACK
6
CONTINUOUS
10
5.90667
20
-4.33297
11
5.91351
21
-4.34534
0
LINE
8
BLACK
6
CONTINUOUS
10
5.91351
20
-4.34534
11
5.91891
21
-4.35839
0
LINE
8
BLACK
6
CONTINUOUS
10
5.91891
20
-4.35839
11
5.92283
21
-4.37197
0
LINE
8
BLACK
6
CONTINUOUS
10
5.92283
20
-4.37197
11
5.92519
21
-4.38589
0
LINE
8
BLACK
6
CONTINUOUS
10
5.92519
20
-4.38589
11
5.92598
21
-4.4
0
LINE
8
BLACK
6
CONTINUOUS
10
5.92598
20
-4.4
11
5.92519
21
-4.41411
0
LINE
8
BLACK
6
CONTINUOUS
10
5.92519
20
-4.41411
11
5.92283
21
-4.42803
0
LINE
8
BLACK
6
CONTINUOUS
10
5.92283
20
-4.42803
11
5.91891
21
-4.44161
0
LINE
8
BLACK
6
CONTINUOUS
10
5.91891
20
-4.44161
11
5.91351
21
-4.45466
0
LINE
8
BLACK
6
CONTINUOUS
10
5.91351
20
-4.45466
11
5.90667
21
-4.46703
0
LINE
8
BLACK
6
CONTINUOUS
10
5.90667
20
-4.46703
11
5.8985
21
-4.47855
0
LINE
8
BLACK
6
CONTINUOUS
10
5.8985
20
-4.47855
11
5.88908
21
-4.48908
0
LINE
8
BLACK
6
CONTINUOUS
10
5.88908
20
-4.48908
11
5.87855
21
-4.4985
0
LINE
8
BLACK
6
CONTINUOUS
10
5.87855
20
-4.4985
11
5.86703
21
-4.50667
0
LINE
8
BLACK
6
CONTINUOUS
10
5.86703
20
-4.50667
11
5.85466
21
-4.51351
0
LINE
8
BLACK
6
CONTINUOUS
10
5.85466
20
-4.51351
11
5.84161
21
-4.51891
0
LINE
8
BLACK
6
CONTINUOUS
10
5.84161
20
-4.51891
11
5.82803
21
-4.52283
0
LINE
8
BLACK
6
CONTINUOUS
10
5.82803
20
-4.52283
11
5.81411
21
-4.52519
0
LINE
8
BLACK
6
CONTINUOUS
10
5.81411
20
-4.52519
11
5.8
21
-4.52598
0
LINE
8
BLACK
6
CONTINUOUS
10
5.8
20
-4.52598
11
5.78589
21
-4.52519
0
LINE
8
BLACK
6
CONTINUOUS
10
5.78589
20
-4.52519
11
5.77197
21
-4.52283
0
LINE
8
BLACK
6
CONTINUOUS
10
5.77197
20
-4.52283
11
5.75839
21
-4.51891
0
LINE
8
BLACK
6
CONTINUOUS
10
5.75839
20
-4.51891
11
5.74534
21
-4.51351
0
LINE
8
BLACK
6
CONTINUOUS
10
5.74534
20
-4.51351
11
5.73297
21
-4.50667
0
LINE
8
BLACK
6
CONTINUOUS
10
5.73297
20
-4.50667
11
5.72145
21
-4.4985
0
LINE
8
BLACK
6
CONTINUOUS
10
5.72145
20
-4.4985
11
5.71092
21
-4.48908
0
LINE
8
BLACK
6
CONTINUOUS
10
5.71092
20
-4.48908
11
5.7015
21
-4.47855
0
LINE
8
BLACK
6
CONTINUOUS
10
5.7015
20
-4.47855
11
5.69333
21
-4.46703
0
LINE
8
BLACK
6
CONTINUOUS
10
5.69333
20
-4.46703
11
5.68649
21
-4.45466
0
LINE
8
BLACK
6
CONTINUOUS
10
5.68649
20
-4.45466
11
5.68109
21
-4.44161
0
LINE
8
BLACK
6
CONTINUOUS
10
5.68109
20
-4.44161
11
5.67717
21
-4.42803
0
LINE
8
BLACK
6
CONTINUOUS
10
5.67717
20
-4.42803
11
5.67481
21
-4.41411
0
LINE
8
BLACK
6
CONTINUOUS
10
5.67481
20
-4.41411
11
5.67402
21
-4.4
0
LINE
8
BLACK
6
CONTINUOUS
10
5.67402
20
-4.4
11
5.67481
21
-4.38589
0
LINE
8
BLACK
6
CONTINUOUS
10
5.67481
20
-4.38589
11
5.67717
21
-4.37197
0
LINE
8
BLACK
6
CONTINUOUS
10
5.67717
20
-4.37197
11
5.68109
21
-4.35839
0
LINE
8
BLACK
6
CONTINUOUS
10
5.68109
20
-4.35839
11
5.68649
21
-4.34534
0
LINE
8
BLACK
6
CONTINUOUS
10
5.68649
20
-4.34534
11
5.69333
21
-4.33297
0
LINE
8
BLACK
6
CONTINUOUS
10
5.69333
20
-4.33297
11
5.7015
21
-4.32145
0
LINE
8
BLACK
6
CONTINUOUS
10
5.7015
20
-4.32145
11
5.71092
21
-4.31092
0
LINE
8
BLACK
6
CONTINUOUS
10
5.71092
20
-4.31092
11
5.72145
21
-4.3015
0
LINE
8
BLACK
6
CONTINUOUS
10
5.72145
20
-4.3015
11
5.73297
21
-4.29333
0
LINE
8
BLACK
6
CONTINUOUS
10
5.73297
20
-4.29333
11
5.74534
21
-4.28649
0
LINE
8
BLACK
6
CONTINUOUS
10
5.74534
20
-4.28649
11
5.75839
21
-4.28109
0
LINE
8
BLACK
6
CONTINUOUS
10
5.75839
20
-4.28109
11
5.77197
21
-4.27717
0
LINE
8
BLACK
6
CONTINUOUS
10
5.77197
20
-4.27717
11
5.78589
21
-4.27481
0
LINE
8
BLACK
6
CONTINUOUS
10
5.78589
20
-4.27481
11
5.8
21
-4.27402
0
LINE
8
BLACK
6
CONTINUOUS
10
5.8
20
-4.27402
11
5.81411
21
-4.27481
0
LINE
8
BLACK
6
CONTINUOUS
10
5.11916
20
-4.43666
11
5.12106
21
-4.43794
0
LINE
8
BLACK
6
CONTINUOUS
10
5.12106
20
-4.43794
11
5.12297
21
-4.43666
0
LINE
8
BLACK
6
CONTINUOUS
10
5.12297
20
-4.43666
11
5.12598
21
-4.43606
0
LINE
8
BLACK
6
CONTINUOUS
10
5.12598
20
-4.43606
11
5.16535
21
-4.43606
0
LINE
8
BLACK
6
CONTINUOUS
10
5.16535
20
-4.43606
11
5.16837
21
-4.43666
0
LINE
8
BLACK
6
CONTINUOUS
10
5.16837
20
-4.43666
11
5.17028
21
-4.43794
0
LINE
8
BLACK
6
CONTINUOUS
10
5.17028
20
-4.43794
11
5.17218
21
-4.43666
0
LINE
8
BLACK
6
CONTINUOUS
10
5.17218
20
-4.43666
11
5.1752
21
-4.43606
0
LINE
8
BLACK
6
CONTINUOUS
10
5.1752
20
-4.43606
11
5.19685
21
-4.43606
0
LINE
8
BLACK
6
CONTINUOUS
10
5.19685
20
-4.43606
11
5.19786
21
-4.43626
0
LINE
8
BLACK
6
CONTINUOUS
10
5.19786
20
-4.43626
11
5.19965
21
-4.43626
0
LINE
8
BLACK
6
CONTINUOUS
10
5.19965
20
-4.43626
11
5.20187
21
-4.43658
0
LINE
8
BLACK
6
CONTINUOUS
10
5.20187
20
-4.43658
11
5.20725
21
-4.43816
0
LINE
8
BLACK
6
CONTINUOUS
10
5.20725
20
-4.43816
11
5.20928
21
-4.43909
0
LINE
8
BLACK
6
CONTINUOUS
10
5.20928
20
-4.43909
11
5.214
21
-4.44212
0
LINE
8
BLACK
6
CONTINUOUS
10
5.214
20
-4.44212
11
5.21569
21
-4.44359
0
LINE
8
BLACK
6
CONTINUOUS
10
5.21569
20
-4.44359
11
5.21936
21
-4.44782
0
LINE
8
BLACK
6
CONTINUOUS
10
5.21936
20
-4.44782
11
5.22057
21
-4.44971
0
LINE
8
BLACK
6
CONTINUOUS
10
5.22057
20
-4.44971
11
5.2229
21
-4.45481
0
LINE
8
BLACK
6
CONTINUOUS
10
5.2229
20
-4.45481
11
5.22353
21
-4.45696
0
LINE
8
BLACK
6
CONTINUOUS
10
5.22353
20
-4.45696
11
5.22433
21
-4.4625
0
LINE
8
BLACK
6
CONTINUOUS
10
5.22433
20
-4.4625
11
5.22441
21
-4.46362
0
LINE
8
BLACK
6
CONTINUOUS
10
5.22441
20
-4.46362
11
5.22441
21
-4.48331
0
LINE
8
BLACK
6
CONTINUOUS
10
5.22441
20
-4.48331
11
5.22433
21
-4.48443
0
LINE
8
BLACK
6
CONTINUOUS
10
5.22433
20
-4.48443
11
5.22353
21
-4.48997
0
LINE
8
BLACK
6
CONTINUOUS
10
5.22353
20
-4.48997
11
5.2229
21
-4.49212
0
LINE
8
BLACK
6
CONTINUOUS
10
5.2229
20
-4.49212
11
5.22057
21
-4.49722
0
LINE
8
BLACK
6
CONTINUOUS
10
5.22057
20
-4.49722
11
5.21936
21
-4.49911
0
LINE
8
BLACK
6
CONTINUOUS
10
5.21936
20
-4.49911
11
5.21569
21
-4.50334
0
LINE
8
BLACK
6
CONTINUOUS
10
5.21569
20
-4.50334
11
5.214
21
-4.50481
0
LINE
8
BLACK
6
CONTINUOUS
10
5.214
20
-4.50481
11
5.20928
21
-4.50784
0
LINE
8
BLACK
6
CONTINUOUS
10
5.20928
20
-4.50784
11
5.20725
21
-4.50877
0
LINE
8
BLACK
6
CONTINUOUS
10
5.20725
20
-4.50877
11
5.20187
21
-4.51035
0
LINE
8
BLACK
6
CONTINUOUS
10
5.20187
20
-4.51035
11
5.19965
21
-4.51067
0
LINE
8
BLACK
6
CONTINUOUS
10
5.19965
20
-4.51067
11
5.19786
21
-4.51067
0
LINE
8
BLACK
6
CONTINUOUS
10
5.19786
20
-4.51067
11
5.19685
21
-4.51087
0
LINE
8
BLACK
6
CONTINUOUS
10
5.19685
20
-4.51087
11
5.1752
21
-4.51087
0
LINE
8
BLACK
6
CONTINUOUS
10
5.1752
20
-4.51087
11
5.17218
21
-4.51027
0
LINE
8
BLACK
6
CONTINUOUS
10
5.17218
20
-4.51027
11
5.17028
21
-4.50899
0
LINE
8
BLACK
6
CONTINUOUS
10
5.17028
20
-4.50899
11
5.16837
21
-4.51027
0
LINE
8
BLACK
6
CONTINUOUS
10
5.16837
20
-4.51027
11
5.16535
21
-4.51087
0
LINE
8
BLACK
6
CONTINUOUS
10
5.16535
20
-4.51087
11
5.12598
21
-4.51087
0
LINE
8
BLACK
6
CONTINUOUS
10
5.12598
20
-4.51087
11
5.12297
21
-4.51027
0
LINE
8
BLACK
6
CONTINUOUS
10
5.12297
20
-4.51027
11
5.12106
21
-4.50899
0
LINE
8
BLACK
6
CONTINUOUS
10
5.12106
20
-4.50899
11
5.11916
21
-4.51027
0
LINE
8
BLACK
6
CONTINUOUS
10
5.11916
20
-4.51027
11
5.11614
21
-4.51087
0
LINE
8
BLACK
6
CONTINUOUS
10
5.11614
20
-4.51087
11
5.09449
21
-4.51087
0
LINE
8
BLACK
6
CONTINUOUS
10
5.09449
20
-4.51087
11
5.09348
21
-4.51067
0
LINE
8
BLACK
6
CONTINUOUS
10
5.09348
20
-4.51067
11
5.09169
21
-4.51067
0
LINE
8
BLACK
6
CONTINUOUS
10
5.09169
20
-4.51067
11
5.08947
21
-4.51035
0
LINE
8
BLACK
6
CONTINUOUS
10
5.08947
20
-4.51035
11
5.08409
21
-4.50877
0
LINE
8
BLACK
6
CONTINUOUS
10
5.08409
20
-4.50877
11
5.08205
21
-4.50784
0
LINE
8
BLACK
6
CONTINUOUS
10
5.08205
20
-4.50784
11
5.07734
21
-4.50481
0
LINE
8
BLACK
6
CONTINUOUS
10
5.07734
20
-4.50481
11
5.07565
21
-4.50334
0
LINE
8
BLACK
6
CONTINUOUS
10
5.07565
20
-4.50334
11
5.07198
21
-4.49911
0
LINE
8
BLACK
6
CONTINUOUS
10
5.07198
20
-4.49911
11
5.07077
21
-4.49722
0
LINE
8
BLACK
6
CONTINUOUS
10
5.07077
20
-4.49722
11
5.06844
21
-4.49212
0
LINE
8
BLACK
6
CONTINUOUS
10
5.06844
20
-4.49212
11
5.06781
21
-4.48997
0
LINE
8
BLACK
6
CONTINUOUS
10
5.06781
20
-4.48997
11
5.06701
21
-4.48443
0
LINE
8
BLACK
6
CONTINUOUS
10
5.06701
20
-4.48443
11
5.06693
21
-4.48331
0
LINE
8
BLACK
6
CONTINUOUS
10
5.06693
20
-4.48331
11
5.06693
21
-4.46362
0
LINE
8
BLACK
6
CONTINUOUS
10
5.06693
20
-4.46362
11
5.06701
21
-4.4625
0
LINE
8
BLACK
6
CONTINUOUS
10
5.06701
20
-4.4625
11
5.06781
21
-4.45696
0
LINE
8
BLACK
6
CONTINUOUS
10
5.06781
20
-4.45696
11
5.06844
21
-4.45481
0
LINE
8
BLACK
6
CONTINUOUS
10
5.06844
20
-4.45481
11
5.07077
21
-4.44971
0
LINE
8
BLACK
6
CONTINUOUS
10
5.07077
20
-4.44971
11
5.07198
21
-4.44782
0
LINE
8
BLACK
6
CONTINUOUS
10
5.07198
20
-4.44782
11
5.07565
21
-4.44359
0
LINE
8
BLACK
6
CONTINUOUS
10
5.07565
20
-4.44359
11
5.07734
21
-4.44212
0
LINE
8
BLACK
6
CONTINUOUS
10
5.07734
20
-4.44212
11
5.08205
21
-4.43909
0
LINE
8
BLACK
6
CONTINUOUS
10
5.08205
20
-4.43909
11
5.08409
21
-4.43816
0
LINE
8
BLACK
6
CONTINUOUS
10
5.08409
20
-4.43816
11
5.08947
21
-4.43658
0
LINE
8
BLACK
6
CONTINUOUS
10
5.08947
20
-4.43658
11
5.09169
21
-4.43626
0
LINE
8
BLACK
6
CONTINUOUS
10
5.09169
20
-4.43626
11
5.09348
21
-4.43626
0
LINE
8
BLACK
6
CONTINUOUS
10
5.09348
20
-4.43626
11
5.09449
21
-4.43606
0
LINE
8
BLACK
6
CONTINUOUS
10
5.09449
20
-4.43606
11
5.11614
21
-4.43606
0
LINE
8
BLACK
6
CONTINUOUS
10
5.11614
20
-4.43606
11
5.11916
21
-4.43666
0
LINE
8
BLACK
6
CONTINUOUS
10
5.39301
20
-4.36273
11
5.39557
21
-4.36443
0
LINE
8
BLACK
6
CONTINUOUS
10
5.39557
20
-4.36443
11
5.39727
21
-4.36699
0
LINE
8
BLACK
6
CONTINUOUS
10
5.39727
20
-4.36699
11
5.39787
21
-4.37
0
LINE
8
BLACK
6
CONTINUOUS
10
5.39787
20
-4.37
11
5.39787
21
-4.43
0
LINE
8
BLACK
6
CONTINUOUS
10
5.39787
20
-4.43
11
5.39727
21
-4.43301
0
LINE
8
BLACK
6
CONTINUOUS
10
5.39727
20
-4.43301
11
5.39557
21
-4.43557
0
LINE
8
BLACK
6
CONTINUOUS
10
5.39557
20
-4.43557
11
5.39301
21
-4.43727
0
LINE
8
BLACK
6
CONTINUOUS
10
5.39301
20
-4.43727
11
5.39
21
-4.43787
0
LINE
8
BLACK
6
CONTINUOUS
10
5.39
20
-4.43787
11
5.33
21
-4.43787
0
LINE
8
BLACK
6
CONTINUOUS
10
5.33
20
-4.43787
11
5.32699
21
-4.43727
0
LINE
8
BLACK
6
CONTINUOUS
10
5.32699
20
-4.43727
11
5.32443
21
-4.43557
0
LINE
8
BLACK
6
CONTINUOUS
10
5.32443
20
-4.43557
11
5.32273
21
-4.43301
0
LINE
8
BLACK
6
CONTINUOUS
10
5.32273
20
-4.43301
11
5.32213
21
-4.43
0
LINE
8
BLACK
6
CONTINUOUS
10
5.32213
20
-4.43
11
5.32213
21
-4.37
0
LINE
8
BLACK
6
CONTINUOUS
10
5.32213
20
-4.37
11
5.32273
21
-4.36699
0
LINE
8
BLACK
6
CONTINUOUS
10
5.32273
20
-4.36699
11
5.32443
21
-4.36443
0
LINE
8
BLACK
6
CONTINUOUS
10
5.32443
20
-4.36443
11
5.32699
21
-4.36273
0
LINE
8
BLACK
6
CONTINUOUS
10
5.32699
20
-4.36273
11
5.33
21
-4.36213
0
LINE
8
BLACK
6
CONTINUOUS
10
5.33
20
-4.36213
11
5.39
21
-4.36213
0
LINE
8
BLACK
6
CONTINUOUS
10
5.39
20
-4.36213
11
5.39301
21
-4.36273
0
LINE
8
BLACK
6
CONTINUOUS
10
5.49301
20
-4.36273
11
5.49557
21
-4.36443
0
LINE
8
BLACK
6
CONTINUOUS
10
5.49557
20
-4.36443
11
5.49727
21
-4.36699
0
LINE
8
BLACK
6
CONTINUOUS
10
5.49727
20
-4.36699
11
5.49787
21
-4.37
0
LINE
8
BLACK
6
CONTINUOUS
10
5.49787
20
-4.37
11
5.49787
21
-4.43
0
LINE
8
BLACK
6
CONTINUOUS
10
5.49787
20
-4.43
11
5.49727
21
-4.43301
0
LINE
8
BLACK
6
CONTINUOUS
10
5.49727
20
-4.43301
11
5.49557
21
-4.43557
0
LINE
8
BLACK
6
CONTINUOUS
10
5.49557
20
-4.43557
11
5.49301
21
-4.43727
0
LINE
8
BLACK
6
CONTINUOUS
10
5.49301
20
-4.43727
11
5.49
21
-4.43787
0
LINE
8
BLACK
6
CONTINUOUS
10
5.49
20
-4.43787
11
5.43
21
-4.43787
0
LINE
8
BLACK
6
CONTINUOUS
10
5.43
20
-4.43787
11
5.42699
21
-4.43727
0
LINE
8
BLACK
6
CONTINUOUS
10
5.42699
20
-4.43727
11
5.42443
21
-4.43557
0
LINE
8
BLACK
6
CONTINUOUS
10
5.42443
20
-4.43557
11
5.42273
21
-4.43301
0
LINE
8
BLACK
6
CONTINUOUS
10
5.42273
20
-4.43301
11
5.42213
21
-4.43
0
LINE
8
BLACK
6
CONTINUOUS
10
5.42213
20
-4.43
11
5.42213
21
-4.37
0
LINE
8
BLACK
6
CONTINUOUS
10
5.42213
20
-4.37
11
5.42273
21
-4.36699
0
LINE
8
BLACK
6
CONTINUOUS
10
5.42273
20
-4.36699
11
5.42443
21
-4.36443
0
LINE
8
BLACK
6
CONTINUOUS
10
5.42443
20
-4.36443
11
5.42699
21
-4.36273
0
LINE
8
BLACK
6
CONTINUOUS
10
5.42699
20
-4.36273
11
5.43
21
-4.36213
0
LINE
8
BLACK
6
CONTINUOUS
10
5.43
20
-4.36213
11
5.49
21
-4.36213
0
LINE
8
BLACK
6
CONTINUOUS
10
5.49
20
-4.36213
11
5.49301
21
-4.36273
0
LINE
8
BLACK
6
CONTINUOUS
10
5.59301
20
-4.36273
11
5.59557
21
-4.36443
0
LINE
8
BLACK
6
CONTINUOUS
10
5.59557
20
-4.36443
11
5.59727
21
-4.36699
0
LINE
8
BLACK
6
CONTINUOUS
10
5.59727
20
-4.36699
11
5.59787
21
-4.37
0
LINE
8
BLACK
6
CONTINUOUS
10
5.59787
20
-4.37
11
5.59787
21
-4.43
0
LINE
8
BLACK
6
CONTINUOUS
10
5.59787
20
-4.43
11
5.59727
21
-4.43301
0
LINE
8
BLACK
6
CONTINUOUS
10
5.59727
20
-4.43301
11
5.59557
21
-4.43557
0
LINE
8
BLACK
6
CONTINUOUS
10
5.59557
20
-4.43557
11
5.59301
21
-4.43727
0
LINE
8
BLACK
6
CONTINUOUS
10
5.59301
20
-4.43727
11
5.59
21
-4.43787
0
LINE
8
BLACK
6
CONTINUOUS
10
5.59
20
-4.43787
11
5.53
21
-4.43787
0
LINE
8
BLACK
6
CONTINUOUS
10
5.53
20
-4.43787
11
5.52699
21
-4.43727
0
LINE
8
BLACK
6
CONTINUOUS
10
5.52699
20
-4.43727
11
5.52443
21
-4.43557
0
LINE
8
BLACK
6
CONTINUOUS
10
5.52443
20
-4.43557
11
5.52273
21
-4.43301
0
LINE
8
BLACK
6
CONTINUOUS
10
5.52273
20
-4.43301
11
5.52213
21
-4.43
0
LINE
8
BLACK
6
CONTINUOUS
10
5.52213
20
-4.43
11
5.52213
21
-4.37
0
LINE
8
BLACK
6
CONTINUOUS
10
5.52213
20
-4.37
11
5.52273
21
-4.36699
0
LINE
8
BLACK
6
CONTINUOUS
10
5.52273
20
-4.36699
11
5.52443
21
-4.36443
0
LINE
8
BLACK
6
CONTINUOUS
10
5.52443
20
-4.36443
11
5.52699
21
-4.36273
0
LINE
8
BLACK
6
CONTINUOUS
10
5.52699
20
-4.36273
11
5.53
21
-4.36213
0
LINE
8
BLACK
6
CONTINUOUS
10
5.53
20
-4.36213
11
5.59
21
-4.36213
0
LINE
8
BLACK
6
CONTINUOUS
10
5.59
20
-4.36213
11
5.59301
21
-4.36273
0
LINE
8
BLACK
6
CONTINUOUS
10
5.3006
20
-4.28621
11
5.30559
21
-4.28796
0
LINE
8
BLACK
6
CONTINUOUS
10
5.30559
20
-4.28796
11
5.30983
21
-4.29109
0
LINE
8
BLACK
6
CONTINUOUS
10
5.30983
20
-4.29109
11
5.31297
21
-4.29534
0
LINE
8
BLACK
6
CONTINUOUS
10
5.31297
20
-4.29534
11
5.31471
21
-4.30033
0
LINE
8
BLACK
6
CONTINUOUS
10
5.31471
20
-4.30033
11
5.31502
21
-4.30362
0
LINE
8
BLACK
6
CONTINUOUS
10
5.31502
20
-4.30362
11
5.31502
21
-4.32331
0
LINE
8
BLACK
6
CONTINUOUS
10
5.31502
20
-4.32331
11
5.31471
21
-4.3266
0
LINE
8
BLACK
6
CONTINUOUS
10
5.31471
20
-4.3266
11
5.31297
21
-4.33159
0
LINE
8
BLACK
6
CONTINUOUS
10
5.31297
20
-4.33159
11
5.30983
21
-4.33583
0
LINE
8
BLACK
6
CONTINUOUS
10
5.30983
20
-4.33583
11
5.30559
21
-4.33897
0
LINE
8
BLACK
6
CONTINUOUS
10
5.30559
20
-4.33897
11
5.3006
21
-4.34071
0
LINE
8
BLACK
6
CONTINUOUS
10
5.3006
20
-4.34071
11
5.29731
21
-4.34102
0
LINE
8
BLACK
6
CONTINUOUS
10
5.29731
20
-4.34102
11
5.25991
21
-4.34102
0
LINE
8
BLACK
6
CONTINUOUS
10
5.25991
20
-4.34102
11
5.25661
21
-4.34071
0
LINE
8
BLACK
6
CONTINUOUS
10
5.25661
20
-4.34071
11
5.25163
21
-4.33897
0
LINE
8
BLACK
6
CONTINUOUS
10
5.25163
20
-4.33897
11
5.24738
21
-4.33583
0
LINE
8
BLACK
6
CONTINUOUS
10
5.24738
20
-4.33583
11
5.24424
21
-4.33159
0
LINE
8
BLACK
6
CONTINUOUS
10
5.24424
20
-4.33159
11
5.2425
21
-4.3266
0
LINE
8
BLACK
6
CONTINUOUS
10
5.2425
20
-4.3266
11
5.24219
21
-4.32331
0
LINE
8
BLACK
6
CONTINUOUS
10
5.24219
20
-4.32331
11
5.24219
21
-4.30362
0
LINE
8
BLACK
6
CONTINUOUS
10
5.24219
20
-4.30362
11
5.2425
21
-4.30033
0
LINE
8
BLACK
6
CONTINUOUS
10
5.2425
20
-4.30033
11
5.24424
21
-4.29534
0
LINE
8
BLACK
6
CONTINUOUS
10
5.24424
20
-4.29534
11
5.24738
21
-4.29109
0
LINE
8
BLACK
6
CONTINUOUS
10
5.24738
20
-4.29109
11
5.25163
21
-4.28796
0
LINE
8
BLACK
6
CONTINUOUS
10
5.25163
20
-4.28796
11
5.25661
21
-4.28621
0
LINE
8
BLACK
6
CONTINUOUS
10
5.25661
20
-4.28621
11
5.25991
21
-4.28591
0
LINE
8
BLACK
6
CONTINUOUS
10
5.25991
20
-4.28591
11
5.29731
21
-4.28591
0
LINE
8
BLACK
6
CONTINUOUS
10
5.29731
20
-4.28591
11
5.3006
21
-4.28621
0
LINE
8
BLACK
6
CONTINUOUS
10
5.40199
20
-4.28621
11
5.40698
21
-4.28796
0
LINE
8
BLACK
6
CONTINUOUS
10
5.40698
20
-4.28796
11
5.41123
21
-4.29109
0
LINE
8
BLACK
6
CONTINUOUS
10
5.41123
20
-4.29109
11
5.41436
21
-4.29534
0
LINE
8
BLACK
6
CONTINUOUS
10
5.41436
20
-4.29534
11
5.41611
21
-4.30033
0
LINE
8
BLACK
6
CONTINUOUS
10
5.41611
20
-4.30033
11
5.41642
21
-4.30362
0
LINE
8
BLACK
6
CONTINUOUS
10
5.41642
20
-4.30362
11
5.41642
21
-4.32331
0
LINE
8
BLACK
6
CONTINUOUS
10
5.41642
20
-4.32331
11
5.41611
21
-4.3266
0
LINE
8
BLACK
6
CONTINUOUS
10
5.41611
20
-4.3266
11
5.41436
21
-4.33159
0
LINE
8
BLACK
6
CONTINUOUS
10
5.41436
20
-4.33159
11
5.41123
21
-4.33583
0
LINE
8
BLACK
6
CONTINUOUS
10
5.41123
20
-4.33583
11
5.40698
21
-4.33897
0
LINE
8
BLACK
6
CONTINUOUS
10
5.40698
20
-4.33897
11
5.40199
21
-4.34071
0
LINE
8
BLACK
6
CONTINUOUS
10
5.40199
20
-4.34071
11
5.3987
21
-4.34102
0
LINE
8
BLACK
6
CONTINUOUS
10
5.3987
20
-4.34102
11
5.3613
21
-4.34102
0
LINE
8
BLACK
6
CONTINUOUS
10
5.3613
20
-4.34102
11
5.35801
21
-4.34071
0
LINE
8
BLACK
6
CONTINUOUS
10
5.35801
20
-4.34071
11
5.35302
21
-4.33897
0
LINE
8
BLACK
6
CONTINUOUS
10
5.35302
20
-4.33897
11
5.34877
21
-4.33583
0
LINE
8
BLACK
6
CONTINUOUS
10
5.34877
20
-4.33583
11
5.34564
21
-4.33159
0
LINE
8
BLACK
6
CONTINUOUS
10
5.34564
20
-4.33159
11
5.34389
21
-4.3266
0
LINE
8
BLACK
6
CONTINUOUS
10
5.34389
20
-4.3266
11
5.34358
21
-4.32331
0
LINE
8
BLACK
6
CONTINUOUS
10
5.34358
20
-4.32331
11
5.34358
21
-4.30362
0
LINE
8
BLACK
6
CONTINUOUS
10
5.34358
20
-4.30362
11
5.34389
21
-4.30033
0
LINE
8
BLACK
6
CONTINUOUS
10
5.34389
20
-4.30033
11
5.34564
21
-4.29534
0
LINE
8
BLACK
6
CONTINUOUS
10
5.34564
20
-4.29534
11
5.34877
21
-4.29109
0
LINE
8
BLACK
6
CONTINUOUS
10
5.34877
20
-4.29109
11
5.35302
21
-4.28796
0
LINE
8
BLACK
6
CONTINUOUS
10
5.35302
20
-4.28796
11
5.35801
21
-4.28621
0
LINE
8
BLACK
6
CONTINUOUS
10
5.35801
20
-4.28621
11
5.3613
21
-4.28591
0
LINE
8
BLACK
6
CONTINUOUS
10
5.3613
20
-4.28591
11
5.3987
21
-4.28591
0
LINE
8
BLACK
6
CONTINUOUS
10
5.3987
20
-4.28591
11
5.40199
21
-4.28621
0
LINE
8
BLACK
6
CONTINUOUS
10
5.05701
20
-4.27117
11
5.05956
21
-4.27287
0
LINE
8
BLACK
6
CONTINUOUS
10
5.05956
20
-4.27287
11
5.06127
21
-4.27543
0
LINE
8
BLACK
6
CONTINUOUS
10
5.06127
20
-4.27543
11
5.06187
21
-4.27844
0
LINE
8
BLACK
6
CONTINUOUS
10
5.06187
20
-4.27844
11
5.06187
21
-4.32175
0
LINE
8
BLACK
6
CONTINUOUS
10
5.06187
20
-4.32175
11
5.06127
21
-4.32476
0
LINE
8
BLACK
6
CONTINUOUS
10
5.06127
20
-4.32476
11
5.05956
21
-4.32732
0
LINE
8
BLACK
6
CONTINUOUS
10
5.05956
20
-4.32732
11
5.05701
21
-4.32902
0
LINE
8
BLACK
6
CONTINUOUS
10
5.05701
20
-4.32902
11
5.05399
21
-4.32962
0
LINE
8
BLACK
6
CONTINUOUS
10
5.05399
20
-4.32962
11
5.03037
21
-4.32962
0
LINE
8
BLACK
6
CONTINUOUS
10
5.03037
20
-4.32962
11
5.02736
21
-4.32902
0
LINE
8
BLACK
6
CONTINUOUS
10
5.02736
20
-4.32902
11
5.0248
21
-4.32732
0
LINE
8
BLACK
6
CONTINUOUS
10
5.0248
20
-4.32732
11
5.0231
21
-4.32476
0
LINE
8
BLACK
6
CONTINUOUS
10
5.0231
20
-4.32476
11
5.0225
21
-4.32175
0
LINE
8
BLACK
6
CONTINUOUS
10
5.0225
20
-4.32175
11
5.0225
21
-4.27844
0
LINE
8
BLACK
6
CONTINUOUS
10
5.0225
20
-4.27844
11
5.0231
21
-4.27543
0
LINE
8
BLACK
6
CONTINUOUS
10
5.0231
20
-4.27543
11
5.0248
21
-4.27287
0
LINE
8
BLACK
6
CONTINUOUS
10
5.0248
20
-4.27287
11
5.02736
21
-4.27117
0
LINE
8
BLACK
6
CONTINUOUS
10
5.02736
20
-4.27117
11
5.03037
21
-4.27057
0
LINE
8
BLACK
6
CONTINUOUS
10
5.03037
20
-4.27057
11
5.05399
21
-4.27057
0
LINE
8
BLACK
6
CONTINUOUS
10
5.05399
20
-4.27057
11
5.05701
21
-4.27117
0
LINE
8
BLACK
6
CONTINUOUS
10
5.10622
20
-4.27117
11
5.10877
21
-4.27287
0
LINE
8
BLACK
6
CONTINUOUS
10
5.10877
20
-4.27287
11
5.11048
21
-4.27543
0
LINE
8
BLACK
6
CONTINUOUS
10
5.11048
20
-4.27543
11
5.11108
21
-4.27844
0
LINE
8
BLACK
6
CONTINUOUS
10
5.11108
20
-4.27844
11
5.11108
21
-4.32175
0
LINE
8
BLACK
6
CONTINUOUS
10
5.11108
20
-4.32175
11
5.11048
21
-4.32476
0
LINE
8
BLACK
6
CONTINUOUS
10
5.11048
20
-4.32476
11
5.10877
21
-4.32732
0
LINE
8
BLACK
6
CONTINUOUS
10
5.10877
20
-4.32732
11
5.10622
21
-4.32902
0
LINE
8
BLACK
6
CONTINUOUS
10
5.10622
20
-4.32902
11
5.1032
21
-4.32962
0
LINE
8
BLACK
6
CONTINUOUS
10
5.1032
20
-4.32962
11
5.07958
21
-4.32962
0
LINE
8
BLACK
6
CONTINUOUS
10
5.07958
20
-4.32962
11
5.07657
21
-4.32902
0
LINE
8
BLACK
6
CONTINUOUS
10
5.07657
20
-4.32902
11
5.07401
21
-4.32732
0
LINE
8
BLACK
6
CONTINUOUS
10
5.07401
20
-4.32732
11
5.07231
21
-4.32476
0
LINE
8
BLACK
6
CONTINUOUS
10
5.07231
20
-4.32476
11
5.07171
21
-4.32175
0
LINE
8
BLACK
6
CONTINUOUS
10
5.07171
20
-4.32175
11
5.07171
21
-4.27844
0
LINE
8
BLACK
6
CONTINUOUS
10
5.07171
20
-4.27844
11
5.07231
21
-4.27543
0
LINE
8
BLACK
6
CONTINUOUS
10
5.07231
20
-4.27543
11
5.07401
21
-4.27287
0
LINE
8
BLACK
6
CONTINUOUS
10
5.07401
20
-4.27287
11
5.07657
21
-4.27117
0
LINE
8
BLACK
6
CONTINUOUS
10
5.07657
20
-4.27117
11
5.07958
21
-4.27057
0
LINE
8
BLACK
6
CONTINUOUS
10
5.07958
20
-4.27057
11
5.1032
21
-4.27057
0
LINE
8
BLACK
6
CONTINUOUS
10
5.1032
20
-4.27057
11
5.10622
21
-4.27117
0
LINE
8
BLACK
6
CONTINUOUS
10
5.15543
20
-4.27117
11
5.15799
21
-4.27287
0
LINE
8
BLACK
6
CONTINUOUS
10
5.15799
20
-4.27287
11
5.15969
21
-4.27543
0
LINE
8
BLACK
6
CONTINUOUS
10
5.15969
20
-4.27543
11
5.16029
21
-4.27844
0
LINE
8
BLACK
6
CONTINUOUS
10
5.16029
20
-4.27844
11
5.16029
21
-4.32175
0
LINE
8
BLACK
6
CONTINUOUS
10
5.16029
20
-4.32175
11
5.15969
21
-4.32476
0
LINE
8
BLACK
6
CONTINUOUS
10
5.15969
20
-4.32476
11
5.15799
21
-4.32732
0
LINE
8
BLACK
6
CONTINUOUS
10
5.15799
20
-4.32732
11
5.15543
21
-4.32902
0
LINE
8
BLACK
6
CONTINUOUS
10
5.15543
20
-4.32902
11
5.15242
21
-4.32962
0
LINE
8
BLACK
6
CONTINUOUS
10
5.15242
20
-4.32962
11
5.1288
21
-4.32962
0
LINE
8
BLACK
6
CONTINUOUS
10
5.1288
20
-4.32962
11
5.12578
21
-4.32902
0
LINE
8
BLACK
6
CONTINUOUS
10
5.12578
20
-4.32902
11
5.12323
21
-4.32732
0
LINE
8
BLACK
6
CONTINUOUS
10
5.12323
20
-4.32732
11
5.12152
21
-4.32476
0
LINE
8
BLACK
6
CONTINUOUS
10
5.12152
20
-4.32476
11
5.12092
21
-4.32175
0
LINE
8
BLACK
6
CONTINUOUS
10
5.12092
20
-4.32175
11
5.12092
21
-4.27844
0
LINE
8
BLACK
6
CONTINUOUS
10
5.12092
20
-4.27844
11
5.12152
21
-4.27543
0
LINE
8
BLACK
6
CONTINUOUS
10
5.12152
20
-4.27543
11
5.12323
21
-4.27287
0
LINE
8
BLACK
6
CONTINUOUS
10
5.12323
20
-4.27287
11
5.12578
21
-4.27117
0
LINE
8
BLACK
6
CONTINUOUS
10
5.12578
20
-4.27117
11
5.1288
21
-4.27057
0
LINE
8
BLACK
6
CONTINUOUS
10
5.1288
20
-4.27057
11
5.15242
21
-4.27057
0
LINE
8
BLACK
6
CONTINUOUS
10
5.15242
20
-4.27057
11
5.15543
21
-4.27117
0
LINE
8
BLACK
6
CONTINUOUS
10
5.20464
20
-4.27117
11
5.2072
21
-4.27287
0
LINE
8
BLACK
6
CONTINUOUS
10
5.2072
20
-4.27287
11
5.2089
21
-4.27543
0
LINE
8
BLACK
6
CONTINUOUS
10
5.2089
20
-4.27543
11
5.2095
21
-4.27844
0
LINE
8
BLACK
6
CONTINUOUS
10
5.2095
20
-4.27844
11
5.2095
21
-4.32175
0
LINE
8
BLACK
6
CONTINUOUS
10
5.2095
20
-4.32175
11
5.2089
21
-4.32476
0
LINE
8
BLACK
6
CONTINUOUS
10
5.2089
20
-4.32476
11
5.2072
21
-4.32732
0
LINE
8
BLACK
6
CONTINUOUS
10
5.2072
20
-4.32732
11
5.20464
21
-4.32902
0
LINE
8
BLACK
6
CONTINUOUS
10
5.20464
20
-4.32902
11
5.20163
21
-4.32962
0
LINE
8
BLACK
6
CONTINUOUS
10
5.20163
20
-4.32962
11
5.17801
21
-4.32962
0
LINE
8
BLACK
6
CONTINUOUS
10
5.17801
20
-4.32962
11
5.17499
21
-4.32902
0
LINE
8
BLACK
6
CONTINUOUS
10
5.17499
20
-4.32902
11
5.17244
21
-4.32732
0
LINE
8
BLACK
6
CONTINUOUS
10
5.17244
20
-4.32732
11
5.17073
21
-4.32476
0
LINE
8
BLACK
6
CONTINUOUS
10
5.17073
20
-4.32476
11
5.17013
21
-4.32175
0
LINE
8
BLACK
6
CONTINUOUS
10
5.17013
20
-4.32175
11
5.17013
21
-4.27844
0
LINE
8
BLACK
6
CONTINUOUS
10
5.17013
20
-4.27844
11
5.17073
21
-4.27543
0
LINE
8
BLACK
6
CONTINUOUS
10
5.17073
20
-4.27543
11
5.17244
21
-4.27287
0
LINE
8
BLACK
6
CONTINUOUS
10
5.17244
20
-4.27287
11
5.17499
21
-4.27117
0
LINE
8
BLACK
6
CONTINUOUS
10
5.17499
20
-4.27117
11
5.17801
21
-4.27057
0
LINE
8
BLACK
6
CONTINUOUS
10
5.17801
20
-4.27057
11
5.20163
21
-4.27057
0
LINE
8
BLACK
6
CONTINUOUS
10
5.20163
20
-4.27057
11
5.20464
21
-4.27117
0
LINE
8
BLACK
6
CONTINUOUS
10
5.47967
20
-4.24078
11
5.48466
21
-4.24253
0
LINE
8
BLACK
6
CONTINUOUS
10
5.48466
20
-4.24253
11
5.48891
21
-4.24566
0
LINE
8
BLACK
6
CONTINUOUS
10
5.48891
20
-4.24566
11
5.49204
21
-4.24991
0
LINE
8
BLACK
6
CONTINUOUS
10
5.49204
20
-4.24991
11
5.49379
21
-4.2549
0
LINE
8
BLACK
6
CONTINUOUS
10
5.49379
20
-4.2549
11
5.49409
21
-4.25819
0
LINE
8
BLACK
6
CONTINUOUS
10
5.49409
20
-4.25819
11
5.49409
21
-4.28181
0
LINE
8
BLACK
6
CONTINUOUS
10
5.49409
20
-4.28181
11
5.49379
21
-4.2851
0
LINE
8
BLACK
6
CONTINUOUS
10
5.49379
20
-4.2851
11
5.49204
21
-4.29009
0
LINE
8
BLACK
6
CONTINUOUS
10
5.49204
20
-4.29009
11
5.48891
21
-4.29434
0
LINE
8
BLACK
6
CONTINUOUS
10
5.48891
20
-4.29434
11
5.48466
21
-4.29747
0
LINE
8
BLACK
6
CONTINUOUS
10
5.48466
20
-4.29747
11
5.47967
21
-4.29922
0
LINE
8
BLACK
6
CONTINUOUS
10
5.47967
20
-4.29922
11
5.47638
21
-4.29953
0
LINE
8
BLACK
6
CONTINUOUS
10
5.47638
20
-4.29953
11
5.45276
21
-4.29953
0
LINE
8
BLACK
6
CONTINUOUS
10
5.45276
20
-4.29953
11
5.44946
21
-4.29922
0
LINE
8
BLACK
6
CONTINUOUS
10
5.44946
20
-4.29922
11
5.44448
21
-4.29747
0
LINE
8
BLACK
6
CONTINUOUS
10
5.44448
20
-4.29747
11
5.44023
21
-4.29434
0
LINE
8
BLACK
6
CONTINUOUS
10
5.44023
20
-4.29434
11
5.43709
21
-4.29009
0
LINE
8
BLACK
6
CONTINUOUS
10
5.43709
20
-4.29009
11
5.43535
21
-4.2851
0
LINE
8
BLACK
6
CONTINUOUS
10
5.43535
20
-4.2851
11
5.43504
21
-4.28181
0
LINE
8
BLACK
6
CONTINUOUS
10
5.43504
20
-4.28181
11
5.43504
21
-4.25819
0
LINE
8
BLACK
6
CONTINUOUS
10
5.43504
20
-4.25819
11
5.43535
21
-4.2549
0
LINE
8
BLACK
6
CONTINUOUS
10
5.43535
20
-4.2549
11
5.43709
21
-4.24991
0
LINE
8
BLACK
6
CONTINUOUS
10
5.43709
20
-4.24991
11
5.44023
21
-4.24566
0
LINE
8
BLACK
6
CONTINUOUS
10
5.44023
20
-4.24566
11
5.44448
21
-4.24253
0
LINE
8
BLACK
6
CONTINUOUS
10
5.44448
20
-4.24253
11
5.44946
21
-4.24078
0
LINE
8
BLACK
6
CONTINUOUS
10
5.44946
20
-4.24078
11
5.45276
21
-4.24047
0
LINE
8
BLACK
6
CONTINUOUS
10
5.45276
20
-4.24047
11
5.47638
21
-4.24047
0
LINE
8
BLACK
6
CONTINUOUS
10
5.47638
20
-4.24047
11
5.47967
21
-4.24078
0
LINE
8
BLACK
6
CONTINUOUS
10
5.58991
20
-4.24078
11
5.59489
21
-4.24253
0
LINE
8
BLACK
6
CONTINUOUS
10
5.59489
20
-4.24253
11
5.59914
21
-4.24566
0
LINE
8
BLACK
6
CONTINUOUS
10
5.59914
20
-4.24566
11
5.60228
21
-4.24991
0
LINE
8
BLACK
6
CONTINUOUS
10
5.60228
20
-4.24991
11
5.60402
21
-4.2549
0
LINE
8
BLACK
6
CONTINUOUS
10
5.60402
20
-4.2549
11
5.60433
21
-4.25819
0
LINE
8
BLACK
6
CONTINUOUS
10
5.60433
20
-4.25819
11
5.60433
21
-4.28181
0
LINE
8
BLACK
6
CONTINUOUS
10
5.60433
20
-4.28181
11
5.60402
21
-4.2851
0
LINE
8
BLACK
6
CONTINUOUS
10
5.60402
20
-4.2851
11
5.60228
21
-4.29009
0
LINE
8
BLACK
6
CONTINUOUS
10
5.60228
20
-4.29009
11
5.59914
21
-4.29434
0
LINE
8
BLACK
6
CONTINUOUS
10
5.59914
20
-4.29434
11
5.59489
21
-4.29747
0
LINE
8
BLACK
6
CONTINUOUS
10
5.59489
20
-4.29747
11
5.58991
21
-4.29922
0
LINE
8
BLACK
6
CONTINUOUS
10
5.58991
20
-4.29922
11
5.58661
21
-4.29953
0
LINE
8
BLACK
6
CONTINUOUS
10
5.58661
20
-4.29953
11
5.56299
21
-4.29953
0
LINE
8
BLACK
6
CONTINUOUS
10
5.56299
20
-4.29953
11
5.5597
21
-4.29922
0
LINE
8
BLACK
6
CONTINUOUS
10
5.5597
20
-4.29922
11
5.55471
21
-4.29747
0
LINE
8
BLACK
6
CONTINUOUS
10
5.55471
20
-4.29747
11
5.55046
21
-4.29434
0
LINE
8
BLACK
6
CONTINUOUS
10
5.55046
20
-4.29434
11
5.54733
21
-4.29009
0
LINE
8
BLACK
6
CONTINUOUS
10
5.54733
20
-4.29009
11
5.54558
21
-4.2851
0
LINE
8
BLACK
6
CONTINUOUS
10
5.54558
20
-4.2851
11
5.54528
21
-4.28181
0
LINE
8
BLACK
6
CONTINUOUS
10
5.54528
20
-4.28181
11
5.54528
21
-4.25819
0
LINE
8
BLACK
6
CONTINUOUS
10
5.54528
20
-4.25819
11
5.54558
21
-4.2549
0
LINE
8
BLACK
6
CONTINUOUS
10
5.54558
20
-4.2549
11
5.54733
21
-4.24991
0
LINE
8
BLACK
6
CONTINUOUS
10
5.54733
20
-4.24991
11
5.55046
21
-4.24566
0
LINE
8
BLACK
6
CONTINUOUS
10
5.55046
20
-4.24566
11
5.55471
21
-4.24253
0
LINE
8
BLACK
6
CONTINUOUS
10
5.55471
20
-4.24253
11
5.5597
21
-4.24078
0
LINE
8
BLACK
6
CONTINUOUS
10
5.5597
20
-4.24078
11
5.56299
21
-4.24047
0
LINE
8
BLACK
6
CONTINUOUS
10
5.56299
20
-4.24047
11
5.58661
21
-4.24047
0
LINE
8
BLACK
6
CONTINUOUS
10
5.58661
20
-4.24047
11
5.58991
21
-4.24078
0
LINE
8
BLACK
6
CONTINUOUS
10
4.94075
20
-4.21335
11
4.94814
21
-4.2156
0
LINE
8
BLACK
6
CONTINUOUS
10
4.94814
20
-4.2156
11
4.95494
21
-4.21923
0
LINE
8
BLACK
6
CONTINUOUS
10
4.95494
20
-4.21923
11
4.96091
21
-4.22413
0
LINE
8
BLACK
6
CONTINUOUS
10
4.96091
20
-4.22413
11
4.96581
21
-4.2301
0
LINE
8
BLACK
6
CONTINUOUS
10
4.96581
20
-4.2301
11
4.96944
21
-4.2369
0
LINE
8
BLACK
6
CONTINUOUS
10
4.96944
20
-4.2369
11
4.97168
21
-4.24429
0
LINE
8
BLACK
6
CONTINUOUS
10
4.97168
20
-4.24429
11
4.97244
21
-4.25197
0
LINE
8
BLACK
6
CONTINUOUS
10
4.97244
20
-4.25197
11
4.97168
21
-4.25965
0
LINE
8
BLACK
6
CONTINUOUS
10
4.97168
20
-4.25965
11
4.96944
21
-4.26703
0
LINE
8
BLACK
6
CONTINUOUS
10
4.96944
20
-4.26703
11
4.96581
21
-4.27384
0
LINE
8
BLACK
6
CONTINUOUS
10
4.96581
20
-4.27384
11
4.96091
21
-4.27981
0
LINE
8
BLACK
6
CONTINUOUS
10
4.96091
20
-4.27981
11
4.95494
21
-4.2847
0
LINE
8
BLACK
6
CONTINUOUS
10
4.95494
20
-4.2847
11
4.94814
21
-4.28834
0
LINE
8
BLACK
6
CONTINUOUS
10
4.94814
20
-4.28834
11
4.94075
21
-4.29058
0
LINE
8
BLACK
6
CONTINUOUS
10
4.94075
20
-4.29058
11
4.93307
21
-4.29134
0
LINE
8
BLACK
6
CONTINUOUS
10
4.93307
20
-4.29134
11
4.92539
21
-4.29058
0
LINE
8
BLACK
6
CONTINUOUS
10
4.92539
20
-4.29058
11
4.918
21
-4.28834
0
LINE
8
BLACK
6
CONTINUOUS
10
4.918
20
-4.28834
11
4.9112
21
-4.2847
0
LINE
8
BLACK
6
CONTINUOUS
10
4.9112
20
-4.2847
11
4.90523
21
-4.27981
0
LINE
8
BLACK
6
CONTINUOUS
10
4.90523
20
-4.27981
11
4.90034
21
-4.27384
0
LINE
8
BLACK
6
CONTINUOUS
10
4.90034
20
-4.27384
11
4.8967
21
-4.26703
0
LINE
8
BLACK
6
CONTINUOUS
10
4.8967
20
-4.26703
11
4.89446
21
-4.25965
0
LINE
8
BLACK
6
CONTINUOUS
10
4.89446
20
-4.25965
11
4.8937
21
-4.25197
0
LINE
8
BLACK
6
CONTINUOUS
10
4.8937
20
-4.25197
11
4.89446
21
-4.24429
0
LINE
8
BLACK
6
CONTINUOUS
10
4.89446
20
-4.24429
11
4.8967
21
-4.2369
0
LINE
8
BLACK
6
CONTINUOUS
10
4.8967
20
-4.2369
11
4.90034
21
-4.2301
0
LINE
8
BLACK
6
CONTINUOUS
10
4.90034
20
-4.2301
11
4.90523
21
-4.22413
0
LINE
8
BLACK
6
CONTINUOUS
10
4.90523
20
-4.22413
11
4.9112
21
-4.21923
0
LINE
8
BLACK
6
CONTINUOUS
10
4.9112
20
-4.21923
11
4.918
21
-4.2156
0
LINE
8
BLACK
6
CONTINUOUS
10
4.918
20
-4.2156
11
4.92539
21
-4.21335
0
LINE
8
BLACK
6
CONTINUOUS
10
4.92539
20
-4.21335
11
4.93307
21
-4.2126
0
LINE
8
BLACK
6
CONTINUOUS
10
4.93307
20
-4.2126
11
4.94075
21
-4.21335
0
LINE
8
BLACK
6
CONTINUOUS
10
5.3006
20
-4.21141
11
5.30559
21
-4.21316
0
LINE
8
BLACK
6
CONTINUOUS
10
5.30559
20
-4.21316
11
5.30983
21
-4.21629
0
LINE
8
BLACK
6
CONTINUOUS
10
5.30983
20
-4.21629
11
5.31297
21
-4.22054
0
LINE
8
BLACK
6
CONTINUOUS
10
5.31297
20
-4.22054
11
5.31471
21
-4.22553
0
LINE
8
BLACK
6
CONTINUOUS
10
5.31471
20
-4.22553
11
5.31502
21
-4.22882
0
LINE
8
BLACK
6
CONTINUOUS
10
5.31502
20
-4.22882
11
5.31502
21
-4.2485
0
LINE
8
BLACK
6
CONTINUOUS
10
5.31502
20
-4.2485
11
5.31471
21
-4.2518
0
LINE
8
BLACK
6
CONTINUOUS
10
5.31471
20
-4.2518
11
5.31297
21
-4.25678
0
LINE
8
BLACK
6
CONTINUOUS
10
5.31297
20
-4.25678
11
5.30983
21
-4.26103
0
LINE
8
BLACK
6
CONTINUOUS
10
5.30983
20
-4.26103
11
5.30559
21
-4.26417
0
LINE
8
BLACK
6
CONTINUOUS
10
5.30559
20
-4.26417
11
5.3006
21
-4.26591
0
LINE
8
BLACK
6
CONTINUOUS
10
5.3006
20
-4.26591
11
5.29731
21
-4.26622
0
LINE
8
BLACK
6
CONTINUOUS
10
5.29731
20
-4.26622
11
5.25991
21
-4.26622
0
LINE
8
BLACK
6
CONTINUOUS
10
5.25991
20
-4.26622
11
5.25661
21
-4.26591
0
LINE
8
BLACK
6
CONTINUOUS
10
5.25661
20
-4.26591
11
5.25163
21
-4.26417
0
LINE
8
BLACK
6
CONTINUOUS
10
5.25163
20
-4.26417
11
5.24738
21
-4.26103
0
LINE
8
BLACK
6
CONTINUOUS
10
5.24738
20
-4.26103
11
5.24424
21
-4.25678
0
LINE
8
BLACK
6
CONTINUOUS
10
5.24424
20
-4.25678
11
5.2425
21
-4.2518
0
LINE
8
BLACK
6
CONTINUOUS
10
5.2425
20
-4.2518
11
5.24219
21
-4.2485
0
LINE
8
BLACK
6
CONTINUOUS
10
5.24219
20
-4.2485
11
5.24219
21
-4.22882
0
LINE
8
BLACK
6
CONTINUOUS
10
5.24219
20
-4.22882
11
5.2425
21
-4.22553
0
LINE
8
BLACK
6
CONTINUOUS
10
5.2425
20
-4.22553
11
5.24424
21
-4.22054
0
LINE
8
BLACK
6
CONTINUOUS
10
5.24424
20
-4.22054
11
5.24738
21
-4.21629
0
LINE
8
BLACK
6
CONTINUOUS
10
5.24738
20
-4.21629
11
5.25163
21
-4.21316
0
LINE
8
BLACK
6
CONTINUOUS
10
5.25163
20
-4.21316
11
5.25661
21
-4.21141
0
LINE
8
BLACK
6
CONTINUOUS
10
5.25661
20
-4.21141
11
5.25991
21
-4.2111
0
LINE
8
BLACK
6
CONTINUOUS
10
5.25991
20
-4.2111
11
5.29731
21
-4.2111
0
LINE
8
BLACK
6
CONTINUOUS
10
5.29731
20
-4.2111
11
5.3006
21
-4.21141
0
LINE
8
BLACK
6
CONTINUOUS
10
5.40199
20
-4.21141
11
5.40698
21
-4.21316
0
LINE
8
BLACK
6
CONTINUOUS
10
5.40698
20
-4.21316
11
5.41123
21
-4.21629
0
LINE
8
BLACK
6
CONTINUOUS
10
5.41123
20
-4.21629
11
5.41436
21
-4.22054
0
LINE
8
BLACK
6
CONTINUOUS
10
5.41436
20
-4.22054
11
5.41611
21
-4.22553
0
LINE
8
BLACK
6
CONTINUOUS
10
5.41611
20
-4.22553
11
5.41642
21
-4.22882
0
LINE
8
BLACK
6
CONTINUOUS
10
5.41642
20
-4.22882
11
5.41642
21
-4.2485
0
LINE
8
BLACK
6
CONTINUOUS
10
5.41642
20
-4.2485
11
5.41611
21
-4.2518
0
LINE
8
BLACK
6
CONTINUOUS
10
5.41611
20
-4.2518
11
5.41436
21
-4.25678
0
LINE
8
BLACK
6
CONTINUOUS
10
5.41436
20
-4.25678
11
5.41123
21
-4.26103
0
LINE
8
BLACK
6
CONTINUOUS
10
5.41123
20
-4.26103
11
5.40698
21
-4.26417
0
LINE
8
BLACK
6
CONTINUOUS
10
5.40698
20
-4.26417
11
5.40199
21
-4.26591
0
LINE
8
BLACK
6
CONTINUOUS
10
5.40199
20
-4.26591
11
5.3987
21
-4.26622
0
LINE
8
BLACK
6
CONTINUOUS
10
5.3987
20
-4.26622
11
5.3613
21
-4.26622
0
LINE
8
BLACK
6
CONTINUOUS
10
5.3613
20
-4.26622
11
5.35801
21
-4.26591
0
LINE
8
BLACK
6
CONTINUOUS
10
5.35801
20
-4.26591
11
5.35302
21
-4.26417
0
LINE
8
BLACK
6
CONTINUOUS
10
5.35302
20
-4.26417
11
5.34877
21
-4.26103
0
LINE
8
BLACK
6
CONTINUOUS
10
5.34877
20
-4.26103
11
5.34564
21
-4.25678
0
LINE
8
BLACK
6
CONTINUOUS
10
5.34564
20
-4.25678
11
5.34389
21
-4.2518
0
LINE
8
BLACK
6
CONTINUOUS
10
5.34389
20
-4.2518
11
5.34358
21
-4.2485
0
LINE
8
BLACK
6
CONTINUOUS
10
5.34358
20
-4.2485
11
5.34358
21
-4.22882
0
LINE
8
BLACK
6
CONTINUOUS
10
5.34358
20
-4.22882
11
5.34389
21
-4.22553
0
LINE
8
BLACK
6
CONTINUOUS
10
5.34389
20
-4.22553
11
5.34564
21
-4.22054
0
LINE
8
BLACK
6
CONTINUOUS
10
5.34564
20
-4.22054
11
5.34877
21
-4.21629
0
LINE
8
BLACK
6
CONTINUOUS
10
5.34877
20
-4.21629
11
5.35302
21
-4.21316
0
LINE
8
BLACK
6
CONTINUOUS
10
5.35302
20
-4.21316
11
5.35801
21
-4.21141
0
LINE
8
BLACK
6
CONTINUOUS
10
5.35801
20
-4.21141
11
5.3613
21
-4.2111
0
LINE
8
BLACK
6
CONTINUOUS
10
5.3613
20
-4.2111
11
5.3987
21
-4.2111
0
LINE
8
BLACK
6
CONTINUOUS
10
5.3987
20
-4.2111
11
5.40199
21
-4.21141
0
LINE
8
BLACK
6
CONTINUOUS
10
5.05701
20
-4.18455
11
5.05956
21
-4.18626
0
LINE
8
BLACK
6
CONTINUOUS
10
5.05956
20
-4.18626
11
5.06127
21
-4.18881
0
LINE
8
BLACK
6
CONTINUOUS
10
5.06127
20
-4.18881
11
5.06187
21
-4.19183
0
LINE
8
BLACK
6
CONTINUOUS
10
5.06187
20
-4.19183
11
5.06187
21
-4.23513
0
LINE
8
BLACK
6
CONTINUOUS
10
5.06187
20
-4.23513
11
5.06127
21
-4.23815
0
LINE
8
BLACK
6
CONTINUOUS
10
5.06127
20
-4.23815
11
5.05956
21
-4.2407
0
LINE
8
BLACK
6
CONTINUOUS
10
5.05956
20
-4.2407
11
5.05701
21
-4.24241
0
LINE
8
BLACK
6
CONTINUOUS
10
5.05701
20
-4.24241
11
5.05399
21
-4.24301
0
LINE
8
BLACK
6
CONTINUOUS
10
5.05399
20
-4.24301
11
5.03037
21
-4.24301
0
LINE
8
BLACK
6
CONTINUOUS
10
5.03037
20
-4.24301
11
5.02736
21
-4.24241
0
LINE
8
BLACK
6
CONTINUOUS
10
5.02736
20
-4.24241
11
5.0248
21
-4.2407
0
LINE
8
BLACK
6
CONTINUOUS
10
5.0248
20
-4.2407
11
5.0231
21
-4.23815
0
LINE
8
BLACK
6
CONTINUOUS
10
5.0231
20
-4.23815
11
5.0225
21
-4.23513
0
LINE
8
BLACK
6
CONTINUOUS
10
5.0225
20
-4.23513
11
5.0225
21
-4.19183
0
LINE
8
BLACK
6
CONTINUOUS
10
5.0225
20
-4.19183
11
5.0231
21
-4.18881
0
LINE
8
BLACK
6
CONTINUOUS
10
5.0231
20
-4.18881
11
5.0248
21
-4.18626
0
LINE
8
BLACK
6
CONTINUOUS
10
5.0248
20
-4.18626
11
5.02736
21
-4.18455
0
LINE
8
BLACK
6
CONTINUOUS
10
5.02736
20
-4.18455
11
5.03037
21
-4.18395
0
LINE
8
BLACK
6
CONTINUOUS
10
5.03037
20
-4.18395
11
5.05399
21
-4.18395
0
LINE
8
BLACK
6
CONTINUOUS
10
5.05399
20
-4.18395
11
5.05701
21
-4.18455
0
LINE
8
BLACK
6
CONTINUOUS
10
5.10622
20
-4.18455
11
5.10877
21
-4.18626
0
LINE
8
BLACK
6
CONTINUOUS
10
5.10877
20
-4.18626
11
5.11048
21
-4.18881
0
LINE
8
BLACK
6
CONTINUOUS
10
5.11048
20
-4.18881
11
5.11108
21
-4.19183
0
LINE
8
BLACK
6
CONTINUOUS
10
5.11108
20
-4.19183
11
5.11108
21
-4.23513
0
LINE
8
BLACK
6
CONTINUOUS
10
5.11108
20
-4.23513
11
5.11048
21
-4.23815
0
LINE
8
BLACK
6
CONTINUOUS
10
5.11048
20
-4.23815
11
5.10877
21
-4.2407
0
LINE
8
BLACK
6
CONTINUOUS
10
5.10877
20
-4.2407
11
5.10622
21
-4.24241
0
LINE
8
BLACK
6
CONTINUOUS
10
5.10622
20
-4.24241
11
5.1032
21
-4.24301
0
LINE
8
BLACK
6
CONTINUOUS
10
5.1032
20
-4.24301
11
5.07958
21
-4.24301
0
LINE
8
BLACK
6
CONTINUOUS
10
5.07958
20
-4.24301
11
5.07657
21
-4.24241
0
LINE
8
BLACK
6
CONTINUOUS
10
5.07657
20
-4.24241
11
5.07401
21
-4.2407
0
LINE
8
BLACK
6
CONTINUOUS
10
5.07401
20
-4.2407
11
5.07231
21
-4.23815
0
LINE
8
BLACK
6
CONTINUOUS
10
5.07231
20
-4.23815
11
5.07171
21
-4.23513
0
LINE
8
BLACK
6
CONTINUOUS
10
5.07171
20
-4.23513
11
5.07171
21
-4.19183
0
LINE
8
BLACK
6
CONTINUOUS
10
5.07171
20
-4.19183
11
5.07231
21
-4.18881
0
LINE
8
BLACK
6
CONTINUOUS
10
5.07231
20
-4.18881
11
5.07401
21
-4.18626
0
LINE
8
BLACK
6
CONTINUOUS
10
5.07401
20
-4.18626
11
5.07657
21
-4.18455
0
LINE
8
BLACK
6
CONTINUOUS
10
5.07657
20
-4.18455
11
5.07958
21
-4.18395
0
LINE
8
BLACK
6
CONTINUOUS
10
5.07958
20
-4.18395
11
5.1032
21
-4.18395
0
LINE
8
BLACK
6
CONTINUOUS
10
5.1032
20
-4.18395
11
5.10622
21
-4.18455
0
LINE
8
BLACK
6
CONTINUOUS
10
5.15543
20
-4.18455
11
5.15799
21
-4.18626
0
LINE
8
BLACK
6
CONTINUOUS
10
5.15799
20
-4.18626
11
5.15969
21
-4.18881
0
LINE
8
BLACK
6
CONTINUOUS
10
5.15969
20
-4.18881
11
5.16029
21
-4.19183
0
LINE
8
BLACK
6
CONTINUOUS
10
5.16029
20
-4.19183
11
5.16029
21
-4.23513
0
LINE
8
BLACK
6
CONTINUOUS
10
5.16029
20
-4.23513
11
5.15969
21
-4.23815
0
LINE
8
BLACK
6
CONTINUOUS
10
5.15969
20
-4.23815
11
5.15799
21
-4.2407
0
LINE
8
BLACK
6
CONTINUOUS
10
5.15799
20
-4.2407
11
5.15543
21
-4.24241
0
LINE
8
BLACK
6
CONTINUOUS
10
5.15543
20
-4.24241
11
5.15242
21
-4.24301
0
LINE
8
BLACK
6
CONTINUOUS
10
5.15242
20
-4.24301
11
5.1288
21
-4.24301
0
LINE
8
BLACK
6
CONTINUOUS
10
5.1288
20
-4.24301
11
5.12578
21
-4.24241
0
LINE
8
BLACK
6
CONTINUOUS
10
5.12578
20
-4.24241
11
5.12323
21
-4.2407
0
LINE
8
BLACK
6
CONTINUOUS
10
5.12323
20
-4.2407
11
5.12152
21
-4.23815
0
LINE
8
BLACK
6
CONTINUOUS
10
5.12152
20
-4.23815
11
5.12092
21
-4.23513
0
LINE
8
BLACK
6
CONTINUOUS
10
5.12092
20
-4.23513
11
5.12092
21
-4.19183
0
LINE
8
BLACK
6
CONTINUOUS
10
5.12092
20
-4.19183
11
5.12152
21
-4.18881
0
LINE
8
BLACK
6
CONTINUOUS
10
5.12152
20
-4.18881
11
5.12323
21
-4.18626
0
LINE
8
BLACK
6
CONTINUOUS
10
5.12323
20
-4.18626
11
5.12578
21
-4.18455
0
LINE
8
BLACK
6
CONTINUOUS
10
5.12578
20
-4.18455
11
5.1288
21
-4.18395
0
LINE
8
BLACK
6
CONTINUOUS
10
5.1288
20
-4.18395
11
5.15242
21
-4.18395
0
LINE
8
BLACK
6
CONTINUOUS
10
5.15242
20
-4.18395
11
5.15543
21
-4.18455
0
LINE
8
BLACK
6
CONTINUOUS
10
5.20464
20
-4.18455
11
5.2072
21
-4.18626
0
LINE
8
BLACK
6
CONTINUOUS
10
5.2072
20
-4.18626
11
5.2089
21
-4.18881
0
LINE
8
BLACK
6
CONTINUOUS
10
5.2089
20
-4.18881
11
5.2095
21
-4.19183
0
LINE
8
BLACK
6
CONTINUOUS
10
5.2095
20
-4.19183
11
5.2095
21
-4.23513
0
LINE
8
BLACK
6
CONTINUOUS
10
5.2095
20
-4.23513
11
5.2089
21
-4.23815
0
LINE
8
BLACK
6
CONTINUOUS
10
5.2089
20
-4.23815
11
5.2072
21
-4.2407
0
LINE
8
BLACK
6
CONTINUOUS
10
5.2072
20
-4.2407
11
5.20464
21
-4.24241
0
LINE
8
BLACK
6
CONTINUOUS
10
5.20464
20
-4.24241
11
5.20163
21
-4.24301
0
LINE
8
BLACK
6
CONTINUOUS
10
5.20163
20
-4.24301
11
5.17801
21
-4.24301
0
LINE
8
BLACK
6
CONTINUOUS
10
5.17801
20
-4.24301
11
5.17499
21
-4.24241
0
LINE
8
BLACK
6
CONTINUOUS
10
5.17499
20
-4.24241
11
5.17244
21
-4.2407
0
LINE
8
BLACK
6
CONTINUOUS
10
5.17244
20
-4.2407
11
5.17073
21
-4.23815
0
LINE
8
BLACK
6
CONTINUOUS
10
5.17073
20
-4.23815
11
5.17013
21
-4.23513
0
LINE
8
BLACK
6
CONTINUOUS
10
5.17013
20
-4.23513
11
5.17013
21
-4.19183
0
LINE
8
BLACK
6
CONTINUOUS
10
5.17013
20
-4.19183
11
5.17073
21
-4.18881
0
LINE
8
BLACK
6
CONTINUOUS
10
5.17073
20
-4.18881
11
5.17244
21
-4.18626
0
LINE
8
BLACK
6
CONTINUOUS
10
5.17244
20
-4.18626
11
5.17499
21
-4.18455
0
LINE
8
BLACK
6
CONTINUOUS
10
5.17499
20
-4.18455
11
5.17801
21
-4.18395
0
LINE
8
BLACK
6
CONTINUOUS
10
5.17801
20
-4.18395
11
5.20163
21
-4.18395
0
LINE
8
BLACK
6
CONTINUOUS
10
5.20163
20
-4.18395
11
5.20464
21
-4.18455
0
LINE
8
BLACK
6
CONTINUOUS
10
5.58248
20
-4.12674
11
5.58987
21
-4.12898
0
LINE
8
BLACK
6
CONTINUOUS
10
5.58987
20
-4.12898
11
5.59668
21
-4.13262
0
LINE
8
BLACK
6
CONTINUOUS
10
5.59668
20
-4.13262
11
5.60264
21
-4.13752
0
LINE
8
BLACK
6
CONTINUOUS
10
5.60264
20
-4.13752
11
5.60754
21
-4.14348
0
LINE
8
BLACK
6
CONTINUOUS
10
5.60754
20
-4.14348
11
5.61118
21
-4.15029
0
LINE
8
BLACK
6
CONTINUOUS
10
5.61118
20
-4.15029
11
5.61342
21
-4.15767
0
LINE
8
BLACK
6
CONTINUOUS
10
5.61342
20
-4.15767
11
5.61417
21
-4.16535
0
LINE
8
BLACK
6
CONTINUOUS
10
5.61417
20
-4.16535
11
5.61342
21
-4.17304
0
LINE
8
BLACK
6
CONTINUOUS
10
5.61342
20
-4.17304
11
5.61118
21
-4.18042
0
LINE
8
BLACK
6
CONTINUOUS
10
5.61118
20
-4.18042
11
5.60754
21
-4.18723
0
LINE
8
BLACK
6
CONTINUOUS
10
5.60754
20
-4.18723
11
5.60264
21
-4.19319
0
LINE
8
BLACK
6
CONTINUOUS
10
5.60264
20
-4.19319
11
5.59668
21
-4.19809
0
LINE
8
BLACK
6
CONTINUOUS
10
5.59668
20
-4.19809
11
5.58987
21
-4.20173
0
LINE
8
BLACK
6
CONTINUOUS
10
5.58987
20
-4.20173
11
5.58248
21
-4.20397
0
LINE
8
BLACK
6
CONTINUOUS
10
5.58248
20
-4.20397
11
5.5748
21
-4.20472
0
LINE
8
BLACK
6
CONTINUOUS
10
5.5748
20
-4.20472
11
5.56712
21
-4.20397
0
LINE
8
BLACK
6
CONTINUOUS
10
5.56712
20
-4.20397
11
5.55974
21
-4.20173
0
LINE
8
BLACK
6
CONTINUOUS
10
5.55974
20
-4.20173
11
5.55293
21
-4.19809
0
LINE
8
BLACK
6
CONTINUOUS
10
5.55293
20
-4.19809
11
5.54696
21
-4.19319
0
LINE
8
BLACK
6
CONTINUOUS
10
5.54696
20
-4.19319
11
5.54207
21
-4.18723
0
LINE
8
BLACK
6
CONTINUOUS
10
5.54207
20
-4.18723
11
5.53843
21
-4.18042
0
LINE
8
BLACK
6
CONTINUOUS
10
5.53843
20
-4.18042
11
5.53619
21
-4.17304
0
LINE
8
BLACK
6
CONTINUOUS
10
5.53619
20
-4.17304
11
5.53543
21
-4.16535
0
LINE
8
BLACK
6
CONTINUOUS
10
5.53543
20
-4.16535
11
5.53619
21
-4.15767
0
LINE
8
BLACK
6
CONTINUOUS
10
5.53619
20
-4.15767
11
5.53843
21
-4.15029
0
LINE
8
BLACK
6
CONTINUOUS
10
5.53843
20
-4.15029
11
5.54207
21
-4.14348
0
LINE
8
BLACK
6
CONTINUOUS
10
5.54207
20
-4.14348
11
5.54696
21
-4.13752
0
LINE
8
BLACK
6
CONTINUOUS
10
5.54696
20
-4.13752
11
5.55293
21
-4.13262
0
LINE
8
BLACK
6
CONTINUOUS
10
5.55293
20
-4.13262
11
5.55974
21
-4.12898
0
LINE
8
BLACK
6
CONTINUOUS
10
5.55974
20
-4.12898
11
5.56712
21
-4.12674
0
LINE
8
BLACK
6
CONTINUOUS
10
5.56712
20
-4.12674
11
5.5748
21
-4.12598
0
LINE
8
BLACK
6
CONTINUOUS
10
5.5748
20
-4.12598
11
5.58248
21
-4.12674
0
LINE
8
BLACK
6
CONTINUOUS
10
5.2677
20
-4.07118
11
5.27269
21
-4.07292
0
LINE
8
BLACK
6
CONTINUOUS
10
5.27269
20
-4.07292
11
5.27694
21
-4.07606
0
LINE
8
BLACK
6
CONTINUOUS
10
5.27694
20
-4.07606
11
5.28007
21
-4.0803
0
LINE
8
BLACK
6
CONTINUOUS
10
5.28007
20
-4.0803
11
5.28182
21
-4.08529
0
LINE
8
BLACK
6
CONTINUOUS
10
5.28182
20
-4.08529
11
5.28213
21
-4.08858
0
LINE
8
BLACK
6
CONTINUOUS
10
5.28213
20
-4.08858
11
5.28213
21
-4.12402
0
LINE
8
BLACK
6
CONTINUOUS
10
5.28213
20
-4.12402
11
5.28182
21
-4.12731
0
LINE
8
BLACK
6
CONTINUOUS
10
5.28182
20
-4.12731
11
5.28007
21
-4.13229
0
LINE
8
BLACK
6
CONTINUOUS
10
5.28007
20
-4.13229
11
5.27694
21
-4.13654
0
LINE
8
BLACK
6
CONTINUOUS
10
5.27694
20
-4.13654
11
5.27269
21
-4.13968
0
LINE
8
BLACK
6
CONTINUOUS
10
5.27269
20
-4.13968
11
5.2677
21
-4.14142
0
LINE
8
BLACK
6
CONTINUOUS
10
5.2677
20
-4.14142
11
5.26441
21
-4.14173
0
LINE
8
BLACK
6
CONTINUOUS
10
5.26441
20
-4.14173
11
5.24374
21
-4.14173
0
LINE
8
BLACK
6
CONTINUOUS
10
5.24374
20
-4.14173
11
5.24045
21
-4.14142
0
LINE
8
BLACK
6
CONTINUOUS
10
5.24045
20
-4.14142
11
5.23546
21
-4.13968
0
LINE
8
BLACK
6
CONTINUOUS
10
5.23546
20
-4.13968
11
5.23121
21
-4.13654
0
LINE
8
BLACK
6
CONTINUOUS
10
5.23121
20
-4.13654
11
5.22808
21
-4.13229
0
LINE
8
BLACK
6
CONTINUOUS
10
5.22808
20
-4.13229
11
5.22633
21
-4.12731
0
LINE
8
BLACK
6
CONTINUOUS
10
5.22633
20
-4.12731
11
5.22602
21
-4.12402
0
LINE
8
BLACK
6
CONTINUOUS
10
5.22602
20
-4.12402
11
5.22602
21
-4.08858
0
LINE
8
BLACK
6
CONTINUOUS
10
5.22602
20
-4.08858
11
5.22633
21
-4.08529
0
LINE
8
BLACK
6
CONTINUOUS
10
5.22633
20
-4.08529
11
5.22808
21
-4.0803
0
LINE
8
BLACK
6
CONTINUOUS
10
5.22808
20
-4.0803
11
5.23121
21
-4.07606
0
LINE
8
BLACK
6
CONTINUOUS
10
5.23121
20
-4.07606
11
5.23546
21
-4.07292
0
LINE
8
BLACK
6
CONTINUOUS
10
5.23546
20
-4.07292
11
5.24045
21
-4.07118
0
LINE
8
BLACK
6
CONTINUOUS
10
5.24045
20
-4.07118
11
5.24374
21
-4.07087
0
LINE
8
BLACK
6
CONTINUOUS
10
5.24374
20
-4.07087
11
5.26441
21
-4.07087
0
LINE
8
BLACK
6
CONTINUOUS
10
5.26441
20
-4.07087
11
5.2677
21
-4.07118
0
LINE
8
BLACK
6
CONTINUOUS
10
5.33955
20
-4.07118
11
5.34454
21
-4.07292
0
LINE
8
BLACK
6
CONTINUOUS
10
5.34454
20
-4.07292
11
5.34879
21
-4.07606
0
LINE
8
BLACK
6
CONTINUOUS
10
5.34879
20
-4.07606
11
5.35192
21
-4.0803
0
LINE
8
BLACK
6
CONTINUOUS
10
5.35192
20
-4.0803
11
5.35367
21
-4.08529
0
LINE
8
BLACK
6
CONTINUOUS
10
5.35367
20
-4.08529
11
5.35398
21
-4.08858
0
LINE
8
BLACK
6
CONTINUOUS
10
5.35398
20
-4.08858
11
5.35398
21
-4.12402
0
LINE
8
BLACK
6
CONTINUOUS
10
5.35398
20
-4.12402
11
5.35367
21
-4.12731
0
LINE
8
BLACK
6
CONTINUOUS
10
5.35367
20
-4.12731
11
5.35192
21
-4.13229
0
LINE
8
BLACK
6
CONTINUOUS
10
5.35192
20
-4.13229
11
5.34879
21
-4.13654
0
LINE
8
BLACK
6
CONTINUOUS
10
5.34879
20
-4.13654
11
5.34454
21
-4.13968
0
LINE
8
BLACK
6
CONTINUOUS
10
5.34454
20
-4.13968
11
5.33955
21
-4.14142
0
LINE
8
BLACK
6
CONTINUOUS
10
5.33955
20
-4.14142
11
5.33626
21
-4.14173
0
LINE
8
BLACK
6
CONTINUOUS
10
5.33626
20
-4.14173
11
5.31559
21
-4.14173
0
LINE
8
BLACK
6
CONTINUOUS
10
5.31559
20
-4.14173
11
5.3123
21
-4.14142
0
LINE
8
BLACK
6
CONTINUOUS
10
5.3123
20
-4.14142
11
5.30731
21
-4.13968
0
LINE
8
BLACK
6
CONTINUOUS
10
5.30731
20
-4.13968
11
5.30306
21
-4.13654
0
LINE
8
BLACK
6
CONTINUOUS
10
5.30306
20
-4.13654
11
5.29993
21
-4.13229
0
LINE
8
BLACK
6
CONTINUOUS
10
5.29993
20
-4.13229
11
5.29818
21
-4.12731
0
LINE
8
BLACK
6
CONTINUOUS
10
5.29818
20
-4.12731
11
5.29787
21
-4.12402
0
LINE
8
BLACK
6
CONTINUOUS
10
5.29787
20
-4.12402
11
5.29787
21
-4.08858
0
LINE
8
BLACK
6
CONTINUOUS
10
5.29787
20
-4.08858
11
5.29818
21
-4.08529
0
LINE
8
BLACK
6
CONTINUOUS
10
5.29818
20
-4.08529
11
5.29993
21
-4.0803
0
LINE
8
BLACK
6
CONTINUOUS
10
5.29993
20
-4.0803
11
5.30306
21
-4.07606
0
LINE
8
BLACK
6
CONTINUOUS
10
5.30306
20
-4.07606
11
5.30731
21
-4.07292
0
LINE
8
BLACK
6
CONTINUOUS
10
5.30731
20
-4.07292
11
5.3123
21
-4.07118
0
LINE
8
BLACK
6
CONTINUOUS
10
5.3123
20
-4.07118
11
5.31559
21
-4.07087
0
LINE
8
BLACK
6
CONTINUOUS
10
5.31559
20
-4.07087
11
5.33626
21
-4.07087
0
LINE
8
BLACK
6
CONTINUOUS
10
5.33626
20
-4.07087
11
5.33955
21
-4.07118
0
LINE
8
BLACK
6
CONTINUOUS
10
5.41914
20
-4.07118
11
5.42412
21
-4.07292
0
LINE
8
BLACK
6
CONTINUOUS
10
5.42412
20
-4.07292
11
5.42837
21
-4.07606
0
LINE
8
BLACK
6
CONTINUOUS
10
5.42837
20
-4.07606
11
5.43151
21
-4.0803
0
LINE
8
BLACK
6
CONTINUOUS
10
5.43151
20
-4.0803
11
5.43325
21
-4.08529
0
LINE
8
BLACK
6
CONTINUOUS
10
5.43325
20
-4.08529
11
5.43356
21
-4.08858
0
LINE
8
BLACK
6
CONTINUOUS
10
5.43356
20
-4.08858
11
5.43356
21
-4.12402
0
LINE
8
BLACK
6
CONTINUOUS
10
5.43356
20
-4.12402
11
5.43325
21
-4.12731
0
LINE
8
BLACK
6
CONTINUOUS
10
5.43325
20
-4.12731
11
5.43151
21
-4.13229
0
LINE
8
BLACK
6
CONTINUOUS
10
5.43151
20
-4.13229
11
5.42837
21
-4.13654
0
LINE
8
BLACK
6
CONTINUOUS
10
5.42837
20
-4.13654
11
5.42412
21
-4.13968
0
LINE
8
BLACK
6
CONTINUOUS
10
5.42412
20
-4.13968
11
5.41914
21
-4.14142
0
LINE
8
BLACK
6
CONTINUOUS
10
5.41914
20
-4.14142
11
5.41585
21
-4.14173
0
LINE
8
BLACK
6
CONTINUOUS
10
5.41585
20
-4.14173
11
5.39518
21
-4.14173
0
LINE
8
BLACK
6
CONTINUOUS
10
5.39518
20
-4.14173
11
5.39188
21
-4.14142
0
LINE
8
BLACK
6
CONTINUOUS
10
5.39188
20
-4.14142
11
5.3869
21
-4.13968
0
LINE
8
BLACK
6
CONTINUOUS
10
5.3869
20
-4.13968
11
5.38265
21
-4.13654
0
LINE
8
BLACK
6
CONTINUOUS
10
5.38265
20
-4.13654
11
5.37951
21
-4.13229
0
LINE
8
BLACK
6
CONTINUOUS
10
5.37951
20
-4.13229
11
5.37777
21
-4.12731
0
LINE
8
BLACK
6
CONTINUOUS
10
5.37777
20
-4.12731
11
5.37746
21
-4.12402
0
LINE
8
BLACK
6
CONTINUOUS
10
5.37746
20
-4.12402
11
5.37746
21
-4.08858
0
LINE
8
BLACK
6
CONTINUOUS
10
5.37746
20
-4.08858
11
5.37777
21
-4.08529
0
LINE
8
BLACK
6
CONTINUOUS
10
5.37777
20
-4.08529
11
5.37951
21
-4.0803
0
LINE
8
BLACK
6
CONTINUOUS
10
5.37951
20
-4.0803
11
5.38265
21
-4.07606
0
LINE
8
BLACK
6
CONTINUOUS
10
5.38265
20
-4.07606
11
5.3869
21
-4.07292
0
LINE
8
BLACK
6
CONTINUOUS
10
5.3869
20
-4.07292
11
5.39188
21
-4.07118
0
LINE
8
BLACK
6
CONTINUOUS
10
5.39188
20
-4.07118
11
5.39518
21
-4.07087
0
LINE
8
BLACK
6
CONTINUOUS
10
5.39518
20
-4.07087
11
5.41585
21
-4.07087
0
LINE
8
BLACK
6
CONTINUOUS
10
5.41585
20
-4.07087
11
5.41914
21
-4.07118
0
LINE
8
BLACK
6
CONTINUOUS
10
5.49099
20
-4.07118
11
5.49598
21
-4.07292
0
LINE
8
BLACK
6
CONTINUOUS
10
5.49598
20
-4.07292
11
5.50022
21
-4.07606
0
LINE
8
BLACK
6
CONTINUOUS
10
5.50022
20
-4.07606
11
5.50336
21
-4.0803
0
LINE
8
BLACK
6
CONTINUOUS
10
5.50336
20
-4.0803
11
5.5051
21
-4.08529
0
LINE
8
BLACK
6
CONTINUOUS
10
5.5051
20
-4.08529
11
5.50541
21
-4.08858
0
LINE
8
BLACK
6
CONTINUOUS
10
5.50541
20
-4.08858
11
5.50541
21
-4.12402
0
LINE
8
BLACK
6
CONTINUOUS
10
5.50541
20
-4.12402
11
5.5051
21
-4.12731
0
LINE
8
BLACK
6
CONTINUOUS
10
5.5051
20
-4.12731
11
5.50336
21
-4.13229
0
LINE
8
BLACK
6
CONTINUOUS
10
5.50336
20
-4.13229
11
5.50022
21
-4.13654
0
LINE
8
BLACK
6
CONTINUOUS
10
5.50022
20
-4.13654
11
5.49598
21
-4.13968
0
LINE
8
BLACK
6
CONTINUOUS
10
5.49598
20
-4.13968
11
5.49099
21
-4.14142
0
LINE
8
BLACK
6
CONTINUOUS
10
5.49099
20
-4.14142
11
5.4877
21
-4.14173
0
LINE
8
BLACK
6
CONTINUOUS
10
5.4877
20
-4.14173
11
5.46703
21
-4.14173
0
LINE
8
BLACK
6
CONTINUOUS
10
5.46703
20
-4.14173
11
5.46373
21
-4.14142
0
LINE
8
BLACK
6
CONTINUOUS
10
5.46373
20
-4.14142
11
5.45875
21
-4.13968
0
LINE
8
BLACK
6
CONTINUOUS
10
5.45875
20
-4.13968
11
5.4545
21
-4.13654
0
LINE
8
BLACK
6
CONTINUOUS
10
5.4545
20
-4.13654
11
5.45136
21
-4.13229
0
LINE
8
BLACK
6
CONTINUOUS
10
5.45136
20
-4.13229
11
5.44962
21
-4.12731
0
LINE
8
BLACK
6
CONTINUOUS
10
5.44962
20
-4.12731
11
5.44931
21
-4.12402
0
LINE
8
BLACK
6
CONTINUOUS
10
5.44931
20
-4.12402
11
5.44931
21
-4.08858
0
LINE
8
BLACK
6
CONTINUOUS
10
5.44931
20
-4.08858
11
5.44962
21
-4.08529
0
LINE
8
BLACK
6
CONTINUOUS
10
5.44962
20
-4.08529
11
5.45136
21
-4.0803
0
LINE
8
BLACK
6
CONTINUOUS
10
5.45136
20
-4.0803
11
5.4545
21
-4.07606
0
LINE
8
BLACK
6
CONTINUOUS
10
5.4545
20
-4.07606
11
5.45875
21
-4.07292
0
LINE
8
BLACK
6
CONTINUOUS
10
5.45875
20
-4.07292
11
5.46373
21
-4.07118
0
LINE
8
BLACK
6
CONTINUOUS
10
5.46373
20
-4.07118
11
5.46703
21
-4.07087
0
LINE
8
BLACK
6
CONTINUOUS
10
5.46703
20
-4.07087
11
5.4877
21
-4.07087
0
LINE
8
BLACK
6
CONTINUOUS
10
5.4877
20
-4.07087
11
5.49099
21
-4.07118
0
LINE
8
BLACK
6
CONTINUOUS
10
4.61411
20
-3.87481
11
4.62803
21
-3.87717
0
LINE
8
BLACK
6
CONTINUOUS
10
4.62803
20
-3.87717
11
4.64161
21
-3.88109
0
LINE
8
BLACK
6
CONTINUOUS
10
4.64161
20
-3.88109
11
4.65466
21
-3.88649
0
LINE
8
BLACK
6
CONTINUOUS
10
4.65466
20
-3.88649
11
4.66703
21
-3.89333
0
LINE
8
BLACK
6
CONTINUOUS
10
4.66703
20
-3.89333
11
4.67855
21
-3.9015
0
LINE
8
BLACK
6
CONTINUOUS
10
4.67855
20
-3.9015
11
4.68908
21
-3.91092
0
LINE
8
BLACK
6
CONTINUOUS
10
4.68908
20
-3.91092
11
4.6985
21
-3.92145
0
LINE
8
BLACK
6
CONTINUOUS
10
4.6985
20
-3.92145
11
4.70667
21
-3.93297
0
LINE
8
BLACK
6
CONTINUOUS
10
4.70667
20
-3.93297
11
4.71351
21
-3.94534
0
LINE
8
BLACK
6
CONTINUOUS
10
4.71351
20
-3.94534
11
4.71891
21
-3.95839
0
LINE
8
BLACK
6
CONTINUOUS
10
4.71891
20
-3.95839
11
4.72283
21
-3.97197
0
LINE
8
BLACK
6
CONTINUOUS
10
4.72283
20
-3.97197
11
4.72519
21
-3.98589
0
LINE
8
BLACK
6
CONTINUOUS
10
4.72519
20
-3.98589
11
4.72598
21
-4
0
LINE
8
BLACK
6
CONTINUOUS
10
4.72598
20
-4
11
4.72519
21
-4.01411
0
LINE
8
BLACK
6
CONTINUOUS
10
4.72519
20
-4.01411
11
4.72283
21
-4.02803
0
LINE
8
BLACK
6
CONTINUOUS
10
4.72283
20
-4.02803
11
4.71891
21
-4.04161
0
LINE
8
BLACK
6
CONTINUOUS
10
4.71891
20
-4.04161
11
4.71351
21
-4.05466
0
LINE
8
BLACK
6
CONTINUOUS
10
4.71351
20
-4.05466
11
4.70667
21
-4.06703
0
LINE
8
BLACK
6
CONTINUOUS
10
4.70667
20
-4.06703
11
4.6985
21
-4.07855
0
LINE
8
BLACK
6
CONTINUOUS
10
4.6985
20
-4.07855
11
4.68908
21
-4.08908
0
LINE
8
BLACK
6
CONTINUOUS
10
4.68908
20
-4.08908
11
4.67855
21
-4.0985
0
LINE
8
BLACK
6
CONTINUOUS
10
4.67855
20
-4.0985
11
4.66703
21
-4.10667
0
LINE
8
BLACK
6
CONTINUOUS
10
4.66703
20
-4.10667
11
4.65466
21
-4.11351
0
LINE
8
BLACK
6
CONTINUOUS
10
4.65466
20
-4.11351
11
4.64161
21
-4.11891
0
LINE
8
BLACK
6
CONTINUOUS
10
4.64161
20
-4.11891
11
4.62803
21
-4.12283
0
LINE
8
BLACK
6
CONTINUOUS
10
4.62803
20
-4.12283
11
4.61411
21
-4.12519
0
LINE
8
BLACK
6
CONTINUOUS
10
4.61411
20
-4.12519
11
4.6
21
-4.12598
0
LINE
8
BLACK
6
CONTINUOUS
10
4.6
20
-4.12598
11
4.58589
21
-4.12519
0
LINE
8
BLACK
6
CONTINUOUS
10
4.58589
20
-4.12519
11
4.57197
21
-4.12283
0
LINE
8
BLACK
6
CONTINUOUS
10
4.57197
20
-4.12283
11
4.55839
21
-4.11891
0
LINE
8
BLACK
6
CONTINUOUS
10
4.55839
20
-4.11891
11
4.54534
21
-4.11351
0
LINE
8
BLACK
6
CONTINUOUS
10
4.54534
20
-4.11351
11
4.53297
21
-4.10667
0
LINE
8
BLACK
6
CONTINUOUS
10
4.53297
20
-4.10667
11
4.52145
21
-4.0985
0
LINE
8
BLACK
6
CONTINUOUS
10
4.52145
20
-4.0985
11
4.51092
21
-4.08908
0
LINE
8
BLACK
6
CONTINUOUS
10
4.51092
20
-4.08908
11
4.5015
21
-4.07855
0
LINE
8
BLACK
6
CONTINUOUS
10
4.5015
20
-4.07855
11
4.49333
21
-4.06703
0
LINE
8
BLACK
6
CONTINUOUS
10
4.49333
20
-4.06703
11
4.48649
21
-4.05466
0
LINE
8
BLACK
6
CONTINUOUS
10
4.48649
20
-4.05466
11
4.48109
21
-4.04161
0
LINE
8
BLACK
6
CONTINUOUS
10
4.48109
20
-4.04161
11
4.47717
21
-4.02803
0
LINE
8
BLACK
6
CONTINUOUS
10
4.47717
20
-4.02803
11
4.47481
21
-4.01411
0
LINE
8
BLACK
6
CONTINUOUS
10
4.47481
20
-4.01411
11
4.47402
21
-4
0
LINE
8
BLACK
6
CONTINUOUS
10
4.47402
20
-4
11
4.47481
21
-3.98589
0
LINE
8
BLACK
6
CONTINUOUS
10
4.47481
20
-3.98589
11
4.47717
21
-3.97197
0
LINE
8
BLACK
6
CONTINUOUS
10
4.47717
20
-3.97197
11
4.48109
21
-3.95839
0
LINE
8
BLACK
6
CONTINUOUS
10
4.48109
20
-3.95839
11
4.48649
21
-3.94534
0
LINE
8
BLACK
6
CONTINUOUS
10
4.48649
20
-3.94534
11
4.49333
21
-3.93297
0
LINE
8
BLACK
6
CONTINUOUS
10
4.49333
20
-3.93297
11
4.5015
21
-3.92145
0
LINE
8
BLACK
6
CONTINUOUS
10
4.5015
20
-3.92145
11
4.51092
21
-3.91092
0
LINE
8
BLACK
6
CONTINUOUS
10
4.51092
20
-3.91092
11
4.52145
21
-3.9015
0
LINE
8
BLACK
6
CONTINUOUS
10
4.52145
20
-3.9015
11
4.53297
21
-3.89333
0
LINE
8
BLACK
6
CONTINUOUS
10
4.53297
20
-3.89333
11
4.54534
21
-3.88649
0
LINE
8
BLACK
6
CONTINUOUS
10
4.54534
20
-3.88649
11
4.55839
21
-3.88109
0
LINE
8
BLACK
6
CONTINUOUS
10
4.55839
20
-3.88109
11
4.57197
21
-3.87717
0
LINE
8
BLACK
6
CONTINUOUS
10
4.57197
20
-3.87717
11
4.58589
21
-3.87481
0
LINE
8
BLACK
6
CONTINUOUS
10
4.58589
20
-3.87481
11
4.6
21
-3.87402
0
LINE
8
BLACK
6
CONTINUOUS
10
4.6
20
-3.87402
11
4.61411
21
-3.87481
0
LINE
8
BLACK
6
CONTINUOUS
10
5.81411
20
-3.87481
11
5.82803
21
-3.87717
0
LINE
8
BLACK
6
CONTINUOUS
10
5.82803
20
-3.87717
11
5.84161
21
-3.88109
0
LINE
8
BLACK
6
CONTINUOUS
10
5.84161
20
-3.88109
11
5.85466
21
-3.88649
0
LINE
8
BLACK
6
CONTINUOUS
10
5.85466
20
-3.88649
11
5.86703
21
-3.89333
0
LINE
8
BLACK
6
CONTINUOUS
10
5.86703
20
-3.89333
11
5.87855
21
-3.9015
0
LINE
8
BLACK
6
CONTINUOUS
10
5.87855
20
-3.9015
11
5.88908
21
-3.91092
0
LINE
8
BLACK
6
CONTINUOUS
10
5.88908
20
-3.91092
11
5.8985
21
-3.92145
0
LINE
8
BLACK
6
CONTINUOUS
10
5.8985
20
-3.92145
11
5.90667
21
-3.93297
0
LINE
8
BLACK
6
CONTINUOUS
10
5.90667
20
-3.93297
11
5.91351
21
-3.94534
0
LINE
8
BLACK
6
CONTINUOUS
10
5.91351
20
-3.94534
11
5.91891
21
-3.95839
0
LINE
8
BLACK
6
CONTINUOUS
10
5.91891
20
-3.95839
11
5.92283
21
-3.97197
0
LINE
8
BLACK
6
CONTINUOUS
10
5.92283
20
-3.97197
11
5.92519
21
-3.98589
0
LINE
8
BLACK
6
CONTINUOUS
10
5.92519
20
-3.98589
11
5.92598
21
-4
0
LINE
8
BLACK
6
CONTINUOUS
10
5.92598
20
-4
11
5.92519
21
-4.01411
0
LINE
8
BLACK
6
CONTINUOUS
10
5.92519
20
-4.01411
11
5.92283
21
-4.02803
0
LINE
8
BLACK
6
CONTINUOUS
10
5.92283
20
-4.02803
11
5.91891
21
-4.04161
0
LINE
8
BLACK
6
CONTINUOUS
10
5.91891
20
-4.04161
11
5.91351
21
-4.05466
0
LINE
8
BLACK
6
CONTINUOUS
10
5.91351
20
-4.05466
11
5.90667
21
-4.06703
0
LINE
8
BLACK
6
CONTINUOUS
10
5.90667
20
-4.06703
11
5.8985
21
-4.07855
0
LINE
8
BLACK
6
CONTINUOUS
10
5.8985
20
-4.07855
11
5.88908
21
-4.08908
0
LINE
8
BLACK
6
CONTINUOUS
10
5.88908
20
-4.08908
11
5.87855
21
-4.0985
0
LINE
8
BLACK
6
CONTINUOUS
10
5.87855
20
-4.0985
11
5.86703
21
-4.10667
0
LINE
8
BLACK
6
CONTINUOUS
10
5.86703
20
-4.10667
11
5.85466
21
-4.11351
0
LINE
8
BLACK
6
CONTINUOUS
10
5.85466
20
-4.11351
11
5.84161
21
-4.11891
0
LINE
8
BLACK
6
CONTINUOUS
10
5.84161
20
-4.11891
11
5.82803
21
-4.12283
0
LINE
8
BLACK
6
CONTINUOUS
10
5.82803
20
-4.12283
11
5.81411
21
-4.12519
0
LINE
8
BLACK
6
CONTINUOUS
10
5.81411
20
-4.12519
11
5.8
21
-4.12598
0
LINE
8
BLACK
6
CONTINUOUS
10
5.8
20
-4.12598
11
5.78589
21
-4.12519
0
LINE
8
BLACK
6
CONTINUOUS
10
5.78589
20
-4.12519
11
5.77197
21
-4.12283
0
LINE
8
BLACK
6
CONTINUOUS
10
5.77197
20
-4.12283
11
5.75839
21
-4.11891
0
LINE
8
BLACK
6
CONTINUOUS
10
5.75839
20
-4.11891
11
5.74534
21
-4.11351
0
LINE
8
BLACK
6
CONTINUOUS
10
5.74534
20
-4.11351
11
5.73297
21
-4.10667
0
LINE
8
BLACK
6
CONTINUOUS
10
5.73297
20
-4.10667
11
5.72145
21
-4.0985
0
LINE
8
BLACK
6
CONTINUOUS
10
5.72145
20
-4.0985
11
5.71092
21
-4.08908
0
LINE
8
BLACK
6
CONTINUOUS
10
5.71092
20
-4.08908
11
5.7015
21
-4.07855
0
LINE
8
BLACK
6
CONTINUOUS
10
5.7015
20
-4.07855
11
5.69333
21
-4.06703
0
LINE
8
BLACK
6
CONTINUOUS
10
5.69333
20
-4.06703
11
5.68649
21
-4.05466
0
LINE
8
BLACK
6
CONTINUOUS
10
5.68649
20
-4.05466
11
5.68109
21
-4.04161
0
LINE
8
BLACK
6
CONTINUOUS
10
5.68109
20
-4.04161
11
5.67717
21
-4.02803
0
LINE
8
BLACK
6
CONTINUOUS
10
5.67717
20
-4.02803
11
5.67481
21
-4.01411
0
LINE
8
BLACK
6
CONTINUOUS
10
5.67481
20
-4.01411
11
5.67402
21
-4
0
LINE
8
BLACK
6
CONTINUOUS
10
5.67402
20
-4
11
5.67481
21
-3.98589
0
LINE
8
BLACK
6
CONTINUOUS
10
5.67481
20
-3.98589
11
5.67717
21
-3.97197
0
LINE
8
BLACK
6
CONTINUOUS
10
5.67717
20
-3.97197
11
5.68109
21
-3.95839
0
LINE
8
BLACK
6
CONTINUOUS
10
5.68109
20
-3.95839
11
5.68649
21
-3.94534
0
LINE
8
BLACK
6
CONTINUOUS
10
5.68649
20
-3.94534
11
5.69333
21
-3.93297
0
LINE
8
BLACK
6
CONTINUOUS
10
5.69333
20
-3.93297
11
5.7015
21
-3.92145
0
LINE
8
BLACK
6
CONTINUOUS
10
5.7015
20
-3.92145
11
5.71092
21
-3.91092
0
LINE
8
BLACK
6
CONTINUOUS
10
5.71092
20
-3.91092
11
5.72145
21
-3.9015
0
LINE
8
BLACK
6
CONTINUOUS
10
5.72145
20
-3.9015
11
5.73297
21
-3.89333
0
LINE
8
BLACK
6
CONTINUOUS
10
5.73297
20
-3.89333
11
5.74534
21
-3.88649
0
LINE
8
BLACK
6
CONTINUOUS
10
5.74534
20
-3.88649
11
5.75839
21
-3.88109
0
LINE
8
BLACK
6
CONTINUOUS
10
5.75839
20
-3.88109
11
5.77197
21
-3.87717
0
LINE
8
BLACK
6
CONTINUOUS
10
5.77197
20
-3.87717
11
5.78589
21
-3.87481
0
LINE
8
BLACK
6
CONTINUOUS
10
5.78589
20
-3.87481
11
5.8
21
-3.87402
0
LINE
8
BLACK
6
CONTINUOUS
10
5.8
20
-3.87402
11
5.81411
21
-3.87481
0
LINE
8
BLACK
6
CONTINUOUS
10
4.91301
20
-3.97273
11
4.91557
21
-3.97443
0
LINE
8
BLACK
6
CONTINUOUS
10
4.91557
20
-3.97443
11
4.91727
21
-3.97699
0
LINE
8
BLACK
6
CONTINUOUS
10
4.91727
20
-3.97699
11
4.91787
21
-3.98
0
LINE
8
BLACK
6
CONTINUOUS
10
4.91787
20
-3.98
11
4.91787
21
-4.04
0
LINE
8
BLACK
6
CONTINUOUS
10
4.91787
20
-4.04
11
4.91727
21
-4.04301
0
LINE
8
BLACK
6
CONTINUOUS
10
4.91727
20
-4.04301
11
4.91557
21
-4.04557
0
LINE
8
BLACK
6
CONTINUOUS
10
4.91557
20
-4.04557
11
4.91301
21
-4.04727
0
LINE
8
BLACK
6
CONTINUOUS
10
4.91301
20
-4.04727
11
4.91
21
-4.04787
0
LINE
8
BLACK
6
CONTINUOUS
10
4.91
20
-4.04787
11
4.85
21
-4.04787
0
LINE
8
BLACK
6
CONTINUOUS
10
4.85
20
-4.04787
11
4.84699
21
-4.04727
0
LINE
8
BLACK
6
CONTINUOUS
10
4.84699
20
-4.04727
11
4.84443
21
-4.04557
0
LINE
8
BLACK
6
CONTINUOUS
10
4.84443
20
-4.04557
11
4.84273
21
-4.04301
0
LINE
8
BLACK
6
CONTINUOUS
10
4.84273
20
-4.04301
11
4.84213
21
-4.04
0
LINE
8
BLACK
6
CONTINUOUS
10
4.84213
20
-4.04
11
4.84213
21
-3.98
0
LINE
8
BLACK
6
CONTINUOUS
10
4.84213
20
-3.98
11
4.84273
21
-3.97699
0
LINE
8
BLACK
6
CONTINUOUS
10
4.84273
20
-3.97699
11
4.84443
21
-3.97443
0
LINE
8
BLACK
6
CONTINUOUS
10
4.84443
20
-3.97443
11
4.84699
21
-3.97273
0
LINE
8
BLACK
6
CONTINUOUS
10
4.84699
20
-3.97273
11
4.85
21
-3.97213
0
LINE
8
BLACK
6
CONTINUOUS
10
4.85
20
-3.97213
11
4.91
21
-3.97213
0
LINE
8
BLACK
6
CONTINUOUS
10
4.91
20
-3.97213
11
4.91301
21
-3.97273
0
LINE
8
BLACK
6
CONTINUOUS
10
5.01301
20
-3.97273
11
5.01557
21
-3.97443
0
LINE
8
BLACK
6
CONTINUOUS
10
5.01557
20
-3.97443
11
5.01727
21
-3.97699
0
LINE
8
BLACK
6
CONTINUOUS
10
5.01727
20
-3.97699
11
5.01787
21
-3.98
0
LINE
8
BLACK
6
CONTINUOUS
10
5.01787
20
-3.98
11
5.01787
21
-4.04
0
LINE
8
BLACK
6
CONTINUOUS
10
5.01787
20
-4.04
11
5.01727
21
-4.04301
0
LINE
8
BLACK
6
CONTINUOUS
10
5.01727
20
-4.04301
11
5.01557
21
-4.04557
0
LINE
8
BLACK
6
CONTINUOUS
10
5.01557
20
-4.04557
11
5.01301
21
-4.04727
0
LINE
8
BLACK
6
CONTINUOUS
10
5.01301
20
-4.04727
11
5.01
21
-4.04787
0
LINE
8
BLACK
6
CONTINUOUS
10
5.01
20
-4.04787
11
4.95
21
-4.04787
0
LINE
8
BLACK
6
CONTINUOUS
10
4.95
20
-4.04787
11
4.94699
21
-4.04727
0
LINE
8
BLACK
6
CONTINUOUS
10
4.94699
20
-4.04727
11
4.94443
21
-4.04557
0
LINE
8
BLACK
6
CONTINUOUS
10
4.94443
20
-4.04557
11
4.94273
21
-4.04301
0
LINE
8
BLACK
6
CONTINUOUS
10
4.94273
20
-4.04301
11
4.94213
21
-4.04
0
LINE
8
BLACK
6
CONTINUOUS
10
4.94213
20
-4.04
11
4.94213
21
-3.98
0
LINE
8
BLACK
6
CONTINUOUS
10
4.94213
20
-3.98
11
4.94273
21
-3.97699
0
LINE
8
BLACK
6
CONTINUOUS
10
4.94273
20
-3.97699
11
4.94443
21
-3.97443
0
LINE
8
BLACK
6
CONTINUOUS
10
4.94443
20
-3.97443
11
4.94699
21
-3.97273
0
LINE
8
BLACK
6
CONTINUOUS
10
4.94699
20
-3.97273
11
4.95
21
-3.97213
0
LINE
8
BLACK
6
CONTINUOUS
10
4.95
20
-3.97213
11
5.01
21
-3.97213
0
LINE
8
BLACK
6
CONTINUOUS
10
5.01
20
-3.97213
11
5.01301
21
-3.97273
0
LINE
8
BLACK
6
CONTINUOUS
10
5.20301
20
-3.97273
11
5.20557
21
-3.97443
0
LINE
8
BLACK
6
CONTINUOUS
10
5.20557
20
-3.97443
11
5.20727
21
-3.97699
0
LINE
8
BLACK
6
CONTINUOUS
10
5.20727
20
-3.97699
11
5.20787
21
-3.98
0
LINE
8
BLACK
6
CONTINUOUS
10
5.20787
20
-3.98
11
5.20787
21
-4.04
0
LINE
8
BLACK
6
CONTINUOUS
10
5.20787
20
-4.04
11
5.20727
21
-4.04301
0
LINE
8
BLACK
6
CONTINUOUS
10
5.20727
20
-4.04301
11
5.20557
21
-4.04557
0
LINE
8
BLACK
6
CONTINUOUS
10
5.20557
20
-4.04557
11
5.20301
21
-4.04727
0
LINE
8
BLACK
6
CONTINUOUS
10
5.20301
20
-4.04727
11
5.2
21
-4.04787
0
LINE
8
BLACK
6
CONTINUOUS
10
5.2
20
-4.04787
11
5.14
21
-4.04787
0
LINE
8
BLACK
6
CONTINUOUS
10
5.14
20
-4.04787
11
5.13699
21
-4.04727
0
LINE
8
BLACK
6
CONTINUOUS
10
5.13699
20
-4.04727
11
5.13443
21
-4.04557
0
LINE
8
BLACK
6
CONTINUOUS
10
5.13443
20
-4.04557
11
5.13273
21
-4.04301
0
LINE
8
BLACK
6
CONTINUOUS
10
5.13273
20
-4.04301
11
5.13213
21
-4.04
0
LINE
8
BLACK
6
CONTINUOUS
10
5.13213
20
-4.04
11
5.13213
21
-3.98
0
LINE
8
BLACK
6
CONTINUOUS
10
5.13213
20
-3.98
11
5.13273
21
-3.97699
0
LINE
8
BLACK
6
CONTINUOUS
10
5.13273
20
-3.97699
11
5.13443
21
-3.97443
0
LINE
8
BLACK
6
CONTINUOUS
10
5.13443
20
-3.97443
11
5.13699
21
-3.97273
0
LINE
8
BLACK
6
CONTINUOUS
10
5.13699
20
-3.97273
11
5.14
21
-3.97213
0
LINE
8
BLACK
6
CONTINUOUS
10
5.14
20
-3.97213
11
5.2
21
-3.97213
0
LINE
8
BLACK
6
CONTINUOUS
10
5.2
20
-3.97213
11
5.20301
21
-3.97273
0
LINE
8
BLACK
6
CONTINUOUS
10
5.30301
20
-3.97273
11
5.30557
21
-3.97443
0
LINE
8
BLACK
6
CONTINUOUS
10
5.30557
20
-3.97443
11
5.30727
21
-3.97699
0
LINE
8
BLACK
6
CONTINUOUS
10
5.30727
20
-3.97699
11
5.30787
21
-3.98
0
LINE
8
BLACK
6
CONTINUOUS
10
5.30787
20
-3.98
11
5.30787
21
-4.04
0
LINE
8
BLACK
6
CONTINUOUS
10
5.30787
20
-4.04
11
5.30727
21
-4.04301
0
LINE
8
BLACK
6
CONTINUOUS
10
5.30727
20
-4.04301
11
5.30557
21
-4.04557
0
LINE
8
BLACK
6
CONTINUOUS
10
5.30557
20
-4.04557
11
5.30301
21
-4.04727
0
LINE
8
BLACK
6
CONTINUOUS
10
5.30301
20
-4.04727
11
5.3
21
-4.04787
0
LINE
8
BLACK
6
CONTINUOUS
10
5.3
20
-4.04787
11
5.24
21
-4.04787
0
LINE
8
BLACK
6
CONTINUOUS
10
5.24
20
-4.04787
11
5.23699
21
-4.04727
0
LINE
8
BLACK
6
CONTINUOUS
10
5.23699
20
-4.04727
11
5.23443
21
-4.04557
0
LINE
8
BLACK
6
CONTINUOUS
10
5.23443
20
-4.04557
11
5.23273
21
-4.04301
0
LINE
8
BLACK
6
CONTINUOUS
10
5.23273
20
-4.04301
11
5.23213
21
-4.04
0
LINE
8
BLACK
6
CONTINUOUS
10
5.23213
20
-4.04
11
5.23213
21
-3.98
0
LINE
8
BLACK
6
CONTINUOUS
10
5.23213
20
-3.98
11
5.23273
21
-3.97699
0
LINE
8
BLACK
6
CONTINUOUS
10
5.23273
20
-3.97699
11
5.23443
21
-3.97443
0
LINE
8
BLACK
6
CONTINUOUS
10
5.23443
20
-3.97443
11
5.23699
21
-3.97273
0
LINE
8
BLACK
6
CONTINUOUS
10
5.23699
20
-3.97273
11
5.24
21
-3.97213
0
LINE
8
BLACK
6
CONTINUOUS
10
5.24
20
-3.97213
11
5.3
21
-3.97213
0
LINE
8
BLACK
6
CONTINUOUS
10
5.3
20
-3.97213
11
5.30301
21
-3.97273
0
LINE
8
BLACK
6
CONTINUOUS
10
5.40301
20
-3.97273
11
5.40557
21
-3.97443
0
LINE
8
BLACK
6
CONTINUOUS
10
5.40557
20
-3.97443
11
5.40727
21
-3.97699
0
LINE
8
BLACK
6
CONTINUOUS
10
5.40727
20
-3.97699
11
5.40787
21
-3.98
0
LINE
8
BLACK
6
CONTINUOUS
10
5.40787
20
-3.98
11
5.40787
21
-4.04
0
LINE
8
BLACK
6
CONTINUOUS
10
5.40787
20
-4.04
11
5.40727
21
-4.04301
0
LINE
8
BLACK
6
CONTINUOUS
10
5.40727
20
-4.04301
11
5.40557
21
-4.04557
0
LINE
8
BLACK
6
CONTINUOUS
10
5.40557
20
-4.04557
11
5.40301
21
-4.04727
0
LINE
8
BLACK
6
CONTINUOUS
10
5.40301
20
-4.04727
11
5.4
21
-4.04787
0
LINE
8
BLACK
6
CONTINUOUS
10
5.4
20
-4.04787
11
5.34
21
-4.04787
0
LINE
8
BLACK
6
CONTINUOUS
10
5.34
20
-4.04787
11
5.33699
21
-4.04727
0
LINE
8
BLACK
6
CONTINUOUS
10
5.33699
20
-4.04727
11
5.33443
21
-4.04557
0
LINE
8
BLACK
6
CONTINUOUS
10
5.33443
20
-4.04557
11
5.33273
21
-4.04301
0
LINE
8
BLACK
6
CONTINUOUS
10
5.33273
20
-4.04301
11
5.33213
21
-4.04
0
LINE
8
BLACK
6
CONTINUOUS
10
5.33213
20
-4.04
11
5.33213
21
-3.98
0
LINE
8
BLACK
6
CONTINUOUS
10
5.33213
20
-3.98
11
5.33273
21
-3.97699
0
LINE
8
BLACK
6
CONTINUOUS
10
5.33273
20
-3.97699
11
5.33443
21
-3.97443
0
LINE
8
BLACK
6
CONTINUOUS
10
5.33443
20
-3.97443
11
5.33699
21
-3.97273
0
LINE
8
BLACK
6
CONTINUOUS
10
5.33699
20
-3.97273
11
5.34
21
-3.97213
0
LINE
8
BLACK
6
CONTINUOUS
10
5.34
20
-3.97213
11
5.4
21
-3.97213
0
LINE
8
BLACK
6
CONTINUOUS
10
5.4
20
-3.97213
11
5.40301
21
-3.97273
0
LINE
8
BLACK
6
CONTINUOUS
10
5.50301
20
-3.97273
11
5.50557
21
-3.97443
0
LINE
8
BLACK
6
CONTINUOUS
10
5.50557
20
-3.97443
11
5.50727
21
-3.97699
0
LINE
8
BLACK
6
CONTINUOUS
10
5.50727
20
-3.97699
11
5.50787
21
-3.98
0
LINE
8
BLACK
6
CONTINUOUS
10
5.50787
20
-3.98
11
5.50787
21
-4.04
0
LINE
8
BLACK
6
CONTINUOUS
10
5.50787
20
-4.04
11
5.50727
21
-4.04301
0
LINE
8
BLACK
6
CONTINUOUS
10
5.50727
20
-4.04301
11
5.50557
21
-4.04557
0
LINE
8
BLACK
6
CONTINUOUS
10
5.50557
20
-4.04557
11
5.50301
21
-4.04727
0
LINE
8
BLACK
6
CONTINUOUS
10
5.50301
20
-4.04727
11
5.5
21
-4.04787
0
LINE
8
BLACK
6
CONTINUOUS
10
5.5
20
-4.04787
11
5.44
21
-4.04787
0
LINE
8
BLACK
6
CONTINUOUS
10
5.44
20
-4.04787
11
5.43699
21
-4.04727
0
LINE
8
BLACK
6
CONTINUOUS
10
5.43699
20
-4.04727
11
5.43443
21
-4.04557
0
LINE
8
BLACK
6
CONTINUOUS
10
5.43443
20
-4.04557
11
5.43273
21
-4.04301
0
LINE
8
BLACK
6
CONTINUOUS
10
5.43273
20
-4.04301
11
5.43213
21
-4.04
0
LINE
8
BLACK
6
CONTINUOUS
10
5.43213
20
-4.04
11
5.43213
21
-3.98
0
LINE
8
BLACK
6
CONTINUOUS
10
5.43213
20
-3.98
11
5.43273
21
-3.97699
0
LINE
8
BLACK
6
CONTINUOUS
10
5.43273
20
-3.97699
11
5.43443
21
-3.97443
0
LINE
8
BLACK
6
CONTINUOUS
10
5.43443
20
-3.97443
11
5.43699
21
-3.97273
0
LINE
8
BLACK
6
CONTINUOUS
10
5.43699
20
-3.97273
11
5.44
21
-3.97213
0
LINE
8
BLACK
6
CONTINUOUS
10
5.44
20
-3.97213
11
5.5
21
-3.97213
0
LINE
8
BLACK
6
CONTINUOUS
10
5.5
20
-3.97213
11
5.50301
21
-3.97273
0
LINE
8
BLACK
6
CONTINUOUS
10
5.60301
20
-3.97273
11
5.60557
21
-3.97443
0
LINE
8
BLACK
6
CONTINUOUS
10
5.60557
20
-3.97443
11
5.60727
21
-3.97699
0
LINE
8
BLACK
6
CONTINUOUS
10
5.60727
20
-3.97699
11
5.60787
21
-3.98
0
LINE
8
BLACK
6
CONTINUOUS
10
5.60787
20
-3.98
11
5.60787
21
-4.04
0
LINE
8
BLACK
6
CONTINUOUS
10
5.60787
20
-4.04
11
5.60727
21
-4.04301
0
LINE
8
BLACK
6
CONTINUOUS
10
5.60727
20
-4.04301
11
5.60557
21
-4.04557
0
LINE
8
BLACK
6
CONTINUOUS
10
5.60557
20
-4.04557
11
5.60301
21
-4.04727
0
LINE
8
BLACK
6
CONTINUOUS
10
5.60301
20
-4.04727
11
5.6
21
-4.04787
0
LINE
8
BLACK
6
CONTINUOUS
10
5.6
20
-4.04787
11
5.54
21
-4.04787
0
LINE
8
BLACK
6
CONTINUOUS
10
5.54
20
-4.04787
11
5.53699
21
-4.04727
0
LINE
8
BLACK
6
CONTINUOUS
10
5.53699
20
-4.04727
11
5.53443
21
-4.04557
0
LINE
8
BLACK
6
CONTINUOUS
10
5.53443
20
-4.04557
11
5.53273
21
-4.04301
0
LINE
8
BLACK
6
CONTINUOUS
10
5.53273
20
-4.04301
11
5.53213
21
-4.04
0
LINE
8
BLACK
6
CONTINUOUS
10
5.53213
20
-4.04
11
5.53213
21
-3.98
0
LINE
8
BLACK
6
CONTINUOUS
10
5.53213
20
-3.98
11
5.53273
21
-3.97699
0
LINE
8
BLACK
6
CONTINUOUS
10
5.53273
20
-3.97699
11
5.53443
21
-3.97443
0
LINE
8
BLACK
6
CONTINUOUS
10
5.53443
20
-3.97443
11
5.53699
21
-3.97273
0
LINE
8
BLACK
6
CONTINUOUS
10
5.53699
20
-3.97273
11
5.54
21
-3.97213
0
LINE
8
BLACK
6
CONTINUOUS
10
5.54
20
-3.97213
11
5.6
21
-3.97213
0
LINE
8
BLACK
6
CONTINUOUS
10
5.6
20
-3.97213
11
5.60301
21
-3.97273
0
LINE
8
BLACK
6
CONTINUOUS
10
4.91301
20
-3.87273
11
4.91557
21
-3.87443
0
LINE
8
BLACK
6
CONTINUOUS
10
4.91557
20
-3.87443
11
4.91727
21
-3.87699
0
LINE
8
BLACK
6
CONTINUOUS
10
4.91727
20
-3.87699
11
4.91787
21
-3.88
0
LINE
8
BLACK
6
CONTINUOUS
10
4.91787
20
-3.88
11
4.91787
21
-3.94
0
LINE
8
BLACK
6
CONTINUOUS
10
4.91787
20
-3.94
11
4.91727
21
-3.94301
0
LINE
8
BLACK
6
CONTINUOUS
10
4.91727
20
-3.94301
11
4.91557
21
-3.94557
0
LINE
8
BLACK
6
CONTINUOUS
10
4.91557
20
-3.94557
11
4.91301
21
-3.94727
0
LINE
8
BLACK
6
CONTINUOUS
10
4.91301
20
-3.94727
11
4.91
21
-3.94787
0
LINE
8
BLACK
6
CONTINUOUS
10
4.91
20
-3.94787
11
4.85
21
-3.94787
0
LINE
8
BLACK
6
CONTINUOUS
10
4.85
20
-3.94787
11
4.84699
21
-3.94727
0
LINE
8
BLACK
6
CONTINUOUS
10
4.84699
20
-3.94727
11
4.84443
21
-3.94557
0
LINE
8
BLACK
6
CONTINUOUS
10
4.84443
20
-3.94557
11
4.84273
21
-3.94301
0
LINE
8
BLACK
6
CONTINUOUS
10
4.84273
20
-3.94301
11
4.84213
21
-3.94
0
LINE
8
BLACK
6
CONTINUOUS
10
4.84213
20
-3.94
11
4.84213
21
-3.88
0
LINE
8
BLACK
6
CONTINUOUS
10
4.84213
20
-3.88
11
4.84273
21
-3.87699
0
LINE
8
BLACK
6
CONTINUOUS
10
4.84273
20
-3.87699
11
4.84443
21
-3.87443
0
LINE
8
BLACK
6
CONTINUOUS
10
4.84443
20
-3.87443
11
4.84699
21
-3.87273
0
LINE
8
BLACK
6
CONTINUOUS
10
4.84699
20
-3.87273
11
4.85
21
-3.87213
0
LINE
8
BLACK
6
CONTINUOUS
10
4.85
20
-3.87213
11
4.91
21
-3.87213
0
LINE
8
BLACK
6
CONTINUOUS
10
4.91
20
-3.87213
11
4.91301
21
-3.87273
0
LINE
8
BLACK
6
CONTINUOUS
10
5.01301
20
-3.87273
11
5.01557
21
-3.87443
0
LINE
8
BLACK
6
CONTINUOUS
10
5.01557
20
-3.87443
11
5.01727
21
-3.87699
0
LINE
8
BLACK
6
CONTINUOUS
10
5.01727
20
-3.87699
11
5.01787
21
-3.88
0
LINE
8
BLACK
6
CONTINUOUS
10
5.01787
20
-3.88
11
5.01787
21
-3.94
0
LINE
8
BLACK
6
CONTINUOUS
10
5.01787
20
-3.94
11
5.01727
21
-3.94301
0
LINE
8
BLACK
6
CONTINUOUS
10
5.01727
20
-3.94301
11
5.01557
21
-3.94557
0
LINE
8
BLACK
6
CONTINUOUS
10
5.01557
20
-3.94557
11
5.01301
21
-3.94727
0
LINE
8
BLACK
6
CONTINUOUS
10
5.01301
20
-3.94727
11
5.01
21
-3.94787
0
LINE
8
BLACK
6
CONTINUOUS
10
5.01
20
-3.94787
11
4.95
21
-3.94787
0
LINE
8
BLACK
6
CONTINUOUS
10
4.95
20
-3.94787
11
4.94699
21
-3.94727
0
LINE
8
BLACK
6
CONTINUOUS
10
4.94699
20
-3.94727
11
4.94443
21
-3.94557
0
LINE
8
BLACK
6
CONTINUOUS
10
4.94443
20
-3.94557
11
4.94273
21
-3.94301
0
LINE
8
BLACK
6
CONTINUOUS
10
4.94273
20
-3.94301
11
4.94213
21
-3.94
0
LINE
8
BLACK
6
CONTINUOUS
10
4.94213
20
-3.94
11
4.94213
21
-3.88
0
LINE
8
BLACK
6
CONTINUOUS
10
4.94213
20
-3.88
11
4.94273
21
-3.87699
0
LINE
8
BLACK
6
CONTINUOUS
10
4.94273
20
-3.87699
11
4.94443
21
-3.87443
0
LINE
8
BLACK
6
CONTINUOUS
10
4.94443
20
-3.87443
11
4.94699
21
-3.87273
0
LINE
8
BLACK
6
CONTINUOUS
10
4.94699
20
-3.87273
11
4.95
21
-3.87213
0
LINE
8
BLACK
6
CONTINUOUS
10
4.95
20
-3.87213
11
5.01
21
-3.87213
0
LINE
8
BLACK
6
CONTINUOUS
10
5.01
20
-3.87213
11
5.01301
21
-3.87273
0
LINE
8
BLACK
6
CONTINUOUS
10
5.20301
20
-3.87273
11
5.20557
21
-3.87443
0
LINE
8
BLACK
6
CONTINUOUS
10
5.20557
20
-3.87443
11
5.20727
21
-3.87699
0
LINE
8
BLACK
6
CONTINUOUS
10
5.20727
20
-3.87699
11
5.20787
21
-3.88
0
LINE
8
BLACK
6
CONTINUOUS
10
5.20787
20
-3.88
11
5.20787
21
-3.94
0
LINE
8
BLACK
6
CONTINUOUS
10
5.20787
20
-3.94
11
5.20727
21
-3.94301
0
LINE
8
BLACK
6
CONTINUOUS
10
5.20727
20
-3.94301
11
5.20557
21
-3.94557
0
LINE
8
BLACK
6
CONTINUOUS
10
5.20557
20
-3.94557
11
5.20301
21
-3.94727
0
LINE
8
BLACK
6
CONTINUOUS
10
5.20301
20
-3.94727
11
5.2
21
-3.94787
0
LINE
8
BLACK
6
CONTINUOUS
10
5.2
20
-3.94787
11
5.14
21
-3.94787
0
LINE
8
BLACK
6
CONTINUOUS
10
5.14
20
-3.94787
11
5.13699
21
-3.94727
0
LINE
8
BLACK
6
CONTINUOUS
10
5.13699
20
-3.94727
11
5.13443
21
-3.94557
0
LINE
8
BLACK
6
CONTINUOUS
10
5.13443
20
-3.94557
11
5.13273
21
-3.94301
0
LINE
8
BLACK
6
CONTINUOUS
10
5.13273
20
-3.94301
11
5.13213
21
-3.94
0
LINE
8
BLACK
6
CONTINUOUS
10
5.13213
20
-3.94
11
5.13213
21
-3.88
0
LINE
8
BLACK
6
CONTINUOUS
10
5.13213
20
-3.88
11
5.13273
21
-3.87699
0
LINE
8
BLACK
6
CONTINUOUS
10
5.13273
20
-3.87699
11
5.13443
21
-3.87443
0
LINE
8
BLACK
6
CONTINUOUS
10
5.13443
20
-3.87443
11
5.13699
21
-3.87273
0
LINE
8
BLACK
6
CONTINUOUS
10
5.13699
20
-3.87273
11
5.14
21
-3.87213
0
LINE
8
BLACK
6
CONTINUOUS
10
5.14
20
-3.87213
11
5.2
21
-3.87213
0
LINE
8
BLACK
6
CONTINUOUS
10
5.2
20
-3.87213
11
5.20301
21
-3.87273
0
LINE
8
BLACK
6
CONTINUOUS
10
5.30301
20
-3.87273
11
5.30557
21
-3.87443
0
LINE
8
BLACK
6
CONTINUOUS
10
5.30557
20
-3.87443
11
5.30727
21
-3.87699
0
LINE
8
BLACK
6
CONTINUOUS
10
5.30727
20
-3.87699
11
5.30787
21
-3.88
0
LINE
8
BLACK
6
CONTINUOUS
10
5.30787
20
-3.88
11
5.30787
21
-3.94
0
LINE
8
BLACK
6
CONTINUOUS
10
5.30787
20
-3.94
11
5.30727
21
-3.94301
0
LINE
8
BLACK
6
CONTINUOUS
10
5.30727
20
-3.94301
11
5.30557
21
-3.94557
0
LINE
8
BLACK
6
CONTINUOUS
10
5.30557
20
-3.94557
11
5.30301
21
-3.94727
0
LINE
8
BLACK
6
CONTINUOUS
10
5.30301
20
-3.94727
11
5.3
21
-3.94787
0
LINE
8
BLACK
6
CONTINUOUS
10
5.3
20
-3.94787
11
5.24
21
-3.94787
0
LINE
8
BLACK
6
CONTINUOUS
10
5.24
20
-3.94787
11
5.23699
21
-3.94727
0
LINE
8
BLACK
6
CONTINUOUS
10
5.23699
20
-3.94727
11
5.23443
21
-3.94557
0
LINE
8
BLACK
6
CONTINUOUS
10
5.23443
20
-3.94557
11
5.23273
21
-3.94301
0
LINE
8
BLACK
6
CONTINUOUS
10
5.23273
20
-3.94301
11
5.23213
21
-3.94
0
LINE
8
BLACK
6
CONTINUOUS
10
5.23213
20
-3.94
11
5.23213
21
-3.88
0
LINE
8
BLACK
6
CONTINUOUS
10
5.23213
20
-3.88
11
5.23273
21
-3.87699
0
LINE
8
BLACK
6
CONTINUOUS
10
5.23273
20
-3.87699
11
5.23443
21
-3.87443
0
LINE
8
BLACK
6
CONTINUOUS
10
5.23443
20
-3.87443
11
5.23699
21
-3.87273
0
LINE
8
BLACK
6
CONTINUOUS
10
5.23699
20
-3.87273
11
5.24
21
-3.87213
0
LINE
8
BLACK
6
CONTINUOUS
10
5.24
20
-3.87213
11
5.3
21
-3.87213
0
LINE
8
BLACK
6
CONTINUOUS
10
5.3
20
-3.87213
11
5.30301
21
-3.87273
0
LINE
8
BLACK
6
CONTINUOUS
10
5.40301
20
-3.87273
11
5.40557
21
-3.87443
0
LINE
8
BLACK
6
CONTINUOUS
10
5.40557
20
-3.87443
11
5.40727
21
-3.87699
0
LINE
8
BLACK
6
CONTINUOUS
10
5.40727
20
-3.87699
11
5.40787
21
-3.88
0
LINE
8
BLACK
6
CONTINUOUS
10
5.40787
20
-3.88
11
5.40787
21
-3.94
0
LINE
8
BLACK
6
CONTINUOUS
10
5.40787
20
-3.94
11
5.40727
21
-3.94301
0
LINE
8
BLACK
6
CONTINUOUS
10
5.40727
20
-3.94301
11
5.40557
21
-3.94557
0
LINE
8
BLACK
6
CONTINUOUS
10
5.40557
20
-3.94557
11
5.40301
21
-3.94727
0
LINE
8
BLACK
6
CONTINUOUS
10
5.40301
20
-3.94727
11
5.4
21
-3.94787
0
LINE
8
BLACK
6
CONTINUOUS
10
5.4
20
-3.94787
11
5.34
21
-3.94787
0
LINE
8
BLACK
6
CONTINUOUS
10
5.34
20
-3.94787
11
5.33699
21
-3.94727
0
LINE
8
BLACK
6
CONTINUOUS
10
5.33699
20
-3.94727
11
5.33443
21
-3.94557
0
LINE
8
BLACK
6
CONTINUOUS
10
5.33443
20
-3.94557
11
5.33273
21
-3.94301
0
LINE
8
BLACK
6
CONTINUOUS
10
5.33273
20
-3.94301
11
5.33213
21
-3.94
0
LINE
8
BLACK
6
CONTINUOUS
10
5.33213
20
-3.94
11
5.33213
21
-3.88
0
LINE
8
BLACK
6
CONTINUOUS
10
5.33213
20
-3.88
11
5.33273
21
-3.87699
0
LINE
8
BLACK
6
CONTINUOUS
10
5.33273
20
-3.87699
11
5.33443
21
-3.87443
0
LINE
8
BLACK
6
CONTINUOUS
10
5.33443
20
-3.87443
11
5.33699
21
-3.87273
0
LINE
8
BLACK
6
CONTINUOUS
10
5.33699
20
-3.87273
11
5.34
21
-3.87213
0
LINE
8
BLACK
6
CONTINUOUS
10
5.34
20
-3.87213
11
5.4
21
-3.87213
0
LINE
8
BLACK
6
CONTINUOUS
10
5.4
20
-3.87213
11
5.40301
21
-3.87273
0
LINE
8
BLACK
6
CONTINUOUS
10
5.50301
20
-3.87273
11
5.50557
21
-3.87443
0
LINE
8
BLACK
6
CONTINUOUS
10
5.50557
20
-3.87443
11
5.50727
21
-3.87699
0
LINE
8
BLACK
6
CONTINUOUS
10
5.50727
20
-3.87699
11
5.50787
21
-3.88
0
LINE
8
BLACK
6
CONTINUOUS
10
5.50787
20
-3.88
11
5.50787
21
-3.94
0
LINE
8
BLACK
6
CONTINUOUS
10
5.50787
20
-3.94
11
5.50727
21
-3.94301
0
LINE
8
BLACK
6
CONTINUOUS
10
5.50727
20
-3.94301
11
5.50557
21
-3.94557
0
LINE
8
BLACK
6
CONTINUOUS
10
5.50557
20
-3.94557
11
5.50301
21
-3.94727
0
LINE
8
BLACK
6
CONTINUOUS
10
5.50301
20
-3.94727
11
5.5
21
-3.94787
0
LINE
8
BLACK
6
CONTINUOUS
10
5.5
20
-3.94787
11
5.44
21
-3.94787
0
LINE
8
BLACK
6
CONTINUOUS
10
5.44
20
-3.94787
11
5.43699
21
-3.94727
0
LINE
8
BLACK
6
CONTINUOUS
10
5.43699
20
-3.94727
11
5.43443
21
-3.94557
0
LINE
8
BLACK
6
CONTINUOUS
10
5.43443
20
-3.94557
11
5.43273
21
-3.94301
0
LINE
8
BLACK
6
CONTINUOUS
10
5.43273
20
-3.94301
11
5.43213
21
-3.94
0
LINE
8
BLACK
6
CONTINUOUS
10
5.43213
20
-3.94
11
5.43213
21
-3.88
0
LINE
8
BLACK
6
CONTINUOUS
10
5.43213
20
-3.88
11
5.43273
21
-3.87699
0
LINE
8
BLACK
6
CONTINUOUS
10
5.43273
20
-3.87699
11
5.43443
21
-3.87443
0
LINE
8
BLACK
6
CONTINUOUS
10
5.43443
20
-3.87443
11
5.43699
21
-3.87273
0
LINE
8
BLACK
6
CONTINUOUS
10
5.43699
20
-3.87273
11
5.44
21
-3.87213
0
LINE
8
BLACK
6
CONTINUOUS
10
5.44
20
-3.87213
11
5.5
21
-3.87213
0
LINE
8
BLACK
6
CONTINUOUS
10
5.5
20
-3.87213
11
5.50301
21
-3.87273
0
LINE
8
BLACK
6
CONTINUOUS
10
5.60301
20
-3.87273
11
5.60557
21
-3.87443
0
LINE
8
BLACK
6
CONTINUOUS
10
5.60557
20
-3.87443
11
5.60727
21
-3.87699
0
LINE
8
BLACK
6
CONTINUOUS
10
5.60727
20
-3.87699
11
5.60787
21
-3.88
0
LINE
8
BLACK
6
CONTINUOUS
10
5.60787
20
-3.88
11
5.60787
21
-3.94
0
LINE
8
BLACK
6
CONTINUOUS
10
5.60787
20
-3.94
11
5.60727
21
-3.94301
0
LINE
8
BLACK
6
CONTINUOUS
10
5.60727
20
-3.94301
11
5.60557
21
-3.94557
0
LINE
8
BLACK
6
CONTINUOUS
10
5.60557
20
-3.94557
11
5.60301
21
-3.94727
0
LINE
8
BLACK
6
CONTINUOUS
10
5.60301
20
-3.94727
11
5.6
21
-3.94787
0
LINE
8
BLACK
6
CONTINUOUS
10
5.6
20
-3.94787
11
5.54
21
-3.94787
0
LINE
8
BLACK
6
CONTINUOUS
10
5.54
20
-3.94787
11
5.53699
21
-3.94727
0
LINE
8
BLACK
6
CONTINUOUS
10
5.53699
20
-3.94727
11
5.53443
21
-3.94557
0
LINE
8
BLACK
6
CONTINUOUS
10
5.53443
20
-3.94557
11
5.53273
21
-3.94301
0
LINE
8
BLACK
6
CONTINUOUS
10
5.53273
20
-3.94301
11
5.53213
21
-3.94
0
LINE
8
BLACK
6
CONTINUOUS
10
5.53213
20
-3.94
11
5.53213
21
-3.88
0
LINE
8
BLACK
6
CONTINUOUS
10
5.53213
20
-3.88
11
5.53273
21
-3.87699
0
LINE
8
BLACK
6
CONTINUOUS
10
5.53273
20
-3.87699
11
5.53443
21
-3.87443
0
LINE
8
BLACK
6
CONTINUOUS
10
5.53443
20
-3.87443
11
5.53699
21
-3.87273
0
LINE
8
BLACK
6
CONTINUOUS
10
5.53699
20
-3.87273
11
5.54
21
-3.87213
0
LINE
8
BLACK
6
CONTINUOUS
10
5.54
20
-3.87213
11
5.6
21
-3.87213
0
LINE
8
BLACK
6
CONTINUOUS
10
5.6
20
-3.87213
11
5.60301
21
-3.87273
  0
ENDSEC
  0
EOF
