  0
SECTION
  2
HEADER
  9
$ANGBASE
  50
0.0
  9
$ANGDIR
  70
1
  9
$MEASUREMENT
  70
0
  0
ENDSEC
  0
SECTION
  2
TABLES
  0
TABLE
  2
LTYPE
  70
4
  0
LTYPE
  5
40F
  2
CONTINUOUS
  70
0
  3
Solid line
  72
65
  73
0
  40
0.0
  0
LTYPE
  5
410
  2
DASHDOT
 70
0
  3
Dash Dot ____ _ ____ _
 72
65
 73
4
 40
2.0
 49
1.25
 49
-0.25
 49
0.25
 49
-0.25
  0
LTYPE
  5
411
  2
DASHED
 70
0
  3
Dashed __ __ __ __ __
 72
65
 73
2
 40
0.75
 49
0.5
 49
-0.25
  0
LTYPE
  5
43B
  2
DOTTED
 70
0
  3
Dotted .  .  .  .
 72
65
 73
2
 40
0.2
 49
0.0
 49
-0.2
  0
ENDTAB
  0
TABLE
  2
STYLE
  70
4
  0
STYLE
  2
KICAD
  70
0
  40
0
  41
1
  42
1
  50
0
  71
0
  3
isocp.shx
  0
STYLE
  2
KICADB
  70
0
  40
0
  41
1
  42
1
  50
0
  71
0
  3
isocp.shx
  0
STYLE
  2
KICADI
  70
0
  40
0
  41
1
  42
1
  50
15
  71
0
  3
isocp.shx
  0
STYLE
  2
KICADBI
  70
0
  40
0
  41
1
  42
1
  50
15
  71
0
  3
isocp.shx
  0
ENDTAB
  0
TABLE
  2
LAYER
  70
1
  0
LAYER
  2
BLACK
  70
0
  62
7
  6
CONTINUOUS
  0
ENDTAB
  0
ENDSEC
  0
SECTION
  2
ENTITIES
0
LINE
8
BLACK
6
CONTINUOUS
10
5.30487
20
-4.39502
11
5.30926
21
-4.39726
0
LINE
8
BLACK
6
CONTINUOUS
10
5.30926
20
-4.39726
11
5.31274
21
-4.40074
0
LINE
8
BLACK
6
CONTINUOUS
10
5.31274
20
-4.40074
11
5.31344
21
-4.40213
0
LINE
8
BLACK
6
CONTINUOUS
10
5.31344
20
-4.40213
11
5.50001
21
-4.40213
0
LINE
8
BLACK
6
CONTINUOUS
10
5.50001
20
-4.40213
11
5.5013
21
-4.40242
0
LINE
8
BLACK
6
CONTINUOUS
10
5.5013
20
-4.40242
11
5.5026
21
-4.40257
0
LINE
8
BLACK
6
CONTINUOUS
10
5.5026
20
-4.40257
11
5.50299
21
-4.40281
0
LINE
8
BLACK
6
CONTINUOUS
10
5.50299
20
-4.40281
11
5.50343
21
-4.40291
0
LINE
8
BLACK
6
CONTINUOUS
10
5.50343
20
-4.40291
11
5.50445
21
-4.40373
0
LINE
8
BLACK
6
CONTINUOUS
10
5.50445
20
-4.40373
11
5.50557
21
-4.40443
0
LINE
8
BLACK
6
CONTINUOUS
10
5.50557
20
-4.40443
11
5.53558
21
-4.43444
0
LINE
8
BLACK
6
CONTINUOUS
10
5.53558
20
-4.43444
11
5.53628
21
-4.43556
0
LINE
8
BLACK
6
CONTINUOUS
10
5.53628
20
-4.43556
11
5.5371
21
-4.43659
0
LINE
8
BLACK
6
CONTINUOUS
10
5.5371
20
-4.43659
11
5.5372
21
-4.43703
0
LINE
8
BLACK
6
CONTINUOUS
10
5.5372
20
-4.43703
11
5.53744
21
-4.43741
0
LINE
8
BLACK
6
CONTINUOUS
10
5.53744
20
-4.43741
11
5.53758
21
-4.43872
0
LINE
8
BLACK
6
CONTINUOUS
10
5.53758
20
-4.43872
11
5.53787
21
-4.44
0
LINE
8
BLACK
6
CONTINUOUS
10
5.53787
20
-4.44
11
5.53787
21
-4.46047
0
LINE
8
BLACK
6
CONTINUOUS
10
5.53787
20
-4.46047
11
5.54969
21
-4.46047
0
LINE
8
BLACK
6
CONTINUOUS
10
5.54969
20
-4.46047
11
5.54969
21
-4.51953
0
LINE
8
BLACK
6
CONTINUOUS
10
5.54969
20
-4.51953
11
5.51031
21
-4.51953
0
LINE
8
BLACK
6
CONTINUOUS
10
5.51031
20
-4.51953
11
5.51031
21
-4.50181
0
LINE
8
BLACK
6
CONTINUOUS
10
5.51031
20
-4.50181
11
5.50047
21
-4.50181
0
LINE
8
BLACK
6
CONTINUOUS
10
5.50047
20
-4.50181
11
5.50047
21
-4.51953
0
LINE
8
BLACK
6
CONTINUOUS
10
5.50047
20
-4.51953
11
5.47882
21
-4.51953
0
LINE
8
BLACK
6
CONTINUOUS
10
5.47882
20
-4.51953
11
5.47882
21
-4.51933
0
LINE
8
BLACK
6
CONTINUOUS
10
5.47882
20
-4.51933
11
5.47567
21
-4.51927
0
LINE
8
BLACK
6
CONTINUOUS
10
5.47567
20
-4.51927
11
5.47034
21
-4.51761
0
LINE
8
BLACK
6
CONTINUOUS
10
5.47034
20
-4.51761
11
5.4657
21
-4.51452
0
LINE
8
BLACK
6
CONTINUOUS
10
5.4657
20
-4.51452
11
5.46211
21
-4.51024
0
LINE
8
BLACK
6
CONTINUOUS
10
5.46211
20
-4.51024
11
5.45986
21
-4.50514
0
LINE
8
BLACK
6
CONTINUOUS
10
5.45986
20
-4.50514
11
5.45919
21
-4.5
0
LINE
8
BLACK
6
CONTINUOUS
10
5.45919
20
-4.5
11
5.412
21
-4.5
0
LINE
8
BLACK
6
CONTINUOUS
10
5.412
20
-4.5
11
5.40926
21
-4.50274
0
LINE
8
BLACK
6
CONTINUOUS
10
5.40926
20
-4.50274
11
5.40487
21
-4.50498
0
LINE
8
BLACK
6
CONTINUOUS
10
5.40487
20
-4.50498
11
5.4
21
-4.50575
0
LINE
8
BLACK
6
CONTINUOUS
10
5.4
20
-4.50575
11
5.39513
21
-4.50498
0
LINE
8
BLACK
6
CONTINUOUS
10
5.39513
20
-4.50498
11
5.39074
21
-4.50274
0
LINE
8
BLACK
6
CONTINUOUS
10
5.39074
20
-4.50274
11
5.388
21
-4.5
0
LINE
8
BLACK
6
CONTINUOUS
10
5.388
20
-4.5
11
5.35086
21
-4.5
0
LINE
8
BLACK
6
CONTINUOUS
10
5.35086
20
-4.5
11
5.35086
21
-4.50032
0
LINE
8
BLACK
6
CONTINUOUS
10
5.35086
20
-4.50032
11
5.34993
21
-4.50583
0
LINE
8
BLACK
6
CONTINUOUS
10
5.34993
20
-4.50583
11
5.3475
21
-4.51085
0
LINE
8
BLACK
6
CONTINUOUS
10
5.3475
20
-4.51085
11
5.34376
21
-4.51499
0
LINE
8
BLACK
6
CONTINUOUS
10
5.34376
20
-4.51499
11
5.339
21
-4.51791
0
LINE
8
BLACK
6
CONTINUOUS
10
5.339
20
-4.51791
11
5.33361
21
-4.51938
0
LINE
8
BLACK
6
CONTINUOUS
10
5.33361
20
-4.51938
11
5.33118
21
-4.51933
0
LINE
8
BLACK
6
CONTINUOUS
10
5.33118
20
-4.51933
11
5.33118
21
-4.51953
0
LINE
8
BLACK
6
CONTINUOUS
10
5.33118
20
-4.51953
11
5.30953
21
-4.51953
0
LINE
8
BLACK
6
CONTINUOUS
10
5.30953
20
-4.51953
11
5.30953
21
-4.46047
0
LINE
8
BLACK
6
CONTINUOUS
10
5.30953
20
-4.46047
11
5.33118
21
-4.46047
0
LINE
8
BLACK
6
CONTINUOUS
10
5.33118
20
-4.46047
11
5.33118
21
-4.46067
0
LINE
8
BLACK
6
CONTINUOUS
10
5.33118
20
-4.46067
11
5.33409
21
-4.46069
0
LINE
8
BLACK
6
CONTINUOUS
10
5.33409
20
-4.46069
11
5.33944
21
-4.46229
0
LINE
8
BLACK
6
CONTINUOUS
10
5.33944
20
-4.46229
11
5.34412
21
-4.46532
0
LINE
8
BLACK
6
CONTINUOUS
10
5.34412
20
-4.46532
11
5.34776
21
-4.46955
0
LINE
8
BLACK
6
CONTINUOUS
10
5.34776
20
-4.46955
11
5.35007
21
-4.47463
0
LINE
8
BLACK
6
CONTINUOUS
10
5.35007
20
-4.47463
11
5.35084
21
-4.48
0
LINE
8
BLACK
6
CONTINUOUS
10
5.35084
20
-4.48
11
5.388
21
-4.48
0
LINE
8
BLACK
6
CONTINUOUS
10
5.388
20
-4.48
11
5.39074
21
-4.47726
0
LINE
8
BLACK
6
CONTINUOUS
10
5.39074
20
-4.47726
11
5.39513
21
-4.47502
0
LINE
8
BLACK
6
CONTINUOUS
10
5.39513
20
-4.47502
11
5.4
21
-4.47425
0
LINE
8
BLACK
6
CONTINUOUS
10
5.4
20
-4.47425
11
5.40487
21
-4.47502
0
LINE
8
BLACK
6
CONTINUOUS
10
5.40487
20
-4.47502
11
5.40926
21
-4.47726
0
LINE
8
BLACK
6
CONTINUOUS
10
5.40926
20
-4.47726
11
5.412
21
-4.48
0
LINE
8
BLACK
6
CONTINUOUS
10
5.412
20
-4.48
11
5.45915
21
-4.48
0
LINE
8
BLACK
6
CONTINUOUS
10
5.45915
20
-4.48
11
5.45914
21
-4.47992
0
LINE
8
BLACK
6
CONTINUOUS
10
5.45914
20
-4.47992
11
5.45999
21
-4.4744
0
LINE
8
BLACK
6
CONTINUOUS
10
5.45999
20
-4.4744
11
5.46237
21
-4.46935
0
LINE
8
BLACK
6
CONTINUOUS
10
5.46237
20
-4.46935
11
5.46606
21
-4.46517
0
LINE
8
BLACK
6
CONTINUOUS
10
5.46606
20
-4.46517
11
5.47078
21
-4.46219
0
LINE
8
BLACK
6
CONTINUOUS
10
5.47078
20
-4.46219
11
5.47615
21
-4.46065
0
LINE
8
BLACK
6
CONTINUOUS
10
5.47615
20
-4.46065
11
5.47882
21
-4.46067
0
LINE
8
BLACK
6
CONTINUOUS
10
5.47882
20
-4.46067
11
5.47882
21
-4.46047
0
LINE
8
BLACK
6
CONTINUOUS
10
5.47882
20
-4.46047
11
5.50047
21
-4.46047
0
LINE
8
BLACK
6
CONTINUOUS
10
5.50047
20
-4.46047
11
5.50047
21
-4.47819
0
LINE
8
BLACK
6
CONTINUOUS
10
5.50047
20
-4.47819
11
5.51031
21
-4.47819
0
LINE
8
BLACK
6
CONTINUOUS
10
5.51031
20
-4.47819
11
5.51031
21
-4.46047
0
LINE
8
BLACK
6
CONTINUOUS
10
5.51031
20
-4.46047
11
5.52213
21
-4.46047
0
LINE
8
BLACK
6
CONTINUOUS
10
5.52213
20
-4.46047
11
5.52213
21
-4.44326
0
LINE
8
BLACK
6
CONTINUOUS
10
5.52213
20
-4.44326
11
5.49674
21
-4.41787
0
LINE
8
BLACK
6
CONTINUOUS
10
5.49674
20
-4.41787
11
5.31344
21
-4.41787
0
LINE
8
BLACK
6
CONTINUOUS
10
5.31344
20
-4.41787
11
5.31274
21
-4.41926
0
LINE
8
BLACK
6
CONTINUOUS
10
5.31274
20
-4.41926
11
5.30926
21
-4.42274
0
LINE
8
BLACK
6
CONTINUOUS
10
5.30926
20
-4.42274
11
5.30487
21
-4.42498
0
LINE
8
BLACK
6
CONTINUOUS
10
5.30487
20
-4.42498
11
5.3
21
-4.42575
0
LINE
8
BLACK
6
CONTINUOUS
10
5.3
20
-4.42575
11
5.29513
21
-4.42498
0
LINE
8
BLACK
6
CONTINUOUS
10
5.29513
20
-4.42498
11
5.29074
21
-4.42274
0
LINE
8
BLACK
6
CONTINUOUS
10
5.29074
20
-4.42274
11
5.28726
21
-4.41926
0
LINE
8
BLACK
6
CONTINUOUS
10
5.28726
20
-4.41926
11
5.28502
21
-4.41487
0
LINE
8
BLACK
6
CONTINUOUS
10
5.28502
20
-4.41487
11
5.28425
21
-4.41
0
LINE
8
BLACK
6
CONTINUOUS
10
5.28425
20
-4.41
11
5.28502
21
-4.40513
0
LINE
8
BLACK
6
CONTINUOUS
10
5.28502
20
-4.40513
11
5.28726
21
-4.40074
0
LINE
8
BLACK
6
CONTINUOUS
10
5.28726
20
-4.40074
11
5.29074
21
-4.39726
0
LINE
8
BLACK
6
CONTINUOUS
10
5.29074
20
-4.39726
11
5.29513
21
-4.39502
0
LINE
8
BLACK
6
CONTINUOUS
10
5.29513
20
-4.39502
11
5.3
21
-4.39425
0
LINE
8
BLACK
6
CONTINUOUS
10
5.3
20
-4.39425
11
5.30487
21
-4.39502
0
LINE
8
BLACK
6
CONTINUOUS
10
4.96
20
-4.04
11
4.9
21
-4.04
0
LINE
8
BLACK
6
CONTINUOUS
10
4.9
20
-4.04
11
4.9
21
-3.98
0
LINE
8
BLACK
6
CONTINUOUS
10
4.9
20
-3.98
11
4.96
21
-3.98
0
LINE
8
BLACK
6
CONTINUOUS
10
4.96
20
-3.98
11
4.96
21
-4.04
0
LINE
8
BLACK
6
CONTINUOUS
10
4.86
20
-4.04
11
4.8
21
-4.04
0
LINE
8
BLACK
6
CONTINUOUS
10
4.8
20
-4.04
11
4.8
21
-3.98
0
LINE
8
BLACK
6
CONTINUOUS
10
4.8
20
-3.98
11
4.86
21
-3.98
0
LINE
8
BLACK
6
CONTINUOUS
10
4.86
20
-3.98
11
4.86
21
-4.04
0
LINE
8
BLACK
6
CONTINUOUS
10
4.96
20
-3.94
11
4.9
21
-3.94
0
LINE
8
BLACK
6
CONTINUOUS
10
4.9
20
-3.94
11
4.9
21
-3.88
0
LINE
8
BLACK
6
CONTINUOUS
10
4.9
20
-3.88
11
4.96
21
-3.88
0
LINE
8
BLACK
6
CONTINUOUS
10
4.96
20
-3.88
11
4.96
21
-3.94
0
LINE
8
BLACK
6
CONTINUOUS
10
5
20
-3.94
11
5
21
-3.88
0
LINE
8
BLACK
6
CONTINUOUS
10
5
20
-3.88
11
5.02
21
-3.88
0
LINE
8
BLACK
6
CONTINUOUS
10
5.02
20
-3.88
11
5.02
21
-3.86071
0
LINE
8
BLACK
6
CONTINUOUS
10
5.02
20
-3.86071
11
5.01982
21
-3.86011
0
LINE
8
BLACK
6
CONTINUOUS
10
5.01982
20
-3.86011
11
5.01977
21
-3.86007
0
LINE
8
BLACK
6
CONTINUOUS
10
5.01977
20
-3.86007
11
5.01947
21
-3.86
0
LINE
8
BLACK
6
CONTINUOUS
10
5.01947
20
-3.86
11
4.99824
21
-3.86
0
LINE
8
BLACK
6
CONTINUOUS
10
4.99824
20
-3.86
11
4.99797
21
-3.86001
0
LINE
8
BLACK
6
CONTINUOUS
10
4.99797
20
-3.86001
11
4.99597
21
-3.86023
0
LINE
8
BLACK
6
CONTINUOUS
10
4.99597
20
-3.86023
11
4.99537
21
-3.86037
0
LINE
8
BLACK
6
CONTINUOUS
10
4.99537
20
-3.86037
11
4.99063
21
-3.86215
0
LINE
8
BLACK
6
CONTINUOUS
10
4.99063
20
-3.86215
11
4.99001
21
-3.86249
0
LINE
8
BLACK
6
CONTINUOUS
10
4.99001
20
-3.86249
11
4.986
21
-3.8655
0
LINE
8
BLACK
6
CONTINUOUS
10
4.986
20
-3.8655
11
4.9855
21
-3.866
0
LINE
8
BLACK
6
CONTINUOUS
10
4.9855
20
-3.866
11
4.98398
21
-3.86802
0
LINE
8
BLACK
6
CONTINUOUS
10
4.98398
20
-3.86802
11
4.98174
21
-3.8697
0
LINE
8
BLACK
6
CONTINUOUS
10
4.98174
20
-3.8697
11
4.97896
21
-3.86989
0
LINE
8
BLACK
6
CONTINUOUS
10
4.97896
20
-3.86989
11
4.9765
21
-3.86855
0
LINE
8
BLACK
6
CONTINUOUS
10
4.9765
20
-3.86855
11
4.97604
21
-3.86802
0
LINE
8
BLACK
6
CONTINUOUS
10
4.97604
20
-3.86802
11
4.9743
21
-3.8657
0
LINE
8
BLACK
6
CONTINUOUS
10
4.9743
20
-3.8657
11
4.96971
21
-3.86226
0
LINE
8
BLACK
6
CONTINUOUS
10
4.96971
20
-3.86226
11
4.96434
21
-3.86025
0
LINE
8
BLACK
6
CONTINUOUS
10
4.96434
20
-3.86025
11
4.9619
21
-3.85998
0
LINE
8
BLACK
6
CONTINUOUS
10
4.9619
20
-3.85998
11
4.8981
21
-3.85998
0
LINE
8
BLACK
6
CONTINUOUS
10
4.8981
20
-3.85998
11
4.89566
21
-3.86025
0
LINE
8
BLACK
6
CONTINUOUS
10
4.89566
20
-3.86025
11
4.89029
21
-3.86226
0
LINE
8
BLACK
6
CONTINUOUS
10
4.89029
20
-3.86226
11
4.8857
21
-3.8657
0
LINE
8
BLACK
6
CONTINUOUS
10
4.8857
20
-3.8657
11
4.88549
21
-3.86598
0
LINE
8
BLACK
6
CONTINUOUS
10
4.88549
20
-3.86598
11
4.88549
21
-3.86598
0
LINE
8
BLACK
6
CONTINUOUS
10
4.88549
20
-3.86598
11
4.88397
21
-3.86801
0
LINE
8
BLACK
6
CONTINUOUS
10
4.88397
20
-3.86801
11
4.88173
21
-3.86968
0
LINE
8
BLACK
6
CONTINUOUS
10
4.88173
20
-3.86968
11
4.87894
21
-3.86988
0
LINE
8
BLACK
6
CONTINUOUS
10
4.87894
20
-3.86988
11
4.87649
21
-3.86854
0
LINE
8
BLACK
6
CONTINUOUS
10
4.87649
20
-3.86854
11
4.87603
21
-3.86801
0
LINE
8
BLACK
6
CONTINUOUS
10
4.87603
20
-3.86801
11
4.87451
21
-3.86598
0
LINE
8
BLACK
6
CONTINUOUS
10
4.87451
20
-3.86598
11
4.87451
21
-3.86598
0
LINE
8
BLACK
6
CONTINUOUS
10
4.87451
20
-3.86598
11
4.8743
21
-3.8657
0
LINE
8
BLACK
6
CONTINUOUS
10
4.8743
20
-3.8657
11
4.86971
21
-3.86226
0
LINE
8
BLACK
6
CONTINUOUS
10
4.86971
20
-3.86226
11
4.86434
21
-3.86025
0
LINE
8
BLACK
6
CONTINUOUS
10
4.86434
20
-3.86025
11
4.8619
21
-3.85998
0
LINE
8
BLACK
6
CONTINUOUS
10
4.8619
20
-3.85998
11
4.7981
21
-3.85998
0
LINE
8
BLACK
6
CONTINUOUS
10
4.7981
20
-3.85998
11
4.79566
21
-3.86025
0
LINE
8
BLACK
6
CONTINUOUS
10
4.79566
20
-3.86025
11
4.79029
21
-3.86226
0
LINE
8
BLACK
6
CONTINUOUS
10
4.79029
20
-3.86226
11
4.7857
21
-3.8657
0
LINE
8
BLACK
6
CONTINUOUS
10
4.7857
20
-3.8657
11
4.78226
21
-3.87029
0
LINE
8
BLACK
6
CONTINUOUS
10
4.78226
20
-3.87029
11
4.78025
21
-3.87566
0
LINE
8
BLACK
6
CONTINUOUS
10
4.78025
20
-3.87566
11
4.77998
21
-3.8781
0
LINE
8
BLACK
6
CONTINUOUS
10
4.77998
20
-3.8781
11
4.77998
21
-3.91551
0
LINE
8
BLACK
6
CONTINUOUS
10
4.77998
20
-3.91551
11
4.77919
21
-3.91819
0
LINE
8
BLACK
6
CONTINUOUS
10
4.77919
20
-3.91819
11
4.77853
21
-3.91902
0
LINE
8
BLACK
6
CONTINUOUS
10
4.77853
20
-3.91902
11
4.75065
21
-3.9469
0
LINE
8
BLACK
6
CONTINUOUS
10
4.75065
20
-3.9469
11
4.75008
21
-3.94738
0
LINE
8
BLACK
6
CONTINUOUS
10
4.75008
20
-3.94738
11
4.74939
21
-3.9479
0
LINE
8
BLACK
6
CONTINUOUS
10
4.74939
20
-3.9479
11
4.7492
21
-3.94812
0
LINE
8
BLACK
6
CONTINUOUS
10
4.7492
20
-3.94812
11
4.7492
21
-3.94812
0
LINE
8
BLACK
6
CONTINUOUS
10
4.7492
20
-3.94812
11
4.74803
21
-3.94949
0
LINE
8
BLACK
6
CONTINUOUS
10
4.74803
20
-3.94949
11
4.74776
21
-3.94979
0
LINE
8
BLACK
6
CONTINUOUS
10
4.74776
20
-3.94979
11
4.74753
21
-3.95001
0
LINE
8
BLACK
6
CONTINUOUS
10
4.74753
20
-3.95001
11
4.74744
21
-3.95013
0
LINE
8
BLACK
6
CONTINUOUS
10
4.74744
20
-3.95013
11
4.74744
21
-3.95013
0
LINE
8
BLACK
6
CONTINUOUS
10
4.74744
20
-3.95013
11
4.74684
21
-3.95089
0
LINE
8
BLACK
6
CONTINUOUS
10
4.74684
20
-3.95089
11
4.74673
21
-3.95103
0
LINE
8
BLACK
6
CONTINUOUS
10
4.74673
20
-3.95103
11
4.74504
21
-3.95301
0
LINE
8
BLACK
6
CONTINUOUS
10
4.74504
20
-3.95301
11
4.74504
21
-3.95301
0
LINE
8
BLACK
6
CONTINUOUS
10
4.74504
20
-3.95301
11
4.74485
21
-3.95323
0
LINE
8
BLACK
6
CONTINUOUS
10
4.74485
20
-3.95323
11
4.74472
21
-3.95349
0
LINE
8
BLACK
6
CONTINUOUS
10
4.74472
20
-3.95349
11
4.74459
21
-3.95369
0
LINE
8
BLACK
6
CONTINUOUS
10
4.74459
20
-3.95369
11
4.74446
21
-3.95389
0
LINE
8
BLACK
6
CONTINUOUS
10
4.74446
20
-3.95389
11
4.74429
21
-3.95412
0
LINE
8
BLACK
6
CONTINUOUS
10
4.74429
20
-3.95412
11
4.74416
21
-3.95438
0
LINE
8
BLACK
6
CONTINUOUS
10
4.74416
20
-3.95438
11
4.74306
21
-3.95674
0
LINE
8
BLACK
6
CONTINUOUS
10
4.74306
20
-3.95674
11
4.74299
21
-3.95689
0
LINE
8
BLACK
6
CONTINUOUS
10
4.74299
20
-3.95689
11
4.74167
21
-3.95946
0
LINE
8
BLACK
6
CONTINUOUS
10
4.74167
20
-3.95946
11
4.7416
21
-3.95974
0
LINE
8
BLACK
6
CONTINUOUS
10
4.7416
20
-3.95974
11
4.74152
21
-3.95997
0
LINE
8
BLACK
6
CONTINUOUS
10
4.74152
20
-3.95997
11
4.74144
21
-3.9602
0
LINE
8
BLACK
6
CONTINUOUS
10
4.74144
20
-3.9602
11
4.74132
21
-3.96046
0
LINE
8
BLACK
6
CONTINUOUS
10
4.74132
20
-3.96046
11
4.74095
21
-3.96226
0
LINE
8
BLACK
6
CONTINUOUS
10
4.74095
20
-3.96226
11
4.74073
21
-3.96329
0
LINE
8
BLACK
6
CONTINUOUS
10
4.74073
20
-3.96329
11
4.74069
21
-3.96346
0
LINE
8
BLACK
6
CONTINUOUS
10
4.74069
20
-3.96346
11
4.74001
21
-3.96626
0
LINE
8
BLACK
6
CONTINUOUS
10
4.74001
20
-3.96626
11
4.73998
21
-3.96671
0
LINE
8
BLACK
6
CONTINUOUS
10
4.73998
20
-3.96671
11
4.73998
21
-3.96671
0
LINE
8
BLACK
6
CONTINUOUS
10
4.73998
20
-3.96671
11
4.73997
21
-3.96686
0
LINE
8
BLACK
6
CONTINUOUS
10
4.73997
20
-3.96686
11
4.73995
21
-3.96703
0
LINE
8
BLACK
6
CONTINUOUS
10
4.73995
20
-3.96703
11
4.7399
21
-3.96731
0
LINE
8
BLACK
6
CONTINUOUS
10
4.7399
20
-3.96731
11
4.7399
21
-3.9676
0
LINE
8
BLACK
6
CONTINUOUS
10
4.7399
20
-3.9676
11
4.73998
21
-3.97038
0
LINE
8
BLACK
6
CONTINUOUS
10
4.73998
20
-3.97038
11
4.73998
21
-3.97051
0
LINE
8
BLACK
6
CONTINUOUS
10
4.73998
20
-3.97051
11
4.73998
21
-4.07735
0
LINE
8
BLACK
6
CONTINUOUS
10
4.73998
20
-4.07735
11
4.73992
21
-4.07809
0
LINE
8
BLACK
6
CONTINUOUS
10
4.73992
20
-4.07809
11
4.73984
21
-4.07866
0
LINE
8
BLACK
6
CONTINUOUS
10
4.73984
20
-4.07866
11
4.73984
21
-4.07866
0
LINE
8
BLACK
6
CONTINUOUS
10
4.73984
20
-4.07866
11
4.73979
21
-4.07895
0
LINE
8
BLACK
6
CONTINUOUS
10
4.73979
20
-4.07895
11
4.73982
21
-4.07923
0
LINE
8
BLACK
6
CONTINUOUS
10
4.73982
20
-4.07923
11
4.73982
21
-4.07923
0
LINE
8
BLACK
6
CONTINUOUS
10
4.73982
20
-4.07923
11
4.73996
21
-4.08103
0
LINE
8
BLACK
6
CONTINUOUS
10
4.73996
20
-4.08103
11
4.73998
21
-4.08143
0
LINE
8
BLACK
6
CONTINUOUS
10
4.73998
20
-4.08143
11
4.73998
21
-4.08175
0
LINE
8
BLACK
6
CONTINUOUS
10
4.73998
20
-4.08175
11
4.74011
21
-4.08287
0
LINE
8
BLACK
6
CONTINUOUS
10
4.74011
20
-4.08287
11
4.74013
21
-4.08304
0
LINE
8
BLACK
6
CONTINUOUS
10
4.74013
20
-4.08304
11
4.74036
21
-4.08592
0
LINE
8
BLACK
6
CONTINUOUS
10
4.74036
20
-4.08592
11
4.74045
21
-4.0862
0
LINE
8
BLACK
6
CONTINUOUS
10
4.74045
20
-4.0862
11
4.7405
21
-4.08643
0
LINE
8
BLACK
6
CONTINUOUS
10
4.7405
20
-4.08643
11
4.74055
21
-4.08667
0
LINE
8
BLACK
6
CONTINUOUS
10
4.74055
20
-4.08667
11
4.74059
21
-4.08695
0
LINE
8
BLACK
6
CONTINUOUS
10
4.74059
20
-4.08695
11
4.74068
21
-4.08722
0
LINE
8
BLACK
6
CONTINUOUS
10
4.74068
20
-4.08722
11
4.74068
21
-4.08722
0
LINE
8
BLACK
6
CONTINUOUS
10
4.74068
20
-4.08722
11
4.74157
21
-4.08967
0
LINE
8
BLACK
6
CONTINUOUS
10
4.74157
20
-4.08967
11
4.74163
21
-4.08983
0
LINE
8
BLACK
6
CONTINUOUS
10
4.74163
20
-4.08983
11
4.74252
21
-4.09258
0
LINE
8
BLACK
6
CONTINUOUS
10
4.74252
20
-4.09258
11
4.74267
21
-4.09283
0
LINE
8
BLACK
6
CONTINUOUS
10
4.74267
20
-4.09283
11
4.74277
21
-4.09305
0
LINE
8
BLACK
6
CONTINUOUS
10
4.74277
20
-4.09305
11
4.74288
21
-4.09326
0
LINE
8
BLACK
6
CONTINUOUS
10
4.74288
20
-4.09326
11
4.74298
21
-4.09353
0
LINE
8
BLACK
6
CONTINUOUS
10
4.74298
20
-4.09353
11
4.74313
21
-4.09377
0
LINE
8
BLACK
6
CONTINUOUS
10
4.74313
20
-4.09377
11
4.74456
21
-4.09595
0
LINE
8
BLACK
6
CONTINUOUS
10
4.74456
20
-4.09595
11
4.74465
21
-4.09609
0
LINE
8
BLACK
6
CONTINUOUS
10
4.74465
20
-4.09609
11
4.74615
21
-4.09857
0
LINE
8
BLACK
6
CONTINUOUS
10
4.74615
20
-4.09857
11
4.7463
21
-4.09873
0
LINE
8
BLACK
6
CONTINUOUS
10
4.7463
20
-4.09873
11
4.7463
21
-4.09873
0
LINE
8
BLACK
6
CONTINUOUS
10
4.7463
20
-4.09873
11
4.74644
21
-4.0989
0
LINE
8
BLACK
6
CONTINUOUS
10
4.74644
20
-4.0989
11
4.74644
21
-4.0989
0
LINE
8
BLACK
6
CONTINUOUS
10
4.74644
20
-4.0989
11
4.74654
21
-4.09901
0
LINE
8
BLACK
6
CONTINUOUS
10
4.74654
20
-4.09901
11
4.74666
21
-4.09915
0
LINE
8
BLACK
6
CONTINUOUS
10
4.74666
20
-4.09915
11
4.74681
21
-4.09939
0
LINE
8
BLACK
6
CONTINUOUS
10
4.74681
20
-4.09939
11
4.74702
21
-4.09959
0
LINE
8
BLACK
6
CONTINUOUS
10
4.74702
20
-4.09959
11
4.74904
21
-4.1015
0
LINE
8
BLACK
6
CONTINUOUS
10
4.74904
20
-4.1015
11
4.74913
21
-4.10159
0
LINE
8
BLACK
6
CONTINUOUS
10
4.74913
20
-4.10159
11
4.96853
21
-4.32098
0
LINE
8
BLACK
6
CONTINUOUS
10
4.96853
20
-4.32098
11
4.96987
21
-4.32343
0
LINE
8
BLACK
6
CONTINUOUS
10
4.96987
20
-4.32343
11
4.96998
21
-4.32449
0
LINE
8
BLACK
6
CONTINUOUS
10
4.96998
20
-4.32449
11
4.96998
21
-4.33534
0
LINE
8
BLACK
6
CONTINUOUS
10
4.96998
20
-4.33534
11
4.96919
21
-4.33802
0
LINE
8
BLACK
6
CONTINUOUS
10
4.96919
20
-4.33802
11
4.96708
21
-4.33985
0
LINE
8
BLACK
6
CONTINUOUS
10
4.96708
20
-4.33985
11
4.96617
21
-4.34016
0
LINE
8
BLACK
6
CONTINUOUS
10
4.96617
20
-4.34016
11
4.96597
21
-4.34021
0
LINE
8
BLACK
6
CONTINUOUS
10
4.96597
20
-4.34021
11
4.96566
21
-4.34025
0
LINE
8
BLACK
6
CONTINUOUS
10
4.96566
20
-4.34025
11
4.96029
21
-4.34226
0
LINE
8
BLACK
6
CONTINUOUS
10
4.96029
20
-4.34226
11
4.9557
21
-4.3457
0
LINE
8
BLACK
6
CONTINUOUS
10
4.9557
20
-4.3457
11
4.95396
21
-4.34802
0
LINE
8
BLACK
6
CONTINUOUS
10
4.95396
20
-4.34802
11
4.95172
21
-4.3497
0
LINE
8
BLACK
6
CONTINUOUS
10
4.95172
20
-4.3497
11
4.94893
21
-4.34989
0
LINE
8
BLACK
6
CONTINUOUS
10
4.94893
20
-4.34989
11
4.94648
21
-4.34855
0
LINE
8
BLACK
6
CONTINUOUS
10
4.94648
20
-4.34855
11
4.94602
21
-4.34802
0
LINE
8
BLACK
6
CONTINUOUS
10
4.94602
20
-4.34802
11
4.9445
21
-4.346
0
LINE
8
BLACK
6
CONTINUOUS
10
4.9445
20
-4.346
11
4.944
21
-4.3455
0
LINE
8
BLACK
6
CONTINUOUS
10
4.944
20
-4.3455
11
4.93999
21
-4.34249
0
LINE
8
BLACK
6
CONTINUOUS
10
4.93999
20
-4.34249
11
4.93937
21
-4.34215
0
LINE
8
BLACK
6
CONTINUOUS
10
4.93937
20
-4.34215
11
4.93463
21
-4.34037
0
LINE
8
BLACK
6
CONTINUOUS
10
4.93463
20
-4.34037
11
4.93403
21
-4.34023
0
LINE
8
BLACK
6
CONTINUOUS
10
4.93403
20
-4.34023
11
4.93203
21
-4.34001
0
LINE
8
BLACK
6
CONTINUOUS
10
4.93203
20
-4.34001
11
4.93176
21
-4.34
0
LINE
8
BLACK
6
CONTINUOUS
10
4.93176
20
-4.34
11
4.91071
21
-4.34
0
LINE
8
BLACK
6
CONTINUOUS
10
4.91071
20
-4.34
11
4.91011
21
-4.34018
0
LINE
8
BLACK
6
CONTINUOUS
10
4.91011
20
-4.34018
11
4.91007
21
-4.34023
0
LINE
8
BLACK
6
CONTINUOUS
10
4.91007
20
-4.34023
11
4.91
21
-4.34053
0
LINE
8
BLACK
6
CONTINUOUS
10
4.91
20
-4.34053
11
4.91
21
-4.36
0
LINE
8
BLACK
6
CONTINUOUS
10
4.91
20
-4.36
11
4.93
21
-4.36
0
LINE
8
BLACK
6
CONTINUOUS
10
4.93
20
-4.36
11
4.93
21
-4.42
0
LINE
8
BLACK
6
CONTINUOUS
10
4.93
20
-4.42
11
4.91
21
-4.42
0
LINE
8
BLACK
6
CONTINUOUS
10
4.91
20
-4.42
11
4.91
21
-4.46
0
LINE
8
BLACK
6
CONTINUOUS
10
4.91
20
-4.46
11
4.93
21
-4.46
0
LINE
8
BLACK
6
CONTINUOUS
10
4.93
20
-4.46
11
4.93
21
-4.52
0
LINE
8
BLACK
6
CONTINUOUS
10
4.93
20
-4.52
11
4.91
21
-4.52
0
LINE
8
BLACK
6
CONTINUOUS
10
4.91
20
-4.52
11
4.91
21
-4.53929
0
LINE
8
BLACK
6
CONTINUOUS
10
4.91
20
-4.53929
11
4.91018
21
-4.53989
0
LINE
8
BLACK
6
CONTINUOUS
10
4.91018
20
-4.53989
11
4.91023
21
-4.53993
0
LINE
8
BLACK
6
CONTINUOUS
10
4.91023
20
-4.53993
11
4.91053
21
-4.54
0
LINE
8
BLACK
6
CONTINUOUS
10
4.91053
20
-4.54
11
4.93176
21
-4.54
0
LINE
8
BLACK
6
CONTINUOUS
10
4.93176
20
-4.54
11
4.93203
21
-4.53999
0
LINE
8
BLACK
6
CONTINUOUS
10
4.93203
20
-4.53999
11
4.93403
21
-4.53977
0
LINE
8
BLACK
6
CONTINUOUS
10
4.93403
20
-4.53977
11
4.93463
21
-4.53963
0
LINE
8
BLACK
6
CONTINUOUS
10
4.93463
20
-4.53963
11
4.93937
21
-4.53785
0
LINE
8
BLACK
6
CONTINUOUS
10
4.93937
20
-4.53785
11
4.93999
21
-4.53751
0
LINE
8
BLACK
6
CONTINUOUS
10
4.93999
20
-4.53751
11
4.944
21
-4.5345
0
LINE
8
BLACK
6
CONTINUOUS
10
4.944
20
-4.5345
11
4.9445
21
-4.534
0
LINE
8
BLACK
6
CONTINUOUS
10
4.9445
20
-4.534
11
4.94602
21
-4.53198
0
LINE
8
BLACK
6
CONTINUOUS
10
4.94602
20
-4.53198
11
4.94826
21
-4.5303
0
LINE
8
BLACK
6
CONTINUOUS
10
4.94826
20
-4.5303
11
4.95104
21
-4.53011
0
LINE
8
BLACK
6
CONTINUOUS
10
4.95104
20
-4.53011
11
4.9535
21
-4.53145
0
LINE
8
BLACK
6
CONTINUOUS
10
4.9535
20
-4.53145
11
4.95396
21
-4.53198
0
LINE
8
BLACK
6
CONTINUOUS
10
4.95396
20
-4.53198
11
4.9557
21
-4.5343
0
LINE
8
BLACK
6
CONTINUOUS
10
4.9557
20
-4.5343
11
4.96029
21
-4.53774
0
LINE
8
BLACK
6
CONTINUOUS
10
4.96029
20
-4.53774
11
4.96566
21
-4.53975
0
LINE
8
BLACK
6
CONTINUOUS
10
4.96566
20
-4.53975
11
4.9681
21
-4.54002
0
LINE
8
BLACK
6
CONTINUOUS
10
4.9681
20
-4.54002
11
5.0319
21
-4.54002
0
LINE
8
BLACK
6
CONTINUOUS
10
5.0319
20
-4.54002
11
5.03434
21
-4.53975
0
LINE
8
BLACK
6
CONTINUOUS
10
5.03434
20
-4.53975
11
5.03971
21
-4.53774
0
LINE
8
BLACK
6
CONTINUOUS
10
5.03971
20
-4.53774
11
5.0443
21
-4.5343
0
LINE
8
BLACK
6
CONTINUOUS
10
5.0443
20
-4.5343
11
5.04604
21
-4.53198
0
LINE
8
BLACK
6
CONTINUOUS
10
5.04604
20
-4.53198
11
5.04828
21
-4.5303
0
LINE
8
BLACK
6
CONTINUOUS
10
5.04828
20
-4.5303
11
5.05107
21
-4.53011
0
LINE
8
BLACK
6
CONTINUOUS
10
5.05107
20
-4.53011
11
5.05352
21
-4.53145
0
LINE
8
BLACK
6
CONTINUOUS
10
5.05352
20
-4.53145
11
5.05398
21
-4.53198
0
LINE
8
BLACK
6
CONTINUOUS
10
5.05398
20
-4.53198
11
5.0555
21
-4.534
0
LINE
8
BLACK
6
CONTINUOUS
10
5.0555
20
-4.534
11
5.056
21
-4.5345
0
LINE
8
BLACK
6
CONTINUOUS
10
5.056
20
-4.5345
11
5.06001
21
-4.53751
0
LINE
8
BLACK
6
CONTINUOUS
10
5.06001
20
-4.53751
11
5.06063
21
-4.53785
0
LINE
8
BLACK
6
CONTINUOUS
10
5.06063
20
-4.53785
11
5.06537
21
-4.53963
0
LINE
8
BLACK
6
CONTINUOUS
10
5.06537
20
-4.53963
11
5.06597
21
-4.53977
0
LINE
8
BLACK
6
CONTINUOUS
10
5.06597
20
-4.53977
11
5.06797
21
-4.53999
0
LINE
8
BLACK
6
CONTINUOUS
10
5.06797
20
-4.53999
11
5.06824
21
-4.54
0
LINE
8
BLACK
6
CONTINUOUS
10
5.06824
20
-4.54
11
5.08929
21
-4.54
0
LINE
8
BLACK
6
CONTINUOUS
10
5.08929
20
-4.54
11
5.08989
21
-4.53982
0
LINE
8
BLACK
6
CONTINUOUS
10
5.08989
20
-4.53982
11
5.08993
21
-4.53977
0
LINE
8
BLACK
6
CONTINUOUS
10
5.08993
20
-4.53977
11
5.09
21
-4.53947
0
LINE
8
BLACK
6
CONTINUOUS
10
5.09
20
-4.53947
11
5.09
21
-4.52
0
LINE
8
BLACK
6
CONTINUOUS
10
5.09
20
-4.52
11
5.07
21
-4.52
0
LINE
8
BLACK
6
CONTINUOUS
10
5.07
20
-4.52
11
5.07
21
-4.46
0
LINE
8
BLACK
6
CONTINUOUS
10
5.07
20
-4.46
11
5.09
21
-4.46
0
LINE
8
BLACK
6
CONTINUOUS
10
5.09
20
-4.46
11
5.09
21
-4.42
0
LINE
8
BLACK
6
CONTINUOUS
10
5.09
20
-4.42
11
5.07
21
-4.42
0
LINE
8
BLACK
6
CONTINUOUS
10
5.07
20
-4.42
11
5.07
21
-4.36
0
LINE
8
BLACK
6
CONTINUOUS
10
5.07
20
-4.36
11
5.09
21
-4.36
0
LINE
8
BLACK
6
CONTINUOUS
10
5.09
20
-4.36
11
5.09
21
-4.34071
0
LINE
8
BLACK
6
CONTINUOUS
10
5.09
20
-4.34071
11
5.08982
21
-4.34011
0
LINE
8
BLACK
6
CONTINUOUS
10
5.08982
20
-4.34011
11
5.08977
21
-4.34007
0
LINE
8
BLACK
6
CONTINUOUS
10
5.08977
20
-4.34007
11
5.08947
21
-4.34
0
LINE
8
BLACK
6
CONTINUOUS
10
5.08947
20
-4.34
11
5.06824
21
-4.34
0
LINE
8
BLACK
6
CONTINUOUS
10
5.06824
20
-4.34
11
5.06797
21
-4.34001
0
LINE
8
BLACK
6
CONTINUOUS
10
5.06797
20
-4.34001
11
5.06597
21
-4.34023
0
LINE
8
BLACK
6
CONTINUOUS
10
5.06597
20
-4.34023
11
5.06537
21
-4.34037
0
LINE
8
BLACK
6
CONTINUOUS
10
5.06537
20
-4.34037
11
5.06063
21
-4.34215
0
LINE
8
BLACK
6
CONTINUOUS
10
5.06063
20
-4.34215
11
5.06001
21
-4.34249
0
LINE
8
BLACK
6
CONTINUOUS
10
5.06001
20
-4.34249
11
5.056
21
-4.3455
0
LINE
8
BLACK
6
CONTINUOUS
10
5.056
20
-4.3455
11
5.0555
21
-4.346
0
LINE
8
BLACK
6
CONTINUOUS
10
5.0555
20
-4.346
11
5.05398
21
-4.34802
0
LINE
8
BLACK
6
CONTINUOUS
10
5.05398
20
-4.34802
11
5.05174
21
-4.3497
0
LINE
8
BLACK
6
CONTINUOUS
10
5.05174
20
-4.3497
11
5.04896
21
-4.34989
0
LINE
8
BLACK
6
CONTINUOUS
10
5.04896
20
-4.34989
11
5.0465
21
-4.34855
0
LINE
8
BLACK
6
CONTINUOUS
10
5.0465
20
-4.34855
11
5.04604
21
-4.34802
0
LINE
8
BLACK
6
CONTINUOUS
10
5.04604
20
-4.34802
11
5.0443
21
-4.3457
0
LINE
8
BLACK
6
CONTINUOUS
10
5.0443
20
-4.3457
11
5.03971
21
-4.34226
0
LINE
8
BLACK
6
CONTINUOUS
10
5.03971
20
-4.34226
11
5.03434
21
-4.34025
0
LINE
8
BLACK
6
CONTINUOUS
10
5.03434
20
-4.34025
11
5.03403
21
-4.34021
0
LINE
8
BLACK
6
CONTINUOUS
10
5.03403
20
-4.34021
11
5.03383
21
-4.34016
0
LINE
8
BLACK
6
CONTINUOUS
10
5.03383
20
-4.34016
11
5.03141
21
-4.33878
0
LINE
8
BLACK
6
CONTINUOUS
10
5.03141
20
-4.33878
11
5.03011
21
-4.3363
0
LINE
8
BLACK
6
CONTINUOUS
10
5.03011
20
-4.3363
11
5.03002
21
-4.33534
0
LINE
8
BLACK
6
CONTINUOUS
10
5.03002
20
-4.33534
11
5.03002
21
-4.31265
0
LINE
8
BLACK
6
CONTINUOUS
10
5.03002
20
-4.31265
11
5.03008
21
-4.31191
0
LINE
8
BLACK
6
CONTINUOUS
10
5.03008
20
-4.31191
11
5.03016
21
-4.31134
0
LINE
8
BLACK
6
CONTINUOUS
10
5.03016
20
-4.31134
11
5.03016
21
-4.31134
0
LINE
8
BLACK
6
CONTINUOUS
10
5.03016
20
-4.31134
11
5.03021
21
-4.31105
0
LINE
8
BLACK
6
CONTINUOUS
10
5.03021
20
-4.31105
11
5.03004
21
-4.30897
0
LINE
8
BLACK
6
CONTINUOUS
10
5.03004
20
-4.30897
11
5.03002
21
-4.30857
0
LINE
8
BLACK
6
CONTINUOUS
10
5.03002
20
-4.30857
11
5.03002
21
-4.30825
0
LINE
8
BLACK
6
CONTINUOUS
10
5.03002
20
-4.30825
11
5.03
21
-4.3081
0
LINE
8
BLACK
6
CONTINUOUS
10
5.03
20
-4.3081
11
5.03
21
-4.3081
0
LINE
8
BLACK
6
CONTINUOUS
10
5.03
20
-4.3081
11
5.02989
21
-4.30713
0
LINE
8
BLACK
6
CONTINUOUS
10
5.02989
20
-4.30713
11
5.02987
21
-4.30696
0
LINE
8
BLACK
6
CONTINUOUS
10
5.02987
20
-4.30696
11
5.02966
21
-4.30436
0
LINE
8
BLACK
6
CONTINUOUS
10
5.02966
20
-4.30436
11
5.02964
21
-4.30408
0
LINE
8
BLACK
6
CONTINUOUS
10
5.02964
20
-4.30408
11
5.02955
21
-4.3038
0
LINE
8
BLACK
6
CONTINUOUS
10
5.02955
20
-4.3038
11
5.0295
21
-4.30357
0
LINE
8
BLACK
6
CONTINUOUS
10
5.0295
20
-4.30357
11
5.02945
21
-4.30333
0
LINE
8
BLACK
6
CONTINUOUS
10
5.02945
20
-4.30333
11
5.02941
21
-4.30305
0
LINE
8
BLACK
6
CONTINUOUS
10
5.02941
20
-4.30305
11
5.02932
21
-4.30278
0
LINE
8
BLACK
6
CONTINUOUS
10
5.02932
20
-4.30278
11
5.02932
21
-4.30278
0
LINE
8
BLACK
6
CONTINUOUS
10
5.02932
20
-4.30278
11
5.02843
21
-4.30033
0
LINE
8
BLACK
6
CONTINUOUS
10
5.02843
20
-4.30033
11
5.02837
21
-4.30017
0
LINE
8
BLACK
6
CONTINUOUS
10
5.02837
20
-4.30017
11
5.02748
21
-4.29742
0
LINE
8
BLACK
6
CONTINUOUS
10
5.02748
20
-4.29742
11
5.02733
21
-4.29717
0
LINE
8
BLACK
6
CONTINUOUS
10
5.02733
20
-4.29717
11
5.02723
21
-4.29695
0
LINE
8
BLACK
6
CONTINUOUS
10
5.02723
20
-4.29695
11
5.02712
21
-4.29674
0
LINE
8
BLACK
6
CONTINUOUS
10
5.02712
20
-4.29674
11
5.02702
21
-4.29647
0
LINE
8
BLACK
6
CONTINUOUS
10
5.02702
20
-4.29647
11
5.02544
21
-4.29405
0
LINE
8
BLACK
6
CONTINUOUS
10
5.02544
20
-4.29405
11
5.02535
21
-4.29391
0
LINE
8
BLACK
6
CONTINUOUS
10
5.02535
20
-4.29391
11
5.02385
21
-4.29143
0
LINE
8
BLACK
6
CONTINUOUS
10
5.02385
20
-4.29143
11
5.02356
21
-4.2911
0
LINE
8
BLACK
6
CONTINUOUS
10
5.02356
20
-4.2911
11
5.02356
21
-4.2911
0
LINE
8
BLACK
6
CONTINUOUS
10
5.02356
20
-4.2911
11
5.02346
21
-4.29099
0
LINE
8
BLACK
6
CONTINUOUS
10
5.02346
20
-4.29099
11
5.02334
21
-4.29085
0
LINE
8
BLACK
6
CONTINUOUS
10
5.02334
20
-4.29085
11
5.02319
21
-4.29061
0
LINE
8
BLACK
6
CONTINUOUS
10
5.02319
20
-4.29061
11
5.02096
21
-4.2885
0
LINE
8
BLACK
6
CONTINUOUS
10
5.02096
20
-4.2885
11
5.02087
21
-4.28841
0
LINE
8
BLACK
6
CONTINUOUS
10
5.02087
20
-4.28841
11
4.80147
21
-4.06902
0
LINE
8
BLACK
6
CONTINUOUS
10
4.80147
20
-4.06902
11
4.80013
21
-4.06657
0
LINE
8
BLACK
6
CONTINUOUS
10
4.80013
20
-4.06657
11
4.80002
21
-4.06551
0
LINE
8
BLACK
6
CONTINUOUS
10
4.80002
20
-4.06551
11
4.80002
21
-4.06498
0
LINE
8
BLACK
6
CONTINUOUS
10
4.80002
20
-4.06498
11
4.80081
21
-4.0623
0
LINE
8
BLACK
6
CONTINUOUS
10
4.80081
20
-4.0623
11
4.80292
21
-4.06047
0
LINE
8
BLACK
6
CONTINUOUS
10
4.80292
20
-4.06047
11
4.80498
21
-4.06002
0
LINE
8
BLACK
6
CONTINUOUS
10
4.80498
20
-4.06002
11
4.8619
21
-4.06002
0
LINE
8
BLACK
6
CONTINUOUS
10
4.8619
20
-4.06002
11
4.86434
21
-4.05975
0
LINE
8
BLACK
6
CONTINUOUS
10
4.86434
20
-4.05975
11
4.86971
21
-4.05774
0
LINE
8
BLACK
6
CONTINUOUS
10
4.86971
20
-4.05774
11
4.8743
21
-4.0543
0
LINE
8
BLACK
6
CONTINUOUS
10
4.8743
20
-4.0543
11
4.87603
21
-4.05199
0
LINE
8
BLACK
6
CONTINUOUS
10
4.87603
20
-4.05199
11
4.87827
21
-4.05032
0
LINE
8
BLACK
6
CONTINUOUS
10
4.87827
20
-4.05032
11
4.88106
21
-4.05012
0
LINE
8
BLACK
6
CONTINUOUS
10
4.88106
20
-4.05012
11
4.88351
21
-4.05146
0
LINE
8
BLACK
6
CONTINUOUS
10
4.88351
20
-4.05146
11
4.88397
21
-4.05199
0
LINE
8
BLACK
6
CONTINUOUS
10
4.88397
20
-4.05199
11
4.8857
21
-4.0543
0
LINE
8
BLACK
6
CONTINUOUS
10
4.8857
20
-4.0543
11
4.89029
21
-4.05774
0
LINE
8
BLACK
6
CONTINUOUS
10
4.89029
20
-4.05774
11
4.89566
21
-4.05975
0
LINE
8
BLACK
6
CONTINUOUS
10
4.89566
20
-4.05975
11
4.8981
21
-4.06002
0
LINE
8
BLACK
6
CONTINUOUS
10
4.8981
20
-4.06002
11
4.9619
21
-4.06002
0
LINE
8
BLACK
6
CONTINUOUS
10
4.9619
20
-4.06002
11
4.96434
21
-4.05975
0
LINE
8
BLACK
6
CONTINUOUS
10
4.96434
20
-4.05975
11
4.96971
21
-4.05774
0
LINE
8
BLACK
6
CONTINUOUS
10
4.96971
20
-4.05774
11
4.9743
21
-4.0543
0
LINE
8
BLACK
6
CONTINUOUS
10
4.9743
20
-4.0543
11
4.97603
21
-4.05199
0
LINE
8
BLACK
6
CONTINUOUS
10
4.97603
20
-4.05199
11
4.97827
21
-4.05032
0
LINE
8
BLACK
6
CONTINUOUS
10
4.97827
20
-4.05032
11
4.98106
21
-4.05012
0
LINE
8
BLACK
6
CONTINUOUS
10
4.98106
20
-4.05012
11
4.98351
21
-4.05146
0
LINE
8
BLACK
6
CONTINUOUS
10
4.98351
20
-4.05146
11
4.98397
21
-4.05199
0
LINE
8
BLACK
6
CONTINUOUS
10
4.98397
20
-4.05199
11
4.9857
21
-4.0543
0
LINE
8
BLACK
6
CONTINUOUS
10
4.9857
20
-4.0543
11
4.99029
21
-4.05774
0
LINE
8
BLACK
6
CONTINUOUS
10
4.99029
20
-4.05774
11
4.99566
21
-4.05975
0
LINE
8
BLACK
6
CONTINUOUS
10
4.99566
20
-4.05975
11
4.99597
21
-4.05979
0
LINE
8
BLACK
6
CONTINUOUS
10
4.99597
20
-4.05979
11
4.99597
21
-4.05979
0
LINE
8
BLACK
6
CONTINUOUS
10
4.99597
20
-4.05979
11
4.99721
21
-4.05992
0
LINE
8
BLACK
6
CONTINUOUS
10
4.99721
20
-4.05992
11
4.99768
21
-4.05997
0
LINE
8
BLACK
6
CONTINUOUS
10
4.99768
20
-4.05997
11
5.00026
21
-4.06105
0
LINE
8
BLACK
6
CONTINUOUS
10
5.00026
20
-4.06105
11
5.00185
21
-4.06334
0
LINE
8
BLACK
6
CONTINUOUS
10
5.00185
20
-4.06334
11
5.00211
21
-4.06491
0
LINE
8
BLACK
6
CONTINUOUS
10
5.00211
20
-4.06491
11
5.00211
21
-4.12886
0
LINE
8
BLACK
6
CONTINUOUS
10
5.00211
20
-4.12886
11
5.00209
21
-4.1292
0
LINE
8
BLACK
6
CONTINUOUS
10
5.00209
20
-4.1292
11
5.00194
21
-4.13147
0
LINE
8
BLACK
6
CONTINUOUS
10
5.00194
20
-4.13147
11
5.00199
21
-4.13176
0
LINE
8
BLACK
6
CONTINUOUS
10
5.00199
20
-4.13176
11
5.00199
21
-4.13176
0
LINE
8
BLACK
6
CONTINUOUS
10
5.00199
20
-4.13176
11
5.00237
21
-4.13395
0
LINE
8
BLACK
6
CONTINUOUS
10
5.00237
20
-4.13395
11
5.00241
21
-4.13421
0
LINE
8
BLACK
6
CONTINUOUS
10
5.00241
20
-4.13421
11
5.00271
21
-4.1367
0
LINE
8
BLACK
6
CONTINUOUS
10
5.00271
20
-4.1367
11
5.00282
21
-4.13698
0
LINE
8
BLACK
6
CONTINUOUS
10
5.00282
20
-4.13698
11
5.00284
21
-4.13708
0
LINE
8
BLACK
6
CONTINUOUS
10
5.00284
20
-4.13708
11
5.00302
21
-4.13773
0
LINE
8
BLACK
6
CONTINUOUS
10
5.00302
20
-4.13773
11
5.00305
21
-4.13783
0
LINE
8
BLACK
6
CONTINUOUS
10
5.00305
20
-4.13783
11
5.0031
21
-4.13812
0
LINE
8
BLACK
6
CONTINUOUS
10
5.0031
20
-4.13812
11
5.00322
21
-4.1384
0
LINE
8
BLACK
6
CONTINUOUS
10
5.00322
20
-4.1384
11
5.00411
21
-4.14042
0
LINE
8
BLACK
6
CONTINUOUS
10
5.00411
20
-4.14042
11
5.00421
21
-4.14067
0
LINE
8
BLACK
6
CONTINUOUS
10
5.00421
20
-4.14067
11
5.0051
21
-4.14302
0
LINE
8
BLACK
6
CONTINUOUS
10
5.0051
20
-4.14302
11
5.00527
21
-4.14326
0
LINE
8
BLACK
6
CONTINUOUS
10
5.00527
20
-4.14326
11
5.00532
21
-4.14336
0
LINE
8
BLACK
6
CONTINUOUS
10
5.00532
20
-4.14336
11
5.00564
21
-4.14394
0
LINE
8
BLACK
6
CONTINUOUS
10
5.00564
20
-4.14394
11
5.00569
21
-4.14403
0
LINE
8
BLACK
6
CONTINUOUS
10
5.00569
20
-4.14403
11
5.00581
21
-4.1443
0
LINE
8
BLACK
6
CONTINUOUS
10
5.00581
20
-4.1443
11
5.00704
21
-4.1459
0
LINE
8
BLACK
6
CONTINUOUS
10
5.00704
20
-4.1459
11
5.00735
21
-4.1463
0
LINE
8
BLACK
6
CONTINUOUS
10
5.00735
20
-4.1463
11
5.0075
21
-4.14651
0
LINE
8
BLACK
6
CONTINUOUS
10
5.0075
20
-4.14651
11
5.00875
21
-4.14834
0
LINE
8
BLACK
6
CONTINUOUS
10
5.00875
20
-4.14834
11
5.00875
21
-4.14834
0
LINE
8
BLACK
6
CONTINUOUS
10
5.00875
20
-4.14834
11
5.00892
21
-4.14858
0
LINE
8
BLACK
6
CONTINUOUS
10
5.00892
20
-4.14858
11
5.00915
21
-4.14878
0
LINE
8
BLACK
6
CONTINUOUS
10
5.00915
20
-4.14878
11
5.00915
21
-4.14878
0
LINE
8
BLACK
6
CONTINUOUS
10
5.00915
20
-4.14878
11
5.01075
21
-4.15021
0
LINE
8
BLACK
6
CONTINUOUS
10
5.01075
20
-4.15021
11
5.01096
21
-4.15041
0
LINE
8
BLACK
6
CONTINUOUS
10
5.01096
20
-4.15041
11
5.14065
21
-4.2801
0
LINE
8
BLACK
6
CONTINUOUS
10
5.14065
20
-4.2801
11
5.14199
21
-4.28255
0
LINE
8
BLACK
6
CONTINUOUS
10
5.14199
20
-4.28255
11
5.14211
21
-4.28361
0
LINE
8
BLACK
6
CONTINUOUS
10
5.14211
20
-4.28361
11
5.14211
21
-4.33602
0
LINE
8
BLACK
6
CONTINUOUS
10
5.14211
20
-4.33602
11
5.14132
21
-4.3387
0
LINE
8
BLACK
6
CONTINUOUS
10
5.14132
20
-4.3387
11
5.13921
21
-4.34053
0
LINE
8
BLACK
6
CONTINUOUS
10
5.13921
20
-4.34053
11
5.13644
21
-4.34093
0
LINE
8
BLACK
6
CONTINUOUS
10
5.13644
20
-4.34093
11
5.1354
21
-4.34067
0
LINE
8
BLACK
6
CONTINUOUS
10
5.1354
20
-4.34067
11
5.13463
21
-4.34037
0
LINE
8
BLACK
6
CONTINUOUS
10
5.13463
20
-4.34037
11
5.13403
21
-4.34023
0
LINE
8
BLACK
6
CONTINUOUS
10
5.13403
20
-4.34023
11
5.13203
21
-4.34001
0
LINE
8
BLACK
6
CONTINUOUS
10
5.13203
20
-4.34001
11
5.13176
21
-4.34
0
LINE
8
BLACK
6
CONTINUOUS
10
5.13176
20
-4.34
11
5.11071
21
-4.34
0
LINE
8
BLACK
6
CONTINUOUS
10
5.11071
20
-4.34
11
5.11011
21
-4.34018
0
LINE
8
BLACK
6
CONTINUOUS
10
5.11011
20
-4.34018
11
5.11007
21
-4.34023
0
LINE
8
BLACK
6
CONTINUOUS
10
5.11007
20
-4.34023
11
5.11
21
-4.34053
0
LINE
8
BLACK
6
CONTINUOUS
10
5.11
20
-4.34053
11
5.11
21
-4.36
0
LINE
8
BLACK
6
CONTINUOUS
10
5.11
20
-4.36
11
5.13
21
-4.36
0
LINE
8
BLACK
6
CONTINUOUS
10
5.13
20
-4.36
11
5.13
21
-4.42
0
LINE
8
BLACK
6
CONTINUOUS
10
5.13
20
-4.42
11
5.11
21
-4.42
0
LINE
8
BLACK
6
CONTINUOUS
10
5.11
20
-4.42
11
5.11
21
-4.46
0
LINE
8
BLACK
6
CONTINUOUS
10
5.11
20
-4.46
11
5.13
21
-4.46
0
LINE
8
BLACK
6
CONTINUOUS
10
5.13
20
-4.46
11
5.13
21
-4.52
0
LINE
8
BLACK
6
CONTINUOUS
10
5.13
20
-4.52
11
5.11
21
-4.52
0
LINE
8
BLACK
6
CONTINUOUS
10
5.11
20
-4.52
11
5.11
21
-4.53929
0
LINE
8
BLACK
6
CONTINUOUS
10
5.11
20
-4.53929
11
5.11018
21
-4.53989
0
LINE
8
BLACK
6
CONTINUOUS
10
5.11018
20
-4.53989
11
5.11023
21
-4.53993
0
LINE
8
BLACK
6
CONTINUOUS
10
5.11023
20
-4.53993
11
5.11053
21
-4.54
0
LINE
8
BLACK
6
CONTINUOUS
10
5.11053
20
-4.54
11
5.13176
21
-4.54
0
LINE
8
BLACK
6
CONTINUOUS
10
5.13176
20
-4.54
11
5.13203
21
-4.53999
0
LINE
8
BLACK
6
CONTINUOUS
10
5.13203
20
-4.53999
11
5.13403
21
-4.53977
0
LINE
8
BLACK
6
CONTINUOUS
10
5.13403
20
-4.53977
11
5.13463
21
-4.53963
0
LINE
8
BLACK
6
CONTINUOUS
10
5.13463
20
-4.53963
11
5.13937
21
-4.53785
0
LINE
8
BLACK
6
CONTINUOUS
10
5.13937
20
-4.53785
11
5.13999
21
-4.53751
0
LINE
8
BLACK
6
CONTINUOUS
10
5.13999
20
-4.53751
11
5.144
21
-4.5345
0
LINE
8
BLACK
6
CONTINUOUS
10
5.144
20
-4.5345
11
5.1445
21
-4.534
0
LINE
8
BLACK
6
CONTINUOUS
10
5.1445
20
-4.534
11
5.14538
21
-4.53283
0
LINE
8
BLACK
6
CONTINUOUS
10
5.14538
20
-4.53283
11
5.14762
21
-4.53116
0
LINE
8
BLACK
6
CONTINUOUS
10
5.14762
20
-4.53116
11
5.1504
21
-4.53096
0
LINE
8
BLACK
6
CONTINUOUS
10
5.1504
20
-4.53096
11
5.15285
21
-4.5323
0
LINE
8
BLACK
6
CONTINUOUS
10
5.15285
20
-4.5323
11
5.16645
21
-4.5459
0
LINE
8
BLACK
6
CONTINUOUS
10
5.16645
20
-4.5459
11
5.17681
21
-4.55626
0
LINE
8
BLACK
6
CONTINUOUS
10
5.17681
20
-4.55626
11
5.17704
21
-4.55651
0
LINE
8
BLACK
6
CONTINUOUS
10
5.17704
20
-4.55651
11
5.17854
21
-4.55822
0
LINE
8
BLACK
6
CONTINUOUS
10
5.17854
20
-4.55822
11
5.1806
21
-4.55967
0
LINE
8
BLACK
6
CONTINUOUS
10
5.1806
20
-4.55967
11
5.18081
21
-4.55982
0
LINE
8
BLACK
6
CONTINUOUS
10
5.18081
20
-4.55982
11
5.18245
21
-4.56112
0
LINE
8
BLACK
6
CONTINUOUS
10
5.18245
20
-4.56112
11
5.18408
21
-4.56339
0
LINE
8
BLACK
6
CONTINUOUS
10
5.18408
20
-4.56339
11
5.18422
21
-4.56618
0
LINE
8
BLACK
6
CONTINUOUS
10
5.18422
20
-4.56618
11
5.18282
21
-4.5686
0
LINE
8
BLACK
6
CONTINUOUS
10
5.18282
20
-4.5686
11
5.18034
21
-4.56989
0
LINE
8
BLACK
6
CONTINUOUS
10
5.18034
20
-4.56989
11
5.17939
21
-4.56998
0
LINE
8
BLACK
6
CONTINUOUS
10
5.17939
20
-4.56998
11
4.43498
21
-4.56998
0
LINE
8
BLACK
6
CONTINUOUS
10
4.43498
20
-4.56998
11
4.4323
21
-4.56919
0
LINE
8
BLACK
6
CONTINUOUS
10
4.4323
20
-4.56919
11
4.43047
21
-4.56708
0
LINE
8
BLACK
6
CONTINUOUS
10
4.43047
20
-4.56708
11
4.43002
21
-4.56502
0
LINE
8
BLACK
6
CONTINUOUS
10
4.43002
20
-4.56502
11
4.43002
21
-3.83498
0
LINE
8
BLACK
6
CONTINUOUS
10
4.43002
20
-3.83498
11
4.43081
21
-3.8323
0
LINE
8
BLACK
6
CONTINUOUS
10
4.43081
20
-3.8323
11
4.43292
21
-3.83047
0
LINE
8
BLACK
6
CONTINUOUS
10
4.43292
20
-3.83047
11
4.43498
21
-3.83002
0
LINE
8
BLACK
6
CONTINUOUS
10
4.43498
20
-3.83002
11
5.96502
21
-3.83002
0
LINE
8
BLACK
6
CONTINUOUS
10
5.96502
20
-3.83002
11
5.9677
21
-3.83081
0
LINE
8
BLACK
6
CONTINUOUS
10
5.9677
20
-3.83081
11
5.96953
21
-3.83292
0
LINE
8
BLACK
6
CONTINUOUS
10
5.96953
20
-3.83292
11
5.96998
21
-3.83498
0
LINE
8
BLACK
6
CONTINUOUS
10
5.96998
20
-3.83498
11
5.96998
21
-4.56502
0
LINE
8
BLACK
6
CONTINUOUS
10
5.96998
20
-4.56502
11
5.96919
21
-4.5677
0
LINE
8
BLACK
6
CONTINUOUS
10
5.96919
20
-4.5677
11
5.96708
21
-4.56953
0
LINE
8
BLACK
6
CONTINUOUS
10
5.96708
20
-4.56953
11
5.96502
21
-4.56998
0
LINE
8
BLACK
6
CONTINUOUS
10
5.96502
20
-4.56998
11
5.2879
21
-4.56998
0
LINE
8
BLACK
6
CONTINUOUS
10
5.2879
20
-4.56998
11
5.28522
21
-4.56919
0
LINE
8
BLACK
6
CONTINUOUS
10
5.28522
20
-4.56919
11
5.28339
21
-4.56708
0
LINE
8
BLACK
6
CONTINUOUS
10
5.28339
20
-4.56708
11
5.28299
21
-4.56431
0
LINE
8
BLACK
6
CONTINUOUS
10
5.28299
20
-4.56431
11
5.28415
21
-4.56177
0
LINE
8
BLACK
6
CONTINUOUS
10
5.28415
20
-4.56177
11
5.28488
21
-4.56108
0
LINE
8
BLACK
6
CONTINUOUS
10
5.28488
20
-4.56108
11
5.28516
21
-4.56087
0
LINE
8
BLACK
6
CONTINUOUS
10
5.28516
20
-4.56087
11
5.2863
21
-4.56
0
LINE
8
BLACK
6
CONTINUOUS
10
5.2863
20
-4.56
11
5.28651
21
-4.55984
0
LINE
8
BLACK
6
CONTINUOUS
10
5.28651
20
-4.55984
11
5.28834
21
-4.55859
0
LINE
8
BLACK
6
CONTINUOUS
10
5.28834
20
-4.55859
11
5.28834
21
-4.55859
0
LINE
8
BLACK
6
CONTINUOUS
10
5.28834
20
-4.55859
11
5.28858
21
-4.55842
0
LINE
8
BLACK
6
CONTINUOUS
10
5.28858
20
-4.55842
11
5.29021
21
-4.55659
0
LINE
8
BLACK
6
CONTINUOUS
10
5.29021
20
-4.55659
11
5.29041
21
-4.55638
0
LINE
8
BLACK
6
CONTINUOUS
10
5.29041
20
-4.55638
11
5.29892
21
-4.54787
0
LINE
8
BLACK
6
CONTINUOUS
10
5.29892
20
-4.54787
11
5.29917
21
-4.54764
0
LINE
8
BLACK
6
CONTINUOUS
10
5.29917
20
-4.54764
11
5.30066
21
-4.54634
0
LINE
8
BLACK
6
CONTINUOUS
10
5.30066
20
-4.54634
11
5.30066
21
-4.54634
0
LINE
8
BLACK
6
CONTINUOUS
10
5.30066
20
-4.54634
11
5.30088
21
-4.54614
0
LINE
8
BLACK
6
CONTINUOUS
10
5.30088
20
-4.54614
11
5.30233
21
-4.54409
0
LINE
8
BLACK
6
CONTINUOUS
10
5.30233
20
-4.54409
11
5.30248
21
-4.54388
0
LINE
8
BLACK
6
CONTINUOUS
10
5.30248
20
-4.54388
11
5.30403
21
-4.5419
0
LINE
8
BLACK
6
CONTINUOUS
10
5.30403
20
-4.5419
11
5.30403
21
-4.5419
0
LINE
8
BLACK
6
CONTINUOUS
10
5.30403
20
-4.5419
11
5.30404
21
-4.5419
0
LINE
8
BLACK
6
CONTINUOUS
10
5.30404
20
-4.5419
11
5.30599
21
-4.54011
0
LINE
8
BLACK
6
CONTINUOUS
10
5.30599
20
-4.54011
11
5.30888
21
-4.53966
0
LINE
8
BLACK
6
CONTINUOUS
10
5.30888
20
-4.53966
11
5.30935
21
-4.53973
0
LINE
8
BLACK
6
CONTINUOUS
10
5.30935
20
-4.53973
11
5.30935
21
-4.53973
0
LINE
8
BLACK
6
CONTINUOUS
10
5.30935
20
-4.53973
11
5.30953
21
-4.53975
0
LINE
8
BLACK
6
CONTINUOUS
10
5.30953
20
-4.53975
11
5.33068
21
-4.53975
0
LINE
8
BLACK
6
CONTINUOUS
10
5.33068
20
-4.53975
11
5.33077
21
-4.53975
0
LINE
8
BLACK
6
CONTINUOUS
10
5.33077
20
-4.53975
11
5.33327
21
-4.5398
0
LINE
8
BLACK
6
CONTINUOUS
10
5.33327
20
-4.5398
11
5.33451
21
-4.53964
0
LINE
8
BLACK
6
CONTINUOUS
10
5.33451
20
-4.53964
11
5.33878
21
-4.53911
0
LINE
8
BLACK
6
CONTINUOUS
10
5.33878
20
-4.53911
11
5.33878
21
-4.53911
0
LINE
8
BLACK
6
CONTINUOUS
10
5.33878
20
-4.53911
11
5.33896
21
-4.53909
0
LINE
8
BLACK
6
CONTINUOUS
10
5.33896
20
-4.53909
11
5.3444
21
-4.53761
0
LINE
8
BLACK
6
CONTINUOUS
10
5.3444
20
-4.53761
11
5.34456
21
-4.53754
0
LINE
8
BLACK
6
CONTINUOUS
10
5.34456
20
-4.53754
11
5.34456
21
-4.53754
0
LINE
8
BLACK
6
CONTINUOUS
10
5.34456
20
-4.53754
11
5.3495
21
-4.5354
0
LINE
8
BLACK
6
CONTINUOUS
10
5.3495
20
-4.5354
11
5.3495
21
-4.5354
0
LINE
8
BLACK
6
CONTINUOUS
10
5.3495
20
-4.5354
11
5.34966
21
-4.53533
0
LINE
8
BLACK
6
CONTINUOUS
10
5.34966
20
-4.53533
11
5.35447
21
-4.53238
0
LINE
8
BLACK
6
CONTINUOUS
10
5.35447
20
-4.53238
11
5.3546
21
-4.53227
0
LINE
8
BLACK
6
CONTINUOUS
10
5.3546
20
-4.53227
11
5.35874
21
-4.52883
0
LINE
8
BLACK
6
CONTINUOUS
10
5.35874
20
-4.52883
11
5.35874
21
-4.52883
0
LINE
8
BLACK
6
CONTINUOUS
10
5.35874
20
-4.52883
11
5.35888
21
-4.52872
0
LINE
8
BLACK
6
CONTINUOUS
10
5.35888
20
-4.52872
11
5.36266
21
-4.52454
0
LINE
8
BLACK
6
CONTINUOUS
10
5.36266
20
-4.52454
11
5.36424
21
-4.52221
0
LINE
8
BLACK
6
CONTINUOUS
10
5.36424
20
-4.52221
11
5.36639
21
-4.52042
0
LINE
8
BLACK
6
CONTINUOUS
10
5.36639
20
-4.52042
11
5.36835
21
-4.52002
0
LINE
8
BLACK
6
CONTINUOUS
10
5.36835
20
-4.52002
11
5.37886
21
-4.52002
0
LINE
8
BLACK
6
CONTINUOUS
10
5.37886
20
-4.52002
11
5.38154
21
-4.52081
0
LINE
8
BLACK
6
CONTINUOUS
10
5.38154
20
-4.52081
11
5.38177
21
-4.52097
0
LINE
8
BLACK
6
CONTINUOUS
10
5.38177
20
-4.52097
11
5.38202
21
-4.52115
0
LINE
8
BLACK
6
CONTINUOUS
10
5.38202
20
-4.52115
11
5.38225
21
-4.52125
0
LINE
8
BLACK
6
CONTINUOUS
10
5.38225
20
-4.52125
11
5.38226
21
-4.52125
0
LINE
8
BLACK
6
CONTINUOUS
10
5.38226
20
-4.52125
11
5.38814
21
-4.52387
0
LINE
8
BLACK
6
CONTINUOUS
10
5.38814
20
-4.52387
11
5.38889
21
-4.5242
0
LINE
8
BLACK
6
CONTINUOUS
10
5.38889
20
-4.5242
11
5.39256
21
-4.52499
0
LINE
8
BLACK
6
CONTINUOUS
10
5.39256
20
-4.52499
11
5.39599
21
-4.52571
0
LINE
8
BLACK
6
CONTINUOUS
10
5.39599
20
-4.52571
11
5.39599
21
-4.52571
0
LINE
8
BLACK
6
CONTINUOUS
10
5.39599
20
-4.52571
11
5.39624
21
-4.52577
0
LINE
8
BLACK
6
CONTINUOUS
10
5.39624
20
-4.52577
11
5.40376
21
-4.52577
0
LINE
8
BLACK
6
CONTINUOUS
10
5.40376
20
-4.52577
11
5.40401
21
-4.52571
0
LINE
8
BLACK
6
CONTINUOUS
10
5.40401
20
-4.52571
11
5.40401
21
-4.52571
0
LINE
8
BLACK
6
CONTINUOUS
10
5.40401
20
-4.52571
11
5.40744
21
-4.52499
0
LINE
8
BLACK
6
CONTINUOUS
10
5.40744
20
-4.52499
11
5.41111
21
-4.5242
0
LINE
8
BLACK
6
CONTINUOUS
10
5.41111
20
-4.5242
11
5.41186
21
-4.52387
0
LINE
8
BLACK
6
CONTINUOUS
10
5.41186
20
-4.52387
11
5.41774
21
-4.52125
0
LINE
8
BLACK
6
CONTINUOUS
10
5.41774
20
-4.52125
11
5.41775
21
-4.52125
0
LINE
8
BLACK
6
CONTINUOUS
10
5.41775
20
-4.52125
11
5.41798
21
-4.52115
0
LINE
8
BLACK
6
CONTINUOUS
10
5.41798
20
-4.52115
11
5.41823
21
-4.52097
0
LINE
8
BLACK
6
CONTINUOUS
10
5.41823
20
-4.52097
11
5.41825
21
-4.52096
0
LINE
8
BLACK
6
CONTINUOUS
10
5.41825
20
-4.52096
11
5.41842
21
-4.52086
0
LINE
8
BLACK
6
CONTINUOUS
10
5.41842
20
-4.52086
11
5.41844
21
-4.52089
0
LINE
8
BLACK
6
CONTINUOUS
10
5.41844
20
-4.52089
11
5.42086
21
-4.52003
0
LINE
8
BLACK
6
CONTINUOUS
10
5.42086
20
-4.52003
11
5.42114
21
-4.52002
0
LINE
8
BLACK
6
CONTINUOUS
10
5.42114
20
-4.52002
11
5.44161
21
-4.52002
0
LINE
8
BLACK
6
CONTINUOUS
10
5.44161
20
-4.52002
11
5.4443
21
-4.52081
0
LINE
8
BLACK
6
CONTINUOUS
10
5.4443
20
-4.52081
11
5.44583
21
-4.52236
0
LINE
8
BLACK
6
CONTINUOUS
10
5.44583
20
-4.52236
11
5.44645
21
-4.52337
0
LINE
8
BLACK
6
CONTINUOUS
10
5.44645
20
-4.52337
11
5.44657
21
-4.5235
0
LINE
8
BLACK
6
CONTINUOUS
10
5.44657
20
-4.5235
11
5.44657
21
-4.5235
0
LINE
8
BLACK
6
CONTINUOUS
10
5.44657
20
-4.5235
11
5.44744
21
-4.52454
0
LINE
8
BLACK
6
CONTINUOUS
10
5.44744
20
-4.52454
11
5.45008
21
-4.52768
0
LINE
8
BLACK
6
CONTINUOUS
10
5.45008
20
-4.52768
11
5.45436
21
-4.5315
0
LINE
8
BLACK
6
CONTINUOUS
10
5.45436
20
-4.5315
11
5.4545
21
-4.5316
0
LINE
8
BLACK
6
CONTINUOUS
10
5.4545
20
-4.5316
11
5.4545
21
-4.5316
0
LINE
8
BLACK
6
CONTINUOUS
10
5.4545
20
-4.5316
11
5.4589
21
-4.53453
0
LINE
8
BLACK
6
CONTINUOUS
10
5.4589
20
-4.53453
11
5.45905
21
-4.53463
0
LINE
8
BLACK
6
CONTINUOUS
10
5.45905
20
-4.53463
11
5.46423
21
-4.5371
0
LINE
8
BLACK
6
CONTINUOUS
10
5.46423
20
-4.5371
11
5.46439
21
-4.53715
0
LINE
8
BLACK
6
CONTINUOUS
10
5.46439
20
-4.53715
11
5.46439
21
-4.53715
0
LINE
8
BLACK
6
CONTINUOUS
10
5.46439
20
-4.53715
11
5.46563
21
-4.53754
0
LINE
8
BLACK
6
CONTINUOUS
10
5.46563
20
-4.53754
11
5.46961
21
-4.53878
0
LINE
8
BLACK
6
CONTINUOUS
10
5.46961
20
-4.53878
11
5.46978
21
-4.53881
0
LINE
8
BLACK
6
CONTINUOUS
10
5.46978
20
-4.53881
11
5.46978
21
-4.53881
0
LINE
8
BLACK
6
CONTINUOUS
10
5.46978
20
-4.53881
11
5.47096
21
-4.539
0
LINE
8
BLACK
6
CONTINUOUS
10
5.47096
20
-4.539
11
5.47527
21
-4.5397
0
LINE
8
BLACK
6
CONTINUOUS
10
5.47527
20
-4.5397
11
5.4779
21
-4.53974
0
LINE
8
BLACK
6
CONTINUOUS
10
5.4779
20
-4.53974
11
5.48073
21
-4.5398
0
LINE
8
BLACK
6
CONTINUOUS
10
5.48073
20
-4.5398
11
5.48073
21
-4.5398
0
LINE
8
BLACK
6
CONTINUOUS
10
5.48073
20
-4.5398
11
5.48091
21
-4.5398
0
LINE
8
BLACK
6
CONTINUOUS
10
5.48091
20
-4.5398
11
5.48108
21
-4.53978
0
LINE
8
BLACK
6
CONTINUOUS
10
5.48108
20
-4.53978
11
5.48126
21
-4.53977
0
LINE
8
BLACK
6
CONTINUOUS
10
5.48126
20
-4.53977
11
5.48126
21
-4.53977
0
LINE
8
BLACK
6
CONTINUOUS
10
5.48126
20
-4.53977
11
5.48159
21
-4.53975
0
LINE
8
BLACK
6
CONTINUOUS
10
5.48159
20
-4.53975
11
5.50047
21
-4.53975
0
LINE
8
BLACK
6
CONTINUOUS
10
5.50047
20
-4.53975
11
5.50127
21
-4.5397
0
LINE
8
BLACK
6
CONTINUOUS
10
5.50127
20
-4.5397
11
5.50309
21
-4.53957
0
LINE
8
BLACK
6
CONTINUOUS
10
5.50309
20
-4.53957
11
5.50309
21
-4.53957
0
LINE
8
BLACK
6
CONTINUOUS
10
5.50309
20
-4.53957
11
5.50335
21
-4.53955
0
LINE
8
BLACK
6
CONTINUOUS
10
5.50335
20
-4.53955
11
5.50374
21
-4.53943
0
LINE
8
BLACK
6
CONTINUOUS
10
5.50374
20
-4.53943
11
5.50384
21
-4.5394
0
LINE
8
BLACK
6
CONTINUOUS
10
5.50384
20
-4.5394
11
5.50596
21
-4.53935
0
LINE
8
BLACK
6
CONTINUOUS
10
5.50596
20
-4.53935
11
5.50597
21
-4.53928
0
LINE
8
BLACK
6
CONTINUOUS
10
5.50597
20
-4.53928
11
5.50842
21
-4.53955
0
LINE
8
BLACK
6
CONTINUOUS
10
5.50842
20
-4.53955
11
5.55158
21
-4.53955
0
LINE
8
BLACK
6
CONTINUOUS
10
5.55158
20
-4.53955
11
5.55403
21
-4.53928
0
LINE
8
BLACK
6
CONTINUOUS
10
5.55403
20
-4.53928
11
5.5594
21
-4.53727
0
LINE
8
BLACK
6
CONTINUOUS
10
5.5594
20
-4.53727
11
5.56399
21
-4.53383
0
LINE
8
BLACK
6
CONTINUOUS
10
5.56399
20
-4.53383
11
5.56743
21
-4.52924
0
LINE
8
BLACK
6
CONTINUOUS
10
5.56743
20
-4.52924
11
5.56944
21
-4.52387
0
LINE
8
BLACK
6
CONTINUOUS
10
5.56944
20
-4.52387
11
5.5697
21
-4.52142
0
LINE
8
BLACK
6
CONTINUOUS
10
5.5697
20
-4.52142
11
5.5697
21
-4.51953
0
LINE
8
BLACK
6
CONTINUOUS
10
5.5697
20
-4.51953
11
5.55953
21
-4.51953
0
LINE
8
BLACK
6
CONTINUOUS
10
5.55953
20
-4.51953
11
5.55953
21
-4.46047
0
LINE
8
BLACK
6
CONTINUOUS
10
5.55953
20
-4.46047
11
5.5697
21
-4.46047
0
LINE
8
BLACK
6
CONTINUOUS
10
5.5697
20
-4.46047
11
5.5697
21
-4.45858
0
LINE
8
BLACK
6
CONTINUOUS
10
5.5697
20
-4.45858
11
5.56944
21
-4.45613
0
LINE
8
BLACK
6
CONTINUOUS
10
5.56944
20
-4.45613
11
5.56743
21
-4.45076
0
LINE
8
BLACK
6
CONTINUOUS
10
5.56743
20
-4.45076
11
5.56399
21
-4.44617
0
LINE
8
BLACK
6
CONTINUOUS
10
5.56399
20
-4.44617
11
5.56001
21
-4.44319
0
LINE
8
BLACK
6
CONTINUOUS
10
5.56001
20
-4.44319
11
5.55834
21
-4.44095
0
LINE
8
BLACK
6
CONTINUOUS
10
5.55834
20
-4.44095
11
5.55807
21
-4.43913
0
LINE
8
BLACK
6
CONTINUOUS
10
5.55807
20
-4.43913
11
5.55806
21
-4.43913
0
LINE
8
BLACK
6
CONTINUOUS
10
5.55806
20
-4.43913
11
5.55805
21
-4.43896
0
LINE
8
BLACK
6
CONTINUOUS
10
5.55805
20
-4.43896
11
5.55804
21
-4.43888
0
LINE
8
BLACK
6
CONTINUOUS
10
5.55804
20
-4.43888
11
5.55804
21
-4.43883
0
LINE
8
BLACK
6
CONTINUOUS
10
5.55804
20
-4.43883
11
5.55804
21
-4.43883
0
LINE
8
BLACK
6
CONTINUOUS
10
5.55804
20
-4.43883
11
5.55806
21
-4.43853
0
LINE
8
BLACK
6
CONTINUOUS
10
5.55806
20
-4.43853
11
5.55763
21
-4.43605
0
LINE
8
BLACK
6
CONTINUOUS
10
5.55763
20
-4.43605
11
5.55759
21
-4.43579
0
LINE
8
BLACK
6
CONTINUOUS
10
5.55759
20
-4.43579
11
5.55729
21
-4.4333
0
LINE
8
BLACK
6
CONTINUOUS
10
5.55729
20
-4.4333
11
5.55718
21
-4.43302
0
LINE
8
BLACK
6
CONTINUOUS
10
5.55718
20
-4.43302
11
5.55716
21
-4.43292
0
LINE
8
BLACK
6
CONTINUOUS
10
5.55716
20
-4.43292
11
5.55698
21
-4.43227
0
LINE
8
BLACK
6
CONTINUOUS
10
5.55698
20
-4.43227
11
5.55695
21
-4.43217
0
LINE
8
BLACK
6
CONTINUOUS
10
5.55695
20
-4.43217
11
5.5569
21
-4.43188
0
LINE
8
BLACK
6
CONTINUOUS
10
5.5569
20
-4.43188
11
5.55666
21
-4.43133
0
LINE
8
BLACK
6
CONTINUOUS
10
5.55666
20
-4.43133
11
5.55589
21
-4.42957
0
LINE
8
BLACK
6
CONTINUOUS
10
5.55589
20
-4.42957
11
5.55579
21
-4.42933
0
LINE
8
BLACK
6
CONTINUOUS
10
5.55579
20
-4.42933
11
5.55501
21
-4.42726
0
LINE
8
BLACK
6
CONTINUOUS
10
5.55501
20
-4.42726
11
5.55501
21
-4.42726
0
LINE
8
BLACK
6
CONTINUOUS
10
5.55501
20
-4.42726
11
5.5549
21
-4.42698
0
LINE
8
BLACK
6
CONTINUOUS
10
5.5549
20
-4.42698
11
5.55473
21
-4.42674
0
LINE
8
BLACK
6
CONTINUOUS
10
5.55473
20
-4.42674
11
5.55468
21
-4.42664
0
LINE
8
BLACK
6
CONTINUOUS
10
5.55468
20
-4.42664
11
5.55436
21
-4.42606
0
LINE
8
BLACK
6
CONTINUOUS
10
5.55436
20
-4.42606
11
5.55431
21
-4.42597
0
LINE
8
BLACK
6
CONTINUOUS
10
5.55431
20
-4.42597
11
5.55419
21
-4.4257
0
LINE
8
BLACK
6
CONTINUOUS
10
5.55419
20
-4.4257
11
5.554
21
-4.42546
0
LINE
8
BLACK
6
CONTINUOUS
10
5.554
20
-4.42546
11
5.554
21
-4.42546
0
LINE
8
BLACK
6
CONTINUOUS
10
5.554
20
-4.42546
11
5.55265
21
-4.4237
0
LINE
8
BLACK
6
CONTINUOUS
10
5.55265
20
-4.4237
11
5.5525
21
-4.42349
0
LINE
8
BLACK
6
CONTINUOUS
10
5.5525
20
-4.42349
11
5.55125
21
-4.42166
0
LINE
8
BLACK
6
CONTINUOUS
10
5.55125
20
-4.42166
11
5.55125
21
-4.42166
0
LINE
8
BLACK
6
CONTINUOUS
10
5.55125
20
-4.42166
11
5.55108
21
-4.42142
0
LINE
8
BLACK
6
CONTINUOUS
10
5.55108
20
-4.42142
11
5.54925
21
-4.41979
0
LINE
8
BLACK
6
CONTINUOUS
10
5.54925
20
-4.41979
11
5.54904
21
-4.41959
0
LINE
8
BLACK
6
CONTINUOUS
10
5.54904
20
-4.41959
11
5.52053
21
-4.39108
0
LINE
8
BLACK
6
CONTINUOUS
10
5.52053
20
-4.39108
11
5.5203
21
-4.39084
0
LINE
8
BLACK
6
CONTINUOUS
10
5.5203
20
-4.39084
11
5.52028
21
-4.39082
0
LINE
8
BLACK
6
CONTINUOUS
10
5.52028
20
-4.39082
11
5.5188
21
-4.38912
0
LINE
8
BLACK
6
CONTINUOUS
10
5.5188
20
-4.38912
11
5.51674
21
-4.38767
0
LINE
8
BLACK
6
CONTINUOUS
10
5.51674
20
-4.38767
11
5.51653
21
-4.38752
0
LINE
8
BLACK
6
CONTINUOUS
10
5.51653
20
-4.38752
11
5.51479
21
-4.38615
0
LINE
8
BLACK
6
CONTINUOUS
10
5.51479
20
-4.38615
11
5.51456
21
-4.38597
0
LINE
8
BLACK
6
CONTINUOUS
10
5.51456
20
-4.38597
11
5.51428
21
-4.38584
0
LINE
8
BLACK
6
CONTINUOUS
10
5.51428
20
-4.38584
11
5.51419
21
-4.38579
0
LINE
8
BLACK
6
CONTINUOUS
10
5.51419
20
-4.38579
11
5.51362
21
-4.38546
0
LINE
8
BLACK
6
CONTINUOUS
10
5.51362
20
-4.38546
11
5.51352
21
-4.38541
0
LINE
8
BLACK
6
CONTINUOUS
10
5.51352
20
-4.38541
11
5.51328
21
-4.38524
0
LINE
8
BLACK
6
CONTINUOUS
10
5.51328
20
-4.38524
11
5.513
21
-4.38513
0
LINE
8
BLACK
6
CONTINUOUS
10
5.513
20
-4.38513
11
5.513
21
-4.38513
0
LINE
8
BLACK
6
CONTINUOUS
10
5.513
20
-4.38513
11
5.51093
21
-4.38432
0
LINE
8
BLACK
6
CONTINUOUS
10
5.51093
20
-4.38432
11
5.5107
21
-4.38422
0
LINE
8
BLACK
6
CONTINUOUS
10
5.5107
20
-4.38422
11
5.5084
21
-4.38319
0
LINE
8
BLACK
6
CONTINUOUS
10
5.5084
20
-4.38319
11
5.50811
21
-4.38313
0
LINE
8
BLACK
6
CONTINUOUS
10
5.50811
20
-4.38313
11
5.50801
21
-4.3831
0
LINE
8
BLACK
6
CONTINUOUS
10
5.50801
20
-4.3831
11
5.50737
21
-4.38292
0
LINE
8
BLACK
6
CONTINUOUS
10
5.50737
20
-4.38292
11
5.50727
21
-4.38289
0
LINE
8
BLACK
6
CONTINUOUS
10
5.50727
20
-4.38289
11
5.50699
21
-4.38278
0
LINE
8
BLACK
6
CONTINUOUS
10
5.50699
20
-4.38278
11
5.50669
21
-4.38275
0
LINE
8
BLACK
6
CONTINUOUS
10
5.50669
20
-4.38275
11
5.50669
21
-4.38275
0
LINE
8
BLACK
6
CONTINUOUS
10
5.50669
20
-4.38275
11
5.50553
21
-4.38259
0
LINE
8
BLACK
6
CONTINUOUS
10
5.50553
20
-4.38259
11
5.50449
21
-4.38246
0
LINE
8
BLACK
6
CONTINUOUS
10
5.50449
20
-4.38246
11
5.50424
21
-4.38242
0
LINE
8
BLACK
6
CONTINUOUS
10
5.50424
20
-4.38242
11
5.50176
21
-4.38196
0
LINE
8
BLACK
6
CONTINUOUS
10
5.50176
20
-4.38196
11
5.50147
21
-4.38197
0
LINE
8
BLACK
6
CONTINUOUS
10
5.50147
20
-4.38197
11
5.50147
21
-4.38197
0
LINE
8
BLACK
6
CONTINUOUS
10
5.50147
20
-4.38197
11
5.49932
21
-4.3821
0
LINE
8
BLACK
6
CONTINUOUS
10
5.49932
20
-4.3821
11
5.49903
21
-4.38211
0
LINE
8
BLACK
6
CONTINUOUS
10
5.49903
20
-4.38211
11
5.32407
21
-4.38211
0
LINE
8
BLACK
6
CONTINUOUS
10
5.32407
20
-4.38211
11
5.32139
21
-4.38132
0
LINE
8
BLACK
6
CONTINUOUS
10
5.32139
20
-4.38132
11
5.32116
21
-4.38116
0
LINE
8
BLACK
6
CONTINUOUS
10
5.32116
20
-4.38116
11
5.31819
21
-4.37901
0
LINE
8
BLACK
6
CONTINUOUS
10
5.31819
20
-4.37901
11
5.31819
21
-4.37901
0
LINE
8
BLACK
6
CONTINUOUS
10
5.31819
20
-4.37901
11
5.31798
21
-4.37885
0
LINE
8
BLACK
6
CONTINUOUS
10
5.31798
20
-4.37885
11
5.31775
21
-4.37875
0
LINE
8
BLACK
6
CONTINUOUS
10
5.31775
20
-4.37875
11
5.31774
21
-4.37875
0
LINE
8
BLACK
6
CONTINUOUS
10
5.31774
20
-4.37875
11
5.31135
21
-4.3759
0
LINE
8
BLACK
6
CONTINUOUS
10
5.31135
20
-4.3759
11
5.31135
21
-4.3759
0
LINE
8
BLACK
6
CONTINUOUS
10
5.31135
20
-4.3759
11
5.31111
21
-4.3758
0
LINE
8
BLACK
6
CONTINUOUS
10
5.31111
20
-4.3758
11
5.30744
21
-4.37501
0
LINE
8
BLACK
6
CONTINUOUS
10
5.30744
20
-4.37501
11
5.30401
21
-4.37429
0
LINE
8
BLACK
6
CONTINUOUS
10
5.30401
20
-4.37429
11
5.30401
21
-4.37429
0
LINE
8
BLACK
6
CONTINUOUS
10
5.30401
20
-4.37429
11
5.30376
21
-4.37423
0
LINE
8
BLACK
6
CONTINUOUS
10
5.30376
20
-4.37423
11
5.29624
21
-4.37423
0
LINE
8
BLACK
6
CONTINUOUS
10
5.29624
20
-4.37423
11
5.29599
21
-4.37429
0
LINE
8
BLACK
6
CONTINUOUS
10
5.29599
20
-4.37429
11
5.29599
21
-4.37429
0
LINE
8
BLACK
6
CONTINUOUS
10
5.29599
20
-4.37429
11
5.29256
21
-4.37501
0
LINE
8
BLACK
6
CONTINUOUS
10
5.29256
20
-4.37501
11
5.28889
21
-4.3758
0
LINE
8
BLACK
6
CONTINUOUS
10
5.28889
20
-4.3758
11
5.28865
21
-4.3759
0
LINE
8
BLACK
6
CONTINUOUS
10
5.28865
20
-4.3759
11
5.28865
21
-4.3759
0
LINE
8
BLACK
6
CONTINUOUS
10
5.28865
20
-4.3759
11
5.28226
21
-4.37875
0
LINE
8
BLACK
6
CONTINUOUS
10
5.28226
20
-4.37875
11
5.28225
21
-4.37875
0
LINE
8
BLACK
6
CONTINUOUS
10
5.28225
20
-4.37875
11
5.28202
21
-4.37885
0
LINE
8
BLACK
6
CONTINUOUS
10
5.28202
20
-4.37885
11
5.28181
21
-4.37901
0
LINE
8
BLACK
6
CONTINUOUS
10
5.28181
20
-4.37901
11
5.28181
21
-4.37901
0
LINE
8
BLACK
6
CONTINUOUS
10
5.28181
20
-4.37901
11
5.28044
21
-4.38
0
LINE
8
BLACK
6
CONTINUOUS
10
5.28044
20
-4.38
11
5.27593
21
-4.38327
0
LINE
8
BLACK
6
CONTINUOUS
10
5.27593
20
-4.38327
11
5.27576
21
-4.38347
0
LINE
8
BLACK
6
CONTINUOUS
10
5.27576
20
-4.38347
11
5.27576
21
-4.38347
0
LINE
8
BLACK
6
CONTINUOUS
10
5.27576
20
-4.38347
11
5.27367
21
-4.38579
0
LINE
8
BLACK
6
CONTINUOUS
10
5.27367
20
-4.38579
11
5.2709
21
-4.38886
0
LINE
8
BLACK
6
CONTINUOUS
10
5.2709
20
-4.38886
11
5.26714
21
-4.39537
0
LINE
8
BLACK
6
CONTINUOUS
10
5.26714
20
-4.39537
11
5.26482
21
-4.40252
0
LINE
8
BLACK
6
CONTINUOUS
10
5.26482
20
-4.40252
11
5.26404
21
-4.41
0
LINE
8
BLACK
6
CONTINUOUS
10
5.26404
20
-4.41
11
5.26482
21
-4.41748
0
LINE
8
BLACK
6
CONTINUOUS
10
5.26482
20
-4.41748
11
5.26714
21
-4.42463
0
LINE
8
BLACK
6
CONTINUOUS
10
5.26714
20
-4.42463
11
5.26727
21
-4.42485
0
LINE
8
BLACK
6
CONTINUOUS
10
5.26727
20
-4.42485
11
5.26727
21
-4.42485
0
LINE
8
BLACK
6
CONTINUOUS
10
5.26727
20
-4.42485
11
5.26776
21
-4.4257
0
LINE
8
BLACK
6
CONTINUOUS
10
5.26776
20
-4.4257
11
5.2709
21
-4.43114
0
LINE
8
BLACK
6
CONTINUOUS
10
5.2709
20
-4.43114
11
5.27108
21
-4.43133
0
LINE
8
BLACK
6
CONTINUOUS
10
5.27108
20
-4.43133
11
5.27108
21
-4.43133
0
LINE
8
BLACK
6
CONTINUOUS
10
5.27108
20
-4.43133
11
5.27183
21
-4.43217
0
LINE
8
BLACK
6
CONTINUOUS
10
5.27183
20
-4.43217
11
5.27304
21
-4.43469
0
LINE
8
BLACK
6
CONTINUOUS
10
5.27304
20
-4.43469
11
5.2727
21
-4.43747
0
LINE
8
BLACK
6
CONTINUOUS
10
5.2727
20
-4.43747
11
5.27091
21
-4.43961
0
LINE
8
BLACK
6
CONTINUOUS
10
5.27091
20
-4.43961
11
5.26815
21
-4.44045
0
LINE
8
BLACK
6
CONTINUOUS
10
5.26815
20
-4.44045
11
5.25842
21
-4.44045
0
LINE
8
BLACK
6
CONTINUOUS
10
5.25842
20
-4.44045
11
5.25597
21
-4.44072
0
LINE
8
BLACK
6
CONTINUOUS
10
5.25597
20
-4.44072
11
5.2506
21
-4.44273
0
LINE
8
BLACK
6
CONTINUOUS
10
5.2506
20
-4.44273
11
5.24601
21
-4.44617
0
LINE
8
BLACK
6
CONTINUOUS
10
5.24601
20
-4.44617
11
5.24257
21
-4.45076
0
LINE
8
BLACK
6
CONTINUOUS
10
5.24257
20
-4.45076
11
5.24056
21
-4.45613
0
LINE
8
BLACK
6
CONTINUOUS
10
5.24056
20
-4.45613
11
5.2403
21
-4.45858
0
LINE
8
BLACK
6
CONTINUOUS
10
5.2403
20
-4.45858
11
5.2403
21
-4.46047
0
LINE
8
BLACK
6
CONTINUOUS
10
5.2403
20
-4.46047
11
5.25047
21
-4.46047
0
LINE
8
BLACK
6
CONTINUOUS
10
5.25047
20
-4.46047
11
5.25047
21
-4.47819
0
LINE
8
BLACK
6
CONTINUOUS
10
5.25047
20
-4.47819
11
5.26031
21
-4.47819
0
LINE
8
BLACK
6
CONTINUOUS
10
5.26031
20
-4.47819
11
5.26031
21
-4.46047
0
LINE
8
BLACK
6
CONTINUOUS
10
5.26031
20
-4.46047
11
5.29969
21
-4.46047
0
LINE
8
BLACK
6
CONTINUOUS
10
5.29969
20
-4.46047
11
5.29969
21
-4.51953
0
LINE
8
BLACK
6
CONTINUOUS
10
5.29969
20
-4.51953
11
5.28787
21
-4.51953
0
LINE
8
BLACK
6
CONTINUOUS
10
5.28787
20
-4.51953
11
5.28787
21
-4.52736
0
LINE
8
BLACK
6
CONTINUOUS
10
5.28787
20
-4.52736
11
5.28758
21
-4.52864
0
LINE
8
BLACK
6
CONTINUOUS
10
5.28758
20
-4.52864
11
5.28743
21
-4.52994
0
LINE
8
BLACK
6
CONTINUOUS
10
5.28743
20
-4.52994
11
5.28719
21
-4.53033
0
LINE
8
BLACK
6
CONTINUOUS
10
5.28719
20
-4.53033
11
5.28709
21
-4.53077
0
LINE
8
BLACK
6
CONTINUOUS
10
5.28709
20
-4.53077
11
5.28627
21
-4.5318
0
LINE
8
BLACK
6
CONTINUOUS
10
5.28627
20
-4.5318
11
5.28557
21
-4.53291
0
LINE
8
BLACK
6
CONTINUOUS
10
5.28557
20
-4.53291
11
5.27556
21
-4.54292
0
LINE
8
BLACK
6
CONTINUOUS
10
5.27556
20
-4.54292
11
5.27444
21
-4.54362
0
LINE
8
BLACK
6
CONTINUOUS
10
5.27444
20
-4.54362
11
5.27341
21
-4.54444
0
LINE
8
BLACK
6
CONTINUOUS
10
5.27341
20
-4.54444
11
5.27297
21
-4.54454
0
LINE
8
BLACK
6
CONTINUOUS
10
5.27297
20
-4.54454
11
5.27259
21
-4.54478
0
LINE
8
BLACK
6
CONTINUOUS
10
5.27259
20
-4.54478
11
5.27128
21
-4.54492
0
LINE
8
BLACK
6
CONTINUOUS
10
5.27128
20
-4.54492
11
5.27
21
-4.54522
0
LINE
8
BLACK
6
CONTINUOUS
10
5.27
20
-4.54522
11
5.19733
21
-4.54522
0
LINE
8
BLACK
6
CONTINUOUS
10
5.19733
20
-4.54522
11
5.19605
21
-4.54492
0
LINE
8
BLACK
6
CONTINUOUS
10
5.19605
20
-4.54492
11
5.19474
21
-4.54477
0
LINE
8
BLACK
6
CONTINUOUS
10
5.19474
20
-4.54477
11
5.19436
21
-4.54453
0
LINE
8
BLACK
6
CONTINUOUS
10
5.19436
20
-4.54453
11
5.19392
21
-4.54443
0
LINE
8
BLACK
6
CONTINUOUS
10
5.19392
20
-4.54443
11
5.19289
21
-4.54361
0
LINE
8
BLACK
6
CONTINUOUS
10
5.19289
20
-4.54361
11
5.19177
21
-4.54291
0
LINE
8
BLACK
6
CONTINUOUS
10
5.19177
20
-4.54291
11
5.16442
21
-4.51556
0
LINE
8
BLACK
6
CONTINUOUS
10
5.16442
20
-4.51556
11
5.16372
21
-4.51444
0
LINE
8
BLACK
6
CONTINUOUS
10
5.16372
20
-4.51444
11
5.1629
21
-4.51341
0
LINE
8
BLACK
6
CONTINUOUS
10
5.1629
20
-4.51341
11
5.1628
21
-4.51297
0
LINE
8
BLACK
6
CONTINUOUS
10
5.1628
20
-4.51297
11
5.16256
21
-4.51259
0
LINE
8
BLACK
6
CONTINUOUS
10
5.16256
20
-4.51259
11
5.16242
21
-4.51128
0
LINE
8
BLACK
6
CONTINUOUS
10
5.16242
20
-4.51128
11
5.16213
21
-4.51
0
LINE
8
BLACK
6
CONTINUOUS
10
5.16213
20
-4.51
11
5.16213
21
-4.43344
0
LINE
8
BLACK
6
CONTINUOUS
10
5.16213
20
-4.43344
11
5.16074
21
-4.43274
0
LINE
8
BLACK
6
CONTINUOUS
10
5.16074
20
-4.43274
11
5.15726
21
-4.42926
0
LINE
8
BLACK
6
CONTINUOUS
10
5.15726
20
-4.42926
11
5.15502
21
-4.42487
0
LINE
8
BLACK
6
CONTINUOUS
10
5.15502
20
-4.42487
11
5.15425
21
-4.42
0
LINE
8
BLACK
6
CONTINUOUS
10
5.15425
20
-4.42
11
5.15502
21
-4.41513
0
LINE
8
BLACK
6
CONTINUOUS
10
5.15502
20
-4.41513
11
5.15726
21
-4.41074
0
LINE
8
BLACK
6
CONTINUOUS
10
5.15726
20
-4.41074
11
5.16074
21
-4.40726
0
LINE
8
BLACK
6
CONTINUOUS
10
5.16074
20
-4.40726
11
5.16213
21
-4.40656
0
LINE
8
BLACK
6
CONTINUOUS
10
5.16213
20
-4.40656
11
5.16213
21
-4.27326
0
LINE
8
BLACK
6
CONTINUOUS
10
5.16213
20
-4.27326
11
5.02442
21
-4.13556
0
LINE
8
BLACK
6
CONTINUOUS
10
5.02442
20
-4.13556
11
5.02372
21
-4.13444
0
LINE
8
BLACK
6
CONTINUOUS
10
5.02372
20
-4.13444
11
5.0229
21
-4.13341
0
LINE
8
BLACK
6
CONTINUOUS
10
5.0229
20
-4.13341
11
5.0228
21
-4.13297
0
LINE
8
BLACK
6
CONTINUOUS
10
5.0228
20
-4.13297
11
5.02256
21
-4.13259
0
LINE
8
BLACK
6
CONTINUOUS
10
5.02256
20
-4.13259
11
5.02242
21
-4.13128
0
LINE
8
BLACK
6
CONTINUOUS
10
5.02242
20
-4.13128
11
5.02213
21
-4.13
0
LINE
8
BLACK
6
CONTINUOUS
10
5.02213
20
-4.13
11
5.02213
21
-4.04
0
LINE
8
BLACK
6
CONTINUOUS
10
5.02213
20
-4.04
11
5
21
-4.04
0
LINE
8
BLACK
6
CONTINUOUS
10
5
20
-4.04
11
5
21
-3.98
0
LINE
8
BLACK
6
CONTINUOUS
10
5
20
-3.98
11
5.06
21
-3.98
0
LINE
8
BLACK
6
CONTINUOUS
10
5.06
20
-3.98
11
5.06
21
-4.04
0
LINE
8
BLACK
6
CONTINUOUS
10
5.06
20
-4.04
11
5.03787
21
-4.04
0
LINE
8
BLACK
6
CONTINUOUS
10
5.03787
20
-4.04
11
5.03787
21
-4.12674
0
LINE
8
BLACK
6
CONTINUOUS
10
5.03787
20
-4.12674
11
5.17558
21
-4.26444
0
LINE
8
BLACK
6
CONTINUOUS
10
5.17558
20
-4.26444
11
5.17628
21
-4.26556
0
LINE
8
BLACK
6
CONTINUOUS
10
5.17628
20
-4.26556
11
5.1771
21
-4.26659
0
LINE
8
BLACK
6
CONTINUOUS
10
5.1771
20
-4.26659
11
5.1772
21
-4.26703
0
LINE
8
BLACK
6
CONTINUOUS
10
5.1772
20
-4.26703
11
5.17744
21
-4.26741
0
LINE
8
BLACK
6
CONTINUOUS
10
5.17744
20
-4.26741
11
5.17758
21
-4.26872
0
LINE
8
BLACK
6
CONTINUOUS
10
5.17758
20
-4.26872
11
5.17787
21
-4.27
0
LINE
8
BLACK
6
CONTINUOUS
10
5.17787
20
-4.27
11
5.17787
21
-4.40656
0
LINE
8
BLACK
6
CONTINUOUS
10
5.17787
20
-4.40656
11
5.17926
21
-4.40726
0
LINE
8
BLACK
6
CONTINUOUS
10
5.17926
20
-4.40726
11
5.18274
21
-4.41074
0
LINE
8
BLACK
6
CONTINUOUS
10
5.18274
20
-4.41074
11
5.18498
21
-4.41513
0
LINE
8
BLACK
6
CONTINUOUS
10
5.18498
20
-4.41513
11
5.18575
21
-4.42
0
LINE
8
BLACK
6
CONTINUOUS
10
5.18575
20
-4.42
11
5.18498
21
-4.42487
0
LINE
8
BLACK
6
CONTINUOUS
10
5.18498
20
-4.42487
11
5.18274
21
-4.42926
0
LINE
8
BLACK
6
CONTINUOUS
10
5.18274
20
-4.42926
11
5.17926
21
-4.43274
0
LINE
8
BLACK
6
CONTINUOUS
10
5.17926
20
-4.43274
11
5.17787
21
-4.43344
0
LINE
8
BLACK
6
CONTINUOUS
10
5.17787
20
-4.43344
11
5.17787
21
-4.50674
0
LINE
8
BLACK
6
CONTINUOUS
10
5.17787
20
-4.50674
11
5.2006
21
-4.52947
0
LINE
8
BLACK
6
CONTINUOUS
10
5.2006
20
-4.52947
11
5.26674
21
-4.52947
0
LINE
8
BLACK
6
CONTINUOUS
10
5.26674
20
-4.52947
11
5.27213
21
-4.52408
0
LINE
8
BLACK
6
CONTINUOUS
10
5.27213
20
-4.52408
11
5.27213
21
-4.51953
0
LINE
8
BLACK
6
CONTINUOUS
10
5.27213
20
-4.51953
11
5.26031
21
-4.51953
0
LINE
8
BLACK
6
CONTINUOUS
10
5.26031
20
-4.51953
11
5.26031
21
-4.50181
0
LINE
8
BLACK
6
CONTINUOUS
10
5.26031
20
-4.50181
11
5.25047
21
-4.50181
0
LINE
8
BLACK
6
CONTINUOUS
10
5.25047
20
-4.50181
11
5.25047
21
-4.51953
0
LINE
8
BLACK
6
CONTINUOUS
10
5.25047
20
-4.51953
11
5.22882
21
-4.51953
0
LINE
8
BLACK
6
CONTINUOUS
10
5.22882
20
-4.51953
11
5.22882
21
-4.51933
0
LINE
8
BLACK
6
CONTINUOUS
10
5.22882
20
-4.51933
11
5.22567
21
-4.51927
0
LINE
8
BLACK
6
CONTINUOUS
10
5.22567
20
-4.51927
11
5.22034
21
-4.51761
0
LINE
8
BLACK
6
CONTINUOUS
10
5.22034
20
-4.51761
11
5.2157
21
-4.51452
0
LINE
8
BLACK
6
CONTINUOUS
10
5.2157
20
-4.51452
11
5.21211
21
-4.51024
0
LINE
8
BLACK
6
CONTINUOUS
10
5.21211
20
-4.51024
11
5.21176
21
-4.50945
0
LINE
8
BLACK
6
CONTINUOUS
10
5.21176
20
-4.50945
11
5.21095
21
-4.50945
0
LINE
8
BLACK
6
CONTINUOUS
10
5.21095
20
-4.50945
11
5.20827
21
-4.50866
0
LINE
8
BLACK
6
CONTINUOUS
10
5.20827
20
-4.50866
11
5.20744
21
-4.508
0
LINE
8
BLACK
6
CONTINUOUS
10
5.20744
20
-4.508
11
5.19935
21
-4.4999
0
LINE
8
BLACK
6
CONTINUOUS
10
5.19935
20
-4.4999
11
5.19801
21
-4.49745
0
LINE
8
BLACK
6
CONTINUOUS
10
5.19801
20
-4.49745
11
5.19789
21
-4.49639
0
LINE
8
BLACK
6
CONTINUOUS
10
5.19789
20
-4.49639
11
5.19789
21
-4.44436
0
LINE
8
BLACK
6
CONTINUOUS
10
5.19789
20
-4.44436
11
5.19868
21
-4.44168
0
LINE
8
BLACK
6
CONTINUOUS
10
5.19868
20
-4.44168
11
5.19884
21
-4.44144
0
LINE
8
BLACK
6
CONTINUOUS
10
5.19884
20
-4.44144
11
5.19892
21
-4.44133
0
LINE
8
BLACK
6
CONTINUOUS
10
5.19892
20
-4.44133
11
5.1991
21
-4.44114
0
LINE
8
BLACK
6
CONTINUOUS
10
5.1991
20
-4.44114
11
5.20026
21
-4.43913
0
LINE
8
BLACK
6
CONTINUOUS
10
5.20026
20
-4.43913
11
5.20273
21
-4.43485
0
LINE
8
BLACK
6
CONTINUOUS
10
5.20273
20
-4.43485
11
5.20273
21
-4.43485
0
LINE
8
BLACK
6
CONTINUOUS
10
5.20273
20
-4.43485
11
5.20286
21
-4.43463
0
LINE
8
BLACK
6
CONTINUOUS
10
5.20286
20
-4.43463
11
5.20518
21
-4.42748
0
LINE
8
BLACK
6
CONTINUOUS
10
5.20518
20
-4.42748
11
5.20527
21
-4.42664
0
LINE
8
BLACK
6
CONTINUOUS
10
5.20527
20
-4.42664
11
5.20594
21
-4.42026
0
LINE
8
BLACK
6
CONTINUOUS
10
5.20594
20
-4.42026
11
5.20596
21
-4.42
0
LINE
8
BLACK
6
CONTINUOUS
10
5.20596
20
-4.42
11
5.20518
21
-4.41252
0
LINE
8
BLACK
6
CONTINUOUS
10
5.20518
20
-4.41252
11
5.20286
21
-4.40537
0
LINE
8
BLACK
6
CONTINUOUS
10
5.20286
20
-4.40537
11
5.1991
21
-4.39886
0
LINE
8
BLACK
6
CONTINUOUS
10
5.1991
20
-4.39886
11
5.19892
21
-4.39867
0
LINE
8
BLACK
6
CONTINUOUS
10
5.19892
20
-4.39867
11
5.19884
21
-4.39856
0
LINE
8
BLACK
6
CONTINUOUS
10
5.19884
20
-4.39856
11
5.1979
21
-4.39592
0
LINE
8
BLACK
6
CONTINUOUS
10
5.1979
20
-4.39592
11
5.19789
21
-4.39564
0
LINE
8
BLACK
6
CONTINUOUS
10
5.19789
20
-4.39564
11
5.19789
21
-4.27114
0
LINE
8
BLACK
6
CONTINUOUS
10
5.19789
20
-4.27114
11
5.19791
21
-4.2708
0
LINE
8
BLACK
6
CONTINUOUS
10
5.19791
20
-4.2708
11
5.19804
21
-4.26883
0
LINE
8
BLACK
6
CONTINUOUS
10
5.19804
20
-4.26883
11
5.19804
21
-4.26883
0
LINE
8
BLACK
6
CONTINUOUS
10
5.19804
20
-4.26883
11
5.19806
21
-4.26853
0
LINE
8
BLACK
6
CONTINUOUS
10
5.19806
20
-4.26853
11
5.19763
21
-4.26605
0
LINE
8
BLACK
6
CONTINUOUS
10
5.19763
20
-4.26605
11
5.19759
21
-4.26579
0
LINE
8
BLACK
6
CONTINUOUS
10
5.19759
20
-4.26579
11
5.19732
21
-4.26359
0
LINE
8
BLACK
6
CONTINUOUS
10
5.19732
20
-4.26359
11
5.19729
21
-4.2633
0
LINE
8
BLACK
6
CONTINUOUS
10
5.19729
20
-4.2633
11
5.19718
21
-4.26302
0
LINE
8
BLACK
6
CONTINUOUS
10
5.19718
20
-4.26302
11
5.19716
21
-4.26292
0
LINE
8
BLACK
6
CONTINUOUS
10
5.19716
20
-4.26292
11
5.19698
21
-4.26227
0
LINE
8
BLACK
6
CONTINUOUS
10
5.19698
20
-4.26227
11
5.19695
21
-4.26217
0
LINE
8
BLACK
6
CONTINUOUS
10
5.19695
20
-4.26217
11
5.1969
21
-4.26188
0
LINE
8
BLACK
6
CONTINUOUS
10
5.1969
20
-4.26188
11
5.19589
21
-4.25958
0
LINE
8
BLACK
6
CONTINUOUS
10
5.19589
20
-4.25958
11
5.19579
21
-4.25933
0
LINE
8
BLACK
6
CONTINUOUS
10
5.19579
20
-4.25933
11
5.19501
21
-4.25726
0
LINE
8
BLACK
6
CONTINUOUS
10
5.19501
20
-4.25726
11
5.19501
21
-4.25726
0
LINE
8
BLACK
6
CONTINUOUS
10
5.19501
20
-4.25726
11
5.1949
21
-4.25698
0
LINE
8
BLACK
6
CONTINUOUS
10
5.1949
20
-4.25698
11
5.19473
21
-4.25674
0
LINE
8
BLACK
6
CONTINUOUS
10
5.19473
20
-4.25674
11
5.19468
21
-4.25664
0
LINE
8
BLACK
6
CONTINUOUS
10
5.19468
20
-4.25664
11
5.19436
21
-4.25606
0
LINE
8
BLACK
6
CONTINUOUS
10
5.19436
20
-4.25606
11
5.19431
21
-4.25597
0
LINE
8
BLACK
6
CONTINUOUS
10
5.19431
20
-4.25597
11
5.19419
21
-4.2557
0
LINE
8
BLACK
6
CONTINUOUS
10
5.19419
20
-4.2557
11
5.194
21
-4.25546
0
LINE
8
BLACK
6
CONTINUOUS
10
5.194
20
-4.25546
11
5.194
21
-4.25546
0
LINE
8
BLACK
6
CONTINUOUS
10
5.194
20
-4.25546
11
5.19265
21
-4.2537
0
LINE
8
BLACK
6
CONTINUOUS
10
5.19265
20
-4.2537
11
5.1925
21
-4.25349
0
LINE
8
BLACK
6
CONTINUOUS
10
5.1925
20
-4.25349
11
5.19125
21
-4.25166
0
LINE
8
BLACK
6
CONTINUOUS
10
5.19125
20
-4.25166
11
5.19125
21
-4.25166
0
LINE
8
BLACK
6
CONTINUOUS
10
5.19125
20
-4.25166
11
5.19108
21
-4.25142
0
LINE
8
BLACK
6
CONTINUOUS
10
5.19108
20
-4.25142
11
5.18925
21
-4.24979
0
LINE
8
BLACK
6
CONTINUOUS
10
5.18925
20
-4.24979
11
5.18904
21
-4.24959
0
LINE
8
BLACK
6
CONTINUOUS
10
5.18904
20
-4.24959
11
5.05935
21
-4.1199
0
LINE
8
BLACK
6
CONTINUOUS
10
5.05935
20
-4.1199
11
5.05801
21
-4.11745
0
LINE
8
BLACK
6
CONTINUOUS
10
5.05801
20
-4.11745
11
5.05789
21
-4.11639
0
LINE
8
BLACK
6
CONTINUOUS
10
5.05789
20
-4.11639
11
5.05789
21
-4.06491
0
LINE
8
BLACK
6
CONTINUOUS
10
5.05789
20
-4.06491
11
5.05868
21
-4.06222
0
LINE
8
BLACK
6
CONTINUOUS
10
5.05868
20
-4.06222
11
5.06079
21
-4.06039
0
LINE
8
BLACK
6
CONTINUOUS
10
5.06079
20
-4.06039
11
5.06232
21
-4.05997
0
LINE
8
BLACK
6
CONTINUOUS
10
5.06232
20
-4.05997
11
5.06279
21
-4.05992
0
LINE
8
BLACK
6
CONTINUOUS
10
5.06279
20
-4.05992
11
5.06403
21
-4.05979
0
LINE
8
BLACK
6
CONTINUOUS
10
5.06403
20
-4.05979
11
5.06403
21
-4.05979
0
LINE
8
BLACK
6
CONTINUOUS
10
5.06403
20
-4.05979
11
5.06434
21
-4.05975
0
LINE
8
BLACK
6
CONTINUOUS
10
5.06434
20
-4.05975
11
5.06971
21
-4.05774
0
LINE
8
BLACK
6
CONTINUOUS
10
5.06971
20
-4.05774
11
5.0743
21
-4.0543
0
LINE
8
BLACK
6
CONTINUOUS
10
5.0743
20
-4.0543
11
5.07774
21
-4.04971
0
LINE
8
BLACK
6
CONTINUOUS
10
5.07774
20
-4.04971
11
5.07975
21
-4.04434
0
LINE
8
BLACK
6
CONTINUOUS
10
5.07975
20
-4.04434
11
5.08002
21
-4.0419
0
LINE
8
BLACK
6
CONTINUOUS
10
5.08002
20
-4.0419
11
5.08002
21
-3.9781
0
LINE
8
BLACK
6
CONTINUOUS
10
5.08002
20
-3.9781
11
5.07975
21
-3.97566
0
LINE
8
BLACK
6
CONTINUOUS
10
5.07975
20
-3.97566
11
5.07774
21
-3.97029
0
LINE
8
BLACK
6
CONTINUOUS
10
5.07774
20
-3.97029
11
5.0743
21
-3.9657
0
LINE
8
BLACK
6
CONTINUOUS
10
5.0743
20
-3.9657
11
5.07198
21
-3.96396
0
LINE
8
BLACK
6
CONTINUOUS
10
5.07198
20
-3.96396
11
5.0703
21
-3.96172
0
LINE
8
BLACK
6
CONTINUOUS
10
5.0703
20
-3.96172
11
5.07011
21
-3.95893
0
LINE
8
BLACK
6
CONTINUOUS
10
5.07011
20
-3.95893
11
5.07145
21
-3.95648
0
LINE
8
BLACK
6
CONTINUOUS
10
5.07145
20
-3.95648
11
5.07198
21
-3.95602
0
LINE
8
BLACK
6
CONTINUOUS
10
5.07198
20
-3.95602
11
5.074
21
-3.9545
0
LINE
8
BLACK
6
CONTINUOUS
10
5.074
20
-3.9545
11
5.0745
21
-3.954
0
LINE
8
BLACK
6
CONTINUOUS
10
5.0745
20
-3.954
11
5.07751
21
-3.94999
0
LINE
8
BLACK
6
CONTINUOUS
10
5.07751
20
-3.94999
11
5.07785
21
-3.94937
0
LINE
8
BLACK
6
CONTINUOUS
10
5.07785
20
-3.94937
11
5.07963
21
-3.94463
0
LINE
8
BLACK
6
CONTINUOUS
10
5.07963
20
-3.94463
11
5.07977
21
-3.94403
0
LINE
8
BLACK
6
CONTINUOUS
10
5.07977
20
-3.94403
11
5.07999
21
-3.94203
0
LINE
8
BLACK
6
CONTINUOUS
10
5.07999
20
-3.94203
11
5.08
21
-3.94176
0
LINE
8
BLACK
6
CONTINUOUS
10
5.08
20
-3.94176
11
5.08
21
-3.92071
0
LINE
8
BLACK
6
CONTINUOUS
10
5.08
20
-3.92071
11
5.07982
21
-3.92011
0
LINE
8
BLACK
6
CONTINUOUS
10
5.07982
20
-3.92011
11
5.07977
21
-3.92007
0
LINE
8
BLACK
6
CONTINUOUS
10
5.07977
20
-3.92007
11
5.07947
21
-3.92
0
LINE
8
BLACK
6
CONTINUOUS
10
5.07947
20
-3.92
11
5.06
21
-3.92
0
LINE
8
BLACK
6
CONTINUOUS
10
5.06
20
-3.92
11
5.06
21
-3.94
0
LINE
8
BLACK
6
CONTINUOUS
10
5.06
20
-3.94
11
5
21
-3.94
0
LINE
8
BLACK
6
CONTINUOUS
10
4.85023
20
-4.52403
11
4.85037
21
-4.52463
0
LINE
8
BLACK
6
CONTINUOUS
10
4.85037
20
-4.52463
11
4.85215
21
-4.52937
0
LINE
8
BLACK
6
CONTINUOUS
10
4.85215
20
-4.52937
11
4.85249
21
-4.52999
0
LINE
8
BLACK
6
CONTINUOUS
10
4.85249
20
-4.52999
11
4.8555
21
-4.534
0
LINE
8
BLACK
6
CONTINUOUS
10
4.8555
20
-4.534
11
4.856
21
-4.5345
0
LINE
8
BLACK
6
CONTINUOUS
10
4.856
20
-4.5345
11
4.86001
21
-4.53751
0
LINE
8
BLACK
6
CONTINUOUS
10
4.86001
20
-4.53751
11
4.86063
21
-4.53785
0
LINE
8
BLACK
6
CONTINUOUS
10
4.86063
20
-4.53785
11
4.86537
21
-4.53963
0
LINE
8
BLACK
6
CONTINUOUS
10
4.86537
20
-4.53963
11
4.86597
21
-4.53977
0
LINE
8
BLACK
6
CONTINUOUS
10
4.86597
20
-4.53977
11
4.86797
21
-4.53999
0
LINE
8
BLACK
6
CONTINUOUS
10
4.86797
20
-4.53999
11
4.86824
21
-4.54
0
LINE
8
BLACK
6
CONTINUOUS
10
4.86824
20
-4.54
11
4.88929
21
-4.54
0
LINE
8
BLACK
6
CONTINUOUS
10
4.88929
20
-4.54
11
4.88989
21
-4.53982
0
LINE
8
BLACK
6
CONTINUOUS
10
4.88989
20
-4.53982
11
4.88993
21
-4.53977
0
LINE
8
BLACK
6
CONTINUOUS
10
4.88993
20
-4.53977
11
4.89
21
-4.53947
0
LINE
8
BLACK
6
CONTINUOUS
10
4.89
20
-4.53947
11
4.89
21
-4.52
0
LINE
8
BLACK
6
CONTINUOUS
10
4.89
20
-4.52
11
4.87
21
-4.52
0
LINE
8
BLACK
6
CONTINUOUS
10
4.87
20
-4.52
11
4.87
21
-4.5
0
LINE
8
BLACK
6
CONTINUOUS
10
4.87
20
-4.5
11
4.85071
21
-4.5
0
LINE
8
BLACK
6
CONTINUOUS
10
4.85071
20
-4.5
11
4.85011
21
-4.50018
0
LINE
8
BLACK
6
CONTINUOUS
10
4.85011
20
-4.50018
11
4.85007
21
-4.50023
0
LINE
8
BLACK
6
CONTINUOUS
10
4.85007
20
-4.50023
11
4.85
21
-4.50053
0
LINE
8
BLACK
6
CONTINUOUS
10
4.85
20
-4.50053
11
4.85
21
-4.52176
0
LINE
8
BLACK
6
CONTINUOUS
10
4.85
20
-4.52176
11
4.85001
21
-4.52203
0
LINE
8
BLACK
6
CONTINUOUS
10
4.85001
20
-4.52203
11
4.85023
21
-4.52403
0
LINE
8
BLACK
6
CONTINUOUS
10
4.85023
20
-4.47993
11
4.85053
21
-4.48
0
LINE
8
BLACK
6
CONTINUOUS
10
4.85053
20
-4.48
11
4.87
21
-4.48
0
LINE
8
BLACK
6
CONTINUOUS
10
4.87
20
-4.48
11
4.87
21
-4.46
0
LINE
8
BLACK
6
CONTINUOUS
10
4.87
20
-4.46
11
4.89
21
-4.46
0
LINE
8
BLACK
6
CONTINUOUS
10
4.89
20
-4.46
11
4.89
21
-4.42
0
LINE
8
BLACK
6
CONTINUOUS
10
4.89
20
-4.42
11
4.87
21
-4.42
0
LINE
8
BLACK
6
CONTINUOUS
10
4.87
20
-4.42
11
4.87
21
-4.4
0
LINE
8
BLACK
6
CONTINUOUS
10
4.87
20
-4.4
11
4.85071
21
-4.4
0
LINE
8
BLACK
6
CONTINUOUS
10
4.85071
20
-4.4
11
4.85011
21
-4.40018
0
LINE
8
BLACK
6
CONTINUOUS
10
4.85011
20
-4.40018
11
4.85007
21
-4.40023
0
LINE
8
BLACK
6
CONTINUOUS
10
4.85007
20
-4.40023
11
4.85
21
-4.40053
0
LINE
8
BLACK
6
CONTINUOUS
10
4.85
20
-4.40053
11
4.85
21
-4.42176
0
LINE
8
BLACK
6
CONTINUOUS
10
4.85
20
-4.42176
11
4.85001
21
-4.42203
0
LINE
8
BLACK
6
CONTINUOUS
10
4.85001
20
-4.42203
11
4.85023
21
-4.42403
0
LINE
8
BLACK
6
CONTINUOUS
10
4.85023
20
-4.42403
11
4.85037
21
-4.42463
0
LINE
8
BLACK
6
CONTINUOUS
10
4.85037
20
-4.42463
11
4.85215
21
-4.42937
0
LINE
8
BLACK
6
CONTINUOUS
10
4.85215
20
-4.42937
11
4.85249
21
-4.42999
0
LINE
8
BLACK
6
CONTINUOUS
10
4.85249
20
-4.42999
11
4.8555
21
-4.434
0
LINE
8
BLACK
6
CONTINUOUS
10
4.8555
20
-4.434
11
4.856
21
-4.4345
0
LINE
8
BLACK
6
CONTINUOUS
10
4.856
20
-4.4345
11
4.85804
21
-4.43603
0
LINE
8
BLACK
6
CONTINUOUS
10
4.85804
20
-4.43603
11
4.85971
21
-4.43827
0
LINE
8
BLACK
6
CONTINUOUS
10
4.85971
20
-4.43827
11
4.85991
21
-4.44106
0
LINE
8
BLACK
6
CONTINUOUS
10
4.85991
20
-4.44106
11
4.85857
21
-4.44351
0
LINE
8
BLACK
6
CONTINUOUS
10
4.85857
20
-4.44351
11
4.85804
21
-4.44397
0
LINE
8
BLACK
6
CONTINUOUS
10
4.85804
20
-4.44397
11
4.856
21
-4.4455
0
LINE
8
BLACK
6
CONTINUOUS
10
4.856
20
-4.4455
11
4.8555
21
-4.446
0
LINE
8
BLACK
6
CONTINUOUS
10
4.8555
20
-4.446
11
4.85249
21
-4.45001
0
LINE
8
BLACK
6
CONTINUOUS
10
4.85249
20
-4.45001
11
4.85215
21
-4.45063
0
LINE
8
BLACK
6
CONTINUOUS
10
4.85215
20
-4.45063
11
4.85037
21
-4.45537
0
LINE
8
BLACK
6
CONTINUOUS
10
4.85037
20
-4.45537
11
4.85023
21
-4.45597
0
LINE
8
BLACK
6
CONTINUOUS
10
4.85023
20
-4.45597
11
4.85001
21
-4.45797
0
LINE
8
BLACK
6
CONTINUOUS
10
4.85001
20
-4.45797
11
4.85
21
-4.45824
0
LINE
8
BLACK
6
CONTINUOUS
10
4.85
20
-4.45824
11
4.85
21
-4.47929
0
LINE
8
BLACK
6
CONTINUOUS
10
4.85
20
-4.47929
11
4.85018
21
-4.47989
0
LINE
8
BLACK
6
CONTINUOUS
10
4.85018
20
-4.47989
11
4.85023
21
-4.47993
0
LINE
8
BLACK
6
CONTINUOUS
10
4.85023
20
-4.37993
11
4.85053
21
-4.38
0
LINE
8
BLACK
6
CONTINUOUS
10
4.85053
20
-4.38
11
4.87
21
-4.38
0
LINE
8
BLACK
6
CONTINUOUS
10
4.87
20
-4.38
11
4.87
21
-4.36
0
LINE
8
BLACK
6
CONTINUOUS
10
4.87
20
-4.36
11
4.89
21
-4.36
0
LINE
8
BLACK
6
CONTINUOUS
10
4.89
20
-4.36
11
4.89
21
-4.34071
0
LINE
8
BLACK
6
CONTINUOUS
10
4.89
20
-4.34071
11
4.88982
21
-4.34011
0
LINE
8
BLACK
6
CONTINUOUS
10
4.88982
20
-4.34011
11
4.88977
21
-4.34007
0
LINE
8
BLACK
6
CONTINUOUS
10
4.88977
20
-4.34007
11
4.88947
21
-4.34
0
LINE
8
BLACK
6
CONTINUOUS
10
4.88947
20
-4.34
11
4.86824
21
-4.34
0
LINE
8
BLACK
6
CONTINUOUS
10
4.86824
20
-4.34
11
4.86797
21
-4.34001
0
LINE
8
BLACK
6
CONTINUOUS
10
4.86797
20
-4.34001
11
4.86597
21
-4.34023
0
LINE
8
BLACK
6
CONTINUOUS
10
4.86597
20
-4.34023
11
4.86537
21
-4.34037
0
LINE
8
BLACK
6
CONTINUOUS
10
4.86537
20
-4.34037
11
4.86063
21
-4.34215
0
LINE
8
BLACK
6
CONTINUOUS
10
4.86063
20
-4.34215
11
4.86001
21
-4.34249
0
LINE
8
BLACK
6
CONTINUOUS
10
4.86001
20
-4.34249
11
4.856
21
-4.3455
0
LINE
8
BLACK
6
CONTINUOUS
10
4.856
20
-4.3455
11
4.8555
21
-4.346
0
LINE
8
BLACK
6
CONTINUOUS
10
4.8555
20
-4.346
11
4.85249
21
-4.35001
0
LINE
8
BLACK
6
CONTINUOUS
10
4.85249
20
-4.35001
11
4.85215
21
-4.35063
0
LINE
8
BLACK
6
CONTINUOUS
10
4.85215
20
-4.35063
11
4.85037
21
-4.35537
0
LINE
8
BLACK
6
CONTINUOUS
10
4.85037
20
-4.35537
11
4.85023
21
-4.35597
0
LINE
8
BLACK
6
CONTINUOUS
10
4.85023
20
-4.35597
11
4.85001
21
-4.35797
0
LINE
8
BLACK
6
CONTINUOUS
10
4.85001
20
-4.35797
11
4.85
21
-4.35824
0
LINE
8
BLACK
6
CONTINUOUS
10
4.85
20
-4.35824
11
4.85
21
-4.37929
0
LINE
8
BLACK
6
CONTINUOUS
10
4.85
20
-4.37929
11
4.85018
21
-4.37989
0
LINE
8
BLACK
6
CONTINUOUS
10
4.85018
20
-4.37989
11
4.85023
21
-4.37993
0
LINE
8
BLACK
6
CONTINUOUS
10
5.6
20
-3.92
11
5.6
21
-3.94
0
LINE
8
BLACK
6
CONTINUOUS
10
5.6
20
-3.94
11
5.58
21
-3.94
0
LINE
8
BLACK
6
CONTINUOUS
10
5.58
20
-3.94
11
5.58
21
-3.98
0
LINE
8
BLACK
6
CONTINUOUS
10
5.58
20
-3.98
11
5.6
21
-3.98
0
LINE
8
BLACK
6
CONTINUOUS
10
5.6
20
-3.98
11
5.6
21
-4
0
LINE
8
BLACK
6
CONTINUOUS
10
5.6
20
-4
11
5.61929
21
-4
0
LINE
8
BLACK
6
CONTINUOUS
10
5.61929
20
-4
11
5.61989
21
-3.99982
0
LINE
8
BLACK
6
CONTINUOUS
10
5.61989
20
-3.99982
11
5.61993
21
-3.99977
0
LINE
8
BLACK
6
CONTINUOUS
10
5.61993
20
-3.99977
11
5.62
21
-3.99947
0
LINE
8
BLACK
6
CONTINUOUS
10
5.62
20
-3.99947
11
5.62
21
-3.97824
0
LINE
8
BLACK
6
CONTINUOUS
10
5.62
20
-3.97824
11
5.61999
21
-3.97797
0
LINE
8
BLACK
6
CONTINUOUS
10
5.61999
20
-3.97797
11
5.61977
21
-3.97597
0
LINE
8
BLACK
6
CONTINUOUS
10
5.61977
20
-3.97597
11
5.61963
21
-3.97537
0
LINE
8
BLACK
6
CONTINUOUS
10
5.61963
20
-3.97537
11
5.61785
21
-3.97063
0
LINE
8
BLACK
6
CONTINUOUS
10
5.61785
20
-3.97063
11
5.61751
21
-3.97001
0
LINE
8
BLACK
6
CONTINUOUS
10
5.61751
20
-3.97001
11
5.6145
21
-3.966
0
LINE
8
BLACK
6
CONTINUOUS
10
5.6145
20
-3.966
11
5.614
21
-3.9655
0
LINE
8
BLACK
6
CONTINUOUS
10
5.614
20
-3.9655
11
5.61196
21
-3.96397
0
LINE
8
BLACK
6
CONTINUOUS
10
5.61196
20
-3.96397
11
5.61029
21
-3.96173
0
LINE
8
BLACK
6
CONTINUOUS
10
5.61029
20
-3.96173
11
5.61009
21
-3.95894
0
LINE
8
BLACK
6
CONTINUOUS
10
5.61009
20
-3.95894
11
5.61143
21
-3.95649
0
LINE
8
BLACK
6
CONTINUOUS
10
5.61143
20
-3.95649
11
5.61196
21
-3.95603
0
LINE
8
BLACK
6
CONTINUOUS
10
5.61196
20
-3.95603
11
5.614
21
-3.9545
0
LINE
8
BLACK
6
CONTINUOUS
10
5.614
20
-3.9545
11
5.6145
21
-3.954
0
LINE
8
BLACK
6
CONTINUOUS
10
5.6145
20
-3.954
11
5.61751
21
-3.94999
0
LINE
8
BLACK
6
CONTINUOUS
10
5.61751
20
-3.94999
11
5.61785
21
-3.94937
0
LINE
8
BLACK
6
CONTINUOUS
10
5.61785
20
-3.94937
11
5.61963
21
-3.94463
0
LINE
8
BLACK
6
CONTINUOUS
10
5.61963
20
-3.94463
11
5.61977
21
-3.94403
0
LINE
8
BLACK
6
CONTINUOUS
10
5.61977
20
-3.94403
11
5.61999
21
-3.94203
0
LINE
8
BLACK
6
CONTINUOUS
10
5.61999
20
-3.94203
11
5.62
21
-3.94176
0
LINE
8
BLACK
6
CONTINUOUS
10
5.62
20
-3.94176
11
5.62
21
-3.92071
0
LINE
8
BLACK
6
CONTINUOUS
10
5.62
20
-3.92071
11
5.61982
21
-3.92011
0
LINE
8
BLACK
6
CONTINUOUS
10
5.61982
20
-3.92011
11
5.61977
21
-3.92007
0
LINE
8
BLACK
6
CONTINUOUS
10
5.61977
20
-3.92007
11
5.61947
21
-3.92
0
LINE
8
BLACK
6
CONTINUOUS
10
5.61947
20
-3.92
11
5.6
21
-3.92
0
LINE
8
BLACK
6
CONTINUOUS
10
5.12023
20
-3.89993
11
5.12053
21
-3.9
0
LINE
8
BLACK
6
CONTINUOUS
10
5.12053
20
-3.9
11
5.14
21
-3.9
0
LINE
8
BLACK
6
CONTINUOUS
10
5.14
20
-3.9
11
5.14
21
-3.88
0
LINE
8
BLACK
6
CONTINUOUS
10
5.14
20
-3.88
11
5.16
21
-3.88
0
LINE
8
BLACK
6
CONTINUOUS
10
5.16
20
-3.88
11
5.16
21
-3.86071
0
LINE
8
BLACK
6
CONTINUOUS
10
5.16
20
-3.86071
11
5.15982
21
-3.86011
0
LINE
8
BLACK
6
CONTINUOUS
10
5.15982
20
-3.86011
11
5.15977
21
-3.86007
0
LINE
8
BLACK
6
CONTINUOUS
10
5.15977
20
-3.86007
11
5.15947
21
-3.86
0
LINE
8
BLACK
6
CONTINUOUS
10
5.15947
20
-3.86
11
5.13824
21
-3.86
0
LINE
8
BLACK
6
CONTINUOUS
10
5.13824
20
-3.86
11
5.13797
21
-3.86001
0
LINE
8
BLACK
6
CONTINUOUS
10
5.13797
20
-3.86001
11
5.13597
21
-3.86023
0
LINE
8
BLACK
6
CONTINUOUS
10
5.13597
20
-3.86023
11
5.13537
21
-3.86037
0
LINE
8
BLACK
6
CONTINUOUS
10
5.13537
20
-3.86037
11
5.13063
21
-3.86215
0
LINE
8
BLACK
6
CONTINUOUS
10
5.13063
20
-3.86215
11
5.13001
21
-3.86249
0
LINE
8
BLACK
6
CONTINUOUS
10
5.13001
20
-3.86249
11
5.126
21
-3.8655
0
LINE
8
BLACK
6
CONTINUOUS
10
5.126
20
-3.8655
11
5.1255
21
-3.866
0
LINE
8
BLACK
6
CONTINUOUS
10
5.1255
20
-3.866
11
5.12249
21
-3.87001
0
LINE
8
BLACK
6
CONTINUOUS
10
5.12249
20
-3.87001
11
5.12215
21
-3.87063
0
LINE
8
BLACK
6
CONTINUOUS
10
5.12215
20
-3.87063
11
5.12037
21
-3.87537
0
LINE
8
BLACK
6
CONTINUOUS
10
5.12037
20
-3.87537
11
5.12023
21
-3.87597
0
LINE
8
BLACK
6
CONTINUOUS
10
5.12023
20
-3.87597
11
5.12001
21
-3.87797
0
LINE
8
BLACK
6
CONTINUOUS
10
5.12001
20
-3.87797
11
5.12
21
-3.87824
0
LINE
8
BLACK
6
CONTINUOUS
10
5.12
20
-3.87824
11
5.12
21
-3.89929
0
LINE
8
BLACK
6
CONTINUOUS
10
5.12
20
-3.89929
11
5.12018
21
-3.89989
0
LINE
8
BLACK
6
CONTINUOUS
10
5.12018
20
-3.89989
11
5.12023
21
-3.89993
0
LINE
8
BLACK
6
CONTINUOUS
10
5.58071
20
-3.86
11
5.58011
21
-3.86018
0
LINE
8
BLACK
6
CONTINUOUS
10
5.58011
20
-3.86018
11
5.58007
21
-3.86023
0
LINE
8
BLACK
6
CONTINUOUS
10
5.58007
20
-3.86023
11
5.58
21
-3.86053
0
LINE
8
BLACK
6
CONTINUOUS
10
5.58
20
-3.86053
11
5.58
21
-3.88
0
LINE
8
BLACK
6
CONTINUOUS
10
5.58
20
-3.88
11
5.6
21
-3.88
0
LINE
8
BLACK
6
CONTINUOUS
10
5.6
20
-3.88
11
5.6
21
-3.9
0
LINE
8
BLACK
6
CONTINUOUS
10
5.6
20
-3.9
11
5.61929
21
-3.9
0
LINE
8
BLACK
6
CONTINUOUS
10
5.61929
20
-3.9
11
5.61989
21
-3.89982
0
LINE
8
BLACK
6
CONTINUOUS
10
5.61989
20
-3.89982
11
5.61993
21
-3.89977
0
LINE
8
BLACK
6
CONTINUOUS
10
5.61993
20
-3.89977
11
5.62
21
-3.89947
0
LINE
8
BLACK
6
CONTINUOUS
10
5.62
20
-3.89947
11
5.62
21
-3.87824
0
LINE
8
BLACK
6
CONTINUOUS
10
5.62
20
-3.87824
11
5.61999
21
-3.87797
0
LINE
8
BLACK
6
CONTINUOUS
10
5.61999
20
-3.87797
11
5.61977
21
-3.87597
0
LINE
8
BLACK
6
CONTINUOUS
10
5.61977
20
-3.87597
11
5.61963
21
-3.87537
0
LINE
8
BLACK
6
CONTINUOUS
10
5.61963
20
-3.87537
11
5.61785
21
-3.87063
0
LINE
8
BLACK
6
CONTINUOUS
10
5.61785
20
-3.87063
11
5.61751
21
-3.87001
0
LINE
8
BLACK
6
CONTINUOUS
10
5.61751
20
-3.87001
11
5.6145
21
-3.866
0
LINE
8
BLACK
6
CONTINUOUS
10
5.6145
20
-3.866
11
5.614
21
-3.8655
0
LINE
8
BLACK
6
CONTINUOUS
10
5.614
20
-3.8655
11
5.60999
21
-3.86249
0
LINE
8
BLACK
6
CONTINUOUS
10
5.60999
20
-3.86249
11
5.60937
21
-3.86215
0
LINE
8
BLACK
6
CONTINUOUS
10
5.60937
20
-3.86215
11
5.60463
21
-3.86037
0
LINE
8
BLACK
6
CONTINUOUS
10
5.60463
20
-3.86037
11
5.60403
21
-3.86023
0
LINE
8
BLACK
6
CONTINUOUS
10
5.60403
20
-3.86023
11
5.60203
21
-3.86001
0
LINE
8
BLACK
6
CONTINUOUS
10
5.60203
20
-3.86001
11
5.60176
21
-3.86
0
LINE
8
BLACK
6
CONTINUOUS
10
5.60176
20
-3.86
11
5.58071
21
-3.86
0
LINE
8
BLACK
6
CONTINUOUS
10
5.58023
20
-4.05993
11
5.58053
21
-4.06
0
LINE
8
BLACK
6
CONTINUOUS
10
5.58053
20
-4.06
11
5.60176
21
-4.06
0
LINE
8
BLACK
6
CONTINUOUS
10
5.60176
20
-4.06
11
5.60203
21
-4.05999
0
LINE
8
BLACK
6
CONTINUOUS
10
5.60203
20
-4.05999
11
5.60403
21
-4.05977
0
LINE
8
BLACK
6
CONTINUOUS
10
5.60403
20
-4.05977
11
5.60463
21
-4.05963
0
LINE
8
BLACK
6
CONTINUOUS
10
5.60463
20
-4.05963
11
5.60937
21
-4.05785
0
LINE
8
BLACK
6
CONTINUOUS
10
5.60937
20
-4.05785
11
5.60999
21
-4.05751
0
LINE
8
BLACK
6
CONTINUOUS
10
5.60999
20
-4.05751
11
5.614
21
-4.0545
0
LINE
8
BLACK
6
CONTINUOUS
10
5.614
20
-4.0545
11
5.6145
21
-4.054
0
LINE
8
BLACK
6
CONTINUOUS
10
5.6145
20
-4.054
11
5.61751
21
-4.04999
0
LINE
8
BLACK
6
CONTINUOUS
10
5.61751
20
-4.04999
11
5.61785
21
-4.04937
0
LINE
8
BLACK
6
CONTINUOUS
10
5.61785
20
-4.04937
11
5.61963
21
-4.04463
0
LINE
8
BLACK
6
CONTINUOUS
10
5.61963
20
-4.04463
11
5.61977
21
-4.04403
0
LINE
8
BLACK
6
CONTINUOUS
10
5.61977
20
-4.04403
11
5.61999
21
-4.04203
0
LINE
8
BLACK
6
CONTINUOUS
10
5.61999
20
-4.04203
11
5.62
21
-4.04176
0
LINE
8
BLACK
6
CONTINUOUS
10
5.62
20
-4.04176
11
5.62
21
-4.02071
0
LINE
8
BLACK
6
CONTINUOUS
10
5.62
20
-4.02071
11
5.61982
21
-4.02011
0
LINE
8
BLACK
6
CONTINUOUS
10
5.61982
20
-4.02011
11
5.61977
21
-4.02007
0
LINE
8
BLACK
6
CONTINUOUS
10
5.61977
20
-4.02007
11
5.61947
21
-4.02
0
LINE
8
BLACK
6
CONTINUOUS
10
5.61947
20
-4.02
11
5.6
21
-4.02
0
LINE
8
BLACK
6
CONTINUOUS
10
5.6
20
-4.02
11
5.6
21
-4.04
0
LINE
8
BLACK
6
CONTINUOUS
10
5.6
20
-4.04
11
5.58
21
-4.04
0
LINE
8
BLACK
6
CONTINUOUS
10
5.58
20
-4.04
11
5.58
21
-4.05929
0
LINE
8
BLACK
6
CONTINUOUS
10
5.58
20
-4.05929
11
5.58018
21
-4.05989
0
LINE
8
BLACK
6
CONTINUOUS
10
5.58018
20
-4.05989
11
5.58023
21
-4.05993
0
LINE
8
BLACK
6
CONTINUOUS
10
5.54
20
-4.04
11
5.54
21
-3.98
0
LINE
8
BLACK
6
CONTINUOUS
10
5.54
20
-3.98
11
5.56
21
-3.98
0
LINE
8
BLACK
6
CONTINUOUS
10
5.56
20
-3.98
11
5.56
21
-3.94
0
LINE
8
BLACK
6
CONTINUOUS
10
5.56
20
-3.94
11
5.54
21
-3.94
0
LINE
8
BLACK
6
CONTINUOUS
10
5.54
20
-3.94
11
5.54
21
-3.88
0
LINE
8
BLACK
6
CONTINUOUS
10
5.54
20
-3.88
11
5.56
21
-3.88
0
LINE
8
BLACK
6
CONTINUOUS
10
5.56
20
-3.88
11
5.56
21
-3.86071
0
LINE
8
BLACK
6
CONTINUOUS
10
5.56
20
-3.86071
11
5.55982
21
-3.86011
0
LINE
8
BLACK
6
CONTINUOUS
10
5.55982
20
-3.86011
11
5.55977
21
-3.86007
0
LINE
8
BLACK
6
CONTINUOUS
10
5.55977
20
-3.86007
11
5.55947
21
-3.86
0
LINE
8
BLACK
6
CONTINUOUS
10
5.55947
20
-3.86
11
5.53824
21
-3.86
0
LINE
8
BLACK
6
CONTINUOUS
10
5.53824
20
-3.86
11
5.53797
21
-3.86001
0
LINE
8
BLACK
6
CONTINUOUS
10
5.53797
20
-3.86001
11
5.53597
21
-3.86023
0
LINE
8
BLACK
6
CONTINUOUS
10
5.53597
20
-3.86023
11
5.53537
21
-3.86037
0
LINE
8
BLACK
6
CONTINUOUS
10
5.53537
20
-3.86037
11
5.53063
21
-3.86215
0
LINE
8
BLACK
6
CONTINUOUS
10
5.53063
20
-3.86215
11
5.53001
21
-3.86249
0
LINE
8
BLACK
6
CONTINUOUS
10
5.53001
20
-3.86249
11
5.526
21
-3.8655
0
LINE
8
BLACK
6
CONTINUOUS
10
5.526
20
-3.8655
11
5.5255
21
-3.866
0
LINE
8
BLACK
6
CONTINUOUS
10
5.5255
20
-3.866
11
5.52398
21
-3.86802
0
LINE
8
BLACK
6
CONTINUOUS
10
5.52398
20
-3.86802
11
5.52174
21
-3.8697
0
LINE
8
BLACK
6
CONTINUOUS
10
5.52174
20
-3.8697
11
5.51896
21
-3.86989
0
LINE
8
BLACK
6
CONTINUOUS
10
5.51896
20
-3.86989
11
5.5165
21
-3.86855
0
LINE
8
BLACK
6
CONTINUOUS
10
5.5165
20
-3.86855
11
5.51604
21
-3.86802
0
LINE
8
BLACK
6
CONTINUOUS
10
5.51604
20
-3.86802
11
5.5143
21
-3.8657
0
LINE
8
BLACK
6
CONTINUOUS
10
5.5143
20
-3.8657
11
5.50971
21
-3.86226
0
LINE
8
BLACK
6
CONTINUOUS
10
5.50971
20
-3.86226
11
5.50434
21
-3.86025
0
LINE
8
BLACK
6
CONTINUOUS
10
5.50434
20
-3.86025
11
5.5019
21
-3.85998
0
LINE
8
BLACK
6
CONTINUOUS
10
5.5019
20
-3.85998
11
5.4381
21
-3.85998
0
LINE
8
BLACK
6
CONTINUOUS
10
5.4381
20
-3.85998
11
5.43566
21
-3.86025
0
LINE
8
BLACK
6
CONTINUOUS
10
5.43566
20
-3.86025
11
5.43029
21
-3.86226
0
LINE
8
BLACK
6
CONTINUOUS
10
5.43029
20
-3.86226
11
5.4257
21
-3.8657
0
LINE
8
BLACK
6
CONTINUOUS
10
5.4257
20
-3.8657
11
5.42549
21
-3.86598
0
LINE
8
BLACK
6
CONTINUOUS
10
5.42549
20
-3.86598
11
5.42549
21
-3.86598
0
LINE
8
BLACK
6
CONTINUOUS
10
5.42549
20
-3.86598
11
5.42397
21
-3.86801
0
LINE
8
BLACK
6
CONTINUOUS
10
5.42397
20
-3.86801
11
5.42173
21
-3.86968
0
LINE
8
BLACK
6
CONTINUOUS
10
5.42173
20
-3.86968
11
5.41894
21
-3.86988
0
LINE
8
BLACK
6
CONTINUOUS
10
5.41894
20
-3.86988
11
5.41649
21
-3.86854
0
LINE
8
BLACK
6
CONTINUOUS
10
5.41649
20
-3.86854
11
5.41603
21
-3.86801
0
LINE
8
BLACK
6
CONTINUOUS
10
5.41603
20
-3.86801
11
5.41451
21
-3.86598
0
LINE
8
BLACK
6
CONTINUOUS
10
5.41451
20
-3.86598
11
5.41451
21
-3.86598
0
LINE
8
BLACK
6
CONTINUOUS
10
5.41451
20
-3.86598
11
5.4143
21
-3.8657
0
LINE
8
BLACK
6
CONTINUOUS
10
5.4143
20
-3.8657
11
5.40971
21
-3.86226
0
LINE
8
BLACK
6
CONTINUOUS
10
5.40971
20
-3.86226
11
5.40434
21
-3.86025
0
LINE
8
BLACK
6
CONTINUOUS
10
5.40434
20
-3.86025
11
5.4019
21
-3.85998
0
LINE
8
BLACK
6
CONTINUOUS
10
5.4019
20
-3.85998
11
5.3381
21
-3.85998
0
LINE
8
BLACK
6
CONTINUOUS
10
5.3381
20
-3.85998
11
5.33566
21
-3.86025
0
LINE
8
BLACK
6
CONTINUOUS
10
5.33566
20
-3.86025
11
5.33029
21
-3.86226
0
LINE
8
BLACK
6
CONTINUOUS
10
5.33029
20
-3.86226
11
5.3257
21
-3.8657
0
LINE
8
BLACK
6
CONTINUOUS
10
5.3257
20
-3.8657
11
5.32549
21
-3.86598
0
LINE
8
BLACK
6
CONTINUOUS
10
5.32549
20
-3.86598
11
5.32549
21
-3.86598
0
LINE
8
BLACK
6
CONTINUOUS
10
5.32549
20
-3.86598
11
5.32397
21
-3.86801
0
LINE
8
BLACK
6
CONTINUOUS
10
5.32397
20
-3.86801
11
5.32173
21
-3.86968
0
LINE
8
BLACK
6
CONTINUOUS
10
5.32173
20
-3.86968
11
5.31894
21
-3.86988
0
LINE
8
BLACK
6
CONTINUOUS
10
5.31894
20
-3.86988
11
5.31649
21
-3.86854
0
LINE
8
BLACK
6
CONTINUOUS
10
5.31649
20
-3.86854
11
5.31603
21
-3.86801
0
LINE
8
BLACK
6
CONTINUOUS
10
5.31603
20
-3.86801
11
5.31451
21
-3.86598
0
LINE
8
BLACK
6
CONTINUOUS
10
5.31451
20
-3.86598
11
5.31451
21
-3.86598
0
LINE
8
BLACK
6
CONTINUOUS
10
5.31451
20
-3.86598
11
5.3143
21
-3.8657
0
LINE
8
BLACK
6
CONTINUOUS
10
5.3143
20
-3.8657
11
5.30971
21
-3.86226
0
LINE
8
BLACK
6
CONTINUOUS
10
5.30971
20
-3.86226
11
5.30434
21
-3.86025
0
LINE
8
BLACK
6
CONTINUOUS
10
5.30434
20
-3.86025
11
5.3019
21
-3.85998
0
LINE
8
BLACK
6
CONTINUOUS
10
5.3019
20
-3.85998
11
5.2381
21
-3.85998
0
LINE
8
BLACK
6
CONTINUOUS
10
5.2381
20
-3.85998
11
5.23566
21
-3.86025
0
LINE
8
BLACK
6
CONTINUOUS
10
5.23566
20
-3.86025
11
5.23029
21
-3.86226
0
LINE
8
BLACK
6
CONTINUOUS
10
5.23029
20
-3.86226
11
5.2257
21
-3.8657
0
LINE
8
BLACK
6
CONTINUOUS
10
5.2257
20
-3.8657
11
5.22396
21
-3.86802
0
LINE
8
BLACK
6
CONTINUOUS
10
5.22396
20
-3.86802
11
5.22172
21
-3.8697
0
LINE
8
BLACK
6
CONTINUOUS
10
5.22172
20
-3.8697
11
5.21893
21
-3.86989
0
LINE
8
BLACK
6
CONTINUOUS
10
5.21893
20
-3.86989
11
5.21648
21
-3.86855
0
LINE
8
BLACK
6
CONTINUOUS
10
5.21648
20
-3.86855
11
5.21602
21
-3.86802
0
LINE
8
BLACK
6
CONTINUOUS
10
5.21602
20
-3.86802
11
5.2145
21
-3.866
0
LINE
8
BLACK
6
CONTINUOUS
10
5.2145
20
-3.866
11
5.214
21
-3.8655
0
LINE
8
BLACK
6
CONTINUOUS
10
5.214
20
-3.8655
11
5.20999
21
-3.86249
0
LINE
8
BLACK
6
CONTINUOUS
10
5.20999
20
-3.86249
11
5.20937
21
-3.86215
0
LINE
8
BLACK
6
CONTINUOUS
10
5.20937
20
-3.86215
11
5.20463
21
-3.86037
0
LINE
8
BLACK
6
CONTINUOUS
10
5.20463
20
-3.86037
11
5.20403
21
-3.86023
0
LINE
8
BLACK
6
CONTINUOUS
10
5.20403
20
-3.86023
11
5.20203
21
-3.86001
0
LINE
8
BLACK
6
CONTINUOUS
10
5.20203
20
-3.86001
11
5.20176
21
-3.86
0
LINE
8
BLACK
6
CONTINUOUS
10
5.20176
20
-3.86
11
5.18071
21
-3.86
0
LINE
8
BLACK
6
CONTINUOUS
10
5.18071
20
-3.86
11
5.18011
21
-3.86018
0
LINE
8
BLACK
6
CONTINUOUS
10
5.18011
20
-3.86018
11
5.18007
21
-3.86023
0
LINE
8
BLACK
6
CONTINUOUS
10
5.18007
20
-3.86023
11
5.18
21
-3.86053
0
LINE
8
BLACK
6
CONTINUOUS
10
5.18
20
-3.86053
11
5.18
21
-3.88
0
LINE
8
BLACK
6
CONTINUOUS
10
5.18
20
-3.88
11
5.2
21
-3.88
0
LINE
8
BLACK
6
CONTINUOUS
10
5.2
20
-3.88
11
5.2
21
-3.94
0
LINE
8
BLACK
6
CONTINUOUS
10
5.2
20
-3.94
11
5.18
21
-3.94
0
LINE
8
BLACK
6
CONTINUOUS
10
5.18
20
-3.94
11
5.18
21
-3.98
0
LINE
8
BLACK
6
CONTINUOUS
10
5.18
20
-3.98
11
5.2
21
-3.98
0
LINE
8
BLACK
6
CONTINUOUS
10
5.2
20
-3.98
11
5.2
21
-4.04
0
LINE
8
BLACK
6
CONTINUOUS
10
5.2
20
-4.04
11
5.18
21
-4.04
0
LINE
8
BLACK
6
CONTINUOUS
10
5.18
20
-4.04
11
5.18
21
-4.05929
0
LINE
8
BLACK
6
CONTINUOUS
10
5.18
20
-4.05929
11
5.18018
21
-4.05989
0
LINE
8
BLACK
6
CONTINUOUS
10
5.18018
20
-4.05989
11
5.18023
21
-4.05993
0
LINE
8
BLACK
6
CONTINUOUS
10
5.18023
20
-4.05993
11
5.18053
21
-4.06
0
LINE
8
BLACK
6
CONTINUOUS
10
5.18053
20
-4.06
11
5.20176
21
-4.06
0
LINE
8
BLACK
6
CONTINUOUS
10
5.20176
20
-4.06
11
5.20203
21
-4.05999
0
LINE
8
BLACK
6
CONTINUOUS
10
5.20203
20
-4.05999
11
5.20403
21
-4.05977
0
LINE
8
BLACK
6
CONTINUOUS
10
5.20403
20
-4.05977
11
5.20463
21
-4.05963
0
LINE
8
BLACK
6
CONTINUOUS
10
5.20463
20
-4.05963
11
5.20937
21
-4.05785
0
LINE
8
BLACK
6
CONTINUOUS
10
5.20937
20
-4.05785
11
5.20999
21
-4.05751
0
LINE
8
BLACK
6
CONTINUOUS
10
5.20999
20
-4.05751
11
5.214
21
-4.0545
0
LINE
8
BLACK
6
CONTINUOUS
10
5.214
20
-4.0545
11
5.2145
21
-4.054
0
LINE
8
BLACK
6
CONTINUOUS
10
5.2145
20
-4.054
11
5.21602
21
-4.05198
0
LINE
8
BLACK
6
CONTINUOUS
10
5.21602
20
-4.05198
11
5.21826
21
-4.0503
0
LINE
8
BLACK
6
CONTINUOUS
10
5.21826
20
-4.0503
11
5.22104
21
-4.05011
0
LINE
8
BLACK
6
CONTINUOUS
10
5.22104
20
-4.05011
11
5.2235
21
-4.05145
0
LINE
8
BLACK
6
CONTINUOUS
10
5.2235
20
-4.05145
11
5.22396
21
-4.05198
0
LINE
8
BLACK
6
CONTINUOUS
10
5.22396
20
-4.05198
11
5.2257
21
-4.0543
0
LINE
8
BLACK
6
CONTINUOUS
10
5.2257
20
-4.0543
11
5.23029
21
-4.05774
0
LINE
8
BLACK
6
CONTINUOUS
10
5.23029
20
-4.05774
11
5.23566
21
-4.05975
0
LINE
8
BLACK
6
CONTINUOUS
10
5.23566
20
-4.05975
11
5.2381
21
-4.06002
0
LINE
8
BLACK
6
CONTINUOUS
10
5.2381
20
-4.06002
11
5.3019
21
-4.06002
0
LINE
8
BLACK
6
CONTINUOUS
10
5.3019
20
-4.06002
11
5.30434
21
-4.05975
0
LINE
8
BLACK
6
CONTINUOUS
10
5.30434
20
-4.05975
11
5.30971
21
-4.05774
0
LINE
8
BLACK
6
CONTINUOUS
10
5.30971
20
-4.05774
11
5.3143
21
-4.0543
0
LINE
8
BLACK
6
CONTINUOUS
10
5.3143
20
-4.0543
11
5.31603
21
-4.05199
0
LINE
8
BLACK
6
CONTINUOUS
10
5.31603
20
-4.05199
11
5.31827
21
-4.05032
0
LINE
8
BLACK
6
CONTINUOUS
10
5.31827
20
-4.05032
11
5.32106
21
-4.05012
0
LINE
8
BLACK
6
CONTINUOUS
10
5.32106
20
-4.05012
11
5.32351
21
-4.05146
0
LINE
8
BLACK
6
CONTINUOUS
10
5.32351
20
-4.05146
11
5.32397
21
-4.05199
0
LINE
8
BLACK
6
CONTINUOUS
10
5.32397
20
-4.05199
11
5.3257
21
-4.0543
0
LINE
8
BLACK
6
CONTINUOUS
10
5.3257
20
-4.0543
11
5.33029
21
-4.05774
0
LINE
8
BLACK
6
CONTINUOUS
10
5.33029
20
-4.05774
11
5.33566
21
-4.05975
0
LINE
8
BLACK
6
CONTINUOUS
10
5.33566
20
-4.05975
11
5.3381
21
-4.06002
0
LINE
8
BLACK
6
CONTINUOUS
10
5.3381
20
-4.06002
11
5.37551
21
-4.06002
0
LINE
8
BLACK
6
CONTINUOUS
10
5.37551
20
-4.06002
11
5.37819
21
-4.06081
0
LINE
8
BLACK
6
CONTINUOUS
10
5.37819
20
-4.06081
11
5.37902
21
-4.06147
0
LINE
8
BLACK
6
CONTINUOUS
10
5.37902
20
-4.06147
11
5.5169
21
-4.19935
0
LINE
8
BLACK
6
CONTINUOUS
10
5.5169
20
-4.19935
11
5.51738
21
-4.19992
0
LINE
8
BLACK
6
CONTINUOUS
10
5.51738
20
-4.19992
11
5.5179
21
-4.20061
0
LINE
8
BLACK
6
CONTINUOUS
10
5.5179
20
-4.20061
11
5.51812
21
-4.2008
0
LINE
8
BLACK
6
CONTINUOUS
10
5.51812
20
-4.2008
11
5.51949
21
-4.20197
0
LINE
8
BLACK
6
CONTINUOUS
10
5.51949
20
-4.20197
11
5.51979
21
-4.20224
0
LINE
8
BLACK
6
CONTINUOUS
10
5.51979
20
-4.20224
11
5.52001
21
-4.20247
0
LINE
8
BLACK
6
CONTINUOUS
10
5.52001
20
-4.20247
11
5.52013
21
-4.20256
0
LINE
8
BLACK
6
CONTINUOUS
10
5.52013
20
-4.20256
11
5.52013
21
-4.20256
0
LINE
8
BLACK
6
CONTINUOUS
10
5.52013
20
-4.20256
11
5.52089
21
-4.20316
0
LINE
8
BLACK
6
CONTINUOUS
10
5.52089
20
-4.20316
11
5.52103
21
-4.20327
0
LINE
8
BLACK
6
CONTINUOUS
10
5.52103
20
-4.20327
11
5.52301
21
-4.20496
0
LINE
8
BLACK
6
CONTINUOUS
10
5.52301
20
-4.20496
11
5.52301
21
-4.20496
0
LINE
8
BLACK
6
CONTINUOUS
10
5.52301
20
-4.20496
11
5.52323
21
-4.20515
0
LINE
8
BLACK
6
CONTINUOUS
10
5.52323
20
-4.20515
11
5.52349
21
-4.20528
0
LINE
8
BLACK
6
CONTINUOUS
10
5.52349
20
-4.20528
11
5.52369
21
-4.20541
0
LINE
8
BLACK
6
CONTINUOUS
10
5.52369
20
-4.20541
11
5.52389
21
-4.20554
0
LINE
8
BLACK
6
CONTINUOUS
10
5.52389
20
-4.20554
11
5.52412
21
-4.20571
0
LINE
8
BLACK
6
CONTINUOUS
10
5.52412
20
-4.20571
11
5.52438
21
-4.20584
0
LINE
8
BLACK
6
CONTINUOUS
10
5.52438
20
-4.20584
11
5.52674
21
-4.20694
0
LINE
8
BLACK
6
CONTINUOUS
10
5.52674
20
-4.20694
11
5.52689
21
-4.20701
0
LINE
8
BLACK
6
CONTINUOUS
10
5.52689
20
-4.20701
11
5.52946
21
-4.20833
0
LINE
8
BLACK
6
CONTINUOUS
10
5.52946
20
-4.20833
11
5.52974
21
-4.2084
0
LINE
8
BLACK
6
CONTINUOUS
10
5.52974
20
-4.2084
11
5.52997
21
-4.20848
0
LINE
8
BLACK
6
CONTINUOUS
10
5.52997
20
-4.20848
11
5.5302
21
-4.20856
0
LINE
8
BLACK
6
CONTINUOUS
10
5.5302
20
-4.20856
11
5.53046
21
-4.20868
0
LINE
8
BLACK
6
CONTINUOUS
10
5.53046
20
-4.20868
11
5.53329
21
-4.20927
0
LINE
8
BLACK
6
CONTINUOUS
10
5.53329
20
-4.20927
11
5.53346
21
-4.20931
0
LINE
8
BLACK
6
CONTINUOUS
10
5.53346
20
-4.20931
11
5.53626
21
-4.20999
0
LINE
8
BLACK
6
CONTINUOUS
10
5.53626
20
-4.20999
11
5.53648
21
-4.21001
0
LINE
8
BLACK
6
CONTINUOUS
10
5.53648
20
-4.21001
11
5.53648
21
-4.21001
0
LINE
8
BLACK
6
CONTINUOUS
10
5.53648
20
-4.21001
11
5.53671
21
-4.21002
0
LINE
8
BLACK
6
CONTINUOUS
10
5.53671
20
-4.21002
11
5.53671
21
-4.21002
0
LINE
8
BLACK
6
CONTINUOUS
10
5.53671
20
-4.21002
11
5.53686
21
-4.21003
0
LINE
8
BLACK
6
CONTINUOUS
10
5.53686
20
-4.21003
11
5.53703
21
-4.21005
0
LINE
8
BLACK
6
CONTINUOUS
10
5.53703
20
-4.21005
11
5.53731
21
-4.2101
0
LINE
8
BLACK
6
CONTINUOUS
10
5.53731
20
-4.2101
11
5.5376
21
-4.2101
0
LINE
8
BLACK
6
CONTINUOUS
10
5.5376
20
-4.2101
11
5.54038
21
-4.21002
0
LINE
8
BLACK
6
CONTINUOUS
10
5.54038
20
-4.21002
11
5.54051
21
-4.21002
0
LINE
8
BLACK
6
CONTINUOUS
10
5.54051
20
-4.21002
11
5.55886
21
-4.21002
0
LINE
8
BLACK
6
CONTINUOUS
10
5.55886
20
-4.21002
11
5.56154
21
-4.21081
0
LINE
8
BLACK
6
CONTINUOUS
10
5.56154
20
-4.21081
11
5.56177
21
-4.21097
0
LINE
8
BLACK
6
CONTINUOUS
10
5.56177
20
-4.21097
11
5.56202
21
-4.21115
0
LINE
8
BLACK
6
CONTINUOUS
10
5.56202
20
-4.21115
11
5.56225
21
-4.21125
0
LINE
8
BLACK
6
CONTINUOUS
10
5.56225
20
-4.21125
11
5.56226
21
-4.21125
0
LINE
8
BLACK
6
CONTINUOUS
10
5.56226
20
-4.21125
11
5.56865
21
-4.2141
0
LINE
8
BLACK
6
CONTINUOUS
10
5.56865
20
-4.2141
11
5.56889
21
-4.2142
0
LINE
8
BLACK
6
CONTINUOUS
10
5.56889
20
-4.2142
11
5.57256
21
-4.21499
0
LINE
8
BLACK
6
CONTINUOUS
10
5.57256
20
-4.21499
11
5.57599
21
-4.21571
0
LINE
8
BLACK
6
CONTINUOUS
10
5.57599
20
-4.21571
11
5.57599
21
-4.21571
0
LINE
8
BLACK
6
CONTINUOUS
10
5.57599
20
-4.21571
11
5.57624
21
-4.21577
0
LINE
8
BLACK
6
CONTINUOUS
10
5.57624
20
-4.21577
11
5.58376
21
-4.21577
0
LINE
8
BLACK
6
CONTINUOUS
10
5.58376
20
-4.21577
11
5.58401
21
-4.21571
0
LINE
8
BLACK
6
CONTINUOUS
10
5.58401
20
-4.21571
11
5.58401
21
-4.21571
0
LINE
8
BLACK
6
CONTINUOUS
10
5.58401
20
-4.21571
11
5.58744
21
-4.21499
0
LINE
8
BLACK
6
CONTINUOUS
10
5.58744
20
-4.21499
11
5.59111
21
-4.2142
0
LINE
8
BLACK
6
CONTINUOUS
10
5.59111
20
-4.2142
11
5.59135
21
-4.2141
0
LINE
8
BLACK
6
CONTINUOUS
10
5.59135
20
-4.2141
11
5.59774
21
-4.21125
0
LINE
8
BLACK
6
CONTINUOUS
10
5.59774
20
-4.21125
11
5.59775
21
-4.21125
0
LINE
8
BLACK
6
CONTINUOUS
10
5.59775
20
-4.21125
11
5.59798
21
-4.21115
0
LINE
8
BLACK
6
CONTINUOUS
10
5.59798
20
-4.21115
11
5.59953
21
-4.21002
0
LINE
8
BLACK
6
CONTINUOUS
10
5.59953
20
-4.21002
11
5.60138
21
-4.20868
0
LINE
8
BLACK
6
CONTINUOUS
10
5.60138
20
-4.20868
11
5.60407
21
-4.20673
0
LINE
8
BLACK
6
CONTINUOUS
10
5.60407
20
-4.20673
11
5.60424
21
-4.20653
0
LINE
8
BLACK
6
CONTINUOUS
10
5.60424
20
-4.20653
11
5.60892
21
-4.20133
0
LINE
8
BLACK
6
CONTINUOUS
10
5.60892
20
-4.20133
11
5.60892
21
-4.20133
0
LINE
8
BLACK
6
CONTINUOUS
10
5.60892
20
-4.20133
11
5.6091
21
-4.20114
0
LINE
8
BLACK
6
CONTINUOUS
10
5.6091
20
-4.20114
11
5.61286
21
-4.19463
0
LINE
8
BLACK
6
CONTINUOUS
10
5.61286
20
-4.19463
11
5.61518
21
-4.18748
0
LINE
8
BLACK
6
CONTINUOUS
10
5.61518
20
-4.18748
11
5.61596
21
-4.18
0
LINE
8
BLACK
6
CONTINUOUS
10
5.61596
20
-4.18
11
5.61518
21
-4.17252
0
LINE
8
BLACK
6
CONTINUOUS
10
5.61518
20
-4.17252
11
5.61286
21
-4.16537
0
LINE
8
BLACK
6
CONTINUOUS
10
5.61286
20
-4.16537
11
5.6091
21
-4.15886
0
LINE
8
BLACK
6
CONTINUOUS
10
5.6091
20
-4.15886
11
5.60407
21
-4.15327
0
LINE
8
BLACK
6
CONTINUOUS
10
5.60407
20
-4.15327
11
5.59837
21
-4.14914
0
LINE
8
BLACK
6
CONTINUOUS
10
5.59837
20
-4.14914
11
5.59819
21
-4.14901
0
LINE
8
BLACK
6
CONTINUOUS
10
5.59819
20
-4.14901
11
5.59819
21
-4.14901
0
LINE
8
BLACK
6
CONTINUOUS
10
5.59819
20
-4.14901
11
5.59798
21
-4.14885
0
LINE
8
BLACK
6
CONTINUOUS
10
5.59798
20
-4.14885
11
5.59775
21
-4.14875
0
LINE
8
BLACK
6
CONTINUOUS
10
5.59775
20
-4.14875
11
5.59774
21
-4.14875
0
LINE
8
BLACK
6
CONTINUOUS
10
5.59774
20
-4.14875
11
5.59135
21
-4.1459
0
LINE
8
BLACK
6
CONTINUOUS
10
5.59135
20
-4.1459
11
5.59135
21
-4.1459
0
LINE
8
BLACK
6
CONTINUOUS
10
5.59135
20
-4.1459
11
5.59111
21
-4.1458
0
LINE
8
BLACK
6
CONTINUOUS
10
5.59111
20
-4.1458
11
5.58744
21
-4.14501
0
LINE
8
BLACK
6
CONTINUOUS
10
5.58744
20
-4.14501
11
5.58401
21
-4.14429
0
LINE
8
BLACK
6
CONTINUOUS
10
5.58401
20
-4.14429
11
5.58401
21
-4.14429
0
LINE
8
BLACK
6
CONTINUOUS
10
5.58401
20
-4.14429
11
5.58376
21
-4.14423
0
LINE
8
BLACK
6
CONTINUOUS
10
5.58376
20
-4.14423
11
5.57624
21
-4.14423
0
LINE
8
BLACK
6
CONTINUOUS
10
5.57624
20
-4.14423
11
5.57599
21
-4.14429
0
LINE
8
BLACK
6
CONTINUOUS
10
5.57599
20
-4.14429
11
5.57599
21
-4.14429
0
LINE
8
BLACK
6
CONTINUOUS
10
5.57599
20
-4.14429
11
5.57256
21
-4.14501
0
LINE
8
BLACK
6
CONTINUOUS
10
5.57256
20
-4.14501
11
5.56889
21
-4.1458
0
LINE
8
BLACK
6
CONTINUOUS
10
5.56889
20
-4.1458
11
5.56865
21
-4.1459
0
LINE
8
BLACK
6
CONTINUOUS
10
5.56865
20
-4.1459
11
5.56865
21
-4.1459
0
LINE
8
BLACK
6
CONTINUOUS
10
5.56865
20
-4.1459
11
5.56226
21
-4.14875
0
LINE
8
BLACK
6
CONTINUOUS
10
5.56226
20
-4.14875
11
5.56225
21
-4.14875
0
LINE
8
BLACK
6
CONTINUOUS
10
5.56225
20
-4.14875
11
5.56202
21
-4.14885
0
LINE
8
BLACK
6
CONTINUOUS
10
5.56202
20
-4.14885
11
5.56181
21
-4.14901
0
LINE
8
BLACK
6
CONTINUOUS
10
5.56181
20
-4.14901
11
5.56181
21
-4.14901
0
LINE
8
BLACK
6
CONTINUOUS
10
5.56181
20
-4.14901
11
5.56177
21
-4.14903
0
LINE
8
BLACK
6
CONTINUOUS
10
5.56177
20
-4.14903
11
5.56175
21
-4.14904
0
LINE
8
BLACK
6
CONTINUOUS
10
5.56175
20
-4.14904
11
5.56158
21
-4.14914
0
LINE
8
BLACK
6
CONTINUOUS
10
5.56158
20
-4.14914
11
5.56156
21
-4.14911
0
LINE
8
BLACK
6
CONTINUOUS
10
5.56156
20
-4.14911
11
5.55914
21
-4.14997
0
LINE
8
BLACK
6
CONTINUOUS
10
5.55914
20
-4.14997
11
5.55886
21
-4.14998
0
LINE
8
BLACK
6
CONTINUOUS
10
5.55886
20
-4.14998
11
5.55449
21
-4.14998
0
LINE
8
BLACK
6
CONTINUOUS
10
5.55449
20
-4.14998
11
5.55181
21
-4.14919
0
LINE
8
BLACK
6
CONTINUOUS
10
5.55181
20
-4.14919
11
5.55098
21
-4.14853
0
LINE
8
BLACK
6
CONTINUOUS
10
5.55098
20
-4.14853
11
5.47094
21
-4.06849
0
LINE
8
BLACK
6
CONTINUOUS
10
5.47094
20
-4.06849
11
5.4696
21
-4.06603
0
LINE
8
BLACK
6
CONTINUOUS
10
5.4696
20
-4.06603
11
5.4698
21
-4.06325
0
LINE
8
BLACK
6
CONTINUOUS
10
5.4698
20
-4.06325
11
5.47148
21
-4.06101
0
LINE
8
BLACK
6
CONTINUOUS
10
5.47148
20
-4.06101
11
5.4741
21
-4.06003
0
LINE
8
BLACK
6
CONTINUOUS
10
5.4741
20
-4.06003
11
5.47445
21
-4.06002
0
LINE
8
BLACK
6
CONTINUOUS
10
5.47445
20
-4.06002
11
5.5019
21
-4.06002
0
LINE
8
BLACK
6
CONTINUOUS
10
5.5019
20
-4.06002
11
5.50434
21
-4.05975
0
LINE
8
BLACK
6
CONTINUOUS
10
5.50434
20
-4.05975
11
5.50971
21
-4.05774
0
LINE
8
BLACK
6
CONTINUOUS
10
5.50971
20
-4.05774
11
5.5143
21
-4.0543
0
LINE
8
BLACK
6
CONTINUOUS
10
5.5143
20
-4.0543
11
5.51604
21
-4.05198
0
LINE
8
BLACK
6
CONTINUOUS
10
5.51604
20
-4.05198
11
5.51828
21
-4.0503
0
LINE
8
BLACK
6
CONTINUOUS
10
5.51828
20
-4.0503
11
5.52107
21
-4.05011
0
LINE
8
BLACK
6
CONTINUOUS
10
5.52107
20
-4.05011
11
5.52352
21
-4.05145
0
LINE
8
BLACK
6
CONTINUOUS
10
5.52352
20
-4.05145
11
5.52398
21
-4.05198
0
LINE
8
BLACK
6
CONTINUOUS
10
5.52398
20
-4.05198
11
5.5255
21
-4.054
0
LINE
8
BLACK
6
CONTINUOUS
10
5.5255
20
-4.054
11
5.526
21
-4.0545
0
LINE
8
BLACK
6
CONTINUOUS
10
5.526
20
-4.0545
11
5.53001
21
-4.05751
0
LINE
8
BLACK
6
CONTINUOUS
10
5.53001
20
-4.05751
11
5.53063
21
-4.05785
0
LINE
8
BLACK
6
CONTINUOUS
10
5.53063
20
-4.05785
11
5.53537
21
-4.05963
0
LINE
8
BLACK
6
CONTINUOUS
10
5.53537
20
-4.05963
11
5.53597
21
-4.05977
0
LINE
8
BLACK
6
CONTINUOUS
10
5.53597
20
-4.05977
11
5.53797
21
-4.05999
0
LINE
8
BLACK
6
CONTINUOUS
10
5.53797
20
-4.05999
11
5.53824
21
-4.06
0
LINE
8
BLACK
6
CONTINUOUS
10
5.53824
20
-4.06
11
5.55929
21
-4.06
0
LINE
8
BLACK
6
CONTINUOUS
10
5.55929
20
-4.06
11
5.55989
21
-4.05982
0
LINE
8
BLACK
6
CONTINUOUS
10
5.55989
20
-4.05982
11
5.55993
21
-4.05977
0
LINE
8
BLACK
6
CONTINUOUS
10
5.55993
20
-4.05977
11
5.56
21
-4.05947
0
LINE
8
BLACK
6
CONTINUOUS
10
5.56
20
-4.05947
11
5.56
21
-4.04
0
LINE
8
BLACK
6
CONTINUOUS
10
5.56
20
-4.04
11
5.54
21
-4.04
0
LINE
8
BLACK
6
CONTINUOUS
10
5.14
20
-4.04
11
5.14
21
-4.02
0
LINE
8
BLACK
6
CONTINUOUS
10
5.14
20
-4.02
11
5.12071
21
-4.02
0
LINE
8
BLACK
6
CONTINUOUS
10
5.12071
20
-4.02
11
5.12011
21
-4.02018
0
LINE
8
BLACK
6
CONTINUOUS
10
5.12011
20
-4.02018
11
5.12007
21
-4.02023
0
LINE
8
BLACK
6
CONTINUOUS
10
5.12007
20
-4.02023
11
5.12
21
-4.02053
0
LINE
8
BLACK
6
CONTINUOUS
10
5.12
20
-4.02053
11
5.12
21
-4.04176
0
LINE
8
BLACK
6
CONTINUOUS
10
5.12
20
-4.04176
11
5.12001
21
-4.04203
0
LINE
8
BLACK
6
CONTINUOUS
10
5.12001
20
-4.04203
11
5.12023
21
-4.04403
0
LINE
8
BLACK
6
CONTINUOUS
10
5.12023
20
-4.04403
11
5.12037
21
-4.04463
0
LINE
8
BLACK
6
CONTINUOUS
10
5.12037
20
-4.04463
11
5.12215
21
-4.04937
0
LINE
8
BLACK
6
CONTINUOUS
10
5.12215
20
-4.04937
11
5.12249
21
-4.04999
0
LINE
8
BLACK
6
CONTINUOUS
10
5.12249
20
-4.04999
11
5.1255
21
-4.054
0
LINE
8
BLACK
6
CONTINUOUS
10
5.1255
20
-4.054
11
5.126
21
-4.0545
0
LINE
8
BLACK
6
CONTINUOUS
10
5.126
20
-4.0545
11
5.13001
21
-4.05751
0
LINE
8
BLACK
6
CONTINUOUS
10
5.13001
20
-4.05751
11
5.13063
21
-4.05785
0
LINE
8
BLACK
6
CONTINUOUS
10
5.13063
20
-4.05785
11
5.13537
21
-4.05963
0
LINE
8
BLACK
6
CONTINUOUS
10
5.13537
20
-4.05963
11
5.13597
21
-4.05977
0
LINE
8
BLACK
6
CONTINUOUS
10
5.13597
20
-4.05977
11
5.13797
21
-4.05999
0
LINE
8
BLACK
6
CONTINUOUS
10
5.13797
20
-4.05999
11
5.13824
21
-4.06
0
LINE
8
BLACK
6
CONTINUOUS
10
5.13824
20
-4.06
11
5.15929
21
-4.06
0
LINE
8
BLACK
6
CONTINUOUS
10
5.15929
20
-4.06
11
5.15989
21
-4.05982
0
LINE
8
BLACK
6
CONTINUOUS
10
5.15989
20
-4.05982
11
5.15993
21
-4.05977
0
LINE
8
BLACK
6
CONTINUOUS
10
5.15993
20
-4.05977
11
5.16
21
-4.05947
0
LINE
8
BLACK
6
CONTINUOUS
10
5.16
20
-4.05947
11
5.16
21
-4.04
0
LINE
8
BLACK
6
CONTINUOUS
10
5.16
20
-4.04
11
5.14
21
-4.04
0
LINE
8
BLACK
6
CONTINUOUS
10
5.12023
20
-3.99993
11
5.12053
21
-4
0
LINE
8
BLACK
6
CONTINUOUS
10
5.12053
20
-4
11
5.14
21
-4
0
LINE
8
BLACK
6
CONTINUOUS
10
5.14
20
-4
11
5.14
21
-3.98
0
LINE
8
BLACK
6
CONTINUOUS
10
5.14
20
-3.98
11
5.16
21
-3.98
0
LINE
8
BLACK
6
CONTINUOUS
10
5.16
20
-3.98
11
5.16
21
-3.94
0
LINE
8
BLACK
6
CONTINUOUS
10
5.16
20
-3.94
11
5.14
21
-3.94
0
LINE
8
BLACK
6
CONTINUOUS
10
5.14
20
-3.94
11
5.14
21
-3.92
0
LINE
8
BLACK
6
CONTINUOUS
10
5.14
20
-3.92
11
5.12071
21
-3.92
0
LINE
8
BLACK
6
CONTINUOUS
10
5.12071
20
-3.92
11
5.12011
21
-3.92018
0
LINE
8
BLACK
6
CONTINUOUS
10
5.12011
20
-3.92018
11
5.12007
21
-3.92023
0
LINE
8
BLACK
6
CONTINUOUS
10
5.12007
20
-3.92023
11
5.12
21
-3.92053
0
LINE
8
BLACK
6
CONTINUOUS
10
5.12
20
-3.92053
11
5.12
21
-3.94176
0
LINE
8
BLACK
6
CONTINUOUS
10
5.12
20
-3.94176
11
5.12001
21
-3.94203
0
LINE
8
BLACK
6
CONTINUOUS
10
5.12001
20
-3.94203
11
5.12023
21
-3.94403
0
LINE
8
BLACK
6
CONTINUOUS
10
5.12023
20
-3.94403
11
5.12037
21
-3.94463
0
LINE
8
BLACK
6
CONTINUOUS
10
5.12037
20
-3.94463
11
5.12215
21
-3.94937
0
LINE
8
BLACK
6
CONTINUOUS
10
5.12215
20
-3.94937
11
5.12249
21
-3.94999
0
LINE
8
BLACK
6
CONTINUOUS
10
5.12249
20
-3.94999
11
5.1255
21
-3.954
0
LINE
8
BLACK
6
CONTINUOUS
10
5.1255
20
-3.954
11
5.126
21
-3.9545
0
LINE
8
BLACK
6
CONTINUOUS
10
5.126
20
-3.9545
11
5.12804
21
-3.95603
0
LINE
8
BLACK
6
CONTINUOUS
10
5.12804
20
-3.95603
11
5.12971
21
-3.95827
0
LINE
8
BLACK
6
CONTINUOUS
10
5.12971
20
-3.95827
11
5.12991
21
-3.96106
0
LINE
8
BLACK
6
CONTINUOUS
10
5.12991
20
-3.96106
11
5.12857
21
-3.96351
0
LINE
8
BLACK
6
CONTINUOUS
10
5.12857
20
-3.96351
11
5.12804
21
-3.96397
0
LINE
8
BLACK
6
CONTINUOUS
10
5.12804
20
-3.96397
11
5.126
21
-3.9655
0
LINE
8
BLACK
6
CONTINUOUS
10
5.126
20
-3.9655
11
5.1255
21
-3.966
0
LINE
8
BLACK
6
CONTINUOUS
10
5.1255
20
-3.966
11
5.12249
21
-3.97001
0
LINE
8
BLACK
6
CONTINUOUS
10
5.12249
20
-3.97001
11
5.12215
21
-3.97063
0
LINE
8
BLACK
6
CONTINUOUS
10
5.12215
20
-3.97063
11
5.12037
21
-3.97537
0
LINE
8
BLACK
6
CONTINUOUS
10
5.12037
20
-3.97537
11
5.12023
21
-3.97597
0
LINE
8
BLACK
6
CONTINUOUS
10
5.12023
20
-3.97597
11
5.12001
21
-3.97797
0
LINE
8
BLACK
6
CONTINUOUS
10
5.12001
20
-3.97797
11
5.12
21
-3.97824
0
LINE
8
BLACK
6
CONTINUOUS
10
5.12
20
-3.97824
11
5.12
21
-3.99929
0
LINE
8
BLACK
6
CONTINUOUS
10
5.12
20
-3.99929
11
5.12018
21
-3.99989
0
LINE
8
BLACK
6
CONTINUOUS
10
5.12018
20
-3.99989
11
5.12023
21
-3.99993
0
LINE
8
BLACK
6
CONTINUOUS
10
5.07999
20
-3.87797
11
5.07977
21
-3.87597
0
LINE
8
BLACK
6
CONTINUOUS
10
5.07977
20
-3.87597
11
5.07963
21
-3.87537
0
LINE
8
BLACK
6
CONTINUOUS
10
5.07963
20
-3.87537
11
5.07785
21
-3.87063
0
LINE
8
BLACK
6
CONTINUOUS
10
5.07785
20
-3.87063
11
5.07751
21
-3.87001
0
LINE
8
BLACK
6
CONTINUOUS
10
5.07751
20
-3.87001
11
5.0745
21
-3.866
0
LINE
8
BLACK
6
CONTINUOUS
10
5.0745
20
-3.866
11
5.074
21
-3.8655
0
LINE
8
BLACK
6
CONTINUOUS
10
5.074
20
-3.8655
11
5.06999
21
-3.86249
0
LINE
8
BLACK
6
CONTINUOUS
10
5.06999
20
-3.86249
11
5.06937
21
-3.86215
0
LINE
8
BLACK
6
CONTINUOUS
10
5.06937
20
-3.86215
11
5.06463
21
-3.86037
0
LINE
8
BLACK
6
CONTINUOUS
10
5.06463
20
-3.86037
11
5.06403
21
-3.86023
0
LINE
8
BLACK
6
CONTINUOUS
10
5.06403
20
-3.86023
11
5.06203
21
-3.86001
0
LINE
8
BLACK
6
CONTINUOUS
10
5.06203
20
-3.86001
11
5.06176
21
-3.86
0
LINE
8
BLACK
6
CONTINUOUS
10
5.06176
20
-3.86
11
5.04071
21
-3.86
0
LINE
8
BLACK
6
CONTINUOUS
10
5.04071
20
-3.86
11
5.04011
21
-3.86018
0
LINE
8
BLACK
6
CONTINUOUS
10
5.04011
20
-3.86018
11
5.04007
21
-3.86023
0
LINE
8
BLACK
6
CONTINUOUS
10
5.04007
20
-3.86023
11
5.04
21
-3.86053
0
LINE
8
BLACK
6
CONTINUOUS
10
5.04
20
-3.86053
11
5.04
21
-3.88
0
LINE
8
BLACK
6
CONTINUOUS
10
5.04
20
-3.88
11
5.06
21
-3.88
0
LINE
8
BLACK
6
CONTINUOUS
10
5.06
20
-3.88
11
5.06
21
-3.9
0
LINE
8
BLACK
6
CONTINUOUS
10
5.06
20
-3.9
11
5.07929
21
-3.9
0
LINE
8
BLACK
6
CONTINUOUS
10
5.07929
20
-3.9
11
5.07989
21
-3.89982
0
LINE
8
BLACK
6
CONTINUOUS
10
5.07989
20
-3.89982
11
5.07993
21
-3.89977
0
LINE
8
BLACK
6
CONTINUOUS
10
5.07993
20
-3.89977
11
5.08
21
-3.89947
0
LINE
8
BLACK
6
CONTINUOUS
10
5.08
20
-3.89947
11
5.08
21
-3.87824
0
LINE
8
BLACK
6
CONTINUOUS
10
5.08
20
-3.87824
11
5.07999
21
-3.87797
0
LINE
8
BLACK
6
CONTINUOUS
10
4.86
20
-3.94
11
4.81414
21
-3.94
0
LINE
8
BLACK
6
CONTINUOUS
10
4.81414
20
-3.94
11
4.78
21
-3.97414
0
LINE
8
BLACK
6
CONTINUOUS
10
4.78
20
-3.97414
11
4.78
21
-4.07586
0
LINE
8
BLACK
6
CONTINUOUS
10
4.78
20
-4.07586
11
5.00707
21
-4.30293
0
LINE
8
BLACK
6
CONTINUOUS
10
5.00707
20
-4.30293
11
5.00924
21
-4.30617
0
LINE
8
BLACK
6
CONTINUOUS
10
5.00924
20
-4.30617
11
5.00971
21
-4.30857
0
LINE
8
BLACK
6
CONTINUOUS
10
5.00971
20
-4.30857
11
5.01
21
-4.31
0
LINE
8
BLACK
6
CONTINUOUS
10
5.01
20
-4.31
11
5.01
21
-4.36
0
LINE
8
BLACK
6
CONTINUOUS
10
5.01
20
-4.36
11
5.03
21
-4.36
0
LINE
8
BLACK
6
CONTINUOUS
10
5.03
20
-4.36
11
5.03
21
-4.42
0
LINE
8
BLACK
6
CONTINUOUS
10
5.03
20
-4.42
11
5.01
21
-4.42
0
LINE
8
BLACK
6
CONTINUOUS
10
5.01
20
-4.42
11
5.01
21
-4.46
0
LINE
8
BLACK
6
CONTINUOUS
10
5.01
20
-4.46
11
5.03
21
-4.46
0
LINE
8
BLACK
6
CONTINUOUS
10
5.03
20
-4.46
11
5.03
21
-4.52
0
LINE
8
BLACK
6
CONTINUOUS
10
5.03
20
-4.52
11
4.97
21
-4.52
0
LINE
8
BLACK
6
CONTINUOUS
10
4.97
20
-4.52
11
4.97
21
-4.46
0
LINE
8
BLACK
6
CONTINUOUS
10
4.97
20
-4.46
11
4.99
21
-4.46
0
LINE
8
BLACK
6
CONTINUOUS
10
4.99
20
-4.46
11
4.99
21
-4.42
0
LINE
8
BLACK
6
CONTINUOUS
10
4.99
20
-4.42
11
4.97
21
-4.42
0
LINE
8
BLACK
6
CONTINUOUS
10
4.97
20
-4.42
11
4.97
21
-4.36
0
LINE
8
BLACK
6
CONTINUOUS
10
4.97
20
-4.36
11
4.99
21
-4.36
0
LINE
8
BLACK
6
CONTINUOUS
10
4.99
20
-4.36
11
4.99
21
-4.31414
0
LINE
8
BLACK
6
CONTINUOUS
10
4.99
20
-4.31414
11
4.76293
21
-4.08707
0
LINE
8
BLACK
6
CONTINUOUS
10
4.76293
20
-4.08707
11
4.76285
21
-4.08695
0
LINE
8
BLACK
6
CONTINUOUS
10
4.76285
20
-4.08695
11
4.76076
21
-4.08383
0
LINE
8
BLACK
6
CONTINUOUS
10
4.76076
20
-4.08383
11
4.76
21
-4.08
0
LINE
8
BLACK
6
CONTINUOUS
10
4.76
20
-4.08
11
4.76
21
-3.97
0
LINE
8
BLACK
6
CONTINUOUS
10
4.76
20
-3.97
11
4.76076
21
-3.96617
0
LINE
8
BLACK
6
CONTINUOUS
10
4.76076
20
-3.96617
11
4.76293
21
-3.96293
0
LINE
8
BLACK
6
CONTINUOUS
10
4.76293
20
-3.96293
11
4.8
21
-3.92586
0
LINE
8
BLACK
6
CONTINUOUS
10
4.8
20
-3.92586
11
4.8
21
-3.88
0
LINE
8
BLACK
6
CONTINUOUS
10
4.8
20
-3.88
11
4.86
21
-3.88
0
LINE
8
BLACK
6
CONTINUOUS
10
4.86
20
-3.88
11
4.86
21
-3.94
0
LINE
8
BLACK
6
CONTINUOUS
10
5.53293
20
-4.18707
11
5.38586
21
-4.04
0
LINE
8
BLACK
6
CONTINUOUS
10
5.38586
20
-4.04
11
5.34
21
-4.04
0
LINE
8
BLACK
6
CONTINUOUS
10
5.34
20
-4.04
11
5.34
21
-3.98
0
LINE
8
BLACK
6
CONTINUOUS
10
5.34
20
-3.98
11
5.4
21
-3.98
0
LINE
8
BLACK
6
CONTINUOUS
10
5.4
20
-3.98
11
5.4
21
-4.02586
0
LINE
8
BLACK
6
CONTINUOUS
10
5.4
20
-4.02586
11
5.54414
21
-4.17
0
LINE
8
BLACK
6
CONTINUOUS
10
5.54414
20
-4.17
11
5.568
21
-4.17
0
LINE
8
BLACK
6
CONTINUOUS
10
5.568
20
-4.17
11
5.57074
21
-4.16726
0
LINE
8
BLACK
6
CONTINUOUS
10
5.57074
20
-4.16726
11
5.57513
21
-4.16502
0
LINE
8
BLACK
6
CONTINUOUS
10
5.57513
20
-4.16502
11
5.58
21
-4.16425
0
LINE
8
BLACK
6
CONTINUOUS
10
5.58
20
-4.16425
11
5.58487
21
-4.16502
0
LINE
8
BLACK
6
CONTINUOUS
10
5.58487
20
-4.16502
11
5.58926
21
-4.16726
0
LINE
8
BLACK
6
CONTINUOUS
10
5.58926
20
-4.16726
11
5.59274
21
-4.17074
0
LINE
8
BLACK
6
CONTINUOUS
10
5.59274
20
-4.17074
11
5.59498
21
-4.17513
0
LINE
8
BLACK
6
CONTINUOUS
10
5.59498
20
-4.17513
11
5.59575
21
-4.18
0
LINE
8
BLACK
6
CONTINUOUS
10
5.59575
20
-4.18
11
5.59498
21
-4.18487
0
LINE
8
BLACK
6
CONTINUOUS
10
5.59498
20
-4.18487
11
5.59274
21
-4.18926
0
LINE
8
BLACK
6
CONTINUOUS
10
5.59274
20
-4.18926
11
5.58926
21
-4.19274
0
LINE
8
BLACK
6
CONTINUOUS
10
5.58926
20
-4.19274
11
5.58487
21
-4.19498
0
LINE
8
BLACK
6
CONTINUOUS
10
5.58487
20
-4.19498
11
5.58
21
-4.19575
0
LINE
8
BLACK
6
CONTINUOUS
10
5.58
20
-4.19575
11
5.57513
21
-4.19498
0
LINE
8
BLACK
6
CONTINUOUS
10
5.57513
20
-4.19498
11
5.57074
21
-4.19274
0
LINE
8
BLACK
6
CONTINUOUS
10
5.57074
20
-4.19274
11
5.568
21
-4.19
0
LINE
8
BLACK
6
CONTINUOUS
10
5.568
20
-4.19
11
5.54
21
-4.19
0
LINE
8
BLACK
6
CONTINUOUS
10
5.54
20
-4.19
11
5.53617
21
-4.18924
0
LINE
8
BLACK
6
CONTINUOUS
10
5.53617
20
-4.18924
11
5.53293
21
-4.18707
0
LINE
8
BLACK
6
CONTINUOUS
10
5.5
20
-4.04
11
5.44
21
-4.04
0
LINE
8
BLACK
6
CONTINUOUS
10
5.44
20
-4.04
11
5.44
21
-3.98
0
LINE
8
BLACK
6
CONTINUOUS
10
5.44
20
-3.98
11
5.5
21
-3.98
0
LINE
8
BLACK
6
CONTINUOUS
10
5.5
20
-3.98
11
5.5
21
-4.04
0
LINE
8
BLACK
6
CONTINUOUS
10
5.3
20
-4.04
11
5.24
21
-4.04
0
LINE
8
BLACK
6
CONTINUOUS
10
5.24
20
-4.04
11
5.24
21
-3.98
0
LINE
8
BLACK
6
CONTINUOUS
10
5.24
20
-3.98
11
5.3
21
-3.98
0
LINE
8
BLACK
6
CONTINUOUS
10
5.3
20
-3.98
11
5.3
21
-4.04
0
LINE
8
BLACK
6
CONTINUOUS
10
5.4
20
-3.94
11
5.34
21
-3.94
0
LINE
8
BLACK
6
CONTINUOUS
10
5.34
20
-3.94
11
5.34
21
-3.88
0
LINE
8
BLACK
6
CONTINUOUS
10
5.34
20
-3.88
11
5.4
21
-3.88
0
LINE
8
BLACK
6
CONTINUOUS
10
5.4
20
-3.88
11
5.4
21
-3.94
0
LINE
8
BLACK
6
CONTINUOUS
10
5.3
20
-3.94
11
5.24
21
-3.94
0
LINE
8
BLACK
6
CONTINUOUS
10
5.24
20
-3.94
11
5.24
21
-3.88
0
LINE
8
BLACK
6
CONTINUOUS
10
5.24
20
-3.88
11
5.3
21
-3.88
0
LINE
8
BLACK
6
CONTINUOUS
10
5.3
20
-3.88
11
5.3
21
-3.94
0
LINE
8
BLACK
6
CONTINUOUS
10
5.5
20
-3.94
11
5.44
21
-3.94
0
LINE
8
BLACK
6
CONTINUOUS
10
5.44
20
-3.94
11
5.44
21
-3.88
0
LINE
8
BLACK
6
CONTINUOUS
10
5.44
20
-3.88
11
5.5
21
-3.88
0
LINE
8
BLACK
6
CONTINUOUS
10
5.5
20
-3.88
11
5.5
21
-3.94
0
CIRCLE
8
BLACK
10
5.58
20
-4.18
40
0.00787402
0
CIRCLE
8
BLACK
10
5.4
20
-4.49
40
0.00787402
0
CIRCLE
8
BLACK
10
5.17
20
-4.42
40
0.00787402
0
CIRCLE
8
BLACK
10
5.3
20
-4.41
40
0.00787402
0
CIRCLE
8
BLACK
10
5.61
20
-4.42
40
0.00787402
0
CIRCLE
8
BLACK
10
5.24
20
-4.42
40
0.00787402
0
CIRCLE
8
BLACK
10
5.38
20
-4.22
40
0.00787402
0
CIRCLE
8
BLACK
10
5.53
20
-4.23
40
0.00787402
0
CIRCLE
8
BLACK
10
5.46
20
-4.22
40
0.00787402
0
CIRCLE
8
BLACK
10
5.42
20
-4.22
40
0.00787402
0
CIRCLE
8
BLACK
10
5.57
20
-4.42
40
0.00787402
0
CIRCLE
8
BLACK
10
5.5
20
-4.21
40
0.00787402
  0
ENDSEC
  0
EOF
