  0
SECTION
  2
HEADER
  9
$ANGBASE
  50
0.0
  9
$ANGDIR
  70
1
  9
$MEASUREMENT
  70
0
  0
ENDSEC
  0
SECTION
  2
TABLES
  0
TABLE
  2
LTYPE
  70
4
  0
LTYPE
  5
40F
  2
CONTINUOUS
  70
0
  3
Solid line
  72
65
  73
0
  40
0.0
  0
LTYPE
  5
410
  2
DASHDOT
 70
0
  3
Dash Dot ____ _ ____ _
 72
65
 73
4
 40
2.0
 49
1.25
 49
-0.25
 49
0.25
 49
-0.25
  0
LTYPE
  5
411
  2
DASHED
 70
0
  3
Dashed __ __ __ __ __
 72
65
 73
2
 40
0.75
 49
0.5
 49
-0.25
  0
LTYPE
  5
43B
  2
DOTTED
 70
0
  3
Dotted .  .  .  .
 72
65
 73
2
 40
0.2
 49
0.0
 49
-0.2
  0
ENDTAB
  0
TABLE
  2
STYLE
  70
4
  0
STYLE
  2
KICAD
  70
0
  40
0
  41
1
  42
1
  50
0
  71
0
  3
isocp.shx
  0
STYLE
  2
KICADB
  70
0
  40
0
  41
1
  42
1
  50
0
  71
0
  3
isocp.shx
  0
STYLE
  2
KICADI
  70
0
  40
0
  41
1
  42
1
  50
15
  71
0
  3
isocp.shx
  0
STYLE
  2
KICADBI
  70
0
  40
0
  41
1
  42
1
  50
15
  71
0
  3
isocp.shx
  0
ENDTAB
  0
TABLE
  2
LAYER
  70
1
  0
LAYER
  2
BLACK
  70
0
  62
7
  6
CONTINUOUS
  0
ENDTAB
  0
ENDSEC
  0
SECTION
  2
ENTITIES
0
LINE
8
BLACK
6
CONTINUOUS
10
5.39
20
-4.53
11
5.33
21
-4.53
0
LINE
8
BLACK
6
CONTINUOUS
10
5.33
20
-4.53
11
5.33
21
-4.47
0
LINE
8
BLACK
6
CONTINUOUS
10
5.33
20
-4.47
11
5.39
21
-4.47
0
LINE
8
BLACK
6
CONTINUOUS
10
5.39
20
-4.47
11
5.39
21
-4.53
0
LINE
8
BLACK
6
CONTINUOUS
10
5.49
20
-4.53
11
5.43
21
-4.53
0
LINE
8
BLACK
6
CONTINUOUS
10
5.43
20
-4.53
11
5.43
21
-4.47
0
LINE
8
BLACK
6
CONTINUOUS
10
5.43
20
-4.47
11
5.49
21
-4.47
0
LINE
8
BLACK
6
CONTINUOUS
10
5.49
20
-4.47
11
5.49
21
-4.53
0
LINE
8
BLACK
6
CONTINUOUS
10
5.59
20
-4.53
11
5.53
21
-4.53
0
LINE
8
BLACK
6
CONTINUOUS
10
5.53
20
-4.53
11
5.53
21
-4.47
0
LINE
8
BLACK
6
CONTINUOUS
10
5.53
20
-4.47
11
5.59
21
-4.47
0
LINE
8
BLACK
6
CONTINUOUS
10
5.59
20
-4.47
11
5.59
21
-4.53
0
LINE
8
BLACK
6
CONTINUOUS
10
4.62051
20
-4.28368
11
4.63387
21
-4.28685
0
LINE
8
BLACK
6
CONTINUOUS
10
4.63387
20
-4.28685
11
4.64678
21
-4.29155
0
LINE
8
BLACK
6
CONTINUOUS
10
4.64678
20
-4.29155
11
4.65906
21
-4.29771
0
LINE
8
BLACK
6
CONTINUOUS
10
4.65906
20
-4.29771
11
4.67053
21
-4.30526
0
LINE
8
BLACK
6
CONTINUOUS
10
4.67053
20
-4.30526
11
4.68105
21
-4.31409
0
LINE
8
BLACK
6
CONTINUOUS
10
4.68105
20
-4.31409
11
4.69048
21
-4.32408
0
LINE
8
BLACK
6
CONTINUOUS
10
4.69048
20
-4.32408
11
4.69868
21
-4.3351
0
LINE
8
BLACK
6
CONTINUOUS
10
4.69868
20
-4.3351
11
4.70555
21
-4.34699
0
LINE
8
BLACK
6
CONTINUOUS
10
4.70555
20
-4.34699
11
4.71099
21
-4.3596
0
LINE
8
BLACK
6
CONTINUOUS
10
4.71099
20
-4.3596
11
4.71493
21
-4.37276
0
LINE
8
BLACK
6
CONTINUOUS
10
4.71493
20
-4.37276
11
4.71731
21
-4.38629
0
LINE
8
BLACK
6
CONTINUOUS
10
4.71731
20
-4.38629
11
4.71811
21
-4.4
0
LINE
8
BLACK
6
CONTINUOUS
10
4.71811
20
-4.4
11
4.71731
21
-4.41371
0
LINE
8
BLACK
6
CONTINUOUS
10
4.71731
20
-4.41371
11
4.71493
21
-4.42724
0
LINE
8
BLACK
6
CONTINUOUS
10
4.71493
20
-4.42724
11
4.71099
21
-4.4404
0
LINE
8
BLACK
6
CONTINUOUS
10
4.71099
20
-4.4404
11
4.70555
21
-4.45301
0
LINE
8
BLACK
6
CONTINUOUS
10
4.70555
20
-4.45301
11
4.69868
21
-4.4649
0
LINE
8
BLACK
6
CONTINUOUS
10
4.69868
20
-4.4649
11
4.69048
21
-4.47592
0
LINE
8
BLACK
6
CONTINUOUS
10
4.69048
20
-4.47592
11
4.68105
21
-4.48591
0
LINE
8
BLACK
6
CONTINUOUS
10
4.68105
20
-4.48591
11
4.67053
21
-4.49474
0
LINE
8
BLACK
6
CONTINUOUS
10
4.67053
20
-4.49474
11
4.65906
21
-4.50229
0
LINE
8
BLACK
6
CONTINUOUS
10
4.65906
20
-4.50229
11
4.64678
21
-4.50845
0
LINE
8
BLACK
6
CONTINUOUS
10
4.64678
20
-4.50845
11
4.63387
21
-4.51315
0
LINE
8
BLACK
6
CONTINUOUS
10
4.63387
20
-4.51315
11
4.62051
21
-4.51632
0
LINE
8
BLACK
6
CONTINUOUS
10
4.62051
20
-4.51632
11
4.60687
21
-4.51791
0
LINE
8
BLACK
6
CONTINUOUS
10
4.60687
20
-4.51791
11
4.59313
21
-4.51791
0
LINE
8
BLACK
6
CONTINUOUS
10
4.59313
20
-4.51791
11
4.57949
21
-4.51632
0
LINE
8
BLACK
6
CONTINUOUS
10
4.57949
20
-4.51632
11
4.56613
21
-4.51315
0
LINE
8
BLACK
6
CONTINUOUS
10
4.56613
20
-4.51315
11
4.55322
21
-4.50845
0
LINE
8
BLACK
6
CONTINUOUS
10
4.55322
20
-4.50845
11
4.54094
21
-4.50229
0
LINE
8
BLACK
6
CONTINUOUS
10
4.54094
20
-4.50229
11
4.52947
21
-4.49474
0
LINE
8
BLACK
6
CONTINUOUS
10
4.52947
20
-4.49474
11
4.51895
21
-4.48591
0
LINE
8
BLACK
6
CONTINUOUS
10
4.51895
20
-4.48591
11
4.50952
21
-4.47592
0
LINE
8
BLACK
6
CONTINUOUS
10
4.50952
20
-4.47592
11
4.50132
21
-4.4649
0
LINE
8
BLACK
6
CONTINUOUS
10
4.50132
20
-4.4649
11
4.49445
21
-4.45301
0
LINE
8
BLACK
6
CONTINUOUS
10
4.49445
20
-4.45301
11
4.48901
21
-4.4404
0
LINE
8
BLACK
6
CONTINUOUS
10
4.48901
20
-4.4404
11
4.48507
21
-4.42724
0
LINE
8
BLACK
6
CONTINUOUS
10
4.48507
20
-4.42724
11
4.48269
21
-4.41371
0
LINE
8
BLACK
6
CONTINUOUS
10
4.48269
20
-4.41371
11
4.48189
21
-4.4
0
LINE
8
BLACK
6
CONTINUOUS
10
4.48189
20
-4.4
11
4.48269
21
-4.38629
0
LINE
8
BLACK
6
CONTINUOUS
10
4.48269
20
-4.38629
11
4.48507
21
-4.37276
0
LINE
8
BLACK
6
CONTINUOUS
10
4.48507
20
-4.37276
11
4.48901
21
-4.3596
0
LINE
8
BLACK
6
CONTINUOUS
10
4.48901
20
-4.3596
11
4.49445
21
-4.34699
0
LINE
8
BLACK
6
CONTINUOUS
10
4.49445
20
-4.34699
11
4.50132
21
-4.3351
0
LINE
8
BLACK
6
CONTINUOUS
10
4.50132
20
-4.3351
11
4.50952
21
-4.32408
0
LINE
8
BLACK
6
CONTINUOUS
10
4.50952
20
-4.32408
11
4.51895
21
-4.31409
0
LINE
8
BLACK
6
CONTINUOUS
10
4.51895
20
-4.31409
11
4.52947
21
-4.30526
0
LINE
8
BLACK
6
CONTINUOUS
10
4.52947
20
-4.30526
11
4.54094
21
-4.29771
0
LINE
8
BLACK
6
CONTINUOUS
10
4.54094
20
-4.29771
11
4.55322
21
-4.29155
0
LINE
8
BLACK
6
CONTINUOUS
10
4.55322
20
-4.29155
11
4.56613
21
-4.28685
0
LINE
8
BLACK
6
CONTINUOUS
10
4.56613
20
-4.28685
11
4.57949
21
-4.28368
0
LINE
8
BLACK
6
CONTINUOUS
10
4.57949
20
-4.28368
11
4.59313
21
-4.28209
0
LINE
8
BLACK
6
CONTINUOUS
10
4.59313
20
-4.28209
11
4.60687
21
-4.28209
0
LINE
8
BLACK
6
CONTINUOUS
10
4.60687
20
-4.28209
11
4.62051
21
-4.28368
0
LINE
8
BLACK
6
CONTINUOUS
10
5.82051
20
-4.28368
11
5.83387
21
-4.28685
0
LINE
8
BLACK
6
CONTINUOUS
10
5.83387
20
-4.28685
11
5.84678
21
-4.29155
0
LINE
8
BLACK
6
CONTINUOUS
10
5.84678
20
-4.29155
11
5.85906
21
-4.29771
0
LINE
8
BLACK
6
CONTINUOUS
10
5.85906
20
-4.29771
11
5.87053
21
-4.30526
0
LINE
8
BLACK
6
CONTINUOUS
10
5.87053
20
-4.30526
11
5.88105
21
-4.31409
0
LINE
8
BLACK
6
CONTINUOUS
10
5.88105
20
-4.31409
11
5.89048
21
-4.32408
0
LINE
8
BLACK
6
CONTINUOUS
10
5.89048
20
-4.32408
11
5.89868
21
-4.3351
0
LINE
8
BLACK
6
CONTINUOUS
10
5.89868
20
-4.3351
11
5.90555
21
-4.34699
0
LINE
8
BLACK
6
CONTINUOUS
10
5.90555
20
-4.34699
11
5.91099
21
-4.3596
0
LINE
8
BLACK
6
CONTINUOUS
10
5.91099
20
-4.3596
11
5.91493
21
-4.37276
0
LINE
8
BLACK
6
CONTINUOUS
10
5.91493
20
-4.37276
11
5.91731
21
-4.38629
0
LINE
8
BLACK
6
CONTINUOUS
10
5.91731
20
-4.38629
11
5.91811
21
-4.4
0
LINE
8
BLACK
6
CONTINUOUS
10
5.91811
20
-4.4
11
5.91731
21
-4.41371
0
LINE
8
BLACK
6
CONTINUOUS
10
5.91731
20
-4.41371
11
5.91493
21
-4.42724
0
LINE
8
BLACK
6
CONTINUOUS
10
5.91493
20
-4.42724
11
5.91099
21
-4.4404
0
LINE
8
BLACK
6
CONTINUOUS
10
5.91099
20
-4.4404
11
5.90555
21
-4.45301
0
LINE
8
BLACK
6
CONTINUOUS
10
5.90555
20
-4.45301
11
5.89868
21
-4.4649
0
LINE
8
BLACK
6
CONTINUOUS
10
5.89868
20
-4.4649
11
5.89048
21
-4.47592
0
LINE
8
BLACK
6
CONTINUOUS
10
5.89048
20
-4.47592
11
5.88105
21
-4.48591
0
LINE
8
BLACK
6
CONTINUOUS
10
5.88105
20
-4.48591
11
5.87053
21
-4.49474
0
LINE
8
BLACK
6
CONTINUOUS
10
5.87053
20
-4.49474
11
5.85906
21
-4.50229
0
LINE
8
BLACK
6
CONTINUOUS
10
5.85906
20
-4.50229
11
5.84678
21
-4.50845
0
LINE
8
BLACK
6
CONTINUOUS
10
5.84678
20
-4.50845
11
5.83387
21
-4.51315
0
LINE
8
BLACK
6
CONTINUOUS
10
5.83387
20
-4.51315
11
5.82051
21
-4.51632
0
LINE
8
BLACK
6
CONTINUOUS
10
5.82051
20
-4.51632
11
5.80687
21
-4.51791
0
LINE
8
BLACK
6
CONTINUOUS
10
5.80687
20
-4.51791
11
5.79313
21
-4.51791
0
LINE
8
BLACK
6
CONTINUOUS
10
5.79313
20
-4.51791
11
5.77949
21
-4.51632
0
LINE
8
BLACK
6
CONTINUOUS
10
5.77949
20
-4.51632
11
5.76613
21
-4.51315
0
LINE
8
BLACK
6
CONTINUOUS
10
5.76613
20
-4.51315
11
5.75322
21
-4.50845
0
LINE
8
BLACK
6
CONTINUOUS
10
5.75322
20
-4.50845
11
5.74094
21
-4.50229
0
LINE
8
BLACK
6
CONTINUOUS
10
5.74094
20
-4.50229
11
5.72947
21
-4.49474
0
LINE
8
BLACK
6
CONTINUOUS
10
5.72947
20
-4.49474
11
5.71895
21
-4.48591
0
LINE
8
BLACK
6
CONTINUOUS
10
5.71895
20
-4.48591
11
5.70952
21
-4.47592
0
LINE
8
BLACK
6
CONTINUOUS
10
5.70952
20
-4.47592
11
5.70132
21
-4.4649
0
LINE
8
BLACK
6
CONTINUOUS
10
5.70132
20
-4.4649
11
5.69445
21
-4.45301
0
LINE
8
BLACK
6
CONTINUOUS
10
5.69445
20
-4.45301
11
5.68901
21
-4.4404
0
LINE
8
BLACK
6
CONTINUOUS
10
5.68901
20
-4.4404
11
5.68507
21
-4.42724
0
LINE
8
BLACK
6
CONTINUOUS
10
5.68507
20
-4.42724
11
5.68269
21
-4.41371
0
LINE
8
BLACK
6
CONTINUOUS
10
5.68269
20
-4.41371
11
5.68189
21
-4.4
0
LINE
8
BLACK
6
CONTINUOUS
10
5.68189
20
-4.4
11
5.68269
21
-4.38629
0
LINE
8
BLACK
6
CONTINUOUS
10
5.68269
20
-4.38629
11
5.68507
21
-4.37276
0
LINE
8
BLACK
6
CONTINUOUS
10
5.68507
20
-4.37276
11
5.68901
21
-4.3596
0
LINE
8
BLACK
6
CONTINUOUS
10
5.68901
20
-4.3596
11
5.69445
21
-4.34699
0
LINE
8
BLACK
6
CONTINUOUS
10
5.69445
20
-4.34699
11
5.70132
21
-4.3351
0
LINE
8
BLACK
6
CONTINUOUS
10
5.70132
20
-4.3351
11
5.70952
21
-4.32408
0
LINE
8
BLACK
6
CONTINUOUS
10
5.70952
20
-4.32408
11
5.71895
21
-4.31409
0
LINE
8
BLACK
6
CONTINUOUS
10
5.71895
20
-4.31409
11
5.72947
21
-4.30526
0
LINE
8
BLACK
6
CONTINUOUS
10
5.72947
20
-4.30526
11
5.74094
21
-4.29771
0
LINE
8
BLACK
6
CONTINUOUS
10
5.74094
20
-4.29771
11
5.75322
21
-4.29155
0
LINE
8
BLACK
6
CONTINUOUS
10
5.75322
20
-4.29155
11
5.76613
21
-4.28685
0
LINE
8
BLACK
6
CONTINUOUS
10
5.76613
20
-4.28685
11
5.77949
21
-4.28368
0
LINE
8
BLACK
6
CONTINUOUS
10
5.77949
20
-4.28368
11
5.79313
21
-4.28209
0
LINE
8
BLACK
6
CONTINUOUS
10
5.79313
20
-4.28209
11
5.80687
21
-4.28209
0
LINE
8
BLACK
6
CONTINUOUS
10
5.80687
20
-4.28209
11
5.82051
21
-4.28368
0
LINE
8
BLACK
6
CONTINUOUS
10
5.09508
20
-4.50299
11
5.07343
21
-4.50299
0
LINE
8
BLACK
6
CONTINUOUS
10
5.07343
20
-4.50299
11
5.07343
21
-4.50279
0
LINE
8
BLACK
6
CONTINUOUS
10
5.07343
20
-4.50279
11
5.07062
21
-4.50279
0
LINE
8
BLACK
6
CONTINUOUS
10
5.07062
20
-4.50279
11
5.06525
21
-4.50121
0
LINE
8
BLACK
6
CONTINUOUS
10
5.06525
20
-4.50121
11
5.06053
21
-4.49818
0
LINE
8
BLACK
6
CONTINUOUS
10
5.06053
20
-4.49818
11
5.05687
21
-4.49395
0
LINE
8
BLACK
6
CONTINUOUS
10
5.05687
20
-4.49395
11
5.05454
21
-4.48885
0
LINE
8
BLACK
6
CONTINUOUS
10
5.05454
20
-4.48885
11
5.05374
21
-4.48331
0
LINE
8
BLACK
6
CONTINUOUS
10
5.05374
20
-4.48331
11
5.05374
21
-4.46362
0
LINE
8
BLACK
6
CONTINUOUS
10
5.05374
20
-4.46362
11
5.05454
21
-4.45808
0
LINE
8
BLACK
6
CONTINUOUS
10
5.05454
20
-4.45808
11
5.05687
21
-4.45298
0
LINE
8
BLACK
6
CONTINUOUS
10
5.05687
20
-4.45298
11
5.06053
21
-4.44875
0
LINE
8
BLACK
6
CONTINUOUS
10
5.06053
20
-4.44875
11
5.06525
21
-4.44572
0
LINE
8
BLACK
6
CONTINUOUS
10
5.06525
20
-4.44572
11
5.07062
21
-4.44414
0
LINE
8
BLACK
6
CONTINUOUS
10
5.07062
20
-4.44414
11
5.07343
21
-4.44414
0
LINE
8
BLACK
6
CONTINUOUS
10
5.07343
20
-4.44414
11
5.07343
21
-4.44394
0
LINE
8
BLACK
6
CONTINUOUS
10
5.07343
20
-4.44394
11
5.09508
21
-4.44394
0
LINE
8
BLACK
6
CONTINUOUS
10
5.09508
20
-4.44394
11
5.09508
21
-4.50299
0
LINE
8
BLACK
6
CONTINUOUS
10
5.14429
20
-4.50299
11
5.10492
21
-4.50299
0
LINE
8
BLACK
6
CONTINUOUS
10
5.10492
20
-4.50299
11
5.10492
21
-4.44394
0
LINE
8
BLACK
6
CONTINUOUS
10
5.10492
20
-4.44394
11
5.14429
21
-4.44394
0
LINE
8
BLACK
6
CONTINUOUS
10
5.14429
20
-4.44394
11
5.14429
21
-4.50299
0
LINE
8
BLACK
6
CONTINUOUS
10
5.17579
20
-4.44414
11
5.17859
21
-4.44414
0
LINE
8
BLACK
6
CONTINUOUS
10
5.17859
20
-4.44414
11
5.18396
21
-4.44572
0
LINE
8
BLACK
6
CONTINUOUS
10
5.18396
20
-4.44572
11
5.18868
21
-4.44875
0
LINE
8
BLACK
6
CONTINUOUS
10
5.18868
20
-4.44875
11
5.19235
21
-4.45298
0
LINE
8
BLACK
6
CONTINUOUS
10
5.19235
20
-4.45298
11
5.19468
21
-4.45808
0
LINE
8
BLACK
6
CONTINUOUS
10
5.19468
20
-4.45808
11
5.19547
21
-4.46362
0
LINE
8
BLACK
6
CONTINUOUS
10
5.19547
20
-4.46362
11
5.19547
21
-4.48331
0
LINE
8
BLACK
6
CONTINUOUS
10
5.19547
20
-4.48331
11
5.19468
21
-4.48885
0
LINE
8
BLACK
6
CONTINUOUS
10
5.19468
20
-4.48885
11
5.19235
21
-4.49395
0
LINE
8
BLACK
6
CONTINUOUS
10
5.19235
20
-4.49395
11
5.18868
21
-4.49818
0
LINE
8
BLACK
6
CONTINUOUS
10
5.18868
20
-4.49818
11
5.18396
21
-4.50121
0
LINE
8
BLACK
6
CONTINUOUS
10
5.18396
20
-4.50121
11
5.17859
21
-4.50279
0
LINE
8
BLACK
6
CONTINUOUS
10
5.17859
20
-4.50279
11
5.17579
21
-4.50279
0
LINE
8
BLACK
6
CONTINUOUS
10
5.17579
20
-4.50279
11
5.17579
21
-4.50299
0
LINE
8
BLACK
6
CONTINUOUS
10
5.17579
20
-4.50299
11
5.15413
21
-4.50299
0
LINE
8
BLACK
6
CONTINUOUS
10
5.15413
20
-4.50299
11
5.15413
21
-4.44394
0
LINE
8
BLACK
6
CONTINUOUS
10
5.15413
20
-4.44394
11
5.17579
21
-4.44394
0
LINE
8
BLACK
6
CONTINUOUS
10
5.17579
20
-4.44394
11
5.17579
21
-4.44414
0
LINE
8
BLACK
6
CONTINUOUS
10
5.39
20
-4.43
11
5.33
21
-4.43
0
LINE
8
BLACK
6
CONTINUOUS
10
5.33
20
-4.43
11
5.33
21
-4.37
0
LINE
8
BLACK
6
CONTINUOUS
10
5.33
20
-4.37
11
5.39
21
-4.37
0
LINE
8
BLACK
6
CONTINUOUS
10
5.39
20
-4.37
11
5.39
21
-4.43
0
LINE
8
BLACK
6
CONTINUOUS
10
5.49
20
-4.43
11
5.43
21
-4.43
0
LINE
8
BLACK
6
CONTINUOUS
10
5.43
20
-4.43
11
5.43
21
-4.37
0
LINE
8
BLACK
6
CONTINUOUS
10
5.43
20
-4.37
11
5.49
21
-4.37
0
LINE
8
BLACK
6
CONTINUOUS
10
5.49
20
-4.37
11
5.49
21
-4.43
0
LINE
8
BLACK
6
CONTINUOUS
10
5.59
20
-4.43
11
5.53
21
-4.43
0
LINE
8
BLACK
6
CONTINUOUS
10
5.53
20
-4.43
11
5.53
21
-4.37
0
LINE
8
BLACK
6
CONTINUOUS
10
5.53
20
-4.37
11
5.59
21
-4.37
0
LINE
8
BLACK
6
CONTINUOUS
10
5.59
20
-4.37
11
5.59
21
-4.43
0
LINE
8
BLACK
6
CONTINUOUS
10
5.30107
20
-4.29453
11
5.30427
21
-4.29666
0
LINE
8
BLACK
6
CONTINUOUS
10
5.30427
20
-4.29666
11
5.3064
21
-4.29986
0
LINE
8
BLACK
6
CONTINUOUS
10
5.3064
20
-4.29986
11
5.30715
21
-4.30362
0
LINE
8
BLACK
6
CONTINUOUS
10
5.30715
20
-4.30362
11
5.30715
21
-4.32331
0
LINE
8
BLACK
6
CONTINUOUS
10
5.30715
20
-4.32331
11
5.3064
21
-4.32707
0
LINE
8
BLACK
6
CONTINUOUS
10
5.3064
20
-4.32707
11
5.30427
21
-4.33027
0
LINE
8
BLACK
6
CONTINUOUS
10
5.30427
20
-4.33027
11
5.30107
21
-4.3324
0
LINE
8
BLACK
6
CONTINUOUS
10
5.30107
20
-4.3324
11
5.29731
21
-4.33315
0
LINE
8
BLACK
6
CONTINUOUS
10
5.29731
20
-4.33315
11
5.25991
21
-4.33315
0
LINE
8
BLACK
6
CONTINUOUS
10
5.25991
20
-4.33315
11
5.25614
21
-4.3324
0
LINE
8
BLACK
6
CONTINUOUS
10
5.25614
20
-4.3324
11
5.25295
21
-4.33027
0
LINE
8
BLACK
6
CONTINUOUS
10
5.25295
20
-4.33027
11
5.25081
21
-4.32707
0
LINE
8
BLACK
6
CONTINUOUS
10
5.25081
20
-4.32707
11
5.25006
21
-4.32331
0
LINE
8
BLACK
6
CONTINUOUS
10
5.25006
20
-4.32331
11
5.25006
21
-4.30362
0
LINE
8
BLACK
6
CONTINUOUS
10
5.25006
20
-4.30362
11
5.25081
21
-4.29986
0
LINE
8
BLACK
6
CONTINUOUS
10
5.25081
20
-4.29986
11
5.25295
21
-4.29666
0
LINE
8
BLACK
6
CONTINUOUS
10
5.25295
20
-4.29666
11
5.25614
21
-4.29453
0
LINE
8
BLACK
6
CONTINUOUS
10
5.25614
20
-4.29453
11
5.25991
21
-4.29378
0
LINE
8
BLACK
6
CONTINUOUS
10
5.25991
20
-4.29378
11
5.29731
21
-4.29378
0
LINE
8
BLACK
6
CONTINUOUS
10
5.29731
20
-4.29378
11
5.30107
21
-4.29453
0
LINE
8
BLACK
6
CONTINUOUS
10
5.39107
20
-4.29453
11
5.39427
21
-4.29666
0
LINE
8
BLACK
6
CONTINUOUS
10
5.39427
20
-4.29666
11
5.3964
21
-4.29986
0
LINE
8
BLACK
6
CONTINUOUS
10
5.3964
20
-4.29986
11
5.39715
21
-4.30362
0
LINE
8
BLACK
6
CONTINUOUS
10
5.39715
20
-4.30362
11
5.39715
21
-4.32331
0
LINE
8
BLACK
6
CONTINUOUS
10
5.39715
20
-4.32331
11
5.3964
21
-4.32707
0
LINE
8
BLACK
6
CONTINUOUS
10
5.3964
20
-4.32707
11
5.39427
21
-4.33027
0
LINE
8
BLACK
6
CONTINUOUS
10
5.39427
20
-4.33027
11
5.39107
21
-4.3324
0
LINE
8
BLACK
6
CONTINUOUS
10
5.39107
20
-4.3324
11
5.38731
21
-4.33315
0
LINE
8
BLACK
6
CONTINUOUS
10
5.38731
20
-4.33315
11
5.34991
21
-4.33315
0
LINE
8
BLACK
6
CONTINUOUS
10
5.34991
20
-4.33315
11
5.34614
21
-4.3324
0
LINE
8
BLACK
6
CONTINUOUS
10
5.34614
20
-4.3324
11
5.34295
21
-4.33027
0
LINE
8
BLACK
6
CONTINUOUS
10
5.34295
20
-4.33027
11
5.34081
21
-4.32707
0
LINE
8
BLACK
6
CONTINUOUS
10
5.34081
20
-4.32707
11
5.34006
21
-4.32331
0
LINE
8
BLACK
6
CONTINUOUS
10
5.34006
20
-4.32331
11
5.34006
21
-4.30362
0
LINE
8
BLACK
6
CONTINUOUS
10
5.34006
20
-4.30362
11
5.34081
21
-4.29986
0
LINE
8
BLACK
6
CONTINUOUS
10
5.34081
20
-4.29986
11
5.34295
21
-4.29666
0
LINE
8
BLACK
6
CONTINUOUS
10
5.34295
20
-4.29666
11
5.34614
21
-4.29453
0
LINE
8
BLACK
6
CONTINUOUS
10
5.34614
20
-4.29453
11
5.34991
21
-4.29378
0
LINE
8
BLACK
6
CONTINUOUS
10
5.34991
20
-4.29378
11
5.38731
21
-4.29378
0
LINE
8
BLACK
6
CONTINUOUS
10
5.38731
20
-4.29378
11
5.39107
21
-4.29453
0
LINE
8
BLACK
6
CONTINUOUS
10
5.05301
20
-4.31781
11
5.03135
21
-4.31781
0
LINE
8
BLACK
6
CONTINUOUS
10
5.03135
20
-4.31781
11
5.03135
21
-4.28041
0
LINE
8
BLACK
6
CONTINUOUS
10
5.03135
20
-4.28041
11
5.05301
21
-4.28041
0
LINE
8
BLACK
6
CONTINUOUS
10
5.05301
20
-4.28041
11
5.05301
21
-4.31781
0
LINE
8
BLACK
6
CONTINUOUS
10
5.10222
20
-4.31781
11
5.08057
21
-4.31781
0
LINE
8
BLACK
6
CONTINUOUS
10
5.08057
20
-4.31781
11
5.08057
21
-4.28041
0
LINE
8
BLACK
6
CONTINUOUS
10
5.08057
20
-4.28041
11
5.10222
21
-4.28041
0
LINE
8
BLACK
6
CONTINUOUS
10
5.10222
20
-4.28041
11
5.10222
21
-4.31781
0
LINE
8
BLACK
6
CONTINUOUS
10
5.15143
20
-4.31781
11
5.12978
21
-4.31781
0
LINE
8
BLACK
6
CONTINUOUS
10
5.12978
20
-4.31781
11
5.12978
21
-4.28041
0
LINE
8
BLACK
6
CONTINUOUS
10
5.12978
20
-4.28041
11
5.15143
21
-4.28041
0
LINE
8
BLACK
6
CONTINUOUS
10
5.15143
20
-4.28041
11
5.15143
21
-4.31781
0
LINE
8
BLACK
6
CONTINUOUS
10
5.20065
20
-4.31781
11
5.17899
21
-4.31781
0
LINE
8
BLACK
6
CONTINUOUS
10
5.17899
20
-4.31781
11
5.17899
21
-4.28041
0
LINE
8
BLACK
6
CONTINUOUS
10
5.17899
20
-4.28041
11
5.20065
21
-4.28041
0
LINE
8
BLACK
6
CONTINUOUS
10
5.20065
20
-4.28041
11
5.20065
21
-4.31781
0
LINE
8
BLACK
6
CONTINUOUS
10
5.48669
20
-4.30346
11
5.43551
21
-4.30346
0
LINE
8
BLACK
6
CONTINUOUS
10
5.43551
20
-4.30346
11
5.43551
21
-4.23654
0
LINE
8
BLACK
6
CONTINUOUS
10
5.43551
20
-4.23654
11
5.48669
21
-4.23654
0
LINE
8
BLACK
6
CONTINUOUS
10
5.48669
20
-4.23654
11
5.48669
21
-4.30346
0
LINE
8
BLACK
6
CONTINUOUS
10
5.62449
20
-4.30346
11
5.57331
21
-4.30346
0
LINE
8
BLACK
6
CONTINUOUS
10
5.57331
20
-4.30346
11
5.57331
21
-4.23654
0
LINE
8
BLACK
6
CONTINUOUS
10
5.57331
20
-4.23654
11
5.62449
21
-4.23654
0
LINE
8
BLACK
6
CONTINUOUS
10
5.62449
20
-4.23654
11
5.62449
21
-4.30346
0
LINE
8
BLACK
6
CONTINUOUS
10
5.30107
20
-4.21973
11
5.30427
21
-4.22186
0
LINE
8
BLACK
6
CONTINUOUS
10
5.30427
20
-4.22186
11
5.3064
21
-4.22505
0
LINE
8
BLACK
6
CONTINUOUS
10
5.3064
20
-4.22505
11
5.30715
21
-4.22882
0
LINE
8
BLACK
6
CONTINUOUS
10
5.30715
20
-4.22882
11
5.30715
21
-4.2485
0
LINE
8
BLACK
6
CONTINUOUS
10
5.30715
20
-4.2485
11
5.3064
21
-4.25227
0
LINE
8
BLACK
6
CONTINUOUS
10
5.3064
20
-4.25227
11
5.30427
21
-4.25546
0
LINE
8
BLACK
6
CONTINUOUS
10
5.30427
20
-4.25546
11
5.30107
21
-4.2576
0
LINE
8
BLACK
6
CONTINUOUS
10
5.30107
20
-4.2576
11
5.29731
21
-4.25835
0
LINE
8
BLACK
6
CONTINUOUS
10
5.29731
20
-4.25835
11
5.25991
21
-4.25835
0
LINE
8
BLACK
6
CONTINUOUS
10
5.25991
20
-4.25835
11
5.25614
21
-4.2576
0
LINE
8
BLACK
6
CONTINUOUS
10
5.25614
20
-4.2576
11
5.25295
21
-4.25546
0
LINE
8
BLACK
6
CONTINUOUS
10
5.25295
20
-4.25546
11
5.25081
21
-4.25227
0
LINE
8
BLACK
6
CONTINUOUS
10
5.25081
20
-4.25227
11
5.25006
21
-4.2485
0
LINE
8
BLACK
6
CONTINUOUS
10
5.25006
20
-4.2485
11
5.25006
21
-4.22882
0
LINE
8
BLACK
6
CONTINUOUS
10
5.25006
20
-4.22882
11
5.25081
21
-4.22505
0
LINE
8
BLACK
6
CONTINUOUS
10
5.25081
20
-4.22505
11
5.25295
21
-4.22186
0
LINE
8
BLACK
6
CONTINUOUS
10
5.25295
20
-4.22186
11
5.25614
21
-4.21973
0
LINE
8
BLACK
6
CONTINUOUS
10
5.25614
20
-4.21973
11
5.25991
21
-4.21898
0
LINE
8
BLACK
6
CONTINUOUS
10
5.25991
20
-4.21898
11
5.29731
21
-4.21898
0
LINE
8
BLACK
6
CONTINUOUS
10
5.29731
20
-4.21898
11
5.30107
21
-4.21973
0
LINE
8
BLACK
6
CONTINUOUS
10
5.39107
20
-4.21973
11
5.39427
21
-4.22186
0
LINE
8
BLACK
6
CONTINUOUS
10
5.39427
20
-4.22186
11
5.3964
21
-4.22505
0
LINE
8
BLACK
6
CONTINUOUS
10
5.3964
20
-4.22505
11
5.39715
21
-4.22882
0
LINE
8
BLACK
6
CONTINUOUS
10
5.39715
20
-4.22882
11
5.39715
21
-4.2485
0
LINE
8
BLACK
6
CONTINUOUS
10
5.39715
20
-4.2485
11
5.3964
21
-4.25227
0
LINE
8
BLACK
6
CONTINUOUS
10
5.3964
20
-4.25227
11
5.39427
21
-4.25546
0
LINE
8
BLACK
6
CONTINUOUS
10
5.39427
20
-4.25546
11
5.39107
21
-4.2576
0
LINE
8
BLACK
6
CONTINUOUS
10
5.39107
20
-4.2576
11
5.38731
21
-4.25835
0
LINE
8
BLACK
6
CONTINUOUS
10
5.38731
20
-4.25835
11
5.34991
21
-4.25835
0
LINE
8
BLACK
6
CONTINUOUS
10
5.34991
20
-4.25835
11
5.34614
21
-4.2576
0
LINE
8
BLACK
6
CONTINUOUS
10
5.34614
20
-4.2576
11
5.34295
21
-4.25546
0
LINE
8
BLACK
6
CONTINUOUS
10
5.34295
20
-4.25546
11
5.34081
21
-4.25227
0
LINE
8
BLACK
6
CONTINUOUS
10
5.34081
20
-4.25227
11
5.34006
21
-4.2485
0
LINE
8
BLACK
6
CONTINUOUS
10
5.34006
20
-4.2485
11
5.34006
21
-4.22882
0
LINE
8
BLACK
6
CONTINUOUS
10
5.34006
20
-4.22882
11
5.34081
21
-4.22505
0
LINE
8
BLACK
6
CONTINUOUS
10
5.34081
20
-4.22505
11
5.34295
21
-4.22186
0
LINE
8
BLACK
6
CONTINUOUS
10
5.34295
20
-4.22186
11
5.34614
21
-4.21973
0
LINE
8
BLACK
6
CONTINUOUS
10
5.34614
20
-4.21973
11
5.34991
21
-4.21898
0
LINE
8
BLACK
6
CONTINUOUS
10
5.34991
20
-4.21898
11
5.38731
21
-4.21898
0
LINE
8
BLACK
6
CONTINUOUS
10
5.38731
20
-4.21898
11
5.39107
21
-4.21973
0
LINE
8
BLACK
6
CONTINUOUS
10
5.05301
20
-4.23317
11
5.03135
21
-4.23317
0
LINE
8
BLACK
6
CONTINUOUS
10
5.03135
20
-4.23317
11
5.03135
21
-4.19576
0
LINE
8
BLACK
6
CONTINUOUS
10
5.03135
20
-4.19576
11
5.05301
21
-4.19576
0
LINE
8
BLACK
6
CONTINUOUS
10
5.05301
20
-4.19576
11
5.05301
21
-4.23317
0
LINE
8
BLACK
6
CONTINUOUS
10
5.10222
20
-4.23317
11
5.08057
21
-4.23317
0
LINE
8
BLACK
6
CONTINUOUS
10
5.08057
20
-4.23317
11
5.08057
21
-4.19576
0
LINE
8
BLACK
6
CONTINUOUS
10
5.08057
20
-4.19576
11
5.10222
21
-4.19576
0
LINE
8
BLACK
6
CONTINUOUS
10
5.10222
20
-4.19576
11
5.10222
21
-4.23317
0
LINE
8
BLACK
6
CONTINUOUS
10
5.15143
20
-4.23317
11
5.12978
21
-4.23317
0
LINE
8
BLACK
6
CONTINUOUS
10
5.12978
20
-4.23317
11
5.12978
21
-4.19576
0
LINE
8
BLACK
6
CONTINUOUS
10
5.12978
20
-4.19576
11
5.15143
21
-4.19576
0
LINE
8
BLACK
6
CONTINUOUS
10
5.15143
20
-4.19576
11
5.15143
21
-4.23317
0
LINE
8
BLACK
6
CONTINUOUS
10
5.20065
20
-4.23317
11
5.17899
21
-4.23317
0
LINE
8
BLACK
6
CONTINUOUS
10
5.17899
20
-4.23317
11
5.17899
21
-4.19576
0
LINE
8
BLACK
6
CONTINUOUS
10
5.17899
20
-4.19576
11
5.20065
21
-4.19576
0
LINE
8
BLACK
6
CONTINUOUS
10
5.20065
20
-4.19576
11
5.20065
21
-4.23317
0
LINE
8
BLACK
6
CONTINUOUS
10
5.26818
20
-4.08319
11
5.27137
21
-4.08532
0
LINE
8
BLACK
6
CONTINUOUS
10
5.27137
20
-4.08532
11
5.2735
21
-4.08852
0
LINE
8
BLACK
6
CONTINUOUS
10
5.2735
20
-4.08852
11
5.27425
21
-4.09228
0
LINE
8
BLACK
6
CONTINUOUS
10
5.27425
20
-4.09228
11
5.27425
21
-4.12772
0
LINE
8
BLACK
6
CONTINUOUS
10
5.27425
20
-4.12772
11
5.2735
21
-4.13148
0
LINE
8
BLACK
6
CONTINUOUS
10
5.2735
20
-4.13148
11
5.27137
21
-4.13468
0
LINE
8
BLACK
6
CONTINUOUS
10
5.27137
20
-4.13468
11
5.26818
21
-4.13681
0
LINE
8
BLACK
6
CONTINUOUS
10
5.26818
20
-4.13681
11
5.26441
21
-4.13756
0
LINE
8
BLACK
6
CONTINUOUS
10
5.26441
20
-4.13756
11
5.24374
21
-4.13756
0
LINE
8
BLACK
6
CONTINUOUS
10
5.24374
20
-4.13756
11
5.23997
21
-4.13681
0
LINE
8
BLACK
6
CONTINUOUS
10
5.23997
20
-4.13681
11
5.23678
21
-4.13468
0
LINE
8
BLACK
6
CONTINUOUS
10
5.23678
20
-4.13468
11
5.23465
21
-4.13148
0
LINE
8
BLACK
6
CONTINUOUS
10
5.23465
20
-4.13148
11
5.2339
21
-4.12772
0
LINE
8
BLACK
6
CONTINUOUS
10
5.2339
20
-4.12772
11
5.2339
21
-4.09228
0
LINE
8
BLACK
6
CONTINUOUS
10
5.2339
20
-4.09228
11
5.23465
21
-4.08852
0
LINE
8
BLACK
6
CONTINUOUS
10
5.23465
20
-4.08852
11
5.23678
21
-4.08532
0
LINE
8
BLACK
6
CONTINUOUS
10
5.23678
20
-4.08532
11
5.23997
21
-4.08319
0
LINE
8
BLACK
6
CONTINUOUS
10
5.23997
20
-4.08319
11
5.24374
21
-4.08244
0
LINE
8
BLACK
6
CONTINUOUS
10
5.24374
20
-4.08244
11
5.26441
21
-4.08244
0
LINE
8
BLACK
6
CONTINUOUS
10
5.26441
20
-4.08244
11
5.26818
21
-4.08319
0
LINE
8
BLACK
6
CONTINUOUS
10
5.34003
20
-4.08319
11
5.34322
21
-4.08532
0
LINE
8
BLACK
6
CONTINUOUS
10
5.34322
20
-4.08532
11
5.34535
21
-4.08852
0
LINE
8
BLACK
6
CONTINUOUS
10
5.34535
20
-4.08852
11
5.3461
21
-4.09228
0
LINE
8
BLACK
6
CONTINUOUS
10
5.3461
20
-4.09228
11
5.3461
21
-4.12772
0
LINE
8
BLACK
6
CONTINUOUS
10
5.3461
20
-4.12772
11
5.34535
21
-4.13148
0
LINE
8
BLACK
6
CONTINUOUS
10
5.34535
20
-4.13148
11
5.34322
21
-4.13468
0
LINE
8
BLACK
6
CONTINUOUS
10
5.34322
20
-4.13468
11
5.34003
21
-4.13681
0
LINE
8
BLACK
6
CONTINUOUS
10
5.34003
20
-4.13681
11
5.33626
21
-4.13756
0
LINE
8
BLACK
6
CONTINUOUS
10
5.33626
20
-4.13756
11
5.31559
21
-4.13756
0
LINE
8
BLACK
6
CONTINUOUS
10
5.31559
20
-4.13756
11
5.31182
21
-4.13681
0
LINE
8
BLACK
6
CONTINUOUS
10
5.31182
20
-4.13681
11
5.30863
21
-4.13468
0
LINE
8
BLACK
6
CONTINUOUS
10
5.30863
20
-4.13468
11
5.3065
21
-4.13148
0
LINE
8
BLACK
6
CONTINUOUS
10
5.3065
20
-4.13148
11
5.30575
21
-4.12772
0
LINE
8
BLACK
6
CONTINUOUS
10
5.30575
20
-4.12772
11
5.30575
21
-4.09228
0
LINE
8
BLACK
6
CONTINUOUS
10
5.30575
20
-4.09228
11
5.3065
21
-4.08852
0
LINE
8
BLACK
6
CONTINUOUS
10
5.3065
20
-4.08852
11
5.30863
21
-4.08532
0
LINE
8
BLACK
6
CONTINUOUS
10
5.30863
20
-4.08532
11
5.31182
21
-4.08319
0
LINE
8
BLACK
6
CONTINUOUS
10
5.31182
20
-4.08319
11
5.31559
21
-4.08244
0
LINE
8
BLACK
6
CONTINUOUS
10
5.31559
20
-4.08244
11
5.33626
21
-4.08244
0
LINE
8
BLACK
6
CONTINUOUS
10
5.33626
20
-4.08244
11
5.34003
21
-4.08319
0
LINE
8
BLACK
6
CONTINUOUS
10
5.42818
20
-4.08319
11
5.43137
21
-4.08532
0
LINE
8
BLACK
6
CONTINUOUS
10
5.43137
20
-4.08532
11
5.4335
21
-4.08852
0
LINE
8
BLACK
6
CONTINUOUS
10
5.4335
20
-4.08852
11
5.43425
21
-4.09228
0
LINE
8
BLACK
6
CONTINUOUS
10
5.43425
20
-4.09228
11
5.43425
21
-4.12772
0
LINE
8
BLACK
6
CONTINUOUS
10
5.43425
20
-4.12772
11
5.4335
21
-4.13148
0
LINE
8
BLACK
6
CONTINUOUS
10
5.4335
20
-4.13148
11
5.43137
21
-4.13468
0
LINE
8
BLACK
6
CONTINUOUS
10
5.43137
20
-4.13468
11
5.42818
21
-4.13681
0
LINE
8
BLACK
6
CONTINUOUS
10
5.42818
20
-4.13681
11
5.42441
21
-4.13756
0
LINE
8
BLACK
6
CONTINUOUS
10
5.42441
20
-4.13756
11
5.40374
21
-4.13756
0
LINE
8
BLACK
6
CONTINUOUS
10
5.40374
20
-4.13756
11
5.39997
21
-4.13681
0
LINE
8
BLACK
6
CONTINUOUS
10
5.39997
20
-4.13681
11
5.39678
21
-4.13468
0
LINE
8
BLACK
6
CONTINUOUS
10
5.39678
20
-4.13468
11
5.39465
21
-4.13148
0
LINE
8
BLACK
6
CONTINUOUS
10
5.39465
20
-4.13148
11
5.3939
21
-4.12772
0
LINE
8
BLACK
6
CONTINUOUS
10
5.3939
20
-4.12772
11
5.3939
21
-4.09228
0
LINE
8
BLACK
6
CONTINUOUS
10
5.3939
20
-4.09228
11
5.39465
21
-4.08852
0
LINE
8
BLACK
6
CONTINUOUS
10
5.39465
20
-4.08852
11
5.39678
21
-4.08532
0
LINE
8
BLACK
6
CONTINUOUS
10
5.39678
20
-4.08532
11
5.39997
21
-4.08319
0
LINE
8
BLACK
6
CONTINUOUS
10
5.39997
20
-4.08319
11
5.40374
21
-4.08244
0
LINE
8
BLACK
6
CONTINUOUS
10
5.40374
20
-4.08244
11
5.42441
21
-4.08244
0
LINE
8
BLACK
6
CONTINUOUS
10
5.42441
20
-4.08244
11
5.42818
21
-4.08319
0
LINE
8
BLACK
6
CONTINUOUS
10
5.50003
20
-4.08319
11
5.50322
21
-4.08532
0
LINE
8
BLACK
6
CONTINUOUS
10
5.50322
20
-4.08532
11
5.50535
21
-4.08852
0
LINE
8
BLACK
6
CONTINUOUS
10
5.50535
20
-4.08852
11
5.5061
21
-4.09228
0
LINE
8
BLACK
6
CONTINUOUS
10
5.5061
20
-4.09228
11
5.5061
21
-4.12772
0
LINE
8
BLACK
6
CONTINUOUS
10
5.5061
20
-4.12772
11
5.50535
21
-4.13148
0
LINE
8
BLACK
6
CONTINUOUS
10
5.50535
20
-4.13148
11
5.50322
21
-4.13468
0
LINE
8
BLACK
6
CONTINUOUS
10
5.50322
20
-4.13468
11
5.50003
21
-4.13681
0
LINE
8
BLACK
6
CONTINUOUS
10
5.50003
20
-4.13681
11
5.49626
21
-4.13756
0
LINE
8
BLACK
6
CONTINUOUS
10
5.49626
20
-4.13756
11
5.47559
21
-4.13756
0
LINE
8
BLACK
6
CONTINUOUS
10
5.47559
20
-4.13756
11
5.47182
21
-4.13681
0
LINE
8
BLACK
6
CONTINUOUS
10
5.47182
20
-4.13681
11
5.46863
21
-4.13468
0
LINE
8
BLACK
6
CONTINUOUS
10
5.46863
20
-4.13468
11
5.4665
21
-4.13148
0
LINE
8
BLACK
6
CONTINUOUS
10
5.4665
20
-4.13148
11
5.46575
21
-4.12772
0
LINE
8
BLACK
6
CONTINUOUS
10
5.46575
20
-4.12772
11
5.46575
21
-4.09228
0
LINE
8
BLACK
6
CONTINUOUS
10
5.46575
20
-4.09228
11
5.4665
21
-4.08852
0
LINE
8
BLACK
6
CONTINUOUS
10
5.4665
20
-4.08852
11
5.46863
21
-4.08532
0
LINE
8
BLACK
6
CONTINUOUS
10
5.46863
20
-4.08532
11
5.47182
21
-4.08319
0
LINE
8
BLACK
6
CONTINUOUS
10
5.47182
20
-4.08319
11
5.47559
21
-4.08244
0
LINE
8
BLACK
6
CONTINUOUS
10
5.47559
20
-4.08244
11
5.49626
21
-4.08244
0
LINE
8
BLACK
6
CONTINUOUS
10
5.49626
20
-4.08244
11
5.50003
21
-4.08319
0
LINE
8
BLACK
6
CONTINUOUS
10
4.62051
20
-3.88368
11
4.63387
21
-3.88685
0
LINE
8
BLACK
6
CONTINUOUS
10
4.63387
20
-3.88685
11
4.64678
21
-3.89155
0
LINE
8
BLACK
6
CONTINUOUS
10
4.64678
20
-3.89155
11
4.65906
21
-3.89771
0
LINE
8
BLACK
6
CONTINUOUS
10
4.65906
20
-3.89771
11
4.67053
21
-3.90526
0
LINE
8
BLACK
6
CONTINUOUS
10
4.67053
20
-3.90526
11
4.68105
21
-3.91409
0
LINE
8
BLACK
6
CONTINUOUS
10
4.68105
20
-3.91409
11
4.69048
21
-3.92408
0
LINE
8
BLACK
6
CONTINUOUS
10
4.69048
20
-3.92408
11
4.69868
21
-3.9351
0
LINE
8
BLACK
6
CONTINUOUS
10
4.69868
20
-3.9351
11
4.70555
21
-3.94699
0
LINE
8
BLACK
6
CONTINUOUS
10
4.70555
20
-3.94699
11
4.71099
21
-3.9596
0
LINE
8
BLACK
6
CONTINUOUS
10
4.71099
20
-3.9596
11
4.71493
21
-3.97276
0
LINE
8
BLACK
6
CONTINUOUS
10
4.71493
20
-3.97276
11
4.71731
21
-3.98629
0
LINE
8
BLACK
6
CONTINUOUS
10
4.71731
20
-3.98629
11
4.71811
21
-4
0
LINE
8
BLACK
6
CONTINUOUS
10
4.71811
20
-4
11
4.71731
21
-4.01371
0
LINE
8
BLACK
6
CONTINUOUS
10
4.71731
20
-4.01371
11
4.71493
21
-4.02724
0
LINE
8
BLACK
6
CONTINUOUS
10
4.71493
20
-4.02724
11
4.71099
21
-4.0404
0
LINE
8
BLACK
6
CONTINUOUS
10
4.71099
20
-4.0404
11
4.70555
21
-4.05301
0
LINE
8
BLACK
6
CONTINUOUS
10
4.70555
20
-4.05301
11
4.69868
21
-4.0649
0
LINE
8
BLACK
6
CONTINUOUS
10
4.69868
20
-4.0649
11
4.69048
21
-4.07592
0
LINE
8
BLACK
6
CONTINUOUS
10
4.69048
20
-4.07592
11
4.68105
21
-4.08591
0
LINE
8
BLACK
6
CONTINUOUS
10
4.68105
20
-4.08591
11
4.67053
21
-4.09474
0
LINE
8
BLACK
6
CONTINUOUS
10
4.67053
20
-4.09474
11
4.65906
21
-4.10229
0
LINE
8
BLACK
6
CONTINUOUS
10
4.65906
20
-4.10229
11
4.64678
21
-4.10845
0
LINE
8
BLACK
6
CONTINUOUS
10
4.64678
20
-4.10845
11
4.63387
21
-4.11315
0
LINE
8
BLACK
6
CONTINUOUS
10
4.63387
20
-4.11315
11
4.62051
21
-4.11632
0
LINE
8
BLACK
6
CONTINUOUS
10
4.62051
20
-4.11632
11
4.60687
21
-4.11791
0
LINE
8
BLACK
6
CONTINUOUS
10
4.60687
20
-4.11791
11
4.59313
21
-4.11791
0
LINE
8
BLACK
6
CONTINUOUS
10
4.59313
20
-4.11791
11
4.57949
21
-4.11632
0
LINE
8
BLACK
6
CONTINUOUS
10
4.57949
20
-4.11632
11
4.56613
21
-4.11315
0
LINE
8
BLACK
6
CONTINUOUS
10
4.56613
20
-4.11315
11
4.55322
21
-4.10845
0
LINE
8
BLACK
6
CONTINUOUS
10
4.55322
20
-4.10845
11
4.54094
21
-4.10229
0
LINE
8
BLACK
6
CONTINUOUS
10
4.54094
20
-4.10229
11
4.52947
21
-4.09474
0
LINE
8
BLACK
6
CONTINUOUS
10
4.52947
20
-4.09474
11
4.51895
21
-4.08591
0
LINE
8
BLACK
6
CONTINUOUS
10
4.51895
20
-4.08591
11
4.50952
21
-4.07592
0
LINE
8
BLACK
6
CONTINUOUS
10
4.50952
20
-4.07592
11
4.50132
21
-4.0649
0
LINE
8
BLACK
6
CONTINUOUS
10
4.50132
20
-4.0649
11
4.49445
21
-4.05301
0
LINE
8
BLACK
6
CONTINUOUS
10
4.49445
20
-4.05301
11
4.48901
21
-4.0404
0
LINE
8
BLACK
6
CONTINUOUS
10
4.48901
20
-4.0404
11
4.48507
21
-4.02724
0
LINE
8
BLACK
6
CONTINUOUS
10
4.48507
20
-4.02724
11
4.48269
21
-4.01371
0
LINE
8
BLACK
6
CONTINUOUS
10
4.48269
20
-4.01371
11
4.48189
21
-4
0
LINE
8
BLACK
6
CONTINUOUS
10
4.48189
20
-4
11
4.48269
21
-3.98629
0
LINE
8
BLACK
6
CONTINUOUS
10
4.48269
20
-3.98629
11
4.48507
21
-3.97276
0
LINE
8
BLACK
6
CONTINUOUS
10
4.48507
20
-3.97276
11
4.48901
21
-3.9596
0
LINE
8
BLACK
6
CONTINUOUS
10
4.48901
20
-3.9596
11
4.49445
21
-3.94699
0
LINE
8
BLACK
6
CONTINUOUS
10
4.49445
20
-3.94699
11
4.50132
21
-3.9351
0
LINE
8
BLACK
6
CONTINUOUS
10
4.50132
20
-3.9351
11
4.50952
21
-3.92408
0
LINE
8
BLACK
6
CONTINUOUS
10
4.50952
20
-3.92408
11
4.51895
21
-3.91409
0
LINE
8
BLACK
6
CONTINUOUS
10
4.51895
20
-3.91409
11
4.52947
21
-3.90526
0
LINE
8
BLACK
6
CONTINUOUS
10
4.52947
20
-3.90526
11
4.54094
21
-3.89771
0
LINE
8
BLACK
6
CONTINUOUS
10
4.54094
20
-3.89771
11
4.55322
21
-3.89155
0
LINE
8
BLACK
6
CONTINUOUS
10
4.55322
20
-3.89155
11
4.56613
21
-3.88685
0
LINE
8
BLACK
6
CONTINUOUS
10
4.56613
20
-3.88685
11
4.57949
21
-3.88368
0
LINE
8
BLACK
6
CONTINUOUS
10
4.57949
20
-3.88368
11
4.59313
21
-3.88209
0
LINE
8
BLACK
6
CONTINUOUS
10
4.59313
20
-3.88209
11
4.60687
21
-3.88209
0
LINE
8
BLACK
6
CONTINUOUS
10
4.60687
20
-3.88209
11
4.62051
21
-3.88368
0
LINE
8
BLACK
6
CONTINUOUS
10
5.82051
20
-3.88368
11
5.83387
21
-3.88685
0
LINE
8
BLACK
6
CONTINUOUS
10
5.83387
20
-3.88685
11
5.84678
21
-3.89155
0
LINE
8
BLACK
6
CONTINUOUS
10
5.84678
20
-3.89155
11
5.85906
21
-3.89771
0
LINE
8
BLACK
6
CONTINUOUS
10
5.85906
20
-3.89771
11
5.87053
21
-3.90526
0
LINE
8
BLACK
6
CONTINUOUS
10
5.87053
20
-3.90526
11
5.88105
21
-3.91409
0
LINE
8
BLACK
6
CONTINUOUS
10
5.88105
20
-3.91409
11
5.89048
21
-3.92408
0
LINE
8
BLACK
6
CONTINUOUS
10
5.89048
20
-3.92408
11
5.89868
21
-3.9351
0
LINE
8
BLACK
6
CONTINUOUS
10
5.89868
20
-3.9351
11
5.90555
21
-3.94699
0
LINE
8
BLACK
6
CONTINUOUS
10
5.90555
20
-3.94699
11
5.91099
21
-3.9596
0
LINE
8
BLACK
6
CONTINUOUS
10
5.91099
20
-3.9596
11
5.91493
21
-3.97276
0
LINE
8
BLACK
6
CONTINUOUS
10
5.91493
20
-3.97276
11
5.91731
21
-3.98629
0
LINE
8
BLACK
6
CONTINUOUS
10
5.91731
20
-3.98629
11
5.91811
21
-4
0
LINE
8
BLACK
6
CONTINUOUS
10
5.91811
20
-4
11
5.91731
21
-4.01371
0
LINE
8
BLACK
6
CONTINUOUS
10
5.91731
20
-4.01371
11
5.91493
21
-4.02724
0
LINE
8
BLACK
6
CONTINUOUS
10
5.91493
20
-4.02724
11
5.91099
21
-4.0404
0
LINE
8
BLACK
6
CONTINUOUS
10
5.91099
20
-4.0404
11
5.90555
21
-4.05301
0
LINE
8
BLACK
6
CONTINUOUS
10
5.90555
20
-4.05301
11
5.89868
21
-4.0649
0
LINE
8
BLACK
6
CONTINUOUS
10
5.89868
20
-4.0649
11
5.89048
21
-4.07592
0
LINE
8
BLACK
6
CONTINUOUS
10
5.89048
20
-4.07592
11
5.88105
21
-4.08591
0
LINE
8
BLACK
6
CONTINUOUS
10
5.88105
20
-4.08591
11
5.87053
21
-4.09474
0
LINE
8
BLACK
6
CONTINUOUS
10
5.87053
20
-4.09474
11
5.85906
21
-4.10229
0
LINE
8
BLACK
6
CONTINUOUS
10
5.85906
20
-4.10229
11
5.84678
21
-4.10845
0
LINE
8
BLACK
6
CONTINUOUS
10
5.84678
20
-4.10845
11
5.83387
21
-4.11315
0
LINE
8
BLACK
6
CONTINUOUS
10
5.83387
20
-4.11315
11
5.82051
21
-4.11632
0
LINE
8
BLACK
6
CONTINUOUS
10
5.82051
20
-4.11632
11
5.80687
21
-4.11791
0
LINE
8
BLACK
6
CONTINUOUS
10
5.80687
20
-4.11791
11
5.79313
21
-4.11791
0
LINE
8
BLACK
6
CONTINUOUS
10
5.79313
20
-4.11791
11
5.77949
21
-4.11632
0
LINE
8
BLACK
6
CONTINUOUS
10
5.77949
20
-4.11632
11
5.76613
21
-4.11315
0
LINE
8
BLACK
6
CONTINUOUS
10
5.76613
20
-4.11315
11
5.75322
21
-4.10845
0
LINE
8
BLACK
6
CONTINUOUS
10
5.75322
20
-4.10845
11
5.74094
21
-4.10229
0
LINE
8
BLACK
6
CONTINUOUS
10
5.74094
20
-4.10229
11
5.72947
21
-4.09474
0
LINE
8
BLACK
6
CONTINUOUS
10
5.72947
20
-4.09474
11
5.71895
21
-4.08591
0
LINE
8
BLACK
6
CONTINUOUS
10
5.71895
20
-4.08591
11
5.70952
21
-4.07592
0
LINE
8
BLACK
6
CONTINUOUS
10
5.70952
20
-4.07592
11
5.70132
21
-4.0649
0
LINE
8
BLACK
6
CONTINUOUS
10
5.70132
20
-4.0649
11
5.69445
21
-4.05301
0
LINE
8
BLACK
6
CONTINUOUS
10
5.69445
20
-4.05301
11
5.68901
21
-4.0404
0
LINE
8
BLACK
6
CONTINUOUS
10
5.68901
20
-4.0404
11
5.68507
21
-4.02724
0
LINE
8
BLACK
6
CONTINUOUS
10
5.68507
20
-4.02724
11
5.68269
21
-4.01371
0
LINE
8
BLACK
6
CONTINUOUS
10
5.68269
20
-4.01371
11
5.68189
21
-4
0
LINE
8
BLACK
6
CONTINUOUS
10
5.68189
20
-4
11
5.68269
21
-3.98629
0
LINE
8
BLACK
6
CONTINUOUS
10
5.68269
20
-3.98629
11
5.68507
21
-3.97276
0
LINE
8
BLACK
6
CONTINUOUS
10
5.68507
20
-3.97276
11
5.68901
21
-3.9596
0
LINE
8
BLACK
6
CONTINUOUS
10
5.68901
20
-3.9596
11
5.69445
21
-3.94699
0
LINE
8
BLACK
6
CONTINUOUS
10
5.69445
20
-3.94699
11
5.70132
21
-3.9351
0
LINE
8
BLACK
6
CONTINUOUS
10
5.70132
20
-3.9351
11
5.70952
21
-3.92408
0
LINE
8
BLACK
6
CONTINUOUS
10
5.70952
20
-3.92408
11
5.71895
21
-3.91409
0
LINE
8
BLACK
6
CONTINUOUS
10
5.71895
20
-3.91409
11
5.72947
21
-3.90526
0
LINE
8
BLACK
6
CONTINUOUS
10
5.72947
20
-3.90526
11
5.74094
21
-3.89771
0
LINE
8
BLACK
6
CONTINUOUS
10
5.74094
20
-3.89771
11
5.75322
21
-3.89155
0
LINE
8
BLACK
6
CONTINUOUS
10
5.75322
20
-3.89155
11
5.76613
21
-3.88685
0
LINE
8
BLACK
6
CONTINUOUS
10
5.76613
20
-3.88685
11
5.77949
21
-3.88368
0
LINE
8
BLACK
6
CONTINUOUS
10
5.77949
20
-3.88368
11
5.79313
21
-3.88209
0
LINE
8
BLACK
6
CONTINUOUS
10
5.79313
20
-3.88209
11
5.80687
21
-3.88209
0
LINE
8
BLACK
6
CONTINUOUS
10
5.80687
20
-3.88209
11
5.82051
21
-3.88368
0
LINE
8
BLACK
6
CONTINUOUS
10
4.91
20
-4.04
11
4.85
21
-4.04
0
LINE
8
BLACK
6
CONTINUOUS
10
4.85
20
-4.04
11
4.85
21
-3.98
0
LINE
8
BLACK
6
CONTINUOUS
10
4.85
20
-3.98
11
4.91
21
-3.98
0
LINE
8
BLACK
6
CONTINUOUS
10
4.91
20
-3.98
11
4.91
21
-4.04
0
LINE
8
BLACK
6
CONTINUOUS
10
5.01
20
-4.04
11
4.95
21
-4.04
0
LINE
8
BLACK
6
CONTINUOUS
10
4.95
20
-4.04
11
4.95
21
-3.98
0
LINE
8
BLACK
6
CONTINUOUS
10
4.95
20
-3.98
11
5.01
21
-3.98
0
LINE
8
BLACK
6
CONTINUOUS
10
5.01
20
-3.98
11
5.01
21
-4.04
0
LINE
8
BLACK
6
CONTINUOUS
10
5.2
20
-4.04
11
5.14
21
-4.04
0
LINE
8
BLACK
6
CONTINUOUS
10
5.14
20
-4.04
11
5.14
21
-3.98
0
LINE
8
BLACK
6
CONTINUOUS
10
5.14
20
-3.98
11
5.2
21
-3.98
0
LINE
8
BLACK
6
CONTINUOUS
10
5.2
20
-3.98
11
5.2
21
-4.04
0
LINE
8
BLACK
6
CONTINUOUS
10
5.3
20
-4.04
11
5.24
21
-4.04
0
LINE
8
BLACK
6
CONTINUOUS
10
5.24
20
-4.04
11
5.24
21
-3.98
0
LINE
8
BLACK
6
CONTINUOUS
10
5.24
20
-3.98
11
5.3
21
-3.98
0
LINE
8
BLACK
6
CONTINUOUS
10
5.3
20
-3.98
11
5.3
21
-4.04
0
LINE
8
BLACK
6
CONTINUOUS
10
5.4
20
-4.04
11
5.34
21
-4.04
0
LINE
8
BLACK
6
CONTINUOUS
10
5.34
20
-4.04
11
5.34
21
-3.98
0
LINE
8
BLACK
6
CONTINUOUS
10
5.34
20
-3.98
11
5.4
21
-3.98
0
LINE
8
BLACK
6
CONTINUOUS
10
5.4
20
-3.98
11
5.4
21
-4.04
0
LINE
8
BLACK
6
CONTINUOUS
10
5.5
20
-4.04
11
5.44
21
-4.04
0
LINE
8
BLACK
6
CONTINUOUS
10
5.44
20
-4.04
11
5.44
21
-3.98
0
LINE
8
BLACK
6
CONTINUOUS
10
5.44
20
-3.98
11
5.5
21
-3.98
0
LINE
8
BLACK
6
CONTINUOUS
10
5.5
20
-3.98
11
5.5
21
-4.04
0
LINE
8
BLACK
6
CONTINUOUS
10
5.6
20
-4.04
11
5.54
21
-4.04
0
LINE
8
BLACK
6
CONTINUOUS
10
5.54
20
-4.04
11
5.54
21
-3.98
0
LINE
8
BLACK
6
CONTINUOUS
10
5.54
20
-3.98
11
5.6
21
-3.98
0
LINE
8
BLACK
6
CONTINUOUS
10
5.6
20
-3.98
11
5.6
21
-4.04
0
LINE
8
BLACK
6
CONTINUOUS
10
4.91
20
-3.94
11
4.85
21
-3.94
0
LINE
8
BLACK
6
CONTINUOUS
10
4.85
20
-3.94
11
4.85
21
-3.88
0
LINE
8
BLACK
6
CONTINUOUS
10
4.85
20
-3.88
11
4.91
21
-3.88
0
LINE
8
BLACK
6
CONTINUOUS
10
4.91
20
-3.88
11
4.91
21
-3.94
0
LINE
8
BLACK
6
CONTINUOUS
10
5.01
20
-3.94
11
4.95
21
-3.94
0
LINE
8
BLACK
6
CONTINUOUS
10
4.95
20
-3.94
11
4.95
21
-3.88
0
LINE
8
BLACK
6
CONTINUOUS
10
4.95
20
-3.88
11
5.01
21
-3.88
0
LINE
8
BLACK
6
CONTINUOUS
10
5.01
20
-3.88
11
5.01
21
-3.94
0
LINE
8
BLACK
6
CONTINUOUS
10
5.2
20
-3.94
11
5.14
21
-3.94
0
LINE
8
BLACK
6
CONTINUOUS
10
5.14
20
-3.94
11
5.14
21
-3.88
0
LINE
8
BLACK
6
CONTINUOUS
10
5.14
20
-3.88
11
5.2
21
-3.88
0
LINE
8
BLACK
6
CONTINUOUS
10
5.2
20
-3.88
11
5.2
21
-3.94
0
LINE
8
BLACK
6
CONTINUOUS
10
5.3
20
-3.94
11
5.24
21
-3.94
0
LINE
8
BLACK
6
CONTINUOUS
10
5.24
20
-3.94
11
5.24
21
-3.88
0
LINE
8
BLACK
6
CONTINUOUS
10
5.24
20
-3.88
11
5.3
21
-3.88
0
LINE
8
BLACK
6
CONTINUOUS
10
5.3
20
-3.88
11
5.3
21
-3.94
0
LINE
8
BLACK
6
CONTINUOUS
10
5.4
20
-3.94
11
5.34
21
-3.94
0
LINE
8
BLACK
6
CONTINUOUS
10
5.34
20
-3.94
11
5.34
21
-3.88
0
LINE
8
BLACK
6
CONTINUOUS
10
5.34
20
-3.88
11
5.4
21
-3.88
0
LINE
8
BLACK
6
CONTINUOUS
10
5.4
20
-3.88
11
5.4
21
-3.94
0
LINE
8
BLACK
6
CONTINUOUS
10
5.5
20
-3.94
11
5.44
21
-3.94
0
LINE
8
BLACK
6
CONTINUOUS
10
5.44
20
-3.94
11
5.44
21
-3.88
0
LINE
8
BLACK
6
CONTINUOUS
10
5.44
20
-3.88
11
5.5
21
-3.88
0
LINE
8
BLACK
6
CONTINUOUS
10
5.5
20
-3.88
11
5.5
21
-3.94
0
LINE
8
BLACK
6
CONTINUOUS
10
5.6
20
-3.94
11
5.54
21
-3.94
0
LINE
8
BLACK
6
CONTINUOUS
10
5.54
20
-3.94
11
5.54
21
-3.88
0
LINE
8
BLACK
6
CONTINUOUS
10
5.54
20
-3.88
11
5.6
21
-3.88
0
LINE
8
BLACK
6
CONTINUOUS
10
5.6
20
-3.88
11
5.6
21
-3.94
  0
ENDSEC
  0
EOF
