  0
SECTION
  2
HEADER
  9
$ANGBASE
  50
0.0
  9
$ANGDIR
  70
1
  9
$MEASUREMENT
  70
0
  0
ENDSEC
  0
SECTION
  2
TABLES
  0
TABLE
  2
LTYPE
  70
4
  0
LTYPE
  5
40F
  2
CONTINUOUS
  70
0
  3
Solid line
  72
65
  73
0
  40
0.0
  0
LTYPE
  5
410
  2
DASHDOT
 70
0
  3
Dash Dot ____ _ ____ _
 72
65
 73
4
 40
2.0
 49
1.25
 49
-0.25
 49
0.25
 49
-0.25
  0
LTYPE
  5
411
  2
DASHED
 70
0
  3
Dashed __ __ __ __ __
 72
65
 73
2
 40
0.75
 49
0.5
 49
-0.25
  0
LTYPE
  5
43B
  2
DOTTED
 70
0
  3
Dotted .  .  .  .
 72
65
 73
2
 40
0.2
 49
0.0
 49
-0.2
  0
ENDTAB
  0
TABLE
  2
STYLE
  70
4
  0
STYLE
  2
KICAD
  70
0
  40
0
  41
1
  42
1
  50
0
  71
0
  3
isocp.shx
  0
STYLE
  2
KICADB
  70
0
  40
0
  41
1
  42
1
  50
0
  71
0
  3
isocp.shx
  0
STYLE
  2
KICADI
  70
0
  40
0
  41
1
  42
1
  50
15
  71
0
  3
isocp.shx
  0
STYLE
  2
KICADBI
  70
0
  40
0
  41
1
  42
1
  50
15
  71
0
  3
isocp.shx
  0
ENDTAB
  0
TABLE
  2
LAYER
  70
1
  0
LAYER
  2
BLACK
  70
0
  62
7
  6
CONTINUOUS
  0
ENDTAB
  0
ENDSEC
  0
SECTION
  2
ENTITIES
0
LINE
8
BLACK
6
CONTINUOUS
10
5.30107
20
-4.29453
11
5.30427
21
-4.29666
0
LINE
8
BLACK
6
CONTINUOUS
10
5.30427
20
-4.29666
11
5.3064
21
-4.29986
0
LINE
8
BLACK
6
CONTINUOUS
10
5.3064
20
-4.29986
11
5.30715
21
-4.30362
0
LINE
8
BLACK
6
CONTINUOUS
10
5.30715
20
-4.30362
11
5.30715
21
-4.32331
0
LINE
8
BLACK
6
CONTINUOUS
10
5.30715
20
-4.32331
11
5.3064
21
-4.32707
0
LINE
8
BLACK
6
CONTINUOUS
10
5.3064
20
-4.32707
11
5.30427
21
-4.33027
0
LINE
8
BLACK
6
CONTINUOUS
10
5.30427
20
-4.33027
11
5.30107
21
-4.3324
0
LINE
8
BLACK
6
CONTINUOUS
10
5.30107
20
-4.3324
11
5.29731
21
-4.33315
0
LINE
8
BLACK
6
CONTINUOUS
10
5.29731
20
-4.33315
11
5.25991
21
-4.33315
0
LINE
8
BLACK
6
CONTINUOUS
10
5.25991
20
-4.33315
11
5.25614
21
-4.3324
0
LINE
8
BLACK
6
CONTINUOUS
10
5.25614
20
-4.3324
11
5.25295
21
-4.33027
0
LINE
8
BLACK
6
CONTINUOUS
10
5.25295
20
-4.33027
11
5.25081
21
-4.32707
0
LINE
8
BLACK
6
CONTINUOUS
10
5.25081
20
-4.32707
11
5.25006
21
-4.32331
0
LINE
8
BLACK
6
CONTINUOUS
10
5.25006
20
-4.32331
11
5.25006
21
-4.30362
0
LINE
8
BLACK
6
CONTINUOUS
10
5.25006
20
-4.30362
11
5.25081
21
-4.29986
0
LINE
8
BLACK
6
CONTINUOUS
10
5.25081
20
-4.29986
11
5.25295
21
-4.29666
0
LINE
8
BLACK
6
CONTINUOUS
10
5.25295
20
-4.29666
11
5.25614
21
-4.29453
0
LINE
8
BLACK
6
CONTINUOUS
10
5.25614
20
-4.29453
11
5.25991
21
-4.29378
0
LINE
8
BLACK
6
CONTINUOUS
10
5.25991
20
-4.29378
11
5.29731
21
-4.29378
0
LINE
8
BLACK
6
CONTINUOUS
10
5.29731
20
-4.29378
11
5.30107
21
-4.29453
0
LINE
8
BLACK
6
CONTINUOUS
10
5.39107
20
-4.29453
11
5.39427
21
-4.29666
0
LINE
8
BLACK
6
CONTINUOUS
10
5.39427
20
-4.29666
11
5.3964
21
-4.29986
0
LINE
8
BLACK
6
CONTINUOUS
10
5.3964
20
-4.29986
11
5.39715
21
-4.30362
0
LINE
8
BLACK
6
CONTINUOUS
10
5.39715
20
-4.30362
11
5.39715
21
-4.32331
0
LINE
8
BLACK
6
CONTINUOUS
10
5.39715
20
-4.32331
11
5.3964
21
-4.32707
0
LINE
8
BLACK
6
CONTINUOUS
10
5.3964
20
-4.32707
11
5.39427
21
-4.33027
0
LINE
8
BLACK
6
CONTINUOUS
10
5.39427
20
-4.33027
11
5.39107
21
-4.3324
0
LINE
8
BLACK
6
CONTINUOUS
10
5.39107
20
-4.3324
11
5.38731
21
-4.33315
0
LINE
8
BLACK
6
CONTINUOUS
10
5.38731
20
-4.33315
11
5.34991
21
-4.33315
0
LINE
8
BLACK
6
CONTINUOUS
10
5.34991
20
-4.33315
11
5.34614
21
-4.3324
0
LINE
8
BLACK
6
CONTINUOUS
10
5.34614
20
-4.3324
11
5.34295
21
-4.33027
0
LINE
8
BLACK
6
CONTINUOUS
10
5.34295
20
-4.33027
11
5.34081
21
-4.32707
0
LINE
8
BLACK
6
CONTINUOUS
10
5.34081
20
-4.32707
11
5.34006
21
-4.32331
0
LINE
8
BLACK
6
CONTINUOUS
10
5.34006
20
-4.32331
11
5.34006
21
-4.30362
0
LINE
8
BLACK
6
CONTINUOUS
10
5.34006
20
-4.30362
11
5.34081
21
-4.29986
0
LINE
8
BLACK
6
CONTINUOUS
10
5.34081
20
-4.29986
11
5.34295
21
-4.29666
0
LINE
8
BLACK
6
CONTINUOUS
10
5.34295
20
-4.29666
11
5.34614
21
-4.29453
0
LINE
8
BLACK
6
CONTINUOUS
10
5.34614
20
-4.29453
11
5.34991
21
-4.29378
0
LINE
8
BLACK
6
CONTINUOUS
10
5.34991
20
-4.29378
11
5.38731
21
-4.29378
0
LINE
8
BLACK
6
CONTINUOUS
10
5.38731
20
-4.29378
11
5.39107
21
-4.29453
0
LINE
8
BLACK
6
CONTINUOUS
10
5.05301
20
-4.31781
11
5.03135
21
-4.31781
0
LINE
8
BLACK
6
CONTINUOUS
10
5.03135
20
-4.31781
11
5.03135
21
-4.28041
0
LINE
8
BLACK
6
CONTINUOUS
10
5.03135
20
-4.28041
11
5.05301
21
-4.28041
0
LINE
8
BLACK
6
CONTINUOUS
10
5.05301
20
-4.28041
11
5.05301
21
-4.31781
0
LINE
8
BLACK
6
CONTINUOUS
10
5.10222
20
-4.31781
11
5.08057
21
-4.31781
0
LINE
8
BLACK
6
CONTINUOUS
10
5.08057
20
-4.31781
11
5.08057
21
-4.28041
0
LINE
8
BLACK
6
CONTINUOUS
10
5.08057
20
-4.28041
11
5.10222
21
-4.28041
0
LINE
8
BLACK
6
CONTINUOUS
10
5.10222
20
-4.28041
11
5.10222
21
-4.31781
0
LINE
8
BLACK
6
CONTINUOUS
10
5.15143
20
-4.31781
11
5.12978
21
-4.31781
0
LINE
8
BLACK
6
CONTINUOUS
10
5.12978
20
-4.31781
11
5.12978
21
-4.28041
0
LINE
8
BLACK
6
CONTINUOUS
10
5.12978
20
-4.28041
11
5.15143
21
-4.28041
0
LINE
8
BLACK
6
CONTINUOUS
10
5.15143
20
-4.28041
11
5.15143
21
-4.31781
0
LINE
8
BLACK
6
CONTINUOUS
10
5.20065
20
-4.31781
11
5.17899
21
-4.31781
0
LINE
8
BLACK
6
CONTINUOUS
10
5.17899
20
-4.31781
11
5.17899
21
-4.28041
0
LINE
8
BLACK
6
CONTINUOUS
10
5.17899
20
-4.28041
11
5.20065
21
-4.28041
0
LINE
8
BLACK
6
CONTINUOUS
10
5.20065
20
-4.28041
11
5.20065
21
-4.31781
0
LINE
8
BLACK
6
CONTINUOUS
10
5.48669
20
-4.30346
11
5.43551
21
-4.30346
0
LINE
8
BLACK
6
CONTINUOUS
10
5.43551
20
-4.30346
11
5.43551
21
-4.23654
0
LINE
8
BLACK
6
CONTINUOUS
10
5.43551
20
-4.23654
11
5.48669
21
-4.23654
0
LINE
8
BLACK
6
CONTINUOUS
10
5.48669
20
-4.23654
11
5.48669
21
-4.30346
0
LINE
8
BLACK
6
CONTINUOUS
10
5.62449
20
-4.30346
11
5.57331
21
-4.30346
0
LINE
8
BLACK
6
CONTINUOUS
10
5.57331
20
-4.30346
11
5.57331
21
-4.23654
0
LINE
8
BLACK
6
CONTINUOUS
10
5.57331
20
-4.23654
11
5.62449
21
-4.23654
0
LINE
8
BLACK
6
CONTINUOUS
10
5.62449
20
-4.23654
11
5.62449
21
-4.30346
0
LINE
8
BLACK
6
CONTINUOUS
10
5.30107
20
-4.21973
11
5.30427
21
-4.22186
0
LINE
8
BLACK
6
CONTINUOUS
10
5.30427
20
-4.22186
11
5.3064
21
-4.22505
0
LINE
8
BLACK
6
CONTINUOUS
10
5.3064
20
-4.22505
11
5.30715
21
-4.22882
0
LINE
8
BLACK
6
CONTINUOUS
10
5.30715
20
-4.22882
11
5.30715
21
-4.2485
0
LINE
8
BLACK
6
CONTINUOUS
10
5.30715
20
-4.2485
11
5.3064
21
-4.25227
0
LINE
8
BLACK
6
CONTINUOUS
10
5.3064
20
-4.25227
11
5.30427
21
-4.25546
0
LINE
8
BLACK
6
CONTINUOUS
10
5.30427
20
-4.25546
11
5.30107
21
-4.2576
0
LINE
8
BLACK
6
CONTINUOUS
10
5.30107
20
-4.2576
11
5.29731
21
-4.25835
0
LINE
8
BLACK
6
CONTINUOUS
10
5.29731
20
-4.25835
11
5.25991
21
-4.25835
0
LINE
8
BLACK
6
CONTINUOUS
10
5.25991
20
-4.25835
11
5.25614
21
-4.2576
0
LINE
8
BLACK
6
CONTINUOUS
10
5.25614
20
-4.2576
11
5.25295
21
-4.25546
0
LINE
8
BLACK
6
CONTINUOUS
10
5.25295
20
-4.25546
11
5.25081
21
-4.25227
0
LINE
8
BLACK
6
CONTINUOUS
10
5.25081
20
-4.25227
11
5.25006
21
-4.2485
0
LINE
8
BLACK
6
CONTINUOUS
10
5.25006
20
-4.2485
11
5.25006
21
-4.22882
0
LINE
8
BLACK
6
CONTINUOUS
10
5.25006
20
-4.22882
11
5.25081
21
-4.22505
0
LINE
8
BLACK
6
CONTINUOUS
10
5.25081
20
-4.22505
11
5.25295
21
-4.22186
0
LINE
8
BLACK
6
CONTINUOUS
10
5.25295
20
-4.22186
11
5.25614
21
-4.21973
0
LINE
8
BLACK
6
CONTINUOUS
10
5.25614
20
-4.21973
11
5.25991
21
-4.21898
0
LINE
8
BLACK
6
CONTINUOUS
10
5.25991
20
-4.21898
11
5.29731
21
-4.21898
0
LINE
8
BLACK
6
CONTINUOUS
10
5.29731
20
-4.21898
11
5.30107
21
-4.21973
0
LINE
8
BLACK
6
CONTINUOUS
10
5.39107
20
-4.21973
11
5.39427
21
-4.22186
0
LINE
8
BLACK
6
CONTINUOUS
10
5.39427
20
-4.22186
11
5.3964
21
-4.22505
0
LINE
8
BLACK
6
CONTINUOUS
10
5.3964
20
-4.22505
11
5.39715
21
-4.22882
0
LINE
8
BLACK
6
CONTINUOUS
10
5.39715
20
-4.22882
11
5.39715
21
-4.2485
0
LINE
8
BLACK
6
CONTINUOUS
10
5.39715
20
-4.2485
11
5.3964
21
-4.25227
0
LINE
8
BLACK
6
CONTINUOUS
10
5.3964
20
-4.25227
11
5.39427
21
-4.25546
0
LINE
8
BLACK
6
CONTINUOUS
10
5.39427
20
-4.25546
11
5.39107
21
-4.2576
0
LINE
8
BLACK
6
CONTINUOUS
10
5.39107
20
-4.2576
11
5.38731
21
-4.25835
0
LINE
8
BLACK
6
CONTINUOUS
10
5.38731
20
-4.25835
11
5.34991
21
-4.25835
0
LINE
8
BLACK
6
CONTINUOUS
10
5.34991
20
-4.25835
11
5.34614
21
-4.2576
0
LINE
8
BLACK
6
CONTINUOUS
10
5.34614
20
-4.2576
11
5.34295
21
-4.25546
0
LINE
8
BLACK
6
CONTINUOUS
10
5.34295
20
-4.25546
11
5.34081
21
-4.25227
0
LINE
8
BLACK
6
CONTINUOUS
10
5.34081
20
-4.25227
11
5.34006
21
-4.2485
0
LINE
8
BLACK
6
CONTINUOUS
10
5.34006
20
-4.2485
11
5.34006
21
-4.22882
0
LINE
8
BLACK
6
CONTINUOUS
10
5.34006
20
-4.22882
11
5.34081
21
-4.22505
0
LINE
8
BLACK
6
CONTINUOUS
10
5.34081
20
-4.22505
11
5.34295
21
-4.22186
0
LINE
8
BLACK
6
CONTINUOUS
10
5.34295
20
-4.22186
11
5.34614
21
-4.21973
0
LINE
8
BLACK
6
CONTINUOUS
10
5.34614
20
-4.21973
11
5.34991
21
-4.21898
0
LINE
8
BLACK
6
CONTINUOUS
10
5.34991
20
-4.21898
11
5.38731
21
-4.21898
0
LINE
8
BLACK
6
CONTINUOUS
10
5.38731
20
-4.21898
11
5.39107
21
-4.21973
0
LINE
8
BLACK
6
CONTINUOUS
10
5.05301
20
-4.23317
11
5.03135
21
-4.23317
0
LINE
8
BLACK
6
CONTINUOUS
10
5.03135
20
-4.23317
11
5.03135
21
-4.19576
0
LINE
8
BLACK
6
CONTINUOUS
10
5.03135
20
-4.19576
11
5.05301
21
-4.19576
0
LINE
8
BLACK
6
CONTINUOUS
10
5.05301
20
-4.19576
11
5.05301
21
-4.23317
0
LINE
8
BLACK
6
CONTINUOUS
10
5.10222
20
-4.23317
11
5.08057
21
-4.23317
0
LINE
8
BLACK
6
CONTINUOUS
10
5.08057
20
-4.23317
11
5.08057
21
-4.19576
0
LINE
8
BLACK
6
CONTINUOUS
10
5.08057
20
-4.19576
11
5.10222
21
-4.19576
0
LINE
8
BLACK
6
CONTINUOUS
10
5.10222
20
-4.19576
11
5.10222
21
-4.23317
0
LINE
8
BLACK
6
CONTINUOUS
10
5.15143
20
-4.23317
11
5.12978
21
-4.23317
0
LINE
8
BLACK
6
CONTINUOUS
10
5.12978
20
-4.23317
11
5.12978
21
-4.19576
0
LINE
8
BLACK
6
CONTINUOUS
10
5.12978
20
-4.19576
11
5.15143
21
-4.19576
0
LINE
8
BLACK
6
CONTINUOUS
10
5.15143
20
-4.19576
11
5.15143
21
-4.23317
0
LINE
8
BLACK
6
CONTINUOUS
10
5.20065
20
-4.23317
11
5.17899
21
-4.23317
0
LINE
8
BLACK
6
CONTINUOUS
10
5.17899
20
-4.23317
11
5.17899
21
-4.19576
0
LINE
8
BLACK
6
CONTINUOUS
10
5.17899
20
-4.19576
11
5.20065
21
-4.19576
0
LINE
8
BLACK
6
CONTINUOUS
10
5.20065
20
-4.19576
11
5.20065
21
-4.23317
  0
ENDSEC
  0
EOF
