  0
SECTION
  2
HEADER
  9
$ANGBASE
  50
0.0
  9
$ANGDIR
  70
1
  9
$MEASUREMENT
  70
0
  0
ENDSEC
  0
SECTION
  2
TABLES
  0
TABLE
  2
LTYPE
  70
4
  0
LTYPE
  5
40F
  2
CONTINUOUS
  70
0
  3
Solid line
  72
65
  73
0
  40
0.0
  0
LTYPE
  5
410
  2
DASHDOT
 70
0
  3
Dash Dot ____ _ ____ _
 72
65
 73
4
 40
2.0
 49
1.25
 49
-0.25
 49
0.25
 49
-0.25
  0
LTYPE
  5
411
  2
DASHED
 70
0
  3
Dashed __ __ __ __ __
 72
65
 73
2
 40
0.75
 49
0.5
 49
-0.25
  0
LTYPE
  5
43B
  2
DOTTED
 70
0
  3
Dotted .  .  .  .
 72
65
 73
2
 40
0.2
 49
0.0
 49
-0.2
  0
ENDTAB
  0
TABLE
  2
STYLE
  70
4
  0
STYLE
  2
KICAD
  70
0
  40
0
  41
1
  42
1
  50
0
  71
0
  3
isocp.shx
  0
STYLE
  2
KICADB
  70
0
  40
0
  41
1
  42
1
  50
0
  71
0
  3
isocp.shx
  0
STYLE
  2
KICADI
  70
0
  40
0
  41
1
  42
1
  50
15
  71
0
  3
isocp.shx
  0
STYLE
  2
KICADBI
  70
0
  40
0
  41
1
  42
1
  50
15
  71
0
  3
isocp.shx
  0
ENDTAB
  0
TABLE
  2
LAYER
  70
1
  0
LAYER
  2
BLACK
  70
0
  62
7
  6
CONTINUOUS
  0
ENDTAB
  0
ENDSEC
  0
SECTION
  2
ENTITIES
0
LINE
8
BLACK
6
CONTINUOUS
10
5.46072
20
-4.39022
11
5.46043
21
-4.38953
0
LINE
8
BLACK
6
CONTINUOUS
10
5.46043
20
-4.38953
11
5.46043
21
-4.25567
0
LINE
8
BLACK
6
CONTINUOUS
10
5.46043
20
-4.25567
11
5.46072
21
-4.25497
0
LINE
8
BLACK
6
CONTINUOUS
10
5.46072
20
-4.25497
11
5.46142
21
-4.25469
0
LINE
8
BLACK
6
CONTINUOUS
10
5.46142
20
-4.25469
11
5.53858
21
-4.25469
0
LINE
8
BLACK
6
CONTINUOUS
10
5.53858
20
-4.25469
11
5.53928
21
-4.25497
0
LINE
8
BLACK
6
CONTINUOUS
10
5.53928
20
-4.25497
11
5.53957
21
-4.25567
0
LINE
8
BLACK
6
CONTINUOUS
10
5.53957
20
-4.25567
11
5.53957
21
-4.38953
0
LINE
8
BLACK
6
CONTINUOUS
10
5.53957
20
-4.38953
11
5.53928
21
-4.39022
0
LINE
8
BLACK
6
CONTINUOUS
10
5.53928
20
-4.39022
11
5.53858
21
-4.39051
0
LINE
8
BLACK
6
CONTINUOUS
10
5.53858
20
-4.39051
11
5.46142
21
-4.39051
0
LINE
8
BLACK
6
CONTINUOUS
10
5.46142
20
-4.39051
11
5.46072
21
-4.39022
0
LINE
8
BLACK
6
CONTINUOUS
10
5.4624
20
-4.25665
11
5.4624
21
-4.38854
0
LINE
8
BLACK
6
CONTINUOUS
10
5.4624
20
-4.38854
11
5.5376
21
-4.38854
0
LINE
8
BLACK
6
CONTINUOUS
10
5.5376
20
-4.38854
11
5.5376
21
-4.25665
0
LINE
8
BLACK
6
CONTINUOUS
10
5.5376
20
-4.25665
11
5.4624
21
-4.25665
0
LINE
8
BLACK
6
CONTINUOUS
10
5.37072
20
-4.39022
11
5.37043
21
-4.38953
0
LINE
8
BLACK
6
CONTINUOUS
10
5.37043
20
-4.38953
11
5.37043
21
-4.25567
0
LINE
8
BLACK
6
CONTINUOUS
10
5.37043
20
-4.25567
11
5.37072
21
-4.25497
0
LINE
8
BLACK
6
CONTINUOUS
10
5.37072
20
-4.25497
11
5.37142
21
-4.25469
0
LINE
8
BLACK
6
CONTINUOUS
10
5.37142
20
-4.25469
11
5.44858
21
-4.25469
0
LINE
8
BLACK
6
CONTINUOUS
10
5.44858
20
-4.25469
11
5.44928
21
-4.25497
0
LINE
8
BLACK
6
CONTINUOUS
10
5.44928
20
-4.25497
11
5.44957
21
-4.25567
0
LINE
8
BLACK
6
CONTINUOUS
10
5.44957
20
-4.25567
11
5.44957
21
-4.38953
0
LINE
8
BLACK
6
CONTINUOUS
10
5.44957
20
-4.38953
11
5.44928
21
-4.39022
0
LINE
8
BLACK
6
CONTINUOUS
10
5.44928
20
-4.39022
11
5.44858
21
-4.39051
0
LINE
8
BLACK
6
CONTINUOUS
10
5.44858
20
-4.39051
11
5.37142
21
-4.39051
0
LINE
8
BLACK
6
CONTINUOUS
10
5.37142
20
-4.39051
11
5.37072
21
-4.39022
0
LINE
8
BLACK
6
CONTINUOUS
10
5.3724
20
-4.25665
11
5.3724
21
-4.38854
0
LINE
8
BLACK
6
CONTINUOUS
10
5.3724
20
-4.38854
11
5.4476
21
-4.38854
0
LINE
8
BLACK
6
CONTINUOUS
10
5.4476
20
-4.38854
11
5.4476
21
-4.25665
0
LINE
8
BLACK
6
CONTINUOUS
10
5.4476
20
-4.25665
11
5.3724
21
-4.25665
0
LINE
8
BLACK
6
CONTINUOUS
10
5.38316
20
-4.1481
11
5.38287
21
-4.1474
0
LINE
8
BLACK
6
CONTINUOUS
10
5.38287
20
-4.1474
11
5.38287
21
-4.0726
0
LINE
8
BLACK
6
CONTINUOUS
10
5.38287
20
-4.0726
11
5.38316
21
-4.0719
0
LINE
8
BLACK
6
CONTINUOUS
10
5.38316
20
-4.0719
11
5.38386
21
-4.07161
0
LINE
8
BLACK
6
CONTINUOUS
10
5.38386
20
-4.07161
11
5.51614
21
-4.07161
0
LINE
8
BLACK
6
CONTINUOUS
10
5.51614
20
-4.07161
11
5.51684
21
-4.0719
0
LINE
8
BLACK
6
CONTINUOUS
10
5.51684
20
-4.0719
11
5.51713
21
-4.0726
0
LINE
8
BLACK
6
CONTINUOUS
10
5.51713
20
-4.0726
11
5.51713
21
-4.1474
0
LINE
8
BLACK
6
CONTINUOUS
10
5.51713
20
-4.1474
11
5.51684
21
-4.1481
0
LINE
8
BLACK
6
CONTINUOUS
10
5.51684
20
-4.1481
11
5.51614
21
-4.14839
0
LINE
8
BLACK
6
CONTINUOUS
10
5.51614
20
-4.14839
11
5.38386
21
-4.14839
0
LINE
8
BLACK
6
CONTINUOUS
10
5.38386
20
-4.14839
11
5.38316
21
-4.1481
0
LINE
8
BLACK
6
CONTINUOUS
10
5.38484
20
-4.07358
11
5.38484
21
-4.14642
0
LINE
8
BLACK
6
CONTINUOUS
10
5.38484
20
-4.14642
11
5.51516
21
-4.14642
0
LINE
8
BLACK
6
CONTINUOUS
10
5.51516
20
-4.14642
11
5.51516
21
-4.07358
0
LINE
8
BLACK
6
CONTINUOUS
10
5.51516
20
-4.07358
11
5.38484
21
-4.07358
0
LINE
8
BLACK
6
CONTINUOUS
10
5.22316
20
-4.1481
11
5.22287
21
-4.1474
0
LINE
8
BLACK
6
CONTINUOUS
10
5.22287
20
-4.1474
11
5.22287
21
-4.0726
0
LINE
8
BLACK
6
CONTINUOUS
10
5.22287
20
-4.0726
11
5.22316
21
-4.0719
0
LINE
8
BLACK
6
CONTINUOUS
10
5.22316
20
-4.0719
11
5.22386
21
-4.07161
0
LINE
8
BLACK
6
CONTINUOUS
10
5.22386
20
-4.07161
11
5.35614
21
-4.07161
0
LINE
8
BLACK
6
CONTINUOUS
10
5.35614
20
-4.07161
11
5.35684
21
-4.0719
0
LINE
8
BLACK
6
CONTINUOUS
10
5.35684
20
-4.0719
11
5.35713
21
-4.0726
0
LINE
8
BLACK
6
CONTINUOUS
10
5.35713
20
-4.0726
11
5.35713
21
-4.1474
0
LINE
8
BLACK
6
CONTINUOUS
10
5.35713
20
-4.1474
11
5.35684
21
-4.1481
0
LINE
8
BLACK
6
CONTINUOUS
10
5.35684
20
-4.1481
11
5.35614
21
-4.14839
0
LINE
8
BLACK
6
CONTINUOUS
10
5.35614
20
-4.14839
11
5.22386
21
-4.14839
0
LINE
8
BLACK
6
CONTINUOUS
10
5.22386
20
-4.14839
11
5.22316
21
-4.1481
0
LINE
8
BLACK
6
CONTINUOUS
10
5.22484
20
-4.07358
11
5.22484
21
-4.14642
0
LINE
8
BLACK
6
CONTINUOUS
10
5.22484
20
-4.14642
11
5.35516
21
-4.14642
0
LINE
8
BLACK
6
CONTINUOUS
10
5.35516
20
-4.14642
11
5.35516
21
-4.07358
0
LINE
8
BLACK
6
CONTINUOUS
10
5.35516
20
-4.07358
11
5.22484
21
-4.07358
  0
ENDSEC
  0
EOF
