  0
SECTION
  2
HEADER
  9
$ANGBASE
  50
0.0
  9
$ANGDIR
  70
1
  9
$MEASUREMENT
  70
0
  0
ENDSEC
  0
SECTION
  2
TABLES
  0
TABLE
  2
LTYPE
  70
4
  0
LTYPE
  5
40F
  2
CONTINUOUS
  70
0
  3
Solid line
  72
65
  73
0
  40
0.0
  0
LTYPE
  5
410
  2
DASHDOT
 70
0
  3
Dash Dot ____ _ ____ _
 72
65
 73
4
 40
2.0
 49
1.25
 49
-0.25
 49
0.25
 49
-0.25
  0
LTYPE
  5
411
  2
DASHED
 70
0
  3
Dashed __ __ __ __ __
 72
65
 73
2
 40
0.75
 49
0.5
 49
-0.25
  0
LTYPE
  5
43B
  2
DOTTED
 70
0
  3
Dotted .  .  .  .
 72
65
 73
2
 40
0.2
 49
0.0
 49
-0.2
  0
ENDTAB
  0
TABLE
  2
STYLE
  70
4
  0
STYLE
  2
KICAD
  70
0
  40
0
  41
1
  42
1
  50
0
  71
0
  3
isocp.shx
  0
STYLE
  2
KICADB
  70
0
  40
0
  41
1
  42
1
  50
0
  71
0
  3
isocp.shx
  0
STYLE
  2
KICADI
  70
0
  40
0
  41
1
  42
1
  50
15
  71
0
  3
isocp.shx
  0
STYLE
  2
KICADBI
  70
0
  40
0
  41
1
  42
1
  50
15
  71
0
  3
isocp.shx
  0
ENDTAB
  0
TABLE
  2
LAYER
  70
1
  0
LAYER
  2
BLACK
  70
0
  62
7
  6
CONTINUOUS
  0
ENDTAB
  0
ENDSEC
  0
SECTION
  2
ENTITIES
0
LINE
8
BLACK
6
CONTINUOUS
10
5.49
20
-4.53
11
5.43
21
-4.53
0
LINE
8
BLACK
6
CONTINUOUS
10
5.43
20
-4.53
11
5.43
21
-4.47
0
LINE
8
BLACK
6
CONTINUOUS
10
5.43
20
-4.47
11
5.49
21
-4.47
0
LINE
8
BLACK
6
CONTINUOUS
10
5.49
20
-4.47
11
5.49
21
-4.53
0
LINE
8
BLACK
6
CONTINUOUS
10
5.04705
20
-4.35904
11
5.05144
21
-4.36128
0
LINE
8
BLACK
6
CONTINUOUS
10
5.05144
20
-4.36128
11
5.05492
21
-4.36476
0
LINE
8
BLACK
6
CONTINUOUS
10
5.05492
20
-4.36476
11
5.05582
21
-4.36652
0
LINE
8
BLACK
6
CONTINUOUS
10
5.05582
20
-4.36652
11
5.06969
21
-4.36652
0
LINE
8
BLACK
6
CONTINUOUS
10
5.06969
20
-4.36652
11
5.07091
21
-4.3668
0
LINE
8
BLACK
6
CONTINUOUS
10
5.07091
20
-4.3668
11
5.07216
21
-4.36694
0
LINE
8
BLACK
6
CONTINUOUS
10
5.07216
20
-4.36694
11
5.07252
21
-4.36716
0
LINE
8
BLACK
6
CONTINUOUS
10
5.07252
20
-4.36716
11
5.07294
21
-4.36726
0
LINE
8
BLACK
6
CONTINUOUS
10
5.07294
20
-4.36726
11
5.07392
21
-4.36804
0
LINE
8
BLACK
6
CONTINUOUS
10
5.07392
20
-4.36804
11
5.07499
21
-4.36871
0
LINE
8
BLACK
6
CONTINUOUS
10
5.07499
20
-4.36871
11
5.12991
21
-4.42363
0
LINE
8
BLACK
6
CONTINUOUS
10
5.12991
20
-4.42363
11
5.13058
21
-4.4247
0
LINE
8
BLACK
6
CONTINUOUS
10
5.13058
20
-4.4247
11
5.13136
21
-4.42568
0
LINE
8
BLACK
6
CONTINUOUS
10
5.13136
20
-4.42568
11
5.13146
21
-4.4261
0
LINE
8
BLACK
6
CONTINUOUS
10
5.13146
20
-4.4261
11
5.13169
21
-4.42646
0
LINE
8
BLACK
6
CONTINUOUS
10
5.13169
20
-4.42646
11
5.13183
21
-4.42771
0
LINE
8
BLACK
6
CONTINUOUS
10
5.13183
20
-4.42771
11
5.13211
21
-4.42894
0
LINE
8
BLACK
6
CONTINUOUS
10
5.13211
20
-4.42894
11
5.13211
21
-4.44394
0
LINE
8
BLACK
6
CONTINUOUS
10
5.13211
20
-4.44394
11
5.14429
21
-4.44394
0
LINE
8
BLACK
6
CONTINUOUS
10
5.14429
20
-4.44394
11
5.14429
21
-4.46165
0
LINE
8
BLACK
6
CONTINUOUS
10
5.14429
20
-4.46165
11
5.15413
21
-4.46165
0
LINE
8
BLACK
6
CONTINUOUS
10
5.15413
20
-4.46165
11
5.15413
21
-4.44394
0
LINE
8
BLACK
6
CONTINUOUS
10
5.15413
20
-4.44394
11
5.17579
21
-4.44394
0
LINE
8
BLACK
6
CONTINUOUS
10
5.17579
20
-4.44394
11
5.17579
21
-4.44414
0
LINE
8
BLACK
6
CONTINUOUS
10
5.17579
20
-4.44414
11
5.17859
21
-4.44414
0
LINE
8
BLACK
6
CONTINUOUS
10
5.17859
20
-4.44414
11
5.17898
21
-4.44425
0
LINE
8
BLACK
6
CONTINUOUS
10
5.17898
20
-4.44425
11
5.17898
21
-4.43719
0
LINE
8
BLACK
6
CONTINUOUS
10
5.17898
20
-4.43719
11
5.17624
21
-4.43445
0
LINE
8
BLACK
6
CONTINUOUS
10
5.17624
20
-4.43445
11
5.174
21
-4.43006
0
LINE
8
BLACK
6
CONTINUOUS
10
5.174
20
-4.43006
11
5.17323
21
-4.4252
0
LINE
8
BLACK
6
CONTINUOUS
10
5.17323
20
-4.4252
11
5.174
21
-4.42033
0
LINE
8
BLACK
6
CONTINUOUS
10
5.174
20
-4.42033
11
5.17624
21
-4.41594
0
LINE
8
BLACK
6
CONTINUOUS
10
5.17624
20
-4.41594
11
5.17972
21
-4.41246
0
LINE
8
BLACK
6
CONTINUOUS
10
5.17972
20
-4.41246
11
5.18411
21
-4.41022
0
LINE
8
BLACK
6
CONTINUOUS
10
5.18411
20
-4.41022
11
5.18898
21
-4.40945
0
LINE
8
BLACK
6
CONTINUOUS
10
5.18898
20
-4.40945
11
5.19384
21
-4.41022
0
LINE
8
BLACK
6
CONTINUOUS
10
5.19384
20
-4.41022
11
5.19823
21
-4.41246
0
LINE
8
BLACK
6
CONTINUOUS
10
5.19823
20
-4.41246
11
5.20172
21
-4.41594
0
LINE
8
BLACK
6
CONTINUOUS
10
5.20172
20
-4.41594
11
5.20395
21
-4.42033
0
LINE
8
BLACK
6
CONTINUOUS
10
5.20395
20
-4.42033
11
5.20472
21
-4.4252
0
LINE
8
BLACK
6
CONTINUOUS
10
5.20472
20
-4.4252
11
5.20395
21
-4.43006
0
LINE
8
BLACK
6
CONTINUOUS
10
5.20395
20
-4.43006
11
5.20172
21
-4.43445
0
LINE
8
BLACK
6
CONTINUOUS
10
5.20172
20
-4.43445
11
5.19898
21
-4.43719
0
LINE
8
BLACK
6
CONTINUOUS
10
5.19898
20
-4.43719
11
5.19898
21
-4.46028
0
LINE
8
BLACK
6
CONTINUOUS
10
5.19898
20
-4.46028
11
5.19898
21
-4.46028
0
LINE
8
BLACK
6
CONTINUOUS
10
5.19898
20
-4.46028
11
5.19822
21
-4.4641
0
LINE
8
BLACK
6
CONTINUOUS
10
5.19822
20
-4.4641
11
5.19605
21
-4.46735
0
LINE
8
BLACK
6
CONTINUOUS
10
5.19605
20
-4.46735
11
5.19547
21
-4.46792
0
LINE
8
BLACK
6
CONTINUOUS
10
5.19547
20
-4.46792
11
5.19547
21
-4.48331
0
LINE
8
BLACK
6
CONTINUOUS
10
5.19547
20
-4.48331
11
5.19468
21
-4.48885
0
LINE
8
BLACK
6
CONTINUOUS
10
5.19468
20
-4.48885
11
5.19235
21
-4.49395
0
LINE
8
BLACK
6
CONTINUOUS
10
5.19235
20
-4.49395
11
5.18868
21
-4.49818
0
LINE
8
BLACK
6
CONTINUOUS
10
5.18868
20
-4.49818
11
5.18396
21
-4.50121
0
LINE
8
BLACK
6
CONTINUOUS
10
5.18396
20
-4.50121
11
5.17859
21
-4.50279
0
LINE
8
BLACK
6
CONTINUOUS
10
5.17859
20
-4.50279
11
5.17579
21
-4.50279
0
LINE
8
BLACK
6
CONTINUOUS
10
5.17579
20
-4.50279
11
5.17579
21
-4.50299
0
LINE
8
BLACK
6
CONTINUOUS
10
5.17579
20
-4.50299
11
5.15413
21
-4.50299
0
LINE
8
BLACK
6
CONTINUOUS
10
5.15413
20
-4.50299
11
5.15413
21
-4.48528
0
LINE
8
BLACK
6
CONTINUOUS
10
5.15413
20
-4.48528
11
5.14429
21
-4.48528
0
LINE
8
BLACK
6
CONTINUOUS
10
5.14429
20
-4.48528
11
5.14429
21
-4.50299
0
LINE
8
BLACK
6
CONTINUOUS
10
5.14429
20
-4.50299
11
5.10492
21
-4.50299
0
LINE
8
BLACK
6
CONTINUOUS
10
5.10492
20
-4.50299
11
5.10492
21
-4.44394
0
LINE
8
BLACK
6
CONTINUOUS
10
5.10492
20
-4.44394
11
5.11711
21
-4.44394
0
LINE
8
BLACK
6
CONTINUOUS
10
5.11711
20
-4.44394
11
5.11711
21
-4.43204
0
LINE
8
BLACK
6
CONTINUOUS
10
5.11711
20
-4.43204
11
5.06658
21
-4.38152
0
LINE
8
BLACK
6
CONTINUOUS
10
5.06658
20
-4.38152
11
5.05582
21
-4.38152
0
LINE
8
BLACK
6
CONTINUOUS
10
5.05582
20
-4.38152
11
5.05492
21
-4.38327
0
LINE
8
BLACK
6
CONTINUOUS
10
5.05492
20
-4.38327
11
5.05144
21
-4.38676
0
LINE
8
BLACK
6
CONTINUOUS
10
5.05144
20
-4.38676
11
5.04705
21
-4.38899
0
LINE
8
BLACK
6
CONTINUOUS
10
5.04705
20
-4.38899
11
5.04218
21
-4.38976
0
LINE
8
BLACK
6
CONTINUOUS
10
5.04218
20
-4.38976
11
5.03731
21
-4.38899
0
LINE
8
BLACK
6
CONTINUOUS
10
5.03731
20
-4.38899
11
5.03292
21
-4.38676
0
LINE
8
BLACK
6
CONTINUOUS
10
5.03292
20
-4.38676
11
5.02944
21
-4.38327
0
LINE
8
BLACK
6
CONTINUOUS
10
5.02944
20
-4.38327
11
5.0272
21
-4.37888
0
LINE
8
BLACK
6
CONTINUOUS
10
5.0272
20
-4.37888
11
5.02643
21
-4.37402
0
LINE
8
BLACK
6
CONTINUOUS
10
5.02643
20
-4.37402
11
5.0272
21
-4.36915
0
LINE
8
BLACK
6
CONTINUOUS
10
5.0272
20
-4.36915
11
5.02944
21
-4.36476
0
LINE
8
BLACK
6
CONTINUOUS
10
5.02944
20
-4.36476
11
5.03292
21
-4.36128
0
LINE
8
BLACK
6
CONTINUOUS
10
5.03292
20
-4.36128
11
5.03731
21
-4.35904
0
LINE
8
BLACK
6
CONTINUOUS
10
5.03731
20
-4.35904
11
5.04218
21
-4.35827
0
LINE
8
BLACK
6
CONTINUOUS
10
5.04218
20
-4.35827
11
5.04705
21
-4.35904
0
LINE
8
BLACK
6
CONTINUOUS
10
5.49
20
-4.43
11
5.43
21
-4.43
0
LINE
8
BLACK
6
CONTINUOUS
10
5.43
20
-4.43
11
5.43
21
-4.37
0
LINE
8
BLACK
6
CONTINUOUS
10
5.43
20
-4.37
11
5.49
21
-4.37
0
LINE
8
BLACK
6
CONTINUOUS
10
5.49
20
-4.37
11
5.49
21
-4.43
0
LINE
8
BLACK
6
CONTINUOUS
10
5.4
20
-4.04
11
5.38
21
-4.04
0
LINE
8
BLACK
6
CONTINUOUS
10
5.38
20
-4.04
11
5.38
21
-4.11586
0
LINE
8
BLACK
6
CONTINUOUS
10
5.38
20
-4.11586
11
5.46817
21
-4.20403
0
LINE
8
BLACK
6
CONTINUOUS
10
5.46817
20
-4.20403
11
5.47034
21
-4.20728
0
LINE
8
BLACK
6
CONTINUOUS
10
5.47034
20
-4.20728
11
5.4711
21
-4.2111
0
LINE
8
BLACK
6
CONTINUOUS
10
5.4711
20
-4.2111
11
5.4711
21
-4.22422
0
LINE
8
BLACK
6
CONTINUOUS
10
5.4711
20
-4.22422
11
5.47384
21
-4.22696
0
LINE
8
BLACK
6
CONTINUOUS
10
5.47384
20
-4.22696
11
5.47608
21
-4.23135
0
LINE
8
BLACK
6
CONTINUOUS
10
5.47608
20
-4.23135
11
5.47685
21
-4.23622
0
LINE
8
BLACK
6
CONTINUOUS
10
5.47685
20
-4.23622
11
5.47608
21
-4.24109
0
LINE
8
BLACK
6
CONTINUOUS
10
5.47608
20
-4.24109
11
5.47384
21
-4.24548
0
LINE
8
BLACK
6
CONTINUOUS
10
5.47384
20
-4.24548
11
5.47036
21
-4.24896
0
LINE
8
BLACK
6
CONTINUOUS
10
5.47036
20
-4.24896
11
5.46597
21
-4.2512
0
LINE
8
BLACK
6
CONTINUOUS
10
5.46597
20
-4.2512
11
5.4611
21
-4.25197
0
LINE
8
BLACK
6
CONTINUOUS
10
5.4611
20
-4.25197
11
5.45624
21
-4.2512
0
LINE
8
BLACK
6
CONTINUOUS
10
5.45624
20
-4.2512
11
5.45185
21
-4.24896
0
LINE
8
BLACK
6
CONTINUOUS
10
5.45185
20
-4.24896
11
5.44836
21
-4.24548
0
LINE
8
BLACK
6
CONTINUOUS
10
5.44836
20
-4.24548
11
5.44613
21
-4.24109
0
LINE
8
BLACK
6
CONTINUOUS
10
5.44613
20
-4.24109
11
5.44535
21
-4.23622
0
LINE
8
BLACK
6
CONTINUOUS
10
5.44535
20
-4.23622
11
5.44613
21
-4.23135
0
LINE
8
BLACK
6
CONTINUOUS
10
5.44613
20
-4.23135
11
5.44836
21
-4.22696
0
LINE
8
BLACK
6
CONTINUOUS
10
5.44836
20
-4.22696
11
5.4511
21
-4.22422
0
LINE
8
BLACK
6
CONTINUOUS
10
5.4511
20
-4.22422
11
5.4511
21
-4.21524
0
LINE
8
BLACK
6
CONTINUOUS
10
5.4511
20
-4.21524
11
5.36293
21
-4.12707
0
LINE
8
BLACK
6
CONTINUOUS
10
5.36293
20
-4.12707
11
5.36101
21
-4.12421
0
LINE
8
BLACK
6
CONTINUOUS
10
5.36101
20
-4.12421
11
5.36076
21
-4.12383
0
LINE
8
BLACK
6
CONTINUOUS
10
5.36076
20
-4.12383
11
5.36
21
-4.12
0
LINE
8
BLACK
6
CONTINUOUS
10
5.36
20
-4.12
11
5.36
21
-4.04
0
LINE
8
BLACK
6
CONTINUOUS
10
5.36
20
-4.04
11
5.34
21
-4.04
0
LINE
8
BLACK
6
CONTINUOUS
10
5.34
20
-4.04
11
5.34
21
-3.98
0
LINE
8
BLACK
6
CONTINUOUS
10
5.34
20
-3.98
11
5.4
21
-3.98
0
LINE
8
BLACK
6
CONTINUOUS
10
5.4
20
-3.98
11
5.4
21
-4.04
0
LINE
8
BLACK
6
CONTINUOUS
10
4.53946
20
-4.17664
11
4.54015
21
-4.17854
0
LINE
8
BLACK
6
CONTINUOUS
10
4.54015
20
-4.17854
11
4.54015
21
-4.21495
0
LINE
8
BLACK
6
CONTINUOUS
10
4.54015
20
-4.21495
11
4.55594
21
-4.21495
0
LINE
8
BLACK
6
CONTINUOUS
10
4.55594
20
-4.21495
11
4.55695
21
-4.21513
0
LINE
8
BLACK
6
CONTINUOUS
10
4.55695
20
-4.21513
11
4.5585
21
-4.21643
0
LINE
8
BLACK
6
CONTINUOUS
10
4.5585
20
-4.21643
11
4.55885
21
-4.21842
0
LINE
8
BLACK
6
CONTINUOUS
10
4.55885
20
-4.21842
11
4.55784
21
-4.22017
0
LINE
8
BLACK
6
CONTINUOUS
10
4.55784
20
-4.22017
11
4.55594
21
-4.22086
0
LINE
8
BLACK
6
CONTINUOUS
10
4.55594
20
-4.22086
11
4.5372
21
-4.22086
0
LINE
8
BLACK
6
CONTINUOUS
10
4.5372
20
-4.22086
11
4.53681
21
-4.22079
0
LINE
8
BLACK
6
CONTINUOUS
10
4.53681
20
-4.22079
11
4.53668
21
-4.22081
0
LINE
8
BLACK
6
CONTINUOUS
10
4.53668
20
-4.22081
11
4.53657
21
-4.22075
0
LINE
8
BLACK
6
CONTINUOUS
10
4.53657
20
-4.22075
11
4.53619
21
-4.22068
0
LINE
8
BLACK
6
CONTINUOUS
10
4.53619
20
-4.22068
11
4.5356
21
-4.22019
0
LINE
8
BLACK
6
CONTINUOUS
10
4.5356
20
-4.22019
11
4.53493
21
-4.2198
0
LINE
8
BLACK
6
CONTINUOUS
10
4.53493
20
-4.2198
11
4.53484
21
-4.21955
0
LINE
8
BLACK
6
CONTINUOUS
10
4.53484
20
-4.21955
11
4.53464
21
-4.21938
0
LINE
8
BLACK
6
CONTINUOUS
10
4.53464
20
-4.21938
11
4.5345
21
-4.21863
0
LINE
8
BLACK
6
CONTINUOUS
10
4.5345
20
-4.21863
11
4.53424
21
-4.21791
0
LINE
8
BLACK
6
CONTINUOUS
10
4.53424
20
-4.21791
11
4.53424
21
-4.17854
0
LINE
8
BLACK
6
CONTINUOUS
10
4.53424
20
-4.17854
11
4.53442
21
-4.17753
0
LINE
8
BLACK
6
CONTINUOUS
10
4.53442
20
-4.17753
11
4.53572
21
-4.17598
0
LINE
8
BLACK
6
CONTINUOUS
10
4.53572
20
-4.17598
11
4.53771
21
-4.17563
0
LINE
8
BLACK
6
CONTINUOUS
10
4.53771
20
-4.17563
11
4.53946
21
-4.17664
0
LINE
8
BLACK
6
CONTINUOUS
10
4.61695
20
-4.17576
11
4.61708
21
-4.17587
0
LINE
8
BLACK
6
CONTINUOUS
10
4.61708
20
-4.17587
11
4.61726
21
-4.1759
0
LINE
8
BLACK
6
CONTINUOUS
10
4.61726
20
-4.1759
11
4.62101
21
-4.17777
0
LINE
8
BLACK
6
CONTINUOUS
10
4.62101
20
-4.17777
11
4.62171
21
-4.1783
0
LINE
8
BLACK
6
CONTINUOUS
10
4.62171
20
-4.1783
11
4.62177
21
-4.17832
0
LINE
8
BLACK
6
CONTINUOUS
10
4.62177
20
-4.17832
11
4.62365
21
-4.1802
0
LINE
8
BLACK
6
CONTINUOUS
10
4.62365
20
-4.1802
11
4.62415
21
-4.18092
0
LINE
8
BLACK
6
CONTINUOUS
10
4.62415
20
-4.18092
11
4.6242
21
-4.18097
0
LINE
8
BLACK
6
CONTINUOUS
10
4.6242
20
-4.18097
11
4.62608
21
-4.18471
0
LINE
8
BLACK
6
CONTINUOUS
10
4.62608
20
-4.18471
11
4.62637
21
-4.1857
0
LINE
8
BLACK
6
CONTINUOUS
10
4.62637
20
-4.1857
11
4.62633
21
-4.18587
0
LINE
8
BLACK
6
CONTINUOUS
10
4.62633
20
-4.18587
11
4.62639
21
-4.18604
0
LINE
8
BLACK
6
CONTINUOUS
10
4.62639
20
-4.18604
11
4.62639
21
-4.18978
0
LINE
8
BLACK
6
CONTINUOUS
10
4.62639
20
-4.18978
11
4.62621
21
-4.19079
0
LINE
8
BLACK
6
CONTINUOUS
10
4.62621
20
-4.19079
11
4.6261
21
-4.19093
0
LINE
8
BLACK
6
CONTINUOUS
10
4.6261
20
-4.19093
11
4.62608
21
-4.19111
0
LINE
8
BLACK
6
CONTINUOUS
10
4.62608
20
-4.19111
11
4.6242
21
-4.19485
0
LINE
8
BLACK
6
CONTINUOUS
10
4.6242
20
-4.19485
11
4.62367
21
-4.19556
0
LINE
8
BLACK
6
CONTINUOUS
10
4.62367
20
-4.19556
11
4.62365
21
-4.19562
0
LINE
8
BLACK
6
CONTINUOUS
10
4.62365
20
-4.19562
11
4.62277
21
-4.1965
0
LINE
8
BLACK
6
CONTINUOUS
10
4.62277
20
-4.1965
11
4.6234
21
-4.19685
0
LINE
8
BLACK
6
CONTINUOUS
10
4.6234
20
-4.19685
11
4.62349
21
-4.197
0
LINE
8
BLACK
6
CONTINUOUS
10
4.62349
20
-4.197
11
4.62365
21
-4.19707
0
LINE
8
BLACK
6
CONTINUOUS
10
4.62365
20
-4.19707
11
4.62552
21
-4.19895
0
LINE
8
BLACK
6
CONTINUOUS
10
4.62552
20
-4.19895
11
4.62603
21
-4.19967
0
LINE
8
BLACK
6
CONTINUOUS
10
4.62603
20
-4.19967
11
4.62608
21
-4.19971
0
LINE
8
BLACK
6
CONTINUOUS
10
4.62608
20
-4.19971
11
4.62795
21
-4.20346
0
LINE
8
BLACK
6
CONTINUOUS
10
4.62795
20
-4.20346
11
4.62824
21
-4.20445
0
LINE
8
BLACK
6
CONTINUOUS
10
4.62824
20
-4.20445
11
4.6282
21
-4.20462
0
LINE
8
BLACK
6
CONTINUOUS
10
4.6282
20
-4.20462
11
4.62826
21
-4.20478
0
LINE
8
BLACK
6
CONTINUOUS
10
4.62826
20
-4.20478
11
4.62826
21
-4.21041
0
LINE
8
BLACK
6
CONTINUOUS
10
4.62826
20
-4.21041
11
4.62808
21
-4.21142
0
LINE
8
BLACK
6
CONTINUOUS
10
4.62808
20
-4.21142
11
4.62797
21
-4.21155
0
LINE
8
BLACK
6
CONTINUOUS
10
4.62797
20
-4.21155
11
4.62795
21
-4.21173
0
LINE
8
BLACK
6
CONTINUOUS
10
4.62795
20
-4.21173
11
4.62608
21
-4.21548
0
LINE
8
BLACK
6
CONTINUOUS
10
4.62608
20
-4.21548
11
4.62555
21
-4.21619
0
LINE
8
BLACK
6
CONTINUOUS
10
4.62555
20
-4.21619
11
4.62552
21
-4.21624
0
LINE
8
BLACK
6
CONTINUOUS
10
4.62552
20
-4.21624
11
4.62365
21
-4.21812
0
LINE
8
BLACK
6
CONTINUOUS
10
4.62365
20
-4.21812
11
4.62292
21
-4.21863
0
LINE
8
BLACK
6
CONTINUOUS
10
4.62292
20
-4.21863
11
4.62288
21
-4.21867
0
LINE
8
BLACK
6
CONTINUOUS
10
4.62288
20
-4.21867
11
4.61913
21
-4.22055
0
LINE
8
BLACK
6
CONTINUOUS
10
4.61913
20
-4.22055
11
4.61815
21
-4.22084
0
LINE
8
BLACK
6
CONTINUOUS
10
4.61815
20
-4.22084
11
4.61798
21
-4.2208
0
LINE
8
BLACK
6
CONTINUOUS
10
4.61798
20
-4.2208
11
4.61781
21
-4.22086
0
LINE
8
BLACK
6
CONTINUOUS
10
4.61781
20
-4.22086
11
4.60281
21
-4.22086
0
LINE
8
BLACK
6
CONTINUOUS
10
4.60281
20
-4.22086
11
4.60243
21
-4.22079
0
LINE
8
BLACK
6
CONTINUOUS
10
4.60243
20
-4.22079
11
4.6023
21
-4.22081
0
LINE
8
BLACK
6
CONTINUOUS
10
4.6023
20
-4.22081
11
4.60219
21
-4.22075
0
LINE
8
BLACK
6
CONTINUOUS
10
4.60219
20
-4.22075
11
4.6018
21
-4.22068
0
LINE
8
BLACK
6
CONTINUOUS
10
4.6018
20
-4.22068
11
4.60121
21
-4.22019
0
LINE
8
BLACK
6
CONTINUOUS
10
4.60121
20
-4.22019
11
4.60055
21
-4.2198
0
LINE
8
BLACK
6
CONTINUOUS
10
4.60055
20
-4.2198
11
4.60046
21
-4.21955
0
LINE
8
BLACK
6
CONTINUOUS
10
4.60046
20
-4.21955
11
4.60025
21
-4.21938
0
LINE
8
BLACK
6
CONTINUOUS
10
4.60025
20
-4.21938
11
4.60012
21
-4.21863
0
LINE
8
BLACK
6
CONTINUOUS
10
4.60012
20
-4.21863
11
4.59986
21
-4.21791
0
LINE
8
BLACK
6
CONTINUOUS
10
4.59986
20
-4.21791
11
4.59986
21
-4.17854
0
LINE
8
BLACK
6
CONTINUOUS
10
4.59986
20
-4.17854
11
4.59993
21
-4.17815
0
LINE
8
BLACK
6
CONTINUOUS
10
4.59993
20
-4.17815
11
4.5999
21
-4.17802
0
LINE
8
BLACK
6
CONTINUOUS
10
4.5999
20
-4.17802
11
4.59997
21
-4.17791
0
LINE
8
BLACK
6
CONTINUOUS
10
4.59997
20
-4.17791
11
4.60004
21
-4.17753
0
LINE
8
BLACK
6
CONTINUOUS
10
4.60004
20
-4.17753
11
4.60053
21
-4.17694
0
LINE
8
BLACK
6
CONTINUOUS
10
4.60053
20
-4.17694
11
4.60091
21
-4.17627
0
LINE
8
BLACK
6
CONTINUOUS
10
4.60091
20
-4.17627
11
4.60116
21
-4.17618
0
LINE
8
BLACK
6
CONTINUOUS
10
4.60116
20
-4.17618
11
4.60134
21
-4.17598
0
LINE
8
BLACK
6
CONTINUOUS
10
4.60134
20
-4.17598
11
4.60209
21
-4.17585
0
LINE
8
BLACK
6
CONTINUOUS
10
4.60209
20
-4.17585
11
4.60281
21
-4.17558
0
LINE
8
BLACK
6
CONTINUOUS
10
4.60281
20
-4.17558
11
4.61594
21
-4.17558
0
LINE
8
BLACK
6
CONTINUOUS
10
4.61594
20
-4.17558
11
4.61695
21
-4.17576
0
LINE
8
BLACK
6
CONTINUOUS
10
4.60576
20
-4.21495
11
4.61711
21
-4.21495
0
LINE
8
BLACK
6
CONTINUOUS
10
4.61711
20
-4.21495
11
4.61981
21
-4.2136
0
LINE
8
BLACK
6
CONTINUOUS
10
4.61981
20
-4.2136
11
4.62101
21
-4.21241
0
LINE
8
BLACK
6
CONTINUOUS
10
4.62101
20
-4.21241
11
4.62236
21
-4.20971
0
LINE
8
BLACK
6
CONTINUOUS
10
4.62236
20
-4.20971
11
4.62236
21
-4.20548
0
LINE
8
BLACK
6
CONTINUOUS
10
4.62236
20
-4.20548
11
4.62101
21
-4.20278
0
LINE
8
BLACK
6
CONTINUOUS
10
4.62101
20
-4.20278
11
4.61996
21
-4.20174
0
LINE
8
BLACK
6
CONTINUOUS
10
4.61996
20
-4.20174
11
4.61546
21
-4.20024
0
LINE
8
BLACK
6
CONTINUOUS
10
4.61546
20
-4.20024
11
4.60576
21
-4.20024
0
LINE
8
BLACK
6
CONTINUOUS
10
4.60576
20
-4.20024
11
4.60576
21
-4.21495
0
LINE
8
BLACK
6
CONTINUOUS
10
4.60576
20
-4.19433
11
4.61524
21
-4.19433
0
LINE
8
BLACK
6
CONTINUOUS
10
4.61524
20
-4.19433
11
4.61794
21
-4.19298
0
LINE
8
BLACK
6
CONTINUOUS
10
4.61794
20
-4.19298
11
4.61913
21
-4.19179
0
LINE
8
BLACK
6
CONTINUOUS
10
4.61913
20
-4.19179
11
4.62048
21
-4.18909
0
LINE
8
BLACK
6
CONTINUOUS
10
4.62048
20
-4.18909
11
4.62048
21
-4.18673
0
LINE
8
BLACK
6
CONTINUOUS
10
4.62048
20
-4.18673
11
4.61913
21
-4.18403
0
LINE
8
BLACK
6
CONTINUOUS
10
4.61913
20
-4.18403
11
4.61794
21
-4.18284
0
LINE
8
BLACK
6
CONTINUOUS
10
4.61794
20
-4.18284
11
4.61524
21
-4.18149
0
LINE
8
BLACK
6
CONTINUOUS
10
4.61524
20
-4.18149
11
4.60576
21
-4.18149
0
LINE
8
BLACK
6
CONTINUOUS
10
4.60576
20
-4.18149
11
4.60576
21
-4.19433
0
LINE
8
BLACK
6
CONTINUOUS
10
4.67506
20
-4.18888
11
4.6752
21
-4.189
0
LINE
8
BLACK
6
CONTINUOUS
10
4.6752
20
-4.189
11
4.67537
21
-4.18902
0
LINE
8
BLACK
6
CONTINUOUS
10
4.67537
20
-4.18902
11
4.67912
21
-4.19089
0
LINE
8
BLACK
6
CONTINUOUS
10
4.67912
20
-4.19089
11
4.67995
21
-4.1915
0
LINE
8
BLACK
6
CONTINUOUS
10
4.67995
20
-4.1915
11
4.68075
21
-4.19336
0
LINE
8
BLACK
6
CONTINUOUS
10
4.68075
20
-4.19336
11
4.68017
21
-4.19529
0
LINE
8
BLACK
6
CONTINUOUS
10
4.68017
20
-4.19529
11
4.67849
21
-4.19641
0
LINE
8
BLACK
6
CONTINUOUS
10
4.67849
20
-4.19641
11
4.67648
21
-4.19618
0
LINE
8
BLACK
6
CONTINUOUS
10
4.67648
20
-4.19618
11
4.67336
21
-4.19461
0
LINE
8
BLACK
6
CONTINUOUS
10
4.67336
20
-4.19461
11
4.66725
21
-4.19461
0
LINE
8
BLACK
6
CONTINUOUS
10
4.66725
20
-4.19461
11
4.66455
21
-4.19596
0
LINE
8
BLACK
6
CONTINUOUS
10
4.66455
20
-4.19596
11
4.66336
21
-4.19716
0
LINE
8
BLACK
6
CONTINUOUS
10
4.66336
20
-4.19716
11
4.66201
21
-4.19986
0
LINE
8
BLACK
6
CONTINUOUS
10
4.66201
20
-4.19986
11
4.66201
21
-4.20971
0
LINE
8
BLACK
6
CONTINUOUS
10
4.66201
20
-4.20971
11
4.66336
21
-4.21241
0
LINE
8
BLACK
6
CONTINUOUS
10
4.66336
20
-4.21241
11
4.66455
21
-4.2136
0
LINE
8
BLACK
6
CONTINUOUS
10
4.66455
20
-4.2136
11
4.66725
21
-4.21495
0
LINE
8
BLACK
6
CONTINUOUS
10
4.66725
20
-4.21495
11
4.67336
21
-4.21495
0
LINE
8
BLACK
6
CONTINUOUS
10
4.67336
20
-4.21495
11
4.67648
21
-4.21339
0
LINE
8
BLACK
6
CONTINUOUS
10
4.67648
20
-4.21339
11
4.67747
21
-4.2131
0
LINE
8
BLACK
6
CONTINUOUS
10
4.67747
20
-4.2131
11
4.67943
21
-4.21357
0
LINE
8
BLACK
6
CONTINUOUS
10
4.67943
20
-4.21357
11
4.68063
21
-4.21519
0
LINE
8
BLACK
6
CONTINUOUS
10
4.68063
20
-4.21519
11
4.68051
21
-4.21721
0
LINE
8
BLACK
6
CONTINUOUS
10
4.68051
20
-4.21721
11
4.67912
21
-4.21867
0
LINE
8
BLACK
6
CONTINUOUS
10
4.67912
20
-4.21867
11
4.67537
21
-4.22055
0
LINE
8
BLACK
6
CONTINUOUS
10
4.67537
20
-4.22055
11
4.67439
21
-4.22084
0
LINE
8
BLACK
6
CONTINUOUS
10
4.67439
20
-4.22084
11
4.67422
21
-4.2208
0
LINE
8
BLACK
6
CONTINUOUS
10
4.67422
20
-4.2208
11
4.67405
21
-4.22086
0
LINE
8
BLACK
6
CONTINUOUS
10
4.67405
20
-4.22086
11
4.66655
21
-4.22086
0
LINE
8
BLACK
6
CONTINUOUS
10
4.66655
20
-4.22086
11
4.66554
21
-4.22068
0
LINE
8
BLACK
6
CONTINUOUS
10
4.66554
20
-4.22068
11
4.66541
21
-4.22057
0
LINE
8
BLACK
6
CONTINUOUS
10
4.66541
20
-4.22057
11
4.66523
21
-4.22055
0
LINE
8
BLACK
6
CONTINUOUS
10
4.66523
20
-4.22055
11
4.66148
21
-4.21867
0
LINE
8
BLACK
6
CONTINUOUS
10
4.66148
20
-4.21867
11
4.66078
21
-4.21815
0
LINE
8
BLACK
6
CONTINUOUS
10
4.66078
20
-4.21815
11
4.66072
21
-4.21812
0
LINE
8
BLACK
6
CONTINUOUS
10
4.66072
20
-4.21812
11
4.65884
21
-4.21624
0
LINE
8
BLACK
6
CONTINUOUS
10
4.65884
20
-4.21624
11
4.65834
21
-4.21552
0
LINE
8
BLACK
6
CONTINUOUS
10
4.65834
20
-4.21552
11
4.65829
21
-4.21548
0
LINE
8
BLACK
6
CONTINUOUS
10
4.65829
20
-4.21548
11
4.65641
21
-4.21173
0
LINE
8
BLACK
6
CONTINUOUS
10
4.65641
20
-4.21173
11
4.65612
21
-4.21074
0
LINE
8
BLACK
6
CONTINUOUS
10
4.65612
20
-4.21074
11
4.65616
21
-4.21057
0
LINE
8
BLACK
6
CONTINUOUS
10
4.65616
20
-4.21057
11
4.6561
21
-4.21041
0
LINE
8
BLACK
6
CONTINUOUS
10
4.6561
20
-4.21041
11
4.6561
21
-4.19916
0
LINE
8
BLACK
6
CONTINUOUS
10
4.6561
20
-4.19916
11
4.65628
21
-4.19815
0
LINE
8
BLACK
6
CONTINUOUS
10
4.65628
20
-4.19815
11
4.65639
21
-4.19801
0
LINE
8
BLACK
6
CONTINUOUS
10
4.65639
20
-4.19801
11
4.65641
21
-4.19784
0
LINE
8
BLACK
6
CONTINUOUS
10
4.65641
20
-4.19784
11
4.65829
21
-4.19409
0
LINE
8
BLACK
6
CONTINUOUS
10
4.65829
20
-4.19409
11
4.65881
21
-4.19338
0
LINE
8
BLACK
6
CONTINUOUS
10
4.65881
20
-4.19338
11
4.65884
21
-4.19332
0
LINE
8
BLACK
6
CONTINUOUS
10
4.65884
20
-4.19332
11
4.66072
21
-4.19145
0
LINE
8
BLACK
6
CONTINUOUS
10
4.66072
20
-4.19145
11
4.66144
21
-4.19094
0
LINE
8
BLACK
6
CONTINUOUS
10
4.66144
20
-4.19094
11
4.66148
21
-4.19089
0
LINE
8
BLACK
6
CONTINUOUS
10
4.66148
20
-4.19089
11
4.66523
21
-4.18902
0
LINE
8
BLACK
6
CONTINUOUS
10
4.66523
20
-4.18902
11
4.66622
21
-4.18873
0
LINE
8
BLACK
6
CONTINUOUS
10
4.66622
20
-4.18873
11
4.66639
21
-4.18877
0
LINE
8
BLACK
6
CONTINUOUS
10
4.66639
20
-4.18877
11
4.66655
21
-4.18871
0
LINE
8
BLACK
6
CONTINUOUS
10
4.66655
20
-4.18871
11
4.67405
21
-4.18871
0
LINE
8
BLACK
6
CONTINUOUS
10
4.67405
20
-4.18871
11
4.67506
21
-4.18888
0
LINE
8
BLACK
6
CONTINUOUS
10
4.71185
20
-4.18876
11
4.71197
21
-4.18874
0
LINE
8
BLACK
6
CONTINUOUS
10
4.71197
20
-4.18874
11
4.71209
21
-4.1888
0
LINE
8
BLACK
6
CONTINUOUS
10
4.71209
20
-4.1888
11
4.71256
21
-4.18888
0
LINE
8
BLACK
6
CONTINUOUS
10
4.71256
20
-4.18888
11
4.71311
21
-4.18935
0
LINE
8
BLACK
6
CONTINUOUS
10
4.71311
20
-4.18935
11
4.71375
21
-4.18969
0
LINE
8
BLACK
6
CONTINUOUS
10
4.71375
20
-4.18969
11
4.71387
21
-4.18998
0
LINE
8
BLACK
6
CONTINUOUS
10
4.71387
20
-4.18998
11
4.71411
21
-4.19018
0
LINE
8
BLACK
6
CONTINUOUS
10
4.71411
20
-4.19018
11
4.71423
21
-4.19089
0
LINE
8
BLACK
6
CONTINUOUS
10
4.71423
20
-4.19089
11
4.7145
21
-4.19156
0
LINE
8
BLACK
6
CONTINUOUS
10
4.7145
20
-4.19156
11
4.7144
21
-4.19186
0
LINE
8
BLACK
6
CONTINUOUS
10
4.7144
20
-4.19186
11
4.71446
21
-4.19217
0
LINE
8
BLACK
6
CONTINUOUS
10
4.71446
20
-4.19217
11
4.7141
21
-4.1928
0
LINE
8
BLACK
6
CONTINUOUS
10
4.7141
20
-4.1928
11
4.71387
21
-4.19348
0
LINE
8
BLACK
6
CONTINUOUS
10
4.71387
20
-4.19348
11
4.697
21
-4.21495
0
LINE
8
BLACK
6
CONTINUOUS
10
4.697
20
-4.21495
11
4.71155
21
-4.21495
0
LINE
8
BLACK
6
CONTINUOUS
10
4.71155
20
-4.21495
11
4.71256
21
-4.21513
0
LINE
8
BLACK
6
CONTINUOUS
10
4.71256
20
-4.21513
11
4.71411
21
-4.21643
0
LINE
8
BLACK
6
CONTINUOUS
10
4.71411
20
-4.21643
11
4.71446
21
-4.21842
0
LINE
8
BLACK
6
CONTINUOUS
10
4.71446
20
-4.21842
11
4.71345
21
-4.22017
0
LINE
8
BLACK
6
CONTINUOUS
10
4.71345
20
-4.22017
11
4.71155
21
-4.22086
0
LINE
8
BLACK
6
CONTINUOUS
10
4.71155
20
-4.22086
11
4.69093
21
-4.22086
0
LINE
8
BLACK
6
CONTINUOUS
10
4.69093
20
-4.22086
11
4.69062
21
-4.22081
0
LINE
8
BLACK
6
CONTINUOUS
10
4.69062
20
-4.22081
11
4.69051
21
-4.22083
0
LINE
8
BLACK
6
CONTINUOUS
10
4.69051
20
-4.22083
11
4.69038
21
-4.22076
0
LINE
8
BLACK
6
CONTINUOUS
10
4.69038
20
-4.22076
11
4.68992
21
-4.22068
0
LINE
8
BLACK
6
CONTINUOUS
10
4.68992
20
-4.22068
11
4.68936
21
-4.22022
0
LINE
8
BLACK
6
CONTINUOUS
10
4.68936
20
-4.22022
11
4.68873
21
-4.21988
0
LINE
8
BLACK
6
CONTINUOUS
10
4.68873
20
-4.21988
11
4.68861
21
-4.21958
0
LINE
8
BLACK
6
CONTINUOUS
10
4.68861
20
-4.21958
11
4.68837
21
-4.21938
0
LINE
8
BLACK
6
CONTINUOUS
10
4.68837
20
-4.21938
11
4.68824
21
-4.21867
0
LINE
8
BLACK
6
CONTINUOUS
10
4.68824
20
-4.21867
11
4.68797
21
-4.218
0
LINE
8
BLACK
6
CONTINUOUS
10
4.68797
20
-4.218
11
4.68807
21
-4.2177
0
LINE
8
BLACK
6
CONTINUOUS
10
4.68807
20
-4.2177
11
4.68802
21
-4.21739
0
LINE
8
BLACK
6
CONTINUOUS
10
4.68802
20
-4.21739
11
4.68838
21
-4.21677
0
LINE
8
BLACK
6
CONTINUOUS
10
4.68838
20
-4.21677
11
4.6886
21
-4.21608
0
LINE
8
BLACK
6
CONTINUOUS
10
4.6886
20
-4.21608
11
4.70547
21
-4.19461
0
LINE
8
BLACK
6
CONTINUOUS
10
4.70547
20
-4.19461
11
4.69093
21
-4.19461
0
LINE
8
BLACK
6
CONTINUOUS
10
4.69093
20
-4.19461
11
4.68992
21
-4.19443
0
LINE
8
BLACK
6
CONTINUOUS
10
4.68992
20
-4.19443
11
4.68837
21
-4.19314
0
LINE
8
BLACK
6
CONTINUOUS
10
4.68837
20
-4.19314
11
4.68802
21
-4.19115
0
LINE
8
BLACK
6
CONTINUOUS
10
4.68802
20
-4.19115
11
4.68903
21
-4.1894
0
LINE
8
BLACK
6
CONTINUOUS
10
4.68903
20
-4.1894
11
4.69093
21
-4.18871
0
LINE
8
BLACK
6
CONTINUOUS
10
4.69093
20
-4.18871
11
4.71155
21
-4.18871
0
LINE
8
BLACK
6
CONTINUOUS
10
4.71155
20
-4.18871
11
4.71185
21
-4.18876
0
LINE
8
BLACK
6
CONTINUOUS
10
4.64256
20
-4.21127
11
4.64269
21
-4.21125
0
LINE
8
BLACK
6
CONTINUOUS
10
4.64269
20
-4.21125
11
4.64281
21
-4.21132
0
LINE
8
BLACK
6
CONTINUOUS
10
4.64281
20
-4.21132
11
4.64295
21
-4.2113
0
LINE
8
BLACK
6
CONTINUOUS
10
4.64295
20
-4.2113
11
4.64358
21
-4.21174
0
LINE
8
BLACK
6
CONTINUOUS
10
4.64358
20
-4.21174
11
4.64427
21
-4.21207
0
LINE
8
BLACK
6
CONTINUOUS
10
4.64427
20
-4.21207
11
4.64614
21
-4.21394
0
LINE
8
BLACK
6
CONTINUOUS
10
4.64614
20
-4.21394
11
4.64637
21
-4.21426
0
LINE
8
BLACK
6
CONTINUOUS
10
4.64637
20
-4.21426
11
4.64648
21
-4.21434
0
LINE
8
BLACK
6
CONTINUOUS
10
4.64648
20
-4.21434
11
4.64651
21
-4.21446
0
LINE
8
BLACK
6
CONTINUOUS
10
4.64651
20
-4.21446
11
4.64673
21
-4.21478
0
LINE
8
BLACK
6
CONTINUOUS
10
4.64673
20
-4.21478
11
4.6468
21
-4.21555
0
LINE
8
BLACK
6
CONTINUOUS
10
4.6468
20
-4.21555
11
4.647
21
-4.21629
0
LINE
8
BLACK
6
CONTINUOUS
10
4.647
20
-4.21629
11
4.64689
21
-4.21653
0
LINE
8
BLACK
6
CONTINUOUS
10
4.64689
20
-4.21653
11
4.64691
21
-4.2168
0
LINE
8
BLACK
6
CONTINUOUS
10
4.64691
20
-4.2168
11
4.64647
21
-4.21742
0
LINE
8
BLACK
6
CONTINUOUS
10
4.64647
20
-4.21742
11
4.64614
21
-4.21812
0
LINE
8
BLACK
6
CONTINUOUS
10
4.64614
20
-4.21812
11
4.64427
21
-4.21999
0
LINE
8
BLACK
6
CONTINUOUS
10
4.64427
20
-4.21999
11
4.64395
21
-4.22022
0
LINE
8
BLACK
6
CONTINUOUS
10
4.64395
20
-4.22022
11
4.64388
21
-4.22033
0
LINE
8
BLACK
6
CONTINUOUS
10
4.64388
20
-4.22033
11
4.64375
21
-4.22036
0
LINE
8
BLACK
6
CONTINUOUS
10
4.64375
20
-4.22036
11
4.64374
21
-4.22036
0
LINE
8
BLACK
6
CONTINUOUS
10
4.64374
20
-4.22036
11
4.64366
21
-4.22046
0
LINE
8
BLACK
6
CONTINUOUS
10
4.64366
20
-4.22046
11
4.64358
21
-4.22048
0
LINE
8
BLACK
6
CONTINUOUS
10
4.64358
20
-4.22048
11
4.64343
21
-4.22058
0
LINE
8
BLACK
6
CONTINUOUS
10
4.64343
20
-4.22058
11
4.64267
21
-4.22065
0
LINE
8
BLACK
6
CONTINUOUS
10
4.64267
20
-4.22065
11
4.64192
21
-4.22085
0
LINE
8
BLACK
6
CONTINUOUS
10
4.64192
20
-4.22085
11
4.6418
21
-4.22079
0
LINE
8
BLACK
6
CONTINUOUS
10
4.6418
20
-4.22079
11
4.64167
21
-4.22081
0
LINE
8
BLACK
6
CONTINUOUS
10
4.64167
20
-4.22081
11
4.64155
21
-4.22075
0
LINE
8
BLACK
6
CONTINUOUS
10
4.64155
20
-4.22075
11
4.64142
21
-4.22076
0
LINE
8
BLACK
6
CONTINUOUS
10
4.64142
20
-4.22076
11
4.64079
21
-4.22032
0
LINE
8
BLACK
6
CONTINUOUS
10
4.64079
20
-4.22032
11
4.64009
21
-4.21999
0
LINE
8
BLACK
6
CONTINUOUS
10
4.64009
20
-4.21999
11
4.63822
21
-4.21812
0
LINE
8
BLACK
6
CONTINUOUS
10
4.63822
20
-4.21812
11
4.638
21
-4.2178
0
LINE
8
BLACK
6
CONTINUOUS
10
4.638
20
-4.2178
11
4.63789
21
-4.21773
0
LINE
8
BLACK
6
CONTINUOUS
10
4.63789
20
-4.21773
11
4.63785
21
-4.2176
0
LINE
8
BLACK
6
CONTINUOUS
10
4.63785
20
-4.2176
11
4.63763
21
-4.21728
0
LINE
8
BLACK
6
CONTINUOUS
10
4.63763
20
-4.21728
11
4.63756
21
-4.21652
0
LINE
8
BLACK
6
CONTINUOUS
10
4.63756
20
-4.21652
11
4.63737
21
-4.21577
0
LINE
8
BLACK
6
CONTINUOUS
10
4.63737
20
-4.21577
11
4.63748
21
-4.21553
0
LINE
8
BLACK
6
CONTINUOUS
10
4.63748
20
-4.21553
11
4.63746
21
-4.21527
0
LINE
8
BLACK
6
CONTINUOUS
10
4.63746
20
-4.21527
11
4.6379
21
-4.21464
0
LINE
8
BLACK
6
CONTINUOUS
10
4.6379
20
-4.21464
11
4.63822
21
-4.21394
0
LINE
8
BLACK
6
CONTINUOUS
10
4.63822
20
-4.21394
11
4.64009
21
-4.21207
0
LINE
8
BLACK
6
CONTINUOUS
10
4.64009
20
-4.21207
11
4.64041
21
-4.21185
0
LINE
8
BLACK
6
CONTINUOUS
10
4.64041
20
-4.21185
11
4.64049
21
-4.21174
0
LINE
8
BLACK
6
CONTINUOUS
10
4.64049
20
-4.21174
11
4.64062
21
-4.2117
0
LINE
8
BLACK
6
CONTINUOUS
10
4.64062
20
-4.2117
11
4.64062
21
-4.2117
0
LINE
8
BLACK
6
CONTINUOUS
10
4.64062
20
-4.2117
11
4.64071
21
-4.2116
0
LINE
8
BLACK
6
CONTINUOUS
10
4.64071
20
-4.2116
11
4.64078
21
-4.21159
0
LINE
8
BLACK
6
CONTINUOUS
10
4.64078
20
-4.21159
11
4.64093
21
-4.21148
0
LINE
8
BLACK
6
CONTINUOUS
10
4.64093
20
-4.21148
11
4.6417
21
-4.21141
0
LINE
8
BLACK
6
CONTINUOUS
10
4.6417
20
-4.21141
11
4.64244
21
-4.21122
0
LINE
8
BLACK
6
CONTINUOUS
10
4.64244
20
-4.21122
11
4.64256
21
-4.21127
0
LINE
8
BLACK
6
CONTINUOUS
10
4.57705
20
-4.1758
11
4.57797
21
-4.17594
0
LINE
8
BLACK
6
CONTINUOUS
10
4.57797
20
-4.17594
11
4.57803
21
-4.176
0
LINE
8
BLACK
6
CONTINUOUS
10
4.57803
20
-4.176
11
4.57811
21
-4.17602
0
LINE
8
BLACK
6
CONTINUOUS
10
4.57811
20
-4.17602
11
4.57869
21
-4.17675
0
LINE
8
BLACK
6
CONTINUOUS
10
4.57869
20
-4.17675
11
4.57931
21
-4.17745
0
LINE
8
BLACK
6
CONTINUOUS
10
4.57931
20
-4.17745
11
4.57931
21
-4.17754
0
LINE
8
BLACK
6
CONTINUOUS
10
4.57931
20
-4.17754
11
4.57937
21
-4.1776
0
LINE
8
BLACK
6
CONTINUOUS
10
4.57937
20
-4.1776
11
4.59249
21
-4.21697
0
LINE
8
BLACK
6
CONTINUOUS
10
4.59249
20
-4.21697
11
4.59264
21
-4.21799
0
LINE
8
BLACK
6
CONTINUOUS
10
4.59264
20
-4.21799
11
4.5919
21
-4.21987
0
LINE
8
BLACK
6
CONTINUOUS
10
4.5919
20
-4.21987
11
4.59012
21
-4.22083
0
LINE
8
BLACK
6
CONTINUOUS
10
4.59012
20
-4.22083
11
4.58814
21
-4.22042
0
LINE
8
BLACK
6
CONTINUOUS
10
4.58814
20
-4.22042
11
4.58689
21
-4.21884
0
LINE
8
BLACK
6
CONTINUOUS
10
4.58689
20
-4.21884
11
4.58381
21
-4.20961
0
LINE
8
BLACK
6
CONTINUOUS
10
4.58381
20
-4.20961
11
4.56932
21
-4.20961
0
LINE
8
BLACK
6
CONTINUOUS
10
4.56932
20
-4.20961
11
4.56624
21
-4.21884
0
LINE
8
BLACK
6
CONTINUOUS
10
4.56624
20
-4.21884
11
4.56576
21
-4.21974
0
LINE
8
BLACK
6
CONTINUOUS
10
4.56576
20
-4.21974
11
4.56403
21
-4.2208
0
LINE
8
BLACK
6
CONTINUOUS
10
4.56403
20
-4.2208
11
4.56204
21
-4.2205
0
LINE
8
BLACK
6
CONTINUOUS
10
4.56204
20
-4.2205
11
4.5607
21
-4.21899
0
LINE
8
BLACK
6
CONTINUOUS
10
4.5607
20
-4.21899
11
4.56064
21
-4.21697
0
LINE
8
BLACK
6
CONTINUOUS
10
4.56064
20
-4.21697
11
4.57376
21
-4.1776
0
LINE
8
BLACK
6
CONTINUOUS
10
4.57376
20
-4.1776
11
4.57425
21
-4.1767
0
LINE
8
BLACK
6
CONTINUOUS
10
4.57425
20
-4.1767
11
4.57432
21
-4.17666
0
LINE
8
BLACK
6
CONTINUOUS
10
4.57432
20
-4.17666
11
4.57436
21
-4.17658
0
LINE
8
BLACK
6
CONTINUOUS
10
4.57436
20
-4.17658
11
4.57518
21
-4.17613
0
LINE
8
BLACK
6
CONTINUOUS
10
4.57518
20
-4.17613
11
4.57597
21
-4.17564
0
LINE
8
BLACK
6
CONTINUOUS
10
4.57597
20
-4.17564
11
4.57606
21
-4.17566
0
LINE
8
BLACK
6
CONTINUOUS
10
4.57606
20
-4.17566
11
4.57613
21
-4.17562
0
LINE
8
BLACK
6
CONTINUOUS
10
4.57613
20
-4.17562
11
4.57705
21
-4.1758
0
LINE
8
BLACK
6
CONTINUOUS
10
4.57129
20
-4.2037
11
4.58184
21
-4.2037
0
LINE
8
BLACK
6
CONTINUOUS
10
4.58184
20
-4.2037
11
4.57657
21
-4.18787
0
LINE
8
BLACK
6
CONTINUOUS
10
4.57657
20
-4.18787
11
4.57129
21
-4.2037
0
LINE
8
BLACK
6
CONTINUOUS
10
4.51857
20
-4.1757
11
4.51896
21
-4.17563
0
LINE
8
BLACK
6
CONTINUOUS
10
4.51896
20
-4.17563
11
4.51952
21
-4.17595
0
LINE
8
BLACK
6
CONTINUOUS
10
4.51952
20
-4.17595
11
4.52014
21
-4.17612
0
LINE
8
BLACK
6
CONTINUOUS
10
4.52014
20
-4.17612
11
4.52037
21
-4.17644
0
LINE
8
BLACK
6
CONTINUOUS
10
4.52037
20
-4.17644
11
4.52071
21
-4.17664
0
LINE
8
BLACK
6
CONTINUOUS
10
4.52071
20
-4.17664
11
4.52093
21
-4.17724
0
LINE
8
BLACK
6
CONTINUOUS
10
4.52093
20
-4.17724
11
4.5213
21
-4.17777
0
LINE
8
BLACK
6
CONTINUOUS
10
4.5213
20
-4.17777
11
4.52127
21
-4.17817
0
LINE
8
BLACK
6
CONTINUOUS
10
4.52127
20
-4.17817
11
4.5214
21
-4.17854
0
LINE
8
BLACK
6
CONTINUOUS
10
4.5214
20
-4.17854
11
4.5214
21
-4.21791
0
LINE
8
BLACK
6
CONTINUOUS
10
4.5214
20
-4.21791
11
4.52122
21
-4.21892
0
LINE
8
BLACK
6
CONTINUOUS
10
4.52122
20
-4.21892
11
4.51992
21
-4.22046
0
LINE
8
BLACK
6
CONTINUOUS
10
4.51992
20
-4.22046
11
4.51793
21
-4.22081
0
LINE
8
BLACK
6
CONTINUOUS
10
4.51793
20
-4.22081
11
4.51619
21
-4.2198
0
LINE
8
BLACK
6
CONTINUOUS
10
4.51619
20
-4.2198
11
4.51549
21
-4.21791
0
LINE
8
BLACK
6
CONTINUOUS
10
4.51549
20
-4.21791
11
4.51549
21
-4.19185
0
LINE
8
BLACK
6
CONTINUOUS
10
4.51549
20
-4.19185
11
4.508
21
-4.20791
0
LINE
8
BLACK
6
CONTINUOUS
10
4.508
20
-4.20791
11
4.50778
21
-4.20822
0
LINE
8
BLACK
6
CONTINUOUS
10
4.50778
20
-4.20822
11
4.50774
21
-4.20835
0
LINE
8
BLACK
6
CONTINUOUS
10
4.50774
20
-4.20835
11
4.50764
21
-4.20843
0
LINE
8
BLACK
6
CONTINUOUS
10
4.50764
20
-4.20843
11
4.50741
21
-4.20875
0
LINE
8
BLACK
6
CONTINUOUS
10
4.50741
20
-4.20875
11
4.50672
21
-4.20907
0
LINE
8
BLACK
6
CONTINUOUS
10
4.50672
20
-4.20907
11
4.50609
21
-4.20951
0
LINE
8
BLACK
6
CONTINUOUS
10
4.50609
20
-4.20951
11
4.50582
21
-4.20949
0
LINE
8
BLACK
6
CONTINUOUS
10
4.50582
20
-4.20949
11
4.50558
21
-4.2096
0
LINE
8
BLACK
6
CONTINUOUS
10
4.50558
20
-4.2096
11
4.50484
21
-4.2094
0
LINE
8
BLACK
6
CONTINUOUS
10
4.50484
20
-4.2094
11
4.50408
21
-4.20933
0
LINE
8
BLACK
6
CONTINUOUS
10
4.50408
20
-4.20933
11
4.50389
21
-4.20915
0
LINE
8
BLACK
6
CONTINUOUS
10
4.50389
20
-4.20915
11
4.50363
21
-4.20908
0
LINE
8
BLACK
6
CONTINUOUS
10
4.50363
20
-4.20908
11
4.50319
21
-4.20845
0
LINE
8
BLACK
6
CONTINUOUS
10
4.50319
20
-4.20845
11
4.50265
21
-4.20791
0
LINE
8
BLACK
6
CONTINUOUS
10
4.50265
20
-4.20791
11
4.49515
21
-4.19185
0
LINE
8
BLACK
6
CONTINUOUS
10
4.49515
20
-4.19185
11
4.49515
21
-4.21791
0
LINE
8
BLACK
6
CONTINUOUS
10
4.49515
20
-4.21791
11
4.49498
21
-4.21892
0
LINE
8
BLACK
6
CONTINUOUS
10
4.49498
20
-4.21892
11
4.49368
21
-4.22046
0
LINE
8
BLACK
6
CONTINUOUS
10
4.49368
20
-4.22046
11
4.49169
21
-4.22081
0
LINE
8
BLACK
6
CONTINUOUS
10
4.49169
20
-4.22081
11
4.48994
21
-4.2198
0
LINE
8
BLACK
6
CONTINUOUS
10
4.48994
20
-4.2198
11
4.48925
21
-4.21791
0
LINE
8
BLACK
6
CONTINUOUS
10
4.48925
20
-4.21791
11
4.48925
21
-4.17854
0
LINE
8
BLACK
6
CONTINUOUS
10
4.48925
20
-4.17854
11
4.48943
21
-4.17753
0
LINE
8
BLACK
6
CONTINUOUS
10
4.48943
20
-4.17753
11
4.48968
21
-4.17722
0
LINE
8
BLACK
6
CONTINUOUS
10
4.48968
20
-4.17722
11
4.48978
21
-4.17684
0
LINE
8
BLACK
6
CONTINUOUS
10
4.48978
20
-4.17684
11
4.49031
21
-4.17647
0
LINE
8
BLACK
6
CONTINUOUS
10
4.49031
20
-4.17647
11
4.49072
21
-4.17598
0
LINE
8
BLACK
6
CONTINUOUS
10
4.49072
20
-4.17598
11
4.49111
21
-4.17591
0
LINE
8
BLACK
6
CONTINUOUS
10
4.49111
20
-4.17591
11
4.49144
21
-4.17568
0
LINE
8
BLACK
6
CONTINUOUS
10
4.49144
20
-4.17568
11
4.49208
21
-4.17574
0
LINE
8
BLACK
6
CONTINUOUS
10
4.49208
20
-4.17574
11
4.49271
21
-4.17563
0
LINE
8
BLACK
6
CONTINUOUS
10
4.49271
20
-4.17563
11
4.49306
21
-4.17583
0
LINE
8
BLACK
6
CONTINUOUS
10
4.49306
20
-4.17583
11
4.49345
21
-4.17586
0
LINE
8
BLACK
6
CONTINUOUS
10
4.49345
20
-4.17586
11
4.4939
21
-4.17632
0
LINE
8
BLACK
6
CONTINUOUS
10
4.4939
20
-4.17632
11
4.49446
21
-4.17664
0
LINE
8
BLACK
6
CONTINUOUS
10
4.49446
20
-4.17664
11
4.4946
21
-4.17701
0
LINE
8
BLACK
6
CONTINUOUS
10
4.4946
20
-4.17701
11
4.49488
21
-4.17729
0
LINE
8
BLACK
6
CONTINUOUS
10
4.49488
20
-4.17729
11
4.50532
21
-4.19968
0
LINE
8
BLACK
6
CONTINUOUS
10
4.50532
20
-4.19968
11
4.51577
21
-4.17729
0
LINE
8
BLACK
6
CONTINUOUS
10
4.51577
20
-4.17729
11
4.51636
21
-4.17645
0
LINE
8
BLACK
6
CONTINUOUS
10
4.51636
20
-4.17645
11
4.51672
21
-4.17628
0
LINE
8
BLACK
6
CONTINUOUS
10
4.51672
20
-4.17628
11
4.51697
21
-4.17598
0
LINE
8
BLACK
6
CONTINUOUS
10
4.51697
20
-4.17598
11
4.51761
21
-4.17587
0
LINE
8
BLACK
6
CONTINUOUS
10
4.51761
20
-4.17587
11
4.51819
21
-4.17559
0
LINE
8
BLACK
6
CONTINUOUS
10
4.51819
20
-4.17559
11
4.51857
21
-4.1757
0
LINE
8
BLACK
6
CONTINUOUS
10
5.63443
20
-4.17664
11
5.63512
21
-4.17854
0
LINE
8
BLACK
6
CONTINUOUS
10
5.63512
20
-4.17854
11
5.63512
21
-4.21495
0
LINE
8
BLACK
6
CONTINUOUS
10
5.63512
20
-4.21495
11
5.65092
21
-4.21495
0
LINE
8
BLACK
6
CONTINUOUS
10
5.65092
20
-4.21495
11
5.65193
21
-4.21513
0
LINE
8
BLACK
6
CONTINUOUS
10
5.65193
20
-4.21513
11
5.65348
21
-4.21643
0
LINE
8
BLACK
6
CONTINUOUS
10
5.65348
20
-4.21643
11
5.65383
21
-4.21842
0
LINE
8
BLACK
6
CONTINUOUS
10
5.65383
20
-4.21842
11
5.65282
21
-4.22017
0
LINE
8
BLACK
6
CONTINUOUS
10
5.65282
20
-4.22017
11
5.65092
21
-4.22086
0
LINE
8
BLACK
6
CONTINUOUS
10
5.65092
20
-4.22086
11
5.63217
21
-4.22086
0
LINE
8
BLACK
6
CONTINUOUS
10
5.63217
20
-4.22086
11
5.63179
21
-4.22079
0
LINE
8
BLACK
6
CONTINUOUS
10
5.63179
20
-4.22079
11
5.63166
21
-4.22081
0
LINE
8
BLACK
6
CONTINUOUS
10
5.63166
20
-4.22081
11
5.63154
21
-4.22075
0
LINE
8
BLACK
6
CONTINUOUS
10
5.63154
20
-4.22075
11
5.63116
21
-4.22068
0
LINE
8
BLACK
6
CONTINUOUS
10
5.63116
20
-4.22068
11
5.63057
21
-4.22019
0
LINE
8
BLACK
6
CONTINUOUS
10
5.63057
20
-4.22019
11
5.62991
21
-4.2198
0
LINE
8
BLACK
6
CONTINUOUS
10
5.62991
20
-4.2198
11
5.62982
21
-4.21955
0
LINE
8
BLACK
6
CONTINUOUS
10
5.62982
20
-4.21955
11
5.62961
21
-4.21938
0
LINE
8
BLACK
6
CONTINUOUS
10
5.62961
20
-4.21938
11
5.62948
21
-4.21863
0
LINE
8
BLACK
6
CONTINUOUS
10
5.62948
20
-4.21863
11
5.62922
21
-4.21791
0
LINE
8
BLACK
6
CONTINUOUS
10
5.62922
20
-4.21791
11
5.62922
21
-4.17854
0
LINE
8
BLACK
6
CONTINUOUS
10
5.62922
20
-4.17854
11
5.6294
21
-4.17753
0
LINE
8
BLACK
6
CONTINUOUS
10
5.6294
20
-4.17753
11
5.63069
21
-4.17598
0
LINE
8
BLACK
6
CONTINUOUS
10
5.63069
20
-4.17598
11
5.63268
21
-4.17563
0
LINE
8
BLACK
6
CONTINUOUS
10
5.63268
20
-4.17563
11
5.63443
21
-4.17664
0
LINE
8
BLACK
6
CONTINUOUS
10
5.77754
20
-4.17576
11
5.77909
21
-4.17706
0
LINE
8
BLACK
6
CONTINUOUS
10
5.77909
20
-4.17706
11
5.77944
21
-4.17905
0
LINE
8
BLACK
6
CONTINUOUS
10
5.77944
20
-4.17905
11
5.77843
21
-4.1808
0
LINE
8
BLACK
6
CONTINUOUS
10
5.77843
20
-4.1808
11
5.77653
21
-4.18149
0
LINE
8
BLACK
6
CONTINUOUS
10
5.77653
20
-4.18149
11
5.76073
21
-4.18149
0
LINE
8
BLACK
6
CONTINUOUS
10
5.76073
20
-4.18149
11
5.76073
21
-4.19433
0
LINE
8
BLACK
6
CONTINUOUS
10
5.76073
20
-4.19433
11
5.7709
21
-4.19433
0
LINE
8
BLACK
6
CONTINUOUS
10
5.7709
20
-4.19433
11
5.77191
21
-4.19451
0
LINE
8
BLACK
6
CONTINUOUS
10
5.77191
20
-4.19451
11
5.77346
21
-4.19581
0
LINE
8
BLACK
6
CONTINUOUS
10
5.77346
20
-4.19581
11
5.77381
21
-4.1978
0
LINE
8
BLACK
6
CONTINUOUS
10
5.77381
20
-4.1978
11
5.7728
21
-4.19955
0
LINE
8
BLACK
6
CONTINUOUS
10
5.7728
20
-4.19955
11
5.7709
21
-4.20024
0
LINE
8
BLACK
6
CONTINUOUS
10
5.7709
20
-4.20024
11
5.76073
21
-4.20024
0
LINE
8
BLACK
6
CONTINUOUS
10
5.76073
20
-4.20024
11
5.76073
21
-4.21495
0
LINE
8
BLACK
6
CONTINUOUS
10
5.76073
20
-4.21495
11
5.77653
21
-4.21495
0
LINE
8
BLACK
6
CONTINUOUS
10
5.77653
20
-4.21495
11
5.77754
21
-4.21513
0
LINE
8
BLACK
6
CONTINUOUS
10
5.77754
20
-4.21513
11
5.77909
21
-4.21643
0
LINE
8
BLACK
6
CONTINUOUS
10
5.77909
20
-4.21643
11
5.77944
21
-4.21842
0
LINE
8
BLACK
6
CONTINUOUS
10
5.77944
20
-4.21842
11
5.77843
21
-4.22017
0
LINE
8
BLACK
6
CONTINUOUS
10
5.77843
20
-4.22017
11
5.77653
21
-4.22086
0
LINE
8
BLACK
6
CONTINUOUS
10
5.77653
20
-4.22086
11
5.75778
21
-4.22086
0
LINE
8
BLACK
6
CONTINUOUS
10
5.75778
20
-4.22086
11
5.7574
21
-4.22079
0
LINE
8
BLACK
6
CONTINUOUS
10
5.7574
20
-4.22079
11
5.75727
21
-4.22081
0
LINE
8
BLACK
6
CONTINUOUS
10
5.75727
20
-4.22081
11
5.75715
21
-4.22075
0
LINE
8
BLACK
6
CONTINUOUS
10
5.75715
20
-4.22075
11
5.75677
21
-4.22068
0
LINE
8
BLACK
6
CONTINUOUS
10
5.75677
20
-4.22068
11
5.75618
21
-4.22019
0
LINE
8
BLACK
6
CONTINUOUS
10
5.75618
20
-4.22019
11
5.75552
21
-4.2198
0
LINE
8
BLACK
6
CONTINUOUS
10
5.75552
20
-4.2198
11
5.75543
21
-4.21955
0
LINE
8
BLACK
6
CONTINUOUS
10
5.75543
20
-4.21955
11
5.75522
21
-4.21938
0
LINE
8
BLACK
6
CONTINUOUS
10
5.75522
20
-4.21938
11
5.75509
21
-4.21863
0
LINE
8
BLACK
6
CONTINUOUS
10
5.75509
20
-4.21863
11
5.75483
21
-4.21791
0
LINE
8
BLACK
6
CONTINUOUS
10
5.75483
20
-4.21791
11
5.75483
21
-4.17854
0
LINE
8
BLACK
6
CONTINUOUS
10
5.75483
20
-4.17854
11
5.7549
21
-4.17815
0
LINE
8
BLACK
6
CONTINUOUS
10
5.7549
20
-4.17815
11
5.75487
21
-4.17802
0
LINE
8
BLACK
6
CONTINUOUS
10
5.75487
20
-4.17802
11
5.75494
21
-4.17791
0
LINE
8
BLACK
6
CONTINUOUS
10
5.75494
20
-4.17791
11
5.75501
21
-4.17753
0
LINE
8
BLACK
6
CONTINUOUS
10
5.75501
20
-4.17753
11
5.7555
21
-4.17694
0
LINE
8
BLACK
6
CONTINUOUS
10
5.7555
20
-4.17694
11
5.75588
21
-4.17627
0
LINE
8
BLACK
6
CONTINUOUS
10
5.75588
20
-4.17627
11
5.75613
21
-4.17618
0
LINE
8
BLACK
6
CONTINUOUS
10
5.75613
20
-4.17618
11
5.7563
21
-4.17598
0
LINE
8
BLACK
6
CONTINUOUS
10
5.7563
20
-4.17598
11
5.75706
21
-4.17585
0
LINE
8
BLACK
6
CONTINUOUS
10
5.75706
20
-4.17585
11
5.75778
21
-4.17558
0
LINE
8
BLACK
6
CONTINUOUS
10
5.75778
20
-4.17558
11
5.77653
21
-4.17558
0
LINE
8
BLACK
6
CONTINUOUS
10
5.77653
20
-4.17558
11
5.77754
21
-4.17576
0
LINE
8
BLACK
6
CONTINUOUS
10
5.83566
20
-4.17576
11
5.83579
21
-4.17587
0
LINE
8
BLACK
6
CONTINUOUS
10
5.83579
20
-4.17587
11
5.83597
21
-4.1759
0
LINE
8
BLACK
6
CONTINUOUS
10
5.83597
20
-4.1759
11
5.83972
21
-4.17777
0
LINE
8
BLACK
6
CONTINUOUS
10
5.83972
20
-4.17777
11
5.84042
21
-4.1783
0
LINE
8
BLACK
6
CONTINUOUS
10
5.84042
20
-4.1783
11
5.84048
21
-4.17832
0
LINE
8
BLACK
6
CONTINUOUS
10
5.84048
20
-4.17832
11
5.84236
21
-4.1802
0
LINE
8
BLACK
6
CONTINUOUS
10
5.84236
20
-4.1802
11
5.84286
21
-4.18092
0
LINE
8
BLACK
6
CONTINUOUS
10
5.84286
20
-4.18092
11
5.84291
21
-4.18097
0
LINE
8
BLACK
6
CONTINUOUS
10
5.84291
20
-4.18097
11
5.84479
21
-4.18471
0
LINE
8
BLACK
6
CONTINUOUS
10
5.84479
20
-4.18471
11
5.84493
21
-4.1852
0
LINE
8
BLACK
6
CONTINUOUS
10
5.84493
20
-4.1852
11
5.84501
21
-4.18532
0
LINE
8
BLACK
6
CONTINUOUS
10
5.84501
20
-4.18532
11
5.84688
21
-4.19282
0
LINE
8
BLACK
6
CONTINUOUS
10
5.84688
20
-4.19282
11
5.84693
21
-4.19341
0
LINE
8
BLACK
6
CONTINUOUS
10
5.84693
20
-4.19341
11
5.84697
21
-4.19353
0
LINE
8
BLACK
6
CONTINUOUS
10
5.84697
20
-4.19353
11
5.84697
21
-4.20291
0
LINE
8
BLACK
6
CONTINUOUS
10
5.84697
20
-4.20291
11
5.84687
21
-4.20349
0
LINE
8
BLACK
6
CONTINUOUS
10
5.84687
20
-4.20349
11
5.84688
21
-4.20362
0
LINE
8
BLACK
6
CONTINUOUS
10
5.84688
20
-4.20362
11
5.84501
21
-4.21112
0
LINE
8
BLACK
6
CONTINUOUS
10
5.84501
20
-4.21112
11
5.8448
21
-4.21159
0
LINE
8
BLACK
6
CONTINUOUS
10
5.8448
20
-4.21159
11
5.84479
21
-4.21173
0
LINE
8
BLACK
6
CONTINUOUS
10
5.84479
20
-4.21173
11
5.84291
21
-4.21548
0
LINE
8
BLACK
6
CONTINUOUS
10
5.84291
20
-4.21548
11
5.84239
21
-4.21619
0
LINE
8
BLACK
6
CONTINUOUS
10
5.84239
20
-4.21619
11
5.84236
21
-4.21624
0
LINE
8
BLACK
6
CONTINUOUS
10
5.84236
20
-4.21624
11
5.84048
21
-4.21812
0
LINE
8
BLACK
6
CONTINUOUS
10
5.84048
20
-4.21812
11
5.83976
21
-4.21863
0
LINE
8
BLACK
6
CONTINUOUS
10
5.83976
20
-4.21863
11
5.83972
21
-4.21867
0
LINE
8
BLACK
6
CONTINUOUS
10
5.83972
20
-4.21867
11
5.83597
21
-4.22055
0
LINE
8
BLACK
6
CONTINUOUS
10
5.83597
20
-4.22055
11
5.83498
21
-4.22084
0
LINE
8
BLACK
6
CONTINUOUS
10
5.83498
20
-4.22084
11
5.83481
21
-4.2208
0
LINE
8
BLACK
6
CONTINUOUS
10
5.83481
20
-4.2208
11
5.83465
21
-4.22086
0
LINE
8
BLACK
6
CONTINUOUS
10
5.83465
20
-4.22086
11
5.8309
21
-4.22086
0
LINE
8
BLACK
6
CONTINUOUS
10
5.8309
20
-4.22086
11
5.82989
21
-4.22068
0
LINE
8
BLACK
6
CONTINUOUS
10
5.82989
20
-4.22068
11
5.82975
21
-4.22057
0
LINE
8
BLACK
6
CONTINUOUS
10
5.82975
20
-4.22057
11
5.82958
21
-4.22055
0
LINE
8
BLACK
6
CONTINUOUS
10
5.82958
20
-4.22055
11
5.82583
21
-4.21867
0
LINE
8
BLACK
6
CONTINUOUS
10
5.82583
20
-4.21867
11
5.82512
21
-4.21815
0
LINE
8
BLACK
6
CONTINUOUS
10
5.82512
20
-4.21815
11
5.82506
21
-4.21812
0
LINE
8
BLACK
6
CONTINUOUS
10
5.82506
20
-4.21812
11
5.82318
21
-4.21624
0
LINE
8
BLACK
6
CONTINUOUS
10
5.82318
20
-4.21624
11
5.82268
21
-4.21552
0
LINE
8
BLACK
6
CONTINUOUS
10
5.82268
20
-4.21552
11
5.82263
21
-4.21548
0
LINE
8
BLACK
6
CONTINUOUS
10
5.82263
20
-4.21548
11
5.82076
21
-4.21173
0
LINE
8
BLACK
6
CONTINUOUS
10
5.82076
20
-4.21173
11
5.82061
21
-4.21124
0
LINE
8
BLACK
6
CONTINUOUS
10
5.82061
20
-4.21124
11
5.82053
21
-4.21112
0
LINE
8
BLACK
6
CONTINUOUS
10
5.82053
20
-4.21112
11
5.81866
21
-4.20362
0
LINE
8
BLACK
6
CONTINUOUS
10
5.81866
20
-4.20362
11
5.81862
21
-4.20304
0
LINE
8
BLACK
6
CONTINUOUS
10
5.81862
20
-4.20304
11
5.81857
21
-4.20291
0
LINE
8
BLACK
6
CONTINUOUS
10
5.81857
20
-4.20291
11
5.81857
21
-4.19353
0
LINE
8
BLACK
6
CONTINUOUS
10
5.81857
20
-4.19353
11
5.81867
21
-4.19295
0
LINE
8
BLACK
6
CONTINUOUS
10
5.81867
20
-4.19295
11
5.81866
21
-4.19282
0
LINE
8
BLACK
6
CONTINUOUS
10
5.81866
20
-4.19282
11
5.82053
21
-4.18532
0
LINE
8
BLACK
6
CONTINUOUS
10
5.82053
20
-4.18532
11
5.82074
21
-4.18485
0
LINE
8
BLACK
6
CONTINUOUS
10
5.82074
20
-4.18485
11
5.82076
21
-4.18471
0
LINE
8
BLACK
6
CONTINUOUS
10
5.82076
20
-4.18471
11
5.82263
21
-4.18097
0
LINE
8
BLACK
6
CONTINUOUS
10
5.82263
20
-4.18097
11
5.82316
21
-4.18026
0
LINE
8
BLACK
6
CONTINUOUS
10
5.82316
20
-4.18026
11
5.82318
21
-4.1802
0
LINE
8
BLACK
6
CONTINUOUS
10
5.82318
20
-4.1802
11
5.82506
21
-4.17832
0
LINE
8
BLACK
6
CONTINUOUS
10
5.82506
20
-4.17832
11
5.82578
21
-4.17782
0
LINE
8
BLACK
6
CONTINUOUS
10
5.82578
20
-4.17782
11
5.82583
21
-4.17777
0
LINE
8
BLACK
6
CONTINUOUS
10
5.82583
20
-4.17777
11
5.82958
21
-4.1759
0
LINE
8
BLACK
6
CONTINUOUS
10
5.82958
20
-4.1759
11
5.83056
21
-4.1756
0
LINE
8
BLACK
6
CONTINUOUS
10
5.83056
20
-4.1756
11
5.83073
21
-4.17564
0
LINE
8
BLACK
6
CONTINUOUS
10
5.83073
20
-4.17564
11
5.8309
21
-4.17558
0
LINE
8
BLACK
6
CONTINUOUS
10
5.8309
20
-4.17558
11
5.83465
21
-4.17558
0
LINE
8
BLACK
6
CONTINUOUS
10
5.83465
20
-4.17558
11
5.83566
21
-4.17576
0
LINE
8
BLACK
6
CONTINUOUS
10
5.8289
20
-4.18284
11
5.8277
21
-4.18403
0
LINE
8
BLACK
6
CONTINUOUS
10
5.8277
20
-4.18403
11
5.82618
21
-4.18707
0
LINE
8
BLACK
6
CONTINUOUS
10
5.82618
20
-4.18707
11
5.82448
21
-4.1939
0
LINE
8
BLACK
6
CONTINUOUS
10
5.82448
20
-4.1939
11
5.82448
21
-4.20254
0
LINE
8
BLACK
6
CONTINUOUS
10
5.82448
20
-4.20254
11
5.82618
21
-4.20938
0
LINE
8
BLACK
6
CONTINUOUS
10
5.82618
20
-4.20938
11
5.8277
21
-4.21241
0
LINE
8
BLACK
6
CONTINUOUS
10
5.8277
20
-4.21241
11
5.8289
21
-4.2136
0
LINE
8
BLACK
6
CONTINUOUS
10
5.8289
20
-4.2136
11
5.83159
21
-4.21495
0
LINE
8
BLACK
6
CONTINUOUS
10
5.83159
20
-4.21495
11
5.83395
21
-4.21495
0
LINE
8
BLACK
6
CONTINUOUS
10
5.83395
20
-4.21495
11
5.83665
21
-4.2136
0
LINE
8
BLACK
6
CONTINUOUS
10
5.83665
20
-4.2136
11
5.83784
21
-4.21241
0
LINE
8
BLACK
6
CONTINUOUS
10
5.83784
20
-4.21241
11
5.83936
21
-4.20938
0
LINE
8
BLACK
6
CONTINUOUS
10
5.83936
20
-4.20938
11
5.84107
21
-4.20254
0
LINE
8
BLACK
6
CONTINUOUS
10
5.84107
20
-4.20254
11
5.84107
21
-4.1939
0
LINE
8
BLACK
6
CONTINUOUS
10
5.84107
20
-4.1939
11
5.83936
21
-4.18707
0
LINE
8
BLACK
6
CONTINUOUS
10
5.83936
20
-4.18707
11
5.83784
21
-4.18403
0
LINE
8
BLACK
6
CONTINUOUS
10
5.83784
20
-4.18403
11
5.83665
21
-4.18284
0
LINE
8
BLACK
6
CONTINUOUS
10
5.83665
20
-4.18284
11
5.83395
21
-4.18149
0
LINE
8
BLACK
6
CONTINUOUS
10
5.83395
20
-4.18149
11
5.83159
21
-4.18149
0
LINE
8
BLACK
6
CONTINUOUS
10
5.83159
20
-4.18149
11
5.8289
21
-4.18284
0
LINE
8
BLACK
6
CONTINUOUS
10
5.87503
20
-4.17576
11
5.87516
21
-4.17587
0
LINE
8
BLACK
6
CONTINUOUS
10
5.87516
20
-4.17587
11
5.87534
21
-4.1759
0
LINE
8
BLACK
6
CONTINUOUS
10
5.87534
20
-4.1759
11
5.87909
21
-4.17777
0
LINE
8
BLACK
6
CONTINUOUS
10
5.87909
20
-4.17777
11
5.87979
21
-4.1783
0
LINE
8
BLACK
6
CONTINUOUS
10
5.87979
20
-4.1783
11
5.87985
21
-4.17832
0
LINE
8
BLACK
6
CONTINUOUS
10
5.87985
20
-4.17832
11
5.88173
21
-4.1802
0
LINE
8
BLACK
6
CONTINUOUS
10
5.88173
20
-4.1802
11
5.88223
21
-4.18092
0
LINE
8
BLACK
6
CONTINUOUS
10
5.88223
20
-4.18092
11
5.88228
21
-4.18097
0
LINE
8
BLACK
6
CONTINUOUS
10
5.88228
20
-4.18097
11
5.88416
21
-4.18471
0
LINE
8
BLACK
6
CONTINUOUS
10
5.88416
20
-4.18471
11
5.88445
21
-4.1857
0
LINE
8
BLACK
6
CONTINUOUS
10
5.88445
20
-4.1857
11
5.88441
21
-4.18587
0
LINE
8
BLACK
6
CONTINUOUS
10
5.88441
20
-4.18587
11
5.88447
21
-4.18604
0
LINE
8
BLACK
6
CONTINUOUS
10
5.88447
20
-4.18604
11
5.88447
21
-4.18978
0
LINE
8
BLACK
6
CONTINUOUS
10
5.88447
20
-4.18978
11
5.88431
21
-4.19065
0
LINE
8
BLACK
6
CONTINUOUS
10
5.88431
20
-4.19065
11
5.88432
21
-4.19072
0
LINE
8
BLACK
6
CONTINUOUS
10
5.88432
20
-4.19072
11
5.88244
21
-4.19634
0
LINE
8
BLACK
6
CONTINUOUS
10
5.88244
20
-4.19634
11
5.88195
21
-4.19724
0
LINE
8
BLACK
6
CONTINUOUS
10
5.88195
20
-4.19724
11
5.8818
21
-4.19734
0
LINE
8
BLACK
6
CONTINUOUS
10
5.8818
20
-4.19734
11
5.88173
21
-4.1975
0
LINE
8
BLACK
6
CONTINUOUS
10
5.88173
20
-4.1975
11
5.86427
21
-4.21495
0
LINE
8
BLACK
6
CONTINUOUS
10
5.86427
20
-4.21495
11
5.88151
21
-4.21495
0
LINE
8
BLACK
6
CONTINUOUS
10
5.88151
20
-4.21495
11
5.88252
21
-4.21513
0
LINE
8
BLACK
6
CONTINUOUS
10
5.88252
20
-4.21513
11
5.88407
21
-4.21643
0
LINE
8
BLACK
6
CONTINUOUS
10
5.88407
20
-4.21643
11
5.88442
21
-4.21842
0
LINE
8
BLACK
6
CONTINUOUS
10
5.88442
20
-4.21842
11
5.88341
21
-4.22017
0
LINE
8
BLACK
6
CONTINUOUS
10
5.88341
20
-4.22017
11
5.88151
21
-4.22086
0
LINE
8
BLACK
6
CONTINUOUS
10
5.88151
20
-4.22086
11
5.85714
21
-4.22086
0
LINE
8
BLACK
6
CONTINUOUS
10
5.85714
20
-4.22086
11
5.85651
21
-4.22075
0
LINE
8
BLACK
6
CONTINUOUS
10
5.85651
20
-4.22075
11
5.85638
21
-4.22076
0
LINE
8
BLACK
6
CONTINUOUS
10
5.85638
20
-4.22076
11
5.85631
21
-4.22071
0
LINE
8
BLACK
6
CONTINUOUS
10
5.85631
20
-4.22071
11
5.85613
21
-4.22068
0
LINE
8
BLACK
6
CONTINUOUS
10
5.85613
20
-4.22068
11
5.85545
21
-4.22011
0
LINE
8
BLACK
6
CONTINUOUS
10
5.85545
20
-4.22011
11
5.85472
21
-4.2196
0
LINE
8
BLACK
6
CONTINUOUS
10
5.85472
20
-4.2196
11
5.85469
21
-4.21947
0
LINE
8
BLACK
6
CONTINUOUS
10
5.85469
20
-4.21947
11
5.85459
21
-4.21938
0
LINE
8
BLACK
6
CONTINUOUS
10
5.85459
20
-4.21938
11
5.85443
21
-4.21851
0
LINE
8
BLACK
6
CONTINUOUS
10
5.85443
20
-4.21851
11
5.8542
21
-4.21765
0
LINE
8
BLACK
6
CONTINUOUS
10
5.8542
20
-4.21765
11
5.85426
21
-4.21753
0
LINE
8
BLACK
6
CONTINUOUS
10
5.85426
20
-4.21753
11
5.85423
21
-4.21739
0
LINE
8
BLACK
6
CONTINUOUS
10
5.85423
20
-4.21739
11
5.85468
21
-4.21662
0
LINE
8
BLACK
6
CONTINUOUS
10
5.85468
20
-4.21662
11
5.85505
21
-4.21582
0
LINE
8
BLACK
6
CONTINUOUS
10
5.85505
20
-4.21582
11
5.87706
21
-4.19381
0
LINE
8
BLACK
6
CONTINUOUS
10
5.87706
20
-4.19381
11
5.87856
21
-4.18931
0
LINE
8
BLACK
6
CONTINUOUS
10
5.87856
20
-4.18931
11
5.87856
21
-4.18673
0
LINE
8
BLACK
6
CONTINUOUS
10
5.87856
20
-4.18673
11
5.87721
21
-4.18403
0
LINE
8
BLACK
6
CONTINUOUS
10
5.87721
20
-4.18403
11
5.87602
21
-4.18284
0
LINE
8
BLACK
6
CONTINUOUS
10
5.87602
20
-4.18284
11
5.87332
21
-4.18149
0
LINE
8
BLACK
6
CONTINUOUS
10
5.87332
20
-4.18149
11
5.86534
21
-4.18149
0
LINE
8
BLACK
6
CONTINUOUS
10
5.86534
20
-4.18149
11
5.86264
21
-4.18284
0
LINE
8
BLACK
6
CONTINUOUS
10
5.86264
20
-4.18284
11
5.86111
21
-4.18437
0
LINE
8
BLACK
6
CONTINUOUS
10
5.86111
20
-4.18437
11
5.86027
21
-4.18496
0
LINE
8
BLACK
6
CONTINUOUS
10
5.86027
20
-4.18496
11
5.85825
21
-4.18514
0
LINE
8
BLACK
6
CONTINUOUS
10
5.85825
20
-4.18514
11
5.8566
21
-4.18398
0
LINE
8
BLACK
6
CONTINUOUS
10
5.8566
20
-4.18398
11
5.85608
21
-4.18203
0
LINE
8
BLACK
6
CONTINUOUS
10
5.85608
20
-4.18203
11
5.85693
21
-4.1802
0
LINE
8
BLACK
6
CONTINUOUS
10
5.85693
20
-4.1802
11
5.8588
21
-4.17832
0
LINE
8
BLACK
6
CONTINUOUS
10
5.8588
20
-4.17832
11
5.85953
21
-4.17782
0
LINE
8
BLACK
6
CONTINUOUS
10
5.85953
20
-4.17782
11
5.85957
21
-4.17777
0
LINE
8
BLACK
6
CONTINUOUS
10
5.85957
20
-4.17777
11
5.86332
21
-4.1759
0
LINE
8
BLACK
6
CONTINUOUS
10
5.86332
20
-4.1759
11
5.8643
21
-4.1756
0
LINE
8
BLACK
6
CONTINUOUS
10
5.8643
20
-4.1756
11
5.86448
21
-4.17564
0
LINE
8
BLACK
6
CONTINUOUS
10
5.86448
20
-4.17564
11
5.86464
21
-4.17558
0
LINE
8
BLACK
6
CONTINUOUS
10
5.86464
20
-4.17558
11
5.87402
21
-4.17558
0
LINE
8
BLACK
6
CONTINUOUS
10
5.87402
20
-4.17558
11
5.87503
21
-4.17576
0
LINE
8
BLACK
6
CONTINUOUS
10
5.60641
20
-4.1758
11
5.60733
21
-4.17594
0
LINE
8
BLACK
6
CONTINUOUS
10
5.60733
20
-4.17594
11
5.60739
21
-4.176
0
LINE
8
BLACK
6
CONTINUOUS
10
5.60739
20
-4.176
11
5.60747
21
-4.17602
0
LINE
8
BLACK
6
CONTINUOUS
10
5.60747
20
-4.17602
11
5.60805
21
-4.17675
0
LINE
8
BLACK
6
CONTINUOUS
10
5.60805
20
-4.17675
11
5.60867
21
-4.17745
0
LINE
8
BLACK
6
CONTINUOUS
10
5.60867
20
-4.17745
11
5.60867
21
-4.17754
0
LINE
8
BLACK
6
CONTINUOUS
10
5.60867
20
-4.17754
11
5.60873
21
-4.1776
0
LINE
8
BLACK
6
CONTINUOUS
10
5.60873
20
-4.1776
11
5.62185
21
-4.21697
0
LINE
8
BLACK
6
CONTINUOUS
10
5.62185
20
-4.21697
11
5.622
21
-4.21799
0
LINE
8
BLACK
6
CONTINUOUS
10
5.622
20
-4.21799
11
5.62126
21
-4.21987
0
LINE
8
BLACK
6
CONTINUOUS
10
5.62126
20
-4.21987
11
5.61948
21
-4.22083
0
LINE
8
BLACK
6
CONTINUOUS
10
5.61948
20
-4.22083
11
5.6175
21
-4.22042
0
LINE
8
BLACK
6
CONTINUOUS
10
5.6175
20
-4.22042
11
5.61625
21
-4.21884
0
LINE
8
BLACK
6
CONTINUOUS
10
5.61625
20
-4.21884
11
5.61317
21
-4.20961
0
LINE
8
BLACK
6
CONTINUOUS
10
5.61317
20
-4.20961
11
5.59868
21
-4.20961
0
LINE
8
BLACK
6
CONTINUOUS
10
5.59868
20
-4.20961
11
5.5956
21
-4.21884
0
LINE
8
BLACK
6
CONTINUOUS
10
5.5956
20
-4.21884
11
5.59511
21
-4.21974
0
LINE
8
BLACK
6
CONTINUOUS
10
5.59511
20
-4.21974
11
5.59339
21
-4.2208
0
LINE
8
BLACK
6
CONTINUOUS
10
5.59339
20
-4.2208
11
5.59139
21
-4.2205
0
LINE
8
BLACK
6
CONTINUOUS
10
5.59139
20
-4.2205
11
5.59005
21
-4.21899
0
LINE
8
BLACK
6
CONTINUOUS
10
5.59005
20
-4.21899
11
5.59
21
-4.21697
0
LINE
8
BLACK
6
CONTINUOUS
10
5.59
20
-4.21697
11
5.60312
21
-4.1776
0
LINE
8
BLACK
6
CONTINUOUS
10
5.60312
20
-4.1776
11
5.60361
21
-4.1767
0
LINE
8
BLACK
6
CONTINUOUS
10
5.60361
20
-4.1767
11
5.60368
21
-4.17666
0
LINE
8
BLACK
6
CONTINUOUS
10
5.60368
20
-4.17666
11
5.60372
21
-4.17658
0
LINE
8
BLACK
6
CONTINUOUS
10
5.60372
20
-4.17658
11
5.60454
21
-4.17613
0
LINE
8
BLACK
6
CONTINUOUS
10
5.60454
20
-4.17613
11
5.60533
21
-4.17564
0
LINE
8
BLACK
6
CONTINUOUS
10
5.60533
20
-4.17564
11
5.60542
21
-4.17566
0
LINE
8
BLACK
6
CONTINUOUS
10
5.60542
20
-4.17566
11
5.60549
21
-4.17562
0
LINE
8
BLACK
6
CONTINUOUS
10
5.60549
20
-4.17562
11
5.60641
21
-4.1758
0
LINE
8
BLACK
6
CONTINUOUS
10
5.60065
20
-4.2037
11
5.6112
21
-4.2037
0
LINE
8
BLACK
6
CONTINUOUS
10
5.6112
20
-4.2037
11
5.60592
21
-4.18787
0
LINE
8
BLACK
6
CONTINUOUS
10
5.60592
20
-4.18787
11
5.60065
21
-4.2037
0
LINE
8
BLACK
6
CONTINUOUS
10
5.90637
20
-4.1758
11
5.90729
21
-4.17594
0
LINE
8
BLACK
6
CONTINUOUS
10
5.90729
20
-4.17594
11
5.90735
21
-4.176
0
LINE
8
BLACK
6
CONTINUOUS
10
5.90735
20
-4.176
11
5.90743
21
-4.17602
0
LINE
8
BLACK
6
CONTINUOUS
10
5.90743
20
-4.17602
11
5.90801
21
-4.17675
0
LINE
8
BLACK
6
CONTINUOUS
10
5.90801
20
-4.17675
11
5.90863
21
-4.17745
0
LINE
8
BLACK
6
CONTINUOUS
10
5.90863
20
-4.17745
11
5.90864
21
-4.17754
0
LINE
8
BLACK
6
CONTINUOUS
10
5.90864
20
-4.17754
11
5.90869
21
-4.1776
0
LINE
8
BLACK
6
CONTINUOUS
10
5.90869
20
-4.1776
11
5.92181
21
-4.21697
0
LINE
8
BLACK
6
CONTINUOUS
10
5.92181
20
-4.21697
11
5.92196
21
-4.21799
0
LINE
8
BLACK
6
CONTINUOUS
10
5.92196
20
-4.21799
11
5.92122
21
-4.21987
0
LINE
8
BLACK
6
CONTINUOUS
10
5.92122
20
-4.21987
11
5.91944
21
-4.22083
0
LINE
8
BLACK
6
CONTINUOUS
10
5.91944
20
-4.22083
11
5.91746
21
-4.22042
0
LINE
8
BLACK
6
CONTINUOUS
10
5.91746
20
-4.22042
11
5.91621
21
-4.21884
0
LINE
8
BLACK
6
CONTINUOUS
10
5.91621
20
-4.21884
11
5.91313
21
-4.20961
0
LINE
8
BLACK
6
CONTINUOUS
10
5.91313
20
-4.20961
11
5.89864
21
-4.20961
0
LINE
8
BLACK
6
CONTINUOUS
10
5.89864
20
-4.20961
11
5.89556
21
-4.21884
0
LINE
8
BLACK
6
CONTINUOUS
10
5.89556
20
-4.21884
11
5.89508
21
-4.21974
0
LINE
8
BLACK
6
CONTINUOUS
10
5.89508
20
-4.21974
11
5.89336
21
-4.2208
0
LINE
8
BLACK
6
CONTINUOUS
10
5.89336
20
-4.2208
11
5.89136
21
-4.2205
0
LINE
8
BLACK
6
CONTINUOUS
10
5.89136
20
-4.2205
11
5.89002
21
-4.21899
0
LINE
8
BLACK
6
CONTINUOUS
10
5.89002
20
-4.21899
11
5.88996
21
-4.21697
0
LINE
8
BLACK
6
CONTINUOUS
10
5.88996
20
-4.21697
11
5.90309
21
-4.1776
0
LINE
8
BLACK
6
CONTINUOUS
10
5.90309
20
-4.1776
11
5.90357
21
-4.1767
0
LINE
8
BLACK
6
CONTINUOUS
10
5.90357
20
-4.1767
11
5.90365
21
-4.17666
0
LINE
8
BLACK
6
CONTINUOUS
10
5.90365
20
-4.17666
11
5.90368
21
-4.17658
0
LINE
8
BLACK
6
CONTINUOUS
10
5.90368
20
-4.17658
11
5.9045
21
-4.17613
0
LINE
8
BLACK
6
CONTINUOUS
10
5.9045
20
-4.17613
11
5.90529
21
-4.17564
0
LINE
8
BLACK
6
CONTINUOUS
10
5.90529
20
-4.17564
11
5.90538
21
-4.17566
0
LINE
8
BLACK
6
CONTINUOUS
10
5.90538
20
-4.17566
11
5.90545
21
-4.17562
0
LINE
8
BLACK
6
CONTINUOUS
10
5.90545
20
-4.17562
11
5.90637
21
-4.1758
0
LINE
8
BLACK
6
CONTINUOUS
10
5.90061
20
-4.2037
11
5.91116
21
-4.2037
0
LINE
8
BLACK
6
CONTINUOUS
10
5.91116
20
-4.2037
11
5.90589
21
-4.18787
0
LINE
8
BLACK
6
CONTINUOUS
10
5.90589
20
-4.18787
11
5.90061
21
-4.2037
0
LINE
8
BLACK
6
CONTINUOUS
10
5.68192
20
-4.17576
11
5.68347
21
-4.17706
0
LINE
8
BLACK
6
CONTINUOUS
10
5.68347
20
-4.17706
11
5.68382
21
-4.17905
0
LINE
8
BLACK
6
CONTINUOUS
10
5.68382
20
-4.17905
11
5.68281
21
-4.1808
0
LINE
8
BLACK
6
CONTINUOUS
10
5.68281
20
-4.1808
11
5.68091
21
-4.18149
0
LINE
8
BLACK
6
CONTINUOUS
10
5.68091
20
-4.18149
11
5.67262
21
-4.18149
0
LINE
8
BLACK
6
CONTINUOUS
10
5.67262
20
-4.18149
11
5.67262
21
-4.21791
0
LINE
8
BLACK
6
CONTINUOUS
10
5.67262
20
-4.21791
11
5.67244
21
-4.21892
0
LINE
8
BLACK
6
CONTINUOUS
10
5.67244
20
-4.21892
11
5.67114
21
-4.22046
0
LINE
8
BLACK
6
CONTINUOUS
10
5.67114
20
-4.22046
11
5.66915
21
-4.22081
0
LINE
8
BLACK
6
CONTINUOUS
10
5.66915
20
-4.22081
11
5.6674
21
-4.2198
0
LINE
8
BLACK
6
CONTINUOUS
10
5.6674
20
-4.2198
11
5.66671
21
-4.21791
0
LINE
8
BLACK
6
CONTINUOUS
10
5.66671
20
-4.21791
11
5.66671
21
-4.18149
0
LINE
8
BLACK
6
CONTINUOUS
10
5.66671
20
-4.18149
11
5.65842
21
-4.18149
0
LINE
8
BLACK
6
CONTINUOUS
10
5.65842
20
-4.18149
11
5.65741
21
-4.18131
0
LINE
8
BLACK
6
CONTINUOUS
10
5.65741
20
-4.18131
11
5.65586
21
-4.18001
0
LINE
8
BLACK
6
CONTINUOUS
10
5.65586
20
-4.18001
11
5.65551
21
-4.17802
0
LINE
8
BLACK
6
CONTINUOUS
10
5.65551
20
-4.17802
11
5.65652
21
-4.17627
0
LINE
8
BLACK
6
CONTINUOUS
10
5.65652
20
-4.17627
11
5.65842
21
-4.17558
0
LINE
8
BLACK
6
CONTINUOUS
10
5.65842
20
-4.17558
11
5.68091
21
-4.17558
0
LINE
8
BLACK
6
CONTINUOUS
10
5.68091
20
-4.17558
11
5.68192
21
-4.17576
0
LINE
8
BLACK
6
CONTINUOUS
10
5.6963
20
-4.17664
11
5.69699
21
-4.17854
0
LINE
8
BLACK
6
CONTINUOUS
10
5.69699
20
-4.17854
11
5.69699
21
-4.21791
0
LINE
8
BLACK
6
CONTINUOUS
10
5.69699
20
-4.21791
11
5.69681
21
-4.21892
0
LINE
8
BLACK
6
CONTINUOUS
10
5.69681
20
-4.21892
11
5.69551
21
-4.22046
0
LINE
8
BLACK
6
CONTINUOUS
10
5.69551
20
-4.22046
11
5.69353
21
-4.22081
0
LINE
8
BLACK
6
CONTINUOUS
10
5.69353
20
-4.22081
11
5.69178
21
-4.2198
0
LINE
8
BLACK
6
CONTINUOUS
10
5.69178
20
-4.2198
11
5.69109
21
-4.21791
0
LINE
8
BLACK
6
CONTINUOUS
10
5.69109
20
-4.21791
11
5.69109
21
-4.17854
0
LINE
8
BLACK
6
CONTINUOUS
10
5.69109
20
-4.17854
11
5.69126
21
-4.17753
0
LINE
8
BLACK
6
CONTINUOUS
10
5.69126
20
-4.17753
11
5.69256
21
-4.17598
0
LINE
8
BLACK
6
CONTINUOUS
10
5.69256
20
-4.17598
11
5.69455
21
-4.17563
0
LINE
8
BLACK
6
CONTINUOUS
10
5.69455
20
-4.17563
11
5.6963
21
-4.17664
0
LINE
8
BLACK
6
CONTINUOUS
10
5.73916
20
-4.1757
11
5.73955
21
-4.17563
0
LINE
8
BLACK
6
CONTINUOUS
10
5.73955
20
-4.17563
11
5.7401
21
-4.17595
0
LINE
8
BLACK
6
CONTINUOUS
10
5.7401
20
-4.17595
11
5.74073
21
-4.17612
0
LINE
8
BLACK
6
CONTINUOUS
10
5.74073
20
-4.17612
11
5.74095
21
-4.17644
0
LINE
8
BLACK
6
CONTINUOUS
10
5.74095
20
-4.17644
11
5.74129
21
-4.17664
0
LINE
8
BLACK
6
CONTINUOUS
10
5.74129
20
-4.17664
11
5.74152
21
-4.17724
0
LINE
8
BLACK
6
CONTINUOUS
10
5.74152
20
-4.17724
11
5.74188
21
-4.17777
0
LINE
8
BLACK
6
CONTINUOUS
10
5.74188
20
-4.17777
11
5.74185
21
-4.17817
0
LINE
8
BLACK
6
CONTINUOUS
10
5.74185
20
-4.17817
11
5.74199
21
-4.17854
0
LINE
8
BLACK
6
CONTINUOUS
10
5.74199
20
-4.17854
11
5.74199
21
-4.21791
0
LINE
8
BLACK
6
CONTINUOUS
10
5.74199
20
-4.21791
11
5.74181
21
-4.21892
0
LINE
8
BLACK
6
CONTINUOUS
10
5.74181
20
-4.21892
11
5.74051
21
-4.22046
0
LINE
8
BLACK
6
CONTINUOUS
10
5.74051
20
-4.22046
11
5.73852
21
-4.22081
0
LINE
8
BLACK
6
CONTINUOUS
10
5.73852
20
-4.22081
11
5.73677
21
-4.2198
0
LINE
8
BLACK
6
CONTINUOUS
10
5.73677
20
-4.2198
11
5.73608
21
-4.21791
0
LINE
8
BLACK
6
CONTINUOUS
10
5.73608
20
-4.21791
11
5.73608
21
-4.19185
0
LINE
8
BLACK
6
CONTINUOUS
10
5.73608
20
-4.19185
11
5.72858
21
-4.20791
0
LINE
8
BLACK
6
CONTINUOUS
10
5.72858
20
-4.20791
11
5.72836
21
-4.20822
0
LINE
8
BLACK
6
CONTINUOUS
10
5.72836
20
-4.20822
11
5.72833
21
-4.20835
0
LINE
8
BLACK
6
CONTINUOUS
10
5.72833
20
-4.20835
11
5.72822
21
-4.20843
0
LINE
8
BLACK
6
CONTINUOUS
10
5.72822
20
-4.20843
11
5.728
21
-4.20875
0
LINE
8
BLACK
6
CONTINUOUS
10
5.728
20
-4.20875
11
5.7273
21
-4.20907
0
LINE
8
BLACK
6
CONTINUOUS
10
5.7273
20
-4.20907
11
5.72667
21
-4.20951
0
LINE
8
BLACK
6
CONTINUOUS
10
5.72667
20
-4.20951
11
5.72641
21
-4.20949
0
LINE
8
BLACK
6
CONTINUOUS
10
5.72641
20
-4.20949
11
5.72617
21
-4.2096
0
LINE
8
BLACK
6
CONTINUOUS
10
5.72617
20
-4.2096
11
5.72543
21
-4.2094
0
LINE
8
BLACK
6
CONTINUOUS
10
5.72543
20
-4.2094
11
5.72466
21
-4.20933
0
LINE
8
BLACK
6
CONTINUOUS
10
5.72466
20
-4.20933
11
5.72447
21
-4.20915
0
LINE
8
BLACK
6
CONTINUOUS
10
5.72447
20
-4.20915
11
5.72421
21
-4.20908
0
LINE
8
BLACK
6
CONTINUOUS
10
5.72421
20
-4.20908
11
5.72378
21
-4.20845
0
LINE
8
BLACK
6
CONTINUOUS
10
5.72378
20
-4.20845
11
5.72323
21
-4.20791
0
LINE
8
BLACK
6
CONTINUOUS
10
5.72323
20
-4.20791
11
5.71574
21
-4.19185
0
LINE
8
BLACK
6
CONTINUOUS
10
5.71574
20
-4.19185
11
5.71574
21
-4.21791
0
LINE
8
BLACK
6
CONTINUOUS
10
5.71574
20
-4.21791
11
5.71556
21
-4.21892
0
LINE
8
BLACK
6
CONTINUOUS
10
5.71556
20
-4.21892
11
5.71426
21
-4.22046
0
LINE
8
BLACK
6
CONTINUOUS
10
5.71426
20
-4.22046
11
5.71227
21
-4.22081
0
LINE
8
BLACK
6
CONTINUOUS
10
5.71227
20
-4.22081
11
5.71052
21
-4.2198
0
LINE
8
BLACK
6
CONTINUOUS
10
5.71052
20
-4.2198
11
5.70983
21
-4.21791
0
LINE
8
BLACK
6
CONTINUOUS
10
5.70983
20
-4.21791
11
5.70983
21
-4.17854
0
LINE
8
BLACK
6
CONTINUOUS
10
5.70983
20
-4.17854
11
5.71001
21
-4.17753
0
LINE
8
BLACK
6
CONTINUOUS
10
5.71001
20
-4.17753
11
5.71026
21
-4.17722
0
LINE
8
BLACK
6
CONTINUOUS
10
5.71026
20
-4.17722
11
5.71037
21
-4.17684
0
LINE
8
BLACK
6
CONTINUOUS
10
5.71037
20
-4.17684
11
5.71089
21
-4.17647
0
LINE
8
BLACK
6
CONTINUOUS
10
5.71089
20
-4.17647
11
5.71131
21
-4.17598
0
LINE
8
BLACK
6
CONTINUOUS
10
5.71131
20
-4.17598
11
5.7117
21
-4.17591
0
LINE
8
BLACK
6
CONTINUOUS
10
5.7117
20
-4.17591
11
5.71202
21
-4.17568
0
LINE
8
BLACK
6
CONTINUOUS
10
5.71202
20
-4.17568
11
5.71266
21
-4.17574
0
LINE
8
BLACK
6
CONTINUOUS
10
5.71266
20
-4.17574
11
5.7133
21
-4.17563
0
LINE
8
BLACK
6
CONTINUOUS
10
5.7133
20
-4.17563
11
5.71364
21
-4.17583
0
LINE
8
BLACK
6
CONTINUOUS
10
5.71364
20
-4.17583
11
5.71403
21
-4.17586
0
LINE
8
BLACK
6
CONTINUOUS
10
5.71403
20
-4.17586
11
5.71449
21
-4.17632
0
LINE
8
BLACK
6
CONTINUOUS
10
5.71449
20
-4.17632
11
5.71505
21
-4.17664
0
LINE
8
BLACK
6
CONTINUOUS
10
5.71505
20
-4.17664
11
5.71518
21
-4.17701
0
LINE
8
BLACK
6
CONTINUOUS
10
5.71518
20
-4.17701
11
5.71546
21
-4.17729
0
LINE
8
BLACK
6
CONTINUOUS
10
5.71546
20
-4.17729
11
5.72591
21
-4.19968
0
LINE
8
BLACK
6
CONTINUOUS
10
5.72591
20
-4.19968
11
5.73636
21
-4.17729
0
LINE
8
BLACK
6
CONTINUOUS
10
5.73636
20
-4.17729
11
5.73695
21
-4.17645
0
LINE
8
BLACK
6
CONTINUOUS
10
5.73695
20
-4.17645
11
5.7373
21
-4.17628
0
LINE
8
BLACK
6
CONTINUOUS
10
5.7373
20
-4.17628
11
5.73756
21
-4.17598
0
LINE
8
BLACK
6
CONTINUOUS
10
5.73756
20
-4.17598
11
5.73819
21
-4.17587
0
LINE
8
BLACK
6
CONTINUOUS
10
5.73819
20
-4.17587
11
5.73878
21
-4.17559
0
LINE
8
BLACK
6
CONTINUOUS
10
5.73878
20
-4.17559
11
5.73916
21
-4.1757
0
LINE
8
BLACK
6
CONTINUOUS
10
5.81128
20
-4.17576
11
5.81283
21
-4.17706
0
LINE
8
BLACK
6
CONTINUOUS
10
5.81283
20
-4.17706
11
5.81318
21
-4.17905
0
LINE
8
BLACK
6
CONTINUOUS
10
5.81318
20
-4.17905
11
5.81217
21
-4.1808
0
LINE
8
BLACK
6
CONTINUOUS
10
5.81217
20
-4.1808
11
5.81027
21
-4.18149
0
LINE
8
BLACK
6
CONTINUOUS
10
5.81027
20
-4.18149
11
5.80198
21
-4.18149
0
LINE
8
BLACK
6
CONTINUOUS
10
5.80198
20
-4.18149
11
5.80198
21
-4.21791
0
LINE
8
BLACK
6
CONTINUOUS
10
5.80198
20
-4.21791
11
5.8018
21
-4.21892
0
LINE
8
BLACK
6
CONTINUOUS
10
5.8018
20
-4.21892
11
5.8005
21
-4.22046
0
LINE
8
BLACK
6
CONTINUOUS
10
5.8005
20
-4.22046
11
5.79851
21
-4.22081
0
LINE
8
BLACK
6
CONTINUOUS
10
5.79851
20
-4.22081
11
5.79676
21
-4.2198
0
LINE
8
BLACK
6
CONTINUOUS
10
5.79676
20
-4.2198
11
5.79607
21
-4.21791
0
LINE
8
BLACK
6
CONTINUOUS
10
5.79607
20
-4.21791
11
5.79607
21
-4.18149
0
LINE
8
BLACK
6
CONTINUOUS
10
5.79607
20
-4.18149
11
5.78778
21
-4.18149
0
LINE
8
BLACK
6
CONTINUOUS
10
5.78778
20
-4.18149
11
5.78677
21
-4.18131
0
LINE
8
BLACK
6
CONTINUOUS
10
5.78677
20
-4.18131
11
5.78522
21
-4.18001
0
LINE
8
BLACK
6
CONTINUOUS
10
5.78522
20
-4.18001
11
5.78487
21
-4.17802
0
LINE
8
BLACK
6
CONTINUOUS
10
5.78487
20
-4.17802
11
5.78588
21
-4.17627
0
LINE
8
BLACK
6
CONTINUOUS
10
5.78588
20
-4.17627
11
5.78778
21
-4.17558
0
LINE
8
BLACK
6
CONTINUOUS
10
5.78778
20
-4.17558
11
5.81027
21
-4.17558
0
LINE
8
BLACK
6
CONTINUOUS
10
5.81027
20
-4.17558
11
5.81128
21
-4.17576
0
LINE
8
BLACK
6
CONTINUOUS
10
4.91
20
-4.04
11
4.85
21
-4.04
0
LINE
8
BLACK
6
CONTINUOUS
10
4.85
20
-4.04
11
4.85
21
-3.98
0
LINE
8
BLACK
6
CONTINUOUS
10
4.85
20
-3.98
11
4.91
21
-3.98
0
LINE
8
BLACK
6
CONTINUOUS
10
4.91
20
-3.98
11
4.91
21
-4.04
0
LINE
8
BLACK
6
CONTINUOUS
10
5.01
20
-4.04
11
4.95
21
-4.04
0
LINE
8
BLACK
6
CONTINUOUS
10
4.95
20
-4.04
11
4.95
21
-3.98
0
LINE
8
BLACK
6
CONTINUOUS
10
4.95
20
-3.98
11
5.01
21
-3.98
0
LINE
8
BLACK
6
CONTINUOUS
10
5.01
20
-3.98
11
5.01
21
-4.04
0
LINE
8
BLACK
6
CONTINUOUS
10
5.3
20
-4.04
11
5.24
21
-4.04
0
LINE
8
BLACK
6
CONTINUOUS
10
5.24
20
-4.04
11
5.24
21
-3.98
0
LINE
8
BLACK
6
CONTINUOUS
10
5.24
20
-3.98
11
5.3
21
-3.98
0
LINE
8
BLACK
6
CONTINUOUS
10
5.3
20
-3.98
11
5.3
21
-4.04
0
LINE
8
BLACK
6
CONTINUOUS
10
5.5
20
-4.04
11
5.44
21
-4.04
0
LINE
8
BLACK
6
CONTINUOUS
10
5.44
20
-4.04
11
5.44
21
-3.98
0
LINE
8
BLACK
6
CONTINUOUS
10
5.44
20
-3.98
11
5.5
21
-3.98
0
LINE
8
BLACK
6
CONTINUOUS
10
5.5
20
-3.98
11
5.5
21
-4.04
0
LINE
8
BLACK
6
CONTINUOUS
10
4.91
20
-3.94
11
4.85
21
-3.94
0
LINE
8
BLACK
6
CONTINUOUS
10
4.85
20
-3.94
11
4.85
21
-3.88
0
LINE
8
BLACK
6
CONTINUOUS
10
4.85
20
-3.88
11
4.91
21
-3.88
0
LINE
8
BLACK
6
CONTINUOUS
10
4.91
20
-3.88
11
4.91
21
-3.94
0
LINE
8
BLACK
6
CONTINUOUS
10
5.01
20
-3.94
11
4.95
21
-3.94
0
LINE
8
BLACK
6
CONTINUOUS
10
4.95
20
-3.94
11
4.95
21
-3.88
0
LINE
8
BLACK
6
CONTINUOUS
10
4.95
20
-3.88
11
5.01
21
-3.88
0
LINE
8
BLACK
6
CONTINUOUS
10
5.01
20
-3.88
11
5.01
21
-3.94
0
LINE
8
BLACK
6
CONTINUOUS
10
5.3
20
-3.94
11
5.24
21
-3.94
0
LINE
8
BLACK
6
CONTINUOUS
10
5.24
20
-3.94
11
5.24
21
-3.88
0
LINE
8
BLACK
6
CONTINUOUS
10
5.24
20
-3.88
11
5.3
21
-3.88
0
LINE
8
BLACK
6
CONTINUOUS
10
5.3
20
-3.88
11
5.3
21
-3.94
0
LINE
8
BLACK
6
CONTINUOUS
10
5.4
20
-3.94
11
5.34
21
-3.94
0
LINE
8
BLACK
6
CONTINUOUS
10
5.34
20
-3.94
11
5.34
21
-3.88
0
LINE
8
BLACK
6
CONTINUOUS
10
5.34
20
-3.88
11
5.4
21
-3.88
0
LINE
8
BLACK
6
CONTINUOUS
10
5.4
20
-3.88
11
5.4
21
-3.94
0
LINE
8
BLACK
6
CONTINUOUS
10
5.5
20
-3.94
11
5.44
21
-3.94
0
LINE
8
BLACK
6
CONTINUOUS
10
5.44
20
-3.94
11
5.44
21
-3.88
0
LINE
8
BLACK
6
CONTINUOUS
10
5.44
20
-3.88
11
5.5
21
-3.88
0
LINE
8
BLACK
6
CONTINUOUS
10
5.5
20
-3.88
11
5.5
21
-3.94
0
LINE
8
BLACK
6
CONTINUOUS
10
5.98594
20
-3.8118
11
5.98774
21
-3.81388
0
LINE
8
BLACK
6
CONTINUOUS
10
5.98774
20
-3.81388
11
5.98819
21
-3.81592
0
LINE
8
BLACK
6
CONTINUOUS
10
5.98819
20
-3.81592
11
5.98819
21
-4.58173
0
LINE
8
BLACK
6
CONTINUOUS
10
5.98819
20
-4.58173
11
5.98741
21
-4.58437
0
LINE
8
BLACK
6
CONTINUOUS
10
5.98741
20
-4.58437
11
5.98534
21
-4.58617
0
LINE
8
BLACK
6
CONTINUOUS
10
5.98534
20
-4.58617
11
5.98331
21
-4.58661
0
LINE
8
BLACK
6
CONTINUOUS
10
5.98331
20
-4.58661
11
4.41827
21
-4.58661
0
LINE
8
BLACK
6
CONTINUOUS
10
4.41827
20
-4.58661
11
4.41563
21
-4.58584
0
LINE
8
BLACK
6
CONTINUOUS
10
4.41563
20
-4.58584
11
4.41383
21
-4.58376
0
LINE
8
BLACK
6
CONTINUOUS
10
4.41383
20
-4.58376
11
4.41339
21
-4.58173
0
LINE
8
BLACK
6
CONTINUOUS
10
4.41339
20
-4.58173
11
4.41339
21
-4.37402
0
LINE
8
BLACK
6
CONTINUOUS
10
4.41339
20
-4.37402
11
4.41339
21
-4.16358
0
LINE
8
BLACK
6
CONTINUOUS
10
4.41339
20
-4.16358
11
4.41339
21
-4.04177
0
LINE
8
BLACK
6
CONTINUOUS
10
4.41339
20
-4.04177
11
4.41339
21
-3.94177
0
LINE
8
BLACK
6
CONTINUOUS
10
4.41339
20
-3.94177
11
4.41339
21
-3.81983
0
LINE
8
BLACK
6
CONTINUOUS
10
4.41339
20
-3.81983
11
4.41416
21
-3.81719
0
LINE
8
BLACK
6
CONTINUOUS
10
4.41416
20
-3.81719
11
4.41624
21
-3.81539
0
LINE
8
BLACK
6
CONTINUOUS
10
4.41624
20
-3.81539
11
4.41826
21
-3.81495
0
LINE
8
BLACK
6
CONTINUOUS
10
4.41826
20
-3.81495
11
5.98329
21
-3.81104
0
LINE
8
BLACK
6
CONTINUOUS
10
5.98329
20
-3.81104
11
5.98594
21
-3.8118
0
LINE
8
BLACK
6
CONTINUOUS
10
5.40181
20
-4.53176
11
5.40181
21
-4.53176
0
LINE
8
BLACK
6
CONTINUOUS
10
5.40181
20
-4.53176
11
5.40181
21
-4.50984
0
LINE
8
BLACK
6
CONTINUOUS
10
5.40181
20
-4.50984
11
5.39
21
-4.50984
0
LINE
8
BLACK
6
CONTINUOUS
10
5.39
20
-4.50984
11
5.39
21
-4.53
0
LINE
8
BLACK
6
CONTINUOUS
10
5.39
20
-4.53
11
5.36984
21
-4.53
0
LINE
8
BLACK
6
CONTINUOUS
10
5.36984
20
-4.53
11
5.36984
21
-4.54181
0
LINE
8
BLACK
6
CONTINUOUS
10
5.36984
20
-4.54181
11
5.39176
21
-4.54181
0
LINE
8
BLACK
6
CONTINUOUS
10
5.39176
20
-4.54181
11
5.39176
21
-4.54181
0
LINE
8
BLACK
6
CONTINUOUS
10
5.39176
20
-4.54181
11
5.39275
21
-4.5417
0
LINE
8
BLACK
6
CONTINUOUS
10
5.39275
20
-4.5417
11
5.39275
21
-4.5417
0
LINE
8
BLACK
6
CONTINUOUS
10
5.39275
20
-4.5417
11
5.39679
21
-4.53991
0
LINE
8
BLACK
6
CONTINUOUS
10
5.39679
20
-4.53991
11
5.39679
21
-4.53991
0
LINE
8
BLACK
6
CONTINUOUS
10
5.39679
20
-4.53991
11
5.39991
21
-4.53679
0
LINE
8
BLACK
6
CONTINUOUS
10
5.39991
20
-4.53679
11
5.39991
21
-4.53679
0
LINE
8
BLACK
6
CONTINUOUS
10
5.39991
20
-4.53679
11
5.4017
21
-4.53275
0
LINE
8
BLACK
6
CONTINUOUS
10
5.4017
20
-4.53275
11
5.4017
21
-4.53275
0
LINE
8
BLACK
6
CONTINUOUS
10
5.4017
20
-4.53275
11
5.40181
21
-4.53177
0
LINE
8
BLACK
6
CONTINUOUS
10
5.40181
20
-4.53177
11
5.40181
21
-4.53176
0
LINE
8
BLACK
6
CONTINUOUS
10
5.31819
20
-4.50984
11
5.31819
21
-4.53176
0
LINE
8
BLACK
6
CONTINUOUS
10
5.31819
20
-4.53176
11
5.31819
21
-4.53176
0
LINE
8
BLACK
6
CONTINUOUS
10
5.31819
20
-4.53176
11
5.3183
21
-4.53275
0
LINE
8
BLACK
6
CONTINUOUS
10
5.3183
20
-4.53275
11
5.3183
21
-4.53275
0
LINE
8
BLACK
6
CONTINUOUS
10
5.3183
20
-4.53275
11
5.32009
21
-4.53679
0
LINE
8
BLACK
6
CONTINUOUS
10
5.32009
20
-4.53679
11
5.32009
21
-4.53679
0
LINE
8
BLACK
6
CONTINUOUS
10
5.32009
20
-4.53679
11
5.32321
21
-4.53991
0
LINE
8
BLACK
6
CONTINUOUS
10
5.32321
20
-4.53991
11
5.32321
21
-4.53991
0
LINE
8
BLACK
6
CONTINUOUS
10
5.32321
20
-4.53991
11
5.32725
21
-4.5417
0
LINE
8
BLACK
6
CONTINUOUS
10
5.32725
20
-4.5417
11
5.32824
21
-4.54181
0
LINE
8
BLACK
6
CONTINUOUS
10
5.32824
20
-4.54181
11
5.35016
21
-4.54181
0
LINE
8
BLACK
6
CONTINUOUS
10
5.35016
20
-4.54181
11
5.35016
21
-4.54181
0
LINE
8
BLACK
6
CONTINUOUS
10
5.35016
20
-4.54181
11
5.35016
21
-4.53
0
LINE
8
BLACK
6
CONTINUOUS
10
5.35016
20
-4.53
11
5.33
21
-4.53
0
LINE
8
BLACK
6
CONTINUOUS
10
5.33
20
-4.53
11
5.33
21
-4.50984
0
LINE
8
BLACK
6
CONTINUOUS
10
5.33
20
-4.50984
11
5.31819
21
-4.50984
0
LINE
8
BLACK
6
CONTINUOUS
10
5.51819
20
-4.50984
11
5.51819
21
-4.53176
0
LINE
8
BLACK
6
CONTINUOUS
10
5.51819
20
-4.53176
11
5.51819
21
-4.53176
0
LINE
8
BLACK
6
CONTINUOUS
10
5.51819
20
-4.53176
11
5.5183
21
-4.53275
0
LINE
8
BLACK
6
CONTINUOUS
10
5.5183
20
-4.53275
11
5.5183
21
-4.53275
0
LINE
8
BLACK
6
CONTINUOUS
10
5.5183
20
-4.53275
11
5.52009
21
-4.53679
0
LINE
8
BLACK
6
CONTINUOUS
10
5.52009
20
-4.53679
11
5.52009
21
-4.53679
0
LINE
8
BLACK
6
CONTINUOUS
10
5.52009
20
-4.53679
11
5.52321
21
-4.53991
0
LINE
8
BLACK
6
CONTINUOUS
10
5.52321
20
-4.53991
11
5.52321
21
-4.53991
0
LINE
8
BLACK
6
CONTINUOUS
10
5.52321
20
-4.53991
11
5.52725
21
-4.5417
0
LINE
8
BLACK
6
CONTINUOUS
10
5.52725
20
-4.5417
11
5.52824
21
-4.54181
0
LINE
8
BLACK
6
CONTINUOUS
10
5.52824
20
-4.54181
11
5.55016
21
-4.54181
0
LINE
8
BLACK
6
CONTINUOUS
10
5.55016
20
-4.54181
11
5.55016
21
-4.54181
0
LINE
8
BLACK
6
CONTINUOUS
10
5.55016
20
-4.54181
11
5.55016
21
-4.53
0
LINE
8
BLACK
6
CONTINUOUS
10
5.55016
20
-4.53
11
5.53
21
-4.53
0
LINE
8
BLACK
6
CONTINUOUS
10
5.53
20
-4.53
11
5.53
21
-4.50984
0
LINE
8
BLACK
6
CONTINUOUS
10
5.53
20
-4.50984
11
5.51819
21
-4.50984
0
LINE
8
BLACK
6
CONTINUOUS
10
5.59
20
-4.53
11
5.56984
21
-4.53
0
LINE
8
BLACK
6
CONTINUOUS
10
5.56984
20
-4.53
11
5.56984
21
-4.54181
0
LINE
8
BLACK
6
CONTINUOUS
10
5.56984
20
-4.54181
11
5.59176
21
-4.54181
0
LINE
8
BLACK
6
CONTINUOUS
10
5.59176
20
-4.54181
11
5.59176
21
-4.54181
0
LINE
8
BLACK
6
CONTINUOUS
10
5.59176
20
-4.54181
11
5.59275
21
-4.5417
0
LINE
8
BLACK
6
CONTINUOUS
10
5.59275
20
-4.5417
11
5.59275
21
-4.5417
0
LINE
8
BLACK
6
CONTINUOUS
10
5.59275
20
-4.5417
11
5.59679
21
-4.53991
0
LINE
8
BLACK
6
CONTINUOUS
10
5.59679
20
-4.53991
11
5.59679
21
-4.53991
0
LINE
8
BLACK
6
CONTINUOUS
10
5.59679
20
-4.53991
11
5.59991
21
-4.53679
0
LINE
8
BLACK
6
CONTINUOUS
10
5.59991
20
-4.53679
11
5.59991
21
-4.53679
0
LINE
8
BLACK
6
CONTINUOUS
10
5.59991
20
-4.53679
11
5.6017
21
-4.53275
0
LINE
8
BLACK
6
CONTINUOUS
10
5.6017
20
-4.53275
11
5.6017
21
-4.53275
0
LINE
8
BLACK
6
CONTINUOUS
10
5.6017
20
-4.53275
11
5.60181
21
-4.53176
0
LINE
8
BLACK
6
CONTINUOUS
10
5.60181
20
-4.53176
11
5.60181
21
-4.53176
0
LINE
8
BLACK
6
CONTINUOUS
10
5.60181
20
-4.53176
11
5.60181
21
-4.50984
0
LINE
8
BLACK
6
CONTINUOUS
10
5.60181
20
-4.50984
11
5.59
21
-4.50984
0
LINE
8
BLACK
6
CONTINUOUS
10
5.59
20
-4.50984
11
5.59
21
-4.53
0
LINE
8
BLACK
6
CONTINUOUS
10
5.41817
20
-4.53177
11
5.41828
21
-4.53276
0
LINE
8
BLACK
6
CONTINUOUS
10
5.41828
20
-4.53276
11
5.41828
21
-4.53276
0
LINE
8
BLACK
6
CONTINUOUS
10
5.41828
20
-4.53276
11
5.42007
21
-4.5368
0
LINE
8
BLACK
6
CONTINUOUS
10
5.42007
20
-4.5368
11
5.42007
21
-4.5368
0
LINE
8
BLACK
6
CONTINUOUS
10
5.42007
20
-4.5368
11
5.4232
21
-4.53993
0
LINE
8
BLACK
6
CONTINUOUS
10
5.4232
20
-4.53993
11
5.42724
21
-4.54172
0
LINE
8
BLACK
6
CONTINUOUS
10
5.42724
20
-4.54172
11
5.42823
21
-4.54183
0
LINE
8
BLACK
6
CONTINUOUS
10
5.42823
20
-4.54183
11
5.49177
21
-4.54183
0
LINE
8
BLACK
6
CONTINUOUS
10
5.49177
20
-4.54183
11
5.49177
21
-4.54183
0
LINE
8
BLACK
6
CONTINUOUS
10
5.49177
20
-4.54183
11
5.49177
21
-4.54183
0
LINE
8
BLACK
6
CONTINUOUS
10
5.49177
20
-4.54183
11
5.49276
21
-4.54172
0
LINE
8
BLACK
6
CONTINUOUS
10
5.49276
20
-4.54172
11
5.49276
21
-4.54172
0
LINE
8
BLACK
6
CONTINUOUS
10
5.49276
20
-4.54172
11
5.49276
21
-4.54172
0
LINE
8
BLACK
6
CONTINUOUS
10
5.49276
20
-4.54172
11
5.4968
21
-4.53993
0
LINE
8
BLACK
6
CONTINUOUS
10
5.4968
20
-4.53993
11
5.49993
21
-4.5368
0
LINE
8
BLACK
6
CONTINUOUS
10
5.49993
20
-4.5368
11
5.50172
21
-4.53276
0
LINE
8
BLACK
6
CONTINUOUS
10
5.50172
20
-4.53276
11
5.50183
21
-4.53177
0
LINE
8
BLACK
6
CONTINUOUS
10
5.50183
20
-4.53177
11
5.50183
21
-4.49016
0
LINE
8
BLACK
6
CONTINUOUS
10
5.50183
20
-4.49016
11
5.50183
21
-4.46823
0
LINE
8
BLACK
6
CONTINUOUS
10
5.50183
20
-4.46823
11
5.50173
21
-4.46736
0
LINE
8
BLACK
6
CONTINUOUS
10
5.50173
20
-4.46736
11
5.50172
21
-4.46724
0
LINE
8
BLACK
6
CONTINUOUS
10
5.50172
20
-4.46724
11
5.50172
21
-4.46724
0
LINE
8
BLACK
6
CONTINUOUS
10
5.50172
20
-4.46724
11
5.50172
21
-4.46724
0
LINE
8
BLACK
6
CONTINUOUS
10
5.50172
20
-4.46724
11
5.49993
21
-4.4632
0
LINE
8
BLACK
6
CONTINUOUS
10
5.49993
20
-4.4632
11
5.4968
21
-4.46007
0
LINE
8
BLACK
6
CONTINUOUS
10
5.4968
20
-4.46007
11
5.49556
21
-4.45952
0
LINE
8
BLACK
6
CONTINUOUS
10
5.49556
20
-4.45952
11
5.49276
21
-4.45828
0
LINE
8
BLACK
6
CONTINUOUS
10
5.49276
20
-4.45828
11
5.49177
21
-4.45817
0
LINE
8
BLACK
6
CONTINUOUS
10
5.49177
20
-4.45817
11
5.42823
21
-4.45817
0
LINE
8
BLACK
6
CONTINUOUS
10
5.42823
20
-4.45817
11
5.42823
21
-4.45817
0
LINE
8
BLACK
6
CONTINUOUS
10
5.42823
20
-4.45817
11
5.42724
21
-4.45828
0
LINE
8
BLACK
6
CONTINUOUS
10
5.42724
20
-4.45828
11
5.42724
21
-4.45828
0
LINE
8
BLACK
6
CONTINUOUS
10
5.42724
20
-4.45828
11
5.4232
21
-4.46007
0
LINE
8
BLACK
6
CONTINUOUS
10
5.4232
20
-4.46007
11
5.42007
21
-4.4632
0
LINE
8
BLACK
6
CONTINUOUS
10
5.42007
20
-4.4632
11
5.41828
21
-4.46724
0
LINE
8
BLACK
6
CONTINUOUS
10
5.41828
20
-4.46724
11
5.41828
21
-4.46724
0
LINE
8
BLACK
6
CONTINUOUS
10
5.41828
20
-4.46724
11
5.41817
21
-4.46823
0
LINE
8
BLACK
6
CONTINUOUS
10
5.41817
20
-4.46823
11
5.41817
21
-4.53177
0
LINE
8
BLACK
6
CONTINUOUS
10
5.41817
20
-4.53177
11
5.41817
21
-4.53177
0
LINE
8
BLACK
6
CONTINUOUS
10
5.03233
20
-4.34804
11
5.0264
21
-4.35115
0
LINE
8
BLACK
6
CONTINUOUS
10
5.0264
20
-4.35115
11
5.02139
21
-4.35559
0
LINE
8
BLACK
6
CONTINUOUS
10
5.02139
20
-4.35559
11
5.01758
21
-4.36111
0
LINE
8
BLACK
6
CONTINUOUS
10
5.01758
20
-4.36111
11
5.01521
21
-4.36737
0
LINE
8
BLACK
6
CONTINUOUS
10
5.01521
20
-4.36737
11
5.01521
21
-4.36737
0
LINE
8
BLACK
6
CONTINUOUS
10
5.01521
20
-4.36737
11
5.0144
21
-4.37402
0
LINE
8
BLACK
6
CONTINUOUS
10
5.0144
20
-4.37402
11
5.01521
21
-4.38066
0
LINE
8
BLACK
6
CONTINUOUS
10
5.01521
20
-4.38066
11
5.01521
21
-4.38066
0
LINE
8
BLACK
6
CONTINUOUS
10
5.01521
20
-4.38066
11
5.01758
21
-4.38693
0
LINE
8
BLACK
6
CONTINUOUS
10
5.01758
20
-4.38693
11
5.01899
21
-4.38897
0
LINE
8
BLACK
6
CONTINUOUS
10
5.01899
20
-4.38897
11
5.02139
21
-4.39244
0
LINE
8
BLACK
6
CONTINUOUS
10
5.02139
20
-4.39244
11
5.02548
21
-4.39606
0
LINE
8
BLACK
6
CONTINUOUS
10
5.02548
20
-4.39606
11
5.0264
21
-4.39688
0
LINE
8
BLACK
6
CONTINUOUS
10
5.0264
20
-4.39688
11
5.03233
21
-4.39999
0
LINE
8
BLACK
6
CONTINUOUS
10
5.03233
20
-4.39999
11
5.03233
21
-4.39999
0
LINE
8
BLACK
6
CONTINUOUS
10
5.03233
20
-4.39999
11
5.03883
21
-4.40159
0
LINE
8
BLACK
6
CONTINUOUS
10
5.03883
20
-4.40159
11
5.04553
21
-4.40159
0
LINE
8
BLACK
6
CONTINUOUS
10
5.04553
20
-4.40159
11
5.05203
21
-4.39999
0
LINE
8
BLACK
6
CONTINUOUS
10
5.05203
20
-4.39999
11
5.05655
21
-4.39762
0
LINE
8
BLACK
6
CONTINUOUS
10
5.05655
20
-4.39762
11
5.05796
21
-4.39688
0
LINE
8
BLACK
6
CONTINUOUS
10
5.05796
20
-4.39688
11
5.05796
21
-4.39688
0
LINE
8
BLACK
6
CONTINUOUS
10
5.05796
20
-4.39688
11
5.05796
21
-4.39688
0
LINE
8
BLACK
6
CONTINUOUS
10
5.05796
20
-4.39688
11
5.05837
21
-4.39652
0
LINE
8
BLACK
6
CONTINUOUS
10
5.05837
20
-4.39652
11
5.06086
21
-4.39535
0
LINE
8
BLACK
6
CONTINUOUS
10
5.06086
20
-4.39535
11
5.06358
21
-4.39571
0
LINE
8
BLACK
6
CONTINUOUS
10
5.06358
20
-4.39571
11
5.06506
21
-4.39672
0
LINE
8
BLACK
6
CONTINUOUS
10
5.06506
20
-4.39672
11
5.09678
21
-4.42845
0
LINE
8
BLACK
6
CONTINUOUS
10
5.09678
20
-4.42845
11
5.0981
21
-4.43086
0
LINE
8
BLACK
6
CONTINUOUS
10
5.0981
20
-4.43086
11
5.0979
21
-4.4336
0
LINE
8
BLACK
6
CONTINUOUS
10
5.0979
20
-4.4336
11
5.09678
21
-4.43535
0
LINE
8
BLACK
6
CONTINUOUS
10
5.09678
20
-4.43535
11
5.09499
21
-4.43714
0
LINE
8
BLACK
6
CONTINUOUS
10
5.09499
20
-4.43714
11
5.09321
21
-4.44118
0
LINE
8
BLACK
6
CONTINUOUS
10
5.09321
20
-4.44118
11
5.09321
21
-4.44118
0
LINE
8
BLACK
6
CONTINUOUS
10
5.09321
20
-4.44118
11
5.09309
21
-4.44217
0
LINE
8
BLACK
6
CONTINUOUS
10
5.09309
20
-4.44217
11
5.09309
21
-4.44394
0
LINE
8
BLACK
6
CONTINUOUS
10
5.09309
20
-4.44394
11
5.09508
21
-4.44394
0
LINE
8
BLACK
6
CONTINUOUS
10
5.09508
20
-4.44394
11
5.09508
21
-4.50299
0
LINE
8
BLACK
6
CONTINUOUS
10
5.09508
20
-4.50299
11
5.09309
21
-4.50299
0
LINE
8
BLACK
6
CONTINUOUS
10
5.09309
20
-4.50299
11
5.09309
21
-4.50476
0
LINE
8
BLACK
6
CONTINUOUS
10
5.09309
20
-4.50476
11
5.09309
21
-4.50476
0
LINE
8
BLACK
6
CONTINUOUS
10
5.09309
20
-4.50476
11
5.09321
21
-4.50575
0
LINE
8
BLACK
6
CONTINUOUS
10
5.09321
20
-4.50575
11
5.09321
21
-4.50575
0
LINE
8
BLACK
6
CONTINUOUS
10
5.09321
20
-4.50575
11
5.09499
21
-4.50979
0
LINE
8
BLACK
6
CONTINUOUS
10
5.09499
20
-4.50979
11
5.09499
21
-4.50979
0
LINE
8
BLACK
6
CONTINUOUS
10
5.09499
20
-4.50979
11
5.09812
21
-4.51292
0
LINE
8
BLACK
6
CONTINUOUS
10
5.09812
20
-4.51292
11
5.10217
21
-4.51471
0
LINE
8
BLACK
6
CONTINUOUS
10
5.10217
20
-4.51471
11
5.10315
21
-4.51482
0
LINE
8
BLACK
6
CONTINUOUS
10
5.10315
20
-4.51482
11
5.14606
21
-4.51482
0
LINE
8
BLACK
6
CONTINUOUS
10
5.14606
20
-4.51482
11
5.14606
21
-4.51482
0
LINE
8
BLACK
6
CONTINUOUS
10
5.14606
20
-4.51482
11
5.14606
21
-4.51482
0
LINE
8
BLACK
6
CONTINUOUS
10
5.14606
20
-4.51482
11
5.14705
21
-4.51471
0
LINE
8
BLACK
6
CONTINUOUS
10
5.14705
20
-4.51471
11
5.14705
21
-4.51471
0
LINE
8
BLACK
6
CONTINUOUS
10
5.14705
20
-4.51471
11
5.14705
21
-4.51471
0
LINE
8
BLACK
6
CONTINUOUS
10
5.14705
20
-4.51471
11
5.14726
21
-4.51461
0
LINE
8
BLACK
6
CONTINUOUS
10
5.14726
20
-4.51461
11
5.14999
21
-4.51426
0
LINE
8
BLACK
6
CONTINUOUS
10
5.14999
20
-4.51426
11
5.15013
21
-4.51428
0
LINE
8
BLACK
6
CONTINUOUS
10
5.15013
20
-4.51428
11
5.15413
21
-4.51503
0
LINE
8
BLACK
6
CONTINUOUS
10
5.15413
20
-4.51503
11
5.15413
21
-4.51503
0
LINE
8
BLACK
6
CONTINUOUS
10
5.15413
20
-4.51503
11
5.17862
21
-4.51503
0
LINE
8
BLACK
6
CONTINUOUS
10
5.17862
20
-4.51503
11
5.17862
21
-4.51503
0
LINE
8
BLACK
6
CONTINUOUS
10
5.17862
20
-4.51503
11
5.18201
21
-4.51454
0
LINE
8
BLACK
6
CONTINUOUS
10
5.18201
20
-4.51454
11
5.18744
21
-4.51295
0
LINE
8
BLACK
6
CONTINUOUS
10
5.18744
20
-4.51295
11
5.19056
21
-4.51152
0
LINE
8
BLACK
6
CONTINUOUS
10
5.19056
20
-4.51152
11
5.19532
21
-4.50846
0
LINE
8
BLACK
6
CONTINUOUS
10
5.19532
20
-4.50846
11
5.19791
21
-4.50622
0
LINE
8
BLACK
6
CONTINUOUS
10
5.19791
20
-4.50622
11
5.1996
21
-4.50427
0
LINE
8
BLACK
6
CONTINUOUS
10
5.1996
20
-4.50427
11
5.20161
21
-4.50194
0
LINE
8
BLACK
6
CONTINUOUS
10
5.20161
20
-4.50194
11
5.20161
21
-4.50194
0
LINE
8
BLACK
6
CONTINUOUS
10
5.20161
20
-4.50194
11
5.20161
21
-4.50194
0
LINE
8
BLACK
6
CONTINUOUS
10
5.20161
20
-4.50194
11
5.20347
21
-4.49906
0
LINE
8
BLACK
6
CONTINUOUS
10
5.20347
20
-4.49906
11
5.20347
21
-4.49906
0
LINE
8
BLACK
6
CONTINUOUS
10
5.20347
20
-4.49906
11
5.20347
21
-4.49906
0
LINE
8
BLACK
6
CONTINUOUS
10
5.20347
20
-4.49906
11
5.20582
21
-4.49391
0
LINE
8
BLACK
6
CONTINUOUS
10
5.20582
20
-4.49391
11
5.20582
21
-4.49391
0
LINE
8
BLACK
6
CONTINUOUS
10
5.20582
20
-4.49391
11
5.20582
21
-4.49391
0
LINE
8
BLACK
6
CONTINUOUS
10
5.20582
20
-4.49391
11
5.20678
21
-4.49062
0
LINE
8
BLACK
6
CONTINUOUS
10
5.20678
20
-4.49062
11
5.20685
21
-4.49016
0
LINE
8
BLACK
6
CONTINUOUS
10
5.20685
20
-4.49016
11
5.20759
21
-4.48502
0
LINE
8
BLACK
6
CONTINUOUS
10
5.20759
20
-4.48502
11
5.20759
21
-4.48159
0
LINE
8
BLACK
6
CONTINUOUS
10
5.20759
20
-4.48159
11
5.20756
21
-4.48138
0
LINE
8
BLACK
6
CONTINUOUS
10
5.20756
20
-4.48138
11
5.20751
21
-4.48069
0
LINE
8
BLACK
6
CONTINUOUS
10
5.20751
20
-4.48069
11
5.20751
21
-4.47356
0
LINE
8
BLACK
6
CONTINUOUS
10
5.20751
20
-4.47356
11
5.20808
21
-4.47139
0
LINE
8
BLACK
6
CONTINUOUS
10
5.20808
20
-4.47139
11
5.20806
21
-4.47139
0
LINE
8
BLACK
6
CONTINUOUS
10
5.20806
20
-4.47139
11
5.20811
21
-4.47128
0
LINE
8
BLACK
6
CONTINUOUS
10
5.20811
20
-4.47128
11
5.20813
21
-4.47116
0
LINE
8
BLACK
6
CONTINUOUS
10
5.20813
20
-4.47116
11
5.20818
21
-4.47108
0
LINE
8
BLACK
6
CONTINUOUS
10
5.20818
20
-4.47108
11
5.20818
21
-4.47108
0
LINE
8
BLACK
6
CONTINUOUS
10
5.20818
20
-4.47108
11
5.20818
21
-4.47108
0
LINE
8
BLACK
6
CONTINUOUS
10
5.20818
20
-4.47108
11
5.20845
21
-4.47041
0
LINE
8
BLACK
6
CONTINUOUS
10
5.20845
20
-4.47041
11
5.20882
21
-4.46967
0
LINE
8
BLACK
6
CONTINUOUS
10
5.20882
20
-4.46967
11
5.20889
21
-4.46954
0
LINE
8
BLACK
6
CONTINUOUS
10
5.20889
20
-4.46954
11
5.20919
21
-4.46905
0
LINE
8
BLACK
6
CONTINUOUS
10
5.20919
20
-4.46905
11
5.20966
21
-4.46736
0
LINE
8
BLACK
6
CONTINUOUS
10
5.20966
20
-4.46736
11
5.20974
21
-4.46713
0
LINE
8
BLACK
6
CONTINUOUS
10
5.20974
20
-4.46713
11
5.21039
21
-4.46549
0
LINE
8
BLACK
6
CONTINUOUS
10
5.21039
20
-4.46549
11
5.21046
21
-4.46478
0
LINE
8
BLACK
6
CONTINUOUS
10
5.21046
20
-4.46478
11
5.21061
21
-4.46396
0
LINE
8
BLACK
6
CONTINUOUS
10
5.21061
20
-4.46396
11
5.21081
21
-4.46328
0
LINE
8
BLACK
6
CONTINUOUS
10
5.21081
20
-4.46328
11
5.21081
21
-4.46152
0
LINE
8
BLACK
6
CONTINUOUS
10
5.21081
20
-4.46152
11
5.21082
21
-4.46127
0
LINE
8
BLACK
6
CONTINUOUS
10
5.21082
20
-4.46127
11
5.211
21
-4.45952
0
LINE
8
BLACK
6
CONTINUOUS
10
5.211
20
-4.45952
11
5.21088
21
-4.45882
0
LINE
8
BLACK
6
CONTINUOUS
10
5.21088
20
-4.45882
11
5.21081
21
-4.45799
0
LINE
8
BLACK
6
CONTINUOUS
10
5.21081
20
-4.45799
11
5.21081
21
-4.44364
0
LINE
8
BLACK
6
CONTINUOUS
10
5.21081
20
-4.44364
11
5.21158
21
-4.441
0
LINE
8
BLACK
6
CONTINUOUS
10
5.21158
20
-4.441
11
5.21167
21
-4.44087
0
LINE
8
BLACK
6
CONTINUOUS
10
5.21167
20
-4.44087
11
5.21218
21
-4.44013
0
LINE
8
BLACK
6
CONTINUOUS
10
5.21218
20
-4.44013
11
5.21358
21
-4.43811
0
LINE
8
BLACK
6
CONTINUOUS
10
5.21358
20
-4.43811
11
5.21595
21
-4.43185
0
LINE
8
BLACK
6
CONTINUOUS
10
5.21595
20
-4.43185
11
5.21676
21
-4.4252
0
LINE
8
BLACK
6
CONTINUOUS
10
5.21676
20
-4.4252
11
5.21595
21
-4.41855
0
LINE
8
BLACK
6
CONTINUOUS
10
5.21595
20
-4.41855
11
5.21555
21
-4.4175
0
LINE
8
BLACK
6
CONTINUOUS
10
5.21555
20
-4.4175
11
5.21401
21
-4.41343
0
LINE
8
BLACK
6
CONTINUOUS
10
5.21401
20
-4.41343
11
5.21358
21
-4.41229
0
LINE
8
BLACK
6
CONTINUOUS
10
5.21358
20
-4.41229
11
5.20977
21
-4.40677
0
LINE
8
BLACK
6
CONTINUOUS
10
5.20977
20
-4.40677
11
5.20476
21
-4.40233
0
LINE
8
BLACK
6
CONTINUOUS
10
5.20476
20
-4.40233
11
5.20476
21
-4.40233
0
LINE
8
BLACK
6
CONTINUOUS
10
5.20476
20
-4.40233
11
5.19883
21
-4.39922
0
LINE
8
BLACK
6
CONTINUOUS
10
5.19883
20
-4.39922
11
5.19233
21
-4.39762
0
LINE
8
BLACK
6
CONTINUOUS
10
5.19233
20
-4.39762
11
5.18563
21
-4.39762
0
LINE
8
BLACK
6
CONTINUOUS
10
5.18563
20
-4.39762
11
5.17912
21
-4.39922
0
LINE
8
BLACK
6
CONTINUOUS
10
5.17912
20
-4.39922
11
5.17319
21
-4.40233
0
LINE
8
BLACK
6
CONTINUOUS
10
5.17319
20
-4.40233
11
5.16818
21
-4.40677
0
LINE
8
BLACK
6
CONTINUOUS
10
5.16818
20
-4.40677
11
5.16438
21
-4.41229
0
LINE
8
BLACK
6
CONTINUOUS
10
5.16438
20
-4.41229
11
5.162
21
-4.41855
0
LINE
8
BLACK
6
CONTINUOUS
10
5.162
20
-4.41855
11
5.162
21
-4.41855
0
LINE
8
BLACK
6
CONTINUOUS
10
5.162
20
-4.41855
11
5.16141
21
-4.42343
0
LINE
8
BLACK
6
CONTINUOUS
10
5.16141
20
-4.42343
11
5.1612
21
-4.4252
0
LINE
8
BLACK
6
CONTINUOUS
10
5.1612
20
-4.4252
11
5.16134
21
-4.42643
0
LINE
8
BLACK
6
CONTINUOUS
10
5.16134
20
-4.42643
11
5.16089
21
-4.42914
0
LINE
8
BLACK
6
CONTINUOUS
10
5.16089
20
-4.42914
11
5.15905
21
-4.43118
0
LINE
8
BLACK
6
CONTINUOUS
10
5.15905
20
-4.43118
11
5.1565
21
-4.4319
0
LINE
8
BLACK
6
CONTINUOUS
10
5.1565
20
-4.4319
11
5.15413
21
-4.4319
0
LINE
8
BLACK
6
CONTINUOUS
10
5.15413
20
-4.4319
11
5.15302
21
-4.43195
0
LINE
8
BLACK
6
CONTINUOUS
10
5.15302
20
-4.43195
11
5.15302
21
-4.43195
0
LINE
8
BLACK
6
CONTINUOUS
10
5.15302
20
-4.43195
11
5.15071
21
-4.43261
0
LINE
8
BLACK
6
CONTINUOUS
10
5.15071
20
-4.43261
11
5.14796
21
-4.43259
0
LINE
8
BLACK
6
CONTINUOUS
10
5.14796
20
-4.43259
11
5.14741
21
-4.43238
0
LINE
8
BLACK
6
CONTINUOUS
10
5.14741
20
-4.43238
11
5.14685
21
-4.43213
0
LINE
8
BLACK
6
CONTINUOUS
10
5.14685
20
-4.43213
11
5.14475
21
-4.43036
0
LINE
8
BLACK
6
CONTINUOUS
10
5.14475
20
-4.43036
11
5.14394
21
-4.42773
0
LINE
8
BLACK
6
CONTINUOUS
10
5.14394
20
-4.42773
11
5.14394
21
-4.42767
0
LINE
8
BLACK
6
CONTINUOUS
10
5.14394
20
-4.42767
11
5.14394
21
-4.42755
0
LINE
8
BLACK
6
CONTINUOUS
10
5.14394
20
-4.42755
11
5.14394
21
-4.42755
0
LINE
8
BLACK
6
CONTINUOUS
10
5.14394
20
-4.42755
11
5.14385
21
-4.42695
0
LINE
8
BLACK
6
CONTINUOUS
10
5.14385
20
-4.42695
11
5.14383
21
-4.42678
0
LINE
8
BLACK
6
CONTINUOUS
10
5.14383
20
-4.42678
11
5.14369
21
-4.42479
0
LINE
8
BLACK
6
CONTINUOUS
10
5.14369
20
-4.42479
11
5.14363
21
-4.42462
0
LINE
8
BLACK
6
CONTINUOUS
10
5.14363
20
-4.42462
11
5.14337
21
-4.42361
0
LINE
8
BLACK
6
CONTINUOUS
10
5.14337
20
-4.42361
11
5.14334
21
-4.42343
0
LINE
8
BLACK
6
CONTINUOUS
10
5.14334
20
-4.42343
11
5.14334
21
-4.42343
0
LINE
8
BLACK
6
CONTINUOUS
10
5.14334
20
-4.42343
11
5.14264
21
-4.42189
0
LINE
8
BLACK
6
CONTINUOUS
10
5.14264
20
-4.42189
11
5.14251
21
-4.42161
0
LINE
8
BLACK
6
CONTINUOUS
10
5.14251
20
-4.42161
11
5.14245
21
-4.42145
0
LINE
8
BLACK
6
CONTINUOUS
10
5.14245
20
-4.42145
11
5.14175
21
-4.41958
0
LINE
8
BLACK
6
CONTINUOUS
10
5.14175
20
-4.41958
11
5.14175
21
-4.41958
0
LINE
8
BLACK
6
CONTINUOUS
10
5.14175
20
-4.41958
11
5.14164
21
-4.41944
0
LINE
8
BLACK
6
CONTINUOUS
10
5.14164
20
-4.41944
11
5.14111
21
-4.41854
0
LINE
8
BLACK
6
CONTINUOUS
10
5.14111
20
-4.41854
11
5.14104
21
-4.41838
0
LINE
8
BLACK
6
CONTINUOUS
10
5.14104
20
-4.41838
11
5.14104
21
-4.41838
0
LINE
8
BLACK
6
CONTINUOUS
10
5.14104
20
-4.41838
11
5.13972
21
-4.41687
0
LINE
8
BLACK
6
CONTINUOUS
10
5.13972
20
-4.41687
11
5.13962
21
-4.41673
0
LINE
8
BLACK
6
CONTINUOUS
10
5.13962
20
-4.41673
11
5.13925
21
-4.41625
0
LINE
8
BLACK
6
CONTINUOUS
10
5.13925
20
-4.41625
11
5.13882
21
-4.41582
0
LINE
8
BLACK
6
CONTINUOUS
10
5.13882
20
-4.41582
11
5.13871
21
-4.41569
0
LINE
8
BLACK
6
CONTINUOUS
10
5.13871
20
-4.41569
11
5.1374
21
-4.41418
0
LINE
8
BLACK
6
CONTINUOUS
10
5.1374
20
-4.41418
11
5.1374
21
-4.41418
0
LINE
8
BLACK
6
CONTINUOUS
10
5.1374
20
-4.41418
11
5.13725
21
-4.41408
0
LINE
8
BLACK
6
CONTINUOUS
10
5.13725
20
-4.41408
11
5.13643
21
-4.41343
0
LINE
8
BLACK
6
CONTINUOUS
10
5.13643
20
-4.41343
11
5.11316
21
-4.39016
0
LINE
8
BLACK
6
CONTINUOUS
10
5.11316
20
-4.39016
11
5.08519
21
-4.36219
0
LINE
8
BLACK
6
CONTINUOUS
10
5.08519
20
-4.36219
11
5.08454
21
-4.36137
0
LINE
8
BLACK
6
CONTINUOUS
10
5.08454
20
-4.36137
11
5.08444
21
-4.36123
0
LINE
8
BLACK
6
CONTINUOUS
10
5.08444
20
-4.36123
11
5.08444
21
-4.36123
0
LINE
8
BLACK
6
CONTINUOUS
10
5.08444
20
-4.36123
11
5.08293
21
-4.35992
0
LINE
8
BLACK
6
CONTINUOUS
10
5.08293
20
-4.35992
11
5.0828
21
-4.3598
0
LINE
8
BLACK
6
CONTINUOUS
10
5.0828
20
-4.3598
11
5.08238
21
-4.35937
0
LINE
8
BLACK
6
CONTINUOUS
10
5.08238
20
-4.35937
11
5.08238
21
-4.35937
0
LINE
8
BLACK
6
CONTINUOUS
10
5.08238
20
-4.35937
11
5.08189
21
-4.35901
0
LINE
8
BLACK
6
CONTINUOUS
10
5.08189
20
-4.35901
11
5.08176
21
-4.3589
0
LINE
8
BLACK
6
CONTINUOUS
10
5.08176
20
-4.3589
11
5.08024
21
-4.35759
0
LINE
8
BLACK
6
CONTINUOUS
10
5.08024
20
-4.35759
11
5.08008
21
-4.35751
0
LINE
8
BLACK
6
CONTINUOUS
10
5.08008
20
-4.35751
11
5.07919
21
-4.35698
0
LINE
8
BLACK
6
CONTINUOUS
10
5.07919
20
-4.35698
11
5.07904
21
-4.35688
0
LINE
8
BLACK
6
CONTINUOUS
10
5.07904
20
-4.35688
11
5.07717
21
-4.35618
0
LINE
8
BLACK
6
CONTINUOUS
10
5.07717
20
-4.35618
11
5.07701
21
-4.35611
0
LINE
8
BLACK
6
CONTINUOUS
10
5.07701
20
-4.35611
11
5.07683
21
-4.35603
0
LINE
8
BLACK
6
CONTINUOUS
10
5.07683
20
-4.35603
11
5.07519
21
-4.35528
0
LINE
8
BLACK
6
CONTINUOUS
10
5.07519
20
-4.35528
11
5.07519
21
-4.35528
0
LINE
8
BLACK
6
CONTINUOUS
10
5.07519
20
-4.35528
11
5.07519
21
-4.35528
0
LINE
8
BLACK
6
CONTINUOUS
10
5.07519
20
-4.35528
11
5.07501
21
-4.35525
0
LINE
8
BLACK
6
CONTINUOUS
10
5.07501
20
-4.35525
11
5.074
21
-4.35499
0
LINE
8
BLACK
6
CONTINUOUS
10
5.074
20
-4.35499
11
5.07384
21
-4.35493
0
LINE
8
BLACK
6
CONTINUOUS
10
5.07384
20
-4.35493
11
5.07184
21
-4.35479
0
LINE
8
BLACK
6
CONTINUOUS
10
5.07184
20
-4.35479
11
5.07167
21
-4.35477
0
LINE
8
BLACK
6
CONTINUOUS
10
5.07167
20
-4.35477
11
5.07107
21
-4.35469
0
LINE
8
BLACK
6
CONTINUOUS
10
5.07107
20
-4.35469
11
5.07107
21
-4.35469
0
LINE
8
BLACK
6
CONTINUOUS
10
5.07107
20
-4.35469
11
5.07107
21
-4.35469
0
LINE
8
BLACK
6
CONTINUOUS
10
5.07107
20
-4.35469
11
5.07046
21
-4.35469
0
LINE
8
BLACK
6
CONTINUOUS
10
5.07046
20
-4.35469
11
5.07029
21
-4.35468
0
LINE
8
BLACK
6
CONTINUOUS
10
5.07029
20
-4.35468
11
5.0702
21
-4.35467
0
LINE
8
BLACK
6
CONTINUOUS
10
5.0702
20
-4.35467
11
5.06829
21
-4.35454
0
LINE
8
BLACK
6
CONTINUOUS
10
5.06829
20
-4.35454
11
5.06829
21
-4.35454
0
LINE
8
BLACK
6
CONTINUOUS
10
5.06829
20
-4.35454
11
5.06812
21
-4.35457
0
LINE
8
BLACK
6
CONTINUOUS
10
5.06812
20
-4.35457
11
5.06708
21
-4.35469
0
LINE
8
BLACK
6
CONTINUOUS
10
5.06708
20
-4.35469
11
5.0638
21
-4.35469
0
LINE
8
BLACK
6
CONTINUOUS
10
5.0638
20
-4.35469
11
5.06116
21
-4.35391
0
LINE
8
BLACK
6
CONTINUOUS
10
5.06116
20
-4.35391
11
5.06056
21
-4.35346
0
LINE
8
BLACK
6
CONTINUOUS
10
5.06056
20
-4.35346
11
5.05796
21
-4.35115
0
LINE
8
BLACK
6
CONTINUOUS
10
5.05796
20
-4.35115
11
5.05796
21
-4.35115
0
LINE
8
BLACK
6
CONTINUOUS
10
5.05796
20
-4.35115
11
5.05796
21
-4.35115
0
LINE
8
BLACK
6
CONTINUOUS
10
5.05796
20
-4.35115
11
5.05203
21
-4.34804
0
LINE
8
BLACK
6
CONTINUOUS
10
5.05203
20
-4.34804
11
5.04553
21
-4.34644
0
LINE
8
BLACK
6
CONTINUOUS
10
5.04553
20
-4.34644
11
5.03883
21
-4.34644
0
LINE
8
BLACK
6
CONTINUOUS
10
5.03883
20
-4.34644
11
5.03233
21
-4.34804
0
LINE
8
BLACK
6
CONTINUOUS
10
5.56984
20
-4.47
11
5.59
21
-4.47
0
LINE
8
BLACK
6
CONTINUOUS
10
5.59
20
-4.47
11
5.59
21
-4.49016
0
LINE
8
BLACK
6
CONTINUOUS
10
5.59
20
-4.49016
11
5.60181
21
-4.49016
0
LINE
8
BLACK
6
CONTINUOUS
10
5.60181
20
-4.49016
11
5.60181
21
-4.46824
0
LINE
8
BLACK
6
CONTINUOUS
10
5.60181
20
-4.46824
11
5.60181
21
-4.46824
0
LINE
8
BLACK
6
CONTINUOUS
10
5.60181
20
-4.46824
11
5.6017
21
-4.46725
0
LINE
8
BLACK
6
CONTINUOUS
10
5.6017
20
-4.46725
11
5.6017
21
-4.46725
0
LINE
8
BLACK
6
CONTINUOUS
10
5.6017
20
-4.46725
11
5.59991
21
-4.46321
0
LINE
8
BLACK
6
CONTINUOUS
10
5.59991
20
-4.46321
11
5.59991
21
-4.46321
0
LINE
8
BLACK
6
CONTINUOUS
10
5.59991
20
-4.46321
11
5.59679
21
-4.46009
0
LINE
8
BLACK
6
CONTINUOUS
10
5.59679
20
-4.46009
11
5.59679
21
-4.46009
0
LINE
8
BLACK
6
CONTINUOUS
10
5.59679
20
-4.46009
11
5.59275
21
-4.4583
0
LINE
8
BLACK
6
CONTINUOUS
10
5.59275
20
-4.4583
11
5.59176
21
-4.45819
0
LINE
8
BLACK
6
CONTINUOUS
10
5.59176
20
-4.45819
11
5.56984
21
-4.45819
0
LINE
8
BLACK
6
CONTINUOUS
10
5.56984
20
-4.45819
11
5.56984
21
-4.47
0
LINE
8
BLACK
6
CONTINUOUS
10
5.36984
20
-4.47
11
5.39
21
-4.47
0
LINE
8
BLACK
6
CONTINUOUS
10
5.39
20
-4.47
11
5.39
21
-4.49016
0
LINE
8
BLACK
6
CONTINUOUS
10
5.39
20
-4.49016
11
5.40181
21
-4.49016
0
LINE
8
BLACK
6
CONTINUOUS
10
5.40181
20
-4.49016
11
5.40181
21
-4.46824
0
LINE
8
BLACK
6
CONTINUOUS
10
5.40181
20
-4.46824
11
5.40181
21
-4.46824
0
LINE
8
BLACK
6
CONTINUOUS
10
5.40181
20
-4.46824
11
5.4017
21
-4.46725
0
LINE
8
BLACK
6
CONTINUOUS
10
5.4017
20
-4.46725
11
5.4017
21
-4.46725
0
LINE
8
BLACK
6
CONTINUOUS
10
5.4017
20
-4.46725
11
5.39991
21
-4.46321
0
LINE
8
BLACK
6
CONTINUOUS
10
5.39991
20
-4.46321
11
5.39991
21
-4.46321
0
LINE
8
BLACK
6
CONTINUOUS
10
5.39991
20
-4.46321
11
5.39679
21
-4.46009
0
LINE
8
BLACK
6
CONTINUOUS
10
5.39679
20
-4.46009
11
5.39679
21
-4.46009
0
LINE
8
BLACK
6
CONTINUOUS
10
5.39679
20
-4.46009
11
5.39275
21
-4.4583
0
LINE
8
BLACK
6
CONTINUOUS
10
5.39275
20
-4.4583
11
5.39176
21
-4.45819
0
LINE
8
BLACK
6
CONTINUOUS
10
5.39176
20
-4.45819
11
5.36984
21
-4.45819
0
LINE
8
BLACK
6
CONTINUOUS
10
5.36984
20
-4.45819
11
5.36984
21
-4.47
0
LINE
8
BLACK
6
CONTINUOUS
10
5.40181
20
-4.43176
11
5.40181
21
-4.43176
0
LINE
8
BLACK
6
CONTINUOUS
10
5.40181
20
-4.43176
11
5.40181
21
-4.40984
0
LINE
8
BLACK
6
CONTINUOUS
10
5.40181
20
-4.40984
11
5.39
21
-4.40984
0
LINE
8
BLACK
6
CONTINUOUS
10
5.39
20
-4.40984
11
5.39
21
-4.43
0
LINE
8
BLACK
6
CONTINUOUS
10
5.39
20
-4.43
11
5.36984
21
-4.43
0
LINE
8
BLACK
6
CONTINUOUS
10
5.36984
20
-4.43
11
5.36984
21
-4.44181
0
LINE
8
BLACK
6
CONTINUOUS
10
5.36984
20
-4.44181
11
5.39176
21
-4.44181
0
LINE
8
BLACK
6
CONTINUOUS
10
5.39176
20
-4.44181
11
5.39176
21
-4.44181
0
LINE
8
BLACK
6
CONTINUOUS
10
5.39176
20
-4.44181
11
5.39275
21
-4.4417
0
LINE
8
BLACK
6
CONTINUOUS
10
5.39275
20
-4.4417
11
5.39275
21
-4.4417
0
LINE
8
BLACK
6
CONTINUOUS
10
5.39275
20
-4.4417
11
5.39679
21
-4.43991
0
LINE
8
BLACK
6
CONTINUOUS
10
5.39679
20
-4.43991
11
5.39679
21
-4.43991
0
LINE
8
BLACK
6
CONTINUOUS
10
5.39679
20
-4.43991
11
5.39991
21
-4.43679
0
LINE
8
BLACK
6
CONTINUOUS
10
5.39991
20
-4.43679
11
5.39991
21
-4.43679
0
LINE
8
BLACK
6
CONTINUOUS
10
5.39991
20
-4.43679
11
5.4017
21
-4.43275
0
LINE
8
BLACK
6
CONTINUOUS
10
5.4017
20
-4.43275
11
5.4017
21
-4.43275
0
LINE
8
BLACK
6
CONTINUOUS
10
5.4017
20
-4.43275
11
5.40181
21
-4.43177
0
LINE
8
BLACK
6
CONTINUOUS
10
5.40181
20
-4.43177
11
5.40181
21
-4.43176
0
LINE
8
BLACK
6
CONTINUOUS
10
5.31819
20
-4.40984
11
5.31819
21
-4.43176
0
LINE
8
BLACK
6
CONTINUOUS
10
5.31819
20
-4.43176
11
5.31819
21
-4.43176
0
LINE
8
BLACK
6
CONTINUOUS
10
5.31819
20
-4.43176
11
5.3183
21
-4.43275
0
LINE
8
BLACK
6
CONTINUOUS
10
5.3183
20
-4.43275
11
5.3183
21
-4.43275
0
LINE
8
BLACK
6
CONTINUOUS
10
5.3183
20
-4.43275
11
5.32009
21
-4.43679
0
LINE
8
BLACK
6
CONTINUOUS
10
5.32009
20
-4.43679
11
5.32009
21
-4.43679
0
LINE
8
BLACK
6
CONTINUOUS
10
5.32009
20
-4.43679
11
5.32321
21
-4.43991
0
LINE
8
BLACK
6
CONTINUOUS
10
5.32321
20
-4.43991
11
5.32321
21
-4.43991
0
LINE
8
BLACK
6
CONTINUOUS
10
5.32321
20
-4.43991
11
5.32725
21
-4.4417
0
LINE
8
BLACK
6
CONTINUOUS
10
5.32725
20
-4.4417
11
5.32824
21
-4.44181
0
LINE
8
BLACK
6
CONTINUOUS
10
5.32824
20
-4.44181
11
5.35016
21
-4.44181
0
LINE
8
BLACK
6
CONTINUOUS
10
5.35016
20
-4.44181
11
5.35016
21
-4.44181
0
LINE
8
BLACK
6
CONTINUOUS
10
5.35016
20
-4.44181
11
5.35016
21
-4.43
0
LINE
8
BLACK
6
CONTINUOUS
10
5.35016
20
-4.43
11
5.33
21
-4.43
0
LINE
8
BLACK
6
CONTINUOUS
10
5.33
20
-4.43
11
5.33
21
-4.40984
0
LINE
8
BLACK
6
CONTINUOUS
10
5.33
20
-4.40984
11
5.31819
21
-4.40984
0
LINE
8
BLACK
6
CONTINUOUS
10
5.51819
20
-4.40984
11
5.51819
21
-4.43176
0
LINE
8
BLACK
6
CONTINUOUS
10
5.51819
20
-4.43176
11
5.51819
21
-4.43176
0
LINE
8
BLACK
6
CONTINUOUS
10
5.51819
20
-4.43176
11
5.5183
21
-4.43275
0
LINE
8
BLACK
6
CONTINUOUS
10
5.5183
20
-4.43275
11
5.5183
21
-4.43275
0
LINE
8
BLACK
6
CONTINUOUS
10
5.5183
20
-4.43275
11
5.52009
21
-4.43679
0
LINE
8
BLACK
6
CONTINUOUS
10
5.52009
20
-4.43679
11
5.52009
21
-4.43679
0
LINE
8
BLACK
6
CONTINUOUS
10
5.52009
20
-4.43679
11
5.52321
21
-4.43991
0
LINE
8
BLACK
6
CONTINUOUS
10
5.52321
20
-4.43991
11
5.52321
21
-4.43991
0
LINE
8
BLACK
6
CONTINUOUS
10
5.52321
20
-4.43991
11
5.52725
21
-4.4417
0
LINE
8
BLACK
6
CONTINUOUS
10
5.52725
20
-4.4417
11
5.52824
21
-4.44181
0
LINE
8
BLACK
6
CONTINUOUS
10
5.52824
20
-4.44181
11
5.55016
21
-4.44181
0
LINE
8
BLACK
6
CONTINUOUS
10
5.55016
20
-4.44181
11
5.55016
21
-4.44181
0
LINE
8
BLACK
6
CONTINUOUS
10
5.55016
20
-4.44181
11
5.55016
21
-4.43
0
LINE
8
BLACK
6
CONTINUOUS
10
5.55016
20
-4.43
11
5.53
21
-4.43
0
LINE
8
BLACK
6
CONTINUOUS
10
5.53
20
-4.43
11
5.53
21
-4.40984
0
LINE
8
BLACK
6
CONTINUOUS
10
5.53
20
-4.40984
11
5.51819
21
-4.40984
0
LINE
8
BLACK
6
CONTINUOUS
10
5.59
20
-4.43
11
5.56984
21
-4.43
0
LINE
8
BLACK
6
CONTINUOUS
10
5.56984
20
-4.43
11
5.56984
21
-4.44181
0
LINE
8
BLACK
6
CONTINUOUS
10
5.56984
20
-4.44181
11
5.59176
21
-4.44181
0
LINE
8
BLACK
6
CONTINUOUS
10
5.59176
20
-4.44181
11
5.59176
21
-4.44181
0
LINE
8
BLACK
6
CONTINUOUS
10
5.59176
20
-4.44181
11
5.59275
21
-4.4417
0
LINE
8
BLACK
6
CONTINUOUS
10
5.59275
20
-4.4417
11
5.59275
21
-4.4417
0
LINE
8
BLACK
6
CONTINUOUS
10
5.59275
20
-4.4417
11
5.59679
21
-4.43991
0
LINE
8
BLACK
6
CONTINUOUS
10
5.59679
20
-4.43991
11
5.59679
21
-4.43991
0
LINE
8
BLACK
6
CONTINUOUS
10
5.59679
20
-4.43991
11
5.59991
21
-4.43679
0
LINE
8
BLACK
6
CONTINUOUS
10
5.59991
20
-4.43679
11
5.59991
21
-4.43679
0
LINE
8
BLACK
6
CONTINUOUS
10
5.59991
20
-4.43679
11
5.6017
21
-4.43275
0
LINE
8
BLACK
6
CONTINUOUS
10
5.6017
20
-4.43275
11
5.6017
21
-4.43275
0
LINE
8
BLACK
6
CONTINUOUS
10
5.6017
20
-4.43275
11
5.60181
21
-4.43176
0
LINE
8
BLACK
6
CONTINUOUS
10
5.60181
20
-4.43176
11
5.60181
21
-4.43176
0
LINE
8
BLACK
6
CONTINUOUS
10
5.60181
20
-4.43176
11
5.60181
21
-4.40984
0
LINE
8
BLACK
6
CONTINUOUS
10
5.60181
20
-4.40984
11
5.59
21
-4.40984
0
LINE
8
BLACK
6
CONTINUOUS
10
5.59
20
-4.40984
11
5.59
21
-4.43
0
LINE
8
BLACK
6
CONTINUOUS
10
5.41817
20
-4.43177
11
5.41828
21
-4.43276
0
LINE
8
BLACK
6
CONTINUOUS
10
5.41828
20
-4.43276
11
5.41828
21
-4.43276
0
LINE
8
BLACK
6
CONTINUOUS
10
5.41828
20
-4.43276
11
5.42007
21
-4.4368
0
LINE
8
BLACK
6
CONTINUOUS
10
5.42007
20
-4.4368
11
5.42007
21
-4.4368
0
LINE
8
BLACK
6
CONTINUOUS
10
5.42007
20
-4.4368
11
5.42007
21
-4.4368
0
LINE
8
BLACK
6
CONTINUOUS
10
5.42007
20
-4.4368
11
5.4232
21
-4.43993
0
LINE
8
BLACK
6
CONTINUOUS
10
5.4232
20
-4.43993
11
5.42724
21
-4.44172
0
LINE
8
BLACK
6
CONTINUOUS
10
5.42724
20
-4.44172
11
5.42823
21
-4.44183
0
LINE
8
BLACK
6
CONTINUOUS
10
5.42823
20
-4.44183
11
5.49177
21
-4.44183
0
LINE
8
BLACK
6
CONTINUOUS
10
5.49177
20
-4.44183
11
5.49177
21
-4.44183
0
LINE
8
BLACK
6
CONTINUOUS
10
5.49177
20
-4.44183
11
5.49177
21
-4.44183
0
LINE
8
BLACK
6
CONTINUOUS
10
5.49177
20
-4.44183
11
5.49276
21
-4.44172
0
LINE
8
BLACK
6
CONTINUOUS
10
5.49276
20
-4.44172
11
5.49276
21
-4.44172
0
LINE
8
BLACK
6
CONTINUOUS
10
5.49276
20
-4.44172
11
5.49276
21
-4.44172
0
LINE
8
BLACK
6
CONTINUOUS
10
5.49276
20
-4.44172
11
5.4968
21
-4.43993
0
LINE
8
BLACK
6
CONTINUOUS
10
5.4968
20
-4.43993
11
5.49993
21
-4.4368
0
LINE
8
BLACK
6
CONTINUOUS
10
5.49993
20
-4.4368
11
5.50172
21
-4.43276
0
LINE
8
BLACK
6
CONTINUOUS
10
5.50172
20
-4.43276
11
5.50183
21
-4.43177
0
LINE
8
BLACK
6
CONTINUOUS
10
5.50183
20
-4.43177
11
5.50183
21
-4.39016
0
LINE
8
BLACK
6
CONTINUOUS
10
5.50183
20
-4.39016
11
5.50183
21
-4.36823
0
LINE
8
BLACK
6
CONTINUOUS
10
5.50183
20
-4.36823
11
5.50183
21
-4.36823
0
LINE
8
BLACK
6
CONTINUOUS
10
5.50183
20
-4.36823
11
5.50172
21
-4.36724
0
LINE
8
BLACK
6
CONTINUOUS
10
5.50172
20
-4.36724
11
5.50172
21
-4.36724
0
LINE
8
BLACK
6
CONTINUOUS
10
5.50172
20
-4.36724
11
5.50172
21
-4.36724
0
LINE
8
BLACK
6
CONTINUOUS
10
5.50172
20
-4.36724
11
5.49993
21
-4.3632
0
LINE
8
BLACK
6
CONTINUOUS
10
5.49993
20
-4.3632
11
5.4968
21
-4.36007
0
LINE
8
BLACK
6
CONTINUOUS
10
5.4968
20
-4.36007
11
5.49521
21
-4.35937
0
LINE
8
BLACK
6
CONTINUOUS
10
5.49521
20
-4.35937
11
5.49276
21
-4.35828
0
LINE
8
BLACK
6
CONTINUOUS
10
5.49276
20
-4.35828
11
5.49177
21
-4.35817
0
LINE
8
BLACK
6
CONTINUOUS
10
5.49177
20
-4.35817
11
5.42823
21
-4.35817
0
LINE
8
BLACK
6
CONTINUOUS
10
5.42823
20
-4.35817
11
5.42823
21
-4.35817
0
LINE
8
BLACK
6
CONTINUOUS
10
5.42823
20
-4.35817
11
5.42724
21
-4.35828
0
LINE
8
BLACK
6
CONTINUOUS
10
5.42724
20
-4.35828
11
5.42724
21
-4.35828
0
LINE
8
BLACK
6
CONTINUOUS
10
5.42724
20
-4.35828
11
5.4232
21
-4.36007
0
LINE
8
BLACK
6
CONTINUOUS
10
5.4232
20
-4.36007
11
5.42007
21
-4.3632
0
LINE
8
BLACK
6
CONTINUOUS
10
5.42007
20
-4.3632
11
5.41828
21
-4.36724
0
LINE
8
BLACK
6
CONTINUOUS
10
5.41828
20
-4.36724
11
5.41828
21
-4.36724
0
LINE
8
BLACK
6
CONTINUOUS
10
5.41828
20
-4.36724
11
5.41817
21
-4.36823
0
LINE
8
BLACK
6
CONTINUOUS
10
5.41817
20
-4.36823
11
5.41817
21
-4.43177
0
LINE
8
BLACK
6
CONTINUOUS
10
5.41817
20
-4.43177
11
5.41817
21
-4.43177
0
LINE
8
BLACK
6
CONTINUOUS
10
5.56984
20
-4.37
11
5.59
21
-4.37
0
LINE
8
BLACK
6
CONTINUOUS
10
5.59
20
-4.37
11
5.59
21
-4.39016
0
LINE
8
BLACK
6
CONTINUOUS
10
5.59
20
-4.39016
11
5.60181
21
-4.39016
0
LINE
8
BLACK
6
CONTINUOUS
10
5.60181
20
-4.39016
11
5.60181
21
-4.36824
0
LINE
8
BLACK
6
CONTINUOUS
10
5.60181
20
-4.36824
11
5.60181
21
-4.36824
0
LINE
8
BLACK
6
CONTINUOUS
10
5.60181
20
-4.36824
11
5.6017
21
-4.36725
0
LINE
8
BLACK
6
CONTINUOUS
10
5.6017
20
-4.36725
11
5.6017
21
-4.36725
0
LINE
8
BLACK
6
CONTINUOUS
10
5.6017
20
-4.36725
11
5.59991
21
-4.36321
0
LINE
8
BLACK
6
CONTINUOUS
10
5.59991
20
-4.36321
11
5.59991
21
-4.36321
0
LINE
8
BLACK
6
CONTINUOUS
10
5.59991
20
-4.36321
11
5.59679
21
-4.36009
0
LINE
8
BLACK
6
CONTINUOUS
10
5.59679
20
-4.36009
11
5.59679
21
-4.36009
0
LINE
8
BLACK
6
CONTINUOUS
10
5.59679
20
-4.36009
11
5.59275
21
-4.3583
0
LINE
8
BLACK
6
CONTINUOUS
10
5.59275
20
-4.3583
11
5.59176
21
-4.35819
0
LINE
8
BLACK
6
CONTINUOUS
10
5.59176
20
-4.35819
11
5.56984
21
-4.35819
0
LINE
8
BLACK
6
CONTINUOUS
10
5.56984
20
-4.35819
11
5.56984
21
-4.37
0
LINE
8
BLACK
6
CONTINUOUS
10
5.36984
20
-4.37
11
5.39
21
-4.37
0
LINE
8
BLACK
6
CONTINUOUS
10
5.39
20
-4.37
11
5.39
21
-4.39016
0
LINE
8
BLACK
6
CONTINUOUS
10
5.39
20
-4.39016
11
5.40181
21
-4.39016
0
LINE
8
BLACK
6
CONTINUOUS
10
5.40181
20
-4.39016
11
5.40181
21
-4.36824
0
LINE
8
BLACK
6
CONTINUOUS
10
5.40181
20
-4.36824
11
5.40181
21
-4.36824
0
LINE
8
BLACK
6
CONTINUOUS
10
5.40181
20
-4.36824
11
5.4017
21
-4.36725
0
LINE
8
BLACK
6
CONTINUOUS
10
5.4017
20
-4.36725
11
5.4017
21
-4.36725
0
LINE
8
BLACK
6
CONTINUOUS
10
5.4017
20
-4.36725
11
5.39991
21
-4.36321
0
LINE
8
BLACK
6
CONTINUOUS
10
5.39991
20
-4.36321
11
5.39991
21
-4.36321
0
LINE
8
BLACK
6
CONTINUOUS
10
5.39991
20
-4.36321
11
5.39679
21
-4.36009
0
LINE
8
BLACK
6
CONTINUOUS
10
5.39679
20
-4.36009
11
5.39679
21
-4.36009
0
LINE
8
BLACK
6
CONTINUOUS
10
5.39679
20
-4.36009
11
5.39275
21
-4.3583
0
LINE
8
BLACK
6
CONTINUOUS
10
5.39275
20
-4.3583
11
5.39176
21
-4.35819
0
LINE
8
BLACK
6
CONTINUOUS
10
5.39176
20
-4.35819
11
5.36984
21
-4.35819
0
LINE
8
BLACK
6
CONTINUOUS
10
5.36984
20
-4.35819
11
5.36984
21
-4.37
0
LINE
8
BLACK
6
CONTINUOUS
10
5.21181
20
-4.04176
11
5.21181
21
-4.04176
0
LINE
8
BLACK
6
CONTINUOUS
10
5.21181
20
-4.04176
11
5.21181
21
-4.01984
0
LINE
8
BLACK
6
CONTINUOUS
10
5.21181
20
-4.01984
11
5.2
21
-4.01984
0
LINE
8
BLACK
6
CONTINUOUS
10
5.2
20
-4.01984
11
5.2
21
-4.04
0
LINE
8
BLACK
6
CONTINUOUS
10
5.2
20
-4.04
11
5.17984
21
-4.04
0
LINE
8
BLACK
6
CONTINUOUS
10
5.17984
20
-4.04
11
5.17984
21
-4.05181
0
LINE
8
BLACK
6
CONTINUOUS
10
5.17984
20
-4.05181
11
5.17984
21
-4.05181
0
LINE
8
BLACK
6
CONTINUOUS
10
5.17984
20
-4.05181
11
5.20176
21
-4.05181
0
LINE
8
BLACK
6
CONTINUOUS
10
5.20176
20
-4.05181
11
5.20176
21
-4.05181
0
LINE
8
BLACK
6
CONTINUOUS
10
5.20176
20
-4.05181
11
5.20275
21
-4.0517
0
LINE
8
BLACK
6
CONTINUOUS
10
5.20275
20
-4.0517
11
5.20275
21
-4.0517
0
LINE
8
BLACK
6
CONTINUOUS
10
5.20275
20
-4.0517
11
5.20679
21
-4.04991
0
LINE
8
BLACK
6
CONTINUOUS
10
5.20679
20
-4.04991
11
5.20679
21
-4.04991
0
LINE
8
BLACK
6
CONTINUOUS
10
5.20679
20
-4.04991
11
5.20991
21
-4.04679
0
LINE
8
BLACK
6
CONTINUOUS
10
5.20991
20
-4.04679
11
5.20991
21
-4.04679
0
LINE
8
BLACK
6
CONTINUOUS
10
5.20991
20
-4.04679
11
5.2117
21
-4.04275
0
LINE
8
BLACK
6
CONTINUOUS
10
5.2117
20
-4.04275
11
5.2117
21
-4.04275
0
LINE
8
BLACK
6
CONTINUOUS
10
5.2117
20
-4.04275
11
5.21181
21
-4.04177
0
LINE
8
BLACK
6
CONTINUOUS
10
5.21181
20
-4.04177
11
5.21181
21
-4.04176
0
LINE
8
BLACK
6
CONTINUOUS
10
5.32817
20
-4.04177
11
5.32828
21
-4.04276
0
LINE
8
BLACK
6
CONTINUOUS
10
5.32828
20
-4.04276
11
5.32828
21
-4.04276
0
LINE
8
BLACK
6
CONTINUOUS
10
5.32828
20
-4.04276
11
5.33007
21
-4.0468
0
LINE
8
BLACK
6
CONTINUOUS
10
5.33007
20
-4.0468
11
5.33007
21
-4.0468
0
LINE
8
BLACK
6
CONTINUOUS
10
5.33007
20
-4.0468
11
5.3332
21
-4.04993
0
LINE
8
BLACK
6
CONTINUOUS
10
5.3332
20
-4.04993
11
5.33724
21
-4.05172
0
LINE
8
BLACK
6
CONTINUOUS
10
5.33724
20
-4.05172
11
5.33823
21
-4.05183
0
LINE
8
BLACK
6
CONTINUOUS
10
5.33823
20
-4.05183
11
5.34329
21
-4.05183
0
LINE
8
BLACK
6
CONTINUOUS
10
5.34329
20
-4.05183
11
5.34593
21
-4.05261
0
LINE
8
BLACK
6
CONTINUOUS
10
5.34593
20
-4.05261
11
5.34773
21
-4.05468
0
LINE
8
BLACK
6
CONTINUOUS
10
5.34773
20
-4.05468
11
5.34817
21
-4.05671
0
LINE
8
BLACK
6
CONTINUOUS
10
5.34817
20
-4.05671
11
5.34817
21
-4.11963
0
LINE
8
BLACK
6
CONTINUOUS
10
5.34817
20
-4.11963
11
5.34808
21
-4.12225
0
LINE
8
BLACK
6
CONTINUOUS
10
5.34808
20
-4.12225
11
5.3485
21
-4.12396
0
LINE
8
BLACK
6
CONTINUOUS
10
5.3485
20
-4.12396
11
5.34854
21
-4.12421
0
LINE
8
BLACK
6
CONTINUOUS
10
5.34854
20
-4.12421
11
5.34878
21
-4.12595
0
LINE
8
BLACK
6
CONTINUOUS
10
5.34878
20
-4.12595
11
5.34907
21
-4.1266
0
LINE
8
BLACK
6
CONTINUOUS
10
5.34907
20
-4.1266
11
5.34933
21
-4.12739
0
LINE
8
BLACK
6
CONTINUOUS
10
5.34933
20
-4.12739
11
5.3495
21
-4.12808
0
LINE
8
BLACK
6
CONTINUOUS
10
5.3495
20
-4.12808
11
5.3495
21
-4.12808
0
LINE
8
BLACK
6
CONTINUOUS
10
5.3495
20
-4.12808
11
5.35036
21
-4.12961
0
LINE
8
BLACK
6
CONTINUOUS
10
5.35036
20
-4.12961
11
5.35047
21
-4.12984
0
LINE
8
BLACK
6
CONTINUOUS
10
5.35047
20
-4.12984
11
5.35117
21
-4.13145
0
LINE
8
BLACK
6
CONTINUOUS
10
5.35117
20
-4.13145
11
5.35117
21
-4.13145
0
LINE
8
BLACK
6
CONTINUOUS
10
5.35117
20
-4.13145
11
5.35162
21
-4.132
0
LINE
8
BLACK
6
CONTINUOUS
10
5.35162
20
-4.132
11
5.35209
21
-4.13269
0
LINE
8
BLACK
6
CONTINUOUS
10
5.35209
20
-4.13269
11
5.35244
21
-4.13331
0
LINE
8
BLACK
6
CONTINUOUS
10
5.35244
20
-4.13331
11
5.35244
21
-4.13332
0
LINE
8
BLACK
6
CONTINUOUS
10
5.35244
20
-4.13332
11
5.35368
21
-4.13456
0
LINE
8
BLACK
6
CONTINUOUS
10
5.35368
20
-4.13456
11
5.35385
21
-4.13474
0
LINE
8
BLACK
6
CONTINUOUS
10
5.35385
20
-4.13474
11
5.35496
21
-4.1361
0
LINE
8
BLACK
6
CONTINUOUS
10
5.35496
20
-4.1361
11
5.35554
21
-4.13652
0
LINE
8
BLACK
6
CONTINUOUS
10
5.35554
20
-4.13652
11
5.35618
21
-4.13705
0
LINE
8
BLACK
6
CONTINUOUS
10
5.35618
20
-4.13705
11
5.43605
21
-4.21692
0
LINE
8
BLACK
6
CONTINUOUS
10
5.43605
20
-4.21692
11
5.43737
21
-4.21934
0
LINE
8
BLACK
6
CONTINUOUS
10
5.43737
20
-4.21934
11
5.43717
21
-4.22208
0
LINE
8
BLACK
6
CONTINUOUS
10
5.43717
20
-4.22208
11
5.43662
21
-4.22315
0
LINE
8
BLACK
6
CONTINUOUS
10
5.43662
20
-4.22315
11
5.4365
21
-4.22331
0
LINE
8
BLACK
6
CONTINUOUS
10
5.4365
20
-4.22331
11
5.4365
21
-4.22331
0
LINE
8
BLACK
6
CONTINUOUS
10
5.4365
20
-4.22331
11
5.43413
21
-4.22957
0
LINE
8
BLACK
6
CONTINUOUS
10
5.43413
20
-4.22957
11
5.43413
21
-4.22957
0
LINE
8
BLACK
6
CONTINUOUS
10
5.43413
20
-4.22957
11
5.43332
21
-4.23622
0
LINE
8
BLACK
6
CONTINUOUS
10
5.43332
20
-4.23622
11
5.43413
21
-4.24287
0
LINE
8
BLACK
6
CONTINUOUS
10
5.43413
20
-4.24287
11
5.43413
21
-4.24287
0
LINE
8
BLACK
6
CONTINUOUS
10
5.43413
20
-4.24287
11
5.4365
21
-4.24913
0
LINE
8
BLACK
6
CONTINUOUS
10
5.4365
20
-4.24913
11
5.43896
21
-4.25268
0
LINE
8
BLACK
6
CONTINUOUS
10
5.43896
20
-4.25268
11
5.44031
21
-4.25464
0
LINE
8
BLACK
6
CONTINUOUS
10
5.44031
20
-4.25464
11
5.44447
21
-4.25833
0
LINE
8
BLACK
6
CONTINUOUS
10
5.44447
20
-4.25833
11
5.44532
21
-4.25908
0
LINE
8
BLACK
6
CONTINUOUS
10
5.44532
20
-4.25908
11
5.45125
21
-4.2622
0
LINE
8
BLACK
6
CONTINUOUS
10
5.45125
20
-4.2622
11
5.45125
21
-4.2622
0
LINE
8
BLACK
6
CONTINUOUS
10
5.45125
20
-4.2622
11
5.45775
21
-4.2638
0
LINE
8
BLACK
6
CONTINUOUS
10
5.45775
20
-4.2638
11
5.46445
21
-4.2638
0
LINE
8
BLACK
6
CONTINUOUS
10
5.46445
20
-4.2638
11
5.47095
21
-4.2622
0
LINE
8
BLACK
6
CONTINUOUS
10
5.47095
20
-4.2622
11
5.47408
21
-4.26055
0
LINE
8
BLACK
6
CONTINUOUS
10
5.47408
20
-4.26055
11
5.47688
21
-4.25908
0
LINE
8
BLACK
6
CONTINUOUS
10
5.47688
20
-4.25908
11
5.47688
21
-4.25908
0
LINE
8
BLACK
6
CONTINUOUS
10
5.47688
20
-4.25908
11
5.47688
21
-4.25908
0
LINE
8
BLACK
6
CONTINUOUS
10
5.47688
20
-4.25908
11
5.4819
21
-4.25464
0
LINE
8
BLACK
6
CONTINUOUS
10
5.4819
20
-4.25464
11
5.4857
21
-4.24913
0
LINE
8
BLACK
6
CONTINUOUS
10
5.4857
20
-4.24913
11
5.48808
21
-4.24287
0
LINE
8
BLACK
6
CONTINUOUS
10
5.48808
20
-4.24287
11
5.48888
21
-4.23622
0
LINE
8
BLACK
6
CONTINUOUS
10
5.48888
20
-4.23622
11
5.48808
21
-4.22957
0
LINE
8
BLACK
6
CONTINUOUS
10
5.48808
20
-4.22957
11
5.4857
21
-4.22331
0
LINE
8
BLACK
6
CONTINUOUS
10
5.4857
20
-4.22331
11
5.4857
21
-4.22331
0
LINE
8
BLACK
6
CONTINUOUS
10
5.4857
20
-4.22331
11
5.4838
21
-4.22055
0
LINE
8
BLACK
6
CONTINUOUS
10
5.4838
20
-4.22055
11
5.48294
21
-4.21794
0
LINE
8
BLACK
6
CONTINUOUS
10
5.48294
20
-4.21794
11
5.48293
21
-4.21778
0
LINE
8
BLACK
6
CONTINUOUS
10
5.48293
20
-4.21778
11
5.48293
21
-4.21147
0
LINE
8
BLACK
6
CONTINUOUS
10
5.48293
20
-4.21147
11
5.48294
21
-4.21139
0
LINE
8
BLACK
6
CONTINUOUS
10
5.48294
20
-4.21139
11
5.48302
21
-4.20885
0
LINE
8
BLACK
6
CONTINUOUS
10
5.48302
20
-4.20885
11
5.48261
21
-4.20714
0
LINE
8
BLACK
6
CONTINUOUS
10
5.48261
20
-4.20714
11
5.48256
21
-4.2069
0
LINE
8
BLACK
6
CONTINUOUS
10
5.48256
20
-4.2069
11
5.48232
21
-4.20516
0
LINE
8
BLACK
6
CONTINUOUS
10
5.48232
20
-4.20516
11
5.48204
21
-4.2045
0
LINE
8
BLACK
6
CONTINUOUS
10
5.48204
20
-4.2045
11
5.48177
21
-4.20371
0
LINE
8
BLACK
6
CONTINUOUS
10
5.48177
20
-4.20371
11
5.4816
21
-4.20302
0
LINE
8
BLACK
6
CONTINUOUS
10
5.4816
20
-4.20302
11
5.48074
21
-4.20149
0
LINE
8
BLACK
6
CONTINUOUS
10
5.48074
20
-4.20149
11
5.48063
21
-4.20126
0
LINE
8
BLACK
6
CONTINUOUS
10
5.48063
20
-4.20126
11
5.47993
21
-4.19965
0
LINE
8
BLACK
6
CONTINUOUS
10
5.47993
20
-4.19965
11
5.47948
21
-4.1991
0
LINE
8
BLACK
6
CONTINUOUS
10
5.47948
20
-4.1991
11
5.47901
21
-4.19841
0
LINE
8
BLACK
6
CONTINUOUS
10
5.47901
20
-4.19841
11
5.47866
21
-4.19779
0
LINE
8
BLACK
6
CONTINUOUS
10
5.47866
20
-4.19779
11
5.47866
21
-4.19779
0
LINE
8
BLACK
6
CONTINUOUS
10
5.47866
20
-4.19779
11
5.47742
21
-4.19655
0
LINE
8
BLACK
6
CONTINUOUS
10
5.47742
20
-4.19655
11
5.47725
21
-4.19636
0
LINE
8
BLACK
6
CONTINUOUS
10
5.47725
20
-4.19636
11
5.47614
21
-4.195
0
LINE
8
BLACK
6
CONTINUOUS
10
5.47614
20
-4.195
11
5.47556
21
-4.19459
0
LINE
8
BLACK
6
CONTINUOUS
10
5.47556
20
-4.19459
11
5.47492
21
-4.19405
0
LINE
8
BLACK
6
CONTINUOUS
10
5.47492
20
-4.19405
11
5.44445
21
-4.16358
0
LINE
8
BLACK
6
CONTINUOUS
10
5.44445
20
-4.16358
11
5.39326
21
-4.11239
0
LINE
8
BLACK
6
CONTINUOUS
10
5.39326
20
-4.11239
11
5.39194
21
-4.10997
0
LINE
8
BLACK
6
CONTINUOUS
10
5.39194
20
-4.10997
11
5.39183
21
-4.10894
0
LINE
8
BLACK
6
CONTINUOUS
10
5.39183
20
-4.10894
11
5.39183
21
-4.05671
0
LINE
8
BLACK
6
CONTINUOUS
10
5.39183
20
-4.05671
11
5.39261
21
-4.05407
0
LINE
8
BLACK
6
CONTINUOUS
10
5.39261
20
-4.05407
11
5.39468
21
-4.05227
0
LINE
8
BLACK
6
CONTINUOUS
10
5.39468
20
-4.05227
11
5.39671
21
-4.05183
0
LINE
8
BLACK
6
CONTINUOUS
10
5.39671
20
-4.05183
11
5.40177
21
-4.05183
0
LINE
8
BLACK
6
CONTINUOUS
10
5.40177
20
-4.05183
11
5.40177
21
-4.05183
0
LINE
8
BLACK
6
CONTINUOUS
10
5.40177
20
-4.05183
11
5.40177
21
-4.05183
0
LINE
8
BLACK
6
CONTINUOUS
10
5.40177
20
-4.05183
11
5.40177
21
-4.05183
0
LINE
8
BLACK
6
CONTINUOUS
10
5.40177
20
-4.05183
11
5.40276
21
-4.05172
0
LINE
8
BLACK
6
CONTINUOUS
10
5.40276
20
-4.05172
11
5.40276
21
-4.05172
0
LINE
8
BLACK
6
CONTINUOUS
10
5.40276
20
-4.05172
11
5.40276
21
-4.05172
0
LINE
8
BLACK
6
CONTINUOUS
10
5.40276
20
-4.05172
11
5.4068
21
-4.04993
0
LINE
8
BLACK
6
CONTINUOUS
10
5.4068
20
-4.04993
11
5.40993
21
-4.0468
0
LINE
8
BLACK
6
CONTINUOUS
10
5.40993
20
-4.0468
11
5.41172
21
-4.04276
0
LINE
8
BLACK
6
CONTINUOUS
10
5.41172
20
-4.04276
11
5.41183
21
-4.04177
0
LINE
8
BLACK
6
CONTINUOUS
10
5.41183
20
-4.04177
11
5.41183
21
-4.04177
0
LINE
8
BLACK
6
CONTINUOUS
10
5.41183
20
-4.04177
11
5.41183
21
-3.97823
0
LINE
8
BLACK
6
CONTINUOUS
10
5.41183
20
-3.97823
11
5.41183
21
-3.97823
0
LINE
8
BLACK
6
CONTINUOUS
10
5.41183
20
-3.97823
11
5.41172
21
-3.97724
0
LINE
8
BLACK
6
CONTINUOUS
10
5.41172
20
-3.97724
11
5.41172
21
-3.97724
0
LINE
8
BLACK
6
CONTINUOUS
10
5.41172
20
-3.97724
11
5.41172
21
-3.97724
0
LINE
8
BLACK
6
CONTINUOUS
10
5.41172
20
-3.97724
11
5.40993
21
-3.9732
0
LINE
8
BLACK
6
CONTINUOUS
10
5.40993
20
-3.9732
11
5.4068
21
-3.97007
0
LINE
8
BLACK
6
CONTINUOUS
10
5.4068
20
-3.97007
11
5.4068
21
-3.97007
0
LINE
8
BLACK
6
CONTINUOUS
10
5.4068
20
-3.97007
11
5.40276
21
-3.96828
0
LINE
8
BLACK
6
CONTINUOUS
10
5.40276
20
-3.96828
11
5.40177
21
-3.96817
0
LINE
8
BLACK
6
CONTINUOUS
10
5.40177
20
-3.96817
11
5.33823
21
-3.96817
0
LINE
8
BLACK
6
CONTINUOUS
10
5.33823
20
-3.96817
11
5.33823
21
-3.96817
0
LINE
8
BLACK
6
CONTINUOUS
10
5.33823
20
-3.96817
11
5.33724
21
-3.96828
0
LINE
8
BLACK
6
CONTINUOUS
10
5.33724
20
-3.96828
11
5.33724
21
-3.96828
0
LINE
8
BLACK
6
CONTINUOUS
10
5.33724
20
-3.96828
11
5.3332
21
-3.97007
0
LINE
8
BLACK
6
CONTINUOUS
10
5.3332
20
-3.97007
11
5.33007
21
-3.9732
0
LINE
8
BLACK
6
CONTINUOUS
10
5.33007
20
-3.9732
11
5.32828
21
-3.97724
0
LINE
8
BLACK
6
CONTINUOUS
10
5.32828
20
-3.97724
11
5.32828
21
-3.97724
0
LINE
8
BLACK
6
CONTINUOUS
10
5.32828
20
-3.97724
11
5.32817
21
-3.97823
0
LINE
8
BLACK
6
CONTINUOUS
10
5.32817
20
-3.97823
11
5.32817
21
-4.04177
0
LINE
8
BLACK
6
CONTINUOUS
10
5.32817
20
-4.04177
11
5.32817
21
-4.04177
0
LINE
8
BLACK
6
CONTINUOUS
10
4.47724
20
-4.23287
11
4.72652
21
-4.23287
0
LINE
8
BLACK
6
CONTINUOUS
10
4.72652
20
-4.23287
11
4.72652
21
-4.16358
0
LINE
8
BLACK
6
CONTINUOUS
10
4.72652
20
-4.16358
11
4.47724
21
-4.16358
0
LINE
8
BLACK
6
CONTINUOUS
10
4.47724
20
-4.16358
11
4.47724
21
-4.23287
0
LINE
8
BLACK
6
CONTINUOUS
10
5.578
20
-4.23286
11
5.93398
21
-4.23286
0
LINE
8
BLACK
6
CONTINUOUS
10
5.93398
20
-4.23286
11
5.93398
21
-4.16358
0
LINE
8
BLACK
6
CONTINUOUS
10
5.93398
20
-4.16358
11
5.578
21
-4.16358
0
LINE
8
BLACK
6
CONTINUOUS
10
5.578
20
-4.16358
11
5.578
21
-4.23286
0
LINE
8
BLACK
6
CONTINUOUS
10
4.84823
20
-3.96817
11
4.84724
21
-3.96828
0
LINE
8
BLACK
6
CONTINUOUS
10
4.84724
20
-3.96828
11
4.84724
21
-3.96828
0
LINE
8
BLACK
6
CONTINUOUS
10
4.84724
20
-3.96828
11
4.8432
21
-3.97007
0
LINE
8
BLACK
6
CONTINUOUS
10
4.8432
20
-3.97007
11
4.84007
21
-3.9732
0
LINE
8
BLACK
6
CONTINUOUS
10
4.84007
20
-3.9732
11
4.83828
21
-3.97724
0
LINE
8
BLACK
6
CONTINUOUS
10
4.83828
20
-3.97724
11
4.83828
21
-3.97724
0
LINE
8
BLACK
6
CONTINUOUS
10
4.83828
20
-3.97724
11
4.83817
21
-3.97823
0
LINE
8
BLACK
6
CONTINUOUS
10
4.83817
20
-3.97823
11
4.83817
21
-4.04177
0
LINE
8
BLACK
6
CONTINUOUS
10
4.83817
20
-4.04177
11
4.83817
21
-4.04177
0
LINE
8
BLACK
6
CONTINUOUS
10
4.83817
20
-4.04177
11
4.83828
21
-4.04276
0
LINE
8
BLACK
6
CONTINUOUS
10
4.83828
20
-4.04276
11
4.83828
21
-4.04276
0
LINE
8
BLACK
6
CONTINUOUS
10
4.83828
20
-4.04276
11
4.84007
21
-4.0468
0
LINE
8
BLACK
6
CONTINUOUS
10
4.84007
20
-4.0468
11
4.84007
21
-4.0468
0
LINE
8
BLACK
6
CONTINUOUS
10
4.84007
20
-4.0468
11
4.8432
21
-4.04993
0
LINE
8
BLACK
6
CONTINUOUS
10
4.8432
20
-4.04993
11
4.84724
21
-4.05172
0
LINE
8
BLACK
6
CONTINUOUS
10
4.84724
20
-4.05172
11
4.84823
21
-4.05183
0
LINE
8
BLACK
6
CONTINUOUS
10
4.84823
20
-4.05183
11
4.91177
21
-4.05183
0
LINE
8
BLACK
6
CONTINUOUS
10
4.91177
20
-4.05183
11
4.91177
21
-4.05183
0
LINE
8
BLACK
6
CONTINUOUS
10
4.91177
20
-4.05183
11
4.91177
21
-4.05183
0
LINE
8
BLACK
6
CONTINUOUS
10
4.91177
20
-4.05183
11
4.91276
21
-4.05172
0
LINE
8
BLACK
6
CONTINUOUS
10
4.91276
20
-4.05172
11
4.91276
21
-4.05172
0
LINE
8
BLACK
6
CONTINUOUS
10
4.91276
20
-4.05172
11
4.91276
21
-4.05172
0
LINE
8
BLACK
6
CONTINUOUS
10
4.91276
20
-4.05172
11
4.9168
21
-4.04993
0
LINE
8
BLACK
6
CONTINUOUS
10
4.9168
20
-4.04993
11
4.91993
21
-4.0468
0
LINE
8
BLACK
6
CONTINUOUS
10
4.91993
20
-4.0468
11
4.92172
21
-4.04276
0
LINE
8
BLACK
6
CONTINUOUS
10
4.92172
20
-4.04276
11
4.92183
21
-4.04177
0
LINE
8
BLACK
6
CONTINUOUS
10
4.92183
20
-4.04177
11
4.92183
21
-4.04177
0
LINE
8
BLACK
6
CONTINUOUS
10
4.92183
20
-4.04177
11
4.92183
21
-3.97823
0
LINE
8
BLACK
6
CONTINUOUS
10
4.92183
20
-3.97823
11
4.92183
21
-3.97823
0
LINE
8
BLACK
6
CONTINUOUS
10
4.92183
20
-3.97823
11
4.92172
21
-3.97724
0
LINE
8
BLACK
6
CONTINUOUS
10
4.92172
20
-3.97724
11
4.92172
21
-3.97724
0
LINE
8
BLACK
6
CONTINUOUS
10
4.92172
20
-3.97724
11
4.92172
21
-3.97724
0
LINE
8
BLACK
6
CONTINUOUS
10
4.92172
20
-3.97724
11
4.91993
21
-3.9732
0
LINE
8
BLACK
6
CONTINUOUS
10
4.91993
20
-3.9732
11
4.9168
21
-3.97007
0
LINE
8
BLACK
6
CONTINUOUS
10
4.9168
20
-3.97007
11
4.9168
21
-3.97007
0
LINE
8
BLACK
6
CONTINUOUS
10
4.9168
20
-3.97007
11
4.91276
21
-3.96828
0
LINE
8
BLACK
6
CONTINUOUS
10
4.91276
20
-3.96828
11
4.91177
21
-3.96817
0
LINE
8
BLACK
6
CONTINUOUS
10
4.91177
20
-3.96817
11
4.84823
21
-3.96817
0
LINE
8
BLACK
6
CONTINUOUS
10
4.84823
20
-3.96817
11
4.84823
21
-3.96817
0
LINE
8
BLACK
6
CONTINUOUS
10
5.12819
20
-4.01984
11
5.12819
21
-4.04176
0
LINE
8
BLACK
6
CONTINUOUS
10
5.12819
20
-4.04176
11
5.12819
21
-4.04176
0
LINE
8
BLACK
6
CONTINUOUS
10
5.12819
20
-4.04176
11
5.1283
21
-4.04275
0
LINE
8
BLACK
6
CONTINUOUS
10
5.1283
20
-4.04275
11
5.1283
21
-4.04275
0
LINE
8
BLACK
6
CONTINUOUS
10
5.1283
20
-4.04275
11
5.13009
21
-4.04679
0
LINE
8
BLACK
6
CONTINUOUS
10
5.13009
20
-4.04679
11
5.13009
21
-4.04679
0
LINE
8
BLACK
6
CONTINUOUS
10
5.13009
20
-4.04679
11
5.13321
21
-4.04991
0
LINE
8
BLACK
6
CONTINUOUS
10
5.13321
20
-4.04991
11
5.13321
21
-4.04991
0
LINE
8
BLACK
6
CONTINUOUS
10
5.13321
20
-4.04991
11
5.13725
21
-4.0517
0
LINE
8
BLACK
6
CONTINUOUS
10
5.13725
20
-4.0517
11
5.13824
21
-4.05181
0
LINE
8
BLACK
6
CONTINUOUS
10
5.13824
20
-4.05181
11
5.16016
21
-4.05181
0
LINE
8
BLACK
6
CONTINUOUS
10
5.16016
20
-4.05181
11
5.16016
21
-4.05181
0
LINE
8
BLACK
6
CONTINUOUS
10
5.16016
20
-4.05181
11
5.16016
21
-4.04
0
LINE
8
BLACK
6
CONTINUOUS
10
5.16016
20
-4.04
11
5.14
21
-4.04
0
LINE
8
BLACK
6
CONTINUOUS
10
5.14
20
-4.04
11
5.14
21
-4.01984
0
LINE
8
BLACK
6
CONTINUOUS
10
5.14
20
-4.01984
11
5.12819
21
-4.01984
0
LINE
8
BLACK
6
CONTINUOUS
10
5.52819
20
-4.01984
11
5.52819
21
-4.04176
0
LINE
8
BLACK
6
CONTINUOUS
10
5.52819
20
-4.04176
11
5.52819
21
-4.04176
0
LINE
8
BLACK
6
CONTINUOUS
10
5.52819
20
-4.04176
11
5.5283
21
-4.04275
0
LINE
8
BLACK
6
CONTINUOUS
10
5.5283
20
-4.04275
11
5.5283
21
-4.04275
0
LINE
8
BLACK
6
CONTINUOUS
10
5.5283
20
-4.04275
11
5.53009
21
-4.04679
0
LINE
8
BLACK
6
CONTINUOUS
10
5.53009
20
-4.04679
11
5.53009
21
-4.04679
0
LINE
8
BLACK
6
CONTINUOUS
10
5.53009
20
-4.04679
11
5.53321
21
-4.04991
0
LINE
8
BLACK
6
CONTINUOUS
10
5.53321
20
-4.04991
11
5.53321
21
-4.04991
0
LINE
8
BLACK
6
CONTINUOUS
10
5.53321
20
-4.04991
11
5.53725
21
-4.0517
0
LINE
8
BLACK
6
CONTINUOUS
10
5.53725
20
-4.0517
11
5.53824
21
-4.05181
0
LINE
8
BLACK
6
CONTINUOUS
10
5.53824
20
-4.05181
11
5.56016
21
-4.05181
0
LINE
8
BLACK
6
CONTINUOUS
10
5.56016
20
-4.05181
11
5.56016
21
-4.05181
0
LINE
8
BLACK
6
CONTINUOUS
10
5.56016
20
-4.05181
11
5.56016
21
-4.04
0
LINE
8
BLACK
6
CONTINUOUS
10
5.56016
20
-4.04
11
5.54
21
-4.04
0
LINE
8
BLACK
6
CONTINUOUS
10
5.54
20
-4.04
11
5.54
21
-4.01984
0
LINE
8
BLACK
6
CONTINUOUS
10
5.54
20
-4.01984
11
5.52819
21
-4.01984
0
LINE
8
BLACK
6
CONTINUOUS
10
5.6
20
-4.04
11
5.57984
21
-4.04
0
LINE
8
BLACK
6
CONTINUOUS
10
5.57984
20
-4.04
11
5.57984
21
-4.05181
0
LINE
8
BLACK
6
CONTINUOUS
10
5.57984
20
-4.05181
11
5.60176
21
-4.05181
0
LINE
8
BLACK
6
CONTINUOUS
10
5.60176
20
-4.05181
11
5.60176
21
-4.05181
0
LINE
8
BLACK
6
CONTINUOUS
10
5.60176
20
-4.05181
11
5.60275
21
-4.0517
0
LINE
8
BLACK
6
CONTINUOUS
10
5.60275
20
-4.0517
11
5.60275
21
-4.0517
0
LINE
8
BLACK
6
CONTINUOUS
10
5.60275
20
-4.0517
11
5.60679
21
-4.04991
0
LINE
8
BLACK
6
CONTINUOUS
10
5.60679
20
-4.04991
11
5.60679
21
-4.04991
0
LINE
8
BLACK
6
CONTINUOUS
10
5.60679
20
-4.04991
11
5.60991
21
-4.04679
0
LINE
8
BLACK
6
CONTINUOUS
10
5.60991
20
-4.04679
11
5.60991
21
-4.04679
0
LINE
8
BLACK
6
CONTINUOUS
10
5.60991
20
-4.04679
11
5.6117
21
-4.04275
0
LINE
8
BLACK
6
CONTINUOUS
10
5.6117
20
-4.04275
11
5.6117
21
-4.04275
0
LINE
8
BLACK
6
CONTINUOUS
10
5.6117
20
-4.04275
11
5.61181
21
-4.04176
0
LINE
8
BLACK
6
CONTINUOUS
10
5.61181
20
-4.04176
11
5.61181
21
-4.04176
0
LINE
8
BLACK
6
CONTINUOUS
10
5.61181
20
-4.04176
11
5.61181
21
-4.01984
0
LINE
8
BLACK
6
CONTINUOUS
10
5.61181
20
-4.01984
11
5.6
21
-4.01984
0
LINE
8
BLACK
6
CONTINUOUS
10
5.6
20
-4.01984
11
5.6
21
-4.04
0
LINE
8
BLACK
6
CONTINUOUS
10
4.93817
20
-4.04177
11
4.93828
21
-4.04276
0
LINE
8
BLACK
6
CONTINUOUS
10
4.93828
20
-4.04276
11
4.93828
21
-4.04276
0
LINE
8
BLACK
6
CONTINUOUS
10
4.93828
20
-4.04276
11
4.94007
21
-4.0468
0
LINE
8
BLACK
6
CONTINUOUS
10
4.94007
20
-4.0468
11
4.94007
21
-4.0468
0
LINE
8
BLACK
6
CONTINUOUS
10
4.94007
20
-4.0468
11
4.94007
21
-4.0468
0
LINE
8
BLACK
6
CONTINUOUS
10
4.94007
20
-4.0468
11
4.9432
21
-4.04993
0
LINE
8
BLACK
6
CONTINUOUS
10
4.9432
20
-4.04993
11
4.94724
21
-4.05172
0
LINE
8
BLACK
6
CONTINUOUS
10
4.94724
20
-4.05172
11
4.94823
21
-4.05183
0
LINE
8
BLACK
6
CONTINUOUS
10
4.94823
20
-4.05183
11
5.01177
21
-4.05183
0
LINE
8
BLACK
6
CONTINUOUS
10
5.01177
20
-4.05183
11
5.01177
21
-4.05183
0
LINE
8
BLACK
6
CONTINUOUS
10
5.01177
20
-4.05183
11
5.01177
21
-4.05183
0
LINE
8
BLACK
6
CONTINUOUS
10
5.01177
20
-4.05183
11
5.01276
21
-4.05172
0
LINE
8
BLACK
6
CONTINUOUS
10
5.01276
20
-4.05172
11
5.01276
21
-4.05172
0
LINE
8
BLACK
6
CONTINUOUS
10
5.01276
20
-4.05172
11
5.01276
21
-4.05172
0
LINE
8
BLACK
6
CONTINUOUS
10
5.01276
20
-4.05172
11
5.0168
21
-4.04993
0
LINE
8
BLACK
6
CONTINUOUS
10
5.0168
20
-4.04993
11
5.01993
21
-4.0468
0
LINE
8
BLACK
6
CONTINUOUS
10
5.01993
20
-4.0468
11
5.02172
21
-4.04276
0
LINE
8
BLACK
6
CONTINUOUS
10
5.02172
20
-4.04276
11
5.02183
21
-4.04177
0
LINE
8
BLACK
6
CONTINUOUS
10
5.02183
20
-4.04177
11
5.02183
21
-4.00016
0
LINE
8
BLACK
6
CONTINUOUS
10
5.02183
20
-4.00016
11
5.02183
21
-3.97823
0
LINE
8
BLACK
6
CONTINUOUS
10
5.02183
20
-3.97823
11
5.02183
21
-3.97823
0
LINE
8
BLACK
6
CONTINUOUS
10
5.02183
20
-3.97823
11
5.02172
21
-3.97724
0
LINE
8
BLACK
6
CONTINUOUS
10
5.02172
20
-3.97724
11
5.02172
21
-3.97724
0
LINE
8
BLACK
6
CONTINUOUS
10
5.02172
20
-3.97724
11
5.02172
21
-3.97724
0
LINE
8
BLACK
6
CONTINUOUS
10
5.02172
20
-3.97724
11
5.01993
21
-3.9732
0
LINE
8
BLACK
6
CONTINUOUS
10
5.01993
20
-3.9732
11
5.0168
21
-3.97007
0
LINE
8
BLACK
6
CONTINUOUS
10
5.0168
20
-3.97007
11
5.0168
21
-3.97007
0
LINE
8
BLACK
6
CONTINUOUS
10
5.0168
20
-3.97007
11
5.01276
21
-3.96828
0
LINE
8
BLACK
6
CONTINUOUS
10
5.01276
20
-3.96828
11
5.01177
21
-3.96817
0
LINE
8
BLACK
6
CONTINUOUS
10
5.01177
20
-3.96817
11
4.94823
21
-3.96817
0
LINE
8
BLACK
6
CONTINUOUS
10
4.94823
20
-3.96817
11
4.94823
21
-3.96817
0
LINE
8
BLACK
6
CONTINUOUS
10
4.94823
20
-3.96817
11
4.94724
21
-3.96828
0
LINE
8
BLACK
6
CONTINUOUS
10
4.94724
20
-3.96828
11
4.94724
21
-3.96828
0
LINE
8
BLACK
6
CONTINUOUS
10
4.94724
20
-3.96828
11
4.9432
21
-3.97007
0
LINE
8
BLACK
6
CONTINUOUS
10
4.9432
20
-3.97007
11
4.94007
21
-3.9732
0
LINE
8
BLACK
6
CONTINUOUS
10
4.94007
20
-3.9732
11
4.93828
21
-3.97724
0
LINE
8
BLACK
6
CONTINUOUS
10
4.93828
20
-3.97724
11
4.93828
21
-3.97724
0
LINE
8
BLACK
6
CONTINUOUS
10
4.93828
20
-3.97724
11
4.93817
21
-3.97823
0
LINE
8
BLACK
6
CONTINUOUS
10
4.93817
20
-3.97823
11
4.93817
21
-4.04177
0
LINE
8
BLACK
6
CONTINUOUS
10
4.93817
20
-4.04177
11
4.93817
21
-4.04177
0
LINE
8
BLACK
6
CONTINUOUS
10
5.22817
20
-4.04177
11
5.22828
21
-4.04276
0
LINE
8
BLACK
6
CONTINUOUS
10
5.22828
20
-4.04276
11
5.22828
21
-4.04276
0
LINE
8
BLACK
6
CONTINUOUS
10
5.22828
20
-4.04276
11
5.23007
21
-4.0468
0
LINE
8
BLACK
6
CONTINUOUS
10
5.23007
20
-4.0468
11
5.23007
21
-4.0468
0
LINE
8
BLACK
6
CONTINUOUS
10
5.23007
20
-4.0468
11
5.2332
21
-4.04993
0
LINE
8
BLACK
6
CONTINUOUS
10
5.2332
20
-4.04993
11
5.23724
21
-4.05172
0
LINE
8
BLACK
6
CONTINUOUS
10
5.23724
20
-4.05172
11
5.23823
21
-4.05183
0
LINE
8
BLACK
6
CONTINUOUS
10
5.23823
20
-4.05183
11
5.30177
21
-4.05183
0
LINE
8
BLACK
6
CONTINUOUS
10
5.30177
20
-4.05183
11
5.30177
21
-4.05183
0
LINE
8
BLACK
6
CONTINUOUS
10
5.30177
20
-4.05183
11
5.30177
21
-4.05183
0
LINE
8
BLACK
6
CONTINUOUS
10
5.30177
20
-4.05183
11
5.30276
21
-4.05172
0
LINE
8
BLACK
6
CONTINUOUS
10
5.30276
20
-4.05172
11
5.30276
21
-4.05172
0
LINE
8
BLACK
6
CONTINUOUS
10
5.30276
20
-4.05172
11
5.30276
21
-4.05172
0
LINE
8
BLACK
6
CONTINUOUS
10
5.30276
20
-4.05172
11
5.3068
21
-4.04993
0
LINE
8
BLACK
6
CONTINUOUS
10
5.3068
20
-4.04993
11
5.30993
21
-4.0468
0
LINE
8
BLACK
6
CONTINUOUS
10
5.30993
20
-4.0468
11
5.31172
21
-4.04276
0
LINE
8
BLACK
6
CONTINUOUS
10
5.31172
20
-4.04276
11
5.31183
21
-4.04177
0
LINE
8
BLACK
6
CONTINUOUS
10
5.31183
20
-4.04177
11
5.31183
21
-4.04177
0
LINE
8
BLACK
6
CONTINUOUS
10
5.31183
20
-4.04177
11
5.31183
21
-3.97823
0
LINE
8
BLACK
6
CONTINUOUS
10
5.31183
20
-3.97823
11
5.31183
21
-3.97823
0
LINE
8
BLACK
6
CONTINUOUS
10
5.31183
20
-3.97823
11
5.31172
21
-3.97724
0
LINE
8
BLACK
6
CONTINUOUS
10
5.31172
20
-3.97724
11
5.31172
21
-3.97724
0
LINE
8
BLACK
6
CONTINUOUS
10
5.31172
20
-3.97724
11
5.31172
21
-3.97724
0
LINE
8
BLACK
6
CONTINUOUS
10
5.31172
20
-3.97724
11
5.30993
21
-3.9732
0
LINE
8
BLACK
6
CONTINUOUS
10
5.30993
20
-3.9732
11
5.3068
21
-3.97007
0
LINE
8
BLACK
6
CONTINUOUS
10
5.3068
20
-3.97007
11
5.3068
21
-3.97007
0
LINE
8
BLACK
6
CONTINUOUS
10
5.3068
20
-3.97007
11
5.30276
21
-3.96828
0
LINE
8
BLACK
6
CONTINUOUS
10
5.30276
20
-3.96828
11
5.30177
21
-3.96817
0
LINE
8
BLACK
6
CONTINUOUS
10
5.30177
20
-3.96817
11
5.23823
21
-3.96817
0
LINE
8
BLACK
6
CONTINUOUS
10
5.23823
20
-3.96817
11
5.23823
21
-3.96817
0
LINE
8
BLACK
6
CONTINUOUS
10
5.23823
20
-3.96817
11
5.23724
21
-3.96828
0
LINE
8
BLACK
6
CONTINUOUS
10
5.23724
20
-3.96828
11
5.23724
21
-3.96828
0
LINE
8
BLACK
6
CONTINUOUS
10
5.23724
20
-3.96828
11
5.2332
21
-3.97007
0
LINE
8
BLACK
6
CONTINUOUS
10
5.2332
20
-3.97007
11
5.23007
21
-3.9732
0
LINE
8
BLACK
6
CONTINUOUS
10
5.23007
20
-3.9732
11
5.22828
21
-3.97724
0
LINE
8
BLACK
6
CONTINUOUS
10
5.22828
20
-3.97724
11
5.22828
21
-3.97724
0
LINE
8
BLACK
6
CONTINUOUS
10
5.22828
20
-3.97724
11
5.22817
21
-3.97823
0
LINE
8
BLACK
6
CONTINUOUS
10
5.22817
20
-3.97823
11
5.22817
21
-4.04177
0
LINE
8
BLACK
6
CONTINUOUS
10
5.22817
20
-4.04177
11
5.22817
21
-4.04177
0
LINE
8
BLACK
6
CONTINUOUS
10
5.42817
20
-4.04177
11
5.42828
21
-4.04276
0
LINE
8
BLACK
6
CONTINUOUS
10
5.42828
20
-4.04276
11
5.42828
21
-4.04276
0
LINE
8
BLACK
6
CONTINUOUS
10
5.42828
20
-4.04276
11
5.43007
21
-4.0468
0
LINE
8
BLACK
6
CONTINUOUS
10
5.43007
20
-4.0468
11
5.43007
21
-4.0468
0
LINE
8
BLACK
6
CONTINUOUS
10
5.43007
20
-4.0468
11
5.4332
21
-4.04993
0
LINE
8
BLACK
6
CONTINUOUS
10
5.4332
20
-4.04993
11
5.43724
21
-4.05172
0
LINE
8
BLACK
6
CONTINUOUS
10
5.43724
20
-4.05172
11
5.43823
21
-4.05183
0
LINE
8
BLACK
6
CONTINUOUS
10
5.43823
20
-4.05183
11
5.50177
21
-4.05183
0
LINE
8
BLACK
6
CONTINUOUS
10
5.50177
20
-4.05183
11
5.50177
21
-4.05183
0
LINE
8
BLACK
6
CONTINUOUS
10
5.50177
20
-4.05183
11
5.50177
21
-4.05183
0
LINE
8
BLACK
6
CONTINUOUS
10
5.50177
20
-4.05183
11
5.50276
21
-4.05172
0
LINE
8
BLACK
6
CONTINUOUS
10
5.50276
20
-4.05172
11
5.50276
21
-4.05172
0
LINE
8
BLACK
6
CONTINUOUS
10
5.50276
20
-4.05172
11
5.50276
21
-4.05172
0
LINE
8
BLACK
6
CONTINUOUS
10
5.50276
20
-4.05172
11
5.5068
21
-4.04993
0
LINE
8
BLACK
6
CONTINUOUS
10
5.5068
20
-4.04993
11
5.50993
21
-4.0468
0
LINE
8
BLACK
6
CONTINUOUS
10
5.50993
20
-4.0468
11
5.51172
21
-4.04276
0
LINE
8
BLACK
6
CONTINUOUS
10
5.51172
20
-4.04276
11
5.51183
21
-4.04177
0
LINE
8
BLACK
6
CONTINUOUS
10
5.51183
20
-4.04177
11
5.51183
21
-4.00016
0
LINE
8
BLACK
6
CONTINUOUS
10
5.51183
20
-4.00016
11
5.51183
21
-3.97823
0
LINE
8
BLACK
6
CONTINUOUS
10
5.51183
20
-3.97823
11
5.51183
21
-3.97823
0
LINE
8
BLACK
6
CONTINUOUS
10
5.51183
20
-3.97823
11
5.51172
21
-3.97724
0
LINE
8
BLACK
6
CONTINUOUS
10
5.51172
20
-3.97724
11
5.51172
21
-3.97724
0
LINE
8
BLACK
6
CONTINUOUS
10
5.51172
20
-3.97724
11
5.51172
21
-3.97724
0
LINE
8
BLACK
6
CONTINUOUS
10
5.51172
20
-3.97724
11
5.50993
21
-3.9732
0
LINE
8
BLACK
6
CONTINUOUS
10
5.50993
20
-3.9732
11
5.5068
21
-3.97007
0
LINE
8
BLACK
6
CONTINUOUS
10
5.5068
20
-3.97007
11
5.5068
21
-3.97007
0
LINE
8
BLACK
6
CONTINUOUS
10
5.5068
20
-3.97007
11
5.50276
21
-3.96828
0
LINE
8
BLACK
6
CONTINUOUS
10
5.50276
20
-3.96828
11
5.50177
21
-3.96817
0
LINE
8
BLACK
6
CONTINUOUS
10
5.50177
20
-3.96817
11
5.43823
21
-3.96817
0
LINE
8
BLACK
6
CONTINUOUS
10
5.43823
20
-3.96817
11
5.43823
21
-3.96817
0
LINE
8
BLACK
6
CONTINUOUS
10
5.43823
20
-3.96817
11
5.43724
21
-3.96828
0
LINE
8
BLACK
6
CONTINUOUS
10
5.43724
20
-3.96828
11
5.43724
21
-3.96828
0
LINE
8
BLACK
6
CONTINUOUS
10
5.43724
20
-3.96828
11
5.4332
21
-3.97007
0
LINE
8
BLACK
6
CONTINUOUS
10
5.4332
20
-3.97007
11
5.43007
21
-3.9732
0
LINE
8
BLACK
6
CONTINUOUS
10
5.43007
20
-3.9732
11
5.42828
21
-3.97724
0
LINE
8
BLACK
6
CONTINUOUS
10
5.42828
20
-3.97724
11
5.42828
21
-3.97724
0
LINE
8
BLACK
6
CONTINUOUS
10
5.42828
20
-3.97724
11
5.42817
21
-3.97823
0
LINE
8
BLACK
6
CONTINUOUS
10
5.42817
20
-3.97823
11
5.42817
21
-4.04177
0
LINE
8
BLACK
6
CONTINUOUS
10
5.42817
20
-4.04177
11
5.42817
21
-4.04177
0
LINE
8
BLACK
6
CONTINUOUS
10
5.57984
20
-3.98
11
5.6
21
-3.98
0
LINE
8
BLACK
6
CONTINUOUS
10
5.6
20
-3.98
11
5.6
21
-4.00016
0
LINE
8
BLACK
6
CONTINUOUS
10
5.6
20
-4.00016
11
5.61181
21
-4.00016
0
LINE
8
BLACK
6
CONTINUOUS
10
5.61181
20
-4.00016
11
5.61181
21
-3.97824
0
LINE
8
BLACK
6
CONTINUOUS
10
5.61181
20
-3.97824
11
5.61181
21
-3.97824
0
LINE
8
BLACK
6
CONTINUOUS
10
5.61181
20
-3.97824
11
5.6117
21
-3.97725
0
LINE
8
BLACK
6
CONTINUOUS
10
5.6117
20
-3.97725
11
5.6117
21
-3.97725
0
LINE
8
BLACK
6
CONTINUOUS
10
5.6117
20
-3.97725
11
5.60991
21
-3.97321
0
LINE
8
BLACK
6
CONTINUOUS
10
5.60991
20
-3.97321
11
5.60991
21
-3.97321
0
LINE
8
BLACK
6
CONTINUOUS
10
5.60991
20
-3.97321
11
5.60679
21
-3.97009
0
LINE
8
BLACK
6
CONTINUOUS
10
5.60679
20
-3.97009
11
5.60679
21
-3.97009
0
LINE
8
BLACK
6
CONTINUOUS
10
5.60679
20
-3.97009
11
5.60275
21
-3.9683
0
LINE
8
BLACK
6
CONTINUOUS
10
5.60275
20
-3.9683
11
5.60176
21
-3.96819
0
LINE
8
BLACK
6
CONTINUOUS
10
5.60176
20
-3.96819
11
5.57984
21
-3.96819
0
LINE
8
BLACK
6
CONTINUOUS
10
5.57984
20
-3.96819
11
5.57984
21
-3.98
0
LINE
8
BLACK
6
CONTINUOUS
10
5.17984
20
-3.98
11
5.2
21
-3.98
0
LINE
8
BLACK
6
CONTINUOUS
10
5.2
20
-3.98
11
5.2
21
-4.00016
0
LINE
8
BLACK
6
CONTINUOUS
10
5.2
20
-4.00016
11
5.21181
21
-4.00016
0
LINE
8
BLACK
6
CONTINUOUS
10
5.21181
20
-4.00016
11
5.21181
21
-3.97824
0
LINE
8
BLACK
6
CONTINUOUS
10
5.21181
20
-3.97824
11
5.21181
21
-3.97824
0
LINE
8
BLACK
6
CONTINUOUS
10
5.21181
20
-3.97824
11
5.2117
21
-3.97725
0
LINE
8
BLACK
6
CONTINUOUS
10
5.2117
20
-3.97725
11
5.2117
21
-3.97725
0
LINE
8
BLACK
6
CONTINUOUS
10
5.2117
20
-3.97725
11
5.20991
21
-3.97321
0
LINE
8
BLACK
6
CONTINUOUS
10
5.20991
20
-3.97321
11
5.20991
21
-3.97321
0
LINE
8
BLACK
6
CONTINUOUS
10
5.20991
20
-3.97321
11
5.20679
21
-3.97009
0
LINE
8
BLACK
6
CONTINUOUS
10
5.20679
20
-3.97009
11
5.20679
21
-3.97009
0
LINE
8
BLACK
6
CONTINUOUS
10
5.20679
20
-3.97009
11
5.20275
21
-3.9683
0
LINE
8
BLACK
6
CONTINUOUS
10
5.20275
20
-3.9683
11
5.20176
21
-3.96819
0
LINE
8
BLACK
6
CONTINUOUS
10
5.20176
20
-3.96819
11
5.17984
21
-3.96819
0
LINE
8
BLACK
6
CONTINUOUS
10
5.17984
20
-3.96819
11
5.17984
21
-3.98
0
LINE
8
BLACK
6
CONTINUOUS
10
4.84823
20
-3.86817
11
4.84724
21
-3.86828
0
LINE
8
BLACK
6
CONTINUOUS
10
4.84724
20
-3.86828
11
4.84724
21
-3.86828
0
LINE
8
BLACK
6
CONTINUOUS
10
4.84724
20
-3.86828
11
4.8432
21
-3.87007
0
LINE
8
BLACK
6
CONTINUOUS
10
4.8432
20
-3.87007
11
4.84007
21
-3.8732
0
LINE
8
BLACK
6
CONTINUOUS
10
4.84007
20
-3.8732
11
4.83828
21
-3.87724
0
LINE
8
BLACK
6
CONTINUOUS
10
4.83828
20
-3.87724
11
4.83828
21
-3.87724
0
LINE
8
BLACK
6
CONTINUOUS
10
4.83828
20
-3.87724
11
4.83817
21
-3.87823
0
LINE
8
BLACK
6
CONTINUOUS
10
4.83817
20
-3.87823
11
4.83817
21
-3.94177
0
LINE
8
BLACK
6
CONTINUOUS
10
4.83817
20
-3.94177
11
4.83817
21
-3.94177
0
LINE
8
BLACK
6
CONTINUOUS
10
4.83817
20
-3.94177
11
4.83828
21
-3.94276
0
LINE
8
BLACK
6
CONTINUOUS
10
4.83828
20
-3.94276
11
4.83828
21
-3.94276
0
LINE
8
BLACK
6
CONTINUOUS
10
4.83828
20
-3.94276
11
4.84007
21
-3.9468
0
LINE
8
BLACK
6
CONTINUOUS
10
4.84007
20
-3.9468
11
4.84007
21
-3.9468
0
LINE
8
BLACK
6
CONTINUOUS
10
4.84007
20
-3.9468
11
4.8432
21
-3.94993
0
LINE
8
BLACK
6
CONTINUOUS
10
4.8432
20
-3.94993
11
4.84724
21
-3.95172
0
LINE
8
BLACK
6
CONTINUOUS
10
4.84724
20
-3.95172
11
4.84823
21
-3.95183
0
LINE
8
BLACK
6
CONTINUOUS
10
4.84823
20
-3.95183
11
4.91177
21
-3.95183
0
LINE
8
BLACK
6
CONTINUOUS
10
4.91177
20
-3.95183
11
4.91177
21
-3.95183
0
LINE
8
BLACK
6
CONTINUOUS
10
4.91177
20
-3.95183
11
4.91177
21
-3.95183
0
LINE
8
BLACK
6
CONTINUOUS
10
4.91177
20
-3.95183
11
4.91276
21
-3.95172
0
LINE
8
BLACK
6
CONTINUOUS
10
4.91276
20
-3.95172
11
4.91276
21
-3.95172
0
LINE
8
BLACK
6
CONTINUOUS
10
4.91276
20
-3.95172
11
4.91276
21
-3.95172
0
LINE
8
BLACK
6
CONTINUOUS
10
4.91276
20
-3.95172
11
4.9168
21
-3.94993
0
LINE
8
BLACK
6
CONTINUOUS
10
4.9168
20
-3.94993
11
4.91993
21
-3.9468
0
LINE
8
BLACK
6
CONTINUOUS
10
4.91993
20
-3.9468
11
4.92172
21
-3.94276
0
LINE
8
BLACK
6
CONTINUOUS
10
4.92172
20
-3.94276
11
4.92183
21
-3.94177
0
LINE
8
BLACK
6
CONTINUOUS
10
4.92183
20
-3.94177
11
4.92183
21
-3.94177
0
LINE
8
BLACK
6
CONTINUOUS
10
4.92183
20
-3.94177
11
4.92183
21
-3.87823
0
LINE
8
BLACK
6
CONTINUOUS
10
4.92183
20
-3.87823
11
4.92183
21
-3.87823
0
LINE
8
BLACK
6
CONTINUOUS
10
4.92183
20
-3.87823
11
4.92172
21
-3.87724
0
LINE
8
BLACK
6
CONTINUOUS
10
4.92172
20
-3.87724
11
4.92172
21
-3.87724
0
LINE
8
BLACK
6
CONTINUOUS
10
4.92172
20
-3.87724
11
4.92172
21
-3.87724
0
LINE
8
BLACK
6
CONTINUOUS
10
4.92172
20
-3.87724
11
4.91993
21
-3.8732
0
LINE
8
BLACK
6
CONTINUOUS
10
4.91993
20
-3.8732
11
4.9168
21
-3.87007
0
LINE
8
BLACK
6
CONTINUOUS
10
4.9168
20
-3.87007
11
4.9168
21
-3.87007
0
LINE
8
BLACK
6
CONTINUOUS
10
4.9168
20
-3.87007
11
4.91276
21
-3.86828
0
LINE
8
BLACK
6
CONTINUOUS
10
4.91276
20
-3.86828
11
4.91177
21
-3.86817
0
LINE
8
BLACK
6
CONTINUOUS
10
4.91177
20
-3.86817
11
4.84823
21
-3.86817
0
LINE
8
BLACK
6
CONTINUOUS
10
4.84823
20
-3.86817
11
4.84823
21
-3.86817
0
LINE
8
BLACK
6
CONTINUOUS
10
5.21181
20
-3.94176
11
5.21181
21
-3.94176
0
LINE
8
BLACK
6
CONTINUOUS
10
5.21181
20
-3.94176
11
5.21181
21
-3.91984
0
LINE
8
BLACK
6
CONTINUOUS
10
5.21181
20
-3.91984
11
5.2
21
-3.91984
0
LINE
8
BLACK
6
CONTINUOUS
10
5.2
20
-3.91984
11
5.2
21
-3.94
0
LINE
8
BLACK
6
CONTINUOUS
10
5.2
20
-3.94
11
5.17984
21
-3.94
0
LINE
8
BLACK
6
CONTINUOUS
10
5.17984
20
-3.94
11
5.17984
21
-3.95181
0
LINE
8
BLACK
6
CONTINUOUS
10
5.17984
20
-3.95181
11
5.17984
21
-3.95181
0
LINE
8
BLACK
6
CONTINUOUS
10
5.17984
20
-3.95181
11
5.20176
21
-3.95181
0
LINE
8
BLACK
6
CONTINUOUS
10
5.20176
20
-3.95181
11
5.20176
21
-3.95181
0
LINE
8
BLACK
6
CONTINUOUS
10
5.20176
20
-3.95181
11
5.20275
21
-3.9517
0
LINE
8
BLACK
6
CONTINUOUS
10
5.20275
20
-3.9517
11
5.20275
21
-3.9517
0
LINE
8
BLACK
6
CONTINUOUS
10
5.20275
20
-3.9517
11
5.20679
21
-3.94991
0
LINE
8
BLACK
6
CONTINUOUS
10
5.20679
20
-3.94991
11
5.20679
21
-3.94991
0
LINE
8
BLACK
6
CONTINUOUS
10
5.20679
20
-3.94991
11
5.20991
21
-3.94679
0
LINE
8
BLACK
6
CONTINUOUS
10
5.20991
20
-3.94679
11
5.20991
21
-3.94679
0
LINE
8
BLACK
6
CONTINUOUS
10
5.20991
20
-3.94679
11
5.2117
21
-3.94275
0
LINE
8
BLACK
6
CONTINUOUS
10
5.2117
20
-3.94275
11
5.2117
21
-3.94275
0
LINE
8
BLACK
6
CONTINUOUS
10
5.2117
20
-3.94275
11
5.21181
21
-3.94177
0
LINE
8
BLACK
6
CONTINUOUS
10
5.21181
20
-3.94177
11
5.21181
21
-3.94176
0
LINE
8
BLACK
6
CONTINUOUS
10
5.12819
20
-3.91984
11
5.12819
21
-3.94176
0
LINE
8
BLACK
6
CONTINUOUS
10
5.12819
20
-3.94176
11
5.12819
21
-3.94176
0
LINE
8
BLACK
6
CONTINUOUS
10
5.12819
20
-3.94176
11
5.1283
21
-3.94275
0
LINE
8
BLACK
6
CONTINUOUS
10
5.1283
20
-3.94275
11
5.1283
21
-3.94275
0
LINE
8
BLACK
6
CONTINUOUS
10
5.1283
20
-3.94275
11
5.13009
21
-3.94679
0
LINE
8
BLACK
6
CONTINUOUS
10
5.13009
20
-3.94679
11
5.13009
21
-3.94679
0
LINE
8
BLACK
6
CONTINUOUS
10
5.13009
20
-3.94679
11
5.13321
21
-3.94991
0
LINE
8
BLACK
6
CONTINUOUS
10
5.13321
20
-3.94991
11
5.13321
21
-3.94991
0
LINE
8
BLACK
6
CONTINUOUS
10
5.13321
20
-3.94991
11
5.13725
21
-3.9517
0
LINE
8
BLACK
6
CONTINUOUS
10
5.13725
20
-3.9517
11
5.13824
21
-3.95181
0
LINE
8
BLACK
6
CONTINUOUS
10
5.13824
20
-3.95181
11
5.16016
21
-3.95181
0
LINE
8
BLACK
6
CONTINUOUS
10
5.16016
20
-3.95181
11
5.16016
21
-3.95181
0
LINE
8
BLACK
6
CONTINUOUS
10
5.16016
20
-3.95181
11
5.16016
21
-3.94
0
LINE
8
BLACK
6
CONTINUOUS
10
5.16016
20
-3.94
11
5.14
21
-3.94
0
LINE
8
BLACK
6
CONTINUOUS
10
5.14
20
-3.94
11
5.14
21
-3.91984
0
LINE
8
BLACK
6
CONTINUOUS
10
5.14
20
-3.91984
11
5.12819
21
-3.91984
0
LINE
8
BLACK
6
CONTINUOUS
10
5.52819
20
-3.91984
11
5.52819
21
-3.94176
0
LINE
8
BLACK
6
CONTINUOUS
10
5.52819
20
-3.94176
11
5.52819
21
-3.94176
0
LINE
8
BLACK
6
CONTINUOUS
10
5.52819
20
-3.94176
11
5.5283
21
-3.94275
0
LINE
8
BLACK
6
CONTINUOUS
10
5.5283
20
-3.94275
11
5.5283
21
-3.94275
0
LINE
8
BLACK
6
CONTINUOUS
10
5.5283
20
-3.94275
11
5.53009
21
-3.94679
0
LINE
8
BLACK
6
CONTINUOUS
10
5.53009
20
-3.94679
11
5.53009
21
-3.94679
0
LINE
8
BLACK
6
CONTINUOUS
10
5.53009
20
-3.94679
11
5.53321
21
-3.94991
0
LINE
8
BLACK
6
CONTINUOUS
10
5.53321
20
-3.94991
11
5.53321
21
-3.94991
0
LINE
8
BLACK
6
CONTINUOUS
10
5.53321
20
-3.94991
11
5.53725
21
-3.9517
0
LINE
8
BLACK
6
CONTINUOUS
10
5.53725
20
-3.9517
11
5.53824
21
-3.95181
0
LINE
8
BLACK
6
CONTINUOUS
10
5.53824
20
-3.95181
11
5.56016
21
-3.95181
0
LINE
8
BLACK
6
CONTINUOUS
10
5.56016
20
-3.95181
11
5.56016
21
-3.95181
0
LINE
8
BLACK
6
CONTINUOUS
10
5.56016
20
-3.95181
11
5.56016
21
-3.94
0
LINE
8
BLACK
6
CONTINUOUS
10
5.56016
20
-3.94
11
5.54
21
-3.94
0
LINE
8
BLACK
6
CONTINUOUS
10
5.54
20
-3.94
11
5.54
21
-3.91984
0
LINE
8
BLACK
6
CONTINUOUS
10
5.54
20
-3.91984
11
5.52819
21
-3.91984
0
LINE
8
BLACK
6
CONTINUOUS
10
5.6
20
-3.94
11
5.57984
21
-3.94
0
LINE
8
BLACK
6
CONTINUOUS
10
5.57984
20
-3.94
11
5.57984
21
-3.95181
0
LINE
8
BLACK
6
CONTINUOUS
10
5.57984
20
-3.95181
11
5.60176
21
-3.95181
0
LINE
8
BLACK
6
CONTINUOUS
10
5.60176
20
-3.95181
11
5.60176
21
-3.95181
0
LINE
8
BLACK
6
CONTINUOUS
10
5.60176
20
-3.95181
11
5.60275
21
-3.9517
0
LINE
8
BLACK
6
CONTINUOUS
10
5.60275
20
-3.9517
11
5.60275
21
-3.9517
0
LINE
8
BLACK
6
CONTINUOUS
10
5.60275
20
-3.9517
11
5.60679
21
-3.94991
0
LINE
8
BLACK
6
CONTINUOUS
10
5.60679
20
-3.94991
11
5.60679
21
-3.94991
0
LINE
8
BLACK
6
CONTINUOUS
10
5.60679
20
-3.94991
11
5.60991
21
-3.94679
0
LINE
8
BLACK
6
CONTINUOUS
10
5.60991
20
-3.94679
11
5.60991
21
-3.94679
0
LINE
8
BLACK
6
CONTINUOUS
10
5.60991
20
-3.94679
11
5.6117
21
-3.94275
0
LINE
8
BLACK
6
CONTINUOUS
10
5.6117
20
-3.94275
11
5.6117
21
-3.94275
0
LINE
8
BLACK
6
CONTINUOUS
10
5.6117
20
-3.94275
11
5.61181
21
-3.94176
0
LINE
8
BLACK
6
CONTINUOUS
10
5.61181
20
-3.94176
11
5.61181
21
-3.94176
0
LINE
8
BLACK
6
CONTINUOUS
10
5.61181
20
-3.94176
11
5.61181
21
-3.91984
0
LINE
8
BLACK
6
CONTINUOUS
10
5.61181
20
-3.91984
11
5.6
21
-3.91984
0
LINE
8
BLACK
6
CONTINUOUS
10
5.6
20
-3.91984
11
5.6
21
-3.94
0
LINE
8
BLACK
6
CONTINUOUS
10
4.93817
20
-3.94177
11
4.93828
21
-3.94276
0
LINE
8
BLACK
6
CONTINUOUS
10
4.93828
20
-3.94276
11
4.93828
21
-3.94276
0
LINE
8
BLACK
6
CONTINUOUS
10
4.93828
20
-3.94276
11
4.94007
21
-3.9468
0
LINE
8
BLACK
6
CONTINUOUS
10
4.94007
20
-3.9468
11
4.94007
21
-3.9468
0
LINE
8
BLACK
6
CONTINUOUS
10
4.94007
20
-3.9468
11
4.9432
21
-3.94993
0
LINE
8
BLACK
6
CONTINUOUS
10
4.9432
20
-3.94993
11
4.94724
21
-3.95172
0
LINE
8
BLACK
6
CONTINUOUS
10
4.94724
20
-3.95172
11
4.94823
21
-3.95183
0
LINE
8
BLACK
6
CONTINUOUS
10
4.94823
20
-3.95183
11
5.01177
21
-3.95183
0
LINE
8
BLACK
6
CONTINUOUS
10
5.01177
20
-3.95183
11
5.01177
21
-3.95183
0
LINE
8
BLACK
6
CONTINUOUS
10
5.01177
20
-3.95183
11
5.01177
21
-3.95183
0
LINE
8
BLACK
6
CONTINUOUS
10
5.01177
20
-3.95183
11
5.01276
21
-3.95172
0
LINE
8
BLACK
6
CONTINUOUS
10
5.01276
20
-3.95172
11
5.01276
21
-3.95172
0
LINE
8
BLACK
6
CONTINUOUS
10
5.01276
20
-3.95172
11
5.01276
21
-3.95172
0
LINE
8
BLACK
6
CONTINUOUS
10
5.01276
20
-3.95172
11
5.0168
21
-3.94993
0
LINE
8
BLACK
6
CONTINUOUS
10
5.0168
20
-3.94993
11
5.01993
21
-3.9468
0
LINE
8
BLACK
6
CONTINUOUS
10
5.01993
20
-3.9468
11
5.02172
21
-3.94276
0
LINE
8
BLACK
6
CONTINUOUS
10
5.02172
20
-3.94276
11
5.02183
21
-3.94177
0
LINE
8
BLACK
6
CONTINUOUS
10
5.02183
20
-3.94177
11
5.02183
21
-3.90016
0
LINE
8
BLACK
6
CONTINUOUS
10
5.02183
20
-3.90016
11
5.02183
21
-3.87823
0
LINE
8
BLACK
6
CONTINUOUS
10
5.02183
20
-3.87823
11
5.02183
21
-3.87823
0
LINE
8
BLACK
6
CONTINUOUS
10
5.02183
20
-3.87823
11
5.02172
21
-3.87724
0
LINE
8
BLACK
6
CONTINUOUS
10
5.02172
20
-3.87724
11
5.02172
21
-3.87724
0
LINE
8
BLACK
6
CONTINUOUS
10
5.02172
20
-3.87724
11
5.02172
21
-3.87724
0
LINE
8
BLACK
6
CONTINUOUS
10
5.02172
20
-3.87724
11
5.01993
21
-3.8732
0
LINE
8
BLACK
6
CONTINUOUS
10
5.01993
20
-3.8732
11
5.0168
21
-3.87007
0
LINE
8
BLACK
6
CONTINUOUS
10
5.0168
20
-3.87007
11
5.0168
21
-3.87007
0
LINE
8
BLACK
6
CONTINUOUS
10
5.0168
20
-3.87007
11
5.01276
21
-3.86828
0
LINE
8
BLACK
6
CONTINUOUS
10
5.01276
20
-3.86828
11
5.01177
21
-3.86817
0
LINE
8
BLACK
6
CONTINUOUS
10
5.01177
20
-3.86817
11
4.94823
21
-3.86817
0
LINE
8
BLACK
6
CONTINUOUS
10
4.94823
20
-3.86817
11
4.94823
21
-3.86817
0
LINE
8
BLACK
6
CONTINUOUS
10
4.94823
20
-3.86817
11
4.94724
21
-3.86828
0
LINE
8
BLACK
6
CONTINUOUS
10
4.94724
20
-3.86828
11
4.94724
21
-3.86828
0
LINE
8
BLACK
6
CONTINUOUS
10
4.94724
20
-3.86828
11
4.9432
21
-3.87007
0
LINE
8
BLACK
6
CONTINUOUS
10
4.9432
20
-3.87007
11
4.94007
21
-3.8732
0
LINE
8
BLACK
6
CONTINUOUS
10
4.94007
20
-3.8732
11
4.93828
21
-3.87724
0
LINE
8
BLACK
6
CONTINUOUS
10
4.93828
20
-3.87724
11
4.93828
21
-3.87724
0
LINE
8
BLACK
6
CONTINUOUS
10
4.93828
20
-3.87724
11
4.93817
21
-3.87823
0
LINE
8
BLACK
6
CONTINUOUS
10
4.93817
20
-3.87823
11
4.93817
21
-3.94177
0
LINE
8
BLACK
6
CONTINUOUS
10
4.93817
20
-3.94177
11
4.93817
21
-3.94177
0
LINE
8
BLACK
6
CONTINUOUS
10
5.22817
20
-3.94177
11
5.22828
21
-3.94276
0
LINE
8
BLACK
6
CONTINUOUS
10
5.22828
20
-3.94276
11
5.22828
21
-3.94276
0
LINE
8
BLACK
6
CONTINUOUS
10
5.22828
20
-3.94276
11
5.23007
21
-3.9468
0
LINE
8
BLACK
6
CONTINUOUS
10
5.23007
20
-3.9468
11
5.23007
21
-3.9468
0
LINE
8
BLACK
6
CONTINUOUS
10
5.23007
20
-3.9468
11
5.2332
21
-3.94993
0
LINE
8
BLACK
6
CONTINUOUS
10
5.2332
20
-3.94993
11
5.23724
21
-3.95172
0
LINE
8
BLACK
6
CONTINUOUS
10
5.23724
20
-3.95172
11
5.23823
21
-3.95183
0
LINE
8
BLACK
6
CONTINUOUS
10
5.23823
20
-3.95183
11
5.30177
21
-3.95183
0
LINE
8
BLACK
6
CONTINUOUS
10
5.30177
20
-3.95183
11
5.30177
21
-3.95183
0
LINE
8
BLACK
6
CONTINUOUS
10
5.30177
20
-3.95183
11
5.30177
21
-3.95183
0
LINE
8
BLACK
6
CONTINUOUS
10
5.30177
20
-3.95183
11
5.30276
21
-3.95172
0
LINE
8
BLACK
6
CONTINUOUS
10
5.30276
20
-3.95172
11
5.30276
21
-3.95172
0
LINE
8
BLACK
6
CONTINUOUS
10
5.30276
20
-3.95172
11
5.30276
21
-3.95172
0
LINE
8
BLACK
6
CONTINUOUS
10
5.30276
20
-3.95172
11
5.3068
21
-3.94993
0
LINE
8
BLACK
6
CONTINUOUS
10
5.3068
20
-3.94993
11
5.30993
21
-3.9468
0
LINE
8
BLACK
6
CONTINUOUS
10
5.30993
20
-3.9468
11
5.31172
21
-3.94276
0
LINE
8
BLACK
6
CONTINUOUS
10
5.31172
20
-3.94276
11
5.31183
21
-3.94177
0
LINE
8
BLACK
6
CONTINUOUS
10
5.31183
20
-3.94177
11
5.31183
21
-3.94177
0
LINE
8
BLACK
6
CONTINUOUS
10
5.31183
20
-3.94177
11
5.31183
21
-3.87823
0
LINE
8
BLACK
6
CONTINUOUS
10
5.31183
20
-3.87823
11
5.31183
21
-3.87823
0
LINE
8
BLACK
6
CONTINUOUS
10
5.31183
20
-3.87823
11
5.31172
21
-3.87724
0
LINE
8
BLACK
6
CONTINUOUS
10
5.31172
20
-3.87724
11
5.31172
21
-3.87724
0
LINE
8
BLACK
6
CONTINUOUS
10
5.31172
20
-3.87724
11
5.31172
21
-3.87724
0
LINE
8
BLACK
6
CONTINUOUS
10
5.31172
20
-3.87724
11
5.30993
21
-3.8732
0
LINE
8
BLACK
6
CONTINUOUS
10
5.30993
20
-3.8732
11
5.3068
21
-3.87007
0
LINE
8
BLACK
6
CONTINUOUS
10
5.3068
20
-3.87007
11
5.3068
21
-3.87007
0
LINE
8
BLACK
6
CONTINUOUS
10
5.3068
20
-3.87007
11
5.30276
21
-3.86828
0
LINE
8
BLACK
6
CONTINUOUS
10
5.30276
20
-3.86828
11
5.30177
21
-3.86817
0
LINE
8
BLACK
6
CONTINUOUS
10
5.30177
20
-3.86817
11
5.23823
21
-3.86817
0
LINE
8
BLACK
6
CONTINUOUS
10
5.23823
20
-3.86817
11
5.23823
21
-3.86817
0
LINE
8
BLACK
6
CONTINUOUS
10
5.23823
20
-3.86817
11
5.23724
21
-3.86828
0
LINE
8
BLACK
6
CONTINUOUS
10
5.23724
20
-3.86828
11
5.23724
21
-3.86828
0
LINE
8
BLACK
6
CONTINUOUS
10
5.23724
20
-3.86828
11
5.2332
21
-3.87007
0
LINE
8
BLACK
6
CONTINUOUS
10
5.2332
20
-3.87007
11
5.23007
21
-3.8732
0
LINE
8
BLACK
6
CONTINUOUS
10
5.23007
20
-3.8732
11
5.22828
21
-3.87724
0
LINE
8
BLACK
6
CONTINUOUS
10
5.22828
20
-3.87724
11
5.22828
21
-3.87724
0
LINE
8
BLACK
6
CONTINUOUS
10
5.22828
20
-3.87724
11
5.22817
21
-3.87823
0
LINE
8
BLACK
6
CONTINUOUS
10
5.22817
20
-3.87823
11
5.22817
21
-3.94177
0
LINE
8
BLACK
6
CONTINUOUS
10
5.22817
20
-3.94177
11
5.22817
21
-3.94177
0
LINE
8
BLACK
6
CONTINUOUS
10
5.32817
20
-3.94177
11
5.32828
21
-3.94276
0
LINE
8
BLACK
6
CONTINUOUS
10
5.32828
20
-3.94276
11
5.32828
21
-3.94276
0
LINE
8
BLACK
6
CONTINUOUS
10
5.32828
20
-3.94276
11
5.33007
21
-3.9468
0
LINE
8
BLACK
6
CONTINUOUS
10
5.33007
20
-3.9468
11
5.33007
21
-3.9468
0
LINE
8
BLACK
6
CONTINUOUS
10
5.33007
20
-3.9468
11
5.3332
21
-3.94993
0
LINE
8
BLACK
6
CONTINUOUS
10
5.3332
20
-3.94993
11
5.33724
21
-3.95172
0
LINE
8
BLACK
6
CONTINUOUS
10
5.33724
20
-3.95172
11
5.33823
21
-3.95183
0
LINE
8
BLACK
6
CONTINUOUS
10
5.33823
20
-3.95183
11
5.40177
21
-3.95183
0
LINE
8
BLACK
6
CONTINUOUS
10
5.40177
20
-3.95183
11
5.40177
21
-3.95183
0
LINE
8
BLACK
6
CONTINUOUS
10
5.40177
20
-3.95183
11
5.40177
21
-3.95183
0
LINE
8
BLACK
6
CONTINUOUS
10
5.40177
20
-3.95183
11
5.40276
21
-3.95172
0
LINE
8
BLACK
6
CONTINUOUS
10
5.40276
20
-3.95172
11
5.40276
21
-3.95172
0
LINE
8
BLACK
6
CONTINUOUS
10
5.40276
20
-3.95172
11
5.40276
21
-3.95172
0
LINE
8
BLACK
6
CONTINUOUS
10
5.40276
20
-3.95172
11
5.4068
21
-3.94993
0
LINE
8
BLACK
6
CONTINUOUS
10
5.4068
20
-3.94993
11
5.40993
21
-3.9468
0
LINE
8
BLACK
6
CONTINUOUS
10
5.40993
20
-3.9468
11
5.41172
21
-3.94276
0
LINE
8
BLACK
6
CONTINUOUS
10
5.41172
20
-3.94276
11
5.41183
21
-3.94177
0
LINE
8
BLACK
6
CONTINUOUS
10
5.41183
20
-3.94177
11
5.41183
21
-3.94177
0
LINE
8
BLACK
6
CONTINUOUS
10
5.41183
20
-3.94177
11
5.41183
21
-3.87823
0
LINE
8
BLACK
6
CONTINUOUS
10
5.41183
20
-3.87823
11
5.41183
21
-3.87823
0
LINE
8
BLACK
6
CONTINUOUS
10
5.41183
20
-3.87823
11
5.41172
21
-3.87724
0
LINE
8
BLACK
6
CONTINUOUS
10
5.41172
20
-3.87724
11
5.41172
21
-3.87724
0
LINE
8
BLACK
6
CONTINUOUS
10
5.41172
20
-3.87724
11
5.41172
21
-3.87724
0
LINE
8
BLACK
6
CONTINUOUS
10
5.41172
20
-3.87724
11
5.40993
21
-3.8732
0
LINE
8
BLACK
6
CONTINUOUS
10
5.40993
20
-3.8732
11
5.4068
21
-3.87007
0
LINE
8
BLACK
6
CONTINUOUS
10
5.4068
20
-3.87007
11
5.4068
21
-3.87007
0
LINE
8
BLACK
6
CONTINUOUS
10
5.4068
20
-3.87007
11
5.40276
21
-3.86828
0
LINE
8
BLACK
6
CONTINUOUS
10
5.40276
20
-3.86828
11
5.40177
21
-3.86817
0
LINE
8
BLACK
6
CONTINUOUS
10
5.40177
20
-3.86817
11
5.33823
21
-3.86817
0
LINE
8
BLACK
6
CONTINUOUS
10
5.33823
20
-3.86817
11
5.33823
21
-3.86817
0
LINE
8
BLACK
6
CONTINUOUS
10
5.33823
20
-3.86817
11
5.33724
21
-3.86828
0
LINE
8
BLACK
6
CONTINUOUS
10
5.33724
20
-3.86828
11
5.33724
21
-3.86828
0
LINE
8
BLACK
6
CONTINUOUS
10
5.33724
20
-3.86828
11
5.3332
21
-3.87007
0
LINE
8
BLACK
6
CONTINUOUS
10
5.3332
20
-3.87007
11
5.33007
21
-3.8732
0
LINE
8
BLACK
6
CONTINUOUS
10
5.33007
20
-3.8732
11
5.32828
21
-3.87724
0
LINE
8
BLACK
6
CONTINUOUS
10
5.32828
20
-3.87724
11
5.32828
21
-3.87724
0
LINE
8
BLACK
6
CONTINUOUS
10
5.32828
20
-3.87724
11
5.32817
21
-3.87823
0
LINE
8
BLACK
6
CONTINUOUS
10
5.32817
20
-3.87823
11
5.32817
21
-3.94177
0
LINE
8
BLACK
6
CONTINUOUS
10
5.32817
20
-3.94177
11
5.32817
21
-3.94177
0
LINE
8
BLACK
6
CONTINUOUS
10
5.42817
20
-3.94177
11
5.42828
21
-3.94276
0
LINE
8
BLACK
6
CONTINUOUS
10
5.42828
20
-3.94276
11
5.42828
21
-3.94276
0
LINE
8
BLACK
6
CONTINUOUS
10
5.42828
20
-3.94276
11
5.43007
21
-3.9468
0
LINE
8
BLACK
6
CONTINUOUS
10
5.43007
20
-3.9468
11
5.43007
21
-3.9468
0
LINE
8
BLACK
6
CONTINUOUS
10
5.43007
20
-3.9468
11
5.4332
21
-3.94993
0
LINE
8
BLACK
6
CONTINUOUS
10
5.4332
20
-3.94993
11
5.43724
21
-3.95172
0
LINE
8
BLACK
6
CONTINUOUS
10
5.43724
20
-3.95172
11
5.43823
21
-3.95183
0
LINE
8
BLACK
6
CONTINUOUS
10
5.43823
20
-3.95183
11
5.50177
21
-3.95183
0
LINE
8
BLACK
6
CONTINUOUS
10
5.50177
20
-3.95183
11
5.50177
21
-3.95183
0
LINE
8
BLACK
6
CONTINUOUS
10
5.50177
20
-3.95183
11
5.50177
21
-3.95183
0
LINE
8
BLACK
6
CONTINUOUS
10
5.50177
20
-3.95183
11
5.50276
21
-3.95172
0
LINE
8
BLACK
6
CONTINUOUS
10
5.50276
20
-3.95172
11
5.50276
21
-3.95172
0
LINE
8
BLACK
6
CONTINUOUS
10
5.50276
20
-3.95172
11
5.50276
21
-3.95172
0
LINE
8
BLACK
6
CONTINUOUS
10
5.50276
20
-3.95172
11
5.5068
21
-3.94993
0
LINE
8
BLACK
6
CONTINUOUS
10
5.5068
20
-3.94993
11
5.50993
21
-3.9468
0
LINE
8
BLACK
6
CONTINUOUS
10
5.50993
20
-3.9468
11
5.51172
21
-3.94276
0
LINE
8
BLACK
6
CONTINUOUS
10
5.51172
20
-3.94276
11
5.51183
21
-3.94177
0
LINE
8
BLACK
6
CONTINUOUS
10
5.51183
20
-3.94177
11
5.51183
21
-3.90016
0
LINE
8
BLACK
6
CONTINUOUS
10
5.51183
20
-3.90016
11
5.51183
21
-3.87823
0
LINE
8
BLACK
6
CONTINUOUS
10
5.51183
20
-3.87823
11
5.51183
21
-3.87823
0
LINE
8
BLACK
6
CONTINUOUS
10
5.51183
20
-3.87823
11
5.51172
21
-3.87724
0
LINE
8
BLACK
6
CONTINUOUS
10
5.51172
20
-3.87724
11
5.51172
21
-3.87724
0
LINE
8
BLACK
6
CONTINUOUS
10
5.51172
20
-3.87724
11
5.51172
21
-3.87724
0
LINE
8
BLACK
6
CONTINUOUS
10
5.51172
20
-3.87724
11
5.50993
21
-3.8732
0
LINE
8
BLACK
6
CONTINUOUS
10
5.50993
20
-3.8732
11
5.5068
21
-3.87007
0
LINE
8
BLACK
6
CONTINUOUS
10
5.5068
20
-3.87007
11
5.5068
21
-3.87007
0
LINE
8
BLACK
6
CONTINUOUS
10
5.5068
20
-3.87007
11
5.50276
21
-3.86828
0
LINE
8
BLACK
6
CONTINUOUS
10
5.50276
20
-3.86828
11
5.50177
21
-3.86817
0
LINE
8
BLACK
6
CONTINUOUS
10
5.50177
20
-3.86817
11
5.43823
21
-3.86817
0
LINE
8
BLACK
6
CONTINUOUS
10
5.43823
20
-3.86817
11
5.43823
21
-3.86817
0
LINE
8
BLACK
6
CONTINUOUS
10
5.43823
20
-3.86817
11
5.43724
21
-3.86828
0
LINE
8
BLACK
6
CONTINUOUS
10
5.43724
20
-3.86828
11
5.43724
21
-3.86828
0
LINE
8
BLACK
6
CONTINUOUS
10
5.43724
20
-3.86828
11
5.4332
21
-3.87007
0
LINE
8
BLACK
6
CONTINUOUS
10
5.4332
20
-3.87007
11
5.43007
21
-3.8732
0
LINE
8
BLACK
6
CONTINUOUS
10
5.43007
20
-3.8732
11
5.42828
21
-3.87724
0
LINE
8
BLACK
6
CONTINUOUS
10
5.42828
20
-3.87724
11
5.42828
21
-3.87724
0
LINE
8
BLACK
6
CONTINUOUS
10
5.42828
20
-3.87724
11
5.42817
21
-3.87823
0
LINE
8
BLACK
6
CONTINUOUS
10
5.42817
20
-3.87823
11
5.42817
21
-3.94177
0
LINE
8
BLACK
6
CONTINUOUS
10
5.42817
20
-3.94177
11
5.42817
21
-3.94177
0
LINE
8
BLACK
6
CONTINUOUS
10
5.57984
20
-3.88
11
5.6
21
-3.88
0
LINE
8
BLACK
6
CONTINUOUS
10
5.6
20
-3.88
11
5.6
21
-3.90016
0
LINE
8
BLACK
6
CONTINUOUS
10
5.6
20
-3.90016
11
5.61181
21
-3.90016
0
LINE
8
BLACK
6
CONTINUOUS
10
5.61181
20
-3.90016
11
5.61181
21
-3.87824
0
LINE
8
BLACK
6
CONTINUOUS
10
5.61181
20
-3.87824
11
5.61181
21
-3.87824
0
LINE
8
BLACK
6
CONTINUOUS
10
5.61181
20
-3.87824
11
5.6117
21
-3.87725
0
LINE
8
BLACK
6
CONTINUOUS
10
5.6117
20
-3.87725
11
5.6117
21
-3.87725
0
LINE
8
BLACK
6
CONTINUOUS
10
5.6117
20
-3.87725
11
5.60991
21
-3.87321
0
LINE
8
BLACK
6
CONTINUOUS
10
5.60991
20
-3.87321
11
5.60991
21
-3.87321
0
LINE
8
BLACK
6
CONTINUOUS
10
5.60991
20
-3.87321
11
5.60679
21
-3.87009
0
LINE
8
BLACK
6
CONTINUOUS
10
5.60679
20
-3.87009
11
5.60679
21
-3.87009
0
LINE
8
BLACK
6
CONTINUOUS
10
5.60679
20
-3.87009
11
5.60275
21
-3.8683
0
LINE
8
BLACK
6
CONTINUOUS
10
5.60275
20
-3.8683
11
5.60176
21
-3.86819
0
LINE
8
BLACK
6
CONTINUOUS
10
5.60176
20
-3.86819
11
5.57984
21
-3.86819
0
LINE
8
BLACK
6
CONTINUOUS
10
5.57984
20
-3.86819
11
5.57984
21
-3.88
0
LINE
8
BLACK
6
CONTINUOUS
10
5.17984
20
-3.88
11
5.2
21
-3.88
0
LINE
8
BLACK
6
CONTINUOUS
10
5.2
20
-3.88
11
5.2
21
-3.90016
0
LINE
8
BLACK
6
CONTINUOUS
10
5.2
20
-3.90016
11
5.21181
21
-3.90016
0
LINE
8
BLACK
6
CONTINUOUS
10
5.21181
20
-3.90016
11
5.21181
21
-3.90016
0
LINE
8
BLACK
6
CONTINUOUS
10
5.21181
20
-3.90016
11
5.21181
21
-3.87824
0
LINE
8
BLACK
6
CONTINUOUS
10
5.21181
20
-3.87824
11
5.21181
21
-3.87824
0
LINE
8
BLACK
6
CONTINUOUS
10
5.21181
20
-3.87824
11
5.2117
21
-3.87725
0
LINE
8
BLACK
6
CONTINUOUS
10
5.2117
20
-3.87725
11
5.2117
21
-3.87725
0
LINE
8
BLACK
6
CONTINUOUS
10
5.2117
20
-3.87725
11
5.20991
21
-3.87321
0
LINE
8
BLACK
6
CONTINUOUS
10
5.20991
20
-3.87321
11
5.20991
21
-3.87321
0
LINE
8
BLACK
6
CONTINUOUS
10
5.20991
20
-3.87321
11
5.20679
21
-3.87009
0
LINE
8
BLACK
6
CONTINUOUS
10
5.20679
20
-3.87009
11
5.20679
21
-3.87009
0
LINE
8
BLACK
6
CONTINUOUS
10
5.20679
20
-3.87009
11
5.20275
21
-3.8683
0
LINE
8
BLACK
6
CONTINUOUS
10
5.20275
20
-3.8683
11
5.20176
21
-3.86819
0
LINE
8
BLACK
6
CONTINUOUS
10
5.20176
20
-3.86819
11
5.17984
21
-3.86819
0
LINE
8
BLACK
6
CONTINUOUS
10
5.17984
20
-3.86819
11
5.17984
21
-3.88
0
LINE
8
BLACK
6
CONTINUOUS
10
5.33
20
-4.49016
11
5.33
21
-4.47
0
LINE
8
BLACK
6
CONTINUOUS
10
5.33
20
-4.47
11
5.35016
21
-4.47
0
LINE
8
BLACK
6
CONTINUOUS
10
5.35016
20
-4.47
11
5.35016
21
-4.45819
0
LINE
8
BLACK
6
CONTINUOUS
10
5.35016
20
-4.45819
11
5.32824
21
-4.45819
0
LINE
8
BLACK
6
CONTINUOUS
10
5.32824
20
-4.45819
11
5.32824
21
-4.45819
0
LINE
8
BLACK
6
CONTINUOUS
10
5.32824
20
-4.45819
11
5.32725
21
-4.4583
0
LINE
8
BLACK
6
CONTINUOUS
10
5.32725
20
-4.4583
11
5.32725
21
-4.4583
0
LINE
8
BLACK
6
CONTINUOUS
10
5.32725
20
-4.4583
11
5.32321
21
-4.46009
0
LINE
8
BLACK
6
CONTINUOUS
10
5.32321
20
-4.46009
11
5.32321
21
-4.46009
0
LINE
8
BLACK
6
CONTINUOUS
10
5.32321
20
-4.46009
11
5.32009
21
-4.46321
0
LINE
8
BLACK
6
CONTINUOUS
10
5.32009
20
-4.46321
11
5.32009
21
-4.46321
0
LINE
8
BLACK
6
CONTINUOUS
10
5.32009
20
-4.46321
11
5.3183
21
-4.46725
0
LINE
8
BLACK
6
CONTINUOUS
10
5.3183
20
-4.46725
11
5.3183
21
-4.46725
0
LINE
8
BLACK
6
CONTINUOUS
10
5.3183
20
-4.46725
11
5.31819
21
-4.46824
0
LINE
8
BLACK
6
CONTINUOUS
10
5.31819
20
-4.46824
11
5.31819
21
-4.49016
0
LINE
8
BLACK
6
CONTINUOUS
10
5.31819
20
-4.49016
11
5.33
21
-4.49016
0
LINE
8
BLACK
6
CONTINUOUS
10
5.53
20
-4.49016
11
5.53
21
-4.47
0
LINE
8
BLACK
6
CONTINUOUS
10
5.53
20
-4.47
11
5.55016
21
-4.47
0
LINE
8
BLACK
6
CONTINUOUS
10
5.55016
20
-4.47
11
5.55016
21
-4.45819
0
LINE
8
BLACK
6
CONTINUOUS
10
5.55016
20
-4.45819
11
5.52824
21
-4.45819
0
LINE
8
BLACK
6
CONTINUOUS
10
5.52824
20
-4.45819
11
5.52824
21
-4.45819
0
LINE
8
BLACK
6
CONTINUOUS
10
5.52824
20
-4.45819
11
5.52725
21
-4.4583
0
LINE
8
BLACK
6
CONTINUOUS
10
5.52725
20
-4.4583
11
5.52725
21
-4.4583
0
LINE
8
BLACK
6
CONTINUOUS
10
5.52725
20
-4.4583
11
5.52321
21
-4.46009
0
LINE
8
BLACK
6
CONTINUOUS
10
5.52321
20
-4.46009
11
5.52321
21
-4.46009
0
LINE
8
BLACK
6
CONTINUOUS
10
5.52321
20
-4.46009
11
5.52009
21
-4.46321
0
LINE
8
BLACK
6
CONTINUOUS
10
5.52009
20
-4.46321
11
5.52009
21
-4.46321
0
LINE
8
BLACK
6
CONTINUOUS
10
5.52009
20
-4.46321
11
5.5183
21
-4.46725
0
LINE
8
BLACK
6
CONTINUOUS
10
5.5183
20
-4.46725
11
5.5183
21
-4.46725
0
LINE
8
BLACK
6
CONTINUOUS
10
5.5183
20
-4.46725
11
5.51819
21
-4.46824
0
LINE
8
BLACK
6
CONTINUOUS
10
5.51819
20
-4.46824
11
5.51819
21
-4.49016
0
LINE
8
BLACK
6
CONTINUOUS
10
5.51819
20
-4.49016
11
5.53
21
-4.49016
0
LINE
8
BLACK
6
CONTINUOUS
10
5.33
20
-4.39016
11
5.33
21
-4.37
0
LINE
8
BLACK
6
CONTINUOUS
10
5.33
20
-4.37
11
5.35016
21
-4.37
0
LINE
8
BLACK
6
CONTINUOUS
10
5.35016
20
-4.37
11
5.35016
21
-4.35819
0
LINE
8
BLACK
6
CONTINUOUS
10
5.35016
20
-4.35819
11
5.32824
21
-4.35819
0
LINE
8
BLACK
6
CONTINUOUS
10
5.32824
20
-4.35819
11
5.32824
21
-4.35819
0
LINE
8
BLACK
6
CONTINUOUS
10
5.32824
20
-4.35819
11
5.32725
21
-4.3583
0
LINE
8
BLACK
6
CONTINUOUS
10
5.32725
20
-4.3583
11
5.32725
21
-4.3583
0
LINE
8
BLACK
6
CONTINUOUS
10
5.32725
20
-4.3583
11
5.32321
21
-4.36009
0
LINE
8
BLACK
6
CONTINUOUS
10
5.32321
20
-4.36009
11
5.32321
21
-4.36009
0
LINE
8
BLACK
6
CONTINUOUS
10
5.32321
20
-4.36009
11
5.32009
21
-4.36321
0
LINE
8
BLACK
6
CONTINUOUS
10
5.32009
20
-4.36321
11
5.32009
21
-4.36321
0
LINE
8
BLACK
6
CONTINUOUS
10
5.32009
20
-4.36321
11
5.3183
21
-4.36725
0
LINE
8
BLACK
6
CONTINUOUS
10
5.3183
20
-4.36725
11
5.3183
21
-4.36725
0
LINE
8
BLACK
6
CONTINUOUS
10
5.3183
20
-4.36725
11
5.31819
21
-4.36824
0
LINE
8
BLACK
6
CONTINUOUS
10
5.31819
20
-4.36824
11
5.31819
21
-4.39016
0
LINE
8
BLACK
6
CONTINUOUS
10
5.31819
20
-4.39016
11
5.33
21
-4.39016
0
LINE
8
BLACK
6
CONTINUOUS
10
5.53
20
-4.39016
11
5.53
21
-4.37
0
LINE
8
BLACK
6
CONTINUOUS
10
5.53
20
-4.37
11
5.55016
21
-4.37
0
LINE
8
BLACK
6
CONTINUOUS
10
5.55016
20
-4.37
11
5.55016
21
-4.35819
0
LINE
8
BLACK
6
CONTINUOUS
10
5.55016
20
-4.35819
11
5.52824
21
-4.35819
0
LINE
8
BLACK
6
CONTINUOUS
10
5.52824
20
-4.35819
11
5.52824
21
-4.35819
0
LINE
8
BLACK
6
CONTINUOUS
10
5.52824
20
-4.35819
11
5.52725
21
-4.3583
0
LINE
8
BLACK
6
CONTINUOUS
10
5.52725
20
-4.3583
11
5.52725
21
-4.3583
0
LINE
8
BLACK
6
CONTINUOUS
10
5.52725
20
-4.3583
11
5.52321
21
-4.36009
0
LINE
8
BLACK
6
CONTINUOUS
10
5.52321
20
-4.36009
11
5.52321
21
-4.36009
0
LINE
8
BLACK
6
CONTINUOUS
10
5.52321
20
-4.36009
11
5.52009
21
-4.36321
0
LINE
8
BLACK
6
CONTINUOUS
10
5.52009
20
-4.36321
11
5.52009
21
-4.36321
0
LINE
8
BLACK
6
CONTINUOUS
10
5.52009
20
-4.36321
11
5.5183
21
-4.36725
0
LINE
8
BLACK
6
CONTINUOUS
10
5.5183
20
-4.36725
11
5.5183
21
-4.36725
0
LINE
8
BLACK
6
CONTINUOUS
10
5.5183
20
-4.36725
11
5.51819
21
-4.36824
0
LINE
8
BLACK
6
CONTINUOUS
10
5.51819
20
-4.36824
11
5.51819
21
-4.39016
0
LINE
8
BLACK
6
CONTINUOUS
10
5.51819
20
-4.39016
11
5.53
21
-4.39016
0
LINE
8
BLACK
6
CONTINUOUS
10
5.14
20
-4.00016
11
5.14
21
-3.98
0
LINE
8
BLACK
6
CONTINUOUS
10
5.14
20
-3.98
11
5.16016
21
-3.98
0
LINE
8
BLACK
6
CONTINUOUS
10
5.16016
20
-3.98
11
5.16016
21
-3.96819
0
LINE
8
BLACK
6
CONTINUOUS
10
5.16016
20
-3.96819
11
5.13824
21
-3.96819
0
LINE
8
BLACK
6
CONTINUOUS
10
5.13824
20
-3.96819
11
5.13824
21
-3.96819
0
LINE
8
BLACK
6
CONTINUOUS
10
5.13824
20
-3.96819
11
5.13725
21
-3.9683
0
LINE
8
BLACK
6
CONTINUOUS
10
5.13725
20
-3.9683
11
5.13725
21
-3.9683
0
LINE
8
BLACK
6
CONTINUOUS
10
5.13725
20
-3.9683
11
5.13321
21
-3.97009
0
LINE
8
BLACK
6
CONTINUOUS
10
5.13321
20
-3.97009
11
5.13321
21
-3.97009
0
LINE
8
BLACK
6
CONTINUOUS
10
5.13321
20
-3.97009
11
5.13009
21
-3.97321
0
LINE
8
BLACK
6
CONTINUOUS
10
5.13009
20
-3.97321
11
5.13009
21
-3.97321
0
LINE
8
BLACK
6
CONTINUOUS
10
5.13009
20
-3.97321
11
5.1283
21
-3.97725
0
LINE
8
BLACK
6
CONTINUOUS
10
5.1283
20
-3.97725
11
5.1283
21
-3.97725
0
LINE
8
BLACK
6
CONTINUOUS
10
5.1283
20
-3.97725
11
5.12819
21
-3.97824
0
LINE
8
BLACK
6
CONTINUOUS
10
5.12819
20
-3.97824
11
5.12819
21
-4.00016
0
LINE
8
BLACK
6
CONTINUOUS
10
5.12819
20
-4.00016
11
5.14
21
-4.00016
0
LINE
8
BLACK
6
CONTINUOUS
10
5.54
20
-4.00016
11
5.54
21
-3.98
0
LINE
8
BLACK
6
CONTINUOUS
10
5.54
20
-3.98
11
5.56016
21
-3.98
0
LINE
8
BLACK
6
CONTINUOUS
10
5.56016
20
-3.98
11
5.56016
21
-3.96819
0
LINE
8
BLACK
6
CONTINUOUS
10
5.56016
20
-3.96819
11
5.53824
21
-3.96819
0
LINE
8
BLACK
6
CONTINUOUS
10
5.53824
20
-3.96819
11
5.53824
21
-3.96819
0
LINE
8
BLACK
6
CONTINUOUS
10
5.53824
20
-3.96819
11
5.53725
21
-3.9683
0
LINE
8
BLACK
6
CONTINUOUS
10
5.53725
20
-3.9683
11
5.53725
21
-3.9683
0
LINE
8
BLACK
6
CONTINUOUS
10
5.53725
20
-3.9683
11
5.53321
21
-3.97009
0
LINE
8
BLACK
6
CONTINUOUS
10
5.53321
20
-3.97009
11
5.53321
21
-3.97009
0
LINE
8
BLACK
6
CONTINUOUS
10
5.53321
20
-3.97009
11
5.53009
21
-3.97321
0
LINE
8
BLACK
6
CONTINUOUS
10
5.53009
20
-3.97321
11
5.53009
21
-3.97321
0
LINE
8
BLACK
6
CONTINUOUS
10
5.53009
20
-3.97321
11
5.5283
21
-3.97725
0
LINE
8
BLACK
6
CONTINUOUS
10
5.5283
20
-3.97725
11
5.5283
21
-3.97725
0
LINE
8
BLACK
6
CONTINUOUS
10
5.5283
20
-3.97725
11
5.52819
21
-3.97824
0
LINE
8
BLACK
6
CONTINUOUS
10
5.52819
20
-3.97824
11
5.52819
21
-4.00016
0
LINE
8
BLACK
6
CONTINUOUS
10
5.52819
20
-4.00016
11
5.54
21
-4.00016
0
LINE
8
BLACK
6
CONTINUOUS
10
5.14
20
-3.90016
11
5.14
21
-3.88
0
LINE
8
BLACK
6
CONTINUOUS
10
5.14
20
-3.88
11
5.16016
21
-3.88
0
LINE
8
BLACK
6
CONTINUOUS
10
5.16016
20
-3.88
11
5.16016
21
-3.86819
0
LINE
8
BLACK
6
CONTINUOUS
10
5.16016
20
-3.86819
11
5.13824
21
-3.86819
0
LINE
8
BLACK
6
CONTINUOUS
10
5.13824
20
-3.86819
11
5.13824
21
-3.86819
0
LINE
8
BLACK
6
CONTINUOUS
10
5.13824
20
-3.86819
11
5.13725
21
-3.8683
0
LINE
8
BLACK
6
CONTINUOUS
10
5.13725
20
-3.8683
11
5.13725
21
-3.8683
0
LINE
8
BLACK
6
CONTINUOUS
10
5.13725
20
-3.8683
11
5.13321
21
-3.87009
0
LINE
8
BLACK
6
CONTINUOUS
10
5.13321
20
-3.87009
11
5.13321
21
-3.87009
0
LINE
8
BLACK
6
CONTINUOUS
10
5.13321
20
-3.87009
11
5.13009
21
-3.87321
0
LINE
8
BLACK
6
CONTINUOUS
10
5.13009
20
-3.87321
11
5.13009
21
-3.87321
0
LINE
8
BLACK
6
CONTINUOUS
10
5.13009
20
-3.87321
11
5.1283
21
-3.87725
0
LINE
8
BLACK
6
CONTINUOUS
10
5.1283
20
-3.87725
11
5.1283
21
-3.87725
0
LINE
8
BLACK
6
CONTINUOUS
10
5.1283
20
-3.87725
11
5.12819
21
-3.87824
0
LINE
8
BLACK
6
CONTINUOUS
10
5.12819
20
-3.87824
11
5.12819
21
-3.90016
0
LINE
8
BLACK
6
CONTINUOUS
10
5.12819
20
-3.90016
11
5.14
21
-3.90016
0
LINE
8
BLACK
6
CONTINUOUS
10
5.54
20
-3.90016
11
5.54
21
-3.88
0
LINE
8
BLACK
6
CONTINUOUS
10
5.54
20
-3.88
11
5.56016
21
-3.88
0
LINE
8
BLACK
6
CONTINUOUS
10
5.56016
20
-3.88
11
5.56016
21
-3.86819
0
LINE
8
BLACK
6
CONTINUOUS
10
5.56016
20
-3.86819
11
5.53824
21
-3.86819
0
LINE
8
BLACK
6
CONTINUOUS
10
5.53824
20
-3.86819
11
5.53824
21
-3.86819
0
LINE
8
BLACK
6
CONTINUOUS
10
5.53824
20
-3.86819
11
5.53725
21
-3.8683
0
LINE
8
BLACK
6
CONTINUOUS
10
5.53725
20
-3.8683
11
5.53725
21
-3.8683
0
LINE
8
BLACK
6
CONTINUOUS
10
5.53725
20
-3.8683
11
5.53321
21
-3.87009
0
LINE
8
BLACK
6
CONTINUOUS
10
5.53321
20
-3.87009
11
5.53321
21
-3.87009
0
LINE
8
BLACK
6
CONTINUOUS
10
5.53321
20
-3.87009
11
5.53009
21
-3.87321
0
LINE
8
BLACK
6
CONTINUOUS
10
5.53009
20
-3.87321
11
5.53009
21
-3.87321
0
LINE
8
BLACK
6
CONTINUOUS
10
5.53009
20
-3.87321
11
5.5283
21
-3.87725
0
LINE
8
BLACK
6
CONTINUOUS
10
5.5283
20
-3.87725
11
5.5283
21
-3.87725
0
LINE
8
BLACK
6
CONTINUOUS
10
5.5283
20
-3.87725
11
5.52819
21
-3.87824
0
LINE
8
BLACK
6
CONTINUOUS
10
5.52819
20
-3.87824
11
5.52819
21
-3.90016
0
LINE
8
BLACK
6
CONTINUOUS
10
5.52819
20
-3.90016
11
5.54
21
-3.90016
0
CIRCLE
8
BLACK
10
5.57
20
-3.91
40
0.00688976
0
CIRCLE
8
BLACK
10
5.57
20
-4.01
40
0.00688976
0
CIRCLE
8
BLACK
10
5.47
20
-3.91
40
0.00688976
0
CIRCLE
8
BLACK
10
5.47
20
-4.01
40
0.00688976
0
CIRCLE
8
BLACK
10
5.37
20
-3.91
40
0.00688976
0
CIRCLE
8
BLACK
10
5.37
20
-4.01
40
0.00688976
0
CIRCLE
8
BLACK
10
5.27
20
-3.91
40
0.00688976
0
CIRCLE
8
BLACK
10
5.27
20
-4.01
40
0.00688976
0
CIRCLE
8
BLACK
10
5.17
20
-3.91
40
0.00688976
0
CIRCLE
8
BLACK
10
5.17
20
-4.01
40
0.00688976
0
CIRCLE
8
BLACK
10
4.98
20
-3.91
40
0.00688976
0
CIRCLE
8
BLACK
10
4.98
20
-4.01
40
0.00688976
0
CIRCLE
8
BLACK
10
4.88
20
-3.91
40
0.00688976
0
CIRCLE
8
BLACK
10
4.88
20
-4.01
40
0.00688976
0
CIRCLE
8
BLACK
10
5.8
20
-4.4
40
0.00688976
0
CIRCLE
8
BLACK
10
4.6
20
-4
40
0.00688976
0
CIRCLE
8
BLACK
10
5.36
20
-4.5
40
0.00688976
0
CIRCLE
8
BLACK
10
5.36
20
-4.4
40
0.00688976
0
CIRCLE
8
BLACK
10
5.46
20
-4.5
40
0.00688976
0
CIRCLE
8
BLACK
10
5.46
20
-4.4
40
0.00688976
0
CIRCLE
8
BLACK
10
5.56
20
-4.5
40
0.00688976
0
CIRCLE
8
BLACK
10
5.56
20
-4.4
40
0.00688976
0
CIRCLE
8
BLACK
10
5.8
20
-4
40
0.00688976
0
CIRCLE
8
BLACK
10
4.6
20
-4.4
40
0.00688976
0
CIRCLE
8
BLACK
10
5.18898
20
-4.4252
40
0.00787402
0
CIRCLE
8
BLACK
10
5.4611
20
-4.23622
40
0.00787402
0
CIRCLE
8
BLACK
10
5.04218
20
-4.37402
40
0.00787402
0
CIRCLE
8
BLACK
10
5.01
20
-4.52
40
0.00787402
0
CIRCLE
8
BLACK
10
5.25
20
-4.19
40
0.00787402
0
CIRCLE
8
BLACK
10
5.29
20
-4.19
40
0.00787402
0
CIRCLE
8
BLACK
10
5.37
20
-4.19
40
0.00787402
0
CIRCLE
8
BLACK
10
5.01
20
-4.44
40
0.00787402
0
CIRCLE
8
BLACK
10
5.33
20
-4.19
40
0.00787402
0
CIRCLE
8
BLACK
10
5.11417
20
-4.25591
40
0.00787402
0
CIRCLE
8
BLACK
10
5.01
20
-4.48
40
0.00787402
  0
ENDSEC
  0
EOF
