  0
SECTION
  2
HEADER
  9
$ANGBASE
  50
0.0
  9
$ANGDIR
  70
1
  9
$MEASUREMENT
  70
0
  0
ENDSEC
  0
SECTION
  2
TABLES
  0
TABLE
  2
LTYPE
  70
4
  0
LTYPE
  5
40F
  2
CONTINUOUS
  70
0
  3
Solid line
  72
65
  73
0
  40
0.0
  0
LTYPE
  5
410
  2
DASHDOT
 70
0
  3
Dash Dot ____ _ ____ _
 72
65
 73
4
 40
2.0
 49
1.25
 49
-0.25
 49
0.25
 49
-0.25
  0
LTYPE
  5
411
  2
DASHED
 70
0
  3
Dashed __ __ __ __ __
 72
65
 73
2
 40
0.75
 49
0.5
 49
-0.25
  0
LTYPE
  5
43B
  2
DOTTED
 70
0
  3
Dotted .  .  .  .
 72
65
 73
2
 40
0.2
 49
0.0
 49
-0.2
  0
ENDTAB
  0
TABLE
  2
STYLE
  70
4
  0
STYLE
  2
KICAD
  70
0
  40
0
  41
1
  42
1
  50
0
  71
0
  3
isocp.shx
  0
STYLE
  2
KICADB
  70
0
  40
0
  41
1
  42
1
  50
0
  71
0
  3
isocp.shx
  0
STYLE
  2
KICADI
  70
0
  40
0
  41
1
  42
1
  50
15
  71
0
  3
isocp.shx
  0
STYLE
  2
KICADBI
  70
0
  40
0
  41
1
  42
1
  50
15
  71
0
  3
isocp.shx
  0
ENDTAB
  0
TABLE
  2
LAYER
  70
1
  0
LAYER
  2
BLACK
  70
0
  62
7
  6
CONTINUOUS
  0
ENDTAB
  0
ENDSEC
  0
SECTION
  2
ENTITIES
0
LINE
8
BLACK
6
CONTINUOUS
10
5.05617
20
-4.55924
11
5.05293
21
-4.55707
0
LINE
8
BLACK
6
CONTINUOUS
10
5.05293
20
-4.55707
11
5.01586
21
-4.52
0
LINE
8
BLACK
6
CONTINUOUS
10
5.01586
20
-4.52
11
4.97
21
-4.52
0
LINE
8
BLACK
6
CONTINUOUS
10
4.97
20
-4.52
11
4.97
21
-4.46
0
LINE
8
BLACK
6
CONTINUOUS
10
4.97
20
-4.46
11
5.03
21
-4.46
0
LINE
8
BLACK
6
CONTINUOUS
10
5.03
20
-4.46
11
5.03
21
-4.50586
0
LINE
8
BLACK
6
CONTINUOUS
10
5.03
20
-4.50586
11
5.06414
21
-4.54
0
LINE
8
BLACK
6
CONTINUOUS
10
5.06414
20
-4.54
11
5.33586
21
-4.54
0
LINE
8
BLACK
6
CONTINUOUS
10
5.33586
20
-4.54
11
5.38447
21
-4.49139
0
LINE
8
BLACK
6
CONTINUOUS
10
5.38447
20
-4.49139
11
5.38425
21
-4.49
0
LINE
8
BLACK
6
CONTINUOUS
10
5.38425
20
-4.49
11
5.38502
21
-4.48513
0
LINE
8
BLACK
6
CONTINUOUS
10
5.38502
20
-4.48513
11
5.38726
21
-4.48074
0
LINE
8
BLACK
6
CONTINUOUS
10
5.38726
20
-4.48074
11
5.39
21
-4.478
0
LINE
8
BLACK
6
CONTINUOUS
10
5.39
20
-4.478
11
5.39
21
-4.37943
0
LINE
8
BLACK
6
CONTINUOUS
10
5.39
20
-4.37943
11
5.38753
21
-4.37894
0
LINE
8
BLACK
6
CONTINUOUS
10
5.38753
20
-4.37894
11
5.38434
21
-4.3768
0
LINE
8
BLACK
6
CONTINUOUS
10
5.38434
20
-4.3768
11
5.38221
21
-4.37361
0
LINE
8
BLACK
6
CONTINUOUS
10
5.38221
20
-4.37361
11
5.38149
21
-4.37
0
LINE
8
BLACK
6
CONTINUOUS
10
5.38149
20
-4.37
11
5.34563
21
-4.37
0
LINE
8
BLACK
6
CONTINUOUS
10
5.34563
20
-4.37
11
5.34563
21
-4.38496
0
LINE
8
BLACK
6
CONTINUOUS
10
5.34563
20
-4.38496
11
5.32201
21
-4.38496
0
LINE
8
BLACK
6
CONTINUOUS
10
5.32201
20
-4.38496
11
5.32201
21
-4.34165
0
LINE
8
BLACK
6
CONTINUOUS
10
5.32201
20
-4.34165
11
5.34563
21
-4.34165
0
LINE
8
BLACK
6
CONTINUOUS
10
5.34563
20
-4.34165
11
5.34563
21
-4.35
0
LINE
8
BLACK
6
CONTINUOUS
10
5.34563
20
-4.35
11
5.38149
21
-4.35
0
LINE
8
BLACK
6
CONTINUOUS
10
5.38149
20
-4.35
11
5.38221
21
-4.34639
0
LINE
8
BLACK
6
CONTINUOUS
10
5.38221
20
-4.34639
11
5.38434
21
-4.3432
0
LINE
8
BLACK
6
CONTINUOUS
10
5.38434
20
-4.3432
11
5.38753
21
-4.34106
0
LINE
8
BLACK
6
CONTINUOUS
10
5.38753
20
-4.34106
11
5.3913
21
-4.34031
0
LINE
8
BLACK
6
CONTINUOUS
10
5.3913
20
-4.34031
11
5.4287
21
-4.34031
0
LINE
8
BLACK
6
CONTINUOUS
10
5.4287
20
-4.34031
11
5.43247
21
-4.34106
0
LINE
8
BLACK
6
CONTINUOUS
10
5.43247
20
-4.34106
11
5.43566
21
-4.3432
0
LINE
8
BLACK
6
CONTINUOUS
10
5.43566
20
-4.3432
11
5.43779
21
-4.34639
0
LINE
8
BLACK
6
CONTINUOUS
10
5.43779
20
-4.34639
11
5.43851
21
-4.35
0
LINE
8
BLACK
6
CONTINUOUS
10
5.43851
20
-4.35
11
5.47149
21
-4.35
0
LINE
8
BLACK
6
CONTINUOUS
10
5.47149
20
-4.35
11
5.47221
21
-4.34639
0
LINE
8
BLACK
6
CONTINUOUS
10
5.47221
20
-4.34639
11
5.47434
21
-4.3432
0
LINE
8
BLACK
6
CONTINUOUS
10
5.47434
20
-4.3432
11
5.47753
21
-4.34106
0
LINE
8
BLACK
6
CONTINUOUS
10
5.47753
20
-4.34106
11
5.4813
21
-4.34031
0
LINE
8
BLACK
6
CONTINUOUS
10
5.4813
20
-4.34031
11
5.51554
21
-4.34031
0
LINE
8
BLACK
6
CONTINUOUS
10
5.51554
20
-4.34031
11
5.57
21
-4.28586
0
LINE
8
BLACK
6
CONTINUOUS
10
5.57
20
-4.28586
11
5.57
21
-4.192
0
LINE
8
BLACK
6
CONTINUOUS
10
5.57
20
-4.192
11
5.56726
21
-4.18926
0
LINE
8
BLACK
6
CONTINUOUS
10
5.56726
20
-4.18926
11
5.56502
21
-4.18487
0
LINE
8
BLACK
6
CONTINUOUS
10
5.56502
20
-4.18487
11
5.56425
21
-4.18
0
LINE
8
BLACK
6
CONTINUOUS
10
5.56425
20
-4.18
11
5.56502
21
-4.17513
0
LINE
8
BLACK
6
CONTINUOUS
10
5.56502
20
-4.17513
11
5.56726
21
-4.17074
0
LINE
8
BLACK
6
CONTINUOUS
10
5.56726
20
-4.17074
11
5.57074
21
-4.16726
0
LINE
8
BLACK
6
CONTINUOUS
10
5.57074
20
-4.16726
11
5.57513
21
-4.16502
0
LINE
8
BLACK
6
CONTINUOUS
10
5.57513
20
-4.16502
11
5.58
21
-4.16425
0
LINE
8
BLACK
6
CONTINUOUS
10
5.58
20
-4.16425
11
5.58487
21
-4.16502
0
LINE
8
BLACK
6
CONTINUOUS
10
5.58487
20
-4.16502
11
5.58926
21
-4.16726
0
LINE
8
BLACK
6
CONTINUOUS
10
5.58926
20
-4.16726
11
5.59274
21
-4.17074
0
LINE
8
BLACK
6
CONTINUOUS
10
5.59274
20
-4.17074
11
5.59498
21
-4.17513
0
LINE
8
BLACK
6
CONTINUOUS
10
5.59498
20
-4.17513
11
5.59575
21
-4.18
0
LINE
8
BLACK
6
CONTINUOUS
10
5.59575
20
-4.18
11
5.59498
21
-4.18487
0
LINE
8
BLACK
6
CONTINUOUS
10
5.59498
20
-4.18487
11
5.59274
21
-4.18926
0
LINE
8
BLACK
6
CONTINUOUS
10
5.59274
20
-4.18926
11
5.59
21
-4.192
0
LINE
8
BLACK
6
CONTINUOUS
10
5.59
20
-4.192
11
5.59
21
-4.29
0
LINE
8
BLACK
6
CONTINUOUS
10
5.59
20
-4.29
11
5.58924
21
-4.29383
0
LINE
8
BLACK
6
CONTINUOUS
10
5.58924
20
-4.29383
11
5.58707
21
-4.29707
0
LINE
8
BLACK
6
CONTINUOUS
10
5.58707
20
-4.29707
11
5.52854
21
-4.3556
0
LINE
8
BLACK
6
CONTINUOUS
10
5.52854
20
-4.3556
11
5.52854
21
-4.36984
0
LINE
8
BLACK
6
CONTINUOUS
10
5.52854
20
-4.36984
11
5.52779
21
-4.37361
0
LINE
8
BLACK
6
CONTINUOUS
10
5.52779
20
-4.37361
11
5.52566
21
-4.3768
0
LINE
8
BLACK
6
CONTINUOUS
10
5.52566
20
-4.3768
11
5.52247
21
-4.37894
0
LINE
8
BLACK
6
CONTINUOUS
10
5.52247
20
-4.37894
11
5.5187
21
-4.37969
0
LINE
8
BLACK
6
CONTINUOUS
10
5.5187
20
-4.37969
11
5.4813
21
-4.37969
0
LINE
8
BLACK
6
CONTINUOUS
10
5.4813
20
-4.37969
11
5.47753
21
-4.37894
0
LINE
8
BLACK
6
CONTINUOUS
10
5.47753
20
-4.37894
11
5.47434
21
-4.3768
0
LINE
8
BLACK
6
CONTINUOUS
10
5.47434
20
-4.3768
11
5.47221
21
-4.37361
0
LINE
8
BLACK
6
CONTINUOUS
10
5.47221
20
-4.37361
11
5.47149
21
-4.37
0
LINE
8
BLACK
6
CONTINUOUS
10
5.47149
20
-4.37
11
5.43851
21
-4.37
0
LINE
8
BLACK
6
CONTINUOUS
10
5.43851
20
-4.37
11
5.43779
21
-4.37361
0
LINE
8
BLACK
6
CONTINUOUS
10
5.43779
20
-4.37361
11
5.43566
21
-4.3768
0
LINE
8
BLACK
6
CONTINUOUS
10
5.43566
20
-4.3768
11
5.43247
21
-4.37894
0
LINE
8
BLACK
6
CONTINUOUS
10
5.43247
20
-4.37894
11
5.4287
21
-4.37969
0
LINE
8
BLACK
6
CONTINUOUS
10
5.4287
20
-4.37969
11
5.41
21
-4.37969
0
LINE
8
BLACK
6
CONTINUOUS
10
5.41
20
-4.37969
11
5.41
21
-4.478
0
LINE
8
BLACK
6
CONTINUOUS
10
5.41
20
-4.478
11
5.41274
21
-4.48074
0
LINE
8
BLACK
6
CONTINUOUS
10
5.41274
20
-4.48074
11
5.41498
21
-4.48513
0
LINE
8
BLACK
6
CONTINUOUS
10
5.41498
20
-4.48513
11
5.41575
21
-4.49
0
LINE
8
BLACK
6
CONTINUOUS
10
5.41575
20
-4.49
11
5.41498
21
-4.49487
0
LINE
8
BLACK
6
CONTINUOUS
10
5.41498
20
-4.49487
11
5.41274
21
-4.49926
0
LINE
8
BLACK
6
CONTINUOUS
10
5.41274
20
-4.49926
11
5.40926
21
-4.50274
0
LINE
8
BLACK
6
CONTINUOUS
10
5.40926
20
-4.50274
11
5.40487
21
-4.50498
0
LINE
8
BLACK
6
CONTINUOUS
10
5.40487
20
-4.50498
11
5.4
21
-4.50575
0
LINE
8
BLACK
6
CONTINUOUS
10
5.4
20
-4.50575
11
5.39861
21
-4.50553
0
LINE
8
BLACK
6
CONTINUOUS
10
5.39861
20
-4.50553
11
5.34707
21
-4.55707
0
LINE
8
BLACK
6
CONTINUOUS
10
5.34707
20
-4.55707
11
5.34383
21
-4.55924
0
LINE
8
BLACK
6
CONTINUOUS
10
5.34383
20
-4.55924
11
5.34
21
-4.56
0
LINE
8
BLACK
6
CONTINUOUS
10
5.34
20
-4.56
11
5.06
21
-4.56
0
LINE
8
BLACK
6
CONTINUOUS
10
5.06
20
-4.56
11
5.05617
21
-4.55924
0
LINE
8
BLACK
6
CONTINUOUS
10
5.07
20
-4.52
11
5.07
21
-4.46
0
LINE
8
BLACK
6
CONTINUOUS
10
5.07
20
-4.46
11
5.09
21
-4.46
0
LINE
8
BLACK
6
CONTINUOUS
10
5.09
20
-4.46
11
5.09
21
-4.42
0
LINE
8
BLACK
6
CONTINUOUS
10
5.09
20
-4.42
11
5.07
21
-4.42
0
LINE
8
BLACK
6
CONTINUOUS
10
5.07
20
-4.42
11
5.07
21
-4.36
0
LINE
8
BLACK
6
CONTINUOUS
10
5.07
20
-4.36
11
5.13
21
-4.36
0
LINE
8
BLACK
6
CONTINUOUS
10
5.13
20
-4.36
11
5.13
21
-4.42
0
LINE
8
BLACK
6
CONTINUOUS
10
5.13
20
-4.42
11
5.11
21
-4.42
0
LINE
8
BLACK
6
CONTINUOUS
10
5.11
20
-4.42
11
5.11
21
-4.46
0
LINE
8
BLACK
6
CONTINUOUS
10
5.11
20
-4.46
11
5.13
21
-4.46
0
LINE
8
BLACK
6
CONTINUOUS
10
5.13
20
-4.46
11
5.13
21
-4.48
0
LINE
8
BLACK
6
CONTINUOUS
10
5.13
20
-4.48
11
5.14929
21
-4.48
0
LINE
8
BLACK
6
CONTINUOUS
10
5.14929
20
-4.48
11
5.14989
21
-4.47982
0
LINE
8
BLACK
6
CONTINUOUS
10
5.14989
20
-4.47982
11
5.14993
21
-4.47977
0
LINE
8
BLACK
6
CONTINUOUS
10
5.14993
20
-4.47977
11
5.15
21
-4.47947
0
LINE
8
BLACK
6
CONTINUOUS
10
5.15
20
-4.47947
11
5.15
21
-4.45824
0
LINE
8
BLACK
6
CONTINUOUS
10
5.15
20
-4.45824
11
5.14999
21
-4.45815
0
LINE
8
BLACK
6
CONTINUOUS
10
5.14999
20
-4.45815
11
5.15
21
-4.45813
0
LINE
8
BLACK
6
CONTINUOUS
10
5.15
20
-4.45813
11
5.15
21
-4.45811
0
LINE
8
BLACK
6
CONTINUOUS
10
5.15
20
-4.45811
11
5.15001
21
-4.45811
0
LINE
8
BLACK
6
CONTINUOUS
10
5.15001
20
-4.45811
11
5.15064
21
-4.45543
0
LINE
8
BLACK
6
CONTINUOUS
10
5.15064
20
-4.45543
11
5.15265
21
-4.45349
0
LINE
8
BLACK
6
CONTINUOUS
10
5.15265
20
-4.45349
11
5.15539
21
-4.45294
0
LINE
8
BLACK
6
CONTINUOUS
10
5.15539
20
-4.45294
11
5.15697
21
-4.45335
0
LINE
8
BLACK
6
CONTINUOUS
10
5.15697
20
-4.45335
11
5.15865
21
-4.4541
0
LINE
8
BLACK
6
CONTINUOUS
10
5.15865
20
-4.4541
11
5.15865
21
-4.4541
0
LINE
8
BLACK
6
CONTINUOUS
10
5.15865
20
-4.4541
11
5.15889
21
-4.4542
0
LINE
8
BLACK
6
CONTINUOUS
10
5.15889
20
-4.4542
11
5.16256
21
-4.45499
0
LINE
8
BLACK
6
CONTINUOUS
10
5.16256
20
-4.45499
11
5.16599
21
-4.45571
0
LINE
8
BLACK
6
CONTINUOUS
10
5.16599
20
-4.45571
11
5.16599
21
-4.45571
0
LINE
8
BLACK
6
CONTINUOUS
10
5.16599
20
-4.45571
11
5.16624
21
-4.45577
0
LINE
8
BLACK
6
CONTINUOUS
10
5.16624
20
-4.45577
11
5.17376
21
-4.45577
0
LINE
8
BLACK
6
CONTINUOUS
10
5.17376
20
-4.45577
11
5.17401
21
-4.45571
0
LINE
8
BLACK
6
CONTINUOUS
10
5.17401
20
-4.45571
11
5.17401
21
-4.45571
0
LINE
8
BLACK
6
CONTINUOUS
10
5.17401
20
-4.45571
11
5.17744
21
-4.45499
0
LINE
8
BLACK
6
CONTINUOUS
10
5.17744
20
-4.45499
11
5.18111
21
-4.4542
0
LINE
8
BLACK
6
CONTINUOUS
10
5.18111
20
-4.4542
11
5.18135
21
-4.4541
0
LINE
8
BLACK
6
CONTINUOUS
10
5.18135
20
-4.4541
11
5.18774
21
-4.45125
0
LINE
8
BLACK
6
CONTINUOUS
10
5.18774
20
-4.45125
11
5.18775
21
-4.45125
0
LINE
8
BLACK
6
CONTINUOUS
10
5.18775
20
-4.45125
11
5.18798
21
-4.45115
0
LINE
8
BLACK
6
CONTINUOUS
10
5.18798
20
-4.45115
11
5.19407
21
-4.44673
0
LINE
8
BLACK
6
CONTINUOUS
10
5.19407
20
-4.44673
11
5.19424
21
-4.44653
0
LINE
8
BLACK
6
CONTINUOUS
10
5.19424
20
-4.44653
11
5.19892
21
-4.44133
0
LINE
8
BLACK
6
CONTINUOUS
10
5.19892
20
-4.44133
11
5.19892
21
-4.44133
0
LINE
8
BLACK
6
CONTINUOUS
10
5.19892
20
-4.44133
11
5.1991
21
-4.44114
0
LINE
8
BLACK
6
CONTINUOUS
10
5.1991
20
-4.44114
11
5.20205
21
-4.43603
0
LINE
8
BLACK
6
CONTINUOUS
10
5.20205
20
-4.43603
11
5.20273
21
-4.43485
0
LINE
8
BLACK
6
CONTINUOUS
10
5.20273
20
-4.43485
11
5.20273
21
-4.43485
0
LINE
8
BLACK
6
CONTINUOUS
10
5.20273
20
-4.43485
11
5.20286
21
-4.43463
0
LINE
8
BLACK
6
CONTINUOUS
10
5.20286
20
-4.43463
11
5.20518
21
-4.42748
0
LINE
8
BLACK
6
CONTINUOUS
10
5.20518
20
-4.42748
11
5.20535
21
-4.42588
0
LINE
8
BLACK
6
CONTINUOUS
10
5.20535
20
-4.42588
11
5.20641
21
-4.42329
0
LINE
8
BLACK
6
CONTINUOUS
10
5.20641
20
-4.42329
11
5.20665
21
-4.42305
0
LINE
8
BLACK
6
CONTINUOUS
10
5.20665
20
-4.42305
11
5.20664
21
-4.42304
0
LINE
8
BLACK
6
CONTINUOUS
10
5.20664
20
-4.42304
11
5.20684
21
-4.42282
0
LINE
8
BLACK
6
CONTINUOUS
10
5.20684
20
-4.42282
11
5.20706
21
-4.42262
0
LINE
8
BLACK
6
CONTINUOUS
10
5.20706
20
-4.42262
11
5.20851
21
-4.42056
0
LINE
8
BLACK
6
CONTINUOUS
10
5.20851
20
-4.42056
11
5.20866
21
-4.42035
0
LINE
8
BLACK
6
CONTINUOUS
10
5.20866
20
-4.42035
11
5.21003
21
-4.41861
0
LINE
8
BLACK
6
CONTINUOUS
10
5.21003
20
-4.41861
11
5.21022
21
-4.41837
0
LINE
8
BLACK
6
CONTINUOUS
10
5.21022
20
-4.41837
11
5.21034
21
-4.4181
0
LINE
8
BLACK
6
CONTINUOUS
10
5.21034
20
-4.4181
11
5.21039
21
-4.41801
0
LINE
8
BLACK
6
CONTINUOUS
10
5.21039
20
-4.41801
11
5.21072
21
-4.41743
0
LINE
8
BLACK
6
CONTINUOUS
10
5.21072
20
-4.41743
11
5.21077
21
-4.41734
0
LINE
8
BLACK
6
CONTINUOUS
10
5.21077
20
-4.41734
11
5.21094
21
-4.4171
0
LINE
8
BLACK
6
CONTINUOUS
10
5.21094
20
-4.4171
11
5.21105
21
-4.41682
0
LINE
8
BLACK
6
CONTINUOUS
10
5.21105
20
-4.41682
11
5.21105
21
-4.41682
0
LINE
8
BLACK
6
CONTINUOUS
10
5.21105
20
-4.41682
11
5.21186
21
-4.41475
0
LINE
8
BLACK
6
CONTINUOUS
10
5.21186
20
-4.41475
11
5.21196
21
-4.41451
0
LINE
8
BLACK
6
CONTINUOUS
10
5.21196
20
-4.41451
11
5.21299
21
-4.41222
0
LINE
8
BLACK
6
CONTINUOUS
10
5.21299
20
-4.41222
11
5.21305
21
-4.41193
0
LINE
8
BLACK
6
CONTINUOUS
10
5.21305
20
-4.41193
11
5.21308
21
-4.41183
0
LINE
8
BLACK
6
CONTINUOUS
10
5.21308
20
-4.41183
11
5.21326
21
-4.41119
0
LINE
8
BLACK
6
CONTINUOUS
10
5.21326
20
-4.41119
11
5.21329
21
-4.41109
0
LINE
8
BLACK
6
CONTINUOUS
10
5.21329
20
-4.41109
11
5.2134
21
-4.41081
0
LINE
8
BLACK
6
CONTINUOUS
10
5.2134
20
-4.41081
11
5.21344
21
-4.41051
0
LINE
8
BLACK
6
CONTINUOUS
10
5.21344
20
-4.41051
11
5.21364
21
-4.40894
0
LINE
8
BLACK
6
CONTINUOUS
10
5.21364
20
-4.40894
11
5.21477
21
-4.40639
0
LINE
8
BLACK
6
CONTINUOUS
10
5.21477
20
-4.40639
11
5.21711
21
-4.40485
0
LINE
8
BLACK
6
CONTINUOUS
10
5.21711
20
-4.40485
11
5.21923
21
-4.40478
0
LINE
8
BLACK
6
CONTINUOUS
10
5.21923
20
-4.40478
11
5.21924
21
-4.40469
0
LINE
8
BLACK
6
CONTINUOUS
10
5.21924
20
-4.40469
11
5.22156
21
-4.40495
0
LINE
8
BLACK
6
CONTINUOUS
10
5.22156
20
-4.40495
11
5.22182
21
-4.40496
0
LINE
8
BLACK
6
CONTINUOUS
10
5.22182
20
-4.40496
11
5.22468
21
-4.40496
0
LINE
8
BLACK
6
CONTINUOUS
10
5.22468
20
-4.40496
11
5.22528
21
-4.40478
0
LINE
8
BLACK
6
CONTINUOUS
10
5.22528
20
-4.40478
11
5.22533
21
-4.40473
0
LINE
8
BLACK
6
CONTINUOUS
10
5.22533
20
-4.40473
11
5.22539
21
-4.40443
0
LINE
8
BLACK
6
CONTINUOUS
10
5.22539
20
-4.40443
11
5.22539
21
-4.38496
0
LINE
8
BLACK
6
CONTINUOUS
10
5.22539
20
-4.38496
11
5.22358
21
-4.38496
0
LINE
8
BLACK
6
CONTINUOUS
10
5.22358
20
-4.38496
11
5.22358
21
-4.34165
0
LINE
8
BLACK
6
CONTINUOUS
10
5.22358
20
-4.34165
11
5.2472
21
-4.34165
0
LINE
8
BLACK
6
CONTINUOUS
10
5.2472
20
-4.34165
11
5.2472
21
-4.38496
0
LINE
8
BLACK
6
CONTINUOUS
10
5.2472
20
-4.38496
11
5.24539
21
-4.38496
0
LINE
8
BLACK
6
CONTINUOUS
10
5.24539
20
-4.38496
11
5.24539
21
-4.40425
0
LINE
8
BLACK
6
CONTINUOUS
10
5.24539
20
-4.40425
11
5.24557
21
-4.40485
0
LINE
8
BLACK
6
CONTINUOUS
10
5.24557
20
-4.40485
11
5.24562
21
-4.40489
0
LINE
8
BLACK
6
CONTINUOUS
10
5.24562
20
-4.40489
11
5.24593
21
-4.40496
0
LINE
8
BLACK
6
CONTINUOUS
10
5.24593
20
-4.40496
11
5.24896
21
-4.40496
0
LINE
8
BLACK
6
CONTINUOUS
10
5.24896
20
-4.40496
11
5.24923
21
-4.40495
0
LINE
8
BLACK
6
CONTINUOUS
10
5.24923
20
-4.40495
11
5.25123
21
-4.40473
0
LINE
8
BLACK
6
CONTINUOUS
10
5.25123
20
-4.40473
11
5.25183
21
-4.40459
0
LINE
8
BLACK
6
CONTINUOUS
10
5.25183
20
-4.40459
11
5.25309
21
-4.40412
0
LINE
8
BLACK
6
CONTINUOUS
10
5.25309
20
-4.40412
11
5.25588
21
-4.40391
0
LINE
8
BLACK
6
CONTINUOUS
10
5.25588
20
-4.40391
11
5.25833
21
-4.40525
0
LINE
8
BLACK
6
CONTINUOUS
10
5.25833
20
-4.40525
11
5.25947
21
-4.40701
0
LINE
8
BLACK
6
CONTINUOUS
10
5.25947
20
-4.40701
11
5.25971
21
-4.40762
0
LINE
8
BLACK
6
CONTINUOUS
10
5.25971
20
-4.40762
11
5.25987
21
-4.40787
0
LINE
8
BLACK
6
CONTINUOUS
10
5.25987
20
-4.40787
11
5.25992
21
-4.40796
0
LINE
8
BLACK
6
CONTINUOUS
10
5.25992
20
-4.40796
11
5.26025
21
-4.40855
0
LINE
8
BLACK
6
CONTINUOUS
10
5.26025
20
-4.40855
11
5.2603
21
-4.40864
0
LINE
8
BLACK
6
CONTINUOUS
10
5.2603
20
-4.40864
11
5.26042
21
-4.40891
0
LINE
8
BLACK
6
CONTINUOUS
10
5.26042
20
-4.40891
11
5.26188
21
-4.41081
0
LINE
8
BLACK
6
CONTINUOUS
10
5.26188
20
-4.41081
11
5.26195
21
-4.41091
0
LINE
8
BLACK
6
CONTINUOUS
10
5.26195
20
-4.41091
11
5.2621
21
-4.41112
0
LINE
8
BLACK
6
CONTINUOUS
10
5.2621
20
-4.41112
11
5.26336
21
-4.41294
0
LINE
8
BLACK
6
CONTINUOUS
10
5.26336
20
-4.41294
11
5.26336
21
-4.41294
0
LINE
8
BLACK
6
CONTINUOUS
10
5.26336
20
-4.41294
11
5.26346
21
-4.41309
0
LINE
8
BLACK
6
CONTINUOUS
10
5.26346
20
-4.41309
11
5.26346
21
-4.41309
0
LINE
8
BLACK
6
CONTINUOUS
10
5.26346
20
-4.41309
11
5.26353
21
-4.41319
0
LINE
8
BLACK
6
CONTINUOUS
10
5.26353
20
-4.41319
11
5.26351
21
-4.4132
0
LINE
8
BLACK
6
CONTINUOUS
10
5.26351
20
-4.4132
11
5.26464
21
-4.41578
0
LINE
8
BLACK
6
CONTINUOUS
10
5.26464
20
-4.41578
11
5.26482
21
-4.41748
0
LINE
8
BLACK
6
CONTINUOUS
10
5.26482
20
-4.41748
11
5.26714
21
-4.42463
0
LINE
8
BLACK
6
CONTINUOUS
10
5.26714
20
-4.42463
11
5.2709
21
-4.43114
0
LINE
8
BLACK
6
CONTINUOUS
10
5.2709
20
-4.43114
11
5.27108
21
-4.43133
0
LINE
8
BLACK
6
CONTINUOUS
10
5.27108
20
-4.43133
11
5.27108
21
-4.43133
0
LINE
8
BLACK
6
CONTINUOUS
10
5.27108
20
-4.43133
11
5.27576
21
-4.43653
0
LINE
8
BLACK
6
CONTINUOUS
10
5.27576
20
-4.43653
11
5.27593
21
-4.43673
0
LINE
8
BLACK
6
CONTINUOUS
10
5.27593
20
-4.43673
11
5.28202
21
-4.44115
0
LINE
8
BLACK
6
CONTINUOUS
10
5.28202
20
-4.44115
11
5.28225
21
-4.44125
0
LINE
8
BLACK
6
CONTINUOUS
10
5.28225
20
-4.44125
11
5.28226
21
-4.44125
0
LINE
8
BLACK
6
CONTINUOUS
10
5.28226
20
-4.44125
11
5.28865
21
-4.4441
0
LINE
8
BLACK
6
CONTINUOUS
10
5.28865
20
-4.4441
11
5.28889
21
-4.4442
0
LINE
8
BLACK
6
CONTINUOUS
10
5.28889
20
-4.4442
11
5.29256
21
-4.44499
0
LINE
8
BLACK
6
CONTINUOUS
10
5.29256
20
-4.44499
11
5.29599
21
-4.44571
0
LINE
8
BLACK
6
CONTINUOUS
10
5.29599
20
-4.44571
11
5.29599
21
-4.44571
0
LINE
8
BLACK
6
CONTINUOUS
10
5.29599
20
-4.44571
11
5.29624
21
-4.44577
0
LINE
8
BLACK
6
CONTINUOUS
10
5.29624
20
-4.44577
11
5.30376
21
-4.44577
0
LINE
8
BLACK
6
CONTINUOUS
10
5.30376
20
-4.44577
11
5.30401
21
-4.44571
0
LINE
8
BLACK
6
CONTINUOUS
10
5.30401
20
-4.44571
11
5.30401
21
-4.44571
0
LINE
8
BLACK
6
CONTINUOUS
10
5.30401
20
-4.44571
11
5.30744
21
-4.44499
0
LINE
8
BLACK
6
CONTINUOUS
10
5.30744
20
-4.44499
11
5.31111
21
-4.4442
0
LINE
8
BLACK
6
CONTINUOUS
10
5.31111
20
-4.4442
11
5.31135
21
-4.4441
0
LINE
8
BLACK
6
CONTINUOUS
10
5.31135
20
-4.4441
11
5.31774
21
-4.44125
0
LINE
8
BLACK
6
CONTINUOUS
10
5.31774
20
-4.44125
11
5.31775
21
-4.44125
0
LINE
8
BLACK
6
CONTINUOUS
10
5.31775
20
-4.44125
11
5.31798
21
-4.44115
0
LINE
8
BLACK
6
CONTINUOUS
10
5.31798
20
-4.44115
11
5.32407
21
-4.43673
0
LINE
8
BLACK
6
CONTINUOUS
10
5.32407
20
-4.43673
11
5.32424
21
-4.43653
0
LINE
8
BLACK
6
CONTINUOUS
10
5.32424
20
-4.43653
11
5.32892
21
-4.43133
0
LINE
8
BLACK
6
CONTINUOUS
10
5.32892
20
-4.43133
11
5.32892
21
-4.43133
0
LINE
8
BLACK
6
CONTINUOUS
10
5.32892
20
-4.43133
11
5.3291
21
-4.43114
0
LINE
8
BLACK
6
CONTINUOUS
10
5.3291
20
-4.43114
11
5.33286
21
-4.42463
0
LINE
8
BLACK
6
CONTINUOUS
10
5.33286
20
-4.42463
11
5.33518
21
-4.41748
0
LINE
8
BLACK
6
CONTINUOUS
10
5.33518
20
-4.41748
11
5.33548
21
-4.41463
0
LINE
8
BLACK
6
CONTINUOUS
10
5.33548
20
-4.41463
11
5.33594
21
-4.41026
0
LINE
8
BLACK
6
CONTINUOUS
10
5.33594
20
-4.41026
11
5.33596
21
-4.41
0
LINE
8
BLACK
6
CONTINUOUS
10
5.33596
20
-4.41
11
5.33595
21
-4.40989
0
LINE
8
BLACK
6
CONTINUOUS
10
5.33595
20
-4.40989
11
5.33673
21
-4.40726
0
LINE
8
BLACK
6
CONTINUOUS
10
5.33673
20
-4.40726
11
5.33884
21
-4.40543
0
LINE
8
BLACK
6
CONTINUOUS
10
5.33884
20
-4.40543
11
5.3409
21
-4.40498
0
LINE
8
BLACK
6
CONTINUOUS
10
5.3409
20
-4.40498
11
5.34752
21
-4.40498
0
LINE
8
BLACK
6
CONTINUOUS
10
5.34752
20
-4.40498
11
5.34997
21
-4.40471
0
LINE
8
BLACK
6
CONTINUOUS
10
5.34997
20
-4.40471
11
5.35534
21
-4.4027
0
LINE
8
BLACK
6
CONTINUOUS
10
5.35534
20
-4.4027
11
5.35993
21
-4.39926
0
LINE
8
BLACK
6
CONTINUOUS
10
5.35993
20
-4.39926
11
5.36105
21
-4.39777
0
LINE
8
BLACK
6
CONTINUOUS
10
5.36105
20
-4.39777
11
5.36329
21
-4.3961
0
LINE
8
BLACK
6
CONTINUOUS
10
5.36329
20
-4.3961
11
5.36608
21
-4.3959
0
LINE
8
BLACK
6
CONTINUOUS
10
5.36608
20
-4.3959
11
5.36853
21
-4.39724
0
LINE
8
BLACK
6
CONTINUOUS
10
5.36853
20
-4.39724
11
5.36987
21
-4.39969
0
LINE
8
BLACK
6
CONTINUOUS
10
5.36987
20
-4.39969
11
5.36998
21
-4.40074
0
LINE
8
BLACK
6
CONTINUOUS
10
5.36998
20
-4.40074
11
5.36998
21
-4.46913
0
LINE
8
BLACK
6
CONTINUOUS
10
5.36998
20
-4.46913
11
5.36932
21
-4.47161
0
LINE
8
BLACK
6
CONTINUOUS
10
5.36932
20
-4.47161
11
5.36714
21
-4.47537
0
LINE
8
BLACK
6
CONTINUOUS
10
5.36714
20
-4.47537
11
5.36568
21
-4.47989
0
LINE
8
BLACK
6
CONTINUOUS
10
5.36568
20
-4.47989
11
5.36509
21
-4.48169
0
LINE
8
BLACK
6
CONTINUOUS
10
5.36509
20
-4.48169
11
5.36388
21
-4.48366
0
LINE
8
BLACK
6
CONTINUOUS
10
5.36388
20
-4.48366
11
5.32902
21
-4.51853
0
LINE
8
BLACK
6
CONTINUOUS
10
5.32902
20
-4.51853
11
5.32657
21
-4.51987
0
LINE
8
BLACK
6
CONTINUOUS
10
5.32657
20
-4.51987
11
5.32551
21
-4.51998
0
LINE
8
BLACK
6
CONTINUOUS
10
5.32551
20
-4.51998
11
5.15496
21
-4.51998
0
LINE
8
BLACK
6
CONTINUOUS
10
5.15496
20
-4.51998
11
5.15228
21
-4.51919
0
LINE
8
BLACK
6
CONTINUOUS
10
5.15228
20
-4.51919
11
5.15045
21
-4.51708
0
LINE
8
BLACK
6
CONTINUOUS
10
5.15045
20
-4.51708
11
5.15
21
-4.51502
0
LINE
8
BLACK
6
CONTINUOUS
10
5.15
20
-4.51502
11
5.15
21
-4.50071
0
LINE
8
BLACK
6
CONTINUOUS
10
5.15
20
-4.50071
11
5.14982
21
-4.50011
0
LINE
8
BLACK
6
CONTINUOUS
10
5.14982
20
-4.50011
11
5.14977
21
-4.50007
0
LINE
8
BLACK
6
CONTINUOUS
10
5.14977
20
-4.50007
11
5.14947
21
-4.5
0
LINE
8
BLACK
6
CONTINUOUS
10
5.14947
20
-4.5
11
5.13
21
-4.5
0
LINE
8
BLACK
6
CONTINUOUS
10
5.13
20
-4.5
11
5.13
21
-4.52
0
LINE
8
BLACK
6
CONTINUOUS
10
5.13
20
-4.52
11
5.07
21
-4.52
0
LINE
8
BLACK
6
CONTINUOUS
10
5.19799
20
-4.38496
11
5.19406
21
-4.38496
0
LINE
8
BLACK
6
CONTINUOUS
10
5.19406
20
-4.38496
11
5.19406
21
-4.40383
0
LINE
8
BLACK
6
CONTINUOUS
10
5.19406
20
-4.40383
11
5.19376
21
-4.40511
0
LINE
8
BLACK
6
CONTINUOUS
10
5.19376
20
-4.40511
11
5.19361
21
-4.40642
0
LINE
8
BLACK
6
CONTINUOUS
10
5.19361
20
-4.40642
11
5.19337
21
-4.4068
0
LINE
8
BLACK
6
CONTINUOUS
10
5.19337
20
-4.4068
11
5.19327
21
-4.40725
0
LINE
8
BLACK
6
CONTINUOUS
10
5.19327
20
-4.40725
11
5.19245
21
-4.40827
0
LINE
8
BLACK
6
CONTINUOUS
10
5.19245
20
-4.40827
11
5.19175
21
-4.40939
0
LINE
8
BLACK
6
CONTINUOUS
10
5.19175
20
-4.40939
11
5.18512
21
-4.41602
0
LINE
8
BLACK
6
CONTINUOUS
10
5.18512
20
-4.41602
11
5.18575
21
-4.42
0
LINE
8
BLACK
6
CONTINUOUS
10
5.18575
20
-4.42
11
5.18498
21
-4.42487
0
LINE
8
BLACK
6
CONTINUOUS
10
5.18498
20
-4.42487
11
5.18274
21
-4.42926
0
LINE
8
BLACK
6
CONTINUOUS
10
5.18274
20
-4.42926
11
5.17926
21
-4.43274
0
LINE
8
BLACK
6
CONTINUOUS
10
5.17926
20
-4.43274
11
5.17487
21
-4.43498
0
LINE
8
BLACK
6
CONTINUOUS
10
5.17487
20
-4.43498
11
5.17
21
-4.43575
0
LINE
8
BLACK
6
CONTINUOUS
10
5.17
20
-4.43575
11
5.16513
21
-4.43498
0
LINE
8
BLACK
6
CONTINUOUS
10
5.16513
20
-4.43498
11
5.16074
21
-4.43274
0
LINE
8
BLACK
6
CONTINUOUS
10
5.16074
20
-4.43274
11
5.15726
21
-4.42926
0
LINE
8
BLACK
6
CONTINUOUS
10
5.15726
20
-4.42926
11
5.15502
21
-4.42487
0
LINE
8
BLACK
6
CONTINUOUS
10
5.15502
20
-4.42487
11
5.15425
21
-4.42
0
LINE
8
BLACK
6
CONTINUOUS
10
5.15425
20
-4.42
11
5.15502
21
-4.41513
0
LINE
8
BLACK
6
CONTINUOUS
10
5.15502
20
-4.41513
11
5.15726
21
-4.41074
0
LINE
8
BLACK
6
CONTINUOUS
10
5.15726
20
-4.41074
11
5.16074
21
-4.40726
0
LINE
8
BLACK
6
CONTINUOUS
10
5.16074
20
-4.40726
11
5.16513
21
-4.40502
0
LINE
8
BLACK
6
CONTINUOUS
10
5.16513
20
-4.40502
11
5.17
21
-4.40425
0
LINE
8
BLACK
6
CONTINUOUS
10
5.17
20
-4.40425
11
5.17398
21
-4.40488
0
LINE
8
BLACK
6
CONTINUOUS
10
5.17398
20
-4.40488
11
5.17831
21
-4.40056
0
LINE
8
BLACK
6
CONTINUOUS
10
5.17831
20
-4.40056
11
5.17831
21
-4.38496
0
LINE
8
BLACK
6
CONTINUOUS
10
5.17831
20
-4.38496
11
5.17437
21
-4.38496
0
LINE
8
BLACK
6
CONTINUOUS
10
5.17437
20
-4.38496
11
5.17437
21
-4.34165
0
LINE
8
BLACK
6
CONTINUOUS
10
5.17437
20
-4.34165
11
5.19799
21
-4.34165
0
LINE
8
BLACK
6
CONTINUOUS
10
5.19799
20
-4.34165
11
5.19799
21
-4.38496
0
LINE
8
BLACK
6
CONTINUOUS
10
5.29642
20
-4.38496
11
5.29248
21
-4.38496
0
LINE
8
BLACK
6
CONTINUOUS
10
5.29248
20
-4.38496
11
5.29248
21
-4.39134
0
LINE
8
BLACK
6
CONTINUOUS
10
5.29248
20
-4.39134
11
5.29602
21
-4.39488
0
LINE
8
BLACK
6
CONTINUOUS
10
5.29602
20
-4.39488
11
5.3
21
-4.39425
0
LINE
8
BLACK
6
CONTINUOUS
10
5.3
20
-4.39425
11
5.30487
21
-4.39502
0
LINE
8
BLACK
6
CONTINUOUS
10
5.30487
20
-4.39502
11
5.30926
21
-4.39726
0
LINE
8
BLACK
6
CONTINUOUS
10
5.30926
20
-4.39726
11
5.31274
21
-4.40074
0
LINE
8
BLACK
6
CONTINUOUS
10
5.31274
20
-4.40074
11
5.31498
21
-4.40513
0
LINE
8
BLACK
6
CONTINUOUS
10
5.31498
20
-4.40513
11
5.31575
21
-4.41
0
LINE
8
BLACK
6
CONTINUOUS
10
5.31575
20
-4.41
11
5.31498
21
-4.41487
0
LINE
8
BLACK
6
CONTINUOUS
10
5.31498
20
-4.41487
11
5.31274
21
-4.41926
0
LINE
8
BLACK
6
CONTINUOUS
10
5.31274
20
-4.41926
11
5.30926
21
-4.42274
0
LINE
8
BLACK
6
CONTINUOUS
10
5.30926
20
-4.42274
11
5.30487
21
-4.42498
0
LINE
8
BLACK
6
CONTINUOUS
10
5.30487
20
-4.42498
11
5.3
21
-4.42575
0
LINE
8
BLACK
6
CONTINUOUS
10
5.3
20
-4.42575
11
5.29513
21
-4.42498
0
LINE
8
BLACK
6
CONTINUOUS
10
5.29513
20
-4.42498
11
5.29074
21
-4.42274
0
LINE
8
BLACK
6
CONTINUOUS
10
5.29074
20
-4.42274
11
5.28726
21
-4.41926
0
LINE
8
BLACK
6
CONTINUOUS
10
5.28726
20
-4.41926
11
5.28502
21
-4.41487
0
LINE
8
BLACK
6
CONTINUOUS
10
5.28502
20
-4.41487
11
5.28425
21
-4.41
0
LINE
8
BLACK
6
CONTINUOUS
10
5.28425
20
-4.41
11
5.28488
21
-4.40602
0
LINE
8
BLACK
6
CONTINUOUS
10
5.28488
20
-4.40602
11
5.27903
21
-4.40016
0
LINE
8
BLACK
6
CONTINUOUS
10
5.27903
20
-4.40016
11
5.27833
21
-4.39905
0
LINE
8
BLACK
6
CONTINUOUS
10
5.27833
20
-4.39905
11
5.27751
21
-4.39802
0
LINE
8
BLACK
6
CONTINUOUS
10
5.27751
20
-4.39802
11
5.27741
21
-4.39758
0
LINE
8
BLACK
6
CONTINUOUS
10
5.27741
20
-4.39758
11
5.27717
21
-4.3972
0
LINE
8
BLACK
6
CONTINUOUS
10
5.27717
20
-4.3972
11
5.27702
21
-4.39589
0
LINE
8
BLACK
6
CONTINUOUS
10
5.27702
20
-4.39589
11
5.27673
21
-4.39461
0
LINE
8
BLACK
6
CONTINUOUS
10
5.27673
20
-4.39461
11
5.27673
21
-4.38496
0
LINE
8
BLACK
6
CONTINUOUS
10
5.27673
20
-4.38496
11
5.2728
21
-4.38496
0
LINE
8
BLACK
6
CONTINUOUS
10
5.2728
20
-4.38496
11
5.2728
21
-4.34165
0
LINE
8
BLACK
6
CONTINUOUS
10
5.2728
20
-4.34165
11
5.29642
21
-4.34165
0
LINE
8
BLACK
6
CONTINUOUS
10
5.29642
20
-4.34165
11
5.29642
21
-4.38496
0
LINE
8
BLACK
6
CONTINUOUS
10
5.03
20
-4.42
11
4.97
21
-4.42
0
LINE
8
BLACK
6
CONTINUOUS
10
4.97
20
-4.42
11
4.97
21
-4.36
0
LINE
8
BLACK
6
CONTINUOUS
10
4.97
20
-4.36
11
5.03
21
-4.36
0
LINE
8
BLACK
6
CONTINUOUS
10
5.03
20
-4.36
11
5.03
21
-4.42
0
LINE
8
BLACK
6
CONTINUOUS
10
5.5
20
-3.94
11
5.47787
21
-3.94
0
LINE
8
BLACK
6
CONTINUOUS
10
5.47787
20
-3.94
11
5.47787
21
-3.98
0
LINE
8
BLACK
6
CONTINUOUS
10
5.47787
20
-3.98
11
5.5
21
-3.98
0
LINE
8
BLACK
6
CONTINUOUS
10
5.5
20
-3.98
11
5.5
21
-4.04
0
LINE
8
BLACK
6
CONTINUOUS
10
5.5
20
-4.04
11
5.47787
21
-4.04
0
LINE
8
BLACK
6
CONTINUOUS
10
5.47787
20
-4.04
11
5.47787
21
-4.08244
0
LINE
8
BLACK
6
CONTINUOUS
10
5.47787
20
-4.08244
11
5.49626
21
-4.08244
0
LINE
8
BLACK
6
CONTINUOUS
10
5.49626
20
-4.08244
11
5.50003
21
-4.08319
0
LINE
8
BLACK
6
CONTINUOUS
10
5.50003
20
-4.08319
11
5.50322
21
-4.08532
0
LINE
8
BLACK
6
CONTINUOUS
10
5.50322
20
-4.08532
11
5.50535
21
-4.08852
0
LINE
8
BLACK
6
CONTINUOUS
10
5.50535
20
-4.08852
11
5.5061
21
-4.09228
0
LINE
8
BLACK
6
CONTINUOUS
10
5.5061
20
-4.09228
11
5.5061
21
-4.12772
0
LINE
8
BLACK
6
CONTINUOUS
10
5.5061
20
-4.12772
11
5.50535
21
-4.13148
0
LINE
8
BLACK
6
CONTINUOUS
10
5.50535
20
-4.13148
11
5.50322
21
-4.13468
0
LINE
8
BLACK
6
CONTINUOUS
10
5.50322
20
-4.13468
11
5.50003
21
-4.13681
0
LINE
8
BLACK
6
CONTINUOUS
10
5.50003
20
-4.13681
11
5.49626
21
-4.13756
0
LINE
8
BLACK
6
CONTINUOUS
10
5.49626
20
-4.13756
11
5.4938
21
-4.13756
0
LINE
8
BLACK
6
CONTINUOUS
10
5.4938
20
-4.13756
11
5.4938
21
-4.14409
0
LINE
8
BLACK
6
CONTINUOUS
10
5.4938
20
-4.14409
11
5.4935
21
-4.14537
0
LINE
8
BLACK
6
CONTINUOUS
10
5.4935
20
-4.14537
11
5.49336
21
-4.14668
0
LINE
8
BLACK
6
CONTINUOUS
10
5.49336
20
-4.14668
11
5.49312
21
-4.14706
0
LINE
8
BLACK
6
CONTINUOUS
10
5.49312
20
-4.14706
11
5.49301
21
-4.1475
0
LINE
8
BLACK
6
CONTINUOUS
10
5.49301
20
-4.1475
11
5.49219
21
-4.14853
0
LINE
8
BLACK
6
CONTINUOUS
10
5.49219
20
-4.14853
11
5.49149
21
-4.14964
0
LINE
8
BLACK
6
CONTINUOUS
10
5.49149
20
-4.14964
11
5.46556
21
-4.17558
0
LINE
8
BLACK
6
CONTINUOUS
10
5.46556
20
-4.17558
11
5.46444
21
-4.17628
0
LINE
8
BLACK
6
CONTINUOUS
10
5.46444
20
-4.17628
11
5.46341
21
-4.1771
0
LINE
8
BLACK
6
CONTINUOUS
10
5.46341
20
-4.1771
11
5.46297
21
-4.1772
0
LINE
8
BLACK
6
CONTINUOUS
10
5.46297
20
-4.1772
11
5.46259
21
-4.17744
0
LINE
8
BLACK
6
CONTINUOUS
10
5.46259
20
-4.17744
11
5.46128
21
-4.17758
0
LINE
8
BLACK
6
CONTINUOUS
10
5.46128
20
-4.17758
11
5.46
21
-4.17787
0
LINE
8
BLACK
6
CONTINUOUS
10
5.46
20
-4.17787
11
5.36326
21
-4.17787
0
LINE
8
BLACK
6
CONTINUOUS
10
5.36326
20
-4.17787
11
5.34169
21
-4.19944
0
LINE
8
BLACK
6
CONTINUOUS
10
5.34169
20
-4.19944
11
5.34169
21
-4.25504
0
LINE
8
BLACK
6
CONTINUOUS
10
5.34169
20
-4.25504
11
5.34563
21
-4.25504
0
LINE
8
BLACK
6
CONTINUOUS
10
5.34563
20
-4.25504
11
5.34563
21
-4.29835
0
LINE
8
BLACK
6
CONTINUOUS
10
5.34563
20
-4.29835
11
5.33314
21
-4.29835
0
LINE
8
BLACK
6
CONTINUOUS
10
5.33314
20
-4.29835
11
5.30591
21
-4.32558
0
LINE
8
BLACK
6
CONTINUOUS
10
5.30591
20
-4.32558
11
5.3048
21
-4.32628
0
LINE
8
BLACK
6
CONTINUOUS
10
5.3048
20
-4.32628
11
5.30377
21
-4.3271
0
LINE
8
BLACK
6
CONTINUOUS
10
5.30377
20
-4.3271
11
5.30333
21
-4.3272
0
LINE
8
BLACK
6
CONTINUOUS
10
5.30333
20
-4.3272
11
5.30294
21
-4.32744
0
LINE
8
BLACK
6
CONTINUOUS
10
5.30294
20
-4.32744
11
5.30164
21
-4.32758
0
LINE
8
BLACK
6
CONTINUOUS
10
5.30164
20
-4.32758
11
5.30035
21
-4.32787
0
LINE
8
BLACK
6
CONTINUOUS
10
5.30035
20
-4.32787
11
5.07999
21
-4.32787
0
LINE
8
BLACK
6
CONTINUOUS
10
5.07999
20
-4.32787
11
5.0787
21
-4.32758
0
LINE
8
BLACK
6
CONTINUOUS
10
5.0787
20
-4.32758
11
5.0774
21
-4.32743
0
LINE
8
BLACK
6
CONTINUOUS
10
5.0774
20
-4.32743
11
5.07701
21
-4.32719
0
LINE
8
BLACK
6
CONTINUOUS
10
5.07701
20
-4.32719
11
5.07657
21
-4.32709
0
LINE
8
BLACK
6
CONTINUOUS
10
5.07657
20
-4.32709
11
5.07555
21
-4.32627
0
LINE
8
BLACK
6
CONTINUOUS
10
5.07555
20
-4.32627
11
5.07443
21
-4.32557
0
LINE
8
BLACK
6
CONTINUOUS
10
5.07443
20
-4.32557
11
4.92442
21
-4.17556
0
LINE
8
BLACK
6
CONTINUOUS
10
4.92442
20
-4.17556
11
4.92372
21
-4.17444
0
LINE
8
BLACK
6
CONTINUOUS
10
4.92372
20
-4.17444
11
4.9229
21
-4.17341
0
LINE
8
BLACK
6
CONTINUOUS
10
4.9229
20
-4.17341
11
4.9228
21
-4.17297
0
LINE
8
BLACK
6
CONTINUOUS
10
4.9228
20
-4.17297
11
4.92256
21
-4.17259
0
LINE
8
BLACK
6
CONTINUOUS
10
4.92256
20
-4.17259
11
4.92242
21
-4.17128
0
LINE
8
BLACK
6
CONTINUOUS
10
4.92242
20
-4.17128
11
4.92213
21
-4.17
0
LINE
8
BLACK
6
CONTINUOUS
10
4.92213
20
-4.17
11
4.92213
21
-4.04
0
LINE
8
BLACK
6
CONTINUOUS
10
4.92213
20
-4.04
11
4.9
21
-4.04
0
LINE
8
BLACK
6
CONTINUOUS
10
4.9
20
-4.04
11
4.9
21
-3.98
0
LINE
8
BLACK
6
CONTINUOUS
10
4.9
20
-3.98
11
4.96
21
-3.98
0
LINE
8
BLACK
6
CONTINUOUS
10
4.96
20
-3.98
11
4.96
21
-4.04
0
LINE
8
BLACK
6
CONTINUOUS
10
4.96
20
-4.04
11
4.93787
21
-4.04
0
LINE
8
BLACK
6
CONTINUOUS
10
4.93787
20
-4.04
11
4.93787
21
-4.16674
0
LINE
8
BLACK
6
CONTINUOUS
10
4.93787
20
-4.16674
11
5.08326
21
-4.31213
0
LINE
8
BLACK
6
CONTINUOUS
10
5.08326
20
-4.31213
11
5.29709
21
-4.31213
0
LINE
8
BLACK
6
CONTINUOUS
10
5.29709
20
-4.31213
11
5.32201
21
-4.28721
0
LINE
8
BLACK
6
CONTINUOUS
10
5.32201
20
-4.28721
11
5.32201
21
-4.25504
0
LINE
8
BLACK
6
CONTINUOUS
10
5.32201
20
-4.25504
11
5.32594
21
-4.25504
0
LINE
8
BLACK
6
CONTINUOUS
10
5.32594
20
-4.25504
11
5.32594
21
-4.19617
0
LINE
8
BLACK
6
CONTINUOUS
10
5.32594
20
-4.19617
11
5.32624
21
-4.19489
0
LINE
8
BLACK
6
CONTINUOUS
10
5.32624
20
-4.19489
11
5.32639
21
-4.19358
0
LINE
8
BLACK
6
CONTINUOUS
10
5.32639
20
-4.19358
11
5.32663
21
-4.1932
0
LINE
8
BLACK
6
CONTINUOUS
10
5.32663
20
-4.1932
11
5.32673
21
-4.19275
0
LINE
8
BLACK
6
CONTINUOUS
10
5.32673
20
-4.19275
11
5.32755
21
-4.19173
0
LINE
8
BLACK
6
CONTINUOUS
10
5.32755
20
-4.19173
11
5.32825
21
-4.19061
0
LINE
8
BLACK
6
CONTINUOUS
10
5.32825
20
-4.19061
11
5.35444
21
-4.16442
0
LINE
8
BLACK
6
CONTINUOUS
10
5.35444
20
-4.16442
11
5.35556
21
-4.16372
0
LINE
8
BLACK
6
CONTINUOUS
10
5.35556
20
-4.16372
11
5.35659
21
-4.1629
0
LINE
8
BLACK
6
CONTINUOUS
10
5.35659
20
-4.1629
11
5.35703
21
-4.1628
0
LINE
8
BLACK
6
CONTINUOUS
10
5.35703
20
-4.1628
11
5.35741
21
-4.16256
0
LINE
8
BLACK
6
CONTINUOUS
10
5.35741
20
-4.16256
11
5.35872
21
-4.16242
0
LINE
8
BLACK
6
CONTINUOUS
10
5.35872
20
-4.16242
11
5.36
21
-4.16213
0
LINE
8
BLACK
6
CONTINUOUS
10
5.36
20
-4.16213
11
5.45674
21
-4.16213
0
LINE
8
BLACK
6
CONTINUOUS
10
5.45674
20
-4.16213
11
5.47805
21
-4.14081
0
LINE
8
BLACK
6
CONTINUOUS
10
5.47805
20
-4.14081
11
5.47805
21
-4.13756
0
LINE
8
BLACK
6
CONTINUOUS
10
5.47805
20
-4.13756
11
5.47559
21
-4.13756
0
LINE
8
BLACK
6
CONTINUOUS
10
5.47559
20
-4.13756
11
5.47182
21
-4.13681
0
LINE
8
BLACK
6
CONTINUOUS
10
5.47182
20
-4.13681
11
5.46863
21
-4.13468
0
LINE
8
BLACK
6
CONTINUOUS
10
5.46863
20
-4.13468
11
5.4665
21
-4.13148
0
LINE
8
BLACK
6
CONTINUOUS
10
5.4665
20
-4.13148
11
5.46575
21
-4.12772
0
LINE
8
BLACK
6
CONTINUOUS
10
5.46575
20
-4.12772
11
5.46575
21
-4.10096
0
LINE
8
BLACK
6
CONTINUOUS
10
5.46575
20
-4.10096
11
5.46442
21
-4.09963
0
LINE
8
BLACK
6
CONTINUOUS
10
5.46442
20
-4.09963
11
5.46372
21
-4.09852
0
LINE
8
BLACK
6
CONTINUOUS
10
5.46372
20
-4.09852
11
5.4629
21
-4.09749
0
LINE
8
BLACK
6
CONTINUOUS
10
5.4629
20
-4.09749
11
5.4628
21
-4.09705
0
LINE
8
BLACK
6
CONTINUOUS
10
5.4628
20
-4.09705
11
5.46256
21
-4.09666
0
LINE
8
BLACK
6
CONTINUOUS
10
5.46256
20
-4.09666
11
5.46242
21
-4.09536
0
LINE
8
BLACK
6
CONTINUOUS
10
5.46242
20
-4.09536
11
5.46213
21
-4.09407
0
LINE
8
BLACK
6
CONTINUOUS
10
5.46213
20
-4.09407
11
5.46213
21
-4.04
0
LINE
8
BLACK
6
CONTINUOUS
10
5.46213
20
-4.04
11
5.44
21
-4.04
0
LINE
8
BLACK
6
CONTINUOUS
10
5.44
20
-4.04
11
5.44
21
-3.98
0
LINE
8
BLACK
6
CONTINUOUS
10
5.44
20
-3.98
11
5.46213
21
-3.98
0
LINE
8
BLACK
6
CONTINUOUS
10
5.46213
20
-3.98
11
5.46213
21
-3.94
0
LINE
8
BLACK
6
CONTINUOUS
10
5.46213
20
-3.94
11
5.44
21
-3.94
0
LINE
8
BLACK
6
CONTINUOUS
10
5.44
20
-3.94
11
5.44
21
-3.88
0
LINE
8
BLACK
6
CONTINUOUS
10
5.44
20
-3.88
11
5.5
21
-3.88
0
LINE
8
BLACK
6
CONTINUOUS
10
5.5
20
-3.88
11
5.5
21
-3.94
0
LINE
8
BLACK
6
CONTINUOUS
10
5.19799
20
-4.29835
11
5.17437
21
-4.29835
0
LINE
8
BLACK
6
CONTINUOUS
10
5.17437
20
-4.29835
11
5.17437
21
-4.25504
0
LINE
8
BLACK
6
CONTINUOUS
10
5.17437
20
-4.25504
11
5.19799
21
-4.25504
0
LINE
8
BLACK
6
CONTINUOUS
10
5.19799
20
-4.25504
11
5.19799
21
-4.29835
0
LINE
8
BLACK
6
CONTINUOUS
10
4.96689
20
-3.95242
11
4.96819
21
-3.95257
0
LINE
8
BLACK
6
CONTINUOUS
10
4.96819
20
-3.95257
11
4.96858
21
-3.95281
0
LINE
8
BLACK
6
CONTINUOUS
10
4.96858
20
-3.95281
11
4.96902
21
-3.95291
0
LINE
8
BLACK
6
CONTINUOUS
10
4.96902
20
-3.95291
11
4.97004
21
-3.95373
0
LINE
8
BLACK
6
CONTINUOUS
10
4.97004
20
-3.95373
11
4.97116
21
-3.95443
0
LINE
8
BLACK
6
CONTINUOUS
10
4.97116
20
-3.95443
11
4.98558
21
-3.96885
0
LINE
8
BLACK
6
CONTINUOUS
10
4.98558
20
-3.96885
11
4.98628
21
-3.96997
0
LINE
8
BLACK
6
CONTINUOUS
10
4.98628
20
-3.96997
11
4.9871
21
-3.97099
0
LINE
8
BLACK
6
CONTINUOUS
10
4.9871
20
-3.97099
11
4.9872
21
-3.97144
0
LINE
8
BLACK
6
CONTINUOUS
10
4.9872
20
-3.97144
11
4.98744
21
-3.97182
0
LINE
8
BLACK
6
CONTINUOUS
10
4.98744
20
-3.97182
11
4.98758
21
-3.97313
0
LINE
8
BLACK
6
CONTINUOUS
10
4.98758
20
-3.97313
11
4.98787
21
-3.97441
0
LINE
8
BLACK
6
CONTINUOUS
10
4.98787
20
-3.97441
11
4.98787
21
-4.07674
0
LINE
8
BLACK
6
CONTINUOUS
10
4.98787
20
-4.07674
11
5.00326
21
-4.09213
0
LINE
8
BLACK
6
CONTINUOUS
10
5.00326
20
-4.09213
11
5.06856
21
-4.09213
0
LINE
8
BLACK
6
CONTINUOUS
10
5.06856
20
-4.09213
11
5.06984
21
-4.09242
0
LINE
8
BLACK
6
CONTINUOUS
10
5.06984
20
-4.09242
11
5.07115
21
-4.09257
0
LINE
8
BLACK
6
CONTINUOUS
10
5.07115
20
-4.09257
11
5.07153
21
-4.09281
0
LINE
8
BLACK
6
CONTINUOUS
10
5.07153
20
-4.09281
11
5.07197
21
-4.09291
0
LINE
8
BLACK
6
CONTINUOUS
10
5.07197
20
-4.09291
11
5.073
21
-4.09373
0
LINE
8
BLACK
6
CONTINUOUS
10
5.073
20
-4.09373
11
5.07411
21
-4.09443
0
LINE
8
BLACK
6
CONTINUOUS
10
5.07411
20
-4.09443
11
5.23472
21
-4.25504
0
LINE
8
BLACK
6
CONTINUOUS
10
5.23472
20
-4.25504
11
5.2472
21
-4.25504
0
LINE
8
BLACK
6
CONTINUOUS
10
5.2472
20
-4.25504
11
5.2472
21
-4.29835
0
LINE
8
BLACK
6
CONTINUOUS
10
5.2472
20
-4.29835
11
5.22358
21
-4.29835
0
LINE
8
BLACK
6
CONTINUOUS
10
5.22358
20
-4.29835
11
5.22358
21
-4.26617
0
LINE
8
BLACK
6
CONTINUOUS
10
5.22358
20
-4.26617
11
5.06528
21
-4.10787
0
LINE
8
BLACK
6
CONTINUOUS
10
5.06528
20
-4.10787
11
4.99999
21
-4.10787
0
LINE
8
BLACK
6
CONTINUOUS
10
4.99999
20
-4.10787
11
4.9987
21
-4.10758
0
LINE
8
BLACK
6
CONTINUOUS
10
4.9987
20
-4.10758
11
4.9974
21
-4.10743
0
LINE
8
BLACK
6
CONTINUOUS
10
4.9974
20
-4.10743
11
4.99701
21
-4.10719
0
LINE
8
BLACK
6
CONTINUOUS
10
4.99701
20
-4.10719
11
4.99657
21
-4.10709
0
LINE
8
BLACK
6
CONTINUOUS
10
4.99657
20
-4.10709
11
4.99555
21
-4.10627
0
LINE
8
BLACK
6
CONTINUOUS
10
4.99555
20
-4.10627
11
4.99443
21
-4.10557
0
LINE
8
BLACK
6
CONTINUOUS
10
4.99443
20
-4.10557
11
4.97442
21
-4.08556
0
LINE
8
BLACK
6
CONTINUOUS
10
4.97442
20
-4.08556
11
4.97372
21
-4.08444
0
LINE
8
BLACK
6
CONTINUOUS
10
4.97372
20
-4.08444
11
4.9729
21
-4.08341
0
LINE
8
BLACK
6
CONTINUOUS
10
4.9729
20
-4.08341
11
4.9728
21
-4.08297
0
LINE
8
BLACK
6
CONTINUOUS
10
4.9728
20
-4.08297
11
4.97256
21
-4.08259
0
LINE
8
BLACK
6
CONTINUOUS
10
4.97256
20
-4.08259
11
4.97242
21
-4.08128
0
LINE
8
BLACK
6
CONTINUOUS
10
4.97242
20
-4.08128
11
4.97213
21
-4.08
0
LINE
8
BLACK
6
CONTINUOUS
10
4.97213
20
-4.08
11
4.97213
21
-3.97767
0
LINE
8
BLACK
6
CONTINUOUS
10
4.97213
20
-3.97767
11
4.96233
21
-3.96787
0
LINE
8
BLACK
6
CONTINUOUS
10
4.96233
20
-3.96787
11
4.88326
21
-3.96787
0
LINE
8
BLACK
6
CONTINUOUS
10
4.88326
20
-3.96787
11
4.86
21
-3.99114
0
LINE
8
BLACK
6
CONTINUOUS
10
4.86
20
-3.99114
11
4.86
21
-4.04
0
LINE
8
BLACK
6
CONTINUOUS
10
4.86
20
-4.04
11
4.8
21
-4.04
0
LINE
8
BLACK
6
CONTINUOUS
10
4.8
20
-4.04
11
4.8
21
-3.98
0
LINE
8
BLACK
6
CONTINUOUS
10
4.8
20
-3.98
11
4.84886
21
-3.98
0
LINE
8
BLACK
6
CONTINUOUS
10
4.84886
20
-3.98
11
4.87444
21
-3.95442
0
LINE
8
BLACK
6
CONTINUOUS
10
4.87444
20
-3.95442
11
4.87556
21
-3.95372
0
LINE
8
BLACK
6
CONTINUOUS
10
4.87556
20
-3.95372
11
4.87659
21
-3.9529
0
LINE
8
BLACK
6
CONTINUOUS
10
4.87659
20
-3.9529
11
4.87703
21
-3.9528
0
LINE
8
BLACK
6
CONTINUOUS
10
4.87703
20
-3.9528
11
4.87741
21
-3.95256
0
LINE
8
BLACK
6
CONTINUOUS
10
4.87741
20
-3.95256
11
4.87872
21
-3.95242
0
LINE
8
BLACK
6
CONTINUOUS
10
4.87872
20
-3.95242
11
4.88
21
-3.95213
0
LINE
8
BLACK
6
CONTINUOUS
10
4.88
20
-3.95213
11
4.9656
21
-3.95213
0
LINE
8
BLACK
6
CONTINUOUS
10
4.9656
20
-3.95213
11
4.96689
21
-3.95242
0
LINE
8
BLACK
6
CONTINUOUS
10
5.2113
20
-3.84242
11
5.2126
21
-3.84257
0
LINE
8
BLACK
6
CONTINUOUS
10
5.2126
20
-3.84257
11
5.21299
21
-3.84281
0
LINE
8
BLACK
6
CONTINUOUS
10
5.21299
20
-3.84281
11
5.21343
21
-3.84291
0
LINE
8
BLACK
6
CONTINUOUS
10
5.21343
20
-3.84291
11
5.21445
21
-3.84373
0
LINE
8
BLACK
6
CONTINUOUS
10
5.21445
20
-3.84373
11
5.21557
21
-3.84443
0
LINE
8
BLACK
6
CONTINUOUS
10
5.21557
20
-3.84443
11
5.25114
21
-3.88
0
LINE
8
BLACK
6
CONTINUOUS
10
5.25114
20
-3.88
11
5.3
21
-3.88
0
LINE
8
BLACK
6
CONTINUOUS
10
5.3
20
-3.88
11
5.3
21
-3.94
0
LINE
8
BLACK
6
CONTINUOUS
10
5.3
20
-3.94
11
5.27787
21
-3.94
0
LINE
8
BLACK
6
CONTINUOUS
10
5.27787
20
-3.94
11
5.27787
21
-3.98
0
LINE
8
BLACK
6
CONTINUOUS
10
5.27787
20
-3.98
11
5.3
21
-3.98
0
LINE
8
BLACK
6
CONTINUOUS
10
5.3
20
-3.98
11
5.3
21
-4.04
0
LINE
8
BLACK
6
CONTINUOUS
10
5.3
20
-4.04
11
5.27787
21
-4.04
0
LINE
8
BLACK
6
CONTINUOUS
10
5.27787
20
-4.04
11
5.27787
21
-4.09409
0
LINE
8
BLACK
6
CONTINUOUS
10
5.27787
20
-4.09409
11
5.27758
21
-4.09537
0
LINE
8
BLACK
6
CONTINUOUS
10
5.27758
20
-4.09537
11
5.27743
21
-4.09668
0
LINE
8
BLACK
6
CONTINUOUS
10
5.27743
20
-4.09668
11
5.27719
21
-4.09706
0
LINE
8
BLACK
6
CONTINUOUS
10
5.27719
20
-4.09706
11
5.27709
21
-4.0975
0
LINE
8
BLACK
6
CONTINUOUS
10
5.27709
20
-4.0975
11
5.27627
21
-4.09853
0
LINE
8
BLACK
6
CONTINUOUS
10
5.27627
20
-4.09853
11
5.27557
21
-4.09964
0
LINE
8
BLACK
6
CONTINUOUS
10
5.27557
20
-4.09964
11
5.27425
21
-4.10096
0
LINE
8
BLACK
6
CONTINUOUS
10
5.27425
20
-4.10096
11
5.27425
21
-4.12772
0
LINE
8
BLACK
6
CONTINUOUS
10
5.27425
20
-4.12772
11
5.2735
21
-4.13148
0
LINE
8
BLACK
6
CONTINUOUS
10
5.2735
20
-4.13148
11
5.27137
21
-4.13468
0
LINE
8
BLACK
6
CONTINUOUS
10
5.27137
20
-4.13468
11
5.26818
21
-4.13681
0
LINE
8
BLACK
6
CONTINUOUS
10
5.26818
20
-4.13681
11
5.26441
21
-4.13756
0
LINE
8
BLACK
6
CONTINUOUS
10
5.26441
20
-4.13756
11
5.26195
21
-4.13756
0
LINE
8
BLACK
6
CONTINUOUS
10
5.26195
20
-4.13756
11
5.26195
21
-4.18081
0
LINE
8
BLACK
6
CONTINUOUS
10
5.26195
20
-4.18081
11
5.29018
21
-4.20905
0
LINE
8
BLACK
6
CONTINUOUS
10
5.29018
20
-4.20905
11
5.29088
21
-4.21016
0
LINE
8
BLACK
6
CONTINUOUS
10
5.29088
20
-4.21016
11
5.2917
21
-4.21119
0
LINE
8
BLACK
6
CONTINUOUS
10
5.2917
20
-4.21119
11
5.2918
21
-4.21163
0
LINE
8
BLACK
6
CONTINUOUS
10
5.2918
20
-4.21163
11
5.29204
21
-4.21202
0
LINE
8
BLACK
6
CONTINUOUS
10
5.29204
20
-4.21202
11
5.29219
21
-4.21332
0
LINE
8
BLACK
6
CONTINUOUS
10
5.29219
20
-4.21332
11
5.29248
21
-4.21461
0
LINE
8
BLACK
6
CONTINUOUS
10
5.29248
20
-4.21461
11
5.29248
21
-4.25504
0
LINE
8
BLACK
6
CONTINUOUS
10
5.29248
20
-4.25504
11
5.29642
21
-4.25504
0
LINE
8
BLACK
6
CONTINUOUS
10
5.29642
20
-4.25504
11
5.29642
21
-4.29835
0
LINE
8
BLACK
6
CONTINUOUS
10
5.29642
20
-4.29835
11
5.2728
21
-4.29835
0
LINE
8
BLACK
6
CONTINUOUS
10
5.2728
20
-4.29835
11
5.2728
21
-4.25504
0
LINE
8
BLACK
6
CONTINUOUS
10
5.2728
20
-4.25504
11
5.27673
21
-4.25504
0
LINE
8
BLACK
6
CONTINUOUS
10
5.27673
20
-4.25504
11
5.27673
21
-4.21787
0
LINE
8
BLACK
6
CONTINUOUS
10
5.27673
20
-4.21787
11
5.2485
21
-4.18963
0
LINE
8
BLACK
6
CONTINUOUS
10
5.2485
20
-4.18963
11
5.2478
21
-4.18852
0
LINE
8
BLACK
6
CONTINUOUS
10
5.2478
20
-4.18852
11
5.24698
21
-4.18749
0
LINE
8
BLACK
6
CONTINUOUS
10
5.24698
20
-4.18749
11
5.24688
21
-4.18705
0
LINE
8
BLACK
6
CONTINUOUS
10
5.24688
20
-4.18705
11
5.24664
21
-4.18666
0
LINE
8
BLACK
6
CONTINUOUS
10
5.24664
20
-4.18666
11
5.24649
21
-4.18536
0
LINE
8
BLACK
6
CONTINUOUS
10
5.24649
20
-4.18536
11
5.2462
21
-4.18407
0
LINE
8
BLACK
6
CONTINUOUS
10
5.2462
20
-4.18407
11
5.2462
21
-4.13756
0
LINE
8
BLACK
6
CONTINUOUS
10
5.2462
20
-4.13756
11
5.24374
21
-4.13756
0
LINE
8
BLACK
6
CONTINUOUS
10
5.24374
20
-4.13756
11
5.23997
21
-4.13681
0
LINE
8
BLACK
6
CONTINUOUS
10
5.23997
20
-4.13681
11
5.23678
21
-4.13468
0
LINE
8
BLACK
6
CONTINUOUS
10
5.23678
20
-4.13468
11
5.23465
21
-4.13148
0
LINE
8
BLACK
6
CONTINUOUS
10
5.23465
20
-4.13148
11
5.2339
21
-4.12772
0
LINE
8
BLACK
6
CONTINUOUS
10
5.2339
20
-4.12772
11
5.2339
21
-4.09228
0
LINE
8
BLACK
6
CONTINUOUS
10
5.2339
20
-4.09228
11
5.23465
21
-4.08852
0
LINE
8
BLACK
6
CONTINUOUS
10
5.23465
20
-4.08852
11
5.23678
21
-4.08532
0
LINE
8
BLACK
6
CONTINUOUS
10
5.23678
20
-4.08532
11
5.23997
21
-4.08319
0
LINE
8
BLACK
6
CONTINUOUS
10
5.23997
20
-4.08319
11
5.24374
21
-4.08244
0
LINE
8
BLACK
6
CONTINUOUS
10
5.24374
20
-4.08244
11
5.26213
21
-4.08244
0
LINE
8
BLACK
6
CONTINUOUS
10
5.26213
20
-4.08244
11
5.26213
21
-4.04
0
LINE
8
BLACK
6
CONTINUOUS
10
5.26213
20
-4.04
11
5.24
21
-4.04
0
LINE
8
BLACK
6
CONTINUOUS
10
5.24
20
-4.04
11
5.24
21
-3.98
0
LINE
8
BLACK
6
CONTINUOUS
10
5.24
20
-3.98
11
5.26213
21
-3.98
0
LINE
8
BLACK
6
CONTINUOUS
10
5.26213
20
-3.98
11
5.26213
21
-3.94
0
LINE
8
BLACK
6
CONTINUOUS
10
5.26213
20
-3.94
11
5.24
21
-3.94
0
LINE
8
BLACK
6
CONTINUOUS
10
5.24
20
-3.94
11
5.24
21
-3.89114
0
LINE
8
BLACK
6
CONTINUOUS
10
5.24
20
-3.89114
11
5.20674
21
-3.85787
0
LINE
8
BLACK
6
CONTINUOUS
10
5.20674
20
-3.85787
11
4.99326
21
-3.85787
0
LINE
8
BLACK
6
CONTINUOUS
10
4.99326
20
-3.85787
11
4.96
21
-3.89114
0
LINE
8
BLACK
6
CONTINUOUS
10
4.96
20
-3.89114
11
4.96
21
-3.94
0
LINE
8
BLACK
6
CONTINUOUS
10
4.96
20
-3.94
11
4.9
21
-3.94
0
LINE
8
BLACK
6
CONTINUOUS
10
4.9
20
-3.94
11
4.9
21
-3.88
0
LINE
8
BLACK
6
CONTINUOUS
10
4.9
20
-3.88
11
4.94886
21
-3.88
0
LINE
8
BLACK
6
CONTINUOUS
10
4.94886
20
-3.88
11
4.98444
21
-3.84442
0
LINE
8
BLACK
6
CONTINUOUS
10
4.98444
20
-3.84442
11
4.98556
21
-3.84372
0
LINE
8
BLACK
6
CONTINUOUS
10
4.98556
20
-3.84372
11
4.98659
21
-3.8429
0
LINE
8
BLACK
6
CONTINUOUS
10
4.98659
20
-3.8429
11
4.98703
21
-3.8428
0
LINE
8
BLACK
6
CONTINUOUS
10
4.98703
20
-3.8428
11
4.98741
21
-3.84256
0
LINE
8
BLACK
6
CONTINUOUS
10
4.98741
20
-3.84256
11
4.98872
21
-3.84242
0
LINE
8
BLACK
6
CONTINUOUS
10
4.98872
20
-3.84242
11
4.99
21
-3.84213
0
LINE
8
BLACK
6
CONTINUOUS
10
4.99
20
-3.84213
11
5.21001
21
-3.84213
0
LINE
8
BLACK
6
CONTINUOUS
10
5.21001
20
-3.84213
11
5.2113
21
-3.84242
0
LINE
8
BLACK
6
CONTINUOUS
10
4.9661
20
-4.10557
11
4.96636
21
-4.10581
0
LINE
8
BLACK
6
CONTINUOUS
10
4.96636
20
-4.10581
11
4.97919
21
-4.11864
0
LINE
8
BLACK
6
CONTINUOUS
10
4.97919
20
-4.11864
11
4.97947
21
-4.11892
0
LINE
8
BLACK
6
CONTINUOUS
10
4.97947
20
-4.11892
11
4.9797
21
-4.11917
0
LINE
8
BLACK
6
CONTINUOUS
10
4.9797
20
-4.11917
11
4.9812
21
-4.12088
0
LINE
8
BLACK
6
CONTINUOUS
10
4.9812
20
-4.12088
11
4.98326
21
-4.12233
0
LINE
8
BLACK
6
CONTINUOUS
10
4.98326
20
-4.12233
11
4.98346
21
-4.12248
0
LINE
8
BLACK
6
CONTINUOUS
10
4.98346
20
-4.12248
11
4.98544
21
-4.12403
0
LINE
8
BLACK
6
CONTINUOUS
10
4.98544
20
-4.12403
11
4.98572
21
-4.12416
0
LINE
8
BLACK
6
CONTINUOUS
10
4.98572
20
-4.12416
11
4.98581
21
-4.12421
0
LINE
8
BLACK
6
CONTINUOUS
10
4.98581
20
-4.12421
11
4.98638
21
-4.12454
0
LINE
8
BLACK
6
CONTINUOUS
10
4.98638
20
-4.12454
11
4.98648
21
-4.12459
0
LINE
8
BLACK
6
CONTINUOUS
10
4.98648
20
-4.12459
11
4.98672
21
-4.12476
0
LINE
8
BLACK
6
CONTINUOUS
10
4.98672
20
-4.12476
11
4.987
21
-4.12487
0
LINE
8
BLACK
6
CONTINUOUS
10
4.987
20
-4.12487
11
4.987
21
-4.12487
0
LINE
8
BLACK
6
CONTINUOUS
10
4.987
20
-4.12487
11
4.98907
21
-4.12568
0
LINE
8
BLACK
6
CONTINUOUS
10
4.98907
20
-4.12568
11
4.9893
21
-4.12578
0
LINE
8
BLACK
6
CONTINUOUS
10
4.9893
20
-4.12578
11
4.9916
21
-4.12681
0
LINE
8
BLACK
6
CONTINUOUS
10
4.9916
20
-4.12681
11
4.99189
21
-4.12687
0
LINE
8
BLACK
6
CONTINUOUS
10
4.99189
20
-4.12687
11
4.99199
21
-4.1269
0
LINE
8
BLACK
6
CONTINUOUS
10
4.99199
20
-4.1269
11
4.99263
21
-4.12708
0
LINE
8
BLACK
6
CONTINUOUS
10
4.99263
20
-4.12708
11
4.99273
21
-4.12711
0
LINE
8
BLACK
6
CONTINUOUS
10
4.99273
20
-4.12711
11
4.99301
21
-4.12722
0
LINE
8
BLACK
6
CONTINUOUS
10
4.99301
20
-4.12722
11
4.99331
21
-4.12725
0
LINE
8
BLACK
6
CONTINUOUS
10
4.99331
20
-4.12725
11
4.99551
21
-4.12754
0
LINE
8
BLACK
6
CONTINUOUS
10
4.99551
20
-4.12754
11
4.99576
21
-4.12758
0
LINE
8
BLACK
6
CONTINUOUS
10
4.99576
20
-4.12758
11
4.99727
21
-4.12786
0
LINE
8
BLACK
6
CONTINUOUS
10
4.99727
20
-4.12786
11
4.99824
21
-4.12804
0
LINE
8
BLACK
6
CONTINUOUS
10
4.99824
20
-4.12804
11
4.99853
21
-4.12803
0
LINE
8
BLACK
6
CONTINUOUS
10
4.99853
20
-4.12803
11
4.99853
21
-4.12803
0
LINE
8
BLACK
6
CONTINUOUS
10
4.99853
20
-4.12803
11
5.00068
21
-4.1279
0
LINE
8
BLACK
6
CONTINUOUS
10
5.00068
20
-4.1279
11
5.00097
21
-4.12789
0
LINE
8
BLACK
6
CONTINUOUS
10
5.00097
20
-4.12789
11
5.05493
21
-4.12789
0
LINE
8
BLACK
6
CONTINUOUS
10
5.05493
20
-4.12789
11
5.05762
21
-4.12868
0
LINE
8
BLACK
6
CONTINUOUS
10
5.05762
20
-4.12868
11
5.05844
21
-4.12935
0
LINE
8
BLACK
6
CONTINUOUS
10
5.05844
20
-4.12935
11
5.1616
21
-4.23251
0
LINE
8
BLACK
6
CONTINUOUS
10
5.1616
20
-4.23251
11
5.16294
21
-4.23496
0
LINE
8
BLACK
6
CONTINUOUS
10
5.16294
20
-4.23496
11
5.16274
21
-4.23775
0
LINE
8
BLACK
6
CONTINUOUS
10
5.16274
20
-4.23775
11
5.16107
21
-4.23999
0
LINE
8
BLACK
6
CONTINUOUS
10
5.16107
20
-4.23999
11
5.16007
21
-4.24074
0
LINE
8
BLACK
6
CONTINUOUS
10
5.16007
20
-4.24074
11
5.15663
21
-4.24533
0
LINE
8
BLACK
6
CONTINUOUS
10
5.15663
20
-4.24533
11
5.15462
21
-4.2507
0
LINE
8
BLACK
6
CONTINUOUS
10
5.15462
20
-4.2507
11
5.15435
21
-4.25314
0
LINE
8
BLACK
6
CONTINUOUS
10
5.15435
20
-4.25314
11
5.15435
21
-4.28715
0
LINE
8
BLACK
6
CONTINUOUS
10
5.15435
20
-4.28715
11
5.15356
21
-4.28983
0
LINE
8
BLACK
6
CONTINUOUS
10
5.15356
20
-4.28983
11
5.15145
21
-4.29166
0
LINE
8
BLACK
6
CONTINUOUS
10
5.15145
20
-4.29166
11
5.14939
21
-4.29211
0
LINE
8
BLACK
6
CONTINUOUS
10
5.14939
20
-4.29211
11
5.09361
21
-4.29211
0
LINE
8
BLACK
6
CONTINUOUS
10
5.09361
20
-4.29211
11
5.09093
21
-4.29132
0
LINE
8
BLACK
6
CONTINUOUS
10
5.09093
20
-4.29132
11
5.0901
21
-4.29065
0
LINE
8
BLACK
6
CONTINUOUS
10
5.0901
20
-4.29065
11
4.95935
21
-4.1599
0
LINE
8
BLACK
6
CONTINUOUS
10
4.95935
20
-4.1599
11
4.95801
21
-4.15745
0
LINE
8
BLACK
6
CONTINUOUS
10
4.95801
20
-4.15745
11
4.95789
21
-4.15639
0
LINE
8
BLACK
6
CONTINUOUS
10
4.95789
20
-4.15639
11
4.95789
21
-4.10932
0
LINE
8
BLACK
6
CONTINUOUS
10
4.95789
20
-4.10932
11
4.95868
21
-4.10664
0
LINE
8
BLACK
6
CONTINUOUS
10
4.95868
20
-4.10664
11
4.96079
21
-4.1048
0
LINE
8
BLACK
6
CONTINUOUS
10
4.96079
20
-4.1048
11
4.96356
21
-4.10441
0
LINE
8
BLACK
6
CONTINUOUS
10
4.96356
20
-4.10441
11
4.9661
21
-4.10557
0
LINE
8
BLACK
6
CONTINUOUS
10
5.4
20
-3.94
11
5.38
21
-3.94
0
LINE
8
BLACK
6
CONTINUOUS
10
5.38
20
-3.94
11
5.38
21
-3.98
0
LINE
8
BLACK
6
CONTINUOUS
10
5.38
20
-3.98
11
5.4
21
-3.98
0
LINE
8
BLACK
6
CONTINUOUS
10
5.4
20
-3.98
11
5.4
21
-4.04
0
LINE
8
BLACK
6
CONTINUOUS
10
5.4
20
-4.04
11
5.38
21
-4.04
0
LINE
8
BLACK
6
CONTINUOUS
10
5.38
20
-4.04
11
5.38
21
-4.06178
0
LINE
8
BLACK
6
CONTINUOUS
10
5.38
20
-4.06178
11
5.40117
21
-4.08295
0
LINE
8
BLACK
6
CONTINUOUS
10
5.40117
20
-4.08295
11
5.40374
21
-4.08244
0
LINE
8
BLACK
6
CONTINUOUS
10
5.40374
20
-4.08244
11
5.42441
21
-4.08244
0
LINE
8
BLACK
6
CONTINUOUS
10
5.42441
20
-4.08244
11
5.42818
21
-4.08319
0
LINE
8
BLACK
6
CONTINUOUS
10
5.42818
20
-4.08319
11
5.43137
21
-4.08532
0
LINE
8
BLACK
6
CONTINUOUS
10
5.43137
20
-4.08532
11
5.4335
21
-4.08852
0
LINE
8
BLACK
6
CONTINUOUS
10
5.4335
20
-4.08852
11
5.43425
21
-4.09228
0
LINE
8
BLACK
6
CONTINUOUS
10
5.43425
20
-4.09228
11
5.43425
21
-4.12772
0
LINE
8
BLACK
6
CONTINUOUS
10
5.43425
20
-4.12772
11
5.4335
21
-4.13148
0
LINE
8
BLACK
6
CONTINUOUS
10
5.4335
20
-4.13148
11
5.43137
21
-4.13468
0
LINE
8
BLACK
6
CONTINUOUS
10
5.43137
20
-4.13468
11
5.42818
21
-4.13681
0
LINE
8
BLACK
6
CONTINUOUS
10
5.42818
20
-4.13681
11
5.42441
21
-4.13756
0
LINE
8
BLACK
6
CONTINUOUS
10
5.42441
20
-4.13756
11
5.40374
21
-4.13756
0
LINE
8
BLACK
6
CONTINUOUS
10
5.40374
20
-4.13756
11
5.39997
21
-4.13681
0
LINE
8
BLACK
6
CONTINUOUS
10
5.39997
20
-4.13681
11
5.39678
21
-4.13468
0
LINE
8
BLACK
6
CONTINUOUS
10
5.39678
20
-4.13468
11
5.39465
21
-4.13148
0
LINE
8
BLACK
6
CONTINUOUS
10
5.39465
20
-4.13148
11
5.3939
21
-4.12772
0
LINE
8
BLACK
6
CONTINUOUS
10
5.3939
20
-4.12772
11
5.3939
21
-4.10396
0
LINE
8
BLACK
6
CONTINUOUS
10
5.3939
20
-4.10396
11
5.37
21
-4.08007
0
LINE
8
BLACK
6
CONTINUOUS
10
5.37
20
-4.08007
11
5.3461
21
-4.10396
0
LINE
8
BLACK
6
CONTINUOUS
10
5.3461
20
-4.10396
11
5.3461
21
-4.12772
0
LINE
8
BLACK
6
CONTINUOUS
10
5.3461
20
-4.12772
11
5.34535
21
-4.13148
0
LINE
8
BLACK
6
CONTINUOUS
10
5.34535
20
-4.13148
11
5.34322
21
-4.13468
0
LINE
8
BLACK
6
CONTINUOUS
10
5.34322
20
-4.13468
11
5.34003
21
-4.13681
0
LINE
8
BLACK
6
CONTINUOUS
10
5.34003
20
-4.13681
11
5.33626
21
-4.13756
0
LINE
8
BLACK
6
CONTINUOUS
10
5.33626
20
-4.13756
11
5.31559
21
-4.13756
0
LINE
8
BLACK
6
CONTINUOUS
10
5.31559
20
-4.13756
11
5.31182
21
-4.13681
0
LINE
8
BLACK
6
CONTINUOUS
10
5.31182
20
-4.13681
11
5.30863
21
-4.13468
0
LINE
8
BLACK
6
CONTINUOUS
10
5.30863
20
-4.13468
11
5.3065
21
-4.13148
0
LINE
8
BLACK
6
CONTINUOUS
10
5.3065
20
-4.13148
11
5.30575
21
-4.12772
0
LINE
8
BLACK
6
CONTINUOUS
10
5.30575
20
-4.12772
11
5.30575
21
-4.09228
0
LINE
8
BLACK
6
CONTINUOUS
10
5.30575
20
-4.09228
11
5.3065
21
-4.08852
0
LINE
8
BLACK
6
CONTINUOUS
10
5.3065
20
-4.08852
11
5.30863
21
-4.08532
0
LINE
8
BLACK
6
CONTINUOUS
10
5.30863
20
-4.08532
11
5.31182
21
-4.08319
0
LINE
8
BLACK
6
CONTINUOUS
10
5.31182
20
-4.08319
11
5.31559
21
-4.08244
0
LINE
8
BLACK
6
CONTINUOUS
10
5.31559
20
-4.08244
11
5.33626
21
-4.08244
0
LINE
8
BLACK
6
CONTINUOUS
10
5.33626
20
-4.08244
11
5.33883
21
-4.08295
0
LINE
8
BLACK
6
CONTINUOUS
10
5.33883
20
-4.08295
11
5.36
21
-4.06178
0
LINE
8
BLACK
6
CONTINUOUS
10
5.36
20
-4.06178
11
5.36
21
-4.04
0
LINE
8
BLACK
6
CONTINUOUS
10
5.36
20
-4.04
11
5.34
21
-4.04
0
LINE
8
BLACK
6
CONTINUOUS
10
5.34
20
-4.04
11
5.34
21
-3.98
0
LINE
8
BLACK
6
CONTINUOUS
10
5.34
20
-3.98
11
5.36
21
-3.98
0
LINE
8
BLACK
6
CONTINUOUS
10
5.36
20
-3.98
11
5.36
21
-3.94
0
LINE
8
BLACK
6
CONTINUOUS
10
5.36
20
-3.94
11
5.34
21
-3.94
0
LINE
8
BLACK
6
CONTINUOUS
10
5.34
20
-3.94
11
5.34
21
-3.88
0
LINE
8
BLACK
6
CONTINUOUS
10
5.34
20
-3.88
11
5.4
21
-3.88
0
LINE
8
BLACK
6
CONTINUOUS
10
5.4
20
-3.88
11
5.4
21
-3.94
0
LINE
8
BLACK
6
CONTINUOUS
10
5.06
20
-4.04
11
5
21
-4.04
0
LINE
8
BLACK
6
CONTINUOUS
10
5
20
-4.04
11
5
21
-3.98
0
LINE
8
BLACK
6
CONTINUOUS
10
5
20
-3.98
11
5.06
21
-3.98
0
LINE
8
BLACK
6
CONTINUOUS
10
5.06
20
-3.98
11
5.06
21
-4.04
0
LINE
8
BLACK
6
CONTINUOUS
10
4.86
20
-3.94
11
4.8
21
-3.94
0
LINE
8
BLACK
6
CONTINUOUS
10
4.8
20
-3.94
11
4.8
21
-3.88
0
LINE
8
BLACK
6
CONTINUOUS
10
4.8
20
-3.88
11
4.86
21
-3.88
0
LINE
8
BLACK
6
CONTINUOUS
10
4.86
20
-3.88
11
4.86
21
-3.94
0
LINE
8
BLACK
6
CONTINUOUS
10
4.43081
20
-3.8323
11
4.43292
21
-3.83047
0
LINE
8
BLACK
6
CONTINUOUS
10
4.43292
20
-3.83047
11
4.43498
21
-3.83002
0
LINE
8
BLACK
6
CONTINUOUS
10
4.43498
20
-3.83002
11
4.95856
21
-3.83002
0
LINE
8
BLACK
6
CONTINUOUS
10
4.95856
20
-3.83002
11
4.96124
21
-3.83081
0
LINE
8
BLACK
6
CONTINUOUS
10
4.96124
20
-3.83081
11
4.96307
21
-3.83292
0
LINE
8
BLACK
6
CONTINUOUS
10
4.96307
20
-3.83292
11
4.96347
21
-3.83569
0
LINE
8
BLACK
6
CONTINUOUS
10
4.96347
20
-3.83569
11
4.96231
21
-3.83823
0
LINE
8
BLACK
6
CONTINUOUS
10
4.96231
20
-3.83823
11
4.96206
21
-3.83849
0
LINE
8
BLACK
6
CONTINUOUS
10
4.96206
20
-3.83849
11
4.94203
21
-3.85853
0
LINE
8
BLACK
6
CONTINUOUS
10
4.94203
20
-3.85853
11
4.93957
21
-3.85987
0
LINE
8
BLACK
6
CONTINUOUS
10
4.93957
20
-3.85987
11
4.93852
21
-3.85998
0
LINE
8
BLACK
6
CONTINUOUS
10
4.93852
20
-3.85998
11
4.8981
21
-3.85998
0
LINE
8
BLACK
6
CONTINUOUS
10
4.8981
20
-3.85998
11
4.89566
21
-3.86025
0
LINE
8
BLACK
6
CONTINUOUS
10
4.89566
20
-3.86025
11
4.89029
21
-3.86226
0
LINE
8
BLACK
6
CONTINUOUS
10
4.89029
20
-3.86226
11
4.8857
21
-3.8657
0
LINE
8
BLACK
6
CONTINUOUS
10
4.8857
20
-3.8657
11
4.88549
21
-3.86598
0
LINE
8
BLACK
6
CONTINUOUS
10
4.88549
20
-3.86598
11
4.88549
21
-3.86598
0
LINE
8
BLACK
6
CONTINUOUS
10
4.88549
20
-3.86598
11
4.88397
21
-3.86801
0
LINE
8
BLACK
6
CONTINUOUS
10
4.88397
20
-3.86801
11
4.88173
21
-3.86968
0
LINE
8
BLACK
6
CONTINUOUS
10
4.88173
20
-3.86968
11
4.87894
21
-3.86988
0
LINE
8
BLACK
6
CONTINUOUS
10
4.87894
20
-3.86988
11
4.87649
21
-3.86854
0
LINE
8
BLACK
6
CONTINUOUS
10
4.87649
20
-3.86854
11
4.87603
21
-3.86801
0
LINE
8
BLACK
6
CONTINUOUS
10
4.87603
20
-3.86801
11
4.87451
21
-3.86598
0
LINE
8
BLACK
6
CONTINUOUS
10
4.87451
20
-3.86598
11
4.87451
21
-3.86598
0
LINE
8
BLACK
6
CONTINUOUS
10
4.87451
20
-3.86598
11
4.8743
21
-3.8657
0
LINE
8
BLACK
6
CONTINUOUS
10
4.8743
20
-3.8657
11
4.86971
21
-3.86226
0
LINE
8
BLACK
6
CONTINUOUS
10
4.86971
20
-3.86226
11
4.86434
21
-3.86025
0
LINE
8
BLACK
6
CONTINUOUS
10
4.86434
20
-3.86025
11
4.8619
21
-3.85998
0
LINE
8
BLACK
6
CONTINUOUS
10
4.8619
20
-3.85998
11
4.7981
21
-3.85998
0
LINE
8
BLACK
6
CONTINUOUS
10
4.7981
20
-3.85998
11
4.79566
21
-3.86025
0
LINE
8
BLACK
6
CONTINUOUS
10
4.79566
20
-3.86025
11
4.79029
21
-3.86226
0
LINE
8
BLACK
6
CONTINUOUS
10
4.79029
20
-3.86226
11
4.7857
21
-3.8657
0
LINE
8
BLACK
6
CONTINUOUS
10
4.7857
20
-3.8657
11
4.78226
21
-3.87029
0
LINE
8
BLACK
6
CONTINUOUS
10
4.78226
20
-3.87029
11
4.78025
21
-3.87566
0
LINE
8
BLACK
6
CONTINUOUS
10
4.78025
20
-3.87566
11
4.77998
21
-3.8781
0
LINE
8
BLACK
6
CONTINUOUS
10
4.77998
20
-3.8781
11
4.77998
21
-3.9419
0
LINE
8
BLACK
6
CONTINUOUS
10
4.77998
20
-3.9419
11
4.78025
21
-3.94434
0
LINE
8
BLACK
6
CONTINUOUS
10
4.78025
20
-3.94434
11
4.78226
21
-3.94971
0
LINE
8
BLACK
6
CONTINUOUS
10
4.78226
20
-3.94971
11
4.7857
21
-3.9543
0
LINE
8
BLACK
6
CONTINUOUS
10
4.7857
20
-3.9543
11
4.78598
21
-3.95451
0
LINE
8
BLACK
6
CONTINUOUS
10
4.78598
20
-3.95451
11
4.78801
21
-3.95603
0
LINE
8
BLACK
6
CONTINUOUS
10
4.78801
20
-3.95603
11
4.78968
21
-3.95827
0
LINE
8
BLACK
6
CONTINUOUS
10
4.78968
20
-3.95827
11
4.78988
21
-3.96106
0
LINE
8
BLACK
6
CONTINUOUS
10
4.78988
20
-3.96106
11
4.78854
21
-3.96351
0
LINE
8
BLACK
6
CONTINUOUS
10
4.78854
20
-3.96351
11
4.78801
21
-3.96397
0
LINE
8
BLACK
6
CONTINUOUS
10
4.78801
20
-3.96397
11
4.7857
21
-3.9657
0
LINE
8
BLACK
6
CONTINUOUS
10
4.7857
20
-3.9657
11
4.78226
21
-3.97029
0
LINE
8
BLACK
6
CONTINUOUS
10
4.78226
20
-3.97029
11
4.78025
21
-3.97566
0
LINE
8
BLACK
6
CONTINUOUS
10
4.78025
20
-3.97566
11
4.77998
21
-3.9781
0
LINE
8
BLACK
6
CONTINUOUS
10
4.77998
20
-3.9781
11
4.77998
21
-4.0419
0
LINE
8
BLACK
6
CONTINUOUS
10
4.77998
20
-4.0419
11
4.78025
21
-4.04434
0
LINE
8
BLACK
6
CONTINUOUS
10
4.78025
20
-4.04434
11
4.78226
21
-4.04971
0
LINE
8
BLACK
6
CONTINUOUS
10
4.78226
20
-4.04971
11
4.7857
21
-4.0543
0
LINE
8
BLACK
6
CONTINUOUS
10
4.7857
20
-4.0543
11
4.79029
21
-4.05774
0
LINE
8
BLACK
6
CONTINUOUS
10
4.79029
20
-4.05774
11
4.79566
21
-4.05975
0
LINE
8
BLACK
6
CONTINUOUS
10
4.79566
20
-4.05975
11
4.7981
21
-4.06002
0
LINE
8
BLACK
6
CONTINUOUS
10
4.7981
20
-4.06002
11
4.8619
21
-4.06002
0
LINE
8
BLACK
6
CONTINUOUS
10
4.8619
20
-4.06002
11
4.86434
21
-4.05975
0
LINE
8
BLACK
6
CONTINUOUS
10
4.86434
20
-4.05975
11
4.86971
21
-4.05774
0
LINE
8
BLACK
6
CONTINUOUS
10
4.86971
20
-4.05774
11
4.8743
21
-4.0543
0
LINE
8
BLACK
6
CONTINUOUS
10
4.8743
20
-4.0543
11
4.87603
21
-4.05199
0
LINE
8
BLACK
6
CONTINUOUS
10
4.87603
20
-4.05199
11
4.87827
21
-4.05032
0
LINE
8
BLACK
6
CONTINUOUS
10
4.87827
20
-4.05032
11
4.88106
21
-4.05012
0
LINE
8
BLACK
6
CONTINUOUS
10
4.88106
20
-4.05012
11
4.88351
21
-4.05146
0
LINE
8
BLACK
6
CONTINUOUS
10
4.88351
20
-4.05146
11
4.88397
21
-4.05199
0
LINE
8
BLACK
6
CONTINUOUS
10
4.88397
20
-4.05199
11
4.8857
21
-4.0543
0
LINE
8
BLACK
6
CONTINUOUS
10
4.8857
20
-4.0543
11
4.89029
21
-4.05774
0
LINE
8
BLACK
6
CONTINUOUS
10
4.89029
20
-4.05774
11
4.89566
21
-4.05975
0
LINE
8
BLACK
6
CONTINUOUS
10
4.89566
20
-4.05975
11
4.89597
21
-4.05979
0
LINE
8
BLACK
6
CONTINUOUS
10
4.89597
20
-4.05979
11
4.89597
21
-4.05979
0
LINE
8
BLACK
6
CONTINUOUS
10
4.89597
20
-4.05979
11
4.89721
21
-4.05992
0
LINE
8
BLACK
6
CONTINUOUS
10
4.89721
20
-4.05992
11
4.89768
21
-4.05997
0
LINE
8
BLACK
6
CONTINUOUS
10
4.89768
20
-4.05997
11
4.90026
21
-4.06105
0
LINE
8
BLACK
6
CONTINUOUS
10
4.90026
20
-4.06105
11
4.90185
21
-4.06334
0
LINE
8
BLACK
6
CONTINUOUS
10
4.90185
20
-4.06334
11
4.90211
21
-4.06491
0
LINE
8
BLACK
6
CONTINUOUS
10
4.90211
20
-4.06491
11
4.90211
21
-4.16886
0
LINE
8
BLACK
6
CONTINUOUS
10
4.90211
20
-4.16886
11
4.90209
21
-4.1692
0
LINE
8
BLACK
6
CONTINUOUS
10
4.90209
20
-4.1692
11
4.90194
21
-4.17147
0
LINE
8
BLACK
6
CONTINUOUS
10
4.90194
20
-4.17147
11
4.90199
21
-4.17176
0
LINE
8
BLACK
6
CONTINUOUS
10
4.90199
20
-4.17176
11
4.90199
21
-4.17176
0
LINE
8
BLACK
6
CONTINUOUS
10
4.90199
20
-4.17176
11
4.90237
21
-4.17395
0
LINE
8
BLACK
6
CONTINUOUS
10
4.90237
20
-4.17395
11
4.90241
21
-4.17421
0
LINE
8
BLACK
6
CONTINUOUS
10
4.90241
20
-4.17421
11
4.90271
21
-4.1767
0
LINE
8
BLACK
6
CONTINUOUS
10
4.90271
20
-4.1767
11
4.90282
21
-4.17698
0
LINE
8
BLACK
6
CONTINUOUS
10
4.90282
20
-4.17698
11
4.90284
21
-4.17708
0
LINE
8
BLACK
6
CONTINUOUS
10
4.90284
20
-4.17708
11
4.90302
21
-4.17773
0
LINE
8
BLACK
6
CONTINUOUS
10
4.90302
20
-4.17773
11
4.90305
21
-4.17783
0
LINE
8
BLACK
6
CONTINUOUS
10
4.90305
20
-4.17783
11
4.9031
21
-4.17812
0
LINE
8
BLACK
6
CONTINUOUS
10
4.9031
20
-4.17812
11
4.90377
21
-4.17965
0
LINE
8
BLACK
6
CONTINUOUS
10
4.90377
20
-4.17965
11
4.90411
21
-4.18042
0
LINE
8
BLACK
6
CONTINUOUS
10
4.90411
20
-4.18042
11
4.90421
21
-4.18067
0
LINE
8
BLACK
6
CONTINUOUS
10
4.90421
20
-4.18067
11
4.90471
21
-4.18199
0
LINE
8
BLACK
6
CONTINUOUS
10
4.90471
20
-4.18199
11
4.9051
21
-4.18302
0
LINE
8
BLACK
6
CONTINUOUS
10
4.9051
20
-4.18302
11
4.90527
21
-4.18326
0
LINE
8
BLACK
6
CONTINUOUS
10
4.90527
20
-4.18326
11
4.90532
21
-4.18336
0
LINE
8
BLACK
6
CONTINUOUS
10
4.90532
20
-4.18336
11
4.90564
21
-4.18394
0
LINE
8
BLACK
6
CONTINUOUS
10
4.90564
20
-4.18394
11
4.90569
21
-4.18403
0
LINE
8
BLACK
6
CONTINUOUS
10
4.90569
20
-4.18403
11
4.90581
21
-4.1843
0
LINE
8
BLACK
6
CONTINUOUS
10
4.90581
20
-4.1843
11
4.90677
21
-4.18555
0
LINE
8
BLACK
6
CONTINUOUS
10
4.90677
20
-4.18555
11
4.90735
21
-4.1863
0
LINE
8
BLACK
6
CONTINUOUS
10
4.90735
20
-4.1863
11
4.9075
21
-4.18651
0
LINE
8
BLACK
6
CONTINUOUS
10
4.9075
20
-4.18651
11
4.90875
21
-4.18834
0
LINE
8
BLACK
6
CONTINUOUS
10
4.90875
20
-4.18834
11
4.90875
21
-4.18834
0
LINE
8
BLACK
6
CONTINUOUS
10
4.90875
20
-4.18834
11
4.90892
21
-4.18858
0
LINE
8
BLACK
6
CONTINUOUS
10
4.90892
20
-4.18858
11
4.90915
21
-4.18878
0
LINE
8
BLACK
6
CONTINUOUS
10
4.90915
20
-4.18878
11
4.90915
21
-4.18878
0
LINE
8
BLACK
6
CONTINUOUS
10
4.90915
20
-4.18878
11
4.91075
21
-4.19021
0
LINE
8
BLACK
6
CONTINUOUS
10
4.91075
20
-4.19021
11
4.91096
21
-4.19041
0
LINE
8
BLACK
6
CONTINUOUS
10
4.91096
20
-4.19041
11
5.0577
21
-4.33715
0
LINE
8
BLACK
6
CONTINUOUS
10
5.0577
20
-4.33715
11
5.05904
21
-4.3396
0
LINE
8
BLACK
6
CONTINUOUS
10
5.05904
20
-4.3396
11
5.05884
21
-4.34239
0
LINE
8
BLACK
6
CONTINUOUS
10
5.05884
20
-4.34239
11
5.05717
21
-4.34462
0
LINE
8
BLACK
6
CONTINUOUS
10
5.05717
20
-4.34462
11
5.056
21
-4.3455
0
LINE
8
BLACK
6
CONTINUOUS
10
5.056
20
-4.3455
11
5.0555
21
-4.346
0
LINE
8
BLACK
6
CONTINUOUS
10
5.0555
20
-4.346
11
5.05398
21
-4.34802
0
LINE
8
BLACK
6
CONTINUOUS
10
5.05398
20
-4.34802
11
5.05174
21
-4.3497
0
LINE
8
BLACK
6
CONTINUOUS
10
5.05174
20
-4.3497
11
5.04896
21
-4.34989
0
LINE
8
BLACK
6
CONTINUOUS
10
5.04896
20
-4.34989
11
5.0465
21
-4.34855
0
LINE
8
BLACK
6
CONTINUOUS
10
5.0465
20
-4.34855
11
5.04604
21
-4.34802
0
LINE
8
BLACK
6
CONTINUOUS
10
5.04604
20
-4.34802
11
5.0443
21
-4.3457
0
LINE
8
BLACK
6
CONTINUOUS
10
5.0443
20
-4.3457
11
5.03971
21
-4.34226
0
LINE
8
BLACK
6
CONTINUOUS
10
5.03971
20
-4.34226
11
5.03434
21
-4.34025
0
LINE
8
BLACK
6
CONTINUOUS
10
5.03434
20
-4.34025
11
5.0319
21
-4.33998
0
LINE
8
BLACK
6
CONTINUOUS
10
5.0319
20
-4.33998
11
4.9681
21
-4.33998
0
LINE
8
BLACK
6
CONTINUOUS
10
4.9681
20
-4.33998
11
4.96566
21
-4.34025
0
LINE
8
BLACK
6
CONTINUOUS
10
4.96566
20
-4.34025
11
4.96029
21
-4.34226
0
LINE
8
BLACK
6
CONTINUOUS
10
4.96029
20
-4.34226
11
4.9557
21
-4.3457
0
LINE
8
BLACK
6
CONTINUOUS
10
4.9557
20
-4.3457
11
4.95396
21
-4.34802
0
LINE
8
BLACK
6
CONTINUOUS
10
4.95396
20
-4.34802
11
4.95172
21
-4.3497
0
LINE
8
BLACK
6
CONTINUOUS
10
4.95172
20
-4.3497
11
4.94893
21
-4.34989
0
LINE
8
BLACK
6
CONTINUOUS
10
4.94893
20
-4.34989
11
4.94648
21
-4.34855
0
LINE
8
BLACK
6
CONTINUOUS
10
4.94648
20
-4.34855
11
4.94602
21
-4.34802
0
LINE
8
BLACK
6
CONTINUOUS
10
4.94602
20
-4.34802
11
4.9445
21
-4.346
0
LINE
8
BLACK
6
CONTINUOUS
10
4.9445
20
-4.346
11
4.944
21
-4.3455
0
LINE
8
BLACK
6
CONTINUOUS
10
4.944
20
-4.3455
11
4.93999
21
-4.34249
0
LINE
8
BLACK
6
CONTINUOUS
10
4.93999
20
-4.34249
11
4.93937
21
-4.34215
0
LINE
8
BLACK
6
CONTINUOUS
10
4.93937
20
-4.34215
11
4.93463
21
-4.34037
0
LINE
8
BLACK
6
CONTINUOUS
10
4.93463
20
-4.34037
11
4.93403
21
-4.34023
0
LINE
8
BLACK
6
CONTINUOUS
10
4.93403
20
-4.34023
11
4.93203
21
-4.34001
0
LINE
8
BLACK
6
CONTINUOUS
10
4.93203
20
-4.34001
11
4.93176
21
-4.34
0
LINE
8
BLACK
6
CONTINUOUS
10
4.93176
20
-4.34
11
4.91071
21
-4.34
0
LINE
8
BLACK
6
CONTINUOUS
10
4.91071
20
-4.34
11
4.91011
21
-4.34018
0
LINE
8
BLACK
6
CONTINUOUS
10
4.91011
20
-4.34018
11
4.91007
21
-4.34023
0
LINE
8
BLACK
6
CONTINUOUS
10
4.91007
20
-4.34023
11
4.91
21
-4.34053
0
LINE
8
BLACK
6
CONTINUOUS
10
4.91
20
-4.34053
11
4.91
21
-4.36
0
LINE
8
BLACK
6
CONTINUOUS
10
4.91
20
-4.36
11
4.93
21
-4.36
0
LINE
8
BLACK
6
CONTINUOUS
10
4.93
20
-4.36
11
4.93
21
-4.42
0
LINE
8
BLACK
6
CONTINUOUS
10
4.93
20
-4.42
11
4.91
21
-4.42
0
LINE
8
BLACK
6
CONTINUOUS
10
4.91
20
-4.42
11
4.91
21
-4.46
0
LINE
8
BLACK
6
CONTINUOUS
10
4.91
20
-4.46
11
4.93
21
-4.46
0
LINE
8
BLACK
6
CONTINUOUS
10
4.93
20
-4.46
11
4.93
21
-4.52
0
LINE
8
BLACK
6
CONTINUOUS
10
4.93
20
-4.52
11
4.91
21
-4.52
0
LINE
8
BLACK
6
CONTINUOUS
10
4.91
20
-4.52
11
4.91
21
-4.53929
0
LINE
8
BLACK
6
CONTINUOUS
10
4.91
20
-4.53929
11
4.91018
21
-4.53989
0
LINE
8
BLACK
6
CONTINUOUS
10
4.91018
20
-4.53989
11
4.91023
21
-4.53993
0
LINE
8
BLACK
6
CONTINUOUS
10
4.91023
20
-4.53993
11
4.91053
21
-4.54
0
LINE
8
BLACK
6
CONTINUOUS
10
4.91053
20
-4.54
11
4.93176
21
-4.54
0
LINE
8
BLACK
6
CONTINUOUS
10
4.93176
20
-4.54
11
4.93203
21
-4.53999
0
LINE
8
BLACK
6
CONTINUOUS
10
4.93203
20
-4.53999
11
4.93403
21
-4.53977
0
LINE
8
BLACK
6
CONTINUOUS
10
4.93403
20
-4.53977
11
4.93463
21
-4.53963
0
LINE
8
BLACK
6
CONTINUOUS
10
4.93463
20
-4.53963
11
4.93937
21
-4.53785
0
LINE
8
BLACK
6
CONTINUOUS
10
4.93937
20
-4.53785
11
4.93999
21
-4.53751
0
LINE
8
BLACK
6
CONTINUOUS
10
4.93999
20
-4.53751
11
4.944
21
-4.5345
0
LINE
8
BLACK
6
CONTINUOUS
10
4.944
20
-4.5345
11
4.9445
21
-4.534
0
LINE
8
BLACK
6
CONTINUOUS
10
4.9445
20
-4.534
11
4.94602
21
-4.53198
0
LINE
8
BLACK
6
CONTINUOUS
10
4.94602
20
-4.53198
11
4.94826
21
-4.5303
0
LINE
8
BLACK
6
CONTINUOUS
10
4.94826
20
-4.5303
11
4.95104
21
-4.53011
0
LINE
8
BLACK
6
CONTINUOUS
10
4.95104
20
-4.53011
11
4.9535
21
-4.53145
0
LINE
8
BLACK
6
CONTINUOUS
10
4.9535
20
-4.53145
11
4.95396
21
-4.53198
0
LINE
8
BLACK
6
CONTINUOUS
10
4.95396
20
-4.53198
11
4.9557
21
-4.5343
0
LINE
8
BLACK
6
CONTINUOUS
10
4.9557
20
-4.5343
11
4.96029
21
-4.53774
0
LINE
8
BLACK
6
CONTINUOUS
10
4.96029
20
-4.53774
11
4.96566
21
-4.53975
0
LINE
8
BLACK
6
CONTINUOUS
10
4.96566
20
-4.53975
11
4.9681
21
-4.54002
0
LINE
8
BLACK
6
CONTINUOUS
10
4.9681
20
-4.54002
11
5.00551
21
-4.54002
0
LINE
8
BLACK
6
CONTINUOUS
10
5.00551
20
-4.54002
11
5.00819
21
-4.54081
0
LINE
8
BLACK
6
CONTINUOUS
10
5.00819
20
-4.54081
11
5.00902
21
-4.54147
0
LINE
8
BLACK
6
CONTINUOUS
10
5.00902
20
-4.54147
11
5.02906
21
-4.56151
0
LINE
8
BLACK
6
CONTINUOUS
10
5.02906
20
-4.56151
11
5.0304
21
-4.56397
0
LINE
8
BLACK
6
CONTINUOUS
10
5.0304
20
-4.56397
11
5.0302
21
-4.56675
0
LINE
8
BLACK
6
CONTINUOUS
10
5.0302
20
-4.56675
11
5.02852
21
-4.56899
0
LINE
8
BLACK
6
CONTINUOUS
10
5.02852
20
-4.56899
11
5.0259
21
-4.56997
0
LINE
8
BLACK
6
CONTINUOUS
10
5.0259
20
-4.56997
11
5.02555
21
-4.56998
0
LINE
8
BLACK
6
CONTINUOUS
10
5.02555
20
-4.56998
11
4.43498
21
-4.56998
0
LINE
8
BLACK
6
CONTINUOUS
10
4.43498
20
-4.56998
11
4.4323
21
-4.56919
0
LINE
8
BLACK
6
CONTINUOUS
10
4.4323
20
-4.56919
11
4.43047
21
-4.56708
0
LINE
8
BLACK
6
CONTINUOUS
10
4.43047
20
-4.56708
11
4.43002
21
-4.56502
0
LINE
8
BLACK
6
CONTINUOUS
10
4.43002
20
-4.56502
11
4.43002
21
-3.83498
0
LINE
8
BLACK
6
CONTINUOUS
10
4.43002
20
-3.83498
11
4.43081
21
-3.8323
0
LINE
8
BLACK
6
CONTINUOUS
10
4.85023
20
-4.52403
11
4.85037
21
-4.52463
0
LINE
8
BLACK
6
CONTINUOUS
10
4.85037
20
-4.52463
11
4.85215
21
-4.52937
0
LINE
8
BLACK
6
CONTINUOUS
10
4.85215
20
-4.52937
11
4.85249
21
-4.52999
0
LINE
8
BLACK
6
CONTINUOUS
10
4.85249
20
-4.52999
11
4.8555
21
-4.534
0
LINE
8
BLACK
6
CONTINUOUS
10
4.8555
20
-4.534
11
4.856
21
-4.5345
0
LINE
8
BLACK
6
CONTINUOUS
10
4.856
20
-4.5345
11
4.86001
21
-4.53751
0
LINE
8
BLACK
6
CONTINUOUS
10
4.86001
20
-4.53751
11
4.86063
21
-4.53785
0
LINE
8
BLACK
6
CONTINUOUS
10
4.86063
20
-4.53785
11
4.86537
21
-4.53963
0
LINE
8
BLACK
6
CONTINUOUS
10
4.86537
20
-4.53963
11
4.86597
21
-4.53977
0
LINE
8
BLACK
6
CONTINUOUS
10
4.86597
20
-4.53977
11
4.86797
21
-4.53999
0
LINE
8
BLACK
6
CONTINUOUS
10
4.86797
20
-4.53999
11
4.86824
21
-4.54
0
LINE
8
BLACK
6
CONTINUOUS
10
4.86824
20
-4.54
11
4.88929
21
-4.54
0
LINE
8
BLACK
6
CONTINUOUS
10
4.88929
20
-4.54
11
4.88989
21
-4.53982
0
LINE
8
BLACK
6
CONTINUOUS
10
4.88989
20
-4.53982
11
4.88993
21
-4.53977
0
LINE
8
BLACK
6
CONTINUOUS
10
4.88993
20
-4.53977
11
4.89
21
-4.53947
0
LINE
8
BLACK
6
CONTINUOUS
10
4.89
20
-4.53947
11
4.89
21
-4.52
0
LINE
8
BLACK
6
CONTINUOUS
10
4.89
20
-4.52
11
4.87
21
-4.52
0
LINE
8
BLACK
6
CONTINUOUS
10
4.87
20
-4.52
11
4.87
21
-4.5
0
LINE
8
BLACK
6
CONTINUOUS
10
4.87
20
-4.5
11
4.85071
21
-4.5
0
LINE
8
BLACK
6
CONTINUOUS
10
4.85071
20
-4.5
11
4.85011
21
-4.50018
0
LINE
8
BLACK
6
CONTINUOUS
10
4.85011
20
-4.50018
11
4.85007
21
-4.50023
0
LINE
8
BLACK
6
CONTINUOUS
10
4.85007
20
-4.50023
11
4.85
21
-4.50053
0
LINE
8
BLACK
6
CONTINUOUS
10
4.85
20
-4.50053
11
4.85
21
-4.52176
0
LINE
8
BLACK
6
CONTINUOUS
10
4.85
20
-4.52176
11
4.85001
21
-4.52203
0
LINE
8
BLACK
6
CONTINUOUS
10
4.85001
20
-4.52203
11
4.85023
21
-4.52403
0
LINE
8
BLACK
6
CONTINUOUS
10
4.85023
20
-4.47993
11
4.85053
21
-4.48
0
LINE
8
BLACK
6
CONTINUOUS
10
4.85053
20
-4.48
11
4.87
21
-4.48
0
LINE
8
BLACK
6
CONTINUOUS
10
4.87
20
-4.48
11
4.87
21
-4.46
0
LINE
8
BLACK
6
CONTINUOUS
10
4.87
20
-4.46
11
4.89
21
-4.46
0
LINE
8
BLACK
6
CONTINUOUS
10
4.89
20
-4.46
11
4.89
21
-4.42
0
LINE
8
BLACK
6
CONTINUOUS
10
4.89
20
-4.42
11
4.87
21
-4.42
0
LINE
8
BLACK
6
CONTINUOUS
10
4.87
20
-4.42
11
4.87
21
-4.4
0
LINE
8
BLACK
6
CONTINUOUS
10
4.87
20
-4.4
11
4.85071
21
-4.4
0
LINE
8
BLACK
6
CONTINUOUS
10
4.85071
20
-4.4
11
4.85011
21
-4.40018
0
LINE
8
BLACK
6
CONTINUOUS
10
4.85011
20
-4.40018
11
4.85007
21
-4.40023
0
LINE
8
BLACK
6
CONTINUOUS
10
4.85007
20
-4.40023
11
4.85
21
-4.40053
0
LINE
8
BLACK
6
CONTINUOUS
10
4.85
20
-4.40053
11
4.85
21
-4.42176
0
LINE
8
BLACK
6
CONTINUOUS
10
4.85
20
-4.42176
11
4.85001
21
-4.42203
0
LINE
8
BLACK
6
CONTINUOUS
10
4.85001
20
-4.42203
11
4.85023
21
-4.42403
0
LINE
8
BLACK
6
CONTINUOUS
10
4.85023
20
-4.42403
11
4.85037
21
-4.42463
0
LINE
8
BLACK
6
CONTINUOUS
10
4.85037
20
-4.42463
11
4.85215
21
-4.42937
0
LINE
8
BLACK
6
CONTINUOUS
10
4.85215
20
-4.42937
11
4.85249
21
-4.42999
0
LINE
8
BLACK
6
CONTINUOUS
10
4.85249
20
-4.42999
11
4.8555
21
-4.434
0
LINE
8
BLACK
6
CONTINUOUS
10
4.8555
20
-4.434
11
4.856
21
-4.4345
0
LINE
8
BLACK
6
CONTINUOUS
10
4.856
20
-4.4345
11
4.85804
21
-4.43603
0
LINE
8
BLACK
6
CONTINUOUS
10
4.85804
20
-4.43603
11
4.85971
21
-4.43827
0
LINE
8
BLACK
6
CONTINUOUS
10
4.85971
20
-4.43827
11
4.85991
21
-4.44106
0
LINE
8
BLACK
6
CONTINUOUS
10
4.85991
20
-4.44106
11
4.85857
21
-4.44351
0
LINE
8
BLACK
6
CONTINUOUS
10
4.85857
20
-4.44351
11
4.85804
21
-4.44397
0
LINE
8
BLACK
6
CONTINUOUS
10
4.85804
20
-4.44397
11
4.856
21
-4.4455
0
LINE
8
BLACK
6
CONTINUOUS
10
4.856
20
-4.4455
11
4.8555
21
-4.446
0
LINE
8
BLACK
6
CONTINUOUS
10
4.8555
20
-4.446
11
4.85249
21
-4.45001
0
LINE
8
BLACK
6
CONTINUOUS
10
4.85249
20
-4.45001
11
4.85215
21
-4.45063
0
LINE
8
BLACK
6
CONTINUOUS
10
4.85215
20
-4.45063
11
4.85037
21
-4.45537
0
LINE
8
BLACK
6
CONTINUOUS
10
4.85037
20
-4.45537
11
4.85023
21
-4.45597
0
LINE
8
BLACK
6
CONTINUOUS
10
4.85023
20
-4.45597
11
4.85001
21
-4.45797
0
LINE
8
BLACK
6
CONTINUOUS
10
4.85001
20
-4.45797
11
4.85
21
-4.45824
0
LINE
8
BLACK
6
CONTINUOUS
10
4.85
20
-4.45824
11
4.85
21
-4.47929
0
LINE
8
BLACK
6
CONTINUOUS
10
4.85
20
-4.47929
11
4.85018
21
-4.47989
0
LINE
8
BLACK
6
CONTINUOUS
10
4.85018
20
-4.47989
11
4.85023
21
-4.47993
0
LINE
8
BLACK
6
CONTINUOUS
10
4.85023
20
-4.37993
11
4.85053
21
-4.38
0
LINE
8
BLACK
6
CONTINUOUS
10
4.85053
20
-4.38
11
4.87
21
-4.38
0
LINE
8
BLACK
6
CONTINUOUS
10
4.87
20
-4.38
11
4.87
21
-4.36
0
LINE
8
BLACK
6
CONTINUOUS
10
4.87
20
-4.36
11
4.89
21
-4.36
0
LINE
8
BLACK
6
CONTINUOUS
10
4.89
20
-4.36
11
4.89
21
-4.34071
0
LINE
8
BLACK
6
CONTINUOUS
10
4.89
20
-4.34071
11
4.88982
21
-4.34011
0
LINE
8
BLACK
6
CONTINUOUS
10
4.88982
20
-4.34011
11
4.88977
21
-4.34007
0
LINE
8
BLACK
6
CONTINUOUS
10
4.88977
20
-4.34007
11
4.88947
21
-4.34
0
LINE
8
BLACK
6
CONTINUOUS
10
4.88947
20
-4.34
11
4.86824
21
-4.34
0
LINE
8
BLACK
6
CONTINUOUS
10
4.86824
20
-4.34
11
4.86797
21
-4.34001
0
LINE
8
BLACK
6
CONTINUOUS
10
4.86797
20
-4.34001
11
4.86597
21
-4.34023
0
LINE
8
BLACK
6
CONTINUOUS
10
4.86597
20
-4.34023
11
4.86537
21
-4.34037
0
LINE
8
BLACK
6
CONTINUOUS
10
4.86537
20
-4.34037
11
4.86063
21
-4.34215
0
LINE
8
BLACK
6
CONTINUOUS
10
4.86063
20
-4.34215
11
4.86001
21
-4.34249
0
LINE
8
BLACK
6
CONTINUOUS
10
4.86001
20
-4.34249
11
4.856
21
-4.3455
0
LINE
8
BLACK
6
CONTINUOUS
10
4.856
20
-4.3455
11
4.8555
21
-4.346
0
LINE
8
BLACK
6
CONTINUOUS
10
4.8555
20
-4.346
11
4.85249
21
-4.35001
0
LINE
8
BLACK
6
CONTINUOUS
10
4.85249
20
-4.35001
11
4.85215
21
-4.35063
0
LINE
8
BLACK
6
CONTINUOUS
10
4.85215
20
-4.35063
11
4.85037
21
-4.35537
0
LINE
8
BLACK
6
CONTINUOUS
10
4.85037
20
-4.35537
11
4.85023
21
-4.35597
0
LINE
8
BLACK
6
CONTINUOUS
10
4.85023
20
-4.35597
11
4.85001
21
-4.35797
0
LINE
8
BLACK
6
CONTINUOUS
10
4.85001
20
-4.35797
11
4.85
21
-4.35824
0
LINE
8
BLACK
6
CONTINUOUS
10
4.85
20
-4.35824
11
4.85
21
-4.37929
0
LINE
8
BLACK
6
CONTINUOUS
10
4.85
20
-4.37929
11
4.85018
21
-4.37989
0
LINE
8
BLACK
6
CONTINUOUS
10
4.85018
20
-4.37989
11
4.85023
21
-4.37993
0
LINE
8
BLACK
6
CONTINUOUS
10
4.83283
20
-4.14486
11
4.45317
21
-4.14486
0
LINE
8
BLACK
6
CONTINUOUS
10
4.45317
20
-4.14486
11
4.45317
21
-4.25714
0
LINE
8
BLACK
6
CONTINUOUS
10
4.45317
20
-4.25714
11
4.83283
21
-4.25714
0
LINE
8
BLACK
6
CONTINUOUS
10
4.83283
20
-4.25714
11
4.83283
21
-4.14486
0
LINE
8
BLACK
6
CONTINUOUS
10
4.53527
20
-4.17667
11
4.53541
21
-4.17678
0
LINE
8
BLACK
6
CONTINUOUS
10
4.53541
20
-4.17678
11
4.53558
21
-4.1768
0
LINE
8
BLACK
6
CONTINUOUS
10
4.53558
20
-4.1768
11
4.53933
21
-4.17867
0
LINE
8
BLACK
6
CONTINUOUS
10
4.53933
20
-4.17867
11
4.54004
21
-4.1792
0
LINE
8
BLACK
6
CONTINUOUS
10
4.54004
20
-4.1792
11
4.5401
21
-4.17923
0
LINE
8
BLACK
6
CONTINUOUS
10
4.5401
20
-4.17923
11
4.54198
21
-4.1811
0
LINE
8
BLACK
6
CONTINUOUS
10
4.54198
20
-4.1811
11
4.54256
21
-4.18194
0
LINE
8
BLACK
6
CONTINUOUS
10
4.54256
20
-4.18194
11
4.54274
21
-4.18395
0
LINE
8
BLACK
6
CONTINUOUS
10
4.54274
20
-4.18395
11
4.54158
21
-4.18561
0
LINE
8
BLACK
6
CONTINUOUS
10
4.54158
20
-4.18561
11
4.53963
21
-4.18613
0
LINE
8
BLACK
6
CONTINUOUS
10
4.53963
20
-4.18613
11
4.5378
21
-4.18528
0
LINE
8
BLACK
6
CONTINUOUS
10
4.5378
20
-4.18528
11
4.53626
21
-4.18374
0
LINE
8
BLACK
6
CONTINUOUS
10
4.53626
20
-4.18374
11
4.53357
21
-4.18239
0
LINE
8
BLACK
6
CONTINUOUS
10
4.53357
20
-4.18239
11
4.52559
21
-4.18239
0
LINE
8
BLACK
6
CONTINUOUS
10
4.52559
20
-4.18239
11
4.52289
21
-4.18374
0
LINE
8
BLACK
6
CONTINUOUS
10
4.52289
20
-4.18374
11
4.52169
21
-4.18494
0
LINE
8
BLACK
6
CONTINUOUS
10
4.52169
20
-4.18494
11
4.52034
21
-4.18764
0
LINE
8
BLACK
6
CONTINUOUS
10
4.52034
20
-4.18764
11
4.52034
21
-4.19021
0
LINE
8
BLACK
6
CONTINUOUS
10
4.52034
20
-4.19021
11
4.52185
21
-4.19472
0
LINE
8
BLACK
6
CONTINUOUS
10
4.52185
20
-4.19472
11
4.54385
21
-4.21672
0
LINE
8
BLACK
6
CONTINUOUS
10
4.54385
20
-4.21672
11
4.54422
21
-4.21725
0
LINE
8
BLACK
6
CONTINUOUS
10
4.54422
20
-4.21725
11
4.54432
21
-4.21733
0
LINE
8
BLACK
6
CONTINUOUS
10
4.54432
20
-4.21733
11
4.54433
21
-4.21741
0
LINE
8
BLACK
6
CONTINUOUS
10
4.54433
20
-4.21741
11
4.54444
21
-4.21756
0
LINE
8
BLACK
6
CONTINUOUS
10
4.54444
20
-4.21756
11
4.54452
21
-4.21845
0
LINE
8
BLACK
6
CONTINUOUS
10
4.54452
20
-4.21845
11
4.54467
21
-4.21932
0
LINE
8
BLACK
6
CONTINUOUS
10
4.54467
20
-4.21932
11
4.5446
21
-4.21944
0
LINE
8
BLACK
6
CONTINUOUS
10
4.5446
20
-4.21944
11
4.54461
21
-4.21957
0
LINE
8
BLACK
6
CONTINUOUS
10
4.54461
20
-4.21957
11
4.54411
21
-4.2203
0
LINE
8
BLACK
6
CONTINUOUS
10
4.54411
20
-4.2203
11
4.54366
21
-4.22107
0
LINE
8
BLACK
6
CONTINUOUS
10
4.54366
20
-4.22107
11
4.54353
21
-4.22112
0
LINE
8
BLACK
6
CONTINUOUS
10
4.54353
20
-4.22112
11
4.54346
21
-4.22123
0
LINE
8
BLACK
6
CONTINUOUS
10
4.54346
20
-4.22123
11
4.5426
21
-4.22146
0
LINE
8
BLACK
6
CONTINUOUS
10
4.5426
20
-4.22146
11
4.54176
21
-4.22176
0
LINE
8
BLACK
6
CONTINUOUS
10
4.54176
20
-4.22176
11
4.51739
21
-4.22176
0
LINE
8
BLACK
6
CONTINUOUS
10
4.51739
20
-4.22176
11
4.51638
21
-4.22158
0
LINE
8
BLACK
6
CONTINUOUS
10
4.51638
20
-4.22158
11
4.51483
21
-4.22029
0
LINE
8
BLACK
6
CONTINUOUS
10
4.51483
20
-4.22029
11
4.51448
21
-4.2183
0
LINE
8
BLACK
6
CONTINUOUS
10
4.51448
20
-4.2183
11
4.51549
21
-4.21655
0
LINE
8
BLACK
6
CONTINUOUS
10
4.51549
20
-4.21655
11
4.51739
21
-4.21586
0
LINE
8
BLACK
6
CONTINUOUS
10
4.51739
20
-4.21586
11
4.53463
21
-4.21586
0
LINE
8
BLACK
6
CONTINUOUS
10
4.53463
20
-4.21586
11
4.51718
21
-4.1984
0
LINE
8
BLACK
6
CONTINUOUS
10
4.51718
20
-4.1984
11
4.51659
21
-4.19756
0
LINE
8
BLACK
6
CONTINUOUS
10
4.51659
20
-4.19756
11
4.51657
21
-4.19739
0
LINE
8
BLACK
6
CONTINUOUS
10
4.51657
20
-4.19739
11
4.51646
21
-4.19725
0
LINE
8
BLACK
6
CONTINUOUS
10
4.51646
20
-4.19725
11
4.51459
21
-4.19162
0
LINE
8
BLACK
6
CONTINUOUS
10
4.51459
20
-4.19162
11
4.51446
21
-4.19075
0
LINE
8
BLACK
6
CONTINUOUS
10
4.51446
20
-4.19075
11
4.51444
21
-4.19069
0
LINE
8
BLACK
6
CONTINUOUS
10
4.51444
20
-4.19069
11
4.51444
21
-4.18694
0
LINE
8
BLACK
6
CONTINUOUS
10
4.51444
20
-4.18694
11
4.51462
21
-4.18593
0
LINE
8
BLACK
6
CONTINUOUS
10
4.51462
20
-4.18593
11
4.51473
21
-4.18579
0
LINE
8
BLACK
6
CONTINUOUS
10
4.51473
20
-4.18579
11
4.51475
21
-4.18562
0
LINE
8
BLACK
6
CONTINUOUS
10
4.51475
20
-4.18562
11
4.51662
21
-4.18187
0
LINE
8
BLACK
6
CONTINUOUS
10
4.51662
20
-4.18187
11
4.51715
21
-4.18116
0
LINE
8
BLACK
6
CONTINUOUS
10
4.51715
20
-4.18116
11
4.51718
21
-4.1811
0
LINE
8
BLACK
6
CONTINUOUS
10
4.51718
20
-4.1811
11
4.51905
21
-4.17923
0
LINE
8
BLACK
6
CONTINUOUS
10
4.51905
20
-4.17923
11
4.51978
21
-4.17872
0
LINE
8
BLACK
6
CONTINUOUS
10
4.51978
20
-4.17872
11
4.51982
21
-4.17867
0
LINE
8
BLACK
6
CONTINUOUS
10
4.51982
20
-4.17867
11
4.52357
21
-4.1768
0
LINE
8
BLACK
6
CONTINUOUS
10
4.52357
20
-4.1768
11
4.52455
21
-4.17651
0
LINE
8
BLACK
6
CONTINUOUS
10
4.52455
20
-4.17651
11
4.52472
21
-4.17655
0
LINE
8
BLACK
6
CONTINUOUS
10
4.52472
20
-4.17655
11
4.52489
21
-4.17649
0
LINE
8
BLACK
6
CONTINUOUS
10
4.52489
20
-4.17649
11
4.53426
21
-4.17649
0
LINE
8
BLACK
6
CONTINUOUS
10
4.53426
20
-4.17649
11
4.53527
21
-4.17667
0
LINE
8
BLACK
6
CONTINUOUS
10
4.64151
20
-4.17656
11
4.64164
21
-4.17653
0
LINE
8
BLACK
6
CONTINUOUS
10
4.64164
20
-4.17653
11
4.64175
21
-4.1766
0
LINE
8
BLACK
6
CONTINUOUS
10
4.64175
20
-4.1766
11
4.64214
21
-4.17667
0
LINE
8
BLACK
6
CONTINUOUS
10
4.64214
20
-4.17667
11
4.64272
21
-4.17716
0
LINE
8
BLACK
6
CONTINUOUS
10
4.64272
20
-4.17716
11
4.64339
21
-4.17754
0
LINE
8
BLACK
6
CONTINUOUS
10
4.64339
20
-4.17754
11
4.64348
21
-4.17779
0
LINE
8
BLACK
6
CONTINUOUS
10
4.64348
20
-4.17779
11
4.64368
21
-4.17796
0
LINE
8
BLACK
6
CONTINUOUS
10
4.64368
20
-4.17796
11
4.64382
21
-4.17872
0
LINE
8
BLACK
6
CONTINUOUS
10
4.64382
20
-4.17872
11
4.64408
21
-4.17944
0
LINE
8
BLACK
6
CONTINUOUS
10
4.64408
20
-4.17944
11
4.64408
21
-4.21881
0
LINE
8
BLACK
6
CONTINUOUS
10
4.64408
20
-4.21881
11
4.64401
21
-4.21919
0
LINE
8
BLACK
6
CONTINUOUS
10
4.64401
20
-4.21919
11
4.64403
21
-4.21932
0
LINE
8
BLACK
6
CONTINUOUS
10
4.64403
20
-4.21932
11
4.64397
21
-4.21944
0
LINE
8
BLACK
6
CONTINUOUS
10
4.64397
20
-4.21944
11
4.6439
21
-4.21982
0
LINE
8
BLACK
6
CONTINUOUS
10
4.6439
20
-4.21982
11
4.64341
21
-4.22041
0
LINE
8
BLACK
6
CONTINUOUS
10
4.64341
20
-4.22041
11
4.64302
21
-4.22107
0
LINE
8
BLACK
6
CONTINUOUS
10
4.64302
20
-4.22107
11
4.64277
21
-4.22116
0
LINE
8
BLACK
6
CONTINUOUS
10
4.64277
20
-4.22116
11
4.6426
21
-4.22137
0
LINE
8
BLACK
6
CONTINUOUS
10
4.6426
20
-4.22137
11
4.64185
21
-4.2215
0
LINE
8
BLACK
6
CONTINUOUS
10
4.64185
20
-4.2215
11
4.64113
21
-4.22176
0
LINE
8
BLACK
6
CONTINUOUS
10
4.64113
20
-4.22176
11
4.62238
21
-4.22176
0
LINE
8
BLACK
6
CONTINUOUS
10
4.62238
20
-4.22176
11
4.62137
21
-4.22158
0
LINE
8
BLACK
6
CONTINUOUS
10
4.62137
20
-4.22158
11
4.61982
21
-4.22029
0
LINE
8
BLACK
6
CONTINUOUS
10
4.61982
20
-4.22029
11
4.61947
21
-4.2183
0
LINE
8
BLACK
6
CONTINUOUS
10
4.61947
20
-4.2183
11
4.62048
21
-4.21655
0
LINE
8
BLACK
6
CONTINUOUS
10
4.62048
20
-4.21655
11
4.62238
21
-4.21586
0
LINE
8
BLACK
6
CONTINUOUS
10
4.62238
20
-4.21586
11
4.63817
21
-4.21586
0
LINE
8
BLACK
6
CONTINUOUS
10
4.63817
20
-4.21586
11
4.63817
21
-4.20114
0
LINE
8
BLACK
6
CONTINUOUS
10
4.63817
20
-4.20114
11
4.628
21
-4.20114
0
LINE
8
BLACK
6
CONTINUOUS
10
4.628
20
-4.20114
11
4.62699
21
-4.20096
0
LINE
8
BLACK
6
CONTINUOUS
10
4.62699
20
-4.20096
11
4.62544
21
-4.19966
0
LINE
8
BLACK
6
CONTINUOUS
10
4.62544
20
-4.19966
11
4.62509
21
-4.19768
0
LINE
8
BLACK
6
CONTINUOUS
10
4.62509
20
-4.19768
11
4.6261
21
-4.19593
0
LINE
8
BLACK
6
CONTINUOUS
10
4.6261
20
-4.19593
11
4.628
21
-4.19524
0
LINE
8
BLACK
6
CONTINUOUS
10
4.628
20
-4.19524
11
4.63817
21
-4.19524
0
LINE
8
BLACK
6
CONTINUOUS
10
4.63817
20
-4.19524
11
4.63817
21
-4.18239
0
LINE
8
BLACK
6
CONTINUOUS
10
4.63817
20
-4.18239
11
4.62238
21
-4.18239
0
LINE
8
BLACK
6
CONTINUOUS
10
4.62238
20
-4.18239
11
4.62137
21
-4.18221
0
LINE
8
BLACK
6
CONTINUOUS
10
4.62137
20
-4.18221
11
4.61982
21
-4.18092
0
LINE
8
BLACK
6
CONTINUOUS
10
4.61982
20
-4.18092
11
4.61947
21
-4.17893
0
LINE
8
BLACK
6
CONTINUOUS
10
4.61947
20
-4.17893
11
4.62048
21
-4.17718
0
LINE
8
BLACK
6
CONTINUOUS
10
4.62048
20
-4.17718
11
4.62238
21
-4.17649
0
LINE
8
BLACK
6
CONTINUOUS
10
4.62238
20
-4.17649
11
4.64113
21
-4.17649
0
LINE
8
BLACK
6
CONTINUOUS
10
4.64113
20
-4.17649
11
4.64151
21
-4.17656
0
LINE
8
BLACK
6
CONTINUOUS
10
4.56902
20
-4.17667
11
4.56915
21
-4.17678
0
LINE
8
BLACK
6
CONTINUOUS
10
4.56915
20
-4.17678
11
4.56933
21
-4.1768
0
LINE
8
BLACK
6
CONTINUOUS
10
4.56933
20
-4.1768
11
4.57308
21
-4.17867
0
LINE
8
BLACK
6
CONTINUOUS
10
4.57308
20
-4.17867
11
4.57379
21
-4.1792
0
LINE
8
BLACK
6
CONTINUOUS
10
4.57379
20
-4.1792
11
4.57385
21
-4.17923
0
LINE
8
BLACK
6
CONTINUOUS
10
4.57385
20
-4.17923
11
4.57572
21
-4.1811
0
LINE
8
BLACK
6
CONTINUOUS
10
4.57572
20
-4.1811
11
4.57623
21
-4.18182
0
LINE
8
BLACK
6
CONTINUOUS
10
4.57623
20
-4.18182
11
4.57627
21
-4.18187
0
LINE
8
BLACK
6
CONTINUOUS
10
4.57627
20
-4.18187
11
4.57815
21
-4.18562
0
LINE
8
BLACK
6
CONTINUOUS
10
4.57815
20
-4.18562
11
4.57829
21
-4.18611
0
LINE
8
BLACK
6
CONTINUOUS
10
4.57829
20
-4.18611
11
4.57837
21
-4.18622
0
LINE
8
BLACK
6
CONTINUOUS
10
4.57837
20
-4.18622
11
4.58025
21
-4.19372
0
LINE
8
BLACK
6
CONTINUOUS
10
4.58025
20
-4.19372
11
4.58029
21
-4.19431
0
LINE
8
BLACK
6
CONTINUOUS
10
4.58029
20
-4.19431
11
4.58034
21
-4.19444
0
LINE
8
BLACK
6
CONTINUOUS
10
4.58034
20
-4.19444
11
4.58034
21
-4.20381
0
LINE
8
BLACK
6
CONTINUOUS
10
4.58034
20
-4.20381
11
4.58023
21
-4.20439
0
LINE
8
BLACK
6
CONTINUOUS
10
4.58023
20
-4.20439
11
4.58025
21
-4.20453
0
LINE
8
BLACK
6
CONTINUOUS
10
4.58025
20
-4.20453
11
4.57837
21
-4.21203
0
LINE
8
BLACK
6
CONTINUOUS
10
4.57837
20
-4.21203
11
4.57817
21
-4.21249
0
LINE
8
BLACK
6
CONTINUOUS
10
4.57817
20
-4.21249
11
4.57815
21
-4.21263
0
LINE
8
BLACK
6
CONTINUOUS
10
4.57815
20
-4.21263
11
4.57627
21
-4.21638
0
LINE
8
BLACK
6
CONTINUOUS
10
4.57627
20
-4.21638
11
4.57575
21
-4.21709
0
LINE
8
BLACK
6
CONTINUOUS
10
4.57575
20
-4.21709
11
4.57572
21
-4.21715
0
LINE
8
BLACK
6
CONTINUOUS
10
4.57572
20
-4.21715
11
4.57385
21
-4.21902
0
LINE
8
BLACK
6
CONTINUOUS
10
4.57385
20
-4.21902
11
4.57312
21
-4.21953
0
LINE
8
BLACK
6
CONTINUOUS
10
4.57312
20
-4.21953
11
4.57308
21
-4.21958
0
LINE
8
BLACK
6
CONTINUOUS
10
4.57308
20
-4.21958
11
4.56933
21
-4.22145
0
LINE
8
BLACK
6
CONTINUOUS
10
4.56933
20
-4.22145
11
4.56835
21
-4.22174
0
LINE
8
BLACK
6
CONTINUOUS
10
4.56835
20
-4.22174
11
4.56818
21
-4.2217
0
LINE
8
BLACK
6
CONTINUOUS
10
4.56818
20
-4.2217
11
4.56801
21
-4.22176
0
LINE
8
BLACK
6
CONTINUOUS
10
4.56801
20
-4.22176
11
4.56426
21
-4.22176
0
LINE
8
BLACK
6
CONTINUOUS
10
4.56426
20
-4.22176
11
4.56325
21
-4.22158
0
LINE
8
BLACK
6
CONTINUOUS
10
4.56325
20
-4.22158
11
4.56311
21
-4.22147
0
LINE
8
BLACK
6
CONTINUOUS
10
4.56311
20
-4.22147
11
4.56294
21
-4.22145
0
LINE
8
BLACK
6
CONTINUOUS
10
4.56294
20
-4.22145
11
4.55919
21
-4.21958
0
LINE
8
BLACK
6
CONTINUOUS
10
4.55919
20
-4.21958
11
4.55848
21
-4.21905
0
LINE
8
BLACK
6
CONTINUOUS
10
4.55848
20
-4.21905
11
4.55842
21
-4.21902
0
LINE
8
BLACK
6
CONTINUOUS
10
4.55842
20
-4.21902
11
4.55655
21
-4.21715
0
LINE
8
BLACK
6
CONTINUOUS
10
4.55655
20
-4.21715
11
4.55604
21
-4.21643
0
LINE
8
BLACK
6
CONTINUOUS
10
4.55604
20
-4.21643
11
4.55599
21
-4.21638
0
LINE
8
BLACK
6
CONTINUOUS
10
4.55599
20
-4.21638
11
4.55412
21
-4.21263
0
LINE
8
BLACK
6
CONTINUOUS
10
4.55412
20
-4.21263
11
4.55397
21
-4.21214
0
LINE
8
BLACK
6
CONTINUOUS
10
4.55397
20
-4.21214
11
4.5539
21
-4.21203
0
LINE
8
BLACK
6
CONTINUOUS
10
4.5539
20
-4.21203
11
4.55202
21
-4.20453
0
LINE
8
BLACK
6
CONTINUOUS
10
4.55202
20
-4.20453
11
4.55198
21
-4.20394
0
LINE
8
BLACK
6
CONTINUOUS
10
4.55198
20
-4.20394
11
4.55193
21
-4.20381
0
LINE
8
BLACK
6
CONTINUOUS
10
4.55193
20
-4.20381
11
4.55193
21
-4.19444
0
LINE
8
BLACK
6
CONTINUOUS
10
4.55193
20
-4.19444
11
4.55204
21
-4.19386
0
LINE
8
BLACK
6
CONTINUOUS
10
4.55204
20
-4.19386
11
4.55202
21
-4.19372
0
LINE
8
BLACK
6
CONTINUOUS
10
4.55202
20
-4.19372
11
4.5539
21
-4.18622
0
LINE
8
BLACK
6
CONTINUOUS
10
4.5539
20
-4.18622
11
4.5541
21
-4.18576
0
LINE
8
BLACK
6
CONTINUOUS
10
4.5541
20
-4.18576
11
4.55412
21
-4.18562
0
LINE
8
BLACK
6
CONTINUOUS
10
4.55412
20
-4.18562
11
4.55599
21
-4.18187
0
LINE
8
BLACK
6
CONTINUOUS
10
4.55599
20
-4.18187
11
4.55652
21
-4.18116
0
LINE
8
BLACK
6
CONTINUOUS
10
4.55652
20
-4.18116
11
4.55655
21
-4.1811
0
LINE
8
BLACK
6
CONTINUOUS
10
4.55655
20
-4.1811
11
4.55842
21
-4.17923
0
LINE
8
BLACK
6
CONTINUOUS
10
4.55842
20
-4.17923
11
4.55915
21
-4.17872
0
LINE
8
BLACK
6
CONTINUOUS
10
4.55915
20
-4.17872
11
4.55919
21
-4.17867
0
LINE
8
BLACK
6
CONTINUOUS
10
4.55919
20
-4.17867
11
4.56294
21
-4.1768
0
LINE
8
BLACK
6
CONTINUOUS
10
4.56294
20
-4.1768
11
4.56392
21
-4.17651
0
LINE
8
BLACK
6
CONTINUOUS
10
4.56392
20
-4.17651
11
4.56409
21
-4.17655
0
LINE
8
BLACK
6
CONTINUOUS
10
4.56409
20
-4.17655
11
4.56426
21
-4.17649
0
LINE
8
BLACK
6
CONTINUOUS
10
4.56426
20
-4.17649
11
4.56801
21
-4.17649
0
LINE
8
BLACK
6
CONTINUOUS
10
4.56801
20
-4.17649
11
4.56902
21
-4.17667
0
LINE
8
BLACK
6
CONTINUOUS
10
4.56496
20
-4.18239
11
4.56226
21
-4.18374
0
LINE
8
BLACK
6
CONTINUOUS
10
4.56226
20
-4.18374
11
4.56106
21
-4.18494
0
LINE
8
BLACK
6
CONTINUOUS
10
4.56106
20
-4.18494
11
4.55955
21
-4.18797
0
LINE
8
BLACK
6
CONTINUOUS
10
4.55955
20
-4.18797
11
4.55784
21
-4.1948
0
LINE
8
BLACK
6
CONTINUOUS
10
4.55784
20
-4.1948
11
4.55784
21
-4.20345
0
LINE
8
BLACK
6
CONTINUOUS
10
4.55784
20
-4.20345
11
4.55955
21
-4.21028
0
LINE
8
BLACK
6
CONTINUOUS
10
4.55955
20
-4.21028
11
4.56106
21
-4.21331
0
LINE
8
BLACK
6
CONTINUOUS
10
4.56106
20
-4.21331
11
4.56226
21
-4.21451
0
LINE
8
BLACK
6
CONTINUOUS
10
4.56226
20
-4.21451
11
4.56496
21
-4.21586
0
LINE
8
BLACK
6
CONTINUOUS
10
4.56496
20
-4.21586
11
4.56731
21
-4.21586
0
LINE
8
BLACK
6
CONTINUOUS
10
4.56731
20
-4.21586
11
4.57001
21
-4.21451
0
LINE
8
BLACK
6
CONTINUOUS
10
4.57001
20
-4.21451
11
4.57121
21
-4.21331
0
LINE
8
BLACK
6
CONTINUOUS
10
4.57121
20
-4.21331
11
4.57272
21
-4.21028
0
LINE
8
BLACK
6
CONTINUOUS
10
4.57272
20
-4.21028
11
4.57443
21
-4.20345
0
LINE
8
BLACK
6
CONTINUOUS
10
4.57443
20
-4.20345
11
4.57443
21
-4.1948
0
LINE
8
BLACK
6
CONTINUOUS
10
4.57443
20
-4.1948
11
4.57272
21
-4.18797
0
LINE
8
BLACK
6
CONTINUOUS
10
4.57272
20
-4.18797
11
4.57121
21
-4.18494
0
LINE
8
BLACK
6
CONTINUOUS
10
4.57121
20
-4.18494
11
4.57001
21
-4.18374
0
LINE
8
BLACK
6
CONTINUOUS
10
4.57001
20
-4.18374
11
4.56731
21
-4.18239
0
LINE
8
BLACK
6
CONTINUOUS
10
4.56731
20
-4.18239
11
4.56496
21
-4.18239
0
LINE
8
BLACK
6
CONTINUOUS
10
4.769
20
-4.17754
11
4.76969
21
-4.17944
0
LINE
8
BLACK
6
CONTINUOUS
10
4.76969
20
-4.17944
11
4.76969
21
-4.21881
0
LINE
8
BLACK
6
CONTINUOUS
10
4.76969
20
-4.21881
11
4.76962
21
-4.21919
0
LINE
8
BLACK
6
CONTINUOUS
10
4.76962
20
-4.21919
11
4.76964
21
-4.21932
0
LINE
8
BLACK
6
CONTINUOUS
10
4.76964
20
-4.21932
11
4.76958
21
-4.21944
0
LINE
8
BLACK
6
CONTINUOUS
10
4.76958
20
-4.21944
11
4.76951
21
-4.21982
0
LINE
8
BLACK
6
CONTINUOUS
10
4.76951
20
-4.21982
11
4.76902
21
-4.22041
0
LINE
8
BLACK
6
CONTINUOUS
10
4.76902
20
-4.22041
11
4.76863
21
-4.22107
0
LINE
8
BLACK
6
CONTINUOUS
10
4.76863
20
-4.22107
11
4.76838
21
-4.22116
0
LINE
8
BLACK
6
CONTINUOUS
10
4.76838
20
-4.22116
11
4.76821
21
-4.22137
0
LINE
8
BLACK
6
CONTINUOUS
10
4.76821
20
-4.22137
11
4.76746
21
-4.2215
0
LINE
8
BLACK
6
CONTINUOUS
10
4.76746
20
-4.2215
11
4.76673
21
-4.22176
0
LINE
8
BLACK
6
CONTINUOUS
10
4.76673
20
-4.22176
11
4.74799
21
-4.22176
0
LINE
8
BLACK
6
CONTINUOUS
10
4.74799
20
-4.22176
11
4.74698
21
-4.22158
0
LINE
8
BLACK
6
CONTINUOUS
10
4.74698
20
-4.22158
11
4.74543
21
-4.22029
0
LINE
8
BLACK
6
CONTINUOUS
10
4.74543
20
-4.22029
11
4.74508
21
-4.2183
0
LINE
8
BLACK
6
CONTINUOUS
10
4.74508
20
-4.2183
11
4.74609
21
-4.21655
0
LINE
8
BLACK
6
CONTINUOUS
10
4.74609
20
-4.21655
11
4.74799
21
-4.21586
0
LINE
8
BLACK
6
CONTINUOUS
10
4.74799
20
-4.21586
11
4.76378
21
-4.21586
0
LINE
8
BLACK
6
CONTINUOUS
10
4.76378
20
-4.21586
11
4.76378
21
-4.17944
0
LINE
8
BLACK
6
CONTINUOUS
10
4.76378
20
-4.17944
11
4.76396
21
-4.17843
0
LINE
8
BLACK
6
CONTINUOUS
10
4.76396
20
-4.17843
11
4.76526
21
-4.17688
0
LINE
8
BLACK
6
CONTINUOUS
10
4.76526
20
-4.17688
11
4.76725
21
-4.17653
0
LINE
8
BLACK
6
CONTINUOUS
10
4.76725
20
-4.17653
11
4.769
21
-4.17754
0
LINE
8
BLACK
6
CONTINUOUS
10
4.4935
20
-4.17671
11
4.49442
21
-4.17684
0
LINE
8
BLACK
6
CONTINUOUS
10
4.49442
20
-4.17684
11
4.49448
21
-4.17691
0
LINE
8
BLACK
6
CONTINUOUS
10
4.49448
20
-4.17691
11
4.49456
21
-4.17692
0
LINE
8
BLACK
6
CONTINUOUS
10
4.49456
20
-4.17692
11
4.49514
21
-4.17766
0
LINE
8
BLACK
6
CONTINUOUS
10
4.49514
20
-4.17766
11
4.49576
21
-4.17835
0
LINE
8
BLACK
6
CONTINUOUS
10
4.49576
20
-4.17835
11
4.49577
21
-4.17844
0
LINE
8
BLACK
6
CONTINUOUS
10
4.49577
20
-4.17844
11
4.49582
21
-4.17851
0
LINE
8
BLACK
6
CONTINUOUS
10
4.49582
20
-4.17851
11
4.50894
21
-4.21788
0
LINE
8
BLACK
6
CONTINUOUS
10
4.50894
20
-4.21788
11
4.50909
21
-4.21889
0
LINE
8
BLACK
6
CONTINUOUS
10
4.50909
20
-4.21889
11
4.50835
21
-4.22077
0
LINE
8
BLACK
6
CONTINUOUS
10
4.50835
20
-4.22077
11
4.50658
21
-4.22173
0
LINE
8
BLACK
6
CONTINUOUS
10
4.50658
20
-4.22173
11
4.5046
21
-4.22133
0
LINE
8
BLACK
6
CONTINUOUS
10
4.5046
20
-4.22133
11
4.50334
21
-4.21974
0
LINE
8
BLACK
6
CONTINUOUS
10
4.50334
20
-4.21974
11
4.50026
21
-4.21051
0
LINE
8
BLACK
6
CONTINUOUS
10
4.50026
20
-4.21051
11
4.48577
21
-4.21051
0
LINE
8
BLACK
6
CONTINUOUS
10
4.48577
20
-4.21051
11
4.4827
21
-4.21974
0
LINE
8
BLACK
6
CONTINUOUS
10
4.4827
20
-4.21974
11
4.48221
21
-4.22065
0
LINE
8
BLACK
6
CONTINUOUS
10
4.48221
20
-4.22065
11
4.48049
21
-4.2217
0
LINE
8
BLACK
6
CONTINUOUS
10
4.48049
20
-4.2217
11
4.47849
21
-4.22141
0
LINE
8
BLACK
6
CONTINUOUS
10
4.47849
20
-4.22141
11
4.47715
21
-4.2199
0
LINE
8
BLACK
6
CONTINUOUS
10
4.47715
20
-4.2199
11
4.47709
21
-4.21788
0
LINE
8
BLACK
6
CONTINUOUS
10
4.47709
20
-4.21788
11
4.49022
21
-4.17851
0
LINE
8
BLACK
6
CONTINUOUS
10
4.49022
20
-4.17851
11
4.49071
21
-4.1776
0
LINE
8
BLACK
6
CONTINUOUS
10
4.49071
20
-4.1776
11
4.49078
21
-4.17756
0
LINE
8
BLACK
6
CONTINUOUS
10
4.49078
20
-4.17756
11
4.49081
21
-4.17748
0
LINE
8
BLACK
6
CONTINUOUS
10
4.49081
20
-4.17748
11
4.49163
21
-4.17704
0
LINE
8
BLACK
6
CONTINUOUS
10
4.49163
20
-4.17704
11
4.49243
21
-4.17655
0
LINE
8
BLACK
6
CONTINUOUS
10
4.49243
20
-4.17655
11
4.49251
21
-4.17656
0
LINE
8
BLACK
6
CONTINUOUS
10
4.49251
20
-4.17656
11
4.49259
21
-4.17652
0
LINE
8
BLACK
6
CONTINUOUS
10
4.49259
20
-4.17652
11
4.4935
21
-4.17671
0
LINE
8
BLACK
6
CONTINUOUS
10
4.48774
20
-4.20461
11
4.4983
21
-4.20461
0
LINE
8
BLACK
6
CONTINUOUS
10
4.4983
20
-4.20461
11
4.49302
21
-4.18878
0
LINE
8
BLACK
6
CONTINUOUS
10
4.49302
20
-4.18878
11
4.48774
21
-4.20461
0
LINE
8
BLACK
6
CONTINUOUS
10
4.79346
20
-4.17671
11
4.79439
21
-4.17684
0
LINE
8
BLACK
6
CONTINUOUS
10
4.79439
20
-4.17684
11
4.79444
21
-4.17691
0
LINE
8
BLACK
6
CONTINUOUS
10
4.79444
20
-4.17691
11
4.79453
21
-4.17692
0
LINE
8
BLACK
6
CONTINUOUS
10
4.79453
20
-4.17692
11
4.79511
21
-4.17766
0
LINE
8
BLACK
6
CONTINUOUS
10
4.79511
20
-4.17766
11
4.79573
21
-4.17835
0
LINE
8
BLACK
6
CONTINUOUS
10
4.79573
20
-4.17835
11
4.79573
21
-4.17844
0
LINE
8
BLACK
6
CONTINUOUS
10
4.79573
20
-4.17844
11
4.79578
21
-4.17851
0
LINE
8
BLACK
6
CONTINUOUS
10
4.79578
20
-4.17851
11
4.80891
21
-4.21788
0
LINE
8
BLACK
6
CONTINUOUS
10
4.80891
20
-4.21788
11
4.80906
21
-4.21889
0
LINE
8
BLACK
6
CONTINUOUS
10
4.80906
20
-4.21889
11
4.80831
21
-4.22077
0
LINE
8
BLACK
6
CONTINUOUS
10
4.80831
20
-4.22077
11
4.80654
21
-4.22173
0
LINE
8
BLACK
6
CONTINUOUS
10
4.80654
20
-4.22173
11
4.80456
21
-4.22133
0
LINE
8
BLACK
6
CONTINUOUS
10
4.80456
20
-4.22133
11
4.8033
21
-4.21974
0
LINE
8
BLACK
6
CONTINUOUS
10
4.8033
20
-4.21974
11
4.80023
21
-4.21051
0
LINE
8
BLACK
6
CONTINUOUS
10
4.80023
20
-4.21051
11
4.78574
21
-4.21051
0
LINE
8
BLACK
6
CONTINUOUS
10
4.78574
20
-4.21051
11
4.78266
21
-4.21974
0
LINE
8
BLACK
6
CONTINUOUS
10
4.78266
20
-4.21974
11
4.78217
21
-4.22065
0
LINE
8
BLACK
6
CONTINUOUS
10
4.78217
20
-4.22065
11
4.78045
21
-4.2217
0
LINE
8
BLACK
6
CONTINUOUS
10
4.78045
20
-4.2217
11
4.77845
21
-4.22141
0
LINE
8
BLACK
6
CONTINUOUS
10
4.77845
20
-4.22141
11
4.77711
21
-4.2199
0
LINE
8
BLACK
6
CONTINUOUS
10
4.77711
20
-4.2199
11
4.77706
21
-4.21788
0
LINE
8
BLACK
6
CONTINUOUS
10
4.77706
20
-4.21788
11
4.79018
21
-4.17851
0
LINE
8
BLACK
6
CONTINUOUS
10
4.79018
20
-4.17851
11
4.79067
21
-4.1776
0
LINE
8
BLACK
6
CONTINUOUS
10
4.79067
20
-4.1776
11
4.79074
21
-4.17756
0
LINE
8
BLACK
6
CONTINUOUS
10
4.79074
20
-4.17756
11
4.79077
21
-4.17748
0
LINE
8
BLACK
6
CONTINUOUS
10
4.79077
20
-4.17748
11
4.79159
21
-4.17704
0
LINE
8
BLACK
6
CONTINUOUS
10
4.79159
20
-4.17704
11
4.79239
21
-4.17655
0
LINE
8
BLACK
6
CONTINUOUS
10
4.79239
20
-4.17655
11
4.79247
21
-4.17656
0
LINE
8
BLACK
6
CONTINUOUS
10
4.79247
20
-4.17656
11
4.79255
21
-4.17652
0
LINE
8
BLACK
6
CONTINUOUS
10
4.79255
20
-4.17652
11
4.79346
21
-4.17671
0
LINE
8
BLACK
6
CONTINUOUS
10
4.7877
20
-4.20461
11
4.79826
21
-4.20461
0
LINE
8
BLACK
6
CONTINUOUS
10
4.79826
20
-4.20461
11
4.79298
21
-4.18878
0
LINE
8
BLACK
6
CONTINUOUS
10
4.79298
20
-4.18878
11
4.7877
21
-4.20461
0
LINE
8
BLACK
6
CONTINUOUS
10
4.68624
20
-4.1766
11
4.68663
21
-4.17653
0
LINE
8
BLACK
6
CONTINUOUS
10
4.68663
20
-4.17653
11
4.68719
21
-4.17685
0
LINE
8
BLACK
6
CONTINUOUS
10
4.68719
20
-4.17685
11
4.68781
21
-4.17702
0
LINE
8
BLACK
6
CONTINUOUS
10
4.68781
20
-4.17702
11
4.68804
21
-4.17735
0
LINE
8
BLACK
6
CONTINUOUS
10
4.68804
20
-4.17735
11
4.68838
21
-4.17754
0
LINE
8
BLACK
6
CONTINUOUS
10
4.68838
20
-4.17754
11
4.6886
21
-4.17815
0
LINE
8
BLACK
6
CONTINUOUS
10
4.6886
20
-4.17815
11
4.68897
21
-4.17868
0
LINE
8
BLACK
6
CONTINUOUS
10
4.68897
20
-4.17868
11
4.68894
21
-4.17907
0
LINE
8
BLACK
6
CONTINUOUS
10
4.68894
20
-4.17907
11
4.68907
21
-4.17944
0
LINE
8
BLACK
6
CONTINUOUS
10
4.68907
20
-4.17944
11
4.68907
21
-4.21881
0
LINE
8
BLACK
6
CONTINUOUS
10
4.68907
20
-4.21881
11
4.68889
21
-4.21982
0
LINE
8
BLACK
6
CONTINUOUS
10
4.68889
20
-4.21982
11
4.6876
21
-4.22137
0
LINE
8
BLACK
6
CONTINUOUS
10
4.6876
20
-4.22137
11
4.68561
21
-4.22172
0
LINE
8
BLACK
6
CONTINUOUS
10
4.68561
20
-4.22172
11
4.68386
21
-4.22071
0
LINE
8
BLACK
6
CONTINUOUS
10
4.68386
20
-4.22071
11
4.68317
21
-4.21881
0
LINE
8
BLACK
6
CONTINUOUS
10
4.68317
20
-4.21881
11
4.68317
21
-4.19275
0
LINE
8
BLACK
6
CONTINUOUS
10
4.68317
20
-4.19275
11
4.67567
21
-4.20881
0
LINE
8
BLACK
6
CONTINUOUS
10
4.67567
20
-4.20881
11
4.67545
21
-4.20913
0
LINE
8
BLACK
6
CONTINUOUS
10
4.67545
20
-4.20913
11
4.67542
21
-4.20925
0
LINE
8
BLACK
6
CONTINUOUS
10
4.67542
20
-4.20925
11
4.67531
21
-4.20933
0
LINE
8
BLACK
6
CONTINUOUS
10
4.67531
20
-4.20933
11
4.67508
21
-4.20965
0
LINE
8
BLACK
6
CONTINUOUS
10
4.67508
20
-4.20965
11
4.67439
21
-4.20997
0
LINE
8
BLACK
6
CONTINUOUS
10
4.67439
20
-4.20997
11
4.67376
21
-4.21041
0
LINE
8
BLACK
6
CONTINUOUS
10
4.67376
20
-4.21041
11
4.67349
21
-4.21039
0
LINE
8
BLACK
6
CONTINUOUS
10
4.67349
20
-4.21039
11
4.67325
21
-4.2105
0
LINE
8
BLACK
6
CONTINUOUS
10
4.67325
20
-4.2105
11
4.67251
21
-4.2103
0
LINE
8
BLACK
6
CONTINUOUS
10
4.67251
20
-4.2103
11
4.67175
21
-4.21024
0
LINE
8
BLACK
6
CONTINUOUS
10
4.67175
20
-4.21024
11
4.67156
21
-4.21005
0
LINE
8
BLACK
6
CONTINUOUS
10
4.67156
20
-4.21005
11
4.6713
21
-4.20998
0
LINE
8
BLACK
6
CONTINUOUS
10
4.6713
20
-4.20998
11
4.67086
21
-4.20935
0
LINE
8
BLACK
6
CONTINUOUS
10
4.67086
20
-4.20935
11
4.67032
21
-4.20881
0
LINE
8
BLACK
6
CONTINUOUS
10
4.67032
20
-4.20881
11
4.66283
21
-4.19275
0
LINE
8
BLACK
6
CONTINUOUS
10
4.66283
20
-4.19275
11
4.66283
21
-4.21881
0
LINE
8
BLACK
6
CONTINUOUS
10
4.66283
20
-4.21881
11
4.66265
21
-4.21982
0
LINE
8
BLACK
6
CONTINUOUS
10
4.66265
20
-4.21982
11
4.66135
21
-4.22137
0
LINE
8
BLACK
6
CONTINUOUS
10
4.66135
20
-4.22137
11
4.65936
21
-4.22172
0
LINE
8
BLACK
6
CONTINUOUS
10
4.65936
20
-4.22172
11
4.65761
21
-4.22071
0
LINE
8
BLACK
6
CONTINUOUS
10
4.65761
20
-4.22071
11
4.65692
21
-4.21881
0
LINE
8
BLACK
6
CONTINUOUS
10
4.65692
20
-4.21881
11
4.65692
21
-4.17944
0
LINE
8
BLACK
6
CONTINUOUS
10
4.65692
20
-4.17944
11
4.6571
21
-4.17843
0
LINE
8
BLACK
6
CONTINUOUS
10
4.6571
20
-4.17843
11
4.65735
21
-4.17813
0
LINE
8
BLACK
6
CONTINUOUS
10
4.65735
20
-4.17813
11
4.65745
21
-4.17775
0
LINE
8
BLACK
6
CONTINUOUS
10
4.65745
20
-4.17775
11
4.65798
21
-4.17738
0
LINE
8
BLACK
6
CONTINUOUS
10
4.65798
20
-4.17738
11
4.6584
21
-4.17688
0
LINE
8
BLACK
6
CONTINUOUS
10
4.6584
20
-4.17688
11
4.65878
21
-4.17681
0
LINE
8
BLACK
6
CONTINUOUS
10
4.65878
20
-4.17681
11
4.65911
21
-4.17659
0
LINE
8
BLACK
6
CONTINUOUS
10
4.65911
20
-4.17659
11
4.65975
21
-4.17664
0
LINE
8
BLACK
6
CONTINUOUS
10
4.65975
20
-4.17664
11
4.66039
21
-4.17653
0
LINE
8
BLACK
6
CONTINUOUS
10
4.66039
20
-4.17653
11
4.66073
21
-4.17673
0
LINE
8
BLACK
6
CONTINUOUS
10
4.66073
20
-4.17673
11
4.66112
21
-4.17676
0
LINE
8
BLACK
6
CONTINUOUS
10
4.66112
20
-4.17676
11
4.66158
21
-4.17722
0
LINE
8
BLACK
6
CONTINUOUS
10
4.66158
20
-4.17722
11
4.66213
21
-4.17754
0
LINE
8
BLACK
6
CONTINUOUS
10
4.66213
20
-4.17754
11
4.66227
21
-4.17791
0
LINE
8
BLACK
6
CONTINUOUS
10
4.66227
20
-4.17791
11
4.66255
21
-4.17819
0
LINE
8
BLACK
6
CONTINUOUS
10
4.66255
20
-4.17819
11
4.673
21
-4.20058
0
LINE
8
BLACK
6
CONTINUOUS
10
4.673
20
-4.20058
11
4.68344
21
-4.17819
0
LINE
8
BLACK
6
CONTINUOUS
10
4.68344
20
-4.17819
11
4.68403
21
-4.17735
0
LINE
8
BLACK
6
CONTINUOUS
10
4.68403
20
-4.17735
11
4.68439
21
-4.17719
0
LINE
8
BLACK
6
CONTINUOUS
10
4.68439
20
-4.17719
11
4.68464
21
-4.17688
0
LINE
8
BLACK
6
CONTINUOUS
10
4.68464
20
-4.17688
11
4.68528
21
-4.17677
0
LINE
8
BLACK
6
CONTINUOUS
10
4.68528
20
-4.17677
11
4.68586
21
-4.1765
0
LINE
8
BLACK
6
CONTINUOUS
10
4.68586
20
-4.1765
11
4.68624
21
-4.1766
0
LINE
8
BLACK
6
CONTINUOUS
10
4.70713
20
-4.17754
11
4.70782
21
-4.17944
0
LINE
8
BLACK
6
CONTINUOUS
10
4.70782
20
-4.17944
11
4.70782
21
-4.21881
0
LINE
8
BLACK
6
CONTINUOUS
10
4.70782
20
-4.21881
11
4.70764
21
-4.21982
0
LINE
8
BLACK
6
CONTINUOUS
10
4.70764
20
-4.21982
11
4.70634
21
-4.22137
0
LINE
8
BLACK
6
CONTINUOUS
10
4.70634
20
-4.22137
11
4.70435
21
-4.22172
0
LINE
8
BLACK
6
CONTINUOUS
10
4.70435
20
-4.22172
11
4.70261
21
-4.22071
0
LINE
8
BLACK
6
CONTINUOUS
10
4.70261
20
-4.22071
11
4.70191
21
-4.21881
0
LINE
8
BLACK
6
CONTINUOUS
10
4.70191
20
-4.21881
11
4.70191
21
-4.17944
0
LINE
8
BLACK
6
CONTINUOUS
10
4.70191
20
-4.17944
11
4.70209
21
-4.17843
0
LINE
8
BLACK
6
CONTINUOUS
10
4.70209
20
-4.17843
11
4.70339
21
-4.17688
0
LINE
8
BLACK
6
CONTINUOUS
10
4.70339
20
-4.17688
11
4.70538
21
-4.17653
0
LINE
8
BLACK
6
CONTINUOUS
10
4.70538
20
-4.17653
11
4.70713
21
-4.17754
0
LINE
8
BLACK
6
CONTINUOUS
10
4.7415
20
-4.17667
11
4.74304
21
-4.17796
0
LINE
8
BLACK
6
CONTINUOUS
10
4.74304
20
-4.17796
11
4.7434
21
-4.17995
0
LINE
8
BLACK
6
CONTINUOUS
10
4.7434
20
-4.17995
11
4.74239
21
-4.1817
0
LINE
8
BLACK
6
CONTINUOUS
10
4.74239
20
-4.1817
11
4.74049
21
-4.18239
0
LINE
8
BLACK
6
CONTINUOUS
10
4.74049
20
-4.18239
11
4.73219
21
-4.18239
0
LINE
8
BLACK
6
CONTINUOUS
10
4.73219
20
-4.18239
11
4.73219
21
-4.21881
0
LINE
8
BLACK
6
CONTINUOUS
10
4.73219
20
-4.21881
11
4.73201
21
-4.21982
0
LINE
8
BLACK
6
CONTINUOUS
10
4.73201
20
-4.21982
11
4.73072
21
-4.22137
0
LINE
8
BLACK
6
CONTINUOUS
10
4.73072
20
-4.22137
11
4.72873
21
-4.22172
0
LINE
8
BLACK
6
CONTINUOUS
10
4.72873
20
-4.22172
11
4.72698
21
-4.22071
0
LINE
8
BLACK
6
CONTINUOUS
10
4.72698
20
-4.22071
11
4.72629
21
-4.21881
0
LINE
8
BLACK
6
CONTINUOUS
10
4.72629
20
-4.21881
11
4.72629
21
-4.18239
0
LINE
8
BLACK
6
CONTINUOUS
10
4.72629
20
-4.18239
11
4.71799
21
-4.18239
0
LINE
8
BLACK
6
CONTINUOUS
10
4.71799
20
-4.18239
11
4.71698
21
-4.18221
0
LINE
8
BLACK
6
CONTINUOUS
10
4.71698
20
-4.18221
11
4.71543
21
-4.18092
0
LINE
8
BLACK
6
CONTINUOUS
10
4.71543
20
-4.18092
11
4.71508
21
-4.17893
0
LINE
8
BLACK
6
CONTINUOUS
10
4.71508
20
-4.17893
11
4.71609
21
-4.17718
0
LINE
8
BLACK
6
CONTINUOUS
10
4.71609
20
-4.17718
11
4.71799
21
-4.17649
0
LINE
8
BLACK
6
CONTINUOUS
10
4.71799
20
-4.17649
11
4.74049
21
-4.17649
0
LINE
8
BLACK
6
CONTINUOUS
10
4.74049
20
-4.17649
11
4.7415
21
-4.17667
0
LINE
8
BLACK
6
CONTINUOUS
10
4.61214
20
-4.17667
11
4.61369
21
-4.17796
0
LINE
8
BLACK
6
CONTINUOUS
10
4.61369
20
-4.17796
11
4.61404
21
-4.17995
0
LINE
8
BLACK
6
CONTINUOUS
10
4.61404
20
-4.17995
11
4.61303
21
-4.1817
0
LINE
8
BLACK
6
CONTINUOUS
10
4.61303
20
-4.1817
11
4.61113
21
-4.18239
0
LINE
8
BLACK
6
CONTINUOUS
10
4.61113
20
-4.18239
11
4.60283
21
-4.18239
0
LINE
8
BLACK
6
CONTINUOUS
10
4.60283
20
-4.18239
11
4.60283
21
-4.21881
0
LINE
8
BLACK
6
CONTINUOUS
10
4.60283
20
-4.21881
11
4.60266
21
-4.21982
0
LINE
8
BLACK
6
CONTINUOUS
10
4.60266
20
-4.21982
11
4.60136
21
-4.22137
0
LINE
8
BLACK
6
CONTINUOUS
10
4.60136
20
-4.22137
11
4.59937
21
-4.22172
0
LINE
8
BLACK
6
CONTINUOUS
10
4.59937
20
-4.22172
11
4.59762
21
-4.22071
0
LINE
8
BLACK
6
CONTINUOUS
10
4.59762
20
-4.22071
11
4.59693
21
-4.21881
0
LINE
8
BLACK
6
CONTINUOUS
10
4.59693
20
-4.21881
11
4.59693
21
-4.18239
0
LINE
8
BLACK
6
CONTINUOUS
10
4.59693
20
-4.18239
11
4.58863
21
-4.18239
0
LINE
8
BLACK
6
CONTINUOUS
10
4.58863
20
-4.18239
11
4.58762
21
-4.18221
0
LINE
8
BLACK
6
CONTINUOUS
10
4.58762
20
-4.18221
11
4.58607
21
-4.18092
0
LINE
8
BLACK
6
CONTINUOUS
10
4.58607
20
-4.18092
11
4.58572
21
-4.17893
0
LINE
8
BLACK
6
CONTINUOUS
10
4.58572
20
-4.17893
11
4.58673
21
-4.17718
0
LINE
8
BLACK
6
CONTINUOUS
10
4.58673
20
-4.17718
11
4.58863
21
-4.17649
0
LINE
8
BLACK
6
CONTINUOUS
10
4.58863
20
-4.17649
11
4.61113
21
-4.17649
0
LINE
8
BLACK
6
CONTINUOUS
10
4.61113
20
-4.17649
11
4.61214
21
-4.17667
0
LINE
8
BLACK
6
CONTINUOUS
10
5.61068
20
-4.19839
11
5.61096
21
-4.19791
0
LINE
8
BLACK
6
CONTINUOUS
10
5.61096
20
-4.19791
11
5.61264
21
-4.19501
0
LINE
8
BLACK
6
CONTINUOUS
10
5.61264
20
-4.19501
11
5.61273
21
-4.19485
0
LINE
8
BLACK
6
CONTINUOUS
10
5.61273
20
-4.19485
11
5.61273
21
-4.19485
0
LINE
8
BLACK
6
CONTINUOUS
10
5.61273
20
-4.19485
11
5.61286
21
-4.19463
0
LINE
8
BLACK
6
CONTINUOUS
10
5.61286
20
-4.19463
11
5.61518
21
-4.18748
0
LINE
8
BLACK
6
CONTINUOUS
10
5.61518
20
-4.18748
11
5.6153
21
-4.1863
0
LINE
8
BLACK
6
CONTINUOUS
10
5.6153
20
-4.1863
11
5.61594
21
-4.18026
0
LINE
8
BLACK
6
CONTINUOUS
10
5.61594
20
-4.18026
11
5.61596
21
-4.18
0
LINE
8
BLACK
6
CONTINUOUS
10
5.61596
20
-4.18
11
5.61571
21
-4.17762
0
LINE
8
BLACK
6
CONTINUOUS
10
5.61571
20
-4.17762
11
5.61521
21
-4.17278
0
LINE
8
BLACK
6
CONTINUOUS
10
5.61521
20
-4.17278
11
5.61521
21
-4.17278
0
LINE
8
BLACK
6
CONTINUOUS
10
5.61521
20
-4.17278
11
5.61518
21
-4.17252
0
LINE
8
BLACK
6
CONTINUOUS
10
5.61518
20
-4.17252
11
5.61286
21
-4.16537
0
LINE
8
BLACK
6
CONTINUOUS
10
5.61286
20
-4.16537
11
5.6091
21
-4.15886
0
LINE
8
BLACK
6
CONTINUOUS
10
5.6091
20
-4.15886
11
5.60889
21
-4.15863
0
LINE
8
BLACK
6
CONTINUOUS
10
5.60889
20
-4.15863
11
5.60424
21
-4.15347
0
LINE
8
BLACK
6
CONTINUOUS
10
5.60424
20
-4.15347
11
5.60424
21
-4.15347
0
LINE
8
BLACK
6
CONTINUOUS
10
5.60424
20
-4.15347
11
5.60407
21
-4.15327
0
LINE
8
BLACK
6
CONTINUOUS
10
5.60407
20
-4.15327
11
5.59798
21
-4.14885
0
LINE
8
BLACK
6
CONTINUOUS
10
5.59798
20
-4.14885
11
5.59775
21
-4.14875
0
LINE
8
BLACK
6
CONTINUOUS
10
5.59775
20
-4.14875
11
5.59774
21
-4.14875
0
LINE
8
BLACK
6
CONTINUOUS
10
5.59774
20
-4.14875
11
5.59135
21
-4.1459
0
LINE
8
BLACK
6
CONTINUOUS
10
5.59135
20
-4.1459
11
5.59135
21
-4.1459
0
LINE
8
BLACK
6
CONTINUOUS
10
5.59135
20
-4.1459
11
5.59111
21
-4.1458
0
LINE
8
BLACK
6
CONTINUOUS
10
5.59111
20
-4.1458
11
5.58701
21
-4.14492
0
LINE
8
BLACK
6
CONTINUOUS
10
5.58701
20
-4.14492
11
5.58401
21
-4.14429
0
LINE
8
BLACK
6
CONTINUOUS
10
5.58401
20
-4.14429
11
5.58401
21
-4.14429
0
LINE
8
BLACK
6
CONTINUOUS
10
5.58401
20
-4.14429
11
5.58376
21
-4.14423
0
LINE
8
BLACK
6
CONTINUOUS
10
5.58376
20
-4.14423
11
5.57624
21
-4.14423
0
LINE
8
BLACK
6
CONTINUOUS
10
5.57624
20
-4.14423
11
5.57599
21
-4.14429
0
LINE
8
BLACK
6
CONTINUOUS
10
5.57599
20
-4.14429
11
5.57599
21
-4.14429
0
LINE
8
BLACK
6
CONTINUOUS
10
5.57599
20
-4.14429
11
5.57299
21
-4.14492
0
LINE
8
BLACK
6
CONTINUOUS
10
5.57299
20
-4.14492
11
5.56889
21
-4.1458
0
LINE
8
BLACK
6
CONTINUOUS
10
5.56889
20
-4.1458
11
5.56865
21
-4.1459
0
LINE
8
BLACK
6
CONTINUOUS
10
5.56865
20
-4.1459
11
5.56865
21
-4.1459
0
LINE
8
BLACK
6
CONTINUOUS
10
5.56865
20
-4.1459
11
5.56226
21
-4.14875
0
LINE
8
BLACK
6
CONTINUOUS
10
5.56226
20
-4.14875
11
5.56225
21
-4.14875
0
LINE
8
BLACK
6
CONTINUOUS
10
5.56225
20
-4.14875
11
5.56202
21
-4.14885
0
LINE
8
BLACK
6
CONTINUOUS
10
5.56202
20
-4.14885
11
5.55593
21
-4.15327
0
LINE
8
BLACK
6
CONTINUOUS
10
5.55593
20
-4.15327
11
5.55576
21
-4.15347
0
LINE
8
BLACK
6
CONTINUOUS
10
5.55576
20
-4.15347
11
5.55576
21
-4.15347
0
LINE
8
BLACK
6
CONTINUOUS
10
5.55576
20
-4.15347
11
5.55111
21
-4.15863
0
LINE
8
BLACK
6
CONTINUOUS
10
5.55111
20
-4.15863
11
5.5509
21
-4.15886
0
LINE
8
BLACK
6
CONTINUOUS
10
5.5509
20
-4.15886
11
5.54714
21
-4.16537
0
LINE
8
BLACK
6
CONTINUOUS
10
5.54714
20
-4.16537
11
5.54482
21
-4.17252
0
LINE
8
BLACK
6
CONTINUOUS
10
5.54482
20
-4.17252
11
5.54479
21
-4.17278
0
LINE
8
BLACK
6
CONTINUOUS
10
5.54479
20
-4.17278
11
5.54479
21
-4.17278
0
LINE
8
BLACK
6
CONTINUOUS
10
5.54479
20
-4.17278
11
5.54428
21
-4.17762
0
LINE
8
BLACK
6
CONTINUOUS
10
5.54428
20
-4.17762
11
5.54404
21
-4.18
0
LINE
8
BLACK
6
CONTINUOUS
10
5.54404
20
-4.18
11
5.54406
21
-4.18026
0
LINE
8
BLACK
6
CONTINUOUS
10
5.54406
20
-4.18026
11
5.5447
21
-4.1863
0
LINE
8
BLACK
6
CONTINUOUS
10
5.5447
20
-4.1863
11
5.54482
21
-4.18748
0
LINE
8
BLACK
6
CONTINUOUS
10
5.54482
20
-4.18748
11
5.54714
21
-4.19463
0
LINE
8
BLACK
6
CONTINUOUS
10
5.54714
20
-4.19463
11
5.54727
21
-4.19485
0
LINE
8
BLACK
6
CONTINUOUS
10
5.54727
20
-4.19485
11
5.54727
21
-4.19485
0
LINE
8
BLACK
6
CONTINUOUS
10
5.54727
20
-4.19485
11
5.54736
21
-4.19501
0
LINE
8
BLACK
6
CONTINUOUS
10
5.54736
20
-4.19501
11
5.54904
21
-4.19791
0
LINE
8
BLACK
6
CONTINUOUS
10
5.54904
20
-4.19791
11
5.54932
21
-4.19839
0
LINE
8
BLACK
6
CONTINUOUS
10
5.54932
20
-4.19839
11
5.54998
21
-4.20087
0
LINE
8
BLACK
6
CONTINUOUS
10
5.54998
20
-4.20087
11
5.54998
21
-4.25245
0
LINE
8
BLACK
6
CONTINUOUS
10
5.54998
20
-4.25245
11
5.54919
21
-4.25513
0
LINE
8
BLACK
6
CONTINUOUS
10
5.54919
20
-4.25513
11
5.54708
21
-4.25696
0
LINE
8
BLACK
6
CONTINUOUS
10
5.54708
20
-4.25696
11
5.54431
21
-4.25736
0
LINE
8
BLACK
6
CONTINUOUS
10
5.54431
20
-4.25736
11
5.54177
21
-4.2562
0
LINE
8
BLACK
6
CONTINUOUS
10
5.54177
20
-4.2562
11
5.54152
21
-4.25596
0
LINE
8
BLACK
6
CONTINUOUS
10
5.54152
20
-4.25596
11
5.53753
21
-4.25198
0
LINE
8
BLACK
6
CONTINUOUS
10
5.53753
20
-4.25198
11
5.53708
21
-4.25162
0
LINE
8
BLACK
6
CONTINUOUS
10
5.53708
20
-4.25162
11
5.53164
21
-4.24827
0
LINE
8
BLACK
6
CONTINUOUS
10
5.53164
20
-4.24827
11
5.53113
21
-4.24803
0
LINE
8
BLACK
6
CONTINUOUS
10
5.53113
20
-4.24803
11
5.52505
21
-4.24602
0
LINE
8
BLACK
6
CONTINUOUS
10
5.52505
20
-4.24602
11
5.52452
21
-4.24591
0
LINE
8
BLACK
6
CONTINUOUS
10
5.52452
20
-4.24591
11
5.52081
21
-4.24552
0
LINE
8
BLACK
6
CONTINUOUS
10
5.52081
20
-4.24552
11
5.52056
21
-4.24551
0
LINE
8
BLACK
6
CONTINUOUS
10
5.52056
20
-4.24551
11
5.51071
21
-4.24551
0
LINE
8
BLACK
6
CONTINUOUS
10
5.51071
20
-4.24551
11
5.51011
21
-4.24569
0
LINE
8
BLACK
6
CONTINUOUS
10
5.51011
20
-4.24569
11
5.51007
21
-4.24574
0
LINE
8
BLACK
6
CONTINUOUS
10
5.51007
20
-4.24574
11
5.51
21
-4.24605
0
LINE
8
BLACK
6
CONTINUOUS
10
5.51
20
-4.24605
11
5.51
21
-4.26551
0
LINE
8
BLACK
6
CONTINUOUS
10
5.51
20
-4.26551
11
5.5187
21
-4.26551
0
LINE
8
BLACK
6
CONTINUOUS
10
5.5187
20
-4.26551
11
5.52247
21
-4.26626
0
LINE
8
BLACK
6
CONTINUOUS
10
5.52247
20
-4.26626
11
5.52566
21
-4.26839
0
LINE
8
BLACK
6
CONTINUOUS
10
5.52566
20
-4.26839
11
5.52779
21
-4.27159
0
LINE
8
BLACK
6
CONTINUOUS
10
5.52779
20
-4.27159
11
5.52854
21
-4.27535
0
LINE
8
BLACK
6
CONTINUOUS
10
5.52854
20
-4.27535
11
5.52854
21
-4.29504
0
LINE
8
BLACK
6
CONTINUOUS
10
5.52854
20
-4.29504
11
5.52779
21
-4.29881
0
LINE
8
BLACK
6
CONTINUOUS
10
5.52779
20
-4.29881
11
5.52566
21
-4.302
0
LINE
8
BLACK
6
CONTINUOUS
10
5.52566
20
-4.302
11
5.52247
21
-4.30413
0
LINE
8
BLACK
6
CONTINUOUS
10
5.52247
20
-4.30413
11
5.5187
21
-4.30488
0
LINE
8
BLACK
6
CONTINUOUS
10
5.5187
20
-4.30488
11
5.4813
21
-4.30488
0
LINE
8
BLACK
6
CONTINUOUS
10
5.4813
20
-4.30488
11
5.47753
21
-4.30413
0
LINE
8
BLACK
6
CONTINUOUS
10
5.47753
20
-4.30413
11
5.47434
21
-4.302
0
LINE
8
BLACK
6
CONTINUOUS
10
5.47434
20
-4.302
11
5.47221
21
-4.29881
0
LINE
8
BLACK
6
CONTINUOUS
10
5.47221
20
-4.29881
11
5.47149
21
-4.2952
0
LINE
8
BLACK
6
CONTINUOUS
10
5.47149
20
-4.2952
11
5.43851
21
-4.2952
0
LINE
8
BLACK
6
CONTINUOUS
10
5.43851
20
-4.2952
11
5.43779
21
-4.29881
0
LINE
8
BLACK
6
CONTINUOUS
10
5.43779
20
-4.29881
11
5.43566
21
-4.302
0
LINE
8
BLACK
6
CONTINUOUS
10
5.43566
20
-4.302
11
5.43247
21
-4.30413
0
LINE
8
BLACK
6
CONTINUOUS
10
5.43247
20
-4.30413
11
5.4287
21
-4.30488
0
LINE
8
BLACK
6
CONTINUOUS
10
5.4287
20
-4.30488
11
5.3913
21
-4.30488
0
LINE
8
BLACK
6
CONTINUOUS
10
5.3913
20
-4.30488
11
5.38753
21
-4.30413
0
LINE
8
BLACK
6
CONTINUOUS
10
5.38753
20
-4.30413
11
5.38434
21
-4.302
0
LINE
8
BLACK
6
CONTINUOUS
10
5.38434
20
-4.302
11
5.38221
21
-4.29881
0
LINE
8
BLACK
6
CONTINUOUS
10
5.38221
20
-4.29881
11
5.38146
21
-4.29504
0
LINE
8
BLACK
6
CONTINUOUS
10
5.38146
20
-4.29504
11
5.38146
21
-4.27535
0
LINE
8
BLACK
6
CONTINUOUS
10
5.38146
20
-4.27535
11
5.38221
21
-4.27159
0
LINE
8
BLACK
6
CONTINUOUS
10
5.38221
20
-4.27159
11
5.38434
21
-4.26839
0
LINE
8
BLACK
6
CONTINUOUS
10
5.38434
20
-4.26839
11
5.38753
21
-4.26626
0
LINE
8
BLACK
6
CONTINUOUS
10
5.38753
20
-4.26626
11
5.3913
21
-4.26551
0
LINE
8
BLACK
6
CONTINUOUS
10
5.3913
20
-4.26551
11
5.4
21
-4.26551
0
LINE
8
BLACK
6
CONTINUOUS
10
5.4
20
-4.26551
11
5.4
21
-4.24623
0
LINE
8
BLACK
6
CONTINUOUS
10
5.4
20
-4.24623
11
5.39982
21
-4.24563
0
LINE
8
BLACK
6
CONTINUOUS
10
5.39982
20
-4.24563
11
5.39977
21
-4.24558
0
LINE
8
BLACK
6
CONTINUOUS
10
5.39977
20
-4.24558
11
5.39947
21
-4.24551
0
LINE
8
BLACK
6
CONTINUOUS
10
5.39947
20
-4.24551
11
5.38945
21
-4.24551
0
LINE
8
BLACK
6
CONTINUOUS
10
5.38945
20
-4.24551
11
5.38919
21
-4.24553
0
LINE
8
BLACK
6
CONTINUOUS
10
5.38919
20
-4.24553
11
5.38542
21
-4.24592
0
LINE
8
BLACK
6
CONTINUOUS
10
5.38542
20
-4.24592
11
5.3849
21
-4.24603
0
LINE
8
BLACK
6
CONTINUOUS
10
5.3849
20
-4.24603
11
5.37883
21
-4.24805
0
LINE
8
BLACK
6
CONTINUOUS
10
5.37883
20
-4.24805
11
5.37831
21
-4.2483
0
LINE
8
BLACK
6
CONTINUOUS
10
5.37831
20
-4.2483
11
5.37288
21
-4.25166
0
LINE
8
BLACK
6
CONTINUOUS
10
5.37288
20
-4.25166
11
5.37271
21
-4.25179
0
LINE
8
BLACK
6
CONTINUOUS
10
5.37271
20
-4.25179
11
5.37012
21
-4.25284
0
LINE
8
BLACK
6
CONTINUOUS
10
5.37012
20
-4.25284
11
5.36738
21
-4.25232
0
LINE
8
BLACK
6
CONTINUOUS
10
5.36738
20
-4.25232
11
5.36535
21
-4.2504
0
LINE
8
BLACK
6
CONTINUOUS
10
5.36535
20
-4.2504
11
5.36499
21
-4.24964
0
LINE
8
BLACK
6
CONTINUOUS
10
5.36499
20
-4.24964
11
5.36349
21
-4.24566
0
LINE
8
BLACK
6
CONTINUOUS
10
5.36349
20
-4.24566
11
5.36337
21
-4.24533
0
LINE
8
BLACK
6
CONTINUOUS
10
5.36337
20
-4.24533
11
5.3627
21
-4.24444
0
LINE
8
BLACK
6
CONTINUOUS
10
5.3627
20
-4.24444
11
5.36173
21
-4.24182
0
LINE
8
BLACK
6
CONTINUOUS
10
5.36173
20
-4.24182
11
5.36171
21
-4.24146
0
LINE
8
BLACK
6
CONTINUOUS
10
5.36171
20
-4.24146
11
5.36171
21
-4.20979
0
LINE
8
BLACK
6
CONTINUOUS
10
5.36171
20
-4.20979
11
5.3625
21
-4.20711
0
LINE
8
BLACK
6
CONTINUOUS
10
5.3625
20
-4.20711
11
5.36317
21
-4.20628
0
LINE
8
BLACK
6
CONTINUOUS
10
5.36317
20
-4.20628
11
5.3701
21
-4.19935
0
LINE
8
BLACK
6
CONTINUOUS
10
5.3701
20
-4.19935
11
5.37255
21
-4.19801
0
LINE
8
BLACK
6
CONTINUOUS
10
5.37255
20
-4.19801
11
5.37361
21
-4.19789
0
LINE
8
BLACK
6
CONTINUOUS
10
5.37361
20
-4.19789
11
5.45886
21
-4.19789
0
LINE
8
BLACK
6
CONTINUOUS
10
5.45886
20
-4.19789
11
5.4592
21
-4.19791
0
LINE
8
BLACK
6
CONTINUOUS
10
5.4592
20
-4.19791
11
5.46117
21
-4.19804
0
LINE
8
BLACK
6
CONTINUOUS
10
5.46117
20
-4.19804
11
5.46117
21
-4.19804
0
LINE
8
BLACK
6
CONTINUOUS
10
5.46117
20
-4.19804
11
5.46147
21
-4.19806
0
LINE
8
BLACK
6
CONTINUOUS
10
5.46147
20
-4.19806
11
5.46176
21
-4.19801
0
LINE
8
BLACK
6
CONTINUOUS
10
5.46176
20
-4.19801
11
5.46176
21
-4.19801
0
LINE
8
BLACK
6
CONTINUOUS
10
5.46176
20
-4.19801
11
5.46352
21
-4.1977
0
LINE
8
BLACK
6
CONTINUOUS
10
5.46352
20
-4.1977
11
5.46395
21
-4.19763
0
LINE
8
BLACK
6
CONTINUOUS
10
5.46395
20
-4.19763
11
5.46421
21
-4.19759
0
LINE
8
BLACK
6
CONTINUOUS
10
5.46421
20
-4.19759
11
5.4667
21
-4.19729
0
LINE
8
BLACK
6
CONTINUOUS
10
5.4667
20
-4.19729
11
5.46698
21
-4.19718
0
LINE
8
BLACK
6
CONTINUOUS
10
5.46698
20
-4.19718
11
5.46708
21
-4.19716
0
LINE
8
BLACK
6
CONTINUOUS
10
5.46708
20
-4.19716
11
5.46773
21
-4.19698
0
LINE
8
BLACK
6
CONTINUOUS
10
5.46773
20
-4.19698
11
5.46783
21
-4.19695
0
LINE
8
BLACK
6
CONTINUOUS
10
5.46783
20
-4.19695
11
5.46812
21
-4.1969
0
LINE
8
BLACK
6
CONTINUOUS
10
5.46812
20
-4.1969
11
5.47043
21
-4.19589
0
LINE
8
BLACK
6
CONTINUOUS
10
5.47043
20
-4.19589
11
5.47067
21
-4.19579
0
LINE
8
BLACK
6
CONTINUOUS
10
5.47067
20
-4.19579
11
5.47274
21
-4.19501
0
LINE
8
BLACK
6
CONTINUOUS
10
5.47274
20
-4.19501
11
5.47274
21
-4.19501
0
LINE
8
BLACK
6
CONTINUOUS
10
5.47274
20
-4.19501
11
5.47302
21
-4.1949
0
LINE
8
BLACK
6
CONTINUOUS
10
5.47302
20
-4.1949
11
5.47326
21
-4.19473
0
LINE
8
BLACK
6
CONTINUOUS
10
5.47326
20
-4.19473
11
5.47336
21
-4.19468
0
LINE
8
BLACK
6
CONTINUOUS
10
5.47336
20
-4.19468
11
5.47394
21
-4.19436
0
LINE
8
BLACK
6
CONTINUOUS
10
5.47394
20
-4.19436
11
5.47403
21
-4.19431
0
LINE
8
BLACK
6
CONTINUOUS
10
5.47403
20
-4.19431
11
5.4743
21
-4.19419
0
LINE
8
BLACK
6
CONTINUOUS
10
5.4743
20
-4.19419
11
5.4763
21
-4.19265
0
LINE
8
BLACK
6
CONTINUOUS
10
5.4763
20
-4.19265
11
5.47651
21
-4.1925
0
LINE
8
BLACK
6
CONTINUOUS
10
5.47651
20
-4.1925
11
5.47834
21
-4.19125
0
LINE
8
BLACK
6
CONTINUOUS
10
5.47834
20
-4.19125
11
5.47834
21
-4.19125
0
LINE
8
BLACK
6
CONTINUOUS
10
5.47834
20
-4.19125
11
5.47858
21
-4.19108
0
LINE
8
BLACK
6
CONTINUOUS
10
5.47858
20
-4.19108
11
5.48021
21
-4.18925
0
LINE
8
BLACK
6
CONTINUOUS
10
5.48021
20
-4.18925
11
5.48041
21
-4.18904
0
LINE
8
BLACK
6
CONTINUOUS
10
5.48041
20
-4.18904
11
5.50484
21
-4.1646
0
LINE
8
BLACK
6
CONTINUOUS
10
5.50484
20
-4.1646
11
5.50509
21
-4.16437
0
LINE
8
BLACK
6
CONTINUOUS
10
5.50509
20
-4.16437
11
5.50658
21
-4.16307
0
LINE
8
BLACK
6
CONTINUOUS
10
5.50658
20
-4.16307
11
5.50681
21
-4.16288
0
LINE
8
BLACK
6
CONTINUOUS
10
5.50681
20
-4.16288
11
5.50825
21
-4.16082
0
LINE
8
BLACK
6
CONTINUOUS
10
5.50825
20
-4.16082
11
5.50841
21
-4.16061
0
LINE
8
BLACK
6
CONTINUOUS
10
5.50841
20
-4.16061
11
5.50996
21
-4.15863
0
LINE
8
BLACK
6
CONTINUOUS
10
5.50996
20
-4.15863
11
5.51008
21
-4.15836
0
LINE
8
BLACK
6
CONTINUOUS
10
5.51008
20
-4.15836
11
5.51014
21
-4.15827
0
LINE
8
BLACK
6
CONTINUOUS
10
5.51014
20
-4.15827
11
5.51047
21
-4.15769
0
LINE
8
BLACK
6
CONTINUOUS
10
5.51047
20
-4.15769
11
5.51052
21
-4.1576
0
LINE
8
BLACK
6
CONTINUOUS
10
5.51052
20
-4.1576
11
5.51069
21
-4.15735
0
LINE
8
BLACK
6
CONTINUOUS
10
5.51069
20
-4.15735
11
5.5108
21
-4.15707
0
LINE
8
BLACK
6
CONTINUOUS
10
5.5108
20
-4.15707
11
5.5108
21
-4.15707
0
LINE
8
BLACK
6
CONTINUOUS
10
5.5108
20
-4.15707
11
5.5116
21
-4.15501
0
LINE
8
BLACK
6
CONTINUOUS
10
5.5116
20
-4.15501
11
5.5117
21
-4.15477
0
LINE
8
BLACK
6
CONTINUOUS
10
5.5117
20
-4.15477
11
5.51201
21
-4.15408
0
LINE
8
BLACK
6
CONTINUOUS
10
5.51201
20
-4.15408
11
5.51392
21
-4.1519
0
LINE
8
BLACK
6
CONTINUOUS
10
5.51392
20
-4.1519
11
5.51469
21
-4.15143
0
LINE
8
BLACK
6
CONTINUOUS
10
5.51469
20
-4.15143
11
5.51469
21
-4.15143
0
LINE
8
BLACK
6
CONTINUOUS
10
5.51469
20
-4.15143
11
5.51493
21
-4.15128
0
LINE
8
BLACK
6
CONTINUOUS
10
5.51493
20
-4.15128
11
5.51985
21
-4.14635
0
LINE
8
BLACK
6
CONTINUOUS
10
5.51985
20
-4.14635
11
5.52001
21
-4.14611
0
LINE
8
BLACK
6
CONTINUOUS
10
5.52001
20
-4.14611
11
5.52336
21
-4.14067
0
LINE
8
BLACK
6
CONTINUOUS
10
5.52336
20
-4.14067
11
5.52336
21
-4.14067
0
LINE
8
BLACK
6
CONTINUOUS
10
5.52336
20
-4.14067
11
5.52351
21
-4.14042
0
LINE
8
BLACK
6
CONTINUOUS
10
5.52351
20
-4.14042
11
5.5257
21
-4.13381
0
LINE
8
BLACK
6
CONTINUOUS
10
5.5257
20
-4.13381
11
5.52612
21
-4.1297
0
LINE
8
BLACK
6
CONTINUOUS
10
5.52612
20
-4.1297
11
5.52612
21
-4.0903
0
LINE
8
BLACK
6
CONTINUOUS
10
5.52612
20
-4.0903
11
5.52569
21
-4.08614
0
LINE
8
BLACK
6
CONTINUOUS
10
5.52569
20
-4.08614
11
5.52349
21
-4.07953
0
LINE
8
BLACK
6
CONTINUOUS
10
5.52349
20
-4.07953
11
5.51982
21
-4.07361
0
LINE
8
BLACK
6
CONTINUOUS
10
5.51982
20
-4.07361
11
5.51489
21
-4.06869
0
LINE
8
BLACK
6
CONTINUOUS
10
5.51489
20
-4.06869
11
5.51024
21
-4.06582
0
LINE
8
BLACK
6
CONTINUOUS
10
5.51024
20
-4.06582
11
5.50837
21
-4.06374
0
LINE
8
BLACK
6
CONTINUOUS
10
5.50837
20
-4.06374
11
5.50792
21
-4.06098
0
LINE
8
BLACK
6
CONTINUOUS
10
5.50792
20
-4.06098
11
5.50903
21
-4.05842
0
LINE
8
BLACK
6
CONTINUOUS
10
5.50903
20
-4.05842
11
5.50987
21
-4.05763
0
LINE
8
BLACK
6
CONTINUOUS
10
5.50987
20
-4.05763
11
5.50987
21
-4.05762
0
LINE
8
BLACK
6
CONTINUOUS
10
5.50987
20
-4.05762
11
5.5143
21
-4.0543
0
LINE
8
BLACK
6
CONTINUOUS
10
5.5143
20
-4.0543
11
5.51604
21
-4.05198
0
LINE
8
BLACK
6
CONTINUOUS
10
5.51604
20
-4.05198
11
5.51828
21
-4.0503
0
LINE
8
BLACK
6
CONTINUOUS
10
5.51828
20
-4.0503
11
5.52107
21
-4.05011
0
LINE
8
BLACK
6
CONTINUOUS
10
5.52107
20
-4.05011
11
5.52352
21
-4.05145
0
LINE
8
BLACK
6
CONTINUOUS
10
5.52352
20
-4.05145
11
5.52398
21
-4.05198
0
LINE
8
BLACK
6
CONTINUOUS
10
5.52398
20
-4.05198
11
5.5255
21
-4.054
0
LINE
8
BLACK
6
CONTINUOUS
10
5.5255
20
-4.054
11
5.526
21
-4.0545
0
LINE
8
BLACK
6
CONTINUOUS
10
5.526
20
-4.0545
11
5.53001
21
-4.05751
0
LINE
8
BLACK
6
CONTINUOUS
10
5.53001
20
-4.05751
11
5.53063
21
-4.05785
0
LINE
8
BLACK
6
CONTINUOUS
10
5.53063
20
-4.05785
11
5.53537
21
-4.05963
0
LINE
8
BLACK
6
CONTINUOUS
10
5.53537
20
-4.05963
11
5.53597
21
-4.05977
0
LINE
8
BLACK
6
CONTINUOUS
10
5.53597
20
-4.05977
11
5.53797
21
-4.05999
0
LINE
8
BLACK
6
CONTINUOUS
10
5.53797
20
-4.05999
11
5.53824
21
-4.06
0
LINE
8
BLACK
6
CONTINUOUS
10
5.53824
20
-4.06
11
5.55929
21
-4.06
0
LINE
8
BLACK
6
CONTINUOUS
10
5.55929
20
-4.06
11
5.55989
21
-4.05982
0
LINE
8
BLACK
6
CONTINUOUS
10
5.55989
20
-4.05982
11
5.55993
21
-4.05977
0
LINE
8
BLACK
6
CONTINUOUS
10
5.55993
20
-4.05977
11
5.56
21
-4.05947
0
LINE
8
BLACK
6
CONTINUOUS
10
5.56
20
-4.05947
11
5.56
21
-4.04
0
LINE
8
BLACK
6
CONTINUOUS
10
5.56
20
-4.04
11
5.54
21
-4.04
0
LINE
8
BLACK
6
CONTINUOUS
10
5.54
20
-4.04
11
5.54
21
-3.98
0
LINE
8
BLACK
6
CONTINUOUS
10
5.54
20
-3.98
11
5.56
21
-3.98
0
LINE
8
BLACK
6
CONTINUOUS
10
5.56
20
-3.98
11
5.56
21
-3.94
0
LINE
8
BLACK
6
CONTINUOUS
10
5.56
20
-3.94
11
5.54
21
-3.94
0
LINE
8
BLACK
6
CONTINUOUS
10
5.54
20
-3.94
11
5.54
21
-3.88
0
LINE
8
BLACK
6
CONTINUOUS
10
5.54
20
-3.88
11
5.56
21
-3.88
0
LINE
8
BLACK
6
CONTINUOUS
10
5.56
20
-3.88
11
5.56
21
-3.86071
0
LINE
8
BLACK
6
CONTINUOUS
10
5.56
20
-3.86071
11
5.55982
21
-3.86011
0
LINE
8
BLACK
6
CONTINUOUS
10
5.55982
20
-3.86011
11
5.55977
21
-3.86007
0
LINE
8
BLACK
6
CONTINUOUS
10
5.55977
20
-3.86007
11
5.55947
21
-3.86
0
LINE
8
BLACK
6
CONTINUOUS
10
5.55947
20
-3.86
11
5.53824
21
-3.86
0
LINE
8
BLACK
6
CONTINUOUS
10
5.53824
20
-3.86
11
5.53797
21
-3.86001
0
LINE
8
BLACK
6
CONTINUOUS
10
5.53797
20
-3.86001
11
5.53597
21
-3.86023
0
LINE
8
BLACK
6
CONTINUOUS
10
5.53597
20
-3.86023
11
5.53537
21
-3.86037
0
LINE
8
BLACK
6
CONTINUOUS
10
5.53537
20
-3.86037
11
5.53063
21
-3.86215
0
LINE
8
BLACK
6
CONTINUOUS
10
5.53063
20
-3.86215
11
5.53001
21
-3.86249
0
LINE
8
BLACK
6
CONTINUOUS
10
5.53001
20
-3.86249
11
5.526
21
-3.8655
0
LINE
8
BLACK
6
CONTINUOUS
10
5.526
20
-3.8655
11
5.5255
21
-3.866
0
LINE
8
BLACK
6
CONTINUOUS
10
5.5255
20
-3.866
11
5.52398
21
-3.86802
0
LINE
8
BLACK
6
CONTINUOUS
10
5.52398
20
-3.86802
11
5.52174
21
-3.8697
0
LINE
8
BLACK
6
CONTINUOUS
10
5.52174
20
-3.8697
11
5.51896
21
-3.86989
0
LINE
8
BLACK
6
CONTINUOUS
10
5.51896
20
-3.86989
11
5.5165
21
-3.86855
0
LINE
8
BLACK
6
CONTINUOUS
10
5.5165
20
-3.86855
11
5.51604
21
-3.86802
0
LINE
8
BLACK
6
CONTINUOUS
10
5.51604
20
-3.86802
11
5.5143
21
-3.8657
0
LINE
8
BLACK
6
CONTINUOUS
10
5.5143
20
-3.8657
11
5.50971
21
-3.86226
0
LINE
8
BLACK
6
CONTINUOUS
10
5.50971
20
-3.86226
11
5.50434
21
-3.86025
0
LINE
8
BLACK
6
CONTINUOUS
10
5.50434
20
-3.86025
11
5.5019
21
-3.85998
0
LINE
8
BLACK
6
CONTINUOUS
10
5.5019
20
-3.85998
11
5.4381
21
-3.85998
0
LINE
8
BLACK
6
CONTINUOUS
10
5.4381
20
-3.85998
11
5.43566
21
-3.86025
0
LINE
8
BLACK
6
CONTINUOUS
10
5.43566
20
-3.86025
11
5.43029
21
-3.86226
0
LINE
8
BLACK
6
CONTINUOUS
10
5.43029
20
-3.86226
11
5.4257
21
-3.8657
0
LINE
8
BLACK
6
CONTINUOUS
10
5.4257
20
-3.8657
11
5.42549
21
-3.86598
0
LINE
8
BLACK
6
CONTINUOUS
10
5.42549
20
-3.86598
11
5.42549
21
-3.86598
0
LINE
8
BLACK
6
CONTINUOUS
10
5.42549
20
-3.86598
11
5.42397
21
-3.86801
0
LINE
8
BLACK
6
CONTINUOUS
10
5.42397
20
-3.86801
11
5.42173
21
-3.86968
0
LINE
8
BLACK
6
CONTINUOUS
10
5.42173
20
-3.86968
11
5.41894
21
-3.86988
0
LINE
8
BLACK
6
CONTINUOUS
10
5.41894
20
-3.86988
11
5.41649
21
-3.86854
0
LINE
8
BLACK
6
CONTINUOUS
10
5.41649
20
-3.86854
11
5.41603
21
-3.86801
0
LINE
8
BLACK
6
CONTINUOUS
10
5.41603
20
-3.86801
11
5.41451
21
-3.86598
0
LINE
8
BLACK
6
CONTINUOUS
10
5.41451
20
-3.86598
11
5.41451
21
-3.86598
0
LINE
8
BLACK
6
CONTINUOUS
10
5.41451
20
-3.86598
11
5.4143
21
-3.8657
0
LINE
8
BLACK
6
CONTINUOUS
10
5.4143
20
-3.8657
11
5.40971
21
-3.86226
0
LINE
8
BLACK
6
CONTINUOUS
10
5.40971
20
-3.86226
11
5.40434
21
-3.86025
0
LINE
8
BLACK
6
CONTINUOUS
10
5.40434
20
-3.86025
11
5.4019
21
-3.85998
0
LINE
8
BLACK
6
CONTINUOUS
10
5.4019
20
-3.85998
11
5.3381
21
-3.85998
0
LINE
8
BLACK
6
CONTINUOUS
10
5.3381
20
-3.85998
11
5.33566
21
-3.86025
0
LINE
8
BLACK
6
CONTINUOUS
10
5.33566
20
-3.86025
11
5.33029
21
-3.86226
0
LINE
8
BLACK
6
CONTINUOUS
10
5.33029
20
-3.86226
11
5.3257
21
-3.8657
0
LINE
8
BLACK
6
CONTINUOUS
10
5.3257
20
-3.8657
11
5.32549
21
-3.86598
0
LINE
8
BLACK
6
CONTINUOUS
10
5.32549
20
-3.86598
11
5.32549
21
-3.86598
0
LINE
8
BLACK
6
CONTINUOUS
10
5.32549
20
-3.86598
11
5.32397
21
-3.86801
0
LINE
8
BLACK
6
CONTINUOUS
10
5.32397
20
-3.86801
11
5.32173
21
-3.86968
0
LINE
8
BLACK
6
CONTINUOUS
10
5.32173
20
-3.86968
11
5.31894
21
-3.86988
0
LINE
8
BLACK
6
CONTINUOUS
10
5.31894
20
-3.86988
11
5.31649
21
-3.86854
0
LINE
8
BLACK
6
CONTINUOUS
10
5.31649
20
-3.86854
11
5.31603
21
-3.86801
0
LINE
8
BLACK
6
CONTINUOUS
10
5.31603
20
-3.86801
11
5.31451
21
-3.86598
0
LINE
8
BLACK
6
CONTINUOUS
10
5.31451
20
-3.86598
11
5.31451
21
-3.86598
0
LINE
8
BLACK
6
CONTINUOUS
10
5.31451
20
-3.86598
11
5.3143
21
-3.8657
0
LINE
8
BLACK
6
CONTINUOUS
10
5.3143
20
-3.8657
11
5.30971
21
-3.86226
0
LINE
8
BLACK
6
CONTINUOUS
10
5.30971
20
-3.86226
11
5.30434
21
-3.86025
0
LINE
8
BLACK
6
CONTINUOUS
10
5.30434
20
-3.86025
11
5.3019
21
-3.85998
0
LINE
8
BLACK
6
CONTINUOUS
10
5.3019
20
-3.85998
11
5.26148
21
-3.85998
0
LINE
8
BLACK
6
CONTINUOUS
10
5.26148
20
-3.85998
11
5.2588
21
-3.85919
0
LINE
8
BLACK
6
CONTINUOUS
10
5.2588
20
-3.85919
11
5.25798
21
-3.85853
0
LINE
8
BLACK
6
CONTINUOUS
10
5.25798
20
-3.85853
11
5.23794
21
-3.83849
0
LINE
8
BLACK
6
CONTINUOUS
10
5.23794
20
-3.83849
11
5.2366
21
-3.83603
0
LINE
8
BLACK
6
CONTINUOUS
10
5.2366
20
-3.83603
11
5.2368
21
-3.83325
0
LINE
8
BLACK
6
CONTINUOUS
10
5.2368
20
-3.83325
11
5.23847
21
-3.83101
0
LINE
8
BLACK
6
CONTINUOUS
10
5.23847
20
-3.83101
11
5.24109
21
-3.83003
0
LINE
8
BLACK
6
CONTINUOUS
10
5.24109
20
-3.83003
11
5.24144
21
-3.83002
0
LINE
8
BLACK
6
CONTINUOUS
10
5.24144
20
-3.83002
11
5.96502
21
-3.83002
0
LINE
8
BLACK
6
CONTINUOUS
10
5.96502
20
-3.83002
11
5.9677
21
-3.83081
0
LINE
8
BLACK
6
CONTINUOUS
10
5.9677
20
-3.83081
11
5.96953
21
-3.83292
0
LINE
8
BLACK
6
CONTINUOUS
10
5.96953
20
-3.83292
11
5.96998
21
-3.83498
0
LINE
8
BLACK
6
CONTINUOUS
10
5.96998
20
-3.83498
11
5.96998
21
-4.56502
0
LINE
8
BLACK
6
CONTINUOUS
10
5.96998
20
-4.56502
11
5.96919
21
-4.5677
0
LINE
8
BLACK
6
CONTINUOUS
10
5.96919
20
-4.5677
11
5.96708
21
-4.56953
0
LINE
8
BLACK
6
CONTINUOUS
10
5.96708
20
-4.56953
11
5.96502
21
-4.56998
0
LINE
8
BLACK
6
CONTINUOUS
10
5.96502
20
-4.56998
11
5.37445
21
-4.56998
0
LINE
8
BLACK
6
CONTINUOUS
10
5.37445
20
-4.56998
11
5.37177
21
-4.56919
0
LINE
8
BLACK
6
CONTINUOUS
10
5.37177
20
-4.56919
11
5.36994
21
-4.56708
0
LINE
8
BLACK
6
CONTINUOUS
10
5.36994
20
-4.56708
11
5.36954
21
-4.56431
0
LINE
8
BLACK
6
CONTINUOUS
10
5.36954
20
-4.56431
11
5.3707
21
-4.56177
0
LINE
8
BLACK
6
CONTINUOUS
10
5.3707
20
-4.56177
11
5.37094
21
-4.56151
0
LINE
8
BLACK
6
CONTINUOUS
10
5.37094
20
-4.56151
11
5.40644
21
-4.52602
0
LINE
8
BLACK
6
CONTINUOUS
10
5.40644
20
-4.52602
11
5.40891
21
-4.52467
0
LINE
8
BLACK
6
CONTINUOUS
10
5.40891
20
-4.52467
11
5.41086
21
-4.52426
0
LINE
8
BLACK
6
CONTINUOUS
10
5.41086
20
-4.52426
11
5.41086
21
-4.52426
0
LINE
8
BLACK
6
CONTINUOUS
10
5.41086
20
-4.52426
11
5.41111
21
-4.5242
0
LINE
8
BLACK
6
CONTINUOUS
10
5.41111
20
-4.5242
11
5.41151
21
-4.52403
0
LINE
8
BLACK
6
CONTINUOUS
10
5.41151
20
-4.52403
11
5.41774
21
-4.52125
0
LINE
8
BLACK
6
CONTINUOUS
10
5.41774
20
-4.52125
11
5.41775
21
-4.52125
0
LINE
8
BLACK
6
CONTINUOUS
10
5.41775
20
-4.52125
11
5.41798
21
-4.52115
0
LINE
8
BLACK
6
CONTINUOUS
10
5.41798
20
-4.52115
11
5.42407
21
-4.51673
0
LINE
8
BLACK
6
CONTINUOUS
10
5.42407
20
-4.51673
11
5.4291
21
-4.51114
0
LINE
8
BLACK
6
CONTINUOUS
10
5.4291
20
-4.51114
11
5.43286
21
-4.50463
0
LINE
8
BLACK
6
CONTINUOUS
10
5.43286
20
-4.50463
11
5.43518
21
-4.49748
0
LINE
8
BLACK
6
CONTINUOUS
10
5.43518
20
-4.49748
11
5.43596
21
-4.49
0
LINE
8
BLACK
6
CONTINUOUS
10
5.43596
20
-4.49
11
5.43518
21
-4.48252
0
LINE
8
BLACK
6
CONTINUOUS
10
5.43518
20
-4.48252
11
5.43286
21
-4.47537
0
LINE
8
BLACK
6
CONTINUOUS
10
5.43286
20
-4.47537
11
5.43068
21
-4.47161
0
LINE
8
BLACK
6
CONTINUOUS
10
5.43068
20
-4.47161
11
5.43002
21
-4.46913
0
LINE
8
BLACK
6
CONTINUOUS
10
5.43002
20
-4.46913
11
5.43002
21
-4.40425
0
LINE
8
BLACK
6
CONTINUOUS
10
5.43002
20
-4.40425
11
5.43081
21
-4.40156
0
LINE
8
BLACK
6
CONTINUOUS
10
5.43081
20
-4.40156
11
5.43292
21
-4.39973
0
LINE
8
BLACK
6
CONTINUOUS
10
5.43292
20
-4.39973
11
5.43447
21
-4.39931
0
LINE
8
BLACK
6
CONTINUOUS
10
5.43447
20
-4.39931
11
5.43485
21
-4.39927
0
LINE
8
BLACK
6
CONTINUOUS
10
5.43485
20
-4.39927
11
5.43511
21
-4.39919
0
LINE
8
BLACK
6
CONTINUOUS
10
5.43511
20
-4.39919
11
5.43511
21
-4.39919
0
LINE
8
BLACK
6
CONTINUOUS
10
5.43511
20
-4.39919
11
5.44094
21
-4.39724
0
LINE
8
BLACK
6
CONTINUOUS
10
5.44094
20
-4.39724
11
5.44145
21
-4.39707
0
LINE
8
BLACK
6
CONTINUOUS
10
5.44145
20
-4.39707
11
5.44738
21
-4.3934
0
LINE
8
BLACK
6
CONTINUOUS
10
5.44738
20
-4.3934
11
5.4493
21
-4.39148
0
LINE
8
BLACK
6
CONTINUOUS
10
5.4493
20
-4.39148
11
5.45175
21
-4.39013
0
LINE
8
BLACK
6
CONTINUOUS
10
5.45175
20
-4.39013
11
5.45281
21
-4.39002
0
LINE
8
BLACK
6
CONTINUOUS
10
5.45281
20
-4.39002
11
5.45719
21
-4.39002
0
LINE
8
BLACK
6
CONTINUOUS
10
5.45719
20
-4.39002
11
5.45987
21
-4.39081
0
LINE
8
BLACK
6
CONTINUOUS
10
5.45987
20
-4.39081
11
5.46069
21
-4.39147
0
LINE
8
BLACK
6
CONTINUOUS
10
5.46069
20
-4.39147
11
5.46267
21
-4.39344
0
LINE
8
BLACK
6
CONTINUOUS
10
5.46267
20
-4.39344
11
5.46291
21
-4.39359
0
LINE
8
BLACK
6
CONTINUOUS
10
5.46291
20
-4.39359
11
5.46291
21
-4.39359
0
LINE
8
BLACK
6
CONTINUOUS
10
5.46291
20
-4.39359
11
5.46831
21
-4.39692
0
LINE
8
BLACK
6
CONTINUOUS
10
5.46831
20
-4.39692
11
5.46859
21
-4.39709
0
LINE
8
BLACK
6
CONTINUOUS
10
5.46859
20
-4.39709
11
5.47064
21
-4.39777
0
LINE
8
BLACK
6
CONTINUOUS
10
5.47064
20
-4.39777
11
5.47495
21
-4.3992
0
LINE
8
BLACK
6
CONTINUOUS
10
5.47495
20
-4.3992
11
5.47495
21
-4.3992
0
LINE
8
BLACK
6
CONTINUOUS
10
5.47495
20
-4.3992
11
5.4752
21
-4.39928
0
LINE
8
BLACK
6
CONTINUOUS
10
5.4752
20
-4.39928
11
5.47547
21
-4.39931
0
LINE
8
BLACK
6
CONTINUOUS
10
5.47547
20
-4.39931
11
5.47547
21
-4.39931
0
LINE
8
BLACK
6
CONTINUOUS
10
5.47547
20
-4.39931
11
5.47706
21
-4.39947
0
LINE
8
BLACK
6
CONTINUOUS
10
5.47706
20
-4.39947
11
5.47931
21
-4.3997
0
LINE
8
BLACK
6
CONTINUOUS
10
5.47931
20
-4.3997
11
5.52069
21
-4.3997
0
LINE
8
BLACK
6
CONTINUOUS
10
5.52069
20
-4.3997
11
5.52081
21
-4.39969
0
LINE
8
BLACK
6
CONTINUOUS
10
5.52081
20
-4.39969
11
5.52081
21
-4.39969
0
LINE
8
BLACK
6
CONTINUOUS
10
5.52081
20
-4.39969
11
5.52458
21
-4.3993
0
LINE
8
BLACK
6
CONTINUOUS
10
5.52458
20
-4.3993
11
5.52458
21
-4.3993
0
LINE
8
BLACK
6
CONTINUOUS
10
5.52458
20
-4.3993
11
5.52485
21
-4.39927
0
LINE
8
BLACK
6
CONTINUOUS
10
5.52485
20
-4.39927
11
5.52511
21
-4.39919
0
LINE
8
BLACK
6
CONTINUOUS
10
5.52511
20
-4.39919
11
5.52511
21
-4.39919
0
LINE
8
BLACK
6
CONTINUOUS
10
5.52511
20
-4.39919
11
5.53094
21
-4.39724
0
LINE
8
BLACK
6
CONTINUOUS
10
5.53094
20
-4.39724
11
5.53145
21
-4.39707
0
LINE
8
BLACK
6
CONTINUOUS
10
5.53145
20
-4.39707
11
5.53738
21
-4.3934
0
LINE
8
BLACK
6
CONTINUOUS
10
5.53738
20
-4.3934
11
5.5423
21
-4.38848
0
LINE
8
BLACK
6
CONTINUOUS
10
5.5423
20
-4.38848
11
5.54329
21
-4.38686
0
LINE
8
BLACK
6
CONTINUOUS
10
5.54329
20
-4.38686
11
5.5458
21
-4.38279
0
LINE
8
BLACK
6
CONTINUOUS
10
5.5458
20
-4.38279
11
5.5458
21
-4.38279
0
LINE
8
BLACK
6
CONTINUOUS
10
5.5458
20
-4.38279
11
5.54595
21
-4.38255
0
LINE
8
BLACK
6
CONTINUOUS
10
5.54595
20
-4.38255
11
5.54814
21
-4.37594
0
LINE
8
BLACK
6
CONTINUOUS
10
5.54814
20
-4.37594
11
5.54856
21
-4.37183
0
LINE
8
BLACK
6
CONTINUOUS
10
5.54856
20
-4.37183
11
5.54856
21
-4.36595
0
LINE
8
BLACK
6
CONTINUOUS
10
5.54856
20
-4.36595
11
5.54935
21
-4.36326
0
LINE
8
BLACK
6
CONTINUOUS
10
5.54935
20
-4.36326
11
5.55002
21
-4.36244
0
LINE
8
BLACK
6
CONTINUOUS
10
5.55002
20
-4.36244
11
5.59935
21
-4.3131
0
LINE
8
BLACK
6
CONTINUOUS
10
5.59935
20
-4.3131
11
5.59992
21
-4.31262
0
LINE
8
BLACK
6
CONTINUOUS
10
5.59992
20
-4.31262
11
5.60038
21
-4.31228
0
LINE
8
BLACK
6
CONTINUOUS
10
5.60038
20
-4.31228
11
5.60061
21
-4.3121
0
LINE
8
BLACK
6
CONTINUOUS
10
5.60061
20
-4.3121
11
5.60197
21
-4.31051
0
LINE
8
BLACK
6
CONTINUOUS
10
5.60197
20
-4.31051
11
5.60224
21
-4.31021
0
LINE
8
BLACK
6
CONTINUOUS
10
5.60224
20
-4.31021
11
5.60247
21
-4.30999
0
LINE
8
BLACK
6
CONTINUOUS
10
5.60247
20
-4.30999
11
5.60256
21
-4.30987
0
LINE
8
BLACK
6
CONTINUOUS
10
5.60256
20
-4.30987
11
5.60256
21
-4.30987
0
LINE
8
BLACK
6
CONTINUOUS
10
5.60256
20
-4.30987
11
5.60316
21
-4.30911
0
LINE
8
BLACK
6
CONTINUOUS
10
5.60316
20
-4.30911
11
5.60327
21
-4.30897
0
LINE
8
BLACK
6
CONTINUOUS
10
5.60327
20
-4.30897
11
5.60496
21
-4.30699
0
LINE
8
BLACK
6
CONTINUOUS
10
5.60496
20
-4.30699
11
5.60496
21
-4.30699
0
LINE
8
BLACK
6
CONTINUOUS
10
5.60496
20
-4.30699
11
5.60515
21
-4.30677
0
LINE
8
BLACK
6
CONTINUOUS
10
5.60515
20
-4.30677
11
5.60528
21
-4.30651
0
LINE
8
BLACK
6
CONTINUOUS
10
5.60528
20
-4.30651
11
5.60541
21
-4.30631
0
LINE
8
BLACK
6
CONTINUOUS
10
5.60541
20
-4.30631
11
5.60554
21
-4.30611
0
LINE
8
BLACK
6
CONTINUOUS
10
5.60554
20
-4.30611
11
5.60571
21
-4.30588
0
LINE
8
BLACK
6
CONTINUOUS
10
5.60571
20
-4.30588
11
5.60694
21
-4.30326
0
LINE
8
BLACK
6
CONTINUOUS
10
5.60694
20
-4.30326
11
5.60701
21
-4.30311
0
LINE
8
BLACK
6
CONTINUOUS
10
5.60701
20
-4.30311
11
5.60833
21
-4.30054
0
LINE
8
BLACK
6
CONTINUOUS
10
5.60833
20
-4.30054
11
5.6084
21
-4.30026
0
LINE
8
BLACK
6
CONTINUOUS
10
5.6084
20
-4.30026
11
5.60848
21
-4.30003
0
LINE
8
BLACK
6
CONTINUOUS
10
5.60848
20
-4.30003
11
5.60856
21
-4.2998
0
LINE
8
BLACK
6
CONTINUOUS
10
5.60856
20
-4.2998
11
5.60868
21
-4.29954
0
LINE
8
BLACK
6
CONTINUOUS
10
5.60868
20
-4.29954
11
5.60927
21
-4.29671
0
LINE
8
BLACK
6
CONTINUOUS
10
5.60927
20
-4.29671
11
5.60931
21
-4.29654
0
LINE
8
BLACK
6
CONTINUOUS
10
5.60931
20
-4.29654
11
5.60994
21
-4.29395
0
LINE
8
BLACK
6
CONTINUOUS
10
5.60994
20
-4.29395
11
5.60999
21
-4.29374
0
LINE
8
BLACK
6
CONTINUOUS
10
5.60999
20
-4.29374
11
5.61002
21
-4.29329
0
LINE
8
BLACK
6
CONTINUOUS
10
5.61002
20
-4.29329
11
5.61002
21
-4.29329
0
LINE
8
BLACK
6
CONTINUOUS
10
5.61002
20
-4.29329
11
5.61003
21
-4.29314
0
LINE
8
BLACK
6
CONTINUOUS
10
5.61003
20
-4.29314
11
5.61005
21
-4.29297
0
LINE
8
BLACK
6
CONTINUOUS
10
5.61005
20
-4.29297
11
5.6101
21
-4.29269
0
LINE
8
BLACK
6
CONTINUOUS
10
5.6101
20
-4.29269
11
5.61002
21
-4.28962
0
LINE
8
BLACK
6
CONTINUOUS
10
5.61002
20
-4.28962
11
5.61002
21
-4.28949
0
LINE
8
BLACK
6
CONTINUOUS
10
5.61002
20
-4.28949
11
5.61002
21
-4.20087
0
LINE
8
BLACK
6
CONTINUOUS
10
5.61002
20
-4.20087
11
5.61068
21
-4.19839
0
LINE
8
BLACK
6
CONTINUOUS
10
5.94015
20
-4.14386
11
5.65985
21
-4.14386
0
LINE
8
BLACK
6
CONTINUOUS
10
5.65985
20
-4.14386
11
5.65985
21
-4.25614
0
LINE
8
BLACK
6
CONTINUOUS
10
5.65985
20
-4.25614
11
5.94015
21
-4.25614
0
LINE
8
BLACK
6
CONTINUOUS
10
5.94015
20
-4.25614
11
5.94015
21
-4.14386
0
LINE
8
BLACK
6
CONTINUOUS
10
5.42071
20
-4.24551
11
5.42011
21
-4.24569
0
LINE
8
BLACK
6
CONTINUOUS
10
5.42011
20
-4.24569
11
5.42007
21
-4.24574
0
LINE
8
BLACK
6
CONTINUOUS
10
5.42007
20
-4.24574
11
5.42
21
-4.24605
0
LINE
8
BLACK
6
CONTINUOUS
10
5.42
20
-4.24605
11
5.42
21
-4.26551
0
LINE
8
BLACK
6
CONTINUOUS
10
5.42
20
-4.26551
11
5.4287
21
-4.26551
0
LINE
8
BLACK
6
CONTINUOUS
10
5.4287
20
-4.26551
11
5.43247
21
-4.26626
0
LINE
8
BLACK
6
CONTINUOUS
10
5.43247
20
-4.26626
11
5.43566
21
-4.26839
0
LINE
8
BLACK
6
CONTINUOUS
10
5.43566
20
-4.26839
11
5.43779
21
-4.27159
0
LINE
8
BLACK
6
CONTINUOUS
10
5.43779
20
-4.27159
11
5.43851
21
-4.2752
0
LINE
8
BLACK
6
CONTINUOUS
10
5.43851
20
-4.2752
11
5.47149
21
-4.2752
0
LINE
8
BLACK
6
CONTINUOUS
10
5.47149
20
-4.2752
11
5.47221
21
-4.27159
0
LINE
8
BLACK
6
CONTINUOUS
10
5.47221
20
-4.27159
11
5.47434
21
-4.26839
0
LINE
8
BLACK
6
CONTINUOUS
10
5.47434
20
-4.26839
11
5.47753
21
-4.26626
0
LINE
8
BLACK
6
CONTINUOUS
10
5.47753
20
-4.26626
11
5.4813
21
-4.26551
0
LINE
8
BLACK
6
CONTINUOUS
10
5.4813
20
-4.26551
11
5.49
21
-4.26551
0
LINE
8
BLACK
6
CONTINUOUS
10
5.49
20
-4.26551
11
5.49
21
-4.24623
0
LINE
8
BLACK
6
CONTINUOUS
10
5.49
20
-4.24623
11
5.48982
21
-4.24563
0
LINE
8
BLACK
6
CONTINUOUS
10
5.48982
20
-4.24563
11
5.48977
21
-4.24558
0
LINE
8
BLACK
6
CONTINUOUS
10
5.48977
20
-4.24558
11
5.48947
21
-4.24551
0
LINE
8
BLACK
6
CONTINUOUS
10
5.48947
20
-4.24551
11
5.47945
21
-4.24551
0
LINE
8
BLACK
6
CONTINUOUS
10
5.47945
20
-4.24551
11
5.47919
21
-4.24553
0
LINE
8
BLACK
6
CONTINUOUS
10
5.47919
20
-4.24553
11
5.47542
21
-4.24592
0
LINE
8
BLACK
6
CONTINUOUS
10
5.47542
20
-4.24592
11
5.4749
21
-4.24603
0
LINE
8
BLACK
6
CONTINUOUS
10
5.4749
20
-4.24603
11
5.46883
21
-4.24805
0
LINE
8
BLACK
6
CONTINUOUS
10
5.46883
20
-4.24805
11
5.46831
21
-4.2483
0
LINE
8
BLACK
6
CONTINUOUS
10
5.46831
20
-4.2483
11
5.46288
21
-4.25166
0
LINE
8
BLACK
6
CONTINUOUS
10
5.46288
20
-4.25166
11
5.46243
21
-4.25201
0
LINE
8
BLACK
6
CONTINUOUS
10
5.46243
20
-4.25201
11
5.45851
21
-4.25594
0
LINE
8
BLACK
6
CONTINUOUS
10
5.45851
20
-4.25594
11
5.45606
21
-4.25728
0
LINE
8
BLACK
6
CONTINUOUS
10
5.45606
20
-4.25728
11
5.45327
21
-4.25708
0
LINE
8
BLACK
6
CONTINUOUS
10
5.45327
20
-4.25708
11
5.4515
21
-4.25594
0
LINE
8
BLACK
6
CONTINUOUS
10
5.4515
20
-4.25594
11
5.44753
21
-4.25198
0
LINE
8
BLACK
6
CONTINUOUS
10
5.44753
20
-4.25198
11
5.44708
21
-4.25162
0
LINE
8
BLACK
6
CONTINUOUS
10
5.44708
20
-4.25162
11
5.44164
21
-4.24827
0
LINE
8
BLACK
6
CONTINUOUS
10
5.44164
20
-4.24827
11
5.44113
21
-4.24803
0
LINE
8
BLACK
6
CONTINUOUS
10
5.44113
20
-4.24803
11
5.43505
21
-4.24602
0
LINE
8
BLACK
6
CONTINUOUS
10
5.43505
20
-4.24602
11
5.43452
21
-4.24591
0
LINE
8
BLACK
6
CONTINUOUS
10
5.43452
20
-4.24591
11
5.43081
21
-4.24552
0
LINE
8
BLACK
6
CONTINUOUS
10
5.43081
20
-4.24552
11
5.43056
21
-4.24551
0
LINE
8
BLACK
6
CONTINUOUS
10
5.43056
20
-4.24551
11
5.42071
21
-4.24551
0
LINE
8
BLACK
6
CONTINUOUS
10
5.6
20
-3.92
11
5.6
21
-3.94
0
LINE
8
BLACK
6
CONTINUOUS
10
5.6
20
-3.94
11
5.58
21
-3.94
0
LINE
8
BLACK
6
CONTINUOUS
10
5.58
20
-3.94
11
5.58
21
-3.98
0
LINE
8
BLACK
6
CONTINUOUS
10
5.58
20
-3.98
11
5.6
21
-3.98
0
LINE
8
BLACK
6
CONTINUOUS
10
5.6
20
-3.98
11
5.6
21
-4
0
LINE
8
BLACK
6
CONTINUOUS
10
5.6
20
-4
11
5.61929
21
-4
0
LINE
8
BLACK
6
CONTINUOUS
10
5.61929
20
-4
11
5.61989
21
-3.99982
0
LINE
8
BLACK
6
CONTINUOUS
10
5.61989
20
-3.99982
11
5.61993
21
-3.99977
0
LINE
8
BLACK
6
CONTINUOUS
10
5.61993
20
-3.99977
11
5.62
21
-3.99947
0
LINE
8
BLACK
6
CONTINUOUS
10
5.62
20
-3.99947
11
5.62
21
-3.97824
0
LINE
8
BLACK
6
CONTINUOUS
10
5.62
20
-3.97824
11
5.61999
21
-3.97797
0
LINE
8
BLACK
6
CONTINUOUS
10
5.61999
20
-3.97797
11
5.61977
21
-3.97597
0
LINE
8
BLACK
6
CONTINUOUS
10
5.61977
20
-3.97597
11
5.61963
21
-3.97537
0
LINE
8
BLACK
6
CONTINUOUS
10
5.61963
20
-3.97537
11
5.61785
21
-3.97063
0
LINE
8
BLACK
6
CONTINUOUS
10
5.61785
20
-3.97063
11
5.61751
21
-3.97001
0
LINE
8
BLACK
6
CONTINUOUS
10
5.61751
20
-3.97001
11
5.6145
21
-3.966
0
LINE
8
BLACK
6
CONTINUOUS
10
5.6145
20
-3.966
11
5.614
21
-3.9655
0
LINE
8
BLACK
6
CONTINUOUS
10
5.614
20
-3.9655
11
5.61196
21
-3.96397
0
LINE
8
BLACK
6
CONTINUOUS
10
5.61196
20
-3.96397
11
5.61029
21
-3.96173
0
LINE
8
BLACK
6
CONTINUOUS
10
5.61029
20
-3.96173
11
5.61009
21
-3.95894
0
LINE
8
BLACK
6
CONTINUOUS
10
5.61009
20
-3.95894
11
5.61143
21
-3.95649
0
LINE
8
BLACK
6
CONTINUOUS
10
5.61143
20
-3.95649
11
5.61196
21
-3.95603
0
LINE
8
BLACK
6
CONTINUOUS
10
5.61196
20
-3.95603
11
5.614
21
-3.9545
0
LINE
8
BLACK
6
CONTINUOUS
10
5.614
20
-3.9545
11
5.6145
21
-3.954
0
LINE
8
BLACK
6
CONTINUOUS
10
5.6145
20
-3.954
11
5.61751
21
-3.94999
0
LINE
8
BLACK
6
CONTINUOUS
10
5.61751
20
-3.94999
11
5.61785
21
-3.94937
0
LINE
8
BLACK
6
CONTINUOUS
10
5.61785
20
-3.94937
11
5.61963
21
-3.94463
0
LINE
8
BLACK
6
CONTINUOUS
10
5.61963
20
-3.94463
11
5.61977
21
-3.94403
0
LINE
8
BLACK
6
CONTINUOUS
10
5.61977
20
-3.94403
11
5.61999
21
-3.94203
0
LINE
8
BLACK
6
CONTINUOUS
10
5.61999
20
-3.94203
11
5.62
21
-3.94176
0
LINE
8
BLACK
6
CONTINUOUS
10
5.62
20
-3.94176
11
5.62
21
-3.92071
0
LINE
8
BLACK
6
CONTINUOUS
10
5.62
20
-3.92071
11
5.61982
21
-3.92011
0
LINE
8
BLACK
6
CONTINUOUS
10
5.61982
20
-3.92011
11
5.61977
21
-3.92007
0
LINE
8
BLACK
6
CONTINUOUS
10
5.61977
20
-3.92007
11
5.61947
21
-3.92
0
LINE
8
BLACK
6
CONTINUOUS
10
5.61947
20
-3.92
11
5.6
21
-3.92
0
LINE
8
BLACK
6
CONTINUOUS
10
5.58071
20
-3.86
11
5.58011
21
-3.86018
0
LINE
8
BLACK
6
CONTINUOUS
10
5.58011
20
-3.86018
11
5.58007
21
-3.86023
0
LINE
8
BLACK
6
CONTINUOUS
10
5.58007
20
-3.86023
11
5.58
21
-3.86053
0
LINE
8
BLACK
6
CONTINUOUS
10
5.58
20
-3.86053
11
5.58
21
-3.88
0
LINE
8
BLACK
6
CONTINUOUS
10
5.58
20
-3.88
11
5.6
21
-3.88
0
LINE
8
BLACK
6
CONTINUOUS
10
5.6
20
-3.88
11
5.6
21
-3.9
0
LINE
8
BLACK
6
CONTINUOUS
10
5.6
20
-3.9
11
5.61929
21
-3.9
0
LINE
8
BLACK
6
CONTINUOUS
10
5.61929
20
-3.9
11
5.61989
21
-3.89982
0
LINE
8
BLACK
6
CONTINUOUS
10
5.61989
20
-3.89982
11
5.61993
21
-3.89977
0
LINE
8
BLACK
6
CONTINUOUS
10
5.61993
20
-3.89977
11
5.62
21
-3.89947
0
LINE
8
BLACK
6
CONTINUOUS
10
5.62
20
-3.89947
11
5.62
21
-3.87824
0
LINE
8
BLACK
6
CONTINUOUS
10
5.62
20
-3.87824
11
5.61999
21
-3.87797
0
LINE
8
BLACK
6
CONTINUOUS
10
5.61999
20
-3.87797
11
5.61977
21
-3.87597
0
LINE
8
BLACK
6
CONTINUOUS
10
5.61977
20
-3.87597
11
5.61963
21
-3.87537
0
LINE
8
BLACK
6
CONTINUOUS
10
5.61963
20
-3.87537
11
5.61785
21
-3.87063
0
LINE
8
BLACK
6
CONTINUOUS
10
5.61785
20
-3.87063
11
5.61751
21
-3.87001
0
LINE
8
BLACK
6
CONTINUOUS
10
5.61751
20
-3.87001
11
5.6145
21
-3.866
0
LINE
8
BLACK
6
CONTINUOUS
10
5.6145
20
-3.866
11
5.614
21
-3.8655
0
LINE
8
BLACK
6
CONTINUOUS
10
5.614
20
-3.8655
11
5.60999
21
-3.86249
0
LINE
8
BLACK
6
CONTINUOUS
10
5.60999
20
-3.86249
11
5.60937
21
-3.86215
0
LINE
8
BLACK
6
CONTINUOUS
10
5.60937
20
-3.86215
11
5.60463
21
-3.86037
0
LINE
8
BLACK
6
CONTINUOUS
10
5.60463
20
-3.86037
11
5.60403
21
-3.86023
0
LINE
8
BLACK
6
CONTINUOUS
10
5.60403
20
-3.86023
11
5.60203
21
-3.86001
0
LINE
8
BLACK
6
CONTINUOUS
10
5.60203
20
-3.86001
11
5.60176
21
-3.86
0
LINE
8
BLACK
6
CONTINUOUS
10
5.60176
20
-3.86
11
5.58071
21
-3.86
0
LINE
8
BLACK
6
CONTINUOUS
10
5.58023
20
-4.05993
11
5.58053
21
-4.06
0
LINE
8
BLACK
6
CONTINUOUS
10
5.58053
20
-4.06
11
5.60176
21
-4.06
0
LINE
8
BLACK
6
CONTINUOUS
10
5.60176
20
-4.06
11
5.60203
21
-4.05999
0
LINE
8
BLACK
6
CONTINUOUS
10
5.60203
20
-4.05999
11
5.60403
21
-4.05977
0
LINE
8
BLACK
6
CONTINUOUS
10
5.60403
20
-4.05977
11
5.60463
21
-4.05963
0
LINE
8
BLACK
6
CONTINUOUS
10
5.60463
20
-4.05963
11
5.60937
21
-4.05785
0
LINE
8
BLACK
6
CONTINUOUS
10
5.60937
20
-4.05785
11
5.60999
21
-4.05751
0
LINE
8
BLACK
6
CONTINUOUS
10
5.60999
20
-4.05751
11
5.614
21
-4.0545
0
LINE
8
BLACK
6
CONTINUOUS
10
5.614
20
-4.0545
11
5.6145
21
-4.054
0
LINE
8
BLACK
6
CONTINUOUS
10
5.6145
20
-4.054
11
5.61751
21
-4.04999
0
LINE
8
BLACK
6
CONTINUOUS
10
5.61751
20
-4.04999
11
5.61785
21
-4.04937
0
LINE
8
BLACK
6
CONTINUOUS
10
5.61785
20
-4.04937
11
5.61963
21
-4.04463
0
LINE
8
BLACK
6
CONTINUOUS
10
5.61963
20
-4.04463
11
5.61977
21
-4.04403
0
LINE
8
BLACK
6
CONTINUOUS
10
5.61977
20
-4.04403
11
5.61999
21
-4.04203
0
LINE
8
BLACK
6
CONTINUOUS
10
5.61999
20
-4.04203
11
5.62
21
-4.04176
0
LINE
8
BLACK
6
CONTINUOUS
10
5.62
20
-4.04176
11
5.62
21
-4.02071
0
LINE
8
BLACK
6
CONTINUOUS
10
5.62
20
-4.02071
11
5.61982
21
-4.02011
0
LINE
8
BLACK
6
CONTINUOUS
10
5.61982
20
-4.02011
11
5.61977
21
-4.02007
0
LINE
8
BLACK
6
CONTINUOUS
10
5.61977
20
-4.02007
11
5.61947
21
-4.02
0
LINE
8
BLACK
6
CONTINUOUS
10
5.61947
20
-4.02
11
5.6
21
-4.02
0
LINE
8
BLACK
6
CONTINUOUS
10
5.6
20
-4.02
11
5.6
21
-4.04
0
LINE
8
BLACK
6
CONTINUOUS
10
5.6
20
-4.04
11
5.58
21
-4.04
0
LINE
8
BLACK
6
CONTINUOUS
10
5.58
20
-4.04
11
5.58
21
-4.05929
0
LINE
8
BLACK
6
CONTINUOUS
10
5.58
20
-4.05929
11
5.58018
21
-4.05989
0
LINE
8
BLACK
6
CONTINUOUS
10
5.58018
20
-4.05989
11
5.58023
21
-4.05993
0
LINE
8
BLACK
6
CONTINUOUS
10
5.86507
20
-4.17654
11
5.86576
21
-4.17844
0
LINE
8
BLACK
6
CONTINUOUS
10
5.86576
20
-4.17844
11
5.86576
21
-4.21781
0
LINE
8
BLACK
6
CONTINUOUS
10
5.86576
20
-4.21781
11
5.86569
21
-4.21819
0
LINE
8
BLACK
6
CONTINUOUS
10
5.86569
20
-4.21819
11
5.86571
21
-4.21832
0
LINE
8
BLACK
6
CONTINUOUS
10
5.86571
20
-4.21832
11
5.86565
21
-4.21844
0
LINE
8
BLACK
6
CONTINUOUS
10
5.86565
20
-4.21844
11
5.86558
21
-4.21882
0
LINE
8
BLACK
6
CONTINUOUS
10
5.86558
20
-4.21882
11
5.86509
21
-4.21941
0
LINE
8
BLACK
6
CONTINUOUS
10
5.86509
20
-4.21941
11
5.8647
21
-4.22007
0
LINE
8
BLACK
6
CONTINUOUS
10
5.8647
20
-4.22007
11
5.86445
21
-4.22016
0
LINE
8
BLACK
6
CONTINUOUS
10
5.86445
20
-4.22016
11
5.86428
21
-4.22037
0
LINE
8
BLACK
6
CONTINUOUS
10
5.86428
20
-4.22037
11
5.86353
21
-4.2205
0
LINE
8
BLACK
6
CONTINUOUS
10
5.86353
20
-4.2205
11
5.8628
21
-4.22076
0
LINE
8
BLACK
6
CONTINUOUS
10
5.8628
20
-4.22076
11
5.84406
21
-4.22076
0
LINE
8
BLACK
6
CONTINUOUS
10
5.84406
20
-4.22076
11
5.84305
21
-4.22058
0
LINE
8
BLACK
6
CONTINUOUS
10
5.84305
20
-4.22058
11
5.8415
21
-4.21929
0
LINE
8
BLACK
6
CONTINUOUS
10
5.8415
20
-4.21929
11
5.84115
21
-4.2173
0
LINE
8
BLACK
6
CONTINUOUS
10
5.84115
20
-4.2173
11
5.84216
21
-4.21555
0
LINE
8
BLACK
6
CONTINUOUS
10
5.84216
20
-4.21555
11
5.84406
21
-4.21486
0
LINE
8
BLACK
6
CONTINUOUS
10
5.84406
20
-4.21486
11
5.85985
21
-4.21486
0
LINE
8
BLACK
6
CONTINUOUS
10
5.85985
20
-4.21486
11
5.85985
21
-4.17844
0
LINE
8
BLACK
6
CONTINUOUS
10
5.85985
20
-4.17844
11
5.86003
21
-4.17743
0
LINE
8
BLACK
6
CONTINUOUS
10
5.86003
20
-4.17743
11
5.86133
21
-4.17588
0
LINE
8
BLACK
6
CONTINUOUS
10
5.86133
20
-4.17588
11
5.86332
21
-4.17553
0
LINE
8
BLACK
6
CONTINUOUS
10
5.86332
20
-4.17553
11
5.86507
21
-4.17654
0
LINE
8
BLACK
6
CONTINUOUS
10
5.71008
20
-4.18879
11
5.71163
21
-4.19009
0
LINE
8
BLACK
6
CONTINUOUS
10
5.71163
20
-4.19009
11
5.71198
21
-4.19208
0
LINE
8
BLACK
6
CONTINUOUS
10
5.71198
20
-4.19208
11
5.71097
21
-4.19383
0
LINE
8
BLACK
6
CONTINUOUS
10
5.71097
20
-4.19383
11
5.70907
21
-4.19452
0
LINE
8
BLACK
6
CONTINUOUS
10
5.70907
20
-4.19452
11
5.69453
21
-4.19452
0
LINE
8
BLACK
6
CONTINUOUS
10
5.69453
20
-4.19452
11
5.7114
21
-4.21599
0
LINE
8
BLACK
6
CONTINUOUS
10
5.7114
20
-4.21599
11
5.71154
21
-4.21626
0
LINE
8
BLACK
6
CONTINUOUS
10
5.71154
20
-4.21626
11
5.71163
21
-4.21633
0
LINE
8
BLACK
6
CONTINUOUS
10
5.71163
20
-4.21633
11
5.71166
21
-4.21647
0
LINE
8
BLACK
6
CONTINUOUS
10
5.71166
20
-4.21647
11
5.71188
21
-4.21689
0
LINE
8
BLACK
6
CONTINUOUS
10
5.71188
20
-4.21689
11
5.71186
21
-4.21761
0
LINE
8
BLACK
6
CONTINUOUS
10
5.71186
20
-4.21761
11
5.71198
21
-4.21832
0
LINE
8
BLACK
6
CONTINUOUS
10
5.71198
20
-4.21832
11
5.71182
21
-4.21859
0
LINE
8
BLACK
6
CONTINUOUS
10
5.71182
20
-4.21859
11
5.71181
21
-4.21891
0
LINE
8
BLACK
6
CONTINUOUS
10
5.71181
20
-4.21891
11
5.71133
21
-4.21945
0
LINE
8
BLACK
6
CONTINUOUS
10
5.71133
20
-4.21945
11
5.71097
21
-4.22007
0
LINE
8
BLACK
6
CONTINUOUS
10
5.71097
20
-4.22007
11
5.71068
21
-4.22018
0
LINE
8
BLACK
6
CONTINUOUS
10
5.71068
20
-4.22018
11
5.71047
21
-4.22041
0
LINE
8
BLACK
6
CONTINUOUS
10
5.71047
20
-4.22041
11
5.70975
21
-4.22052
0
LINE
8
BLACK
6
CONTINUOUS
10
5.70975
20
-4.22052
11
5.70907
21
-4.22076
0
LINE
8
BLACK
6
CONTINUOUS
10
5.70907
20
-4.22076
11
5.68845
21
-4.22076
0
LINE
8
BLACK
6
CONTINUOUS
10
5.68845
20
-4.22076
11
5.68744
21
-4.22058
0
LINE
8
BLACK
6
CONTINUOUS
10
5.68744
20
-4.22058
11
5.68589
21
-4.21929
0
LINE
8
BLACK
6
CONTINUOUS
10
5.68589
20
-4.21929
11
5.68554
21
-4.2173
0
LINE
8
BLACK
6
CONTINUOUS
10
5.68554
20
-4.2173
11
5.68655
21
-4.21555
0
LINE
8
BLACK
6
CONTINUOUS
10
5.68655
20
-4.21555
11
5.68845
21
-4.21486
0
LINE
8
BLACK
6
CONTINUOUS
10
5.68845
20
-4.21486
11
5.703
21
-4.21486
0
LINE
8
BLACK
6
CONTINUOUS
10
5.703
20
-4.21486
11
5.68613
21
-4.19339
0
LINE
8
BLACK
6
CONTINUOUS
10
5.68613
20
-4.19339
11
5.68598
21
-4.19311
0
LINE
8
BLACK
6
CONTINUOUS
10
5.68598
20
-4.19311
11
5.68589
21
-4.19304
0
LINE
8
BLACK
6
CONTINUOUS
10
5.68589
20
-4.19304
11
5.68587
21
-4.1929
0
LINE
8
BLACK
6
CONTINUOUS
10
5.68587
20
-4.1929
11
5.68565
21
-4.19248
0
LINE
8
BLACK
6
CONTINUOUS
10
5.68565
20
-4.19248
11
5.68567
21
-4.19176
0
LINE
8
BLACK
6
CONTINUOUS
10
5.68567
20
-4.19176
11
5.68554
21
-4.19105
0
LINE
8
BLACK
6
CONTINUOUS
10
5.68554
20
-4.19105
11
5.6857
21
-4.19078
0
LINE
8
BLACK
6
CONTINUOUS
10
5.6857
20
-4.19078
11
5.68571
21
-4.19046
0
LINE
8
BLACK
6
CONTINUOUS
10
5.68571
20
-4.19046
11
5.68619
21
-4.18993
0
LINE
8
BLACK
6
CONTINUOUS
10
5.68619
20
-4.18993
11
5.68655
21
-4.1893
0
LINE
8
BLACK
6
CONTINUOUS
10
5.68655
20
-4.1893
11
5.68685
21
-4.18919
0
LINE
8
BLACK
6
CONTINUOUS
10
5.68685
20
-4.18919
11
5.68706
21
-4.18896
0
LINE
8
BLACK
6
CONTINUOUS
10
5.68706
20
-4.18896
11
5.68777
21
-4.18886
0
LINE
8
BLACK
6
CONTINUOUS
10
5.68777
20
-4.18886
11
5.68845
21
-4.18861
0
LINE
8
BLACK
6
CONTINUOUS
10
5.68845
20
-4.18861
11
5.70907
21
-4.18861
0
LINE
8
BLACK
6
CONTINUOUS
10
5.70907
20
-4.18861
11
5.71008
21
-4.18879
0
LINE
8
BLACK
6
CONTINUOUS
10
5.79757
20
-4.17556
11
5.7977
21
-4.17553
0
LINE
8
BLACK
6
CONTINUOUS
10
5.7977
20
-4.17553
11
5.79781
21
-4.1756
0
LINE
8
BLACK
6
CONTINUOUS
10
5.79781
20
-4.1756
11
5.7982
21
-4.17567
0
LINE
8
BLACK
6
CONTINUOUS
10
5.7982
20
-4.17567
11
5.79879
21
-4.17616
0
LINE
8
BLACK
6
CONTINUOUS
10
5.79879
20
-4.17616
11
5.79945
21
-4.17654
0
LINE
8
BLACK
6
CONTINUOUS
10
5.79945
20
-4.17654
11
5.79954
21
-4.17679
0
LINE
8
BLACK
6
CONTINUOUS
10
5.79954
20
-4.17679
11
5.79974
21
-4.17696
0
LINE
8
BLACK
6
CONTINUOUS
10
5.79974
20
-4.17696
11
5.79988
21
-4.17772
0
LINE
8
BLACK
6
CONTINUOUS
10
5.79988
20
-4.17772
11
5.80014
21
-4.17844
0
LINE
8
BLACK
6
CONTINUOUS
10
5.80014
20
-4.17844
11
5.80014
21
-4.21781
0
LINE
8
BLACK
6
CONTINUOUS
10
5.80014
20
-4.21781
11
5.80007
21
-4.21819
0
LINE
8
BLACK
6
CONTINUOUS
10
5.80007
20
-4.21819
11
5.8001
21
-4.21832
0
LINE
8
BLACK
6
CONTINUOUS
10
5.8001
20
-4.21832
11
5.80003
21
-4.21844
0
LINE
8
BLACK
6
CONTINUOUS
10
5.80003
20
-4.21844
11
5.79996
21
-4.21882
0
LINE
8
BLACK
6
CONTINUOUS
10
5.79996
20
-4.21882
11
5.79947
21
-4.21941
0
LINE
8
BLACK
6
CONTINUOUS
10
5.79947
20
-4.21941
11
5.79909
21
-4.22007
0
LINE
8
BLACK
6
CONTINUOUS
10
5.79909
20
-4.22007
11
5.79884
21
-4.22016
0
LINE
8
BLACK
6
CONTINUOUS
10
5.79884
20
-4.22016
11
5.79866
21
-4.22037
0
LINE
8
BLACK
6
CONTINUOUS
10
5.79866
20
-4.22037
11
5.79791
21
-4.2205
0
LINE
8
BLACK
6
CONTINUOUS
10
5.79791
20
-4.2205
11
5.79719
21
-4.22076
0
LINE
8
BLACK
6
CONTINUOUS
10
5.79719
20
-4.22076
11
5.78219
21
-4.22076
0
LINE
8
BLACK
6
CONTINUOUS
10
5.78219
20
-4.22076
11
5.78118
21
-4.22058
0
LINE
8
BLACK
6
CONTINUOUS
10
5.78118
20
-4.22058
11
5.78104
21
-4.22047
0
LINE
8
BLACK
6
CONTINUOUS
10
5.78104
20
-4.22047
11
5.78087
21
-4.22045
0
LINE
8
BLACK
6
CONTINUOUS
10
5.78087
20
-4.22045
11
5.77712
21
-4.21858
0
LINE
8
BLACK
6
CONTINUOUS
10
5.77712
20
-4.21858
11
5.77641
21
-4.21805
0
LINE
8
BLACK
6
CONTINUOUS
10
5.77641
20
-4.21805
11
5.77635
21
-4.21802
0
LINE
8
BLACK
6
CONTINUOUS
10
5.77635
20
-4.21802
11
5.77448
21
-4.21615
0
LINE
8
BLACK
6
CONTINUOUS
10
5.77448
20
-4.21615
11
5.77397
21
-4.21543
0
LINE
8
BLACK
6
CONTINUOUS
10
5.77397
20
-4.21543
11
5.77392
21
-4.21538
0
LINE
8
BLACK
6
CONTINUOUS
10
5.77392
20
-4.21538
11
5.77205
21
-4.21163
0
LINE
8
BLACK
6
CONTINUOUS
10
5.77205
20
-4.21163
11
5.77176
21
-4.21065
0
LINE
8
BLACK
6
CONTINUOUS
10
5.77176
20
-4.21065
11
5.7718
21
-4.21048
0
LINE
8
BLACK
6
CONTINUOUS
10
5.7718
20
-4.21048
11
5.77174
21
-4.21031
0
LINE
8
BLACK
6
CONTINUOUS
10
5.77174
20
-4.21031
11
5.77174
21
-4.20469
0
LINE
8
BLACK
6
CONTINUOUS
10
5.77174
20
-4.20469
11
5.77192
21
-4.20368
0
LINE
8
BLACK
6
CONTINUOUS
10
5.77192
20
-4.20368
11
5.77203
21
-4.20354
0
LINE
8
BLACK
6
CONTINUOUS
10
5.77203
20
-4.20354
11
5.77205
21
-4.20337
0
LINE
8
BLACK
6
CONTINUOUS
10
5.77205
20
-4.20337
11
5.77392
21
-4.19962
0
LINE
8
BLACK
6
CONTINUOUS
10
5.77392
20
-4.19962
11
5.77445
21
-4.19891
0
LINE
8
BLACK
6
CONTINUOUS
10
5.77445
20
-4.19891
11
5.77448
21
-4.19885
0
LINE
8
BLACK
6
CONTINUOUS
10
5.77448
20
-4.19885
11
5.77635
21
-4.19697
0
LINE
8
BLACK
6
CONTINUOUS
10
5.77635
20
-4.19697
11
5.77719
21
-4.19639
0
LINE
8
BLACK
6
CONTINUOUS
10
5.77719
20
-4.19639
11
5.77721
21
-4.19638
0
LINE
8
BLACK
6
CONTINUOUS
10
5.77721
20
-4.19638
11
5.77635
21
-4.19553
0
LINE
8
BLACK
6
CONTINUOUS
10
5.77635
20
-4.19553
11
5.77585
21
-4.1948
0
LINE
8
BLACK
6
CONTINUOUS
10
5.77585
20
-4.1948
11
5.7758
21
-4.19476
0
LINE
8
BLACK
6
CONTINUOUS
10
5.7758
20
-4.19476
11
5.77392
21
-4.19101
0
LINE
8
BLACK
6
CONTINUOUS
10
5.77392
20
-4.19101
11
5.77363
21
-4.19003
0
LINE
8
BLACK
6
CONTINUOUS
10
5.77363
20
-4.19003
11
5.77367
21
-4.18985
0
LINE
8
BLACK
6
CONTINUOUS
10
5.77367
20
-4.18985
11
5.77361
21
-4.18969
0
LINE
8
BLACK
6
CONTINUOUS
10
5.77361
20
-4.18969
11
5.77361
21
-4.18594
0
LINE
8
BLACK
6
CONTINUOUS
10
5.77361
20
-4.18594
11
5.77379
21
-4.18493
0
LINE
8
BLACK
6
CONTINUOUS
10
5.77379
20
-4.18493
11
5.7739
21
-4.18479
0
LINE
8
BLACK
6
CONTINUOUS
10
5.7739
20
-4.18479
11
5.77392
21
-4.18462
0
LINE
8
BLACK
6
CONTINUOUS
10
5.77392
20
-4.18462
11
5.7758
21
-4.18087
0
LINE
8
BLACK
6
CONTINUOUS
10
5.7758
20
-4.18087
11
5.77633
21
-4.18016
0
LINE
8
BLACK
6
CONTINUOUS
10
5.77633
20
-4.18016
11
5.77635
21
-4.1801
0
LINE
8
BLACK
6
CONTINUOUS
10
5.77635
20
-4.1801
11
5.77823
21
-4.17823
0
LINE
8
BLACK
6
CONTINUOUS
10
5.77823
20
-4.17823
11
5.77895
21
-4.17772
0
LINE
8
BLACK
6
CONTINUOUS
10
5.77895
20
-4.17772
11
5.77899
21
-4.17767
0
LINE
8
BLACK
6
CONTINUOUS
10
5.77899
20
-4.17767
11
5.78274
21
-4.1758
0
LINE
8
BLACK
6
CONTINUOUS
10
5.78274
20
-4.1758
11
5.78373
21
-4.17551
0
LINE
8
BLACK
6
CONTINUOUS
10
5.78373
20
-4.17551
11
5.7839
21
-4.17555
0
LINE
8
BLACK
6
CONTINUOUS
10
5.7839
20
-4.17555
11
5.78406
21
-4.17549
0
LINE
8
BLACK
6
CONTINUOUS
10
5.78406
20
-4.17549
11
5.79719
21
-4.17549
0
LINE
8
BLACK
6
CONTINUOUS
10
5.79719
20
-4.17549
11
5.79757
21
-4.17556
0
LINE
8
BLACK
6
CONTINUOUS
10
5.78454
20
-4.20014
11
5.78004
21
-4.20164
0
LINE
8
BLACK
6
CONTINUOUS
10
5.78004
20
-4.20164
11
5.77899
21
-4.20269
0
LINE
8
BLACK
6
CONTINUOUS
10
5.77899
20
-4.20269
11
5.77764
21
-4.20538
0
LINE
8
BLACK
6
CONTINUOUS
10
5.77764
20
-4.20538
11
5.77764
21
-4.20961
0
LINE
8
BLACK
6
CONTINUOUS
10
5.77764
20
-4.20961
11
5.77899
21
-4.21231
0
LINE
8
BLACK
6
CONTINUOUS
10
5.77899
20
-4.21231
11
5.78019
21
-4.21351
0
LINE
8
BLACK
6
CONTINUOUS
10
5.78019
20
-4.21351
11
5.78289
21
-4.21486
0
LINE
8
BLACK
6
CONTINUOUS
10
5.78289
20
-4.21486
11
5.79424
21
-4.21486
0
LINE
8
BLACK
6
CONTINUOUS
10
5.79424
20
-4.21486
11
5.79424
21
-4.20014
0
LINE
8
BLACK
6
CONTINUOUS
10
5.79424
20
-4.20014
11
5.78454
21
-4.20014
0
LINE
8
BLACK
6
CONTINUOUS
10
5.78476
20
-4.18139
11
5.78206
21
-4.18274
0
LINE
8
BLACK
6
CONTINUOUS
10
5.78206
20
-4.18274
11
5.78087
21
-4.18394
0
LINE
8
BLACK
6
CONTINUOUS
10
5.78087
20
-4.18394
11
5.77952
21
-4.18664
0
LINE
8
BLACK
6
CONTINUOUS
10
5.77952
20
-4.18664
11
5.77952
21
-4.18899
0
LINE
8
BLACK
6
CONTINUOUS
10
5.77952
20
-4.18899
11
5.78087
21
-4.19169
0
LINE
8
BLACK
6
CONTINUOUS
10
5.78087
20
-4.19169
11
5.78206
21
-4.19289
0
LINE
8
BLACK
6
CONTINUOUS
10
5.78206
20
-4.19289
11
5.78476
21
-4.19424
0
LINE
8
BLACK
6
CONTINUOUS
10
5.78476
20
-4.19424
11
5.79424
21
-4.19424
0
LINE
8
BLACK
6
CONTINUOUS
10
5.79424
20
-4.19424
11
5.79424
21
-4.18139
0
LINE
8
BLACK
6
CONTINUOUS
10
5.79424
20
-4.18139
11
5.78476
21
-4.18139
0
LINE
8
BLACK
6
CONTINUOUS
10
5.73446
20
-4.18879
11
5.73459
21
-4.1889
0
LINE
8
BLACK
6
CONTINUOUS
10
5.73459
20
-4.1889
11
5.73477
21
-4.18892
0
LINE
8
BLACK
6
CONTINUOUS
10
5.73477
20
-4.18892
11
5.73852
21
-4.1908
0
LINE
8
BLACK
6
CONTINUOUS
10
5.73852
20
-4.1908
11
5.73922
21
-4.19132
0
LINE
8
BLACK
6
CONTINUOUS
10
5.73922
20
-4.19132
11
5.73928
21
-4.19135
0
LINE
8
BLACK
6
CONTINUOUS
10
5.73928
20
-4.19135
11
5.74116
21
-4.19323
0
LINE
8
BLACK
6
CONTINUOUS
10
5.74116
20
-4.19323
11
5.74166
21
-4.19395
0
LINE
8
BLACK
6
CONTINUOUS
10
5.74166
20
-4.19395
11
5.74171
21
-4.19399
0
LINE
8
BLACK
6
CONTINUOUS
10
5.74171
20
-4.19399
11
5.74359
21
-4.19774
0
LINE
8
BLACK
6
CONTINUOUS
10
5.74359
20
-4.19774
11
5.74388
21
-4.19872
0
LINE
8
BLACK
6
CONTINUOUS
10
5.74388
20
-4.19872
11
5.74384
21
-4.1989
0
LINE
8
BLACK
6
CONTINUOUS
10
5.74384
20
-4.1989
11
5.7439
21
-4.19906
0
LINE
8
BLACK
6
CONTINUOUS
10
5.7439
20
-4.19906
11
5.7439
21
-4.21031
0
LINE
8
BLACK
6
CONTINUOUS
10
5.7439
20
-4.21031
11
5.74372
21
-4.21132
0
LINE
8
BLACK
6
CONTINUOUS
10
5.74372
20
-4.21132
11
5.74361
21
-4.21146
0
LINE
8
BLACK
6
CONTINUOUS
10
5.74361
20
-4.21146
11
5.74359
21
-4.21163
0
LINE
8
BLACK
6
CONTINUOUS
10
5.74359
20
-4.21163
11
5.74171
21
-4.21538
0
LINE
8
BLACK
6
CONTINUOUS
10
5.74171
20
-4.21538
11
5.74119
21
-4.21609
0
LINE
8
BLACK
6
CONTINUOUS
10
5.74119
20
-4.21609
11
5.74116
21
-4.21615
0
LINE
8
BLACK
6
CONTINUOUS
10
5.74116
20
-4.21615
11
5.73928
21
-4.21802
0
LINE
8
BLACK
6
CONTINUOUS
10
5.73928
20
-4.21802
11
5.73856
21
-4.21853
0
LINE
8
BLACK
6
CONTINUOUS
10
5.73856
20
-4.21853
11
5.73852
21
-4.21858
0
LINE
8
BLACK
6
CONTINUOUS
10
5.73852
20
-4.21858
11
5.73477
21
-4.22045
0
LINE
8
BLACK
6
CONTINUOUS
10
5.73477
20
-4.22045
11
5.73378
21
-4.22074
0
LINE
8
BLACK
6
CONTINUOUS
10
5.73378
20
-4.22074
11
5.73361
21
-4.2207
0
LINE
8
BLACK
6
CONTINUOUS
10
5.73361
20
-4.2207
11
5.73345
21
-4.22076
0
LINE
8
BLACK
6
CONTINUOUS
10
5.73345
20
-4.22076
11
5.72595
21
-4.22076
0
LINE
8
BLACK
6
CONTINUOUS
10
5.72595
20
-4.22076
11
5.72494
21
-4.22058
0
LINE
8
BLACK
6
CONTINUOUS
10
5.72494
20
-4.22058
11
5.7248
21
-4.22047
0
LINE
8
BLACK
6
CONTINUOUS
10
5.7248
20
-4.22047
11
5.72463
21
-4.22045
0
LINE
8
BLACK
6
CONTINUOUS
10
5.72463
20
-4.22045
11
5.72088
21
-4.21858
0
LINE
8
BLACK
6
CONTINUOUS
10
5.72088
20
-4.21858
11
5.72005
21
-4.21797
0
LINE
8
BLACK
6
CONTINUOUS
10
5.72005
20
-4.21797
11
5.71925
21
-4.21611
0
LINE
8
BLACK
6
CONTINUOUS
10
5.71925
20
-4.21611
11
5.71983
21
-4.21418
0
LINE
8
BLACK
6
CONTINUOUS
10
5.71983
20
-4.21418
11
5.72151
21
-4.21306
0
LINE
8
BLACK
6
CONTINUOUS
10
5.72151
20
-4.21306
11
5.72352
21
-4.21329
0
LINE
8
BLACK
6
CONTINUOUS
10
5.72352
20
-4.21329
11
5.72664
21
-4.21486
0
LINE
8
BLACK
6
CONTINUOUS
10
5.72664
20
-4.21486
11
5.73275
21
-4.21486
0
LINE
8
BLACK
6
CONTINUOUS
10
5.73275
20
-4.21486
11
5.73545
21
-4.21351
0
LINE
8
BLACK
6
CONTINUOUS
10
5.73545
20
-4.21351
11
5.73664
21
-4.21231
0
LINE
8
BLACK
6
CONTINUOUS
10
5.73664
20
-4.21231
11
5.73799
21
-4.20961
0
LINE
8
BLACK
6
CONTINUOUS
10
5.73799
20
-4.20961
11
5.73799
21
-4.19976
0
LINE
8
BLACK
6
CONTINUOUS
10
5.73799
20
-4.19976
11
5.73664
21
-4.19706
0
LINE
8
BLACK
6
CONTINUOUS
10
5.73664
20
-4.19706
11
5.73545
21
-4.19587
0
LINE
8
BLACK
6
CONTINUOUS
10
5.73545
20
-4.19587
11
5.73275
21
-4.19452
0
LINE
8
BLACK
6
CONTINUOUS
10
5.73275
20
-4.19452
11
5.72664
21
-4.19452
0
LINE
8
BLACK
6
CONTINUOUS
10
5.72664
20
-4.19452
11
5.72352
21
-4.19608
0
LINE
8
BLACK
6
CONTINUOUS
10
5.72352
20
-4.19608
11
5.72253
21
-4.19637
0
LINE
8
BLACK
6
CONTINUOUS
10
5.72253
20
-4.19637
11
5.72057
21
-4.1959
0
LINE
8
BLACK
6
CONTINUOUS
10
5.72057
20
-4.1959
11
5.71937
21
-4.19428
0
LINE
8
BLACK
6
CONTINUOUS
10
5.71937
20
-4.19428
11
5.71949
21
-4.19226
0
LINE
8
BLACK
6
CONTINUOUS
10
5.71949
20
-4.19226
11
5.72088
21
-4.1908
0
LINE
8
BLACK
6
CONTINUOUS
10
5.72088
20
-4.1908
11
5.72463
21
-4.18892
0
LINE
8
BLACK
6
CONTINUOUS
10
5.72463
20
-4.18892
11
5.72561
21
-4.18863
0
LINE
8
BLACK
6
CONTINUOUS
10
5.72561
20
-4.18863
11
5.72578
21
-4.18867
0
LINE
8
BLACK
6
CONTINUOUS
10
5.72578
20
-4.18867
11
5.72595
21
-4.18861
0
LINE
8
BLACK
6
CONTINUOUS
10
5.72595
20
-4.18861
11
5.73345
21
-4.18861
0
LINE
8
BLACK
6
CONTINUOUS
10
5.73345
20
-4.18861
11
5.73446
21
-4.18879
0
LINE
8
BLACK
6
CONTINUOUS
10
5.7582
20
-4.21118
11
5.75833
21
-4.21115
0
LINE
8
BLACK
6
CONTINUOUS
10
5.75833
20
-4.21115
11
5.75845
21
-4.21122
0
LINE
8
BLACK
6
CONTINUOUS
10
5.75845
20
-4.21122
11
5.75858
21
-4.21121
0
LINE
8
BLACK
6
CONTINUOUS
10
5.75858
20
-4.21121
11
5.75921
21
-4.21165
0
LINE
8
BLACK
6
CONTINUOUS
10
5.75921
20
-4.21165
11
5.75991
21
-4.21197
0
LINE
8
BLACK
6
CONTINUOUS
10
5.75991
20
-4.21197
11
5.76178
21
-4.21385
0
LINE
8
BLACK
6
CONTINUOUS
10
5.76178
20
-4.21385
11
5.762
21
-4.21417
0
LINE
8
BLACK
6
CONTINUOUS
10
5.762
20
-4.21417
11
5.76211
21
-4.21424
0
LINE
8
BLACK
6
CONTINUOUS
10
5.76211
20
-4.21424
11
5.76215
21
-4.21437
0
LINE
8
BLACK
6
CONTINUOUS
10
5.76215
20
-4.21437
11
5.76237
21
-4.21469
0
LINE
8
BLACK
6
CONTINUOUS
10
5.76237
20
-4.21469
11
5.76244
21
-4.21545
0
LINE
8
BLACK
6
CONTINUOUS
10
5.76244
20
-4.21545
11
5.76263
21
-4.21619
0
LINE
8
BLACK
6
CONTINUOUS
10
5.76263
20
-4.21619
11
5.76252
21
-4.21643
0
LINE
8
BLACK
6
CONTINUOUS
10
5.76252
20
-4.21643
11
5.76254
21
-4.2167
0
LINE
8
BLACK
6
CONTINUOUS
10
5.76254
20
-4.2167
11
5.7621
21
-4.21733
0
LINE
8
BLACK
6
CONTINUOUS
10
5.7621
20
-4.21733
11
5.76178
21
-4.21802
0
LINE
8
BLACK
6
CONTINUOUS
10
5.76178
20
-4.21802
11
5.75991
21
-4.2199
0
LINE
8
BLACK
6
CONTINUOUS
10
5.75991
20
-4.2199
11
5.75959
21
-4.22012
0
LINE
8
BLACK
6
CONTINUOUS
10
5.75959
20
-4.22012
11
5.75951
21
-4.22023
0
LINE
8
BLACK
6
CONTINUOUS
10
5.75951
20
-4.22023
11
5.75938
21
-4.22026
0
LINE
8
BLACK
6
CONTINUOUS
10
5.75938
20
-4.22026
11
5.75938
21
-4.22027
0
LINE
8
BLACK
6
CONTINUOUS
10
5.75938
20
-4.22027
11
5.75929
21
-4.22037
0
LINE
8
BLACK
6
CONTINUOUS
10
5.75929
20
-4.22037
11
5.75922
21
-4.22038
0
LINE
8
BLACK
6
CONTINUOUS
10
5.75922
20
-4.22038
11
5.75907
21
-4.22049
0
LINE
8
BLACK
6
CONTINUOUS
10
5.75907
20
-4.22049
11
5.7583
21
-4.22055
0
LINE
8
BLACK
6
CONTINUOUS
10
5.7583
20
-4.22055
11
5.75756
21
-4.22075
0
LINE
8
BLACK
6
CONTINUOUS
10
5.75756
20
-4.22075
11
5.75744
21
-4.22069
0
LINE
8
BLACK
6
CONTINUOUS
10
5.75744
20
-4.22069
11
5.7573
21
-4.22072
0
LINE
8
BLACK
6
CONTINUOUS
10
5.7573
20
-4.22072
11
5.75719
21
-4.22065
0
LINE
8
BLACK
6
CONTINUOUS
10
5.75719
20
-4.22065
11
5.75705
21
-4.22066
0
LINE
8
BLACK
6
CONTINUOUS
10
5.75705
20
-4.22066
11
5.75643
21
-4.22022
0
LINE
8
BLACK
6
CONTINUOUS
10
5.75643
20
-4.22022
11
5.75573
21
-4.2199
0
LINE
8
BLACK
6
CONTINUOUS
10
5.75573
20
-4.2199
11
5.75386
21
-4.21802
0
LINE
8
BLACK
6
CONTINUOUS
10
5.75386
20
-4.21802
11
5.75363
21
-4.2177
0
LINE
8
BLACK
6
CONTINUOUS
10
5.75363
20
-4.2177
11
5.75352
21
-4.21763
0
LINE
8
BLACK
6
CONTINUOUS
10
5.75352
20
-4.21763
11
5.75349
21
-4.2175
0
LINE
8
BLACK
6
CONTINUOUS
10
5.75349
20
-4.2175
11
5.75327
21
-4.21718
0
LINE
8
BLACK
6
CONTINUOUS
10
5.75327
20
-4.21718
11
5.7532
21
-4.21642
0
LINE
8
BLACK
6
CONTINUOUS
10
5.7532
20
-4.21642
11
5.753
21
-4.21568
0
LINE
8
BLACK
6
CONTINUOUS
10
5.753
20
-4.21568
11
5.75311
21
-4.21544
0
LINE
8
BLACK
6
CONTINUOUS
10
5.75311
20
-4.21544
11
5.75309
21
-4.21517
0
LINE
8
BLACK
6
CONTINUOUS
10
5.75309
20
-4.21517
11
5.75353
21
-4.21454
0
LINE
8
BLACK
6
CONTINUOUS
10
5.75353
20
-4.21454
11
5.75386
21
-4.21385
0
LINE
8
BLACK
6
CONTINUOUS
10
5.75386
20
-4.21385
11
5.75573
21
-4.21197
0
LINE
8
BLACK
6
CONTINUOUS
10
5.75573
20
-4.21197
11
5.75605
21
-4.21175
0
LINE
8
BLACK
6
CONTINUOUS
10
5.75605
20
-4.21175
11
5.75612
21
-4.21164
0
LINE
8
BLACK
6
CONTINUOUS
10
5.75612
20
-4.21164
11
5.75625
21
-4.21161
0
LINE
8
BLACK
6
CONTINUOUS
10
5.75625
20
-4.21161
11
5.75626
21
-4.2116
0
LINE
8
BLACK
6
CONTINUOUS
10
5.75626
20
-4.2116
11
5.75634
21
-4.2115
0
LINE
8
BLACK
6
CONTINUOUS
10
5.75634
20
-4.2115
11
5.75642
21
-4.21149
0
LINE
8
BLACK
6
CONTINUOUS
10
5.75642
20
-4.21149
11
5.75657
21
-4.21138
0
LINE
8
BLACK
6
CONTINUOUS
10
5.75657
20
-4.21138
11
5.75733
21
-4.21132
0
LINE
8
BLACK
6
CONTINUOUS
10
5.75733
20
-4.21132
11
5.75808
21
-4.21112
0
LINE
8
BLACK
6
CONTINUOUS
10
5.75808
20
-4.21112
11
5.7582
21
-4.21118
0
LINE
8
BLACK
6
CONTINUOUS
10
5.82392
20
-4.17571
11
5.82484
21
-4.17584
0
LINE
8
BLACK
6
CONTINUOUS
10
5.82484
20
-4.17584
11
5.8249
21
-4.17591
0
LINE
8
BLACK
6
CONTINUOUS
10
5.8249
20
-4.17591
11
5.82498
21
-4.17592
0
LINE
8
BLACK
6
CONTINUOUS
10
5.82498
20
-4.17592
11
5.82556
21
-4.17666
0
LINE
8
BLACK
6
CONTINUOUS
10
5.82556
20
-4.17666
11
5.82618
21
-4.17735
0
LINE
8
BLACK
6
CONTINUOUS
10
5.82618
20
-4.17735
11
5.82618
21
-4.17744
0
LINE
8
BLACK
6
CONTINUOUS
10
5.82618
20
-4.17744
11
5.82624
21
-4.17751
0
LINE
8
BLACK
6
CONTINUOUS
10
5.82624
20
-4.17751
11
5.83936
21
-4.21688
0
LINE
8
BLACK
6
CONTINUOUS
10
5.83936
20
-4.21688
11
5.83951
21
-4.21789
0
LINE
8
BLACK
6
CONTINUOUS
10
5.83951
20
-4.21789
11
5.83877
21
-4.21977
0
LINE
8
BLACK
6
CONTINUOUS
10
5.83877
20
-4.21977
11
5.83699
21
-4.22073
0
LINE
8
BLACK
6
CONTINUOUS
10
5.83699
20
-4.22073
11
5.83501
21
-4.22033
0
LINE
8
BLACK
6
CONTINUOUS
10
5.83501
20
-4.22033
11
5.83376
21
-4.21874
0
LINE
8
BLACK
6
CONTINUOUS
10
5.83376
20
-4.21874
11
5.83068
21
-4.20951
0
LINE
8
BLACK
6
CONTINUOUS
10
5.83068
20
-4.20951
11
5.81619
21
-4.20951
0
LINE
8
BLACK
6
CONTINUOUS
10
5.81619
20
-4.20951
11
5.81311
21
-4.21874
0
LINE
8
BLACK
6
CONTINUOUS
10
5.81311
20
-4.21874
11
5.81262
21
-4.21965
0
LINE
8
BLACK
6
CONTINUOUS
10
5.81262
20
-4.21965
11
5.8109
21
-4.2207
0
LINE
8
BLACK
6
CONTINUOUS
10
5.8109
20
-4.2207
11
5.80891
21
-4.22041
0
LINE
8
BLACK
6
CONTINUOUS
10
5.80891
20
-4.22041
11
5.80757
21
-4.2189
0
LINE
8
BLACK
6
CONTINUOUS
10
5.80757
20
-4.2189
11
5.80751
21
-4.21688
0
LINE
8
BLACK
6
CONTINUOUS
10
5.80751
20
-4.21688
11
5.82063
21
-4.17751
0
LINE
8
BLACK
6
CONTINUOUS
10
5.82063
20
-4.17751
11
5.82112
21
-4.1766
0
LINE
8
BLACK
6
CONTINUOUS
10
5.82112
20
-4.1766
11
5.82119
21
-4.17656
0
LINE
8
BLACK
6
CONTINUOUS
10
5.82119
20
-4.17656
11
5.82123
21
-4.17648
0
LINE
8
BLACK
6
CONTINUOUS
10
5.82123
20
-4.17648
11
5.82205
21
-4.17604
0
LINE
8
BLACK
6
CONTINUOUS
10
5.82205
20
-4.17604
11
5.82284
21
-4.17555
0
LINE
8
BLACK
6
CONTINUOUS
10
5.82284
20
-4.17555
11
5.82293
21
-4.17556
0
LINE
8
BLACK
6
CONTINUOUS
10
5.82293
20
-4.17556
11
5.823
21
-4.17552
0
LINE
8
BLACK
6
CONTINUOUS
10
5.823
20
-4.17552
11
5.82392
21
-4.17571
0
LINE
8
BLACK
6
CONTINUOUS
10
5.81816
20
-4.20361
11
5.82871
21
-4.20361
0
LINE
8
BLACK
6
CONTINUOUS
10
5.82871
20
-4.20361
11
5.82343
21
-4.18778
0
LINE
8
BLACK
6
CONTINUOUS
10
5.82343
20
-4.18778
11
5.81816
21
-4.20361
0
LINE
8
BLACK
6
CONTINUOUS
10
5.90792
20
-4.1756
11
5.90831
21
-4.17553
0
LINE
8
BLACK
6
CONTINUOUS
10
5.90831
20
-4.17553
11
5.90887
21
-4.17585
0
LINE
8
BLACK
6
CONTINUOUS
10
5.90887
20
-4.17585
11
5.90949
21
-4.17602
0
LINE
8
BLACK
6
CONTINUOUS
10
5.90949
20
-4.17602
11
5.90972
21
-4.17635
0
LINE
8
BLACK
6
CONTINUOUS
10
5.90972
20
-4.17635
11
5.91006
21
-4.17654
0
LINE
8
BLACK
6
CONTINUOUS
10
5.91006
20
-4.17654
11
5.91028
21
-4.17715
0
LINE
8
BLACK
6
CONTINUOUS
10
5.91028
20
-4.17715
11
5.91065
21
-4.17768
0
LINE
8
BLACK
6
CONTINUOUS
10
5.91065
20
-4.17768
11
5.91062
21
-4.17807
0
LINE
8
BLACK
6
CONTINUOUS
10
5.91062
20
-4.17807
11
5.91075
21
-4.17844
0
LINE
8
BLACK
6
CONTINUOUS
10
5.91075
20
-4.17844
11
5.91075
21
-4.21781
0
LINE
8
BLACK
6
CONTINUOUS
10
5.91075
20
-4.21781
11
5.91057
21
-4.21882
0
LINE
8
BLACK
6
CONTINUOUS
10
5.91057
20
-4.21882
11
5.90928
21
-4.22037
0
LINE
8
BLACK
6
CONTINUOUS
10
5.90928
20
-4.22037
11
5.90729
21
-4.22072
0
LINE
8
BLACK
6
CONTINUOUS
10
5.90729
20
-4.22072
11
5.90554
21
-4.21971
0
LINE
8
BLACK
6
CONTINUOUS
10
5.90554
20
-4.21971
11
5.90485
21
-4.21781
0
LINE
8
BLACK
6
CONTINUOUS
10
5.90485
20
-4.21781
11
5.90485
21
-4.19175
0
LINE
8
BLACK
6
CONTINUOUS
10
5.90485
20
-4.19175
11
5.89735
21
-4.20781
0
LINE
8
BLACK
6
CONTINUOUS
10
5.89735
20
-4.20781
11
5.89713
21
-4.20813
0
LINE
8
BLACK
6
CONTINUOUS
10
5.89713
20
-4.20813
11
5.89709
21
-4.20825
0
LINE
8
BLACK
6
CONTINUOUS
10
5.89709
20
-4.20825
11
5.89699
21
-4.20833
0
LINE
8
BLACK
6
CONTINUOUS
10
5.89699
20
-4.20833
11
5.89676
21
-4.20865
0
LINE
8
BLACK
6
CONTINUOUS
10
5.89676
20
-4.20865
11
5.89607
21
-4.20897
0
LINE
8
BLACK
6
CONTINUOUS
10
5.89607
20
-4.20897
11
5.89544
21
-4.20941
0
LINE
8
BLACK
6
CONTINUOUS
10
5.89544
20
-4.20941
11
5.89517
21
-4.20939
0
LINE
8
BLACK
6
CONTINUOUS
10
5.89517
20
-4.20939
11
5.89493
21
-4.2095
0
LINE
8
BLACK
6
CONTINUOUS
10
5.89493
20
-4.2095
11
5.89419
21
-4.2093
0
LINE
8
BLACK
6
CONTINUOUS
10
5.89419
20
-4.2093
11
5.89343
21
-4.20924
0
LINE
8
BLACK
6
CONTINUOUS
10
5.89343
20
-4.20924
11
5.89324
21
-4.20905
0
LINE
8
BLACK
6
CONTINUOUS
10
5.89324
20
-4.20905
11
5.89298
21
-4.20898
0
LINE
8
BLACK
6
CONTINUOUS
10
5.89298
20
-4.20898
11
5.89254
21
-4.20835
0
LINE
8
BLACK
6
CONTINUOUS
10
5.89254
20
-4.20835
11
5.892
21
-4.20781
0
LINE
8
BLACK
6
CONTINUOUS
10
5.892
20
-4.20781
11
5.88451
21
-4.19175
0
LINE
8
BLACK
6
CONTINUOUS
10
5.88451
20
-4.19175
11
5.88451
21
-4.21781
0
LINE
8
BLACK
6
CONTINUOUS
10
5.88451
20
-4.21781
11
5.88433
21
-4.21882
0
LINE
8
BLACK
6
CONTINUOUS
10
5.88433
20
-4.21882
11
5.88303
21
-4.22037
0
LINE
8
BLACK
6
CONTINUOUS
10
5.88303
20
-4.22037
11
5.88104
21
-4.22072
0
LINE
8
BLACK
6
CONTINUOUS
10
5.88104
20
-4.22072
11
5.87929
21
-4.21971
0
LINE
8
BLACK
6
CONTINUOUS
10
5.87929
20
-4.21971
11
5.8786
21
-4.21781
0
LINE
8
BLACK
6
CONTINUOUS
10
5.8786
20
-4.21781
11
5.8786
21
-4.17844
0
LINE
8
BLACK
6
CONTINUOUS
10
5.8786
20
-4.17844
11
5.87878
21
-4.17743
0
LINE
8
BLACK
6
CONTINUOUS
10
5.87878
20
-4.17743
11
5.87903
21
-4.17713
0
LINE
8
BLACK
6
CONTINUOUS
10
5.87903
20
-4.17713
11
5.87913
21
-4.17675
0
LINE
8
BLACK
6
CONTINUOUS
10
5.87913
20
-4.17675
11
5.87966
21
-4.17638
0
LINE
8
BLACK
6
CONTINUOUS
10
5.87966
20
-4.17638
11
5.88008
21
-4.17588
0
LINE
8
BLACK
6
CONTINUOUS
10
5.88008
20
-4.17588
11
5.88046
21
-4.17581
0
LINE
8
BLACK
6
CONTINUOUS
10
5.88046
20
-4.17581
11
5.88079
21
-4.17559
0
LINE
8
BLACK
6
CONTINUOUS
10
5.88079
20
-4.17559
11
5.88143
21
-4.17564
0
LINE
8
BLACK
6
CONTINUOUS
10
5.88143
20
-4.17564
11
5.88207
21
-4.17553
0
LINE
8
BLACK
6
CONTINUOUS
10
5.88207
20
-4.17553
11
5.88241
21
-4.17573
0
LINE
8
BLACK
6
CONTINUOUS
10
5.88241
20
-4.17573
11
5.8828
21
-4.17576
0
LINE
8
BLACK
6
CONTINUOUS
10
5.8828
20
-4.17576
11
5.88326
21
-4.17622
0
LINE
8
BLACK
6
CONTINUOUS
10
5.88326
20
-4.17622
11
5.88381
21
-4.17654
0
LINE
8
BLACK
6
CONTINUOUS
10
5.88381
20
-4.17654
11
5.88395
21
-4.17691
0
LINE
8
BLACK
6
CONTINUOUS
10
5.88395
20
-4.17691
11
5.88423
21
-4.17719
0
LINE
8
BLACK
6
CONTINUOUS
10
5.88423
20
-4.17719
11
5.89468
21
-4.19958
0
LINE
8
BLACK
6
CONTINUOUS
10
5.89468
20
-4.19958
11
5.90512
21
-4.17719
0
LINE
8
BLACK
6
CONTINUOUS
10
5.90512
20
-4.17719
11
5.90571
21
-4.17635
0
LINE
8
BLACK
6
CONTINUOUS
10
5.90571
20
-4.17635
11
5.90607
21
-4.17619
0
LINE
8
BLACK
6
CONTINUOUS
10
5.90607
20
-4.17619
11
5.90632
21
-4.17588
0
LINE
8
BLACK
6
CONTINUOUS
10
5.90632
20
-4.17588
11
5.90696
21
-4.17577
0
LINE
8
BLACK
6
CONTINUOUS
10
5.90696
20
-4.17577
11
5.90754
21
-4.1755
0
LINE
8
BLACK
6
CONTINUOUS
10
5.90754
20
-4.1755
11
5.90792
21
-4.1756
0
LINE
8
BLACK
6
CONTINUOUS
10
5
20
-3.94
11
5
21
-3.88
0
LINE
8
BLACK
6
CONTINUOUS
10
5
20
-3.88
11
5.06
21
-3.88
0
LINE
8
BLACK
6
CONTINUOUS
10
5.06
20
-3.88
11
5.06
21
-3.9
0
LINE
8
BLACK
6
CONTINUOUS
10
5.06
20
-3.9
11
5.07929
21
-3.9
0
LINE
8
BLACK
6
CONTINUOUS
10
5.07929
20
-3.9
11
5.07989
21
-3.89982
0
LINE
8
BLACK
6
CONTINUOUS
10
5.07989
20
-3.89982
11
5.07993
21
-3.89977
0
LINE
8
BLACK
6
CONTINUOUS
10
5.07993
20
-3.89977
11
5.08
21
-3.89947
0
LINE
8
BLACK
6
CONTINUOUS
10
5.08
20
-3.89947
11
5.08
21
-3.88285
0
LINE
8
BLACK
6
CONTINUOUS
10
5.08
20
-3.88285
11
5.08079
21
-3.88017
0
LINE
8
BLACK
6
CONTINUOUS
10
5.08079
20
-3.88017
11
5.0829
21
-3.87834
0
LINE
8
BLACK
6
CONTINUOUS
10
5.0829
20
-3.87834
11
5.08496
21
-3.87789
0
LINE
8
BLACK
6
CONTINUOUS
10
5.08496
20
-3.87789
11
5.11504
21
-3.87789
0
LINE
8
BLACK
6
CONTINUOUS
10
5.11504
20
-3.87789
11
5.11772
21
-3.87868
0
LINE
8
BLACK
6
CONTINUOUS
10
5.11772
20
-3.87868
11
5.11955
21
-3.88079
0
LINE
8
BLACK
6
CONTINUOUS
10
5.11955
20
-3.88079
11
5.12
21
-3.88285
0
LINE
8
BLACK
6
CONTINUOUS
10
5.12
20
-3.88285
11
5.12
21
-3.89929
0
LINE
8
BLACK
6
CONTINUOUS
10
5.12
20
-3.89929
11
5.12018
21
-3.89989
0
LINE
8
BLACK
6
CONTINUOUS
10
5.12018
20
-3.89989
11
5.12023
21
-3.89993
0
LINE
8
BLACK
6
CONTINUOUS
10
5.12023
20
-3.89993
11
5.12053
21
-3.9
0
LINE
8
BLACK
6
CONTINUOUS
10
5.12053
20
-3.9
11
5.14
21
-3.9
0
LINE
8
BLACK
6
CONTINUOUS
10
5.14
20
-3.9
11
5.14
21
-3.88
0
LINE
8
BLACK
6
CONTINUOUS
10
5.14
20
-3.88
11
5.2
21
-3.88
0
LINE
8
BLACK
6
CONTINUOUS
10
5.2
20
-3.88
11
5.2
21
-3.94
0
LINE
8
BLACK
6
CONTINUOUS
10
5.2
20
-3.94
11
5.18
21
-3.94
0
LINE
8
BLACK
6
CONTINUOUS
10
5.18
20
-3.94
11
5.18
21
-3.98
0
LINE
8
BLACK
6
CONTINUOUS
10
5.18
20
-3.98
11
5.2
21
-3.98
0
LINE
8
BLACK
6
CONTINUOUS
10
5.2
20
-3.98
11
5.2
21
-4.04
0
LINE
8
BLACK
6
CONTINUOUS
10
5.2
20
-4.04
11
5.18
21
-4.04
0
LINE
8
BLACK
6
CONTINUOUS
10
5.18
20
-4.04
11
5.18
21
-4.05929
0
LINE
8
BLACK
6
CONTINUOUS
10
5.18
20
-4.05929
11
5.18018
21
-4.05989
0
LINE
8
BLACK
6
CONTINUOUS
10
5.18018
20
-4.05989
11
5.18023
21
-4.05993
0
LINE
8
BLACK
6
CONTINUOUS
10
5.18023
20
-4.05993
11
5.18053
21
-4.06
0
LINE
8
BLACK
6
CONTINUOUS
10
5.18053
20
-4.06
11
5.20176
21
-4.06
0
LINE
8
BLACK
6
CONTINUOUS
10
5.20176
20
-4.06
11
5.20203
21
-4.05999
0
LINE
8
BLACK
6
CONTINUOUS
10
5.20203
20
-4.05999
11
5.20403
21
-4.05977
0
LINE
8
BLACK
6
CONTINUOUS
10
5.20403
20
-4.05977
11
5.20463
21
-4.05963
0
LINE
8
BLACK
6
CONTINUOUS
10
5.20463
20
-4.05963
11
5.20937
21
-4.05785
0
LINE
8
BLACK
6
CONTINUOUS
10
5.20937
20
-4.05785
11
5.20999
21
-4.05751
0
LINE
8
BLACK
6
CONTINUOUS
10
5.20999
20
-4.05751
11
5.214
21
-4.0545
0
LINE
8
BLACK
6
CONTINUOUS
10
5.214
20
-4.0545
11
5.2145
21
-4.054
0
LINE
8
BLACK
6
CONTINUOUS
10
5.2145
20
-4.054
11
5.21602
21
-4.05198
0
LINE
8
BLACK
6
CONTINUOUS
10
5.21602
20
-4.05198
11
5.21826
21
-4.0503
0
LINE
8
BLACK
6
CONTINUOUS
10
5.21826
20
-4.0503
11
5.22104
21
-4.05011
0
LINE
8
BLACK
6
CONTINUOUS
10
5.22104
20
-4.05011
11
5.2235
21
-4.05145
0
LINE
8
BLACK
6
CONTINUOUS
10
5.2235
20
-4.05145
11
5.22396
21
-4.05198
0
LINE
8
BLACK
6
CONTINUOUS
10
5.22396
20
-4.05198
11
5.2257
21
-4.0543
0
LINE
8
BLACK
6
CONTINUOUS
10
5.2257
20
-4.0543
11
5.22598
21
-4.05451
0
LINE
8
BLACK
6
CONTINUOUS
10
5.22598
20
-4.05451
11
5.22598
21
-4.05451
0
LINE
8
BLACK
6
CONTINUOUS
10
5.22598
20
-4.05451
11
5.23013
21
-4.05762
0
LINE
8
BLACK
6
CONTINUOUS
10
5.23013
20
-4.05762
11
5.23181
21
-4.05986
0
LINE
8
BLACK
6
CONTINUOUS
10
5.23181
20
-4.05986
11
5.232
21
-4.06265
0
LINE
8
BLACK
6
CONTINUOUS
10
5.232
20
-4.06265
11
5.23066
21
-4.0651
0
LINE
8
BLACK
6
CONTINUOUS
10
5.23066
20
-4.0651
11
5.22977
21
-4.06581
0
LINE
8
BLACK
6
CONTINUOUS
10
5.22977
20
-4.06581
11
5.22507
21
-4.06872
0
LINE
8
BLACK
6
CONTINUOUS
10
5.22507
20
-4.06872
11
5.22015
21
-4.07365
0
LINE
8
BLACK
6
CONTINUOUS
10
5.22015
20
-4.07365
11
5.21999
21
-4.07389
0
LINE
8
BLACK
6
CONTINUOUS
10
5.21999
20
-4.07389
11
5.21999
21
-4.07389
0
LINE
8
BLACK
6
CONTINUOUS
10
5.21999
20
-4.07389
11
5.21883
21
-4.07579
0
LINE
8
BLACK
6
CONTINUOUS
10
5.21883
20
-4.07579
11
5.21649
21
-4.07958
0
LINE
8
BLACK
6
CONTINUOUS
10
5.21649
20
-4.07958
11
5.2143
21
-4.08619
0
LINE
8
BLACK
6
CONTINUOUS
10
5.2143
20
-4.08619
11
5.21388
21
-4.0903
0
LINE
8
BLACK
6
CONTINUOUS
10
5.21388
20
-4.0903
11
5.21388
21
-4.1297
0
LINE
8
BLACK
6
CONTINUOUS
10
5.21388
20
-4.1297
11
5.21431
21
-4.13386
0
LINE
8
BLACK
6
CONTINUOUS
10
5.21431
20
-4.13386
11
5.21651
21
-4.14047
0
LINE
8
BLACK
6
CONTINUOUS
10
5.21651
20
-4.14047
11
5.22018
21
-4.14639
0
LINE
8
BLACK
6
CONTINUOUS
10
5.22018
20
-4.14639
11
5.22038
21
-4.1466
0
LINE
8
BLACK
6
CONTINUOUS
10
5.22038
20
-4.1466
11
5.22473
21
-4.15093
0
LINE
8
BLACK
6
CONTINUOUS
10
5.22473
20
-4.15093
11
5.22607
21
-4.15338
0
LINE
8
BLACK
6
CONTINUOUS
10
5.22607
20
-4.15338
11
5.22618
21
-4.15444
0
LINE
8
BLACK
6
CONTINUOUS
10
5.22618
20
-4.15444
11
5.22618
21
-4.18294
0
LINE
8
BLACK
6
CONTINUOUS
10
5.22618
20
-4.18294
11
5.22617
21
-4.18327
0
LINE
8
BLACK
6
CONTINUOUS
10
5.22617
20
-4.18327
11
5.22604
21
-4.18525
0
LINE
8
BLACK
6
CONTINUOUS
10
5.22604
20
-4.18525
11
5.22601
21
-4.18555
0
LINE
8
BLACK
6
CONTINUOUS
10
5.22601
20
-4.18555
11
5.22607
21
-4.18584
0
LINE
8
BLACK
6
CONTINUOUS
10
5.22607
20
-4.18584
11
5.22607
21
-4.18584
0
LINE
8
BLACK
6
CONTINUOUS
10
5.22607
20
-4.18584
11
5.22645
21
-4.18802
0
LINE
8
BLACK
6
CONTINUOUS
10
5.22645
20
-4.18802
11
5.22649
21
-4.18828
0
LINE
8
BLACK
6
CONTINUOUS
10
5.22649
20
-4.18828
11
5.22679
21
-4.19078
0
LINE
8
BLACK
6
CONTINUOUS
10
5.22679
20
-4.19078
11
5.22689
21
-4.19106
0
LINE
8
BLACK
6
CONTINUOUS
10
5.22689
20
-4.19106
11
5.22692
21
-4.19116
0
LINE
8
BLACK
6
CONTINUOUS
10
5.22692
20
-4.19116
11
5.22709
21
-4.1918
0
LINE
8
BLACK
6
CONTINUOUS
10
5.22709
20
-4.1918
11
5.22712
21
-4.1919
0
LINE
8
BLACK
6
CONTINUOUS
10
5.22712
20
-4.1919
11
5.22718
21
-4.1922
0
LINE
8
BLACK
6
CONTINUOUS
10
5.22718
20
-4.1922
11
5.22818
21
-4.19448
0
LINE
8
BLACK
6
CONTINUOUS
10
5.22818
20
-4.19448
11
5.22819
21
-4.1945
0
LINE
8
BLACK
6
CONTINUOUS
10
5.22819
20
-4.1945
11
5.22828
21
-4.19474
0
LINE
8
BLACK
6
CONTINUOUS
10
5.22828
20
-4.19474
11
5.22906
21
-4.19678
0
LINE
8
BLACK
6
CONTINUOUS
10
5.22906
20
-4.19678
11
5.22917
21
-4.19709
0
LINE
8
BLACK
6
CONTINUOUS
10
5.22917
20
-4.19709
11
5.22934
21
-4.19734
0
LINE
8
BLACK
6
CONTINUOUS
10
5.22934
20
-4.19734
11
5.22939
21
-4.19743
0
LINE
8
BLACK
6
CONTINUOUS
10
5.22939
20
-4.19743
11
5.22972
21
-4.19802
0
LINE
8
BLACK
6
CONTINUOUS
10
5.22972
20
-4.19802
11
5.22977
21
-4.1981
0
LINE
8
BLACK
6
CONTINUOUS
10
5.22977
20
-4.1981
11
5.22989
21
-4.19838
0
LINE
8
BLACK
6
CONTINUOUS
10
5.22989
20
-4.19838
11
5.23078
21
-4.19954
0
LINE
8
BLACK
6
CONTINUOUS
10
5.23078
20
-4.19954
11
5.23142
21
-4.20037
0
LINE
8
BLACK
6
CONTINUOUS
10
5.23142
20
-4.20037
11
5.23157
21
-4.20058
0
LINE
8
BLACK
6
CONTINUOUS
10
5.23157
20
-4.20058
11
5.23283
21
-4.20241
0
LINE
8
BLACK
6
CONTINUOUS
10
5.23283
20
-4.20241
11
5.23283
21
-4.20241
0
LINE
8
BLACK
6
CONTINUOUS
10
5.23283
20
-4.20241
11
5.233
21
-4.20266
0
LINE
8
BLACK
6
CONTINUOUS
10
5.233
20
-4.20266
11
5.23322
21
-4.20286
0
LINE
8
BLACK
6
CONTINUOUS
10
5.23322
20
-4.20286
11
5.23322
21
-4.20286
0
LINE
8
BLACK
6
CONTINUOUS
10
5.23322
20
-4.20286
11
5.23483
21
-4.20429
0
LINE
8
BLACK
6
CONTINUOUS
10
5.23483
20
-4.20429
11
5.23504
21
-4.20448
0
LINE
8
BLACK
6
CONTINUOUS
10
5.23504
20
-4.20448
11
5.25526
21
-4.22471
0
LINE
8
BLACK
6
CONTINUOUS
10
5.25526
20
-4.22471
11
5.2566
21
-4.22716
0
LINE
8
BLACK
6
CONTINUOUS
10
5.2566
20
-4.22716
11
5.25671
21
-4.22821
0
LINE
8
BLACK
6
CONTINUOUS
10
5.25671
20
-4.22821
11
5.25671
21
-4.23032
0
LINE
8
BLACK
6
CONTINUOUS
10
5.25671
20
-4.23032
11
5.25593
21
-4.233
0
LINE
8
BLACK
6
CONTINUOUS
10
5.25593
20
-4.233
11
5.25381
21
-4.23483
0
LINE
8
BLACK
6
CONTINUOUS
10
5.25381
20
-4.23483
11
5.25122
21
-4.23525
0
LINE
8
BLACK
6
CONTINUOUS
10
5.25122
20
-4.23525
11
5.2491
21
-4.23502
0
LINE
8
BLACK
6
CONTINUOUS
10
5.2491
20
-4.23502
11
5.24507
21
-4.23502
0
LINE
8
BLACK
6
CONTINUOUS
10
5.24507
20
-4.23502
11
5.24238
21
-4.23423
0
LINE
8
BLACK
6
CONTINUOUS
10
5.24238
20
-4.23423
11
5.24156
21
-4.23357
0
LINE
8
BLACK
6
CONTINUOUS
10
5.24156
20
-4.23357
11
5.08907
21
-4.08108
0
LINE
8
BLACK
6
CONTINUOUS
10
5.08907
20
-4.08108
11
5.08884
21
-4.08084
0
LINE
8
BLACK
6
CONTINUOUS
10
5.08884
20
-4.08084
11
5.08883
21
-4.08082
0
LINE
8
BLACK
6
CONTINUOUS
10
5.08883
20
-4.08082
11
5.08734
21
-4.07912
0
LINE
8
BLACK
6
CONTINUOUS
10
5.08734
20
-4.07912
11
5.08529
21
-4.07767
0
LINE
8
BLACK
6
CONTINUOUS
10
5.08529
20
-4.07767
11
5.08508
21
-4.07752
0
LINE
8
BLACK
6
CONTINUOUS
10
5.08508
20
-4.07752
11
5.08333
21
-4.07615
0
LINE
8
BLACK
6
CONTINUOUS
10
5.08333
20
-4.07615
11
5.0831
21
-4.07597
0
LINE
8
BLACK
6
CONTINUOUS
10
5.0831
20
-4.07597
11
5.08283
21
-4.07584
0
LINE
8
BLACK
6
CONTINUOUS
10
5.08283
20
-4.07584
11
5.08274
21
-4.07579
0
LINE
8
BLACK
6
CONTINUOUS
10
5.08274
20
-4.07579
11
5.08216
21
-4.07546
0
LINE
8
BLACK
6
CONTINUOUS
10
5.08216
20
-4.07546
11
5.08207
21
-4.07541
0
LINE
8
BLACK
6
CONTINUOUS
10
5.08207
20
-4.07541
11
5.08182
21
-4.07524
0
LINE
8
BLACK
6
CONTINUOUS
10
5.08182
20
-4.07524
11
5.08154
21
-4.07513
0
LINE
8
BLACK
6
CONTINUOUS
10
5.08154
20
-4.07513
11
5.08154
21
-4.07513
0
LINE
8
BLACK
6
CONTINUOUS
10
5.08154
20
-4.07513
11
5.07948
21
-4.07432
0
LINE
8
BLACK
6
CONTINUOUS
10
5.07948
20
-4.07432
11
5.07924
21
-4.07422
0
LINE
8
BLACK
6
CONTINUOUS
10
5.07924
20
-4.07422
11
5.07695
21
-4.07319
0
LINE
8
BLACK
6
CONTINUOUS
10
5.07695
20
-4.07319
11
5.07665
21
-4.07313
0
LINE
8
BLACK
6
CONTINUOUS
10
5.07665
20
-4.07313
11
5.07655
21
-4.0731
0
LINE
8
BLACK
6
CONTINUOUS
10
5.07655
20
-4.0731
11
5.07591
21
-4.07292
0
LINE
8
BLACK
6
CONTINUOUS
10
5.07591
20
-4.07292
11
5.07581
21
-4.07289
0
LINE
8
BLACK
6
CONTINUOUS
10
5.07581
20
-4.07289
11
5.07553
21
-4.07278
0
LINE
8
BLACK
6
CONTINUOUS
10
5.07553
20
-4.07278
11
5.07523
21
-4.07275
0
LINE
8
BLACK
6
CONTINUOUS
10
5.07523
20
-4.07275
11
5.07523
21
-4.07275
0
LINE
8
BLACK
6
CONTINUOUS
10
5.07523
20
-4.07275
11
5.07407
21
-4.07259
0
LINE
8
BLACK
6
CONTINUOUS
10
5.07407
20
-4.07259
11
5.07304
21
-4.07246
0
LINE
8
BLACK
6
CONTINUOUS
10
5.07304
20
-4.07246
11
5.07278
21
-4.07242
0
LINE
8
BLACK
6
CONTINUOUS
10
5.07278
20
-4.07242
11
5.07031
21
-4.07196
0
LINE
8
BLACK
6
CONTINUOUS
10
5.07031
20
-4.07196
11
5.07001
21
-4.07197
0
LINE
8
BLACK
6
CONTINUOUS
10
5.07001
20
-4.07197
11
5.07001
21
-4.07197
0
LINE
8
BLACK
6
CONTINUOUS
10
5.07001
20
-4.07197
11
5.06786
21
-4.0721
0
LINE
8
BLACK
6
CONTINUOUS
10
5.06786
20
-4.0721
11
5.06757
21
-4.07211
0
LINE
8
BLACK
6
CONTINUOUS
10
5.06757
20
-4.07211
11
5.01361
21
-4.07211
0
LINE
8
BLACK
6
CONTINUOUS
10
5.01361
20
-4.07211
11
5.01093
21
-4.07132
0
LINE
8
BLACK
6
CONTINUOUS
10
5.01093
20
-4.07132
11
5.0101
21
-4.07065
0
LINE
8
BLACK
6
CONTINUOUS
10
5.0101
20
-4.07065
11
5.00935
21
-4.0699
0
LINE
8
BLACK
6
CONTINUOUS
10
5.00935
20
-4.0699
11
5.00801
21
-4.06745
0
LINE
8
BLACK
6
CONTINUOUS
10
5.00801
20
-4.06745
11
5.00789
21
-4.06639
0
LINE
8
BLACK
6
CONTINUOUS
10
5.00789
20
-4.06639
11
5.00789
21
-4.06498
0
LINE
8
BLACK
6
CONTINUOUS
10
5.00789
20
-4.06498
11
5.00868
21
-4.0623
0
LINE
8
BLACK
6
CONTINUOUS
10
5.00868
20
-4.0623
11
5.01079
21
-4.06047
0
LINE
8
BLACK
6
CONTINUOUS
10
5.01079
20
-4.06047
11
5.01285
21
-4.06002
0
LINE
8
BLACK
6
CONTINUOUS
10
5.01285
20
-4.06002
11
5.0619
21
-4.06002
0
LINE
8
BLACK
6
CONTINUOUS
10
5.0619
20
-4.06002
11
5.06434
21
-4.05975
0
LINE
8
BLACK
6
CONTINUOUS
10
5.06434
20
-4.05975
11
5.06971
21
-4.05774
0
LINE
8
BLACK
6
CONTINUOUS
10
5.06971
20
-4.05774
11
5.0743
21
-4.0543
0
LINE
8
BLACK
6
CONTINUOUS
10
5.0743
20
-4.0543
11
5.07774
21
-4.04971
0
LINE
8
BLACK
6
CONTINUOUS
10
5.07774
20
-4.04971
11
5.07975
21
-4.04434
0
LINE
8
BLACK
6
CONTINUOUS
10
5.07975
20
-4.04434
11
5.08002
21
-4.0419
0
LINE
8
BLACK
6
CONTINUOUS
10
5.08002
20
-4.0419
11
5.08002
21
-3.9781
0
LINE
8
BLACK
6
CONTINUOUS
10
5.08002
20
-3.9781
11
5.07975
21
-3.97566
0
LINE
8
BLACK
6
CONTINUOUS
10
5.07975
20
-3.97566
11
5.07774
21
-3.97029
0
LINE
8
BLACK
6
CONTINUOUS
10
5.07774
20
-3.97029
11
5.0743
21
-3.9657
0
LINE
8
BLACK
6
CONTINUOUS
10
5.0743
20
-3.9657
11
5.07198
21
-3.96396
0
LINE
8
BLACK
6
CONTINUOUS
10
5.07198
20
-3.96396
11
5.0703
21
-3.96172
0
LINE
8
BLACK
6
CONTINUOUS
10
5.0703
20
-3.96172
11
5.07011
21
-3.95893
0
LINE
8
BLACK
6
CONTINUOUS
10
5.07011
20
-3.95893
11
5.07145
21
-3.95648
0
LINE
8
BLACK
6
CONTINUOUS
10
5.07145
20
-3.95648
11
5.07198
21
-3.95602
0
LINE
8
BLACK
6
CONTINUOUS
10
5.07198
20
-3.95602
11
5.074
21
-3.9545
0
LINE
8
BLACK
6
CONTINUOUS
10
5.074
20
-3.9545
11
5.0745
21
-3.954
0
LINE
8
BLACK
6
CONTINUOUS
10
5.0745
20
-3.954
11
5.07751
21
-3.94999
0
LINE
8
BLACK
6
CONTINUOUS
10
5.07751
20
-3.94999
11
5.07785
21
-3.94937
0
LINE
8
BLACK
6
CONTINUOUS
10
5.07785
20
-3.94937
11
5.07963
21
-3.94463
0
LINE
8
BLACK
6
CONTINUOUS
10
5.07963
20
-3.94463
11
5.07977
21
-3.94403
0
LINE
8
BLACK
6
CONTINUOUS
10
5.07977
20
-3.94403
11
5.07999
21
-3.94203
0
LINE
8
BLACK
6
CONTINUOUS
10
5.07999
20
-3.94203
11
5.08
21
-3.94176
0
LINE
8
BLACK
6
CONTINUOUS
10
5.08
20
-3.94176
11
5.08
21
-3.92071
0
LINE
8
BLACK
6
CONTINUOUS
10
5.08
20
-3.92071
11
5.07982
21
-3.92011
0
LINE
8
BLACK
6
CONTINUOUS
10
5.07982
20
-3.92011
11
5.07977
21
-3.92007
0
LINE
8
BLACK
6
CONTINUOUS
10
5.07977
20
-3.92007
11
5.07947
21
-3.92
0
LINE
8
BLACK
6
CONTINUOUS
10
5.07947
20
-3.92
11
5.06
21
-3.92
0
LINE
8
BLACK
6
CONTINUOUS
10
5.06
20
-3.92
11
5.06
21
-3.94
0
LINE
8
BLACK
6
CONTINUOUS
10
5.06
20
-3.94
11
5
21
-3.94
0
LINE
8
BLACK
6
CONTINUOUS
10
5.12023
20
-4.04403
11
5.12037
21
-4.04463
0
LINE
8
BLACK
6
CONTINUOUS
10
5.12037
20
-4.04463
11
5.12215
21
-4.04937
0
LINE
8
BLACK
6
CONTINUOUS
10
5.12215
20
-4.04937
11
5.12249
21
-4.04999
0
LINE
8
BLACK
6
CONTINUOUS
10
5.12249
20
-4.04999
11
5.1255
21
-4.054
0
LINE
8
BLACK
6
CONTINUOUS
10
5.1255
20
-4.054
11
5.126
21
-4.0545
0
LINE
8
BLACK
6
CONTINUOUS
10
5.126
20
-4.0545
11
5.13001
21
-4.05751
0
LINE
8
BLACK
6
CONTINUOUS
10
5.13001
20
-4.05751
11
5.13063
21
-4.05785
0
LINE
8
BLACK
6
CONTINUOUS
10
5.13063
20
-4.05785
11
5.13537
21
-4.05963
0
LINE
8
BLACK
6
CONTINUOUS
10
5.13537
20
-4.05963
11
5.13597
21
-4.05977
0
LINE
8
BLACK
6
CONTINUOUS
10
5.13597
20
-4.05977
11
5.13797
21
-4.05999
0
LINE
8
BLACK
6
CONTINUOUS
10
5.13797
20
-4.05999
11
5.13824
21
-4.06
0
LINE
8
BLACK
6
CONTINUOUS
10
5.13824
20
-4.06
11
5.15929
21
-4.06
0
LINE
8
BLACK
6
CONTINUOUS
10
5.15929
20
-4.06
11
5.15989
21
-4.05982
0
LINE
8
BLACK
6
CONTINUOUS
10
5.15989
20
-4.05982
11
5.15993
21
-4.05977
0
LINE
8
BLACK
6
CONTINUOUS
10
5.15993
20
-4.05977
11
5.16
21
-4.05947
0
LINE
8
BLACK
6
CONTINUOUS
10
5.16
20
-4.05947
11
5.16
21
-4.04
0
LINE
8
BLACK
6
CONTINUOUS
10
5.16
20
-4.04
11
5.14
21
-4.04
0
LINE
8
BLACK
6
CONTINUOUS
10
5.14
20
-4.04
11
5.14
21
-4.02
0
LINE
8
BLACK
6
CONTINUOUS
10
5.14
20
-4.02
11
5.12071
21
-4.02
0
LINE
8
BLACK
6
CONTINUOUS
10
5.12071
20
-4.02
11
5.12011
21
-4.02018
0
LINE
8
BLACK
6
CONTINUOUS
10
5.12011
20
-4.02018
11
5.12007
21
-4.02023
0
LINE
8
BLACK
6
CONTINUOUS
10
5.12007
20
-4.02023
11
5.12
21
-4.02053
0
LINE
8
BLACK
6
CONTINUOUS
10
5.12
20
-4.02053
11
5.12
21
-4.04176
0
LINE
8
BLACK
6
CONTINUOUS
10
5.12
20
-4.04176
11
5.12001
21
-4.04203
0
LINE
8
BLACK
6
CONTINUOUS
10
5.12001
20
-4.04203
11
5.12023
21
-4.04403
0
LINE
8
BLACK
6
CONTINUOUS
10
5.12023
20
-3.99993
11
5.12053
21
-4
0
LINE
8
BLACK
6
CONTINUOUS
10
5.12053
20
-4
11
5.14
21
-4
0
LINE
8
BLACK
6
CONTINUOUS
10
5.14
20
-4
11
5.14
21
-3.98
0
LINE
8
BLACK
6
CONTINUOUS
10
5.14
20
-3.98
11
5.16
21
-3.98
0
LINE
8
BLACK
6
CONTINUOUS
10
5.16
20
-3.98
11
5.16
21
-3.94
0
LINE
8
BLACK
6
CONTINUOUS
10
5.16
20
-3.94
11
5.14
21
-3.94
0
LINE
8
BLACK
6
CONTINUOUS
10
5.14
20
-3.94
11
5.14
21
-3.92
0
LINE
8
BLACK
6
CONTINUOUS
10
5.14
20
-3.92
11
5.12071
21
-3.92
0
LINE
8
BLACK
6
CONTINUOUS
10
5.12071
20
-3.92
11
5.12011
21
-3.92018
0
LINE
8
BLACK
6
CONTINUOUS
10
5.12011
20
-3.92018
11
5.12007
21
-3.92023
0
LINE
8
BLACK
6
CONTINUOUS
10
5.12007
20
-3.92023
11
5.12
21
-3.92053
0
LINE
8
BLACK
6
CONTINUOUS
10
5.12
20
-3.92053
11
5.12
21
-3.94176
0
LINE
8
BLACK
6
CONTINUOUS
10
5.12
20
-3.94176
11
5.12001
21
-3.94203
0
LINE
8
BLACK
6
CONTINUOUS
10
5.12001
20
-3.94203
11
5.12023
21
-3.94403
0
LINE
8
BLACK
6
CONTINUOUS
10
5.12023
20
-3.94403
11
5.12037
21
-3.94463
0
LINE
8
BLACK
6
CONTINUOUS
10
5.12037
20
-3.94463
11
5.12215
21
-3.94937
0
LINE
8
BLACK
6
CONTINUOUS
10
5.12215
20
-3.94937
11
5.12249
21
-3.94999
0
LINE
8
BLACK
6
CONTINUOUS
10
5.12249
20
-3.94999
11
5.1255
21
-3.954
0
LINE
8
BLACK
6
CONTINUOUS
10
5.1255
20
-3.954
11
5.126
21
-3.9545
0
LINE
8
BLACK
6
CONTINUOUS
10
5.126
20
-3.9545
11
5.12804
21
-3.95603
0
LINE
8
BLACK
6
CONTINUOUS
10
5.12804
20
-3.95603
11
5.12971
21
-3.95827
0
LINE
8
BLACK
6
CONTINUOUS
10
5.12971
20
-3.95827
11
5.12991
21
-3.96106
0
LINE
8
BLACK
6
CONTINUOUS
10
5.12991
20
-3.96106
11
5.12857
21
-3.96351
0
LINE
8
BLACK
6
CONTINUOUS
10
5.12857
20
-3.96351
11
5.12804
21
-3.96397
0
LINE
8
BLACK
6
CONTINUOUS
10
5.12804
20
-3.96397
11
5.126
21
-3.9655
0
LINE
8
BLACK
6
CONTINUOUS
10
5.126
20
-3.9655
11
5.1255
21
-3.966
0
LINE
8
BLACK
6
CONTINUOUS
10
5.1255
20
-3.966
11
5.12249
21
-3.97001
0
LINE
8
BLACK
6
CONTINUOUS
10
5.12249
20
-3.97001
11
5.12215
21
-3.97063
0
LINE
8
BLACK
6
CONTINUOUS
10
5.12215
20
-3.97063
11
5.12037
21
-3.97537
0
LINE
8
BLACK
6
CONTINUOUS
10
5.12037
20
-3.97537
11
5.12023
21
-3.97597
0
LINE
8
BLACK
6
CONTINUOUS
10
5.12023
20
-3.97597
11
5.12001
21
-3.97797
0
LINE
8
BLACK
6
CONTINUOUS
10
5.12001
20
-3.97797
11
5.12
21
-3.97824
0
LINE
8
BLACK
6
CONTINUOUS
10
5.12
20
-3.97824
11
5.12
21
-3.99929
0
LINE
8
BLACK
6
CONTINUOUS
10
5.12
20
-3.99929
11
5.12018
21
-3.99989
0
LINE
8
BLACK
6
CONTINUOUS
10
5.12018
20
-3.99989
11
5.12023
21
-3.99993
0
CIRCLE
8
BLACK
10
5.58
20
-4.18
40
0.00787402
0
CIRCLE
8
BLACK
10
5.4
20
-4.49
40
0.00787402
0
CIRCLE
8
BLACK
10
5.17
20
-4.42
40
0.00787402
0
CIRCLE
8
BLACK
10
5.3
20
-4.41
40
0.00787402
0
CIRCLE
8
BLACK
10
4.984
20
-4.154
40
0.00787402
0
CIRCLE
8
BLACK
10
4.844
20
-4.293
40
0.00787402
0
CIRCLE
8
BLACK
10
5.59
20
-4.36
40
0.00787402
0
CIRCLE
8
BLACK
10
5.071
20
-4.237
40
0.00787402
0
CIRCLE
8
BLACK
10
5.24
20
-4.42
40
0.00787402
0
CIRCLE
8
BLACK
10
5.38
20
-4.22
40
0.00787402
0
CIRCLE
8
BLACK
10
5.53
20
-4.23
40
0.00787402
0
CIRCLE
8
BLACK
10
5.205
20
-4.168
40
0.00787402
0
CIRCLE
8
BLACK
10
5.46
20
-4.22
40
0.00787402
0
CIRCLE
8
BLACK
10
5.42
20
-4.22
40
0.00787402
0
CIRCLE
8
BLACK
10
5.66
20
-4.52
40
0.00787402
0
CIRCLE
8
BLACK
10
5.5
20
-4.21
40
0.00787402
  0
ENDSEC
  0
EOF
