  0
SECTION
  2
HEADER
  9
$ANGBASE
  50
0.0
  9
$ANGDIR
  70
1
  9
$MEASUREMENT
  70
0
  0
ENDSEC
  0
SECTION
  2
TABLES
  0
TABLE
  2
LTYPE
  70
4
  0
LTYPE
  5
40F
  2
CONTINUOUS
  70
0
  3
Solid line
  72
65
  73
0
  40
0.0
  0
LTYPE
  5
410
  2
DASHDOT
 70
0
  3
Dash Dot ____ _ ____ _
 72
65
 73
4
 40
2.0
 49
1.25
 49
-0.25
 49
0.25
 49
-0.25
  0
LTYPE
  5
411
  2
DASHED
 70
0
  3
Dashed __ __ __ __ __
 72
65
 73
2
 40
0.75
 49
0.5
 49
-0.25
  0
LTYPE
  5
43B
  2
DOTTED
 70
0
  3
Dotted .  .  .  .
 72
65
 73
2
 40
0.2
 49
0.0
 49
-0.2
  0
ENDTAB
  0
TABLE
  2
STYLE
  70
4
  0
STYLE
  2
KICAD
  70
0
  40
0
  41
1
  42
1
  50
0
  71
0
  3
isocp.shx
  0
STYLE
  2
KICADB
  70
0
  40
0
  41
1
  42
1
  50
0
  71
0
  3
isocp.shx
  0
STYLE
  2
KICADI
  70
0
  40
0
  41
1
  42
1
  50
15
  71
0
  3
isocp.shx
  0
STYLE
  2
KICADBI
  70
0
  40
0
  41
1
  42
1
  50
15
  71
0
  3
isocp.shx
  0
ENDTAB
  0
TABLE
  2
LAYER
  70
1
  0
LAYER
  2
BLACK
  70
0
  62
7
  6
CONTINUOUS
  0
ENDTAB
  0
ENDSEC
  0
SECTION
  2
ENTITIES
0
LINE
8
BLACK
6
CONTINUOUS
10
5.11896
20
-4.52963
11
5.14596
21
-4.57012
0
LINE
8
BLACK
6
CONTINUOUS
10
5.14596
20
-4.57012
11
5.14637
21
-4.57106
0
LINE
8
BLACK
6
CONTINUOUS
10
5.14637
20
-4.57106
11
5.14615
21
-4.57307
0
LINE
8
BLACK
6
CONTINUOUS
10
5.14615
20
-4.57307
11
5.14468
21
-4.57447
0
LINE
8
BLACK
6
CONTINUOUS
10
5.14468
20
-4.57447
11
5.14267
21
-4.5746
0
LINE
8
BLACK
6
CONTINUOUS
10
5.14267
20
-4.5746
11
5.14104
21
-4.5734
0
LINE
8
BLACK
6
CONTINUOUS
10
5.14104
20
-4.5734
11
5.11404
21
-4.53291
0
LINE
8
BLACK
6
CONTINUOUS
10
5.11404
20
-4.53291
11
5.11363
21
-4.53197
0
LINE
8
BLACK
6
CONTINUOUS
10
5.11363
20
-4.53197
11
5.11385
21
-4.52996
0
LINE
8
BLACK
6
CONTINUOUS
10
5.11385
20
-4.52996
11
5.11532
21
-4.52856
0
LINE
8
BLACK
6
CONTINUOUS
10
5.11532
20
-4.52856
11
5.11733
21
-4.52843
0
LINE
8
BLACK
6
CONTINUOUS
10
5.11733
20
-4.52843
11
5.11896
21
-4.52963
0
LINE
8
BLACK
6
CONTINUOUS
10
5.10251
20
-4.52999
11
5.10265
21
-4.53011
0
LINE
8
BLACK
6
CONTINUOUS
10
5.10265
20
-4.53011
11
5.10282
21
-4.53013
0
LINE
8
BLACK
6
CONTINUOUS
10
5.10282
20
-4.53013
11
5.10582
21
-4.53163
0
LINE
8
BLACK
6
CONTINUOUS
10
5.10582
20
-4.53163
11
5.10653
21
-4.53215
0
LINE
8
BLACK
6
CONTINUOUS
10
5.10653
20
-4.53215
11
5.10659
21
-4.53218
0
LINE
8
BLACK
6
CONTINUOUS
10
5.10659
20
-4.53218
11
5.10809
21
-4.53368
0
LINE
8
BLACK
6
CONTINUOUS
10
5.10809
20
-4.53368
11
5.1086
21
-4.5344
0
LINE
8
BLACK
6
CONTINUOUS
10
5.1086
20
-4.5344
11
5.10864
21
-4.53445
0
LINE
8
BLACK
6
CONTINUOUS
10
5.10864
20
-4.53445
11
5.11014
21
-4.53745
0
LINE
8
BLACK
6
CONTINUOUS
10
5.11014
20
-4.53745
11
5.11044
21
-4.53843
0
LINE
8
BLACK
6
CONTINUOUS
10
5.11044
20
-4.53843
11
5.1104
21
-4.5386
0
LINE
8
BLACK
6
CONTINUOUS
10
5.1104
20
-4.5386
11
5.11046
21
-4.53877
0
LINE
8
BLACK
6
CONTINUOUS
10
5.11046
20
-4.53877
11
5.11046
21
-4.54177
0
LINE
8
BLACK
6
CONTINUOUS
10
5.11046
20
-4.54177
11
5.11028
21
-4.54278
0
LINE
8
BLACK
6
CONTINUOUS
10
5.11028
20
-4.54278
11
5.11016
21
-4.54291
0
LINE
8
BLACK
6
CONTINUOUS
10
5.11016
20
-4.54291
11
5.11014
21
-4.54309
0
LINE
8
BLACK
6
CONTINUOUS
10
5.11014
20
-4.54309
11
5.10864
21
-4.54609
0
LINE
8
BLACK
6
CONTINUOUS
10
5.10864
20
-4.54609
11
5.10812
21
-4.5468
0
LINE
8
BLACK
6
CONTINUOUS
10
5.10812
20
-4.5468
11
5.10809
21
-4.54685
0
LINE
8
BLACK
6
CONTINUOUS
10
5.10809
20
-4.54685
11
5.10659
21
-4.54835
0
LINE
8
BLACK
6
CONTINUOUS
10
5.10659
20
-4.54835
11
5.10587
21
-4.54886
0
LINE
8
BLACK
6
CONTINUOUS
10
5.10587
20
-4.54886
11
5.10582
21
-4.54891
0
LINE
8
BLACK
6
CONTINUOUS
10
5.10582
20
-4.54891
11
5.10282
21
-4.55041
0
LINE
8
BLACK
6
CONTINUOUS
10
5.10282
20
-4.55041
11
5.10234
21
-4.55055
0
LINE
8
BLACK
6
CONTINUOUS
10
5.10234
20
-4.55055
11
5.10222
21
-4.55063
0
LINE
8
BLACK
6
CONTINUOUS
10
5.10222
20
-4.55063
11
5.09653
21
-4.55205
0
LINE
8
BLACK
6
CONTINUOUS
10
5.09653
20
-4.55205
11
5.09425
21
-4.55319
0
LINE
8
BLACK
6
CONTINUOUS
10
5.09425
20
-4.55319
11
5.09343
21
-4.55401
0
LINE
8
BLACK
6
CONTINUOUS
10
5.09343
20
-4.55401
11
5.09246
21
-4.55596
0
LINE
8
BLACK
6
CONTINUOUS
10
5.09246
20
-4.55596
11
5.09246
21
-4.55757
0
LINE
8
BLACK
6
CONTINUOUS
10
5.09246
20
-4.55757
11
5.09343
21
-4.55951
0
LINE
8
BLACK
6
CONTINUOUS
10
5.09343
20
-4.55951
11
5.09425
21
-4.56034
0
LINE
8
BLACK
6
CONTINUOUS
10
5.09425
20
-4.56034
11
5.0962
21
-4.56131
0
LINE
8
BLACK
6
CONTINUOUS
10
5.0962
20
-4.56131
11
5.10252
21
-4.56131
0
LINE
8
BLACK
6
CONTINUOUS
10
5.10252
20
-4.56131
11
5.10657
21
-4.55996
0
LINE
8
BLACK
6
CONTINUOUS
10
5.10657
20
-4.55996
11
5.10758
21
-4.55981
0
LINE
8
BLACK
6
CONTINUOUS
10
5.10758
20
-4.55981
11
5.10946
21
-4.56055
0
LINE
8
BLACK
6
CONTINUOUS
10
5.10946
20
-4.56055
11
5.11042
21
-4.56233
0
LINE
8
BLACK
6
CONTINUOUS
10
5.11042
20
-4.56233
11
5.11002
21
-4.56431
0
LINE
8
BLACK
6
CONTINUOUS
10
5.11002
20
-4.56431
11
5.10844
21
-4.56557
0
LINE
8
BLACK
6
CONTINUOUS
10
5.10844
20
-4.56557
11
5.10394
21
-4.56706
0
LINE
8
BLACK
6
CONTINUOUS
10
5.10394
20
-4.56706
11
5.10306
21
-4.56719
0
LINE
8
BLACK
6
CONTINUOUS
10
5.10306
20
-4.56719
11
5.103
21
-4.56722
0
LINE
8
BLACK
6
CONTINUOUS
10
5.103
20
-4.56722
11
5.0955
21
-4.56722
0
LINE
8
BLACK
6
CONTINUOUS
10
5.0955
20
-4.56722
11
5.09449
21
-4.56704
0
LINE
8
BLACK
6
CONTINUOUS
10
5.09449
20
-4.56704
11
5.09436
21
-4.56692
0
LINE
8
BLACK
6
CONTINUOUS
10
5.09436
20
-4.56692
11
5.09418
21
-4.5669
0
LINE
8
BLACK
6
CONTINUOUS
10
5.09418
20
-4.5669
11
5.09118
21
-4.5654
0
LINE
8
BLACK
6
CONTINUOUS
10
5.09118
20
-4.5654
11
5.09047
21
-4.56488
0
LINE
8
BLACK
6
CONTINUOUS
10
5.09047
20
-4.56488
11
5.09042
21
-4.56485
0
LINE
8
BLACK
6
CONTINUOUS
10
5.09042
20
-4.56485
11
5.08892
21
-4.56335
0
LINE
8
BLACK
6
CONTINUOUS
10
5.08892
20
-4.56335
11
5.08841
21
-4.56263
0
LINE
8
BLACK
6
CONTINUOUS
10
5.08841
20
-4.56263
11
5.08836
21
-4.56258
0
LINE
8
BLACK
6
CONTINUOUS
10
5.08836
20
-4.56258
11
5.08686
21
-4.55958
0
LINE
8
BLACK
6
CONTINUOUS
10
5.08686
20
-4.55958
11
5.08657
21
-4.5586
0
LINE
8
BLACK
6
CONTINUOUS
10
5.08657
20
-4.5586
11
5.08661
21
-4.55843
0
LINE
8
BLACK
6
CONTINUOUS
10
5.08661
20
-4.55843
11
5.08655
21
-4.55826
0
LINE
8
BLACK
6
CONTINUOUS
10
5.08655
20
-4.55826
11
5.08655
21
-4.55526
0
LINE
8
BLACK
6
CONTINUOUS
10
5.08655
20
-4.55526
11
5.08673
21
-4.55425
0
LINE
8
BLACK
6
CONTINUOUS
10
5.08673
20
-4.55425
11
5.08684
21
-4.55412
0
LINE
8
BLACK
6
CONTINUOUS
10
5.08684
20
-4.55412
11
5.08686
21
-4.55394
0
LINE
8
BLACK
6
CONTINUOUS
10
5.08686
20
-4.55394
11
5.08836
21
-4.55094
0
LINE
8
BLACK
6
CONTINUOUS
10
5.08836
20
-4.55094
11
5.08889
21
-4.55024
0
LINE
8
BLACK
6
CONTINUOUS
10
5.08889
20
-4.55024
11
5.08892
21
-4.55018
0
LINE
8
BLACK
6
CONTINUOUS
10
5.08892
20
-4.55018
11
5.09042
21
-4.54868
0
LINE
8
BLACK
6
CONTINUOUS
10
5.09042
20
-4.54868
11
5.09114
21
-4.54817
0
LINE
8
BLACK
6
CONTINUOUS
10
5.09114
20
-4.54817
11
5.09118
21
-4.54812
0
LINE
8
BLACK
6
CONTINUOUS
10
5.09118
20
-4.54812
11
5.09418
21
-4.54662
0
LINE
8
BLACK
6
CONTINUOUS
10
5.09418
20
-4.54662
11
5.09467
21
-4.54648
0
LINE
8
BLACK
6
CONTINUOUS
10
5.09467
20
-4.54648
11
5.09479
21
-4.5464
0
LINE
8
BLACK
6
CONTINUOUS
10
5.09479
20
-4.5464
11
5.10047
21
-4.54498
0
LINE
8
BLACK
6
CONTINUOUS
10
5.10047
20
-4.54498
11
5.10275
21
-4.54384
0
LINE
8
BLACK
6
CONTINUOUS
10
5.10275
20
-4.54384
11
5.10358
21
-4.54302
0
LINE
8
BLACK
6
CONTINUOUS
10
5.10358
20
-4.54302
11
5.10455
21
-4.54107
0
LINE
8
BLACK
6
CONTINUOUS
10
5.10455
20
-4.54107
11
5.10455
21
-4.53946
0
LINE
8
BLACK
6
CONTINUOUS
10
5.10455
20
-4.53946
11
5.10358
21
-4.53752
0
LINE
8
BLACK
6
CONTINUOUS
10
5.10358
20
-4.53752
11
5.10275
21
-4.53669
0
LINE
8
BLACK
6
CONTINUOUS
10
5.10275
20
-4.53669
11
5.10081
21
-4.53572
0
LINE
8
BLACK
6
CONTINUOUS
10
5.10081
20
-4.53572
11
5.09448
21
-4.53572
0
LINE
8
BLACK
6
CONTINUOUS
10
5.09448
20
-4.53572
11
5.09044
21
-4.53707
0
LINE
8
BLACK
6
CONTINUOUS
10
5.09044
20
-4.53707
11
5.08942
21
-4.53722
0
LINE
8
BLACK
6
CONTINUOUS
10
5.08942
20
-4.53722
11
5.08755
21
-4.53648
0
LINE
8
BLACK
6
CONTINUOUS
10
5.08755
20
-4.53648
11
5.08658
21
-4.5347
0
LINE
8
BLACK
6
CONTINUOUS
10
5.08658
20
-4.5347
11
5.08699
21
-4.53272
0
LINE
8
BLACK
6
CONTINUOUS
10
5.08699
20
-4.53272
11
5.08857
21
-4.53147
0
LINE
8
BLACK
6
CONTINUOUS
10
5.08857
20
-4.53147
11
5.09307
21
-4.52997
0
LINE
8
BLACK
6
CONTINUOUS
10
5.09307
20
-4.52997
11
5.09394
21
-4.52984
0
LINE
8
BLACK
6
CONTINUOUS
10
5.09394
20
-4.52984
11
5.094
21
-4.52981
0
LINE
8
BLACK
6
CONTINUOUS
10
5.094
20
-4.52981
11
5.1015
21
-4.52981
0
LINE
8
BLACK
6
CONTINUOUS
10
5.1015
20
-4.52981
11
5.10251
21
-4.52999
0
LINE
8
BLACK
6
CONTINUOUS
10
5.16237
20
-4.52997
11
5.16243
21
-4.52997
0
LINE
8
BLACK
6
CONTINUOUS
10
5.16243
20
-4.52997
11
5.16693
21
-4.53147
0
LINE
8
BLACK
6
CONTINUOUS
10
5.16693
20
-4.53147
11
5.16783
21
-4.53195
0
LINE
8
BLACK
6
CONTINUOUS
10
5.16783
20
-4.53195
11
5.16792
21
-4.5321
0
LINE
8
BLACK
6
CONTINUOUS
10
5.16792
20
-4.5321
11
5.16808
21
-4.53218
0
LINE
8
BLACK
6
CONTINUOUS
10
5.16808
20
-4.53218
11
5.17108
21
-4.53518
0
LINE
8
BLACK
6
CONTINUOUS
10
5.17108
20
-4.53518
11
5.17159
21
-4.5359
0
LINE
8
BLACK
6
CONTINUOUS
10
5.17159
20
-4.5359
11
5.17164
21
-4.53595
0
LINE
8
BLACK
6
CONTINUOUS
10
5.17164
20
-4.53595
11
5.17314
21
-4.53895
0
LINE
8
BLACK
6
CONTINUOUS
10
5.17314
20
-4.53895
11
5.17328
21
-4.53943
0
LINE
8
BLACK
6
CONTINUOUS
10
5.17328
20
-4.53943
11
5.17336
21
-4.53955
0
LINE
8
BLACK
6
CONTINUOUS
10
5.17336
20
-4.53955
11
5.17486
21
-4.54555
0
LINE
8
BLACK
6
CONTINUOUS
10
5.17486
20
-4.54555
11
5.1749
21
-4.54614
0
LINE
8
BLACK
6
CONTINUOUS
10
5.1749
20
-4.54614
11
5.17495
21
-4.54627
0
LINE
8
BLACK
6
CONTINUOUS
10
5.17495
20
-4.54627
11
5.17495
21
-4.55077
0
LINE
8
BLACK
6
CONTINUOUS
10
5.17495
20
-4.55077
11
5.17485
21
-4.55135
0
LINE
8
BLACK
6
CONTINUOUS
10
5.17485
20
-4.55135
11
5.17486
21
-4.55148
0
LINE
8
BLACK
6
CONTINUOUS
10
5.17486
20
-4.55148
11
5.17336
21
-4.55748
0
LINE
8
BLACK
6
CONTINUOUS
10
5.17336
20
-4.55748
11
5.17315
21
-4.55795
0
LINE
8
BLACK
6
CONTINUOUS
10
5.17315
20
-4.55795
11
5.17314
21
-4.55809
0
LINE
8
BLACK
6
CONTINUOUS
10
5.17314
20
-4.55809
11
5.17164
21
-4.56108
0
LINE
8
BLACK
6
CONTINUOUS
10
5.17164
20
-4.56108
11
5.17111
21
-4.56179
0
LINE
8
BLACK
6
CONTINUOUS
10
5.17111
20
-4.56179
11
5.17108
21
-4.56185
0
LINE
8
BLACK
6
CONTINUOUS
10
5.17108
20
-4.56185
11
5.16808
21
-4.56485
0
LINE
8
BLACK
6
CONTINUOUS
10
5.16808
20
-4.56485
11
5.16724
21
-4.56544
0
LINE
8
BLACK
6
CONTINUOUS
10
5.16724
20
-4.56544
11
5.16707
21
-4.56546
0
LINE
8
BLACK
6
CONTINUOUS
10
5.16707
20
-4.56546
11
5.16693
21
-4.56557
0
LINE
8
BLACK
6
CONTINUOUS
10
5.16693
20
-4.56557
11
5.16243
21
-4.56706
0
LINE
8
BLACK
6
CONTINUOUS
10
5.16243
20
-4.56706
11
5.16156
21
-4.56719
0
LINE
8
BLACK
6
CONTINUOUS
10
5.16156
20
-4.56719
11
5.1615
21
-4.56722
0
LINE
8
BLACK
6
CONTINUOUS
10
5.1615
20
-4.56722
11
5.1585
21
-4.56722
0
LINE
8
BLACK
6
CONTINUOUS
10
5.1585
20
-4.56722
11
5.15763
21
-4.56706
0
LINE
8
BLACK
6
CONTINUOUS
10
5.15763
20
-4.56706
11
5.15756
21
-4.56706
0
LINE
8
BLACK
6
CONTINUOUS
10
5.15756
20
-4.56706
11
5.15306
21
-4.56557
0
LINE
8
BLACK
6
CONTINUOUS
10
5.15306
20
-4.56557
11
5.15216
21
-4.56508
0
LINE
8
BLACK
6
CONTINUOUS
10
5.15216
20
-4.56508
11
5.15207
21
-4.56493
0
LINE
8
BLACK
6
CONTINUOUS
10
5.15207
20
-4.56493
11
5.15191
21
-4.56485
0
LINE
8
BLACK
6
CONTINUOUS
10
5.15191
20
-4.56485
11
5.15041
21
-4.56335
0
LINE
8
BLACK
6
CONTINUOUS
10
5.15041
20
-4.56335
11
5.14982
21
-4.56251
0
LINE
8
BLACK
6
CONTINUOUS
10
5.14982
20
-4.56251
11
5.14964
21
-4.5605
0
LINE
8
BLACK
6
CONTINUOUS
10
5.14964
20
-4.5605
11
5.1508
21
-4.55885
0
LINE
8
BLACK
6
CONTINUOUS
10
5.1508
20
-4.55885
11
5.15275
21
-4.55832
0
LINE
8
BLACK
6
CONTINUOUS
10
5.15275
20
-4.55832
11
5.15459
21
-4.55918
0
LINE
8
BLACK
6
CONTINUOUS
10
5.15459
20
-4.55918
11
5.15559
21
-4.56018
0
LINE
8
BLACK
6
CONTINUOUS
10
5.15559
20
-4.56018
11
5.15898
21
-4.56131
0
LINE
8
BLACK
6
CONTINUOUS
10
5.15898
20
-4.56131
11
5.16102
21
-4.56131
0
LINE
8
BLACK
6
CONTINUOUS
10
5.16102
20
-4.56131
11
5.1644
21
-4.56018
0
LINE
8
BLACK
6
CONTINUOUS
10
5.1644
20
-4.56018
11
5.16657
21
-4.55802
0
LINE
8
BLACK
6
CONTINUOUS
10
5.16657
20
-4.55802
11
5.16771
21
-4.55573
0
LINE
8
BLACK
6
CONTINUOUS
10
5.16771
20
-4.55573
11
5.16904
21
-4.5504
0
LINE
8
BLACK
6
CONTINUOUS
10
5.16904
20
-4.5504
11
5.16904
21
-4.54663
0
LINE
8
BLACK
6
CONTINUOUS
10
5.16904
20
-4.54663
11
5.16771
21
-4.5413
0
LINE
8
BLACK
6
CONTINUOUS
10
5.16771
20
-4.5413
11
5.16657
21
-4.53902
0
LINE
8
BLACK
6
CONTINUOUS
10
5.16657
20
-4.53902
11
5.1644
21
-4.53685
0
LINE
8
BLACK
6
CONTINUOUS
10
5.1644
20
-4.53685
11
5.16102
21
-4.53572
0
LINE
8
BLACK
6
CONTINUOUS
10
5.16102
20
-4.53572
11
5.15898
21
-4.53572
0
LINE
8
BLACK
6
CONTINUOUS
10
5.15898
20
-4.53572
11
5.15559
21
-4.53685
0
LINE
8
BLACK
6
CONTINUOUS
10
5.15559
20
-4.53685
11
5.15458
21
-4.53786
0
LINE
8
BLACK
6
CONTINUOUS
10
5.15458
20
-4.53786
11
5.15374
21
-4.53844
0
LINE
8
BLACK
6
CONTINUOUS
10
5.15374
20
-4.53844
11
5.15173
21
-4.53862
0
LINE
8
BLACK
6
CONTINUOUS
10
5.15173
20
-4.53862
11
5.15008
21
-4.53746
0
LINE
8
BLACK
6
CONTINUOUS
10
5.15008
20
-4.53746
11
5.14956
21
-4.53551
0
LINE
8
BLACK
6
CONTINUOUS
10
5.14956
20
-4.53551
11
5.15041
21
-4.53368
0
LINE
8
BLACK
6
CONTINUOUS
10
5.15041
20
-4.53368
11
5.15191
21
-4.53218
0
LINE
8
BLACK
6
CONTINUOUS
10
5.15191
20
-4.53218
11
5.15275
21
-4.53159
0
LINE
8
BLACK
6
CONTINUOUS
10
5.15275
20
-4.53159
11
5.15292
21
-4.53158
0
LINE
8
BLACK
6
CONTINUOUS
10
5.15292
20
-4.53158
11
5.15306
21
-4.53147
0
LINE
8
BLACK
6
CONTINUOUS
10
5.15306
20
-4.53147
11
5.15756
21
-4.52997
0
LINE
8
BLACK
6
CONTINUOUS
10
5.15756
20
-4.52997
11
5.15844
21
-4.52984
0
LINE
8
BLACK
6
CONTINUOUS
10
5.15844
20
-4.52984
11
5.1585
21
-4.52981
0
LINE
8
BLACK
6
CONTINUOUS
10
5.1585
20
-4.52981
11
5.1615
21
-4.52981
0
LINE
8
BLACK
6
CONTINUOUS
10
5.1615
20
-4.52981
11
5.16237
21
-4.52997
0
LINE
8
BLACK
6
CONTINUOUS
10
5.1985
20
-4.52999
11
5.19864
21
-4.53011
0
LINE
8
BLACK
6
CONTINUOUS
10
5.19864
20
-4.53011
11
5.19881
21
-4.53013
0
LINE
8
BLACK
6
CONTINUOUS
10
5.19881
20
-4.53013
11
5.20181
21
-4.53163
0
LINE
8
BLACK
6
CONTINUOUS
10
5.20181
20
-4.53163
11
5.20252
21
-4.53215
0
LINE
8
BLACK
6
CONTINUOUS
10
5.20252
20
-4.53215
11
5.20258
21
-4.53218
0
LINE
8
BLACK
6
CONTINUOUS
10
5.20258
20
-4.53218
11
5.20408
21
-4.53368
0
LINE
8
BLACK
6
CONTINUOUS
10
5.20408
20
-4.53368
11
5.20467
21
-4.53452
0
LINE
8
BLACK
6
CONTINUOUS
10
5.20467
20
-4.53452
11
5.20484
21
-4.53653
0
LINE
8
BLACK
6
CONTINUOUS
10
5.20484
20
-4.53653
11
5.20368
21
-4.53819
0
LINE
8
BLACK
6
CONTINUOUS
10
5.20368
20
-4.53819
11
5.20173
21
-4.53871
0
LINE
8
BLACK
6
CONTINUOUS
10
5.20173
20
-4.53871
11
5.1999
21
-4.53786
0
LINE
8
BLACK
6
CONTINUOUS
10
5.1999
20
-4.53786
11
5.19874
21
-4.53669
0
LINE
8
BLACK
6
CONTINUOUS
10
5.19874
20
-4.53669
11
5.19679
21
-4.53572
0
LINE
8
BLACK
6
CONTINUOUS
10
5.19679
20
-4.53572
11
5.19069
21
-4.53572
0
LINE
8
BLACK
6
CONTINUOUS
10
5.19069
20
-4.53572
11
5.18874
21
-4.53669
0
LINE
8
BLACK
6
CONTINUOUS
10
5.18874
20
-4.53669
11
5.18792
21
-4.53752
0
LINE
8
BLACK
6
CONTINUOUS
10
5.18792
20
-4.53752
11
5.18695
21
-4.53946
0
LINE
8
BLACK
6
CONTINUOUS
10
5.18695
20
-4.53946
11
5.18695
21
-4.54129
0
LINE
8
BLACK
6
CONTINUOUS
10
5.18695
20
-4.54129
11
5.18807
21
-4.54467
0
LINE
8
BLACK
6
CONTINUOUS
10
5.18807
20
-4.54467
11
5.20558
21
-4.56218
0
LINE
8
BLACK
6
CONTINUOUS
10
5.20558
20
-4.56218
11
5.20595
21
-4.5627
0
LINE
8
BLACK
6
CONTINUOUS
10
5.20595
20
-4.5627
11
5.20605
21
-4.56279
0
LINE
8
BLACK
6
CONTINUOUS
10
5.20605
20
-4.56279
11
5.20606
21
-4.56287
0
LINE
8
BLACK
6
CONTINUOUS
10
5.20606
20
-4.56287
11
5.20617
21
-4.56302
0
LINE
8
BLACK
6
CONTINUOUS
10
5.20617
20
-4.56302
11
5.20624
21
-4.5639
0
LINE
8
BLACK
6
CONTINUOUS
10
5.20624
20
-4.5639
11
5.2064
21
-4.56478
0
LINE
8
BLACK
6
CONTINUOUS
10
5.2064
20
-4.56478
11
5.20633
21
-4.56489
0
LINE
8
BLACK
6
CONTINUOUS
10
5.20633
20
-4.56489
11
5.20634
21
-4.56503
0
LINE
8
BLACK
6
CONTINUOUS
10
5.20634
20
-4.56503
11
5.20583
21
-4.56576
0
LINE
8
BLACK
6
CONTINUOUS
10
5.20583
20
-4.56576
11
5.20539
21
-4.56653
0
LINE
8
BLACK
6
CONTINUOUS
10
5.20539
20
-4.56653
11
5.20526
21
-4.56657
0
LINE
8
BLACK
6
CONTINUOUS
10
5.20526
20
-4.56657
11
5.20518
21
-4.56668
0
LINE
8
BLACK
6
CONTINUOUS
10
5.20518
20
-4.56668
11
5.20433
21
-4.56691
0
LINE
8
BLACK
6
CONTINUOUS
10
5.20433
20
-4.56691
11
5.20349
21
-4.56722
0
LINE
8
BLACK
6
CONTINUOUS
10
5.20349
20
-4.56722
11
5.18399
21
-4.56722
0
LINE
8
BLACK
6
CONTINUOUS
10
5.18399
20
-4.56722
11
5.18298
21
-4.56704
0
LINE
8
BLACK
6
CONTINUOUS
10
5.18298
20
-4.56704
11
5.18144
21
-4.56574
0
LINE
8
BLACK
6
CONTINUOUS
10
5.18144
20
-4.56574
11
5.18109
21
-4.56375
0
LINE
8
BLACK
6
CONTINUOUS
10
5.18109
20
-4.56375
11
5.1821
21
-4.562
0
LINE
8
BLACK
6
CONTINUOUS
10
5.1821
20
-4.562
11
5.18399
21
-4.56131
0
LINE
8
BLACK
6
CONTINUOUS
10
5.18399
20
-4.56131
11
5.19636
21
-4.56131
0
LINE
8
BLACK
6
CONTINUOUS
10
5.19636
20
-4.56131
11
5.18341
21
-4.54835
0
LINE
8
BLACK
6
CONTINUOUS
10
5.18341
20
-4.54835
11
5.18282
21
-4.54751
0
LINE
8
BLACK
6
CONTINUOUS
10
5.18282
20
-4.54751
11
5.1828
21
-4.54734
0
LINE
8
BLACK
6
CONTINUOUS
10
5.1828
20
-4.54734
11
5.18269
21
-4.5472
0
LINE
8
BLACK
6
CONTINUOUS
10
5.18269
20
-4.5472
11
5.18119
21
-4.5427
0
LINE
8
BLACK
6
CONTINUOUS
10
5.18119
20
-4.5427
11
5.18106
21
-4.54183
0
LINE
8
BLACK
6
CONTINUOUS
10
5.18106
20
-4.54183
11
5.18104
21
-4.54177
0
LINE
8
BLACK
6
CONTINUOUS
10
5.18104
20
-4.54177
11
5.18104
21
-4.53877
0
LINE
8
BLACK
6
CONTINUOUS
10
5.18104
20
-4.53877
11
5.18122
21
-4.53776
0
LINE
8
BLACK
6
CONTINUOUS
10
5.18122
20
-4.53776
11
5.18133
21
-4.53762
0
LINE
8
BLACK
6
CONTINUOUS
10
5.18133
20
-4.53762
11
5.18135
21
-4.53745
0
LINE
8
BLACK
6
CONTINUOUS
10
5.18135
20
-4.53745
11
5.18285
21
-4.53445
0
LINE
8
BLACK
6
CONTINUOUS
10
5.18285
20
-4.53445
11
5.18338
21
-4.53374
0
LINE
8
BLACK
6
CONTINUOUS
10
5.18338
20
-4.53374
11
5.18341
21
-4.53368
0
LINE
8
BLACK
6
CONTINUOUS
10
5.18341
20
-4.53368
11
5.1849
21
-4.53218
0
LINE
8
BLACK
6
CONTINUOUS
10
5.1849
20
-4.53218
11
5.18563
21
-4.53167
0
LINE
8
BLACK
6
CONTINUOUS
10
5.18563
20
-4.53167
11
5.18567
21
-4.53163
0
LINE
8
BLACK
6
CONTINUOUS
10
5.18567
20
-4.53163
11
5.18867
21
-4.53013
0
LINE
8
BLACK
6
CONTINUOUS
10
5.18867
20
-4.53013
11
5.18965
21
-4.52983
0
LINE
8
BLACK
6
CONTINUOUS
10
5.18965
20
-4.52983
11
5.18983
21
-4.52988
0
LINE
8
BLACK
6
CONTINUOUS
10
5.18983
20
-4.52988
11
5.18999
21
-4.52981
0
LINE
8
BLACK
6
CONTINUOUS
10
5.18999
20
-4.52981
11
5.19749
21
-4.52981
0
LINE
8
BLACK
6
CONTINUOUS
10
5.19749
20
-4.52981
11
5.1985
21
-4.52999
0
LINE
8
BLACK
6
CONTINUOUS
10
5.04677
20
-4.53087
11
5.04746
21
-4.53277
0
LINE
8
BLACK
6
CONTINUOUS
10
5.04746
20
-4.53277
11
5.04746
21
-4.56426
0
LINE
8
BLACK
6
CONTINUOUS
10
5.04746
20
-4.56426
11
5.04729
21
-4.56527
0
LINE
8
BLACK
6
CONTINUOUS
10
5.04729
20
-4.56527
11
5.04599
21
-4.56682
0
LINE
8
BLACK
6
CONTINUOUS
10
5.04599
20
-4.56682
11
5.044
21
-4.56717
0
LINE
8
BLACK
6
CONTINUOUS
10
5.044
20
-4.56717
11
5.04225
21
-4.56616
0
LINE
8
BLACK
6
CONTINUOUS
10
5.04225
20
-4.56616
11
5.04156
21
-4.56426
0
LINE
8
BLACK
6
CONTINUOUS
10
5.04156
20
-4.56426
11
5.04156
21
-4.53277
0
LINE
8
BLACK
6
CONTINUOUS
10
5.04156
20
-4.53277
11
5.04174
21
-4.53176
0
LINE
8
BLACK
6
CONTINUOUS
10
5.04174
20
-4.53176
11
5.04303
21
-4.53021
0
LINE
8
BLACK
6
CONTINUOUS
10
5.04303
20
-4.53021
11
5.04502
21
-4.52986
0
LINE
8
BLACK
6
CONTINUOUS
10
5.04502
20
-4.52986
11
5.04677
21
-4.53087
0
LINE
8
BLACK
6
CONTINUOUS
10
5.07639
20
-4.52988
11
5.07652
21
-4.52986
0
LINE
8
BLACK
6
CONTINUOUS
10
5.07652
20
-4.52986
11
5.07663
21
-4.52993
0
LINE
8
BLACK
6
CONTINUOUS
10
5.07663
20
-4.52993
11
5.07702
21
-4.52999
0
LINE
8
BLACK
6
CONTINUOUS
10
5.07702
20
-4.52999
11
5.0776
21
-4.53049
0
LINE
8
BLACK
6
CONTINUOUS
10
5.0776
20
-4.53049
11
5.07827
21
-4.53087
0
LINE
8
BLACK
6
CONTINUOUS
10
5.07827
20
-4.53087
11
5.07836
21
-4.53112
0
LINE
8
BLACK
6
CONTINUOUS
10
5.07836
20
-4.53112
11
5.07856
21
-4.53129
0
LINE
8
BLACK
6
CONTINUOUS
10
5.07856
20
-4.53129
11
5.0787
21
-4.53205
0
LINE
8
BLACK
6
CONTINUOUS
10
5.0787
20
-4.53205
11
5.07896
21
-4.53277
0
LINE
8
BLACK
6
CONTINUOUS
10
5.07896
20
-4.53277
11
5.07896
21
-4.56426
0
LINE
8
BLACK
6
CONTINUOUS
10
5.07896
20
-4.56426
11
5.07878
21
-4.56527
0
LINE
8
BLACK
6
CONTINUOUS
10
5.07878
20
-4.56527
11
5.07748
21
-4.56682
0
LINE
8
BLACK
6
CONTINUOUS
10
5.07748
20
-4.56682
11
5.07549
21
-4.56717
0
LINE
8
BLACK
6
CONTINUOUS
10
5.07549
20
-4.56717
11
5.07374
21
-4.56616
0
LINE
8
BLACK
6
CONTINUOUS
10
5.07374
20
-4.56616
11
5.07305
21
-4.56426
0
LINE
8
BLACK
6
CONTINUOUS
10
5.07305
20
-4.56426
11
5.07305
21
-4.55222
0
LINE
8
BLACK
6
CONTINUOUS
10
5.07305
20
-4.55222
11
5.06401
21
-4.55222
0
LINE
8
BLACK
6
CONTINUOUS
10
5.06401
20
-4.55222
11
5.063
21
-4.55204
0
LINE
8
BLACK
6
CONTINUOUS
10
5.063
20
-4.55204
11
5.06286
21
-4.55193
0
LINE
8
BLACK
6
CONTINUOUS
10
5.06286
20
-4.55193
11
5.06269
21
-4.55191
0
LINE
8
BLACK
6
CONTINUOUS
10
5.06269
20
-4.55191
11
5.05969
21
-4.55041
0
LINE
8
BLACK
6
CONTINUOUS
10
5.05969
20
-4.55041
11
5.05898
21
-4.54988
0
LINE
8
BLACK
6
CONTINUOUS
10
5.05898
20
-4.54988
11
5.05892
21
-4.54985
0
LINE
8
BLACK
6
CONTINUOUS
10
5.05892
20
-4.54985
11
5.05742
21
-4.54835
0
LINE
8
BLACK
6
CONTINUOUS
10
5.05742
20
-4.54835
11
5.05691
21
-4.54763
0
LINE
8
BLACK
6
CONTINUOUS
10
5.05691
20
-4.54763
11
5.05687
21
-4.54759
0
LINE
8
BLACK
6
CONTINUOUS
10
5.05687
20
-4.54759
11
5.05537
21
-4.54459
0
LINE
8
BLACK
6
CONTINUOUS
10
5.05537
20
-4.54459
11
5.05508
21
-4.5436
0
LINE
8
BLACK
6
CONTINUOUS
10
5.05508
20
-4.5436
11
5.05512
21
-4.54343
0
LINE
8
BLACK
6
CONTINUOUS
10
5.05512
20
-4.54343
11
5.05506
21
-4.54327
0
LINE
8
BLACK
6
CONTINUOUS
10
5.05506
20
-4.54327
11
5.05506
21
-4.53877
0
LINE
8
BLACK
6
CONTINUOUS
10
5.05506
20
-4.53877
11
5.05523
21
-4.53776
0
LINE
8
BLACK
6
CONTINUOUS
10
5.05523
20
-4.53776
11
5.05535
21
-4.53762
0
LINE
8
BLACK
6
CONTINUOUS
10
5.05535
20
-4.53762
11
5.05537
21
-4.53745
0
LINE
8
BLACK
6
CONTINUOUS
10
5.05537
20
-4.53745
11
5.05687
21
-4.53445
0
LINE
8
BLACK
6
CONTINUOUS
10
5.05687
20
-4.53445
11
5.05739
21
-4.53374
0
LINE
8
BLACK
6
CONTINUOUS
10
5.05739
20
-4.53374
11
5.05742
21
-4.53368
0
LINE
8
BLACK
6
CONTINUOUS
10
5.05742
20
-4.53368
11
5.05892
21
-4.53218
0
LINE
8
BLACK
6
CONTINUOUS
10
5.05892
20
-4.53218
11
5.05964
21
-4.53167
0
LINE
8
BLACK
6
CONTINUOUS
10
5.05964
20
-4.53167
11
5.05969
21
-4.53163
0
LINE
8
BLACK
6
CONTINUOUS
10
5.05969
20
-4.53163
11
5.06269
21
-4.53013
0
LINE
8
BLACK
6
CONTINUOUS
10
5.06269
20
-4.53013
11
5.06367
21
-4.52983
0
LINE
8
BLACK
6
CONTINUOUS
10
5.06367
20
-4.52983
11
5.06384
21
-4.52988
0
LINE
8
BLACK
6
CONTINUOUS
10
5.06384
20
-4.52988
11
5.06401
21
-4.52981
0
LINE
8
BLACK
6
CONTINUOUS
10
5.06401
20
-4.52981
11
5.07601
21
-4.52981
0
LINE
8
BLACK
6
CONTINUOUS
10
5.07601
20
-4.52981
11
5.07639
21
-4.52988
0
LINE
8
BLACK
6
CONTINUOUS
10
5.06276
20
-4.53669
11
5.06194
21
-4.53752
0
LINE
8
BLACK
6
CONTINUOUS
10
5.06194
20
-4.53752
11
5.06096
21
-4.53946
0
LINE
8
BLACK
6
CONTINUOUS
10
5.06096
20
-4.53946
11
5.06096
21
-4.54257
0
LINE
8
BLACK
6
CONTINUOUS
10
5.06096
20
-4.54257
11
5.06194
21
-4.54452
0
LINE
8
BLACK
6
CONTINUOUS
10
5.06194
20
-4.54452
11
5.06276
21
-4.54534
0
LINE
8
BLACK
6
CONTINUOUS
10
5.06276
20
-4.54534
11
5.06471
21
-4.54631
0
LINE
8
BLACK
6
CONTINUOUS
10
5.06471
20
-4.54631
11
5.07305
21
-4.54631
0
LINE
8
BLACK
6
CONTINUOUS
10
5.07305
20
-4.54631
11
5.07305
21
-4.53572
0
LINE
8
BLACK
6
CONTINUOUS
10
5.07305
20
-4.53572
11
5.06471
21
-4.53572
0
LINE
8
BLACK
6
CONTINUOUS
10
5.06471
20
-4.53572
11
5.06276
21
-4.53669
0
LINE
8
BLACK
6
CONTINUOUS
10
5.21775
20
-4.53087
11
5.21844
21
-4.53277
0
LINE
8
BLACK
6
CONTINUOUS
10
5.21844
20
-4.53277
11
5.21844
21
-4.56426
0
LINE
8
BLACK
6
CONTINUOUS
10
5.21844
20
-4.56426
11
5.21826
21
-4.56527
0
LINE
8
BLACK
6
CONTINUOUS
10
5.21826
20
-4.56527
11
5.21697
21
-4.56682
0
LINE
8
BLACK
6
CONTINUOUS
10
5.21697
20
-4.56682
11
5.21498
21
-4.56717
0
LINE
8
BLACK
6
CONTINUOUS
10
5.21498
20
-4.56717
11
5.21323
21
-4.56616
0
LINE
8
BLACK
6
CONTINUOUS
10
5.21323
20
-4.56616
11
5.21254
21
-4.56426
0
LINE
8
BLACK
6
CONTINUOUS
10
5.21254
20
-4.56426
11
5.21254
21
-4.53277
0
LINE
8
BLACK
6
CONTINUOUS
10
5.21254
20
-4.53277
11
5.21271
21
-4.53176
0
LINE
8
BLACK
6
CONTINUOUS
10
5.21271
20
-4.53176
11
5.21401
21
-4.53021
0
LINE
8
BLACK
6
CONTINUOUS
10
5.21401
20
-4.53021
11
5.216
21
-4.52986
0
LINE
8
BLACK
6
CONTINUOUS
10
5.216
20
-4.52986
11
5.21775
21
-4.53087
0
LINE
8
BLACK
6
CONTINUOUS
10
5.18034
20
-4.43199
11
5.18359
21
-4.43231
0
LINE
8
BLACK
6
CONTINUOUS
10
5.18359
20
-4.43231
11
5.18921
21
-4.43401
0
LINE
8
BLACK
6
CONTINUOUS
10
5.18921
20
-4.43401
11
5.19438
21
-4.43677
0
LINE
8
BLACK
6
CONTINUOUS
10
5.19438
20
-4.43677
11
5.19891
21
-4.4405
0
LINE
8
BLACK
6
CONTINUOUS
10
5.19891
20
-4.4405
11
5.20263
21
-4.44503
0
LINE
8
BLACK
6
CONTINUOUS
10
5.20263
20
-4.44503
11
5.2054
21
-4.4502
0
LINE
8
BLACK
6
CONTINUOUS
10
5.2054
20
-4.4502
11
5.2071
21
-4.45582
0
LINE
8
BLACK
6
CONTINUOUS
10
5.2071
20
-4.45582
11
5.20768
21
-4.46165
0
LINE
8
BLACK
6
CONTINUOUS
10
5.20768
20
-4.46165
11
5.20768
21
-4.48528
0
LINE
8
BLACK
6
CONTINUOUS
10
5.20768
20
-4.48528
11
5.2071
21
-4.49111
0
LINE
8
BLACK
6
CONTINUOUS
10
5.2071
20
-4.49111
11
5.2054
21
-4.49673
0
LINE
8
BLACK
6
CONTINUOUS
10
5.2054
20
-4.49673
11
5.20263
21
-4.5019
0
LINE
8
BLACK
6
CONTINUOUS
10
5.20263
20
-4.5019
11
5.19891
21
-4.50643
0
LINE
8
BLACK
6
CONTINUOUS
10
5.19891
20
-4.50643
11
5.19438
21
-4.51015
0
LINE
8
BLACK
6
CONTINUOUS
10
5.19438
20
-4.51015
11
5.18921
21
-4.51292
0
LINE
8
BLACK
6
CONTINUOUS
10
5.18921
20
-4.51292
11
5.18359
21
-4.51462
0
LINE
8
BLACK
6
CONTINUOUS
10
5.18359
20
-4.51462
11
5.18034
21
-4.51494
0
LINE
8
BLACK
6
CONTINUOUS
10
5.18034
20
-4.51494
11
5.17972
21
-4.5152
0
LINE
8
BLACK
6
CONTINUOUS
10
5.17972
20
-4.5152
11
5.17776
21
-4.5152
0
LINE
8
BLACK
6
CONTINUOUS
10
5.17776
20
-4.5152
11
5.07146
21
-4.5152
0
LINE
8
BLACK
6
CONTINUOUS
10
5.07146
20
-4.5152
11
5.06949
21
-4.5152
0
LINE
8
BLACK
6
CONTINUOUS
10
5.06949
20
-4.5152
11
5.06887
21
-4.51494
0
LINE
8
BLACK
6
CONTINUOUS
10
5.06887
20
-4.51494
11
5.06562
21
-4.51462
0
LINE
8
BLACK
6
CONTINUOUS
10
5.06562
20
-4.51462
11
5.06001
21
-4.51292
0
LINE
8
BLACK
6
CONTINUOUS
10
5.06001
20
-4.51292
11
5.05483
21
-4.51015
0
LINE
8
BLACK
6
CONTINUOUS
10
5.05483
20
-4.51015
11
5.0503
21
-4.50643
0
LINE
8
BLACK
6
CONTINUOUS
10
5.0503
20
-4.50643
11
5.04658
21
-4.5019
0
LINE
8
BLACK
6
CONTINUOUS
10
5.04658
20
-4.5019
11
5.04381
21
-4.49673
0
LINE
8
BLACK
6
CONTINUOUS
10
5.04381
20
-4.49673
11
5.04211
21
-4.49111
0
LINE
8
BLACK
6
CONTINUOUS
10
5.04211
20
-4.49111
11
5.04154
21
-4.48528
0
LINE
8
BLACK
6
CONTINUOUS
10
5.04154
20
-4.48528
11
5.04154
21
-4.46165
0
LINE
8
BLACK
6
CONTINUOUS
10
5.04154
20
-4.46165
11
5.04211
21
-4.45582
0
LINE
8
BLACK
6
CONTINUOUS
10
5.04211
20
-4.45582
11
5.04381
21
-4.4502
0
LINE
8
BLACK
6
CONTINUOUS
10
5.04381
20
-4.4502
11
5.04658
21
-4.44503
0
LINE
8
BLACK
6
CONTINUOUS
10
5.04658
20
-4.44503
11
5.0503
21
-4.4405
0
LINE
8
BLACK
6
CONTINUOUS
10
5.0503
20
-4.4405
11
5.05483
21
-4.43677
0
LINE
8
BLACK
6
CONTINUOUS
10
5.05483
20
-4.43677
11
5.06001
21
-4.43401
0
LINE
8
BLACK
6
CONTINUOUS
10
5.06001
20
-4.43401
11
5.06562
21
-4.43231
0
LINE
8
BLACK
6
CONTINUOUS
10
5.06562
20
-4.43231
11
5.06887
21
-4.43199
0
LINE
8
BLACK
6
CONTINUOUS
10
5.06887
20
-4.43199
11
5.06949
21
-4.43173
0
LINE
8
BLACK
6
CONTINUOUS
10
5.06949
20
-4.43173
11
5.17972
21
-4.43173
0
LINE
8
BLACK
6
CONTINUOUS
10
5.17972
20
-4.43173
11
5.18034
21
-4.43199
0
LINE
8
BLACK
6
CONTINUOUS
10
5.07146
20
-4.43646
11
5.06862
21
-4.43646
0
LINE
8
BLACK
6
CONTINUOUS
10
5.06862
20
-4.43646
11
5.06308
21
-4.43772
0
LINE
8
BLACK
6
CONTINUOUS
10
5.06308
20
-4.43772
11
5.05797
21
-4.44018
0
LINE
8
BLACK
6
CONTINUOUS
10
5.05797
20
-4.44018
11
5.05353
21
-4.44372
0
LINE
8
BLACK
6
CONTINUOUS
10
5.05353
20
-4.44372
11
5.04999
21
-4.44816
0
LINE
8
BLACK
6
CONTINUOUS
10
5.04999
20
-4.44816
11
5.04752
21
-4.45328
0
LINE
8
BLACK
6
CONTINUOUS
10
5.04752
20
-4.45328
11
5.04626
21
-4.45881
0
LINE
8
BLACK
6
CONTINUOUS
10
5.04626
20
-4.45881
11
5.04626
21
-4.46165
0
LINE
8
BLACK
6
CONTINUOUS
10
5.04626
20
-4.46165
11
5.04626
21
-4.46165
0
LINE
8
BLACK
6
CONTINUOUS
10
5.04626
20
-4.46165
11
5.04626
21
-4.48528
0
LINE
8
BLACK
6
CONTINUOUS
10
5.04626
20
-4.48528
11
5.04626
21
-4.48811
0
LINE
8
BLACK
6
CONTINUOUS
10
5.04626
20
-4.48811
11
5.04752
21
-4.49365
0
LINE
8
BLACK
6
CONTINUOUS
10
5.04752
20
-4.49365
11
5.04999
21
-4.49877
0
LINE
8
BLACK
6
CONTINUOUS
10
5.04999
20
-4.49877
11
5.05353
21
-4.50321
0
LINE
8
BLACK
6
CONTINUOUS
10
5.05353
20
-4.50321
11
5.05797
21
-4.50675
0
LINE
8
BLACK
6
CONTINUOUS
10
5.05797
20
-4.50675
11
5.06308
21
-4.50921
0
LINE
8
BLACK
6
CONTINUOUS
10
5.06308
20
-4.50921
11
5.06862
21
-4.51047
0
LINE
8
BLACK
6
CONTINUOUS
10
5.06862
20
-4.51047
11
5.06949
21
-4.51047
0
LINE
8
BLACK
6
CONTINUOUS
10
5.06949
20
-4.51047
11
5.17972
21
-4.51047
0
LINE
8
BLACK
6
CONTINUOUS
10
5.17972
20
-4.51047
11
5.18059
21
-4.51047
0
LINE
8
BLACK
6
CONTINUOUS
10
5.18059
20
-4.51047
11
5.18613
21
-4.50921
0
LINE
8
BLACK
6
CONTINUOUS
10
5.18613
20
-4.50921
11
5.19125
21
-4.50675
0
LINE
8
BLACK
6
CONTINUOUS
10
5.19125
20
-4.50675
11
5.19569
21
-4.50321
0
LINE
8
BLACK
6
CONTINUOUS
10
5.19569
20
-4.50321
11
5.19923
21
-4.49877
0
LINE
8
BLACK
6
CONTINUOUS
10
5.19923
20
-4.49877
11
5.20169
21
-4.49365
0
LINE
8
BLACK
6
CONTINUOUS
10
5.20169
20
-4.49365
11
5.20295
21
-4.48811
0
LINE
8
BLACK
6
CONTINUOUS
10
5.20295
20
-4.48811
11
5.20295
21
-4.48528
0
LINE
8
BLACK
6
CONTINUOUS
10
5.20295
20
-4.48528
11
5.20295
21
-4.46165
0
LINE
8
BLACK
6
CONTINUOUS
10
5.20295
20
-4.46165
11
5.20295
21
-4.45881
0
LINE
8
BLACK
6
CONTINUOUS
10
5.20295
20
-4.45881
11
5.20169
21
-4.45328
0
LINE
8
BLACK
6
CONTINUOUS
10
5.20169
20
-4.45328
11
5.19923
21
-4.44816
0
LINE
8
BLACK
6
CONTINUOUS
10
5.19923
20
-4.44816
11
5.19569
21
-4.44372
0
LINE
8
BLACK
6
CONTINUOUS
10
5.19569
20
-4.44372
11
5.19125
21
-4.44018
0
LINE
8
BLACK
6
CONTINUOUS
10
5.19125
20
-4.44018
11
5.18613
21
-4.43772
0
LINE
8
BLACK
6
CONTINUOUS
10
5.18613
20
-4.43772
11
5.18059
21
-4.43646
0
LINE
8
BLACK
6
CONTINUOUS
10
5.18059
20
-4.43646
11
5.17776
21
-4.43646
0
LINE
8
BLACK
6
CONTINUOUS
10
5.17776
20
-4.43646
11
5.07146
21
-4.43646
0
LINE
8
BLACK
6
CONTINUOUS
10
5.27015
20
-4.38606
11
5.27126
21
-4.38775
0
LINE
8
BLACK
6
CONTINUOUS
10
5.27126
20
-4.38775
11
5.27103
21
-4.38976
0
LINE
8
BLACK
6
CONTINUOUS
10
5.27103
20
-4.38976
11
5.26916
21
-4.39351
0
LINE
8
BLACK
6
CONTINUOUS
10
5.26916
20
-4.39351
11
5.26863
21
-4.39422
0
LINE
8
BLACK
6
CONTINUOUS
10
5.26863
20
-4.39422
11
5.2686
21
-4.39427
0
LINE
8
BLACK
6
CONTINUOUS
10
5.2686
20
-4.39427
11
5.26615
21
-4.39673
0
LINE
8
BLACK
6
CONTINUOUS
10
5.26615
20
-4.39673
11
5.29356
21
-4.39673
0
LINE
8
BLACK
6
CONTINUOUS
10
5.29356
20
-4.39673
11
5.29356
21
-4.38844
0
LINE
8
BLACK
6
CONTINUOUS
10
5.29356
20
-4.38844
11
5.29374
21
-4.38743
0
LINE
8
BLACK
6
CONTINUOUS
10
5.29374
20
-4.38743
11
5.29504
21
-4.38588
0
LINE
8
BLACK
6
CONTINUOUS
10
5.29504
20
-4.38588
11
5.29703
21
-4.38553
0
LINE
8
BLACK
6
CONTINUOUS
10
5.29703
20
-4.38553
11
5.29877
21
-4.38654
0
LINE
8
BLACK
6
CONTINUOUS
10
5.29877
20
-4.38654
11
5.29947
21
-4.38844
0
LINE
8
BLACK
6
CONTINUOUS
10
5.29947
20
-4.38844
11
5.29947
21
-4.41093
0
LINE
8
BLACK
6
CONTINUOUS
10
5.29947
20
-4.41093
11
5.29929
21
-4.41194
0
LINE
8
BLACK
6
CONTINUOUS
10
5.29929
20
-4.41194
11
5.29799
21
-4.41349
0
LINE
8
BLACK
6
CONTINUOUS
10
5.29799
20
-4.41349
11
5.296
21
-4.41384
0
LINE
8
BLACK
6
CONTINUOUS
10
5.296
20
-4.41384
11
5.29425
21
-4.41283
0
LINE
8
BLACK
6
CONTINUOUS
10
5.29425
20
-4.41283
11
5.29356
21
-4.41093
0
LINE
8
BLACK
6
CONTINUOUS
10
5.29356
20
-4.41093
11
5.29356
21
-4.40264
0
LINE
8
BLACK
6
CONTINUOUS
10
5.29356
20
-4.40264
11
5.25714
21
-4.40264
0
LINE
8
BLACK
6
CONTINUOUS
10
5.25714
20
-4.40264
11
5.25613
21
-4.40246
0
LINE
8
BLACK
6
CONTINUOUS
10
5.25613
20
-4.40246
11
5.256
21
-4.40235
0
LINE
8
BLACK
6
CONTINUOUS
10
5.256
20
-4.40235
11
5.25583
21
-4.40233
0
LINE
8
BLACK
6
CONTINUOUS
10
5.25583
20
-4.40233
11
5.25524
21
-4.40171
0
LINE
8
BLACK
6
CONTINUOUS
10
5.25524
20
-4.40171
11
5.25459
21
-4.40116
0
LINE
8
BLACK
6
CONTINUOUS
10
5.25459
20
-4.40116
11
5.25456
21
-4.40099
0
LINE
8
BLACK
6
CONTINUOUS
10
5.25456
20
-4.40099
11
5.25444
21
-4.40087
0
LINE
8
BLACK
6
CONTINUOUS
10
5.25444
20
-4.40087
11
5.25438
21
-4.40002
0
LINE
8
BLACK
6
CONTINUOUS
10
5.25438
20
-4.40002
11
5.25423
21
-4.39917
0
LINE
8
BLACK
6
CONTINUOUS
10
5.25423
20
-4.39917
11
5.25432
21
-4.39903
0
LINE
8
BLACK
6
CONTINUOUS
10
5.25432
20
-4.39903
11
5.25431
21
-4.39886
0
LINE
8
BLACK
6
CONTINUOUS
10
5.25431
20
-4.39886
11
5.25482
21
-4.39817
0
LINE
8
BLACK
6
CONTINUOUS
10
5.25482
20
-4.39817
11
5.25524
21
-4.39742
0
LINE
8
BLACK
6
CONTINUOUS
10
5.25524
20
-4.39742
11
5.2554
21
-4.39737
0
LINE
8
BLACK
6
CONTINUOUS
10
5.2554
20
-4.39737
11
5.2555
21
-4.39723
0
LINE
8
BLACK
6
CONTINUOUS
10
5.2555
20
-4.39723
11
5.26089
21
-4.39364
0
LINE
8
BLACK
6
CONTINUOUS
10
5.26089
20
-4.39364
11
5.26409
21
-4.39044
0
LINE
8
BLACK
6
CONTINUOUS
10
5.26409
20
-4.39044
11
5.26575
21
-4.38712
0
LINE
8
BLACK
6
CONTINUOUS
10
5.26575
20
-4.38712
11
5.26636
21
-4.38629
0
LINE
8
BLACK
6
CONTINUOUS
10
5.26636
20
-4.38629
11
5.26821
21
-4.38549
0
LINE
8
BLACK
6
CONTINUOUS
10
5.26821
20
-4.38549
11
5.27015
21
-4.38606
0
LINE
8
BLACK
6
CONTINUOUS
10
5.28022
20
-4.34622
11
5.28036
21
-4.3462
0
LINE
8
BLACK
6
CONTINUOUS
10
5.28036
20
-4.3462
11
5.28785
21
-4.34808
0
LINE
8
BLACK
6
CONTINUOUS
10
5.28785
20
-4.34808
11
5.28832
21
-4.34828
0
LINE
8
BLACK
6
CONTINUOUS
10
5.28832
20
-4.34828
11
5.28846
21
-4.3483
0
LINE
8
BLACK
6
CONTINUOUS
10
5.28846
20
-4.3483
11
5.29221
21
-4.35017
0
LINE
8
BLACK
6
CONTINUOUS
10
5.29221
20
-4.35017
11
5.29292
21
-4.3507
0
LINE
8
BLACK
6
CONTINUOUS
10
5.29292
20
-4.3507
11
5.29298
21
-4.35073
0
LINE
8
BLACK
6
CONTINUOUS
10
5.29298
20
-4.35073
11
5.29673
21
-4.35448
0
LINE
8
BLACK
6
CONTINUOUS
10
5.29673
20
-4.35448
11
5.29731
21
-4.35532
0
LINE
8
BLACK
6
CONTINUOUS
10
5.29731
20
-4.35532
11
5.29733
21
-4.35549
0
LINE
8
BLACK
6
CONTINUOUS
10
5.29733
20
-4.35549
11
5.29744
21
-4.35563
0
LINE
8
BLACK
6
CONTINUOUS
10
5.29744
20
-4.35563
11
5.29931
21
-4.36126
0
LINE
8
BLACK
6
CONTINUOUS
10
5.29931
20
-4.36126
11
5.29944
21
-4.36213
0
LINE
8
BLACK
6
CONTINUOUS
10
5.29944
20
-4.36213
11
5.29947
21
-4.36219
0
LINE
8
BLACK
6
CONTINUOUS
10
5.29947
20
-4.36219
11
5.29947
21
-4.36594
0
LINE
8
BLACK
6
CONTINUOUS
10
5.29947
20
-4.36594
11
5.29931
21
-4.36681
0
LINE
8
BLACK
6
CONTINUOUS
10
5.29931
20
-4.36681
11
5.29931
21
-4.36687
0
LINE
8
BLACK
6
CONTINUOUS
10
5.29931
20
-4.36687
11
5.29744
21
-4.3725
0
LINE
8
BLACK
6
CONTINUOUS
10
5.29744
20
-4.3725
11
5.29695
21
-4.3734
0
LINE
8
BLACK
6
CONTINUOUS
10
5.29695
20
-4.3734
11
5.2968
21
-4.37349
0
LINE
8
BLACK
6
CONTINUOUS
10
5.2968
20
-4.37349
11
5.29673
21
-4.37365
0
LINE
8
BLACK
6
CONTINUOUS
10
5.29673
20
-4.37365
11
5.29485
21
-4.37553
0
LINE
8
BLACK
6
CONTINUOUS
10
5.29485
20
-4.37553
11
5.29401
21
-4.37611
0
LINE
8
BLACK
6
CONTINUOUS
10
5.29401
20
-4.37611
11
5.292
21
-4.37629
0
LINE
8
BLACK
6
CONTINUOUS
10
5.292
20
-4.37629
11
5.29034
21
-4.37513
0
LINE
8
BLACK
6
CONTINUOUS
10
5.29034
20
-4.37513
11
5.28982
21
-4.37318
0
LINE
8
BLACK
6
CONTINUOUS
10
5.28982
20
-4.37318
11
5.29068
21
-4.37135
0
LINE
8
BLACK
6
CONTINUOUS
10
5.29068
20
-4.37135
11
5.29206
21
-4.36997
0
LINE
8
BLACK
6
CONTINUOUS
10
5.29206
20
-4.36997
11
5.29356
21
-4.36546
0
LINE
8
BLACK
6
CONTINUOUS
10
5.29356
20
-4.36546
11
5.29356
21
-4.36267
0
LINE
8
BLACK
6
CONTINUOUS
10
5.29356
20
-4.36267
11
5.29206
21
-4.35816
0
LINE
8
BLACK
6
CONTINUOUS
10
5.29206
20
-4.35816
11
5.28914
21
-4.35524
0
LINE
8
BLACK
6
CONTINUOUS
10
5.28914
20
-4.35524
11
5.28611
21
-4.35373
0
LINE
8
BLACK
6
CONTINUOUS
10
5.28611
20
-4.35373
11
5.27928
21
-4.35202
0
LINE
8
BLACK
6
CONTINUOUS
10
5.27928
20
-4.35202
11
5.27438
21
-4.35202
0
LINE
8
BLACK
6
CONTINUOUS
10
5.27438
20
-4.35202
11
5.26755
21
-4.35373
0
LINE
8
BLACK
6
CONTINUOUS
10
5.26755
20
-4.35373
11
5.26452
21
-4.35524
0
LINE
8
BLACK
6
CONTINUOUS
10
5.26452
20
-4.35524
11
5.2616
21
-4.35816
0
LINE
8
BLACK
6
CONTINUOUS
10
5.2616
20
-4.35816
11
5.2601
21
-4.36267
0
LINE
8
BLACK
6
CONTINUOUS
10
5.2601
20
-4.36267
11
5.2601
21
-4.36546
0
LINE
8
BLACK
6
CONTINUOUS
10
5.2601
20
-4.36546
11
5.2616
21
-4.36997
0
LINE
8
BLACK
6
CONTINUOUS
10
5.2616
20
-4.36997
11
5.26298
21
-4.37135
0
LINE
8
BLACK
6
CONTINUOUS
10
5.26298
20
-4.37135
11
5.26357
21
-4.37219
0
LINE
8
BLACK
6
CONTINUOUS
10
5.26357
20
-4.37219
11
5.26374
21
-4.3742
0
LINE
8
BLACK
6
CONTINUOUS
10
5.26374
20
-4.3742
11
5.26259
21
-4.37586
0
LINE
8
BLACK
6
CONTINUOUS
10
5.26259
20
-4.37586
11
5.26063
21
-4.37638
0
LINE
8
BLACK
6
CONTINUOUS
10
5.26063
20
-4.37638
11
5.2588
21
-4.37553
0
LINE
8
BLACK
6
CONTINUOUS
10
5.2588
20
-4.37553
11
5.25693
21
-4.37365
0
LINE
8
BLACK
6
CONTINUOUS
10
5.25693
20
-4.37365
11
5.25634
21
-4.37281
0
LINE
8
BLACK
6
CONTINUOUS
10
5.25634
20
-4.37281
11
5.25633
21
-4.37264
0
LINE
8
BLACK
6
CONTINUOUS
10
5.25633
20
-4.37264
11
5.25622
21
-4.3725
0
LINE
8
BLACK
6
CONTINUOUS
10
5.25622
20
-4.3725
11
5.25434
21
-4.36687
0
LINE
8
BLACK
6
CONTINUOUS
10
5.25434
20
-4.36687
11
5.25421
21
-4.366
0
LINE
8
BLACK
6
CONTINUOUS
10
5.25421
20
-4.366
11
5.25419
21
-4.36594
0
LINE
8
BLACK
6
CONTINUOUS
10
5.25419
20
-4.36594
11
5.25419
21
-4.36219
0
LINE
8
BLACK
6
CONTINUOUS
10
5.25419
20
-4.36219
11
5.25434
21
-4.36132
0
LINE
8
BLACK
6
CONTINUOUS
10
5.25434
20
-4.36132
11
5.25434
21
-4.36126
0
LINE
8
BLACK
6
CONTINUOUS
10
5.25434
20
-4.36126
11
5.25622
21
-4.35563
0
LINE
8
BLACK
6
CONTINUOUS
10
5.25622
20
-4.35563
11
5.2567
21
-4.35473
0
LINE
8
BLACK
6
CONTINUOUS
10
5.2567
20
-4.35473
11
5.25685
21
-4.35464
0
LINE
8
BLACK
6
CONTINUOUS
10
5.25685
20
-4.35464
11
5.25693
21
-4.35448
0
LINE
8
BLACK
6
CONTINUOUS
10
5.25693
20
-4.35448
11
5.26068
21
-4.35073
0
LINE
8
BLACK
6
CONTINUOUS
10
5.26068
20
-4.35073
11
5.2614
21
-4.35022
0
LINE
8
BLACK
6
CONTINUOUS
10
5.2614
20
-4.35022
11
5.26145
21
-4.35017
0
LINE
8
BLACK
6
CONTINUOUS
10
5.26145
20
-4.35017
11
5.2652
21
-4.3483
0
LINE
8
BLACK
6
CONTINUOUS
10
5.2652
20
-4.3483
11
5.26568
21
-4.34815
0
LINE
8
BLACK
6
CONTINUOUS
10
5.26568
20
-4.34815
11
5.2658
21
-4.34808
0
LINE
8
BLACK
6
CONTINUOUS
10
5.2658
20
-4.34808
11
5.2733
21
-4.3462
0
LINE
8
BLACK
6
CONTINUOUS
10
5.2733
20
-4.3462
11
5.27389
21
-4.34616
0
LINE
8
BLACK
6
CONTINUOUS
10
5.27389
20
-4.34616
11
5.27402
21
-4.34611
0
LINE
8
BLACK
6
CONTINUOUS
10
5.27402
20
-4.34611
11
5.27964
21
-4.34611
0
LINE
8
BLACK
6
CONTINUOUS
10
5.27964
20
-4.34611
11
5.28022
21
-4.34622
0
LINE
8
BLACK
6
CONTINUOUS
10
5.01531
20
-4.30039
11
5.016
21
-4.30206
0
LINE
8
BLACK
6
CONTINUOUS
10
5.016
20
-4.30206
11
5.016
21
-4.31939
0
LINE
8
BLACK
6
CONTINUOUS
10
5.016
20
-4.31939
11
5.03332
21
-4.31939
0
LINE
8
BLACK
6
CONTINUOUS
10
5.03332
20
-4.31939
11
5.03499
21
-4.32008
0
LINE
8
BLACK
6
CONTINUOUS
10
5.03499
20
-4.32008
11
5.03569
21
-4.32175
0
LINE
8
BLACK
6
CONTINUOUS
10
5.03569
20
-4.32175
11
5.03499
21
-4.32342
0
LINE
8
BLACK
6
CONTINUOUS
10
5.03499
20
-4.32342
11
5.03332
21
-4.32411
0
LINE
8
BLACK
6
CONTINUOUS
10
5.03332
20
-4.32411
11
5.01364
21
-4.32411
0
LINE
8
BLACK
6
CONTINUOUS
10
5.01364
20
-4.32411
11
5.01197
21
-4.32342
0
LINE
8
BLACK
6
CONTINUOUS
10
5.01197
20
-4.32342
11
5.01128
21
-4.32175
0
LINE
8
BLACK
6
CONTINUOUS
10
5.01128
20
-4.32175
11
5.01128
21
-4.30206
0
LINE
8
BLACK
6
CONTINUOUS
10
5.01128
20
-4.30206
11
5.01197
21
-4.30039
0
LINE
8
BLACK
6
CONTINUOUS
10
5.01197
20
-4.30039
11
5.01364
21
-4.2997
0
LINE
8
BLACK
6
CONTINUOUS
10
5.01364
20
-4.2997
11
5.01531
21
-4.30039
0
LINE
8
BLACK
6
CONTINUOUS
10
5.22003
20
-4.27874
11
5.22072
21
-4.28041
0
LINE
8
BLACK
6
CONTINUOUS
10
5.22072
20
-4.28041
11
5.22072
21
-4.31781
0
LINE
8
BLACK
6
CONTINUOUS
10
5.22072
20
-4.31781
11
5.22003
21
-4.31948
0
LINE
8
BLACK
6
CONTINUOUS
10
5.22003
20
-4.31948
11
5.21836
21
-4.32017
0
LINE
8
BLACK
6
CONTINUOUS
10
5.21836
20
-4.32017
11
5.21669
21
-4.31948
0
LINE
8
BLACK
6
CONTINUOUS
10
5.21669
20
-4.31948
11
5.216
21
-4.31781
0
LINE
8
BLACK
6
CONTINUOUS
10
5.216
20
-4.31781
11
5.216
21
-4.28041
0
LINE
8
BLACK
6
CONTINUOUS
10
5.216
20
-4.28041
11
5.21669
21
-4.27874
0
LINE
8
BLACK
6
CONTINUOUS
10
5.21669
20
-4.27874
11
5.21836
21
-4.27805
0
LINE
8
BLACK
6
CONTINUOUS
10
5.21836
20
-4.27805
11
5.22003
21
-4.27874
0
LINE
8
BLACK
6
CONTINUOUS
10
5.60057
20
-4.22896
11
5.60126
21
-4.23063
0
LINE
8
BLACK
6
CONTINUOUS
10
5.60126
20
-4.23063
11
5.60057
21
-4.2323
0
LINE
8
BLACK
6
CONTINUOUS
10
5.60057
20
-4.2323
11
5.5989
21
-4.23299
0
LINE
8
BLACK
6
CONTINUOUS
10
5.5989
20
-4.23299
11
5.43197
21
-4.23299
0
LINE
8
BLACK
6
CONTINUOUS
10
5.43197
20
-4.23299
11
5.43197
21
-4.30701
0
LINE
8
BLACK
6
CONTINUOUS
10
5.43197
20
-4.30701
11
5.5989
21
-4.30701
0
LINE
8
BLACK
6
CONTINUOUS
10
5.5989
20
-4.30701
11
5.60057
21
-4.3077
0
LINE
8
BLACK
6
CONTINUOUS
10
5.60057
20
-4.3077
11
5.60126
21
-4.30937
0
LINE
8
BLACK
6
CONTINUOUS
10
5.60126
20
-4.30937
11
5.60057
21
-4.31104
0
LINE
8
BLACK
6
CONTINUOUS
10
5.60057
20
-4.31104
11
5.5989
21
-4.31173
0
LINE
8
BLACK
6
CONTINUOUS
10
5.5989
20
-4.31173
11
5.42961
21
-4.31173
0
LINE
8
BLACK
6
CONTINUOUS
10
5.42961
20
-4.31173
11
5.42794
21
-4.31104
0
LINE
8
BLACK
6
CONTINUOUS
10
5.42794
20
-4.31104
11
5.42724
21
-4.30937
0
LINE
8
BLACK
6
CONTINUOUS
10
5.42724
20
-4.30937
11
5.42724
21
-4.23063
0
LINE
8
BLACK
6
CONTINUOUS
10
5.42724
20
-4.23063
11
5.42794
21
-4.22896
0
LINE
8
BLACK
6
CONTINUOUS
10
5.42794
20
-4.22896
11
5.42961
21
-4.22827
0
LINE
8
BLACK
6
CONTINUOUS
10
5.42961
20
-4.22827
11
5.5989
21
-4.22827
0
LINE
8
BLACK
6
CONTINUOUS
10
5.5989
20
-4.22827
11
5.60057
21
-4.22896
0
LINE
8
BLACK
6
CONTINUOUS
10
4.97154
20
-4.26379
11
4.97266
21
-4.26548
0
LINE
8
BLACK
6
CONTINUOUS
10
4.97266
20
-4.26548
11
4.97243
21
-4.26748
0
LINE
8
BLACK
6
CONTINUOUS
10
4.97243
20
-4.26748
11
4.97055
21
-4.27123
0
LINE
8
BLACK
6
CONTINUOUS
10
4.97055
20
-4.27123
11
4.97003
21
-4.27194
0
LINE
8
BLACK
6
CONTINUOUS
10
4.97003
20
-4.27194
11
4.97
21
-4.272
0
LINE
8
BLACK
6
CONTINUOUS
10
4.97
20
-4.272
11
4.96754
21
-4.27446
0
LINE
8
BLACK
6
CONTINUOUS
10
4.96754
20
-4.27446
11
4.99495
21
-4.27446
0
LINE
8
BLACK
6
CONTINUOUS
10
4.99495
20
-4.27446
11
4.99495
21
-4.26616
0
LINE
8
BLACK
6
CONTINUOUS
10
4.99495
20
-4.26616
11
4.99513
21
-4.26515
0
LINE
8
BLACK
6
CONTINUOUS
10
4.99513
20
-4.26515
11
4.99643
21
-4.2636
0
LINE
8
BLACK
6
CONTINUOUS
10
4.99643
20
-4.2636
11
4.99842
21
-4.26325
0
LINE
8
BLACK
6
CONTINUOUS
10
4.99842
20
-4.26325
11
5.00017
21
-4.26426
0
LINE
8
BLACK
6
CONTINUOUS
10
5.00017
20
-4.26426
11
5.00086
21
-4.26616
0
LINE
8
BLACK
6
CONTINUOUS
10
5.00086
20
-4.26616
11
5.00086
21
-4.28866
0
LINE
8
BLACK
6
CONTINUOUS
10
5.00086
20
-4.28866
11
5.00068
21
-4.28967
0
LINE
8
BLACK
6
CONTINUOUS
10
5.00068
20
-4.28967
11
4.99938
21
-4.29122
0
LINE
8
BLACK
6
CONTINUOUS
10
4.99938
20
-4.29122
11
4.99739
21
-4.29157
0
LINE
8
BLACK
6
CONTINUOUS
10
4.99739
20
-4.29157
11
4.99564
21
-4.29056
0
LINE
8
BLACK
6
CONTINUOUS
10
4.99564
20
-4.29056
11
4.99495
21
-4.28866
0
LINE
8
BLACK
6
CONTINUOUS
10
4.99495
20
-4.28866
11
4.99495
21
-4.28036
0
LINE
8
BLACK
6
CONTINUOUS
10
4.99495
20
-4.28036
11
4.95854
21
-4.28036
0
LINE
8
BLACK
6
CONTINUOUS
10
4.95854
20
-4.28036
11
4.95753
21
-4.28018
0
LINE
8
BLACK
6
CONTINUOUS
10
4.95753
20
-4.28018
11
4.9574
21
-4.28008
0
LINE
8
BLACK
6
CONTINUOUS
10
4.9574
20
-4.28008
11
4.95723
21
-4.28006
0
LINE
8
BLACK
6
CONTINUOUS
10
4.95723
20
-4.28006
11
4.95664
21
-4.27944
0
LINE
8
BLACK
6
CONTINUOUS
10
4.95664
20
-4.27944
11
4.95598
21
-4.27889
0
LINE
8
BLACK
6
CONTINUOUS
10
4.95598
20
-4.27889
11
4.95595
21
-4.27872
0
LINE
8
BLACK
6
CONTINUOUS
10
4.95595
20
-4.27872
11
4.95583
21
-4.2786
0
LINE
8
BLACK
6
CONTINUOUS
10
4.95583
20
-4.2786
11
4.95578
21
-4.27774
0
LINE
8
BLACK
6
CONTINUOUS
10
4.95578
20
-4.27774
11
4.95563
21
-4.2769
0
LINE
8
BLACK
6
CONTINUOUS
10
4.95563
20
-4.2769
11
4.95571
21
-4.27675
0
LINE
8
BLACK
6
CONTINUOUS
10
4.95571
20
-4.27675
11
4.9557
21
-4.27658
0
LINE
8
BLACK
6
CONTINUOUS
10
4.9557
20
-4.27658
11
4.95621
21
-4.27589
0
LINE
8
BLACK
6
CONTINUOUS
10
4.95621
20
-4.27589
11
4.95664
21
-4.27515
0
LINE
8
BLACK
6
CONTINUOUS
10
4.95664
20
-4.27515
11
4.9568
21
-4.27509
0
LINE
8
BLACK
6
CONTINUOUS
10
4.9568
20
-4.27509
11
4.9569
21
-4.27495
0
LINE
8
BLACK
6
CONTINUOUS
10
4.9569
20
-4.27495
11
4.96228
21
-4.27137
0
LINE
8
BLACK
6
CONTINUOUS
10
4.96228
20
-4.27137
11
4.96548
21
-4.26816
0
LINE
8
BLACK
6
CONTINUOUS
10
4.96548
20
-4.26816
11
4.96714
21
-4.26484
0
LINE
8
BLACK
6
CONTINUOUS
10
4.96714
20
-4.26484
11
4.96775
21
-4.26402
0
LINE
8
BLACK
6
CONTINUOUS
10
4.96775
20
-4.26402
11
4.96961
21
-4.26321
0
LINE
8
BLACK
6
CONTINUOUS
10
4.96961
20
-4.26321
11
4.97154
21
-4.26379
0
LINE
8
BLACK
6
CONTINUOUS
10
5.25134
20
-4.26411
11
5.25203
21
-4.26578
0
LINE
8
BLACK
6
CONTINUOUS
10
5.25203
20
-4.26578
11
5.25203
21
-4.28635
0
LINE
8
BLACK
6
CONTINUOUS
10
5.25203
20
-4.28635
11
5.25134
21
-4.28802
0
LINE
8
BLACK
6
CONTINUOUS
10
5.25134
20
-4.28802
11
5.24967
21
-4.28871
0
LINE
8
BLACK
6
CONTINUOUS
10
5.24967
20
-4.28871
11
5.248
21
-4.28802
0
LINE
8
BLACK
6
CONTINUOUS
10
5.248
20
-4.28802
11
5.24731
21
-4.28635
0
LINE
8
BLACK
6
CONTINUOUS
10
5.24731
20
-4.28635
11
5.24731
21
-4.26578
0
LINE
8
BLACK
6
CONTINUOUS
10
5.24731
20
-4.26578
11
5.248
21
-4.26411
0
LINE
8
BLACK
6
CONTINUOUS
10
5.248
20
-4.26411
11
5.24967
21
-4.26342
0
LINE
8
BLACK
6
CONTINUOUS
10
5.24967
20
-4.26342
11
5.25134
21
-4.26411
0
LINE
8
BLACK
6
CONTINUOUS
10
5.30921
20
-4.26411
11
5.30991
21
-4.26578
0
LINE
8
BLACK
6
CONTINUOUS
10
5.30991
20
-4.26578
11
5.30991
21
-4.28635
0
LINE
8
BLACK
6
CONTINUOUS
10
5.30991
20
-4.28635
11
5.30921
21
-4.28802
0
LINE
8
BLACK
6
CONTINUOUS
10
5.30921
20
-4.28802
11
5.30754
21
-4.28871
0
LINE
8
BLACK
6
CONTINUOUS
10
5.30754
20
-4.28871
11
5.30587
21
-4.28802
0
LINE
8
BLACK
6
CONTINUOUS
10
5.30587
20
-4.28802
11
5.30518
21
-4.28635
0
LINE
8
BLACK
6
CONTINUOUS
10
5.30518
20
-4.28635
11
5.30518
21
-4.26578
0
LINE
8
BLACK
6
CONTINUOUS
10
5.30518
20
-4.26578
11
5.30587
21
-4.26411
0
LINE
8
BLACK
6
CONTINUOUS
10
5.30587
20
-4.26411
11
5.30754
21
-4.26342
0
LINE
8
BLACK
6
CONTINUOUS
10
5.30754
20
-4.26342
11
5.30921
21
-4.26411
0
LINE
8
BLACK
6
CONTINUOUS
10
5.34134
20
-4.26411
11
5.34203
21
-4.26578
0
LINE
8
BLACK
6
CONTINUOUS
10
5.34203
20
-4.26578
11
5.34203
21
-4.28635
0
LINE
8
BLACK
6
CONTINUOUS
10
5.34203
20
-4.28635
11
5.34134
21
-4.28802
0
LINE
8
BLACK
6
CONTINUOUS
10
5.34134
20
-4.28802
11
5.33967
21
-4.28871
0
LINE
8
BLACK
6
CONTINUOUS
10
5.33967
20
-4.28871
11
5.338
21
-4.28802
0
LINE
8
BLACK
6
CONTINUOUS
10
5.338
20
-4.28802
11
5.33731
21
-4.28635
0
LINE
8
BLACK
6
CONTINUOUS
10
5.33731
20
-4.28635
11
5.33731
21
-4.26578
0
LINE
8
BLACK
6
CONTINUOUS
10
5.33731
20
-4.26578
11
5.338
21
-4.26411
0
LINE
8
BLACK
6
CONTINUOUS
10
5.338
20
-4.26411
11
5.33967
21
-4.26342
0
LINE
8
BLACK
6
CONTINUOUS
10
5.33967
20
-4.26342
11
5.34134
21
-4.26411
0
LINE
8
BLACK
6
CONTINUOUS
10
5.39921
20
-4.26411
11
5.39991
21
-4.26578
0
LINE
8
BLACK
6
CONTINUOUS
10
5.39991
20
-4.26578
11
5.39991
21
-4.28635
0
LINE
8
BLACK
6
CONTINUOUS
10
5.39991
20
-4.28635
11
5.39921
21
-4.28802
0
LINE
8
BLACK
6
CONTINUOUS
10
5.39921
20
-4.28802
11
5.39754
21
-4.28871
0
LINE
8
BLACK
6
CONTINUOUS
10
5.39754
20
-4.28871
11
5.39587
21
-4.28802
0
LINE
8
BLACK
6
CONTINUOUS
10
5.39587
20
-4.28802
11
5.39518
21
-4.28635
0
LINE
8
BLACK
6
CONTINUOUS
10
5.39518
20
-4.28635
11
5.39518
21
-4.26578
0
LINE
8
BLACK
6
CONTINUOUS
10
5.39518
20
-4.26578
11
5.39587
21
-4.26411
0
LINE
8
BLACK
6
CONTINUOUS
10
5.39587
20
-4.26411
11
5.39754
21
-4.26342
0
LINE
8
BLACK
6
CONTINUOUS
10
5.39754
20
-4.26342
11
5.39921
21
-4.26411
0
LINE
8
BLACK
6
CONTINUOUS
10
4.99142
20
-4.22402
11
4.99155
21
-4.22413
0
LINE
8
BLACK
6
CONTINUOUS
10
4.99155
20
-4.22413
11
4.99173
21
-4.22415
0
LINE
8
BLACK
6
CONTINUOUS
10
4.99173
20
-4.22415
11
4.99548
21
-4.22602
0
LINE
8
BLACK
6
CONTINUOUS
10
4.99548
20
-4.22602
11
4.99619
21
-4.22655
0
LINE
8
BLACK
6
CONTINUOUS
10
4.99619
20
-4.22655
11
4.99624
21
-4.22658
0
LINE
8
BLACK
6
CONTINUOUS
10
4.99624
20
-4.22658
11
4.99812
21
-4.22845
0
LINE
8
BLACK
6
CONTINUOUS
10
4.99812
20
-4.22845
11
4.99863
21
-4.22918
0
LINE
8
BLACK
6
CONTINUOUS
10
4.99863
20
-4.22918
11
4.99867
21
-4.22922
0
LINE
8
BLACK
6
CONTINUOUS
10
4.99867
20
-4.22922
11
5.00055
21
-4.23297
0
LINE
8
BLACK
6
CONTINUOUS
10
5.00055
20
-4.23297
11
5.00084
21
-4.23395
0
LINE
8
BLACK
6
CONTINUOUS
10
5.00084
20
-4.23395
11
5.0008
21
-4.23412
0
LINE
8
BLACK
6
CONTINUOUS
10
5.0008
20
-4.23412
11
5.00086
21
-4.23429
0
LINE
8
BLACK
6
CONTINUOUS
10
5.00086
20
-4.23429
11
5.00086
21
-4.24179
0
LINE
8
BLACK
6
CONTINUOUS
10
5.00086
20
-4.24179
11
5.00068
21
-4.2428
0
LINE
8
BLACK
6
CONTINUOUS
10
5.00068
20
-4.2428
11
5.00057
21
-4.24293
0
LINE
8
BLACK
6
CONTINUOUS
10
5.00057
20
-4.24293
11
5.00055
21
-4.24311
0
LINE
8
BLACK
6
CONTINUOUS
10
5.00055
20
-4.24311
11
4.99867
21
-4.24686
0
LINE
8
BLACK
6
CONTINUOUS
10
4.99867
20
-4.24686
11
4.99815
21
-4.24757
0
LINE
8
BLACK
6
CONTINUOUS
10
4.99815
20
-4.24757
11
4.99812
21
-4.24763
0
LINE
8
BLACK
6
CONTINUOUS
10
4.99812
20
-4.24763
11
4.99624
21
-4.2495
0
LINE
8
BLACK
6
CONTINUOUS
10
4.99624
20
-4.2495
11
4.99552
21
-4.25001
0
LINE
8
BLACK
6
CONTINUOUS
10
4.99552
20
-4.25001
11
4.99548
21
-4.25005
0
LINE
8
BLACK
6
CONTINUOUS
10
4.99548
20
-4.25005
11
4.99173
21
-4.25193
0
LINE
8
BLACK
6
CONTINUOUS
10
4.99173
20
-4.25193
11
4.99074
21
-4.25222
0
LINE
8
BLACK
6
CONTINUOUS
10
4.99074
20
-4.25222
11
4.99057
21
-4.25218
0
LINE
8
BLACK
6
CONTINUOUS
10
4.99057
20
-4.25218
11
4.99041
21
-4.25224
0
LINE
8
BLACK
6
CONTINUOUS
10
4.99041
20
-4.25224
11
4.95854
21
-4.25224
0
LINE
8
BLACK
6
CONTINUOUS
10
4.95854
20
-4.25224
11
4.95753
21
-4.25206
0
LINE
8
BLACK
6
CONTINUOUS
10
4.95753
20
-4.25206
11
4.95598
21
-4.25076
0
LINE
8
BLACK
6
CONTINUOUS
10
4.95598
20
-4.25076
11
4.95563
21
-4.24878
0
LINE
8
BLACK
6
CONTINUOUS
10
4.95563
20
-4.24878
11
4.95664
21
-4.24703
0
LINE
8
BLACK
6
CONTINUOUS
10
4.95664
20
-4.24703
11
4.95854
21
-4.24634
0
LINE
8
BLACK
6
CONTINUOUS
10
4.95854
20
-4.24634
11
4.98971
21
-4.24634
0
LINE
8
BLACK
6
CONTINUOUS
10
4.98971
20
-4.24634
11
4.99241
21
-4.24499
0
LINE
8
BLACK
6
CONTINUOUS
10
4.99241
20
-4.24499
11
4.9936
21
-4.24379
0
LINE
8
BLACK
6
CONTINUOUS
10
4.9936
20
-4.24379
11
4.99495
21
-4.24109
0
LINE
8
BLACK
6
CONTINUOUS
10
4.99495
20
-4.24109
11
4.99495
21
-4.23499
0
LINE
8
BLACK
6
CONTINUOUS
10
4.99495
20
-4.23499
11
4.9936
21
-4.23229
0
LINE
8
BLACK
6
CONTINUOUS
10
4.9936
20
-4.23229
11
4.99241
21
-4.23109
0
LINE
8
BLACK
6
CONTINUOUS
10
4.99241
20
-4.23109
11
4.98971
21
-4.22974
0
LINE
8
BLACK
6
CONTINUOUS
10
4.98971
20
-4.22974
11
4.95854
21
-4.22974
0
LINE
8
BLACK
6
CONTINUOUS
10
4.95854
20
-4.22974
11
4.95753
21
-4.22957
0
LINE
8
BLACK
6
CONTINUOUS
10
4.95753
20
-4.22957
11
4.95598
21
-4.22827
0
LINE
8
BLACK
6
CONTINUOUS
10
4.95598
20
-4.22827
11
4.95563
21
-4.22628
0
LINE
8
BLACK
6
CONTINUOUS
10
4.95563
20
-4.22628
11
4.95664
21
-4.22453
0
LINE
8
BLACK
6
CONTINUOUS
10
4.95664
20
-4.22453
11
4.95854
21
-4.22384
0
LINE
8
BLACK
6
CONTINUOUS
10
4.95854
20
-4.22384
11
4.99041
21
-4.22384
0
LINE
8
BLACK
6
CONTINUOUS
10
4.99041
20
-4.22384
11
4.99142
21
-4.22402
0
LINE
8
BLACK
6
CONTINUOUS
10
5.51097
20
-4.17571
11
5.51114
21
-4.1757
0
LINE
8
BLACK
6
CONTINUOUS
10
5.51114
20
-4.1757
11
5.51183
21
-4.17621
0
LINE
8
BLACK
6
CONTINUOUS
10
5.51183
20
-4.17621
11
5.51258
21
-4.17664
0
LINE
8
BLACK
6
CONTINUOUS
10
5.51258
20
-4.17664
11
5.51263
21
-4.1768
0
LINE
8
BLACK
6
CONTINUOUS
10
5.51263
20
-4.1768
11
5.51277
21
-4.1769
0
LINE
8
BLACK
6
CONTINUOUS
10
5.51277
20
-4.1769
11
5.51636
21
-4.18228
0
LINE
8
BLACK
6
CONTINUOUS
10
5.51636
20
-4.18228
11
5.51956
21
-4.18548
0
LINE
8
BLACK
6
CONTINUOUS
10
5.51956
20
-4.18548
11
5.52288
21
-4.18714
0
LINE
8
BLACK
6
CONTINUOUS
10
5.52288
20
-4.18714
11
5.52371
21
-4.18775
0
LINE
8
BLACK
6
CONTINUOUS
10
5.52371
20
-4.18775
11
5.52451
21
-4.18961
0
LINE
8
BLACK
6
CONTINUOUS
10
5.52451
20
-4.18961
11
5.52394
21
-4.19154
0
LINE
8
BLACK
6
CONTINUOUS
10
5.52394
20
-4.19154
11
5.52225
21
-4.19266
0
LINE
8
BLACK
6
CONTINUOUS
10
5.52225
20
-4.19266
11
5.52024
21
-4.19243
0
LINE
8
BLACK
6
CONTINUOUS
10
5.52024
20
-4.19243
11
5.51649
21
-4.19055
0
LINE
8
BLACK
6
CONTINUOUS
10
5.51649
20
-4.19055
11
5.51578
21
-4.19003
0
LINE
8
BLACK
6
CONTINUOUS
10
5.51578
20
-4.19003
11
5.51573
21
-4.19
0
LINE
8
BLACK
6
CONTINUOUS
10
5.51573
20
-4.19
11
5.51327
21
-4.18754
0
LINE
8
BLACK
6
CONTINUOUS
10
5.51327
20
-4.18754
11
5.51327
21
-4.21495
0
LINE
8
BLACK
6
CONTINUOUS
10
5.51327
20
-4.21495
11
5.52156
21
-4.21495
0
LINE
8
BLACK
6
CONTINUOUS
10
5.52156
20
-4.21495
11
5.52257
21
-4.21513
0
LINE
8
BLACK
6
CONTINUOUS
10
5.52257
20
-4.21513
11
5.52412
21
-4.21643
0
LINE
8
BLACK
6
CONTINUOUS
10
5.52412
20
-4.21643
11
5.52447
21
-4.21842
0
LINE
8
BLACK
6
CONTINUOUS
10
5.52447
20
-4.21842
11
5.52346
21
-4.22017
0
LINE
8
BLACK
6
CONTINUOUS
10
5.52346
20
-4.22017
11
5.52156
21
-4.22086
0
LINE
8
BLACK
6
CONTINUOUS
10
5.52156
20
-4.22086
11
5.49907
21
-4.22086
0
LINE
8
BLACK
6
CONTINUOUS
10
5.49907
20
-4.22086
11
5.49806
21
-4.22068
0
LINE
8
BLACK
6
CONTINUOUS
10
5.49806
20
-4.22068
11
5.49651
21
-4.21938
0
LINE
8
BLACK
6
CONTINUOUS
10
5.49651
20
-4.21938
11
5.49616
21
-4.21739
0
LINE
8
BLACK
6
CONTINUOUS
10
5.49616
20
-4.21739
11
5.49717
21
-4.21564
0
LINE
8
BLACK
6
CONTINUOUS
10
5.49717
20
-4.21564
11
5.49907
21
-4.21495
0
LINE
8
BLACK
6
CONTINUOUS
10
5.49907
20
-4.21495
11
5.50736
21
-4.21495
0
LINE
8
BLACK
6
CONTINUOUS
10
5.50736
20
-4.21495
11
5.50736
21
-4.17854
0
LINE
8
BLACK
6
CONTINUOUS
10
5.50736
20
-4.17854
11
5.50754
21
-4.17753
0
LINE
8
BLACK
6
CONTINUOUS
10
5.50754
20
-4.17753
11
5.50765
21
-4.1774
0
LINE
8
BLACK
6
CONTINUOUS
10
5.50765
20
-4.1774
11
5.50767
21
-4.17723
0
LINE
8
BLACK
6
CONTINUOUS
10
5.50767
20
-4.17723
11
5.50829
21
-4.17664
0
LINE
8
BLACK
6
CONTINUOUS
10
5.50829
20
-4.17664
11
5.50884
21
-4.17598
0
LINE
8
BLACK
6
CONTINUOUS
10
5.50884
20
-4.17598
11
5.50901
21
-4.17595
0
LINE
8
BLACK
6
CONTINUOUS
10
5.50901
20
-4.17595
11
5.50913
21
-4.17583
0
LINE
8
BLACK
6
CONTINUOUS
10
5.50913
20
-4.17583
11
5.50998
21
-4.17578
0
LINE
8
BLACK
6
CONTINUOUS
10
5.50998
20
-4.17578
11
5.51083
21
-4.17563
0
LINE
8
BLACK
6
CONTINUOUS
10
5.51083
20
-4.17563
11
5.51097
21
-4.17571
0
LINE
8
BLACK
6
CONTINUOUS
10
5.55944
20
-4.17565
11
5.55957
21
-4.17563
0
LINE
8
BLACK
6
CONTINUOUS
10
5.55957
20
-4.17563
11
5.55969
21
-4.17569
0
LINE
8
BLACK
6
CONTINUOUS
10
5.55969
20
-4.17569
11
5.56007
21
-4.17576
0
LINE
8
BLACK
6
CONTINUOUS
10
5.56007
20
-4.17576
11
5.56066
21
-4.17625
0
LINE
8
BLACK
6
CONTINUOUS
10
5.56066
20
-4.17625
11
5.56132
21
-4.17664
0
LINE
8
BLACK
6
CONTINUOUS
10
5.56132
20
-4.17664
11
5.56141
21
-4.17689
0
LINE
8
BLACK
6
CONTINUOUS
10
5.56141
20
-4.17689
11
5.56162
21
-4.17706
0
LINE
8
BLACK
6
CONTINUOUS
10
5.56162
20
-4.17706
11
5.56175
21
-4.17782
0
LINE
8
BLACK
6
CONTINUOUS
10
5.56175
20
-4.17782
11
5.56201
21
-4.17854
0
LINE
8
BLACK
6
CONTINUOUS
10
5.56201
20
-4.17854
11
5.56201
21
-4.21791
0
LINE
8
BLACK
6
CONTINUOUS
10
5.56201
20
-4.21791
11
5.56194
21
-4.21829
0
LINE
8
BLACK
6
CONTINUOUS
10
5.56194
20
-4.21829
11
5.56197
21
-4.21842
0
LINE
8
BLACK
6
CONTINUOUS
10
5.56197
20
-4.21842
11
5.5619
21
-4.21853
0
LINE
8
BLACK
6
CONTINUOUS
10
5.5619
20
-4.21853
11
5.56183
21
-4.21892
0
LINE
8
BLACK
6
CONTINUOUS
10
5.56183
20
-4.21892
11
5.56134
21
-4.2195
0
LINE
8
BLACK
6
CONTINUOUS
10
5.56134
20
-4.2195
11
5.56096
21
-4.22017
0
LINE
8
BLACK
6
CONTINUOUS
10
5.56096
20
-4.22017
11
5.56071
21
-4.22026
0
LINE
8
BLACK
6
CONTINUOUS
10
5.56071
20
-4.22026
11
5.56054
21
-4.22046
0
LINE
8
BLACK
6
CONTINUOUS
10
5.56054
20
-4.22046
11
5.55978
21
-4.2206
0
LINE
8
BLACK
6
CONTINUOUS
10
5.55978
20
-4.2206
11
5.55906
21
-4.22086
0
LINE
8
BLACK
6
CONTINUOUS
10
5.55906
20
-4.22086
11
5.54969
21
-4.22086
0
LINE
8
BLACK
6
CONTINUOUS
10
5.54969
20
-4.22086
11
5.54882
21
-4.22071
0
LINE
8
BLACK
6
CONTINUOUS
10
5.54882
20
-4.22071
11
5.54875
21
-4.22071
0
LINE
8
BLACK
6
CONTINUOUS
10
5.54875
20
-4.22071
11
5.54313
21
-4.21883
0
LINE
8
BLACK
6
CONTINUOUS
10
5.54313
20
-4.21883
11
5.54223
21
-4.21834
0
LINE
8
BLACK
6
CONTINUOUS
10
5.54223
20
-4.21834
11
5.54213
21
-4.21819
0
LINE
8
BLACK
6
CONTINUOUS
10
5.54213
20
-4.21819
11
5.54197
21
-4.21812
0
LINE
8
BLACK
6
CONTINUOUS
10
5.54197
20
-4.21812
11
5.53822
21
-4.21437
0
LINE
8
BLACK
6
CONTINUOUS
10
5.53822
20
-4.21437
11
5.53772
21
-4.21365
0
LINE
8
BLACK
6
CONTINUOUS
10
5.53772
20
-4.21365
11
5.53767
21
-4.2136
0
LINE
8
BLACK
6
CONTINUOUS
10
5.53767
20
-4.2136
11
5.5358
21
-4.20985
0
LINE
8
BLACK
6
CONTINUOUS
10
5.5358
20
-4.20985
11
5.53565
21
-4.20936
0
LINE
8
BLACK
6
CONTINUOUS
10
5.53565
20
-4.20936
11
5.53557
21
-4.20925
0
LINE
8
BLACK
6
CONTINUOUS
10
5.53557
20
-4.20925
11
5.5337
21
-4.20175
0
LINE
8
BLACK
6
CONTINUOUS
10
5.5337
20
-4.20175
11
5.53366
21
-4.20116
0
LINE
8
BLACK
6
CONTINUOUS
10
5.53366
20
-4.20116
11
5.53361
21
-4.20103
0
LINE
8
BLACK
6
CONTINUOUS
10
5.53361
20
-4.20103
11
5.53361
21
-4.19541
0
LINE
8
BLACK
6
CONTINUOUS
10
5.53361
20
-4.19541
11
5.53371
21
-4.19483
0
LINE
8
BLACK
6
CONTINUOUS
10
5.53371
20
-4.19483
11
5.5337
21
-4.19469
0
LINE
8
BLACK
6
CONTINUOUS
10
5.5337
20
-4.19469
11
5.53557
21
-4.18719
0
LINE
8
BLACK
6
CONTINUOUS
10
5.53557
20
-4.18719
11
5.53578
21
-4.18673
0
LINE
8
BLACK
6
CONTINUOUS
10
5.53578
20
-4.18673
11
5.5358
21
-4.18659
0
LINE
8
BLACK
6
CONTINUOUS
10
5.5358
20
-4.18659
11
5.53767
21
-4.18284
0
LINE
8
BLACK
6
CONTINUOUS
10
5.53767
20
-4.18284
11
5.5382
21
-4.18213
0
LINE
8
BLACK
6
CONTINUOUS
10
5.5382
20
-4.18213
11
5.53822
21
-4.18207
0
LINE
8
BLACK
6
CONTINUOUS
10
5.53822
20
-4.18207
11
5.54197
21
-4.17832
0
LINE
8
BLACK
6
CONTINUOUS
10
5.54197
20
-4.17832
11
5.54281
21
-4.17773
0
LINE
8
BLACK
6
CONTINUOUS
10
5.54281
20
-4.17773
11
5.54299
21
-4.17772
0
LINE
8
BLACK
6
CONTINUOUS
10
5.54299
20
-4.17772
11
5.54313
21
-4.17761
0
LINE
8
BLACK
6
CONTINUOUS
10
5.54313
20
-4.17761
11
5.54875
21
-4.17573
0
LINE
8
BLACK
6
CONTINUOUS
10
5.54875
20
-4.17573
11
5.54962
21
-4.17561
0
LINE
8
BLACK
6
CONTINUOUS
10
5.54962
20
-4.17561
11
5.54969
21
-4.17558
0
LINE
8
BLACK
6
CONTINUOUS
10
5.54969
20
-4.17558
11
5.55906
21
-4.17558
0
LINE
8
BLACK
6
CONTINUOUS
10
5.55906
20
-4.17558
11
5.55944
21
-4.17565
0
LINE
8
BLACK
6
CONTINUOUS
10
5.54566
20
-4.18299
11
5.54274
21
-4.18591
0
LINE
8
BLACK
6
CONTINUOUS
10
5.54274
20
-4.18591
11
5.54122
21
-4.18894
0
LINE
8
BLACK
6
CONTINUOUS
10
5.54122
20
-4.18894
11
5.53951
21
-4.19577
0
LINE
8
BLACK
6
CONTINUOUS
10
5.53951
20
-4.19577
11
5.53951
21
-4.20067
0
LINE
8
BLACK
6
CONTINUOUS
10
5.53951
20
-4.20067
11
5.54122
21
-4.2075
0
LINE
8
BLACK
6
CONTINUOUS
10
5.54122
20
-4.2075
11
5.54274
21
-4.21053
0
LINE
8
BLACK
6
CONTINUOUS
10
5.54274
20
-4.21053
11
5.54566
21
-4.21345
0
LINE
8
BLACK
6
CONTINUOUS
10
5.54566
20
-4.21345
11
5.55016
21
-4.21495
0
LINE
8
BLACK
6
CONTINUOUS
10
5.55016
20
-4.21495
11
5.55611
21
-4.21495
0
LINE
8
BLACK
6
CONTINUOUS
10
5.55611
20
-4.21495
11
5.55611
21
-4.18149
0
LINE
8
BLACK
6
CONTINUOUS
10
5.55611
20
-4.18149
11
5.55016
21
-4.18149
0
LINE
8
BLACK
6
CONTINUOUS
10
5.55016
20
-4.18149
11
5.54566
21
-4.18299
0
LINE
8
BLACK
6
CONTINUOUS
10
5.03499
20
-4.19016
11
5.03569
21
-4.19183
0
LINE
8
BLACK
6
CONTINUOUS
10
5.03569
20
-4.19183
11
5.03499
21
-4.1935
0
LINE
8
BLACK
6
CONTINUOUS
10
5.03499
20
-4.1935
11
5.03332
21
-4.19419
0
LINE
8
BLACK
6
CONTINUOUS
10
5.03332
20
-4.19419
11
5.016
21
-4.19419
0
LINE
8
BLACK
6
CONTINUOUS
10
5.016
20
-4.19419
11
5.016
21
-4.21151
0
LINE
8
BLACK
6
CONTINUOUS
10
5.016
20
-4.21151
11
5.01531
21
-4.21318
0
LINE
8
BLACK
6
CONTINUOUS
10
5.01531
20
-4.21318
11
5.01364
21
-4.21387
0
LINE
8
BLACK
6
CONTINUOUS
10
5.01364
20
-4.21387
11
5.01197
21
-4.21318
0
LINE
8
BLACK
6
CONTINUOUS
10
5.01197
20
-4.21318
11
5.01128
21
-4.21151
0
LINE
8
BLACK
6
CONTINUOUS
10
5.01128
20
-4.21151
11
5.01128
21
-4.19183
0
LINE
8
BLACK
6
CONTINUOUS
10
5.01128
20
-4.19183
11
5.01197
21
-4.19016
0
LINE
8
BLACK
6
CONTINUOUS
10
5.01197
20
-4.19016
11
5.01364
21
-4.18946
0
LINE
8
BLACK
6
CONTINUOUS
10
5.01364
20
-4.18946
11
5.03332
21
-4.18946
0
LINE
8
BLACK
6
CONTINUOUS
10
5.03332
20
-4.18946
11
5.03499
21
-4.19016
0
LINE
8
BLACK
6
CONTINUOUS
10
5.21836
20
-4.18946
11
5.22003
21
-4.19016
0
LINE
8
BLACK
6
CONTINUOUS
10
5.22003
20
-4.19016
11
5.22072
21
-4.19183
0
LINE
8
BLACK
6
CONTINUOUS
10
5.22072
20
-4.19183
11
5.22072
21
-4.21151
0
LINE
8
BLACK
6
CONTINUOUS
10
5.22072
20
-4.21151
11
5.22003
21
-4.21318
0
LINE
8
BLACK
6
CONTINUOUS
10
5.22003
20
-4.21318
11
5.21836
21
-4.21387
0
LINE
8
BLACK
6
CONTINUOUS
10
5.21836
20
-4.21387
11
5.21669
21
-4.21318
0
LINE
8
BLACK
6
CONTINUOUS
10
5.21669
20
-4.21318
11
5.216
21
-4.21151
0
LINE
8
BLACK
6
CONTINUOUS
10
5.216
20
-4.21151
11
5.216
21
-4.19419
0
LINE
8
BLACK
6
CONTINUOUS
10
5.216
20
-4.19419
11
5.19868
21
-4.19419
0
LINE
8
BLACK
6
CONTINUOUS
10
5.19868
20
-4.19419
11
5.19701
21
-4.1935
0
LINE
8
BLACK
6
CONTINUOUS
10
5.19701
20
-4.1935
11
5.19631
21
-4.19183
0
LINE
8
BLACK
6
CONTINUOUS
10
5.19631
20
-4.19183
11
5.19701
21
-4.19016
0
LINE
8
BLACK
6
CONTINUOUS
10
5.19701
20
-4.19016
11
5.19868
21
-4.18946
0
LINE
8
BLACK
6
CONTINUOUS
10
5.19868
20
-4.18946
11
5.21836
21
-4.18946
0
LINE
8
BLACK
6
CONTINUOUS
10
5.35695
20
-4.16576
11
5.35708
21
-4.16587
0
LINE
8
BLACK
6
CONTINUOUS
10
5.35708
20
-4.16587
11
5.35726
21
-4.1659
0
LINE
8
BLACK
6
CONTINUOUS
10
5.35726
20
-4.1659
11
5.36101
21
-4.16777
0
LINE
8
BLACK
6
CONTINUOUS
10
5.36101
20
-4.16777
11
5.36172
21
-4.1683
0
LINE
8
BLACK
6
CONTINUOUS
10
5.36172
20
-4.1683
11
5.36178
21
-4.16832
0
LINE
8
BLACK
6
CONTINUOUS
10
5.36178
20
-4.16832
11
5.36365
21
-4.1702
0
LINE
8
BLACK
6
CONTINUOUS
10
5.36365
20
-4.1702
11
5.36424
21
-4.17104
0
LINE
8
BLACK
6
CONTINUOUS
10
5.36424
20
-4.17104
11
5.36442
21
-4.17305
0
LINE
8
BLACK
6
CONTINUOUS
10
5.36442
20
-4.17305
11
5.36326
21
-4.1747
0
LINE
8
BLACK
6
CONTINUOUS
10
5.36326
20
-4.1747
11
5.36131
21
-4.17523
0
LINE
8
BLACK
6
CONTINUOUS
10
5.36131
20
-4.17523
11
5.35948
21
-4.17437
0
LINE
8
BLACK
6
CONTINUOUS
10
5.35948
20
-4.17437
11
5.35794
21
-4.17284
0
LINE
8
BLACK
6
CONTINUOUS
10
5.35794
20
-4.17284
11
5.35524
21
-4.17149
0
LINE
8
BLACK
6
CONTINUOUS
10
5.35524
20
-4.17149
11
5.34726
21
-4.17149
0
LINE
8
BLACK
6
CONTINUOUS
10
5.34726
20
-4.17149
11
5.34456
21
-4.17284
0
LINE
8
BLACK
6
CONTINUOUS
10
5.34456
20
-4.17284
11
5.34337
21
-4.17403
0
LINE
8
BLACK
6
CONTINUOUS
10
5.34337
20
-4.17403
11
5.34202
21
-4.17673
0
LINE
8
BLACK
6
CONTINUOUS
10
5.34202
20
-4.17673
11
5.34202
21
-4.17931
0
LINE
8
BLACK
6
CONTINUOUS
10
5.34202
20
-4.17931
11
5.34352
21
-4.18381
0
LINE
8
BLACK
6
CONTINUOUS
10
5.34352
20
-4.18381
11
5.36553
21
-4.20582
0
LINE
8
BLACK
6
CONTINUOUS
10
5.36553
20
-4.20582
11
5.3659
21
-4.20635
0
LINE
8
BLACK
6
CONTINUOUS
10
5.3659
20
-4.20635
11
5.366
21
-4.20643
0
LINE
8
BLACK
6
CONTINUOUS
10
5.366
20
-4.20643
11
5.36601
21
-4.20651
0
LINE
8
BLACK
6
CONTINUOUS
10
5.36601
20
-4.20651
11
5.36611
21
-4.20666
0
LINE
8
BLACK
6
CONTINUOUS
10
5.36611
20
-4.20666
11
5.36619
21
-4.20754
0
LINE
8
BLACK
6
CONTINUOUS
10
5.36619
20
-4.20754
11
5.36635
21
-4.20842
0
LINE
8
BLACK
6
CONTINUOUS
10
5.36635
20
-4.20842
11
5.36628
21
-4.20854
0
LINE
8
BLACK
6
CONTINUOUS
10
5.36628
20
-4.20854
11
5.36629
21
-4.20867
0
LINE
8
BLACK
6
CONTINUOUS
10
5.36629
20
-4.20867
11
5.36578
21
-4.2094
0
LINE
8
BLACK
6
CONTINUOUS
10
5.36578
20
-4.2094
11
5.36534
21
-4.21017
0
LINE
8
BLACK
6
CONTINUOUS
10
5.36534
20
-4.21017
11
5.36521
21
-4.21021
0
LINE
8
BLACK
6
CONTINUOUS
10
5.36521
20
-4.21021
11
5.36513
21
-4.21033
0
LINE
8
BLACK
6
CONTINUOUS
10
5.36513
20
-4.21033
11
5.36427
21
-4.21056
0
LINE
8
BLACK
6
CONTINUOUS
10
5.36427
20
-4.21056
11
5.36344
21
-4.21086
0
LINE
8
BLACK
6
CONTINUOUS
10
5.36344
20
-4.21086
11
5.33907
21
-4.21086
0
LINE
8
BLACK
6
CONTINUOUS
10
5.33907
20
-4.21086
11
5.33806
21
-4.21068
0
LINE
8
BLACK
6
CONTINUOUS
10
5.33806
20
-4.21068
11
5.33651
21
-4.20938
0
LINE
8
BLACK
6
CONTINUOUS
10
5.33651
20
-4.20938
11
5.33616
21
-4.20739
0
LINE
8
BLACK
6
CONTINUOUS
10
5.33616
20
-4.20739
11
5.33717
21
-4.20564
0
LINE
8
BLACK
6
CONTINUOUS
10
5.33717
20
-4.20564
11
5.33907
21
-4.20495
0
LINE
8
BLACK
6
CONTINUOUS
10
5.33907
20
-4.20495
11
5.35631
21
-4.20495
0
LINE
8
BLACK
6
CONTINUOUS
10
5.35631
20
-4.20495
11
5.33885
21
-4.1875
0
LINE
8
BLACK
6
CONTINUOUS
10
5.33885
20
-4.1875
11
5.33826
21
-4.18666
0
LINE
8
BLACK
6
CONTINUOUS
10
5.33826
20
-4.18666
11
5.33825
21
-4.18648
0
LINE
8
BLACK
6
CONTINUOUS
10
5.33825
20
-4.18648
11
5.33814
21
-4.18634
0
LINE
8
BLACK
6
CONTINUOUS
10
5.33814
20
-4.18634
11
5.33627
21
-4.18072
0
LINE
8
BLACK
6
CONTINUOUS
10
5.33627
20
-4.18072
11
5.33614
21
-4.17985
0
LINE
8
BLACK
6
CONTINUOUS
10
5.33614
20
-4.17985
11
5.33611
21
-4.17978
0
LINE
8
BLACK
6
CONTINUOUS
10
5.33611
20
-4.17978
11
5.33611
21
-4.17604
0
LINE
8
BLACK
6
CONTINUOUS
10
5.33611
20
-4.17604
11
5.33629
21
-4.17503
0
LINE
8
BLACK
6
CONTINUOUS
10
5.33629
20
-4.17503
11
5.33641
21
-4.17489
0
LINE
8
BLACK
6
CONTINUOUS
10
5.33641
20
-4.17489
11
5.33643
21
-4.17471
0
LINE
8
BLACK
6
CONTINUOUS
10
5.33643
20
-4.17471
11
5.3383
21
-4.17097
0
LINE
8
BLACK
6
CONTINUOUS
10
5.3383
20
-4.17097
11
5.33883
21
-4.17026
0
LINE
8
BLACK
6
CONTINUOUS
10
5.33883
20
-4.17026
11
5.33885
21
-4.1702
0
LINE
8
BLACK
6
CONTINUOUS
10
5.33885
20
-4.1702
11
5.34073
21
-4.16832
0
LINE
8
BLACK
6
CONTINUOUS
10
5.34073
20
-4.16832
11
5.34145
21
-4.16782
0
LINE
8
BLACK
6
CONTINUOUS
10
5.34145
20
-4.16782
11
5.3415
21
-4.16777
0
LINE
8
BLACK
6
CONTINUOUS
10
5.3415
20
-4.16777
11
5.34524
21
-4.1659
0
LINE
8
BLACK
6
CONTINUOUS
10
5.34524
20
-4.1659
11
5.34623
21
-4.1656
0
LINE
8
BLACK
6
CONTINUOUS
10
5.34623
20
-4.1656
11
5.3464
21
-4.16564
0
LINE
8
BLACK
6
CONTINUOUS
10
5.3464
20
-4.16564
11
5.34657
21
-4.16558
0
LINE
8
BLACK
6
CONTINUOUS
10
5.34657
20
-4.16558
11
5.35594
21
-4.16558
0
LINE
8
BLACK
6
CONTINUOUS
10
5.35594
20
-4.16558
11
5.35695
21
-4.16576
0
LINE
8
BLACK
6
CONTINUOUS
10
5.38868
20
-4.16574
11
5.38874
21
-4.16573
0
LINE
8
BLACK
6
CONTINUOUS
10
5.38874
20
-4.16573
11
5.39437
21
-4.16761
0
LINE
8
BLACK
6
CONTINUOUS
10
5.39437
20
-4.16761
11
5.39527
21
-4.1681
0
LINE
8
BLACK
6
CONTINUOUS
10
5.39527
20
-4.1681
11
5.39536
21
-4.16825
0
LINE
8
BLACK
6
CONTINUOUS
10
5.39536
20
-4.16825
11
5.39552
21
-4.16832
0
LINE
8
BLACK
6
CONTINUOUS
10
5.39552
20
-4.16832
11
5.39927
21
-4.17207
0
LINE
8
BLACK
6
CONTINUOUS
10
5.39927
20
-4.17207
11
5.39978
21
-4.1728
0
LINE
8
BLACK
6
CONTINUOUS
10
5.39978
20
-4.1728
11
5.39983
21
-4.17284
0
LINE
8
BLACK
6
CONTINUOUS
10
5.39983
20
-4.17284
11
5.4017
21
-4.17659
0
LINE
8
BLACK
6
CONTINUOUS
10
5.4017
20
-4.17659
11
5.40185
21
-4.17708
0
LINE
8
BLACK
6
CONTINUOUS
10
5.40185
20
-4.17708
11
5.40192
21
-4.17719
0
LINE
8
BLACK
6
CONTINUOUS
10
5.40192
20
-4.17719
11
5.4038
21
-4.18469
0
LINE
8
BLACK
6
CONTINUOUS
10
5.4038
20
-4.18469
11
5.40384
21
-4.18528
0
LINE
8
BLACK
6
CONTINUOUS
10
5.40384
20
-4.18528
11
5.40389
21
-4.18541
0
LINE
8
BLACK
6
CONTINUOUS
10
5.40389
20
-4.18541
11
5.40389
21
-4.19103
0
LINE
8
BLACK
6
CONTINUOUS
10
5.40389
20
-4.19103
11
5.40378
21
-4.19161
0
LINE
8
BLACK
6
CONTINUOUS
10
5.40378
20
-4.19161
11
5.4038
21
-4.19175
0
LINE
8
BLACK
6
CONTINUOUS
10
5.4038
20
-4.19175
11
5.40192
21
-4.19925
0
LINE
8
BLACK
6
CONTINUOUS
10
5.40192
20
-4.19925
11
5.40172
21
-4.19971
0
LINE
8
BLACK
6
CONTINUOUS
10
5.40172
20
-4.19971
11
5.4017
21
-4.19985
0
LINE
8
BLACK
6
CONTINUOUS
10
5.4017
20
-4.19985
11
5.39983
21
-4.2036
0
LINE
8
BLACK
6
CONTINUOUS
10
5.39983
20
-4.2036
11
5.3993
21
-4.20431
0
LINE
8
BLACK
6
CONTINUOUS
10
5.3993
20
-4.20431
11
5.39927
21
-4.20437
0
LINE
8
BLACK
6
CONTINUOUS
10
5.39927
20
-4.20437
11
5.39552
21
-4.20812
0
LINE
8
BLACK
6
CONTINUOUS
10
5.39552
20
-4.20812
11
5.39468
21
-4.20871
0
LINE
8
BLACK
6
CONTINUOUS
10
5.39468
20
-4.20871
11
5.39451
21
-4.20872
0
LINE
8
BLACK
6
CONTINUOUS
10
5.39451
20
-4.20872
11
5.39437
21
-4.20883
0
LINE
8
BLACK
6
CONTINUOUS
10
5.39437
20
-4.20883
11
5.38874
21
-4.21071
0
LINE
8
BLACK
6
CONTINUOUS
10
5.38874
20
-4.21071
11
5.38787
21
-4.21084
0
LINE
8
BLACK
6
CONTINUOUS
10
5.38787
20
-4.21084
11
5.38781
21
-4.21086
0
LINE
8
BLACK
6
CONTINUOUS
10
5.38781
20
-4.21086
11
5.38406
21
-4.21086
0
LINE
8
BLACK
6
CONTINUOUS
10
5.38406
20
-4.21086
11
5.38319
21
-4.21071
0
LINE
8
BLACK
6
CONTINUOUS
10
5.38319
20
-4.21071
11
5.38313
21
-4.21071
0
LINE
8
BLACK
6
CONTINUOUS
10
5.38313
20
-4.21071
11
5.3775
21
-4.20883
0
LINE
8
BLACK
6
CONTINUOUS
10
5.3775
20
-4.20883
11
5.3766
21
-4.20834
0
LINE
8
BLACK
6
CONTINUOUS
10
5.3766
20
-4.20834
11
5.37651
21
-4.20819
0
LINE
8
BLACK
6
CONTINUOUS
10
5.37651
20
-4.20819
11
5.37635
21
-4.20812
0
LINE
8
BLACK
6
CONTINUOUS
10
5.37635
20
-4.20812
11
5.37447
21
-4.20624
0
LINE
8
BLACK
6
CONTINUOUS
10
5.37447
20
-4.20624
11
5.37389
21
-4.2054
0
LINE
8
BLACK
6
CONTINUOUS
10
5.37389
20
-4.2054
11
5.37371
21
-4.20339
0
LINE
8
BLACK
6
CONTINUOUS
10
5.37371
20
-4.20339
11
5.37487
21
-4.20174
0
LINE
8
BLACK
6
CONTINUOUS
10
5.37487
20
-4.20174
11
5.37682
21
-4.20122
0
LINE
8
BLACK
6
CONTINUOUS
10
5.37682
20
-4.20122
11
5.37865
21
-4.20207
0
LINE
8
BLACK
6
CONTINUOUS
10
5.37865
20
-4.20207
11
5.38003
21
-4.20345
0
LINE
8
BLACK
6
CONTINUOUS
10
5.38003
20
-4.20345
11
5.38454
21
-4.20495
0
LINE
8
BLACK
6
CONTINUOUS
10
5.38454
20
-4.20495
11
5.38733
21
-4.20495
0
LINE
8
BLACK
6
CONTINUOUS
10
5.38733
20
-4.20495
11
5.39184
21
-4.20345
0
LINE
8
BLACK
6
CONTINUOUS
10
5.39184
20
-4.20345
11
5.39476
21
-4.20053
0
LINE
8
BLACK
6
CONTINUOUS
10
5.39476
20
-4.20053
11
5.39627
21
-4.1975
0
LINE
8
BLACK
6
CONTINUOUS
10
5.39627
20
-4.1975
11
5.39798
21
-4.19067
0
LINE
8
BLACK
6
CONTINUOUS
10
5.39798
20
-4.19067
11
5.39798
21
-4.18577
0
LINE
8
BLACK
6
CONTINUOUS
10
5.39798
20
-4.18577
11
5.39627
21
-4.17894
0
LINE
8
BLACK
6
CONTINUOUS
10
5.39627
20
-4.17894
11
5.39476
21
-4.17591
0
LINE
8
BLACK
6
CONTINUOUS
10
5.39476
20
-4.17591
11
5.39184
21
-4.17299
0
LINE
8
BLACK
6
CONTINUOUS
10
5.39184
20
-4.17299
11
5.38733
21
-4.17149
0
LINE
8
BLACK
6
CONTINUOUS
10
5.38733
20
-4.17149
11
5.38454
21
-4.17149
0
LINE
8
BLACK
6
CONTINUOUS
10
5.38454
20
-4.17149
11
5.38003
21
-4.17299
0
LINE
8
BLACK
6
CONTINUOUS
10
5.38003
20
-4.17299
11
5.37865
21
-4.17437
0
LINE
8
BLACK
6
CONTINUOUS
10
5.37865
20
-4.17437
11
5.37781
21
-4.17496
0
LINE
8
BLACK
6
CONTINUOUS
10
5.37781
20
-4.17496
11
5.3758
21
-4.17514
0
LINE
8
BLACK
6
CONTINUOUS
10
5.3758
20
-4.17514
11
5.37414
21
-4.17398
0
LINE
8
BLACK
6
CONTINUOUS
10
5.37414
20
-4.17398
11
5.37362
21
-4.17203
0
LINE
8
BLACK
6
CONTINUOUS
10
5.37362
20
-4.17203
11
5.37447
21
-4.1702
0
LINE
8
BLACK
6
CONTINUOUS
10
5.37447
20
-4.1702
11
5.37635
21
-4.16832
0
LINE
8
BLACK
6
CONTINUOUS
10
5.37635
20
-4.16832
11
5.37719
21
-4.16773
0
LINE
8
BLACK
6
CONTINUOUS
10
5.37719
20
-4.16773
11
5.37736
21
-4.16772
0
LINE
8
BLACK
6
CONTINUOUS
10
5.37736
20
-4.16772
11
5.3775
21
-4.16761
0
LINE
8
BLACK
6
CONTINUOUS
10
5.3775
20
-4.16761
11
5.38313
21
-4.16573
0
LINE
8
BLACK
6
CONTINUOUS
10
5.38313
20
-4.16573
11
5.384
21
-4.16561
0
LINE
8
BLACK
6
CONTINUOUS
10
5.384
20
-4.16561
11
5.38406
21
-4.16558
0
LINE
8
BLACK
6
CONTINUOUS
10
5.38406
20
-4.16558
11
5.38781
21
-4.16558
0
LINE
8
BLACK
6
CONTINUOUS
10
5.38781
20
-4.16558
11
5.38868
21
-4.16574
0
LINE
8
BLACK
6
CONTINUOUS
10
5.30061
20
-4.13727
11
5.3013
21
-4.13894
0
LINE
8
BLACK
6
CONTINUOUS
10
5.3013
20
-4.13894
11
5.30061
21
-4.14061
0
LINE
8
BLACK
6
CONTINUOUS
10
5.30061
20
-4.14061
11
5.29894
21
-4.1413
0
LINE
8
BLACK
6
CONTINUOUS
10
5.29894
20
-4.1413
11
5.28106
21
-4.1413
0
LINE
8
BLACK
6
CONTINUOUS
10
5.28106
20
-4.1413
11
5.27939
21
-4.14061
0
LINE
8
BLACK
6
CONTINUOUS
10
5.27939
20
-4.14061
11
5.2787
21
-4.13894
0
LINE
8
BLACK
6
CONTINUOUS
10
5.2787
20
-4.13894
11
5.27939
21
-4.13727
0
LINE
8
BLACK
6
CONTINUOUS
10
5.27939
20
-4.13727
11
5.28106
21
-4.13657
0
LINE
8
BLACK
6
CONTINUOUS
10
5.28106
20
-4.13657
11
5.29894
21
-4.13657
0
LINE
8
BLACK
6
CONTINUOUS
10
5.29894
20
-4.13657
11
5.30061
21
-4.13727
0
LINE
8
BLACK
6
CONTINUOUS
10
5.46061
20
-4.13727
11
5.4613
21
-4.13894
0
LINE
8
BLACK
6
CONTINUOUS
10
5.4613
20
-4.13894
11
5.46061
21
-4.14061
0
LINE
8
BLACK
6
CONTINUOUS
10
5.46061
20
-4.14061
11
5.45894
21
-4.1413
0
LINE
8
BLACK
6
CONTINUOUS
10
5.45894
20
-4.1413
11
5.44106
21
-4.1413
0
LINE
8
BLACK
6
CONTINUOUS
10
5.44106
20
-4.1413
11
5.43939
21
-4.14061
0
LINE
8
BLACK
6
CONTINUOUS
10
5.43939
20
-4.14061
11
5.4387
21
-4.13894
0
LINE
8
BLACK
6
CONTINUOUS
10
5.4387
20
-4.13894
11
5.43939
21
-4.13727
0
LINE
8
BLACK
6
CONTINUOUS
10
5.43939
20
-4.13727
11
5.44106
21
-4.13657
0
LINE
8
BLACK
6
CONTINUOUS
10
5.44106
20
-4.13657
11
5.45894
21
-4.13657
0
LINE
8
BLACK
6
CONTINUOUS
10
5.45894
20
-4.13657
11
5.46061
21
-4.13727
0
LINE
8
BLACK
6
CONTINUOUS
10
5.17695
20
-4.08576
11
5.17708
21
-4.08587
0
LINE
8
BLACK
6
CONTINUOUS
10
5.17708
20
-4.08587
11
5.17726
21
-4.0859
0
LINE
8
BLACK
6
CONTINUOUS
10
5.17726
20
-4.0859
11
5.18101
21
-4.08777
0
LINE
8
BLACK
6
CONTINUOUS
10
5.18101
20
-4.08777
11
5.18172
21
-4.0883
0
LINE
8
BLACK
6
CONTINUOUS
10
5.18172
20
-4.0883
11
5.18178
21
-4.08832
0
LINE
8
BLACK
6
CONTINUOUS
10
5.18178
20
-4.08832
11
5.18365
21
-4.0902
0
LINE
8
BLACK
6
CONTINUOUS
10
5.18365
20
-4.0902
11
5.18424
21
-4.09104
0
LINE
8
BLACK
6
CONTINUOUS
10
5.18424
20
-4.09104
11
5.18442
21
-4.09305
0
LINE
8
BLACK
6
CONTINUOUS
10
5.18442
20
-4.09305
11
5.18326
21
-4.0947
0
LINE
8
BLACK
6
CONTINUOUS
10
5.18326
20
-4.0947
11
5.18131
21
-4.09523
0
LINE
8
BLACK
6
CONTINUOUS
10
5.18131
20
-4.09523
11
5.17948
21
-4.09437
0
LINE
8
BLACK
6
CONTINUOUS
10
5.17948
20
-4.09437
11
5.17794
21
-4.09284
0
LINE
8
BLACK
6
CONTINUOUS
10
5.17794
20
-4.09284
11
5.17524
21
-4.09149
0
LINE
8
BLACK
6
CONTINUOUS
10
5.17524
20
-4.09149
11
5.16726
21
-4.09149
0
LINE
8
BLACK
6
CONTINUOUS
10
5.16726
20
-4.09149
11
5.16456
21
-4.09284
0
LINE
8
BLACK
6
CONTINUOUS
10
5.16456
20
-4.09284
11
5.16337
21
-4.09403
0
LINE
8
BLACK
6
CONTINUOUS
10
5.16337
20
-4.09403
11
5.16202
21
-4.09673
0
LINE
8
BLACK
6
CONTINUOUS
10
5.16202
20
-4.09673
11
5.16202
21
-4.09931
0
LINE
8
BLACK
6
CONTINUOUS
10
5.16202
20
-4.09931
11
5.16352
21
-4.10381
0
LINE
8
BLACK
6
CONTINUOUS
10
5.16352
20
-4.10381
11
5.18553
21
-4.12582
0
LINE
8
BLACK
6
CONTINUOUS
10
5.18553
20
-4.12582
11
5.1859
21
-4.12635
0
LINE
8
BLACK
6
CONTINUOUS
10
5.1859
20
-4.12635
11
5.186
21
-4.12643
0
LINE
8
BLACK
6
CONTINUOUS
10
5.186
20
-4.12643
11
5.18601
21
-4.12651
0
LINE
8
BLACK
6
CONTINUOUS
10
5.18601
20
-4.12651
11
5.18611
21
-4.12666
0
LINE
8
BLACK
6
CONTINUOUS
10
5.18611
20
-4.12666
11
5.18619
21
-4.12754
0
LINE
8
BLACK
6
CONTINUOUS
10
5.18619
20
-4.12754
11
5.18635
21
-4.12842
0
LINE
8
BLACK
6
CONTINUOUS
10
5.18635
20
-4.12842
11
5.18628
21
-4.12854
0
LINE
8
BLACK
6
CONTINUOUS
10
5.18628
20
-4.12854
11
5.18629
21
-4.12867
0
LINE
8
BLACK
6
CONTINUOUS
10
5.18629
20
-4.12867
11
5.18578
21
-4.1294
0
LINE
8
BLACK
6
CONTINUOUS
10
5.18578
20
-4.1294
11
5.18534
21
-4.13017
0
LINE
8
BLACK
6
CONTINUOUS
10
5.18534
20
-4.13017
11
5.18521
21
-4.13021
0
LINE
8
BLACK
6
CONTINUOUS
10
5.18521
20
-4.13021
11
5.18513
21
-4.13033
0
LINE
8
BLACK
6
CONTINUOUS
10
5.18513
20
-4.13033
11
5.18427
21
-4.13056
0
LINE
8
BLACK
6
CONTINUOUS
10
5.18427
20
-4.13056
11
5.18344
21
-4.13086
0
LINE
8
BLACK
6
CONTINUOUS
10
5.18344
20
-4.13086
11
5.15907
21
-4.13086
0
LINE
8
BLACK
6
CONTINUOUS
10
5.15907
20
-4.13086
11
5.15806
21
-4.13068
0
LINE
8
BLACK
6
CONTINUOUS
10
5.15806
20
-4.13068
11
5.15651
21
-4.12938
0
LINE
8
BLACK
6
CONTINUOUS
10
5.15651
20
-4.12938
11
5.15616
21
-4.12739
0
LINE
8
BLACK
6
CONTINUOUS
10
5.15616
20
-4.12739
11
5.15717
21
-4.12564
0
LINE
8
BLACK
6
CONTINUOUS
10
5.15717
20
-4.12564
11
5.15907
21
-4.12495
0
LINE
8
BLACK
6
CONTINUOUS
10
5.15907
20
-4.12495
11
5.17631
21
-4.12495
0
LINE
8
BLACK
6
CONTINUOUS
10
5.17631
20
-4.12495
11
5.15885
21
-4.1075
0
LINE
8
BLACK
6
CONTINUOUS
10
5.15885
20
-4.1075
11
5.15827
21
-4.10666
0
LINE
8
BLACK
6
CONTINUOUS
10
5.15827
20
-4.10666
11
5.15825
21
-4.10648
0
LINE
8
BLACK
6
CONTINUOUS
10
5.15825
20
-4.10648
11
5.15814
21
-4.10634
0
LINE
8
BLACK
6
CONTINUOUS
10
5.15814
20
-4.10634
11
5.15627
21
-4.10072
0
LINE
8
BLACK
6
CONTINUOUS
10
5.15627
20
-4.10072
11
5.15614
21
-4.09985
0
LINE
8
BLACK
6
CONTINUOUS
10
5.15614
20
-4.09985
11
5.15611
21
-4.09978
0
LINE
8
BLACK
6
CONTINUOUS
10
5.15611
20
-4.09978
11
5.15611
21
-4.09604
0
LINE
8
BLACK
6
CONTINUOUS
10
5.15611
20
-4.09604
11
5.15629
21
-4.09503
0
LINE
8
BLACK
6
CONTINUOUS
10
5.15629
20
-4.09503
11
5.15641
21
-4.09489
0
LINE
8
BLACK
6
CONTINUOUS
10
5.15641
20
-4.09489
11
5.15643
21
-4.09471
0
LINE
8
BLACK
6
CONTINUOUS
10
5.15643
20
-4.09471
11
5.1583
21
-4.09097
0
LINE
8
BLACK
6
CONTINUOUS
10
5.1583
20
-4.09097
11
5.15883
21
-4.09026
0
LINE
8
BLACK
6
CONTINUOUS
10
5.15883
20
-4.09026
11
5.15885
21
-4.0902
0
LINE
8
BLACK
6
CONTINUOUS
10
5.15885
20
-4.0902
11
5.16073
21
-4.08832
0
LINE
8
BLACK
6
CONTINUOUS
10
5.16073
20
-4.08832
11
5.16145
21
-4.08782
0
LINE
8
BLACK
6
CONTINUOUS
10
5.16145
20
-4.08782
11
5.1615
21
-4.08777
0
LINE
8
BLACK
6
CONTINUOUS
10
5.1615
20
-4.08777
11
5.16524
21
-4.0859
0
LINE
8
BLACK
6
CONTINUOUS
10
5.16524
20
-4.0859
11
5.16623
21
-4.0856
0
LINE
8
BLACK
6
CONTINUOUS
10
5.16623
20
-4.0856
11
5.1664
21
-4.08564
0
LINE
8
BLACK
6
CONTINUOUS
10
5.1664
20
-4.08564
11
5.16657
21
-4.08558
0
LINE
8
BLACK
6
CONTINUOUS
10
5.16657
20
-4.08558
11
5.17594
21
-4.08558
0
LINE
8
BLACK
6
CONTINUOUS
10
5.17594
20
-4.08558
11
5.17695
21
-4.08576
0
LINE
8
BLACK
6
CONTINUOUS
10
5.53097
20
-4.08571
11
5.53114
21
-4.0857
0
LINE
8
BLACK
6
CONTINUOUS
10
5.53114
20
-4.0857
11
5.53183
21
-4.08621
0
LINE
8
BLACK
6
CONTINUOUS
10
5.53183
20
-4.08621
11
5.53258
21
-4.08664
0
LINE
8
BLACK
6
CONTINUOUS
10
5.53258
20
-4.08664
11
5.53263
21
-4.0868
0
LINE
8
BLACK
6
CONTINUOUS
10
5.53263
20
-4.0868
11
5.53277
21
-4.0869
0
LINE
8
BLACK
6
CONTINUOUS
10
5.53277
20
-4.0869
11
5.53636
21
-4.09228
0
LINE
8
BLACK
6
CONTINUOUS
10
5.53636
20
-4.09228
11
5.53956
21
-4.09548
0
LINE
8
BLACK
6
CONTINUOUS
10
5.53956
20
-4.09548
11
5.54288
21
-4.09714
0
LINE
8
BLACK
6
CONTINUOUS
10
5.54288
20
-4.09714
11
5.54371
21
-4.09775
0
LINE
8
BLACK
6
CONTINUOUS
10
5.54371
20
-4.09775
11
5.54451
21
-4.09961
0
LINE
8
BLACK
6
CONTINUOUS
10
5.54451
20
-4.09961
11
5.54394
21
-4.10154
0
LINE
8
BLACK
6
CONTINUOUS
10
5.54394
20
-4.10154
11
5.54225
21
-4.10266
0
LINE
8
BLACK
6
CONTINUOUS
10
5.54225
20
-4.10266
11
5.54024
21
-4.10243
0
LINE
8
BLACK
6
CONTINUOUS
10
5.54024
20
-4.10243
11
5.53649
21
-4.10055
0
LINE
8
BLACK
6
CONTINUOUS
10
5.53649
20
-4.10055
11
5.53578
21
-4.10003
0
LINE
8
BLACK
6
CONTINUOUS
10
5.53578
20
-4.10003
11
5.53573
21
-4.1
0
LINE
8
BLACK
6
CONTINUOUS
10
5.53573
20
-4.1
11
5.53327
21
-4.09754
0
LINE
8
BLACK
6
CONTINUOUS
10
5.53327
20
-4.09754
11
5.53327
21
-4.12495
0
LINE
8
BLACK
6
CONTINUOUS
10
5.53327
20
-4.12495
11
5.54156
21
-4.12495
0
LINE
8
BLACK
6
CONTINUOUS
10
5.54156
20
-4.12495
11
5.54257
21
-4.12513
0
LINE
8
BLACK
6
CONTINUOUS
10
5.54257
20
-4.12513
11
5.54412
21
-4.12643
0
LINE
8
BLACK
6
CONTINUOUS
10
5.54412
20
-4.12643
11
5.54447
21
-4.12842
0
LINE
8
BLACK
6
CONTINUOUS
10
5.54447
20
-4.12842
11
5.54346
21
-4.13017
0
LINE
8
BLACK
6
CONTINUOUS
10
5.54346
20
-4.13017
11
5.54156
21
-4.13086
0
LINE
8
BLACK
6
CONTINUOUS
10
5.54156
20
-4.13086
11
5.51907
21
-4.13086
0
LINE
8
BLACK
6
CONTINUOUS
10
5.51907
20
-4.13086
11
5.51806
21
-4.13068
0
LINE
8
BLACK
6
CONTINUOUS
10
5.51806
20
-4.13068
11
5.51651
21
-4.12938
0
LINE
8
BLACK
6
CONTINUOUS
10
5.51651
20
-4.12938
11
5.51616
21
-4.12739
0
LINE
8
BLACK
6
CONTINUOUS
10
5.51616
20
-4.12739
11
5.51717
21
-4.12564
0
LINE
8
BLACK
6
CONTINUOUS
10
5.51717
20
-4.12564
11
5.51907
21
-4.12495
0
LINE
8
BLACK
6
CONTINUOUS
10
5.51907
20
-4.12495
11
5.52736
21
-4.12495
0
LINE
8
BLACK
6
CONTINUOUS
10
5.52736
20
-4.12495
11
5.52736
21
-4.08854
0
LINE
8
BLACK
6
CONTINUOUS
10
5.52736
20
-4.08854
11
5.52754
21
-4.08753
0
LINE
8
BLACK
6
CONTINUOUS
10
5.52754
20
-4.08753
11
5.52765
21
-4.0874
0
LINE
8
BLACK
6
CONTINUOUS
10
5.52765
20
-4.0874
11
5.52767
21
-4.08723
0
LINE
8
BLACK
6
CONTINUOUS
10
5.52767
20
-4.08723
11
5.52829
21
-4.08664
0
LINE
8
BLACK
6
CONTINUOUS
10
5.52829
20
-4.08664
11
5.52884
21
-4.08598
0
LINE
8
BLACK
6
CONTINUOUS
10
5.52884
20
-4.08598
11
5.52901
21
-4.08595
0
LINE
8
BLACK
6
CONTINUOUS
10
5.52901
20
-4.08595
11
5.52913
21
-4.08583
0
LINE
8
BLACK
6
CONTINUOUS
10
5.52913
20
-4.08583
11
5.52998
21
-4.08578
0
LINE
8
BLACK
6
CONTINUOUS
10
5.52998
20
-4.08578
11
5.53083
21
-4.08563
0
LINE
8
BLACK
6
CONTINUOUS
10
5.53083
20
-4.08563
11
5.53097
21
-4.08571
0
LINE
8
BLACK
6
CONTINUOUS
10
5.21944
20
-4.08565
11
5.21957
21
-4.08563
0
LINE
8
BLACK
6
CONTINUOUS
10
5.21957
20
-4.08563
11
5.21969
21
-4.08569
0
LINE
8
BLACK
6
CONTINUOUS
10
5.21969
20
-4.08569
11
5.22007
21
-4.08576
0
LINE
8
BLACK
6
CONTINUOUS
10
5.22007
20
-4.08576
11
5.22066
21
-4.08625
0
LINE
8
BLACK
6
CONTINUOUS
10
5.22066
20
-4.08625
11
5.22132
21
-4.08664
0
LINE
8
BLACK
6
CONTINUOUS
10
5.22132
20
-4.08664
11
5.22141
21
-4.08689
0
LINE
8
BLACK
6
CONTINUOUS
10
5.22141
20
-4.08689
11
5.22162
21
-4.08706
0
LINE
8
BLACK
6
CONTINUOUS
10
5.22162
20
-4.08706
11
5.22175
21
-4.08782
0
LINE
8
BLACK
6
CONTINUOUS
10
5.22175
20
-4.08782
11
5.22201
21
-4.08854
0
LINE
8
BLACK
6
CONTINUOUS
10
5.22201
20
-4.08854
11
5.22201
21
-4.12791
0
LINE
8
BLACK
6
CONTINUOUS
10
5.22201
20
-4.12791
11
5.22183
21
-4.12892
0
LINE
8
BLACK
6
CONTINUOUS
10
5.22183
20
-4.12892
11
5.22054
21
-4.13046
0
LINE
8
BLACK
6
CONTINUOUS
10
5.22054
20
-4.13046
11
5.21855
21
-4.13081
0
LINE
8
BLACK
6
CONTINUOUS
10
5.21855
20
-4.13081
11
5.2168
21
-4.1298
0
LINE
8
BLACK
6
CONTINUOUS
10
5.2168
20
-4.1298
11
5.21611
21
-4.12791
0
LINE
8
BLACK
6
CONTINUOUS
10
5.21611
20
-4.12791
11
5.21611
21
-4.11211
0
LINE
8
BLACK
6
CONTINUOUS
10
5.21611
20
-4.11211
11
5.21122
21
-4.11211
0
LINE
8
BLACK
6
CONTINUOUS
10
5.21122
20
-4.11211
11
5.19898
21
-4.1296
0
LINE
8
BLACK
6
CONTINUOUS
10
5.19898
20
-4.1296
11
5.19826
21
-4.13032
0
LINE
8
BLACK
6
CONTINUOUS
10
5.19826
20
-4.13032
11
5.1963
21
-4.13085
0
LINE
8
BLACK
6
CONTINUOUS
10
5.1963
20
-4.13085
11
5.19447
21
-4.12999
0
LINE
8
BLACK
6
CONTINUOUS
10
5.19447
20
-4.12999
11
5.19362
21
-4.12816
0
LINE
8
BLACK
6
CONTINUOUS
10
5.19362
20
-4.12816
11
5.19414
21
-4.12621
0
LINE
8
BLACK
6
CONTINUOUS
10
5.19414
20
-4.12621
11
5.20402
21
-4.1121
0
LINE
8
BLACK
6
CONTINUOUS
10
5.20402
20
-4.1121
11
5.20305
21
-4.11193
0
LINE
8
BLACK
6
CONTINUOUS
10
5.20305
20
-4.11193
11
5.20292
21
-4.11182
0
LINE
8
BLACK
6
CONTINUOUS
10
5.20292
20
-4.11182
11
5.20274
21
-4.1118
0
LINE
8
BLACK
6
CONTINUOUS
10
5.20274
20
-4.1118
11
5.19899
21
-4.10992
0
LINE
8
BLACK
6
CONTINUOUS
10
5.19899
20
-4.10992
11
5.19828
21
-4.1094
0
LINE
8
BLACK
6
CONTINUOUS
10
5.19828
20
-4.1094
11
5.19822
21
-4.10937
0
LINE
8
BLACK
6
CONTINUOUS
10
5.19822
20
-4.10937
11
5.19635
21
-4.1075
0
LINE
8
BLACK
6
CONTINUOUS
10
5.19635
20
-4.1075
11
5.19584
21
-4.10677
0
LINE
8
BLACK
6
CONTINUOUS
10
5.19584
20
-4.10677
11
5.1958
21
-4.10673
0
LINE
8
BLACK
6
CONTINUOUS
10
5.1958
20
-4.10673
11
5.19392
21
-4.10298
0
LINE
8
BLACK
6
CONTINUOUS
10
5.19392
20
-4.10298
11
5.19363
21
-4.102
0
LINE
8
BLACK
6
CONTINUOUS
10
5.19363
20
-4.102
11
5.19367
21
-4.10183
0
LINE
8
BLACK
6
CONTINUOUS
10
5.19367
20
-4.10183
11
5.19361
21
-4.10166
0
LINE
8
BLACK
6
CONTINUOUS
10
5.19361
20
-4.10166
11
5.19361
21
-4.09604
0
LINE
8
BLACK
6
CONTINUOUS
10
5.19361
20
-4.09604
11
5.19379
21
-4.09503
0
LINE
8
BLACK
6
CONTINUOUS
10
5.19379
20
-4.09503
11
5.1939
21
-4.09489
0
LINE
8
BLACK
6
CONTINUOUS
10
5.1939
20
-4.09489
11
5.19392
21
-4.09471
0
LINE
8
BLACK
6
CONTINUOUS
10
5.19392
20
-4.09471
11
5.1958
21
-4.09097
0
LINE
8
BLACK
6
CONTINUOUS
10
5.1958
20
-4.09097
11
5.19632
21
-4.09026
0
LINE
8
BLACK
6
CONTINUOUS
10
5.19632
20
-4.09026
11
5.19635
21
-4.0902
0
LINE
8
BLACK
6
CONTINUOUS
10
5.19635
20
-4.0902
11
5.19822
21
-4.08832
0
LINE
8
BLACK
6
CONTINUOUS
10
5.19822
20
-4.08832
11
5.19895
21
-4.08782
0
LINE
8
BLACK
6
CONTINUOUS
10
5.19895
20
-4.08782
11
5.19899
21
-4.08777
0
LINE
8
BLACK
6
CONTINUOUS
10
5.19899
20
-4.08777
11
5.20274
21
-4.0859
0
LINE
8
BLACK
6
CONTINUOUS
10
5.20274
20
-4.0859
11
5.20372
21
-4.0856
0
LINE
8
BLACK
6
CONTINUOUS
10
5.20372
20
-4.0856
11
5.20389
21
-4.08564
0
LINE
8
BLACK
6
CONTINUOUS
10
5.20389
20
-4.08564
11
5.20406
21
-4.08558
0
LINE
8
BLACK
6
CONTINUOUS
10
5.20406
20
-4.08558
11
5.21906
21
-4.08558
0
LINE
8
BLACK
6
CONTINUOUS
10
5.21906
20
-4.08558
11
5.21944
21
-4.08565
0
LINE
8
BLACK
6
CONTINUOUS
10
5.20206
20
-4.09284
11
5.20086
21
-4.09403
0
LINE
8
BLACK
6
CONTINUOUS
10
5.20086
20
-4.09403
11
5.19951
21
-4.09673
0
LINE
8
BLACK
6
CONTINUOUS
10
5.19951
20
-4.09673
11
5.19951
21
-4.10096
0
LINE
8
BLACK
6
CONTINUOUS
10
5.19951
20
-4.10096
11
5.20086
21
-4.10366
0
LINE
8
BLACK
6
CONTINUOUS
10
5.20086
20
-4.10366
11
5.20206
21
-4.10486
0
LINE
8
BLACK
6
CONTINUOUS
10
5.20206
20
-4.10486
11
5.20476
21
-4.10621
0
LINE
8
BLACK
6
CONTINUOUS
10
5.20476
20
-4.10621
11
5.21611
21
-4.10621
0
LINE
8
BLACK
6
CONTINUOUS
10
5.21611
20
-4.10621
11
5.21611
21
-4.09149
0
LINE
8
BLACK
6
CONTINUOUS
10
5.21611
20
-4.09149
11
5.20476
21
-4.09149
0
LINE
8
BLACK
6
CONTINUOUS
10
5.20476
20
-4.09149
11
5.20206
21
-4.09284
0
LINE
8
BLACK
6
CONTINUOUS
10
5.57944
20
-4.08565
11
5.57957
21
-4.08563
0
LINE
8
BLACK
6
CONTINUOUS
10
5.57957
20
-4.08563
11
5.57969
21
-4.08569
0
LINE
8
BLACK
6
CONTINUOUS
10
5.57969
20
-4.08569
11
5.58007
21
-4.08576
0
LINE
8
BLACK
6
CONTINUOUS
10
5.58007
20
-4.08576
11
5.58066
21
-4.08625
0
LINE
8
BLACK
6
CONTINUOUS
10
5.58066
20
-4.08625
11
5.58132
21
-4.08664
0
LINE
8
BLACK
6
CONTINUOUS
10
5.58132
20
-4.08664
11
5.58141
21
-4.08689
0
LINE
8
BLACK
6
CONTINUOUS
10
5.58141
20
-4.08689
11
5.58162
21
-4.08706
0
LINE
8
BLACK
6
CONTINUOUS
10
5.58162
20
-4.08706
11
5.58175
21
-4.08782
0
LINE
8
BLACK
6
CONTINUOUS
10
5.58175
20
-4.08782
11
5.58201
21
-4.08854
0
LINE
8
BLACK
6
CONTINUOUS
10
5.58201
20
-4.08854
11
5.58201
21
-4.12791
0
LINE
8
BLACK
6
CONTINUOUS
10
5.58201
20
-4.12791
11
5.58183
21
-4.12892
0
LINE
8
BLACK
6
CONTINUOUS
10
5.58183
20
-4.12892
11
5.58054
21
-4.13046
0
LINE
8
BLACK
6
CONTINUOUS
10
5.58054
20
-4.13046
11
5.57855
21
-4.13081
0
LINE
8
BLACK
6
CONTINUOUS
10
5.57855
20
-4.13081
11
5.5768
21
-4.1298
0
LINE
8
BLACK
6
CONTINUOUS
10
5.5768
20
-4.1298
11
5.57611
21
-4.12791
0
LINE
8
BLACK
6
CONTINUOUS
10
5.57611
20
-4.12791
11
5.57611
21
-4.11211
0
LINE
8
BLACK
6
CONTINUOUS
10
5.57611
20
-4.11211
11
5.57122
21
-4.11211
0
LINE
8
BLACK
6
CONTINUOUS
10
5.57122
20
-4.11211
11
5.55898
21
-4.1296
0
LINE
8
BLACK
6
CONTINUOUS
10
5.55898
20
-4.1296
11
5.55826
21
-4.13032
0
LINE
8
BLACK
6
CONTINUOUS
10
5.55826
20
-4.13032
11
5.5563
21
-4.13085
0
LINE
8
BLACK
6
CONTINUOUS
10
5.5563
20
-4.13085
11
5.55447
21
-4.12999
0
LINE
8
BLACK
6
CONTINUOUS
10
5.55447
20
-4.12999
11
5.55362
21
-4.12816
0
LINE
8
BLACK
6
CONTINUOUS
10
5.55362
20
-4.12816
11
5.55414
21
-4.12621
0
LINE
8
BLACK
6
CONTINUOUS
10
5.55414
20
-4.12621
11
5.56402
21
-4.1121
0
LINE
8
BLACK
6
CONTINUOUS
10
5.56402
20
-4.1121
11
5.56305
21
-4.11193
0
LINE
8
BLACK
6
CONTINUOUS
10
5.56305
20
-4.11193
11
5.56292
21
-4.11182
0
LINE
8
BLACK
6
CONTINUOUS
10
5.56292
20
-4.11182
11
5.56274
21
-4.1118
0
LINE
8
BLACK
6
CONTINUOUS
10
5.56274
20
-4.1118
11
5.55899
21
-4.10992
0
LINE
8
BLACK
6
CONTINUOUS
10
5.55899
20
-4.10992
11
5.55828
21
-4.1094
0
LINE
8
BLACK
6
CONTINUOUS
10
5.55828
20
-4.1094
11
5.55822
21
-4.10937
0
LINE
8
BLACK
6
CONTINUOUS
10
5.55822
20
-4.10937
11
5.55635
21
-4.1075
0
LINE
8
BLACK
6
CONTINUOUS
10
5.55635
20
-4.1075
11
5.55584
21
-4.10677
0
LINE
8
BLACK
6
CONTINUOUS
10
5.55584
20
-4.10677
11
5.5558
21
-4.10673
0
LINE
8
BLACK
6
CONTINUOUS
10
5.5558
20
-4.10673
11
5.55392
21
-4.10298
0
LINE
8
BLACK
6
CONTINUOUS
10
5.55392
20
-4.10298
11
5.55363
21
-4.102
0
LINE
8
BLACK
6
CONTINUOUS
10
5.55363
20
-4.102
11
5.55367
21
-4.10183
0
LINE
8
BLACK
6
CONTINUOUS
10
5.55367
20
-4.10183
11
5.55361
21
-4.10166
0
LINE
8
BLACK
6
CONTINUOUS
10
5.55361
20
-4.10166
11
5.55361
21
-4.09604
0
LINE
8
BLACK
6
CONTINUOUS
10
5.55361
20
-4.09604
11
5.55379
21
-4.09503
0
LINE
8
BLACK
6
CONTINUOUS
10
5.55379
20
-4.09503
11
5.5539
21
-4.09489
0
LINE
8
BLACK
6
CONTINUOUS
10
5.5539
20
-4.09489
11
5.55392
21
-4.09471
0
LINE
8
BLACK
6
CONTINUOUS
10
5.55392
20
-4.09471
11
5.5558
21
-4.09097
0
LINE
8
BLACK
6
CONTINUOUS
10
5.5558
20
-4.09097
11
5.55632
21
-4.09026
0
LINE
8
BLACK
6
CONTINUOUS
10
5.55632
20
-4.09026
11
5.55635
21
-4.0902
0
LINE
8
BLACK
6
CONTINUOUS
10
5.55635
20
-4.0902
11
5.55822
21
-4.08832
0
LINE
8
BLACK
6
CONTINUOUS
10
5.55822
20
-4.08832
11
5.55895
21
-4.08782
0
LINE
8
BLACK
6
CONTINUOUS
10
5.55895
20
-4.08782
11
5.55899
21
-4.08777
0
LINE
8
BLACK
6
CONTINUOUS
10
5.55899
20
-4.08777
11
5.56274
21
-4.0859
0
LINE
8
BLACK
6
CONTINUOUS
10
5.56274
20
-4.0859
11
5.56372
21
-4.0856
0
LINE
8
BLACK
6
CONTINUOUS
10
5.56372
20
-4.0856
11
5.56389
21
-4.08564
0
LINE
8
BLACK
6
CONTINUOUS
10
5.56389
20
-4.08564
11
5.56406
21
-4.08558
0
LINE
8
BLACK
6
CONTINUOUS
10
5.56406
20
-4.08558
11
5.57906
21
-4.08558
0
LINE
8
BLACK
6
CONTINUOUS
10
5.57906
20
-4.08558
11
5.57944
21
-4.08565
0
LINE
8
BLACK
6
CONTINUOUS
10
5.56206
20
-4.09284
11
5.56086
21
-4.09403
0
LINE
8
BLACK
6
CONTINUOUS
10
5.56086
20
-4.09403
11
5.55951
21
-4.09673
0
LINE
8
BLACK
6
CONTINUOUS
10
5.55951
20
-4.09673
11
5.55951
21
-4.10096
0
LINE
8
BLACK
6
CONTINUOUS
10
5.55951
20
-4.10096
11
5.56086
21
-4.10366
0
LINE
8
BLACK
6
CONTINUOUS
10
5.56086
20
-4.10366
11
5.56206
21
-4.10486
0
LINE
8
BLACK
6
CONTINUOUS
10
5.56206
20
-4.10486
11
5.56476
21
-4.10621
0
LINE
8
BLACK
6
CONTINUOUS
10
5.56476
20
-4.10621
11
5.57611
21
-4.10621
0
LINE
8
BLACK
6
CONTINUOUS
10
5.57611
20
-4.10621
11
5.57611
21
-4.09149
0
LINE
8
BLACK
6
CONTINUOUS
10
5.57611
20
-4.09149
11
5.56476
21
-4.09149
0
LINE
8
BLACK
6
CONTINUOUS
10
5.56476
20
-4.09149
11
5.56206
21
-4.09284
0
LINE
8
BLACK
6
CONTINUOUS
10
5.30061
20
-4.07939
11
5.3013
21
-4.08106
0
LINE
8
BLACK
6
CONTINUOUS
10
5.3013
20
-4.08106
11
5.30061
21
-4.08273
0
LINE
8
BLACK
6
CONTINUOUS
10
5.30061
20
-4.08273
11
5.29894
21
-4.08343
0
LINE
8
BLACK
6
CONTINUOUS
10
5.29894
20
-4.08343
11
5.28106
21
-4.08343
0
LINE
8
BLACK
6
CONTINUOUS
10
5.28106
20
-4.08343
11
5.27939
21
-4.08273
0
LINE
8
BLACK
6
CONTINUOUS
10
5.27939
20
-4.08273
11
5.2787
21
-4.08106
0
LINE
8
BLACK
6
CONTINUOUS
10
5.2787
20
-4.08106
11
5.27939
21
-4.07939
0
LINE
8
BLACK
6
CONTINUOUS
10
5.27939
20
-4.07939
11
5.28106
21
-4.0787
0
LINE
8
BLACK
6
CONTINUOUS
10
5.28106
20
-4.0787
11
5.29894
21
-4.0787
0
LINE
8
BLACK
6
CONTINUOUS
10
5.29894
20
-4.0787
11
5.30061
21
-4.07939
0
LINE
8
BLACK
6
CONTINUOUS
10
5.46061
20
-4.07939
11
5.4613
21
-4.08106
0
LINE
8
BLACK
6
CONTINUOUS
10
5.4613
20
-4.08106
11
5.46061
21
-4.08273
0
LINE
8
BLACK
6
CONTINUOUS
10
5.46061
20
-4.08273
11
5.45894
21
-4.08343
0
LINE
8
BLACK
6
CONTINUOUS
10
5.45894
20
-4.08343
11
5.44106
21
-4.08343
0
LINE
8
BLACK
6
CONTINUOUS
10
5.44106
20
-4.08343
11
5.43939
21
-4.08273
0
LINE
8
BLACK
6
CONTINUOUS
10
5.43939
20
-4.08273
11
5.4387
21
-4.08106
0
LINE
8
BLACK
6
CONTINUOUS
10
5.4387
20
-4.08106
11
5.43939
21
-4.07939
0
LINE
8
BLACK
6
CONTINUOUS
10
5.43939
20
-4.07939
11
5.44106
21
-4.0787
0
LINE
8
BLACK
6
CONTINUOUS
10
5.44106
20
-4.0787
11
5.45894
21
-4.0787
0
LINE
8
BLACK
6
CONTINUOUS
10
5.45894
20
-4.0787
11
5.46061
21
-4.07939
0
CIRCLE
8
BLACK
10
5.57
20
-3.91
40
0.00688976
0
CIRCLE
8
BLACK
10
5.57
20
-4.01
40
0.00688976
0
CIRCLE
8
BLACK
10
5.47
20
-3.91
40
0.00688976
0
CIRCLE
8
BLACK
10
5.47
20
-4.01
40
0.00688976
0
CIRCLE
8
BLACK
10
5.37
20
-3.91
40
0.00688976
0
CIRCLE
8
BLACK
10
5.37
20
-4.01
40
0.00688976
0
CIRCLE
8
BLACK
10
5.27
20
-3.91
40
0.00688976
0
CIRCLE
8
BLACK
10
5.27
20
-4.01
40
0.00688976
0
CIRCLE
8
BLACK
10
5.17
20
-3.91
40
0.00688976
0
CIRCLE
8
BLACK
10
5.17
20
-4.01
40
0.00688976
0
CIRCLE
8
BLACK
10
4.98
20
-3.91
40
0.00688976
0
CIRCLE
8
BLACK
10
4.98
20
-4.01
40
0.00688976
0
CIRCLE
8
BLACK
10
4.88
20
-3.91
40
0.00688976
0
CIRCLE
8
BLACK
10
4.88
20
-4.01
40
0.00688976
0
CIRCLE
8
BLACK
10
5.8
20
-4.4
40
0.00688976
0
CIRCLE
8
BLACK
10
4.6
20
-4
40
0.00688976
0
CIRCLE
8
BLACK
10
5.36
20
-4.5
40
0.00688976
0
CIRCLE
8
BLACK
10
5.36
20
-4.4
40
0.00688976
0
CIRCLE
8
BLACK
10
5.46
20
-4.5
40
0.00688976
0
CIRCLE
8
BLACK
10
5.46
20
-4.4
40
0.00688976
0
CIRCLE
8
BLACK
10
5.56
20
-4.5
40
0.00688976
0
CIRCLE
8
BLACK
10
5.56
20
-4.4
40
0.00688976
0
CIRCLE
8
BLACK
10
5.8
20
-4
40
0.00688976
0
CIRCLE
8
BLACK
10
4.6
20
-4.4
40
0.00688976
  0
ENDSEC
  0
EOF
