  0
SECTION
  2
HEADER
  9
$ANGBASE
  50
0.0
  9
$ANGDIR
  70
1
  9
$MEASUREMENT
  70
0
  0
ENDSEC
  0
SECTION
  2
TABLES
  0
TABLE
  2
LTYPE
  70
4
  0
LTYPE
  5
40F
  2
CONTINUOUS
  70
0
  3
Solid line
  72
65
  73
0
  40
0.0
  0
LTYPE
  5
410
  2
DASHDOT
 70
0
  3
Dash Dot ____ _ ____ _
 72
65
 73
4
 40
2.0
 49
1.25
 49
-0.25
 49
0.25
 49
-0.25
  0
LTYPE
  5
411
  2
DASHED
 70
0
  3
Dashed __ __ __ __ __
 72
65
 73
2
 40
0.75
 49
0.5
 49
-0.25
  0
LTYPE
  5
43B
  2
DOTTED
 70
0
  3
Dotted .  .  .  .
 72
65
 73
2
 40
0.2
 49
0.0
 49
-0.2
  0
ENDTAB
  0
TABLE
  2
STYLE
  70
4
  0
STYLE
  2
KICAD
  70
0
  40
0
  41
1
  42
1
  50
0
  71
0
  3
isocp.shx
  0
STYLE
  2
KICADB
  70
0
  40
0
  41
1
  42
1
  50
0
  71
0
  3
isocp.shx
  0
STYLE
  2
KICADI
  70
0
  40
0
  41
1
  42
1
  50
15
  71
0
  3
isocp.shx
  0
STYLE
  2
KICADBI
  70
0
  40
0
  41
1
  42
1
  50
15
  71
0
  3
isocp.shx
  0
ENDTAB
  0
TABLE
  2
LAYER
  70
1
  0
LAYER
  2
BLACK
  70
0
  62
7
  6
CONTINUOUS
  0
ENDTAB
  0
ENDSEC
  0
SECTION
  2
ENTITIES
0
LINE
8
BLACK
6
CONTINUOUS
10
5.23622
20
-4.42327
11
5.23692
21
-4.42356
0
LINE
8
BLACK
6
CONTINUOUS
10
5.23692
20
-4.42356
11
5.2372
21
-4.42425
0
LINE
8
BLACK
6
CONTINUOUS
10
5.2372
20
-4.42425
11
5.2372
21
-4.52268
0
LINE
8
BLACK
6
CONTINUOUS
10
5.2372
20
-4.52268
11
5.23692
21
-4.52337
0
LINE
8
BLACK
6
CONTINUOUS
10
5.23692
20
-4.52337
11
5.23622
21
-4.52366
0
LINE
8
BLACK
6
CONTINUOUS
10
5.23622
20
-4.52366
11
5.05512
21
-4.52366
0
LINE
8
BLACK
6
CONTINUOUS
10
5.05512
20
-4.52366
11
5.05442
21
-4.52337
0
LINE
8
BLACK
6
CONTINUOUS
10
5.05442
20
-4.52337
11
5.05413
21
-4.52268
0
LINE
8
BLACK
6
CONTINUOUS
10
5.05413
20
-4.52268
11
5.05413
21
-4.42425
0
LINE
8
BLACK
6
CONTINUOUS
10
5.05413
20
-4.42425
11
5.05442
21
-4.42356
0
LINE
8
BLACK
6
CONTINUOUS
10
5.05442
20
-4.42356
11
5.05512
21
-4.42327
0
LINE
8
BLACK
6
CONTINUOUS
10
5.05512
20
-4.42327
11
5.23622
21
-4.42327
0
LINE
8
BLACK
6
CONTINUOUS
10
5.0561
20
-4.42524
11
5.0561
21
-4.52169
0
LINE
8
BLACK
6
CONTINUOUS
10
5.0561
20
-4.52169
11
5.23524
21
-4.52169
0
LINE
8
BLACK
6
CONTINUOUS
10
5.23524
20
-4.52169
11
5.23524
21
-4.42524
0
LINE
8
BLACK
6
CONTINUOUS
10
5.23524
20
-4.42524
11
5.0561
21
-4.42524
0
LINE
8
BLACK
6
CONTINUOUS
10
5.31719
20
-4.20815
11
5.31788
21
-4.20844
0
LINE
8
BLACK
6
CONTINUOUS
10
5.31788
20
-4.20844
11
5.31817
21
-4.20913
0
LINE
8
BLACK
6
CONTINUOUS
10
5.31817
20
-4.20913
11
5.31817
21
-4.34299
0
LINE
8
BLACK
6
CONTINUOUS
10
5.31817
20
-4.34299
11
5.31788
21
-4.34369
0
LINE
8
BLACK
6
CONTINUOUS
10
5.31788
20
-4.34369
11
5.31719
21
-4.34398
0
LINE
8
BLACK
6
CONTINUOUS
10
5.31719
20
-4.34398
11
5.24002
21
-4.34398
0
LINE
8
BLACK
6
CONTINUOUS
10
5.24002
20
-4.34398
11
5.23933
21
-4.34369
0
LINE
8
BLACK
6
CONTINUOUS
10
5.23933
20
-4.34369
11
5.23904
21
-4.34299
0
LINE
8
BLACK
6
CONTINUOUS
10
5.23904
20
-4.34299
11
5.23904
21
-4.20913
0
LINE
8
BLACK
6
CONTINUOUS
10
5.23904
20
-4.20913
11
5.23933
21
-4.20844
0
LINE
8
BLACK
6
CONTINUOUS
10
5.23933
20
-4.20844
11
5.24002
21
-4.20815
0
LINE
8
BLACK
6
CONTINUOUS
10
5.24002
20
-4.20815
11
5.31719
21
-4.20815
0
LINE
8
BLACK
6
CONTINUOUS
10
5.24101
20
-4.21012
11
5.24101
21
-4.34201
0
LINE
8
BLACK
6
CONTINUOUS
10
5.24101
20
-4.34201
11
5.3162
21
-4.34201
0
LINE
8
BLACK
6
CONTINUOUS
10
5.3162
20
-4.34201
11
5.3162
21
-4.21012
0
LINE
8
BLACK
6
CONTINUOUS
10
5.3162
20
-4.21012
11
5.24101
21
-4.21012
0
LINE
8
BLACK
6
CONTINUOUS
10
5.41858
20
-4.20815
11
5.41928
21
-4.20844
0
LINE
8
BLACK
6
CONTINUOUS
10
5.41928
20
-4.20844
11
5.41957
21
-4.20913
0
LINE
8
BLACK
6
CONTINUOUS
10
5.41957
20
-4.20913
11
5.41957
21
-4.34299
0
LINE
8
BLACK
6
CONTINUOUS
10
5.41957
20
-4.34299
11
5.41928
21
-4.34369
0
LINE
8
BLACK
6
CONTINUOUS
10
5.41928
20
-4.34369
11
5.41858
21
-4.34398
0
LINE
8
BLACK
6
CONTINUOUS
10
5.41858
20
-4.34398
11
5.34142
21
-4.34398
0
LINE
8
BLACK
6
CONTINUOUS
10
5.34142
20
-4.34398
11
5.34072
21
-4.34369
0
LINE
8
BLACK
6
CONTINUOUS
10
5.34072
20
-4.34369
11
5.34043
21
-4.34299
0
LINE
8
BLACK
6
CONTINUOUS
10
5.34043
20
-4.34299
11
5.34043
21
-4.34299
0
LINE
8
BLACK
6
CONTINUOUS
10
5.34043
20
-4.34299
11
5.34043
21
-4.20913
0
LINE
8
BLACK
6
CONTINUOUS
10
5.34043
20
-4.20913
11
5.34072
21
-4.20844
0
LINE
8
BLACK
6
CONTINUOUS
10
5.34072
20
-4.20844
11
5.34142
21
-4.20815
0
LINE
8
BLACK
6
CONTINUOUS
10
5.34142
20
-4.20815
11
5.41858
21
-4.20815
0
LINE
8
BLACK
6
CONTINUOUS
10
5.3424
20
-4.21012
11
5.3424
21
-4.34201
0
LINE
8
BLACK
6
CONTINUOUS
10
5.3424
20
-4.34201
11
5.4176
21
-4.34201
0
LINE
8
BLACK
6
CONTINUOUS
10
5.4176
20
-4.34201
11
5.4176
21
-4.21012
0
LINE
8
BLACK
6
CONTINUOUS
10
5.4176
20
-4.21012
11
5.3424
21
-4.21012
0
LINE
8
BLACK
6
CONTINUOUS
10
5.22427
20
-4.18494
11
5.22496
21
-4.18523
0
LINE
8
BLACK
6
CONTINUOUS
10
5.22496
20
-4.18523
11
5.22525
21
-4.18592
0
LINE
8
BLACK
6
CONTINUOUS
10
5.22525
20
-4.18592
11
5.22525
21
-4.32765
0
LINE
8
BLACK
6
CONTINUOUS
10
5.22525
20
-4.32765
11
5.22496
21
-4.32835
0
LINE
8
BLACK
6
CONTINUOUS
10
5.22496
20
-4.32835
11
5.22427
21
-4.32864
0
LINE
8
BLACK
6
CONTINUOUS
10
5.22427
20
-4.32864
11
5.00773
21
-4.32864
0
LINE
8
BLACK
6
CONTINUOUS
10
5.00773
20
-4.32864
11
5.00704
21
-4.32835
0
LINE
8
BLACK
6
CONTINUOUS
10
5.00704
20
-4.32835
11
5.00675
21
-4.32765
0
LINE
8
BLACK
6
CONTINUOUS
10
5.00675
20
-4.32765
11
5.00675
21
-4.18592
0
LINE
8
BLACK
6
CONTINUOUS
10
5.00675
20
-4.18592
11
5.00704
21
-4.18523
0
LINE
8
BLACK
6
CONTINUOUS
10
5.00704
20
-4.18523
11
5.00773
21
-4.18494
0
LINE
8
BLACK
6
CONTINUOUS
10
5.00773
20
-4.18494
11
5.22427
21
-4.18494
0
LINE
8
BLACK
6
CONTINUOUS
10
5.00872
20
-4.18691
11
5.00872
21
-4.32667
0
LINE
8
BLACK
6
CONTINUOUS
10
5.00872
20
-4.32667
11
5.22328
21
-4.32667
0
LINE
8
BLACK
6
CONTINUOUS
10
5.22328
20
-4.32667
11
5.22328
21
-4.18691
0
LINE
8
BLACK
6
CONTINUOUS
10
5.22328
20
-4.18691
11
5.00872
21
-4.18691
0
LINE
8
BLACK
6
CONTINUOUS
10
5.6063
20
-4.22374
11
5.607
21
-4.22403
0
LINE
8
BLACK
6
CONTINUOUS
10
5.607
20
-4.22403
11
5.60728
21
-4.22472
0
LINE
8
BLACK
6
CONTINUOUS
10
5.60728
20
-4.22472
11
5.60728
21
-4.31528
0
LINE
8
BLACK
6
CONTINUOUS
10
5.60728
20
-4.31528
11
5.607
21
-4.31597
0
LINE
8
BLACK
6
CONTINUOUS
10
5.607
20
-4.31597
11
5.6063
21
-4.31626
0
LINE
8
BLACK
6
CONTINUOUS
10
5.6063
20
-4.31626
11
5.43307
21
-4.31626
0
LINE
8
BLACK
6
CONTINUOUS
10
5.43307
20
-4.31626
11
5.43237
21
-4.31597
0
LINE
8
BLACK
6
CONTINUOUS
10
5.43237
20
-4.31597
11
5.43209
21
-4.31528
0
LINE
8
BLACK
6
CONTINUOUS
10
5.43209
20
-4.31528
11
5.43209
21
-4.22472
0
LINE
8
BLACK
6
CONTINUOUS
10
5.43209
20
-4.22472
11
5.43237
21
-4.22403
0
LINE
8
BLACK
6
CONTINUOUS
10
5.43237
20
-4.22403
11
5.43307
21
-4.22374
0
LINE
8
BLACK
6
CONTINUOUS
10
5.43307
20
-4.22374
11
5.6063
21
-4.22374
0
LINE
8
BLACK
6
CONTINUOUS
10
5.43406
20
-4.22571
11
5.43406
21
-4.31429
0
LINE
8
BLACK
6
CONTINUOUS
10
5.43406
20
-4.31429
11
5.60531
21
-4.31429
0
LINE
8
BLACK
6
CONTINUOUS
10
5.60531
20
-4.31429
11
5.60531
21
-4.22571
0
LINE
8
BLACK
6
CONTINUOUS
10
5.60531
20
-4.22571
11
5.43406
21
-4.22571
0
LINE
8
BLACK
6
CONTINUOUS
10
4.94179
20
-4.20253
11
4.95024
21
-4.2048
0
LINE
8
BLACK
6
CONTINUOUS
10
4.95024
20
-4.2048
11
4.95817
21
-4.2085
0
LINE
8
BLACK
6
CONTINUOUS
10
4.95817
20
-4.2085
11
4.96534
21
-4.21352
0
LINE
8
BLACK
6
CONTINUOUS
10
4.96534
20
-4.21352
11
4.97152
21
-4.2197
0
LINE
8
BLACK
6
CONTINUOUS
10
4.97152
20
-4.2197
11
4.97654
21
-4.22687
0
LINE
8
BLACK
6
CONTINUOUS
10
4.97654
20
-4.22687
11
4.98024
21
-4.2348
0
LINE
8
BLACK
6
CONTINUOUS
10
4.98024
20
-4.2348
11
4.98251
21
-4.24325
0
LINE
8
BLACK
6
CONTINUOUS
10
4.98251
20
-4.24325
11
4.98327
21
-4.25197
0
LINE
8
BLACK
6
CONTINUOUS
10
4.98327
20
-4.25197
11
4.98251
21
-4.26069
0
LINE
8
BLACK
6
CONTINUOUS
10
4.98251
20
-4.26069
11
4.98024
21
-4.26914
0
LINE
8
BLACK
6
CONTINUOUS
10
4.98024
20
-4.26914
11
4.97654
21
-4.27707
0
LINE
8
BLACK
6
CONTINUOUS
10
4.97654
20
-4.27707
11
4.97152
21
-4.28423
0
LINE
8
BLACK
6
CONTINUOUS
10
4.97152
20
-4.28423
11
4.96534
21
-4.29042
0
LINE
8
BLACK
6
CONTINUOUS
10
4.96534
20
-4.29042
11
4.95817
21
-4.29544
0
LINE
8
BLACK
6
CONTINUOUS
10
4.95817
20
-4.29544
11
4.95024
21
-4.29914
0
LINE
8
BLACK
6
CONTINUOUS
10
4.95024
20
-4.29914
11
4.94179
21
-4.3014
0
LINE
8
BLACK
6
CONTINUOUS
10
4.94179
20
-4.3014
11
4.93307
21
-4.30217
0
LINE
8
BLACK
6
CONTINUOUS
10
4.93307
20
-4.30217
11
4.92435
21
-4.3014
0
LINE
8
BLACK
6
CONTINUOUS
10
4.92435
20
-4.3014
11
4.9159
21
-4.29914
0
LINE
8
BLACK
6
CONTINUOUS
10
4.9159
20
-4.29914
11
4.90797
21
-4.29544
0
LINE
8
BLACK
6
CONTINUOUS
10
4.90797
20
-4.29544
11
4.9008
21
-4.29042
0
LINE
8
BLACK
6
CONTINUOUS
10
4.9008
20
-4.29042
11
4.89462
21
-4.28423
0
LINE
8
BLACK
6
CONTINUOUS
10
4.89462
20
-4.28423
11
4.8896
21
-4.27707
0
LINE
8
BLACK
6
CONTINUOUS
10
4.8896
20
-4.27707
11
4.8859
21
-4.26914
0
LINE
8
BLACK
6
CONTINUOUS
10
4.8859
20
-4.26914
11
4.88364
21
-4.26069
0
LINE
8
BLACK
6
CONTINUOUS
10
4.88364
20
-4.26069
11
4.88287
21
-4.25197
0
LINE
8
BLACK
6
CONTINUOUS
10
4.88287
20
-4.25197
11
4.88364
21
-4.24325
0
LINE
8
BLACK
6
CONTINUOUS
10
4.88364
20
-4.24325
11
4.8859
21
-4.2348
0
LINE
8
BLACK
6
CONTINUOUS
10
4.8859
20
-4.2348
11
4.8896
21
-4.22687
0
LINE
8
BLACK
6
CONTINUOUS
10
4.8896
20
-4.22687
11
4.89462
21
-4.2197
0
LINE
8
BLACK
6
CONTINUOUS
10
4.89462
20
-4.2197
11
4.9008
21
-4.21352
0
LINE
8
BLACK
6
CONTINUOUS
10
4.9008
20
-4.21352
11
4.90797
21
-4.2085
0
LINE
8
BLACK
6
CONTINUOUS
10
4.90797
20
-4.2085
11
4.9159
21
-4.2048
0
LINE
8
BLACK
6
CONTINUOUS
10
4.9159
20
-4.2048
11
4.92435
21
-4.20253
0
LINE
8
BLACK
6
CONTINUOUS
10
4.92435
20
-4.20253
11
4.93307
21
-4.20177
0
LINE
8
BLACK
6
CONTINUOUS
10
4.93307
20
-4.20177
11
4.94179
21
-4.20253
0
LINE
8
BLACK
6
CONTINUOUS
10
4.88539
20
-4.26038
11
4.88758
21
-4.26853
0
LINE
8
BLACK
6
CONTINUOUS
10
4.88758
20
-4.26853
11
4.89114
21
-4.27617
0
LINE
8
BLACK
6
CONTINUOUS
10
4.89114
20
-4.27617
11
4.89598
21
-4.28309
0
LINE
8
BLACK
6
CONTINUOUS
10
4.89598
20
-4.28309
11
4.90195
21
-4.28905
0
LINE
8
BLACK
6
CONTINUOUS
10
4.90195
20
-4.28905
11
4.90886
21
-4.2939
0
LINE
8
BLACK
6
CONTINUOUS
10
4.90886
20
-4.2939
11
4.91651
21
-4.29746
0
LINE
8
BLACK
6
CONTINUOUS
10
4.91651
20
-4.29746
11
4.92466
21
-4.29965
0
LINE
8
BLACK
6
CONTINUOUS
10
4.92466
20
-4.29965
11
4.93307
21
-4.30038
0
LINE
8
BLACK
6
CONTINUOUS
10
4.93307
20
-4.30038
11
4.94148
21
-4.29965
0
LINE
8
BLACK
6
CONTINUOUS
10
4.94148
20
-4.29965
11
4.94963
21
-4.29746
0
LINE
8
BLACK
6
CONTINUOUS
10
4.94963
20
-4.29746
11
4.95728
21
-4.2939
0
LINE
8
BLACK
6
CONTINUOUS
10
4.95728
20
-4.2939
11
4.96419
21
-4.28905
0
LINE
8
BLACK
6
CONTINUOUS
10
4.96419
20
-4.28905
11
4.97016
21
-4.28309
0
LINE
8
BLACK
6
CONTINUOUS
10
4.97016
20
-4.28309
11
4.975
21
-4.27617
0
LINE
8
BLACK
6
CONTINUOUS
10
4.975
20
-4.27617
11
4.97856
21
-4.26853
0
LINE
8
BLACK
6
CONTINUOUS
10
4.97856
20
-4.26853
11
4.98075
21
-4.26038
0
LINE
8
BLACK
6
CONTINUOUS
10
4.98075
20
-4.26038
11
4.98148
21
-4.25197
0
LINE
8
BLACK
6
CONTINUOUS
10
4.98148
20
-4.25197
11
4.98075
21
-4.24356
0
LINE
8
BLACK
6
CONTINUOUS
10
4.98075
20
-4.24356
11
4.97856
21
-4.23541
0
LINE
8
BLACK
6
CONTINUOUS
10
4.97856
20
-4.23541
11
4.975
21
-4.22776
0
LINE
8
BLACK
6
CONTINUOUS
10
4.975
20
-4.22776
11
4.97016
21
-4.22085
0
LINE
8
BLACK
6
CONTINUOUS
10
4.97016
20
-4.22085
11
4.96419
21
-4.21488
0
LINE
8
BLACK
6
CONTINUOUS
10
4.96419
20
-4.21488
11
4.95728
21
-4.21004
0
LINE
8
BLACK
6
CONTINUOUS
10
4.95728
20
-4.21004
11
4.94963
21
-4.20648
0
LINE
8
BLACK
6
CONTINUOUS
10
4.94963
20
-4.20648
11
4.94148
21
-4.20429
0
LINE
8
BLACK
6
CONTINUOUS
10
4.94148
20
-4.20429
11
4.93307
21
-4.20356
0
LINE
8
BLACK
6
CONTINUOUS
10
4.93307
20
-4.20356
11
4.92466
21
-4.20429
0
LINE
8
BLACK
6
CONTINUOUS
10
4.92466
20
-4.20429
11
4.91651
21
-4.20648
0
LINE
8
BLACK
6
CONTINUOUS
10
4.91651
20
-4.20648
11
4.90886
21
-4.21004
0
LINE
8
BLACK
6
CONTINUOUS
10
4.90886
20
-4.21004
11
4.90195
21
-4.21488
0
LINE
8
BLACK
6
CONTINUOUS
10
4.90195
20
-4.21488
11
4.89598
21
-4.22085
0
LINE
8
BLACK
6
CONTINUOUS
10
4.89598
20
-4.22085
11
4.89114
21
-4.22776
0
LINE
8
BLACK
6
CONTINUOUS
10
4.89114
20
-4.22776
11
4.88758
21
-4.23541
0
LINE
8
BLACK
6
CONTINUOUS
10
4.88758
20
-4.23541
11
4.88539
21
-4.24356
0
LINE
8
BLACK
6
CONTINUOUS
10
4.88539
20
-4.24356
11
4.88466
21
-4.25197
0
LINE
8
BLACK
6
CONTINUOUS
10
4.88466
20
-4.25197
11
4.88539
21
-4.26038
0
LINE
8
BLACK
6
CONTINUOUS
10
5.58352
20
-4.11592
11
5.59197
21
-4.11818
0
LINE
8
BLACK
6
CONTINUOUS
10
5.59197
20
-4.11818
11
5.5999
21
-4.12188
0
LINE
8
BLACK
6
CONTINUOUS
10
5.5999
20
-4.12188
11
5.60707
21
-4.1269
0
LINE
8
BLACK
6
CONTINUOUS
10
5.60707
20
-4.1269
11
5.61326
21
-4.13309
0
LINE
8
BLACK
6
CONTINUOUS
10
5.61326
20
-4.13309
11
5.61827
21
-4.14026
0
LINE
8
BLACK
6
CONTINUOUS
10
5.61827
20
-4.14026
11
5.62197
21
-4.14819
0
LINE
8
BLACK
6
CONTINUOUS
10
5.62197
20
-4.14819
11
5.62424
21
-4.15664
0
LINE
8
BLACK
6
CONTINUOUS
10
5.62424
20
-4.15664
11
5.625
21
-4.16535
0
LINE
8
BLACK
6
CONTINUOUS
10
5.625
20
-4.16535
11
5.62424
21
-4.17407
0
LINE
8
BLACK
6
CONTINUOUS
10
5.62424
20
-4.17407
11
5.62197
21
-4.18252
0
LINE
8
BLACK
6
CONTINUOUS
10
5.62197
20
-4.18252
11
5.61827
21
-4.19045
0
LINE
8
BLACK
6
CONTINUOUS
10
5.61827
20
-4.19045
11
5.61326
21
-4.19762
0
LINE
8
BLACK
6
CONTINUOUS
10
5.61326
20
-4.19762
11
5.60707
21
-4.20381
0
LINE
8
BLACK
6
CONTINUOUS
10
5.60707
20
-4.20381
11
5.5999
21
-4.20883
0
LINE
8
BLACK
6
CONTINUOUS
10
5.5999
20
-4.20883
11
5.59197
21
-4.21252
0
LINE
8
BLACK
6
CONTINUOUS
10
5.59197
20
-4.21252
11
5.58352
21
-4.21479
0
LINE
8
BLACK
6
CONTINUOUS
10
5.58352
20
-4.21479
11
5.5748
21
-4.21555
0
LINE
8
BLACK
6
CONTINUOUS
10
5.5748
20
-4.21555
11
5.56609
21
-4.21479
0
LINE
8
BLACK
6
CONTINUOUS
10
5.56609
20
-4.21479
11
5.55763
21
-4.21252
0
LINE
8
BLACK
6
CONTINUOUS
10
5.55763
20
-4.21252
11
5.5497
21
-4.20883
0
LINE
8
BLACK
6
CONTINUOUS
10
5.5497
20
-4.20883
11
5.54254
21
-4.20381
0
LINE
8
BLACK
6
CONTINUOUS
10
5.54254
20
-4.20381
11
5.53635
21
-4.19762
0
LINE
8
BLACK
6
CONTINUOUS
10
5.53635
20
-4.19762
11
5.53133
21
-4.19045
0
LINE
8
BLACK
6
CONTINUOUS
10
5.53133
20
-4.19045
11
5.52763
21
-4.18252
0
LINE
8
BLACK
6
CONTINUOUS
10
5.52763
20
-4.18252
11
5.52537
21
-4.17407
0
LINE
8
BLACK
6
CONTINUOUS
10
5.52537
20
-4.17407
11
5.52461
21
-4.16535
0
LINE
8
BLACK
6
CONTINUOUS
10
5.52461
20
-4.16535
11
5.52537
21
-4.15664
0
LINE
8
BLACK
6
CONTINUOUS
10
5.52537
20
-4.15664
11
5.52763
21
-4.14819
0
LINE
8
BLACK
6
CONTINUOUS
10
5.52763
20
-4.14819
11
5.53133
21
-4.14026
0
LINE
8
BLACK
6
CONTINUOUS
10
5.53133
20
-4.14026
11
5.53635
21
-4.13309
0
LINE
8
BLACK
6
CONTINUOUS
10
5.53635
20
-4.13309
11
5.54254
21
-4.1269
0
LINE
8
BLACK
6
CONTINUOUS
10
5.54254
20
-4.1269
11
5.5497
21
-4.12188
0
LINE
8
BLACK
6
CONTINUOUS
10
5.5497
20
-4.12188
11
5.55763
21
-4.11818
0
LINE
8
BLACK
6
CONTINUOUS
10
5.55763
20
-4.11818
11
5.56609
21
-4.11592
0
LINE
8
BLACK
6
CONTINUOUS
10
5.56609
20
-4.11592
11
5.5748
21
-4.11516
0
LINE
8
BLACK
6
CONTINUOUS
10
5.5748
20
-4.11516
11
5.58352
21
-4.11592
0
LINE
8
BLACK
6
CONTINUOUS
10
5.52713
20
-4.17376
11
5.52931
21
-4.18191
0
LINE
8
BLACK
6
CONTINUOUS
10
5.52931
20
-4.18191
11
5.53288
21
-4.18956
0
LINE
8
BLACK
6
CONTINUOUS
10
5.53288
20
-4.18956
11
5.53772
21
-4.19647
0
LINE
8
BLACK
6
CONTINUOUS
10
5.53772
20
-4.19647
11
5.54368
21
-4.20244
0
LINE
8
BLACK
6
CONTINUOUS
10
5.54368
20
-4.20244
11
5.5506
21
-4.20728
0
LINE
8
BLACK
6
CONTINUOUS
10
5.5506
20
-4.20728
11
5.55825
21
-4.21085
0
LINE
8
BLACK
6
CONTINUOUS
10
5.55825
20
-4.21085
11
5.5664
21
-4.21303
0
LINE
8
BLACK
6
CONTINUOUS
10
5.5664
20
-4.21303
11
5.5748
21
-4.21377
0
LINE
8
BLACK
6
CONTINUOUS
10
5.5748
20
-4.21377
11
5.58321
21
-4.21303
0
LINE
8
BLACK
6
CONTINUOUS
10
5.58321
20
-4.21303
11
5.59136
21
-4.21085
0
LINE
8
BLACK
6
CONTINUOUS
10
5.59136
20
-4.21085
11
5.59901
21
-4.20728
0
LINE
8
BLACK
6
CONTINUOUS
10
5.59901
20
-4.20728
11
5.60592
21
-4.20244
0
LINE
8
BLACK
6
CONTINUOUS
10
5.60592
20
-4.20244
11
5.61189
21
-4.19647
0
LINE
8
BLACK
6
CONTINUOUS
10
5.61189
20
-4.19647
11
5.61673
21
-4.18956
0
LINE
8
BLACK
6
CONTINUOUS
10
5.61673
20
-4.18956
11
5.6203
21
-4.18191
0
LINE
8
BLACK
6
CONTINUOUS
10
5.6203
20
-4.18191
11
5.62248
21
-4.17376
0
LINE
8
BLACK
6
CONTINUOUS
10
5.62248
20
-4.17376
11
5.62322
21
-4.16535
0
LINE
8
BLACK
6
CONTINUOUS
10
5.62322
20
-4.16535
11
5.62248
21
-4.15695
0
LINE
8
BLACK
6
CONTINUOUS
10
5.62248
20
-4.15695
11
5.6203
21
-4.1488
0
LINE
8
BLACK
6
CONTINUOUS
10
5.6203
20
-4.1488
11
5.61673
21
-4.14115
0
LINE
8
BLACK
6
CONTINUOUS
10
5.61673
20
-4.14115
11
5.61189
21
-4.13424
0
LINE
8
BLACK
6
CONTINUOUS
10
5.61189
20
-4.13424
11
5.60592
21
-4.12827
0
LINE
8
BLACK
6
CONTINUOUS
10
5.60592
20
-4.12827
11
5.59901
21
-4.12343
0
LINE
8
BLACK
6
CONTINUOUS
10
5.59901
20
-4.12343
11
5.59136
21
-4.11986
0
LINE
8
BLACK
6
CONTINUOUS
10
5.59136
20
-4.11986
11
5.58321
21
-4.11768
0
LINE
8
BLACK
6
CONTINUOUS
10
5.58321
20
-4.11768
11
5.5748
21
-4.11694
0
LINE
8
BLACK
6
CONTINUOUS
10
5.5748
20
-4.11694
11
5.5664
21
-4.11768
0
LINE
8
BLACK
6
CONTINUOUS
10
5.5664
20
-4.11768
11
5.55825
21
-4.11986
0
LINE
8
BLACK
6
CONTINUOUS
10
5.55825
20
-4.11986
11
5.5506
21
-4.12343
0
LINE
8
BLACK
6
CONTINUOUS
10
5.5506
20
-4.12343
11
5.54368
21
-4.12827
0
LINE
8
BLACK
6
CONTINUOUS
10
5.54368
20
-4.12827
11
5.53772
21
-4.13424
0
LINE
8
BLACK
6
CONTINUOUS
10
5.53772
20
-4.13424
11
5.53288
21
-4.14115
0
LINE
8
BLACK
6
CONTINUOUS
10
5.53288
20
-4.14115
11
5.52931
21
-4.1488
0
LINE
8
BLACK
6
CONTINUOUS
10
5.52931
20
-4.1488
11
5.52713
21
-4.15695
0
LINE
8
BLACK
6
CONTINUOUS
10
5.52713
20
-4.15695
11
5.52639
21
-4.16535
0
LINE
8
BLACK
6
CONTINUOUS
10
5.52639
20
-4.16535
11
5.52713
21
-4.17376
0
LINE
8
BLACK
6
CONTINUOUS
10
5.35614
20
-4.06791
11
5.35684
21
-4.0682
0
LINE
8
BLACK
6
CONTINUOUS
10
5.35684
20
-4.0682
11
5.35713
21
-4.0689
0
LINE
8
BLACK
6
CONTINUOUS
10
5.35713
20
-4.0689
11
5.35713
21
-4.1437
0
LINE
8
BLACK
6
CONTINUOUS
10
5.35713
20
-4.1437
11
5.35684
21
-4.1444
0
LINE
8
BLACK
6
CONTINUOUS
10
5.35684
20
-4.1444
11
5.35614
21
-4.14469
0
LINE
8
BLACK
6
CONTINUOUS
10
5.35614
20
-4.14469
11
5.22386
21
-4.14469
0
LINE
8
BLACK
6
CONTINUOUS
10
5.22386
20
-4.14469
11
5.22316
21
-4.1444
0
LINE
8
BLACK
6
CONTINUOUS
10
5.22316
20
-4.1444
11
5.22287
21
-4.1437
0
LINE
8
BLACK
6
CONTINUOUS
10
5.22287
20
-4.1437
11
5.22287
21
-4.0689
0
LINE
8
BLACK
6
CONTINUOUS
10
5.22287
20
-4.0689
11
5.22316
21
-4.0682
0
LINE
8
BLACK
6
CONTINUOUS
10
5.22316
20
-4.0682
11
5.22386
21
-4.06791
0
LINE
8
BLACK
6
CONTINUOUS
10
5.22386
20
-4.06791
11
5.35614
21
-4.06791
0
LINE
8
BLACK
6
CONTINUOUS
10
5.22484
20
-4.06988
11
5.22484
21
-4.14272
0
LINE
8
BLACK
6
CONTINUOUS
10
5.22484
20
-4.14272
11
5.35516
21
-4.14272
0
LINE
8
BLACK
6
CONTINUOUS
10
5.35516
20
-4.14272
11
5.35516
21
-4.06988
0
LINE
8
BLACK
6
CONTINUOUS
10
5.35516
20
-4.06988
11
5.22484
21
-4.06988
0
LINE
8
BLACK
6
CONTINUOUS
10
5.50758
20
-4.06791
11
5.50827
21
-4.0682
0
LINE
8
BLACK
6
CONTINUOUS
10
5.50827
20
-4.0682
11
5.50856
21
-4.0689
0
LINE
8
BLACK
6
CONTINUOUS
10
5.50856
20
-4.0689
11
5.50856
21
-4.1437
0
LINE
8
BLACK
6
CONTINUOUS
10
5.50856
20
-4.1437
11
5.50827
21
-4.1444
0
LINE
8
BLACK
6
CONTINUOUS
10
5.50827
20
-4.1444
11
5.50758
21
-4.14469
0
LINE
8
BLACK
6
CONTINUOUS
10
5.50758
20
-4.14469
11
5.3753
21
-4.14469
0
LINE
8
BLACK
6
CONTINUOUS
10
5.3753
20
-4.14469
11
5.3746
21
-4.1444
0
LINE
8
BLACK
6
CONTINUOUS
10
5.3746
20
-4.1444
11
5.37431
21
-4.1437
0
LINE
8
BLACK
6
CONTINUOUS
10
5.37431
20
-4.1437
11
5.37431
21
-4.0689
0
LINE
8
BLACK
6
CONTINUOUS
10
5.37431
20
-4.0689
11
5.3746
21
-4.0682
0
LINE
8
BLACK
6
CONTINUOUS
10
5.3746
20
-4.0682
11
5.3753
21
-4.06791
0
LINE
8
BLACK
6
CONTINUOUS
10
5.3753
20
-4.06791
11
5.50758
21
-4.06791
0
LINE
8
BLACK
6
CONTINUOUS
10
5.37628
20
-4.06988
11
5.37628
21
-4.14272
0
LINE
8
BLACK
6
CONTINUOUS
10
5.37628
20
-4.14272
11
5.50659
21
-4.14272
0
LINE
8
BLACK
6
CONTINUOUS
10
5.50659
20
-4.14272
11
5.50659
21
-4.06988
0
LINE
8
BLACK
6
CONTINUOUS
10
5.50659
20
-4.06988
11
5.37628
21
-4.06988
  0
ENDSEC
  0
EOF
