  0
SECTION
  2
HEADER
  9
$ANGBASE
  50
0.0
  9
$ANGDIR
  70
1
  9
$MEASUREMENT
  70
0
  0
ENDSEC
  0
SECTION
  2
TABLES
  0
TABLE
  2
LTYPE
  70
4
  0
LTYPE
  5
40F
  2
CONTINUOUS
  70
0
  3
Solid line
  72
65
  73
0
  40
0.0
  0
LTYPE
  5
410
  2
DASHDOT
 70
0
  3
Dash Dot ____ _ ____ _
 72
65
 73
4
 40
2.0
 49
1.25
 49
-0.25
 49
0.25
 49
-0.25
  0
LTYPE
  5
411
  2
DASHED
 70
0
  3
Dashed __ __ __ __ __
 72
65
 73
2
 40
0.75
 49
0.5
 49
-0.25
  0
LTYPE
  5
43B
  2
DOTTED
 70
0
  3
Dotted .  .  .  .
 72
65
 73
2
 40
0.2
 49
0.0
 49
-0.2
  0
ENDTAB
  0
TABLE
  2
STYLE
  70
4
  0
STYLE
  2
KICAD
  70
0
  40
0
  41
1
  42
1
  50
0
  71
0
  3
isocp.shx
  0
STYLE
  2
KICADB
  70
0
  40
0
  41
1
  42
1
  50
0
  71
0
  3
isocp.shx
  0
STYLE
  2
KICADI
  70
0
  40
0
  41
1
  42
1
  50
15
  71
0
  3
isocp.shx
  0
STYLE
  2
KICADBI
  70
0
  40
0
  41
1
  42
1
  50
15
  71
0
  3
isocp.shx
  0
ENDTAB
  0
TABLE
  2
LAYER
  70
1
  0
LAYER
  2
BLACK
  70
0
  62
7
  6
CONTINUOUS
  0
ENDTAB
  0
ENDSEC
  0
SECTION
  2
ENTITIES
0
LINE
8
BLACK
6
CONTINUOUS
10
5.30107
20
-4.29453
11
5.30427
21
-4.29666
0
LINE
8
BLACK
6
CONTINUOUS
10
5.30427
20
-4.29666
11
5.3064
21
-4.29986
0
LINE
8
BLACK
6
CONTINUOUS
10
5.3064
20
-4.29986
11
5.30715
21
-4.30362
0
LINE
8
BLACK
6
CONTINUOUS
10
5.30715
20
-4.30362
11
5.30715
21
-4.32331
0
LINE
8
BLACK
6
CONTINUOUS
10
5.30715
20
-4.32331
11
5.3064
21
-4.32707
0
LINE
8
BLACK
6
CONTINUOUS
10
5.3064
20
-4.32707
11
5.30427
21
-4.33027
0
LINE
8
BLACK
6
CONTINUOUS
10
5.30427
20
-4.33027
11
5.30107
21
-4.3324
0
LINE
8
BLACK
6
CONTINUOUS
10
5.30107
20
-4.3324
11
5.29731
21
-4.33315
0
LINE
8
BLACK
6
CONTINUOUS
10
5.29731
20
-4.33315
11
5.25991
21
-4.33315
0
LINE
8
BLACK
6
CONTINUOUS
10
5.25991
20
-4.33315
11
5.25614
21
-4.3324
0
LINE
8
BLACK
6
CONTINUOUS
10
5.25614
20
-4.3324
11
5.25295
21
-4.33027
0
LINE
8
BLACK
6
CONTINUOUS
10
5.25295
20
-4.33027
11
5.25081
21
-4.32707
0
LINE
8
BLACK
6
CONTINUOUS
10
5.25081
20
-4.32707
11
5.25006
21
-4.32331
0
LINE
8
BLACK
6
CONTINUOUS
10
5.25006
20
-4.32331
11
5.25006
21
-4.30362
0
LINE
8
BLACK
6
CONTINUOUS
10
5.25006
20
-4.30362
11
5.25081
21
-4.29986
0
LINE
8
BLACK
6
CONTINUOUS
10
5.25081
20
-4.29986
11
5.25295
21
-4.29666
0
LINE
8
BLACK
6
CONTINUOUS
10
5.25295
20
-4.29666
11
5.25614
21
-4.29453
0
LINE
8
BLACK
6
CONTINUOUS
10
5.25614
20
-4.29453
11
5.25991
21
-4.29378
0
LINE
8
BLACK
6
CONTINUOUS
10
5.25991
20
-4.29378
11
5.29731
21
-4.29378
0
LINE
8
BLACK
6
CONTINUOUS
10
5.29731
20
-4.29378
11
5.30107
21
-4.29453
0
LINE
8
BLACK
6
CONTINUOUS
10
5.39107
20
-4.29453
11
5.39427
21
-4.29666
0
LINE
8
BLACK
6
CONTINUOUS
10
5.39427
20
-4.29666
11
5.3964
21
-4.29986
0
LINE
8
BLACK
6
CONTINUOUS
10
5.3964
20
-4.29986
11
5.39715
21
-4.30362
0
LINE
8
BLACK
6
CONTINUOUS
10
5.39715
20
-4.30362
11
5.39715
21
-4.32331
0
LINE
8
BLACK
6
CONTINUOUS
10
5.39715
20
-4.32331
11
5.3964
21
-4.32707
0
LINE
8
BLACK
6
CONTINUOUS
10
5.3964
20
-4.32707
11
5.39427
21
-4.33027
0
LINE
8
BLACK
6
CONTINUOUS
10
5.39427
20
-4.33027
11
5.39107
21
-4.3324
0
LINE
8
BLACK
6
CONTINUOUS
10
5.39107
20
-4.3324
11
5.38731
21
-4.33315
0
LINE
8
BLACK
6
CONTINUOUS
10
5.38731
20
-4.33315
11
5.34991
21
-4.33315
0
LINE
8
BLACK
6
CONTINUOUS
10
5.34991
20
-4.33315
11
5.34614
21
-4.3324
0
LINE
8
BLACK
6
CONTINUOUS
10
5.34614
20
-4.3324
11
5.34295
21
-4.33027
0
LINE
8
BLACK
6
CONTINUOUS
10
5.34295
20
-4.33027
11
5.34081
21
-4.32707
0
LINE
8
BLACK
6
CONTINUOUS
10
5.34081
20
-4.32707
11
5.34006
21
-4.32331
0
LINE
8
BLACK
6
CONTINUOUS
10
5.34006
20
-4.32331
11
5.34006
21
-4.30362
0
LINE
8
BLACK
6
CONTINUOUS
10
5.34006
20
-4.30362
11
5.34081
21
-4.29986
0
LINE
8
BLACK
6
CONTINUOUS
10
5.34081
20
-4.29986
11
5.34295
21
-4.29666
0
LINE
8
BLACK
6
CONTINUOUS
10
5.34295
20
-4.29666
11
5.34614
21
-4.29453
0
LINE
8
BLACK
6
CONTINUOUS
10
5.34614
20
-4.29453
11
5.34991
21
-4.29378
0
LINE
8
BLACK
6
CONTINUOUS
10
5.34991
20
-4.29378
11
5.38731
21
-4.29378
0
LINE
8
BLACK
6
CONTINUOUS
10
5.38731
20
-4.29378
11
5.39107
21
-4.29453
0
LINE
8
BLACK
6
CONTINUOUS
10
5.05301
20
-4.31781
11
5.03135
21
-4.31781
0
LINE
8
BLACK
6
CONTINUOUS
10
5.03135
20
-4.31781
11
5.03135
21
-4.28041
0
LINE
8
BLACK
6
CONTINUOUS
10
5.03135
20
-4.28041
11
5.05301
21
-4.28041
0
LINE
8
BLACK
6
CONTINUOUS
10
5.05301
20
-4.28041
11
5.05301
21
-4.31781
0
LINE
8
BLACK
6
CONTINUOUS
10
5.10222
20
-4.31781
11
5.08057
21
-4.31781
0
LINE
8
BLACK
6
CONTINUOUS
10
5.08057
20
-4.31781
11
5.08057
21
-4.28041
0
LINE
8
BLACK
6
CONTINUOUS
10
5.08057
20
-4.28041
11
5.10222
21
-4.28041
0
LINE
8
BLACK
6
CONTINUOUS
10
5.10222
20
-4.28041
11
5.10222
21
-4.31781
0
LINE
8
BLACK
6
CONTINUOUS
10
5.15143
20
-4.31781
11
5.12978
21
-4.31781
0
LINE
8
BLACK
6
CONTINUOUS
10
5.12978
20
-4.31781
11
5.12978
21
-4.28041
0
LINE
8
BLACK
6
CONTINUOUS
10
5.12978
20
-4.28041
11
5.15143
21
-4.28041
0
LINE
8
BLACK
6
CONTINUOUS
10
5.15143
20
-4.28041
11
5.15143
21
-4.31781
0
LINE
8
BLACK
6
CONTINUOUS
10
5.20065
20
-4.31781
11
5.17899
21
-4.31781
0
LINE
8
BLACK
6
CONTINUOUS
10
5.17899
20
-4.31781
11
5.17899
21
-4.28041
0
LINE
8
BLACK
6
CONTINUOUS
10
5.17899
20
-4.28041
11
5.20065
21
-4.28041
0
LINE
8
BLACK
6
CONTINUOUS
10
5.20065
20
-4.28041
11
5.20065
21
-4.31781
0
LINE
8
BLACK
6
CONTINUOUS
10
5.48014
20
-4.2491
11
5.48334
21
-4.25123
0
LINE
8
BLACK
6
CONTINUOUS
10
5.48334
20
-4.25123
11
5.48547
21
-4.25442
0
LINE
8
BLACK
6
CONTINUOUS
10
5.48547
20
-4.25442
11
5.48622
21
-4.25819
0
LINE
8
BLACK
6
CONTINUOUS
10
5.48622
20
-4.25819
11
5.48622
21
-4.28181
0
LINE
8
BLACK
6
CONTINUOUS
10
5.48622
20
-4.28181
11
5.48547
21
-4.28558
0
LINE
8
BLACK
6
CONTINUOUS
10
5.48547
20
-4.28558
11
5.48334
21
-4.28877
0
LINE
8
BLACK
6
CONTINUOUS
10
5.48334
20
-4.28877
11
5.48014
21
-4.2909
0
LINE
8
BLACK
6
CONTINUOUS
10
5.48014
20
-4.2909
11
5.47638
21
-4.29165
0
LINE
8
BLACK
6
CONTINUOUS
10
5.47638
20
-4.29165
11
5.45276
21
-4.29165
0
LINE
8
BLACK
6
CONTINUOUS
10
5.45276
20
-4.29165
11
5.44899
21
-4.2909
0
LINE
8
BLACK
6
CONTINUOUS
10
5.44899
20
-4.2909
11
5.4458
21
-4.28877
0
LINE
8
BLACK
6
CONTINUOUS
10
5.4458
20
-4.28877
11
5.44366
21
-4.28558
0
LINE
8
BLACK
6
CONTINUOUS
10
5.44366
20
-4.28558
11
5.44291
21
-4.28181
0
LINE
8
BLACK
6
CONTINUOUS
10
5.44291
20
-4.28181
11
5.44291
21
-4.25819
0
LINE
8
BLACK
6
CONTINUOUS
10
5.44291
20
-4.25819
11
5.44366
21
-4.25442
0
LINE
8
BLACK
6
CONTINUOUS
10
5.44366
20
-4.25442
11
5.4458
21
-4.25123
0
LINE
8
BLACK
6
CONTINUOUS
10
5.4458
20
-4.25123
11
5.44899
21
-4.2491
0
LINE
8
BLACK
6
CONTINUOUS
10
5.44899
20
-4.2491
11
5.45276
21
-4.24835
0
LINE
8
BLACK
6
CONTINUOUS
10
5.45276
20
-4.24835
11
5.47638
21
-4.24835
0
LINE
8
BLACK
6
CONTINUOUS
10
5.47638
20
-4.24835
11
5.48014
21
-4.2491
0
LINE
8
BLACK
6
CONTINUOUS
10
5.59038
20
-4.2491
11
5.59357
21
-4.25123
0
LINE
8
BLACK
6
CONTINUOUS
10
5.59357
20
-4.25123
11
5.59571
21
-4.25442
0
LINE
8
BLACK
6
CONTINUOUS
10
5.59571
20
-4.25442
11
5.59646
21
-4.25819
0
LINE
8
BLACK
6
CONTINUOUS
10
5.59646
20
-4.25819
11
5.59646
21
-4.28181
0
LINE
8
BLACK
6
CONTINUOUS
10
5.59646
20
-4.28181
11
5.59571
21
-4.28558
0
LINE
8
BLACK
6
CONTINUOUS
10
5.59571
20
-4.28558
11
5.59357
21
-4.28877
0
LINE
8
BLACK
6
CONTINUOUS
10
5.59357
20
-4.28877
11
5.59038
21
-4.2909
0
LINE
8
BLACK
6
CONTINUOUS
10
5.59038
20
-4.2909
11
5.58661
21
-4.29165
0
LINE
8
BLACK
6
CONTINUOUS
10
5.58661
20
-4.29165
11
5.56299
21
-4.29165
0
LINE
8
BLACK
6
CONTINUOUS
10
5.56299
20
-4.29165
11
5.55923
21
-4.2909
0
LINE
8
BLACK
6
CONTINUOUS
10
5.55923
20
-4.2909
11
5.55603
21
-4.28877
0
LINE
8
BLACK
6
CONTINUOUS
10
5.55603
20
-4.28877
11
5.5539
21
-4.28558
0
LINE
8
BLACK
6
CONTINUOUS
10
5.5539
20
-4.28558
11
5.55315
21
-4.28181
0
LINE
8
BLACK
6
CONTINUOUS
10
5.55315
20
-4.28181
11
5.55315
21
-4.25819
0
LINE
8
BLACK
6
CONTINUOUS
10
5.55315
20
-4.25819
11
5.5539
21
-4.25442
0
LINE
8
BLACK
6
CONTINUOUS
10
5.5539
20
-4.25442
11
5.55603
21
-4.25123
0
LINE
8
BLACK
6
CONTINUOUS
10
5.55603
20
-4.25123
11
5.55923
21
-4.2491
0
LINE
8
BLACK
6
CONTINUOUS
10
5.55923
20
-4.2491
11
5.56299
21
-4.24835
0
LINE
8
BLACK
6
CONTINUOUS
10
5.56299
20
-4.24835
11
5.58661
21
-4.24835
0
LINE
8
BLACK
6
CONTINUOUS
10
5.58661
20
-4.24835
11
5.59038
21
-4.2491
0
LINE
8
BLACK
6
CONTINUOUS
10
5.30107
20
-4.21973
11
5.30427
21
-4.22186
0
LINE
8
BLACK
6
CONTINUOUS
10
5.30427
20
-4.22186
11
5.3064
21
-4.22505
0
LINE
8
BLACK
6
CONTINUOUS
10
5.3064
20
-4.22505
11
5.30715
21
-4.22882
0
LINE
8
BLACK
6
CONTINUOUS
10
5.30715
20
-4.22882
11
5.30715
21
-4.2485
0
LINE
8
BLACK
6
CONTINUOUS
10
5.30715
20
-4.2485
11
5.3064
21
-4.25227
0
LINE
8
BLACK
6
CONTINUOUS
10
5.3064
20
-4.25227
11
5.30427
21
-4.25546
0
LINE
8
BLACK
6
CONTINUOUS
10
5.30427
20
-4.25546
11
5.30107
21
-4.2576
0
LINE
8
BLACK
6
CONTINUOUS
10
5.30107
20
-4.2576
11
5.29731
21
-4.25835
0
LINE
8
BLACK
6
CONTINUOUS
10
5.29731
20
-4.25835
11
5.25991
21
-4.25835
0
LINE
8
BLACK
6
CONTINUOUS
10
5.25991
20
-4.25835
11
5.25614
21
-4.2576
0
LINE
8
BLACK
6
CONTINUOUS
10
5.25614
20
-4.2576
11
5.25295
21
-4.25546
0
LINE
8
BLACK
6
CONTINUOUS
10
5.25295
20
-4.25546
11
5.25081
21
-4.25227
0
LINE
8
BLACK
6
CONTINUOUS
10
5.25081
20
-4.25227
11
5.25006
21
-4.2485
0
LINE
8
BLACK
6
CONTINUOUS
10
5.25006
20
-4.2485
11
5.25006
21
-4.22882
0
LINE
8
BLACK
6
CONTINUOUS
10
5.25006
20
-4.22882
11
5.25081
21
-4.22505
0
LINE
8
BLACK
6
CONTINUOUS
10
5.25081
20
-4.22505
11
5.25295
21
-4.22186
0
LINE
8
BLACK
6
CONTINUOUS
10
5.25295
20
-4.22186
11
5.25614
21
-4.21973
0
LINE
8
BLACK
6
CONTINUOUS
10
5.25614
20
-4.21973
11
5.25991
21
-4.21898
0
LINE
8
BLACK
6
CONTINUOUS
10
5.25991
20
-4.21898
11
5.29731
21
-4.21898
0
LINE
8
BLACK
6
CONTINUOUS
10
5.29731
20
-4.21898
11
5.30107
21
-4.21973
0
LINE
8
BLACK
6
CONTINUOUS
10
5.39107
20
-4.21973
11
5.39427
21
-4.22186
0
LINE
8
BLACK
6
CONTINUOUS
10
5.39427
20
-4.22186
11
5.3964
21
-4.22505
0
LINE
8
BLACK
6
CONTINUOUS
10
5.3964
20
-4.22505
11
5.39715
21
-4.22882
0
LINE
8
BLACK
6
CONTINUOUS
10
5.39715
20
-4.22882
11
5.39715
21
-4.2485
0
LINE
8
BLACK
6
CONTINUOUS
10
5.39715
20
-4.2485
11
5.3964
21
-4.25227
0
LINE
8
BLACK
6
CONTINUOUS
10
5.3964
20
-4.25227
11
5.39427
21
-4.25546
0
LINE
8
BLACK
6
CONTINUOUS
10
5.39427
20
-4.25546
11
5.39107
21
-4.2576
0
LINE
8
BLACK
6
CONTINUOUS
10
5.39107
20
-4.2576
11
5.38731
21
-4.25835
0
LINE
8
BLACK
6
CONTINUOUS
10
5.38731
20
-4.25835
11
5.34991
21
-4.25835
0
LINE
8
BLACK
6
CONTINUOUS
10
5.34991
20
-4.25835
11
5.34614
21
-4.2576
0
LINE
8
BLACK
6
CONTINUOUS
10
5.34614
20
-4.2576
11
5.34295
21
-4.25546
0
LINE
8
BLACK
6
CONTINUOUS
10
5.34295
20
-4.25546
11
5.34081
21
-4.25227
0
LINE
8
BLACK
6
CONTINUOUS
10
5.34081
20
-4.25227
11
5.34006
21
-4.2485
0
LINE
8
BLACK
6
CONTINUOUS
10
5.34006
20
-4.2485
11
5.34006
21
-4.22882
0
LINE
8
BLACK
6
CONTINUOUS
10
5.34006
20
-4.22882
11
5.34081
21
-4.22505
0
LINE
8
BLACK
6
CONTINUOUS
10
5.34081
20
-4.22505
11
5.34295
21
-4.22186
0
LINE
8
BLACK
6
CONTINUOUS
10
5.34295
20
-4.22186
11
5.34614
21
-4.21973
0
LINE
8
BLACK
6
CONTINUOUS
10
5.34614
20
-4.21973
11
5.34991
21
-4.21898
0
LINE
8
BLACK
6
CONTINUOUS
10
5.34991
20
-4.21898
11
5.38731
21
-4.21898
0
LINE
8
BLACK
6
CONTINUOUS
10
5.38731
20
-4.21898
11
5.39107
21
-4.21973
0
LINE
8
BLACK
6
CONTINUOUS
10
5.05301
20
-4.23317
11
5.03135
21
-4.23317
0
LINE
8
BLACK
6
CONTINUOUS
10
5.03135
20
-4.23317
11
5.03135
21
-4.19576
0
LINE
8
BLACK
6
CONTINUOUS
10
5.03135
20
-4.19576
11
5.05301
21
-4.19576
0
LINE
8
BLACK
6
CONTINUOUS
10
5.05301
20
-4.19576
11
5.05301
21
-4.23317
0
LINE
8
BLACK
6
CONTINUOUS
10
5.10222
20
-4.23317
11
5.08057
21
-4.23317
0
LINE
8
BLACK
6
CONTINUOUS
10
5.08057
20
-4.23317
11
5.08057
21
-4.19576
0
LINE
8
BLACK
6
CONTINUOUS
10
5.08057
20
-4.19576
11
5.10222
21
-4.19576
0
LINE
8
BLACK
6
CONTINUOUS
10
5.10222
20
-4.19576
11
5.10222
21
-4.23317
0
LINE
8
BLACK
6
CONTINUOUS
10
5.15143
20
-4.23317
11
5.12978
21
-4.23317
0
LINE
8
BLACK
6
CONTINUOUS
10
5.12978
20
-4.23317
11
5.12978
21
-4.19576
0
LINE
8
BLACK
6
CONTINUOUS
10
5.12978
20
-4.19576
11
5.15143
21
-4.19576
0
LINE
8
BLACK
6
CONTINUOUS
10
5.15143
20
-4.19576
11
5.15143
21
-4.23317
0
LINE
8
BLACK
6
CONTINUOUS
10
5.20065
20
-4.23317
11
5.17899
21
-4.23317
0
LINE
8
BLACK
6
CONTINUOUS
10
5.17899
20
-4.23317
11
5.17899
21
-4.19576
0
LINE
8
BLACK
6
CONTINUOUS
10
5.17899
20
-4.19576
11
5.20065
21
-4.19576
0
LINE
8
BLACK
6
CONTINUOUS
10
5.20065
20
-4.19576
11
5.20065
21
-4.23317
0
LINE
8
BLACK
6
CONTINUOUS
10
5.2769
20
-4.07949
11
5.28009
21
-4.08162
0
LINE
8
BLACK
6
CONTINUOUS
10
5.28009
20
-4.08162
11
5.28222
21
-4.08482
0
LINE
8
BLACK
6
CONTINUOUS
10
5.28222
20
-4.08482
11
5.28297
21
-4.08858
0
LINE
8
BLACK
6
CONTINUOUS
10
5.28297
20
-4.08858
11
5.28297
21
-4.12402
0
LINE
8
BLACK
6
CONTINUOUS
10
5.28297
20
-4.12402
11
5.28222
21
-4.12778
0
LINE
8
BLACK
6
CONTINUOUS
10
5.28222
20
-4.12778
11
5.28009
21
-4.13098
0
LINE
8
BLACK
6
CONTINUOUS
10
5.28009
20
-4.13098
11
5.2769
21
-4.13311
0
LINE
8
BLACK
6
CONTINUOUS
10
5.2769
20
-4.13311
11
5.27313
21
-4.13386
0
LINE
8
BLACK
6
CONTINUOUS
10
5.27313
20
-4.13386
11
5.25246
21
-4.13386
0
LINE
8
BLACK
6
CONTINUOUS
10
5.25246
20
-4.13386
11
5.24869
21
-4.13311
0
LINE
8
BLACK
6
CONTINUOUS
10
5.24869
20
-4.13311
11
5.2455
21
-4.13098
0
LINE
8
BLACK
6
CONTINUOUS
10
5.2455
20
-4.13098
11
5.24337
21
-4.12778
0
LINE
8
BLACK
6
CONTINUOUS
10
5.24337
20
-4.12778
11
5.24262
21
-4.12402
0
LINE
8
BLACK
6
CONTINUOUS
10
5.24262
20
-4.12402
11
5.24262
21
-4.08858
0
LINE
8
BLACK
6
CONTINUOUS
10
5.24262
20
-4.08858
11
5.24337
21
-4.08482
0
LINE
8
BLACK
6
CONTINUOUS
10
5.24337
20
-4.08482
11
5.2455
21
-4.08162
0
LINE
8
BLACK
6
CONTINUOUS
10
5.2455
20
-4.08162
11
5.24869
21
-4.07949
0
LINE
8
BLACK
6
CONTINUOUS
10
5.24869
20
-4.07949
11
5.25246
21
-4.07874
0
LINE
8
BLACK
6
CONTINUOUS
10
5.25246
20
-4.07874
11
5.27313
21
-4.07874
0
LINE
8
BLACK
6
CONTINUOUS
10
5.27313
20
-4.07874
11
5.2769
21
-4.07949
0
LINE
8
BLACK
6
CONTINUOUS
10
5.34875
20
-4.07949
11
5.35194
21
-4.08162
0
LINE
8
BLACK
6
CONTINUOUS
10
5.35194
20
-4.08162
11
5.35407
21
-4.08482
0
LINE
8
BLACK
6
CONTINUOUS
10
5.35407
20
-4.08482
11
5.35482
21
-4.08858
0
LINE
8
BLACK
6
CONTINUOUS
10
5.35482
20
-4.08858
11
5.35482
21
-4.12402
0
LINE
8
BLACK
6
CONTINUOUS
10
5.35482
20
-4.12402
11
5.35407
21
-4.12778
0
LINE
8
BLACK
6
CONTINUOUS
10
5.35407
20
-4.12778
11
5.35194
21
-4.13098
0
LINE
8
BLACK
6
CONTINUOUS
10
5.35194
20
-4.13098
11
5.34875
21
-4.13311
0
LINE
8
BLACK
6
CONTINUOUS
10
5.34875
20
-4.13311
11
5.34498
21
-4.13386
0
LINE
8
BLACK
6
CONTINUOUS
10
5.34498
20
-4.13386
11
5.32431
21
-4.13386
0
LINE
8
BLACK
6
CONTINUOUS
10
5.32431
20
-4.13386
11
5.32054
21
-4.13311
0
LINE
8
BLACK
6
CONTINUOUS
10
5.32054
20
-4.13311
11
5.31735
21
-4.13098
0
LINE
8
BLACK
6
CONTINUOUS
10
5.31735
20
-4.13098
11
5.31522
21
-4.12778
0
LINE
8
BLACK
6
CONTINUOUS
10
5.31522
20
-4.12778
11
5.31447
21
-4.12402
0
LINE
8
BLACK
6
CONTINUOUS
10
5.31447
20
-4.12402
11
5.31447
21
-4.08858
0
LINE
8
BLACK
6
CONTINUOUS
10
5.31447
20
-4.08858
11
5.31522
21
-4.08482
0
LINE
8
BLACK
6
CONTINUOUS
10
5.31522
20
-4.08482
11
5.31735
21
-4.08162
0
LINE
8
BLACK
6
CONTINUOUS
10
5.31735
20
-4.08162
11
5.32054
21
-4.07949
0
LINE
8
BLACK
6
CONTINUOUS
10
5.32054
20
-4.07949
11
5.32431
21
-4.07874
0
LINE
8
BLACK
6
CONTINUOUS
10
5.32431
20
-4.07874
11
5.34498
21
-4.07874
0
LINE
8
BLACK
6
CONTINUOUS
10
5.34498
20
-4.07874
11
5.34875
21
-4.07949
0
LINE
8
BLACK
6
CONTINUOUS
10
5.41961
20
-4.07949
11
5.42281
21
-4.08162
0
LINE
8
BLACK
6
CONTINUOUS
10
5.42281
20
-4.08162
11
5.42494
21
-4.08482
0
LINE
8
BLACK
6
CONTINUOUS
10
5.42494
20
-4.08482
11
5.42569
21
-4.08858
0
LINE
8
BLACK
6
CONTINUOUS
10
5.42569
20
-4.08858
11
5.42569
21
-4.12402
0
LINE
8
BLACK
6
CONTINUOUS
10
5.42569
20
-4.12402
11
5.42494
21
-4.12778
0
LINE
8
BLACK
6
CONTINUOUS
10
5.42494
20
-4.12778
11
5.42281
21
-4.13098
0
LINE
8
BLACK
6
CONTINUOUS
10
5.42281
20
-4.13098
11
5.41961
21
-4.13311
0
LINE
8
BLACK
6
CONTINUOUS
10
5.41961
20
-4.13311
11
5.41585
21
-4.13386
0
LINE
8
BLACK
6
CONTINUOUS
10
5.41585
20
-4.13386
11
5.39518
21
-4.13386
0
LINE
8
BLACK
6
CONTINUOUS
10
5.39518
20
-4.13386
11
5.39141
21
-4.13311
0
LINE
8
BLACK
6
CONTINUOUS
10
5.39141
20
-4.13311
11
5.38822
21
-4.13098
0
LINE
8
BLACK
6
CONTINUOUS
10
5.38822
20
-4.13098
11
5.38608
21
-4.12778
0
LINE
8
BLACK
6
CONTINUOUS
10
5.38608
20
-4.12778
11
5.38533
21
-4.12402
0
LINE
8
BLACK
6
CONTINUOUS
10
5.38533
20
-4.12402
11
5.38533
21
-4.08858
0
LINE
8
BLACK
6
CONTINUOUS
10
5.38533
20
-4.08858
11
5.38608
21
-4.08482
0
LINE
8
BLACK
6
CONTINUOUS
10
5.38608
20
-4.08482
11
5.38822
21
-4.08162
0
LINE
8
BLACK
6
CONTINUOUS
10
5.38822
20
-4.08162
11
5.39141
21
-4.07949
0
LINE
8
BLACK
6
CONTINUOUS
10
5.39141
20
-4.07949
11
5.39518
21
-4.07874
0
LINE
8
BLACK
6
CONTINUOUS
10
5.39518
20
-4.07874
11
5.41585
21
-4.07874
0
LINE
8
BLACK
6
CONTINUOUS
10
5.41585
20
-4.07874
11
5.41961
21
-4.07949
0
LINE
8
BLACK
6
CONTINUOUS
10
5.49146
20
-4.07949
11
5.49466
21
-4.08162
0
LINE
8
BLACK
6
CONTINUOUS
10
5.49466
20
-4.08162
11
5.49679
21
-4.08482
0
LINE
8
BLACK
6
CONTINUOUS
10
5.49679
20
-4.08482
11
5.49754
21
-4.08858
0
LINE
8
BLACK
6
CONTINUOUS
10
5.49754
20
-4.08858
11
5.49754
21
-4.12402
0
LINE
8
BLACK
6
CONTINUOUS
10
5.49754
20
-4.12402
11
5.49679
21
-4.12778
0
LINE
8
BLACK
6
CONTINUOUS
10
5.49679
20
-4.12778
11
5.49466
21
-4.13098
0
LINE
8
BLACK
6
CONTINUOUS
10
5.49466
20
-4.13098
11
5.49146
21
-4.13311
0
LINE
8
BLACK
6
CONTINUOUS
10
5.49146
20
-4.13311
11
5.4877
21
-4.13386
0
LINE
8
BLACK
6
CONTINUOUS
10
5.4877
20
-4.13386
11
5.46703
21
-4.13386
0
LINE
8
BLACK
6
CONTINUOUS
10
5.46703
20
-4.13386
11
5.46326
21
-4.13311
0
LINE
8
BLACK
6
CONTINUOUS
10
5.46326
20
-4.13311
11
5.46007
21
-4.13098
0
LINE
8
BLACK
6
CONTINUOUS
10
5.46007
20
-4.13098
11
5.45793
21
-4.12778
0
LINE
8
BLACK
6
CONTINUOUS
10
5.45793
20
-4.12778
11
5.45719
21
-4.12402
0
LINE
8
BLACK
6
CONTINUOUS
10
5.45719
20
-4.12402
11
5.45719
21
-4.08858
0
LINE
8
BLACK
6
CONTINUOUS
10
5.45719
20
-4.08858
11
5.45793
21
-4.08482
0
LINE
8
BLACK
6
CONTINUOUS
10
5.45793
20
-4.08482
11
5.46007
21
-4.08162
0
LINE
8
BLACK
6
CONTINUOUS
10
5.46007
20
-4.08162
11
5.46326
21
-4.07949
0
LINE
8
BLACK
6
CONTINUOUS
10
5.46326
20
-4.07949
11
5.46703
21
-4.07874
0
LINE
8
BLACK
6
CONTINUOUS
10
5.46703
20
-4.07874
11
5.4877
21
-4.07874
0
LINE
8
BLACK
6
CONTINUOUS
10
5.4877
20
-4.07874
11
5.49146
21
-4.07949
  0
ENDSEC
  0
EOF
