  0
SECTION
  2
HEADER
  9
$ANGBASE
  50
0.0
  9
$ANGDIR
  70
1
  9
$MEASUREMENT
  70
0
  0
ENDSEC
  0
SECTION
  2
TABLES
  0
TABLE
  2
LTYPE
  70
4
  0
LTYPE
  5
40F
  2
CONTINUOUS
  70
0
  3
Solid line
  72
65
  73
0
  40
0.0
  0
LTYPE
  5
410
  2
DASHDOT
 70
0
  3
Dash Dot ____ _ ____ _
 72
65
 73
4
 40
2.0
 49
1.25
 49
-0.25
 49
0.25
 49
-0.25
  0
LTYPE
  5
411
  2
DASHED
 70
0
  3
Dashed __ __ __ __ __
 72
65
 73
2
 40
0.75
 49
0.5
 49
-0.25
  0
LTYPE
  5
43B
  2
DOTTED
 70
0
  3
Dotted .  .  .  .
 72
65
 73
2
 40
0.2
 49
0.0
 49
-0.2
  0
ENDTAB
  0
TABLE
  2
STYLE
  70
4
  0
STYLE
  2
KICAD
  70
0
  40
0
  41
1
  42
1
  50
0
  71
0
  3
isocp.shx
  0
STYLE
  2
KICADB
  70
0
  40
0
  41
1
  42
1
  50
0
  71
0
  3
isocp.shx
  0
STYLE
  2
KICADI
  70
0
  40
0
  41
1
  42
1
  50
15
  71
0
  3
isocp.shx
  0
STYLE
  2
KICADBI
  70
0
  40
0
  41
1
  42
1
  50
15
  71
0
  3
isocp.shx
  0
ENDTAB
  0
TABLE
  2
LAYER
  70
1
  0
LAYER
  2
BLACK
  70
0
  62
7
  6
CONTINUOUS
  0
ENDTAB
  0
ENDSEC
  0
SECTION
  2
ENTITIES
0
LINE
8
BLACK
6
CONTINUOUS
10
5.49566
20
-4.32071
11
5.49583
21
-4.3207
0
LINE
8
BLACK
6
CONTINUOUS
10
5.49583
20
-4.3207
11
5.49652
21
-4.32121
0
LINE
8
BLACK
6
CONTINUOUS
10
5.49652
20
-4.32121
11
5.49726
21
-4.32164
0
LINE
8
BLACK
6
CONTINUOUS
10
5.49726
20
-4.32164
11
5.49732
21
-4.3218
0
LINE
8
BLACK
6
CONTINUOUS
10
5.49732
20
-4.3218
11
5.49746
21
-4.3219
0
LINE
8
BLACK
6
CONTINUOUS
10
5.49746
20
-4.3219
11
5.50104
21
-4.32728
0
LINE
8
BLACK
6
CONTINUOUS
10
5.50104
20
-4.32728
11
5.50425
21
-4.33048
0
LINE
8
BLACK
6
CONTINUOUS
10
5.50425
20
-4.33048
11
5.50757
21
-4.33214
0
LINE
8
BLACK
6
CONTINUOUS
10
5.50757
20
-4.33214
11
5.50839
21
-4.33275
0
LINE
8
BLACK
6
CONTINUOUS
10
5.50839
20
-4.33275
11
5.5092
21
-4.33461
0
LINE
8
BLACK
6
CONTINUOUS
10
5.5092
20
-4.33461
11
5.50862
21
-4.33654
0
LINE
8
BLACK
6
CONTINUOUS
10
5.50862
20
-4.33654
11
5.50693
21
-4.33766
0
LINE
8
BLACK
6
CONTINUOUS
10
5.50693
20
-4.33766
11
5.50493
21
-4.33743
0
LINE
8
BLACK
6
CONTINUOUS
10
5.50493
20
-4.33743
11
5.50118
21
-4.33555
0
LINE
8
BLACK
6
CONTINUOUS
10
5.50118
20
-4.33555
11
5.50047
21
-4.33503
0
LINE
8
BLACK
6
CONTINUOUS
10
5.50047
20
-4.33503
11
5.50041
21
-4.335
0
LINE
8
BLACK
6
CONTINUOUS
10
5.50041
20
-4.335
11
5.49795
21
-4.33254
0
LINE
8
BLACK
6
CONTINUOUS
10
5.49795
20
-4.33254
11
5.49795
21
-4.35995
0
LINE
8
BLACK
6
CONTINUOUS
10
5.49795
20
-4.35995
11
5.50625
21
-4.35995
0
LINE
8
BLACK
6
CONTINUOUS
10
5.50625
20
-4.35995
11
5.50726
21
-4.36013
0
LINE
8
BLACK
6
CONTINUOUS
10
5.50726
20
-4.36013
11
5.50881
21
-4.36143
0
LINE
8
BLACK
6
CONTINUOUS
10
5.50881
20
-4.36143
11
5.50916
21
-4.36342
0
LINE
8
BLACK
6
CONTINUOUS
10
5.50916
20
-4.36342
11
5.50815
21
-4.36517
0
LINE
8
BLACK
6
CONTINUOUS
10
5.50815
20
-4.36517
11
5.50625
21
-4.36586
0
LINE
8
BLACK
6
CONTINUOUS
10
5.50625
20
-4.36586
11
5.48375
21
-4.36586
0
LINE
8
BLACK
6
CONTINUOUS
10
5.48375
20
-4.36586
11
5.48274
21
-4.36568
0
LINE
8
BLACK
6
CONTINUOUS
10
5.48274
20
-4.36568
11
5.48119
21
-4.36438
0
LINE
8
BLACK
6
CONTINUOUS
10
5.48119
20
-4.36438
11
5.48084
21
-4.36239
0
LINE
8
BLACK
6
CONTINUOUS
10
5.48084
20
-4.36239
11
5.48185
21
-4.36064
0
LINE
8
BLACK
6
CONTINUOUS
10
5.48185
20
-4.36064
11
5.48375
21
-4.35995
0
LINE
8
BLACK
6
CONTINUOUS
10
5.48375
20
-4.35995
11
5.49205
21
-4.35995
0
LINE
8
BLACK
6
CONTINUOUS
10
5.49205
20
-4.35995
11
5.49205
21
-4.32354
0
LINE
8
BLACK
6
CONTINUOUS
10
5.49205
20
-4.32354
11
5.49223
21
-4.32253
0
LINE
8
BLACK
6
CONTINUOUS
10
5.49223
20
-4.32253
11
5.49233
21
-4.3224
0
LINE
8
BLACK
6
CONTINUOUS
10
5.49233
20
-4.3224
11
5.49235
21
-4.32223
0
LINE
8
BLACK
6
CONTINUOUS
10
5.49235
20
-4.32223
11
5.49297
21
-4.32164
0
LINE
8
BLACK
6
CONTINUOUS
10
5.49297
20
-4.32164
11
5.49352
21
-4.32098
0
LINE
8
BLACK
6
CONTINUOUS
10
5.49352
20
-4.32098
11
5.49369
21
-4.32095
0
LINE
8
BLACK
6
CONTINUOUS
10
5.49369
20
-4.32095
11
5.49381
21
-4.32083
0
LINE
8
BLACK
6
CONTINUOUS
10
5.49381
20
-4.32083
11
5.49467
21
-4.32078
0
LINE
8
BLACK
6
CONTINUOUS
10
5.49467
20
-4.32078
11
5.49551
21
-4.32063
0
LINE
8
BLACK
6
CONTINUOUS
10
5.49551
20
-4.32063
11
5.49566
21
-4.32071
0
LINE
8
BLACK
6
CONTINUOUS
10
5.54413
20
-4.32065
11
5.54426
21
-4.32063
0
LINE
8
BLACK
6
CONTINUOUS
10
5.54426
20
-4.32063
11
5.54437
21
-4.32069
0
LINE
8
BLACK
6
CONTINUOUS
10
5.54437
20
-4.32069
11
5.54475
21
-4.32076
0
LINE
8
BLACK
6
CONTINUOUS
10
5.54475
20
-4.32076
11
5.54534
21
-4.32125
0
LINE
8
BLACK
6
CONTINUOUS
10
5.54534
20
-4.32125
11
5.54601
21
-4.32164
0
LINE
8
BLACK
6
CONTINUOUS
10
5.54601
20
-4.32164
11
5.5461
21
-4.32189
0
LINE
8
BLACK
6
CONTINUOUS
10
5.5461
20
-4.32189
11
5.5463
21
-4.32206
0
LINE
8
BLACK
6
CONTINUOUS
10
5.5463
20
-4.32206
11
5.54643
21
-4.32282
0
LINE
8
BLACK
6
CONTINUOUS
10
5.54643
20
-4.32282
11
5.5467
21
-4.32354
0
LINE
8
BLACK
6
CONTINUOUS
10
5.5467
20
-4.32354
11
5.5467
21
-4.36291
0
LINE
8
BLACK
6
CONTINUOUS
10
5.5467
20
-4.36291
11
5.54663
21
-4.36329
0
LINE
8
BLACK
6
CONTINUOUS
10
5.54663
20
-4.36329
11
5.54665
21
-4.36342
0
LINE
8
BLACK
6
CONTINUOUS
10
5.54665
20
-4.36342
11
5.54659
21
-4.36353
0
LINE
8
BLACK
6
CONTINUOUS
10
5.54659
20
-4.36353
11
5.54652
21
-4.36392
0
LINE
8
BLACK
6
CONTINUOUS
10
5.54652
20
-4.36392
11
5.54603
21
-4.3645
0
LINE
8
BLACK
6
CONTINUOUS
10
5.54603
20
-4.3645
11
5.54564
21
-4.36517
0
LINE
8
BLACK
6
CONTINUOUS
10
5.54564
20
-4.36517
11
5.54539
21
-4.36526
0
LINE
8
BLACK
6
CONTINUOUS
10
5.54539
20
-4.36526
11
5.54522
21
-4.36546
0
LINE
8
BLACK
6
CONTINUOUS
10
5.54522
20
-4.36546
11
5.54446
21
-4.3656
0
LINE
8
BLACK
6
CONTINUOUS
10
5.54446
20
-4.3656
11
5.54374
21
-4.36586
0
LINE
8
BLACK
6
CONTINUOUS
10
5.54374
20
-4.36586
11
5.53437
21
-4.36586
0
LINE
8
BLACK
6
CONTINUOUS
10
5.53437
20
-4.36586
11
5.5335
21
-4.36571
0
LINE
8
BLACK
6
CONTINUOUS
10
5.5335
20
-4.36571
11
5.53344
21
-4.36571
0
LINE
8
BLACK
6
CONTINUOUS
10
5.53344
20
-4.36571
11
5.52781
21
-4.36383
0
LINE
8
BLACK
6
CONTINUOUS
10
5.52781
20
-4.36383
11
5.52691
21
-4.36334
0
LINE
8
BLACK
6
CONTINUOUS
10
5.52691
20
-4.36334
11
5.52682
21
-4.36319
0
LINE
8
BLACK
6
CONTINUOUS
10
5.52682
20
-4.36319
11
5.52666
21
-4.36312
0
LINE
8
BLACK
6
CONTINUOUS
10
5.52666
20
-4.36312
11
5.52291
21
-4.35937
0
LINE
8
BLACK
6
CONTINUOUS
10
5.52291
20
-4.35937
11
5.5224
21
-4.35865
0
LINE
8
BLACK
6
CONTINUOUS
10
5.5224
20
-4.35865
11
5.52236
21
-4.3586
0
LINE
8
BLACK
6
CONTINUOUS
10
5.52236
20
-4.3586
11
5.52048
21
-4.35485
0
LINE
8
BLACK
6
CONTINUOUS
10
5.52048
20
-4.35485
11
5.52034
21
-4.35436
0
LINE
8
BLACK
6
CONTINUOUS
10
5.52034
20
-4.35436
11
5.52026
21
-4.35425
0
LINE
8
BLACK
6
CONTINUOUS
10
5.52026
20
-4.35425
11
5.51838
21
-4.34675
0
LINE
8
BLACK
6
CONTINUOUS
10
5.51838
20
-4.34675
11
5.51834
21
-4.34616
0
LINE
8
BLACK
6
CONTINUOUS
10
5.51834
20
-4.34616
11
5.51829
21
-4.34603
0
LINE
8
BLACK
6
CONTINUOUS
10
5.51829
20
-4.34603
11
5.51829
21
-4.34041
0
LINE
8
BLACK
6
CONTINUOUS
10
5.51829
20
-4.34041
11
5.5184
21
-4.33983
0
LINE
8
BLACK
6
CONTINUOUS
10
5.5184
20
-4.33983
11
5.51838
21
-4.33969
0
LINE
8
BLACK
6
CONTINUOUS
10
5.51838
20
-4.33969
11
5.52026
21
-4.33219
0
LINE
8
BLACK
6
CONTINUOUS
10
5.52026
20
-4.33219
11
5.52046
21
-4.33173
0
LINE
8
BLACK
6
CONTINUOUS
10
5.52046
20
-4.33173
11
5.52048
21
-4.33159
0
LINE
8
BLACK
6
CONTINUOUS
10
5.52048
20
-4.33159
11
5.52236
21
-4.32784
0
LINE
8
BLACK
6
CONTINUOUS
10
5.52236
20
-4.32784
11
5.52288
21
-4.32713
0
LINE
8
BLACK
6
CONTINUOUS
10
5.52288
20
-4.32713
11
5.52291
21
-4.32707
0
LINE
8
BLACK
6
CONTINUOUS
10
5.52291
20
-4.32707
11
5.52666
21
-4.32332
0
LINE
8
BLACK
6
CONTINUOUS
10
5.52666
20
-4.32332
11
5.5275
21
-4.32273
0
LINE
8
BLACK
6
CONTINUOUS
10
5.5275
20
-4.32273
11
5.52767
21
-4.32272
0
LINE
8
BLACK
6
CONTINUOUS
10
5.52767
20
-4.32272
11
5.52781
21
-4.32261
0
LINE
8
BLACK
6
CONTINUOUS
10
5.52781
20
-4.32261
11
5.53344
21
-4.32073
0
LINE
8
BLACK
6
CONTINUOUS
10
5.53344
20
-4.32073
11
5.53431
21
-4.32061
0
LINE
8
BLACK
6
CONTINUOUS
10
5.53431
20
-4.32061
11
5.53437
21
-4.32058
0
LINE
8
BLACK
6
CONTINUOUS
10
5.53437
20
-4.32058
11
5.54374
21
-4.32058
0
LINE
8
BLACK
6
CONTINUOUS
10
5.54374
20
-4.32058
11
5.54413
21
-4.32065
0
LINE
8
BLACK
6
CONTINUOUS
10
5.53034
20
-4.32799
11
5.52742
21
-4.33091
0
LINE
8
BLACK
6
CONTINUOUS
10
5.52742
20
-4.33091
11
5.52591
21
-4.33394
0
LINE
8
BLACK
6
CONTINUOUS
10
5.52591
20
-4.33394
11
5.5242
21
-4.34077
0
LINE
8
BLACK
6
CONTINUOUS
10
5.5242
20
-4.34077
11
5.5242
21
-4.34567
0
LINE
8
BLACK
6
CONTINUOUS
10
5.5242
20
-4.34567
11
5.52591
21
-4.3525
0
LINE
8
BLACK
6
CONTINUOUS
10
5.52591
20
-4.3525
11
5.52742
21
-4.35553
0
LINE
8
BLACK
6
CONTINUOUS
10
5.52742
20
-4.35553
11
5.53034
21
-4.35845
0
LINE
8
BLACK
6
CONTINUOUS
10
5.53034
20
-4.35845
11
5.53485
21
-4.35995
0
LINE
8
BLACK
6
CONTINUOUS
10
5.53485
20
-4.35995
11
5.54079
21
-4.35995
0
LINE
8
BLACK
6
CONTINUOUS
10
5.54079
20
-4.35995
11
5.54079
21
-4.32649
0
LINE
8
BLACK
6
CONTINUOUS
10
5.54079
20
-4.32649
11
5.53485
21
-4.32649
0
LINE
8
BLACK
6
CONTINUOUS
10
5.53485
20
-4.32649
11
5.53034
21
-4.32799
0
LINE
8
BLACK
6
CONTINUOUS
10
5.126
20
-4.26043
11
5.12643
21
-4.26147
0
LINE
8
BLACK
6
CONTINUOUS
10
5.12643
20
-4.26147
11
5.12643
21
-4.27272
0
LINE
8
BLACK
6
CONTINUOUS
10
5.12643
20
-4.27272
11
5.126
21
-4.27377
0
LINE
8
BLACK
6
CONTINUOUS
10
5.126
20
-4.27377
11
5.12495
21
-4.2742
0
LINE
8
BLACK
6
CONTINUOUS
10
5.12495
20
-4.2742
11
5.12391
21
-4.27377
0
LINE
8
BLACK
6
CONTINUOUS
10
5.12391
20
-4.27377
11
5.12348
21
-4.27272
0
LINE
8
BLACK
6
CONTINUOUS
10
5.12348
20
-4.27272
11
5.12348
21
-4.26858
0
LINE
8
BLACK
6
CONTINUOUS
10
5.12348
20
-4.26858
11
5.10527
21
-4.26858
0
LINE
8
BLACK
6
CONTINUOUS
10
5.10527
20
-4.26858
11
5.10513
21
-4.26852
0
LINE
8
BLACK
6
CONTINUOUS
10
5.10513
20
-4.26852
11
5.10498
21
-4.26855
0
LINE
8
BLACK
6
CONTINUOUS
10
5.10498
20
-4.26855
11
5.10462
21
-4.26831
0
LINE
8
BLACK
6
CONTINUOUS
10
5.10462
20
-4.26831
11
5.10422
21
-4.26814
0
LINE
8
BLACK
6
CONTINUOUS
10
5.10422
20
-4.26814
11
5.10417
21
-4.268
0
LINE
8
BLACK
6
CONTINUOUS
10
5.10417
20
-4.268
11
5.10404
21
-4.26792
0
LINE
8
BLACK
6
CONTINUOUS
10
5.10404
20
-4.26792
11
5.10396
21
-4.2675
0
LINE
8
BLACK
6
CONTINUOUS
10
5.10396
20
-4.2675
11
5.10379
21
-4.2671
0
LINE
8
BLACK
6
CONTINUOUS
10
5.10379
20
-4.2671
11
5.10385
21
-4.26696
0
LINE
8
BLACK
6
CONTINUOUS
10
5.10385
20
-4.26696
11
5.10382
21
-4.26681
0
LINE
8
BLACK
6
CONTINUOUS
10
5.10382
20
-4.26681
11
5.10406
21
-4.26645
0
LINE
8
BLACK
6
CONTINUOUS
10
5.10406
20
-4.26645
11
5.10422
21
-4.26605
0
LINE
8
BLACK
6
CONTINUOUS
10
5.10422
20
-4.26605
11
5.10436
21
-4.266
0
LINE
8
BLACK
6
CONTINUOUS
10
5.10436
20
-4.266
11
5.10445
21
-4.26587
0
LINE
8
BLACK
6
CONTINUOUS
10
5.10445
20
-4.26587
11
5.10714
21
-4.26408
0
LINE
8
BLACK
6
CONTINUOUS
10
5.10714
20
-4.26408
11
5.10874
21
-4.26247
0
LINE
8
BLACK
6
CONTINUOUS
10
5.10874
20
-4.26247
11
5.10957
21
-4.26081
0
LINE
8
BLACK
6
CONTINUOUS
10
5.10957
20
-4.26081
11
5.11043
21
-4.26007
0
LINE
8
BLACK
6
CONTINUOUS
10
5.11043
20
-4.26007
11
5.11155
21
-4.26015
0
LINE
8
BLACK
6
CONTINUOUS
10
5.11155
20
-4.26015
11
5.11229
21
-4.26101
0
LINE
8
BLACK
6
CONTINUOUS
10
5.11229
20
-4.26101
11
5.11221
21
-4.26213
0
LINE
8
BLACK
6
CONTINUOUS
10
5.11221
20
-4.26213
11
5.11128
21
-4.26401
0
LINE
8
BLACK
6
CONTINUOUS
10
5.11128
20
-4.26401
11
5.11109
21
-4.26417
0
LINE
8
BLACK
6
CONTINUOUS
10
5.11109
20
-4.26417
11
5.111
21
-4.26439
0
LINE
8
BLACK
6
CONTINUOUS
10
5.111
20
-4.26439
11
5.10977
21
-4.26562
0
LINE
8
BLACK
6
CONTINUOUS
10
5.10977
20
-4.26562
11
5.12348
21
-4.26562
0
LINE
8
BLACK
6
CONTINUOUS
10
5.12348
20
-4.26562
11
5.12348
21
-4.26147
0
LINE
8
BLACK
6
CONTINUOUS
10
5.12348
20
-4.26147
11
5.12391
21
-4.26043
0
LINE
8
BLACK
6
CONTINUOUS
10
5.12391
20
-4.26043
11
5.12495
21
-4.26
0
LINE
8
BLACK
6
CONTINUOUS
10
5.12495
20
-4.26
11
5.126
21
-4.26043
0
LINE
8
BLACK
6
CONTINUOUS
10
5.12152
20
-4.24044
11
5.12186
21
-4.24047
0
LINE
8
BLACK
6
CONTINUOUS
10
5.12186
20
-4.24047
11
5.12374
21
-4.24141
0
LINE
8
BLACK
6
CONTINUOUS
10
5.12374
20
-4.24141
11
5.1239
21
-4.24159
0
LINE
8
BLACK
6
CONTINUOUS
10
5.1239
20
-4.24159
11
5.12412
21
-4.24168
0
LINE
8
BLACK
6
CONTINUOUS
10
5.12412
20
-4.24168
11
5.12506
21
-4.24262
0
LINE
8
BLACK
6
CONTINUOUS
10
5.12506
20
-4.24262
11
5.12515
21
-4.24284
0
LINE
8
BLACK
6
CONTINUOUS
10
5.12515
20
-4.24284
11
5.12534
21
-4.243
0
LINE
8
BLACK
6
CONTINUOUS
10
5.12534
20
-4.243
11
5.12627
21
-4.24488
0
LINE
8
BLACK
6
CONTINUOUS
10
5.12627
20
-4.24488
11
5.1263
21
-4.24522
0
LINE
8
BLACK
6
CONTINUOUS
10
5.1263
20
-4.24522
11
5.12643
21
-4.24554
0
LINE
8
BLACK
6
CONTINUOUS
10
5.12643
20
-4.24554
11
5.12643
21
-4.24929
0
LINE
8
BLACK
6
CONTINUOUS
10
5.12643
20
-4.24929
11
5.1263
21
-4.24961
0
LINE
8
BLACK
6
CONTINUOUS
10
5.1263
20
-4.24961
11
5.12627
21
-4.24995
0
LINE
8
BLACK
6
CONTINUOUS
10
5.12627
20
-4.24995
11
5.12534
21
-4.25182
0
LINE
8
BLACK
6
CONTINUOUS
10
5.12534
20
-4.25182
11
5.12515
21
-4.25198
0
LINE
8
BLACK
6
CONTINUOUS
10
5.12515
20
-4.25198
11
5.12506
21
-4.25221
0
LINE
8
BLACK
6
CONTINUOUS
10
5.12506
20
-4.25221
11
5.12412
21
-4.25314
0
LINE
8
BLACK
6
CONTINUOUS
10
5.12412
20
-4.25314
11
5.1239
21
-4.25324
0
LINE
8
BLACK
6
CONTINUOUS
10
5.1239
20
-4.25324
11
5.12374
21
-4.25342
0
LINE
8
BLACK
6
CONTINUOUS
10
5.12374
20
-4.25342
11
5.12186
21
-4.25436
0
LINE
8
BLACK
6
CONTINUOUS
10
5.12186
20
-4.25436
11
5.12152
21
-4.25438
0
LINE
8
BLACK
6
CONTINUOUS
10
5.12152
20
-4.25438
11
5.1212
21
-4.25451
0
LINE
8
BLACK
6
CONTINUOUS
10
5.1212
20
-4.25451
11
5.10527
21
-4.25451
0
LINE
8
BLACK
6
CONTINUOUS
10
5.10527
20
-4.25451
11
5.10422
21
-4.25408
0
LINE
8
BLACK
6
CONTINUOUS
10
5.10422
20
-4.25408
11
5.10379
21
-4.25304
0
LINE
8
BLACK
6
CONTINUOUS
10
5.10379
20
-4.25304
11
5.10422
21
-4.25199
0
LINE
8
BLACK
6
CONTINUOUS
10
5.10422
20
-4.25199
11
5.10527
21
-4.25156
0
LINE
8
BLACK
6
CONTINUOUS
10
5.10527
20
-4.25156
11
5.12086
21
-4.25156
0
LINE
8
BLACK
6
CONTINUOUS
10
5.12086
20
-4.25156
11
5.1222
21
-4.25089
0
LINE
8
BLACK
6
CONTINUOUS
10
5.1222
20
-4.25089
11
5.1228
21
-4.25029
0
LINE
8
BLACK
6
CONTINUOUS
10
5.1228
20
-4.25029
11
5.12348
21
-4.24894
0
LINE
8
BLACK
6
CONTINUOUS
10
5.12348
20
-4.24894
11
5.12348
21
-4.24589
0
LINE
8
BLACK
6
CONTINUOUS
10
5.12348
20
-4.24589
11
5.1228
21
-4.24454
0
LINE
8
BLACK
6
CONTINUOUS
10
5.1228
20
-4.24454
11
5.1222
21
-4.24394
0
LINE
8
BLACK
6
CONTINUOUS
10
5.1222
20
-4.24394
11
5.12086
21
-4.24327
0
LINE
8
BLACK
6
CONTINUOUS
10
5.12086
20
-4.24327
11
5.10527
21
-4.24327
0
LINE
8
BLACK
6
CONTINUOUS
10
5.10527
20
-4.24327
11
5.10422
21
-4.24283
0
LINE
8
BLACK
6
CONTINUOUS
10
5.10422
20
-4.24283
11
5.10379
21
-4.24179
0
LINE
8
BLACK
6
CONTINUOUS
10
5.10379
20
-4.24179
11
5.10422
21
-4.24075
0
LINE
8
BLACK
6
CONTINUOUS
10
5.10422
20
-4.24075
11
5.10527
21
-4.24031
0
LINE
8
BLACK
6
CONTINUOUS
10
5.10527
20
-4.24031
11
5.1212
21
-4.24031
0
LINE
8
BLACK
6
CONTINUOUS
10
5.1212
20
-4.24031
11
5.12152
21
-4.24044
0
LINE
8
BLACK
6
CONTINUOUS
10
5.21443
20
-4.19576
11
5.21582
21
-4.19634
0
LINE
8
BLACK
6
CONTINUOUS
10
5.21582
20
-4.19634
11
5.21639
21
-4.19773
0
LINE
8
BLACK
6
CONTINUOUS
10
5.21639
20
-4.19773
11
5.21639
21
-4.28631
0
LINE
8
BLACK
6
CONTINUOUS
10
5.21639
20
-4.28631
11
5.21595
21
-4.28739
0
LINE
8
BLACK
6
CONTINUOUS
10
5.21595
20
-4.28739
11
5.21582
21
-4.28771
0
LINE
8
BLACK
6
CONTINUOUS
10
5.21582
20
-4.28771
11
5.18629
21
-4.31723
0
LINE
8
BLACK
6
CONTINUOUS
10
5.18629
20
-4.31723
11
5.1849
21
-4.31781
0
LINE
8
BLACK
6
CONTINUOUS
10
5.1849
20
-4.31781
11
5.01757
21
-4.31781
0
LINE
8
BLACK
6
CONTINUOUS
10
5.01757
20
-4.31781
11
5.01618
21
-4.31723
0
LINE
8
BLACK
6
CONTINUOUS
10
5.01618
20
-4.31723
11
5.01561
21
-4.31584
0
LINE
8
BLACK
6
CONTINUOUS
10
5.01561
20
-4.31584
11
5.01561
21
-4.19773
0
LINE
8
BLACK
6
CONTINUOUS
10
5.01561
20
-4.19773
11
5.01618
21
-4.19634
0
LINE
8
BLACK
6
CONTINUOUS
10
5.01618
20
-4.19634
11
5.01757
21
-4.19576
0
LINE
8
BLACK
6
CONTINUOUS
10
5.01757
20
-4.19576
11
5.21443
21
-4.19576
0
LINE
8
BLACK
6
CONTINUOUS
10
5.01954
20
-4.1997
11
5.01954
21
-4.31387
0
LINE
8
BLACK
6
CONTINUOUS
10
5.01954
20
-4.31387
11
5.18408
21
-4.31387
0
LINE
8
BLACK
6
CONTINUOUS
10
5.18408
20
-4.31387
11
5.21246
21
-4.2855
0
LINE
8
BLACK
6
CONTINUOUS
10
5.21246
20
-4.2855
11
5.21246
21
-4.1997
0
LINE
8
BLACK
6
CONTINUOUS
10
5.21246
20
-4.1997
11
5.01954
21
-4.1997
0
LINE
8
BLACK
6
CONTINUOUS
10
5.28866
20
-4.27917
11
5.28912
21
-4.28028
0
LINE
8
BLACK
6
CONTINUOUS
10
5.28912
20
-4.28028
11
5.28912
21
-4.29153
0
LINE
8
BLACK
6
CONTINUOUS
10
5.28912
20
-4.29153
11
5.28866
21
-4.29264
0
LINE
8
BLACK
6
CONTINUOUS
10
5.28866
20
-4.29264
11
5.28755
21
-4.2931
0
LINE
8
BLACK
6
CONTINUOUS
10
5.28755
20
-4.2931
11
5.28644
21
-4.29264
0
LINE
8
BLACK
6
CONTINUOUS
10
5.28644
20
-4.29264
11
5.28597
21
-4.29153
0
LINE
8
BLACK
6
CONTINUOUS
10
5.28597
20
-4.29153
11
5.28597
21
-4.28748
0
LINE
8
BLACK
6
CONTINUOUS
10
5.28597
20
-4.28748
11
5.26786
21
-4.28748
0
LINE
8
BLACK
6
CONTINUOUS
10
5.26786
20
-4.28748
11
5.26771
21
-4.28742
0
LINE
8
BLACK
6
CONTINUOUS
10
5.26771
20
-4.28742
11
5.26756
21
-4.28745
0
LINE
8
BLACK
6
CONTINUOUS
10
5.26756
20
-4.28745
11
5.26717
21
-4.28719
0
LINE
8
BLACK
6
CONTINUOUS
10
5.26717
20
-4.28719
11
5.26675
21
-4.28702
0
LINE
8
BLACK
6
CONTINUOUS
10
5.26675
20
-4.28702
11
5.26669
21
-4.28687
0
LINE
8
BLACK
6
CONTINUOUS
10
5.26669
20
-4.28687
11
5.26655
21
-4.28678
0
LINE
8
BLACK
6
CONTINUOUS
10
5.26655
20
-4.28678
11
5.26646
21
-4.28633
0
LINE
8
BLACK
6
CONTINUOUS
10
5.26646
20
-4.28633
11
5.26629
21
-4.28591
0
LINE
8
BLACK
6
CONTINUOUS
10
5.26629
20
-4.28591
11
5.26635
21
-4.28576
0
LINE
8
BLACK
6
CONTINUOUS
10
5.26635
20
-4.28576
11
5.26632
21
-4.2856
0
LINE
8
BLACK
6
CONTINUOUS
10
5.26632
20
-4.2856
11
5.26658
21
-4.28522
0
LINE
8
BLACK
6
CONTINUOUS
10
5.26658
20
-4.28522
11
5.26675
21
-4.28479
0
LINE
8
BLACK
6
CONTINUOUS
10
5.26675
20
-4.28479
11
5.2669
21
-4.28473
0
LINE
8
BLACK
6
CONTINUOUS
10
5.2669
20
-4.28473
11
5.26699
21
-4.2846
0
LINE
8
BLACK
6
CONTINUOUS
10
5.26699
20
-4.2846
11
5.26967
21
-4.28281
0
LINE
8
BLACK
6
CONTINUOUS
10
5.26967
20
-4.28281
11
5.27126
21
-4.28122
0
LINE
8
BLACK
6
CONTINUOUS
10
5.27126
20
-4.28122
11
5.27208
21
-4.27958
0
LINE
8
BLACK
6
CONTINUOUS
10
5.27208
20
-4.27958
11
5.27299
21
-4.27879
0
LINE
8
BLACK
6
CONTINUOUS
10
5.27299
20
-4.27879
11
5.27419
21
-4.27887
0
LINE
8
BLACK
6
CONTINUOUS
10
5.27419
20
-4.27887
11
5.27498
21
-4.27978
0
LINE
8
BLACK
6
CONTINUOUS
10
5.27498
20
-4.27978
11
5.2749
21
-4.28099
0
LINE
8
BLACK
6
CONTINUOUS
10
5.2749
20
-4.28099
11
5.27396
21
-4.28286
0
LINE
8
BLACK
6
CONTINUOUS
10
5.27396
20
-4.28286
11
5.27376
21
-4.28303
0
LINE
8
BLACK
6
CONTINUOUS
10
5.27376
20
-4.28303
11
5.27366
21
-4.28327
0
LINE
8
BLACK
6
CONTINUOUS
10
5.27366
20
-4.28327
11
5.2726
21
-4.28433
0
LINE
8
BLACK
6
CONTINUOUS
10
5.2726
20
-4.28433
11
5.28597
21
-4.28433
0
LINE
8
BLACK
6
CONTINUOUS
10
5.28597
20
-4.28433
11
5.28597
21
-4.28028
0
LINE
8
BLACK
6
CONTINUOUS
10
5.28597
20
-4.28028
11
5.28644
21
-4.27917
0
LINE
8
BLACK
6
CONTINUOUS
10
5.28644
20
-4.27917
11
5.28755
21
-4.27871
0
LINE
8
BLACK
6
CONTINUOUS
10
5.28755
20
-4.27871
11
5.28866
21
-4.27917
0
LINE
8
BLACK
6
CONTINUOUS
10
5.2793
20
-4.2591
11
5.27949
21
-4.25907
0
LINE
8
BLACK
6
CONTINUOUS
10
5.27949
20
-4.25907
11
5.28324
21
-4.26001
0
LINE
8
BLACK
6
CONTINUOUS
10
5.28324
20
-4.26001
11
5.28339
21
-4.26011
0
LINE
8
BLACK
6
CONTINUOUS
10
5.28339
20
-4.26011
11
5.28357
21
-4.26012
0
LINE
8
BLACK
6
CONTINUOUS
10
5.28357
20
-4.26012
11
5.28544
21
-4.26106
0
LINE
8
BLACK
6
CONTINUOUS
10
5.28544
20
-4.26106
11
5.28561
21
-4.26126
0
LINE
8
BLACK
6
CONTINUOUS
10
5.28561
20
-4.26126
11
5.28585
21
-4.26136
0
LINE
8
BLACK
6
CONTINUOUS
10
5.28585
20
-4.26136
11
5.28773
21
-4.26323
0
LINE
8
BLACK
6
CONTINUOUS
10
5.28773
20
-4.26323
11
5.28787
21
-4.26357
0
LINE
8
BLACK
6
CONTINUOUS
10
5.28787
20
-4.26357
11
5.28811
21
-4.26385
0
LINE
8
BLACK
6
CONTINUOUS
10
5.28811
20
-4.26385
11
5.28904
21
-4.26666
0
LINE
8
BLACK
6
CONTINUOUS
10
5.28904
20
-4.26666
11
5.28902
21
-4.26692
0
LINE
8
BLACK
6
CONTINUOUS
10
5.28902
20
-4.26692
11
5.28912
21
-4.26716
0
LINE
8
BLACK
6
CONTINUOUS
10
5.28912
20
-4.26716
11
5.28912
21
-4.26903
0
LINE
8
BLACK
6
CONTINUOUS
10
5.28912
20
-4.26903
11
5.28902
21
-4.26927
0
LINE
8
BLACK
6
CONTINUOUS
10
5.28902
20
-4.26927
11
5.28904
21
-4.26953
0
LINE
8
BLACK
6
CONTINUOUS
10
5.28904
20
-4.26953
11
5.28811
21
-4.27234
0
LINE
8
BLACK
6
CONTINUOUS
10
5.28811
20
-4.27234
11
5.28787
21
-4.27262
0
LINE
8
BLACK
6
CONTINUOUS
10
5.28787
20
-4.27262
11
5.28773
21
-4.27296
0
LINE
8
BLACK
6
CONTINUOUS
10
5.28773
20
-4.27296
11
5.28679
21
-4.2739
0
LINE
8
BLACK
6
CONTINUOUS
10
5.28679
20
-4.2739
11
5.28567
21
-4.27436
0
LINE
8
BLACK
6
CONTINUOUS
10
5.28567
20
-4.27436
11
5.28456
21
-4.2739
0
LINE
8
BLACK
6
CONTINUOUS
10
5.28456
20
-4.2739
11
5.2841
21
-4.27278
0
LINE
8
BLACK
6
CONTINUOUS
10
5.2841
20
-4.27278
11
5.28456
21
-4.27167
0
LINE
8
BLACK
6
CONTINUOUS
10
5.28456
20
-4.27167
11
5.28524
21
-4.27099
0
LINE
8
BLACK
6
CONTINUOUS
10
5.28524
20
-4.27099
11
5.28597
21
-4.26878
0
LINE
8
BLACK
6
CONTINUOUS
10
5.28597
20
-4.26878
11
5.28597
21
-4.26741
0
LINE
8
BLACK
6
CONTINUOUS
10
5.28597
20
-4.26741
11
5.28524
21
-4.2652
0
LINE
8
BLACK
6
CONTINUOUS
10
5.28524
20
-4.2652
11
5.2838
21
-4.26377
0
LINE
8
BLACK
6
CONTINUOUS
10
5.2838
20
-4.26377
11
5.28231
21
-4.26302
0
LINE
8
BLACK
6
CONTINUOUS
10
5.28231
20
-4.26302
11
5.27892
21
-4.26217
0
LINE
8
BLACK
6
CONTINUOUS
10
5.27892
20
-4.26217
11
5.27649
21
-4.26217
0
LINE
8
BLACK
6
CONTINUOUS
10
5.27649
20
-4.26217
11
5.2731
21
-4.26302
0
LINE
8
BLACK
6
CONTINUOUS
10
5.2731
20
-4.26302
11
5.27161
21
-4.26377
0
LINE
8
BLACK
6
CONTINUOUS
10
5.27161
20
-4.26377
11
5.27018
21
-4.2652
0
LINE
8
BLACK
6
CONTINUOUS
10
5.27018
20
-4.2652
11
5.26944
21
-4.26741
0
LINE
8
BLACK
6
CONTINUOUS
10
5.26944
20
-4.26741
11
5.26944
21
-4.26878
0
LINE
8
BLACK
6
CONTINUOUS
10
5.26944
20
-4.26878
11
5.27018
21
-4.27099
0
LINE
8
BLACK
6
CONTINUOUS
10
5.27018
20
-4.27099
11
5.27085
21
-4.27167
0
LINE
8
BLACK
6
CONTINUOUS
10
5.27085
20
-4.27167
11
5.27131
21
-4.27278
0
LINE
8
BLACK
6
CONTINUOUS
10
5.27131
20
-4.27278
11
5.27085
21
-4.2739
0
LINE
8
BLACK
6
CONTINUOUS
10
5.27085
20
-4.2739
11
5.26974
21
-4.27436
0
LINE
8
BLACK
6
CONTINUOUS
10
5.26974
20
-4.27436
11
5.26863
21
-4.2739
0
LINE
8
BLACK
6
CONTINUOUS
10
5.26863
20
-4.2739
11
5.26769
21
-4.27296
0
LINE
8
BLACK
6
CONTINUOUS
10
5.26769
20
-4.27296
11
5.26755
21
-4.27262
0
LINE
8
BLACK
6
CONTINUOUS
10
5.26755
20
-4.27262
11
5.26731
21
-4.27234
0
LINE
8
BLACK
6
CONTINUOUS
10
5.26731
20
-4.27234
11
5.26637
21
-4.26953
0
LINE
8
BLACK
6
CONTINUOUS
10
5.26637
20
-4.26953
11
5.26639
21
-4.26927
0
LINE
8
BLACK
6
CONTINUOUS
10
5.26639
20
-4.26927
11
5.26629
21
-4.26903
0
LINE
8
BLACK
6
CONTINUOUS
10
5.26629
20
-4.26903
11
5.26629
21
-4.26716
0
LINE
8
BLACK
6
CONTINUOUS
10
5.26629
20
-4.26716
11
5.26639
21
-4.26692
0
LINE
8
BLACK
6
CONTINUOUS
10
5.26639
20
-4.26692
11
5.26637
21
-4.26666
0
LINE
8
BLACK
6
CONTINUOUS
10
5.26637
20
-4.26666
11
5.26731
21
-4.26385
0
LINE
8
BLACK
6
CONTINUOUS
10
5.26731
20
-4.26385
11
5.26755
21
-4.26357
0
LINE
8
BLACK
6
CONTINUOUS
10
5.26755
20
-4.26357
11
5.26769
21
-4.26323
0
LINE
8
BLACK
6
CONTINUOUS
10
5.26769
20
-4.26323
11
5.26956
21
-4.26136
0
LINE
8
BLACK
6
CONTINUOUS
10
5.26956
20
-4.26136
11
5.2698
21
-4.26126
0
LINE
8
BLACK
6
CONTINUOUS
10
5.2698
20
-4.26126
11
5.26997
21
-4.26106
0
LINE
8
BLACK
6
CONTINUOUS
10
5.26997
20
-4.26106
11
5.27185
21
-4.26012
0
LINE
8
BLACK
6
CONTINUOUS
10
5.27185
20
-4.26012
11
5.27203
21
-4.26011
0
LINE
8
BLACK
6
CONTINUOUS
10
5.27203
20
-4.26011
11
5.27217
21
-4.26001
0
LINE
8
BLACK
6
CONTINUOUS
10
5.27217
20
-4.26001
11
5.27592
21
-4.25907
0
LINE
8
BLACK
6
CONTINUOUS
10
5.27592
20
-4.25907
11
5.27612
21
-4.2591
0
LINE
8
BLACK
6
CONTINUOUS
10
5.27612
20
-4.2591
11
5.2763
21
-4.25902
0
LINE
8
BLACK
6
CONTINUOUS
10
5.2763
20
-4.25902
11
5.27911
21
-4.25902
0
LINE
8
BLACK
6
CONTINUOUS
10
5.27911
20
-4.25902
11
5.2793
21
-4.2591
0
LINE
8
BLACK
6
CONTINUOUS
10
5.30321
20
-4.23472
11
5.3046
21
-4.2353
0
LINE
8
BLACK
6
CONTINUOUS
10
5.3046
20
-4.2353
11
5.30518
21
-4.23669
0
LINE
8
BLACK
6
CONTINUOUS
10
5.30518
20
-4.23669
11
5.30518
21
-4.31543
0
LINE
8
BLACK
6
CONTINUOUS
10
5.30518
20
-4.31543
11
5.3046
21
-4.31682
0
LINE
8
BLACK
6
CONTINUOUS
10
5.3046
20
-4.31682
11
5.30321
21
-4.3174
0
LINE
8
BLACK
6
CONTINUOUS
10
5.30321
20
-4.3174
11
5.254
21
-4.3174
0
LINE
8
BLACK
6
CONTINUOUS
10
5.254
20
-4.3174
11
5.25261
21
-4.31682
0
LINE
8
BLACK
6
CONTINUOUS
10
5.25261
20
-4.31682
11
5.25203
21
-4.31543
0
LINE
8
BLACK
6
CONTINUOUS
10
5.25203
20
-4.31543
11
5.25203
21
-4.23669
0
LINE
8
BLACK
6
CONTINUOUS
10
5.25203
20
-4.23669
11
5.25261
21
-4.2353
0
LINE
8
BLACK
6
CONTINUOUS
10
5.25261
20
-4.2353
11
5.254
21
-4.23472
0
LINE
8
BLACK
6
CONTINUOUS
10
5.254
20
-4.23472
11
5.30321
21
-4.23472
0
LINE
8
BLACK
6
CONTINUOUS
10
5.25597
20
-4.23866
11
5.25597
21
-4.31346
0
LINE
8
BLACK
6
CONTINUOUS
10
5.25597
20
-4.31346
11
5.30124
21
-4.31346
0
LINE
8
BLACK
6
CONTINUOUS
10
5.30124
20
-4.31346
11
5.30124
21
-4.23866
0
LINE
8
BLACK
6
CONTINUOUS
10
5.30124
20
-4.23866
11
5.25597
21
-4.23866
0
LINE
8
BLACK
6
CONTINUOUS
10
5.39006
20
-4.27823
11
5.39025
21
-4.27871
0
LINE
8
BLACK
6
CONTINUOUS
10
5.39025
20
-4.27871
11
5.39052
21
-4.27934
0
LINE
8
BLACK
6
CONTINUOUS
10
5.39052
20
-4.27934
11
5.39052
21
-4.29153
0
LINE
8
BLACK
6
CONTINUOUS
10
5.39052
20
-4.29153
11
5.39006
21
-4.29264
0
LINE
8
BLACK
6
CONTINUOUS
10
5.39006
20
-4.29264
11
5.38894
21
-4.2931
0
LINE
8
BLACK
6
CONTINUOUS
10
5.38894
20
-4.2931
11
5.38783
21
-4.29264
0
LINE
8
BLACK
6
CONTINUOUS
10
5.38783
20
-4.29264
11
5.38737
21
-4.29153
0
LINE
8
BLACK
6
CONTINUOUS
10
5.38737
20
-4.29153
11
5.38737
21
-4.28315
0
LINE
8
BLACK
6
CONTINUOUS
10
5.38737
20
-4.28315
11
5.37881
21
-4.29171
0
LINE
8
BLACK
6
CONTINUOUS
10
5.37881
20
-4.29171
11
5.37847
21
-4.29185
0
LINE
8
BLACK
6
CONTINUOUS
10
5.37847
20
-4.29185
11
5.37819
21
-4.29209
0
LINE
8
BLACK
6
CONTINUOUS
10
5.37819
20
-4.29209
11
5.37538
21
-4.29302
0
LINE
8
BLACK
6
CONTINUOUS
10
5.37538
20
-4.29302
11
5.37512
21
-4.29301
0
LINE
8
BLACK
6
CONTINUOUS
10
5.37512
20
-4.29301
11
5.37488
21
-4.2931
0
LINE
8
BLACK
6
CONTINUOUS
10
5.37488
20
-4.2931
11
5.37301
21
-4.2931
0
LINE
8
BLACK
6
CONTINUOUS
10
5.37301
20
-4.2931
11
5.37267
21
-4.29296
0
LINE
8
BLACK
6
CONTINUOUS
10
5.37267
20
-4.29296
11
5.3723
21
-4.29294
0
LINE
8
BLACK
6
CONTINUOUS
10
5.3723
20
-4.29294
11
5.37043
21
-4.292
0
LINE
8
BLACK
6
CONTINUOUS
10
5.37043
20
-4.292
11
5.37026
21
-4.29181
0
LINE
8
BLACK
6
CONTINUOUS
10
5.37026
20
-4.29181
11
5.37002
21
-4.29171
0
LINE
8
BLACK
6
CONTINUOUS
10
5.37002
20
-4.29171
11
5.36908
21
-4.29077
0
LINE
8
BLACK
6
CONTINUOUS
10
5.36908
20
-4.29077
11
5.36898
21
-4.29053
0
LINE
8
BLACK
6
CONTINUOUS
10
5.36898
20
-4.29053
11
5.36879
21
-4.29036
0
LINE
8
BLACK
6
CONTINUOUS
10
5.36879
20
-4.29036
11
5.36785
21
-4.28848
0
LINE
8
BLACK
6
CONTINUOUS
10
5.36785
20
-4.28848
11
5.36782
21
-4.28812
0
LINE
8
BLACK
6
CONTINUOUS
10
5.36782
20
-4.28812
11
5.36768
21
-4.28778
0
LINE
8
BLACK
6
CONTINUOUS
10
5.36768
20
-4.28778
11
5.36768
21
-4.28309
0
LINE
8
BLACK
6
CONTINUOUS
10
5.36768
20
-4.28309
11
5.36782
21
-4.28275
0
LINE
8
BLACK
6
CONTINUOUS
10
5.36782
20
-4.28275
11
5.36785
21
-4.28239
0
LINE
8
BLACK
6
CONTINUOUS
10
5.36785
20
-4.28239
11
5.36879
21
-4.28051
0
LINE
8
BLACK
6
CONTINUOUS
10
5.36879
20
-4.28051
11
5.36898
21
-4.28034
0
LINE
8
BLACK
6
CONTINUOUS
10
5.36898
20
-4.28034
11
5.36908
21
-4.28011
0
LINE
8
BLACK
6
CONTINUOUS
10
5.36908
20
-4.28011
11
5.37002
21
-4.27917
0
LINE
8
BLACK
6
CONTINUOUS
10
5.37002
20
-4.27917
11
5.37113
21
-4.27871
0
LINE
8
BLACK
6
CONTINUOUS
10
5.37113
20
-4.27871
11
5.37225
21
-4.27917
0
LINE
8
BLACK
6
CONTINUOUS
10
5.37225
20
-4.27917
11
5.37271
21
-4.28028
0
LINE
8
BLACK
6
CONTINUOUS
10
5.37271
20
-4.28028
11
5.37225
21
-4.28139
0
LINE
8
BLACK
6
CONTINUOUS
10
5.37225
20
-4.28139
11
5.37149
21
-4.28215
0
LINE
8
BLACK
6
CONTINUOUS
10
5.37149
20
-4.28215
11
5.37083
21
-4.28347
0
LINE
8
BLACK
6
CONTINUOUS
10
5.37083
20
-4.28347
11
5.37083
21
-4.28741
0
LINE
8
BLACK
6
CONTINUOUS
10
5.37083
20
-4.28741
11
5.37149
21
-4.28872
0
LINE
8
BLACK
6
CONTINUOUS
10
5.37149
20
-4.28872
11
5.37207
21
-4.2893
0
LINE
8
BLACK
6
CONTINUOUS
10
5.37207
20
-4.2893
11
5.37338
21
-4.28995
0
LINE
8
BLACK
6
CONTINUOUS
10
5.37338
20
-4.28995
11
5.37463
21
-4.28995
0
LINE
8
BLACK
6
CONTINUOUS
10
5.37463
20
-4.28995
11
5.37684
21
-4.28922
0
LINE
8
BLACK
6
CONTINUOUS
10
5.37684
20
-4.28922
11
5.38783
21
-4.27823
0
LINE
8
BLACK
6
CONTINUOUS
10
5.38783
20
-4.27823
11
5.38894
21
-4.27777
0
LINE
8
BLACK
6
CONTINUOUS
10
5.38894
20
-4.27777
11
5.39006
21
-4.27823
0
LINE
8
BLACK
6
CONTINUOUS
10
5.38069
20
-4.2591
11
5.38089
21
-4.25907
0
LINE
8
BLACK
6
CONTINUOUS
10
5.38089
20
-4.25907
11
5.38464
21
-4.26001
0
LINE
8
BLACK
6
CONTINUOUS
10
5.38464
20
-4.26001
11
5.38478
21
-4.26011
0
LINE
8
BLACK
6
CONTINUOUS
10
5.38478
20
-4.26011
11
5.38496
21
-4.26012
0
LINE
8
BLACK
6
CONTINUOUS
10
5.38496
20
-4.26012
11
5.38683
21
-4.26106
0
LINE
8
BLACK
6
CONTINUOUS
10
5.38683
20
-4.26106
11
5.387
21
-4.26126
0
LINE
8
BLACK
6
CONTINUOUS
10
5.387
20
-4.26126
11
5.38724
21
-4.26136
0
LINE
8
BLACK
6
CONTINUOUS
10
5.38724
20
-4.26136
11
5.38912
21
-4.26323
0
LINE
8
BLACK
6
CONTINUOUS
10
5.38912
20
-4.26323
11
5.38926
21
-4.26357
0
LINE
8
BLACK
6
CONTINUOUS
10
5.38926
20
-4.26357
11
5.3895
21
-4.26385
0
LINE
8
BLACK
6
CONTINUOUS
10
5.3895
20
-4.26385
11
5.39044
21
-4.26666
0
LINE
8
BLACK
6
CONTINUOUS
10
5.39044
20
-4.26666
11
5.39042
21
-4.26692
0
LINE
8
BLACK
6
CONTINUOUS
10
5.39042
20
-4.26692
11
5.39052
21
-4.26716
0
LINE
8
BLACK
6
CONTINUOUS
10
5.39052
20
-4.26716
11
5.39052
21
-4.26903
0
LINE
8
BLACK
6
CONTINUOUS
10
5.39052
20
-4.26903
11
5.39042
21
-4.26927
0
LINE
8
BLACK
6
CONTINUOUS
10
5.39042
20
-4.26927
11
5.39044
21
-4.26953
0
LINE
8
BLACK
6
CONTINUOUS
10
5.39044
20
-4.26953
11
5.3895
21
-4.27234
0
LINE
8
BLACK
6
CONTINUOUS
10
5.3895
20
-4.27234
11
5.38926
21
-4.27262
0
LINE
8
BLACK
6
CONTINUOUS
10
5.38926
20
-4.27262
11
5.38912
21
-4.27296
0
LINE
8
BLACK
6
CONTINUOUS
10
5.38912
20
-4.27296
11
5.38818
21
-4.2739
0
LINE
8
BLACK
6
CONTINUOUS
10
5.38818
20
-4.2739
11
5.38707
21
-4.27436
0
LINE
8
BLACK
6
CONTINUOUS
10
5.38707
20
-4.27436
11
5.38595
21
-4.2739
0
LINE
8
BLACK
6
CONTINUOUS
10
5.38595
20
-4.2739
11
5.38549
21
-4.27278
0
LINE
8
BLACK
6
CONTINUOUS
10
5.38549
20
-4.27278
11
5.38595
21
-4.27167
0
LINE
8
BLACK
6
CONTINUOUS
10
5.38595
20
-4.27167
11
5.38663
21
-4.27099
0
LINE
8
BLACK
6
CONTINUOUS
10
5.38663
20
-4.27099
11
5.38737
21
-4.26878
0
LINE
8
BLACK
6
CONTINUOUS
10
5.38737
20
-4.26878
11
5.38737
21
-4.26741
0
LINE
8
BLACK
6
CONTINUOUS
10
5.38737
20
-4.26741
11
5.38663
21
-4.2652
0
LINE
8
BLACK
6
CONTINUOUS
10
5.38663
20
-4.2652
11
5.3852
21
-4.26377
0
LINE
8
BLACK
6
CONTINUOUS
10
5.3852
20
-4.26377
11
5.38371
21
-4.26302
0
LINE
8
BLACK
6
CONTINUOUS
10
5.38371
20
-4.26302
11
5.38031
21
-4.26217
0
LINE
8
BLACK
6
CONTINUOUS
10
5.38031
20
-4.26217
11
5.37789
21
-4.26217
0
LINE
8
BLACK
6
CONTINUOUS
10
5.37789
20
-4.26217
11
5.37449
21
-4.26302
0
LINE
8
BLACK
6
CONTINUOUS
10
5.37449
20
-4.26302
11
5.373
21
-4.26377
0
LINE
8
BLACK
6
CONTINUOUS
10
5.373
20
-4.26377
11
5.37157
21
-4.2652
0
LINE
8
BLACK
6
CONTINUOUS
10
5.37157
20
-4.2652
11
5.37083
21
-4.26741
0
LINE
8
BLACK
6
CONTINUOUS
10
5.37083
20
-4.26741
11
5.37083
21
-4.26878
0
LINE
8
BLACK
6
CONTINUOUS
10
5.37083
20
-4.26878
11
5.37157
21
-4.27099
0
LINE
8
BLACK
6
CONTINUOUS
10
5.37157
20
-4.27099
11
5.37225
21
-4.27167
0
LINE
8
BLACK
6
CONTINUOUS
10
5.37225
20
-4.27167
11
5.37271
21
-4.27278
0
LINE
8
BLACK
6
CONTINUOUS
10
5.37271
20
-4.27278
11
5.37225
21
-4.2739
0
LINE
8
BLACK
6
CONTINUOUS
10
5.37225
20
-4.2739
11
5.37113
21
-4.27436
0
LINE
8
BLACK
6
CONTINUOUS
10
5.37113
20
-4.27436
11
5.37002
21
-4.2739
0
LINE
8
BLACK
6
CONTINUOUS
10
5.37002
20
-4.2739
11
5.36908
21
-4.27296
0
LINE
8
BLACK
6
CONTINUOUS
10
5.36908
20
-4.27296
11
5.36894
21
-4.27262
0
LINE
8
BLACK
6
CONTINUOUS
10
5.36894
20
-4.27262
11
5.3687
21
-4.27234
0
LINE
8
BLACK
6
CONTINUOUS
10
5.3687
20
-4.27234
11
5.36776
21
-4.26953
0
LINE
8
BLACK
6
CONTINUOUS
10
5.36776
20
-4.26953
11
5.36778
21
-4.26927
0
LINE
8
BLACK
6
CONTINUOUS
10
5.36778
20
-4.26927
11
5.36768
21
-4.26903
0
LINE
8
BLACK
6
CONTINUOUS
10
5.36768
20
-4.26903
11
5.36768
21
-4.26716
0
LINE
8
BLACK
6
CONTINUOUS
10
5.36768
20
-4.26716
11
5.36778
21
-4.26692
0
LINE
8
BLACK
6
CONTINUOUS
10
5.36778
20
-4.26692
11
5.36776
21
-4.26666
0
LINE
8
BLACK
6
CONTINUOUS
10
5.36776
20
-4.26666
11
5.3687
21
-4.26385
0
LINE
8
BLACK
6
CONTINUOUS
10
5.3687
20
-4.26385
11
5.36894
21
-4.26357
0
LINE
8
BLACK
6
CONTINUOUS
10
5.36894
20
-4.26357
11
5.36908
21
-4.26323
0
LINE
8
BLACK
6
CONTINUOUS
10
5.36908
20
-4.26323
11
5.37096
21
-4.26136
0
LINE
8
BLACK
6
CONTINUOUS
10
5.37096
20
-4.26136
11
5.3712
21
-4.26126
0
LINE
8
BLACK
6
CONTINUOUS
10
5.3712
20
-4.26126
11
5.37137
21
-4.26106
0
LINE
8
BLACK
6
CONTINUOUS
10
5.37137
20
-4.26106
11
5.37324
21
-4.26012
0
LINE
8
BLACK
6
CONTINUOUS
10
5.37324
20
-4.26012
11
5.37342
21
-4.26011
0
LINE
8
BLACK
6
CONTINUOUS
10
5.37342
20
-4.26011
11
5.37356
21
-4.26001
0
LINE
8
BLACK
6
CONTINUOUS
10
5.37356
20
-4.26001
11
5.37731
21
-4.25907
0
LINE
8
BLACK
6
CONTINUOUS
10
5.37731
20
-4.25907
11
5.37751
21
-4.2591
0
LINE
8
BLACK
6
CONTINUOUS
10
5.37751
20
-4.2591
11
5.37769
21
-4.25902
0
LINE
8
BLACK
6
CONTINUOUS
10
5.37769
20
-4.25902
11
5.38051
21
-4.25902
0
LINE
8
BLACK
6
CONTINUOUS
10
5.38051
20
-4.25902
11
5.38069
21
-4.2591
0
LINE
8
BLACK
6
CONTINUOUS
10
5.40461
20
-4.23472
11
5.406
21
-4.2353
0
LINE
8
BLACK
6
CONTINUOUS
10
5.406
20
-4.2353
11
5.40657
21
-4.23669
0
LINE
8
BLACK
6
CONTINUOUS
10
5.40657
20
-4.23669
11
5.40657
21
-4.31543
0
LINE
8
BLACK
6
CONTINUOUS
10
5.40657
20
-4.31543
11
5.406
21
-4.31682
0
LINE
8
BLACK
6
CONTINUOUS
10
5.406
20
-4.31682
11
5.40461
21
-4.3174
0
LINE
8
BLACK
6
CONTINUOUS
10
5.40461
20
-4.3174
11
5.35539
21
-4.3174
0
LINE
8
BLACK
6
CONTINUOUS
10
5.35539
20
-4.3174
11
5.354
21
-4.31682
0
LINE
8
BLACK
6
CONTINUOUS
10
5.354
20
-4.31682
11
5.35343
21
-4.31543
0
LINE
8
BLACK
6
CONTINUOUS
10
5.35343
20
-4.31543
11
5.35343
21
-4.23669
0
LINE
8
BLACK
6
CONTINUOUS
10
5.35343
20
-4.23669
11
5.354
21
-4.2353
0
LINE
8
BLACK
6
CONTINUOUS
10
5.354
20
-4.2353
11
5.35539
21
-4.23472
0
LINE
8
BLACK
6
CONTINUOUS
10
5.35539
20
-4.23472
11
5.40461
21
-4.23472
0
LINE
8
BLACK
6
CONTINUOUS
10
5.35736
20
-4.23866
11
5.35736
21
-4.31346
0
LINE
8
BLACK
6
CONTINUOUS
10
5.35736
20
-4.31346
11
5.40264
21
-4.31346
0
LINE
8
BLACK
6
CONTINUOUS
10
5.40264
20
-4.31346
11
5.40264
21
-4.23866
0
LINE
8
BLACK
6
CONTINUOUS
10
5.40264
20
-4.23866
11
5.35736
21
-4.23866
0
LINE
8
BLACK
6
CONTINUOUS
10
5.5073
20
-4.24695
11
5.50787
21
-4.24835
0
LINE
8
BLACK
6
CONTINUOUS
10
5.50787
20
-4.24835
11
5.50787
21
-4.26632
0
LINE
8
BLACK
6
CONTINUOUS
10
5.50787
20
-4.26632
11
5.52844
21
-4.25261
0
LINE
8
BLACK
6
CONTINUOUS
10
5.52844
20
-4.25261
11
5.529
21
-4.2525
0
LINE
8
BLACK
6
CONTINUOUS
10
5.529
20
-4.2525
11
5.52953
21
-4.25228
0
LINE
8
BLACK
6
CONTINUOUS
10
5.52953
20
-4.25228
11
5.52971
21
-4.25236
0
LINE
8
BLACK
6
CONTINUOUS
10
5.52971
20
-4.25236
11
5.52991
21
-4.25232
0
LINE
8
BLACK
6
CONTINUOUS
10
5.52991
20
-4.25232
11
5.53039
21
-4.25264
0
LINE
8
BLACK
6
CONTINUOUS
10
5.53039
20
-4.25264
11
5.53092
21
-4.25286
0
LINE
8
BLACK
6
CONTINUOUS
10
5.53092
20
-4.25286
11
5.531
21
-4.25305
0
LINE
8
BLACK
6
CONTINUOUS
10
5.531
20
-4.25305
11
5.53117
21
-4.25316
0
LINE
8
BLACK
6
CONTINUOUS
10
5.53117
20
-4.25316
11
5.53128
21
-4.25372
0
LINE
8
BLACK
6
CONTINUOUS
10
5.53128
20
-4.25372
11
5.5315
21
-4.25425
0
LINE
8
BLACK
6
CONTINUOUS
10
5.5315
20
-4.25425
11
5.5315
21
-4.26803
0
LINE
8
BLACK
6
CONTINUOUS
10
5.5315
20
-4.26803
11
5.54921
21
-4.26803
0
LINE
8
BLACK
6
CONTINUOUS
10
5.54921
20
-4.26803
11
5.5506
21
-4.26861
0
LINE
8
BLACK
6
CONTINUOUS
10
5.5506
20
-4.26861
11
5.55118
21
-4.27
0
LINE
8
BLACK
6
CONTINUOUS
10
5.55118
20
-4.27
11
5.5506
21
-4.27139
0
LINE
8
BLACK
6
CONTINUOUS
10
5.5506
20
-4.27139
11
5.54921
21
-4.27197
0
LINE
8
BLACK
6
CONTINUOUS
10
5.54921
20
-4.27197
11
5.5315
21
-4.27197
0
LINE
8
BLACK
6
CONTINUOUS
10
5.5315
20
-4.27197
11
5.5315
21
-4.28575
0
LINE
8
BLACK
6
CONTINUOUS
10
5.5315
20
-4.28575
11
5.53128
21
-4.28628
0
LINE
8
BLACK
6
CONTINUOUS
10
5.53128
20
-4.28628
11
5.53117
21
-4.28684
0
LINE
8
BLACK
6
CONTINUOUS
10
5.53117
20
-4.28684
11
5.531
21
-4.28695
0
LINE
8
BLACK
6
CONTINUOUS
10
5.531
20
-4.28695
11
5.53092
21
-4.28714
0
LINE
8
BLACK
6
CONTINUOUS
10
5.53092
20
-4.28714
11
5.53039
21
-4.28736
0
LINE
8
BLACK
6
CONTINUOUS
10
5.53039
20
-4.28736
11
5.52991
21
-4.28768
0
LINE
8
BLACK
6
CONTINUOUS
10
5.52991
20
-4.28768
11
5.52971
21
-4.28764
0
LINE
8
BLACK
6
CONTINUOUS
10
5.52971
20
-4.28764
11
5.52953
21
-4.28772
0
LINE
8
BLACK
6
CONTINUOUS
10
5.52953
20
-4.28772
11
5.529
21
-4.2875
0
LINE
8
BLACK
6
CONTINUOUS
10
5.529
20
-4.2875
11
5.52844
21
-4.28739
0
LINE
8
BLACK
6
CONTINUOUS
10
5.52844
20
-4.28739
11
5.50787
21
-4.27368
0
LINE
8
BLACK
6
CONTINUOUS
10
5.50787
20
-4.27368
11
5.50787
21
-4.29165
0
LINE
8
BLACK
6
CONTINUOUS
10
5.50787
20
-4.29165
11
5.5073
21
-4.29305
0
LINE
8
BLACK
6
CONTINUOUS
10
5.5073
20
-4.29305
11
5.50591
21
-4.29362
0
LINE
8
BLACK
6
CONTINUOUS
10
5.50591
20
-4.29362
11
5.50451
21
-4.29305
0
LINE
8
BLACK
6
CONTINUOUS
10
5.50451
20
-4.29305
11
5.50394
21
-4.29165
0
LINE
8
BLACK
6
CONTINUOUS
10
5.50394
20
-4.29165
11
5.50394
21
-4.27197
0
LINE
8
BLACK
6
CONTINUOUS
10
5.50394
20
-4.27197
11
5.49016
21
-4.27197
0
LINE
8
BLACK
6
CONTINUOUS
10
5.49016
20
-4.27197
11
5.48877
21
-4.27139
0
LINE
8
BLACK
6
CONTINUOUS
10
5.48877
20
-4.27139
11
5.48819
21
-4.27
0
LINE
8
BLACK
6
CONTINUOUS
10
5.48819
20
-4.27
11
5.48877
21
-4.26861
0
LINE
8
BLACK
6
CONTINUOUS
10
5.48877
20
-4.26861
11
5.49016
21
-4.26803
0
LINE
8
BLACK
6
CONTINUOUS
10
5.49016
20
-4.26803
11
5.50394
21
-4.26803
0
LINE
8
BLACK
6
CONTINUOUS
10
5.50394
20
-4.26803
11
5.50394
21
-4.24835
0
LINE
8
BLACK
6
CONTINUOUS
10
5.50394
20
-4.24835
11
5.50451
21
-4.24695
0
LINE
8
BLACK
6
CONTINUOUS
10
5.50451
20
-4.24695
11
5.50591
21
-4.24638
0
LINE
8
BLACK
6
CONTINUOUS
10
5.50591
20
-4.24638
11
5.5073
21
-4.24695
0
LINE
8
BLACK
6
CONTINUOUS
10
5.50945
20
-4.27
11
5.52756
21
-4.28207
0
LINE
8
BLACK
6
CONTINUOUS
10
5.52756
20
-4.28207
11
5.52756
21
-4.25793
0
LINE
8
BLACK
6
CONTINUOUS
10
5.52756
20
-4.25793
11
5.50945
21
-4.27
0
LINE
8
BLACK
6
CONTINUOUS
10
5.5748
20
-4.2326
11
5.5762
21
-4.23318
0
LINE
8
BLACK
6
CONTINUOUS
10
5.5762
20
-4.23318
11
5.57677
21
-4.23457
0
LINE
8
BLACK
6
CONTINUOUS
10
5.57677
20
-4.23457
11
5.57677
21
-4.30543
0
LINE
8
BLACK
6
CONTINUOUS
10
5.57677
20
-4.30543
11
5.5762
21
-4.30682
0
LINE
8
BLACK
6
CONTINUOUS
10
5.5762
20
-4.30682
11
5.5748
21
-4.3074
0
LINE
8
BLACK
6
CONTINUOUS
10
5.5748
20
-4.3074
11
5.46457
21
-4.3074
0
LINE
8
BLACK
6
CONTINUOUS
10
5.46457
20
-4.3074
11
5.46317
21
-4.30682
0
LINE
8
BLACK
6
CONTINUOUS
10
5.46317
20
-4.30682
11
5.4626
21
-4.30543
0
LINE
8
BLACK
6
CONTINUOUS
10
5.4626
20
-4.30543
11
5.4626
21
-4.23457
0
LINE
8
BLACK
6
CONTINUOUS
10
5.4626
20
-4.23457
11
5.46317
21
-4.23318
0
LINE
8
BLACK
6
CONTINUOUS
10
5.46317
20
-4.23318
11
5.46457
21
-4.2326
0
LINE
8
BLACK
6
CONTINUOUS
10
5.46457
20
-4.2326
11
5.5748
21
-4.2326
0
LINE
8
BLACK
6
CONTINUOUS
10
5.46654
20
-4.23654
11
5.46654
21
-4.30346
0
LINE
8
BLACK
6
CONTINUOUS
10
5.46654
20
-4.30346
11
5.57283
21
-4.30346
0
LINE
8
BLACK
6
CONTINUOUS
10
5.57283
20
-4.30346
11
5.57283
21
-4.23654
0
LINE
8
BLACK
6
CONTINUOUS
10
5.57283
20
-4.23654
11
5.46654
21
-4.23654
0
LINE
8
BLACK
6
CONTINUOUS
10
4.9172
20
-4.24231
11
4.91748
21
-4.24233
0
LINE
8
BLACK
6
CONTINUOUS
10
4.91748
20
-4.24233
11
4.91898
21
-4.24308
0
LINE
8
BLACK
6
CONTINUOUS
10
4.91898
20
-4.24308
11
4.9191
21
-4.24322
0
LINE
8
BLACK
6
CONTINUOUS
10
4.9191
20
-4.24322
11
4.91928
21
-4.2433
0
LINE
8
BLACK
6
CONTINUOUS
10
4.91928
20
-4.2433
11
4.92003
21
-4.24405
0
LINE
8
BLACK
6
CONTINUOUS
10
4.92003
20
-4.24405
11
4.92038
21
-4.24488
0
LINE
8
BLACK
6
CONTINUOUS
10
4.92038
20
-4.24488
11
4.92003
21
-4.24572
0
LINE
8
BLACK
6
CONTINUOUS
10
4.92003
20
-4.24572
11
4.9192
21
-4.24606
0
LINE
8
BLACK
6
CONTINUOUS
10
4.9192
20
-4.24606
11
4.91836
21
-4.24572
0
LINE
8
BLACK
6
CONTINUOUS
10
4.91836
20
-4.24572
11
4.91775
21
-4.2451
0
LINE
8
BLACK
6
CONTINUOUS
10
4.91775
20
-4.2451
11
4.91667
21
-4.24456
0
LINE
8
BLACK
6
CONTINUOUS
10
4.91667
20
-4.24456
11
4.91348
21
-4.24456
0
LINE
8
BLACK
6
CONTINUOUS
10
4.91348
20
-4.24456
11
4.9124
21
-4.2451
0
LINE
8
BLACK
6
CONTINUOUS
10
4.9124
20
-4.2451
11
4.91192
21
-4.24558
0
LINE
8
BLACK
6
CONTINUOUS
10
4.91192
20
-4.24558
11
4.91138
21
-4.24666
0
LINE
8
BLACK
6
CONTINUOUS
10
4.91138
20
-4.24666
11
4.91138
21
-4.24769
0
LINE
8
BLACK
6
CONTINUOUS
10
4.91138
20
-4.24769
11
4.91198
21
-4.24949
0
LINE
8
BLACK
6
CONTINUOUS
10
4.91198
20
-4.24949
11
4.92078
21
-4.2583
0
LINE
8
BLACK
6
CONTINUOUS
10
4.92078
20
-4.2583
11
4.92113
21
-4.25913
0
LINE
8
BLACK
6
CONTINUOUS
10
4.92113
20
-4.25913
11
4.92078
21
-4.25997
0
LINE
8
BLACK
6
CONTINUOUS
10
4.92078
20
-4.25997
11
4.91995
21
-4.26031
0
LINE
8
BLACK
6
CONTINUOUS
10
4.91995
20
-4.26031
11
4.9102
21
-4.26031
0
LINE
8
BLACK
6
CONTINUOUS
10
4.9102
20
-4.26031
11
4.90936
21
-4.25997
0
LINE
8
BLACK
6
CONTINUOUS
10
4.90936
20
-4.25997
11
4.90902
21
-4.25913
0
LINE
8
BLACK
6
CONTINUOUS
10
4.90902
20
-4.25913
11
4.90936
21
-4.2583
0
LINE
8
BLACK
6
CONTINUOUS
10
4.90936
20
-4.2583
11
4.9102
21
-4.25795
0
LINE
8
BLACK
6
CONTINUOUS
10
4.9102
20
-4.25795
11
4.9171
21
-4.25795
0
LINE
8
BLACK
6
CONTINUOUS
10
4.9171
20
-4.25795
11
4.91011
21
-4.25097
0
LINE
8
BLACK
6
CONTINUOUS
10
4.91011
20
-4.25097
11
4.91001
21
-4.25071
0
LINE
8
BLACK
6
CONTINUOUS
10
4.91001
20
-4.25071
11
4.90983
21
-4.25051
0
LINE
8
BLACK
6
CONTINUOUS
10
4.90983
20
-4.25051
11
4.90908
21
-4.24826
0
LINE
8
BLACK
6
CONTINUOUS
10
4.90908
20
-4.24826
11
4.90909
21
-4.24806
0
LINE
8
BLACK
6
CONTINUOUS
10
4.90909
20
-4.24806
11
4.90902
21
-4.24788
0
LINE
8
BLACK
6
CONTINUOUS
10
4.90902
20
-4.24788
11
4.90902
21
-4.24638
0
LINE
8
BLACK
6
CONTINUOUS
10
4.90902
20
-4.24638
11
4.90912
21
-4.24613
0
LINE
8
BLACK
6
CONTINUOUS
10
4.90912
20
-4.24613
11
4.90914
21
-4.24585
0
LINE
8
BLACK
6
CONTINUOUS
10
4.90914
20
-4.24585
11
4.90989
21
-4.24435
0
LINE
8
BLACK
6
CONTINUOUS
10
4.90989
20
-4.24435
11
4.91004
21
-4.24423
0
LINE
8
BLACK
6
CONTINUOUS
10
4.91004
20
-4.24423
11
4.91011
21
-4.24405
0
LINE
8
BLACK
6
CONTINUOUS
10
4.91011
20
-4.24405
11
4.91086
21
-4.2433
0
LINE
8
BLACK
6
CONTINUOUS
10
4.91086
20
-4.2433
11
4.91104
21
-4.24322
0
LINE
8
BLACK
6
CONTINUOUS
10
4.91104
20
-4.24322
11
4.91117
21
-4.24308
0
LINE
8
BLACK
6
CONTINUOUS
10
4.91117
20
-4.24308
11
4.91267
21
-4.24233
0
LINE
8
BLACK
6
CONTINUOUS
10
4.91267
20
-4.24233
11
4.91294
21
-4.24231
0
LINE
8
BLACK
6
CONTINUOUS
10
4.91294
20
-4.24231
11
4.9132
21
-4.2422
0
LINE
8
BLACK
6
CONTINUOUS
10
4.9132
20
-4.2422
11
4.91695
21
-4.2422
0
LINE
8
BLACK
6
CONTINUOUS
10
4.91695
20
-4.2422
11
4.9172
21
-4.24231
0
LINE
8
BLACK
6
CONTINUOUS
10
4.93503
20
-4.24255
11
4.93538
21
-4.24338
0
LINE
8
BLACK
6
CONTINUOUS
10
4.93538
20
-4.24338
11
4.93538
21
-4.25913
0
LINE
8
BLACK
6
CONTINUOUS
10
4.93538
20
-4.25913
11
4.93503
21
-4.25997
0
LINE
8
BLACK
6
CONTINUOUS
10
4.93503
20
-4.25997
11
4.9342
21
-4.26031
0
LINE
8
BLACK
6
CONTINUOUS
10
4.9342
20
-4.26031
11
4.93045
21
-4.26031
0
LINE
8
BLACK
6
CONTINUOUS
10
4.93045
20
-4.26031
11
4.93027
21
-4.26024
0
LINE
8
BLACK
6
CONTINUOUS
10
4.93027
20
-4.26024
11
4.93007
21
-4.26025
0
LINE
8
BLACK
6
CONTINUOUS
10
4.93007
20
-4.26025
11
4.92782
21
-4.2595
0
LINE
8
BLACK
6
CONTINUOUS
10
4.92782
20
-4.2595
11
4.92762
21
-4.25932
0
LINE
8
BLACK
6
CONTINUOUS
10
4.92762
20
-4.25932
11
4.92736
21
-4.25922
0
LINE
8
BLACK
6
CONTINUOUS
10
4.92736
20
-4.25922
11
4.92586
21
-4.25772
0
LINE
8
BLACK
6
CONTINUOUS
10
4.92586
20
-4.25772
11
4.92579
21
-4.25754
0
LINE
8
BLACK
6
CONTINUOUS
10
4.92579
20
-4.25754
11
4.92564
21
-4.25741
0
LINE
8
BLACK
6
CONTINUOUS
10
4.92564
20
-4.25741
11
4.92489
21
-4.25591
0
LINE
8
BLACK
6
CONTINUOUS
10
4.92489
20
-4.25591
11
4.92488
21
-4.25578
0
LINE
8
BLACK
6
CONTINUOUS
10
4.92488
20
-4.25578
11
4.9248
21
-4.25567
0
LINE
8
BLACK
6
CONTINUOUS
10
4.9248
20
-4.25567
11
4.92405
21
-4.25267
0
LINE
8
BLACK
6
CONTINUOUS
10
4.92405
20
-4.25267
11
4.92407
21
-4.25252
0
LINE
8
BLACK
6
CONTINUOUS
10
4.92407
20
-4.25252
11
4.92402
21
-4.25238
0
LINE
8
BLACK
6
CONTINUOUS
10
4.92402
20
-4.25238
11
4.92402
21
-4.25013
0
LINE
8
BLACK
6
CONTINUOUS
10
4.92402
20
-4.25013
11
4.92407
21
-4.24999
0
LINE
8
BLACK
6
CONTINUOUS
10
4.92407
20
-4.24999
11
4.92405
21
-4.24985
0
LINE
8
BLACK
6
CONTINUOUS
10
4.92405
20
-4.24985
11
4.9248
21
-4.24685
0
LINE
8
BLACK
6
CONTINUOUS
10
4.9248
20
-4.24685
11
4.92488
21
-4.24674
0
LINE
8
BLACK
6
CONTINUOUS
10
4.92488
20
-4.24674
11
4.92489
21
-4.2466
0
LINE
8
BLACK
6
CONTINUOUS
10
4.92489
20
-4.2466
11
4.92564
21
-4.2451
0
LINE
8
BLACK
6
CONTINUOUS
10
4.92564
20
-4.2451
11
4.92579
21
-4.24498
0
LINE
8
BLACK
6
CONTINUOUS
10
4.92579
20
-4.24498
11
4.92586
21
-4.2448
0
LINE
8
BLACK
6
CONTINUOUS
10
4.92586
20
-4.2448
11
4.92736
21
-4.2433
0
LINE
8
BLACK
6
CONTINUOUS
10
4.92736
20
-4.2433
11
4.92762
21
-4.24319
0
LINE
8
BLACK
6
CONTINUOUS
10
4.92762
20
-4.24319
11
4.92782
21
-4.24301
0
LINE
8
BLACK
6
CONTINUOUS
10
4.92782
20
-4.24301
11
4.93007
21
-4.24226
0
LINE
8
BLACK
6
CONTINUOUS
10
4.93007
20
-4.24226
11
4.93027
21
-4.24228
0
LINE
8
BLACK
6
CONTINUOUS
10
4.93027
20
-4.24228
11
4.93045
21
-4.2422
0
LINE
8
BLACK
6
CONTINUOUS
10
4.93045
20
-4.2422
11
4.9342
21
-4.2422
0
LINE
8
BLACK
6
CONTINUOUS
10
4.9342
20
-4.2422
11
4.93503
21
-4.24255
0
LINE
8
BLACK
6
CONTINUOUS
10
4.92883
20
-4.24517
11
4.92767
21
-4.24633
0
LINE
8
BLACK
6
CONTINUOUS
10
4.92767
20
-4.24633
11
4.92706
21
-4.24754
0
LINE
8
BLACK
6
CONTINUOUS
10
4.92706
20
-4.24754
11
4.92638
21
-4.25028
0
LINE
8
BLACK
6
CONTINUOUS
10
4.92638
20
-4.25028
11
4.92638
21
-4.25224
0
LINE
8
BLACK
6
CONTINUOUS
10
4.92638
20
-4.25224
11
4.92706
21
-4.25497
0
LINE
8
BLACK
6
CONTINUOUS
10
4.92706
20
-4.25497
11
4.92767
21
-4.25618
0
LINE
8
BLACK
6
CONTINUOUS
10
4.92767
20
-4.25618
11
4.92883
21
-4.25735
0
LINE
8
BLACK
6
CONTINUOUS
10
4.92883
20
-4.25735
11
4.93064
21
-4.25795
0
LINE
8
BLACK
6
CONTINUOUS
10
4.93064
20
-4.25795
11
4.93301
21
-4.25795
0
LINE
8
BLACK
6
CONTINUOUS
10
4.93301
20
-4.25795
11
4.93301
21
-4.24456
0
LINE
8
BLACK
6
CONTINUOUS
10
4.93301
20
-4.24456
11
4.93064
21
-4.24456
0
LINE
8
BLACK
6
CONTINUOUS
10
4.93064
20
-4.24456
11
4.92883
21
-4.24517
0
LINE
8
BLACK
6
CONTINUOUS
10
4.94253
20
-4.24255
11
4.94288
21
-4.24338
0
LINE
8
BLACK
6
CONTINUOUS
10
4.94288
20
-4.24338
11
4.94288
21
-4.25913
0
LINE
8
BLACK
6
CONTINUOUS
10
4.94288
20
-4.25913
11
4.94253
21
-4.25997
0
LINE
8
BLACK
6
CONTINUOUS
10
4.94253
20
-4.25997
11
4.94169
21
-4.26031
0
LINE
8
BLACK
6
CONTINUOUS
10
4.94169
20
-4.26031
11
4.94086
21
-4.25997
0
LINE
8
BLACK
6
CONTINUOUS
10
4.94086
20
-4.25997
11
4.94051
21
-4.25913
0
LINE
8
BLACK
6
CONTINUOUS
10
4.94051
20
-4.25913
11
4.94051
21
-4.24338
0
LINE
8
BLACK
6
CONTINUOUS
10
4.94051
20
-4.24338
11
4.94086
21
-4.24255
0
LINE
8
BLACK
6
CONTINUOUS
10
4.94086
20
-4.24255
11
4.94169
21
-4.2422
0
LINE
8
BLACK
6
CONTINUOUS
10
4.94169
20
-4.2422
11
4.94253
21
-4.24255
0
LINE
8
BLACK
6
CONTINUOUS
10
4.95603
20
-4.24255
11
4.95637
21
-4.24338
0
LINE
8
BLACK
6
CONTINUOUS
10
4.95637
20
-4.24338
11
4.95637
21
-4.25913
0
LINE
8
BLACK
6
CONTINUOUS
10
4.95637
20
-4.25913
11
4.95603
21
-4.25997
0
LINE
8
BLACK
6
CONTINUOUS
10
4.95603
20
-4.25997
11
4.95519
21
-4.26031
0
LINE
8
BLACK
6
CONTINUOUS
10
4.95519
20
-4.26031
11
4.95436
21
-4.25997
0
LINE
8
BLACK
6
CONTINUOUS
10
4.95436
20
-4.25997
11
4.95401
21
-4.25913
0
LINE
8
BLACK
6
CONTINUOUS
10
4.95401
20
-4.25913
11
4.95401
21
-4.25206
0
LINE
8
BLACK
6
CONTINUOUS
10
4.95401
20
-4.25206
11
4.94994
21
-4.25206
0
LINE
8
BLACK
6
CONTINUOUS
10
4.94994
20
-4.25206
11
4.94911
21
-4.25172
0
LINE
8
BLACK
6
CONTINUOUS
10
4.94911
20
-4.25172
11
4.94876
21
-4.25088
0
LINE
8
BLACK
6
CONTINUOUS
10
4.94876
20
-4.25088
11
4.94911
21
-4.25005
0
LINE
8
BLACK
6
CONTINUOUS
10
4.94911
20
-4.25005
11
4.94994
21
-4.2497
0
LINE
8
BLACK
6
CONTINUOUS
10
4.94994
20
-4.2497
11
4.95401
21
-4.2497
0
LINE
8
BLACK
6
CONTINUOUS
10
4.95401
20
-4.2497
11
4.95401
21
-4.24456
0
LINE
8
BLACK
6
CONTINUOUS
10
4.95401
20
-4.24456
11
4.94769
21
-4.24456
0
LINE
8
BLACK
6
CONTINUOUS
10
4.94769
20
-4.24456
11
4.94686
21
-4.24422
0
LINE
8
BLACK
6
CONTINUOUS
10
4.94686
20
-4.24422
11
4.94651
21
-4.24338
0
LINE
8
BLACK
6
CONTINUOUS
10
4.94651
20
-4.24338
11
4.94686
21
-4.24255
0
LINE
8
BLACK
6
CONTINUOUS
10
4.94686
20
-4.24255
11
4.94769
21
-4.2422
0
LINE
8
BLACK
6
CONTINUOUS
10
4.94769
20
-4.2422
11
4.95519
21
-4.2422
0
LINE
8
BLACK
6
CONTINUOUS
10
4.95519
20
-4.2422
11
4.95603
21
-4.24255
0
LINE
8
BLACK
6
CONTINUOUS
10
4.94114
20
-4.21142
11
4.94889
21
-4.21378
0
LINE
8
BLACK
6
CONTINUOUS
10
4.94889
20
-4.21378
11
4.95604
21
-4.2176
0
LINE
8
BLACK
6
CONTINUOUS
10
4.95604
20
-4.2176
11
4.9623
21
-4.22274
0
LINE
8
BLACK
6
CONTINUOUS
10
4.9623
20
-4.22274
11
4.96744
21
-4.229
0
LINE
8
BLACK
6
CONTINUOUS
10
4.96744
20
-4.229
11
4.97126
21
-4.23615
0
LINE
8
BLACK
6
CONTINUOUS
10
4.97126
20
-4.23615
11
4.97362
21
-4.2439
0
LINE
8
BLACK
6
CONTINUOUS
10
4.97362
20
-4.2439
11
4.97441
21
-4.25197
0
LINE
8
BLACK
6
CONTINUOUS
10
4.97441
20
-4.25197
11
4.97362
21
-4.26003
0
LINE
8
BLACK
6
CONTINUOUS
10
4.97362
20
-4.26003
11
4.97126
21
-4.26779
0
LINE
8
BLACK
6
CONTINUOUS
10
4.97126
20
-4.26779
11
4.96744
21
-4.27494
0
LINE
8
BLACK
6
CONTINUOUS
10
4.96744
20
-4.27494
11
4.9623
21
-4.2812
0
LINE
8
BLACK
6
CONTINUOUS
10
4.9623
20
-4.2812
11
4.95604
21
-4.28634
0
LINE
8
BLACK
6
CONTINUOUS
10
4.95604
20
-4.28634
11
4.94889
21
-4.29016
0
LINE
8
BLACK
6
CONTINUOUS
10
4.94889
20
-4.29016
11
4.94114
21
-4.29251
0
LINE
8
BLACK
6
CONTINUOUS
10
4.94114
20
-4.29251
11
4.93307
21
-4.29331
0
LINE
8
BLACK
6
CONTINUOUS
10
4.93307
20
-4.29331
11
4.92501
21
-4.29251
0
LINE
8
BLACK
6
CONTINUOUS
10
4.92501
20
-4.29251
11
4.91725
21
-4.29016
0
LINE
8
BLACK
6
CONTINUOUS
10
4.91725
20
-4.29016
11
4.9101
21
-4.28634
0
LINE
8
BLACK
6
CONTINUOUS
10
4.9101
20
-4.28634
11
4.90384
21
-4.2812
0
LINE
8
BLACK
6
CONTINUOUS
10
4.90384
20
-4.2812
11
4.8987
21
-4.27494
0
LINE
8
BLACK
6
CONTINUOUS
10
4.8987
20
-4.27494
11
4.89488
21
-4.26779
0
LINE
8
BLACK
6
CONTINUOUS
10
4.89488
20
-4.26779
11
4.89253
21
-4.26003
0
LINE
8
BLACK
6
CONTINUOUS
10
4.89253
20
-4.26003
11
4.89173
21
-4.25197
0
LINE
8
BLACK
6
CONTINUOUS
10
4.89173
20
-4.25197
11
4.89253
21
-4.2439
0
LINE
8
BLACK
6
CONTINUOUS
10
4.89253
20
-4.2439
11
4.89488
21
-4.23615
0
LINE
8
BLACK
6
CONTINUOUS
10
4.89488
20
-4.23615
11
4.8987
21
-4.229
0
LINE
8
BLACK
6
CONTINUOUS
10
4.8987
20
-4.229
11
4.90384
21
-4.22274
0
LINE
8
BLACK
6
CONTINUOUS
10
4.90384
20
-4.22274
11
4.9101
21
-4.2176
0
LINE
8
BLACK
6
CONTINUOUS
10
4.9101
20
-4.2176
11
4.91725
21
-4.21378
0
LINE
8
BLACK
6
CONTINUOUS
10
4.91725
20
-4.21378
11
4.92501
21
-4.21142
0
LINE
8
BLACK
6
CONTINUOUS
10
4.92501
20
-4.21142
11
4.93307
21
-4.21063
0
LINE
8
BLACK
6
CONTINUOUS
10
4.93307
20
-4.21063
11
4.94114
21
-4.21142
0
LINE
8
BLACK
6
CONTINUOUS
10
4.89621
20
-4.2593
11
4.89835
21
-4.26635
0
LINE
8
BLACK
6
CONTINUOUS
10
4.89835
20
-4.26635
11
4.90182
21
-4.27285
0
LINE
8
BLACK
6
CONTINUOUS
10
4.90182
20
-4.27285
11
4.9065
21
-4.27854
0
LINE
8
BLACK
6
CONTINUOUS
10
4.9065
20
-4.27854
11
4.91219
21
-4.28322
0
LINE
8
BLACK
6
CONTINUOUS
10
4.91219
20
-4.28322
11
4.91869
21
-4.28669
0
LINE
8
BLACK
6
CONTINUOUS
10
4.91869
20
-4.28669
11
4.92574
21
-4.28883
0
LINE
8
BLACK
6
CONTINUOUS
10
4.92574
20
-4.28883
11
4.93307
21
-4.28955
0
LINE
8
BLACK
6
CONTINUOUS
10
4.93307
20
-4.28955
11
4.9404
21
-4.28883
0
LINE
8
BLACK
6
CONTINUOUS
10
4.9404
20
-4.28883
11
4.94745
21
-4.28669
0
LINE
8
BLACK
6
CONTINUOUS
10
4.94745
20
-4.28669
11
4.95395
21
-4.28322
0
LINE
8
BLACK
6
CONTINUOUS
10
4.95395
20
-4.28322
11
4.95965
21
-4.27854
0
LINE
8
BLACK
6
CONTINUOUS
10
4.95965
20
-4.27854
11
4.96432
21
-4.27285
0
LINE
8
BLACK
6
CONTINUOUS
10
4.96432
20
-4.27285
11
4.96779
21
-4.26635
0
LINE
8
BLACK
6
CONTINUOUS
10
4.96779
20
-4.26635
11
4.96993
21
-4.2593
0
LINE
8
BLACK
6
CONTINUOUS
10
4.96993
20
-4.2593
11
4.97065
21
-4.25197
0
LINE
8
BLACK
6
CONTINUOUS
10
4.97065
20
-4.25197
11
4.96993
21
-4.24464
0
LINE
8
BLACK
6
CONTINUOUS
10
4.96993
20
-4.24464
11
4.96779
21
-4.23759
0
LINE
8
BLACK
6
CONTINUOUS
10
4.96779
20
-4.23759
11
4.96432
21
-4.23109
0
LINE
8
BLACK
6
CONTINUOUS
10
4.96432
20
-4.23109
11
4.95965
21
-4.22539
0
LINE
8
BLACK
6
CONTINUOUS
10
4.95965
20
-4.22539
11
4.95395
21
-4.22072
0
LINE
8
BLACK
6
CONTINUOUS
10
4.95395
20
-4.22072
11
4.94745
21
-4.21725
0
LINE
8
BLACK
6
CONTINUOUS
10
4.94745
20
-4.21725
11
4.9404
21
-4.21511
0
LINE
8
BLACK
6
CONTINUOUS
10
4.9404
20
-4.21511
11
4.93307
21
-4.21439
0
LINE
8
BLACK
6
CONTINUOUS
10
4.93307
20
-4.21439
11
4.92574
21
-4.21511
0
LINE
8
BLACK
6
CONTINUOUS
10
4.92574
20
-4.21511
11
4.91869
21
-4.21725
0
LINE
8
BLACK
6
CONTINUOUS
10
4.91869
20
-4.21725
11
4.91219
21
-4.22072
0
LINE
8
BLACK
6
CONTINUOUS
10
4.91219
20
-4.22072
11
4.9065
21
-4.22539
0
LINE
8
BLACK
6
CONTINUOUS
10
4.9065
20
-4.22539
11
4.90182
21
-4.23109
0
LINE
8
BLACK
6
CONTINUOUS
10
4.90182
20
-4.23109
11
4.89835
21
-4.23759
0
LINE
8
BLACK
6
CONTINUOUS
10
4.89835
20
-4.23759
11
4.89621
21
-4.24464
0
LINE
8
BLACK
6
CONTINUOUS
10
4.89621
20
-4.24464
11
4.89549
21
-4.25197
0
LINE
8
BLACK
6
CONTINUOUS
10
4.89549
20
-4.25197
11
4.89621
21
-4.2593
0
LINE
8
BLACK
6
CONTINUOUS
10
5.55654
20
-4.15563
11
5.55666
21
-4.15561
0
LINE
8
BLACK
6
CONTINUOUS
10
5.55666
20
-4.15561
11
5.55695
21
-4.1558
0
LINE
8
BLACK
6
CONTINUOUS
10
5.55695
20
-4.1558
11
5.55727
21
-4.15593
0
LINE
8
BLACK
6
CONTINUOUS
10
5.55727
20
-4.15593
11
5.55731
21
-4.15605
0
LINE
8
BLACK
6
CONTINUOUS
10
5.55731
20
-4.15605
11
5.55741
21
-4.15611
0
LINE
8
BLACK
6
CONTINUOUS
10
5.55741
20
-4.15611
11
5.55885
21
-4.15827
0
LINE
8
BLACK
6
CONTINUOUS
10
5.55885
20
-4.15827
11
5.56013
21
-4.15955
0
LINE
8
BLACK
6
CONTINUOUS
10
5.56013
20
-4.15955
11
5.56146
21
-4.16021
0
LINE
8
BLACK
6
CONTINUOUS
10
5.56146
20
-4.16021
11
5.56205
21
-4.16089
0
LINE
8
BLACK
6
CONTINUOUS
10
5.56205
20
-4.16089
11
5.56199
21
-4.1618
0
LINE
8
BLACK
6
CONTINUOUS
10
5.56199
20
-4.1618
11
5.5613
21
-4.16239
0
LINE
8
BLACK
6
CONTINUOUS
10
5.5613
20
-4.16239
11
5.5604
21
-4.16232
0
LINE
8
BLACK
6
CONTINUOUS
10
5.5604
20
-4.16232
11
5.5589
21
-4.16157
0
LINE
8
BLACK
6
CONTINUOUS
10
5.5589
20
-4.16157
11
5.55877
21
-4.16143
0
LINE
8
BLACK
6
CONTINUOUS
10
5.55877
20
-4.16143
11
5.55859
21
-4.16135
0
LINE
8
BLACK
6
CONTINUOUS
10
5.55859
20
-4.16135
11
5.55761
21
-4.16037
0
LINE
8
BLACK
6
CONTINUOUS
10
5.55761
20
-4.16037
11
5.55761
21
-4.17134
0
LINE
8
BLACK
6
CONTINUOUS
10
5.55761
20
-4.17134
11
5.56093
21
-4.17134
0
LINE
8
BLACK
6
CONTINUOUS
10
5.56093
20
-4.17134
11
5.56177
21
-4.17168
0
LINE
8
BLACK
6
CONTINUOUS
10
5.56177
20
-4.17168
11
5.56211
21
-4.17252
0
LINE
8
BLACK
6
CONTINUOUS
10
5.56211
20
-4.17252
11
5.56177
21
-4.17335
0
LINE
8
BLACK
6
CONTINUOUS
10
5.56177
20
-4.17335
11
5.56093
21
-4.1737
0
LINE
8
BLACK
6
CONTINUOUS
10
5.56093
20
-4.1737
11
5.55643
21
-4.1737
0
LINE
8
BLACK
6
CONTINUOUS
10
5.55643
20
-4.1737
11
5.55193
21
-4.1737
0
LINE
8
BLACK
6
CONTINUOUS
10
5.55193
20
-4.1737
11
5.5511
21
-4.17335
0
LINE
8
BLACK
6
CONTINUOUS
10
5.5511
20
-4.17335
11
5.55075
21
-4.17252
0
LINE
8
BLACK
6
CONTINUOUS
10
5.55075
20
-4.17252
11
5.5511
21
-4.17168
0
LINE
8
BLACK
6
CONTINUOUS
10
5.5511
20
-4.17168
11
5.55193
21
-4.17134
0
LINE
8
BLACK
6
CONTINUOUS
10
5.55193
20
-4.17134
11
5.55525
21
-4.17134
0
LINE
8
BLACK
6
CONTINUOUS
10
5.55525
20
-4.17134
11
5.55525
21
-4.15677
0
LINE
8
BLACK
6
CONTINUOUS
10
5.55525
20
-4.15677
11
5.5553
21
-4.15666
0
LINE
8
BLACK
6
CONTINUOUS
10
5.5553
20
-4.15666
11
5.55527
21
-4.15654
0
LINE
8
BLACK
6
CONTINUOUS
10
5.55527
20
-4.15654
11
5.55546
21
-4.15625
0
LINE
8
BLACK
6
CONTINUOUS
10
5.55546
20
-4.15625
11
5.5556
21
-4.15593
0
LINE
8
BLACK
6
CONTINUOUS
10
5.5556
20
-4.15593
11
5.55571
21
-4.15589
0
LINE
8
BLACK
6
CONTINUOUS
10
5.55571
20
-4.15589
11
5.55578
21
-4.15579
0
LINE
8
BLACK
6
CONTINUOUS
10
5.55578
20
-4.15579
11
5.55611
21
-4.15572
0
LINE
8
BLACK
6
CONTINUOUS
10
5.55611
20
-4.15572
11
5.55643
21
-4.15559
0
LINE
8
BLACK
6
CONTINUOUS
10
5.55643
20
-4.15559
11
5.55654
21
-4.15563
0
LINE
8
BLACK
6
CONTINUOUS
10
5.57676
20
-4.15593
11
5.57711
21
-4.15677
0
LINE
8
BLACK
6
CONTINUOUS
10
5.57711
20
-4.15677
11
5.57711
21
-4.17252
0
LINE
8
BLACK
6
CONTINUOUS
10
5.57711
20
-4.17252
11
5.57676
21
-4.17335
0
LINE
8
BLACK
6
CONTINUOUS
10
5.57676
20
-4.17335
11
5.57593
21
-4.1737
0
LINE
8
BLACK
6
CONTINUOUS
10
5.57593
20
-4.1737
11
5.57218
21
-4.1737
0
LINE
8
BLACK
6
CONTINUOUS
10
5.57218
20
-4.1737
11
5.572
21
-4.17362
0
LINE
8
BLACK
6
CONTINUOUS
10
5.572
20
-4.17362
11
5.5718
21
-4.17364
0
LINE
8
BLACK
6
CONTINUOUS
10
5.5718
20
-4.17364
11
5.56956
21
-4.17289
0
LINE
8
BLACK
6
CONTINUOUS
10
5.56956
20
-4.17289
11
5.56935
21
-4.17271
0
LINE
8
BLACK
6
CONTINUOUS
10
5.56935
20
-4.17271
11
5.56909
21
-4.1726
0
LINE
8
BLACK
6
CONTINUOUS
10
5.56909
20
-4.1726
11
5.56759
21
-4.1711
0
LINE
8
BLACK
6
CONTINUOUS
10
5.56759
20
-4.1711
11
5.56752
21
-4.17092
0
LINE
8
BLACK
6
CONTINUOUS
10
5.56752
20
-4.17092
11
5.56737
21
-4.1708
0
LINE
8
BLACK
6
CONTINUOUS
10
5.56737
20
-4.1708
11
5.56662
21
-4.1693
0
LINE
8
BLACK
6
CONTINUOUS
10
5.56662
20
-4.1693
11
5.56661
21
-4.16916
0
LINE
8
BLACK
6
CONTINUOUS
10
5.56661
20
-4.16916
11
5.56653
21
-4.16905
0
LINE
8
BLACK
6
CONTINUOUS
10
5.56653
20
-4.16905
11
5.56578
21
-4.16605
0
LINE
8
BLACK
6
CONTINUOUS
10
5.56578
20
-4.16605
11
5.56581
21
-4.16591
0
LINE
8
BLACK
6
CONTINUOUS
10
5.56581
20
-4.16591
11
5.56575
21
-4.16577
0
LINE
8
BLACK
6
CONTINUOUS
10
5.56575
20
-4.16577
11
5.56575
21
-4.16352
0
LINE
8
BLACK
6
CONTINUOUS
10
5.56575
20
-4.16352
11
5.56581
21
-4.16338
0
LINE
8
BLACK
6
CONTINUOUS
10
5.56581
20
-4.16338
11
5.56578
21
-4.16323
0
LINE
8
BLACK
6
CONTINUOUS
10
5.56578
20
-4.16323
11
5.56653
21
-4.16023
0
LINE
8
BLACK
6
CONTINUOUS
10
5.56653
20
-4.16023
11
5.56661
21
-4.16012
0
LINE
8
BLACK
6
CONTINUOUS
10
5.56661
20
-4.16012
11
5.56662
21
-4.15999
0
LINE
8
BLACK
6
CONTINUOUS
10
5.56662
20
-4.15999
11
5.56737
21
-4.15849
0
LINE
8
BLACK
6
CONTINUOUS
10
5.56737
20
-4.15849
11
5.56752
21
-4.15836
0
LINE
8
BLACK
6
CONTINUOUS
10
5.56752
20
-4.15836
11
5.56759
21
-4.15818
0
LINE
8
BLACK
6
CONTINUOUS
10
5.56759
20
-4.15818
11
5.56909
21
-4.15668
0
LINE
8
BLACK
6
CONTINUOUS
10
5.56909
20
-4.15668
11
5.56935
21
-4.15658
0
LINE
8
BLACK
6
CONTINUOUS
10
5.56935
20
-4.15658
11
5.56956
21
-4.1564
0
LINE
8
BLACK
6
CONTINUOUS
10
5.56956
20
-4.1564
11
5.5718
21
-4.15565
0
LINE
8
BLACK
6
CONTINUOUS
10
5.5718
20
-4.15565
11
5.572
21
-4.15566
0
LINE
8
BLACK
6
CONTINUOUS
10
5.572
20
-4.15566
11
5.57218
21
-4.15559
0
LINE
8
BLACK
6
CONTINUOUS
10
5.57218
20
-4.15559
11
5.57593
21
-4.15559
0
LINE
8
BLACK
6
CONTINUOUS
10
5.57593
20
-4.15559
11
5.57676
21
-4.15593
0
LINE
8
BLACK
6
CONTINUOUS
10
5.57057
20
-4.15855
11
5.5694
21
-4.15972
0
LINE
8
BLACK
6
CONTINUOUS
10
5.5694
20
-4.15972
11
5.56879
21
-4.16093
0
LINE
8
BLACK
6
CONTINUOUS
10
5.56879
20
-4.16093
11
5.56811
21
-4.16366
0
LINE
8
BLACK
6
CONTINUOUS
10
5.56811
20
-4.16366
11
5.56811
21
-4.16562
0
LINE
8
BLACK
6
CONTINUOUS
10
5.56811
20
-4.16562
11
5.56879
21
-4.16836
0
LINE
8
BLACK
6
CONTINUOUS
10
5.56879
20
-4.16836
11
5.5694
21
-4.16957
0
LINE
8
BLACK
6
CONTINUOUS
10
5.5694
20
-4.16957
11
5.57057
21
-4.17073
0
LINE
8
BLACK
6
CONTINUOUS
10
5.57057
20
-4.17073
11
5.57237
21
-4.17134
0
LINE
8
BLACK
6
CONTINUOUS
10
5.57237
20
-4.17134
11
5.57475
21
-4.17134
0
LINE
8
BLACK
6
CONTINUOUS
10
5.57475
20
-4.17134
11
5.57475
21
-4.15795
0
LINE
8
BLACK
6
CONTINUOUS
10
5.57475
20
-4.15795
11
5.57237
21
-4.15795
0
LINE
8
BLACK
6
CONTINUOUS
10
5.57237
20
-4.15795
11
5.57057
21
-4.15855
0
LINE
8
BLACK
6
CONTINUOUS
10
5.58426
20
-4.15593
11
5.58461
21
-4.15677
0
LINE
8
BLACK
6
CONTINUOUS
10
5.58461
20
-4.15677
11
5.58461
21
-4.17252
0
LINE
8
BLACK
6
CONTINUOUS
10
5.58461
20
-4.17252
11
5.58426
21
-4.17335
0
LINE
8
BLACK
6
CONTINUOUS
10
5.58426
20
-4.17335
11
5.58343
21
-4.1737
0
LINE
8
BLACK
6
CONTINUOUS
10
5.58343
20
-4.1737
11
5.58259
21
-4.17335
0
LINE
8
BLACK
6
CONTINUOUS
10
5.58259
20
-4.17335
11
5.58225
21
-4.17252
0
LINE
8
BLACK
6
CONTINUOUS
10
5.58225
20
-4.17252
11
5.58225
21
-4.15677
0
LINE
8
BLACK
6
CONTINUOUS
10
5.58225
20
-4.15677
11
5.58259
21
-4.15593
0
LINE
8
BLACK
6
CONTINUOUS
10
5.58259
20
-4.15593
11
5.58343
21
-4.15559
0
LINE
8
BLACK
6
CONTINUOUS
10
5.58343
20
-4.15559
11
5.58426
21
-4.15593
0
LINE
8
BLACK
6
CONTINUOUS
10
5.59776
20
-4.15593
11
5.59811
21
-4.15677
0
LINE
8
BLACK
6
CONTINUOUS
10
5.59811
20
-4.15677
11
5.59811
21
-4.17252
0
LINE
8
BLACK
6
CONTINUOUS
10
5.59811
20
-4.17252
11
5.59776
21
-4.17335
0
LINE
8
BLACK
6
CONTINUOUS
10
5.59776
20
-4.17335
11
5.59693
21
-4.1737
0
LINE
8
BLACK
6
CONTINUOUS
10
5.59693
20
-4.1737
11
5.59609
21
-4.17335
0
LINE
8
BLACK
6
CONTINUOUS
10
5.59609
20
-4.17335
11
5.59574
21
-4.17252
0
LINE
8
BLACK
6
CONTINUOUS
10
5.59574
20
-4.17252
11
5.59574
21
-4.16545
0
LINE
8
BLACK
6
CONTINUOUS
10
5.59574
20
-4.16545
11
5.59168
21
-4.16545
0
LINE
8
BLACK
6
CONTINUOUS
10
5.59168
20
-4.16545
11
5.59084
21
-4.1651
0
LINE
8
BLACK
6
CONTINUOUS
10
5.59084
20
-4.1651
11
5.59049
21
-4.16427
0
LINE
8
BLACK
6
CONTINUOUS
10
5.59049
20
-4.16427
11
5.59084
21
-4.16343
0
LINE
8
BLACK
6
CONTINUOUS
10
5.59084
20
-4.16343
11
5.59168
21
-4.16309
0
LINE
8
BLACK
6
CONTINUOUS
10
5.59168
20
-4.16309
11
5.59574
21
-4.16309
0
LINE
8
BLACK
6
CONTINUOUS
10
5.59574
20
-4.16309
11
5.59574
21
-4.15795
0
LINE
8
BLACK
6
CONTINUOUS
10
5.59574
20
-4.15795
11
5.58943
21
-4.15795
0
LINE
8
BLACK
6
CONTINUOUS
10
5.58943
20
-4.15795
11
5.58859
21
-4.1576
0
LINE
8
BLACK
6
CONTINUOUS
10
5.58859
20
-4.1576
11
5.58825
21
-4.15677
0
LINE
8
BLACK
6
CONTINUOUS
10
5.58825
20
-4.15677
11
5.58859
21
-4.15593
0
LINE
8
BLACK
6
CONTINUOUS
10
5.58859
20
-4.15593
11
5.58943
21
-4.15559
0
LINE
8
BLACK
6
CONTINUOUS
10
5.58943
20
-4.15559
11
5.59693
21
-4.15559
0
LINE
8
BLACK
6
CONTINUOUS
10
5.59693
20
-4.15559
11
5.59776
21
-4.15593
0
LINE
8
BLACK
6
CONTINUOUS
10
5.58287
20
-4.12481
11
5.59062
21
-4.12716
0
LINE
8
BLACK
6
CONTINUOUS
10
5.59062
20
-4.12716
11
5.59777
21
-4.13098
0
LINE
8
BLACK
6
CONTINUOUS
10
5.59777
20
-4.13098
11
5.60403
21
-4.13612
0
LINE
8
BLACK
6
CONTINUOUS
10
5.60403
20
-4.13612
11
5.60917
21
-4.14239
0
LINE
8
BLACK
6
CONTINUOUS
10
5.60917
20
-4.14239
11
5.613
21
-4.14953
0
LINE
8
BLACK
6
CONTINUOUS
10
5.613
20
-4.14953
11
5.61535
21
-4.15729
0
LINE
8
BLACK
6
CONTINUOUS
10
5.61535
20
-4.15729
11
5.61614
21
-4.16535
0
LINE
8
BLACK
6
CONTINUOUS
10
5.61614
20
-4.16535
11
5.61535
21
-4.17342
0
LINE
8
BLACK
6
CONTINUOUS
10
5.61535
20
-4.17342
11
5.613
21
-4.18117
0
LINE
8
BLACK
6
CONTINUOUS
10
5.613
20
-4.18117
11
5.60917
21
-4.18832
0
LINE
8
BLACK
6
CONTINUOUS
10
5.60917
20
-4.18832
11
5.60403
21
-4.19459
0
LINE
8
BLACK
6
CONTINUOUS
10
5.60403
20
-4.19459
11
5.59777
21
-4.19973
0
LINE
8
BLACK
6
CONTINUOUS
10
5.59777
20
-4.19973
11
5.59062
21
-4.20355
0
LINE
8
BLACK
6
CONTINUOUS
10
5.59062
20
-4.20355
11
5.58287
21
-4.2059
0
LINE
8
BLACK
6
CONTINUOUS
10
5.58287
20
-4.2059
11
5.5748
21
-4.20669
0
LINE
8
BLACK
6
CONTINUOUS
10
5.5748
20
-4.20669
11
5.56674
21
-4.2059
0
LINE
8
BLACK
6
CONTINUOUS
10
5.56674
20
-4.2059
11
5.55898
21
-4.20355
0
LINE
8
BLACK
6
CONTINUOUS
10
5.55898
20
-4.20355
11
5.55184
21
-4.19973
0
LINE
8
BLACK
6
CONTINUOUS
10
5.55184
20
-4.19973
11
5.54557
21
-4.19459
0
LINE
8
BLACK
6
CONTINUOUS
10
5.54557
20
-4.19459
11
5.54043
21
-4.18832
0
LINE
8
BLACK
6
CONTINUOUS
10
5.54043
20
-4.18832
11
5.53661
21
-4.18117
0
LINE
8
BLACK
6
CONTINUOUS
10
5.53661
20
-4.18117
11
5.53426
21
-4.17342
0
LINE
8
BLACK
6
CONTINUOUS
10
5.53426
20
-4.17342
11
5.53346
21
-4.16535
0
LINE
8
BLACK
6
CONTINUOUS
10
5.53346
20
-4.16535
11
5.53426
21
-4.15729
0
LINE
8
BLACK
6
CONTINUOUS
10
5.53426
20
-4.15729
11
5.53661
21
-4.14953
0
LINE
8
BLACK
6
CONTINUOUS
10
5.53661
20
-4.14953
11
5.54043
21
-4.14239
0
LINE
8
BLACK
6
CONTINUOUS
10
5.54043
20
-4.14239
11
5.54557
21
-4.13612
0
LINE
8
BLACK
6
CONTINUOUS
10
5.54557
20
-4.13612
11
5.55184
21
-4.13098
0
LINE
8
BLACK
6
CONTINUOUS
10
5.55184
20
-4.13098
11
5.55898
21
-4.12716
0
LINE
8
BLACK
6
CONTINUOUS
10
5.55898
20
-4.12716
11
5.56674
21
-4.12481
0
LINE
8
BLACK
6
CONTINUOUS
10
5.56674
20
-4.12481
11
5.5748
21
-4.12402
0
LINE
8
BLACK
6
CONTINUOUS
10
5.5748
20
-4.12402
11
5.58287
21
-4.12481
0
LINE
8
BLACK
6
CONTINUOUS
10
5.53794
20
-4.17269
11
5.54008
21
-4.17974
0
LINE
8
BLACK
6
CONTINUOUS
10
5.54008
20
-4.17974
11
5.54355
21
-4.18623
0
LINE
8
BLACK
6
CONTINUOUS
10
5.54355
20
-4.18623
11
5.54823
21
-4.19193
0
LINE
8
BLACK
6
CONTINUOUS
10
5.54823
20
-4.19193
11
5.55392
21
-4.1966
0
LINE
8
BLACK
6
CONTINUOUS
10
5.55392
20
-4.1966
11
5.56042
21
-4.20008
0
LINE
8
BLACK
6
CONTINUOUS
10
5.56042
20
-4.20008
11
5.56747
21
-4.20221
0
LINE
8
BLACK
6
CONTINUOUS
10
5.56747
20
-4.20221
11
5.5748
21
-4.20294
0
LINE
8
BLACK
6
CONTINUOUS
10
5.5748
20
-4.20294
11
5.58214
21
-4.20221
0
LINE
8
BLACK
6
CONTINUOUS
10
5.58214
20
-4.20221
11
5.58919
21
-4.20008
0
LINE
8
BLACK
6
CONTINUOUS
10
5.58919
20
-4.20008
11
5.59568
21
-4.1966
0
LINE
8
BLACK
6
CONTINUOUS
10
5.59568
20
-4.1966
11
5.60138
21
-4.19193
0
LINE
8
BLACK
6
CONTINUOUS
10
5.60138
20
-4.19193
11
5.60605
21
-4.18623
0
LINE
8
BLACK
6
CONTINUOUS
10
5.60605
20
-4.18623
11
5.60952
21
-4.17974
0
LINE
8
BLACK
6
CONTINUOUS
10
5.60952
20
-4.17974
11
5.61166
21
-4.17269
0
LINE
8
BLACK
6
CONTINUOUS
10
5.61166
20
-4.17269
11
5.61239
21
-4.16535
0
LINE
8
BLACK
6
CONTINUOUS
10
5.61239
20
-4.16535
11
5.61166
21
-4.15802
0
LINE
8
BLACK
6
CONTINUOUS
10
5.61166
20
-4.15802
11
5.60952
21
-4.15097
0
LINE
8
BLACK
6
CONTINUOUS
10
5.60952
20
-4.15097
11
5.60605
21
-4.14447
0
LINE
8
BLACK
6
CONTINUOUS
10
5.60605
20
-4.14447
11
5.60138
21
-4.13878
0
LINE
8
BLACK
6
CONTINUOUS
10
5.60138
20
-4.13878
11
5.59568
21
-4.13411
0
LINE
8
BLACK
6
CONTINUOUS
10
5.59568
20
-4.13411
11
5.58919
21
-4.13063
0
LINE
8
BLACK
6
CONTINUOUS
10
5.58919
20
-4.13063
11
5.58214
21
-4.12849
0
LINE
8
BLACK
6
CONTINUOUS
10
5.58214
20
-4.12849
11
5.5748
21
-4.12777
0
LINE
8
BLACK
6
CONTINUOUS
10
5.5748
20
-4.12777
11
5.56747
21
-4.12849
0
LINE
8
BLACK
6
CONTINUOUS
10
5.56747
20
-4.12849
11
5.56042
21
-4.13063
0
LINE
8
BLACK
6
CONTINUOUS
10
5.56042
20
-4.13063
11
5.55392
21
-4.13411
0
LINE
8
BLACK
6
CONTINUOUS
10
5.55392
20
-4.13411
11
5.54823
21
-4.13878
0
LINE
8
BLACK
6
CONTINUOUS
10
5.54823
20
-4.13878
11
5.54355
21
-4.14447
0
LINE
8
BLACK
6
CONTINUOUS
10
5.54355
20
-4.14447
11
5.54008
21
-4.15097
0
LINE
8
BLACK
6
CONTINUOUS
10
5.54008
20
-4.15097
11
5.53794
21
-4.15802
0
LINE
8
BLACK
6
CONTINUOUS
10
5.53794
20
-4.15802
11
5.53722
21
-4.16535
0
LINE
8
BLACK
6
CONTINUOUS
10
5.53722
20
-4.16535
11
5.53794
21
-4.17269
0
LINE
8
BLACK
6
CONTINUOUS
10
5.28331
20
-4.09412
11
5.28367
21
-4.09415
0
LINE
8
BLACK
6
CONTINUOUS
10
5.28367
20
-4.09415
11
5.28555
21
-4.09509
0
LINE
8
BLACK
6
CONTINUOUS
10
5.28555
20
-4.09509
11
5.28572
21
-4.09528
0
LINE
8
BLACK
6
CONTINUOUS
10
5.28572
20
-4.09528
11
5.28596
21
-4.09538
0
LINE
8
BLACK
6
CONTINUOUS
10
5.28596
20
-4.09538
11
5.2869
21
-4.09632
0
LINE
8
BLACK
6
CONTINUOUS
10
5.2869
20
-4.09632
11
5.28736
21
-4.09743
0
LINE
8
BLACK
6
CONTINUOUS
10
5.28736
20
-4.09743
11
5.2869
21
-4.09855
0
LINE
8
BLACK
6
CONTINUOUS
10
5.2869
20
-4.09855
11
5.28578
21
-4.09901
0
LINE
8
BLACK
6
CONTINUOUS
10
5.28578
20
-4.09901
11
5.28467
21
-4.09855
0
LINE
8
BLACK
6
CONTINUOUS
10
5.28467
20
-4.09855
11
5.28391
21
-4.09779
0
LINE
8
BLACK
6
CONTINUOUS
10
5.28391
20
-4.09779
11
5.2826
21
-4.09713
0
LINE
8
BLACK
6
CONTINUOUS
10
5.2826
20
-4.09713
11
5.27865
21
-4.09713
0
LINE
8
BLACK
6
CONTINUOUS
10
5.27865
20
-4.09713
11
5.27734
21
-4.09779
0
LINE
8
BLACK
6
CONTINUOUS
10
5.27734
20
-4.09779
11
5.27676
21
-4.09836
0
LINE
8
BLACK
6
CONTINUOUS
10
5.27676
20
-4.09836
11
5.27611
21
-4.09968
0
LINE
8
BLACK
6
CONTINUOUS
10
5.27611
20
-4.09968
11
5.27611
21
-4.10093
0
LINE
8
BLACK
6
CONTINUOUS
10
5.27611
20
-4.10093
11
5.27685
21
-4.10314
0
LINE
8
BLACK
6
CONTINUOUS
10
5.27685
20
-4.10314
11
5.28783
21
-4.11413
0
LINE
8
BLACK
6
CONTINUOUS
10
5.28783
20
-4.11413
11
5.28829
21
-4.11524
0
LINE
8
BLACK
6
CONTINUOUS
10
5.28829
20
-4.11524
11
5.28783
21
-4.11636
0
LINE
8
BLACK
6
CONTINUOUS
10
5.28783
20
-4.11636
11
5.28672
21
-4.11682
0
LINE
8
BLACK
6
CONTINUOUS
10
5.28672
20
-4.11682
11
5.27453
21
-4.11682
0
LINE
8
BLACK
6
CONTINUOUS
10
5.27453
20
-4.11682
11
5.27342
21
-4.11636
0
LINE
8
BLACK
6
CONTINUOUS
10
5.27342
20
-4.11636
11
5.27296
21
-4.11524
0
LINE
8
BLACK
6
CONTINUOUS
10
5.27296
20
-4.11524
11
5.27342
21
-4.11413
0
LINE
8
BLACK
6
CONTINUOUS
10
5.27342
20
-4.11413
11
5.27453
21
-4.11367
0
LINE
8
BLACK
6
CONTINUOUS
10
5.27453
20
-4.11367
11
5.28292
21
-4.11367
0
LINE
8
BLACK
6
CONTINUOUS
10
5.28292
20
-4.11367
11
5.27436
21
-4.10511
0
LINE
8
BLACK
6
CONTINUOUS
10
5.27436
20
-4.10511
11
5.27422
21
-4.10477
0
LINE
8
BLACK
6
CONTINUOUS
10
5.27422
20
-4.10477
11
5.27398
21
-4.10449
0
LINE
8
BLACK
6
CONTINUOUS
10
5.27398
20
-4.10449
11
5.27304
21
-4.10168
0
LINE
8
BLACK
6
CONTINUOUS
10
5.27304
20
-4.10168
11
5.27306
21
-4.10142
0
LINE
8
BLACK
6
CONTINUOUS
10
5.27306
20
-4.10142
11
5.27296
21
-4.10118
0
LINE
8
BLACK
6
CONTINUOUS
10
5.27296
20
-4.10118
11
5.27296
21
-4.09931
0
LINE
8
BLACK
6
CONTINUOUS
10
5.27296
20
-4.09931
11
5.2731
21
-4.09897
0
LINE
8
BLACK
6
CONTINUOUS
10
5.2731
20
-4.09897
11
5.27312
21
-4.0986
0
LINE
8
BLACK
6
CONTINUOUS
10
5.27312
20
-4.0986
11
5.27406
21
-4.09673
0
LINE
8
BLACK
6
CONTINUOUS
10
5.27406
20
-4.09673
11
5.27426
21
-4.09656
0
LINE
8
BLACK
6
CONTINUOUS
10
5.27426
20
-4.09656
11
5.27436
21
-4.09632
0
LINE
8
BLACK
6
CONTINUOUS
10
5.27436
20
-4.09632
11
5.27529
21
-4.09538
0
LINE
8
BLACK
6
CONTINUOUS
10
5.27529
20
-4.09538
11
5.27553
21
-4.09528
0
LINE
8
BLACK
6
CONTINUOUS
10
5.27553
20
-4.09528
11
5.2757
21
-4.09509
0
LINE
8
BLACK
6
CONTINUOUS
10
5.2757
20
-4.09509
11
5.27758
21
-4.09415
0
LINE
8
BLACK
6
CONTINUOUS
10
5.27758
20
-4.09415
11
5.27794
21
-4.09412
0
LINE
8
BLACK
6
CONTINUOUS
10
5.27794
20
-4.09412
11
5.27828
21
-4.09398
0
LINE
8
BLACK
6
CONTINUOUS
10
5.27828
20
-4.09398
11
5.28297
21
-4.09398
0
LINE
8
BLACK
6
CONTINUOUS
10
5.28297
20
-4.09398
11
5.28331
21
-4.09412
0
LINE
8
BLACK
6
CONTINUOUS
10
5.30564
20
-4.09444
11
5.3061
21
-4.09556
0
LINE
8
BLACK
6
CONTINUOUS
10
5.3061
20
-4.09556
11
5.3061
21
-4.11524
0
LINE
8
BLACK
6
CONTINUOUS
10
5.3061
20
-4.11524
11
5.30564
21
-4.11636
0
LINE
8
BLACK
6
CONTINUOUS
10
5.30564
20
-4.11636
11
5.30453
21
-4.11682
0
LINE
8
BLACK
6
CONTINUOUS
10
5.30453
20
-4.11682
11
5.30342
21
-4.11636
0
LINE
8
BLACK
6
CONTINUOUS
10
5.30342
20
-4.11636
11
5.30295
21
-4.11524
0
LINE
8
BLACK
6
CONTINUOUS
10
5.30295
20
-4.11524
11
5.30295
21
-4.10744
0
LINE
8
BLACK
6
CONTINUOUS
10
5.30295
20
-4.10744
11
5.30066
21
-4.10744
0
LINE
8
BLACK
6
CONTINUOUS
10
5.30066
20
-4.10744
11
5.29457
21
-4.11615
0
LINE
8
BLACK
6
CONTINUOUS
10
5.29457
20
-4.11615
11
5.29355
21
-4.11679
0
LINE
8
BLACK
6
CONTINUOUS
10
5.29355
20
-4.11679
11
5.29238
21
-4.11653
0
LINE
8
BLACK
6
CONTINUOUS
10
5.29238
20
-4.11653
11
5.29173
21
-4.11552
0
LINE
8
BLACK
6
CONTINUOUS
10
5.29173
20
-4.11552
11
5.29199
21
-4.11434
0
LINE
8
BLACK
6
CONTINUOUS
10
5.29199
20
-4.11434
11
5.29687
21
-4.10737
0
LINE
8
BLACK
6
CONTINUOUS
10
5.29687
20
-4.10737
11
5.29669
21
-4.1073
0
LINE
8
BLACK
6
CONTINUOUS
10
5.29669
20
-4.1073
11
5.29633
21
-4.10728
0
LINE
8
BLACK
6
CONTINUOUS
10
5.29633
20
-4.10728
11
5.29445
21
-4.10634
0
LINE
8
BLACK
6
CONTINUOUS
10
5.29445
20
-4.10634
11
5.29428
21
-4.10614
0
LINE
8
BLACK
6
CONTINUOUS
10
5.29428
20
-4.10614
11
5.29404
21
-4.10604
0
LINE
8
BLACK
6
CONTINUOUS
10
5.29404
20
-4.10604
11
5.2931
21
-4.10511
0
LINE
8
BLACK
6
CONTINUOUS
10
5.2931
20
-4.10511
11
5.29301
21
-4.10487
0
LINE
8
BLACK
6
CONTINUOUS
10
5.29301
20
-4.10487
11
5.29281
21
-4.1047
0
LINE
8
BLACK
6
CONTINUOUS
10
5.29281
20
-4.1047
11
5.29187
21
-4.10282
0
LINE
8
BLACK
6
CONTINUOUS
10
5.29187
20
-4.10282
11
5.29185
21
-4.10246
0
LINE
8
BLACK
6
CONTINUOUS
10
5.29185
20
-4.10246
11
5.29171
21
-4.10212
0
LINE
8
BLACK
6
CONTINUOUS
10
5.29171
20
-4.10212
11
5.29171
21
-4.09931
0
LINE
8
BLACK
6
CONTINUOUS
10
5.29171
20
-4.09931
11
5.29185
21
-4.09897
0
LINE
8
BLACK
6
CONTINUOUS
10
5.29185
20
-4.09897
11
5.29187
21
-4.0986
0
LINE
8
BLACK
6
CONTINUOUS
10
5.29187
20
-4.0986
11
5.29281
21
-4.09673
0
LINE
8
BLACK
6
CONTINUOUS
10
5.29281
20
-4.09673
11
5.29301
21
-4.09656
0
LINE
8
BLACK
6
CONTINUOUS
10
5.29301
20
-4.09656
11
5.2931
21
-4.09632
0
LINE
8
BLACK
6
CONTINUOUS
10
5.2931
20
-4.09632
11
5.29404
21
-4.09538
0
LINE
8
BLACK
6
CONTINUOUS
10
5.29404
20
-4.09538
11
5.29428
21
-4.09528
0
LINE
8
BLACK
6
CONTINUOUS
10
5.29428
20
-4.09528
11
5.29445
21
-4.09509
0
LINE
8
BLACK
6
CONTINUOUS
10
5.29445
20
-4.09509
11
5.29633
21
-4.09415
0
LINE
8
BLACK
6
CONTINUOUS
10
5.29633
20
-4.09415
11
5.29669
21
-4.09412
0
LINE
8
BLACK
6
CONTINUOUS
10
5.29669
20
-4.09412
11
5.29703
21
-4.09398
0
LINE
8
BLACK
6
CONTINUOUS
10
5.29703
20
-4.09398
11
5.30453
21
-4.09398
0
LINE
8
BLACK
6
CONTINUOUS
10
5.30453
20
-4.09398
11
5.30564
21
-4.09444
0
LINE
8
BLACK
6
CONTINUOUS
10
5.29609
20
-4.09779
11
5.29551
21
-4.09836
0
LINE
8
BLACK
6
CONTINUOUS
10
5.29551
20
-4.09836
11
5.29486
21
-4.09968
0
LINE
8
BLACK
6
CONTINUOUS
10
5.29486
20
-4.09968
11
5.29486
21
-4.10175
0
LINE
8
BLACK
6
CONTINUOUS
10
5.29486
20
-4.10175
11
5.29551
21
-4.10306
0
LINE
8
BLACK
6
CONTINUOUS
10
5.29551
20
-4.10306
11
5.29609
21
-4.10364
0
LINE
8
BLACK
6
CONTINUOUS
10
5.29609
20
-4.10364
11
5.2974
21
-4.10429
0
LINE
8
BLACK
6
CONTINUOUS
10
5.2974
20
-4.10429
11
5.30295
21
-4.10429
0
LINE
8
BLACK
6
CONTINUOUS
10
5.30295
20
-4.10429
11
5.30295
21
-4.09713
0
LINE
8
BLACK
6
CONTINUOUS
10
5.30295
20
-4.09713
11
5.2974
21
-4.09713
0
LINE
8
BLACK
6
CONTINUOUS
10
5.2974
20
-4.09713
11
5.29609
21
-4.09779
0
LINE
8
BLACK
6
CONTINUOUS
10
5.32937
20
-4.07972
11
5.33076
21
-4.0803
0
LINE
8
BLACK
6
CONTINUOUS
10
5.33076
20
-4.0803
11
5.33134
21
-4.08169
0
LINE
8
BLACK
6
CONTINUOUS
10
5.33134
20
-4.08169
11
5.33134
21
-4.13091
0
LINE
8
BLACK
6
CONTINUOUS
10
5.33134
20
-4.13091
11
5.33076
21
-4.1323
0
LINE
8
BLACK
6
CONTINUOUS
10
5.33076
20
-4.1323
11
5.32937
21
-4.13287
0
LINE
8
BLACK
6
CONTINUOUS
10
5.32937
20
-4.13287
11
5.25063
21
-4.13287
0
LINE
8
BLACK
6
CONTINUOUS
10
5.25063
20
-4.13287
11
5.24924
21
-4.1323
0
LINE
8
BLACK
6
CONTINUOUS
10
5.24924
20
-4.1323
11
5.24866
21
-4.13091
0
LINE
8
BLACK
6
CONTINUOUS
10
5.24866
20
-4.13091
11
5.24866
21
-4.08169
0
LINE
8
BLACK
6
CONTINUOUS
10
5.24866
20
-4.08169
11
5.24924
21
-4.0803
0
LINE
8
BLACK
6
CONTINUOUS
10
5.24924
20
-4.0803
11
5.25063
21
-4.07972
0
LINE
8
BLACK
6
CONTINUOUS
10
5.25063
20
-4.07972
11
5.32937
21
-4.07972
0
LINE
8
BLACK
6
CONTINUOUS
10
5.2526
20
-4.08366
11
5.2526
21
-4.12894
0
LINE
8
BLACK
6
CONTINUOUS
10
5.2526
20
-4.12894
11
5.3274
21
-4.12894
0
LINE
8
BLACK
6
CONTINUOUS
10
5.3274
20
-4.12894
11
5.3274
21
-4.08366
0
LINE
8
BLACK
6
CONTINUOUS
10
5.3274
20
-4.08366
11
5.2526
21
-4.08366
0
LINE
8
BLACK
6
CONTINUOUS
10
5.43174
20
-4.09404
11
5.4319
21
-4.09401
0
LINE
8
BLACK
6
CONTINUOUS
10
5.4319
20
-4.09401
11
5.43228
21
-4.09427
0
LINE
8
BLACK
6
CONTINUOUS
10
5.43228
20
-4.09427
11
5.43271
21
-4.09444
0
LINE
8
BLACK
6
CONTINUOUS
10
5.43271
20
-4.09444
11
5.43277
21
-4.09459
0
LINE
8
BLACK
6
CONTINUOUS
10
5.43277
20
-4.09459
11
5.4329
21
-4.09468
0
LINE
8
BLACK
6
CONTINUOUS
10
5.4329
20
-4.09468
11
5.43469
21
-4.09737
0
LINE
8
BLACK
6
CONTINUOUS
10
5.43469
20
-4.09737
11
5.43628
21
-4.09895
0
LINE
8
BLACK
6
CONTINUOUS
10
5.43628
20
-4.09895
11
5.43792
21
-4.09977
0
LINE
8
BLACK
6
CONTINUOUS
10
5.43792
20
-4.09977
11
5.43871
21
-4.10068
0
LINE
8
BLACK
6
CONTINUOUS
10
5.43871
20
-4.10068
11
5.43863
21
-4.10189
0
LINE
8
BLACK
6
CONTINUOUS
10
5.43863
20
-4.10189
11
5.43772
21
-4.10268
0
LINE
8
BLACK
6
CONTINUOUS
10
5.43772
20
-4.10268
11
5.43651
21
-4.10259
0
LINE
8
BLACK
6
CONTINUOUS
10
5.43651
20
-4.10259
11
5.43464
21
-4.10165
0
LINE
8
BLACK
6
CONTINUOUS
10
5.43464
20
-4.10165
11
5.43447
21
-4.10146
0
LINE
8
BLACK
6
CONTINUOUS
10
5.43447
20
-4.10146
11
5.43423
21
-4.10136
0
LINE
8
BLACK
6
CONTINUOUS
10
5.43423
20
-4.10136
11
5.43317
21
-4.1003
0
LINE
8
BLACK
6
CONTINUOUS
10
5.43317
20
-4.1003
11
5.43317
21
-4.11367
0
LINE
8
BLACK
6
CONTINUOUS
10
5.43317
20
-4.11367
11
5.43722
21
-4.11367
0
LINE
8
BLACK
6
CONTINUOUS
10
5.43722
20
-4.11367
11
5.43833
21
-4.11413
0
LINE
8
BLACK
6
CONTINUOUS
10
5.43833
20
-4.11413
11
5.43879
21
-4.11524
0
LINE
8
BLACK
6
CONTINUOUS
10
5.43879
20
-4.11524
11
5.43833
21
-4.11636
0
LINE
8
BLACK
6
CONTINUOUS
10
5.43833
20
-4.11636
11
5.43722
21
-4.11682
0
LINE
8
BLACK
6
CONTINUOUS
10
5.43722
20
-4.11682
11
5.43159
21
-4.11682
0
LINE
8
BLACK
6
CONTINUOUS
10
5.43159
20
-4.11682
11
5.42597
21
-4.11682
0
LINE
8
BLACK
6
CONTINUOUS
10
5.42597
20
-4.11682
11
5.42486
21
-4.11636
0
LINE
8
BLACK
6
CONTINUOUS
10
5.42486
20
-4.11636
11
5.4244
21
-4.11524
0
LINE
8
BLACK
6
CONTINUOUS
10
5.4244
20
-4.11524
11
5.42486
21
-4.11413
0
LINE
8
BLACK
6
CONTINUOUS
10
5.42486
20
-4.11413
11
5.42597
21
-4.11367
0
LINE
8
BLACK
6
CONTINUOUS
10
5.42597
20
-4.11367
11
5.43002
21
-4.11367
0
LINE
8
BLACK
6
CONTINUOUS
10
5.43002
20
-4.11367
11
5.43002
21
-4.09556
0
LINE
8
BLACK
6
CONTINUOUS
10
5.43002
20
-4.09556
11
5.43008
21
-4.09541
0
LINE
8
BLACK
6
CONTINUOUS
10
5.43008
20
-4.09541
11
5.43005
21
-4.09525
0
LINE
8
BLACK
6
CONTINUOUS
10
5.43005
20
-4.09525
11
5.43031
21
-4.09487
0
LINE
8
BLACK
6
CONTINUOUS
10
5.43031
20
-4.09487
11
5.43048
21
-4.09444
0
LINE
8
BLACK
6
CONTINUOUS
10
5.43048
20
-4.09444
11
5.43063
21
-4.09438
0
LINE
8
BLACK
6
CONTINUOUS
10
5.43063
20
-4.09438
11
5.43072
21
-4.09425
0
LINE
8
BLACK
6
CONTINUOUS
10
5.43072
20
-4.09425
11
5.43117
21
-4.09416
0
LINE
8
BLACK
6
CONTINUOUS
10
5.43117
20
-4.09416
11
5.43159
21
-4.09398
0
LINE
8
BLACK
6
CONTINUOUS
10
5.43159
20
-4.09398
11
5.43174
21
-4.09404
0
LINE
8
BLACK
6
CONTINUOUS
10
5.45708
20
-4.09444
11
5.45754
21
-4.09556
0
LINE
8
BLACK
6
CONTINUOUS
10
5.45754
20
-4.09556
11
5.45754
21
-4.11524
0
LINE
8
BLACK
6
CONTINUOUS
10
5.45754
20
-4.11524
11
5.45708
21
-4.11636
0
LINE
8
BLACK
6
CONTINUOUS
10
5.45708
20
-4.11636
11
5.45597
21
-4.11682
0
LINE
8
BLACK
6
CONTINUOUS
10
5.45597
20
-4.11682
11
5.45485
21
-4.11636
0
LINE
8
BLACK
6
CONTINUOUS
10
5.45485
20
-4.11636
11
5.45439
21
-4.11524
0
LINE
8
BLACK
6
CONTINUOUS
10
5.45439
20
-4.11524
11
5.45439
21
-4.10744
0
LINE
8
BLACK
6
CONTINUOUS
10
5.45439
20
-4.10744
11
5.4521
21
-4.10744
0
LINE
8
BLACK
6
CONTINUOUS
10
5.4521
20
-4.10744
11
5.44601
21
-4.11615
0
LINE
8
BLACK
6
CONTINUOUS
10
5.44601
20
-4.11615
11
5.44499
21
-4.11679
0
LINE
8
BLACK
6
CONTINUOUS
10
5.44499
20
-4.11679
11
5.44381
21
-4.11653
0
LINE
8
BLACK
6
CONTINUOUS
10
5.44381
20
-4.11653
11
5.44317
21
-4.11552
0
LINE
8
BLACK
6
CONTINUOUS
10
5.44317
20
-4.11552
11
5.44343
21
-4.11434
0
LINE
8
BLACK
6
CONTINUOUS
10
5.44343
20
-4.11434
11
5.4483
21
-4.10737
0
LINE
8
BLACK
6
CONTINUOUS
10
5.4483
20
-4.10737
11
5.44813
21
-4.1073
0
LINE
8
BLACK
6
CONTINUOUS
10
5.44813
20
-4.1073
11
5.44776
21
-4.10728
0
LINE
8
BLACK
6
CONTINUOUS
10
5.44776
20
-4.10728
11
5.44589
21
-4.10634
0
LINE
8
BLACK
6
CONTINUOUS
10
5.44589
20
-4.10634
11
5.44572
21
-4.10614
0
LINE
8
BLACK
6
CONTINUOUS
10
5.44572
20
-4.10614
11
5.44548
21
-4.10604
0
LINE
8
BLACK
6
CONTINUOUS
10
5.44548
20
-4.10604
11
5.44454
21
-4.10511
0
LINE
8
BLACK
6
CONTINUOUS
10
5.44454
20
-4.10511
11
5.44444
21
-4.10487
0
LINE
8
BLACK
6
CONTINUOUS
10
5.44444
20
-4.10487
11
5.44425
21
-4.1047
0
LINE
8
BLACK
6
CONTINUOUS
10
5.44425
20
-4.1047
11
5.44331
21
-4.10282
0
LINE
8
BLACK
6
CONTINUOUS
10
5.44331
20
-4.10282
11
5.44328
21
-4.10246
0
LINE
8
BLACK
6
CONTINUOUS
10
5.44328
20
-4.10246
11
5.44314
21
-4.10212
0
LINE
8
BLACK
6
CONTINUOUS
10
5.44314
20
-4.10212
11
5.44314
21
-4.09931
0
LINE
8
BLACK
6
CONTINUOUS
10
5.44314
20
-4.09931
11
5.44328
21
-4.09897
0
LINE
8
BLACK
6
CONTINUOUS
10
5.44328
20
-4.09897
11
5.44331
21
-4.0986
0
LINE
8
BLACK
6
CONTINUOUS
10
5.44331
20
-4.0986
11
5.44425
21
-4.09673
0
LINE
8
BLACK
6
CONTINUOUS
10
5.44425
20
-4.09673
11
5.44444
21
-4.09656
0
LINE
8
BLACK
6
CONTINUOUS
10
5.44444
20
-4.09656
11
5.44454
21
-4.09632
0
LINE
8
BLACK
6
CONTINUOUS
10
5.44454
20
-4.09632
11
5.44548
21
-4.09538
0
LINE
8
BLACK
6
CONTINUOUS
10
5.44548
20
-4.09538
11
5.44572
21
-4.09528
0
LINE
8
BLACK
6
CONTINUOUS
10
5.44572
20
-4.09528
11
5.44589
21
-4.09509
0
LINE
8
BLACK
6
CONTINUOUS
10
5.44589
20
-4.09509
11
5.44776
21
-4.09415
0
LINE
8
BLACK
6
CONTINUOUS
10
5.44776
20
-4.09415
11
5.44813
21
-4.09412
0
LINE
8
BLACK
6
CONTINUOUS
10
5.44813
20
-4.09412
11
5.44847
21
-4.09398
0
LINE
8
BLACK
6
CONTINUOUS
10
5.44847
20
-4.09398
11
5.45597
21
-4.09398
0
LINE
8
BLACK
6
CONTINUOUS
10
5.45597
20
-4.09398
11
5.45708
21
-4.09444
0
LINE
8
BLACK
6
CONTINUOUS
10
5.44753
20
-4.09779
11
5.44695
21
-4.09836
0
LINE
8
BLACK
6
CONTINUOUS
10
5.44695
20
-4.09836
11
5.44629
21
-4.09968
0
LINE
8
BLACK
6
CONTINUOUS
10
5.44629
20
-4.09968
11
5.44629
21
-4.10175
0
LINE
8
BLACK
6
CONTINUOUS
10
5.44629
20
-4.10175
11
5.44695
21
-4.10306
0
LINE
8
BLACK
6
CONTINUOUS
10
5.44695
20
-4.10306
11
5.44753
21
-4.10364
0
LINE
8
BLACK
6
CONTINUOUS
10
5.44753
20
-4.10364
11
5.44884
21
-4.10429
0
LINE
8
BLACK
6
CONTINUOUS
10
5.44884
20
-4.10429
11
5.45439
21
-4.10429
0
LINE
8
BLACK
6
CONTINUOUS
10
5.45439
20
-4.10429
11
5.45439
21
-4.09713
0
LINE
8
BLACK
6
CONTINUOUS
10
5.45439
20
-4.09713
11
5.44884
21
-4.09713
0
LINE
8
BLACK
6
CONTINUOUS
10
5.44884
20
-4.09713
11
5.44753
21
-4.09779
0
LINE
8
BLACK
6
CONTINUOUS
10
5.48081
20
-4.07972
11
5.4822
21
-4.0803
0
LINE
8
BLACK
6
CONTINUOUS
10
5.4822
20
-4.0803
11
5.48278
21
-4.08169
0
LINE
8
BLACK
6
CONTINUOUS
10
5.48278
20
-4.08169
11
5.48278
21
-4.13091
0
LINE
8
BLACK
6
CONTINUOUS
10
5.48278
20
-4.13091
11
5.4822
21
-4.1323
0
LINE
8
BLACK
6
CONTINUOUS
10
5.4822
20
-4.1323
11
5.48081
21
-4.13287
0
LINE
8
BLACK
6
CONTINUOUS
10
5.48081
20
-4.13287
11
5.40207
21
-4.13287
0
LINE
8
BLACK
6
CONTINUOUS
10
5.40207
20
-4.13287
11
5.40067
21
-4.1323
0
LINE
8
BLACK
6
CONTINUOUS
10
5.40067
20
-4.1323
11
5.4001
21
-4.13091
0
LINE
8
BLACK
6
CONTINUOUS
10
5.4001
20
-4.13091
11
5.4001
21
-4.08169
0
LINE
8
BLACK
6
CONTINUOUS
10
5.4001
20
-4.08169
11
5.40067
21
-4.0803
0
LINE
8
BLACK
6
CONTINUOUS
10
5.40067
20
-4.0803
11
5.40207
21
-4.07972
0
LINE
8
BLACK
6
CONTINUOUS
10
5.40207
20
-4.07972
11
5.48081
21
-4.07972
0
LINE
8
BLACK
6
CONTINUOUS
10
5.40404
20
-4.08366
11
5.40404
21
-4.12894
0
LINE
8
BLACK
6
CONTINUOUS
10
5.40404
20
-4.12894
11
5.47884
21
-4.12894
0
LINE
8
BLACK
6
CONTINUOUS
10
5.47884
20
-4.12894
11
5.47884
21
-4.08366
0
LINE
8
BLACK
6
CONTINUOUS
10
5.47884
20
-4.08366
11
5.40404
21
-4.08366
  0
ENDSEC
  0
EOF
