  0
SECTION
  2
HEADER
  9
$ANGBASE
  50
0.0
  9
$ANGDIR
  70
1
  9
$MEASUREMENT
  70
0
  0
ENDSEC
  0
SECTION
  2
TABLES
  0
TABLE
  2
LTYPE
  70
4
  0
LTYPE
  5
40F
  2
CONTINUOUS
  70
0
  3
Solid line
  72
65
  73
0
  40
0.0
  0
LTYPE
  5
410
  2
DASHDOT
 70
0
  3
Dash Dot ____ _ ____ _
 72
65
 73
4
 40
2.0
 49
1.25
 49
-0.25
 49
0.25
 49
-0.25
  0
LTYPE
  5
411
  2
DASHED
 70
0
  3
Dashed __ __ __ __ __
 72
65
 73
2
 40
0.75
 49
0.5
 49
-0.25
  0
LTYPE
  5
43B
  2
DOTTED
 70
0
  3
Dotted .  .  .  .
 72
65
 73
2
 40
0.2
 49
0.0
 49
-0.2
  0
ENDTAB
  0
TABLE
  2
STYLE
  70
4
  0
STYLE
  2
KICAD
  70
0
  40
0
  41
1
  42
1
  50
0
  71
0
  3
isocp.shx
  0
STYLE
  2
KICADB
  70
0
  40
0
  41
1
  42
1
  50
0
  71
0
  3
isocp.shx
  0
STYLE
  2
KICADI
  70
0
  40
0
  41
1
  42
1
  50
15
  71
0
  3
isocp.shx
  0
STYLE
  2
KICADBI
  70
0
  40
0
  41
1
  42
1
  50
15
  71
0
  3
isocp.shx
  0
ENDTAB
  0
TABLE
  2
LAYER
  70
1
  0
LAYER
  2
BLACK
  70
0
  62
7
  6
CONTINUOUS
  0
ENDTAB
  0
ENDSEC
  0
SECTION
  2
ENTITIES
0
LINE
8
BLACK
6
CONTINUOUS
10
5.49
20
-4.53
11
5.43
21
-4.53
0
LINE
8
BLACK
6
CONTINUOUS
10
5.43
20
-4.53
11
5.43
21
-4.47
0
LINE
8
BLACK
6
CONTINUOUS
10
5.43
20
-4.47
11
5.49
21
-4.47
0
LINE
8
BLACK
6
CONTINUOUS
10
5.49
20
-4.47
11
5.49
21
-4.53
0
LINE
8
BLACK
6
CONTINUOUS
10
5.04705
20
-4.35904
11
5.05144
21
-4.36128
0
LINE
8
BLACK
6
CONTINUOUS
10
5.05144
20
-4.36128
11
5.05492
21
-4.36476
0
LINE
8
BLACK
6
CONTINUOUS
10
5.05492
20
-4.36476
11
5.05582
21
-4.36652
0
LINE
8
BLACK
6
CONTINUOUS
10
5.05582
20
-4.36652
11
5.06969
21
-4.36652
0
LINE
8
BLACK
6
CONTINUOUS
10
5.06969
20
-4.36652
11
5.07091
21
-4.3668
0
LINE
8
BLACK
6
CONTINUOUS
10
5.07091
20
-4.3668
11
5.07216
21
-4.36694
0
LINE
8
BLACK
6
CONTINUOUS
10
5.07216
20
-4.36694
11
5.07252
21
-4.36716
0
LINE
8
BLACK
6
CONTINUOUS
10
5.07252
20
-4.36716
11
5.07294
21
-4.36726
0
LINE
8
BLACK
6
CONTINUOUS
10
5.07294
20
-4.36726
11
5.07392
21
-4.36804
0
LINE
8
BLACK
6
CONTINUOUS
10
5.07392
20
-4.36804
11
5.07499
21
-4.36871
0
LINE
8
BLACK
6
CONTINUOUS
10
5.07499
20
-4.36871
11
5.12991
21
-4.42363
0
LINE
8
BLACK
6
CONTINUOUS
10
5.12991
20
-4.42363
11
5.13058
21
-4.4247
0
LINE
8
BLACK
6
CONTINUOUS
10
5.13058
20
-4.4247
11
5.13136
21
-4.42568
0
LINE
8
BLACK
6
CONTINUOUS
10
5.13136
20
-4.42568
11
5.13146
21
-4.4261
0
LINE
8
BLACK
6
CONTINUOUS
10
5.13146
20
-4.4261
11
5.13169
21
-4.42646
0
LINE
8
BLACK
6
CONTINUOUS
10
5.13169
20
-4.42646
11
5.13183
21
-4.42771
0
LINE
8
BLACK
6
CONTINUOUS
10
5.13183
20
-4.42771
11
5.13211
21
-4.42894
0
LINE
8
BLACK
6
CONTINUOUS
10
5.13211
20
-4.42894
11
5.13211
21
-4.44394
0
LINE
8
BLACK
6
CONTINUOUS
10
5.13211
20
-4.44394
11
5.14429
21
-4.44394
0
LINE
8
BLACK
6
CONTINUOUS
10
5.14429
20
-4.44394
11
5.14429
21
-4.46165
0
LINE
8
BLACK
6
CONTINUOUS
10
5.14429
20
-4.46165
11
5.15413
21
-4.46165
0
LINE
8
BLACK
6
CONTINUOUS
10
5.15413
20
-4.46165
11
5.15413
21
-4.44394
0
LINE
8
BLACK
6
CONTINUOUS
10
5.15413
20
-4.44394
11
5.17579
21
-4.44394
0
LINE
8
BLACK
6
CONTINUOUS
10
5.17579
20
-4.44394
11
5.17579
21
-4.44414
0
LINE
8
BLACK
6
CONTINUOUS
10
5.17579
20
-4.44414
11
5.17859
21
-4.44414
0
LINE
8
BLACK
6
CONTINUOUS
10
5.17859
20
-4.44414
11
5.17898
21
-4.44425
0
LINE
8
BLACK
6
CONTINUOUS
10
5.17898
20
-4.44425
11
5.17898
21
-4.43719
0
LINE
8
BLACK
6
CONTINUOUS
10
5.17898
20
-4.43719
11
5.17624
21
-4.43445
0
LINE
8
BLACK
6
CONTINUOUS
10
5.17624
20
-4.43445
11
5.174
21
-4.43006
0
LINE
8
BLACK
6
CONTINUOUS
10
5.174
20
-4.43006
11
5.17323
21
-4.4252
0
LINE
8
BLACK
6
CONTINUOUS
10
5.17323
20
-4.4252
11
5.174
21
-4.42033
0
LINE
8
BLACK
6
CONTINUOUS
10
5.174
20
-4.42033
11
5.17624
21
-4.41594
0
LINE
8
BLACK
6
CONTINUOUS
10
5.17624
20
-4.41594
11
5.17972
21
-4.41246
0
LINE
8
BLACK
6
CONTINUOUS
10
5.17972
20
-4.41246
11
5.18411
21
-4.41022
0
LINE
8
BLACK
6
CONTINUOUS
10
5.18411
20
-4.41022
11
5.18898
21
-4.40945
0
LINE
8
BLACK
6
CONTINUOUS
10
5.18898
20
-4.40945
11
5.19384
21
-4.41022
0
LINE
8
BLACK
6
CONTINUOUS
10
5.19384
20
-4.41022
11
5.19823
21
-4.41246
0
LINE
8
BLACK
6
CONTINUOUS
10
5.19823
20
-4.41246
11
5.20172
21
-4.41594
0
LINE
8
BLACK
6
CONTINUOUS
10
5.20172
20
-4.41594
11
5.20395
21
-4.42033
0
LINE
8
BLACK
6
CONTINUOUS
10
5.20395
20
-4.42033
11
5.20472
21
-4.4252
0
LINE
8
BLACK
6
CONTINUOUS
10
5.20472
20
-4.4252
11
5.20395
21
-4.43006
0
LINE
8
BLACK
6
CONTINUOUS
10
5.20395
20
-4.43006
11
5.20172
21
-4.43445
0
LINE
8
BLACK
6
CONTINUOUS
10
5.20172
20
-4.43445
11
5.19898
21
-4.43719
0
LINE
8
BLACK
6
CONTINUOUS
10
5.19898
20
-4.43719
11
5.19898
21
-4.46028
0
LINE
8
BLACK
6
CONTINUOUS
10
5.19898
20
-4.46028
11
5.19898
21
-4.46028
0
LINE
8
BLACK
6
CONTINUOUS
10
5.19898
20
-4.46028
11
5.19822
21
-4.4641
0
LINE
8
BLACK
6
CONTINUOUS
10
5.19822
20
-4.4641
11
5.19605
21
-4.46735
0
LINE
8
BLACK
6
CONTINUOUS
10
5.19605
20
-4.46735
11
5.19547
21
-4.46792
0
LINE
8
BLACK
6
CONTINUOUS
10
5.19547
20
-4.46792
11
5.19547
21
-4.48331
0
LINE
8
BLACK
6
CONTINUOUS
10
5.19547
20
-4.48331
11
5.19468
21
-4.48885
0
LINE
8
BLACK
6
CONTINUOUS
10
5.19468
20
-4.48885
11
5.19235
21
-4.49395
0
LINE
8
BLACK
6
CONTINUOUS
10
5.19235
20
-4.49395
11
5.18868
21
-4.49818
0
LINE
8
BLACK
6
CONTINUOUS
10
5.18868
20
-4.49818
11
5.18396
21
-4.50121
0
LINE
8
BLACK
6
CONTINUOUS
10
5.18396
20
-4.50121
11
5.17859
21
-4.50279
0
LINE
8
BLACK
6
CONTINUOUS
10
5.17859
20
-4.50279
11
5.17579
21
-4.50279
0
LINE
8
BLACK
6
CONTINUOUS
10
5.17579
20
-4.50279
11
5.17579
21
-4.50299
0
LINE
8
BLACK
6
CONTINUOUS
10
5.17579
20
-4.50299
11
5.15413
21
-4.50299
0
LINE
8
BLACK
6
CONTINUOUS
10
5.15413
20
-4.50299
11
5.15413
21
-4.48528
0
LINE
8
BLACK
6
CONTINUOUS
10
5.15413
20
-4.48528
11
5.14429
21
-4.48528
0
LINE
8
BLACK
6
CONTINUOUS
10
5.14429
20
-4.48528
11
5.14429
21
-4.50299
0
LINE
8
BLACK
6
CONTINUOUS
10
5.14429
20
-4.50299
11
5.10492
21
-4.50299
0
LINE
8
BLACK
6
CONTINUOUS
10
5.10492
20
-4.50299
11
5.10492
21
-4.44394
0
LINE
8
BLACK
6
CONTINUOUS
10
5.10492
20
-4.44394
11
5.11711
21
-4.44394
0
LINE
8
BLACK
6
CONTINUOUS
10
5.11711
20
-4.44394
11
5.11711
21
-4.43204
0
LINE
8
BLACK
6
CONTINUOUS
10
5.11711
20
-4.43204
11
5.06658
21
-4.38152
0
LINE
8
BLACK
6
CONTINUOUS
10
5.06658
20
-4.38152
11
5.05582
21
-4.38152
0
LINE
8
BLACK
6
CONTINUOUS
10
5.05582
20
-4.38152
11
5.05492
21
-4.38327
0
LINE
8
BLACK
6
CONTINUOUS
10
5.05492
20
-4.38327
11
5.05144
21
-4.38676
0
LINE
8
BLACK
6
CONTINUOUS
10
5.05144
20
-4.38676
11
5.04705
21
-4.38899
0
LINE
8
BLACK
6
CONTINUOUS
10
5.04705
20
-4.38899
11
5.04218
21
-4.38976
0
LINE
8
BLACK
6
CONTINUOUS
10
5.04218
20
-4.38976
11
5.03731
21
-4.38899
0
LINE
8
BLACK
6
CONTINUOUS
10
5.03731
20
-4.38899
11
5.03292
21
-4.38676
0
LINE
8
BLACK
6
CONTINUOUS
10
5.03292
20
-4.38676
11
5.02944
21
-4.38327
0
LINE
8
BLACK
6
CONTINUOUS
10
5.02944
20
-4.38327
11
5.0272
21
-4.37888
0
LINE
8
BLACK
6
CONTINUOUS
10
5.0272
20
-4.37888
11
5.02643
21
-4.37402
0
LINE
8
BLACK
6
CONTINUOUS
10
5.02643
20
-4.37402
11
5.0272
21
-4.36915
0
LINE
8
BLACK
6
CONTINUOUS
10
5.0272
20
-4.36915
11
5.02944
21
-4.36476
0
LINE
8
BLACK
6
CONTINUOUS
10
5.02944
20
-4.36476
11
5.03292
21
-4.36128
0
LINE
8
BLACK
6
CONTINUOUS
10
5.03292
20
-4.36128
11
5.03731
21
-4.35904
0
LINE
8
BLACK
6
CONTINUOUS
10
5.03731
20
-4.35904
11
5.04218
21
-4.35827
0
LINE
8
BLACK
6
CONTINUOUS
10
5.04218
20
-4.35827
11
5.04705
21
-4.35904
0
LINE
8
BLACK
6
CONTINUOUS
10
5.49
20
-4.43
11
5.43
21
-4.43
0
LINE
8
BLACK
6
CONTINUOUS
10
5.43
20
-4.43
11
5.43
21
-4.37
0
LINE
8
BLACK
6
CONTINUOUS
10
5.43
20
-4.37
11
5.49
21
-4.37
0
LINE
8
BLACK
6
CONTINUOUS
10
5.49
20
-4.37
11
5.49
21
-4.43
0
LINE
8
BLACK
6
CONTINUOUS
10
5.4
20
-4.04
11
5.38
21
-4.04
0
LINE
8
BLACK
6
CONTINUOUS
10
5.38
20
-4.04
11
5.38
21
-4.11586
0
LINE
8
BLACK
6
CONTINUOUS
10
5.38
20
-4.11586
11
5.46817
21
-4.20403
0
LINE
8
BLACK
6
CONTINUOUS
10
5.46817
20
-4.20403
11
5.47034
21
-4.20728
0
LINE
8
BLACK
6
CONTINUOUS
10
5.47034
20
-4.20728
11
5.4711
21
-4.2111
0
LINE
8
BLACK
6
CONTINUOUS
10
5.4711
20
-4.2111
11
5.4711
21
-4.22422
0
LINE
8
BLACK
6
CONTINUOUS
10
5.4711
20
-4.22422
11
5.47384
21
-4.22696
0
LINE
8
BLACK
6
CONTINUOUS
10
5.47384
20
-4.22696
11
5.47608
21
-4.23135
0
LINE
8
BLACK
6
CONTINUOUS
10
5.47608
20
-4.23135
11
5.47685
21
-4.23622
0
LINE
8
BLACK
6
CONTINUOUS
10
5.47685
20
-4.23622
11
5.47608
21
-4.24109
0
LINE
8
BLACK
6
CONTINUOUS
10
5.47608
20
-4.24109
11
5.47384
21
-4.24548
0
LINE
8
BLACK
6
CONTINUOUS
10
5.47384
20
-4.24548
11
5.47036
21
-4.24896
0
LINE
8
BLACK
6
CONTINUOUS
10
5.47036
20
-4.24896
11
5.46597
21
-4.2512
0
LINE
8
BLACK
6
CONTINUOUS
10
5.46597
20
-4.2512
11
5.4611
21
-4.25197
0
LINE
8
BLACK
6
CONTINUOUS
10
5.4611
20
-4.25197
11
5.45624
21
-4.2512
0
LINE
8
BLACK
6
CONTINUOUS
10
5.45624
20
-4.2512
11
5.45185
21
-4.24896
0
LINE
8
BLACK
6
CONTINUOUS
10
5.45185
20
-4.24896
11
5.44836
21
-4.24548
0
LINE
8
BLACK
6
CONTINUOUS
10
5.44836
20
-4.24548
11
5.44613
21
-4.24109
0
LINE
8
BLACK
6
CONTINUOUS
10
5.44613
20
-4.24109
11
5.44535
21
-4.23622
0
LINE
8
BLACK
6
CONTINUOUS
10
5.44535
20
-4.23622
11
5.44613
21
-4.23135
0
LINE
8
BLACK
6
CONTINUOUS
10
5.44613
20
-4.23135
11
5.44836
21
-4.22696
0
LINE
8
BLACK
6
CONTINUOUS
10
5.44836
20
-4.22696
11
5.4511
21
-4.22422
0
LINE
8
BLACK
6
CONTINUOUS
10
5.4511
20
-4.22422
11
5.4511
21
-4.21524
0
LINE
8
BLACK
6
CONTINUOUS
10
5.4511
20
-4.21524
11
5.36293
21
-4.12707
0
LINE
8
BLACK
6
CONTINUOUS
10
5.36293
20
-4.12707
11
5.36101
21
-4.12421
0
LINE
8
BLACK
6
CONTINUOUS
10
5.36101
20
-4.12421
11
5.36076
21
-4.12383
0
LINE
8
BLACK
6
CONTINUOUS
10
5.36076
20
-4.12383
11
5.36
21
-4.12
0
LINE
8
BLACK
6
CONTINUOUS
10
5.36
20
-4.12
11
5.36
21
-4.04
0
LINE
8
BLACK
6
CONTINUOUS
10
5.36
20
-4.04
11
5.34
21
-4.04
0
LINE
8
BLACK
6
CONTINUOUS
10
5.34
20
-4.04
11
5.34
21
-3.98
0
LINE
8
BLACK
6
CONTINUOUS
10
5.34
20
-3.98
11
5.4
21
-3.98
0
LINE
8
BLACK
6
CONTINUOUS
10
5.4
20
-3.98
11
5.4
21
-4.04
0
LINE
8
BLACK
6
CONTINUOUS
10
4.91
20
-4.04
11
4.85
21
-4.04
0
LINE
8
BLACK
6
CONTINUOUS
10
4.85
20
-4.04
11
4.85
21
-3.98
0
LINE
8
BLACK
6
CONTINUOUS
10
4.85
20
-3.98
11
4.91
21
-3.98
0
LINE
8
BLACK
6
CONTINUOUS
10
4.91
20
-3.98
11
4.91
21
-4.04
0
LINE
8
BLACK
6
CONTINUOUS
10
5.01
20
-4.04
11
4.95
21
-4.04
0
LINE
8
BLACK
6
CONTINUOUS
10
4.95
20
-4.04
11
4.95
21
-3.98
0
LINE
8
BLACK
6
CONTINUOUS
10
4.95
20
-3.98
11
5.01
21
-3.98
0
LINE
8
BLACK
6
CONTINUOUS
10
5.01
20
-3.98
11
5.01
21
-4.04
0
LINE
8
BLACK
6
CONTINUOUS
10
5.3
20
-4.04
11
5.24
21
-4.04
0
LINE
8
BLACK
6
CONTINUOUS
10
5.24
20
-4.04
11
5.24
21
-3.98
0
LINE
8
BLACK
6
CONTINUOUS
10
5.24
20
-3.98
11
5.3
21
-3.98
0
LINE
8
BLACK
6
CONTINUOUS
10
5.3
20
-3.98
11
5.3
21
-4.04
0
LINE
8
BLACK
6
CONTINUOUS
10
5.5
20
-4.04
11
5.44
21
-4.04
0
LINE
8
BLACK
6
CONTINUOUS
10
5.44
20
-4.04
11
5.44
21
-3.98
0
LINE
8
BLACK
6
CONTINUOUS
10
5.44
20
-3.98
11
5.5
21
-3.98
0
LINE
8
BLACK
6
CONTINUOUS
10
5.5
20
-3.98
11
5.5
21
-4.04
0
LINE
8
BLACK
6
CONTINUOUS
10
4.91
20
-3.94
11
4.85
21
-3.94
0
LINE
8
BLACK
6
CONTINUOUS
10
4.85
20
-3.94
11
4.85
21
-3.88
0
LINE
8
BLACK
6
CONTINUOUS
10
4.85
20
-3.88
11
4.91
21
-3.88
0
LINE
8
BLACK
6
CONTINUOUS
10
4.91
20
-3.88
11
4.91
21
-3.94
0
LINE
8
BLACK
6
CONTINUOUS
10
5.01
20
-3.94
11
4.95
21
-3.94
0
LINE
8
BLACK
6
CONTINUOUS
10
4.95
20
-3.94
11
4.95
21
-3.88
0
LINE
8
BLACK
6
CONTINUOUS
10
4.95
20
-3.88
11
5.01
21
-3.88
0
LINE
8
BLACK
6
CONTINUOUS
10
5.01
20
-3.88
11
5.01
21
-3.94
0
LINE
8
BLACK
6
CONTINUOUS
10
5.3
20
-3.94
11
5.24
21
-3.94
0
LINE
8
BLACK
6
CONTINUOUS
10
5.24
20
-3.94
11
5.24
21
-3.88
0
LINE
8
BLACK
6
CONTINUOUS
10
5.24
20
-3.88
11
5.3
21
-3.88
0
LINE
8
BLACK
6
CONTINUOUS
10
5.3
20
-3.88
11
5.3
21
-3.94
0
LINE
8
BLACK
6
CONTINUOUS
10
5.4
20
-3.94
11
5.34
21
-3.94
0
LINE
8
BLACK
6
CONTINUOUS
10
5.34
20
-3.94
11
5.34
21
-3.88
0
LINE
8
BLACK
6
CONTINUOUS
10
5.34
20
-3.88
11
5.4
21
-3.88
0
LINE
8
BLACK
6
CONTINUOUS
10
5.4
20
-3.88
11
5.4
21
-3.94
0
LINE
8
BLACK
6
CONTINUOUS
10
5.5
20
-3.94
11
5.44
21
-3.94
0
LINE
8
BLACK
6
CONTINUOUS
10
5.44
20
-3.94
11
5.44
21
-3.88
0
LINE
8
BLACK
6
CONTINUOUS
10
5.44
20
-3.88
11
5.5
21
-3.88
0
LINE
8
BLACK
6
CONTINUOUS
10
5.5
20
-3.88
11
5.5
21
-3.94
0
LINE
8
BLACK
6
CONTINUOUS
10
5.96805
20
-3.83048
11
5.96985
21
-3.83256
0
LINE
8
BLACK
6
CONTINUOUS
10
5.96985
20
-3.83256
11
5.9703
21
-3.83459
0
LINE
8
BLACK
6
CONTINUOUS
10
5.9703
20
-3.83459
11
5.9703
21
-4.56541
0
LINE
8
BLACK
6
CONTINUOUS
10
5.9703
20
-4.56541
11
5.96952
21
-4.56805
0
LINE
8
BLACK
6
CONTINUOUS
10
5.96952
20
-4.56805
11
5.96744
21
-4.56985
0
LINE
8
BLACK
6
CONTINUOUS
10
5.96744
20
-4.56985
11
5.96541
21
-4.5703
0
LINE
8
BLACK
6
CONTINUOUS
10
5.96541
20
-4.5703
11
4.43459
21
-4.5703
0
LINE
8
BLACK
6
CONTINUOUS
10
4.43459
20
-4.5703
11
4.43195
21
-4.56952
0
LINE
8
BLACK
6
CONTINUOUS
10
4.43195
20
-4.56952
11
4.43015
21
-4.56744
0
LINE
8
BLACK
6
CONTINUOUS
10
4.43015
20
-4.56744
11
4.4297
21
-4.56541
0
LINE
8
BLACK
6
CONTINUOUS
10
4.4297
20
-4.56541
11
4.4297
21
-4.37402
0
LINE
8
BLACK
6
CONTINUOUS
10
4.4297
20
-4.37402
11
4.4297
21
-4.04177
0
LINE
8
BLACK
6
CONTINUOUS
10
4.4297
20
-4.04177
11
4.4297
21
-3.94177
0
LINE
8
BLACK
6
CONTINUOUS
10
4.4297
20
-3.94177
11
4.4297
21
-3.83459
0
LINE
8
BLACK
6
CONTINUOUS
10
4.4297
20
-3.83459
11
4.43048
21
-3.83195
0
LINE
8
BLACK
6
CONTINUOUS
10
4.43048
20
-3.83195
11
4.43256
21
-3.83015
0
LINE
8
BLACK
6
CONTINUOUS
10
4.43256
20
-3.83015
11
4.43459
21
-3.8297
0
LINE
8
BLACK
6
CONTINUOUS
10
4.43459
20
-3.8297
11
5.96541
21
-3.8297
0
LINE
8
BLACK
6
CONTINUOUS
10
5.96541
20
-3.8297
11
5.96805
21
-3.83048
0
LINE
8
BLACK
6
CONTINUOUS
10
5.40181
20
-4.53176
11
5.40181
21
-4.53176
0
LINE
8
BLACK
6
CONTINUOUS
10
5.40181
20
-4.53176
11
5.40181
21
-4.50984
0
LINE
8
BLACK
6
CONTINUOUS
10
5.40181
20
-4.50984
11
5.39
21
-4.50984
0
LINE
8
BLACK
6
CONTINUOUS
10
5.39
20
-4.50984
11
5.39
21
-4.53
0
LINE
8
BLACK
6
CONTINUOUS
10
5.39
20
-4.53
11
5.36984
21
-4.53
0
LINE
8
BLACK
6
CONTINUOUS
10
5.36984
20
-4.53
11
5.36984
21
-4.54181
0
LINE
8
BLACK
6
CONTINUOUS
10
5.36984
20
-4.54181
11
5.39176
21
-4.54181
0
LINE
8
BLACK
6
CONTINUOUS
10
5.39176
20
-4.54181
11
5.39176
21
-4.54181
0
LINE
8
BLACK
6
CONTINUOUS
10
5.39176
20
-4.54181
11
5.39275
21
-4.5417
0
LINE
8
BLACK
6
CONTINUOUS
10
5.39275
20
-4.5417
11
5.39275
21
-4.5417
0
LINE
8
BLACK
6
CONTINUOUS
10
5.39275
20
-4.5417
11
5.39679
21
-4.53991
0
LINE
8
BLACK
6
CONTINUOUS
10
5.39679
20
-4.53991
11
5.39679
21
-4.53991
0
LINE
8
BLACK
6
CONTINUOUS
10
5.39679
20
-4.53991
11
5.39991
21
-4.53679
0
LINE
8
BLACK
6
CONTINUOUS
10
5.39991
20
-4.53679
11
5.39991
21
-4.53679
0
LINE
8
BLACK
6
CONTINUOUS
10
5.39991
20
-4.53679
11
5.4017
21
-4.53275
0
LINE
8
BLACK
6
CONTINUOUS
10
5.4017
20
-4.53275
11
5.4017
21
-4.53275
0
LINE
8
BLACK
6
CONTINUOUS
10
5.4017
20
-4.53275
11
5.40181
21
-4.53177
0
LINE
8
BLACK
6
CONTINUOUS
10
5.40181
20
-4.53177
11
5.40181
21
-4.53176
0
LINE
8
BLACK
6
CONTINUOUS
10
5.31819
20
-4.50984
11
5.31819
21
-4.53176
0
LINE
8
BLACK
6
CONTINUOUS
10
5.31819
20
-4.53176
11
5.31819
21
-4.53176
0
LINE
8
BLACK
6
CONTINUOUS
10
5.31819
20
-4.53176
11
5.3183
21
-4.53275
0
LINE
8
BLACK
6
CONTINUOUS
10
5.3183
20
-4.53275
11
5.3183
21
-4.53275
0
LINE
8
BLACK
6
CONTINUOUS
10
5.3183
20
-4.53275
11
5.32009
21
-4.53679
0
LINE
8
BLACK
6
CONTINUOUS
10
5.32009
20
-4.53679
11
5.32009
21
-4.53679
0
LINE
8
BLACK
6
CONTINUOUS
10
5.32009
20
-4.53679
11
5.32321
21
-4.53991
0
LINE
8
BLACK
6
CONTINUOUS
10
5.32321
20
-4.53991
11
5.32321
21
-4.53991
0
LINE
8
BLACK
6
CONTINUOUS
10
5.32321
20
-4.53991
11
5.32725
21
-4.5417
0
LINE
8
BLACK
6
CONTINUOUS
10
5.32725
20
-4.5417
11
5.32824
21
-4.54181
0
LINE
8
BLACK
6
CONTINUOUS
10
5.32824
20
-4.54181
11
5.35016
21
-4.54181
0
LINE
8
BLACK
6
CONTINUOUS
10
5.35016
20
-4.54181
11
5.35016
21
-4.54181
0
LINE
8
BLACK
6
CONTINUOUS
10
5.35016
20
-4.54181
11
5.35016
21
-4.53
0
LINE
8
BLACK
6
CONTINUOUS
10
5.35016
20
-4.53
11
5.33
21
-4.53
0
LINE
8
BLACK
6
CONTINUOUS
10
5.33
20
-4.53
11
5.33
21
-4.50984
0
LINE
8
BLACK
6
CONTINUOUS
10
5.33
20
-4.50984
11
5.31819
21
-4.50984
0
LINE
8
BLACK
6
CONTINUOUS
10
5.51819
20
-4.50984
11
5.51819
21
-4.53176
0
LINE
8
BLACK
6
CONTINUOUS
10
5.51819
20
-4.53176
11
5.51819
21
-4.53176
0
LINE
8
BLACK
6
CONTINUOUS
10
5.51819
20
-4.53176
11
5.5183
21
-4.53275
0
LINE
8
BLACK
6
CONTINUOUS
10
5.5183
20
-4.53275
11
5.5183
21
-4.53275
0
LINE
8
BLACK
6
CONTINUOUS
10
5.5183
20
-4.53275
11
5.52009
21
-4.53679
0
LINE
8
BLACK
6
CONTINUOUS
10
5.52009
20
-4.53679
11
5.52009
21
-4.53679
0
LINE
8
BLACK
6
CONTINUOUS
10
5.52009
20
-4.53679
11
5.52321
21
-4.53991
0
LINE
8
BLACK
6
CONTINUOUS
10
5.52321
20
-4.53991
11
5.52321
21
-4.53991
0
LINE
8
BLACK
6
CONTINUOUS
10
5.52321
20
-4.53991
11
5.52725
21
-4.5417
0
LINE
8
BLACK
6
CONTINUOUS
10
5.52725
20
-4.5417
11
5.52824
21
-4.54181
0
LINE
8
BLACK
6
CONTINUOUS
10
5.52824
20
-4.54181
11
5.55016
21
-4.54181
0
LINE
8
BLACK
6
CONTINUOUS
10
5.55016
20
-4.54181
11
5.55016
21
-4.54181
0
LINE
8
BLACK
6
CONTINUOUS
10
5.55016
20
-4.54181
11
5.55016
21
-4.53
0
LINE
8
BLACK
6
CONTINUOUS
10
5.55016
20
-4.53
11
5.53
21
-4.53
0
LINE
8
BLACK
6
CONTINUOUS
10
5.53
20
-4.53
11
5.53
21
-4.50984
0
LINE
8
BLACK
6
CONTINUOUS
10
5.53
20
-4.50984
11
5.51819
21
-4.50984
0
LINE
8
BLACK
6
CONTINUOUS
10
5.59
20
-4.53
11
5.56984
21
-4.53
0
LINE
8
BLACK
6
CONTINUOUS
10
5.56984
20
-4.53
11
5.56984
21
-4.54181
0
LINE
8
BLACK
6
CONTINUOUS
10
5.56984
20
-4.54181
11
5.59176
21
-4.54181
0
LINE
8
BLACK
6
CONTINUOUS
10
5.59176
20
-4.54181
11
5.59176
21
-4.54181
0
LINE
8
BLACK
6
CONTINUOUS
10
5.59176
20
-4.54181
11
5.59275
21
-4.5417
0
LINE
8
BLACK
6
CONTINUOUS
10
5.59275
20
-4.5417
11
5.59275
21
-4.5417
0
LINE
8
BLACK
6
CONTINUOUS
10
5.59275
20
-4.5417
11
5.59679
21
-4.53991
0
LINE
8
BLACK
6
CONTINUOUS
10
5.59679
20
-4.53991
11
5.59679
21
-4.53991
0
LINE
8
BLACK
6
CONTINUOUS
10
5.59679
20
-4.53991
11
5.59991
21
-4.53679
0
LINE
8
BLACK
6
CONTINUOUS
10
5.59991
20
-4.53679
11
5.59991
21
-4.53679
0
LINE
8
BLACK
6
CONTINUOUS
10
5.59991
20
-4.53679
11
5.6017
21
-4.53275
0
LINE
8
BLACK
6
CONTINUOUS
10
5.6017
20
-4.53275
11
5.6017
21
-4.53275
0
LINE
8
BLACK
6
CONTINUOUS
10
5.6017
20
-4.53275
11
5.60181
21
-4.53176
0
LINE
8
BLACK
6
CONTINUOUS
10
5.60181
20
-4.53176
11
5.60181
21
-4.53176
0
LINE
8
BLACK
6
CONTINUOUS
10
5.60181
20
-4.53176
11
5.60181
21
-4.50984
0
LINE
8
BLACK
6
CONTINUOUS
10
5.60181
20
-4.50984
11
5.59
21
-4.50984
0
LINE
8
BLACK
6
CONTINUOUS
10
5.59
20
-4.50984
11
5.59
21
-4.53
0
LINE
8
BLACK
6
CONTINUOUS
10
5.41817
20
-4.53177
11
5.41828
21
-4.53276
0
LINE
8
BLACK
6
CONTINUOUS
10
5.41828
20
-4.53276
11
5.41828
21
-4.53276
0
LINE
8
BLACK
6
CONTINUOUS
10
5.41828
20
-4.53276
11
5.42007
21
-4.5368
0
LINE
8
BLACK
6
CONTINUOUS
10
5.42007
20
-4.5368
11
5.42007
21
-4.5368
0
LINE
8
BLACK
6
CONTINUOUS
10
5.42007
20
-4.5368
11
5.4232
21
-4.53993
0
LINE
8
BLACK
6
CONTINUOUS
10
5.4232
20
-4.53993
11
5.42724
21
-4.54172
0
LINE
8
BLACK
6
CONTINUOUS
10
5.42724
20
-4.54172
11
5.42823
21
-4.54183
0
LINE
8
BLACK
6
CONTINUOUS
10
5.42823
20
-4.54183
11
5.49177
21
-4.54183
0
LINE
8
BLACK
6
CONTINUOUS
10
5.49177
20
-4.54183
11
5.49177
21
-4.54183
0
LINE
8
BLACK
6
CONTINUOUS
10
5.49177
20
-4.54183
11
5.49177
21
-4.54183
0
LINE
8
BLACK
6
CONTINUOUS
10
5.49177
20
-4.54183
11
5.49276
21
-4.54172
0
LINE
8
BLACK
6
CONTINUOUS
10
5.49276
20
-4.54172
11
5.49276
21
-4.54172
0
LINE
8
BLACK
6
CONTINUOUS
10
5.49276
20
-4.54172
11
5.49276
21
-4.54172
0
LINE
8
BLACK
6
CONTINUOUS
10
5.49276
20
-4.54172
11
5.4968
21
-4.53993
0
LINE
8
BLACK
6
CONTINUOUS
10
5.4968
20
-4.53993
11
5.49993
21
-4.5368
0
LINE
8
BLACK
6
CONTINUOUS
10
5.49993
20
-4.5368
11
5.50172
21
-4.53276
0
LINE
8
BLACK
6
CONTINUOUS
10
5.50172
20
-4.53276
11
5.50183
21
-4.53177
0
LINE
8
BLACK
6
CONTINUOUS
10
5.50183
20
-4.53177
11
5.50183
21
-4.49016
0
LINE
8
BLACK
6
CONTINUOUS
10
5.50183
20
-4.49016
11
5.50183
21
-4.46823
0
LINE
8
BLACK
6
CONTINUOUS
10
5.50183
20
-4.46823
11
5.50173
21
-4.46736
0
LINE
8
BLACK
6
CONTINUOUS
10
5.50173
20
-4.46736
11
5.50172
21
-4.46724
0
LINE
8
BLACK
6
CONTINUOUS
10
5.50172
20
-4.46724
11
5.50172
21
-4.46724
0
LINE
8
BLACK
6
CONTINUOUS
10
5.50172
20
-4.46724
11
5.50172
21
-4.46724
0
LINE
8
BLACK
6
CONTINUOUS
10
5.50172
20
-4.46724
11
5.49993
21
-4.4632
0
LINE
8
BLACK
6
CONTINUOUS
10
5.49993
20
-4.4632
11
5.4968
21
-4.46007
0
LINE
8
BLACK
6
CONTINUOUS
10
5.4968
20
-4.46007
11
5.49556
21
-4.45952
0
LINE
8
BLACK
6
CONTINUOUS
10
5.49556
20
-4.45952
11
5.49276
21
-4.45828
0
LINE
8
BLACK
6
CONTINUOUS
10
5.49276
20
-4.45828
11
5.49177
21
-4.45817
0
LINE
8
BLACK
6
CONTINUOUS
10
5.49177
20
-4.45817
11
5.42823
21
-4.45817
0
LINE
8
BLACK
6
CONTINUOUS
10
5.42823
20
-4.45817
11
5.42823
21
-4.45817
0
LINE
8
BLACK
6
CONTINUOUS
10
5.42823
20
-4.45817
11
5.42724
21
-4.45828
0
LINE
8
BLACK
6
CONTINUOUS
10
5.42724
20
-4.45828
11
5.42724
21
-4.45828
0
LINE
8
BLACK
6
CONTINUOUS
10
5.42724
20
-4.45828
11
5.4232
21
-4.46007
0
LINE
8
BLACK
6
CONTINUOUS
10
5.4232
20
-4.46007
11
5.42007
21
-4.4632
0
LINE
8
BLACK
6
CONTINUOUS
10
5.42007
20
-4.4632
11
5.41828
21
-4.46724
0
LINE
8
BLACK
6
CONTINUOUS
10
5.41828
20
-4.46724
11
5.41828
21
-4.46724
0
LINE
8
BLACK
6
CONTINUOUS
10
5.41828
20
-4.46724
11
5.41817
21
-4.46823
0
LINE
8
BLACK
6
CONTINUOUS
10
5.41817
20
-4.46823
11
5.41817
21
-4.53177
0
LINE
8
BLACK
6
CONTINUOUS
10
5.41817
20
-4.53177
11
5.41817
21
-4.53177
0
LINE
8
BLACK
6
CONTINUOUS
10
5.03233
20
-4.34804
11
5.0264
21
-4.35115
0
LINE
8
BLACK
6
CONTINUOUS
10
5.0264
20
-4.35115
11
5.02139
21
-4.35559
0
LINE
8
BLACK
6
CONTINUOUS
10
5.02139
20
-4.35559
11
5.01758
21
-4.36111
0
LINE
8
BLACK
6
CONTINUOUS
10
5.01758
20
-4.36111
11
5.01521
21
-4.36737
0
LINE
8
BLACK
6
CONTINUOUS
10
5.01521
20
-4.36737
11
5.01521
21
-4.36737
0
LINE
8
BLACK
6
CONTINUOUS
10
5.01521
20
-4.36737
11
5.0144
21
-4.37402
0
LINE
8
BLACK
6
CONTINUOUS
10
5.0144
20
-4.37402
11
5.01521
21
-4.38066
0
LINE
8
BLACK
6
CONTINUOUS
10
5.01521
20
-4.38066
11
5.01521
21
-4.38066
0
LINE
8
BLACK
6
CONTINUOUS
10
5.01521
20
-4.38066
11
5.01758
21
-4.38693
0
LINE
8
BLACK
6
CONTINUOUS
10
5.01758
20
-4.38693
11
5.01899
21
-4.38897
0
LINE
8
BLACK
6
CONTINUOUS
10
5.01899
20
-4.38897
11
5.02139
21
-4.39244
0
LINE
8
BLACK
6
CONTINUOUS
10
5.02139
20
-4.39244
11
5.02548
21
-4.39606
0
LINE
8
BLACK
6
CONTINUOUS
10
5.02548
20
-4.39606
11
5.0264
21
-4.39688
0
LINE
8
BLACK
6
CONTINUOUS
10
5.0264
20
-4.39688
11
5.03233
21
-4.39999
0
LINE
8
BLACK
6
CONTINUOUS
10
5.03233
20
-4.39999
11
5.03233
21
-4.39999
0
LINE
8
BLACK
6
CONTINUOUS
10
5.03233
20
-4.39999
11
5.03883
21
-4.40159
0
LINE
8
BLACK
6
CONTINUOUS
10
5.03883
20
-4.40159
11
5.04553
21
-4.40159
0
LINE
8
BLACK
6
CONTINUOUS
10
5.04553
20
-4.40159
11
5.05203
21
-4.39999
0
LINE
8
BLACK
6
CONTINUOUS
10
5.05203
20
-4.39999
11
5.05655
21
-4.39762
0
LINE
8
BLACK
6
CONTINUOUS
10
5.05655
20
-4.39762
11
5.05796
21
-4.39688
0
LINE
8
BLACK
6
CONTINUOUS
10
5.05796
20
-4.39688
11
5.05796
21
-4.39688
0
LINE
8
BLACK
6
CONTINUOUS
10
5.05796
20
-4.39688
11
5.05796
21
-4.39688
0
LINE
8
BLACK
6
CONTINUOUS
10
5.05796
20
-4.39688
11
5.05837
21
-4.39652
0
LINE
8
BLACK
6
CONTINUOUS
10
5.05837
20
-4.39652
11
5.06086
21
-4.39535
0
LINE
8
BLACK
6
CONTINUOUS
10
5.06086
20
-4.39535
11
5.06358
21
-4.39571
0
LINE
8
BLACK
6
CONTINUOUS
10
5.06358
20
-4.39571
11
5.06506
21
-4.39672
0
LINE
8
BLACK
6
CONTINUOUS
10
5.06506
20
-4.39672
11
5.09678
21
-4.42845
0
LINE
8
BLACK
6
CONTINUOUS
10
5.09678
20
-4.42845
11
5.0981
21
-4.43086
0
LINE
8
BLACK
6
CONTINUOUS
10
5.0981
20
-4.43086
11
5.0979
21
-4.4336
0
LINE
8
BLACK
6
CONTINUOUS
10
5.0979
20
-4.4336
11
5.09678
21
-4.43535
0
LINE
8
BLACK
6
CONTINUOUS
10
5.09678
20
-4.43535
11
5.09499
21
-4.43714
0
LINE
8
BLACK
6
CONTINUOUS
10
5.09499
20
-4.43714
11
5.09321
21
-4.44118
0
LINE
8
BLACK
6
CONTINUOUS
10
5.09321
20
-4.44118
11
5.09321
21
-4.44118
0
LINE
8
BLACK
6
CONTINUOUS
10
5.09321
20
-4.44118
11
5.09309
21
-4.44217
0
LINE
8
BLACK
6
CONTINUOUS
10
5.09309
20
-4.44217
11
5.09309
21
-4.44394
0
LINE
8
BLACK
6
CONTINUOUS
10
5.09309
20
-4.44394
11
5.09508
21
-4.44394
0
LINE
8
BLACK
6
CONTINUOUS
10
5.09508
20
-4.44394
11
5.09508
21
-4.50299
0
LINE
8
BLACK
6
CONTINUOUS
10
5.09508
20
-4.50299
11
5.09309
21
-4.50299
0
LINE
8
BLACK
6
CONTINUOUS
10
5.09309
20
-4.50299
11
5.09309
21
-4.50476
0
LINE
8
BLACK
6
CONTINUOUS
10
5.09309
20
-4.50476
11
5.09309
21
-4.50476
0
LINE
8
BLACK
6
CONTINUOUS
10
5.09309
20
-4.50476
11
5.09321
21
-4.50575
0
LINE
8
BLACK
6
CONTINUOUS
10
5.09321
20
-4.50575
11
5.09321
21
-4.50575
0
LINE
8
BLACK
6
CONTINUOUS
10
5.09321
20
-4.50575
11
5.09499
21
-4.50979
0
LINE
8
BLACK
6
CONTINUOUS
10
5.09499
20
-4.50979
11
5.09499
21
-4.50979
0
LINE
8
BLACK
6
CONTINUOUS
10
5.09499
20
-4.50979
11
5.09812
21
-4.51292
0
LINE
8
BLACK
6
CONTINUOUS
10
5.09812
20
-4.51292
11
5.10217
21
-4.51471
0
LINE
8
BLACK
6
CONTINUOUS
10
5.10217
20
-4.51471
11
5.10315
21
-4.51482
0
LINE
8
BLACK
6
CONTINUOUS
10
5.10315
20
-4.51482
11
5.14606
21
-4.51482
0
LINE
8
BLACK
6
CONTINUOUS
10
5.14606
20
-4.51482
11
5.14606
21
-4.51482
0
LINE
8
BLACK
6
CONTINUOUS
10
5.14606
20
-4.51482
11
5.14606
21
-4.51482
0
LINE
8
BLACK
6
CONTINUOUS
10
5.14606
20
-4.51482
11
5.14705
21
-4.51471
0
LINE
8
BLACK
6
CONTINUOUS
10
5.14705
20
-4.51471
11
5.14705
21
-4.51471
0
LINE
8
BLACK
6
CONTINUOUS
10
5.14705
20
-4.51471
11
5.14705
21
-4.51471
0
LINE
8
BLACK
6
CONTINUOUS
10
5.14705
20
-4.51471
11
5.14726
21
-4.51461
0
LINE
8
BLACK
6
CONTINUOUS
10
5.14726
20
-4.51461
11
5.14999
21
-4.51426
0
LINE
8
BLACK
6
CONTINUOUS
10
5.14999
20
-4.51426
11
5.15013
21
-4.51428
0
LINE
8
BLACK
6
CONTINUOUS
10
5.15013
20
-4.51428
11
5.15413
21
-4.51503
0
LINE
8
BLACK
6
CONTINUOUS
10
5.15413
20
-4.51503
11
5.15413
21
-4.51503
0
LINE
8
BLACK
6
CONTINUOUS
10
5.15413
20
-4.51503
11
5.17862
21
-4.51503
0
LINE
8
BLACK
6
CONTINUOUS
10
5.17862
20
-4.51503
11
5.17862
21
-4.51503
0
LINE
8
BLACK
6
CONTINUOUS
10
5.17862
20
-4.51503
11
5.18201
21
-4.51454
0
LINE
8
BLACK
6
CONTINUOUS
10
5.18201
20
-4.51454
11
5.18744
21
-4.51295
0
LINE
8
BLACK
6
CONTINUOUS
10
5.18744
20
-4.51295
11
5.19056
21
-4.51152
0
LINE
8
BLACK
6
CONTINUOUS
10
5.19056
20
-4.51152
11
5.19532
21
-4.50846
0
LINE
8
BLACK
6
CONTINUOUS
10
5.19532
20
-4.50846
11
5.19791
21
-4.50622
0
LINE
8
BLACK
6
CONTINUOUS
10
5.19791
20
-4.50622
11
5.1996
21
-4.50427
0
LINE
8
BLACK
6
CONTINUOUS
10
5.1996
20
-4.50427
11
5.20161
21
-4.50194
0
LINE
8
BLACK
6
CONTINUOUS
10
5.20161
20
-4.50194
11
5.20161
21
-4.50194
0
LINE
8
BLACK
6
CONTINUOUS
10
5.20161
20
-4.50194
11
5.20161
21
-4.50194
0
LINE
8
BLACK
6
CONTINUOUS
10
5.20161
20
-4.50194
11
5.20347
21
-4.49906
0
LINE
8
BLACK
6
CONTINUOUS
10
5.20347
20
-4.49906
11
5.20347
21
-4.49906
0
LINE
8
BLACK
6
CONTINUOUS
10
5.20347
20
-4.49906
11
5.20347
21
-4.49906
0
LINE
8
BLACK
6
CONTINUOUS
10
5.20347
20
-4.49906
11
5.20582
21
-4.49391
0
LINE
8
BLACK
6
CONTINUOUS
10
5.20582
20
-4.49391
11
5.20582
21
-4.49391
0
LINE
8
BLACK
6
CONTINUOUS
10
5.20582
20
-4.49391
11
5.20582
21
-4.49391
0
LINE
8
BLACK
6
CONTINUOUS
10
5.20582
20
-4.49391
11
5.20678
21
-4.49062
0
LINE
8
BLACK
6
CONTINUOUS
10
5.20678
20
-4.49062
11
5.20685
21
-4.49016
0
LINE
8
BLACK
6
CONTINUOUS
10
5.20685
20
-4.49016
11
5.20759
21
-4.48502
0
LINE
8
BLACK
6
CONTINUOUS
10
5.20759
20
-4.48502
11
5.20759
21
-4.48159
0
LINE
8
BLACK
6
CONTINUOUS
10
5.20759
20
-4.48159
11
5.20756
21
-4.48138
0
LINE
8
BLACK
6
CONTINUOUS
10
5.20756
20
-4.48138
11
5.20751
21
-4.48069
0
LINE
8
BLACK
6
CONTINUOUS
10
5.20751
20
-4.48069
11
5.20751
21
-4.47356
0
LINE
8
BLACK
6
CONTINUOUS
10
5.20751
20
-4.47356
11
5.20808
21
-4.47139
0
LINE
8
BLACK
6
CONTINUOUS
10
5.20808
20
-4.47139
11
5.20806
21
-4.47139
0
LINE
8
BLACK
6
CONTINUOUS
10
5.20806
20
-4.47139
11
5.20811
21
-4.47128
0
LINE
8
BLACK
6
CONTINUOUS
10
5.20811
20
-4.47128
11
5.20813
21
-4.47116
0
LINE
8
BLACK
6
CONTINUOUS
10
5.20813
20
-4.47116
11
5.20818
21
-4.47108
0
LINE
8
BLACK
6
CONTINUOUS
10
5.20818
20
-4.47108
11
5.20818
21
-4.47108
0
LINE
8
BLACK
6
CONTINUOUS
10
5.20818
20
-4.47108
11
5.20818
21
-4.47108
0
LINE
8
BLACK
6
CONTINUOUS
10
5.20818
20
-4.47108
11
5.20845
21
-4.47041
0
LINE
8
BLACK
6
CONTINUOUS
10
5.20845
20
-4.47041
11
5.20882
21
-4.46967
0
LINE
8
BLACK
6
CONTINUOUS
10
5.20882
20
-4.46967
11
5.20889
21
-4.46954
0
LINE
8
BLACK
6
CONTINUOUS
10
5.20889
20
-4.46954
11
5.20919
21
-4.46905
0
LINE
8
BLACK
6
CONTINUOUS
10
5.20919
20
-4.46905
11
5.20966
21
-4.46736
0
LINE
8
BLACK
6
CONTINUOUS
10
5.20966
20
-4.46736
11
5.20974
21
-4.46713
0
LINE
8
BLACK
6
CONTINUOUS
10
5.20974
20
-4.46713
11
5.21039
21
-4.46549
0
LINE
8
BLACK
6
CONTINUOUS
10
5.21039
20
-4.46549
11
5.21046
21
-4.46478
0
LINE
8
BLACK
6
CONTINUOUS
10
5.21046
20
-4.46478
11
5.21061
21
-4.46396
0
LINE
8
BLACK
6
CONTINUOUS
10
5.21061
20
-4.46396
11
5.21081
21
-4.46328
0
LINE
8
BLACK
6
CONTINUOUS
10
5.21081
20
-4.46328
11
5.21081
21
-4.46152
0
LINE
8
BLACK
6
CONTINUOUS
10
5.21081
20
-4.46152
11
5.21082
21
-4.46127
0
LINE
8
BLACK
6
CONTINUOUS
10
5.21082
20
-4.46127
11
5.211
21
-4.45952
0
LINE
8
BLACK
6
CONTINUOUS
10
5.211
20
-4.45952
11
5.21088
21
-4.45882
0
LINE
8
BLACK
6
CONTINUOUS
10
5.21088
20
-4.45882
11
5.21081
21
-4.45799
0
LINE
8
BLACK
6
CONTINUOUS
10
5.21081
20
-4.45799
11
5.21081
21
-4.44364
0
LINE
8
BLACK
6
CONTINUOUS
10
5.21081
20
-4.44364
11
5.21158
21
-4.441
0
LINE
8
BLACK
6
CONTINUOUS
10
5.21158
20
-4.441
11
5.21167
21
-4.44087
0
LINE
8
BLACK
6
CONTINUOUS
10
5.21167
20
-4.44087
11
5.21218
21
-4.44013
0
LINE
8
BLACK
6
CONTINUOUS
10
5.21218
20
-4.44013
11
5.21358
21
-4.43811
0
LINE
8
BLACK
6
CONTINUOUS
10
5.21358
20
-4.43811
11
5.21595
21
-4.43185
0
LINE
8
BLACK
6
CONTINUOUS
10
5.21595
20
-4.43185
11
5.21676
21
-4.4252
0
LINE
8
BLACK
6
CONTINUOUS
10
5.21676
20
-4.4252
11
5.21595
21
-4.41855
0
LINE
8
BLACK
6
CONTINUOUS
10
5.21595
20
-4.41855
11
5.21555
21
-4.4175
0
LINE
8
BLACK
6
CONTINUOUS
10
5.21555
20
-4.4175
11
5.21401
21
-4.41343
0
LINE
8
BLACK
6
CONTINUOUS
10
5.21401
20
-4.41343
11
5.21358
21
-4.41229
0
LINE
8
BLACK
6
CONTINUOUS
10
5.21358
20
-4.41229
11
5.20977
21
-4.40677
0
LINE
8
BLACK
6
CONTINUOUS
10
5.20977
20
-4.40677
11
5.20476
21
-4.40233
0
LINE
8
BLACK
6
CONTINUOUS
10
5.20476
20
-4.40233
11
5.20476
21
-4.40233
0
LINE
8
BLACK
6
CONTINUOUS
10
5.20476
20
-4.40233
11
5.19883
21
-4.39922
0
LINE
8
BLACK
6
CONTINUOUS
10
5.19883
20
-4.39922
11
5.19233
21
-4.39762
0
LINE
8
BLACK
6
CONTINUOUS
10
5.19233
20
-4.39762
11
5.18563
21
-4.39762
0
LINE
8
BLACK
6
CONTINUOUS
10
5.18563
20
-4.39762
11
5.17912
21
-4.39922
0
LINE
8
BLACK
6
CONTINUOUS
10
5.17912
20
-4.39922
11
5.17319
21
-4.40233
0
LINE
8
BLACK
6
CONTINUOUS
10
5.17319
20
-4.40233
11
5.16818
21
-4.40677
0
LINE
8
BLACK
6
CONTINUOUS
10
5.16818
20
-4.40677
11
5.16438
21
-4.41229
0
LINE
8
BLACK
6
CONTINUOUS
10
5.16438
20
-4.41229
11
5.162
21
-4.41855
0
LINE
8
BLACK
6
CONTINUOUS
10
5.162
20
-4.41855
11
5.162
21
-4.41855
0
LINE
8
BLACK
6
CONTINUOUS
10
5.162
20
-4.41855
11
5.16141
21
-4.42343
0
LINE
8
BLACK
6
CONTINUOUS
10
5.16141
20
-4.42343
11
5.1612
21
-4.4252
0
LINE
8
BLACK
6
CONTINUOUS
10
5.1612
20
-4.4252
11
5.16134
21
-4.42643
0
LINE
8
BLACK
6
CONTINUOUS
10
5.16134
20
-4.42643
11
5.16089
21
-4.42914
0
LINE
8
BLACK
6
CONTINUOUS
10
5.16089
20
-4.42914
11
5.15905
21
-4.43118
0
LINE
8
BLACK
6
CONTINUOUS
10
5.15905
20
-4.43118
11
5.1565
21
-4.4319
0
LINE
8
BLACK
6
CONTINUOUS
10
5.1565
20
-4.4319
11
5.15413
21
-4.4319
0
LINE
8
BLACK
6
CONTINUOUS
10
5.15413
20
-4.4319
11
5.15302
21
-4.43195
0
LINE
8
BLACK
6
CONTINUOUS
10
5.15302
20
-4.43195
11
5.15302
21
-4.43195
0
LINE
8
BLACK
6
CONTINUOUS
10
5.15302
20
-4.43195
11
5.15071
21
-4.43261
0
LINE
8
BLACK
6
CONTINUOUS
10
5.15071
20
-4.43261
11
5.14796
21
-4.43259
0
LINE
8
BLACK
6
CONTINUOUS
10
5.14796
20
-4.43259
11
5.14741
21
-4.43238
0
LINE
8
BLACK
6
CONTINUOUS
10
5.14741
20
-4.43238
11
5.14685
21
-4.43213
0
LINE
8
BLACK
6
CONTINUOUS
10
5.14685
20
-4.43213
11
5.14475
21
-4.43036
0
LINE
8
BLACK
6
CONTINUOUS
10
5.14475
20
-4.43036
11
5.14394
21
-4.42773
0
LINE
8
BLACK
6
CONTINUOUS
10
5.14394
20
-4.42773
11
5.14394
21
-4.42767
0
LINE
8
BLACK
6
CONTINUOUS
10
5.14394
20
-4.42767
11
5.14394
21
-4.42755
0
LINE
8
BLACK
6
CONTINUOUS
10
5.14394
20
-4.42755
11
5.14394
21
-4.42755
0
LINE
8
BLACK
6
CONTINUOUS
10
5.14394
20
-4.42755
11
5.14385
21
-4.42695
0
LINE
8
BLACK
6
CONTINUOUS
10
5.14385
20
-4.42695
11
5.14383
21
-4.42678
0
LINE
8
BLACK
6
CONTINUOUS
10
5.14383
20
-4.42678
11
5.14369
21
-4.42479
0
LINE
8
BLACK
6
CONTINUOUS
10
5.14369
20
-4.42479
11
5.14363
21
-4.42462
0
LINE
8
BLACK
6
CONTINUOUS
10
5.14363
20
-4.42462
11
5.14337
21
-4.42361
0
LINE
8
BLACK
6
CONTINUOUS
10
5.14337
20
-4.42361
11
5.14334
21
-4.42343
0
LINE
8
BLACK
6
CONTINUOUS
10
5.14334
20
-4.42343
11
5.14334
21
-4.42343
0
LINE
8
BLACK
6
CONTINUOUS
10
5.14334
20
-4.42343
11
5.14264
21
-4.42189
0
LINE
8
BLACK
6
CONTINUOUS
10
5.14264
20
-4.42189
11
5.14251
21
-4.42161
0
LINE
8
BLACK
6
CONTINUOUS
10
5.14251
20
-4.42161
11
5.14245
21
-4.42145
0
LINE
8
BLACK
6
CONTINUOUS
10
5.14245
20
-4.42145
11
5.14175
21
-4.41958
0
LINE
8
BLACK
6
CONTINUOUS
10
5.14175
20
-4.41958
11
5.14175
21
-4.41958
0
LINE
8
BLACK
6
CONTINUOUS
10
5.14175
20
-4.41958
11
5.14164
21
-4.41944
0
LINE
8
BLACK
6
CONTINUOUS
10
5.14164
20
-4.41944
11
5.14111
21
-4.41854
0
LINE
8
BLACK
6
CONTINUOUS
10
5.14111
20
-4.41854
11
5.14104
21
-4.41838
0
LINE
8
BLACK
6
CONTINUOUS
10
5.14104
20
-4.41838
11
5.14104
21
-4.41838
0
LINE
8
BLACK
6
CONTINUOUS
10
5.14104
20
-4.41838
11
5.13972
21
-4.41687
0
LINE
8
BLACK
6
CONTINUOUS
10
5.13972
20
-4.41687
11
5.13962
21
-4.41673
0
LINE
8
BLACK
6
CONTINUOUS
10
5.13962
20
-4.41673
11
5.13925
21
-4.41625
0
LINE
8
BLACK
6
CONTINUOUS
10
5.13925
20
-4.41625
11
5.13882
21
-4.41582
0
LINE
8
BLACK
6
CONTINUOUS
10
5.13882
20
-4.41582
11
5.13871
21
-4.41569
0
LINE
8
BLACK
6
CONTINUOUS
10
5.13871
20
-4.41569
11
5.1374
21
-4.41418
0
LINE
8
BLACK
6
CONTINUOUS
10
5.1374
20
-4.41418
11
5.1374
21
-4.41418
0
LINE
8
BLACK
6
CONTINUOUS
10
5.1374
20
-4.41418
11
5.13725
21
-4.41408
0
LINE
8
BLACK
6
CONTINUOUS
10
5.13725
20
-4.41408
11
5.13643
21
-4.41343
0
LINE
8
BLACK
6
CONTINUOUS
10
5.13643
20
-4.41343
11
5.11316
21
-4.39016
0
LINE
8
BLACK
6
CONTINUOUS
10
5.11316
20
-4.39016
11
5.08852
21
-4.36551
0
LINE
8
BLACK
6
CONTINUOUS
10
5.08852
20
-4.36551
11
5.08513
21
-4.36498
0
LINE
8
BLACK
6
CONTINUOUS
10
5.08513
20
-4.36498
11
5.08074
21
-4.36274
0
LINE
8
BLACK
6
CONTINUOUS
10
5.08074
20
-4.36274
11
5.07726
21
-4.35926
0
LINE
8
BLACK
6
CONTINUOUS
10
5.07726
20
-4.35926
11
5.07525
21
-4.3553
0
LINE
8
BLACK
6
CONTINUOUS
10
5.07525
20
-4.3553
11
5.07519
21
-4.35528
0
LINE
8
BLACK
6
CONTINUOUS
10
5.07519
20
-4.35528
11
5.07519
21
-4.35528
0
LINE
8
BLACK
6
CONTINUOUS
10
5.07519
20
-4.35528
11
5.07519
21
-4.35528
0
LINE
8
BLACK
6
CONTINUOUS
10
5.07519
20
-4.35528
11
5.07501
21
-4.35525
0
LINE
8
BLACK
6
CONTINUOUS
10
5.07501
20
-4.35525
11
5.074
21
-4.35499
0
LINE
8
BLACK
6
CONTINUOUS
10
5.074
20
-4.35499
11
5.07384
21
-4.35493
0
LINE
8
BLACK
6
CONTINUOUS
10
5.07384
20
-4.35493
11
5.07184
21
-4.35479
0
LINE
8
BLACK
6
CONTINUOUS
10
5.07184
20
-4.35479
11
5.07167
21
-4.35477
0
LINE
8
BLACK
6
CONTINUOUS
10
5.07167
20
-4.35477
11
5.07107
21
-4.35469
0
LINE
8
BLACK
6
CONTINUOUS
10
5.07107
20
-4.35469
11
5.07107
21
-4.35469
0
LINE
8
BLACK
6
CONTINUOUS
10
5.07107
20
-4.35469
11
5.07107
21
-4.35469
0
LINE
8
BLACK
6
CONTINUOUS
10
5.07107
20
-4.35469
11
5.07046
21
-4.35469
0
LINE
8
BLACK
6
CONTINUOUS
10
5.07046
20
-4.35469
11
5.07029
21
-4.35468
0
LINE
8
BLACK
6
CONTINUOUS
10
5.07029
20
-4.35468
11
5.0702
21
-4.35467
0
LINE
8
BLACK
6
CONTINUOUS
10
5.0702
20
-4.35467
11
5.06829
21
-4.35454
0
LINE
8
BLACK
6
CONTINUOUS
10
5.06829
20
-4.35454
11
5.06829
21
-4.35454
0
LINE
8
BLACK
6
CONTINUOUS
10
5.06829
20
-4.35454
11
5.06812
21
-4.35457
0
LINE
8
BLACK
6
CONTINUOUS
10
5.06812
20
-4.35457
11
5.06708
21
-4.35469
0
LINE
8
BLACK
6
CONTINUOUS
10
5.06708
20
-4.35469
11
5.0638
21
-4.35469
0
LINE
8
BLACK
6
CONTINUOUS
10
5.0638
20
-4.35469
11
5.06116
21
-4.35391
0
LINE
8
BLACK
6
CONTINUOUS
10
5.06116
20
-4.35391
11
5.06056
21
-4.35346
0
LINE
8
BLACK
6
CONTINUOUS
10
5.06056
20
-4.35346
11
5.05796
21
-4.35115
0
LINE
8
BLACK
6
CONTINUOUS
10
5.05796
20
-4.35115
11
5.05796
21
-4.35115
0
LINE
8
BLACK
6
CONTINUOUS
10
5.05796
20
-4.35115
11
5.05796
21
-4.35115
0
LINE
8
BLACK
6
CONTINUOUS
10
5.05796
20
-4.35115
11
5.05203
21
-4.34804
0
LINE
8
BLACK
6
CONTINUOUS
10
5.05203
20
-4.34804
11
5.04553
21
-4.34644
0
LINE
8
BLACK
6
CONTINUOUS
10
5.04553
20
-4.34644
11
5.03883
21
-4.34644
0
LINE
8
BLACK
6
CONTINUOUS
10
5.03883
20
-4.34644
11
5.03233
21
-4.34804
0
LINE
8
BLACK
6
CONTINUOUS
10
5.56984
20
-4.47
11
5.59
21
-4.47
0
LINE
8
BLACK
6
CONTINUOUS
10
5.59
20
-4.47
11
5.59
21
-4.49016
0
LINE
8
BLACK
6
CONTINUOUS
10
5.59
20
-4.49016
11
5.60181
21
-4.49016
0
LINE
8
BLACK
6
CONTINUOUS
10
5.60181
20
-4.49016
11
5.60181
21
-4.46824
0
LINE
8
BLACK
6
CONTINUOUS
10
5.60181
20
-4.46824
11
5.60181
21
-4.46824
0
LINE
8
BLACK
6
CONTINUOUS
10
5.60181
20
-4.46824
11
5.6017
21
-4.46725
0
LINE
8
BLACK
6
CONTINUOUS
10
5.6017
20
-4.46725
11
5.6017
21
-4.46725
0
LINE
8
BLACK
6
CONTINUOUS
10
5.6017
20
-4.46725
11
5.59991
21
-4.46321
0
LINE
8
BLACK
6
CONTINUOUS
10
5.59991
20
-4.46321
11
5.59991
21
-4.46321
0
LINE
8
BLACK
6
CONTINUOUS
10
5.59991
20
-4.46321
11
5.59679
21
-4.46009
0
LINE
8
BLACK
6
CONTINUOUS
10
5.59679
20
-4.46009
11
5.59679
21
-4.46009
0
LINE
8
BLACK
6
CONTINUOUS
10
5.59679
20
-4.46009
11
5.59275
21
-4.4583
0
LINE
8
BLACK
6
CONTINUOUS
10
5.59275
20
-4.4583
11
5.59176
21
-4.45819
0
LINE
8
BLACK
6
CONTINUOUS
10
5.59176
20
-4.45819
11
5.56984
21
-4.45819
0
LINE
8
BLACK
6
CONTINUOUS
10
5.56984
20
-4.45819
11
5.56984
21
-4.47
0
LINE
8
BLACK
6
CONTINUOUS
10
5.36984
20
-4.47
11
5.39
21
-4.47
0
LINE
8
BLACK
6
CONTINUOUS
10
5.39
20
-4.47
11
5.39
21
-4.49016
0
LINE
8
BLACK
6
CONTINUOUS
10
5.39
20
-4.49016
11
5.40181
21
-4.49016
0
LINE
8
BLACK
6
CONTINUOUS
10
5.40181
20
-4.49016
11
5.40181
21
-4.46824
0
LINE
8
BLACK
6
CONTINUOUS
10
5.40181
20
-4.46824
11
5.40181
21
-4.46824
0
LINE
8
BLACK
6
CONTINUOUS
10
5.40181
20
-4.46824
11
5.4017
21
-4.46725
0
LINE
8
BLACK
6
CONTINUOUS
10
5.4017
20
-4.46725
11
5.4017
21
-4.46725
0
LINE
8
BLACK
6
CONTINUOUS
10
5.4017
20
-4.46725
11
5.39991
21
-4.46321
0
LINE
8
BLACK
6
CONTINUOUS
10
5.39991
20
-4.46321
11
5.39991
21
-4.46321
0
LINE
8
BLACK
6
CONTINUOUS
10
5.39991
20
-4.46321
11
5.39679
21
-4.46009
0
LINE
8
BLACK
6
CONTINUOUS
10
5.39679
20
-4.46009
11
5.39679
21
-4.46009
0
LINE
8
BLACK
6
CONTINUOUS
10
5.39679
20
-4.46009
11
5.39275
21
-4.4583
0
LINE
8
BLACK
6
CONTINUOUS
10
5.39275
20
-4.4583
11
5.39176
21
-4.45819
0
LINE
8
BLACK
6
CONTINUOUS
10
5.39176
20
-4.45819
11
5.36984
21
-4.45819
0
LINE
8
BLACK
6
CONTINUOUS
10
5.36984
20
-4.45819
11
5.36984
21
-4.47
0
LINE
8
BLACK
6
CONTINUOUS
10
5.40181
20
-4.43176
11
5.40181
21
-4.43176
0
LINE
8
BLACK
6
CONTINUOUS
10
5.40181
20
-4.43176
11
5.40181
21
-4.40984
0
LINE
8
BLACK
6
CONTINUOUS
10
5.40181
20
-4.40984
11
5.39
21
-4.40984
0
LINE
8
BLACK
6
CONTINUOUS
10
5.39
20
-4.40984
11
5.39
21
-4.43
0
LINE
8
BLACK
6
CONTINUOUS
10
5.39
20
-4.43
11
5.36984
21
-4.43
0
LINE
8
BLACK
6
CONTINUOUS
10
5.36984
20
-4.43
11
5.36984
21
-4.44181
0
LINE
8
BLACK
6
CONTINUOUS
10
5.36984
20
-4.44181
11
5.39176
21
-4.44181
0
LINE
8
BLACK
6
CONTINUOUS
10
5.39176
20
-4.44181
11
5.39176
21
-4.44181
0
LINE
8
BLACK
6
CONTINUOUS
10
5.39176
20
-4.44181
11
5.39275
21
-4.4417
0
LINE
8
BLACK
6
CONTINUOUS
10
5.39275
20
-4.4417
11
5.39275
21
-4.4417
0
LINE
8
BLACK
6
CONTINUOUS
10
5.39275
20
-4.4417
11
5.39679
21
-4.43991
0
LINE
8
BLACK
6
CONTINUOUS
10
5.39679
20
-4.43991
11
5.39679
21
-4.43991
0
LINE
8
BLACK
6
CONTINUOUS
10
5.39679
20
-4.43991
11
5.39991
21
-4.43679
0
LINE
8
BLACK
6
CONTINUOUS
10
5.39991
20
-4.43679
11
5.39991
21
-4.43679
0
LINE
8
BLACK
6
CONTINUOUS
10
5.39991
20
-4.43679
11
5.4017
21
-4.43275
0
LINE
8
BLACK
6
CONTINUOUS
10
5.4017
20
-4.43275
11
5.4017
21
-4.43275
0
LINE
8
BLACK
6
CONTINUOUS
10
5.4017
20
-4.43275
11
5.40181
21
-4.43177
0
LINE
8
BLACK
6
CONTINUOUS
10
5.40181
20
-4.43177
11
5.40181
21
-4.43176
0
LINE
8
BLACK
6
CONTINUOUS
10
5.31819
20
-4.40984
11
5.31819
21
-4.43176
0
LINE
8
BLACK
6
CONTINUOUS
10
5.31819
20
-4.43176
11
5.31819
21
-4.43176
0
LINE
8
BLACK
6
CONTINUOUS
10
5.31819
20
-4.43176
11
5.3183
21
-4.43275
0
LINE
8
BLACK
6
CONTINUOUS
10
5.3183
20
-4.43275
11
5.3183
21
-4.43275
0
LINE
8
BLACK
6
CONTINUOUS
10
5.3183
20
-4.43275
11
5.32009
21
-4.43679
0
LINE
8
BLACK
6
CONTINUOUS
10
5.32009
20
-4.43679
11
5.32009
21
-4.43679
0
LINE
8
BLACK
6
CONTINUOUS
10
5.32009
20
-4.43679
11
5.32321
21
-4.43991
0
LINE
8
BLACK
6
CONTINUOUS
10
5.32321
20
-4.43991
11
5.32321
21
-4.43991
0
LINE
8
BLACK
6
CONTINUOUS
10
5.32321
20
-4.43991
11
5.32725
21
-4.4417
0
LINE
8
BLACK
6
CONTINUOUS
10
5.32725
20
-4.4417
11
5.32824
21
-4.44181
0
LINE
8
BLACK
6
CONTINUOUS
10
5.32824
20
-4.44181
11
5.35016
21
-4.44181
0
LINE
8
BLACK
6
CONTINUOUS
10
5.35016
20
-4.44181
11
5.35016
21
-4.44181
0
LINE
8
BLACK
6
CONTINUOUS
10
5.35016
20
-4.44181
11
5.35016
21
-4.43
0
LINE
8
BLACK
6
CONTINUOUS
10
5.35016
20
-4.43
11
5.33
21
-4.43
0
LINE
8
BLACK
6
CONTINUOUS
10
5.33
20
-4.43
11
5.33
21
-4.40984
0
LINE
8
BLACK
6
CONTINUOUS
10
5.33
20
-4.40984
11
5.31819
21
-4.40984
0
LINE
8
BLACK
6
CONTINUOUS
10
5.51819
20
-4.40984
11
5.51819
21
-4.43176
0
LINE
8
BLACK
6
CONTINUOUS
10
5.51819
20
-4.43176
11
5.51819
21
-4.43176
0
LINE
8
BLACK
6
CONTINUOUS
10
5.51819
20
-4.43176
11
5.5183
21
-4.43275
0
LINE
8
BLACK
6
CONTINUOUS
10
5.5183
20
-4.43275
11
5.5183
21
-4.43275
0
LINE
8
BLACK
6
CONTINUOUS
10
5.5183
20
-4.43275
11
5.52009
21
-4.43679
0
LINE
8
BLACK
6
CONTINUOUS
10
5.52009
20
-4.43679
11
5.52009
21
-4.43679
0
LINE
8
BLACK
6
CONTINUOUS
10
5.52009
20
-4.43679
11
5.52321
21
-4.43991
0
LINE
8
BLACK
6
CONTINUOUS
10
5.52321
20
-4.43991
11
5.52321
21
-4.43991
0
LINE
8
BLACK
6
CONTINUOUS
10
5.52321
20
-4.43991
11
5.52725
21
-4.4417
0
LINE
8
BLACK
6
CONTINUOUS
10
5.52725
20
-4.4417
11
5.52824
21
-4.44181
0
LINE
8
BLACK
6
CONTINUOUS
10
5.52824
20
-4.44181
11
5.55016
21
-4.44181
0
LINE
8
BLACK
6
CONTINUOUS
10
5.55016
20
-4.44181
11
5.55016
21
-4.44181
0
LINE
8
BLACK
6
CONTINUOUS
10
5.55016
20
-4.44181
11
5.55016
21
-4.43
0
LINE
8
BLACK
6
CONTINUOUS
10
5.55016
20
-4.43
11
5.53
21
-4.43
0
LINE
8
BLACK
6
CONTINUOUS
10
5.53
20
-4.43
11
5.53
21
-4.40984
0
LINE
8
BLACK
6
CONTINUOUS
10
5.53
20
-4.40984
11
5.51819
21
-4.40984
0
LINE
8
BLACK
6
CONTINUOUS
10
5.59
20
-4.43
11
5.56984
21
-4.43
0
LINE
8
BLACK
6
CONTINUOUS
10
5.56984
20
-4.43
11
5.56984
21
-4.44181
0
LINE
8
BLACK
6
CONTINUOUS
10
5.56984
20
-4.44181
11
5.59176
21
-4.44181
0
LINE
8
BLACK
6
CONTINUOUS
10
5.59176
20
-4.44181
11
5.59176
21
-4.44181
0
LINE
8
BLACK
6
CONTINUOUS
10
5.59176
20
-4.44181
11
5.59275
21
-4.4417
0
LINE
8
BLACK
6
CONTINUOUS
10
5.59275
20
-4.4417
11
5.59275
21
-4.4417
0
LINE
8
BLACK
6
CONTINUOUS
10
5.59275
20
-4.4417
11
5.59679
21
-4.43991
0
LINE
8
BLACK
6
CONTINUOUS
10
5.59679
20
-4.43991
11
5.59679
21
-4.43991
0
LINE
8
BLACK
6
CONTINUOUS
10
5.59679
20
-4.43991
11
5.59991
21
-4.43679
0
LINE
8
BLACK
6
CONTINUOUS
10
5.59991
20
-4.43679
11
5.59991
21
-4.43679
0
LINE
8
BLACK
6
CONTINUOUS
10
5.59991
20
-4.43679
11
5.6017
21
-4.43275
0
LINE
8
BLACK
6
CONTINUOUS
10
5.6017
20
-4.43275
11
5.6017
21
-4.43275
0
LINE
8
BLACK
6
CONTINUOUS
10
5.6017
20
-4.43275
11
5.60181
21
-4.43176
0
LINE
8
BLACK
6
CONTINUOUS
10
5.60181
20
-4.43176
11
5.60181
21
-4.43176
0
LINE
8
BLACK
6
CONTINUOUS
10
5.60181
20
-4.43176
11
5.60181
21
-4.40984
0
LINE
8
BLACK
6
CONTINUOUS
10
5.60181
20
-4.40984
11
5.59
21
-4.40984
0
LINE
8
BLACK
6
CONTINUOUS
10
5.59
20
-4.40984
11
5.59
21
-4.43
0
LINE
8
BLACK
6
CONTINUOUS
10
5.41817
20
-4.43177
11
5.41828
21
-4.43276
0
LINE
8
BLACK
6
CONTINUOUS
10
5.41828
20
-4.43276
11
5.41828
21
-4.43276
0
LINE
8
BLACK
6
CONTINUOUS
10
5.41828
20
-4.43276
11
5.42007
21
-4.4368
0
LINE
8
BLACK
6
CONTINUOUS
10
5.42007
20
-4.4368
11
5.42007
21
-4.4368
0
LINE
8
BLACK
6
CONTINUOUS
10
5.42007
20
-4.4368
11
5.42007
21
-4.4368
0
LINE
8
BLACK
6
CONTINUOUS
10
5.42007
20
-4.4368
11
5.4232
21
-4.43993
0
LINE
8
BLACK
6
CONTINUOUS
10
5.4232
20
-4.43993
11
5.42724
21
-4.44172
0
LINE
8
BLACK
6
CONTINUOUS
10
5.42724
20
-4.44172
11
5.42823
21
-4.44183
0
LINE
8
BLACK
6
CONTINUOUS
10
5.42823
20
-4.44183
11
5.49177
21
-4.44183
0
LINE
8
BLACK
6
CONTINUOUS
10
5.49177
20
-4.44183
11
5.49177
21
-4.44183
0
LINE
8
BLACK
6
CONTINUOUS
10
5.49177
20
-4.44183
11
5.49177
21
-4.44183
0
LINE
8
BLACK
6
CONTINUOUS
10
5.49177
20
-4.44183
11
5.49276
21
-4.44172
0
LINE
8
BLACK
6
CONTINUOUS
10
5.49276
20
-4.44172
11
5.49276
21
-4.44172
0
LINE
8
BLACK
6
CONTINUOUS
10
5.49276
20
-4.44172
11
5.49276
21
-4.44172
0
LINE
8
BLACK
6
CONTINUOUS
10
5.49276
20
-4.44172
11
5.4968
21
-4.43993
0
LINE
8
BLACK
6
CONTINUOUS
10
5.4968
20
-4.43993
11
5.49993
21
-4.4368
0
LINE
8
BLACK
6
CONTINUOUS
10
5.49993
20
-4.4368
11
5.50172
21
-4.43276
0
LINE
8
BLACK
6
CONTINUOUS
10
5.50172
20
-4.43276
11
5.50183
21
-4.43177
0
LINE
8
BLACK
6
CONTINUOUS
10
5.50183
20
-4.43177
11
5.50183
21
-4.39016
0
LINE
8
BLACK
6
CONTINUOUS
10
5.50183
20
-4.39016
11
5.50183
21
-4.36823
0
LINE
8
BLACK
6
CONTINUOUS
10
5.50183
20
-4.36823
11
5.50183
21
-4.36823
0
LINE
8
BLACK
6
CONTINUOUS
10
5.50183
20
-4.36823
11
5.50172
21
-4.36724
0
LINE
8
BLACK
6
CONTINUOUS
10
5.50172
20
-4.36724
11
5.50172
21
-4.36724
0
LINE
8
BLACK
6
CONTINUOUS
10
5.50172
20
-4.36724
11
5.50172
21
-4.36724
0
LINE
8
BLACK
6
CONTINUOUS
10
5.50172
20
-4.36724
11
5.49993
21
-4.3632
0
LINE
8
BLACK
6
CONTINUOUS
10
5.49993
20
-4.3632
11
5.4968
21
-4.36007
0
LINE
8
BLACK
6
CONTINUOUS
10
5.4968
20
-4.36007
11
5.49521
21
-4.35937
0
LINE
8
BLACK
6
CONTINUOUS
10
5.49521
20
-4.35937
11
5.49276
21
-4.35828
0
LINE
8
BLACK
6
CONTINUOUS
10
5.49276
20
-4.35828
11
5.49177
21
-4.35817
0
LINE
8
BLACK
6
CONTINUOUS
10
5.49177
20
-4.35817
11
5.42823
21
-4.35817
0
LINE
8
BLACK
6
CONTINUOUS
10
5.42823
20
-4.35817
11
5.42823
21
-4.35817
0
LINE
8
BLACK
6
CONTINUOUS
10
5.42823
20
-4.35817
11
5.42724
21
-4.35828
0
LINE
8
BLACK
6
CONTINUOUS
10
5.42724
20
-4.35828
11
5.42724
21
-4.35828
0
LINE
8
BLACK
6
CONTINUOUS
10
5.42724
20
-4.35828
11
5.4232
21
-4.36007
0
LINE
8
BLACK
6
CONTINUOUS
10
5.4232
20
-4.36007
11
5.42007
21
-4.3632
0
LINE
8
BLACK
6
CONTINUOUS
10
5.42007
20
-4.3632
11
5.41828
21
-4.36724
0
LINE
8
BLACK
6
CONTINUOUS
10
5.41828
20
-4.36724
11
5.41828
21
-4.36724
0
LINE
8
BLACK
6
CONTINUOUS
10
5.41828
20
-4.36724
11
5.41817
21
-4.36823
0
LINE
8
BLACK
6
CONTINUOUS
10
5.41817
20
-4.36823
11
5.41817
21
-4.43177
0
LINE
8
BLACK
6
CONTINUOUS
10
5.41817
20
-4.43177
11
5.41817
21
-4.43177
0
LINE
8
BLACK
6
CONTINUOUS
10
5.56984
20
-4.37
11
5.59
21
-4.37
0
LINE
8
BLACK
6
CONTINUOUS
10
5.59
20
-4.37
11
5.59
21
-4.39016
0
LINE
8
BLACK
6
CONTINUOUS
10
5.59
20
-4.39016
11
5.60181
21
-4.39016
0
LINE
8
BLACK
6
CONTINUOUS
10
5.60181
20
-4.39016
11
5.60181
21
-4.36824
0
LINE
8
BLACK
6
CONTINUOUS
10
5.60181
20
-4.36824
11
5.60181
21
-4.36824
0
LINE
8
BLACK
6
CONTINUOUS
10
5.60181
20
-4.36824
11
5.6017
21
-4.36725
0
LINE
8
BLACK
6
CONTINUOUS
10
5.6017
20
-4.36725
11
5.6017
21
-4.36725
0
LINE
8
BLACK
6
CONTINUOUS
10
5.6017
20
-4.36725
11
5.59991
21
-4.36321
0
LINE
8
BLACK
6
CONTINUOUS
10
5.59991
20
-4.36321
11
5.59991
21
-4.36321
0
LINE
8
BLACK
6
CONTINUOUS
10
5.59991
20
-4.36321
11
5.59679
21
-4.36009
0
LINE
8
BLACK
6
CONTINUOUS
10
5.59679
20
-4.36009
11
5.59679
21
-4.36009
0
LINE
8
BLACK
6
CONTINUOUS
10
5.59679
20
-4.36009
11
5.59275
21
-4.3583
0
LINE
8
BLACK
6
CONTINUOUS
10
5.59275
20
-4.3583
11
5.59176
21
-4.35819
0
LINE
8
BLACK
6
CONTINUOUS
10
5.59176
20
-4.35819
11
5.56984
21
-4.35819
0
LINE
8
BLACK
6
CONTINUOUS
10
5.56984
20
-4.35819
11
5.56984
21
-4.37
0
LINE
8
BLACK
6
CONTINUOUS
10
5.36984
20
-4.37
11
5.39
21
-4.37
0
LINE
8
BLACK
6
CONTINUOUS
10
5.39
20
-4.37
11
5.39
21
-4.39016
0
LINE
8
BLACK
6
CONTINUOUS
10
5.39
20
-4.39016
11
5.40181
21
-4.39016
0
LINE
8
BLACK
6
CONTINUOUS
10
5.40181
20
-4.39016
11
5.40181
21
-4.36824
0
LINE
8
BLACK
6
CONTINUOUS
10
5.40181
20
-4.36824
11
5.40181
21
-4.36824
0
LINE
8
BLACK
6
CONTINUOUS
10
5.40181
20
-4.36824
11
5.4017
21
-4.36725
0
LINE
8
BLACK
6
CONTINUOUS
10
5.4017
20
-4.36725
11
5.4017
21
-4.36725
0
LINE
8
BLACK
6
CONTINUOUS
10
5.4017
20
-4.36725
11
5.39991
21
-4.36321
0
LINE
8
BLACK
6
CONTINUOUS
10
5.39991
20
-4.36321
11
5.39991
21
-4.36321
0
LINE
8
BLACK
6
CONTINUOUS
10
5.39991
20
-4.36321
11
5.39679
21
-4.36009
0
LINE
8
BLACK
6
CONTINUOUS
10
5.39679
20
-4.36009
11
5.39679
21
-4.36009
0
LINE
8
BLACK
6
CONTINUOUS
10
5.39679
20
-4.36009
11
5.39275
21
-4.3583
0
LINE
8
BLACK
6
CONTINUOUS
10
5.39275
20
-4.3583
11
5.39176
21
-4.35819
0
LINE
8
BLACK
6
CONTINUOUS
10
5.39176
20
-4.35819
11
5.36984
21
-4.35819
0
LINE
8
BLACK
6
CONTINUOUS
10
5.36984
20
-4.35819
11
5.36984
21
-4.37
0
LINE
8
BLACK
6
CONTINUOUS
10
5.21181
20
-4.04176
11
5.21181
21
-4.04176
0
LINE
8
BLACK
6
CONTINUOUS
10
5.21181
20
-4.04176
11
5.21181
21
-4.01984
0
LINE
8
BLACK
6
CONTINUOUS
10
5.21181
20
-4.01984
11
5.2
21
-4.01984
0
LINE
8
BLACK
6
CONTINUOUS
10
5.2
20
-4.01984
11
5.2
21
-4.04
0
LINE
8
BLACK
6
CONTINUOUS
10
5.2
20
-4.04
11
5.17984
21
-4.04
0
LINE
8
BLACK
6
CONTINUOUS
10
5.17984
20
-4.04
11
5.17984
21
-4.05181
0
LINE
8
BLACK
6
CONTINUOUS
10
5.17984
20
-4.05181
11
5.17984
21
-4.05181
0
LINE
8
BLACK
6
CONTINUOUS
10
5.17984
20
-4.05181
11
5.20176
21
-4.05181
0
LINE
8
BLACK
6
CONTINUOUS
10
5.20176
20
-4.05181
11
5.20176
21
-4.05181
0
LINE
8
BLACK
6
CONTINUOUS
10
5.20176
20
-4.05181
11
5.20275
21
-4.0517
0
LINE
8
BLACK
6
CONTINUOUS
10
5.20275
20
-4.0517
11
5.20275
21
-4.0517
0
LINE
8
BLACK
6
CONTINUOUS
10
5.20275
20
-4.0517
11
5.20679
21
-4.04991
0
LINE
8
BLACK
6
CONTINUOUS
10
5.20679
20
-4.04991
11
5.20679
21
-4.04991
0
LINE
8
BLACK
6
CONTINUOUS
10
5.20679
20
-4.04991
11
5.20991
21
-4.04679
0
LINE
8
BLACK
6
CONTINUOUS
10
5.20991
20
-4.04679
11
5.20991
21
-4.04679
0
LINE
8
BLACK
6
CONTINUOUS
10
5.20991
20
-4.04679
11
5.2117
21
-4.04275
0
LINE
8
BLACK
6
CONTINUOUS
10
5.2117
20
-4.04275
11
5.2117
21
-4.04275
0
LINE
8
BLACK
6
CONTINUOUS
10
5.2117
20
-4.04275
11
5.21181
21
-4.04177
0
LINE
8
BLACK
6
CONTINUOUS
10
5.21181
20
-4.04177
11
5.21181
21
-4.04176
0
LINE
8
BLACK
6
CONTINUOUS
10
5.32817
20
-4.04177
11
5.32828
21
-4.04276
0
LINE
8
BLACK
6
CONTINUOUS
10
5.32828
20
-4.04276
11
5.32828
21
-4.04276
0
LINE
8
BLACK
6
CONTINUOUS
10
5.32828
20
-4.04276
11
5.33007
21
-4.0468
0
LINE
8
BLACK
6
CONTINUOUS
10
5.33007
20
-4.0468
11
5.33007
21
-4.0468
0
LINE
8
BLACK
6
CONTINUOUS
10
5.33007
20
-4.0468
11
5.3332
21
-4.04993
0
LINE
8
BLACK
6
CONTINUOUS
10
5.3332
20
-4.04993
11
5.33724
21
-4.05172
0
LINE
8
BLACK
6
CONTINUOUS
10
5.33724
20
-4.05172
11
5.33823
21
-4.05183
0
LINE
8
BLACK
6
CONTINUOUS
10
5.33823
20
-4.05183
11
5.34329
21
-4.05183
0
LINE
8
BLACK
6
CONTINUOUS
10
5.34329
20
-4.05183
11
5.34593
21
-4.05261
0
LINE
8
BLACK
6
CONTINUOUS
10
5.34593
20
-4.05261
11
5.34773
21
-4.05468
0
LINE
8
BLACK
6
CONTINUOUS
10
5.34773
20
-4.05468
11
5.34817
21
-4.05671
0
LINE
8
BLACK
6
CONTINUOUS
10
5.34817
20
-4.05671
11
5.34817
21
-4.11963
0
LINE
8
BLACK
6
CONTINUOUS
10
5.34817
20
-4.11963
11
5.34808
21
-4.12225
0
LINE
8
BLACK
6
CONTINUOUS
10
5.34808
20
-4.12225
11
5.3485
21
-4.12396
0
LINE
8
BLACK
6
CONTINUOUS
10
5.3485
20
-4.12396
11
5.34854
21
-4.12421
0
LINE
8
BLACK
6
CONTINUOUS
10
5.34854
20
-4.12421
11
5.34878
21
-4.12595
0
LINE
8
BLACK
6
CONTINUOUS
10
5.34878
20
-4.12595
11
5.34907
21
-4.1266
0
LINE
8
BLACK
6
CONTINUOUS
10
5.34907
20
-4.1266
11
5.34933
21
-4.12739
0
LINE
8
BLACK
6
CONTINUOUS
10
5.34933
20
-4.12739
11
5.3495
21
-4.12808
0
LINE
8
BLACK
6
CONTINUOUS
10
5.3495
20
-4.12808
11
5.3495
21
-4.12808
0
LINE
8
BLACK
6
CONTINUOUS
10
5.3495
20
-4.12808
11
5.35036
21
-4.12961
0
LINE
8
BLACK
6
CONTINUOUS
10
5.35036
20
-4.12961
11
5.35047
21
-4.12984
0
LINE
8
BLACK
6
CONTINUOUS
10
5.35047
20
-4.12984
11
5.35117
21
-4.13145
0
LINE
8
BLACK
6
CONTINUOUS
10
5.35117
20
-4.13145
11
5.35117
21
-4.13145
0
LINE
8
BLACK
6
CONTINUOUS
10
5.35117
20
-4.13145
11
5.35162
21
-4.132
0
LINE
8
BLACK
6
CONTINUOUS
10
5.35162
20
-4.132
11
5.35209
21
-4.13269
0
LINE
8
BLACK
6
CONTINUOUS
10
5.35209
20
-4.13269
11
5.35244
21
-4.13331
0
LINE
8
BLACK
6
CONTINUOUS
10
5.35244
20
-4.13331
11
5.35244
21
-4.13332
0
LINE
8
BLACK
6
CONTINUOUS
10
5.35244
20
-4.13332
11
5.35368
21
-4.13456
0
LINE
8
BLACK
6
CONTINUOUS
10
5.35368
20
-4.13456
11
5.35385
21
-4.13474
0
LINE
8
BLACK
6
CONTINUOUS
10
5.35385
20
-4.13474
11
5.35496
21
-4.1361
0
LINE
8
BLACK
6
CONTINUOUS
10
5.35496
20
-4.1361
11
5.35554
21
-4.13652
0
LINE
8
BLACK
6
CONTINUOUS
10
5.35554
20
-4.13652
11
5.35618
21
-4.13705
0
LINE
8
BLACK
6
CONTINUOUS
10
5.35618
20
-4.13705
11
5.43605
21
-4.21692
0
LINE
8
BLACK
6
CONTINUOUS
10
5.43605
20
-4.21692
11
5.43737
21
-4.21934
0
LINE
8
BLACK
6
CONTINUOUS
10
5.43737
20
-4.21934
11
5.43717
21
-4.22208
0
LINE
8
BLACK
6
CONTINUOUS
10
5.43717
20
-4.22208
11
5.43662
21
-4.22315
0
LINE
8
BLACK
6
CONTINUOUS
10
5.43662
20
-4.22315
11
5.4365
21
-4.22331
0
LINE
8
BLACK
6
CONTINUOUS
10
5.4365
20
-4.22331
11
5.4365
21
-4.22331
0
LINE
8
BLACK
6
CONTINUOUS
10
5.4365
20
-4.22331
11
5.43413
21
-4.22957
0
LINE
8
BLACK
6
CONTINUOUS
10
5.43413
20
-4.22957
11
5.43413
21
-4.22957
0
LINE
8
BLACK
6
CONTINUOUS
10
5.43413
20
-4.22957
11
5.43332
21
-4.23622
0
LINE
8
BLACK
6
CONTINUOUS
10
5.43332
20
-4.23622
11
5.43413
21
-4.24287
0
LINE
8
BLACK
6
CONTINUOUS
10
5.43413
20
-4.24287
11
5.43413
21
-4.24287
0
LINE
8
BLACK
6
CONTINUOUS
10
5.43413
20
-4.24287
11
5.4365
21
-4.24913
0
LINE
8
BLACK
6
CONTINUOUS
10
5.4365
20
-4.24913
11
5.43896
21
-4.25268
0
LINE
8
BLACK
6
CONTINUOUS
10
5.43896
20
-4.25268
11
5.44031
21
-4.25464
0
LINE
8
BLACK
6
CONTINUOUS
10
5.44031
20
-4.25464
11
5.44447
21
-4.25833
0
LINE
8
BLACK
6
CONTINUOUS
10
5.44447
20
-4.25833
11
5.44532
21
-4.25908
0
LINE
8
BLACK
6
CONTINUOUS
10
5.44532
20
-4.25908
11
5.45125
21
-4.2622
0
LINE
8
BLACK
6
CONTINUOUS
10
5.45125
20
-4.2622
11
5.45125
21
-4.2622
0
LINE
8
BLACK
6
CONTINUOUS
10
5.45125
20
-4.2622
11
5.45775
21
-4.2638
0
LINE
8
BLACK
6
CONTINUOUS
10
5.45775
20
-4.2638
11
5.46445
21
-4.2638
0
LINE
8
BLACK
6
CONTINUOUS
10
5.46445
20
-4.2638
11
5.47095
21
-4.2622
0
LINE
8
BLACK
6
CONTINUOUS
10
5.47095
20
-4.2622
11
5.47408
21
-4.26055
0
LINE
8
BLACK
6
CONTINUOUS
10
5.47408
20
-4.26055
11
5.47688
21
-4.25908
0
LINE
8
BLACK
6
CONTINUOUS
10
5.47688
20
-4.25908
11
5.47688
21
-4.25908
0
LINE
8
BLACK
6
CONTINUOUS
10
5.47688
20
-4.25908
11
5.47688
21
-4.25908
0
LINE
8
BLACK
6
CONTINUOUS
10
5.47688
20
-4.25908
11
5.4819
21
-4.25464
0
LINE
8
BLACK
6
CONTINUOUS
10
5.4819
20
-4.25464
11
5.4857
21
-4.24913
0
LINE
8
BLACK
6
CONTINUOUS
10
5.4857
20
-4.24913
11
5.48808
21
-4.24287
0
LINE
8
BLACK
6
CONTINUOUS
10
5.48808
20
-4.24287
11
5.48888
21
-4.23622
0
LINE
8
BLACK
6
CONTINUOUS
10
5.48888
20
-4.23622
11
5.48808
21
-4.22957
0
LINE
8
BLACK
6
CONTINUOUS
10
5.48808
20
-4.22957
11
5.4857
21
-4.22331
0
LINE
8
BLACK
6
CONTINUOUS
10
5.4857
20
-4.22331
11
5.4857
21
-4.22331
0
LINE
8
BLACK
6
CONTINUOUS
10
5.4857
20
-4.22331
11
5.4838
21
-4.22055
0
LINE
8
BLACK
6
CONTINUOUS
10
5.4838
20
-4.22055
11
5.48294
21
-4.21794
0
LINE
8
BLACK
6
CONTINUOUS
10
5.48294
20
-4.21794
11
5.48293
21
-4.21778
0
LINE
8
BLACK
6
CONTINUOUS
10
5.48293
20
-4.21778
11
5.48293
21
-4.21147
0
LINE
8
BLACK
6
CONTINUOUS
10
5.48293
20
-4.21147
11
5.48294
21
-4.21139
0
LINE
8
BLACK
6
CONTINUOUS
10
5.48294
20
-4.21139
11
5.48302
21
-4.20885
0
LINE
8
BLACK
6
CONTINUOUS
10
5.48302
20
-4.20885
11
5.48261
21
-4.20714
0
LINE
8
BLACK
6
CONTINUOUS
10
5.48261
20
-4.20714
11
5.48256
21
-4.2069
0
LINE
8
BLACK
6
CONTINUOUS
10
5.48256
20
-4.2069
11
5.48232
21
-4.20516
0
LINE
8
BLACK
6
CONTINUOUS
10
5.48232
20
-4.20516
11
5.48204
21
-4.2045
0
LINE
8
BLACK
6
CONTINUOUS
10
5.48204
20
-4.2045
11
5.48177
21
-4.20371
0
LINE
8
BLACK
6
CONTINUOUS
10
5.48177
20
-4.20371
11
5.4816
21
-4.20302
0
LINE
8
BLACK
6
CONTINUOUS
10
5.4816
20
-4.20302
11
5.48074
21
-4.20149
0
LINE
8
BLACK
6
CONTINUOUS
10
5.48074
20
-4.20149
11
5.48063
21
-4.20126
0
LINE
8
BLACK
6
CONTINUOUS
10
5.48063
20
-4.20126
11
5.47993
21
-4.19965
0
LINE
8
BLACK
6
CONTINUOUS
10
5.47993
20
-4.19965
11
5.47948
21
-4.1991
0
LINE
8
BLACK
6
CONTINUOUS
10
5.47948
20
-4.1991
11
5.47901
21
-4.19841
0
LINE
8
BLACK
6
CONTINUOUS
10
5.47901
20
-4.19841
11
5.47866
21
-4.19779
0
LINE
8
BLACK
6
CONTINUOUS
10
5.47866
20
-4.19779
11
5.47866
21
-4.19779
0
LINE
8
BLACK
6
CONTINUOUS
10
5.47866
20
-4.19779
11
5.47742
21
-4.19655
0
LINE
8
BLACK
6
CONTINUOUS
10
5.47742
20
-4.19655
11
5.47725
21
-4.19636
0
LINE
8
BLACK
6
CONTINUOUS
10
5.47725
20
-4.19636
11
5.47614
21
-4.195
0
LINE
8
BLACK
6
CONTINUOUS
10
5.47614
20
-4.195
11
5.47556
21
-4.19459
0
LINE
8
BLACK
6
CONTINUOUS
10
5.47556
20
-4.19459
11
5.47492
21
-4.19405
0
LINE
8
BLACK
6
CONTINUOUS
10
5.47492
20
-4.19405
11
5.39326
21
-4.11239
0
LINE
8
BLACK
6
CONTINUOUS
10
5.39326
20
-4.11239
11
5.39194
21
-4.10997
0
LINE
8
BLACK
6
CONTINUOUS
10
5.39194
20
-4.10997
11
5.39183
21
-4.10894
0
LINE
8
BLACK
6
CONTINUOUS
10
5.39183
20
-4.10894
11
5.39183
21
-4.05671
0
LINE
8
BLACK
6
CONTINUOUS
10
5.39183
20
-4.05671
11
5.39261
21
-4.05407
0
LINE
8
BLACK
6
CONTINUOUS
10
5.39261
20
-4.05407
11
5.39468
21
-4.05227
0
LINE
8
BLACK
6
CONTINUOUS
10
5.39468
20
-4.05227
11
5.39671
21
-4.05183
0
LINE
8
BLACK
6
CONTINUOUS
10
5.39671
20
-4.05183
11
5.40177
21
-4.05183
0
LINE
8
BLACK
6
CONTINUOUS
10
5.40177
20
-4.05183
11
5.40177
21
-4.05183
0
LINE
8
BLACK
6
CONTINUOUS
10
5.40177
20
-4.05183
11
5.40177
21
-4.05183
0
LINE
8
BLACK
6
CONTINUOUS
10
5.40177
20
-4.05183
11
5.40177
21
-4.05183
0
LINE
8
BLACK
6
CONTINUOUS
10
5.40177
20
-4.05183
11
5.40276
21
-4.05172
0
LINE
8
BLACK
6
CONTINUOUS
10
5.40276
20
-4.05172
11
5.40276
21
-4.05172
0
LINE
8
BLACK
6
CONTINUOUS
10
5.40276
20
-4.05172
11
5.40276
21
-4.05172
0
LINE
8
BLACK
6
CONTINUOUS
10
5.40276
20
-4.05172
11
5.4068
21
-4.04993
0
LINE
8
BLACK
6
CONTINUOUS
10
5.4068
20
-4.04993
11
5.40993
21
-4.0468
0
LINE
8
BLACK
6
CONTINUOUS
10
5.40993
20
-4.0468
11
5.41172
21
-4.04276
0
LINE
8
BLACK
6
CONTINUOUS
10
5.41172
20
-4.04276
11
5.41183
21
-4.04177
0
LINE
8
BLACK
6
CONTINUOUS
10
5.41183
20
-4.04177
11
5.41183
21
-4.04177
0
LINE
8
BLACK
6
CONTINUOUS
10
5.41183
20
-4.04177
11
5.41183
21
-3.97823
0
LINE
8
BLACK
6
CONTINUOUS
10
5.41183
20
-3.97823
11
5.41183
21
-3.97823
0
LINE
8
BLACK
6
CONTINUOUS
10
5.41183
20
-3.97823
11
5.41172
21
-3.97724
0
LINE
8
BLACK
6
CONTINUOUS
10
5.41172
20
-3.97724
11
5.41172
21
-3.97724
0
LINE
8
BLACK
6
CONTINUOUS
10
5.41172
20
-3.97724
11
5.41172
21
-3.97724
0
LINE
8
BLACK
6
CONTINUOUS
10
5.41172
20
-3.97724
11
5.40993
21
-3.9732
0
LINE
8
BLACK
6
CONTINUOUS
10
5.40993
20
-3.9732
11
5.4068
21
-3.97007
0
LINE
8
BLACK
6
CONTINUOUS
10
5.4068
20
-3.97007
11
5.4068
21
-3.97007
0
LINE
8
BLACK
6
CONTINUOUS
10
5.4068
20
-3.97007
11
5.40276
21
-3.96828
0
LINE
8
BLACK
6
CONTINUOUS
10
5.40276
20
-3.96828
11
5.40177
21
-3.96817
0
LINE
8
BLACK
6
CONTINUOUS
10
5.40177
20
-3.96817
11
5.33823
21
-3.96817
0
LINE
8
BLACK
6
CONTINUOUS
10
5.33823
20
-3.96817
11
5.33823
21
-3.96817
0
LINE
8
BLACK
6
CONTINUOUS
10
5.33823
20
-3.96817
11
5.33724
21
-3.96828
0
LINE
8
BLACK
6
CONTINUOUS
10
5.33724
20
-3.96828
11
5.33724
21
-3.96828
0
LINE
8
BLACK
6
CONTINUOUS
10
5.33724
20
-3.96828
11
5.3332
21
-3.97007
0
LINE
8
BLACK
6
CONTINUOUS
10
5.3332
20
-3.97007
11
5.33007
21
-3.9732
0
LINE
8
BLACK
6
CONTINUOUS
10
5.33007
20
-3.9732
11
5.32828
21
-3.97724
0
LINE
8
BLACK
6
CONTINUOUS
10
5.32828
20
-3.97724
11
5.32828
21
-3.97724
0
LINE
8
BLACK
6
CONTINUOUS
10
5.32828
20
-3.97724
11
5.32817
21
-3.97823
0
LINE
8
BLACK
6
CONTINUOUS
10
5.32817
20
-3.97823
11
5.32817
21
-4.04177
0
LINE
8
BLACK
6
CONTINUOUS
10
5.32817
20
-4.04177
11
5.32817
21
-4.04177
0
LINE
8
BLACK
6
CONTINUOUS
10
4.84823
20
-3.96817
11
4.84724
21
-3.96828
0
LINE
8
BLACK
6
CONTINUOUS
10
4.84724
20
-3.96828
11
4.84724
21
-3.96828
0
LINE
8
BLACK
6
CONTINUOUS
10
4.84724
20
-3.96828
11
4.8432
21
-3.97007
0
LINE
8
BLACK
6
CONTINUOUS
10
4.8432
20
-3.97007
11
4.84007
21
-3.9732
0
LINE
8
BLACK
6
CONTINUOUS
10
4.84007
20
-3.9732
11
4.83828
21
-3.97724
0
LINE
8
BLACK
6
CONTINUOUS
10
4.83828
20
-3.97724
11
4.83828
21
-3.97724
0
LINE
8
BLACK
6
CONTINUOUS
10
4.83828
20
-3.97724
11
4.83817
21
-3.97823
0
LINE
8
BLACK
6
CONTINUOUS
10
4.83817
20
-3.97823
11
4.83817
21
-4.04177
0
LINE
8
BLACK
6
CONTINUOUS
10
4.83817
20
-4.04177
11
4.83817
21
-4.04177
0
LINE
8
BLACK
6
CONTINUOUS
10
4.83817
20
-4.04177
11
4.83828
21
-4.04276
0
LINE
8
BLACK
6
CONTINUOUS
10
4.83828
20
-4.04276
11
4.83828
21
-4.04276
0
LINE
8
BLACK
6
CONTINUOUS
10
4.83828
20
-4.04276
11
4.84007
21
-4.0468
0
LINE
8
BLACK
6
CONTINUOUS
10
4.84007
20
-4.0468
11
4.84007
21
-4.0468
0
LINE
8
BLACK
6
CONTINUOUS
10
4.84007
20
-4.0468
11
4.8432
21
-4.04993
0
LINE
8
BLACK
6
CONTINUOUS
10
4.8432
20
-4.04993
11
4.84724
21
-4.05172
0
LINE
8
BLACK
6
CONTINUOUS
10
4.84724
20
-4.05172
11
4.84823
21
-4.05183
0
LINE
8
BLACK
6
CONTINUOUS
10
4.84823
20
-4.05183
11
4.91177
21
-4.05183
0
LINE
8
BLACK
6
CONTINUOUS
10
4.91177
20
-4.05183
11
4.91177
21
-4.05183
0
LINE
8
BLACK
6
CONTINUOUS
10
4.91177
20
-4.05183
11
4.91177
21
-4.05183
0
LINE
8
BLACK
6
CONTINUOUS
10
4.91177
20
-4.05183
11
4.91276
21
-4.05172
0
LINE
8
BLACK
6
CONTINUOUS
10
4.91276
20
-4.05172
11
4.91276
21
-4.05172
0
LINE
8
BLACK
6
CONTINUOUS
10
4.91276
20
-4.05172
11
4.91276
21
-4.05172
0
LINE
8
BLACK
6
CONTINUOUS
10
4.91276
20
-4.05172
11
4.9168
21
-4.04993
0
LINE
8
BLACK
6
CONTINUOUS
10
4.9168
20
-4.04993
11
4.91993
21
-4.0468
0
LINE
8
BLACK
6
CONTINUOUS
10
4.91993
20
-4.0468
11
4.92172
21
-4.04276
0
LINE
8
BLACK
6
CONTINUOUS
10
4.92172
20
-4.04276
11
4.92183
21
-4.04177
0
LINE
8
BLACK
6
CONTINUOUS
10
4.92183
20
-4.04177
11
4.92183
21
-4.04177
0
LINE
8
BLACK
6
CONTINUOUS
10
4.92183
20
-4.04177
11
4.92183
21
-3.97823
0
LINE
8
BLACK
6
CONTINUOUS
10
4.92183
20
-3.97823
11
4.92183
21
-3.97823
0
LINE
8
BLACK
6
CONTINUOUS
10
4.92183
20
-3.97823
11
4.92172
21
-3.97724
0
LINE
8
BLACK
6
CONTINUOUS
10
4.92172
20
-3.97724
11
4.92172
21
-3.97724
0
LINE
8
BLACK
6
CONTINUOUS
10
4.92172
20
-3.97724
11
4.92172
21
-3.97724
0
LINE
8
BLACK
6
CONTINUOUS
10
4.92172
20
-3.97724
11
4.91993
21
-3.9732
0
LINE
8
BLACK
6
CONTINUOUS
10
4.91993
20
-3.9732
11
4.9168
21
-3.97007
0
LINE
8
BLACK
6
CONTINUOUS
10
4.9168
20
-3.97007
11
4.9168
21
-3.97007
0
LINE
8
BLACK
6
CONTINUOUS
10
4.9168
20
-3.97007
11
4.91276
21
-3.96828
0
LINE
8
BLACK
6
CONTINUOUS
10
4.91276
20
-3.96828
11
4.91177
21
-3.96817
0
LINE
8
BLACK
6
CONTINUOUS
10
4.91177
20
-3.96817
11
4.84823
21
-3.96817
0
LINE
8
BLACK
6
CONTINUOUS
10
4.84823
20
-3.96817
11
4.84823
21
-3.96817
0
LINE
8
BLACK
6
CONTINUOUS
10
5.12819
20
-4.01984
11
5.12819
21
-4.04176
0
LINE
8
BLACK
6
CONTINUOUS
10
5.12819
20
-4.04176
11
5.12819
21
-4.04176
0
LINE
8
BLACK
6
CONTINUOUS
10
5.12819
20
-4.04176
11
5.1283
21
-4.04275
0
LINE
8
BLACK
6
CONTINUOUS
10
5.1283
20
-4.04275
11
5.1283
21
-4.04275
0
LINE
8
BLACK
6
CONTINUOUS
10
5.1283
20
-4.04275
11
5.13009
21
-4.04679
0
LINE
8
BLACK
6
CONTINUOUS
10
5.13009
20
-4.04679
11
5.13009
21
-4.04679
0
LINE
8
BLACK
6
CONTINUOUS
10
5.13009
20
-4.04679
11
5.13321
21
-4.04991
0
LINE
8
BLACK
6
CONTINUOUS
10
5.13321
20
-4.04991
11
5.13321
21
-4.04991
0
LINE
8
BLACK
6
CONTINUOUS
10
5.13321
20
-4.04991
11
5.13725
21
-4.0517
0
LINE
8
BLACK
6
CONTINUOUS
10
5.13725
20
-4.0517
11
5.13824
21
-4.05181
0
LINE
8
BLACK
6
CONTINUOUS
10
5.13824
20
-4.05181
11
5.16016
21
-4.05181
0
LINE
8
BLACK
6
CONTINUOUS
10
5.16016
20
-4.05181
11
5.16016
21
-4.05181
0
LINE
8
BLACK
6
CONTINUOUS
10
5.16016
20
-4.05181
11
5.16016
21
-4.04
0
LINE
8
BLACK
6
CONTINUOUS
10
5.16016
20
-4.04
11
5.14
21
-4.04
0
LINE
8
BLACK
6
CONTINUOUS
10
5.14
20
-4.04
11
5.14
21
-4.01984
0
LINE
8
BLACK
6
CONTINUOUS
10
5.14
20
-4.01984
11
5.12819
21
-4.01984
0
LINE
8
BLACK
6
CONTINUOUS
10
5.52819
20
-4.01984
11
5.52819
21
-4.04176
0
LINE
8
BLACK
6
CONTINUOUS
10
5.52819
20
-4.04176
11
5.52819
21
-4.04176
0
LINE
8
BLACK
6
CONTINUOUS
10
5.52819
20
-4.04176
11
5.5283
21
-4.04275
0
LINE
8
BLACK
6
CONTINUOUS
10
5.5283
20
-4.04275
11
5.5283
21
-4.04275
0
LINE
8
BLACK
6
CONTINUOUS
10
5.5283
20
-4.04275
11
5.53009
21
-4.04679
0
LINE
8
BLACK
6
CONTINUOUS
10
5.53009
20
-4.04679
11
5.53009
21
-4.04679
0
LINE
8
BLACK
6
CONTINUOUS
10
5.53009
20
-4.04679
11
5.53321
21
-4.04991
0
LINE
8
BLACK
6
CONTINUOUS
10
5.53321
20
-4.04991
11
5.53321
21
-4.04991
0
LINE
8
BLACK
6
CONTINUOUS
10
5.53321
20
-4.04991
11
5.53725
21
-4.0517
0
LINE
8
BLACK
6
CONTINUOUS
10
5.53725
20
-4.0517
11
5.53824
21
-4.05181
0
LINE
8
BLACK
6
CONTINUOUS
10
5.53824
20
-4.05181
11
5.56016
21
-4.05181
0
LINE
8
BLACK
6
CONTINUOUS
10
5.56016
20
-4.05181
11
5.56016
21
-4.05181
0
LINE
8
BLACK
6
CONTINUOUS
10
5.56016
20
-4.05181
11
5.56016
21
-4.04
0
LINE
8
BLACK
6
CONTINUOUS
10
5.56016
20
-4.04
11
5.54
21
-4.04
0
LINE
8
BLACK
6
CONTINUOUS
10
5.54
20
-4.04
11
5.54
21
-4.01984
0
LINE
8
BLACK
6
CONTINUOUS
10
5.54
20
-4.01984
11
5.52819
21
-4.01984
0
LINE
8
BLACK
6
CONTINUOUS
10
5.6
20
-4.04
11
5.57984
21
-4.04
0
LINE
8
BLACK
6
CONTINUOUS
10
5.57984
20
-4.04
11
5.57984
21
-4.05181
0
LINE
8
BLACK
6
CONTINUOUS
10
5.57984
20
-4.05181
11
5.60176
21
-4.05181
0
LINE
8
BLACK
6
CONTINUOUS
10
5.60176
20
-4.05181
11
5.60176
21
-4.05181
0
LINE
8
BLACK
6
CONTINUOUS
10
5.60176
20
-4.05181
11
5.60275
21
-4.0517
0
LINE
8
BLACK
6
CONTINUOUS
10
5.60275
20
-4.0517
11
5.60275
21
-4.0517
0
LINE
8
BLACK
6
CONTINUOUS
10
5.60275
20
-4.0517
11
5.60679
21
-4.04991
0
LINE
8
BLACK
6
CONTINUOUS
10
5.60679
20
-4.04991
11
5.60679
21
-4.04991
0
LINE
8
BLACK
6
CONTINUOUS
10
5.60679
20
-4.04991
11
5.60991
21
-4.04679
0
LINE
8
BLACK
6
CONTINUOUS
10
5.60991
20
-4.04679
11
5.60991
21
-4.04679
0
LINE
8
BLACK
6
CONTINUOUS
10
5.60991
20
-4.04679
11
5.6117
21
-4.04275
0
LINE
8
BLACK
6
CONTINUOUS
10
5.6117
20
-4.04275
11
5.6117
21
-4.04275
0
LINE
8
BLACK
6
CONTINUOUS
10
5.6117
20
-4.04275
11
5.61181
21
-4.04176
0
LINE
8
BLACK
6
CONTINUOUS
10
5.61181
20
-4.04176
11
5.61181
21
-4.04176
0
LINE
8
BLACK
6
CONTINUOUS
10
5.61181
20
-4.04176
11
5.61181
21
-4.01984
0
LINE
8
BLACK
6
CONTINUOUS
10
5.61181
20
-4.01984
11
5.6
21
-4.01984
0
LINE
8
BLACK
6
CONTINUOUS
10
5.6
20
-4.01984
11
5.6
21
-4.04
0
LINE
8
BLACK
6
CONTINUOUS
10
4.93817
20
-4.04177
11
4.93828
21
-4.04276
0
LINE
8
BLACK
6
CONTINUOUS
10
4.93828
20
-4.04276
11
4.93828
21
-4.04276
0
LINE
8
BLACK
6
CONTINUOUS
10
4.93828
20
-4.04276
11
4.94007
21
-4.0468
0
LINE
8
BLACK
6
CONTINUOUS
10
4.94007
20
-4.0468
11
4.94007
21
-4.0468
0
LINE
8
BLACK
6
CONTINUOUS
10
4.94007
20
-4.0468
11
4.94007
21
-4.0468
0
LINE
8
BLACK
6
CONTINUOUS
10
4.94007
20
-4.0468
11
4.9432
21
-4.04993
0
LINE
8
BLACK
6
CONTINUOUS
10
4.9432
20
-4.04993
11
4.94724
21
-4.05172
0
LINE
8
BLACK
6
CONTINUOUS
10
4.94724
20
-4.05172
11
4.94823
21
-4.05183
0
LINE
8
BLACK
6
CONTINUOUS
10
4.94823
20
-4.05183
11
5.01177
21
-4.05183
0
LINE
8
BLACK
6
CONTINUOUS
10
5.01177
20
-4.05183
11
5.01177
21
-4.05183
0
LINE
8
BLACK
6
CONTINUOUS
10
5.01177
20
-4.05183
11
5.01177
21
-4.05183
0
LINE
8
BLACK
6
CONTINUOUS
10
5.01177
20
-4.05183
11
5.01276
21
-4.05172
0
LINE
8
BLACK
6
CONTINUOUS
10
5.01276
20
-4.05172
11
5.01276
21
-4.05172
0
LINE
8
BLACK
6
CONTINUOUS
10
5.01276
20
-4.05172
11
5.01276
21
-4.05172
0
LINE
8
BLACK
6
CONTINUOUS
10
5.01276
20
-4.05172
11
5.0168
21
-4.04993
0
LINE
8
BLACK
6
CONTINUOUS
10
5.0168
20
-4.04993
11
5.01993
21
-4.0468
0
LINE
8
BLACK
6
CONTINUOUS
10
5.01993
20
-4.0468
11
5.02172
21
-4.04276
0
LINE
8
BLACK
6
CONTINUOUS
10
5.02172
20
-4.04276
11
5.02183
21
-4.04177
0
LINE
8
BLACK
6
CONTINUOUS
10
5.02183
20
-4.04177
11
5.02183
21
-4.00016
0
LINE
8
BLACK
6
CONTINUOUS
10
5.02183
20
-4.00016
11
5.02183
21
-3.97823
0
LINE
8
BLACK
6
CONTINUOUS
10
5.02183
20
-3.97823
11
5.02183
21
-3.97823
0
LINE
8
BLACK
6
CONTINUOUS
10
5.02183
20
-3.97823
11
5.02172
21
-3.97724
0
LINE
8
BLACK
6
CONTINUOUS
10
5.02172
20
-3.97724
11
5.02172
21
-3.97724
0
LINE
8
BLACK
6
CONTINUOUS
10
5.02172
20
-3.97724
11
5.02172
21
-3.97724
0
LINE
8
BLACK
6
CONTINUOUS
10
5.02172
20
-3.97724
11
5.01993
21
-3.9732
0
LINE
8
BLACK
6
CONTINUOUS
10
5.01993
20
-3.9732
11
5.0168
21
-3.97007
0
LINE
8
BLACK
6
CONTINUOUS
10
5.0168
20
-3.97007
11
5.0168
21
-3.97007
0
LINE
8
BLACK
6
CONTINUOUS
10
5.0168
20
-3.97007
11
5.01276
21
-3.96828
0
LINE
8
BLACK
6
CONTINUOUS
10
5.01276
20
-3.96828
11
5.01177
21
-3.96817
0
LINE
8
BLACK
6
CONTINUOUS
10
5.01177
20
-3.96817
11
4.94823
21
-3.96817
0
LINE
8
BLACK
6
CONTINUOUS
10
4.94823
20
-3.96817
11
4.94823
21
-3.96817
0
LINE
8
BLACK
6
CONTINUOUS
10
4.94823
20
-3.96817
11
4.94724
21
-3.96828
0
LINE
8
BLACK
6
CONTINUOUS
10
4.94724
20
-3.96828
11
4.94724
21
-3.96828
0
LINE
8
BLACK
6
CONTINUOUS
10
4.94724
20
-3.96828
11
4.9432
21
-3.97007
0
LINE
8
BLACK
6
CONTINUOUS
10
4.9432
20
-3.97007
11
4.94007
21
-3.9732
0
LINE
8
BLACK
6
CONTINUOUS
10
4.94007
20
-3.9732
11
4.93828
21
-3.97724
0
LINE
8
BLACK
6
CONTINUOUS
10
4.93828
20
-3.97724
11
4.93828
21
-3.97724
0
LINE
8
BLACK
6
CONTINUOUS
10
4.93828
20
-3.97724
11
4.93817
21
-3.97823
0
LINE
8
BLACK
6
CONTINUOUS
10
4.93817
20
-3.97823
11
4.93817
21
-4.04177
0
LINE
8
BLACK
6
CONTINUOUS
10
4.93817
20
-4.04177
11
4.93817
21
-4.04177
0
LINE
8
BLACK
6
CONTINUOUS
10
5.22817
20
-4.04177
11
5.22828
21
-4.04276
0
LINE
8
BLACK
6
CONTINUOUS
10
5.22828
20
-4.04276
11
5.22828
21
-4.04276
0
LINE
8
BLACK
6
CONTINUOUS
10
5.22828
20
-4.04276
11
5.23007
21
-4.0468
0
LINE
8
BLACK
6
CONTINUOUS
10
5.23007
20
-4.0468
11
5.23007
21
-4.0468
0
LINE
8
BLACK
6
CONTINUOUS
10
5.23007
20
-4.0468
11
5.2332
21
-4.04993
0
LINE
8
BLACK
6
CONTINUOUS
10
5.2332
20
-4.04993
11
5.23724
21
-4.05172
0
LINE
8
BLACK
6
CONTINUOUS
10
5.23724
20
-4.05172
11
5.23823
21
-4.05183
0
LINE
8
BLACK
6
CONTINUOUS
10
5.23823
20
-4.05183
11
5.30177
21
-4.05183
0
LINE
8
BLACK
6
CONTINUOUS
10
5.30177
20
-4.05183
11
5.30177
21
-4.05183
0
LINE
8
BLACK
6
CONTINUOUS
10
5.30177
20
-4.05183
11
5.30177
21
-4.05183
0
LINE
8
BLACK
6
CONTINUOUS
10
5.30177
20
-4.05183
11
5.30276
21
-4.05172
0
LINE
8
BLACK
6
CONTINUOUS
10
5.30276
20
-4.05172
11
5.30276
21
-4.05172
0
LINE
8
BLACK
6
CONTINUOUS
10
5.30276
20
-4.05172
11
5.30276
21
-4.05172
0
LINE
8
BLACK
6
CONTINUOUS
10
5.30276
20
-4.05172
11
5.3068
21
-4.04993
0
LINE
8
BLACK
6
CONTINUOUS
10
5.3068
20
-4.04993
11
5.30993
21
-4.0468
0
LINE
8
BLACK
6
CONTINUOUS
10
5.30993
20
-4.0468
11
5.31172
21
-4.04276
0
LINE
8
BLACK
6
CONTINUOUS
10
5.31172
20
-4.04276
11
5.31183
21
-4.04177
0
LINE
8
BLACK
6
CONTINUOUS
10
5.31183
20
-4.04177
11
5.31183
21
-4.04177
0
LINE
8
BLACK
6
CONTINUOUS
10
5.31183
20
-4.04177
11
5.31183
21
-3.97823
0
LINE
8
BLACK
6
CONTINUOUS
10
5.31183
20
-3.97823
11
5.31183
21
-3.97823
0
LINE
8
BLACK
6
CONTINUOUS
10
5.31183
20
-3.97823
11
5.31172
21
-3.97724
0
LINE
8
BLACK
6
CONTINUOUS
10
5.31172
20
-3.97724
11
5.31172
21
-3.97724
0
LINE
8
BLACK
6
CONTINUOUS
10
5.31172
20
-3.97724
11
5.31172
21
-3.97724
0
LINE
8
BLACK
6
CONTINUOUS
10
5.31172
20
-3.97724
11
5.30993
21
-3.9732
0
LINE
8
BLACK
6
CONTINUOUS
10
5.30993
20
-3.9732
11
5.3068
21
-3.97007
0
LINE
8
BLACK
6
CONTINUOUS
10
5.3068
20
-3.97007
11
5.3068
21
-3.97007
0
LINE
8
BLACK
6
CONTINUOUS
10
5.3068
20
-3.97007
11
5.30276
21
-3.96828
0
LINE
8
BLACK
6
CONTINUOUS
10
5.30276
20
-3.96828
11
5.30177
21
-3.96817
0
LINE
8
BLACK
6
CONTINUOUS
10
5.30177
20
-3.96817
11
5.23823
21
-3.96817
0
LINE
8
BLACK
6
CONTINUOUS
10
5.23823
20
-3.96817
11
5.23823
21
-3.96817
0
LINE
8
BLACK
6
CONTINUOUS
10
5.23823
20
-3.96817
11
5.23724
21
-3.96828
0
LINE
8
BLACK
6
CONTINUOUS
10
5.23724
20
-3.96828
11
5.23724
21
-3.96828
0
LINE
8
BLACK
6
CONTINUOUS
10
5.23724
20
-3.96828
11
5.2332
21
-3.97007
0
LINE
8
BLACK
6
CONTINUOUS
10
5.2332
20
-3.97007
11
5.23007
21
-3.9732
0
LINE
8
BLACK
6
CONTINUOUS
10
5.23007
20
-3.9732
11
5.22828
21
-3.97724
0
LINE
8
BLACK
6
CONTINUOUS
10
5.22828
20
-3.97724
11
5.22828
21
-3.97724
0
LINE
8
BLACK
6
CONTINUOUS
10
5.22828
20
-3.97724
11
5.22817
21
-3.97823
0
LINE
8
BLACK
6
CONTINUOUS
10
5.22817
20
-3.97823
11
5.22817
21
-4.04177
0
LINE
8
BLACK
6
CONTINUOUS
10
5.22817
20
-4.04177
11
5.22817
21
-4.04177
0
LINE
8
BLACK
6
CONTINUOUS
10
5.42817
20
-4.04177
11
5.42828
21
-4.04276
0
LINE
8
BLACK
6
CONTINUOUS
10
5.42828
20
-4.04276
11
5.42828
21
-4.04276
0
LINE
8
BLACK
6
CONTINUOUS
10
5.42828
20
-4.04276
11
5.43007
21
-4.0468
0
LINE
8
BLACK
6
CONTINUOUS
10
5.43007
20
-4.0468
11
5.43007
21
-4.0468
0
LINE
8
BLACK
6
CONTINUOUS
10
5.43007
20
-4.0468
11
5.4332
21
-4.04993
0
LINE
8
BLACK
6
CONTINUOUS
10
5.4332
20
-4.04993
11
5.43724
21
-4.05172
0
LINE
8
BLACK
6
CONTINUOUS
10
5.43724
20
-4.05172
11
5.43823
21
-4.05183
0
LINE
8
BLACK
6
CONTINUOUS
10
5.43823
20
-4.05183
11
5.50177
21
-4.05183
0
LINE
8
BLACK
6
CONTINUOUS
10
5.50177
20
-4.05183
11
5.50177
21
-4.05183
0
LINE
8
BLACK
6
CONTINUOUS
10
5.50177
20
-4.05183
11
5.50177
21
-4.05183
0
LINE
8
BLACK
6
CONTINUOUS
10
5.50177
20
-4.05183
11
5.50276
21
-4.05172
0
LINE
8
BLACK
6
CONTINUOUS
10
5.50276
20
-4.05172
11
5.50276
21
-4.05172
0
LINE
8
BLACK
6
CONTINUOUS
10
5.50276
20
-4.05172
11
5.50276
21
-4.05172
0
LINE
8
BLACK
6
CONTINUOUS
10
5.50276
20
-4.05172
11
5.5068
21
-4.04993
0
LINE
8
BLACK
6
CONTINUOUS
10
5.5068
20
-4.04993
11
5.50993
21
-4.0468
0
LINE
8
BLACK
6
CONTINUOUS
10
5.50993
20
-4.0468
11
5.51172
21
-4.04276
0
LINE
8
BLACK
6
CONTINUOUS
10
5.51172
20
-4.04276
11
5.51183
21
-4.04177
0
LINE
8
BLACK
6
CONTINUOUS
10
5.51183
20
-4.04177
11
5.51183
21
-4.00016
0
LINE
8
BLACK
6
CONTINUOUS
10
5.51183
20
-4.00016
11
5.51183
21
-3.97823
0
LINE
8
BLACK
6
CONTINUOUS
10
5.51183
20
-3.97823
11
5.51183
21
-3.97823
0
LINE
8
BLACK
6
CONTINUOUS
10
5.51183
20
-3.97823
11
5.51172
21
-3.97724
0
LINE
8
BLACK
6
CONTINUOUS
10
5.51172
20
-3.97724
11
5.51172
21
-3.97724
0
LINE
8
BLACK
6
CONTINUOUS
10
5.51172
20
-3.97724
11
5.51172
21
-3.97724
0
LINE
8
BLACK
6
CONTINUOUS
10
5.51172
20
-3.97724
11
5.50993
21
-3.9732
0
LINE
8
BLACK
6
CONTINUOUS
10
5.50993
20
-3.9732
11
5.5068
21
-3.97007
0
LINE
8
BLACK
6
CONTINUOUS
10
5.5068
20
-3.97007
11
5.5068
21
-3.97007
0
LINE
8
BLACK
6
CONTINUOUS
10
5.5068
20
-3.97007
11
5.50276
21
-3.96828
0
LINE
8
BLACK
6
CONTINUOUS
10
5.50276
20
-3.96828
11
5.50177
21
-3.96817
0
LINE
8
BLACK
6
CONTINUOUS
10
5.50177
20
-3.96817
11
5.43823
21
-3.96817
0
LINE
8
BLACK
6
CONTINUOUS
10
5.43823
20
-3.96817
11
5.43823
21
-3.96817
0
LINE
8
BLACK
6
CONTINUOUS
10
5.43823
20
-3.96817
11
5.43724
21
-3.96828
0
LINE
8
BLACK
6
CONTINUOUS
10
5.43724
20
-3.96828
11
5.43724
21
-3.96828
0
LINE
8
BLACK
6
CONTINUOUS
10
5.43724
20
-3.96828
11
5.4332
21
-3.97007
0
LINE
8
BLACK
6
CONTINUOUS
10
5.4332
20
-3.97007
11
5.43007
21
-3.9732
0
LINE
8
BLACK
6
CONTINUOUS
10
5.43007
20
-3.9732
11
5.42828
21
-3.97724
0
LINE
8
BLACK
6
CONTINUOUS
10
5.42828
20
-3.97724
11
5.42828
21
-3.97724
0
LINE
8
BLACK
6
CONTINUOUS
10
5.42828
20
-3.97724
11
5.42817
21
-3.97823
0
LINE
8
BLACK
6
CONTINUOUS
10
5.42817
20
-3.97823
11
5.42817
21
-4.04177
0
LINE
8
BLACK
6
CONTINUOUS
10
5.42817
20
-4.04177
11
5.42817
21
-4.04177
0
LINE
8
BLACK
6
CONTINUOUS
10
5.57984
20
-3.98
11
5.6
21
-3.98
0
LINE
8
BLACK
6
CONTINUOUS
10
5.6
20
-3.98
11
5.6
21
-4.00016
0
LINE
8
BLACK
6
CONTINUOUS
10
5.6
20
-4.00016
11
5.61181
21
-4.00016
0
LINE
8
BLACK
6
CONTINUOUS
10
5.61181
20
-4.00016
11
5.61181
21
-3.97824
0
LINE
8
BLACK
6
CONTINUOUS
10
5.61181
20
-3.97824
11
5.61181
21
-3.97824
0
LINE
8
BLACK
6
CONTINUOUS
10
5.61181
20
-3.97824
11
5.6117
21
-3.97725
0
LINE
8
BLACK
6
CONTINUOUS
10
5.6117
20
-3.97725
11
5.6117
21
-3.97725
0
LINE
8
BLACK
6
CONTINUOUS
10
5.6117
20
-3.97725
11
5.60991
21
-3.97321
0
LINE
8
BLACK
6
CONTINUOUS
10
5.60991
20
-3.97321
11
5.60991
21
-3.97321
0
LINE
8
BLACK
6
CONTINUOUS
10
5.60991
20
-3.97321
11
5.60679
21
-3.97009
0
LINE
8
BLACK
6
CONTINUOUS
10
5.60679
20
-3.97009
11
5.60679
21
-3.97009
0
LINE
8
BLACK
6
CONTINUOUS
10
5.60679
20
-3.97009
11
5.60275
21
-3.9683
0
LINE
8
BLACK
6
CONTINUOUS
10
5.60275
20
-3.9683
11
5.60176
21
-3.96819
0
LINE
8
BLACK
6
CONTINUOUS
10
5.60176
20
-3.96819
11
5.57984
21
-3.96819
0
LINE
8
BLACK
6
CONTINUOUS
10
5.57984
20
-3.96819
11
5.57984
21
-3.98
0
LINE
8
BLACK
6
CONTINUOUS
10
5.17984
20
-3.98
11
5.2
21
-3.98
0
LINE
8
BLACK
6
CONTINUOUS
10
5.2
20
-3.98
11
5.2
21
-4.00016
0
LINE
8
BLACK
6
CONTINUOUS
10
5.2
20
-4.00016
11
5.21181
21
-4.00016
0
LINE
8
BLACK
6
CONTINUOUS
10
5.21181
20
-4.00016
11
5.21181
21
-3.97824
0
LINE
8
BLACK
6
CONTINUOUS
10
5.21181
20
-3.97824
11
5.21181
21
-3.97824
0
LINE
8
BLACK
6
CONTINUOUS
10
5.21181
20
-3.97824
11
5.2117
21
-3.97725
0
LINE
8
BLACK
6
CONTINUOUS
10
5.2117
20
-3.97725
11
5.2117
21
-3.97725
0
LINE
8
BLACK
6
CONTINUOUS
10
5.2117
20
-3.97725
11
5.20991
21
-3.97321
0
LINE
8
BLACK
6
CONTINUOUS
10
5.20991
20
-3.97321
11
5.20991
21
-3.97321
0
LINE
8
BLACK
6
CONTINUOUS
10
5.20991
20
-3.97321
11
5.20679
21
-3.97009
0
LINE
8
BLACK
6
CONTINUOUS
10
5.20679
20
-3.97009
11
5.20679
21
-3.97009
0
LINE
8
BLACK
6
CONTINUOUS
10
5.20679
20
-3.97009
11
5.20275
21
-3.9683
0
LINE
8
BLACK
6
CONTINUOUS
10
5.20275
20
-3.9683
11
5.20176
21
-3.96819
0
LINE
8
BLACK
6
CONTINUOUS
10
5.20176
20
-3.96819
11
5.17984
21
-3.96819
0
LINE
8
BLACK
6
CONTINUOUS
10
5.17984
20
-3.96819
11
5.17984
21
-3.98
0
LINE
8
BLACK
6
CONTINUOUS
10
4.84823
20
-3.86817
11
4.84724
21
-3.86828
0
LINE
8
BLACK
6
CONTINUOUS
10
4.84724
20
-3.86828
11
4.84724
21
-3.86828
0
LINE
8
BLACK
6
CONTINUOUS
10
4.84724
20
-3.86828
11
4.8432
21
-3.87007
0
LINE
8
BLACK
6
CONTINUOUS
10
4.8432
20
-3.87007
11
4.84007
21
-3.8732
0
LINE
8
BLACK
6
CONTINUOUS
10
4.84007
20
-3.8732
11
4.83828
21
-3.87724
0
LINE
8
BLACK
6
CONTINUOUS
10
4.83828
20
-3.87724
11
4.83828
21
-3.87724
0
LINE
8
BLACK
6
CONTINUOUS
10
4.83828
20
-3.87724
11
4.83817
21
-3.87823
0
LINE
8
BLACK
6
CONTINUOUS
10
4.83817
20
-3.87823
11
4.83817
21
-3.94177
0
LINE
8
BLACK
6
CONTINUOUS
10
4.83817
20
-3.94177
11
4.83817
21
-3.94177
0
LINE
8
BLACK
6
CONTINUOUS
10
4.83817
20
-3.94177
11
4.83828
21
-3.94276
0
LINE
8
BLACK
6
CONTINUOUS
10
4.83828
20
-3.94276
11
4.83828
21
-3.94276
0
LINE
8
BLACK
6
CONTINUOUS
10
4.83828
20
-3.94276
11
4.84007
21
-3.9468
0
LINE
8
BLACK
6
CONTINUOUS
10
4.84007
20
-3.9468
11
4.84007
21
-3.9468
0
LINE
8
BLACK
6
CONTINUOUS
10
4.84007
20
-3.9468
11
4.8432
21
-3.94993
0
LINE
8
BLACK
6
CONTINUOUS
10
4.8432
20
-3.94993
11
4.84724
21
-3.95172
0
LINE
8
BLACK
6
CONTINUOUS
10
4.84724
20
-3.95172
11
4.84823
21
-3.95183
0
LINE
8
BLACK
6
CONTINUOUS
10
4.84823
20
-3.95183
11
4.91177
21
-3.95183
0
LINE
8
BLACK
6
CONTINUOUS
10
4.91177
20
-3.95183
11
4.91177
21
-3.95183
0
LINE
8
BLACK
6
CONTINUOUS
10
4.91177
20
-3.95183
11
4.91177
21
-3.95183
0
LINE
8
BLACK
6
CONTINUOUS
10
4.91177
20
-3.95183
11
4.91276
21
-3.95172
0
LINE
8
BLACK
6
CONTINUOUS
10
4.91276
20
-3.95172
11
4.91276
21
-3.95172
0
LINE
8
BLACK
6
CONTINUOUS
10
4.91276
20
-3.95172
11
4.91276
21
-3.95172
0
LINE
8
BLACK
6
CONTINUOUS
10
4.91276
20
-3.95172
11
4.9168
21
-3.94993
0
LINE
8
BLACK
6
CONTINUOUS
10
4.9168
20
-3.94993
11
4.91993
21
-3.9468
0
LINE
8
BLACK
6
CONTINUOUS
10
4.91993
20
-3.9468
11
4.92172
21
-3.94276
0
LINE
8
BLACK
6
CONTINUOUS
10
4.92172
20
-3.94276
11
4.92183
21
-3.94177
0
LINE
8
BLACK
6
CONTINUOUS
10
4.92183
20
-3.94177
11
4.92183
21
-3.94177
0
LINE
8
BLACK
6
CONTINUOUS
10
4.92183
20
-3.94177
11
4.92183
21
-3.87823
0
LINE
8
BLACK
6
CONTINUOUS
10
4.92183
20
-3.87823
11
4.92183
21
-3.87823
0
LINE
8
BLACK
6
CONTINUOUS
10
4.92183
20
-3.87823
11
4.92172
21
-3.87724
0
LINE
8
BLACK
6
CONTINUOUS
10
4.92172
20
-3.87724
11
4.92172
21
-3.87724
0
LINE
8
BLACK
6
CONTINUOUS
10
4.92172
20
-3.87724
11
4.92172
21
-3.87724
0
LINE
8
BLACK
6
CONTINUOUS
10
4.92172
20
-3.87724
11
4.91993
21
-3.8732
0
LINE
8
BLACK
6
CONTINUOUS
10
4.91993
20
-3.8732
11
4.9168
21
-3.87007
0
LINE
8
BLACK
6
CONTINUOUS
10
4.9168
20
-3.87007
11
4.9168
21
-3.87007
0
LINE
8
BLACK
6
CONTINUOUS
10
4.9168
20
-3.87007
11
4.91276
21
-3.86828
0
LINE
8
BLACK
6
CONTINUOUS
10
4.91276
20
-3.86828
11
4.91177
21
-3.86817
0
LINE
8
BLACK
6
CONTINUOUS
10
4.91177
20
-3.86817
11
4.84823
21
-3.86817
0
LINE
8
BLACK
6
CONTINUOUS
10
4.84823
20
-3.86817
11
4.84823
21
-3.86817
0
LINE
8
BLACK
6
CONTINUOUS
10
5.21181
20
-3.94176
11
5.21181
21
-3.94176
0
LINE
8
BLACK
6
CONTINUOUS
10
5.21181
20
-3.94176
11
5.21181
21
-3.91984
0
LINE
8
BLACK
6
CONTINUOUS
10
5.21181
20
-3.91984
11
5.2
21
-3.91984
0
LINE
8
BLACK
6
CONTINUOUS
10
5.2
20
-3.91984
11
5.2
21
-3.94
0
LINE
8
BLACK
6
CONTINUOUS
10
5.2
20
-3.94
11
5.17984
21
-3.94
0
LINE
8
BLACK
6
CONTINUOUS
10
5.17984
20
-3.94
11
5.17984
21
-3.95181
0
LINE
8
BLACK
6
CONTINUOUS
10
5.17984
20
-3.95181
11
5.17984
21
-3.95181
0
LINE
8
BLACK
6
CONTINUOUS
10
5.17984
20
-3.95181
11
5.20176
21
-3.95181
0
LINE
8
BLACK
6
CONTINUOUS
10
5.20176
20
-3.95181
11
5.20176
21
-3.95181
0
LINE
8
BLACK
6
CONTINUOUS
10
5.20176
20
-3.95181
11
5.20275
21
-3.9517
0
LINE
8
BLACK
6
CONTINUOUS
10
5.20275
20
-3.9517
11
5.20275
21
-3.9517
0
LINE
8
BLACK
6
CONTINUOUS
10
5.20275
20
-3.9517
11
5.20679
21
-3.94991
0
LINE
8
BLACK
6
CONTINUOUS
10
5.20679
20
-3.94991
11
5.20679
21
-3.94991
0
LINE
8
BLACK
6
CONTINUOUS
10
5.20679
20
-3.94991
11
5.20991
21
-3.94679
0
LINE
8
BLACK
6
CONTINUOUS
10
5.20991
20
-3.94679
11
5.20991
21
-3.94679
0
LINE
8
BLACK
6
CONTINUOUS
10
5.20991
20
-3.94679
11
5.2117
21
-3.94275
0
LINE
8
BLACK
6
CONTINUOUS
10
5.2117
20
-3.94275
11
5.2117
21
-3.94275
0
LINE
8
BLACK
6
CONTINUOUS
10
5.2117
20
-3.94275
11
5.21181
21
-3.94177
0
LINE
8
BLACK
6
CONTINUOUS
10
5.21181
20
-3.94177
11
5.21181
21
-3.94176
0
LINE
8
BLACK
6
CONTINUOUS
10
5.12819
20
-3.91984
11
5.12819
21
-3.94176
0
LINE
8
BLACK
6
CONTINUOUS
10
5.12819
20
-3.94176
11
5.12819
21
-3.94176
0
LINE
8
BLACK
6
CONTINUOUS
10
5.12819
20
-3.94176
11
5.1283
21
-3.94275
0
LINE
8
BLACK
6
CONTINUOUS
10
5.1283
20
-3.94275
11
5.1283
21
-3.94275
0
LINE
8
BLACK
6
CONTINUOUS
10
5.1283
20
-3.94275
11
5.13009
21
-3.94679
0
LINE
8
BLACK
6
CONTINUOUS
10
5.13009
20
-3.94679
11
5.13009
21
-3.94679
0
LINE
8
BLACK
6
CONTINUOUS
10
5.13009
20
-3.94679
11
5.13321
21
-3.94991
0
LINE
8
BLACK
6
CONTINUOUS
10
5.13321
20
-3.94991
11
5.13321
21
-3.94991
0
LINE
8
BLACK
6
CONTINUOUS
10
5.13321
20
-3.94991
11
5.13725
21
-3.9517
0
LINE
8
BLACK
6
CONTINUOUS
10
5.13725
20
-3.9517
11
5.13824
21
-3.95181
0
LINE
8
BLACK
6
CONTINUOUS
10
5.13824
20
-3.95181
11
5.16016
21
-3.95181
0
LINE
8
BLACK
6
CONTINUOUS
10
5.16016
20
-3.95181
11
5.16016
21
-3.95181
0
LINE
8
BLACK
6
CONTINUOUS
10
5.16016
20
-3.95181
11
5.16016
21
-3.94
0
LINE
8
BLACK
6
CONTINUOUS
10
5.16016
20
-3.94
11
5.14
21
-3.94
0
LINE
8
BLACK
6
CONTINUOUS
10
5.14
20
-3.94
11
5.14
21
-3.91984
0
LINE
8
BLACK
6
CONTINUOUS
10
5.14
20
-3.91984
11
5.12819
21
-3.91984
0
LINE
8
BLACK
6
CONTINUOUS
10
5.52819
20
-3.91984
11
5.52819
21
-3.94176
0
LINE
8
BLACK
6
CONTINUOUS
10
5.52819
20
-3.94176
11
5.52819
21
-3.94176
0
LINE
8
BLACK
6
CONTINUOUS
10
5.52819
20
-3.94176
11
5.5283
21
-3.94275
0
LINE
8
BLACK
6
CONTINUOUS
10
5.5283
20
-3.94275
11
5.5283
21
-3.94275
0
LINE
8
BLACK
6
CONTINUOUS
10
5.5283
20
-3.94275
11
5.53009
21
-3.94679
0
LINE
8
BLACK
6
CONTINUOUS
10
5.53009
20
-3.94679
11
5.53009
21
-3.94679
0
LINE
8
BLACK
6
CONTINUOUS
10
5.53009
20
-3.94679
11
5.53321
21
-3.94991
0
LINE
8
BLACK
6
CONTINUOUS
10
5.53321
20
-3.94991
11
5.53321
21
-3.94991
0
LINE
8
BLACK
6
CONTINUOUS
10
5.53321
20
-3.94991
11
5.53725
21
-3.9517
0
LINE
8
BLACK
6
CONTINUOUS
10
5.53725
20
-3.9517
11
5.53824
21
-3.95181
0
LINE
8
BLACK
6
CONTINUOUS
10
5.53824
20
-3.95181
11
5.56016
21
-3.95181
0
LINE
8
BLACK
6
CONTINUOUS
10
5.56016
20
-3.95181
11
5.56016
21
-3.95181
0
LINE
8
BLACK
6
CONTINUOUS
10
5.56016
20
-3.95181
11
5.56016
21
-3.94
0
LINE
8
BLACK
6
CONTINUOUS
10
5.56016
20
-3.94
11
5.54
21
-3.94
0
LINE
8
BLACK
6
CONTINUOUS
10
5.54
20
-3.94
11
5.54
21
-3.91984
0
LINE
8
BLACK
6
CONTINUOUS
10
5.54
20
-3.91984
11
5.52819
21
-3.91984
0
LINE
8
BLACK
6
CONTINUOUS
10
5.6
20
-3.94
11
5.57984
21
-3.94
0
LINE
8
BLACK
6
CONTINUOUS
10
5.57984
20
-3.94
11
5.57984
21
-3.95181
0
LINE
8
BLACK
6
CONTINUOUS
10
5.57984
20
-3.95181
11
5.60176
21
-3.95181
0
LINE
8
BLACK
6
CONTINUOUS
10
5.60176
20
-3.95181
11
5.60176
21
-3.95181
0
LINE
8
BLACK
6
CONTINUOUS
10
5.60176
20
-3.95181
11
5.60275
21
-3.9517
0
LINE
8
BLACK
6
CONTINUOUS
10
5.60275
20
-3.9517
11
5.60275
21
-3.9517
0
LINE
8
BLACK
6
CONTINUOUS
10
5.60275
20
-3.9517
11
5.60679
21
-3.94991
0
LINE
8
BLACK
6
CONTINUOUS
10
5.60679
20
-3.94991
11
5.60679
21
-3.94991
0
LINE
8
BLACK
6
CONTINUOUS
10
5.60679
20
-3.94991
11
5.60991
21
-3.94679
0
LINE
8
BLACK
6
CONTINUOUS
10
5.60991
20
-3.94679
11
5.60991
21
-3.94679
0
LINE
8
BLACK
6
CONTINUOUS
10
5.60991
20
-3.94679
11
5.6117
21
-3.94275
0
LINE
8
BLACK
6
CONTINUOUS
10
5.6117
20
-3.94275
11
5.6117
21
-3.94275
0
LINE
8
BLACK
6
CONTINUOUS
10
5.6117
20
-3.94275
11
5.61181
21
-3.94176
0
LINE
8
BLACK
6
CONTINUOUS
10
5.61181
20
-3.94176
11
5.61181
21
-3.94176
0
LINE
8
BLACK
6
CONTINUOUS
10
5.61181
20
-3.94176
11
5.61181
21
-3.91984
0
LINE
8
BLACK
6
CONTINUOUS
10
5.61181
20
-3.91984
11
5.6
21
-3.91984
0
LINE
8
BLACK
6
CONTINUOUS
10
5.6
20
-3.91984
11
5.6
21
-3.94
0
LINE
8
BLACK
6
CONTINUOUS
10
4.93817
20
-3.94177
11
4.93828
21
-3.94276
0
LINE
8
BLACK
6
CONTINUOUS
10
4.93828
20
-3.94276
11
4.93828
21
-3.94276
0
LINE
8
BLACK
6
CONTINUOUS
10
4.93828
20
-3.94276
11
4.94007
21
-3.9468
0
LINE
8
BLACK
6
CONTINUOUS
10
4.94007
20
-3.9468
11
4.94007
21
-3.9468
0
LINE
8
BLACK
6
CONTINUOUS
10
4.94007
20
-3.9468
11
4.9432
21
-3.94993
0
LINE
8
BLACK
6
CONTINUOUS
10
4.9432
20
-3.94993
11
4.94724
21
-3.95172
0
LINE
8
BLACK
6
CONTINUOUS
10
4.94724
20
-3.95172
11
4.94823
21
-3.95183
0
LINE
8
BLACK
6
CONTINUOUS
10
4.94823
20
-3.95183
11
5.01177
21
-3.95183
0
LINE
8
BLACK
6
CONTINUOUS
10
5.01177
20
-3.95183
11
5.01177
21
-3.95183
0
LINE
8
BLACK
6
CONTINUOUS
10
5.01177
20
-3.95183
11
5.01177
21
-3.95183
0
LINE
8
BLACK
6
CONTINUOUS
10
5.01177
20
-3.95183
11
5.01276
21
-3.95172
0
LINE
8
BLACK
6
CONTINUOUS
10
5.01276
20
-3.95172
11
5.01276
21
-3.95172
0
LINE
8
BLACK
6
CONTINUOUS
10
5.01276
20
-3.95172
11
5.01276
21
-3.95172
0
LINE
8
BLACK
6
CONTINUOUS
10
5.01276
20
-3.95172
11
5.0168
21
-3.94993
0
LINE
8
BLACK
6
CONTINUOUS
10
5.0168
20
-3.94993
11
5.01993
21
-3.9468
0
LINE
8
BLACK
6
CONTINUOUS
10
5.01993
20
-3.9468
11
5.02172
21
-3.94276
0
LINE
8
BLACK
6
CONTINUOUS
10
5.02172
20
-3.94276
11
5.02183
21
-3.94177
0
LINE
8
BLACK
6
CONTINUOUS
10
5.02183
20
-3.94177
11
5.02183
21
-3.90016
0
LINE
8
BLACK
6
CONTINUOUS
10
5.02183
20
-3.90016
11
5.02183
21
-3.87823
0
LINE
8
BLACK
6
CONTINUOUS
10
5.02183
20
-3.87823
11
5.02183
21
-3.87823
0
LINE
8
BLACK
6
CONTINUOUS
10
5.02183
20
-3.87823
11
5.02172
21
-3.87724
0
LINE
8
BLACK
6
CONTINUOUS
10
5.02172
20
-3.87724
11
5.02172
21
-3.87724
0
LINE
8
BLACK
6
CONTINUOUS
10
5.02172
20
-3.87724
11
5.02172
21
-3.87724
0
LINE
8
BLACK
6
CONTINUOUS
10
5.02172
20
-3.87724
11
5.01993
21
-3.8732
0
LINE
8
BLACK
6
CONTINUOUS
10
5.01993
20
-3.8732
11
5.0168
21
-3.87007
0
LINE
8
BLACK
6
CONTINUOUS
10
5.0168
20
-3.87007
11
5.0168
21
-3.87007
0
LINE
8
BLACK
6
CONTINUOUS
10
5.0168
20
-3.87007
11
5.01276
21
-3.86828
0
LINE
8
BLACK
6
CONTINUOUS
10
5.01276
20
-3.86828
11
5.01177
21
-3.86817
0
LINE
8
BLACK
6
CONTINUOUS
10
5.01177
20
-3.86817
11
4.94823
21
-3.86817
0
LINE
8
BLACK
6
CONTINUOUS
10
4.94823
20
-3.86817
11
4.94823
21
-3.86817
0
LINE
8
BLACK
6
CONTINUOUS
10
4.94823
20
-3.86817
11
4.94724
21
-3.86828
0
LINE
8
BLACK
6
CONTINUOUS
10
4.94724
20
-3.86828
11
4.94724
21
-3.86828
0
LINE
8
BLACK
6
CONTINUOUS
10
4.94724
20
-3.86828
11
4.9432
21
-3.87007
0
LINE
8
BLACK
6
CONTINUOUS
10
4.9432
20
-3.87007
11
4.94007
21
-3.8732
0
LINE
8
BLACK
6
CONTINUOUS
10
4.94007
20
-3.8732
11
4.93828
21
-3.87724
0
LINE
8
BLACK
6
CONTINUOUS
10
4.93828
20
-3.87724
11
4.93828
21
-3.87724
0
LINE
8
BLACK
6
CONTINUOUS
10
4.93828
20
-3.87724
11
4.93817
21
-3.87823
0
LINE
8
BLACK
6
CONTINUOUS
10
4.93817
20
-3.87823
11
4.93817
21
-3.94177
0
LINE
8
BLACK
6
CONTINUOUS
10
4.93817
20
-3.94177
11
4.93817
21
-3.94177
0
LINE
8
BLACK
6
CONTINUOUS
10
5.22817
20
-3.94177
11
5.22828
21
-3.94276
0
LINE
8
BLACK
6
CONTINUOUS
10
5.22828
20
-3.94276
11
5.22828
21
-3.94276
0
LINE
8
BLACK
6
CONTINUOUS
10
5.22828
20
-3.94276
11
5.23007
21
-3.9468
0
LINE
8
BLACK
6
CONTINUOUS
10
5.23007
20
-3.9468
11
5.23007
21
-3.9468
0
LINE
8
BLACK
6
CONTINUOUS
10
5.23007
20
-3.9468
11
5.2332
21
-3.94993
0
LINE
8
BLACK
6
CONTINUOUS
10
5.2332
20
-3.94993
11
5.23724
21
-3.95172
0
LINE
8
BLACK
6
CONTINUOUS
10
5.23724
20
-3.95172
11
5.23823
21
-3.95183
0
LINE
8
BLACK
6
CONTINUOUS
10
5.23823
20
-3.95183
11
5.30177
21
-3.95183
0
LINE
8
BLACK
6
CONTINUOUS
10
5.30177
20
-3.95183
11
5.30177
21
-3.95183
0
LINE
8
BLACK
6
CONTINUOUS
10
5.30177
20
-3.95183
11
5.30177
21
-3.95183
0
LINE
8
BLACK
6
CONTINUOUS
10
5.30177
20
-3.95183
11
5.30276
21
-3.95172
0
LINE
8
BLACK
6
CONTINUOUS
10
5.30276
20
-3.95172
11
5.30276
21
-3.95172
0
LINE
8
BLACK
6
CONTINUOUS
10
5.30276
20
-3.95172
11
5.30276
21
-3.95172
0
LINE
8
BLACK
6
CONTINUOUS
10
5.30276
20
-3.95172
11
5.3068
21
-3.94993
0
LINE
8
BLACK
6
CONTINUOUS
10
5.3068
20
-3.94993
11
5.30993
21
-3.9468
0
LINE
8
BLACK
6
CONTINUOUS
10
5.30993
20
-3.9468
11
5.31172
21
-3.94276
0
LINE
8
BLACK
6
CONTINUOUS
10
5.31172
20
-3.94276
11
5.31183
21
-3.94177
0
LINE
8
BLACK
6
CONTINUOUS
10
5.31183
20
-3.94177
11
5.31183
21
-3.94177
0
LINE
8
BLACK
6
CONTINUOUS
10
5.31183
20
-3.94177
11
5.31183
21
-3.87823
0
LINE
8
BLACK
6
CONTINUOUS
10
5.31183
20
-3.87823
11
5.31183
21
-3.87823
0
LINE
8
BLACK
6
CONTINUOUS
10
5.31183
20
-3.87823
11
5.31172
21
-3.87724
0
LINE
8
BLACK
6
CONTINUOUS
10
5.31172
20
-3.87724
11
5.31172
21
-3.87724
0
LINE
8
BLACK
6
CONTINUOUS
10
5.31172
20
-3.87724
11
5.31172
21
-3.87724
0
LINE
8
BLACK
6
CONTINUOUS
10
5.31172
20
-3.87724
11
5.30993
21
-3.8732
0
LINE
8
BLACK
6
CONTINUOUS
10
5.30993
20
-3.8732
11
5.3068
21
-3.87007
0
LINE
8
BLACK
6
CONTINUOUS
10
5.3068
20
-3.87007
11
5.3068
21
-3.87007
0
LINE
8
BLACK
6
CONTINUOUS
10
5.3068
20
-3.87007
11
5.30276
21
-3.86828
0
LINE
8
BLACK
6
CONTINUOUS
10
5.30276
20
-3.86828
11
5.30177
21
-3.86817
0
LINE
8
BLACK
6
CONTINUOUS
10
5.30177
20
-3.86817
11
5.23823
21
-3.86817
0
LINE
8
BLACK
6
CONTINUOUS
10
5.23823
20
-3.86817
11
5.23823
21
-3.86817
0
LINE
8
BLACK
6
CONTINUOUS
10
5.23823
20
-3.86817
11
5.23724
21
-3.86828
0
LINE
8
BLACK
6
CONTINUOUS
10
5.23724
20
-3.86828
11
5.23724
21
-3.86828
0
LINE
8
BLACK
6
CONTINUOUS
10
5.23724
20
-3.86828
11
5.2332
21
-3.87007
0
LINE
8
BLACK
6
CONTINUOUS
10
5.2332
20
-3.87007
11
5.23007
21
-3.8732
0
LINE
8
BLACK
6
CONTINUOUS
10
5.23007
20
-3.8732
11
5.22828
21
-3.87724
0
LINE
8
BLACK
6
CONTINUOUS
10
5.22828
20
-3.87724
11
5.22828
21
-3.87724
0
LINE
8
BLACK
6
CONTINUOUS
10
5.22828
20
-3.87724
11
5.22817
21
-3.87823
0
LINE
8
BLACK
6
CONTINUOUS
10
5.22817
20
-3.87823
11
5.22817
21
-3.94177
0
LINE
8
BLACK
6
CONTINUOUS
10
5.22817
20
-3.94177
11
5.22817
21
-3.94177
0
LINE
8
BLACK
6
CONTINUOUS
10
5.32817
20
-3.94177
11
5.32828
21
-3.94276
0
LINE
8
BLACK
6
CONTINUOUS
10
5.32828
20
-3.94276
11
5.32828
21
-3.94276
0
LINE
8
BLACK
6
CONTINUOUS
10
5.32828
20
-3.94276
11
5.33007
21
-3.9468
0
LINE
8
BLACK
6
CONTINUOUS
10
5.33007
20
-3.9468
11
5.33007
21
-3.9468
0
LINE
8
BLACK
6
CONTINUOUS
10
5.33007
20
-3.9468
11
5.3332
21
-3.94993
0
LINE
8
BLACK
6
CONTINUOUS
10
5.3332
20
-3.94993
11
5.33724
21
-3.95172
0
LINE
8
BLACK
6
CONTINUOUS
10
5.33724
20
-3.95172
11
5.33823
21
-3.95183
0
LINE
8
BLACK
6
CONTINUOUS
10
5.33823
20
-3.95183
11
5.40177
21
-3.95183
0
LINE
8
BLACK
6
CONTINUOUS
10
5.40177
20
-3.95183
11
5.40177
21
-3.95183
0
LINE
8
BLACK
6
CONTINUOUS
10
5.40177
20
-3.95183
11
5.40177
21
-3.95183
0
LINE
8
BLACK
6
CONTINUOUS
10
5.40177
20
-3.95183
11
5.40276
21
-3.95172
0
LINE
8
BLACK
6
CONTINUOUS
10
5.40276
20
-3.95172
11
5.40276
21
-3.95172
0
LINE
8
BLACK
6
CONTINUOUS
10
5.40276
20
-3.95172
11
5.40276
21
-3.95172
0
LINE
8
BLACK
6
CONTINUOUS
10
5.40276
20
-3.95172
11
5.4068
21
-3.94993
0
LINE
8
BLACK
6
CONTINUOUS
10
5.4068
20
-3.94993
11
5.40993
21
-3.9468
0
LINE
8
BLACK
6
CONTINUOUS
10
5.40993
20
-3.9468
11
5.41172
21
-3.94276
0
LINE
8
BLACK
6
CONTINUOUS
10
5.41172
20
-3.94276
11
5.41183
21
-3.94177
0
LINE
8
BLACK
6
CONTINUOUS
10
5.41183
20
-3.94177
11
5.41183
21
-3.94177
0
LINE
8
BLACK
6
CONTINUOUS
10
5.41183
20
-3.94177
11
5.41183
21
-3.87823
0
LINE
8
BLACK
6
CONTINUOUS
10
5.41183
20
-3.87823
11
5.41183
21
-3.87823
0
LINE
8
BLACK
6
CONTINUOUS
10
5.41183
20
-3.87823
11
5.41172
21
-3.87724
0
LINE
8
BLACK
6
CONTINUOUS
10
5.41172
20
-3.87724
11
5.41172
21
-3.87724
0
LINE
8
BLACK
6
CONTINUOUS
10
5.41172
20
-3.87724
11
5.41172
21
-3.87724
0
LINE
8
BLACK
6
CONTINUOUS
10
5.41172
20
-3.87724
11
5.40993
21
-3.8732
0
LINE
8
BLACK
6
CONTINUOUS
10
5.40993
20
-3.8732
11
5.4068
21
-3.87007
0
LINE
8
BLACK
6
CONTINUOUS
10
5.4068
20
-3.87007
11
5.4068
21
-3.87007
0
LINE
8
BLACK
6
CONTINUOUS
10
5.4068
20
-3.87007
11
5.40276
21
-3.86828
0
LINE
8
BLACK
6
CONTINUOUS
10
5.40276
20
-3.86828
11
5.40177
21
-3.86817
0
LINE
8
BLACK
6
CONTINUOUS
10
5.40177
20
-3.86817
11
5.33823
21
-3.86817
0
LINE
8
BLACK
6
CONTINUOUS
10
5.33823
20
-3.86817
11
5.33823
21
-3.86817
0
LINE
8
BLACK
6
CONTINUOUS
10
5.33823
20
-3.86817
11
5.33724
21
-3.86828
0
LINE
8
BLACK
6
CONTINUOUS
10
5.33724
20
-3.86828
11
5.33724
21
-3.86828
0
LINE
8
BLACK
6
CONTINUOUS
10
5.33724
20
-3.86828
11
5.3332
21
-3.87007
0
LINE
8
BLACK
6
CONTINUOUS
10
5.3332
20
-3.87007
11
5.33007
21
-3.8732
0
LINE
8
BLACK
6
CONTINUOUS
10
5.33007
20
-3.8732
11
5.32828
21
-3.87724
0
LINE
8
BLACK
6
CONTINUOUS
10
5.32828
20
-3.87724
11
5.32828
21
-3.87724
0
LINE
8
BLACK
6
CONTINUOUS
10
5.32828
20
-3.87724
11
5.32817
21
-3.87823
0
LINE
8
BLACK
6
CONTINUOUS
10
5.32817
20
-3.87823
11
5.32817
21
-3.94177
0
LINE
8
BLACK
6
CONTINUOUS
10
5.32817
20
-3.94177
11
5.32817
21
-3.94177
0
LINE
8
BLACK
6
CONTINUOUS
10
5.42817
20
-3.94177
11
5.42828
21
-3.94276
0
LINE
8
BLACK
6
CONTINUOUS
10
5.42828
20
-3.94276
11
5.42828
21
-3.94276
0
LINE
8
BLACK
6
CONTINUOUS
10
5.42828
20
-3.94276
11
5.43007
21
-3.9468
0
LINE
8
BLACK
6
CONTINUOUS
10
5.43007
20
-3.9468
11
5.43007
21
-3.9468
0
LINE
8
BLACK
6
CONTINUOUS
10
5.43007
20
-3.9468
11
5.4332
21
-3.94993
0
LINE
8
BLACK
6
CONTINUOUS
10
5.4332
20
-3.94993
11
5.43724
21
-3.95172
0
LINE
8
BLACK
6
CONTINUOUS
10
5.43724
20
-3.95172
11
5.43823
21
-3.95183
0
LINE
8
BLACK
6
CONTINUOUS
10
5.43823
20
-3.95183
11
5.50177
21
-3.95183
0
LINE
8
BLACK
6
CONTINUOUS
10
5.50177
20
-3.95183
11
5.50177
21
-3.95183
0
LINE
8
BLACK
6
CONTINUOUS
10
5.50177
20
-3.95183
11
5.50177
21
-3.95183
0
LINE
8
BLACK
6
CONTINUOUS
10
5.50177
20
-3.95183
11
5.50276
21
-3.95172
0
LINE
8
BLACK
6
CONTINUOUS
10
5.50276
20
-3.95172
11
5.50276
21
-3.95172
0
LINE
8
BLACK
6
CONTINUOUS
10
5.50276
20
-3.95172
11
5.50276
21
-3.95172
0
LINE
8
BLACK
6
CONTINUOUS
10
5.50276
20
-3.95172
11
5.5068
21
-3.94993
0
LINE
8
BLACK
6
CONTINUOUS
10
5.5068
20
-3.94993
11
5.50993
21
-3.9468
0
LINE
8
BLACK
6
CONTINUOUS
10
5.50993
20
-3.9468
11
5.51172
21
-3.94276
0
LINE
8
BLACK
6
CONTINUOUS
10
5.51172
20
-3.94276
11
5.51183
21
-3.94177
0
LINE
8
BLACK
6
CONTINUOUS
10
5.51183
20
-3.94177
11
5.51183
21
-3.90016
0
LINE
8
BLACK
6
CONTINUOUS
10
5.51183
20
-3.90016
11
5.51183
21
-3.87823
0
LINE
8
BLACK
6
CONTINUOUS
10
5.51183
20
-3.87823
11
5.51183
21
-3.87823
0
LINE
8
BLACK
6
CONTINUOUS
10
5.51183
20
-3.87823
11
5.51172
21
-3.87724
0
LINE
8
BLACK
6
CONTINUOUS
10
5.51172
20
-3.87724
11
5.51172
21
-3.87724
0
LINE
8
BLACK
6
CONTINUOUS
10
5.51172
20
-3.87724
11
5.51172
21
-3.87724
0
LINE
8
BLACK
6
CONTINUOUS
10
5.51172
20
-3.87724
11
5.50993
21
-3.8732
0
LINE
8
BLACK
6
CONTINUOUS
10
5.50993
20
-3.8732
11
5.5068
21
-3.87007
0
LINE
8
BLACK
6
CONTINUOUS
10
5.5068
20
-3.87007
11
5.5068
21
-3.87007
0
LINE
8
BLACK
6
CONTINUOUS
10
5.5068
20
-3.87007
11
5.50276
21
-3.86828
0
LINE
8
BLACK
6
CONTINUOUS
10
5.50276
20
-3.86828
11
5.50177
21
-3.86817
0
LINE
8
BLACK
6
CONTINUOUS
10
5.50177
20
-3.86817
11
5.43823
21
-3.86817
0
LINE
8
BLACK
6
CONTINUOUS
10
5.43823
20
-3.86817
11
5.43823
21
-3.86817
0
LINE
8
BLACK
6
CONTINUOUS
10
5.43823
20
-3.86817
11
5.43724
21
-3.86828
0
LINE
8
BLACK
6
CONTINUOUS
10
5.43724
20
-3.86828
11
5.43724
21
-3.86828
0
LINE
8
BLACK
6
CONTINUOUS
10
5.43724
20
-3.86828
11
5.4332
21
-3.87007
0
LINE
8
BLACK
6
CONTINUOUS
10
5.4332
20
-3.87007
11
5.43007
21
-3.8732
0
LINE
8
BLACK
6
CONTINUOUS
10
5.43007
20
-3.8732
11
5.42828
21
-3.87724
0
LINE
8
BLACK
6
CONTINUOUS
10
5.42828
20
-3.87724
11
5.42828
21
-3.87724
0
LINE
8
BLACK
6
CONTINUOUS
10
5.42828
20
-3.87724
11
5.42817
21
-3.87823
0
LINE
8
BLACK
6
CONTINUOUS
10
5.42817
20
-3.87823
11
5.42817
21
-3.94177
0
LINE
8
BLACK
6
CONTINUOUS
10
5.42817
20
-3.94177
11
5.42817
21
-3.94177
0
LINE
8
BLACK
6
CONTINUOUS
10
5.57984
20
-3.88
11
5.6
21
-3.88
0
LINE
8
BLACK
6
CONTINUOUS
10
5.6
20
-3.88
11
5.6
21
-3.90016
0
LINE
8
BLACK
6
CONTINUOUS
10
5.6
20
-3.90016
11
5.61181
21
-3.90016
0
LINE
8
BLACK
6
CONTINUOUS
10
5.61181
20
-3.90016
11
5.61181
21
-3.87824
0
LINE
8
BLACK
6
CONTINUOUS
10
5.61181
20
-3.87824
11
5.61181
21
-3.87824
0
LINE
8
BLACK
6
CONTINUOUS
10
5.61181
20
-3.87824
11
5.6117
21
-3.87725
0
LINE
8
BLACK
6
CONTINUOUS
10
5.6117
20
-3.87725
11
5.6117
21
-3.87725
0
LINE
8
BLACK
6
CONTINUOUS
10
5.6117
20
-3.87725
11
5.60991
21
-3.87321
0
LINE
8
BLACK
6
CONTINUOUS
10
5.60991
20
-3.87321
11
5.60991
21
-3.87321
0
LINE
8
BLACK
6
CONTINUOUS
10
5.60991
20
-3.87321
11
5.60679
21
-3.87009
0
LINE
8
BLACK
6
CONTINUOUS
10
5.60679
20
-3.87009
11
5.60679
21
-3.87009
0
LINE
8
BLACK
6
CONTINUOUS
10
5.60679
20
-3.87009
11
5.60275
21
-3.8683
0
LINE
8
BLACK
6
CONTINUOUS
10
5.60275
20
-3.8683
11
5.60176
21
-3.86819
0
LINE
8
BLACK
6
CONTINUOUS
10
5.60176
20
-3.86819
11
5.57984
21
-3.86819
0
LINE
8
BLACK
6
CONTINUOUS
10
5.57984
20
-3.86819
11
5.57984
21
-3.88
0
LINE
8
BLACK
6
CONTINUOUS
10
5.17984
20
-3.88
11
5.2
21
-3.88
0
LINE
8
BLACK
6
CONTINUOUS
10
5.2
20
-3.88
11
5.2
21
-3.90016
0
LINE
8
BLACK
6
CONTINUOUS
10
5.2
20
-3.90016
11
5.21181
21
-3.90016
0
LINE
8
BLACK
6
CONTINUOUS
10
5.21181
20
-3.90016
11
5.21181
21
-3.90016
0
LINE
8
BLACK
6
CONTINUOUS
10
5.21181
20
-3.90016
11
5.21181
21
-3.87824
0
LINE
8
BLACK
6
CONTINUOUS
10
5.21181
20
-3.87824
11
5.21181
21
-3.87824
0
LINE
8
BLACK
6
CONTINUOUS
10
5.21181
20
-3.87824
11
5.2117
21
-3.87725
0
LINE
8
BLACK
6
CONTINUOUS
10
5.2117
20
-3.87725
11
5.2117
21
-3.87725
0
LINE
8
BLACK
6
CONTINUOUS
10
5.2117
20
-3.87725
11
5.20991
21
-3.87321
0
LINE
8
BLACK
6
CONTINUOUS
10
5.20991
20
-3.87321
11
5.20991
21
-3.87321
0
LINE
8
BLACK
6
CONTINUOUS
10
5.20991
20
-3.87321
11
5.20679
21
-3.87009
0
LINE
8
BLACK
6
CONTINUOUS
10
5.20679
20
-3.87009
11
5.20679
21
-3.87009
0
LINE
8
BLACK
6
CONTINUOUS
10
5.20679
20
-3.87009
11
5.20275
21
-3.8683
0
LINE
8
BLACK
6
CONTINUOUS
10
5.20275
20
-3.8683
11
5.20176
21
-3.86819
0
LINE
8
BLACK
6
CONTINUOUS
10
5.20176
20
-3.86819
11
5.17984
21
-3.86819
0
LINE
8
BLACK
6
CONTINUOUS
10
5.17984
20
-3.86819
11
5.17984
21
-3.88
0
LINE
8
BLACK
6
CONTINUOUS
10
5.33
20
-4.49016
11
5.33
21
-4.47
0
LINE
8
BLACK
6
CONTINUOUS
10
5.33
20
-4.47
11
5.35016
21
-4.47
0
LINE
8
BLACK
6
CONTINUOUS
10
5.35016
20
-4.47
11
5.35016
21
-4.45819
0
LINE
8
BLACK
6
CONTINUOUS
10
5.35016
20
-4.45819
11
5.32824
21
-4.45819
0
LINE
8
BLACK
6
CONTINUOUS
10
5.32824
20
-4.45819
11
5.32824
21
-4.45819
0
LINE
8
BLACK
6
CONTINUOUS
10
5.32824
20
-4.45819
11
5.32725
21
-4.4583
0
LINE
8
BLACK
6
CONTINUOUS
10
5.32725
20
-4.4583
11
5.32725
21
-4.4583
0
LINE
8
BLACK
6
CONTINUOUS
10
5.32725
20
-4.4583
11
5.32321
21
-4.46009
0
LINE
8
BLACK
6
CONTINUOUS
10
5.32321
20
-4.46009
11
5.32321
21
-4.46009
0
LINE
8
BLACK
6
CONTINUOUS
10
5.32321
20
-4.46009
11
5.32009
21
-4.46321
0
LINE
8
BLACK
6
CONTINUOUS
10
5.32009
20
-4.46321
11
5.32009
21
-4.46321
0
LINE
8
BLACK
6
CONTINUOUS
10
5.32009
20
-4.46321
11
5.3183
21
-4.46725
0
LINE
8
BLACK
6
CONTINUOUS
10
5.3183
20
-4.46725
11
5.3183
21
-4.46725
0
LINE
8
BLACK
6
CONTINUOUS
10
5.3183
20
-4.46725
11
5.31819
21
-4.46824
0
LINE
8
BLACK
6
CONTINUOUS
10
5.31819
20
-4.46824
11
5.31819
21
-4.49016
0
LINE
8
BLACK
6
CONTINUOUS
10
5.31819
20
-4.49016
11
5.33
21
-4.49016
0
LINE
8
BLACK
6
CONTINUOUS
10
5.53
20
-4.49016
11
5.53
21
-4.47
0
LINE
8
BLACK
6
CONTINUOUS
10
5.53
20
-4.47
11
5.55016
21
-4.47
0
LINE
8
BLACK
6
CONTINUOUS
10
5.55016
20
-4.47
11
5.55016
21
-4.45819
0
LINE
8
BLACK
6
CONTINUOUS
10
5.55016
20
-4.45819
11
5.52824
21
-4.45819
0
LINE
8
BLACK
6
CONTINUOUS
10
5.52824
20
-4.45819
11
5.52824
21
-4.45819
0
LINE
8
BLACK
6
CONTINUOUS
10
5.52824
20
-4.45819
11
5.52725
21
-4.4583
0
LINE
8
BLACK
6
CONTINUOUS
10
5.52725
20
-4.4583
11
5.52725
21
-4.4583
0
LINE
8
BLACK
6
CONTINUOUS
10
5.52725
20
-4.4583
11
5.52321
21
-4.46009
0
LINE
8
BLACK
6
CONTINUOUS
10
5.52321
20
-4.46009
11
5.52321
21
-4.46009
0
LINE
8
BLACK
6
CONTINUOUS
10
5.52321
20
-4.46009
11
5.52009
21
-4.46321
0
LINE
8
BLACK
6
CONTINUOUS
10
5.52009
20
-4.46321
11
5.52009
21
-4.46321
0
LINE
8
BLACK
6
CONTINUOUS
10
5.52009
20
-4.46321
11
5.5183
21
-4.46725
0
LINE
8
BLACK
6
CONTINUOUS
10
5.5183
20
-4.46725
11
5.5183
21
-4.46725
0
LINE
8
BLACK
6
CONTINUOUS
10
5.5183
20
-4.46725
11
5.51819
21
-4.46824
0
LINE
8
BLACK
6
CONTINUOUS
10
5.51819
20
-4.46824
11
5.51819
21
-4.49016
0
LINE
8
BLACK
6
CONTINUOUS
10
5.51819
20
-4.49016
11
5.53
21
-4.49016
0
LINE
8
BLACK
6
CONTINUOUS
10
5.33
20
-4.39016
11
5.33
21
-4.37
0
LINE
8
BLACK
6
CONTINUOUS
10
5.33
20
-4.37
11
5.35016
21
-4.37
0
LINE
8
BLACK
6
CONTINUOUS
10
5.35016
20
-4.37
11
5.35016
21
-4.35819
0
LINE
8
BLACK
6
CONTINUOUS
10
5.35016
20
-4.35819
11
5.32824
21
-4.35819
0
LINE
8
BLACK
6
CONTINUOUS
10
5.32824
20
-4.35819
11
5.32824
21
-4.35819
0
LINE
8
BLACK
6
CONTINUOUS
10
5.32824
20
-4.35819
11
5.32725
21
-4.3583
0
LINE
8
BLACK
6
CONTINUOUS
10
5.32725
20
-4.3583
11
5.32725
21
-4.3583
0
LINE
8
BLACK
6
CONTINUOUS
10
5.32725
20
-4.3583
11
5.32321
21
-4.36009
0
LINE
8
BLACK
6
CONTINUOUS
10
5.32321
20
-4.36009
11
5.32321
21
-4.36009
0
LINE
8
BLACK
6
CONTINUOUS
10
5.32321
20
-4.36009
11
5.32009
21
-4.36321
0
LINE
8
BLACK
6
CONTINUOUS
10
5.32009
20
-4.36321
11
5.32009
21
-4.36321
0
LINE
8
BLACK
6
CONTINUOUS
10
5.32009
20
-4.36321
11
5.3183
21
-4.36725
0
LINE
8
BLACK
6
CONTINUOUS
10
5.3183
20
-4.36725
11
5.3183
21
-4.36725
0
LINE
8
BLACK
6
CONTINUOUS
10
5.3183
20
-4.36725
11
5.31819
21
-4.36824
0
LINE
8
BLACK
6
CONTINUOUS
10
5.31819
20
-4.36824
11
5.31819
21
-4.39016
0
LINE
8
BLACK
6
CONTINUOUS
10
5.31819
20
-4.39016
11
5.33
21
-4.39016
0
LINE
8
BLACK
6
CONTINUOUS
10
5.53
20
-4.39016
11
5.53
21
-4.37
0
LINE
8
BLACK
6
CONTINUOUS
10
5.53
20
-4.37
11
5.55016
21
-4.37
0
LINE
8
BLACK
6
CONTINUOUS
10
5.55016
20
-4.37
11
5.55016
21
-4.35819
0
LINE
8
BLACK
6
CONTINUOUS
10
5.55016
20
-4.35819
11
5.52824
21
-4.35819
0
LINE
8
BLACK
6
CONTINUOUS
10
5.52824
20
-4.35819
11
5.52824
21
-4.35819
0
LINE
8
BLACK
6
CONTINUOUS
10
5.52824
20
-4.35819
11
5.52725
21
-4.3583
0
LINE
8
BLACK
6
CONTINUOUS
10
5.52725
20
-4.3583
11
5.52725
21
-4.3583
0
LINE
8
BLACK
6
CONTINUOUS
10
5.52725
20
-4.3583
11
5.52321
21
-4.36009
0
LINE
8
BLACK
6
CONTINUOUS
10
5.52321
20
-4.36009
11
5.52321
21
-4.36009
0
LINE
8
BLACK
6
CONTINUOUS
10
5.52321
20
-4.36009
11
5.52009
21
-4.36321
0
LINE
8
BLACK
6
CONTINUOUS
10
5.52009
20
-4.36321
11
5.52009
21
-4.36321
0
LINE
8
BLACK
6
CONTINUOUS
10
5.52009
20
-4.36321
11
5.5183
21
-4.36725
0
LINE
8
BLACK
6
CONTINUOUS
10
5.5183
20
-4.36725
11
5.5183
21
-4.36725
0
LINE
8
BLACK
6
CONTINUOUS
10
5.5183
20
-4.36725
11
5.51819
21
-4.36824
0
LINE
8
BLACK
6
CONTINUOUS
10
5.51819
20
-4.36824
11
5.51819
21
-4.39016
0
LINE
8
BLACK
6
CONTINUOUS
10
5.51819
20
-4.39016
11
5.53
21
-4.39016
0
LINE
8
BLACK
6
CONTINUOUS
10
5.14
20
-4.00016
11
5.14
21
-3.98
0
LINE
8
BLACK
6
CONTINUOUS
10
5.14
20
-3.98
11
5.16016
21
-3.98
0
LINE
8
BLACK
6
CONTINUOUS
10
5.16016
20
-3.98
11
5.16016
21
-3.96819
0
LINE
8
BLACK
6
CONTINUOUS
10
5.16016
20
-3.96819
11
5.13824
21
-3.96819
0
LINE
8
BLACK
6
CONTINUOUS
10
5.13824
20
-3.96819
11
5.13824
21
-3.96819
0
LINE
8
BLACK
6
CONTINUOUS
10
5.13824
20
-3.96819
11
5.13725
21
-3.9683
0
LINE
8
BLACK
6
CONTINUOUS
10
5.13725
20
-3.9683
11
5.13725
21
-3.9683
0
LINE
8
BLACK
6
CONTINUOUS
10
5.13725
20
-3.9683
11
5.13321
21
-3.97009
0
LINE
8
BLACK
6
CONTINUOUS
10
5.13321
20
-3.97009
11
5.13321
21
-3.97009
0
LINE
8
BLACK
6
CONTINUOUS
10
5.13321
20
-3.97009
11
5.13009
21
-3.97321
0
LINE
8
BLACK
6
CONTINUOUS
10
5.13009
20
-3.97321
11
5.13009
21
-3.97321
0
LINE
8
BLACK
6
CONTINUOUS
10
5.13009
20
-3.97321
11
5.1283
21
-3.97725
0
LINE
8
BLACK
6
CONTINUOUS
10
5.1283
20
-3.97725
11
5.1283
21
-3.97725
0
LINE
8
BLACK
6
CONTINUOUS
10
5.1283
20
-3.97725
11
5.12819
21
-3.97824
0
LINE
8
BLACK
6
CONTINUOUS
10
5.12819
20
-3.97824
11
5.12819
21
-4.00016
0
LINE
8
BLACK
6
CONTINUOUS
10
5.12819
20
-4.00016
11
5.14
21
-4.00016
0
LINE
8
BLACK
6
CONTINUOUS
10
5.54
20
-4.00016
11
5.54
21
-3.98
0
LINE
8
BLACK
6
CONTINUOUS
10
5.54
20
-3.98
11
5.56016
21
-3.98
0
LINE
8
BLACK
6
CONTINUOUS
10
5.56016
20
-3.98
11
5.56016
21
-3.96819
0
LINE
8
BLACK
6
CONTINUOUS
10
5.56016
20
-3.96819
11
5.53824
21
-3.96819
0
LINE
8
BLACK
6
CONTINUOUS
10
5.53824
20
-3.96819
11
5.53824
21
-3.96819
0
LINE
8
BLACK
6
CONTINUOUS
10
5.53824
20
-3.96819
11
5.53725
21
-3.9683
0
LINE
8
BLACK
6
CONTINUOUS
10
5.53725
20
-3.9683
11
5.53725
21
-3.9683
0
LINE
8
BLACK
6
CONTINUOUS
10
5.53725
20
-3.9683
11
5.53321
21
-3.97009
0
LINE
8
BLACK
6
CONTINUOUS
10
5.53321
20
-3.97009
11
5.53321
21
-3.97009
0
LINE
8
BLACK
6
CONTINUOUS
10
5.53321
20
-3.97009
11
5.53009
21
-3.97321
0
LINE
8
BLACK
6
CONTINUOUS
10
5.53009
20
-3.97321
11
5.53009
21
-3.97321
0
LINE
8
BLACK
6
CONTINUOUS
10
5.53009
20
-3.97321
11
5.5283
21
-3.97725
0
LINE
8
BLACK
6
CONTINUOUS
10
5.5283
20
-3.97725
11
5.5283
21
-3.97725
0
LINE
8
BLACK
6
CONTINUOUS
10
5.5283
20
-3.97725
11
5.52819
21
-3.97824
0
LINE
8
BLACK
6
CONTINUOUS
10
5.52819
20
-3.97824
11
5.52819
21
-4.00016
0
LINE
8
BLACK
6
CONTINUOUS
10
5.52819
20
-4.00016
11
5.54
21
-4.00016
0
LINE
8
BLACK
6
CONTINUOUS
10
5.14
20
-3.90016
11
5.14
21
-3.88
0
LINE
8
BLACK
6
CONTINUOUS
10
5.14
20
-3.88
11
5.16016
21
-3.88
0
LINE
8
BLACK
6
CONTINUOUS
10
5.16016
20
-3.88
11
5.16016
21
-3.86819
0
LINE
8
BLACK
6
CONTINUOUS
10
5.16016
20
-3.86819
11
5.13824
21
-3.86819
0
LINE
8
BLACK
6
CONTINUOUS
10
5.13824
20
-3.86819
11
5.13824
21
-3.86819
0
LINE
8
BLACK
6
CONTINUOUS
10
5.13824
20
-3.86819
11
5.13725
21
-3.8683
0
LINE
8
BLACK
6
CONTINUOUS
10
5.13725
20
-3.8683
11
5.13725
21
-3.8683
0
LINE
8
BLACK
6
CONTINUOUS
10
5.13725
20
-3.8683
11
5.13321
21
-3.87009
0
LINE
8
BLACK
6
CONTINUOUS
10
5.13321
20
-3.87009
11
5.13321
21
-3.87009
0
LINE
8
BLACK
6
CONTINUOUS
10
5.13321
20
-3.87009
11
5.13009
21
-3.87321
0
LINE
8
BLACK
6
CONTINUOUS
10
5.13009
20
-3.87321
11
5.13009
21
-3.87321
0
LINE
8
BLACK
6
CONTINUOUS
10
5.13009
20
-3.87321
11
5.1283
21
-3.87725
0
LINE
8
BLACK
6
CONTINUOUS
10
5.1283
20
-3.87725
11
5.1283
21
-3.87725
0
LINE
8
BLACK
6
CONTINUOUS
10
5.1283
20
-3.87725
11
5.12819
21
-3.87824
0
LINE
8
BLACK
6
CONTINUOUS
10
5.12819
20
-3.87824
11
5.12819
21
-3.90016
0
LINE
8
BLACK
6
CONTINUOUS
10
5.12819
20
-3.90016
11
5.14
21
-3.90016
0
LINE
8
BLACK
6
CONTINUOUS
10
5.54
20
-3.90016
11
5.54
21
-3.88
0
LINE
8
BLACK
6
CONTINUOUS
10
5.54
20
-3.88
11
5.56016
21
-3.88
0
LINE
8
BLACK
6
CONTINUOUS
10
5.56016
20
-3.88
11
5.56016
21
-3.86819
0
LINE
8
BLACK
6
CONTINUOUS
10
5.56016
20
-3.86819
11
5.53824
21
-3.86819
0
LINE
8
BLACK
6
CONTINUOUS
10
5.53824
20
-3.86819
11
5.53824
21
-3.86819
0
LINE
8
BLACK
6
CONTINUOUS
10
5.53824
20
-3.86819
11
5.53725
21
-3.8683
0
LINE
8
BLACK
6
CONTINUOUS
10
5.53725
20
-3.8683
11
5.53725
21
-3.8683
0
LINE
8
BLACK
6
CONTINUOUS
10
5.53725
20
-3.8683
11
5.53321
21
-3.87009
0
LINE
8
BLACK
6
CONTINUOUS
10
5.53321
20
-3.87009
11
5.53321
21
-3.87009
0
LINE
8
BLACK
6
CONTINUOUS
10
5.53321
20
-3.87009
11
5.53009
21
-3.87321
0
LINE
8
BLACK
6
CONTINUOUS
10
5.53009
20
-3.87321
11
5.53009
21
-3.87321
0
LINE
8
BLACK
6
CONTINUOUS
10
5.53009
20
-3.87321
11
5.5283
21
-3.87725
0
LINE
8
BLACK
6
CONTINUOUS
10
5.5283
20
-3.87725
11
5.5283
21
-3.87725
0
LINE
8
BLACK
6
CONTINUOUS
10
5.5283
20
-3.87725
11
5.52819
21
-3.87824
0
LINE
8
BLACK
6
CONTINUOUS
10
5.52819
20
-3.87824
11
5.52819
21
-3.90016
0
LINE
8
BLACK
6
CONTINUOUS
10
5.52819
20
-3.90016
11
5.54
21
-3.90016
0
CIRCLE
8
BLACK
10
5.57
20
-3.91
40
0.00688976
0
CIRCLE
8
BLACK
10
5.57
20
-4.01
40
0.00688976
0
CIRCLE
8
BLACK
10
5.47
20
-3.91
40
0.00688976
0
CIRCLE
8
BLACK
10
5.47
20
-4.01
40
0.00688976
0
CIRCLE
8
BLACK
10
5.37
20
-3.91
40
0.00688976
0
CIRCLE
8
BLACK
10
5.37
20
-4.01
40
0.00688976
0
CIRCLE
8
BLACK
10
5.27
20
-3.91
40
0.00688976
0
CIRCLE
8
BLACK
10
5.27
20
-4.01
40
0.00688976
0
CIRCLE
8
BLACK
10
5.17
20
-3.91
40
0.00688976
0
CIRCLE
8
BLACK
10
5.17
20
-4.01
40
0.00688976
0
CIRCLE
8
BLACK
10
4.98
20
-3.91
40
0.00688976
0
CIRCLE
8
BLACK
10
4.98
20
-4.01
40
0.00688976
0
CIRCLE
8
BLACK
10
4.88
20
-3.91
40
0.00688976
0
CIRCLE
8
BLACK
10
4.88
20
-4.01
40
0.00688976
0
CIRCLE
8
BLACK
10
5.8
20
-4.4
40
0.00688976
0
CIRCLE
8
BLACK
10
4.6
20
-4
40
0.00688976
0
CIRCLE
8
BLACK
10
5.36
20
-4.5
40
0.00688976
0
CIRCLE
8
BLACK
10
5.36
20
-4.4
40
0.00688976
0
CIRCLE
8
BLACK
10
5.46
20
-4.5
40
0.00688976
0
CIRCLE
8
BLACK
10
5.46
20
-4.4
40
0.00688976
0
CIRCLE
8
BLACK
10
5.56
20
-4.5
40
0.00688976
0
CIRCLE
8
BLACK
10
5.56
20
-4.4
40
0.00688976
0
CIRCLE
8
BLACK
10
5.8
20
-4
40
0.00688976
0
CIRCLE
8
BLACK
10
4.6
20
-4.4
40
0.00688976
0
CIRCLE
8
BLACK
10
5.18898
20
-4.4252
40
0.00787402
0
CIRCLE
8
BLACK
10
5.4611
20
-4.23622
40
0.00787402
0
CIRCLE
8
BLACK
10
5.04218
20
-4.37402
40
0.00787402
0
CIRCLE
8
BLACK
10
5.01
20
-4.52
40
0.00787402
0
CIRCLE
8
BLACK
10
5.25
20
-4.19
40
0.00787402
0
CIRCLE
8
BLACK
10
5.29
20
-4.19
40
0.00787402
0
CIRCLE
8
BLACK
10
5.37
20
-4.19
40
0.00787402
0
CIRCLE
8
BLACK
10
5.01
20
-4.44
40
0.00787402
0
CIRCLE
8
BLACK
10
5.33
20
-4.19
40
0.00787402
0
CIRCLE
8
BLACK
10
5.09
20
-4.35
40
0.00787402
0
CIRCLE
8
BLACK
10
5.01
20
-4.48
40
0.00787402
  0
ENDSEC
  0
EOF
