  0
SECTION
  2
HEADER
  9
$ANGBASE
  50
0.0
  9
$ANGDIR
  70
1
  9
$MEASUREMENT
  70
0
  0
ENDSEC
  0
SECTION
  2
TABLES
  0
TABLE
  2
LTYPE
  70
4
  0
LTYPE
  5
40F
  2
CONTINUOUS
  70
0
  3
Solid line
  72
65
  73
0
  40
0.0
  0
LTYPE
  5
410
  2
DASHDOT
 70
0
  3
Dash Dot ____ _ ____ _
 72
65
 73
4
 40
2.0
 49
1.25
 49
-0.25
 49
0.25
 49
-0.25
  0
LTYPE
  5
411
  2
DASHED
 70
0
  3
Dashed __ __ __ __ __
 72
65
 73
2
 40
0.75
 49
0.5
 49
-0.25
  0
LTYPE
  5
43B
  2
DOTTED
 70
0
  3
Dotted .  .  .  .
 72
65
 73
2
 40
0.2
 49
0.0
 49
-0.2
  0
ENDTAB
  0
TABLE
  2
STYLE
  70
4
  0
STYLE
  2
KICAD
  70
0
  40
0
  41
1
  42
1
  50
0
  71
0
  3
isocp.shx
  0
STYLE
  2
KICADB
  70
0
  40
0
  41
1
  42
1
  50
0
  71
0
  3
isocp.shx
  0
STYLE
  2
KICADI
  70
0
  40
0
  41
1
  42
1
  50
15
  71
0
  3
isocp.shx
  0
STYLE
  2
KICADBI
  70
0
  40
0
  41
1
  42
1
  50
15
  71
0
  3
isocp.shx
  0
ENDTAB
  0
TABLE
  2
LAYER
  70
1
  0
LAYER
  2
BLACK
  70
0
  62
7
  6
CONTINUOUS
  0
ENDTAB
  0
ENDSEC
  0
SECTION
  2
ENTITIES
0
LINE
8
BLACK
6
CONTINUOUS
10
5.46487
20
-4.19502
11
5.46926
21
-4.19726
0
LINE
8
BLACK
6
CONTINUOUS
10
5.46926
20
-4.19726
11
5.47274
21
-4.20074
0
LINE
8
BLACK
6
CONTINUOUS
10
5.47274
20
-4.20074
11
5.47498
21
-4.20513
0
LINE
8
BLACK
6
CONTINUOUS
10
5.47498
20
-4.20513
11
5.47575
21
-4.21
0
LINE
8
BLACK
6
CONTINUOUS
10
5.47575
20
-4.21
11
5.47498
21
-4.21487
0
LINE
8
BLACK
6
CONTINUOUS
10
5.47498
20
-4.21487
11
5.47274
21
-4.21926
0
LINE
8
BLACK
6
CONTINUOUS
10
5.47274
20
-4.21926
11
5.4711
21
-4.22089
0
LINE
8
BLACK
6
CONTINUOUS
10
5.4711
20
-4.22089
11
5.4711
21
-4.23654
0
LINE
8
BLACK
6
CONTINUOUS
10
5.4711
20
-4.23654
11
5.48669
21
-4.23654
0
LINE
8
BLACK
6
CONTINUOUS
10
5.48669
20
-4.23654
11
5.48669
21
-4.30346
0
LINE
8
BLACK
6
CONTINUOUS
10
5.48669
20
-4.30346
11
5.4711
21
-4.30346
0
LINE
8
BLACK
6
CONTINUOUS
10
5.4711
20
-4.30346
11
5.4711
21
-4.37
0
LINE
8
BLACK
6
CONTINUOUS
10
5.4711
20
-4.37
11
5.49
21
-4.37
0
LINE
8
BLACK
6
CONTINUOUS
10
5.49
20
-4.37
11
5.49
21
-4.43
0
LINE
8
BLACK
6
CONTINUOUS
10
5.49
20
-4.43
11
5.47
21
-4.43
0
LINE
8
BLACK
6
CONTINUOUS
10
5.47
20
-4.43
11
5.47
21
-4.47
0
LINE
8
BLACK
6
CONTINUOUS
10
5.47
20
-4.47
11
5.49
21
-4.47
0
LINE
8
BLACK
6
CONTINUOUS
10
5.49
20
-4.47
11
5.49
21
-4.53
0
LINE
8
BLACK
6
CONTINUOUS
10
5.49
20
-4.53
11
5.43
21
-4.53
0
LINE
8
BLACK
6
CONTINUOUS
10
5.43
20
-4.53
11
5.43
21
-4.47
0
LINE
8
BLACK
6
CONTINUOUS
10
5.43
20
-4.47
11
5.45
21
-4.47
0
LINE
8
BLACK
6
CONTINUOUS
10
5.45
20
-4.47
11
5.45
21
-4.43
0
LINE
8
BLACK
6
CONTINUOUS
10
5.45
20
-4.43
11
5.43
21
-4.43
0
LINE
8
BLACK
6
CONTINUOUS
10
5.43
20
-4.43
11
5.43
21
-4.37
0
LINE
8
BLACK
6
CONTINUOUS
10
5.43
20
-4.37
11
5.4511
21
-4.37
0
LINE
8
BLACK
6
CONTINUOUS
10
5.4511
20
-4.37
11
5.4511
21
-4.30346
0
LINE
8
BLACK
6
CONTINUOUS
10
5.4511
20
-4.30346
11
5.43551
21
-4.30346
0
LINE
8
BLACK
6
CONTINUOUS
10
5.43551
20
-4.30346
11
5.43551
21
-4.28
0
LINE
8
BLACK
6
CONTINUOUS
10
5.43551
20
-4.28
11
5.41621
21
-4.28
0
LINE
8
BLACK
6
CONTINUOUS
10
5.41621
20
-4.28
11
5.39638
21
-4.29983
0
LINE
8
BLACK
6
CONTINUOUS
10
5.39638
20
-4.29983
11
5.3964
21
-4.29986
0
LINE
8
BLACK
6
CONTINUOUS
10
5.3964
20
-4.29986
11
5.39715
21
-4.30362
0
LINE
8
BLACK
6
CONTINUOUS
10
5.39715
20
-4.30362
11
5.39715
21
-4.32331
0
LINE
8
BLACK
6
CONTINUOUS
10
5.39715
20
-4.32331
11
5.3964
21
-4.32707
0
LINE
8
BLACK
6
CONTINUOUS
10
5.3964
20
-4.32707
11
5.39427
21
-4.33027
0
LINE
8
BLACK
6
CONTINUOUS
10
5.39427
20
-4.33027
11
5.39107
21
-4.3324
0
LINE
8
BLACK
6
CONTINUOUS
10
5.39107
20
-4.3324
11
5.38731
21
-4.33315
0
LINE
8
BLACK
6
CONTINUOUS
10
5.38731
20
-4.33315
11
5.34991
21
-4.33315
0
LINE
8
BLACK
6
CONTINUOUS
10
5.34991
20
-4.33315
11
5.34614
21
-4.3324
0
LINE
8
BLACK
6
CONTINUOUS
10
5.34614
20
-4.3324
11
5.34295
21
-4.33027
0
LINE
8
BLACK
6
CONTINUOUS
10
5.34295
20
-4.33027
11
5.34081
21
-4.32707
0
LINE
8
BLACK
6
CONTINUOUS
10
5.34081
20
-4.32707
11
5.34009
21
-4.32346
0
LINE
8
BLACK
6
CONTINUOUS
10
5.34009
20
-4.32346
11
5.30712
21
-4.32346
0
LINE
8
BLACK
6
CONTINUOUS
10
5.30712
20
-4.32346
11
5.3064
21
-4.32707
0
LINE
8
BLACK
6
CONTINUOUS
10
5.3064
20
-4.32707
11
5.30427
21
-4.33027
0
LINE
8
BLACK
6
CONTINUOUS
10
5.30427
20
-4.33027
11
5.30107
21
-4.3324
0
LINE
8
BLACK
6
CONTINUOUS
10
5.30107
20
-4.3324
11
5.29731
21
-4.33315
0
LINE
8
BLACK
6
CONTINUOUS
10
5.29731
20
-4.33315
11
5.28461
21
-4.33315
0
LINE
8
BLACK
6
CONTINUOUS
10
5.28461
20
-4.33315
11
5.28461
21
-4.43346
0
LINE
8
BLACK
6
CONTINUOUS
10
5.28461
20
-4.43346
11
5.28385
21
-4.43729
0
LINE
8
BLACK
6
CONTINUOUS
10
5.28385
20
-4.43729
11
5.28177
21
-4.4404
0
LINE
8
BLACK
6
CONTINUOUS
10
5.28177
20
-4.4404
11
5.28168
21
-4.44054
0
LINE
8
BLACK
6
CONTINUOUS
10
5.28168
20
-4.44054
11
5.24168
21
-4.48054
0
LINE
8
BLACK
6
CONTINUOUS
10
5.24168
20
-4.48054
11
5.24168
21
-4.48054
0
LINE
8
BLACK
6
CONTINUOUS
10
5.24168
20
-4.48054
11
5.23843
21
-4.4827
0
LINE
8
BLACK
6
CONTINUOUS
10
5.23843
20
-4.4827
11
5.23461
21
-4.48346
0
LINE
8
BLACK
6
CONTINUOUS
10
5.23461
20
-4.48346
11
5.19545
21
-4.48346
0
LINE
8
BLACK
6
CONTINUOUS
10
5.19545
20
-4.48346
11
5.19468
21
-4.48885
0
LINE
8
BLACK
6
CONTINUOUS
10
5.19468
20
-4.48885
11
5.19235
21
-4.49395
0
LINE
8
BLACK
6
CONTINUOUS
10
5.19235
20
-4.49395
11
5.18868
21
-4.49818
0
LINE
8
BLACK
6
CONTINUOUS
10
5.18868
20
-4.49818
11
5.18396
21
-4.50121
0
LINE
8
BLACK
6
CONTINUOUS
10
5.18396
20
-4.50121
11
5.17859
21
-4.50279
0
LINE
8
BLACK
6
CONTINUOUS
10
5.17859
20
-4.50279
11
5.17579
21
-4.50279
0
LINE
8
BLACK
6
CONTINUOUS
10
5.17579
20
-4.50279
11
5.17579
21
-4.50299
0
LINE
8
BLACK
6
CONTINUOUS
10
5.17579
20
-4.50299
11
5.15413
21
-4.50299
0
LINE
8
BLACK
6
CONTINUOUS
10
5.15413
20
-4.50299
11
5.15413
21
-4.48528
0
LINE
8
BLACK
6
CONTINUOUS
10
5.15413
20
-4.48528
11
5.14429
21
-4.48528
0
LINE
8
BLACK
6
CONTINUOUS
10
5.14429
20
-4.48528
11
5.14429
21
-4.50299
0
LINE
8
BLACK
6
CONTINUOUS
10
5.14429
20
-4.50299
11
5.10492
21
-4.50299
0
LINE
8
BLACK
6
CONTINUOUS
10
5.10492
20
-4.50299
11
5.10492
21
-4.44394
0
LINE
8
BLACK
6
CONTINUOUS
10
5.10492
20
-4.44394
11
5.11711
21
-4.44394
0
LINE
8
BLACK
6
CONTINUOUS
10
5.11711
20
-4.44394
11
5.11711
21
-4.37539
0
LINE
8
BLACK
6
CONTINUOUS
10
5.11711
20
-4.37539
11
5.11739
21
-4.37417
0
LINE
8
BLACK
6
CONTINUOUS
10
5.11739
20
-4.37417
11
5.11753
21
-4.37292
0
LINE
8
BLACK
6
CONTINUOUS
10
5.11753
20
-4.37292
11
5.11775
21
-4.37256
0
LINE
8
BLACK
6
CONTINUOUS
10
5.11775
20
-4.37256
11
5.11785
21
-4.37214
0
LINE
8
BLACK
6
CONTINUOUS
10
5.11785
20
-4.37214
11
5.11863
21
-4.37116
0
LINE
8
BLACK
6
CONTINUOUS
10
5.11863
20
-4.37116
11
5.1193
21
-4.37009
0
LINE
8
BLACK
6
CONTINUOUS
10
5.1193
20
-4.37009
11
5.13311
21
-4.35629
0
LINE
8
BLACK
6
CONTINUOUS
10
5.13311
20
-4.35629
11
5.13311
21
-4.31781
0
LINE
8
BLACK
6
CONTINUOUS
10
5.13311
20
-4.31781
11
5.12978
21
-4.31781
0
LINE
8
BLACK
6
CONTINUOUS
10
5.12978
20
-4.31781
11
5.12978
21
-4.28041
0
LINE
8
BLACK
6
CONTINUOUS
10
5.12978
20
-4.28041
11
5.15143
21
-4.28041
0
LINE
8
BLACK
6
CONTINUOUS
10
5.15143
20
-4.28041
11
5.15143
21
-4.31781
0
LINE
8
BLACK
6
CONTINUOUS
10
5.15143
20
-4.31781
11
5.14811
21
-4.31781
0
LINE
8
BLACK
6
CONTINUOUS
10
5.14811
20
-4.31781
11
5.14811
21
-4.35939
0
LINE
8
BLACK
6
CONTINUOUS
10
5.14811
20
-4.35939
11
5.14783
21
-4.36062
0
LINE
8
BLACK
6
CONTINUOUS
10
5.14783
20
-4.36062
11
5.14769
21
-4.36187
0
LINE
8
BLACK
6
CONTINUOUS
10
5.14769
20
-4.36187
11
5.14746
21
-4.36223
0
LINE
8
BLACK
6
CONTINUOUS
10
5.14746
20
-4.36223
11
5.14736
21
-4.36265
0
LINE
8
BLACK
6
CONTINUOUS
10
5.14736
20
-4.36265
11
5.14658
21
-4.36363
0
LINE
8
BLACK
6
CONTINUOUS
10
5.14658
20
-4.36363
11
5.14591
21
-4.3647
0
LINE
8
BLACK
6
CONTINUOUS
10
5.14591
20
-4.3647
11
5.13211
21
-4.3785
0
LINE
8
BLACK
6
CONTINUOUS
10
5.13211
20
-4.3785
11
5.13211
21
-4.44394
0
LINE
8
BLACK
6
CONTINUOUS
10
5.13211
20
-4.44394
11
5.14429
21
-4.44394
0
LINE
8
BLACK
6
CONTINUOUS
10
5.14429
20
-4.44394
11
5.14429
21
-4.46165
0
LINE
8
BLACK
6
CONTINUOUS
10
5.14429
20
-4.46165
11
5.15413
21
-4.46165
0
LINE
8
BLACK
6
CONTINUOUS
10
5.15413
20
-4.46165
11
5.15413
21
-4.44394
0
LINE
8
BLACK
6
CONTINUOUS
10
5.15413
20
-4.44394
11
5.17579
21
-4.44394
0
LINE
8
BLACK
6
CONTINUOUS
10
5.17579
20
-4.44394
11
5.17579
21
-4.44414
0
LINE
8
BLACK
6
CONTINUOUS
10
5.17579
20
-4.44414
11
5.17859
21
-4.44414
0
LINE
8
BLACK
6
CONTINUOUS
10
5.17859
20
-4.44414
11
5.18396
21
-4.44572
0
LINE
8
BLACK
6
CONTINUOUS
10
5.18396
20
-4.44572
11
5.18868
21
-4.44875
0
LINE
8
BLACK
6
CONTINUOUS
10
5.18868
20
-4.44875
11
5.19235
21
-4.45298
0
LINE
8
BLACK
6
CONTINUOUS
10
5.19235
20
-4.45298
11
5.19468
21
-4.45808
0
LINE
8
BLACK
6
CONTINUOUS
10
5.19468
20
-4.45808
11
5.19545
21
-4.46346
0
LINE
8
BLACK
6
CONTINUOUS
10
5.19545
20
-4.46346
11
5.23046
21
-4.46346
0
LINE
8
BLACK
6
CONTINUOUS
10
5.23046
20
-4.46346
11
5.26461
21
-4.42932
0
LINE
8
BLACK
6
CONTINUOUS
10
5.26461
20
-4.42932
11
5.26461
21
-4.33315
0
LINE
8
BLACK
6
CONTINUOUS
10
5.26461
20
-4.33315
11
5.25991
21
-4.33315
0
LINE
8
BLACK
6
CONTINUOUS
10
5.25991
20
-4.33315
11
5.25614
21
-4.3324
0
LINE
8
BLACK
6
CONTINUOUS
10
5.25614
20
-4.3324
11
5.25295
21
-4.33027
0
LINE
8
BLACK
6
CONTINUOUS
10
5.25295
20
-4.33027
11
5.25081
21
-4.32707
0
LINE
8
BLACK
6
CONTINUOUS
10
5.25081
20
-4.32707
11
5.25009
21
-4.32346
0
LINE
8
BLACK
6
CONTINUOUS
10
5.25009
20
-4.32346
11
5.23461
21
-4.32346
0
LINE
8
BLACK
6
CONTINUOUS
10
5.23461
20
-4.32346
11
5.23078
21
-4.3227
0
LINE
8
BLACK
6
CONTINUOUS
10
5.23078
20
-4.3227
11
5.22754
21
-4.32054
0
LINE
8
BLACK
6
CONTINUOUS
10
5.22754
20
-4.32054
11
5.21611
21
-4.30911
0
LINE
8
BLACK
6
CONTINUOUS
10
5.21611
20
-4.30911
11
5.20065
21
-4.30911
0
LINE
8
BLACK
6
CONTINUOUS
10
5.20065
20
-4.30911
11
5.20065
21
-4.31781
0
LINE
8
BLACK
6
CONTINUOUS
10
5.20065
20
-4.31781
11
5.17899
21
-4.31781
0
LINE
8
BLACK
6
CONTINUOUS
10
5.17899
20
-4.31781
11
5.17899
21
-4.28041
0
LINE
8
BLACK
6
CONTINUOUS
10
5.17899
20
-4.28041
11
5.20065
21
-4.28041
0
LINE
8
BLACK
6
CONTINUOUS
10
5.20065
20
-4.28041
11
5.20065
21
-4.28911
0
LINE
8
BLACK
6
CONTINUOUS
10
5.20065
20
-4.28911
11
5.22025
21
-4.28911
0
LINE
8
BLACK
6
CONTINUOUS
10
5.22025
20
-4.28911
11
5.22408
21
-4.28987
0
LINE
8
BLACK
6
CONTINUOUS
10
5.22408
20
-4.28987
11
5.22659
21
-4.29155
0
LINE
8
BLACK
6
CONTINUOUS
10
5.22659
20
-4.29155
11
5.22732
21
-4.29204
0
LINE
8
BLACK
6
CONTINUOUS
10
5.22732
20
-4.29204
11
5.23875
21
-4.30346
0
LINE
8
BLACK
6
CONTINUOUS
10
5.23875
20
-4.30346
11
5.25009
21
-4.30346
0
LINE
8
BLACK
6
CONTINUOUS
10
5.25009
20
-4.30346
11
5.25081
21
-4.29986
0
LINE
8
BLACK
6
CONTINUOUS
10
5.25081
20
-4.29986
11
5.25295
21
-4.29666
0
LINE
8
BLACK
6
CONTINUOUS
10
5.25295
20
-4.29666
11
5.25614
21
-4.29453
0
LINE
8
BLACK
6
CONTINUOUS
10
5.25614
20
-4.29453
11
5.25991
21
-4.29378
0
LINE
8
BLACK
6
CONTINUOUS
10
5.25991
20
-4.29378
11
5.29731
21
-4.29378
0
LINE
8
BLACK
6
CONTINUOUS
10
5.29731
20
-4.29378
11
5.30107
21
-4.29453
0
LINE
8
BLACK
6
CONTINUOUS
10
5.30107
20
-4.29453
11
5.30427
21
-4.29666
0
LINE
8
BLACK
6
CONTINUOUS
10
5.30427
20
-4.29666
11
5.3064
21
-4.29986
0
LINE
8
BLACK
6
CONTINUOUS
10
5.3064
20
-4.29986
11
5.30712
21
-4.30346
0
LINE
8
BLACK
6
CONTINUOUS
10
5.30712
20
-4.30346
11
5.34009
21
-4.30346
0
LINE
8
BLACK
6
CONTINUOUS
10
5.34009
20
-4.30346
11
5.34081
21
-4.29986
0
LINE
8
BLACK
6
CONTINUOUS
10
5.34081
20
-4.29986
11
5.34295
21
-4.29666
0
LINE
8
BLACK
6
CONTINUOUS
10
5.34295
20
-4.29666
11
5.34614
21
-4.29453
0
LINE
8
BLACK
6
CONTINUOUS
10
5.34614
20
-4.29453
11
5.34991
21
-4.29378
0
LINE
8
BLACK
6
CONTINUOUS
10
5.34991
20
-4.29378
11
5.37415
21
-4.29378
0
LINE
8
BLACK
6
CONTINUOUS
10
5.37415
20
-4.29378
11
5.405
21
-4.26293
0
LINE
8
BLACK
6
CONTINUOUS
10
5.405
20
-4.26293
11
5.40824
21
-4.26076
0
LINE
8
BLACK
6
CONTINUOUS
10
5.40824
20
-4.26076
11
5.41207
21
-4.26
0
LINE
8
BLACK
6
CONTINUOUS
10
5.41207
20
-4.26
11
5.43551
21
-4.26
0
LINE
8
BLACK
6
CONTINUOUS
10
5.43551
20
-4.26
11
5.43551
21
-4.23654
0
LINE
8
BLACK
6
CONTINUOUS
10
5.43551
20
-4.23654
11
5.4511
21
-4.23654
0
LINE
8
BLACK
6
CONTINUOUS
10
5.4511
20
-4.23654
11
5.4511
21
-4.22292
0
LINE
8
BLACK
6
CONTINUOUS
10
5.4511
20
-4.22292
11
5.45074
21
-4.22274
0
LINE
8
BLACK
6
CONTINUOUS
10
5.45074
20
-4.22274
11
5.44726
21
-4.21926
0
LINE
8
BLACK
6
CONTINUOUS
10
5.44726
20
-4.21926
11
5.44502
21
-4.21487
0
LINE
8
BLACK
6
CONTINUOUS
10
5.44502
20
-4.21487
11
5.44425
21
-4.21
0
LINE
8
BLACK
6
CONTINUOUS
10
5.44425
20
-4.21
11
5.44502
21
-4.20513
0
LINE
8
BLACK
6
CONTINUOUS
10
5.44502
20
-4.20513
11
5.44726
21
-4.20074
0
LINE
8
BLACK
6
CONTINUOUS
10
5.44726
20
-4.20074
11
5.45074
21
-4.19726
0
LINE
8
BLACK
6
CONTINUOUS
10
5.45074
20
-4.19726
11
5.45513
21
-4.19502
0
LINE
8
BLACK
6
CONTINUOUS
10
5.45513
20
-4.19502
11
5.46
21
-4.19425
0
LINE
8
BLACK
6
CONTINUOUS
10
5.46
20
-4.19425
11
5.46487
21
-4.19502
0
LINE
8
BLACK
6
CONTINUOUS
10
4.91
20
-3.94
11
4.8875
21
-3.94
0
LINE
8
BLACK
6
CONTINUOUS
10
4.8875
20
-3.94
11
4.8875
21
-3.98
0
LINE
8
BLACK
6
CONTINUOUS
10
4.8875
20
-3.98
11
4.91
21
-3.98
0
LINE
8
BLACK
6
CONTINUOUS
10
4.91
20
-3.98
11
4.91
21
-4.04
0
LINE
8
BLACK
6
CONTINUOUS
10
4.91
20
-4.04
11
4.8875
21
-4.04
0
LINE
8
BLACK
6
CONTINUOUS
10
4.8875
20
-4.04
11
4.8875
21
-4.06689
0
LINE
8
BLACK
6
CONTINUOUS
10
4.8875
20
-4.06689
11
4.95311
21
-4.1325
0
LINE
8
BLACK
6
CONTINUOUS
10
4.95311
20
-4.1325
11
5
21
-4.1325
0
LINE
8
BLACK
6
CONTINUOUS
10
5
20
-4.1325
11
5.00123
21
-4.13278
0
LINE
8
BLACK
6
CONTINUOUS
10
5.00123
20
-4.13278
11
5.00248
21
-4.13292
0
LINE
8
BLACK
6
CONTINUOUS
10
5.00248
20
-4.13292
11
5.00284
21
-4.13315
0
LINE
8
BLACK
6
CONTINUOUS
10
5.00284
20
-4.13315
11
5.00325
21
-4.13324
0
LINE
8
BLACK
6
CONTINUOUS
10
5.00325
20
-4.13324
11
5.00424
21
-4.13403
0
LINE
8
BLACK
6
CONTINUOUS
10
5.00424
20
-4.13403
11
5.0053
21
-4.1347
0
LINE
8
BLACK
6
CONTINUOUS
10
5.0053
20
-4.1347
11
5.04748
21
-4.17688
0
LINE
8
BLACK
6
CONTINUOUS
10
5.04748
20
-4.17688
11
5.04815
21
-4.17794
0
LINE
8
BLACK
6
CONTINUOUS
10
5.04815
20
-4.17794
11
5.04894
21
-4.17893
0
LINE
8
BLACK
6
CONTINUOUS
10
5.04894
20
-4.17893
11
5.04903
21
-4.17934
0
LINE
8
BLACK
6
CONTINUOUS
10
5.04903
20
-4.17934
11
5.04926
21
-4.1797
0
LINE
8
BLACK
6
CONTINUOUS
10
5.04926
20
-4.1797
11
5.0494
21
-4.18095
0
LINE
8
BLACK
6
CONTINUOUS
10
5.0494
20
-4.18095
11
5.04968
21
-4.18218
0
LINE
8
BLACK
6
CONTINUOUS
10
5.04968
20
-4.18218
11
5.04968
21
-4.19576
0
LINE
8
BLACK
6
CONTINUOUS
10
5.04968
20
-4.19576
11
5.05301
21
-4.19576
0
LINE
8
BLACK
6
CONTINUOUS
10
5.05301
20
-4.19576
11
5.05301
21
-4.23317
0
LINE
8
BLACK
6
CONTINUOUS
10
5.05301
20
-4.23317
11
5.04968
21
-4.23317
0
LINE
8
BLACK
6
CONTINUOUS
10
5.04968
20
-4.23317
11
5.04968
21
-4.28041
0
LINE
8
BLACK
6
CONTINUOUS
10
5.04968
20
-4.28041
11
5.05301
21
-4.28041
0
LINE
8
BLACK
6
CONTINUOUS
10
5.05301
20
-4.28041
11
5.05301
21
-4.31781
0
LINE
8
BLACK
6
CONTINUOUS
10
5.05301
20
-4.31781
11
5.04968
21
-4.31781
0
LINE
8
BLACK
6
CONTINUOUS
10
5.04968
20
-4.31781
11
5.04968
21
-4.33636
0
LINE
8
BLACK
6
CONTINUOUS
10
5.04968
20
-4.33636
11
5.05144
21
-4.33726
0
LINE
8
BLACK
6
CONTINUOUS
10
5.05144
20
-4.33726
11
5.05492
21
-4.34074
0
LINE
8
BLACK
6
CONTINUOUS
10
5.05492
20
-4.34074
11
5.05716
21
-4.34513
0
LINE
8
BLACK
6
CONTINUOUS
10
5.05716
20
-4.34513
11
5.05793
21
-4.35
0
LINE
8
BLACK
6
CONTINUOUS
10
5.05793
20
-4.35
11
5.05716
21
-4.35487
0
LINE
8
BLACK
6
CONTINUOUS
10
5.05716
20
-4.35487
11
5.05492
21
-4.35926
0
LINE
8
BLACK
6
CONTINUOUS
10
5.05492
20
-4.35926
11
5.05144
21
-4.36274
0
LINE
8
BLACK
6
CONTINUOUS
10
5.05144
20
-4.36274
11
5.04705
21
-4.36498
0
LINE
8
BLACK
6
CONTINUOUS
10
5.04705
20
-4.36498
11
5.04218
21
-4.36575
0
LINE
8
BLACK
6
CONTINUOUS
10
5.04218
20
-4.36575
11
5.03731
21
-4.36498
0
LINE
8
BLACK
6
CONTINUOUS
10
5.03731
20
-4.36498
11
5.03292
21
-4.36274
0
LINE
8
BLACK
6
CONTINUOUS
10
5.03292
20
-4.36274
11
5.02944
21
-4.35926
0
LINE
8
BLACK
6
CONTINUOUS
10
5.02944
20
-4.35926
11
5.0272
21
-4.35487
0
LINE
8
BLACK
6
CONTINUOUS
10
5.0272
20
-4.35487
11
5.02643
21
-4.35
0
LINE
8
BLACK
6
CONTINUOUS
10
5.02643
20
-4.35
11
5.0272
21
-4.34513
0
LINE
8
BLACK
6
CONTINUOUS
10
5.0272
20
-4.34513
11
5.02944
21
-4.34074
0
LINE
8
BLACK
6
CONTINUOUS
10
5.02944
20
-4.34074
11
5.03292
21
-4.33726
0
LINE
8
BLACK
6
CONTINUOUS
10
5.03292
20
-4.33726
11
5.03468
21
-4.33636
0
LINE
8
BLACK
6
CONTINUOUS
10
5.03468
20
-4.33636
11
5.03468
21
-4.31781
0
LINE
8
BLACK
6
CONTINUOUS
10
5.03468
20
-4.31781
11
5.03135
21
-4.31781
0
LINE
8
BLACK
6
CONTINUOUS
10
5.03135
20
-4.31781
11
5.03135
21
-4.28041
0
LINE
8
BLACK
6
CONTINUOUS
10
5.03135
20
-4.28041
11
5.03468
21
-4.28041
0
LINE
8
BLACK
6
CONTINUOUS
10
5.03468
20
-4.28041
11
5.03468
21
-4.23317
0
LINE
8
BLACK
6
CONTINUOUS
10
5.03468
20
-4.23317
11
5.03135
21
-4.23317
0
LINE
8
BLACK
6
CONTINUOUS
10
5.03135
20
-4.23317
11
5.03135
21
-4.19576
0
LINE
8
BLACK
6
CONTINUOUS
10
5.03135
20
-4.19576
11
5.03468
21
-4.19576
0
LINE
8
BLACK
6
CONTINUOUS
10
5.03468
20
-4.19576
11
5.03468
21
-4.18529
0
LINE
8
BLACK
6
CONTINUOUS
10
5.03468
20
-4.18529
11
4.99689
21
-4.1475
0
LINE
8
BLACK
6
CONTINUOUS
10
4.99689
20
-4.1475
11
4.95
21
-4.1475
0
LINE
8
BLACK
6
CONTINUOUS
10
4.95
20
-4.1475
11
4.94877
21
-4.14722
0
LINE
8
BLACK
6
CONTINUOUS
10
4.94877
20
-4.14722
11
4.94752
21
-4.14708
0
LINE
8
BLACK
6
CONTINUOUS
10
4.94752
20
-4.14708
11
4.94716
21
-4.14685
0
LINE
8
BLACK
6
CONTINUOUS
10
4.94716
20
-4.14685
11
4.94675
21
-4.14676
0
LINE
8
BLACK
6
CONTINUOUS
10
4.94675
20
-4.14676
11
4.94576
21
-4.14597
0
LINE
8
BLACK
6
CONTINUOUS
10
4.94576
20
-4.14597
11
4.9447
21
-4.1453
0
LINE
8
BLACK
6
CONTINUOUS
10
4.9447
20
-4.1453
11
4.8747
21
-4.0753
0
LINE
8
BLACK
6
CONTINUOUS
10
4.8747
20
-4.0753
11
4.87403
21
-4.07424
0
LINE
8
BLACK
6
CONTINUOUS
10
4.87403
20
-4.07424
11
4.87324
21
-4.07325
0
LINE
8
BLACK
6
CONTINUOUS
10
4.87324
20
-4.07325
11
4.87315
21
-4.07284
0
LINE
8
BLACK
6
CONTINUOUS
10
4.87315
20
-4.07284
11
4.87292
21
-4.07248
0
LINE
8
BLACK
6
CONTINUOUS
10
4.87292
20
-4.07248
11
4.87278
21
-4.07123
0
LINE
8
BLACK
6
CONTINUOUS
10
4.87278
20
-4.07123
11
4.8725
21
-4.07
0
LINE
8
BLACK
6
CONTINUOUS
10
4.8725
20
-4.07
11
4.8725
21
-4.04
0
LINE
8
BLACK
6
CONTINUOUS
10
4.8725
20
-4.04
11
4.85
21
-4.04
0
LINE
8
BLACK
6
CONTINUOUS
10
4.85
20
-4.04
11
4.85
21
-3.98
0
LINE
8
BLACK
6
CONTINUOUS
10
4.85
20
-3.98
11
4.8725
21
-3.98
0
LINE
8
BLACK
6
CONTINUOUS
10
4.8725
20
-3.98
11
4.8725
21
-3.94
0
LINE
8
BLACK
6
CONTINUOUS
10
4.8725
20
-3.94
11
4.85
21
-3.94
0
LINE
8
BLACK
6
CONTINUOUS
10
4.85
20
-3.94
11
4.85
21
-3.88
0
LINE
8
BLACK
6
CONTINUOUS
10
4.85
20
-3.88
11
4.91
21
-3.88
0
LINE
8
BLACK
6
CONTINUOUS
10
4.91
20
-3.88
11
4.91
21
-3.94
0
LINE
8
BLACK
6
CONTINUOUS
10
5.37487
20
-4.17502
11
5.37926
21
-4.17726
0
LINE
8
BLACK
6
CONTINUOUS
10
5.37926
20
-4.17726
11
5.38274
21
-4.18074
0
LINE
8
BLACK
6
CONTINUOUS
10
5.38274
20
-4.18074
11
5.38281
21
-4.18089
0
LINE
8
BLACK
6
CONTINUOUS
10
5.38281
20
-4.18089
11
5.42754
21
-4.18089
0
LINE
8
BLACK
6
CONTINUOUS
10
5.42754
20
-4.18089
11
5.43018
21
-4.18166
0
LINE
8
BLACK
6
CONTINUOUS
10
5.43018
20
-4.18166
11
5.43198
21
-4.18374
0
LINE
8
BLACK
6
CONTINUOUS
10
5.43198
20
-4.18374
11
5.43238
21
-4.18646
0
LINE
8
BLACK
6
CONTINUOUS
10
5.43238
20
-4.18646
11
5.43129
21
-4.18883
0
LINE
8
BLACK
6
CONTINUOUS
10
5.43129
20
-4.18883
11
5.43131
21
-4.18884
0
LINE
8
BLACK
6
CONTINUOUS
10
5.43131
20
-4.18884
11
5.43125
21
-4.18892
0
LINE
8
BLACK
6
CONTINUOUS
10
5.43125
20
-4.18892
11
5.43123
21
-4.18896
0
LINE
8
BLACK
6
CONTINUOUS
10
5.43123
20
-4.18896
11
5.43117
21
-4.18903
0
LINE
8
BLACK
6
CONTINUOUS
10
5.43117
20
-4.18903
11
5.43116
21
-4.18905
0
LINE
8
BLACK
6
CONTINUOUS
10
5.43116
20
-4.18905
11
5.42743
21
-4.1955
0
LINE
8
BLACK
6
CONTINUOUS
10
5.42743
20
-4.1955
11
5.42743
21
-4.1955
0
LINE
8
BLACK
6
CONTINUOUS
10
5.42743
20
-4.1955
11
5.42536
21
-4.20188
0
LINE
8
BLACK
6
CONTINUOUS
10
5.42536
20
-4.20188
11
5.42513
21
-4.20259
0
LINE
8
BLACK
6
CONTINUOUS
10
5.42513
20
-4.20259
11
5.42483
21
-4.2055
0
LINE
8
BLACK
6
CONTINUOUS
10
5.42483
20
-4.2055
11
5.42435
21
-4.21
0
LINE
8
BLACK
6
CONTINUOUS
10
5.42435
20
-4.21
11
5.42506
21
-4.21677
0
LINE
8
BLACK
6
CONTINUOUS
10
5.42506
20
-4.21677
11
5.42457
21
-4.21947
0
LINE
8
BLACK
6
CONTINUOUS
10
5.42457
20
-4.21947
11
5.42313
21
-4.22119
0
LINE
8
BLACK
6
CONTINUOUS
10
5.42313
20
-4.22119
11
5.42275
21
-4.22147
0
LINE
8
BLACK
6
CONTINUOUS
10
5.42275
20
-4.22147
11
5.42018
21
-4.22243
0
LINE
8
BLACK
6
CONTINUOUS
10
5.42018
20
-4.22243
11
5.41749
21
-4.22185
0
LINE
8
BLACK
6
CONTINUOUS
10
5.41749
20
-4.22185
11
5.41554
21
-4.2199
0
LINE
8
BLACK
6
CONTINUOUS
10
5.41554
20
-4.2199
11
5.41519
21
-4.2191
0
LINE
8
BLACK
6
CONTINUOUS
10
5.41519
20
-4.2191
11
5.41425
21
-4.21626
0
LINE
8
BLACK
6
CONTINUOUS
10
5.41425
20
-4.21626
11
5.41425
21
-4.21625
0
LINE
8
BLACK
6
CONTINUOUS
10
5.41425
20
-4.21625
11
5.41063
21
-4.21038
0
LINE
8
BLACK
6
CONTINUOUS
10
5.41063
20
-4.21038
11
5.40575
21
-4.2055
0
LINE
8
BLACK
6
CONTINUOUS
10
5.40575
20
-4.2055
11
5.39987
21
-4.20188
0
LINE
8
BLACK
6
CONTINUOUS
10
5.39987
20
-4.20188
11
5.39987
21
-4.20188
0
LINE
8
BLACK
6
CONTINUOUS
10
5.39987
20
-4.20188
11
5.39332
21
-4.1997
0
LINE
8
BLACK
6
CONTINUOUS
10
5.39332
20
-4.1997
11
5.39332
21
-4.1997
0
LINE
8
BLACK
6
CONTINUOUS
10
5.39332
20
-4.1997
11
5.38928
21
-4.19929
0
LINE
8
BLACK
6
CONTINUOUS
10
5.38928
20
-4.19929
11
5.38271
21
-4.19929
0
LINE
8
BLACK
6
CONTINUOUS
10
5.38271
20
-4.19929
11
5.37926
21
-4.20274
0
LINE
8
BLACK
6
CONTINUOUS
10
5.37926
20
-4.20274
11
5.37845
21
-4.20315
0
LINE
8
BLACK
6
CONTINUOUS
10
5.37845
20
-4.20315
11
5.37845
21
-4.21898
0
LINE
8
BLACK
6
CONTINUOUS
10
5.37845
20
-4.21898
11
5.38731
21
-4.21898
0
LINE
8
BLACK
6
CONTINUOUS
10
5.38731
20
-4.21898
11
5.39107
21
-4.21973
0
LINE
8
BLACK
6
CONTINUOUS
10
5.39107
20
-4.21973
11
5.39427
21
-4.22186
0
LINE
8
BLACK
6
CONTINUOUS
10
5.39427
20
-4.22186
11
5.3964
21
-4.22505
0
LINE
8
BLACK
6
CONTINUOUS
10
5.3964
20
-4.22505
11
5.39715
21
-4.22882
0
LINE
8
BLACK
6
CONTINUOUS
10
5.39715
20
-4.22882
11
5.39715
21
-4.2485
0
LINE
8
BLACK
6
CONTINUOUS
10
5.39715
20
-4.2485
11
5.3964
21
-4.25227
0
LINE
8
BLACK
6
CONTINUOUS
10
5.3964
20
-4.25227
11
5.39427
21
-4.25546
0
LINE
8
BLACK
6
CONTINUOUS
10
5.39427
20
-4.25546
11
5.39107
21
-4.2576
0
LINE
8
BLACK
6
CONTINUOUS
10
5.39107
20
-4.2576
11
5.38731
21
-4.25835
0
LINE
8
BLACK
6
CONTINUOUS
10
5.38731
20
-4.25835
11
5.34991
21
-4.25835
0
LINE
8
BLACK
6
CONTINUOUS
10
5.34991
20
-4.25835
11
5.34614
21
-4.2576
0
LINE
8
BLACK
6
CONTINUOUS
10
5.34614
20
-4.2576
11
5.34295
21
-4.25546
0
LINE
8
BLACK
6
CONTINUOUS
10
5.34295
20
-4.25546
11
5.34081
21
-4.25227
0
LINE
8
BLACK
6
CONTINUOUS
10
5.34081
20
-4.25227
11
5.34006
21
-4.2485
0
LINE
8
BLACK
6
CONTINUOUS
10
5.34006
20
-4.2485
11
5.30715
21
-4.2485
0
LINE
8
BLACK
6
CONTINUOUS
10
5.30715
20
-4.2485
11
5.3064
21
-4.25227
0
LINE
8
BLACK
6
CONTINUOUS
10
5.3064
20
-4.25227
11
5.30427
21
-4.25546
0
LINE
8
BLACK
6
CONTINUOUS
10
5.30427
20
-4.25546
11
5.30107
21
-4.2576
0
LINE
8
BLACK
6
CONTINUOUS
10
5.30107
20
-4.2576
11
5.29731
21
-4.25835
0
LINE
8
BLACK
6
CONTINUOUS
10
5.29731
20
-4.25835
11
5.25991
21
-4.25835
0
LINE
8
BLACK
6
CONTINUOUS
10
5.25991
20
-4.25835
11
5.25614
21
-4.2576
0
LINE
8
BLACK
6
CONTINUOUS
10
5.25614
20
-4.2576
11
5.25295
21
-4.25546
0
LINE
8
BLACK
6
CONTINUOUS
10
5.25295
20
-4.25546
11
5.25081
21
-4.25227
0
LINE
8
BLACK
6
CONTINUOUS
10
5.25081
20
-4.25227
11
5.25006
21
-4.2485
0
LINE
8
BLACK
6
CONTINUOUS
10
5.25006
20
-4.2485
11
5.23038
21
-4.2485
0
LINE
8
BLACK
6
CONTINUOUS
10
5.23038
20
-4.2485
11
5.23038
21
-4.25047
0
LINE
8
BLACK
6
CONTINUOUS
10
5.23038
20
-4.25047
11
5.23079
21
-4.25452
0
LINE
8
BLACK
6
CONTINUOUS
10
5.23079
20
-4.25452
11
5.23296
21
-4.26107
0
LINE
8
BLACK
6
CONTINUOUS
10
5.23296
20
-4.26107
11
5.23296
21
-4.26107
0
LINE
8
BLACK
6
CONTINUOUS
10
5.23296
20
-4.26107
11
5.23433
21
-4.26328
0
LINE
8
BLACK
6
CONTINUOUS
10
5.23433
20
-4.26328
11
5.23505
21
-4.26593
0
LINE
8
BLACK
6
CONTINUOUS
10
5.23505
20
-4.26593
11
5.23423
21
-4.26856
0
LINE
8
BLACK
6
CONTINUOUS
10
5.23423
20
-4.26856
11
5.23212
21
-4.27032
0
LINE
8
BLACK
6
CONTINUOUS
10
5.23212
20
-4.27032
11
5.22939
21
-4.27066
0
LINE
8
BLACK
6
CONTINUOUS
10
5.22939
20
-4.27066
11
5.22918
21
-4.27062
0
LINE
8
BLACK
6
CONTINUOUS
10
5.22918
20
-4.27062
11
5.22771
21
-4.27032
0
LINE
8
BLACK
6
CONTINUOUS
10
5.22771
20
-4.27032
11
5.22668
21
-4.27011
0
LINE
8
BLACK
6
CONTINUOUS
10
5.22668
20
-4.27011
11
5.22408
21
-4.26949
0
LINE
8
BLACK
6
CONTINUOUS
10
5.22408
20
-4.26949
11
5.22372
21
-4.26941
0
LINE
8
BLACK
6
CONTINUOUS
10
5.22372
20
-4.26941
11
5.22344
21
-4.26937
0
LINE
8
BLACK
6
CONTINUOUS
10
5.22344
20
-4.26937
11
5.22344
21
-4.26937
0
LINE
8
BLACK
6
CONTINUOUS
10
5.22344
20
-4.26937
11
5.22314
21
-4.26934
0
LINE
8
BLACK
6
CONTINUOUS
10
5.22314
20
-4.26934
11
5.22314
21
-4.26934
0
LINE
8
BLACK
6
CONTINUOUS
10
5.22314
20
-4.26934
11
5.22286
21
-4.26932
0
LINE
8
BLACK
6
CONTINUOUS
10
5.22286
20
-4.26932
11
5.21982
21
-4.26941
0
LINE
8
BLACK
6
CONTINUOUS
10
5.21982
20
-4.26941
11
5.21947
21
-4.26941
0
LINE
8
BLACK
6
CONTINUOUS
10
5.21947
20
-4.26941
11
5.21683
21
-4.26863
0
LINE
8
BLACK
6
CONTINUOUS
10
5.21683
20
-4.26863
11
5.21556
21
-4.26745
0
LINE
8
BLACK
6
CONTINUOUS
10
5.21556
20
-4.26745
11
5.21525
21
-4.26704
0
LINE
8
BLACK
6
CONTINUOUS
10
5.21525
20
-4.26704
11
5.21472
21
-4.26633
0
LINE
8
BLACK
6
CONTINUOUS
10
5.21472
20
-4.26633
11
5.21472
21
-4.26633
0
LINE
8
BLACK
6
CONTINUOUS
10
5.21472
20
-4.26633
11
5.21472
21
-4.26633
0
LINE
8
BLACK
6
CONTINUOUS
10
5.21472
20
-4.26633
11
5.21019
21
-4.26294
0
LINE
8
BLACK
6
CONTINUOUS
10
5.21019
20
-4.26294
11
5.21019
21
-4.26294
0
LINE
8
BLACK
6
CONTINUOUS
10
5.21019
20
-4.26294
11
5.20596
21
-4.26136
0
LINE
8
BLACK
6
CONTINUOUS
10
5.20596
20
-4.26136
11
5.20376
21
-4.25971
0
LINE
8
BLACK
6
CONTINUOUS
10
5.20376
20
-4.25971
11
5.2028
21
-4.25714
0
LINE
8
BLACK
6
CONTINUOUS
10
5.2028
20
-4.25714
11
5.20338
21
-4.25445
0
LINE
8
BLACK
6
CONTINUOUS
10
5.20338
20
-4.25445
11
5.20533
21
-4.2525
0
LINE
8
BLACK
6
CONTINUOUS
10
5.20533
20
-4.2525
11
5.20596
21
-4.25221
0
LINE
8
BLACK
6
CONTINUOUS
10
5.20596
20
-4.25221
11
5.21019
21
-4.25064
0
LINE
8
BLACK
6
CONTINUOUS
10
5.21019
20
-4.25064
11
5.21472
21
-4.24724
0
LINE
8
BLACK
6
CONTINUOUS
10
5.21472
20
-4.24724
11
5.21812
21
-4.24271
0
LINE
8
BLACK
6
CONTINUOUS
10
5.21812
20
-4.24271
11
5.2201
21
-4.2374
0
LINE
8
BLACK
6
CONTINUOUS
10
5.2201
20
-4.2374
11
5.22035
21
-4.23505
0
LINE
8
BLACK
6
CONTINUOUS
10
5.22035
20
-4.23505
11
5.22035
21
-4.22882
0
LINE
8
BLACK
6
CONTINUOUS
10
5.22035
20
-4.22882
11
5.22035
21
-4.19388
0
LINE
8
BLACK
6
CONTINUOUS
10
5.22035
20
-4.19388
11
5.2201
21
-4.19153
0
LINE
8
BLACK
6
CONTINUOUS
10
5.2201
20
-4.19153
11
5.2201
21
-4.19153
0
LINE
8
BLACK
6
CONTINUOUS
10
5.2201
20
-4.19153
11
5.22009
21
-4.19148
0
LINE
8
BLACK
6
CONTINUOUS
10
5.22009
20
-4.19148
11
5.22058
21
-4.18877
0
LINE
8
BLACK
6
CONTINUOUS
10
5.22058
20
-4.18877
11
5.22149
21
-4.18751
0
LINE
8
BLACK
6
CONTINUOUS
10
5.22149
20
-4.18751
11
5.22669
21
-4.18232
0
LINE
8
BLACK
6
CONTINUOUS
10
5.22669
20
-4.18232
11
5.2291
21
-4.181
0
LINE
8
BLACK
6
CONTINUOUS
10
5.2291
20
-4.181
11
5.23014
21
-4.18089
0
LINE
8
BLACK
6
CONTINUOUS
10
5.23014
20
-4.18089
11
5.23719
21
-4.18089
0
LINE
8
BLACK
6
CONTINUOUS
10
5.23719
20
-4.18089
11
5.23726
21
-4.18074
0
LINE
8
BLACK
6
CONTINUOUS
10
5.23726
20
-4.18074
11
5.24074
21
-4.17726
0
LINE
8
BLACK
6
CONTINUOUS
10
5.24074
20
-4.17726
11
5.24513
21
-4.17502
0
LINE
8
BLACK
6
CONTINUOUS
10
5.24513
20
-4.17502
11
5.25
21
-4.17425
0
LINE
8
BLACK
6
CONTINUOUS
10
5.25
20
-4.17425
11
5.25487
21
-4.17502
0
LINE
8
BLACK
6
CONTINUOUS
10
5.25487
20
-4.17502
11
5.25926
21
-4.17726
0
LINE
8
BLACK
6
CONTINUOUS
10
5.25926
20
-4.17726
11
5.26274
21
-4.18074
0
LINE
8
BLACK
6
CONTINUOUS
10
5.26274
20
-4.18074
11
5.26281
21
-4.18089
0
LINE
8
BLACK
6
CONTINUOUS
10
5.26281
20
-4.18089
11
5.27719
21
-4.18089
0
LINE
8
BLACK
6
CONTINUOUS
10
5.27719
20
-4.18089
11
5.27726
21
-4.18074
0
LINE
8
BLACK
6
CONTINUOUS
10
5.27726
20
-4.18074
11
5.28074
21
-4.17726
0
LINE
8
BLACK
6
CONTINUOUS
10
5.28074
20
-4.17726
11
5.28513
21
-4.17502
0
LINE
8
BLACK
6
CONTINUOUS
10
5.28513
20
-4.17502
11
5.29
21
-4.17425
0
LINE
8
BLACK
6
CONTINUOUS
10
5.29
20
-4.17425
11
5.29487
21
-4.17502
0
LINE
8
BLACK
6
CONTINUOUS
10
5.29487
20
-4.17502
11
5.29926
21
-4.17726
0
LINE
8
BLACK
6
CONTINUOUS
10
5.29926
20
-4.17726
11
5.30274
21
-4.18074
0
LINE
8
BLACK
6
CONTINUOUS
10
5.30274
20
-4.18074
11
5.30281
21
-4.18089
0
LINE
8
BLACK
6
CONTINUOUS
10
5.30281
20
-4.18089
11
5.31719
21
-4.18089
0
LINE
8
BLACK
6
CONTINUOUS
10
5.31719
20
-4.18089
11
5.31726
21
-4.18074
0
LINE
8
BLACK
6
CONTINUOUS
10
5.31726
20
-4.18074
11
5.32074
21
-4.17726
0
LINE
8
BLACK
6
CONTINUOUS
10
5.32074
20
-4.17726
11
5.32513
21
-4.17502
0
LINE
8
BLACK
6
CONTINUOUS
10
5.32513
20
-4.17502
11
5.33
21
-4.17425
0
LINE
8
BLACK
6
CONTINUOUS
10
5.33
20
-4.17425
11
5.33487
21
-4.17502
0
LINE
8
BLACK
6
CONTINUOUS
10
5.33487
20
-4.17502
11
5.33926
21
-4.17726
0
LINE
8
BLACK
6
CONTINUOUS
10
5.33926
20
-4.17726
11
5.34274
21
-4.18074
0
LINE
8
BLACK
6
CONTINUOUS
10
5.34274
20
-4.18074
11
5.34281
21
-4.18089
0
LINE
8
BLACK
6
CONTINUOUS
10
5.34281
20
-4.18089
11
5.35719
21
-4.18089
0
LINE
8
BLACK
6
CONTINUOUS
10
5.35719
20
-4.18089
11
5.35726
21
-4.18074
0
LINE
8
BLACK
6
CONTINUOUS
10
5.35726
20
-4.18074
11
5.36074
21
-4.17726
0
LINE
8
BLACK
6
CONTINUOUS
10
5.36074
20
-4.17726
11
5.36513
21
-4.17502
0
LINE
8
BLACK
6
CONTINUOUS
10
5.36513
20
-4.17502
11
5.37
21
-4.17425
0
LINE
8
BLACK
6
CONTINUOUS
10
5.37
20
-4.17425
11
5.37487
21
-4.17502
0
LINE
8
BLACK
6
CONTINUOUS
10
5.34794
20
-4.19929
11
5.34389
21
-4.1997
0
LINE
8
BLACK
6
CONTINUOUS
10
5.34389
20
-4.1997
11
5.3415
21
-4.2005
0
LINE
8
BLACK
6
CONTINUOUS
10
5.3415
20
-4.2005
11
5.33926
21
-4.20274
0
LINE
8
BLACK
6
CONTINUOUS
10
5.33926
20
-4.20274
11
5.33487
21
-4.20498
0
LINE
8
BLACK
6
CONTINUOUS
10
5.33487
20
-4.20498
11
5.33145
21
-4.20552
0
LINE
8
BLACK
6
CONTINUOUS
10
5.33145
20
-4.20552
11
5.32706
21
-4.20991
0
LINE
8
BLACK
6
CONTINUOUS
10
5.32706
20
-4.20991
11
5.32464
21
-4.21123
0
LINE
8
BLACK
6
CONTINUOUS
10
5.32464
20
-4.21123
11
5.3219
21
-4.21103
0
LINE
8
BLACK
6
CONTINUOUS
10
5.3219
20
-4.21103
11
5.32015
21
-4.20991
0
LINE
8
BLACK
6
CONTINUOUS
10
5.32015
20
-4.20991
11
5.31575
21
-4.2055
0
LINE
8
BLACK
6
CONTINUOUS
10
5.31575
20
-4.2055
11
5.30987
21
-4.20188
0
LINE
8
BLACK
6
CONTINUOUS
10
5.30987
20
-4.20188
11
5.30987
21
-4.20188
0
LINE
8
BLACK
6
CONTINUOUS
10
5.30987
20
-4.20188
11
5.30332
21
-4.1997
0
LINE
8
BLACK
6
CONTINUOUS
10
5.30332
20
-4.1997
11
5.30332
21
-4.1997
0
LINE
8
BLACK
6
CONTINUOUS
10
5.30332
20
-4.1997
11
5.30239
21
-4.19961
0
LINE
8
BLACK
6
CONTINUOUS
10
5.30239
20
-4.19961
11
5.29926
21
-4.20274
0
LINE
8
BLACK
6
CONTINUOUS
10
5.29926
20
-4.20274
11
5.29487
21
-4.20498
0
LINE
8
BLACK
6
CONTINUOUS
10
5.29487
20
-4.20498
11
5.29
21
-4.20575
0
LINE
8
BLACK
6
CONTINUOUS
10
5.29
20
-4.20575
11
5.28845
21
-4.2055
0
LINE
8
BLACK
6
CONTINUOUS
10
5.28845
20
-4.2055
11
5.28845
21
-4.21898
0
LINE
8
BLACK
6
CONTINUOUS
10
5.28845
20
-4.21898
11
5.29731
21
-4.21898
0
LINE
8
BLACK
6
CONTINUOUS
10
5.29731
20
-4.21898
11
5.30107
21
-4.21973
0
LINE
8
BLACK
6
CONTINUOUS
10
5.30107
20
-4.21973
11
5.30427
21
-4.22186
0
LINE
8
BLACK
6
CONTINUOUS
10
5.30427
20
-4.22186
11
5.3064
21
-4.22505
0
LINE
8
BLACK
6
CONTINUOUS
10
5.3064
20
-4.22505
11
5.30715
21
-4.22882
0
LINE
8
BLACK
6
CONTINUOUS
10
5.30715
20
-4.22882
11
5.34006
21
-4.22882
0
LINE
8
BLACK
6
CONTINUOUS
10
5.34006
20
-4.22882
11
5.34081
21
-4.22505
0
LINE
8
BLACK
6
CONTINUOUS
10
5.34081
20
-4.22505
11
5.34295
21
-4.22186
0
LINE
8
BLACK
6
CONTINUOUS
10
5.34295
20
-4.22186
11
5.34614
21
-4.21973
0
LINE
8
BLACK
6
CONTINUOUS
10
5.34614
20
-4.21973
11
5.34991
21
-4.21898
0
LINE
8
BLACK
6
CONTINUOUS
10
5.34991
20
-4.21898
11
5.35876
21
-4.21898
0
LINE
8
BLACK
6
CONTINUOUS
10
5.35876
20
-4.21898
11
5.35876
21
-4.20076
0
LINE
8
BLACK
6
CONTINUOUS
10
5.35876
20
-4.20076
11
5.35729
21
-4.19929
0
LINE
8
BLACK
6
CONTINUOUS
10
5.35729
20
-4.19929
11
5.34794
21
-4.19929
0
LINE
8
BLACK
6
CONTINUOUS
10
5.34794
20
-4.19929
11
5.34794
21
-4.19929
0
LINE
8
BLACK
6
CONTINUOUS
10
5.25006
20
-4.22882
11
5.25081
21
-4.22505
0
LINE
8
BLACK
6
CONTINUOUS
10
5.25081
20
-4.22505
11
5.25295
21
-4.22186
0
LINE
8
BLACK
6
CONTINUOUS
10
5.25295
20
-4.22186
11
5.25614
21
-4.21973
0
LINE
8
BLACK
6
CONTINUOUS
10
5.25614
20
-4.21973
11
5.25991
21
-4.21898
0
LINE
8
BLACK
6
CONTINUOUS
10
5.25991
20
-4.21898
11
5.26876
21
-4.21898
0
LINE
8
BLACK
6
CONTINUOUS
10
5.26876
20
-4.21898
11
5.26876
21
-4.19929
0
LINE
8
BLACK
6
CONTINUOUS
10
5.26876
20
-4.19929
11
5.26271
21
-4.19929
0
LINE
8
BLACK
6
CONTINUOUS
10
5.26271
20
-4.19929
11
5.25926
21
-4.20274
0
LINE
8
BLACK
6
CONTINUOUS
10
5.25926
20
-4.20274
11
5.25487
21
-4.20498
0
LINE
8
BLACK
6
CONTINUOUS
10
5.25487
20
-4.20498
11
5.25
21
-4.20575
0
LINE
8
BLACK
6
CONTINUOUS
10
5.25
20
-4.20575
11
5.24513
21
-4.20498
0
LINE
8
BLACK
6
CONTINUOUS
10
5.24513
20
-4.20498
11
5.24359
21
-4.20419
0
LINE
8
BLACK
6
CONTINUOUS
10
5.24359
20
-4.20419
11
5.24147
21
-4.2055
0
LINE
8
BLACK
6
CONTINUOUS
10
5.24147
20
-4.2055
11
5.23659
21
-4.21038
0
LINE
8
BLACK
6
CONTINUOUS
10
5.23659
20
-4.21038
11
5.23296
21
-4.21625
0
LINE
8
BLACK
6
CONTINUOUS
10
5.23296
20
-4.21625
11
5.23296
21
-4.21626
0
LINE
8
BLACK
6
CONTINUOUS
10
5.23296
20
-4.21626
11
5.23079
21
-4.22281
0
LINE
8
BLACK
6
CONTINUOUS
10
5.23079
20
-4.22281
11
5.23079
21
-4.22281
0
LINE
8
BLACK
6
CONTINUOUS
10
5.23079
20
-4.22281
11
5.23038
21
-4.22685
0
LINE
8
BLACK
6
CONTINUOUS
10
5.23038
20
-4.22685
11
5.23038
21
-4.22882
0
LINE
8
BLACK
6
CONTINUOUS
10
5.23038
20
-4.22882
11
5.25006
21
-4.22882
0
LINE
8
BLACK
6
CONTINUOUS
10
5.01
20
-3.94
11
4.9875
21
-3.94
0
LINE
8
BLACK
6
CONTINUOUS
10
4.9875
20
-3.94
11
4.9875
21
-3.98
0
LINE
8
BLACK
6
CONTINUOUS
10
4.9875
20
-3.98
11
5.01
21
-3.98
0
LINE
8
BLACK
6
CONTINUOUS
10
5.01
20
-3.98
11
5.01
21
-4.04
0
LINE
8
BLACK
6
CONTINUOUS
10
5.01
20
-4.04
11
4.9875
21
-4.04
0
LINE
8
BLACK
6
CONTINUOUS
10
4.9875
20
-4.04
11
4.9875
21
-4.06189
0
LINE
8
BLACK
6
CONTINUOUS
10
4.9875
20
-4.06189
11
5.0967
21
-4.17109
0
LINE
8
BLACK
6
CONTINUOUS
10
5.0967
20
-4.17109
11
5.09737
21
-4.17216
0
LINE
8
BLACK
6
CONTINUOUS
10
5.09737
20
-4.17216
11
5.09815
21
-4.17314
0
LINE
8
BLACK
6
CONTINUOUS
10
5.09815
20
-4.17314
11
5.09825
21
-4.17356
0
LINE
8
BLACK
6
CONTINUOUS
10
5.09825
20
-4.17356
11
5.09847
21
-4.17392
0
LINE
8
BLACK
6
CONTINUOUS
10
5.09847
20
-4.17392
11
5.09861
21
-4.17517
0
LINE
8
BLACK
6
CONTINUOUS
10
5.09861
20
-4.17517
11
5.09889
21
-4.17639
0
LINE
8
BLACK
6
CONTINUOUS
10
5.09889
20
-4.17639
11
5.09889
21
-4.19576
0
LINE
8
BLACK
6
CONTINUOUS
10
5.09889
20
-4.19576
11
5.10222
21
-4.19576
0
LINE
8
BLACK
6
CONTINUOUS
10
5.10222
20
-4.19576
11
5.10222
21
-4.23317
0
LINE
8
BLACK
6
CONTINUOUS
10
5.10222
20
-4.23317
11
5.08057
21
-4.23317
0
LINE
8
BLACK
6
CONTINUOUS
10
5.08057
20
-4.23317
11
5.08057
21
-4.19576
0
LINE
8
BLACK
6
CONTINUOUS
10
5.08057
20
-4.19576
11
5.08389
21
-4.19576
0
LINE
8
BLACK
6
CONTINUOUS
10
5.08389
20
-4.19576
11
5.08389
21
-4.1795
0
LINE
8
BLACK
6
CONTINUOUS
10
5.08389
20
-4.1795
11
4.9747
21
-4.0703
0
LINE
8
BLACK
6
CONTINUOUS
10
4.9747
20
-4.0703
11
4.97403
21
-4.06924
0
LINE
8
BLACK
6
CONTINUOUS
10
4.97403
20
-4.06924
11
4.97324
21
-4.06825
0
LINE
8
BLACK
6
CONTINUOUS
10
4.97324
20
-4.06825
11
4.97315
21
-4.06784
0
LINE
8
BLACK
6
CONTINUOUS
10
4.97315
20
-4.06784
11
4.97292
21
-4.06748
0
LINE
8
BLACK
6
CONTINUOUS
10
4.97292
20
-4.06748
11
4.97278
21
-4.06623
0
LINE
8
BLACK
6
CONTINUOUS
10
4.97278
20
-4.06623
11
4.9725
21
-4.065
0
LINE
8
BLACK
6
CONTINUOUS
10
4.9725
20
-4.065
11
4.9725
21
-4.04
0
LINE
8
BLACK
6
CONTINUOUS
10
4.9725
20
-4.04
11
4.95
21
-4.04
0
LINE
8
BLACK
6
CONTINUOUS
10
4.95
20
-4.04
11
4.95
21
-3.98
0
LINE
8
BLACK
6
CONTINUOUS
10
4.95
20
-3.98
11
4.9725
21
-3.98
0
LINE
8
BLACK
6
CONTINUOUS
10
4.9725
20
-3.98
11
4.9725
21
-3.94
0
LINE
8
BLACK
6
CONTINUOUS
10
4.9725
20
-3.94
11
4.95
21
-3.94
0
LINE
8
BLACK
6
CONTINUOUS
10
4.95
20
-3.94
11
4.95
21
-3.88
0
LINE
8
BLACK
6
CONTINUOUS
10
4.95
20
-3.88
11
5.01
21
-3.88
0
LINE
8
BLACK
6
CONTINUOUS
10
5.01
20
-3.88
11
5.01
21
-3.94
0
LINE
8
BLACK
6
CONTINUOUS
10
5.3
20
-3.94
11
5.27787
21
-3.94
0
LINE
8
BLACK
6
CONTINUOUS
10
5.27787
20
-3.94
11
5.27787
21
-3.98
0
LINE
8
BLACK
6
CONTINUOUS
10
5.27787
20
-3.98
11
5.3
21
-3.98
0
LINE
8
BLACK
6
CONTINUOUS
10
5.3
20
-3.98
11
5.3
21
-4.04
0
LINE
8
BLACK
6
CONTINUOUS
10
5.3
20
-4.04
11
5.27787
21
-4.04
0
LINE
8
BLACK
6
CONTINUOUS
10
5.27787
20
-4.04
11
5.27787
21
-4.09407
0
LINE
8
BLACK
6
CONTINUOUS
10
5.27787
20
-4.09407
11
5.27758
21
-4.09536
0
LINE
8
BLACK
6
CONTINUOUS
10
5.27758
20
-4.09536
11
5.27743
21
-4.09668
0
LINE
8
BLACK
6
CONTINUOUS
10
5.27743
20
-4.09668
11
5.27719
21
-4.09705
0
LINE
8
BLACK
6
CONTINUOUS
10
5.27719
20
-4.09705
11
5.27709
21
-4.09749
0
LINE
8
BLACK
6
CONTINUOUS
10
5.27709
20
-4.09749
11
5.27627
21
-4.09852
0
LINE
8
BLACK
6
CONTINUOUS
10
5.27627
20
-4.09852
11
5.27557
21
-4.09964
0
LINE
8
BLACK
6
CONTINUOUS
10
5.27557
20
-4.09964
11
5.27425
21
-4.10096
0
LINE
8
BLACK
6
CONTINUOUS
10
5.27425
20
-4.10096
11
5.27425
21
-4.12772
0
LINE
8
BLACK
6
CONTINUOUS
10
5.27425
20
-4.12772
11
5.2735
21
-4.13148
0
LINE
8
BLACK
6
CONTINUOUS
10
5.2735
20
-4.13148
11
5.27137
21
-4.13468
0
LINE
8
BLACK
6
CONTINUOUS
10
5.27137
20
-4.13468
11
5.26818
21
-4.13681
0
LINE
8
BLACK
6
CONTINUOUS
10
5.26818
20
-4.13681
11
5.26441
21
-4.13756
0
LINE
8
BLACK
6
CONTINUOUS
10
5.26441
20
-4.13756
11
5.24374
21
-4.13756
0
LINE
8
BLACK
6
CONTINUOUS
10
5.24374
20
-4.13756
11
5.23997
21
-4.13681
0
LINE
8
BLACK
6
CONTINUOUS
10
5.23997
20
-4.13681
11
5.23678
21
-4.13468
0
LINE
8
BLACK
6
CONTINUOUS
10
5.23678
20
-4.13468
11
5.23465
21
-4.13148
0
LINE
8
BLACK
6
CONTINUOUS
10
5.23465
20
-4.13148
11
5.2339
21
-4.12772
0
LINE
8
BLACK
6
CONTINUOUS
10
5.2339
20
-4.12772
11
5.2339
21
-4.1175
0
LINE
8
BLACK
6
CONTINUOUS
10
5.2339
20
-4.1175
11
5.19311
21
-4.1175
0
LINE
8
BLACK
6
CONTINUOUS
10
5.19311
20
-4.1175
11
5.14811
21
-4.1625
0
LINE
8
BLACK
6
CONTINUOUS
10
5.14811
20
-4.1625
11
5.14811
21
-4.19576
0
LINE
8
BLACK
6
CONTINUOUS
10
5.14811
20
-4.19576
11
5.15143
21
-4.19576
0
LINE
8
BLACK
6
CONTINUOUS
10
5.15143
20
-4.19576
11
5.15143
21
-4.23317
0
LINE
8
BLACK
6
CONTINUOUS
10
5.15143
20
-4.23317
11
5.12978
21
-4.23317
0
LINE
8
BLACK
6
CONTINUOUS
10
5.12978
20
-4.23317
11
5.12978
21
-4.19576
0
LINE
8
BLACK
6
CONTINUOUS
10
5.12978
20
-4.19576
11
5.13311
21
-4.19576
0
LINE
8
BLACK
6
CONTINUOUS
10
5.13311
20
-4.19576
11
5.13311
21
-4.15939
0
LINE
8
BLACK
6
CONTINUOUS
10
5.13311
20
-4.15939
11
5.13339
21
-4.15817
0
LINE
8
BLACK
6
CONTINUOUS
10
5.13339
20
-4.15817
11
5.13353
21
-4.15692
0
LINE
8
BLACK
6
CONTINUOUS
10
5.13353
20
-4.15692
11
5.13375
21
-4.15656
0
LINE
8
BLACK
6
CONTINUOUS
10
5.13375
20
-4.15656
11
5.13385
21
-4.15614
0
LINE
8
BLACK
6
CONTINUOUS
10
5.13385
20
-4.15614
11
5.13463
21
-4.15516
0
LINE
8
BLACK
6
CONTINUOUS
10
5.13463
20
-4.15516
11
5.1353
21
-4.15409
0
LINE
8
BLACK
6
CONTINUOUS
10
5.1353
20
-4.15409
11
5.1847
21
-4.1047
0
LINE
8
BLACK
6
CONTINUOUS
10
5.1847
20
-4.1047
11
5.18576
21
-4.10403
0
LINE
8
BLACK
6
CONTINUOUS
10
5.18576
20
-4.10403
11
5.18675
21
-4.10324
0
LINE
8
BLACK
6
CONTINUOUS
10
5.18675
20
-4.10324
11
5.18716
21
-4.10315
0
LINE
8
BLACK
6
CONTINUOUS
10
5.18716
20
-4.10315
11
5.18752
21
-4.10292
0
LINE
8
BLACK
6
CONTINUOUS
10
5.18752
20
-4.10292
11
5.18877
21
-4.10278
0
LINE
8
BLACK
6
CONTINUOUS
10
5.18877
20
-4.10278
11
5.19
21
-4.1025
0
LINE
8
BLACK
6
CONTINUOUS
10
5.19
20
-4.1025
11
5.2339
21
-4.1025
0
LINE
8
BLACK
6
CONTINUOUS
10
5.2339
20
-4.1025
11
5.2339
21
-4.09228
0
LINE
8
BLACK
6
CONTINUOUS
10
5.2339
20
-4.09228
11
5.23465
21
-4.08852
0
LINE
8
BLACK
6
CONTINUOUS
10
5.23465
20
-4.08852
11
5.23678
21
-4.08532
0
LINE
8
BLACK
6
CONTINUOUS
10
5.23678
20
-4.08532
11
5.23997
21
-4.08319
0
LINE
8
BLACK
6
CONTINUOUS
10
5.23997
20
-4.08319
11
5.24374
21
-4.08244
0
LINE
8
BLACK
6
CONTINUOUS
10
5.24374
20
-4.08244
11
5.26213
21
-4.08244
0
LINE
8
BLACK
6
CONTINUOUS
10
5.26213
20
-4.08244
11
5.26213
21
-4.04
0
LINE
8
BLACK
6
CONTINUOUS
10
5.26213
20
-4.04
11
5.24
21
-4.04
0
LINE
8
BLACK
6
CONTINUOUS
10
5.24
20
-4.04
11
5.24
21
-3.98
0
LINE
8
BLACK
6
CONTINUOUS
10
5.24
20
-3.98
11
5.26213
21
-3.98
0
LINE
8
BLACK
6
CONTINUOUS
10
5.26213
20
-3.98
11
5.26213
21
-3.94
0
LINE
8
BLACK
6
CONTINUOUS
10
5.26213
20
-3.94
11
5.24
21
-3.94
0
LINE
8
BLACK
6
CONTINUOUS
10
5.24
20
-3.94
11
5.24
21
-3.88
0
LINE
8
BLACK
6
CONTINUOUS
10
5.24
20
-3.88
11
5.3
21
-3.88
0
LINE
8
BLACK
6
CONTINUOUS
10
5.3
20
-3.88
11
5.3
21
-3.94
0
LINE
8
BLACK
6
CONTINUOUS
10
5.5
20
-3.94
11
5.47787
21
-3.94
0
LINE
8
BLACK
6
CONTINUOUS
10
5.47787
20
-3.94
11
5.47787
21
-3.98
0
LINE
8
BLACK
6
CONTINUOUS
10
5.47787
20
-3.98
11
5.5
21
-3.98
0
LINE
8
BLACK
6
CONTINUOUS
10
5.5
20
-3.98
11
5.5
21
-4.04
0
LINE
8
BLACK
6
CONTINUOUS
10
5.5
20
-4.04
11
5.47787
21
-4.04
0
LINE
8
BLACK
6
CONTINUOUS
10
5.47787
20
-4.04
11
5.47787
21
-4.08244
0
LINE
8
BLACK
6
CONTINUOUS
10
5.47787
20
-4.08244
11
5.49626
21
-4.08244
0
LINE
8
BLACK
6
CONTINUOUS
10
5.49626
20
-4.08244
11
5.50003
21
-4.08319
0
LINE
8
BLACK
6
CONTINUOUS
10
5.50003
20
-4.08319
11
5.50322
21
-4.08532
0
LINE
8
BLACK
6
CONTINUOUS
10
5.50322
20
-4.08532
11
5.50535
21
-4.08852
0
LINE
8
BLACK
6
CONTINUOUS
10
5.50535
20
-4.08852
11
5.5061
21
-4.09228
0
LINE
8
BLACK
6
CONTINUOUS
10
5.5061
20
-4.09228
11
5.5061
21
-4.12772
0
LINE
8
BLACK
6
CONTINUOUS
10
5.5061
20
-4.12772
11
5.50535
21
-4.13148
0
LINE
8
BLACK
6
CONTINUOUS
10
5.50535
20
-4.13148
11
5.50322
21
-4.13468
0
LINE
8
BLACK
6
CONTINUOUS
10
5.50322
20
-4.13468
11
5.50003
21
-4.13681
0
LINE
8
BLACK
6
CONTINUOUS
10
5.50003
20
-4.13681
11
5.49626
21
-4.13756
0
LINE
8
BLACK
6
CONTINUOUS
10
5.49626
20
-4.13756
11
5.47559
21
-4.13756
0
LINE
8
BLACK
6
CONTINUOUS
10
5.47559
20
-4.13756
11
5.47182
21
-4.13681
0
LINE
8
BLACK
6
CONTINUOUS
10
5.47182
20
-4.13681
11
5.47088
21
-4.13618
0
LINE
8
BLACK
6
CONTINUOUS
10
5.47088
20
-4.13618
11
5.44819
21
-4.15887
0
LINE
8
BLACK
6
CONTINUOUS
10
5.44819
20
-4.15887
11
5.44707
21
-4.15958
0
LINE
8
BLACK
6
CONTINUOUS
10
5.44707
20
-4.15958
11
5.44603
21
-4.1604
0
LINE
8
BLACK
6
CONTINUOUS
10
5.44603
20
-4.1604
11
5.4456
21
-4.1605
0
LINE
8
BLACK
6
CONTINUOUS
10
5.4456
20
-4.1605
11
5.44522
21
-4.16074
0
LINE
8
BLACK
6
CONTINUOUS
10
5.44522
20
-4.16074
11
5.44391
21
-4.16089
0
LINE
8
BLACK
6
CONTINUOUS
10
5.44391
20
-4.16089
11
5.44262
21
-4.16118
0
LINE
8
BLACK
6
CONTINUOUS
10
5.44262
20
-4.16118
11
5.21995
21
-4.16118
0
LINE
8
BLACK
6
CONTINUOUS
10
5.21995
20
-4.16118
11
5.19732
21
-4.18382
0
LINE
8
BLACK
6
CONTINUOUS
10
5.19732
20
-4.18382
11
5.19732
21
-4.19576
0
LINE
8
BLACK
6
CONTINUOUS
10
5.19732
20
-4.19576
11
5.20065
21
-4.19576
0
LINE
8
BLACK
6
CONTINUOUS
10
5.20065
20
-4.19576
11
5.20065
21
-4.23317
0
LINE
8
BLACK
6
CONTINUOUS
10
5.20065
20
-4.23317
11
5.17899
21
-4.23317
0
LINE
8
BLACK
6
CONTINUOUS
10
5.17899
20
-4.23317
11
5.17899
21
-4.19576
0
LINE
8
BLACK
6
CONTINUOUS
10
5.17899
20
-4.19576
11
5.18232
21
-4.19576
0
LINE
8
BLACK
6
CONTINUOUS
10
5.18232
20
-4.19576
11
5.18232
21
-4.18199
0
LINE
8
BLACK
6
CONTINUOUS
10
5.18232
20
-4.18199
11
5.18199
21
-4.18106
0
LINE
8
BLACK
6
CONTINUOUS
10
5.18199
20
-4.18106
11
5.18239
21
-4.17758
0
LINE
8
BLACK
6
CONTINUOUS
10
5.18239
20
-4.17758
11
5.18425
21
-4.17461
0
LINE
8
BLACK
6
CONTINUOUS
10
5.18425
20
-4.17461
11
5.21113
21
-4.14774
0
LINE
8
BLACK
6
CONTINUOUS
10
5.21113
20
-4.14774
11
5.21224
21
-4.14704
0
LINE
8
BLACK
6
CONTINUOUS
10
5.21224
20
-4.14704
11
5.21328
21
-4.14621
0
LINE
8
BLACK
6
CONTINUOUS
10
5.21328
20
-4.14621
11
5.21371
21
-4.14611
0
LINE
8
BLACK
6
CONTINUOUS
10
5.21371
20
-4.14611
11
5.21409
21
-4.14587
0
LINE
8
BLACK
6
CONTINUOUS
10
5.21409
20
-4.14587
11
5.2154
21
-4.14573
0
LINE
8
BLACK
6
CONTINUOUS
10
5.2154
20
-4.14573
11
5.21669
21
-4.14543
0
LINE
8
BLACK
6
CONTINUOUS
10
5.21669
20
-4.14543
11
5.43936
21
-4.14543
0
LINE
8
BLACK
6
CONTINUOUS
10
5.43936
20
-4.14543
11
5.46575
21
-4.11904
0
LINE
8
BLACK
6
CONTINUOUS
10
5.46575
20
-4.11904
11
5.46575
21
-4.10096
0
LINE
8
BLACK
6
CONTINUOUS
10
5.46575
20
-4.10096
11
5.46443
21
-4.09964
0
LINE
8
BLACK
6
CONTINUOUS
10
5.46443
20
-4.09964
11
5.46373
21
-4.09852
0
LINE
8
BLACK
6
CONTINUOUS
10
5.46373
20
-4.09852
11
5.46291
21
-4.09749
0
LINE
8
BLACK
6
CONTINUOUS
10
5.46291
20
-4.09749
11
5.46281
21
-4.09705
0
LINE
8
BLACK
6
CONTINUOUS
10
5.46281
20
-4.09705
11
5.46257
21
-4.09668
0
LINE
8
BLACK
6
CONTINUOUS
10
5.46257
20
-4.09668
11
5.46242
21
-4.09536
0
LINE
8
BLACK
6
CONTINUOUS
10
5.46242
20
-4.09536
11
5.46213
21
-4.09407
0
LINE
8
BLACK
6
CONTINUOUS
10
5.46213
20
-4.09407
11
5.46213
21
-4.04
0
LINE
8
BLACK
6
CONTINUOUS
10
5.46213
20
-4.04
11
5.44
21
-4.04
0
LINE
8
BLACK
6
CONTINUOUS
10
5.44
20
-4.04
11
5.44
21
-3.98
0
LINE
8
BLACK
6
CONTINUOUS
10
5.44
20
-3.98
11
5.46213
21
-3.98
0
LINE
8
BLACK
6
CONTINUOUS
10
5.46213
20
-3.98
11
5.46213
21
-3.94
0
LINE
8
BLACK
6
CONTINUOUS
10
5.46213
20
-3.94
11
5.44
21
-3.94
0
LINE
8
BLACK
6
CONTINUOUS
10
5.44
20
-3.94
11
5.44
21
-3.88
0
LINE
8
BLACK
6
CONTINUOUS
10
5.44
20
-3.88
11
5.5
21
-3.88
0
LINE
8
BLACK
6
CONTINUOUS
10
5.5
20
-3.88
11
5.5
21
-3.94
0
LINE
8
BLACK
6
CONTINUOUS
10
5.4
20
-3.94
11
5.38
21
-3.94
0
LINE
8
BLACK
6
CONTINUOUS
10
5.38
20
-3.94
11
5.38
21
-3.98
0
LINE
8
BLACK
6
CONTINUOUS
10
5.38
20
-3.98
11
5.4
21
-3.98
0
LINE
8
BLACK
6
CONTINUOUS
10
5.4
20
-3.98
11
5.4
21
-4.04
0
LINE
8
BLACK
6
CONTINUOUS
10
5.4
20
-4.04
11
5.38
21
-4.04
0
LINE
8
BLACK
6
CONTINUOUS
10
5.38
20
-4.04
11
5.38
21
-4.06178
0
LINE
8
BLACK
6
CONTINUOUS
10
5.38
20
-4.06178
11
5.40117
21
-4.08295
0
LINE
8
BLACK
6
CONTINUOUS
10
5.40117
20
-4.08295
11
5.40374
21
-4.08244
0
LINE
8
BLACK
6
CONTINUOUS
10
5.40374
20
-4.08244
11
5.42441
21
-4.08244
0
LINE
8
BLACK
6
CONTINUOUS
10
5.42441
20
-4.08244
11
5.42818
21
-4.08319
0
LINE
8
BLACK
6
CONTINUOUS
10
5.42818
20
-4.08319
11
5.43137
21
-4.08532
0
LINE
8
BLACK
6
CONTINUOUS
10
5.43137
20
-4.08532
11
5.4335
21
-4.08852
0
LINE
8
BLACK
6
CONTINUOUS
10
5.4335
20
-4.08852
11
5.43425
21
-4.09228
0
LINE
8
BLACK
6
CONTINUOUS
10
5.43425
20
-4.09228
11
5.43425
21
-4.12772
0
LINE
8
BLACK
6
CONTINUOUS
10
5.43425
20
-4.12772
11
5.4335
21
-4.13148
0
LINE
8
BLACK
6
CONTINUOUS
10
5.4335
20
-4.13148
11
5.43137
21
-4.13468
0
LINE
8
BLACK
6
CONTINUOUS
10
5.43137
20
-4.13468
11
5.42818
21
-4.13681
0
LINE
8
BLACK
6
CONTINUOUS
10
5.42818
20
-4.13681
11
5.42441
21
-4.13756
0
LINE
8
BLACK
6
CONTINUOUS
10
5.42441
20
-4.13756
11
5.40374
21
-4.13756
0
LINE
8
BLACK
6
CONTINUOUS
10
5.40374
20
-4.13756
11
5.39997
21
-4.13681
0
LINE
8
BLACK
6
CONTINUOUS
10
5.39997
20
-4.13681
11
5.39678
21
-4.13468
0
LINE
8
BLACK
6
CONTINUOUS
10
5.39678
20
-4.13468
11
5.39465
21
-4.13148
0
LINE
8
BLACK
6
CONTINUOUS
10
5.39465
20
-4.13148
11
5.3939
21
-4.12772
0
LINE
8
BLACK
6
CONTINUOUS
10
5.3939
20
-4.12772
11
5.3939
21
-4.10396
0
LINE
8
BLACK
6
CONTINUOUS
10
5.3939
20
-4.10396
11
5.37
21
-4.08007
0
LINE
8
BLACK
6
CONTINUOUS
10
5.37
20
-4.08007
11
5.3461
21
-4.10396
0
LINE
8
BLACK
6
CONTINUOUS
10
5.3461
20
-4.10396
11
5.3461
21
-4.12772
0
LINE
8
BLACK
6
CONTINUOUS
10
5.3461
20
-4.12772
11
5.34535
21
-4.13148
0
LINE
8
BLACK
6
CONTINUOUS
10
5.34535
20
-4.13148
11
5.34322
21
-4.13468
0
LINE
8
BLACK
6
CONTINUOUS
10
5.34322
20
-4.13468
11
5.34003
21
-4.13681
0
LINE
8
BLACK
6
CONTINUOUS
10
5.34003
20
-4.13681
11
5.33626
21
-4.13756
0
LINE
8
BLACK
6
CONTINUOUS
10
5.33626
20
-4.13756
11
5.31559
21
-4.13756
0
LINE
8
BLACK
6
CONTINUOUS
10
5.31559
20
-4.13756
11
5.31182
21
-4.13681
0
LINE
8
BLACK
6
CONTINUOUS
10
5.31182
20
-4.13681
11
5.30863
21
-4.13468
0
LINE
8
BLACK
6
CONTINUOUS
10
5.30863
20
-4.13468
11
5.3065
21
-4.13148
0
LINE
8
BLACK
6
CONTINUOUS
10
5.3065
20
-4.13148
11
5.30575
21
-4.12772
0
LINE
8
BLACK
6
CONTINUOUS
10
5.30575
20
-4.12772
11
5.30575
21
-4.09228
0
LINE
8
BLACK
6
CONTINUOUS
10
5.30575
20
-4.09228
11
5.3065
21
-4.08852
0
LINE
8
BLACK
6
CONTINUOUS
10
5.3065
20
-4.08852
11
5.30863
21
-4.08532
0
LINE
8
BLACK
6
CONTINUOUS
10
5.30863
20
-4.08532
11
5.31182
21
-4.08319
0
LINE
8
BLACK
6
CONTINUOUS
10
5.31182
20
-4.08319
11
5.31559
21
-4.08244
0
LINE
8
BLACK
6
CONTINUOUS
10
5.31559
20
-4.08244
11
5.33626
21
-4.08244
0
LINE
8
BLACK
6
CONTINUOUS
10
5.33626
20
-4.08244
11
5.33883
21
-4.08295
0
LINE
8
BLACK
6
CONTINUOUS
10
5.33883
20
-4.08295
11
5.36
21
-4.06178
0
LINE
8
BLACK
6
CONTINUOUS
10
5.36
20
-4.06178
11
5.36
21
-4.04
0
LINE
8
BLACK
6
CONTINUOUS
10
5.36
20
-4.04
11
5.34
21
-4.04
0
LINE
8
BLACK
6
CONTINUOUS
10
5.34
20
-4.04
11
5.34
21
-3.98
0
LINE
8
BLACK
6
CONTINUOUS
10
5.34
20
-3.98
11
5.36
21
-3.98
0
LINE
8
BLACK
6
CONTINUOUS
10
5.36
20
-3.98
11
5.36
21
-3.94
0
LINE
8
BLACK
6
CONTINUOUS
10
5.36
20
-3.94
11
5.34
21
-3.94
0
LINE
8
BLACK
6
CONTINUOUS
10
5.34
20
-3.94
11
5.34
21
-3.88
0
LINE
8
BLACK
6
CONTINUOUS
10
5.34
20
-3.88
11
5.4
21
-3.88
0
LINE
8
BLACK
6
CONTINUOUS
10
5.4
20
-3.88
11
5.4
21
-3.94
0
LINE
8
BLACK
6
CONTINUOUS
10
4.53527
20
-4.17676
11
4.53541
21
-4.17687
0
LINE
8
BLACK
6
CONTINUOUS
10
4.53541
20
-4.17687
11
4.53558
21
-4.1769
0
LINE
8
BLACK
6
CONTINUOUS
10
4.53558
20
-4.1769
11
4.53933
21
-4.17877
0
LINE
8
BLACK
6
CONTINUOUS
10
4.53933
20
-4.17877
11
4.54004
21
-4.1793
0
LINE
8
BLACK
6
CONTINUOUS
10
4.54004
20
-4.1793
11
4.5401
21
-4.17932
0
LINE
8
BLACK
6
CONTINUOUS
10
4.5401
20
-4.17932
11
4.54198
21
-4.1812
0
LINE
8
BLACK
6
CONTINUOUS
10
4.54198
20
-4.1812
11
4.54256
21
-4.18204
0
LINE
8
BLACK
6
CONTINUOUS
10
4.54256
20
-4.18204
11
4.54274
21
-4.18405
0
LINE
8
BLACK
6
CONTINUOUS
10
4.54274
20
-4.18405
11
4.54158
21
-4.1857
0
LINE
8
BLACK
6
CONTINUOUS
10
4.54158
20
-4.1857
11
4.53963
21
-4.18623
0
LINE
8
BLACK
6
CONTINUOUS
10
4.53963
20
-4.18623
11
4.5378
21
-4.18537
0
LINE
8
BLACK
6
CONTINUOUS
10
4.5378
20
-4.18537
11
4.53626
21
-4.18384
0
LINE
8
BLACK
6
CONTINUOUS
10
4.53626
20
-4.18384
11
4.53357
21
-4.18249
0
LINE
8
BLACK
6
CONTINUOUS
10
4.53357
20
-4.18249
11
4.52559
21
-4.18249
0
LINE
8
BLACK
6
CONTINUOUS
10
4.52559
20
-4.18249
11
4.52289
21
-4.18384
0
LINE
8
BLACK
6
CONTINUOUS
10
4.52289
20
-4.18384
11
4.52169
21
-4.18503
0
LINE
8
BLACK
6
CONTINUOUS
10
4.52169
20
-4.18503
11
4.52034
21
-4.18773
0
LINE
8
BLACK
6
CONTINUOUS
10
4.52034
20
-4.18773
11
4.52034
21
-4.19031
0
LINE
8
BLACK
6
CONTINUOUS
10
4.52034
20
-4.19031
11
4.52185
21
-4.19481
0
LINE
8
BLACK
6
CONTINUOUS
10
4.52185
20
-4.19481
11
4.54385
21
-4.21682
0
LINE
8
BLACK
6
CONTINUOUS
10
4.54385
20
-4.21682
11
4.54422
21
-4.21735
0
LINE
8
BLACK
6
CONTINUOUS
10
4.54422
20
-4.21735
11
4.54432
21
-4.21743
0
LINE
8
BLACK
6
CONTINUOUS
10
4.54432
20
-4.21743
11
4.54433
21
-4.21751
0
LINE
8
BLACK
6
CONTINUOUS
10
4.54433
20
-4.21751
11
4.54444
21
-4.21766
0
LINE
8
BLACK
6
CONTINUOUS
10
4.54444
20
-4.21766
11
4.54452
21
-4.21854
0
LINE
8
BLACK
6
CONTINUOUS
10
4.54452
20
-4.21854
11
4.54467
21
-4.21942
0
LINE
8
BLACK
6
CONTINUOUS
10
4.54467
20
-4.21942
11
4.5446
21
-4.21954
0
LINE
8
BLACK
6
CONTINUOUS
10
4.5446
20
-4.21954
11
4.54461
21
-4.21967
0
LINE
8
BLACK
6
CONTINUOUS
10
4.54461
20
-4.21967
11
4.5441
21
-4.2204
0
LINE
8
BLACK
6
CONTINUOUS
10
4.5441
20
-4.2204
11
4.54366
21
-4.22117
0
LINE
8
BLACK
6
CONTINUOUS
10
4.54366
20
-4.22117
11
4.54353
21
-4.22121
0
LINE
8
BLACK
6
CONTINUOUS
10
4.54353
20
-4.22121
11
4.54346
21
-4.22133
0
LINE
8
BLACK
6
CONTINUOUS
10
4.54346
20
-4.22133
11
4.5426
21
-4.22156
0
LINE
8
BLACK
6
CONTINUOUS
10
4.5426
20
-4.22156
11
4.54176
21
-4.22186
0
LINE
8
BLACK
6
CONTINUOUS
10
4.54176
20
-4.22186
11
4.51739
21
-4.22186
0
LINE
8
BLACK
6
CONTINUOUS
10
4.51739
20
-4.22186
11
4.51638
21
-4.22168
0
LINE
8
BLACK
6
CONTINUOUS
10
4.51638
20
-4.22168
11
4.51483
21
-4.22038
0
LINE
8
BLACK
6
CONTINUOUS
10
4.51483
20
-4.22038
11
4.51448
21
-4.21839
0
LINE
8
BLACK
6
CONTINUOUS
10
4.51448
20
-4.21839
11
4.51549
21
-4.21664
0
LINE
8
BLACK
6
CONTINUOUS
10
4.51549
20
-4.21664
11
4.51739
21
-4.21595
0
LINE
8
BLACK
6
CONTINUOUS
10
4.51739
20
-4.21595
11
4.53463
21
-4.21595
0
LINE
8
BLACK
6
CONTINUOUS
10
4.53463
20
-4.21595
11
4.51718
21
-4.1985
0
LINE
8
BLACK
6
CONTINUOUS
10
4.51718
20
-4.1985
11
4.51659
21
-4.19766
0
LINE
8
BLACK
6
CONTINUOUS
10
4.51659
20
-4.19766
11
4.51657
21
-4.19748
0
LINE
8
BLACK
6
CONTINUOUS
10
4.51657
20
-4.19748
11
4.51646
21
-4.19734
0
LINE
8
BLACK
6
CONTINUOUS
10
4.51646
20
-4.19734
11
4.51459
21
-4.19172
0
LINE
8
BLACK
6
CONTINUOUS
10
4.51459
20
-4.19172
11
4.51446
21
-4.19085
0
LINE
8
BLACK
6
CONTINUOUS
10
4.51446
20
-4.19085
11
4.51444
21
-4.19078
0
LINE
8
BLACK
6
CONTINUOUS
10
4.51444
20
-4.19078
11
4.51444
21
-4.18704
0
LINE
8
BLACK
6
CONTINUOUS
10
4.51444
20
-4.18704
11
4.51462
21
-4.18603
0
LINE
8
BLACK
6
CONTINUOUS
10
4.51462
20
-4.18603
11
4.51473
21
-4.18589
0
LINE
8
BLACK
6
CONTINUOUS
10
4.51473
20
-4.18589
11
4.51475
21
-4.18571
0
LINE
8
BLACK
6
CONTINUOUS
10
4.51475
20
-4.18571
11
4.51662
21
-4.18197
0
LINE
8
BLACK
6
CONTINUOUS
10
4.51662
20
-4.18197
11
4.51715
21
-4.18126
0
LINE
8
BLACK
6
CONTINUOUS
10
4.51715
20
-4.18126
11
4.51718
21
-4.1812
0
LINE
8
BLACK
6
CONTINUOUS
10
4.51718
20
-4.1812
11
4.51905
21
-4.17932
0
LINE
8
BLACK
6
CONTINUOUS
10
4.51905
20
-4.17932
11
4.51978
21
-4.17882
0
LINE
8
BLACK
6
CONTINUOUS
10
4.51978
20
-4.17882
11
4.51982
21
-4.17877
0
LINE
8
BLACK
6
CONTINUOUS
10
4.51982
20
-4.17877
11
4.52357
21
-4.1769
0
LINE
8
BLACK
6
CONTINUOUS
10
4.52357
20
-4.1769
11
4.52455
21
-4.1766
0
LINE
8
BLACK
6
CONTINUOUS
10
4.52455
20
-4.1766
11
4.52472
21
-4.17664
0
LINE
8
BLACK
6
CONTINUOUS
10
4.52472
20
-4.17664
11
4.52489
21
-4.17658
0
LINE
8
BLACK
6
CONTINUOUS
10
4.52489
20
-4.17658
11
4.53426
21
-4.17658
0
LINE
8
BLACK
6
CONTINUOUS
10
4.53426
20
-4.17658
11
4.53527
21
-4.17676
0
LINE
8
BLACK
6
CONTINUOUS
10
4.56902
20
-4.17676
11
4.56915
21
-4.17687
0
LINE
8
BLACK
6
CONTINUOUS
10
4.56915
20
-4.17687
11
4.56933
21
-4.1769
0
LINE
8
BLACK
6
CONTINUOUS
10
4.56933
20
-4.1769
11
4.57308
21
-4.17877
0
LINE
8
BLACK
6
CONTINUOUS
10
4.57308
20
-4.17877
11
4.57379
21
-4.1793
0
LINE
8
BLACK
6
CONTINUOUS
10
4.57379
20
-4.1793
11
4.57385
21
-4.17932
0
LINE
8
BLACK
6
CONTINUOUS
10
4.57385
20
-4.17932
11
4.57572
21
-4.1812
0
LINE
8
BLACK
6
CONTINUOUS
10
4.57572
20
-4.1812
11
4.57623
21
-4.18192
0
LINE
8
BLACK
6
CONTINUOUS
10
4.57623
20
-4.18192
11
4.57627
21
-4.18197
0
LINE
8
BLACK
6
CONTINUOUS
10
4.57627
20
-4.18197
11
4.57815
21
-4.18571
0
LINE
8
BLACK
6
CONTINUOUS
10
4.57815
20
-4.18571
11
4.57829
21
-4.1862
0
LINE
8
BLACK
6
CONTINUOUS
10
4.57829
20
-4.1862
11
4.57837
21
-4.18632
0
LINE
8
BLACK
6
CONTINUOUS
10
4.57837
20
-4.18632
11
4.58025
21
-4.19382
0
LINE
8
BLACK
6
CONTINUOUS
10
4.58025
20
-4.19382
11
4.58029
21
-4.19441
0
LINE
8
BLACK
6
CONTINUOUS
10
4.58029
20
-4.19441
11
4.58034
21
-4.19453
0
LINE
8
BLACK
6
CONTINUOUS
10
4.58034
20
-4.19453
11
4.58034
21
-4.20391
0
LINE
8
BLACK
6
CONTINUOUS
10
4.58034
20
-4.20391
11
4.58023
21
-4.20449
0
LINE
8
BLACK
6
CONTINUOUS
10
4.58023
20
-4.20449
11
4.58025
21
-4.20462
0
LINE
8
BLACK
6
CONTINUOUS
10
4.58025
20
-4.20462
11
4.57837
21
-4.21212
0
LINE
8
BLACK
6
CONTINUOUS
10
4.57837
20
-4.21212
11
4.57817
21
-4.21259
0
LINE
8
BLACK
6
CONTINUOUS
10
4.57817
20
-4.21259
11
4.57815
21
-4.21273
0
LINE
8
BLACK
6
CONTINUOUS
10
4.57815
20
-4.21273
11
4.57627
21
-4.21648
0
LINE
8
BLACK
6
CONTINUOUS
10
4.57627
20
-4.21648
11
4.57575
21
-4.21719
0
LINE
8
BLACK
6
CONTINUOUS
10
4.57575
20
-4.21719
11
4.57572
21
-4.21724
0
LINE
8
BLACK
6
CONTINUOUS
10
4.57572
20
-4.21724
11
4.57385
21
-4.21912
0
LINE
8
BLACK
6
CONTINUOUS
10
4.57385
20
-4.21912
11
4.57312
21
-4.21963
0
LINE
8
BLACK
6
CONTINUOUS
10
4.57312
20
-4.21963
11
4.57308
21
-4.21967
0
LINE
8
BLACK
6
CONTINUOUS
10
4.57308
20
-4.21967
11
4.56933
21
-4.22155
0
LINE
8
BLACK
6
CONTINUOUS
10
4.56933
20
-4.22155
11
4.56835
21
-4.22184
0
LINE
8
BLACK
6
CONTINUOUS
10
4.56835
20
-4.22184
11
4.56818
21
-4.2218
0
LINE
8
BLACK
6
CONTINUOUS
10
4.56818
20
-4.2218
11
4.56801
21
-4.22186
0
LINE
8
BLACK
6
CONTINUOUS
10
4.56801
20
-4.22186
11
4.56426
21
-4.22186
0
LINE
8
BLACK
6
CONTINUOUS
10
4.56426
20
-4.22186
11
4.56325
21
-4.22168
0
LINE
8
BLACK
6
CONTINUOUS
10
4.56325
20
-4.22168
11
4.56311
21
-4.22157
0
LINE
8
BLACK
6
CONTINUOUS
10
4.56311
20
-4.22157
11
4.56294
21
-4.22155
0
LINE
8
BLACK
6
CONTINUOUS
10
4.56294
20
-4.22155
11
4.55919
21
-4.21967
0
LINE
8
BLACK
6
CONTINUOUS
10
4.55919
20
-4.21967
11
4.55848
21
-4.21915
0
LINE
8
BLACK
6
CONTINUOUS
10
4.55848
20
-4.21915
11
4.55842
21
-4.21912
0
LINE
8
BLACK
6
CONTINUOUS
10
4.55842
20
-4.21912
11
4.55655
21
-4.21724
0
LINE
8
BLACK
6
CONTINUOUS
10
4.55655
20
-4.21724
11
4.55604
21
-4.21652
0
LINE
8
BLACK
6
CONTINUOUS
10
4.55604
20
-4.21652
11
4.55599
21
-4.21648
0
LINE
8
BLACK
6
CONTINUOUS
10
4.55599
20
-4.21648
11
4.55412
21
-4.21273
0
LINE
8
BLACK
6
CONTINUOUS
10
4.55412
20
-4.21273
11
4.55397
21
-4.21224
0
LINE
8
BLACK
6
CONTINUOUS
10
4.55397
20
-4.21224
11
4.5539
21
-4.21212
0
LINE
8
BLACK
6
CONTINUOUS
10
4.5539
20
-4.21212
11
4.55202
21
-4.20462
0
LINE
8
BLACK
6
CONTINUOUS
10
4.55202
20
-4.20462
11
4.55198
21
-4.20404
0
LINE
8
BLACK
6
CONTINUOUS
10
4.55198
20
-4.20404
11
4.55193
21
-4.20391
0
LINE
8
BLACK
6
CONTINUOUS
10
4.55193
20
-4.20391
11
4.55193
21
-4.19453
0
LINE
8
BLACK
6
CONTINUOUS
10
4.55193
20
-4.19453
11
4.55204
21
-4.19395
0
LINE
8
BLACK
6
CONTINUOUS
10
4.55204
20
-4.19395
11
4.55202
21
-4.19382
0
LINE
8
BLACK
6
CONTINUOUS
10
4.55202
20
-4.19382
11
4.5539
21
-4.18632
0
LINE
8
BLACK
6
CONTINUOUS
10
4.5539
20
-4.18632
11
4.5541
21
-4.18585
0
LINE
8
BLACK
6
CONTINUOUS
10
4.5541
20
-4.18585
11
4.55412
21
-4.18571
0
LINE
8
BLACK
6
CONTINUOUS
10
4.55412
20
-4.18571
11
4.55599
21
-4.18197
0
LINE
8
BLACK
6
CONTINUOUS
10
4.55599
20
-4.18197
11
4.55652
21
-4.18126
0
LINE
8
BLACK
6
CONTINUOUS
10
4.55652
20
-4.18126
11
4.55655
21
-4.1812
0
LINE
8
BLACK
6
CONTINUOUS
10
4.55655
20
-4.1812
11
4.55842
21
-4.17932
0
LINE
8
BLACK
6
CONTINUOUS
10
4.55842
20
-4.17932
11
4.55915
21
-4.17882
0
LINE
8
BLACK
6
CONTINUOUS
10
4.55915
20
-4.17882
11
4.55919
21
-4.17877
0
LINE
8
BLACK
6
CONTINUOUS
10
4.55919
20
-4.17877
11
4.56294
21
-4.1769
0
LINE
8
BLACK
6
CONTINUOUS
10
4.56294
20
-4.1769
11
4.56392
21
-4.1766
0
LINE
8
BLACK
6
CONTINUOUS
10
4.56392
20
-4.1766
11
4.56409
21
-4.17664
0
LINE
8
BLACK
6
CONTINUOUS
10
4.56409
20
-4.17664
11
4.56426
21
-4.17658
0
LINE
8
BLACK
6
CONTINUOUS
10
4.56426
20
-4.17658
11
4.56801
21
-4.17658
0
LINE
8
BLACK
6
CONTINUOUS
10
4.56801
20
-4.17658
11
4.56902
21
-4.17676
0
LINE
8
BLACK
6
CONTINUOUS
10
4.56226
20
-4.18384
11
4.56106
21
-4.18503
0
LINE
8
BLACK
6
CONTINUOUS
10
4.56106
20
-4.18503
11
4.55955
21
-4.18807
0
LINE
8
BLACK
6
CONTINUOUS
10
4.55955
20
-4.18807
11
4.55784
21
-4.1949
0
LINE
8
BLACK
6
CONTINUOUS
10
4.55784
20
-4.1949
11
4.55784
21
-4.20354
0
LINE
8
BLACK
6
CONTINUOUS
10
4.55784
20
-4.20354
11
4.55955
21
-4.21038
0
LINE
8
BLACK
6
CONTINUOUS
10
4.55955
20
-4.21038
11
4.56106
21
-4.21341
0
LINE
8
BLACK
6
CONTINUOUS
10
4.56106
20
-4.21341
11
4.56226
21
-4.2146
0
LINE
8
BLACK
6
CONTINUOUS
10
4.56226
20
-4.2146
11
4.56496
21
-4.21595
0
LINE
8
BLACK
6
CONTINUOUS
10
4.56496
20
-4.21595
11
4.56731
21
-4.21595
0
LINE
8
BLACK
6
CONTINUOUS
10
4.56731
20
-4.21595
11
4.57001
21
-4.2146
0
LINE
8
BLACK
6
CONTINUOUS
10
4.57001
20
-4.2146
11
4.57121
21
-4.21341
0
LINE
8
BLACK
6
CONTINUOUS
10
4.57121
20
-4.21341
11
4.57272
21
-4.21038
0
LINE
8
BLACK
6
CONTINUOUS
10
4.57272
20
-4.21038
11
4.57443
21
-4.20354
0
LINE
8
BLACK
6
CONTINUOUS
10
4.57443
20
-4.20354
11
4.57443
21
-4.1949
0
LINE
8
BLACK
6
CONTINUOUS
10
4.57443
20
-4.1949
11
4.57272
21
-4.18807
0
LINE
8
BLACK
6
CONTINUOUS
10
4.57272
20
-4.18807
11
4.57121
21
-4.18503
0
LINE
8
BLACK
6
CONTINUOUS
10
4.57121
20
-4.18503
11
4.57001
21
-4.18384
0
LINE
8
BLACK
6
CONTINUOUS
10
4.57001
20
-4.18384
11
4.56731
21
-4.18249
0
LINE
8
BLACK
6
CONTINUOUS
10
4.56731
20
-4.18249
11
4.56496
21
-4.18249
0
LINE
8
BLACK
6
CONTINUOUS
10
4.56496
20
-4.18249
11
4.56226
21
-4.18384
0
LINE
8
BLACK
6
CONTINUOUS
10
4.64151
20
-4.17665
11
4.64164
21
-4.17663
0
LINE
8
BLACK
6
CONTINUOUS
10
4.64164
20
-4.17663
11
4.64175
21
-4.17669
0
LINE
8
BLACK
6
CONTINUOUS
10
4.64175
20
-4.17669
11
4.64214
21
-4.17676
0
LINE
8
BLACK
6
CONTINUOUS
10
4.64214
20
-4.17676
11
4.64272
21
-4.17725
0
LINE
8
BLACK
6
CONTINUOUS
10
4.64272
20
-4.17725
11
4.64339
21
-4.17764
0
LINE
8
BLACK
6
CONTINUOUS
10
4.64339
20
-4.17764
11
4.64348
21
-4.17789
0
LINE
8
BLACK
6
CONTINUOUS
10
4.64348
20
-4.17789
11
4.64368
21
-4.17806
0
LINE
8
BLACK
6
CONTINUOUS
10
4.64368
20
-4.17806
11
4.64382
21
-4.17882
0
LINE
8
BLACK
6
CONTINUOUS
10
4.64382
20
-4.17882
11
4.64408
21
-4.17954
0
LINE
8
BLACK
6
CONTINUOUS
10
4.64408
20
-4.17954
11
4.64408
21
-4.21891
0
LINE
8
BLACK
6
CONTINUOUS
10
4.64408
20
-4.21891
11
4.64401
21
-4.21929
0
LINE
8
BLACK
6
CONTINUOUS
10
4.64401
20
-4.21929
11
4.64403
21
-4.21942
0
LINE
8
BLACK
6
CONTINUOUS
10
4.64403
20
-4.21942
11
4.64397
21
-4.21953
0
LINE
8
BLACK
6
CONTINUOUS
10
4.64397
20
-4.21953
11
4.6439
21
-4.21992
0
LINE
8
BLACK
6
CONTINUOUS
10
4.6439
20
-4.21992
11
4.64341
21
-4.2205
0
LINE
8
BLACK
6
CONTINUOUS
10
4.64341
20
-4.2205
11
4.64302
21
-4.22117
0
LINE
8
BLACK
6
CONTINUOUS
10
4.64302
20
-4.22117
11
4.64277
21
-4.22126
0
LINE
8
BLACK
6
CONTINUOUS
10
4.64277
20
-4.22126
11
4.6426
21
-4.22146
0
LINE
8
BLACK
6
CONTINUOUS
10
4.6426
20
-4.22146
11
4.64185
21
-4.2216
0
LINE
8
BLACK
6
CONTINUOUS
10
4.64185
20
-4.2216
11
4.64113
21
-4.22186
0
LINE
8
BLACK
6
CONTINUOUS
10
4.64113
20
-4.22186
11
4.62238
21
-4.22186
0
LINE
8
BLACK
6
CONTINUOUS
10
4.62238
20
-4.22186
11
4.62137
21
-4.22168
0
LINE
8
BLACK
6
CONTINUOUS
10
4.62137
20
-4.22168
11
4.61982
21
-4.22038
0
LINE
8
BLACK
6
CONTINUOUS
10
4.61982
20
-4.22038
11
4.61947
21
-4.21839
0
LINE
8
BLACK
6
CONTINUOUS
10
4.61947
20
-4.21839
11
4.62048
21
-4.21664
0
LINE
8
BLACK
6
CONTINUOUS
10
4.62048
20
-4.21664
11
4.62238
21
-4.21595
0
LINE
8
BLACK
6
CONTINUOUS
10
4.62238
20
-4.21595
11
4.63817
21
-4.21595
0
LINE
8
BLACK
6
CONTINUOUS
10
4.63817
20
-4.21595
11
4.63817
21
-4.20124
0
LINE
8
BLACK
6
CONTINUOUS
10
4.63817
20
-4.20124
11
4.628
21
-4.20124
0
LINE
8
BLACK
6
CONTINUOUS
10
4.628
20
-4.20124
11
4.62699
21
-4.20106
0
LINE
8
BLACK
6
CONTINUOUS
10
4.62699
20
-4.20106
11
4.62544
21
-4.19976
0
LINE
8
BLACK
6
CONTINUOUS
10
4.62544
20
-4.19976
11
4.62509
21
-4.19777
0
LINE
8
BLACK
6
CONTINUOUS
10
4.62509
20
-4.19777
11
4.6261
21
-4.19602
0
LINE
8
BLACK
6
CONTINUOUS
10
4.6261
20
-4.19602
11
4.628
21
-4.19533
0
LINE
8
BLACK
6
CONTINUOUS
10
4.628
20
-4.19533
11
4.63817
21
-4.19533
0
LINE
8
BLACK
6
CONTINUOUS
10
4.63817
20
-4.19533
11
4.63817
21
-4.18249
0
LINE
8
BLACK
6
CONTINUOUS
10
4.63817
20
-4.18249
11
4.62238
21
-4.18249
0
LINE
8
BLACK
6
CONTINUOUS
10
4.62238
20
-4.18249
11
4.62137
21
-4.18231
0
LINE
8
BLACK
6
CONTINUOUS
10
4.62137
20
-4.18231
11
4.61982
21
-4.18101
0
LINE
8
BLACK
6
CONTINUOUS
10
4.61982
20
-4.18101
11
4.61947
21
-4.17902
0
LINE
8
BLACK
6
CONTINUOUS
10
4.61947
20
-4.17902
11
4.62048
21
-4.17727
0
LINE
8
BLACK
6
CONTINUOUS
10
4.62048
20
-4.17727
11
4.62238
21
-4.17658
0
LINE
8
BLACK
6
CONTINUOUS
10
4.62238
20
-4.17658
11
4.64113
21
-4.17658
0
LINE
8
BLACK
6
CONTINUOUS
10
4.64113
20
-4.17658
11
4.64151
21
-4.17665
0
LINE
8
BLACK
6
CONTINUOUS
10
4.769
20
-4.17764
11
4.76969
21
-4.17954
0
LINE
8
BLACK
6
CONTINUOUS
10
4.76969
20
-4.17954
11
4.76969
21
-4.21891
0
LINE
8
BLACK
6
CONTINUOUS
10
4.76969
20
-4.21891
11
4.76962
21
-4.21929
0
LINE
8
BLACK
6
CONTINUOUS
10
4.76962
20
-4.21929
11
4.76964
21
-4.21942
0
LINE
8
BLACK
6
CONTINUOUS
10
4.76964
20
-4.21942
11
4.76958
21
-4.21953
0
LINE
8
BLACK
6
CONTINUOUS
10
4.76958
20
-4.21953
11
4.76951
21
-4.21992
0
LINE
8
BLACK
6
CONTINUOUS
10
4.76951
20
-4.21992
11
4.76902
21
-4.2205
0
LINE
8
BLACK
6
CONTINUOUS
10
4.76902
20
-4.2205
11
4.76863
21
-4.22117
0
LINE
8
BLACK
6
CONTINUOUS
10
4.76863
20
-4.22117
11
4.76838
21
-4.22126
0
LINE
8
BLACK
6
CONTINUOUS
10
4.76838
20
-4.22126
11
4.76821
21
-4.22146
0
LINE
8
BLACK
6
CONTINUOUS
10
4.76821
20
-4.22146
11
4.76746
21
-4.2216
0
LINE
8
BLACK
6
CONTINUOUS
10
4.76746
20
-4.2216
11
4.76673
21
-4.22186
0
LINE
8
BLACK
6
CONTINUOUS
10
4.76673
20
-4.22186
11
4.74799
21
-4.22186
0
LINE
8
BLACK
6
CONTINUOUS
10
4.74799
20
-4.22186
11
4.74698
21
-4.22168
0
LINE
8
BLACK
6
CONTINUOUS
10
4.74698
20
-4.22168
11
4.74543
21
-4.22038
0
LINE
8
BLACK
6
CONTINUOUS
10
4.74543
20
-4.22038
11
4.74508
21
-4.21839
0
LINE
8
BLACK
6
CONTINUOUS
10
4.74508
20
-4.21839
11
4.74609
21
-4.21664
0
LINE
8
BLACK
6
CONTINUOUS
10
4.74609
20
-4.21664
11
4.74799
21
-4.21595
0
LINE
8
BLACK
6
CONTINUOUS
10
4.74799
20
-4.21595
11
4.76378
21
-4.21595
0
LINE
8
BLACK
6
CONTINUOUS
10
4.76378
20
-4.21595
11
4.76378
21
-4.17954
0
LINE
8
BLACK
6
CONTINUOUS
10
4.76378
20
-4.17954
11
4.76396
21
-4.17853
0
LINE
8
BLACK
6
CONTINUOUS
10
4.76396
20
-4.17853
11
4.76526
21
-4.17698
0
LINE
8
BLACK
6
CONTINUOUS
10
4.76526
20
-4.17698
11
4.76725
21
-4.17663
0
LINE
8
BLACK
6
CONTINUOUS
10
4.76725
20
-4.17663
11
4.769
21
-4.17764
0
LINE
8
BLACK
6
CONTINUOUS
10
4.4935
20
-4.1768
11
4.49442
21
-4.17694
0
LINE
8
BLACK
6
CONTINUOUS
10
4.49442
20
-4.17694
11
4.49448
21
-4.177
0
LINE
8
BLACK
6
CONTINUOUS
10
4.49448
20
-4.177
11
4.49456
21
-4.17702
0
LINE
8
BLACK
6
CONTINUOUS
10
4.49456
20
-4.17702
11
4.49514
21
-4.17775
0
LINE
8
BLACK
6
CONTINUOUS
10
4.49514
20
-4.17775
11
4.49576
21
-4.17845
0
LINE
8
BLACK
6
CONTINUOUS
10
4.49576
20
-4.17845
11
4.49577
21
-4.17854
0
LINE
8
BLACK
6
CONTINUOUS
10
4.49577
20
-4.17854
11
4.49582
21
-4.1786
0
LINE
8
BLACK
6
CONTINUOUS
10
4.49582
20
-4.1786
11
4.50894
21
-4.21797
0
LINE
8
BLACK
6
CONTINUOUS
10
4.50894
20
-4.21797
11
4.50909
21
-4.21899
0
LINE
8
BLACK
6
CONTINUOUS
10
4.50909
20
-4.21899
11
4.50835
21
-4.22087
0
LINE
8
BLACK
6
CONTINUOUS
10
4.50835
20
-4.22087
11
4.50658
21
-4.22183
0
LINE
8
BLACK
6
CONTINUOUS
10
4.50658
20
-4.22183
11
4.5046
21
-4.22142
0
LINE
8
BLACK
6
CONTINUOUS
10
4.5046
20
-4.22142
11
4.50334
21
-4.21984
0
LINE
8
BLACK
6
CONTINUOUS
10
4.50334
20
-4.21984
11
4.50026
21
-4.21061
0
LINE
8
BLACK
6
CONTINUOUS
10
4.50026
20
-4.21061
11
4.48577
21
-4.21061
0
LINE
8
BLACK
6
CONTINUOUS
10
4.48577
20
-4.21061
11
4.4827
21
-4.21984
0
LINE
8
BLACK
6
CONTINUOUS
10
4.4827
20
-4.21984
11
4.48221
21
-4.22074
0
LINE
8
BLACK
6
CONTINUOUS
10
4.48221
20
-4.22074
11
4.48049
21
-4.2218
0
LINE
8
BLACK
6
CONTINUOUS
10
4.48049
20
-4.2218
11
4.47849
21
-4.2215
0
LINE
8
BLACK
6
CONTINUOUS
10
4.47849
20
-4.2215
11
4.47715
21
-4.21999
0
LINE
8
BLACK
6
CONTINUOUS
10
4.47715
20
-4.21999
11
4.47709
21
-4.21797
0
LINE
8
BLACK
6
CONTINUOUS
10
4.47709
20
-4.21797
11
4.49022
21
-4.1786
0
LINE
8
BLACK
6
CONTINUOUS
10
4.49022
20
-4.1786
11
4.49071
21
-4.1777
0
LINE
8
BLACK
6
CONTINUOUS
10
4.49071
20
-4.1777
11
4.49078
21
-4.17766
0
LINE
8
BLACK
6
CONTINUOUS
10
4.49078
20
-4.17766
11
4.49081
21
-4.17758
0
LINE
8
BLACK
6
CONTINUOUS
10
4.49081
20
-4.17758
11
4.49163
21
-4.17713
0
LINE
8
BLACK
6
CONTINUOUS
10
4.49163
20
-4.17713
11
4.49243
21
-4.17664
0
LINE
8
BLACK
6
CONTINUOUS
10
4.49243
20
-4.17664
11
4.49251
21
-4.17666
0
LINE
8
BLACK
6
CONTINUOUS
10
4.49251
20
-4.17666
11
4.49259
21
-4.17662
0
LINE
8
BLACK
6
CONTINUOUS
10
4.49259
20
-4.17662
11
4.4935
21
-4.1768
0
LINE
8
BLACK
6
CONTINUOUS
10
4.48774
20
-4.2047
11
4.4983
21
-4.2047
0
LINE
8
BLACK
6
CONTINUOUS
10
4.4983
20
-4.2047
11
4.49302
21
-4.18887
0
LINE
8
BLACK
6
CONTINUOUS
10
4.49302
20
-4.18887
11
4.48774
21
-4.2047
0
LINE
8
BLACK
6
CONTINUOUS
10
4.79346
20
-4.1768
11
4.79439
21
-4.17694
0
LINE
8
BLACK
6
CONTINUOUS
10
4.79439
20
-4.17694
11
4.79444
21
-4.177
0
LINE
8
BLACK
6
CONTINUOUS
10
4.79444
20
-4.177
11
4.79453
21
-4.17702
0
LINE
8
BLACK
6
CONTINUOUS
10
4.79453
20
-4.17702
11
4.79511
21
-4.17775
0
LINE
8
BLACK
6
CONTINUOUS
10
4.79511
20
-4.17775
11
4.79573
21
-4.17845
0
LINE
8
BLACK
6
CONTINUOUS
10
4.79573
20
-4.17845
11
4.79573
21
-4.17854
0
LINE
8
BLACK
6
CONTINUOUS
10
4.79573
20
-4.17854
11
4.79578
21
-4.1786
0
LINE
8
BLACK
6
CONTINUOUS
10
4.79578
20
-4.1786
11
4.80891
21
-4.21797
0
LINE
8
BLACK
6
CONTINUOUS
10
4.80891
20
-4.21797
11
4.80906
21
-4.21899
0
LINE
8
BLACK
6
CONTINUOUS
10
4.80906
20
-4.21899
11
4.80831
21
-4.22087
0
LINE
8
BLACK
6
CONTINUOUS
10
4.80831
20
-4.22087
11
4.80654
21
-4.22183
0
LINE
8
BLACK
6
CONTINUOUS
10
4.80654
20
-4.22183
11
4.80456
21
-4.22142
0
LINE
8
BLACK
6
CONTINUOUS
10
4.80456
20
-4.22142
11
4.8033
21
-4.21984
0
LINE
8
BLACK
6
CONTINUOUS
10
4.8033
20
-4.21984
11
4.80023
21
-4.21061
0
LINE
8
BLACK
6
CONTINUOUS
10
4.80023
20
-4.21061
11
4.78574
21
-4.21061
0
LINE
8
BLACK
6
CONTINUOUS
10
4.78574
20
-4.21061
11
4.78266
21
-4.21984
0
LINE
8
BLACK
6
CONTINUOUS
10
4.78266
20
-4.21984
11
4.78217
21
-4.22074
0
LINE
8
BLACK
6
CONTINUOUS
10
4.78217
20
-4.22074
11
4.78045
21
-4.2218
0
LINE
8
BLACK
6
CONTINUOUS
10
4.78045
20
-4.2218
11
4.77845
21
-4.2215
0
LINE
8
BLACK
6
CONTINUOUS
10
4.77845
20
-4.2215
11
4.77711
21
-4.21999
0
LINE
8
BLACK
6
CONTINUOUS
10
4.77711
20
-4.21999
11
4.77706
21
-4.21797
0
LINE
8
BLACK
6
CONTINUOUS
10
4.77706
20
-4.21797
11
4.79018
21
-4.1786
0
LINE
8
BLACK
6
CONTINUOUS
10
4.79018
20
-4.1786
11
4.79067
21
-4.1777
0
LINE
8
BLACK
6
CONTINUOUS
10
4.79067
20
-4.1777
11
4.79074
21
-4.17766
0
LINE
8
BLACK
6
CONTINUOUS
10
4.79074
20
-4.17766
11
4.79077
21
-4.17758
0
LINE
8
BLACK
6
CONTINUOUS
10
4.79077
20
-4.17758
11
4.79159
21
-4.17713
0
LINE
8
BLACK
6
CONTINUOUS
10
4.79159
20
-4.17713
11
4.79239
21
-4.17664
0
LINE
8
BLACK
6
CONTINUOUS
10
4.79239
20
-4.17664
11
4.79247
21
-4.17666
0
LINE
8
BLACK
6
CONTINUOUS
10
4.79247
20
-4.17666
11
4.79255
21
-4.17662
0
LINE
8
BLACK
6
CONTINUOUS
10
4.79255
20
-4.17662
11
4.79346
21
-4.1768
0
LINE
8
BLACK
6
CONTINUOUS
10
4.7877
20
-4.2047
11
4.79826
21
-4.2047
0
LINE
8
BLACK
6
CONTINUOUS
10
4.79826
20
-4.2047
11
4.79298
21
-4.18887
0
LINE
8
BLACK
6
CONTINUOUS
10
4.79298
20
-4.18887
11
4.7877
21
-4.2047
0
LINE
8
BLACK
6
CONTINUOUS
10
4.61214
20
-4.17676
11
4.61369
21
-4.17806
0
LINE
8
BLACK
6
CONTINUOUS
10
4.61369
20
-4.17806
11
4.61404
21
-4.18005
0
LINE
8
BLACK
6
CONTINUOUS
10
4.61404
20
-4.18005
11
4.61303
21
-4.1818
0
LINE
8
BLACK
6
CONTINUOUS
10
4.61303
20
-4.1818
11
4.61113
21
-4.18249
0
LINE
8
BLACK
6
CONTINUOUS
10
4.61113
20
-4.18249
11
4.60283
21
-4.18249
0
LINE
8
BLACK
6
CONTINUOUS
10
4.60283
20
-4.18249
11
4.60283
21
-4.21891
0
LINE
8
BLACK
6
CONTINUOUS
10
4.60283
20
-4.21891
11
4.60266
21
-4.21992
0
LINE
8
BLACK
6
CONTINUOUS
10
4.60266
20
-4.21992
11
4.60136
21
-4.22146
0
LINE
8
BLACK
6
CONTINUOUS
10
4.60136
20
-4.22146
11
4.59937
21
-4.22181
0
LINE
8
BLACK
6
CONTINUOUS
10
4.59937
20
-4.22181
11
4.59762
21
-4.2208
0
LINE
8
BLACK
6
CONTINUOUS
10
4.59762
20
-4.2208
11
4.59693
21
-4.21891
0
LINE
8
BLACK
6
CONTINUOUS
10
4.59693
20
-4.21891
11
4.59693
21
-4.18249
0
LINE
8
BLACK
6
CONTINUOUS
10
4.59693
20
-4.18249
11
4.58863
21
-4.18249
0
LINE
8
BLACK
6
CONTINUOUS
10
4.58863
20
-4.18249
11
4.58762
21
-4.18231
0
LINE
8
BLACK
6
CONTINUOUS
10
4.58762
20
-4.18231
11
4.58607
21
-4.18101
0
LINE
8
BLACK
6
CONTINUOUS
10
4.58607
20
-4.18101
11
4.58572
21
-4.17902
0
LINE
8
BLACK
6
CONTINUOUS
10
4.58572
20
-4.17902
11
4.58673
21
-4.17727
0
LINE
8
BLACK
6
CONTINUOUS
10
4.58673
20
-4.17727
11
4.58863
21
-4.17658
0
LINE
8
BLACK
6
CONTINUOUS
10
4.58863
20
-4.17658
11
4.61113
21
-4.17658
0
LINE
8
BLACK
6
CONTINUOUS
10
4.61113
20
-4.17658
11
4.61214
21
-4.17676
0
LINE
8
BLACK
6
CONTINUOUS
10
4.68624
20
-4.1767
11
4.68663
21
-4.17663
0
LINE
8
BLACK
6
CONTINUOUS
10
4.68663
20
-4.17663
11
4.68719
21
-4.17695
0
LINE
8
BLACK
6
CONTINUOUS
10
4.68719
20
-4.17695
11
4.68781
21
-4.17712
0
LINE
8
BLACK
6
CONTINUOUS
10
4.68781
20
-4.17712
11
4.68804
21
-4.17744
0
LINE
8
BLACK
6
CONTINUOUS
10
4.68804
20
-4.17744
11
4.68838
21
-4.17764
0
LINE
8
BLACK
6
CONTINUOUS
10
4.68838
20
-4.17764
11
4.6886
21
-4.17824
0
LINE
8
BLACK
6
CONTINUOUS
10
4.6886
20
-4.17824
11
4.68897
21
-4.17877
0
LINE
8
BLACK
6
CONTINUOUS
10
4.68897
20
-4.17877
11
4.68894
21
-4.17917
0
LINE
8
BLACK
6
CONTINUOUS
10
4.68894
20
-4.17917
11
4.68907
21
-4.17954
0
LINE
8
BLACK
6
CONTINUOUS
10
4.68907
20
-4.17954
11
4.68907
21
-4.21891
0
LINE
8
BLACK
6
CONTINUOUS
10
4.68907
20
-4.21891
11
4.68889
21
-4.21992
0
LINE
8
BLACK
6
CONTINUOUS
10
4.68889
20
-4.21992
11
4.6876
21
-4.22146
0
LINE
8
BLACK
6
CONTINUOUS
10
4.6876
20
-4.22146
11
4.68561
21
-4.22181
0
LINE
8
BLACK
6
CONTINUOUS
10
4.68561
20
-4.22181
11
4.68386
21
-4.2208
0
LINE
8
BLACK
6
CONTINUOUS
10
4.68386
20
-4.2208
11
4.68317
21
-4.21891
0
LINE
8
BLACK
6
CONTINUOUS
10
4.68317
20
-4.21891
11
4.68317
21
-4.19285
0
LINE
8
BLACK
6
CONTINUOUS
10
4.68317
20
-4.19285
11
4.67567
21
-4.20891
0
LINE
8
BLACK
6
CONTINUOUS
10
4.67567
20
-4.20891
11
4.67545
21
-4.20922
0
LINE
8
BLACK
6
CONTINUOUS
10
4.67545
20
-4.20922
11
4.67542
21
-4.20935
0
LINE
8
BLACK
6
CONTINUOUS
10
4.67542
20
-4.20935
11
4.67531
21
-4.20943
0
LINE
8
BLACK
6
CONTINUOUS
10
4.67531
20
-4.20943
11
4.67508
21
-4.20975
0
LINE
8
BLACK
6
CONTINUOUS
10
4.67508
20
-4.20975
11
4.67439
21
-4.21007
0
LINE
8
BLACK
6
CONTINUOUS
10
4.67439
20
-4.21007
11
4.67376
21
-4.21051
0
LINE
8
BLACK
6
CONTINUOUS
10
4.67376
20
-4.21051
11
4.67349
21
-4.21049
0
LINE
8
BLACK
6
CONTINUOUS
10
4.67349
20
-4.21049
11
4.67325
21
-4.2106
0
LINE
8
BLACK
6
CONTINUOUS
10
4.67325
20
-4.2106
11
4.67251
21
-4.2104
0
LINE
8
BLACK
6
CONTINUOUS
10
4.67251
20
-4.2104
11
4.67175
21
-4.21033
0
LINE
8
BLACK
6
CONTINUOUS
10
4.67175
20
-4.21033
11
4.67156
21
-4.21015
0
LINE
8
BLACK
6
CONTINUOUS
10
4.67156
20
-4.21015
11
4.6713
21
-4.21008
0
LINE
8
BLACK
6
CONTINUOUS
10
4.6713
20
-4.21008
11
4.67086
21
-4.20945
0
LINE
8
BLACK
6
CONTINUOUS
10
4.67086
20
-4.20945
11
4.67032
21
-4.20891
0
LINE
8
BLACK
6
CONTINUOUS
10
4.67032
20
-4.20891
11
4.66283
21
-4.19285
0
LINE
8
BLACK
6
CONTINUOUS
10
4.66283
20
-4.19285
11
4.66283
21
-4.21891
0
LINE
8
BLACK
6
CONTINUOUS
10
4.66283
20
-4.21891
11
4.66265
21
-4.21992
0
LINE
8
BLACK
6
CONTINUOUS
10
4.66265
20
-4.21992
11
4.66135
21
-4.22146
0
LINE
8
BLACK
6
CONTINUOUS
10
4.66135
20
-4.22146
11
4.65936
21
-4.22181
0
LINE
8
BLACK
6
CONTINUOUS
10
4.65936
20
-4.22181
11
4.65761
21
-4.2208
0
LINE
8
BLACK
6
CONTINUOUS
10
4.65761
20
-4.2208
11
4.65692
21
-4.21891
0
LINE
8
BLACK
6
CONTINUOUS
10
4.65692
20
-4.21891
11
4.65692
21
-4.17954
0
LINE
8
BLACK
6
CONTINUOUS
10
4.65692
20
-4.17954
11
4.6571
21
-4.17853
0
LINE
8
BLACK
6
CONTINUOUS
10
4.6571
20
-4.17853
11
4.65735
21
-4.17822
0
LINE
8
BLACK
6
CONTINUOUS
10
4.65735
20
-4.17822
11
4.65745
21
-4.17784
0
LINE
8
BLACK
6
CONTINUOUS
10
4.65745
20
-4.17784
11
4.65798
21
-4.17747
0
LINE
8
BLACK
6
CONTINUOUS
10
4.65798
20
-4.17747
11
4.6584
21
-4.17698
0
LINE
8
BLACK
6
CONTINUOUS
10
4.6584
20
-4.17698
11
4.65878
21
-4.17691
0
LINE
8
BLACK
6
CONTINUOUS
10
4.65878
20
-4.17691
11
4.65911
21
-4.17668
0
LINE
8
BLACK
6
CONTINUOUS
10
4.65911
20
-4.17668
11
4.65975
21
-4.17674
0
LINE
8
BLACK
6
CONTINUOUS
10
4.65975
20
-4.17674
11
4.66039
21
-4.17663
0
LINE
8
BLACK
6
CONTINUOUS
10
4.66039
20
-4.17663
11
4.66073
21
-4.17683
0
LINE
8
BLACK
6
CONTINUOUS
10
4.66073
20
-4.17683
11
4.66112
21
-4.17686
0
LINE
8
BLACK
6
CONTINUOUS
10
4.66112
20
-4.17686
11
4.66158
21
-4.17732
0
LINE
8
BLACK
6
CONTINUOUS
10
4.66158
20
-4.17732
11
4.66213
21
-4.17764
0
LINE
8
BLACK
6
CONTINUOUS
10
4.66213
20
-4.17764
11
4.66227
21
-4.17801
0
LINE
8
BLACK
6
CONTINUOUS
10
4.66227
20
-4.17801
11
4.66255
21
-4.17829
0
LINE
8
BLACK
6
CONTINUOUS
10
4.66255
20
-4.17829
11
4.673
21
-4.20068
0
LINE
8
BLACK
6
CONTINUOUS
10
4.673
20
-4.20068
11
4.68344
21
-4.17829
0
LINE
8
BLACK
6
CONTINUOUS
10
4.68344
20
-4.17829
11
4.68403
21
-4.17745
0
LINE
8
BLACK
6
CONTINUOUS
10
4.68403
20
-4.17745
11
4.68439
21
-4.17728
0
LINE
8
BLACK
6
CONTINUOUS
10
4.68439
20
-4.17728
11
4.68464
21
-4.17698
0
LINE
8
BLACK
6
CONTINUOUS
10
4.68464
20
-4.17698
11
4.68528
21
-4.17687
0
LINE
8
BLACK
6
CONTINUOUS
10
4.68528
20
-4.17687
11
4.68586
21
-4.17659
0
LINE
8
BLACK
6
CONTINUOUS
10
4.68586
20
-4.17659
11
4.68624
21
-4.1767
0
LINE
8
BLACK
6
CONTINUOUS
10
4.70713
20
-4.17764
11
4.70782
21
-4.17954
0
LINE
8
BLACK
6
CONTINUOUS
10
4.70782
20
-4.17954
11
4.70782
21
-4.21891
0
LINE
8
BLACK
6
CONTINUOUS
10
4.70782
20
-4.21891
11
4.70764
21
-4.21992
0
LINE
8
BLACK
6
CONTINUOUS
10
4.70764
20
-4.21992
11
4.70634
21
-4.22146
0
LINE
8
BLACK
6
CONTINUOUS
10
4.70634
20
-4.22146
11
4.70435
21
-4.22181
0
LINE
8
BLACK
6
CONTINUOUS
10
4.70435
20
-4.22181
11
4.70261
21
-4.2208
0
LINE
8
BLACK
6
CONTINUOUS
10
4.70261
20
-4.2208
11
4.70191
21
-4.21891
0
LINE
8
BLACK
6
CONTINUOUS
10
4.70191
20
-4.21891
11
4.70191
21
-4.17954
0
LINE
8
BLACK
6
CONTINUOUS
10
4.70191
20
-4.17954
11
4.70209
21
-4.17853
0
LINE
8
BLACK
6
CONTINUOUS
10
4.70209
20
-4.17853
11
4.70339
21
-4.17698
0
LINE
8
BLACK
6
CONTINUOUS
10
4.70339
20
-4.17698
11
4.70538
21
-4.17663
0
LINE
8
BLACK
6
CONTINUOUS
10
4.70538
20
-4.17663
11
4.70713
21
-4.17764
0
LINE
8
BLACK
6
CONTINUOUS
10
4.7415
20
-4.17676
11
4.74304
21
-4.17806
0
LINE
8
BLACK
6
CONTINUOUS
10
4.74304
20
-4.17806
11
4.7434
21
-4.18005
0
LINE
8
BLACK
6
CONTINUOUS
10
4.7434
20
-4.18005
11
4.74239
21
-4.1818
0
LINE
8
BLACK
6
CONTINUOUS
10
4.74239
20
-4.1818
11
4.74049
21
-4.18249
0
LINE
8
BLACK
6
CONTINUOUS
10
4.74049
20
-4.18249
11
4.73219
21
-4.18249
0
LINE
8
BLACK
6
CONTINUOUS
10
4.73219
20
-4.18249
11
4.73219
21
-4.21891
0
LINE
8
BLACK
6
CONTINUOUS
10
4.73219
20
-4.21891
11
4.73201
21
-4.21992
0
LINE
8
BLACK
6
CONTINUOUS
10
4.73201
20
-4.21992
11
4.73072
21
-4.22146
0
LINE
8
BLACK
6
CONTINUOUS
10
4.73072
20
-4.22146
11
4.72873
21
-4.22181
0
LINE
8
BLACK
6
CONTINUOUS
10
4.72873
20
-4.22181
11
4.72698
21
-4.2208
0
LINE
8
BLACK
6
CONTINUOUS
10
4.72698
20
-4.2208
11
4.72629
21
-4.21891
0
LINE
8
BLACK
6
CONTINUOUS
10
4.72629
20
-4.21891
11
4.72629
21
-4.18249
0
LINE
8
BLACK
6
CONTINUOUS
10
4.72629
20
-4.18249
11
4.71799
21
-4.18249
0
LINE
8
BLACK
6
CONTINUOUS
10
4.71799
20
-4.18249
11
4.71698
21
-4.18231
0
LINE
8
BLACK
6
CONTINUOUS
10
4.71698
20
-4.18231
11
4.71543
21
-4.18101
0
LINE
8
BLACK
6
CONTINUOUS
10
4.71543
20
-4.18101
11
4.71508
21
-4.17902
0
LINE
8
BLACK
6
CONTINUOUS
10
4.71508
20
-4.17902
11
4.71609
21
-4.17727
0
LINE
8
BLACK
6
CONTINUOUS
10
4.71609
20
-4.17727
11
4.71799
21
-4.17658
0
LINE
8
BLACK
6
CONTINUOUS
10
4.71799
20
-4.17658
11
4.74049
21
-4.17658
0
LINE
8
BLACK
6
CONTINUOUS
10
4.74049
20
-4.17658
11
4.7415
21
-4.17676
0
LINE
8
BLACK
6
CONTINUOUS
10
5.71008
20
-4.18888
11
5.71163
21
-4.19018
0
LINE
8
BLACK
6
CONTINUOUS
10
5.71163
20
-4.19018
11
5.71198
21
-4.19217
0
LINE
8
BLACK
6
CONTINUOUS
10
5.71198
20
-4.19217
11
5.71097
21
-4.19392
0
LINE
8
BLACK
6
CONTINUOUS
10
5.71097
20
-4.19392
11
5.70907
21
-4.19461
0
LINE
8
BLACK
6
CONTINUOUS
10
5.70907
20
-4.19461
11
5.69453
21
-4.19461
0
LINE
8
BLACK
6
CONTINUOUS
10
5.69453
20
-4.19461
11
5.7114
21
-4.21608
0
LINE
8
BLACK
6
CONTINUOUS
10
5.7114
20
-4.21608
11
5.71154
21
-4.21636
0
LINE
8
BLACK
6
CONTINUOUS
10
5.71154
20
-4.21636
11
5.71163
21
-4.21643
0
LINE
8
BLACK
6
CONTINUOUS
10
5.71163
20
-4.21643
11
5.71166
21
-4.21657
0
LINE
8
BLACK
6
CONTINUOUS
10
5.71166
20
-4.21657
11
5.71188
21
-4.21699
0
LINE
8
BLACK
6
CONTINUOUS
10
5.71188
20
-4.21699
11
5.71186
21
-4.21771
0
LINE
8
BLACK
6
CONTINUOUS
10
5.71186
20
-4.21771
11
5.71198
21
-4.21842
0
LINE
8
BLACK
6
CONTINUOUS
10
5.71198
20
-4.21842
11
5.71182
21
-4.21869
0
LINE
8
BLACK
6
CONTINUOUS
10
5.71182
20
-4.21869
11
5.71181
21
-4.219
0
LINE
8
BLACK
6
CONTINUOUS
10
5.71181
20
-4.219
11
5.71133
21
-4.21954
0
LINE
8
BLACK
6
CONTINUOUS
10
5.71133
20
-4.21954
11
5.71097
21
-4.22017
0
LINE
8
BLACK
6
CONTINUOUS
10
5.71097
20
-4.22017
11
5.71068
21
-4.22028
0
LINE
8
BLACK
6
CONTINUOUS
10
5.71068
20
-4.22028
11
5.71047
21
-4.22051
0
LINE
8
BLACK
6
CONTINUOUS
10
5.71047
20
-4.22051
11
5.70975
21
-4.22061
0
LINE
8
BLACK
6
CONTINUOUS
10
5.70975
20
-4.22061
11
5.70907
21
-4.22086
0
LINE
8
BLACK
6
CONTINUOUS
10
5.70907
20
-4.22086
11
5.68845
21
-4.22086
0
LINE
8
BLACK
6
CONTINUOUS
10
5.68845
20
-4.22086
11
5.68744
21
-4.22068
0
LINE
8
BLACK
6
CONTINUOUS
10
5.68744
20
-4.22068
11
5.68589
21
-4.21938
0
LINE
8
BLACK
6
CONTINUOUS
10
5.68589
20
-4.21938
11
5.68554
21
-4.21739
0
LINE
8
BLACK
6
CONTINUOUS
10
5.68554
20
-4.21739
11
5.68655
21
-4.21564
0
LINE
8
BLACK
6
CONTINUOUS
10
5.68655
20
-4.21564
11
5.68845
21
-4.21495
0
LINE
8
BLACK
6
CONTINUOUS
10
5.68845
20
-4.21495
11
5.703
21
-4.21495
0
LINE
8
BLACK
6
CONTINUOUS
10
5.703
20
-4.21495
11
5.68613
21
-4.19348
0
LINE
8
BLACK
6
CONTINUOUS
10
5.68613
20
-4.19348
11
5.68598
21
-4.19321
0
LINE
8
BLACK
6
CONTINUOUS
10
5.68598
20
-4.19321
11
5.68589
21
-4.19314
0
LINE
8
BLACK
6
CONTINUOUS
10
5.68589
20
-4.19314
11
5.68587
21
-4.193
0
LINE
8
BLACK
6
CONTINUOUS
10
5.68587
20
-4.193
11
5.68565
21
-4.19258
0
LINE
8
BLACK
6
CONTINUOUS
10
5.68565
20
-4.19258
11
5.68567
21
-4.19186
0
LINE
8
BLACK
6
CONTINUOUS
10
5.68567
20
-4.19186
11
5.68554
21
-4.19115
0
LINE
8
BLACK
6
CONTINUOUS
10
5.68554
20
-4.19115
11
5.6857
21
-4.19087
0
LINE
8
BLACK
6
CONTINUOUS
10
5.6857
20
-4.19087
11
5.68571
21
-4.19056
0
LINE
8
BLACK
6
CONTINUOUS
10
5.68571
20
-4.19056
11
5.68619
21
-4.19002
0
LINE
8
BLACK
6
CONTINUOUS
10
5.68619
20
-4.19002
11
5.68655
21
-4.1894
0
LINE
8
BLACK
6
CONTINUOUS
10
5.68655
20
-4.1894
11
5.68685
21
-4.18929
0
LINE
8
BLACK
6
CONTINUOUS
10
5.68685
20
-4.18929
11
5.68706
21
-4.18906
0
LINE
8
BLACK
6
CONTINUOUS
10
5.68706
20
-4.18906
11
5.68777
21
-4.18895
0
LINE
8
BLACK
6
CONTINUOUS
10
5.68777
20
-4.18895
11
5.68845
21
-4.18871
0
LINE
8
BLACK
6
CONTINUOUS
10
5.68845
20
-4.18871
11
5.70907
21
-4.18871
0
LINE
8
BLACK
6
CONTINUOUS
10
5.70907
20
-4.18871
11
5.71008
21
-4.18888
0
LINE
8
BLACK
6
CONTINUOUS
10
5.73446
20
-4.18888
11
5.73459
21
-4.189
0
LINE
8
BLACK
6
CONTINUOUS
10
5.73459
20
-4.189
11
5.73477
21
-4.18902
0
LINE
8
BLACK
6
CONTINUOUS
10
5.73477
20
-4.18902
11
5.73852
21
-4.19089
0
LINE
8
BLACK
6
CONTINUOUS
10
5.73852
20
-4.19089
11
5.73922
21
-4.19142
0
LINE
8
BLACK
6
CONTINUOUS
10
5.73922
20
-4.19142
11
5.73928
21
-4.19145
0
LINE
8
BLACK
6
CONTINUOUS
10
5.73928
20
-4.19145
11
5.74116
21
-4.19332
0
LINE
8
BLACK
6
CONTINUOUS
10
5.74116
20
-4.19332
11
5.74166
21
-4.19404
0
LINE
8
BLACK
6
CONTINUOUS
10
5.74166
20
-4.19404
11
5.74171
21
-4.19409
0
LINE
8
BLACK
6
CONTINUOUS
10
5.74171
20
-4.19409
11
5.74359
21
-4.19784
0
LINE
8
BLACK
6
CONTINUOUS
10
5.74359
20
-4.19784
11
5.74388
21
-4.19882
0
LINE
8
BLACK
6
CONTINUOUS
10
5.74388
20
-4.19882
11
5.74384
21
-4.19899
0
LINE
8
BLACK
6
CONTINUOUS
10
5.74384
20
-4.19899
11
5.7439
21
-4.19916
0
LINE
8
BLACK
6
CONTINUOUS
10
5.7439
20
-4.19916
11
5.7439
21
-4.21041
0
LINE
8
BLACK
6
CONTINUOUS
10
5.7439
20
-4.21041
11
5.74372
21
-4.21142
0
LINE
8
BLACK
6
CONTINUOUS
10
5.74372
20
-4.21142
11
5.74361
21
-4.21155
0
LINE
8
BLACK
6
CONTINUOUS
10
5.74361
20
-4.21155
11
5.74359
21
-4.21173
0
LINE
8
BLACK
6
CONTINUOUS
10
5.74359
20
-4.21173
11
5.74171
21
-4.21548
0
LINE
8
BLACK
6
CONTINUOUS
10
5.74171
20
-4.21548
11
5.74119
21
-4.21619
0
LINE
8
BLACK
6
CONTINUOUS
10
5.74119
20
-4.21619
11
5.74116
21
-4.21624
0
LINE
8
BLACK
6
CONTINUOUS
10
5.74116
20
-4.21624
11
5.73928
21
-4.21812
0
LINE
8
BLACK
6
CONTINUOUS
10
5.73928
20
-4.21812
11
5.73856
21
-4.21863
0
LINE
8
BLACK
6
CONTINUOUS
10
5.73856
20
-4.21863
11
5.73852
21
-4.21867
0
LINE
8
BLACK
6
CONTINUOUS
10
5.73852
20
-4.21867
11
5.73477
21
-4.22055
0
LINE
8
BLACK
6
CONTINUOUS
10
5.73477
20
-4.22055
11
5.73378
21
-4.22084
0
LINE
8
BLACK
6
CONTINUOUS
10
5.73378
20
-4.22084
11
5.73361
21
-4.2208
0
LINE
8
BLACK
6
CONTINUOUS
10
5.73361
20
-4.2208
11
5.73345
21
-4.22086
0
LINE
8
BLACK
6
CONTINUOUS
10
5.73345
20
-4.22086
11
5.72595
21
-4.22086
0
LINE
8
BLACK
6
CONTINUOUS
10
5.72595
20
-4.22086
11
5.72494
21
-4.22068
0
LINE
8
BLACK
6
CONTINUOUS
10
5.72494
20
-4.22068
11
5.7248
21
-4.22057
0
LINE
8
BLACK
6
CONTINUOUS
10
5.7248
20
-4.22057
11
5.72463
21
-4.22055
0
LINE
8
BLACK
6
CONTINUOUS
10
5.72463
20
-4.22055
11
5.72088
21
-4.21867
0
LINE
8
BLACK
6
CONTINUOUS
10
5.72088
20
-4.21867
11
5.72005
21
-4.21806
0
LINE
8
BLACK
6
CONTINUOUS
10
5.72005
20
-4.21806
11
5.71925
21
-4.21621
0
LINE
8
BLACK
6
CONTINUOUS
10
5.71925
20
-4.21621
11
5.71983
21
-4.21427
0
LINE
8
BLACK
6
CONTINUOUS
10
5.71983
20
-4.21427
11
5.72151
21
-4.21316
0
LINE
8
BLACK
6
CONTINUOUS
10
5.72151
20
-4.21316
11
5.72352
21
-4.21339
0
LINE
8
BLACK
6
CONTINUOUS
10
5.72352
20
-4.21339
11
5.72664
21
-4.21495
0
LINE
8
BLACK
6
CONTINUOUS
10
5.72664
20
-4.21495
11
5.73275
21
-4.21495
0
LINE
8
BLACK
6
CONTINUOUS
10
5.73275
20
-4.21495
11
5.73545
21
-4.2136
0
LINE
8
BLACK
6
CONTINUOUS
10
5.73545
20
-4.2136
11
5.73664
21
-4.21241
0
LINE
8
BLACK
6
CONTINUOUS
10
5.73664
20
-4.21241
11
5.73799
21
-4.20971
0
LINE
8
BLACK
6
CONTINUOUS
10
5.73799
20
-4.20971
11
5.73799
21
-4.19986
0
LINE
8
BLACK
6
CONTINUOUS
10
5.73799
20
-4.19986
11
5.73664
21
-4.19716
0
LINE
8
BLACK
6
CONTINUOUS
10
5.73664
20
-4.19716
11
5.73545
21
-4.19596
0
LINE
8
BLACK
6
CONTINUOUS
10
5.73545
20
-4.19596
11
5.73275
21
-4.19461
0
LINE
8
BLACK
6
CONTINUOUS
10
5.73275
20
-4.19461
11
5.72664
21
-4.19461
0
LINE
8
BLACK
6
CONTINUOUS
10
5.72664
20
-4.19461
11
5.72352
21
-4.19618
0
LINE
8
BLACK
6
CONTINUOUS
10
5.72352
20
-4.19618
11
5.72253
21
-4.19647
0
LINE
8
BLACK
6
CONTINUOUS
10
5.72253
20
-4.19647
11
5.72057
21
-4.196
0
LINE
8
BLACK
6
CONTINUOUS
10
5.72057
20
-4.196
11
5.71937
21
-4.19438
0
LINE
8
BLACK
6
CONTINUOUS
10
5.71937
20
-4.19438
11
5.71949
21
-4.19236
0
LINE
8
BLACK
6
CONTINUOUS
10
5.71949
20
-4.19236
11
5.72088
21
-4.19089
0
LINE
8
BLACK
6
CONTINUOUS
10
5.72088
20
-4.19089
11
5.72463
21
-4.18902
0
LINE
8
BLACK
6
CONTINUOUS
10
5.72463
20
-4.18902
11
5.72561
21
-4.18873
0
LINE
8
BLACK
6
CONTINUOUS
10
5.72561
20
-4.18873
11
5.72578
21
-4.18877
0
LINE
8
BLACK
6
CONTINUOUS
10
5.72578
20
-4.18877
11
5.72595
21
-4.18871
0
LINE
8
BLACK
6
CONTINUOUS
10
5.72595
20
-4.18871
11
5.73345
21
-4.18871
0
LINE
8
BLACK
6
CONTINUOUS
10
5.73345
20
-4.18871
11
5.73446
21
-4.18888
0
LINE
8
BLACK
6
CONTINUOUS
10
5.79757
20
-4.17565
11
5.7977
21
-4.17563
0
LINE
8
BLACK
6
CONTINUOUS
10
5.7977
20
-4.17563
11
5.79781
21
-4.17569
0
LINE
8
BLACK
6
CONTINUOUS
10
5.79781
20
-4.17569
11
5.7982
21
-4.17576
0
LINE
8
BLACK
6
CONTINUOUS
10
5.7982
20
-4.17576
11
5.79879
21
-4.17625
0
LINE
8
BLACK
6
CONTINUOUS
10
5.79879
20
-4.17625
11
5.79945
21
-4.17664
0
LINE
8
BLACK
6
CONTINUOUS
10
5.79945
20
-4.17664
11
5.79954
21
-4.17689
0
LINE
8
BLACK
6
CONTINUOUS
10
5.79954
20
-4.17689
11
5.79974
21
-4.17706
0
LINE
8
BLACK
6
CONTINUOUS
10
5.79974
20
-4.17706
11
5.79988
21
-4.17782
0
LINE
8
BLACK
6
CONTINUOUS
10
5.79988
20
-4.17782
11
5.80014
21
-4.17854
0
LINE
8
BLACK
6
CONTINUOUS
10
5.80014
20
-4.17854
11
5.80014
21
-4.21791
0
LINE
8
BLACK
6
CONTINUOUS
10
5.80014
20
-4.21791
11
5.80007
21
-4.21829
0
LINE
8
BLACK
6
CONTINUOUS
10
5.80007
20
-4.21829
11
5.8001
21
-4.21842
0
LINE
8
BLACK
6
CONTINUOUS
10
5.8001
20
-4.21842
11
5.80003
21
-4.21853
0
LINE
8
BLACK
6
CONTINUOUS
10
5.80003
20
-4.21853
11
5.79996
21
-4.21892
0
LINE
8
BLACK
6
CONTINUOUS
10
5.79996
20
-4.21892
11
5.79947
21
-4.2195
0
LINE
8
BLACK
6
CONTINUOUS
10
5.79947
20
-4.2195
11
5.79909
21
-4.22017
0
LINE
8
BLACK
6
CONTINUOUS
10
5.79909
20
-4.22017
11
5.79884
21
-4.22026
0
LINE
8
BLACK
6
CONTINUOUS
10
5.79884
20
-4.22026
11
5.79866
21
-4.22046
0
LINE
8
BLACK
6
CONTINUOUS
10
5.79866
20
-4.22046
11
5.79791
21
-4.2206
0
LINE
8
BLACK
6
CONTINUOUS
10
5.79791
20
-4.2206
11
5.79719
21
-4.22086
0
LINE
8
BLACK
6
CONTINUOUS
10
5.79719
20
-4.22086
11
5.78219
21
-4.22086
0
LINE
8
BLACK
6
CONTINUOUS
10
5.78219
20
-4.22086
11
5.78118
21
-4.22068
0
LINE
8
BLACK
6
CONTINUOUS
10
5.78118
20
-4.22068
11
5.78104
21
-4.22057
0
LINE
8
BLACK
6
CONTINUOUS
10
5.78104
20
-4.22057
11
5.78087
21
-4.22055
0
LINE
8
BLACK
6
CONTINUOUS
10
5.78087
20
-4.22055
11
5.77712
21
-4.21867
0
LINE
8
BLACK
6
CONTINUOUS
10
5.77712
20
-4.21867
11
5.77641
21
-4.21815
0
LINE
8
BLACK
6
CONTINUOUS
10
5.77641
20
-4.21815
11
5.77635
21
-4.21812
0
LINE
8
BLACK
6
CONTINUOUS
10
5.77635
20
-4.21812
11
5.77448
21
-4.21624
0
LINE
8
BLACK
6
CONTINUOUS
10
5.77448
20
-4.21624
11
5.77397
21
-4.21552
0
LINE
8
BLACK
6
CONTINUOUS
10
5.77397
20
-4.21552
11
5.77392
21
-4.21548
0
LINE
8
BLACK
6
CONTINUOUS
10
5.77392
20
-4.21548
11
5.77205
21
-4.21173
0
LINE
8
BLACK
6
CONTINUOUS
10
5.77205
20
-4.21173
11
5.77176
21
-4.21074
0
LINE
8
BLACK
6
CONTINUOUS
10
5.77176
20
-4.21074
11
5.7718
21
-4.21057
0
LINE
8
BLACK
6
CONTINUOUS
10
5.7718
20
-4.21057
11
5.77174
21
-4.21041
0
LINE
8
BLACK
6
CONTINUOUS
10
5.77174
20
-4.21041
11
5.77174
21
-4.20478
0
LINE
8
BLACK
6
CONTINUOUS
10
5.77174
20
-4.20478
11
5.77192
21
-4.20377
0
LINE
8
BLACK
6
CONTINUOUS
10
5.77192
20
-4.20377
11
5.77203
21
-4.20364
0
LINE
8
BLACK
6
CONTINUOUS
10
5.77203
20
-4.20364
11
5.77205
21
-4.20346
0
LINE
8
BLACK
6
CONTINUOUS
10
5.77205
20
-4.20346
11
5.77392
21
-4.19971
0
LINE
8
BLACK
6
CONTINUOUS
10
5.77392
20
-4.19971
11
5.77445
21
-4.199
0
LINE
8
BLACK
6
CONTINUOUS
10
5.77445
20
-4.199
11
5.77448
21
-4.19895
0
LINE
8
BLACK
6
CONTINUOUS
10
5.77448
20
-4.19895
11
5.77635
21
-4.19707
0
LINE
8
BLACK
6
CONTINUOUS
10
5.77635
20
-4.19707
11
5.77719
21
-4.19648
0
LINE
8
BLACK
6
CONTINUOUS
10
5.77719
20
-4.19648
11
5.77721
21
-4.19648
0
LINE
8
BLACK
6
CONTINUOUS
10
5.77721
20
-4.19648
11
5.77635
21
-4.19562
0
LINE
8
BLACK
6
CONTINUOUS
10
5.77635
20
-4.19562
11
5.77585
21
-4.1949
0
LINE
8
BLACK
6
CONTINUOUS
10
5.77585
20
-4.1949
11
5.7758
21
-4.19485
0
LINE
8
BLACK
6
CONTINUOUS
10
5.7758
20
-4.19485
11
5.77392
21
-4.19111
0
LINE
8
BLACK
6
CONTINUOUS
10
5.77392
20
-4.19111
11
5.77363
21
-4.19012
0
LINE
8
BLACK
6
CONTINUOUS
10
5.77363
20
-4.19012
11
5.77367
21
-4.18995
0
LINE
8
BLACK
6
CONTINUOUS
10
5.77367
20
-4.18995
11
5.77361
21
-4.18978
0
LINE
8
BLACK
6
CONTINUOUS
10
5.77361
20
-4.18978
11
5.77361
21
-4.18604
0
LINE
8
BLACK
6
CONTINUOUS
10
5.77361
20
-4.18604
11
5.77379
21
-4.18503
0
LINE
8
BLACK
6
CONTINUOUS
10
5.77379
20
-4.18503
11
5.7739
21
-4.18489
0
LINE
8
BLACK
6
CONTINUOUS
10
5.7739
20
-4.18489
11
5.77392
21
-4.18471
0
LINE
8
BLACK
6
CONTINUOUS
10
5.77392
20
-4.18471
11
5.7758
21
-4.18097
0
LINE
8
BLACK
6
CONTINUOUS
10
5.7758
20
-4.18097
11
5.77633
21
-4.18026
0
LINE
8
BLACK
6
CONTINUOUS
10
5.77633
20
-4.18026
11
5.77635
21
-4.1802
0
LINE
8
BLACK
6
CONTINUOUS
10
5.77635
20
-4.1802
11
5.77823
21
-4.17832
0
LINE
8
BLACK
6
CONTINUOUS
10
5.77823
20
-4.17832
11
5.77895
21
-4.17782
0
LINE
8
BLACK
6
CONTINUOUS
10
5.77895
20
-4.17782
11
5.77899
21
-4.17777
0
LINE
8
BLACK
6
CONTINUOUS
10
5.77899
20
-4.17777
11
5.78274
21
-4.1759
0
LINE
8
BLACK
6
CONTINUOUS
10
5.78274
20
-4.1759
11
5.78373
21
-4.1756
0
LINE
8
BLACK
6
CONTINUOUS
10
5.78373
20
-4.1756
11
5.7839
21
-4.17564
0
LINE
8
BLACK
6
CONTINUOUS
10
5.7839
20
-4.17564
11
5.78406
21
-4.17558
0
LINE
8
BLACK
6
CONTINUOUS
10
5.78406
20
-4.17558
11
5.79719
21
-4.17558
0
LINE
8
BLACK
6
CONTINUOUS
10
5.79719
20
-4.17558
11
5.79757
21
-4.17565
0
LINE
8
BLACK
6
CONTINUOUS
10
5.78004
20
-4.20174
11
5.77899
21
-4.20278
0
LINE
8
BLACK
6
CONTINUOUS
10
5.77899
20
-4.20278
11
5.77764
21
-4.20548
0
LINE
8
BLACK
6
CONTINUOUS
10
5.77764
20
-4.20548
11
5.77764
21
-4.20971
0
LINE
8
BLACK
6
CONTINUOUS
10
5.77764
20
-4.20971
11
5.77899
21
-4.21241
0
LINE
8
BLACK
6
CONTINUOUS
10
5.77899
20
-4.21241
11
5.78019
21
-4.2136
0
LINE
8
BLACK
6
CONTINUOUS
10
5.78019
20
-4.2136
11
5.78289
21
-4.21495
0
LINE
8
BLACK
6
CONTINUOUS
10
5.78289
20
-4.21495
11
5.79424
21
-4.21495
0
LINE
8
BLACK
6
CONTINUOUS
10
5.79424
20
-4.21495
11
5.79424
21
-4.20024
0
LINE
8
BLACK
6
CONTINUOUS
10
5.79424
20
-4.20024
11
5.78454
21
-4.20024
0
LINE
8
BLACK
6
CONTINUOUS
10
5.78454
20
-4.20024
11
5.78004
21
-4.20174
0
LINE
8
BLACK
6
CONTINUOUS
10
5.78206
20
-4.18284
11
5.78087
21
-4.18403
0
LINE
8
BLACK
6
CONTINUOUS
10
5.78087
20
-4.18403
11
5.77952
21
-4.18673
0
LINE
8
BLACK
6
CONTINUOUS
10
5.77952
20
-4.18673
11
5.77952
21
-4.18909
0
LINE
8
BLACK
6
CONTINUOUS
10
5.77952
20
-4.18909
11
5.78087
21
-4.19179
0
LINE
8
BLACK
6
CONTINUOUS
10
5.78087
20
-4.19179
11
5.78206
21
-4.19298
0
LINE
8
BLACK
6
CONTINUOUS
10
5.78206
20
-4.19298
11
5.78476
21
-4.19433
0
LINE
8
BLACK
6
CONTINUOUS
10
5.78476
20
-4.19433
11
5.79424
21
-4.19433
0
LINE
8
BLACK
6
CONTINUOUS
10
5.79424
20
-4.19433
11
5.79424
21
-4.18149
0
LINE
8
BLACK
6
CONTINUOUS
10
5.79424
20
-4.18149
11
5.78476
21
-4.18149
0
LINE
8
BLACK
6
CONTINUOUS
10
5.78476
20
-4.18149
11
5.78206
21
-4.18284
0
LINE
8
BLACK
6
CONTINUOUS
10
5.86507
20
-4.17664
11
5.86576
21
-4.17854
0
LINE
8
BLACK
6
CONTINUOUS
10
5.86576
20
-4.17854
11
5.86576
21
-4.21791
0
LINE
8
BLACK
6
CONTINUOUS
10
5.86576
20
-4.21791
11
5.86569
21
-4.21829
0
LINE
8
BLACK
6
CONTINUOUS
10
5.86569
20
-4.21829
11
5.86571
21
-4.21842
0
LINE
8
BLACK
6
CONTINUOUS
10
5.86571
20
-4.21842
11
5.86565
21
-4.21853
0
LINE
8
BLACK
6
CONTINUOUS
10
5.86565
20
-4.21853
11
5.86558
21
-4.21892
0
LINE
8
BLACK
6
CONTINUOUS
10
5.86558
20
-4.21892
11
5.86509
21
-4.2195
0
LINE
8
BLACK
6
CONTINUOUS
10
5.86509
20
-4.2195
11
5.8647
21
-4.22017
0
LINE
8
BLACK
6
CONTINUOUS
10
5.8647
20
-4.22017
11
5.86445
21
-4.22026
0
LINE
8
BLACK
6
CONTINUOUS
10
5.86445
20
-4.22026
11
5.86428
21
-4.22046
0
LINE
8
BLACK
6
CONTINUOUS
10
5.86428
20
-4.22046
11
5.86353
21
-4.2206
0
LINE
8
BLACK
6
CONTINUOUS
10
5.86353
20
-4.2206
11
5.8628
21
-4.22086
0
LINE
8
BLACK
6
CONTINUOUS
10
5.8628
20
-4.22086
11
5.84406
21
-4.22086
0
LINE
8
BLACK
6
CONTINUOUS
10
5.84406
20
-4.22086
11
5.84305
21
-4.22068
0
LINE
8
BLACK
6
CONTINUOUS
10
5.84305
20
-4.22068
11
5.8415
21
-4.21938
0
LINE
8
BLACK
6
CONTINUOUS
10
5.8415
20
-4.21938
11
5.84115
21
-4.21739
0
LINE
8
BLACK
6
CONTINUOUS
10
5.84115
20
-4.21739
11
5.84216
21
-4.21564
0
LINE
8
BLACK
6
CONTINUOUS
10
5.84216
20
-4.21564
11
5.84406
21
-4.21495
0
LINE
8
BLACK
6
CONTINUOUS
10
5.84406
20
-4.21495
11
5.85985
21
-4.21495
0
LINE
8
BLACK
6
CONTINUOUS
10
5.85985
20
-4.21495
11
5.85985
21
-4.17854
0
LINE
8
BLACK
6
CONTINUOUS
10
5.85985
20
-4.17854
11
5.86003
21
-4.17753
0
LINE
8
BLACK
6
CONTINUOUS
10
5.86003
20
-4.17753
11
5.86133
21
-4.17598
0
LINE
8
BLACK
6
CONTINUOUS
10
5.86133
20
-4.17598
11
5.86332
21
-4.17563
0
LINE
8
BLACK
6
CONTINUOUS
10
5.86332
20
-4.17563
11
5.86507
21
-4.17664
0
LINE
8
BLACK
6
CONTINUOUS
10
5.7582
20
-4.21127
11
5.75833
21
-4.21125
0
LINE
8
BLACK
6
CONTINUOUS
10
5.75833
20
-4.21125
11
5.75845
21
-4.21132
0
LINE
8
BLACK
6
CONTINUOUS
10
5.75845
20
-4.21132
11
5.75858
21
-4.2113
0
LINE
8
BLACK
6
CONTINUOUS
10
5.75858
20
-4.2113
11
5.75921
21
-4.21174
0
LINE
8
BLACK
6
CONTINUOUS
10
5.75921
20
-4.21174
11
5.75991
21
-4.21207
0
LINE
8
BLACK
6
CONTINUOUS
10
5.75991
20
-4.21207
11
5.76178
21
-4.21394
0
LINE
8
BLACK
6
CONTINUOUS
10
5.76178
20
-4.21394
11
5.762
21
-4.21426
0
LINE
8
BLACK
6
CONTINUOUS
10
5.762
20
-4.21426
11
5.76211
21
-4.21434
0
LINE
8
BLACK
6
CONTINUOUS
10
5.76211
20
-4.21434
11
5.76215
21
-4.21446
0
LINE
8
BLACK
6
CONTINUOUS
10
5.76215
20
-4.21446
11
5.76237
21
-4.21478
0
LINE
8
BLACK
6
CONTINUOUS
10
5.76237
20
-4.21478
11
5.76244
21
-4.21555
0
LINE
8
BLACK
6
CONTINUOUS
10
5.76244
20
-4.21555
11
5.76263
21
-4.21629
0
LINE
8
BLACK
6
CONTINUOUS
10
5.76263
20
-4.21629
11
5.76252
21
-4.21653
0
LINE
8
BLACK
6
CONTINUOUS
10
5.76252
20
-4.21653
11
5.76254
21
-4.2168
0
LINE
8
BLACK
6
CONTINUOUS
10
5.76254
20
-4.2168
11
5.7621
21
-4.21742
0
LINE
8
BLACK
6
CONTINUOUS
10
5.7621
20
-4.21742
11
5.76178
21
-4.21812
0
LINE
8
BLACK
6
CONTINUOUS
10
5.76178
20
-4.21812
11
5.75991
21
-4.21999
0
LINE
8
BLACK
6
CONTINUOUS
10
5.75991
20
-4.21999
11
5.75959
21
-4.22022
0
LINE
8
BLACK
6
CONTINUOUS
10
5.75959
20
-4.22022
11
5.75951
21
-4.22033
0
LINE
8
BLACK
6
CONTINUOUS
10
5.75951
20
-4.22033
11
5.75938
21
-4.22036
0
LINE
8
BLACK
6
CONTINUOUS
10
5.75938
20
-4.22036
11
5.75938
21
-4.22036
0
LINE
8
BLACK
6
CONTINUOUS
10
5.75938
20
-4.22036
11
5.75929
21
-4.22046
0
LINE
8
BLACK
6
CONTINUOUS
10
5.75929
20
-4.22046
11
5.75922
21
-4.22048
0
LINE
8
BLACK
6
CONTINUOUS
10
5.75922
20
-4.22048
11
5.75907
21
-4.22058
0
LINE
8
BLACK
6
CONTINUOUS
10
5.75907
20
-4.22058
11
5.7583
21
-4.22065
0
LINE
8
BLACK
6
CONTINUOUS
10
5.7583
20
-4.22065
11
5.75756
21
-4.22085
0
LINE
8
BLACK
6
CONTINUOUS
10
5.75756
20
-4.22085
11
5.75744
21
-4.22079
0
LINE
8
BLACK
6
CONTINUOUS
10
5.75744
20
-4.22079
11
5.7573
21
-4.22081
0
LINE
8
BLACK
6
CONTINUOUS
10
5.7573
20
-4.22081
11
5.75719
21
-4.22075
0
LINE
8
BLACK
6
CONTINUOUS
10
5.75719
20
-4.22075
11
5.75705
21
-4.22076
0
LINE
8
BLACK
6
CONTINUOUS
10
5.75705
20
-4.22076
11
5.75643
21
-4.22032
0
LINE
8
BLACK
6
CONTINUOUS
10
5.75643
20
-4.22032
11
5.75573
21
-4.21999
0
LINE
8
BLACK
6
CONTINUOUS
10
5.75573
20
-4.21999
11
5.75386
21
-4.21812
0
LINE
8
BLACK
6
CONTINUOUS
10
5.75386
20
-4.21812
11
5.75363
21
-4.2178
0
LINE
8
BLACK
6
CONTINUOUS
10
5.75363
20
-4.2178
11
5.75352
21
-4.21773
0
LINE
8
BLACK
6
CONTINUOUS
10
5.75352
20
-4.21773
11
5.75349
21
-4.2176
0
LINE
8
BLACK
6
CONTINUOUS
10
5.75349
20
-4.2176
11
5.75327
21
-4.21728
0
LINE
8
BLACK
6
CONTINUOUS
10
5.75327
20
-4.21728
11
5.7532
21
-4.21652
0
LINE
8
BLACK
6
CONTINUOUS
10
5.7532
20
-4.21652
11
5.753
21
-4.21577
0
LINE
8
BLACK
6
CONTINUOUS
10
5.753
20
-4.21577
11
5.75311
21
-4.21553
0
LINE
8
BLACK
6
CONTINUOUS
10
5.75311
20
-4.21553
11
5.75309
21
-4.21527
0
LINE
8
BLACK
6
CONTINUOUS
10
5.75309
20
-4.21527
11
5.75353
21
-4.21464
0
LINE
8
BLACK
6
CONTINUOUS
10
5.75353
20
-4.21464
11
5.75385
21
-4.21394
0
LINE
8
BLACK
6
CONTINUOUS
10
5.75385
20
-4.21394
11
5.75573
21
-4.21207
0
LINE
8
BLACK
6
CONTINUOUS
10
5.75573
20
-4.21207
11
5.75605
21
-4.21185
0
LINE
8
BLACK
6
CONTINUOUS
10
5.75605
20
-4.21185
11
5.75612
21
-4.21174
0
LINE
8
BLACK
6
CONTINUOUS
10
5.75612
20
-4.21174
11
5.75625
21
-4.2117
0
LINE
8
BLACK
6
CONTINUOUS
10
5.75625
20
-4.2117
11
5.75626
21
-4.2117
0
LINE
8
BLACK
6
CONTINUOUS
10
5.75626
20
-4.2117
11
5.75634
21
-4.2116
0
LINE
8
BLACK
6
CONTINUOUS
10
5.75634
20
-4.2116
11
5.75642
21
-4.21159
0
LINE
8
BLACK
6
CONTINUOUS
10
5.75642
20
-4.21159
11
5.75657
21
-4.21148
0
LINE
8
BLACK
6
CONTINUOUS
10
5.75657
20
-4.21148
11
5.75733
21
-4.21141
0
LINE
8
BLACK
6
CONTINUOUS
10
5.75733
20
-4.21141
11
5.75808
21
-4.21122
0
LINE
8
BLACK
6
CONTINUOUS
10
5.75808
20
-4.21122
11
5.7582
21
-4.21127
0
LINE
8
BLACK
6
CONTINUOUS
10
5.82392
20
-4.1758
11
5.82484
21
-4.17594
0
LINE
8
BLACK
6
CONTINUOUS
10
5.82484
20
-4.17594
11
5.8249
21
-4.176
0
LINE
8
BLACK
6
CONTINUOUS
10
5.8249
20
-4.176
11
5.82498
21
-4.17602
0
LINE
8
BLACK
6
CONTINUOUS
10
5.82498
20
-4.17602
11
5.82556
21
-4.17675
0
LINE
8
BLACK
6
CONTINUOUS
10
5.82556
20
-4.17675
11
5.82618
21
-4.17745
0
LINE
8
BLACK
6
CONTINUOUS
10
5.82618
20
-4.17745
11
5.82618
21
-4.17754
0
LINE
8
BLACK
6
CONTINUOUS
10
5.82618
20
-4.17754
11
5.82624
21
-4.1776
0
LINE
8
BLACK
6
CONTINUOUS
10
5.82624
20
-4.1776
11
5.83936
21
-4.21697
0
LINE
8
BLACK
6
CONTINUOUS
10
5.83936
20
-4.21697
11
5.83951
21
-4.21799
0
LINE
8
BLACK
6
CONTINUOUS
10
5.83951
20
-4.21799
11
5.83877
21
-4.21987
0
LINE
8
BLACK
6
CONTINUOUS
10
5.83877
20
-4.21987
11
5.83699
21
-4.22083
0
LINE
8
BLACK
6
CONTINUOUS
10
5.83699
20
-4.22083
11
5.83501
21
-4.22042
0
LINE
8
BLACK
6
CONTINUOUS
10
5.83501
20
-4.22042
11
5.83376
21
-4.21884
0
LINE
8
BLACK
6
CONTINUOUS
10
5.83376
20
-4.21884
11
5.83068
21
-4.20961
0
LINE
8
BLACK
6
CONTINUOUS
10
5.83068
20
-4.20961
11
5.81619
21
-4.20961
0
LINE
8
BLACK
6
CONTINUOUS
10
5.81619
20
-4.20961
11
5.81311
21
-4.21884
0
LINE
8
BLACK
6
CONTINUOUS
10
5.81311
20
-4.21884
11
5.81262
21
-4.21974
0
LINE
8
BLACK
6
CONTINUOUS
10
5.81262
20
-4.21974
11
5.8109
21
-4.2208
0
LINE
8
BLACK
6
CONTINUOUS
10
5.8109
20
-4.2208
11
5.80891
21
-4.2205
0
LINE
8
BLACK
6
CONTINUOUS
10
5.80891
20
-4.2205
11
5.80757
21
-4.21899
0
LINE
8
BLACK
6
CONTINUOUS
10
5.80757
20
-4.21899
11
5.80751
21
-4.21697
0
LINE
8
BLACK
6
CONTINUOUS
10
5.80751
20
-4.21697
11
5.82063
21
-4.1776
0
LINE
8
BLACK
6
CONTINUOUS
10
5.82063
20
-4.1776
11
5.82112
21
-4.1767
0
LINE
8
BLACK
6
CONTINUOUS
10
5.82112
20
-4.1767
11
5.82119
21
-4.17666
0
LINE
8
BLACK
6
CONTINUOUS
10
5.82119
20
-4.17666
11
5.82123
21
-4.17658
0
LINE
8
BLACK
6
CONTINUOUS
10
5.82123
20
-4.17658
11
5.82205
21
-4.17613
0
LINE
8
BLACK
6
CONTINUOUS
10
5.82205
20
-4.17613
11
5.82284
21
-4.17564
0
LINE
8
BLACK
6
CONTINUOUS
10
5.82284
20
-4.17564
11
5.82293
21
-4.17566
0
LINE
8
BLACK
6
CONTINUOUS
10
5.82293
20
-4.17566
11
5.823
21
-4.17562
0
LINE
8
BLACK
6
CONTINUOUS
10
5.823
20
-4.17562
11
5.82392
21
-4.1758
0
LINE
8
BLACK
6
CONTINUOUS
10
5.81816
20
-4.2037
11
5.82871
21
-4.2037
0
LINE
8
BLACK
6
CONTINUOUS
10
5.82871
20
-4.2037
11
5.82343
21
-4.18787
0
LINE
8
BLACK
6
CONTINUOUS
10
5.82343
20
-4.18787
11
5.81816
21
-4.2037
0
LINE
8
BLACK
6
CONTINUOUS
10
5.90792
20
-4.1757
11
5.90831
21
-4.17563
0
LINE
8
BLACK
6
CONTINUOUS
10
5.90831
20
-4.17563
11
5.90887
21
-4.17595
0
LINE
8
BLACK
6
CONTINUOUS
10
5.90887
20
-4.17595
11
5.90949
21
-4.17612
0
LINE
8
BLACK
6
CONTINUOUS
10
5.90949
20
-4.17612
11
5.90972
21
-4.17644
0
LINE
8
BLACK
6
CONTINUOUS
10
5.90972
20
-4.17644
11
5.91006
21
-4.17664
0
LINE
8
BLACK
6
CONTINUOUS
10
5.91006
20
-4.17664
11
5.91028
21
-4.17724
0
LINE
8
BLACK
6
CONTINUOUS
10
5.91028
20
-4.17724
11
5.91065
21
-4.17777
0
LINE
8
BLACK
6
CONTINUOUS
10
5.91065
20
-4.17777
11
5.91062
21
-4.17817
0
LINE
8
BLACK
6
CONTINUOUS
10
5.91062
20
-4.17817
11
5.91075
21
-4.17854
0
LINE
8
BLACK
6
CONTINUOUS
10
5.91075
20
-4.17854
11
5.91075
21
-4.21791
0
LINE
8
BLACK
6
CONTINUOUS
10
5.91075
20
-4.21791
11
5.91057
21
-4.21892
0
LINE
8
BLACK
6
CONTINUOUS
10
5.91057
20
-4.21892
11
5.90928
21
-4.22046
0
LINE
8
BLACK
6
CONTINUOUS
10
5.90928
20
-4.22046
11
5.90729
21
-4.22081
0
LINE
8
BLACK
6
CONTINUOUS
10
5.90729
20
-4.22081
11
5.90554
21
-4.2198
0
LINE
8
BLACK
6
CONTINUOUS
10
5.90554
20
-4.2198
11
5.90485
21
-4.21791
0
LINE
8
BLACK
6
CONTINUOUS
10
5.90485
20
-4.21791
11
5.90485
21
-4.19185
0
LINE
8
BLACK
6
CONTINUOUS
10
5.90485
20
-4.19185
11
5.89735
21
-4.20791
0
LINE
8
BLACK
6
CONTINUOUS
10
5.89735
20
-4.20791
11
5.89713
21
-4.20822
0
LINE
8
BLACK
6
CONTINUOUS
10
5.89713
20
-4.20822
11
5.89709
21
-4.20835
0
LINE
8
BLACK
6
CONTINUOUS
10
5.89709
20
-4.20835
11
5.89699
21
-4.20843
0
LINE
8
BLACK
6
CONTINUOUS
10
5.89699
20
-4.20843
11
5.89676
21
-4.20875
0
LINE
8
BLACK
6
CONTINUOUS
10
5.89676
20
-4.20875
11
5.89607
21
-4.20907
0
LINE
8
BLACK
6
CONTINUOUS
10
5.89607
20
-4.20907
11
5.89544
21
-4.20951
0
LINE
8
BLACK
6
CONTINUOUS
10
5.89544
20
-4.20951
11
5.89517
21
-4.20949
0
LINE
8
BLACK
6
CONTINUOUS
10
5.89517
20
-4.20949
11
5.89493
21
-4.2096
0
LINE
8
BLACK
6
CONTINUOUS
10
5.89493
20
-4.2096
11
5.89419
21
-4.2094
0
LINE
8
BLACK
6
CONTINUOUS
10
5.89419
20
-4.2094
11
5.89343
21
-4.20933
0
LINE
8
BLACK
6
CONTINUOUS
10
5.89343
20
-4.20933
11
5.89324
21
-4.20915
0
LINE
8
BLACK
6
CONTINUOUS
10
5.89324
20
-4.20915
11
5.89298
21
-4.20908
0
LINE
8
BLACK
6
CONTINUOUS
10
5.89298
20
-4.20908
11
5.89254
21
-4.20845
0
LINE
8
BLACK
6
CONTINUOUS
10
5.89254
20
-4.20845
11
5.892
21
-4.20791
0
LINE
8
BLACK
6
CONTINUOUS
10
5.892
20
-4.20791
11
5.88451
21
-4.19185
0
LINE
8
BLACK
6
CONTINUOUS
10
5.88451
20
-4.19185
11
5.88451
21
-4.21791
0
LINE
8
BLACK
6
CONTINUOUS
10
5.88451
20
-4.21791
11
5.88433
21
-4.21892
0
LINE
8
BLACK
6
CONTINUOUS
10
5.88433
20
-4.21892
11
5.88303
21
-4.22046
0
LINE
8
BLACK
6
CONTINUOUS
10
5.88303
20
-4.22046
11
5.88104
21
-4.22081
0
LINE
8
BLACK
6
CONTINUOUS
10
5.88104
20
-4.22081
11
5.87929
21
-4.2198
0
LINE
8
BLACK
6
CONTINUOUS
10
5.87929
20
-4.2198
11
5.8786
21
-4.21791
0
LINE
8
BLACK
6
CONTINUOUS
10
5.8786
20
-4.21791
11
5.8786
21
-4.17854
0
LINE
8
BLACK
6
CONTINUOUS
10
5.8786
20
-4.17854
11
5.87878
21
-4.17753
0
LINE
8
BLACK
6
CONTINUOUS
10
5.87878
20
-4.17753
11
5.87903
21
-4.17722
0
LINE
8
BLACK
6
CONTINUOUS
10
5.87903
20
-4.17722
11
5.87913
21
-4.17684
0
LINE
8
BLACK
6
CONTINUOUS
10
5.87913
20
-4.17684
11
5.87966
21
-4.17647
0
LINE
8
BLACK
6
CONTINUOUS
10
5.87966
20
-4.17647
11
5.88008
21
-4.17598
0
LINE
8
BLACK
6
CONTINUOUS
10
5.88008
20
-4.17598
11
5.88046
21
-4.17591
0
LINE
8
BLACK
6
CONTINUOUS
10
5.88046
20
-4.17591
11
5.88079
21
-4.17568
0
LINE
8
BLACK
6
CONTINUOUS
10
5.88079
20
-4.17568
11
5.88143
21
-4.17574
0
LINE
8
BLACK
6
CONTINUOUS
10
5.88143
20
-4.17574
11
5.88207
21
-4.17563
0
LINE
8
BLACK
6
CONTINUOUS
10
5.88207
20
-4.17563
11
5.88241
21
-4.17583
0
LINE
8
BLACK
6
CONTINUOUS
10
5.88241
20
-4.17583
11
5.8828
21
-4.17586
0
LINE
8
BLACK
6
CONTINUOUS
10
5.8828
20
-4.17586
11
5.88326
21
-4.17632
0
LINE
8
BLACK
6
CONTINUOUS
10
5.88326
20
-4.17632
11
5.88381
21
-4.17664
0
LINE
8
BLACK
6
CONTINUOUS
10
5.88381
20
-4.17664
11
5.88395
21
-4.17701
0
LINE
8
BLACK
6
CONTINUOUS
10
5.88395
20
-4.17701
11
5.88423
21
-4.17729
0
LINE
8
BLACK
6
CONTINUOUS
10
5.88423
20
-4.17729
11
5.89468
21
-4.19968
0
LINE
8
BLACK
6
CONTINUOUS
10
5.89468
20
-4.19968
11
5.90512
21
-4.17729
0
LINE
8
BLACK
6
CONTINUOUS
10
5.90512
20
-4.17729
11
5.90571
21
-4.17645
0
LINE
8
BLACK
6
CONTINUOUS
10
5.90571
20
-4.17645
11
5.90607
21
-4.17628
0
LINE
8
BLACK
6
CONTINUOUS
10
5.90607
20
-4.17628
11
5.90632
21
-4.17598
0
LINE
8
BLACK
6
CONTINUOUS
10
5.90632
20
-4.17598
11
5.90696
21
-4.17587
0
LINE
8
BLACK
6
CONTINUOUS
10
5.90696
20
-4.17587
11
5.90754
21
-4.17559
0
LINE
8
BLACK
6
CONTINUOUS
10
5.90754
20
-4.17559
11
5.90792
21
-4.1757
0
LINE
8
BLACK
6
CONTINUOUS
10
5.96776
20
-3.83078
11
5.96956
21
-3.83285
0
LINE
8
BLACK
6
CONTINUOUS
10
5.96956
20
-3.83285
11
5.97
21
-3.83488
0
LINE
8
BLACK
6
CONTINUOUS
10
5.97
20
-3.83488
11
5.97
21
-4.56512
0
LINE
8
BLACK
6
CONTINUOUS
10
5.97
20
-4.56512
11
5.96922
21
-4.56776
0
LINE
8
BLACK
6
CONTINUOUS
10
5.96922
20
-4.56776
11
5.96715
21
-4.56956
0
LINE
8
BLACK
6
CONTINUOUS
10
5.96715
20
-4.56956
11
5.96512
21
-4.57
0
LINE
8
BLACK
6
CONTINUOUS
10
5.96512
20
-4.57
11
4.43488
21
-4.57
0
LINE
8
BLACK
6
CONTINUOUS
10
4.43488
20
-4.57
11
4.43224
21
-4.56923
0
LINE
8
BLACK
6
CONTINUOUS
10
4.43224
20
-4.56923
11
4.43044
21
-4.56715
0
LINE
8
BLACK
6
CONTINUOUS
10
4.43044
20
-4.56715
11
4.43
21
-4.56512
0
LINE
8
BLACK
6
CONTINUOUS
10
4.43
20
-4.56512
11
4.43
21
-4.1567
0
LINE
8
BLACK
6
CONTINUOUS
10
4.43
20
-4.1567
11
4.43
21
-4.04188
0
LINE
8
BLACK
6
CONTINUOUS
10
4.43
20
-4.04188
11
4.43
21
-3.83488
0
LINE
8
BLACK
6
CONTINUOUS
10
4.43
20
-3.83488
11
4.43077
21
-3.83224
0
LINE
8
BLACK
6
CONTINUOUS
10
4.43077
20
-3.83224
11
4.43285
21
-3.83044
0
LINE
8
BLACK
6
CONTINUOUS
10
4.43285
20
-3.83044
11
4.43488
21
-3.83
0
LINE
8
BLACK
6
CONTINUOUS
10
4.43488
20
-3.83
11
5.96512
21
-3.83
0
LINE
8
BLACK
6
CONTINUOUS
10
5.96512
20
-3.83
11
5.96776
21
-3.83078
0
LINE
8
BLACK
6
CONTINUOUS
10
4.84812
20
-3.8603
11
4.84577
21
-3.86055
0
LINE
8
BLACK
6
CONTINUOUS
10
4.84577
20
-3.86055
11
4.84046
21
-3.86253
0
LINE
8
BLACK
6
CONTINUOUS
10
4.84046
20
-3.86253
11
4.84046
21
-3.86253
0
LINE
8
BLACK
6
CONTINUOUS
10
4.84046
20
-3.86253
11
4.83592
21
-3.86592
0
LINE
8
BLACK
6
CONTINUOUS
10
4.83592
20
-3.86592
11
4.83592
21
-3.86592
0
LINE
8
BLACK
6
CONTINUOUS
10
4.83592
20
-3.86592
11
4.83253
21
-3.87046
0
LINE
8
BLACK
6
CONTINUOUS
10
4.83253
20
-3.87046
11
4.83253
21
-3.87046
0
LINE
8
BLACK
6
CONTINUOUS
10
4.83253
20
-3.87046
11
4.83055
21
-3.87577
0
LINE
8
BLACK
6
CONTINUOUS
10
4.83055
20
-3.87577
11
4.8303
21
-3.87811
0
LINE
8
BLACK
6
CONTINUOUS
10
4.8303
20
-3.87811
11
4.8303
21
-3.87812
0
LINE
8
BLACK
6
CONTINUOUS
10
4.8303
20
-3.87812
11
4.8303
21
-3.87812
0
LINE
8
BLACK
6
CONTINUOUS
10
4.8303
20
-3.87812
11
4.8303
21
-3.94188
0
LINE
8
BLACK
6
CONTINUOUS
10
4.8303
20
-3.94188
11
4.8303
21
-3.94188
0
LINE
8
BLACK
6
CONTINUOUS
10
4.8303
20
-3.94188
11
4.83055
21
-3.94423
0
LINE
8
BLACK
6
CONTINUOUS
10
4.83055
20
-3.94423
11
4.83253
21
-3.94954
0
LINE
8
BLACK
6
CONTINUOUS
10
4.83253
20
-3.94954
11
4.83253
21
-3.94954
0
LINE
8
BLACK
6
CONTINUOUS
10
4.83253
20
-3.94954
11
4.83592
21
-3.95408
0
LINE
8
BLACK
6
CONTINUOUS
10
4.83592
20
-3.95408
11
4.83592
21
-3.95408
0
LINE
8
BLACK
6
CONTINUOUS
10
4.83592
20
-3.95408
11
4.83592
21
-3.95408
0
LINE
8
BLACK
6
CONTINUOUS
10
4.83592
20
-3.95408
11
4.83785
21
-3.95552
0
LINE
8
BLACK
6
CONTINUOUS
10
4.83785
20
-3.95552
11
4.83862
21
-3.95609
0
LINE
8
BLACK
6
CONTINUOUS
10
4.83862
20
-3.95609
11
4.84026
21
-3.95829
0
LINE
8
BLACK
6
CONTINUOUS
10
4.84026
20
-3.95829
11
4.84046
21
-3.96104
0
LINE
8
BLACK
6
CONTINUOUS
10
4.84046
20
-3.96104
11
4.83914
21
-3.96345
0
LINE
8
BLACK
6
CONTINUOUS
10
4.83914
20
-3.96345
11
4.83862
21
-3.96391
0
LINE
8
BLACK
6
CONTINUOUS
10
4.83862
20
-3.96391
11
4.83592
21
-3.96592
0
LINE
8
BLACK
6
CONTINUOUS
10
4.83592
20
-3.96592
11
4.83253
21
-3.97046
0
LINE
8
BLACK
6
CONTINUOUS
10
4.83253
20
-3.97046
11
4.83253
21
-3.97046
0
LINE
8
BLACK
6
CONTINUOUS
10
4.83253
20
-3.97046
11
4.83055
21
-3.97577
0
LINE
8
BLACK
6
CONTINUOUS
10
4.83055
20
-3.97577
11
4.8303
21
-3.97811
0
LINE
8
BLACK
6
CONTINUOUS
10
4.8303
20
-3.97811
11
4.8303
21
-3.97812
0
LINE
8
BLACK
6
CONTINUOUS
10
4.8303
20
-3.97812
11
4.8303
21
-3.97812
0
LINE
8
BLACK
6
CONTINUOUS
10
4.8303
20
-3.97812
11
4.8303
21
-4.04188
0
LINE
8
BLACK
6
CONTINUOUS
10
4.8303
20
-4.04188
11
4.8303
21
-4.04188
0
LINE
8
BLACK
6
CONTINUOUS
10
4.8303
20
-4.04188
11
4.83055
21
-4.04423
0
LINE
8
BLACK
6
CONTINUOUS
10
4.83055
20
-4.04423
11
4.83253
21
-4.04954
0
LINE
8
BLACK
6
CONTINUOUS
10
4.83253
20
-4.04954
11
4.83253
21
-4.04954
0
LINE
8
BLACK
6
CONTINUOUS
10
4.83253
20
-4.04954
11
4.83592
21
-4.05408
0
LINE
8
BLACK
6
CONTINUOUS
10
4.83592
20
-4.05408
11
4.83592
21
-4.05408
0
LINE
8
BLACK
6
CONTINUOUS
10
4.83592
20
-4.05408
11
4.84046
21
-4.05747
0
LINE
8
BLACK
6
CONTINUOUS
10
4.84046
20
-4.05747
11
4.84046
21
-4.05747
0
LINE
8
BLACK
6
CONTINUOUS
10
4.84046
20
-4.05747
11
4.84577
21
-4.05945
0
LINE
8
BLACK
6
CONTINUOUS
10
4.84577
20
-4.05945
11
4.84811
21
-4.0597
0
LINE
8
BLACK
6
CONTINUOUS
10
4.84811
20
-4.0597
11
4.84811
21
-4.0597
0
LINE
8
BLACK
6
CONTINUOUS
10
4.84811
20
-4.0597
11
4.84812
21
-4.0597
0
LINE
8
BLACK
6
CONTINUOUS
10
4.84812
20
-4.0597
11
4.84812
21
-4.0597
0
LINE
8
BLACK
6
CONTINUOUS
10
4.84812
20
-4.0597
11
4.84817
21
-4.05971
0
LINE
8
BLACK
6
CONTINUOUS
10
4.84817
20
-4.05971
11
4.84819
21
-4.05971
0
LINE
8
BLACK
6
CONTINUOUS
10
4.84819
20
-4.05971
11
4.84825
21
-4.05972
0
LINE
8
BLACK
6
CONTINUOUS
10
4.84825
20
-4.05972
11
4.84824
21
-4.05973
0
LINE
8
BLACK
6
CONTINUOUS
10
4.84824
20
-4.05973
11
4.85077
21
-4.06062
0
LINE
8
BLACK
6
CONTINUOUS
10
4.85077
20
-4.06062
11
4.85246
21
-4.06279
0
LINE
8
BLACK
6
CONTINUOUS
10
4.85246
20
-4.06279
11
4.8528
21
-4.06458
0
LINE
8
BLACK
6
CONTINUOUS
10
4.8528
20
-4.06458
11
4.8528
21
-4.0691
0
LINE
8
BLACK
6
CONTINUOUS
10
4.8528
20
-4.0691
11
4.85279
21
-4.06925
0
LINE
8
BLACK
6
CONTINUOUS
10
4.85279
20
-4.06925
11
4.85265
21
-4.07165
0
LINE
8
BLACK
6
CONTINUOUS
10
4.85265
20
-4.07165
11
4.85265
21
-4.07165
0
LINE
8
BLACK
6
CONTINUOUS
10
4.85265
20
-4.07165
11
4.85304
21
-4.07383
0
LINE
8
BLACK
6
CONTINUOUS
10
4.85304
20
-4.07383
11
4.85308
21
-4.07402
0
LINE
8
BLACK
6
CONTINUOUS
10
4.85308
20
-4.07402
11
4.8531
21
-4.07417
0
LINE
8
BLACK
6
CONTINUOUS
10
4.8531
20
-4.07417
11
4.85339
21
-4.07656
0
LINE
8
BLACK
6
CONTINUOUS
10
4.85339
20
-4.07656
11
4.85353
21
-4.07692
0
LINE
8
BLACK
6
CONTINUOUS
10
4.85353
20
-4.07692
11
4.85377
21
-4.07777
0
LINE
8
BLACK
6
CONTINUOUS
10
4.85377
20
-4.07777
11
4.85384
21
-4.07815
0
LINE
8
BLACK
6
CONTINUOUS
10
4.85384
20
-4.07815
11
4.85482
21
-4.08035
0
LINE
8
BLACK
6
CONTINUOUS
10
4.85482
20
-4.08035
11
4.85488
21
-4.08048
0
LINE
8
BLACK
6
CONTINUOUS
10
4.85488
20
-4.08048
11
4.85573
21
-4.08274
0
LINE
8
BLACK
6
CONTINUOUS
10
4.85573
20
-4.08274
11
4.85573
21
-4.08274
0
LINE
8
BLACK
6
CONTINUOUS
10
4.85573
20
-4.08274
11
4.85595
21
-4.08305
0
LINE
8
BLACK
6
CONTINUOUS
10
4.85595
20
-4.08305
11
4.85639
21
-4.08382
0
LINE
8
BLACK
6
CONTINUOUS
10
4.85639
20
-4.08382
11
4.85655
21
-4.08418
0
LINE
8
BLACK
6
CONTINUOUS
10
4.85655
20
-4.08418
11
4.85655
21
-4.08418
0
LINE
8
BLACK
6
CONTINUOUS
10
4.85655
20
-4.08418
11
4.85803
21
-4.08607
0
LINE
8
BLACK
6
CONTINUOUS
10
4.85803
20
-4.08607
11
4.85812
21
-4.08619
0
LINE
8
BLACK
6
CONTINUOUS
10
4.85812
20
-4.08619
11
4.85949
21
-4.08817
0
LINE
8
BLACK
6
CONTINUOUS
10
4.85949
20
-4.08817
11
4.86129
21
-4.08977
0
LINE
8
BLACK
6
CONTINUOUS
10
4.86129
20
-4.08977
11
4.8614
21
-4.08987
0
LINE
8
BLACK
6
CONTINUOUS
10
4.8614
20
-4.08987
11
4.93013
21
-4.1586
0
LINE
8
BLACK
6
CONTINUOUS
10
4.93013
20
-4.1586
11
4.93023
21
-4.15871
0
LINE
8
BLACK
6
CONTINUOUS
10
4.93023
20
-4.15871
11
4.93183
21
-4.16051
0
LINE
8
BLACK
6
CONTINUOUS
10
4.93183
20
-4.16051
11
4.93381
21
-4.16188
0
LINE
8
BLACK
6
CONTINUOUS
10
4.93381
20
-4.16188
11
4.93393
21
-4.16197
0
LINE
8
BLACK
6
CONTINUOUS
10
4.93393
20
-4.16197
11
4.93582
21
-4.16345
0
LINE
8
BLACK
6
CONTINUOUS
10
4.93582
20
-4.16345
11
4.93618
21
-4.16361
0
LINE
8
BLACK
6
CONTINUOUS
10
4.93618
20
-4.16361
11
4.93695
21
-4.16405
0
LINE
8
BLACK
6
CONTINUOUS
10
4.93695
20
-4.16405
11
4.93717
21
-4.1642
0
LINE
8
BLACK
6
CONTINUOUS
10
4.93717
20
-4.1642
11
4.93726
21
-4.16427
0
LINE
8
BLACK
6
CONTINUOUS
10
4.93726
20
-4.16427
11
4.93952
21
-4.16512
0
LINE
8
BLACK
6
CONTINUOUS
10
4.93952
20
-4.16512
11
4.93965
21
-4.16518
0
LINE
8
BLACK
6
CONTINUOUS
10
4.93965
20
-4.16518
11
4.94185
21
-4.16616
0
LINE
8
BLACK
6
CONTINUOUS
10
4.94185
20
-4.16616
11
4.94185
21
-4.16616
0
LINE
8
BLACK
6
CONTINUOUS
10
4.94185
20
-4.16616
11
4.94185
21
-4.16616
0
LINE
8
BLACK
6
CONTINUOUS
10
4.94185
20
-4.16616
11
4.94223
21
-4.16623
0
LINE
8
BLACK
6
CONTINUOUS
10
4.94223
20
-4.16623
11
4.94308
21
-4.16647
0
LINE
8
BLACK
6
CONTINUOUS
10
4.94308
20
-4.16647
11
4.94344
21
-4.16661
0
LINE
8
BLACK
6
CONTINUOUS
10
4.94344
20
-4.16661
11
4.94409
21
-4.16669
0
LINE
8
BLACK
6
CONTINUOUS
10
4.94409
20
-4.16669
11
4.94583
21
-4.1669
0
LINE
8
BLACK
6
CONTINUOUS
10
4.94583
20
-4.1669
11
4.94598
21
-4.16692
0
LINE
8
BLACK
6
CONTINUOUS
10
4.94598
20
-4.16692
11
4.94835
21
-4.16735
0
LINE
8
BLACK
6
CONTINUOUS
10
4.94835
20
-4.16735
11
4.95059
21
-4.16722
0
LINE
8
BLACK
6
CONTINUOUS
10
4.95059
20
-4.16722
11
4.95075
21
-4.16721
0
LINE
8
BLACK
6
CONTINUOUS
10
4.95075
20
-4.16721
11
4.9509
21
-4.1672
0
LINE
8
BLACK
6
CONTINUOUS
10
4.9509
20
-4.1672
11
4.98671
21
-4.1672
0
LINE
8
BLACK
6
CONTINUOUS
10
4.98671
20
-4.1672
11
4.98935
21
-4.16798
0
LINE
8
BLACK
6
CONTINUOUS
10
4.98935
20
-4.16798
11
4.99016
21
-4.16863
0
LINE
8
BLACK
6
CONTINUOUS
10
4.99016
20
-4.16863
11
5.01036
21
-4.18884
0
LINE
8
BLACK
6
CONTINUOUS
10
5.01036
20
-4.18884
11
5.01168
21
-4.19125
0
LINE
8
BLACK
6
CONTINUOUS
10
5.01168
20
-4.19125
11
5.01176
21
-4.19281
0
LINE
8
BLACK
6
CONTINUOUS
10
5.01176
20
-4.19281
11
5.01165
21
-4.19388
0
LINE
8
BLACK
6
CONTINUOUS
10
5.01165
20
-4.19388
11
5.01165
21
-4.23505
0
LINE
8
BLACK
6
CONTINUOUS
10
5.01165
20
-4.23505
11
5.01165
21
-4.23505
0
LINE
8
BLACK
6
CONTINUOUS
10
5.01165
20
-4.23505
11
5.0119
21
-4.2374
0
LINE
8
BLACK
6
CONTINUOUS
10
5.0119
20
-4.2374
11
5.01388
21
-4.24271
0
LINE
8
BLACK
6
CONTINUOUS
10
5.01388
20
-4.24271
11
5.014
21
-4.24287
0
LINE
8
BLACK
6
CONTINUOUS
10
5.014
20
-4.24287
11
5.01496
21
-4.24544
0
LINE
8
BLACK
6
CONTINUOUS
10
5.01496
20
-4.24544
11
5.01498
21
-4.24579
0
LINE
8
BLACK
6
CONTINUOUS
10
5.01498
20
-4.24579
11
5.01498
21
-4.26778
0
LINE
8
BLACK
6
CONTINUOUS
10
5.01498
20
-4.26778
11
5.0142
21
-4.27042
0
LINE
8
BLACK
6
CONTINUOUS
10
5.0142
20
-4.27042
11
5.014
21
-4.27071
0
LINE
8
BLACK
6
CONTINUOUS
10
5.014
20
-4.27071
11
5.01388
21
-4.27087
0
LINE
8
BLACK
6
CONTINUOUS
10
5.01388
20
-4.27087
11
5.01388
21
-4.27087
0
LINE
8
BLACK
6
CONTINUOUS
10
5.01388
20
-4.27087
11
5.0119
21
-4.27618
0
LINE
8
BLACK
6
CONTINUOUS
10
5.0119
20
-4.27618
11
5.01165
21
-4.27852
0
LINE
8
BLACK
6
CONTINUOUS
10
5.01165
20
-4.27852
11
5.01165
21
-4.27853
0
LINE
8
BLACK
6
CONTINUOUS
10
5.01165
20
-4.27853
11
5.01165
21
-4.3197
0
LINE
8
BLACK
6
CONTINUOUS
10
5.01165
20
-4.3197
11
5.01165
21
-4.3197
0
LINE
8
BLACK
6
CONTINUOUS
10
5.01165
20
-4.3197
11
5.0119
21
-4.32204
0
LINE
8
BLACK
6
CONTINUOUS
10
5.0119
20
-4.32204
11
5.01325
21
-4.32566
0
LINE
8
BLACK
6
CONTINUOUS
10
5.01325
20
-4.32566
11
5.01345
21
-4.3284
0
LINE
8
BLACK
6
CONTINUOUS
10
5.01345
20
-4.3284
11
5.0129
21
-4.3298
0
LINE
8
BLACK
6
CONTINUOUS
10
5.0129
20
-4.3298
11
5.00961
21
-4.3355
0
LINE
8
BLACK
6
CONTINUOUS
10
5.00961
20
-4.3355
11
5.00961
21
-4.3355
0
LINE
8
BLACK
6
CONTINUOUS
10
5.00961
20
-4.3355
11
5.00731
21
-4.34259
0
LINE
8
BLACK
6
CONTINUOUS
10
5.00731
20
-4.34259
11
5.00731
21
-4.34259
0
LINE
8
BLACK
6
CONTINUOUS
10
5.00731
20
-4.34259
11
5.00653
21
-4.35
0
LINE
8
BLACK
6
CONTINUOUS
10
5.00653
20
-4.35
11
5.00731
21
-4.35741
0
LINE
8
BLACK
6
CONTINUOUS
10
5.00731
20
-4.35741
11
5.00731
21
-4.35741
0
LINE
8
BLACK
6
CONTINUOUS
10
5.00731
20
-4.35741
11
5.00961
21
-4.3645
0
LINE
8
BLACK
6
CONTINUOUS
10
5.00961
20
-4.3645
11
5.00962
21
-4.3645
0
LINE
8
BLACK
6
CONTINUOUS
10
5.00962
20
-4.3645
11
5.01334
21
-4.37095
0
LINE
8
BLACK
6
CONTINUOUS
10
5.01334
20
-4.37095
11
5.01801
21
-4.37614
0
LINE
8
BLACK
6
CONTINUOUS
10
5.01801
20
-4.37614
11
5.01833
21
-4.37649
0
LINE
8
BLACK
6
CONTINUOUS
10
5.01833
20
-4.37649
11
5.02436
21
-4.38087
0
LINE
8
BLACK
6
CONTINUOUS
10
5.02436
20
-4.38087
11
5.02436
21
-4.38087
0
LINE
8
BLACK
6
CONTINUOUS
10
5.02436
20
-4.38087
11
5.03117
21
-4.3839
0
LINE
8
BLACK
6
CONTINUOUS
10
5.03117
20
-4.3839
11
5.03117
21
-4.3839
0
LINE
8
BLACK
6
CONTINUOUS
10
5.03117
20
-4.3839
11
5.03845
21
-4.38545
0
LINE
8
BLACK
6
CONTINUOUS
10
5.03845
20
-4.38545
11
5.03845
21
-4.38545
0
LINE
8
BLACK
6
CONTINUOUS
10
5.03845
20
-4.38545
11
5.04591
21
-4.38545
0
LINE
8
BLACK
6
CONTINUOUS
10
5.04591
20
-4.38545
11
5.04591
21
-4.38545
0
LINE
8
BLACK
6
CONTINUOUS
10
5.04591
20
-4.38545
11
5.0532
21
-4.3839
0
LINE
8
BLACK
6
CONTINUOUS
10
5.0532
20
-4.3839
11
5.06001
21
-4.38087
0
LINE
8
BLACK
6
CONTINUOUS
10
5.06001
20
-4.38087
11
5.06603
21
-4.37649
0
LINE
8
BLACK
6
CONTINUOUS
10
5.06603
20
-4.37649
11
5.07102
21
-4.37095
0
LINE
8
BLACK
6
CONTINUOUS
10
5.07102
20
-4.37095
11
5.07475
21
-4.3645
0
LINE
8
BLACK
6
CONTINUOUS
10
5.07475
20
-4.3645
11
5.07677
21
-4.35829
0
LINE
8
BLACK
6
CONTINUOUS
10
5.07677
20
-4.35829
11
5.07502
21
-4.35487
0
LINE
8
BLACK
6
CONTINUOUS
10
5.07502
20
-4.35487
11
5.07425
21
-4.35
0
LINE
8
BLACK
6
CONTINUOUS
10
5.07425
20
-4.35
11
5.07502
21
-4.34513
0
LINE
8
BLACK
6
CONTINUOUS
10
5.07502
20
-4.34513
11
5.07726
21
-4.34074
0
LINE
8
BLACK
6
CONTINUOUS
10
5.07726
20
-4.34074
11
5.07752
21
-4.34048
0
LINE
8
BLACK
6
CONTINUOUS
10
5.07752
20
-4.34048
11
5.07758
21
-4.34018
0
LINE
8
BLACK
6
CONTINUOUS
10
5.07758
20
-4.34018
11
5.07946
21
-4.33817
0
LINE
8
BLACK
6
CONTINUOUS
10
5.07946
20
-4.33817
11
5.07997
21
-4.33803
0
LINE
8
BLACK
6
CONTINUOUS
10
5.07997
20
-4.33803
11
5.08074
21
-4.33726
0
LINE
8
BLACK
6
CONTINUOUS
10
5.08074
20
-4.33726
11
5.08155
21
-4.33685
0
LINE
8
BLACK
6
CONTINUOUS
10
5.08155
20
-4.33685
11
5.08155
21
-4.31781
0
LINE
8
BLACK
6
CONTINUOUS
10
5.08155
20
-4.31781
11
5.08057
21
-4.31781
0
LINE
8
BLACK
6
CONTINUOUS
10
5.08057
20
-4.31781
11
5.08057
21
-4.28041
0
LINE
8
BLACK
6
CONTINUOUS
10
5.08057
20
-4.28041
11
5.10222
21
-4.28041
0
LINE
8
BLACK
6
CONTINUOUS
10
5.10222
20
-4.28041
11
5.10222
21
-4.31781
0
LINE
8
BLACK
6
CONTINUOUS
10
5.10222
20
-4.31781
11
5.10124
21
-4.31781
0
LINE
8
BLACK
6
CONTINUOUS
10
5.10124
20
-4.31781
11
5.10124
21
-4.3375
0
LINE
8
BLACK
6
CONTINUOUS
10
5.10124
20
-4.3375
11
5.1041
21
-4.3375
0
LINE
8
BLACK
6
CONTINUOUS
10
5.1041
20
-4.3375
11
5.1041
21
-4.3375
0
LINE
8
BLACK
6
CONTINUOUS
10
5.1041
20
-4.3375
11
5.10645
21
-4.33724
0
LINE
8
BLACK
6
CONTINUOUS
10
5.10645
20
-4.33724
11
5.10645
21
-4.33724
0
LINE
8
BLACK
6
CONTINUOUS
10
5.10645
20
-4.33724
11
5.10681
21
-4.33711
0
LINE
8
BLACK
6
CONTINUOUS
10
5.10681
20
-4.33711
11
5.10956
21
-4.33691
0
LINE
8
BLACK
6
CONTINUOUS
10
5.10956
20
-4.33691
11
5.11197
21
-4.33823
0
LINE
8
BLACK
6
CONTINUOUS
10
5.11197
20
-4.33823
11
5.11329
21
-4.34064
0
LINE
8
BLACK
6
CONTINUOUS
10
5.11329
20
-4.34064
11
5.1134
21
-4.34168
0
LINE
8
BLACK
6
CONTINUOUS
10
5.1134
20
-4.34168
11
5.1134
21
-4.3461
0
LINE
8
BLACK
6
CONTINUOUS
10
5.1134
20
-4.3461
11
5.11263
21
-4.34874
0
LINE
8
BLACK
6
CONTINUOUS
10
5.11263
20
-4.34874
11
5.11197
21
-4.34955
0
LINE
8
BLACK
6
CONTINUOUS
10
5.11197
20
-4.34955
11
5.106
21
-4.35552
0
LINE
8
BLACK
6
CONTINUOUS
10
5.106
20
-4.35552
11
5.1059
21
-4.35562
0
LINE
8
BLACK
6
CONTINUOUS
10
5.1059
20
-4.35562
11
5.10409
21
-4.35722
0
LINE
8
BLACK
6
CONTINUOUS
10
5.10409
20
-4.35722
11
5.10409
21
-4.35722
0
LINE
8
BLACK
6
CONTINUOUS
10
5.10409
20
-4.35722
11
5.10289
21
-4.35897
0
LINE
8
BLACK
6
CONTINUOUS
10
5.10289
20
-4.35897
11
5.10274
21
-4.35926
0
LINE
8
BLACK
6
CONTINUOUS
10
5.10274
20
-4.35926
11
5.1025
21
-4.35949
0
LINE
8
BLACK
6
CONTINUOUS
10
5.1025
20
-4.35949
11
5.10115
21
-4.36122
0
LINE
8
BLACK
6
CONTINUOUS
10
5.10115
20
-4.36122
11
5.10115
21
-4.36122
0
LINE
8
BLACK
6
CONTINUOUS
10
5.10115
20
-4.36122
11
5.10099
21
-4.36157
0
LINE
8
BLACK
6
CONTINUOUS
10
5.10099
20
-4.36157
11
5.10056
21
-4.36234
0
LINE
8
BLACK
6
CONTINUOUS
10
5.10056
20
-4.36234
11
5.10034
21
-4.36266
0
LINE
8
BLACK
6
CONTINUOUS
10
5.10034
20
-4.36266
11
5.09949
21
-4.36491
0
LINE
8
BLACK
6
CONTINUOUS
10
5.09949
20
-4.36491
11
5.09943
21
-4.36505
0
LINE
8
BLACK
6
CONTINUOUS
10
5.09943
20
-4.36505
11
5.09844
21
-4.36724
0
LINE
8
BLACK
6
CONTINUOUS
10
5.09844
20
-4.36724
11
5.09837
21
-4.36762
0
LINE
8
BLACK
6
CONTINUOUS
10
5.09837
20
-4.36762
11
5.09814
21
-4.36847
0
LINE
8
BLACK
6
CONTINUOUS
10
5.09814
20
-4.36847
11
5.098
21
-4.36884
0
LINE
8
BLACK
6
CONTINUOUS
10
5.098
20
-4.36884
11
5.098
21
-4.36884
0
LINE
8
BLACK
6
CONTINUOUS
10
5.098
20
-4.36884
11
5.09771
21
-4.37123
0
LINE
8
BLACK
6
CONTINUOUS
10
5.09771
20
-4.37123
11
5.09769
21
-4.37137
0
LINE
8
BLACK
6
CONTINUOUS
10
5.09769
20
-4.37137
11
5.09725
21
-4.37374
0
LINE
8
BLACK
6
CONTINUOUS
10
5.09725
20
-4.37374
11
5.09725
21
-4.37374
0
LINE
8
BLACK
6
CONTINUOUS
10
5.09725
20
-4.37374
11
5.0974
21
-4.37614
0
LINE
8
BLACK
6
CONTINUOUS
10
5.0974
20
-4.37614
11
5.0974
21
-4.37629
0
LINE
8
BLACK
6
CONTINUOUS
10
5.0974
20
-4.37629
11
5.0974
21
-4.42251
0
LINE
8
BLACK
6
CONTINUOUS
10
5.0974
20
-4.42251
11
5.09663
21
-4.42515
0
LINE
8
BLACK
6
CONTINUOUS
10
5.09663
20
-4.42515
11
5.09545
21
-4.42642
0
LINE
8
BLACK
6
CONTINUOUS
10
5.09545
20
-4.42642
11
5.09084
21
-4.42986
0
LINE
8
BLACK
6
CONTINUOUS
10
5.09084
20
-4.42986
11
5.09084
21
-4.42986
0
LINE
8
BLACK
6
CONTINUOUS
10
5.09084
20
-4.42986
11
5.08745
21
-4.4344
0
LINE
8
BLACK
6
CONTINUOUS
10
5.08745
20
-4.4344
11
5.08745
21
-4.4344
0
LINE
8
BLACK
6
CONTINUOUS
10
5.08745
20
-4.4344
11
5.08547
21
-4.43971
0
LINE
8
BLACK
6
CONTINUOUS
10
5.08547
20
-4.43971
11
5.08522
21
-4.44205
0
LINE
8
BLACK
6
CONTINUOUS
10
5.08522
20
-4.44205
11
5.08522
21
-4.44205
0
LINE
8
BLACK
6
CONTINUOUS
10
5.08522
20
-4.44205
11
5.08522
21
-4.44394
0
LINE
8
BLACK
6
CONTINUOUS
10
5.08522
20
-4.44394
11
5.09508
21
-4.44394
0
LINE
8
BLACK
6
CONTINUOUS
10
5.09508
20
-4.44394
11
5.09508
21
-4.50299
0
LINE
8
BLACK
6
CONTINUOUS
10
5.09508
20
-4.50299
11
5.08522
21
-4.50299
0
LINE
8
BLACK
6
CONTINUOUS
10
5.08522
20
-4.50299
11
5.08522
21
-4.50488
0
LINE
8
BLACK
6
CONTINUOUS
10
5.08522
20
-4.50488
11
5.08522
21
-4.50488
0
LINE
8
BLACK
6
CONTINUOUS
10
5.08522
20
-4.50488
11
5.08547
21
-4.50722
0
LINE
8
BLACK
6
CONTINUOUS
10
5.08547
20
-4.50722
11
5.08745
21
-4.51253
0
LINE
8
BLACK
6
CONTINUOUS
10
5.08745
20
-4.51253
11
5.08745
21
-4.51253
0
LINE
8
BLACK
6
CONTINUOUS
10
5.08745
20
-4.51253
11
5.09084
21
-4.51707
0
LINE
8
BLACK
6
CONTINUOUS
10
5.09084
20
-4.51707
11
5.09084
21
-4.51707
0
LINE
8
BLACK
6
CONTINUOUS
10
5.09084
20
-4.51707
11
5.09538
21
-4.52046
0
LINE
8
BLACK
6
CONTINUOUS
10
5.09538
20
-4.52046
11
5.09538
21
-4.52046
0
LINE
8
BLACK
6
CONTINUOUS
10
5.09538
20
-4.52046
11
5.10069
21
-4.52244
0
LINE
8
BLACK
6
CONTINUOUS
10
5.10069
20
-4.52244
11
5.10069
21
-4.52244
0
LINE
8
BLACK
6
CONTINUOUS
10
5.10069
20
-4.52244
11
5.10096
21
-4.52247
0
LINE
8
BLACK
6
CONTINUOUS
10
5.10096
20
-4.52247
11
5.10304
21
-4.5227
0
LINE
8
BLACK
6
CONTINUOUS
10
5.10304
20
-4.5227
11
5.14618
21
-4.5227
0
LINE
8
BLACK
6
CONTINUOUS
10
5.14618
20
-4.5227
11
5.14852
21
-4.52244
0
LINE
8
BLACK
6
CONTINUOUS
10
5.14852
20
-4.52244
11
5.14852
21
-4.52244
0
LINE
8
BLACK
6
CONTINUOUS
10
5.14852
20
-4.52244
11
5.14855
21
-4.52244
0
LINE
8
BLACK
6
CONTINUOUS
10
5.14855
20
-4.52244
11
5.1486
21
-4.52244
0
LINE
8
BLACK
6
CONTINUOUS
10
5.1486
20
-4.52244
11
5.14883
21
-4.52241
0
LINE
8
BLACK
6
CONTINUOUS
10
5.14883
20
-4.52241
11
5.14883
21
-4.52243
0
LINE
8
BLACK
6
CONTINUOUS
10
5.14883
20
-4.52243
11
5.15036
21
-4.52236
0
LINE
8
BLACK
6
CONTINUOUS
10
5.15036
20
-4.52236
11
5.15413
21
-4.5229
0
LINE
8
BLACK
6
CONTINUOUS
10
5.15413
20
-4.5229
11
5.15413
21
-4.5229
0
LINE
8
BLACK
6
CONTINUOUS
10
5.15413
20
-4.5229
11
5.17862
21
-4.5229
0
LINE
8
BLACK
6
CONTINUOUS
10
5.17862
20
-4.5229
11
5.17862
21
-4.5229
0
LINE
8
BLACK
6
CONTINUOUS
10
5.17862
20
-4.5229
11
5.18423
21
-4.52209
0
LINE
8
BLACK
6
CONTINUOUS
10
5.18423
20
-4.52209
11
5.18966
21
-4.5205
0
LINE
8
BLACK
6
CONTINUOUS
10
5.18966
20
-4.5205
11
5.19481
21
-4.51814
0
LINE
8
BLACK
6
CONTINUOUS
10
5.19481
20
-4.51814
11
5.19957
21
-4.51508
0
LINE
8
BLACK
6
CONTINUOUS
10
5.19957
20
-4.51508
11
5.19957
21
-4.51508
0
LINE
8
BLACK
6
CONTINUOUS
10
5.19957
20
-4.51508
11
5.19957
21
-4.51508
0
LINE
8
BLACK
6
CONTINUOUS
10
5.19957
20
-4.51508
11
5.20386
21
-4.51137
0
LINE
8
BLACK
6
CONTINUOUS
10
5.20386
20
-4.51137
11
5.20386
21
-4.51137
0
LINE
8
BLACK
6
CONTINUOUS
10
5.20386
20
-4.51137
11
5.20756
21
-4.5071
0
LINE
8
BLACK
6
CONTINUOUS
10
5.20756
20
-4.5071
11
5.20756
21
-4.5071
0
LINE
8
BLACK
6
CONTINUOUS
10
5.20756
20
-4.5071
11
5.20756
21
-4.5071
0
LINE
8
BLACK
6
CONTINUOUS
10
5.20756
20
-4.5071
11
5.20864
21
-4.50541
0
LINE
8
BLACK
6
CONTINUOUS
10
5.20864
20
-4.50541
11
5.21072
21
-4.50361
0
LINE
8
BLACK
6
CONTINUOUS
10
5.21072
20
-4.50361
11
5.21275
21
-4.50317
0
LINE
8
BLACK
6
CONTINUOUS
10
5.21275
20
-4.50317
11
5.23209
21
-4.50317
0
LINE
8
BLACK
6
CONTINUOUS
10
5.23209
20
-4.50317
11
5.23279
21
-4.50322
0
LINE
8
BLACK
6
CONTINUOUS
10
5.23279
20
-4.50322
11
5.23301
21
-4.50325
0
LINE
8
BLACK
6
CONTINUOUS
10
5.23301
20
-4.50325
11
5.23374
21
-4.50336
0
LINE
8
BLACK
6
CONTINUOUS
10
5.23374
20
-4.50336
11
5.2358
21
-4.50318
0
LINE
8
BLACK
6
CONTINUOUS
10
5.2358
20
-4.50318
11
5.23601
21
-4.50317
0
LINE
8
BLACK
6
CONTINUOUS
10
5.23601
20
-4.50317
11
5.23634
21
-4.50317
0
LINE
8
BLACK
6
CONTINUOUS
10
5.23634
20
-4.50317
11
5.23634
21
-4.50317
0
LINE
8
BLACK
6
CONTINUOUS
10
5.23634
20
-4.50317
11
5.23762
21
-4.50302
0
LINE
8
BLACK
6
CONTINUOUS
10
5.23762
20
-4.50302
11
5.24065
21
-4.50275
0
LINE
8
BLACK
6
CONTINUOUS
10
5.24065
20
-4.50275
11
5.24065
21
-4.50275
0
LINE
8
BLACK
6
CONTINUOUS
10
5.24065
20
-4.50275
11
5.24093
21
-4.5027
0
LINE
8
BLACK
6
CONTINUOUS
10
5.24093
20
-4.5027
11
5.24093
21
-4.5027
0
LINE
8
BLACK
6
CONTINUOUS
10
5.24093
20
-4.5027
11
5.24123
21
-4.50263
0
LINE
8
BLACK
6
CONTINUOUS
10
5.24123
20
-4.50263
11
5.24123
21
-4.50263
0
LINE
8
BLACK
6
CONTINUOUS
10
5.24123
20
-4.50263
11
5.2415
21
-4.50257
0
LINE
8
BLACK
6
CONTINUOUS
10
5.2415
20
-4.50257
11
5.2415
21
-4.50257
0
LINE
8
BLACK
6
CONTINUOUS
10
5.2415
20
-4.50257
11
5.24365
21
-4.50179
0
LINE
8
BLACK
6
CONTINUOUS
10
5.24365
20
-4.50179
11
5.24436
21
-4.50153
0
LINE
8
BLACK
6
CONTINUOUS
10
5.24436
20
-4.50153
11
5.24725
21
-4.50057
0
LINE
8
BLACK
6
CONTINUOUS
10
5.24725
20
-4.50057
11
5.2475
21
-4.50045
0
LINE
8
BLACK
6
CONTINUOUS
10
5.2475
20
-4.50045
11
5.2475
21
-4.50045
0
LINE
8
BLACK
6
CONTINUOUS
10
5.2475
20
-4.50045
11
5.24778
21
-4.50032
0
LINE
8
BLACK
6
CONTINUOUS
10
5.24778
20
-4.50032
11
5.24777
21
-4.50032
0
LINE
8
BLACK
6
CONTINUOUS
10
5.24777
20
-4.50032
11
5.24803
21
-4.50019
0
LINE
8
BLACK
6
CONTINUOUS
10
5.24803
20
-4.50019
11
5.24803
21
-4.50019
0
LINE
8
BLACK
6
CONTINUOUS
10
5.24803
20
-4.50019
11
5.24972
21
-4.49908
0
LINE
8
BLACK
6
CONTINUOUS
10
5.24972
20
-4.49908
11
5.25057
21
-4.49852
0
LINE
8
BLACK
6
CONTINUOUS
10
5.25057
20
-4.49852
11
5.25173
21
-4.4978
0
LINE
8
BLACK
6
CONTINUOUS
10
5.25173
20
-4.4978
11
5.25316
21
-4.49692
0
LINE
8
BLACK
6
CONTINUOUS
10
5.25316
20
-4.49692
11
5.25316
21
-4.49692
0
LINE
8
BLACK
6
CONTINUOUS
10
5.25316
20
-4.49692
11
5.25338
21
-4.49675
0
LINE
8
BLACK
6
CONTINUOUS
10
5.25338
20
-4.49675
11
5.25338
21
-4.49675
0
LINE
8
BLACK
6
CONTINUOUS
10
5.25338
20
-4.49675
11
5.25361
21
-4.49656
0
LINE
8
BLACK
6
CONTINUOUS
10
5.25361
20
-4.49656
11
5.25361
21
-4.49656
0
LINE
8
BLACK
6
CONTINUOUS
10
5.25361
20
-4.49656
11
5.25383
21
-4.49637
0
LINE
8
BLACK
6
CONTINUOUS
10
5.25383
20
-4.49637
11
5.25383
21
-4.49637
0
LINE
8
BLACK
6
CONTINUOUS
10
5.25383
20
-4.49637
11
5.25383
21
-4.49637
0
LINE
8
BLACK
6
CONTINUOUS
10
5.25383
20
-4.49637
11
5.25592
21
-4.49416
0
LINE
8
BLACK
6
CONTINUOUS
10
5.25592
20
-4.49416
11
5.29383
21
-4.45625
0
LINE
8
BLACK
6
CONTINUOUS
10
5.29383
20
-4.45625
11
5.29437
21
-4.45579
0
LINE
8
BLACK
6
CONTINUOUS
10
5.29437
20
-4.45579
11
5.29513
21
-4.45522
0
LINE
8
BLACK
6
CONTINUOUS
10
5.29513
20
-4.45522
11
5.29646
21
-4.45363
0
LINE
8
BLACK
6
CONTINUOUS
10
5.29646
20
-4.45363
11
5.2966
21
-4.45348
0
LINE
8
BLACK
6
CONTINUOUS
10
5.2966
20
-4.45348
11
5.29683
21
-4.45325
0
LINE
8
BLACK
6
CONTINUOUS
10
5.29683
20
-4.45325
11
5.29764
21
-4.45223
0
LINE
8
BLACK
6
CONTINUOUS
10
5.29764
20
-4.45223
11
5.29959
21
-4.4499
0
LINE
8
BLACK
6
CONTINUOUS
10
5.29959
20
-4.4499
11
5.29959
21
-4.4499
0
LINE
8
BLACK
6
CONTINUOUS
10
5.29959
20
-4.4499
11
5.29975
21
-4.44966
0
LINE
8
BLACK
6
CONTINUOUS
10
5.29975
20
-4.44966
11
5.29975
21
-4.44966
0
LINE
8
BLACK
6
CONTINUOUS
10
5.29975
20
-4.44966
11
5.29991
21
-4.44941
0
LINE
8
BLACK
6
CONTINUOUS
10
5.29991
20
-4.44941
11
5.29991
21
-4.44941
0
LINE
8
BLACK
6
CONTINUOUS
10
5.29991
20
-4.44941
11
5.30006
21
-4.44917
0
LINE
8
BLACK
6
CONTINUOUS
10
5.30006
20
-4.44917
11
5.30006
21
-4.44916
0
LINE
8
BLACK
6
CONTINUOUS
10
5.30006
20
-4.44916
11
5.30135
21
-4.44641
0
LINE
8
BLACK
6
CONTINUOUS
10
5.30135
20
-4.44641
11
5.30271
21
-4.44369
0
LINE
8
BLACK
6
CONTINUOUS
10
5.30271
20
-4.44369
11
5.30271
21
-4.44369
0
LINE
8
BLACK
6
CONTINUOUS
10
5.30271
20
-4.44369
11
5.30281
21
-4.44343
0
LINE
8
BLACK
6
CONTINUOUS
10
5.30281
20
-4.44343
11
5.30281
21
-4.44343
0
LINE
8
BLACK
6
CONTINUOUS
10
5.30281
20
-4.44343
11
5.30291
21
-4.44314
0
LINE
8
BLACK
6
CONTINUOUS
10
5.30291
20
-4.44314
11
5.30291
21
-4.44314
0
LINE
8
BLACK
6
CONTINUOUS
10
5.30291
20
-4.44314
11
5.303
21
-4.44287
0
LINE
8
BLACK
6
CONTINUOUS
10
5.303
20
-4.44287
11
5.303
21
-4.44287
0
LINE
8
BLACK
6
CONTINUOUS
10
5.303
20
-4.44287
11
5.303
21
-4.44287
0
LINE
8
BLACK
6
CONTINUOUS
10
5.303
20
-4.44287
11
5.30343
21
-4.44079
0
LINE
8
BLACK
6
CONTINUOUS
10
5.30343
20
-4.44079
11
5.30472
21
-4.43836
0
LINE
8
BLACK
6
CONTINUOUS
10
5.30472
20
-4.43836
11
5.30712
21
-4.43701
0
LINE
8
BLACK
6
CONTINUOUS
10
5.30712
20
-4.43701
11
5.30986
21
-4.43718
0
LINE
8
BLACK
6
CONTINUOUS
10
5.30986
20
-4.43718
11
5.31208
21
-4.43881
0
LINE
8
BLACK
6
CONTINUOUS
10
5.31208
20
-4.43881
11
5.31249
21
-4.43943
0
LINE
8
BLACK
6
CONTINUOUS
10
5.31249
20
-4.43943
11
5.31255
21
-4.43953
0
LINE
8
BLACK
6
CONTINUOUS
10
5.31255
20
-4.43953
11
5.31594
21
-4.44406
0
LINE
8
BLACK
6
CONTINUOUS
10
5.31594
20
-4.44406
11
5.31865
21
-4.44609
0
LINE
8
BLACK
6
CONTINUOUS
10
5.31865
20
-4.44609
11
5.3203
21
-4.44829
0
LINE
8
BLACK
6
CONTINUOUS
10
5.3203
20
-4.44829
11
5.32049
21
-4.45104
0
LINE
8
BLACK
6
CONTINUOUS
10
5.32049
20
-4.45104
11
5.31917
21
-4.45345
0
LINE
8
BLACK
6
CONTINUOUS
10
5.31917
20
-4.45345
11
5.31865
21
-4.45391
0
LINE
8
BLACK
6
CONTINUOUS
10
5.31865
20
-4.45391
11
5.31594
21
-4.45594
0
LINE
8
BLACK
6
CONTINUOUS
10
5.31594
20
-4.45594
11
5.31255
21
-4.46047
0
LINE
8
BLACK
6
CONTINUOUS
10
5.31255
20
-4.46047
11
5.31255
21
-4.46047
0
LINE
8
BLACK
6
CONTINUOUS
10
5.31255
20
-4.46047
11
5.31057
21
-4.46577
0
LINE
8
BLACK
6
CONTINUOUS
10
5.31057
20
-4.46577
11
5.31057
21
-4.46577
0
LINE
8
BLACK
6
CONTINUOUS
10
5.31057
20
-4.46577
11
5.31031
21
-4.46812
0
LINE
8
BLACK
6
CONTINUOUS
10
5.31031
20
-4.46812
11
5.31031
21
-4.49016
0
LINE
8
BLACK
6
CONTINUOUS
10
5.31031
20
-4.49016
11
5.33
21
-4.49016
0
LINE
8
BLACK
6
CONTINUOUS
10
5.33
20
-4.49016
11
5.33
21
-4.47
0
LINE
8
BLACK
6
CONTINUOUS
10
5.33
20
-4.47
11
5.35016
21
-4.47
0
LINE
8
BLACK
6
CONTINUOUS
10
5.35016
20
-4.47
11
5.35016
21
-4.43
0
LINE
8
BLACK
6
CONTINUOUS
10
5.35016
20
-4.43
11
5.33
21
-4.43
0
LINE
8
BLACK
6
CONTINUOUS
10
5.33
20
-4.43
11
5.33
21
-4.37
0
LINE
8
BLACK
6
CONTINUOUS
10
5.33
20
-4.37
11
5.39
21
-4.37
0
LINE
8
BLACK
6
CONTINUOUS
10
5.39
20
-4.37
11
5.39
21
-4.43
0
LINE
8
BLACK
6
CONTINUOUS
10
5.39
20
-4.43
11
5.36984
21
-4.43
0
LINE
8
BLACK
6
CONTINUOUS
10
5.36984
20
-4.43
11
5.36984
21
-4.47
0
LINE
8
BLACK
6
CONTINUOUS
10
5.36984
20
-4.47
11
5.39
21
-4.47
0
LINE
8
BLACK
6
CONTINUOUS
10
5.39
20
-4.47
11
5.39
21
-4.53
0
LINE
8
BLACK
6
CONTINUOUS
10
5.39
20
-4.53
11
5.36984
21
-4.53
0
LINE
8
BLACK
6
CONTINUOUS
10
5.36984
20
-4.53
11
5.36984
21
-4.54969
0
LINE
8
BLACK
6
CONTINUOUS
10
5.36984
20
-4.54969
11
5.39188
21
-4.54969
0
LINE
8
BLACK
6
CONTINUOUS
10
5.39188
20
-4.54969
11
5.39188
21
-4.54969
0
LINE
8
BLACK
6
CONTINUOUS
10
5.39188
20
-4.54969
11
5.39423
21
-4.54943
0
LINE
8
BLACK
6
CONTINUOUS
10
5.39423
20
-4.54943
11
5.39423
21
-4.54943
0
LINE
8
BLACK
6
CONTINUOUS
10
5.39423
20
-4.54943
11
5.39953
21
-4.54745
0
LINE
8
BLACK
6
CONTINUOUS
10
5.39953
20
-4.54745
11
5.39953
21
-4.54745
0
LINE
8
BLACK
6
CONTINUOUS
10
5.39953
20
-4.54745
11
5.40406
21
-4.54406
0
LINE
8
BLACK
6
CONTINUOUS
10
5.40406
20
-4.54406
11
5.40406
21
-4.54406
0
LINE
8
BLACK
6
CONTINUOUS
10
5.40406
20
-4.54406
11
5.40608
21
-4.54137
0
LINE
8
BLACK
6
CONTINUOUS
10
5.40608
20
-4.54137
11
5.40828
21
-4.53972
0
LINE
8
BLACK
6
CONTINUOUS
10
5.40828
20
-4.53972
11
5.41103
21
-4.53952
0
LINE
8
BLACK
6
CONTINUOUS
10
5.41103
20
-4.53952
11
5.41344
21
-4.54084
0
LINE
8
BLACK
6
CONTINUOUS
10
5.41344
20
-4.54084
11
5.4139
21
-4.54137
0
LINE
8
BLACK
6
CONTINUOUS
10
5.4139
20
-4.54137
11
5.41497
21
-4.5428
0
LINE
8
BLACK
6
CONTINUOUS
10
5.41497
20
-4.5428
11
5.41591
21
-4.54406
0
LINE
8
BLACK
6
CONTINUOUS
10
5.41591
20
-4.54406
11
5.41592
21
-4.54408
0
LINE
8
BLACK
6
CONTINUOUS
10
5.41592
20
-4.54408
11
5.42046
21
-4.54747
0
LINE
8
BLACK
6
CONTINUOUS
10
5.42046
20
-4.54747
11
5.42046
21
-4.54747
0
LINE
8
BLACK
6
CONTINUOUS
10
5.42046
20
-4.54747
11
5.42577
21
-4.54945
0
LINE
8
BLACK
6
CONTINUOUS
10
5.42577
20
-4.54945
11
5.42577
21
-4.54945
0
LINE
8
BLACK
6
CONTINUOUS
10
5.42577
20
-4.54945
11
5.42604
21
-4.54948
0
LINE
8
BLACK
6
CONTINUOUS
10
5.42604
20
-4.54948
11
5.42812
21
-4.5497
0
LINE
8
BLACK
6
CONTINUOUS
10
5.42812
20
-4.5497
11
5.49188
21
-4.5497
0
LINE
8
BLACK
6
CONTINUOUS
10
5.49188
20
-4.5497
11
5.49423
21
-4.54945
0
LINE
8
BLACK
6
CONTINUOUS
10
5.49423
20
-4.54945
11
5.49954
21
-4.54747
0
LINE
8
BLACK
6
CONTINUOUS
10
5.49954
20
-4.54747
11
5.50408
21
-4.54408
0
LINE
8
BLACK
6
CONTINUOUS
10
5.50408
20
-4.54408
11
5.5061
21
-4.54137
0
LINE
8
BLACK
6
CONTINUOUS
10
5.5061
20
-4.54137
11
5.50831
21
-4.53972
0
LINE
8
BLACK
6
CONTINUOUS
10
5.50831
20
-4.53972
11
5.51105
21
-4.53952
0
LINE
8
BLACK
6
CONTINUOUS
10
5.51105
20
-4.53952
11
5.51346
21
-4.54084
0
LINE
8
BLACK
6
CONTINUOUS
10
5.51346
20
-4.54084
11
5.51392
21
-4.54137
0
LINE
8
BLACK
6
CONTINUOUS
10
5.51392
20
-4.54137
11
5.51594
21
-4.54406
0
LINE
8
BLACK
6
CONTINUOUS
10
5.51594
20
-4.54406
11
5.52047
21
-4.54745
0
LINE
8
BLACK
6
CONTINUOUS
10
5.52047
20
-4.54745
11
5.52047
21
-4.54745
0
LINE
8
BLACK
6
CONTINUOUS
10
5.52047
20
-4.54745
11
5.52577
21
-4.54943
0
LINE
8
BLACK
6
CONTINUOUS
10
5.52577
20
-4.54943
11
5.52577
21
-4.54943
0
LINE
8
BLACK
6
CONTINUOUS
10
5.52577
20
-4.54943
11
5.52812
21
-4.54969
0
LINE
8
BLACK
6
CONTINUOUS
10
5.52812
20
-4.54969
11
5.52812
21
-4.54969
0
LINE
8
BLACK
6
CONTINUOUS
10
5.52812
20
-4.54969
11
5.55016
21
-4.54969
0
LINE
8
BLACK
6
CONTINUOUS
10
5.55016
20
-4.54969
11
5.55016
21
-4.53
0
LINE
8
BLACK
6
CONTINUOUS
10
5.55016
20
-4.53
11
5.53
21
-4.53
0
LINE
8
BLACK
6
CONTINUOUS
10
5.53
20
-4.53
11
5.53
21
-4.47
0
LINE
8
BLACK
6
CONTINUOUS
10
5.53
20
-4.47
11
5.55016
21
-4.47
0
LINE
8
BLACK
6
CONTINUOUS
10
5.55016
20
-4.47
11
5.55016
21
-4.43
0
LINE
8
BLACK
6
CONTINUOUS
10
5.55016
20
-4.43
11
5.53
21
-4.43
0
LINE
8
BLACK
6
CONTINUOUS
10
5.53
20
-4.43
11
5.53
21
-4.37
0
LINE
8
BLACK
6
CONTINUOUS
10
5.53
20
-4.37
11
5.55016
21
-4.37
0
LINE
8
BLACK
6
CONTINUOUS
10
5.55016
20
-4.37
11
5.55016
21
-4.35031
0
LINE
8
BLACK
6
CONTINUOUS
10
5.55016
20
-4.35031
11
5.52812
21
-4.35031
0
LINE
8
BLACK
6
CONTINUOUS
10
5.52812
20
-4.35031
11
5.52577
21
-4.35057
0
LINE
8
BLACK
6
CONTINUOUS
10
5.52577
20
-4.35057
11
5.52577
21
-4.35057
0
LINE
8
BLACK
6
CONTINUOUS
10
5.52577
20
-4.35057
11
5.52047
21
-4.35255
0
LINE
8
BLACK
6
CONTINUOUS
10
5.52047
20
-4.35255
11
5.52047
21
-4.35255
0
LINE
8
BLACK
6
CONTINUOUS
10
5.52047
20
-4.35255
11
5.51594
21
-4.35594
0
LINE
8
BLACK
6
CONTINUOUS
10
5.51594
20
-4.35594
11
5.51392
21
-4.35863
0
LINE
8
BLACK
6
CONTINUOUS
10
5.51392
20
-4.35863
11
5.51172
21
-4.36028
0
LINE
8
BLACK
6
CONTINUOUS
10
5.51172
20
-4.36028
11
5.50897
21
-4.36048
0
LINE
8
BLACK
6
CONTINUOUS
10
5.50897
20
-4.36048
11
5.50656
21
-4.35916
0
LINE
8
BLACK
6
CONTINUOUS
10
5.50656
20
-4.35916
11
5.5061
21
-4.35863
0
LINE
8
BLACK
6
CONTINUOUS
10
5.5061
20
-4.35863
11
5.50408
21
-4.35592
0
LINE
8
BLACK
6
CONTINUOUS
10
5.50408
20
-4.35592
11
5.50408
21
-4.35592
0
LINE
8
BLACK
6
CONTINUOUS
10
5.50408
20
-4.35592
11
5.49954
21
-4.35253
0
LINE
8
BLACK
6
CONTINUOUS
10
5.49954
20
-4.35253
11
5.49954
21
-4.35253
0
LINE
8
BLACK
6
CONTINUOUS
10
5.49954
20
-4.35253
11
5.49398
21
-4.35045
0
LINE
8
BLACK
6
CONTINUOUS
10
5.49398
20
-4.35045
11
5.49178
21
-4.34881
0
LINE
8
BLACK
6
CONTINUOUS
10
5.49178
20
-4.34881
11
5.49082
21
-4.34623
0
LINE
8
BLACK
6
CONTINUOUS
10
5.49082
20
-4.34623
11
5.49081
21
-4.34588
0
LINE
8
BLACK
6
CONTINUOUS
10
5.49081
20
-4.34588
11
5.49081
21
-4.32635
0
LINE
8
BLACK
6
CONTINUOUS
10
5.49081
20
-4.32635
11
5.49158
21
-4.32371
0
LINE
8
BLACK
6
CONTINUOUS
10
5.49158
20
-4.32371
11
5.49366
21
-4.32191
0
LINE
8
BLACK
6
CONTINUOUS
10
5.49366
20
-4.32191
11
5.49398
21
-4.32178
0
LINE
8
BLACK
6
CONTINUOUS
10
5.49398
20
-4.32178
11
5.49623
21
-4.32094
0
LINE
8
BLACK
6
CONTINUOUS
10
5.49623
20
-4.32094
11
5.50077
21
-4.31754
0
LINE
8
BLACK
6
CONTINUOUS
10
5.50077
20
-4.31754
11
5.50417
21
-4.31301
0
LINE
8
BLACK
6
CONTINUOUS
10
5.50417
20
-4.31301
11
5.50615
21
-4.3077
0
LINE
8
BLACK
6
CONTINUOUS
10
5.50615
20
-4.3077
11
5.5064
21
-4.30535
0
LINE
8
BLACK
6
CONTINUOUS
10
5.5064
20
-4.30535
11
5.5064
21
-4.27984
0
LINE
8
BLACK
6
CONTINUOUS
10
5.5064
20
-4.27984
11
5.5064
21
-4.26016
0
LINE
8
BLACK
6
CONTINUOUS
10
5.5064
20
-4.26016
11
5.5064
21
-4.23465
0
LINE
8
BLACK
6
CONTINUOUS
10
5.5064
20
-4.23465
11
5.50615
21
-4.2323
0
LINE
8
BLACK
6
CONTINUOUS
10
5.50615
20
-4.2323
11
5.50485
21
-4.22882
0
LINE
8
BLACK
6
CONTINUOUS
10
5.50485
20
-4.22882
11
5.50417
21
-4.22699
0
LINE
8
BLACK
6
CONTINUOUS
10
5.50417
20
-4.22699
11
5.50417
21
-4.22699
0
LINE
8
BLACK
6
CONTINUOUS
10
5.50417
20
-4.22699
11
5.50213
21
-4.22428
0
LINE
8
BLACK
6
CONTINUOUS
10
5.50213
20
-4.22428
11
5.50077
21
-4.22246
0
LINE
8
BLACK
6
CONTINUOUS
10
5.50077
20
-4.22246
11
5.49703
21
-4.21966
0
LINE
8
BLACK
6
CONTINUOUS
10
5.49703
20
-4.21966
11
5.49538
21
-4.21746
0
LINE
8
BLACK
6
CONTINUOUS
10
5.49538
20
-4.21746
11
5.4951
21
-4.21524
0
LINE
8
BLACK
6
CONTINUOUS
10
5.4951
20
-4.21524
11
5.49565
21
-4.21
0
LINE
8
BLACK
6
CONTINUOUS
10
5.49565
20
-4.21
11
5.49487
21
-4.20259
0
LINE
8
BLACK
6
CONTINUOUS
10
5.49487
20
-4.20259
11
5.49257
21
-4.1955
0
LINE
8
BLACK
6
CONTINUOUS
10
5.49257
20
-4.1955
11
5.48884
21
-4.18905
0
LINE
8
BLACK
6
CONTINUOUS
10
5.48884
20
-4.18905
11
5.48385
21
-4.18351
0
LINE
8
BLACK
6
CONTINUOUS
10
5.48385
20
-4.18351
11
5.48221
21
-4.18232
0
LINE
8
BLACK
6
CONTINUOUS
10
5.48221
20
-4.18232
11
5.47782
21
-4.17913
0
LINE
8
BLACK
6
CONTINUOUS
10
5.47782
20
-4.17913
11
5.47782
21
-4.17913
0
LINE
8
BLACK
6
CONTINUOUS
10
5.47782
20
-4.17913
11
5.47102
21
-4.1761
0
LINE
8
BLACK
6
CONTINUOUS
10
5.47102
20
-4.1761
11
5.47102
21
-4.1761
0
LINE
8
BLACK
6
CONTINUOUS
10
5.47102
20
-4.1761
11
5.46976
21
-4.17583
0
LINE
8
BLACK
6
CONTINUOUS
10
5.46976
20
-4.17583
11
5.46734
21
-4.17452
0
LINE
8
BLACK
6
CONTINUOUS
10
5.46734
20
-4.17452
11
5.46601
21
-4.17212
0
LINE
8
BLACK
6
CONTINUOUS
10
5.46601
20
-4.17212
11
5.46619
21
-4.16937
0
LINE
8
BLACK
6
CONTINUOUS
10
5.46619
20
-4.16937
11
5.46732
21
-4.1676
0
LINE
8
BLACK
6
CONTINUOUS
10
5.46732
20
-4.1676
11
5.47623
21
-4.15869
0
LINE
8
BLACK
6
CONTINUOUS
10
5.47623
20
-4.15869
11
5.47865
21
-4.15738
0
LINE
8
BLACK
6
CONTINUOUS
10
5.47865
20
-4.15738
11
5.47969
21
-4.15726
0
LINE
8
BLACK
6
CONTINUOUS
10
5.47969
20
-4.15726
11
5.49823
21
-4.15726
0
LINE
8
BLACK
6
CONTINUOUS
10
5.49823
20
-4.15726
11
5.49823
21
-4.15726
0
LINE
8
BLACK
6
CONTINUOUS
10
5.49823
20
-4.15726
11
5.50228
21
-4.15685
0
LINE
8
BLACK
6
CONTINUOUS
10
5.50228
20
-4.15685
11
5.50574
21
-4.1557
0
LINE
8
BLACK
6
CONTINUOUS
10
5.50574
20
-4.1557
11
5.50883
21
-4.15468
0
LINE
8
BLACK
6
CONTINUOUS
10
5.50883
20
-4.15468
11
5.51471
21
-4.15105
0
LINE
8
BLACK
6
CONTINUOUS
10
5.51471
20
-4.15105
11
5.51959
21
-4.14617
0
LINE
8
BLACK
6
CONTINUOUS
10
5.51959
20
-4.14617
11
5.52322
21
-4.14029
0
LINE
8
BLACK
6
CONTINUOUS
10
5.52322
20
-4.14029
11
5.52539
21
-4.13373
0
LINE
8
BLACK
6
CONTINUOUS
10
5.52539
20
-4.13373
11
5.52581
21
-4.12969
0
LINE
8
BLACK
6
CONTINUOUS
10
5.52581
20
-4.12969
11
5.52581
21
-4.09031
0
LINE
8
BLACK
6
CONTINUOUS
10
5.52581
20
-4.09031
11
5.52575
21
-4.08977
0
LINE
8
BLACK
6
CONTINUOUS
10
5.52575
20
-4.08977
11
5.52539
21
-4.08627
0
LINE
8
BLACK
6
CONTINUOUS
10
5.52539
20
-4.08627
11
5.52539
21
-4.08627
0
LINE
8
BLACK
6
CONTINUOUS
10
5.52539
20
-4.08627
11
5.52522
21
-4.08573
0
LINE
8
BLACK
6
CONTINUOUS
10
5.52522
20
-4.08573
11
5.52322
21
-4.07971
0
LINE
8
BLACK
6
CONTINUOUS
10
5.52322
20
-4.07971
11
5.51959
21
-4.07383
0
LINE
8
BLACK
6
CONTINUOUS
10
5.51959
20
-4.07383
11
5.51471
21
-4.06895
0
LINE
8
BLACK
6
CONTINUOUS
10
5.51471
20
-4.06895
11
5.51471
21
-4.06895
0
LINE
8
BLACK
6
CONTINUOUS
10
5.51471
20
-4.06895
11
5.50957
21
-4.06578
0
LINE
8
BLACK
6
CONTINUOUS
10
5.50957
20
-4.06578
11
5.50773
21
-4.06373
0
LINE
8
BLACK
6
CONTINUOUS
10
5.50773
20
-4.06373
11
5.50729
21
-4.06102
0
LINE
8
BLACK
6
CONTINUOUS
10
5.50729
20
-4.06102
11
5.50838
21
-4.05849
0
LINE
8
BLACK
6
CONTINUOUS
10
5.50838
20
-4.05849
11
5.5093
21
-4.05774
0
LINE
8
BLACK
6
CONTINUOUS
10
5.5093
20
-4.05774
11
5.50926
21
-4.05768
0
LINE
8
BLACK
6
CONTINUOUS
10
5.50926
20
-4.05768
11
5.51408
21
-4.05408
0
LINE
8
BLACK
6
CONTINUOUS
10
5.51408
20
-4.05408
11
5.51408
21
-4.05408
0
LINE
8
BLACK
6
CONTINUOUS
10
5.51408
20
-4.05408
11
5.51408
21
-4.05408
0
LINE
8
BLACK
6
CONTINUOUS
10
5.51408
20
-4.05408
11
5.5161
21
-4.05137
0
LINE
8
BLACK
6
CONTINUOUS
10
5.5161
20
-4.05137
11
5.51831
21
-4.04972
0
LINE
8
BLACK
6
CONTINUOUS
10
5.51831
20
-4.04972
11
5.52105
21
-4.04952
0
LINE
8
BLACK
6
CONTINUOUS
10
5.52105
20
-4.04952
11
5.52346
21
-4.05084
0
LINE
8
BLACK
6
CONTINUOUS
10
5.52346
20
-4.05084
11
5.52392
21
-4.05137
0
LINE
8
BLACK
6
CONTINUOUS
10
5.52392
20
-4.05137
11
5.52594
21
-4.05406
0
LINE
8
BLACK
6
CONTINUOUS
10
5.52594
20
-4.05406
11
5.53047
21
-4.05745
0
LINE
8
BLACK
6
CONTINUOUS
10
5.53047
20
-4.05745
11
5.53047
21
-4.05745
0
LINE
8
BLACK
6
CONTINUOUS
10
5.53047
20
-4.05745
11
5.53577
21
-4.05943
0
LINE
8
BLACK
6
CONTINUOUS
10
5.53577
20
-4.05943
11
5.53577
21
-4.05943
0
LINE
8
BLACK
6
CONTINUOUS
10
5.53577
20
-4.05943
11
5.53812
21
-4.05968
0
LINE
8
BLACK
6
CONTINUOUS
10
5.53812
20
-4.05968
11
5.53812
21
-4.05969
0
LINE
8
BLACK
6
CONTINUOUS
10
5.53812
20
-4.05969
11
5.56016
21
-4.05969
0
LINE
8
BLACK
6
CONTINUOUS
10
5.56016
20
-4.05969
11
5.56016
21
-4.04
0
LINE
8
BLACK
6
CONTINUOUS
10
5.56016
20
-4.04
11
5.54
21
-4.04
0
LINE
8
BLACK
6
CONTINUOUS
10
5.54
20
-4.04
11
5.54
21
-3.98
0
LINE
8
BLACK
6
CONTINUOUS
10
5.54
20
-3.98
11
5.56016
21
-3.98
0
LINE
8
BLACK
6
CONTINUOUS
10
5.56016
20
-3.98
11
5.56016
21
-3.94
0
LINE
8
BLACK
6
CONTINUOUS
10
5.56016
20
-3.94
11
5.54
21
-3.94
0
LINE
8
BLACK
6
CONTINUOUS
10
5.54
20
-3.94
11
5.54
21
-3.88
0
LINE
8
BLACK
6
CONTINUOUS
10
5.54
20
-3.88
11
5.56016
21
-3.88
0
LINE
8
BLACK
6
CONTINUOUS
10
5.56016
20
-3.88
11
5.56016
21
-3.86031
0
LINE
8
BLACK
6
CONTINUOUS
10
5.56016
20
-3.86031
11
5.53812
21
-3.86031
0
LINE
8
BLACK
6
CONTINUOUS
10
5.53812
20
-3.86031
11
5.53577
21
-3.86057
0
LINE
8
BLACK
6
CONTINUOUS
10
5.53577
20
-3.86057
11
5.53577
21
-3.86057
0
LINE
8
BLACK
6
CONTINUOUS
10
5.53577
20
-3.86057
11
5.53047
21
-3.86255
0
LINE
8
BLACK
6
CONTINUOUS
10
5.53047
20
-3.86255
11
5.53047
21
-3.86255
0
LINE
8
BLACK
6
CONTINUOUS
10
5.53047
20
-3.86255
11
5.52594
21
-3.86594
0
LINE
8
BLACK
6
CONTINUOUS
10
5.52594
20
-3.86594
11
5.52392
21
-3.86863
0
LINE
8
BLACK
6
CONTINUOUS
10
5.52392
20
-3.86863
11
5.52172
21
-3.87028
0
LINE
8
BLACK
6
CONTINUOUS
10
5.52172
20
-3.87028
11
5.51897
21
-3.87048
0
LINE
8
BLACK
6
CONTINUOUS
10
5.51897
20
-3.87048
11
5.51656
21
-3.86916
0
LINE
8
BLACK
6
CONTINUOUS
10
5.51656
20
-3.86916
11
5.5161
21
-3.86863
0
LINE
8
BLACK
6
CONTINUOUS
10
5.5161
20
-3.86863
11
5.51408
21
-3.86592
0
LINE
8
BLACK
6
CONTINUOUS
10
5.51408
20
-3.86592
11
5.51408
21
-3.86592
0
LINE
8
BLACK
6
CONTINUOUS
10
5.51408
20
-3.86592
11
5.50954
21
-3.86253
0
LINE
8
BLACK
6
CONTINUOUS
10
5.50954
20
-3.86253
11
5.50954
21
-3.86253
0
LINE
8
BLACK
6
CONTINUOUS
10
5.50954
20
-3.86253
11
5.50423
21
-3.86055
0
LINE
8
BLACK
6
CONTINUOUS
10
5.50423
20
-3.86055
11
5.50423
21
-3.86055
0
LINE
8
BLACK
6
CONTINUOUS
10
5.50423
20
-3.86055
11
5.50189
21
-3.8603
0
LINE
8
BLACK
6
CONTINUOUS
10
5.50189
20
-3.8603
11
5.50189
21
-3.8603
0
LINE
8
BLACK
6
CONTINUOUS
10
5.50189
20
-3.8603
11
5.50188
21
-3.8603
0
LINE
8
BLACK
6
CONTINUOUS
10
5.50188
20
-3.8603
11
5.50188
21
-3.8603
0
LINE
8
BLACK
6
CONTINUOUS
10
5.50188
20
-3.8603
11
5.43812
21
-3.8603
0
LINE
8
BLACK
6
CONTINUOUS
10
5.43812
20
-3.8603
11
5.43812
21
-3.8603
0
LINE
8
BLACK
6
CONTINUOUS
10
5.43812
20
-3.8603
11
5.43577
21
-3.86055
0
LINE
8
BLACK
6
CONTINUOUS
10
5.43577
20
-3.86055
11
5.43046
21
-3.86253
0
LINE
8
BLACK
6
CONTINUOUS
10
5.43046
20
-3.86253
11
5.43046
21
-3.86253
0
LINE
8
BLACK
6
CONTINUOUS
10
5.43046
20
-3.86253
11
5.42592
21
-3.86592
0
LINE
8
BLACK
6
CONTINUOUS
10
5.42592
20
-3.86592
11
5.42391
21
-3.86862
0
LINE
8
BLACK
6
CONTINUOUS
10
5.42391
20
-3.86862
11
5.42171
21
-3.87026
0
LINE
8
BLACK
6
CONTINUOUS
10
5.42171
20
-3.87026
11
5.41896
21
-3.87046
0
LINE
8
BLACK
6
CONTINUOUS
10
5.41896
20
-3.87046
11
5.41655
21
-3.86914
0
LINE
8
BLACK
6
CONTINUOUS
10
5.41655
20
-3.86914
11
5.41609
21
-3.86862
0
LINE
8
BLACK
6
CONTINUOUS
10
5.41609
20
-3.86862
11
5.41552
21
-3.86785
0
LINE
8
BLACK
6
CONTINUOUS
10
5.41552
20
-3.86785
11
5.41408
21
-3.86592
0
LINE
8
BLACK
6
CONTINUOUS
10
5.41408
20
-3.86592
11
5.41408
21
-3.86592
0
LINE
8
BLACK
6
CONTINUOUS
10
5.41408
20
-3.86592
11
5.41408
21
-3.86592
0
LINE
8
BLACK
6
CONTINUOUS
10
5.41408
20
-3.86592
11
5.40954
21
-3.86253
0
LINE
8
BLACK
6
CONTINUOUS
10
5.40954
20
-3.86253
11
5.40954
21
-3.86253
0
LINE
8
BLACK
6
CONTINUOUS
10
5.40954
20
-3.86253
11
5.40423
21
-3.86055
0
LINE
8
BLACK
6
CONTINUOUS
10
5.40423
20
-3.86055
11
5.40423
21
-3.86055
0
LINE
8
BLACK
6
CONTINUOUS
10
5.40423
20
-3.86055
11
5.40189
21
-3.8603
0
LINE
8
BLACK
6
CONTINUOUS
10
5.40189
20
-3.8603
11
5.40189
21
-3.8603
0
LINE
8
BLACK
6
CONTINUOUS
10
5.40189
20
-3.8603
11
5.40188
21
-3.8603
0
LINE
8
BLACK
6
CONTINUOUS
10
5.40188
20
-3.8603
11
5.40188
21
-3.8603
0
LINE
8
BLACK
6
CONTINUOUS
10
5.40188
20
-3.8603
11
5.33812
21
-3.8603
0
LINE
8
BLACK
6
CONTINUOUS
10
5.33812
20
-3.8603
11
5.33812
21
-3.8603
0
LINE
8
BLACK
6
CONTINUOUS
10
5.33812
20
-3.8603
11
5.33577
21
-3.86055
0
LINE
8
BLACK
6
CONTINUOUS
10
5.33577
20
-3.86055
11
5.33046
21
-3.86253
0
LINE
8
BLACK
6
CONTINUOUS
10
5.33046
20
-3.86253
11
5.33046
21
-3.86253
0
LINE
8
BLACK
6
CONTINUOUS
10
5.33046
20
-3.86253
11
5.32592
21
-3.86592
0
LINE
8
BLACK
6
CONTINUOUS
10
5.32592
20
-3.86592
11
5.32391
21
-3.86862
0
LINE
8
BLACK
6
CONTINUOUS
10
5.32391
20
-3.86862
11
5.32171
21
-3.87026
0
LINE
8
BLACK
6
CONTINUOUS
10
5.32171
20
-3.87026
11
5.31896
21
-3.87046
0
LINE
8
BLACK
6
CONTINUOUS
10
5.31896
20
-3.87046
11
5.31655
21
-3.86914
0
LINE
8
BLACK
6
CONTINUOUS
10
5.31655
20
-3.86914
11
5.31609
21
-3.86862
0
LINE
8
BLACK
6
CONTINUOUS
10
5.31609
20
-3.86862
11
5.31552
21
-3.86785
0
LINE
8
BLACK
6
CONTINUOUS
10
5.31552
20
-3.86785
11
5.31408
21
-3.86592
0
LINE
8
BLACK
6
CONTINUOUS
10
5.31408
20
-3.86592
11
5.31408
21
-3.86592
0
LINE
8
BLACK
6
CONTINUOUS
10
5.31408
20
-3.86592
11
5.31408
21
-3.86592
0
LINE
8
BLACK
6
CONTINUOUS
10
5.31408
20
-3.86592
11
5.30954
21
-3.86253
0
LINE
8
BLACK
6
CONTINUOUS
10
5.30954
20
-3.86253
11
5.30954
21
-3.86253
0
LINE
8
BLACK
6
CONTINUOUS
10
5.30954
20
-3.86253
11
5.30423
21
-3.86055
0
LINE
8
BLACK
6
CONTINUOUS
10
5.30423
20
-3.86055
11
5.30423
21
-3.86055
0
LINE
8
BLACK
6
CONTINUOUS
10
5.30423
20
-3.86055
11
5.30189
21
-3.8603
0
LINE
8
BLACK
6
CONTINUOUS
10
5.30189
20
-3.8603
11
5.30189
21
-3.8603
0
LINE
8
BLACK
6
CONTINUOUS
10
5.30189
20
-3.8603
11
5.30188
21
-3.8603
0
LINE
8
BLACK
6
CONTINUOUS
10
5.30188
20
-3.8603
11
5.30188
21
-3.8603
0
LINE
8
BLACK
6
CONTINUOUS
10
5.30188
20
-3.8603
11
5.23812
21
-3.8603
0
LINE
8
BLACK
6
CONTINUOUS
10
5.23812
20
-3.8603
11
5.23812
21
-3.8603
0
LINE
8
BLACK
6
CONTINUOUS
10
5.23812
20
-3.8603
11
5.23577
21
-3.86055
0
LINE
8
BLACK
6
CONTINUOUS
10
5.23577
20
-3.86055
11
5.23046
21
-3.86253
0
LINE
8
BLACK
6
CONTINUOUS
10
5.23046
20
-3.86253
11
5.23046
21
-3.86253
0
LINE
8
BLACK
6
CONTINUOUS
10
5.23046
20
-3.86253
11
5.22592
21
-3.86592
0
LINE
8
BLACK
6
CONTINUOUS
10
5.22592
20
-3.86592
11
5.2239
21
-3.86863
0
LINE
8
BLACK
6
CONTINUOUS
10
5.2239
20
-3.86863
11
5.22169
21
-3.87028
0
LINE
8
BLACK
6
CONTINUOUS
10
5.22169
20
-3.87028
11
5.21895
21
-3.87048
0
LINE
8
BLACK
6
CONTINUOUS
10
5.21895
20
-3.87048
11
5.21654
21
-3.86916
0
LINE
8
BLACK
6
CONTINUOUS
10
5.21654
20
-3.86916
11
5.21608
21
-3.86863
0
LINE
8
BLACK
6
CONTINUOUS
10
5.21608
20
-3.86863
11
5.21406
21
-3.86594
0
LINE
8
BLACK
6
CONTINUOUS
10
5.21406
20
-3.86594
11
5.20953
21
-3.86255
0
LINE
8
BLACK
6
CONTINUOUS
10
5.20953
20
-3.86255
11
5.20953
21
-3.86255
0
LINE
8
BLACK
6
CONTINUOUS
10
5.20953
20
-3.86255
11
5.20423
21
-3.86057
0
LINE
8
BLACK
6
CONTINUOUS
10
5.20423
20
-3.86057
11
5.20423
21
-3.86057
0
LINE
8
BLACK
6
CONTINUOUS
10
5.20423
20
-3.86057
11
5.20188
21
-3.86031
0
LINE
8
BLACK
6
CONTINUOUS
10
5.20188
20
-3.86031
11
5.17984
21
-3.86031
0
LINE
8
BLACK
6
CONTINUOUS
10
5.17984
20
-3.86031
11
5.17984
21
-3.88
0
LINE
8
BLACK
6
CONTINUOUS
10
5.17984
20
-3.88
11
5.2
21
-3.88
0
LINE
8
BLACK
6
CONTINUOUS
10
5.2
20
-3.88
11
5.2
21
-3.94
0
LINE
8
BLACK
6
CONTINUOUS
10
5.2
20
-3.94
11
5.17984
21
-3.94
0
LINE
8
BLACK
6
CONTINUOUS
10
5.17984
20
-3.94
11
5.17984
21
-3.98
0
LINE
8
BLACK
6
CONTINUOUS
10
5.17984
20
-3.98
11
5.2
21
-3.98
0
LINE
8
BLACK
6
CONTINUOUS
10
5.2
20
-3.98
11
5.2
21
-4.04
0
LINE
8
BLACK
6
CONTINUOUS
10
5.2
20
-4.04
11
5.17984
21
-4.04
0
LINE
8
BLACK
6
CONTINUOUS
10
5.17984
20
-4.04
11
5.17984
21
-4.05969
0
LINE
8
BLACK
6
CONTINUOUS
10
5.17984
20
-4.05969
11
5.20188
21
-4.05969
0
LINE
8
BLACK
6
CONTINUOUS
10
5.20188
20
-4.05969
11
5.20188
21
-4.05968
0
LINE
8
BLACK
6
CONTINUOUS
10
5.20188
20
-4.05968
11
5.20423
21
-4.05943
0
LINE
8
BLACK
6
CONTINUOUS
10
5.20423
20
-4.05943
11
5.20423
21
-4.05943
0
LINE
8
BLACK
6
CONTINUOUS
10
5.20423
20
-4.05943
11
5.20953
21
-4.05745
0
LINE
8
BLACK
6
CONTINUOUS
10
5.20953
20
-4.05745
11
5.20953
21
-4.05745
0
LINE
8
BLACK
6
CONTINUOUS
10
5.20953
20
-4.05745
11
5.21406
21
-4.05406
0
LINE
8
BLACK
6
CONTINUOUS
10
5.21406
20
-4.05406
11
5.21406
21
-4.05406
0
LINE
8
BLACK
6
CONTINUOUS
10
5.21406
20
-4.05406
11
5.21608
21
-4.05137
0
LINE
8
BLACK
6
CONTINUOUS
10
5.21608
20
-4.05137
11
5.21828
21
-4.04972
0
LINE
8
BLACK
6
CONTINUOUS
10
5.21828
20
-4.04972
11
5.22103
21
-4.04952
0
LINE
8
BLACK
6
CONTINUOUS
10
5.22103
20
-4.04952
11
5.22344
21
-4.05084
0
LINE
8
BLACK
6
CONTINUOUS
10
5.22344
20
-4.05084
11
5.2239
21
-4.05137
0
LINE
8
BLACK
6
CONTINUOUS
10
5.2239
20
-4.05137
11
5.22391
21
-4.05138
0
LINE
8
BLACK
6
CONTINUOUS
10
5.22391
20
-4.05138
11
5.22591
21
-4.05406
0
LINE
8
BLACK
6
CONTINUOUS
10
5.22591
20
-4.05406
11
5.22592
21
-4.05408
0
LINE
8
BLACK
6
CONTINUOUS
10
5.22592
20
-4.05408
11
5.23074
21
-4.05768
0
LINE
8
BLACK
6
CONTINUOUS
10
5.23074
20
-4.05768
11
5.23066
21
-4.05779
0
LINE
8
BLACK
6
CONTINUOUS
10
5.23066
20
-4.05779
11
5.23215
21
-4.05928
0
LINE
8
BLACK
6
CONTINUOUS
10
5.23215
20
-4.05928
11
5.23274
21
-4.06197
0
LINE
8
BLACK
6
CONTINUOUS
10
5.23274
20
-4.06197
11
5.23178
21
-4.06455
0
LINE
8
BLACK
6
CONTINUOUS
10
5.23178
20
-4.06455
11
5.23043
21
-4.06578
0
LINE
8
BLACK
6
CONTINUOUS
10
5.23043
20
-4.06578
11
5.22529
21
-4.06895
0
LINE
8
BLACK
6
CONTINUOUS
10
5.22529
20
-4.06895
11
5.22041
21
-4.07383
0
LINE
8
BLACK
6
CONTINUOUS
10
5.22041
20
-4.07383
11
5.21678
21
-4.07971
0
LINE
8
BLACK
6
CONTINUOUS
10
5.21678
20
-4.07971
11
5.21666
21
-4.07997
0
LINE
8
BLACK
6
CONTINUOUS
10
5.21666
20
-4.07997
11
5.21654
21
-4.07991
0
LINE
8
BLACK
6
CONTINUOUS
10
5.21654
20
-4.07991
11
5.2153
21
-4.08171
0
LINE
8
BLACK
6
CONTINUOUS
10
5.2153
20
-4.08171
11
5.21276
21
-4.08277
0
LINE
8
BLACK
6
CONTINUOUS
10
5.21276
20
-4.08277
11
5.21223
21
-4.0828
0
LINE
8
BLACK
6
CONTINUOUS
10
5.21223
20
-4.0828
11
5.1909
21
-4.0828
0
LINE
8
BLACK
6
CONTINUOUS
10
5.1909
20
-4.0828
11
5.19075
21
-4.08279
0
LINE
8
BLACK
6
CONTINUOUS
10
5.19075
20
-4.08279
11
5.18835
21
-4.08265
0
LINE
8
BLACK
6
CONTINUOUS
10
5.18835
20
-4.08265
11
5.18835
21
-4.08265
0
LINE
8
BLACK
6
CONTINUOUS
10
5.18835
20
-4.08265
11
5.18598
21
-4.08308
0
LINE
8
BLACK
6
CONTINUOUS
10
5.18598
20
-4.08308
11
5.18583
21
-4.0831
0
LINE
8
BLACK
6
CONTINUOUS
10
5.18583
20
-4.0831
11
5.18344
21
-4.08339
0
LINE
8
BLACK
6
CONTINUOUS
10
5.18344
20
-4.08339
11
5.18308
21
-4.08353
0
LINE
8
BLACK
6
CONTINUOUS
10
5.18308
20
-4.08353
11
5.18223
21
-4.08377
0
LINE
8
BLACK
6
CONTINUOUS
10
5.18223
20
-4.08377
11
5.18185
21
-4.08384
0
LINE
8
BLACK
6
CONTINUOUS
10
5.18185
20
-4.08384
11
5.17965
21
-4.08482
0
LINE
8
BLACK
6
CONTINUOUS
10
5.17965
20
-4.08482
11
5.17952
21
-4.08488
0
LINE
8
BLACK
6
CONTINUOUS
10
5.17952
20
-4.08488
11
5.17726
21
-4.08573
0
LINE
8
BLACK
6
CONTINUOUS
10
5.17726
20
-4.08573
11
5.17726
21
-4.08573
0
LINE
8
BLACK
6
CONTINUOUS
10
5.17726
20
-4.08573
11
5.17726
21
-4.08573
0
LINE
8
BLACK
6
CONTINUOUS
10
5.17726
20
-4.08573
11
5.17726
21
-4.08573
0
LINE
8
BLACK
6
CONTINUOUS
10
5.17726
20
-4.08573
11
5.17726
21
-4.08573
0
LINE
8
BLACK
6
CONTINUOUS
10
5.17726
20
-4.08573
11
5.17695
21
-4.08595
0
LINE
8
BLACK
6
CONTINUOUS
10
5.17695
20
-4.08595
11
5.17618
21
-4.08639
0
LINE
8
BLACK
6
CONTINUOUS
10
5.17618
20
-4.08639
11
5.17582
21
-4.08655
0
LINE
8
BLACK
6
CONTINUOUS
10
5.17582
20
-4.08655
11
5.17582
21
-4.08655
0
LINE
8
BLACK
6
CONTINUOUS
10
5.17582
20
-4.08655
11
5.17582
21
-4.08655
0
LINE
8
BLACK
6
CONTINUOUS
10
5.17582
20
-4.08655
11
5.17501
21
-4.08718
0
LINE
8
BLACK
6
CONTINUOUS
10
5.17501
20
-4.08718
11
5.17393
21
-4.08803
0
LINE
8
BLACK
6
CONTINUOUS
10
5.17393
20
-4.08803
11
5.17381
21
-4.08812
0
LINE
8
BLACK
6
CONTINUOUS
10
5.17381
20
-4.08812
11
5.17183
21
-4.08949
0
LINE
8
BLACK
6
CONTINUOUS
10
5.17183
20
-4.08949
11
5.17183
21
-4.08949
0
LINE
8
BLACK
6
CONTINUOUS
10
5.17183
20
-4.08949
11
5.17023
21
-4.09129
0
LINE
8
BLACK
6
CONTINUOUS
10
5.17023
20
-4.09129
11
5.17013
21
-4.0914
0
LINE
8
BLACK
6
CONTINUOUS
10
5.17013
20
-4.0914
11
5.122
21
-4.13952
0
LINE
8
BLACK
6
CONTINUOUS
10
5.122
20
-4.13952
11
5.1219
21
-4.13962
0
LINE
8
BLACK
6
CONTINUOUS
10
5.1219
20
-4.13962
11
5.12009
21
-4.14122
0
LINE
8
BLACK
6
CONTINUOUS
10
5.12009
20
-4.14122
11
5.12009
21
-4.14122
0
LINE
8
BLACK
6
CONTINUOUS
10
5.12009
20
-4.14122
11
5.11873
21
-4.1432
0
LINE
8
BLACK
6
CONTINUOUS
10
5.11873
20
-4.1432
11
5.11864
21
-4.14332
0
LINE
8
BLACK
6
CONTINUOUS
10
5.11864
20
-4.14332
11
5.11715
21
-4.14522
0
LINE
8
BLACK
6
CONTINUOUS
10
5.11715
20
-4.14522
11
5.11715
21
-4.14522
0
LINE
8
BLACK
6
CONTINUOUS
10
5.11715
20
-4.14522
11
5.11699
21
-4.14557
0
LINE
8
BLACK
6
CONTINUOUS
10
5.11699
20
-4.14557
11
5.11656
21
-4.14634
0
LINE
8
BLACK
6
CONTINUOUS
10
5.11656
20
-4.14634
11
5.11634
21
-4.14666
0
LINE
8
BLACK
6
CONTINUOUS
10
5.11634
20
-4.14666
11
5.11549
21
-4.14891
0
LINE
8
BLACK
6
CONTINUOUS
10
5.11549
20
-4.14891
11
5.11543
21
-4.14905
0
LINE
8
BLACK
6
CONTINUOUS
10
5.11543
20
-4.14905
11
5.11433
21
-4.1515
0
LINE
8
BLACK
6
CONTINUOUS
10
5.11433
20
-4.1515
11
5.11254
21
-4.15359
0
LINE
8
BLACK
6
CONTINUOUS
10
5.11254
20
-4.15359
11
5.1099
21
-4.15438
0
LINE
8
BLACK
6
CONTINUOUS
10
5.1099
20
-4.15438
11
5.10726
21
-4.15362
0
LINE
8
BLACK
6
CONTINUOUS
10
5.10726
20
-4.15362
11
5.10642
21
-4.15295
0
LINE
8
BLACK
6
CONTINUOUS
10
5.10642
20
-4.15295
11
5.01859
21
-4.06512
0
LINE
8
BLACK
6
CONTINUOUS
10
5.01859
20
-4.06512
11
5.01727
21
-4.0627
0
LINE
8
BLACK
6
CONTINUOUS
10
5.01727
20
-4.0627
11
5.01747
21
-4.05996
0
LINE
8
BLACK
6
CONTINUOUS
10
5.01747
20
-4.05996
11
5.01912
21
-4.05776
0
LINE
8
BLACK
6
CONTINUOUS
10
5.01912
20
-4.05776
11
5.01939
21
-4.05758
0
LINE
8
BLACK
6
CONTINUOUS
10
5.01939
20
-4.05758
11
5.01954
21
-4.05747
0
LINE
8
BLACK
6
CONTINUOUS
10
5.01954
20
-4.05747
11
5.01954
21
-4.05747
0
LINE
8
BLACK
6
CONTINUOUS
10
5.01954
20
-4.05747
11
5.02408
21
-4.05408
0
LINE
8
BLACK
6
CONTINUOUS
10
5.02408
20
-4.05408
11
5.02747
21
-4.04954
0
LINE
8
BLACK
6
CONTINUOUS
10
5.02747
20
-4.04954
11
5.02945
21
-4.04423
0
LINE
8
BLACK
6
CONTINUOUS
10
5.02945
20
-4.04423
11
5.0297
21
-4.04188
0
LINE
8
BLACK
6
CONTINUOUS
10
5.0297
20
-4.04188
11
5.0297
21
-3.97812
0
LINE
8
BLACK
6
CONTINUOUS
10
5.0297
20
-3.97812
11
5.02945
21
-3.97577
0
LINE
8
BLACK
6
CONTINUOUS
10
5.02945
20
-3.97577
11
5.02748
21
-3.97047
0
LINE
8
BLACK
6
CONTINUOUS
10
5.02748
20
-3.97047
11
5.02747
21
-3.97046
0
LINE
8
BLACK
6
CONTINUOUS
10
5.02747
20
-3.97046
11
5.02747
21
-3.97046
0
LINE
8
BLACK
6
CONTINUOUS
10
5.02747
20
-3.97046
11
5.02409
21
-3.96594
0
LINE
8
BLACK
6
CONTINUOUS
10
5.02409
20
-3.96594
11
5.02408
21
-3.96592
0
LINE
8
BLACK
6
CONTINUOUS
10
5.02408
20
-3.96592
11
5.02138
21
-3.96391
0
LINE
8
BLACK
6
CONTINUOUS
10
5.02138
20
-3.96391
11
5.01974
21
-3.96171
0
LINE
8
BLACK
6
CONTINUOUS
10
5.01974
20
-3.96171
11
5.01954
21
-3.95896
0
LINE
8
BLACK
6
CONTINUOUS
10
5.01954
20
-3.95896
11
5.02086
21
-3.95655
0
LINE
8
BLACK
6
CONTINUOUS
10
5.02086
20
-3.95655
11
5.02138
21
-3.95609
0
LINE
8
BLACK
6
CONTINUOUS
10
5.02138
20
-3.95609
11
5.02408
21
-3.95408
0
LINE
8
BLACK
6
CONTINUOUS
10
5.02408
20
-3.95408
11
5.02747
21
-3.94954
0
LINE
8
BLACK
6
CONTINUOUS
10
5.02747
20
-3.94954
11
5.02945
21
-3.94423
0
LINE
8
BLACK
6
CONTINUOUS
10
5.02945
20
-3.94423
11
5.0297
21
-3.94188
0
LINE
8
BLACK
6
CONTINUOUS
10
5.0297
20
-3.94188
11
5.0297
21
-3.87812
0
LINE
8
BLACK
6
CONTINUOUS
10
5.0297
20
-3.87812
11
5.02945
21
-3.87577
0
LINE
8
BLACK
6
CONTINUOUS
10
5.02945
20
-3.87577
11
5.02748
21
-3.87047
0
LINE
8
BLACK
6
CONTINUOUS
10
5.02748
20
-3.87047
11
5.02747
21
-3.87046
0
LINE
8
BLACK
6
CONTINUOUS
10
5.02747
20
-3.87046
11
5.02747
21
-3.87046
0
LINE
8
BLACK
6
CONTINUOUS
10
5.02747
20
-3.87046
11
5.02408
21
-3.86592
0
LINE
8
BLACK
6
CONTINUOUS
10
5.02408
20
-3.86592
11
5.02408
21
-3.86592
0
LINE
8
BLACK
6
CONTINUOUS
10
5.02408
20
-3.86592
11
5.01954
21
-3.86253
0
LINE
8
BLACK
6
CONTINUOUS
10
5.01954
20
-3.86253
11
5.01954
21
-3.86253
0
LINE
8
BLACK
6
CONTINUOUS
10
5.01954
20
-3.86253
11
5.01423
21
-3.86055
0
LINE
8
BLACK
6
CONTINUOUS
10
5.01423
20
-3.86055
11
5.01423
21
-3.86055
0
LINE
8
BLACK
6
CONTINUOUS
10
5.01423
20
-3.86055
11
5.01189
21
-3.8603
0
LINE
8
BLACK
6
CONTINUOUS
10
5.01189
20
-3.8603
11
5.01189
21
-3.8603
0
LINE
8
BLACK
6
CONTINUOUS
10
5.01189
20
-3.8603
11
5.01188
21
-3.8603
0
LINE
8
BLACK
6
CONTINUOUS
10
5.01188
20
-3.8603
11
5.01188
21
-3.8603
0
LINE
8
BLACK
6
CONTINUOUS
10
5.01188
20
-3.8603
11
4.94812
21
-3.8603
0
LINE
8
BLACK
6
CONTINUOUS
10
4.94812
20
-3.8603
11
4.94812
21
-3.8603
0
LINE
8
BLACK
6
CONTINUOUS
10
4.94812
20
-3.8603
11
4.94577
21
-3.86055
0
LINE
8
BLACK
6
CONTINUOUS
10
4.94577
20
-3.86055
11
4.94046
21
-3.86253
0
LINE
8
BLACK
6
CONTINUOUS
10
4.94046
20
-3.86253
11
4.94046
21
-3.86253
0
LINE
8
BLACK
6
CONTINUOUS
10
4.94046
20
-3.86253
11
4.93592
21
-3.86592
0
LINE
8
BLACK
6
CONTINUOUS
10
4.93592
20
-3.86592
11
4.93391
21
-3.86862
0
LINE
8
BLACK
6
CONTINUOUS
10
4.93391
20
-3.86862
11
4.93171
21
-3.87026
0
LINE
8
BLACK
6
CONTINUOUS
10
4.93171
20
-3.87026
11
4.92896
21
-3.87046
0
LINE
8
BLACK
6
CONTINUOUS
10
4.92896
20
-3.87046
11
4.92655
21
-3.86914
0
LINE
8
BLACK
6
CONTINUOUS
10
4.92655
20
-3.86914
11
4.92609
21
-3.86862
0
LINE
8
BLACK
6
CONTINUOUS
10
4.92609
20
-3.86862
11
4.92552
21
-3.86785
0
LINE
8
BLACK
6
CONTINUOUS
10
4.92552
20
-3.86785
11
4.92408
21
-3.86592
0
LINE
8
BLACK
6
CONTINUOUS
10
4.92408
20
-3.86592
11
4.92408
21
-3.86592
0
LINE
8
BLACK
6
CONTINUOUS
10
4.92408
20
-3.86592
11
4.92408
21
-3.86592
0
LINE
8
BLACK
6
CONTINUOUS
10
4.92408
20
-3.86592
11
4.91954
21
-3.86253
0
LINE
8
BLACK
6
CONTINUOUS
10
4.91954
20
-3.86253
11
4.91954
21
-3.86253
0
LINE
8
BLACK
6
CONTINUOUS
10
4.91954
20
-3.86253
11
4.91423
21
-3.86055
0
LINE
8
BLACK
6
CONTINUOUS
10
4.91423
20
-3.86055
11
4.91423
21
-3.86055
0
LINE
8
BLACK
6
CONTINUOUS
10
4.91423
20
-3.86055
11
4.91189
21
-3.8603
0
LINE
8
BLACK
6
CONTINUOUS
10
4.91189
20
-3.8603
11
4.91189
21
-3.8603
0
LINE
8
BLACK
6
CONTINUOUS
10
4.91189
20
-3.8603
11
4.91188
21
-3.8603
0
LINE
8
BLACK
6
CONTINUOUS
10
4.91188
20
-3.8603
11
4.91188
21
-3.8603
0
LINE
8
BLACK
6
CONTINUOUS
10
4.91188
20
-3.8603
11
4.84812
21
-3.8603
0
LINE
8
BLACK
6
CONTINUOUS
10
4.84812
20
-3.8603
11
4.84812
21
-3.8603
0
LINE
8
BLACK
6
CONTINUOUS
10
5.31031
20
-4.50984
11
5.31031
21
-4.53188
0
LINE
8
BLACK
6
CONTINUOUS
10
5.31031
20
-4.53188
11
5.31057
21
-4.53423
0
LINE
8
BLACK
6
CONTINUOUS
10
5.31057
20
-4.53423
11
5.31057
21
-4.53423
0
LINE
8
BLACK
6
CONTINUOUS
10
5.31057
20
-4.53423
11
5.31255
21
-4.53953
0
LINE
8
BLACK
6
CONTINUOUS
10
5.31255
20
-4.53953
11
5.31255
21
-4.53953
0
LINE
8
BLACK
6
CONTINUOUS
10
5.31255
20
-4.53953
11
5.31594
21
-4.54406
0
LINE
8
BLACK
6
CONTINUOUS
10
5.31594
20
-4.54406
11
5.31594
21
-4.54406
0
LINE
8
BLACK
6
CONTINUOUS
10
5.31594
20
-4.54406
11
5.32047
21
-4.54745
0
LINE
8
BLACK
6
CONTINUOUS
10
5.32047
20
-4.54745
11
5.32047
21
-4.54745
0
LINE
8
BLACK
6
CONTINUOUS
10
5.32047
20
-4.54745
11
5.32577
21
-4.54943
0
LINE
8
BLACK
6
CONTINUOUS
10
5.32577
20
-4.54943
11
5.32577
21
-4.54943
0
LINE
8
BLACK
6
CONTINUOUS
10
5.32577
20
-4.54943
11
5.32812
21
-4.54969
0
LINE
8
BLACK
6
CONTINUOUS
10
5.32812
20
-4.54969
11
5.32812
21
-4.54969
0
LINE
8
BLACK
6
CONTINUOUS
10
5.32812
20
-4.54969
11
5.35016
21
-4.54969
0
LINE
8
BLACK
6
CONTINUOUS
10
5.35016
20
-4.54969
11
5.35016
21
-4.53
0
LINE
8
BLACK
6
CONTINUOUS
10
5.35016
20
-4.53
11
5.33
21
-4.53
0
LINE
8
BLACK
6
CONTINUOUS
10
5.33
20
-4.53
11
5.33
21
-4.50984
0
LINE
8
BLACK
6
CONTINUOUS
10
5.33
20
-4.50984
11
5.31031
21
-4.50984
0
LINE
8
BLACK
6
CONTINUOUS
10
5.59
20
-4.53
11
5.56984
21
-4.53
0
LINE
8
BLACK
6
CONTINUOUS
10
5.56984
20
-4.53
11
5.56984
21
-4.54969
0
LINE
8
BLACK
6
CONTINUOUS
10
5.56984
20
-4.54969
11
5.59188
21
-4.54969
0
LINE
8
BLACK
6
CONTINUOUS
10
5.59188
20
-4.54969
11
5.59188
21
-4.54969
0
LINE
8
BLACK
6
CONTINUOUS
10
5.59188
20
-4.54969
11
5.59423
21
-4.54943
0
LINE
8
BLACK
6
CONTINUOUS
10
5.59423
20
-4.54943
11
5.59423
21
-4.54943
0
LINE
8
BLACK
6
CONTINUOUS
10
5.59423
20
-4.54943
11
5.59953
21
-4.54745
0
LINE
8
BLACK
6
CONTINUOUS
10
5.59953
20
-4.54745
11
5.59953
21
-4.54745
0
LINE
8
BLACK
6
CONTINUOUS
10
5.59953
20
-4.54745
11
5.60406
21
-4.54406
0
LINE
8
BLACK
6
CONTINUOUS
10
5.60406
20
-4.54406
11
5.60406
21
-4.54406
0
LINE
8
BLACK
6
CONTINUOUS
10
5.60406
20
-4.54406
11
5.60745
21
-4.53953
0
LINE
8
BLACK
6
CONTINUOUS
10
5.60745
20
-4.53953
11
5.60745
21
-4.53953
0
LINE
8
BLACK
6
CONTINUOUS
10
5.60745
20
-4.53953
11
5.60943
21
-4.53423
0
LINE
8
BLACK
6
CONTINUOUS
10
5.60943
20
-4.53423
11
5.60943
21
-4.53423
0
LINE
8
BLACK
6
CONTINUOUS
10
5.60943
20
-4.53423
11
5.60968
21
-4.53188
0
LINE
8
BLACK
6
CONTINUOUS
10
5.60968
20
-4.53188
11
5.60969
21
-4.53188
0
LINE
8
BLACK
6
CONTINUOUS
10
5.60969
20
-4.53188
11
5.60969
21
-4.50984
0
LINE
8
BLACK
6
CONTINUOUS
10
5.60969
20
-4.50984
11
5.59
21
-4.50984
0
LINE
8
BLACK
6
CONTINUOUS
10
5.59
20
-4.50984
11
5.59
21
-4.53
0
LINE
8
BLACK
6
CONTINUOUS
10
5.59
20
-4.43
11
5.56984
21
-4.43
0
LINE
8
BLACK
6
CONTINUOUS
10
5.56984
20
-4.43
11
5.56984
21
-4.47
0
LINE
8
BLACK
6
CONTINUOUS
10
5.56984
20
-4.47
11
5.59
21
-4.47
0
LINE
8
BLACK
6
CONTINUOUS
10
5.59
20
-4.47
11
5.59
21
-4.49016
0
LINE
8
BLACK
6
CONTINUOUS
10
5.59
20
-4.49016
11
5.60969
21
-4.49016
0
LINE
8
BLACK
6
CONTINUOUS
10
5.60969
20
-4.49016
11
5.60969
21
-4.46812
0
LINE
8
BLACK
6
CONTINUOUS
10
5.60969
20
-4.46812
11
5.60968
21
-4.46812
0
LINE
8
BLACK
6
CONTINUOUS
10
5.60968
20
-4.46812
11
5.60943
21
-4.46577
0
LINE
8
BLACK
6
CONTINUOUS
10
5.60943
20
-4.46577
11
5.60943
21
-4.46577
0
LINE
8
BLACK
6
CONTINUOUS
10
5.60943
20
-4.46577
11
5.60745
21
-4.46047
0
LINE
8
BLACK
6
CONTINUOUS
10
5.60745
20
-4.46047
11
5.60745
21
-4.46047
0
LINE
8
BLACK
6
CONTINUOUS
10
5.60745
20
-4.46047
11
5.60406
21
-4.45594
0
LINE
8
BLACK
6
CONTINUOUS
10
5.60406
20
-4.45594
11
5.60135
21
-4.45391
0
LINE
8
BLACK
6
CONTINUOUS
10
5.60135
20
-4.45391
11
5.5997
21
-4.45171
0
LINE
8
BLACK
6
CONTINUOUS
10
5.5997
20
-4.45171
11
5.59951
21
-4.44896
0
LINE
8
BLACK
6
CONTINUOUS
10
5.59951
20
-4.44896
11
5.60083
21
-4.44655
0
LINE
8
BLACK
6
CONTINUOUS
10
5.60083
20
-4.44655
11
5.60135
21
-4.44609
0
LINE
8
BLACK
6
CONTINUOUS
10
5.60135
20
-4.44609
11
5.60406
21
-4.44406
0
LINE
8
BLACK
6
CONTINUOUS
10
5.60406
20
-4.44406
11
5.60745
21
-4.43953
0
LINE
8
BLACK
6
CONTINUOUS
10
5.60745
20
-4.43953
11
5.60745
21
-4.43953
0
LINE
8
BLACK
6
CONTINUOUS
10
5.60745
20
-4.43953
11
5.60943
21
-4.43423
0
LINE
8
BLACK
6
CONTINUOUS
10
5.60943
20
-4.43423
11
5.60943
21
-4.43423
0
LINE
8
BLACK
6
CONTINUOUS
10
5.60943
20
-4.43423
11
5.60968
21
-4.43188
0
LINE
8
BLACK
6
CONTINUOUS
10
5.60968
20
-4.43188
11
5.60969
21
-4.43188
0
LINE
8
BLACK
6
CONTINUOUS
10
5.60969
20
-4.43188
11
5.60969
21
-4.40984
0
LINE
8
BLACK
6
CONTINUOUS
10
5.60969
20
-4.40984
11
5.59
21
-4.40984
0
LINE
8
BLACK
6
CONTINUOUS
10
5.59
20
-4.40984
11
5.59
21
-4.43
0
LINE
8
BLACK
6
CONTINUOUS
10
5.56984
20
-4.37
11
5.59
21
-4.37
0
LINE
8
BLACK
6
CONTINUOUS
10
5.59
20
-4.37
11
5.59
21
-4.39016
0
LINE
8
BLACK
6
CONTINUOUS
10
5.59
20
-4.39016
11
5.60969
21
-4.39016
0
LINE
8
BLACK
6
CONTINUOUS
10
5.60969
20
-4.39016
11
5.60969
21
-4.36812
0
LINE
8
BLACK
6
CONTINUOUS
10
5.60969
20
-4.36812
11
5.60968
21
-4.36812
0
LINE
8
BLACK
6
CONTINUOUS
10
5.60968
20
-4.36812
11
5.60943
21
-4.36577
0
LINE
8
BLACK
6
CONTINUOUS
10
5.60943
20
-4.36577
11
5.60943
21
-4.36577
0
LINE
8
BLACK
6
CONTINUOUS
10
5.60943
20
-4.36577
11
5.60745
21
-4.36047
0
LINE
8
BLACK
6
CONTINUOUS
10
5.60745
20
-4.36047
11
5.60745
21
-4.36047
0
LINE
8
BLACK
6
CONTINUOUS
10
5.60745
20
-4.36047
11
5.60406
21
-4.35594
0
LINE
8
BLACK
6
CONTINUOUS
10
5.60406
20
-4.35594
11
5.60406
21
-4.35594
0
LINE
8
BLACK
6
CONTINUOUS
10
5.60406
20
-4.35594
11
5.59953
21
-4.35255
0
LINE
8
BLACK
6
CONTINUOUS
10
5.59953
20
-4.35255
11
5.59953
21
-4.35255
0
LINE
8
BLACK
6
CONTINUOUS
10
5.59953
20
-4.35255
11
5.59423
21
-4.35057
0
LINE
8
BLACK
6
CONTINUOUS
10
5.59423
20
-4.35057
11
5.59423
21
-4.35057
0
LINE
8
BLACK
6
CONTINUOUS
10
5.59423
20
-4.35057
11
5.59188
21
-4.35031
0
LINE
8
BLACK
6
CONTINUOUS
10
5.59188
20
-4.35031
11
5.56984
21
-4.35031
0
LINE
8
BLACK
6
CONTINUOUS
10
5.56984
20
-4.35031
11
5.56984
21
-4.37
0
LINE
8
BLACK
6
CONTINUOUS
10
5.55362
20
-4.30535
11
5.55387
21
-4.30769
0
LINE
8
BLACK
6
CONTINUOUS
10
5.55387
20
-4.30769
11
5.55387
21
-4.30769
0
LINE
8
BLACK
6
CONTINUOUS
10
5.55387
20
-4.30769
11
5.55585
21
-4.313
0
LINE
8
BLACK
6
CONTINUOUS
10
5.55585
20
-4.313
11
5.55585
21
-4.313
0
LINE
8
BLACK
6
CONTINUOUS
10
5.55585
20
-4.313
11
5.55924
21
-4.31753
0
LINE
8
BLACK
6
CONTINUOUS
10
5.55924
20
-4.31753
11
5.55924
21
-4.31753
0
LINE
8
BLACK
6
CONTINUOUS
10
5.55924
20
-4.31753
11
5.56378
21
-4.32092
0
LINE
8
BLACK
6
CONTINUOUS
10
5.56378
20
-4.32092
11
5.56378
21
-4.32092
0
LINE
8
BLACK
6
CONTINUOUS
10
5.56378
20
-4.32092
11
5.56908
21
-4.3229
0
LINE
8
BLACK
6
CONTINUOUS
10
5.56908
20
-4.3229
11
5.56908
21
-4.3229
0
LINE
8
BLACK
6
CONTINUOUS
10
5.56908
20
-4.3229
11
5.57142
21
-4.32315
0
LINE
8
BLACK
6
CONTINUOUS
10
5.57142
20
-4.32315
11
5.57142
21
-4.32315
0
LINE
8
BLACK
6
CONTINUOUS
10
5.57142
20
-4.32315
11
5.58906
21
-4.32315
0
LINE
8
BLACK
6
CONTINUOUS
10
5.58906
20
-4.32315
11
5.58906
21
-4.30346
0
LINE
8
BLACK
6
CONTINUOUS
10
5.58906
20
-4.30346
11
5.57331
21
-4.30346
0
LINE
8
BLACK
6
CONTINUOUS
10
5.57331
20
-4.30346
11
5.57331
21
-4.27984
0
LINE
8
BLACK
6
CONTINUOUS
10
5.57331
20
-4.27984
11
5.55362
21
-4.27984
0
LINE
8
BLACK
6
CONTINUOUS
10
5.55362
20
-4.27984
11
5.55362
21
-4.30535
0
LINE
8
BLACK
6
CONTINUOUS
10
5.62449
20
-4.30346
11
5.60874
21
-4.30346
0
LINE
8
BLACK
6
CONTINUOUS
10
5.60874
20
-4.30346
11
5.60874
21
-4.32315
0
LINE
8
BLACK
6
CONTINUOUS
10
5.60874
20
-4.32315
11
5.62637
21
-4.32315
0
LINE
8
BLACK
6
CONTINUOUS
10
5.62637
20
-4.32315
11
5.62637
21
-4.32315
0
LINE
8
BLACK
6
CONTINUOUS
10
5.62637
20
-4.32315
11
5.62872
21
-4.3229
0
LINE
8
BLACK
6
CONTINUOUS
10
5.62872
20
-4.3229
11
5.62872
21
-4.3229
0
LINE
8
BLACK
6
CONTINUOUS
10
5.62872
20
-4.3229
11
5.63402
21
-4.32092
0
LINE
8
BLACK
6
CONTINUOUS
10
5.63402
20
-4.32092
11
5.63402
21
-4.32092
0
LINE
8
BLACK
6
CONTINUOUS
10
5.63402
20
-4.32092
11
5.63855
21
-4.31753
0
LINE
8
BLACK
6
CONTINUOUS
10
5.63855
20
-4.31753
11
5.63855
21
-4.31753
0
LINE
8
BLACK
6
CONTINUOUS
10
5.63855
20
-4.31753
11
5.64194
21
-4.313
0
LINE
8
BLACK
6
CONTINUOUS
10
5.64194
20
-4.313
11
5.64194
21
-4.313
0
LINE
8
BLACK
6
CONTINUOUS
10
5.64194
20
-4.313
11
5.64392
21
-4.30769
0
LINE
8
BLACK
6
CONTINUOUS
10
5.64392
20
-4.30769
11
5.64392
21
-4.30769
0
LINE
8
BLACK
6
CONTINUOUS
10
5.64392
20
-4.30769
11
5.64417
21
-4.30535
0
LINE
8
BLACK
6
CONTINUOUS
10
5.64417
20
-4.30535
11
5.64417
21
-4.30535
0
LINE
8
BLACK
6
CONTINUOUS
10
5.64417
20
-4.30535
11
5.64417
21
-4.27984
0
LINE
8
BLACK
6
CONTINUOUS
10
5.64417
20
-4.27984
11
5.62449
21
-4.27984
0
LINE
8
BLACK
6
CONTINUOUS
10
5.62449
20
-4.27984
11
5.62449
21
-4.30346
0
LINE
8
BLACK
6
CONTINUOUS
10
5.60874
20
-4.23654
11
5.62449
21
-4.23654
0
LINE
8
BLACK
6
CONTINUOUS
10
5.62449
20
-4.23654
11
5.62449
21
-4.26016
0
LINE
8
BLACK
6
CONTINUOUS
10
5.62449
20
-4.26016
11
5.64417
21
-4.26016
0
LINE
8
BLACK
6
CONTINUOUS
10
5.64417
20
-4.26016
11
5.64417
21
-4.23465
0
LINE
8
BLACK
6
CONTINUOUS
10
5.64417
20
-4.23465
11
5.64417
21
-4.23465
0
LINE
8
BLACK
6
CONTINUOUS
10
5.64417
20
-4.23465
11
5.64392
21
-4.23231
0
LINE
8
BLACK
6
CONTINUOUS
10
5.64392
20
-4.23231
11
5.64392
21
-4.23231
0
LINE
8
BLACK
6
CONTINUOUS
10
5.64392
20
-4.23231
11
5.64194
21
-4.227
0
LINE
8
BLACK
6
CONTINUOUS
10
5.64194
20
-4.227
11
5.64194
21
-4.227
0
LINE
8
BLACK
6
CONTINUOUS
10
5.64194
20
-4.227
11
5.63855
21
-4.22247
0
LINE
8
BLACK
6
CONTINUOUS
10
5.63855
20
-4.22247
11
5.63855
21
-4.22247
0
LINE
8
BLACK
6
CONTINUOUS
10
5.63855
20
-4.22247
11
5.63402
21
-4.21908
0
LINE
8
BLACK
6
CONTINUOUS
10
5.63402
20
-4.21908
11
5.63402
21
-4.21908
0
LINE
8
BLACK
6
CONTINUOUS
10
5.63402
20
-4.21908
11
5.62872
21
-4.2171
0
LINE
8
BLACK
6
CONTINUOUS
10
5.62872
20
-4.2171
11
5.62872
21
-4.2171
0
LINE
8
BLACK
6
CONTINUOUS
10
5.62872
20
-4.2171
11
5.62637
21
-4.21685
0
LINE
8
BLACK
6
CONTINUOUS
10
5.62637
20
-4.21685
11
5.60874
21
-4.21685
0
LINE
8
BLACK
6
CONTINUOUS
10
5.60874
20
-4.21685
11
5.60874
21
-4.23654
0
LINE
8
BLACK
6
CONTINUOUS
10
4.45722
20
-4.24174
11
4.82895
21
-4.24174
0
LINE
8
BLACK
6
CONTINUOUS
10
4.82895
20
-4.24174
11
4.82895
21
-4.24174
0
LINE
8
BLACK
6
CONTINUOUS
10
4.82895
20
-4.24174
11
4.82895
21
-4.1567
0
LINE
8
BLACK
6
CONTINUOUS
10
4.82895
20
-4.1567
11
4.45722
21
-4.1567
0
LINE
8
BLACK
6
CONTINUOUS
10
4.45722
20
-4.1567
11
4.45722
21
-4.24174
0
LINE
8
BLACK
6
CONTINUOUS
10
5.66565
20
-4.24074
11
5.93054
21
-4.24074
0
LINE
8
BLACK
6
CONTINUOUS
10
5.93054
20
-4.24074
11
5.93054
21
-4.1557
0
LINE
8
BLACK
6
CONTINUOUS
10
5.93054
20
-4.1557
11
5.66565
21
-4.1557
0
LINE
8
BLACK
6
CONTINUOUS
10
5.66565
20
-4.1557
11
5.66565
21
-4.24074
0
LINE
8
BLACK
6
CONTINUOUS
10
5.12031
20
-4.01984
11
5.12031
21
-4.04188
0
LINE
8
BLACK
6
CONTINUOUS
10
5.12031
20
-4.04188
11
5.12057
21
-4.04423
0
LINE
8
BLACK
6
CONTINUOUS
10
5.12057
20
-4.04423
11
5.12057
21
-4.04423
0
LINE
8
BLACK
6
CONTINUOUS
10
5.12057
20
-4.04423
11
5.12255
21
-4.04953
0
LINE
8
BLACK
6
CONTINUOUS
10
5.12255
20
-4.04953
11
5.12255
21
-4.04953
0
LINE
8
BLACK
6
CONTINUOUS
10
5.12255
20
-4.04953
11
5.12594
21
-4.05406
0
LINE
8
BLACK
6
CONTINUOUS
10
5.12594
20
-4.05406
11
5.12594
21
-4.05406
0
LINE
8
BLACK
6
CONTINUOUS
10
5.12594
20
-4.05406
11
5.13047
21
-4.05745
0
LINE
8
BLACK
6
CONTINUOUS
10
5.13047
20
-4.05745
11
5.13047
21
-4.05745
0
LINE
8
BLACK
6
CONTINUOUS
10
5.13047
20
-4.05745
11
5.13577
21
-4.05943
0
LINE
8
BLACK
6
CONTINUOUS
10
5.13577
20
-4.05943
11
5.13577
21
-4.05943
0
LINE
8
BLACK
6
CONTINUOUS
10
5.13577
20
-4.05943
11
5.13812
21
-4.05968
0
LINE
8
BLACK
6
CONTINUOUS
10
5.13812
20
-4.05968
11
5.13812
21
-4.05969
0
LINE
8
BLACK
6
CONTINUOUS
10
5.13812
20
-4.05969
11
5.16016
21
-4.05969
0
LINE
8
BLACK
6
CONTINUOUS
10
5.16016
20
-4.05969
11
5.16016
21
-4.04
0
LINE
8
BLACK
6
CONTINUOUS
10
5.16016
20
-4.04
11
5.14
21
-4.04
0
LINE
8
BLACK
6
CONTINUOUS
10
5.14
20
-4.04
11
5.14
21
-4.01984
0
LINE
8
BLACK
6
CONTINUOUS
10
5.14
20
-4.01984
11
5.12031
21
-4.01984
0
LINE
8
BLACK
6
CONTINUOUS
10
5.6
20
-4.04
11
5.57984
21
-4.04
0
LINE
8
BLACK
6
CONTINUOUS
10
5.57984
20
-4.04
11
5.57984
21
-4.05969
0
LINE
8
BLACK
6
CONTINUOUS
10
5.57984
20
-4.05969
11
5.60188
21
-4.05969
0
LINE
8
BLACK
6
CONTINUOUS
10
5.60188
20
-4.05969
11
5.60188
21
-4.05968
0
LINE
8
BLACK
6
CONTINUOUS
10
5.60188
20
-4.05968
11
5.60423
21
-4.05943
0
LINE
8
BLACK
6
CONTINUOUS
10
5.60423
20
-4.05943
11
5.60423
21
-4.05943
0
LINE
8
BLACK
6
CONTINUOUS
10
5.60423
20
-4.05943
11
5.60953
21
-4.05745
0
LINE
8
BLACK
6
CONTINUOUS
10
5.60953
20
-4.05745
11
5.60953
21
-4.05745
0
LINE
8
BLACK
6
CONTINUOUS
10
5.60953
20
-4.05745
11
5.61406
21
-4.05406
0
LINE
8
BLACK
6
CONTINUOUS
10
5.61406
20
-4.05406
11
5.61406
21
-4.05406
0
LINE
8
BLACK
6
CONTINUOUS
10
5.61406
20
-4.05406
11
5.61745
21
-4.04953
0
LINE
8
BLACK
6
CONTINUOUS
10
5.61745
20
-4.04953
11
5.61745
21
-4.04953
0
LINE
8
BLACK
6
CONTINUOUS
10
5.61745
20
-4.04953
11
5.61943
21
-4.04423
0
LINE
8
BLACK
6
CONTINUOUS
10
5.61943
20
-4.04423
11
5.61943
21
-4.04423
0
LINE
8
BLACK
6
CONTINUOUS
10
5.61943
20
-4.04423
11
5.61968
21
-4.04188
0
LINE
8
BLACK
6
CONTINUOUS
10
5.61968
20
-4.04188
11
5.61969
21
-4.04188
0
LINE
8
BLACK
6
CONTINUOUS
10
5.61969
20
-4.04188
11
5.61969
21
-4.01984
0
LINE
8
BLACK
6
CONTINUOUS
10
5.61969
20
-4.01984
11
5.6
21
-4.01984
0
LINE
8
BLACK
6
CONTINUOUS
10
5.6
20
-4.01984
11
5.6
21
-4.04
0
LINE
8
BLACK
6
CONTINUOUS
10
5.6
20
-3.94
11
5.57984
21
-3.94
0
LINE
8
BLACK
6
CONTINUOUS
10
5.57984
20
-3.94
11
5.57984
21
-3.98
0
LINE
8
BLACK
6
CONTINUOUS
10
5.57984
20
-3.98
11
5.6
21
-3.98
0
LINE
8
BLACK
6
CONTINUOUS
10
5.6
20
-3.98
11
5.6
21
-4.00016
0
LINE
8
BLACK
6
CONTINUOUS
10
5.6
20
-4.00016
11
5.61969
21
-4.00016
0
LINE
8
BLACK
6
CONTINUOUS
10
5.61969
20
-4.00016
11
5.61969
21
-3.97812
0
LINE
8
BLACK
6
CONTINUOUS
10
5.61969
20
-3.97812
11
5.61968
21
-3.97812
0
LINE
8
BLACK
6
CONTINUOUS
10
5.61968
20
-3.97812
11
5.61943
21
-3.97577
0
LINE
8
BLACK
6
CONTINUOUS
10
5.61943
20
-3.97577
11
5.61943
21
-3.97577
0
LINE
8
BLACK
6
CONTINUOUS
10
5.61943
20
-3.97577
11
5.61745
21
-3.97047
0
LINE
8
BLACK
6
CONTINUOUS
10
5.61745
20
-3.97047
11
5.61745
21
-3.97047
0
LINE
8
BLACK
6
CONTINUOUS
10
5.61745
20
-3.97047
11
5.61406
21
-3.96594
0
LINE
8
BLACK
6
CONTINUOUS
10
5.61406
20
-3.96594
11
5.61135
21
-3.96391
0
LINE
8
BLACK
6
CONTINUOUS
10
5.61135
20
-3.96391
11
5.6097
21
-3.96171
0
LINE
8
BLACK
6
CONTINUOUS
10
5.6097
20
-3.96171
11
5.60951
21
-3.95896
0
LINE
8
BLACK
6
CONTINUOUS
10
5.60951
20
-3.95896
11
5.61083
21
-3.95655
0
LINE
8
BLACK
6
CONTINUOUS
10
5.61083
20
-3.95655
11
5.61135
21
-3.95609
0
LINE
8
BLACK
6
CONTINUOUS
10
5.61135
20
-3.95609
11
5.61406
21
-3.95406
0
LINE
8
BLACK
6
CONTINUOUS
10
5.61406
20
-3.95406
11
5.61406
21
-3.95406
0
LINE
8
BLACK
6
CONTINUOUS
10
5.61406
20
-3.95406
11
5.61745
21
-3.94953
0
LINE
8
BLACK
6
CONTINUOUS
10
5.61745
20
-3.94953
11
5.61745
21
-3.94953
0
LINE
8
BLACK
6
CONTINUOUS
10
5.61745
20
-3.94953
11
5.61943
21
-3.94423
0
LINE
8
BLACK
6
CONTINUOUS
10
5.61943
20
-3.94423
11
5.61943
21
-3.94423
0
LINE
8
BLACK
6
CONTINUOUS
10
5.61943
20
-3.94423
11
5.61968
21
-3.94188
0
LINE
8
BLACK
6
CONTINUOUS
10
5.61968
20
-3.94188
11
5.61969
21
-3.94188
0
LINE
8
BLACK
6
CONTINUOUS
10
5.61969
20
-3.94188
11
5.61969
21
-3.91984
0
LINE
8
BLACK
6
CONTINUOUS
10
5.61969
20
-3.91984
11
5.6
21
-3.91984
0
LINE
8
BLACK
6
CONTINUOUS
10
5.6
20
-3.91984
11
5.6
21
-3.94
0
LINE
8
BLACK
6
CONTINUOUS
10
5.12031
20
-3.91984
11
5.12031
21
-3.94188
0
LINE
8
BLACK
6
CONTINUOUS
10
5.12031
20
-3.94188
11
5.12057
21
-3.94423
0
LINE
8
BLACK
6
CONTINUOUS
10
5.12057
20
-3.94423
11
5.12057
21
-3.94423
0
LINE
8
BLACK
6
CONTINUOUS
10
5.12057
20
-3.94423
11
5.12255
21
-3.94953
0
LINE
8
BLACK
6
CONTINUOUS
10
5.12255
20
-3.94953
11
5.12255
21
-3.94953
0
LINE
8
BLACK
6
CONTINUOUS
10
5.12255
20
-3.94953
11
5.12594
21
-3.95406
0
LINE
8
BLACK
6
CONTINUOUS
10
5.12594
20
-3.95406
11
5.12865
21
-3.95609
0
LINE
8
BLACK
6
CONTINUOUS
10
5.12865
20
-3.95609
11
5.1303
21
-3.95829
0
LINE
8
BLACK
6
CONTINUOUS
10
5.1303
20
-3.95829
11
5.13049
21
-3.96104
0
LINE
8
BLACK
6
CONTINUOUS
10
5.13049
20
-3.96104
11
5.12917
21
-3.96345
0
LINE
8
BLACK
6
CONTINUOUS
10
5.12917
20
-3.96345
11
5.12865
21
-3.96391
0
LINE
8
BLACK
6
CONTINUOUS
10
5.12865
20
-3.96391
11
5.12594
21
-3.96594
0
LINE
8
BLACK
6
CONTINUOUS
10
5.12594
20
-3.96594
11
5.12255
21
-3.97047
0
LINE
8
BLACK
6
CONTINUOUS
10
5.12255
20
-3.97047
11
5.12255
21
-3.97047
0
LINE
8
BLACK
6
CONTINUOUS
10
5.12255
20
-3.97047
11
5.12057
21
-3.97577
0
LINE
8
BLACK
6
CONTINUOUS
10
5.12057
20
-3.97577
11
5.12057
21
-3.97577
0
LINE
8
BLACK
6
CONTINUOUS
10
5.12057
20
-3.97577
11
5.12031
21
-3.97812
0
LINE
8
BLACK
6
CONTINUOUS
10
5.12031
20
-3.97812
11
5.12031
21
-4.00016
0
LINE
8
BLACK
6
CONTINUOUS
10
5.12031
20
-4.00016
11
5.14
21
-4.00016
0
LINE
8
BLACK
6
CONTINUOUS
10
5.14
20
-4.00016
11
5.14
21
-3.98
0
LINE
8
BLACK
6
CONTINUOUS
10
5.14
20
-3.98
11
5.16016
21
-3.98
0
LINE
8
BLACK
6
CONTINUOUS
10
5.16016
20
-3.98
11
5.16016
21
-3.94
0
LINE
8
BLACK
6
CONTINUOUS
10
5.16016
20
-3.94
11
5.14
21
-3.94
0
LINE
8
BLACK
6
CONTINUOUS
10
5.14
20
-3.94
11
5.14
21
-3.91984
0
LINE
8
BLACK
6
CONTINUOUS
10
5.14
20
-3.91984
11
5.12031
21
-3.91984
0
LINE
8
BLACK
6
CONTINUOUS
10
5.57984
20
-3.88
11
5.6
21
-3.88
0
LINE
8
BLACK
6
CONTINUOUS
10
5.6
20
-3.88
11
5.6
21
-3.90016
0
LINE
8
BLACK
6
CONTINUOUS
10
5.6
20
-3.90016
11
5.61969
21
-3.90016
0
LINE
8
BLACK
6
CONTINUOUS
10
5.61969
20
-3.90016
11
5.61969
21
-3.87812
0
LINE
8
BLACK
6
CONTINUOUS
10
5.61969
20
-3.87812
11
5.61968
21
-3.87812
0
LINE
8
BLACK
6
CONTINUOUS
10
5.61968
20
-3.87812
11
5.61943
21
-3.87577
0
LINE
8
BLACK
6
CONTINUOUS
10
5.61943
20
-3.87577
11
5.61943
21
-3.87577
0
LINE
8
BLACK
6
CONTINUOUS
10
5.61943
20
-3.87577
11
5.61745
21
-3.87047
0
LINE
8
BLACK
6
CONTINUOUS
10
5.61745
20
-3.87047
11
5.61745
21
-3.87047
0
LINE
8
BLACK
6
CONTINUOUS
10
5.61745
20
-3.87047
11
5.61406
21
-3.86594
0
LINE
8
BLACK
6
CONTINUOUS
10
5.61406
20
-3.86594
11
5.61406
21
-3.86594
0
LINE
8
BLACK
6
CONTINUOUS
10
5.61406
20
-3.86594
11
5.60953
21
-3.86255
0
LINE
8
BLACK
6
CONTINUOUS
10
5.60953
20
-3.86255
11
5.60953
21
-3.86255
0
LINE
8
BLACK
6
CONTINUOUS
10
5.60953
20
-3.86255
11
5.60423
21
-3.86057
0
LINE
8
BLACK
6
CONTINUOUS
10
5.60423
20
-3.86057
11
5.60423
21
-3.86057
0
LINE
8
BLACK
6
CONTINUOUS
10
5.60423
20
-3.86057
11
5.60188
21
-3.86031
0
LINE
8
BLACK
6
CONTINUOUS
10
5.60188
20
-3.86031
11
5.57984
21
-3.86031
0
LINE
8
BLACK
6
CONTINUOUS
10
5.57984
20
-3.86031
11
5.57984
21
-3.88
0
LINE
8
BLACK
6
CONTINUOUS
10
5.13577
20
-3.86057
11
5.13577
21
-3.86057
0
LINE
8
BLACK
6
CONTINUOUS
10
5.13577
20
-3.86057
11
5.13047
21
-3.86255
0
LINE
8
BLACK
6
CONTINUOUS
10
5.13047
20
-3.86255
11
5.13047
21
-3.86255
0
LINE
8
BLACK
6
CONTINUOUS
10
5.13047
20
-3.86255
11
5.12594
21
-3.86594
0
LINE
8
BLACK
6
CONTINUOUS
10
5.12594
20
-3.86594
11
5.12594
21
-3.86594
0
LINE
8
BLACK
6
CONTINUOUS
10
5.12594
20
-3.86594
11
5.12255
21
-3.87047
0
LINE
8
BLACK
6
CONTINUOUS
10
5.12255
20
-3.87047
11
5.12255
21
-3.87047
0
LINE
8
BLACK
6
CONTINUOUS
10
5.12255
20
-3.87047
11
5.12057
21
-3.87577
0
LINE
8
BLACK
6
CONTINUOUS
10
5.12057
20
-3.87577
11
5.12057
21
-3.87577
0
LINE
8
BLACK
6
CONTINUOUS
10
5.12057
20
-3.87577
11
5.12031
21
-3.87812
0
LINE
8
BLACK
6
CONTINUOUS
10
5.12031
20
-3.87812
11
5.12031
21
-3.90016
0
LINE
8
BLACK
6
CONTINUOUS
10
5.12031
20
-3.90016
11
5.14
21
-3.90016
0
LINE
8
BLACK
6
CONTINUOUS
10
5.14
20
-3.90016
11
5.14
21
-3.88
0
LINE
8
BLACK
6
CONTINUOUS
10
5.14
20
-3.88
11
5.16016
21
-3.88
0
LINE
8
BLACK
6
CONTINUOUS
10
5.16016
20
-3.88
11
5.16016
21
-3.86031
0
LINE
8
BLACK
6
CONTINUOUS
10
5.16016
20
-3.86031
11
5.13812
21
-3.86031
0
LINE
8
BLACK
6
CONTINUOUS
10
5.13812
20
-3.86031
11
5.13577
21
-3.86057
0
LINE
8
BLACK
6
CONTINUOUS
10
5.57331
20
-4.26016
11
5.57331
21
-4.23654
0
LINE
8
BLACK
6
CONTINUOUS
10
5.57331
20
-4.23654
11
5.58906
21
-4.23654
0
LINE
8
BLACK
6
CONTINUOUS
10
5.58906
20
-4.23654
11
5.58906
21
-4.21685
0
LINE
8
BLACK
6
CONTINUOUS
10
5.58906
20
-4.21685
11
5.57142
21
-4.21685
0
LINE
8
BLACK
6
CONTINUOUS
10
5.57142
20
-4.21685
11
5.56908
21
-4.2171
0
LINE
8
BLACK
6
CONTINUOUS
10
5.56908
20
-4.2171
11
5.56908
21
-4.2171
0
LINE
8
BLACK
6
CONTINUOUS
10
5.56908
20
-4.2171
11
5.56378
21
-4.21908
0
LINE
8
BLACK
6
CONTINUOUS
10
5.56378
20
-4.21908
11
5.56378
21
-4.21908
0
LINE
8
BLACK
6
CONTINUOUS
10
5.56378
20
-4.21908
11
5.55924
21
-4.22247
0
LINE
8
BLACK
6
CONTINUOUS
10
5.55924
20
-4.22247
11
5.55924
21
-4.22247
0
LINE
8
BLACK
6
CONTINUOUS
10
5.55924
20
-4.22247
11
5.55585
21
-4.227
0
LINE
8
BLACK
6
CONTINUOUS
10
5.55585
20
-4.227
11
5.55585
21
-4.227
0
LINE
8
BLACK
6
CONTINUOUS
10
5.55585
20
-4.227
11
5.55387
21
-4.23231
0
LINE
8
BLACK
6
CONTINUOUS
10
5.55387
20
-4.23231
11
5.55387
21
-4.23231
0
LINE
8
BLACK
6
CONTINUOUS
10
5.55387
20
-4.23231
11
5.55362
21
-4.23465
0
LINE
8
BLACK
6
CONTINUOUS
10
5.55362
20
-4.23465
11
5.55362
21
-4.26016
0
LINE
8
BLACK
6
CONTINUOUS
10
5.55362
20
-4.26016
11
5.57331
21
-4.26016
0
CIRCLE
8
BLACK
10
5.57
20
-3.91
40
0.00688976
0
CIRCLE
8
BLACK
10
5.57
20
-4.01
40
0.00688976
0
CIRCLE
8
BLACK
10
5.47
20
-3.91
40
0.00688976
0
CIRCLE
8
BLACK
10
5.47
20
-4.01
40
0.00688976
0
CIRCLE
8
BLACK
10
5.37
20
-3.91
40
0.00688976
0
CIRCLE
8
BLACK
10
5.37
20
-4.01
40
0.00688976
0
CIRCLE
8
BLACK
10
5.27
20
-3.91
40
0.00688976
0
CIRCLE
8
BLACK
10
5.27
20
-4.01
40
0.00688976
0
CIRCLE
8
BLACK
10
5.17
20
-3.91
40
0.00688976
0
CIRCLE
8
BLACK
10
5.17
20
-4.01
40
0.00688976
0
CIRCLE
8
BLACK
10
4.98
20
-3.91
40
0.00688976
0
CIRCLE
8
BLACK
10
4.98
20
-4.01
40
0.00688976
0
CIRCLE
8
BLACK
10
4.88
20
-3.91
40
0.00688976
0
CIRCLE
8
BLACK
10
4.88
20
-4.01
40
0.00688976
0
CIRCLE
8
BLACK
10
5.8
20
-4.4
40
0.00688976
0
CIRCLE
8
BLACK
10
4.6
20
-4
40
0.00688976
0
CIRCLE
8
BLACK
10
5.36
20
-4.5
40
0.00688976
0
CIRCLE
8
BLACK
10
5.36
20
-4.4
40
0.00688976
0
CIRCLE
8
BLACK
10
5.46
20
-4.5
40
0.00688976
0
CIRCLE
8
BLACK
10
5.46
20
-4.4
40
0.00688976
0
CIRCLE
8
BLACK
10
5.56
20
-4.5
40
0.00688976
0
CIRCLE
8
BLACK
10
5.56
20
-4.4
40
0.00688976
0
CIRCLE
8
BLACK
10
5.8
20
-4
40
0.00688976
0
CIRCLE
8
BLACK
10
4.6
20
-4.4
40
0.00688976
0
CIRCLE
8
BLACK
10
5.46
20
-4.21
40
0.00787402
0
CIRCLE
8
BLACK
10
5.04218
20
-4.35
40
0.00787402
0
CIRCLE
8
BLACK
10
5.01
20
-4.52
40
0.00787402
0
CIRCLE
8
BLACK
10
5.25
20
-4.19
40
0.00787402
0
CIRCLE
8
BLACK
10
5.29
20
-4.19
40
0.00787402
0
CIRCLE
8
BLACK
10
5.37
20
-4.19
40
0.00787402
0
CIRCLE
8
BLACK
10
5.62
20
-4.2
40
0.00787402
0
CIRCLE
8
BLACK
10
5.01
20
-4.44
40
0.00787402
0
CIRCLE
8
BLACK
10
5.33
20
-4.19
40
0.00787402
0
CIRCLE
8
BLACK
10
5.66
20
-4.28
40
0.00787402
0
CIRCLE
8
BLACK
10
5.09
20
-4.35
40
0.00787402
0
CIRCLE
8
BLACK
10
5.01
20
-4.48
40
0.00787402
0
CIRCLE
8
BLACK
10
5.58
20
-4.2
40
0.00787402
  0
ENDSEC
  0
EOF
