  0
SECTION
  2
HEADER
  9
$ANGBASE
  50
0.0
  9
$ANGDIR
  70
1
  9
$MEASUREMENT
  70
0
  0
ENDSEC
  0
SECTION
  2
TABLES
  0
TABLE
  2
LTYPE
  70
4
  0
LTYPE
  5
40F
  2
CONTINUOUS
  70
0
  3
Solid line
  72
65
  73
0
  40
0.0
  0
LTYPE
  5
410
  2
DASHDOT
 70
0
  3
Dash Dot ____ _ ____ _
 72
65
 73
4
 40
2.0
 49
1.25
 49
-0.25
 49
0.25
 49
-0.25
  0
LTYPE
  5
411
  2
DASHED
 70
0
  3
Dashed __ __ __ __ __
 72
65
 73
2
 40
0.75
 49
0.5
 49
-0.25
  0
LTYPE
  5
43B
  2
DOTTED
 70
0
  3
Dotted .  .  .  .
 72
65
 73
2
 40
0.2
 49
0.0
 49
-0.2
  0
ENDTAB
  0
TABLE
  2
STYLE
  70
4
  0
STYLE
  2
KICAD
  70
0
  40
0
  41
1
  42
1
  50
0
  71
0
  3
isocp.shx
  0
STYLE
  2
KICADB
  70
0
  40
0
  41
1
  42
1
  50
0
  71
0
  3
isocp.shx
  0
STYLE
  2
KICADI
  70
0
  40
0
  41
1
  42
1
  50
15
  71
0
  3
isocp.shx
  0
STYLE
  2
KICADBI
  70
0
  40
0
  41
1
  42
1
  50
15
  71
0
  3
isocp.shx
  0
ENDTAB
  0
TABLE
  2
LAYER
  70
1
  0
LAYER
  2
BLACK
  70
0
  62
7
  6
CONTINUOUS
  0
ENDTAB
  0
ENDSEC
  0
SECTION
  2
ENTITIES
0
LINE
8
BLACK
6
CONTINUOUS
10
5.10875
20
-4.51991
11
5.10846
21
-4.51921
0
LINE
8
BLACK
6
CONTINUOUS
10
5.10846
20
-4.51921
11
5.10846
21
-4.42079
0
LINE
8
BLACK
6
CONTINUOUS
10
5.10846
20
-4.42079
11
5.10875
21
-4.42009
0
LINE
8
BLACK
6
CONTINUOUS
10
5.10875
20
-4.42009
11
5.10945
21
-4.4198
0
LINE
8
BLACK
6
CONTINUOUS
10
5.10945
20
-4.4198
11
5.29055
21
-4.4198
0
LINE
8
BLACK
6
CONTINUOUS
10
5.29055
20
-4.4198
11
5.29125
21
-4.42009
0
LINE
8
BLACK
6
CONTINUOUS
10
5.29125
20
-4.42009
11
5.29154
21
-4.42079
0
LINE
8
BLACK
6
CONTINUOUS
10
5.29154
20
-4.42079
11
5.29154
21
-4.51921
0
LINE
8
BLACK
6
CONTINUOUS
10
5.29154
20
-4.51921
11
5.29125
21
-4.51991
0
LINE
8
BLACK
6
CONTINUOUS
10
5.29125
20
-4.51991
11
5.29055
21
-4.5202
0
LINE
8
BLACK
6
CONTINUOUS
10
5.29055
20
-4.5202
11
5.10945
21
-4.5202
0
LINE
8
BLACK
6
CONTINUOUS
10
5.10945
20
-4.5202
11
5.10875
21
-4.51991
0
LINE
8
BLACK
6
CONTINUOUS
10
5.11043
20
-4.42177
11
5.11043
21
-4.51823
0
LINE
8
BLACK
6
CONTINUOUS
10
5.11043
20
-4.51823
11
5.28957
21
-4.51823
0
LINE
8
BLACK
6
CONTINUOUS
10
5.28957
20
-4.51823
11
5.28957
21
-4.42177
0
LINE
8
BLACK
6
CONTINUOUS
10
5.28957
20
-4.42177
11
5.11043
21
-4.42177
0
LINE
8
BLACK
6
CONTINUOUS
10
5.21072
20
-4.38022
11
5.21043
21
-4.37953
0
LINE
8
BLACK
6
CONTINUOUS
10
5.21043
20
-4.37953
11
5.21043
21
-4.24567
0
LINE
8
BLACK
6
CONTINUOUS
10
5.21043
20
-4.24567
11
5.21072
21
-4.24497
0
LINE
8
BLACK
6
CONTINUOUS
10
5.21072
20
-4.24497
11
5.21142
21
-4.24469
0
LINE
8
BLACK
6
CONTINUOUS
10
5.21142
20
-4.24469
11
5.28858
21
-4.24469
0
LINE
8
BLACK
6
CONTINUOUS
10
5.28858
20
-4.24469
11
5.28928
21
-4.24497
0
LINE
8
BLACK
6
CONTINUOUS
10
5.28928
20
-4.24497
11
5.28957
21
-4.24567
0
LINE
8
BLACK
6
CONTINUOUS
10
5.28957
20
-4.24567
11
5.28957
21
-4.37953
0
LINE
8
BLACK
6
CONTINUOUS
10
5.28957
20
-4.37953
11
5.28928
21
-4.38022
0
LINE
8
BLACK
6
CONTINUOUS
10
5.28928
20
-4.38022
11
5.28858
21
-4.38051
0
LINE
8
BLACK
6
CONTINUOUS
10
5.28858
20
-4.38051
11
5.21142
21
-4.38051
0
LINE
8
BLACK
6
CONTINUOUS
10
5.21142
20
-4.38051
11
5.21072
21
-4.38022
0
LINE
8
BLACK
6
CONTINUOUS
10
5.2124
20
-4.24665
11
5.2124
21
-4.37854
0
LINE
8
BLACK
6
CONTINUOUS
10
5.2124
20
-4.37854
11
5.2876
21
-4.37854
0
LINE
8
BLACK
6
CONTINUOUS
10
5.2876
20
-4.37854
11
5.2876
21
-4.24665
0
LINE
8
BLACK
6
CONTINUOUS
10
5.2876
20
-4.24665
11
5.2124
21
-4.24665
0
LINE
8
BLACK
6
CONTINUOUS
10
5.30072
20
-4.38022
11
5.30043
21
-4.37953
0
LINE
8
BLACK
6
CONTINUOUS
10
5.30043
20
-4.37953
11
5.30043
21
-4.24567
0
LINE
8
BLACK
6
CONTINUOUS
10
5.30043
20
-4.24567
11
5.30072
21
-4.24497
0
LINE
8
BLACK
6
CONTINUOUS
10
5.30072
20
-4.24497
11
5.30142
21
-4.24469
0
LINE
8
BLACK
6
CONTINUOUS
10
5.30142
20
-4.24469
11
5.37858
21
-4.24469
0
LINE
8
BLACK
6
CONTINUOUS
10
5.37858
20
-4.24469
11
5.37928
21
-4.24497
0
LINE
8
BLACK
6
CONTINUOUS
10
5.37928
20
-4.24497
11
5.37957
21
-4.24567
0
LINE
8
BLACK
6
CONTINUOUS
10
5.37957
20
-4.24567
11
5.37957
21
-4.37953
0
LINE
8
BLACK
6
CONTINUOUS
10
5.37957
20
-4.37953
11
5.37928
21
-4.38022
0
LINE
8
BLACK
6
CONTINUOUS
10
5.37928
20
-4.38022
11
5.37858
21
-4.38051
0
LINE
8
BLACK
6
CONTINUOUS
10
5.37858
20
-4.38051
11
5.30142
21
-4.38051
0
LINE
8
BLACK
6
CONTINUOUS
10
5.30142
20
-4.38051
11
5.30072
21
-4.38022
0
LINE
8
BLACK
6
CONTINUOUS
10
5.3024
20
-4.24665
11
5.3024
21
-4.37854
0
LINE
8
BLACK
6
CONTINUOUS
10
5.3024
20
-4.37854
11
5.3776
21
-4.37854
0
LINE
8
BLACK
6
CONTINUOUS
10
5.3776
20
-4.37854
11
5.3776
21
-4.24665
0
LINE
8
BLACK
6
CONTINUOUS
10
5.3776
20
-4.24665
11
5.3024
21
-4.24665
0
LINE
8
BLACK
6
CONTINUOUS
10
5.42497
20
-4.314
11
5.42469
21
-4.31331
0
LINE
8
BLACK
6
CONTINUOUS
10
5.42469
20
-4.31331
11
5.42469
21
-4.22669
0
LINE
8
BLACK
6
CONTINUOUS
10
5.42469
20
-4.22669
11
5.42497
21
-4.226
0
LINE
8
BLACK
6
CONTINUOUS
10
5.42497
20
-4.226
11
5.42567
21
-4.22571
0
LINE
8
BLACK
6
CONTINUOUS
10
5.42567
20
-4.22571
11
5.63433
21
-4.22571
0
LINE
8
BLACK
6
CONTINUOUS
10
5.63433
20
-4.22571
11
5.63503
21
-4.226
0
LINE
8
BLACK
6
CONTINUOUS
10
5.63503
20
-4.226
11
5.63531
21
-4.22669
0
LINE
8
BLACK
6
CONTINUOUS
10
5.63531
20
-4.22669
11
5.63531
21
-4.31331
0
LINE
8
BLACK
6
CONTINUOUS
10
5.63531
20
-4.31331
11
5.63503
21
-4.314
0
LINE
8
BLACK
6
CONTINUOUS
10
5.63503
20
-4.314
11
5.63433
21
-4.31429
0
LINE
8
BLACK
6
CONTINUOUS
10
5.63433
20
-4.31429
11
5.42567
21
-4.31429
0
LINE
8
BLACK
6
CONTINUOUS
10
5.42567
20
-4.31429
11
5.42497
21
-4.314
0
LINE
8
BLACK
6
CONTINUOUS
10
5.42665
20
-4.22768
11
5.42665
21
-4.31232
0
LINE
8
BLACK
6
CONTINUOUS
10
5.42665
20
-4.31232
11
5.63335
21
-4.31232
0
LINE
8
BLACK
6
CONTINUOUS
10
5.63335
20
-4.31232
11
5.63335
21
-4.22768
0
LINE
8
BLACK
6
CONTINUOUS
10
5.63335
20
-4.22768
11
5.42665
21
-4.22768
0
LINE
8
BLACK
6
CONTINUOUS
10
5.22316
20
-4.1481
11
5.22287
21
-4.1474
0
LINE
8
BLACK
6
CONTINUOUS
10
5.22287
20
-4.1474
11
5.22287
21
-4.0726
0
LINE
8
BLACK
6
CONTINUOUS
10
5.22287
20
-4.0726
11
5.22316
21
-4.0719
0
LINE
8
BLACK
6
CONTINUOUS
10
5.22316
20
-4.0719
11
5.22386
21
-4.07161
0
LINE
8
BLACK
6
CONTINUOUS
10
5.22386
20
-4.07161
11
5.35614
21
-4.07161
0
LINE
8
BLACK
6
CONTINUOUS
10
5.35614
20
-4.07161
11
5.35684
21
-4.0719
0
LINE
8
BLACK
6
CONTINUOUS
10
5.35684
20
-4.0719
11
5.35713
21
-4.0726
0
LINE
8
BLACK
6
CONTINUOUS
10
5.35713
20
-4.0726
11
5.35713
21
-4.1474
0
LINE
8
BLACK
6
CONTINUOUS
10
5.35713
20
-4.1474
11
5.35684
21
-4.1481
0
LINE
8
BLACK
6
CONTINUOUS
10
5.35684
20
-4.1481
11
5.35614
21
-4.14839
0
LINE
8
BLACK
6
CONTINUOUS
10
5.35614
20
-4.14839
11
5.22386
21
-4.14839
0
LINE
8
BLACK
6
CONTINUOUS
10
5.22386
20
-4.14839
11
5.22316
21
-4.1481
0
LINE
8
BLACK
6
CONTINUOUS
10
5.22484
20
-4.07358
11
5.22484
21
-4.14642
0
LINE
8
BLACK
6
CONTINUOUS
10
5.22484
20
-4.14642
11
5.35516
21
-4.14642
0
LINE
8
BLACK
6
CONTINUOUS
10
5.35516
20
-4.14642
11
5.35516
21
-4.07358
0
LINE
8
BLACK
6
CONTINUOUS
10
5.35516
20
-4.07358
11
5.22484
21
-4.07358
0
LINE
8
BLACK
6
CONTINUOUS
10
5.38316
20
-4.1481
11
5.38287
21
-4.1474
0
LINE
8
BLACK
6
CONTINUOUS
10
5.38287
20
-4.1474
11
5.38287
21
-4.0726
0
LINE
8
BLACK
6
CONTINUOUS
10
5.38287
20
-4.0726
11
5.38316
21
-4.0719
0
LINE
8
BLACK
6
CONTINUOUS
10
5.38316
20
-4.0719
11
5.38386
21
-4.07161
0
LINE
8
BLACK
6
CONTINUOUS
10
5.38386
20
-4.07161
11
5.51614
21
-4.07161
0
LINE
8
BLACK
6
CONTINUOUS
10
5.51614
20
-4.07161
11
5.51684
21
-4.0719
0
LINE
8
BLACK
6
CONTINUOUS
10
5.51684
20
-4.0719
11
5.51713
21
-4.0726
0
LINE
8
BLACK
6
CONTINUOUS
10
5.51713
20
-4.0726
11
5.51713
21
-4.1474
0
LINE
8
BLACK
6
CONTINUOUS
10
5.51713
20
-4.1474
11
5.51684
21
-4.1481
0
LINE
8
BLACK
6
CONTINUOUS
10
5.51684
20
-4.1481
11
5.51614
21
-4.14839
0
LINE
8
BLACK
6
CONTINUOUS
10
5.51614
20
-4.14839
11
5.38386
21
-4.14839
0
LINE
8
BLACK
6
CONTINUOUS
10
5.38386
20
-4.14839
11
5.38316
21
-4.1481
0
LINE
8
BLACK
6
CONTINUOUS
10
5.38484
20
-4.07358
11
5.38484
21
-4.14642
0
LINE
8
BLACK
6
CONTINUOUS
10
5.38484
20
-4.14642
11
5.51516
21
-4.14642
0
LINE
8
BLACK
6
CONTINUOUS
10
5.51516
20
-4.14642
11
5.51516
21
-4.07358
0
LINE
8
BLACK
6
CONTINUOUS
10
5.51516
20
-4.07358
11
5.38484
21
-4.07358
  0
ENDSEC
  0
EOF
