  0
SECTION
  2
HEADER
  9
$ANGBASE
  50
0.0
  9
$ANGDIR
  70
1
  9
$MEASUREMENT
  70
0
  0
ENDSEC
  0
SECTION
  2
TABLES
  0
TABLE
  2
LTYPE
  70
4
  0
LTYPE
  5
40F
  2
CONTINUOUS
  70
0
  3
Solid line
  72
65
  73
0
  40
0.0
  0
LTYPE
  5
410
  2
DASHDOT
 70
0
  3
Dash Dot ____ _ ____ _
 72
65
 73
4
 40
2.0
 49
1.25
 49
-0.25
 49
0.25
 49
-0.25
  0
LTYPE
  5
411
  2
DASHED
 70
0
  3
Dashed __ __ __ __ __
 72
65
 73
2
 40
0.75
 49
0.5
 49
-0.25
  0
LTYPE
  5
43B
  2
DOTTED
 70
0
  3
Dotted .  .  .  .
 72
65
 73
2
 40
0.2
 49
0.0
 49
-0.2
  0
ENDTAB
  0
TABLE
  2
STYLE
  70
4
  0
STYLE
  2
KICAD
  70
0
  40
0
  41
1
  42
1
  50
0
  71
0
  3
isocp.shx
  0
STYLE
  2
KICADB
  70
0
  40
0
  41
1
  42
1
  50
0
  71
0
  3
isocp.shx
  0
STYLE
  2
KICADI
  70
0
  40
0
  41
1
  42
1
  50
15
  71
0
  3
isocp.shx
  0
STYLE
  2
KICADBI
  70
0
  40
0
  41
1
  42
1
  50
15
  71
0
  3
isocp.shx
  0
ENDTAB
  0
TABLE
  2
LAYER
  70
1
  0
LAYER
  2
BLACK
  70
0
  62
7
  6
CONTINUOUS
  0
ENDTAB
  0
ENDSEC
  0
SECTION
  2
ENTITIES
0
LINE
8
BLACK
6
CONTINUOUS
10
5.77098
20
-4.55359
11
5.77112
21
-4.55371
0
LINE
8
BLACK
6
CONTINUOUS
10
5.77112
20
-4.55371
11
5.77129
21
-4.55373
0
LINE
8
BLACK
6
CONTINUOUS
10
5.77129
20
-4.55373
11
5.77201
21
-4.55409
0
LINE
8
BLACK
6
CONTINUOUS
10
5.77201
20
-4.55409
11
5.77224
21
-4.55381
0
LINE
8
BLACK
6
CONTINUOUS
10
5.77224
20
-4.55381
11
5.77423
21
-4.55346
0
LINE
8
BLACK
6
CONTINUOUS
10
5.77423
20
-4.55346
11
5.77598
21
-4.55447
0
LINE
8
BLACK
6
CONTINUOUS
10
5.77598
20
-4.55447
11
5.77667
21
-4.55637
0
LINE
8
BLACK
6
CONTINUOUS
10
5.77667
20
-4.55637
11
5.77667
21
-4.58824
0
LINE
8
BLACK
6
CONTINUOUS
10
5.77667
20
-4.58824
11
5.77649
21
-4.58925
0
LINE
8
BLACK
6
CONTINUOUS
10
5.77649
20
-4.58925
11
5.77638
21
-4.58938
0
LINE
8
BLACK
6
CONTINUOUS
10
5.77638
20
-4.58938
11
5.77636
21
-4.58956
0
LINE
8
BLACK
6
CONTINUOUS
10
5.77636
20
-4.58956
11
5.77449
21
-4.59331
0
LINE
8
BLACK
6
CONTINUOUS
10
5.77449
20
-4.59331
11
5.77396
21
-4.59402
0
LINE
8
BLACK
6
CONTINUOUS
10
5.77396
20
-4.59402
11
5.77393
21
-4.59408
0
LINE
8
BLACK
6
CONTINUOUS
10
5.77393
20
-4.59408
11
5.77206
21
-4.59595
0
LINE
8
BLACK
6
CONTINUOUS
10
5.77206
20
-4.59595
11
5.77133
21
-4.59646
0
LINE
8
BLACK
6
CONTINUOUS
10
5.77133
20
-4.59646
11
5.77129
21
-4.5965
0
LINE
8
BLACK
6
CONTINUOUS
10
5.77129
20
-4.5965
11
5.76754
21
-4.59838
0
LINE
8
BLACK
6
CONTINUOUS
10
5.76754
20
-4.59838
11
5.76656
21
-4.59867
0
LINE
8
BLACK
6
CONTINUOUS
10
5.76656
20
-4.59867
11
5.76639
21
-4.59863
0
LINE
8
BLACK
6
CONTINUOUS
10
5.76639
20
-4.59863
11
5.76622
21
-4.59869
0
LINE
8
BLACK
6
CONTINUOUS
10
5.76622
20
-4.59869
11
5.7606
21
-4.59869
0
LINE
8
BLACK
6
CONTINUOUS
10
5.7606
20
-4.59869
11
5.75959
21
-4.59851
0
LINE
8
BLACK
6
CONTINUOUS
10
5.75959
20
-4.59851
11
5.75945
21
-4.5984
0
LINE
8
BLACK
6
CONTINUOUS
10
5.75945
20
-4.5984
11
5.75928
21
-4.59838
0
LINE
8
BLACK
6
CONTINUOUS
10
5.75928
20
-4.59838
11
5.75553
21
-4.5965
0
LINE
8
BLACK
6
CONTINUOUS
10
5.75553
20
-4.5965
11
5.7547
21
-4.59589
0
LINE
8
BLACK
6
CONTINUOUS
10
5.7547
20
-4.59589
11
5.7539
21
-4.59404
0
LINE
8
BLACK
6
CONTINUOUS
10
5.7539
20
-4.59404
11
5.75448
21
-4.5921
0
LINE
8
BLACK
6
CONTINUOUS
10
5.75448
20
-4.5921
11
5.75616
21
-4.59099
0
LINE
8
BLACK
6
CONTINUOUS
10
5.75616
20
-4.59099
11
5.75817
21
-4.59122
0
LINE
8
BLACK
6
CONTINUOUS
10
5.75817
20
-4.59122
11
5.76129
21
-4.59278
0
LINE
8
BLACK
6
CONTINUOUS
10
5.76129
20
-4.59278
11
5.76552
21
-4.59278
0
LINE
8
BLACK
6
CONTINUOUS
10
5.76552
20
-4.59278
11
5.76822
21
-4.59144
0
LINE
8
BLACK
6
CONTINUOUS
10
5.76822
20
-4.59144
11
5.76942
21
-4.59024
0
LINE
8
BLACK
6
CONTINUOUS
10
5.76942
20
-4.59024
11
5.77077
21
-4.58754
0
LINE
8
BLACK
6
CONTINUOUS
10
5.77077
20
-4.58754
11
5.77077
21
-4.58541
0
LINE
8
BLACK
6
CONTINUOUS
10
5.77077
20
-4.58541
11
5.77031
21
-4.58555
0
LINE
8
BLACK
6
CONTINUOUS
10
5.77031
20
-4.58555
11
5.77014
21
-4.58551
0
LINE
8
BLACK
6
CONTINUOUS
10
5.77014
20
-4.58551
11
5.76997
21
-4.58557
0
LINE
8
BLACK
6
CONTINUOUS
10
5.76997
20
-4.58557
11
5.76247
21
-4.58557
0
LINE
8
BLACK
6
CONTINUOUS
10
5.76247
20
-4.58557
11
5.76146
21
-4.58539
0
LINE
8
BLACK
6
CONTINUOUS
10
5.76146
20
-4.58539
11
5.76133
21
-4.58527
0
LINE
8
BLACK
6
CONTINUOUS
10
5.76133
20
-4.58527
11
5.76115
21
-4.58525
0
LINE
8
BLACK
6
CONTINUOUS
10
5.76115
20
-4.58525
11
5.7574
21
-4.58338
0
LINE
8
BLACK
6
CONTINUOUS
10
5.7574
20
-4.58338
11
5.75669
21
-4.58285
0
LINE
8
BLACK
6
CONTINUOUS
10
5.75669
20
-4.58285
11
5.75663
21
-4.58283
0
LINE
8
BLACK
6
CONTINUOUS
10
5.75663
20
-4.58283
11
5.75476
21
-4.58095
0
LINE
8
BLACK
6
CONTINUOUS
10
5.75476
20
-4.58095
11
5.75425
21
-4.58023
0
LINE
8
BLACK
6
CONTINUOUS
10
5.75425
20
-4.58023
11
5.75421
21
-4.58018
0
LINE
8
BLACK
6
CONTINUOUS
10
5.75421
20
-4.58018
11
5.75233
21
-4.57643
0
LINE
8
BLACK
6
CONTINUOUS
10
5.75233
20
-4.57643
11
5.75204
21
-4.57545
0
LINE
8
BLACK
6
CONTINUOUS
10
5.75204
20
-4.57545
11
5.75208
21
-4.57528
0
LINE
8
BLACK
6
CONTINUOUS
10
5.75208
20
-4.57528
11
5.75202
21
-4.57511
0
LINE
8
BLACK
6
CONTINUOUS
10
5.75202
20
-4.57511
11
5.75202
21
-4.56387
0
LINE
8
BLACK
6
CONTINUOUS
10
5.75202
20
-4.56387
11
5.7522
21
-4.56286
0
LINE
8
BLACK
6
CONTINUOUS
10
5.7522
20
-4.56286
11
5.75231
21
-4.56272
0
LINE
8
BLACK
6
CONTINUOUS
10
5.75231
20
-4.56272
11
5.75233
21
-4.56255
0
LINE
8
BLACK
6
CONTINUOUS
10
5.75233
20
-4.56255
11
5.75421
21
-4.5588
0
LINE
8
BLACK
6
CONTINUOUS
10
5.75421
20
-4.5588
11
5.75473
21
-4.55809
0
LINE
8
BLACK
6
CONTINUOUS
10
5.75473
20
-4.55809
11
5.75476
21
-4.55803
0
LINE
8
BLACK
6
CONTINUOUS
10
5.75476
20
-4.55803
11
5.75663
21
-4.55615
0
LINE
8
BLACK
6
CONTINUOUS
10
5.75663
20
-4.55615
11
5.75736
21
-4.55565
0
LINE
8
BLACK
6
CONTINUOUS
10
5.75736
20
-4.55565
11
5.7574
21
-4.5556
0
LINE
8
BLACK
6
CONTINUOUS
10
5.7574
20
-4.5556
11
5.76115
21
-4.55373
0
LINE
8
BLACK
6
CONTINUOUS
10
5.76115
20
-4.55373
11
5.76213
21
-4.55343
0
LINE
8
BLACK
6
CONTINUOUS
10
5.76213
20
-4.55343
11
5.7623
21
-4.55347
0
LINE
8
BLACK
6
CONTINUOUS
10
5.7623
20
-4.55347
11
5.76247
21
-4.55341
0
LINE
8
BLACK
6
CONTINUOUS
10
5.76247
20
-4.55341
11
5.76997
21
-4.55341
0
LINE
8
BLACK
6
CONTINUOUS
10
5.76997
20
-4.55341
11
5.77098
21
-4.55359
0
LINE
8
BLACK
6
CONTINUOUS
10
5.76317
20
-4.55932
11
5.76047
21
-4.56067
0
LINE
8
BLACK
6
CONTINUOUS
10
5.76047
20
-4.56067
11
5.75927
21
-4.56187
0
LINE
8
BLACK
6
CONTINUOUS
10
5.75927
20
-4.56187
11
5.75792
21
-4.56456
0
LINE
8
BLACK
6
CONTINUOUS
10
5.75792
20
-4.56456
11
5.75792
21
-4.57442
0
LINE
8
BLACK
6
CONTINUOUS
10
5.75792
20
-4.57442
11
5.75927
21
-4.57711
0
LINE
8
BLACK
6
CONTINUOUS
10
5.75927
20
-4.57711
11
5.76047
21
-4.57831
0
LINE
8
BLACK
6
CONTINUOUS
10
5.76047
20
-4.57831
11
5.76317
21
-4.57966
0
LINE
8
BLACK
6
CONTINUOUS
10
5.76317
20
-4.57966
11
5.76927
21
-4.57966
0
LINE
8
BLACK
6
CONTINUOUS
10
5.76927
20
-4.57966
11
5.77077
21
-4.57891
0
LINE
8
BLACK
6
CONTINUOUS
10
5.77077
20
-4.57891
11
5.77077
21
-4.56007
0
LINE
8
BLACK
6
CONTINUOUS
10
5.77077
20
-4.56007
11
5.76927
21
-4.55932
0
LINE
8
BLACK
6
CONTINUOUS
10
5.76927
20
-4.55932
11
5.76317
21
-4.55932
0
LINE
8
BLACK
6
CONTINUOUS
10
5.49036
20
-4.54135
11
5.49105
21
-4.54324
0
LINE
8
BLACK
6
CONTINUOUS
10
5.49105
20
-4.54324
11
5.49105
21
-4.55341
0
LINE
8
BLACK
6
CONTINUOUS
10
5.49105
20
-4.55341
11
5.49438
21
-4.55341
0
LINE
8
BLACK
6
CONTINUOUS
10
5.49438
20
-4.55341
11
5.49539
21
-4.55359
0
LINE
8
BLACK
6
CONTINUOUS
10
5.49539
20
-4.55359
11
5.49552
21
-4.55371
0
LINE
8
BLACK
6
CONTINUOUS
10
5.49552
20
-4.55371
11
5.4957
21
-4.55373
0
LINE
8
BLACK
6
CONTINUOUS
10
5.4957
20
-4.55373
11
5.49945
21
-4.5556
0
LINE
8
BLACK
6
CONTINUOUS
10
5.49945
20
-4.5556
11
5.50027
21
-4.55621
0
LINE
8
BLACK
6
CONTINUOUS
10
5.50027
20
-4.55621
11
5.50045
21
-4.55662
0
LINE
8
BLACK
6
CONTINUOUS
10
5.50045
20
-4.55662
11
5.50077
21
-4.55692
0
LINE
8
BLACK
6
CONTINUOUS
10
5.50077
20
-4.55692
11
5.50264
21
-4.56067
0
LINE
8
BLACK
6
CONTINUOUS
10
5.50264
20
-4.56067
11
5.50288
21
-4.56145
0
LINE
8
BLACK
6
CONTINUOUS
10
5.50288
20
-4.56145
11
5.50421
21
-4.5588
0
LINE
8
BLACK
6
CONTINUOUS
10
5.50421
20
-4.5588
11
5.50473
21
-4.55809
0
LINE
8
BLACK
6
CONTINUOUS
10
5.50473
20
-4.55809
11
5.50476
21
-4.55803
0
LINE
8
BLACK
6
CONTINUOUS
10
5.50476
20
-4.55803
11
5.50663
21
-4.55615
0
LINE
8
BLACK
6
CONTINUOUS
10
5.50663
20
-4.55615
11
5.50736
21
-4.55565
0
LINE
8
BLACK
6
CONTINUOUS
10
5.50736
20
-4.55565
11
5.5074
21
-4.5556
0
LINE
8
BLACK
6
CONTINUOUS
10
5.5074
20
-4.5556
11
5.51115
21
-4.55373
0
LINE
8
BLACK
6
CONTINUOUS
10
5.51115
20
-4.55373
11
5.51213
21
-4.55343
0
LINE
8
BLACK
6
CONTINUOUS
10
5.51213
20
-4.55343
11
5.5123
21
-4.55347
0
LINE
8
BLACK
6
CONTINUOUS
10
5.5123
20
-4.55347
11
5.51247
21
-4.55341
0
LINE
8
BLACK
6
CONTINUOUS
10
5.51247
20
-4.55341
11
5.51997
21
-4.55341
0
LINE
8
BLACK
6
CONTINUOUS
10
5.51997
20
-4.55341
11
5.52098
21
-4.55359
0
LINE
8
BLACK
6
CONTINUOUS
10
5.52098
20
-4.55359
11
5.52112
21
-4.55371
0
LINE
8
BLACK
6
CONTINUOUS
10
5.52112
20
-4.55371
11
5.52129
21
-4.55373
0
LINE
8
BLACK
6
CONTINUOUS
10
5.52129
20
-4.55373
11
5.52201
21
-4.55409
0
LINE
8
BLACK
6
CONTINUOUS
10
5.52201
20
-4.55409
11
5.52224
21
-4.55381
0
LINE
8
BLACK
6
CONTINUOUS
10
5.52224
20
-4.55381
11
5.52354
21
-4.55358
0
LINE
8
BLACK
6
CONTINUOUS
10
5.52354
20
-4.55358
11
5.52404
21
-4.55343
0
LINE
8
BLACK
6
CONTINUOUS
10
5.52404
20
-4.55343
11
5.52418
21
-4.55347
0
LINE
8
BLACK
6
CONTINUOUS
10
5.52418
20
-4.55347
11
5.52423
21
-4.55346
0
LINE
8
BLACK
6
CONTINUOUS
10
5.52423
20
-4.55346
11
5.52424
21
-4.55346
0
LINE
8
BLACK
6
CONTINUOUS
10
5.52424
20
-4.55346
11
5.52438
21
-4.55341
0
LINE
8
BLACK
6
CONTINUOUS
10
5.52438
20
-4.55341
11
5.52813
21
-4.55341
0
LINE
8
BLACK
6
CONTINUOUS
10
5.52813
20
-4.55341
11
5.52914
21
-4.55359
0
LINE
8
BLACK
6
CONTINUOUS
10
5.52914
20
-4.55359
11
5.53068
21
-4.55489
0
LINE
8
BLACK
6
CONTINUOUS
10
5.53068
20
-4.55489
11
5.53103
21
-4.55688
0
LINE
8
BLACK
6
CONTINUOUS
10
5.53103
20
-4.55688
11
5.53002
21
-4.55863
0
LINE
8
BLACK
6
CONTINUOUS
10
5.53002
20
-4.55863
11
5.52813
21
-4.55932
0
LINE
8
BLACK
6
CONTINUOUS
10
5.52813
20
-4.55932
11
5.52667
21
-4.55932
0
LINE
8
BLACK
6
CONTINUOUS
10
5.52667
20
-4.55932
11
5.52667
21
-4.58824
0
LINE
8
BLACK
6
CONTINUOUS
10
5.52667
20
-4.58824
11
5.52649
21
-4.58925
0
LINE
8
BLACK
6
CONTINUOUS
10
5.52649
20
-4.58925
11
5.52638
21
-4.58938
0
LINE
8
BLACK
6
CONTINUOUS
10
5.52638
20
-4.58938
11
5.52636
21
-4.58956
0
LINE
8
BLACK
6
CONTINUOUS
10
5.52636
20
-4.58956
11
5.52449
21
-4.59331
0
LINE
8
BLACK
6
CONTINUOUS
10
5.52449
20
-4.59331
11
5.52396
21
-4.59402
0
LINE
8
BLACK
6
CONTINUOUS
10
5.52396
20
-4.59402
11
5.52393
21
-4.59408
0
LINE
8
BLACK
6
CONTINUOUS
10
5.52393
20
-4.59408
11
5.52206
21
-4.59595
0
LINE
8
BLACK
6
CONTINUOUS
10
5.52206
20
-4.59595
11
5.52133
21
-4.59646
0
LINE
8
BLACK
6
CONTINUOUS
10
5.52133
20
-4.59646
11
5.52129
21
-4.5965
0
LINE
8
BLACK
6
CONTINUOUS
10
5.52129
20
-4.5965
11
5.51754
21
-4.59838
0
LINE
8
BLACK
6
CONTINUOUS
10
5.51754
20
-4.59838
11
5.51656
21
-4.59867
0
LINE
8
BLACK
6
CONTINUOUS
10
5.51656
20
-4.59867
11
5.51639
21
-4.59863
0
LINE
8
BLACK
6
CONTINUOUS
10
5.51639
20
-4.59863
11
5.51622
21
-4.59869
0
LINE
8
BLACK
6
CONTINUOUS
10
5.51622
20
-4.59869
11
5.5106
21
-4.59869
0
LINE
8
BLACK
6
CONTINUOUS
10
5.5106
20
-4.59869
11
5.50959
21
-4.59851
0
LINE
8
BLACK
6
CONTINUOUS
10
5.50959
20
-4.59851
11
5.50945
21
-4.5984
0
LINE
8
BLACK
6
CONTINUOUS
10
5.50945
20
-4.5984
11
5.50928
21
-4.59838
0
LINE
8
BLACK
6
CONTINUOUS
10
5.50928
20
-4.59838
11
5.50553
21
-4.5965
0
LINE
8
BLACK
6
CONTINUOUS
10
5.50553
20
-4.5965
11
5.5047
21
-4.59589
0
LINE
8
BLACK
6
CONTINUOUS
10
5.5047
20
-4.59589
11
5.5039
21
-4.59404
0
LINE
8
BLACK
6
CONTINUOUS
10
5.5039
20
-4.59404
11
5.50448
21
-4.5921
0
LINE
8
BLACK
6
CONTINUOUS
10
5.50448
20
-4.5921
11
5.50616
21
-4.59099
0
LINE
8
BLACK
6
CONTINUOUS
10
5.50616
20
-4.59099
11
5.50817
21
-4.59122
0
LINE
8
BLACK
6
CONTINUOUS
10
5.50817
20
-4.59122
11
5.51129
21
-4.59278
0
LINE
8
BLACK
6
CONTINUOUS
10
5.51129
20
-4.59278
11
5.51552
21
-4.59278
0
LINE
8
BLACK
6
CONTINUOUS
10
5.51552
20
-4.59278
11
5.51822
21
-4.59144
0
LINE
8
BLACK
6
CONTINUOUS
10
5.51822
20
-4.59144
11
5.51942
21
-4.59024
0
LINE
8
BLACK
6
CONTINUOUS
10
5.51942
20
-4.59024
11
5.52077
21
-4.58754
0
LINE
8
BLACK
6
CONTINUOUS
10
5.52077
20
-4.58754
11
5.52077
21
-4.58541
0
LINE
8
BLACK
6
CONTINUOUS
10
5.52077
20
-4.58541
11
5.52031
21
-4.58555
0
LINE
8
BLACK
6
CONTINUOUS
10
5.52031
20
-4.58555
11
5.52014
21
-4.58551
0
LINE
8
BLACK
6
CONTINUOUS
10
5.52014
20
-4.58551
11
5.51997
21
-4.58557
0
LINE
8
BLACK
6
CONTINUOUS
10
5.51997
20
-4.58557
11
5.51247
21
-4.58557
0
LINE
8
BLACK
6
CONTINUOUS
10
5.51247
20
-4.58557
11
5.51146
21
-4.58539
0
LINE
8
BLACK
6
CONTINUOUS
10
5.51146
20
-4.58539
11
5.51133
21
-4.58527
0
LINE
8
BLACK
6
CONTINUOUS
10
5.51133
20
-4.58527
11
5.51115
21
-4.58525
0
LINE
8
BLACK
6
CONTINUOUS
10
5.51115
20
-4.58525
11
5.5074
21
-4.58338
0
LINE
8
BLACK
6
CONTINUOUS
10
5.5074
20
-4.58338
11
5.50669
21
-4.58285
0
LINE
8
BLACK
6
CONTINUOUS
10
5.50669
20
-4.58285
11
5.50663
21
-4.58283
0
LINE
8
BLACK
6
CONTINUOUS
10
5.50663
20
-4.58283
11
5.50476
21
-4.58095
0
LINE
8
BLACK
6
CONTINUOUS
10
5.50476
20
-4.58095
11
5.50425
21
-4.58023
0
LINE
8
BLACK
6
CONTINUOUS
10
5.50425
20
-4.58023
11
5.50421
21
-4.58018
0
LINE
8
BLACK
6
CONTINUOUS
10
5.50421
20
-4.58018
11
5.50233
21
-4.57643
0
LINE
8
BLACK
6
CONTINUOUS
10
5.50233
20
-4.57643
11
5.50204
21
-4.57545
0
LINE
8
BLACK
6
CONTINUOUS
10
5.50204
20
-4.57545
11
5.50208
21
-4.57528
0
LINE
8
BLACK
6
CONTINUOUS
10
5.50208
20
-4.57528
11
5.50202
21
-4.57511
0
LINE
8
BLACK
6
CONTINUOUS
10
5.50202
20
-4.57511
11
5.50202
21
-4.56776
0
LINE
8
BLACK
6
CONTINUOUS
10
5.50202
20
-4.56776
11
5.50184
21
-4.56787
0
LINE
8
BLACK
6
CONTINUOUS
10
5.50184
20
-4.56787
11
5.50148
21
-4.5683
0
LINE
8
BLACK
6
CONTINUOUS
10
5.50148
20
-4.5683
11
5.501
21
-4.56838
0
LINE
8
BLACK
6
CONTINUOUS
10
5.501
20
-4.56838
11
5.50058
21
-4.56864
0
LINE
8
BLACK
6
CONTINUOUS
10
5.50058
20
-4.56864
11
5.49105
21
-4.57054
0
LINE
8
BLACK
6
CONTINUOUS
10
5.49105
20
-4.57054
11
5.49105
21
-4.57966
0
LINE
8
BLACK
6
CONTINUOUS
10
5.49105
20
-4.57966
11
5.49368
21
-4.57966
0
LINE
8
BLACK
6
CONTINUOUS
10
5.49368
20
-4.57966
11
5.49681
21
-4.5781
0
LINE
8
BLACK
6
CONTINUOUS
10
5.49681
20
-4.5781
11
5.49779
21
-4.57781
0
LINE
8
BLACK
6
CONTINUOUS
10
5.49779
20
-4.57781
11
5.49976
21
-4.57827
0
LINE
8
BLACK
6
CONTINUOUS
10
5.49976
20
-4.57827
11
5.50096
21
-4.5799
0
LINE
8
BLACK
6
CONTINUOUS
10
5.50096
20
-4.5799
11
5.50084
21
-4.58191
0
LINE
8
BLACK
6
CONTINUOUS
10
5.50084
20
-4.58191
11
5.49945
21
-4.58338
0
LINE
8
BLACK
6
CONTINUOUS
10
5.49945
20
-4.58338
11
5.4957
21
-4.58525
0
LINE
8
BLACK
6
CONTINUOUS
10
5.4957
20
-4.58525
11
5.49472
21
-4.58555
0
LINE
8
BLACK
6
CONTINUOUS
10
5.49472
20
-4.58555
11
5.49455
21
-4.58551
0
LINE
8
BLACK
6
CONTINUOUS
10
5.49455
20
-4.58551
11
5.49438
21
-4.58557
0
LINE
8
BLACK
6
CONTINUOUS
10
5.49438
20
-4.58557
11
5.48688
21
-4.58557
0
LINE
8
BLACK
6
CONTINUOUS
10
5.48688
20
-4.58557
11
5.48587
21
-4.58539
0
LINE
8
BLACK
6
CONTINUOUS
10
5.48587
20
-4.58539
11
5.48574
21
-4.58527
0
LINE
8
BLACK
6
CONTINUOUS
10
5.48574
20
-4.58527
11
5.48564
21
-4.58526
0
LINE
8
BLACK
6
CONTINUOUS
10
5.48564
20
-4.58526
11
5.48469
21
-4.58555
0
LINE
8
BLACK
6
CONTINUOUS
10
5.48469
20
-4.58555
11
5.48452
21
-4.58551
0
LINE
8
BLACK
6
CONTINUOUS
10
5.48452
20
-4.58551
11
5.48435
21
-4.58557
0
LINE
8
BLACK
6
CONTINUOUS
10
5.48435
20
-4.58557
11
5.47685
21
-4.58557
0
LINE
8
BLACK
6
CONTINUOUS
10
5.47685
20
-4.58557
11
5.47584
21
-4.58539
0
LINE
8
BLACK
6
CONTINUOUS
10
5.47584
20
-4.58539
11
5.47571
21
-4.58527
0
LINE
8
BLACK
6
CONTINUOUS
10
5.47571
20
-4.58527
11
5.47553
21
-4.58525
0
LINE
8
BLACK
6
CONTINUOUS
10
5.47553
20
-4.58525
11
5.47178
21
-4.58338
0
LINE
8
BLACK
6
CONTINUOUS
10
5.47178
20
-4.58338
11
5.47107
21
-4.58285
0
LINE
8
BLACK
6
CONTINUOUS
10
5.47107
20
-4.58285
11
5.47101
21
-4.58283
0
LINE
8
BLACK
6
CONTINUOUS
10
5.47101
20
-4.58283
11
5.46914
21
-4.58095
0
LINE
8
BLACK
6
CONTINUOUS
10
5.46914
20
-4.58095
11
5.46863
21
-4.58023
0
LINE
8
BLACK
6
CONTINUOUS
10
5.46863
20
-4.58023
11
5.46859
21
-4.58018
0
LINE
8
BLACK
6
CONTINUOUS
10
5.46859
20
-4.58018
11
5.4678
21
-4.57862
0
LINE
8
BLACK
6
CONTINUOUS
10
5.4678
20
-4.57862
11
5.46702
21
-4.58018
0
LINE
8
BLACK
6
CONTINUOUS
10
5.46702
20
-4.58018
11
5.4665
21
-4.58089
0
LINE
8
BLACK
6
CONTINUOUS
10
5.4665
20
-4.58089
11
5.46647
21
-4.58095
0
LINE
8
BLACK
6
CONTINUOUS
10
5.46647
20
-4.58095
11
5.4646
21
-4.58283
0
LINE
8
BLACK
6
CONTINUOUS
10
5.4646
20
-4.58283
11
5.46387
21
-4.58333
0
LINE
8
BLACK
6
CONTINUOUS
10
5.46387
20
-4.58333
11
5.46383
21
-4.58338
0
LINE
8
BLACK
6
CONTINUOUS
10
5.46383
20
-4.58338
11
5.46008
21
-4.58525
0
LINE
8
BLACK
6
CONTINUOUS
10
5.46008
20
-4.58525
11
5.4591
21
-4.58555
0
LINE
8
BLACK
6
CONTINUOUS
10
5.4591
20
-4.58555
11
5.45892
21
-4.58551
0
LINE
8
BLACK
6
CONTINUOUS
10
5.45892
20
-4.58551
11
5.45876
21
-4.58557
0
LINE
8
BLACK
6
CONTINUOUS
10
5.45876
20
-4.58557
11
5.45126
21
-4.58557
0
LINE
8
BLACK
6
CONTINUOUS
10
5.45126
20
-4.58557
11
5.45046
21
-4.58543
0
LINE
8
BLACK
6
CONTINUOUS
10
5.45046
20
-4.58543
11
5.45046
21
-4.59574
0
LINE
8
BLACK
6
CONTINUOUS
10
5.45046
20
-4.59574
11
5.45028
21
-4.59675
0
LINE
8
BLACK
6
CONTINUOUS
10
5.45028
20
-4.59675
11
5.44899
21
-4.59829
0
LINE
8
BLACK
6
CONTINUOUS
10
5.44899
20
-4.59829
11
5.447
21
-4.59864
0
LINE
8
BLACK
6
CONTINUOUS
10
5.447
20
-4.59864
11
5.44525
21
-4.59763
0
LINE
8
BLACK
6
CONTINUOUS
10
5.44525
20
-4.59763
11
5.44456
21
-4.59574
0
LINE
8
BLACK
6
CONTINUOUS
10
5.44456
20
-4.59574
11
5.44456
21
-4.55637
0
LINE
8
BLACK
6
CONTINUOUS
10
5.44456
20
-4.55637
11
5.44474
21
-4.55536
0
LINE
8
BLACK
6
CONTINUOUS
10
5.44474
20
-4.55536
11
5.44603
21
-4.55381
0
LINE
8
BLACK
6
CONTINUOUS
10
5.44603
20
-4.55381
11
5.44802
21
-4.55346
0
LINE
8
BLACK
6
CONTINUOUS
10
5.44802
20
-4.55346
11
5.44916
21
-4.55412
0
LINE
8
BLACK
6
CONTINUOUS
10
5.44916
20
-4.55412
11
5.44994
21
-4.55373
0
LINE
8
BLACK
6
CONTINUOUS
10
5.44994
20
-4.55373
11
5.45092
21
-4.55343
0
LINE
8
BLACK
6
CONTINUOUS
10
5.45092
20
-4.55343
11
5.45109
21
-4.55347
0
LINE
8
BLACK
6
CONTINUOUS
10
5.45109
20
-4.55347
11
5.45126
21
-4.55341
0
LINE
8
BLACK
6
CONTINUOUS
10
5.45126
20
-4.55341
11
5.45876
21
-4.55341
0
LINE
8
BLACK
6
CONTINUOUS
10
5.45876
20
-4.55341
11
5.45977
21
-4.55359
0
LINE
8
BLACK
6
CONTINUOUS
10
5.45977
20
-4.55359
11
5.4599
21
-4.55371
0
LINE
8
BLACK
6
CONTINUOUS
10
5.4599
20
-4.55371
11
5.46008
21
-4.55373
0
LINE
8
BLACK
6
CONTINUOUS
10
5.46008
20
-4.55373
11
5.46383
21
-4.5556
0
LINE
8
BLACK
6
CONTINUOUS
10
5.46383
20
-4.5556
11
5.46454
21
-4.55613
0
LINE
8
BLACK
6
CONTINUOUS
10
5.46454
20
-4.55613
11
5.4646
21
-4.55615
0
LINE
8
BLACK
6
CONTINUOUS
10
5.4646
20
-4.55615
11
5.46647
21
-4.55803
0
LINE
8
BLACK
6
CONTINUOUS
10
5.46647
20
-4.55803
11
5.46698
21
-4.55875
0
LINE
8
BLACK
6
CONTINUOUS
10
5.46698
20
-4.55875
11
5.46702
21
-4.5588
0
LINE
8
BLACK
6
CONTINUOUS
10
5.46702
20
-4.5588
11
5.4678
21
-4.56036
0
LINE
8
BLACK
6
CONTINUOUS
10
5.4678
20
-4.56036
11
5.46859
21
-4.5588
0
LINE
8
BLACK
6
CONTINUOUS
10
5.46859
20
-4.5588
11
5.46911
21
-4.55809
0
LINE
8
BLACK
6
CONTINUOUS
10
5.46911
20
-4.55809
11
5.46914
21
-4.55803
0
LINE
8
BLACK
6
CONTINUOUS
10
5.46914
20
-4.55803
11
5.47101
21
-4.55615
0
LINE
8
BLACK
6
CONTINUOUS
10
5.47101
20
-4.55615
11
5.47174
21
-4.55565
0
LINE
8
BLACK
6
CONTINUOUS
10
5.47174
20
-4.55565
11
5.47178
21
-4.5556
0
LINE
8
BLACK
6
CONTINUOUS
10
5.47178
20
-4.5556
11
5.47553
21
-4.55373
0
LINE
8
BLACK
6
CONTINUOUS
10
5.47553
20
-4.55373
11
5.47651
21
-4.55343
0
LINE
8
BLACK
6
CONTINUOUS
10
5.47651
20
-4.55343
11
5.47668
21
-4.55347
0
LINE
8
BLACK
6
CONTINUOUS
10
5.47668
20
-4.55347
11
5.47685
21
-4.55341
0
LINE
8
BLACK
6
CONTINUOUS
10
5.47685
20
-4.55341
11
5.48435
21
-4.55341
0
LINE
8
BLACK
6
CONTINUOUS
10
5.48435
20
-4.55341
11
5.48515
21
-4.55355
0
LINE
8
BLACK
6
CONTINUOUS
10
5.48515
20
-4.55355
11
5.48515
21
-4.54324
0
LINE
8
BLACK
6
CONTINUOUS
10
5.48515
20
-4.54324
11
5.48532
21
-4.54223
0
LINE
8
BLACK
6
CONTINUOUS
10
5.48532
20
-4.54223
11
5.48662
21
-4.54069
0
LINE
8
BLACK
6
CONTINUOUS
10
5.48662
20
-4.54069
11
5.48861
21
-4.54034
0
LINE
8
BLACK
6
CONTINUOUS
10
5.48861
20
-4.54034
11
5.49036
21
-4.54135
0
LINE
8
BLACK
6
CONTINUOUS
10
5.51317
20
-4.55932
11
5.51047
21
-4.56067
0
LINE
8
BLACK
6
CONTINUOUS
10
5.51047
20
-4.56067
11
5.50927
21
-4.56187
0
LINE
8
BLACK
6
CONTINUOUS
10
5.50927
20
-4.56187
11
5.50792
21
-4.56456
0
LINE
8
BLACK
6
CONTINUOUS
10
5.50792
20
-4.56456
11
5.50792
21
-4.57442
0
LINE
8
BLACK
6
CONTINUOUS
10
5.50792
20
-4.57442
11
5.50927
21
-4.57711
0
LINE
8
BLACK
6
CONTINUOUS
10
5.50927
20
-4.57711
11
5.51047
21
-4.57831
0
LINE
8
BLACK
6
CONTINUOUS
10
5.51047
20
-4.57831
11
5.51317
21
-4.57966
0
LINE
8
BLACK
6
CONTINUOUS
10
5.51317
20
-4.57966
11
5.51392
21
-4.57966
0
LINE
8
BLACK
6
CONTINUOUS
10
5.51392
20
-4.57966
11
5.51392
21
-4.55932
0
LINE
8
BLACK
6
CONTINUOUS
10
5.51392
20
-4.55932
11
5.51317
21
-4.55932
0
LINE
8
BLACK
6
CONTINUOUS
10
5.47755
20
-4.55932
11
5.47485
21
-4.56067
0
LINE
8
BLACK
6
CONTINUOUS
10
5.47485
20
-4.56067
11
5.47365
21
-4.56187
0
LINE
8
BLACK
6
CONTINUOUS
10
5.47365
20
-4.56187
11
5.4723
21
-4.56456
0
LINE
8
BLACK
6
CONTINUOUS
10
5.4723
20
-4.56456
11
5.4723
21
-4.57442
0
LINE
8
BLACK
6
CONTINUOUS
10
5.4723
20
-4.57442
11
5.47365
21
-4.57711
0
LINE
8
BLACK
6
CONTINUOUS
10
5.47365
20
-4.57711
11
5.47485
21
-4.57831
0
LINE
8
BLACK
6
CONTINUOUS
10
5.47485
20
-4.57831
11
5.47755
21
-4.57966
0
LINE
8
BLACK
6
CONTINUOUS
10
5.47755
20
-4.57966
11
5.47929
21
-4.57966
0
LINE
8
BLACK
6
CONTINUOUS
10
5.47929
20
-4.57966
11
5.47862
21
-4.57831
0
LINE
8
BLACK
6
CONTINUOUS
10
5.47862
20
-4.57831
11
5.47832
21
-4.57733
0
LINE
8
BLACK
6
CONTINUOUS
10
5.47832
20
-4.57733
11
5.47836
21
-4.57716
0
LINE
8
BLACK
6
CONTINUOUS
10
5.47836
20
-4.57716
11
5.4783
21
-4.57699
0
LINE
8
BLACK
6
CONTINUOUS
10
5.4783
20
-4.57699
11
5.4783
21
-4.56199
0
LINE
8
BLACK
6
CONTINUOUS
10
5.4783
20
-4.56199
11
5.47848
21
-4.56098
0
LINE
8
BLACK
6
CONTINUOUS
10
5.47848
20
-4.56098
11
5.47859
21
-4.56085
0
LINE
8
BLACK
6
CONTINUOUS
10
5.47859
20
-4.56085
11
5.47862
21
-4.56067
0
LINE
8
BLACK
6
CONTINUOUS
10
5.47862
20
-4.56067
11
5.47929
21
-4.55932
0
LINE
8
BLACK
6
CONTINUOUS
10
5.47929
20
-4.55932
11
5.47755
21
-4.55932
0
LINE
8
BLACK
6
CONTINUOUS
10
5.45543
20
-4.55932
11
5.45543
21
-4.57966
0
LINE
8
BLACK
6
CONTINUOUS
10
5.45543
20
-4.57966
11
5.45806
21
-4.57966
0
LINE
8
BLACK
6
CONTINUOUS
10
5.45806
20
-4.57966
11
5.46076
21
-4.57831
0
LINE
8
BLACK
6
CONTINUOUS
10
5.46076
20
-4.57831
11
5.46196
21
-4.57711
0
LINE
8
BLACK
6
CONTINUOUS
10
5.46196
20
-4.57711
11
5.46331
21
-4.57442
0
LINE
8
BLACK
6
CONTINUOUS
10
5.46331
20
-4.57442
11
5.46331
21
-4.56456
0
LINE
8
BLACK
6
CONTINUOUS
10
5.46331
20
-4.56456
11
5.46196
21
-4.56187
0
LINE
8
BLACK
6
CONTINUOUS
10
5.46196
20
-4.56187
11
5.46076
21
-4.56067
0
LINE
8
BLACK
6
CONTINUOUS
10
5.46076
20
-4.56067
11
5.45806
21
-4.55932
0
LINE
8
BLACK
6
CONTINUOUS
10
5.45806
20
-4.55932
11
5.45543
21
-4.55932
0
LINE
8
BLACK
6
CONTINUOUS
10
5.51983
20
-4.56456
11
5.51983
21
-4.57938
0
LINE
8
BLACK
6
CONTINUOUS
10
5.51983
20
-4.57938
11
5.52077
21
-4.57891
0
LINE
8
BLACK
6
CONTINUOUS
10
5.52077
20
-4.57891
11
5.52077
21
-4.56269
0
LINE
8
BLACK
6
CONTINUOUS
10
5.52077
20
-4.56269
11
5.51983
21
-4.56456
0
LINE
8
BLACK
6
CONTINUOUS
10
5.48421
20
-4.57191
11
5.48421
21
-4.57629
0
LINE
8
BLACK
6
CONTINUOUS
10
5.48421
20
-4.57629
11
5.48515
21
-4.57817
0
LINE
8
BLACK
6
CONTINUOUS
10
5.48515
20
-4.57817
11
5.48515
21
-4.57172
0
LINE
8
BLACK
6
CONTINUOUS
10
5.48515
20
-4.57172
11
5.48421
21
-4.57191
0
LINE
8
BLACK
6
CONTINUOUS
10
5.48421
20
-4.56269
11
5.48421
21
-4.56589
0
LINE
8
BLACK
6
CONTINUOUS
10
5.48421
20
-4.56589
11
5.48515
21
-4.5657
0
LINE
8
BLACK
6
CONTINUOUS
10
5.48515
20
-4.5657
11
5.48515
21
-4.56081
0
LINE
8
BLACK
6
CONTINUOUS
10
5.48515
20
-4.56081
11
5.48421
21
-4.56269
0
LINE
8
BLACK
6
CONTINUOUS
10
5.49105
20
-4.55932
11
5.49105
21
-4.56452
0
LINE
8
BLACK
6
CONTINUOUS
10
5.49105
20
-4.56452
11
5.49705
21
-4.56332
0
LINE
8
BLACK
6
CONTINUOUS
10
5.49705
20
-4.56332
11
5.49705
21
-4.56269
0
LINE
8
BLACK
6
CONTINUOUS
10
5.49705
20
-4.56269
11
5.49593
21
-4.56044
0
LINE
8
BLACK
6
CONTINUOUS
10
5.49593
20
-4.56044
11
5.49368
21
-4.55932
0
LINE
8
BLACK
6
CONTINUOUS
10
5.49368
20
-4.55932
11
5.49105
21
-4.55932
0
LINE
8
BLACK
6
CONTINUOUS
10
5.15038
20
-4.33711
11
5.15051
21
-4.33709
0
LINE
8
BLACK
6
CONTINUOUS
10
5.15051
20
-4.33709
11
5.15063
21
-4.33716
0
LINE
8
BLACK
6
CONTINUOUS
10
5.15063
20
-4.33716
11
5.15101
21
-4.33723
0
LINE
8
BLACK
6
CONTINUOUS
10
5.15101
20
-4.33723
11
5.1516
21
-4.33772
0
LINE
8
BLACK
6
CONTINUOUS
10
5.1516
20
-4.33772
11
5.15226
21
-4.3381
0
LINE
8
BLACK
6
CONTINUOUS
10
5.15226
20
-4.3381
11
5.15235
21
-4.33835
0
LINE
8
BLACK
6
CONTINUOUS
10
5.15235
20
-4.33835
11
5.15256
21
-4.33852
0
LINE
8
BLACK
6
CONTINUOUS
10
5.15256
20
-4.33852
11
5.15269
21
-4.33928
0
LINE
8
BLACK
6
CONTINUOUS
10
5.15269
20
-4.33928
11
5.15295
21
-4.34
0
LINE
8
BLACK
6
CONTINUOUS
10
5.15295
20
-4.34
11
5.15295
21
-4.54
0
LINE
8
BLACK
6
CONTINUOUS
10
5.15295
20
-4.54
11
5.1529
21
-4.54029
0
LINE
8
BLACK
6
CONTINUOUS
10
5.1529
20
-4.54029
11
5.15692
21
-4.54029
0
LINE
8
BLACK
6
CONTINUOUS
10
5.15692
20
-4.54029
11
5.15779
21
-4.54044
0
LINE
8
BLACK
6
CONTINUOUS
10
5.15779
20
-4.54044
11
5.15786
21
-4.54044
0
LINE
8
BLACK
6
CONTINUOUS
10
5.15786
20
-4.54044
11
5.16348
21
-4.54232
0
LINE
8
BLACK
6
CONTINUOUS
10
5.16348
20
-4.54232
11
5.16438
21
-4.54281
0
LINE
8
BLACK
6
CONTINUOUS
10
5.16438
20
-4.54281
11
5.16544
21
-4.54453
0
LINE
8
BLACK
6
CONTINUOUS
10
5.16544
20
-4.54453
11
5.16514
21
-4.54652
0
LINE
8
BLACK
6
CONTINUOUS
10
5.16514
20
-4.54652
11
5.16363
21
-4.54786
0
LINE
8
BLACK
6
CONTINUOUS
10
5.16363
20
-4.54786
11
5.16161
21
-4.54792
0
LINE
8
BLACK
6
CONTINUOUS
10
5.16161
20
-4.54792
11
5.15644
21
-4.5462
0
LINE
8
BLACK
6
CONTINUOUS
10
5.15644
20
-4.5462
11
5.14824
21
-4.5462
0
LINE
8
BLACK
6
CONTINUOUS
10
5.14824
20
-4.5462
11
5.14555
21
-4.54754
0
LINE
8
BLACK
6
CONTINUOUS
10
5.14555
20
-4.54754
11
5.14435
21
-4.54874
0
LINE
8
BLACK
6
CONTINUOUS
10
5.14435
20
-4.54874
11
5.143
21
-4.55144
0
LINE
8
BLACK
6
CONTINUOUS
10
5.143
20
-4.55144
11
5.143
21
-4.55379
0
LINE
8
BLACK
6
CONTINUOUS
10
5.143
20
-4.55379
11
5.14321
21
-4.55421
0
LINE
8
BLACK
6
CONTINUOUS
10
5.14321
20
-4.55421
11
5.14354
21
-4.55381
0
LINE
8
BLACK
6
CONTINUOUS
10
5.14354
20
-4.55381
11
5.14553
21
-4.55346
0
LINE
8
BLACK
6
CONTINUOUS
10
5.14553
20
-4.55346
11
5.14728
21
-4.55447
0
LINE
8
BLACK
6
CONTINUOUS
10
5.14728
20
-4.55447
11
5.14736
21
-4.5547
0
LINE
8
BLACK
6
CONTINUOUS
10
5.14736
20
-4.5547
11
5.14932
21
-4.55373
0
LINE
8
BLACK
6
CONTINUOUS
10
5.14932
20
-4.55373
11
5.1503
21
-4.55343
0
LINE
8
BLACK
6
CONTINUOUS
10
5.1503
20
-4.55343
11
5.15048
21
-4.55347
0
LINE
8
BLACK
6
CONTINUOUS
10
5.15048
20
-4.55347
11
5.15064
21
-4.55341
0
LINE
8
BLACK
6
CONTINUOUS
10
5.15064
20
-4.55341
11
5.15627
21
-4.55341
0
LINE
8
BLACK
6
CONTINUOUS
10
5.15627
20
-4.55341
11
5.15728
21
-4.55359
0
LINE
8
BLACK
6
CONTINUOUS
10
5.15728
20
-4.55359
11
5.15741
21
-4.55371
0
LINE
8
BLACK
6
CONTINUOUS
10
5.15741
20
-4.55371
11
5.15759
21
-4.55373
0
LINE
8
BLACK
6
CONTINUOUS
10
5.15759
20
-4.55373
11
5.16134
21
-4.5556
0
LINE
8
BLACK
6
CONTINUOUS
10
5.16134
20
-4.5556
11
5.16191
21
-4.55602
0
LINE
8
BLACK
6
CONTINUOUS
10
5.16191
20
-4.55602
11
5.16214
21
-4.55592
0
LINE
8
BLACK
6
CONTINUOUS
10
5.16214
20
-4.55592
11
5.16244
21
-4.5556
0
LINE
8
BLACK
6
CONTINUOUS
10
5.16244
20
-4.5556
11
5.16619
21
-4.55373
0
LINE
8
BLACK
6
CONTINUOUS
10
5.16619
20
-4.55373
11
5.16718
21
-4.55343
0
LINE
8
BLACK
6
CONTINUOUS
10
5.16718
20
-4.55343
11
5.16735
21
-4.55347
0
LINE
8
BLACK
6
CONTINUOUS
10
5.16735
20
-4.55347
11
5.16751
21
-4.55341
0
LINE
8
BLACK
6
CONTINUOUS
10
5.16751
20
-4.55341
11
5.17314
21
-4.55341
0
LINE
8
BLACK
6
CONTINUOUS
10
5.17314
20
-4.55341
11
5.17415
21
-4.55359
0
LINE
8
BLACK
6
CONTINUOUS
10
5.17415
20
-4.55359
11
5.17428
21
-4.55371
0
LINE
8
BLACK
6
CONTINUOUS
10
5.17428
20
-4.55371
11
5.17446
21
-4.55373
0
LINE
8
BLACK
6
CONTINUOUS
10
5.17446
20
-4.55373
11
5.17821
21
-4.5556
0
LINE
8
BLACK
6
CONTINUOUS
10
5.17821
20
-4.5556
11
5.17903
21
-4.55621
0
LINE
8
BLACK
6
CONTINUOUS
10
5.17903
20
-4.55621
11
5.17907
21
-4.55629
0
LINE
8
BLACK
6
CONTINUOUS
10
5.17907
20
-4.55629
11
5.17921
21
-4.55615
0
LINE
8
BLACK
6
CONTINUOUS
10
5.17921
20
-4.55615
11
5.17993
21
-4.55565
0
LINE
8
BLACK
6
CONTINUOUS
10
5.17993
20
-4.55565
11
5.17997
21
-4.5556
0
LINE
8
BLACK
6
CONTINUOUS
10
5.17997
20
-4.5556
11
5.18372
21
-4.55373
0
LINE
8
BLACK
6
CONTINUOUS
10
5.18372
20
-4.55373
11
5.18471
21
-4.55343
0
LINE
8
BLACK
6
CONTINUOUS
10
5.18471
20
-4.55343
11
5.18488
21
-4.55347
0
LINE
8
BLACK
6
CONTINUOUS
10
5.18488
20
-4.55347
11
5.18504
21
-4.55341
0
LINE
8
BLACK
6
CONTINUOUS
10
5.18504
20
-4.55341
11
5.19067
21
-4.55341
0
LINE
8
BLACK
6
CONTINUOUS
10
5.19067
20
-4.55341
11
5.19168
21
-4.55359
0
LINE
8
BLACK
6
CONTINUOUS
10
5.19168
20
-4.55359
11
5.19181
21
-4.55371
0
LINE
8
BLACK
6
CONTINUOUS
10
5.19181
20
-4.55371
11
5.19199
21
-4.55373
0
LINE
8
BLACK
6
CONTINUOUS
10
5.19199
20
-4.55373
11
5.19489
21
-4.55518
0
LINE
8
BLACK
6
CONTINUOUS
10
5.19489
20
-4.55518
11
5.19603
21
-4.55381
0
LINE
8
BLACK
6
CONTINUOUS
10
5.19603
20
-4.55381
11
5.19802
21
-4.55346
0
LINE
8
BLACK
6
CONTINUOUS
10
5.19802
20
-4.55346
11
5.19916
21
-4.55412
0
LINE
8
BLACK
6
CONTINUOUS
10
5.19916
20
-4.55412
11
5.19994
21
-4.55373
0
LINE
8
BLACK
6
CONTINUOUS
10
5.19994
20
-4.55373
11
5.20092
21
-4.55343
0
LINE
8
BLACK
6
CONTINUOUS
10
5.20092
20
-4.55343
11
5.20109
21
-4.55347
0
LINE
8
BLACK
6
CONTINUOUS
10
5.20109
20
-4.55347
11
5.20126
21
-4.55341
0
LINE
8
BLACK
6
CONTINUOUS
10
5.20126
20
-4.55341
11
5.20876
21
-4.55341
0
LINE
8
BLACK
6
CONTINUOUS
10
5.20876
20
-4.55341
11
5.20977
21
-4.55359
0
LINE
8
BLACK
6
CONTINUOUS
10
5.20977
20
-4.55359
11
5.2099
21
-4.55371
0
LINE
8
BLACK
6
CONTINUOUS
10
5.2099
20
-4.55371
11
5.21008
21
-4.55373
0
LINE
8
BLACK
6
CONTINUOUS
10
5.21008
20
-4.55373
11
5.21209
21
-4.55473
0
LINE
8
BLACK
6
CONTINUOUS
10
5.21209
20
-4.55473
11
5.21209
21
-4.54324
0
LINE
8
BLACK
6
CONTINUOUS
10
5.21209
20
-4.54324
11
5.21226
21
-4.54223
0
LINE
8
BLACK
6
CONTINUOUS
10
5.21226
20
-4.54223
11
5.21356
21
-4.54069
0
LINE
8
BLACK
6
CONTINUOUS
10
5.21356
20
-4.54069
11
5.21555
21
-4.54034
0
LINE
8
BLACK
6
CONTINUOUS
10
5.21555
20
-4.54034
11
5.2173
21
-4.54135
0
LINE
8
BLACK
6
CONTINUOUS
10
5.2173
20
-4.54135
11
5.21799
21
-4.54324
0
LINE
8
BLACK
6
CONTINUOUS
10
5.21799
20
-4.54324
11
5.21799
21
-4.56073
0
LINE
8
BLACK
6
CONTINUOUS
10
5.21799
20
-4.56073
11
5.2189
21
-4.56255
0
LINE
8
BLACK
6
CONTINUOUS
10
5.2189
20
-4.56255
11
5.21919
21
-4.56353
0
LINE
8
BLACK
6
CONTINUOUS
10
5.21919
20
-4.56353
11
5.21915
21
-4.5637
0
LINE
8
BLACK
6
CONTINUOUS
10
5.21915
20
-4.5637
11
5.21921
21
-4.56387
0
LINE
8
BLACK
6
CONTINUOUS
10
5.21921
20
-4.56387
11
5.21921
21
-4.57511
0
LINE
8
BLACK
6
CONTINUOUS
10
5.21921
20
-4.57511
11
5.21903
21
-4.57612
0
LINE
8
BLACK
6
CONTINUOUS
10
5.21903
20
-4.57612
11
5.21892
21
-4.57626
0
LINE
8
BLACK
6
CONTINUOUS
10
5.21892
20
-4.57626
11
5.2189
21
-4.57643
0
LINE
8
BLACK
6
CONTINUOUS
10
5.2189
20
-4.57643
11
5.21848
21
-4.57727
0
LINE
8
BLACK
6
CONTINUOUS
10
5.21848
20
-4.57727
11
5.21911
21
-4.57854
0
LINE
8
BLACK
6
CONTINUOUS
10
5.21911
20
-4.57854
11
5.22198
21
-4.57997
0
LINE
8
BLACK
6
CONTINUOUS
10
5.22198
20
-4.57997
11
5.22281
21
-4.58058
0
LINE
8
BLACK
6
CONTINUOUS
10
5.22281
20
-4.58058
11
5.22361
21
-4.58244
0
LINE
8
BLACK
6
CONTINUOUS
10
5.22361
20
-4.58244
11
5.22304
21
-4.58437
0
LINE
8
BLACK
6
CONTINUOUS
10
5.22304
20
-4.58437
11
5.22135
21
-4.58549
0
LINE
8
BLACK
6
CONTINUOUS
10
5.22135
20
-4.58549
11
5.21934
21
-4.58525
0
LINE
8
BLACK
6
CONTINUOUS
10
5.21934
20
-4.58525
11
5.21559
21
-4.58338
0
LINE
8
BLACK
6
CONTINUOUS
10
5.21559
20
-4.58338
11
5.21477
21
-4.58277
0
LINE
8
BLACK
6
CONTINUOUS
10
5.21477
20
-4.58277
11
5.21473
21
-4.58269
0
LINE
8
BLACK
6
CONTINUOUS
10
5.21473
20
-4.58269
11
5.2146
21
-4.58283
0
LINE
8
BLACK
6
CONTINUOUS
10
5.2146
20
-4.58283
11
5.21387
21
-4.58333
0
LINE
8
BLACK
6
CONTINUOUS
10
5.21387
20
-4.58333
11
5.21383
21
-4.58338
0
LINE
8
BLACK
6
CONTINUOUS
10
5.21383
20
-4.58338
11
5.21008
21
-4.58525
0
LINE
8
BLACK
6
CONTINUOUS
10
5.21008
20
-4.58525
11
5.2091
21
-4.58555
0
LINE
8
BLACK
6
CONTINUOUS
10
5.2091
20
-4.58555
11
5.20892
21
-4.58551
0
LINE
8
BLACK
6
CONTINUOUS
10
5.20892
20
-4.58551
11
5.20876
21
-4.58557
0
LINE
8
BLACK
6
CONTINUOUS
10
5.20876
20
-4.58557
11
5.20126
21
-4.58557
0
LINE
8
BLACK
6
CONTINUOUS
10
5.20126
20
-4.58557
11
5.20046
21
-4.58543
0
LINE
8
BLACK
6
CONTINUOUS
10
5.20046
20
-4.58543
11
5.20046
21
-4.59574
0
LINE
8
BLACK
6
CONTINUOUS
10
5.20046
20
-4.59574
11
5.20028
21
-4.59675
0
LINE
8
BLACK
6
CONTINUOUS
10
5.20028
20
-4.59675
11
5.19899
21
-4.59829
0
LINE
8
BLACK
6
CONTINUOUS
10
5.19899
20
-4.59829
11
5.197
21
-4.59864
0
LINE
8
BLACK
6
CONTINUOUS
10
5.197
20
-4.59864
11
5.19525
21
-4.59763
0
LINE
8
BLACK
6
CONTINUOUS
10
5.19525
20
-4.59763
11
5.19456
21
-4.59574
0
LINE
8
BLACK
6
CONTINUOUS
10
5.19456
20
-4.59574
11
5.19456
21
-4.58397
0
LINE
8
BLACK
6
CONTINUOUS
10
5.19456
20
-4.58397
11
5.19199
21
-4.58525
0
LINE
8
BLACK
6
CONTINUOUS
10
5.19199
20
-4.58525
11
5.191
21
-4.58555
0
LINE
8
BLACK
6
CONTINUOUS
10
5.191
20
-4.58555
11
5.19083
21
-4.58551
0
LINE
8
BLACK
6
CONTINUOUS
10
5.19083
20
-4.58551
11
5.19067
21
-4.58557
0
LINE
8
BLACK
6
CONTINUOUS
10
5.19067
20
-4.58557
11
5.18504
21
-4.58557
0
LINE
8
BLACK
6
CONTINUOUS
10
5.18504
20
-4.58557
11
5.18403
21
-4.58539
0
LINE
8
BLACK
6
CONTINUOUS
10
5.18403
20
-4.58539
11
5.1839
21
-4.58527
0
LINE
8
BLACK
6
CONTINUOUS
10
5.1839
20
-4.58527
11
5.18372
21
-4.58525
0
LINE
8
BLACK
6
CONTINUOUS
10
5.18372
20
-4.58525
11
5.18122
21
-4.584
0
LINE
8
BLACK
6
CONTINUOUS
10
5.18122
20
-4.584
11
5.18024
21
-4.58517
0
LINE
8
BLACK
6
CONTINUOUS
10
5.18024
20
-4.58517
11
5.17825
21
-4.58552
0
LINE
8
BLACK
6
CONTINUOUS
10
5.17825
20
-4.58552
11
5.1765
21
-4.58451
0
LINE
8
BLACK
6
CONTINUOUS
10
5.1765
20
-4.58451
11
5.17581
21
-4.58261
0
LINE
8
BLACK
6
CONTINUOUS
10
5.17581
20
-4.58261
11
5.17581
21
-4.57825
0
LINE
8
BLACK
6
CONTINUOUS
10
5.17581
20
-4.57825
11
5.1749
21
-4.57643
0
LINE
8
BLACK
6
CONTINUOUS
10
5.1749
20
-4.57643
11
5.17461
21
-4.57545
0
LINE
8
BLACK
6
CONTINUOUS
10
5.17461
20
-4.57545
11
5.17465
21
-4.57528
0
LINE
8
BLACK
6
CONTINUOUS
10
5.17465
20
-4.57528
11
5.17459
21
-4.57511
0
LINE
8
BLACK
6
CONTINUOUS
10
5.17459
20
-4.57511
11
5.17459
21
-4.56387
0
LINE
8
BLACK
6
CONTINUOUS
10
5.17459
20
-4.56387
11
5.17477
21
-4.56286
0
LINE
8
BLACK
6
CONTINUOUS
10
5.17477
20
-4.56286
11
5.17488
21
-4.56272
0
LINE
8
BLACK
6
CONTINUOUS
10
5.17488
20
-4.56272
11
5.1749
21
-4.56255
0
LINE
8
BLACK
6
CONTINUOUS
10
5.1749
20
-4.56255
11
5.17532
21
-4.56171
0
LINE
8
BLACK
6
CONTINUOUS
10
5.17532
20
-4.56171
11
5.17469
21
-4.56044
0
LINE
8
BLACK
6
CONTINUOUS
10
5.17469
20
-4.56044
11
5.17244
21
-4.55932
0
LINE
8
BLACK
6
CONTINUOUS
10
5.17244
20
-4.55932
11
5.16821
21
-4.55932
0
LINE
8
BLACK
6
CONTINUOUS
10
5.16821
20
-4.55932
11
5.16597
21
-4.56044
0
LINE
8
BLACK
6
CONTINUOUS
10
5.16597
20
-4.56044
11
5.16484
21
-4.56269
0
LINE
8
BLACK
6
CONTINUOUS
10
5.16484
20
-4.56269
11
5.16484
21
-4.56936
0
LINE
8
BLACK
6
CONTINUOUS
10
5.16484
20
-4.56936
11
5.16519
21
-4.57004
0
LINE
8
BLACK
6
CONTINUOUS
10
5.16519
20
-4.57004
11
5.16548
21
-4.57103
0
LINE
8
BLACK
6
CONTINUOUS
10
5.16548
20
-4.57103
11
5.16544
21
-4.5712
0
LINE
8
BLACK
6
CONTINUOUS
10
5.16544
20
-4.5712
11
5.1655
21
-4.57136
0
LINE
8
BLACK
6
CONTINUOUS
10
5.1655
20
-4.57136
11
5.1655
21
-4.57511
0
LINE
8
BLACK
6
CONTINUOUS
10
5.1655
20
-4.57511
11
5.16532
21
-4.57612
0
LINE
8
BLACK
6
CONTINUOUS
10
5.16532
20
-4.57612
11
5.16521
21
-4.57626
0
LINE
8
BLACK
6
CONTINUOUS
10
5.16521
20
-4.57626
11
5.16519
21
-4.57643
0
LINE
8
BLACK
6
CONTINUOUS
10
5.16519
20
-4.57643
11
5.16484
21
-4.57712
0
LINE
8
BLACK
6
CONTINUOUS
10
5.16484
20
-4.57712
11
5.16484
21
-4.58261
0
LINE
8
BLACK
6
CONTINUOUS
10
5.16484
20
-4.58261
11
5.16466
21
-4.58362
0
LINE
8
BLACK
6
CONTINUOUS
10
5.16466
20
-4.58362
11
5.16337
21
-4.58517
0
LINE
8
BLACK
6
CONTINUOUS
10
5.16337
20
-4.58517
11
5.16138
21
-4.58552
0
LINE
8
BLACK
6
CONTINUOUS
10
5.16138
20
-4.58552
11
5.15963
21
-4.58451
0
LINE
8
BLACK
6
CONTINUOUS
10
5.15963
20
-4.58451
11
5.15935
21
-4.58376
0
LINE
8
BLACK
6
CONTINUOUS
10
5.15935
20
-4.58376
11
5.15637
21
-4.58525
0
LINE
8
BLACK
6
CONTINUOUS
10
5.15637
20
-4.58525
11
5.15538
21
-4.58555
0
LINE
8
BLACK
6
CONTINUOUS
10
5.15538
20
-4.58555
11
5.15521
21
-4.58551
0
LINE
8
BLACK
6
CONTINUOUS
10
5.15521
20
-4.58551
11
5.15505
21
-4.58557
0
LINE
8
BLACK
6
CONTINUOUS
10
5.15505
20
-4.58557
11
5.14567
21
-4.58557
0
LINE
8
BLACK
6
CONTINUOUS
10
5.14567
20
-4.58557
11
5.14496
21
-4.58544
0
LINE
8
BLACK
6
CONTINUOUS
10
5.14496
20
-4.58544
11
5.1445
21
-4.58552
0
LINE
8
BLACK
6
CONTINUOUS
10
5.1445
20
-4.58552
11
5.14375
21
-4.58508
0
LINE
8
BLACK
6
CONTINUOUS
10
5.14375
20
-4.58508
11
5.13912
21
-4.58354
0
LINE
8
BLACK
6
CONTINUOUS
10
5.13912
20
-4.58354
11
5.13821
21
-4.58305
0
LINE
8
BLACK
6
CONTINUOUS
10
5.13821
20
-4.58305
11
5.13716
21
-4.58133
0
LINE
8
BLACK
6
CONTINUOUS
10
5.13716
20
-4.58133
11
5.13745
21
-4.57933
0
LINE
8
BLACK
6
CONTINUOUS
10
5.13745
20
-4.57933
11
5.13896
21
-4.57799
0
LINE
8
BLACK
6
CONTINUOUS
10
5.13896
20
-4.57799
11
5.14098
21
-4.57794
0
LINE
8
BLACK
6
CONTINUOUS
10
5.14098
20
-4.57794
11
5.14206
21
-4.5783
0
LINE
8
BLACK
6
CONTINUOUS
10
5.14206
20
-4.5783
11
5.14206
21
-4.56245
0
LINE
8
BLACK
6
CONTINUOUS
10
5.14206
20
-4.56245
11
5.14177
21
-4.56223
0
LINE
8
BLACK
6
CONTINUOUS
10
5.14177
20
-4.56223
11
5.14171
21
-4.5622
0
LINE
8
BLACK
6
CONTINUOUS
10
5.14171
20
-4.5622
11
5.13984
21
-4.56033
0
LINE
8
BLACK
6
CONTINUOUS
10
5.13984
20
-4.56033
11
5.13933
21
-4.55961
0
LINE
8
BLACK
6
CONTINUOUS
10
5.13933
20
-4.55961
11
5.13928
21
-4.55956
0
LINE
8
BLACK
6
CONTINUOUS
10
5.13928
20
-4.55956
11
5.13741
21
-4.55581
0
LINE
8
BLACK
6
CONTINUOUS
10
5.13741
20
-4.55581
11
5.13712
21
-4.55483
0
LINE
8
BLACK
6
CONTINUOUS
10
5.13712
20
-4.55483
11
5.13716
21
-4.55466
0
LINE
8
BLACK
6
CONTINUOUS
10
5.13716
20
-4.55466
11
5.1371
21
-4.55449
0
LINE
8
BLACK
6
CONTINUOUS
10
5.1371
20
-4.55449
11
5.1371
21
-4.55074
0
LINE
8
BLACK
6
CONTINUOUS
10
5.1371
20
-4.55074
11
5.13727
21
-4.54973
0
LINE
8
BLACK
6
CONTINUOUS
10
5.13727
20
-4.54973
11
5.13739
21
-4.5496
0
LINE
8
BLACK
6
CONTINUOUS
10
5.13739
20
-4.5496
11
5.13741
21
-4.54942
0
LINE
8
BLACK
6
CONTINUOUS
10
5.13741
20
-4.54942
11
5.13928
21
-4.54567
0
LINE
8
BLACK
6
CONTINUOUS
10
5.13928
20
-4.54567
11
5.13981
21
-4.54496
0
LINE
8
BLACK
6
CONTINUOUS
10
5.13981
20
-4.54496
11
5.13984
21
-4.5449
0
LINE
8
BLACK
6
CONTINUOUS
10
5.13984
20
-4.5449
11
5.14171
21
-4.54303
0
LINE
8
BLACK
6
CONTINUOUS
10
5.14171
20
-4.54303
11
5.14182
21
-4.54295
0
LINE
8
BLACK
6
CONTINUOUS
10
5.14182
20
-4.54295
11
5.0935
21
-4.54295
0
LINE
8
BLACK
6
CONTINUOUS
10
5.0935
20
-4.54295
11
5.0936
21
-4.54324
0
LINE
8
BLACK
6
CONTINUOUS
10
5.0936
20
-4.54324
11
5.0936
21
-4.57136
0
LINE
8
BLACK
6
CONTINUOUS
10
5.0936
20
-4.57136
11
5.09345
21
-4.57223
0
LINE
8
BLACK
6
CONTINUOUS
10
5.09345
20
-4.57223
11
5.09345
21
-4.5723
0
LINE
8
BLACK
6
CONTINUOUS
10
5.09345
20
-4.5723
11
5.09158
21
-4.57792
0
LINE
8
BLACK
6
CONTINUOUS
10
5.09158
20
-4.57792
11
5.09109
21
-4.57882
0
LINE
8
BLACK
6
CONTINUOUS
10
5.09109
20
-4.57882
11
5.09094
21
-4.57892
0
LINE
8
BLACK
6
CONTINUOUS
10
5.09094
20
-4.57892
11
5.09086
21
-4.57908
0
LINE
8
BLACK
6
CONTINUOUS
10
5.09086
20
-4.57908
11
5.08711
21
-4.58283
0
LINE
8
BLACK
6
CONTINUOUS
10
5.08711
20
-4.58283
11
5.08627
21
-4.58341
0
LINE
8
BLACK
6
CONTINUOUS
10
5.08627
20
-4.58341
11
5.0861
21
-4.58343
0
LINE
8
BLACK
6
CONTINUOUS
10
5.0861
20
-4.58343
11
5.08596
21
-4.58354
0
LINE
8
BLACK
6
CONTINUOUS
10
5.08596
20
-4.58354
11
5.08033
21
-4.58541
0
LINE
8
BLACK
6
CONTINUOUS
10
5.08033
20
-4.58541
11
5.07946
21
-4.58554
0
LINE
8
BLACK
6
CONTINUOUS
10
5.07946
20
-4.58554
11
5.0794
21
-4.58557
0
LINE
8
BLACK
6
CONTINUOUS
10
5.0794
20
-4.58557
11
5.07565
21
-4.58557
0
LINE
8
BLACK
6
CONTINUOUS
10
5.07565
20
-4.58557
11
5.07464
21
-4.58539
0
LINE
8
BLACK
6
CONTINUOUS
10
5.07464
20
-4.58539
11
5.07309
21
-4.58409
0
LINE
8
BLACK
6
CONTINUOUS
10
5.07309
20
-4.58409
11
5.07274
21
-4.5821
0
LINE
8
BLACK
6
CONTINUOUS
10
5.07274
20
-4.5821
11
5.07375
21
-4.58035
0
LINE
8
BLACK
6
CONTINUOUS
10
5.07375
20
-4.58035
11
5.07565
21
-4.57966
0
LINE
8
BLACK
6
CONTINUOUS
10
5.07565
20
-4.57966
11
5.07892
21
-4.57966
0
LINE
8
BLACK
6
CONTINUOUS
10
5.07892
20
-4.57966
11
5.08343
21
-4.57816
0
LINE
8
BLACK
6
CONTINUOUS
10
5.08343
20
-4.57816
11
5.08619
21
-4.57539
0
LINE
8
BLACK
6
CONTINUOUS
10
5.08619
20
-4.57539
11
5.0877
21
-4.57089
0
LINE
8
BLACK
6
CONTINUOUS
10
5.0877
20
-4.57089
11
5.0877
21
-4.54324
0
LINE
8
BLACK
6
CONTINUOUS
10
5.0877
20
-4.54324
11
5.08775
21
-4.54295
0
LINE
8
BLACK
6
CONTINUOUS
10
5.08775
20
-4.54295
11
5.00538
21
-4.54295
0
LINE
8
BLACK
6
CONTINUOUS
10
5.00538
20
-4.54295
11
5.00549
21
-4.54324
0
LINE
8
BLACK
6
CONTINUOUS
10
5.00549
20
-4.54324
11
5.00549
21
-4.58261
0
LINE
8
BLACK
6
CONTINUOUS
10
5.00549
20
-4.58261
11
5.00531
21
-4.58362
0
LINE
8
BLACK
6
CONTINUOUS
10
5.00531
20
-4.58362
11
5.00401
21
-4.58517
0
LINE
8
BLACK
6
CONTINUOUS
10
5.00401
20
-4.58517
11
5.00202
21
-4.58552
0
LINE
8
BLACK
6
CONTINUOUS
10
5.00202
20
-4.58552
11
5.00088
21
-4.58486
0
LINE
8
BLACK
6
CONTINUOUS
10
5.00088
20
-4.58486
11
5.00011
21
-4.58525
0
LINE
8
BLACK
6
CONTINUOUS
10
5.00011
20
-4.58525
11
4.99912
21
-4.58555
0
LINE
8
BLACK
6
CONTINUOUS
10
4.99912
20
-4.58555
11
4.99895
21
-4.58551
0
LINE
8
BLACK
6
CONTINUOUS
10
4.99895
20
-4.58551
11
4.99879
21
-4.58557
0
LINE
8
BLACK
6
CONTINUOUS
10
4.99879
20
-4.58557
11
4.99129
21
-4.58557
0
LINE
8
BLACK
6
CONTINUOUS
10
4.99129
20
-4.58557
11
4.99028
21
-4.58539
0
LINE
8
BLACK
6
CONTINUOUS
10
4.99028
20
-4.58539
11
4.99014
21
-4.58527
0
LINE
8
BLACK
6
CONTINUOUS
10
4.99014
20
-4.58527
11
4.98997
21
-4.58525
0
LINE
8
BLACK
6
CONTINUOUS
10
4.98997
20
-4.58525
11
4.98622
21
-4.58338
0
LINE
8
BLACK
6
CONTINUOUS
10
4.98622
20
-4.58338
11
4.98551
21
-4.58285
0
LINE
8
BLACK
6
CONTINUOUS
10
4.98551
20
-4.58285
11
4.98545
21
-4.58283
0
LINE
8
BLACK
6
CONTINUOUS
10
4.98545
20
-4.58283
11
4.98357
21
-4.58095
0
LINE
8
BLACK
6
CONTINUOUS
10
4.98357
20
-4.58095
11
4.98307
21
-4.58023
0
LINE
8
BLACK
6
CONTINUOUS
10
4.98307
20
-4.58023
11
4.98302
21
-4.58018
0
LINE
8
BLACK
6
CONTINUOUS
10
4.98302
20
-4.58018
11
4.98115
21
-4.57643
0
LINE
8
BLACK
6
CONTINUOUS
10
4.98115
20
-4.57643
11
4.98085
21
-4.57545
0
LINE
8
BLACK
6
CONTINUOUS
10
4.98085
20
-4.57545
11
4.98089
21
-4.57528
0
LINE
8
BLACK
6
CONTINUOUS
10
4.98089
20
-4.57528
11
4.98083
21
-4.57511
0
LINE
8
BLACK
6
CONTINUOUS
10
4.98083
20
-4.57511
11
4.98083
21
-4.56387
0
LINE
8
BLACK
6
CONTINUOUS
10
4.98083
20
-4.56387
11
4.98101
21
-4.56286
0
LINE
8
BLACK
6
CONTINUOUS
10
4.98101
20
-4.56286
11
4.98113
21
-4.56272
0
LINE
8
BLACK
6
CONTINUOUS
10
4.98113
20
-4.56272
11
4.98115
21
-4.56255
0
LINE
8
BLACK
6
CONTINUOUS
10
4.98115
20
-4.56255
11
4.98302
21
-4.5588
0
LINE
8
BLACK
6
CONTINUOUS
10
4.98302
20
-4.5588
11
4.98355
21
-4.55809
0
LINE
8
BLACK
6
CONTINUOUS
10
4.98355
20
-4.55809
11
4.98357
21
-4.55803
0
LINE
8
BLACK
6
CONTINUOUS
10
4.98357
20
-4.55803
11
4.98545
21
-4.55615
0
LINE
8
BLACK
6
CONTINUOUS
10
4.98545
20
-4.55615
11
4.98617
21
-4.55565
0
LINE
8
BLACK
6
CONTINUOUS
10
4.98617
20
-4.55565
11
4.98622
21
-4.5556
0
LINE
8
BLACK
6
CONTINUOUS
10
4.98622
20
-4.5556
11
4.98997
21
-4.55373
0
LINE
8
BLACK
6
CONTINUOUS
10
4.98997
20
-4.55373
11
4.99095
21
-4.55343
0
LINE
8
BLACK
6
CONTINUOUS
10
4.99095
20
-4.55343
11
4.99112
21
-4.55347
0
LINE
8
BLACK
6
CONTINUOUS
10
4.99112
20
-4.55347
11
4.99129
21
-4.55341
0
LINE
8
BLACK
6
CONTINUOUS
10
4.99129
20
-4.55341
11
4.99879
21
-4.55341
0
LINE
8
BLACK
6
CONTINUOUS
10
4.99879
20
-4.55341
11
4.99958
21
-4.55355
0
LINE
8
BLACK
6
CONTINUOUS
10
4.99958
20
-4.55355
11
4.99958
21
-4.54324
0
LINE
8
BLACK
6
CONTINUOUS
10
4.99958
20
-4.54324
11
4.99963
21
-4.54295
0
LINE
8
BLACK
6
CONTINUOUS
10
4.99963
20
-4.54295
11
4.96789
21
-4.54295
0
LINE
8
BLACK
6
CONTINUOUS
10
4.96789
20
-4.54295
11
4.96799
21
-4.54324
0
LINE
8
BLACK
6
CONTINUOUS
10
4.96799
20
-4.54324
11
4.96799
21
-4.57629
0
LINE
8
BLACK
6
CONTINUOUS
10
4.96799
20
-4.57629
11
4.96911
21
-4.57854
0
LINE
8
BLACK
6
CONTINUOUS
10
4.96911
20
-4.57854
11
4.97198
21
-4.57997
0
LINE
8
BLACK
6
CONTINUOUS
10
4.97198
20
-4.57997
11
4.97281
21
-4.58058
0
LINE
8
BLACK
6
CONTINUOUS
10
4.97281
20
-4.58058
11
4.97361
21
-4.58244
0
LINE
8
BLACK
6
CONTINUOUS
10
4.97361
20
-4.58244
11
4.97304
21
-4.58437
0
LINE
8
BLACK
6
CONTINUOUS
10
4.97304
20
-4.58437
11
4.97135
21
-4.58549
0
LINE
8
BLACK
6
CONTINUOUS
10
4.97135
20
-4.58549
11
4.96934
21
-4.58525
0
LINE
8
BLACK
6
CONTINUOUS
10
4.96934
20
-4.58525
11
4.96559
21
-4.58338
0
LINE
8
BLACK
6
CONTINUOUS
10
4.96559
20
-4.58338
11
4.96477
21
-4.58277
0
LINE
8
BLACK
6
CONTINUOUS
10
4.96477
20
-4.58277
11
4.96459
21
-4.58236
0
LINE
8
BLACK
6
CONTINUOUS
10
4.96459
20
-4.58236
11
4.96427
21
-4.58206
0
LINE
8
BLACK
6
CONTINUOUS
10
4.96427
20
-4.58206
11
4.9624
21
-4.57831
0
LINE
8
BLACK
6
CONTINUOUS
10
4.9624
20
-4.57831
11
4.96211
21
-4.57733
0
LINE
8
BLACK
6
CONTINUOUS
10
4.96211
20
-4.57733
11
4.96215
21
-4.57716
0
LINE
8
BLACK
6
CONTINUOUS
10
4.96215
20
-4.57716
11
4.96209
21
-4.57699
0
LINE
8
BLACK
6
CONTINUOUS
10
4.96209
20
-4.57699
11
4.96209
21
-4.54324
0
LINE
8
BLACK
6
CONTINUOUS
10
4.96209
20
-4.54324
11
4.96214
21
-4.54295
0
LINE
8
BLACK
6
CONTINUOUS
10
4.96214
20
-4.54295
11
4.91447
21
-4.54295
0
LINE
8
BLACK
6
CONTINUOUS
10
4.91447
20
-4.54295
11
4.91544
21
-4.54453
0
LINE
8
BLACK
6
CONTINUOUS
10
4.91544
20
-4.54453
11
4.91514
21
-4.54652
0
LINE
8
BLACK
6
CONTINUOUS
10
4.91514
20
-4.54652
11
4.91363
21
-4.54786
0
LINE
8
BLACK
6
CONTINUOUS
10
4.91363
20
-4.54786
11
4.91161
21
-4.54792
0
LINE
8
BLACK
6
CONTINUOUS
10
4.91161
20
-4.54792
11
4.90644
21
-4.5462
0
LINE
8
BLACK
6
CONTINUOUS
10
4.90644
20
-4.5462
11
4.89824
21
-4.5462
0
LINE
8
BLACK
6
CONTINUOUS
10
4.89824
20
-4.5462
11
4.89555
21
-4.54754
0
LINE
8
BLACK
6
CONTINUOUS
10
4.89555
20
-4.54754
11
4.89435
21
-4.54874
0
LINE
8
BLACK
6
CONTINUOUS
10
4.89435
20
-4.54874
11
4.893
21
-4.55144
0
LINE
8
BLACK
6
CONTINUOUS
10
4.893
20
-4.55144
11
4.893
21
-4.55379
0
LINE
8
BLACK
6
CONTINUOUS
10
4.893
20
-4.55379
11
4.89435
21
-4.55649
0
LINE
8
BLACK
6
CONTINUOUS
10
4.89435
20
-4.55649
11
4.89555
21
-4.55769
0
LINE
8
BLACK
6
CONTINUOUS
10
4.89555
20
-4.55769
11
4.89858
21
-4.5592
0
LINE
8
BLACK
6
CONTINUOUS
10
4.89858
20
-4.5592
11
4.90576
21
-4.561
0
LINE
8
BLACK
6
CONTINUOUS
10
4.90576
20
-4.561
11
4.90623
21
-4.56121
0
LINE
8
BLACK
6
CONTINUOUS
10
4.90623
20
-4.56121
11
4.90637
21
-4.56122
0
LINE
8
BLACK
6
CONTINUOUS
10
4.90637
20
-4.56122
11
4.91012
21
-4.5631
0
LINE
8
BLACK
6
CONTINUOUS
10
4.91012
20
-4.5631
11
4.91083
21
-4.56363
0
LINE
8
BLACK
6
CONTINUOUS
10
4.91083
20
-4.56363
11
4.91088
21
-4.56365
0
LINE
8
BLACK
6
CONTINUOUS
10
4.91088
20
-4.56365
11
4.91276
21
-4.56553
0
LINE
8
BLACK
6
CONTINUOUS
10
4.91276
20
-4.56553
11
4.91327
21
-4.56625
0
LINE
8
BLACK
6
CONTINUOUS
10
4.91327
20
-4.56625
11
4.91331
21
-4.56629
0
LINE
8
BLACK
6
CONTINUOUS
10
4.91331
20
-4.56629
11
4.91519
21
-4.57004
0
LINE
8
BLACK
6
CONTINUOUS
10
4.91519
20
-4.57004
11
4.91548
21
-4.57103
0
LINE
8
BLACK
6
CONTINUOUS
10
4.91548
20
-4.57103
11
4.91544
21
-4.5712
0
LINE
8
BLACK
6
CONTINUOUS
10
4.91544
20
-4.5712
11
4.9155
21
-4.57136
0
LINE
8
BLACK
6
CONTINUOUS
10
4.9155
20
-4.57136
11
4.9155
21
-4.57511
0
LINE
8
BLACK
6
CONTINUOUS
10
4.9155
20
-4.57511
11
4.91532
21
-4.57612
0
LINE
8
BLACK
6
CONTINUOUS
10
4.91532
20
-4.57612
11
4.91521
21
-4.57626
0
LINE
8
BLACK
6
CONTINUOUS
10
4.91521
20
-4.57626
11
4.91519
21
-4.57643
0
LINE
8
BLACK
6
CONTINUOUS
10
4.91519
20
-4.57643
11
4.91331
21
-4.58018
0
LINE
8
BLACK
6
CONTINUOUS
10
4.91331
20
-4.58018
11
4.91279
21
-4.58089
0
LINE
8
BLACK
6
CONTINUOUS
10
4.91279
20
-4.58089
11
4.91276
21
-4.58095
0
LINE
8
BLACK
6
CONTINUOUS
10
4.91276
20
-4.58095
11
4.91088
21
-4.58283
0
LINE
8
BLACK
6
CONTINUOUS
10
4.91088
20
-4.58283
11
4.91016
21
-4.58333
0
LINE
8
BLACK
6
CONTINUOUS
10
4.91016
20
-4.58333
11
4.91012
21
-4.58338
0
LINE
8
BLACK
6
CONTINUOUS
10
4.91012
20
-4.58338
11
4.90637
21
-4.58525
0
LINE
8
BLACK
6
CONTINUOUS
10
4.90637
20
-4.58525
11
4.90538
21
-4.58555
0
LINE
8
BLACK
6
CONTINUOUS
10
4.90538
20
-4.58555
11
4.90521
21
-4.58551
0
LINE
8
BLACK
6
CONTINUOUS
10
4.90521
20
-4.58551
11
4.90505
21
-4.58557
0
LINE
8
BLACK
6
CONTINUOUS
10
4.90505
20
-4.58557
11
4.89567
21
-4.58557
0
LINE
8
BLACK
6
CONTINUOUS
10
4.89567
20
-4.58557
11
4.8948
21
-4.58541
0
LINE
8
BLACK
6
CONTINUOUS
10
4.8948
20
-4.58541
11
4.89474
21
-4.58541
0
LINE
8
BLACK
6
CONTINUOUS
10
4.89474
20
-4.58541
11
4.88912
21
-4.58354
0
LINE
8
BLACK
6
CONTINUOUS
10
4.88912
20
-4.58354
11
4.88821
21
-4.58305
0
LINE
8
BLACK
6
CONTINUOUS
10
4.88821
20
-4.58305
11
4.88716
21
-4.58133
0
LINE
8
BLACK
6
CONTINUOUS
10
4.88716
20
-4.58133
11
4.88745
21
-4.57933
0
LINE
8
BLACK
6
CONTINUOUS
10
4.88745
20
-4.57933
11
4.88896
21
-4.57799
0
LINE
8
BLACK
6
CONTINUOUS
10
4.88896
20
-4.57799
11
4.89098
21
-4.57794
0
LINE
8
BLACK
6
CONTINUOUS
10
4.89098
20
-4.57794
11
4.89615
21
-4.57966
0
LINE
8
BLACK
6
CONTINUOUS
10
4.89615
20
-4.57966
11
4.90435
21
-4.57966
0
LINE
8
BLACK
6
CONTINUOUS
10
4.90435
20
-4.57966
11
4.90705
21
-4.57831
0
LINE
8
BLACK
6
CONTINUOUS
10
4.90705
20
-4.57831
11
4.90824
21
-4.57711
0
LINE
8
BLACK
6
CONTINUOUS
10
4.90824
20
-4.57711
11
4.90959
21
-4.57442
0
LINE
8
BLACK
6
CONTINUOUS
10
4.90959
20
-4.57442
11
4.90959
21
-4.57206
0
LINE
8
BLACK
6
CONTINUOUS
10
4.90959
20
-4.57206
11
4.90824
21
-4.56936
0
LINE
8
BLACK
6
CONTINUOUS
10
4.90824
20
-4.56936
11
4.90705
21
-4.56817
0
LINE
8
BLACK
6
CONTINUOUS
10
4.90705
20
-4.56817
11
4.90402
21
-4.56665
0
LINE
8
BLACK
6
CONTINUOUS
10
4.90402
20
-4.56665
11
4.89683
21
-4.56486
0
LINE
8
BLACK
6
CONTINUOUS
10
4.89683
20
-4.56486
11
4.89637
21
-4.56465
0
LINE
8
BLACK
6
CONTINUOUS
10
4.89637
20
-4.56465
11
4.89623
21
-4.56463
0
LINE
8
BLACK
6
CONTINUOUS
10
4.89623
20
-4.56463
11
4.89248
21
-4.56276
0
LINE
8
BLACK
6
CONTINUOUS
10
4.89248
20
-4.56276
11
4.89177
21
-4.56223
0
LINE
8
BLACK
6
CONTINUOUS
10
4.89177
20
-4.56223
11
4.89171
21
-4.5622
0
LINE
8
BLACK
6
CONTINUOUS
10
4.89171
20
-4.5622
11
4.88984
21
-4.56033
0
LINE
8
BLACK
6
CONTINUOUS
10
4.88984
20
-4.56033
11
4.88933
21
-4.55961
0
LINE
8
BLACK
6
CONTINUOUS
10
4.88933
20
-4.55961
11
4.88928
21
-4.55956
0
LINE
8
BLACK
6
CONTINUOUS
10
4.88928
20
-4.55956
11
4.88741
21
-4.55581
0
LINE
8
BLACK
6
CONTINUOUS
10
4.88741
20
-4.55581
11
4.88712
21
-4.55483
0
LINE
8
BLACK
6
CONTINUOUS
10
4.88712
20
-4.55483
11
4.88716
21
-4.55466
0
LINE
8
BLACK
6
CONTINUOUS
10
4.88716
20
-4.55466
11
4.8871
21
-4.55449
0
LINE
8
BLACK
6
CONTINUOUS
10
4.8871
20
-4.55449
11
4.8871
21
-4.55074
0
LINE
8
BLACK
6
CONTINUOUS
10
4.8871
20
-4.55074
11
4.88727
21
-4.54973
0
LINE
8
BLACK
6
CONTINUOUS
10
4.88727
20
-4.54973
11
4.88739
21
-4.5496
0
LINE
8
BLACK
6
CONTINUOUS
10
4.88739
20
-4.5496
11
4.88741
21
-4.54942
0
LINE
8
BLACK
6
CONTINUOUS
10
4.88741
20
-4.54942
11
4.88928
21
-4.54567
0
LINE
8
BLACK
6
CONTINUOUS
10
4.88928
20
-4.54567
11
4.88981
21
-4.54496
0
LINE
8
BLACK
6
CONTINUOUS
10
4.88981
20
-4.54496
11
4.88984
21
-4.5449
0
LINE
8
BLACK
6
CONTINUOUS
10
4.88984
20
-4.5449
11
4.89171
21
-4.54303
0
LINE
8
BLACK
6
CONTINUOUS
10
4.89171
20
-4.54303
11
4.89182
21
-4.54295
0
LINE
8
BLACK
6
CONTINUOUS
10
4.89182
20
-4.54295
11
4.85
21
-4.54295
0
LINE
8
BLACK
6
CONTINUOUS
10
4.85
20
-4.54295
11
4.84962
21
-4.54289
0
LINE
8
BLACK
6
CONTINUOUS
10
4.84962
20
-4.54289
11
4.84949
21
-4.54291
0
LINE
8
BLACK
6
CONTINUOUS
10
4.84949
20
-4.54291
11
4.84937
21
-4.54284
0
LINE
8
BLACK
6
CONTINUOUS
10
4.84937
20
-4.54284
11
4.84899
21
-4.54277
0
LINE
8
BLACK
6
CONTINUOUS
10
4.84899
20
-4.54277
11
4.8484
21
-4.54228
0
LINE
8
BLACK
6
CONTINUOUS
10
4.8484
20
-4.54228
11
4.84774
21
-4.5419
0
LINE
8
BLACK
6
CONTINUOUS
10
4.84774
20
-4.5419
11
4.84765
21
-4.54165
0
LINE
8
BLACK
6
CONTINUOUS
10
4.84765
20
-4.54165
11
4.84744
21
-4.54148
0
LINE
8
BLACK
6
CONTINUOUS
10
4.84744
20
-4.54148
11
4.84731
21
-4.54072
0
LINE
8
BLACK
6
CONTINUOUS
10
4.84731
20
-4.54072
11
4.84705
21
-4.54
0
LINE
8
BLACK
6
CONTINUOUS
10
4.84705
20
-4.54
11
4.84705
21
-4.34
0
LINE
8
BLACK
6
CONTINUOUS
10
4.84705
20
-4.34
11
4.84711
21
-4.33962
0
LINE
8
BLACK
6
CONTINUOUS
10
4.84711
20
-4.33962
11
4.84709
21
-4.33949
0
LINE
8
BLACK
6
CONTINUOUS
10
4.84709
20
-4.33949
11
4.84716
21
-4.33937
0
LINE
8
BLACK
6
CONTINUOUS
10
4.84716
20
-4.33937
11
4.84723
21
-4.33899
0
LINE
8
BLACK
6
CONTINUOUS
10
4.84723
20
-4.33899
11
4.84772
21
-4.3384
0
LINE
8
BLACK
6
CONTINUOUS
10
4.84772
20
-4.3384
11
4.8481
21
-4.33774
0
LINE
8
BLACK
6
CONTINUOUS
10
4.8481
20
-4.33774
11
4.84835
21
-4.33765
0
LINE
8
BLACK
6
CONTINUOUS
10
4.84835
20
-4.33765
11
4.84852
21
-4.33744
0
LINE
8
BLACK
6
CONTINUOUS
10
4.84852
20
-4.33744
11
4.84928
21
-4.33731
0
LINE
8
BLACK
6
CONTINUOUS
10
4.84928
20
-4.33731
11
4.85
21
-4.33705
0
LINE
8
BLACK
6
CONTINUOUS
10
4.85
20
-4.33705
11
5.15
21
-4.33705
0
LINE
8
BLACK
6
CONTINUOUS
10
5.15
20
-4.33705
11
5.15038
21
-4.33711
0
LINE
8
BLACK
6
CONTINUOUS
10
5.20196
20
-4.55932
11
5.20046
21
-4.56007
0
LINE
8
BLACK
6
CONTINUOUS
10
5.20046
20
-4.56007
11
5.20046
21
-4.56186
0
LINE
8
BLACK
6
CONTINUOUS
10
5.20046
20
-4.56186
11
5.20081
21
-4.56255
0
LINE
8
BLACK
6
CONTINUOUS
10
5.20081
20
-4.56255
11
5.2011
21
-4.56353
0
LINE
8
BLACK
6
CONTINUOUS
10
5.2011
20
-4.56353
11
5.20106
21
-4.5637
0
LINE
8
BLACK
6
CONTINUOUS
10
5.20106
20
-4.5637
11
5.20112
21
-4.56387
0
LINE
8
BLACK
6
CONTINUOUS
10
5.20112
20
-4.56387
11
5.20112
21
-4.57511
0
LINE
8
BLACK
6
CONTINUOUS
10
5.20112
20
-4.57511
11
5.20094
21
-4.57612
0
LINE
8
BLACK
6
CONTINUOUS
10
5.20094
20
-4.57612
11
5.20083
21
-4.57626
0
LINE
8
BLACK
6
CONTINUOUS
10
5.20083
20
-4.57626
11
5.20081
21
-4.57643
0
LINE
8
BLACK
6
CONTINUOUS
10
5.20081
20
-4.57643
11
5.20046
21
-4.57712
0
LINE
8
BLACK
6
CONTINUOUS
10
5.20046
20
-4.57712
11
5.20046
21
-4.57891
0
LINE
8
BLACK
6
CONTINUOUS
10
5.20046
20
-4.57891
11
5.20196
21
-4.57966
0
LINE
8
BLACK
6
CONTINUOUS
10
5.20196
20
-4.57966
11
5.20806
21
-4.57966
0
LINE
8
BLACK
6
CONTINUOUS
10
5.20806
20
-4.57966
11
5.21076
21
-4.57831
0
LINE
8
BLACK
6
CONTINUOUS
10
5.21076
20
-4.57831
11
5.21196
21
-4.57711
0
LINE
8
BLACK
6
CONTINUOUS
10
5.21196
20
-4.57711
11
5.21209
21
-4.57685
0
LINE
8
BLACK
6
CONTINUOUS
10
5.21209
20
-4.57685
11
5.21209
21
-4.56213
0
LINE
8
BLACK
6
CONTINUOUS
10
5.21209
20
-4.56213
11
5.21196
21
-4.56187
0
LINE
8
BLACK
6
CONTINUOUS
10
5.21196
20
-4.56187
11
5.21076
21
-4.56067
0
LINE
8
BLACK
6
CONTINUOUS
10
5.21076
20
-4.56067
11
5.20806
21
-4.55932
0
LINE
8
BLACK
6
CONTINUOUS
10
5.20806
20
-4.55932
11
5.20196
21
-4.55932
0
LINE
8
BLACK
6
CONTINUOUS
10
5.18574
20
-4.55932
11
5.18304
21
-4.56067
0
LINE
8
BLACK
6
CONTINUOUS
10
5.18304
20
-4.56067
11
5.18185
21
-4.56187
0
LINE
8
BLACK
6
CONTINUOUS
10
5.18185
20
-4.56187
11
5.18172
21
-4.56213
0
LINE
8
BLACK
6
CONTINUOUS
10
5.18172
20
-4.56213
11
5.18172
21
-4.57685
0
LINE
8
BLACK
6
CONTINUOUS
10
5.18172
20
-4.57685
11
5.18185
21
-4.57711
0
LINE
8
BLACK
6
CONTINUOUS
10
5.18185
20
-4.57711
11
5.18304
21
-4.57831
0
LINE
8
BLACK
6
CONTINUOUS
10
5.18304
20
-4.57831
11
5.18574
21
-4.57966
0
LINE
8
BLACK
6
CONTINUOUS
10
5.18574
20
-4.57966
11
5.18997
21
-4.57966
0
LINE
8
BLACK
6
CONTINUOUS
10
5.18997
20
-4.57966
11
5.19267
21
-4.57831
0
LINE
8
BLACK
6
CONTINUOUS
10
5.19267
20
-4.57831
11
5.19386
21
-4.57711
0
LINE
8
BLACK
6
CONTINUOUS
10
5.19386
20
-4.57711
11
5.19456
21
-4.57573
0
LINE
8
BLACK
6
CONTINUOUS
10
5.19456
20
-4.57573
11
5.19456
21
-4.56325
0
LINE
8
BLACK
6
CONTINUOUS
10
5.19456
20
-4.56325
11
5.19386
21
-4.56187
0
LINE
8
BLACK
6
CONTINUOUS
10
5.19386
20
-4.56187
11
5.19267
21
-4.56067
0
LINE
8
BLACK
6
CONTINUOUS
10
5.19267
20
-4.56067
11
5.18997
21
-4.55932
0
LINE
8
BLACK
6
CONTINUOUS
10
5.18997
20
-4.55932
11
5.18574
21
-4.55932
0
LINE
8
BLACK
6
CONTINUOUS
10
5.14797
20
-4.57966
11
5.15435
21
-4.57966
0
LINE
8
BLACK
6
CONTINUOUS
10
5.15435
20
-4.57966
11
5.15705
21
-4.57831
0
LINE
8
BLACK
6
CONTINUOUS
10
5.15705
20
-4.57831
11
5.15824
21
-4.57711
0
LINE
8
BLACK
6
CONTINUOUS
10
5.15824
20
-4.57711
11
5.15894
21
-4.57573
0
LINE
8
BLACK
6
CONTINUOUS
10
5.15894
20
-4.57573
11
5.15894
21
-4.57075
0
LINE
8
BLACK
6
CONTINUOUS
10
5.15894
20
-4.57075
11
5.15824
21
-4.56936
0
LINE
8
BLACK
6
CONTINUOUS
10
5.15824
20
-4.56936
11
5.15705
21
-4.56817
0
LINE
8
BLACK
6
CONTINUOUS
10
5.15705
20
-4.56817
11
5.15402
21
-4.56665
0
LINE
8
BLACK
6
CONTINUOUS
10
5.15402
20
-4.56665
11
5.14797
21
-4.56514
0
LINE
8
BLACK
6
CONTINUOUS
10
5.14797
20
-4.56514
11
5.14797
21
-4.57966
0
LINE
8
BLACK
6
CONTINUOUS
10
4.99198
20
-4.55932
11
4.98929
21
-4.56067
0
LINE
8
BLACK
6
CONTINUOUS
10
4.98929
20
-4.56067
11
4.98809
21
-4.56187
0
LINE
8
BLACK
6
CONTINUOUS
10
4.98809
20
-4.56187
11
4.98674
21
-4.56456
0
LINE
8
BLACK
6
CONTINUOUS
10
4.98674
20
-4.56456
11
4.98674
21
-4.57442
0
LINE
8
BLACK
6
CONTINUOUS
10
4.98674
20
-4.57442
11
4.98809
21
-4.57711
0
LINE
8
BLACK
6
CONTINUOUS
10
4.98809
20
-4.57711
11
4.98929
21
-4.57831
0
LINE
8
BLACK
6
CONTINUOUS
10
4.98929
20
-4.57831
11
4.99198
21
-4.57966
0
LINE
8
BLACK
6
CONTINUOUS
10
4.99198
20
-4.57966
11
4.99809
21
-4.57966
0
LINE
8
BLACK
6
CONTINUOUS
10
4.99809
20
-4.57966
11
4.99958
21
-4.57891
0
LINE
8
BLACK
6
CONTINUOUS
10
4.99958
20
-4.57891
11
4.99958
21
-4.56007
0
LINE
8
BLACK
6
CONTINUOUS
10
4.99958
20
-4.56007
11
4.99809
21
-4.55932
0
LINE
8
BLACK
6
CONTINUOUS
10
4.99809
20
-4.55932
11
4.99198
21
-4.55932
0
LINE
8
BLACK
6
CONTINUOUS
10
5.15134
20
-4.55932
11
5.15057
21
-4.5597
0
LINE
8
BLACK
6
CONTINUOUS
10
5.15057
20
-4.5597
11
5.15576
21
-4.561
0
LINE
8
BLACK
6
CONTINUOUS
10
5.15576
20
-4.561
11
5.15623
21
-4.56121
0
LINE
8
BLACK
6
CONTINUOUS
10
5.15623
20
-4.56121
11
5.15637
21
-4.56122
0
LINE
8
BLACK
6
CONTINUOUS
10
5.15637
20
-4.56122
11
5.15882
21
-4.56245
0
LINE
8
BLACK
6
CONTINUOUS
10
5.15882
20
-4.56245
11
5.15781
21
-4.56044
0
LINE
8
BLACK
6
CONTINUOUS
10
5.15781
20
-4.56044
11
5.15557
21
-4.55932
0
LINE
8
BLACK
6
CONTINUOUS
10
5.15557
20
-4.55932
11
5.15134
21
-4.55932
0
LINE
8
BLACK
6
CONTINUOUS
10
4.85295
20
-4.34295
11
4.85295
21
-4.53705
0
LINE
8
BLACK
6
CONTINUOUS
10
4.85295
20
-4.53705
11
5.14705
21
-4.53705
0
LINE
8
BLACK
6
CONTINUOUS
10
5.14705
20
-4.53705
11
5.14705
21
-4.34295
0
LINE
8
BLACK
6
CONTINUOUS
10
5.14705
20
-4.34295
11
4.85295
21
-4.34295
0
LINE
8
BLACK
6
CONTINUOUS
10
5.28354
20
-4.55359
11
5.28368
21
-4.55371
0
LINE
8
BLACK
6
CONTINUOUS
10
5.28368
20
-4.55371
11
5.28385
21
-4.55373
0
LINE
8
BLACK
6
CONTINUOUS
10
5.28385
20
-4.55373
11
5.2876
21
-4.5556
0
LINE
8
BLACK
6
CONTINUOUS
10
5.2876
20
-4.5556
11
5.28842
21
-4.55621
0
LINE
8
BLACK
6
CONTINUOUS
10
5.28842
20
-4.55621
11
5.2886
21
-4.55662
0
LINE
8
BLACK
6
CONTINUOUS
10
5.2886
20
-4.55662
11
5.28892
21
-4.55692
0
LINE
8
BLACK
6
CONTINUOUS
10
5.28892
20
-4.55692
11
5.2908
21
-4.56067
0
LINE
8
BLACK
6
CONTINUOUS
10
5.2908
20
-4.56067
11
5.29109
21
-4.56165
0
LINE
8
BLACK
6
CONTINUOUS
10
5.29109
20
-4.56165
11
5.29105
21
-4.56183
0
LINE
8
BLACK
6
CONTINUOUS
10
5.29105
20
-4.56183
11
5.29111
21
-4.56199
0
LINE
8
BLACK
6
CONTINUOUS
10
5.29111
20
-4.56199
11
5.29111
21
-4.56574
0
LINE
8
BLACK
6
CONTINUOUS
10
5.29111
20
-4.56574
11
5.29093
21
-4.56675
0
LINE
8
BLACK
6
CONTINUOUS
10
5.29093
20
-4.56675
11
5.29062
21
-4.56712
0
LINE
8
BLACK
6
CONTINUOUS
10
5.29062
20
-4.56712
11
5.29046
21
-4.56759
0
LINE
8
BLACK
6
CONTINUOUS
10
5.29046
20
-4.56759
11
5.28999
21
-4.56787
0
LINE
8
BLACK
6
CONTINUOUS
10
5.28999
20
-4.56787
11
5.28963
21
-4.5683
0
LINE
8
BLACK
6
CONTINUOUS
10
5.28963
20
-4.5683
11
5.28915
21
-4.56838
0
LINE
8
BLACK
6
CONTINUOUS
10
5.28915
20
-4.56838
11
5.28873
21
-4.56864
0
LINE
8
BLACK
6
CONTINUOUS
10
5.28873
20
-4.56864
11
5.27236
21
-4.57191
0
LINE
8
BLACK
6
CONTINUOUS
10
5.27236
20
-4.57191
11
5.27236
21
-4.57629
0
LINE
8
BLACK
6
CONTINUOUS
10
5.27236
20
-4.57629
11
5.27348
21
-4.57854
0
LINE
8
BLACK
6
CONTINUOUS
10
5.27348
20
-4.57854
11
5.27573
21
-4.57966
0
LINE
8
BLACK
6
CONTINUOUS
10
5.27573
20
-4.57966
11
5.28183
21
-4.57966
0
LINE
8
BLACK
6
CONTINUOUS
10
5.28183
20
-4.57966
11
5.28496
21
-4.5781
0
LINE
8
BLACK
6
CONTINUOUS
10
5.28496
20
-4.5781
11
5.28594
21
-4.57781
0
LINE
8
BLACK
6
CONTINUOUS
10
5.28594
20
-4.57781
11
5.28791
21
-4.57827
0
LINE
8
BLACK
6
CONTINUOUS
10
5.28791
20
-4.57827
11
5.28911
21
-4.5799
0
LINE
8
BLACK
6
CONTINUOUS
10
5.28911
20
-4.5799
11
5.28899
21
-4.58191
0
LINE
8
BLACK
6
CONTINUOUS
10
5.28899
20
-4.58191
11
5.2876
21
-4.58338
0
LINE
8
BLACK
6
CONTINUOUS
10
5.2876
20
-4.58338
11
5.28754
21
-4.58341
0
LINE
8
BLACK
6
CONTINUOUS
10
5.28754
20
-4.58341
11
5.30237
21
-4.58341
0
LINE
8
BLACK
6
CONTINUOUS
10
5.30237
20
-4.58341
11
5.30208
21
-4.58261
0
LINE
8
BLACK
6
CONTINUOUS
10
5.30208
20
-4.58261
11
5.30208
21
-4.55637
0
LINE
8
BLACK
6
CONTINUOUS
10
5.30208
20
-4.55637
11
5.30225
21
-4.55536
0
LINE
8
BLACK
6
CONTINUOUS
10
5.30225
20
-4.55536
11
5.30355
21
-4.55381
0
LINE
8
BLACK
6
CONTINUOUS
10
5.30355
20
-4.55381
11
5.30554
21
-4.55346
0
LINE
8
BLACK
6
CONTINUOUS
10
5.30554
20
-4.55346
11
5.30729
21
-4.55447
0
LINE
8
BLACK
6
CONTINUOUS
10
5.30729
20
-4.55447
11
5.30766
21
-4.5555
0
LINE
8
BLACK
6
CONTINUOUS
10
5.30766
20
-4.5555
11
5.31121
21
-4.55373
0
LINE
8
BLACK
6
CONTINUOUS
10
5.31121
20
-4.55373
11
5.31219
21
-4.55343
0
LINE
8
BLACK
6
CONTINUOUS
10
5.31219
20
-4.55343
11
5.31236
21
-4.55347
0
LINE
8
BLACK
6
CONTINUOUS
10
5.31236
20
-4.55347
11
5.31253
21
-4.55341
0
LINE
8
BLACK
6
CONTINUOUS
10
5.31253
20
-4.55341
11
5.31628
21
-4.55341
0
LINE
8
BLACK
6
CONTINUOUS
10
5.31628
20
-4.55341
11
5.31729
21
-4.55359
0
LINE
8
BLACK
6
CONTINUOUS
10
5.31729
20
-4.55359
11
5.31883
21
-4.55489
0
LINE
8
BLACK
6
CONTINUOUS
10
5.31883
20
-4.55489
11
5.31918
21
-4.55688
0
LINE
8
BLACK
6
CONTINUOUS
10
5.31918
20
-4.55688
11
5.31817
21
-4.55863
0
LINE
8
BLACK
6
CONTINUOUS
10
5.31817
20
-4.55863
11
5.31628
21
-4.55932
0
LINE
8
BLACK
6
CONTINUOUS
10
5.31628
20
-4.55932
11
5.31322
21
-4.55932
0
LINE
8
BLACK
6
CONTINUOUS
10
5.31322
20
-4.55932
11
5.31053
21
-4.56067
0
LINE
8
BLACK
6
CONTINUOUS
10
5.31053
20
-4.56067
11
5.30933
21
-4.56187
0
LINE
8
BLACK
6
CONTINUOUS
10
5.30933
20
-4.56187
11
5.30798
21
-4.56456
0
LINE
8
BLACK
6
CONTINUOUS
10
5.30798
20
-4.56456
11
5.30798
21
-4.58261
0
LINE
8
BLACK
6
CONTINUOUS
10
5.30798
20
-4.58261
11
5.30784
21
-4.58341
0
LINE
8
BLACK
6
CONTINUOUS
10
5.30784
20
-4.58341
11
5.31187
21
-4.58341
0
LINE
8
BLACK
6
CONTINUOUS
10
5.31187
20
-4.58341
11
5.31288
21
-4.58359
0
LINE
8
BLACK
6
CONTINUOUS
10
5.31288
20
-4.58359
11
5.31443
21
-4.58489
0
LINE
8
BLACK
6
CONTINUOUS
10
5.31443
20
-4.58489
11
5.31478
21
-4.58688
0
LINE
8
BLACK
6
CONTINUOUS
10
5.31478
20
-4.58688
11
5.31377
21
-4.58862
0
LINE
8
BLACK
6
CONTINUOUS
10
5.31377
20
-4.58862
11
5.31187
21
-4.58932
0
LINE
8
BLACK
6
CONTINUOUS
10
5.31187
20
-4.58932
11
5.28187
21
-4.58932
0
LINE
8
BLACK
6
CONTINUOUS
10
5.28187
20
-4.58932
11
5.28086
21
-4.58914
0
LINE
8
BLACK
6
CONTINUOUS
10
5.28086
20
-4.58914
11
5.27932
21
-4.58784
0
LINE
8
BLACK
6
CONTINUOUS
10
5.27932
20
-4.58784
11
5.27897
21
-4.58585
0
LINE
8
BLACK
6
CONTINUOUS
10
5.27897
20
-4.58585
11
5.27913
21
-4.58557
0
LINE
8
BLACK
6
CONTINUOUS
10
5.27913
20
-4.58557
11
5.27503
21
-4.58557
0
LINE
8
BLACK
6
CONTINUOUS
10
5.27503
20
-4.58557
11
5.27402
21
-4.58539
0
LINE
8
BLACK
6
CONTINUOUS
10
5.27402
20
-4.58539
11
5.27389
21
-4.58527
0
LINE
8
BLACK
6
CONTINUOUS
10
5.27389
20
-4.58527
11
5.27371
21
-4.58525
0
LINE
8
BLACK
6
CONTINUOUS
10
5.27371
20
-4.58525
11
5.26996
21
-4.58338
0
LINE
8
BLACK
6
CONTINUOUS
10
5.26996
20
-4.58338
11
5.26973
21
-4.5832
0
LINE
8
BLACK
6
CONTINUOUS
10
5.26973
20
-4.5832
11
5.26965
21
-4.58362
0
LINE
8
BLACK
6
CONTINUOUS
10
5.26965
20
-4.58362
11
5.26835
21
-4.58517
0
LINE
8
BLACK
6
CONTINUOUS
10
5.26835
20
-4.58517
11
5.26636
21
-4.58552
0
LINE
8
BLACK
6
CONTINUOUS
10
5.26636
20
-4.58552
11
5.26461
21
-4.58451
0
LINE
8
BLACK
6
CONTINUOUS
10
5.26461
20
-4.58451
11
5.26392
21
-4.58261
0
LINE
8
BLACK
6
CONTINUOUS
10
5.26392
20
-4.58261
11
5.26392
21
-4.55637
0
LINE
8
BLACK
6
CONTINUOUS
10
5.26392
20
-4.55637
11
5.2641
21
-4.55536
0
LINE
8
BLACK
6
CONTINUOUS
10
5.2641
20
-4.55536
11
5.2654
21
-4.55381
0
LINE
8
BLACK
6
CONTINUOUS
10
5.2654
20
-4.55381
11
5.26739
21
-4.55346
0
LINE
8
BLACK
6
CONTINUOUS
10
5.26739
20
-4.55346
11
5.26914
21
-4.55447
0
LINE
8
BLACK
6
CONTINUOUS
10
5.26914
20
-4.55447
11
5.26951
21
-4.5555
0
LINE
8
BLACK
6
CONTINUOUS
10
5.26951
20
-4.5555
11
5.27306
21
-4.55373
0
LINE
8
BLACK
6
CONTINUOUS
10
5.27306
20
-4.55373
11
5.27404
21
-4.55343
0
LINE
8
BLACK
6
CONTINUOUS
10
5.27404
20
-4.55343
11
5.27421
21
-4.55347
0
LINE
8
BLACK
6
CONTINUOUS
10
5.27421
20
-4.55347
11
5.27438
21
-4.55341
0
LINE
8
BLACK
6
CONTINUOUS
10
5.27438
20
-4.55341
11
5.28253
21
-4.55341
0
LINE
8
BLACK
6
CONTINUOUS
10
5.28253
20
-4.55341
11
5.28354
21
-4.55359
0
LINE
8
BLACK
6
CONTINUOUS
10
5.27573
20
-4.55932
11
5.27348
21
-4.56044
0
LINE
8
BLACK
6
CONTINUOUS
10
5.27348
20
-4.56044
11
5.27236
21
-4.56269
0
LINE
8
BLACK
6
CONTINUOUS
10
5.27236
20
-4.56269
11
5.27236
21
-4.56589
0
LINE
8
BLACK
6
CONTINUOUS
10
5.27236
20
-4.56589
11
5.2852
21
-4.56332
0
LINE
8
BLACK
6
CONTINUOUS
10
5.2852
20
-4.56332
11
5.2852
21
-4.56269
0
LINE
8
BLACK
6
CONTINUOUS
10
5.2852
20
-4.56269
11
5.28408
21
-4.56044
0
LINE
8
BLACK
6
CONTINUOUS
10
5.28408
20
-4.56044
11
5.28183
21
-4.55932
0
LINE
8
BLACK
6
CONTINUOUS
10
5.28183
20
-4.55932
11
5.27573
21
-4.55932
0
LINE
8
BLACK
6
CONTINUOUS
10
5.55473
20
-4.55359
11
5.55486
21
-4.55371
0
LINE
8
BLACK
6
CONTINUOUS
10
5.55486
20
-4.55371
11
5.55504
21
-4.55373
0
LINE
8
BLACK
6
CONTINUOUS
10
5.55504
20
-4.55373
11
5.55879
21
-4.5556
0
LINE
8
BLACK
6
CONTINUOUS
10
5.55879
20
-4.5556
11
5.55961
21
-4.55621
0
LINE
8
BLACK
6
CONTINUOUS
10
5.55961
20
-4.55621
11
5.55979
21
-4.55662
0
LINE
8
BLACK
6
CONTINUOUS
10
5.55979
20
-4.55662
11
5.56011
21
-4.55692
0
LINE
8
BLACK
6
CONTINUOUS
10
5.56011
20
-4.55692
11
5.56198
21
-4.56067
0
LINE
8
BLACK
6
CONTINUOUS
10
5.56198
20
-4.56067
11
5.56227
21
-4.56165
0
LINE
8
BLACK
6
CONTINUOUS
10
5.56227
20
-4.56165
11
5.56223
21
-4.56183
0
LINE
8
BLACK
6
CONTINUOUS
10
5.56223
20
-4.56183
11
5.56229
21
-4.56199
0
LINE
8
BLACK
6
CONTINUOUS
10
5.56229
20
-4.56199
11
5.56229
21
-4.56574
0
LINE
8
BLACK
6
CONTINUOUS
10
5.56229
20
-4.56574
11
5.56211
21
-4.56675
0
LINE
8
BLACK
6
CONTINUOUS
10
5.56211
20
-4.56675
11
5.5618
21
-4.56712
0
LINE
8
BLACK
6
CONTINUOUS
10
5.5618
20
-4.56712
11
5.56164
21
-4.56759
0
LINE
8
BLACK
6
CONTINUOUS
10
5.56164
20
-4.56759
11
5.56117
21
-4.56787
0
LINE
8
BLACK
6
CONTINUOUS
10
5.56117
20
-4.56787
11
5.56082
21
-4.5683
0
LINE
8
BLACK
6
CONTINUOUS
10
5.56082
20
-4.5683
11
5.56034
21
-4.56838
0
LINE
8
BLACK
6
CONTINUOUS
10
5.56034
20
-4.56838
11
5.55992
21
-4.56864
0
LINE
8
BLACK
6
CONTINUOUS
10
5.55992
20
-4.56864
11
5.54355
21
-4.57191
0
LINE
8
BLACK
6
CONTINUOUS
10
5.54355
20
-4.57191
11
5.54355
21
-4.57629
0
LINE
8
BLACK
6
CONTINUOUS
10
5.54355
20
-4.57629
11
5.54467
21
-4.57854
0
LINE
8
BLACK
6
CONTINUOUS
10
5.54467
20
-4.57854
11
5.54691
21
-4.57966
0
LINE
8
BLACK
6
CONTINUOUS
10
5.54691
20
-4.57966
11
5.55302
21
-4.57966
0
LINE
8
BLACK
6
CONTINUOUS
10
5.55302
20
-4.57966
11
5.55614
21
-4.5781
0
LINE
8
BLACK
6
CONTINUOUS
10
5.55614
20
-4.5781
11
5.55713
21
-4.57781
0
LINE
8
BLACK
6
CONTINUOUS
10
5.55713
20
-4.57781
11
5.55909
21
-4.57827
0
LINE
8
BLACK
6
CONTINUOUS
10
5.55909
20
-4.57827
11
5.5603
21
-4.5799
0
LINE
8
BLACK
6
CONTINUOUS
10
5.5603
20
-4.5799
11
5.56017
21
-4.58191
0
LINE
8
BLACK
6
CONTINUOUS
10
5.56017
20
-4.58191
11
5.55879
21
-4.58338
0
LINE
8
BLACK
6
CONTINUOUS
10
5.55879
20
-4.58338
11
5.55872
21
-4.58341
0
LINE
8
BLACK
6
CONTINUOUS
10
5.55872
20
-4.58341
11
5.56187
21
-4.58341
0
LINE
8
BLACK
6
CONTINUOUS
10
5.56187
20
-4.58341
11
5.56288
21
-4.58359
0
LINE
8
BLACK
6
CONTINUOUS
10
5.56288
20
-4.58359
11
5.56443
21
-4.58489
0
LINE
8
BLACK
6
CONTINUOUS
10
5.56443
20
-4.58489
11
5.56478
21
-4.58688
0
LINE
8
BLACK
6
CONTINUOUS
10
5.56478
20
-4.58688
11
5.56377
21
-4.58862
0
LINE
8
BLACK
6
CONTINUOUS
10
5.56377
20
-4.58862
11
5.56187
21
-4.58932
0
LINE
8
BLACK
6
CONTINUOUS
10
5.56187
20
-4.58932
11
5.53187
21
-4.58932
0
LINE
8
BLACK
6
CONTINUOUS
10
5.53187
20
-4.58932
11
5.53086
21
-4.58914
0
LINE
8
BLACK
6
CONTINUOUS
10
5.53086
20
-4.58914
11
5.52932
21
-4.58784
0
LINE
8
BLACK
6
CONTINUOUS
10
5.52932
20
-4.58784
11
5.52897
21
-4.58585
0
LINE
8
BLACK
6
CONTINUOUS
10
5.52897
20
-4.58585
11
5.52998
21
-4.5841
0
LINE
8
BLACK
6
CONTINUOUS
10
5.52998
20
-4.5841
11
5.53187
21
-4.58341
0
LINE
8
BLACK
6
CONTINUOUS
10
5.53187
20
-4.58341
11
5.54121
21
-4.58341
0
LINE
8
BLACK
6
CONTINUOUS
10
5.54121
20
-4.58341
11
5.54115
21
-4.58338
0
LINE
8
BLACK
6
CONTINUOUS
10
5.54115
20
-4.58338
11
5.54032
21
-4.58277
0
LINE
8
BLACK
6
CONTINUOUS
10
5.54032
20
-4.58277
11
5.54015
21
-4.58236
0
LINE
8
BLACK
6
CONTINUOUS
10
5.54015
20
-4.58236
11
5.53983
21
-4.58206
0
LINE
8
BLACK
6
CONTINUOUS
10
5.53983
20
-4.58206
11
5.53795
21
-4.57831
0
LINE
8
BLACK
6
CONTINUOUS
10
5.53795
20
-4.57831
11
5.53766
21
-4.57733
0
LINE
8
BLACK
6
CONTINUOUS
10
5.53766
20
-4.57733
11
5.5377
21
-4.57716
0
LINE
8
BLACK
6
CONTINUOUS
10
5.5377
20
-4.57716
11
5.53764
21
-4.57699
0
LINE
8
BLACK
6
CONTINUOUS
10
5.53764
20
-4.57699
11
5.53764
21
-4.56199
0
LINE
8
BLACK
6
CONTINUOUS
10
5.53764
20
-4.56199
11
5.53782
21
-4.56098
0
LINE
8
BLACK
6
CONTINUOUS
10
5.53782
20
-4.56098
11
5.53793
21
-4.56085
0
LINE
8
BLACK
6
CONTINUOUS
10
5.53793
20
-4.56085
11
5.53795
21
-4.56067
0
LINE
8
BLACK
6
CONTINUOUS
10
5.53795
20
-4.56067
11
5.53983
21
-4.55692
0
LINE
8
BLACK
6
CONTINUOUS
10
5.53983
20
-4.55692
11
5.54044
21
-4.5561
0
LINE
8
BLACK
6
CONTINUOUS
10
5.54044
20
-4.5561
11
5.54084
21
-4.55592
0
LINE
8
BLACK
6
CONTINUOUS
10
5.54084
20
-4.55592
11
5.54115
21
-4.5556
0
LINE
8
BLACK
6
CONTINUOUS
10
5.54115
20
-4.5556
11
5.5449
21
-4.55373
0
LINE
8
BLACK
6
CONTINUOUS
10
5.5449
20
-4.55373
11
5.54588
21
-4.55343
0
LINE
8
BLACK
6
CONTINUOUS
10
5.54588
20
-4.55343
11
5.54605
21
-4.55347
0
LINE
8
BLACK
6
CONTINUOUS
10
5.54605
20
-4.55347
11
5.54622
21
-4.55341
0
LINE
8
BLACK
6
CONTINUOUS
10
5.54622
20
-4.55341
11
5.55372
21
-4.55341
0
LINE
8
BLACK
6
CONTINUOUS
10
5.55372
20
-4.55341
11
5.55473
21
-4.55359
0
LINE
8
BLACK
6
CONTINUOUS
10
5.54691
20
-4.55932
11
5.54467
21
-4.56044
0
LINE
8
BLACK
6
CONTINUOUS
10
5.54467
20
-4.56044
11
5.54355
21
-4.56269
0
LINE
8
BLACK
6
CONTINUOUS
10
5.54355
20
-4.56269
11
5.54355
21
-4.56589
0
LINE
8
BLACK
6
CONTINUOUS
10
5.54355
20
-4.56589
11
5.55639
21
-4.56332
0
LINE
8
BLACK
6
CONTINUOUS
10
5.55639
20
-4.56332
11
5.55639
21
-4.56269
0
LINE
8
BLACK
6
CONTINUOUS
10
5.55639
20
-4.56269
11
5.55526
21
-4.56044
0
LINE
8
BLACK
6
CONTINUOUS
10
5.55526
20
-4.56044
11
5.55302
21
-4.55932
0
LINE
8
BLACK
6
CONTINUOUS
10
5.55302
20
-4.55932
11
5.54691
21
-4.55932
0
LINE
8
BLACK
6
CONTINUOUS
10
5.62155
20
-4.54036
11
5.62172
21
-4.54034
0
LINE
8
BLACK
6
CONTINUOUS
10
5.62172
20
-4.54034
11
5.62246
21
-4.54076
0
LINE
8
BLACK
6
CONTINUOUS
10
5.62246
20
-4.54076
11
5.62325
21
-4.54111
0
LINE
8
BLACK
6
CONTINUOUS
10
5.62325
20
-4.54111
11
5.62332
21
-4.54126
0
LINE
8
BLACK
6
CONTINUOUS
10
5.62332
20
-4.54126
11
5.62347
21
-4.54135
0
LINE
8
BLACK
6
CONTINUOUS
10
5.62347
20
-4.54135
11
5.62376
21
-4.54215
0
LINE
8
BLACK
6
CONTINUOUS
10
5.62376
20
-4.54215
11
5.62414
21
-4.54292
0
LINE
8
BLACK
6
CONTINUOUS
10
5.62414
20
-4.54292
11
5.6241
21
-4.54308
0
LINE
8
BLACK
6
CONTINUOUS
10
5.6241
20
-4.54308
11
5.62416
21
-4.54324
0
LINE
8
BLACK
6
CONTINUOUS
10
5.62416
20
-4.54324
11
5.62416
21
-4.57966
0
LINE
8
BLACK
6
CONTINUOUS
10
5.62416
20
-4.57966
11
5.63246
21
-4.57966
0
LINE
8
BLACK
6
CONTINUOUS
10
5.63246
20
-4.57966
11
5.63347
21
-4.57984
0
LINE
8
BLACK
6
CONTINUOUS
10
5.63347
20
-4.57984
11
5.63501
21
-4.58114
0
LINE
8
BLACK
6
CONTINUOUS
10
5.63501
20
-4.58114
11
5.63536
21
-4.58313
0
LINE
8
BLACK
6
CONTINUOUS
10
5.63536
20
-4.58313
11
5.63435
21
-4.58488
0
LINE
8
BLACK
6
CONTINUOUS
10
5.63435
20
-4.58488
11
5.63246
21
-4.58557
0
LINE
8
BLACK
6
CONTINUOUS
10
5.63246
20
-4.58557
11
5.63204
21
-4.58557
0
LINE
8
BLACK
6
CONTINUOUS
10
5.63204
20
-4.58557
11
5.63227
21
-4.58688
0
LINE
8
BLACK
6
CONTINUOUS
10
5.63227
20
-4.58688
11
5.63126
21
-4.58862
0
LINE
8
BLACK
6
CONTINUOUS
10
5.63126
20
-4.58862
11
5.62936
21
-4.58932
0
LINE
8
BLACK
6
CONTINUOUS
10
5.62936
20
-4.58932
11
5.59937
21
-4.58932
0
LINE
8
BLACK
6
CONTINUOUS
10
5.59937
20
-4.58932
11
5.59836
21
-4.58914
0
LINE
8
BLACK
6
CONTINUOUS
10
5.59836
20
-4.58914
11
5.59681
21
-4.58784
0
LINE
8
BLACK
6
CONTINUOUS
10
5.59681
20
-4.58784
11
5.59646
21
-4.58585
0
LINE
8
BLACK
6
CONTINUOUS
10
5.59646
20
-4.58585
11
5.59747
21
-4.5841
0
LINE
8
BLACK
6
CONTINUOUS
10
5.59747
20
-4.5841
11
5.59937
21
-4.58341
0
LINE
8
BLACK
6
CONTINUOUS
10
5.59937
20
-4.58341
11
5.60728
21
-4.58341
0
LINE
8
BLACK
6
CONTINUOUS
10
5.60728
20
-4.58341
11
5.60705
21
-4.5821
0
LINE
8
BLACK
6
CONTINUOUS
10
5.60705
20
-4.5821
11
5.60806
21
-4.58035
0
LINE
8
BLACK
6
CONTINUOUS
10
5.60806
20
-4.58035
11
5.60996
21
-4.57966
0
LINE
8
BLACK
6
CONTINUOUS
10
5.60996
20
-4.57966
11
5.61825
21
-4.57966
0
LINE
8
BLACK
6
CONTINUOUS
10
5.61825
20
-4.57966
11
5.61825
21
-4.55225
0
LINE
8
BLACK
6
CONTINUOUS
10
5.61825
20
-4.55225
11
5.6158
21
-4.55471
0
LINE
8
BLACK
6
CONTINUOUS
10
5.6158
20
-4.55471
11
5.61507
21
-4.55521
0
LINE
8
BLACK
6
CONTINUOUS
10
5.61507
20
-4.55521
11
5.61503
21
-4.55526
0
LINE
8
BLACK
6
CONTINUOUS
10
5.61503
20
-4.55526
11
5.61128
21
-4.55713
0
LINE
8
BLACK
6
CONTINUOUS
10
5.61128
20
-4.55713
11
5.6103
21
-4.55743
0
LINE
8
BLACK
6
CONTINUOUS
10
5.6103
20
-4.55743
11
5.60833
21
-4.55696
0
LINE
8
BLACK
6
CONTINUOUS
10
5.60833
20
-4.55696
11
5.60713
21
-4.55533
0
LINE
8
BLACK
6
CONTINUOUS
10
5.60713
20
-4.55533
11
5.60725
21
-4.55332
0
LINE
8
BLACK
6
CONTINUOUS
10
5.60725
20
-4.55332
11
5.60864
21
-4.55185
0
LINE
8
BLACK
6
CONTINUOUS
10
5.60864
20
-4.55185
11
5.61196
21
-4.55019
0
LINE
8
BLACK
6
CONTINUOUS
10
5.61196
20
-4.55019
11
5.61516
21
-4.54699
0
LINE
8
BLACK
6
CONTINUOUS
10
5.61516
20
-4.54699
11
5.61875
21
-4.54161
0
LINE
8
BLACK
6
CONTINUOUS
10
5.61875
20
-4.54161
11
5.61946
21
-4.54086
0
LINE
8
BLACK
6
CONTINUOUS
10
5.61946
20
-4.54086
11
5.61962
21
-4.54082
0
LINE
8
BLACK
6
CONTINUOUS
10
5.61962
20
-4.54082
11
5.61973
21
-4.54069
0
LINE
8
BLACK
6
CONTINUOUS
10
5.61973
20
-4.54069
11
5.62057
21
-4.54054
0
LINE
8
BLACK
6
CONTINUOUS
10
5.62057
20
-4.54054
11
5.6214
21
-4.5403
0
LINE
8
BLACK
6
CONTINUOUS
10
5.6214
20
-4.5403
11
5.62155
21
-4.54036
0
LINE
8
BLACK
6
CONTINUOUS
10
5.37853
20
-4.55447
11
5.37922
21
-4.55637
0
LINE
8
BLACK
6
CONTINUOUS
10
5.37922
20
-4.55637
11
5.37922
21
-4.58261
0
LINE
8
BLACK
6
CONTINUOUS
10
5.37922
20
-4.58261
11
5.37908
21
-4.58341
0
LINE
8
BLACK
6
CONTINUOUS
10
5.37908
20
-4.58341
11
5.37936
21
-4.58341
0
LINE
8
BLACK
6
CONTINUOUS
10
5.37936
20
-4.58341
11
5.38037
21
-4.58359
0
LINE
8
BLACK
6
CONTINUOUS
10
5.38037
20
-4.58359
11
5.38192
21
-4.58489
0
LINE
8
BLACK
6
CONTINUOUS
10
5.38192
20
-4.58489
11
5.38227
21
-4.58688
0
LINE
8
BLACK
6
CONTINUOUS
10
5.38227
20
-4.58688
11
5.38126
21
-4.58862
0
LINE
8
BLACK
6
CONTINUOUS
10
5.38126
20
-4.58862
11
5.37936
21
-4.58932
0
LINE
8
BLACK
6
CONTINUOUS
10
5.37936
20
-4.58932
11
5.34937
21
-4.58932
0
LINE
8
BLACK
6
CONTINUOUS
10
5.34937
20
-4.58932
11
5.34836
21
-4.58914
0
LINE
8
BLACK
6
CONTINUOUS
10
5.34836
20
-4.58914
11
5.34681
21
-4.58784
0
LINE
8
BLACK
6
CONTINUOUS
10
5.34681
20
-4.58784
11
5.34646
21
-4.58585
0
LINE
8
BLACK
6
CONTINUOUS
10
5.34646
20
-4.58585
11
5.34747
21
-4.5841
0
LINE
8
BLACK
6
CONTINUOUS
10
5.34747
20
-4.5841
11
5.34937
21
-4.58341
0
LINE
8
BLACK
6
CONTINUOUS
10
5.34937
20
-4.58341
11
5.36001
21
-4.58341
0
LINE
8
BLACK
6
CONTINUOUS
10
5.36001
20
-4.58341
11
5.35995
21
-4.58338
0
LINE
8
BLACK
6
CONTINUOUS
10
5.35995
20
-4.58338
11
5.35913
21
-4.58277
0
LINE
8
BLACK
6
CONTINUOUS
10
5.35913
20
-4.58277
11
5.35895
21
-4.58236
0
LINE
8
BLACK
6
CONTINUOUS
10
5.35895
20
-4.58236
11
5.35863
21
-4.58206
0
LINE
8
BLACK
6
CONTINUOUS
10
5.35863
20
-4.58206
11
5.35676
21
-4.57831
0
LINE
8
BLACK
6
CONTINUOUS
10
5.35676
20
-4.57831
11
5.35646
21
-4.57733
0
LINE
8
BLACK
6
CONTINUOUS
10
5.35646
20
-4.57733
11
5.3565
21
-4.57716
0
LINE
8
BLACK
6
CONTINUOUS
10
5.3565
20
-4.57716
11
5.35644
21
-4.57699
0
LINE
8
BLACK
6
CONTINUOUS
10
5.35644
20
-4.57699
11
5.35644
21
-4.55637
0
LINE
8
BLACK
6
CONTINUOUS
10
5.35644
20
-4.55637
11
5.35662
21
-4.55536
0
LINE
8
BLACK
6
CONTINUOUS
10
5.35662
20
-4.55536
11
5.35792
21
-4.55381
0
LINE
8
BLACK
6
CONTINUOUS
10
5.35792
20
-4.55381
11
5.35991
21
-4.55346
0
LINE
8
BLACK
6
CONTINUOUS
10
5.35991
20
-4.55346
11
5.36166
21
-4.55447
0
LINE
8
BLACK
6
CONTINUOUS
10
5.36166
20
-4.55447
11
5.36235
21
-4.55637
0
LINE
8
BLACK
6
CONTINUOUS
10
5.36235
20
-4.55637
11
5.36235
21
-4.57629
0
LINE
8
BLACK
6
CONTINUOUS
10
5.36235
20
-4.57629
11
5.36347
21
-4.57854
0
LINE
8
BLACK
6
CONTINUOUS
10
5.36347
20
-4.57854
11
5.36572
21
-4.57966
0
LINE
8
BLACK
6
CONTINUOUS
10
5.36572
20
-4.57966
11
5.36995
21
-4.57966
0
LINE
8
BLACK
6
CONTINUOUS
10
5.36995
20
-4.57966
11
5.37265
21
-4.57831
0
LINE
8
BLACK
6
CONTINUOUS
10
5.37265
20
-4.57831
11
5.37332
21
-4.57764
0
LINE
8
BLACK
6
CONTINUOUS
10
5.37332
20
-4.57764
11
5.37332
21
-4.55637
0
LINE
8
BLACK
6
CONTINUOUS
10
5.37332
20
-4.55637
11
5.37349
21
-4.55536
0
LINE
8
BLACK
6
CONTINUOUS
10
5.37349
20
-4.55536
11
5.37479
21
-4.55381
0
LINE
8
BLACK
6
CONTINUOUS
10
5.37479
20
-4.55381
11
5.37678
21
-4.55346
0
LINE
8
BLACK
6
CONTINUOUS
10
5.37678
20
-4.55346
11
5.37853
21
-4.55447
0
LINE
8
BLACK
6
CONTINUOUS
10
5.91346
20
-4.54047
11
5.9136
21
-4.54058
0
LINE
8
BLACK
6
CONTINUOUS
10
5.9136
20
-4.54058
11
5.91377
21
-4.5406
0
LINE
8
BLACK
6
CONTINUOUS
10
5.91377
20
-4.5406
11
5.91752
21
-4.54248
0
LINE
8
BLACK
6
CONTINUOUS
10
5.91752
20
-4.54248
11
5.91823
21
-4.543
0
LINE
8
BLACK
6
CONTINUOUS
10
5.91823
20
-4.543
11
5.91829
21
-4.54303
0
LINE
8
BLACK
6
CONTINUOUS
10
5.91829
20
-4.54303
11
5.92016
21
-4.5449
0
LINE
8
BLACK
6
CONTINUOUS
10
5.92016
20
-4.5449
11
5.92067
21
-4.54563
0
LINE
8
BLACK
6
CONTINUOUS
10
5.92067
20
-4.54563
11
5.92072
21
-4.54567
0
LINE
8
BLACK
6
CONTINUOUS
10
5.92072
20
-4.54567
11
5.92259
21
-4.54942
0
LINE
8
BLACK
6
CONTINUOUS
10
5.92259
20
-4.54942
11
5.92288
21
-4.5504
0
LINE
8
BLACK
6
CONTINUOUS
10
5.92288
20
-4.5504
11
5.92284
21
-4.55058
0
LINE
8
BLACK
6
CONTINUOUS
10
5.92284
20
-4.55058
11
5.9229
21
-4.55074
0
LINE
8
BLACK
6
CONTINUOUS
10
5.9229
20
-4.55074
11
5.9229
21
-4.55449
0
LINE
8
BLACK
6
CONTINUOUS
10
5.9229
20
-4.55449
11
5.92275
21
-4.55536
0
LINE
8
BLACK
6
CONTINUOUS
10
5.92275
20
-4.55536
11
5.92275
21
-4.55543
0
LINE
8
BLACK
6
CONTINUOUS
10
5.92275
20
-4.55543
11
5.92088
21
-4.56105
0
LINE
8
BLACK
6
CONTINUOUS
10
5.92088
20
-4.56105
11
5.92039
21
-4.56195
0
LINE
8
BLACK
6
CONTINUOUS
10
5.92039
20
-4.56195
11
5.92024
21
-4.56204
0
LINE
8
BLACK
6
CONTINUOUS
10
5.92024
20
-4.56204
11
5.92016
21
-4.5622
0
LINE
8
BLACK
6
CONTINUOUS
10
5.92016
20
-4.5622
11
5.90271
21
-4.57966
0
LINE
8
BLACK
6
CONTINUOUS
10
5.90271
20
-4.57966
11
5.91995
21
-4.57966
0
LINE
8
BLACK
6
CONTINUOUS
10
5.91995
20
-4.57966
11
5.92096
21
-4.57984
0
LINE
8
BLACK
6
CONTINUOUS
10
5.92096
20
-4.57984
11
5.92251
21
-4.58114
0
LINE
8
BLACK
6
CONTINUOUS
10
5.92251
20
-4.58114
11
5.92286
21
-4.58313
0
LINE
8
BLACK
6
CONTINUOUS
10
5.92286
20
-4.58313
11
5.92185
21
-4.58488
0
LINE
8
BLACK
6
CONTINUOUS
10
5.92185
20
-4.58488
11
5.91995
21
-4.58557
0
LINE
8
BLACK
6
CONTINUOUS
10
5.91995
20
-4.58557
11
5.89558
21
-4.58557
0
LINE
8
BLACK
6
CONTINUOUS
10
5.89558
20
-4.58557
11
5.89494
21
-4.58545
0
LINE
8
BLACK
6
CONTINUOUS
10
5.89494
20
-4.58545
11
5.89482
21
-4.58547
0
LINE
8
BLACK
6
CONTINUOUS
10
5.89482
20
-4.58547
11
5.89475
21
-4.58542
0
LINE
8
BLACK
6
CONTINUOUS
10
5.89475
20
-4.58542
11
5.89457
21
-4.58539
0
LINE
8
BLACK
6
CONTINUOUS
10
5.89457
20
-4.58539
11
5.89389
21
-4.58482
0
LINE
8
BLACK
6
CONTINUOUS
10
5.89389
20
-4.58482
11
5.89316
21
-4.58431
0
LINE
8
BLACK
6
CONTINUOUS
10
5.89316
20
-4.58431
11
5.89313
21
-4.58418
0
LINE
8
BLACK
6
CONTINUOUS
10
5.89313
20
-4.58418
11
5.89302
21
-4.58409
0
LINE
8
BLACK
6
CONTINUOUS
10
5.89302
20
-4.58409
11
5.89287
21
-4.58321
0
LINE
8
BLACK
6
CONTINUOUS
10
5.89287
20
-4.58321
11
5.89264
21
-4.58236
0
LINE
8
BLACK
6
CONTINUOUS
10
5.89264
20
-4.58236
11
5.89269
21
-4.58223
0
LINE
8
BLACK
6
CONTINUOUS
10
5.89269
20
-4.58223
11
5.89267
21
-4.5821
0
LINE
8
BLACK
6
CONTINUOUS
10
5.89267
20
-4.5821
11
5.89312
21
-4.58133
0
LINE
8
BLACK
6
CONTINUOUS
10
5.89312
20
-4.58133
11
5.89349
21
-4.58053
0
LINE
8
BLACK
6
CONTINUOUS
10
5.89349
20
-4.58053
11
5.9155
21
-4.55852
0
LINE
8
BLACK
6
CONTINUOUS
10
5.9155
20
-4.55852
11
5.917
21
-4.55401
0
LINE
8
BLACK
6
CONTINUOUS
10
5.917
20
-4.55401
11
5.917
21
-4.55144
0
LINE
8
BLACK
6
CONTINUOUS
10
5.917
20
-4.55144
11
5.91565
21
-4.54874
0
LINE
8
BLACK
6
CONTINUOUS
10
5.91565
20
-4.54874
11
5.91445
21
-4.54754
0
LINE
8
BLACK
6
CONTINUOUS
10
5.91445
20
-4.54754
11
5.91176
21
-4.5462
0
LINE
8
BLACK
6
CONTINUOUS
10
5.91176
20
-4.5462
11
5.90378
21
-4.5462
0
LINE
8
BLACK
6
CONTINUOUS
10
5.90378
20
-4.5462
11
5.90108
21
-4.54754
0
LINE
8
BLACK
6
CONTINUOUS
10
5.90108
20
-4.54754
11
5.89954
21
-4.54908
0
LINE
8
BLACK
6
CONTINUOUS
10
5.89954
20
-4.54908
11
5.8987
21
-4.54967
0
LINE
8
BLACK
6
CONTINUOUS
10
5.8987
20
-4.54967
11
5.89669
21
-4.54985
0
LINE
8
BLACK
6
CONTINUOUS
10
5.89669
20
-4.54985
11
5.89504
21
-4.54869
0
LINE
8
BLACK
6
CONTINUOUS
10
5.89504
20
-4.54869
11
5.89451
21
-4.54674
0
LINE
8
BLACK
6
CONTINUOUS
10
5.89451
20
-4.54674
11
5.89537
21
-4.5449
0
LINE
8
BLACK
6
CONTINUOUS
10
5.89537
20
-4.5449
11
5.89724
21
-4.54303
0
LINE
8
BLACK
6
CONTINUOUS
10
5.89724
20
-4.54303
11
5.89796
21
-4.54252
0
LINE
8
BLACK
6
CONTINUOUS
10
5.89796
20
-4.54252
11
5.89801
21
-4.54248
0
LINE
8
BLACK
6
CONTINUOUS
10
5.89801
20
-4.54248
11
5.90176
21
-4.5406
0
LINE
8
BLACK
6
CONTINUOUS
10
5.90176
20
-4.5406
11
5.90274
21
-4.54031
0
LINE
8
BLACK
6
CONTINUOUS
10
5.90274
20
-4.54031
11
5.90291
21
-4.54035
0
LINE
8
BLACK
6
CONTINUOUS
10
5.90291
20
-4.54035
11
5.90308
21
-4.54029
0
LINE
8
BLACK
6
CONTINUOUS
10
5.90308
20
-4.54029
11
5.91245
21
-4.54029
0
LINE
8
BLACK
6
CONTINUOUS
10
5.91245
20
-4.54029
11
5.91346
21
-4.54047
0
LINE
8
BLACK
6
CONTINUOUS
10
5.40287
20
-4.54047
11
5.403
21
-4.54058
0
LINE
8
BLACK
6
CONTINUOUS
10
5.403
20
-4.54058
11
5.40318
21
-4.5406
0
LINE
8
BLACK
6
CONTINUOUS
10
5.40318
20
-4.5406
11
5.40693
21
-4.54248
0
LINE
8
BLACK
6
CONTINUOUS
10
5.40693
20
-4.54248
11
5.40764
21
-4.543
0
LINE
8
BLACK
6
CONTINUOUS
10
5.40764
20
-4.543
11
5.4077
21
-4.54303
0
LINE
8
BLACK
6
CONTINUOUS
10
5.4077
20
-4.54303
11
5.40957
21
-4.5449
0
LINE
8
BLACK
6
CONTINUOUS
10
5.40957
20
-4.5449
11
5.41008
21
-4.54563
0
LINE
8
BLACK
6
CONTINUOUS
10
5.41008
20
-4.54563
11
5.41013
21
-4.54567
0
LINE
8
BLACK
6
CONTINUOUS
10
5.41013
20
-4.54567
11
5.412
21
-4.54942
0
LINE
8
BLACK
6
CONTINUOUS
10
5.412
20
-4.54942
11
5.41229
21
-4.5504
0
LINE
8
BLACK
6
CONTINUOUS
10
5.41229
20
-4.5504
11
5.41225
21
-4.55058
0
LINE
8
BLACK
6
CONTINUOUS
10
5.41225
20
-4.55058
11
5.41231
21
-4.55074
0
LINE
8
BLACK
6
CONTINUOUS
10
5.41231
20
-4.55074
11
5.41231
21
-4.55449
0
LINE
8
BLACK
6
CONTINUOUS
10
5.41231
20
-4.55449
11
5.41213
21
-4.5555
0
LINE
8
BLACK
6
CONTINUOUS
10
5.41213
20
-4.5555
11
5.41202
21
-4.55564
0
LINE
8
BLACK
6
CONTINUOUS
10
5.41202
20
-4.55564
11
5.412
21
-4.55581
0
LINE
8
BLACK
6
CONTINUOUS
10
5.412
20
-4.55581
11
5.4119
21
-4.55602
0
LINE
8
BLACK
6
CONTINUOUS
10
5.4119
20
-4.55602
11
5.41191
21
-4.55602
0
LINE
8
BLACK
6
CONTINUOUS
10
5.41191
20
-4.55602
11
5.41214
21
-4.55592
0
LINE
8
BLACK
6
CONTINUOUS
10
5.41214
20
-4.55592
11
5.41244
21
-4.5556
0
LINE
8
BLACK
6
CONTINUOUS
10
5.41244
20
-4.5556
11
5.41619
21
-4.55373
0
LINE
8
BLACK
6
CONTINUOUS
10
5.41619
20
-4.55373
11
5.41718
21
-4.55343
0
LINE
8
BLACK
6
CONTINUOUS
10
5.41718
20
-4.55343
11
5.41735
21
-4.55347
0
LINE
8
BLACK
6
CONTINUOUS
10
5.41735
20
-4.55347
11
5.41751
21
-4.55341
0
LINE
8
BLACK
6
CONTINUOUS
10
5.41751
20
-4.55341
11
5.42314
21
-4.55341
0
LINE
8
BLACK
6
CONTINUOUS
10
5.42314
20
-4.55341
11
5.42415
21
-4.55359
0
LINE
8
BLACK
6
CONTINUOUS
10
5.42415
20
-4.55359
11
5.42428
21
-4.55371
0
LINE
8
BLACK
6
CONTINUOUS
10
5.42428
20
-4.55371
11
5.42446
21
-4.55373
0
LINE
8
BLACK
6
CONTINUOUS
10
5.42446
20
-4.55373
11
5.42604
21
-4.55452
0
LINE
8
BLACK
6
CONTINUOUS
10
5.42604
20
-4.55452
11
5.42663
21
-4.55381
0
LINE
8
BLACK
6
CONTINUOUS
10
5.42663
20
-4.55381
11
5.42862
21
-4.55346
0
LINE
8
BLACK
6
CONTINUOUS
10
5.42862
20
-4.55346
11
5.43037
21
-4.55447
0
LINE
8
BLACK
6
CONTINUOUS
10
5.43037
20
-4.55447
11
5.43074
21
-4.5555
0
LINE
8
BLACK
6
CONTINUOUS
10
5.43074
20
-4.5555
11
5.43429
21
-4.55373
0
LINE
8
BLACK
6
CONTINUOUS
10
5.43429
20
-4.55373
11
5.43527
21
-4.55343
0
LINE
8
BLACK
6
CONTINUOUS
10
5.43527
20
-4.55343
11
5.43544
21
-4.55347
0
LINE
8
BLACK
6
CONTINUOUS
10
5.43544
20
-4.55347
11
5.43561
21
-4.55341
0
LINE
8
BLACK
6
CONTINUOUS
10
5.43561
20
-4.55341
11
5.43936
21
-4.55341
0
LINE
8
BLACK
6
CONTINUOUS
10
5.43936
20
-4.55341
11
5.44036
21
-4.55359
0
LINE
8
BLACK
6
CONTINUOUS
10
5.44036
20
-4.55359
11
5.44191
21
-4.55489
0
LINE
8
BLACK
6
CONTINUOUS
10
5.44191
20
-4.55489
11
5.44226
21
-4.55688
0
LINE
8
BLACK
6
CONTINUOUS
10
5.44226
20
-4.55688
11
5.44125
21
-4.55863
0
LINE
8
BLACK
6
CONTINUOUS
10
5.44125
20
-4.55863
11
5.43936
21
-4.55932
0
LINE
8
BLACK
6
CONTINUOUS
10
5.43936
20
-4.55932
11
5.4363
21
-4.55932
0
LINE
8
BLACK
6
CONTINUOUS
10
5.4363
20
-4.55932
11
5.43361
21
-4.56067
0
LINE
8
BLACK
6
CONTINUOUS
10
5.43361
20
-4.56067
11
5.43241
21
-4.56187
0
LINE
8
BLACK
6
CONTINUOUS
10
5.43241
20
-4.56187
11
5.43172
21
-4.56325
0
LINE
8
BLACK
6
CONTINUOUS
10
5.43172
20
-4.56325
11
5.43172
21
-4.58261
0
LINE
8
BLACK
6
CONTINUOUS
10
5.43172
20
-4.58261
11
5.43154
21
-4.58362
0
LINE
8
BLACK
6
CONTINUOUS
10
5.43154
20
-4.58362
11
5.43024
21
-4.58517
0
LINE
8
BLACK
6
CONTINUOUS
10
5.43024
20
-4.58517
11
5.42825
21
-4.58552
0
LINE
8
BLACK
6
CONTINUOUS
10
5.42825
20
-4.58552
11
5.4281
21
-4.58543
0
LINE
8
BLACK
6
CONTINUOUS
10
5.4281
20
-4.58543
11
5.42759
21
-4.58552
0
LINE
8
BLACK
6
CONTINUOUS
10
5.42759
20
-4.58552
11
5.42584
21
-4.58451
0
LINE
8
BLACK
6
CONTINUOUS
10
5.42584
20
-4.58451
11
5.42515
21
-4.58261
0
LINE
8
BLACK
6
CONTINUOUS
10
5.42515
20
-4.58261
11
5.42515
21
-4.56138
0
LINE
8
BLACK
6
CONTINUOUS
10
5.42515
20
-4.56138
11
5.42469
21
-4.56044
0
LINE
8
BLACK
6
CONTINUOUS
10
5.42469
20
-4.56044
11
5.42244
21
-4.55932
0
LINE
8
BLACK
6
CONTINUOUS
10
5.42244
20
-4.55932
11
5.41821
21
-4.55932
0
LINE
8
BLACK
6
CONTINUOUS
10
5.41821
20
-4.55932
11
5.41597
21
-4.56044
0
LINE
8
BLACK
6
CONTINUOUS
10
5.41597
20
-4.56044
11
5.41484
21
-4.56269
0
LINE
8
BLACK
6
CONTINUOUS
10
5.41484
20
-4.56269
11
5.41484
21
-4.58261
0
LINE
8
BLACK
6
CONTINUOUS
10
5.41484
20
-4.58261
11
5.41466
21
-4.58362
0
LINE
8
BLACK
6
CONTINUOUS
10
5.41466
20
-4.58362
11
5.41337
21
-4.58517
0
LINE
8
BLACK
6
CONTINUOUS
10
5.41337
20
-4.58517
11
5.41138
21
-4.58552
0
LINE
8
BLACK
6
CONTINUOUS
10
5.41138
20
-4.58552
11
5.40963
21
-4.58451
0
LINE
8
BLACK
6
CONTINUOUS
10
5.40963
20
-4.58451
11
5.40913
21
-4.58314
0
LINE
8
BLACK
6
CONTINUOUS
10
5.40913
20
-4.58314
11
5.40885
21
-4.58333
0
LINE
8
BLACK
6
CONTINUOUS
10
5.40885
20
-4.58333
11
5.4088
21
-4.58338
0
LINE
8
BLACK
6
CONTINUOUS
10
5.4088
20
-4.58338
11
5.40506
21
-4.58525
0
LINE
8
BLACK
6
CONTINUOUS
10
5.40506
20
-4.58525
11
5.40407
21
-4.58555
0
LINE
8
BLACK
6
CONTINUOUS
10
5.40407
20
-4.58555
11
5.4039
21
-4.58551
0
LINE
8
BLACK
6
CONTINUOUS
10
5.4039
20
-4.58551
11
5.40373
21
-4.58557
0
LINE
8
BLACK
6
CONTINUOUS
10
5.40373
20
-4.58557
11
5.38874
21
-4.58557
0
LINE
8
BLACK
6
CONTINUOUS
10
5.38874
20
-4.58557
11
5.38835
21
-4.5855
0
LINE
8
BLACK
6
CONTINUOUS
10
5.38835
20
-4.5855
11
5.38822
21
-4.58552
0
LINE
8
BLACK
6
CONTINUOUS
10
5.38822
20
-4.58552
11
5.38811
21
-4.58546
0
LINE
8
BLACK
6
CONTINUOUS
10
5.38811
20
-4.58546
11
5.38773
21
-4.58539
0
LINE
8
BLACK
6
CONTINUOUS
10
5.38773
20
-4.58539
11
5.38714
21
-4.58489
0
LINE
8
BLACK
6
CONTINUOUS
10
5.38714
20
-4.58489
11
5.38647
21
-4.58451
0
LINE
8
BLACK
6
CONTINUOUS
10
5.38647
20
-4.58451
11
5.38638
21
-4.58426
0
LINE
8
BLACK
6
CONTINUOUS
10
5.38638
20
-4.58426
11
5.38618
21
-4.58409
0
LINE
8
BLACK
6
CONTINUOUS
10
5.38618
20
-4.58409
11
5.38605
21
-4.58333
0
LINE
8
BLACK
6
CONTINUOUS
10
5.38605
20
-4.58333
11
5.38578
21
-4.58261
0
LINE
8
BLACK
6
CONTINUOUS
10
5.38578
20
-4.58261
11
5.38578
21
-4.54324
0
LINE
8
BLACK
6
CONTINUOUS
10
5.38578
20
-4.54324
11
5.38585
21
-4.54286
0
LINE
8
BLACK
6
CONTINUOUS
10
5.38585
20
-4.54286
11
5.38583
21
-4.54273
0
LINE
8
BLACK
6
CONTINUOUS
10
5.38583
20
-4.54273
11
5.38589
21
-4.54262
0
LINE
8
BLACK
6
CONTINUOUS
10
5.38589
20
-4.54262
11
5.38596
21
-4.54223
0
LINE
8
BLACK
6
CONTINUOUS
10
5.38596
20
-4.54223
11
5.38645
21
-4.54165
0
LINE
8
BLACK
6
CONTINUOUS
10
5.38645
20
-4.54165
11
5.38684
21
-4.54098
0
LINE
8
BLACK
6
CONTINUOUS
10
5.38684
20
-4.54098
11
5.38709
21
-4.54089
0
LINE
8
BLACK
6
CONTINUOUS
10
5.38709
20
-4.54089
11
5.38726
21
-4.54069
0
LINE
8
BLACK
6
CONTINUOUS
10
5.38726
20
-4.54069
11
5.38802
21
-4.54055
0
LINE
8
BLACK
6
CONTINUOUS
10
5.38802
20
-4.54055
11
5.38874
21
-4.54029
0
LINE
8
BLACK
6
CONTINUOUS
10
5.38874
20
-4.54029
11
5.40186
21
-4.54029
0
LINE
8
BLACK
6
CONTINUOUS
10
5.40186
20
-4.54029
11
5.40287
21
-4.54047
0
LINE
8
BLACK
6
CONTINUOUS
10
5.39169
20
-4.56494
11
5.39169
21
-4.57966
0
LINE
8
BLACK
6
CONTINUOUS
10
5.39169
20
-4.57966
11
5.39206
21
-4.57966
0
LINE
8
BLACK
6
CONTINUOUS
10
5.39206
20
-4.57966
11
5.39206
21
-4.56494
0
LINE
8
BLACK
6
CONTINUOUS
10
5.39206
20
-4.56494
11
5.39169
21
-4.56494
0
LINE
8
BLACK
6
CONTINUOUS
10
5.39797
20
-4.56494
11
5.39797
21
-4.57966
0
LINE
8
BLACK
6
CONTINUOUS
10
5.39797
20
-4.57966
11
5.40304
21
-4.57966
0
LINE
8
BLACK
6
CONTINUOUS
10
5.40304
20
-4.57966
11
5.40573
21
-4.57831
0
LINE
8
BLACK
6
CONTINUOUS
10
5.40573
20
-4.57831
11
5.40693
21
-4.57711
0
LINE
8
BLACK
6
CONTINUOUS
10
5.40693
20
-4.57711
11
5.40828
21
-4.57442
0
LINE
8
BLACK
6
CONTINUOUS
10
5.40828
20
-4.57442
11
5.40828
21
-4.57019
0
LINE
8
BLACK
6
CONTINUOUS
10
5.40828
20
-4.57019
11
5.40693
21
-4.56749
0
LINE
8
BLACK
6
CONTINUOUS
10
5.40693
20
-4.56749
11
5.40589
21
-4.56645
0
LINE
8
BLACK
6
CONTINUOUS
10
5.40589
20
-4.56645
11
5.40138
21
-4.56494
0
LINE
8
BLACK
6
CONTINUOUS
10
5.40138
20
-4.56494
11
5.39797
21
-4.56494
0
LINE
8
BLACK
6
CONTINUOUS
10
5.39169
20
-4.5462
11
5.39169
21
-4.55904
0
LINE
8
BLACK
6
CONTINUOUS
10
5.39169
20
-4.55904
11
5.39206
21
-4.55904
0
LINE
8
BLACK
6
CONTINUOUS
10
5.39206
20
-4.55904
11
5.39206
21
-4.55637
0
LINE
8
BLACK
6
CONTINUOUS
10
5.39206
20
-4.55637
11
5.39224
21
-4.55536
0
LINE
8
BLACK
6
CONTINUOUS
10
5.39224
20
-4.55536
11
5.39354
21
-4.55381
0
LINE
8
BLACK
6
CONTINUOUS
10
5.39354
20
-4.55381
11
5.39553
21
-4.55346
0
LINE
8
BLACK
6
CONTINUOUS
10
5.39553
20
-4.55346
11
5.39728
21
-4.55447
0
LINE
8
BLACK
6
CONTINUOUS
10
5.39728
20
-4.55447
11
5.39736
21
-4.5547
0
LINE
8
BLACK
6
CONTINUOUS
10
5.39736
20
-4.5547
11
5.39932
21
-4.55373
0
LINE
8
BLACK
6
CONTINUOUS
10
5.39932
20
-4.55373
11
5.4003
21
-4.55343
0
LINE
8
BLACK
6
CONTINUOUS
10
5.4003
20
-4.55343
11
5.40048
21
-4.55347
0
LINE
8
BLACK
6
CONTINUOUS
10
5.40048
20
-4.55347
11
5.40064
21
-4.55341
0
LINE
8
BLACK
6
CONTINUOUS
10
5.40064
20
-4.55341
11
5.40627
21
-4.55341
0
LINE
8
BLACK
6
CONTINUOUS
10
5.40627
20
-4.55341
11
5.40641
21
-4.55344
0
LINE
8
BLACK
6
CONTINUOUS
10
5.40641
20
-4.55344
11
5.40641
21
-4.55144
0
LINE
8
BLACK
6
CONTINUOUS
10
5.40641
20
-4.55144
11
5.40506
21
-4.54874
0
LINE
8
BLACK
6
CONTINUOUS
10
5.40506
20
-4.54874
11
5.40386
21
-4.54754
0
LINE
8
BLACK
6
CONTINUOUS
10
5.40386
20
-4.54754
11
5.40116
21
-4.5462
0
LINE
8
BLACK
6
CONTINUOUS
10
5.40116
20
-4.5462
11
5.39169
21
-4.5462
0
LINE
8
BLACK
6
CONTINUOUS
10
5.32211
20
-4.58539
11
5.32197
21
-4.58527
0
LINE
8
BLACK
6
CONTINUOUS
10
5.32197
20
-4.58527
11
5.3218
21
-4.58525
0
LINE
8
BLACK
6
CONTINUOUS
10
5.3218
20
-4.58525
11
5.31805
21
-4.58338
0
LINE
8
BLACK
6
CONTINUOUS
10
5.31805
20
-4.58338
11
5.31734
21
-4.58285
0
LINE
8
BLACK
6
CONTINUOUS
10
5.31734
20
-4.58285
11
5.31728
21
-4.58283
0
LINE
8
BLACK
6
CONTINUOUS
10
5.31728
20
-4.58283
11
5.31541
21
-4.58095
0
LINE
8
BLACK
6
CONTINUOUS
10
5.31541
20
-4.58095
11
5.31482
21
-4.58011
0
LINE
8
BLACK
6
CONTINUOUS
10
5.31482
20
-4.58011
11
5.31464
21
-4.5781
0
LINE
8
BLACK
6
CONTINUOUS
10
5.31464
20
-4.5781
11
5.3158
21
-4.57645
0
LINE
8
BLACK
6
CONTINUOUS
10
5.3158
20
-4.57645
11
5.31775
21
-4.57592
0
LINE
8
BLACK
6
CONTINUOUS
10
5.31775
20
-4.57592
11
5.31958
21
-4.57678
0
LINE
8
BLACK
6
CONTINUOUS
10
5.31958
20
-4.57678
11
5.32112
21
-4.57831
0
LINE
8
BLACK
6
CONTINUOUS
10
5.32112
20
-4.57831
11
5.32382
21
-4.57966
0
LINE
8
BLACK
6
CONTINUOUS
10
5.32382
20
-4.57966
11
5.32892
21
-4.57966
0
LINE
8
BLACK
6
CONTINUOUS
10
5.32892
20
-4.57966
11
5.33343
21
-4.57816
0
LINE
8
BLACK
6
CONTINUOUS
10
5.33343
20
-4.57816
11
5.33619
21
-4.57539
0
LINE
8
BLACK
6
CONTINUOUS
10
5.33619
20
-4.57539
11
5.3377
21
-4.57089
0
LINE
8
BLACK
6
CONTINUOUS
10
5.3377
20
-4.57089
11
5.3377
21
-4.564
0
LINE
8
BLACK
6
CONTINUOUS
10
5.3377
20
-4.564
11
5.33757
21
-4.56374
0
LINE
8
BLACK
6
CONTINUOUS
10
5.33757
20
-4.56374
11
5.33637
21
-4.56254
0
LINE
8
BLACK
6
CONTINUOUS
10
5.33637
20
-4.56254
11
5.33367
21
-4.56119
0
LINE
8
BLACK
6
CONTINUOUS
10
5.33367
20
-4.56119
11
5.32874
21
-4.56119
0
LINE
8
BLACK
6
CONTINUOUS
10
5.32874
20
-4.56119
11
5.32831
21
-4.56112
0
LINE
8
BLACK
6
CONTINUOUS
10
5.32831
20
-4.56112
11
5.32817
21
-4.56114
0
LINE
8
BLACK
6
CONTINUOUS
10
5.32817
20
-4.56114
11
5.32807
21
-4.56107
0
LINE
8
BLACK
6
CONTINUOUS
10
5.32807
20
-4.56107
11
5.32773
21
-4.56102
0
LINE
8
BLACK
6
CONTINUOUS
10
5.32773
20
-4.56102
11
5.32712
21
-4.5605
0
LINE
8
BLACK
6
CONTINUOUS
10
5.32712
20
-4.5605
11
5.32644
21
-4.56009
0
LINE
8
BLACK
6
CONTINUOUS
10
5.32644
20
-4.56009
11
5.32637
21
-4.55987
0
LINE
8
BLACK
6
CONTINUOUS
10
5.32637
20
-4.55987
11
5.32619
21
-4.55972
0
LINE
8
BLACK
6
CONTINUOUS
10
5.32619
20
-4.55972
11
5.32605
21
-4.55893
0
LINE
8
BLACK
6
CONTINUOUS
10
5.32605
20
-4.55893
11
5.32579
21
-4.55818
0
LINE
8
BLACK
6
CONTINUOUS
10
5.32579
20
-4.55818
11
5.32588
21
-4.55796
0
LINE
8
BLACK
6
CONTINUOUS
10
5.32588
20
-4.55796
11
5.32584
21
-4.55773
0
LINE
8
BLACK
6
CONTINUOUS
10
5.32584
20
-4.55773
11
5.32623
21
-4.55704
0
LINE
8
BLACK
6
CONTINUOUS
10
5.32623
20
-4.55704
11
5.32652
21
-4.5563
0
LINE
8
BLACK
6
CONTINUOUS
10
5.32652
20
-4.5563
11
5.33536
21
-4.5462
0
LINE
8
BLACK
6
CONTINUOUS
10
5.33536
20
-4.5462
11
5.3175
21
-4.5462
0
LINE
8
BLACK
6
CONTINUOUS
10
5.3175
20
-4.5462
11
5.31649
21
-4.54602
0
LINE
8
BLACK
6
CONTINUOUS
10
5.31649
20
-4.54602
11
5.31494
21
-4.54472
0
LINE
8
BLACK
6
CONTINUOUS
10
5.31494
20
-4.54472
11
5.31459
21
-4.54273
0
LINE
8
BLACK
6
CONTINUOUS
10
5.31459
20
-4.54273
11
5.3156
21
-4.54098
0
LINE
8
BLACK
6
CONTINUOUS
10
5.3156
20
-4.54098
11
5.3175
21
-4.54029
0
LINE
8
BLACK
6
CONTINUOUS
10
5.3175
20
-4.54029
11
5.34187
21
-4.54029
0
LINE
8
BLACK
6
CONTINUOUS
10
5.34187
20
-4.54029
11
5.3423
21
-4.54037
0
LINE
8
BLACK
6
CONTINUOUS
10
5.3423
20
-4.54037
11
5.34244
21
-4.54035
0
LINE
8
BLACK
6
CONTINUOUS
10
5.34244
20
-4.54035
11
5.34254
21
-4.54041
0
LINE
8
BLACK
6
CONTINUOUS
10
5.34254
20
-4.54041
11
5.34288
21
-4.54047
0
LINE
8
BLACK
6
CONTINUOUS
10
5.34288
20
-4.54047
11
5.34349
21
-4.54098
0
LINE
8
BLACK
6
CONTINUOUS
10
5.34349
20
-4.54098
11
5.34417
21
-4.54139
0
LINE
8
BLACK
6
CONTINUOUS
10
5.34417
20
-4.54139
11
5.34424
21
-4.54162
0
LINE
8
BLACK
6
CONTINUOUS
10
5.34424
20
-4.54162
11
5.34442
21
-4.54177
0
LINE
8
BLACK
6
CONTINUOUS
10
5.34442
20
-4.54177
11
5.34456
21
-4.54255
0
LINE
8
BLACK
6
CONTINUOUS
10
5.34456
20
-4.54255
11
5.34482
21
-4.5433
0
LINE
8
BLACK
6
CONTINUOUS
10
5.34482
20
-4.5433
11
5.34473
21
-4.54352
0
LINE
8
BLACK
6
CONTINUOUS
10
5.34473
20
-4.54352
11
5.34478
21
-4.54376
0
LINE
8
BLACK
6
CONTINUOUS
10
5.34478
20
-4.54376
11
5.34438
21
-4.54445
0
LINE
8
BLACK
6
CONTINUOUS
10
5.34438
20
-4.54445
11
5.34409
21
-4.54519
0
LINE
8
BLACK
6
CONTINUOUS
10
5.34409
20
-4.54519
11
5.3436
21
-4.54575
0
LINE
8
BLACK
6
CONTINUOUS
10
5.3436
20
-4.54575
11
5.3436
21
-4.56261
0
LINE
8
BLACK
6
CONTINUOUS
10
5.3436
20
-4.56261
11
5.34451
21
-4.56442
0
LINE
8
BLACK
6
CONTINUOUS
10
5.34451
20
-4.56442
11
5.3448
21
-4.5654
0
LINE
8
BLACK
6
CONTINUOUS
10
5.3448
20
-4.5654
11
5.34476
21
-4.56557
0
LINE
8
BLACK
6
CONTINUOUS
10
5.34476
20
-4.56557
11
5.34482
21
-4.56574
0
LINE
8
BLACK
6
CONTINUOUS
10
5.34482
20
-4.56574
11
5.34482
21
-4.57511
0
LINE
8
BLACK
6
CONTINUOUS
10
5.34482
20
-4.57511
11
5.34464
21
-4.57612
0
LINE
8
BLACK
6
CONTINUOUS
10
5.34464
20
-4.57612
11
5.34453
21
-4.57626
0
LINE
8
BLACK
6
CONTINUOUS
10
5.34453
20
-4.57626
11
5.34451
21
-4.57643
0
LINE
8
BLACK
6
CONTINUOUS
10
5.34451
20
-4.57643
11
5.34263
21
-4.58018
0
LINE
8
BLACK
6
CONTINUOUS
10
5.34263
20
-4.58018
11
5.34211
21
-4.58089
0
LINE
8
BLACK
6
CONTINUOUS
10
5.34211
20
-4.58089
11
5.34208
21
-4.58095
0
LINE
8
BLACK
6
CONTINUOUS
10
5.34208
20
-4.58095
11
5.34021
21
-4.58283
0
LINE
8
BLACK
6
CONTINUOUS
10
5.34021
20
-4.58283
11
5.33948
21
-4.58333
0
LINE
8
BLACK
6
CONTINUOUS
10
5.33948
20
-4.58333
11
5.33944
21
-4.58338
0
LINE
8
BLACK
6
CONTINUOUS
10
5.33944
20
-4.58338
11
5.33569
21
-4.58525
0
LINE
8
BLACK
6
CONTINUOUS
10
5.33569
20
-4.58525
11
5.33471
21
-4.58555
0
LINE
8
BLACK
6
CONTINUOUS
10
5.33471
20
-4.58555
11
5.33453
21
-4.58551
0
LINE
8
BLACK
6
CONTINUOUS
10
5.33453
20
-4.58551
11
5.33437
21
-4.58557
0
LINE
8
BLACK
6
CONTINUOUS
10
5.33437
20
-4.58557
11
5.32312
21
-4.58557
0
LINE
8
BLACK
6
CONTINUOUS
10
5.32312
20
-4.58557
11
5.32211
21
-4.58539
0
LINE
8
BLACK
6
CONTINUOUS
10
5.33513
20
-4.55542
11
5.33538
21
-4.55547
0
LINE
8
BLACK
6
CONTINUOUS
10
5.33538
20
-4.55547
11
5.33551
21
-4.55558
0
LINE
8
BLACK
6
CONTINUOUS
10
5.33551
20
-4.55558
11
5.33569
21
-4.5556
0
LINE
8
BLACK
6
CONTINUOUS
10
5.33569
20
-4.5556
11
5.3377
21
-4.5566
0
LINE
8
BLACK
6
CONTINUOUS
10
5.3377
20
-4.5566
11
5.3377
21
-4.55249
0
LINE
8
BLACK
6
CONTINUOUS
10
5.3377
20
-4.55249
11
5.33513
21
-4.55542
0
LINE
8
BLACK
6
CONTINUOUS
10
5.80473
20
-4.55359
11
5.80486
21
-4.55371
0
LINE
8
BLACK
6
CONTINUOUS
10
5.80486
20
-4.55371
11
5.80504
21
-4.55373
0
LINE
8
BLACK
6
CONTINUOUS
10
5.80504
20
-4.55373
11
5.80879
21
-4.5556
0
LINE
8
BLACK
6
CONTINUOUS
10
5.80879
20
-4.5556
11
5.80961
21
-4.55621
0
LINE
8
BLACK
6
CONTINUOUS
10
5.80961
20
-4.55621
11
5.80979
21
-4.55662
0
LINE
8
BLACK
6
CONTINUOUS
10
5.80979
20
-4.55662
11
5.81011
21
-4.55692
0
LINE
8
BLACK
6
CONTINUOUS
10
5.81011
20
-4.55692
11
5.81198
21
-4.56067
0
LINE
8
BLACK
6
CONTINUOUS
10
5.81198
20
-4.56067
11
5.81227
21
-4.56165
0
LINE
8
BLACK
6
CONTINUOUS
10
5.81227
20
-4.56165
11
5.81223
21
-4.56183
0
LINE
8
BLACK
6
CONTINUOUS
10
5.81223
20
-4.56183
11
5.81229
21
-4.56199
0
LINE
8
BLACK
6
CONTINUOUS
10
5.81229
20
-4.56199
11
5.81229
21
-4.56574
0
LINE
8
BLACK
6
CONTINUOUS
10
5.81229
20
-4.56574
11
5.81211
21
-4.56675
0
LINE
8
BLACK
6
CONTINUOUS
10
5.81211
20
-4.56675
11
5.8118
21
-4.56712
0
LINE
8
BLACK
6
CONTINUOUS
10
5.8118
20
-4.56712
11
5.81164
21
-4.56759
0
LINE
8
BLACK
6
CONTINUOUS
10
5.81164
20
-4.56759
11
5.81117
21
-4.56787
0
LINE
8
BLACK
6
CONTINUOUS
10
5.81117
20
-4.56787
11
5.81082
21
-4.5683
0
LINE
8
BLACK
6
CONTINUOUS
10
5.81082
20
-4.5683
11
5.81034
21
-4.56838
0
LINE
8
BLACK
6
CONTINUOUS
10
5.81034
20
-4.56838
11
5.80992
21
-4.56864
0
LINE
8
BLACK
6
CONTINUOUS
10
5.80992
20
-4.56864
11
5.79355
21
-4.57191
0
LINE
8
BLACK
6
CONTINUOUS
10
5.79355
20
-4.57191
11
5.79355
21
-4.57629
0
LINE
8
BLACK
6
CONTINUOUS
10
5.79355
20
-4.57629
11
5.79467
21
-4.57854
0
LINE
8
BLACK
6
CONTINUOUS
10
5.79467
20
-4.57854
11
5.79691
21
-4.57966
0
LINE
8
BLACK
6
CONTINUOUS
10
5.79691
20
-4.57966
11
5.80302
21
-4.57966
0
LINE
8
BLACK
6
CONTINUOUS
10
5.80302
20
-4.57966
11
5.80614
21
-4.5781
0
LINE
8
BLACK
6
CONTINUOUS
10
5.80614
20
-4.5781
11
5.80713
21
-4.57781
0
LINE
8
BLACK
6
CONTINUOUS
10
5.80713
20
-4.57781
11
5.80909
21
-4.57827
0
LINE
8
BLACK
6
CONTINUOUS
10
5.80909
20
-4.57827
11
5.8103
21
-4.5799
0
LINE
8
BLACK
6
CONTINUOUS
10
5.8103
20
-4.5799
11
5.81017
21
-4.58191
0
LINE
8
BLACK
6
CONTINUOUS
10
5.81017
20
-4.58191
11
5.80879
21
-4.58338
0
LINE
8
BLACK
6
CONTINUOUS
10
5.80879
20
-4.58338
11
5.80504
21
-4.58525
0
LINE
8
BLACK
6
CONTINUOUS
10
5.80504
20
-4.58525
11
5.80405
21
-4.58555
0
LINE
8
BLACK
6
CONTINUOUS
10
5.80405
20
-4.58555
11
5.80388
21
-4.58551
0
LINE
8
BLACK
6
CONTINUOUS
10
5.80388
20
-4.58551
11
5.80372
21
-4.58557
0
LINE
8
BLACK
6
CONTINUOUS
10
5.80372
20
-4.58557
11
5.79622
21
-4.58557
0
LINE
8
BLACK
6
CONTINUOUS
10
5.79622
20
-4.58557
11
5.79521
21
-4.58539
0
LINE
8
BLACK
6
CONTINUOUS
10
5.79521
20
-4.58539
11
5.79507
21
-4.58527
0
LINE
8
BLACK
6
CONTINUOUS
10
5.79507
20
-4.58527
11
5.7949
21
-4.58525
0
LINE
8
BLACK
6
CONTINUOUS
10
5.7949
20
-4.58525
11
5.79115
21
-4.58338
0
LINE
8
BLACK
6
CONTINUOUS
10
5.79115
20
-4.58338
11
5.79032
21
-4.58277
0
LINE
8
BLACK
6
CONTINUOUS
10
5.79032
20
-4.58277
11
5.79015
21
-4.58236
0
LINE
8
BLACK
6
CONTINUOUS
10
5.79015
20
-4.58236
11
5.78983
21
-4.58206
0
LINE
8
BLACK
6
CONTINUOUS
10
5.78983
20
-4.58206
11
5.78795
21
-4.57831
0
LINE
8
BLACK
6
CONTINUOUS
10
5.78795
20
-4.57831
11
5.78766
21
-4.57733
0
LINE
8
BLACK
6
CONTINUOUS
10
5.78766
20
-4.57733
11
5.7877
21
-4.57716
0
LINE
8
BLACK
6
CONTINUOUS
10
5.7877
20
-4.57716
11
5.78764
21
-4.57699
0
LINE
8
BLACK
6
CONTINUOUS
10
5.78764
20
-4.57699
11
5.78764
21
-4.56199
0
LINE
8
BLACK
6
CONTINUOUS
10
5.78764
20
-4.56199
11
5.78782
21
-4.56098
0
LINE
8
BLACK
6
CONTINUOUS
10
5.78782
20
-4.56098
11
5.78793
21
-4.56085
0
LINE
8
BLACK
6
CONTINUOUS
10
5.78793
20
-4.56085
11
5.78795
21
-4.56067
0
LINE
8
BLACK
6
CONTINUOUS
10
5.78795
20
-4.56067
11
5.78983
21
-4.55692
0
LINE
8
BLACK
6
CONTINUOUS
10
5.78983
20
-4.55692
11
5.79044
21
-4.5561
0
LINE
8
BLACK
6
CONTINUOUS
10
5.79044
20
-4.5561
11
5.79084
21
-4.55592
0
LINE
8
BLACK
6
CONTINUOUS
10
5.79084
20
-4.55592
11
5.79115
21
-4.5556
0
LINE
8
BLACK
6
CONTINUOUS
10
5.79115
20
-4.5556
11
5.7949
21
-4.55373
0
LINE
8
BLACK
6
CONTINUOUS
10
5.7949
20
-4.55373
11
5.79588
21
-4.55343
0
LINE
8
BLACK
6
CONTINUOUS
10
5.79588
20
-4.55343
11
5.79605
21
-4.55347
0
LINE
8
BLACK
6
CONTINUOUS
10
5.79605
20
-4.55347
11
5.79622
21
-4.55341
0
LINE
8
BLACK
6
CONTINUOUS
10
5.79622
20
-4.55341
11
5.80372
21
-4.55341
0
LINE
8
BLACK
6
CONTINUOUS
10
5.80372
20
-4.55341
11
5.80473
21
-4.55359
0
LINE
8
BLACK
6
CONTINUOUS
10
5.79691
20
-4.55932
11
5.79467
21
-4.56044
0
LINE
8
BLACK
6
CONTINUOUS
10
5.79467
20
-4.56044
11
5.79355
21
-4.56269
0
LINE
8
BLACK
6
CONTINUOUS
10
5.79355
20
-4.56269
11
5.79355
21
-4.56589
0
LINE
8
BLACK
6
CONTINUOUS
10
5.79355
20
-4.56589
11
5.80639
21
-4.56332
0
LINE
8
BLACK
6
CONTINUOUS
10
5.80639
20
-4.56332
11
5.80639
21
-4.56269
0
LINE
8
BLACK
6
CONTINUOUS
10
5.80639
20
-4.56269
11
5.80526
21
-4.56044
0
LINE
8
BLACK
6
CONTINUOUS
10
5.80526
20
-4.56044
11
5.80302
21
-4.55932
0
LINE
8
BLACK
6
CONTINUOUS
10
5.80302
20
-4.55932
11
5.79691
21
-4.55932
0
LINE
8
BLACK
6
CONTINUOUS
10
5.63835
20
-4.5855
11
5.63822
21
-4.58552
0
LINE
8
BLACK
6
CONTINUOUS
10
5.63822
20
-4.58552
11
5.63811
21
-4.58546
0
LINE
8
BLACK
6
CONTINUOUS
10
5.63811
20
-4.58546
11
5.63773
21
-4.58539
0
LINE
8
BLACK
6
CONTINUOUS
10
5.63773
20
-4.58539
11
5.63714
21
-4.58489
0
LINE
8
BLACK
6
CONTINUOUS
10
5.63714
20
-4.58489
11
5.63647
21
-4.58451
0
LINE
8
BLACK
6
CONTINUOUS
10
5.63647
20
-4.58451
11
5.63638
21
-4.58426
0
LINE
8
BLACK
6
CONTINUOUS
10
5.63638
20
-4.58426
11
5.63618
21
-4.58409
0
LINE
8
BLACK
6
CONTINUOUS
10
5.63618
20
-4.58409
11
5.63605
21
-4.58333
0
LINE
8
BLACK
6
CONTINUOUS
10
5.63605
20
-4.58333
11
5.63578
21
-4.58261
0
LINE
8
BLACK
6
CONTINUOUS
10
5.63578
20
-4.58261
11
5.63578
21
-4.54324
0
LINE
8
BLACK
6
CONTINUOUS
10
5.63578
20
-4.54324
11
5.63585
21
-4.54286
0
LINE
8
BLACK
6
CONTINUOUS
10
5.63585
20
-4.54286
11
5.63583
21
-4.54273
0
LINE
8
BLACK
6
CONTINUOUS
10
5.63583
20
-4.54273
11
5.63589
21
-4.54262
0
LINE
8
BLACK
6
CONTINUOUS
10
5.63589
20
-4.54262
11
5.63596
21
-4.54223
0
LINE
8
BLACK
6
CONTINUOUS
10
5.63596
20
-4.54223
11
5.63645
21
-4.54165
0
LINE
8
BLACK
6
CONTINUOUS
10
5.63645
20
-4.54165
11
5.63684
21
-4.54098
0
LINE
8
BLACK
6
CONTINUOUS
10
5.63684
20
-4.54098
11
5.63709
21
-4.54089
0
LINE
8
BLACK
6
CONTINUOUS
10
5.63709
20
-4.54089
11
5.63726
21
-4.54069
0
LINE
8
BLACK
6
CONTINUOUS
10
5.63726
20
-4.54069
11
5.63802
21
-4.54055
0
LINE
8
BLACK
6
CONTINUOUS
10
5.63802
20
-4.54055
11
5.63874
21
-4.54029
0
LINE
8
BLACK
6
CONTINUOUS
10
5.63874
20
-4.54029
11
5.65186
21
-4.54029
0
LINE
8
BLACK
6
CONTINUOUS
10
5.65186
20
-4.54029
11
5.65245
21
-4.5404
0
LINE
8
BLACK
6
CONTINUOUS
10
5.65245
20
-4.5404
11
5.65274
21
-4.54031
0
LINE
8
BLACK
6
CONTINUOUS
10
5.65274
20
-4.54031
11
5.65291
21
-4.54035
0
LINE
8
BLACK
6
CONTINUOUS
10
5.65291
20
-4.54035
11
5.65308
21
-4.54029
0
LINE
8
BLACK
6
CONTINUOUS
10
5.65308
20
-4.54029
11
5.66245
21
-4.54029
0
LINE
8
BLACK
6
CONTINUOUS
10
5.66245
20
-4.54029
11
5.66346
21
-4.54047
0
LINE
8
BLACK
6
CONTINUOUS
10
5.66346
20
-4.54047
11
5.6636
21
-4.54058
0
LINE
8
BLACK
6
CONTINUOUS
10
5.6636
20
-4.54058
11
5.66377
21
-4.5406
0
LINE
8
BLACK
6
CONTINUOUS
10
5.66377
20
-4.5406
11
5.66752
21
-4.54248
0
LINE
8
BLACK
6
CONTINUOUS
10
5.66752
20
-4.54248
11
5.66823
21
-4.543
0
LINE
8
BLACK
6
CONTINUOUS
10
5.66823
20
-4.543
11
5.66829
21
-4.54303
0
LINE
8
BLACK
6
CONTINUOUS
10
5.66829
20
-4.54303
11
5.67016
21
-4.5449
0
LINE
8
BLACK
6
CONTINUOUS
10
5.67016
20
-4.5449
11
5.67067
21
-4.54563
0
LINE
8
BLACK
6
CONTINUOUS
10
5.67067
20
-4.54563
11
5.67072
21
-4.54567
0
LINE
8
BLACK
6
CONTINUOUS
10
5.67072
20
-4.54567
11
5.67259
21
-4.54942
0
LINE
8
BLACK
6
CONTINUOUS
10
5.67259
20
-4.54942
11
5.67288
21
-4.5504
0
LINE
8
BLACK
6
CONTINUOUS
10
5.67288
20
-4.5504
11
5.67284
21
-4.55058
0
LINE
8
BLACK
6
CONTINUOUS
10
5.67284
20
-4.55058
11
5.6729
21
-4.55074
0
LINE
8
BLACK
6
CONTINUOUS
10
5.6729
20
-4.55074
11
5.6729
21
-4.55449
0
LINE
8
BLACK
6
CONTINUOUS
10
5.6729
20
-4.55449
11
5.67275
21
-4.55536
0
LINE
8
BLACK
6
CONTINUOUS
10
5.67275
20
-4.55536
11
5.67275
21
-4.55543
0
LINE
8
BLACK
6
CONTINUOUS
10
5.67275
20
-4.55543
11
5.67088
21
-4.56105
0
LINE
8
BLACK
6
CONTINUOUS
10
5.67088
20
-4.56105
11
5.67039
21
-4.56195
0
LINE
8
BLACK
6
CONTINUOUS
10
5.67039
20
-4.56195
11
5.67024
21
-4.56204
0
LINE
8
BLACK
6
CONTINUOUS
10
5.67024
20
-4.56204
11
5.67016
21
-4.5622
0
LINE
8
BLACK
6
CONTINUOUS
10
5.67016
20
-4.5622
11
5.66395
21
-4.56842
0
LINE
8
BLACK
6
CONTINUOUS
10
5.66395
20
-4.56842
11
5.66417
21
-4.56915
0
LINE
8
BLACK
6
CONTINUOUS
10
5.66417
20
-4.56915
11
5.66413
21
-4.56932
0
LINE
8
BLACK
6
CONTINUOUS
10
5.66413
20
-4.56932
11
5.66419
21
-4.56949
0
LINE
8
BLACK
6
CONTINUOUS
10
5.66419
20
-4.56949
11
5.66419
21
-4.57511
0
LINE
8
BLACK
6
CONTINUOUS
10
5.66419
20
-4.57511
11
5.66401
21
-4.57612
0
LINE
8
BLACK
6
CONTINUOUS
10
5.66401
20
-4.57612
11
5.66389
21
-4.57626
0
LINE
8
BLACK
6
CONTINUOUS
10
5.66389
20
-4.57626
11
5.66387
21
-4.57643
0
LINE
8
BLACK
6
CONTINUOUS
10
5.66387
20
-4.57643
11
5.66226
21
-4.57966
0
LINE
8
BLACK
6
CONTINUOUS
10
5.66226
20
-4.57966
11
5.66995
21
-4.57966
0
LINE
8
BLACK
6
CONTINUOUS
10
5.66995
20
-4.57966
11
5.67096
21
-4.57984
0
LINE
8
BLACK
6
CONTINUOUS
10
5.67096
20
-4.57984
11
5.67251
21
-4.58114
0
LINE
8
BLACK
6
CONTINUOUS
10
5.67251
20
-4.58114
11
5.67286
21
-4.58313
0
LINE
8
BLACK
6
CONTINUOUS
10
5.67286
20
-4.58313
11
5.67185
21
-4.58488
0
LINE
8
BLACK
6
CONTINUOUS
10
5.67185
20
-4.58488
11
5.66995
21
-4.58557
0
LINE
8
BLACK
6
CONTINUOUS
10
5.66995
20
-4.58557
11
5.63874
21
-4.58557
0
LINE
8
BLACK
6
CONTINUOUS
10
5.63874
20
-4.58557
11
5.63835
21
-4.5855
0
LINE
8
BLACK
6
CONTINUOUS
10
5.64169
20
-4.56494
11
5.64169
21
-4.57966
0
LINE
8
BLACK
6
CONTINUOUS
10
5.64169
20
-4.57966
11
5.64436
21
-4.57966
0
LINE
8
BLACK
6
CONTINUOUS
10
5.64436
20
-4.57966
11
5.65673
21
-4.56729
0
LINE
8
BLACK
6
CONTINUOUS
10
5.65673
20
-4.56729
11
5.65589
21
-4.56645
0
LINE
8
BLACK
6
CONTINUOUS
10
5.65589
20
-4.56645
11
5.65138
21
-4.56494
0
LINE
8
BLACK
6
CONTINUOUS
10
5.65138
20
-4.56494
11
5.64169
21
-4.56494
0
LINE
8
BLACK
6
CONTINUOUS
10
5.65271
20
-4.57966
11
5.65304
21
-4.57966
0
LINE
8
BLACK
6
CONTINUOUS
10
5.65304
20
-4.57966
11
5.65573
21
-4.57831
0
LINE
8
BLACK
6
CONTINUOUS
10
5.65573
20
-4.57831
11
5.65693
21
-4.57711
0
LINE
8
BLACK
6
CONTINUOUS
10
5.65693
20
-4.57711
11
5.65828
21
-4.57442
0
LINE
8
BLACK
6
CONTINUOUS
10
5.65828
20
-4.57442
11
5.65828
21
-4.57409
0
LINE
8
BLACK
6
CONTINUOUS
10
5.65828
20
-4.57409
11
5.65271
21
-4.57966
0
LINE
8
BLACK
6
CONTINUOUS
10
5.66039
20
-4.5462
11
5.662
21
-4.54942
0
LINE
8
BLACK
6
CONTINUOUS
10
5.662
20
-4.54942
11
5.66229
21
-4.5504
0
LINE
8
BLACK
6
CONTINUOUS
10
5.66229
20
-4.5504
11
5.66225
21
-4.55058
0
LINE
8
BLACK
6
CONTINUOUS
10
5.66225
20
-4.55058
11
5.66231
21
-4.55074
0
LINE
8
BLACK
6
CONTINUOUS
10
5.66231
20
-4.55074
11
5.66231
21
-4.55449
0
LINE
8
BLACK
6
CONTINUOUS
10
5.66231
20
-4.55449
11
5.66213
21
-4.5555
0
LINE
8
BLACK
6
CONTINUOUS
10
5.66213
20
-4.5555
11
5.66202
21
-4.55564
0
LINE
8
BLACK
6
CONTINUOUS
10
5.66202
20
-4.55564
11
5.662
21
-4.55581
0
LINE
8
BLACK
6
CONTINUOUS
10
5.662
20
-4.55581
11
5.66013
21
-4.55956
0
LINE
8
BLACK
6
CONTINUOUS
10
5.66013
20
-4.55956
11
5.6596
21
-4.56027
0
LINE
8
BLACK
6
CONTINUOUS
10
5.6596
20
-4.56027
11
5.65957
21
-4.56033
0
LINE
8
BLACK
6
CONTINUOUS
10
5.65957
20
-4.56033
11
5.65869
21
-4.56121
0
LINE
8
BLACK
6
CONTINUOUS
10
5.65869
20
-4.56121
11
5.65932
21
-4.56155
0
LINE
8
BLACK
6
CONTINUOUS
10
5.65932
20
-4.56155
11
5.65941
21
-4.5617
0
LINE
8
BLACK
6
CONTINUOUS
10
5.65941
20
-4.5617
11
5.65957
21
-4.56178
0
LINE
8
BLACK
6
CONTINUOUS
10
5.65957
20
-4.56178
11
5.66091
21
-4.56311
0
LINE
8
BLACK
6
CONTINUOUS
10
5.66091
20
-4.56311
11
5.6655
21
-4.55852
0
LINE
8
BLACK
6
CONTINUOUS
10
5.6655
20
-4.55852
11
5.667
21
-4.55401
0
LINE
8
BLACK
6
CONTINUOUS
10
5.667
20
-4.55401
11
5.667
21
-4.55144
0
LINE
8
BLACK
6
CONTINUOUS
10
5.667
20
-4.55144
11
5.66565
21
-4.54874
0
LINE
8
BLACK
6
CONTINUOUS
10
5.66565
20
-4.54874
11
5.66445
21
-4.54754
0
LINE
8
BLACK
6
CONTINUOUS
10
5.66445
20
-4.54754
11
5.66176
21
-4.5462
0
LINE
8
BLACK
6
CONTINUOUS
10
5.66176
20
-4.5462
11
5.66039
21
-4.5462
0
LINE
8
BLACK
6
CONTINUOUS
10
5.64169
20
-4.5462
11
5.64169
21
-4.55904
0
LINE
8
BLACK
6
CONTINUOUS
10
5.64169
20
-4.55904
11
5.65116
21
-4.55904
0
LINE
8
BLACK
6
CONTINUOUS
10
5.65116
20
-4.55904
11
5.65386
21
-4.55769
0
LINE
8
BLACK
6
CONTINUOUS
10
5.65386
20
-4.55769
11
5.65506
21
-4.55649
0
LINE
8
BLACK
6
CONTINUOUS
10
5.65506
20
-4.55649
11
5.65641
21
-4.55379
0
LINE
8
BLACK
6
CONTINUOUS
10
5.65641
20
-4.55379
11
5.65641
21
-4.55144
0
LINE
8
BLACK
6
CONTINUOUS
10
5.65641
20
-4.55144
11
5.65506
21
-4.54874
0
LINE
8
BLACK
6
CONTINUOUS
10
5.65506
20
-4.54874
11
5.65386
21
-4.54754
0
LINE
8
BLACK
6
CONTINUOUS
10
5.65386
20
-4.54754
11
5.65247
21
-4.54685
0
LINE
8
BLACK
6
CONTINUOUS
10
5.65247
20
-4.54685
11
5.65108
21
-4.54754
0
LINE
8
BLACK
6
CONTINUOUS
10
5.65108
20
-4.54754
11
5.64954
21
-4.54908
0
LINE
8
BLACK
6
CONTINUOUS
10
5.64954
20
-4.54908
11
5.6487
21
-4.54967
0
LINE
8
BLACK
6
CONTINUOUS
10
5.6487
20
-4.54967
11
5.64669
21
-4.54985
0
LINE
8
BLACK
6
CONTINUOUS
10
5.64669
20
-4.54985
11
5.64504
21
-4.54869
0
LINE
8
BLACK
6
CONTINUOUS
10
5.64504
20
-4.54869
11
5.64451
21
-4.54674
0
LINE
8
BLACK
6
CONTINUOUS
10
5.64451
20
-4.54674
11
5.64476
21
-4.5462
0
LINE
8
BLACK
6
CONTINUOUS
10
5.64476
20
-4.5462
11
5.64169
21
-4.5462
0
LINE
8
BLACK
6
CONTINUOUS
10
4.94168
20
-4.55359
11
4.94181
21
-4.55371
0
LINE
8
BLACK
6
CONTINUOUS
10
4.94181
20
-4.55371
11
4.94199
21
-4.55373
0
LINE
8
BLACK
6
CONTINUOUS
10
4.94199
20
-4.55373
11
4.94574
21
-4.5556
0
LINE
8
BLACK
6
CONTINUOUS
10
4.94574
20
-4.5556
11
4.94645
21
-4.55613
0
LINE
8
BLACK
6
CONTINUOUS
10
4.94645
20
-4.55613
11
4.9465
21
-4.55615
0
LINE
8
BLACK
6
CONTINUOUS
10
4.9465
20
-4.55615
11
4.94838
21
-4.55803
0
LINE
8
BLACK
6
CONTINUOUS
10
4.94838
20
-4.55803
11
4.94889
21
-4.55875
0
LINE
8
BLACK
6
CONTINUOUS
10
4.94889
20
-4.55875
11
4.94893
21
-4.5588
0
LINE
8
BLACK
6
CONTINUOUS
10
4.94893
20
-4.5588
11
4.95081
21
-4.56255
0
LINE
8
BLACK
6
CONTINUOUS
10
4.95081
20
-4.56255
11
4.9511
21
-4.56353
0
LINE
8
BLACK
6
CONTINUOUS
10
4.9511
20
-4.56353
11
4.95106
21
-4.5637
0
LINE
8
BLACK
6
CONTINUOUS
10
4.95106
20
-4.5637
11
4.95112
21
-4.56387
0
LINE
8
BLACK
6
CONTINUOUS
10
4.95112
20
-4.56387
11
4.95112
21
-4.57511
0
LINE
8
BLACK
6
CONTINUOUS
10
4.95112
20
-4.57511
11
4.95094
21
-4.57612
0
LINE
8
BLACK
6
CONTINUOUS
10
4.95094
20
-4.57612
11
4.95083
21
-4.57626
0
LINE
8
BLACK
6
CONTINUOUS
10
4.95083
20
-4.57626
11
4.95081
21
-4.57643
0
LINE
8
BLACK
6
CONTINUOUS
10
4.95081
20
-4.57643
11
4.94893
21
-4.58018
0
LINE
8
BLACK
6
CONTINUOUS
10
4.94893
20
-4.58018
11
4.94841
21
-4.58089
0
LINE
8
BLACK
6
CONTINUOUS
10
4.94841
20
-4.58089
11
4.94838
21
-4.58095
0
LINE
8
BLACK
6
CONTINUOUS
10
4.94838
20
-4.58095
11
4.9465
21
-4.58283
0
LINE
8
BLACK
6
CONTINUOUS
10
4.9465
20
-4.58283
11
4.94578
21
-4.58333
0
LINE
8
BLACK
6
CONTINUOUS
10
4.94578
20
-4.58333
11
4.94574
21
-4.58338
0
LINE
8
BLACK
6
CONTINUOUS
10
4.94574
20
-4.58338
11
4.94199
21
-4.58525
0
LINE
8
BLACK
6
CONTINUOUS
10
4.94199
20
-4.58525
11
4.941
21
-4.58555
0
LINE
8
BLACK
6
CONTINUOUS
10
4.941
20
-4.58555
11
4.94083
21
-4.58551
0
LINE
8
BLACK
6
CONTINUOUS
10
4.94083
20
-4.58551
11
4.94067
21
-4.58557
0
LINE
8
BLACK
6
CONTINUOUS
10
4.94067
20
-4.58557
11
4.93504
21
-4.58557
0
LINE
8
BLACK
6
CONTINUOUS
10
4.93504
20
-4.58557
11
4.93403
21
-4.58539
0
LINE
8
BLACK
6
CONTINUOUS
10
4.93403
20
-4.58539
11
4.9339
21
-4.58527
0
LINE
8
BLACK
6
CONTINUOUS
10
4.9339
20
-4.58527
11
4.93372
21
-4.58525
0
LINE
8
BLACK
6
CONTINUOUS
10
4.93372
20
-4.58525
11
4.92997
21
-4.58338
0
LINE
8
BLACK
6
CONTINUOUS
10
4.92997
20
-4.58338
11
4.92926
21
-4.58285
0
LINE
8
BLACK
6
CONTINUOUS
10
4.92926
20
-4.58285
11
4.92921
21
-4.58283
0
LINE
8
BLACK
6
CONTINUOUS
10
4.92921
20
-4.58283
11
4.92733
21
-4.58095
0
LINE
8
BLACK
6
CONTINUOUS
10
4.92733
20
-4.58095
11
4.92682
21
-4.58023
0
LINE
8
BLACK
6
CONTINUOUS
10
4.92682
20
-4.58023
11
4.92678
21
-4.58018
0
LINE
8
BLACK
6
CONTINUOUS
10
4.92678
20
-4.58018
11
4.9249
21
-4.57643
0
LINE
8
BLACK
6
CONTINUOUS
10
4.9249
20
-4.57643
11
4.92461
21
-4.57545
0
LINE
8
BLACK
6
CONTINUOUS
10
4.92461
20
-4.57545
11
4.92465
21
-4.57528
0
LINE
8
BLACK
6
CONTINUOUS
10
4.92465
20
-4.57528
11
4.92459
21
-4.57511
0
LINE
8
BLACK
6
CONTINUOUS
10
4.92459
20
-4.57511
11
4.92459
21
-4.56387
0
LINE
8
BLACK
6
CONTINUOUS
10
4.92459
20
-4.56387
11
4.92477
21
-4.56286
0
LINE
8
BLACK
6
CONTINUOUS
10
4.92477
20
-4.56286
11
4.92488
21
-4.56272
0
LINE
8
BLACK
6
CONTINUOUS
10
4.92488
20
-4.56272
11
4.9249
21
-4.56255
0
LINE
8
BLACK
6
CONTINUOUS
10
4.9249
20
-4.56255
11
4.92678
21
-4.5588
0
LINE
8
BLACK
6
CONTINUOUS
10
4.92678
20
-4.5588
11
4.9273
21
-4.55809
0
LINE
8
BLACK
6
CONTINUOUS
10
4.9273
20
-4.55809
11
4.92733
21
-4.55803
0
LINE
8
BLACK
6
CONTINUOUS
10
4.92733
20
-4.55803
11
4.92921
21
-4.55615
0
LINE
8
BLACK
6
CONTINUOUS
10
4.92921
20
-4.55615
11
4.92993
21
-4.55565
0
LINE
8
BLACK
6
CONTINUOUS
10
4.92993
20
-4.55565
11
4.92997
21
-4.5556
0
LINE
8
BLACK
6
CONTINUOUS
10
4.92997
20
-4.5556
11
4.93372
21
-4.55373
0
LINE
8
BLACK
6
CONTINUOUS
10
4.93372
20
-4.55373
11
4.93471
21
-4.55343
0
LINE
8
BLACK
6
CONTINUOUS
10
4.93471
20
-4.55343
11
4.93488
21
-4.55347
0
LINE
8
BLACK
6
CONTINUOUS
10
4.93488
20
-4.55347
11
4.93504
21
-4.55341
0
LINE
8
BLACK
6
CONTINUOUS
10
4.93504
20
-4.55341
11
4.94067
21
-4.55341
0
LINE
8
BLACK
6
CONTINUOUS
10
4.94067
20
-4.55341
11
4.94168
21
-4.55359
0
LINE
8
BLACK
6
CONTINUOUS
10
4.93574
20
-4.55932
11
4.93304
21
-4.56067
0
LINE
8
BLACK
6
CONTINUOUS
10
4.93304
20
-4.56067
11
4.93185
21
-4.56187
0
LINE
8
BLACK
6
CONTINUOUS
10
4.93185
20
-4.56187
11
4.9305
21
-4.56456
0
LINE
8
BLACK
6
CONTINUOUS
10
4.9305
20
-4.56456
11
4.9305
21
-4.57442
0
LINE
8
BLACK
6
CONTINUOUS
10
4.9305
20
-4.57442
11
4.93185
21
-4.57711
0
LINE
8
BLACK
6
CONTINUOUS
10
4.93185
20
-4.57711
11
4.93304
21
-4.57831
0
LINE
8
BLACK
6
CONTINUOUS
10
4.93304
20
-4.57831
11
4.93574
21
-4.57966
0
LINE
8
BLACK
6
CONTINUOUS
10
4.93574
20
-4.57966
11
4.93997
21
-4.57966
0
LINE
8
BLACK
6
CONTINUOUS
10
4.93997
20
-4.57966
11
4.94267
21
-4.57831
0
LINE
8
BLACK
6
CONTINUOUS
10
4.94267
20
-4.57831
11
4.94386
21
-4.57711
0
LINE
8
BLACK
6
CONTINUOUS
10
4.94386
20
-4.57711
11
4.94521
21
-4.57442
0
LINE
8
BLACK
6
CONTINUOUS
10
4.94521
20
-4.57442
11
4.94521
21
-4.56456
0
LINE
8
BLACK
6
CONTINUOUS
10
4.94521
20
-4.56456
11
4.94386
21
-4.56187
0
LINE
8
BLACK
6
CONTINUOUS
10
4.94386
20
-4.56187
11
4.94267
21
-4.56067
0
LINE
8
BLACK
6
CONTINUOUS
10
4.94267
20
-4.56067
11
4.93997
21
-4.55932
0
LINE
8
BLACK
6
CONTINUOUS
10
4.93997
20
-4.55932
11
4.93574
21
-4.55932
0
LINE
8
BLACK
6
CONTINUOUS
10
5.23587
20
-4.58539
11
5.23574
21
-4.58527
0
LINE
8
BLACK
6
CONTINUOUS
10
5.23574
20
-4.58527
11
5.23556
21
-4.58525
0
LINE
8
BLACK
6
CONTINUOUS
10
5.23556
20
-4.58525
11
5.23181
21
-4.58338
0
LINE
8
BLACK
6
CONTINUOUS
10
5.23181
20
-4.58338
11
5.23099
21
-4.58277
0
LINE
8
BLACK
6
CONTINUOUS
10
5.23099
20
-4.58277
11
5.23081
21
-4.58236
0
LINE
8
BLACK
6
CONTINUOUS
10
5.23081
20
-4.58236
11
5.23049
21
-4.58206
0
LINE
8
BLACK
6
CONTINUOUS
10
5.23049
20
-4.58206
11
5.22862
21
-4.57831
0
LINE
8
BLACK
6
CONTINUOUS
10
5.22862
20
-4.57831
11
5.22832
21
-4.57733
0
LINE
8
BLACK
6
CONTINUOUS
10
5.22832
20
-4.57733
11
5.22836
21
-4.57716
0
LINE
8
BLACK
6
CONTINUOUS
10
5.22836
20
-4.57716
11
5.2283
21
-4.57699
0
LINE
8
BLACK
6
CONTINUOUS
10
5.2283
20
-4.57699
11
5.2283
21
-4.56199
0
LINE
8
BLACK
6
CONTINUOUS
10
5.2283
20
-4.56199
11
5.22848
21
-4.56098
0
LINE
8
BLACK
6
CONTINUOUS
10
5.22848
20
-4.56098
11
5.22859
21
-4.56085
0
LINE
8
BLACK
6
CONTINUOUS
10
5.22859
20
-4.56085
11
5.22862
21
-4.56067
0
LINE
8
BLACK
6
CONTINUOUS
10
5.22862
20
-4.56067
11
5.23049
21
-4.55692
0
LINE
8
BLACK
6
CONTINUOUS
10
5.23049
20
-4.55692
11
5.2311
21
-4.5561
0
LINE
8
BLACK
6
CONTINUOUS
10
5.2311
20
-4.5561
11
5.23151
21
-4.55592
0
LINE
8
BLACK
6
CONTINUOUS
10
5.23151
20
-4.55592
11
5.23181
21
-4.5556
0
LINE
8
BLACK
6
CONTINUOUS
10
5.23181
20
-4.5556
11
5.23556
21
-4.55373
0
LINE
8
BLACK
6
CONTINUOUS
10
5.23556
20
-4.55373
11
5.23654
21
-4.55343
0
LINE
8
BLACK
6
CONTINUOUS
10
5.23654
20
-4.55343
11
5.23671
21
-4.55347
0
LINE
8
BLACK
6
CONTINUOUS
10
5.23671
20
-4.55347
11
5.23688
21
-4.55341
0
LINE
8
BLACK
6
CONTINUOUS
10
5.23688
20
-4.55341
11
5.24879
21
-4.55341
0
LINE
8
BLACK
6
CONTINUOUS
10
5.24879
20
-4.55341
11
5.24958
21
-4.55355
0
LINE
8
BLACK
6
CONTINUOUS
10
5.24958
20
-4.55355
11
5.24958
21
-4.54324
0
LINE
8
BLACK
6
CONTINUOUS
10
5.24958
20
-4.54324
11
5.24976
21
-4.54223
0
LINE
8
BLACK
6
CONTINUOUS
10
5.24976
20
-4.54223
11
5.25106
21
-4.54069
0
LINE
8
BLACK
6
CONTINUOUS
10
5.25106
20
-4.54069
11
5.25305
21
-4.54034
0
LINE
8
BLACK
6
CONTINUOUS
10
5.25305
20
-4.54034
11
5.2548
21
-4.54135
0
LINE
8
BLACK
6
CONTINUOUS
10
5.2548
20
-4.54135
11
5.25549
21
-4.54324
0
LINE
8
BLACK
6
CONTINUOUS
10
5.25549
20
-4.54324
11
5.25549
21
-4.58261
0
LINE
8
BLACK
6
CONTINUOUS
10
5.25549
20
-4.58261
11
5.25531
21
-4.58362
0
LINE
8
BLACK
6
CONTINUOUS
10
5.25531
20
-4.58362
11
5.25401
21
-4.58517
0
LINE
8
BLACK
6
CONTINUOUS
10
5.25401
20
-4.58517
11
5.25202
21
-4.58552
0
LINE
8
BLACK
6
CONTINUOUS
10
5.25202
20
-4.58552
11
5.25088
21
-4.58486
0
LINE
8
BLACK
6
CONTINUOUS
10
5.25088
20
-4.58486
11
5.25011
21
-4.58525
0
LINE
8
BLACK
6
CONTINUOUS
10
5.25011
20
-4.58525
11
5.24912
21
-4.58555
0
LINE
8
BLACK
6
CONTINUOUS
10
5.24912
20
-4.58555
11
5.24895
21
-4.58551
0
LINE
8
BLACK
6
CONTINUOUS
10
5.24895
20
-4.58551
11
5.24879
21
-4.58557
0
LINE
8
BLACK
6
CONTINUOUS
10
5.24879
20
-4.58557
11
5.23688
21
-4.58557
0
LINE
8
BLACK
6
CONTINUOUS
10
5.23688
20
-4.58557
11
5.23587
21
-4.58539
0
LINE
8
BLACK
6
CONTINUOUS
10
5.23674
20
-4.5714
11
5.23674
21
-4.57442
0
LINE
8
BLACK
6
CONTINUOUS
10
5.23674
20
-4.57442
11
5.23809
21
-4.57711
0
LINE
8
BLACK
6
CONTINUOUS
10
5.23809
20
-4.57711
11
5.23929
21
-4.57831
0
LINE
8
BLACK
6
CONTINUOUS
10
5.23929
20
-4.57831
11
5.24198
21
-4.57966
0
LINE
8
BLACK
6
CONTINUOUS
10
5.24198
20
-4.57966
11
5.24368
21
-4.57966
0
LINE
8
BLACK
6
CONTINUOUS
10
5.24368
20
-4.57966
11
5.24681
21
-4.5781
0
LINE
8
BLACK
6
CONTINUOUS
10
5.24681
20
-4.5781
11
5.24779
21
-4.57781
0
LINE
8
BLACK
6
CONTINUOUS
10
5.24779
20
-4.57781
11
5.24958
21
-4.57823
0
LINE
8
BLACK
6
CONTINUOUS
10
5.24958
20
-4.57823
11
5.24958
21
-4.56884
0
LINE
8
BLACK
6
CONTINUOUS
10
5.24958
20
-4.56884
11
5.23674
21
-4.5714
0
LINE
8
BLACK
6
CONTINUOUS
10
5.24198
20
-4.55932
11
5.23929
21
-4.56067
0
LINE
8
BLACK
6
CONTINUOUS
10
5.23929
20
-4.56067
11
5.23809
21
-4.56187
0
LINE
8
BLACK
6
CONTINUOUS
10
5.23809
20
-4.56187
11
5.23674
21
-4.56456
0
LINE
8
BLACK
6
CONTINUOUS
10
5.23674
20
-4.56456
11
5.23674
21
-4.56538
0
LINE
8
BLACK
6
CONTINUOUS
10
5.23674
20
-4.56538
11
5.24705
21
-4.56332
0
LINE
8
BLACK
6
CONTINUOUS
10
5.24705
20
-4.56332
11
5.24705
21
-4.56269
0
LINE
8
BLACK
6
CONTINUOUS
10
5.24705
20
-4.56269
11
5.24593
21
-4.56044
0
LINE
8
BLACK
6
CONTINUOUS
10
5.24593
20
-4.56044
11
5.24368
21
-4.55932
0
LINE
8
BLACK
6
CONTINUOUS
10
5.24368
20
-4.55932
11
5.24198
21
-4.55932
0
LINE
8
BLACK
6
CONTINUOUS
10
5.03354
20
-4.55359
11
5.03368
21
-4.55371
0
LINE
8
BLACK
6
CONTINUOUS
10
5.03368
20
-4.55371
11
5.03385
21
-4.55373
0
LINE
8
BLACK
6
CONTINUOUS
10
5.03385
20
-4.55373
11
5.0376
21
-4.5556
0
LINE
8
BLACK
6
CONTINUOUS
10
5.0376
20
-4.5556
11
5.03842
21
-4.55621
0
LINE
8
BLACK
6
CONTINUOUS
10
5.03842
20
-4.55621
11
5.0386
21
-4.55662
0
LINE
8
BLACK
6
CONTINUOUS
10
5.0386
20
-4.55662
11
5.03892
21
-4.55692
0
LINE
8
BLACK
6
CONTINUOUS
10
5.03892
20
-4.55692
11
5.0408
21
-4.56067
0
LINE
8
BLACK
6
CONTINUOUS
10
5.0408
20
-4.56067
11
5.04109
21
-4.56165
0
LINE
8
BLACK
6
CONTINUOUS
10
5.04109
20
-4.56165
11
5.04105
21
-4.56183
0
LINE
8
BLACK
6
CONTINUOUS
10
5.04105
20
-4.56183
11
5.04111
21
-4.56199
0
LINE
8
BLACK
6
CONTINUOUS
10
5.04111
20
-4.56199
11
5.04111
21
-4.56574
0
LINE
8
BLACK
6
CONTINUOUS
10
5.04111
20
-4.56574
11
5.04093
21
-4.56675
0
LINE
8
BLACK
6
CONTINUOUS
10
5.04093
20
-4.56675
11
5.04062
21
-4.56712
0
LINE
8
BLACK
6
CONTINUOUS
10
5.04062
20
-4.56712
11
5.04046
21
-4.56759
0
LINE
8
BLACK
6
CONTINUOUS
10
5.04046
20
-4.56759
11
5.03999
21
-4.56787
0
LINE
8
BLACK
6
CONTINUOUS
10
5.03999
20
-4.56787
11
5.03963
21
-4.5683
0
LINE
8
BLACK
6
CONTINUOUS
10
5.03963
20
-4.5683
11
5.03915
21
-4.56838
0
LINE
8
BLACK
6
CONTINUOUS
10
5.03915
20
-4.56838
11
5.03873
21
-4.56864
0
LINE
8
BLACK
6
CONTINUOUS
10
5.03873
20
-4.56864
11
5.02236
21
-4.57191
0
LINE
8
BLACK
6
CONTINUOUS
10
5.02236
20
-4.57191
11
5.02236
21
-4.57629
0
LINE
8
BLACK
6
CONTINUOUS
10
5.02236
20
-4.57629
11
5.02348
21
-4.57854
0
LINE
8
BLACK
6
CONTINUOUS
10
5.02348
20
-4.57854
11
5.02573
21
-4.57966
0
LINE
8
BLACK
6
CONTINUOUS
10
5.02573
20
-4.57966
11
5.03183
21
-4.57966
0
LINE
8
BLACK
6
CONTINUOUS
10
5.03183
20
-4.57966
11
5.03496
21
-4.5781
0
LINE
8
BLACK
6
CONTINUOUS
10
5.03496
20
-4.5781
11
5.03594
21
-4.57781
0
LINE
8
BLACK
6
CONTINUOUS
10
5.03594
20
-4.57781
11
5.03791
21
-4.57827
0
LINE
8
BLACK
6
CONTINUOUS
10
5.03791
20
-4.57827
11
5.03911
21
-4.5799
0
LINE
8
BLACK
6
CONTINUOUS
10
5.03911
20
-4.5799
11
5.03899
21
-4.58191
0
LINE
8
BLACK
6
CONTINUOUS
10
5.03899
20
-4.58191
11
5.0376
21
-4.58338
0
LINE
8
BLACK
6
CONTINUOUS
10
5.0376
20
-4.58338
11
5.03385
21
-4.58525
0
LINE
8
BLACK
6
CONTINUOUS
10
5.03385
20
-4.58525
11
5.03287
21
-4.58555
0
LINE
8
BLACK
6
CONTINUOUS
10
5.03287
20
-4.58555
11
5.0327
21
-4.58551
0
LINE
8
BLACK
6
CONTINUOUS
10
5.0327
20
-4.58551
11
5.03253
21
-4.58557
0
LINE
8
BLACK
6
CONTINUOUS
10
5.03253
20
-4.58557
11
5.02503
21
-4.58557
0
LINE
8
BLACK
6
CONTINUOUS
10
5.02503
20
-4.58557
11
5.02402
21
-4.58539
0
LINE
8
BLACK
6
CONTINUOUS
10
5.02402
20
-4.58539
11
5.02389
21
-4.58527
0
LINE
8
BLACK
6
CONTINUOUS
10
5.02389
20
-4.58527
11
5.02371
21
-4.58525
0
LINE
8
BLACK
6
CONTINUOUS
10
5.02371
20
-4.58525
11
5.01996
21
-4.58338
0
LINE
8
BLACK
6
CONTINUOUS
10
5.01996
20
-4.58338
11
5.01914
21
-4.58277
0
LINE
8
BLACK
6
CONTINUOUS
10
5.01914
20
-4.58277
11
5.01896
21
-4.58236
0
LINE
8
BLACK
6
CONTINUOUS
10
5.01896
20
-4.58236
11
5.01864
21
-4.58206
0
LINE
8
BLACK
6
CONTINUOUS
10
5.01864
20
-4.58206
11
5.01677
21
-4.57831
0
LINE
8
BLACK
6
CONTINUOUS
10
5.01677
20
-4.57831
11
5.01647
21
-4.57733
0
LINE
8
BLACK
6
CONTINUOUS
10
5.01647
20
-4.57733
11
5.01652
21
-4.57716
0
LINE
8
BLACK
6
CONTINUOUS
10
5.01652
20
-4.57716
11
5.01645
21
-4.57699
0
LINE
8
BLACK
6
CONTINUOUS
10
5.01645
20
-4.57699
11
5.01645
21
-4.56199
0
LINE
8
BLACK
6
CONTINUOUS
10
5.01645
20
-4.56199
11
5.01663
21
-4.56098
0
LINE
8
BLACK
6
CONTINUOUS
10
5.01663
20
-4.56098
11
5.01675
21
-4.56085
0
LINE
8
BLACK
6
CONTINUOUS
10
5.01675
20
-4.56085
11
5.01677
21
-4.56067
0
LINE
8
BLACK
6
CONTINUOUS
10
5.01677
20
-4.56067
11
5.01864
21
-4.55692
0
LINE
8
BLACK
6
CONTINUOUS
10
5.01864
20
-4.55692
11
5.01925
21
-4.5561
0
LINE
8
BLACK
6
CONTINUOUS
10
5.01925
20
-4.5561
11
5.01966
21
-4.55592
0
LINE
8
BLACK
6
CONTINUOUS
10
5.01966
20
-4.55592
11
5.01996
21
-4.5556
0
LINE
8
BLACK
6
CONTINUOUS
10
5.01996
20
-4.5556
11
5.02371
21
-4.55373
0
LINE
8
BLACK
6
CONTINUOUS
10
5.02371
20
-4.55373
11
5.02469
21
-4.55343
0
LINE
8
BLACK
6
CONTINUOUS
10
5.02469
20
-4.55343
11
5.02487
21
-4.55347
0
LINE
8
BLACK
6
CONTINUOUS
10
5.02487
20
-4.55347
11
5.02503
21
-4.55341
0
LINE
8
BLACK
6
CONTINUOUS
10
5.02503
20
-4.55341
11
5.03253
21
-4.55341
0
LINE
8
BLACK
6
CONTINUOUS
10
5.03253
20
-4.55341
11
5.03354
21
-4.55359
0
LINE
8
BLACK
6
CONTINUOUS
10
5.02573
20
-4.55932
11
5.02348
21
-4.56044
0
LINE
8
BLACK
6
CONTINUOUS
10
5.02348
20
-4.56044
11
5.02236
21
-4.56269
0
LINE
8
BLACK
6
CONTINUOUS
10
5.02236
20
-4.56269
11
5.02236
21
-4.56589
0
LINE
8
BLACK
6
CONTINUOUS
10
5.02236
20
-4.56589
11
5.0352
21
-4.56332
0
LINE
8
BLACK
6
CONTINUOUS
10
5.0352
20
-4.56332
11
5.0352
21
-4.56269
0
LINE
8
BLACK
6
CONTINUOUS
10
5.0352
20
-4.56269
11
5.03408
21
-4.56044
0
LINE
8
BLACK
6
CONTINUOUS
10
5.03408
20
-4.56044
11
5.03183
21
-4.55932
0
LINE
8
BLACK
6
CONTINUOUS
10
5.03183
20
-4.55932
11
5.02573
21
-4.55932
0
LINE
8
BLACK
6
CONTINUOUS
10
5.57211
20
-4.58539
11
5.57197
21
-4.58527
0
LINE
8
BLACK
6
CONTINUOUS
10
5.57197
20
-4.58527
11
5.5718
21
-4.58525
0
LINE
8
BLACK
6
CONTINUOUS
10
5.5718
20
-4.58525
11
5.56805
21
-4.58338
0
LINE
8
BLACK
6
CONTINUOUS
10
5.56805
20
-4.58338
11
5.56734
21
-4.58285
0
LINE
8
BLACK
6
CONTINUOUS
10
5.56734
20
-4.58285
11
5.56728
21
-4.58283
0
LINE
8
BLACK
6
CONTINUOUS
10
5.56728
20
-4.58283
11
5.56541
21
-4.58095
0
LINE
8
BLACK
6
CONTINUOUS
10
5.56541
20
-4.58095
11
5.56482
21
-4.58011
0
LINE
8
BLACK
6
CONTINUOUS
10
5.56482
20
-4.58011
11
5.56464
21
-4.5781
0
LINE
8
BLACK
6
CONTINUOUS
10
5.56464
20
-4.5781
11
5.5658
21
-4.57645
0
LINE
8
BLACK
6
CONTINUOUS
10
5.5658
20
-4.57645
11
5.56775
21
-4.57592
0
LINE
8
BLACK
6
CONTINUOUS
10
5.56775
20
-4.57592
11
5.56958
21
-4.57678
0
LINE
8
BLACK
6
CONTINUOUS
10
5.56958
20
-4.57678
11
5.57112
21
-4.57831
0
LINE
8
BLACK
6
CONTINUOUS
10
5.57112
20
-4.57831
11
5.57314
21
-4.57932
0
LINE
8
BLACK
6
CONTINUOUS
10
5.57314
20
-4.57932
11
5.5717
21
-4.57643
0
LINE
8
BLACK
6
CONTINUOUS
10
5.5717
20
-4.57643
11
5.5714
21
-4.57545
0
LINE
8
BLACK
6
CONTINUOUS
10
5.5714
20
-4.57545
11
5.57145
21
-4.57528
0
LINE
8
BLACK
6
CONTINUOUS
10
5.57145
20
-4.57528
11
5.57139
21
-4.57511
0
LINE
8
BLACK
6
CONTINUOUS
10
5.57139
20
-4.57511
11
5.57139
21
-4.56387
0
LINE
8
BLACK
6
CONTINUOUS
10
5.57139
20
-4.56387
11
5.57156
21
-4.56286
0
LINE
8
BLACK
6
CONTINUOUS
10
5.57156
20
-4.56286
11
5.57168
21
-4.56272
0
LINE
8
BLACK
6
CONTINUOUS
10
5.57168
20
-4.56272
11
5.5717
21
-4.56255
0
LINE
8
BLACK
6
CONTINUOUS
10
5.5717
20
-4.56255
11
5.57357
21
-4.5588
0
LINE
8
BLACK
6
CONTINUOUS
10
5.57357
20
-4.5588
11
5.5741
21
-4.55809
0
LINE
8
BLACK
6
CONTINUOUS
10
5.5741
20
-4.55809
11
5.57413
21
-4.55803
0
LINE
8
BLACK
6
CONTINUOUS
10
5.57413
20
-4.55803
11
5.576
21
-4.55615
0
LINE
8
BLACK
6
CONTINUOUS
10
5.576
20
-4.55615
11
5.57672
21
-4.55565
0
LINE
8
BLACK
6
CONTINUOUS
10
5.57672
20
-4.55565
11
5.57677
21
-4.5556
0
LINE
8
BLACK
6
CONTINUOUS
10
5.57677
20
-4.5556
11
5.57741
21
-4.55528
0
LINE
8
BLACK
6
CONTINUOUS
10
5.57741
20
-4.55528
11
5.58536
21
-4.5462
0
LINE
8
BLACK
6
CONTINUOUS
10
5.58536
20
-4.5462
11
5.5675
21
-4.5462
0
LINE
8
BLACK
6
CONTINUOUS
10
5.5675
20
-4.5462
11
5.56649
21
-4.54602
0
LINE
8
BLACK
6
CONTINUOUS
10
5.56649
20
-4.54602
11
5.56494
21
-4.54472
0
LINE
8
BLACK
6
CONTINUOUS
10
5.56494
20
-4.54472
11
5.56459
21
-4.54273
0
LINE
8
BLACK
6
CONTINUOUS
10
5.56459
20
-4.54273
11
5.5656
21
-4.54098
0
LINE
8
BLACK
6
CONTINUOUS
10
5.5656
20
-4.54098
11
5.5675
21
-4.54029
0
LINE
8
BLACK
6
CONTINUOUS
10
5.5675
20
-4.54029
11
5.59187
21
-4.54029
0
LINE
8
BLACK
6
CONTINUOUS
10
5.59187
20
-4.54029
11
5.5923
21
-4.54037
0
LINE
8
BLACK
6
CONTINUOUS
10
5.5923
20
-4.54037
11
5.59244
21
-4.54035
0
LINE
8
BLACK
6
CONTINUOUS
10
5.59244
20
-4.54035
11
5.59254
21
-4.54041
0
LINE
8
BLACK
6
CONTINUOUS
10
5.59254
20
-4.54041
11
5.59286
21
-4.54047
0
LINE
8
BLACK
6
CONTINUOUS
10
5.59286
20
-4.54047
11
5.5936
21
-4.54034
0
LINE
8
BLACK
6
CONTINUOUS
10
5.5936
20
-4.54034
11
5.59535
21
-4.54135
0
LINE
8
BLACK
6
CONTINUOUS
10
5.59535
20
-4.54135
11
5.59604
21
-4.54324
0
LINE
8
BLACK
6
CONTINUOUS
10
5.59604
20
-4.54324
11
5.59604
21
-4.58261
0
LINE
8
BLACK
6
CONTINUOUS
10
5.59604
20
-4.58261
11
5.59586
21
-4.58362
0
LINE
8
BLACK
6
CONTINUOUS
10
5.59586
20
-4.58362
11
5.59456
21
-4.58517
0
LINE
8
BLACK
6
CONTINUOUS
10
5.59456
20
-4.58517
11
5.59257
21
-4.58552
0
LINE
8
BLACK
6
CONTINUOUS
10
5.59257
20
-4.58552
11
5.59144
21
-4.58486
0
LINE
8
BLACK
6
CONTINUOUS
10
5.59144
20
-4.58486
11
5.59066
21
-4.58525
0
LINE
8
BLACK
6
CONTINUOUS
10
5.59066
20
-4.58525
11
5.58967
21
-4.58555
0
LINE
8
BLACK
6
CONTINUOUS
10
5.58967
20
-4.58555
11
5.5895
21
-4.58551
0
LINE
8
BLACK
6
CONTINUOUS
10
5.5895
20
-4.58551
11
5.58934
21
-4.58557
0
LINE
8
BLACK
6
CONTINUOUS
10
5.58934
20
-4.58557
11
5.57312
21
-4.58557
0
LINE
8
BLACK
6
CONTINUOUS
10
5.57312
20
-4.58557
11
5.57211
21
-4.58539
0
LINE
8
BLACK
6
CONTINUOUS
10
5.57931
20
-4.56119
11
5.57864
21
-4.56187
0
LINE
8
BLACK
6
CONTINUOUS
10
5.57864
20
-4.56187
11
5.57729
21
-4.56456
0
LINE
8
BLACK
6
CONTINUOUS
10
5.57729
20
-4.56456
11
5.57729
21
-4.57442
0
LINE
8
BLACK
6
CONTINUOUS
10
5.57729
20
-4.57442
11
5.57864
21
-4.57711
0
LINE
8
BLACK
6
CONTINUOUS
10
5.57864
20
-4.57711
11
5.57984
21
-4.57831
0
LINE
8
BLACK
6
CONTINUOUS
10
5.57984
20
-4.57831
11
5.58253
21
-4.57966
0
LINE
8
BLACK
6
CONTINUOUS
10
5.58253
20
-4.57966
11
5.58367
21
-4.57966
0
LINE
8
BLACK
6
CONTINUOUS
10
5.58367
20
-4.57966
11
5.58637
21
-4.57831
0
LINE
8
BLACK
6
CONTINUOUS
10
5.58637
20
-4.57831
11
5.58757
21
-4.57711
0
LINE
8
BLACK
6
CONTINUOUS
10
5.58757
20
-4.57711
11
5.58891
21
-4.57442
0
LINE
8
BLACK
6
CONTINUOUS
10
5.58891
20
-4.57442
11
5.58891
21
-4.56644
0
LINE
8
BLACK
6
CONTINUOUS
10
5.58891
20
-4.56644
11
5.58757
21
-4.56374
0
LINE
8
BLACK
6
CONTINUOUS
10
5.58757
20
-4.56374
11
5.58637
21
-4.56254
0
LINE
8
BLACK
6
CONTINUOUS
10
5.58637
20
-4.56254
11
5.58367
21
-4.56119
0
LINE
8
BLACK
6
CONTINUOUS
10
5.58367
20
-4.56119
11
5.57931
21
-4.56119
0
LINE
8
BLACK
6
CONTINUOUS
10
5.58689
20
-4.55341
11
5.58934
21
-4.55341
0
LINE
8
BLACK
6
CONTINUOUS
10
5.58934
20
-4.55341
11
5.59013
21
-4.55355
0
LINE
8
BLACK
6
CONTINUOUS
10
5.59013
20
-4.55355
11
5.59013
21
-4.54971
0
LINE
8
BLACK
6
CONTINUOUS
10
5.59013
20
-4.54971
11
5.58689
21
-4.55341
0
LINE
8
BLACK
6
CONTINUOUS
10
5.12853
20
-4.55447
11
5.12922
21
-4.55637
0
LINE
8
BLACK
6
CONTINUOUS
10
5.12922
20
-4.55637
11
5.12922
21
-4.58261
0
LINE
8
BLACK
6
CONTINUOUS
10
5.12922
20
-4.58261
11
5.12904
21
-4.58362
0
LINE
8
BLACK
6
CONTINUOUS
10
5.12904
20
-4.58362
11
5.12775
21
-4.58517
0
LINE
8
BLACK
6
CONTINUOUS
10
5.12775
20
-4.58517
11
5.12576
21
-4.58552
0
LINE
8
BLACK
6
CONTINUOUS
10
5.12576
20
-4.58552
11
5.12401
21
-4.58451
0
LINE
8
BLACK
6
CONTINUOUS
10
5.12401
20
-4.58451
11
5.12392
21
-4.58428
0
LINE
8
BLACK
6
CONTINUOUS
10
5.12392
20
-4.58428
11
5.12197
21
-4.58525
0
LINE
8
BLACK
6
CONTINUOUS
10
5.12197
20
-4.58525
11
5.12098
21
-4.58555
0
LINE
8
BLACK
6
CONTINUOUS
10
5.12098
20
-4.58555
11
5.12081
21
-4.58551
0
LINE
8
BLACK
6
CONTINUOUS
10
5.12081
20
-4.58551
11
5.12064
21
-4.58557
0
LINE
8
BLACK
6
CONTINUOUS
10
5.12064
20
-4.58557
11
5.11502
21
-4.58557
0
LINE
8
BLACK
6
CONTINUOUS
10
5.11502
20
-4.58557
11
5.11401
21
-4.58539
0
LINE
8
BLACK
6
CONTINUOUS
10
5.11401
20
-4.58539
11
5.11388
21
-4.58527
0
LINE
8
BLACK
6
CONTINUOUS
10
5.11388
20
-4.58527
11
5.1137
21
-4.58525
0
LINE
8
BLACK
6
CONTINUOUS
10
5.1137
20
-4.58525
11
5.10995
21
-4.58338
0
LINE
8
BLACK
6
CONTINUOUS
10
5.10995
20
-4.58338
11
5.10913
21
-4.58277
0
LINE
8
BLACK
6
CONTINUOUS
10
5.10913
20
-4.58277
11
5.10895
21
-4.58236
0
LINE
8
BLACK
6
CONTINUOUS
10
5.10895
20
-4.58236
11
5.10863
21
-4.58206
0
LINE
8
BLACK
6
CONTINUOUS
10
5.10863
20
-4.58206
11
5.10676
21
-4.57831
0
LINE
8
BLACK
6
CONTINUOUS
10
5.10676
20
-4.57831
11
5.10646
21
-4.57733
0
LINE
8
BLACK
6
CONTINUOUS
10
5.10646
20
-4.57733
11
5.1065
21
-4.57716
0
LINE
8
BLACK
6
CONTINUOUS
10
5.1065
20
-4.57716
11
5.10644
21
-4.57699
0
LINE
8
BLACK
6
CONTINUOUS
10
5.10644
20
-4.57699
11
5.10644
21
-4.55637
0
LINE
8
BLACK
6
CONTINUOUS
10
5.10644
20
-4.55637
11
5.10662
21
-4.55536
0
LINE
8
BLACK
6
CONTINUOUS
10
5.10662
20
-4.55536
11
5.10792
21
-4.55381
0
LINE
8
BLACK
6
CONTINUOUS
10
5.10792
20
-4.55381
11
5.10991
21
-4.55346
0
LINE
8
BLACK
6
CONTINUOUS
10
5.10991
20
-4.55346
11
5.11166
21
-4.55447
0
LINE
8
BLACK
6
CONTINUOUS
10
5.11166
20
-4.55447
11
5.11235
21
-4.55637
0
LINE
8
BLACK
6
CONTINUOUS
10
5.11235
20
-4.55637
11
5.11235
21
-4.57629
0
LINE
8
BLACK
6
CONTINUOUS
10
5.11235
20
-4.57629
11
5.11347
21
-4.57854
0
LINE
8
BLACK
6
CONTINUOUS
10
5.11347
20
-4.57854
11
5.11572
21
-4.57966
0
LINE
8
BLACK
6
CONTINUOUS
10
5.11572
20
-4.57966
11
5.11995
21
-4.57966
0
LINE
8
BLACK
6
CONTINUOUS
10
5.11995
20
-4.57966
11
5.12265
21
-4.57831
0
LINE
8
BLACK
6
CONTINUOUS
10
5.12265
20
-4.57831
11
5.12332
21
-4.57764
0
LINE
8
BLACK
6
CONTINUOUS
10
5.12332
20
-4.57764
11
5.12332
21
-4.55637
0
LINE
8
BLACK
6
CONTINUOUS
10
5.12332
20
-4.55637
11
5.12349
21
-4.55536
0
LINE
8
BLACK
6
CONTINUOUS
10
5.12349
20
-4.55536
11
5.12479
21
-4.55381
0
LINE
8
BLACK
6
CONTINUOUS
10
5.12479
20
-4.55381
11
5.12678
21
-4.55346
0
LINE
8
BLACK
6
CONTINUOUS
10
5.12678
20
-4.55346
11
5.12853
21
-4.55447
0
LINE
8
BLACK
6
CONTINUOUS
10
5.84535
20
-4.54135
11
5.84604
21
-4.54324
0
LINE
8
BLACK
6
CONTINUOUS
10
5.84604
20
-4.54324
11
5.84604
21
-4.58261
0
LINE
8
BLACK
6
CONTINUOUS
10
5.84604
20
-4.58261
11
5.84586
21
-4.58362
0
LINE
8
BLACK
6
CONTINUOUS
10
5.84586
20
-4.58362
11
5.84456
21
-4.58517
0
LINE
8
BLACK
6
CONTINUOUS
10
5.84456
20
-4.58517
11
5.84257
21
-4.58552
0
LINE
8
BLACK
6
CONTINUOUS
10
5.84257
20
-4.58552
11
5.84144
21
-4.58486
0
LINE
8
BLACK
6
CONTINUOUS
10
5.84144
20
-4.58486
11
5.84066
21
-4.58525
0
LINE
8
BLACK
6
CONTINUOUS
10
5.84066
20
-4.58525
11
5.83967
21
-4.58555
0
LINE
8
BLACK
6
CONTINUOUS
10
5.83967
20
-4.58555
11
5.8395
21
-4.58551
0
LINE
8
BLACK
6
CONTINUOUS
10
5.8395
20
-4.58551
11
5.83934
21
-4.58557
0
LINE
8
BLACK
6
CONTINUOUS
10
5.83934
20
-4.58557
11
5.83184
21
-4.58557
0
LINE
8
BLACK
6
CONTINUOUS
10
5.83184
20
-4.58557
11
5.83083
21
-4.58539
0
LINE
8
BLACK
6
CONTINUOUS
10
5.83083
20
-4.58539
11
5.83069
21
-4.58527
0
LINE
8
BLACK
6
CONTINUOUS
10
5.83069
20
-4.58527
11
5.83052
21
-4.58525
0
LINE
8
BLACK
6
CONTINUOUS
10
5.83052
20
-4.58525
11
5.82677
21
-4.58338
0
LINE
8
BLACK
6
CONTINUOUS
10
5.82677
20
-4.58338
11
5.82606
21
-4.58285
0
LINE
8
BLACK
6
CONTINUOUS
10
5.82606
20
-4.58285
11
5.826
21
-4.58283
0
LINE
8
BLACK
6
CONTINUOUS
10
5.826
20
-4.58283
11
5.82413
21
-4.58095
0
LINE
8
BLACK
6
CONTINUOUS
10
5.82413
20
-4.58095
11
5.82362
21
-4.58023
0
LINE
8
BLACK
6
CONTINUOUS
10
5.82362
20
-4.58023
11
5.82357
21
-4.58018
0
LINE
8
BLACK
6
CONTINUOUS
10
5.82357
20
-4.58018
11
5.8217
21
-4.57643
0
LINE
8
BLACK
6
CONTINUOUS
10
5.8217
20
-4.57643
11
5.8214
21
-4.57545
0
LINE
8
BLACK
6
CONTINUOUS
10
5.8214
20
-4.57545
11
5.82145
21
-4.57528
0
LINE
8
BLACK
6
CONTINUOUS
10
5.82145
20
-4.57528
11
5.82139
21
-4.57511
0
LINE
8
BLACK
6
CONTINUOUS
10
5.82139
20
-4.57511
11
5.82139
21
-4.56387
0
LINE
8
BLACK
6
CONTINUOUS
10
5.82139
20
-4.56387
11
5.82156
21
-4.56286
0
LINE
8
BLACK
6
CONTINUOUS
10
5.82156
20
-4.56286
11
5.82168
21
-4.56272
0
LINE
8
BLACK
6
CONTINUOUS
10
5.82168
20
-4.56272
11
5.8217
21
-4.56255
0
LINE
8
BLACK
6
CONTINUOUS
10
5.8217
20
-4.56255
11
5.82357
21
-4.5588
0
LINE
8
BLACK
6
CONTINUOUS
10
5.82357
20
-4.5588
11
5.8241
21
-4.55809
0
LINE
8
BLACK
6
CONTINUOUS
10
5.8241
20
-4.55809
11
5.82413
21
-4.55803
0
LINE
8
BLACK
6
CONTINUOUS
10
5.82413
20
-4.55803
11
5.826
21
-4.55615
0
LINE
8
BLACK
6
CONTINUOUS
10
5.826
20
-4.55615
11
5.82672
21
-4.55565
0
LINE
8
BLACK
6
CONTINUOUS
10
5.82672
20
-4.55565
11
5.82677
21
-4.5556
0
LINE
8
BLACK
6
CONTINUOUS
10
5.82677
20
-4.5556
11
5.83052
21
-4.55373
0
LINE
8
BLACK
6
CONTINUOUS
10
5.83052
20
-4.55373
11
5.8315
21
-4.55343
0
LINE
8
BLACK
6
CONTINUOUS
10
5.8315
20
-4.55343
11
5.83167
21
-4.55347
0
LINE
8
BLACK
6
CONTINUOUS
10
5.83167
20
-4.55347
11
5.83184
21
-4.55341
0
LINE
8
BLACK
6
CONTINUOUS
10
5.83184
20
-4.55341
11
5.83934
21
-4.55341
0
LINE
8
BLACK
6
CONTINUOUS
10
5.83934
20
-4.55341
11
5.84013
21
-4.55355
0
LINE
8
BLACK
6
CONTINUOUS
10
5.84013
20
-4.55355
11
5.84013
21
-4.54324
0
LINE
8
BLACK
6
CONTINUOUS
10
5.84013
20
-4.54324
11
5.84031
21
-4.54223
0
LINE
8
BLACK
6
CONTINUOUS
10
5.84031
20
-4.54223
11
5.84161
21
-4.54069
0
LINE
8
BLACK
6
CONTINUOUS
10
5.84161
20
-4.54069
11
5.8436
21
-4.54034
0
LINE
8
BLACK
6
CONTINUOUS
10
5.8436
20
-4.54034
11
5.84535
21
-4.54135
0
LINE
8
BLACK
6
CONTINUOUS
10
5.83253
20
-4.55932
11
5.82984
21
-4.56067
0
LINE
8
BLACK
6
CONTINUOUS
10
5.82984
20
-4.56067
11
5.82864
21
-4.56187
0
LINE
8
BLACK
6
CONTINUOUS
10
5.82864
20
-4.56187
11
5.82729
21
-4.56456
0
LINE
8
BLACK
6
CONTINUOUS
10
5.82729
20
-4.56456
11
5.82729
21
-4.57442
0
LINE
8
BLACK
6
CONTINUOUS
10
5.82729
20
-4.57442
11
5.82864
21
-4.57711
0
LINE
8
BLACK
6
CONTINUOUS
10
5.82864
20
-4.57711
11
5.82984
21
-4.57831
0
LINE
8
BLACK
6
CONTINUOUS
10
5.82984
20
-4.57831
11
5.83253
21
-4.57966
0
LINE
8
BLACK
6
CONTINUOUS
10
5.83253
20
-4.57966
11
5.83864
21
-4.57966
0
LINE
8
BLACK
6
CONTINUOUS
10
5.83864
20
-4.57966
11
5.84013
21
-4.57891
0
LINE
8
BLACK
6
CONTINUOUS
10
5.84013
20
-4.57891
11
5.84013
21
-4.56007
0
LINE
8
BLACK
6
CONTINUOUS
10
5.84013
20
-4.56007
11
5.83864
21
-4.55932
0
LINE
8
BLACK
6
CONTINUOUS
10
5.83864
20
-4.55932
11
5.83253
21
-4.55932
0
LINE
8
BLACK
6
CONTINUOUS
10
5.74036
20
-4.54135
11
5.74105
21
-4.54324
0
LINE
8
BLACK
6
CONTINUOUS
10
5.74105
20
-4.54324
11
5.74105
21
-4.58261
0
LINE
8
BLACK
6
CONTINUOUS
10
5.74105
20
-4.58261
11
5.74087
21
-4.58362
0
LINE
8
BLACK
6
CONTINUOUS
10
5.74087
20
-4.58362
11
5.73958
21
-4.58517
0
LINE
8
BLACK
6
CONTINUOUS
10
5.73958
20
-4.58517
11
5.73759
21
-4.58552
0
LINE
8
BLACK
6
CONTINUOUS
10
5.73759
20
-4.58552
11
5.73645
21
-4.58486
0
LINE
8
BLACK
6
CONTINUOUS
10
5.73645
20
-4.58486
11
5.73567
21
-4.58525
0
LINE
8
BLACK
6
CONTINUOUS
10
5.73567
20
-4.58525
11
5.73469
21
-4.58555
0
LINE
8
BLACK
6
CONTINUOUS
10
5.73469
20
-4.58555
11
5.73452
21
-4.58551
0
LINE
8
BLACK
6
CONTINUOUS
10
5.73452
20
-4.58551
11
5.73435
21
-4.58557
0
LINE
8
BLACK
6
CONTINUOUS
10
5.73435
20
-4.58557
11
5.72685
21
-4.58557
0
LINE
8
BLACK
6
CONTINUOUS
10
5.72685
20
-4.58557
11
5.72584
21
-4.58539
0
LINE
8
BLACK
6
CONTINUOUS
10
5.72584
20
-4.58539
11
5.72571
21
-4.58527
0
LINE
8
BLACK
6
CONTINUOUS
10
5.72571
20
-4.58527
11
5.72553
21
-4.58525
0
LINE
8
BLACK
6
CONTINUOUS
10
5.72553
20
-4.58525
11
5.72178
21
-4.58338
0
LINE
8
BLACK
6
CONTINUOUS
10
5.72178
20
-4.58338
11
5.72107
21
-4.58285
0
LINE
8
BLACK
6
CONTINUOUS
10
5.72107
20
-4.58285
11
5.72101
21
-4.58283
0
LINE
8
BLACK
6
CONTINUOUS
10
5.72101
20
-4.58283
11
5.71914
21
-4.58095
0
LINE
8
BLACK
6
CONTINUOUS
10
5.71914
20
-4.58095
11
5.71863
21
-4.58023
0
LINE
8
BLACK
6
CONTINUOUS
10
5.71863
20
-4.58023
11
5.71859
21
-4.58018
0
LINE
8
BLACK
6
CONTINUOUS
10
5.71859
20
-4.58018
11
5.71671
21
-4.57643
0
LINE
8
BLACK
6
CONTINUOUS
10
5.71671
20
-4.57643
11
5.71642
21
-4.57545
0
LINE
8
BLACK
6
CONTINUOUS
10
5.71642
20
-4.57545
11
5.71646
21
-4.57528
0
LINE
8
BLACK
6
CONTINUOUS
10
5.71646
20
-4.57528
11
5.7164
21
-4.57511
0
LINE
8
BLACK
6
CONTINUOUS
10
5.7164
20
-4.57511
11
5.7164
21
-4.56387
0
LINE
8
BLACK
6
CONTINUOUS
10
5.7164
20
-4.56387
11
5.71658
21
-4.56286
0
LINE
8
BLACK
6
CONTINUOUS
10
5.71658
20
-4.56286
11
5.71669
21
-4.56272
0
LINE
8
BLACK
6
CONTINUOUS
10
5.71669
20
-4.56272
11
5.71671
21
-4.56255
0
LINE
8
BLACK
6
CONTINUOUS
10
5.71671
20
-4.56255
11
5.71859
21
-4.5588
0
LINE
8
BLACK
6
CONTINUOUS
10
5.71859
20
-4.5588
11
5.71911
21
-4.55809
0
LINE
8
BLACK
6
CONTINUOUS
10
5.71911
20
-4.55809
11
5.71914
21
-4.55803
0
LINE
8
BLACK
6
CONTINUOUS
10
5.71914
20
-4.55803
11
5.72101
21
-4.55615
0
LINE
8
BLACK
6
CONTINUOUS
10
5.72101
20
-4.55615
11
5.72174
21
-4.55565
0
LINE
8
BLACK
6
CONTINUOUS
10
5.72174
20
-4.55565
11
5.72178
21
-4.5556
0
LINE
8
BLACK
6
CONTINUOUS
10
5.72178
20
-4.5556
11
5.72553
21
-4.55373
0
LINE
8
BLACK
6
CONTINUOUS
10
5.72553
20
-4.55373
11
5.72651
21
-4.55343
0
LINE
8
BLACK
6
CONTINUOUS
10
5.72651
20
-4.55343
11
5.72668
21
-4.55347
0
LINE
8
BLACK
6
CONTINUOUS
10
5.72668
20
-4.55347
11
5.72685
21
-4.55341
0
LINE
8
BLACK
6
CONTINUOUS
10
5.72685
20
-4.55341
11
5.73435
21
-4.55341
0
LINE
8
BLACK
6
CONTINUOUS
10
5.73435
20
-4.55341
11
5.73515
21
-4.55355
0
LINE
8
BLACK
6
CONTINUOUS
10
5.73515
20
-4.55355
11
5.73515
21
-4.54324
0
LINE
8
BLACK
6
CONTINUOUS
10
5.73515
20
-4.54324
11
5.73532
21
-4.54223
0
LINE
8
BLACK
6
CONTINUOUS
10
5.73532
20
-4.54223
11
5.73662
21
-4.54069
0
LINE
8
BLACK
6
CONTINUOUS
10
5.73662
20
-4.54069
11
5.73861
21
-4.54034
0
LINE
8
BLACK
6
CONTINUOUS
10
5.73861
20
-4.54034
11
5.74036
21
-4.54135
0
LINE
8
BLACK
6
CONTINUOUS
10
5.72755
20
-4.55932
11
5.72485
21
-4.56067
0
LINE
8
BLACK
6
CONTINUOUS
10
5.72485
20
-4.56067
11
5.72365
21
-4.56187
0
LINE
8
BLACK
6
CONTINUOUS
10
5.72365
20
-4.56187
11
5.7223
21
-4.56456
0
LINE
8
BLACK
6
CONTINUOUS
10
5.7223
20
-4.56456
11
5.7223
21
-4.57442
0
LINE
8
BLACK
6
CONTINUOUS
10
5.7223
20
-4.57442
11
5.72365
21
-4.57711
0
LINE
8
BLACK
6
CONTINUOUS
10
5.72365
20
-4.57711
11
5.72485
21
-4.57831
0
LINE
8
BLACK
6
CONTINUOUS
10
5.72485
20
-4.57831
11
5.72755
21
-4.57966
0
LINE
8
BLACK
6
CONTINUOUS
10
5.72755
20
-4.57966
11
5.73365
21
-4.57966
0
LINE
8
BLACK
6
CONTINUOUS
10
5.73365
20
-4.57966
11
5.73515
21
-4.57891
0
LINE
8
BLACK
6
CONTINUOUS
10
5.73515
20
-4.57891
11
5.73515
21
-4.56007
0
LINE
8
BLACK
6
CONTINUOUS
10
5.73515
20
-4.56007
11
5.73365
21
-4.55932
0
LINE
8
BLACK
6
CONTINUOUS
10
5.73365
20
-4.55932
11
5.72755
21
-4.55932
0
LINE
8
BLACK
6
CONTINUOUS
10
5.87155
20
-4.54036
11
5.87172
21
-4.54034
0
LINE
8
BLACK
6
CONTINUOUS
10
5.87172
20
-4.54034
11
5.87246
21
-4.54076
0
LINE
8
BLACK
6
CONTINUOUS
10
5.87246
20
-4.54076
11
5.87325
21
-4.54111
0
LINE
8
BLACK
6
CONTINUOUS
10
5.87325
20
-4.54111
11
5.87332
21
-4.54126
0
LINE
8
BLACK
6
CONTINUOUS
10
5.87332
20
-4.54126
11
5.87347
21
-4.54135
0
LINE
8
BLACK
6
CONTINUOUS
10
5.87347
20
-4.54135
11
5.87376
21
-4.54215
0
LINE
8
BLACK
6
CONTINUOUS
10
5.87376
20
-4.54215
11
5.87414
21
-4.54292
0
LINE
8
BLACK
6
CONTINUOUS
10
5.87414
20
-4.54292
11
5.8741
21
-4.54308
0
LINE
8
BLACK
6
CONTINUOUS
10
5.8741
20
-4.54308
11
5.87416
21
-4.54324
0
LINE
8
BLACK
6
CONTINUOUS
10
5.87416
20
-4.54324
11
5.87416
21
-4.57966
0
LINE
8
BLACK
6
CONTINUOUS
10
5.87416
20
-4.57966
11
5.88246
21
-4.57966
0
LINE
8
BLACK
6
CONTINUOUS
10
5.88246
20
-4.57966
11
5.88347
21
-4.57984
0
LINE
8
BLACK
6
CONTINUOUS
10
5.88347
20
-4.57984
11
5.88501
21
-4.58114
0
LINE
8
BLACK
6
CONTINUOUS
10
5.88501
20
-4.58114
11
5.88536
21
-4.58313
0
LINE
8
BLACK
6
CONTINUOUS
10
5.88536
20
-4.58313
11
5.88435
21
-4.58488
0
LINE
8
BLACK
6
CONTINUOUS
10
5.88435
20
-4.58488
11
5.88246
21
-4.58557
0
LINE
8
BLACK
6
CONTINUOUS
10
5.88246
20
-4.58557
11
5.85996
21
-4.58557
0
LINE
8
BLACK
6
CONTINUOUS
10
5.85996
20
-4.58557
11
5.85895
21
-4.58539
0
LINE
8
BLACK
6
CONTINUOUS
10
5.85895
20
-4.58539
11
5.8574
21
-4.58409
0
LINE
8
BLACK
6
CONTINUOUS
10
5.8574
20
-4.58409
11
5.85705
21
-4.5821
0
LINE
8
BLACK
6
CONTINUOUS
10
5.85705
20
-4.5821
11
5.85806
21
-4.58035
0
LINE
8
BLACK
6
CONTINUOUS
10
5.85806
20
-4.58035
11
5.85996
21
-4.57966
0
LINE
8
BLACK
6
CONTINUOUS
10
5.85996
20
-4.57966
11
5.86825
21
-4.57966
0
LINE
8
BLACK
6
CONTINUOUS
10
5.86825
20
-4.57966
11
5.86825
21
-4.55225
0
LINE
8
BLACK
6
CONTINUOUS
10
5.86825
20
-4.55225
11
5.8658
21
-4.55471
0
LINE
8
BLACK
6
CONTINUOUS
10
5.8658
20
-4.55471
11
5.86507
21
-4.55521
0
LINE
8
BLACK
6
CONTINUOUS
10
5.86507
20
-4.55521
11
5.86503
21
-4.55526
0
LINE
8
BLACK
6
CONTINUOUS
10
5.86503
20
-4.55526
11
5.86128
21
-4.55713
0
LINE
8
BLACK
6
CONTINUOUS
10
5.86128
20
-4.55713
11
5.8603
21
-4.55743
0
LINE
8
BLACK
6
CONTINUOUS
10
5.8603
20
-4.55743
11
5.85833
21
-4.55696
0
LINE
8
BLACK
6
CONTINUOUS
10
5.85833
20
-4.55696
11
5.85713
21
-4.55533
0
LINE
8
BLACK
6
CONTINUOUS
10
5.85713
20
-4.55533
11
5.85725
21
-4.55332
0
LINE
8
BLACK
6
CONTINUOUS
10
5.85725
20
-4.55332
11
5.85864
21
-4.55185
0
LINE
8
BLACK
6
CONTINUOUS
10
5.85864
20
-4.55185
11
5.86196
21
-4.55019
0
LINE
8
BLACK
6
CONTINUOUS
10
5.86196
20
-4.55019
11
5.86516
21
-4.54699
0
LINE
8
BLACK
6
CONTINUOUS
10
5.86516
20
-4.54699
11
5.86875
21
-4.54161
0
LINE
8
BLACK
6
CONTINUOUS
10
5.86875
20
-4.54161
11
5.86946
21
-4.54086
0
LINE
8
BLACK
6
CONTINUOUS
10
5.86946
20
-4.54086
11
5.86962
21
-4.54082
0
LINE
8
BLACK
6
CONTINUOUS
10
5.86962
20
-4.54082
11
5.86973
21
-4.54069
0
LINE
8
BLACK
6
CONTINUOUS
10
5.86973
20
-4.54069
11
5.87057
21
-4.54054
0
LINE
8
BLACK
6
CONTINUOUS
10
5.87057
20
-4.54054
11
5.8714
21
-4.5403
0
LINE
8
BLACK
6
CONTINUOUS
10
5.8714
20
-4.5403
11
5.87155
21
-4.54036
0
LINE
8
BLACK
6
CONTINUOUS
10
5.69036
20
-4.55359
11
5.69191
21
-4.55489
0
LINE
8
BLACK
6
CONTINUOUS
10
5.69191
20
-4.55489
11
5.69226
21
-4.55688
0
LINE
8
BLACK
6
CONTINUOUS
10
5.69226
20
-4.55688
11
5.69125
21
-4.55863
0
LINE
8
BLACK
6
CONTINUOUS
10
5.69125
20
-4.55863
11
5.68936
21
-4.55932
0
LINE
8
BLACK
6
CONTINUOUS
10
5.68936
20
-4.55932
11
5.6863
21
-4.55932
0
LINE
8
BLACK
6
CONTINUOUS
10
5.6863
20
-4.55932
11
5.68361
21
-4.56067
0
LINE
8
BLACK
6
CONTINUOUS
10
5.68361
20
-4.56067
11
5.68241
21
-4.56187
0
LINE
8
BLACK
6
CONTINUOUS
10
5.68241
20
-4.56187
11
5.68106
21
-4.56456
0
LINE
8
BLACK
6
CONTINUOUS
10
5.68106
20
-4.56456
11
5.68106
21
-4.58261
0
LINE
8
BLACK
6
CONTINUOUS
10
5.68106
20
-4.58261
11
5.68088
21
-4.58362
0
LINE
8
BLACK
6
CONTINUOUS
10
5.68088
20
-4.58362
11
5.67958
21
-4.58517
0
LINE
8
BLACK
6
CONTINUOUS
10
5.67958
20
-4.58517
11
5.67759
21
-4.58552
0
LINE
8
BLACK
6
CONTINUOUS
10
5.67759
20
-4.58552
11
5.67584
21
-4.58451
0
LINE
8
BLACK
6
CONTINUOUS
10
5.67584
20
-4.58451
11
5.67515
21
-4.58261
0
LINE
8
BLACK
6
CONTINUOUS
10
5.67515
20
-4.58261
11
5.67515
21
-4.55637
0
LINE
8
BLACK
6
CONTINUOUS
10
5.67515
20
-4.55637
11
5.67533
21
-4.55536
0
LINE
8
BLACK
6
CONTINUOUS
10
5.67533
20
-4.55536
11
5.67663
21
-4.55381
0
LINE
8
BLACK
6
CONTINUOUS
10
5.67663
20
-4.55381
11
5.67862
21
-4.55346
0
LINE
8
BLACK
6
CONTINUOUS
10
5.67862
20
-4.55346
11
5.68037
21
-4.55447
0
LINE
8
BLACK
6
CONTINUOUS
10
5.68037
20
-4.55447
11
5.68074
21
-4.5555
0
LINE
8
BLACK
6
CONTINUOUS
10
5.68074
20
-4.5555
11
5.68429
21
-4.55373
0
LINE
8
BLACK
6
CONTINUOUS
10
5.68429
20
-4.55373
11
5.68527
21
-4.55343
0
LINE
8
BLACK
6
CONTINUOUS
10
5.68527
20
-4.55343
11
5.68544
21
-4.55347
0
LINE
8
BLACK
6
CONTINUOUS
10
5.68544
20
-4.55347
11
5.68561
21
-4.55341
0
LINE
8
BLACK
6
CONTINUOUS
10
5.68561
20
-4.55341
11
5.68936
21
-4.55341
0
LINE
8
BLACK
6
CONTINUOUS
10
5.68936
20
-4.55341
11
5.69036
21
-4.55359
0
LINE
8
BLACK
6
CONTINUOUS
10
5.70474
20
-4.55447
11
5.70543
21
-4.55637
0
LINE
8
BLACK
6
CONTINUOUS
10
5.70543
20
-4.55637
11
5.70543
21
-4.58261
0
LINE
8
BLACK
6
CONTINUOUS
10
5.70543
20
-4.58261
11
5.70525
21
-4.58362
0
LINE
8
BLACK
6
CONTINUOUS
10
5.70525
20
-4.58362
11
5.70395
21
-4.58517
0
LINE
8
BLACK
6
CONTINUOUS
10
5.70395
20
-4.58517
11
5.70197
21
-4.58552
0
LINE
8
BLACK
6
CONTINUOUS
10
5.70197
20
-4.58552
11
5.70022
21
-4.58451
0
LINE
8
BLACK
6
CONTINUOUS
10
5.70022
20
-4.58451
11
5.69953
21
-4.58261
0
LINE
8
BLACK
6
CONTINUOUS
10
5.69953
20
-4.58261
11
5.69953
21
-4.55637
0
LINE
8
BLACK
6
CONTINUOUS
10
5.69953
20
-4.55637
11
5.6997
21
-4.55536
0
LINE
8
BLACK
6
CONTINUOUS
10
5.6997
20
-4.55536
11
5.701
21
-4.55381
0
LINE
8
BLACK
6
CONTINUOUS
10
5.701
20
-4.55381
11
5.70299
21
-4.55346
0
LINE
8
BLACK
6
CONTINUOUS
10
5.70299
20
-4.55346
11
5.70474
21
-4.55447
0
LINE
8
BLACK
6
CONTINUOUS
10
5.06729
20
-4.55359
11
5.06883
21
-4.55489
0
LINE
8
BLACK
6
CONTINUOUS
10
5.06883
20
-4.55489
11
5.06918
21
-4.55688
0
LINE
8
BLACK
6
CONTINUOUS
10
5.06918
20
-4.55688
11
5.06817
21
-4.55863
0
LINE
8
BLACK
6
CONTINUOUS
10
5.06817
20
-4.55863
11
5.06628
21
-4.55932
0
LINE
8
BLACK
6
CONTINUOUS
10
5.06628
20
-4.55932
11
5.06322
21
-4.55932
0
LINE
8
BLACK
6
CONTINUOUS
10
5.06322
20
-4.55932
11
5.06053
21
-4.56067
0
LINE
8
BLACK
6
CONTINUOUS
10
5.06053
20
-4.56067
11
5.05933
21
-4.56187
0
LINE
8
BLACK
6
CONTINUOUS
10
5.05933
20
-4.56187
11
5.05798
21
-4.56456
0
LINE
8
BLACK
6
CONTINUOUS
10
5.05798
20
-4.56456
11
5.05798
21
-4.58261
0
LINE
8
BLACK
6
CONTINUOUS
10
5.05798
20
-4.58261
11
5.0578
21
-4.58362
0
LINE
8
BLACK
6
CONTINUOUS
10
5.0578
20
-4.58362
11
5.0565
21
-4.58517
0
LINE
8
BLACK
6
CONTINUOUS
10
5.0565
20
-4.58517
11
5.05452
21
-4.58552
0
LINE
8
BLACK
6
CONTINUOUS
10
5.05452
20
-4.58552
11
5.05277
21
-4.58451
0
LINE
8
BLACK
6
CONTINUOUS
10
5.05277
20
-4.58451
11
5.05208
21
-4.58261
0
LINE
8
BLACK
6
CONTINUOUS
10
5.05208
20
-4.58261
11
5.05208
21
-4.55637
0
LINE
8
BLACK
6
CONTINUOUS
10
5.05208
20
-4.55637
11
5.05225
21
-4.55536
0
LINE
8
BLACK
6
CONTINUOUS
10
5.05225
20
-4.55536
11
5.05355
21
-4.55381
0
LINE
8
BLACK
6
CONTINUOUS
10
5.05355
20
-4.55381
11
5.05554
21
-4.55346
0
LINE
8
BLACK
6
CONTINUOUS
10
5.05554
20
-4.55346
11
5.05729
21
-4.55447
0
LINE
8
BLACK
6
CONTINUOUS
10
5.05729
20
-4.55447
11
5.05766
21
-4.5555
0
LINE
8
BLACK
6
CONTINUOUS
10
5.05766
20
-4.5555
11
5.06121
21
-4.55373
0
LINE
8
BLACK
6
CONTINUOUS
10
5.06121
20
-4.55373
11
5.06219
21
-4.55343
0
LINE
8
BLACK
6
CONTINUOUS
10
5.06219
20
-4.55343
11
5.06236
21
-4.55347
0
LINE
8
BLACK
6
CONTINUOUS
10
5.06236
20
-4.55347
11
5.06253
21
-4.55341
0
LINE
8
BLACK
6
CONTINUOUS
10
5.06253
20
-4.55341
11
5.06628
21
-4.55341
0
LINE
8
BLACK
6
CONTINUOUS
10
5.06628
20
-4.55341
11
5.06729
21
-4.55359
0
LINE
8
BLACK
6
CONTINUOUS
10
5.70286
20
-4.54036
11
5.70299
21
-4.54034
0
LINE
8
BLACK
6
CONTINUOUS
10
5.70299
20
-4.54034
11
5.70311
21
-4.5404
0
LINE
8
BLACK
6
CONTINUOUS
10
5.70311
20
-4.5404
11
5.70324
21
-4.54039
0
LINE
8
BLACK
6
CONTINUOUS
10
5.70324
20
-4.54039
11
5.70387
21
-4.54083
0
LINE
8
BLACK
6
CONTINUOUS
10
5.70387
20
-4.54083
11
5.70457
21
-4.54116
0
LINE
8
BLACK
6
CONTINUOUS
10
5.70457
20
-4.54116
11
5.70644
21
-4.54303
0
LINE
8
BLACK
6
CONTINUOUS
10
5.70644
20
-4.54303
11
5.70666
21
-4.54335
0
LINE
8
BLACK
6
CONTINUOUS
10
5.70666
20
-4.54335
11
5.70677
21
-4.54342
0
LINE
8
BLACK
6
CONTINUOUS
10
5.70677
20
-4.54342
11
5.70681
21
-4.54355
0
LINE
8
BLACK
6
CONTINUOUS
10
5.70681
20
-4.54355
11
5.70703
21
-4.54387
0
LINE
8
BLACK
6
CONTINUOUS
10
5.70703
20
-4.54387
11
5.7071
21
-4.54463
0
LINE
8
BLACK
6
CONTINUOUS
10
5.7071
20
-4.54463
11
5.70729
21
-4.54538
0
LINE
8
BLACK
6
CONTINUOUS
10
5.70729
20
-4.54538
11
5.70718
21
-4.54562
0
LINE
8
BLACK
6
CONTINUOUS
10
5.70718
20
-4.54562
11
5.70721
21
-4.54588
0
LINE
8
BLACK
6
CONTINUOUS
10
5.70721
20
-4.54588
11
5.70677
21
-4.54651
0
LINE
8
BLACK
6
CONTINUOUS
10
5.70677
20
-4.54651
11
5.70644
21
-4.54721
0
LINE
8
BLACK
6
CONTINUOUS
10
5.70644
20
-4.54721
11
5.70457
21
-4.54908
0
LINE
8
BLACK
6
CONTINUOUS
10
5.70457
20
-4.54908
11
5.70425
21
-4.5493
0
LINE
8
BLACK
6
CONTINUOUS
10
5.70425
20
-4.5493
11
5.70417
21
-4.54941
0
LINE
8
BLACK
6
CONTINUOUS
10
5.70417
20
-4.54941
11
5.70405
21
-4.54945
0
LINE
8
BLACK
6
CONTINUOUS
10
5.70405
20
-4.54945
11
5.70404
21
-4.54945
0
LINE
8
BLACK
6
CONTINUOUS
10
5.70404
20
-4.54945
11
5.70395
21
-4.54955
0
LINE
8
BLACK
6
CONTINUOUS
10
5.70395
20
-4.54955
11
5.70388
21
-4.54956
0
LINE
8
BLACK
6
CONTINUOUS
10
5.70388
20
-4.54956
11
5.70373
21
-4.54967
0
LINE
8
BLACK
6
CONTINUOUS
10
5.70373
20
-4.54967
11
5.70296
21
-4.54974
0
LINE
8
BLACK
6
CONTINUOUS
10
5.70296
20
-4.54974
11
5.70222
21
-4.54993
0
LINE
8
BLACK
6
CONTINUOUS
10
5.70222
20
-4.54993
11
5.7021
21
-4.54988
0
LINE
8
BLACK
6
CONTINUOUS
10
5.7021
20
-4.54988
11
5.70197
21
-4.5499
0
LINE
8
BLACK
6
CONTINUOUS
10
5.70197
20
-4.5499
11
5.70185
21
-4.54983
0
LINE
8
BLACK
6
CONTINUOUS
10
5.70185
20
-4.54983
11
5.70171
21
-4.54985
0
LINE
8
BLACK
6
CONTINUOUS
10
5.70171
20
-4.54985
11
5.70109
21
-4.5494
0
LINE
8
BLACK
6
CONTINUOUS
10
5.70109
20
-4.5494
11
5.70039
21
-4.54908
0
LINE
8
BLACK
6
CONTINUOUS
10
5.70039
20
-4.54908
11
5.69852
21
-4.54721
0
LINE
8
BLACK
6
CONTINUOUS
10
5.69852
20
-4.54721
11
5.69829
21
-4.54689
0
LINE
8
BLACK
6
CONTINUOUS
10
5.69829
20
-4.54689
11
5.69818
21
-4.54681
0
LINE
8
BLACK
6
CONTINUOUS
10
5.69818
20
-4.54681
11
5.69815
21
-4.54668
0
LINE
8
BLACK
6
CONTINUOUS
10
5.69815
20
-4.54668
11
5.69793
21
-4.54637
0
LINE
8
BLACK
6
CONTINUOUS
10
5.69793
20
-4.54637
11
5.69786
21
-4.5456
0
LINE
8
BLACK
6
CONTINUOUS
10
5.69786
20
-4.5456
11
5.69766
21
-4.54486
0
LINE
8
BLACK
6
CONTINUOUS
10
5.69766
20
-4.54486
11
5.69777
21
-4.54462
0
LINE
8
BLACK
6
CONTINUOUS
10
5.69777
20
-4.54462
11
5.69775
21
-4.54435
0
LINE
8
BLACK
6
CONTINUOUS
10
5.69775
20
-4.54435
11
5.69819
21
-4.54373
0
LINE
8
BLACK
6
CONTINUOUS
10
5.69819
20
-4.54373
11
5.69852
21
-4.54303
0
LINE
8
BLACK
6
CONTINUOUS
10
5.69852
20
-4.54303
11
5.70039
21
-4.54116
0
LINE
8
BLACK
6
CONTINUOUS
10
5.70039
20
-4.54116
11
5.70071
21
-4.54093
0
LINE
8
BLACK
6
CONTINUOUS
10
5.70071
20
-4.54093
11
5.70078
21
-4.54082
0
LINE
8
BLACK
6
CONTINUOUS
10
5.70078
20
-4.54082
11
5.70091
21
-4.54079
0
LINE
8
BLACK
6
CONTINUOUS
10
5.70091
20
-4.54079
11
5.70092
21
-4.54079
0
LINE
8
BLACK
6
CONTINUOUS
10
5.70092
20
-4.54079
11
5.701
21
-4.54069
0
LINE
8
BLACK
6
CONTINUOUS
10
5.701
20
-4.54069
11
5.70108
21
-4.54067
0
LINE
8
BLACK
6
CONTINUOUS
10
5.70108
20
-4.54067
11
5.70123
21
-4.54057
0
LINE
8
BLACK
6
CONTINUOUS
10
5.70123
20
-4.54057
11
5.70199
21
-4.5405
0
LINE
8
BLACK
6
CONTINUOUS
10
5.70199
20
-4.5405
11
5.70274
21
-4.5403
0
LINE
8
BLACK
6
CONTINUOUS
10
5.70274
20
-4.5403
11
5.70286
21
-4.54036
0
LINE
8
BLACK
6
CONTINUOUS
10
5.45286
20
-4.54036
11
5.45299
21
-4.54034
0
LINE
8
BLACK
6
CONTINUOUS
10
5.45299
20
-4.54034
11
5.45311
21
-4.5404
0
LINE
8
BLACK
6
CONTINUOUS
10
5.45311
20
-4.5404
11
5.45324
21
-4.54039
0
LINE
8
BLACK
6
CONTINUOUS
10
5.45324
20
-4.54039
11
5.45387
21
-4.54083
0
LINE
8
BLACK
6
CONTINUOUS
10
5.45387
20
-4.54083
11
5.45457
21
-4.54116
0
LINE
8
BLACK
6
CONTINUOUS
10
5.45457
20
-4.54116
11
5.45644
21
-4.54303
0
LINE
8
BLACK
6
CONTINUOUS
10
5.45644
20
-4.54303
11
5.45666
21
-4.54335
0
LINE
8
BLACK
6
CONTINUOUS
10
5.45666
20
-4.54335
11
5.45677
21
-4.54342
0
LINE
8
BLACK
6
CONTINUOUS
10
5.45677
20
-4.54342
11
5.45681
21
-4.54355
0
LINE
8
BLACK
6
CONTINUOUS
10
5.45681
20
-4.54355
11
5.45703
21
-4.54387
0
LINE
8
BLACK
6
CONTINUOUS
10
5.45703
20
-4.54387
11
5.4571
21
-4.54463
0
LINE
8
BLACK
6
CONTINUOUS
10
5.4571
20
-4.54463
11
5.45729
21
-4.54538
0
LINE
8
BLACK
6
CONTINUOUS
10
5.45729
20
-4.54538
11
5.45718
21
-4.54562
0
LINE
8
BLACK
6
CONTINUOUS
10
5.45718
20
-4.54562
11
5.45721
21
-4.54588
0
LINE
8
BLACK
6
CONTINUOUS
10
5.45721
20
-4.54588
11
5.45677
21
-4.54651
0
LINE
8
BLACK
6
CONTINUOUS
10
5.45677
20
-4.54651
11
5.45644
21
-4.54721
0
LINE
8
BLACK
6
CONTINUOUS
10
5.45644
20
-4.54721
11
5.45457
21
-4.54908
0
LINE
8
BLACK
6
CONTINUOUS
10
5.45457
20
-4.54908
11
5.45425
21
-4.5493
0
LINE
8
BLACK
6
CONTINUOUS
10
5.45425
20
-4.5493
11
5.45417
21
-4.54941
0
LINE
8
BLACK
6
CONTINUOUS
10
5.45417
20
-4.54941
11
5.45405
21
-4.54945
0
LINE
8
BLACK
6
CONTINUOUS
10
5.45405
20
-4.54945
11
5.45404
21
-4.54945
0
LINE
8
BLACK
6
CONTINUOUS
10
5.45404
20
-4.54945
11
5.45395
21
-4.54955
0
LINE
8
BLACK
6
CONTINUOUS
10
5.45395
20
-4.54955
11
5.45388
21
-4.54956
0
LINE
8
BLACK
6
CONTINUOUS
10
5.45388
20
-4.54956
11
5.45373
21
-4.54967
0
LINE
8
BLACK
6
CONTINUOUS
10
5.45373
20
-4.54967
11
5.45296
21
-4.54974
0
LINE
8
BLACK
6
CONTINUOUS
10
5.45296
20
-4.54974
11
5.45222
21
-4.54993
0
LINE
8
BLACK
6
CONTINUOUS
10
5.45222
20
-4.54993
11
5.4521
21
-4.54988
0
LINE
8
BLACK
6
CONTINUOUS
10
5.4521
20
-4.54988
11
5.45197
21
-4.5499
0
LINE
8
BLACK
6
CONTINUOUS
10
5.45197
20
-4.5499
11
5.45185
21
-4.54983
0
LINE
8
BLACK
6
CONTINUOUS
10
5.45185
20
-4.54983
11
5.45171
21
-4.54985
0
LINE
8
BLACK
6
CONTINUOUS
10
5.45171
20
-4.54985
11
5.45109
21
-4.5494
0
LINE
8
BLACK
6
CONTINUOUS
10
5.45109
20
-4.5494
11
5.45039
21
-4.54908
0
LINE
8
BLACK
6
CONTINUOUS
10
5.45039
20
-4.54908
11
5.44852
21
-4.54721
0
LINE
8
BLACK
6
CONTINUOUS
10
5.44852
20
-4.54721
11
5.44829
21
-4.54689
0
LINE
8
BLACK
6
CONTINUOUS
10
5.44829
20
-4.54689
11
5.44818
21
-4.54681
0
LINE
8
BLACK
6
CONTINUOUS
10
5.44818
20
-4.54681
11
5.44815
21
-4.54668
0
LINE
8
BLACK
6
CONTINUOUS
10
5.44815
20
-4.54668
11
5.44793
21
-4.54637
0
LINE
8
BLACK
6
CONTINUOUS
10
5.44793
20
-4.54637
11
5.44786
21
-4.5456
0
LINE
8
BLACK
6
CONTINUOUS
10
5.44786
20
-4.5456
11
5.44766
21
-4.54486
0
LINE
8
BLACK
6
CONTINUOUS
10
5.44766
20
-4.54486
11
5.44777
21
-4.54462
0
LINE
8
BLACK
6
CONTINUOUS
10
5.44777
20
-4.54462
11
5.44775
21
-4.54435
0
LINE
8
BLACK
6
CONTINUOUS
10
5.44775
20
-4.54435
11
5.44819
21
-4.54373
0
LINE
8
BLACK
6
CONTINUOUS
10
5.44819
20
-4.54373
11
5.44852
21
-4.54303
0
LINE
8
BLACK
6
CONTINUOUS
10
5.44852
20
-4.54303
11
5.45039
21
-4.54116
0
LINE
8
BLACK
6
CONTINUOUS
10
5.45039
20
-4.54116
11
5.45071
21
-4.54093
0
LINE
8
BLACK
6
CONTINUOUS
10
5.45071
20
-4.54093
11
5.45078
21
-4.54082
0
LINE
8
BLACK
6
CONTINUOUS
10
5.45078
20
-4.54082
11
5.45091
21
-4.54079
0
LINE
8
BLACK
6
CONTINUOUS
10
5.45091
20
-4.54079
11
5.45092
21
-4.54079
0
LINE
8
BLACK
6
CONTINUOUS
10
5.45092
20
-4.54079
11
5.451
21
-4.54069
0
LINE
8
BLACK
6
CONTINUOUS
10
5.451
20
-4.54069
11
5.45108
21
-4.54067
0
LINE
8
BLACK
6
CONTINUOUS
10
5.45108
20
-4.54067
11
5.45123
21
-4.54057
0
LINE
8
BLACK
6
CONTINUOUS
10
5.45123
20
-4.54057
11
5.45199
21
-4.5405
0
LINE
8
BLACK
6
CONTINUOUS
10
5.45199
20
-4.5405
11
5.45274
21
-4.5403
0
LINE
8
BLACK
6
CONTINUOUS
10
5.45274
20
-4.5403
11
5.45286
21
-4.54036
0
LINE
8
BLACK
6
CONTINUOUS
10
5.08038
20
-3.85711
11
5.08051
21
-3.85709
0
LINE
8
BLACK
6
CONTINUOUS
10
5.08051
20
-3.85709
11
5.08063
21
-3.85716
0
LINE
8
BLACK
6
CONTINUOUS
10
5.08063
20
-3.85716
11
5.08101
21
-3.85723
0
LINE
8
BLACK
6
CONTINUOUS
10
5.08101
20
-3.85723
11
5.0816
21
-3.85772
0
LINE
8
BLACK
6
CONTINUOUS
10
5.0816
20
-3.85772
11
5.08226
21
-3.8581
0
LINE
8
BLACK
6
CONTINUOUS
10
5.08226
20
-3.8581
11
5.08235
21
-3.85835
0
LINE
8
BLACK
6
CONTINUOUS
10
5.08235
20
-3.85835
11
5.08256
21
-3.85852
0
LINE
8
BLACK
6
CONTINUOUS
10
5.08256
20
-3.85852
11
5.08269
21
-3.85928
0
LINE
8
BLACK
6
CONTINUOUS
10
5.08269
20
-3.85928
11
5.08295
21
-3.86
0
LINE
8
BLACK
6
CONTINUOUS
10
5.08295
20
-3.86
11
5.08295
21
-4.06
0
LINE
8
BLACK
6
CONTINUOUS
10
5.08295
20
-4.06
11
5.08289
21
-4.06038
0
LINE
8
BLACK
6
CONTINUOUS
10
5.08289
20
-4.06038
11
5.08291
21
-4.06051
0
LINE
8
BLACK
6
CONTINUOUS
10
5.08291
20
-4.06051
11
5.08284
21
-4.06063
0
LINE
8
BLACK
6
CONTINUOUS
10
5.08284
20
-4.06063
11
5.08277
21
-4.06101
0
LINE
8
BLACK
6
CONTINUOUS
10
5.08277
20
-4.06101
11
5.08228
21
-4.0616
0
LINE
8
BLACK
6
CONTINUOUS
10
5.08228
20
-4.0616
11
5.0819
21
-4.06226
0
LINE
8
BLACK
6
CONTINUOUS
10
5.0819
20
-4.06226
11
5.08165
21
-4.06235
0
LINE
8
BLACK
6
CONTINUOUS
10
5.08165
20
-4.06235
11
5.08148
21
-4.06256
0
LINE
8
BLACK
6
CONTINUOUS
10
5.08148
20
-4.06256
11
5.08072
21
-4.06269
0
LINE
8
BLACK
6
CONTINUOUS
10
5.08072
20
-4.06269
11
5.08
21
-4.06295
0
LINE
8
BLACK
6
CONTINUOUS
10
5.08
20
-4.06295
11
4.78
21
-4.06295
0
LINE
8
BLACK
6
CONTINUOUS
10
4.78
20
-4.06295
11
4.77962
21
-4.06289
0
LINE
8
BLACK
6
CONTINUOUS
10
4.77962
20
-4.06289
11
4.77949
21
-4.06291
0
LINE
8
BLACK
6
CONTINUOUS
10
4.77949
20
-4.06291
11
4.77937
21
-4.06284
0
LINE
8
BLACK
6
CONTINUOUS
10
4.77937
20
-4.06284
11
4.77899
21
-4.06277
0
LINE
8
BLACK
6
CONTINUOUS
10
4.77899
20
-4.06277
11
4.7784
21
-4.06228
0
LINE
8
BLACK
6
CONTINUOUS
10
4.7784
20
-4.06228
11
4.77774
21
-4.0619
0
LINE
8
BLACK
6
CONTINUOUS
10
4.77774
20
-4.0619
11
4.77765
21
-4.06165
0
LINE
8
BLACK
6
CONTINUOUS
10
4.77765
20
-4.06165
11
4.77744
21
-4.06148
0
LINE
8
BLACK
6
CONTINUOUS
10
4.77744
20
-4.06148
11
4.77731
21
-4.06072
0
LINE
8
BLACK
6
CONTINUOUS
10
4.77731
20
-4.06072
11
4.77705
21
-4.06
0
LINE
8
BLACK
6
CONTINUOUS
10
4.77705
20
-4.06
11
4.77705
21
-3.86
0
LINE
8
BLACK
6
CONTINUOUS
10
4.77705
20
-3.86
11
4.77711
21
-3.85962
0
LINE
8
BLACK
6
CONTINUOUS
10
4.77711
20
-3.85962
11
4.77709
21
-3.85949
0
LINE
8
BLACK
6
CONTINUOUS
10
4.77709
20
-3.85949
11
4.77716
21
-3.85937
0
LINE
8
BLACK
6
CONTINUOUS
10
4.77716
20
-3.85937
11
4.77723
21
-3.85899
0
LINE
8
BLACK
6
CONTINUOUS
10
4.77723
20
-3.85899
11
4.77772
21
-3.8584
0
LINE
8
BLACK
6
CONTINUOUS
10
4.77772
20
-3.8584
11
4.7781
21
-3.85774
0
LINE
8
BLACK
6
CONTINUOUS
10
4.7781
20
-3.85774
11
4.77835
21
-3.85765
0
LINE
8
BLACK
6
CONTINUOUS
10
4.77835
20
-3.85765
11
4.77852
21
-3.85744
0
LINE
8
BLACK
6
CONTINUOUS
10
4.77852
20
-3.85744
11
4.77928
21
-3.85731
0
LINE
8
BLACK
6
CONTINUOUS
10
4.77928
20
-3.85731
11
4.78
21
-3.85705
0
LINE
8
BLACK
6
CONTINUOUS
10
4.78
20
-3.85705
11
5.08
21
-3.85705
0
LINE
8
BLACK
6
CONTINUOUS
10
5.08
20
-3.85705
11
5.08038
21
-3.85711
0
LINE
8
BLACK
6
CONTINUOUS
10
4.78295
20
-3.86295
11
4.78295
21
-4.05705
0
LINE
8
BLACK
6
CONTINUOUS
10
4.78295
20
-4.05705
11
5.07705
21
-4.05705
0
LINE
8
BLACK
6
CONTINUOUS
10
5.07705
20
-4.05705
11
5.07705
21
-3.86295
0
LINE
8
BLACK
6
CONTINUOUS
10
5.07705
20
-3.86295
11
4.78295
21
-3.86295
0
LINE
8
BLACK
6
CONTINUOUS
10
5.67792
20
-4.37047
11
5.68197
21
-4.35704
0
LINE
8
BLACK
6
CONTINUOUS
10
5.68197
20
-4.35704
11
5.6875
21
-4.34415
0
LINE
8
BLACK
6
CONTINUOUS
10
5.6875
20
-4.34415
11
5.69442
21
-4.33196
0
LINE
8
BLACK
6
CONTINUOUS
10
5.69442
20
-4.33196
11
5.70267
21
-4.32062
0
LINE
8
BLACK
6
CONTINUOUS
10
5.70267
20
-4.32062
11
5.71212
21
-4.31026
0
LINE
8
BLACK
6
CONTINUOUS
10
5.71212
20
-4.31026
11
5.72267
21
-4.30103
0
LINE
8
BLACK
6
CONTINUOUS
10
5.72267
20
-4.30103
11
5.73419
21
-4.29302
0
LINE
8
BLACK
6
CONTINUOUS
10
5.73419
20
-4.29302
11
5.74652
21
-4.28635
0
LINE
8
BLACK
6
CONTINUOUS
10
5.74652
20
-4.28635
11
5.75952
21
-4.2811
0
LINE
8
BLACK
6
CONTINUOUS
10
5.75952
20
-4.2811
11
5.77303
21
-4.27733
0
LINE
8
BLACK
6
CONTINUOUS
10
5.77303
20
-4.27733
11
5.78687
21
-4.27509
0
LINE
8
BLACK
6
CONTINUOUS
10
5.78687
20
-4.27509
11
5.80088
21
-4.2744
0
LINE
8
BLACK
6
CONTINUOUS
10
5.80088
20
-4.2744
11
5.81487
21
-4.27528
0
LINE
8
BLACK
6
CONTINUOUS
10
5.81487
20
-4.27528
11
5.82868
21
-4.27772
0
LINE
8
BLACK
6
CONTINUOUS
10
5.82868
20
-4.27772
11
5.84213
21
-4.28168
0
LINE
8
BLACK
6
CONTINUOUS
10
5.84213
20
-4.28168
11
5.85506
21
-4.28711
0
LINE
8
BLACK
6
CONTINUOUS
10
5.85506
20
-4.28711
11
5.8673
21
-4.29395
0
LINE
8
BLACK
6
CONTINUOUS
10
5.8673
20
-4.29395
11
5.8787
21
-4.30212
0
LINE
8
BLACK
6
CONTINUOUS
10
5.8787
20
-4.30212
11
5.88912
21
-4.3115
0
LINE
8
BLACK
6
CONTINUOUS
10
5.88912
20
-4.3115
11
5.89843
21
-4.32198
0
LINE
8
BLACK
6
CONTINUOUS
10
5.89843
20
-4.32198
11
5.90651
21
-4.33344
0
LINE
8
BLACK
6
CONTINUOUS
10
5.90651
20
-4.33344
11
5.91327
21
-4.34573
0
LINE
8
BLACK
6
CONTINUOUS
10
5.91327
20
-4.34573
11
5.91861
21
-4.35869
0
LINE
8
BLACK
6
CONTINUOUS
10
5.91861
20
-4.35869
11
5.92248
21
-4.37217
0
LINE
8
BLACK
6
CONTINUOUS
10
5.92248
20
-4.37217
11
5.92482
21
-4.386
0
LINE
8
BLACK
6
CONTINUOUS
10
5.92482
20
-4.386
11
5.9256
21
-4.4
0
LINE
8
BLACK
6
CONTINUOUS
10
5.9256
20
-4.4
11
5.92555
21
-4.40351
0
LINE
8
BLACK
6
CONTINUOUS
10
5.92555
20
-4.40351
11
5.92438
21
-4.41748
0
LINE
8
BLACK
6
CONTINUOUS
10
5.92438
20
-4.41748
11
5.92165
21
-4.43124
0
LINE
8
BLACK
6
CONTINUOUS
10
5.92165
20
-4.43124
11
5.91741
21
-4.4446
0
LINE
8
BLACK
6
CONTINUOUS
10
5.91741
20
-4.4446
11
5.91171
21
-4.45741
0
LINE
8
BLACK
6
CONTINUOUS
10
5.91171
20
-4.45741
11
5.90461
21
-4.46951
0
LINE
8
BLACK
6
CONTINUOUS
10
5.90461
20
-4.46951
11
5.89622
21
-4.48073
0
LINE
8
BLACK
6
CONTINUOUS
10
5.89622
20
-4.48073
11
5.88662
21
-4.49096
0
LINE
8
BLACK
6
CONTINUOUS
10
5.88662
20
-4.49096
11
5.87594
21
-4.50004
0
LINE
8
BLACK
6
CONTINUOUS
10
5.87594
20
-4.50004
11
5.86431
21
-4.50789
0
LINE
8
BLACK
6
CONTINUOUS
10
5.86431
20
-4.50789
11
5.85189
21
-4.51438
0
LINE
8
BLACK
6
CONTINUOUS
10
5.85189
20
-4.51438
11
5.83881
21
-4.51945
0
LINE
8
BLACK
6
CONTINUOUS
10
5.83881
20
-4.51945
11
5.82526
21
-4.52303
0
LINE
8
BLACK
6
CONTINUOUS
10
5.82526
20
-4.52303
11
5.81138
21
-4.52508
0
LINE
8
BLACK
6
CONTINUOUS
10
5.81138
20
-4.52508
11
5.79737
21
-4.52557
0
LINE
8
BLACK
6
CONTINUOUS
10
5.79737
20
-4.52557
11
5.78339
21
-4.5245
0
LINE
8
BLACK
6
CONTINUOUS
10
5.78339
20
-4.5245
11
5.76961
21
-4.52187
0
LINE
8
BLACK
6
CONTINUOUS
10
5.76961
20
-4.52187
11
5.75622
21
-4.51772
0
LINE
8
BLACK
6
CONTINUOUS
10
5.75622
20
-4.51772
11
5.74337
21
-4.51211
0
LINE
8
BLACK
6
CONTINUOUS
10
5.74337
20
-4.51211
11
5.73123
21
-4.5051
0
LINE
8
BLACK
6
CONTINUOUS
10
5.73123
20
-4.5051
11
5.71994
21
-4.49678
0
LINE
8
BLACK
6
CONTINUOUS
10
5.71994
20
-4.49678
11
5.70965
21
-4.48725
0
LINE
8
BLACK
6
CONTINUOUS
10
5.70965
20
-4.48725
11
5.70049
21
-4.47663
0
LINE
8
BLACK
6
CONTINUOUS
10
5.70049
20
-4.47663
11
5.69257
21
-4.46506
0
LINE
8
BLACK
6
CONTINUOUS
10
5.69257
20
-4.46506
11
5.68598
21
-4.45268
0
LINE
8
BLACK
6
CONTINUOUS
10
5.68598
20
-4.45268
11
5.68082
21
-4.43965
0
LINE
8
BLACK
6
CONTINUOUS
10
5.68082
20
-4.43965
11
5.67714
21
-4.42611
0
LINE
8
BLACK
6
CONTINUOUS
10
5.67714
20
-4.42611
11
5.675
21
-4.41226
0
LINE
8
BLACK
6
CONTINUOUS
10
5.675
20
-4.41226
11
5.67441
21
-4.39825
0
LINE
8
BLACK
6
CONTINUOUS
10
5.67441
20
-4.39825
11
5.67453
21
-4.39652
0
LINE
8
BLACK
6
CONTINUOUS
10
5.67453
20
-4.39652
11
5.67539
21
-4.38426
0
LINE
8
BLACK
6
CONTINUOUS
10
5.67539
20
-4.38426
11
5.67792
21
-4.37047
0
LINE
8
BLACK
6
CONTINUOUS
10
5.6914
20
-4.4219
11
5.69463
21
-4.43424
0
LINE
8
BLACK
6
CONTINUOUS
10
5.69463
20
-4.43424
11
5.69927
21
-4.44612
0
LINE
8
BLACK
6
CONTINUOUS
10
5.69927
20
-4.44612
11
5.70524
21
-4.45739
0
LINE
8
BLACK
6
CONTINUOUS
10
5.70524
20
-4.45739
11
5.71246
21
-4.4679
0
LINE
8
BLACK
6
CONTINUOUS
10
5.71246
20
-4.4679
11
5.72085
21
-4.47751
0
LINE
8
BLACK
6
CONTINUOUS
10
5.72085
20
-4.47751
11
5.73028
21
-4.4861
0
LINE
8
BLACK
6
CONTINUOUS
10
5.73028
20
-4.4861
11
5.74064
21
-4.49354
0
LINE
8
BLACK
6
CONTINUOUS
10
5.74064
20
-4.49354
11
5.75178
21
-4.49974
0
LINE
8
BLACK
6
CONTINUOUS
10
5.75178
20
-4.49974
11
5.76357
21
-4.50463
0
LINE
8
BLACK
6
CONTINUOUS
10
5.76357
20
-4.50463
11
5.77583
21
-4.50812
0
LINE
8
BLACK
6
CONTINUOUS
10
5.77583
20
-4.50812
11
5.78842
21
-4.51018
0
LINE
8
BLACK
6
CONTINUOUS
10
5.78842
20
-4.51018
11
5.80116
21
-4.51078
0
LINE
8
BLACK
6
CONTINUOUS
10
5.80116
20
-4.51078
11
5.81389
21
-4.50991
0
LINE
8
BLACK
6
CONTINUOUS
10
5.81389
20
-4.50991
11
5.82643
21
-4.50759
0
LINE
8
BLACK
6
CONTINUOUS
10
5.82643
20
-4.50759
11
5.83862
21
-4.50384
0
LINE
8
BLACK
6
CONTINUOUS
10
5.83862
20
-4.50384
11
5.8503
21
-4.49871
0
LINE
8
BLACK
6
CONTINUOUS
10
5.8503
20
-4.49871
11
5.86131
21
-4.49228
0
LINE
8
BLACK
6
CONTINUOUS
10
5.86131
20
-4.49228
11
5.87151
21
-4.48462
0
LINE
8
BLACK
6
CONTINUOUS
10
5.87151
20
-4.48462
11
5.88076
21
-4.47584
0
LINE
8
BLACK
6
CONTINUOUS
10
5.88076
20
-4.47584
11
5.88894
21
-4.46605
0
LINE
8
BLACK
6
CONTINUOUS
10
5.88894
20
-4.46605
11
5.89594
21
-4.45539
0
LINE
8
BLACK
6
CONTINUOUS
10
5.89594
20
-4.45539
11
5.90168
21
-4.444
0
LINE
8
BLACK
6
CONTINUOUS
10
5.90168
20
-4.444
11
5.90606
21
-4.43202
0
LINE
8
BLACK
6
CONTINUOUS
10
5.90606
20
-4.43202
11
5.90904
21
-4.41962
0
LINE
8
BLACK
6
CONTINUOUS
10
5.90904
20
-4.41962
11
5.91057
21
-4.40696
0
LINE
8
BLACK
6
CONTINUOUS
10
5.91057
20
-4.40696
11
5.91079
21
-4.4
0
LINE
8
BLACK
6
CONTINUOUS
10
5.91079
20
-4.4
11
5.91005
21
-4.38727
0
LINE
8
BLACK
6
CONTINUOUS
10
5.91005
20
-4.38727
11
5.90786
21
-4.3747
0
LINE
8
BLACK
6
CONTINUOUS
10
5.90786
20
-4.3747
11
5.90424
21
-4.36247
0
LINE
8
BLACK
6
CONTINUOUS
10
5.90424
20
-4.36247
11
5.89923
21
-4.35074
0
LINE
8
BLACK
6
CONTINUOUS
10
5.89923
20
-4.35074
11
5.89291
21
-4.33966
0
LINE
8
BLACK
6
CONTINUOUS
10
5.89291
20
-4.33966
11
5.88536
21
-4.32938
0
LINE
8
BLACK
6
CONTINUOUS
10
5.88536
20
-4.32938
11
5.87668
21
-4.32004
0
LINE
8
BLACK
6
CONTINUOUS
10
5.87668
20
-4.32004
11
5.86698
21
-4.31175
0
LINE
8
BLACK
6
CONTINUOUS
10
5.86698
20
-4.31175
11
5.8564
21
-4.30464
0
LINE
8
BLACK
6
CONTINUOUS
10
5.8564
20
-4.30464
11
5.84506
21
-4.29879
0
LINE
8
BLACK
6
CONTINUOUS
10
5.84506
20
-4.29879
11
5.83313
21
-4.29428
0
LINE
8
BLACK
6
CONTINUOUS
10
5.83313
20
-4.29428
11
5.82076
21
-4.29117
0
LINE
8
BLACK
6
CONTINUOUS
10
5.82076
20
-4.29117
11
5.80811
21
-4.28951
0
LINE
8
BLACK
6
CONTINUOUS
10
5.80811
20
-4.28951
11
5.79536
21
-4.28931
0
LINE
8
BLACK
6
CONTINUOUS
10
5.79536
20
-4.28931
11
5.78267
21
-4.29058
0
LINE
8
BLACK
6
CONTINUOUS
10
5.78267
20
-4.29058
11
5.77021
21
-4.29329
0
LINE
8
BLACK
6
CONTINUOUS
10
5.77021
20
-4.29329
11
5.75814
21
-4.29743
0
LINE
8
BLACK
6
CONTINUOUS
10
5.75814
20
-4.29743
11
5.74663
21
-4.30292
0
LINE
8
BLACK
6
CONTINUOUS
10
5.74663
20
-4.30292
11
5.73582
21
-4.30969
0
LINE
8
BLACK
6
CONTINUOUS
10
5.73582
20
-4.30969
11
5.72587
21
-4.31767
0
LINE
8
BLACK
6
CONTINUOUS
10
5.72587
20
-4.31767
11
5.7169
21
-4.32673
0
LINE
8
BLACK
6
CONTINUOUS
10
5.7169
20
-4.32673
11
5.70903
21
-4.33677
0
LINE
8
BLACK
6
CONTINUOUS
10
5.70903
20
-4.33677
11
5.70236
21
-4.34765
0
LINE
8
BLACK
6
CONTINUOUS
10
5.70236
20
-4.34765
11
5.69699
21
-4.35922
0
LINE
8
BLACK
6
CONTINUOUS
10
5.69699
20
-4.35922
11
5.69299
21
-4.37133
0
LINE
8
BLACK
6
CONTINUOUS
10
5.69299
20
-4.37133
11
5.6904
21
-4.38382
0
LINE
8
BLACK
6
CONTINUOUS
10
5.6904
20
-4.38382
11
5.68927
21
-4.39652
0
LINE
8
BLACK
6
CONTINUOUS
10
5.68927
20
-4.39652
11
5.6896
21
-4.40927
0
LINE
8
BLACK
6
CONTINUOUS
10
5.6896
20
-4.40927
11
5.6914
21
-4.4219
0
LINE
8
BLACK
6
CONTINUOUS
10
4.47792
20
-4.37047
11
4.48197
21
-4.35704
0
LINE
8
BLACK
6
CONTINUOUS
10
4.48197
20
-4.35704
11
4.4875
21
-4.34415
0
LINE
8
BLACK
6
CONTINUOUS
10
4.4875
20
-4.34415
11
4.49442
21
-4.33196
0
LINE
8
BLACK
6
CONTINUOUS
10
4.49442
20
-4.33196
11
4.50267
21
-4.32062
0
LINE
8
BLACK
6
CONTINUOUS
10
4.50267
20
-4.32062
11
4.51212
21
-4.31026
0
LINE
8
BLACK
6
CONTINUOUS
10
4.51212
20
-4.31026
11
4.52267
21
-4.30103
0
LINE
8
BLACK
6
CONTINUOUS
10
4.52267
20
-4.30103
11
4.53419
21
-4.29302
0
LINE
8
BLACK
6
CONTINUOUS
10
4.53419
20
-4.29302
11
4.54652
21
-4.28635
0
LINE
8
BLACK
6
CONTINUOUS
10
4.54652
20
-4.28635
11
4.55952
21
-4.2811
0
LINE
8
BLACK
6
CONTINUOUS
10
4.55952
20
-4.2811
11
4.57303
21
-4.27733
0
LINE
8
BLACK
6
CONTINUOUS
10
4.57303
20
-4.27733
11
4.58687
21
-4.27509
0
LINE
8
BLACK
6
CONTINUOUS
10
4.58687
20
-4.27509
11
4.60088
21
-4.2744
0
LINE
8
BLACK
6
CONTINUOUS
10
4.60088
20
-4.2744
11
4.61487
21
-4.27528
0
LINE
8
BLACK
6
CONTINUOUS
10
4.61487
20
-4.27528
11
4.62868
21
-4.27772
0
LINE
8
BLACK
6
CONTINUOUS
10
4.62868
20
-4.27772
11
4.64213
21
-4.28168
0
LINE
8
BLACK
6
CONTINUOUS
10
4.64213
20
-4.28168
11
4.65506
21
-4.28711
0
LINE
8
BLACK
6
CONTINUOUS
10
4.65506
20
-4.28711
11
4.6673
21
-4.29395
0
LINE
8
BLACK
6
CONTINUOUS
10
4.6673
20
-4.29395
11
4.6787
21
-4.30212
0
LINE
8
BLACK
6
CONTINUOUS
10
4.6787
20
-4.30212
11
4.68912
21
-4.3115
0
LINE
8
BLACK
6
CONTINUOUS
10
4.68912
20
-4.3115
11
4.69843
21
-4.32198
0
LINE
8
BLACK
6
CONTINUOUS
10
4.69843
20
-4.32198
11
4.70651
21
-4.33344
0
LINE
8
BLACK
6
CONTINUOUS
10
4.70651
20
-4.33344
11
4.71327
21
-4.34573
0
LINE
8
BLACK
6
CONTINUOUS
10
4.71327
20
-4.34573
11
4.71861
21
-4.35869
0
LINE
8
BLACK
6
CONTINUOUS
10
4.71861
20
-4.35869
11
4.72248
21
-4.37217
0
LINE
8
BLACK
6
CONTINUOUS
10
4.72248
20
-4.37217
11
4.72482
21
-4.386
0
LINE
8
BLACK
6
CONTINUOUS
10
4.72482
20
-4.386
11
4.7256
21
-4.4
0
LINE
8
BLACK
6
CONTINUOUS
10
4.7256
20
-4.4
11
4.72555
21
-4.40351
0
LINE
8
BLACK
6
CONTINUOUS
10
4.72555
20
-4.40351
11
4.72438
21
-4.41748
0
LINE
8
BLACK
6
CONTINUOUS
10
4.72438
20
-4.41748
11
4.72165
21
-4.43124
0
LINE
8
BLACK
6
CONTINUOUS
10
4.72165
20
-4.43124
11
4.71741
21
-4.4446
0
LINE
8
BLACK
6
CONTINUOUS
10
4.71741
20
-4.4446
11
4.71171
21
-4.45741
0
LINE
8
BLACK
6
CONTINUOUS
10
4.71171
20
-4.45741
11
4.70461
21
-4.46951
0
LINE
8
BLACK
6
CONTINUOUS
10
4.70461
20
-4.46951
11
4.69622
21
-4.48073
0
LINE
8
BLACK
6
CONTINUOUS
10
4.69622
20
-4.48073
11
4.68662
21
-4.49096
0
LINE
8
BLACK
6
CONTINUOUS
10
4.68662
20
-4.49096
11
4.67594
21
-4.50004
0
LINE
8
BLACK
6
CONTINUOUS
10
4.67594
20
-4.50004
11
4.66431
21
-4.50789
0
LINE
8
BLACK
6
CONTINUOUS
10
4.66431
20
-4.50789
11
4.65189
21
-4.51438
0
LINE
8
BLACK
6
CONTINUOUS
10
4.65189
20
-4.51438
11
4.63881
21
-4.51945
0
LINE
8
BLACK
6
CONTINUOUS
10
4.63881
20
-4.51945
11
4.62526
21
-4.52303
0
LINE
8
BLACK
6
CONTINUOUS
10
4.62526
20
-4.52303
11
4.61138
21
-4.52508
0
LINE
8
BLACK
6
CONTINUOUS
10
4.61138
20
-4.52508
11
4.59737
21
-4.52557
0
LINE
8
BLACK
6
CONTINUOUS
10
4.59737
20
-4.52557
11
4.58339
21
-4.5245
0
LINE
8
BLACK
6
CONTINUOUS
10
4.58339
20
-4.5245
11
4.56961
21
-4.52187
0
LINE
8
BLACK
6
CONTINUOUS
10
4.56961
20
-4.52187
11
4.55622
21
-4.51772
0
LINE
8
BLACK
6
CONTINUOUS
10
4.55622
20
-4.51772
11
4.54337
21
-4.51211
0
LINE
8
BLACK
6
CONTINUOUS
10
4.54337
20
-4.51211
11
4.53123
21
-4.5051
0
LINE
8
BLACK
6
CONTINUOUS
10
4.53123
20
-4.5051
11
4.51994
21
-4.49678
0
LINE
8
BLACK
6
CONTINUOUS
10
4.51994
20
-4.49678
11
4.50965
21
-4.48725
0
LINE
8
BLACK
6
CONTINUOUS
10
4.50965
20
-4.48725
11
4.50049
21
-4.47663
0
LINE
8
BLACK
6
CONTINUOUS
10
4.50049
20
-4.47663
11
4.49257
21
-4.46506
0
LINE
8
BLACK
6
CONTINUOUS
10
4.49257
20
-4.46506
11
4.48598
21
-4.45268
0
LINE
8
BLACK
6
CONTINUOUS
10
4.48598
20
-4.45268
11
4.48082
21
-4.43965
0
LINE
8
BLACK
6
CONTINUOUS
10
4.48082
20
-4.43965
11
4.47714
21
-4.42611
0
LINE
8
BLACK
6
CONTINUOUS
10
4.47714
20
-4.42611
11
4.475
21
-4.41226
0
LINE
8
BLACK
6
CONTINUOUS
10
4.475
20
-4.41226
11
4.47441
21
-4.39825
0
LINE
8
BLACK
6
CONTINUOUS
10
4.47441
20
-4.39825
11
4.47453
21
-4.39652
0
LINE
8
BLACK
6
CONTINUOUS
10
4.47453
20
-4.39652
11
4.47539
21
-4.38426
0
LINE
8
BLACK
6
CONTINUOUS
10
4.47539
20
-4.38426
11
4.47792
21
-4.37047
0
LINE
8
BLACK
6
CONTINUOUS
10
4.4914
20
-4.4219
11
4.49463
21
-4.43424
0
LINE
8
BLACK
6
CONTINUOUS
10
4.49463
20
-4.43424
11
4.49927
21
-4.44612
0
LINE
8
BLACK
6
CONTINUOUS
10
4.49927
20
-4.44612
11
4.50524
21
-4.45739
0
LINE
8
BLACK
6
CONTINUOUS
10
4.50524
20
-4.45739
11
4.51246
21
-4.4679
0
LINE
8
BLACK
6
CONTINUOUS
10
4.51246
20
-4.4679
11
4.52085
21
-4.47751
0
LINE
8
BLACK
6
CONTINUOUS
10
4.52085
20
-4.47751
11
4.53028
21
-4.4861
0
LINE
8
BLACK
6
CONTINUOUS
10
4.53028
20
-4.4861
11
4.54064
21
-4.49354
0
LINE
8
BLACK
6
CONTINUOUS
10
4.54064
20
-4.49354
11
4.55178
21
-4.49974
0
LINE
8
BLACK
6
CONTINUOUS
10
4.55178
20
-4.49974
11
4.56357
21
-4.50463
0
LINE
8
BLACK
6
CONTINUOUS
10
4.56357
20
-4.50463
11
4.57583
21
-4.50812
0
LINE
8
BLACK
6
CONTINUOUS
10
4.57583
20
-4.50812
11
4.58842
21
-4.51018
0
LINE
8
BLACK
6
CONTINUOUS
10
4.58842
20
-4.51018
11
4.60116
21
-4.51078
0
LINE
8
BLACK
6
CONTINUOUS
10
4.60116
20
-4.51078
11
4.61389
21
-4.50991
0
LINE
8
BLACK
6
CONTINUOUS
10
4.61389
20
-4.50991
11
4.62643
21
-4.50759
0
LINE
8
BLACK
6
CONTINUOUS
10
4.62643
20
-4.50759
11
4.63862
21
-4.50384
0
LINE
8
BLACK
6
CONTINUOUS
10
4.63862
20
-4.50384
11
4.6503
21
-4.49871
0
LINE
8
BLACK
6
CONTINUOUS
10
4.6503
20
-4.49871
11
4.66131
21
-4.49228
0
LINE
8
BLACK
6
CONTINUOUS
10
4.66131
20
-4.49228
11
4.67151
21
-4.48462
0
LINE
8
BLACK
6
CONTINUOUS
10
4.67151
20
-4.48462
11
4.68076
21
-4.47584
0
LINE
8
BLACK
6
CONTINUOUS
10
4.68076
20
-4.47584
11
4.68894
21
-4.46605
0
LINE
8
BLACK
6
CONTINUOUS
10
4.68894
20
-4.46605
11
4.69594
21
-4.45539
0
LINE
8
BLACK
6
CONTINUOUS
10
4.69594
20
-4.45539
11
4.70168
21
-4.444
0
LINE
8
BLACK
6
CONTINUOUS
10
4.70168
20
-4.444
11
4.70606
21
-4.43202
0
LINE
8
BLACK
6
CONTINUOUS
10
4.70606
20
-4.43202
11
4.70904
21
-4.41962
0
LINE
8
BLACK
6
CONTINUOUS
10
4.70904
20
-4.41962
11
4.71057
21
-4.40696
0
LINE
8
BLACK
6
CONTINUOUS
10
4.71057
20
-4.40696
11
4.71079
21
-4.4
0
LINE
8
BLACK
6
CONTINUOUS
10
4.71079
20
-4.4
11
4.71005
21
-4.38727
0
LINE
8
BLACK
6
CONTINUOUS
10
4.71005
20
-4.38727
11
4.70786
21
-4.3747
0
LINE
8
BLACK
6
CONTINUOUS
10
4.70786
20
-4.3747
11
4.70424
21
-4.36247
0
LINE
8
BLACK
6
CONTINUOUS
10
4.70424
20
-4.36247
11
4.69923
21
-4.35074
0
LINE
8
BLACK
6
CONTINUOUS
10
4.69923
20
-4.35074
11
4.69291
21
-4.33966
0
LINE
8
BLACK
6
CONTINUOUS
10
4.69291
20
-4.33966
11
4.68536
21
-4.32938
0
LINE
8
BLACK
6
CONTINUOUS
10
4.68536
20
-4.32938
11
4.67668
21
-4.32004
0
LINE
8
BLACK
6
CONTINUOUS
10
4.67668
20
-4.32004
11
4.66698
21
-4.31175
0
LINE
8
BLACK
6
CONTINUOUS
10
4.66698
20
-4.31175
11
4.6564
21
-4.30464
0
LINE
8
BLACK
6
CONTINUOUS
10
4.6564
20
-4.30464
11
4.64506
21
-4.29879
0
LINE
8
BLACK
6
CONTINUOUS
10
4.64506
20
-4.29879
11
4.63313
21
-4.29428
0
LINE
8
BLACK
6
CONTINUOUS
10
4.63313
20
-4.29428
11
4.62076
21
-4.29117
0
LINE
8
BLACK
6
CONTINUOUS
10
4.62076
20
-4.29117
11
4.60811
21
-4.28951
0
LINE
8
BLACK
6
CONTINUOUS
10
4.60811
20
-4.28951
11
4.59536
21
-4.28931
0
LINE
8
BLACK
6
CONTINUOUS
10
4.59536
20
-4.28931
11
4.58267
21
-4.29058
0
LINE
8
BLACK
6
CONTINUOUS
10
4.58267
20
-4.29058
11
4.57021
21
-4.29329
0
LINE
8
BLACK
6
CONTINUOUS
10
4.57021
20
-4.29329
11
4.55814
21
-4.29743
0
LINE
8
BLACK
6
CONTINUOUS
10
4.55814
20
-4.29743
11
4.54663
21
-4.30292
0
LINE
8
BLACK
6
CONTINUOUS
10
4.54663
20
-4.30292
11
4.53582
21
-4.30969
0
LINE
8
BLACK
6
CONTINUOUS
10
4.53582
20
-4.30969
11
4.52587
21
-4.31767
0
LINE
8
BLACK
6
CONTINUOUS
10
4.52587
20
-4.31767
11
4.5169
21
-4.32673
0
LINE
8
BLACK
6
CONTINUOUS
10
4.5169
20
-4.32673
11
4.50903
21
-4.33677
0
LINE
8
BLACK
6
CONTINUOUS
10
4.50903
20
-4.33677
11
4.50236
21
-4.34765
0
LINE
8
BLACK
6
CONTINUOUS
10
4.50236
20
-4.34765
11
4.49699
21
-4.35922
0
LINE
8
BLACK
6
CONTINUOUS
10
4.49699
20
-4.35922
11
4.49299
21
-4.37133
0
LINE
8
BLACK
6
CONTINUOUS
10
4.49299
20
-4.37133
11
4.4904
21
-4.38382
0
LINE
8
BLACK
6
CONTINUOUS
10
4.4904
20
-4.38382
11
4.48927
21
-4.39652
0
LINE
8
BLACK
6
CONTINUOUS
10
4.48927
20
-4.39652
11
4.4896
21
-4.40927
0
LINE
8
BLACK
6
CONTINUOUS
10
4.4896
20
-4.40927
11
4.4914
21
-4.4219
0
LINE
8
BLACK
6
CONTINUOUS
10
5.67792
20
-3.97047
11
5.68197
21
-3.95704
0
LINE
8
BLACK
6
CONTINUOUS
10
5.68197
20
-3.95704
11
5.6875
21
-3.94415
0
LINE
8
BLACK
6
CONTINUOUS
10
5.6875
20
-3.94415
11
5.69442
21
-3.93196
0
LINE
8
BLACK
6
CONTINUOUS
10
5.69442
20
-3.93196
11
5.70267
21
-3.92062
0
LINE
8
BLACK
6
CONTINUOUS
10
5.70267
20
-3.92062
11
5.71212
21
-3.91026
0
LINE
8
BLACK
6
CONTINUOUS
10
5.71212
20
-3.91026
11
5.72267
21
-3.90103
0
LINE
8
BLACK
6
CONTINUOUS
10
5.72267
20
-3.90103
11
5.73419
21
-3.89302
0
LINE
8
BLACK
6
CONTINUOUS
10
5.73419
20
-3.89302
11
5.74652
21
-3.88635
0
LINE
8
BLACK
6
CONTINUOUS
10
5.74652
20
-3.88635
11
5.75952
21
-3.8811
0
LINE
8
BLACK
6
CONTINUOUS
10
5.75952
20
-3.8811
11
5.77303
21
-3.87733
0
LINE
8
BLACK
6
CONTINUOUS
10
5.77303
20
-3.87733
11
5.78687
21
-3.87509
0
LINE
8
BLACK
6
CONTINUOUS
10
5.78687
20
-3.87509
11
5.80088
21
-3.8744
0
LINE
8
BLACK
6
CONTINUOUS
10
5.80088
20
-3.8744
11
5.81487
21
-3.87528
0
LINE
8
BLACK
6
CONTINUOUS
10
5.81487
20
-3.87528
11
5.82868
21
-3.87772
0
LINE
8
BLACK
6
CONTINUOUS
10
5.82868
20
-3.87772
11
5.84213
21
-3.88168
0
LINE
8
BLACK
6
CONTINUOUS
10
5.84213
20
-3.88168
11
5.85506
21
-3.88711
0
LINE
8
BLACK
6
CONTINUOUS
10
5.85506
20
-3.88711
11
5.8673
21
-3.89395
0
LINE
8
BLACK
6
CONTINUOUS
10
5.8673
20
-3.89395
11
5.8787
21
-3.90212
0
LINE
8
BLACK
6
CONTINUOUS
10
5.8787
20
-3.90212
11
5.88912
21
-3.9115
0
LINE
8
BLACK
6
CONTINUOUS
10
5.88912
20
-3.9115
11
5.89843
21
-3.92198
0
LINE
8
BLACK
6
CONTINUOUS
10
5.89843
20
-3.92198
11
5.90651
21
-3.93344
0
LINE
8
BLACK
6
CONTINUOUS
10
5.90651
20
-3.93344
11
5.91327
21
-3.94573
0
LINE
8
BLACK
6
CONTINUOUS
10
5.91327
20
-3.94573
11
5.91861
21
-3.95869
0
LINE
8
BLACK
6
CONTINUOUS
10
5.91861
20
-3.95869
11
5.92248
21
-3.97217
0
LINE
8
BLACK
6
CONTINUOUS
10
5.92248
20
-3.97217
11
5.92482
21
-3.986
0
LINE
8
BLACK
6
CONTINUOUS
10
5.92482
20
-3.986
11
5.9256
21
-4
0
LINE
8
BLACK
6
CONTINUOUS
10
5.9256
20
-4
11
5.92555
21
-4.00351
0
LINE
8
BLACK
6
CONTINUOUS
10
5.92555
20
-4.00351
11
5.92438
21
-4.01748
0
LINE
8
BLACK
6
CONTINUOUS
10
5.92438
20
-4.01748
11
5.92165
21
-4.03124
0
LINE
8
BLACK
6
CONTINUOUS
10
5.92165
20
-4.03124
11
5.91741
21
-4.0446
0
LINE
8
BLACK
6
CONTINUOUS
10
5.91741
20
-4.0446
11
5.91171
21
-4.05741
0
LINE
8
BLACK
6
CONTINUOUS
10
5.91171
20
-4.05741
11
5.90461
21
-4.06951
0
LINE
8
BLACK
6
CONTINUOUS
10
5.90461
20
-4.06951
11
5.89622
21
-4.08073
0
LINE
8
BLACK
6
CONTINUOUS
10
5.89622
20
-4.08073
11
5.88662
21
-4.09096
0
LINE
8
BLACK
6
CONTINUOUS
10
5.88662
20
-4.09096
11
5.87594
21
-4.10004
0
LINE
8
BLACK
6
CONTINUOUS
10
5.87594
20
-4.10004
11
5.86431
21
-4.10789
0
LINE
8
BLACK
6
CONTINUOUS
10
5.86431
20
-4.10789
11
5.85189
21
-4.11438
0
LINE
8
BLACK
6
CONTINUOUS
10
5.85189
20
-4.11438
11
5.83881
21
-4.11945
0
LINE
8
BLACK
6
CONTINUOUS
10
5.83881
20
-4.11945
11
5.82526
21
-4.12303
0
LINE
8
BLACK
6
CONTINUOUS
10
5.82526
20
-4.12303
11
5.81138
21
-4.12508
0
LINE
8
BLACK
6
CONTINUOUS
10
5.81138
20
-4.12508
11
5.79737
21
-4.12557
0
LINE
8
BLACK
6
CONTINUOUS
10
5.79737
20
-4.12557
11
5.78339
21
-4.1245
0
LINE
8
BLACK
6
CONTINUOUS
10
5.78339
20
-4.1245
11
5.76961
21
-4.12187
0
LINE
8
BLACK
6
CONTINUOUS
10
5.76961
20
-4.12187
11
5.75622
21
-4.11772
0
LINE
8
BLACK
6
CONTINUOUS
10
5.75622
20
-4.11772
11
5.74337
21
-4.11211
0
LINE
8
BLACK
6
CONTINUOUS
10
5.74337
20
-4.11211
11
5.73123
21
-4.1051
0
LINE
8
BLACK
6
CONTINUOUS
10
5.73123
20
-4.1051
11
5.71994
21
-4.09678
0
LINE
8
BLACK
6
CONTINUOUS
10
5.71994
20
-4.09678
11
5.70965
21
-4.08725
0
LINE
8
BLACK
6
CONTINUOUS
10
5.70965
20
-4.08725
11
5.70049
21
-4.07663
0
LINE
8
BLACK
6
CONTINUOUS
10
5.70049
20
-4.07663
11
5.69257
21
-4.06506
0
LINE
8
BLACK
6
CONTINUOUS
10
5.69257
20
-4.06506
11
5.68598
21
-4.05268
0
LINE
8
BLACK
6
CONTINUOUS
10
5.68598
20
-4.05268
11
5.68082
21
-4.03965
0
LINE
8
BLACK
6
CONTINUOUS
10
5.68082
20
-4.03965
11
5.67714
21
-4.02611
0
LINE
8
BLACK
6
CONTINUOUS
10
5.67714
20
-4.02611
11
5.675
21
-4.01226
0
LINE
8
BLACK
6
CONTINUOUS
10
5.675
20
-4.01226
11
5.67441
21
-3.99825
0
LINE
8
BLACK
6
CONTINUOUS
10
5.67441
20
-3.99825
11
5.67453
21
-3.99652
0
LINE
8
BLACK
6
CONTINUOUS
10
5.67453
20
-3.99652
11
5.67539
21
-3.98426
0
LINE
8
BLACK
6
CONTINUOUS
10
5.67539
20
-3.98426
11
5.67792
21
-3.97047
0
LINE
8
BLACK
6
CONTINUOUS
10
5.6914
20
-4.0219
11
5.69463
21
-4.03424
0
LINE
8
BLACK
6
CONTINUOUS
10
5.69463
20
-4.03424
11
5.69927
21
-4.04612
0
LINE
8
BLACK
6
CONTINUOUS
10
5.69927
20
-4.04612
11
5.70524
21
-4.05739
0
LINE
8
BLACK
6
CONTINUOUS
10
5.70524
20
-4.05739
11
5.71246
21
-4.0679
0
LINE
8
BLACK
6
CONTINUOUS
10
5.71246
20
-4.0679
11
5.72085
21
-4.07751
0
LINE
8
BLACK
6
CONTINUOUS
10
5.72085
20
-4.07751
11
5.73028
21
-4.0861
0
LINE
8
BLACK
6
CONTINUOUS
10
5.73028
20
-4.0861
11
5.74064
21
-4.09354
0
LINE
8
BLACK
6
CONTINUOUS
10
5.74064
20
-4.09354
11
5.75178
21
-4.09974
0
LINE
8
BLACK
6
CONTINUOUS
10
5.75178
20
-4.09974
11
5.76357
21
-4.10463
0
LINE
8
BLACK
6
CONTINUOUS
10
5.76357
20
-4.10463
11
5.77583
21
-4.10812
0
LINE
8
BLACK
6
CONTINUOUS
10
5.77583
20
-4.10812
11
5.78842
21
-4.11018
0
LINE
8
BLACK
6
CONTINUOUS
10
5.78842
20
-4.11018
11
5.80116
21
-4.11078
0
LINE
8
BLACK
6
CONTINUOUS
10
5.80116
20
-4.11078
11
5.81389
21
-4.10991
0
LINE
8
BLACK
6
CONTINUOUS
10
5.81389
20
-4.10991
11
5.82643
21
-4.10759
0
LINE
8
BLACK
6
CONTINUOUS
10
5.82643
20
-4.10759
11
5.83862
21
-4.10384
0
LINE
8
BLACK
6
CONTINUOUS
10
5.83862
20
-4.10384
11
5.8503
21
-4.09871
0
LINE
8
BLACK
6
CONTINUOUS
10
5.8503
20
-4.09871
11
5.86131
21
-4.09228
0
LINE
8
BLACK
6
CONTINUOUS
10
5.86131
20
-4.09228
11
5.87151
21
-4.08462
0
LINE
8
BLACK
6
CONTINUOUS
10
5.87151
20
-4.08462
11
5.88076
21
-4.07584
0
LINE
8
BLACK
6
CONTINUOUS
10
5.88076
20
-4.07584
11
5.88894
21
-4.06605
0
LINE
8
BLACK
6
CONTINUOUS
10
5.88894
20
-4.06605
11
5.89594
21
-4.05539
0
LINE
8
BLACK
6
CONTINUOUS
10
5.89594
20
-4.05539
11
5.90168
21
-4.044
0
LINE
8
BLACK
6
CONTINUOUS
10
5.90168
20
-4.044
11
5.90606
21
-4.03202
0
LINE
8
BLACK
6
CONTINUOUS
10
5.90606
20
-4.03202
11
5.90904
21
-4.01962
0
LINE
8
BLACK
6
CONTINUOUS
10
5.90904
20
-4.01962
11
5.91057
21
-4.00696
0
LINE
8
BLACK
6
CONTINUOUS
10
5.91057
20
-4.00696
11
5.91079
21
-4
0
LINE
8
BLACK
6
CONTINUOUS
10
5.91079
20
-4
11
5.91005
21
-3.98727
0
LINE
8
BLACK
6
CONTINUOUS
10
5.91005
20
-3.98727
11
5.90786
21
-3.9747
0
LINE
8
BLACK
6
CONTINUOUS
10
5.90786
20
-3.9747
11
5.90424
21
-3.96247
0
LINE
8
BLACK
6
CONTINUOUS
10
5.90424
20
-3.96247
11
5.89923
21
-3.95074
0
LINE
8
BLACK
6
CONTINUOUS
10
5.89923
20
-3.95074
11
5.89291
21
-3.93966
0
LINE
8
BLACK
6
CONTINUOUS
10
5.89291
20
-3.93966
11
5.88536
21
-3.92938
0
LINE
8
BLACK
6
CONTINUOUS
10
5.88536
20
-3.92938
11
5.87668
21
-3.92004
0
LINE
8
BLACK
6
CONTINUOUS
10
5.87668
20
-3.92004
11
5.86698
21
-3.91175
0
LINE
8
BLACK
6
CONTINUOUS
10
5.86698
20
-3.91175
11
5.8564
21
-3.90464
0
LINE
8
BLACK
6
CONTINUOUS
10
5.8564
20
-3.90464
11
5.84506
21
-3.89879
0
LINE
8
BLACK
6
CONTINUOUS
10
5.84506
20
-3.89879
11
5.83313
21
-3.89428
0
LINE
8
BLACK
6
CONTINUOUS
10
5.83313
20
-3.89428
11
5.82076
21
-3.89117
0
LINE
8
BLACK
6
CONTINUOUS
10
5.82076
20
-3.89117
11
5.80811
21
-3.88951
0
LINE
8
BLACK
6
CONTINUOUS
10
5.80811
20
-3.88951
11
5.79536
21
-3.88931
0
LINE
8
BLACK
6
CONTINUOUS
10
5.79536
20
-3.88931
11
5.78267
21
-3.89058
0
LINE
8
BLACK
6
CONTINUOUS
10
5.78267
20
-3.89058
11
5.77021
21
-3.89329
0
LINE
8
BLACK
6
CONTINUOUS
10
5.77021
20
-3.89329
11
5.75814
21
-3.89743
0
LINE
8
BLACK
6
CONTINUOUS
10
5.75814
20
-3.89743
11
5.74663
21
-3.90292
0
LINE
8
BLACK
6
CONTINUOUS
10
5.74663
20
-3.90292
11
5.73582
21
-3.90969
0
LINE
8
BLACK
6
CONTINUOUS
10
5.73582
20
-3.90969
11
5.72587
21
-3.91767
0
LINE
8
BLACK
6
CONTINUOUS
10
5.72587
20
-3.91767
11
5.7169
21
-3.92673
0
LINE
8
BLACK
6
CONTINUOUS
10
5.7169
20
-3.92673
11
5.70903
21
-3.93677
0
LINE
8
BLACK
6
CONTINUOUS
10
5.70903
20
-3.93677
11
5.70236
21
-3.94765
0
LINE
8
BLACK
6
CONTINUOUS
10
5.70236
20
-3.94765
11
5.69699
21
-3.95922
0
LINE
8
BLACK
6
CONTINUOUS
10
5.69699
20
-3.95922
11
5.69299
21
-3.97133
0
LINE
8
BLACK
6
CONTINUOUS
10
5.69299
20
-3.97133
11
5.6904
21
-3.98382
0
LINE
8
BLACK
6
CONTINUOUS
10
5.6904
20
-3.98382
11
5.68927
21
-3.99652
0
LINE
8
BLACK
6
CONTINUOUS
10
5.68927
20
-3.99652
11
5.6896
21
-4.00927
0
LINE
8
BLACK
6
CONTINUOUS
10
5.6896
20
-4.00927
11
5.6914
21
-4.0219
0
LINE
8
BLACK
6
CONTINUOUS
10
4.47792
20
-3.97047
11
4.48197
21
-3.95704
0
LINE
8
BLACK
6
CONTINUOUS
10
4.48197
20
-3.95704
11
4.4875
21
-3.94415
0
LINE
8
BLACK
6
CONTINUOUS
10
4.4875
20
-3.94415
11
4.49442
21
-3.93196
0
LINE
8
BLACK
6
CONTINUOUS
10
4.49442
20
-3.93196
11
4.50267
21
-3.92062
0
LINE
8
BLACK
6
CONTINUOUS
10
4.50267
20
-3.92062
11
4.51212
21
-3.91026
0
LINE
8
BLACK
6
CONTINUOUS
10
4.51212
20
-3.91026
11
4.52267
21
-3.90103
0
LINE
8
BLACK
6
CONTINUOUS
10
4.52267
20
-3.90103
11
4.53419
21
-3.89302
0
LINE
8
BLACK
6
CONTINUOUS
10
4.53419
20
-3.89302
11
4.54652
21
-3.88635
0
LINE
8
BLACK
6
CONTINUOUS
10
4.54652
20
-3.88635
11
4.55952
21
-3.8811
0
LINE
8
BLACK
6
CONTINUOUS
10
4.55952
20
-3.8811
11
4.57303
21
-3.87733
0
LINE
8
BLACK
6
CONTINUOUS
10
4.57303
20
-3.87733
11
4.58687
21
-3.87509
0
LINE
8
BLACK
6
CONTINUOUS
10
4.58687
20
-3.87509
11
4.60088
21
-3.8744
0
LINE
8
BLACK
6
CONTINUOUS
10
4.60088
20
-3.8744
11
4.61487
21
-3.87528
0
LINE
8
BLACK
6
CONTINUOUS
10
4.61487
20
-3.87528
11
4.62868
21
-3.87772
0
LINE
8
BLACK
6
CONTINUOUS
10
4.62868
20
-3.87772
11
4.64213
21
-3.88168
0
LINE
8
BLACK
6
CONTINUOUS
10
4.64213
20
-3.88168
11
4.65506
21
-3.88711
0
LINE
8
BLACK
6
CONTINUOUS
10
4.65506
20
-3.88711
11
4.6673
21
-3.89395
0
LINE
8
BLACK
6
CONTINUOUS
10
4.6673
20
-3.89395
11
4.6787
21
-3.90212
0
LINE
8
BLACK
6
CONTINUOUS
10
4.6787
20
-3.90212
11
4.68912
21
-3.9115
0
LINE
8
BLACK
6
CONTINUOUS
10
4.68912
20
-3.9115
11
4.69843
21
-3.92198
0
LINE
8
BLACK
6
CONTINUOUS
10
4.69843
20
-3.92198
11
4.70651
21
-3.93344
0
LINE
8
BLACK
6
CONTINUOUS
10
4.70651
20
-3.93344
11
4.71327
21
-3.94573
0
LINE
8
BLACK
6
CONTINUOUS
10
4.71327
20
-3.94573
11
4.71861
21
-3.95869
0
LINE
8
BLACK
6
CONTINUOUS
10
4.71861
20
-3.95869
11
4.72248
21
-3.97217
0
LINE
8
BLACK
6
CONTINUOUS
10
4.72248
20
-3.97217
11
4.72482
21
-3.986
0
LINE
8
BLACK
6
CONTINUOUS
10
4.72482
20
-3.986
11
4.7256
21
-4
0
LINE
8
BLACK
6
CONTINUOUS
10
4.7256
20
-4
11
4.72555
21
-4.00351
0
LINE
8
BLACK
6
CONTINUOUS
10
4.72555
20
-4.00351
11
4.72438
21
-4.01748
0
LINE
8
BLACK
6
CONTINUOUS
10
4.72438
20
-4.01748
11
4.72165
21
-4.03124
0
LINE
8
BLACK
6
CONTINUOUS
10
4.72165
20
-4.03124
11
4.71741
21
-4.0446
0
LINE
8
BLACK
6
CONTINUOUS
10
4.71741
20
-4.0446
11
4.71171
21
-4.05741
0
LINE
8
BLACK
6
CONTINUOUS
10
4.71171
20
-4.05741
11
4.70461
21
-4.06951
0
LINE
8
BLACK
6
CONTINUOUS
10
4.70461
20
-4.06951
11
4.69622
21
-4.08073
0
LINE
8
BLACK
6
CONTINUOUS
10
4.69622
20
-4.08073
11
4.68662
21
-4.09096
0
LINE
8
BLACK
6
CONTINUOUS
10
4.68662
20
-4.09096
11
4.67594
21
-4.10004
0
LINE
8
BLACK
6
CONTINUOUS
10
4.67594
20
-4.10004
11
4.66431
21
-4.10789
0
LINE
8
BLACK
6
CONTINUOUS
10
4.66431
20
-4.10789
11
4.65189
21
-4.11438
0
LINE
8
BLACK
6
CONTINUOUS
10
4.65189
20
-4.11438
11
4.63881
21
-4.11945
0
LINE
8
BLACK
6
CONTINUOUS
10
4.63881
20
-4.11945
11
4.62526
21
-4.12303
0
LINE
8
BLACK
6
CONTINUOUS
10
4.62526
20
-4.12303
11
4.61138
21
-4.12508
0
LINE
8
BLACK
6
CONTINUOUS
10
4.61138
20
-4.12508
11
4.59737
21
-4.12557
0
LINE
8
BLACK
6
CONTINUOUS
10
4.59737
20
-4.12557
11
4.58339
21
-4.1245
0
LINE
8
BLACK
6
CONTINUOUS
10
4.58339
20
-4.1245
11
4.56961
21
-4.12187
0
LINE
8
BLACK
6
CONTINUOUS
10
4.56961
20
-4.12187
11
4.55622
21
-4.11772
0
LINE
8
BLACK
6
CONTINUOUS
10
4.55622
20
-4.11772
11
4.54337
21
-4.11211
0
LINE
8
BLACK
6
CONTINUOUS
10
4.54337
20
-4.11211
11
4.53123
21
-4.1051
0
LINE
8
BLACK
6
CONTINUOUS
10
4.53123
20
-4.1051
11
4.51994
21
-4.09678
0
LINE
8
BLACK
6
CONTINUOUS
10
4.51994
20
-4.09678
11
4.50965
21
-4.08725
0
LINE
8
BLACK
6
CONTINUOUS
10
4.50965
20
-4.08725
11
4.50049
21
-4.07663
0
LINE
8
BLACK
6
CONTINUOUS
10
4.50049
20
-4.07663
11
4.49257
21
-4.06506
0
LINE
8
BLACK
6
CONTINUOUS
10
4.49257
20
-4.06506
11
4.48598
21
-4.05268
0
LINE
8
BLACK
6
CONTINUOUS
10
4.48598
20
-4.05268
11
4.48082
21
-4.03965
0
LINE
8
BLACK
6
CONTINUOUS
10
4.48082
20
-4.03965
11
4.47714
21
-4.02611
0
LINE
8
BLACK
6
CONTINUOUS
10
4.47714
20
-4.02611
11
4.475
21
-4.01226
0
LINE
8
BLACK
6
CONTINUOUS
10
4.475
20
-4.01226
11
4.47441
21
-3.99825
0
LINE
8
BLACK
6
CONTINUOUS
10
4.47441
20
-3.99825
11
4.47453
21
-3.99652
0
LINE
8
BLACK
6
CONTINUOUS
10
4.47453
20
-3.99652
11
4.47539
21
-3.98426
0
LINE
8
BLACK
6
CONTINUOUS
10
4.47539
20
-3.98426
11
4.47792
21
-3.97047
0
LINE
8
BLACK
6
CONTINUOUS
10
4.4914
20
-4.0219
11
4.49463
21
-4.03424
0
LINE
8
BLACK
6
CONTINUOUS
10
4.49463
20
-4.03424
11
4.49927
21
-4.04612
0
LINE
8
BLACK
6
CONTINUOUS
10
4.49927
20
-4.04612
11
4.50524
21
-4.05739
0
LINE
8
BLACK
6
CONTINUOUS
10
4.50524
20
-4.05739
11
4.51246
21
-4.0679
0
LINE
8
BLACK
6
CONTINUOUS
10
4.51246
20
-4.0679
11
4.52085
21
-4.07751
0
LINE
8
BLACK
6
CONTINUOUS
10
4.52085
20
-4.07751
11
4.53028
21
-4.0861
0
LINE
8
BLACK
6
CONTINUOUS
10
4.53028
20
-4.0861
11
4.54064
21
-4.09354
0
LINE
8
BLACK
6
CONTINUOUS
10
4.54064
20
-4.09354
11
4.55178
21
-4.09974
0
LINE
8
BLACK
6
CONTINUOUS
10
4.55178
20
-4.09974
11
4.56357
21
-4.10463
0
LINE
8
BLACK
6
CONTINUOUS
10
4.56357
20
-4.10463
11
4.57583
21
-4.10812
0
LINE
8
BLACK
6
CONTINUOUS
10
4.57583
20
-4.10812
11
4.58842
21
-4.11018
0
LINE
8
BLACK
6
CONTINUOUS
10
4.58842
20
-4.11018
11
4.60116
21
-4.11078
0
LINE
8
BLACK
6
CONTINUOUS
10
4.60116
20
-4.11078
11
4.61389
21
-4.10991
0
LINE
8
BLACK
6
CONTINUOUS
10
4.61389
20
-4.10991
11
4.62643
21
-4.10759
0
LINE
8
BLACK
6
CONTINUOUS
10
4.62643
20
-4.10759
11
4.63862
21
-4.10384
0
LINE
8
BLACK
6
CONTINUOUS
10
4.63862
20
-4.10384
11
4.6503
21
-4.09871
0
LINE
8
BLACK
6
CONTINUOUS
10
4.6503
20
-4.09871
11
4.66131
21
-4.09228
0
LINE
8
BLACK
6
CONTINUOUS
10
4.66131
20
-4.09228
11
4.67151
21
-4.08462
0
LINE
8
BLACK
6
CONTINUOUS
10
4.67151
20
-4.08462
11
4.68076
21
-4.07584
0
LINE
8
BLACK
6
CONTINUOUS
10
4.68076
20
-4.07584
11
4.68894
21
-4.06605
0
LINE
8
BLACK
6
CONTINUOUS
10
4.68894
20
-4.06605
11
4.69594
21
-4.05539
0
LINE
8
BLACK
6
CONTINUOUS
10
4.69594
20
-4.05539
11
4.70168
21
-4.044
0
LINE
8
BLACK
6
CONTINUOUS
10
4.70168
20
-4.044
11
4.70606
21
-4.03202
0
LINE
8
BLACK
6
CONTINUOUS
10
4.70606
20
-4.03202
11
4.70904
21
-4.01962
0
LINE
8
BLACK
6
CONTINUOUS
10
4.70904
20
-4.01962
11
4.71057
21
-4.00696
0
LINE
8
BLACK
6
CONTINUOUS
10
4.71057
20
-4.00696
11
4.71079
21
-4
0
LINE
8
BLACK
6
CONTINUOUS
10
4.71079
20
-4
11
4.71005
21
-3.98727
0
LINE
8
BLACK
6
CONTINUOUS
10
4.71005
20
-3.98727
11
4.70786
21
-3.9747
0
LINE
8
BLACK
6
CONTINUOUS
10
4.70786
20
-3.9747
11
4.70424
21
-3.96247
0
LINE
8
BLACK
6
CONTINUOUS
10
4.70424
20
-3.96247
11
4.69923
21
-3.95074
0
LINE
8
BLACK
6
CONTINUOUS
10
4.69923
20
-3.95074
11
4.69291
21
-3.93966
0
LINE
8
BLACK
6
CONTINUOUS
10
4.69291
20
-3.93966
11
4.68536
21
-3.92938
0
LINE
8
BLACK
6
CONTINUOUS
10
4.68536
20
-3.92938
11
4.67668
21
-3.92004
0
LINE
8
BLACK
6
CONTINUOUS
10
4.67668
20
-3.92004
11
4.66698
21
-3.91175
0
LINE
8
BLACK
6
CONTINUOUS
10
4.66698
20
-3.91175
11
4.6564
21
-3.90464
0
LINE
8
BLACK
6
CONTINUOUS
10
4.6564
20
-3.90464
11
4.64506
21
-3.89879
0
LINE
8
BLACK
6
CONTINUOUS
10
4.64506
20
-3.89879
11
4.63313
21
-3.89428
0
LINE
8
BLACK
6
CONTINUOUS
10
4.63313
20
-3.89428
11
4.62076
21
-3.89117
0
LINE
8
BLACK
6
CONTINUOUS
10
4.62076
20
-3.89117
11
4.60811
21
-3.88951
0
LINE
8
BLACK
6
CONTINUOUS
10
4.60811
20
-3.88951
11
4.59536
21
-3.88931
0
LINE
8
BLACK
6
CONTINUOUS
10
4.59536
20
-3.88931
11
4.58267
21
-3.89058
0
LINE
8
BLACK
6
CONTINUOUS
10
4.58267
20
-3.89058
11
4.57021
21
-3.89329
0
LINE
8
BLACK
6
CONTINUOUS
10
4.57021
20
-3.89329
11
4.55814
21
-3.89743
0
LINE
8
BLACK
6
CONTINUOUS
10
4.55814
20
-3.89743
11
4.54663
21
-3.90292
0
LINE
8
BLACK
6
CONTINUOUS
10
4.54663
20
-3.90292
11
4.53582
21
-3.90969
0
LINE
8
BLACK
6
CONTINUOUS
10
4.53582
20
-3.90969
11
4.52587
21
-3.91767
0
LINE
8
BLACK
6
CONTINUOUS
10
4.52587
20
-3.91767
11
4.5169
21
-3.92673
0
LINE
8
BLACK
6
CONTINUOUS
10
4.5169
20
-3.92673
11
4.50903
21
-3.93677
0
LINE
8
BLACK
6
CONTINUOUS
10
4.50903
20
-3.93677
11
4.50236
21
-3.94765
0
LINE
8
BLACK
6
CONTINUOUS
10
4.50236
20
-3.94765
11
4.49699
21
-3.95922
0
LINE
8
BLACK
6
CONTINUOUS
10
4.49699
20
-3.95922
11
4.49299
21
-3.97133
0
LINE
8
BLACK
6
CONTINUOUS
10
4.49299
20
-3.97133
11
4.4904
21
-3.98382
0
LINE
8
BLACK
6
CONTINUOUS
10
4.4904
20
-3.98382
11
4.48927
21
-3.99652
0
LINE
8
BLACK
6
CONTINUOUS
10
4.48927
20
-3.99652
11
4.4896
21
-4.00927
0
LINE
8
BLACK
6
CONTINUOUS
10
4.4896
20
-4.00927
11
4.4914
21
-4.0219
  0
ENDSEC
  0
EOF
