  0
SECTION
  2
HEADER
  9
$ANGBASE
  50
0.0
  9
$ANGDIR
  70
1
  9
$MEASUREMENT
  70
0
  0
ENDSEC
  0
SECTION
  2
TABLES
  0
TABLE
  2
LTYPE
  70
4
  0
LTYPE
  5
40F
  2
CONTINUOUS
  70
0
  3
Solid line
  72
65
  73
0
  40
0.0
  0
LTYPE
  5
410
  2
DASHDOT
 70
0
  3
Dash Dot ____ _ ____ _
 72
65
 73
4
 40
2.0
 49
1.25
 49
-0.25
 49
0.25
 49
-0.25
  0
LTYPE
  5
411
  2
DASHED
 70
0
  3
Dashed __ __ __ __ __
 72
65
 73
2
 40
0.75
 49
0.5
 49
-0.25
  0
LTYPE
  5
43B
  2
DOTTED
 70
0
  3
Dotted .  .  .  .
 72
65
 73
2
 40
0.2
 49
0.0
 49
-0.2
  0
ENDTAB
  0
TABLE
  2
STYLE
  70
4
  0
STYLE
  2
KICAD
  70
0
  40
0
  41
1
  42
1
  50
0
  71
0
  3
isocp.shx
  0
STYLE
  2
KICADB
  70
0
  40
0
  41
1
  42
1
  50
0
  71
0
  3
isocp.shx
  0
STYLE
  2
KICADI
  70
0
  40
0
  41
1
  42
1
  50
15
  71
0
  3
isocp.shx
  0
STYLE
  2
KICADBI
  70
0
  40
0
  41
1
  42
1
  50
15
  71
0
  3
isocp.shx
  0
ENDTAB
  0
TABLE
  2
LAYER
  70
1
  0
LAYER
  2
BLACK
  70
0
  62
7
  6
CONTINUOUS
  0
ENDTAB
  0
ENDSEC
  0
SECTION
  2
ENTITIES
0
LINE
8
BLACK
6
CONTINUOUS
10
5.30107
20
-4.29453
11
5.30427
21
-4.29666
0
LINE
8
BLACK
6
CONTINUOUS
10
5.30427
20
-4.29666
11
5.3064
21
-4.29986
0
LINE
8
BLACK
6
CONTINUOUS
10
5.3064
20
-4.29986
11
5.30715
21
-4.30362
0
LINE
8
BLACK
6
CONTINUOUS
10
5.30715
20
-4.30362
11
5.30715
21
-4.32331
0
LINE
8
BLACK
6
CONTINUOUS
10
5.30715
20
-4.32331
11
5.3064
21
-4.32707
0
LINE
8
BLACK
6
CONTINUOUS
10
5.3064
20
-4.32707
11
5.30427
21
-4.33027
0
LINE
8
BLACK
6
CONTINUOUS
10
5.30427
20
-4.33027
11
5.30107
21
-4.3324
0
LINE
8
BLACK
6
CONTINUOUS
10
5.30107
20
-4.3324
11
5.29731
21
-4.33315
0
LINE
8
BLACK
6
CONTINUOUS
10
5.29731
20
-4.33315
11
5.25991
21
-4.33315
0
LINE
8
BLACK
6
CONTINUOUS
10
5.25991
20
-4.33315
11
5.25614
21
-4.3324
0
LINE
8
BLACK
6
CONTINUOUS
10
5.25614
20
-4.3324
11
5.25295
21
-4.33027
0
LINE
8
BLACK
6
CONTINUOUS
10
5.25295
20
-4.33027
11
5.25081
21
-4.32707
0
LINE
8
BLACK
6
CONTINUOUS
10
5.25081
20
-4.32707
11
5.25006
21
-4.32331
0
LINE
8
BLACK
6
CONTINUOUS
10
5.25006
20
-4.32331
11
5.25006
21
-4.30362
0
LINE
8
BLACK
6
CONTINUOUS
10
5.25006
20
-4.30362
11
5.25081
21
-4.29986
0
LINE
8
BLACK
6
CONTINUOUS
10
5.25081
20
-4.29986
11
5.25295
21
-4.29666
0
LINE
8
BLACK
6
CONTINUOUS
10
5.25295
20
-4.29666
11
5.25614
21
-4.29453
0
LINE
8
BLACK
6
CONTINUOUS
10
5.25614
20
-4.29453
11
5.25991
21
-4.29378
0
LINE
8
BLACK
6
CONTINUOUS
10
5.25991
20
-4.29378
11
5.29731
21
-4.29378
0
LINE
8
BLACK
6
CONTINUOUS
10
5.29731
20
-4.29378
11
5.30107
21
-4.29453
0
LINE
8
BLACK
6
CONTINUOUS
10
5.40247
20
-4.29453
11
5.40566
21
-4.29666
0
LINE
8
BLACK
6
CONTINUOUS
10
5.40566
20
-4.29666
11
5.40779
21
-4.29986
0
LINE
8
BLACK
6
CONTINUOUS
10
5.40779
20
-4.29986
11
5.40854
21
-4.30362
0
LINE
8
BLACK
6
CONTINUOUS
10
5.40854
20
-4.30362
11
5.40854
21
-4.32331
0
LINE
8
BLACK
6
CONTINUOUS
10
5.40854
20
-4.32331
11
5.40779
21
-4.32707
0
LINE
8
BLACK
6
CONTINUOUS
10
5.40779
20
-4.32707
11
5.40566
21
-4.33027
0
LINE
8
BLACK
6
CONTINUOUS
10
5.40566
20
-4.33027
11
5.40247
21
-4.3324
0
LINE
8
BLACK
6
CONTINUOUS
10
5.40247
20
-4.3324
11
5.3987
21
-4.33315
0
LINE
8
BLACK
6
CONTINUOUS
10
5.3987
20
-4.33315
11
5.3613
21
-4.33315
0
LINE
8
BLACK
6
CONTINUOUS
10
5.3613
20
-4.33315
11
5.35753
21
-4.3324
0
LINE
8
BLACK
6
CONTINUOUS
10
5.35753
20
-4.3324
11
5.35434
21
-4.33027
0
LINE
8
BLACK
6
CONTINUOUS
10
5.35434
20
-4.33027
11
5.35221
21
-4.32707
0
LINE
8
BLACK
6
CONTINUOUS
10
5.35221
20
-4.32707
11
5.35146
21
-4.32331
0
LINE
8
BLACK
6
CONTINUOUS
10
5.35146
20
-4.32331
11
5.35146
21
-4.30362
0
LINE
8
BLACK
6
CONTINUOUS
10
5.35146
20
-4.30362
11
5.35221
21
-4.29986
0
LINE
8
BLACK
6
CONTINUOUS
10
5.35221
20
-4.29986
11
5.35434
21
-4.29666
0
LINE
8
BLACK
6
CONTINUOUS
10
5.35434
20
-4.29666
11
5.35753
21
-4.29453
0
LINE
8
BLACK
6
CONTINUOUS
10
5.35753
20
-4.29453
11
5.3613
21
-4.29378
0
LINE
8
BLACK
6
CONTINUOUS
10
5.3613
20
-4.29378
11
5.3987
21
-4.29378
0
LINE
8
BLACK
6
CONTINUOUS
10
5.3987
20
-4.29378
11
5.40247
21
-4.29453
0
LINE
8
BLACK
6
CONTINUOUS
10
5.05399
20
-4.32175
11
5.03037
21
-4.32175
0
LINE
8
BLACK
6
CONTINUOUS
10
5.03037
20
-4.32175
11
5.03037
21
-4.27844
0
LINE
8
BLACK
6
CONTINUOUS
10
5.03037
20
-4.27844
11
5.05399
21
-4.27844
0
LINE
8
BLACK
6
CONTINUOUS
10
5.05399
20
-4.27844
11
5.05399
21
-4.32175
0
LINE
8
BLACK
6
CONTINUOUS
10
5.1032
20
-4.32175
11
5.07958
21
-4.32175
0
LINE
8
BLACK
6
CONTINUOUS
10
5.07958
20
-4.32175
11
5.07958
21
-4.27844
0
LINE
8
BLACK
6
CONTINUOUS
10
5.07958
20
-4.27844
11
5.1032
21
-4.27844
0
LINE
8
BLACK
6
CONTINUOUS
10
5.1032
20
-4.27844
11
5.1032
21
-4.32175
0
LINE
8
BLACK
6
CONTINUOUS
10
5.15242
20
-4.32175
11
5.1288
21
-4.32175
0
LINE
8
BLACK
6
CONTINUOUS
10
5.1288
20
-4.32175
11
5.1288
21
-4.27844
0
LINE
8
BLACK
6
CONTINUOUS
10
5.1288
20
-4.27844
11
5.15242
21
-4.27844
0
LINE
8
BLACK
6
CONTINUOUS
10
5.15242
20
-4.27844
11
5.15242
21
-4.32175
0
LINE
8
BLACK
6
CONTINUOUS
10
5.20163
20
-4.32175
11
5.17801
21
-4.32175
0
LINE
8
BLACK
6
CONTINUOUS
10
5.17801
20
-4.32175
11
5.17801
21
-4.27844
0
LINE
8
BLACK
6
CONTINUOUS
10
5.17801
20
-4.27844
11
5.20163
21
-4.27844
0
LINE
8
BLACK
6
CONTINUOUS
10
5.20163
20
-4.27844
11
5.20163
21
-4.32175
0
LINE
8
BLACK
6
CONTINUOUS
10
5.48014
20
-4.2491
11
5.48334
21
-4.25123
0
LINE
8
BLACK
6
CONTINUOUS
10
5.48334
20
-4.25123
11
5.48547
21
-4.25442
0
LINE
8
BLACK
6
CONTINUOUS
10
5.48547
20
-4.25442
11
5.48622
21
-4.25819
0
LINE
8
BLACK
6
CONTINUOUS
10
5.48622
20
-4.25819
11
5.48622
21
-4.28181
0
LINE
8
BLACK
6
CONTINUOUS
10
5.48622
20
-4.28181
11
5.48547
21
-4.28558
0
LINE
8
BLACK
6
CONTINUOUS
10
5.48547
20
-4.28558
11
5.48334
21
-4.28877
0
LINE
8
BLACK
6
CONTINUOUS
10
5.48334
20
-4.28877
11
5.48014
21
-4.2909
0
LINE
8
BLACK
6
CONTINUOUS
10
5.48014
20
-4.2909
11
5.47638
21
-4.29165
0
LINE
8
BLACK
6
CONTINUOUS
10
5.47638
20
-4.29165
11
5.45276
21
-4.29165
0
LINE
8
BLACK
6
CONTINUOUS
10
5.45276
20
-4.29165
11
5.44899
21
-4.2909
0
LINE
8
BLACK
6
CONTINUOUS
10
5.44899
20
-4.2909
11
5.4458
21
-4.28877
0
LINE
8
BLACK
6
CONTINUOUS
10
5.4458
20
-4.28877
11
5.44366
21
-4.28558
0
LINE
8
BLACK
6
CONTINUOUS
10
5.44366
20
-4.28558
11
5.44291
21
-4.28181
0
LINE
8
BLACK
6
CONTINUOUS
10
5.44291
20
-4.28181
11
5.44291
21
-4.25819
0
LINE
8
BLACK
6
CONTINUOUS
10
5.44291
20
-4.25819
11
5.44366
21
-4.25442
0
LINE
8
BLACK
6
CONTINUOUS
10
5.44366
20
-4.25442
11
5.4458
21
-4.25123
0
LINE
8
BLACK
6
CONTINUOUS
10
5.4458
20
-4.25123
11
5.44899
21
-4.2491
0
LINE
8
BLACK
6
CONTINUOUS
10
5.44899
20
-4.2491
11
5.45276
21
-4.24835
0
LINE
8
BLACK
6
CONTINUOUS
10
5.45276
20
-4.24835
11
5.47638
21
-4.24835
0
LINE
8
BLACK
6
CONTINUOUS
10
5.47638
20
-4.24835
11
5.48014
21
-4.2491
0
LINE
8
BLACK
6
CONTINUOUS
10
5.59038
20
-4.2491
11
5.59357
21
-4.25123
0
LINE
8
BLACK
6
CONTINUOUS
10
5.59357
20
-4.25123
11
5.59571
21
-4.25442
0
LINE
8
BLACK
6
CONTINUOUS
10
5.59571
20
-4.25442
11
5.59646
21
-4.25819
0
LINE
8
BLACK
6
CONTINUOUS
10
5.59646
20
-4.25819
11
5.59646
21
-4.28181
0
LINE
8
BLACK
6
CONTINUOUS
10
5.59646
20
-4.28181
11
5.59571
21
-4.28558
0
LINE
8
BLACK
6
CONTINUOUS
10
5.59571
20
-4.28558
11
5.59357
21
-4.28877
0
LINE
8
BLACK
6
CONTINUOUS
10
5.59357
20
-4.28877
11
5.59038
21
-4.2909
0
LINE
8
BLACK
6
CONTINUOUS
10
5.59038
20
-4.2909
11
5.58661
21
-4.29165
0
LINE
8
BLACK
6
CONTINUOUS
10
5.58661
20
-4.29165
11
5.56299
21
-4.29165
0
LINE
8
BLACK
6
CONTINUOUS
10
5.56299
20
-4.29165
11
5.55923
21
-4.2909
0
LINE
8
BLACK
6
CONTINUOUS
10
5.55923
20
-4.2909
11
5.55603
21
-4.28877
0
LINE
8
BLACK
6
CONTINUOUS
10
5.55603
20
-4.28877
11
5.5539
21
-4.28558
0
LINE
8
BLACK
6
CONTINUOUS
10
5.5539
20
-4.28558
11
5.55315
21
-4.28181
0
LINE
8
BLACK
6
CONTINUOUS
10
5.55315
20
-4.28181
11
5.55315
21
-4.25819
0
LINE
8
BLACK
6
CONTINUOUS
10
5.55315
20
-4.25819
11
5.5539
21
-4.25442
0
LINE
8
BLACK
6
CONTINUOUS
10
5.5539
20
-4.25442
11
5.55603
21
-4.25123
0
LINE
8
BLACK
6
CONTINUOUS
10
5.55603
20
-4.25123
11
5.55923
21
-4.2491
0
LINE
8
BLACK
6
CONTINUOUS
10
5.55923
20
-4.2491
11
5.56299
21
-4.24835
0
LINE
8
BLACK
6
CONTINUOUS
10
5.56299
20
-4.24835
11
5.58661
21
-4.24835
0
LINE
8
BLACK
6
CONTINUOUS
10
5.58661
20
-4.24835
11
5.59038
21
-4.2491
0
LINE
8
BLACK
6
CONTINUOUS
10
5.30107
20
-4.21973
11
5.30427
21
-4.22186
0
LINE
8
BLACK
6
CONTINUOUS
10
5.30427
20
-4.22186
11
5.3064
21
-4.22505
0
LINE
8
BLACK
6
CONTINUOUS
10
5.3064
20
-4.22505
11
5.30715
21
-4.22882
0
LINE
8
BLACK
6
CONTINUOUS
10
5.30715
20
-4.22882
11
5.30715
21
-4.2485
0
LINE
8
BLACK
6
CONTINUOUS
10
5.30715
20
-4.2485
11
5.3064
21
-4.25227
0
LINE
8
BLACK
6
CONTINUOUS
10
5.3064
20
-4.25227
11
5.30427
21
-4.25546
0
LINE
8
BLACK
6
CONTINUOUS
10
5.30427
20
-4.25546
11
5.30107
21
-4.2576
0
LINE
8
BLACK
6
CONTINUOUS
10
5.30107
20
-4.2576
11
5.29731
21
-4.25835
0
LINE
8
BLACK
6
CONTINUOUS
10
5.29731
20
-4.25835
11
5.25991
21
-4.25835
0
LINE
8
BLACK
6
CONTINUOUS
10
5.25991
20
-4.25835
11
5.25614
21
-4.2576
0
LINE
8
BLACK
6
CONTINUOUS
10
5.25614
20
-4.2576
11
5.25295
21
-4.25546
0
LINE
8
BLACK
6
CONTINUOUS
10
5.25295
20
-4.25546
11
5.25081
21
-4.25227
0
LINE
8
BLACK
6
CONTINUOUS
10
5.25081
20
-4.25227
11
5.25006
21
-4.2485
0
LINE
8
BLACK
6
CONTINUOUS
10
5.25006
20
-4.2485
11
5.25006
21
-4.22882
0
LINE
8
BLACK
6
CONTINUOUS
10
5.25006
20
-4.22882
11
5.25081
21
-4.22505
0
LINE
8
BLACK
6
CONTINUOUS
10
5.25081
20
-4.22505
11
5.25295
21
-4.22186
0
LINE
8
BLACK
6
CONTINUOUS
10
5.25295
20
-4.22186
11
5.25614
21
-4.21973
0
LINE
8
BLACK
6
CONTINUOUS
10
5.25614
20
-4.21973
11
5.25991
21
-4.21898
0
LINE
8
BLACK
6
CONTINUOUS
10
5.25991
20
-4.21898
11
5.29731
21
-4.21898
0
LINE
8
BLACK
6
CONTINUOUS
10
5.29731
20
-4.21898
11
5.30107
21
-4.21973
0
LINE
8
BLACK
6
CONTINUOUS
10
5.40247
20
-4.21973
11
5.40566
21
-4.22186
0
LINE
8
BLACK
6
CONTINUOUS
10
5.40566
20
-4.22186
11
5.40779
21
-4.22505
0
LINE
8
BLACK
6
CONTINUOUS
10
5.40779
20
-4.22505
11
5.40854
21
-4.22882
0
LINE
8
BLACK
6
CONTINUOUS
10
5.40854
20
-4.22882
11
5.40854
21
-4.2485
0
LINE
8
BLACK
6
CONTINUOUS
10
5.40854
20
-4.2485
11
5.40779
21
-4.25227
0
LINE
8
BLACK
6
CONTINUOUS
10
5.40779
20
-4.25227
11
5.40566
21
-4.25546
0
LINE
8
BLACK
6
CONTINUOUS
10
5.40566
20
-4.25546
11
5.40247
21
-4.2576
0
LINE
8
BLACK
6
CONTINUOUS
10
5.40247
20
-4.2576
11
5.3987
21
-4.25835
0
LINE
8
BLACK
6
CONTINUOUS
10
5.3987
20
-4.25835
11
5.3613
21
-4.25835
0
LINE
8
BLACK
6
CONTINUOUS
10
5.3613
20
-4.25835
11
5.35753
21
-4.2576
0
LINE
8
BLACK
6
CONTINUOUS
10
5.35753
20
-4.2576
11
5.35434
21
-4.25546
0
LINE
8
BLACK
6
CONTINUOUS
10
5.35434
20
-4.25546
11
5.35221
21
-4.25227
0
LINE
8
BLACK
6
CONTINUOUS
10
5.35221
20
-4.25227
11
5.35146
21
-4.2485
0
LINE
8
BLACK
6
CONTINUOUS
10
5.35146
20
-4.2485
11
5.35146
21
-4.22882
0
LINE
8
BLACK
6
CONTINUOUS
10
5.35146
20
-4.22882
11
5.35221
21
-4.22505
0
LINE
8
BLACK
6
CONTINUOUS
10
5.35221
20
-4.22505
11
5.35434
21
-4.22186
0
LINE
8
BLACK
6
CONTINUOUS
10
5.35434
20
-4.22186
11
5.35753
21
-4.21973
0
LINE
8
BLACK
6
CONTINUOUS
10
5.35753
20
-4.21973
11
5.3613
21
-4.21898
0
LINE
8
BLACK
6
CONTINUOUS
10
5.3613
20
-4.21898
11
5.3987
21
-4.21898
0
LINE
8
BLACK
6
CONTINUOUS
10
5.3987
20
-4.21898
11
5.40247
21
-4.21973
0
LINE
8
BLACK
6
CONTINUOUS
10
5.05399
20
-4.23513
11
5.03037
21
-4.23513
0
LINE
8
BLACK
6
CONTINUOUS
10
5.03037
20
-4.23513
11
5.03037
21
-4.19183
0
LINE
8
BLACK
6
CONTINUOUS
10
5.03037
20
-4.19183
11
5.05399
21
-4.19183
0
LINE
8
BLACK
6
CONTINUOUS
10
5.05399
20
-4.19183
11
5.05399
21
-4.23513
0
LINE
8
BLACK
6
CONTINUOUS
10
5.1032
20
-4.23513
11
5.07958
21
-4.23513
0
LINE
8
BLACK
6
CONTINUOUS
10
5.07958
20
-4.23513
11
5.07958
21
-4.19183
0
LINE
8
BLACK
6
CONTINUOUS
10
5.07958
20
-4.19183
11
5.1032
21
-4.19183
0
LINE
8
BLACK
6
CONTINUOUS
10
5.1032
20
-4.19183
11
5.1032
21
-4.23513
0
LINE
8
BLACK
6
CONTINUOUS
10
5.15242
20
-4.23513
11
5.1288
21
-4.23513
0
LINE
8
BLACK
6
CONTINUOUS
10
5.1288
20
-4.23513
11
5.1288
21
-4.19183
0
LINE
8
BLACK
6
CONTINUOUS
10
5.1288
20
-4.19183
11
5.15242
21
-4.19183
0
LINE
8
BLACK
6
CONTINUOUS
10
5.15242
20
-4.19183
11
5.15242
21
-4.23513
0
LINE
8
BLACK
6
CONTINUOUS
10
5.20163
20
-4.23513
11
5.17801
21
-4.23513
0
LINE
8
BLACK
6
CONTINUOUS
10
5.17801
20
-4.23513
11
5.17801
21
-4.19183
0
LINE
8
BLACK
6
CONTINUOUS
10
5.17801
20
-4.19183
11
5.20163
21
-4.19183
0
LINE
8
BLACK
6
CONTINUOUS
10
5.20163
20
-4.19183
11
5.20163
21
-4.23513
0
LINE
8
BLACK
6
CONTINUOUS
10
5.26818
20
-4.07949
11
5.27137
21
-4.08162
0
LINE
8
BLACK
6
CONTINUOUS
10
5.27137
20
-4.08162
11
5.2735
21
-4.08482
0
LINE
8
BLACK
6
CONTINUOUS
10
5.2735
20
-4.08482
11
5.27425
21
-4.08858
0
LINE
8
BLACK
6
CONTINUOUS
10
5.27425
20
-4.08858
11
5.27425
21
-4.12402
0
LINE
8
BLACK
6
CONTINUOUS
10
5.27425
20
-4.12402
11
5.2735
21
-4.12778
0
LINE
8
BLACK
6
CONTINUOUS
10
5.2735
20
-4.12778
11
5.27137
21
-4.13098
0
LINE
8
BLACK
6
CONTINUOUS
10
5.27137
20
-4.13098
11
5.26818
21
-4.13311
0
LINE
8
BLACK
6
CONTINUOUS
10
5.26818
20
-4.13311
11
5.26441
21
-4.13386
0
LINE
8
BLACK
6
CONTINUOUS
10
5.26441
20
-4.13386
11
5.24374
21
-4.13386
0
LINE
8
BLACK
6
CONTINUOUS
10
5.24374
20
-4.13386
11
5.23997
21
-4.13311
0
LINE
8
BLACK
6
CONTINUOUS
10
5.23997
20
-4.13311
11
5.23678
21
-4.13098
0
LINE
8
BLACK
6
CONTINUOUS
10
5.23678
20
-4.13098
11
5.23465
21
-4.12778
0
LINE
8
BLACK
6
CONTINUOUS
10
5.23465
20
-4.12778
11
5.2339
21
-4.12402
0
LINE
8
BLACK
6
CONTINUOUS
10
5.2339
20
-4.12402
11
5.2339
21
-4.08858
0
LINE
8
BLACK
6
CONTINUOUS
10
5.2339
20
-4.08858
11
5.23465
21
-4.08482
0
LINE
8
BLACK
6
CONTINUOUS
10
5.23465
20
-4.08482
11
5.23678
21
-4.08162
0
LINE
8
BLACK
6
CONTINUOUS
10
5.23678
20
-4.08162
11
5.23997
21
-4.07949
0
LINE
8
BLACK
6
CONTINUOUS
10
5.23997
20
-4.07949
11
5.24374
21
-4.07874
0
LINE
8
BLACK
6
CONTINUOUS
10
5.24374
20
-4.07874
11
5.26441
21
-4.07874
0
LINE
8
BLACK
6
CONTINUOUS
10
5.26441
20
-4.07874
11
5.26818
21
-4.07949
0
LINE
8
BLACK
6
CONTINUOUS
10
5.34003
20
-4.07949
11
5.34322
21
-4.08162
0
LINE
8
BLACK
6
CONTINUOUS
10
5.34322
20
-4.08162
11
5.34535
21
-4.08482
0
LINE
8
BLACK
6
CONTINUOUS
10
5.34535
20
-4.08482
11
5.3461
21
-4.08858
0
LINE
8
BLACK
6
CONTINUOUS
10
5.3461
20
-4.08858
11
5.3461
21
-4.12402
0
LINE
8
BLACK
6
CONTINUOUS
10
5.3461
20
-4.12402
11
5.34535
21
-4.12778
0
LINE
8
BLACK
6
CONTINUOUS
10
5.34535
20
-4.12778
11
5.34322
21
-4.13098
0
LINE
8
BLACK
6
CONTINUOUS
10
5.34322
20
-4.13098
11
5.34003
21
-4.13311
0
LINE
8
BLACK
6
CONTINUOUS
10
5.34003
20
-4.13311
11
5.33626
21
-4.13386
0
LINE
8
BLACK
6
CONTINUOUS
10
5.33626
20
-4.13386
11
5.31559
21
-4.13386
0
LINE
8
BLACK
6
CONTINUOUS
10
5.31559
20
-4.13386
11
5.31182
21
-4.13311
0
LINE
8
BLACK
6
CONTINUOUS
10
5.31182
20
-4.13311
11
5.30863
21
-4.13098
0
LINE
8
BLACK
6
CONTINUOUS
10
5.30863
20
-4.13098
11
5.3065
21
-4.12778
0
LINE
8
BLACK
6
CONTINUOUS
10
5.3065
20
-4.12778
11
5.30575
21
-4.12402
0
LINE
8
BLACK
6
CONTINUOUS
10
5.30575
20
-4.12402
11
5.30575
21
-4.08858
0
LINE
8
BLACK
6
CONTINUOUS
10
5.30575
20
-4.08858
11
5.3065
21
-4.08482
0
LINE
8
BLACK
6
CONTINUOUS
10
5.3065
20
-4.08482
11
5.30863
21
-4.08162
0
LINE
8
BLACK
6
CONTINUOUS
10
5.30863
20
-4.08162
11
5.31182
21
-4.07949
0
LINE
8
BLACK
6
CONTINUOUS
10
5.31182
20
-4.07949
11
5.31559
21
-4.07874
0
LINE
8
BLACK
6
CONTINUOUS
10
5.31559
20
-4.07874
11
5.33626
21
-4.07874
0
LINE
8
BLACK
6
CONTINUOUS
10
5.33626
20
-4.07874
11
5.34003
21
-4.07949
0
LINE
8
BLACK
6
CONTINUOUS
10
5.41961
20
-4.07949
11
5.42281
21
-4.08162
0
LINE
8
BLACK
6
CONTINUOUS
10
5.42281
20
-4.08162
11
5.42494
21
-4.08482
0
LINE
8
BLACK
6
CONTINUOUS
10
5.42494
20
-4.08482
11
5.42569
21
-4.08858
0
LINE
8
BLACK
6
CONTINUOUS
10
5.42569
20
-4.08858
11
5.42569
21
-4.12402
0
LINE
8
BLACK
6
CONTINUOUS
10
5.42569
20
-4.12402
11
5.42494
21
-4.12778
0
LINE
8
BLACK
6
CONTINUOUS
10
5.42494
20
-4.12778
11
5.42281
21
-4.13098
0
LINE
8
BLACK
6
CONTINUOUS
10
5.42281
20
-4.13098
11
5.41961
21
-4.13311
0
LINE
8
BLACK
6
CONTINUOUS
10
5.41961
20
-4.13311
11
5.41585
21
-4.13386
0
LINE
8
BLACK
6
CONTINUOUS
10
5.41585
20
-4.13386
11
5.39518
21
-4.13386
0
LINE
8
BLACK
6
CONTINUOUS
10
5.39518
20
-4.13386
11
5.39141
21
-4.13311
0
LINE
8
BLACK
6
CONTINUOUS
10
5.39141
20
-4.13311
11
5.38822
21
-4.13098
0
LINE
8
BLACK
6
CONTINUOUS
10
5.38822
20
-4.13098
11
5.38608
21
-4.12778
0
LINE
8
BLACK
6
CONTINUOUS
10
5.38608
20
-4.12778
11
5.38533
21
-4.12402
0
LINE
8
BLACK
6
CONTINUOUS
10
5.38533
20
-4.12402
11
5.38533
21
-4.08858
0
LINE
8
BLACK
6
CONTINUOUS
10
5.38533
20
-4.08858
11
5.38608
21
-4.08482
0
LINE
8
BLACK
6
CONTINUOUS
10
5.38608
20
-4.08482
11
5.38822
21
-4.08162
0
LINE
8
BLACK
6
CONTINUOUS
10
5.38822
20
-4.08162
11
5.39141
21
-4.07949
0
LINE
8
BLACK
6
CONTINUOUS
10
5.39141
20
-4.07949
11
5.39518
21
-4.07874
0
LINE
8
BLACK
6
CONTINUOUS
10
5.39518
20
-4.07874
11
5.41585
21
-4.07874
0
LINE
8
BLACK
6
CONTINUOUS
10
5.41585
20
-4.07874
11
5.41961
21
-4.07949
0
LINE
8
BLACK
6
CONTINUOUS
10
5.49146
20
-4.07949
11
5.49466
21
-4.08162
0
LINE
8
BLACK
6
CONTINUOUS
10
5.49466
20
-4.08162
11
5.49679
21
-4.08482
0
LINE
8
BLACK
6
CONTINUOUS
10
5.49679
20
-4.08482
11
5.49754
21
-4.08858
0
LINE
8
BLACK
6
CONTINUOUS
10
5.49754
20
-4.08858
11
5.49754
21
-4.12402
0
LINE
8
BLACK
6
CONTINUOUS
10
5.49754
20
-4.12402
11
5.49679
21
-4.12778
0
LINE
8
BLACK
6
CONTINUOUS
10
5.49679
20
-4.12778
11
5.49466
21
-4.13098
0
LINE
8
BLACK
6
CONTINUOUS
10
5.49466
20
-4.13098
11
5.49146
21
-4.13311
0
LINE
8
BLACK
6
CONTINUOUS
10
5.49146
20
-4.13311
11
5.4877
21
-4.13386
0
LINE
8
BLACK
6
CONTINUOUS
10
5.4877
20
-4.13386
11
5.46703
21
-4.13386
0
LINE
8
BLACK
6
CONTINUOUS
10
5.46703
20
-4.13386
11
5.46326
21
-4.13311
0
LINE
8
BLACK
6
CONTINUOUS
10
5.46326
20
-4.13311
11
5.46007
21
-4.13098
0
LINE
8
BLACK
6
CONTINUOUS
10
5.46007
20
-4.13098
11
5.45793
21
-4.12778
0
LINE
8
BLACK
6
CONTINUOUS
10
5.45793
20
-4.12778
11
5.45719
21
-4.12402
0
LINE
8
BLACK
6
CONTINUOUS
10
5.45719
20
-4.12402
11
5.45719
21
-4.08858
0
LINE
8
BLACK
6
CONTINUOUS
10
5.45719
20
-4.08858
11
5.45793
21
-4.08482
0
LINE
8
BLACK
6
CONTINUOUS
10
5.45793
20
-4.08482
11
5.46007
21
-4.08162
0
LINE
8
BLACK
6
CONTINUOUS
10
5.46007
20
-4.08162
11
5.46326
21
-4.07949
0
LINE
8
BLACK
6
CONTINUOUS
10
5.46326
20
-4.07949
11
5.46703
21
-4.07874
0
LINE
8
BLACK
6
CONTINUOUS
10
5.46703
20
-4.07874
11
5.4877
21
-4.07874
0
LINE
8
BLACK
6
CONTINUOUS
10
5.4877
20
-4.07874
11
5.49146
21
-4.07949
  0
ENDSEC
  0
EOF
