  0
SECTION
  2
HEADER
  9
$ANGBASE
  50
0.0
  9
$ANGDIR
  70
1
  9
$MEASUREMENT
  70
0
  0
ENDSEC
  0
SECTION
  2
TABLES
  0
TABLE
  2
LTYPE
  70
4
  0
LTYPE
  5
40F
  2
CONTINUOUS
  70
0
  3
Solid line
  72
65
  73
0
  40
0.0
  0
LTYPE
  5
410
  2
DASHDOT
 70
0
  3
Dash Dot ____ _ ____ _
 72
65
 73
4
 40
2.0
 49
1.25
 49
-0.25
 49
0.25
 49
-0.25
  0
LTYPE
  5
411
  2
DASHED
 70
0
  3
Dashed __ __ __ __ __
 72
65
 73
2
 40
0.75
 49
0.5
 49
-0.25
  0
LTYPE
  5
43B
  2
DOTTED
 70
0
  3
Dotted .  .  .  .
 72
65
 73
2
 40
0.2
 49
0.0
 49
-0.2
  0
ENDTAB
  0
TABLE
  2
STYLE
  70
4
  0
STYLE
  2
KICAD
  70
0
  40
0
  41
1
  42
1
  50
0
  71
0
  3
isocp.shx
  0
STYLE
  2
KICADB
  70
0
  40
0
  41
1
  42
1
  50
0
  71
0
  3
isocp.shx
  0
STYLE
  2
KICADI
  70
0
  40
0
  41
1
  42
1
  50
15
  71
0
  3
isocp.shx
  0
STYLE
  2
KICADBI
  70
0
  40
0
  41
1
  42
1
  50
15
  71
0
  3
isocp.shx
  0
ENDTAB
  0
TABLE
  2
LAYER
  70
1
  0
LAYER
  2
BLACK
  70
0
  62
7
  6
CONTINUOUS
  0
ENDTAB
  0
ENDSEC
  0
SECTION
  2
ENTITIES
0
LINE
8
BLACK
6
CONTINUOUS
10
5.44098
20
-4.53359
11
5.44112
21
-4.53371
0
LINE
8
BLACK
6
CONTINUOUS
10
5.44112
20
-4.53371
11
5.44129
21
-4.53373
0
LINE
8
BLACK
6
CONTINUOUS
10
5.44129
20
-4.53373
11
5.44201
21
-4.53409
0
LINE
8
BLACK
6
CONTINUOUS
10
5.44201
20
-4.53409
11
5.44224
21
-4.53381
0
LINE
8
BLACK
6
CONTINUOUS
10
5.44224
20
-4.53381
11
5.44423
21
-4.53346
0
LINE
8
BLACK
6
CONTINUOUS
10
5.44423
20
-4.53346
11
5.44598
21
-4.53447
0
LINE
8
BLACK
6
CONTINUOUS
10
5.44598
20
-4.53447
11
5.44667
21
-4.53637
0
LINE
8
BLACK
6
CONTINUOUS
10
5.44667
20
-4.53637
11
5.44667
21
-4.56824
0
LINE
8
BLACK
6
CONTINUOUS
10
5.44667
20
-4.56824
11
5.44649
21
-4.56925
0
LINE
8
BLACK
6
CONTINUOUS
10
5.44649
20
-4.56925
11
5.44638
21
-4.56938
0
LINE
8
BLACK
6
CONTINUOUS
10
5.44638
20
-4.56938
11
5.44636
21
-4.56956
0
LINE
8
BLACK
6
CONTINUOUS
10
5.44636
20
-4.56956
11
5.44449
21
-4.57331
0
LINE
8
BLACK
6
CONTINUOUS
10
5.44449
20
-4.57331
11
5.44396
21
-4.57402
0
LINE
8
BLACK
6
CONTINUOUS
10
5.44396
20
-4.57402
11
5.44393
21
-4.57408
0
LINE
8
BLACK
6
CONTINUOUS
10
5.44393
20
-4.57408
11
5.44206
21
-4.57595
0
LINE
8
BLACK
6
CONTINUOUS
10
5.44206
20
-4.57595
11
5.44133
21
-4.57646
0
LINE
8
BLACK
6
CONTINUOUS
10
5.44133
20
-4.57646
11
5.44129
21
-4.5765
0
LINE
8
BLACK
6
CONTINUOUS
10
5.44129
20
-4.5765
11
5.43754
21
-4.57838
0
LINE
8
BLACK
6
CONTINUOUS
10
5.43754
20
-4.57838
11
5.43656
21
-4.57867
0
LINE
8
BLACK
6
CONTINUOUS
10
5.43656
20
-4.57867
11
5.43639
21
-4.57863
0
LINE
8
BLACK
6
CONTINUOUS
10
5.43639
20
-4.57863
11
5.43622
21
-4.57869
0
LINE
8
BLACK
6
CONTINUOUS
10
5.43622
20
-4.57869
11
5.4306
21
-4.57869
0
LINE
8
BLACK
6
CONTINUOUS
10
5.4306
20
-4.57869
11
5.42959
21
-4.57851
0
LINE
8
BLACK
6
CONTINUOUS
10
5.42959
20
-4.57851
11
5.42945
21
-4.5784
0
LINE
8
BLACK
6
CONTINUOUS
10
5.42945
20
-4.5784
11
5.42928
21
-4.57838
0
LINE
8
BLACK
6
CONTINUOUS
10
5.42928
20
-4.57838
11
5.42553
21
-4.5765
0
LINE
8
BLACK
6
CONTINUOUS
10
5.42553
20
-4.5765
11
5.4247
21
-4.57589
0
LINE
8
BLACK
6
CONTINUOUS
10
5.4247
20
-4.57589
11
5.4239
21
-4.57404
0
LINE
8
BLACK
6
CONTINUOUS
10
5.4239
20
-4.57404
11
5.42448
21
-4.5721
0
LINE
8
BLACK
6
CONTINUOUS
10
5.42448
20
-4.5721
11
5.42616
21
-4.57099
0
LINE
8
BLACK
6
CONTINUOUS
10
5.42616
20
-4.57099
11
5.42817
21
-4.57122
0
LINE
8
BLACK
6
CONTINUOUS
10
5.42817
20
-4.57122
11
5.43129
21
-4.57278
0
LINE
8
BLACK
6
CONTINUOUS
10
5.43129
20
-4.57278
11
5.43552
21
-4.57278
0
LINE
8
BLACK
6
CONTINUOUS
10
5.43552
20
-4.57278
11
5.43822
21
-4.57144
0
LINE
8
BLACK
6
CONTINUOUS
10
5.43822
20
-4.57144
11
5.43942
21
-4.57024
0
LINE
8
BLACK
6
CONTINUOUS
10
5.43942
20
-4.57024
11
5.44077
21
-4.56754
0
LINE
8
BLACK
6
CONTINUOUS
10
5.44077
20
-4.56754
11
5.44077
21
-4.56541
0
LINE
8
BLACK
6
CONTINUOUS
10
5.44077
20
-4.56541
11
5.44031
21
-4.56555
0
LINE
8
BLACK
6
CONTINUOUS
10
5.44031
20
-4.56555
11
5.44014
21
-4.56551
0
LINE
8
BLACK
6
CONTINUOUS
10
5.44014
20
-4.56551
11
5.43997
21
-4.56557
0
LINE
8
BLACK
6
CONTINUOUS
10
5.43997
20
-4.56557
11
5.43247
21
-4.56557
0
LINE
8
BLACK
6
CONTINUOUS
10
5.43247
20
-4.56557
11
5.43146
21
-4.56539
0
LINE
8
BLACK
6
CONTINUOUS
10
5.43146
20
-4.56539
11
5.43133
21
-4.56527
0
LINE
8
BLACK
6
CONTINUOUS
10
5.43133
20
-4.56527
11
5.43115
21
-4.56525
0
LINE
8
BLACK
6
CONTINUOUS
10
5.43115
20
-4.56525
11
5.4274
21
-4.56338
0
LINE
8
BLACK
6
CONTINUOUS
10
5.4274
20
-4.56338
11
5.42669
21
-4.56285
0
LINE
8
BLACK
6
CONTINUOUS
10
5.42669
20
-4.56285
11
5.42663
21
-4.56283
0
LINE
8
BLACK
6
CONTINUOUS
10
5.42663
20
-4.56283
11
5.42476
21
-4.56095
0
LINE
8
BLACK
6
CONTINUOUS
10
5.42476
20
-4.56095
11
5.42425
21
-4.56023
0
LINE
8
BLACK
6
CONTINUOUS
10
5.42425
20
-4.56023
11
5.42421
21
-4.56018
0
LINE
8
BLACK
6
CONTINUOUS
10
5.42421
20
-4.56018
11
5.42233
21
-4.55643
0
LINE
8
BLACK
6
CONTINUOUS
10
5.42233
20
-4.55643
11
5.42204
21
-4.55545
0
LINE
8
BLACK
6
CONTINUOUS
10
5.42204
20
-4.55545
11
5.42208
21
-4.55528
0
LINE
8
BLACK
6
CONTINUOUS
10
5.42208
20
-4.55528
11
5.42202
21
-4.55511
0
LINE
8
BLACK
6
CONTINUOUS
10
5.42202
20
-4.55511
11
5.42202
21
-4.54387
0
LINE
8
BLACK
6
CONTINUOUS
10
5.42202
20
-4.54387
11
5.4222
21
-4.54286
0
LINE
8
BLACK
6
CONTINUOUS
10
5.4222
20
-4.54286
11
5.42231
21
-4.54272
0
LINE
8
BLACK
6
CONTINUOUS
10
5.42231
20
-4.54272
11
5.42233
21
-4.54255
0
LINE
8
BLACK
6
CONTINUOUS
10
5.42233
20
-4.54255
11
5.42421
21
-4.5388
0
LINE
8
BLACK
6
CONTINUOUS
10
5.42421
20
-4.5388
11
5.42473
21
-4.53809
0
LINE
8
BLACK
6
CONTINUOUS
10
5.42473
20
-4.53809
11
5.42476
21
-4.53803
0
LINE
8
BLACK
6
CONTINUOUS
10
5.42476
20
-4.53803
11
5.42663
21
-4.53615
0
LINE
8
BLACK
6
CONTINUOUS
10
5.42663
20
-4.53615
11
5.42736
21
-4.53565
0
LINE
8
BLACK
6
CONTINUOUS
10
5.42736
20
-4.53565
11
5.4274
21
-4.5356
0
LINE
8
BLACK
6
CONTINUOUS
10
5.4274
20
-4.5356
11
5.43115
21
-4.53373
0
LINE
8
BLACK
6
CONTINUOUS
10
5.43115
20
-4.53373
11
5.43213
21
-4.53343
0
LINE
8
BLACK
6
CONTINUOUS
10
5.43213
20
-4.53343
11
5.4323
21
-4.53347
0
LINE
8
BLACK
6
CONTINUOUS
10
5.4323
20
-4.53347
11
5.43247
21
-4.53341
0
LINE
8
BLACK
6
CONTINUOUS
10
5.43247
20
-4.53341
11
5.43997
21
-4.53341
0
LINE
8
BLACK
6
CONTINUOUS
10
5.43997
20
-4.53341
11
5.44098
21
-4.53359
0
LINE
8
BLACK
6
CONTINUOUS
10
5.43317
20
-4.53932
11
5.43047
21
-4.54067
0
LINE
8
BLACK
6
CONTINUOUS
10
5.43047
20
-4.54067
11
5.42927
21
-4.54187
0
LINE
8
BLACK
6
CONTINUOUS
10
5.42927
20
-4.54187
11
5.42792
21
-4.54456
0
LINE
8
BLACK
6
CONTINUOUS
10
5.42792
20
-4.54456
11
5.42792
21
-4.55442
0
LINE
8
BLACK
6
CONTINUOUS
10
5.42792
20
-4.55442
11
5.42927
21
-4.55711
0
LINE
8
BLACK
6
CONTINUOUS
10
5.42927
20
-4.55711
11
5.43047
21
-4.55831
0
LINE
8
BLACK
6
CONTINUOUS
10
5.43047
20
-4.55831
11
5.43317
21
-4.55966
0
LINE
8
BLACK
6
CONTINUOUS
10
5.43317
20
-4.55966
11
5.43927
21
-4.55966
0
LINE
8
BLACK
6
CONTINUOUS
10
5.43927
20
-4.55966
11
5.44077
21
-4.55891
0
LINE
8
BLACK
6
CONTINUOUS
10
5.44077
20
-4.55891
11
5.44077
21
-4.54007
0
LINE
8
BLACK
6
CONTINUOUS
10
5.44077
20
-4.54007
11
5.43927
21
-4.53932
0
LINE
8
BLACK
6
CONTINUOUS
10
5.43927
20
-4.53932
11
5.43317
21
-4.53932
0
LINE
8
BLACK
6
CONTINUOUS
10
5.12977
20
-4.53359
11
5.1299
21
-4.53371
0
LINE
8
BLACK
6
CONTINUOUS
10
5.1299
20
-4.53371
11
5.13008
21
-4.53373
0
LINE
8
BLACK
6
CONTINUOUS
10
5.13008
20
-4.53373
11
5.13383
21
-4.5356
0
LINE
8
BLACK
6
CONTINUOUS
10
5.13383
20
-4.5356
11
5.13454
21
-4.53613
0
LINE
8
BLACK
6
CONTINUOUS
10
5.13454
20
-4.53613
11
5.1346
21
-4.53615
0
LINE
8
BLACK
6
CONTINUOUS
10
5.1346
20
-4.53615
11
5.13647
21
-4.53803
0
LINE
8
BLACK
6
CONTINUOUS
10
5.13647
20
-4.53803
11
5.13698
21
-4.53875
0
LINE
8
BLACK
6
CONTINUOUS
10
5.13698
20
-4.53875
11
5.13702
21
-4.5388
0
LINE
8
BLACK
6
CONTINUOUS
10
5.13702
20
-4.5388
11
5.1389
21
-4.54255
0
LINE
8
BLACK
6
CONTINUOUS
10
5.1389
20
-4.54255
11
5.13919
21
-4.54353
0
LINE
8
BLACK
6
CONTINUOUS
10
5.13919
20
-4.54353
11
5.13915
21
-4.5437
0
LINE
8
BLACK
6
CONTINUOUS
10
5.13915
20
-4.5437
11
5.13921
21
-4.54387
0
LINE
8
BLACK
6
CONTINUOUS
10
5.13921
20
-4.54387
11
5.13921
21
-4.55511
0
LINE
8
BLACK
6
CONTINUOUS
10
5.13921
20
-4.55511
11
5.13903
21
-4.55612
0
LINE
8
BLACK
6
CONTINUOUS
10
5.13903
20
-4.55612
11
5.13892
21
-4.55626
0
LINE
8
BLACK
6
CONTINUOUS
10
5.13892
20
-4.55626
11
5.1389
21
-4.55643
0
LINE
8
BLACK
6
CONTINUOUS
10
5.1389
20
-4.55643
11
5.13702
21
-4.56018
0
LINE
8
BLACK
6
CONTINUOUS
10
5.13702
20
-4.56018
11
5.1365
21
-4.56089
0
LINE
8
BLACK
6
CONTINUOUS
10
5.1365
20
-4.56089
11
5.13647
21
-4.56095
0
LINE
8
BLACK
6
CONTINUOUS
10
5.13647
20
-4.56095
11
5.1346
21
-4.56283
0
LINE
8
BLACK
6
CONTINUOUS
10
5.1346
20
-4.56283
11
5.13387
21
-4.56333
0
LINE
8
BLACK
6
CONTINUOUS
10
5.13387
20
-4.56333
11
5.13383
21
-4.56338
0
LINE
8
BLACK
6
CONTINUOUS
10
5.13383
20
-4.56338
11
5.13008
21
-4.56525
0
LINE
8
BLACK
6
CONTINUOUS
10
5.13008
20
-4.56525
11
5.1291
21
-4.56555
0
LINE
8
BLACK
6
CONTINUOUS
10
5.1291
20
-4.56555
11
5.12892
21
-4.56551
0
LINE
8
BLACK
6
CONTINUOUS
10
5.12892
20
-4.56551
11
5.12876
21
-4.56557
0
LINE
8
BLACK
6
CONTINUOUS
10
5.12876
20
-4.56557
11
5.12126
21
-4.56557
0
LINE
8
BLACK
6
CONTINUOUS
10
5.12126
20
-4.56557
11
5.12046
21
-4.56543
0
LINE
8
BLACK
6
CONTINUOUS
10
5.12046
20
-4.56543
11
5.12046
21
-4.57574
0
LINE
8
BLACK
6
CONTINUOUS
10
5.12046
20
-4.57574
11
5.12028
21
-4.57675
0
LINE
8
BLACK
6
CONTINUOUS
10
5.12028
20
-4.57675
11
5.11899
21
-4.57829
0
LINE
8
BLACK
6
CONTINUOUS
10
5.11899
20
-4.57829
11
5.117
21
-4.57864
0
LINE
8
BLACK
6
CONTINUOUS
10
5.117
20
-4.57864
11
5.11525
21
-4.57763
0
LINE
8
BLACK
6
CONTINUOUS
10
5.11525
20
-4.57763
11
5.11456
21
-4.57574
0
LINE
8
BLACK
6
CONTINUOUS
10
5.11456
20
-4.57574
11
5.11456
21
-4.53637
0
LINE
8
BLACK
6
CONTINUOUS
10
5.11456
20
-4.53637
11
5.11474
21
-4.53536
0
LINE
8
BLACK
6
CONTINUOUS
10
5.11474
20
-4.53536
11
5.11603
21
-4.53381
0
LINE
8
BLACK
6
CONTINUOUS
10
5.11603
20
-4.53381
11
5.11802
21
-4.53346
0
LINE
8
BLACK
6
CONTINUOUS
10
5.11802
20
-4.53346
11
5.11916
21
-4.53412
0
LINE
8
BLACK
6
CONTINUOUS
10
5.11916
20
-4.53412
11
5.11994
21
-4.53373
0
LINE
8
BLACK
6
CONTINUOUS
10
5.11994
20
-4.53373
11
5.12092
21
-4.53343
0
LINE
8
BLACK
6
CONTINUOUS
10
5.12092
20
-4.53343
11
5.12109
21
-4.53347
0
LINE
8
BLACK
6
CONTINUOUS
10
5.12109
20
-4.53347
11
5.12126
21
-4.53341
0
LINE
8
BLACK
6
CONTINUOUS
10
5.12126
20
-4.53341
11
5.12876
21
-4.53341
0
LINE
8
BLACK
6
CONTINUOUS
10
5.12876
20
-4.53341
11
5.12977
21
-4.53359
0
LINE
8
BLACK
6
CONTINUOUS
10
5.12196
20
-4.53932
11
5.12046
21
-4.54007
0
LINE
8
BLACK
6
CONTINUOUS
10
5.12046
20
-4.54007
11
5.12046
21
-4.55891
0
LINE
8
BLACK
6
CONTINUOUS
10
5.12046
20
-4.55891
11
5.12196
21
-4.55966
0
LINE
8
BLACK
6
CONTINUOUS
10
5.12196
20
-4.55966
11
5.12806
21
-4.55966
0
LINE
8
BLACK
6
CONTINUOUS
10
5.12806
20
-4.55966
11
5.13076
21
-4.55831
0
LINE
8
BLACK
6
CONTINUOUS
10
5.13076
20
-4.55831
11
5.13196
21
-4.55711
0
LINE
8
BLACK
6
CONTINUOUS
10
5.13196
20
-4.55711
11
5.13331
21
-4.55442
0
LINE
8
BLACK
6
CONTINUOUS
10
5.13331
20
-4.55442
11
5.13331
21
-4.54456
0
LINE
8
BLACK
6
CONTINUOUS
10
5.13331
20
-4.54456
11
5.13196
21
-4.54187
0
LINE
8
BLACK
6
CONTINUOUS
10
5.13196
20
-4.54187
11
5.13076
21
-4.54067
0
LINE
8
BLACK
6
CONTINUOUS
10
5.13076
20
-4.54067
11
5.12806
21
-4.53932
0
LINE
8
BLACK
6
CONTINUOUS
10
5.12806
20
-4.53932
11
5.12196
21
-4.53932
0
LINE
8
BLACK
6
CONTINUOUS
10
5.23288
20
-4.56359
11
5.23443
21
-4.56489
0
LINE
8
BLACK
6
CONTINUOUS
10
5.23443
20
-4.56489
11
5.23478
21
-4.56688
0
LINE
8
BLACK
6
CONTINUOUS
10
5.23478
20
-4.56688
11
5.23377
21
-4.56862
0
LINE
8
BLACK
6
CONTINUOUS
10
5.23377
20
-4.56862
11
5.23187
21
-4.56932
0
LINE
8
BLACK
6
CONTINUOUS
10
5.23187
20
-4.56932
11
5.20187
21
-4.56932
0
LINE
8
BLACK
6
CONTINUOUS
10
5.20187
20
-4.56932
11
5.20086
21
-4.56914
0
LINE
8
BLACK
6
CONTINUOUS
10
5.20086
20
-4.56914
11
5.19932
21
-4.56784
0
LINE
8
BLACK
6
CONTINUOUS
10
5.19932
20
-4.56784
11
5.19897
21
-4.56585
0
LINE
8
BLACK
6
CONTINUOUS
10
5.19897
20
-4.56585
11
5.19998
21
-4.5641
0
LINE
8
BLACK
6
CONTINUOUS
10
5.19998
20
-4.5641
11
5.20187
21
-4.56341
0
LINE
8
BLACK
6
CONTINUOUS
10
5.20187
20
-4.56341
11
5.23187
21
-4.56341
0
LINE
8
BLACK
6
CONTINUOUS
10
5.23187
20
-4.56341
11
5.23288
21
-4.56359
0
LINE
8
BLACK
6
CONTINUOUS
10
5.30037
20
-4.56359
11
5.30192
21
-4.56489
0
LINE
8
BLACK
6
CONTINUOUS
10
5.30192
20
-4.56489
11
5.30227
21
-4.56688
0
LINE
8
BLACK
6
CONTINUOUS
10
5.30227
20
-4.56688
11
5.30126
21
-4.56862
0
LINE
8
BLACK
6
CONTINUOUS
10
5.30126
20
-4.56862
11
5.29936
21
-4.56932
0
LINE
8
BLACK
6
CONTINUOUS
10
5.29936
20
-4.56932
11
5.26937
21
-4.56932
0
LINE
8
BLACK
6
CONTINUOUS
10
5.26937
20
-4.56932
11
5.26836
21
-4.56914
0
LINE
8
BLACK
6
CONTINUOUS
10
5.26836
20
-4.56914
11
5.26681
21
-4.56784
0
LINE
8
BLACK
6
CONTINUOUS
10
5.26681
20
-4.56784
11
5.26646
21
-4.56585
0
LINE
8
BLACK
6
CONTINUOUS
10
5.26646
20
-4.56585
11
5.26747
21
-4.5641
0
LINE
8
BLACK
6
CONTINUOUS
10
5.26747
20
-4.5641
11
5.26937
21
-4.56341
0
LINE
8
BLACK
6
CONTINUOUS
10
5.26937
20
-4.56341
11
5.29936
21
-4.56341
0
LINE
8
BLACK
6
CONTINUOUS
10
5.29936
20
-4.56341
11
5.30037
21
-4.56359
0
LINE
8
BLACK
6
CONTINUOUS
10
5.54155
20
-4.52036
11
5.54172
21
-4.52034
0
LINE
8
BLACK
6
CONTINUOUS
10
5.54172
20
-4.52034
11
5.54246
21
-4.52076
0
LINE
8
BLACK
6
CONTINUOUS
10
5.54246
20
-4.52076
11
5.54325
21
-4.52111
0
LINE
8
BLACK
6
CONTINUOUS
10
5.54325
20
-4.52111
11
5.54332
21
-4.52126
0
LINE
8
BLACK
6
CONTINUOUS
10
5.54332
20
-4.52126
11
5.54347
21
-4.52135
0
LINE
8
BLACK
6
CONTINUOUS
10
5.54347
20
-4.52135
11
5.54376
21
-4.52215
0
LINE
8
BLACK
6
CONTINUOUS
10
5.54376
20
-4.52215
11
5.54414
21
-4.52292
0
LINE
8
BLACK
6
CONTINUOUS
10
5.54414
20
-4.52292
11
5.5441
21
-4.52308
0
LINE
8
BLACK
6
CONTINUOUS
10
5.5441
20
-4.52308
11
5.54416
21
-4.52324
0
LINE
8
BLACK
6
CONTINUOUS
10
5.54416
20
-4.52324
11
5.54416
21
-4.55966
0
LINE
8
BLACK
6
CONTINUOUS
10
5.54416
20
-4.55966
11
5.55246
21
-4.55966
0
LINE
8
BLACK
6
CONTINUOUS
10
5.55246
20
-4.55966
11
5.55347
21
-4.55984
0
LINE
8
BLACK
6
CONTINUOUS
10
5.55347
20
-4.55984
11
5.55501
21
-4.56114
0
LINE
8
BLACK
6
CONTINUOUS
10
5.55501
20
-4.56114
11
5.55536
21
-4.56313
0
LINE
8
BLACK
6
CONTINUOUS
10
5.55536
20
-4.56313
11
5.55435
21
-4.56488
0
LINE
8
BLACK
6
CONTINUOUS
10
5.55435
20
-4.56488
11
5.55246
21
-4.56557
0
LINE
8
BLACK
6
CONTINUOUS
10
5.55246
20
-4.56557
11
5.52996
21
-4.56557
0
LINE
8
BLACK
6
CONTINUOUS
10
5.52996
20
-4.56557
11
5.52895
21
-4.56539
0
LINE
8
BLACK
6
CONTINUOUS
10
5.52895
20
-4.56539
11
5.5274
21
-4.56409
0
LINE
8
BLACK
6
CONTINUOUS
10
5.5274
20
-4.56409
11
5.52705
21
-4.5621
0
LINE
8
BLACK
6
CONTINUOUS
10
5.52705
20
-4.5621
11
5.52806
21
-4.56035
0
LINE
8
BLACK
6
CONTINUOUS
10
5.52806
20
-4.56035
11
5.52996
21
-4.55966
0
LINE
8
BLACK
6
CONTINUOUS
10
5.52996
20
-4.55966
11
5.53825
21
-4.55966
0
LINE
8
BLACK
6
CONTINUOUS
10
5.53825
20
-4.55966
11
5.53825
21
-4.53225
0
LINE
8
BLACK
6
CONTINUOUS
10
5.53825
20
-4.53225
11
5.5358
21
-4.53471
0
LINE
8
BLACK
6
CONTINUOUS
10
5.5358
20
-4.53471
11
5.53507
21
-4.53521
0
LINE
8
BLACK
6
CONTINUOUS
10
5.53507
20
-4.53521
11
5.53503
21
-4.53526
0
LINE
8
BLACK
6
CONTINUOUS
10
5.53503
20
-4.53526
11
5.53128
21
-4.53713
0
LINE
8
BLACK
6
CONTINUOUS
10
5.53128
20
-4.53713
11
5.5303
21
-4.53743
0
LINE
8
BLACK
6
CONTINUOUS
10
5.5303
20
-4.53743
11
5.52833
21
-4.53696
0
LINE
8
BLACK
6
CONTINUOUS
10
5.52833
20
-4.53696
11
5.52713
21
-4.53533
0
LINE
8
BLACK
6
CONTINUOUS
10
5.52713
20
-4.53533
11
5.52725
21
-4.53332
0
LINE
8
BLACK
6
CONTINUOUS
10
5.52725
20
-4.53332
11
5.52864
21
-4.53185
0
LINE
8
BLACK
6
CONTINUOUS
10
5.52864
20
-4.53185
11
5.53196
21
-4.53019
0
LINE
8
BLACK
6
CONTINUOUS
10
5.53196
20
-4.53019
11
5.53516
21
-4.52699
0
LINE
8
BLACK
6
CONTINUOUS
10
5.53516
20
-4.52699
11
5.53875
21
-4.52161
0
LINE
8
BLACK
6
CONTINUOUS
10
5.53875
20
-4.52161
11
5.53946
21
-4.52086
0
LINE
8
BLACK
6
CONTINUOUS
10
5.53946
20
-4.52086
11
5.53962
21
-4.52082
0
LINE
8
BLACK
6
CONTINUOUS
10
5.53962
20
-4.52082
11
5.53973
21
-4.52069
0
LINE
8
BLACK
6
CONTINUOUS
10
5.53973
20
-4.52069
11
5.54057
21
-4.52054
0
LINE
8
BLACK
6
CONTINUOUS
10
5.54057
20
-4.52054
11
5.5414
21
-4.5203
0
LINE
8
BLACK
6
CONTINUOUS
10
5.5414
20
-4.5203
11
5.54155
21
-4.52036
0
LINE
8
BLACK
6
CONTINUOUS
10
5.04853
20
-4.53447
11
5.04922
21
-4.53637
0
LINE
8
BLACK
6
CONTINUOUS
10
5.04922
20
-4.53637
11
5.04922
21
-4.56261
0
LINE
8
BLACK
6
CONTINUOUS
10
5.04922
20
-4.56261
11
5.04904
21
-4.56362
0
LINE
8
BLACK
6
CONTINUOUS
10
5.04904
20
-4.56362
11
5.04775
21
-4.56517
0
LINE
8
BLACK
6
CONTINUOUS
10
5.04775
20
-4.56517
11
5.04576
21
-4.56552
0
LINE
8
BLACK
6
CONTINUOUS
10
5.04576
20
-4.56552
11
5.04401
21
-4.56451
0
LINE
8
BLACK
6
CONTINUOUS
10
5.04401
20
-4.56451
11
5.04392
21
-4.56428
0
LINE
8
BLACK
6
CONTINUOUS
10
5.04392
20
-4.56428
11
5.04197
21
-4.56525
0
LINE
8
BLACK
6
CONTINUOUS
10
5.04197
20
-4.56525
11
5.04098
21
-4.56555
0
LINE
8
BLACK
6
CONTINUOUS
10
5.04098
20
-4.56555
11
5.04081
21
-4.56551
0
LINE
8
BLACK
6
CONTINUOUS
10
5.04081
20
-4.56551
11
5.04064
21
-4.56557
0
LINE
8
BLACK
6
CONTINUOUS
10
5.04064
20
-4.56557
11
5.03502
21
-4.56557
0
LINE
8
BLACK
6
CONTINUOUS
10
5.03502
20
-4.56557
11
5.03401
21
-4.56539
0
LINE
8
BLACK
6
CONTINUOUS
10
5.03401
20
-4.56539
11
5.03388
21
-4.56527
0
LINE
8
BLACK
6
CONTINUOUS
10
5.03388
20
-4.56527
11
5.0337
21
-4.56525
0
LINE
8
BLACK
6
CONTINUOUS
10
5.0337
20
-4.56525
11
5.02995
21
-4.56338
0
LINE
8
BLACK
6
CONTINUOUS
10
5.02995
20
-4.56338
11
5.02913
21
-4.56277
0
LINE
8
BLACK
6
CONTINUOUS
10
5.02913
20
-4.56277
11
5.02895
21
-4.56236
0
LINE
8
BLACK
6
CONTINUOUS
10
5.02895
20
-4.56236
11
5.02863
21
-4.56206
0
LINE
8
BLACK
6
CONTINUOUS
10
5.02863
20
-4.56206
11
5.02676
21
-4.55831
0
LINE
8
BLACK
6
CONTINUOUS
10
5.02676
20
-4.55831
11
5.02646
21
-4.55733
0
LINE
8
BLACK
6
CONTINUOUS
10
5.02646
20
-4.55733
11
5.0265
21
-4.55715
0
LINE
8
BLACK
6
CONTINUOUS
10
5.0265
20
-4.55715
11
5.02644
21
-4.55699
0
LINE
8
BLACK
6
CONTINUOUS
10
5.02644
20
-4.55699
11
5.02644
21
-4.53637
0
LINE
8
BLACK
6
CONTINUOUS
10
5.02644
20
-4.53637
11
5.02662
21
-4.53536
0
LINE
8
BLACK
6
CONTINUOUS
10
5.02662
20
-4.53536
11
5.02792
21
-4.53381
0
LINE
8
BLACK
6
CONTINUOUS
10
5.02792
20
-4.53381
11
5.02991
21
-4.53346
0
LINE
8
BLACK
6
CONTINUOUS
10
5.02991
20
-4.53346
11
5.03166
21
-4.53447
0
LINE
8
BLACK
6
CONTINUOUS
10
5.03166
20
-4.53447
11
5.03235
21
-4.53637
0
LINE
8
BLACK
6
CONTINUOUS
10
5.03235
20
-4.53637
11
5.03235
21
-4.55629
0
LINE
8
BLACK
6
CONTINUOUS
10
5.03235
20
-4.55629
11
5.03347
21
-4.55854
0
LINE
8
BLACK
6
CONTINUOUS
10
5.03347
20
-4.55854
11
5.03572
21
-4.55966
0
LINE
8
BLACK
6
CONTINUOUS
10
5.03572
20
-4.55966
11
5.03995
21
-4.55966
0
LINE
8
BLACK
6
CONTINUOUS
10
5.03995
20
-4.55966
11
5.04265
21
-4.55831
0
LINE
8
BLACK
6
CONTINUOUS
10
5.04265
20
-4.55831
11
5.04332
21
-4.55764
0
LINE
8
BLACK
6
CONTINUOUS
10
5.04332
20
-4.55764
11
5.04332
21
-4.53637
0
LINE
8
BLACK
6
CONTINUOUS
10
5.04332
20
-4.53637
11
5.04349
21
-4.53536
0
LINE
8
BLACK
6
CONTINUOUS
10
5.04349
20
-4.53536
11
5.04479
21
-4.53381
0
LINE
8
BLACK
6
CONTINUOUS
10
5.04479
20
-4.53381
11
5.04678
21
-4.53346
0
LINE
8
BLACK
6
CONTINUOUS
10
5.04678
20
-4.53346
11
5.04853
21
-4.53447
0
LINE
8
BLACK
6
CONTINUOUS
10
5.01291
20
-4.52135
11
5.0136
21
-4.52324
0
LINE
8
BLACK
6
CONTINUOUS
10
5.0136
20
-4.52324
11
5.0136
21
-4.55136
0
LINE
8
BLACK
6
CONTINUOUS
10
5.0136
20
-4.55136
11
5.01345
21
-4.55223
0
LINE
8
BLACK
6
CONTINUOUS
10
5.01345
20
-4.55223
11
5.01345
21
-4.5523
0
LINE
8
BLACK
6
CONTINUOUS
10
5.01345
20
-4.5523
11
5.01158
21
-4.55792
0
LINE
8
BLACK
6
CONTINUOUS
10
5.01158
20
-4.55792
11
5.01109
21
-4.55882
0
LINE
8
BLACK
6
CONTINUOUS
10
5.01109
20
-4.55882
11
5.01094
21
-4.55892
0
LINE
8
BLACK
6
CONTINUOUS
10
5.01094
20
-4.55892
11
5.01086
21
-4.55908
0
LINE
8
BLACK
6
CONTINUOUS
10
5.01086
20
-4.55908
11
5.00711
21
-4.56283
0
LINE
8
BLACK
6
CONTINUOUS
10
5.00711
20
-4.56283
11
5.00627
21
-4.56341
0
LINE
8
BLACK
6
CONTINUOUS
10
5.00627
20
-4.56341
11
5.0061
21
-4.56343
0
LINE
8
BLACK
6
CONTINUOUS
10
5.0061
20
-4.56343
11
5.00596
21
-4.56354
0
LINE
8
BLACK
6
CONTINUOUS
10
5.00596
20
-4.56354
11
5.00033
21
-4.56541
0
LINE
8
BLACK
6
CONTINUOUS
10
5.00033
20
-4.56541
11
4.99946
21
-4.56554
0
LINE
8
BLACK
6
CONTINUOUS
10
4.99946
20
-4.56554
11
4.9994
21
-4.56557
0
LINE
8
BLACK
6
CONTINUOUS
10
4.9994
20
-4.56557
11
4.99565
21
-4.56557
0
LINE
8
BLACK
6
CONTINUOUS
10
4.99565
20
-4.56557
11
4.99464
21
-4.56539
0
LINE
8
BLACK
6
CONTINUOUS
10
4.99464
20
-4.56539
11
4.99309
21
-4.56409
0
LINE
8
BLACK
6
CONTINUOUS
10
4.99309
20
-4.56409
11
4.99274
21
-4.5621
0
LINE
8
BLACK
6
CONTINUOUS
10
4.99274
20
-4.5621
11
4.99375
21
-4.56035
0
LINE
8
BLACK
6
CONTINUOUS
10
4.99375
20
-4.56035
11
4.99565
21
-4.55966
0
LINE
8
BLACK
6
CONTINUOUS
10
4.99565
20
-4.55966
11
4.99892
21
-4.55966
0
LINE
8
BLACK
6
CONTINUOUS
10
4.99892
20
-4.55966
11
5.00343
21
-4.55816
0
LINE
8
BLACK
6
CONTINUOUS
10
5.00343
20
-4.55816
11
5.00619
21
-4.55539
0
LINE
8
BLACK
6
CONTINUOUS
10
5.00619
20
-4.55539
11
5.0077
21
-4.55089
0
LINE
8
BLACK
6
CONTINUOUS
10
5.0077
20
-4.55089
11
5.0077
21
-4.52324
0
LINE
8
BLACK
6
CONTINUOUS
10
5.0077
20
-4.52324
11
5.00787
21
-4.52223
0
LINE
8
BLACK
6
CONTINUOUS
10
5.00787
20
-4.52223
11
5.00917
21
-4.52069
0
LINE
8
BLACK
6
CONTINUOUS
10
5.00917
20
-4.52069
11
5.01116
21
-4.52034
0
LINE
8
BLACK
6
CONTINUOUS
10
5.01116
20
-4.52034
11
5.01291
21
-4.52135
0
LINE
8
BLACK
6
CONTINUOUS
10
5.41036
20
-4.52135
11
5.41105
21
-4.52324
0
LINE
8
BLACK
6
CONTINUOUS
10
5.41105
20
-4.52324
11
5.41105
21
-4.56261
0
LINE
8
BLACK
6
CONTINUOUS
10
5.41105
20
-4.56261
11
5.41087
21
-4.56362
0
LINE
8
BLACK
6
CONTINUOUS
10
5.41087
20
-4.56362
11
5.40958
21
-4.56517
0
LINE
8
BLACK
6
CONTINUOUS
10
5.40958
20
-4.56517
11
5.40759
21
-4.56552
0
LINE
8
BLACK
6
CONTINUOUS
10
5.40759
20
-4.56552
11
5.40645
21
-4.56486
0
LINE
8
BLACK
6
CONTINUOUS
10
5.40645
20
-4.56486
11
5.40567
21
-4.56525
0
LINE
8
BLACK
6
CONTINUOUS
10
5.40567
20
-4.56525
11
5.40469
21
-4.56555
0
LINE
8
BLACK
6
CONTINUOUS
10
5.40469
20
-4.56555
11
5.40452
21
-4.56551
0
LINE
8
BLACK
6
CONTINUOUS
10
5.40452
20
-4.56551
11
5.40435
21
-4.56557
0
LINE
8
BLACK
6
CONTINUOUS
10
5.40435
20
-4.56557
11
5.39685
21
-4.56557
0
LINE
8
BLACK
6
CONTINUOUS
10
5.39685
20
-4.56557
11
5.39584
21
-4.56539
0
LINE
8
BLACK
6
CONTINUOUS
10
5.39584
20
-4.56539
11
5.39571
21
-4.56527
0
LINE
8
BLACK
6
CONTINUOUS
10
5.39571
20
-4.56527
11
5.39553
21
-4.56525
0
LINE
8
BLACK
6
CONTINUOUS
10
5.39553
20
-4.56525
11
5.39178
21
-4.56338
0
LINE
8
BLACK
6
CONTINUOUS
10
5.39178
20
-4.56338
11
5.39107
21
-4.56285
0
LINE
8
BLACK
6
CONTINUOUS
10
5.39107
20
-4.56285
11
5.39101
21
-4.56283
0
LINE
8
BLACK
6
CONTINUOUS
10
5.39101
20
-4.56283
11
5.38914
21
-4.56095
0
LINE
8
BLACK
6
CONTINUOUS
10
5.38914
20
-4.56095
11
5.38863
21
-4.56023
0
LINE
8
BLACK
6
CONTINUOUS
10
5.38863
20
-4.56023
11
5.38859
21
-4.56018
0
LINE
8
BLACK
6
CONTINUOUS
10
5.38859
20
-4.56018
11
5.38671
21
-4.55643
0
LINE
8
BLACK
6
CONTINUOUS
10
5.38671
20
-4.55643
11
5.38642
21
-4.55545
0
LINE
8
BLACK
6
CONTINUOUS
10
5.38642
20
-4.55545
11
5.38646
21
-4.55528
0
LINE
8
BLACK
6
CONTINUOUS
10
5.38646
20
-4.55528
11
5.3864
21
-4.55511
0
LINE
8
BLACK
6
CONTINUOUS
10
5.3864
20
-4.55511
11
5.3864
21
-4.54387
0
LINE
8
BLACK
6
CONTINUOUS
10
5.3864
20
-4.54387
11
5.38658
21
-4.54286
0
LINE
8
BLACK
6
CONTINUOUS
10
5.38658
20
-4.54286
11
5.38669
21
-4.54272
0
LINE
8
BLACK
6
CONTINUOUS
10
5.38669
20
-4.54272
11
5.38671
21
-4.54255
0
LINE
8
BLACK
6
CONTINUOUS
10
5.38671
20
-4.54255
11
5.38859
21
-4.5388
0
LINE
8
BLACK
6
CONTINUOUS
10
5.38859
20
-4.5388
11
5.38911
21
-4.53809
0
LINE
8
BLACK
6
CONTINUOUS
10
5.38911
20
-4.53809
11
5.38914
21
-4.53803
0
LINE
8
BLACK
6
CONTINUOUS
10
5.38914
20
-4.53803
11
5.39101
21
-4.53615
0
LINE
8
BLACK
6
CONTINUOUS
10
5.39101
20
-4.53615
11
5.39174
21
-4.53565
0
LINE
8
BLACK
6
CONTINUOUS
10
5.39174
20
-4.53565
11
5.39178
21
-4.5356
0
LINE
8
BLACK
6
CONTINUOUS
10
5.39178
20
-4.5356
11
5.39553
21
-4.53373
0
LINE
8
BLACK
6
CONTINUOUS
10
5.39553
20
-4.53373
11
5.39651
21
-4.53343
0
LINE
8
BLACK
6
CONTINUOUS
10
5.39651
20
-4.53343
11
5.39668
21
-4.53347
0
LINE
8
BLACK
6
CONTINUOUS
10
5.39668
20
-4.53347
11
5.39685
21
-4.53341
0
LINE
8
BLACK
6
CONTINUOUS
10
5.39685
20
-4.53341
11
5.40435
21
-4.53341
0
LINE
8
BLACK
6
CONTINUOUS
10
5.40435
20
-4.53341
11
5.40515
21
-4.53355
0
LINE
8
BLACK
6
CONTINUOUS
10
5.40515
20
-4.53355
11
5.40515
21
-4.52324
0
LINE
8
BLACK
6
CONTINUOUS
10
5.40515
20
-4.52324
11
5.40532
21
-4.52223
0
LINE
8
BLACK
6
CONTINUOUS
10
5.40532
20
-4.52223
11
5.40662
21
-4.52069
0
LINE
8
BLACK
6
CONTINUOUS
10
5.40662
20
-4.52069
11
5.40861
21
-4.52034
0
LINE
8
BLACK
6
CONTINUOUS
10
5.40861
20
-4.52034
11
5.41036
21
-4.52135
0
LINE
8
BLACK
6
CONTINUOUS
10
5.39755
20
-4.53932
11
5.39485
21
-4.54067
0
LINE
8
BLACK
6
CONTINUOUS
10
5.39485
20
-4.54067
11
5.39365
21
-4.54187
0
LINE
8
BLACK
6
CONTINUOUS
10
5.39365
20
-4.54187
11
5.3923
21
-4.54456
0
LINE
8
BLACK
6
CONTINUOUS
10
5.3923
20
-4.54456
11
5.3923
21
-4.55442
0
LINE
8
BLACK
6
CONTINUOUS
10
5.3923
20
-4.55442
11
5.39365
21
-4.55711
0
LINE
8
BLACK
6
CONTINUOUS
10
5.39365
20
-4.55711
11
5.39485
21
-4.55831
0
LINE
8
BLACK
6
CONTINUOUS
10
5.39485
20
-4.55831
11
5.39755
21
-4.55966
0
LINE
8
BLACK
6
CONTINUOUS
10
5.39755
20
-4.55966
11
5.40365
21
-4.55966
0
LINE
8
BLACK
6
CONTINUOUS
10
5.40365
20
-4.55966
11
5.40515
21
-4.55891
0
LINE
8
BLACK
6
CONTINUOUS
10
5.40515
20
-4.55891
11
5.40515
21
-4.54007
0
LINE
8
BLACK
6
CONTINUOUS
10
5.40515
20
-4.54007
11
5.40365
21
-4.53932
0
LINE
8
BLACK
6
CONTINUOUS
10
5.40365
20
-4.53932
11
5.39755
21
-4.53932
0
LINE
8
BLACK
6
CONTINUOUS
10
5.32287
20
-4.52047
11
5.323
21
-4.52058
0
LINE
8
BLACK
6
CONTINUOUS
10
5.323
20
-4.52058
11
5.32318
21
-4.5206
0
LINE
8
BLACK
6
CONTINUOUS
10
5.32318
20
-4.5206
11
5.32693
21
-4.52248
0
LINE
8
BLACK
6
CONTINUOUS
10
5.32693
20
-4.52248
11
5.32764
21
-4.523
0
LINE
8
BLACK
6
CONTINUOUS
10
5.32764
20
-4.523
11
5.3277
21
-4.52303
0
LINE
8
BLACK
6
CONTINUOUS
10
5.3277
20
-4.52303
11
5.32957
21
-4.5249
0
LINE
8
BLACK
6
CONTINUOUS
10
5.32957
20
-4.5249
11
5.33008
21
-4.52563
0
LINE
8
BLACK
6
CONTINUOUS
10
5.33008
20
-4.52563
11
5.33013
21
-4.52567
0
LINE
8
BLACK
6
CONTINUOUS
10
5.33013
20
-4.52567
11
5.332
21
-4.52942
0
LINE
8
BLACK
6
CONTINUOUS
10
5.332
20
-4.52942
11
5.33229
21
-4.5304
0
LINE
8
BLACK
6
CONTINUOUS
10
5.33229
20
-4.5304
11
5.33225
21
-4.53058
0
LINE
8
BLACK
6
CONTINUOUS
10
5.33225
20
-4.53058
11
5.33231
21
-4.53074
0
LINE
8
BLACK
6
CONTINUOUS
10
5.33231
20
-4.53074
11
5.33231
21
-4.53449
0
LINE
8
BLACK
6
CONTINUOUS
10
5.33231
20
-4.53449
11
5.33213
21
-4.5355
0
LINE
8
BLACK
6
CONTINUOUS
10
5.33213
20
-4.5355
11
5.33202
21
-4.53564
0
LINE
8
BLACK
6
CONTINUOUS
10
5.33202
20
-4.53564
11
5.332
21
-4.53581
0
LINE
8
BLACK
6
CONTINUOUS
10
5.332
20
-4.53581
11
5.33013
21
-4.53956
0
LINE
8
BLACK
6
CONTINUOUS
10
5.33013
20
-4.53956
11
5.3296
21
-4.54027
0
LINE
8
BLACK
6
CONTINUOUS
10
5.3296
20
-4.54027
11
5.32957
21
-4.54033
0
LINE
8
BLACK
6
CONTINUOUS
10
5.32957
20
-4.54033
11
5.32869
21
-4.54121
0
LINE
8
BLACK
6
CONTINUOUS
10
5.32869
20
-4.54121
11
5.32932
21
-4.54155
0
LINE
8
BLACK
6
CONTINUOUS
10
5.32932
20
-4.54155
11
5.32941
21
-4.5417
0
LINE
8
BLACK
6
CONTINUOUS
10
5.32941
20
-4.5417
11
5.32957
21
-4.54178
0
LINE
8
BLACK
6
CONTINUOUS
10
5.32957
20
-4.54178
11
5.33145
21
-4.54365
0
LINE
8
BLACK
6
CONTINUOUS
10
5.33145
20
-4.54365
11
5.33195
21
-4.54438
0
LINE
8
BLACK
6
CONTINUOUS
10
5.33195
20
-4.54438
11
5.332
21
-4.54442
0
LINE
8
BLACK
6
CONTINUOUS
10
5.332
20
-4.54442
11
5.33387
21
-4.54817
0
LINE
8
BLACK
6
CONTINUOUS
10
5.33387
20
-4.54817
11
5.33417
21
-4.54915
0
LINE
8
BLACK
6
CONTINUOUS
10
5.33417
20
-4.54915
11
5.33413
21
-4.54932
0
LINE
8
BLACK
6
CONTINUOUS
10
5.33413
20
-4.54932
11
5.33419
21
-4.54949
0
LINE
8
BLACK
6
CONTINUOUS
10
5.33419
20
-4.54949
11
5.33419
21
-4.55511
0
LINE
8
BLACK
6
CONTINUOUS
10
5.33419
20
-4.55511
11
5.33401
21
-4.55612
0
LINE
8
BLACK
6
CONTINUOUS
10
5.33401
20
-4.55612
11
5.33389
21
-4.55626
0
LINE
8
BLACK
6
CONTINUOUS
10
5.33389
20
-4.55626
11
5.33387
21
-4.55643
0
LINE
8
BLACK
6
CONTINUOUS
10
5.33387
20
-4.55643
11
5.332
21
-4.56018
0
LINE
8
BLACK
6
CONTINUOUS
10
5.332
20
-4.56018
11
5.33147
21
-4.56089
0
LINE
8
BLACK
6
CONTINUOUS
10
5.33147
20
-4.56089
11
5.33145
21
-4.56095
0
LINE
8
BLACK
6
CONTINUOUS
10
5.33145
20
-4.56095
11
5.32957
21
-4.56283
0
LINE
8
BLACK
6
CONTINUOUS
10
5.32957
20
-4.56283
11
5.32885
21
-4.56333
0
LINE
8
BLACK
6
CONTINUOUS
10
5.32885
20
-4.56333
11
5.3288
21
-4.56338
0
LINE
8
BLACK
6
CONTINUOUS
10
5.3288
20
-4.56338
11
5.32506
21
-4.56525
0
LINE
8
BLACK
6
CONTINUOUS
10
5.32506
20
-4.56525
11
5.32407
21
-4.56555
0
LINE
8
BLACK
6
CONTINUOUS
10
5.32407
20
-4.56555
11
5.3239
21
-4.56551
0
LINE
8
BLACK
6
CONTINUOUS
10
5.3239
20
-4.56551
11
5.32373
21
-4.56557
0
LINE
8
BLACK
6
CONTINUOUS
10
5.32373
20
-4.56557
11
5.30874
21
-4.56557
0
LINE
8
BLACK
6
CONTINUOUS
10
5.30874
20
-4.56557
11
5.30835
21
-4.5655
0
LINE
8
BLACK
6
CONTINUOUS
10
5.30835
20
-4.5655
11
5.30822
21
-4.56552
0
LINE
8
BLACK
6
CONTINUOUS
10
5.30822
20
-4.56552
11
5.30811
21
-4.56546
0
LINE
8
BLACK
6
CONTINUOUS
10
5.30811
20
-4.56546
11
5.30773
21
-4.56539
0
LINE
8
BLACK
6
CONTINUOUS
10
5.30773
20
-4.56539
11
5.30714
21
-4.56489
0
LINE
8
BLACK
6
CONTINUOUS
10
5.30714
20
-4.56489
11
5.30647
21
-4.56451
0
LINE
8
BLACK
6
CONTINUOUS
10
5.30647
20
-4.56451
11
5.30638
21
-4.56426
0
LINE
8
BLACK
6
CONTINUOUS
10
5.30638
20
-4.56426
11
5.30618
21
-4.56409
0
LINE
8
BLACK
6
CONTINUOUS
10
5.30618
20
-4.56409
11
5.30605
21
-4.56333
0
LINE
8
BLACK
6
CONTINUOUS
10
5.30605
20
-4.56333
11
5.30578
21
-4.56261
0
LINE
8
BLACK
6
CONTINUOUS
10
5.30578
20
-4.56261
11
5.30578
21
-4.52324
0
LINE
8
BLACK
6
CONTINUOUS
10
5.30578
20
-4.52324
11
5.30585
21
-4.52286
0
LINE
8
BLACK
6
CONTINUOUS
10
5.30585
20
-4.52286
11
5.30583
21
-4.52273
0
LINE
8
BLACK
6
CONTINUOUS
10
5.30583
20
-4.52273
11
5.30589
21
-4.52262
0
LINE
8
BLACK
6
CONTINUOUS
10
5.30589
20
-4.52262
11
5.30596
21
-4.52223
0
LINE
8
BLACK
6
CONTINUOUS
10
5.30596
20
-4.52223
11
5.30645
21
-4.52165
0
LINE
8
BLACK
6
CONTINUOUS
10
5.30645
20
-4.52165
11
5.30684
21
-4.52098
0
LINE
8
BLACK
6
CONTINUOUS
10
5.30684
20
-4.52098
11
5.30709
21
-4.52089
0
LINE
8
BLACK
6
CONTINUOUS
10
5.30709
20
-4.52089
11
5.30726
21
-4.52069
0
LINE
8
BLACK
6
CONTINUOUS
10
5.30726
20
-4.52069
11
5.30802
21
-4.52055
0
LINE
8
BLACK
6
CONTINUOUS
10
5.30802
20
-4.52055
11
5.30874
21
-4.52029
0
LINE
8
BLACK
6
CONTINUOUS
10
5.30874
20
-4.52029
11
5.32186
21
-4.52029
0
LINE
8
BLACK
6
CONTINUOUS
10
5.32186
20
-4.52029
11
5.32287
21
-4.52047
0
LINE
8
BLACK
6
CONTINUOUS
10
5.31169
20
-4.54494
11
5.31169
21
-4.55966
0
LINE
8
BLACK
6
CONTINUOUS
10
5.31169
20
-4.55966
11
5.32304
21
-4.55966
0
LINE
8
BLACK
6
CONTINUOUS
10
5.32304
20
-4.55966
11
5.32573
21
-4.55831
0
LINE
8
BLACK
6
CONTINUOUS
10
5.32573
20
-4.55831
11
5.32693
21
-4.55711
0
LINE
8
BLACK
6
CONTINUOUS
10
5.32693
20
-4.55711
11
5.32828
21
-4.55442
0
LINE
8
BLACK
6
CONTINUOUS
10
5.32828
20
-4.55442
11
5.32828
21
-4.55019
0
LINE
8
BLACK
6
CONTINUOUS
10
5.32828
20
-4.55019
11
5.32693
21
-4.54749
0
LINE
8
BLACK
6
CONTINUOUS
10
5.32693
20
-4.54749
11
5.32589
21
-4.54645
0
LINE
8
BLACK
6
CONTINUOUS
10
5.32589
20
-4.54645
11
5.32138
21
-4.54494
0
LINE
8
BLACK
6
CONTINUOUS
10
5.32138
20
-4.54494
11
5.31169
21
-4.54494
0
LINE
8
BLACK
6
CONTINUOUS
10
5.31169
20
-4.5262
11
5.31169
21
-4.53904
0
LINE
8
BLACK
6
CONTINUOUS
10
5.31169
20
-4.53904
11
5.32116
21
-4.53904
0
LINE
8
BLACK
6
CONTINUOUS
10
5.32116
20
-4.53904
11
5.32386
21
-4.53769
0
LINE
8
BLACK
6
CONTINUOUS
10
5.32386
20
-4.53769
11
5.32506
21
-4.53649
0
LINE
8
BLACK
6
CONTINUOUS
10
5.32506
20
-4.53649
11
5.32641
21
-4.53379
0
LINE
8
BLACK
6
CONTINUOUS
10
5.32641
20
-4.53379
11
5.32641
21
-4.53144
0
LINE
8
BLACK
6
CONTINUOUS
10
5.32641
20
-4.53144
11
5.32506
21
-4.52874
0
LINE
8
BLACK
6
CONTINUOUS
10
5.32506
20
-4.52874
11
5.32386
21
-4.52754
0
LINE
8
BLACK
6
CONTINUOUS
10
5.32386
20
-4.52754
11
5.32116
21
-4.5262
0
LINE
8
BLACK
6
CONTINUOUS
10
5.32116
20
-4.5262
11
5.31169
21
-4.5262
0
LINE
8
BLACK
6
CONTINUOUS
10
4.86168
20
-4.53359
11
4.86181
21
-4.53371
0
LINE
8
BLACK
6
CONTINUOUS
10
4.86181
20
-4.53371
11
4.86199
21
-4.53373
0
LINE
8
BLACK
6
CONTINUOUS
10
4.86199
20
-4.53373
11
4.86574
21
-4.5356
0
LINE
8
BLACK
6
CONTINUOUS
10
4.86574
20
-4.5356
11
4.86645
21
-4.53613
0
LINE
8
BLACK
6
CONTINUOUS
10
4.86645
20
-4.53613
11
4.8665
21
-4.53615
0
LINE
8
BLACK
6
CONTINUOUS
10
4.8665
20
-4.53615
11
4.86838
21
-4.53803
0
LINE
8
BLACK
6
CONTINUOUS
10
4.86838
20
-4.53803
11
4.86889
21
-4.53875
0
LINE
8
BLACK
6
CONTINUOUS
10
4.86889
20
-4.53875
11
4.86893
21
-4.5388
0
LINE
8
BLACK
6
CONTINUOUS
10
4.86893
20
-4.5388
11
4.87081
21
-4.54255
0
LINE
8
BLACK
6
CONTINUOUS
10
4.87081
20
-4.54255
11
4.8711
21
-4.54353
0
LINE
8
BLACK
6
CONTINUOUS
10
4.8711
20
-4.54353
11
4.87106
21
-4.5437
0
LINE
8
BLACK
6
CONTINUOUS
10
4.87106
20
-4.5437
11
4.87112
21
-4.54387
0
LINE
8
BLACK
6
CONTINUOUS
10
4.87112
20
-4.54387
11
4.87112
21
-4.55511
0
LINE
8
BLACK
6
CONTINUOUS
10
4.87112
20
-4.55511
11
4.87094
21
-4.55612
0
LINE
8
BLACK
6
CONTINUOUS
10
4.87094
20
-4.55612
11
4.87083
21
-4.55626
0
LINE
8
BLACK
6
CONTINUOUS
10
4.87083
20
-4.55626
11
4.87081
21
-4.55643
0
LINE
8
BLACK
6
CONTINUOUS
10
4.87081
20
-4.55643
11
4.86893
21
-4.56018
0
LINE
8
BLACK
6
CONTINUOUS
10
4.86893
20
-4.56018
11
4.86841
21
-4.56089
0
LINE
8
BLACK
6
CONTINUOUS
10
4.86841
20
-4.56089
11
4.86838
21
-4.56095
0
LINE
8
BLACK
6
CONTINUOUS
10
4.86838
20
-4.56095
11
4.8665
21
-4.56283
0
LINE
8
BLACK
6
CONTINUOUS
10
4.8665
20
-4.56283
11
4.86578
21
-4.56333
0
LINE
8
BLACK
6
CONTINUOUS
10
4.86578
20
-4.56333
11
4.86574
21
-4.56338
0
LINE
8
BLACK
6
CONTINUOUS
10
4.86574
20
-4.56338
11
4.86199
21
-4.56525
0
LINE
8
BLACK
6
CONTINUOUS
10
4.86199
20
-4.56525
11
4.861
21
-4.56555
0
LINE
8
BLACK
6
CONTINUOUS
10
4.861
20
-4.56555
11
4.86083
21
-4.56551
0
LINE
8
BLACK
6
CONTINUOUS
10
4.86083
20
-4.56551
11
4.86067
21
-4.56557
0
LINE
8
BLACK
6
CONTINUOUS
10
4.86067
20
-4.56557
11
4.85504
21
-4.56557
0
LINE
8
BLACK
6
CONTINUOUS
10
4.85504
20
-4.56557
11
4.85403
21
-4.56539
0
LINE
8
BLACK
6
CONTINUOUS
10
4.85403
20
-4.56539
11
4.8539
21
-4.56527
0
LINE
8
BLACK
6
CONTINUOUS
10
4.8539
20
-4.56527
11
4.85372
21
-4.56525
0
LINE
8
BLACK
6
CONTINUOUS
10
4.85372
20
-4.56525
11
4.84997
21
-4.56338
0
LINE
8
BLACK
6
CONTINUOUS
10
4.84997
20
-4.56338
11
4.84926
21
-4.56285
0
LINE
8
BLACK
6
CONTINUOUS
10
4.84926
20
-4.56285
11
4.84921
21
-4.56283
0
LINE
8
BLACK
6
CONTINUOUS
10
4.84921
20
-4.56283
11
4.84733
21
-4.56095
0
LINE
8
BLACK
6
CONTINUOUS
10
4.84733
20
-4.56095
11
4.84682
21
-4.56023
0
LINE
8
BLACK
6
CONTINUOUS
10
4.84682
20
-4.56023
11
4.84678
21
-4.56018
0
LINE
8
BLACK
6
CONTINUOUS
10
4.84678
20
-4.56018
11
4.8449
21
-4.55643
0
LINE
8
BLACK
6
CONTINUOUS
10
4.8449
20
-4.55643
11
4.84461
21
-4.55545
0
LINE
8
BLACK
6
CONTINUOUS
10
4.84461
20
-4.55545
11
4.84465
21
-4.55528
0
LINE
8
BLACK
6
CONTINUOUS
10
4.84465
20
-4.55528
11
4.84459
21
-4.55511
0
LINE
8
BLACK
6
CONTINUOUS
10
4.84459
20
-4.55511
11
4.84459
21
-4.54387
0
LINE
8
BLACK
6
CONTINUOUS
10
4.84459
20
-4.54387
11
4.84477
21
-4.54286
0
LINE
8
BLACK
6
CONTINUOUS
10
4.84477
20
-4.54286
11
4.84488
21
-4.54272
0
LINE
8
BLACK
6
CONTINUOUS
10
4.84488
20
-4.54272
11
4.8449
21
-4.54255
0
LINE
8
BLACK
6
CONTINUOUS
10
4.8449
20
-4.54255
11
4.84678
21
-4.5388
0
LINE
8
BLACK
6
CONTINUOUS
10
4.84678
20
-4.5388
11
4.8473
21
-4.53809
0
LINE
8
BLACK
6
CONTINUOUS
10
4.8473
20
-4.53809
11
4.84733
21
-4.53803
0
LINE
8
BLACK
6
CONTINUOUS
10
4.84733
20
-4.53803
11
4.84921
21
-4.53615
0
LINE
8
BLACK
6
CONTINUOUS
10
4.84921
20
-4.53615
11
4.84993
21
-4.53565
0
LINE
8
BLACK
6
CONTINUOUS
10
4.84993
20
-4.53565
11
4.84997
21
-4.5356
0
LINE
8
BLACK
6
CONTINUOUS
10
4.84997
20
-4.5356
11
4.85372
21
-4.53373
0
LINE
8
BLACK
6
CONTINUOUS
10
4.85372
20
-4.53373
11
4.85471
21
-4.53343
0
LINE
8
BLACK
6
CONTINUOUS
10
4.85471
20
-4.53343
11
4.85488
21
-4.53347
0
LINE
8
BLACK
6
CONTINUOUS
10
4.85488
20
-4.53347
11
4.85504
21
-4.53341
0
LINE
8
BLACK
6
CONTINUOUS
10
4.85504
20
-4.53341
11
4.86067
21
-4.53341
0
LINE
8
BLACK
6
CONTINUOUS
10
4.86067
20
-4.53341
11
4.86168
21
-4.53359
0
LINE
8
BLACK
6
CONTINUOUS
10
4.85574
20
-4.53932
11
4.85304
21
-4.54067
0
LINE
8
BLACK
6
CONTINUOUS
10
4.85304
20
-4.54067
11
4.85185
21
-4.54187
0
LINE
8
BLACK
6
CONTINUOUS
10
4.85185
20
-4.54187
11
4.8505
21
-4.54456
0
LINE
8
BLACK
6
CONTINUOUS
10
4.8505
20
-4.54456
11
4.8505
21
-4.55442
0
LINE
8
BLACK
6
CONTINUOUS
10
4.8505
20
-4.55442
11
4.85185
21
-4.55711
0
LINE
8
BLACK
6
CONTINUOUS
10
4.85185
20
-4.55711
11
4.85304
21
-4.55831
0
LINE
8
BLACK
6
CONTINUOUS
10
4.85304
20
-4.55831
11
4.85574
21
-4.55966
0
LINE
8
BLACK
6
CONTINUOUS
10
4.85574
20
-4.55966
11
4.85997
21
-4.55966
0
LINE
8
BLACK
6
CONTINUOUS
10
4.85997
20
-4.55966
11
4.86267
21
-4.55831
0
LINE
8
BLACK
6
CONTINUOUS
10
4.86267
20
-4.55831
11
4.86386
21
-4.55711
0
LINE
8
BLACK
6
CONTINUOUS
10
4.86386
20
-4.55711
11
4.86521
21
-4.55442
0
LINE
8
BLACK
6
CONTINUOUS
10
4.86521
20
-4.55442
11
4.86521
21
-4.54456
0
LINE
8
BLACK
6
CONTINUOUS
10
4.86521
20
-4.54456
11
4.86386
21
-4.54187
0
LINE
8
BLACK
6
CONTINUOUS
10
4.86386
20
-4.54187
11
4.86267
21
-4.54067
0
LINE
8
BLACK
6
CONTINUOUS
10
4.86267
20
-4.54067
11
4.85997
21
-4.53932
0
LINE
8
BLACK
6
CONTINUOUS
10
4.85997
20
-4.53932
11
4.85574
21
-4.53932
0
LINE
8
BLACK
6
CONTINUOUS
10
4.9248
20
-4.52135
11
4.92549
21
-4.52324
0
LINE
8
BLACK
6
CONTINUOUS
10
4.92549
20
-4.52324
11
4.92549
21
-4.56261
0
LINE
8
BLACK
6
CONTINUOUS
10
4.92549
20
-4.56261
11
4.92531
21
-4.56362
0
LINE
8
BLACK
6
CONTINUOUS
10
4.92531
20
-4.56362
11
4.92401
21
-4.56517
0
LINE
8
BLACK
6
CONTINUOUS
10
4.92401
20
-4.56517
11
4.92202
21
-4.56552
0
LINE
8
BLACK
6
CONTINUOUS
10
4.92202
20
-4.56552
11
4.92088
21
-4.56486
0
LINE
8
BLACK
6
CONTINUOUS
10
4.92088
20
-4.56486
11
4.92011
21
-4.56525
0
LINE
8
BLACK
6
CONTINUOUS
10
4.92011
20
-4.56525
11
4.91912
21
-4.56555
0
LINE
8
BLACK
6
CONTINUOUS
10
4.91912
20
-4.56555
11
4.91895
21
-4.56551
0
LINE
8
BLACK
6
CONTINUOUS
10
4.91895
20
-4.56551
11
4.91879
21
-4.56557
0
LINE
8
BLACK
6
CONTINUOUS
10
4.91879
20
-4.56557
11
4.91129
21
-4.56557
0
LINE
8
BLACK
6
CONTINUOUS
10
4.91129
20
-4.56557
11
4.91028
21
-4.56539
0
LINE
8
BLACK
6
CONTINUOUS
10
4.91028
20
-4.56539
11
4.91014
21
-4.56527
0
LINE
8
BLACK
6
CONTINUOUS
10
4.91014
20
-4.56527
11
4.90997
21
-4.56525
0
LINE
8
BLACK
6
CONTINUOUS
10
4.90997
20
-4.56525
11
4.90622
21
-4.56338
0
LINE
8
BLACK
6
CONTINUOUS
10
4.90622
20
-4.56338
11
4.90551
21
-4.56285
0
LINE
8
BLACK
6
CONTINUOUS
10
4.90551
20
-4.56285
11
4.90545
21
-4.56283
0
LINE
8
BLACK
6
CONTINUOUS
10
4.90545
20
-4.56283
11
4.90357
21
-4.56095
0
LINE
8
BLACK
6
CONTINUOUS
10
4.90357
20
-4.56095
11
4.90307
21
-4.56023
0
LINE
8
BLACK
6
CONTINUOUS
10
4.90307
20
-4.56023
11
4.90302
21
-4.56018
0
LINE
8
BLACK
6
CONTINUOUS
10
4.90302
20
-4.56018
11
4.90115
21
-4.55643
0
LINE
8
BLACK
6
CONTINUOUS
10
4.90115
20
-4.55643
11
4.90085
21
-4.55545
0
LINE
8
BLACK
6
CONTINUOUS
10
4.90085
20
-4.55545
11
4.90089
21
-4.55528
0
LINE
8
BLACK
6
CONTINUOUS
10
4.90089
20
-4.55528
11
4.90083
21
-4.55511
0
LINE
8
BLACK
6
CONTINUOUS
10
4.90083
20
-4.55511
11
4.90083
21
-4.54387
0
LINE
8
BLACK
6
CONTINUOUS
10
4.90083
20
-4.54387
11
4.90101
21
-4.54286
0
LINE
8
BLACK
6
CONTINUOUS
10
4.90101
20
-4.54286
11
4.90113
21
-4.54272
0
LINE
8
BLACK
6
CONTINUOUS
10
4.90113
20
-4.54272
11
4.90115
21
-4.54255
0
LINE
8
BLACK
6
CONTINUOUS
10
4.90115
20
-4.54255
11
4.90302
21
-4.5388
0
LINE
8
BLACK
6
CONTINUOUS
10
4.90302
20
-4.5388
11
4.90355
21
-4.53809
0
LINE
8
BLACK
6
CONTINUOUS
10
4.90355
20
-4.53809
11
4.90357
21
-4.53803
0
LINE
8
BLACK
6
CONTINUOUS
10
4.90357
20
-4.53803
11
4.90545
21
-4.53615
0
LINE
8
BLACK
6
CONTINUOUS
10
4.90545
20
-4.53615
11
4.90617
21
-4.53565
0
LINE
8
BLACK
6
CONTINUOUS
10
4.90617
20
-4.53565
11
4.90622
21
-4.5356
0
LINE
8
BLACK
6
CONTINUOUS
10
4.90622
20
-4.5356
11
4.90997
21
-4.53373
0
LINE
8
BLACK
6
CONTINUOUS
10
4.90997
20
-4.53373
11
4.91095
21
-4.53343
0
LINE
8
BLACK
6
CONTINUOUS
10
4.91095
20
-4.53343
11
4.91112
21
-4.53347
0
LINE
8
BLACK
6
CONTINUOUS
10
4.91112
20
-4.53347
11
4.91129
21
-4.53341
0
LINE
8
BLACK
6
CONTINUOUS
10
4.91129
20
-4.53341
11
4.91879
21
-4.53341
0
LINE
8
BLACK
6
CONTINUOUS
10
4.91879
20
-4.53341
11
4.91958
21
-4.53355
0
LINE
8
BLACK
6
CONTINUOUS
10
4.91958
20
-4.53355
11
4.91958
21
-4.52324
0
LINE
8
BLACK
6
CONTINUOUS
10
4.91958
20
-4.52324
11
4.91976
21
-4.52223
0
LINE
8
BLACK
6
CONTINUOUS
10
4.91976
20
-4.52223
11
4.92106
21
-4.52069
0
LINE
8
BLACK
6
CONTINUOUS
10
4.92106
20
-4.52069
11
4.92305
21
-4.52034
0
LINE
8
BLACK
6
CONTINUOUS
10
4.92305
20
-4.52034
11
4.9248
21
-4.52135
0
LINE
8
BLACK
6
CONTINUOUS
10
4.91198
20
-4.53932
11
4.90929
21
-4.54067
0
LINE
8
BLACK
6
CONTINUOUS
10
4.90929
20
-4.54067
11
4.90809
21
-4.54187
0
LINE
8
BLACK
6
CONTINUOUS
10
4.90809
20
-4.54187
11
4.90674
21
-4.54456
0
LINE
8
BLACK
6
CONTINUOUS
10
4.90674
20
-4.54456
11
4.90674
21
-4.55442
0
LINE
8
BLACK
6
CONTINUOUS
10
4.90674
20
-4.55442
11
4.90809
21
-4.55711
0
LINE
8
BLACK
6
CONTINUOUS
10
4.90809
20
-4.55711
11
4.90929
21
-4.55831
0
LINE
8
BLACK
6
CONTINUOUS
10
4.90929
20
-4.55831
11
4.91198
21
-4.55966
0
LINE
8
BLACK
6
CONTINUOUS
10
4.91198
20
-4.55966
11
4.91809
21
-4.55966
0
LINE
8
BLACK
6
CONTINUOUS
10
4.91809
20
-4.55966
11
4.91958
21
-4.55891
0
LINE
8
BLACK
6
CONTINUOUS
10
4.91958
20
-4.55891
11
4.91958
21
-4.54007
0
LINE
8
BLACK
6
CONTINUOUS
10
4.91958
20
-4.54007
11
4.91809
21
-4.53932
0
LINE
8
BLACK
6
CONTINUOUS
10
4.91809
20
-4.53932
11
4.91198
21
-4.53932
0
LINE
8
BLACK
6
CONTINUOUS
10
4.95354
20
-4.53359
11
4.95368
21
-4.53371
0
LINE
8
BLACK
6
CONTINUOUS
10
4.95368
20
-4.53371
11
4.95385
21
-4.53373
0
LINE
8
BLACK
6
CONTINUOUS
10
4.95385
20
-4.53373
11
4.9576
21
-4.5356
0
LINE
8
BLACK
6
CONTINUOUS
10
4.9576
20
-4.5356
11
4.95842
21
-4.53621
0
LINE
8
BLACK
6
CONTINUOUS
10
4.95842
20
-4.53621
11
4.9586
21
-4.53662
0
LINE
8
BLACK
6
CONTINUOUS
10
4.9586
20
-4.53662
11
4.95892
21
-4.53692
0
LINE
8
BLACK
6
CONTINUOUS
10
4.95892
20
-4.53692
11
4.9608
21
-4.54067
0
LINE
8
BLACK
6
CONTINUOUS
10
4.9608
20
-4.54067
11
4.96109
21
-4.54165
0
LINE
8
BLACK
6
CONTINUOUS
10
4.96109
20
-4.54165
11
4.96105
21
-4.54183
0
LINE
8
BLACK
6
CONTINUOUS
10
4.96105
20
-4.54183
11
4.96111
21
-4.54199
0
LINE
8
BLACK
6
CONTINUOUS
10
4.96111
20
-4.54199
11
4.96111
21
-4.54574
0
LINE
8
BLACK
6
CONTINUOUS
10
4.96111
20
-4.54574
11
4.96093
21
-4.54675
0
LINE
8
BLACK
6
CONTINUOUS
10
4.96093
20
-4.54675
11
4.96062
21
-4.54712
0
LINE
8
BLACK
6
CONTINUOUS
10
4.96062
20
-4.54712
11
4.96046
21
-4.54759
0
LINE
8
BLACK
6
CONTINUOUS
10
4.96046
20
-4.54759
11
4.95999
21
-4.54787
0
LINE
8
BLACK
6
CONTINUOUS
10
4.95999
20
-4.54787
11
4.95963
21
-4.5483
0
LINE
8
BLACK
6
CONTINUOUS
10
4.95963
20
-4.5483
11
4.95915
21
-4.54838
0
LINE
8
BLACK
6
CONTINUOUS
10
4.95915
20
-4.54838
11
4.95873
21
-4.54864
0
LINE
8
BLACK
6
CONTINUOUS
10
4.95873
20
-4.54864
11
4.94236
21
-4.55191
0
LINE
8
BLACK
6
CONTINUOUS
10
4.94236
20
-4.55191
11
4.94236
21
-4.55629
0
LINE
8
BLACK
6
CONTINUOUS
10
4.94236
20
-4.55629
11
4.94348
21
-4.55854
0
LINE
8
BLACK
6
CONTINUOUS
10
4.94348
20
-4.55854
11
4.94573
21
-4.55966
0
LINE
8
BLACK
6
CONTINUOUS
10
4.94573
20
-4.55966
11
4.95183
21
-4.55966
0
LINE
8
BLACK
6
CONTINUOUS
10
4.95183
20
-4.55966
11
4.95496
21
-4.5581
0
LINE
8
BLACK
6
CONTINUOUS
10
4.95496
20
-4.5581
11
4.95594
21
-4.55781
0
LINE
8
BLACK
6
CONTINUOUS
10
4.95594
20
-4.55781
11
4.95791
21
-4.55827
0
LINE
8
BLACK
6
CONTINUOUS
10
4.95791
20
-4.55827
11
4.95911
21
-4.5599
0
LINE
8
BLACK
6
CONTINUOUS
10
4.95911
20
-4.5599
11
4.95899
21
-4.56191
0
LINE
8
BLACK
6
CONTINUOUS
10
4.95899
20
-4.56191
11
4.9576
21
-4.56338
0
LINE
8
BLACK
6
CONTINUOUS
10
4.9576
20
-4.56338
11
4.95385
21
-4.56525
0
LINE
8
BLACK
6
CONTINUOUS
10
4.95385
20
-4.56525
11
4.95287
21
-4.56555
0
LINE
8
BLACK
6
CONTINUOUS
10
4.95287
20
-4.56555
11
4.9527
21
-4.56551
0
LINE
8
BLACK
6
CONTINUOUS
10
4.9527
20
-4.56551
11
4.95253
21
-4.56557
0
LINE
8
BLACK
6
CONTINUOUS
10
4.95253
20
-4.56557
11
4.94503
21
-4.56557
0
LINE
8
BLACK
6
CONTINUOUS
10
4.94503
20
-4.56557
11
4.94402
21
-4.56539
0
LINE
8
BLACK
6
CONTINUOUS
10
4.94402
20
-4.56539
11
4.94389
21
-4.56527
0
LINE
8
BLACK
6
CONTINUOUS
10
4.94389
20
-4.56527
11
4.94371
21
-4.56525
0
LINE
8
BLACK
6
CONTINUOUS
10
4.94371
20
-4.56525
11
4.93996
21
-4.56338
0
LINE
8
BLACK
6
CONTINUOUS
10
4.93996
20
-4.56338
11
4.93914
21
-4.56277
0
LINE
8
BLACK
6
CONTINUOUS
10
4.93914
20
-4.56277
11
4.93896
21
-4.56236
0
LINE
8
BLACK
6
CONTINUOUS
10
4.93896
20
-4.56236
11
4.93864
21
-4.56206
0
LINE
8
BLACK
6
CONTINUOUS
10
4.93864
20
-4.56206
11
4.93677
21
-4.55831
0
LINE
8
BLACK
6
CONTINUOUS
10
4.93677
20
-4.55831
11
4.93647
21
-4.55733
0
LINE
8
BLACK
6
CONTINUOUS
10
4.93647
20
-4.55733
11
4.93652
21
-4.55715
0
LINE
8
BLACK
6
CONTINUOUS
10
4.93652
20
-4.55715
11
4.93645
21
-4.55699
0
LINE
8
BLACK
6
CONTINUOUS
10
4.93645
20
-4.55699
11
4.93645
21
-4.54199
0
LINE
8
BLACK
6
CONTINUOUS
10
4.93645
20
-4.54199
11
4.93663
21
-4.54098
0
LINE
8
BLACK
6
CONTINUOUS
10
4.93663
20
-4.54098
11
4.93675
21
-4.54085
0
LINE
8
BLACK
6
CONTINUOUS
10
4.93675
20
-4.54085
11
4.93677
21
-4.54067
0
LINE
8
BLACK
6
CONTINUOUS
10
4.93677
20
-4.54067
11
4.93864
21
-4.53692
0
LINE
8
BLACK
6
CONTINUOUS
10
4.93864
20
-4.53692
11
4.93925
21
-4.5361
0
LINE
8
BLACK
6
CONTINUOUS
10
4.93925
20
-4.5361
11
4.93966
21
-4.53592
0
LINE
8
BLACK
6
CONTINUOUS
10
4.93966
20
-4.53592
11
4.93996
21
-4.5356
0
LINE
8
BLACK
6
CONTINUOUS
10
4.93996
20
-4.5356
11
4.94371
21
-4.53373
0
LINE
8
BLACK
6
CONTINUOUS
10
4.94371
20
-4.53373
11
4.94469
21
-4.53343
0
LINE
8
BLACK
6
CONTINUOUS
10
4.94469
20
-4.53343
11
4.94487
21
-4.53347
0
LINE
8
BLACK
6
CONTINUOUS
10
4.94487
20
-4.53347
11
4.94503
21
-4.53341
0
LINE
8
BLACK
6
CONTINUOUS
10
4.94503
20
-4.53341
11
4.95253
21
-4.53341
0
LINE
8
BLACK
6
CONTINUOUS
10
4.95253
20
-4.53341
11
4.95354
21
-4.53359
0
LINE
8
BLACK
6
CONTINUOUS
10
4.94573
20
-4.53932
11
4.94348
21
-4.54044
0
LINE
8
BLACK
6
CONTINUOUS
10
4.94348
20
-4.54044
11
4.94236
21
-4.54269
0
LINE
8
BLACK
6
CONTINUOUS
10
4.94236
20
-4.54269
11
4.94236
21
-4.54589
0
LINE
8
BLACK
6
CONTINUOUS
10
4.94236
20
-4.54589
11
4.9552
21
-4.54332
0
LINE
8
BLACK
6
CONTINUOUS
10
4.9552
20
-4.54332
11
4.9552
21
-4.54269
0
LINE
8
BLACK
6
CONTINUOUS
10
4.9552
20
-4.54269
11
4.95408
21
-4.54044
0
LINE
8
BLACK
6
CONTINUOUS
10
4.95408
20
-4.54044
11
4.95183
21
-4.53932
0
LINE
8
BLACK
6
CONTINUOUS
10
4.95183
20
-4.53932
11
4.94573
21
-4.53932
0
LINE
8
BLACK
6
CONTINUOUS
10
5.51535
20
-4.52135
11
5.51604
21
-4.52324
0
LINE
8
BLACK
6
CONTINUOUS
10
5.51604
20
-4.52324
11
5.51604
21
-4.56261
0
LINE
8
BLACK
6
CONTINUOUS
10
5.51604
20
-4.56261
11
5.51586
21
-4.56362
0
LINE
8
BLACK
6
CONTINUOUS
10
5.51586
20
-4.56362
11
5.51456
21
-4.56517
0
LINE
8
BLACK
6
CONTINUOUS
10
5.51456
20
-4.56517
11
5.51257
21
-4.56552
0
LINE
8
BLACK
6
CONTINUOUS
10
5.51257
20
-4.56552
11
5.51144
21
-4.56486
0
LINE
8
BLACK
6
CONTINUOUS
10
5.51144
20
-4.56486
11
5.51066
21
-4.56525
0
LINE
8
BLACK
6
CONTINUOUS
10
5.51066
20
-4.56525
11
5.50967
21
-4.56555
0
LINE
8
BLACK
6
CONTINUOUS
10
5.50967
20
-4.56555
11
5.5095
21
-4.56551
0
LINE
8
BLACK
6
CONTINUOUS
10
5.5095
20
-4.56551
11
5.50934
21
-4.56557
0
LINE
8
BLACK
6
CONTINUOUS
10
5.50934
20
-4.56557
11
5.50184
21
-4.56557
0
LINE
8
BLACK
6
CONTINUOUS
10
5.50184
20
-4.56557
11
5.50083
21
-4.56539
0
LINE
8
BLACK
6
CONTINUOUS
10
5.50083
20
-4.56539
11
5.50069
21
-4.56527
0
LINE
8
BLACK
6
CONTINUOUS
10
5.50069
20
-4.56527
11
5.50052
21
-4.56525
0
LINE
8
BLACK
6
CONTINUOUS
10
5.50052
20
-4.56525
11
5.49677
21
-4.56338
0
LINE
8
BLACK
6
CONTINUOUS
10
5.49677
20
-4.56338
11
5.49606
21
-4.56285
0
LINE
8
BLACK
6
CONTINUOUS
10
5.49606
20
-4.56285
11
5.496
21
-4.56283
0
LINE
8
BLACK
6
CONTINUOUS
10
5.496
20
-4.56283
11
5.49413
21
-4.56095
0
LINE
8
BLACK
6
CONTINUOUS
10
5.49413
20
-4.56095
11
5.49362
21
-4.56023
0
LINE
8
BLACK
6
CONTINUOUS
10
5.49362
20
-4.56023
11
5.49357
21
-4.56018
0
LINE
8
BLACK
6
CONTINUOUS
10
5.49357
20
-4.56018
11
5.4917
21
-4.55643
0
LINE
8
BLACK
6
CONTINUOUS
10
5.4917
20
-4.55643
11
5.4914
21
-4.55545
0
LINE
8
BLACK
6
CONTINUOUS
10
5.4914
20
-4.55545
11
5.49145
21
-4.55528
0
LINE
8
BLACK
6
CONTINUOUS
10
5.49145
20
-4.55528
11
5.49139
21
-4.55511
0
LINE
8
BLACK
6
CONTINUOUS
10
5.49139
20
-4.55511
11
5.49139
21
-4.54387
0
LINE
8
BLACK
6
CONTINUOUS
10
5.49139
20
-4.54387
11
5.49156
21
-4.54286
0
LINE
8
BLACK
6
CONTINUOUS
10
5.49156
20
-4.54286
11
5.49168
21
-4.54272
0
LINE
8
BLACK
6
CONTINUOUS
10
5.49168
20
-4.54272
11
5.4917
21
-4.54255
0
LINE
8
BLACK
6
CONTINUOUS
10
5.4917
20
-4.54255
11
5.49357
21
-4.5388
0
LINE
8
BLACK
6
CONTINUOUS
10
5.49357
20
-4.5388
11
5.4941
21
-4.53809
0
LINE
8
BLACK
6
CONTINUOUS
10
5.4941
20
-4.53809
11
5.49413
21
-4.53803
0
LINE
8
BLACK
6
CONTINUOUS
10
5.49413
20
-4.53803
11
5.496
21
-4.53615
0
LINE
8
BLACK
6
CONTINUOUS
10
5.496
20
-4.53615
11
5.49672
21
-4.53565
0
LINE
8
BLACK
6
CONTINUOUS
10
5.49672
20
-4.53565
11
5.49677
21
-4.5356
0
LINE
8
BLACK
6
CONTINUOUS
10
5.49677
20
-4.5356
11
5.50052
21
-4.53373
0
LINE
8
BLACK
6
CONTINUOUS
10
5.50052
20
-4.53373
11
5.5015
21
-4.53343
0
LINE
8
BLACK
6
CONTINUOUS
10
5.5015
20
-4.53343
11
5.50167
21
-4.53347
0
LINE
8
BLACK
6
CONTINUOUS
10
5.50167
20
-4.53347
11
5.50184
21
-4.53341
0
LINE
8
BLACK
6
CONTINUOUS
10
5.50184
20
-4.53341
11
5.50934
21
-4.53341
0
LINE
8
BLACK
6
CONTINUOUS
10
5.50934
20
-4.53341
11
5.51013
21
-4.53355
0
LINE
8
BLACK
6
CONTINUOUS
10
5.51013
20
-4.53355
11
5.51013
21
-4.52324
0
LINE
8
BLACK
6
CONTINUOUS
10
5.51013
20
-4.52324
11
5.51031
21
-4.52223
0
LINE
8
BLACK
6
CONTINUOUS
10
5.51031
20
-4.52223
11
5.51161
21
-4.52069
0
LINE
8
BLACK
6
CONTINUOUS
10
5.51161
20
-4.52069
11
5.5136
21
-4.52034
0
LINE
8
BLACK
6
CONTINUOUS
10
5.5136
20
-4.52034
11
5.51535
21
-4.52135
0
LINE
8
BLACK
6
CONTINUOUS
10
5.50253
20
-4.53932
11
5.49984
21
-4.54067
0
LINE
8
BLACK
6
CONTINUOUS
10
5.49984
20
-4.54067
11
5.49864
21
-4.54187
0
LINE
8
BLACK
6
CONTINUOUS
10
5.49864
20
-4.54187
11
5.49729
21
-4.54456
0
LINE
8
BLACK
6
CONTINUOUS
10
5.49729
20
-4.54456
11
5.49729
21
-4.55442
0
LINE
8
BLACK
6
CONTINUOUS
10
5.49729
20
-4.55442
11
5.49864
21
-4.55711
0
LINE
8
BLACK
6
CONTINUOUS
10
5.49864
20
-4.55711
11
5.49984
21
-4.55831
0
LINE
8
BLACK
6
CONTINUOUS
10
5.49984
20
-4.55831
11
5.50253
21
-4.55966
0
LINE
8
BLACK
6
CONTINUOUS
10
5.50253
20
-4.55966
11
5.50864
21
-4.55966
0
LINE
8
BLACK
6
CONTINUOUS
10
5.50864
20
-4.55966
11
5.51013
21
-4.55891
0
LINE
8
BLACK
6
CONTINUOUS
10
5.51013
20
-4.55891
11
5.51013
21
-4.54007
0
LINE
8
BLACK
6
CONTINUOUS
10
5.51013
20
-4.54007
11
5.50864
21
-4.53932
0
LINE
8
BLACK
6
CONTINUOUS
10
5.50864
20
-4.53932
11
5.50253
21
-4.53932
0
LINE
8
BLACK
6
CONTINUOUS
10
5.2623
20
-4.52037
11
5.26244
21
-4.52035
0
LINE
8
BLACK
6
CONTINUOUS
10
5.26244
20
-4.52035
11
5.26254
21
-4.52041
0
LINE
8
BLACK
6
CONTINUOUS
10
5.26254
20
-4.52041
11
5.26288
21
-4.52047
0
LINE
8
BLACK
6
CONTINUOUS
10
5.26288
20
-4.52047
11
5.26349
21
-4.52098
0
LINE
8
BLACK
6
CONTINUOUS
10
5.26349
20
-4.52098
11
5.26417
21
-4.52139
0
LINE
8
BLACK
6
CONTINUOUS
10
5.26417
20
-4.52139
11
5.26424
21
-4.52162
0
LINE
8
BLACK
6
CONTINUOUS
10
5.26424
20
-4.52162
11
5.26442
21
-4.52177
0
LINE
8
BLACK
6
CONTINUOUS
10
5.26442
20
-4.52177
11
5.26456
21
-4.52255
0
LINE
8
BLACK
6
CONTINUOUS
10
5.26456
20
-4.52255
11
5.26482
21
-4.5233
0
LINE
8
BLACK
6
CONTINUOUS
10
5.26482
20
-4.5233
11
5.26473
21
-4.52352
0
LINE
8
BLACK
6
CONTINUOUS
10
5.26473
20
-4.52352
11
5.26478
21
-4.52376
0
LINE
8
BLACK
6
CONTINUOUS
10
5.26478
20
-4.52376
11
5.26438
21
-4.52445
0
LINE
8
BLACK
6
CONTINUOUS
10
5.26438
20
-4.52445
11
5.26409
21
-4.52519
0
LINE
8
BLACK
6
CONTINUOUS
10
5.26409
20
-4.52519
11
5.25513
21
-4.53542
0
LINE
8
BLACK
6
CONTINUOUS
10
5.25513
20
-4.53542
11
5.25538
21
-4.53547
0
LINE
8
BLACK
6
CONTINUOUS
10
5.25538
20
-4.53547
11
5.25551
21
-4.53558
0
LINE
8
BLACK
6
CONTINUOUS
10
5.25551
20
-4.53558
11
5.25569
21
-4.5356
0
LINE
8
BLACK
6
CONTINUOUS
10
5.25569
20
-4.5356
11
5.25944
21
-4.53748
0
LINE
8
BLACK
6
CONTINUOUS
10
5.25944
20
-4.53748
11
5.26015
21
-4.538
0
LINE
8
BLACK
6
CONTINUOUS
10
5.26015
20
-4.538
11
5.26021
21
-4.53803
0
LINE
8
BLACK
6
CONTINUOUS
10
5.26021
20
-4.53803
11
5.26208
21
-4.5399
0
LINE
8
BLACK
6
CONTINUOUS
10
5.26208
20
-4.5399
11
5.26259
21
-4.54063
0
LINE
8
BLACK
6
CONTINUOUS
10
5.26259
20
-4.54063
11
5.26263
21
-4.54067
0
LINE
8
BLACK
6
CONTINUOUS
10
5.26263
20
-4.54067
11
5.26451
21
-4.54442
0
LINE
8
BLACK
6
CONTINUOUS
10
5.26451
20
-4.54442
11
5.2648
21
-4.5454
0
LINE
8
BLACK
6
CONTINUOUS
10
5.2648
20
-4.5454
11
5.26476
21
-4.54557
0
LINE
8
BLACK
6
CONTINUOUS
10
5.26476
20
-4.54557
11
5.26482
21
-4.54574
0
LINE
8
BLACK
6
CONTINUOUS
10
5.26482
20
-4.54574
11
5.26482
21
-4.55511
0
LINE
8
BLACK
6
CONTINUOUS
10
5.26482
20
-4.55511
11
5.26464
21
-4.55612
0
LINE
8
BLACK
6
CONTINUOUS
10
5.26464
20
-4.55612
11
5.26453
21
-4.55626
0
LINE
8
BLACK
6
CONTINUOUS
10
5.26453
20
-4.55626
11
5.26451
21
-4.55643
0
LINE
8
BLACK
6
CONTINUOUS
10
5.26451
20
-4.55643
11
5.26263
21
-4.56018
0
LINE
8
BLACK
6
CONTINUOUS
10
5.26263
20
-4.56018
11
5.26211
21
-4.56089
0
LINE
8
BLACK
6
CONTINUOUS
10
5.26211
20
-4.56089
11
5.26208
21
-4.56095
0
LINE
8
BLACK
6
CONTINUOUS
10
5.26208
20
-4.56095
11
5.26021
21
-4.56283
0
LINE
8
BLACK
6
CONTINUOUS
10
5.26021
20
-4.56283
11
5.25948
21
-4.56333
0
LINE
8
BLACK
6
CONTINUOUS
10
5.25948
20
-4.56333
11
5.25944
21
-4.56338
0
LINE
8
BLACK
6
CONTINUOUS
10
5.25944
20
-4.56338
11
5.25569
21
-4.56525
0
LINE
8
BLACK
6
CONTINUOUS
10
5.25569
20
-4.56525
11
5.25471
21
-4.56555
0
LINE
8
BLACK
6
CONTINUOUS
10
5.25471
20
-4.56555
11
5.25453
21
-4.56551
0
LINE
8
BLACK
6
CONTINUOUS
10
5.25453
20
-4.56551
11
5.25437
21
-4.56557
0
LINE
8
BLACK
6
CONTINUOUS
10
5.25437
20
-4.56557
11
5.24312
21
-4.56557
0
LINE
8
BLACK
6
CONTINUOUS
10
5.24312
20
-4.56557
11
5.24211
21
-4.56539
0
LINE
8
BLACK
6
CONTINUOUS
10
5.24211
20
-4.56539
11
5.24197
21
-4.56527
0
LINE
8
BLACK
6
CONTINUOUS
10
5.24197
20
-4.56527
11
5.2418
21
-4.56525
0
LINE
8
BLACK
6
CONTINUOUS
10
5.2418
20
-4.56525
11
5.23805
21
-4.56338
0
LINE
8
BLACK
6
CONTINUOUS
10
5.23805
20
-4.56338
11
5.23734
21
-4.56285
0
LINE
8
BLACK
6
CONTINUOUS
10
5.23734
20
-4.56285
11
5.23728
21
-4.56283
0
LINE
8
BLACK
6
CONTINUOUS
10
5.23728
20
-4.56283
11
5.23541
21
-4.56095
0
LINE
8
BLACK
6
CONTINUOUS
10
5.23541
20
-4.56095
11
5.23482
21
-4.56011
0
LINE
8
BLACK
6
CONTINUOUS
10
5.23482
20
-4.56011
11
5.23464
21
-4.5581
0
LINE
8
BLACK
6
CONTINUOUS
10
5.23464
20
-4.5581
11
5.2358
21
-4.55645
0
LINE
8
BLACK
6
CONTINUOUS
10
5.2358
20
-4.55645
11
5.23775
21
-4.55592
0
LINE
8
BLACK
6
CONTINUOUS
10
5.23775
20
-4.55592
11
5.23958
21
-4.55678
0
LINE
8
BLACK
6
CONTINUOUS
10
5.23958
20
-4.55678
11
5.24112
21
-4.55831
0
LINE
8
BLACK
6
CONTINUOUS
10
5.24112
20
-4.55831
11
5.24382
21
-4.55966
0
LINE
8
BLACK
6
CONTINUOUS
10
5.24382
20
-4.55966
11
5.25367
21
-4.55966
0
LINE
8
BLACK
6
CONTINUOUS
10
5.25367
20
-4.55966
11
5.25637
21
-4.55831
0
LINE
8
BLACK
6
CONTINUOUS
10
5.25637
20
-4.55831
11
5.25757
21
-4.55711
0
LINE
8
BLACK
6
CONTINUOUS
10
5.25757
20
-4.55711
11
5.25891
21
-4.55442
0
LINE
8
BLACK
6
CONTINUOUS
10
5.25891
20
-4.55442
11
5.25891
21
-4.54644
0
LINE
8
BLACK
6
CONTINUOUS
10
5.25891
20
-4.54644
11
5.25757
21
-4.54374
0
LINE
8
BLACK
6
CONTINUOUS
10
5.25757
20
-4.54374
11
5.25637
21
-4.54254
0
LINE
8
BLACK
6
CONTINUOUS
10
5.25637
20
-4.54254
11
5.25367
21
-4.54119
0
LINE
8
BLACK
6
CONTINUOUS
10
5.25367
20
-4.54119
11
5.24874
21
-4.54119
0
LINE
8
BLACK
6
CONTINUOUS
10
5.24874
20
-4.54119
11
5.24831
21
-4.54112
0
LINE
8
BLACK
6
CONTINUOUS
10
5.24831
20
-4.54112
11
5.24817
21
-4.54114
0
LINE
8
BLACK
6
CONTINUOUS
10
5.24817
20
-4.54114
11
5.24807
21
-4.54107
0
LINE
8
BLACK
6
CONTINUOUS
10
5.24807
20
-4.54107
11
5.24773
21
-4.54102
0
LINE
8
BLACK
6
CONTINUOUS
10
5.24773
20
-4.54102
11
5.24712
21
-4.5405
0
LINE
8
BLACK
6
CONTINUOUS
10
5.24712
20
-4.5405
11
5.24644
21
-4.54009
0
LINE
8
BLACK
6
CONTINUOUS
10
5.24644
20
-4.54009
11
5.24637
21
-4.53987
0
LINE
8
BLACK
6
CONTINUOUS
10
5.24637
20
-4.53987
11
5.24619
21
-4.53972
0
LINE
8
BLACK
6
CONTINUOUS
10
5.24619
20
-4.53972
11
5.24605
21
-4.53893
0
LINE
8
BLACK
6
CONTINUOUS
10
5.24605
20
-4.53893
11
5.24579
21
-4.53818
0
LINE
8
BLACK
6
CONTINUOUS
10
5.24579
20
-4.53818
11
5.24588
21
-4.53796
0
LINE
8
BLACK
6
CONTINUOUS
10
5.24588
20
-4.53796
11
5.24584
21
-4.53773
0
LINE
8
BLACK
6
CONTINUOUS
10
5.24584
20
-4.53773
11
5.24623
21
-4.53704
0
LINE
8
BLACK
6
CONTINUOUS
10
5.24623
20
-4.53704
11
5.24652
21
-4.5363
0
LINE
8
BLACK
6
CONTINUOUS
10
5.24652
20
-4.5363
11
5.25536
21
-4.5262
0
LINE
8
BLACK
6
CONTINUOUS
10
5.25536
20
-4.5262
11
5.2375
21
-4.5262
0
LINE
8
BLACK
6
CONTINUOUS
10
5.2375
20
-4.5262
11
5.23649
21
-4.52602
0
LINE
8
BLACK
6
CONTINUOUS
10
5.23649
20
-4.52602
11
5.23494
21
-4.52472
0
LINE
8
BLACK
6
CONTINUOUS
10
5.23494
20
-4.52472
11
5.23459
21
-4.52273
0
LINE
8
BLACK
6
CONTINUOUS
10
5.23459
20
-4.52273
11
5.2356
21
-4.52098
0
LINE
8
BLACK
6
CONTINUOUS
10
5.2356
20
-4.52098
11
5.2375
21
-4.52029
0
LINE
8
BLACK
6
CONTINUOUS
10
5.2375
20
-4.52029
11
5.26187
21
-4.52029
0
LINE
8
BLACK
6
CONTINUOUS
10
5.26187
20
-4.52029
11
5.2623
21
-4.52037
0
LINE
8
BLACK
6
CONTINUOUS
10
5.16539
20
-4.53359
11
5.16552
21
-4.53371
0
LINE
8
BLACK
6
CONTINUOUS
10
5.16552
20
-4.53371
11
5.1657
21
-4.53373
0
LINE
8
BLACK
6
CONTINUOUS
10
5.1657
20
-4.53373
11
5.16945
21
-4.5356
0
LINE
8
BLACK
6
CONTINUOUS
10
5.16945
20
-4.5356
11
5.17027
21
-4.53621
0
LINE
8
BLACK
6
CONTINUOUS
10
5.17027
20
-4.53621
11
5.17045
21
-4.53662
0
LINE
8
BLACK
6
CONTINUOUS
10
5.17045
20
-4.53662
11
5.17077
21
-4.53692
0
LINE
8
BLACK
6
CONTINUOUS
10
5.17077
20
-4.53692
11
5.17264
21
-4.54067
0
LINE
8
BLACK
6
CONTINUOUS
10
5.17264
20
-4.54067
11
5.17294
21
-4.54165
0
LINE
8
BLACK
6
CONTINUOUS
10
5.17294
20
-4.54165
11
5.1729
21
-4.54183
0
LINE
8
BLACK
6
CONTINUOUS
10
5.1729
20
-4.54183
11
5.17296
21
-4.54199
0
LINE
8
BLACK
6
CONTINUOUS
10
5.17296
20
-4.54199
11
5.17296
21
-4.54574
0
LINE
8
BLACK
6
CONTINUOUS
10
5.17296
20
-4.54574
11
5.17278
21
-4.54675
0
LINE
8
BLACK
6
CONTINUOUS
10
5.17278
20
-4.54675
11
5.17246
21
-4.54712
0
LINE
8
BLACK
6
CONTINUOUS
10
5.17246
20
-4.54712
11
5.17231
21
-4.54759
0
LINE
8
BLACK
6
CONTINUOUS
10
5.17231
20
-4.54759
11
5.17184
21
-4.54787
0
LINE
8
BLACK
6
CONTINUOUS
10
5.17184
20
-4.54787
11
5.17148
21
-4.5483
0
LINE
8
BLACK
6
CONTINUOUS
10
5.17148
20
-4.5483
11
5.171
21
-4.54838
0
LINE
8
BLACK
6
CONTINUOUS
10
5.171
20
-4.54838
11
5.17058
21
-4.54864
0
LINE
8
BLACK
6
CONTINUOUS
10
5.17058
20
-4.54864
11
5.15421
21
-4.55191
0
LINE
8
BLACK
6
CONTINUOUS
10
5.15421
20
-4.55191
11
5.15421
21
-4.55629
0
LINE
8
BLACK
6
CONTINUOUS
10
5.15421
20
-4.55629
11
5.15533
21
-4.55854
0
LINE
8
BLACK
6
CONTINUOUS
10
5.15533
20
-4.55854
11
5.15758
21
-4.55966
0
LINE
8
BLACK
6
CONTINUOUS
10
5.15758
20
-4.55966
11
5.16368
21
-4.55966
0
LINE
8
BLACK
6
CONTINUOUS
10
5.16368
20
-4.55966
11
5.16681
21
-4.5581
0
LINE
8
BLACK
6
CONTINUOUS
10
5.16681
20
-4.5581
11
5.16779
21
-4.55781
0
LINE
8
BLACK
6
CONTINUOUS
10
5.16779
20
-4.55781
11
5.16976
21
-4.55827
0
LINE
8
BLACK
6
CONTINUOUS
10
5.16976
20
-4.55827
11
5.17096
21
-4.5599
0
LINE
8
BLACK
6
CONTINUOUS
10
5.17096
20
-4.5599
11
5.17084
21
-4.56191
0
LINE
8
BLACK
6
CONTINUOUS
10
5.17084
20
-4.56191
11
5.16945
21
-4.56338
0
LINE
8
BLACK
6
CONTINUOUS
10
5.16945
20
-4.56338
11
5.1657
21
-4.56525
0
LINE
8
BLACK
6
CONTINUOUS
10
5.1657
20
-4.56525
11
5.16472
21
-4.56555
0
LINE
8
BLACK
6
CONTINUOUS
10
5.16472
20
-4.56555
11
5.16455
21
-4.56551
0
LINE
8
BLACK
6
CONTINUOUS
10
5.16455
20
-4.56551
11
5.16438
21
-4.56557
0
LINE
8
BLACK
6
CONTINUOUS
10
5.16438
20
-4.56557
11
5.15688
21
-4.56557
0
LINE
8
BLACK
6
CONTINUOUS
10
5.15688
20
-4.56557
11
5.15587
21
-4.56539
0
LINE
8
BLACK
6
CONTINUOUS
10
5.15587
20
-4.56539
11
5.15574
21
-4.56527
0
LINE
8
BLACK
6
CONTINUOUS
10
5.15574
20
-4.56527
11
5.15556
21
-4.56525
0
LINE
8
BLACK
6
CONTINUOUS
10
5.15556
20
-4.56525
11
5.15181
21
-4.56338
0
LINE
8
BLACK
6
CONTINUOUS
10
5.15181
20
-4.56338
11
5.15099
21
-4.56277
0
LINE
8
BLACK
6
CONTINUOUS
10
5.15099
20
-4.56277
11
5.15081
21
-4.56236
0
LINE
8
BLACK
6
CONTINUOUS
10
5.15081
20
-4.56236
11
5.15049
21
-4.56206
0
LINE
8
BLACK
6
CONTINUOUS
10
5.15049
20
-4.56206
11
5.14862
21
-4.55831
0
LINE
8
BLACK
6
CONTINUOUS
10
5.14862
20
-4.55831
11
5.14832
21
-4.55733
0
LINE
8
BLACK
6
CONTINUOUS
10
5.14832
20
-4.55733
11
5.14836
21
-4.55715
0
LINE
8
BLACK
6
CONTINUOUS
10
5.14836
20
-4.55715
11
5.1483
21
-4.55699
0
LINE
8
BLACK
6
CONTINUOUS
10
5.1483
20
-4.55699
11
5.1483
21
-4.54199
0
LINE
8
BLACK
6
CONTINUOUS
10
5.1483
20
-4.54199
11
5.14848
21
-4.54098
0
LINE
8
BLACK
6
CONTINUOUS
10
5.14848
20
-4.54098
11
5.14859
21
-4.54085
0
LINE
8
BLACK
6
CONTINUOUS
10
5.14859
20
-4.54085
11
5.14862
21
-4.54067
0
LINE
8
BLACK
6
CONTINUOUS
10
5.14862
20
-4.54067
11
5.15049
21
-4.53692
0
LINE
8
BLACK
6
CONTINUOUS
10
5.15049
20
-4.53692
11
5.1511
21
-4.5361
0
LINE
8
BLACK
6
CONTINUOUS
10
5.1511
20
-4.5361
11
5.15151
21
-4.53592
0
LINE
8
BLACK
6
CONTINUOUS
10
5.15151
20
-4.53592
11
5.15181
21
-4.5356
0
LINE
8
BLACK
6
CONTINUOUS
10
5.15181
20
-4.5356
11
5.15556
21
-4.53373
0
LINE
8
BLACK
6
CONTINUOUS
10
5.15556
20
-4.53373
11
5.15654
21
-4.53343
0
LINE
8
BLACK
6
CONTINUOUS
10
5.15654
20
-4.53343
11
5.15671
21
-4.53347
0
LINE
8
BLACK
6
CONTINUOUS
10
5.15671
20
-4.53347
11
5.15688
21
-4.53341
0
LINE
8
BLACK
6
CONTINUOUS
10
5.15688
20
-4.53341
11
5.16438
21
-4.53341
0
LINE
8
BLACK
6
CONTINUOUS
10
5.16438
20
-4.53341
11
5.16539
21
-4.53359
0
LINE
8
BLACK
6
CONTINUOUS
10
5.15758
20
-4.53932
11
5.15533
21
-4.54044
0
LINE
8
BLACK
6
CONTINUOUS
10
5.15533
20
-4.54044
11
5.15421
21
-4.54269
0
LINE
8
BLACK
6
CONTINUOUS
10
5.15421
20
-4.54269
11
5.15421
21
-4.54589
0
LINE
8
BLACK
6
CONTINUOUS
10
5.15421
20
-4.54589
11
5.16705
21
-4.54332
0
LINE
8
BLACK
6
CONTINUOUS
10
5.16705
20
-4.54332
11
5.16705
21
-4.54269
0
LINE
8
BLACK
6
CONTINUOUS
10
5.16705
20
-4.54269
11
5.16593
21
-4.54044
0
LINE
8
BLACK
6
CONTINUOUS
10
5.16593
20
-4.54044
11
5.16368
21
-4.53932
0
LINE
8
BLACK
6
CONTINUOUS
10
5.16368
20
-4.53932
11
5.15758
21
-4.53932
0
LINE
8
BLACK
6
CONTINUOUS
10
5.47473
20
-4.53359
11
5.47486
21
-4.53371
0
LINE
8
BLACK
6
CONTINUOUS
10
5.47486
20
-4.53371
11
5.47504
21
-4.53373
0
LINE
8
BLACK
6
CONTINUOUS
10
5.47504
20
-4.53373
11
5.47879
21
-4.5356
0
LINE
8
BLACK
6
CONTINUOUS
10
5.47879
20
-4.5356
11
5.47961
21
-4.53621
0
LINE
8
BLACK
6
CONTINUOUS
10
5.47961
20
-4.53621
11
5.47979
21
-4.53662
0
LINE
8
BLACK
6
CONTINUOUS
10
5.47979
20
-4.53662
11
5.48011
21
-4.53692
0
LINE
8
BLACK
6
CONTINUOUS
10
5.48011
20
-4.53692
11
5.48198
21
-4.54067
0
LINE
8
BLACK
6
CONTINUOUS
10
5.48198
20
-4.54067
11
5.48227
21
-4.54165
0
LINE
8
BLACK
6
CONTINUOUS
10
5.48227
20
-4.54165
11
5.48223
21
-4.54183
0
LINE
8
BLACK
6
CONTINUOUS
10
5.48223
20
-4.54183
11
5.48229
21
-4.54199
0
LINE
8
BLACK
6
CONTINUOUS
10
5.48229
20
-4.54199
11
5.48229
21
-4.54574
0
LINE
8
BLACK
6
CONTINUOUS
10
5.48229
20
-4.54574
11
5.48211
21
-4.54675
0
LINE
8
BLACK
6
CONTINUOUS
10
5.48211
20
-4.54675
11
5.4818
21
-4.54712
0
LINE
8
BLACK
6
CONTINUOUS
10
5.4818
20
-4.54712
11
5.48164
21
-4.54759
0
LINE
8
BLACK
6
CONTINUOUS
10
5.48164
20
-4.54759
11
5.48117
21
-4.54787
0
LINE
8
BLACK
6
CONTINUOUS
10
5.48117
20
-4.54787
11
5.48082
21
-4.5483
0
LINE
8
BLACK
6
CONTINUOUS
10
5.48082
20
-4.5483
11
5.48034
21
-4.54838
0
LINE
8
BLACK
6
CONTINUOUS
10
5.48034
20
-4.54838
11
5.47992
21
-4.54864
0
LINE
8
BLACK
6
CONTINUOUS
10
5.47992
20
-4.54864
11
5.46355
21
-4.55191
0
LINE
8
BLACK
6
CONTINUOUS
10
5.46355
20
-4.55191
11
5.46355
21
-4.55629
0
LINE
8
BLACK
6
CONTINUOUS
10
5.46355
20
-4.55629
11
5.46467
21
-4.55854
0
LINE
8
BLACK
6
CONTINUOUS
10
5.46467
20
-4.55854
11
5.46691
21
-4.55966
0
LINE
8
BLACK
6
CONTINUOUS
10
5.46691
20
-4.55966
11
5.47302
21
-4.55966
0
LINE
8
BLACK
6
CONTINUOUS
10
5.47302
20
-4.55966
11
5.47614
21
-4.5581
0
LINE
8
BLACK
6
CONTINUOUS
10
5.47614
20
-4.5581
11
5.47713
21
-4.55781
0
LINE
8
BLACK
6
CONTINUOUS
10
5.47713
20
-4.55781
11
5.47909
21
-4.55827
0
LINE
8
BLACK
6
CONTINUOUS
10
5.47909
20
-4.55827
11
5.4803
21
-4.5599
0
LINE
8
BLACK
6
CONTINUOUS
10
5.4803
20
-4.5599
11
5.48017
21
-4.56191
0
LINE
8
BLACK
6
CONTINUOUS
10
5.48017
20
-4.56191
11
5.47879
21
-4.56338
0
LINE
8
BLACK
6
CONTINUOUS
10
5.47879
20
-4.56338
11
5.47504
21
-4.56525
0
LINE
8
BLACK
6
CONTINUOUS
10
5.47504
20
-4.56525
11
5.47405
21
-4.56555
0
LINE
8
BLACK
6
CONTINUOUS
10
5.47405
20
-4.56555
11
5.47388
21
-4.56551
0
LINE
8
BLACK
6
CONTINUOUS
10
5.47388
20
-4.56551
11
5.47372
21
-4.56557
0
LINE
8
BLACK
6
CONTINUOUS
10
5.47372
20
-4.56557
11
5.46622
21
-4.56557
0
LINE
8
BLACK
6
CONTINUOUS
10
5.46622
20
-4.56557
11
5.46521
21
-4.56539
0
LINE
8
BLACK
6
CONTINUOUS
10
5.46521
20
-4.56539
11
5.46507
21
-4.56527
0
LINE
8
BLACK
6
CONTINUOUS
10
5.46507
20
-4.56527
11
5.4649
21
-4.56525
0
LINE
8
BLACK
6
CONTINUOUS
10
5.4649
20
-4.56525
11
5.46115
21
-4.56338
0
LINE
8
BLACK
6
CONTINUOUS
10
5.46115
20
-4.56338
11
5.46032
21
-4.56277
0
LINE
8
BLACK
6
CONTINUOUS
10
5.46032
20
-4.56277
11
5.46015
21
-4.56236
0
LINE
8
BLACK
6
CONTINUOUS
10
5.46015
20
-4.56236
11
5.45983
21
-4.56206
0
LINE
8
BLACK
6
CONTINUOUS
10
5.45983
20
-4.56206
11
5.45795
21
-4.55831
0
LINE
8
BLACK
6
CONTINUOUS
10
5.45795
20
-4.55831
11
5.45766
21
-4.55733
0
LINE
8
BLACK
6
CONTINUOUS
10
5.45766
20
-4.55733
11
5.4577
21
-4.55715
0
LINE
8
BLACK
6
CONTINUOUS
10
5.4577
20
-4.55715
11
5.45764
21
-4.55699
0
LINE
8
BLACK
6
CONTINUOUS
10
5.45764
20
-4.55699
11
5.45764
21
-4.54199
0
LINE
8
BLACK
6
CONTINUOUS
10
5.45764
20
-4.54199
11
5.45782
21
-4.54098
0
LINE
8
BLACK
6
CONTINUOUS
10
5.45782
20
-4.54098
11
5.45793
21
-4.54085
0
LINE
8
BLACK
6
CONTINUOUS
10
5.45793
20
-4.54085
11
5.45795
21
-4.54067
0
LINE
8
BLACK
6
CONTINUOUS
10
5.45795
20
-4.54067
11
5.45983
21
-4.53692
0
LINE
8
BLACK
6
CONTINUOUS
10
5.45983
20
-4.53692
11
5.46044
21
-4.5361
0
LINE
8
BLACK
6
CONTINUOUS
10
5.46044
20
-4.5361
11
5.46084
21
-4.53592
0
LINE
8
BLACK
6
CONTINUOUS
10
5.46084
20
-4.53592
11
5.46115
21
-4.5356
0
LINE
8
BLACK
6
CONTINUOUS
10
5.46115
20
-4.5356
11
5.4649
21
-4.53373
0
LINE
8
BLACK
6
CONTINUOUS
10
5.4649
20
-4.53373
11
5.46588
21
-4.53343
0
LINE
8
BLACK
6
CONTINUOUS
10
5.46588
20
-4.53343
11
5.46605
21
-4.53347
0
LINE
8
BLACK
6
CONTINUOUS
10
5.46605
20
-4.53347
11
5.46622
21
-4.53341
0
LINE
8
BLACK
6
CONTINUOUS
10
5.46622
20
-4.53341
11
5.47372
21
-4.53341
0
LINE
8
BLACK
6
CONTINUOUS
10
5.47372
20
-4.53341
11
5.47473
21
-4.53359
0
LINE
8
BLACK
6
CONTINUOUS
10
5.46691
20
-4.53932
11
5.46467
21
-4.54044
0
LINE
8
BLACK
6
CONTINUOUS
10
5.46467
20
-4.54044
11
5.46355
21
-4.54269
0
LINE
8
BLACK
6
CONTINUOUS
10
5.46355
20
-4.54269
11
5.46355
21
-4.54589
0
LINE
8
BLACK
6
CONTINUOUS
10
5.46355
20
-4.54589
11
5.47639
21
-4.54332
0
LINE
8
BLACK
6
CONTINUOUS
10
5.47639
20
-4.54332
11
5.47639
21
-4.54269
0
LINE
8
BLACK
6
CONTINUOUS
10
5.47639
20
-4.54269
11
5.47526
21
-4.54044
0
LINE
8
BLACK
6
CONTINUOUS
10
5.47526
20
-4.54044
11
5.47302
21
-4.53932
0
LINE
8
BLACK
6
CONTINUOUS
10
5.47302
20
-4.53932
11
5.46691
21
-4.53932
0
LINE
8
BLACK
6
CONTINUOUS
10
4.82779
20
-4.52044
11
4.82786
21
-4.52044
0
LINE
8
BLACK
6
CONTINUOUS
10
4.82786
20
-4.52044
11
4.83348
21
-4.52232
0
LINE
8
BLACK
6
CONTINUOUS
10
4.83348
20
-4.52232
11
4.83438
21
-4.52281
0
LINE
8
BLACK
6
CONTINUOUS
10
4.83438
20
-4.52281
11
4.83544
21
-4.52453
0
LINE
8
BLACK
6
CONTINUOUS
10
4.83544
20
-4.52453
11
4.83514
21
-4.52652
0
LINE
8
BLACK
6
CONTINUOUS
10
4.83514
20
-4.52652
11
4.83363
21
-4.52786
0
LINE
8
BLACK
6
CONTINUOUS
10
4.83363
20
-4.52786
11
4.83161
21
-4.52792
0
LINE
8
BLACK
6
CONTINUOUS
10
4.83161
20
-4.52792
11
4.82644
21
-4.5262
0
LINE
8
BLACK
6
CONTINUOUS
10
4.82644
20
-4.5262
11
4.81824
21
-4.5262
0
LINE
8
BLACK
6
CONTINUOUS
10
4.81824
20
-4.5262
11
4.81555
21
-4.52754
0
LINE
8
BLACK
6
CONTINUOUS
10
4.81555
20
-4.52754
11
4.81435
21
-4.52874
0
LINE
8
BLACK
6
CONTINUOUS
10
4.81435
20
-4.52874
11
4.813
21
-4.53144
0
LINE
8
BLACK
6
CONTINUOUS
10
4.813
20
-4.53144
11
4.813
21
-4.53379
0
LINE
8
BLACK
6
CONTINUOUS
10
4.813
20
-4.53379
11
4.81435
21
-4.53649
0
LINE
8
BLACK
6
CONTINUOUS
10
4.81435
20
-4.53649
11
4.81555
21
-4.53769
0
LINE
8
BLACK
6
CONTINUOUS
10
4.81555
20
-4.53769
11
4.81858
21
-4.5392
0
LINE
8
BLACK
6
CONTINUOUS
10
4.81858
20
-4.5392
11
4.82576
21
-4.541
0
LINE
8
BLACK
6
CONTINUOUS
10
4.82576
20
-4.541
11
4.82623
21
-4.54121
0
LINE
8
BLACK
6
CONTINUOUS
10
4.82623
20
-4.54121
11
4.82637
21
-4.54122
0
LINE
8
BLACK
6
CONTINUOUS
10
4.82637
20
-4.54122
11
4.83012
21
-4.5431
0
LINE
8
BLACK
6
CONTINUOUS
10
4.83012
20
-4.5431
11
4.83083
21
-4.54363
0
LINE
8
BLACK
6
CONTINUOUS
10
4.83083
20
-4.54363
11
4.83088
21
-4.54365
0
LINE
8
BLACK
6
CONTINUOUS
10
4.83088
20
-4.54365
11
4.83276
21
-4.54553
0
LINE
8
BLACK
6
CONTINUOUS
10
4.83276
20
-4.54553
11
4.83327
21
-4.54625
0
LINE
8
BLACK
6
CONTINUOUS
10
4.83327
20
-4.54625
11
4.83331
21
-4.54629
0
LINE
8
BLACK
6
CONTINUOUS
10
4.83331
20
-4.54629
11
4.83519
21
-4.55004
0
LINE
8
BLACK
6
CONTINUOUS
10
4.83519
20
-4.55004
11
4.83548
21
-4.55103
0
LINE
8
BLACK
6
CONTINUOUS
10
4.83548
20
-4.55103
11
4.83544
21
-4.5512
0
LINE
8
BLACK
6
CONTINUOUS
10
4.83544
20
-4.5512
11
4.8355
21
-4.55136
0
LINE
8
BLACK
6
CONTINUOUS
10
4.8355
20
-4.55136
11
4.8355
21
-4.55511
0
LINE
8
BLACK
6
CONTINUOUS
10
4.8355
20
-4.55511
11
4.83532
21
-4.55612
0
LINE
8
BLACK
6
CONTINUOUS
10
4.83532
20
-4.55612
11
4.83521
21
-4.55626
0
LINE
8
BLACK
6
CONTINUOUS
10
4.83521
20
-4.55626
11
4.83519
21
-4.55643
0
LINE
8
BLACK
6
CONTINUOUS
10
4.83519
20
-4.55643
11
4.83331
21
-4.56018
0
LINE
8
BLACK
6
CONTINUOUS
10
4.83331
20
-4.56018
11
4.83279
21
-4.56089
0
LINE
8
BLACK
6
CONTINUOUS
10
4.83279
20
-4.56089
11
4.83276
21
-4.56095
0
LINE
8
BLACK
6
CONTINUOUS
10
4.83276
20
-4.56095
11
4.83088
21
-4.56283
0
LINE
8
BLACK
6
CONTINUOUS
10
4.83088
20
-4.56283
11
4.83016
21
-4.56333
0
LINE
8
BLACK
6
CONTINUOUS
10
4.83016
20
-4.56333
11
4.83012
21
-4.56338
0
LINE
8
BLACK
6
CONTINUOUS
10
4.83012
20
-4.56338
11
4.82637
21
-4.56525
0
LINE
8
BLACK
6
CONTINUOUS
10
4.82637
20
-4.56525
11
4.82538
21
-4.56555
0
LINE
8
BLACK
6
CONTINUOUS
10
4.82538
20
-4.56555
11
4.82521
21
-4.56551
0
LINE
8
BLACK
6
CONTINUOUS
10
4.82521
20
-4.56551
11
4.82505
21
-4.56557
0
LINE
8
BLACK
6
CONTINUOUS
10
4.82505
20
-4.56557
11
4.81567
21
-4.56557
0
LINE
8
BLACK
6
CONTINUOUS
10
4.81567
20
-4.56557
11
4.8148
21
-4.56541
0
LINE
8
BLACK
6
CONTINUOUS
10
4.8148
20
-4.56541
11
4.81474
21
-4.56541
0
LINE
8
BLACK
6
CONTINUOUS
10
4.81474
20
-4.56541
11
4.80912
21
-4.56354
0
LINE
8
BLACK
6
CONTINUOUS
10
4.80912
20
-4.56354
11
4.80821
21
-4.56305
0
LINE
8
BLACK
6
CONTINUOUS
10
4.80821
20
-4.56305
11
4.80716
21
-4.56133
0
LINE
8
BLACK
6
CONTINUOUS
10
4.80716
20
-4.56133
11
4.80745
21
-4.55933
0
LINE
8
BLACK
6
CONTINUOUS
10
4.80745
20
-4.55933
11
4.80896
21
-4.55799
0
LINE
8
BLACK
6
CONTINUOUS
10
4.80896
20
-4.55799
11
4.81098
21
-4.55794
0
LINE
8
BLACK
6
CONTINUOUS
10
4.81098
20
-4.55794
11
4.81615
21
-4.55966
0
LINE
8
BLACK
6
CONTINUOUS
10
4.81615
20
-4.55966
11
4.82435
21
-4.55966
0
LINE
8
BLACK
6
CONTINUOUS
10
4.82435
20
-4.55966
11
4.82705
21
-4.55831
0
LINE
8
BLACK
6
CONTINUOUS
10
4.82705
20
-4.55831
11
4.82824
21
-4.55711
0
LINE
8
BLACK
6
CONTINUOUS
10
4.82824
20
-4.55711
11
4.82959
21
-4.55442
0
LINE
8
BLACK
6
CONTINUOUS
10
4.82959
20
-4.55442
11
4.82959
21
-4.55206
0
LINE
8
BLACK
6
CONTINUOUS
10
4.82959
20
-4.55206
11
4.82824
21
-4.54936
0
LINE
8
BLACK
6
CONTINUOUS
10
4.82824
20
-4.54936
11
4.82705
21
-4.54817
0
LINE
8
BLACK
6
CONTINUOUS
10
4.82705
20
-4.54817
11
4.82402
21
-4.54665
0
LINE
8
BLACK
6
CONTINUOUS
10
4.82402
20
-4.54665
11
4.81683
21
-4.54486
0
LINE
8
BLACK
6
CONTINUOUS
10
4.81683
20
-4.54486
11
4.81637
21
-4.54465
0
LINE
8
BLACK
6
CONTINUOUS
10
4.81637
20
-4.54465
11
4.81623
21
-4.54463
0
LINE
8
BLACK
6
CONTINUOUS
10
4.81623
20
-4.54463
11
4.81248
21
-4.54276
0
LINE
8
BLACK
6
CONTINUOUS
10
4.81248
20
-4.54276
11
4.81177
21
-4.54223
0
LINE
8
BLACK
6
CONTINUOUS
10
4.81177
20
-4.54223
11
4.81171
21
-4.5422
0
LINE
8
BLACK
6
CONTINUOUS
10
4.81171
20
-4.5422
11
4.80984
21
-4.54033
0
LINE
8
BLACK
6
CONTINUOUS
10
4.80984
20
-4.54033
11
4.80933
21
-4.53961
0
LINE
8
BLACK
6
CONTINUOUS
10
4.80933
20
-4.53961
11
4.80928
21
-4.53956
0
LINE
8
BLACK
6
CONTINUOUS
10
4.80928
20
-4.53956
11
4.80741
21
-4.53581
0
LINE
8
BLACK
6
CONTINUOUS
10
4.80741
20
-4.53581
11
4.80712
21
-4.53483
0
LINE
8
BLACK
6
CONTINUOUS
10
4.80712
20
-4.53483
11
4.80716
21
-4.53466
0
LINE
8
BLACK
6
CONTINUOUS
10
4.80716
20
-4.53466
11
4.8071
21
-4.53449
0
LINE
8
BLACK
6
CONTINUOUS
10
4.8071
20
-4.53449
11
4.8071
21
-4.53074
0
LINE
8
BLACK
6
CONTINUOUS
10
4.8071
20
-4.53074
11
4.80727
21
-4.52973
0
LINE
8
BLACK
6
CONTINUOUS
10
4.80727
20
-4.52973
11
4.80739
21
-4.5296
0
LINE
8
BLACK
6
CONTINUOUS
10
4.80739
20
-4.5296
11
4.80741
21
-4.52942
0
LINE
8
BLACK
6
CONTINUOUS
10
4.80741
20
-4.52942
11
4.80928
21
-4.52567
0
LINE
8
BLACK
6
CONTINUOUS
10
4.80928
20
-4.52567
11
4.80981
21
-4.52496
0
LINE
8
BLACK
6
CONTINUOUS
10
4.80981
20
-4.52496
11
4.80984
21
-4.5249
0
LINE
8
BLACK
6
CONTINUOUS
10
4.80984
20
-4.5249
11
4.81171
21
-4.52303
0
LINE
8
BLACK
6
CONTINUOUS
10
4.81171
20
-4.52303
11
4.81243
21
-4.52252
0
LINE
8
BLACK
6
CONTINUOUS
10
4.81243
20
-4.52252
11
4.81248
21
-4.52248
0
LINE
8
BLACK
6
CONTINUOUS
10
4.81248
20
-4.52248
11
4.81623
21
-4.5206
0
LINE
8
BLACK
6
CONTINUOUS
10
4.81623
20
-4.5206
11
4.81721
21
-4.52031
0
LINE
8
BLACK
6
CONTINUOUS
10
4.81721
20
-4.52031
11
4.81738
21
-4.52035
0
LINE
8
BLACK
6
CONTINUOUS
10
4.81738
20
-4.52035
11
4.81755
21
-4.52029
0
LINE
8
BLACK
6
CONTINUOUS
10
4.81755
20
-4.52029
11
4.82692
21
-4.52029
0
LINE
8
BLACK
6
CONTINUOUS
10
4.82692
20
-4.52029
11
4.82779
21
-4.52044
0
LINE
8
BLACK
6
CONTINUOUS
10
5.58346
20
-4.52047
11
5.5836
21
-4.52058
0
LINE
8
BLACK
6
CONTINUOUS
10
5.5836
20
-4.52058
11
5.58377
21
-4.5206
0
LINE
8
BLACK
6
CONTINUOUS
10
5.58377
20
-4.5206
11
5.58752
21
-4.52248
0
LINE
8
BLACK
6
CONTINUOUS
10
5.58752
20
-4.52248
11
5.58823
21
-4.523
0
LINE
8
BLACK
6
CONTINUOUS
10
5.58823
20
-4.523
11
5.58829
21
-4.52303
0
LINE
8
BLACK
6
CONTINUOUS
10
5.58829
20
-4.52303
11
5.59016
21
-4.5249
0
LINE
8
BLACK
6
CONTINUOUS
10
5.59016
20
-4.5249
11
5.59067
21
-4.52563
0
LINE
8
BLACK
6
CONTINUOUS
10
5.59067
20
-4.52563
11
5.59072
21
-4.52567
0
LINE
8
BLACK
6
CONTINUOUS
10
5.59072
20
-4.52567
11
5.59259
21
-4.52942
0
LINE
8
BLACK
6
CONTINUOUS
10
5.59259
20
-4.52942
11
5.59288
21
-4.5304
0
LINE
8
BLACK
6
CONTINUOUS
10
5.59288
20
-4.5304
11
5.59284
21
-4.53058
0
LINE
8
BLACK
6
CONTINUOUS
10
5.59284
20
-4.53058
11
5.5929
21
-4.53074
0
LINE
8
BLACK
6
CONTINUOUS
10
5.5929
20
-4.53074
11
5.5929
21
-4.53449
0
LINE
8
BLACK
6
CONTINUOUS
10
5.5929
20
-4.53449
11
5.59275
21
-4.53536
0
LINE
8
BLACK
6
CONTINUOUS
10
5.59275
20
-4.53536
11
5.59275
21
-4.53543
0
LINE
8
BLACK
6
CONTINUOUS
10
5.59275
20
-4.53543
11
5.59088
21
-4.54105
0
LINE
8
BLACK
6
CONTINUOUS
10
5.59088
20
-4.54105
11
5.59039
21
-4.54195
0
LINE
8
BLACK
6
CONTINUOUS
10
5.59039
20
-4.54195
11
5.59024
21
-4.54204
0
LINE
8
BLACK
6
CONTINUOUS
10
5.59024
20
-4.54204
11
5.59016
21
-4.5422
0
LINE
8
BLACK
6
CONTINUOUS
10
5.59016
20
-4.5422
11
5.57271
21
-4.55966
0
LINE
8
BLACK
6
CONTINUOUS
10
5.57271
20
-4.55966
11
5.58995
21
-4.55966
0
LINE
8
BLACK
6
CONTINUOUS
10
5.58995
20
-4.55966
11
5.59096
21
-4.55984
0
LINE
8
BLACK
6
CONTINUOUS
10
5.59096
20
-4.55984
11
5.59251
21
-4.56114
0
LINE
8
BLACK
6
CONTINUOUS
10
5.59251
20
-4.56114
11
5.59286
21
-4.56313
0
LINE
8
BLACK
6
CONTINUOUS
10
5.59286
20
-4.56313
11
5.59185
21
-4.56488
0
LINE
8
BLACK
6
CONTINUOUS
10
5.59185
20
-4.56488
11
5.58995
21
-4.56557
0
LINE
8
BLACK
6
CONTINUOUS
10
5.58995
20
-4.56557
11
5.56558
21
-4.56557
0
LINE
8
BLACK
6
CONTINUOUS
10
5.56558
20
-4.56557
11
5.56494
21
-4.56545
0
LINE
8
BLACK
6
CONTINUOUS
10
5.56494
20
-4.56545
11
5.56482
21
-4.56547
0
LINE
8
BLACK
6
CONTINUOUS
10
5.56482
20
-4.56547
11
5.56475
21
-4.56542
0
LINE
8
BLACK
6
CONTINUOUS
10
5.56475
20
-4.56542
11
5.56457
21
-4.56539
0
LINE
8
BLACK
6
CONTINUOUS
10
5.56457
20
-4.56539
11
5.56389
21
-4.56482
0
LINE
8
BLACK
6
CONTINUOUS
10
5.56389
20
-4.56482
11
5.56316
21
-4.56431
0
LINE
8
BLACK
6
CONTINUOUS
10
5.56316
20
-4.56431
11
5.56313
21
-4.56418
0
LINE
8
BLACK
6
CONTINUOUS
10
5.56313
20
-4.56418
11
5.56302
21
-4.56409
0
LINE
8
BLACK
6
CONTINUOUS
10
5.56302
20
-4.56409
11
5.56287
21
-4.56321
0
LINE
8
BLACK
6
CONTINUOUS
10
5.56287
20
-4.56321
11
5.56264
21
-4.56236
0
LINE
8
BLACK
6
CONTINUOUS
10
5.56264
20
-4.56236
11
5.56269
21
-4.56223
0
LINE
8
BLACK
6
CONTINUOUS
10
5.56269
20
-4.56223
11
5.56267
21
-4.5621
0
LINE
8
BLACK
6
CONTINUOUS
10
5.56267
20
-4.5621
11
5.56312
21
-4.56133
0
LINE
8
BLACK
6
CONTINUOUS
10
5.56312
20
-4.56133
11
5.56349
21
-4.56053
0
LINE
8
BLACK
6
CONTINUOUS
10
5.56349
20
-4.56053
11
5.5855
21
-4.53852
0
LINE
8
BLACK
6
CONTINUOUS
10
5.5855
20
-4.53852
11
5.587
21
-4.53401
0
LINE
8
BLACK
6
CONTINUOUS
10
5.587
20
-4.53401
11
5.587
21
-4.53144
0
LINE
8
BLACK
6
CONTINUOUS
10
5.587
20
-4.53144
11
5.58565
21
-4.52874
0
LINE
8
BLACK
6
CONTINUOUS
10
5.58565
20
-4.52874
11
5.58445
21
-4.52754
0
LINE
8
BLACK
6
CONTINUOUS
10
5.58445
20
-4.52754
11
5.58176
21
-4.5262
0
LINE
8
BLACK
6
CONTINUOUS
10
5.58176
20
-4.5262
11
5.57378
21
-4.5262
0
LINE
8
BLACK
6
CONTINUOUS
10
5.57378
20
-4.5262
11
5.57108
21
-4.52754
0
LINE
8
BLACK
6
CONTINUOUS
10
5.57108
20
-4.52754
11
5.56954
21
-4.52908
0
LINE
8
BLACK
6
CONTINUOUS
10
5.56954
20
-4.52908
11
5.5687
21
-4.52967
0
LINE
8
BLACK
6
CONTINUOUS
10
5.5687
20
-4.52967
11
5.56669
21
-4.52985
0
LINE
8
BLACK
6
CONTINUOUS
10
5.56669
20
-4.52985
11
5.56504
21
-4.52869
0
LINE
8
BLACK
6
CONTINUOUS
10
5.56504
20
-4.52869
11
5.56451
21
-4.52674
0
LINE
8
BLACK
6
CONTINUOUS
10
5.56451
20
-4.52674
11
5.56537
21
-4.5249
0
LINE
8
BLACK
6
CONTINUOUS
10
5.56537
20
-4.5249
11
5.56724
21
-4.52303
0
LINE
8
BLACK
6
CONTINUOUS
10
5.56724
20
-4.52303
11
5.56796
21
-4.52252
0
LINE
8
BLACK
6
CONTINUOUS
10
5.56796
20
-4.52252
11
5.56801
21
-4.52248
0
LINE
8
BLACK
6
CONTINUOUS
10
5.56801
20
-4.52248
11
5.57176
21
-4.5206
0
LINE
8
BLACK
6
CONTINUOUS
10
5.57176
20
-4.5206
11
5.57274
21
-4.52031
0
LINE
8
BLACK
6
CONTINUOUS
10
5.57274
20
-4.52031
11
5.57291
21
-4.52035
0
LINE
8
BLACK
6
CONTINUOUS
10
5.57291
20
-4.52035
11
5.57308
21
-4.52029
0
LINE
8
BLACK
6
CONTINUOUS
10
5.57308
20
-4.52029
11
5.58245
21
-4.52029
0
LINE
8
BLACK
6
CONTINUOUS
10
5.58245
20
-4.52029
11
5.58346
21
-4.52047
0
LINE
8
BLACK
6
CONTINUOUS
10
5.37474
20
-4.53447
11
5.37543
21
-4.53637
0
LINE
8
BLACK
6
CONTINUOUS
10
5.37543
20
-4.53637
11
5.37543
21
-4.56261
0
LINE
8
BLACK
6
CONTINUOUS
10
5.37543
20
-4.56261
11
5.37525
21
-4.56362
0
LINE
8
BLACK
6
CONTINUOUS
10
5.37525
20
-4.56362
11
5.37395
21
-4.56517
0
LINE
8
BLACK
6
CONTINUOUS
10
5.37395
20
-4.56517
11
5.37197
21
-4.56552
0
LINE
8
BLACK
6
CONTINUOUS
10
5.37197
20
-4.56552
11
5.37022
21
-4.56451
0
LINE
8
BLACK
6
CONTINUOUS
10
5.37022
20
-4.56451
11
5.36953
21
-4.56261
0
LINE
8
BLACK
6
CONTINUOUS
10
5.36953
20
-4.56261
11
5.36953
21
-4.53637
0
LINE
8
BLACK
6
CONTINUOUS
10
5.36953
20
-4.53637
11
5.3697
21
-4.53536
0
LINE
8
BLACK
6
CONTINUOUS
10
5.3697
20
-4.53536
11
5.371
21
-4.53381
0
LINE
8
BLACK
6
CONTINUOUS
10
5.371
20
-4.53381
11
5.37299
21
-4.53346
0
LINE
8
BLACK
6
CONTINUOUS
10
5.37299
20
-4.53346
11
5.37474
21
-4.53447
0
LINE
8
BLACK
6
CONTINUOUS
10
5.36036
20
-4.53359
11
5.36191
21
-4.53489
0
LINE
8
BLACK
6
CONTINUOUS
10
5.36191
20
-4.53489
11
5.36226
21
-4.53688
0
LINE
8
BLACK
6
CONTINUOUS
10
5.36226
20
-4.53688
11
5.36125
21
-4.53863
0
LINE
8
BLACK
6
CONTINUOUS
10
5.36125
20
-4.53863
11
5.35936
21
-4.53932
0
LINE
8
BLACK
6
CONTINUOUS
10
5.35936
20
-4.53932
11
5.3563
21
-4.53932
0
LINE
8
BLACK
6
CONTINUOUS
10
5.3563
20
-4.53932
11
5.35361
21
-4.54067
0
LINE
8
BLACK
6
CONTINUOUS
10
5.35361
20
-4.54067
11
5.35241
21
-4.54187
0
LINE
8
BLACK
6
CONTINUOUS
10
5.35241
20
-4.54187
11
5.35106
21
-4.54456
0
LINE
8
BLACK
6
CONTINUOUS
10
5.35106
20
-4.54456
11
5.35106
21
-4.56261
0
LINE
8
BLACK
6
CONTINUOUS
10
5.35106
20
-4.56261
11
5.35088
21
-4.56362
0
LINE
8
BLACK
6
CONTINUOUS
10
5.35088
20
-4.56362
11
5.34958
21
-4.56517
0
LINE
8
BLACK
6
CONTINUOUS
10
5.34958
20
-4.56517
11
5.34759
21
-4.56552
0
LINE
8
BLACK
6
CONTINUOUS
10
5.34759
20
-4.56552
11
5.34584
21
-4.56451
0
LINE
8
BLACK
6
CONTINUOUS
10
5.34584
20
-4.56451
11
5.34515
21
-4.56261
0
LINE
8
BLACK
6
CONTINUOUS
10
5.34515
20
-4.56261
11
5.34515
21
-4.53637
0
LINE
8
BLACK
6
CONTINUOUS
10
5.34515
20
-4.53637
11
5.34533
21
-4.53536
0
LINE
8
BLACK
6
CONTINUOUS
10
5.34533
20
-4.53536
11
5.34663
21
-4.53381
0
LINE
8
BLACK
6
CONTINUOUS
10
5.34663
20
-4.53381
11
5.34862
21
-4.53346
0
LINE
8
BLACK
6
CONTINUOUS
10
5.34862
20
-4.53346
11
5.35037
21
-4.53447
0
LINE
8
BLACK
6
CONTINUOUS
10
5.35037
20
-4.53447
11
5.35074
21
-4.5355
0
LINE
8
BLACK
6
CONTINUOUS
10
5.35074
20
-4.5355
11
5.35428
21
-4.53373
0
LINE
8
BLACK
6
CONTINUOUS
10
5.35428
20
-4.53373
11
5.35527
21
-4.53343
0
LINE
8
BLACK
6
CONTINUOUS
10
5.35527
20
-4.53343
11
5.35544
21
-4.53347
0
LINE
8
BLACK
6
CONTINUOUS
10
5.35544
20
-4.53347
11
5.35561
21
-4.53341
0
LINE
8
BLACK
6
CONTINUOUS
10
5.35561
20
-4.53341
11
5.35936
21
-4.53341
0
LINE
8
BLACK
6
CONTINUOUS
10
5.35936
20
-4.53341
11
5.36036
21
-4.53359
0
LINE
8
BLACK
6
CONTINUOUS
10
4.98729
20
-4.53359
11
4.98883
21
-4.53489
0
LINE
8
BLACK
6
CONTINUOUS
10
4.98883
20
-4.53489
11
4.98918
21
-4.53688
0
LINE
8
BLACK
6
CONTINUOUS
10
4.98918
20
-4.53688
11
4.98817
21
-4.53863
0
LINE
8
BLACK
6
CONTINUOUS
10
4.98817
20
-4.53863
11
4.98628
21
-4.53932
0
LINE
8
BLACK
6
CONTINUOUS
10
4.98628
20
-4.53932
11
4.98322
21
-4.53932
0
LINE
8
BLACK
6
CONTINUOUS
10
4.98322
20
-4.53932
11
4.98053
21
-4.54067
0
LINE
8
BLACK
6
CONTINUOUS
10
4.98053
20
-4.54067
11
4.97933
21
-4.54187
0
LINE
8
BLACK
6
CONTINUOUS
10
4.97933
20
-4.54187
11
4.97798
21
-4.54456
0
LINE
8
BLACK
6
CONTINUOUS
10
4.97798
20
-4.54456
11
4.97798
21
-4.56261
0
LINE
8
BLACK
6
CONTINUOUS
10
4.97798
20
-4.56261
11
4.9778
21
-4.56362
0
LINE
8
BLACK
6
CONTINUOUS
10
4.9778
20
-4.56362
11
4.9765
21
-4.56517
0
LINE
8
BLACK
6
CONTINUOUS
10
4.9765
20
-4.56517
11
4.97452
21
-4.56552
0
LINE
8
BLACK
6
CONTINUOUS
10
4.97452
20
-4.56552
11
4.97277
21
-4.56451
0
LINE
8
BLACK
6
CONTINUOUS
10
4.97277
20
-4.56451
11
4.97208
21
-4.56261
0
LINE
8
BLACK
6
CONTINUOUS
10
4.97208
20
-4.56261
11
4.97208
21
-4.53637
0
LINE
8
BLACK
6
CONTINUOUS
10
4.97208
20
-4.53637
11
4.97225
21
-4.53536
0
LINE
8
BLACK
6
CONTINUOUS
10
4.97225
20
-4.53536
11
4.97355
21
-4.53381
0
LINE
8
BLACK
6
CONTINUOUS
10
4.97355
20
-4.53381
11
4.97554
21
-4.53346
0
LINE
8
BLACK
6
CONTINUOUS
10
4.97554
20
-4.53346
11
4.97729
21
-4.53447
0
LINE
8
BLACK
6
CONTINUOUS
10
4.97729
20
-4.53447
11
4.97766
21
-4.5355
0
LINE
8
BLACK
6
CONTINUOUS
10
4.97766
20
-4.5355
11
4.98121
21
-4.53373
0
LINE
8
BLACK
6
CONTINUOUS
10
4.98121
20
-4.53373
11
4.98219
21
-4.53343
0
LINE
8
BLACK
6
CONTINUOUS
10
4.98219
20
-4.53343
11
4.98236
21
-4.53347
0
LINE
8
BLACK
6
CONTINUOUS
10
4.98236
20
-4.53347
11
4.98253
21
-4.53341
0
LINE
8
BLACK
6
CONTINUOUS
10
4.98253
20
-4.53341
11
4.98628
21
-4.53341
0
LINE
8
BLACK
6
CONTINUOUS
10
4.98628
20
-4.53341
11
4.98729
21
-4.53359
0
LINE
8
BLACK
6
CONTINUOUS
10
5.07728
20
-4.53359
11
5.07741
21
-4.53371
0
LINE
8
BLACK
6
CONTINUOUS
10
5.07741
20
-4.53371
11
5.07759
21
-4.53373
0
LINE
8
BLACK
6
CONTINUOUS
10
5.07759
20
-4.53373
11
5.08134
21
-4.5356
0
LINE
8
BLACK
6
CONTINUOUS
10
5.08134
20
-4.5356
11
5.08191
21
-4.53602
0
LINE
8
BLACK
6
CONTINUOUS
10
5.08191
20
-4.53602
11
5.08214
21
-4.53592
0
LINE
8
BLACK
6
CONTINUOUS
10
5.08214
20
-4.53592
11
5.08244
21
-4.5356
0
LINE
8
BLACK
6
CONTINUOUS
10
5.08244
20
-4.5356
11
5.08619
21
-4.53373
0
LINE
8
BLACK
6
CONTINUOUS
10
5.08619
20
-4.53373
11
5.08718
21
-4.53343
0
LINE
8
BLACK
6
CONTINUOUS
10
5.08718
20
-4.53343
11
5.08735
21
-4.53347
0
LINE
8
BLACK
6
CONTINUOUS
10
5.08735
20
-4.53347
11
5.08751
21
-4.53341
0
LINE
8
BLACK
6
CONTINUOUS
10
5.08751
20
-4.53341
11
5.09314
21
-4.53341
0
LINE
8
BLACK
6
CONTINUOUS
10
5.09314
20
-4.53341
11
5.09415
21
-4.53359
0
LINE
8
BLACK
6
CONTINUOUS
10
5.09415
20
-4.53359
11
5.09428
21
-4.53371
0
LINE
8
BLACK
6
CONTINUOUS
10
5.09428
20
-4.53371
11
5.09446
21
-4.53373
0
LINE
8
BLACK
6
CONTINUOUS
10
5.09446
20
-4.53373
11
5.09821
21
-4.5356
0
LINE
8
BLACK
6
CONTINUOUS
10
5.09821
20
-4.5356
11
5.09903
21
-4.53621
0
LINE
8
BLACK
6
CONTINUOUS
10
5.09903
20
-4.53621
11
5.09921
21
-4.53662
0
LINE
8
BLACK
6
CONTINUOUS
10
5.09921
20
-4.53662
11
5.09953
21
-4.53692
0
LINE
8
BLACK
6
CONTINUOUS
10
5.09953
20
-4.53692
11
5.1014
21
-4.54067
0
LINE
8
BLACK
6
CONTINUOUS
10
5.1014
20
-4.54067
11
5.1017
21
-4.54165
0
LINE
8
BLACK
6
CONTINUOUS
10
5.1017
20
-4.54165
11
5.10166
21
-4.54183
0
LINE
8
BLACK
6
CONTINUOUS
10
5.10166
20
-4.54183
11
5.10172
21
-4.54199
0
LINE
8
BLACK
6
CONTINUOUS
10
5.10172
20
-4.54199
11
5.10172
21
-4.56261
0
LINE
8
BLACK
6
CONTINUOUS
10
5.10172
20
-4.56261
11
5.10154
21
-4.56362
0
LINE
8
BLACK
6
CONTINUOUS
10
5.10154
20
-4.56362
11
5.10024
21
-4.56517
0
LINE
8
BLACK
6
CONTINUOUS
10
5.10024
20
-4.56517
11
5.09825
21
-4.56552
0
LINE
8
BLACK
6
CONTINUOUS
10
5.09825
20
-4.56552
11
5.0965
21
-4.56451
0
LINE
8
BLACK
6
CONTINUOUS
10
5.0965
20
-4.56451
11
5.09581
21
-4.56261
0
LINE
8
BLACK
6
CONTINUOUS
10
5.09581
20
-4.56261
11
5.09581
21
-4.54269
0
LINE
8
BLACK
6
CONTINUOUS
10
5.09581
20
-4.54269
11
5.09469
21
-4.54044
0
LINE
8
BLACK
6
CONTINUOUS
10
5.09469
20
-4.54044
11
5.09244
21
-4.53932
0
LINE
8
BLACK
6
CONTINUOUS
10
5.09244
20
-4.53932
11
5.08821
21
-4.53932
0
LINE
8
BLACK
6
CONTINUOUS
10
5.08821
20
-4.53932
11
5.08597
21
-4.54044
0
LINE
8
BLACK
6
CONTINUOUS
10
5.08597
20
-4.54044
11
5.08484
21
-4.54269
0
LINE
8
BLACK
6
CONTINUOUS
10
5.08484
20
-4.54269
11
5.08484
21
-4.56261
0
LINE
8
BLACK
6
CONTINUOUS
10
5.08484
20
-4.56261
11
5.08466
21
-4.56362
0
LINE
8
BLACK
6
CONTINUOUS
10
5.08466
20
-4.56362
11
5.08337
21
-4.56517
0
LINE
8
BLACK
6
CONTINUOUS
10
5.08337
20
-4.56517
11
5.08138
21
-4.56552
0
LINE
8
BLACK
6
CONTINUOUS
10
5.08138
20
-4.56552
11
5.07963
21
-4.56451
0
LINE
8
BLACK
6
CONTINUOUS
10
5.07963
20
-4.56451
11
5.07894
21
-4.56261
0
LINE
8
BLACK
6
CONTINUOUS
10
5.07894
20
-4.56261
11
5.07894
21
-4.54269
0
LINE
8
BLACK
6
CONTINUOUS
10
5.07894
20
-4.54269
11
5.07781
21
-4.54044
0
LINE
8
BLACK
6
CONTINUOUS
10
5.07781
20
-4.54044
11
5.07557
21
-4.53932
0
LINE
8
BLACK
6
CONTINUOUS
10
5.07557
20
-4.53932
11
5.07134
21
-4.53932
0
LINE
8
BLACK
6
CONTINUOUS
10
5.07134
20
-4.53932
11
5.06864
21
-4.54067
0
LINE
8
BLACK
6
CONTINUOUS
10
5.06864
20
-4.54067
11
5.06797
21
-4.54134
0
LINE
8
BLACK
6
CONTINUOUS
10
5.06797
20
-4.54134
11
5.06797
21
-4.56261
0
LINE
8
BLACK
6
CONTINUOUS
10
5.06797
20
-4.56261
11
5.06779
21
-4.56362
0
LINE
8
BLACK
6
CONTINUOUS
10
5.06779
20
-4.56362
11
5.06649
21
-4.56517
0
LINE
8
BLACK
6
CONTINUOUS
10
5.06649
20
-4.56517
11
5.0645
21
-4.56552
0
LINE
8
BLACK
6
CONTINUOUS
10
5.0645
20
-4.56552
11
5.06275
21
-4.56451
0
LINE
8
BLACK
6
CONTINUOUS
10
5.06275
20
-4.56451
11
5.06206
21
-4.56261
0
LINE
8
BLACK
6
CONTINUOUS
10
5.06206
20
-4.56261
11
5.06206
21
-4.53637
0
LINE
8
BLACK
6
CONTINUOUS
10
5.06206
20
-4.53637
11
5.06224
21
-4.53536
0
LINE
8
BLACK
6
CONTINUOUS
10
5.06224
20
-4.53536
11
5.06354
21
-4.53381
0
LINE
8
BLACK
6
CONTINUOUS
10
5.06354
20
-4.53381
11
5.06553
21
-4.53346
0
LINE
8
BLACK
6
CONTINUOUS
10
5.06553
20
-4.53346
11
5.06728
21
-4.53447
0
LINE
8
BLACK
6
CONTINUOUS
10
5.06728
20
-4.53447
11
5.06736
21
-4.5347
0
LINE
8
BLACK
6
CONTINUOUS
10
5.06736
20
-4.5347
11
5.06932
21
-4.53373
0
LINE
8
BLACK
6
CONTINUOUS
10
5.06932
20
-4.53373
11
5.0703
21
-4.53343
0
LINE
8
BLACK
6
CONTINUOUS
10
5.0703
20
-4.53343
11
5.07048
21
-4.53347
0
LINE
8
BLACK
6
CONTINUOUS
10
5.07048
20
-4.53347
11
5.07064
21
-4.53341
0
LINE
8
BLACK
6
CONTINUOUS
10
5.07064
20
-4.53341
11
5.07627
21
-4.53341
0
LINE
8
BLACK
6
CONTINUOUS
10
5.07627
20
-4.53341
11
5.07728
21
-4.53359
0
LINE
8
BLACK
6
CONTINUOUS
10
5.19914
20
-4.53359
11
5.20068
21
-4.53489
0
LINE
8
BLACK
6
CONTINUOUS
10
5.20068
20
-4.53489
11
5.20103
21
-4.53688
0
LINE
8
BLACK
6
CONTINUOUS
10
5.20103
20
-4.53688
11
5.20002
21
-4.53863
0
LINE
8
BLACK
6
CONTINUOUS
10
5.20002
20
-4.53863
11
5.19813
21
-4.53932
0
LINE
8
BLACK
6
CONTINUOUS
10
5.19813
20
-4.53932
11
5.19507
21
-4.53932
0
LINE
8
BLACK
6
CONTINUOUS
10
5.19507
20
-4.53932
11
5.19238
21
-4.54067
0
LINE
8
BLACK
6
CONTINUOUS
10
5.19238
20
-4.54067
11
5.19118
21
-4.54187
0
LINE
8
BLACK
6
CONTINUOUS
10
5.19118
20
-4.54187
11
5.18983
21
-4.54456
0
LINE
8
BLACK
6
CONTINUOUS
10
5.18983
20
-4.54456
11
5.18983
21
-4.56261
0
LINE
8
BLACK
6
CONTINUOUS
10
5.18983
20
-4.56261
11
5.18965
21
-4.56362
0
LINE
8
BLACK
6
CONTINUOUS
10
5.18965
20
-4.56362
11
5.18835
21
-4.56517
0
LINE
8
BLACK
6
CONTINUOUS
10
5.18835
20
-4.56517
11
5.18636
21
-4.56552
0
LINE
8
BLACK
6
CONTINUOUS
10
5.18636
20
-4.56552
11
5.18461
21
-4.56451
0
LINE
8
BLACK
6
CONTINUOUS
10
5.18461
20
-4.56451
11
5.18392
21
-4.56261
0
LINE
8
BLACK
6
CONTINUOUS
10
5.18392
20
-4.56261
11
5.18392
21
-4.53637
0
LINE
8
BLACK
6
CONTINUOUS
10
5.18392
20
-4.53637
11
5.1841
21
-4.53536
0
LINE
8
BLACK
6
CONTINUOUS
10
5.1841
20
-4.53536
11
5.1854
21
-4.53381
0
LINE
8
BLACK
6
CONTINUOUS
10
5.1854
20
-4.53381
11
5.18739
21
-4.53346
0
LINE
8
BLACK
6
CONTINUOUS
10
5.18739
20
-4.53346
11
5.18914
21
-4.53447
0
LINE
8
BLACK
6
CONTINUOUS
10
5.18914
20
-4.53447
11
5.18951
21
-4.5355
0
LINE
8
BLACK
6
CONTINUOUS
10
5.18951
20
-4.5355
11
5.19306
21
-4.53373
0
LINE
8
BLACK
6
CONTINUOUS
10
5.19306
20
-4.53373
11
5.19404
21
-4.53343
0
LINE
8
BLACK
6
CONTINUOUS
10
5.19404
20
-4.53343
11
5.19421
21
-4.53347
0
LINE
8
BLACK
6
CONTINUOUS
10
5.19421
20
-4.53347
11
5.19438
21
-4.53341
0
LINE
8
BLACK
6
CONTINUOUS
10
5.19438
20
-4.53341
11
5.19813
21
-4.53341
0
LINE
8
BLACK
6
CONTINUOUS
10
5.19813
20
-4.53341
11
5.19914
21
-4.53359
0
LINE
8
BLACK
6
CONTINUOUS
10
4.8873
20
-4.52135
11
4.88799
21
-4.52324
0
LINE
8
BLACK
6
CONTINUOUS
10
4.88799
20
-4.52324
11
4.88799
21
-4.55629
0
LINE
8
BLACK
6
CONTINUOUS
10
4.88799
20
-4.55629
11
4.88912
21
-4.55854
0
LINE
8
BLACK
6
CONTINUOUS
10
4.88912
20
-4.55854
11
4.89198
21
-4.55997
0
LINE
8
BLACK
6
CONTINUOUS
10
4.89198
20
-4.55997
11
4.89281
21
-4.56058
0
LINE
8
BLACK
6
CONTINUOUS
10
4.89281
20
-4.56058
11
4.89361
21
-4.56244
0
LINE
8
BLACK
6
CONTINUOUS
10
4.89361
20
-4.56244
11
4.89304
21
-4.56437
0
LINE
8
BLACK
6
CONTINUOUS
10
4.89304
20
-4.56437
11
4.89135
21
-4.56549
0
LINE
8
BLACK
6
CONTINUOUS
10
4.89135
20
-4.56549
11
4.88934
21
-4.56525
0
LINE
8
BLACK
6
CONTINUOUS
10
4.88934
20
-4.56525
11
4.88559
21
-4.56338
0
LINE
8
BLACK
6
CONTINUOUS
10
4.88559
20
-4.56338
11
4.88477
21
-4.56277
0
LINE
8
BLACK
6
CONTINUOUS
10
4.88477
20
-4.56277
11
4.88459
21
-4.56236
0
LINE
8
BLACK
6
CONTINUOUS
10
4.88459
20
-4.56236
11
4.88427
21
-4.56206
0
LINE
8
BLACK
6
CONTINUOUS
10
4.88427
20
-4.56206
11
4.8824
21
-4.55831
0
LINE
8
BLACK
6
CONTINUOUS
10
4.8824
20
-4.55831
11
4.88211
21
-4.55733
0
LINE
8
BLACK
6
CONTINUOUS
10
4.88211
20
-4.55733
11
4.88215
21
-4.55715
0
LINE
8
BLACK
6
CONTINUOUS
10
4.88215
20
-4.55715
11
4.88209
21
-4.55699
0
LINE
8
BLACK
6
CONTINUOUS
10
4.88209
20
-4.55699
11
4.88209
21
-4.52324
0
LINE
8
BLACK
6
CONTINUOUS
10
4.88209
20
-4.52324
11
4.88226
21
-4.52223
0
LINE
8
BLACK
6
CONTINUOUS
10
4.88226
20
-4.52223
11
4.88356
21
-4.52069
0
LINE
8
BLACK
6
CONTINUOUS
10
4.88356
20
-4.52069
11
4.88555
21
-4.52034
0
LINE
8
BLACK
6
CONTINUOUS
10
4.88555
20
-4.52034
11
4.8873
21
-4.52135
0
LINE
8
BLACK
6
CONTINUOUS
10
5.37286
20
-4.52036
11
5.37299
21
-4.52034
0
LINE
8
BLACK
6
CONTINUOUS
10
5.37299
20
-4.52034
11
5.37311
21
-4.5204
0
LINE
8
BLACK
6
CONTINUOUS
10
5.37311
20
-4.5204
11
5.37324
21
-4.52039
0
LINE
8
BLACK
6
CONTINUOUS
10
5.37324
20
-4.52039
11
5.37387
21
-4.52083
0
LINE
8
BLACK
6
CONTINUOUS
10
5.37387
20
-4.52083
11
5.37457
21
-4.52116
0
LINE
8
BLACK
6
CONTINUOUS
10
5.37457
20
-4.52116
11
5.37644
21
-4.52303
0
LINE
8
BLACK
6
CONTINUOUS
10
5.37644
20
-4.52303
11
5.37666
21
-4.52335
0
LINE
8
BLACK
6
CONTINUOUS
10
5.37666
20
-4.52335
11
5.37677
21
-4.52342
0
LINE
8
BLACK
6
CONTINUOUS
10
5.37677
20
-4.52342
11
5.37681
21
-4.52355
0
LINE
8
BLACK
6
CONTINUOUS
10
5.37681
20
-4.52355
11
5.37703
21
-4.52387
0
LINE
8
BLACK
6
CONTINUOUS
10
5.37703
20
-4.52387
11
5.3771
21
-4.52463
0
LINE
8
BLACK
6
CONTINUOUS
10
5.3771
20
-4.52463
11
5.37729
21
-4.52538
0
LINE
8
BLACK
6
CONTINUOUS
10
5.37729
20
-4.52538
11
5.37718
21
-4.52562
0
LINE
8
BLACK
6
CONTINUOUS
10
5.37718
20
-4.52562
11
5.37721
21
-4.52588
0
LINE
8
BLACK
6
CONTINUOUS
10
5.37721
20
-4.52588
11
5.37677
21
-4.52651
0
LINE
8
BLACK
6
CONTINUOUS
10
5.37677
20
-4.52651
11
5.37644
21
-4.52721
0
LINE
8
BLACK
6
CONTINUOUS
10
5.37644
20
-4.52721
11
5.37457
21
-4.52908
0
LINE
8
BLACK
6
CONTINUOUS
10
5.37457
20
-4.52908
11
5.37425
21
-4.5293
0
LINE
8
BLACK
6
CONTINUOUS
10
5.37425
20
-4.5293
11
5.37417
21
-4.52941
0
LINE
8
BLACK
6
CONTINUOUS
10
5.37417
20
-4.52941
11
5.37405
21
-4.52945
0
LINE
8
BLACK
6
CONTINUOUS
10
5.37405
20
-4.52945
11
5.37404
21
-4.52945
0
LINE
8
BLACK
6
CONTINUOUS
10
5.37404
20
-4.52945
11
5.37395
21
-4.52955
0
LINE
8
BLACK
6
CONTINUOUS
10
5.37395
20
-4.52955
11
5.37388
21
-4.52956
0
LINE
8
BLACK
6
CONTINUOUS
10
5.37388
20
-4.52956
11
5.37373
21
-4.52967
0
LINE
8
BLACK
6
CONTINUOUS
10
5.37373
20
-4.52967
11
5.37296
21
-4.52974
0
LINE
8
BLACK
6
CONTINUOUS
10
5.37296
20
-4.52974
11
5.37222
21
-4.52993
0
LINE
8
BLACK
6
CONTINUOUS
10
5.37222
20
-4.52993
11
5.3721
21
-4.52988
0
LINE
8
BLACK
6
CONTINUOUS
10
5.3721
20
-4.52988
11
5.37197
21
-4.5299
0
LINE
8
BLACK
6
CONTINUOUS
10
5.37197
20
-4.5299
11
5.37185
21
-4.52983
0
LINE
8
BLACK
6
CONTINUOUS
10
5.37185
20
-4.52983
11
5.37171
21
-4.52985
0
LINE
8
BLACK
6
CONTINUOUS
10
5.37171
20
-4.52985
11
5.37109
21
-4.5294
0
LINE
8
BLACK
6
CONTINUOUS
10
5.37109
20
-4.5294
11
5.37039
21
-4.52908
0
LINE
8
BLACK
6
CONTINUOUS
10
5.37039
20
-4.52908
11
5.36852
21
-4.52721
0
LINE
8
BLACK
6
CONTINUOUS
10
5.36852
20
-4.52721
11
5.36829
21
-4.52689
0
LINE
8
BLACK
6
CONTINUOUS
10
5.36829
20
-4.52689
11
5.36818
21
-4.52681
0
LINE
8
BLACK
6
CONTINUOUS
10
5.36818
20
-4.52681
11
5.36815
21
-4.52668
0
LINE
8
BLACK
6
CONTINUOUS
10
5.36815
20
-4.52668
11
5.36793
21
-4.52637
0
LINE
8
BLACK
6
CONTINUOUS
10
5.36793
20
-4.52637
11
5.36786
21
-4.5256
0
LINE
8
BLACK
6
CONTINUOUS
10
5.36786
20
-4.5256
11
5.36766
21
-4.52486
0
LINE
8
BLACK
6
CONTINUOUS
10
5.36766
20
-4.52486
11
5.36777
21
-4.52462
0
LINE
8
BLACK
6
CONTINUOUS
10
5.36777
20
-4.52462
11
5.36775
21
-4.52435
0
LINE
8
BLACK
6
CONTINUOUS
10
5.36775
20
-4.52435
11
5.36819
21
-4.52373
0
LINE
8
BLACK
6
CONTINUOUS
10
5.36819
20
-4.52373
11
5.36852
21
-4.52303
0
LINE
8
BLACK
6
CONTINUOUS
10
5.36852
20
-4.52303
11
5.37039
21
-4.52116
0
LINE
8
BLACK
6
CONTINUOUS
10
5.37039
20
-4.52116
11
5.37071
21
-4.52093
0
LINE
8
BLACK
6
CONTINUOUS
10
5.37071
20
-4.52093
11
5.37078
21
-4.52082
0
LINE
8
BLACK
6
CONTINUOUS
10
5.37078
20
-4.52082
11
5.37091
21
-4.52079
0
LINE
8
BLACK
6
CONTINUOUS
10
5.37091
20
-4.52079
11
5.37092
21
-4.52079
0
LINE
8
BLACK
6
CONTINUOUS
10
5.37092
20
-4.52079
11
5.371
21
-4.52069
0
LINE
8
BLACK
6
CONTINUOUS
10
5.371
20
-4.52069
11
5.37108
21
-4.52067
0
LINE
8
BLACK
6
CONTINUOUS
10
5.37108
20
-4.52067
11
5.37123
21
-4.52057
0
LINE
8
BLACK
6
CONTINUOUS
10
5.37123
20
-4.52057
11
5.37199
21
-4.5205
0
LINE
8
BLACK
6
CONTINUOUS
10
5.37199
20
-4.5205
11
5.37274
21
-4.5203
0
LINE
8
BLACK
6
CONTINUOUS
10
5.37274
20
-4.5203
11
5.37286
21
-4.52036
0
LINE
8
BLACK
6
CONTINUOUS
10
5.08038
20
-3.85711
11
5.08051
21
-3.85709
0
LINE
8
BLACK
6
CONTINUOUS
10
5.08051
20
-3.85709
11
5.08063
21
-3.85716
0
LINE
8
BLACK
6
CONTINUOUS
10
5.08063
20
-3.85716
11
5.08101
21
-3.85723
0
LINE
8
BLACK
6
CONTINUOUS
10
5.08101
20
-3.85723
11
5.0816
21
-3.85772
0
LINE
8
BLACK
6
CONTINUOUS
10
5.0816
20
-3.85772
11
5.08226
21
-3.8581
0
LINE
8
BLACK
6
CONTINUOUS
10
5.08226
20
-3.8581
11
5.08235
21
-3.85835
0
LINE
8
BLACK
6
CONTINUOUS
10
5.08235
20
-3.85835
11
5.08256
21
-3.85852
0
LINE
8
BLACK
6
CONTINUOUS
10
5.08256
20
-3.85852
11
5.08269
21
-3.85928
0
LINE
8
BLACK
6
CONTINUOUS
10
5.08269
20
-3.85928
11
5.08295
21
-3.86
0
LINE
8
BLACK
6
CONTINUOUS
10
5.08295
20
-3.86
11
5.08295
21
-4.06
0
LINE
8
BLACK
6
CONTINUOUS
10
5.08295
20
-4.06
11
5.08289
21
-4.06038
0
LINE
8
BLACK
6
CONTINUOUS
10
5.08289
20
-4.06038
11
5.08291
21
-4.06051
0
LINE
8
BLACK
6
CONTINUOUS
10
5.08291
20
-4.06051
11
5.08284
21
-4.06063
0
LINE
8
BLACK
6
CONTINUOUS
10
5.08284
20
-4.06063
11
5.08277
21
-4.06101
0
LINE
8
BLACK
6
CONTINUOUS
10
5.08277
20
-4.06101
11
5.08228
21
-4.0616
0
LINE
8
BLACK
6
CONTINUOUS
10
5.08228
20
-4.0616
11
5.0819
21
-4.06226
0
LINE
8
BLACK
6
CONTINUOUS
10
5.0819
20
-4.06226
11
5.08165
21
-4.06235
0
LINE
8
BLACK
6
CONTINUOUS
10
5.08165
20
-4.06235
11
5.08148
21
-4.06256
0
LINE
8
BLACK
6
CONTINUOUS
10
5.08148
20
-4.06256
11
5.08072
21
-4.06269
0
LINE
8
BLACK
6
CONTINUOUS
10
5.08072
20
-4.06269
11
5.08
21
-4.06295
0
LINE
8
BLACK
6
CONTINUOUS
10
5.08
20
-4.06295
11
4.78
21
-4.06295
0
LINE
8
BLACK
6
CONTINUOUS
10
4.78
20
-4.06295
11
4.77962
21
-4.06289
0
LINE
8
BLACK
6
CONTINUOUS
10
4.77962
20
-4.06289
11
4.77949
21
-4.06291
0
LINE
8
BLACK
6
CONTINUOUS
10
4.77949
20
-4.06291
11
4.77937
21
-4.06284
0
LINE
8
BLACK
6
CONTINUOUS
10
4.77937
20
-4.06284
11
4.77899
21
-4.06277
0
LINE
8
BLACK
6
CONTINUOUS
10
4.77899
20
-4.06277
11
4.7784
21
-4.06228
0
LINE
8
BLACK
6
CONTINUOUS
10
4.7784
20
-4.06228
11
4.77774
21
-4.0619
0
LINE
8
BLACK
6
CONTINUOUS
10
4.77774
20
-4.0619
11
4.77765
21
-4.06165
0
LINE
8
BLACK
6
CONTINUOUS
10
4.77765
20
-4.06165
11
4.77744
21
-4.06148
0
LINE
8
BLACK
6
CONTINUOUS
10
4.77744
20
-4.06148
11
4.77731
21
-4.06072
0
LINE
8
BLACK
6
CONTINUOUS
10
4.77731
20
-4.06072
11
4.77705
21
-4.06
0
LINE
8
BLACK
6
CONTINUOUS
10
4.77705
20
-4.06
11
4.77705
21
-3.86
0
LINE
8
BLACK
6
CONTINUOUS
10
4.77705
20
-3.86
11
4.77711
21
-3.85962
0
LINE
8
BLACK
6
CONTINUOUS
10
4.77711
20
-3.85962
11
4.77709
21
-3.85949
0
LINE
8
BLACK
6
CONTINUOUS
10
4.77709
20
-3.85949
11
4.77716
21
-3.85937
0
LINE
8
BLACK
6
CONTINUOUS
10
4.77716
20
-3.85937
11
4.77723
21
-3.85899
0
LINE
8
BLACK
6
CONTINUOUS
10
4.77723
20
-3.85899
11
4.77772
21
-3.8584
0
LINE
8
BLACK
6
CONTINUOUS
10
4.77772
20
-3.8584
11
4.7781
21
-3.85774
0
LINE
8
BLACK
6
CONTINUOUS
10
4.7781
20
-3.85774
11
4.77835
21
-3.85765
0
LINE
8
BLACK
6
CONTINUOUS
10
4.77835
20
-3.85765
11
4.77852
21
-3.85744
0
LINE
8
BLACK
6
CONTINUOUS
10
4.77852
20
-3.85744
11
4.77928
21
-3.85731
0
LINE
8
BLACK
6
CONTINUOUS
10
4.77928
20
-3.85731
11
4.78
21
-3.85705
0
LINE
8
BLACK
6
CONTINUOUS
10
4.78
20
-3.85705
11
5.08
21
-3.85705
0
LINE
8
BLACK
6
CONTINUOUS
10
5.08
20
-3.85705
11
5.08038
21
-3.85711
0
LINE
8
BLACK
6
CONTINUOUS
10
4.78295
20
-3.86295
11
4.78295
21
-4.05705
0
LINE
8
BLACK
6
CONTINUOUS
10
4.78295
20
-4.05705
11
5.07705
21
-4.05705
0
LINE
8
BLACK
6
CONTINUOUS
10
5.07705
20
-4.05705
11
5.07705
21
-3.86295
0
LINE
8
BLACK
6
CONTINUOUS
10
5.07705
20
-3.86295
11
4.78295
21
-3.86295
0
LINE
8
BLACK
6
CONTINUOUS
10
4.47792
20
-4.37047
11
4.48197
21
-4.35704
0
LINE
8
BLACK
6
CONTINUOUS
10
4.48197
20
-4.35704
11
4.4875
21
-4.34415
0
LINE
8
BLACK
6
CONTINUOUS
10
4.4875
20
-4.34415
11
4.49442
21
-4.33196
0
LINE
8
BLACK
6
CONTINUOUS
10
4.49442
20
-4.33196
11
4.50267
21
-4.32062
0
LINE
8
BLACK
6
CONTINUOUS
10
4.50267
20
-4.32062
11
4.51212
21
-4.31026
0
LINE
8
BLACK
6
CONTINUOUS
10
4.51212
20
-4.31026
11
4.52267
21
-4.30103
0
LINE
8
BLACK
6
CONTINUOUS
10
4.52267
20
-4.30103
11
4.53419
21
-4.29302
0
LINE
8
BLACK
6
CONTINUOUS
10
4.53419
20
-4.29302
11
4.54652
21
-4.28635
0
LINE
8
BLACK
6
CONTINUOUS
10
4.54652
20
-4.28635
11
4.55952
21
-4.2811
0
LINE
8
BLACK
6
CONTINUOUS
10
4.55952
20
-4.2811
11
4.57303
21
-4.27733
0
LINE
8
BLACK
6
CONTINUOUS
10
4.57303
20
-4.27733
11
4.58687
21
-4.27509
0
LINE
8
BLACK
6
CONTINUOUS
10
4.58687
20
-4.27509
11
4.60088
21
-4.2744
0
LINE
8
BLACK
6
CONTINUOUS
10
4.60088
20
-4.2744
11
4.61487
21
-4.27528
0
LINE
8
BLACK
6
CONTINUOUS
10
4.61487
20
-4.27528
11
4.62868
21
-4.27772
0
LINE
8
BLACK
6
CONTINUOUS
10
4.62868
20
-4.27772
11
4.64213
21
-4.28168
0
LINE
8
BLACK
6
CONTINUOUS
10
4.64213
20
-4.28168
11
4.65506
21
-4.28711
0
LINE
8
BLACK
6
CONTINUOUS
10
4.65506
20
-4.28711
11
4.6673
21
-4.29395
0
LINE
8
BLACK
6
CONTINUOUS
10
4.6673
20
-4.29395
11
4.6787
21
-4.30212
0
LINE
8
BLACK
6
CONTINUOUS
10
4.6787
20
-4.30212
11
4.68912
21
-4.3115
0
LINE
8
BLACK
6
CONTINUOUS
10
4.68912
20
-4.3115
11
4.69843
21
-4.32198
0
LINE
8
BLACK
6
CONTINUOUS
10
4.69843
20
-4.32198
11
4.70651
21
-4.33344
0
LINE
8
BLACK
6
CONTINUOUS
10
4.70651
20
-4.33344
11
4.71327
21
-4.34573
0
LINE
8
BLACK
6
CONTINUOUS
10
4.71327
20
-4.34573
11
4.71861
21
-4.35869
0
LINE
8
BLACK
6
CONTINUOUS
10
4.71861
20
-4.35869
11
4.72248
21
-4.37217
0
LINE
8
BLACK
6
CONTINUOUS
10
4.72248
20
-4.37217
11
4.72482
21
-4.386
0
LINE
8
BLACK
6
CONTINUOUS
10
4.72482
20
-4.386
11
4.7256
21
-4.4
0
LINE
8
BLACK
6
CONTINUOUS
10
4.7256
20
-4.4
11
4.72555
21
-4.40351
0
LINE
8
BLACK
6
CONTINUOUS
10
4.72555
20
-4.40351
11
4.72438
21
-4.41748
0
LINE
8
BLACK
6
CONTINUOUS
10
4.72438
20
-4.41748
11
4.72165
21
-4.43124
0
LINE
8
BLACK
6
CONTINUOUS
10
4.72165
20
-4.43124
11
4.71741
21
-4.4446
0
LINE
8
BLACK
6
CONTINUOUS
10
4.71741
20
-4.4446
11
4.71171
21
-4.45741
0
LINE
8
BLACK
6
CONTINUOUS
10
4.71171
20
-4.45741
11
4.70461
21
-4.46951
0
LINE
8
BLACK
6
CONTINUOUS
10
4.70461
20
-4.46951
11
4.69622
21
-4.48073
0
LINE
8
BLACK
6
CONTINUOUS
10
4.69622
20
-4.48073
11
4.68662
21
-4.49096
0
LINE
8
BLACK
6
CONTINUOUS
10
4.68662
20
-4.49096
11
4.67594
21
-4.50004
0
LINE
8
BLACK
6
CONTINUOUS
10
4.67594
20
-4.50004
11
4.66431
21
-4.50789
0
LINE
8
BLACK
6
CONTINUOUS
10
4.66431
20
-4.50789
11
4.65189
21
-4.51438
0
LINE
8
BLACK
6
CONTINUOUS
10
4.65189
20
-4.51438
11
4.63881
21
-4.51945
0
LINE
8
BLACK
6
CONTINUOUS
10
4.63881
20
-4.51945
11
4.62526
21
-4.52303
0
LINE
8
BLACK
6
CONTINUOUS
10
4.62526
20
-4.52303
11
4.61138
21
-4.52508
0
LINE
8
BLACK
6
CONTINUOUS
10
4.61138
20
-4.52508
11
4.59737
21
-4.52557
0
LINE
8
BLACK
6
CONTINUOUS
10
4.59737
20
-4.52557
11
4.58339
21
-4.5245
0
LINE
8
BLACK
6
CONTINUOUS
10
4.58339
20
-4.5245
11
4.56961
21
-4.52187
0
LINE
8
BLACK
6
CONTINUOUS
10
4.56961
20
-4.52187
11
4.55622
21
-4.51772
0
LINE
8
BLACK
6
CONTINUOUS
10
4.55622
20
-4.51772
11
4.54337
21
-4.51211
0
LINE
8
BLACK
6
CONTINUOUS
10
4.54337
20
-4.51211
11
4.53123
21
-4.5051
0
LINE
8
BLACK
6
CONTINUOUS
10
4.53123
20
-4.5051
11
4.51994
21
-4.49678
0
LINE
8
BLACK
6
CONTINUOUS
10
4.51994
20
-4.49678
11
4.50965
21
-4.48725
0
LINE
8
BLACK
6
CONTINUOUS
10
4.50965
20
-4.48725
11
4.50049
21
-4.47663
0
LINE
8
BLACK
6
CONTINUOUS
10
4.50049
20
-4.47663
11
4.49257
21
-4.46506
0
LINE
8
BLACK
6
CONTINUOUS
10
4.49257
20
-4.46506
11
4.48598
21
-4.45268
0
LINE
8
BLACK
6
CONTINUOUS
10
4.48598
20
-4.45268
11
4.48082
21
-4.43965
0
LINE
8
BLACK
6
CONTINUOUS
10
4.48082
20
-4.43965
11
4.47714
21
-4.42611
0
LINE
8
BLACK
6
CONTINUOUS
10
4.47714
20
-4.42611
11
4.475
21
-4.41226
0
LINE
8
BLACK
6
CONTINUOUS
10
4.475
20
-4.41226
11
4.47441
21
-4.39825
0
LINE
8
BLACK
6
CONTINUOUS
10
4.47441
20
-4.39825
11
4.47453
21
-4.39652
0
LINE
8
BLACK
6
CONTINUOUS
10
4.47453
20
-4.39652
11
4.47539
21
-4.38426
0
LINE
8
BLACK
6
CONTINUOUS
10
4.47539
20
-4.38426
11
4.47792
21
-4.37047
0
LINE
8
BLACK
6
CONTINUOUS
10
4.4914
20
-4.4219
11
4.49463
21
-4.43424
0
LINE
8
BLACK
6
CONTINUOUS
10
4.49463
20
-4.43424
11
4.49927
21
-4.44612
0
LINE
8
BLACK
6
CONTINUOUS
10
4.49927
20
-4.44612
11
4.50524
21
-4.45739
0
LINE
8
BLACK
6
CONTINUOUS
10
4.50524
20
-4.45739
11
4.51246
21
-4.4679
0
LINE
8
BLACK
6
CONTINUOUS
10
4.51246
20
-4.4679
11
4.52085
21
-4.47751
0
LINE
8
BLACK
6
CONTINUOUS
10
4.52085
20
-4.47751
11
4.53028
21
-4.4861
0
LINE
8
BLACK
6
CONTINUOUS
10
4.53028
20
-4.4861
11
4.54064
21
-4.49354
0
LINE
8
BLACK
6
CONTINUOUS
10
4.54064
20
-4.49354
11
4.55178
21
-4.49974
0
LINE
8
BLACK
6
CONTINUOUS
10
4.55178
20
-4.49974
11
4.56357
21
-4.50463
0
LINE
8
BLACK
6
CONTINUOUS
10
4.56357
20
-4.50463
11
4.57583
21
-4.50812
0
LINE
8
BLACK
6
CONTINUOUS
10
4.57583
20
-4.50812
11
4.58842
21
-4.51018
0
LINE
8
BLACK
6
CONTINUOUS
10
4.58842
20
-4.51018
11
4.60116
21
-4.51078
0
LINE
8
BLACK
6
CONTINUOUS
10
4.60116
20
-4.51078
11
4.61389
21
-4.50991
0
LINE
8
BLACK
6
CONTINUOUS
10
4.61389
20
-4.50991
11
4.62643
21
-4.50759
0
LINE
8
BLACK
6
CONTINUOUS
10
4.62643
20
-4.50759
11
4.63862
21
-4.50384
0
LINE
8
BLACK
6
CONTINUOUS
10
4.63862
20
-4.50384
11
4.6503
21
-4.49871
0
LINE
8
BLACK
6
CONTINUOUS
10
4.6503
20
-4.49871
11
4.66131
21
-4.49228
0
LINE
8
BLACK
6
CONTINUOUS
10
4.66131
20
-4.49228
11
4.67151
21
-4.48462
0
LINE
8
BLACK
6
CONTINUOUS
10
4.67151
20
-4.48462
11
4.68076
21
-4.47584
0
LINE
8
BLACK
6
CONTINUOUS
10
4.68076
20
-4.47584
11
4.68894
21
-4.46605
0
LINE
8
BLACK
6
CONTINUOUS
10
4.68894
20
-4.46605
11
4.69594
21
-4.45539
0
LINE
8
BLACK
6
CONTINUOUS
10
4.69594
20
-4.45539
11
4.70168
21
-4.444
0
LINE
8
BLACK
6
CONTINUOUS
10
4.70168
20
-4.444
11
4.70606
21
-4.43202
0
LINE
8
BLACK
6
CONTINUOUS
10
4.70606
20
-4.43202
11
4.70904
21
-4.41962
0
LINE
8
BLACK
6
CONTINUOUS
10
4.70904
20
-4.41962
11
4.71057
21
-4.40696
0
LINE
8
BLACK
6
CONTINUOUS
10
4.71057
20
-4.40696
11
4.71079
21
-4.4
0
LINE
8
BLACK
6
CONTINUOUS
10
4.71079
20
-4.4
11
4.71005
21
-4.38727
0
LINE
8
BLACK
6
CONTINUOUS
10
4.71005
20
-4.38727
11
4.70786
21
-4.3747
0
LINE
8
BLACK
6
CONTINUOUS
10
4.70786
20
-4.3747
11
4.70424
21
-4.36247
0
LINE
8
BLACK
6
CONTINUOUS
10
4.70424
20
-4.36247
11
4.69923
21
-4.35074
0
LINE
8
BLACK
6
CONTINUOUS
10
4.69923
20
-4.35074
11
4.69291
21
-4.33966
0
LINE
8
BLACK
6
CONTINUOUS
10
4.69291
20
-4.33966
11
4.68536
21
-4.32938
0
LINE
8
BLACK
6
CONTINUOUS
10
4.68536
20
-4.32938
11
4.67668
21
-4.32004
0
LINE
8
BLACK
6
CONTINUOUS
10
4.67668
20
-4.32004
11
4.66698
21
-4.31175
0
LINE
8
BLACK
6
CONTINUOUS
10
4.66698
20
-4.31175
11
4.6564
21
-4.30464
0
LINE
8
BLACK
6
CONTINUOUS
10
4.6564
20
-4.30464
11
4.64506
21
-4.29879
0
LINE
8
BLACK
6
CONTINUOUS
10
4.64506
20
-4.29879
11
4.63313
21
-4.29428
0
LINE
8
BLACK
6
CONTINUOUS
10
4.63313
20
-4.29428
11
4.62076
21
-4.29117
0
LINE
8
BLACK
6
CONTINUOUS
10
4.62076
20
-4.29117
11
4.60811
21
-4.28951
0
LINE
8
BLACK
6
CONTINUOUS
10
4.60811
20
-4.28951
11
4.59536
21
-4.28931
0
LINE
8
BLACK
6
CONTINUOUS
10
4.59536
20
-4.28931
11
4.58267
21
-4.29058
0
LINE
8
BLACK
6
CONTINUOUS
10
4.58267
20
-4.29058
11
4.57021
21
-4.29329
0
LINE
8
BLACK
6
CONTINUOUS
10
4.57021
20
-4.29329
11
4.55814
21
-4.29743
0
LINE
8
BLACK
6
CONTINUOUS
10
4.55814
20
-4.29743
11
4.54663
21
-4.30292
0
LINE
8
BLACK
6
CONTINUOUS
10
4.54663
20
-4.30292
11
4.53582
21
-4.30969
0
LINE
8
BLACK
6
CONTINUOUS
10
4.53582
20
-4.30969
11
4.52587
21
-4.31767
0
LINE
8
BLACK
6
CONTINUOUS
10
4.52587
20
-4.31767
11
4.5169
21
-4.32673
0
LINE
8
BLACK
6
CONTINUOUS
10
4.5169
20
-4.32673
11
4.50903
21
-4.33677
0
LINE
8
BLACK
6
CONTINUOUS
10
4.50903
20
-4.33677
11
4.50236
21
-4.34765
0
LINE
8
BLACK
6
CONTINUOUS
10
4.50236
20
-4.34765
11
4.49699
21
-4.35922
0
LINE
8
BLACK
6
CONTINUOUS
10
4.49699
20
-4.35922
11
4.49299
21
-4.37133
0
LINE
8
BLACK
6
CONTINUOUS
10
4.49299
20
-4.37133
11
4.4904
21
-4.38382
0
LINE
8
BLACK
6
CONTINUOUS
10
4.4904
20
-4.38382
11
4.48927
21
-4.39652
0
LINE
8
BLACK
6
CONTINUOUS
10
4.48927
20
-4.39652
11
4.4896
21
-4.40927
0
LINE
8
BLACK
6
CONTINUOUS
10
4.4896
20
-4.40927
11
4.4914
21
-4.4219
0
LINE
8
BLACK
6
CONTINUOUS
10
5.67792
20
-4.37047
11
5.68197
21
-4.35704
0
LINE
8
BLACK
6
CONTINUOUS
10
5.68197
20
-4.35704
11
5.6875
21
-4.34415
0
LINE
8
BLACK
6
CONTINUOUS
10
5.6875
20
-4.34415
11
5.69442
21
-4.33196
0
LINE
8
BLACK
6
CONTINUOUS
10
5.69442
20
-4.33196
11
5.70267
21
-4.32062
0
LINE
8
BLACK
6
CONTINUOUS
10
5.70267
20
-4.32062
11
5.71212
21
-4.31026
0
LINE
8
BLACK
6
CONTINUOUS
10
5.71212
20
-4.31026
11
5.72267
21
-4.30103
0
LINE
8
BLACK
6
CONTINUOUS
10
5.72267
20
-4.30103
11
5.73419
21
-4.29302
0
LINE
8
BLACK
6
CONTINUOUS
10
5.73419
20
-4.29302
11
5.74652
21
-4.28635
0
LINE
8
BLACK
6
CONTINUOUS
10
5.74652
20
-4.28635
11
5.75952
21
-4.2811
0
LINE
8
BLACK
6
CONTINUOUS
10
5.75952
20
-4.2811
11
5.77303
21
-4.27733
0
LINE
8
BLACK
6
CONTINUOUS
10
5.77303
20
-4.27733
11
5.78687
21
-4.27509
0
LINE
8
BLACK
6
CONTINUOUS
10
5.78687
20
-4.27509
11
5.80088
21
-4.2744
0
LINE
8
BLACK
6
CONTINUOUS
10
5.80088
20
-4.2744
11
5.81487
21
-4.27528
0
LINE
8
BLACK
6
CONTINUOUS
10
5.81487
20
-4.27528
11
5.82868
21
-4.27772
0
LINE
8
BLACK
6
CONTINUOUS
10
5.82868
20
-4.27772
11
5.84213
21
-4.28168
0
LINE
8
BLACK
6
CONTINUOUS
10
5.84213
20
-4.28168
11
5.85506
21
-4.28711
0
LINE
8
BLACK
6
CONTINUOUS
10
5.85506
20
-4.28711
11
5.8673
21
-4.29395
0
LINE
8
BLACK
6
CONTINUOUS
10
5.8673
20
-4.29395
11
5.8787
21
-4.30212
0
LINE
8
BLACK
6
CONTINUOUS
10
5.8787
20
-4.30212
11
5.88912
21
-4.3115
0
LINE
8
BLACK
6
CONTINUOUS
10
5.88912
20
-4.3115
11
5.89843
21
-4.32198
0
LINE
8
BLACK
6
CONTINUOUS
10
5.89843
20
-4.32198
11
5.90651
21
-4.33344
0
LINE
8
BLACK
6
CONTINUOUS
10
5.90651
20
-4.33344
11
5.91327
21
-4.34573
0
LINE
8
BLACK
6
CONTINUOUS
10
5.91327
20
-4.34573
11
5.91861
21
-4.35869
0
LINE
8
BLACK
6
CONTINUOUS
10
5.91861
20
-4.35869
11
5.92248
21
-4.37217
0
LINE
8
BLACK
6
CONTINUOUS
10
5.92248
20
-4.37217
11
5.92482
21
-4.386
0
LINE
8
BLACK
6
CONTINUOUS
10
5.92482
20
-4.386
11
5.9256
21
-4.4
0
LINE
8
BLACK
6
CONTINUOUS
10
5.9256
20
-4.4
11
5.92555
21
-4.40351
0
LINE
8
BLACK
6
CONTINUOUS
10
5.92555
20
-4.40351
11
5.92438
21
-4.41748
0
LINE
8
BLACK
6
CONTINUOUS
10
5.92438
20
-4.41748
11
5.92165
21
-4.43124
0
LINE
8
BLACK
6
CONTINUOUS
10
5.92165
20
-4.43124
11
5.91741
21
-4.4446
0
LINE
8
BLACK
6
CONTINUOUS
10
5.91741
20
-4.4446
11
5.91171
21
-4.45741
0
LINE
8
BLACK
6
CONTINUOUS
10
5.91171
20
-4.45741
11
5.90461
21
-4.46951
0
LINE
8
BLACK
6
CONTINUOUS
10
5.90461
20
-4.46951
11
5.89622
21
-4.48073
0
LINE
8
BLACK
6
CONTINUOUS
10
5.89622
20
-4.48073
11
5.88662
21
-4.49096
0
LINE
8
BLACK
6
CONTINUOUS
10
5.88662
20
-4.49096
11
5.87594
21
-4.50004
0
LINE
8
BLACK
6
CONTINUOUS
10
5.87594
20
-4.50004
11
5.86431
21
-4.50789
0
LINE
8
BLACK
6
CONTINUOUS
10
5.86431
20
-4.50789
11
5.85189
21
-4.51438
0
LINE
8
BLACK
6
CONTINUOUS
10
5.85189
20
-4.51438
11
5.83881
21
-4.51945
0
LINE
8
BLACK
6
CONTINUOUS
10
5.83881
20
-4.51945
11
5.82526
21
-4.52303
0
LINE
8
BLACK
6
CONTINUOUS
10
5.82526
20
-4.52303
11
5.81138
21
-4.52508
0
LINE
8
BLACK
6
CONTINUOUS
10
5.81138
20
-4.52508
11
5.79737
21
-4.52557
0
LINE
8
BLACK
6
CONTINUOUS
10
5.79737
20
-4.52557
11
5.78339
21
-4.5245
0
LINE
8
BLACK
6
CONTINUOUS
10
5.78339
20
-4.5245
11
5.76961
21
-4.52187
0
LINE
8
BLACK
6
CONTINUOUS
10
5.76961
20
-4.52187
11
5.75622
21
-4.51772
0
LINE
8
BLACK
6
CONTINUOUS
10
5.75622
20
-4.51772
11
5.74337
21
-4.51211
0
LINE
8
BLACK
6
CONTINUOUS
10
5.74337
20
-4.51211
11
5.73123
21
-4.5051
0
LINE
8
BLACK
6
CONTINUOUS
10
5.73123
20
-4.5051
11
5.71994
21
-4.49678
0
LINE
8
BLACK
6
CONTINUOUS
10
5.71994
20
-4.49678
11
5.70965
21
-4.48725
0
LINE
8
BLACK
6
CONTINUOUS
10
5.70965
20
-4.48725
11
5.70049
21
-4.47663
0
LINE
8
BLACK
6
CONTINUOUS
10
5.70049
20
-4.47663
11
5.69257
21
-4.46506
0
LINE
8
BLACK
6
CONTINUOUS
10
5.69257
20
-4.46506
11
5.68598
21
-4.45268
0
LINE
8
BLACK
6
CONTINUOUS
10
5.68598
20
-4.45268
11
5.68082
21
-4.43965
0
LINE
8
BLACK
6
CONTINUOUS
10
5.68082
20
-4.43965
11
5.67714
21
-4.42611
0
LINE
8
BLACK
6
CONTINUOUS
10
5.67714
20
-4.42611
11
5.675
21
-4.41226
0
LINE
8
BLACK
6
CONTINUOUS
10
5.675
20
-4.41226
11
5.67441
21
-4.39825
0
LINE
8
BLACK
6
CONTINUOUS
10
5.67441
20
-4.39825
11
5.67453
21
-4.39652
0
LINE
8
BLACK
6
CONTINUOUS
10
5.67453
20
-4.39652
11
5.67539
21
-4.38426
0
LINE
8
BLACK
6
CONTINUOUS
10
5.67539
20
-4.38426
11
5.67792
21
-4.37047
0
LINE
8
BLACK
6
CONTINUOUS
10
5.6914
20
-4.4219
11
5.69463
21
-4.43424
0
LINE
8
BLACK
6
CONTINUOUS
10
5.69463
20
-4.43424
11
5.69927
21
-4.44612
0
LINE
8
BLACK
6
CONTINUOUS
10
5.69927
20
-4.44612
11
5.70524
21
-4.45739
0
LINE
8
BLACK
6
CONTINUOUS
10
5.70524
20
-4.45739
11
5.71246
21
-4.4679
0
LINE
8
BLACK
6
CONTINUOUS
10
5.71246
20
-4.4679
11
5.72085
21
-4.47751
0
LINE
8
BLACK
6
CONTINUOUS
10
5.72085
20
-4.47751
11
5.73028
21
-4.4861
0
LINE
8
BLACK
6
CONTINUOUS
10
5.73028
20
-4.4861
11
5.74064
21
-4.49354
0
LINE
8
BLACK
6
CONTINUOUS
10
5.74064
20
-4.49354
11
5.75178
21
-4.49974
0
LINE
8
BLACK
6
CONTINUOUS
10
5.75178
20
-4.49974
11
5.76357
21
-4.50463
0
LINE
8
BLACK
6
CONTINUOUS
10
5.76357
20
-4.50463
11
5.77583
21
-4.50812
0
LINE
8
BLACK
6
CONTINUOUS
10
5.77583
20
-4.50812
11
5.78842
21
-4.51018
0
LINE
8
BLACK
6
CONTINUOUS
10
5.78842
20
-4.51018
11
5.80116
21
-4.51078
0
LINE
8
BLACK
6
CONTINUOUS
10
5.80116
20
-4.51078
11
5.81389
21
-4.50991
0
LINE
8
BLACK
6
CONTINUOUS
10
5.81389
20
-4.50991
11
5.82643
21
-4.50759
0
LINE
8
BLACK
6
CONTINUOUS
10
5.82643
20
-4.50759
11
5.83862
21
-4.50384
0
LINE
8
BLACK
6
CONTINUOUS
10
5.83862
20
-4.50384
11
5.8503
21
-4.49871
0
LINE
8
BLACK
6
CONTINUOUS
10
5.8503
20
-4.49871
11
5.86131
21
-4.49228
0
LINE
8
BLACK
6
CONTINUOUS
10
5.86131
20
-4.49228
11
5.87151
21
-4.48462
0
LINE
8
BLACK
6
CONTINUOUS
10
5.87151
20
-4.48462
11
5.88076
21
-4.47584
0
LINE
8
BLACK
6
CONTINUOUS
10
5.88076
20
-4.47584
11
5.88894
21
-4.46605
0
LINE
8
BLACK
6
CONTINUOUS
10
5.88894
20
-4.46605
11
5.89594
21
-4.45539
0
LINE
8
BLACK
6
CONTINUOUS
10
5.89594
20
-4.45539
11
5.90168
21
-4.444
0
LINE
8
BLACK
6
CONTINUOUS
10
5.90168
20
-4.444
11
5.90606
21
-4.43202
0
LINE
8
BLACK
6
CONTINUOUS
10
5.90606
20
-4.43202
11
5.90904
21
-4.41962
0
LINE
8
BLACK
6
CONTINUOUS
10
5.90904
20
-4.41962
11
5.91057
21
-4.40696
0
LINE
8
BLACK
6
CONTINUOUS
10
5.91057
20
-4.40696
11
5.91079
21
-4.4
0
LINE
8
BLACK
6
CONTINUOUS
10
5.91079
20
-4.4
11
5.91005
21
-4.38727
0
LINE
8
BLACK
6
CONTINUOUS
10
5.91005
20
-4.38727
11
5.90786
21
-4.3747
0
LINE
8
BLACK
6
CONTINUOUS
10
5.90786
20
-4.3747
11
5.90424
21
-4.36247
0
LINE
8
BLACK
6
CONTINUOUS
10
5.90424
20
-4.36247
11
5.89923
21
-4.35074
0
LINE
8
BLACK
6
CONTINUOUS
10
5.89923
20
-4.35074
11
5.89291
21
-4.33966
0
LINE
8
BLACK
6
CONTINUOUS
10
5.89291
20
-4.33966
11
5.88536
21
-4.32938
0
LINE
8
BLACK
6
CONTINUOUS
10
5.88536
20
-4.32938
11
5.87668
21
-4.32004
0
LINE
8
BLACK
6
CONTINUOUS
10
5.87668
20
-4.32004
11
5.86698
21
-4.31175
0
LINE
8
BLACK
6
CONTINUOUS
10
5.86698
20
-4.31175
11
5.8564
21
-4.30464
0
LINE
8
BLACK
6
CONTINUOUS
10
5.8564
20
-4.30464
11
5.84506
21
-4.29879
0
LINE
8
BLACK
6
CONTINUOUS
10
5.84506
20
-4.29879
11
5.83313
21
-4.29428
0
LINE
8
BLACK
6
CONTINUOUS
10
5.83313
20
-4.29428
11
5.82076
21
-4.29117
0
LINE
8
BLACK
6
CONTINUOUS
10
5.82076
20
-4.29117
11
5.80811
21
-4.28951
0
LINE
8
BLACK
6
CONTINUOUS
10
5.80811
20
-4.28951
11
5.79536
21
-4.28931
0
LINE
8
BLACK
6
CONTINUOUS
10
5.79536
20
-4.28931
11
5.78267
21
-4.29058
0
LINE
8
BLACK
6
CONTINUOUS
10
5.78267
20
-4.29058
11
5.77021
21
-4.29329
0
LINE
8
BLACK
6
CONTINUOUS
10
5.77021
20
-4.29329
11
5.75814
21
-4.29743
0
LINE
8
BLACK
6
CONTINUOUS
10
5.75814
20
-4.29743
11
5.74663
21
-4.30292
0
LINE
8
BLACK
6
CONTINUOUS
10
5.74663
20
-4.30292
11
5.73582
21
-4.30969
0
LINE
8
BLACK
6
CONTINUOUS
10
5.73582
20
-4.30969
11
5.72587
21
-4.31767
0
LINE
8
BLACK
6
CONTINUOUS
10
5.72587
20
-4.31767
11
5.7169
21
-4.32673
0
LINE
8
BLACK
6
CONTINUOUS
10
5.7169
20
-4.32673
11
5.70903
21
-4.33677
0
LINE
8
BLACK
6
CONTINUOUS
10
5.70903
20
-4.33677
11
5.70236
21
-4.34765
0
LINE
8
BLACK
6
CONTINUOUS
10
5.70236
20
-4.34765
11
5.69699
21
-4.35922
0
LINE
8
BLACK
6
CONTINUOUS
10
5.69699
20
-4.35922
11
5.69299
21
-4.37133
0
LINE
8
BLACK
6
CONTINUOUS
10
5.69299
20
-4.37133
11
5.6904
21
-4.38382
0
LINE
8
BLACK
6
CONTINUOUS
10
5.6904
20
-4.38382
11
5.68927
21
-4.39652
0
LINE
8
BLACK
6
CONTINUOUS
10
5.68927
20
-4.39652
11
5.6896
21
-4.40927
0
LINE
8
BLACK
6
CONTINUOUS
10
5.6896
20
-4.40927
11
5.6914
21
-4.4219
0
LINE
8
BLACK
6
CONTINUOUS
10
4.47792
20
-3.97047
11
4.48197
21
-3.95704
0
LINE
8
BLACK
6
CONTINUOUS
10
4.48197
20
-3.95704
11
4.4875
21
-3.94415
0
LINE
8
BLACK
6
CONTINUOUS
10
4.4875
20
-3.94415
11
4.49442
21
-3.93196
0
LINE
8
BLACK
6
CONTINUOUS
10
4.49442
20
-3.93196
11
4.50267
21
-3.92062
0
LINE
8
BLACK
6
CONTINUOUS
10
4.50267
20
-3.92062
11
4.51212
21
-3.91026
0
LINE
8
BLACK
6
CONTINUOUS
10
4.51212
20
-3.91026
11
4.52267
21
-3.90103
0
LINE
8
BLACK
6
CONTINUOUS
10
4.52267
20
-3.90103
11
4.53419
21
-3.89302
0
LINE
8
BLACK
6
CONTINUOUS
10
4.53419
20
-3.89302
11
4.54652
21
-3.88635
0
LINE
8
BLACK
6
CONTINUOUS
10
4.54652
20
-3.88635
11
4.55952
21
-3.8811
0
LINE
8
BLACK
6
CONTINUOUS
10
4.55952
20
-3.8811
11
4.57303
21
-3.87733
0
LINE
8
BLACK
6
CONTINUOUS
10
4.57303
20
-3.87733
11
4.58687
21
-3.87509
0
LINE
8
BLACK
6
CONTINUOUS
10
4.58687
20
-3.87509
11
4.60088
21
-3.8744
0
LINE
8
BLACK
6
CONTINUOUS
10
4.60088
20
-3.8744
11
4.61487
21
-3.87528
0
LINE
8
BLACK
6
CONTINUOUS
10
4.61487
20
-3.87528
11
4.62868
21
-3.87772
0
LINE
8
BLACK
6
CONTINUOUS
10
4.62868
20
-3.87772
11
4.64213
21
-3.88168
0
LINE
8
BLACK
6
CONTINUOUS
10
4.64213
20
-3.88168
11
4.65506
21
-3.88711
0
LINE
8
BLACK
6
CONTINUOUS
10
4.65506
20
-3.88711
11
4.6673
21
-3.89395
0
LINE
8
BLACK
6
CONTINUOUS
10
4.6673
20
-3.89395
11
4.6787
21
-3.90212
0
LINE
8
BLACK
6
CONTINUOUS
10
4.6787
20
-3.90212
11
4.68912
21
-3.9115
0
LINE
8
BLACK
6
CONTINUOUS
10
4.68912
20
-3.9115
11
4.69843
21
-3.92198
0
LINE
8
BLACK
6
CONTINUOUS
10
4.69843
20
-3.92198
11
4.70651
21
-3.93344
0
LINE
8
BLACK
6
CONTINUOUS
10
4.70651
20
-3.93344
11
4.71327
21
-3.94573
0
LINE
8
BLACK
6
CONTINUOUS
10
4.71327
20
-3.94573
11
4.71861
21
-3.95869
0
LINE
8
BLACK
6
CONTINUOUS
10
4.71861
20
-3.95869
11
4.72248
21
-3.97217
0
LINE
8
BLACK
6
CONTINUOUS
10
4.72248
20
-3.97217
11
4.72482
21
-3.986
0
LINE
8
BLACK
6
CONTINUOUS
10
4.72482
20
-3.986
11
4.7256
21
-4
0
LINE
8
BLACK
6
CONTINUOUS
10
4.7256
20
-4
11
4.72555
21
-4.00351
0
LINE
8
BLACK
6
CONTINUOUS
10
4.72555
20
-4.00351
11
4.72438
21
-4.01748
0
LINE
8
BLACK
6
CONTINUOUS
10
4.72438
20
-4.01748
11
4.72165
21
-4.03124
0
LINE
8
BLACK
6
CONTINUOUS
10
4.72165
20
-4.03124
11
4.71741
21
-4.0446
0
LINE
8
BLACK
6
CONTINUOUS
10
4.71741
20
-4.0446
11
4.71171
21
-4.05741
0
LINE
8
BLACK
6
CONTINUOUS
10
4.71171
20
-4.05741
11
4.70461
21
-4.06951
0
LINE
8
BLACK
6
CONTINUOUS
10
4.70461
20
-4.06951
11
4.69622
21
-4.08073
0
LINE
8
BLACK
6
CONTINUOUS
10
4.69622
20
-4.08073
11
4.68662
21
-4.09096
0
LINE
8
BLACK
6
CONTINUOUS
10
4.68662
20
-4.09096
11
4.67594
21
-4.10004
0
LINE
8
BLACK
6
CONTINUOUS
10
4.67594
20
-4.10004
11
4.66431
21
-4.10789
0
LINE
8
BLACK
6
CONTINUOUS
10
4.66431
20
-4.10789
11
4.65189
21
-4.11438
0
LINE
8
BLACK
6
CONTINUOUS
10
4.65189
20
-4.11438
11
4.63881
21
-4.11945
0
LINE
8
BLACK
6
CONTINUOUS
10
4.63881
20
-4.11945
11
4.62526
21
-4.12303
0
LINE
8
BLACK
6
CONTINUOUS
10
4.62526
20
-4.12303
11
4.61138
21
-4.12508
0
LINE
8
BLACK
6
CONTINUOUS
10
4.61138
20
-4.12508
11
4.59737
21
-4.12557
0
LINE
8
BLACK
6
CONTINUOUS
10
4.59737
20
-4.12557
11
4.58339
21
-4.1245
0
LINE
8
BLACK
6
CONTINUOUS
10
4.58339
20
-4.1245
11
4.56961
21
-4.12187
0
LINE
8
BLACK
6
CONTINUOUS
10
4.56961
20
-4.12187
11
4.55622
21
-4.11772
0
LINE
8
BLACK
6
CONTINUOUS
10
4.55622
20
-4.11772
11
4.54337
21
-4.11211
0
LINE
8
BLACK
6
CONTINUOUS
10
4.54337
20
-4.11211
11
4.53123
21
-4.1051
0
LINE
8
BLACK
6
CONTINUOUS
10
4.53123
20
-4.1051
11
4.51994
21
-4.09678
0
LINE
8
BLACK
6
CONTINUOUS
10
4.51994
20
-4.09678
11
4.50965
21
-4.08725
0
LINE
8
BLACK
6
CONTINUOUS
10
4.50965
20
-4.08725
11
4.50049
21
-4.07663
0
LINE
8
BLACK
6
CONTINUOUS
10
4.50049
20
-4.07663
11
4.49257
21
-4.06506
0
LINE
8
BLACK
6
CONTINUOUS
10
4.49257
20
-4.06506
11
4.48598
21
-4.05268
0
LINE
8
BLACK
6
CONTINUOUS
10
4.48598
20
-4.05268
11
4.48082
21
-4.03965
0
LINE
8
BLACK
6
CONTINUOUS
10
4.48082
20
-4.03965
11
4.47714
21
-4.02611
0
LINE
8
BLACK
6
CONTINUOUS
10
4.47714
20
-4.02611
11
4.475
21
-4.01226
0
LINE
8
BLACK
6
CONTINUOUS
10
4.475
20
-4.01226
11
4.47441
21
-3.99825
0
LINE
8
BLACK
6
CONTINUOUS
10
4.47441
20
-3.99825
11
4.47453
21
-3.99652
0
LINE
8
BLACK
6
CONTINUOUS
10
4.47453
20
-3.99652
11
4.47539
21
-3.98426
0
LINE
8
BLACK
6
CONTINUOUS
10
4.47539
20
-3.98426
11
4.47792
21
-3.97047
0
LINE
8
BLACK
6
CONTINUOUS
10
4.4914
20
-4.0219
11
4.49463
21
-4.03424
0
LINE
8
BLACK
6
CONTINUOUS
10
4.49463
20
-4.03424
11
4.49927
21
-4.04612
0
LINE
8
BLACK
6
CONTINUOUS
10
4.49927
20
-4.04612
11
4.50524
21
-4.05739
0
LINE
8
BLACK
6
CONTINUOUS
10
4.50524
20
-4.05739
11
4.51246
21
-4.0679
0
LINE
8
BLACK
6
CONTINUOUS
10
4.51246
20
-4.0679
11
4.52085
21
-4.07751
0
LINE
8
BLACK
6
CONTINUOUS
10
4.52085
20
-4.07751
11
4.53028
21
-4.0861
0
LINE
8
BLACK
6
CONTINUOUS
10
4.53028
20
-4.0861
11
4.54064
21
-4.09354
0
LINE
8
BLACK
6
CONTINUOUS
10
4.54064
20
-4.09354
11
4.55178
21
-4.09974
0
LINE
8
BLACK
6
CONTINUOUS
10
4.55178
20
-4.09974
11
4.56357
21
-4.10463
0
LINE
8
BLACK
6
CONTINUOUS
10
4.56357
20
-4.10463
11
4.57583
21
-4.10812
0
LINE
8
BLACK
6
CONTINUOUS
10
4.57583
20
-4.10812
11
4.58842
21
-4.11018
0
LINE
8
BLACK
6
CONTINUOUS
10
4.58842
20
-4.11018
11
4.60116
21
-4.11078
0
LINE
8
BLACK
6
CONTINUOUS
10
4.60116
20
-4.11078
11
4.61389
21
-4.10991
0
LINE
8
BLACK
6
CONTINUOUS
10
4.61389
20
-4.10991
11
4.62643
21
-4.10759
0
LINE
8
BLACK
6
CONTINUOUS
10
4.62643
20
-4.10759
11
4.63862
21
-4.10384
0
LINE
8
BLACK
6
CONTINUOUS
10
4.63862
20
-4.10384
11
4.6503
21
-4.09871
0
LINE
8
BLACK
6
CONTINUOUS
10
4.6503
20
-4.09871
11
4.66131
21
-4.09228
0
LINE
8
BLACK
6
CONTINUOUS
10
4.66131
20
-4.09228
11
4.67151
21
-4.08462
0
LINE
8
BLACK
6
CONTINUOUS
10
4.67151
20
-4.08462
11
4.68076
21
-4.07584
0
LINE
8
BLACK
6
CONTINUOUS
10
4.68076
20
-4.07584
11
4.68894
21
-4.06605
0
LINE
8
BLACK
6
CONTINUOUS
10
4.68894
20
-4.06605
11
4.69594
21
-4.05539
0
LINE
8
BLACK
6
CONTINUOUS
10
4.69594
20
-4.05539
11
4.70168
21
-4.044
0
LINE
8
BLACK
6
CONTINUOUS
10
4.70168
20
-4.044
11
4.70606
21
-4.03202
0
LINE
8
BLACK
6
CONTINUOUS
10
4.70606
20
-4.03202
11
4.70904
21
-4.01962
0
LINE
8
BLACK
6
CONTINUOUS
10
4.70904
20
-4.01962
11
4.71057
21
-4.00696
0
LINE
8
BLACK
6
CONTINUOUS
10
4.71057
20
-4.00696
11
4.71079
21
-4
0
LINE
8
BLACK
6
CONTINUOUS
10
4.71079
20
-4
11
4.71005
21
-3.98727
0
LINE
8
BLACK
6
CONTINUOUS
10
4.71005
20
-3.98727
11
4.70786
21
-3.9747
0
LINE
8
BLACK
6
CONTINUOUS
10
4.70786
20
-3.9747
11
4.70424
21
-3.96247
0
LINE
8
BLACK
6
CONTINUOUS
10
4.70424
20
-3.96247
11
4.69923
21
-3.95074
0
LINE
8
BLACK
6
CONTINUOUS
10
4.69923
20
-3.95074
11
4.69291
21
-3.93966
0
LINE
8
BLACK
6
CONTINUOUS
10
4.69291
20
-3.93966
11
4.68536
21
-3.92938
0
LINE
8
BLACK
6
CONTINUOUS
10
4.68536
20
-3.92938
11
4.67668
21
-3.92004
0
LINE
8
BLACK
6
CONTINUOUS
10
4.67668
20
-3.92004
11
4.66698
21
-3.91175
0
LINE
8
BLACK
6
CONTINUOUS
10
4.66698
20
-3.91175
11
4.6564
21
-3.90464
0
LINE
8
BLACK
6
CONTINUOUS
10
4.6564
20
-3.90464
11
4.64506
21
-3.89879
0
LINE
8
BLACK
6
CONTINUOUS
10
4.64506
20
-3.89879
11
4.63313
21
-3.89428
0
LINE
8
BLACK
6
CONTINUOUS
10
4.63313
20
-3.89428
11
4.62076
21
-3.89117
0
LINE
8
BLACK
6
CONTINUOUS
10
4.62076
20
-3.89117
11
4.60811
21
-3.88951
0
LINE
8
BLACK
6
CONTINUOUS
10
4.60811
20
-3.88951
11
4.59536
21
-3.88931
0
LINE
8
BLACK
6
CONTINUOUS
10
4.59536
20
-3.88931
11
4.58267
21
-3.89058
0
LINE
8
BLACK
6
CONTINUOUS
10
4.58267
20
-3.89058
11
4.57021
21
-3.89329
0
LINE
8
BLACK
6
CONTINUOUS
10
4.57021
20
-3.89329
11
4.55814
21
-3.89743
0
LINE
8
BLACK
6
CONTINUOUS
10
4.55814
20
-3.89743
11
4.54663
21
-3.90292
0
LINE
8
BLACK
6
CONTINUOUS
10
4.54663
20
-3.90292
11
4.53582
21
-3.90969
0
LINE
8
BLACK
6
CONTINUOUS
10
4.53582
20
-3.90969
11
4.52587
21
-3.91767
0
LINE
8
BLACK
6
CONTINUOUS
10
4.52587
20
-3.91767
11
4.5169
21
-3.92673
0
LINE
8
BLACK
6
CONTINUOUS
10
4.5169
20
-3.92673
11
4.50903
21
-3.93677
0
LINE
8
BLACK
6
CONTINUOUS
10
4.50903
20
-3.93677
11
4.50236
21
-3.94765
0
LINE
8
BLACK
6
CONTINUOUS
10
4.50236
20
-3.94765
11
4.49699
21
-3.95922
0
LINE
8
BLACK
6
CONTINUOUS
10
4.49699
20
-3.95922
11
4.49299
21
-3.97133
0
LINE
8
BLACK
6
CONTINUOUS
10
4.49299
20
-3.97133
11
4.4904
21
-3.98382
0
LINE
8
BLACK
6
CONTINUOUS
10
4.4904
20
-3.98382
11
4.48927
21
-3.99652
0
LINE
8
BLACK
6
CONTINUOUS
10
4.48927
20
-3.99652
11
4.4896
21
-4.00927
0
LINE
8
BLACK
6
CONTINUOUS
10
4.4896
20
-4.00927
11
4.4914
21
-4.0219
0
LINE
8
BLACK
6
CONTINUOUS
10
5.67792
20
-3.97047
11
5.68197
21
-3.95704
0
LINE
8
BLACK
6
CONTINUOUS
10
5.68197
20
-3.95704
11
5.6875
21
-3.94415
0
LINE
8
BLACK
6
CONTINUOUS
10
5.6875
20
-3.94415
11
5.69442
21
-3.93196
0
LINE
8
BLACK
6
CONTINUOUS
10
5.69442
20
-3.93196
11
5.70267
21
-3.92062
0
LINE
8
BLACK
6
CONTINUOUS
10
5.70267
20
-3.92062
11
5.71212
21
-3.91026
0
LINE
8
BLACK
6
CONTINUOUS
10
5.71212
20
-3.91026
11
5.72267
21
-3.90103
0
LINE
8
BLACK
6
CONTINUOUS
10
5.72267
20
-3.90103
11
5.73419
21
-3.89302
0
LINE
8
BLACK
6
CONTINUOUS
10
5.73419
20
-3.89302
11
5.74652
21
-3.88635
0
LINE
8
BLACK
6
CONTINUOUS
10
5.74652
20
-3.88635
11
5.75952
21
-3.8811
0
LINE
8
BLACK
6
CONTINUOUS
10
5.75952
20
-3.8811
11
5.77303
21
-3.87733
0
LINE
8
BLACK
6
CONTINUOUS
10
5.77303
20
-3.87733
11
5.78687
21
-3.87509
0
LINE
8
BLACK
6
CONTINUOUS
10
5.78687
20
-3.87509
11
5.80088
21
-3.8744
0
LINE
8
BLACK
6
CONTINUOUS
10
5.80088
20
-3.8744
11
5.81487
21
-3.87528
0
LINE
8
BLACK
6
CONTINUOUS
10
5.81487
20
-3.87528
11
5.82868
21
-3.87772
0
LINE
8
BLACK
6
CONTINUOUS
10
5.82868
20
-3.87772
11
5.84213
21
-3.88168
0
LINE
8
BLACK
6
CONTINUOUS
10
5.84213
20
-3.88168
11
5.85506
21
-3.88711
0
LINE
8
BLACK
6
CONTINUOUS
10
5.85506
20
-3.88711
11
5.8673
21
-3.89395
0
LINE
8
BLACK
6
CONTINUOUS
10
5.8673
20
-3.89395
11
5.8787
21
-3.90212
0
LINE
8
BLACK
6
CONTINUOUS
10
5.8787
20
-3.90212
11
5.88912
21
-3.9115
0
LINE
8
BLACK
6
CONTINUOUS
10
5.88912
20
-3.9115
11
5.89843
21
-3.92198
0
LINE
8
BLACK
6
CONTINUOUS
10
5.89843
20
-3.92198
11
5.90651
21
-3.93344
0
LINE
8
BLACK
6
CONTINUOUS
10
5.90651
20
-3.93344
11
5.91327
21
-3.94573
0
LINE
8
BLACK
6
CONTINUOUS
10
5.91327
20
-3.94573
11
5.91861
21
-3.95869
0
LINE
8
BLACK
6
CONTINUOUS
10
5.91861
20
-3.95869
11
5.92248
21
-3.97217
0
LINE
8
BLACK
6
CONTINUOUS
10
5.92248
20
-3.97217
11
5.92482
21
-3.986
0
LINE
8
BLACK
6
CONTINUOUS
10
5.92482
20
-3.986
11
5.9256
21
-4
0
LINE
8
BLACK
6
CONTINUOUS
10
5.9256
20
-4
11
5.92555
21
-4.00351
0
LINE
8
BLACK
6
CONTINUOUS
10
5.92555
20
-4.00351
11
5.92438
21
-4.01748
0
LINE
8
BLACK
6
CONTINUOUS
10
5.92438
20
-4.01748
11
5.92165
21
-4.03124
0
LINE
8
BLACK
6
CONTINUOUS
10
5.92165
20
-4.03124
11
5.91741
21
-4.0446
0
LINE
8
BLACK
6
CONTINUOUS
10
5.91741
20
-4.0446
11
5.91171
21
-4.05741
0
LINE
8
BLACK
6
CONTINUOUS
10
5.91171
20
-4.05741
11
5.90461
21
-4.06951
0
LINE
8
BLACK
6
CONTINUOUS
10
5.90461
20
-4.06951
11
5.89622
21
-4.08073
0
LINE
8
BLACK
6
CONTINUOUS
10
5.89622
20
-4.08073
11
5.88662
21
-4.09096
0
LINE
8
BLACK
6
CONTINUOUS
10
5.88662
20
-4.09096
11
5.87594
21
-4.10004
0
LINE
8
BLACK
6
CONTINUOUS
10
5.87594
20
-4.10004
11
5.86431
21
-4.10789
0
LINE
8
BLACK
6
CONTINUOUS
10
5.86431
20
-4.10789
11
5.85189
21
-4.11438
0
LINE
8
BLACK
6
CONTINUOUS
10
5.85189
20
-4.11438
11
5.83881
21
-4.11945
0
LINE
8
BLACK
6
CONTINUOUS
10
5.83881
20
-4.11945
11
5.82526
21
-4.12303
0
LINE
8
BLACK
6
CONTINUOUS
10
5.82526
20
-4.12303
11
5.81138
21
-4.12508
0
LINE
8
BLACK
6
CONTINUOUS
10
5.81138
20
-4.12508
11
5.79737
21
-4.12557
0
LINE
8
BLACK
6
CONTINUOUS
10
5.79737
20
-4.12557
11
5.78339
21
-4.1245
0
LINE
8
BLACK
6
CONTINUOUS
10
5.78339
20
-4.1245
11
5.76961
21
-4.12187
0
LINE
8
BLACK
6
CONTINUOUS
10
5.76961
20
-4.12187
11
5.75622
21
-4.11772
0
LINE
8
BLACK
6
CONTINUOUS
10
5.75622
20
-4.11772
11
5.74337
21
-4.11211
0
LINE
8
BLACK
6
CONTINUOUS
10
5.74337
20
-4.11211
11
5.73123
21
-4.1051
0
LINE
8
BLACK
6
CONTINUOUS
10
5.73123
20
-4.1051
11
5.71994
21
-4.09678
0
LINE
8
BLACK
6
CONTINUOUS
10
5.71994
20
-4.09678
11
5.70965
21
-4.08725
0
LINE
8
BLACK
6
CONTINUOUS
10
5.70965
20
-4.08725
11
5.70049
21
-4.07663
0
LINE
8
BLACK
6
CONTINUOUS
10
5.70049
20
-4.07663
11
5.69257
21
-4.06506
0
LINE
8
BLACK
6
CONTINUOUS
10
5.69257
20
-4.06506
11
5.68598
21
-4.05268
0
LINE
8
BLACK
6
CONTINUOUS
10
5.68598
20
-4.05268
11
5.68082
21
-4.03965
0
LINE
8
BLACK
6
CONTINUOUS
10
5.68082
20
-4.03965
11
5.67714
21
-4.02611
0
LINE
8
BLACK
6
CONTINUOUS
10
5.67714
20
-4.02611
11
5.675
21
-4.01226
0
LINE
8
BLACK
6
CONTINUOUS
10
5.675
20
-4.01226
11
5.67441
21
-3.99825
0
LINE
8
BLACK
6
CONTINUOUS
10
5.67441
20
-3.99825
11
5.67453
21
-3.99652
0
LINE
8
BLACK
6
CONTINUOUS
10
5.67453
20
-3.99652
11
5.67539
21
-3.98426
0
LINE
8
BLACK
6
CONTINUOUS
10
5.67539
20
-3.98426
11
5.67792
21
-3.97047
0
LINE
8
BLACK
6
CONTINUOUS
10
5.6914
20
-4.0219
11
5.69463
21
-4.03424
0
LINE
8
BLACK
6
CONTINUOUS
10
5.69463
20
-4.03424
11
5.69927
21
-4.04612
0
LINE
8
BLACK
6
CONTINUOUS
10
5.69927
20
-4.04612
11
5.70524
21
-4.05739
0
LINE
8
BLACK
6
CONTINUOUS
10
5.70524
20
-4.05739
11
5.71246
21
-4.0679
0
LINE
8
BLACK
6
CONTINUOUS
10
5.71246
20
-4.0679
11
5.72085
21
-4.07751
0
LINE
8
BLACK
6
CONTINUOUS
10
5.72085
20
-4.07751
11
5.73028
21
-4.0861
0
LINE
8
BLACK
6
CONTINUOUS
10
5.73028
20
-4.0861
11
5.74064
21
-4.09354
0
LINE
8
BLACK
6
CONTINUOUS
10
5.74064
20
-4.09354
11
5.75178
21
-4.09974
0
LINE
8
BLACK
6
CONTINUOUS
10
5.75178
20
-4.09974
11
5.76357
21
-4.10463
0
LINE
8
BLACK
6
CONTINUOUS
10
5.76357
20
-4.10463
11
5.77583
21
-4.10812
0
LINE
8
BLACK
6
CONTINUOUS
10
5.77583
20
-4.10812
11
5.78842
21
-4.11018
0
LINE
8
BLACK
6
CONTINUOUS
10
5.78842
20
-4.11018
11
5.80116
21
-4.11078
0
LINE
8
BLACK
6
CONTINUOUS
10
5.80116
20
-4.11078
11
5.81389
21
-4.10991
0
LINE
8
BLACK
6
CONTINUOUS
10
5.81389
20
-4.10991
11
5.82643
21
-4.10759
0
LINE
8
BLACK
6
CONTINUOUS
10
5.82643
20
-4.10759
11
5.83862
21
-4.10384
0
LINE
8
BLACK
6
CONTINUOUS
10
5.83862
20
-4.10384
11
5.8503
21
-4.09871
0
LINE
8
BLACK
6
CONTINUOUS
10
5.8503
20
-4.09871
11
5.86131
21
-4.09228
0
LINE
8
BLACK
6
CONTINUOUS
10
5.86131
20
-4.09228
11
5.87151
21
-4.08462
0
LINE
8
BLACK
6
CONTINUOUS
10
5.87151
20
-4.08462
11
5.88076
21
-4.07584
0
LINE
8
BLACK
6
CONTINUOUS
10
5.88076
20
-4.07584
11
5.88894
21
-4.06605
0
LINE
8
BLACK
6
CONTINUOUS
10
5.88894
20
-4.06605
11
5.89594
21
-4.05539
0
LINE
8
BLACK
6
CONTINUOUS
10
5.89594
20
-4.05539
11
5.90168
21
-4.044
0
LINE
8
BLACK
6
CONTINUOUS
10
5.90168
20
-4.044
11
5.90606
21
-4.03202
0
LINE
8
BLACK
6
CONTINUOUS
10
5.90606
20
-4.03202
11
5.90904
21
-4.01962
0
LINE
8
BLACK
6
CONTINUOUS
10
5.90904
20
-4.01962
11
5.91057
21
-4.00696
0
LINE
8
BLACK
6
CONTINUOUS
10
5.91057
20
-4.00696
11
5.91079
21
-4
0
LINE
8
BLACK
6
CONTINUOUS
10
5.91079
20
-4
11
5.91005
21
-3.98727
0
LINE
8
BLACK
6
CONTINUOUS
10
5.91005
20
-3.98727
11
5.90786
21
-3.9747
0
LINE
8
BLACK
6
CONTINUOUS
10
5.90786
20
-3.9747
11
5.90424
21
-3.96247
0
LINE
8
BLACK
6
CONTINUOUS
10
5.90424
20
-3.96247
11
5.89923
21
-3.95074
0
LINE
8
BLACK
6
CONTINUOUS
10
5.89923
20
-3.95074
11
5.89291
21
-3.93966
0
LINE
8
BLACK
6
CONTINUOUS
10
5.89291
20
-3.93966
11
5.88536
21
-3.92938
0
LINE
8
BLACK
6
CONTINUOUS
10
5.88536
20
-3.92938
11
5.87668
21
-3.92004
0
LINE
8
BLACK
6
CONTINUOUS
10
5.87668
20
-3.92004
11
5.86698
21
-3.91175
0
LINE
8
BLACK
6
CONTINUOUS
10
5.86698
20
-3.91175
11
5.8564
21
-3.90464
0
LINE
8
BLACK
6
CONTINUOUS
10
5.8564
20
-3.90464
11
5.84506
21
-3.89879
0
LINE
8
BLACK
6
CONTINUOUS
10
5.84506
20
-3.89879
11
5.83313
21
-3.89428
0
LINE
8
BLACK
6
CONTINUOUS
10
5.83313
20
-3.89428
11
5.82076
21
-3.89117
0
LINE
8
BLACK
6
CONTINUOUS
10
5.82076
20
-3.89117
11
5.80811
21
-3.88951
0
LINE
8
BLACK
6
CONTINUOUS
10
5.80811
20
-3.88951
11
5.79536
21
-3.88931
0
LINE
8
BLACK
6
CONTINUOUS
10
5.79536
20
-3.88931
11
5.78267
21
-3.89058
0
LINE
8
BLACK
6
CONTINUOUS
10
5.78267
20
-3.89058
11
5.77021
21
-3.89329
0
LINE
8
BLACK
6
CONTINUOUS
10
5.77021
20
-3.89329
11
5.75814
21
-3.89743
0
LINE
8
BLACK
6
CONTINUOUS
10
5.75814
20
-3.89743
11
5.74663
21
-3.90292
0
LINE
8
BLACK
6
CONTINUOUS
10
5.74663
20
-3.90292
11
5.73582
21
-3.90969
0
LINE
8
BLACK
6
CONTINUOUS
10
5.73582
20
-3.90969
11
5.72587
21
-3.91767
0
LINE
8
BLACK
6
CONTINUOUS
10
5.72587
20
-3.91767
11
5.7169
21
-3.92673
0
LINE
8
BLACK
6
CONTINUOUS
10
5.7169
20
-3.92673
11
5.70903
21
-3.93677
0
LINE
8
BLACK
6
CONTINUOUS
10
5.70903
20
-3.93677
11
5.70236
21
-3.94765
0
LINE
8
BLACK
6
CONTINUOUS
10
5.70236
20
-3.94765
11
5.69699
21
-3.95922
0
LINE
8
BLACK
6
CONTINUOUS
10
5.69699
20
-3.95922
11
5.69299
21
-3.97133
0
LINE
8
BLACK
6
CONTINUOUS
10
5.69299
20
-3.97133
11
5.6904
21
-3.98382
0
LINE
8
BLACK
6
CONTINUOUS
10
5.6904
20
-3.98382
11
5.68927
21
-3.99652
0
LINE
8
BLACK
6
CONTINUOUS
10
5.68927
20
-3.99652
11
5.6896
21
-4.00927
0
LINE
8
BLACK
6
CONTINUOUS
10
5.6896
20
-4.00927
11
5.6914
21
-4.0219
  0
ENDSEC
  0
EOF
