  0
SECTION
  2
HEADER
  9
$ANGBASE
  50
0.0
  9
$ANGDIR
  70
1
  9
$MEASUREMENT
  70
0
  0
ENDSEC
  0
SECTION
  2
TABLES
  0
TABLE
  2
LTYPE
  70
4
  0
LTYPE
  5
40F
  2
CONTINUOUS
  70
0
  3
Solid line
  72
65
  73
0
  40
0.0
  0
LTYPE
  5
410
  2
DASHDOT
 70
0
  3
Dash Dot ____ _ ____ _
 72
65
 73
4
 40
2.0
 49
1.25
 49
-0.25
 49
0.25
 49
-0.25
  0
LTYPE
  5
411
  2
DASHED
 70
0
  3
Dashed __ __ __ __ __
 72
65
 73
2
 40
0.75
 49
0.5
 49
-0.25
  0
LTYPE
  5
43B
  2
DOTTED
 70
0
  3
Dotted .  .  .  .
 72
65
 73
2
 40
0.2
 49
0.0
 49
-0.2
  0
ENDTAB
  0
TABLE
  2
STYLE
  70
4
  0
STYLE
  2
KICAD
  70
0
  40
0
  41
1
  42
1
  50
0
  71
0
  3
isocp.shx
  0
STYLE
  2
KICADB
  70
0
  40
0
  41
1
  42
1
  50
0
  71
0
  3
isocp.shx
  0
STYLE
  2
KICADI
  70
0
  40
0
  41
1
  42
1
  50
15
  71
0
  3
isocp.shx
  0
STYLE
  2
KICADBI
  70
0
  40
0
  41
1
  42
1
  50
15
  71
0
  3
isocp.shx
  0
ENDTAB
  0
TABLE
  2
LAYER
  70
1
  0
LAYER
  2
BLACK
  70
0
  62
7
  6
CONTINUOUS
  0
ENDTAB
  0
ENDSEC
  0
SECTION
  2
ENTITIES
0
LINE
8
BLACK
6
CONTINUOUS
10
4.60865
20
-4.28221
11
4.62213
21
-4.28398
0
LINE
8
BLACK
6
CONTINUOUS
10
4.62213
20
-4.28398
11
4.63532
21
-4.28729
0
LINE
8
BLACK
6
CONTINUOUS
10
4.63532
20
-4.28729
11
4.64804
21
-4.2921
0
LINE
8
BLACK
6
CONTINUOUS
10
4.64804
20
-4.2921
11
4.66012
21
-4.29834
0
LINE
8
BLACK
6
CONTINUOUS
10
4.66012
20
-4.29834
11
4.67141
21
-4.30592
0
LINE
8
BLACK
6
CONTINUOUS
10
4.67141
20
-4.30592
11
4.68175
21
-4.31475
0
LINE
8
BLACK
6
CONTINUOUS
10
4.68175
20
-4.31475
11
4.69101
21
-4.32471
0
LINE
8
BLACK
6
CONTINUOUS
10
4.69101
20
-4.32471
11
4.69906
21
-4.33567
0
LINE
8
BLACK
6
CONTINUOUS
10
4.69906
20
-4.33567
11
4.70579
21
-4.34748
0
LINE
8
BLACK
6
CONTINUOUS
10
4.70579
20
-4.34748
11
4.71113
21
-4.35999
0
LINE
8
BLACK
6
CONTINUOUS
10
4.71113
20
-4.35999
11
4.71499
21
-4.37303
0
LINE
8
BLACK
6
CONTINUOUS
10
4.71499
20
-4.37303
11
4.71733
21
-4.38642
0
LINE
8
BLACK
6
CONTINUOUS
10
4.71733
20
-4.38642
11
4.71811
21
-4.4
0
LINE
8
BLACK
6
CONTINUOUS
10
4.71811
20
-4.4
11
4.71788
21
-4.40742
0
LINE
8
BLACK
6
CONTINUOUS
10
4.71788
20
-4.40742
11
4.71624
21
-4.42092
0
LINE
8
BLACK
6
CONTINUOUS
10
4.71624
20
-4.42092
11
4.71307
21
-4.43414
0
LINE
8
BLACK
6
CONTINUOUS
10
4.71307
20
-4.43414
11
4.7084
21
-4.44691
0
LINE
8
BLACK
6
CONTINUOUS
10
4.7084
20
-4.44691
11
4.70229
21
-4.45906
0
LINE
8
BLACK
6
CONTINUOUS
10
4.70229
20
-4.45906
11
4.69482
21
-4.47042
0
LINE
8
BLACK
6
CONTINUOUS
10
4.69482
20
-4.47042
11
4.6861
21
-4.48085
0
LINE
8
BLACK
6
CONTINUOUS
10
4.6861
20
-4.48085
11
4.67624
21
-4.49021
0
LINE
8
BLACK
6
CONTINUOUS
10
4.67624
20
-4.49021
11
4.66536
21
-4.49838
0
LINE
8
BLACK
6
CONTINUOUS
10
4.66536
20
-4.49838
11
4.65362
21
-4.50524
0
LINE
8
BLACK
6
CONTINUOUS
10
4.65362
20
-4.50524
11
4.64117
21
-4.5107
0
LINE
8
BLACK
6
CONTINUOUS
10
4.64117
20
-4.5107
11
4.62817
21
-4.5147
0
LINE
8
BLACK
6
CONTINUOUS
10
4.62817
20
-4.5147
11
4.6148
21
-4.51718
0
LINE
8
BLACK
6
CONTINUOUS
10
4.6148
20
-4.51718
11
4.60124
21
-4.5181
0
LINE
8
BLACK
6
CONTINUOUS
10
4.60124
20
-4.5181
11
4.58765
21
-4.51746
0
LINE
8
BLACK
6
CONTINUOUS
10
4.58765
20
-4.51746
11
4.57424
21
-4.51527
0
LINE
8
BLACK
6
CONTINUOUS
10
4.57424
20
-4.51527
11
4.56116
21
-4.51154
0
LINE
8
BLACK
6
CONTINUOUS
10
4.56116
20
-4.51154
11
4.54859
21
-4.50634
0
LINE
8
BLACK
6
CONTINUOUS
10
4.54859
20
-4.50634
11
4.53671
21
-4.49972
0
LINE
8
BLACK
6
CONTINUOUS
10
4.53671
20
-4.49972
11
4.52567
21
-4.49179
0
LINE
8
BLACK
6
CONTINUOUS
10
4.52567
20
-4.49179
11
4.51561
21
-4.48264
0
LINE
8
BLACK
6
CONTINUOUS
10
4.51561
20
-4.48264
11
4.50667
21
-4.47239
0
LINE
8
BLACK
6
CONTINUOUS
10
4.50667
20
-4.47239
11
4.49897
21
-4.46118
0
LINE
8
BLACK
6
CONTINUOUS
10
4.49897
20
-4.46118
11
4.49261
21
-4.44917
0
LINE
8
BLACK
6
CONTINUOUS
10
4.49261
20
-4.44917
11
4.48767
21
-4.4365
0
LINE
8
BLACK
6
CONTINUOUS
10
4.48767
20
-4.4365
11
4.48422
21
-4.42335
0
LINE
8
BLACK
6
CONTINUOUS
10
4.48422
20
-4.42335
11
4.4823
21
-4.40988
0
LINE
8
BLACK
6
CONTINUOUS
10
4.4823
20
-4.40988
11
4.48195
21
-4.39629
0
LINE
8
BLACK
6
CONTINUOUS
10
4.48195
20
-4.39629
11
4.48316
21
-4.38275
0
LINE
8
BLACK
6
CONTINUOUS
10
4.48316
20
-4.38275
11
4.48591
21
-4.36943
0
LINE
8
BLACK
6
CONTINUOUS
10
4.48591
20
-4.36943
11
4.49018
21
-4.35652
0
LINE
8
BLACK
6
CONTINUOUS
10
4.49018
20
-4.35652
11
4.49591
21
-4.34419
0
LINE
8
BLACK
6
CONTINUOUS
10
4.49591
20
-4.34419
11
4.50301
21
-4.33259
0
LINE
8
BLACK
6
CONTINUOUS
10
4.50301
20
-4.33259
11
4.5114
21
-4.32189
0
LINE
8
BLACK
6
CONTINUOUS
10
4.5114
20
-4.32189
11
4.52097
21
-4.31223
0
LINE
8
BLACK
6
CONTINUOUS
10
4.52097
20
-4.31223
11
4.53158
21
-4.30373
0
LINE
8
BLACK
6
CONTINUOUS
10
4.53158
20
-4.30373
11
4.5431
21
-4.2965
0
LINE
8
BLACK
6
CONTINUOUS
10
4.5431
20
-4.2965
11
4.55537
21
-4.29065
0
LINE
8
BLACK
6
CONTINUOUS
10
4.55537
20
-4.29065
11
4.56824
21
-4.28624
0
LINE
8
BLACK
6
CONTINUOUS
10
4.56824
20
-4.28624
11
4.58152
21
-4.28334
0
LINE
8
BLACK
6
CONTINUOUS
10
4.58152
20
-4.28334
11
4.59505
21
-4.28199
0
LINE
8
BLACK
6
CONTINUOUS
10
4.59505
20
-4.28199
11
4.60865
21
-4.28221
0
LINE
8
BLACK
6
CONTINUOUS
10
5.80865
20
-4.28221
11
5.82213
21
-4.28398
0
LINE
8
BLACK
6
CONTINUOUS
10
5.82213
20
-4.28398
11
5.83532
21
-4.28729
0
LINE
8
BLACK
6
CONTINUOUS
10
5.83532
20
-4.28729
11
5.84804
21
-4.2921
0
LINE
8
BLACK
6
CONTINUOUS
10
5.84804
20
-4.2921
11
5.86012
21
-4.29834
0
LINE
8
BLACK
6
CONTINUOUS
10
5.86012
20
-4.29834
11
5.87141
21
-4.30592
0
LINE
8
BLACK
6
CONTINUOUS
10
5.87141
20
-4.30592
11
5.88175
21
-4.31475
0
LINE
8
BLACK
6
CONTINUOUS
10
5.88175
20
-4.31475
11
5.89101
21
-4.32471
0
LINE
8
BLACK
6
CONTINUOUS
10
5.89101
20
-4.32471
11
5.89906
21
-4.33567
0
LINE
8
BLACK
6
CONTINUOUS
10
5.89906
20
-4.33567
11
5.90579
21
-4.34748
0
LINE
8
BLACK
6
CONTINUOUS
10
5.90579
20
-4.34748
11
5.91113
21
-4.35999
0
LINE
8
BLACK
6
CONTINUOUS
10
5.91113
20
-4.35999
11
5.91499
21
-4.37303
0
LINE
8
BLACK
6
CONTINUOUS
10
5.91499
20
-4.37303
11
5.91733
21
-4.38642
0
LINE
8
BLACK
6
CONTINUOUS
10
5.91733
20
-4.38642
11
5.91811
21
-4.4
0
LINE
8
BLACK
6
CONTINUOUS
10
5.91811
20
-4.4
11
5.91788
21
-4.40742
0
LINE
8
BLACK
6
CONTINUOUS
10
5.91788
20
-4.40742
11
5.91624
21
-4.42092
0
LINE
8
BLACK
6
CONTINUOUS
10
5.91624
20
-4.42092
11
5.91307
21
-4.43414
0
LINE
8
BLACK
6
CONTINUOUS
10
5.91307
20
-4.43414
11
5.9084
21
-4.44691
0
LINE
8
BLACK
6
CONTINUOUS
10
5.9084
20
-4.44691
11
5.90229
21
-4.45906
0
LINE
8
BLACK
6
CONTINUOUS
10
5.90229
20
-4.45906
11
5.89482
21
-4.47042
0
LINE
8
BLACK
6
CONTINUOUS
10
5.89482
20
-4.47042
11
5.8861
21
-4.48085
0
LINE
8
BLACK
6
CONTINUOUS
10
5.8861
20
-4.48085
11
5.87624
21
-4.49021
0
LINE
8
BLACK
6
CONTINUOUS
10
5.87624
20
-4.49021
11
5.86536
21
-4.49838
0
LINE
8
BLACK
6
CONTINUOUS
10
5.86536
20
-4.49838
11
5.85362
21
-4.50524
0
LINE
8
BLACK
6
CONTINUOUS
10
5.85362
20
-4.50524
11
5.84117
21
-4.5107
0
LINE
8
BLACK
6
CONTINUOUS
10
5.84117
20
-4.5107
11
5.82817
21
-4.5147
0
LINE
8
BLACK
6
CONTINUOUS
10
5.82817
20
-4.5147
11
5.8148
21
-4.51718
0
LINE
8
BLACK
6
CONTINUOUS
10
5.8148
20
-4.51718
11
5.80124
21
-4.5181
0
LINE
8
BLACK
6
CONTINUOUS
10
5.80124
20
-4.5181
11
5.78765
21
-4.51746
0
LINE
8
BLACK
6
CONTINUOUS
10
5.78765
20
-4.51746
11
5.77424
21
-4.51527
0
LINE
8
BLACK
6
CONTINUOUS
10
5.77424
20
-4.51527
11
5.76116
21
-4.51154
0
LINE
8
BLACK
6
CONTINUOUS
10
5.76116
20
-4.51154
11
5.74859
21
-4.50634
0
LINE
8
BLACK
6
CONTINUOUS
10
5.74859
20
-4.50634
11
5.73671
21
-4.49972
0
LINE
8
BLACK
6
CONTINUOUS
10
5.73671
20
-4.49972
11
5.72567
21
-4.49179
0
LINE
8
BLACK
6
CONTINUOUS
10
5.72567
20
-4.49179
11
5.71561
21
-4.48264
0
LINE
8
BLACK
6
CONTINUOUS
10
5.71561
20
-4.48264
11
5.70667
21
-4.47239
0
LINE
8
BLACK
6
CONTINUOUS
10
5.70667
20
-4.47239
11
5.69897
21
-4.46118
0
LINE
8
BLACK
6
CONTINUOUS
10
5.69897
20
-4.46118
11
5.69261
21
-4.44917
0
LINE
8
BLACK
6
CONTINUOUS
10
5.69261
20
-4.44917
11
5.68767
21
-4.4365
0
LINE
8
BLACK
6
CONTINUOUS
10
5.68767
20
-4.4365
11
5.68422
21
-4.42335
0
LINE
8
BLACK
6
CONTINUOUS
10
5.68422
20
-4.42335
11
5.6823
21
-4.40988
0
LINE
8
BLACK
6
CONTINUOUS
10
5.6823
20
-4.40988
11
5.68195
21
-4.39629
0
LINE
8
BLACK
6
CONTINUOUS
10
5.68195
20
-4.39629
11
5.68316
21
-4.38275
0
LINE
8
BLACK
6
CONTINUOUS
10
5.68316
20
-4.38275
11
5.68591
21
-4.36943
0
LINE
8
BLACK
6
CONTINUOUS
10
5.68591
20
-4.36943
11
5.69018
21
-4.35652
0
LINE
8
BLACK
6
CONTINUOUS
10
5.69018
20
-4.35652
11
5.69591
21
-4.34419
0
LINE
8
BLACK
6
CONTINUOUS
10
5.69591
20
-4.34419
11
5.70301
21
-4.33259
0
LINE
8
BLACK
6
CONTINUOUS
10
5.70301
20
-4.33259
11
5.7114
21
-4.32189
0
LINE
8
BLACK
6
CONTINUOUS
10
5.7114
20
-4.32189
11
5.72097
21
-4.31223
0
LINE
8
BLACK
6
CONTINUOUS
10
5.72097
20
-4.31223
11
5.73158
21
-4.30373
0
LINE
8
BLACK
6
CONTINUOUS
10
5.73158
20
-4.30373
11
5.7431
21
-4.2965
0
LINE
8
BLACK
6
CONTINUOUS
10
5.7431
20
-4.2965
11
5.75537
21
-4.29065
0
LINE
8
BLACK
6
CONTINUOUS
10
5.75537
20
-4.29065
11
5.76824
21
-4.28624
0
LINE
8
BLACK
6
CONTINUOUS
10
5.76824
20
-4.28624
11
5.78152
21
-4.28334
0
LINE
8
BLACK
6
CONTINUOUS
10
5.78152
20
-4.28334
11
5.79505
21
-4.28199
0
LINE
8
BLACK
6
CONTINUOUS
10
5.79505
20
-4.28199
11
5.80865
21
-4.28221
0
LINE
8
BLACK
6
CONTINUOUS
10
5.17047
20
-4.49953
11
5.14882
21
-4.49953
0
LINE
8
BLACK
6
CONTINUOUS
10
5.14882
20
-4.49953
11
5.14882
21
-4.49933
0
LINE
8
BLACK
6
CONTINUOUS
10
5.14882
20
-4.49933
11
5.14591
21
-4.49931
0
LINE
8
BLACK
6
CONTINUOUS
10
5.14591
20
-4.49931
11
5.14056
21
-4.49771
0
LINE
8
BLACK
6
CONTINUOUS
10
5.14056
20
-4.49771
11
5.13588
21
-4.49468
0
LINE
8
BLACK
6
CONTINUOUS
10
5.13588
20
-4.49468
11
5.13224
21
-4.49045
0
LINE
8
BLACK
6
CONTINUOUS
10
5.13224
20
-4.49045
11
5.12993
21
-4.48537
0
LINE
8
BLACK
6
CONTINUOUS
10
5.12993
20
-4.48537
11
5.12913
21
-4.47984
0
LINE
8
BLACK
6
CONTINUOUS
10
5.12913
20
-4.47984
11
5.12913
21
-4.46016
0
LINE
8
BLACK
6
CONTINUOUS
10
5.12913
20
-4.46016
11
5.12914
21
-4.45968
0
LINE
8
BLACK
6
CONTINUOUS
10
5.12914
20
-4.45968
11
5.13007
21
-4.45417
0
LINE
8
BLACK
6
CONTINUOUS
10
5.13007
20
-4.45417
11
5.1325
21
-4.44915
0
LINE
8
BLACK
6
CONTINUOUS
10
5.1325
20
-4.44915
11
5.13624
21
-4.44501
0
LINE
8
BLACK
6
CONTINUOUS
10
5.13624
20
-4.44501
11
5.141
21
-4.44209
0
LINE
8
BLACK
6
CONTINUOUS
10
5.141
20
-4.44209
11
5.14639
21
-4.44062
0
LINE
8
BLACK
6
CONTINUOUS
10
5.14639
20
-4.44062
11
5.14882
21
-4.44067
0
LINE
8
BLACK
6
CONTINUOUS
10
5.14882
20
-4.44067
11
5.14882
21
-4.44047
0
LINE
8
BLACK
6
CONTINUOUS
10
5.14882
20
-4.44047
11
5.17047
21
-4.44047
0
LINE
8
BLACK
6
CONTINUOUS
10
5.17047
20
-4.44047
11
5.17047
21
-4.49953
0
LINE
8
BLACK
6
CONTINUOUS
10
5.21969
20
-4.49953
11
5.18031
21
-4.49953
0
LINE
8
BLACK
6
CONTINUOUS
10
5.18031
20
-4.49953
11
5.18031
21
-4.44047
0
LINE
8
BLACK
6
CONTINUOUS
10
5.18031
20
-4.44047
11
5.21969
21
-4.44047
0
LINE
8
BLACK
6
CONTINUOUS
10
5.21969
20
-4.44047
11
5.21969
21
-4.49953
0
LINE
8
BLACK
6
CONTINUOUS
10
5.25118
20
-4.44067
11
5.25433
21
-4.44073
0
LINE
8
BLACK
6
CONTINUOUS
10
5.25433
20
-4.44073
11
5.25966
21
-4.44239
0
LINE
8
BLACK
6
CONTINUOUS
10
5.25966
20
-4.44239
11
5.2643
21
-4.44548
0
LINE
8
BLACK
6
CONTINUOUS
10
5.2643
20
-4.44548
11
5.26789
21
-4.44976
0
LINE
8
BLACK
6
CONTINUOUS
10
5.26789
20
-4.44976
11
5.27014
21
-4.45486
0
LINE
8
BLACK
6
CONTINUOUS
10
5.27014
20
-4.45486
11
5.27083
21
-4.46016
0
LINE
8
BLACK
6
CONTINUOUS
10
5.27083
20
-4.46016
11
5.27087
21
-4.46016
0
LINE
8
BLACK
6
CONTINUOUS
10
5.27087
20
-4.46016
11
5.27087
21
-4.47984
0
LINE
8
BLACK
6
CONTINUOUS
10
5.27087
20
-4.47984
11
5.27083
21
-4.47984
0
LINE
8
BLACK
6
CONTINUOUS
10
5.27083
20
-4.47984
11
5.27086
21
-4.48008
0
LINE
8
BLACK
6
CONTINUOUS
10
5.27086
20
-4.48008
11
5.27001
21
-4.4856
0
LINE
8
BLACK
6
CONTINUOUS
10
5.27001
20
-4.4856
11
5.26763
21
-4.49065
0
LINE
8
BLACK
6
CONTINUOUS
10
5.26763
20
-4.49065
11
5.26394
21
-4.49483
0
LINE
8
BLACK
6
CONTINUOUS
10
5.26394
20
-4.49483
11
5.25922
21
-4.49781
0
LINE
8
BLACK
6
CONTINUOUS
10
5.25922
20
-4.49781
11
5.25385
21
-4.49935
0
LINE
8
BLACK
6
CONTINUOUS
10
5.25385
20
-4.49935
11
5.25118
21
-4.49933
0
LINE
8
BLACK
6
CONTINUOUS
10
5.25118
20
-4.49933
11
5.25118
21
-4.49953
0
LINE
8
BLACK
6
CONTINUOUS
10
5.25118
20
-4.49953
11
5.22953
21
-4.49953
0
LINE
8
BLACK
6
CONTINUOUS
10
5.22953
20
-4.49953
11
5.22953
21
-4.44047
0
LINE
8
BLACK
6
CONTINUOUS
10
5.22953
20
-4.44047
11
5.25118
21
-4.44047
0
LINE
8
BLACK
6
CONTINUOUS
10
5.25118
20
-4.44047
11
5.25118
21
-4.44067
0
LINE
8
BLACK
6
CONTINUOUS
10
5.18563
20
-4.37496
11
5.16201
21
-4.37496
0
LINE
8
BLACK
6
CONTINUOUS
10
5.16201
20
-4.37496
11
5.16201
21
-4.33165
0
LINE
8
BLACK
6
CONTINUOUS
10
5.16201
20
-4.33165
11
5.18563
21
-4.33165
0
LINE
8
BLACK
6
CONTINUOUS
10
5.18563
20
-4.33165
11
5.18563
21
-4.37496
0
LINE
8
BLACK
6
CONTINUOUS
10
5.13642
20
-4.37496
11
5.1128
21
-4.37496
0
LINE
8
BLACK
6
CONTINUOUS
10
5.1128
20
-4.37496
11
5.1128
21
-4.33165
0
LINE
8
BLACK
6
CONTINUOUS
10
5.1128
20
-4.33165
11
5.13642
21
-4.33165
0
LINE
8
BLACK
6
CONTINUOUS
10
5.13642
20
-4.33165
11
5.13642
21
-4.37496
0
LINE
8
BLACK
6
CONTINUOUS
10
5.03799
20
-4.37496
11
5.01437
21
-4.37496
0
LINE
8
BLACK
6
CONTINUOUS
10
5.01437
20
-4.37496
11
5.01437
21
-4.33165
0
LINE
8
BLACK
6
CONTINUOUS
10
5.01437
20
-4.33165
11
5.03799
21
-4.33165
0
LINE
8
BLACK
6
CONTINUOUS
10
5.03799
20
-4.33165
11
5.03799
21
-4.37496
0
LINE
8
BLACK
6
CONTINUOUS
10
5.0872
20
-4.37496
11
5.06358
21
-4.37496
0
LINE
8
BLACK
6
CONTINUOUS
10
5.06358
20
-4.37496
11
5.06358
21
-4.33165
0
LINE
8
BLACK
6
CONTINUOUS
10
5.06358
20
-4.33165
11
5.0872
21
-4.33165
0
LINE
8
BLACK
6
CONTINUOUS
10
5.0872
20
-4.33165
11
5.0872
21
-4.37496
0
LINE
8
BLACK
6
CONTINUOUS
10
5.36247
20
-4.33106
11
5.36566
21
-4.3332
0
LINE
8
BLACK
6
CONTINUOUS
10
5.36566
20
-4.3332
11
5.36779
21
-4.33639
0
LINE
8
BLACK
6
CONTINUOUS
10
5.36779
20
-4.33639
11
5.36854
21
-4.34016
0
LINE
8
BLACK
6
CONTINUOUS
10
5.36854
20
-4.34016
11
5.36854
21
-4.35984
0
LINE
8
BLACK
6
CONTINUOUS
10
5.36854
20
-4.35984
11
5.36779
21
-4.36361
0
LINE
8
BLACK
6
CONTINUOUS
10
5.36779
20
-4.36361
11
5.36566
21
-4.3668
0
LINE
8
BLACK
6
CONTINUOUS
10
5.36566
20
-4.3668
11
5.36247
21
-4.36894
0
LINE
8
BLACK
6
CONTINUOUS
10
5.36247
20
-4.36894
11
5.3587
21
-4.36969
0
LINE
8
BLACK
6
CONTINUOUS
10
5.3587
20
-4.36969
11
5.3213
21
-4.36969
0
LINE
8
BLACK
6
CONTINUOUS
10
5.3213
20
-4.36969
11
5.31753
21
-4.36894
0
LINE
8
BLACK
6
CONTINUOUS
10
5.31753
20
-4.36894
11
5.31434
21
-4.3668
0
LINE
8
BLACK
6
CONTINUOUS
10
5.31434
20
-4.3668
11
5.31221
21
-4.36361
0
LINE
8
BLACK
6
CONTINUOUS
10
5.31221
20
-4.36361
11
5.31146
21
-4.35984
0
LINE
8
BLACK
6
CONTINUOUS
10
5.31146
20
-4.35984
11
5.31146
21
-4.34016
0
LINE
8
BLACK
6
CONTINUOUS
10
5.31146
20
-4.34016
11
5.31221
21
-4.33639
0
LINE
8
BLACK
6
CONTINUOUS
10
5.31221
20
-4.33639
11
5.31434
21
-4.3332
0
LINE
8
BLACK
6
CONTINUOUS
10
5.31434
20
-4.3332
11
5.31753
21
-4.33106
0
LINE
8
BLACK
6
CONTINUOUS
10
5.31753
20
-4.33106
11
5.3213
21
-4.33031
0
LINE
8
BLACK
6
CONTINUOUS
10
5.3213
20
-4.33031
11
5.3587
21
-4.33031
0
LINE
8
BLACK
6
CONTINUOUS
10
5.3587
20
-4.33031
11
5.36247
21
-4.33106
0
LINE
8
BLACK
6
CONTINUOUS
10
5.27247
20
-4.33106
11
5.27566
21
-4.3332
0
LINE
8
BLACK
6
CONTINUOUS
10
5.27566
20
-4.3332
11
5.27779
21
-4.33639
0
LINE
8
BLACK
6
CONTINUOUS
10
5.27779
20
-4.33639
11
5.27854
21
-4.34016
0
LINE
8
BLACK
6
CONTINUOUS
10
5.27854
20
-4.34016
11
5.27854
21
-4.35984
0
LINE
8
BLACK
6
CONTINUOUS
10
5.27854
20
-4.35984
11
5.27779
21
-4.36361
0
LINE
8
BLACK
6
CONTINUOUS
10
5.27779
20
-4.36361
11
5.27566
21
-4.3668
0
LINE
8
BLACK
6
CONTINUOUS
10
5.27566
20
-4.3668
11
5.27247
21
-4.36894
0
LINE
8
BLACK
6
CONTINUOUS
10
5.27247
20
-4.36894
11
5.2687
21
-4.36969
0
LINE
8
BLACK
6
CONTINUOUS
10
5.2687
20
-4.36969
11
5.2313
21
-4.36969
0
LINE
8
BLACK
6
CONTINUOUS
10
5.2313
20
-4.36969
11
5.22753
21
-4.36894
0
LINE
8
BLACK
6
CONTINUOUS
10
5.22753
20
-4.36894
11
5.22434
21
-4.3668
0
LINE
8
BLACK
6
CONTINUOUS
10
5.22434
20
-4.3668
11
5.22221
21
-4.36361
0
LINE
8
BLACK
6
CONTINUOUS
10
5.22221
20
-4.36361
11
5.22146
21
-4.35984
0
LINE
8
BLACK
6
CONTINUOUS
10
5.22146
20
-4.35984
11
5.22146
21
-4.34016
0
LINE
8
BLACK
6
CONTINUOUS
10
5.22146
20
-4.34016
11
5.22221
21
-4.33639
0
LINE
8
BLACK
6
CONTINUOUS
10
5.22221
20
-4.33639
11
5.22434
21
-4.3332
0
LINE
8
BLACK
6
CONTINUOUS
10
5.22434
20
-4.3332
11
5.22753
21
-4.33106
0
LINE
8
BLACK
6
CONTINUOUS
10
5.22753
20
-4.33106
11
5.2313
21
-4.33031
0
LINE
8
BLACK
6
CONTINUOUS
10
5.2313
20
-4.33031
11
5.2687
21
-4.33031
0
LINE
8
BLACK
6
CONTINUOUS
10
5.2687
20
-4.33031
11
5.27247
21
-4.33106
0
LINE
8
BLACK
6
CONTINUOUS
10
5.48669
20
-4.30346
11
5.43551
21
-4.30346
0
LINE
8
BLACK
6
CONTINUOUS
10
5.43551
20
-4.30346
11
5.43551
21
-4.23654
0
LINE
8
BLACK
6
CONTINUOUS
10
5.43551
20
-4.23654
11
5.48669
21
-4.23654
0
LINE
8
BLACK
6
CONTINUOUS
10
5.48669
20
-4.23654
11
5.48669
21
-4.30346
0
LINE
8
BLACK
6
CONTINUOUS
10
5.62449
20
-4.30346
11
5.57331
21
-4.30346
0
LINE
8
BLACK
6
CONTINUOUS
10
5.57331
20
-4.30346
11
5.57331
21
-4.23654
0
LINE
8
BLACK
6
CONTINUOUS
10
5.57331
20
-4.23654
11
5.62449
21
-4.23654
0
LINE
8
BLACK
6
CONTINUOUS
10
5.62449
20
-4.23654
11
5.62449
21
-4.30346
0
LINE
8
BLACK
6
CONTINUOUS
10
5.36247
20
-4.25626
11
5.36566
21
-4.25839
0
LINE
8
BLACK
6
CONTINUOUS
10
5.36566
20
-4.25839
11
5.36779
21
-4.26159
0
LINE
8
BLACK
6
CONTINUOUS
10
5.36779
20
-4.26159
11
5.36854
21
-4.26535
0
LINE
8
BLACK
6
CONTINUOUS
10
5.36854
20
-4.26535
11
5.36854
21
-4.28504
0
LINE
8
BLACK
6
CONTINUOUS
10
5.36854
20
-4.28504
11
5.36779
21
-4.28881
0
LINE
8
BLACK
6
CONTINUOUS
10
5.36779
20
-4.28881
11
5.36566
21
-4.292
0
LINE
8
BLACK
6
CONTINUOUS
10
5.36566
20
-4.292
11
5.36247
21
-4.29413
0
LINE
8
BLACK
6
CONTINUOUS
10
5.36247
20
-4.29413
11
5.3587
21
-4.29488
0
LINE
8
BLACK
6
CONTINUOUS
10
5.3587
20
-4.29488
11
5.3213
21
-4.29488
0
LINE
8
BLACK
6
CONTINUOUS
10
5.3213
20
-4.29488
11
5.31753
21
-4.29413
0
LINE
8
BLACK
6
CONTINUOUS
10
5.31753
20
-4.29413
11
5.31434
21
-4.292
0
LINE
8
BLACK
6
CONTINUOUS
10
5.31434
20
-4.292
11
5.31221
21
-4.28881
0
LINE
8
BLACK
6
CONTINUOUS
10
5.31221
20
-4.28881
11
5.31146
21
-4.28504
0
LINE
8
BLACK
6
CONTINUOUS
10
5.31146
20
-4.28504
11
5.31146
21
-4.26535
0
LINE
8
BLACK
6
CONTINUOUS
10
5.31146
20
-4.26535
11
5.31221
21
-4.26159
0
LINE
8
BLACK
6
CONTINUOUS
10
5.31221
20
-4.26159
11
5.31434
21
-4.25839
0
LINE
8
BLACK
6
CONTINUOUS
10
5.31434
20
-4.25839
11
5.31753
21
-4.25626
0
LINE
8
BLACK
6
CONTINUOUS
10
5.31753
20
-4.25626
11
5.3213
21
-4.25551
0
LINE
8
BLACK
6
CONTINUOUS
10
5.3213
20
-4.25551
11
5.3587
21
-4.25551
0
LINE
8
BLACK
6
CONTINUOUS
10
5.3587
20
-4.25551
11
5.36247
21
-4.25626
0
LINE
8
BLACK
6
CONTINUOUS
10
5.27247
20
-4.25626
11
5.27566
21
-4.25839
0
LINE
8
BLACK
6
CONTINUOUS
10
5.27566
20
-4.25839
11
5.27779
21
-4.26159
0
LINE
8
BLACK
6
CONTINUOUS
10
5.27779
20
-4.26159
11
5.27854
21
-4.26535
0
LINE
8
BLACK
6
CONTINUOUS
10
5.27854
20
-4.26535
11
5.27854
21
-4.28504
0
LINE
8
BLACK
6
CONTINUOUS
10
5.27854
20
-4.28504
11
5.27779
21
-4.28881
0
LINE
8
BLACK
6
CONTINUOUS
10
5.27779
20
-4.28881
11
5.27566
21
-4.292
0
LINE
8
BLACK
6
CONTINUOUS
10
5.27566
20
-4.292
11
5.27247
21
-4.29413
0
LINE
8
BLACK
6
CONTINUOUS
10
5.27247
20
-4.29413
11
5.2687
21
-4.29488
0
LINE
8
BLACK
6
CONTINUOUS
10
5.2687
20
-4.29488
11
5.2313
21
-4.29488
0
LINE
8
BLACK
6
CONTINUOUS
10
5.2313
20
-4.29488
11
5.22753
21
-4.29413
0
LINE
8
BLACK
6
CONTINUOUS
10
5.22753
20
-4.29413
11
5.22434
21
-4.292
0
LINE
8
BLACK
6
CONTINUOUS
10
5.22434
20
-4.292
11
5.22221
21
-4.28881
0
LINE
8
BLACK
6
CONTINUOUS
10
5.22221
20
-4.28881
11
5.22146
21
-4.28504
0
LINE
8
BLACK
6
CONTINUOUS
10
5.22146
20
-4.28504
11
5.22146
21
-4.26535
0
LINE
8
BLACK
6
CONTINUOUS
10
5.22146
20
-4.26535
11
5.22221
21
-4.26159
0
LINE
8
BLACK
6
CONTINUOUS
10
5.22221
20
-4.26159
11
5.22434
21
-4.25839
0
LINE
8
BLACK
6
CONTINUOUS
10
5.22434
20
-4.25839
11
5.22753
21
-4.25626
0
LINE
8
BLACK
6
CONTINUOUS
10
5.22753
20
-4.25626
11
5.2313
21
-4.25551
0
LINE
8
BLACK
6
CONTINUOUS
10
5.2313
20
-4.25551
11
5.2687
21
-4.25551
0
LINE
8
BLACK
6
CONTINUOUS
10
5.2687
20
-4.25551
11
5.27247
21
-4.25626
0
LINE
8
BLACK
6
CONTINUOUS
10
5.03799
20
-4.28835
11
5.01437
21
-4.28835
0
LINE
8
BLACK
6
CONTINUOUS
10
5.01437
20
-4.28835
11
5.01437
21
-4.24504
0
LINE
8
BLACK
6
CONTINUOUS
10
5.01437
20
-4.24504
11
5.03799
21
-4.24504
0
LINE
8
BLACK
6
CONTINUOUS
10
5.03799
20
-4.24504
11
5.03799
21
-4.28835
0
LINE
8
BLACK
6
CONTINUOUS
10
5.0872
20
-4.28835
11
5.06358
21
-4.28835
0
LINE
8
BLACK
6
CONTINUOUS
10
5.06358
20
-4.28835
11
5.06358
21
-4.24504
0
LINE
8
BLACK
6
CONTINUOUS
10
5.06358
20
-4.24504
11
5.0872
21
-4.24504
0
LINE
8
BLACK
6
CONTINUOUS
10
5.0872
20
-4.24504
11
5.0872
21
-4.28835
0
LINE
8
BLACK
6
CONTINUOUS
10
5.13642
20
-4.28835
11
5.1128
21
-4.28835
0
LINE
8
BLACK
6
CONTINUOUS
10
5.1128
20
-4.28835
11
5.1128
21
-4.24504
0
LINE
8
BLACK
6
CONTINUOUS
10
5.1128
20
-4.24504
11
5.13642
21
-4.24504
0
LINE
8
BLACK
6
CONTINUOUS
10
5.13642
20
-4.24504
11
5.13642
21
-4.28835
0
LINE
8
BLACK
6
CONTINUOUS
10
5.18563
20
-4.28835
11
5.16201
21
-4.28835
0
LINE
8
BLACK
6
CONTINUOUS
10
5.16201
20
-4.28835
11
5.16201
21
-4.24504
0
LINE
8
BLACK
6
CONTINUOUS
10
5.16201
20
-4.24504
11
5.18563
21
-4.24504
0
LINE
8
BLACK
6
CONTINUOUS
10
5.18563
20
-4.24504
11
5.18563
21
-4.28835
0
LINE
8
BLACK
6
CONTINUOUS
10
5.34003
20
-4.08319
11
5.34322
21
-4.08532
0
LINE
8
BLACK
6
CONTINUOUS
10
5.34322
20
-4.08532
11
5.34535
21
-4.08852
0
LINE
8
BLACK
6
CONTINUOUS
10
5.34535
20
-4.08852
11
5.3461
21
-4.09228
0
LINE
8
BLACK
6
CONTINUOUS
10
5.3461
20
-4.09228
11
5.3461
21
-4.12772
0
LINE
8
BLACK
6
CONTINUOUS
10
5.3461
20
-4.12772
11
5.34535
21
-4.13148
0
LINE
8
BLACK
6
CONTINUOUS
10
5.34535
20
-4.13148
11
5.34322
21
-4.13468
0
LINE
8
BLACK
6
CONTINUOUS
10
5.34322
20
-4.13468
11
5.34003
21
-4.13681
0
LINE
8
BLACK
6
CONTINUOUS
10
5.34003
20
-4.13681
11
5.33626
21
-4.13756
0
LINE
8
BLACK
6
CONTINUOUS
10
5.33626
20
-4.13756
11
5.31559
21
-4.13756
0
LINE
8
BLACK
6
CONTINUOUS
10
5.31559
20
-4.13756
11
5.31182
21
-4.13681
0
LINE
8
BLACK
6
CONTINUOUS
10
5.31182
20
-4.13681
11
5.30863
21
-4.13468
0
LINE
8
BLACK
6
CONTINUOUS
10
5.30863
20
-4.13468
11
5.3065
21
-4.13148
0
LINE
8
BLACK
6
CONTINUOUS
10
5.3065
20
-4.13148
11
5.30575
21
-4.12772
0
LINE
8
BLACK
6
CONTINUOUS
10
5.30575
20
-4.12772
11
5.30575
21
-4.09228
0
LINE
8
BLACK
6
CONTINUOUS
10
5.30575
20
-4.09228
11
5.3065
21
-4.08852
0
LINE
8
BLACK
6
CONTINUOUS
10
5.3065
20
-4.08852
11
5.30863
21
-4.08532
0
LINE
8
BLACK
6
CONTINUOUS
10
5.30863
20
-4.08532
11
5.31182
21
-4.08319
0
LINE
8
BLACK
6
CONTINUOUS
10
5.31182
20
-4.08319
11
5.31559
21
-4.08244
0
LINE
8
BLACK
6
CONTINUOUS
10
5.31559
20
-4.08244
11
5.33626
21
-4.08244
0
LINE
8
BLACK
6
CONTINUOUS
10
5.33626
20
-4.08244
11
5.34003
21
-4.08319
0
LINE
8
BLACK
6
CONTINUOUS
10
5.26818
20
-4.08319
11
5.27137
21
-4.08532
0
LINE
8
BLACK
6
CONTINUOUS
10
5.27137
20
-4.08532
11
5.2735
21
-4.08852
0
LINE
8
BLACK
6
CONTINUOUS
10
5.2735
20
-4.08852
11
5.27425
21
-4.09228
0
LINE
8
BLACK
6
CONTINUOUS
10
5.27425
20
-4.09228
11
5.27425
21
-4.12772
0
LINE
8
BLACK
6
CONTINUOUS
10
5.27425
20
-4.12772
11
5.2735
21
-4.13148
0
LINE
8
BLACK
6
CONTINUOUS
10
5.2735
20
-4.13148
11
5.27137
21
-4.13468
0
LINE
8
BLACK
6
CONTINUOUS
10
5.27137
20
-4.13468
11
5.26818
21
-4.13681
0
LINE
8
BLACK
6
CONTINUOUS
10
5.26818
20
-4.13681
11
5.26441
21
-4.13756
0
LINE
8
BLACK
6
CONTINUOUS
10
5.26441
20
-4.13756
11
5.24374
21
-4.13756
0
LINE
8
BLACK
6
CONTINUOUS
10
5.24374
20
-4.13756
11
5.23997
21
-4.13681
0
LINE
8
BLACK
6
CONTINUOUS
10
5.23997
20
-4.13681
11
5.23678
21
-4.13468
0
LINE
8
BLACK
6
CONTINUOUS
10
5.23678
20
-4.13468
11
5.23465
21
-4.13148
0
LINE
8
BLACK
6
CONTINUOUS
10
5.23465
20
-4.13148
11
5.2339
21
-4.12772
0
LINE
8
BLACK
6
CONTINUOUS
10
5.2339
20
-4.12772
11
5.2339
21
-4.09228
0
LINE
8
BLACK
6
CONTINUOUS
10
5.2339
20
-4.09228
11
5.23465
21
-4.08852
0
LINE
8
BLACK
6
CONTINUOUS
10
5.23465
20
-4.08852
11
5.23678
21
-4.08532
0
LINE
8
BLACK
6
CONTINUOUS
10
5.23678
20
-4.08532
11
5.23997
21
-4.08319
0
LINE
8
BLACK
6
CONTINUOUS
10
5.23997
20
-4.08319
11
5.24374
21
-4.08244
0
LINE
8
BLACK
6
CONTINUOUS
10
5.24374
20
-4.08244
11
5.26441
21
-4.08244
0
LINE
8
BLACK
6
CONTINUOUS
10
5.26441
20
-4.08244
11
5.26818
21
-4.08319
0
LINE
8
BLACK
6
CONTINUOUS
10
5.50003
20
-4.08319
11
5.50322
21
-4.08532
0
LINE
8
BLACK
6
CONTINUOUS
10
5.50322
20
-4.08532
11
5.50535
21
-4.08852
0
LINE
8
BLACK
6
CONTINUOUS
10
5.50535
20
-4.08852
11
5.5061
21
-4.09228
0
LINE
8
BLACK
6
CONTINUOUS
10
5.5061
20
-4.09228
11
5.5061
21
-4.12772
0
LINE
8
BLACK
6
CONTINUOUS
10
5.5061
20
-4.12772
11
5.50535
21
-4.13148
0
LINE
8
BLACK
6
CONTINUOUS
10
5.50535
20
-4.13148
11
5.50322
21
-4.13468
0
LINE
8
BLACK
6
CONTINUOUS
10
5.50322
20
-4.13468
11
5.50003
21
-4.13681
0
LINE
8
BLACK
6
CONTINUOUS
10
5.50003
20
-4.13681
11
5.49626
21
-4.13756
0
LINE
8
BLACK
6
CONTINUOUS
10
5.49626
20
-4.13756
11
5.47559
21
-4.13756
0
LINE
8
BLACK
6
CONTINUOUS
10
5.47559
20
-4.13756
11
5.47182
21
-4.13681
0
LINE
8
BLACK
6
CONTINUOUS
10
5.47182
20
-4.13681
11
5.46863
21
-4.13468
0
LINE
8
BLACK
6
CONTINUOUS
10
5.46863
20
-4.13468
11
5.4665
21
-4.13148
0
LINE
8
BLACK
6
CONTINUOUS
10
5.4665
20
-4.13148
11
5.46575
21
-4.12772
0
LINE
8
BLACK
6
CONTINUOUS
10
5.46575
20
-4.12772
11
5.46575
21
-4.09228
0
LINE
8
BLACK
6
CONTINUOUS
10
5.46575
20
-4.09228
11
5.4665
21
-4.08852
0
LINE
8
BLACK
6
CONTINUOUS
10
5.4665
20
-4.08852
11
5.46863
21
-4.08532
0
LINE
8
BLACK
6
CONTINUOUS
10
5.46863
20
-4.08532
11
5.47182
21
-4.08319
0
LINE
8
BLACK
6
CONTINUOUS
10
5.47182
20
-4.08319
11
5.47559
21
-4.08244
0
LINE
8
BLACK
6
CONTINUOUS
10
5.47559
20
-4.08244
11
5.49626
21
-4.08244
0
LINE
8
BLACK
6
CONTINUOUS
10
5.49626
20
-4.08244
11
5.50003
21
-4.08319
0
LINE
8
BLACK
6
CONTINUOUS
10
5.42818
20
-4.08319
11
5.43137
21
-4.08532
0
LINE
8
BLACK
6
CONTINUOUS
10
5.43137
20
-4.08532
11
5.4335
21
-4.08852
0
LINE
8
BLACK
6
CONTINUOUS
10
5.4335
20
-4.08852
11
5.43425
21
-4.09228
0
LINE
8
BLACK
6
CONTINUOUS
10
5.43425
20
-4.09228
11
5.43425
21
-4.12772
0
LINE
8
BLACK
6
CONTINUOUS
10
5.43425
20
-4.12772
11
5.4335
21
-4.13148
0
LINE
8
BLACK
6
CONTINUOUS
10
5.4335
20
-4.13148
11
5.43137
21
-4.13468
0
LINE
8
BLACK
6
CONTINUOUS
10
5.43137
20
-4.13468
11
5.42818
21
-4.13681
0
LINE
8
BLACK
6
CONTINUOUS
10
5.42818
20
-4.13681
11
5.42441
21
-4.13756
0
LINE
8
BLACK
6
CONTINUOUS
10
5.42441
20
-4.13756
11
5.40374
21
-4.13756
0
LINE
8
BLACK
6
CONTINUOUS
10
5.40374
20
-4.13756
11
5.39997
21
-4.13681
0
LINE
8
BLACK
6
CONTINUOUS
10
5.39997
20
-4.13681
11
5.39678
21
-4.13468
0
LINE
8
BLACK
6
CONTINUOUS
10
5.39678
20
-4.13468
11
5.39465
21
-4.13148
0
LINE
8
BLACK
6
CONTINUOUS
10
5.39465
20
-4.13148
11
5.3939
21
-4.12772
0
LINE
8
BLACK
6
CONTINUOUS
10
5.3939
20
-4.12772
11
5.3939
21
-4.09228
0
LINE
8
BLACK
6
CONTINUOUS
10
5.3939
20
-4.09228
11
5.39465
21
-4.08852
0
LINE
8
BLACK
6
CONTINUOUS
10
5.39465
20
-4.08852
11
5.39678
21
-4.08532
0
LINE
8
BLACK
6
CONTINUOUS
10
5.39678
20
-4.08532
11
5.39997
21
-4.08319
0
LINE
8
BLACK
6
CONTINUOUS
10
5.39997
20
-4.08319
11
5.40374
21
-4.08244
0
LINE
8
BLACK
6
CONTINUOUS
10
5.40374
20
-4.08244
11
5.42441
21
-4.08244
0
LINE
8
BLACK
6
CONTINUOUS
10
5.42441
20
-4.08244
11
5.42818
21
-4.08319
0
LINE
8
BLACK
6
CONTINUOUS
10
5.80865
20
-3.88221
11
5.82213
21
-3.88398
0
LINE
8
BLACK
6
CONTINUOUS
10
5.82213
20
-3.88398
11
5.83532
21
-3.88729
0
LINE
8
BLACK
6
CONTINUOUS
10
5.83532
20
-3.88729
11
5.84804
21
-3.8921
0
LINE
8
BLACK
6
CONTINUOUS
10
5.84804
20
-3.8921
11
5.86012
21
-3.89834
0
LINE
8
BLACK
6
CONTINUOUS
10
5.86012
20
-3.89834
11
5.87141
21
-3.90592
0
LINE
8
BLACK
6
CONTINUOUS
10
5.87141
20
-3.90592
11
5.88175
21
-3.91475
0
LINE
8
BLACK
6
CONTINUOUS
10
5.88175
20
-3.91475
11
5.89101
21
-3.92471
0
LINE
8
BLACK
6
CONTINUOUS
10
5.89101
20
-3.92471
11
5.89906
21
-3.93567
0
LINE
8
BLACK
6
CONTINUOUS
10
5.89906
20
-3.93567
11
5.90579
21
-3.94748
0
LINE
8
BLACK
6
CONTINUOUS
10
5.90579
20
-3.94748
11
5.91113
21
-3.95999
0
LINE
8
BLACK
6
CONTINUOUS
10
5.91113
20
-3.95999
11
5.91499
21
-3.97303
0
LINE
8
BLACK
6
CONTINUOUS
10
5.91499
20
-3.97303
11
5.91733
21
-3.98642
0
LINE
8
BLACK
6
CONTINUOUS
10
5.91733
20
-3.98642
11
5.91811
21
-4
0
LINE
8
BLACK
6
CONTINUOUS
10
5.91811
20
-4
11
5.91788
21
-4.00742
0
LINE
8
BLACK
6
CONTINUOUS
10
5.91788
20
-4.00742
11
5.91624
21
-4.02092
0
LINE
8
BLACK
6
CONTINUOUS
10
5.91624
20
-4.02092
11
5.91307
21
-4.03414
0
LINE
8
BLACK
6
CONTINUOUS
10
5.91307
20
-4.03414
11
5.9084
21
-4.04691
0
LINE
8
BLACK
6
CONTINUOUS
10
5.9084
20
-4.04691
11
5.90229
21
-4.05906
0
LINE
8
BLACK
6
CONTINUOUS
10
5.90229
20
-4.05906
11
5.89482
21
-4.07042
0
LINE
8
BLACK
6
CONTINUOUS
10
5.89482
20
-4.07042
11
5.8861
21
-4.08085
0
LINE
8
BLACK
6
CONTINUOUS
10
5.8861
20
-4.08085
11
5.87624
21
-4.09021
0
LINE
8
BLACK
6
CONTINUOUS
10
5.87624
20
-4.09021
11
5.86536
21
-4.09838
0
LINE
8
BLACK
6
CONTINUOUS
10
5.86536
20
-4.09838
11
5.85362
21
-4.10524
0
LINE
8
BLACK
6
CONTINUOUS
10
5.85362
20
-4.10524
11
5.84117
21
-4.1107
0
LINE
8
BLACK
6
CONTINUOUS
10
5.84117
20
-4.1107
11
5.82817
21
-4.1147
0
LINE
8
BLACK
6
CONTINUOUS
10
5.82817
20
-4.1147
11
5.8148
21
-4.11718
0
LINE
8
BLACK
6
CONTINUOUS
10
5.8148
20
-4.11718
11
5.80124
21
-4.1181
0
LINE
8
BLACK
6
CONTINUOUS
10
5.80124
20
-4.1181
11
5.78765
21
-4.11746
0
LINE
8
BLACK
6
CONTINUOUS
10
5.78765
20
-4.11746
11
5.77424
21
-4.11527
0
LINE
8
BLACK
6
CONTINUOUS
10
5.77424
20
-4.11527
11
5.76116
21
-4.11154
0
LINE
8
BLACK
6
CONTINUOUS
10
5.76116
20
-4.11154
11
5.74859
21
-4.10634
0
LINE
8
BLACK
6
CONTINUOUS
10
5.74859
20
-4.10634
11
5.73671
21
-4.09972
0
LINE
8
BLACK
6
CONTINUOUS
10
5.73671
20
-4.09972
11
5.72567
21
-4.09179
0
LINE
8
BLACK
6
CONTINUOUS
10
5.72567
20
-4.09179
11
5.71561
21
-4.08264
0
LINE
8
BLACK
6
CONTINUOUS
10
5.71561
20
-4.08264
11
5.70667
21
-4.07239
0
LINE
8
BLACK
6
CONTINUOUS
10
5.70667
20
-4.07239
11
5.69897
21
-4.06118
0
LINE
8
BLACK
6
CONTINUOUS
10
5.69897
20
-4.06118
11
5.69261
21
-4.04917
0
LINE
8
BLACK
6
CONTINUOUS
10
5.69261
20
-4.04917
11
5.68767
21
-4.0365
0
LINE
8
BLACK
6
CONTINUOUS
10
5.68767
20
-4.0365
11
5.68422
21
-4.02335
0
LINE
8
BLACK
6
CONTINUOUS
10
5.68422
20
-4.02335
11
5.6823
21
-4.00988
0
LINE
8
BLACK
6
CONTINUOUS
10
5.6823
20
-4.00988
11
5.68195
21
-3.99629
0
LINE
8
BLACK
6
CONTINUOUS
10
5.68195
20
-3.99629
11
5.68316
21
-3.98275
0
LINE
8
BLACK
6
CONTINUOUS
10
5.68316
20
-3.98275
11
5.68591
21
-3.96943
0
LINE
8
BLACK
6
CONTINUOUS
10
5.68591
20
-3.96943
11
5.69018
21
-3.95652
0
LINE
8
BLACK
6
CONTINUOUS
10
5.69018
20
-3.95652
11
5.69591
21
-3.94419
0
LINE
8
BLACK
6
CONTINUOUS
10
5.69591
20
-3.94419
11
5.70301
21
-3.93259
0
LINE
8
BLACK
6
CONTINUOUS
10
5.70301
20
-3.93259
11
5.7114
21
-3.92189
0
LINE
8
BLACK
6
CONTINUOUS
10
5.7114
20
-3.92189
11
5.72097
21
-3.91223
0
LINE
8
BLACK
6
CONTINUOUS
10
5.72097
20
-3.91223
11
5.73158
21
-3.90373
0
LINE
8
BLACK
6
CONTINUOUS
10
5.73158
20
-3.90373
11
5.7431
21
-3.8965
0
LINE
8
BLACK
6
CONTINUOUS
10
5.7431
20
-3.8965
11
5.75537
21
-3.89065
0
LINE
8
BLACK
6
CONTINUOUS
10
5.75537
20
-3.89065
11
5.76824
21
-3.88624
0
LINE
8
BLACK
6
CONTINUOUS
10
5.76824
20
-3.88624
11
5.78152
21
-3.88334
0
LINE
8
BLACK
6
CONTINUOUS
10
5.78152
20
-3.88334
11
5.79505
21
-3.88199
0
LINE
8
BLACK
6
CONTINUOUS
10
5.79505
20
-3.88199
11
5.80865
21
-3.88221
0
LINE
8
BLACK
6
CONTINUOUS
10
4.60865
20
-3.88221
11
4.62213
21
-3.88398
0
LINE
8
BLACK
6
CONTINUOUS
10
4.62213
20
-3.88398
11
4.63532
21
-3.88729
0
LINE
8
BLACK
6
CONTINUOUS
10
4.63532
20
-3.88729
11
4.64804
21
-3.8921
0
LINE
8
BLACK
6
CONTINUOUS
10
4.64804
20
-3.8921
11
4.66012
21
-3.89834
0
LINE
8
BLACK
6
CONTINUOUS
10
4.66012
20
-3.89834
11
4.67141
21
-3.90592
0
LINE
8
BLACK
6
CONTINUOUS
10
4.67141
20
-3.90592
11
4.68175
21
-3.91475
0
LINE
8
BLACK
6
CONTINUOUS
10
4.68175
20
-3.91475
11
4.69101
21
-3.92471
0
LINE
8
BLACK
6
CONTINUOUS
10
4.69101
20
-3.92471
11
4.69906
21
-3.93567
0
LINE
8
BLACK
6
CONTINUOUS
10
4.69906
20
-3.93567
11
4.70579
21
-3.94748
0
LINE
8
BLACK
6
CONTINUOUS
10
4.70579
20
-3.94748
11
4.71113
21
-3.95999
0
LINE
8
BLACK
6
CONTINUOUS
10
4.71113
20
-3.95999
11
4.71499
21
-3.97303
0
LINE
8
BLACK
6
CONTINUOUS
10
4.71499
20
-3.97303
11
4.71733
21
-3.98642
0
LINE
8
BLACK
6
CONTINUOUS
10
4.71733
20
-3.98642
11
4.71811
21
-4
0
LINE
8
BLACK
6
CONTINUOUS
10
4.71811
20
-4
11
4.71788
21
-4.00742
0
LINE
8
BLACK
6
CONTINUOUS
10
4.71788
20
-4.00742
11
4.71624
21
-4.02092
0
LINE
8
BLACK
6
CONTINUOUS
10
4.71624
20
-4.02092
11
4.71307
21
-4.03414
0
LINE
8
BLACK
6
CONTINUOUS
10
4.71307
20
-4.03414
11
4.7084
21
-4.04691
0
LINE
8
BLACK
6
CONTINUOUS
10
4.7084
20
-4.04691
11
4.70229
21
-4.05906
0
LINE
8
BLACK
6
CONTINUOUS
10
4.70229
20
-4.05906
11
4.69482
21
-4.07042
0
LINE
8
BLACK
6
CONTINUOUS
10
4.69482
20
-4.07042
11
4.6861
21
-4.08085
0
LINE
8
BLACK
6
CONTINUOUS
10
4.6861
20
-4.08085
11
4.67624
21
-4.09021
0
LINE
8
BLACK
6
CONTINUOUS
10
4.67624
20
-4.09021
11
4.66536
21
-4.09838
0
LINE
8
BLACK
6
CONTINUOUS
10
4.66536
20
-4.09838
11
4.65362
21
-4.10524
0
LINE
8
BLACK
6
CONTINUOUS
10
4.65362
20
-4.10524
11
4.64117
21
-4.1107
0
LINE
8
BLACK
6
CONTINUOUS
10
4.64117
20
-4.1107
11
4.62817
21
-4.1147
0
LINE
8
BLACK
6
CONTINUOUS
10
4.62817
20
-4.1147
11
4.6148
21
-4.11718
0
LINE
8
BLACK
6
CONTINUOUS
10
4.6148
20
-4.11718
11
4.60124
21
-4.1181
0
LINE
8
BLACK
6
CONTINUOUS
10
4.60124
20
-4.1181
11
4.58765
21
-4.11746
0
LINE
8
BLACK
6
CONTINUOUS
10
4.58765
20
-4.11746
11
4.57424
21
-4.11527
0
LINE
8
BLACK
6
CONTINUOUS
10
4.57424
20
-4.11527
11
4.56116
21
-4.11154
0
LINE
8
BLACK
6
CONTINUOUS
10
4.56116
20
-4.11154
11
4.54859
21
-4.10634
0
LINE
8
BLACK
6
CONTINUOUS
10
4.54859
20
-4.10634
11
4.53671
21
-4.09972
0
LINE
8
BLACK
6
CONTINUOUS
10
4.53671
20
-4.09972
11
4.52567
21
-4.09179
0
LINE
8
BLACK
6
CONTINUOUS
10
4.52567
20
-4.09179
11
4.51561
21
-4.08264
0
LINE
8
BLACK
6
CONTINUOUS
10
4.51561
20
-4.08264
11
4.50667
21
-4.07239
0
LINE
8
BLACK
6
CONTINUOUS
10
4.50667
20
-4.07239
11
4.49897
21
-4.06118
0
LINE
8
BLACK
6
CONTINUOUS
10
4.49897
20
-4.06118
11
4.49261
21
-4.04917
0
LINE
8
BLACK
6
CONTINUOUS
10
4.49261
20
-4.04917
11
4.48767
21
-4.0365
0
LINE
8
BLACK
6
CONTINUOUS
10
4.48767
20
-4.0365
11
4.48422
21
-4.02335
0
LINE
8
BLACK
6
CONTINUOUS
10
4.48422
20
-4.02335
11
4.4823
21
-4.00988
0
LINE
8
BLACK
6
CONTINUOUS
10
4.4823
20
-4.00988
11
4.48195
21
-3.99629
0
LINE
8
BLACK
6
CONTINUOUS
10
4.48195
20
-3.99629
11
4.48316
21
-3.98275
0
LINE
8
BLACK
6
CONTINUOUS
10
4.48316
20
-3.98275
11
4.48591
21
-3.96943
0
LINE
8
BLACK
6
CONTINUOUS
10
4.48591
20
-3.96943
11
4.49018
21
-3.95652
0
LINE
8
BLACK
6
CONTINUOUS
10
4.49018
20
-3.95652
11
4.49591
21
-3.94419
0
LINE
8
BLACK
6
CONTINUOUS
10
4.49591
20
-3.94419
11
4.50301
21
-3.93259
0
LINE
8
BLACK
6
CONTINUOUS
10
4.50301
20
-3.93259
11
4.5114
21
-3.92189
0
LINE
8
BLACK
6
CONTINUOUS
10
4.5114
20
-3.92189
11
4.52097
21
-3.91223
0
LINE
8
BLACK
6
CONTINUOUS
10
4.52097
20
-3.91223
11
4.53158
21
-3.90373
0
LINE
8
BLACK
6
CONTINUOUS
10
4.53158
20
-3.90373
11
4.5431
21
-3.8965
0
LINE
8
BLACK
6
CONTINUOUS
10
4.5431
20
-3.8965
11
4.55537
21
-3.89065
0
LINE
8
BLACK
6
CONTINUOUS
10
4.55537
20
-3.89065
11
4.56824
21
-3.88624
0
LINE
8
BLACK
6
CONTINUOUS
10
4.56824
20
-3.88624
11
4.58152
21
-3.88334
0
LINE
8
BLACK
6
CONTINUOUS
10
4.58152
20
-3.88334
11
4.59505
21
-3.88199
0
LINE
8
BLACK
6
CONTINUOUS
10
4.59505
20
-3.88199
11
4.60865
21
-3.88221
0
LINE
8
BLACK
6
CONTINUOUS
10
5.6
20
-4.04
11
5.54
21
-4.04
0
LINE
8
BLACK
6
CONTINUOUS
10
5.54
20
-4.04
11
5.54
21
-3.98
0
LINE
8
BLACK
6
CONTINUOUS
10
5.54
20
-3.98
11
5.6
21
-3.98
0
LINE
8
BLACK
6
CONTINUOUS
10
5.6
20
-3.98
11
5.6
21
-4.04
0
LINE
8
BLACK
6
CONTINUOUS
10
5.5
20
-4.04
11
5.44
21
-4.04
0
LINE
8
BLACK
6
CONTINUOUS
10
5.44
20
-4.04
11
5.44
21
-3.98
0
LINE
8
BLACK
6
CONTINUOUS
10
5.44
20
-3.98
11
5.5
21
-3.98
0
LINE
8
BLACK
6
CONTINUOUS
10
5.5
20
-3.98
11
5.5
21
-4.04
0
LINE
8
BLACK
6
CONTINUOUS
10
5.4
20
-4.04
11
5.34
21
-4.04
0
LINE
8
BLACK
6
CONTINUOUS
10
5.34
20
-4.04
11
5.34
21
-3.98
0
LINE
8
BLACK
6
CONTINUOUS
10
5.34
20
-3.98
11
5.4
21
-3.98
0
LINE
8
BLACK
6
CONTINUOUS
10
5.4
20
-3.98
11
5.4
21
-4.04
0
LINE
8
BLACK
6
CONTINUOUS
10
5.3
20
-4.04
11
5.24
21
-4.04
0
LINE
8
BLACK
6
CONTINUOUS
10
5.24
20
-4.04
11
5.24
21
-3.98
0
LINE
8
BLACK
6
CONTINUOUS
10
5.24
20
-3.98
11
5.3
21
-3.98
0
LINE
8
BLACK
6
CONTINUOUS
10
5.3
20
-3.98
11
5.3
21
-4.04
0
LINE
8
BLACK
6
CONTINUOUS
10
5.2
20
-4.04
11
5.14
21
-4.04
0
LINE
8
BLACK
6
CONTINUOUS
10
5.14
20
-4.04
11
5.14
21
-3.98
0
LINE
8
BLACK
6
CONTINUOUS
10
5.14
20
-3.98
11
5.2
21
-3.98
0
LINE
8
BLACK
6
CONTINUOUS
10
5.2
20
-3.98
11
5.2
21
-4.04
0
LINE
8
BLACK
6
CONTINUOUS
10
4.86
20
-4.04
11
4.8
21
-4.04
0
LINE
8
BLACK
6
CONTINUOUS
10
4.8
20
-4.04
11
4.8
21
-3.98
0
LINE
8
BLACK
6
CONTINUOUS
10
4.8
20
-3.98
11
4.86
21
-3.98
0
LINE
8
BLACK
6
CONTINUOUS
10
4.86
20
-3.98
11
4.86
21
-4.04
0
LINE
8
BLACK
6
CONTINUOUS
10
4.96
20
-4.04
11
4.9
21
-4.04
0
LINE
8
BLACK
6
CONTINUOUS
10
4.9
20
-4.04
11
4.9
21
-3.98
0
LINE
8
BLACK
6
CONTINUOUS
10
4.9
20
-3.98
11
4.96
21
-3.98
0
LINE
8
BLACK
6
CONTINUOUS
10
4.96
20
-3.98
11
4.96
21
-4.04
0
LINE
8
BLACK
6
CONTINUOUS
10
5.06
20
-4.04
11
5
21
-4.04
0
LINE
8
BLACK
6
CONTINUOUS
10
5
20
-4.04
11
5
21
-3.98
0
LINE
8
BLACK
6
CONTINUOUS
10
5
20
-3.98
11
5.06
21
-3.98
0
LINE
8
BLACK
6
CONTINUOUS
10
5.06
20
-3.98
11
5.06
21
-4.04
0
LINE
8
BLACK
6
CONTINUOUS
10
4.86
20
-3.94
11
4.8
21
-3.94
0
LINE
8
BLACK
6
CONTINUOUS
10
4.8
20
-3.94
11
4.8
21
-3.88
0
LINE
8
BLACK
6
CONTINUOUS
10
4.8
20
-3.88
11
4.86
21
-3.88
0
LINE
8
BLACK
6
CONTINUOUS
10
4.86
20
-3.88
11
4.86
21
-3.94
0
LINE
8
BLACK
6
CONTINUOUS
10
5.2
20
-3.94
11
5.14
21
-3.94
0
LINE
8
BLACK
6
CONTINUOUS
10
5.14
20
-3.94
11
5.14
21
-3.88
0
LINE
8
BLACK
6
CONTINUOUS
10
5.14
20
-3.88
11
5.2
21
-3.88
0
LINE
8
BLACK
6
CONTINUOUS
10
5.2
20
-3.88
11
5.2
21
-3.94
0
LINE
8
BLACK
6
CONTINUOUS
10
4.96
20
-3.94
11
4.9
21
-3.94
0
LINE
8
BLACK
6
CONTINUOUS
10
4.9
20
-3.94
11
4.9
21
-3.88
0
LINE
8
BLACK
6
CONTINUOUS
10
4.9
20
-3.88
11
4.96
21
-3.88
0
LINE
8
BLACK
6
CONTINUOUS
10
4.96
20
-3.88
11
4.96
21
-3.94
0
LINE
8
BLACK
6
CONTINUOUS
10
5.3
20
-3.94
11
5.24
21
-3.94
0
LINE
8
BLACK
6
CONTINUOUS
10
5.24
20
-3.94
11
5.24
21
-3.88
0
LINE
8
BLACK
6
CONTINUOUS
10
5.24
20
-3.88
11
5.3
21
-3.88
0
LINE
8
BLACK
6
CONTINUOUS
10
5.3
20
-3.88
11
5.3
21
-3.94
0
LINE
8
BLACK
6
CONTINUOUS
10
5.4
20
-3.94
11
5.34
21
-3.94
0
LINE
8
BLACK
6
CONTINUOUS
10
5.34
20
-3.94
11
5.34
21
-3.88
0
LINE
8
BLACK
6
CONTINUOUS
10
5.34
20
-3.88
11
5.4
21
-3.88
0
LINE
8
BLACK
6
CONTINUOUS
10
5.4
20
-3.88
11
5.4
21
-3.94
0
LINE
8
BLACK
6
CONTINUOUS
10
5.06
20
-3.94
11
5
21
-3.94
0
LINE
8
BLACK
6
CONTINUOUS
10
5
20
-3.94
11
5
21
-3.88
0
LINE
8
BLACK
6
CONTINUOUS
10
5
20
-3.88
11
5.06
21
-3.88
0
LINE
8
BLACK
6
CONTINUOUS
10
5.06
20
-3.88
11
5.06
21
-3.94
0
LINE
8
BLACK
6
CONTINUOUS
10
5.5
20
-3.94
11
5.44
21
-3.94
0
LINE
8
BLACK
6
CONTINUOUS
10
5.44
20
-3.94
11
5.44
21
-3.88
0
LINE
8
BLACK
6
CONTINUOUS
10
5.44
20
-3.88
11
5.5
21
-3.88
0
LINE
8
BLACK
6
CONTINUOUS
10
5.5
20
-3.88
11
5.5
21
-3.94
0
LINE
8
BLACK
6
CONTINUOUS
10
5.6
20
-3.94
11
5.54
21
-3.94
0
LINE
8
BLACK
6
CONTINUOUS
10
5.54
20
-3.94
11
5.54
21
-3.88
0
LINE
8
BLACK
6
CONTINUOUS
10
5.54
20
-3.88
11
5.6
21
-3.88
0
LINE
8
BLACK
6
CONTINUOUS
10
5.6
20
-3.88
11
5.6
21
-3.94
  0
ENDSEC
  0
EOF
