  0
SECTION
  2
HEADER
  9
$ANGBASE
  50
0.0
  9
$ANGDIR
  70
1
  9
$MEASUREMENT
  70
0
  0
ENDSEC
  0
SECTION
  2
TABLES
  0
TABLE
  2
LTYPE
  70
4
  0
LTYPE
  5
40F
  2
CONTINUOUS
  70
0
  3
Solid line
  72
65
  73
0
  40
0.0
  0
LTYPE
  5
410
  2
DASHDOT
 70
0
  3
Dash Dot ____ _ ____ _
 72
65
 73
4
 40
2.0
 49
1.25
 49
-0.25
 49
0.25
 49
-0.25
  0
LTYPE
  5
411
  2
DASHED
 70
0
  3
Dashed __ __ __ __ __
 72
65
 73
2
 40
0.75
 49
0.5
 49
-0.25
  0
LTYPE
  5
43B
  2
DOTTED
 70
0
  3
Dotted .  .  .  .
 72
65
 73
2
 40
0.2
 49
0.0
 49
-0.2
  0
ENDTAB
  0
TABLE
  2
STYLE
  70
4
  0
STYLE
  2
KICAD
  70
0
  40
0
  41
1
  42
1
  50
0
  71
0
  3
isocp.shx
  0
STYLE
  2
KICADB
  70
0
  40
0
  41
1
  42
1
  50
0
  71
0
  3
isocp.shx
  0
STYLE
  2
KICADI
  70
0
  40
0
  41
1
  42
1
  50
15
  71
0
  3
isocp.shx
  0
STYLE
  2
KICADBI
  70
0
  40
0
  41
1
  42
1
  50
15
  71
0
  3
isocp.shx
  0
ENDTAB
  0
TABLE
  2
LAYER
  70
1
  0
LAYER
  2
BLACK
  70
0
  62
7
  6
CONTINUOUS
  0
ENDTAB
  0
ENDSEC
  0
SECTION
  2
ENTITIES
0
LINE
8
BLACK
6
CONTINUOUS
10
4.43081
20
-3.8323
11
4.43292
21
-3.83047
0
LINE
8
BLACK
6
CONTINUOUS
10
4.43292
20
-3.83047
11
4.43498
21
-3.83002
0
LINE
8
BLACK
6
CONTINUOUS
10
4.43498
20
-3.83002
11
4.85555
21
-3.83002
0
LINE
8
BLACK
6
CONTINUOUS
10
4.85555
20
-3.83002
11
4.85823
21
-3.83081
0
LINE
8
BLACK
6
CONTINUOUS
10
4.85823
20
-3.83081
11
4.86006
21
-3.83292
0
LINE
8
BLACK
6
CONTINUOUS
10
4.86006
20
-3.83292
11
4.86046
21
-3.83569
0
LINE
8
BLACK
6
CONTINUOUS
10
4.86046
20
-3.83569
11
4.8593
21
-3.83823
0
LINE
8
BLACK
6
CONTINUOUS
10
4.8593
20
-3.83823
11
4.85906
21
-3.83849
0
LINE
8
BLACK
6
CONTINUOUS
10
4.85906
20
-3.83849
11
4.83902
21
-3.85853
0
LINE
8
BLACK
6
CONTINUOUS
10
4.83902
20
-3.85853
11
4.83657
21
-3.85987
0
LINE
8
BLACK
6
CONTINUOUS
10
4.83657
20
-3.85987
11
4.83551
21
-3.85998
0
LINE
8
BLACK
6
CONTINUOUS
10
4.83551
20
-3.85998
11
4.7981
21
-3.85998
0
LINE
8
BLACK
6
CONTINUOUS
10
4.7981
20
-3.85998
11
4.79566
21
-3.86025
0
LINE
8
BLACK
6
CONTINUOUS
10
4.79566
20
-3.86025
11
4.79029
21
-3.86226
0
LINE
8
BLACK
6
CONTINUOUS
10
4.79029
20
-3.86226
11
4.7857
21
-3.8657
0
LINE
8
BLACK
6
CONTINUOUS
10
4.7857
20
-3.8657
11
4.78226
21
-3.87029
0
LINE
8
BLACK
6
CONTINUOUS
10
4.78226
20
-3.87029
11
4.78025
21
-3.87566
0
LINE
8
BLACK
6
CONTINUOUS
10
4.78025
20
-3.87566
11
4.77998
21
-3.8781
0
LINE
8
BLACK
6
CONTINUOUS
10
4.77998
20
-3.8781
11
4.77998
21
-3.9419
0
LINE
8
BLACK
6
CONTINUOUS
10
4.77998
20
-3.9419
11
4.78025
21
-3.94434
0
LINE
8
BLACK
6
CONTINUOUS
10
4.78025
20
-3.94434
11
4.78226
21
-3.94971
0
LINE
8
BLACK
6
CONTINUOUS
10
4.78226
20
-3.94971
11
4.7857
21
-3.9543
0
LINE
8
BLACK
6
CONTINUOUS
10
4.7857
20
-3.9543
11
4.78598
21
-3.95451
0
LINE
8
BLACK
6
CONTINUOUS
10
4.78598
20
-3.95451
11
4.78801
21
-3.95603
0
LINE
8
BLACK
6
CONTINUOUS
10
4.78801
20
-3.95603
11
4.78968
21
-3.95827
0
LINE
8
BLACK
6
CONTINUOUS
10
4.78968
20
-3.95827
11
4.78988
21
-3.96106
0
LINE
8
BLACK
6
CONTINUOUS
10
4.78988
20
-3.96106
11
4.78854
21
-3.96351
0
LINE
8
BLACK
6
CONTINUOUS
10
4.78854
20
-3.96351
11
4.78801
21
-3.96397
0
LINE
8
BLACK
6
CONTINUOUS
10
4.78801
20
-3.96397
11
4.7857
21
-3.9657
0
LINE
8
BLACK
6
CONTINUOUS
10
4.7857
20
-3.9657
11
4.78226
21
-3.97029
0
LINE
8
BLACK
6
CONTINUOUS
10
4.78226
20
-3.97029
11
4.78025
21
-3.97566
0
LINE
8
BLACK
6
CONTINUOUS
10
4.78025
20
-3.97566
11
4.77998
21
-3.9781
0
LINE
8
BLACK
6
CONTINUOUS
10
4.77998
20
-3.9781
11
4.77998
21
-4.0419
0
LINE
8
BLACK
6
CONTINUOUS
10
4.77998
20
-4.0419
11
4.78025
21
-4.04434
0
LINE
8
BLACK
6
CONTINUOUS
10
4.78025
20
-4.04434
11
4.78226
21
-4.04971
0
LINE
8
BLACK
6
CONTINUOUS
10
4.78226
20
-4.04971
11
4.7857
21
-4.0543
0
LINE
8
BLACK
6
CONTINUOUS
10
4.7857
20
-4.0543
11
4.79029
21
-4.05774
0
LINE
8
BLACK
6
CONTINUOUS
10
4.79029
20
-4.05774
11
4.79566
21
-4.05975
0
LINE
8
BLACK
6
CONTINUOUS
10
4.79566
20
-4.05975
11
4.7981
21
-4.06002
0
LINE
8
BLACK
6
CONTINUOUS
10
4.7981
20
-4.06002
11
4.8619
21
-4.06002
0
LINE
8
BLACK
6
CONTINUOUS
10
4.8619
20
-4.06002
11
4.86434
21
-4.05975
0
LINE
8
BLACK
6
CONTINUOUS
10
4.86434
20
-4.05975
11
4.86971
21
-4.05774
0
LINE
8
BLACK
6
CONTINUOUS
10
4.86971
20
-4.05774
11
4.8743
21
-4.0543
0
LINE
8
BLACK
6
CONTINUOUS
10
4.8743
20
-4.0543
11
4.87603
21
-4.05199
0
LINE
8
BLACK
6
CONTINUOUS
10
4.87603
20
-4.05199
11
4.87827
21
-4.05032
0
LINE
8
BLACK
6
CONTINUOUS
10
4.87827
20
-4.05032
11
4.88106
21
-4.05012
0
LINE
8
BLACK
6
CONTINUOUS
10
4.88106
20
-4.05012
11
4.88351
21
-4.05146
0
LINE
8
BLACK
6
CONTINUOUS
10
4.88351
20
-4.05146
11
4.88397
21
-4.05199
0
LINE
8
BLACK
6
CONTINUOUS
10
4.88397
20
-4.05199
11
4.8857
21
-4.0543
0
LINE
8
BLACK
6
CONTINUOUS
10
4.8857
20
-4.0543
11
4.89029
21
-4.05774
0
LINE
8
BLACK
6
CONTINUOUS
10
4.89029
20
-4.05774
11
4.89566
21
-4.05975
0
LINE
8
BLACK
6
CONTINUOUS
10
4.89566
20
-4.05975
11
4.8981
21
-4.06002
0
LINE
8
BLACK
6
CONTINUOUS
10
4.8981
20
-4.06002
11
4.9619
21
-4.06002
0
LINE
8
BLACK
6
CONTINUOUS
10
4.9619
20
-4.06002
11
4.96434
21
-4.05975
0
LINE
8
BLACK
6
CONTINUOUS
10
4.96434
20
-4.05975
11
4.96971
21
-4.05774
0
LINE
8
BLACK
6
CONTINUOUS
10
4.96971
20
-4.05774
11
4.97205
21
-4.05599
0
LINE
8
BLACK
6
CONTINUOUS
10
4.97205
20
-4.05599
11
4.97417
21
-4.0544
0
LINE
8
BLACK
6
CONTINUOUS
10
4.97417
20
-4.0544
11
4.97679
21
-4.05342
0
LINE
8
BLACK
6
CONTINUOUS
10
4.97679
20
-4.05342
11
4.97952
21
-4.05401
0
LINE
8
BLACK
6
CONTINUOUS
10
4.97952
20
-4.05401
11
4.9815
21
-4.05599
0
LINE
8
BLACK
6
CONTINUOUS
10
4.9815
20
-4.05599
11
4.98211
21
-4.05837
0
LINE
8
BLACK
6
CONTINUOUS
10
4.98211
20
-4.05837
11
4.98211
21
-4.38564
0
LINE
8
BLACK
6
CONTINUOUS
10
4.98211
20
-4.38564
11
4.98132
21
-4.38832
0
LINE
8
BLACK
6
CONTINUOUS
10
4.98132
20
-4.38832
11
4.98116
21
-4.38856
0
LINE
8
BLACK
6
CONTINUOUS
10
4.98116
20
-4.38856
11
4.98108
21
-4.38867
0
LINE
8
BLACK
6
CONTINUOUS
10
4.98108
20
-4.38867
11
4.9809
21
-4.38886
0
LINE
8
BLACK
6
CONTINUOUS
10
4.9809
20
-4.38886
11
4.97714
21
-4.39537
0
LINE
8
BLACK
6
CONTINUOUS
10
4.97714
20
-4.39537
11
4.97482
21
-4.40252
0
LINE
8
BLACK
6
CONTINUOUS
10
4.97482
20
-4.40252
11
4.97404
21
-4.41
0
LINE
8
BLACK
6
CONTINUOUS
10
4.97404
20
-4.41
11
4.97482
21
-4.41748
0
LINE
8
BLACK
6
CONTINUOUS
10
4.97482
20
-4.41748
11
4.97714
21
-4.42463
0
LINE
8
BLACK
6
CONTINUOUS
10
4.97714
20
-4.42463
11
4.97727
21
-4.42485
0
LINE
8
BLACK
6
CONTINUOUS
10
4.97727
20
-4.42485
11
4.97727
21
-4.42485
0
LINE
8
BLACK
6
CONTINUOUS
10
4.97727
20
-4.42485
11
4.97921
21
-4.4282
0
LINE
8
BLACK
6
CONTINUOUS
10
4.97921
20
-4.4282
11
4.9809
21
-4.43114
0
LINE
8
BLACK
6
CONTINUOUS
10
4.9809
20
-4.43114
11
4.98108
21
-4.43133
0
LINE
8
BLACK
6
CONTINUOUS
10
4.98108
20
-4.43133
11
4.98116
21
-4.43144
0
LINE
8
BLACK
6
CONTINUOUS
10
4.98116
20
-4.43144
11
4.9821
21
-4.43408
0
LINE
8
BLACK
6
CONTINUOUS
10
4.9821
20
-4.43408
11
4.98211
21
-4.43436
0
LINE
8
BLACK
6
CONTINUOUS
10
4.98211
20
-4.43436
11
4.98211
21
-4.46886
0
LINE
8
BLACK
6
CONTINUOUS
10
4.98211
20
-4.46886
11
4.98209
21
-4.4692
0
LINE
8
BLACK
6
CONTINUOUS
10
4.98209
20
-4.4692
11
4.98194
21
-4.47147
0
LINE
8
BLACK
6
CONTINUOUS
10
4.98194
20
-4.47147
11
4.98199
21
-4.47176
0
LINE
8
BLACK
6
CONTINUOUS
10
4.98199
20
-4.47176
11
4.98199
21
-4.47176
0
LINE
8
BLACK
6
CONTINUOUS
10
4.98199
20
-4.47176
11
4.98237
21
-4.47395
0
LINE
8
BLACK
6
CONTINUOUS
10
4.98237
20
-4.47395
11
4.98241
21
-4.47421
0
LINE
8
BLACK
6
CONTINUOUS
10
4.98241
20
-4.47421
11
4.98271
21
-4.4767
0
LINE
8
BLACK
6
CONTINUOUS
10
4.98271
20
-4.4767
11
4.98282
21
-4.47698
0
LINE
8
BLACK
6
CONTINUOUS
10
4.98282
20
-4.47698
11
4.98284
21
-4.47708
0
LINE
8
BLACK
6
CONTINUOUS
10
4.98284
20
-4.47708
11
4.98302
21
-4.47773
0
LINE
8
BLACK
6
CONTINUOUS
10
4.98302
20
-4.47773
11
4.98305
21
-4.47783
0
LINE
8
BLACK
6
CONTINUOUS
10
4.98305
20
-4.47783
11
4.9831
21
-4.47812
0
LINE
8
BLACK
6
CONTINUOUS
10
4.9831
20
-4.47812
11
4.98322
21
-4.4784
0
LINE
8
BLACK
6
CONTINUOUS
10
4.98322
20
-4.4784
11
4.98411
21
-4.48043
0
LINE
8
BLACK
6
CONTINUOUS
10
4.98411
20
-4.48043
11
4.98421
21
-4.48067
0
LINE
8
BLACK
6
CONTINUOUS
10
4.98421
20
-4.48067
11
4.9851
21
-4.48302
0
LINE
8
BLACK
6
CONTINUOUS
10
4.9851
20
-4.48302
11
4.98527
21
-4.48326
0
LINE
8
BLACK
6
CONTINUOUS
10
4.98527
20
-4.48326
11
4.98532
21
-4.48336
0
LINE
8
BLACK
6
CONTINUOUS
10
4.98532
20
-4.48336
11
4.98564
21
-4.48394
0
LINE
8
BLACK
6
CONTINUOUS
10
4.98564
20
-4.48394
11
4.98569
21
-4.48403
0
LINE
8
BLACK
6
CONTINUOUS
10
4.98569
20
-4.48403
11
4.98581
21
-4.4843
0
LINE
8
BLACK
6
CONTINUOUS
10
4.98581
20
-4.4843
11
4.986
21
-4.48454
0
LINE
8
BLACK
6
CONTINUOUS
10
4.986
20
-4.48454
11
4.98735
21
-4.4863
0
LINE
8
BLACK
6
CONTINUOUS
10
4.98735
20
-4.4863
11
4.9875
21
-4.48651
0
LINE
8
BLACK
6
CONTINUOUS
10
4.9875
20
-4.48651
11
4.98875
21
-4.48834
0
LINE
8
BLACK
6
CONTINUOUS
10
4.98875
20
-4.48834
11
4.98875
21
-4.48834
0
LINE
8
BLACK
6
CONTINUOUS
10
4.98875
20
-4.48834
11
4.98892
21
-4.48858
0
LINE
8
BLACK
6
CONTINUOUS
10
4.98892
20
-4.48858
11
4.98915
21
-4.48878
0
LINE
8
BLACK
6
CONTINUOUS
10
4.98915
20
-4.48878
11
4.98915
21
-4.48878
0
LINE
8
BLACK
6
CONTINUOUS
10
4.98915
20
-4.48878
11
4.99075
21
-4.49021
0
LINE
8
BLACK
6
CONTINUOUS
10
4.99075
20
-4.49021
11
4.99096
21
-4.49041
0
LINE
8
BLACK
6
CONTINUOUS
10
4.99096
20
-4.49041
11
5.04947
21
-4.54892
0
LINE
8
BLACK
6
CONTINUOUS
10
5.04947
20
-4.54892
11
5.0497
21
-4.54917
0
LINE
8
BLACK
6
CONTINUOUS
10
5.0497
20
-4.54917
11
5.0512
21
-4.55088
0
LINE
8
BLACK
6
CONTINUOUS
10
5.0512
20
-4.55088
11
5.05326
21
-4.55233
0
LINE
8
BLACK
6
CONTINUOUS
10
5.05326
20
-4.55233
11
5.05346
21
-4.55248
0
LINE
8
BLACK
6
CONTINUOUS
10
5.05346
20
-4.55248
11
5.05544
21
-4.55403
0
LINE
8
BLACK
6
CONTINUOUS
10
5.05544
20
-4.55403
11
5.05572
21
-4.55416
0
LINE
8
BLACK
6
CONTINUOUS
10
5.05572
20
-4.55416
11
5.05581
21
-4.55421
0
LINE
8
BLACK
6
CONTINUOUS
10
5.05581
20
-4.55421
11
5.05638
21
-4.55454
0
LINE
8
BLACK
6
CONTINUOUS
10
5.05638
20
-4.55454
11
5.05648
21
-4.55459
0
LINE
8
BLACK
6
CONTINUOUS
10
5.05648
20
-4.55459
11
5.05672
21
-4.55476
0
LINE
8
BLACK
6
CONTINUOUS
10
5.05672
20
-4.55476
11
5.057
21
-4.55487
0
LINE
8
BLACK
6
CONTINUOUS
10
5.057
20
-4.55487
11
5.057
21
-4.55487
0
LINE
8
BLACK
6
CONTINUOUS
10
5.057
20
-4.55487
11
5.05907
21
-4.55568
0
LINE
8
BLACK
6
CONTINUOUS
10
5.05907
20
-4.55568
11
5.0593
21
-4.55578
0
LINE
8
BLACK
6
CONTINUOUS
10
5.0593
20
-4.55578
11
5.0616
21
-4.55681
0
LINE
8
BLACK
6
CONTINUOUS
10
5.0616
20
-4.55681
11
5.06189
21
-4.55687
0
LINE
8
BLACK
6
CONTINUOUS
10
5.06189
20
-4.55687
11
5.06199
21
-4.5569
0
LINE
8
BLACK
6
CONTINUOUS
10
5.06199
20
-4.5569
11
5.06263
21
-4.55708
0
LINE
8
BLACK
6
CONTINUOUS
10
5.06263
20
-4.55708
11
5.06273
21
-4.55711
0
LINE
8
BLACK
6
CONTINUOUS
10
5.06273
20
-4.55711
11
5.06301
21
-4.55722
0
LINE
8
BLACK
6
CONTINUOUS
10
5.06301
20
-4.55722
11
5.06331
21
-4.55725
0
LINE
8
BLACK
6
CONTINUOUS
10
5.06331
20
-4.55725
11
5.06551
21
-4.55754
0
LINE
8
BLACK
6
CONTINUOUS
10
5.06551
20
-4.55754
11
5.06576
21
-4.55758
0
LINE
8
BLACK
6
CONTINUOUS
10
5.06576
20
-4.55758
11
5.06727
21
-4.55786
0
LINE
8
BLACK
6
CONTINUOUS
10
5.06727
20
-4.55786
11
5.06824
21
-4.55804
0
LINE
8
BLACK
6
CONTINUOUS
10
5.06824
20
-4.55804
11
5.06853
21
-4.55803
0
LINE
8
BLACK
6
CONTINUOUS
10
5.06853
20
-4.55803
11
5.06853
21
-4.55803
0
LINE
8
BLACK
6
CONTINUOUS
10
5.06853
20
-4.55803
11
5.07068
21
-4.5579
0
LINE
8
BLACK
6
CONTINUOUS
10
5.07068
20
-4.5579
11
5.07097
21
-4.55789
0
LINE
8
BLACK
6
CONTINUOUS
10
5.07097
20
-4.55789
11
5.17886
21
-4.55789
0
LINE
8
BLACK
6
CONTINUOUS
10
5.17886
20
-4.55789
11
5.1792
21
-4.55791
0
LINE
8
BLACK
6
CONTINUOUS
10
5.1792
20
-4.55791
11
5.18117
21
-4.55804
0
LINE
8
BLACK
6
CONTINUOUS
10
5.18117
20
-4.55804
11
5.18117
21
-4.55804
0
LINE
8
BLACK
6
CONTINUOUS
10
5.18117
20
-4.55804
11
5.18147
21
-4.55806
0
LINE
8
BLACK
6
CONTINUOUS
10
5.18147
20
-4.55806
11
5.18176
21
-4.55801
0
LINE
8
BLACK
6
CONTINUOUS
10
5.18176
20
-4.55801
11
5.18176
21
-4.55801
0
LINE
8
BLACK
6
CONTINUOUS
10
5.18176
20
-4.55801
11
5.18281
21
-4.55783
0
LINE
8
BLACK
6
CONTINUOUS
10
5.18281
20
-4.55783
11
5.18395
21
-4.55763
0
LINE
8
BLACK
6
CONTINUOUS
10
5.18395
20
-4.55763
11
5.18421
21
-4.55759
0
LINE
8
BLACK
6
CONTINUOUS
10
5.18421
20
-4.55759
11
5.1867
21
-4.55729
0
LINE
8
BLACK
6
CONTINUOUS
10
5.1867
20
-4.55729
11
5.18698
21
-4.55718
0
LINE
8
BLACK
6
CONTINUOUS
10
5.18698
20
-4.55718
11
5.18708
21
-4.55716
0
LINE
8
BLACK
6
CONTINUOUS
10
5.18708
20
-4.55716
11
5.18773
21
-4.55698
0
LINE
8
BLACK
6
CONTINUOUS
10
5.18773
20
-4.55698
11
5.18783
21
-4.55695
0
LINE
8
BLACK
6
CONTINUOUS
10
5.18783
20
-4.55695
11
5.18812
21
-4.5569
0
LINE
8
BLACK
6
CONTINUOUS
10
5.18812
20
-4.5569
11
5.19043
21
-4.55589
0
LINE
8
BLACK
6
CONTINUOUS
10
5.19043
20
-4.55589
11
5.19067
21
-4.55579
0
LINE
8
BLACK
6
CONTINUOUS
10
5.19067
20
-4.55579
11
5.19274
21
-4.55501
0
LINE
8
BLACK
6
CONTINUOUS
10
5.19274
20
-4.55501
11
5.19274
21
-4.55501
0
LINE
8
BLACK
6
CONTINUOUS
10
5.19274
20
-4.55501
11
5.19302
21
-4.5549
0
LINE
8
BLACK
6
CONTINUOUS
10
5.19302
20
-4.5549
11
5.19326
21
-4.55473
0
LINE
8
BLACK
6
CONTINUOUS
10
5.19326
20
-4.55473
11
5.19336
21
-4.55468
0
LINE
8
BLACK
6
CONTINUOUS
10
5.19336
20
-4.55468
11
5.19394
21
-4.55436
0
LINE
8
BLACK
6
CONTINUOUS
10
5.19394
20
-4.55436
11
5.19403
21
-4.55431
0
LINE
8
BLACK
6
CONTINUOUS
10
5.19403
20
-4.55431
11
5.1943
21
-4.55419
0
LINE
8
BLACK
6
CONTINUOUS
10
5.1943
20
-4.55419
11
5.1963
21
-4.55265
0
LINE
8
BLACK
6
CONTINUOUS
10
5.1963
20
-4.55265
11
5.19651
21
-4.5525
0
LINE
8
BLACK
6
CONTINUOUS
10
5.19651
20
-4.5525
11
5.19834
21
-4.55125
0
LINE
8
BLACK
6
CONTINUOUS
10
5.19834
20
-4.55125
11
5.19834
21
-4.55125
0
LINE
8
BLACK
6
CONTINUOUS
10
5.19834
20
-4.55125
11
5.19858
21
-4.55108
0
LINE
8
BLACK
6
CONTINUOUS
10
5.19858
20
-4.55108
11
5.20021
21
-4.54925
0
LINE
8
BLACK
6
CONTINUOUS
10
5.20021
20
-4.54925
11
5.20041
21
-4.54904
0
LINE
8
BLACK
6
CONTINUOUS
10
5.20041
20
-4.54904
11
5.21892
21
-4.53053
0
LINE
8
BLACK
6
CONTINUOUS
10
5.21892
20
-4.53053
11
5.21917
21
-4.5303
0
LINE
8
BLACK
6
CONTINUOUS
10
5.21917
20
-4.5303
11
5.22066
21
-4.529
0
LINE
8
BLACK
6
CONTINUOUS
10
5.22066
20
-4.529
11
5.22066
21
-4.529
0
LINE
8
BLACK
6
CONTINUOUS
10
5.22066
20
-4.529
11
5.22088
21
-4.5288
0
LINE
8
BLACK
6
CONTINUOUS
10
5.22088
20
-4.5288
11
5.22233
21
-4.52674
0
LINE
8
BLACK
6
CONTINUOUS
10
5.22233
20
-4.52674
11
5.22248
21
-4.52654
0
LINE
8
BLACK
6
CONTINUOUS
10
5.22248
20
-4.52654
11
5.22403
21
-4.52456
0
LINE
8
BLACK
6
CONTINUOUS
10
5.22403
20
-4.52456
11
5.22416
21
-4.52428
0
LINE
8
BLACK
6
CONTINUOUS
10
5.22416
20
-4.52428
11
5.22421
21
-4.52419
0
LINE
8
BLACK
6
CONTINUOUS
10
5.22421
20
-4.52419
11
5.22454
21
-4.52362
0
LINE
8
BLACK
6
CONTINUOUS
10
5.22454
20
-4.52362
11
5.22459
21
-4.52352
0
LINE
8
BLACK
6
CONTINUOUS
10
5.22459
20
-4.52352
11
5.22476
21
-4.52328
0
LINE
8
BLACK
6
CONTINUOUS
10
5.22476
20
-4.52328
11
5.22491
21
-4.52291
0
LINE
8
BLACK
6
CONTINUOUS
10
5.22491
20
-4.52291
11
5.22495
21
-4.52286
0
LINE
8
BLACK
6
CONTINUOUS
10
5.22495
20
-4.52286
11
5.22501
21
-4.52274
0
LINE
8
BLACK
6
CONTINUOUS
10
5.22501
20
-4.52274
11
5.22503
21
-4.52275
0
LINE
8
BLACK
6
CONTINUOUS
10
5.22503
20
-4.52275
11
5.22661
21
-4.5207
0
LINE
8
BLACK
6
CONTINUOUS
10
5.22661
20
-4.5207
11
5.22953
21
-4.51975
0
LINE
8
BLACK
6
CONTINUOUS
10
5.22953
20
-4.51975
11
5.25068
21
-4.51975
0
LINE
8
BLACK
6
CONTINUOUS
10
5.25068
20
-4.51975
11
5.25077
21
-4.51975
0
LINE
8
BLACK
6
CONTINUOUS
10
5.25077
20
-4.51975
11
5.25327
21
-4.5198
0
LINE
8
BLACK
6
CONTINUOUS
10
5.25327
20
-4.5198
11
5.25435
21
-4.51967
0
LINE
8
BLACK
6
CONTINUOUS
10
5.25435
20
-4.51967
11
5.25878
21
-4.51911
0
LINE
8
BLACK
6
CONTINUOUS
10
5.25878
20
-4.51911
11
5.25878
21
-4.51911
0
LINE
8
BLACK
6
CONTINUOUS
10
5.25878
20
-4.51911
11
5.25896
21
-4.51909
0
LINE
8
BLACK
6
CONTINUOUS
10
5.25896
20
-4.51909
11
5.2644
21
-4.51761
0
LINE
8
BLACK
6
CONTINUOUS
10
5.2644
20
-4.51761
11
5.26456
21
-4.51754
0
LINE
8
BLACK
6
CONTINUOUS
10
5.26456
20
-4.51754
11
5.26456
21
-4.51754
0
LINE
8
BLACK
6
CONTINUOUS
10
5.26456
20
-4.51754
11
5.2695
21
-4.5154
0
LINE
8
BLACK
6
CONTINUOUS
10
5.2695
20
-4.5154
11
5.2695
21
-4.5154
0
LINE
8
BLACK
6
CONTINUOUS
10
5.2695
20
-4.5154
11
5.26966
21
-4.51533
0
LINE
8
BLACK
6
CONTINUOUS
10
5.26966
20
-4.51533
11
5.27447
21
-4.51238
0
LINE
8
BLACK
6
CONTINUOUS
10
5.27447
20
-4.51238
11
5.27888
21
-4.50872
0
LINE
8
BLACK
6
CONTINUOUS
10
5.27888
20
-4.50872
11
5.28266
21
-4.50454
0
LINE
8
BLACK
6
CONTINUOUS
10
5.28266
20
-4.50454
11
5.28424
21
-4.50221
0
LINE
8
BLACK
6
CONTINUOUS
10
5.28424
20
-4.50221
11
5.28639
21
-4.50042
0
LINE
8
BLACK
6
CONTINUOUS
10
5.28639
20
-4.50042
11
5.28835
21
-4.50002
0
LINE
8
BLACK
6
CONTINUOUS
10
5.28835
20
-4.50002
11
5.29886
21
-4.50002
0
LINE
8
BLACK
6
CONTINUOUS
10
5.29886
20
-4.50002
11
5.30154
21
-4.50081
0
LINE
8
BLACK
6
CONTINUOUS
10
5.30154
20
-4.50081
11
5.30177
21
-4.50097
0
LINE
8
BLACK
6
CONTINUOUS
10
5.30177
20
-4.50097
11
5.30202
21
-4.50115
0
LINE
8
BLACK
6
CONTINUOUS
10
5.30202
20
-4.50115
11
5.30225
21
-4.50125
0
LINE
8
BLACK
6
CONTINUOUS
10
5.30225
20
-4.50125
11
5.30226
21
-4.50125
0
LINE
8
BLACK
6
CONTINUOUS
10
5.30226
20
-4.50125
11
5.30417
21
-4.50211
0
LINE
8
BLACK
6
CONTINUOUS
10
5.30417
20
-4.50211
11
5.30889
21
-4.5042
0
LINE
8
BLACK
6
CONTINUOUS
10
5.30889
20
-4.5042
11
5.31256
21
-4.50499
0
LINE
8
BLACK
6
CONTINUOUS
10
5.31256
20
-4.50499
11
5.31599
21
-4.50571
0
LINE
8
BLACK
6
CONTINUOUS
10
5.31599
20
-4.50571
11
5.31599
21
-4.50571
0
LINE
8
BLACK
6
CONTINUOUS
10
5.31599
20
-4.50571
11
5.31624
21
-4.50577
0
LINE
8
BLACK
6
CONTINUOUS
10
5.31624
20
-4.50577
11
5.32376
21
-4.50577
0
LINE
8
BLACK
6
CONTINUOUS
10
5.32376
20
-4.50577
11
5.32401
21
-4.50571
0
LINE
8
BLACK
6
CONTINUOUS
10
5.32401
20
-4.50571
11
5.32401
21
-4.50571
0
LINE
8
BLACK
6
CONTINUOUS
10
5.32401
20
-4.50571
11
5.32744
21
-4.50499
0
LINE
8
BLACK
6
CONTINUOUS
10
5.32744
20
-4.50499
11
5.33111
21
-4.5042
0
LINE
8
BLACK
6
CONTINUOUS
10
5.33111
20
-4.5042
11
5.33583
21
-4.50211
0
LINE
8
BLACK
6
CONTINUOUS
10
5.33583
20
-4.50211
11
5.33774
21
-4.50125
0
LINE
8
BLACK
6
CONTINUOUS
10
5.33774
20
-4.50125
11
5.33775
21
-4.50125
0
LINE
8
BLACK
6
CONTINUOUS
10
5.33775
20
-4.50125
11
5.33798
21
-4.50115
0
LINE
8
BLACK
6
CONTINUOUS
10
5.33798
20
-4.50115
11
5.33823
21
-4.50097
0
LINE
8
BLACK
6
CONTINUOUS
10
5.33823
20
-4.50097
11
5.33825
21
-4.50096
0
LINE
8
BLACK
6
CONTINUOUS
10
5.33825
20
-4.50096
11
5.33842
21
-4.50086
0
LINE
8
BLACK
6
CONTINUOUS
10
5.33842
20
-4.50086
11
5.33844
21
-4.50089
0
LINE
8
BLACK
6
CONTINUOUS
10
5.33844
20
-4.50089
11
5.34086
21
-4.50003
0
LINE
8
BLACK
6
CONTINUOUS
10
5.34086
20
-4.50003
11
5.34114
21
-4.50002
0
LINE
8
BLACK
6
CONTINUOUS
10
5.34114
20
-4.50002
11
5.38735
21
-4.50002
0
LINE
8
BLACK
6
CONTINUOUS
10
5.38735
20
-4.50002
11
5.38809
21
-4.50008
0
LINE
8
BLACK
6
CONTINUOUS
10
5.38809
20
-4.50008
11
5.38866
21
-4.50016
0
LINE
8
BLACK
6
CONTINUOUS
10
5.38866
20
-4.50016
11
5.38866
21
-4.50016
0
LINE
8
BLACK
6
CONTINUOUS
10
5.38866
20
-4.50016
11
5.38895
21
-4.50021
0
LINE
8
BLACK
6
CONTINUOUS
10
5.38895
20
-4.50021
11
5.38923
21
-4.50018
0
LINE
8
BLACK
6
CONTINUOUS
10
5.38923
20
-4.50018
11
5.38923
21
-4.50018
0
LINE
8
BLACK
6
CONTINUOUS
10
5.38923
20
-4.50018
11
5.39103
21
-4.50004
0
LINE
8
BLACK
6
CONTINUOUS
10
5.39103
20
-4.50004
11
5.39143
21
-4.50002
0
LINE
8
BLACK
6
CONTINUOUS
10
5.39143
20
-4.50002
11
5.39175
21
-4.50002
0
LINE
8
BLACK
6
CONTINUOUS
10
5.39175
20
-4.50002
11
5.3919
21
-4.5
0
LINE
8
BLACK
6
CONTINUOUS
10
5.3919
20
-4.5
11
5.3919
21
-4.5
0
LINE
8
BLACK
6
CONTINUOUS
10
5.3919
20
-4.5
11
5.39203
21
-4.49999
0
LINE
8
BLACK
6
CONTINUOUS
10
5.39203
20
-4.49999
11
5.39287
21
-4.49989
0
LINE
8
BLACK
6
CONTINUOUS
10
5.39287
20
-4.49989
11
5.39304
21
-4.49987
0
LINE
8
BLACK
6
CONTINUOUS
10
5.39304
20
-4.49987
11
5.39592
21
-4.49964
0
LINE
8
BLACK
6
CONTINUOUS
10
5.39592
20
-4.49964
11
5.3962
21
-4.49955
0
LINE
8
BLACK
6
CONTINUOUS
10
5.3962
20
-4.49955
11
5.39643
21
-4.4995
0
LINE
8
BLACK
6
CONTINUOUS
10
5.39643
20
-4.4995
11
5.39667
21
-4.49945
0
LINE
8
BLACK
6
CONTINUOUS
10
5.39667
20
-4.49945
11
5.39695
21
-4.49941
0
LINE
8
BLACK
6
CONTINUOUS
10
5.39695
20
-4.49941
11
5.39722
21
-4.49932
0
LINE
8
BLACK
6
CONTINUOUS
10
5.39722
20
-4.49932
11
5.39722
21
-4.49932
0
LINE
8
BLACK
6
CONTINUOUS
10
5.39722
20
-4.49932
11
5.39967
21
-4.49843
0
LINE
8
BLACK
6
CONTINUOUS
10
5.39967
20
-4.49843
11
5.39983
21
-4.49837
0
LINE
8
BLACK
6
CONTINUOUS
10
5.39983
20
-4.49837
11
5.40258
21
-4.49748
0
LINE
8
BLACK
6
CONTINUOUS
10
5.40258
20
-4.49748
11
5.40283
21
-4.49733
0
LINE
8
BLACK
6
CONTINUOUS
10
5.40283
20
-4.49733
11
5.40305
21
-4.49723
0
LINE
8
BLACK
6
CONTINUOUS
10
5.40305
20
-4.49723
11
5.40326
21
-4.49712
0
LINE
8
BLACK
6
CONTINUOUS
10
5.40326
20
-4.49712
11
5.40353
21
-4.49702
0
LINE
8
BLACK
6
CONTINUOUS
10
5.40353
20
-4.49702
11
5.40595
21
-4.49544
0
LINE
8
BLACK
6
CONTINUOUS
10
5.40595
20
-4.49544
11
5.40609
21
-4.49535
0
LINE
8
BLACK
6
CONTINUOUS
10
5.40609
20
-4.49535
11
5.40857
21
-4.49385
0
LINE
8
BLACK
6
CONTINUOUS
10
5.40857
20
-4.49385
11
5.40873
21
-4.4937
0
LINE
8
BLACK
6
CONTINUOUS
10
5.40873
20
-4.4937
11
5.40873
21
-4.4937
0
LINE
8
BLACK
6
CONTINUOUS
10
5.40873
20
-4.4937
11
5.4089
21
-4.49356
0
LINE
8
BLACK
6
CONTINUOUS
10
5.4089
20
-4.49356
11
5.4089
21
-4.49356
0
LINE
8
BLACK
6
CONTINUOUS
10
5.4089
20
-4.49356
11
5.40901
21
-4.49346
0
LINE
8
BLACK
6
CONTINUOUS
10
5.40901
20
-4.49346
11
5.40915
21
-4.49334
0
LINE
8
BLACK
6
CONTINUOUS
10
5.40915
20
-4.49334
11
5.40939
21
-4.49319
0
LINE
8
BLACK
6
CONTINUOUS
10
5.40939
20
-4.49319
11
5.4115
21
-4.49096
0
LINE
8
BLACK
6
CONTINUOUS
10
5.4115
20
-4.49096
11
5.41159
21
-4.49087
0
LINE
8
BLACK
6
CONTINUOUS
10
5.41159
20
-4.49087
11
5.47935
21
-4.4231
0
LINE
8
BLACK
6
CONTINUOUS
10
5.47935
20
-4.4231
11
5.47992
21
-4.42262
0
LINE
8
BLACK
6
CONTINUOUS
10
5.47992
20
-4.42262
11
5.48038
21
-4.42228
0
LINE
8
BLACK
6
CONTINUOUS
10
5.48038
20
-4.42228
11
5.48061
21
-4.4221
0
LINE
8
BLACK
6
CONTINUOUS
10
5.48061
20
-4.4221
11
5.48197
21
-4.42051
0
LINE
8
BLACK
6
CONTINUOUS
10
5.48197
20
-4.42051
11
5.48224
21
-4.42021
0
LINE
8
BLACK
6
CONTINUOUS
10
5.48224
20
-4.42021
11
5.48247
21
-4.41999
0
LINE
8
BLACK
6
CONTINUOUS
10
5.48247
20
-4.41999
11
5.48256
21
-4.41987
0
LINE
8
BLACK
6
CONTINUOUS
10
5.48256
20
-4.41987
11
5.48256
21
-4.41987
0
LINE
8
BLACK
6
CONTINUOUS
10
5.48256
20
-4.41987
11
5.48316
21
-4.41911
0
LINE
8
BLACK
6
CONTINUOUS
10
5.48316
20
-4.41911
11
5.48327
21
-4.41897
0
LINE
8
BLACK
6
CONTINUOUS
10
5.48327
20
-4.41897
11
5.48496
21
-4.41699
0
LINE
8
BLACK
6
CONTINUOUS
10
5.48496
20
-4.41699
11
5.48496
21
-4.41699
0
LINE
8
BLACK
6
CONTINUOUS
10
5.48496
20
-4.41699
11
5.48515
21
-4.41677
0
LINE
8
BLACK
6
CONTINUOUS
10
5.48515
20
-4.41677
11
5.48528
21
-4.41651
0
LINE
8
BLACK
6
CONTINUOUS
10
5.48528
20
-4.41651
11
5.48541
21
-4.41631
0
LINE
8
BLACK
6
CONTINUOUS
10
5.48541
20
-4.41631
11
5.48554
21
-4.41611
0
LINE
8
BLACK
6
CONTINUOUS
10
5.48554
20
-4.41611
11
5.48571
21
-4.41588
0
LINE
8
BLACK
6
CONTINUOUS
10
5.48571
20
-4.41588
11
5.48694
21
-4.41326
0
LINE
8
BLACK
6
CONTINUOUS
10
5.48694
20
-4.41326
11
5.48701
21
-4.41311
0
LINE
8
BLACK
6
CONTINUOUS
10
5.48701
20
-4.41311
11
5.48833
21
-4.41054
0
LINE
8
BLACK
6
CONTINUOUS
10
5.48833
20
-4.41054
11
5.4884
21
-4.41026
0
LINE
8
BLACK
6
CONTINUOUS
10
5.4884
20
-4.41026
11
5.48848
21
-4.41003
0
LINE
8
BLACK
6
CONTINUOUS
10
5.48848
20
-4.41003
11
5.48856
21
-4.4098
0
LINE
8
BLACK
6
CONTINUOUS
10
5.48856
20
-4.4098
11
5.48868
21
-4.40954
0
LINE
8
BLACK
6
CONTINUOUS
10
5.48868
20
-4.40954
11
5.48927
21
-4.40671
0
LINE
8
BLACK
6
CONTINUOUS
10
5.48927
20
-4.40671
11
5.48931
21
-4.40654
0
LINE
8
BLACK
6
CONTINUOUS
10
5.48931
20
-4.40654
11
5.48994
21
-4.40395
0
LINE
8
BLACK
6
CONTINUOUS
10
5.48994
20
-4.40395
11
5.48999
21
-4.40374
0
LINE
8
BLACK
6
CONTINUOUS
10
5.48999
20
-4.40374
11
5.49002
21
-4.40329
0
LINE
8
BLACK
6
CONTINUOUS
10
5.49002
20
-4.40329
11
5.49002
21
-4.40329
0
LINE
8
BLACK
6
CONTINUOUS
10
5.49002
20
-4.40329
11
5.49003
21
-4.40314
0
LINE
8
BLACK
6
CONTINUOUS
10
5.49003
20
-4.40314
11
5.49005
21
-4.40297
0
LINE
8
BLACK
6
CONTINUOUS
10
5.49005
20
-4.40297
11
5.4901
21
-4.40269
0
LINE
8
BLACK
6
CONTINUOUS
10
5.4901
20
-4.40269
11
5.49002
21
-4.39962
0
LINE
8
BLACK
6
CONTINUOUS
10
5.49002
20
-4.39962
11
5.49002
21
-4.39949
0
LINE
8
BLACK
6
CONTINUOUS
10
5.49002
20
-4.39949
11
5.49002
21
-4.22235
0
LINE
8
BLACK
6
CONTINUOUS
10
5.49002
20
-4.22235
11
5.49068
21
-4.21986
0
LINE
8
BLACK
6
CONTINUOUS
10
5.49068
20
-4.21986
11
5.49273
21
-4.21633
0
LINE
8
BLACK
6
CONTINUOUS
10
5.49273
20
-4.21633
11
5.49273
21
-4.21633
0
LINE
8
BLACK
6
CONTINUOUS
10
5.49273
20
-4.21633
11
5.49286
21
-4.2161
0
LINE
8
BLACK
6
CONTINUOUS
10
5.49286
20
-4.2161
11
5.49518
21
-4.20895
0
LINE
8
BLACK
6
CONTINUOUS
10
5.49518
20
-4.20895
11
5.49596
21
-4.20148
0
LINE
8
BLACK
6
CONTINUOUS
10
5.49596
20
-4.20148
11
5.49518
21
-4.194
0
LINE
8
BLACK
6
CONTINUOUS
10
5.49518
20
-4.194
11
5.49286
21
-4.18685
0
LINE
8
BLACK
6
CONTINUOUS
10
5.49286
20
-4.18685
11
5.4891
21
-4.18034
0
LINE
8
BLACK
6
CONTINUOUS
10
5.4891
20
-4.18034
11
5.48407
21
-4.17475
0
LINE
8
BLACK
6
CONTINUOUS
10
5.48407
20
-4.17475
11
5.47798
21
-4.17033
0
LINE
8
BLACK
6
CONTINUOUS
10
5.47798
20
-4.17033
11
5.47775
21
-4.17022
0
LINE
8
BLACK
6
CONTINUOUS
10
5.47775
20
-4.17022
11
5.47774
21
-4.17022
0
LINE
8
BLACK
6
CONTINUOUS
10
5.47774
20
-4.17022
11
5.47135
21
-4.16738
0
LINE
8
BLACK
6
CONTINUOUS
10
5.47135
20
-4.16738
11
5.47135
21
-4.16738
0
LINE
8
BLACK
6
CONTINUOUS
10
5.47135
20
-4.16738
11
5.47111
21
-4.16727
0
LINE
8
BLACK
6
CONTINUOUS
10
5.47111
20
-4.16727
11
5.46968
21
-4.16697
0
LINE
8
BLACK
6
CONTINUOUS
10
5.46968
20
-4.16697
11
5.46891
21
-4.1668
0
LINE
8
BLACK
6
CONTINUOUS
10
5.46891
20
-4.1668
11
5.46644
21
-4.16546
0
LINE
8
BLACK
6
CONTINUOUS
10
5.46644
20
-4.16546
11
5.40147
21
-4.10049
0
LINE
8
BLACK
6
CONTINUOUS
10
5.40147
20
-4.10049
11
5.40013
21
-4.09804
0
LINE
8
BLACK
6
CONTINUOUS
10
5.40013
20
-4.09804
11
5.40002
21
-4.09699
0
LINE
8
BLACK
6
CONTINUOUS
10
5.40002
20
-4.09699
11
5.40002
21
-4.06466
0
LINE
8
BLACK
6
CONTINUOUS
10
5.40002
20
-4.06466
11
5.40081
21
-4.06198
0
LINE
8
BLACK
6
CONTINUOUS
10
5.40081
20
-4.06198
11
5.40292
21
-4.06015
0
LINE
8
BLACK
6
CONTINUOUS
10
5.40292
20
-4.06015
11
5.40383
21
-4.05984
0
LINE
8
BLACK
6
CONTINUOUS
10
5.40383
20
-4.05984
11
5.40403
21
-4.05979
0
LINE
8
BLACK
6
CONTINUOUS
10
5.40403
20
-4.05979
11
5.40434
21
-4.05975
0
LINE
8
BLACK
6
CONTINUOUS
10
5.40434
20
-4.05975
11
5.40971
21
-4.05774
0
LINE
8
BLACK
6
CONTINUOUS
10
5.40971
20
-4.05774
11
5.4143
21
-4.0543
0
LINE
8
BLACK
6
CONTINUOUS
10
5.4143
20
-4.0543
11
5.41603
21
-4.05199
0
LINE
8
BLACK
6
CONTINUOUS
10
5.41603
20
-4.05199
11
5.41827
21
-4.05032
0
LINE
8
BLACK
6
CONTINUOUS
10
5.41827
20
-4.05032
11
5.42106
21
-4.05012
0
LINE
8
BLACK
6
CONTINUOUS
10
5.42106
20
-4.05012
11
5.42351
21
-4.05146
0
LINE
8
BLACK
6
CONTINUOUS
10
5.42351
20
-4.05146
11
5.42397
21
-4.05199
0
LINE
8
BLACK
6
CONTINUOUS
10
5.42397
20
-4.05199
11
5.4257
21
-4.0543
0
LINE
8
BLACK
6
CONTINUOUS
10
5.4257
20
-4.0543
11
5.43029
21
-4.05774
0
LINE
8
BLACK
6
CONTINUOUS
10
5.43029
20
-4.05774
11
5.43566
21
-4.05975
0
LINE
8
BLACK
6
CONTINUOUS
10
5.43566
20
-4.05975
11
5.4381
21
-4.06002
0
LINE
8
BLACK
6
CONTINUOUS
10
5.4381
20
-4.06002
11
5.5019
21
-4.06002
0
LINE
8
BLACK
6
CONTINUOUS
10
5.5019
20
-4.06002
11
5.50434
21
-4.05975
0
LINE
8
BLACK
6
CONTINUOUS
10
5.50434
20
-4.05975
11
5.50971
21
-4.05774
0
LINE
8
BLACK
6
CONTINUOUS
10
5.50971
20
-4.05774
11
5.5143
21
-4.0543
0
LINE
8
BLACK
6
CONTINUOUS
10
5.5143
20
-4.0543
11
5.51604
21
-4.05198
0
LINE
8
BLACK
6
CONTINUOUS
10
5.51604
20
-4.05198
11
5.51828
21
-4.0503
0
LINE
8
BLACK
6
CONTINUOUS
10
5.51828
20
-4.0503
11
5.52107
21
-4.05011
0
LINE
8
BLACK
6
CONTINUOUS
10
5.52107
20
-4.05011
11
5.52352
21
-4.05145
0
LINE
8
BLACK
6
CONTINUOUS
10
5.52352
20
-4.05145
11
5.52398
21
-4.05198
0
LINE
8
BLACK
6
CONTINUOUS
10
5.52398
20
-4.05198
11
5.5255
21
-4.054
0
LINE
8
BLACK
6
CONTINUOUS
10
5.5255
20
-4.054
11
5.526
21
-4.0545
0
LINE
8
BLACK
6
CONTINUOUS
10
5.526
20
-4.0545
11
5.53001
21
-4.05751
0
LINE
8
BLACK
6
CONTINUOUS
10
5.53001
20
-4.05751
11
5.53063
21
-4.05785
0
LINE
8
BLACK
6
CONTINUOUS
10
5.53063
20
-4.05785
11
5.53537
21
-4.05963
0
LINE
8
BLACK
6
CONTINUOUS
10
5.53537
20
-4.05963
11
5.53597
21
-4.05977
0
LINE
8
BLACK
6
CONTINUOUS
10
5.53597
20
-4.05977
11
5.53797
21
-4.05999
0
LINE
8
BLACK
6
CONTINUOUS
10
5.53797
20
-4.05999
11
5.53824
21
-4.06
0
LINE
8
BLACK
6
CONTINUOUS
10
5.53824
20
-4.06
11
5.55929
21
-4.06
0
LINE
8
BLACK
6
CONTINUOUS
10
5.55929
20
-4.06
11
5.55989
21
-4.05982
0
LINE
8
BLACK
6
CONTINUOUS
10
5.55989
20
-4.05982
11
5.55993
21
-4.05977
0
LINE
8
BLACK
6
CONTINUOUS
10
5.55993
20
-4.05977
11
5.56
21
-4.05947
0
LINE
8
BLACK
6
CONTINUOUS
10
5.56
20
-4.05947
11
5.56
21
-4.04
0
LINE
8
BLACK
6
CONTINUOUS
10
5.56
20
-4.04
11
5.54
21
-4.04
0
LINE
8
BLACK
6
CONTINUOUS
10
5.54
20
-4.04
11
5.54
21
-3.98
0
LINE
8
BLACK
6
CONTINUOUS
10
5.54
20
-3.98
11
5.56
21
-3.98
0
LINE
8
BLACK
6
CONTINUOUS
10
5.56
20
-3.98
11
5.56
21
-3.94
0
LINE
8
BLACK
6
CONTINUOUS
10
5.56
20
-3.94
11
5.54
21
-3.94
0
LINE
8
BLACK
6
CONTINUOUS
10
5.54
20
-3.94
11
5.54
21
-3.88
0
LINE
8
BLACK
6
CONTINUOUS
10
5.54
20
-3.88
11
5.56
21
-3.88
0
LINE
8
BLACK
6
CONTINUOUS
10
5.56
20
-3.88
11
5.56
21
-3.86071
0
LINE
8
BLACK
6
CONTINUOUS
10
5.56
20
-3.86071
11
5.55982
21
-3.86011
0
LINE
8
BLACK
6
CONTINUOUS
10
5.55982
20
-3.86011
11
5.55977
21
-3.86007
0
LINE
8
BLACK
6
CONTINUOUS
10
5.55977
20
-3.86007
11
5.55947
21
-3.86
0
LINE
8
BLACK
6
CONTINUOUS
10
5.55947
20
-3.86
11
5.53824
21
-3.86
0
LINE
8
BLACK
6
CONTINUOUS
10
5.53824
20
-3.86
11
5.53797
21
-3.86001
0
LINE
8
BLACK
6
CONTINUOUS
10
5.53797
20
-3.86001
11
5.53597
21
-3.86023
0
LINE
8
BLACK
6
CONTINUOUS
10
5.53597
20
-3.86023
11
5.53537
21
-3.86037
0
LINE
8
BLACK
6
CONTINUOUS
10
5.53537
20
-3.86037
11
5.53063
21
-3.86215
0
LINE
8
BLACK
6
CONTINUOUS
10
5.53063
20
-3.86215
11
5.53001
21
-3.86249
0
LINE
8
BLACK
6
CONTINUOUS
10
5.53001
20
-3.86249
11
5.526
21
-3.8655
0
LINE
8
BLACK
6
CONTINUOUS
10
5.526
20
-3.8655
11
5.5255
21
-3.866
0
LINE
8
BLACK
6
CONTINUOUS
10
5.5255
20
-3.866
11
5.52398
21
-3.86802
0
LINE
8
BLACK
6
CONTINUOUS
10
5.52398
20
-3.86802
11
5.52174
21
-3.8697
0
LINE
8
BLACK
6
CONTINUOUS
10
5.52174
20
-3.8697
11
5.51896
21
-3.86989
0
LINE
8
BLACK
6
CONTINUOUS
10
5.51896
20
-3.86989
11
5.5165
21
-3.86855
0
LINE
8
BLACK
6
CONTINUOUS
10
5.5165
20
-3.86855
11
5.51604
21
-3.86802
0
LINE
8
BLACK
6
CONTINUOUS
10
5.51604
20
-3.86802
11
5.5143
21
-3.8657
0
LINE
8
BLACK
6
CONTINUOUS
10
5.5143
20
-3.8657
11
5.50971
21
-3.86226
0
LINE
8
BLACK
6
CONTINUOUS
10
5.50971
20
-3.86226
11
5.50434
21
-3.86025
0
LINE
8
BLACK
6
CONTINUOUS
10
5.50434
20
-3.86025
11
5.5019
21
-3.85998
0
LINE
8
BLACK
6
CONTINUOUS
10
5.5019
20
-3.85998
11
5.4381
21
-3.85998
0
LINE
8
BLACK
6
CONTINUOUS
10
5.4381
20
-3.85998
11
5.43566
21
-3.86025
0
LINE
8
BLACK
6
CONTINUOUS
10
5.43566
20
-3.86025
11
5.43029
21
-3.86226
0
LINE
8
BLACK
6
CONTINUOUS
10
5.43029
20
-3.86226
11
5.4257
21
-3.8657
0
LINE
8
BLACK
6
CONTINUOUS
10
5.4257
20
-3.8657
11
5.42549
21
-3.86598
0
LINE
8
BLACK
6
CONTINUOUS
10
5.42549
20
-3.86598
11
5.42549
21
-3.86598
0
LINE
8
BLACK
6
CONTINUOUS
10
5.42549
20
-3.86598
11
5.42397
21
-3.86801
0
LINE
8
BLACK
6
CONTINUOUS
10
5.42397
20
-3.86801
11
5.42173
21
-3.86968
0
LINE
8
BLACK
6
CONTINUOUS
10
5.42173
20
-3.86968
11
5.41894
21
-3.86988
0
LINE
8
BLACK
6
CONTINUOUS
10
5.41894
20
-3.86988
11
5.41649
21
-3.86854
0
LINE
8
BLACK
6
CONTINUOUS
10
5.41649
20
-3.86854
11
5.41603
21
-3.86801
0
LINE
8
BLACK
6
CONTINUOUS
10
5.41603
20
-3.86801
11
5.41451
21
-3.86598
0
LINE
8
BLACK
6
CONTINUOUS
10
5.41451
20
-3.86598
11
5.41451
21
-3.86598
0
LINE
8
BLACK
6
CONTINUOUS
10
5.41451
20
-3.86598
11
5.4143
21
-3.8657
0
LINE
8
BLACK
6
CONTINUOUS
10
5.4143
20
-3.8657
11
5.40971
21
-3.86226
0
LINE
8
BLACK
6
CONTINUOUS
10
5.40971
20
-3.86226
11
5.40434
21
-3.86025
0
LINE
8
BLACK
6
CONTINUOUS
10
5.40434
20
-3.86025
11
5.4019
21
-3.85998
0
LINE
8
BLACK
6
CONTINUOUS
10
5.4019
20
-3.85998
11
5.36449
21
-3.85998
0
LINE
8
BLACK
6
CONTINUOUS
10
5.36449
20
-3.85998
11
5.36181
21
-3.85919
0
LINE
8
BLACK
6
CONTINUOUS
10
5.36181
20
-3.85919
11
5.36098
21
-3.85853
0
LINE
8
BLACK
6
CONTINUOUS
10
5.36098
20
-3.85853
11
5.34094
21
-3.83849
0
LINE
8
BLACK
6
CONTINUOUS
10
5.34094
20
-3.83849
11
5.3396
21
-3.83603
0
LINE
8
BLACK
6
CONTINUOUS
10
5.3396
20
-3.83603
11
5.3398
21
-3.83325
0
LINE
8
BLACK
6
CONTINUOUS
10
5.3398
20
-3.83325
11
5.34148
21
-3.83101
0
LINE
8
BLACK
6
CONTINUOUS
10
5.34148
20
-3.83101
11
5.3441
21
-3.83003
0
LINE
8
BLACK
6
CONTINUOUS
10
5.3441
20
-3.83003
11
5.34445
21
-3.83002
0
LINE
8
BLACK
6
CONTINUOUS
10
5.34445
20
-3.83002
11
5.96502
21
-3.83002
0
LINE
8
BLACK
6
CONTINUOUS
10
5.96502
20
-3.83002
11
5.9677
21
-3.83081
0
LINE
8
BLACK
6
CONTINUOUS
10
5.9677
20
-3.83081
11
5.96953
21
-3.83292
0
LINE
8
BLACK
6
CONTINUOUS
10
5.96953
20
-3.83292
11
5.96998
21
-3.83498
0
LINE
8
BLACK
6
CONTINUOUS
10
5.96998
20
-3.83498
11
5.96998
21
-4.56502
0
LINE
8
BLACK
6
CONTINUOUS
10
5.96998
20
-4.56502
11
5.96919
21
-4.5677
0
LINE
8
BLACK
6
CONTINUOUS
10
5.96919
20
-4.5677
11
5.96708
21
-4.56953
0
LINE
8
BLACK
6
CONTINUOUS
10
5.96708
20
-4.56953
11
5.96502
21
-4.56998
0
LINE
8
BLACK
6
CONTINUOUS
10
5.96502
20
-4.56998
11
4.43498
21
-4.56998
0
LINE
8
BLACK
6
CONTINUOUS
10
4.43498
20
-4.56998
11
4.4323
21
-4.56919
0
LINE
8
BLACK
6
CONTINUOUS
10
4.4323
20
-4.56919
11
4.43047
21
-4.56708
0
LINE
8
BLACK
6
CONTINUOUS
10
4.43047
20
-4.56708
11
4.43002
21
-4.56502
0
LINE
8
BLACK
6
CONTINUOUS
10
4.43002
20
-4.56502
11
4.43002
21
-3.83498
0
LINE
8
BLACK
6
CONTINUOUS
10
4.43002
20
-3.83498
11
4.43081
21
-3.8323
0
LINE
8
BLACK
6
CONTINUOUS
10
4.74015
20
-4.14386
11
4.45985
21
-4.14386
0
LINE
8
BLACK
6
CONTINUOUS
10
4.45985
20
-4.14386
11
4.45985
21
-4.25614
0
LINE
8
BLACK
6
CONTINUOUS
10
4.45985
20
-4.25614
11
4.74015
21
-4.25614
0
LINE
8
BLACK
6
CONTINUOUS
10
4.74015
20
-4.25614
11
4.74015
21
-4.14386
0
LINE
8
BLACK
6
CONTINUOUS
10
5.6
20
-3.92
11
5.6
21
-3.94
0
LINE
8
BLACK
6
CONTINUOUS
10
5.6
20
-3.94
11
5.58
21
-3.94
0
LINE
8
BLACK
6
CONTINUOUS
10
5.58
20
-3.94
11
5.58
21
-3.98
0
LINE
8
BLACK
6
CONTINUOUS
10
5.58
20
-3.98
11
5.6
21
-3.98
0
LINE
8
BLACK
6
CONTINUOUS
10
5.6
20
-3.98
11
5.6
21
-4
0
LINE
8
BLACK
6
CONTINUOUS
10
5.6
20
-4
11
5.61929
21
-4
0
LINE
8
BLACK
6
CONTINUOUS
10
5.61929
20
-4
11
5.61989
21
-3.99982
0
LINE
8
BLACK
6
CONTINUOUS
10
5.61989
20
-3.99982
11
5.61993
21
-3.99977
0
LINE
8
BLACK
6
CONTINUOUS
10
5.61993
20
-3.99977
11
5.62
21
-3.99947
0
LINE
8
BLACK
6
CONTINUOUS
10
5.62
20
-3.99947
11
5.62
21
-3.97824
0
LINE
8
BLACK
6
CONTINUOUS
10
5.62
20
-3.97824
11
5.61999
21
-3.97797
0
LINE
8
BLACK
6
CONTINUOUS
10
5.61999
20
-3.97797
11
5.61977
21
-3.97597
0
LINE
8
BLACK
6
CONTINUOUS
10
5.61977
20
-3.97597
11
5.61963
21
-3.97537
0
LINE
8
BLACK
6
CONTINUOUS
10
5.61963
20
-3.97537
11
5.61785
21
-3.97063
0
LINE
8
BLACK
6
CONTINUOUS
10
5.61785
20
-3.97063
11
5.61751
21
-3.97001
0
LINE
8
BLACK
6
CONTINUOUS
10
5.61751
20
-3.97001
11
5.6145
21
-3.966
0
LINE
8
BLACK
6
CONTINUOUS
10
5.6145
20
-3.966
11
5.614
21
-3.9655
0
LINE
8
BLACK
6
CONTINUOUS
10
5.614
20
-3.9655
11
5.61196
21
-3.96397
0
LINE
8
BLACK
6
CONTINUOUS
10
5.61196
20
-3.96397
11
5.61029
21
-3.96173
0
LINE
8
BLACK
6
CONTINUOUS
10
5.61029
20
-3.96173
11
5.61009
21
-3.95894
0
LINE
8
BLACK
6
CONTINUOUS
10
5.61009
20
-3.95894
11
5.61143
21
-3.95649
0
LINE
8
BLACK
6
CONTINUOUS
10
5.61143
20
-3.95649
11
5.61196
21
-3.95603
0
LINE
8
BLACK
6
CONTINUOUS
10
5.61196
20
-3.95603
11
5.614
21
-3.9545
0
LINE
8
BLACK
6
CONTINUOUS
10
5.614
20
-3.9545
11
5.6145
21
-3.954
0
LINE
8
BLACK
6
CONTINUOUS
10
5.6145
20
-3.954
11
5.61751
21
-3.94999
0
LINE
8
BLACK
6
CONTINUOUS
10
5.61751
20
-3.94999
11
5.61785
21
-3.94937
0
LINE
8
BLACK
6
CONTINUOUS
10
5.61785
20
-3.94937
11
5.61963
21
-3.94463
0
LINE
8
BLACK
6
CONTINUOUS
10
5.61963
20
-3.94463
11
5.61977
21
-3.94403
0
LINE
8
BLACK
6
CONTINUOUS
10
5.61977
20
-3.94403
11
5.61999
21
-3.94203
0
LINE
8
BLACK
6
CONTINUOUS
10
5.61999
20
-3.94203
11
5.62
21
-3.94176
0
LINE
8
BLACK
6
CONTINUOUS
10
5.62
20
-3.94176
11
5.62
21
-3.92071
0
LINE
8
BLACK
6
CONTINUOUS
10
5.62
20
-3.92071
11
5.61982
21
-3.92011
0
LINE
8
BLACK
6
CONTINUOUS
10
5.61982
20
-3.92011
11
5.61977
21
-3.92007
0
LINE
8
BLACK
6
CONTINUOUS
10
5.61977
20
-3.92007
11
5.61947
21
-3.92
0
LINE
8
BLACK
6
CONTINUOUS
10
5.61947
20
-3.92
11
5.6
21
-3.92
0
LINE
8
BLACK
6
CONTINUOUS
10
5.58071
20
-3.86
11
5.58011
21
-3.86018
0
LINE
8
BLACK
6
CONTINUOUS
10
5.58011
20
-3.86018
11
5.58007
21
-3.86023
0
LINE
8
BLACK
6
CONTINUOUS
10
5.58007
20
-3.86023
11
5.58
21
-3.86053
0
LINE
8
BLACK
6
CONTINUOUS
10
5.58
20
-3.86053
11
5.58
21
-3.88
0
LINE
8
BLACK
6
CONTINUOUS
10
5.58
20
-3.88
11
5.6
21
-3.88
0
LINE
8
BLACK
6
CONTINUOUS
10
5.6
20
-3.88
11
5.6
21
-3.9
0
LINE
8
BLACK
6
CONTINUOUS
10
5.6
20
-3.9
11
5.61929
21
-3.9
0
LINE
8
BLACK
6
CONTINUOUS
10
5.61929
20
-3.9
11
5.61989
21
-3.89982
0
LINE
8
BLACK
6
CONTINUOUS
10
5.61989
20
-3.89982
11
5.61993
21
-3.89977
0
LINE
8
BLACK
6
CONTINUOUS
10
5.61993
20
-3.89977
11
5.62
21
-3.89947
0
LINE
8
BLACK
6
CONTINUOUS
10
5.62
20
-3.89947
11
5.62
21
-3.87824
0
LINE
8
BLACK
6
CONTINUOUS
10
5.62
20
-3.87824
11
5.61999
21
-3.87797
0
LINE
8
BLACK
6
CONTINUOUS
10
5.61999
20
-3.87797
11
5.61977
21
-3.87597
0
LINE
8
BLACK
6
CONTINUOUS
10
5.61977
20
-3.87597
11
5.61963
21
-3.87537
0
LINE
8
BLACK
6
CONTINUOUS
10
5.61963
20
-3.87537
11
5.61785
21
-3.87063
0
LINE
8
BLACK
6
CONTINUOUS
10
5.61785
20
-3.87063
11
5.61751
21
-3.87001
0
LINE
8
BLACK
6
CONTINUOUS
10
5.61751
20
-3.87001
11
5.6145
21
-3.866
0
LINE
8
BLACK
6
CONTINUOUS
10
5.6145
20
-3.866
11
5.614
21
-3.8655
0
LINE
8
BLACK
6
CONTINUOUS
10
5.614
20
-3.8655
11
5.60999
21
-3.86249
0
LINE
8
BLACK
6
CONTINUOUS
10
5.60999
20
-3.86249
11
5.60937
21
-3.86215
0
LINE
8
BLACK
6
CONTINUOUS
10
5.60937
20
-3.86215
11
5.60463
21
-3.86037
0
LINE
8
BLACK
6
CONTINUOUS
10
5.60463
20
-3.86037
11
5.60403
21
-3.86023
0
LINE
8
BLACK
6
CONTINUOUS
10
5.60403
20
-3.86023
11
5.60203
21
-3.86001
0
LINE
8
BLACK
6
CONTINUOUS
10
5.60203
20
-3.86001
11
5.60176
21
-3.86
0
LINE
8
BLACK
6
CONTINUOUS
10
5.60176
20
-3.86
11
5.58071
21
-3.86
0
LINE
8
BLACK
6
CONTINUOUS
10
5.58023
20
-4.05993
11
5.58053
21
-4.06
0
LINE
8
BLACK
6
CONTINUOUS
10
5.58053
20
-4.06
11
5.60176
21
-4.06
0
LINE
8
BLACK
6
CONTINUOUS
10
5.60176
20
-4.06
11
5.60203
21
-4.05999
0
LINE
8
BLACK
6
CONTINUOUS
10
5.60203
20
-4.05999
11
5.60403
21
-4.05977
0
LINE
8
BLACK
6
CONTINUOUS
10
5.60403
20
-4.05977
11
5.60463
21
-4.05963
0
LINE
8
BLACK
6
CONTINUOUS
10
5.60463
20
-4.05963
11
5.60937
21
-4.05785
0
LINE
8
BLACK
6
CONTINUOUS
10
5.60937
20
-4.05785
11
5.60999
21
-4.05751
0
LINE
8
BLACK
6
CONTINUOUS
10
5.60999
20
-4.05751
11
5.614
21
-4.0545
0
LINE
8
BLACK
6
CONTINUOUS
10
5.614
20
-4.0545
11
5.6145
21
-4.054
0
LINE
8
BLACK
6
CONTINUOUS
10
5.6145
20
-4.054
11
5.61751
21
-4.04999
0
LINE
8
BLACK
6
CONTINUOUS
10
5.61751
20
-4.04999
11
5.61785
21
-4.04937
0
LINE
8
BLACK
6
CONTINUOUS
10
5.61785
20
-4.04937
11
5.61963
21
-4.04463
0
LINE
8
BLACK
6
CONTINUOUS
10
5.61963
20
-4.04463
11
5.61977
21
-4.04403
0
LINE
8
BLACK
6
CONTINUOUS
10
5.61977
20
-4.04403
11
5.61999
21
-4.04203
0
LINE
8
BLACK
6
CONTINUOUS
10
5.61999
20
-4.04203
11
5.62
21
-4.04176
0
LINE
8
BLACK
6
CONTINUOUS
10
5.62
20
-4.04176
11
5.62
21
-4.02071
0
LINE
8
BLACK
6
CONTINUOUS
10
5.62
20
-4.02071
11
5.61982
21
-4.02011
0
LINE
8
BLACK
6
CONTINUOUS
10
5.61982
20
-4.02011
11
5.61977
21
-4.02007
0
LINE
8
BLACK
6
CONTINUOUS
10
5.61977
20
-4.02007
11
5.61947
21
-4.02
0
LINE
8
BLACK
6
CONTINUOUS
10
5.61947
20
-4.02
11
5.6
21
-4.02
0
LINE
8
BLACK
6
CONTINUOUS
10
5.6
20
-4.02
11
5.6
21
-4.04
0
LINE
8
BLACK
6
CONTINUOUS
10
5.6
20
-4.04
11
5.58
21
-4.04
0
LINE
8
BLACK
6
CONTINUOUS
10
5.58
20
-4.04
11
5.58
21
-4.05929
0
LINE
8
BLACK
6
CONTINUOUS
10
5.58
20
-4.05929
11
5.58018
21
-4.05989
0
LINE
8
BLACK
6
CONTINUOUS
10
5.58018
20
-4.05989
11
5.58023
21
-4.05993
0
LINE
8
BLACK
6
CONTINUOUS
10
5.32926
20
-4.48274
11
5.32487
21
-4.48498
0
LINE
8
BLACK
6
CONTINUOUS
10
5.32487
20
-4.48498
11
5.32
21
-4.48575
0
LINE
8
BLACK
6
CONTINUOUS
10
5.32
20
-4.48575
11
5.31513
21
-4.48498
0
LINE
8
BLACK
6
CONTINUOUS
10
5.31513
20
-4.48498
11
5.31074
21
-4.48274
0
LINE
8
BLACK
6
CONTINUOUS
10
5.31074
20
-4.48274
11
5.308
21
-4.48
0
LINE
8
BLACK
6
CONTINUOUS
10
5.308
20
-4.48
11
5.27086
21
-4.48
0
LINE
8
BLACK
6
CONTINUOUS
10
5.27086
20
-4.48
11
5.27086
21
-4.48032
0
LINE
8
BLACK
6
CONTINUOUS
10
5.27086
20
-4.48032
11
5.26993
21
-4.48583
0
LINE
8
BLACK
6
CONTINUOUS
10
5.26993
20
-4.48583
11
5.2675
21
-4.49085
0
LINE
8
BLACK
6
CONTINUOUS
10
5.2675
20
-4.49085
11
5.26376
21
-4.49499
0
LINE
8
BLACK
6
CONTINUOUS
10
5.26376
20
-4.49499
11
5.259
21
-4.49791
0
LINE
8
BLACK
6
CONTINUOUS
10
5.259
20
-4.49791
11
5.25361
21
-4.49938
0
LINE
8
BLACK
6
CONTINUOUS
10
5.25361
20
-4.49938
11
5.25118
21
-4.49933
0
LINE
8
BLACK
6
CONTINUOUS
10
5.25118
20
-4.49933
11
5.25118
21
-4.49953
0
LINE
8
BLACK
6
CONTINUOUS
10
5.25118
20
-4.49953
11
5.22953
21
-4.49953
0
LINE
8
BLACK
6
CONTINUOUS
10
5.22953
20
-4.49953
11
5.22953
21
-4.44047
0
LINE
8
BLACK
6
CONTINUOUS
10
5.22953
20
-4.44047
11
5.25118
21
-4.44047
0
LINE
8
BLACK
6
CONTINUOUS
10
5.25118
20
-4.44047
11
5.25118
21
-4.44067
0
LINE
8
BLACK
6
CONTINUOUS
10
5.25118
20
-4.44067
11
5.25409
21
-4.44069
0
LINE
8
BLACK
6
CONTINUOUS
10
5.25409
20
-4.44069
11
5.25944
21
-4.44229
0
LINE
8
BLACK
6
CONTINUOUS
10
5.25944
20
-4.44229
11
5.26412
21
-4.44532
0
LINE
8
BLACK
6
CONTINUOUS
10
5.26412
20
-4.44532
11
5.26776
21
-4.44955
0
LINE
8
BLACK
6
CONTINUOUS
10
5.26776
20
-4.44955
11
5.27007
21
-4.45463
0
LINE
8
BLACK
6
CONTINUOUS
10
5.27007
20
-4.45463
11
5.27084
21
-4.46
0
LINE
8
BLACK
6
CONTINUOUS
10
5.27084
20
-4.46
11
5.308
21
-4.46
0
LINE
8
BLACK
6
CONTINUOUS
10
5.308
20
-4.46
11
5.31074
21
-4.45726
0
LINE
8
BLACK
6
CONTINUOUS
10
5.31074
20
-4.45726
11
5.31513
21
-4.45502
0
LINE
8
BLACK
6
CONTINUOUS
10
5.31513
20
-4.45502
11
5.32
21
-4.45425
0
LINE
8
BLACK
6
CONTINUOUS
10
5.32
20
-4.45425
11
5.32487
21
-4.45502
0
LINE
8
BLACK
6
CONTINUOUS
10
5.32487
20
-4.45502
11
5.32926
21
-4.45726
0
LINE
8
BLACK
6
CONTINUOUS
10
5.32926
20
-4.45726
11
5.332
21
-4.46
0
LINE
8
BLACK
6
CONTINUOUS
10
5.332
20
-4.46
11
5.38586
21
-4.46
0
LINE
8
BLACK
6
CONTINUOUS
10
5.38586
20
-4.46
11
5.45
21
-4.39586
0
LINE
8
BLACK
6
CONTINUOUS
10
5.45
20
-4.39586
11
5.45
21
-4.21347
0
LINE
8
BLACK
6
CONTINUOUS
10
5.45
20
-4.21347
11
5.44726
21
-4.21073
0
LINE
8
BLACK
6
CONTINUOUS
10
5.44726
20
-4.21073
11
5.44502
21
-4.20634
0
LINE
8
BLACK
6
CONTINUOUS
10
5.44502
20
-4.20634
11
5.44425
21
-4.20148
0
LINE
8
BLACK
6
CONTINUOUS
10
5.44425
20
-4.20148
11
5.44447
21
-4.20009
0
LINE
8
BLACK
6
CONTINUOUS
10
5.44447
20
-4.20009
11
5.36293
21
-4.11855
0
LINE
8
BLACK
6
CONTINUOUS
10
5.36293
20
-4.11855
11
5.36285
21
-4.11843
0
LINE
8
BLACK
6
CONTINUOUS
10
5.36285
20
-4.11843
11
5.36076
21
-4.1153
0
LINE
8
BLACK
6
CONTINUOUS
10
5.36076
20
-4.1153
11
5.36
21
-4.11148
0
LINE
8
BLACK
6
CONTINUOUS
10
5.36
20
-4.11148
11
5.36
21
-4.04
0
LINE
8
BLACK
6
CONTINUOUS
10
5.36
20
-4.04
11
5.34
21
-4.04
0
LINE
8
BLACK
6
CONTINUOUS
10
5.34
20
-4.04
11
5.34
21
-3.98
0
LINE
8
BLACK
6
CONTINUOUS
10
5.34
20
-3.98
11
5.4
21
-3.98
0
LINE
8
BLACK
6
CONTINUOUS
10
5.4
20
-3.98
11
5.4
21
-4.04
0
LINE
8
BLACK
6
CONTINUOUS
10
5.4
20
-4.04
11
5.38
21
-4.04
0
LINE
8
BLACK
6
CONTINUOUS
10
5.38
20
-4.04
11
5.38
21
-4.10733
0
LINE
8
BLACK
6
CONTINUOUS
10
5.38
20
-4.10733
11
5.45861
21
-4.18595
0
LINE
8
BLACK
6
CONTINUOUS
10
5.45861
20
-4.18595
11
5.46
21
-4.18573
0
LINE
8
BLACK
6
CONTINUOUS
10
5.46
20
-4.18573
11
5.46487
21
-4.1865
0
LINE
8
BLACK
6
CONTINUOUS
10
5.46487
20
-4.1865
11
5.46926
21
-4.18874
0
LINE
8
BLACK
6
CONTINUOUS
10
5.46926
20
-4.18874
11
5.47274
21
-4.19222
0
LINE
8
BLACK
6
CONTINUOUS
10
5.47274
20
-4.19222
11
5.47498
21
-4.19661
0
LINE
8
BLACK
6
CONTINUOUS
10
5.47498
20
-4.19661
11
5.47575
21
-4.20148
0
LINE
8
BLACK
6
CONTINUOUS
10
5.47575
20
-4.20148
11
5.47498
21
-4.20634
0
LINE
8
BLACK
6
CONTINUOUS
10
5.47498
20
-4.20634
11
5.47274
21
-4.21073
0
LINE
8
BLACK
6
CONTINUOUS
10
5.47274
20
-4.21073
11
5.47
21
-4.21347
0
LINE
8
BLACK
6
CONTINUOUS
10
5.47
20
-4.21347
11
5.47
21
-4.4
0
LINE
8
BLACK
6
CONTINUOUS
10
5.47
20
-4.4
11
5.46924
21
-4.40383
0
LINE
8
BLACK
6
CONTINUOUS
10
5.46924
20
-4.40383
11
5.46707
21
-4.40707
0
LINE
8
BLACK
6
CONTINUOUS
10
5.46707
20
-4.40707
11
5.39707
21
-4.47707
0
LINE
8
BLACK
6
CONTINUOUS
10
5.39707
20
-4.47707
11
5.39383
21
-4.47924
0
LINE
8
BLACK
6
CONTINUOUS
10
5.39383
20
-4.47924
11
5.39
21
-4.48
0
LINE
8
BLACK
6
CONTINUOUS
10
5.39
20
-4.48
11
5.332
21
-4.48
0
LINE
8
BLACK
6
CONTINUOUS
10
5.332
20
-4.48
11
5.32926
21
-4.48274
0
LINE
8
BLACK
6
CONTINUOUS
10
4.71185
20
-4.18866
11
4.71197
21
-4.18864
0
LINE
8
BLACK
6
CONTINUOUS
10
4.71197
20
-4.18864
11
4.71209
21
-4.18871
0
LINE
8
BLACK
6
CONTINUOUS
10
4.71209
20
-4.18871
11
4.71256
21
-4.18879
0
LINE
8
BLACK
6
CONTINUOUS
10
4.71256
20
-4.18879
11
4.71311
21
-4.18925
0
LINE
8
BLACK
6
CONTINUOUS
10
4.71311
20
-4.18925
11
4.71375
21
-4.18959
0
LINE
8
BLACK
6
CONTINUOUS
10
4.71375
20
-4.18959
11
4.71387
21
-4.18989
0
LINE
8
BLACK
6
CONTINUOUS
10
4.71387
20
-4.18989
11
4.71411
21
-4.19009
0
LINE
8
BLACK
6
CONTINUOUS
10
4.71411
20
-4.19009
11
4.71423
21
-4.1908
0
LINE
8
BLACK
6
CONTINUOUS
10
4.71423
20
-4.1908
11
4.7145
21
-4.19147
0
LINE
8
BLACK
6
CONTINUOUS
10
4.7145
20
-4.19147
11
4.7144
21
-4.19177
0
LINE
8
BLACK
6
CONTINUOUS
10
4.7144
20
-4.19177
11
4.71446
21
-4.19208
0
LINE
8
BLACK
6
CONTINUOUS
10
4.71446
20
-4.19208
11
4.7141
21
-4.1927
0
LINE
8
BLACK
6
CONTINUOUS
10
4.7141
20
-4.1927
11
4.71387
21
-4.19339
0
LINE
8
BLACK
6
CONTINUOUS
10
4.71387
20
-4.19339
11
4.697
21
-4.21486
0
LINE
8
BLACK
6
CONTINUOUS
10
4.697
20
-4.21486
11
4.71155
21
-4.21486
0
LINE
8
BLACK
6
CONTINUOUS
10
4.71155
20
-4.21486
11
4.71256
21
-4.21504
0
LINE
8
BLACK
6
CONTINUOUS
10
4.71256
20
-4.21504
11
4.71411
21
-4.21633
0
LINE
8
BLACK
6
CONTINUOUS
10
4.71411
20
-4.21633
11
4.71446
21
-4.21832
0
LINE
8
BLACK
6
CONTINUOUS
10
4.71446
20
-4.21832
11
4.71345
21
-4.22007
0
LINE
8
BLACK
6
CONTINUOUS
10
4.71345
20
-4.22007
11
4.71155
21
-4.22076
0
LINE
8
BLACK
6
CONTINUOUS
10
4.71155
20
-4.22076
11
4.69093
21
-4.22076
0
LINE
8
BLACK
6
CONTINUOUS
10
4.69093
20
-4.22076
11
4.69062
21
-4.22071
0
LINE
8
BLACK
6
CONTINUOUS
10
4.69062
20
-4.22071
11
4.69051
21
-4.22073
0
LINE
8
BLACK
6
CONTINUOUS
10
4.69051
20
-4.22073
11
4.69038
21
-4.22067
0
LINE
8
BLACK
6
CONTINUOUS
10
4.69038
20
-4.22067
11
4.68992
21
-4.22058
0
LINE
8
BLACK
6
CONTINUOUS
10
4.68992
20
-4.22058
11
4.68936
21
-4.22012
0
LINE
8
BLACK
6
CONTINUOUS
10
4.68936
20
-4.22012
11
4.68873
21
-4.21978
0
LINE
8
BLACK
6
CONTINUOUS
10
4.68873
20
-4.21978
11
4.68861
21
-4.21949
0
LINE
8
BLACK
6
CONTINUOUS
10
4.68861
20
-4.21949
11
4.68837
21
-4.21929
0
LINE
8
BLACK
6
CONTINUOUS
10
4.68837
20
-4.21929
11
4.68824
21
-4.21858
0
LINE
8
BLACK
6
CONTINUOUS
10
4.68824
20
-4.21858
11
4.68797
21
-4.21791
0
LINE
8
BLACK
6
CONTINUOUS
10
4.68797
20
-4.21791
11
4.68807
21
-4.21761
0
LINE
8
BLACK
6
CONTINUOUS
10
4.68807
20
-4.21761
11
4.68802
21
-4.2173
0
LINE
8
BLACK
6
CONTINUOUS
10
4.68802
20
-4.2173
11
4.68838
21
-4.21667
0
LINE
8
BLACK
6
CONTINUOUS
10
4.68838
20
-4.21667
11
4.6886
21
-4.21599
0
LINE
8
BLACK
6
CONTINUOUS
10
4.6886
20
-4.21599
11
4.70547
21
-4.19452
0
LINE
8
BLACK
6
CONTINUOUS
10
4.70547
20
-4.19452
11
4.69093
21
-4.19452
0
LINE
8
BLACK
6
CONTINUOUS
10
4.69093
20
-4.19452
11
4.68992
21
-4.19434
0
LINE
8
BLACK
6
CONTINUOUS
10
4.68992
20
-4.19434
11
4.68837
21
-4.19304
0
LINE
8
BLACK
6
CONTINUOUS
10
4.68837
20
-4.19304
11
4.68802
21
-4.19105
0
LINE
8
BLACK
6
CONTINUOUS
10
4.68802
20
-4.19105
11
4.68903
21
-4.1893
0
LINE
8
BLACK
6
CONTINUOUS
10
4.68903
20
-4.1893
11
4.69093
21
-4.18861
0
LINE
8
BLACK
6
CONTINUOUS
10
4.69093
20
-4.18861
11
4.71155
21
-4.18861
0
LINE
8
BLACK
6
CONTINUOUS
10
4.71155
20
-4.18861
11
4.71185
21
-4.18866
0
LINE
8
BLACK
6
CONTINUOUS
10
4.61695
20
-4.17567
11
4.61708
21
-4.17578
0
LINE
8
BLACK
6
CONTINUOUS
10
4.61708
20
-4.17578
11
4.61726
21
-4.1758
0
LINE
8
BLACK
6
CONTINUOUS
10
4.61726
20
-4.1758
11
4.62101
21
-4.17767
0
LINE
8
BLACK
6
CONTINUOUS
10
4.62101
20
-4.17767
11
4.62171
21
-4.1782
0
LINE
8
BLACK
6
CONTINUOUS
10
4.62171
20
-4.1782
11
4.62177
21
-4.17823
0
LINE
8
BLACK
6
CONTINUOUS
10
4.62177
20
-4.17823
11
4.62365
21
-4.1801
0
LINE
8
BLACK
6
CONTINUOUS
10
4.62365
20
-4.1801
11
4.62415
21
-4.18082
0
LINE
8
BLACK
6
CONTINUOUS
10
4.62415
20
-4.18082
11
4.6242
21
-4.18087
0
LINE
8
BLACK
6
CONTINUOUS
10
4.6242
20
-4.18087
11
4.62608
21
-4.18462
0
LINE
8
BLACK
6
CONTINUOUS
10
4.62608
20
-4.18462
11
4.62637
21
-4.1856
0
LINE
8
BLACK
6
CONTINUOUS
10
4.62637
20
-4.1856
11
4.62633
21
-4.18577
0
LINE
8
BLACK
6
CONTINUOUS
10
4.62633
20
-4.18577
11
4.62639
21
-4.18594
0
LINE
8
BLACK
6
CONTINUOUS
10
4.62639
20
-4.18594
11
4.62639
21
-4.18969
0
LINE
8
BLACK
6
CONTINUOUS
10
4.62639
20
-4.18969
11
4.62621
21
-4.1907
0
LINE
8
BLACK
6
CONTINUOUS
10
4.62621
20
-4.1907
11
4.6261
21
-4.19083
0
LINE
8
BLACK
6
CONTINUOUS
10
4.6261
20
-4.19083
11
4.62608
21
-4.19101
0
LINE
8
BLACK
6
CONTINUOUS
10
4.62608
20
-4.19101
11
4.6242
21
-4.19476
0
LINE
8
BLACK
6
CONTINUOUS
10
4.6242
20
-4.19476
11
4.62367
21
-4.19547
0
LINE
8
BLACK
6
CONTINUOUS
10
4.62367
20
-4.19547
11
4.62365
21
-4.19553
0
LINE
8
BLACK
6
CONTINUOUS
10
4.62365
20
-4.19553
11
4.62277
21
-4.19641
0
LINE
8
BLACK
6
CONTINUOUS
10
4.62277
20
-4.19641
11
4.6234
21
-4.19675
0
LINE
8
BLACK
6
CONTINUOUS
10
4.6234
20
-4.19675
11
4.62349
21
-4.1969
0
LINE
8
BLACK
6
CONTINUOUS
10
4.62349
20
-4.1969
11
4.62365
21
-4.19697
0
LINE
8
BLACK
6
CONTINUOUS
10
4.62365
20
-4.19697
11
4.62552
21
-4.19885
0
LINE
8
BLACK
6
CONTINUOUS
10
4.62552
20
-4.19885
11
4.62603
21
-4.19957
0
LINE
8
BLACK
6
CONTINUOUS
10
4.62603
20
-4.19957
11
4.62608
21
-4.19962
0
LINE
8
BLACK
6
CONTINUOUS
10
4.62608
20
-4.19962
11
4.62795
21
-4.20337
0
LINE
8
BLACK
6
CONTINUOUS
10
4.62795
20
-4.20337
11
4.62824
21
-4.20435
0
LINE
8
BLACK
6
CONTINUOUS
10
4.62824
20
-4.20435
11
4.6282
21
-4.20452
0
LINE
8
BLACK
6
CONTINUOUS
10
4.6282
20
-4.20452
11
4.62826
21
-4.20469
0
LINE
8
BLACK
6
CONTINUOUS
10
4.62826
20
-4.20469
11
4.62826
21
-4.21031
0
LINE
8
BLACK
6
CONTINUOUS
10
4.62826
20
-4.21031
11
4.62808
21
-4.21132
0
LINE
8
BLACK
6
CONTINUOUS
10
4.62808
20
-4.21132
11
4.62797
21
-4.21146
0
LINE
8
BLACK
6
CONTINUOUS
10
4.62797
20
-4.21146
11
4.62795
21
-4.21163
0
LINE
8
BLACK
6
CONTINUOUS
10
4.62795
20
-4.21163
11
4.62608
21
-4.21538
0
LINE
8
BLACK
6
CONTINUOUS
10
4.62608
20
-4.21538
11
4.62555
21
-4.21609
0
LINE
8
BLACK
6
CONTINUOUS
10
4.62555
20
-4.21609
11
4.62552
21
-4.21615
0
LINE
8
BLACK
6
CONTINUOUS
10
4.62552
20
-4.21615
11
4.62365
21
-4.21802
0
LINE
8
BLACK
6
CONTINUOUS
10
4.62365
20
-4.21802
11
4.62292
21
-4.21853
0
LINE
8
BLACK
6
CONTINUOUS
10
4.62292
20
-4.21853
11
4.62288
21
-4.21858
0
LINE
8
BLACK
6
CONTINUOUS
10
4.62288
20
-4.21858
11
4.61913
21
-4.22045
0
LINE
8
BLACK
6
CONTINUOUS
10
4.61913
20
-4.22045
11
4.61815
21
-4.22074
0
LINE
8
BLACK
6
CONTINUOUS
10
4.61815
20
-4.22074
11
4.61798
21
-4.2207
0
LINE
8
BLACK
6
CONTINUOUS
10
4.61798
20
-4.2207
11
4.61781
21
-4.22076
0
LINE
8
BLACK
6
CONTINUOUS
10
4.61781
20
-4.22076
11
4.60281
21
-4.22076
0
LINE
8
BLACK
6
CONTINUOUS
10
4.60281
20
-4.22076
11
4.60243
21
-4.2207
0
LINE
8
BLACK
6
CONTINUOUS
10
4.60243
20
-4.2207
11
4.6023
21
-4.22072
0
LINE
8
BLACK
6
CONTINUOUS
10
4.6023
20
-4.22072
11
4.60219
21
-4.22065
0
LINE
8
BLACK
6
CONTINUOUS
10
4.60219
20
-4.22065
11
4.6018
21
-4.22058
0
LINE
8
BLACK
6
CONTINUOUS
10
4.6018
20
-4.22058
11
4.60121
21
-4.22009
0
LINE
8
BLACK
6
CONTINUOUS
10
4.60121
20
-4.22009
11
4.60055
21
-4.21971
0
LINE
8
BLACK
6
CONTINUOUS
10
4.60055
20
-4.21971
11
4.60046
21
-4.21946
0
LINE
8
BLACK
6
CONTINUOUS
10
4.60046
20
-4.21946
11
4.60025
21
-4.21929
0
LINE
8
BLACK
6
CONTINUOUS
10
4.60025
20
-4.21929
11
4.60012
21
-4.21853
0
LINE
8
BLACK
6
CONTINUOUS
10
4.60012
20
-4.21853
11
4.59986
21
-4.21781
0
LINE
8
BLACK
6
CONTINUOUS
10
4.59986
20
-4.21781
11
4.59986
21
-4.17844
0
LINE
8
BLACK
6
CONTINUOUS
10
4.59986
20
-4.17844
11
4.59993
21
-4.17806
0
LINE
8
BLACK
6
CONTINUOUS
10
4.59993
20
-4.17806
11
4.5999
21
-4.17793
0
LINE
8
BLACK
6
CONTINUOUS
10
4.5999
20
-4.17793
11
4.59997
21
-4.17781
0
LINE
8
BLACK
6
CONTINUOUS
10
4.59997
20
-4.17781
11
4.60004
21
-4.17743
0
LINE
8
BLACK
6
CONTINUOUS
10
4.60004
20
-4.17743
11
4.60053
21
-4.17684
0
LINE
8
BLACK
6
CONTINUOUS
10
4.60053
20
-4.17684
11
4.60091
21
-4.17618
0
LINE
8
BLACK
6
CONTINUOUS
10
4.60091
20
-4.17618
11
4.60116
21
-4.17609
0
LINE
8
BLACK
6
CONTINUOUS
10
4.60116
20
-4.17609
11
4.60134
21
-4.17588
0
LINE
8
BLACK
6
CONTINUOUS
10
4.60134
20
-4.17588
11
4.60209
21
-4.17575
0
LINE
8
BLACK
6
CONTINUOUS
10
4.60209
20
-4.17575
11
4.60281
21
-4.17549
0
LINE
8
BLACK
6
CONTINUOUS
10
4.60281
20
-4.17549
11
4.61594
21
-4.17549
0
LINE
8
BLACK
6
CONTINUOUS
10
4.61594
20
-4.17549
11
4.61695
21
-4.17567
0
LINE
8
BLACK
6
CONTINUOUS
10
4.60576
20
-4.20014
11
4.60576
21
-4.21486
0
LINE
8
BLACK
6
CONTINUOUS
10
4.60576
20
-4.21486
11
4.61711
21
-4.21486
0
LINE
8
BLACK
6
CONTINUOUS
10
4.61711
20
-4.21486
11
4.61981
21
-4.21351
0
LINE
8
BLACK
6
CONTINUOUS
10
4.61981
20
-4.21351
11
4.62101
21
-4.21231
0
LINE
8
BLACK
6
CONTINUOUS
10
4.62101
20
-4.21231
11
4.62236
21
-4.20961
0
LINE
8
BLACK
6
CONTINUOUS
10
4.62236
20
-4.20961
11
4.62236
21
-4.20538
0
LINE
8
BLACK
6
CONTINUOUS
10
4.62236
20
-4.20538
11
4.62101
21
-4.20269
0
LINE
8
BLACK
6
CONTINUOUS
10
4.62101
20
-4.20269
11
4.61996
21
-4.20164
0
LINE
8
BLACK
6
CONTINUOUS
10
4.61996
20
-4.20164
11
4.61546
21
-4.20014
0
LINE
8
BLACK
6
CONTINUOUS
10
4.61546
20
-4.20014
11
4.60576
21
-4.20014
0
LINE
8
BLACK
6
CONTINUOUS
10
4.60576
20
-4.18139
11
4.60576
21
-4.19424
0
LINE
8
BLACK
6
CONTINUOUS
10
4.60576
20
-4.19424
11
4.61524
21
-4.19424
0
LINE
8
BLACK
6
CONTINUOUS
10
4.61524
20
-4.19424
11
4.61794
21
-4.19289
0
LINE
8
BLACK
6
CONTINUOUS
10
4.61794
20
-4.19289
11
4.61913
21
-4.19169
0
LINE
8
BLACK
6
CONTINUOUS
10
4.61913
20
-4.19169
11
4.62048
21
-4.18899
0
LINE
8
BLACK
6
CONTINUOUS
10
4.62048
20
-4.18899
11
4.62048
21
-4.18664
0
LINE
8
BLACK
6
CONTINUOUS
10
4.62048
20
-4.18664
11
4.61913
21
-4.18394
0
LINE
8
BLACK
6
CONTINUOUS
10
4.61913
20
-4.18394
11
4.61794
21
-4.18274
0
LINE
8
BLACK
6
CONTINUOUS
10
4.61794
20
-4.18274
11
4.61524
21
-4.18139
0
LINE
8
BLACK
6
CONTINUOUS
10
4.61524
20
-4.18139
11
4.60576
21
-4.18139
0
LINE
8
BLACK
6
CONTINUOUS
10
4.53946
20
-4.17654
11
4.54015
21
-4.17844
0
LINE
8
BLACK
6
CONTINUOUS
10
4.54015
20
-4.17844
11
4.54015
21
-4.21486
0
LINE
8
BLACK
6
CONTINUOUS
10
4.54015
20
-4.21486
11
4.55594
21
-4.21486
0
LINE
8
BLACK
6
CONTINUOUS
10
4.55594
20
-4.21486
11
4.55695
21
-4.21504
0
LINE
8
BLACK
6
CONTINUOUS
10
4.55695
20
-4.21504
11
4.5585
21
-4.21633
0
LINE
8
BLACK
6
CONTINUOUS
10
4.5585
20
-4.21633
11
4.55885
21
-4.21832
0
LINE
8
BLACK
6
CONTINUOUS
10
4.55885
20
-4.21832
11
4.55784
21
-4.22007
0
LINE
8
BLACK
6
CONTINUOUS
10
4.55784
20
-4.22007
11
4.55594
21
-4.22076
0
LINE
8
BLACK
6
CONTINUOUS
10
4.55594
20
-4.22076
11
4.5372
21
-4.22076
0
LINE
8
BLACK
6
CONTINUOUS
10
4.5372
20
-4.22076
11
4.53681
21
-4.2207
0
LINE
8
BLACK
6
CONTINUOUS
10
4.53681
20
-4.2207
11
4.53668
21
-4.22072
0
LINE
8
BLACK
6
CONTINUOUS
10
4.53668
20
-4.22072
11
4.53657
21
-4.22065
0
LINE
8
BLACK
6
CONTINUOUS
10
4.53657
20
-4.22065
11
4.53619
21
-4.22058
0
LINE
8
BLACK
6
CONTINUOUS
10
4.53619
20
-4.22058
11
4.5356
21
-4.22009
0
LINE
8
BLACK
6
CONTINUOUS
10
4.5356
20
-4.22009
11
4.53493
21
-4.21971
0
LINE
8
BLACK
6
CONTINUOUS
10
4.53493
20
-4.21971
11
4.53484
21
-4.21946
0
LINE
8
BLACK
6
CONTINUOUS
10
4.53484
20
-4.21946
11
4.53464
21
-4.21929
0
LINE
8
BLACK
6
CONTINUOUS
10
4.53464
20
-4.21929
11
4.5345
21
-4.21853
0
LINE
8
BLACK
6
CONTINUOUS
10
4.5345
20
-4.21853
11
4.53424
21
-4.21781
0
LINE
8
BLACK
6
CONTINUOUS
10
4.53424
20
-4.21781
11
4.53424
21
-4.17844
0
LINE
8
BLACK
6
CONTINUOUS
10
4.53424
20
-4.17844
11
4.53442
21
-4.17743
0
LINE
8
BLACK
6
CONTINUOUS
10
4.53442
20
-4.17743
11
4.53572
21
-4.17588
0
LINE
8
BLACK
6
CONTINUOUS
10
4.53572
20
-4.17588
11
4.53771
21
-4.17553
0
LINE
8
BLACK
6
CONTINUOUS
10
4.53771
20
-4.17553
11
4.53946
21
-4.17654
0
LINE
8
BLACK
6
CONTINUOUS
10
4.67506
20
-4.18879
11
4.6752
21
-4.1889
0
LINE
8
BLACK
6
CONTINUOUS
10
4.6752
20
-4.1889
11
4.67537
21
-4.18892
0
LINE
8
BLACK
6
CONTINUOUS
10
4.67537
20
-4.18892
11
4.67912
21
-4.1908
0
LINE
8
BLACK
6
CONTINUOUS
10
4.67912
20
-4.1908
11
4.67995
21
-4.19141
0
LINE
8
BLACK
6
CONTINUOUS
10
4.67995
20
-4.19141
11
4.68075
21
-4.19326
0
LINE
8
BLACK
6
CONTINUOUS
10
4.68075
20
-4.19326
11
4.68017
21
-4.1952
0
LINE
8
BLACK
6
CONTINUOUS
10
4.68017
20
-4.1952
11
4.67849
21
-4.19631
0
LINE
8
BLACK
6
CONTINUOUS
10
4.67849
20
-4.19631
11
4.67648
21
-4.19608
0
LINE
8
BLACK
6
CONTINUOUS
10
4.67648
20
-4.19608
11
4.67336
21
-4.19452
0
LINE
8
BLACK
6
CONTINUOUS
10
4.67336
20
-4.19452
11
4.66725
21
-4.19452
0
LINE
8
BLACK
6
CONTINUOUS
10
4.66725
20
-4.19452
11
4.66455
21
-4.19587
0
LINE
8
BLACK
6
CONTINUOUS
10
4.66455
20
-4.19587
11
4.66336
21
-4.19706
0
LINE
8
BLACK
6
CONTINUOUS
10
4.66336
20
-4.19706
11
4.66201
21
-4.19976
0
LINE
8
BLACK
6
CONTINUOUS
10
4.66201
20
-4.19976
11
4.66201
21
-4.20961
0
LINE
8
BLACK
6
CONTINUOUS
10
4.66201
20
-4.20961
11
4.66336
21
-4.21231
0
LINE
8
BLACK
6
CONTINUOUS
10
4.66336
20
-4.21231
11
4.66455
21
-4.21351
0
LINE
8
BLACK
6
CONTINUOUS
10
4.66455
20
-4.21351
11
4.66725
21
-4.21486
0
LINE
8
BLACK
6
CONTINUOUS
10
4.66725
20
-4.21486
11
4.67336
21
-4.21486
0
LINE
8
BLACK
6
CONTINUOUS
10
4.67336
20
-4.21486
11
4.67648
21
-4.21329
0
LINE
8
BLACK
6
CONTINUOUS
10
4.67648
20
-4.21329
11
4.67747
21
-4.213
0
LINE
8
BLACK
6
CONTINUOUS
10
4.67747
20
-4.213
11
4.67943
21
-4.21347
0
LINE
8
BLACK
6
CONTINUOUS
10
4.67943
20
-4.21347
11
4.68063
21
-4.21509
0
LINE
8
BLACK
6
CONTINUOUS
10
4.68063
20
-4.21509
11
4.68051
21
-4.21711
0
LINE
8
BLACK
6
CONTINUOUS
10
4.68051
20
-4.21711
11
4.67912
21
-4.21858
0
LINE
8
BLACK
6
CONTINUOUS
10
4.67912
20
-4.21858
11
4.67537
21
-4.22045
0
LINE
8
BLACK
6
CONTINUOUS
10
4.67537
20
-4.22045
11
4.67439
21
-4.22074
0
LINE
8
BLACK
6
CONTINUOUS
10
4.67439
20
-4.22074
11
4.67422
21
-4.2207
0
LINE
8
BLACK
6
CONTINUOUS
10
4.67422
20
-4.2207
11
4.67405
21
-4.22076
0
LINE
8
BLACK
6
CONTINUOUS
10
4.67405
20
-4.22076
11
4.66655
21
-4.22076
0
LINE
8
BLACK
6
CONTINUOUS
10
4.66655
20
-4.22076
11
4.66554
21
-4.22058
0
LINE
8
BLACK
6
CONTINUOUS
10
4.66554
20
-4.22058
11
4.66541
21
-4.22047
0
LINE
8
BLACK
6
CONTINUOUS
10
4.66541
20
-4.22047
11
4.66523
21
-4.22045
0
LINE
8
BLACK
6
CONTINUOUS
10
4.66523
20
-4.22045
11
4.66148
21
-4.21858
0
LINE
8
BLACK
6
CONTINUOUS
10
4.66148
20
-4.21858
11
4.66078
21
-4.21805
0
LINE
8
BLACK
6
CONTINUOUS
10
4.66078
20
-4.21805
11
4.66072
21
-4.21802
0
LINE
8
BLACK
6
CONTINUOUS
10
4.66072
20
-4.21802
11
4.65884
21
-4.21615
0
LINE
8
BLACK
6
CONTINUOUS
10
4.65884
20
-4.21615
11
4.65834
21
-4.21543
0
LINE
8
BLACK
6
CONTINUOUS
10
4.65834
20
-4.21543
11
4.65829
21
-4.21538
0
LINE
8
BLACK
6
CONTINUOUS
10
4.65829
20
-4.21538
11
4.65641
21
-4.21163
0
LINE
8
BLACK
6
CONTINUOUS
10
4.65641
20
-4.21163
11
4.65612
21
-4.21065
0
LINE
8
BLACK
6
CONTINUOUS
10
4.65612
20
-4.21065
11
4.65616
21
-4.21048
0
LINE
8
BLACK
6
CONTINUOUS
10
4.65616
20
-4.21048
11
4.6561
21
-4.21031
0
LINE
8
BLACK
6
CONTINUOUS
10
4.6561
20
-4.21031
11
4.6561
21
-4.19906
0
LINE
8
BLACK
6
CONTINUOUS
10
4.6561
20
-4.19906
11
4.65628
21
-4.19805
0
LINE
8
BLACK
6
CONTINUOUS
10
4.65628
20
-4.19805
11
4.65639
21
-4.19792
0
LINE
8
BLACK
6
CONTINUOUS
10
4.65639
20
-4.19792
11
4.65641
21
-4.19774
0
LINE
8
BLACK
6
CONTINUOUS
10
4.65641
20
-4.19774
11
4.65829
21
-4.19399
0
LINE
8
BLACK
6
CONTINUOUS
10
4.65829
20
-4.19399
11
4.65881
21
-4.19328
0
LINE
8
BLACK
6
CONTINUOUS
10
4.65881
20
-4.19328
11
4.65884
21
-4.19323
0
LINE
8
BLACK
6
CONTINUOUS
10
4.65884
20
-4.19323
11
4.66072
21
-4.19135
0
LINE
8
BLACK
6
CONTINUOUS
10
4.66072
20
-4.19135
11
4.66144
21
-4.19084
0
LINE
8
BLACK
6
CONTINUOUS
10
4.66144
20
-4.19084
11
4.66148
21
-4.1908
0
LINE
8
BLACK
6
CONTINUOUS
10
4.66148
20
-4.1908
11
4.66523
21
-4.18892
0
LINE
8
BLACK
6
CONTINUOUS
10
4.66523
20
-4.18892
11
4.66622
21
-4.18863
0
LINE
8
BLACK
6
CONTINUOUS
10
4.66622
20
-4.18863
11
4.66639
21
-4.18867
0
LINE
8
BLACK
6
CONTINUOUS
10
4.66639
20
-4.18867
11
4.66655
21
-4.18861
0
LINE
8
BLACK
6
CONTINUOUS
10
4.66655
20
-4.18861
11
4.67405
21
-4.18861
0
LINE
8
BLACK
6
CONTINUOUS
10
4.67405
20
-4.18861
11
4.67506
21
-4.18879
0
LINE
8
BLACK
6
CONTINUOUS
10
4.64256
20
-4.21118
11
4.64269
21
-4.21115
0
LINE
8
BLACK
6
CONTINUOUS
10
4.64269
20
-4.21115
11
4.64281
21
-4.21122
0
LINE
8
BLACK
6
CONTINUOUS
10
4.64281
20
-4.21122
11
4.64295
21
-4.21121
0
LINE
8
BLACK
6
CONTINUOUS
10
4.64295
20
-4.21121
11
4.64357
21
-4.21165
0
LINE
8
BLACK
6
CONTINUOUS
10
4.64357
20
-4.21165
11
4.64427
21
-4.21197
0
LINE
8
BLACK
6
CONTINUOUS
10
4.64427
20
-4.21197
11
4.64614
21
-4.21385
0
LINE
8
BLACK
6
CONTINUOUS
10
4.64614
20
-4.21385
11
4.64637
21
-4.21417
0
LINE
8
BLACK
6
CONTINUOUS
10
4.64637
20
-4.21417
11
4.64648
21
-4.21424
0
LINE
8
BLACK
6
CONTINUOUS
10
4.64648
20
-4.21424
11
4.64651
21
-4.21437
0
LINE
8
BLACK
6
CONTINUOUS
10
4.64651
20
-4.21437
11
4.64673
21
-4.21469
0
LINE
8
BLACK
6
CONTINUOUS
10
4.64673
20
-4.21469
11
4.6468
21
-4.21545
0
LINE
8
BLACK
6
CONTINUOUS
10
4.6468
20
-4.21545
11
4.647
21
-4.21619
0
LINE
8
BLACK
6
CONTINUOUS
10
4.647
20
-4.21619
11
4.64689
21
-4.21643
0
LINE
8
BLACK
6
CONTINUOUS
10
4.64689
20
-4.21643
11
4.64691
21
-4.2167
0
LINE
8
BLACK
6
CONTINUOUS
10
4.64691
20
-4.2167
11
4.64647
21
-4.21733
0
LINE
8
BLACK
6
CONTINUOUS
10
4.64647
20
-4.21733
11
4.64614
21
-4.21802
0
LINE
8
BLACK
6
CONTINUOUS
10
4.64614
20
-4.21802
11
4.64427
21
-4.2199
0
LINE
8
BLACK
6
CONTINUOUS
10
4.64427
20
-4.2199
11
4.64395
21
-4.22012
0
LINE
8
BLACK
6
CONTINUOUS
10
4.64395
20
-4.22012
11
4.64388
21
-4.22023
0
LINE
8
BLACK
6
CONTINUOUS
10
4.64388
20
-4.22023
11
4.64375
21
-4.22026
0
LINE
8
BLACK
6
CONTINUOUS
10
4.64375
20
-4.22026
11
4.64374
21
-4.22027
0
LINE
8
BLACK
6
CONTINUOUS
10
4.64374
20
-4.22027
11
4.64366
21
-4.22037
0
LINE
8
BLACK
6
CONTINUOUS
10
4.64366
20
-4.22037
11
4.64358
21
-4.22038
0
LINE
8
BLACK
6
CONTINUOUS
10
4.64358
20
-4.22038
11
4.64343
21
-4.22049
0
LINE
8
BLACK
6
CONTINUOUS
10
4.64343
20
-4.22049
11
4.64267
21
-4.22055
0
LINE
8
BLACK
6
CONTINUOUS
10
4.64267
20
-4.22055
11
4.64192
21
-4.22075
0
LINE
8
BLACK
6
CONTINUOUS
10
4.64192
20
-4.22075
11
4.6418
21
-4.22069
0
LINE
8
BLACK
6
CONTINUOUS
10
4.6418
20
-4.22069
11
4.64167
21
-4.22072
0
LINE
8
BLACK
6
CONTINUOUS
10
4.64167
20
-4.22072
11
4.64155
21
-4.22065
0
LINE
8
BLACK
6
CONTINUOUS
10
4.64155
20
-4.22065
11
4.64142
21
-4.22066
0
LINE
8
BLACK
6
CONTINUOUS
10
4.64142
20
-4.22066
11
4.64079
21
-4.22022
0
LINE
8
BLACK
6
CONTINUOUS
10
4.64079
20
-4.22022
11
4.64009
21
-4.2199
0
LINE
8
BLACK
6
CONTINUOUS
10
4.64009
20
-4.2199
11
4.63822
21
-4.21802
0
LINE
8
BLACK
6
CONTINUOUS
10
4.63822
20
-4.21802
11
4.638
21
-4.2177
0
LINE
8
BLACK
6
CONTINUOUS
10
4.638
20
-4.2177
11
4.63789
21
-4.21763
0
LINE
8
BLACK
6
CONTINUOUS
10
4.63789
20
-4.21763
11
4.63785
21
-4.2175
0
LINE
8
BLACK
6
CONTINUOUS
10
4.63785
20
-4.2175
11
4.63763
21
-4.21718
0
LINE
8
BLACK
6
CONTINUOUS
10
4.63763
20
-4.21718
11
4.63756
21
-4.21642
0
LINE
8
BLACK
6
CONTINUOUS
10
4.63756
20
-4.21642
11
4.63737
21
-4.21568
0
LINE
8
BLACK
6
CONTINUOUS
10
4.63737
20
-4.21568
11
4.63748
21
-4.21544
0
LINE
8
BLACK
6
CONTINUOUS
10
4.63748
20
-4.21544
11
4.63746
21
-4.21517
0
LINE
8
BLACK
6
CONTINUOUS
10
4.63746
20
-4.21517
11
4.6379
21
-4.21454
0
LINE
8
BLACK
6
CONTINUOUS
10
4.6379
20
-4.21454
11
4.63822
21
-4.21385
0
LINE
8
BLACK
6
CONTINUOUS
10
4.63822
20
-4.21385
11
4.64009
21
-4.21197
0
LINE
8
BLACK
6
CONTINUOUS
10
4.64009
20
-4.21197
11
4.64041
21
-4.21175
0
LINE
8
BLACK
6
CONTINUOUS
10
4.64041
20
-4.21175
11
4.64049
21
-4.21164
0
LINE
8
BLACK
6
CONTINUOUS
10
4.64049
20
-4.21164
11
4.64062
21
-4.21161
0
LINE
8
BLACK
6
CONTINUOUS
10
4.64062
20
-4.21161
11
4.64062
21
-4.2116
0
LINE
8
BLACK
6
CONTINUOUS
10
4.64062
20
-4.2116
11
4.64071
21
-4.2115
0
LINE
8
BLACK
6
CONTINUOUS
10
4.64071
20
-4.2115
11
4.64078
21
-4.21149
0
LINE
8
BLACK
6
CONTINUOUS
10
4.64078
20
-4.21149
11
4.64093
21
-4.21138
0
LINE
8
BLACK
6
CONTINUOUS
10
4.64093
20
-4.21138
11
4.6417
21
-4.21132
0
LINE
8
BLACK
6
CONTINUOUS
10
4.6417
20
-4.21132
11
4.64244
21
-4.21112
0
LINE
8
BLACK
6
CONTINUOUS
10
4.64244
20
-4.21112
11
4.64256
21
-4.21118
0
LINE
8
BLACK
6
CONTINUOUS
10
4.57705
20
-4.17571
11
4.57797
21
-4.17584
0
LINE
8
BLACK
6
CONTINUOUS
10
4.57797
20
-4.17584
11
4.57803
21
-4.17591
0
LINE
8
BLACK
6
CONTINUOUS
10
4.57803
20
-4.17591
11
4.57811
21
-4.17592
0
LINE
8
BLACK
6
CONTINUOUS
10
4.57811
20
-4.17592
11
4.57869
21
-4.17666
0
LINE
8
BLACK
6
CONTINUOUS
10
4.57869
20
-4.17666
11
4.57931
21
-4.17735
0
LINE
8
BLACK
6
CONTINUOUS
10
4.57931
20
-4.17735
11
4.57931
21
-4.17744
0
LINE
8
BLACK
6
CONTINUOUS
10
4.57931
20
-4.17744
11
4.57937
21
-4.17751
0
LINE
8
BLACK
6
CONTINUOUS
10
4.57937
20
-4.17751
11
4.59249
21
-4.21688
0
LINE
8
BLACK
6
CONTINUOUS
10
4.59249
20
-4.21688
11
4.59264
21
-4.21789
0
LINE
8
BLACK
6
CONTINUOUS
10
4.59264
20
-4.21789
11
4.5919
21
-4.21977
0
LINE
8
BLACK
6
CONTINUOUS
10
4.5919
20
-4.21977
11
4.59012
21
-4.22073
0
LINE
8
BLACK
6
CONTINUOUS
10
4.59012
20
-4.22073
11
4.58814
21
-4.22033
0
LINE
8
BLACK
6
CONTINUOUS
10
4.58814
20
-4.22033
11
4.58689
21
-4.21874
0
LINE
8
BLACK
6
CONTINUOUS
10
4.58689
20
-4.21874
11
4.58381
21
-4.20951
0
LINE
8
BLACK
6
CONTINUOUS
10
4.58381
20
-4.20951
11
4.56932
21
-4.20951
0
LINE
8
BLACK
6
CONTINUOUS
10
4.56932
20
-4.20951
11
4.56624
21
-4.21874
0
LINE
8
BLACK
6
CONTINUOUS
10
4.56624
20
-4.21874
11
4.56575
21
-4.21965
0
LINE
8
BLACK
6
CONTINUOUS
10
4.56575
20
-4.21965
11
4.56403
21
-4.2207
0
LINE
8
BLACK
6
CONTINUOUS
10
4.56403
20
-4.2207
11
4.56204
21
-4.22041
0
LINE
8
BLACK
6
CONTINUOUS
10
4.56204
20
-4.22041
11
4.5607
21
-4.2189
0
LINE
8
BLACK
6
CONTINUOUS
10
4.5607
20
-4.2189
11
4.56064
21
-4.21688
0
LINE
8
BLACK
6
CONTINUOUS
10
4.56064
20
-4.21688
11
4.57376
21
-4.17751
0
LINE
8
BLACK
6
CONTINUOUS
10
4.57376
20
-4.17751
11
4.57425
21
-4.1766
0
LINE
8
BLACK
6
CONTINUOUS
10
4.57425
20
-4.1766
11
4.57432
21
-4.17656
0
LINE
8
BLACK
6
CONTINUOUS
10
4.57432
20
-4.17656
11
4.57436
21
-4.17648
0
LINE
8
BLACK
6
CONTINUOUS
10
4.57436
20
-4.17648
11
4.57518
21
-4.17604
0
LINE
8
BLACK
6
CONTINUOUS
10
4.57518
20
-4.17604
11
4.57597
21
-4.17555
0
LINE
8
BLACK
6
CONTINUOUS
10
4.57597
20
-4.17555
11
4.57606
21
-4.17556
0
LINE
8
BLACK
6
CONTINUOUS
10
4.57606
20
-4.17556
11
4.57613
21
-4.17552
0
LINE
8
BLACK
6
CONTINUOUS
10
4.57613
20
-4.17552
11
4.57705
21
-4.17571
0
LINE
8
BLACK
6
CONTINUOUS
10
4.57129
20
-4.20361
11
4.58184
21
-4.20361
0
LINE
8
BLACK
6
CONTINUOUS
10
4.58184
20
-4.20361
11
4.57657
21
-4.18778
0
LINE
8
BLACK
6
CONTINUOUS
10
4.57657
20
-4.18778
11
4.57129
21
-4.20361
0
LINE
8
BLACK
6
CONTINUOUS
10
4.51857
20
-4.1756
11
4.51896
21
-4.17553
0
LINE
8
BLACK
6
CONTINUOUS
10
4.51896
20
-4.17553
11
4.51952
21
-4.17585
0
LINE
8
BLACK
6
CONTINUOUS
10
4.51952
20
-4.17585
11
4.52014
21
-4.17602
0
LINE
8
BLACK
6
CONTINUOUS
10
4.52014
20
-4.17602
11
4.52037
21
-4.17635
0
LINE
8
BLACK
6
CONTINUOUS
10
4.52037
20
-4.17635
11
4.52071
21
-4.17654
0
LINE
8
BLACK
6
CONTINUOUS
10
4.52071
20
-4.17654
11
4.52093
21
-4.17715
0
LINE
8
BLACK
6
CONTINUOUS
10
4.52093
20
-4.17715
11
4.5213
21
-4.17768
0
LINE
8
BLACK
6
CONTINUOUS
10
4.5213
20
-4.17768
11
4.52127
21
-4.17807
0
LINE
8
BLACK
6
CONTINUOUS
10
4.52127
20
-4.17807
11
4.5214
21
-4.17844
0
LINE
8
BLACK
6
CONTINUOUS
10
4.5214
20
-4.17844
11
4.5214
21
-4.21781
0
LINE
8
BLACK
6
CONTINUOUS
10
4.5214
20
-4.21781
11
4.52122
21
-4.21882
0
LINE
8
BLACK
6
CONTINUOUS
10
4.52122
20
-4.21882
11
4.51992
21
-4.22037
0
LINE
8
BLACK
6
CONTINUOUS
10
4.51992
20
-4.22037
11
4.51793
21
-4.22072
0
LINE
8
BLACK
6
CONTINUOUS
10
4.51793
20
-4.22072
11
4.51619
21
-4.21971
0
LINE
8
BLACK
6
CONTINUOUS
10
4.51619
20
-4.21971
11
4.51549
21
-4.21781
0
LINE
8
BLACK
6
CONTINUOUS
10
4.51549
20
-4.21781
11
4.51549
21
-4.19175
0
LINE
8
BLACK
6
CONTINUOUS
10
4.51549
20
-4.19175
11
4.508
21
-4.20781
0
LINE
8
BLACK
6
CONTINUOUS
10
4.508
20
-4.20781
11
4.50778
21
-4.20813
0
LINE
8
BLACK
6
CONTINUOUS
10
4.50778
20
-4.20813
11
4.50774
21
-4.20825
0
LINE
8
BLACK
6
CONTINUOUS
10
4.50774
20
-4.20825
11
4.50764
21
-4.20833
0
LINE
8
BLACK
6
CONTINUOUS
10
4.50764
20
-4.20833
11
4.50741
21
-4.20865
0
LINE
8
BLACK
6
CONTINUOUS
10
4.50741
20
-4.20865
11
4.50672
21
-4.20897
0
LINE
8
BLACK
6
CONTINUOUS
10
4.50672
20
-4.20897
11
4.50609
21
-4.20941
0
LINE
8
BLACK
6
CONTINUOUS
10
4.50609
20
-4.20941
11
4.50582
21
-4.20939
0
LINE
8
BLACK
6
CONTINUOUS
10
4.50582
20
-4.20939
11
4.50558
21
-4.2095
0
LINE
8
BLACK
6
CONTINUOUS
10
4.50558
20
-4.2095
11
4.50484
21
-4.2093
0
LINE
8
BLACK
6
CONTINUOUS
10
4.50484
20
-4.2093
11
4.50408
21
-4.20924
0
LINE
8
BLACK
6
CONTINUOUS
10
4.50408
20
-4.20924
11
4.50389
21
-4.20905
0
LINE
8
BLACK
6
CONTINUOUS
10
4.50389
20
-4.20905
11
4.50363
21
-4.20898
0
LINE
8
BLACK
6
CONTINUOUS
10
4.50363
20
-4.20898
11
4.50319
21
-4.20835
0
LINE
8
BLACK
6
CONTINUOUS
10
4.50319
20
-4.20835
11
4.50265
21
-4.20781
0
LINE
8
BLACK
6
CONTINUOUS
10
4.50265
20
-4.20781
11
4.49515
21
-4.19175
0
LINE
8
BLACK
6
CONTINUOUS
10
4.49515
20
-4.19175
11
4.49515
21
-4.21781
0
LINE
8
BLACK
6
CONTINUOUS
10
4.49515
20
-4.21781
11
4.49498
21
-4.21882
0
LINE
8
BLACK
6
CONTINUOUS
10
4.49498
20
-4.21882
11
4.49368
21
-4.22037
0
LINE
8
BLACK
6
CONTINUOUS
10
4.49368
20
-4.22037
11
4.49169
21
-4.22072
0
LINE
8
BLACK
6
CONTINUOUS
10
4.49169
20
-4.22072
11
4.48994
21
-4.21971
0
LINE
8
BLACK
6
CONTINUOUS
10
4.48994
20
-4.21971
11
4.48925
21
-4.21781
0
LINE
8
BLACK
6
CONTINUOUS
10
4.48925
20
-4.21781
11
4.48925
21
-4.17844
0
LINE
8
BLACK
6
CONTINUOUS
10
4.48925
20
-4.17844
11
4.48943
21
-4.17743
0
LINE
8
BLACK
6
CONTINUOUS
10
4.48943
20
-4.17743
11
4.48968
21
-4.17713
0
LINE
8
BLACK
6
CONTINUOUS
10
4.48968
20
-4.17713
11
4.48978
21
-4.17675
0
LINE
8
BLACK
6
CONTINUOUS
10
4.48978
20
-4.17675
11
4.49031
21
-4.17638
0
LINE
8
BLACK
6
CONTINUOUS
10
4.49031
20
-4.17638
11
4.49072
21
-4.17588
0
LINE
8
BLACK
6
CONTINUOUS
10
4.49072
20
-4.17588
11
4.49111
21
-4.17581
0
LINE
8
BLACK
6
CONTINUOUS
10
4.49111
20
-4.17581
11
4.49144
21
-4.17559
0
LINE
8
BLACK
6
CONTINUOUS
10
4.49144
20
-4.17559
11
4.49208
21
-4.17564
0
LINE
8
BLACK
6
CONTINUOUS
10
4.49208
20
-4.17564
11
4.49271
21
-4.17553
0
LINE
8
BLACK
6
CONTINUOUS
10
4.49271
20
-4.17553
11
4.49306
21
-4.17573
0
LINE
8
BLACK
6
CONTINUOUS
10
4.49306
20
-4.17573
11
4.49345
21
-4.17576
0
LINE
8
BLACK
6
CONTINUOUS
10
4.49345
20
-4.17576
11
4.4939
21
-4.17622
0
LINE
8
BLACK
6
CONTINUOUS
10
4.4939
20
-4.17622
11
4.49446
21
-4.17654
0
LINE
8
BLACK
6
CONTINUOUS
10
4.49446
20
-4.17654
11
4.4946
21
-4.17691
0
LINE
8
BLACK
6
CONTINUOUS
10
4.4946
20
-4.17691
11
4.49488
21
-4.17719
0
LINE
8
BLACK
6
CONTINUOUS
10
4.49488
20
-4.17719
11
4.50532
21
-4.19958
0
LINE
8
BLACK
6
CONTINUOUS
10
4.50532
20
-4.19958
11
4.51577
21
-4.17719
0
LINE
8
BLACK
6
CONTINUOUS
10
4.51577
20
-4.17719
11
4.51636
21
-4.17635
0
LINE
8
BLACK
6
CONTINUOUS
10
4.51636
20
-4.17635
11
4.51672
21
-4.17619
0
LINE
8
BLACK
6
CONTINUOUS
10
4.51672
20
-4.17619
11
4.51697
21
-4.17588
0
LINE
8
BLACK
6
CONTINUOUS
10
4.51697
20
-4.17588
11
4.51761
21
-4.17577
0
LINE
8
BLACK
6
CONTINUOUS
10
4.51761
20
-4.17577
11
4.51819
21
-4.1755
0
LINE
8
BLACK
6
CONTINUOUS
10
4.51819
20
-4.1755
11
4.51857
21
-4.1756
0
LINE
8
BLACK
6
CONTINUOUS
10
5.5
20
-4.04
11
5.44
21
-4.04
0
LINE
8
BLACK
6
CONTINUOUS
10
5.44
20
-4.04
11
5.44
21
-3.98
0
LINE
8
BLACK
6
CONTINUOUS
10
5.44
20
-3.98
11
5.5
21
-3.98
0
LINE
8
BLACK
6
CONTINUOUS
10
5.5
20
-3.98
11
5.5
21
-4.04
0
LINE
8
BLACK
6
CONTINUOUS
10
5.3
20
-4.04
11
5.24
21
-4.04
0
LINE
8
BLACK
6
CONTINUOUS
10
5.24
20
-4.04
11
5.24
21
-3.98
0
LINE
8
BLACK
6
CONTINUOUS
10
5.24
20
-3.98
11
5.3
21
-3.98
0
LINE
8
BLACK
6
CONTINUOUS
10
5.3
20
-3.98
11
5.3
21
-4.04
0
LINE
8
BLACK
6
CONTINUOUS
10
4.86
20
-4.04
11
4.8
21
-4.04
0
LINE
8
BLACK
6
CONTINUOUS
10
4.8
20
-4.04
11
4.8
21
-3.98
0
LINE
8
BLACK
6
CONTINUOUS
10
4.8
20
-3.98
11
4.86
21
-3.98
0
LINE
8
BLACK
6
CONTINUOUS
10
4.86
20
-3.98
11
4.86
21
-4.04
0
LINE
8
BLACK
6
CONTINUOUS
10
4.96
20
-4.04
11
4.9
21
-4.04
0
LINE
8
BLACK
6
CONTINUOUS
10
4.9
20
-4.04
11
4.9
21
-3.98
0
LINE
8
BLACK
6
CONTINUOUS
10
4.9
20
-3.98
11
4.96
21
-3.98
0
LINE
8
BLACK
6
CONTINUOUS
10
4.96
20
-3.98
11
4.96
21
-4.04
0
LINE
8
BLACK
6
CONTINUOUS
10
5.3
20
-3.94
11
5.24
21
-3.94
0
LINE
8
BLACK
6
CONTINUOUS
10
5.24
20
-3.94
11
5.24
21
-3.88
0
LINE
8
BLACK
6
CONTINUOUS
10
5.24
20
-3.88
11
5.3
21
-3.88
0
LINE
8
BLACK
6
CONTINUOUS
10
5.3
20
-3.88
11
5.3
21
-3.94
0
LINE
8
BLACK
6
CONTINUOUS
10
5.5
20
-3.94
11
5.44
21
-3.94
0
LINE
8
BLACK
6
CONTINUOUS
10
5.44
20
-3.94
11
5.44
21
-3.88
0
LINE
8
BLACK
6
CONTINUOUS
10
5.44
20
-3.88
11
5.5
21
-3.88
0
LINE
8
BLACK
6
CONTINUOUS
10
5.5
20
-3.88
11
5.5
21
-3.94
0
LINE
8
BLACK
6
CONTINUOUS
10
5.31383
20
-3.84076
11
5.31707
21
-3.84293
0
LINE
8
BLACK
6
CONTINUOUS
10
5.31707
20
-3.84293
11
5.35414
21
-3.88
0
LINE
8
BLACK
6
CONTINUOUS
10
5.35414
20
-3.88
11
5.4
21
-3.88
0
LINE
8
BLACK
6
CONTINUOUS
10
5.4
20
-3.88
11
5.4
21
-3.94
0
LINE
8
BLACK
6
CONTINUOUS
10
5.4
20
-3.94
11
5.34
21
-3.94
0
LINE
8
BLACK
6
CONTINUOUS
10
5.34
20
-3.94
11
5.34
21
-3.89414
0
LINE
8
BLACK
6
CONTINUOUS
10
5.34
20
-3.89414
11
5.30586
21
-3.86
0
LINE
8
BLACK
6
CONTINUOUS
10
5.30586
20
-3.86
11
4.89414
21
-3.86
0
LINE
8
BLACK
6
CONTINUOUS
10
4.89414
20
-3.86
11
4.86
21
-3.89414
0
LINE
8
BLACK
6
CONTINUOUS
10
4.86
20
-3.89414
11
4.86
21
-3.94
0
LINE
8
BLACK
6
CONTINUOUS
10
4.86
20
-3.94
11
4.8
21
-3.94
0
LINE
8
BLACK
6
CONTINUOUS
10
4.8
20
-3.94
11
4.8
21
-3.88
0
LINE
8
BLACK
6
CONTINUOUS
10
4.8
20
-3.88
11
4.84586
21
-3.88
0
LINE
8
BLACK
6
CONTINUOUS
10
4.84586
20
-3.88
11
4.88293
21
-3.84293
0
LINE
8
BLACK
6
CONTINUOUS
10
4.88293
20
-3.84293
11
4.88617
21
-3.84076
0
LINE
8
BLACK
6
CONTINUOUS
10
4.88617
20
-3.84076
11
4.89
21
-3.84
0
LINE
8
BLACK
6
CONTINUOUS
10
4.89
20
-3.84
11
5.31
21
-3.84
0
LINE
8
BLACK
6
CONTINUOUS
10
5.31
20
-3.84
11
5.31383
21
-3.84076
0
LINE
8
BLACK
6
CONTINUOUS
10
4.96
20
-3.94
11
4.9
21
-3.94
0
LINE
8
BLACK
6
CONTINUOUS
10
4.9
20
-3.94
11
4.9
21
-3.88
0
LINE
8
BLACK
6
CONTINUOUS
10
4.9
20
-3.88
11
4.96
21
-3.88
0
LINE
8
BLACK
6
CONTINUOUS
10
4.96
20
-3.88
11
4.96
21
-3.94
0
LINE
8
BLACK
6
CONTINUOUS
10
5
20
-3.94
11
5
21
-3.88
0
LINE
8
BLACK
6
CONTINUOUS
10
5
20
-3.88
11
5.06
21
-3.88
0
LINE
8
BLACK
6
CONTINUOUS
10
5.06
20
-3.88
11
5.06
21
-3.9
0
LINE
8
BLACK
6
CONTINUOUS
10
5.06
20
-3.9
11
5.07929
21
-3.9
0
LINE
8
BLACK
6
CONTINUOUS
10
5.07929
20
-3.9
11
5.07989
21
-3.89982
0
LINE
8
BLACK
6
CONTINUOUS
10
5.07989
20
-3.89982
11
5.07993
21
-3.89977
0
LINE
8
BLACK
6
CONTINUOUS
10
5.07993
20
-3.89977
11
5.08
21
-3.89947
0
LINE
8
BLACK
6
CONTINUOUS
10
5.08
20
-3.89947
11
5.08
21
-3.88498
0
LINE
8
BLACK
6
CONTINUOUS
10
5.08
20
-3.88498
11
5.08079
21
-3.8823
0
LINE
8
BLACK
6
CONTINUOUS
10
5.08079
20
-3.8823
11
5.0829
21
-3.88047
0
LINE
8
BLACK
6
CONTINUOUS
10
5.0829
20
-3.88047
11
5.08496
21
-3.88002
0
LINE
8
BLACK
6
CONTINUOUS
10
5.08496
20
-3.88002
11
5.11504
21
-3.88002
0
LINE
8
BLACK
6
CONTINUOUS
10
5.11504
20
-3.88002
11
5.11772
21
-3.88081
0
LINE
8
BLACK
6
CONTINUOUS
10
5.11772
20
-3.88081
11
5.11955
21
-3.88292
0
LINE
8
BLACK
6
CONTINUOUS
10
5.11955
20
-3.88292
11
5.12
21
-3.88498
0
LINE
8
BLACK
6
CONTINUOUS
10
5.12
20
-3.88498
11
5.12
21
-3.89929
0
LINE
8
BLACK
6
CONTINUOUS
10
5.12
20
-3.89929
11
5.12018
21
-3.89989
0
LINE
8
BLACK
6
CONTINUOUS
10
5.12018
20
-3.89989
11
5.12023
21
-3.89993
0
LINE
8
BLACK
6
CONTINUOUS
10
5.12023
20
-3.89993
11
5.12053
21
-3.9
0
LINE
8
BLACK
6
CONTINUOUS
10
5.12053
20
-3.9
11
5.14
21
-3.9
0
LINE
8
BLACK
6
CONTINUOUS
10
5.14
20
-3.9
11
5.14
21
-3.88
0
LINE
8
BLACK
6
CONTINUOUS
10
5.14
20
-3.88
11
5.2
21
-3.88
0
LINE
8
BLACK
6
CONTINUOUS
10
5.2
20
-3.88
11
5.2
21
-3.94
0
LINE
8
BLACK
6
CONTINUOUS
10
5.2
20
-3.94
11
5.18
21
-3.94
0
LINE
8
BLACK
6
CONTINUOUS
10
5.18
20
-3.94
11
5.18
21
-3.98
0
LINE
8
BLACK
6
CONTINUOUS
10
5.18
20
-3.98
11
5.2
21
-3.98
0
LINE
8
BLACK
6
CONTINUOUS
10
5.2
20
-3.98
11
5.2
21
-4.04
0
LINE
8
BLACK
6
CONTINUOUS
10
5.2
20
-4.04
11
5.18
21
-4.04
0
LINE
8
BLACK
6
CONTINUOUS
10
5.18
20
-4.04
11
5.18
21
-4.05929
0
LINE
8
BLACK
6
CONTINUOUS
10
5.18
20
-4.05929
11
5.18018
21
-4.05989
0
LINE
8
BLACK
6
CONTINUOUS
10
5.18018
20
-4.05989
11
5.18023
21
-4.05993
0
LINE
8
BLACK
6
CONTINUOUS
10
5.18023
20
-4.05993
11
5.18053
21
-4.06
0
LINE
8
BLACK
6
CONTINUOUS
10
5.18053
20
-4.06
11
5.20176
21
-4.06
0
LINE
8
BLACK
6
CONTINUOUS
10
5.20176
20
-4.06
11
5.20203
21
-4.05999
0
LINE
8
BLACK
6
CONTINUOUS
10
5.20203
20
-4.05999
11
5.20403
21
-4.05977
0
LINE
8
BLACK
6
CONTINUOUS
10
5.20403
20
-4.05977
11
5.20463
21
-4.05963
0
LINE
8
BLACK
6
CONTINUOUS
10
5.20463
20
-4.05963
11
5.20937
21
-4.05785
0
LINE
8
BLACK
6
CONTINUOUS
10
5.20937
20
-4.05785
11
5.20999
21
-4.05751
0
LINE
8
BLACK
6
CONTINUOUS
10
5.20999
20
-4.05751
11
5.214
21
-4.0545
0
LINE
8
BLACK
6
CONTINUOUS
10
5.214
20
-4.0545
11
5.2145
21
-4.054
0
LINE
8
BLACK
6
CONTINUOUS
10
5.2145
20
-4.054
11
5.21602
21
-4.05198
0
LINE
8
BLACK
6
CONTINUOUS
10
5.21602
20
-4.05198
11
5.21826
21
-4.0503
0
LINE
8
BLACK
6
CONTINUOUS
10
5.21826
20
-4.0503
11
5.22104
21
-4.05011
0
LINE
8
BLACK
6
CONTINUOUS
10
5.22104
20
-4.05011
11
5.2235
21
-4.05145
0
LINE
8
BLACK
6
CONTINUOUS
10
5.2235
20
-4.05145
11
5.22396
21
-4.05198
0
LINE
8
BLACK
6
CONTINUOUS
10
5.22396
20
-4.05198
11
5.2257
21
-4.0543
0
LINE
8
BLACK
6
CONTINUOUS
10
5.2257
20
-4.0543
11
5.23029
21
-4.05774
0
LINE
8
BLACK
6
CONTINUOUS
10
5.23029
20
-4.05774
11
5.23566
21
-4.05975
0
LINE
8
BLACK
6
CONTINUOUS
10
5.23566
20
-4.05975
11
5.2381
21
-4.06002
0
LINE
8
BLACK
6
CONTINUOUS
10
5.2381
20
-4.06002
11
5.3019
21
-4.06002
0
LINE
8
BLACK
6
CONTINUOUS
10
5.3019
20
-4.06002
11
5.30434
21
-4.05975
0
LINE
8
BLACK
6
CONTINUOUS
10
5.30434
20
-4.05975
11
5.30971
21
-4.05774
0
LINE
8
BLACK
6
CONTINUOUS
10
5.30971
20
-4.05774
11
5.3143
21
-4.0543
0
LINE
8
BLACK
6
CONTINUOUS
10
5.3143
20
-4.0543
11
5.31603
21
-4.05199
0
LINE
8
BLACK
6
CONTINUOUS
10
5.31603
20
-4.05199
11
5.31827
21
-4.05032
0
LINE
8
BLACK
6
CONTINUOUS
10
5.31827
20
-4.05032
11
5.32106
21
-4.05012
0
LINE
8
BLACK
6
CONTINUOUS
10
5.32106
20
-4.05012
11
5.32351
21
-4.05146
0
LINE
8
BLACK
6
CONTINUOUS
10
5.32351
20
-4.05146
11
5.32397
21
-4.05199
0
LINE
8
BLACK
6
CONTINUOUS
10
5.32397
20
-4.05199
11
5.3257
21
-4.0543
0
LINE
8
BLACK
6
CONTINUOUS
10
5.3257
20
-4.0543
11
5.33029
21
-4.05774
0
LINE
8
BLACK
6
CONTINUOUS
10
5.33029
20
-4.05774
11
5.33566
21
-4.05975
0
LINE
8
BLACK
6
CONTINUOUS
10
5.33566
20
-4.05975
11
5.33597
21
-4.05979
0
LINE
8
BLACK
6
CONTINUOUS
10
5.33597
20
-4.05979
11
5.33617
21
-4.05984
0
LINE
8
BLACK
6
CONTINUOUS
10
5.33617
20
-4.05984
11
5.33859
21
-4.06122
0
LINE
8
BLACK
6
CONTINUOUS
10
5.33859
20
-4.06122
11
5.33989
21
-4.0637
0
LINE
8
BLACK
6
CONTINUOUS
10
5.33989
20
-4.0637
11
5.33998
21
-4.06466
0
LINE
8
BLACK
6
CONTINUOUS
10
5.33998
20
-4.06466
11
5.33998
21
-4.10882
0
LINE
8
BLACK
6
CONTINUOUS
10
5.33998
20
-4.10882
11
5.33992
21
-4.10957
0
LINE
8
BLACK
6
CONTINUOUS
10
5.33992
20
-4.10957
11
5.33984
21
-4.11014
0
LINE
8
BLACK
6
CONTINUOUS
10
5.33984
20
-4.11014
11
5.33984
21
-4.11014
0
LINE
8
BLACK
6
CONTINUOUS
10
5.33984
20
-4.11014
11
5.33979
21
-4.11042
0
LINE
8
BLACK
6
CONTINUOUS
10
5.33979
20
-4.11042
11
5.33982
21
-4.11071
0
LINE
8
BLACK
6
CONTINUOUS
10
5.33982
20
-4.11071
11
5.33982
21
-4.11071
0
LINE
8
BLACK
6
CONTINUOUS
10
5.33982
20
-4.11071
11
5.33996
21
-4.11251
0
LINE
8
BLACK
6
CONTINUOUS
10
5.33996
20
-4.11251
11
5.33998
21
-4.11291
0
LINE
8
BLACK
6
CONTINUOUS
10
5.33998
20
-4.11291
11
5.33998
21
-4.11323
0
LINE
8
BLACK
6
CONTINUOUS
10
5.33998
20
-4.11323
11
5.34011
21
-4.11435
0
LINE
8
BLACK
6
CONTINUOUS
10
5.34011
20
-4.11435
11
5.34013
21
-4.11452
0
LINE
8
BLACK
6
CONTINUOUS
10
5.34013
20
-4.11452
11
5.34036
21
-4.1174
0
LINE
8
BLACK
6
CONTINUOUS
10
5.34036
20
-4.1174
11
5.34045
21
-4.11767
0
LINE
8
BLACK
6
CONTINUOUS
10
5.34045
20
-4.11767
11
5.3405
21
-4.11791
0
LINE
8
BLACK
6
CONTINUOUS
10
5.3405
20
-4.11791
11
5.34055
21
-4.11814
0
LINE
8
BLACK
6
CONTINUOUS
10
5.34055
20
-4.11814
11
5.34059
21
-4.11843
0
LINE
8
BLACK
6
CONTINUOUS
10
5.34059
20
-4.11843
11
5.34068
21
-4.1187
0
LINE
8
BLACK
6
CONTINUOUS
10
5.34068
20
-4.1187
11
5.34068
21
-4.1187
0
LINE
8
BLACK
6
CONTINUOUS
10
5.34068
20
-4.1187
11
5.34157
21
-4.12115
0
LINE
8
BLACK
6
CONTINUOUS
10
5.34157
20
-4.12115
11
5.34163
21
-4.12131
0
LINE
8
BLACK
6
CONTINUOUS
10
5.34163
20
-4.12131
11
5.34252
21
-4.12406
0
LINE
8
BLACK
6
CONTINUOUS
10
5.34252
20
-4.12406
11
5.34267
21
-4.1243
0
LINE
8
BLACK
6
CONTINUOUS
10
5.34267
20
-4.1243
11
5.34277
21
-4.12452
0
LINE
8
BLACK
6
CONTINUOUS
10
5.34277
20
-4.12452
11
5.34288
21
-4.12474
0
LINE
8
BLACK
6
CONTINUOUS
10
5.34288
20
-4.12474
11
5.34298
21
-4.12501
0
LINE
8
BLACK
6
CONTINUOUS
10
5.34298
20
-4.12501
11
5.34313
21
-4.12525
0
LINE
8
BLACK
6
CONTINUOUS
10
5.34313
20
-4.12525
11
5.34456
21
-4.12743
0
LINE
8
BLACK
6
CONTINUOUS
10
5.34456
20
-4.12743
11
5.34465
21
-4.12757
0
LINE
8
BLACK
6
CONTINUOUS
10
5.34465
20
-4.12757
11
5.34615
21
-4.13004
0
LINE
8
BLACK
6
CONTINUOUS
10
5.34615
20
-4.13004
11
5.3463
21
-4.13021
0
LINE
8
BLACK
6
CONTINUOUS
10
5.3463
20
-4.13021
11
5.3463
21
-4.13021
0
LINE
8
BLACK
6
CONTINUOUS
10
5.3463
20
-4.13021
11
5.34644
21
-4.13037
0
LINE
8
BLACK
6
CONTINUOUS
10
5.34644
20
-4.13037
11
5.34644
21
-4.13038
0
LINE
8
BLACK
6
CONTINUOUS
10
5.34644
20
-4.13038
11
5.34654
21
-4.13049
0
LINE
8
BLACK
6
CONTINUOUS
10
5.34654
20
-4.13049
11
5.34666
21
-4.13062
0
LINE
8
BLACK
6
CONTINUOUS
10
5.34666
20
-4.13062
11
5.34681
21
-4.13086
0
LINE
8
BLACK
6
CONTINUOUS
10
5.34681
20
-4.13086
11
5.34702
21
-4.13106
0
LINE
8
BLACK
6
CONTINUOUS
10
5.34702
20
-4.13106
11
5.34904
21
-4.13297
0
LINE
8
BLACK
6
CONTINUOUS
10
5.34904
20
-4.13297
11
5.34913
21
-4.13307
0
LINE
8
BLACK
6
CONTINUOUS
10
5.34913
20
-4.13307
11
5.42388
21
-4.20781
0
LINE
8
BLACK
6
CONTINUOUS
10
5.42388
20
-4.20781
11
5.42509
21
-4.20979
0
LINE
8
BLACK
6
CONTINUOUS
10
5.42509
20
-4.20979
11
5.42714
21
-4.2161
0
LINE
8
BLACK
6
CONTINUOUS
10
5.42714
20
-4.2161
11
5.42727
21
-4.21633
0
LINE
8
BLACK
6
CONTINUOUS
10
5.42727
20
-4.21633
11
5.42727
21
-4.21633
0
LINE
8
BLACK
6
CONTINUOUS
10
5.42727
20
-4.21633
11
5.42932
21
-4.21986
0
LINE
8
BLACK
6
CONTINUOUS
10
5.42932
20
-4.21986
11
5.42998
21
-4.22235
0
LINE
8
BLACK
6
CONTINUOUS
10
5.42998
20
-4.22235
11
5.42998
21
-4.38551
0
LINE
8
BLACK
6
CONTINUOUS
10
5.42998
20
-4.38551
11
5.42919
21
-4.38819
0
LINE
8
BLACK
6
CONTINUOUS
10
5.42919
20
-4.38819
11
5.42853
21
-4.38902
0
LINE
8
BLACK
6
CONTINUOUS
10
5.42853
20
-4.38902
11
5.37902
21
-4.43853
0
LINE
8
BLACK
6
CONTINUOUS
10
5.37902
20
-4.43853
11
5.37657
21
-4.43987
0
LINE
8
BLACK
6
CONTINUOUS
10
5.37657
20
-4.43987
11
5.37551
21
-4.43998
0
LINE
8
BLACK
6
CONTINUOUS
10
5.37551
20
-4.43998
11
5.34114
21
-4.43998
0
LINE
8
BLACK
6
CONTINUOUS
10
5.34114
20
-4.43998
11
5.33846
21
-4.43919
0
LINE
8
BLACK
6
CONTINUOUS
10
5.33846
20
-4.43919
11
5.33823
21
-4.43903
0
LINE
8
BLACK
6
CONTINUOUS
10
5.33823
20
-4.43903
11
5.33819
21
-4.43901
0
LINE
8
BLACK
6
CONTINUOUS
10
5.33819
20
-4.43901
11
5.33819
21
-4.43901
0
LINE
8
BLACK
6
CONTINUOUS
10
5.33819
20
-4.43901
11
5.33798
21
-4.43885
0
LINE
8
BLACK
6
CONTINUOUS
10
5.33798
20
-4.43885
11
5.33775
21
-4.43875
0
LINE
8
BLACK
6
CONTINUOUS
10
5.33775
20
-4.43875
11
5.33774
21
-4.43875
0
LINE
8
BLACK
6
CONTINUOUS
10
5.33774
20
-4.43875
11
5.33135
21
-4.4359
0
LINE
8
BLACK
6
CONTINUOUS
10
5.33135
20
-4.4359
11
5.33135
21
-4.4359
0
LINE
8
BLACK
6
CONTINUOUS
10
5.33135
20
-4.4359
11
5.33111
21
-4.4358
0
LINE
8
BLACK
6
CONTINUOUS
10
5.33111
20
-4.4358
11
5.32744
21
-4.43501
0
LINE
8
BLACK
6
CONTINUOUS
10
5.32744
20
-4.43501
11
5.32401
21
-4.43429
0
LINE
8
BLACK
6
CONTINUOUS
10
5.32401
20
-4.43429
11
5.32401
21
-4.43429
0
LINE
8
BLACK
6
CONTINUOUS
10
5.32401
20
-4.43429
11
5.32376
21
-4.43423
0
LINE
8
BLACK
6
CONTINUOUS
10
5.32376
20
-4.43423
11
5.31624
21
-4.43423
0
LINE
8
BLACK
6
CONTINUOUS
10
5.31624
20
-4.43423
11
5.31599
21
-4.43429
0
LINE
8
BLACK
6
CONTINUOUS
10
5.31599
20
-4.43429
11
5.31599
21
-4.43429
0
LINE
8
BLACK
6
CONTINUOUS
10
5.31599
20
-4.43429
11
5.31256
21
-4.43501
0
LINE
8
BLACK
6
CONTINUOUS
10
5.31256
20
-4.43501
11
5.30889
21
-4.4358
0
LINE
8
BLACK
6
CONTINUOUS
10
5.30889
20
-4.4358
11
5.30865
21
-4.4359
0
LINE
8
BLACK
6
CONTINUOUS
10
5.30865
20
-4.4359
11
5.30865
21
-4.4359
0
LINE
8
BLACK
6
CONTINUOUS
10
5.30865
20
-4.4359
11
5.30226
21
-4.43875
0
LINE
8
BLACK
6
CONTINUOUS
10
5.30226
20
-4.43875
11
5.30225
21
-4.43875
0
LINE
8
BLACK
6
CONTINUOUS
10
5.30225
20
-4.43875
11
5.30202
21
-4.43885
0
LINE
8
BLACK
6
CONTINUOUS
10
5.30202
20
-4.43885
11
5.30181
21
-4.43901
0
LINE
8
BLACK
6
CONTINUOUS
10
5.30181
20
-4.43901
11
5.30181
21
-4.43901
0
LINE
8
BLACK
6
CONTINUOUS
10
5.30181
20
-4.43901
11
5.30177
21
-4.43903
0
LINE
8
BLACK
6
CONTINUOUS
10
5.30177
20
-4.43903
11
5.30175
21
-4.43904
0
LINE
8
BLACK
6
CONTINUOUS
10
5.30175
20
-4.43904
11
5.30158
21
-4.43914
0
LINE
8
BLACK
6
CONTINUOUS
10
5.30158
20
-4.43914
11
5.30156
21
-4.43911
0
LINE
8
BLACK
6
CONTINUOUS
10
5.30156
20
-4.43911
11
5.29914
21
-4.43997
0
LINE
8
BLACK
6
CONTINUOUS
10
5.29914
20
-4.43997
11
5.29886
21
-4.43998
0
LINE
8
BLACK
6
CONTINUOUS
10
5.29886
20
-4.43998
11
5.28837
21
-4.43998
0
LINE
8
BLACK
6
CONTINUOUS
10
5.28837
20
-4.43998
11
5.28568
21
-4.43919
0
LINE
8
BLACK
6
CONTINUOUS
10
5.28568
20
-4.43919
11
5.28419
21
-4.43769
0
LINE
8
BLACK
6
CONTINUOUS
10
5.28419
20
-4.43769
11
5.28335
21
-4.43639
0
LINE
8
BLACK
6
CONTINUOUS
10
5.28335
20
-4.43639
11
5.28335
21
-4.43639
0
LINE
8
BLACK
6
CONTINUOUS
10
5.28335
20
-4.43639
11
5.28326
21
-4.43624
0
LINE
8
BLACK
6
CONTINUOUS
10
5.28326
20
-4.43624
11
5.27958
21
-4.43197
0
LINE
8
BLACK
6
CONTINUOUS
10
5.27958
20
-4.43197
11
5.27526
21
-4.4282
0
LINE
8
BLACK
6
CONTINUOUS
10
5.27526
20
-4.4282
11
5.27052
21
-4.42513
0
LINE
8
BLACK
6
CONTINUOUS
10
5.27052
20
-4.42513
11
5.26992
21
-4.42485
0
LINE
8
BLACK
6
CONTINUOUS
10
5.26992
20
-4.42485
11
5.26548
21
-4.4228
0
LINE
8
BLACK
6
CONTINUOUS
10
5.26548
20
-4.4228
11
5.26548
21
-4.4228
0
LINE
8
BLACK
6
CONTINUOUS
10
5.26548
20
-4.4228
11
5.26532
21
-4.42273
0
LINE
8
BLACK
6
CONTINUOUS
10
5.26532
20
-4.42273
11
5.2625
21
-4.42188
0
LINE
8
BLACK
6
CONTINUOUS
10
5.2625
20
-4.42188
11
5.26008
21
-4.42116
0
LINE
8
BLACK
6
CONTINUOUS
10
5.26008
20
-4.42116
11
5.26008
21
-4.42116
0
LINE
8
BLACK
6
CONTINUOUS
10
5.26008
20
-4.42116
11
5.25992
21
-4.42111
0
LINE
8
BLACK
6
CONTINUOUS
10
5.25992
20
-4.42111
11
5.25974
21
-4.42108
0
LINE
8
BLACK
6
CONTINUOUS
10
5.25974
20
-4.42108
11
5.25974
21
-4.42108
0
LINE
8
BLACK
6
CONTINUOUS
10
5.25974
20
-4.42108
11
5.25442
21
-4.42029
0
LINE
8
BLACK
6
CONTINUOUS
10
5.25442
20
-4.42029
11
5.25442
21
-4.42029
0
LINE
8
BLACK
6
CONTINUOUS
10
5.25442
20
-4.42029
11
5.25424
21
-4.42026
0
LINE
8
BLACK
6
CONTINUOUS
10
5.25424
20
-4.42026
11
5.2513
21
-4.42025
0
LINE
8
BLACK
6
CONTINUOUS
10
5.2513
20
-4.42025
11
5.24878
21
-4.42023
0
LINE
8
BLACK
6
CONTINUOUS
10
5.24878
20
-4.42023
11
5.24878
21
-4.42023
0
LINE
8
BLACK
6
CONTINUOUS
10
5.24878
20
-4.42023
11
5.24861
21
-4.42023
0
LINE
8
BLACK
6
CONTINUOUS
10
5.24861
20
-4.42023
11
5.24851
21
-4.42024
0
LINE
8
BLACK
6
CONTINUOUS
10
5.24851
20
-4.42024
11
5.24836
21
-4.42025
0
LINE
8
BLACK
6
CONTINUOUS
10
5.24836
20
-4.42025
11
5.22953
21
-4.42025
0
LINE
8
BLACK
6
CONTINUOUS
10
5.22953
20
-4.42025
11
5.2293
21
-4.42026
0
LINE
8
BLACK
6
CONTINUOUS
10
5.2293
20
-4.42026
11
5.22691
21
-4.42043
0
LINE
8
BLACK
6
CONTINUOUS
10
5.22691
20
-4.42043
11
5.22691
21
-4.42043
0
LINE
8
BLACK
6
CONTINUOUS
10
5.22691
20
-4.42043
11
5.22665
21
-4.42045
0
LINE
8
BLACK
6
CONTINUOUS
10
5.22665
20
-4.42045
11
5.22626
21
-4.42057
0
LINE
8
BLACK
6
CONTINUOUS
10
5.22626
20
-4.42057
11
5.22616
21
-4.4206
0
LINE
8
BLACK
6
CONTINUOUS
10
5.22616
20
-4.4206
11
5.22404
21
-4.42065
0
LINE
8
BLACK
6
CONTINUOUS
10
5.22404
20
-4.42065
11
5.22403
21
-4.42072
0
LINE
8
BLACK
6
CONTINUOUS
10
5.22403
20
-4.42072
11
5.22171
21
-4.42047
0
LINE
8
BLACK
6
CONTINUOUS
10
5.22171
20
-4.42047
11
5.22158
21
-4.42045
0
LINE
8
BLACK
6
CONTINUOUS
10
5.22158
20
-4.42045
11
5.17842
21
-4.42045
0
LINE
8
BLACK
6
CONTINUOUS
10
5.17842
20
-4.42045
11
5.17597
21
-4.42072
0
LINE
8
BLACK
6
CONTINUOUS
10
5.17597
20
-4.42072
11
5.1706
21
-4.42273
0
LINE
8
BLACK
6
CONTINUOUS
10
5.1706
20
-4.42273
11
5.16601
21
-4.42617
0
LINE
8
BLACK
6
CONTINUOUS
10
5.16601
20
-4.42617
11
5.16257
21
-4.43076
0
LINE
8
BLACK
6
CONTINUOUS
10
5.16257
20
-4.43076
11
5.16056
21
-4.43613
0
LINE
8
BLACK
6
CONTINUOUS
10
5.16056
20
-4.43613
11
5.1603
21
-4.43858
0
LINE
8
BLACK
6
CONTINUOUS
10
5.1603
20
-4.43858
11
5.1603
21
-4.44047
0
LINE
8
BLACK
6
CONTINUOUS
10
5.1603
20
-4.44047
11
5.17047
21
-4.44047
0
LINE
8
BLACK
6
CONTINUOUS
10
5.17047
20
-4.44047
11
5.17047
21
-4.45819
0
LINE
8
BLACK
6
CONTINUOUS
10
5.17047
20
-4.45819
11
5.18031
21
-4.45819
0
LINE
8
BLACK
6
CONTINUOUS
10
5.18031
20
-4.45819
11
5.18031
21
-4.44047
0
LINE
8
BLACK
6
CONTINUOUS
10
5.18031
20
-4.44047
11
5.21969
21
-4.44047
0
LINE
8
BLACK
6
CONTINUOUS
10
5.21969
20
-4.44047
11
5.21969
21
-4.49953
0
LINE
8
BLACK
6
CONTINUOUS
10
5.21969
20
-4.49953
11
5.20787
21
-4.49953
0
LINE
8
BLACK
6
CONTINUOUS
10
5.20787
20
-4.49953
11
5.20787
21
-4.51001
0
LINE
8
BLACK
6
CONTINUOUS
10
5.20787
20
-4.51001
11
5.20758
21
-4.5113
0
LINE
8
BLACK
6
CONTINUOUS
10
5.20758
20
-4.5113
11
5.20743
21
-4.5126
0
LINE
8
BLACK
6
CONTINUOUS
10
5.20743
20
-4.5126
11
5.20719
21
-4.51299
0
LINE
8
BLACK
6
CONTINUOUS
10
5.20719
20
-4.51299
11
5.20709
21
-4.51343
0
LINE
8
BLACK
6
CONTINUOUS
10
5.20709
20
-4.51343
11
5.20627
21
-4.51445
0
LINE
8
BLACK
6
CONTINUOUS
10
5.20627
20
-4.51445
11
5.20557
21
-4.51557
0
LINE
8
BLACK
6
CONTINUOUS
10
5.20557
20
-4.51557
11
5.18556
21
-4.53558
0
LINE
8
BLACK
6
CONTINUOUS
10
5.18556
20
-4.53558
11
5.18444
21
-4.53628
0
LINE
8
BLACK
6
CONTINUOUS
10
5.18444
20
-4.53628
11
5.18341
21
-4.5371
0
LINE
8
BLACK
6
CONTINUOUS
10
5.18341
20
-4.5371
11
5.18297
21
-4.5372
0
LINE
8
BLACK
6
CONTINUOUS
10
5.18297
20
-4.5372
11
5.18259
21
-4.53744
0
LINE
8
BLACK
6
CONTINUOUS
10
5.18259
20
-4.53744
11
5.18128
21
-4.53758
0
LINE
8
BLACK
6
CONTINUOUS
10
5.18128
20
-4.53758
11
5.18
21
-4.53787
0
LINE
8
BLACK
6
CONTINUOUS
10
5.18
20
-4.53787
11
5.06999
21
-4.53787
0
LINE
8
BLACK
6
CONTINUOUS
10
5.06999
20
-4.53787
11
5.0687
21
-4.53758
0
LINE
8
BLACK
6
CONTINUOUS
10
5.0687
20
-4.53758
11
5.0674
21
-4.53743
0
LINE
8
BLACK
6
CONTINUOUS
10
5.0674
20
-4.53743
11
5.06701
21
-4.53719
0
LINE
8
BLACK
6
CONTINUOUS
10
5.06701
20
-4.53719
11
5.06657
21
-4.53709
0
LINE
8
BLACK
6
CONTINUOUS
10
5.06657
20
-4.53709
11
5.06555
21
-4.53627
0
LINE
8
BLACK
6
CONTINUOUS
10
5.06555
20
-4.53627
11
5.06443
21
-4.53557
0
LINE
8
BLACK
6
CONTINUOUS
10
5.06443
20
-4.53557
11
5.00442
21
-4.47556
0
LINE
8
BLACK
6
CONTINUOUS
10
5.00442
20
-4.47556
11
5.00372
21
-4.47444
0
LINE
8
BLACK
6
CONTINUOUS
10
5.00372
20
-4.47444
11
5.0029
21
-4.47341
0
LINE
8
BLACK
6
CONTINUOUS
10
5.0029
20
-4.47341
11
5.0028
21
-4.47297
0
LINE
8
BLACK
6
CONTINUOUS
10
5.0028
20
-4.47297
11
5.00256
21
-4.47259
0
LINE
8
BLACK
6
CONTINUOUS
10
5.00256
20
-4.47259
11
5.00242
21
-4.47128
0
LINE
8
BLACK
6
CONTINUOUS
10
5.00242
20
-4.47128
11
5.00213
21
-4.47
0
LINE
8
BLACK
6
CONTINUOUS
10
5.00213
20
-4.47
11
5.00213
21
-4.42344
0
LINE
8
BLACK
6
CONTINUOUS
10
5.00213
20
-4.42344
11
5.00074
21
-4.42274
0
LINE
8
BLACK
6
CONTINUOUS
10
5.00074
20
-4.42274
11
4.99726
21
-4.41926
0
LINE
8
BLACK
6
CONTINUOUS
10
4.99726
20
-4.41926
11
4.99502
21
-4.41487
0
LINE
8
BLACK
6
CONTINUOUS
10
4.99502
20
-4.41487
11
4.99425
21
-4.41
0
LINE
8
BLACK
6
CONTINUOUS
10
4.99425
20
-4.41
11
4.99502
21
-4.40513
0
LINE
8
BLACK
6
CONTINUOUS
10
4.99502
20
-4.40513
11
4.99726
21
-4.40074
0
LINE
8
BLACK
6
CONTINUOUS
10
4.99726
20
-4.40074
11
5.00074
21
-4.39726
0
LINE
8
BLACK
6
CONTINUOUS
10
5.00074
20
-4.39726
11
5.00213
21
-4.39656
0
LINE
8
BLACK
6
CONTINUOUS
10
5.00213
20
-4.39656
11
5.00213
21
-4.04
0
LINE
8
BLACK
6
CONTINUOUS
10
5.00213
20
-4.04
11
5
21
-4.04
0
LINE
8
BLACK
6
CONTINUOUS
10
5
20
-4.04
11
5
21
-3.98
0
LINE
8
BLACK
6
CONTINUOUS
10
5
20
-3.98
11
5.06
21
-3.98
0
LINE
8
BLACK
6
CONTINUOUS
10
5.06
20
-3.98
11
5.06
21
-4.04
0
LINE
8
BLACK
6
CONTINUOUS
10
5.06
20
-4.04
11
5.01787
21
-4.04
0
LINE
8
BLACK
6
CONTINUOUS
10
5.01787
20
-4.04
11
5.01787
21
-4.39656
0
LINE
8
BLACK
6
CONTINUOUS
10
5.01787
20
-4.39656
11
5.01926
21
-4.39726
0
LINE
8
BLACK
6
CONTINUOUS
10
5.01926
20
-4.39726
11
5.02274
21
-4.40074
0
LINE
8
BLACK
6
CONTINUOUS
10
5.02274
20
-4.40074
11
5.02498
21
-4.40513
0
LINE
8
BLACK
6
CONTINUOUS
10
5.02498
20
-4.40513
11
5.02575
21
-4.41
0
LINE
8
BLACK
6
CONTINUOUS
10
5.02575
20
-4.41
11
5.02498
21
-4.41487
0
LINE
8
BLACK
6
CONTINUOUS
10
5.02498
20
-4.41487
11
5.02274
21
-4.41926
0
LINE
8
BLACK
6
CONTINUOUS
10
5.02274
20
-4.41926
11
5.01926
21
-4.42274
0
LINE
8
BLACK
6
CONTINUOUS
10
5.01926
20
-4.42274
11
5.01787
21
-4.42344
0
LINE
8
BLACK
6
CONTINUOUS
10
5.01787
20
-4.42344
11
5.01787
21
-4.46674
0
LINE
8
BLACK
6
CONTINUOUS
10
5.01787
20
-4.46674
11
5.07326
21
-4.52213
0
LINE
8
BLACK
6
CONTINUOUS
10
5.07326
20
-4.52213
11
5.17674
21
-4.52213
0
LINE
8
BLACK
6
CONTINUOUS
10
5.17674
20
-4.52213
11
5.19213
21
-4.50674
0
LINE
8
BLACK
6
CONTINUOUS
10
5.19213
20
-4.50674
11
5.19213
21
-4.49953
0
LINE
8
BLACK
6
CONTINUOUS
10
5.19213
20
-4.49953
11
5.18031
21
-4.49953
0
LINE
8
BLACK
6
CONTINUOUS
10
5.18031
20
-4.49953
11
5.18031
21
-4.48181
0
LINE
8
BLACK
6
CONTINUOUS
10
5.18031
20
-4.48181
11
5.17047
21
-4.48181
0
LINE
8
BLACK
6
CONTINUOUS
10
5.17047
20
-4.48181
11
5.17047
21
-4.49953
0
LINE
8
BLACK
6
CONTINUOUS
10
5.17047
20
-4.49953
11
5.1596
21
-4.49953
0
LINE
8
BLACK
6
CONTINUOUS
10
5.1596
20
-4.49953
11
5.15951
21
-4.49983
0
LINE
8
BLACK
6
CONTINUOUS
10
5.15951
20
-4.49983
11
5.1574
21
-4.50166
0
LINE
8
BLACK
6
CONTINUOUS
10
5.1574
20
-4.50166
11
5.15533
21
-4.50211
0
LINE
8
BLACK
6
CONTINUOUS
10
5.15533
20
-4.50211
11
5.08361
21
-4.50211
0
LINE
8
BLACK
6
CONTINUOUS
10
5.08361
20
-4.50211
11
5.08093
21
-4.50132
0
LINE
8
BLACK
6
CONTINUOUS
10
5.08093
20
-4.50132
11
5.0801
21
-4.50065
0
LINE
8
BLACK
6
CONTINUOUS
10
5.0801
20
-4.50065
11
5.03935
21
-4.4599
0
LINE
8
BLACK
6
CONTINUOUS
10
5.03935
20
-4.4599
11
5.03801
21
-4.45745
0
LINE
8
BLACK
6
CONTINUOUS
10
5.03801
20
-4.45745
11
5.03789
21
-4.45639
0
LINE
8
BLACK
6
CONTINUOUS
10
5.03789
20
-4.45639
11
5.03789
21
-4.43436
0
LINE
8
BLACK
6
CONTINUOUS
10
5.03789
20
-4.43436
11
5.03868
21
-4.43168
0
LINE
8
BLACK
6
CONTINUOUS
10
5.03868
20
-4.43168
11
5.03884
21
-4.43144
0
LINE
8
BLACK
6
CONTINUOUS
10
5.03884
20
-4.43144
11
5.03892
21
-4.43133
0
LINE
8
BLACK
6
CONTINUOUS
10
5.03892
20
-4.43133
11
5.0391
21
-4.43114
0
LINE
8
BLACK
6
CONTINUOUS
10
5.0391
20
-4.43114
11
5.04079
21
-4.4282
0
LINE
8
BLACK
6
CONTINUOUS
10
5.04079
20
-4.4282
11
5.04273
21
-4.42485
0
LINE
8
BLACK
6
CONTINUOUS
10
5.04273
20
-4.42485
11
5.04273
21
-4.42485
0
LINE
8
BLACK
6
CONTINUOUS
10
5.04273
20
-4.42485
11
5.04286
21
-4.42463
0
LINE
8
BLACK
6
CONTINUOUS
10
5.04286
20
-4.42463
11
5.04518
21
-4.41748
0
LINE
8
BLACK
6
CONTINUOUS
10
5.04518
20
-4.41748
11
5.04596
21
-4.41
0
LINE
8
BLACK
6
CONTINUOUS
10
5.04596
20
-4.41
11
5.04518
21
-4.40252
0
LINE
8
BLACK
6
CONTINUOUS
10
5.04518
20
-4.40252
11
5.04286
21
-4.39537
0
LINE
8
BLACK
6
CONTINUOUS
10
5.04286
20
-4.39537
11
5.0391
21
-4.38886
0
LINE
8
BLACK
6
CONTINUOUS
10
5.0391
20
-4.38886
11
5.03892
21
-4.38867
0
LINE
8
BLACK
6
CONTINUOUS
10
5.03892
20
-4.38867
11
5.03884
21
-4.38856
0
LINE
8
BLACK
6
CONTINUOUS
10
5.03884
20
-4.38856
11
5.0379
21
-4.38592
0
LINE
8
BLACK
6
CONTINUOUS
10
5.0379
20
-4.38592
11
5.03789
21
-4.38564
0
LINE
8
BLACK
6
CONTINUOUS
10
5.03789
20
-4.38564
11
5.03789
21
-4.06498
0
LINE
8
BLACK
6
CONTINUOUS
10
5.03789
20
-4.06498
11
5.03868
21
-4.0623
0
LINE
8
BLACK
6
CONTINUOUS
10
5.03868
20
-4.0623
11
5.04079
21
-4.06047
0
LINE
8
BLACK
6
CONTINUOUS
10
5.04079
20
-4.06047
11
5.04285
21
-4.06002
0
LINE
8
BLACK
6
CONTINUOUS
10
5.04285
20
-4.06002
11
5.0619
21
-4.06002
0
LINE
8
BLACK
6
CONTINUOUS
10
5.0619
20
-4.06002
11
5.06434
21
-4.05975
0
LINE
8
BLACK
6
CONTINUOUS
10
5.06434
20
-4.05975
11
5.06971
21
-4.05774
0
LINE
8
BLACK
6
CONTINUOUS
10
5.06971
20
-4.05774
11
5.0743
21
-4.0543
0
LINE
8
BLACK
6
CONTINUOUS
10
5.0743
20
-4.0543
11
5.07774
21
-4.04971
0
LINE
8
BLACK
6
CONTINUOUS
10
5.07774
20
-4.04971
11
5.07975
21
-4.04434
0
LINE
8
BLACK
6
CONTINUOUS
10
5.07975
20
-4.04434
11
5.08002
21
-4.0419
0
LINE
8
BLACK
6
CONTINUOUS
10
5.08002
20
-4.0419
11
5.08002
21
-3.9781
0
LINE
8
BLACK
6
CONTINUOUS
10
5.08002
20
-3.9781
11
5.07975
21
-3.97566
0
LINE
8
BLACK
6
CONTINUOUS
10
5.07975
20
-3.97566
11
5.07774
21
-3.97029
0
LINE
8
BLACK
6
CONTINUOUS
10
5.07774
20
-3.97029
11
5.0743
21
-3.9657
0
LINE
8
BLACK
6
CONTINUOUS
10
5.0743
20
-3.9657
11
5.07198
21
-3.96396
0
LINE
8
BLACK
6
CONTINUOUS
10
5.07198
20
-3.96396
11
5.0703
21
-3.96172
0
LINE
8
BLACK
6
CONTINUOUS
10
5.0703
20
-3.96172
11
5.07011
21
-3.95893
0
LINE
8
BLACK
6
CONTINUOUS
10
5.07011
20
-3.95893
11
5.07145
21
-3.95648
0
LINE
8
BLACK
6
CONTINUOUS
10
5.07145
20
-3.95648
11
5.07198
21
-3.95602
0
LINE
8
BLACK
6
CONTINUOUS
10
5.07198
20
-3.95602
11
5.074
21
-3.9545
0
LINE
8
BLACK
6
CONTINUOUS
10
5.074
20
-3.9545
11
5.0745
21
-3.954
0
LINE
8
BLACK
6
CONTINUOUS
10
5.0745
20
-3.954
11
5.07751
21
-3.94999
0
LINE
8
BLACK
6
CONTINUOUS
10
5.07751
20
-3.94999
11
5.07785
21
-3.94937
0
LINE
8
BLACK
6
CONTINUOUS
10
5.07785
20
-3.94937
11
5.07963
21
-3.94463
0
LINE
8
BLACK
6
CONTINUOUS
10
5.07963
20
-3.94463
11
5.07977
21
-3.94403
0
LINE
8
BLACK
6
CONTINUOUS
10
5.07977
20
-3.94403
11
5.07999
21
-3.94203
0
LINE
8
BLACK
6
CONTINUOUS
10
5.07999
20
-3.94203
11
5.08
21
-3.94176
0
LINE
8
BLACK
6
CONTINUOUS
10
5.08
20
-3.94176
11
5.08
21
-3.92071
0
LINE
8
BLACK
6
CONTINUOUS
10
5.08
20
-3.92071
11
5.07982
21
-3.92011
0
LINE
8
BLACK
6
CONTINUOUS
10
5.07982
20
-3.92011
11
5.07977
21
-3.92007
0
LINE
8
BLACK
6
CONTINUOUS
10
5.07977
20
-3.92007
11
5.07947
21
-3.92
0
LINE
8
BLACK
6
CONTINUOUS
10
5.07947
20
-3.92
11
5.06
21
-3.92
0
LINE
8
BLACK
6
CONTINUOUS
10
5.06
20
-3.92
11
5.06
21
-3.94
0
LINE
8
BLACK
6
CONTINUOUS
10
5.06
20
-3.94
11
5
21
-3.94
0
LINE
8
BLACK
6
CONTINUOUS
10
5.12023
20
-4.04403
11
5.12037
21
-4.04463
0
LINE
8
BLACK
6
CONTINUOUS
10
5.12037
20
-4.04463
11
5.12215
21
-4.04937
0
LINE
8
BLACK
6
CONTINUOUS
10
5.12215
20
-4.04937
11
5.12249
21
-4.04999
0
LINE
8
BLACK
6
CONTINUOUS
10
5.12249
20
-4.04999
11
5.1255
21
-4.054
0
LINE
8
BLACK
6
CONTINUOUS
10
5.1255
20
-4.054
11
5.126
21
-4.0545
0
LINE
8
BLACK
6
CONTINUOUS
10
5.126
20
-4.0545
11
5.13001
21
-4.05751
0
LINE
8
BLACK
6
CONTINUOUS
10
5.13001
20
-4.05751
11
5.13063
21
-4.05785
0
LINE
8
BLACK
6
CONTINUOUS
10
5.13063
20
-4.05785
11
5.13537
21
-4.05963
0
LINE
8
BLACK
6
CONTINUOUS
10
5.13537
20
-4.05963
11
5.13597
21
-4.05977
0
LINE
8
BLACK
6
CONTINUOUS
10
5.13597
20
-4.05977
11
5.13797
21
-4.05999
0
LINE
8
BLACK
6
CONTINUOUS
10
5.13797
20
-4.05999
11
5.13824
21
-4.06
0
LINE
8
BLACK
6
CONTINUOUS
10
5.13824
20
-4.06
11
5.15929
21
-4.06
0
LINE
8
BLACK
6
CONTINUOUS
10
5.15929
20
-4.06
11
5.15989
21
-4.05982
0
LINE
8
BLACK
6
CONTINUOUS
10
5.15989
20
-4.05982
11
5.15993
21
-4.05977
0
LINE
8
BLACK
6
CONTINUOUS
10
5.15993
20
-4.05977
11
5.16
21
-4.05947
0
LINE
8
BLACK
6
CONTINUOUS
10
5.16
20
-4.05947
11
5.16
21
-4.04
0
LINE
8
BLACK
6
CONTINUOUS
10
5.16
20
-4.04
11
5.14
21
-4.04
0
LINE
8
BLACK
6
CONTINUOUS
10
5.14
20
-4.04
11
5.14
21
-4.02
0
LINE
8
BLACK
6
CONTINUOUS
10
5.14
20
-4.02
11
5.12071
21
-4.02
0
LINE
8
BLACK
6
CONTINUOUS
10
5.12071
20
-4.02
11
5.12011
21
-4.02018
0
LINE
8
BLACK
6
CONTINUOUS
10
5.12011
20
-4.02018
11
5.12007
21
-4.02023
0
LINE
8
BLACK
6
CONTINUOUS
10
5.12007
20
-4.02023
11
5.12
21
-4.02053
0
LINE
8
BLACK
6
CONTINUOUS
10
5.12
20
-4.02053
11
5.12
21
-4.04176
0
LINE
8
BLACK
6
CONTINUOUS
10
5.12
20
-4.04176
11
5.12001
21
-4.04203
0
LINE
8
BLACK
6
CONTINUOUS
10
5.12001
20
-4.04203
11
5.12023
21
-4.04403
0
LINE
8
BLACK
6
CONTINUOUS
10
5.12023
20
-3.99993
11
5.12053
21
-4
0
LINE
8
BLACK
6
CONTINUOUS
10
5.12053
20
-4
11
5.14
21
-4
0
LINE
8
BLACK
6
CONTINUOUS
10
5.14
20
-4
11
5.14
21
-3.98
0
LINE
8
BLACK
6
CONTINUOUS
10
5.14
20
-3.98
11
5.16
21
-3.98
0
LINE
8
BLACK
6
CONTINUOUS
10
5.16
20
-3.98
11
5.16
21
-3.94
0
LINE
8
BLACK
6
CONTINUOUS
10
5.16
20
-3.94
11
5.14
21
-3.94
0
LINE
8
BLACK
6
CONTINUOUS
10
5.14
20
-3.94
11
5.14
21
-3.92
0
LINE
8
BLACK
6
CONTINUOUS
10
5.14
20
-3.92
11
5.12071
21
-3.92
0
LINE
8
BLACK
6
CONTINUOUS
10
5.12071
20
-3.92
11
5.12011
21
-3.92018
0
LINE
8
BLACK
6
CONTINUOUS
10
5.12011
20
-3.92018
11
5.12007
21
-3.92023
0
LINE
8
BLACK
6
CONTINUOUS
10
5.12007
20
-3.92023
11
5.12
21
-3.92053
0
LINE
8
BLACK
6
CONTINUOUS
10
5.12
20
-3.92053
11
5.12
21
-3.94176
0
LINE
8
BLACK
6
CONTINUOUS
10
5.12
20
-3.94176
11
5.12001
21
-3.94203
0
LINE
8
BLACK
6
CONTINUOUS
10
5.12001
20
-3.94203
11
5.12023
21
-3.94403
0
LINE
8
BLACK
6
CONTINUOUS
10
5.12023
20
-3.94403
11
5.12037
21
-3.94463
0
LINE
8
BLACK
6
CONTINUOUS
10
5.12037
20
-3.94463
11
5.12215
21
-3.94937
0
LINE
8
BLACK
6
CONTINUOUS
10
5.12215
20
-3.94937
11
5.12249
21
-3.94999
0
LINE
8
BLACK
6
CONTINUOUS
10
5.12249
20
-3.94999
11
5.1255
21
-3.954
0
LINE
8
BLACK
6
CONTINUOUS
10
5.1255
20
-3.954
11
5.126
21
-3.9545
0
LINE
8
BLACK
6
CONTINUOUS
10
5.126
20
-3.9545
11
5.12804
21
-3.95603
0
LINE
8
BLACK
6
CONTINUOUS
10
5.12804
20
-3.95603
11
5.12971
21
-3.95827
0
LINE
8
BLACK
6
CONTINUOUS
10
5.12971
20
-3.95827
11
5.12991
21
-3.96106
0
LINE
8
BLACK
6
CONTINUOUS
10
5.12991
20
-3.96106
11
5.12857
21
-3.96351
0
LINE
8
BLACK
6
CONTINUOUS
10
5.12857
20
-3.96351
11
5.12804
21
-3.96397
0
LINE
8
BLACK
6
CONTINUOUS
10
5.12804
20
-3.96397
11
5.126
21
-3.9655
0
LINE
8
BLACK
6
CONTINUOUS
10
5.126
20
-3.9655
11
5.1255
21
-3.966
0
LINE
8
BLACK
6
CONTINUOUS
10
5.1255
20
-3.966
11
5.12249
21
-3.97001
0
LINE
8
BLACK
6
CONTINUOUS
10
5.12249
20
-3.97001
11
5.12215
21
-3.97063
0
LINE
8
BLACK
6
CONTINUOUS
10
5.12215
20
-3.97063
11
5.12037
21
-3.97537
0
LINE
8
BLACK
6
CONTINUOUS
10
5.12037
20
-3.97537
11
5.12023
21
-3.97597
0
LINE
8
BLACK
6
CONTINUOUS
10
5.12023
20
-3.97597
11
5.12001
21
-3.97797
0
LINE
8
BLACK
6
CONTINUOUS
10
5.12001
20
-3.97797
11
5.12
21
-3.97824
0
LINE
8
BLACK
6
CONTINUOUS
10
5.12
20
-3.97824
11
5.12
21
-3.99929
0
LINE
8
BLACK
6
CONTINUOUS
10
5.12
20
-3.99929
11
5.12018
21
-3.99989
0
LINE
8
BLACK
6
CONTINUOUS
10
5.12018
20
-3.99989
11
5.12023
21
-3.99993
0
CIRCLE
8
BLACK
10
5.32
20
-4.47
40
0.00787402
0
CIRCLE
8
BLACK
10
5.46
20
-4.20148
40
0.00787402
0
CIRCLE
8
BLACK
10
5.01
20
-4.41
40
0.00787402
0
CIRCLE
8
BLACK
10
5.57
20
-4.19
40
0.00787402
0
CIRCLE
8
BLACK
10
5.32
20
-4.22
40
0.00787402
0
CIRCLE
8
BLACK
10
5.28
20
-4.22
40
0.00787402
0
CIRCLE
8
BLACK
10
5.4
20
-4.22
40
0.00787402
0
CIRCLE
8
BLACK
10
5.09
20
-4.47
40
0.00787402
0
CIRCLE
8
BLACK
10
5.09
20
-4.12
40
0.00787402
0
CIRCLE
8
BLACK
10
5.6
20
-4.35
40
0.00787402
0
CIRCLE
8
BLACK
10
5.4
20
-4.31
40
0.00787402
0
CIRCLE
8
BLACK
10
5.62
20
-4.19
40
0.00787402
0
CIRCLE
8
BLACK
10
5.09
20
-4.42
40
0.00787402
0
CIRCLE
8
BLACK
10
5.24
20
-4.22
40
0.00787402
0
CIRCLE
8
BLACK
10
5.67
20
-4.28
40
0.00787402
0
CIRCLE
8
BLACK
10
5.36
20
-4.22
40
0.00787402
0
CIRCLE
8
BLACK
10
5.06
20
-4.45
40
0.00787402
  0
ENDSEC
  0
EOF
