  0
SECTION
  2
HEADER
  9
$ANGBASE
  50
0.0
  9
$ANGDIR
  70
1
  9
$MEASUREMENT
  70
0
  0
ENDSEC
  0
SECTION
  2
TABLES
  0
TABLE
  2
LTYPE
  70
4
  0
LTYPE
  5
40F
  2
CONTINUOUS
  70
0
  3
Solid line
  72
65
  73
0
  40
0.0
  0
LTYPE
  5
410
  2
DASHDOT
 70
0
  3
Dash Dot ____ _ ____ _
 72
65
 73
4
 40
2.0
 49
1.25
 49
-0.25
 49
0.25
 49
-0.25
  0
LTYPE
  5
411
  2
DASHED
 70
0
  3
Dashed __ __ __ __ __
 72
65
 73
2
 40
0.75
 49
0.5
 49
-0.25
  0
LTYPE
  5
43B
  2
DOTTED
 70
0
  3
Dotted .  .  .  .
 72
65
 73
2
 40
0.2
 49
0.0
 49
-0.2
  0
ENDTAB
  0
TABLE
  2
STYLE
  70
4
  0
STYLE
  2
KICAD
  70
0
  40
0
  41
1
  42
1
  50
0
  71
0
  3
isocp.shx
  0
STYLE
  2
KICADB
  70
0
  40
0
  41
1
  42
1
  50
0
  71
0
  3
isocp.shx
  0
STYLE
  2
KICADI
  70
0
  40
0
  41
1
  42
1
  50
15
  71
0
  3
isocp.shx
  0
STYLE
  2
KICADBI
  70
0
  40
0
  41
1
  42
1
  50
15
  71
0
  3
isocp.shx
  0
ENDTAB
  0
TABLE
  2
LAYER
  70
1
  0
LAYER
  2
BLACK
  70
0
  62
7
  6
CONTINUOUS
  0
ENDTAB
  0
ENDSEC
  0
SECTION
  2
ENTITIES
0
LINE
8
BLACK
6
CONTINUOUS
10
4.53946
20
-4.17664
11
4.54015
21
-4.17854
0
LINE
8
BLACK
6
CONTINUOUS
10
4.54015
20
-4.17854
11
4.54015
21
-4.21495
0
LINE
8
BLACK
6
CONTINUOUS
10
4.54015
20
-4.21495
11
4.55594
21
-4.21495
0
LINE
8
BLACK
6
CONTINUOUS
10
4.55594
20
-4.21495
11
4.55695
21
-4.21513
0
LINE
8
BLACK
6
CONTINUOUS
10
4.55695
20
-4.21513
11
4.5585
21
-4.21643
0
LINE
8
BLACK
6
CONTINUOUS
10
4.5585
20
-4.21643
11
4.55885
21
-4.21842
0
LINE
8
BLACK
6
CONTINUOUS
10
4.55885
20
-4.21842
11
4.55784
21
-4.22017
0
LINE
8
BLACK
6
CONTINUOUS
10
4.55784
20
-4.22017
11
4.55594
21
-4.22086
0
LINE
8
BLACK
6
CONTINUOUS
10
4.55594
20
-4.22086
11
4.5372
21
-4.22086
0
LINE
8
BLACK
6
CONTINUOUS
10
4.5372
20
-4.22086
11
4.53681
21
-4.22079
0
LINE
8
BLACK
6
CONTINUOUS
10
4.53681
20
-4.22079
11
4.53668
21
-4.22081
0
LINE
8
BLACK
6
CONTINUOUS
10
4.53668
20
-4.22081
11
4.53657
21
-4.22075
0
LINE
8
BLACK
6
CONTINUOUS
10
4.53657
20
-4.22075
11
4.53619
21
-4.22068
0
LINE
8
BLACK
6
CONTINUOUS
10
4.53619
20
-4.22068
11
4.5356
21
-4.22019
0
LINE
8
BLACK
6
CONTINUOUS
10
4.5356
20
-4.22019
11
4.53493
21
-4.2198
0
LINE
8
BLACK
6
CONTINUOUS
10
4.53493
20
-4.2198
11
4.53484
21
-4.21955
0
LINE
8
BLACK
6
CONTINUOUS
10
4.53484
20
-4.21955
11
4.53464
21
-4.21938
0
LINE
8
BLACK
6
CONTINUOUS
10
4.53464
20
-4.21938
11
4.5345
21
-4.21863
0
LINE
8
BLACK
6
CONTINUOUS
10
4.5345
20
-4.21863
11
4.53424
21
-4.21791
0
LINE
8
BLACK
6
CONTINUOUS
10
4.53424
20
-4.21791
11
4.53424
21
-4.17854
0
LINE
8
BLACK
6
CONTINUOUS
10
4.53424
20
-4.17854
11
4.53442
21
-4.17753
0
LINE
8
BLACK
6
CONTINUOUS
10
4.53442
20
-4.17753
11
4.53572
21
-4.17598
0
LINE
8
BLACK
6
CONTINUOUS
10
4.53572
20
-4.17598
11
4.53771
21
-4.17563
0
LINE
8
BLACK
6
CONTINUOUS
10
4.53771
20
-4.17563
11
4.53946
21
-4.17664
0
LINE
8
BLACK
6
CONTINUOUS
10
4.61695
20
-4.17576
11
4.61708
21
-4.17587
0
LINE
8
BLACK
6
CONTINUOUS
10
4.61708
20
-4.17587
11
4.61726
21
-4.1759
0
LINE
8
BLACK
6
CONTINUOUS
10
4.61726
20
-4.1759
11
4.62101
21
-4.17777
0
LINE
8
BLACK
6
CONTINUOUS
10
4.62101
20
-4.17777
11
4.62171
21
-4.1783
0
LINE
8
BLACK
6
CONTINUOUS
10
4.62171
20
-4.1783
11
4.62177
21
-4.17832
0
LINE
8
BLACK
6
CONTINUOUS
10
4.62177
20
-4.17832
11
4.62365
21
-4.1802
0
LINE
8
BLACK
6
CONTINUOUS
10
4.62365
20
-4.1802
11
4.62415
21
-4.18092
0
LINE
8
BLACK
6
CONTINUOUS
10
4.62415
20
-4.18092
11
4.6242
21
-4.18097
0
LINE
8
BLACK
6
CONTINUOUS
10
4.6242
20
-4.18097
11
4.62608
21
-4.18471
0
LINE
8
BLACK
6
CONTINUOUS
10
4.62608
20
-4.18471
11
4.62637
21
-4.1857
0
LINE
8
BLACK
6
CONTINUOUS
10
4.62637
20
-4.1857
11
4.62633
21
-4.18587
0
LINE
8
BLACK
6
CONTINUOUS
10
4.62633
20
-4.18587
11
4.62639
21
-4.18604
0
LINE
8
BLACK
6
CONTINUOUS
10
4.62639
20
-4.18604
11
4.62639
21
-4.18978
0
LINE
8
BLACK
6
CONTINUOUS
10
4.62639
20
-4.18978
11
4.62621
21
-4.19079
0
LINE
8
BLACK
6
CONTINUOUS
10
4.62621
20
-4.19079
11
4.6261
21
-4.19093
0
LINE
8
BLACK
6
CONTINUOUS
10
4.6261
20
-4.19093
11
4.62608
21
-4.19111
0
LINE
8
BLACK
6
CONTINUOUS
10
4.62608
20
-4.19111
11
4.6242
21
-4.19485
0
LINE
8
BLACK
6
CONTINUOUS
10
4.6242
20
-4.19485
11
4.62367
21
-4.19556
0
LINE
8
BLACK
6
CONTINUOUS
10
4.62367
20
-4.19556
11
4.62365
21
-4.19562
0
LINE
8
BLACK
6
CONTINUOUS
10
4.62365
20
-4.19562
11
4.62277
21
-4.1965
0
LINE
8
BLACK
6
CONTINUOUS
10
4.62277
20
-4.1965
11
4.6234
21
-4.19685
0
LINE
8
BLACK
6
CONTINUOUS
10
4.6234
20
-4.19685
11
4.62349
21
-4.197
0
LINE
8
BLACK
6
CONTINUOUS
10
4.62349
20
-4.197
11
4.62365
21
-4.19707
0
LINE
8
BLACK
6
CONTINUOUS
10
4.62365
20
-4.19707
11
4.62552
21
-4.19895
0
LINE
8
BLACK
6
CONTINUOUS
10
4.62552
20
-4.19895
11
4.62603
21
-4.19967
0
LINE
8
BLACK
6
CONTINUOUS
10
4.62603
20
-4.19967
11
4.62608
21
-4.19971
0
LINE
8
BLACK
6
CONTINUOUS
10
4.62608
20
-4.19971
11
4.62795
21
-4.20346
0
LINE
8
BLACK
6
CONTINUOUS
10
4.62795
20
-4.20346
11
4.62824
21
-4.20445
0
LINE
8
BLACK
6
CONTINUOUS
10
4.62824
20
-4.20445
11
4.6282
21
-4.20462
0
LINE
8
BLACK
6
CONTINUOUS
10
4.6282
20
-4.20462
11
4.62826
21
-4.20478
0
LINE
8
BLACK
6
CONTINUOUS
10
4.62826
20
-4.20478
11
4.62826
21
-4.21041
0
LINE
8
BLACK
6
CONTINUOUS
10
4.62826
20
-4.21041
11
4.62808
21
-4.21142
0
LINE
8
BLACK
6
CONTINUOUS
10
4.62808
20
-4.21142
11
4.62797
21
-4.21155
0
LINE
8
BLACK
6
CONTINUOUS
10
4.62797
20
-4.21155
11
4.62795
21
-4.21173
0
LINE
8
BLACK
6
CONTINUOUS
10
4.62795
20
-4.21173
11
4.62608
21
-4.21548
0
LINE
8
BLACK
6
CONTINUOUS
10
4.62608
20
-4.21548
11
4.62555
21
-4.21619
0
LINE
8
BLACK
6
CONTINUOUS
10
4.62555
20
-4.21619
11
4.62552
21
-4.21624
0
LINE
8
BLACK
6
CONTINUOUS
10
4.62552
20
-4.21624
11
4.62365
21
-4.21812
0
LINE
8
BLACK
6
CONTINUOUS
10
4.62365
20
-4.21812
11
4.62292
21
-4.21863
0
LINE
8
BLACK
6
CONTINUOUS
10
4.62292
20
-4.21863
11
4.62288
21
-4.21867
0
LINE
8
BLACK
6
CONTINUOUS
10
4.62288
20
-4.21867
11
4.61913
21
-4.22055
0
LINE
8
BLACK
6
CONTINUOUS
10
4.61913
20
-4.22055
11
4.61815
21
-4.22084
0
LINE
8
BLACK
6
CONTINUOUS
10
4.61815
20
-4.22084
11
4.61798
21
-4.2208
0
LINE
8
BLACK
6
CONTINUOUS
10
4.61798
20
-4.2208
11
4.61781
21
-4.22086
0
LINE
8
BLACK
6
CONTINUOUS
10
4.61781
20
-4.22086
11
4.60281
21
-4.22086
0
LINE
8
BLACK
6
CONTINUOUS
10
4.60281
20
-4.22086
11
4.60243
21
-4.22079
0
LINE
8
BLACK
6
CONTINUOUS
10
4.60243
20
-4.22079
11
4.6023
21
-4.22081
0
LINE
8
BLACK
6
CONTINUOUS
10
4.6023
20
-4.22081
11
4.60219
21
-4.22075
0
LINE
8
BLACK
6
CONTINUOUS
10
4.60219
20
-4.22075
11
4.6018
21
-4.22068
0
LINE
8
BLACK
6
CONTINUOUS
10
4.6018
20
-4.22068
11
4.60121
21
-4.22019
0
LINE
8
BLACK
6
CONTINUOUS
10
4.60121
20
-4.22019
11
4.60055
21
-4.2198
0
LINE
8
BLACK
6
CONTINUOUS
10
4.60055
20
-4.2198
11
4.60046
21
-4.21955
0
LINE
8
BLACK
6
CONTINUOUS
10
4.60046
20
-4.21955
11
4.60025
21
-4.21938
0
LINE
8
BLACK
6
CONTINUOUS
10
4.60025
20
-4.21938
11
4.60012
21
-4.21863
0
LINE
8
BLACK
6
CONTINUOUS
10
4.60012
20
-4.21863
11
4.59986
21
-4.21791
0
LINE
8
BLACK
6
CONTINUOUS
10
4.59986
20
-4.21791
11
4.59986
21
-4.17854
0
LINE
8
BLACK
6
CONTINUOUS
10
4.59986
20
-4.17854
11
4.59993
21
-4.17815
0
LINE
8
BLACK
6
CONTINUOUS
10
4.59993
20
-4.17815
11
4.5999
21
-4.17802
0
LINE
8
BLACK
6
CONTINUOUS
10
4.5999
20
-4.17802
11
4.59997
21
-4.17791
0
LINE
8
BLACK
6
CONTINUOUS
10
4.59997
20
-4.17791
11
4.60004
21
-4.17753
0
LINE
8
BLACK
6
CONTINUOUS
10
4.60004
20
-4.17753
11
4.60053
21
-4.17694
0
LINE
8
BLACK
6
CONTINUOUS
10
4.60053
20
-4.17694
11
4.60091
21
-4.17627
0
LINE
8
BLACK
6
CONTINUOUS
10
4.60091
20
-4.17627
11
4.60116
21
-4.17618
0
LINE
8
BLACK
6
CONTINUOUS
10
4.60116
20
-4.17618
11
4.60134
21
-4.17598
0
LINE
8
BLACK
6
CONTINUOUS
10
4.60134
20
-4.17598
11
4.60209
21
-4.17585
0
LINE
8
BLACK
6
CONTINUOUS
10
4.60209
20
-4.17585
11
4.60281
21
-4.17558
0
LINE
8
BLACK
6
CONTINUOUS
10
4.60281
20
-4.17558
11
4.61594
21
-4.17558
0
LINE
8
BLACK
6
CONTINUOUS
10
4.61594
20
-4.17558
11
4.61695
21
-4.17576
0
LINE
8
BLACK
6
CONTINUOUS
10
4.60576
20
-4.21495
11
4.61711
21
-4.21495
0
LINE
8
BLACK
6
CONTINUOUS
10
4.61711
20
-4.21495
11
4.61981
21
-4.2136
0
LINE
8
BLACK
6
CONTINUOUS
10
4.61981
20
-4.2136
11
4.62101
21
-4.21241
0
LINE
8
BLACK
6
CONTINUOUS
10
4.62101
20
-4.21241
11
4.62236
21
-4.20971
0
LINE
8
BLACK
6
CONTINUOUS
10
4.62236
20
-4.20971
11
4.62236
21
-4.20548
0
LINE
8
BLACK
6
CONTINUOUS
10
4.62236
20
-4.20548
11
4.62101
21
-4.20278
0
LINE
8
BLACK
6
CONTINUOUS
10
4.62101
20
-4.20278
11
4.61996
21
-4.20174
0
LINE
8
BLACK
6
CONTINUOUS
10
4.61996
20
-4.20174
11
4.61546
21
-4.20024
0
LINE
8
BLACK
6
CONTINUOUS
10
4.61546
20
-4.20024
11
4.60576
21
-4.20024
0
LINE
8
BLACK
6
CONTINUOUS
10
4.60576
20
-4.20024
11
4.60576
21
-4.21495
0
LINE
8
BLACK
6
CONTINUOUS
10
4.60576
20
-4.19433
11
4.61524
21
-4.19433
0
LINE
8
BLACK
6
CONTINUOUS
10
4.61524
20
-4.19433
11
4.61794
21
-4.19298
0
LINE
8
BLACK
6
CONTINUOUS
10
4.61794
20
-4.19298
11
4.61913
21
-4.19179
0
LINE
8
BLACK
6
CONTINUOUS
10
4.61913
20
-4.19179
11
4.62048
21
-4.18909
0
LINE
8
BLACK
6
CONTINUOUS
10
4.62048
20
-4.18909
11
4.62048
21
-4.18673
0
LINE
8
BLACK
6
CONTINUOUS
10
4.62048
20
-4.18673
11
4.61913
21
-4.18403
0
LINE
8
BLACK
6
CONTINUOUS
10
4.61913
20
-4.18403
11
4.61794
21
-4.18284
0
LINE
8
BLACK
6
CONTINUOUS
10
4.61794
20
-4.18284
11
4.61524
21
-4.18149
0
LINE
8
BLACK
6
CONTINUOUS
10
4.61524
20
-4.18149
11
4.60576
21
-4.18149
0
LINE
8
BLACK
6
CONTINUOUS
10
4.60576
20
-4.18149
11
4.60576
21
-4.19433
0
LINE
8
BLACK
6
CONTINUOUS
10
4.67506
20
-4.18888
11
4.6752
21
-4.189
0
LINE
8
BLACK
6
CONTINUOUS
10
4.6752
20
-4.189
11
4.67537
21
-4.18902
0
LINE
8
BLACK
6
CONTINUOUS
10
4.67537
20
-4.18902
11
4.67912
21
-4.19089
0
LINE
8
BLACK
6
CONTINUOUS
10
4.67912
20
-4.19089
11
4.67995
21
-4.1915
0
LINE
8
BLACK
6
CONTINUOUS
10
4.67995
20
-4.1915
11
4.68075
21
-4.19336
0
LINE
8
BLACK
6
CONTINUOUS
10
4.68075
20
-4.19336
11
4.68017
21
-4.19529
0
LINE
8
BLACK
6
CONTINUOUS
10
4.68017
20
-4.19529
11
4.67849
21
-4.19641
0
LINE
8
BLACK
6
CONTINUOUS
10
4.67849
20
-4.19641
11
4.67648
21
-4.19618
0
LINE
8
BLACK
6
CONTINUOUS
10
4.67648
20
-4.19618
11
4.67336
21
-4.19461
0
LINE
8
BLACK
6
CONTINUOUS
10
4.67336
20
-4.19461
11
4.66725
21
-4.19461
0
LINE
8
BLACK
6
CONTINUOUS
10
4.66725
20
-4.19461
11
4.66455
21
-4.19596
0
LINE
8
BLACK
6
CONTINUOUS
10
4.66455
20
-4.19596
11
4.66336
21
-4.19716
0
LINE
8
BLACK
6
CONTINUOUS
10
4.66336
20
-4.19716
11
4.66201
21
-4.19986
0
LINE
8
BLACK
6
CONTINUOUS
10
4.66201
20
-4.19986
11
4.66201
21
-4.20971
0
LINE
8
BLACK
6
CONTINUOUS
10
4.66201
20
-4.20971
11
4.66336
21
-4.21241
0
LINE
8
BLACK
6
CONTINUOUS
10
4.66336
20
-4.21241
11
4.66455
21
-4.2136
0
LINE
8
BLACK
6
CONTINUOUS
10
4.66455
20
-4.2136
11
4.66725
21
-4.21495
0
LINE
8
BLACK
6
CONTINUOUS
10
4.66725
20
-4.21495
11
4.67336
21
-4.21495
0
LINE
8
BLACK
6
CONTINUOUS
10
4.67336
20
-4.21495
11
4.67648
21
-4.21339
0
LINE
8
BLACK
6
CONTINUOUS
10
4.67648
20
-4.21339
11
4.67747
21
-4.2131
0
LINE
8
BLACK
6
CONTINUOUS
10
4.67747
20
-4.2131
11
4.67943
21
-4.21357
0
LINE
8
BLACK
6
CONTINUOUS
10
4.67943
20
-4.21357
11
4.68063
21
-4.21519
0
LINE
8
BLACK
6
CONTINUOUS
10
4.68063
20
-4.21519
11
4.68051
21
-4.21721
0
LINE
8
BLACK
6
CONTINUOUS
10
4.68051
20
-4.21721
11
4.67912
21
-4.21867
0
LINE
8
BLACK
6
CONTINUOUS
10
4.67912
20
-4.21867
11
4.67537
21
-4.22055
0
LINE
8
BLACK
6
CONTINUOUS
10
4.67537
20
-4.22055
11
4.67439
21
-4.22084
0
LINE
8
BLACK
6
CONTINUOUS
10
4.67439
20
-4.22084
11
4.67422
21
-4.2208
0
LINE
8
BLACK
6
CONTINUOUS
10
4.67422
20
-4.2208
11
4.67405
21
-4.22086
0
LINE
8
BLACK
6
CONTINUOUS
10
4.67405
20
-4.22086
11
4.66655
21
-4.22086
0
LINE
8
BLACK
6
CONTINUOUS
10
4.66655
20
-4.22086
11
4.66554
21
-4.22068
0
LINE
8
BLACK
6
CONTINUOUS
10
4.66554
20
-4.22068
11
4.66541
21
-4.22057
0
LINE
8
BLACK
6
CONTINUOUS
10
4.66541
20
-4.22057
11
4.66523
21
-4.22055
0
LINE
8
BLACK
6
CONTINUOUS
10
4.66523
20
-4.22055
11
4.66148
21
-4.21867
0
LINE
8
BLACK
6
CONTINUOUS
10
4.66148
20
-4.21867
11
4.66078
21
-4.21815
0
LINE
8
BLACK
6
CONTINUOUS
10
4.66078
20
-4.21815
11
4.66072
21
-4.21812
0
LINE
8
BLACK
6
CONTINUOUS
10
4.66072
20
-4.21812
11
4.65884
21
-4.21624
0
LINE
8
BLACK
6
CONTINUOUS
10
4.65884
20
-4.21624
11
4.65834
21
-4.21552
0
LINE
8
BLACK
6
CONTINUOUS
10
4.65834
20
-4.21552
11
4.65829
21
-4.21548
0
LINE
8
BLACK
6
CONTINUOUS
10
4.65829
20
-4.21548
11
4.65641
21
-4.21173
0
LINE
8
BLACK
6
CONTINUOUS
10
4.65641
20
-4.21173
11
4.65612
21
-4.21074
0
LINE
8
BLACK
6
CONTINUOUS
10
4.65612
20
-4.21074
11
4.65616
21
-4.21057
0
LINE
8
BLACK
6
CONTINUOUS
10
4.65616
20
-4.21057
11
4.6561
21
-4.21041
0
LINE
8
BLACK
6
CONTINUOUS
10
4.6561
20
-4.21041
11
4.6561
21
-4.19916
0
LINE
8
BLACK
6
CONTINUOUS
10
4.6561
20
-4.19916
11
4.65628
21
-4.19815
0
LINE
8
BLACK
6
CONTINUOUS
10
4.65628
20
-4.19815
11
4.65639
21
-4.19801
0
LINE
8
BLACK
6
CONTINUOUS
10
4.65639
20
-4.19801
11
4.65641
21
-4.19784
0
LINE
8
BLACK
6
CONTINUOUS
10
4.65641
20
-4.19784
11
4.65829
21
-4.19409
0
LINE
8
BLACK
6
CONTINUOUS
10
4.65829
20
-4.19409
11
4.65881
21
-4.19338
0
LINE
8
BLACK
6
CONTINUOUS
10
4.65881
20
-4.19338
11
4.65884
21
-4.19332
0
LINE
8
BLACK
6
CONTINUOUS
10
4.65884
20
-4.19332
11
4.66072
21
-4.19145
0
LINE
8
BLACK
6
CONTINUOUS
10
4.66072
20
-4.19145
11
4.66144
21
-4.19094
0
LINE
8
BLACK
6
CONTINUOUS
10
4.66144
20
-4.19094
11
4.66148
21
-4.19089
0
LINE
8
BLACK
6
CONTINUOUS
10
4.66148
20
-4.19089
11
4.66523
21
-4.18902
0
LINE
8
BLACK
6
CONTINUOUS
10
4.66523
20
-4.18902
11
4.66622
21
-4.18873
0
LINE
8
BLACK
6
CONTINUOUS
10
4.66622
20
-4.18873
11
4.66639
21
-4.18877
0
LINE
8
BLACK
6
CONTINUOUS
10
4.66639
20
-4.18877
11
4.66655
21
-4.18871
0
LINE
8
BLACK
6
CONTINUOUS
10
4.66655
20
-4.18871
11
4.67405
21
-4.18871
0
LINE
8
BLACK
6
CONTINUOUS
10
4.67405
20
-4.18871
11
4.67506
21
-4.18888
0
LINE
8
BLACK
6
CONTINUOUS
10
4.71185
20
-4.18876
11
4.71197
21
-4.18874
0
LINE
8
BLACK
6
CONTINUOUS
10
4.71197
20
-4.18874
11
4.71209
21
-4.1888
0
LINE
8
BLACK
6
CONTINUOUS
10
4.71209
20
-4.1888
11
4.71256
21
-4.18888
0
LINE
8
BLACK
6
CONTINUOUS
10
4.71256
20
-4.18888
11
4.71311
21
-4.18935
0
LINE
8
BLACK
6
CONTINUOUS
10
4.71311
20
-4.18935
11
4.71375
21
-4.18969
0
LINE
8
BLACK
6
CONTINUOUS
10
4.71375
20
-4.18969
11
4.71387
21
-4.18998
0
LINE
8
BLACK
6
CONTINUOUS
10
4.71387
20
-4.18998
11
4.71411
21
-4.19018
0
LINE
8
BLACK
6
CONTINUOUS
10
4.71411
20
-4.19018
11
4.71423
21
-4.19089
0
LINE
8
BLACK
6
CONTINUOUS
10
4.71423
20
-4.19089
11
4.7145
21
-4.19156
0
LINE
8
BLACK
6
CONTINUOUS
10
4.7145
20
-4.19156
11
4.7144
21
-4.19186
0
LINE
8
BLACK
6
CONTINUOUS
10
4.7144
20
-4.19186
11
4.71446
21
-4.19217
0
LINE
8
BLACK
6
CONTINUOUS
10
4.71446
20
-4.19217
11
4.7141
21
-4.1928
0
LINE
8
BLACK
6
CONTINUOUS
10
4.7141
20
-4.1928
11
4.71387
21
-4.19348
0
LINE
8
BLACK
6
CONTINUOUS
10
4.71387
20
-4.19348
11
4.697
21
-4.21495
0
LINE
8
BLACK
6
CONTINUOUS
10
4.697
20
-4.21495
11
4.71155
21
-4.21495
0
LINE
8
BLACK
6
CONTINUOUS
10
4.71155
20
-4.21495
11
4.71256
21
-4.21513
0
LINE
8
BLACK
6
CONTINUOUS
10
4.71256
20
-4.21513
11
4.71411
21
-4.21643
0
LINE
8
BLACK
6
CONTINUOUS
10
4.71411
20
-4.21643
11
4.71446
21
-4.21842
0
LINE
8
BLACK
6
CONTINUOUS
10
4.71446
20
-4.21842
11
4.71345
21
-4.22017
0
LINE
8
BLACK
6
CONTINUOUS
10
4.71345
20
-4.22017
11
4.71155
21
-4.22086
0
LINE
8
BLACK
6
CONTINUOUS
10
4.71155
20
-4.22086
11
4.69093
21
-4.22086
0
LINE
8
BLACK
6
CONTINUOUS
10
4.69093
20
-4.22086
11
4.69062
21
-4.22081
0
LINE
8
BLACK
6
CONTINUOUS
10
4.69062
20
-4.22081
11
4.69051
21
-4.22083
0
LINE
8
BLACK
6
CONTINUOUS
10
4.69051
20
-4.22083
11
4.69038
21
-4.22076
0
LINE
8
BLACK
6
CONTINUOUS
10
4.69038
20
-4.22076
11
4.68992
21
-4.22068
0
LINE
8
BLACK
6
CONTINUOUS
10
4.68992
20
-4.22068
11
4.68936
21
-4.22022
0
LINE
8
BLACK
6
CONTINUOUS
10
4.68936
20
-4.22022
11
4.68873
21
-4.21988
0
LINE
8
BLACK
6
CONTINUOUS
10
4.68873
20
-4.21988
11
4.68861
21
-4.21958
0
LINE
8
BLACK
6
CONTINUOUS
10
4.68861
20
-4.21958
11
4.68837
21
-4.21938
0
LINE
8
BLACK
6
CONTINUOUS
10
4.68837
20
-4.21938
11
4.68824
21
-4.21867
0
LINE
8
BLACK
6
CONTINUOUS
10
4.68824
20
-4.21867
11
4.68797
21
-4.218
0
LINE
8
BLACK
6
CONTINUOUS
10
4.68797
20
-4.218
11
4.68807
21
-4.2177
0
LINE
8
BLACK
6
CONTINUOUS
10
4.68807
20
-4.2177
11
4.68802
21
-4.21739
0
LINE
8
BLACK
6
CONTINUOUS
10
4.68802
20
-4.21739
11
4.68838
21
-4.21677
0
LINE
8
BLACK
6
CONTINUOUS
10
4.68838
20
-4.21677
11
4.6886
21
-4.21608
0
LINE
8
BLACK
6
CONTINUOUS
10
4.6886
20
-4.21608
11
4.70547
21
-4.19461
0
LINE
8
BLACK
6
CONTINUOUS
10
4.70547
20
-4.19461
11
4.69093
21
-4.19461
0
LINE
8
BLACK
6
CONTINUOUS
10
4.69093
20
-4.19461
11
4.68992
21
-4.19443
0
LINE
8
BLACK
6
CONTINUOUS
10
4.68992
20
-4.19443
11
4.68837
21
-4.19314
0
LINE
8
BLACK
6
CONTINUOUS
10
4.68837
20
-4.19314
11
4.68802
21
-4.19115
0
LINE
8
BLACK
6
CONTINUOUS
10
4.68802
20
-4.19115
11
4.68903
21
-4.1894
0
LINE
8
BLACK
6
CONTINUOUS
10
4.68903
20
-4.1894
11
4.69093
21
-4.18871
0
LINE
8
BLACK
6
CONTINUOUS
10
4.69093
20
-4.18871
11
4.71155
21
-4.18871
0
LINE
8
BLACK
6
CONTINUOUS
10
4.71155
20
-4.18871
11
4.71185
21
-4.18876
0
LINE
8
BLACK
6
CONTINUOUS
10
4.64256
20
-4.21127
11
4.64269
21
-4.21125
0
LINE
8
BLACK
6
CONTINUOUS
10
4.64269
20
-4.21125
11
4.64281
21
-4.21132
0
LINE
8
BLACK
6
CONTINUOUS
10
4.64281
20
-4.21132
11
4.64295
21
-4.2113
0
LINE
8
BLACK
6
CONTINUOUS
10
4.64295
20
-4.2113
11
4.64358
21
-4.21174
0
LINE
8
BLACK
6
CONTINUOUS
10
4.64358
20
-4.21174
11
4.64427
21
-4.21207
0
LINE
8
BLACK
6
CONTINUOUS
10
4.64427
20
-4.21207
11
4.64614
21
-4.21394
0
LINE
8
BLACK
6
CONTINUOUS
10
4.64614
20
-4.21394
11
4.64637
21
-4.21426
0
LINE
8
BLACK
6
CONTINUOUS
10
4.64637
20
-4.21426
11
4.64648
21
-4.21434
0
LINE
8
BLACK
6
CONTINUOUS
10
4.64648
20
-4.21434
11
4.64651
21
-4.21446
0
LINE
8
BLACK
6
CONTINUOUS
10
4.64651
20
-4.21446
11
4.64673
21
-4.21478
0
LINE
8
BLACK
6
CONTINUOUS
10
4.64673
20
-4.21478
11
4.6468
21
-4.21555
0
LINE
8
BLACK
6
CONTINUOUS
10
4.6468
20
-4.21555
11
4.647
21
-4.21629
0
LINE
8
BLACK
6
CONTINUOUS
10
4.647
20
-4.21629
11
4.64689
21
-4.21653
0
LINE
8
BLACK
6
CONTINUOUS
10
4.64689
20
-4.21653
11
4.64691
21
-4.2168
0
LINE
8
BLACK
6
CONTINUOUS
10
4.64691
20
-4.2168
11
4.64647
21
-4.21742
0
LINE
8
BLACK
6
CONTINUOUS
10
4.64647
20
-4.21742
11
4.64614
21
-4.21812
0
LINE
8
BLACK
6
CONTINUOUS
10
4.64614
20
-4.21812
11
4.64427
21
-4.21999
0
LINE
8
BLACK
6
CONTINUOUS
10
4.64427
20
-4.21999
11
4.64395
21
-4.22022
0
LINE
8
BLACK
6
CONTINUOUS
10
4.64395
20
-4.22022
11
4.64388
21
-4.22033
0
LINE
8
BLACK
6
CONTINUOUS
10
4.64388
20
-4.22033
11
4.64375
21
-4.22036
0
LINE
8
BLACK
6
CONTINUOUS
10
4.64375
20
-4.22036
11
4.64374
21
-4.22036
0
LINE
8
BLACK
6
CONTINUOUS
10
4.64374
20
-4.22036
11
4.64366
21
-4.22046
0
LINE
8
BLACK
6
CONTINUOUS
10
4.64366
20
-4.22046
11
4.64358
21
-4.22048
0
LINE
8
BLACK
6
CONTINUOUS
10
4.64358
20
-4.22048
11
4.64343
21
-4.22058
0
LINE
8
BLACK
6
CONTINUOUS
10
4.64343
20
-4.22058
11
4.64267
21
-4.22065
0
LINE
8
BLACK
6
CONTINUOUS
10
4.64267
20
-4.22065
11
4.64192
21
-4.22085
0
LINE
8
BLACK
6
CONTINUOUS
10
4.64192
20
-4.22085
11
4.6418
21
-4.22079
0
LINE
8
BLACK
6
CONTINUOUS
10
4.6418
20
-4.22079
11
4.64167
21
-4.22081
0
LINE
8
BLACK
6
CONTINUOUS
10
4.64167
20
-4.22081
11
4.64155
21
-4.22075
0
LINE
8
BLACK
6
CONTINUOUS
10
4.64155
20
-4.22075
11
4.64142
21
-4.22076
0
LINE
8
BLACK
6
CONTINUOUS
10
4.64142
20
-4.22076
11
4.64079
21
-4.22032
0
LINE
8
BLACK
6
CONTINUOUS
10
4.64079
20
-4.22032
11
4.64009
21
-4.21999
0
LINE
8
BLACK
6
CONTINUOUS
10
4.64009
20
-4.21999
11
4.63822
21
-4.21812
0
LINE
8
BLACK
6
CONTINUOUS
10
4.63822
20
-4.21812
11
4.638
21
-4.2178
0
LINE
8
BLACK
6
CONTINUOUS
10
4.638
20
-4.2178
11
4.63789
21
-4.21773
0
LINE
8
BLACK
6
CONTINUOUS
10
4.63789
20
-4.21773
11
4.63785
21
-4.2176
0
LINE
8
BLACK
6
CONTINUOUS
10
4.63785
20
-4.2176
11
4.63763
21
-4.21728
0
LINE
8
BLACK
6
CONTINUOUS
10
4.63763
20
-4.21728
11
4.63756
21
-4.21652
0
LINE
8
BLACK
6
CONTINUOUS
10
4.63756
20
-4.21652
11
4.63737
21
-4.21577
0
LINE
8
BLACK
6
CONTINUOUS
10
4.63737
20
-4.21577
11
4.63748
21
-4.21553
0
LINE
8
BLACK
6
CONTINUOUS
10
4.63748
20
-4.21553
11
4.63746
21
-4.21527
0
LINE
8
BLACK
6
CONTINUOUS
10
4.63746
20
-4.21527
11
4.6379
21
-4.21464
0
LINE
8
BLACK
6
CONTINUOUS
10
4.6379
20
-4.21464
11
4.63822
21
-4.21394
0
LINE
8
BLACK
6
CONTINUOUS
10
4.63822
20
-4.21394
11
4.64009
21
-4.21207
0
LINE
8
BLACK
6
CONTINUOUS
10
4.64009
20
-4.21207
11
4.64041
21
-4.21185
0
LINE
8
BLACK
6
CONTINUOUS
10
4.64041
20
-4.21185
11
4.64049
21
-4.21174
0
LINE
8
BLACK
6
CONTINUOUS
10
4.64049
20
-4.21174
11
4.64062
21
-4.2117
0
LINE
8
BLACK
6
CONTINUOUS
10
4.64062
20
-4.2117
11
4.64062
21
-4.2117
0
LINE
8
BLACK
6
CONTINUOUS
10
4.64062
20
-4.2117
11
4.64071
21
-4.2116
0
LINE
8
BLACK
6
CONTINUOUS
10
4.64071
20
-4.2116
11
4.64078
21
-4.21159
0
LINE
8
BLACK
6
CONTINUOUS
10
4.64078
20
-4.21159
11
4.64093
21
-4.21148
0
LINE
8
BLACK
6
CONTINUOUS
10
4.64093
20
-4.21148
11
4.6417
21
-4.21141
0
LINE
8
BLACK
6
CONTINUOUS
10
4.6417
20
-4.21141
11
4.64244
21
-4.21122
0
LINE
8
BLACK
6
CONTINUOUS
10
4.64244
20
-4.21122
11
4.64256
21
-4.21127
0
LINE
8
BLACK
6
CONTINUOUS
10
4.57705
20
-4.1758
11
4.57797
21
-4.17594
0
LINE
8
BLACK
6
CONTINUOUS
10
4.57797
20
-4.17594
11
4.57803
21
-4.176
0
LINE
8
BLACK
6
CONTINUOUS
10
4.57803
20
-4.176
11
4.57811
21
-4.17602
0
LINE
8
BLACK
6
CONTINUOUS
10
4.57811
20
-4.17602
11
4.57869
21
-4.17675
0
LINE
8
BLACK
6
CONTINUOUS
10
4.57869
20
-4.17675
11
4.57931
21
-4.17745
0
LINE
8
BLACK
6
CONTINUOUS
10
4.57931
20
-4.17745
11
4.57931
21
-4.17754
0
LINE
8
BLACK
6
CONTINUOUS
10
4.57931
20
-4.17754
11
4.57937
21
-4.1776
0
LINE
8
BLACK
6
CONTINUOUS
10
4.57937
20
-4.1776
11
4.59249
21
-4.21697
0
LINE
8
BLACK
6
CONTINUOUS
10
4.59249
20
-4.21697
11
4.59264
21
-4.21799
0
LINE
8
BLACK
6
CONTINUOUS
10
4.59264
20
-4.21799
11
4.5919
21
-4.21987
0
LINE
8
BLACK
6
CONTINUOUS
10
4.5919
20
-4.21987
11
4.59012
21
-4.22083
0
LINE
8
BLACK
6
CONTINUOUS
10
4.59012
20
-4.22083
11
4.58814
21
-4.22042
0
LINE
8
BLACK
6
CONTINUOUS
10
4.58814
20
-4.22042
11
4.58689
21
-4.21884
0
LINE
8
BLACK
6
CONTINUOUS
10
4.58689
20
-4.21884
11
4.58381
21
-4.20961
0
LINE
8
BLACK
6
CONTINUOUS
10
4.58381
20
-4.20961
11
4.56932
21
-4.20961
0
LINE
8
BLACK
6
CONTINUOUS
10
4.56932
20
-4.20961
11
4.56624
21
-4.21884
0
LINE
8
BLACK
6
CONTINUOUS
10
4.56624
20
-4.21884
11
4.56576
21
-4.21974
0
LINE
8
BLACK
6
CONTINUOUS
10
4.56576
20
-4.21974
11
4.56403
21
-4.2208
0
LINE
8
BLACK
6
CONTINUOUS
10
4.56403
20
-4.2208
11
4.56204
21
-4.2205
0
LINE
8
BLACK
6
CONTINUOUS
10
4.56204
20
-4.2205
11
4.5607
21
-4.21899
0
LINE
8
BLACK
6
CONTINUOUS
10
4.5607
20
-4.21899
11
4.56064
21
-4.21697
0
LINE
8
BLACK
6
CONTINUOUS
10
4.56064
20
-4.21697
11
4.57376
21
-4.1776
0
LINE
8
BLACK
6
CONTINUOUS
10
4.57376
20
-4.1776
11
4.57425
21
-4.1767
0
LINE
8
BLACK
6
CONTINUOUS
10
4.57425
20
-4.1767
11
4.57432
21
-4.17666
0
LINE
8
BLACK
6
CONTINUOUS
10
4.57432
20
-4.17666
11
4.57436
21
-4.17658
0
LINE
8
BLACK
6
CONTINUOUS
10
4.57436
20
-4.17658
11
4.57518
21
-4.17613
0
LINE
8
BLACK
6
CONTINUOUS
10
4.57518
20
-4.17613
11
4.57597
21
-4.17564
0
LINE
8
BLACK
6
CONTINUOUS
10
4.57597
20
-4.17564
11
4.57606
21
-4.17566
0
LINE
8
BLACK
6
CONTINUOUS
10
4.57606
20
-4.17566
11
4.57613
21
-4.17562
0
LINE
8
BLACK
6
CONTINUOUS
10
4.57613
20
-4.17562
11
4.57705
21
-4.1758
0
LINE
8
BLACK
6
CONTINUOUS
10
4.57129
20
-4.2037
11
4.58184
21
-4.2037
0
LINE
8
BLACK
6
CONTINUOUS
10
4.58184
20
-4.2037
11
4.57657
21
-4.18787
0
LINE
8
BLACK
6
CONTINUOUS
10
4.57657
20
-4.18787
11
4.57129
21
-4.2037
0
LINE
8
BLACK
6
CONTINUOUS
10
4.51857
20
-4.1757
11
4.51896
21
-4.17563
0
LINE
8
BLACK
6
CONTINUOUS
10
4.51896
20
-4.17563
11
4.51952
21
-4.17595
0
LINE
8
BLACK
6
CONTINUOUS
10
4.51952
20
-4.17595
11
4.52014
21
-4.17612
0
LINE
8
BLACK
6
CONTINUOUS
10
4.52014
20
-4.17612
11
4.52037
21
-4.17644
0
LINE
8
BLACK
6
CONTINUOUS
10
4.52037
20
-4.17644
11
4.52071
21
-4.17664
0
LINE
8
BLACK
6
CONTINUOUS
10
4.52071
20
-4.17664
11
4.52093
21
-4.17724
0
LINE
8
BLACK
6
CONTINUOUS
10
4.52093
20
-4.17724
11
4.5213
21
-4.17777
0
LINE
8
BLACK
6
CONTINUOUS
10
4.5213
20
-4.17777
11
4.52127
21
-4.17817
0
LINE
8
BLACK
6
CONTINUOUS
10
4.52127
20
-4.17817
11
4.5214
21
-4.17854
0
LINE
8
BLACK
6
CONTINUOUS
10
4.5214
20
-4.17854
11
4.5214
21
-4.21791
0
LINE
8
BLACK
6
CONTINUOUS
10
4.5214
20
-4.21791
11
4.52122
21
-4.21892
0
LINE
8
BLACK
6
CONTINUOUS
10
4.52122
20
-4.21892
11
4.51992
21
-4.22046
0
LINE
8
BLACK
6
CONTINUOUS
10
4.51992
20
-4.22046
11
4.51793
21
-4.22081
0
LINE
8
BLACK
6
CONTINUOUS
10
4.51793
20
-4.22081
11
4.51619
21
-4.2198
0
LINE
8
BLACK
6
CONTINUOUS
10
4.51619
20
-4.2198
11
4.51549
21
-4.21791
0
LINE
8
BLACK
6
CONTINUOUS
10
4.51549
20
-4.21791
11
4.51549
21
-4.19185
0
LINE
8
BLACK
6
CONTINUOUS
10
4.51549
20
-4.19185
11
4.508
21
-4.20791
0
LINE
8
BLACK
6
CONTINUOUS
10
4.508
20
-4.20791
11
4.50778
21
-4.20822
0
LINE
8
BLACK
6
CONTINUOUS
10
4.50778
20
-4.20822
11
4.50774
21
-4.20835
0
LINE
8
BLACK
6
CONTINUOUS
10
4.50774
20
-4.20835
11
4.50764
21
-4.20843
0
LINE
8
BLACK
6
CONTINUOUS
10
4.50764
20
-4.20843
11
4.50741
21
-4.20875
0
LINE
8
BLACK
6
CONTINUOUS
10
4.50741
20
-4.20875
11
4.50672
21
-4.20907
0
LINE
8
BLACK
6
CONTINUOUS
10
4.50672
20
-4.20907
11
4.50609
21
-4.20951
0
LINE
8
BLACK
6
CONTINUOUS
10
4.50609
20
-4.20951
11
4.50582
21
-4.20949
0
LINE
8
BLACK
6
CONTINUOUS
10
4.50582
20
-4.20949
11
4.50558
21
-4.2096
0
LINE
8
BLACK
6
CONTINUOUS
10
4.50558
20
-4.2096
11
4.50484
21
-4.2094
0
LINE
8
BLACK
6
CONTINUOUS
10
4.50484
20
-4.2094
11
4.50408
21
-4.20933
0
LINE
8
BLACK
6
CONTINUOUS
10
4.50408
20
-4.20933
11
4.50389
21
-4.20915
0
LINE
8
BLACK
6
CONTINUOUS
10
4.50389
20
-4.20915
11
4.50363
21
-4.20908
0
LINE
8
BLACK
6
CONTINUOUS
10
4.50363
20
-4.20908
11
4.50319
21
-4.20845
0
LINE
8
BLACK
6
CONTINUOUS
10
4.50319
20
-4.20845
11
4.50265
21
-4.20791
0
LINE
8
BLACK
6
CONTINUOUS
10
4.50265
20
-4.20791
11
4.49515
21
-4.19185
0
LINE
8
BLACK
6
CONTINUOUS
10
4.49515
20
-4.19185
11
4.49515
21
-4.21791
0
LINE
8
BLACK
6
CONTINUOUS
10
4.49515
20
-4.21791
11
4.49498
21
-4.21892
0
LINE
8
BLACK
6
CONTINUOUS
10
4.49498
20
-4.21892
11
4.49368
21
-4.22046
0
LINE
8
BLACK
6
CONTINUOUS
10
4.49368
20
-4.22046
11
4.49169
21
-4.22081
0
LINE
8
BLACK
6
CONTINUOUS
10
4.49169
20
-4.22081
11
4.48994
21
-4.2198
0
LINE
8
BLACK
6
CONTINUOUS
10
4.48994
20
-4.2198
11
4.48925
21
-4.21791
0
LINE
8
BLACK
6
CONTINUOUS
10
4.48925
20
-4.21791
11
4.48925
21
-4.17854
0
LINE
8
BLACK
6
CONTINUOUS
10
4.48925
20
-4.17854
11
4.48943
21
-4.17753
0
LINE
8
BLACK
6
CONTINUOUS
10
4.48943
20
-4.17753
11
4.48968
21
-4.17722
0
LINE
8
BLACK
6
CONTINUOUS
10
4.48968
20
-4.17722
11
4.48978
21
-4.17684
0
LINE
8
BLACK
6
CONTINUOUS
10
4.48978
20
-4.17684
11
4.49031
21
-4.17647
0
LINE
8
BLACK
6
CONTINUOUS
10
4.49031
20
-4.17647
11
4.49072
21
-4.17598
0
LINE
8
BLACK
6
CONTINUOUS
10
4.49072
20
-4.17598
11
4.49111
21
-4.17591
0
LINE
8
BLACK
6
CONTINUOUS
10
4.49111
20
-4.17591
11
4.49144
21
-4.17568
0
LINE
8
BLACK
6
CONTINUOUS
10
4.49144
20
-4.17568
11
4.49208
21
-4.17574
0
LINE
8
BLACK
6
CONTINUOUS
10
4.49208
20
-4.17574
11
4.49271
21
-4.17563
0
LINE
8
BLACK
6
CONTINUOUS
10
4.49271
20
-4.17563
11
4.49306
21
-4.17583
0
LINE
8
BLACK
6
CONTINUOUS
10
4.49306
20
-4.17583
11
4.49345
21
-4.17586
0
LINE
8
BLACK
6
CONTINUOUS
10
4.49345
20
-4.17586
11
4.4939
21
-4.17632
0
LINE
8
BLACK
6
CONTINUOUS
10
4.4939
20
-4.17632
11
4.49446
21
-4.17664
0
LINE
8
BLACK
6
CONTINUOUS
10
4.49446
20
-4.17664
11
4.4946
21
-4.17701
0
LINE
8
BLACK
6
CONTINUOUS
10
4.4946
20
-4.17701
11
4.49488
21
-4.17729
0
LINE
8
BLACK
6
CONTINUOUS
10
4.49488
20
-4.17729
11
4.50532
21
-4.19968
0
LINE
8
BLACK
6
CONTINUOUS
10
4.50532
20
-4.19968
11
4.51577
21
-4.17729
0
LINE
8
BLACK
6
CONTINUOUS
10
4.51577
20
-4.17729
11
4.51636
21
-4.17645
0
LINE
8
BLACK
6
CONTINUOUS
10
4.51636
20
-4.17645
11
4.51672
21
-4.17628
0
LINE
8
BLACK
6
CONTINUOUS
10
4.51672
20
-4.17628
11
4.51697
21
-4.17598
0
LINE
8
BLACK
6
CONTINUOUS
10
4.51697
20
-4.17598
11
4.51761
21
-4.17587
0
LINE
8
BLACK
6
CONTINUOUS
10
4.51761
20
-4.17587
11
4.51819
21
-4.17559
0
LINE
8
BLACK
6
CONTINUOUS
10
4.51819
20
-4.17559
11
4.51857
21
-4.1757
0
LINE
8
BLACK
6
CONTINUOUS
10
4.85825
20
-3.83079
11
4.86008
21
-3.8329
0
LINE
8
BLACK
6
CONTINUOUS
10
4.86008
20
-3.8329
11
4.86048
21
-3.83567
0
LINE
8
BLACK
6
CONTINUOUS
10
4.86048
20
-3.83567
11
4.85932
21
-3.83821
0
LINE
8
BLACK
6
CONTINUOUS
10
4.85932
20
-3.83821
11
4.85908
21
-3.83847
0
LINE
8
BLACK
6
CONTINUOUS
10
4.85908
20
-3.83847
11
4.83902
21
-3.85853
0
LINE
8
BLACK
6
CONTINUOUS
10
4.83902
20
-3.85853
11
4.83657
21
-3.85987
0
LINE
8
BLACK
6
CONTINUOUS
10
4.83657
20
-3.85987
11
4.83551
21
-3.85998
0
LINE
8
BLACK
6
CONTINUOUS
10
4.83551
20
-3.85998
11
4.79808
21
-3.85998
0
LINE
8
BLACK
6
CONTINUOUS
10
4.79808
20
-3.85998
11
4.7957
21
-3.86024
0
LINE
8
BLACK
6
CONTINUOUS
10
4.7957
20
-3.86024
11
4.7957
21
-3.86024
0
LINE
8
BLACK
6
CONTINUOUS
10
4.7957
20
-3.86024
11
4.79031
21
-3.86225
0
LINE
8
BLACK
6
CONTINUOUS
10
4.79031
20
-3.86225
11
4.79031
21
-3.86225
0
LINE
8
BLACK
6
CONTINUOUS
10
4.79031
20
-3.86225
11
4.7857
21
-3.8657
0
LINE
8
BLACK
6
CONTINUOUS
10
4.7857
20
-3.8657
11
4.78225
21
-3.87031
0
LINE
8
BLACK
6
CONTINUOUS
10
4.78225
20
-3.87031
11
4.78225
21
-3.87031
0
LINE
8
BLACK
6
CONTINUOUS
10
4.78225
20
-3.87031
11
4.78024
21
-3.8757
0
LINE
8
BLACK
6
CONTINUOUS
10
4.78024
20
-3.8757
11
4.78024
21
-3.8757
0
LINE
8
BLACK
6
CONTINUOUS
10
4.78024
20
-3.8757
11
4.77998
21
-3.87808
0
LINE
8
BLACK
6
CONTINUOUS
10
4.77998
20
-3.87808
11
4.77998
21
-3.94192
0
LINE
8
BLACK
6
CONTINUOUS
10
4.77998
20
-3.94192
11
4.78024
21
-3.9443
0
LINE
8
BLACK
6
CONTINUOUS
10
4.78024
20
-3.9443
11
4.78024
21
-3.9443
0
LINE
8
BLACK
6
CONTINUOUS
10
4.78024
20
-3.9443
11
4.78225
21
-3.94969
0
LINE
8
BLACK
6
CONTINUOUS
10
4.78225
20
-3.94969
11
4.78225
21
-3.94969
0
LINE
8
BLACK
6
CONTINUOUS
10
4.78225
20
-3.94969
11
4.7857
21
-3.9543
0
LINE
8
BLACK
6
CONTINUOUS
10
4.7857
20
-3.9543
11
4.78801
21
-3.95603
0
LINE
8
BLACK
6
CONTINUOUS
10
4.78801
20
-3.95603
11
4.78968
21
-3.95827
0
LINE
8
BLACK
6
CONTINUOUS
10
4.78968
20
-3.95827
11
4.78988
21
-3.96105
0
LINE
8
BLACK
6
CONTINUOUS
10
4.78988
20
-3.96105
11
4.78854
21
-3.96351
0
LINE
8
BLACK
6
CONTINUOUS
10
4.78854
20
-3.96351
11
4.78801
21
-3.96397
0
LINE
8
BLACK
6
CONTINUOUS
10
4.78801
20
-3.96397
11
4.7857
21
-3.9657
0
LINE
8
BLACK
6
CONTINUOUS
10
4.7857
20
-3.9657
11
4.78225
21
-3.97031
0
LINE
8
BLACK
6
CONTINUOUS
10
4.78225
20
-3.97031
11
4.78225
21
-3.97031
0
LINE
8
BLACK
6
CONTINUOUS
10
4.78225
20
-3.97031
11
4.78024
21
-3.9757
0
LINE
8
BLACK
6
CONTINUOUS
10
4.78024
20
-3.9757
11
4.78024
21
-3.9757
0
LINE
8
BLACK
6
CONTINUOUS
10
4.78024
20
-3.9757
11
4.77998
21
-3.97808
0
LINE
8
BLACK
6
CONTINUOUS
10
4.77998
20
-3.97808
11
4.77998
21
-4.04192
0
LINE
8
BLACK
6
CONTINUOUS
10
4.77998
20
-4.04192
11
4.78024
21
-4.0443
0
LINE
8
BLACK
6
CONTINUOUS
10
4.78024
20
-4.0443
11
4.78024
21
-4.0443
0
LINE
8
BLACK
6
CONTINUOUS
10
4.78024
20
-4.0443
11
4.78225
21
-4.04969
0
LINE
8
BLACK
6
CONTINUOUS
10
4.78225
20
-4.04969
11
4.78225
21
-4.04969
0
LINE
8
BLACK
6
CONTINUOUS
10
4.78225
20
-4.04969
11
4.7857
21
-4.0543
0
LINE
8
BLACK
6
CONTINUOUS
10
4.7857
20
-4.0543
11
4.79031
21
-4.05775
0
LINE
8
BLACK
6
CONTINUOUS
10
4.79031
20
-4.05775
11
4.79031
21
-4.05775
0
LINE
8
BLACK
6
CONTINUOUS
10
4.79031
20
-4.05775
11
4.79031
21
-4.05775
0
LINE
8
BLACK
6
CONTINUOUS
10
4.79031
20
-4.05775
11
4.79196
21
-4.05837
0
LINE
8
BLACK
6
CONTINUOUS
10
4.79196
20
-4.05837
11
4.7957
21
-4.05976
0
LINE
8
BLACK
6
CONTINUOUS
10
4.7957
20
-4.05976
11
4.7957
21
-4.05976
0
LINE
8
BLACK
6
CONTINUOUS
10
4.7957
20
-4.05976
11
4.79808
21
-4.06002
0
LINE
8
BLACK
6
CONTINUOUS
10
4.79808
20
-4.06002
11
4.79808
21
-4.06002
0
LINE
8
BLACK
6
CONTINUOUS
10
4.79808
20
-4.06002
11
4.79809
21
-4.06002
0
LINE
8
BLACK
6
CONTINUOUS
10
4.79809
20
-4.06002
11
4.79809
21
-4.06002
0
LINE
8
BLACK
6
CONTINUOUS
10
4.79809
20
-4.06002
11
4.86191
21
-4.06002
0
LINE
8
BLACK
6
CONTINUOUS
10
4.86191
20
-4.06002
11
4.86191
21
-4.06002
0
LINE
8
BLACK
6
CONTINUOUS
10
4.86191
20
-4.06002
11
4.86192
21
-4.06002
0
LINE
8
BLACK
6
CONTINUOUS
10
4.86192
20
-4.06002
11
4.86192
21
-4.06002
0
LINE
8
BLACK
6
CONTINUOUS
10
4.86192
20
-4.06002
11
4.8643
21
-4.05976
0
LINE
8
BLACK
6
CONTINUOUS
10
4.8643
20
-4.05976
11
4.8643
21
-4.05976
0
LINE
8
BLACK
6
CONTINUOUS
10
4.8643
20
-4.05976
11
4.8643
21
-4.05976
0
LINE
8
BLACK
6
CONTINUOUS
10
4.8643
20
-4.05976
11
4.86969
21
-4.05775
0
LINE
8
BLACK
6
CONTINUOUS
10
4.86969
20
-4.05775
11
4.86972
21
-4.05773
0
LINE
8
BLACK
6
CONTINUOUS
10
4.86972
20
-4.05773
11
4.87204
21
-4.05599
0
LINE
8
BLACK
6
CONTINUOUS
10
4.87204
20
-4.05599
11
4.8743
21
-4.0543
0
LINE
8
BLACK
6
CONTINUOUS
10
4.8743
20
-4.0543
11
4.87603
21
-4.05199
0
LINE
8
BLACK
6
CONTINUOUS
10
4.87603
20
-4.05199
11
4.87827
21
-4.05032
0
LINE
8
BLACK
6
CONTINUOUS
10
4.87827
20
-4.05032
11
4.88105
21
-4.05012
0
LINE
8
BLACK
6
CONTINUOUS
10
4.88105
20
-4.05012
11
4.88351
21
-4.05146
0
LINE
8
BLACK
6
CONTINUOUS
10
4.88351
20
-4.05146
11
4.88397
21
-4.05199
0
LINE
8
BLACK
6
CONTINUOUS
10
4.88397
20
-4.05199
11
4.8857
21
-4.0543
0
LINE
8
BLACK
6
CONTINUOUS
10
4.8857
20
-4.0543
11
4.89031
21
-4.05775
0
LINE
8
BLACK
6
CONTINUOUS
10
4.89031
20
-4.05775
11
4.89031
21
-4.05775
0
LINE
8
BLACK
6
CONTINUOUS
10
4.89031
20
-4.05775
11
4.89031
21
-4.05775
0
LINE
8
BLACK
6
CONTINUOUS
10
4.89031
20
-4.05775
11
4.89196
21
-4.05837
0
LINE
8
BLACK
6
CONTINUOUS
10
4.89196
20
-4.05837
11
4.8957
21
-4.05976
0
LINE
8
BLACK
6
CONTINUOUS
10
4.8957
20
-4.05976
11
4.8957
21
-4.05976
0
LINE
8
BLACK
6
CONTINUOUS
10
4.8957
20
-4.05976
11
4.89808
21
-4.06002
0
LINE
8
BLACK
6
CONTINUOUS
10
4.89808
20
-4.06002
11
4.89808
21
-4.06002
0
LINE
8
BLACK
6
CONTINUOUS
10
4.89808
20
-4.06002
11
4.89809
21
-4.06002
0
LINE
8
BLACK
6
CONTINUOUS
10
4.89809
20
-4.06002
11
4.89809
21
-4.06002
0
LINE
8
BLACK
6
CONTINUOUS
10
4.89809
20
-4.06002
11
4.96191
21
-4.06002
0
LINE
8
BLACK
6
CONTINUOUS
10
4.96191
20
-4.06002
11
4.96191
21
-4.06002
0
LINE
8
BLACK
6
CONTINUOUS
10
4.96191
20
-4.06002
11
4.96192
21
-4.06002
0
LINE
8
BLACK
6
CONTINUOUS
10
4.96192
20
-4.06002
11
4.96192
21
-4.06002
0
LINE
8
BLACK
6
CONTINUOUS
10
4.96192
20
-4.06002
11
4.9643
21
-4.05976
0
LINE
8
BLACK
6
CONTINUOUS
10
4.9643
20
-4.05976
11
4.9643
21
-4.05976
0
LINE
8
BLACK
6
CONTINUOUS
10
4.9643
20
-4.05976
11
4.9643
21
-4.05976
0
LINE
8
BLACK
6
CONTINUOUS
10
4.9643
20
-4.05976
11
4.96969
21
-4.05775
0
LINE
8
BLACK
6
CONTINUOUS
10
4.96969
20
-4.05775
11
4.96972
21
-4.05773
0
LINE
8
BLACK
6
CONTINUOUS
10
4.96972
20
-4.05773
11
4.97417
21
-4.0544
0
LINE
8
BLACK
6
CONTINUOUS
10
4.97417
20
-4.0544
11
4.97679
21
-4.05342
0
LINE
8
BLACK
6
CONTINUOUS
10
4.97679
20
-4.05342
11
4.97952
21
-4.05402
0
LINE
8
BLACK
6
CONTINUOUS
10
4.97952
20
-4.05402
11
4.9815
21
-4.05599
0
LINE
8
BLACK
6
CONTINUOUS
10
4.9815
20
-4.05599
11
4.98211
21
-4.05837
0
LINE
8
BLACK
6
CONTINUOUS
10
4.98211
20
-4.05837
11
4.98211
21
-4.38562
0
LINE
8
BLACK
6
CONTINUOUS
10
4.98211
20
-4.38562
11
4.98132
21
-4.3883
0
LINE
8
BLACK
6
CONTINUOUS
10
4.98132
20
-4.3883
11
4.98105
21
-4.38865
0
LINE
8
BLACK
6
CONTINUOUS
10
4.98105
20
-4.38865
11
4.98106
21
-4.38865
0
LINE
8
BLACK
6
CONTINUOUS
10
4.98106
20
-4.38865
11
4.9809
21
-4.38886
0
LINE
8
BLACK
6
CONTINUOUS
10
4.9809
20
-4.38886
11
4.97714
21
-4.39537
0
LINE
8
BLACK
6
CONTINUOUS
10
4.97714
20
-4.39537
11
4.97714
21
-4.39537
0
LINE
8
BLACK
6
CONTINUOUS
10
4.97714
20
-4.39537
11
4.97482
21
-4.40252
0
LINE
8
BLACK
6
CONTINUOUS
10
4.97482
20
-4.40252
11
4.97404
21
-4.41
0
LINE
8
BLACK
6
CONTINUOUS
10
4.97404
20
-4.41
11
4.97482
21
-4.41748
0
LINE
8
BLACK
6
CONTINUOUS
10
4.97482
20
-4.41748
11
4.97584
21
-4.42063
0
LINE
8
BLACK
6
CONTINUOUS
10
4.97584
20
-4.42063
11
4.97714
21
-4.42463
0
LINE
8
BLACK
6
CONTINUOUS
10
4.97714
20
-4.42463
11
4.97714
21
-4.42463
0
LINE
8
BLACK
6
CONTINUOUS
10
4.97714
20
-4.42463
11
4.9809
21
-4.43114
0
LINE
8
BLACK
6
CONTINUOUS
10
4.9809
20
-4.43114
11
4.98106
21
-4.43135
0
LINE
8
BLACK
6
CONTINUOUS
10
4.98106
20
-4.43135
11
4.98099
21
-4.4314
0
LINE
8
BLACK
6
CONTINUOUS
10
4.98099
20
-4.4314
11
4.98204
21
-4.43358
0
LINE
8
BLACK
6
CONTINUOUS
10
4.98204
20
-4.43358
11
4.98211
21
-4.43438
0
LINE
8
BLACK
6
CONTINUOUS
10
4.98211
20
-4.43438
11
4.98211
21
-4.46908
0
LINE
8
BLACK
6
CONTINUOUS
10
4.98211
20
-4.46908
11
4.9821
21
-4.46923
0
LINE
8
BLACK
6
CONTINUOUS
10
4.9821
20
-4.46923
11
4.98195
21
-4.4717
0
LINE
8
BLACK
6
CONTINUOUS
10
4.98195
20
-4.4717
11
4.9824
21
-4.47413
0
LINE
8
BLACK
6
CONTINUOUS
10
4.9824
20
-4.47413
11
4.98242
21
-4.47427
0
LINE
8
BLACK
6
CONTINUOUS
10
4.98242
20
-4.47427
11
4.98272
21
-4.47672
0
LINE
8
BLACK
6
CONTINUOUS
10
4.98272
20
-4.47672
11
4.98272
21
-4.47672
0
LINE
8
BLACK
6
CONTINUOUS
10
4.98272
20
-4.47672
11
4.98286
21
-4.4771
0
LINE
8
BLACK
6
CONTINUOUS
10
4.98286
20
-4.4771
11
4.9831
21
-4.47796
0
LINE
8
BLACK
6
CONTINUOUS
10
4.9831
20
-4.47796
11
4.98317
21
-4.47836
0
LINE
8
BLACK
6
CONTINUOUS
10
4.98317
20
-4.47836
11
4.98419
21
-4.48061
0
LINE
8
BLACK
6
CONTINUOUS
10
4.98419
20
-4.48061
11
4.98424
21
-4.48075
0
LINE
8
BLACK
6
CONTINUOUS
10
4.98424
20
-4.48075
11
4.98478
21
-4.48215
0
LINE
8
BLACK
6
CONTINUOUS
10
4.98478
20
-4.48215
11
4.98512
21
-4.48306
0
LINE
8
BLACK
6
CONTINUOUS
10
4.98512
20
-4.48306
11
4.98535
21
-4.48339
0
LINE
8
BLACK
6
CONTINUOUS
10
4.98535
20
-4.48339
11
4.98579
21
-4.48417
0
LINE
8
BLACK
6
CONTINUOUS
10
4.98579
20
-4.48417
11
4.98595
21
-4.48454
0
LINE
8
BLACK
6
CONTINUOUS
10
4.98595
20
-4.48454
11
4.98595
21
-4.48454
0
LINE
8
BLACK
6
CONTINUOUS
10
4.98595
20
-4.48454
11
4.98691
21
-4.48575
0
LINE
8
BLACK
6
CONTINUOUS
10
4.98691
20
-4.48575
11
4.98748
21
-4.48648
0
LINE
8
BLACK
6
CONTINUOUS
10
4.98748
20
-4.48648
11
4.98757
21
-4.4866
0
LINE
8
BLACK
6
CONTINUOUS
10
4.98757
20
-4.4866
11
4.98889
21
-4.48852
0
LINE
8
BLACK
6
CONTINUOUS
10
4.98889
20
-4.48852
11
4.98897
21
-4.48863
0
LINE
8
BLACK
6
CONTINUOUS
10
4.98897
20
-4.48863
11
4.99082
21
-4.49027
0
LINE
8
BLACK
6
CONTINUOUS
10
4.99082
20
-4.49027
11
4.99092
21
-4.49037
0
LINE
8
BLACK
6
CONTINUOUS
10
4.99092
20
-4.49037
11
5.04963
21
-4.54908
0
LINE
8
BLACK
6
CONTINUOUS
10
5.04963
20
-4.54908
11
5.04973
21
-4.54918
0
LINE
8
BLACK
6
CONTINUOUS
10
5.04973
20
-4.54918
11
5.05137
21
-4.55103
0
LINE
8
BLACK
6
CONTINUOUS
10
5.05137
20
-4.55103
11
5.05227
21
-4.55165
0
LINE
8
BLACK
6
CONTINUOUS
10
5.05227
20
-4.55165
11
5.0534
21
-4.55243
0
LINE
8
BLACK
6
CONTINUOUS
10
5.0534
20
-4.55243
11
5.05352
21
-4.55252
0
LINE
8
BLACK
6
CONTINUOUS
10
5.05352
20
-4.55252
11
5.05421
21
-4.55307
0
LINE
8
BLACK
6
CONTINUOUS
10
5.05421
20
-4.55307
11
5.05546
21
-4.55405
0
LINE
8
BLACK
6
CONTINUOUS
10
5.05546
20
-4.55405
11
5.05546
21
-4.55405
0
LINE
8
BLACK
6
CONTINUOUS
10
5.05546
20
-4.55405
11
5.05546
21
-4.55405
0
LINE
8
BLACK
6
CONTINUOUS
10
5.05546
20
-4.55405
11
5.05583
21
-4.55421
0
LINE
8
BLACK
6
CONTINUOUS
10
5.05583
20
-4.55421
11
5.05661
21
-4.55465
0
LINE
8
BLACK
6
CONTINUOUS
10
5.05661
20
-4.55465
11
5.05694
21
-4.55488
0
LINE
8
BLACK
6
CONTINUOUS
10
5.05694
20
-4.55488
11
5.05925
21
-4.55576
0
LINE
8
BLACK
6
CONTINUOUS
10
5.05925
20
-4.55576
11
5.05939
21
-4.55581
0
LINE
8
BLACK
6
CONTINUOUS
10
5.05939
20
-4.55581
11
5.06164
21
-4.55683
0
LINE
8
BLACK
6
CONTINUOUS
10
5.06164
20
-4.55683
11
5.06204
21
-4.5569
0
LINE
8
BLACK
6
CONTINUOUS
10
5.06204
20
-4.5569
11
5.0629
21
-4.55714
0
LINE
8
BLACK
6
CONTINUOUS
10
5.0629
20
-4.55714
11
5.06328
21
-4.55728
0
LINE
8
BLACK
6
CONTINUOUS
10
5.06328
20
-4.55728
11
5.06573
21
-4.55758
0
LINE
8
BLACK
6
CONTINUOUS
10
5.06573
20
-4.55758
11
5.06587
21
-4.5576
0
LINE
8
BLACK
6
CONTINUOUS
10
5.06587
20
-4.5576
11
5.0683
21
-4.55805
0
LINE
8
BLACK
6
CONTINUOUS
10
5.0683
20
-4.55805
11
5.07077
21
-4.5579
0
LINE
8
BLACK
6
CONTINUOUS
10
5.07077
20
-4.5579
11
5.07092
21
-4.55789
0
LINE
8
BLACK
6
CONTINUOUS
10
5.07092
20
-4.55789
11
5.17908
21
-4.55789
0
LINE
8
BLACK
6
CONTINUOUS
10
5.17908
20
-4.55789
11
5.17923
21
-4.5579
0
LINE
8
BLACK
6
CONTINUOUS
10
5.17923
20
-4.5579
11
5.1817
21
-4.55805
0
LINE
8
BLACK
6
CONTINUOUS
10
5.1817
20
-4.55805
11
5.18413
21
-4.5576
0
LINE
8
BLACK
6
CONTINUOUS
10
5.18413
20
-4.5576
11
5.18427
21
-4.55758
0
LINE
8
BLACK
6
CONTINUOUS
10
5.18427
20
-4.55758
11
5.18672
21
-4.55728
0
LINE
8
BLACK
6
CONTINUOUS
10
5.18672
20
-4.55728
11
5.1871
21
-4.55714
0
LINE
8
BLACK
6
CONTINUOUS
10
5.1871
20
-4.55714
11
5.18796
21
-4.5569
0
LINE
8
BLACK
6
CONTINUOUS
10
5.18796
20
-4.5569
11
5.18836
21
-4.55683
0
LINE
8
BLACK
6
CONTINUOUS
10
5.18836
20
-4.55683
11
5.19061
21
-4.55581
0
LINE
8
BLACK
6
CONTINUOUS
10
5.19061
20
-4.55581
11
5.19075
21
-4.55576
0
LINE
8
BLACK
6
CONTINUOUS
10
5.19075
20
-4.55576
11
5.19306
21
-4.55488
0
LINE
8
BLACK
6
CONTINUOUS
10
5.19306
20
-4.55488
11
5.19339
21
-4.55465
0
LINE
8
BLACK
6
CONTINUOUS
10
5.19339
20
-4.55465
11
5.19417
21
-4.55421
0
LINE
8
BLACK
6
CONTINUOUS
10
5.19417
20
-4.55421
11
5.19454
21
-4.55405
0
LINE
8
BLACK
6
CONTINUOUS
10
5.19454
20
-4.55405
11
5.19648
21
-4.55252
0
LINE
8
BLACK
6
CONTINUOUS
10
5.19648
20
-4.55252
11
5.1966
21
-4.55244
0
LINE
8
BLACK
6
CONTINUOUS
10
5.1966
20
-4.55244
11
5.19863
21
-4.55103
0
LINE
8
BLACK
6
CONTINUOUS
10
5.19863
20
-4.55103
11
5.20027
21
-4.54918
0
LINE
8
BLACK
6
CONTINUOUS
10
5.20027
20
-4.54918
11
5.20037
21
-4.54908
0
LINE
8
BLACK
6
CONTINUOUS
10
5.20037
20
-4.54908
11
5.21908
21
-4.53037
0
LINE
8
BLACK
6
CONTINUOUS
10
5.21908
20
-4.53037
11
5.21918
21
-4.53027
0
LINE
8
BLACK
6
CONTINUOUS
10
5.21918
20
-4.53027
11
5.22103
21
-4.52863
0
LINE
8
BLACK
6
CONTINUOUS
10
5.22103
20
-4.52863
11
5.22243
21
-4.5266
0
LINE
8
BLACK
6
CONTINUOUS
10
5.22243
20
-4.5266
11
5.22252
21
-4.52648
0
LINE
8
BLACK
6
CONTINUOUS
10
5.22252
20
-4.52648
11
5.22405
21
-4.52454
0
LINE
8
BLACK
6
CONTINUOUS
10
5.22405
20
-4.52454
11
5.22421
21
-4.52417
0
LINE
8
BLACK
6
CONTINUOUS
10
5.22421
20
-4.52417
11
5.22465
21
-4.52339
0
LINE
8
BLACK
6
CONTINUOUS
10
5.22465
20
-4.52339
11
5.22488
21
-4.52306
0
LINE
8
BLACK
6
CONTINUOUS
10
5.22488
20
-4.52306
11
5.22492
21
-4.52295
0
LINE
8
BLACK
6
CONTINUOUS
10
5.22492
20
-4.52295
11
5.22497
21
-4.52289
0
LINE
8
BLACK
6
CONTINUOUS
10
5.22497
20
-4.52289
11
5.22502
21
-4.52279
0
LINE
8
BLACK
6
CONTINUOUS
10
5.22502
20
-4.52279
11
5.22504
21
-4.5228
0
LINE
8
BLACK
6
CONTINUOUS
10
5.22504
20
-4.5228
11
5.22661
21
-4.52073
0
LINE
8
BLACK
6
CONTINUOUS
10
5.22661
20
-4.52073
11
5.22923
21
-4.51976
0
LINE
8
BLACK
6
CONTINUOUS
10
5.22923
20
-4.51976
11
5.22956
21
-4.51975
0
LINE
8
BLACK
6
CONTINUOUS
10
5.22956
20
-4.51975
11
5.25401
21
-4.51975
0
LINE
8
BLACK
6
CONTINUOUS
10
5.25401
20
-4.51975
11
5.25401
21
-4.51975
0
LINE
8
BLACK
6
CONTINUOUS
10
5.25401
20
-4.51975
11
5.25971
21
-4.51893
0
LINE
8
BLACK
6
CONTINUOUS
10
5.25971
20
-4.51893
11
5.26514
21
-4.51734
0
LINE
8
BLACK
6
CONTINUOUS
10
5.26514
20
-4.51734
11
5.27038
21
-4.51495
0
LINE
8
BLACK
6
CONTINUOUS
10
5.27038
20
-4.51495
11
5.27514
21
-4.51189
0
LINE
8
BLACK
6
CONTINUOUS
10
5.27514
20
-4.51189
11
5.27514
21
-4.51189
0
LINE
8
BLACK
6
CONTINUOUS
10
5.27514
20
-4.51189
11
5.27949
21
-4.50812
0
LINE
8
BLACK
6
CONTINUOUS
10
5.27949
20
-4.50812
11
5.2832
21
-4.50384
0
LINE
8
BLACK
6
CONTINUOUS
10
5.2832
20
-4.50384
11
5.28359
21
-4.50323
0
LINE
8
BLACK
6
CONTINUOUS
10
5.28359
20
-4.50323
11
5.28419
21
-4.5023
0
LINE
8
BLACK
6
CONTINUOUS
10
5.28419
20
-4.5023
11
5.2863
21
-4.50047
0
LINE
8
BLACK
6
CONTINUOUS
10
5.2863
20
-4.50047
11
5.28836
21
-4.50002
0
LINE
8
BLACK
6
CONTINUOUS
10
5.28836
20
-4.50002
11
5.29886
21
-4.50002
0
LINE
8
BLACK
6
CONTINUOUS
10
5.29886
20
-4.50002
11
5.30154
21
-4.50081
0
LINE
8
BLACK
6
CONTINUOUS
10
5.30154
20
-4.50081
11
5.30177
21
-4.50097
0
LINE
8
BLACK
6
CONTINUOUS
10
5.30177
20
-4.50097
11
5.30202
21
-4.50115
0
LINE
8
BLACK
6
CONTINUOUS
10
5.30202
20
-4.50115
11
5.30889
21
-4.5042
0
LINE
8
BLACK
6
CONTINUOUS
10
5.30889
20
-4.5042
11
5.31624
21
-4.50577
0
LINE
8
BLACK
6
CONTINUOUS
10
5.31624
20
-4.50577
11
5.32376
21
-4.50577
0
LINE
8
BLACK
6
CONTINUOUS
10
5.32376
20
-4.50577
11
5.33111
21
-4.5042
0
LINE
8
BLACK
6
CONTINUOUS
10
5.33111
20
-4.5042
11
5.33798
21
-4.50115
0
LINE
8
BLACK
6
CONTINUOUS
10
5.33798
20
-4.50115
11
5.33823
21
-4.50097
0
LINE
8
BLACK
6
CONTINUOUS
10
5.33823
20
-4.50097
11
5.34086
21
-4.50003
0
LINE
8
BLACK
6
CONTINUOUS
10
5.34086
20
-4.50003
11
5.34114
21
-4.50002
0
LINE
8
BLACK
6
CONTINUOUS
10
5.34114
20
-4.50002
11
5.38745
21
-4.50002
0
LINE
8
BLACK
6
CONTINUOUS
10
5.38745
20
-4.50002
11
5.38817
21
-4.50007
0
LINE
8
BLACK
6
CONTINUOUS
10
5.38817
20
-4.50007
11
5.38826
21
-4.50008
0
LINE
8
BLACK
6
CONTINUOUS
10
5.38826
20
-4.50008
11
5.38912
21
-4.50021
0
LINE
8
BLACK
6
CONTINUOUS
10
5.38912
20
-4.50021
11
5.39044
21
-4.5001
0
LINE
8
BLACK
6
CONTINUOUS
10
5.39044
20
-4.5001
11
5.3912
21
-4.50003
0
LINE
8
BLACK
6
CONTINUOUS
10
5.3912
20
-4.50003
11
5.39142
21
-4.50002
0
LINE
8
BLACK
6
CONTINUOUS
10
5.39142
20
-4.50002
11
5.39175
21
-4.50002
0
LINE
8
BLACK
6
CONTINUOUS
10
5.39175
20
-4.50002
11
5.39302
21
-4.49987
0
LINE
8
BLACK
6
CONTINUOUS
10
5.39302
20
-4.49987
11
5.39309
21
-4.49986
0
LINE
8
BLACK
6
CONTINUOUS
10
5.39309
20
-4.49986
11
5.39611
21
-4.4996
0
LINE
8
BLACK
6
CONTINUOUS
10
5.39611
20
-4.4996
11
5.39611
21
-4.4996
0
LINE
8
BLACK
6
CONTINUOUS
10
5.39611
20
-4.4996
11
5.39639
21
-4.49954
0
LINE
8
BLACK
6
CONTINUOUS
10
5.39639
20
-4.49954
11
5.3964
21
-4.49954
0
LINE
8
BLACK
6
CONTINUOUS
10
5.3964
20
-4.49954
11
5.39669
21
-4.49948
0
LINE
8
BLACK
6
CONTINUOUS
10
5.39669
20
-4.49948
11
5.39669
21
-4.49948
0
LINE
8
BLACK
6
CONTINUOUS
10
5.39669
20
-4.49948
11
5.39697
21
-4.49941
0
LINE
8
BLACK
6
CONTINUOUS
10
5.39697
20
-4.49941
11
5.39697
21
-4.49941
0
LINE
8
BLACK
6
CONTINUOUS
10
5.39697
20
-4.49941
11
5.39983
21
-4.49837
0
LINE
8
BLACK
6
CONTINUOUS
10
5.39983
20
-4.49837
11
5.39989
21
-4.49835
0
LINE
8
BLACK
6
CONTINUOUS
10
5.39989
20
-4.49835
11
5.40277
21
-4.49739
0
LINE
8
BLACK
6
CONTINUOUS
10
5.40277
20
-4.49739
11
5.40277
21
-4.49739
0
LINE
8
BLACK
6
CONTINUOUS
10
5.40277
20
-4.49739
11
5.40304
21
-4.49727
0
LINE
8
BLACK
6
CONTINUOUS
10
5.40304
20
-4.49727
11
5.40304
21
-4.49727
0
LINE
8
BLACK
6
CONTINUOUS
10
5.40304
20
-4.49727
11
5.40331
21
-4.49714
0
LINE
8
BLACK
6
CONTINUOUS
10
5.40331
20
-4.49714
11
5.40331
21
-4.49714
0
LINE
8
BLACK
6
CONTINUOUS
10
5.40331
20
-4.49714
11
5.40356
21
-4.49701
0
LINE
8
BLACK
6
CONTINUOUS
10
5.40356
20
-4.49701
11
5.40356
21
-4.49701
0
LINE
8
BLACK
6
CONTINUOUS
10
5.40356
20
-4.49701
11
5.40356
21
-4.49701
0
LINE
8
BLACK
6
CONTINUOUS
10
5.40356
20
-4.49701
11
5.4061
21
-4.49534
0
LINE
8
BLACK
6
CONTINUOUS
10
5.4061
20
-4.49534
11
5.40616
21
-4.4953
0
LINE
8
BLACK
6
CONTINUOUS
10
5.40616
20
-4.4953
11
5.40875
21
-4.49371
0
LINE
8
BLACK
6
CONTINUOUS
10
5.40875
20
-4.49371
11
5.40875
21
-4.49371
0
LINE
8
BLACK
6
CONTINUOUS
10
5.40875
20
-4.49371
11
5.40897
21
-4.49353
0
LINE
8
BLACK
6
CONTINUOUS
10
5.40897
20
-4.49353
11
5.40897
21
-4.49353
0
LINE
8
BLACK
6
CONTINUOUS
10
5.40897
20
-4.49353
11
5.40921
21
-4.49334
0
LINE
8
BLACK
6
CONTINUOUS
10
5.40921
20
-4.49334
11
5.40921
21
-4.49334
0
LINE
8
BLACK
6
CONTINUOUS
10
5.40921
20
-4.49334
11
5.40943
21
-4.49315
0
LINE
8
BLACK
6
CONTINUOUS
10
5.40943
20
-4.49315
11
5.40943
21
-4.49315
0
LINE
8
BLACK
6
CONTINUOUS
10
5.40943
20
-4.49315
11
5.41151
21
-4.49094
0
LINE
8
BLACK
6
CONTINUOUS
10
5.41151
20
-4.49094
11
5.41156
21
-4.49089
0
LINE
8
BLACK
6
CONTINUOUS
10
5.41156
20
-4.49089
11
5.47943
21
-4.42303
0
LINE
8
BLACK
6
CONTINUOUS
10
5.47943
20
-4.42303
11
5.47997
21
-4.42256
0
LINE
8
BLACK
6
CONTINUOUS
10
5.47997
20
-4.42256
11
5.48074
21
-4.42198
0
LINE
8
BLACK
6
CONTINUOUS
10
5.48074
20
-4.42198
11
5.48208
21
-4.42038
0
LINE
8
BLACK
6
CONTINUOUS
10
5.48208
20
-4.42038
11
5.48223
21
-4.42022
0
LINE
8
BLACK
6
CONTINUOUS
10
5.48223
20
-4.42022
11
5.48246
21
-4.41999
0
LINE
8
BLACK
6
CONTINUOUS
10
5.48246
20
-4.41999
11
5.48326
21
-4.41899
0
LINE
8
BLACK
6
CONTINUOUS
10
5.48326
20
-4.41899
11
5.4833
21
-4.41894
0
LINE
8
BLACK
6
CONTINUOUS
10
5.4833
20
-4.41894
11
5.48525
21
-4.41661
0
LINE
8
BLACK
6
CONTINUOUS
10
5.48525
20
-4.41661
11
5.48525
21
-4.41661
0
LINE
8
BLACK
6
CONTINUOUS
10
5.48525
20
-4.41661
11
5.48525
21
-4.41661
0
LINE
8
BLACK
6
CONTINUOUS
10
5.48525
20
-4.41661
11
5.48541
21
-4.41637
0
LINE
8
BLACK
6
CONTINUOUS
10
5.48541
20
-4.41637
11
5.48541
21
-4.41637
0
LINE
8
BLACK
6
CONTINUOUS
10
5.48541
20
-4.41637
11
5.48557
21
-4.41611
0
LINE
8
BLACK
6
CONTINUOUS
10
5.48557
20
-4.41611
11
5.48557
21
-4.41611
0
LINE
8
BLACK
6
CONTINUOUS
10
5.48557
20
-4.41611
11
5.48572
21
-4.41587
0
LINE
8
BLACK
6
CONTINUOUS
10
5.48572
20
-4.41587
11
5.48572
21
-4.41587
0
LINE
8
BLACK
6
CONTINUOUS
10
5.48572
20
-4.41587
11
5.48701
21
-4.41311
0
LINE
8
BLACK
6
CONTINUOUS
10
5.48701
20
-4.41311
11
5.48704
21
-4.41305
0
LINE
8
BLACK
6
CONTINUOUS
10
5.48704
20
-4.41305
11
5.4884
21
-4.41034
0
LINE
8
BLACK
6
CONTINUOUS
10
5.4884
20
-4.41034
11
5.4884
21
-4.41034
0
LINE
8
BLACK
6
CONTINUOUS
10
5.4884
20
-4.41034
11
5.4885
21
-4.41007
0
LINE
8
BLACK
6
CONTINUOUS
10
5.4885
20
-4.41007
11
5.4885
21
-4.41007
0
LINE
8
BLACK
6
CONTINUOUS
10
5.4885
20
-4.41007
11
5.4886
21
-4.40978
0
LINE
8
BLACK
6
CONTINUOUS
10
5.4886
20
-4.40978
11
5.4886
21
-4.40978
0
LINE
8
BLACK
6
CONTINUOUS
10
5.4886
20
-4.40978
11
5.48869
21
-4.40951
0
LINE
8
BLACK
6
CONTINUOUS
10
5.48869
20
-4.40951
11
5.48869
21
-4.40951
0
LINE
8
BLACK
6
CONTINUOUS
10
5.48869
20
-4.40951
11
5.4893
21
-4.40653
0
LINE
8
BLACK
6
CONTINUOUS
10
5.4893
20
-4.40653
11
5.48932
21
-4.40647
0
LINE
8
BLACK
6
CONTINUOUS
10
5.48932
20
-4.40647
11
5.49002
21
-4.40351
0
LINE
8
BLACK
6
CONTINUOUS
10
5.49002
20
-4.40351
11
5.49002
21
-4.40351
0
LINE
8
BLACK
6
CONTINUOUS
10
5.49002
20
-4.40351
11
5.49005
21
-4.40322
0
LINE
8
BLACK
6
CONTINUOUS
10
5.49005
20
-4.40322
11
5.49006
21
-4.40322
0
LINE
8
BLACK
6
CONTINUOUS
10
5.49006
20
-4.40322
11
5.49009
21
-4.40292
0
LINE
8
BLACK
6
CONTINUOUS
10
5.49009
20
-4.40292
11
5.49008
21
-4.40292
0
LINE
8
BLACK
6
CONTINUOUS
10
5.49008
20
-4.40292
11
5.49011
21
-4.40263
0
LINE
8
BLACK
6
CONTINUOUS
10
5.49011
20
-4.40263
11
5.49011
21
-4.40263
0
LINE
8
BLACK
6
CONTINUOUS
10
5.49011
20
-4.40263
11
5.49006
21
-4.40081
0
LINE
8
BLACK
6
CONTINUOUS
10
5.49006
20
-4.40081
11
5.49002
21
-4.3996
0
LINE
8
BLACK
6
CONTINUOUS
10
5.49002
20
-4.3996
11
5.49002
21
-4.39953
0
LINE
8
BLACK
6
CONTINUOUS
10
5.49002
20
-4.39953
11
5.49002
21
-4.22235
0
LINE
8
BLACK
6
CONTINUOUS
10
5.49002
20
-4.22235
11
5.49068
21
-4.21986
0
LINE
8
BLACK
6
CONTINUOUS
10
5.49068
20
-4.21986
11
5.49286
21
-4.2161
0
LINE
8
BLACK
6
CONTINUOUS
10
5.49286
20
-4.2161
11
5.49518
21
-4.20895
0
LINE
8
BLACK
6
CONTINUOUS
10
5.49518
20
-4.20895
11
5.49596
21
-4.20148
0
LINE
8
BLACK
6
CONTINUOUS
10
5.49596
20
-4.20148
11
5.49518
21
-4.194
0
LINE
8
BLACK
6
CONTINUOUS
10
5.49518
20
-4.194
11
5.49286
21
-4.18685
0
LINE
8
BLACK
6
CONTINUOUS
10
5.49286
20
-4.18685
11
5.4891
21
-4.18034
0
LINE
8
BLACK
6
CONTINUOUS
10
5.4891
20
-4.18034
11
5.4891
21
-4.18034
0
LINE
8
BLACK
6
CONTINUOUS
10
5.4891
20
-4.18034
11
5.4891
21
-4.18034
0
LINE
8
BLACK
6
CONTINUOUS
10
5.4891
20
-4.18034
11
5.48407
21
-4.17475
0
LINE
8
BLACK
6
CONTINUOUS
10
5.48407
20
-4.17475
11
5.47798
21
-4.17033
0
LINE
8
BLACK
6
CONTINUOUS
10
5.47798
20
-4.17033
11
5.47111
21
-4.16727
0
LINE
8
BLACK
6
CONTINUOUS
10
5.47111
20
-4.16727
11
5.46891
21
-4.1668
0
LINE
8
BLACK
6
CONTINUOUS
10
5.46891
20
-4.1668
11
5.46645
21
-4.16548
0
LINE
8
BLACK
6
CONTINUOUS
10
5.46645
20
-4.16548
11
5.46644
21
-4.16546
0
LINE
8
BLACK
6
CONTINUOUS
10
5.46644
20
-4.16546
11
5.40147
21
-4.10049
0
LINE
8
BLACK
6
CONTINUOUS
10
5.40147
20
-4.10049
11
5.40013
21
-4.09804
0
LINE
8
BLACK
6
CONTINUOUS
10
5.40013
20
-4.09804
11
5.40002
21
-4.09699
0
LINE
8
BLACK
6
CONTINUOUS
10
5.40002
20
-4.09699
11
5.40002
21
-4.06468
0
LINE
8
BLACK
6
CONTINUOUS
10
5.40002
20
-4.06468
11
5.40081
21
-4.062
0
LINE
8
BLACK
6
CONTINUOUS
10
5.40081
20
-4.062
11
5.40292
21
-4.06017
0
LINE
8
BLACK
6
CONTINUOUS
10
5.40292
20
-4.06017
11
5.40401
21
-4.05987
0
LINE
8
BLACK
6
CONTINUOUS
10
5.40401
20
-4.05987
11
5.404
21
-4.05983
0
LINE
8
BLACK
6
CONTINUOUS
10
5.404
20
-4.05983
11
5.4043
21
-4.05976
0
LINE
8
BLACK
6
CONTINUOUS
10
5.4043
20
-4.05976
11
5.4043
21
-4.05976
0
LINE
8
BLACK
6
CONTINUOUS
10
5.4043
20
-4.05976
11
5.40969
21
-4.05775
0
LINE
8
BLACK
6
CONTINUOUS
10
5.40969
20
-4.05775
11
5.40972
21
-4.05773
0
LINE
8
BLACK
6
CONTINUOUS
10
5.40972
20
-4.05773
11
5.4143
21
-4.0543
0
LINE
8
BLACK
6
CONTINUOUS
10
5.4143
20
-4.0543
11
5.41603
21
-4.05199
0
LINE
8
BLACK
6
CONTINUOUS
10
5.41603
20
-4.05199
11
5.41827
21
-4.05032
0
LINE
8
BLACK
6
CONTINUOUS
10
5.41827
20
-4.05032
11
5.42105
21
-4.05012
0
LINE
8
BLACK
6
CONTINUOUS
10
5.42105
20
-4.05012
11
5.42351
21
-4.05146
0
LINE
8
BLACK
6
CONTINUOUS
10
5.42351
20
-4.05146
11
5.42397
21
-4.05199
0
LINE
8
BLACK
6
CONTINUOUS
10
5.42397
20
-4.05199
11
5.4257
21
-4.0543
0
LINE
8
BLACK
6
CONTINUOUS
10
5.4257
20
-4.0543
11
5.43031
21
-4.05775
0
LINE
8
BLACK
6
CONTINUOUS
10
5.43031
20
-4.05775
11
5.43031
21
-4.05775
0
LINE
8
BLACK
6
CONTINUOUS
10
5.43031
20
-4.05775
11
5.43031
21
-4.05775
0
LINE
8
BLACK
6
CONTINUOUS
10
5.43031
20
-4.05775
11
5.43196
21
-4.05837
0
LINE
8
BLACK
6
CONTINUOUS
10
5.43196
20
-4.05837
11
5.4357
21
-4.05976
0
LINE
8
BLACK
6
CONTINUOUS
10
5.4357
20
-4.05976
11
5.4357
21
-4.05976
0
LINE
8
BLACK
6
CONTINUOUS
10
5.4357
20
-4.05976
11
5.43808
21
-4.06002
0
LINE
8
BLACK
6
CONTINUOUS
10
5.43808
20
-4.06002
11
5.43808
21
-4.06002
0
LINE
8
BLACK
6
CONTINUOUS
10
5.43808
20
-4.06002
11
5.43809
21
-4.06002
0
LINE
8
BLACK
6
CONTINUOUS
10
5.43809
20
-4.06002
11
5.43809
21
-4.06002
0
LINE
8
BLACK
6
CONTINUOUS
10
5.43809
20
-4.06002
11
5.50191
21
-4.06002
0
LINE
8
BLACK
6
CONTINUOUS
10
5.50191
20
-4.06002
11
5.50191
21
-4.06002
0
LINE
8
BLACK
6
CONTINUOUS
10
5.50191
20
-4.06002
11
5.50192
21
-4.06002
0
LINE
8
BLACK
6
CONTINUOUS
10
5.50192
20
-4.06002
11
5.50192
21
-4.06002
0
LINE
8
BLACK
6
CONTINUOUS
10
5.50192
20
-4.06002
11
5.5043
21
-4.05976
0
LINE
8
BLACK
6
CONTINUOUS
10
5.5043
20
-4.05976
11
5.5043
21
-4.05976
0
LINE
8
BLACK
6
CONTINUOUS
10
5.5043
20
-4.05976
11
5.5043
21
-4.05976
0
LINE
8
BLACK
6
CONTINUOUS
10
5.5043
20
-4.05976
11
5.50969
21
-4.05775
0
LINE
8
BLACK
6
CONTINUOUS
10
5.50969
20
-4.05775
11
5.50972
21
-4.05773
0
LINE
8
BLACK
6
CONTINUOUS
10
5.50972
20
-4.05773
11
5.5143
21
-4.0543
0
LINE
8
BLACK
6
CONTINUOUS
10
5.5143
20
-4.0543
11
5.51604
21
-4.05198
0
LINE
8
BLACK
6
CONTINUOUS
10
5.51604
20
-4.05198
11
5.51828
21
-4.0503
0
LINE
8
BLACK
6
CONTINUOUS
10
5.51828
20
-4.0503
11
5.52107
21
-4.0501
0
LINE
8
BLACK
6
CONTINUOUS
10
5.52107
20
-4.0501
11
5.52352
21
-4.05144
0
LINE
8
BLACK
6
CONTINUOUS
10
5.52352
20
-4.05144
11
5.52398
21
-4.05198
0
LINE
8
BLACK
6
CONTINUOUS
10
5.52398
20
-4.05198
11
5.52571
21
-4.05429
0
LINE
8
BLACK
6
CONTINUOUS
10
5.52571
20
-4.05429
11
5.53032
21
-4.05773
0
LINE
8
BLACK
6
CONTINUOUS
10
5.53032
20
-4.05773
11
5.5357
21
-4.05974
0
LINE
8
BLACK
6
CONTINUOUS
10
5.5357
20
-4.05974
11
5.53809
21
-4.06
0
LINE
8
BLACK
6
CONTINUOUS
10
5.53809
20
-4.06
11
5.53809
21
-4.06
0
LINE
8
BLACK
6
CONTINUOUS
10
5.53809
20
-4.06
11
5.56
21
-4.06
0
LINE
8
BLACK
6
CONTINUOUS
10
5.56
20
-4.06
11
5.56
21
-4.04
0
LINE
8
BLACK
6
CONTINUOUS
10
5.56
20
-4.04
11
5.54
21
-4.04
0
LINE
8
BLACK
6
CONTINUOUS
10
5.54
20
-4.04
11
5.54
21
-3.98
0
LINE
8
BLACK
6
CONTINUOUS
10
5.54
20
-3.98
11
5.56
21
-3.98
0
LINE
8
BLACK
6
CONTINUOUS
10
5.56
20
-3.98
11
5.56
21
-3.94
0
LINE
8
BLACK
6
CONTINUOUS
10
5.56
20
-3.94
11
5.54
21
-3.94
0
LINE
8
BLACK
6
CONTINUOUS
10
5.54
20
-3.94
11
5.54
21
-3.88
0
LINE
8
BLACK
6
CONTINUOUS
10
5.54
20
-3.88
11
5.56
21
-3.88
0
LINE
8
BLACK
6
CONTINUOUS
10
5.56
20
-3.88
11
5.56
21
-3.86
0
LINE
8
BLACK
6
CONTINUOUS
10
5.56
20
-3.86
11
5.53809
21
-3.86
0
LINE
8
BLACK
6
CONTINUOUS
10
5.53809
20
-3.86
11
5.5357
21
-3.86026
0
LINE
8
BLACK
6
CONTINUOUS
10
5.5357
20
-3.86026
11
5.53032
21
-3.86227
0
LINE
8
BLACK
6
CONTINUOUS
10
5.53032
20
-3.86227
11
5.53032
21
-3.86227
0
LINE
8
BLACK
6
CONTINUOUS
10
5.53032
20
-3.86227
11
5.52571
21
-3.86571
0
LINE
8
BLACK
6
CONTINUOUS
10
5.52571
20
-3.86571
11
5.52398
21
-3.86802
0
LINE
8
BLACK
6
CONTINUOUS
10
5.52398
20
-3.86802
11
5.52175
21
-3.8697
0
LINE
8
BLACK
6
CONTINUOUS
10
5.52175
20
-3.8697
11
5.51896
21
-3.8699
0
LINE
8
BLACK
6
CONTINUOUS
10
5.51896
20
-3.8699
11
5.5165
21
-3.86856
0
LINE
8
BLACK
6
CONTINUOUS
10
5.5165
20
-3.86856
11
5.51604
21
-3.86802
0
LINE
8
BLACK
6
CONTINUOUS
10
5.51604
20
-3.86802
11
5.51431
21
-3.86571
0
LINE
8
BLACK
6
CONTINUOUS
10
5.51431
20
-3.86571
11
5.5143
21
-3.8657
0
LINE
8
BLACK
6
CONTINUOUS
10
5.5143
20
-3.8657
11
5.5143
21
-3.8657
0
LINE
8
BLACK
6
CONTINUOUS
10
5.5143
20
-3.8657
11
5.5143
21
-3.8657
0
LINE
8
BLACK
6
CONTINUOUS
10
5.5143
20
-3.8657
11
5.50969
21
-3.86225
0
LINE
8
BLACK
6
CONTINUOUS
10
5.50969
20
-3.86225
11
5.50969
21
-3.86225
0
LINE
8
BLACK
6
CONTINUOUS
10
5.50969
20
-3.86225
11
5.5043
21
-3.86024
0
LINE
8
BLACK
6
CONTINUOUS
10
5.5043
20
-3.86024
11
5.5043
21
-3.86024
0
LINE
8
BLACK
6
CONTINUOUS
10
5.5043
20
-3.86024
11
5.50192
21
-3.85998
0
LINE
8
BLACK
6
CONTINUOUS
10
5.50192
20
-3.85998
11
5.50191
21
-3.85998
0
LINE
8
BLACK
6
CONTINUOUS
10
5.50191
20
-3.85998
11
5.43809
21
-3.85998
0
LINE
8
BLACK
6
CONTINUOUS
10
5.43809
20
-3.85998
11
5.43808
21
-3.85998
0
LINE
8
BLACK
6
CONTINUOUS
10
5.43808
20
-3.85998
11
5.4357
21
-3.86024
0
LINE
8
BLACK
6
CONTINUOUS
10
5.4357
20
-3.86024
11
5.4357
21
-3.86024
0
LINE
8
BLACK
6
CONTINUOUS
10
5.4357
20
-3.86024
11
5.43031
21
-3.86225
0
LINE
8
BLACK
6
CONTINUOUS
10
5.43031
20
-3.86225
11
5.43031
21
-3.86225
0
LINE
8
BLACK
6
CONTINUOUS
10
5.43031
20
-3.86225
11
5.4257
21
-3.8657
0
LINE
8
BLACK
6
CONTINUOUS
10
5.4257
20
-3.8657
11
5.42397
21
-3.86801
0
LINE
8
BLACK
6
CONTINUOUS
10
5.42397
20
-3.86801
11
5.42173
21
-3.86968
0
LINE
8
BLACK
6
CONTINUOUS
10
5.42173
20
-3.86968
11
5.41895
21
-3.86988
0
LINE
8
BLACK
6
CONTINUOUS
10
5.41895
20
-3.86988
11
5.41649
21
-3.86854
0
LINE
8
BLACK
6
CONTINUOUS
10
5.41649
20
-3.86854
11
5.41603
21
-3.86801
0
LINE
8
BLACK
6
CONTINUOUS
10
5.41603
20
-3.86801
11
5.4143
21
-3.8657
0
LINE
8
BLACK
6
CONTINUOUS
10
5.4143
20
-3.8657
11
5.40969
21
-3.86225
0
LINE
8
BLACK
6
CONTINUOUS
10
5.40969
20
-3.86225
11
5.40969
21
-3.86225
0
LINE
8
BLACK
6
CONTINUOUS
10
5.40969
20
-3.86225
11
5.4043
21
-3.86024
0
LINE
8
BLACK
6
CONTINUOUS
10
5.4043
20
-3.86024
11
5.4043
21
-3.86024
0
LINE
8
BLACK
6
CONTINUOUS
10
5.4043
20
-3.86024
11
5.40192
21
-3.85998
0
LINE
8
BLACK
6
CONTINUOUS
10
5.40192
20
-3.85998
11
5.40191
21
-3.85998
0
LINE
8
BLACK
6
CONTINUOUS
10
5.40191
20
-3.85998
11
5.36449
21
-3.85998
0
LINE
8
BLACK
6
CONTINUOUS
10
5.36449
20
-3.85998
11
5.36181
21
-3.85919
0
LINE
8
BLACK
6
CONTINUOUS
10
5.36181
20
-3.85919
11
5.36098
21
-3.85853
0
LINE
8
BLACK
6
CONTINUOUS
10
5.36098
20
-3.85853
11
5.34092
21
-3.83847
0
LINE
8
BLACK
6
CONTINUOUS
10
5.34092
20
-3.83847
11
5.33958
21
-3.83602
0
LINE
8
BLACK
6
CONTINUOUS
10
5.33958
20
-3.83602
11
5.33978
21
-3.83323
0
LINE
8
BLACK
6
CONTINUOUS
10
5.33978
20
-3.83323
11
5.34146
21
-3.83099
0
LINE
8
BLACK
6
CONTINUOUS
10
5.34146
20
-3.83099
11
5.34408
21
-3.83001
0
LINE
8
BLACK
6
CONTINUOUS
10
5.34408
20
-3.83001
11
5.34443
21
-3.83
0
LINE
8
BLACK
6
CONTINUOUS
10
5.34443
20
-3.83
11
5.96504
21
-3.83
0
LINE
8
BLACK
6
CONTINUOUS
10
5.96504
20
-3.83
11
5.96772
21
-3.83079
0
LINE
8
BLACK
6
CONTINUOUS
10
5.96772
20
-3.83079
11
5.96955
21
-3.8329
0
LINE
8
BLACK
6
CONTINUOUS
10
5.96955
20
-3.8329
11
5.97
21
-3.83496
0
LINE
8
BLACK
6
CONTINUOUS
10
5.97
20
-3.83496
11
5.97
21
-4.56504
0
LINE
8
BLACK
6
CONTINUOUS
10
5.97
20
-4.56504
11
5.96921
21
-4.56772
0
LINE
8
BLACK
6
CONTINUOUS
10
5.96921
20
-4.56772
11
5.9671
21
-4.56955
0
LINE
8
BLACK
6
CONTINUOUS
10
5.9671
20
-4.56955
11
5.96504
21
-4.57
0
LINE
8
BLACK
6
CONTINUOUS
10
5.96504
20
-4.57
11
4.43496
21
-4.57
0
LINE
8
BLACK
6
CONTINUOUS
10
4.43496
20
-4.57
11
4.43228
21
-4.56921
0
LINE
8
BLACK
6
CONTINUOUS
10
4.43228
20
-4.56921
11
4.43045
21
-4.5671
0
LINE
8
BLACK
6
CONTINUOUS
10
4.43045
20
-4.5671
11
4.43
21
-4.56504
0
LINE
8
BLACK
6
CONTINUOUS
10
4.43
20
-4.56504
11
4.43
21
-4.14729
0
LINE
8
BLACK
6
CONTINUOUS
10
4.43
20
-4.14729
11
4.43
21
-3.83496
0
LINE
8
BLACK
6
CONTINUOUS
10
4.43
20
-3.83496
11
4.43079
21
-3.83228
0
LINE
8
BLACK
6
CONTINUOUS
10
4.43079
20
-3.83228
11
4.4329
21
-3.83045
0
LINE
8
BLACK
6
CONTINUOUS
10
4.4329
20
-3.83045
11
4.43496
21
-3.83
0
LINE
8
BLACK
6
CONTINUOUS
10
4.43496
20
-3.83
11
4.85557
21
-3.83
0
LINE
8
BLACK
6
CONTINUOUS
10
4.85557
20
-3.83
11
4.85825
21
-3.83079
0
LINE
8
BLACK
6
CONTINUOUS
10
4.45374
20
-4.25271
11
4.74626
21
-4.25271
0
LINE
8
BLACK
6
CONTINUOUS
10
4.74626
20
-4.25271
11
4.74626
21
-4.14729
0
LINE
8
BLACK
6
CONTINUOUS
10
4.74626
20
-4.14729
11
4.45374
21
-4.14729
0
LINE
8
BLACK
6
CONTINUOUS
10
4.45374
20
-4.14729
11
4.45374
21
-4.25271
0
LINE
8
BLACK
6
CONTINUOUS
10
5.6
20
-4.04
11
5.58
21
-4.04
0
LINE
8
BLACK
6
CONTINUOUS
10
5.58
20
-4.04
11
5.58
21
-4.06
0
LINE
8
BLACK
6
CONTINUOUS
10
5.58
20
-4.06
11
5.60191
21
-4.06
0
LINE
8
BLACK
6
CONTINUOUS
10
5.60191
20
-4.06
11
5.60191
21
-4.06
0
LINE
8
BLACK
6
CONTINUOUS
10
5.60191
20
-4.06
11
5.60429
21
-4.05974
0
LINE
8
BLACK
6
CONTINUOUS
10
5.60429
20
-4.05974
11
5.60968
21
-4.05773
0
LINE
8
BLACK
6
CONTINUOUS
10
5.60968
20
-4.05773
11
5.60968
21
-4.05773
0
LINE
8
BLACK
6
CONTINUOUS
10
5.60968
20
-4.05773
11
5.61429
21
-4.05429
0
LINE
8
BLACK
6
CONTINUOUS
10
5.61429
20
-4.05429
11
5.61773
21
-4.04968
0
LINE
8
BLACK
6
CONTINUOUS
10
5.61773
20
-4.04968
11
5.61773
21
-4.04968
0
LINE
8
BLACK
6
CONTINUOUS
10
5.61773
20
-4.04968
11
5.61974
21
-4.04429
0
LINE
8
BLACK
6
CONTINUOUS
10
5.61974
20
-4.04429
11
5.62
21
-4.04191
0
LINE
8
BLACK
6
CONTINUOUS
10
5.62
20
-4.04191
11
5.62
21
-4.04191
0
LINE
8
BLACK
6
CONTINUOUS
10
5.62
20
-4.04191
11
5.62
21
-4.02
0
LINE
8
BLACK
6
CONTINUOUS
10
5.62
20
-4.02
11
5.6
21
-4.02
0
LINE
8
BLACK
6
CONTINUOUS
10
5.6
20
-4.02
11
5.6
21
-4.04
0
LINE
8
BLACK
6
CONTINUOUS
10
5.6
20
-3.94
11
5.58
21
-3.94
0
LINE
8
BLACK
6
CONTINUOUS
10
5.58
20
-3.94
11
5.58
21
-3.98
0
LINE
8
BLACK
6
CONTINUOUS
10
5.58
20
-3.98
11
5.6
21
-3.98
0
LINE
8
BLACK
6
CONTINUOUS
10
5.6
20
-3.98
11
5.6
21
-4
0
LINE
8
BLACK
6
CONTINUOUS
10
5.6
20
-4
11
5.62
21
-4
0
LINE
8
BLACK
6
CONTINUOUS
10
5.62
20
-4
11
5.62
21
-3.97809
0
LINE
8
BLACK
6
CONTINUOUS
10
5.62
20
-3.97809
11
5.62
21
-3.97809
0
LINE
8
BLACK
6
CONTINUOUS
10
5.62
20
-3.97809
11
5.61974
21
-3.9757
0
LINE
8
BLACK
6
CONTINUOUS
10
5.61974
20
-3.9757
11
5.61773
21
-3.97032
0
LINE
8
BLACK
6
CONTINUOUS
10
5.61773
20
-3.97032
11
5.61773
21
-3.97032
0
LINE
8
BLACK
6
CONTINUOUS
10
5.61773
20
-3.97032
11
5.61429
21
-3.96571
0
LINE
8
BLACK
6
CONTINUOUS
10
5.61429
20
-3.96571
11
5.61196
21
-3.96397
0
LINE
8
BLACK
6
CONTINUOUS
10
5.61196
20
-3.96397
11
5.61029
21
-3.96173
0
LINE
8
BLACK
6
CONTINUOUS
10
5.61029
20
-3.96173
11
5.61009
21
-3.95895
0
LINE
8
BLACK
6
CONTINUOUS
10
5.61009
20
-3.95895
11
5.61143
21
-3.95649
0
LINE
8
BLACK
6
CONTINUOUS
10
5.61143
20
-3.95649
11
5.61196
21
-3.95603
0
LINE
8
BLACK
6
CONTINUOUS
10
5.61196
20
-3.95603
11
5.61429
21
-3.95429
0
LINE
8
BLACK
6
CONTINUOUS
10
5.61429
20
-3.95429
11
5.61773
21
-3.94968
0
LINE
8
BLACK
6
CONTINUOUS
10
5.61773
20
-3.94968
11
5.61773
21
-3.94968
0
LINE
8
BLACK
6
CONTINUOUS
10
5.61773
20
-3.94968
11
5.61974
21
-3.94429
0
LINE
8
BLACK
6
CONTINUOUS
10
5.61974
20
-3.94429
11
5.62
21
-3.94191
0
LINE
8
BLACK
6
CONTINUOUS
10
5.62
20
-3.94191
11
5.62
21
-3.94191
0
LINE
8
BLACK
6
CONTINUOUS
10
5.62
20
-3.94191
11
5.62
21
-3.92
0
LINE
8
BLACK
6
CONTINUOUS
10
5.62
20
-3.92
11
5.6
21
-3.92
0
LINE
8
BLACK
6
CONTINUOUS
10
5.6
20
-3.92
11
5.6
21
-3.94
0
LINE
8
BLACK
6
CONTINUOUS
10
5.58
20
-3.88
11
5.6
21
-3.88
0
LINE
8
BLACK
6
CONTINUOUS
10
5.6
20
-3.88
11
5.6
21
-3.9
0
LINE
8
BLACK
6
CONTINUOUS
10
5.6
20
-3.9
11
5.62
21
-3.9
0
LINE
8
BLACK
6
CONTINUOUS
10
5.62
20
-3.9
11
5.62
21
-3.87809
0
LINE
8
BLACK
6
CONTINUOUS
10
5.62
20
-3.87809
11
5.62
21
-3.87809
0
LINE
8
BLACK
6
CONTINUOUS
10
5.62
20
-3.87809
11
5.61974
21
-3.8757
0
LINE
8
BLACK
6
CONTINUOUS
10
5.61974
20
-3.8757
11
5.61773
21
-3.87032
0
LINE
8
BLACK
6
CONTINUOUS
10
5.61773
20
-3.87032
11
5.61773
21
-3.87032
0
LINE
8
BLACK
6
CONTINUOUS
10
5.61773
20
-3.87032
11
5.61429
21
-3.86571
0
LINE
8
BLACK
6
CONTINUOUS
10
5.61429
20
-3.86571
11
5.60968
21
-3.86227
0
LINE
8
BLACK
6
CONTINUOUS
10
5.60968
20
-3.86227
11
5.60429
21
-3.86026
0
LINE
8
BLACK
6
CONTINUOUS
10
5.60429
20
-3.86026
11
5.60191
21
-3.86
0
LINE
8
BLACK
6
CONTINUOUS
10
5.60191
20
-3.86
11
5.58
21
-3.86
0
LINE
8
BLACK
6
CONTINUOUS
10
5.58
20
-3.86
11
5.58
21
-3.88
0
LINE
8
BLACK
6
CONTINUOUS
10
5.06
20
-3.9
11
5.08
21
-3.9
0
LINE
8
BLACK
6
CONTINUOUS
10
5.08
20
-3.9
11
5.08
21
-3.88498
0
LINE
8
BLACK
6
CONTINUOUS
10
5.08
20
-3.88498
11
5.08079
21
-3.8823
0
LINE
8
BLACK
6
CONTINUOUS
10
5.08079
20
-3.8823
11
5.0829
21
-3.88047
0
LINE
8
BLACK
6
CONTINUOUS
10
5.0829
20
-3.88047
11
5.08496
21
-3.88002
0
LINE
8
BLACK
6
CONTINUOUS
10
5.08496
20
-3.88002
11
5.11504
21
-3.88002
0
LINE
8
BLACK
6
CONTINUOUS
10
5.11504
20
-3.88002
11
5.11772
21
-3.88081
0
LINE
8
BLACK
6
CONTINUOUS
10
5.11772
20
-3.88081
11
5.11955
21
-3.88292
0
LINE
8
BLACK
6
CONTINUOUS
10
5.11955
20
-3.88292
11
5.12
21
-3.88498
0
LINE
8
BLACK
6
CONTINUOUS
10
5.12
20
-3.88498
11
5.12
21
-3.9
0
LINE
8
BLACK
6
CONTINUOUS
10
5.12
20
-3.9
11
5.14
21
-3.9
0
LINE
8
BLACK
6
CONTINUOUS
10
5.14
20
-3.9
11
5.14
21
-3.88
0
LINE
8
BLACK
6
CONTINUOUS
10
5.14
20
-3.88
11
5.2
21
-3.88
0
LINE
8
BLACK
6
CONTINUOUS
10
5.2
20
-3.88
11
5.2
21
-3.94
0
LINE
8
BLACK
6
CONTINUOUS
10
5.2
20
-3.94
11
5.18
21
-3.94
0
LINE
8
BLACK
6
CONTINUOUS
10
5.18
20
-3.94
11
5.18
21
-3.98
0
LINE
8
BLACK
6
CONTINUOUS
10
5.18
20
-3.98
11
5.2
21
-3.98
0
LINE
8
BLACK
6
CONTINUOUS
10
5.2
20
-3.98
11
5.2
21
-4.04
0
LINE
8
BLACK
6
CONTINUOUS
10
5.2
20
-4.04
11
5.18
21
-4.04
0
LINE
8
BLACK
6
CONTINUOUS
10
5.18
20
-4.04
11
5.18
21
-4.06
0
LINE
8
BLACK
6
CONTINUOUS
10
5.18
20
-4.06
11
5.20191
21
-4.06
0
LINE
8
BLACK
6
CONTINUOUS
10
5.20191
20
-4.06
11
5.20191
21
-4.06
0
LINE
8
BLACK
6
CONTINUOUS
10
5.20191
20
-4.06
11
5.2043
21
-4.05974
0
LINE
8
BLACK
6
CONTINUOUS
10
5.2043
20
-4.05974
11
5.20968
21
-4.05773
0
LINE
8
BLACK
6
CONTINUOUS
10
5.20968
20
-4.05773
11
5.20968
21
-4.05773
0
LINE
8
BLACK
6
CONTINUOUS
10
5.20968
20
-4.05773
11
5.21429
21
-4.05429
0
LINE
8
BLACK
6
CONTINUOUS
10
5.21429
20
-4.05429
11
5.21602
21
-4.05198
0
LINE
8
BLACK
6
CONTINUOUS
10
5.21602
20
-4.05198
11
5.21825
21
-4.0503
0
LINE
8
BLACK
6
CONTINUOUS
10
5.21825
20
-4.0503
11
5.22104
21
-4.0501
0
LINE
8
BLACK
6
CONTINUOUS
10
5.22104
20
-4.0501
11
5.2235
21
-4.05144
0
LINE
8
BLACK
6
CONTINUOUS
10
5.2235
20
-4.05144
11
5.22396
21
-4.05198
0
LINE
8
BLACK
6
CONTINUOUS
10
5.22396
20
-4.05198
11
5.2257
21
-4.0543
0
LINE
8
BLACK
6
CONTINUOUS
10
5.2257
20
-4.0543
11
5.23031
21
-4.05775
0
LINE
8
BLACK
6
CONTINUOUS
10
5.23031
20
-4.05775
11
5.23031
21
-4.05775
0
LINE
8
BLACK
6
CONTINUOUS
10
5.23031
20
-4.05775
11
5.23031
21
-4.05775
0
LINE
8
BLACK
6
CONTINUOUS
10
5.23031
20
-4.05775
11
5.23196
21
-4.05837
0
LINE
8
BLACK
6
CONTINUOUS
10
5.23196
20
-4.05837
11
5.2357
21
-4.05976
0
LINE
8
BLACK
6
CONTINUOUS
10
5.2357
20
-4.05976
11
5.2357
21
-4.05976
0
LINE
8
BLACK
6
CONTINUOUS
10
5.2357
20
-4.05976
11
5.23808
21
-4.06002
0
LINE
8
BLACK
6
CONTINUOUS
10
5.23808
20
-4.06002
11
5.23808
21
-4.06002
0
LINE
8
BLACK
6
CONTINUOUS
10
5.23808
20
-4.06002
11
5.23809
21
-4.06002
0
LINE
8
BLACK
6
CONTINUOUS
10
5.23809
20
-4.06002
11
5.23809
21
-4.06002
0
LINE
8
BLACK
6
CONTINUOUS
10
5.23809
20
-4.06002
11
5.30191
21
-4.06002
0
LINE
8
BLACK
6
CONTINUOUS
10
5.30191
20
-4.06002
11
5.30191
21
-4.06002
0
LINE
8
BLACK
6
CONTINUOUS
10
5.30191
20
-4.06002
11
5.30192
21
-4.06002
0
LINE
8
BLACK
6
CONTINUOUS
10
5.30192
20
-4.06002
11
5.30192
21
-4.06002
0
LINE
8
BLACK
6
CONTINUOUS
10
5.30192
20
-4.06002
11
5.3043
21
-4.05976
0
LINE
8
BLACK
6
CONTINUOUS
10
5.3043
20
-4.05976
11
5.3043
21
-4.05976
0
LINE
8
BLACK
6
CONTINUOUS
10
5.3043
20
-4.05976
11
5.3043
21
-4.05976
0
LINE
8
BLACK
6
CONTINUOUS
10
5.3043
20
-4.05976
11
5.30969
21
-4.05775
0
LINE
8
BLACK
6
CONTINUOUS
10
5.30969
20
-4.05775
11
5.30972
21
-4.05773
0
LINE
8
BLACK
6
CONTINUOUS
10
5.30972
20
-4.05773
11
5.3143
21
-4.0543
0
LINE
8
BLACK
6
CONTINUOUS
10
5.3143
20
-4.0543
11
5.31603
21
-4.05199
0
LINE
8
BLACK
6
CONTINUOUS
10
5.31603
20
-4.05199
11
5.31827
21
-4.05032
0
LINE
8
BLACK
6
CONTINUOUS
10
5.31827
20
-4.05032
11
5.32105
21
-4.05012
0
LINE
8
BLACK
6
CONTINUOUS
10
5.32105
20
-4.05012
11
5.32351
21
-4.05146
0
LINE
8
BLACK
6
CONTINUOUS
10
5.32351
20
-4.05146
11
5.32397
21
-4.05199
0
LINE
8
BLACK
6
CONTINUOUS
10
5.32397
20
-4.05199
11
5.3257
21
-4.0543
0
LINE
8
BLACK
6
CONTINUOUS
10
5.3257
20
-4.0543
11
5.33031
21
-4.05775
0
LINE
8
BLACK
6
CONTINUOUS
10
5.33031
20
-4.05775
11
5.33031
21
-4.05775
0
LINE
8
BLACK
6
CONTINUOUS
10
5.33031
20
-4.05775
11
5.33031
21
-4.05775
0
LINE
8
BLACK
6
CONTINUOUS
10
5.33031
20
-4.05775
11
5.33196
21
-4.05837
0
LINE
8
BLACK
6
CONTINUOUS
10
5.33196
20
-4.05837
11
5.3357
21
-4.05976
0
LINE
8
BLACK
6
CONTINUOUS
10
5.3357
20
-4.05976
11
5.336
21
-4.05983
0
LINE
8
BLACK
6
CONTINUOUS
10
5.336
20
-4.05983
11
5.33598
21
-4.05993
0
LINE
8
BLACK
6
CONTINUOUS
10
5.33598
20
-4.05993
11
5.33813
21
-4.06082
0
LINE
8
BLACK
6
CONTINUOUS
10
5.33813
20
-4.06082
11
5.33973
21
-4.06311
0
LINE
8
BLACK
6
CONTINUOUS
10
5.33973
20
-4.06311
11
5.33998
21
-4.06468
0
LINE
8
BLACK
6
CONTINUOUS
10
5.33998
20
-4.06468
11
5.33998
21
-4.10893
0
LINE
8
BLACK
6
CONTINUOUS
10
5.33998
20
-4.10893
11
5.33993
21
-4.10965
0
LINE
8
BLACK
6
CONTINUOUS
10
5.33993
20
-4.10965
11
5.33979
21
-4.1106
0
LINE
8
BLACK
6
CONTINUOUS
10
5.33979
20
-4.1106
11
5.33979
21
-4.1106
0
LINE
8
BLACK
6
CONTINUOUS
10
5.33979
20
-4.1106
11
5.33997
21
-4.11268
0
LINE
8
BLACK
6
CONTINUOUS
10
5.33997
20
-4.11268
11
5.33998
21
-4.1129
0
LINE
8
BLACK
6
CONTINUOUS
10
5.33998
20
-4.1129
11
5.33998
21
-4.11323
0
LINE
8
BLACK
6
CONTINUOUS
10
5.33998
20
-4.11323
11
5.34013
21
-4.11449
0
LINE
8
BLACK
6
CONTINUOUS
10
5.34013
20
-4.11449
11
5.34014
21
-4.11456
0
LINE
8
BLACK
6
CONTINUOUS
10
5.34014
20
-4.11456
11
5.3404
21
-4.11759
0
LINE
8
BLACK
6
CONTINUOUS
10
5.3404
20
-4.11759
11
5.34046
21
-4.11787
0
LINE
8
BLACK
6
CONTINUOUS
10
5.34046
20
-4.11787
11
5.34046
21
-4.11787
0
LINE
8
BLACK
6
CONTINUOUS
10
5.34046
20
-4.11787
11
5.34052
21
-4.11817
0
LINE
8
BLACK
6
CONTINUOUS
10
5.34052
20
-4.11817
11
5.34052
21
-4.11817
0
LINE
8
BLACK
6
CONTINUOUS
10
5.34052
20
-4.11817
11
5.34059
21
-4.11845
0
LINE
8
BLACK
6
CONTINUOUS
10
5.34059
20
-4.11845
11
5.34163
21
-4.1213
0
LINE
8
BLACK
6
CONTINUOUS
10
5.34163
20
-4.1213
11
5.34165
21
-4.12137
0
LINE
8
BLACK
6
CONTINUOUS
10
5.34165
20
-4.12137
11
5.34261
21
-4.12425
0
LINE
8
BLACK
6
CONTINUOUS
10
5.34261
20
-4.12425
11
5.34273
21
-4.12451
0
LINE
8
BLACK
6
CONTINUOUS
10
5.34273
20
-4.12451
11
5.34273
21
-4.12451
0
LINE
8
BLACK
6
CONTINUOUS
10
5.34273
20
-4.12451
11
5.34286
21
-4.12478
0
LINE
8
BLACK
6
CONTINUOUS
10
5.34286
20
-4.12478
11
5.34286
21
-4.12478
0
LINE
8
BLACK
6
CONTINUOUS
10
5.34286
20
-4.12478
11
5.34299
21
-4.12504
0
LINE
8
BLACK
6
CONTINUOUS
10
5.34299
20
-4.12504
11
5.34466
21
-4.12758
0
LINE
8
BLACK
6
CONTINUOUS
10
5.34466
20
-4.12758
11
5.3447
21
-4.12764
0
LINE
8
BLACK
6
CONTINUOUS
10
5.3447
20
-4.12764
11
5.34629
21
-4.13022
0
LINE
8
BLACK
6
CONTINUOUS
10
5.34629
20
-4.13022
11
5.34629
21
-4.13022
0
LINE
8
BLACK
6
CONTINUOUS
10
5.34629
20
-4.13022
11
5.34629
21
-4.13022
0
LINE
8
BLACK
6
CONTINUOUS
10
5.34629
20
-4.13022
11
5.34647
21
-4.13045
0
LINE
8
BLACK
6
CONTINUOUS
10
5.34647
20
-4.13045
11
5.34647
21
-4.13045
0
LINE
8
BLACK
6
CONTINUOUS
10
5.34647
20
-4.13045
11
5.34666
21
-4.13068
0
LINE
8
BLACK
6
CONTINUOUS
10
5.34666
20
-4.13068
11
5.34666
21
-4.13068
0
LINE
8
BLACK
6
CONTINUOUS
10
5.34666
20
-4.13068
11
5.34685
21
-4.1309
0
LINE
8
BLACK
6
CONTINUOUS
10
5.34685
20
-4.1309
11
5.34906
21
-4.13299
0
LINE
8
BLACK
6
CONTINUOUS
10
5.34906
20
-4.13299
11
5.34911
21
-4.13304
0
LINE
8
BLACK
6
CONTINUOUS
10
5.34911
20
-4.13304
11
5.41007
21
-4.194
0
LINE
8
BLACK
6
CONTINUOUS
10
5.41007
20
-4.194
11
5.42388
21
-4.20781
0
LINE
8
BLACK
6
CONTINUOUS
10
5.42388
20
-4.20781
11
5.42509
21
-4.20979
0
LINE
8
BLACK
6
CONTINUOUS
10
5.42509
20
-4.20979
11
5.42714
21
-4.2161
0
LINE
8
BLACK
6
CONTINUOUS
10
5.42714
20
-4.2161
11
5.42714
21
-4.2161
0
LINE
8
BLACK
6
CONTINUOUS
10
5.42714
20
-4.2161
11
5.42932
21
-4.21986
0
LINE
8
BLACK
6
CONTINUOUS
10
5.42932
20
-4.21986
11
5.42998
21
-4.22235
0
LINE
8
BLACK
6
CONTINUOUS
10
5.42998
20
-4.22235
11
5.42998
21
-4.38551
0
LINE
8
BLACK
6
CONTINUOUS
10
5.42998
20
-4.38551
11
5.42919
21
-4.38819
0
LINE
8
BLACK
6
CONTINUOUS
10
5.42919
20
-4.38819
11
5.42853
21
-4.38902
0
LINE
8
BLACK
6
CONTINUOUS
10
5.42853
20
-4.38902
11
5.37902
21
-4.43853
0
LINE
8
BLACK
6
CONTINUOUS
10
5.37902
20
-4.43853
11
5.37657
21
-4.43987
0
LINE
8
BLACK
6
CONTINUOUS
10
5.37657
20
-4.43987
11
5.37551
21
-4.43998
0
LINE
8
BLACK
6
CONTINUOUS
10
5.37551
20
-4.43998
11
5.34114
21
-4.43998
0
LINE
8
BLACK
6
CONTINUOUS
10
5.34114
20
-4.43998
11
5.33846
21
-4.43919
0
LINE
8
BLACK
6
CONTINUOUS
10
5.33846
20
-4.43919
11
5.33823
21
-4.43903
0
LINE
8
BLACK
6
CONTINUOUS
10
5.33823
20
-4.43903
11
5.33798
21
-4.43885
0
LINE
8
BLACK
6
CONTINUOUS
10
5.33798
20
-4.43885
11
5.33111
21
-4.4358
0
LINE
8
BLACK
6
CONTINUOUS
10
5.33111
20
-4.4358
11
5.32376
21
-4.43423
0
LINE
8
BLACK
6
CONTINUOUS
10
5.32376
20
-4.43423
11
5.31624
21
-4.43423
0
LINE
8
BLACK
6
CONTINUOUS
10
5.31624
20
-4.43423
11
5.30889
21
-4.4358
0
LINE
8
BLACK
6
CONTINUOUS
10
5.30889
20
-4.4358
11
5.30202
21
-4.43885
0
LINE
8
BLACK
6
CONTINUOUS
10
5.30202
20
-4.43885
11
5.30177
21
-4.43903
0
LINE
8
BLACK
6
CONTINUOUS
10
5.30177
20
-4.43903
11
5.29914
21
-4.43997
0
LINE
8
BLACK
6
CONTINUOUS
10
5.29914
20
-4.43997
11
5.29886
21
-4.43998
0
LINE
8
BLACK
6
CONTINUOUS
10
5.29886
20
-4.43998
11
5.28836
21
-4.43998
0
LINE
8
BLACK
6
CONTINUOUS
10
5.28836
20
-4.43998
11
5.28568
21
-4.43919
0
LINE
8
BLACK
6
CONTINUOUS
10
5.28568
20
-4.43919
11
5.28419
21
-4.4377
0
LINE
8
BLACK
6
CONTINUOUS
10
5.28419
20
-4.4377
11
5.2832
21
-4.43616
0
LINE
8
BLACK
6
CONTINUOUS
10
5.2832
20
-4.43616
11
5.2832
21
-4.43616
0
LINE
8
BLACK
6
CONTINUOUS
10
5.2832
20
-4.43616
11
5.28165
21
-4.43438
0
LINE
8
BLACK
6
CONTINUOUS
10
5.28165
20
-4.43438
11
5.27955
21
-4.43195
0
LINE
8
BLACK
6
CONTINUOUS
10
5.27955
20
-4.43195
11
5.27952
21
-4.43191
0
LINE
8
BLACK
6
CONTINUOUS
10
5.27952
20
-4.43191
11
5.27949
21
-4.43188
0
LINE
8
BLACK
6
CONTINUOUS
10
5.27949
20
-4.43188
11
5.27514
21
-4.42811
0
LINE
8
BLACK
6
CONTINUOUS
10
5.27514
20
-4.42811
11
5.27514
21
-4.42811
0
LINE
8
BLACK
6
CONTINUOUS
10
5.27514
20
-4.42811
11
5.27514
21
-4.42811
0
LINE
8
BLACK
6
CONTINUOUS
10
5.27514
20
-4.42811
11
5.27212
21
-4.42617
0
LINE
8
BLACK
6
CONTINUOUS
10
5.27212
20
-4.42617
11
5.27038
21
-4.42505
0
LINE
8
BLACK
6
CONTINUOUS
10
5.27038
20
-4.42505
11
5.26514
21
-4.42266
0
LINE
8
BLACK
6
CONTINUOUS
10
5.26514
20
-4.42266
11
5.25971
21
-4.42107
0
LINE
8
BLACK
6
CONTINUOUS
10
5.25971
20
-4.42107
11
5.25971
21
-4.42107
0
LINE
8
BLACK
6
CONTINUOUS
10
5.25971
20
-4.42107
11
5.25971
21
-4.42107
0
LINE
8
BLACK
6
CONTINUOUS
10
5.25971
20
-4.42107
11
5.25401
21
-4.42025
0
LINE
8
BLACK
6
CONTINUOUS
10
5.25401
20
-4.42025
11
5.22953
21
-4.42025
0
LINE
8
BLACK
6
CONTINUOUS
10
5.22953
20
-4.42025
11
5.22737
21
-4.4204
0
LINE
8
BLACK
6
CONTINUOUS
10
5.22737
20
-4.4204
11
5.22665
21
-4.42045
0
LINE
8
BLACK
6
CONTINUOUS
10
5.22665
20
-4.42045
11
5.22624
21
-4.42057
0
LINE
8
BLACK
6
CONTINUOUS
10
5.22624
20
-4.42057
11
5.22431
21
-4.42063
0
LINE
8
BLACK
6
CONTINUOUS
10
5.22431
20
-4.42063
11
5.22429
21
-4.42074
0
LINE
8
BLACK
6
CONTINUOUS
10
5.22429
20
-4.42074
11
5.2216
21
-4.42045
0
LINE
8
BLACK
6
CONTINUOUS
10
5.2216
20
-4.42045
11
5.2216
21
-4.42045
0
LINE
8
BLACK
6
CONTINUOUS
10
5.2216
20
-4.42045
11
5.1784
21
-4.42045
0
LINE
8
BLACK
6
CONTINUOUS
10
5.1784
20
-4.42045
11
5.1784
21
-4.42045
0
LINE
8
BLACK
6
CONTINUOUS
10
5.1784
20
-4.42045
11
5.17602
21
-4.42071
0
LINE
8
BLACK
6
CONTINUOUS
10
5.17602
20
-4.42071
11
5.17602
21
-4.42071
0
LINE
8
BLACK
6
CONTINUOUS
10
5.17602
20
-4.42071
11
5.17062
21
-4.42272
0
LINE
8
BLACK
6
CONTINUOUS
10
5.17062
20
-4.42272
11
5.17062
21
-4.42272
0
LINE
8
BLACK
6
CONTINUOUS
10
5.17062
20
-4.42272
11
5.16601
21
-4.42617
0
LINE
8
BLACK
6
CONTINUOUS
10
5.16601
20
-4.42617
11
5.16256
21
-4.43078
0
LINE
8
BLACK
6
CONTINUOUS
10
5.16256
20
-4.43078
11
5.16256
21
-4.43078
0
LINE
8
BLACK
6
CONTINUOUS
10
5.16256
20
-4.43078
11
5.16055
21
-4.43617
0
LINE
8
BLACK
6
CONTINUOUS
10
5.16055
20
-4.43617
11
5.16055
21
-4.43617
0
LINE
8
BLACK
6
CONTINUOUS
10
5.16055
20
-4.43617
11
5.1603
21
-4.43856
0
LINE
8
BLACK
6
CONTINUOUS
10
5.1603
20
-4.43856
11
5.1603
21
-4.44047
0
LINE
8
BLACK
6
CONTINUOUS
10
5.1603
20
-4.44047
11
5.17047
21
-4.44047
0
LINE
8
BLACK
6
CONTINUOUS
10
5.17047
20
-4.44047
11
5.17047
21
-4.45819
0
LINE
8
BLACK
6
CONTINUOUS
10
5.17047
20
-4.45819
11
5.18031
21
-4.45819
0
LINE
8
BLACK
6
CONTINUOUS
10
5.18031
20
-4.45819
11
5.18031
21
-4.44047
0
LINE
8
BLACK
6
CONTINUOUS
10
5.18031
20
-4.44047
11
5.21969
21
-4.44047
0
LINE
8
BLACK
6
CONTINUOUS
10
5.21969
20
-4.44047
11
5.21969
21
-4.49953
0
LINE
8
BLACK
6
CONTINUOUS
10
5.21969
20
-4.49953
11
5.20787
21
-4.49953
0
LINE
8
BLACK
6
CONTINUOUS
10
5.20787
20
-4.49953
11
5.20787
21
-4.51
0
LINE
8
BLACK
6
CONTINUOUS
10
5.20787
20
-4.51
11
5.20758
21
-4.51129
0
LINE
8
BLACK
6
CONTINUOUS
10
5.20758
20
-4.51129
11
5.20743
21
-4.5126
0
LINE
8
BLACK
6
CONTINUOUS
10
5.20743
20
-4.5126
11
5.20719
21
-4.51298
0
LINE
8
BLACK
6
CONTINUOUS
10
5.20719
20
-4.51298
11
5.20709
21
-4.51342
0
LINE
8
BLACK
6
CONTINUOUS
10
5.20709
20
-4.51342
11
5.20627
21
-4.51445
0
LINE
8
BLACK
6
CONTINUOUS
10
5.20627
20
-4.51445
11
5.20557
21
-4.51557
0
LINE
8
BLACK
6
CONTINUOUS
10
5.20557
20
-4.51557
11
5.18557
21
-4.53557
0
LINE
8
BLACK
6
CONTINUOUS
10
5.18557
20
-4.53557
11
5.18445
21
-4.53627
0
LINE
8
BLACK
6
CONTINUOUS
10
5.18445
20
-4.53627
11
5.18342
21
-4.53709
0
LINE
8
BLACK
6
CONTINUOUS
10
5.18342
20
-4.53709
11
5.18298
21
-4.53719
0
LINE
8
BLACK
6
CONTINUOUS
10
5.18298
20
-4.53719
11
5.1826
21
-4.53743
0
LINE
8
BLACK
6
CONTINUOUS
10
5.1826
20
-4.53743
11
5.18129
21
-4.53758
0
LINE
8
BLACK
6
CONTINUOUS
10
5.18129
20
-4.53758
11
5.18
21
-4.53787
0
LINE
8
BLACK
6
CONTINUOUS
10
5.18
20
-4.53787
11
5.07
21
-4.53787
0
LINE
8
BLACK
6
CONTINUOUS
10
5.07
20
-4.53787
11
5.06871
21
-4.53758
0
LINE
8
BLACK
6
CONTINUOUS
10
5.06871
20
-4.53758
11
5.0674
21
-4.53743
0
LINE
8
BLACK
6
CONTINUOUS
10
5.0674
20
-4.53743
11
5.06702
21
-4.53719
0
LINE
8
BLACK
6
CONTINUOUS
10
5.06702
20
-4.53719
11
5.06658
21
-4.53709
0
LINE
8
BLACK
6
CONTINUOUS
10
5.06658
20
-4.53709
11
5.06555
21
-4.53627
0
LINE
8
BLACK
6
CONTINUOUS
10
5.06555
20
-4.53627
11
5.06443
21
-4.53557
0
LINE
8
BLACK
6
CONTINUOUS
10
5.06443
20
-4.53557
11
5.00443
21
-4.47557
0
LINE
8
BLACK
6
CONTINUOUS
10
5.00443
20
-4.47557
11
5.00373
21
-4.47445
0
LINE
8
BLACK
6
CONTINUOUS
10
5.00373
20
-4.47445
11
5.00291
21
-4.47342
0
LINE
8
BLACK
6
CONTINUOUS
10
5.00291
20
-4.47342
11
5.00281
21
-4.47298
0
LINE
8
BLACK
6
CONTINUOUS
10
5.00281
20
-4.47298
11
5.00257
21
-4.4726
0
LINE
8
BLACK
6
CONTINUOUS
10
5.00257
20
-4.4726
11
5.00242
21
-4.47129
0
LINE
8
BLACK
6
CONTINUOUS
10
5.00242
20
-4.47129
11
5.00213
21
-4.47
0
LINE
8
BLACK
6
CONTINUOUS
10
5.00213
20
-4.47
11
5.00213
21
-4.42344
0
LINE
8
BLACK
6
CONTINUOUS
10
5.00213
20
-4.42344
11
5.00074
21
-4.42274
0
LINE
8
BLACK
6
CONTINUOUS
10
5.00074
20
-4.42274
11
4.99726
21
-4.41926
0
LINE
8
BLACK
6
CONTINUOUS
10
4.99726
20
-4.41926
11
4.99502
21
-4.41487
0
LINE
8
BLACK
6
CONTINUOUS
10
4.99502
20
-4.41487
11
4.99425
21
-4.41
0
LINE
8
BLACK
6
CONTINUOUS
10
4.99425
20
-4.41
11
4.99502
21
-4.40513
0
LINE
8
BLACK
6
CONTINUOUS
10
4.99502
20
-4.40513
11
4.99726
21
-4.40074
0
LINE
8
BLACK
6
CONTINUOUS
10
4.99726
20
-4.40074
11
5.00074
21
-4.39726
0
LINE
8
BLACK
6
CONTINUOUS
10
5.00074
20
-4.39726
11
5.00213
21
-4.39656
0
LINE
8
BLACK
6
CONTINUOUS
10
5.00213
20
-4.39656
11
5.00213
21
-4.04
0
LINE
8
BLACK
6
CONTINUOUS
10
5.00213
20
-4.04
11
5
21
-4.04
0
LINE
8
BLACK
6
CONTINUOUS
10
5
20
-4.04
11
5
21
-3.98
0
LINE
8
BLACK
6
CONTINUOUS
10
5
20
-3.98
11
5.06
21
-3.98
0
LINE
8
BLACK
6
CONTINUOUS
10
5.06
20
-3.98
11
5.06
21
-4.04
0
LINE
8
BLACK
6
CONTINUOUS
10
5.06
20
-4.04
11
5.01787
21
-4.04
0
LINE
8
BLACK
6
CONTINUOUS
10
5.01787
20
-4.04
11
5.01787
21
-4.39656
0
LINE
8
BLACK
6
CONTINUOUS
10
5.01787
20
-4.39656
11
5.01926
21
-4.39726
0
LINE
8
BLACK
6
CONTINUOUS
10
5.01926
20
-4.39726
11
5.02274
21
-4.40074
0
LINE
8
BLACK
6
CONTINUOUS
10
5.02274
20
-4.40074
11
5.02498
21
-4.40513
0
LINE
8
BLACK
6
CONTINUOUS
10
5.02498
20
-4.40513
11
5.02575
21
-4.41
0
LINE
8
BLACK
6
CONTINUOUS
10
5.02575
20
-4.41
11
5.02498
21
-4.41487
0
LINE
8
BLACK
6
CONTINUOUS
10
5.02498
20
-4.41487
11
5.02274
21
-4.41926
0
LINE
8
BLACK
6
CONTINUOUS
10
5.02274
20
-4.41926
11
5.01926
21
-4.42274
0
LINE
8
BLACK
6
CONTINUOUS
10
5.01926
20
-4.42274
11
5.01787
21
-4.42344
0
LINE
8
BLACK
6
CONTINUOUS
10
5.01787
20
-4.42344
11
5.01787
21
-4.46674
0
LINE
8
BLACK
6
CONTINUOUS
10
5.01787
20
-4.46674
11
5.07326
21
-4.52213
0
LINE
8
BLACK
6
CONTINUOUS
10
5.07326
20
-4.52213
11
5.17674
21
-4.52213
0
LINE
8
BLACK
6
CONTINUOUS
10
5.17674
20
-4.52213
11
5.19213
21
-4.50674
0
LINE
8
BLACK
6
CONTINUOUS
10
5.19213
20
-4.50674
11
5.19213
21
-4.49953
0
LINE
8
BLACK
6
CONTINUOUS
10
5.19213
20
-4.49953
11
5.18031
21
-4.49953
0
LINE
8
BLACK
6
CONTINUOUS
10
5.18031
20
-4.49953
11
5.18031
21
-4.48181
0
LINE
8
BLACK
6
CONTINUOUS
10
5.18031
20
-4.48181
11
5.17047
21
-4.48181
0
LINE
8
BLACK
6
CONTINUOUS
10
5.17047
20
-4.48181
11
5.17047
21
-4.49953
0
LINE
8
BLACK
6
CONTINUOUS
10
5.17047
20
-4.49953
11
5.1596
21
-4.49953
0
LINE
8
BLACK
6
CONTINUOUS
10
5.1596
20
-4.49953
11
5.15951
21
-4.49983
0
LINE
8
BLACK
6
CONTINUOUS
10
5.15951
20
-4.49983
11
5.1574
21
-4.50166
0
LINE
8
BLACK
6
CONTINUOUS
10
5.1574
20
-4.50166
11
5.15533
21
-4.50211
0
LINE
8
BLACK
6
CONTINUOUS
10
5.15533
20
-4.50211
11
5.08361
21
-4.50211
0
LINE
8
BLACK
6
CONTINUOUS
10
5.08361
20
-4.50211
11
5.08093
21
-4.50132
0
LINE
8
BLACK
6
CONTINUOUS
10
5.08093
20
-4.50132
11
5.0801
21
-4.50065
0
LINE
8
BLACK
6
CONTINUOUS
10
5.0801
20
-4.50065
11
5.03935
21
-4.4599
0
LINE
8
BLACK
6
CONTINUOUS
10
5.03935
20
-4.4599
11
5.03801
21
-4.45745
0
LINE
8
BLACK
6
CONTINUOUS
10
5.03801
20
-4.45745
11
5.03789
21
-4.45639
0
LINE
8
BLACK
6
CONTINUOUS
10
5.03789
20
-4.45639
11
5.03789
21
-4.43438
0
LINE
8
BLACK
6
CONTINUOUS
10
5.03789
20
-4.43438
11
5.03868
21
-4.4317
0
LINE
8
BLACK
6
CONTINUOUS
10
5.03868
20
-4.4317
11
5.03895
21
-4.43135
0
LINE
8
BLACK
6
CONTINUOUS
10
5.03895
20
-4.43135
11
5.03894
21
-4.43135
0
LINE
8
BLACK
6
CONTINUOUS
10
5.03894
20
-4.43135
11
5.0391
21
-4.43114
0
LINE
8
BLACK
6
CONTINUOUS
10
5.0391
20
-4.43114
11
5.0391
21
-4.43114
0
LINE
8
BLACK
6
CONTINUOUS
10
5.0391
20
-4.43114
11
5.04286
21
-4.42463
0
LINE
8
BLACK
6
CONTINUOUS
10
5.04286
20
-4.42463
11
5.04518
21
-4.41748
0
LINE
8
BLACK
6
CONTINUOUS
10
5.04518
20
-4.41748
11
5.04596
21
-4.41
0
LINE
8
BLACK
6
CONTINUOUS
10
5.04596
20
-4.41
11
5.04518
21
-4.40252
0
LINE
8
BLACK
6
CONTINUOUS
10
5.04518
20
-4.40252
11
5.04286
21
-4.39537
0
LINE
8
BLACK
6
CONTINUOUS
10
5.04286
20
-4.39537
11
5.0391
21
-4.38886
0
LINE
8
BLACK
6
CONTINUOUS
10
5.0391
20
-4.38886
11
5.0391
21
-4.38886
0
LINE
8
BLACK
6
CONTINUOUS
10
5.0391
20
-4.38886
11
5.03894
21
-4.38865
0
LINE
8
BLACK
6
CONTINUOUS
10
5.03894
20
-4.38865
11
5.03901
21
-4.3886
0
LINE
8
BLACK
6
CONTINUOUS
10
5.03901
20
-4.3886
11
5.03796
21
-4.38642
0
LINE
8
BLACK
6
CONTINUOUS
10
5.03796
20
-4.38642
11
5.03789
21
-4.38562
0
LINE
8
BLACK
6
CONTINUOUS
10
5.03789
20
-4.38562
11
5.03789
21
-4.06498
0
LINE
8
BLACK
6
CONTINUOUS
10
5.03789
20
-4.06498
11
5.03868
21
-4.0623
0
LINE
8
BLACK
6
CONTINUOUS
10
5.03868
20
-4.0623
11
5.04079
21
-4.06047
0
LINE
8
BLACK
6
CONTINUOUS
10
5.04079
20
-4.06047
11
5.04285
21
-4.06002
0
LINE
8
BLACK
6
CONTINUOUS
10
5.04285
20
-4.06002
11
5.06191
21
-4.06002
0
LINE
8
BLACK
6
CONTINUOUS
10
5.06191
20
-4.06002
11
5.06191
21
-4.06002
0
LINE
8
BLACK
6
CONTINUOUS
10
5.06191
20
-4.06002
11
5.06192
21
-4.06002
0
LINE
8
BLACK
6
CONTINUOUS
10
5.06192
20
-4.06002
11
5.06192
21
-4.06002
0
LINE
8
BLACK
6
CONTINUOUS
10
5.06192
20
-4.06002
11
5.0643
21
-4.05976
0
LINE
8
BLACK
6
CONTINUOUS
10
5.0643
20
-4.05976
11
5.0643
21
-4.05976
0
LINE
8
BLACK
6
CONTINUOUS
10
5.0643
20
-4.05976
11
5.0643
21
-4.05976
0
LINE
8
BLACK
6
CONTINUOUS
10
5.0643
20
-4.05976
11
5.06969
21
-4.05775
0
LINE
8
BLACK
6
CONTINUOUS
10
5.06969
20
-4.05775
11
5.06972
21
-4.05773
0
LINE
8
BLACK
6
CONTINUOUS
10
5.06972
20
-4.05773
11
5.0743
21
-4.0543
0
LINE
8
BLACK
6
CONTINUOUS
10
5.0743
20
-4.0543
11
5.07775
21
-4.04969
0
LINE
8
BLACK
6
CONTINUOUS
10
5.07775
20
-4.04969
11
5.07775
21
-4.04969
0
LINE
8
BLACK
6
CONTINUOUS
10
5.07775
20
-4.04969
11
5.07775
21
-4.04969
0
LINE
8
BLACK
6
CONTINUOUS
10
5.07775
20
-4.04969
11
5.07976
21
-4.0443
0
LINE
8
BLACK
6
CONTINUOUS
10
5.07976
20
-4.0443
11
5.08002
21
-4.04191
0
LINE
8
BLACK
6
CONTINUOUS
10
5.08002
20
-4.04191
11
5.08002
21
-3.97809
0
LINE
8
BLACK
6
CONTINUOUS
10
5.08002
20
-3.97809
11
5.07976
21
-3.9757
0
LINE
8
BLACK
6
CONTINUOUS
10
5.07976
20
-3.9757
11
5.07976
21
-3.9757
0
LINE
8
BLACK
6
CONTINUOUS
10
5.07976
20
-3.9757
11
5.07976
21
-3.9757
0
LINE
8
BLACK
6
CONTINUOUS
10
5.07976
20
-3.9757
11
5.07776
21
-3.97032
0
LINE
8
BLACK
6
CONTINUOUS
10
5.07776
20
-3.97032
11
5.07775
21
-3.97031
0
LINE
8
BLACK
6
CONTINUOUS
10
5.07775
20
-3.97031
11
5.07775
21
-3.97031
0
LINE
8
BLACK
6
CONTINUOUS
10
5.07775
20
-3.97031
11
5.07775
21
-3.97031
0
LINE
8
BLACK
6
CONTINUOUS
10
5.07775
20
-3.97031
11
5.07431
21
-3.96571
0
LINE
8
BLACK
6
CONTINUOUS
10
5.07431
20
-3.96571
11
5.0743
21
-3.9657
0
LINE
8
BLACK
6
CONTINUOUS
10
5.0743
20
-3.9657
11
5.0743
21
-3.9657
0
LINE
8
BLACK
6
CONTINUOUS
10
5.0743
20
-3.9657
11
5.07198
21
-3.96396
0
LINE
8
BLACK
6
CONTINUOUS
10
5.07198
20
-3.96396
11
5.0703
21
-3.96172
0
LINE
8
BLACK
6
CONTINUOUS
10
5.0703
20
-3.96172
11
5.0701
21
-3.95893
0
LINE
8
BLACK
6
CONTINUOUS
10
5.0701
20
-3.95893
11
5.07144
21
-3.95648
0
LINE
8
BLACK
6
CONTINUOUS
10
5.07144
20
-3.95648
11
5.07198
21
-3.95602
0
LINE
8
BLACK
6
CONTINUOUS
10
5.07198
20
-3.95602
11
5.07429
21
-3.95429
0
LINE
8
BLACK
6
CONTINUOUS
10
5.07429
20
-3.95429
11
5.07773
21
-3.94968
0
LINE
8
BLACK
6
CONTINUOUS
10
5.07773
20
-3.94968
11
5.07773
21
-3.94968
0
LINE
8
BLACK
6
CONTINUOUS
10
5.07773
20
-3.94968
11
5.07974
21
-3.94429
0
LINE
8
BLACK
6
CONTINUOUS
10
5.07974
20
-3.94429
11
5.08
21
-3.94191
0
LINE
8
BLACK
6
CONTINUOUS
10
5.08
20
-3.94191
11
5.08
21
-3.94191
0
LINE
8
BLACK
6
CONTINUOUS
10
5.08
20
-3.94191
11
5.08
21
-3.92
0
LINE
8
BLACK
6
CONTINUOUS
10
5.08
20
-3.92
11
5.06
21
-3.92
0
LINE
8
BLACK
6
CONTINUOUS
10
5.06
20
-3.92
11
5.06
21
-3.94
0
LINE
8
BLACK
6
CONTINUOUS
10
5.06
20
-3.94
11
5
21
-3.94
0
LINE
8
BLACK
6
CONTINUOUS
10
5
20
-3.94
11
5
21
-3.88
0
LINE
8
BLACK
6
CONTINUOUS
10
5
20
-3.88
11
5.06
21
-3.88
0
LINE
8
BLACK
6
CONTINUOUS
10
5.06
20
-3.88
11
5.06
21
-3.9
0
LINE
8
BLACK
6
CONTINUOUS
10
5.12
20
-4.02
11
5.12
21
-4.04191
0
LINE
8
BLACK
6
CONTINUOUS
10
5.12
20
-4.04191
11
5.12026
21
-4.04429
0
LINE
8
BLACK
6
CONTINUOUS
10
5.12026
20
-4.04429
11
5.12227
21
-4.04968
0
LINE
8
BLACK
6
CONTINUOUS
10
5.12227
20
-4.04968
11
5.12227
21
-4.04968
0
LINE
8
BLACK
6
CONTINUOUS
10
5.12227
20
-4.04968
11
5.12571
21
-4.05429
0
LINE
8
BLACK
6
CONTINUOUS
10
5.12571
20
-4.05429
11
5.13032
21
-4.05773
0
LINE
8
BLACK
6
CONTINUOUS
10
5.13032
20
-4.05773
11
5.1357
21
-4.05974
0
LINE
8
BLACK
6
CONTINUOUS
10
5.1357
20
-4.05974
11
5.13809
21
-4.06
0
LINE
8
BLACK
6
CONTINUOUS
10
5.13809
20
-4.06
11
5.13809
21
-4.06
0
LINE
8
BLACK
6
CONTINUOUS
10
5.13809
20
-4.06
11
5.16
21
-4.06
0
LINE
8
BLACK
6
CONTINUOUS
10
5.16
20
-4.06
11
5.16
21
-4.04
0
LINE
8
BLACK
6
CONTINUOUS
10
5.16
20
-4.04
11
5.14
21
-4.04
0
LINE
8
BLACK
6
CONTINUOUS
10
5.14
20
-4.04
11
5.14
21
-4.02
0
LINE
8
BLACK
6
CONTINUOUS
10
5.14
20
-4.02
11
5.12
21
-4.02
0
LINE
8
BLACK
6
CONTINUOUS
10
5.12
20
-3.92
11
5.12
21
-3.94191
0
LINE
8
BLACK
6
CONTINUOUS
10
5.12
20
-3.94191
11
5.12026
21
-3.94429
0
LINE
8
BLACK
6
CONTINUOUS
10
5.12026
20
-3.94429
11
5.12227
21
-3.94968
0
LINE
8
BLACK
6
CONTINUOUS
10
5.12227
20
-3.94968
11
5.12227
21
-3.94968
0
LINE
8
BLACK
6
CONTINUOUS
10
5.12227
20
-3.94968
11
5.12571
21
-3.95429
0
LINE
8
BLACK
6
CONTINUOUS
10
5.12571
20
-3.95429
11
5.12804
21
-3.95603
0
LINE
8
BLACK
6
CONTINUOUS
10
5.12804
20
-3.95603
11
5.12971
21
-3.95827
0
LINE
8
BLACK
6
CONTINUOUS
10
5.12971
20
-3.95827
11
5.12991
21
-3.96105
0
LINE
8
BLACK
6
CONTINUOUS
10
5.12991
20
-3.96105
11
5.12857
21
-3.96351
0
LINE
8
BLACK
6
CONTINUOUS
10
5.12857
20
-3.96351
11
5.12804
21
-3.96397
0
LINE
8
BLACK
6
CONTINUOUS
10
5.12804
20
-3.96397
11
5.12571
21
-3.96571
0
LINE
8
BLACK
6
CONTINUOUS
10
5.12571
20
-3.96571
11
5.12227
21
-3.97032
0
LINE
8
BLACK
6
CONTINUOUS
10
5.12227
20
-3.97032
11
5.12227
21
-3.97032
0
LINE
8
BLACK
6
CONTINUOUS
10
5.12227
20
-3.97032
11
5.12026
21
-3.9757
0
LINE
8
BLACK
6
CONTINUOUS
10
5.12026
20
-3.9757
11
5.12
21
-3.97809
0
LINE
8
BLACK
6
CONTINUOUS
10
5.12
20
-3.97809
11
5.12
21
-4
0
LINE
8
BLACK
6
CONTINUOUS
10
5.12
20
-4
11
5.14
21
-4
0
LINE
8
BLACK
6
CONTINUOUS
10
5.14
20
-4
11
5.14
21
-3.98
0
LINE
8
BLACK
6
CONTINUOUS
10
5.14
20
-3.98
11
5.16
21
-3.98
0
LINE
8
BLACK
6
CONTINUOUS
10
5.16
20
-3.98
11
5.16
21
-3.94
0
LINE
8
BLACK
6
CONTINUOUS
10
5.16
20
-3.94
11
5.14
21
-3.94
0
LINE
8
BLACK
6
CONTINUOUS
10
5.14
20
-3.94
11
5.14
21
-3.92
0
LINE
8
BLACK
6
CONTINUOUS
10
5.14
20
-3.92
11
5.12
21
-3.92
0
LINE
8
BLACK
6
CONTINUOUS
10
5.4
20
-4.04
11
5.38
21
-4.04
0
LINE
8
BLACK
6
CONTINUOUS
10
5.38
20
-4.04
11
5.38
21
-4.10733
0
LINE
8
BLACK
6
CONTINUOUS
10
5.38
20
-4.10733
11
5.45861
21
-4.18595
0
LINE
8
BLACK
6
CONTINUOUS
10
5.45861
20
-4.18595
11
5.46
21
-4.18573
0
LINE
8
BLACK
6
CONTINUOUS
10
5.46
20
-4.18573
11
5.46487
21
-4.1865
0
LINE
8
BLACK
6
CONTINUOUS
10
5.46487
20
-4.1865
11
5.46926
21
-4.18874
0
LINE
8
BLACK
6
CONTINUOUS
10
5.46926
20
-4.18874
11
5.47274
21
-4.19222
0
LINE
8
BLACK
6
CONTINUOUS
10
5.47274
20
-4.19222
11
5.47498
21
-4.19661
0
LINE
8
BLACK
6
CONTINUOUS
10
5.47498
20
-4.19661
11
5.47575
21
-4.20148
0
LINE
8
BLACK
6
CONTINUOUS
10
5.47575
20
-4.20148
11
5.47498
21
-4.20634
0
LINE
8
BLACK
6
CONTINUOUS
10
5.47498
20
-4.20634
11
5.47274
21
-4.21073
0
LINE
8
BLACK
6
CONTINUOUS
10
5.47274
20
-4.21073
11
5.47
21
-4.21347
0
LINE
8
BLACK
6
CONTINUOUS
10
5.47
20
-4.21347
11
5.47
21
-4.4
0
LINE
8
BLACK
6
CONTINUOUS
10
5.47
20
-4.4
11
5.46924
21
-4.40383
0
LINE
8
BLACK
6
CONTINUOUS
10
5.46924
20
-4.40383
11
5.46707
21
-4.40707
0
LINE
8
BLACK
6
CONTINUOUS
10
5.46707
20
-4.40707
11
5.39707
21
-4.47707
0
LINE
8
BLACK
6
CONTINUOUS
10
5.39707
20
-4.47707
11
5.39383
21
-4.47924
0
LINE
8
BLACK
6
CONTINUOUS
10
5.39383
20
-4.47924
11
5.39
21
-4.48
0
LINE
8
BLACK
6
CONTINUOUS
10
5.39
20
-4.48
11
5.332
21
-4.48
0
LINE
8
BLACK
6
CONTINUOUS
10
5.332
20
-4.48
11
5.32926
21
-4.48274
0
LINE
8
BLACK
6
CONTINUOUS
10
5.32926
20
-4.48274
11
5.32487
21
-4.48498
0
LINE
8
BLACK
6
CONTINUOUS
10
5.32487
20
-4.48498
11
5.32
21
-4.48575
0
LINE
8
BLACK
6
CONTINUOUS
10
5.32
20
-4.48575
11
5.31513
21
-4.48498
0
LINE
8
BLACK
6
CONTINUOUS
10
5.31513
20
-4.48498
11
5.31074
21
-4.48274
0
LINE
8
BLACK
6
CONTINUOUS
10
5.31074
20
-4.48274
11
5.308
21
-4.48
0
LINE
8
BLACK
6
CONTINUOUS
10
5.308
20
-4.48
11
5.27084
21
-4.48
0
LINE
8
BLACK
6
CONTINUOUS
10
5.27084
20
-4.48
11
5.27007
21
-4.48539
0
LINE
8
BLACK
6
CONTINUOUS
10
5.27007
20
-4.48539
11
5.26774
21
-4.49049
0
LINE
8
BLACK
6
CONTINUOUS
10
5.26774
20
-4.49049
11
5.26407
21
-4.49472
0
LINE
8
BLACK
6
CONTINUOUS
10
5.26407
20
-4.49472
11
5.25936
21
-4.49775
0
LINE
8
BLACK
6
CONTINUOUS
10
5.25936
20
-4.49775
11
5.25398
21
-4.49933
0
LINE
8
BLACK
6
CONTINUOUS
10
5.25398
20
-4.49933
11
5.25118
21
-4.49933
0
LINE
8
BLACK
6
CONTINUOUS
10
5.25118
20
-4.49933
11
5.25118
21
-4.49953
0
LINE
8
BLACK
6
CONTINUOUS
10
5.25118
20
-4.49953
11
5.22953
21
-4.49953
0
LINE
8
BLACK
6
CONTINUOUS
10
5.22953
20
-4.49953
11
5.22953
21
-4.44047
0
LINE
8
BLACK
6
CONTINUOUS
10
5.22953
20
-4.44047
11
5.25118
21
-4.44047
0
LINE
8
BLACK
6
CONTINUOUS
10
5.25118
20
-4.44047
11
5.25118
21
-4.44067
0
LINE
8
BLACK
6
CONTINUOUS
10
5.25118
20
-4.44067
11
5.25398
21
-4.44067
0
LINE
8
BLACK
6
CONTINUOUS
10
5.25398
20
-4.44067
11
5.25936
21
-4.44225
0
LINE
8
BLACK
6
CONTINUOUS
10
5.25936
20
-4.44225
11
5.26407
21
-4.44528
0
LINE
8
BLACK
6
CONTINUOUS
10
5.26407
20
-4.44528
11
5.26774
21
-4.44951
0
LINE
8
BLACK
6
CONTINUOUS
10
5.26774
20
-4.44951
11
5.27007
21
-4.45461
0
LINE
8
BLACK
6
CONTINUOUS
10
5.27007
20
-4.45461
11
5.27084
21
-4.46
0
LINE
8
BLACK
6
CONTINUOUS
10
5.27084
20
-4.46
11
5.308
21
-4.46
0
LINE
8
BLACK
6
CONTINUOUS
10
5.308
20
-4.46
11
5.31074
21
-4.45726
0
LINE
8
BLACK
6
CONTINUOUS
10
5.31074
20
-4.45726
11
5.31513
21
-4.45502
0
LINE
8
BLACK
6
CONTINUOUS
10
5.31513
20
-4.45502
11
5.32
21
-4.45425
0
LINE
8
BLACK
6
CONTINUOUS
10
5.32
20
-4.45425
11
5.32487
21
-4.45502
0
LINE
8
BLACK
6
CONTINUOUS
10
5.32487
20
-4.45502
11
5.32926
21
-4.45726
0
LINE
8
BLACK
6
CONTINUOUS
10
5.32926
20
-4.45726
11
5.332
21
-4.46
0
LINE
8
BLACK
6
CONTINUOUS
10
5.332
20
-4.46
11
5.38586
21
-4.46
0
LINE
8
BLACK
6
CONTINUOUS
10
5.38586
20
-4.46
11
5.45
21
-4.39586
0
LINE
8
BLACK
6
CONTINUOUS
10
5.45
20
-4.39586
11
5.45
21
-4.21347
0
LINE
8
BLACK
6
CONTINUOUS
10
5.45
20
-4.21347
11
5.44726
21
-4.21073
0
LINE
8
BLACK
6
CONTINUOUS
10
5.44726
20
-4.21073
11
5.44502
21
-4.20634
0
LINE
8
BLACK
6
CONTINUOUS
10
5.44502
20
-4.20634
11
5.44425
21
-4.20148
0
LINE
8
BLACK
6
CONTINUOUS
10
5.44425
20
-4.20148
11
5.44447
21
-4.20009
0
LINE
8
BLACK
6
CONTINUOUS
10
5.44447
20
-4.20009
11
5.36293
21
-4.11855
0
LINE
8
BLACK
6
CONTINUOUS
10
5.36293
20
-4.11855
11
5.36229
21
-4.11759
0
LINE
8
BLACK
6
CONTINUOUS
10
5.36229
20
-4.11759
11
5.36076
21
-4.1153
0
LINE
8
BLACK
6
CONTINUOUS
10
5.36076
20
-4.1153
11
5.36
21
-4.11148
0
LINE
8
BLACK
6
CONTINUOUS
10
5.36
20
-4.11148
11
5.36
21
-4.04
0
LINE
8
BLACK
6
CONTINUOUS
10
5.36
20
-4.04
11
5.34
21
-4.04
0
LINE
8
BLACK
6
CONTINUOUS
10
5.34
20
-4.04
11
5.34
21
-3.98
0
LINE
8
BLACK
6
CONTINUOUS
10
5.34
20
-3.98
11
5.4
21
-3.98
0
LINE
8
BLACK
6
CONTINUOUS
10
5.4
20
-3.98
11
5.4
21
-4.04
0
LINE
8
BLACK
6
CONTINUOUS
10
4.86
20
-4.04
11
4.8
21
-4.04
0
LINE
8
BLACK
6
CONTINUOUS
10
4.8
20
-4.04
11
4.8
21
-3.98
0
LINE
8
BLACK
6
CONTINUOUS
10
4.8
20
-3.98
11
4.86
21
-3.98
0
LINE
8
BLACK
6
CONTINUOUS
10
4.86
20
-3.98
11
4.86
21
-4.04
0
LINE
8
BLACK
6
CONTINUOUS
10
4.96
20
-4.04
11
4.9
21
-4.04
0
LINE
8
BLACK
6
CONTINUOUS
10
4.9
20
-4.04
11
4.9
21
-3.98
0
LINE
8
BLACK
6
CONTINUOUS
10
4.9
20
-3.98
11
4.96
21
-3.98
0
LINE
8
BLACK
6
CONTINUOUS
10
4.96
20
-3.98
11
4.96
21
-4.04
0
LINE
8
BLACK
6
CONTINUOUS
10
5.3
20
-4.04
11
5.24
21
-4.04
0
LINE
8
BLACK
6
CONTINUOUS
10
5.24
20
-4.04
11
5.24
21
-3.98
0
LINE
8
BLACK
6
CONTINUOUS
10
5.24
20
-3.98
11
5.3
21
-3.98
0
LINE
8
BLACK
6
CONTINUOUS
10
5.3
20
-3.98
11
5.3
21
-4.04
0
LINE
8
BLACK
6
CONTINUOUS
10
5.5
20
-4.04
11
5.44
21
-4.04
0
LINE
8
BLACK
6
CONTINUOUS
10
5.44
20
-4.04
11
5.44
21
-3.98
0
LINE
8
BLACK
6
CONTINUOUS
10
5.44
20
-3.98
11
5.5
21
-3.98
0
LINE
8
BLACK
6
CONTINUOUS
10
5.5
20
-3.98
11
5.5
21
-4.04
0
LINE
8
BLACK
6
CONTINUOUS
10
5.31383
20
-3.84076
11
5.31707
21
-3.84293
0
LINE
8
BLACK
6
CONTINUOUS
10
5.31707
20
-3.84293
11
5.35414
21
-3.88
0
LINE
8
BLACK
6
CONTINUOUS
10
5.35414
20
-3.88
11
5.4
21
-3.88
0
LINE
8
BLACK
6
CONTINUOUS
10
5.4
20
-3.88
11
5.4
21
-3.94
0
LINE
8
BLACK
6
CONTINUOUS
10
5.4
20
-3.94
11
5.34
21
-3.94
0
LINE
8
BLACK
6
CONTINUOUS
10
5.34
20
-3.94
11
5.34
21
-3.89414
0
LINE
8
BLACK
6
CONTINUOUS
10
5.34
20
-3.89414
11
5.30586
21
-3.86
0
LINE
8
BLACK
6
CONTINUOUS
10
5.30586
20
-3.86
11
4.89414
21
-3.86
0
LINE
8
BLACK
6
CONTINUOUS
10
4.89414
20
-3.86
11
4.86
21
-3.89414
0
LINE
8
BLACK
6
CONTINUOUS
10
4.86
20
-3.89414
11
4.86
21
-3.94
0
LINE
8
BLACK
6
CONTINUOUS
10
4.86
20
-3.94
11
4.8
21
-3.94
0
LINE
8
BLACK
6
CONTINUOUS
10
4.8
20
-3.94
11
4.8
21
-3.88
0
LINE
8
BLACK
6
CONTINUOUS
10
4.8
20
-3.88
11
4.84586
21
-3.88
0
LINE
8
BLACK
6
CONTINUOUS
10
4.84586
20
-3.88
11
4.88293
21
-3.84293
0
LINE
8
BLACK
6
CONTINUOUS
10
4.88293
20
-3.84293
11
4.88293
21
-3.84293
0
LINE
8
BLACK
6
CONTINUOUS
10
4.88293
20
-3.84293
11
4.88617
21
-3.84076
0
LINE
8
BLACK
6
CONTINUOUS
10
4.88617
20
-3.84076
11
4.89
21
-3.84
0
LINE
8
BLACK
6
CONTINUOUS
10
4.89
20
-3.84
11
5.31
21
-3.84
0
LINE
8
BLACK
6
CONTINUOUS
10
5.31
20
-3.84
11
5.31383
21
-3.84076
0
LINE
8
BLACK
6
CONTINUOUS
10
4.96
20
-3.94
11
4.9
21
-3.94
0
LINE
8
BLACK
6
CONTINUOUS
10
4.9
20
-3.94
11
4.9
21
-3.88
0
LINE
8
BLACK
6
CONTINUOUS
10
4.9
20
-3.88
11
4.96
21
-3.88
0
LINE
8
BLACK
6
CONTINUOUS
10
4.96
20
-3.88
11
4.96
21
-3.94
0
LINE
8
BLACK
6
CONTINUOUS
10
5.3
20
-3.94
11
5.24
21
-3.94
0
LINE
8
BLACK
6
CONTINUOUS
10
5.24
20
-3.94
11
5.24
21
-3.88
0
LINE
8
BLACK
6
CONTINUOUS
10
5.24
20
-3.88
11
5.3
21
-3.88
0
LINE
8
BLACK
6
CONTINUOUS
10
5.3
20
-3.88
11
5.3
21
-3.94
0
LINE
8
BLACK
6
CONTINUOUS
10
5.5
20
-3.94
11
5.44
21
-3.94
0
LINE
8
BLACK
6
CONTINUOUS
10
5.44
20
-3.94
11
5.44
21
-3.88
0
LINE
8
BLACK
6
CONTINUOUS
10
5.44
20
-3.88
11
5.5
21
-3.88
0
LINE
8
BLACK
6
CONTINUOUS
10
5.5
20
-3.88
11
5.5
21
-3.94
0
CIRCLE
8
BLACK
10
5.57
20
-3.91
40
0.00688976
0
CIRCLE
8
BLACK
10
5.57
20
-4.01
40
0.00688976
0
CIRCLE
8
BLACK
10
5.47
20
-3.91
40
0.00688976
0
CIRCLE
8
BLACK
10
5.47
20
-4.01
40
0.00688976
0
CIRCLE
8
BLACK
10
5.37
20
-3.91
40
0.00688976
0
CIRCLE
8
BLACK
10
5.37
20
-4.01
40
0.00688976
0
CIRCLE
8
BLACK
10
5.27
20
-3.91
40
0.00688976
0
CIRCLE
8
BLACK
10
5.27
20
-4.01
40
0.00688976
0
CIRCLE
8
BLACK
10
5.17
20
-3.91
40
0.00688976
0
CIRCLE
8
BLACK
10
5.17
20
-4.01
40
0.00688976
0
CIRCLE
8
BLACK
10
4.83
20
-4.01
40
0.00688976
0
CIRCLE
8
BLACK
10
4.83
20
-3.91
40
0.00688976
0
CIRCLE
8
BLACK
10
4.93
20
-4.01
40
0.00688976
0
CIRCLE
8
BLACK
10
4.93
20
-3.91
40
0.00688976
0
CIRCLE
8
BLACK
10
5.03
20
-4.01
40
0.00688976
0
CIRCLE
8
BLACK
10
5.03
20
-3.91
40
0.00688976
0
CIRCLE
8
BLACK
10
5.8
20
-4.4
40
0.00688976
0
CIRCLE
8
BLACK
10
4.6
20
-4
40
0.00688976
0
CIRCLE
8
BLACK
10
5.8
20
-4
40
0.00688976
0
CIRCLE
8
BLACK
10
4.6
20
-4.4
40
0.00688976
0
CIRCLE
8
BLACK
10
5.32
20
-4.47
40
0.00787402
0
CIRCLE
8
BLACK
10
5.46
20
-4.20148
40
0.00787402
0
CIRCLE
8
BLACK
10
5.01
20
-4.41
40
0.00787402
0
CIRCLE
8
BLACK
10
5.57
20
-4.19
40
0.00787402
0
CIRCLE
8
BLACK
10
5.32
20
-4.22
40
0.00787402
0
CIRCLE
8
BLACK
10
5.28
20
-4.22
40
0.00787402
0
CIRCLE
8
BLACK
10
5.4
20
-4.22
40
0.00787402
0
CIRCLE
8
BLACK
10
5.09
20
-4.47
40
0.00787402
0
CIRCLE
8
BLACK
10
5.09
20
-4.12
40
0.00787402
0
CIRCLE
8
BLACK
10
5.6
20
-4.35
40
0.00787402
0
CIRCLE
8
BLACK
10
5.4
20
-4.31
40
0.00787402
0
CIRCLE
8
BLACK
10
5.62
20
-4.19
40
0.00787402
0
CIRCLE
8
BLACK
10
5.09
20
-4.42
40
0.00787402
0
CIRCLE
8
BLACK
10
5.24
20
-4.22
40
0.00787402
0
CIRCLE
8
BLACK
10
5.67
20
-4.28
40
0.00787402
0
CIRCLE
8
BLACK
10
5.36
20
-4.22
40
0.00787402
0
CIRCLE
8
BLACK
10
5.06
20
-4.45
40
0.00787402
  0
ENDSEC
  0
EOF
