<?xml version='1.0' encoding='ASCII' standalone='yes'?>
<svg xmlns:svg="http://www.w3.org/2000/svg" xmlns="http://www.w3.org/2000/svg" xmlns:xlink="http://www.w3.org/1999/xlink" version="1.1" width="297.0022mm" height="210.0072mm" viewBox="0.0000 0.0000 297.0022 210.0072">
<title>SVG Image created as ALTIMET02-F_Fab.svg date 2023/07/10 00:47:32 </title>
  <desc>Image generated by PCBNEW </desc>
<g style="fill:#848484; fill-opacity:1.0000;stroke:#848484; stroke-opacity:1.0000; stroke-linecap:round; stroke-linejoin:round;" transform="translate(0 0) scale(1 1)">
</g>
<g style="fill:#848484; fill-opacity:0.0;  stroke:#848484; stroke-width:0.0000; stroke-opacity:1;  stroke-linecap:round; stroke-linejoin:round;">
</g>
<g style="fill:#848484; fill-opacity:0.01;  stroke:#848484; stroke-width:1.1066; stroke-opacity:1;  stroke-linecap:round; stroke-linejoin:round;">
<text x="148.5011" y="173.3020" textLength="150.2409" font-size="9.8363" lengthAdjust="spacingAndGlyphs" text-anchor="middle" opacity="0.01" style="font-family:monospace">SolderJumper_3_Bridged12</text>
<g class="stroked-text"><desc>SolderJumper_3_Bridged12</desc>
<path d="M75.4314 172.6174 L76.4852 172.9687 "/>
<path d="M76.4852 172.9687 L78.2417 172.9687 "/>
<path d="M78.2417 172.9687 L78.9443 172.6174 "/>
<path d="M78.9443 172.6174 L79.2956 172.2661 "/>
<path d="M79.2956 172.2661 L79.6469 171.5635 "/>
<path d="M79.6469 171.5635 L79.6469 170.8609 "/>
<path d="M79.6469 170.8609 L79.2956 170.1583 "/>
<path d="M79.2956 170.1583 L78.9443 169.8070 "/>
<path d="M78.9443 169.8070 L78.2417 169.4557 "/>
<path d="M78.2417 169.4557 L76.8365 169.1044 "/>
<path d="M76.8365 169.1044 L76.1340 168.7531 "/>
<path d="M76.1340 168.7531 L75.7827 168.4018 "/>
<path d="M75.7827 168.4018 L75.4314 167.6993 "/>
<path d="M75.4314 167.6993 L75.4314 166.9967 "/>
<path d="M75.4314 166.9967 L75.7827 166.2941 "/>
<path d="M75.7827 166.2941 L76.1340 165.9428 "/>
<path d="M76.1340 165.9428 L76.8365 165.5915 "/>
<path d="M76.8365 165.5915 L78.5930 165.5915 "/>
<path d="M78.5930 165.5915 L79.6469 165.9428 "/>
<path d="M83.8625 172.9687 L83.1599 172.6174 "/>
<path d="M83.1599 172.6174 L82.8086 172.2661 "/>
<path d="M82.8086 172.2661 L82.4573 171.5635 "/>
<path d="M82.4573 171.5635 L82.4573 169.4557 "/>
<path d="M82.4573 169.4557 L82.8086 168.7531 "/>
<path d="M82.8086 168.7531 L83.1599 168.4018 "/>
<path d="M83.1599 168.4018 L83.8625 168.0506 "/>
<path d="M83.8625 168.0506 L84.9164 168.0506 "/>
<path d="M84.9164 168.0506 L85.6190 168.4018 "/>
<path d="M85.6190 168.4018 L85.9703 168.7531 "/>
<path d="M85.9703 168.7531 L86.3216 169.4557 "/>
<path d="M86.3216 169.4557 L86.3216 171.5635 "/>
<path d="M86.3216 171.5635 L85.9703 172.2661 "/>
<path d="M85.9703 172.2661 L85.6190 172.6174 "/>
<path d="M85.6190 172.6174 L84.9164 172.9687 "/>
<path d="M84.9164 172.9687 L83.8625 172.9687 "/>
<path d="M90.5371 172.9687 L89.8345 172.6174 "/>
<path d="M89.8345 172.6174 L89.4832 171.9148 "/>
<path d="M89.4832 171.9148 L89.4832 165.5915 "/>
<path d="M96.5092 172.9687 L96.5092 165.5915 "/>
<path d="M96.5092 172.6174 L95.8066 172.9687 "/>
<path d="M95.8066 172.9687 L94.4014 172.9687 "/>
<path d="M94.4014 172.9687 L93.6988 172.6174 "/>
<path d="M93.6988 172.6174 L93.3475 172.2661 "/>
<path d="M93.3475 172.2661 L92.9962 171.5635 "/>
<path d="M92.9962 171.5635 L92.9962 169.4557 "/>
<path d="M92.9962 169.4557 L93.3475 168.7531 "/>
<path d="M93.3475 168.7531 L93.6988 168.4018 "/>
<path d="M93.6988 168.4018 L94.4014 168.0506 "/>
<path d="M94.4014 168.0506 L95.8066 168.0506 "/>
<path d="M95.8066 168.0506 L96.5092 168.4018 "/>
<path d="M102.8325 172.6174 L102.1299 172.9687 "/>
<path d="M102.1299 172.9687 L100.7247 172.9687 "/>
<path d="M100.7247 172.9687 L100.0221 172.6174 "/>
<path d="M100.0221 172.6174 L99.6708 171.9148 "/>
<path d="M99.6708 171.9148 L99.6708 169.1044 "/>
<path d="M99.6708 169.1044 L100.0221 168.4018 "/>
<path d="M100.0221 168.4018 L100.7247 168.0506 "/>
<path d="M100.7247 168.0506 L102.1299 168.0506 "/>
<path d="M102.1299 168.0506 L102.8325 168.4018 "/>
<path d="M102.8325 168.4018 L103.1838 169.1044 "/>
<path d="M103.1838 169.1044 L103.1838 169.8070 "/>
<path d="M103.1838 169.8070 L99.6708 170.5096 "/>
<path d="M106.3455 172.9687 L106.3455 168.0506 "/>
<path d="M106.3455 169.4557 L106.6968 168.7531 "/>
<path d="M106.6968 168.7531 L107.0481 168.4018 "/>
<path d="M107.0481 168.4018 L107.7507 168.0506 "/>
<path d="M107.7507 168.0506 L108.4533 168.0506 "/>
<path d="M113.0201 165.5915 L113.0201 170.8609 "/>
<path d="M113.0201 170.8609 L112.6688 171.9148 "/>
<path d="M112.6688 171.9148 L111.9662 172.6174 "/>
<path d="M111.9662 172.6174 L110.9123 172.9687 "/>
<path d="M110.9123 172.9687 L110.2098 172.9687 "/>
<path d="M119.6948 168.0506 L119.6948 172.9687 "/>
<path d="M116.5331 168.0506 L116.5331 171.9148 "/>
<path d="M116.5331 171.9148 L116.8844 172.6174 "/>
<path d="M116.8844 172.6174 L117.5870 172.9687 "/>
<path d="M117.5870 172.9687 L118.6409 172.9687 "/>
<path d="M118.6409 172.9687 L119.3435 172.6174 "/>
<path d="M119.3435 172.6174 L119.6948 172.2661 "/>
<path d="M123.2077 172.9687 L123.2077 168.0506 "/>
<path d="M123.2077 168.7531 L123.5590 168.4018 "/>
<path d="M123.5590 168.4018 L124.2616 168.0506 "/>
<path d="M124.2616 168.0506 L125.3155 168.0506 "/>
<path d="M125.3155 168.0506 L126.0181 168.4018 "/>
<path d="M126.0181 168.4018 L126.3694 169.1044 "/>
<path d="M126.3694 169.1044 L126.3694 172.9687 "/>
<path d="M126.3694 169.1044 L126.7207 168.4018 "/>
<path d="M126.7207 168.4018 L127.4233 168.0506 "/>
<path d="M127.4233 168.0506 L128.4772 168.0506 "/>
<path d="M128.4772 168.0506 L129.1798 168.4018 "/>
<path d="M129.1798 168.4018 L129.5311 169.1044 "/>
<path d="M129.5311 169.1044 L129.5311 172.9687 "/>
<path d="M133.0440 168.0506 L133.0440 175.4278 "/>
<path d="M133.0440 168.4018 L133.7466 168.0506 "/>
<path d="M133.7466 168.0506 L135.1518 168.0506 "/>
<path d="M135.1518 168.0506 L135.8544 168.4018 "/>
<path d="M135.8544 168.4018 L136.2057 168.7531 "/>
<path d="M136.2057 168.7531 L136.5570 169.4557 "/>
<path d="M136.5570 169.4557 L136.5570 171.5635 "/>
<path d="M136.5570 171.5635 L136.2057 172.2661 "/>
<path d="M136.2057 172.2661 L135.8544 172.6174 "/>
<path d="M135.8544 172.6174 L135.1518 172.9687 "/>
<path d="M135.1518 172.9687 L133.7466 172.9687 "/>
<path d="M133.7466 172.9687 L133.0440 172.6174 "/>
<path d="M142.5291 172.6174 L141.8265 172.9687 "/>
<path d="M141.8265 172.9687 L140.4213 172.9687 "/>
<path d="M140.4213 172.9687 L139.7187 172.6174 "/>
<path d="M139.7187 172.6174 L139.3674 171.9148 "/>
<path d="M139.3674 171.9148 L139.3674 169.1044 "/>
<path d="M139.3674 169.1044 L139.7187 168.4018 "/>
<path d="M139.7187 168.4018 L140.4213 168.0506 "/>
<path d="M140.4213 168.0506 L141.8265 168.0506 "/>
<path d="M141.8265 168.0506 L142.5291 168.4018 "/>
<path d="M142.5291 168.4018 L142.8803 169.1044 "/>
<path d="M142.8803 169.1044 L142.8803 169.8070 "/>
<path d="M142.8803 169.8070 L139.3674 170.5096 "/>
<path d="M146.0420 172.9687 L146.0420 168.0506 "/>
<path d="M146.0420 169.4557 L146.3933 168.7531 "/>
<path d="M146.3933 168.7531 L146.7446 168.4018 "/>
<path d="M146.7446 168.4018 L147.4472 168.0506 "/>
<path d="M147.4472 168.0506 L148.1498 168.0506 "/>
<path d="M148.8524 173.6713 L154.4731 173.6713 "/>
<path d="M155.5270 165.5915 L160.0939 165.5915 "/>
<path d="M160.0939 165.5915 L157.6348 168.4018 "/>
<path d="M157.6348 168.4018 L158.6887 168.4018 "/>
<path d="M158.6887 168.4018 L159.3913 168.7531 "/>
<path d="M159.3913 168.7531 L159.7426 169.1044 "/>
<path d="M159.7426 169.1044 L160.0939 169.8070 "/>
<path d="M160.0939 169.8070 L160.0939 171.5635 "/>
<path d="M160.0939 171.5635 L159.7426 172.2661 "/>
<path d="M159.7426 172.2661 L159.3913 172.6174 "/>
<path d="M159.3913 172.6174 L158.6887 172.9687 "/>
<path d="M158.6887 172.9687 L156.5809 172.9687 "/>
<path d="M156.5809 172.9687 L155.8783 172.6174 "/>
<path d="M155.8783 172.6174 L155.5270 172.2661 "/>
<path d="M161.4991 173.6713 L167.1198 173.6713 "/>
<path d="M171.3354 169.1044 L172.3893 169.4557 "/>
<path d="M172.3893 169.4557 L172.7406 169.8070 "/>
<path d="M172.7406 169.8070 L173.0919 170.5096 "/>
<path d="M173.0919 170.5096 L173.0919 171.5635 "/>
<path d="M173.0919 171.5635 L172.7406 172.2661 "/>
<path d="M172.7406 172.2661 L172.3893 172.6174 "/>
<path d="M172.3893 172.6174 L171.6867 172.9687 "/>
<path d="M171.6867 172.9687 L168.8763 172.9687 "/>
<path d="M168.8763 172.9687 L168.8763 165.5915 "/>
<path d="M168.8763 165.5915 L171.3354 165.5915 "/>
<path d="M171.3354 165.5915 L172.0380 165.9428 "/>
<path d="M172.0380 165.9428 L172.3893 166.2941 "/>
<path d="M172.3893 166.2941 L172.7406 166.9967 "/>
<path d="M172.7406 166.9967 L172.7406 167.6993 "/>
<path d="M172.7406 167.6993 L172.3893 168.4018 "/>
<path d="M172.3893 168.4018 L172.0380 168.7531 "/>
<path d="M172.0380 168.7531 L171.3354 169.1044 "/>
<path d="M171.3354 169.1044 L168.8763 169.1044 "/>
<path d="M176.2536 172.9687 L176.2536 168.0506 "/>
<path d="M176.2536 169.4557 L176.6049 168.7531 "/>
<path d="M176.6049 168.7531 L176.9561 168.4018 "/>
<path d="M176.9561 168.4018 L177.6587 168.0506 "/>
<path d="M177.6587 168.0506 L178.3613 168.0506 "/>
<path d="M180.8204 172.9687 L180.8204 168.0506 "/>
<path d="M180.8204 165.5915 L180.4691 165.9428 "/>
<path d="M180.4691 165.9428 L180.8204 166.2941 "/>
<path d="M180.8204 166.2941 L181.1717 165.9428 "/>
<path d="M181.1717 165.9428 L180.8204 165.5915 "/>
<path d="M180.8204 165.5915 L180.8204 166.2941 "/>
<path d="M187.4950 172.9687 L187.4950 165.5915 "/>
<path d="M187.4950 172.6174 L186.7925 172.9687 "/>
<path d="M186.7925 172.9687 L185.3873 172.9687 "/>
<path d="M185.3873 172.9687 L184.6847 172.6174 "/>
<path d="M184.6847 172.6174 L184.3334 172.2661 "/>
<path d="M184.3334 172.2661 L183.9821 171.5635 "/>
<path d="M183.9821 171.5635 L183.9821 169.4557 "/>
<path d="M183.9821 169.4557 L184.3334 168.7531 "/>
<path d="M184.3334 168.7531 L184.6847 168.4018 "/>
<path d="M184.6847 168.4018 L185.3873 168.0506 "/>
<path d="M185.3873 168.0506 L186.7925 168.0506 "/>
<path d="M186.7925 168.0506 L187.4950 168.4018 "/>
<path d="M194.1697 168.0506 L194.1697 174.0226 "/>
<path d="M194.1697 174.0226 L193.8184 174.7252 "/>
<path d="M193.8184 174.7252 L193.4671 175.0765 "/>
<path d="M193.4671 175.0765 L192.7645 175.4278 "/>
<path d="M192.7645 175.4278 L191.7106 175.4278 "/>
<path d="M191.7106 175.4278 L191.0080 175.0765 "/>
<path d="M194.1697 172.6174 L193.4671 172.9687 "/>
<path d="M193.4671 172.9687 L192.0619 172.9687 "/>
<path d="M192.0619 172.9687 L191.3593 172.6174 "/>
<path d="M191.3593 172.6174 L191.0080 172.2661 "/>
<path d="M191.0080 172.2661 L190.6567 171.5635 "/>
<path d="M190.6567 171.5635 L190.6567 169.4557 "/>
<path d="M190.6567 169.4557 L191.0080 168.7531 "/>
<path d="M191.0080 168.7531 L191.3593 168.4018 "/>
<path d="M191.3593 168.4018 L192.0619 168.0506 "/>
<path d="M192.0619 168.0506 L193.4671 168.0506 "/>
<path d="M193.4671 168.0506 L194.1697 168.4018 "/>
<path d="M200.4930 172.6174 L199.7904 172.9687 "/>
<path d="M199.7904 172.9687 L198.3853 172.9687 "/>
<path d="M198.3853 172.9687 L197.6827 172.6174 "/>
<path d="M197.6827 172.6174 L197.3314 171.9148 "/>
<path d="M197.3314 171.9148 L197.3314 169.1044 "/>
<path d="M197.3314 169.1044 L197.6827 168.4018 "/>
<path d="M197.6827 168.4018 L198.3853 168.0506 "/>
<path d="M198.3853 168.0506 L199.7904 168.0506 "/>
<path d="M199.7904 168.0506 L200.4930 168.4018 "/>
<path d="M200.4930 168.4018 L200.8443 169.1044 "/>
<path d="M200.8443 169.1044 L200.8443 169.8070 "/>
<path d="M200.8443 169.8070 L197.3314 170.5096 "/>
<path d="M207.1677 172.9687 L207.1677 165.5915 "/>
<path d="M207.1677 172.6174 L206.4651 172.9687 "/>
<path d="M206.4651 172.9687 L205.0599 172.9687 "/>
<path d="M205.0599 172.9687 L204.3573 172.6174 "/>
<path d="M204.3573 172.6174 L204.0060 172.2661 "/>
<path d="M204.0060 172.2661 L203.6547 171.5635 "/>
<path d="M203.6547 171.5635 L203.6547 169.4557 "/>
<path d="M203.6547 169.4557 L204.0060 168.7531 "/>
<path d="M204.0060 168.7531 L204.3573 168.4018 "/>
<path d="M204.3573 168.4018 L205.0599 168.0506 "/>
<path d="M205.0599 168.0506 L206.4651 168.0506 "/>
<path d="M206.4651 168.0506 L207.1677 168.4018 "/>
<path d="M214.5449 172.9687 L210.3293 172.9687 "/>
<path d="M212.4371 172.9687 L212.4371 165.5915 "/>
<path d="M212.4371 165.5915 L211.7345 166.6454 "/>
<path d="M211.7345 166.6454 L211.0319 167.3480 "/>
<path d="M211.0319 167.3480 L210.3293 167.6993 "/>
<path d="M217.3553 166.2941 L217.7066 165.9428 "/>
<path d="M217.7066 165.9428 L218.4092 165.5915 "/>
<path d="M218.4092 165.5915 L220.1657 165.5915 "/>
<path d="M220.1657 165.5915 L220.8682 165.9428 "/>
<path d="M220.8682 165.9428 L221.2195 166.2941 "/>
<path d="M221.2195 166.2941 L221.5708 166.9967 "/>
<path d="M221.5708 166.9967 L221.5708 167.6993 "/>
<path d="M221.5708 167.6993 L221.2195 168.7531 "/>
<path d="M221.2195 168.7531 L217.0040 172.9687 "/>
<path d="M217.0040 172.9687 L221.5708 172.9687 "/>
</g><path d="M69.8008 41.2938 L126.0153 41.2938 "/>
<path d="M126.0153 78.7702 L69.8008 78.7702 "/>
<path d="M126.0153 41.2938 L126.0153 78.7702 "/>
<path d="M69.8008 78.7702 L69.8008 41.2938 "/>
</g>
<g style="fill:#848484; fill-opacity:0.0;  stroke:#848484; stroke-width:2.8107; stroke-opacity:1;  stroke-linecap:round; stroke-linejoin:round;">
<circle cx="260.9301" cy="142.4799" r="22.1298"/> 
<circle cx="36.0721" cy="67.5273" r="22.1298"/> 
<circle cx="260.9301" cy="67.5273" r="22.1298"/> 
<circle cx="36.0721" cy="142.4799" r="22.1298"/> 
<g>
</g>
<g>
</g>
<g>
</g>
<g>
</g>
<g>
</g>
<g>
</g>
<g>
</g>
<g>
</g>
<g>
</g>
<g>
</g>
<g>
</g>
<g>
</g>
<g>
</g>
<g>
</g>
<g>
</g>
<g>
</g>
<g>
</g>
</g> 
<svg:g><svg:g><svg:title>SVG Image created as ALTIMET02-Edge_Cuts.svg date 2023/07/10 00:47:32 </svg:title>
  <svg:desc>Image generated by PCBNEW </svg:desc>
<svg:g style="fill:#C2C200; fill-opacity:1.0000;stroke:#C2C200; stroke-opacity:1.0000; stroke-linecap:round; stroke-linejoin:round;" transform="translate(0 0) scale(1 1)">
</svg:g>
<svg:g style="fill:#C2C200; fill-opacity:0.0;  stroke:#C2C200; stroke-width:0.0000; stroke-opacity:1;  stroke-linecap:round; stroke-linejoin:round;">
</svg:g>
<svg:g style="fill:#C2C200; fill-opacity:0.0;  stroke:#C2C200; stroke-width:0.9369; stroke-opacity:1;  stroke-linecap:round; stroke-linejoin:round;">
<svg:path d="M0.4696 178.0825 L0.4696 31.9247 "/>
<svg:path d="M0.4696 31.9247 L296.5326 31.9247 "/>
<svg:path d="M296.5326 178.0825 L0.4696 178.0825 "/>
<svg:path d="M296.5326 31.9247 L296.5326 178.0825 "/>
<svg:g>
</svg:g>
<svg:g>
</svg:g>
<svg:g>
</svg:g>
<svg:g>
</svg:g>
<svg:g>
</svg:g>
<svg:g>
</svg:g>
<svg:g>
</svg:g>
<svg:g>
</svg:g>
<svg:g>
</svg:g>
<svg:g>
</svg:g>
<svg:g>
</svg:g>
<svg:g>
</svg:g>
<svg:g>
</svg:g>
<svg:g>
</svg:g>
<svg:g>
</svg:g>
<svg:g>
</svg:g>
<svg:g>
</svg:g>
</svg:g> 
</svg:g></svg:g></svg>
