<?xml version='1.0' encoding='ASCII' standalone='yes'?>
<svg xmlns:svg="http://www.w3.org/2000/svg" xmlns="http://www.w3.org/2000/svg" xmlns:xlink="http://www.w3.org/1999/xlink" version="1.1" width="297.0022mm" height="210.0072mm" viewBox="0.0000 0.0000 297.0022 210.0072">
<title>SVG Image created as ALTIMET02-B_Fab.svg date 2023/10/04 13:35:37 </title>
  <desc>Image generated by PCBNEW </desc>
<g style="fill:#000084; fill-opacity:1.0000;stroke:#000084; stroke-opacity:1.0000; stroke-linecap:round; stroke-linejoin:round;" transform="translate(0 0) scale(1 1)">
</g>
<g style="fill:#000084; fill-opacity:0.0;  stroke:#000084; stroke-width:0.0000; stroke-opacity:1;  stroke-linecap:round; stroke-linejoin:round;">
</g>
<g style="fill:#000084; fill-opacity:0.01;  stroke:#000084; stroke-width:0.5902; stroke-opacity:1;  stroke-linecap:round; stroke-linejoin:round;">
<text x="103.2602" y="89.2901" transform="scale(-1 1) translate(-206.520446 0)" textLength="8.2344" font-size="4.9182" lengthAdjust="spacingAndGlyphs" text-anchor="middle" opacity="0.01" style="font-family:monospace">R1</text>
<g class="stroked-text"><desc>R1</desc>
<path d="M102.6455 89.1215 L101.4159 87.3650 "/>
<path d="M100.5377 89.1215 L100.5377 85.4329 "/>
<path d="M100.5377 85.4329 L101.9429 85.4329 "/>
<path d="M101.9429 85.4329 L102.2942 85.6086 "/>
<path d="M102.2942 85.6086 L102.4698 85.7842 "/>
<path d="M102.4698 85.7842 L102.6455 86.1355 "/>
<path d="M102.6455 86.1355 L102.6455 86.6624 "/>
<path d="M102.6455 86.6624 L102.4698 87.0137 "/>
<path d="M102.4698 87.0137 L102.2942 87.1894 "/>
<path d="M102.2942 87.1894 L101.9429 87.3650 "/>
<path d="M101.9429 87.3650 L100.5377 87.3650 "/>
<path d="M106.1584 89.1215 L104.0506 89.1215 "/>
<path d="M105.1045 89.1215 L105.1045 85.4329 "/>
<path d="M105.1045 85.4329 L104.7532 85.9599 "/>
<path d="M104.7532 85.9599 L104.4019 86.3111 "/>
<path d="M104.4019 86.3111 L104.0506 86.4868 "/>
</g><g transform="rotate(-90.000000 114.7724 119.2564)">
<text x="114.7724" y="121.1007" transform="scale(-1 1) translate(-229.544788 0)" textLength="8.2344" font-size="4.9182" lengthAdjust="spacingAndGlyphs" text-anchor="middle" opacity="0.01" style="font-family:monospace">C2</text>
</g>
<g class="stroked-text"><desc>C2</desc>
<path d="M113.4480 118.6416 L113.2723 118.4660 "/>
<path d="M113.2723 118.4660 L113.0967 117.9390 "/>
<path d="M113.0967 117.9390 L113.0967 117.5878 "/>
<path d="M113.0967 117.5878 L113.2723 117.0608 "/>
<path d="M113.2723 117.0608 L113.6236 116.7095 "/>
<path d="M113.6236 116.7095 L113.9749 116.5339 "/>
<path d="M113.9749 116.5339 L114.6775 116.3582 "/>
<path d="M114.6775 116.3582 L115.2044 116.3582 "/>
<path d="M115.2044 116.3582 L115.9070 116.5339 "/>
<path d="M115.9070 116.5339 L116.2583 116.7095 "/>
<path d="M116.2583 116.7095 L116.6096 117.0608 "/>
<path d="M116.6096 117.0608 L116.7853 117.5878 "/>
<path d="M116.7853 117.5878 L116.7853 117.9390 "/>
<path d="M116.7853 117.9390 L116.6096 118.4660 "/>
<path d="M116.6096 118.4660 L116.4340 118.6416 "/>
<path d="M116.4340 120.0468 L116.6096 120.2225 "/>
<path d="M116.6096 120.2225 L116.7853 120.5738 "/>
<path d="M116.7853 120.5738 L116.7853 121.4520 "/>
<path d="M116.7853 121.4520 L116.6096 121.8033 "/>
<path d="M116.6096 121.8033 L116.4340 121.9790 "/>
<path d="M116.4340 121.9790 L116.0827 122.1546 "/>
<path d="M116.0827 122.1546 L115.7314 122.1546 "/>
<path d="M115.7314 122.1546 L115.2044 121.9790 "/>
<path d="M115.2044 121.9790 L113.0967 119.8712 "/>
<path d="M113.0967 119.8712 L113.0967 122.1546 "/>
</g></g>
<g style="fill:#000084; fill-opacity:0.0;  stroke:#000084; stroke-width:0.5533; stroke-opacity:1;  stroke-linecap:round; stroke-linejoin:round;">
<g transform="rotate(-90.000000 164.2412 115.6445)">
<text x="164.2412" y="117.4888" transform="scale(-1 1) translate(-328.482328 0)" textLength="8.2994" font-size="4.9182" lengthAdjust="spacingAndGlyphs" text-anchor="middle" opacity="0.01" style="font-family:monospace">U1</text>
</g>
<g class="stroked-text"><desc>U1</desc>
<path d="M166.2521 112.8341 L163.2661 112.8341 "/>
<path d="M163.2661 112.8341 L162.9148 113.0098 "/>
<path d="M162.9148 113.0098 L162.7392 113.1854 "/>
<path d="M162.7392 113.1854 L162.5635 113.5367 "/>
<path d="M162.5635 113.5367 L162.5635 114.2393 "/>
<path d="M162.5635 114.2393 L162.7392 114.5906 "/>
<path d="M162.7392 114.5906 L162.9148 114.7663 "/>
<path d="M162.9148 114.7663 L163.2661 114.9419 "/>
<path d="M163.2661 114.9419 L166.2521 114.9419 "/>
<path d="M162.5635 118.6305 L162.5635 116.5228 "/>
<path d="M162.5635 117.5767 L166.2521 117.5767 "/>
<path d="M166.2521 117.5767 L165.7252 117.2254 "/>
<path d="M165.7252 117.2254 L165.3739 116.8741 "/>
<path d="M165.3739 116.8741 L165.1982 116.5228 "/>
</g></g>
<g style="fill:#000084; fill-opacity:0.01;  stroke:#000084; stroke-width:1.1066; stroke-opacity:1;  stroke-linecap:round; stroke-linejoin:round;">
<text x="89.5349" y="135.8626" transform="scale(-1 1) translate(-179.069764 0)" textLength="16.2475" font-size="9.8363" lengthAdjust="spacingAndGlyphs" text-anchor="middle" opacity="0.01" style="font-family:monospace">D1</text>
<g class="stroked-text"><desc>D1</desc>
<path d="M84.0898 135.5293 L84.0898 128.1520 "/>
<path d="M84.0898 128.1520 L85.8463 128.1520 "/>
<path d="M85.8463 128.1520 L86.9002 128.5033 "/>
<path d="M86.9002 128.5033 L87.6028 129.2059 "/>
<path d="M87.6028 129.2059 L87.9541 129.9085 "/>
<path d="M87.9541 129.9085 L88.3053 131.3137 "/>
<path d="M88.3053 131.3137 L88.3053 132.3676 "/>
<path d="M88.3053 132.3676 L87.9541 133.7728 "/>
<path d="M87.9541 133.7728 L87.6028 134.4754 "/>
<path d="M87.6028 134.4754 L86.9002 135.1780 "/>
<path d="M86.9002 135.1780 L85.8463 135.5293 "/>
<path d="M85.8463 135.5293 L84.0898 135.5293 "/>
<path d="M95.3313 135.5293 L91.1157 135.5293 "/>
<path d="M93.2235 135.5293 L93.2235 128.1520 "/>
<path d="M93.2235 128.1520 L92.5209 129.2059 "/>
<path d="M92.5209 129.2059 L91.8183 129.9085 "/>
<path d="M91.8183 129.9085 L91.1157 130.2598 "/>
</g></g>
<g style="fill:#000084; fill-opacity:0.01;  stroke:#000084; stroke-width:0.4426; stroke-opacity:1;  stroke-linecap:round; stroke-linejoin:round;">
<text x="198.5187" y="116.2170" transform="scale(-1 1) translate(-397.037473 0)" textLength="10.4335" font-size="3.9345" lengthAdjust="spacingAndGlyphs" text-anchor="middle" opacity="0.01" style="font-family:monospace">FID2</text>
<g class="stroked-text"><desc>FID2</desc>
<path d="M195.3571 114.5380 L194.3734 114.5380 "/>
<path d="M194.3734 116.0837 L194.3734 113.1328 "/>
<path d="M194.3734 113.1328 L195.7786 113.1328 "/>
<path d="M196.9028 116.0837 L196.9028 113.1328 "/>
<path d="M198.3080 116.0837 L198.3080 113.1328 "/>
<path d="M198.3080 113.1328 L199.0106 113.1328 "/>
<path d="M199.0106 113.1328 L199.4321 113.2733 "/>
<path d="M199.4321 113.2733 L199.7132 113.5543 "/>
<path d="M199.7132 113.5543 L199.8537 113.8354 "/>
<path d="M199.8537 113.8354 L199.9942 114.3974 "/>
<path d="M199.9942 114.3974 L199.9942 114.8190 "/>
<path d="M199.9942 114.8190 L199.8537 115.3811 "/>
<path d="M199.8537 115.3811 L199.7132 115.6621 "/>
<path d="M199.7132 115.6621 L199.4321 115.9432 "/>
<path d="M199.4321 115.9432 L199.0106 116.0837 "/>
<path d="M199.0106 116.0837 L198.3080 116.0837 "/>
<path d="M201.1183 113.4138 L201.2589 113.2733 "/>
<path d="M201.2589 113.2733 L201.5399 113.1328 "/>
<path d="M201.5399 113.1328 L202.2425 113.1328 "/>
<path d="M202.2425 113.1328 L202.5235 113.2733 "/>
<path d="M202.5235 113.2733 L202.6640 113.4138 "/>
<path d="M202.6640 113.4138 L202.8046 113.6949 "/>
<path d="M202.8046 113.6949 L202.8046 113.9759 "/>
<path d="M202.8046 113.9759 L202.6640 114.3974 "/>
<path d="M202.6640 114.3974 L200.9778 116.0837 "/>
<path d="M200.9778 116.0837 L202.8046 116.0837 "/>
</g></g>
<g style="fill:#000084; fill-opacity:0.01;  stroke:#000084; stroke-width:0.5902; stroke-opacity:1;  stroke-linecap:round; stroke-linejoin:round;">
<text x="131.6367" y="89.2901" transform="scale(-1 1) translate(-263.273495 0)" textLength="8.2344" font-size="4.9182" lengthAdjust="spacingAndGlyphs" text-anchor="middle" opacity="0.01" style="font-family:monospace">R2</text>
<g class="stroked-text"><desc>R2</desc>
<path d="M131.0220 89.1215 L129.7924 87.3650 "/>
<path d="M128.9142 89.1215 L128.9142 85.4329 "/>
<path d="M128.9142 85.4329 L130.3194 85.4329 "/>
<path d="M130.3194 85.4329 L130.6707 85.6086 "/>
<path d="M130.6707 85.6086 L130.8463 85.7842 "/>
<path d="M130.8463 85.7842 L131.0220 86.1355 "/>
<path d="M131.0220 86.1355 L131.0220 86.6624 "/>
<path d="M131.0220 86.6624 L130.8463 87.0137 "/>
<path d="M130.8463 87.0137 L130.6707 87.1894 "/>
<path d="M130.6707 87.1894 L130.3194 87.3650 "/>
<path d="M130.3194 87.3650 L128.9142 87.3650 "/>
<path d="M132.4272 85.7842 L132.6028 85.6086 "/>
<path d="M132.6028 85.6086 L132.9541 85.4329 "/>
<path d="M132.9541 85.4329 L133.8324 85.4329 "/>
<path d="M133.8324 85.4329 L134.1837 85.6086 "/>
<path d="M134.1837 85.6086 L134.3593 85.7842 "/>
<path d="M134.3593 85.7842 L134.5350 86.1355 "/>
<path d="M134.5350 86.1355 L134.5350 86.4868 "/>
<path d="M134.5350 86.4868 L134.3593 87.0137 "/>
<path d="M134.3593 87.0137 L132.2515 89.1215 "/>
<path d="M132.2515 89.1215 L134.5350 89.1215 "/>
</g></g>
<g style="fill:#000084; fill-opacity:0.01;  stroke:#000084; stroke-width:0.4426; stroke-opacity:1;  stroke-linecap:round; stroke-linejoin:round;">
<text x="78.2698" y="99.9871" transform="scale(-1 1) translate(-156.539696 0)" textLength="10.4335" font-size="3.9345" lengthAdjust="spacingAndGlyphs" text-anchor="middle" opacity="0.01" style="font-family:monospace">FID1</text>
<g class="stroked-text"><desc>FID1</desc>
<path d="M75.1082 98.3080 L74.1246 98.3080 "/>
<path d="M74.1246 99.8538 L74.1246 96.9029 "/>
<path d="M74.1246 96.9029 L75.5297 96.9029 "/>
<path d="M76.6539 99.8538 L76.6539 96.9029 "/>
<path d="M78.0591 99.8538 L78.0591 96.9029 "/>
<path d="M78.0591 96.9029 L78.7617 96.9029 "/>
<path d="M78.7617 96.9029 L79.1832 97.0434 "/>
<path d="M79.1832 97.0434 L79.4643 97.3244 "/>
<path d="M79.4643 97.3244 L79.6048 97.6055 "/>
<path d="M79.6048 97.6055 L79.7453 98.1675 "/>
<path d="M79.7453 98.1675 L79.7453 98.5891 "/>
<path d="M79.7453 98.5891 L79.6048 99.1512 "/>
<path d="M79.6048 99.1512 L79.4643 99.4322 "/>
<path d="M79.4643 99.4322 L79.1832 99.7132 "/>
<path d="M79.1832 99.7132 L78.7617 99.8538 "/>
<path d="M78.7617 99.8538 L78.0591 99.8538 "/>
<path d="M82.5557 99.8538 L80.8695 99.8538 "/>
<path d="M81.7126 99.8538 L81.7126 96.9029 "/>
<path d="M81.7126 96.9029 L81.4315 97.3244 "/>
<path d="M81.4315 97.3244 L81.1505 97.6055 "/>
<path d="M81.1505 97.6055 L80.8695 97.7460 "/>
</g></g>
<g style="fill:#000084; fill-opacity:0.0;  stroke:#000084; stroke-width:0.5902; stroke-opacity:1;  stroke-linecap:round; stroke-linejoin:round;">
<g transform="rotate(-90.000000 133.7717 119.2564)">
<text x="133.7717" y="121.1007" transform="scale(-1 1) translate(-267.543437 0)" textLength="8.2344" font-size="4.9182" lengthAdjust="spacingAndGlyphs" text-anchor="middle" opacity="0.01" style="font-family:monospace">C1</text>
</g>
<g class="stroked-text"><desc>C1</desc>
<path d="M132.4473 118.6416 L132.2716 118.4660 "/>
<path d="M132.2716 118.4660 L132.0960 117.9390 "/>
<path d="M132.0960 117.9390 L132.0960 117.5878 "/>
<path d="M132.0960 117.5878 L132.2716 117.0608 "/>
<path d="M132.2716 117.0608 L132.6229 116.7095 "/>
<path d="M132.6229 116.7095 L132.9742 116.5339 "/>
<path d="M132.9742 116.5339 L133.6768 116.3582 "/>
<path d="M133.6768 116.3582 L134.2038 116.3582 "/>
<path d="M134.2038 116.3582 L134.9064 116.5339 "/>
<path d="M134.9064 116.5339 L135.2577 116.7095 "/>
<path d="M135.2577 116.7095 L135.6090 117.0608 "/>
<path d="M135.6090 117.0608 L135.7846 117.5878 "/>
<path d="M135.7846 117.5878 L135.7846 117.9390 "/>
<path d="M135.7846 117.9390 L135.6090 118.4660 "/>
<path d="M135.6090 118.4660 L135.4333 118.6416 "/>
<path d="M132.0960 122.1546 L132.0960 120.0468 "/>
<path d="M132.0960 121.1007 L135.7846 121.1007 "/>
<path d="M135.7846 121.1007 L135.2577 120.7494 "/>
<path d="M135.2577 120.7494 L134.9064 120.3981 "/>
<path d="M134.9064 120.3981 L134.7307 120.0468 "/>
</g></g>
<g style="fill:#000084; fill-opacity:0.0;  stroke:#000084; stroke-width:0.7377; stroke-opacity:1;  stroke-linecap:round; stroke-linejoin:round;">
<path d="M110.6375 82.8350 L110.6375 92.0566 "/>
<path d="M110.6375 92.0566 L95.8830 92.0566 "/>
<path d="M95.8830 82.8350 L110.6375 82.8350 "/>
<path d="M95.8830 92.0566 L95.8830 82.8350 "/>
<path d="M119.3832 126.6336 L110.1616 126.6336 "/>
<path d="M110.1616 126.6336 L110.1616 111.8792 "/>
<path d="M119.3832 111.8792 L119.3832 126.6336 "/>
<path d="M110.1616 111.8792 L119.3832 111.8792 "/>
<path d="M182.6842 126.7104 L151.3310 126.7104 "/>
<path d="M151.3310 126.7104 L145.7981 121.1774 "/>
<path d="M145.7981 121.1774 L145.7981 104.5787 "/>
<path d="M182.6842 104.5787 L182.6842 126.7104 "/>
<path d="M145.7981 104.5787 L182.6842 104.5787 "/>
<path d="M98.9261 111.4808 L98.9261 124.7598 "/>
<path d="M98.9261 124.7598 L78.2698 124.7598 "/>
<path d="M94.1309 118.1203 L91.1800 118.1203 "/>
<path d="M91.1800 118.1203 L91.1800 114.0628 "/>
<path d="M91.1800 118.1203 L91.1800 122.1778 "/>
<path d="M91.1800 118.1203 L86.7537 121.0712 "/>
<path d="M86.7537 115.1694 L91.1800 118.1203 "/>
<path d="M86.7537 118.1203 L83.0650 118.1203 "/>
<path d="M86.7537 121.0712 L86.7537 115.1694 "/>
<path d="M78.2698 111.4808 L98.9261 111.4808 "/>
<path d="M78.2698 124.7598 L78.2698 111.4808 "/>
<circle cx="198.5187" cy="114.7415" r="7.3772"/> 
<path d="M124.2595 92.0566 L124.2595 82.8350 "/>
<path d="M124.2595 82.8350 L139.0140 82.8350 "/>
<path d="M139.0140 92.0566 L124.2595 92.0566 "/>
<path d="M139.0140 82.8350 L139.0140 92.0566 "/>
<circle cx="78.2698" cy="98.5116" r="7.3772"/> 
<path d="M138.3825 126.6336 L129.1609 126.6336 "/>
<path d="M129.1609 126.6336 L129.1609 111.8792 "/>
<path d="M138.3825 111.8792 L138.3825 126.6336 "/>
<path d="M129.1609 111.8792 L138.3825 111.8792 "/>
<g>
</g>
<g>
</g>
<g>
</g>
<g>
</g>
<g>
</g>
<g>
</g>
<g>
</g>
<g>
</g>
<g>
</g>
<g>
</g>
<g>
</g>
<g>
</g>
<g>
</g>
<g>
</g>
<g>
</g>
<g>
</g>
<g>
</g>
<g>
</g>
<g>
</g>
<g>
</g>
</g> 
<svg:g><svg:g><svg:title>SVG Image created as ALTIMET02-Edge_Cuts.svg date 2023/10/04 13:35:37 </svg:title>
  <svg:desc>Image generated by PCBNEW </svg:desc>
<svg:g style="fill:#C2C200; fill-opacity:1.0000;stroke:#C2C200; stroke-opacity:1.0000; stroke-linecap:round; stroke-linejoin:round;" transform="translate(0 0) scale(1 1)">
</svg:g>
<svg:g style="fill:#C2C200; fill-opacity:0.0;  stroke:#C2C200; stroke-width:0.0000; stroke-opacity:1;  stroke-linecap:round; stroke-linejoin:round;">
</svg:g>
<svg:g style="fill:#C2C200; fill-opacity:0.0;  stroke:#C2C200; stroke-width:0.9369; stroke-opacity:1;  stroke-linecap:round; stroke-linejoin:round;">
<svg:path d="M296.5326 178.0825 L296.5326 31.9247 "/>
<svg:path d="M296.5326 31.9247 L0.4696 31.9247 "/>
<svg:path d="M0.4696 178.0825 L296.5326 178.0825 "/>
<svg:path d="M0.4696 31.9247 L0.4696 178.0825 "/>
<svg:g>
</svg:g>
<svg:g>
</svg:g>
<svg:g>
</svg:g>
<svg:g>
</svg:g>
<svg:g>
</svg:g>
<svg:g>
</svg:g>
<svg:g>
</svg:g>
<svg:g>
</svg:g>
<svg:g>
</svg:g>
<svg:g>
</svg:g>
<svg:g>
</svg:g>
<svg:g>
</svg:g>
<svg:g>
</svg:g>
<svg:g>
</svg:g>
<svg:g>
</svg:g>
<svg:g>
</svg:g>
<svg:g>
</svg:g>
<svg:g>
</svg:g>
<svg:g>
</svg:g>
<svg:g>
</svg:g>
</svg:g> 
</svg:g></svg:g></svg>
