<?xml version='1.0' encoding='ASCII' standalone='yes'?>
<svg xmlns:svg="http://www.w3.org/2000/svg" xmlns="http://www.w3.org/2000/svg" xmlns:xlink="http://www.w3.org/1999/xlink" version="1.1" width="297.0022mm" height="210.0072mm" viewBox="0.0000 0.0000 297.0022 210.0072">
<title>SVG Image created as ALTIMET02-B_Fab.svg date 2023/07/21 03:34:41 </title>
  <desc>Image generated by PCBNEW </desc>
<g style="fill:#000084; fill-opacity:1.0000;stroke:#000084; stroke-opacity:1.0000; stroke-linecap:round; stroke-linejoin:round;" transform="translate(0 0) scale(1 1)">
</g>
<g style="fill:#000084; fill-opacity:0.0;  stroke:#000084; stroke-width:0.0000; stroke-opacity:1;  stroke-linecap:round; stroke-linejoin:round;">
</g>
<g style="fill:#000084; fill-opacity:0.01;  stroke:#000084; stroke-width:1.1066; stroke-opacity:1;  stroke-linecap:round; stroke-linejoin:round;">
<text x="101.6557" y="103.0708" transform="scale(-1 1) translate(-203.311350 0)" textLength="22.7201" font-size="9.8363" lengthAdjust="spacingAndGlyphs" text-anchor="middle" opacity="0.01" style="font-family:monospace">DNF</text>
<g class="stroked-text"><desc>DNF</desc>
<path d="M92.6976 102.7375 L92.6976 95.3602 "/>
<path d="M92.6976 95.3602 L94.4541 95.3602 "/>
<path d="M94.4541 95.3602 L95.5080 95.7115 "/>
<path d="M95.5080 95.7115 L96.2106 96.4141 "/>
<path d="M96.2106 96.4141 L96.5619 97.1167 "/>
<path d="M96.5619 97.1167 L96.9132 98.5219 "/>
<path d="M96.9132 98.5219 L96.9132 99.5758 "/>
<path d="M96.9132 99.5758 L96.5619 100.9810 "/>
<path d="M96.5619 100.9810 L96.2106 101.6836 "/>
<path d="M96.2106 101.6836 L95.5080 102.3862 "/>
<path d="M95.5080 102.3862 L94.4541 102.7375 "/>
<path d="M94.4541 102.7375 L92.6976 102.7375 "/>
<path d="M100.0748 102.7375 L100.0748 95.3602 "/>
<path d="M100.0748 95.3602 L104.2904 102.7375 "/>
<path d="M104.2904 102.7375 L104.2904 95.3602 "/>
<path d="M110.2624 98.8732 L107.8034 98.8732 "/>
<path d="M107.8034 102.7375 L107.8034 95.3602 "/>
<path d="M107.8034 95.3602 L111.3163 95.3602 "/>
</g></g>
<g style="fill:#000084; fill-opacity:0.01;  stroke:#000084; stroke-width:0.5902; stroke-opacity:1;  stroke-linecap:round; stroke-linejoin:round;">
<text x="101.6557" y="89.9836" transform="scale(-1 1) translate(-203.311350 0)" textLength="7.9393" font-size="4.9182" lengthAdjust="spacingAndGlyphs" text-anchor="middle" opacity="0.01" style="font-family:monospace">R1</text>
<g class="stroked-text"><desc>R1</desc>
<path d="M101.0409 89.8150 L99.8114 88.0585 "/>
<path d="M98.9331 89.8150 L98.9331 86.1264 "/>
<path d="M98.9331 86.1264 L100.3383 86.1264 "/>
<path d="M100.3383 86.1264 L100.6896 86.3020 "/>
<path d="M100.6896 86.3020 L100.8653 86.4777 "/>
<path d="M100.8653 86.4777 L101.0409 86.8290 "/>
<path d="M101.0409 86.8290 L101.0409 87.3559 "/>
<path d="M101.0409 87.3559 L100.8653 87.7072 "/>
<path d="M100.8653 87.7072 L100.6896 87.8828 "/>
<path d="M100.6896 87.8828 L100.3383 88.0585 "/>
<path d="M100.3383 88.0585 L98.9331 88.0585 "/>
<path d="M104.5539 89.8150 L102.4461 89.8150 "/>
<path d="M103.5000 89.8150 L103.5000 86.1264 "/>
<path d="M103.5000 86.1264 L103.1487 86.6533 "/>
<path d="M103.1487 86.6533 L102.7974 87.0046 "/>
<path d="M102.7974 87.0046 L102.4461 87.1803 "/>
</g></g>
<g style="fill:#000084; fill-opacity:0.0;  stroke:#000084; stroke-width:1.1066; stroke-opacity:1;  stroke-linecap:round; stroke-linejoin:round;">
<g transform="rotate(-90.000000 134.6614 126.1025)">
<text x="134.6614" y="129.7911" transform="scale(-1 1) translate(-269.322826 0)" textLength="35.3668" font-size="9.8363" lengthAdjust="spacingAndGlyphs" text-anchor="middle" opacity="0.01" style="font-family:monospace">100nF</text>
</g>
<g class="stroked-text"><desc>100nF</desc>
<path d="M131.3061 114.6853 L131.3061 110.4698 "/>
<path d="M131.3061 112.5776 L138.6833 112.5776 "/>
<path d="M138.6833 112.5776 L137.6295 111.8750 "/>
<path d="M137.6295 111.8750 L136.9269 111.1724 "/>
<path d="M136.9269 111.1724 L136.5756 110.4698 "/>
<path d="M138.6833 119.2522 L138.6833 119.9548 "/>
<path d="M138.6833 119.9548 L138.3320 120.6574 "/>
<path d="M138.3320 120.6574 L137.9807 121.0087 "/>
<path d="M137.9807 121.0087 L137.2782 121.3600 "/>
<path d="M137.2782 121.3600 L135.8730 121.7113 "/>
<path d="M135.8730 121.7113 L134.1165 121.7113 "/>
<path d="M134.1165 121.7113 L132.7113 121.3600 "/>
<path d="M132.7113 121.3600 L132.0087 121.0087 "/>
<path d="M132.0087 121.0087 L131.6574 120.6574 "/>
<path d="M131.6574 120.6574 L131.3061 119.9548 "/>
<path d="M131.3061 119.9548 L131.3061 119.2522 "/>
<path d="M131.3061 119.2522 L131.6574 118.5496 "/>
<path d="M131.6574 118.5496 L132.0087 118.1983 "/>
<path d="M132.0087 118.1983 L132.7113 117.8470 "/>
<path d="M132.7113 117.8470 L134.1165 117.4957 "/>
<path d="M134.1165 117.4957 L135.8730 117.4957 "/>
<path d="M135.8730 117.4957 L137.2782 117.8470 "/>
<path d="M137.2782 117.8470 L137.9807 118.1983 "/>
<path d="M137.9807 118.1983 L138.3320 118.5496 "/>
<path d="M138.3320 118.5496 L138.6833 119.2522 "/>
<path d="M138.6833 126.2781 L138.6833 126.9807 "/>
<path d="M138.6833 126.9807 L138.3320 127.6833 "/>
<path d="M138.3320 127.6833 L137.9807 128.0346 "/>
<path d="M137.9807 128.0346 L137.2782 128.3859 "/>
<path d="M137.2782 128.3859 L135.8730 128.7372 "/>
<path d="M135.8730 128.7372 L134.1165 128.7372 "/>
<path d="M134.1165 128.7372 L132.7113 128.3859 "/>
<path d="M132.7113 128.3859 L132.0087 128.0346 "/>
<path d="M132.0087 128.0346 L131.6574 127.6833 "/>
<path d="M131.6574 127.6833 L131.3061 126.9807 "/>
<path d="M131.3061 126.9807 L131.3061 126.2781 "/>
<path d="M131.3061 126.2781 L131.6574 125.5755 "/>
<path d="M131.6574 125.5755 L132.0087 125.2242 "/>
<path d="M132.0087 125.2242 L132.7113 124.8729 "/>
<path d="M132.7113 124.8729 L134.1165 124.5216 "/>
<path d="M134.1165 124.5216 L135.8730 124.5216 "/>
<path d="M135.8730 124.5216 L137.2782 124.8729 "/>
<path d="M137.2782 124.8729 L137.9807 125.2242 "/>
<path d="M137.9807 125.2242 L138.3320 125.5755 "/>
<path d="M138.3320 125.5755 L138.6833 126.2781 "/>
<path d="M136.2243 131.8989 L131.3061 131.8989 "/>
<path d="M135.5217 131.8989 L135.8730 132.2502 "/>
<path d="M135.8730 132.2502 L136.2243 132.9528 "/>
<path d="M136.2243 132.9528 L136.2243 134.0067 "/>
<path d="M136.2243 134.0067 L135.8730 134.7093 "/>
<path d="M135.8730 134.7093 L135.1704 135.0605 "/>
<path d="M135.1704 135.0605 L131.3061 135.0605 "/>
<path d="M135.1704 141.0326 L135.1704 138.5735 "/>
<path d="M131.3061 138.5735 L138.6833 138.5735 "/>
<path d="M138.6833 138.5735 L138.6833 142.0865 "/>
</g></g>
<g style="fill:#000084; fill-opacity:0.0;  stroke:#000084; stroke-width:0.5902; stroke-opacity:1;  stroke-linecap:round; stroke-linejoin:round;">
<g transform="rotate(-90.000000 122.2677 126.1025)">
<text x="122.2677" y="127.9468" transform="scale(-1 1) translate(-244.535325 0)" textLength="7.9393" font-size="4.9182" lengthAdjust="spacingAndGlyphs" text-anchor="middle" opacity="0.01" style="font-family:monospace">C2</text>
</g>
<g class="stroked-text"><desc>C2</desc>
<path d="M120.9432 125.4877 L120.7676 125.3121 "/>
<path d="M120.7676 125.3121 L120.5919 124.7851 "/>
<path d="M120.5919 124.7851 L120.5919 124.4338 "/>
<path d="M120.5919 124.4338 L120.7676 123.9069 "/>
<path d="M120.7676 123.9069 L121.1189 123.5556 "/>
<path d="M121.1189 123.5556 L121.4702 123.3799 "/>
<path d="M121.4702 123.3799 L122.1728 123.2043 "/>
<path d="M122.1728 123.2043 L122.6997 123.2043 "/>
<path d="M122.6997 123.2043 L123.4023 123.3799 "/>
<path d="M123.4023 123.3799 L123.7536 123.5556 "/>
<path d="M123.7536 123.5556 L124.1049 123.9069 "/>
<path d="M124.1049 123.9069 L124.2805 124.4338 "/>
<path d="M124.2805 124.4338 L124.2805 124.7851 "/>
<path d="M124.2805 124.7851 L124.1049 125.3121 "/>
<path d="M124.1049 125.3121 L123.9293 125.4877 "/>
<path d="M123.9293 126.8929 L124.1049 127.0685 "/>
<path d="M124.1049 127.0685 L124.2805 127.4198 "/>
<path d="M124.2805 127.4198 L124.2805 128.2981 "/>
<path d="M124.2805 128.2981 L124.1049 128.6494 "/>
<path d="M124.1049 128.6494 L123.9293 128.8250 "/>
<path d="M123.9293 128.8250 L123.5780 129.0007 "/>
<path d="M123.5780 129.0007 L123.2267 129.0007 "/>
<path d="M123.2267 129.0007 L122.6997 128.8250 "/>
<path d="M122.6997 128.8250 L120.5919 126.7173 "/>
<path d="M120.5919 126.7173 L120.5919 129.0007 "/>
</g></g>
<g style="fill:#000084; fill-opacity:0.01;  stroke:#000084; stroke-width:1.1066; stroke-opacity:1;  stroke-linecap:round; stroke-linejoin:round;">
<text x="86.6651" y="108.8988" transform="scale(-1 1) translate(-173.330277 0)" textLength="63.8218" font-size="9.8363" lengthAdjust="spacingAndGlyphs" text-anchor="middle" opacity="0.01" style="font-family:monospace">BZV55C3V6</text>
<g class="stroked-text"><desc>BZV55C3V6</desc>
<path d="M59.6153 104.7012 L60.6692 105.0525 "/>
<path d="M60.6692 105.0525 L61.0205 105.4038 "/>
<path d="M61.0205 105.4038 L61.3718 106.1064 "/>
<path d="M61.3718 106.1064 L61.3718 107.1603 "/>
<path d="M61.3718 107.1603 L61.0205 107.8629 "/>
<path d="M61.0205 107.8629 L60.6692 108.2142 "/>
<path d="M60.6692 108.2142 L59.9666 108.5655 "/>
<path d="M59.9666 108.5655 L57.1562 108.5655 "/>
<path d="M57.1562 108.5655 L57.1562 101.1882 "/>
<path d="M57.1562 101.1882 L59.6153 101.1882 "/>
<path d="M59.6153 101.1882 L60.3179 101.5395 "/>
<path d="M60.3179 101.5395 L60.6692 101.8908 "/>
<path d="M60.6692 101.8908 L61.0205 102.5934 "/>
<path d="M61.0205 102.5934 L61.0205 103.2960 "/>
<path d="M61.0205 103.2960 L60.6692 103.9986 "/>
<path d="M60.6692 103.9986 L60.3179 104.3499 "/>
<path d="M60.3179 104.3499 L59.6153 104.7012 "/>
<path d="M59.6153 104.7012 L57.1562 104.7012 "/>
<path d="M63.8309 101.1882 L68.7490 101.1882 "/>
<path d="M68.7490 101.1882 L63.8309 108.5655 "/>
<path d="M63.8309 108.5655 L68.7490 108.5655 "/>
<path d="M70.5055 101.1882 L72.9646 108.5655 "/>
<path d="M72.9646 108.5655 L75.4236 101.1882 "/>
<path d="M81.3957 101.1882 L77.8827 101.1882 "/>
<path d="M77.8827 101.1882 L77.5314 104.7012 "/>
<path d="M77.5314 104.7012 L77.8827 104.3499 "/>
<path d="M77.8827 104.3499 L78.5853 103.9986 "/>
<path d="M78.5853 103.9986 L80.3418 103.9986 "/>
<path d="M80.3418 103.9986 L81.0444 104.3499 "/>
<path d="M81.0444 104.3499 L81.3957 104.7012 "/>
<path d="M81.3957 104.7012 L81.7470 105.4038 "/>
<path d="M81.7470 105.4038 L81.7470 107.1603 "/>
<path d="M81.7470 107.1603 L81.3957 107.8629 "/>
<path d="M81.3957 107.8629 L81.0444 108.2142 "/>
<path d="M81.0444 108.2142 L80.3418 108.5655 "/>
<path d="M80.3418 108.5655 L78.5853 108.5655 "/>
<path d="M78.5853 108.5655 L77.8827 108.2142 "/>
<path d="M77.8827 108.2142 L77.5314 107.8629 "/>
<path d="M88.4216 101.1882 L84.9087 101.1882 "/>
<path d="M84.9087 101.1882 L84.5574 104.7012 "/>
<path d="M84.5574 104.7012 L84.9087 104.3499 "/>
<path d="M84.9087 104.3499 L85.6113 103.9986 "/>
<path d="M85.6113 103.9986 L87.3677 103.9986 "/>
<path d="M87.3677 103.9986 L88.0703 104.3499 "/>
<path d="M88.0703 104.3499 L88.4216 104.7012 "/>
<path d="M88.4216 104.7012 L88.7729 105.4038 "/>
<path d="M88.7729 105.4038 L88.7729 107.1603 "/>
<path d="M88.7729 107.1603 L88.4216 107.8629 "/>
<path d="M88.4216 107.8629 L88.0703 108.2142 "/>
<path d="M88.0703 108.2142 L87.3677 108.5655 "/>
<path d="M87.3677 108.5655 L85.6113 108.5655 "/>
<path d="M85.6113 108.5655 L84.9087 108.2142 "/>
<path d="M84.9087 108.2142 L84.5574 107.8629 "/>
<path d="M96.1502 107.8629 L95.7989 108.2142 "/>
<path d="M95.7989 108.2142 L94.7450 108.5655 "/>
<path d="M94.7450 108.5655 L94.0424 108.5655 "/>
<path d="M94.0424 108.5655 L92.9885 108.2142 "/>
<path d="M92.9885 108.2142 L92.2859 107.5116 "/>
<path d="M92.2859 107.5116 L91.9346 106.8090 "/>
<path d="M91.9346 106.8090 L91.5833 105.4038 "/>
<path d="M91.5833 105.4038 L91.5833 104.3499 "/>
<path d="M91.5833 104.3499 L91.9346 102.9447 "/>
<path d="M91.9346 102.9447 L92.2859 102.2421 "/>
<path d="M92.2859 102.2421 L92.9885 101.5395 "/>
<path d="M92.9885 101.5395 L94.0424 101.1882 "/>
<path d="M94.0424 101.1882 L94.7450 101.1882 "/>
<path d="M94.7450 101.1882 L95.7989 101.5395 "/>
<path d="M95.7989 101.5395 L96.1502 101.8908 "/>
<path d="M98.6092 101.1882 L103.1761 101.1882 "/>
<path d="M103.1761 101.1882 L100.7170 103.9986 "/>
<path d="M100.7170 103.9986 L101.7709 103.9986 "/>
<path d="M101.7709 103.9986 L102.4735 104.3499 "/>
<path d="M102.4735 104.3499 L102.8248 104.7012 "/>
<path d="M102.8248 104.7012 L103.1761 105.4038 "/>
<path d="M103.1761 105.4038 L103.1761 107.1603 "/>
<path d="M103.1761 107.1603 L102.8248 107.8629 "/>
<path d="M102.8248 107.8629 L102.4735 108.2142 "/>
<path d="M102.4735 108.2142 L101.7709 108.5655 "/>
<path d="M101.7709 108.5655 L99.6631 108.5655 "/>
<path d="M99.6631 108.5655 L98.9605 108.2142 "/>
<path d="M98.9605 108.2142 L98.6092 107.8629 "/>
<path d="M105.2839 101.1882 L107.7430 108.5655 "/>
<path d="M107.7430 108.5655 L110.2020 101.1882 "/>
<path d="M115.8228 101.1882 L114.4176 101.1882 "/>
<path d="M114.4176 101.1882 L113.7150 101.5395 "/>
<path d="M113.7150 101.5395 L113.3637 101.8908 "/>
<path d="M113.3637 101.8908 L112.6611 102.9447 "/>
<path d="M112.6611 102.9447 L112.3098 104.3499 "/>
<path d="M112.3098 104.3499 L112.3098 107.1603 "/>
<path d="M112.3098 107.1603 L112.6611 107.8629 "/>
<path d="M112.6611 107.8629 L113.0124 108.2142 "/>
<path d="M113.0124 108.2142 L113.7150 108.5655 "/>
<path d="M113.7150 108.5655 L115.1202 108.5655 "/>
<path d="M115.1202 108.5655 L115.8228 108.2142 "/>
<path d="M115.8228 108.2142 L116.1741 107.8629 "/>
<path d="M116.1741 107.8629 L116.5254 107.1603 "/>
<path d="M116.5254 107.1603 L116.5254 105.4038 "/>
<path d="M116.5254 105.4038 L116.1741 104.7012 "/>
<path d="M116.1741 104.7012 L115.8228 104.3499 "/>
<path d="M115.8228 104.3499 L115.1202 103.9986 "/>
<path d="M115.1202 103.9986 L113.7150 103.9986 "/>
<path d="M113.7150 103.9986 L113.0124 104.3499 "/>
<path d="M113.0124 104.3499 L112.6611 104.7012 "/>
<path d="M112.6611 104.7012 L112.3098 105.4038 "/>
</g><text x="86.6651" y="136.5634" transform="scale(-1 1) translate(-173.330277 0)" textLength="15.6942" font-size="9.8363" lengthAdjust="spacingAndGlyphs" text-anchor="middle" opacity="0.01" style="font-family:monospace">D1</text>
<g class="stroked-text"><desc>D1</desc>
<path d="M81.2200 136.2301 L81.2200 128.8529 "/>
<path d="M81.2200 128.8529 L82.9765 128.8529 "/>
<path d="M82.9765 128.8529 L84.0304 129.2042 "/>
<path d="M84.0304 129.2042 L84.7330 129.9067 "/>
<path d="M84.7330 129.9067 L85.0843 130.6093 "/>
<path d="M85.0843 130.6093 L85.4356 132.0145 "/>
<path d="M85.4356 132.0145 L85.4356 133.0684 "/>
<path d="M85.4356 133.0684 L85.0843 134.4736 "/>
<path d="M85.0843 134.4736 L84.7330 135.1762 "/>
<path d="M84.7330 135.1762 L84.0304 135.8788 "/>
<path d="M84.0304 135.8788 L82.9765 136.2301 "/>
<path d="M82.9765 136.2301 L81.2200 136.2301 "/>
<path d="M92.4615 136.2301 L88.2460 136.2301 "/>
<path d="M90.3538 136.2301 L90.3538 128.8529 "/>
<path d="M90.3538 128.8529 L89.6512 129.9067 "/>
<path d="M89.6512 129.9067 L88.9486 130.6093 "/>
<path d="M88.9486 130.6093 L88.2460 130.9606 "/>
</g></g>
<g style="fill:#000084; fill-opacity:0.0;  stroke:#000084; stroke-width:1.8738; stroke-opacity:1;  stroke-linecap:round; stroke-linejoin:round;">
<g transform="rotate(-90.000000 191.5989 125.6156)">
<text x="191.5989" y="130.3001" transform="scale(-1 1) translate(-383.197785 0)" textLength="25.5642" font-size="12.4921" lengthAdjust="spacingAndGlyphs" text-anchor="middle" opacity="0.01" style="font-family:monospace">IC1</text>
</g>
<g class="stroked-text"><desc>IC1</desc>
<path d="M187.3620 116.4696 L196.7311 116.4696 "/>
<path d="M188.2543 126.2848 L187.8082 125.8387 "/>
<path d="M187.8082 125.8387 L187.3620 124.5002 "/>
<path d="M187.3620 124.5002 L187.3620 123.6079 "/>
<path d="M187.3620 123.6079 L187.8082 122.2695 "/>
<path d="M187.8082 122.2695 L188.7005 121.3772 "/>
<path d="M188.7005 121.3772 L189.5928 120.9310 "/>
<path d="M189.5928 120.9310 L191.3773 120.4849 "/>
<path d="M191.3773 120.4849 L192.7158 120.4849 "/>
<path d="M192.7158 120.4849 L194.5004 120.9310 "/>
<path d="M194.5004 120.9310 L195.3927 121.3772 "/>
<path d="M195.3927 121.3772 L196.2850 122.2695 "/>
<path d="M196.2850 122.2695 L196.7311 123.6079 "/>
<path d="M196.7311 123.6079 L196.7311 124.5002 "/>
<path d="M196.7311 124.5002 L196.2850 125.8387 "/>
<path d="M196.2850 125.8387 L195.8388 126.2848 "/>
<path d="M187.3620 135.2077 L187.3620 129.8540 "/>
<path d="M187.3620 132.5309 L196.7311 132.5309 "/>
<path d="M196.7311 132.5309 L195.3927 131.6386 "/>
<path d="M195.3927 131.6386 L194.5004 130.7463 "/>
<path d="M194.5004 130.7463 L194.0542 129.8540 "/>
</g></g>
<g style="fill:#000084; fill-opacity:0.01;  stroke:#000084; stroke-width:1.1066; stroke-opacity:1;  stroke-linecap:round; stroke-linejoin:round;">
<text x="161.6178" y="118.0386" transform="scale(-1 1) translate(-323.235640 0)" textLength="22.7201" font-size="9.8363" lengthAdjust="spacingAndGlyphs" text-anchor="middle" opacity="0.01" style="font-family:monospace">DNF</text>
<g class="stroked-text"><desc>DNF</desc>
<path d="M152.6598 117.7053 L152.6598 110.3281 "/>
<path d="M152.6598 110.3281 L154.4162 110.3281 "/>
<path d="M154.4162 110.3281 L155.4701 110.6794 "/>
<path d="M155.4701 110.6794 L156.1727 111.3820 "/>
<path d="M156.1727 111.3820 L156.5240 112.0846 "/>
<path d="M156.5240 112.0846 L156.8753 113.4898 "/>
<path d="M156.8753 113.4898 L156.8753 114.5437 "/>
<path d="M156.8753 114.5437 L156.5240 115.9488 "/>
<path d="M156.5240 115.9488 L156.1727 116.6514 "/>
<path d="M156.1727 116.6514 L155.4701 117.3540 "/>
<path d="M155.4701 117.3540 L154.4162 117.7053 "/>
<path d="M154.4162 117.7053 L152.6598 117.7053 "/>
<path d="M160.0370 117.7053 L160.0370 110.3281 "/>
<path d="M160.0370 110.3281 L164.2525 117.7053 "/>
<path d="M164.2525 117.7053 L164.2525 110.3281 "/>
<path d="M170.2246 113.8411 L167.7655 113.8411 "/>
<path d="M167.7655 117.7053 L167.7655 110.3281 "/>
<path d="M167.7655 110.3281 L171.2785 110.3281 "/>
</g></g>
<g style="fill:#000084; fill-opacity:0.01;  stroke:#000084; stroke-width:0.5902; stroke-opacity:1;  stroke-linecap:round; stroke-linejoin:round;">
<text x="131.6367" y="89.9836" transform="scale(-1 1) translate(-263.273495 0)" textLength="7.9393" font-size="4.9182" lengthAdjust="spacingAndGlyphs" text-anchor="middle" opacity="0.01" style="font-family:monospace">R2</text>
<g class="stroked-text"><desc>R2</desc>
<path d="M131.0220 89.8150 L129.7924 88.0585 "/>
<path d="M128.9142 89.8150 L128.9142 86.1264 "/>
<path d="M128.9142 86.1264 L130.3194 86.1264 "/>
<path d="M130.3194 86.1264 L130.6707 86.3020 "/>
<path d="M130.6707 86.3020 L130.8463 86.4777 "/>
<path d="M130.8463 86.4777 L131.0220 86.8290 "/>
<path d="M131.0220 86.8290 L131.0220 87.3559 "/>
<path d="M131.0220 87.3559 L130.8463 87.7072 "/>
<path d="M130.8463 87.7072 L130.6707 87.8828 "/>
<path d="M130.6707 87.8828 L130.3194 88.0585 "/>
<path d="M130.3194 88.0585 L128.9142 88.0585 "/>
<path d="M132.4272 86.4777 L132.6028 86.3020 "/>
<path d="M132.6028 86.3020 L132.9541 86.1264 "/>
<path d="M132.9541 86.1264 L133.8324 86.1264 "/>
<path d="M133.8324 86.1264 L134.1837 86.3020 "/>
<path d="M134.1837 86.3020 L134.3593 86.4777 "/>
<path d="M134.3593 86.4777 L134.5350 86.8290 "/>
<path d="M134.5350 86.8290 L134.5350 87.1803 "/>
<path d="M134.5350 87.1803 L134.3593 87.7072 "/>
<path d="M134.3593 87.7072 L132.2515 89.8150 "/>
<path d="M132.2515 89.8150 L134.5350 89.8150 "/>
</g></g>
<g style="fill:#000084; fill-opacity:0.0;  stroke:#000084; stroke-width:1.1066; stroke-opacity:1;  stroke-linecap:round; stroke-linejoin:round;">
<g transform="rotate(-90.000000 151.5258 126.1025)">
<text x="151.5258" y="129.7911" transform="scale(-1 1) translate(-303.051532 0)" textLength="28.3409" font-size="9.8363" lengthAdjust="spacingAndGlyphs" text-anchor="middle" opacity="0.01" style="font-family:monospace">10uF</text>
</g>
<g class="stroked-text"><desc>10uF</desc>
<path d="M148.1705 118.1983 L148.1705 113.9827 "/>
<path d="M148.1705 116.0905 L155.5477 116.0905 "/>
<path d="M155.5477 116.0905 L154.4938 115.3879 "/>
<path d="M154.4938 115.3879 L153.7912 114.6853 "/>
<path d="M153.7912 114.6853 L153.4399 113.9827 "/>
<path d="M155.5477 122.7652 L155.5477 123.4678 "/>
<path d="M155.5477 123.4678 L155.1964 124.1704 "/>
<path d="M155.1964 124.1704 L154.8451 124.5216 "/>
<path d="M154.8451 124.5216 L154.1425 124.8729 "/>
<path d="M154.1425 124.8729 L152.7373 125.2242 "/>
<path d="M152.7373 125.2242 L150.9808 125.2242 "/>
<path d="M150.9808 125.2242 L149.5757 124.8729 "/>
<path d="M149.5757 124.8729 L148.8731 124.5216 "/>
<path d="M148.8731 124.5216 L148.5218 124.1704 "/>
<path d="M148.5218 124.1704 L148.1705 123.4678 "/>
<path d="M148.1705 123.4678 L148.1705 122.7652 "/>
<path d="M148.1705 122.7652 L148.5218 122.0626 "/>
<path d="M148.5218 122.0626 L148.8731 121.7113 "/>
<path d="M148.8731 121.7113 L149.5757 121.3600 "/>
<path d="M149.5757 121.3600 L150.9808 121.0087 "/>
<path d="M150.9808 121.0087 L152.7373 121.0087 "/>
<path d="M152.7373 121.0087 L154.1425 121.3600 "/>
<path d="M154.1425 121.3600 L154.8451 121.7113 "/>
<path d="M154.8451 121.7113 L155.1964 122.0626 "/>
<path d="M155.1964 122.0626 L155.5477 122.7652 "/>
<path d="M153.0886 131.5476 L148.1705 131.5476 "/>
<path d="M153.0886 128.3859 L149.2244 128.3859 "/>
<path d="M149.2244 128.3859 L148.5218 128.7372 "/>
<path d="M148.5218 128.7372 L148.1705 129.4398 "/>
<path d="M148.1705 129.4398 L148.1705 130.4937 "/>
<path d="M148.1705 130.4937 L148.5218 131.1963 "/>
<path d="M148.5218 131.1963 L148.8731 131.5476 "/>
<path d="M152.0347 137.5196 L152.0347 135.0606 "/>
<path d="M148.1705 135.0606 L155.5477 135.0606 "/>
<path d="M155.5477 135.0606 L155.5477 138.5735 "/>
</g></g>
<g style="fill:#000084; fill-opacity:0.0;  stroke:#000084; stroke-width:0.5902; stroke-opacity:1;  stroke-linecap:round; stroke-linejoin:round;">
<g transform="rotate(-90.000000 139.1320 126.1025)">
<text x="139.1320" y="127.9468" transform="scale(-1 1) translate(-278.264031 0)" textLength="7.9393" font-size="4.9182" lengthAdjust="spacingAndGlyphs" text-anchor="middle" opacity="0.01" style="font-family:monospace">C1</text>
</g>
<g class="stroked-text"><desc>C1</desc>
<path d="M137.8076 125.4877 L137.6319 125.3121 "/>
<path d="M137.6319 125.3121 L137.4563 124.7851 "/>
<path d="M137.4563 124.7851 L137.4563 124.4338 "/>
<path d="M137.4563 124.4338 L137.6319 123.9069 "/>
<path d="M137.6319 123.9069 L137.9832 123.5556 "/>
<path d="M137.9832 123.5556 L138.3345 123.3799 "/>
<path d="M138.3345 123.3799 L139.0371 123.2043 "/>
<path d="M139.0371 123.2043 L139.5641 123.2043 "/>
<path d="M139.5641 123.2043 L140.2667 123.3799 "/>
<path d="M140.2667 123.3799 L140.6180 123.5556 "/>
<path d="M140.6180 123.5556 L140.9692 123.9069 "/>
<path d="M140.9692 123.9069 L141.1449 124.4338 "/>
<path d="M141.1449 124.4338 L141.1449 124.7851 "/>
<path d="M141.1449 124.7851 L140.9692 125.3121 "/>
<path d="M140.9692 125.3121 L140.7936 125.4877 "/>
<path d="M137.4563 129.0007 L137.4563 126.8929 "/>
<path d="M137.4563 127.9468 L141.1449 127.9468 "/>
<path d="M141.1449 127.9468 L140.6180 127.5955 "/>
<path d="M140.6180 127.5955 L140.2667 127.2442 "/>
<path d="M140.2667 127.2442 L140.0910 126.8929 "/>
</g></g>
<g style="fill:#000084; fill-opacity:0.01;  stroke:#000084; stroke-width:1.1066; stroke-opacity:1;  stroke-linecap:round; stroke-linejoin:round;">
<text x="148.5011" y="173.3020" transform="scale(-1 1) translate(-297.002202 0)" textLength="150.2409" font-size="9.8363" lengthAdjust="spacingAndGlyphs" text-anchor="middle" opacity="0.01" style="font-family:monospace">SolderJumper_3_Bridged12</text>
<g class="stroked-text"><desc>SolderJumper_3_Bridged12</desc>
<path d="M75.4314 172.6174 L76.4853 172.9687 "/>
<path d="M76.4853 172.9687 L78.2417 172.9687 "/>
<path d="M78.2417 172.9687 L78.9443 172.6174 "/>
<path d="M78.9443 172.6174 L79.2956 172.2661 "/>
<path d="M79.2956 172.2661 L79.6469 171.5635 "/>
<path d="M79.6469 171.5635 L79.6469 170.8609 "/>
<path d="M79.6469 170.8609 L79.2956 170.1583 "/>
<path d="M79.2956 170.1583 L78.9443 169.8070 "/>
<path d="M78.9443 169.8070 L78.2417 169.4557 "/>
<path d="M78.2417 169.4557 L76.8366 169.1044 "/>
<path d="M76.8366 169.1044 L76.1340 168.7531 "/>
<path d="M76.1340 168.7531 L75.7827 168.4018 "/>
<path d="M75.7827 168.4018 L75.4314 167.6993 "/>
<path d="M75.4314 167.6993 L75.4314 166.9967 "/>
<path d="M75.4314 166.9967 L75.7827 166.2941 "/>
<path d="M75.7827 166.2941 L76.1340 165.9428 "/>
<path d="M76.1340 165.9428 L76.8366 165.5915 "/>
<path d="M76.8366 165.5915 L78.5930 165.5915 "/>
<path d="M78.5930 165.5915 L79.6469 165.9428 "/>
<path d="M83.8625 172.9687 L83.1599 172.6174 "/>
<path d="M83.1599 172.6174 L82.8086 172.2661 "/>
<path d="M82.8086 172.2661 L82.4573 171.5635 "/>
<path d="M82.4573 171.5635 L82.4573 169.4557 "/>
<path d="M82.4573 169.4557 L82.8086 168.7531 "/>
<path d="M82.8086 168.7531 L83.1599 168.4018 "/>
<path d="M83.1599 168.4018 L83.8625 168.0506 "/>
<path d="M83.8625 168.0506 L84.9164 168.0506 "/>
<path d="M84.9164 168.0506 L85.6190 168.4018 "/>
<path d="M85.6190 168.4018 L85.9703 168.7531 "/>
<path d="M85.9703 168.7531 L86.3216 169.4557 "/>
<path d="M86.3216 169.4557 L86.3216 171.5635 "/>
<path d="M86.3216 171.5635 L85.9703 172.2661 "/>
<path d="M85.9703 172.2661 L85.6190 172.6174 "/>
<path d="M85.6190 172.6174 L84.9164 172.9687 "/>
<path d="M84.9164 172.9687 L83.8625 172.9687 "/>
<path d="M90.5371 172.9687 L89.8345 172.6174 "/>
<path d="M89.8345 172.6174 L89.4832 171.9148 "/>
<path d="M89.4832 171.9148 L89.4832 165.5915 "/>
<path d="M96.5092 172.9687 L96.5092 165.5915 "/>
<path d="M96.5092 172.6174 L95.8066 172.9687 "/>
<path d="M95.8066 172.9687 L94.4014 172.9687 "/>
<path d="M94.4014 172.9687 L93.6988 172.6174 "/>
<path d="M93.6988 172.6174 L93.3475 172.2661 "/>
<path d="M93.3475 172.2661 L92.9962 171.5635 "/>
<path d="M92.9962 171.5635 L92.9962 169.4557 "/>
<path d="M92.9962 169.4557 L93.3475 168.7531 "/>
<path d="M93.3475 168.7531 L93.6988 168.4018 "/>
<path d="M93.6988 168.4018 L94.4014 168.0506 "/>
<path d="M94.4014 168.0506 L95.8066 168.0506 "/>
<path d="M95.8066 168.0506 L96.5092 168.4018 "/>
<path d="M102.8325 172.6174 L102.1299 172.9687 "/>
<path d="M102.1299 172.9687 L100.7247 172.9687 "/>
<path d="M100.7247 172.9687 L100.0221 172.6174 "/>
<path d="M100.0221 172.6174 L99.6709 171.9148 "/>
<path d="M99.6709 171.9148 L99.6709 169.1044 "/>
<path d="M99.6709 169.1044 L100.0221 168.4018 "/>
<path d="M100.0221 168.4018 L100.7247 168.0506 "/>
<path d="M100.7247 168.0506 L102.1299 168.0506 "/>
<path d="M102.1299 168.0506 L102.8325 168.4018 "/>
<path d="M102.8325 168.4018 L103.1838 169.1044 "/>
<path d="M103.1838 169.1044 L103.1838 169.8070 "/>
<path d="M103.1838 169.8070 L99.6709 170.5096 "/>
<path d="M106.3455 172.9687 L106.3455 168.0506 "/>
<path d="M106.3455 169.4557 L106.6968 168.7531 "/>
<path d="M106.6968 168.7531 L107.0481 168.4018 "/>
<path d="M107.0481 168.4018 L107.7507 168.0506 "/>
<path d="M107.7507 168.0506 L108.4533 168.0506 "/>
<path d="M113.0201 165.5915 L113.0201 170.8609 "/>
<path d="M113.0201 170.8609 L112.6688 171.9148 "/>
<path d="M112.6688 171.9148 L111.9662 172.6174 "/>
<path d="M111.9662 172.6174 L110.9124 172.9687 "/>
<path d="M110.9124 172.9687 L110.2098 172.9687 "/>
<path d="M119.6948 168.0506 L119.6948 172.9687 "/>
<path d="M116.5331 168.0506 L116.5331 171.9148 "/>
<path d="M116.5331 171.9148 L116.8844 172.6174 "/>
<path d="M116.8844 172.6174 L117.5870 172.9687 "/>
<path d="M117.5870 172.9687 L118.6409 172.9687 "/>
<path d="M118.6409 172.9687 L119.3435 172.6174 "/>
<path d="M119.3435 172.6174 L119.6948 172.2661 "/>
<path d="M123.2077 172.9687 L123.2077 168.0506 "/>
<path d="M123.2077 168.7531 L123.5590 168.4018 "/>
<path d="M123.5590 168.4018 L124.2616 168.0506 "/>
<path d="M124.2616 168.0506 L125.3155 168.0506 "/>
<path d="M125.3155 168.0506 L126.0181 168.4018 "/>
<path d="M126.0181 168.4018 L126.3694 169.1044 "/>
<path d="M126.3694 169.1044 L126.3694 172.9687 "/>
<path d="M126.3694 169.1044 L126.7207 168.4018 "/>
<path d="M126.7207 168.4018 L127.4233 168.0506 "/>
<path d="M127.4233 168.0506 L128.4772 168.0506 "/>
<path d="M128.4772 168.0506 L129.1798 168.4018 "/>
<path d="M129.1798 168.4018 L129.5311 169.1044 "/>
<path d="M129.5311 169.1044 L129.5311 172.9687 "/>
<path d="M133.0441 168.0506 L133.0441 175.4278 "/>
<path d="M133.0441 168.4018 L133.7466 168.0506 "/>
<path d="M133.7466 168.0506 L135.1518 168.0506 "/>
<path d="M135.1518 168.0506 L135.8544 168.4018 "/>
<path d="M135.8544 168.4018 L136.2057 168.7531 "/>
<path d="M136.2057 168.7531 L136.5570 169.4557 "/>
<path d="M136.5570 169.4557 L136.5570 171.5635 "/>
<path d="M136.5570 171.5635 L136.2057 172.2661 "/>
<path d="M136.2057 172.2661 L135.8544 172.6174 "/>
<path d="M135.8544 172.6174 L135.1518 172.9687 "/>
<path d="M135.1518 172.9687 L133.7466 172.9687 "/>
<path d="M133.7466 172.9687 L133.0441 172.6174 "/>
<path d="M142.5291 172.6174 L141.8265 172.9687 "/>
<path d="M141.8265 172.9687 L140.4213 172.9687 "/>
<path d="M140.4213 172.9687 L139.7187 172.6174 "/>
<path d="M139.7187 172.6174 L139.3674 171.9148 "/>
<path d="M139.3674 171.9148 L139.3674 169.1044 "/>
<path d="M139.3674 169.1044 L139.7187 168.4018 "/>
<path d="M139.7187 168.4018 L140.4213 168.0506 "/>
<path d="M140.4213 168.0506 L141.8265 168.0506 "/>
<path d="M141.8265 168.0506 L142.5291 168.4018 "/>
<path d="M142.5291 168.4018 L142.8804 169.1044 "/>
<path d="M142.8804 169.1044 L142.8804 169.8070 "/>
<path d="M142.8804 169.8070 L139.3674 170.5096 "/>
<path d="M146.0420 172.9687 L146.0420 168.0506 "/>
<path d="M146.0420 169.4557 L146.3933 168.7531 "/>
<path d="M146.3933 168.7531 L146.7446 168.4018 "/>
<path d="M146.7446 168.4018 L147.4472 168.0506 "/>
<path d="M147.4472 168.0506 L148.1498 168.0506 "/>
<path d="M148.8524 173.6713 L154.4732 173.6713 "/>
<path d="M155.5271 165.5915 L160.0939 165.5915 "/>
<path d="M160.0939 165.5915 L157.6348 168.4018 "/>
<path d="M157.6348 168.4018 L158.6887 168.4018 "/>
<path d="M158.6887 168.4018 L159.3913 168.7531 "/>
<path d="M159.3913 168.7531 L159.7426 169.1044 "/>
<path d="M159.7426 169.1044 L160.0939 169.8070 "/>
<path d="M160.0939 169.8070 L160.0939 171.5635 "/>
<path d="M160.0939 171.5635 L159.7426 172.2661 "/>
<path d="M159.7426 172.2661 L159.3913 172.6174 "/>
<path d="M159.3913 172.6174 L158.6887 172.9687 "/>
<path d="M158.6887 172.9687 L156.5809 172.9687 "/>
<path d="M156.5809 172.9687 L155.8783 172.6174 "/>
<path d="M155.8783 172.6174 L155.5271 172.2661 "/>
<path d="M161.4991 173.6713 L167.1198 173.6713 "/>
<path d="M171.3354 169.1044 L172.3893 169.4557 "/>
<path d="M172.3893 169.4557 L172.7406 169.8070 "/>
<path d="M172.7406 169.8070 L173.0919 170.5096 "/>
<path d="M173.0919 170.5096 L173.0919 171.5635 "/>
<path d="M173.0919 171.5635 L172.7406 172.2661 "/>
<path d="M172.7406 172.2661 L172.3893 172.6174 "/>
<path d="M172.3893 172.6174 L171.6867 172.9687 "/>
<path d="M171.6867 172.9687 L168.8763 172.9687 "/>
<path d="M168.8763 172.9687 L168.8763 165.5915 "/>
<path d="M168.8763 165.5915 L171.3354 165.5915 "/>
<path d="M171.3354 165.5915 L172.0380 165.9428 "/>
<path d="M172.0380 165.9428 L172.3893 166.2941 "/>
<path d="M172.3893 166.2941 L172.7406 166.9967 "/>
<path d="M172.7406 166.9967 L172.7406 167.6993 "/>
<path d="M172.7406 167.6993 L172.3893 168.4018 "/>
<path d="M172.3893 168.4018 L172.0380 168.7531 "/>
<path d="M172.0380 168.7531 L171.3354 169.1044 "/>
<path d="M171.3354 169.1044 L168.8763 169.1044 "/>
<path d="M176.2536 172.9687 L176.2536 168.0506 "/>
<path d="M176.2536 169.4557 L176.6049 168.7531 "/>
<path d="M176.6049 168.7531 L176.9562 168.4018 "/>
<path d="M176.9562 168.4018 L177.6587 168.0506 "/>
<path d="M177.6587 168.0506 L178.3613 168.0506 "/>
<path d="M180.8204 172.9687 L180.8204 168.0506 "/>
<path d="M180.8204 165.5915 L180.4691 165.9428 "/>
<path d="M180.4691 165.9428 L180.8204 166.2941 "/>
<path d="M180.8204 166.2941 L181.1717 165.9428 "/>
<path d="M181.1717 165.9428 L180.8204 165.5915 "/>
<path d="M180.8204 165.5915 L180.8204 166.2941 "/>
<path d="M187.4951 172.9687 L187.4951 165.5915 "/>
<path d="M187.4951 172.6174 L186.7925 172.9687 "/>
<path d="M186.7925 172.9687 L185.3873 172.9687 "/>
<path d="M185.3873 172.9687 L184.6847 172.6174 "/>
<path d="M184.6847 172.6174 L184.3334 172.2661 "/>
<path d="M184.3334 172.2661 L183.9821 171.5635 "/>
<path d="M183.9821 171.5635 L183.9821 169.4557 "/>
<path d="M183.9821 169.4557 L184.3334 168.7531 "/>
<path d="M184.3334 168.7531 L184.6847 168.4018 "/>
<path d="M184.6847 168.4018 L185.3873 168.0506 "/>
<path d="M185.3873 168.0506 L186.7925 168.0506 "/>
<path d="M186.7925 168.0506 L187.4951 168.4018 "/>
<path d="M194.1697 168.0506 L194.1697 174.0226 "/>
<path d="M194.1697 174.0226 L193.8184 174.7252 "/>
<path d="M193.8184 174.7252 L193.4671 175.0765 "/>
<path d="M193.4671 175.0765 L192.7645 175.4278 "/>
<path d="M192.7645 175.4278 L191.7106 175.4278 "/>
<path d="M191.7106 175.4278 L191.0080 175.0765 "/>
<path d="M194.1697 172.6174 L193.4671 172.9687 "/>
<path d="M193.4671 172.9687 L192.0619 172.9687 "/>
<path d="M192.0619 172.9687 L191.3593 172.6174 "/>
<path d="M191.3593 172.6174 L191.0080 172.2661 "/>
<path d="M191.0080 172.2661 L190.6567 171.5635 "/>
<path d="M190.6567 171.5635 L190.6567 169.4557 "/>
<path d="M190.6567 169.4557 L191.0080 168.7531 "/>
<path d="M191.0080 168.7531 L191.3593 168.4018 "/>
<path d="M191.3593 168.4018 L192.0619 168.0506 "/>
<path d="M192.0619 168.0506 L193.4671 168.0506 "/>
<path d="M193.4671 168.0506 L194.1697 168.4018 "/>
<path d="M200.4930 172.6174 L199.7904 172.9687 "/>
<path d="M199.7904 172.9687 L198.3853 172.9687 "/>
<path d="M198.3853 172.9687 L197.6827 172.6174 "/>
<path d="M197.6827 172.6174 L197.3314 171.9148 "/>
<path d="M197.3314 171.9148 L197.3314 169.1044 "/>
<path d="M197.3314 169.1044 L197.6827 168.4018 "/>
<path d="M197.6827 168.4018 L198.3853 168.0506 "/>
<path d="M198.3853 168.0506 L199.7904 168.0506 "/>
<path d="M199.7904 168.0506 L200.4930 168.4018 "/>
<path d="M200.4930 168.4018 L200.8443 169.1044 "/>
<path d="M200.8443 169.1044 L200.8443 169.8070 "/>
<path d="M200.8443 169.8070 L197.3314 170.5096 "/>
<path d="M207.1677 172.9687 L207.1677 165.5915 "/>
<path d="M207.1677 172.6174 L206.4651 172.9687 "/>
<path d="M206.4651 172.9687 L205.0599 172.9687 "/>
<path d="M205.0599 172.9687 L204.3573 172.6174 "/>
<path d="M204.3573 172.6174 L204.0060 172.2661 "/>
<path d="M204.0060 172.2661 L203.6547 171.5635 "/>
<path d="M203.6547 171.5635 L203.6547 169.4557 "/>
<path d="M203.6547 169.4557 L204.0060 168.7531 "/>
<path d="M204.0060 168.7531 L204.3573 168.4018 "/>
<path d="M204.3573 168.4018 L205.0599 168.0506 "/>
<path d="M205.0599 168.0506 L206.4651 168.0506 "/>
<path d="M206.4651 168.0506 L207.1677 168.4018 "/>
<path d="M214.5449 172.9687 L210.3294 172.9687 "/>
<path d="M212.4371 172.9687 L212.4371 165.5915 "/>
<path d="M212.4371 165.5915 L211.7345 166.6454 "/>
<path d="M211.7345 166.6454 L211.0319 167.3480 "/>
<path d="M211.0319 167.3480 L210.3294 167.6993 "/>
<path d="M217.3553 166.2941 L217.7066 165.9428 "/>
<path d="M217.7066 165.9428 L218.4092 165.5915 "/>
<path d="M218.4092 165.5915 L220.1657 165.5915 "/>
<path d="M220.1657 165.5915 L220.8683 165.9428 "/>
<path d="M220.8683 165.9428 L221.2196 166.2941 "/>
<path d="M221.2196 166.2941 L221.5708 166.9967 "/>
<path d="M221.5708 166.9967 L221.5708 167.6993 "/>
<path d="M221.5708 167.6993 L221.2196 168.7531 "/>
<path d="M221.2196 168.7531 L217.0040 172.9687 "/>
<path d="M217.0040 172.9687 L221.5708 172.9687 "/>
</g></g>
<g style="fill:#000084; fill-opacity:0.0;  stroke:#000084; stroke-width:0.7377; stroke-opacity:1;  stroke-linecap:round; stroke-linejoin:round;">
<path d="M109.0329 92.7500 L94.2784 92.7500 "/>
<path d="M109.0329 83.5285 L109.0329 92.7500 "/>
<path d="M94.2784 92.7500 L94.2784 83.5285 "/>
<path d="M94.2784 83.5285 L109.0329 83.5285 "/>
<path d="M117.6569 133.4797 L117.6569 118.7253 "/>
<path d="M126.8784 118.7253 L126.8784 133.4797 "/>
<path d="M126.8784 133.4797 L117.6569 133.4797 "/>
<path d="M117.6569 118.7253 L126.8784 118.7253 "/>
<path d="M74.4927 124.0221 L74.4927 112.2185 "/>
<path d="M89.2472 118.1203 L89.2472 114.0628 "/>
<path d="M98.8376 124.0221 L74.4927 124.0221 "/>
<path d="M84.8208 115.1694 L89.2472 118.1203 "/>
<path d="M84.8208 121.0712 L84.8208 115.1694 "/>
<path d="M84.8208 118.1203 L81.1322 118.1203 "/>
<path d="M98.8376 112.2185 L98.8376 124.0221 "/>
<path d="M92.1981 118.1203 L89.2472 118.1203 "/>
<path d="M74.4927 112.2185 L98.8376 112.2185 "/>
<path d="M89.2472 118.1203 L84.8208 121.0712 "/>
<path d="M89.2472 118.1203 L89.2472 122.1778 "/>
</g>
<g style="fill:#000084; fill-opacity:0.0;  stroke:#000084; stroke-width:1.8738; stroke-opacity:1;  stroke-linecap:round; stroke-linejoin:round;">
<path d="M149.9028 114.5497 L184.5758 114.5497 "/>
<path d="M184.5758 114.5497 L184.5758 136.6814 "/>
<path d="M184.5758 136.6814 L149.9028 136.6814 "/>
<path d="M149.9028 136.6814 L149.9028 114.5497 "/>
</g>
<g style="fill:#000084; fill-opacity:0.0;  stroke:#000084; stroke-width:0.7377; stroke-opacity:1;  stroke-linecap:round; stroke-linejoin:round;">
<path d="M139.0140 83.5285 L139.0140 92.7500 "/>
<path d="M124.2595 92.7500 L124.2595 83.5285 "/>
<path d="M139.0140 92.7500 L124.2595 92.7500 "/>
<path d="M124.2595 83.5285 L139.0140 83.5285 "/>
<path d="M134.5212 118.7253 L143.7428 118.7253 "/>
<path d="M143.7428 133.4797 L134.5212 133.4797 "/>
<path d="M143.7428 118.7253 L143.7428 133.4797 "/>
<path d="M134.5212 133.4797 L134.5212 118.7253 "/>
<g>
</g>
<g>
</g>
<g>
</g>
<g>
</g>
<g>
</g>
<g>
</g>
<g>
</g>
<g>
</g>
<g>
</g>
<g>
</g>
<g>
</g>
<g>
</g>
<g>
</g>
<g>
</g>
<g>
</g>
<g>
</g>
<g>
</g>
</g> 
<svg:g><svg:g><svg:title>SVG Image created as ALTIMET02-Edge_Cuts.svg date 2023/07/21 03:34:41 </svg:title>
  <svg:desc>Image generated by PCBNEW </svg:desc>
<svg:g style="fill:#C2C200; fill-opacity:1.0000;stroke:#C2C200; stroke-opacity:1.0000; stroke-linecap:round; stroke-linejoin:round;" transform="translate(0 0) scale(1 1)">
</svg:g>
<svg:g style="fill:#C2C200; fill-opacity:0.0;  stroke:#C2C200; stroke-width:0.0000; stroke-opacity:1;  stroke-linecap:round; stroke-linejoin:round;">
</svg:g>
<svg:g style="fill:#C2C200; fill-opacity:0.0;  stroke:#C2C200; stroke-width:0.9369; stroke-opacity:1;  stroke-linecap:round; stroke-linejoin:round;">
<svg:path d="M296.5326 178.0825 L296.5326 31.9247 "/>
<svg:path d="M296.5326 31.9247 L0.4696 31.9247 "/>
<svg:path d="M0.4696 178.0825 L296.5326 178.0825 "/>
<svg:path d="M0.4696 31.9247 L0.4696 178.0825 "/>
<svg:g>
</svg:g>
<svg:g>
</svg:g>
<svg:g>
</svg:g>
<svg:g>
</svg:g>
<svg:g>
</svg:g>
<svg:g>
</svg:g>
<svg:g>
</svg:g>
<svg:g>
</svg:g>
<svg:g>
</svg:g>
<svg:g>
</svg:g>
<svg:g>
</svg:g>
<svg:g>
</svg:g>
<svg:g>
</svg:g>
<svg:g>
</svg:g>
<svg:g>
</svg:g>
<svg:g>
</svg:g>
<svg:g>
</svg:g>
</svg:g> 
</svg:g></svg:g></svg>
