<?xml version='1.0' encoding='ASCII' standalone='yes'?>
<svg xmlns:svg="http://www.w3.org/2000/svg" xmlns="http://www.w3.org/2000/svg" xmlns:xlink="http://www.w3.org/1999/xlink" version="1.1" width="297.0022mm" height="210.0072mm" viewBox="0.0000 0.0000 297.0022 210.0072">
<title>SVG Image created as ALTIMET02-F_Fab.svg date 2023/09/11 00:33:37 </title>
  <desc>Image generated by PCBNEW </desc>
<g style="fill:#848484; fill-opacity:1.0000;stroke:#848484; stroke-opacity:1.0000; stroke-linecap:round; stroke-linejoin:round;" transform="translate(0 0) scale(1 1)">
</g>
<g style="fill:#848484; fill-opacity:0.0;  stroke:#848484; stroke-width:0.0000; stroke-opacity:1;  stroke-linecap:round; stroke-linejoin:round;">
</g>
<g style="fill:#848484; fill-opacity:0.01;  stroke:#848484; stroke-width:1.1066; stroke-opacity:1;  stroke-linecap:round; stroke-linejoin:round;">
<text x="134.3737" y="145.9177" textLength="150.7942" font-size="9.8363" lengthAdjust="spacingAndGlyphs" text-anchor="middle" opacity="0.01" style="font-family:monospace">SolderJumper_3_Bridged12</text>
<g class="stroked-text"><desc>SolderJumper_3_Bridged12</desc>
<path d="M61.3040 145.2331 L62.3578 145.5844 "/>
<path d="M62.3578 145.5844 L64.1143 145.5844 "/>
<path d="M64.1143 145.5844 L64.8169 145.2331 "/>
<path d="M64.8169 145.2331 L65.1682 144.8818 "/>
<path d="M65.1682 144.8818 L65.5195 144.1792 "/>
<path d="M65.5195 144.1792 L65.5195 143.4766 "/>
<path d="M65.5195 143.4766 L65.1682 142.7740 "/>
<path d="M65.1682 142.7740 L64.8169 142.4227 "/>
<path d="M64.8169 142.4227 L64.1143 142.0715 "/>
<path d="M64.1143 142.0715 L62.7091 141.7202 "/>
<path d="M62.7091 141.7202 L62.0066 141.3689 "/>
<path d="M62.0066 141.3689 L61.6553 141.0176 "/>
<path d="M61.6553 141.0176 L61.3040 140.3150 "/>
<path d="M61.3040 140.3150 L61.3040 139.6124 "/>
<path d="M61.3040 139.6124 L61.6553 138.9098 "/>
<path d="M61.6553 138.9098 L62.0066 138.5585 "/>
<path d="M62.0066 138.5585 L62.7091 138.2072 "/>
<path d="M62.7091 138.2072 L64.4656 138.2072 "/>
<path d="M64.4656 138.2072 L65.5195 138.5585 "/>
<path d="M69.7351 145.5844 L69.0325 145.2331 "/>
<path d="M69.0325 145.2331 L68.6812 144.8818 "/>
<path d="M68.6812 144.8818 L68.3299 144.1792 "/>
<path d="M68.3299 144.1792 L68.3299 142.0715 "/>
<path d="M68.3299 142.0715 L68.6812 141.3689 "/>
<path d="M68.6812 141.3689 L69.0325 141.0176 "/>
<path d="M69.0325 141.0176 L69.7351 140.6663 "/>
<path d="M69.7351 140.6663 L70.7890 140.6663 "/>
<path d="M70.7890 140.6663 L71.4916 141.0176 "/>
<path d="M71.4916 141.0176 L71.8429 141.3689 "/>
<path d="M71.8429 141.3689 L72.1942 142.0715 "/>
<path d="M72.1942 142.0715 L72.1942 144.1792 "/>
<path d="M72.1942 144.1792 L71.8429 144.8818 "/>
<path d="M71.8429 144.8818 L71.4916 145.2331 "/>
<path d="M71.4916 145.2331 L70.7890 145.5844 "/>
<path d="M70.7890 145.5844 L69.7351 145.5844 "/>
<path d="M76.4097 145.5844 L75.7071 145.2331 "/>
<path d="M75.7071 145.2331 L75.3558 144.5305 "/>
<path d="M75.3558 144.5305 L75.3558 138.2072 "/>
<path d="M82.3818 145.5844 L82.3818 138.2072 "/>
<path d="M82.3818 145.2331 L81.6792 145.5844 "/>
<path d="M81.6792 145.5844 L80.2740 145.5844 "/>
<path d="M80.2740 145.5844 L79.5714 145.2331 "/>
<path d="M79.5714 145.2331 L79.2201 144.8818 "/>
<path d="M79.2201 144.8818 L78.8688 144.1792 "/>
<path d="M78.8688 144.1792 L78.8688 142.0715 "/>
<path d="M78.8688 142.0715 L79.2201 141.3689 "/>
<path d="M79.2201 141.3689 L79.5714 141.0176 "/>
<path d="M79.5714 141.0176 L80.2740 140.6663 "/>
<path d="M80.2740 140.6663 L81.6792 140.6663 "/>
<path d="M81.6792 140.6663 L82.3818 141.0176 "/>
<path d="M88.7051 145.2331 L88.0025 145.5844 "/>
<path d="M88.0025 145.5844 L86.5973 145.5844 "/>
<path d="M86.5973 145.5844 L85.8947 145.2331 "/>
<path d="M85.8947 145.2331 L85.5434 144.5305 "/>
<path d="M85.5434 144.5305 L85.5434 141.7202 "/>
<path d="M85.5434 141.7202 L85.8947 141.0176 "/>
<path d="M85.8947 141.0176 L86.5973 140.6663 "/>
<path d="M86.5973 140.6663 L88.0025 140.6663 "/>
<path d="M88.0025 140.6663 L88.7051 141.0176 "/>
<path d="M88.7051 141.0176 L89.0564 141.7202 "/>
<path d="M89.0564 141.7202 L89.0564 142.4227 "/>
<path d="M89.0564 142.4227 L85.5434 143.1253 "/>
<path d="M92.2181 145.5844 L92.2181 140.6663 "/>
<path d="M92.2181 142.0715 L92.5694 141.3689 "/>
<path d="M92.5694 141.3689 L92.9207 141.0176 "/>
<path d="M92.9207 141.0176 L93.6233 140.6663 "/>
<path d="M93.6233 140.6663 L94.3259 140.6663 "/>
<path d="M98.8927 138.2072 L98.8927 143.4766 "/>
<path d="M98.8927 143.4766 L98.5414 144.5305 "/>
<path d="M98.5414 144.5305 L97.8388 145.2331 "/>
<path d="M97.8388 145.2331 L96.7849 145.5844 "/>
<path d="M96.7849 145.5844 L96.0824 145.5844 "/>
<path d="M105.5674 140.6663 L105.5674 145.5844 "/>
<path d="M102.4057 140.6663 L102.4057 144.5305 "/>
<path d="M102.4057 144.5305 L102.7570 145.2331 "/>
<path d="M102.7570 145.2331 L103.4596 145.5844 "/>
<path d="M103.4596 145.5844 L104.5135 145.5844 "/>
<path d="M104.5135 145.5844 L105.2161 145.2331 "/>
<path d="M105.2161 145.2331 L105.5674 144.8818 "/>
<path d="M109.0803 145.5844 L109.0803 140.6663 "/>
<path d="M109.0803 141.3689 L109.4316 141.0176 "/>
<path d="M109.4316 141.0176 L110.1342 140.6663 "/>
<path d="M110.1342 140.6663 L111.1881 140.6663 "/>
<path d="M111.1881 140.6663 L111.8907 141.0176 "/>
<path d="M111.8907 141.0176 L112.2420 141.7202 "/>
<path d="M112.2420 141.7202 L112.2420 145.5844 "/>
<path d="M112.2420 141.7202 L112.5933 141.0176 "/>
<path d="M112.5933 141.0176 L113.2959 140.6663 "/>
<path d="M113.2959 140.6663 L114.3498 140.6663 "/>
<path d="M114.3498 140.6663 L115.0524 141.0176 "/>
<path d="M115.0524 141.0176 L115.4037 141.7202 "/>
<path d="M115.4037 141.7202 L115.4037 145.5844 "/>
<path d="M118.9166 140.6663 L118.9166 148.0435 "/>
<path d="M118.9166 141.0176 L119.6192 140.6663 "/>
<path d="M119.6192 140.6663 L121.0244 140.6663 "/>
<path d="M121.0244 140.6663 L121.7270 141.0176 "/>
<path d="M121.7270 141.0176 L122.0783 141.3689 "/>
<path d="M122.0783 141.3689 L122.4296 142.0715 "/>
<path d="M122.4296 142.0715 L122.4296 144.1792 "/>
<path d="M122.4296 144.1792 L122.0783 144.8818 "/>
<path d="M122.0783 144.8818 L121.7270 145.2331 "/>
<path d="M121.7270 145.2331 L121.0244 145.5844 "/>
<path d="M121.0244 145.5844 L119.6192 145.5844 "/>
<path d="M119.6192 145.5844 L118.9166 145.2331 "/>
<path d="M128.4017 145.2331 L127.6991 145.5844 "/>
<path d="M127.6991 145.5844 L126.2939 145.5844 "/>
<path d="M126.2939 145.5844 L125.5913 145.2331 "/>
<path d="M125.5913 145.2331 L125.2400 144.5305 "/>
<path d="M125.2400 144.5305 L125.2400 141.7202 "/>
<path d="M125.2400 141.7202 L125.5913 141.0176 "/>
<path d="M125.5913 141.0176 L126.2939 140.6663 "/>
<path d="M126.2939 140.6663 L127.6991 140.6663 "/>
<path d="M127.6991 140.6663 L128.4017 141.0176 "/>
<path d="M128.4017 141.0176 L128.7529 141.7202 "/>
<path d="M128.7529 141.7202 L128.7529 142.4227 "/>
<path d="M128.7529 142.4227 L125.2400 143.1253 "/>
<path d="M131.9146 145.5844 L131.9146 140.6663 "/>
<path d="M131.9146 142.0715 L132.2659 141.3689 "/>
<path d="M132.2659 141.3689 L132.6172 141.0176 "/>
<path d="M132.6172 141.0176 L133.3198 140.6663 "/>
<path d="M133.3198 140.6663 L134.0224 140.6663 "/>
<path d="M134.7250 146.2870 L140.3457 146.2870 "/>
<path d="M141.3996 138.2072 L145.9665 138.2072 "/>
<path d="M145.9665 138.2072 L143.5074 141.0176 "/>
<path d="M143.5074 141.0176 L144.5613 141.0176 "/>
<path d="M144.5613 141.0176 L145.2639 141.3689 "/>
<path d="M145.2639 141.3689 L145.6152 141.7202 "/>
<path d="M145.6152 141.7202 L145.9665 142.4227 "/>
<path d="M145.9665 142.4227 L145.9665 144.1792 "/>
<path d="M145.9665 144.1792 L145.6152 144.8818 "/>
<path d="M145.6152 144.8818 L145.2639 145.2331 "/>
<path d="M145.2639 145.2331 L144.5613 145.5844 "/>
<path d="M144.5613 145.5844 L142.4535 145.5844 "/>
<path d="M142.4535 145.5844 L141.7509 145.2331 "/>
<path d="M141.7509 145.2331 L141.3996 144.8818 "/>
<path d="M147.3717 146.2870 L152.9924 146.2870 "/>
<path d="M157.2080 141.7202 L158.2619 142.0715 "/>
<path d="M158.2619 142.0715 L158.6132 142.4227 "/>
<path d="M158.6132 142.4227 L158.9645 143.1253 "/>
<path d="M158.9645 143.1253 L158.9645 144.1792 "/>
<path d="M158.9645 144.1792 L158.6132 144.8818 "/>
<path d="M158.6132 144.8818 L158.2619 145.2331 "/>
<path d="M158.2619 145.2331 L157.5593 145.5844 "/>
<path d="M157.5593 145.5844 L154.7489 145.5844 "/>
<path d="M154.7489 145.5844 L154.7489 138.2072 "/>
<path d="M154.7489 138.2072 L157.2080 138.2072 "/>
<path d="M157.2080 138.2072 L157.9106 138.5585 "/>
<path d="M157.9106 138.5585 L158.2619 138.9098 "/>
<path d="M158.2619 138.9098 L158.6132 139.6124 "/>
<path d="M158.6132 139.6124 L158.6132 140.3150 "/>
<path d="M158.6132 140.3150 L158.2619 141.0176 "/>
<path d="M158.2619 141.0176 L157.9106 141.3689 "/>
<path d="M157.9106 141.3689 L157.2080 141.7202 "/>
<path d="M157.2080 141.7202 L154.7489 141.7202 "/>
<path d="M162.1262 145.5844 L162.1262 140.6663 "/>
<path d="M162.1262 142.0715 L162.4775 141.3689 "/>
<path d="M162.4775 141.3689 L162.8287 141.0176 "/>
<path d="M162.8287 141.0176 L163.5313 140.6663 "/>
<path d="M163.5313 140.6663 L164.2339 140.6663 "/>
<path d="M166.6930 145.5844 L166.6930 140.6663 "/>
<path d="M166.6930 138.2072 L166.3417 138.5585 "/>
<path d="M166.3417 138.5585 L166.6930 138.9098 "/>
<path d="M166.6930 138.9098 L167.0443 138.5585 "/>
<path d="M167.0443 138.5585 L166.6930 138.2072 "/>
<path d="M166.6930 138.2072 L166.6930 138.9098 "/>
<path d="M173.3676 145.5844 L173.3676 138.2072 "/>
<path d="M173.3676 145.2331 L172.6651 145.5844 "/>
<path d="M172.6651 145.5844 L171.2599 145.5844 "/>
<path d="M171.2599 145.5844 L170.5573 145.2331 "/>
<path d="M170.5573 145.2331 L170.2060 144.8818 "/>
<path d="M170.2060 144.8818 L169.8547 144.1792 "/>
<path d="M169.8547 144.1792 L169.8547 142.0715 "/>
<path d="M169.8547 142.0715 L170.2060 141.3689 "/>
<path d="M170.2060 141.3689 L170.5573 141.0176 "/>
<path d="M170.5573 141.0176 L171.2599 140.6663 "/>
<path d="M171.2599 140.6663 L172.6651 140.6663 "/>
<path d="M172.6651 140.6663 L173.3676 141.0176 "/>
<path d="M180.0423 140.6663 L180.0423 146.6383 "/>
<path d="M180.0423 146.6383 L179.6910 147.3409 "/>
<path d="M179.6910 147.3409 L179.3397 147.6922 "/>
<path d="M179.3397 147.6922 L178.6371 148.0435 "/>
<path d="M178.6371 148.0435 L177.5832 148.0435 "/>
<path d="M177.5832 148.0435 L176.8806 147.6922 "/>
<path d="M180.0423 145.2331 L179.3397 145.5844 "/>
<path d="M179.3397 145.5844 L177.9345 145.5844 "/>
<path d="M177.9345 145.5844 L177.2319 145.2331 "/>
<path d="M177.2319 145.2331 L176.8806 144.8818 "/>
<path d="M176.8806 144.8818 L176.5293 144.1792 "/>
<path d="M176.5293 144.1792 L176.5293 142.0715 "/>
<path d="M176.5293 142.0715 L176.8806 141.3689 "/>
<path d="M176.8806 141.3689 L177.2319 141.0176 "/>
<path d="M177.2319 141.0176 L177.9345 140.6663 "/>
<path d="M177.9345 140.6663 L179.3397 140.6663 "/>
<path d="M179.3397 140.6663 L180.0423 141.0176 "/>
<path d="M186.3656 145.2331 L185.6630 145.5844 "/>
<path d="M185.6630 145.5844 L184.2579 145.5844 "/>
<path d="M184.2579 145.5844 L183.5553 145.2331 "/>
<path d="M183.5553 145.2331 L183.2040 144.5305 "/>
<path d="M183.2040 144.5305 L183.2040 141.7202 "/>
<path d="M183.2040 141.7202 L183.5553 141.0176 "/>
<path d="M183.5553 141.0176 L184.2579 140.6663 "/>
<path d="M184.2579 140.6663 L185.6630 140.6663 "/>
<path d="M185.6630 140.6663 L186.3656 141.0176 "/>
<path d="M186.3656 141.0176 L186.7169 141.7202 "/>
<path d="M186.7169 141.7202 L186.7169 142.4227 "/>
<path d="M186.7169 142.4227 L183.2040 143.1253 "/>
<path d="M193.0403 145.5844 L193.0403 138.2072 "/>
<path d="M193.0403 145.2331 L192.3377 145.5844 "/>
<path d="M192.3377 145.5844 L190.9325 145.5844 "/>
<path d="M190.9325 145.5844 L190.2299 145.2331 "/>
<path d="M190.2299 145.2331 L189.8786 144.8818 "/>
<path d="M189.8786 144.8818 L189.5273 144.1792 "/>
<path d="M189.5273 144.1792 L189.5273 142.0715 "/>
<path d="M189.5273 142.0715 L189.8786 141.3689 "/>
<path d="M189.8786 141.3689 L190.2299 141.0176 "/>
<path d="M190.2299 141.0176 L190.9325 140.6663 "/>
<path d="M190.9325 140.6663 L192.3377 140.6663 "/>
<path d="M192.3377 140.6663 L193.0403 141.0176 "/>
<path d="M200.4175 145.5844 L196.2019 145.5844 "/>
<path d="M198.3097 145.5844 L198.3097 138.2072 "/>
<path d="M198.3097 138.2072 L197.6071 139.2611 "/>
<path d="M197.6071 139.2611 L196.9045 139.9637 "/>
<path d="M196.9045 139.9637 L196.2019 140.3150 "/>
<path d="M203.2279 138.9098 L203.5792 138.5585 "/>
<path d="M203.5792 138.5585 L204.2818 138.2072 "/>
<path d="M204.2818 138.2072 L206.0383 138.2072 "/>
<path d="M206.0383 138.2072 L206.7408 138.5585 "/>
<path d="M206.7408 138.5585 L207.0921 138.9098 "/>
<path d="M207.0921 138.9098 L207.4434 139.6124 "/>
<path d="M207.4434 139.6124 L207.4434 140.3150 "/>
<path d="M207.4434 140.3150 L207.0921 141.3689 "/>
<path d="M207.0921 141.3689 L202.8766 145.5844 "/>
<path d="M202.8766 145.5844 L207.4434 145.5844 "/>
</g></g>
<g style="fill:#848484; fill-opacity:0.0;  stroke:#848484; stroke-width:2.8107; stroke-opacity:1;  stroke-linecap:round; stroke-linejoin:round;">
<circle cx="260.9301" cy="142.4799" r="22.1298"/> 
<circle cx="36.0721" cy="67.5273" r="22.1298"/> 
</g>
<g style="fill:#848484; fill-opacity:0.0;  stroke:#848484; stroke-width:1.1066; stroke-opacity:1;  stroke-linecap:round; stroke-linejoin:round;">
<path d="M169.1131 170.5872 L169.1131 133.1109 "/>
<path d="M225.3276 170.5872 L169.1131 170.5872 "/>
<path d="M169.1131 133.1109 L225.3276 133.1109 "/>
<path d="M225.3276 133.1109 L225.3276 170.5872 "/>
</g>
<g style="fill:#848484; fill-opacity:0.0;  stroke:#848484; stroke-width:2.8107; stroke-opacity:1;  stroke-linecap:round; stroke-linejoin:round;">
<circle cx="260.9301" cy="67.5273" r="22.1298"/> 
<circle cx="36.0721" cy="142.4799" r="22.1298"/> 
<g>
</g>
<g>
</g>
<g>
</g>
<g>
</g>
<g>
</g>
<g>
</g>
<g>
</g>
<g>
</g>
<g>
</g>
<g>
</g>
<g>
</g>
<g>
</g>
<g>
</g>
<g>
</g>
<g>
</g>
<g>
</g>
<g>
</g>
<g>
</g>
<g>
</g>
<g>
</g>
</g> 
<svg:g><svg:g><svg:title>SVG Image created as ALTIMET02-Edge_Cuts.svg date 2023/09/11 00:33:37 </svg:title>
  <svg:desc>Image generated by PCBNEW </svg:desc>
<svg:g style="fill:#C2C200; fill-opacity:1.0000;stroke:#C2C200; stroke-opacity:1.0000; stroke-linecap:round; stroke-linejoin:round;" transform="translate(0 0) scale(1 1)">
</svg:g>
<svg:g style="fill:#C2C200; fill-opacity:0.0;  stroke:#C2C200; stroke-width:0.0000; stroke-opacity:1;  stroke-linecap:round; stroke-linejoin:round;">
</svg:g>
<svg:g style="fill:#C2C200; fill-opacity:0.0;  stroke:#C2C200; stroke-width:0.9369; stroke-opacity:1;  stroke-linecap:round; stroke-linejoin:round;">
<svg:path d="M0.4696 178.0825 L0.4696 31.9247 "/>
<svg:path d="M0.4696 31.9247 L296.5326 31.9247 "/>
<svg:path d="M296.5326 178.0825 L0.4696 178.0825 "/>
<svg:path d="M296.5326 31.9247 L296.5326 178.0825 "/>
<svg:g>
</svg:g>
<svg:g>
</svg:g>
<svg:g>
</svg:g>
<svg:g>
</svg:g>
<svg:g>
</svg:g>
<svg:g>
</svg:g>
<svg:g>
</svg:g>
<svg:g>
</svg:g>
<svg:g>
</svg:g>
<svg:g>
</svg:g>
<svg:g>
</svg:g>
<svg:g>
</svg:g>
<svg:g>
</svg:g>
<svg:g>
</svg:g>
<svg:g>
</svg:g>
<svg:g>
</svg:g>
<svg:g>
</svg:g>
<svg:g>
</svg:g>
<svg:g>
</svg:g>
<svg:g>
</svg:g>
</svg:g> 
</svg:g></svg:g></svg>
