<?xml version='1.0' encoding='ASCII' standalone='yes'?>
<svg xmlns:svg="http://www.w3.org/2000/svg" xmlns="http://www.w3.org/2000/svg" xmlns:xlink="http://www.w3.org/1999/xlink" version="1.1" width="297.0022mm" height="210.0072mm" viewBox="0.0000 0.0000 297.0022 210.0072">
<title>SVG Image created as ALTIMET02-B_Fab.svg date 2023/09/06 12:29:52 </title>
  <desc>Image generated by PCBNEW </desc>
<g style="fill:#000084; fill-opacity:1.0000;stroke:#000084; stroke-opacity:1.0000; stroke-linecap:round; stroke-linejoin:round;" transform="translate(0 0) scale(1 1)">
</g>
<g style="fill:#000084; fill-opacity:0.0;  stroke:#000084; stroke-width:0.0000; stroke-opacity:1;  stroke-linecap:round; stroke-linejoin:round;">
</g>
<g style="fill:#000084; fill-opacity:0.01;  stroke:#000084; stroke-width:1.1066; stroke-opacity:1;  stroke-linecap:round; stroke-linejoin:round;">
<text x="101.6557" y="103.0708" transform="scale(-1 1) translate(-203.311350 0)" textLength="14.8423" font-size="9.8363" lengthAdjust="spacingAndGlyphs" text-anchor="middle" opacity="0.01" style="font-family:monospace">5k</text>
<g class="stroked-text"><desc>5k</desc>
<path d="M100.4261 95.3602 L96.9132 95.3602 "/>
<path d="M96.9132 95.3602 L96.5619 98.8732 "/>
<path d="M96.5619 98.8732 L96.9132 98.5219 "/>
<path d="M96.9132 98.5219 L97.6158 98.1706 "/>
<path d="M97.6158 98.1706 L99.3723 98.1706 "/>
<path d="M99.3723 98.1706 L100.0748 98.5219 "/>
<path d="M100.0748 98.5219 L100.4261 98.8732 "/>
<path d="M100.4261 98.8732 L100.7774 99.5758 "/>
<path d="M100.7774 99.5758 L100.7774 101.3323 "/>
<path d="M100.7774 101.3323 L100.4261 102.0349 "/>
<path d="M100.4261 102.0349 L100.0748 102.3862 "/>
<path d="M100.0748 102.3862 L99.3723 102.7375 "/>
<path d="M99.3723 102.7375 L97.6158 102.7375 "/>
<path d="M97.6158 102.7375 L96.9132 102.3862 "/>
<path d="M96.9132 102.3862 L96.5619 102.0349 "/>
<path d="M103.9391 102.7375 L103.9391 95.3602 "/>
<path d="M104.6417 99.9271 L106.7495 102.7375 "/>
<path d="M106.7495 97.8193 L103.9391 100.6297 "/>
</g></g>
<g style="fill:#000084; fill-opacity:0.01;  stroke:#000084; stroke-width:0.5902; stroke-opacity:1;  stroke-linecap:round; stroke-linejoin:round;">
<text x="101.6557" y="89.9836" transform="scale(-1 1) translate(-203.311350 0)" textLength="8.2344" font-size="4.9182" lengthAdjust="spacingAndGlyphs" text-anchor="middle" opacity="0.01" style="font-family:monospace">R1</text>
<g class="stroked-text"><desc>R1</desc>
<path d="M101.0409 89.8150 L99.8114 88.0585 "/>
<path d="M98.9331 89.8150 L98.9331 86.1264 "/>
<path d="M98.9331 86.1264 L100.3383 86.1264 "/>
<path d="M100.3383 86.1264 L100.6896 86.3020 "/>
<path d="M100.6896 86.3020 L100.8653 86.4777 "/>
<path d="M100.8653 86.4777 L101.0409 86.8290 "/>
<path d="M101.0409 86.8290 L101.0409 87.3559 "/>
<path d="M101.0409 87.3559 L100.8653 87.7072 "/>
<path d="M100.8653 87.7072 L100.6896 87.8828 "/>
<path d="M100.6896 87.8828 L100.3383 88.0585 "/>
<path d="M100.3383 88.0585 L98.9331 88.0585 "/>
<path d="M104.5539 89.8150 L102.4461 89.8150 "/>
<path d="M103.5000 89.8150 L103.5000 86.1264 "/>
<path d="M103.5000 86.1264 L103.1487 86.6533 "/>
<path d="M103.1487 86.6533 L102.7974 87.0046 "/>
<path d="M102.7974 87.0046 L102.4461 87.1803 "/>
</g></g>
<g style="fill:#000084; fill-opacity:0.0;  stroke:#000084; stroke-width:1.1066; stroke-opacity:1;  stroke-linecap:round; stroke-linejoin:round;">
<g transform="rotate(-90.000000 129.3011 119.2564)">
<text x="129.3011" y="122.9450" transform="scale(-1 1) translate(-258.602231 0)" textLength="35.9201" font-size="9.8363" lengthAdjust="spacingAndGlyphs" text-anchor="middle" opacity="0.01" style="font-family:monospace">100nF</text>
</g>
<g class="stroked-text"><desc>100nF</desc>
<path d="M125.9458 107.8393 L125.9458 103.6237 "/>
<path d="M125.9458 105.7315 L133.3230 105.7315 "/>
<path d="M133.3230 105.7315 L132.2692 105.0289 "/>
<path d="M132.2692 105.0289 L131.5666 104.3263 "/>
<path d="M131.5666 104.3263 L131.2153 103.6237 "/>
<path d="M133.3230 112.4061 L133.3230 113.1087 "/>
<path d="M133.3230 113.1087 L132.9717 113.8113 "/>
<path d="M132.9717 113.8113 L132.6204 114.1626 "/>
<path d="M132.6204 114.1626 L131.9179 114.5139 "/>
<path d="M131.9179 114.5139 L130.5127 114.8652 "/>
<path d="M130.5127 114.8652 L128.7562 114.8652 "/>
<path d="M128.7562 114.8652 L127.3510 114.5139 "/>
<path d="M127.3510 114.5139 L126.6484 114.1626 "/>
<path d="M126.6484 114.1626 L126.2971 113.8113 "/>
<path d="M126.2971 113.8113 L125.9458 113.1087 "/>
<path d="M125.9458 113.1087 L125.9458 112.4061 "/>
<path d="M125.9458 112.4061 L126.2971 111.7035 "/>
<path d="M126.2971 111.7035 L126.6484 111.3522 "/>
<path d="M126.6484 111.3522 L127.3510 111.0009 "/>
<path d="M127.3510 111.0009 L128.7562 110.6496 "/>
<path d="M128.7562 110.6496 L130.5127 110.6496 "/>
<path d="M130.5127 110.6496 L131.9179 111.0009 "/>
<path d="M131.9179 111.0009 L132.6204 111.3522 "/>
<path d="M132.6204 111.3522 L132.9717 111.7035 "/>
<path d="M132.9717 111.7035 L133.3230 112.4061 "/>
<path d="M133.3230 119.4321 L133.3230 120.1347 "/>
<path d="M133.3230 120.1347 L132.9717 120.8372 "/>
<path d="M132.9717 120.8372 L132.6204 121.1885 "/>
<path d="M132.6204 121.1885 L131.9179 121.5398 "/>
<path d="M131.9179 121.5398 L130.5127 121.8911 "/>
<path d="M130.5127 121.8911 L128.7562 121.8911 "/>
<path d="M128.7562 121.8911 L127.3510 121.5398 "/>
<path d="M127.3510 121.5398 L126.6484 121.1885 "/>
<path d="M126.6484 121.1885 L126.2971 120.8372 "/>
<path d="M126.2971 120.8372 L125.9458 120.1347 "/>
<path d="M125.9458 120.1347 L125.9458 119.4321 "/>
<path d="M125.9458 119.4321 L126.2971 118.7295 "/>
<path d="M126.2971 118.7295 L126.6484 118.3782 "/>
<path d="M126.6484 118.3782 L127.3510 118.0269 "/>
<path d="M127.3510 118.0269 L128.7562 117.6756 "/>
<path d="M128.7562 117.6756 L130.5127 117.6756 "/>
<path d="M130.5127 117.6756 L131.9179 118.0269 "/>
<path d="M131.9179 118.0269 L132.6204 118.3782 "/>
<path d="M132.6204 118.3782 L132.9717 118.7295 "/>
<path d="M132.9717 118.7295 L133.3230 119.4321 "/>
<path d="M130.8640 125.0528 L125.9458 125.0528 "/>
<path d="M130.1614 125.0528 L130.5127 125.4041 "/>
<path d="M130.5127 125.4041 L130.8640 126.1067 "/>
<path d="M130.8640 126.1067 L130.8640 127.1606 "/>
<path d="M130.8640 127.1606 L130.5127 127.8632 "/>
<path d="M130.5127 127.8632 L129.8101 128.2145 "/>
<path d="M129.8101 128.2145 L125.9458 128.2145 "/>
<path d="M129.8101 134.1865 L129.8101 131.7274 "/>
<path d="M125.9458 131.7274 L133.3230 131.7274 "/>
<path d="M133.3230 131.7274 L133.3230 135.2404 "/>
</g></g>
<g style="fill:#000084; fill-opacity:0.0;  stroke:#000084; stroke-width:0.5902; stroke-opacity:1;  stroke-linecap:round; stroke-linejoin:round;">
<g transform="rotate(-90.000000 116.9074 119.2564)">
<text x="116.9074" y="121.1007" transform="scale(-1 1) translate(-233.814730 0)" textLength="8.2344" font-size="4.9182" lengthAdjust="spacingAndGlyphs" text-anchor="middle" opacity="0.01" style="font-family:monospace">C2</text>
</g>
<g class="stroked-text"><desc>C2</desc>
<path d="M115.5829 118.6416 L115.4073 118.4660 "/>
<path d="M115.4073 118.4660 L115.2316 117.9390 "/>
<path d="M115.2316 117.9390 L115.2316 117.5878 "/>
<path d="M115.2316 117.5878 L115.4073 117.0608 "/>
<path d="M115.4073 117.0608 L115.7586 116.7095 "/>
<path d="M115.7586 116.7095 L116.1099 116.5339 "/>
<path d="M116.1099 116.5339 L116.8125 116.3582 "/>
<path d="M116.8125 116.3582 L117.3394 116.3582 "/>
<path d="M117.3394 116.3582 L118.0420 116.5339 "/>
<path d="M118.0420 116.5339 L118.3933 116.7095 "/>
<path d="M118.3933 116.7095 L118.7446 117.0608 "/>
<path d="M118.7446 117.0608 L118.9203 117.5878 "/>
<path d="M118.9203 117.5878 L118.9203 117.9390 "/>
<path d="M118.9203 117.9390 L118.7446 118.4660 "/>
<path d="M118.7446 118.4660 L118.5690 118.6416 "/>
<path d="M118.5690 120.0468 L118.7446 120.2225 "/>
<path d="M118.7446 120.2225 L118.9203 120.5738 "/>
<path d="M118.9203 120.5738 L118.9203 121.4520 "/>
<path d="M118.9203 121.4520 L118.7446 121.8033 "/>
<path d="M118.7446 121.8033 L118.5690 121.9790 "/>
<path d="M118.5690 121.9790 L118.2177 122.1546 "/>
<path d="M118.2177 122.1546 L117.8664 122.1546 "/>
<path d="M117.8664 122.1546 L117.3394 121.9790 "/>
<path d="M117.3394 121.9790 L115.2316 119.8712 "/>
<path d="M115.2316 119.8712 L115.2316 122.1546 "/>
</g></g>
<g style="fill:#000084; fill-opacity:0.0;  stroke:#000084; stroke-width:1.1066; stroke-opacity:1;  stroke-linecap:round; stroke-linejoin:round;">
<g transform="rotate(-90.000000 191.1681 115.6445)">
<text x="191.1681" y="119.3331" transform="scale(-1 1) translate(-382.336124 0)" textLength="82.2913" font-size="9.8363" lengthAdjust="spacingAndGlyphs" text-anchor="middle" opacity="0.01" style="font-family:monospace">MS5611-01BA</text>
</g>
<g class="stroked-text"><desc>MS5611-01BA</desc>
<path d="M187.8128 77.1775 L195.1900 77.1775 "/>
<path d="M195.1900 77.1775 L189.9205 79.6366 "/>
<path d="M189.9205 79.6366 L195.1900 82.0957 "/>
<path d="M195.1900 82.0957 L187.8128 82.0957 "/>
<path d="M188.1641 85.2573 L187.8128 86.3112 "/>
<path d="M187.8128 86.3112 L187.8128 88.0677 "/>
<path d="M187.8128 88.0677 L188.1641 88.7703 "/>
<path d="M188.1641 88.7703 L188.5154 89.1216 "/>
<path d="M188.5154 89.1216 L189.2179 89.4729 "/>
<path d="M189.2179 89.4729 L189.9205 89.4729 "/>
<path d="M189.9205 89.4729 L190.6231 89.1216 "/>
<path d="M190.6231 89.1216 L190.9744 88.7703 "/>
<path d="M190.9744 88.7703 L191.3257 88.0677 "/>
<path d="M191.3257 88.0677 L191.6770 86.6625 "/>
<path d="M191.6770 86.6625 L192.0283 85.9599 "/>
<path d="M192.0283 85.9599 L192.3796 85.6086 "/>
<path d="M192.3796 85.6086 L193.0822 85.2573 "/>
<path d="M193.0822 85.2573 L193.7848 85.2573 "/>
<path d="M193.7848 85.2573 L194.4874 85.6086 "/>
<path d="M194.4874 85.6086 L194.8387 85.9599 "/>
<path d="M194.8387 85.9599 L195.1900 86.6625 "/>
<path d="M195.1900 86.6625 L195.1900 88.4190 "/>
<path d="M195.1900 88.4190 L194.8387 89.4729 "/>
<path d="M195.1900 96.1475 L195.1900 92.6346 "/>
<path d="M195.1900 92.6346 L191.6770 92.2833 "/>
<path d="M191.6770 92.2833 L192.0283 92.6346 "/>
<path d="M192.0283 92.6346 L192.3796 93.3372 "/>
<path d="M192.3796 93.3372 L192.3796 95.0937 "/>
<path d="M192.3796 95.0937 L192.0283 95.7962 "/>
<path d="M192.0283 95.7962 L191.6770 96.1475 "/>
<path d="M191.6770 96.1475 L190.9744 96.4988 "/>
<path d="M190.9744 96.4988 L189.2179 96.4988 "/>
<path d="M189.2179 96.4988 L188.5154 96.1475 "/>
<path d="M188.5154 96.1475 L188.1641 95.7962 "/>
<path d="M188.1641 95.7962 L187.8128 95.0937 "/>
<path d="M187.8128 95.0937 L187.8128 93.3372 "/>
<path d="M187.8128 93.3372 L188.1641 92.6346 "/>
<path d="M188.1641 92.6346 L188.5154 92.2833 "/>
<path d="M195.1900 102.8222 L195.1900 101.4170 "/>
<path d="M195.1900 101.4170 L194.8387 100.7144 "/>
<path d="M194.8387 100.7144 L194.4874 100.3631 "/>
<path d="M194.4874 100.3631 L193.4335 99.6605 "/>
<path d="M193.4335 99.6605 L192.0283 99.3092 "/>
<path d="M192.0283 99.3092 L189.2179 99.3092 "/>
<path d="M189.2179 99.3092 L188.5154 99.6605 "/>
<path d="M188.5154 99.6605 L188.1641 100.0118 "/>
<path d="M188.1641 100.0118 L187.8128 100.7144 "/>
<path d="M187.8128 100.7144 L187.8128 102.1196 "/>
<path d="M187.8128 102.1196 L188.1641 102.8222 "/>
<path d="M188.1641 102.8222 L188.5154 103.1735 "/>
<path d="M188.5154 103.1735 L189.2179 103.5248 "/>
<path d="M189.2179 103.5248 L190.9744 103.5248 "/>
<path d="M190.9744 103.5248 L191.6770 103.1735 "/>
<path d="M191.6770 103.1735 L192.0283 102.8222 "/>
<path d="M192.0283 102.8222 L192.3796 102.1196 "/>
<path d="M192.3796 102.1196 L192.3796 100.7144 "/>
<path d="M192.3796 100.7144 L192.0283 100.0118 "/>
<path d="M192.0283 100.0118 L191.6770 99.6605 "/>
<path d="M191.6770 99.6605 L190.9744 99.3092 "/>
<path d="M187.8128 110.5507 L187.8128 106.3352 "/>
<path d="M187.8128 108.4429 L195.1900 108.4429 "/>
<path d="M195.1900 108.4429 L194.1361 107.7403 "/>
<path d="M194.1361 107.7403 L193.4335 107.0377 "/>
<path d="M193.4335 107.0377 L193.0822 106.3352 "/>
<path d="M187.8128 117.5766 L187.8128 113.3611 "/>
<path d="M187.8128 115.4689 L195.1900 115.4689 "/>
<path d="M195.1900 115.4689 L194.1361 114.7663 "/>
<path d="M194.1361 114.7663 L193.4335 114.0637 "/>
<path d="M193.4335 114.0637 L193.0822 113.3611 "/>
<path d="M190.6231 120.7383 L190.6231 126.3591 "/>
<path d="M195.1900 131.2772 L195.1900 131.9798 "/>
<path d="M195.1900 131.9798 L194.8387 132.6824 "/>
<path d="M194.8387 132.6824 L194.4874 133.0337 "/>
<path d="M194.4874 133.0337 L193.7848 133.3850 "/>
<path d="M193.7848 133.3850 L192.3796 133.7363 "/>
<path d="M192.3796 133.7363 L190.6231 133.7363 "/>
<path d="M190.6231 133.7363 L189.2179 133.3850 "/>
<path d="M189.2179 133.3850 L188.5154 133.0337 "/>
<path d="M188.5154 133.0337 L188.1641 132.6824 "/>
<path d="M188.1641 132.6824 L187.8128 131.9798 "/>
<path d="M187.8128 131.9798 L187.8128 131.2772 "/>
<path d="M187.8128 131.2772 L188.1641 130.5746 "/>
<path d="M188.1641 130.5746 L188.5154 130.2233 "/>
<path d="M188.5154 130.2233 L189.2179 129.8720 "/>
<path d="M189.2179 129.8720 L190.6231 129.5207 "/>
<path d="M190.6231 129.5207 L192.3796 129.5207 "/>
<path d="M192.3796 129.5207 L193.7848 129.8720 "/>
<path d="M193.7848 129.8720 L194.4874 130.2233 "/>
<path d="M194.4874 130.2233 L194.8387 130.5746 "/>
<path d="M194.8387 130.5746 L195.1900 131.2772 "/>
<path d="M187.8128 140.7622 L187.8128 136.5467 "/>
<path d="M187.8128 138.6545 L195.1900 138.6545 "/>
<path d="M195.1900 138.6545 L194.1361 137.9519 "/>
<path d="M194.1361 137.9519 L193.4335 137.2493 "/>
<path d="M193.4335 137.2493 L193.0822 136.5467 "/>
<path d="M191.6770 146.3830 L191.3257 147.4369 "/>
<path d="M191.3257 147.4369 L190.9744 147.7882 "/>
<path d="M190.9744 147.7882 L190.2718 148.1395 "/>
<path d="M190.2718 148.1395 L189.2179 148.1395 "/>
<path d="M189.2179 148.1395 L188.5154 147.7882 "/>
<path d="M188.5154 147.7882 L188.1641 147.4369 "/>
<path d="M188.1641 147.4369 L187.8128 146.7343 "/>
<path d="M187.8128 146.7343 L187.8128 143.9239 "/>
<path d="M187.8128 143.9239 L195.1900 143.9239 "/>
<path d="M195.1900 143.9239 L195.1900 146.3830 "/>
<path d="M195.1900 146.3830 L194.8387 147.0856 "/>
<path d="M194.8387 147.0856 L194.4874 147.4369 "/>
<path d="M194.4874 147.4369 L193.7848 147.7882 "/>
<path d="M193.7848 147.7882 L193.0822 147.7882 "/>
<path d="M193.0822 147.7882 L192.3796 147.4369 "/>
<path d="M192.3796 147.4369 L192.0283 147.0856 "/>
<path d="M192.0283 147.0856 L191.6770 146.3830 "/>
<path d="M191.6770 146.3830 L191.6770 143.9239 "/>
<path d="M189.9205 150.9498 L189.9205 154.4628 "/>
<path d="M187.8128 150.2473 L195.1900 152.7063 "/>
<path d="M195.1900 152.7063 L187.8128 155.1654 "/>
</g></g>
<g style="fill:#000084; fill-opacity:0.0;  stroke:#000084; stroke-width:0.5533; stroke-opacity:1;  stroke-linecap:round; stroke-linejoin:round;">
<g transform="rotate(-90.000000 164.2412 115.6445)">
<text x="164.2412" y="117.4888" transform="scale(-1 1) translate(-328.482328 0)" textLength="8.2994" font-size="4.9182" lengthAdjust="spacingAndGlyphs" text-anchor="middle" opacity="0.01" style="font-family:monospace">U1</text>
</g>
<g class="stroked-text"><desc>U1</desc>
<path d="M166.2521 112.8341 L163.2661 112.8341 "/>
<path d="M163.2661 112.8341 L162.9148 113.0098 "/>
<path d="M162.9148 113.0098 L162.7392 113.1854 "/>
<path d="M162.7392 113.1854 L162.5635 113.5367 "/>
<path d="M162.5635 113.5367 L162.5635 114.2393 "/>
<path d="M162.5635 114.2393 L162.7392 114.5906 "/>
<path d="M162.7392 114.5906 L162.9148 114.7663 "/>
<path d="M162.9148 114.7663 L163.2661 114.9419 "/>
<path d="M163.2661 114.9419 L166.2521 114.9419 "/>
<path d="M162.5635 118.6305 L162.5635 116.5228 "/>
<path d="M162.5635 117.5767 L166.2521 117.5767 "/>
<path d="M166.2521 117.5767 L165.7252 117.2254 "/>
<path d="M165.7252 117.2254 L165.3739 116.8741 "/>
<path d="M165.3739 116.8741 L165.1982 116.5228 "/>
</g></g>
<g style="fill:#000084; fill-opacity:0.01;  stroke:#000084; stroke-width:1.1066; stroke-opacity:1;  stroke-linecap:round; stroke-linejoin:round;">
<text x="86.6651" y="108.8988" transform="scale(-1 1) translate(-173.330277 0)" textLength="64.3751" font-size="9.8363" lengthAdjust="spacingAndGlyphs" text-anchor="middle" opacity="0.01" style="font-family:monospace">BZV55C3V6</text>
<g class="stroked-text"><desc>BZV55C3V6</desc>
<path d="M59.6153 104.7012 L60.6692 105.0525 "/>
<path d="M60.6692 105.0525 L61.0205 105.4038 "/>
<path d="M61.0205 105.4038 L61.3718 106.1064 "/>
<path d="M61.3718 106.1064 L61.3718 107.1603 "/>
<path d="M61.3718 107.1603 L61.0205 107.8629 "/>
<path d="M61.0205 107.8629 L60.6692 108.2142 "/>
<path d="M60.6692 108.2142 L59.9666 108.5655 "/>
<path d="M59.9666 108.5655 L57.1562 108.5655 "/>
<path d="M57.1562 108.5655 L57.1562 101.1882 "/>
<path d="M57.1562 101.1882 L59.6153 101.1882 "/>
<path d="M59.6153 101.1882 L60.3179 101.5395 "/>
<path d="M60.3179 101.5395 L60.6692 101.8908 "/>
<path d="M60.6692 101.8908 L61.0205 102.5934 "/>
<path d="M61.0205 102.5934 L61.0205 103.2960 "/>
<path d="M61.0205 103.2960 L60.6692 103.9986 "/>
<path d="M60.6692 103.9986 L60.3179 104.3499 "/>
<path d="M60.3179 104.3499 L59.6153 104.7012 "/>
<path d="M59.6153 104.7012 L57.1562 104.7012 "/>
<path d="M63.8309 101.1882 L68.7490 101.1882 "/>
<path d="M68.7490 101.1882 L63.8309 108.5655 "/>
<path d="M63.8309 108.5655 L68.7490 108.5655 "/>
<path d="M70.5055 101.1882 L72.9646 108.5655 "/>
<path d="M72.9646 108.5655 L75.4236 101.1882 "/>
<path d="M81.3957 101.1882 L77.8827 101.1882 "/>
<path d="M77.8827 101.1882 L77.5314 104.7012 "/>
<path d="M77.5314 104.7012 L77.8827 104.3499 "/>
<path d="M77.8827 104.3499 L78.5853 103.9986 "/>
<path d="M78.5853 103.9986 L80.3418 103.9986 "/>
<path d="M80.3418 103.9986 L81.0444 104.3499 "/>
<path d="M81.0444 104.3499 L81.3957 104.7012 "/>
<path d="M81.3957 104.7012 L81.7470 105.4038 "/>
<path d="M81.7470 105.4038 L81.7470 107.1603 "/>
<path d="M81.7470 107.1603 L81.3957 107.8629 "/>
<path d="M81.3957 107.8629 L81.0444 108.2142 "/>
<path d="M81.0444 108.2142 L80.3418 108.5655 "/>
<path d="M80.3418 108.5655 L78.5853 108.5655 "/>
<path d="M78.5853 108.5655 L77.8827 108.2142 "/>
<path d="M77.8827 108.2142 L77.5314 107.8629 "/>
<path d="M88.4216 101.1882 L84.9087 101.1882 "/>
<path d="M84.9087 101.1882 L84.5574 104.7012 "/>
<path d="M84.5574 104.7012 L84.9087 104.3499 "/>
<path d="M84.9087 104.3499 L85.6113 103.9986 "/>
<path d="M85.6113 103.9986 L87.3677 103.9986 "/>
<path d="M87.3677 103.9986 L88.0703 104.3499 "/>
<path d="M88.0703 104.3499 L88.4216 104.7012 "/>
<path d="M88.4216 104.7012 L88.7729 105.4038 "/>
<path d="M88.7729 105.4038 L88.7729 107.1603 "/>
<path d="M88.7729 107.1603 L88.4216 107.8629 "/>
<path d="M88.4216 107.8629 L88.0703 108.2142 "/>
<path d="M88.0703 108.2142 L87.3677 108.5655 "/>
<path d="M87.3677 108.5655 L85.6113 108.5655 "/>
<path d="M85.6113 108.5655 L84.9087 108.2142 "/>
<path d="M84.9087 108.2142 L84.5574 107.8629 "/>
<path d="M96.1502 107.8629 L95.7989 108.2142 "/>
<path d="M95.7989 108.2142 L94.7450 108.5655 "/>
<path d="M94.7450 108.5655 L94.0424 108.5655 "/>
<path d="M94.0424 108.5655 L92.9885 108.2142 "/>
<path d="M92.9885 108.2142 L92.2859 107.5116 "/>
<path d="M92.2859 107.5116 L91.9346 106.8090 "/>
<path d="M91.9346 106.8090 L91.5833 105.4038 "/>
<path d="M91.5833 105.4038 L91.5833 104.3499 "/>
<path d="M91.5833 104.3499 L91.9346 102.9447 "/>
<path d="M91.9346 102.9447 L92.2859 102.2421 "/>
<path d="M92.2859 102.2421 L92.9885 101.5395 "/>
<path d="M92.9885 101.5395 L94.0424 101.1882 "/>
<path d="M94.0424 101.1882 L94.7450 101.1882 "/>
<path d="M94.7450 101.1882 L95.7989 101.5395 "/>
<path d="M95.7989 101.5395 L96.1502 101.8908 "/>
<path d="M98.6092 101.1882 L103.1761 101.1882 "/>
<path d="M103.1761 101.1882 L100.7170 103.9986 "/>
<path d="M100.7170 103.9986 L101.7709 103.9986 "/>
<path d="M101.7709 103.9986 L102.4735 104.3499 "/>
<path d="M102.4735 104.3499 L102.8248 104.7012 "/>
<path d="M102.8248 104.7012 L103.1761 105.4038 "/>
<path d="M103.1761 105.4038 L103.1761 107.1603 "/>
<path d="M103.1761 107.1603 L102.8248 107.8629 "/>
<path d="M102.8248 107.8629 L102.4735 108.2142 "/>
<path d="M102.4735 108.2142 L101.7709 108.5655 "/>
<path d="M101.7709 108.5655 L99.6631 108.5655 "/>
<path d="M99.6631 108.5655 L98.9605 108.2142 "/>
<path d="M98.9605 108.2142 L98.6092 107.8629 "/>
<path d="M105.2839 101.1882 L107.7430 108.5655 "/>
<path d="M107.7430 108.5655 L110.2020 101.1882 "/>
<path d="M115.8228 101.1882 L114.4176 101.1882 "/>
<path d="M114.4176 101.1882 L113.7150 101.5395 "/>
<path d="M113.7150 101.5395 L113.3637 101.8908 "/>
<path d="M113.3637 101.8908 L112.6611 102.9447 "/>
<path d="M112.6611 102.9447 L112.3098 104.3499 "/>
<path d="M112.3098 104.3499 L112.3098 107.1603 "/>
<path d="M112.3098 107.1603 L112.6611 107.8629 "/>
<path d="M112.6611 107.8629 L113.0124 108.2142 "/>
<path d="M113.0124 108.2142 L113.7150 108.5655 "/>
<path d="M113.7150 108.5655 L115.1202 108.5655 "/>
<path d="M115.1202 108.5655 L115.8228 108.2142 "/>
<path d="M115.8228 108.2142 L116.1741 107.8629 "/>
<path d="M116.1741 107.8629 L116.5254 107.1603 "/>
<path d="M116.5254 107.1603 L116.5254 105.4038 "/>
<path d="M116.5254 105.4038 L116.1741 104.7012 "/>
<path d="M116.1741 104.7012 L115.8228 104.3499 "/>
<path d="M115.8228 104.3499 L115.1202 103.9986 "/>
<path d="M115.1202 103.9986 L113.7150 103.9986 "/>
<path d="M113.7150 103.9986 L113.0124 104.3499 "/>
<path d="M113.0124 104.3499 L112.6611 104.7012 "/>
<path d="M112.6611 104.7012 L112.3098 105.4038 "/>
</g><text x="86.6651" y="136.5634" transform="scale(-1 1) translate(-173.330277 0)" textLength="16.2475" font-size="9.8363" lengthAdjust="spacingAndGlyphs" text-anchor="middle" opacity="0.01" style="font-family:monospace">D1</text>
<g class="stroked-text"><desc>D1</desc>
<path d="M81.2200 136.2301 L81.2200 128.8529 "/>
<path d="M81.2200 128.8529 L82.9765 128.8529 "/>
<path d="M82.9765 128.8529 L84.0304 129.2042 "/>
<path d="M84.0304 129.2042 L84.7330 129.9067 "/>
<path d="M84.7330 129.9067 L85.0843 130.6093 "/>
<path d="M85.0843 130.6093 L85.4356 132.0145 "/>
<path d="M85.4356 132.0145 L85.4356 133.0684 "/>
<path d="M85.4356 133.0684 L85.0843 134.4736 "/>
<path d="M85.0843 134.4736 L84.7330 135.1762 "/>
<path d="M84.7330 135.1762 L84.0304 135.8788 "/>
<path d="M84.0304 135.8788 L82.9765 136.2301 "/>
<path d="M82.9765 136.2301 L81.2200 136.2301 "/>
<path d="M92.4615 136.2301 L88.2460 136.2301 "/>
<path d="M90.3538 136.2301 L90.3538 128.8529 "/>
<path d="M90.3538 128.8529 L89.6512 129.9067 "/>
<path d="M89.6512 129.9067 L88.9486 130.6093 "/>
<path d="M88.9486 130.6093 L88.2460 130.9606 "/>
</g><text x="140.1427" y="122.4355" transform="scale(-1 1) translate(-280.285393 0)" textLength="14.8423" font-size="9.8363" lengthAdjust="spacingAndGlyphs" text-anchor="middle" opacity="0.01" style="font-family:monospace">5k</text>
<g class="stroked-text"><desc>5k</desc>
<path d="M138.9132 114.7249 L135.4002 114.7249 "/>
<path d="M135.4002 114.7249 L135.0489 118.2379 "/>
<path d="M135.0489 118.2379 L135.4002 117.8866 "/>
<path d="M135.4002 117.8866 L136.1028 117.5353 "/>
<path d="M136.1028 117.5353 L137.8593 117.5353 "/>
<path d="M137.8593 117.5353 L138.5619 117.8866 "/>
<path d="M138.5619 117.8866 L138.9132 118.2379 "/>
<path d="M138.9132 118.2379 L139.2645 118.9405 "/>
<path d="M139.2645 118.9405 L139.2645 120.6970 "/>
<path d="M139.2645 120.6970 L138.9132 121.3996 "/>
<path d="M138.9132 121.3996 L138.5619 121.7509 "/>
<path d="M138.5619 121.7509 L137.8593 122.1022 "/>
<path d="M137.8593 122.1022 L136.1028 122.1022 "/>
<path d="M136.1028 122.1022 L135.4002 121.7509 "/>
<path d="M135.4002 121.7509 L135.0489 121.3996 "/>
<path d="M142.4261 122.1022 L142.4261 114.7249 "/>
<path d="M143.1287 119.2918 L145.2365 122.1022 "/>
<path d="M145.2365 117.1840 L142.4261 119.9944 "/>
</g></g>
<g style="fill:#000084; fill-opacity:0.01;  stroke:#000084; stroke-width:0.5902; stroke-opacity:1;  stroke-linecap:round; stroke-linejoin:round;">
<text x="131.6367" y="89.9836" transform="scale(-1 1) translate(-263.273495 0)" textLength="8.2344" font-size="4.9182" lengthAdjust="spacingAndGlyphs" text-anchor="middle" opacity="0.01" style="font-family:monospace">R2</text>
<g class="stroked-text"><desc>R2</desc>
<path d="M131.0220 89.8150 L129.7924 88.0585 "/>
<path d="M128.9142 89.8150 L128.9142 86.1264 "/>
<path d="M128.9142 86.1264 L130.3194 86.1264 "/>
<path d="M130.3194 86.1264 L130.6707 86.3020 "/>
<path d="M130.6707 86.3020 L130.8463 86.4777 "/>
<path d="M130.8463 86.4777 L131.0220 86.8290 "/>
<path d="M131.0220 86.8290 L131.0220 87.3559 "/>
<path d="M131.0220 87.3559 L130.8463 87.7072 "/>
<path d="M130.8463 87.7072 L130.6707 87.8828 "/>
<path d="M130.6707 87.8828 L130.3194 88.0585 "/>
<path d="M130.3194 88.0585 L128.9142 88.0585 "/>
<path d="M132.4272 86.4777 L132.6028 86.3020 "/>
<path d="M132.6028 86.3020 L132.9541 86.1264 "/>
<path d="M132.9541 86.1264 L133.8324 86.1264 "/>
<path d="M133.8324 86.1264 L134.1837 86.3020 "/>
<path d="M134.1837 86.3020 L134.3593 86.4777 "/>
<path d="M134.3593 86.4777 L134.5350 86.8290 "/>
<path d="M134.5350 86.8290 L134.5350 87.1803 "/>
<path d="M134.5350 87.1803 L134.3593 87.7072 "/>
<path d="M134.3593 87.7072 L132.2515 89.8150 "/>
<path d="M132.2515 89.8150 L134.5350 89.8150 "/>
</g></g>
<g style="fill:#000084; fill-opacity:0.0;  stroke:#000084; stroke-width:1.1066; stroke-opacity:1;  stroke-linecap:round; stroke-linejoin:round;">
<g transform="rotate(-90.000000 146.1655 119.2564)">
<text x="146.1655" y="122.9450" transform="scale(-1 1) translate(-292.330938 0)" textLength="28.8942" font-size="9.8363" lengthAdjust="spacingAndGlyphs" text-anchor="middle" opacity="0.01" style="font-family:monospace">10uF</text>
</g>
<g class="stroked-text"><desc>10uF</desc>
<path d="M142.8102 111.3522 L142.8102 107.1367 "/>
<path d="M142.8102 109.2445 L150.1874 109.2445 "/>
<path d="M150.1874 109.2445 L149.1335 108.5419 "/>
<path d="M149.1335 108.5419 L148.4309 107.8393 "/>
<path d="M148.4309 107.8393 L148.0796 107.1367 "/>
<path d="M150.1874 115.9191 L150.1874 116.6217 "/>
<path d="M150.1874 116.6217 L149.8361 117.3243 "/>
<path d="M149.8361 117.3243 L149.4848 117.6756 "/>
<path d="M149.4848 117.6756 L148.7822 118.0269 "/>
<path d="M148.7822 118.0269 L147.3770 118.3782 "/>
<path d="M147.3770 118.3782 L145.6205 118.3782 "/>
<path d="M145.6205 118.3782 L144.2154 118.0269 "/>
<path d="M144.2154 118.0269 L143.5128 117.6756 "/>
<path d="M143.5128 117.6756 L143.1615 117.3243 "/>
<path d="M143.1615 117.3243 L142.8102 116.6217 "/>
<path d="M142.8102 116.6217 L142.8102 115.9191 "/>
<path d="M142.8102 115.9191 L143.1615 115.2165 "/>
<path d="M143.1615 115.2165 L143.5128 114.8652 "/>
<path d="M143.5128 114.8652 L144.2154 114.5139 "/>
<path d="M144.2154 114.5139 L145.6205 114.1626 "/>
<path d="M145.6205 114.1626 L147.3770 114.1626 "/>
<path d="M147.3770 114.1626 L148.7822 114.5139 "/>
<path d="M148.7822 114.5139 L149.4848 114.8652 "/>
<path d="M149.4848 114.8652 L149.8361 115.2165 "/>
<path d="M149.8361 115.2165 L150.1874 115.9191 "/>
<path d="M147.7283 124.7015 L142.8102 124.7015 "/>
<path d="M147.7283 121.5398 L143.8641 121.5398 "/>
<path d="M143.8641 121.5398 L143.1615 121.8911 "/>
<path d="M143.1615 121.8911 L142.8102 122.5937 "/>
<path d="M142.8102 122.5937 L142.8102 123.6476 "/>
<path d="M142.8102 123.6476 L143.1615 124.3502 "/>
<path d="M143.1615 124.3502 L143.5128 124.7015 "/>
<path d="M146.6744 130.6736 L146.6744 128.2145 "/>
<path d="M142.8102 128.2145 L150.1874 128.2145 "/>
<path d="M150.1874 128.2145 L150.1874 131.7274 "/>
</g></g>
<g style="fill:#000084; fill-opacity:0.0;  stroke:#000084; stroke-width:0.5902; stroke-opacity:1;  stroke-linecap:round; stroke-linejoin:round;">
<g transform="rotate(-90.000000 133.7717 119.2564)">
<text x="133.7717" y="121.1007" transform="scale(-1 1) translate(-267.543437 0)" textLength="8.2344" font-size="4.9182" lengthAdjust="spacingAndGlyphs" text-anchor="middle" opacity="0.01" style="font-family:monospace">C1</text>
</g>
<g class="stroked-text"><desc>C1</desc>
<path d="M132.4473 118.6416 L132.2716 118.4660 "/>
<path d="M132.2716 118.4660 L132.0960 117.9390 "/>
<path d="M132.0960 117.9390 L132.0960 117.5878 "/>
<path d="M132.0960 117.5878 L132.2716 117.0608 "/>
<path d="M132.2716 117.0608 L132.6229 116.7095 "/>
<path d="M132.6229 116.7095 L132.9742 116.5339 "/>
<path d="M132.9742 116.5339 L133.6768 116.3582 "/>
<path d="M133.6768 116.3582 L134.2038 116.3582 "/>
<path d="M134.2038 116.3582 L134.9064 116.5339 "/>
<path d="M134.9064 116.5339 L135.2577 116.7095 "/>
<path d="M135.2577 116.7095 L135.6090 117.0608 "/>
<path d="M135.6090 117.0608 L135.7846 117.5878 "/>
<path d="M135.7846 117.5878 L135.7846 117.9390 "/>
<path d="M135.7846 117.9390 L135.6090 118.4660 "/>
<path d="M135.6090 118.4660 L135.4333 118.6416 "/>
<path d="M132.0960 122.1546 L132.0960 120.0468 "/>
<path d="M132.0960 121.1007 L135.7846 121.1007 "/>
<path d="M135.7846 121.1007 L135.2577 120.7494 "/>
<path d="M135.2577 120.7494 L134.9064 120.3981 "/>
<path d="M134.9064 120.3981 L134.7307 120.0468 "/>
</g></g>
<g style="fill:#000084; fill-opacity:0.01;  stroke:#000084; stroke-width:1.1066; stroke-opacity:1;  stroke-linecap:round; stroke-linejoin:round;">
<text x="162.6285" y="173.9512" transform="scale(-1 1) translate(-325.257002 0)" textLength="150.7942" font-size="9.8363" lengthAdjust="spacingAndGlyphs" text-anchor="middle" opacity="0.01" style="font-family:monospace">SolderJumper_3_Bridged12</text>
<g class="stroked-text"><desc>SolderJumper_3_Bridged12</desc>
<path d="M89.5588 173.2666 L90.6127 173.6179 "/>
<path d="M90.6127 173.6179 L92.3691 173.6179 "/>
<path d="M92.3691 173.6179 L93.0717 173.2666 "/>
<path d="M93.0717 173.2666 L93.4230 172.9153 "/>
<path d="M93.4230 172.9153 L93.7743 172.2127 "/>
<path d="M93.7743 172.2127 L93.7743 171.5101 "/>
<path d="M93.7743 171.5101 L93.4230 170.8075 "/>
<path d="M93.4230 170.8075 L93.0717 170.4562 "/>
<path d="M93.0717 170.4562 L92.3691 170.1049 "/>
<path d="M92.3691 170.1049 L90.9640 169.7536 "/>
<path d="M90.9640 169.7536 L90.2614 169.4023 "/>
<path d="M90.2614 169.4023 L89.9101 169.0510 "/>
<path d="M89.9101 169.0510 L89.5588 168.3485 "/>
<path d="M89.5588 168.3485 L89.5588 167.6459 "/>
<path d="M89.5588 167.6459 L89.9101 166.9433 "/>
<path d="M89.9101 166.9433 L90.2614 166.5920 "/>
<path d="M90.2614 166.5920 L90.9640 166.2407 "/>
<path d="M90.9640 166.2407 L92.7204 166.2407 "/>
<path d="M92.7204 166.2407 L93.7743 166.5920 "/>
<path d="M97.9899 173.6179 L97.2873 173.2666 "/>
<path d="M97.2873 173.2666 L96.9360 172.9153 "/>
<path d="M96.9360 172.9153 L96.5847 172.2127 "/>
<path d="M96.5847 172.2127 L96.5847 170.1049 "/>
<path d="M96.5847 170.1049 L96.9360 169.4023 "/>
<path d="M96.9360 169.4023 L97.2873 169.0510 "/>
<path d="M97.2873 169.0510 L97.9899 168.6997 "/>
<path d="M97.9899 168.6997 L99.0438 168.6997 "/>
<path d="M99.0438 168.6997 L99.7464 169.0510 "/>
<path d="M99.7464 169.0510 L100.0977 169.4023 "/>
<path d="M100.0977 169.4023 L100.4490 170.1049 "/>
<path d="M100.4490 170.1049 L100.4490 172.2127 "/>
<path d="M100.4490 172.2127 L100.0977 172.9153 "/>
<path d="M100.0977 172.9153 L99.7464 173.2666 "/>
<path d="M99.7464 173.2666 L99.0438 173.6179 "/>
<path d="M99.0438 173.6179 L97.9899 173.6179 "/>
<path d="M104.6645 173.6179 L103.9619 173.2666 "/>
<path d="M103.9619 173.2666 L103.6106 172.5640 "/>
<path d="M103.6106 172.5640 L103.6106 166.2407 "/>
<path d="M110.6366 173.6179 L110.6366 166.2407 "/>
<path d="M110.6366 173.2666 L109.9340 173.6179 "/>
<path d="M109.9340 173.6179 L108.5288 173.6179 "/>
<path d="M108.5288 173.6179 L107.8262 173.2666 "/>
<path d="M107.8262 173.2666 L107.4749 172.9153 "/>
<path d="M107.4749 172.9153 L107.1236 172.2127 "/>
<path d="M107.1236 172.2127 L107.1236 170.1049 "/>
<path d="M107.1236 170.1049 L107.4749 169.4023 "/>
<path d="M107.4749 169.4023 L107.8262 169.0510 "/>
<path d="M107.8262 169.0510 L108.5288 168.6997 "/>
<path d="M108.5288 168.6997 L109.9340 168.6997 "/>
<path d="M109.9340 168.6997 L110.6366 169.0510 "/>
<path d="M116.9599 173.2666 L116.2573 173.6179 "/>
<path d="M116.2573 173.6179 L114.8521 173.6179 "/>
<path d="M114.8521 173.6179 L114.1495 173.2666 "/>
<path d="M114.1495 173.2666 L113.7983 172.5640 "/>
<path d="M113.7983 172.5640 L113.7983 169.7536 "/>
<path d="M113.7983 169.7536 L114.1495 169.0510 "/>
<path d="M114.1495 169.0510 L114.8521 168.6997 "/>
<path d="M114.8521 168.6997 L116.2573 168.6997 "/>
<path d="M116.2573 168.6997 L116.9599 169.0510 "/>
<path d="M116.9599 169.0510 L117.3112 169.7536 "/>
<path d="M117.3112 169.7536 L117.3112 170.4562 "/>
<path d="M117.3112 170.4562 L113.7983 171.1588 "/>
<path d="M120.4729 173.6179 L120.4729 168.6997 "/>
<path d="M120.4729 170.1049 L120.8242 169.4023 "/>
<path d="M120.8242 169.4023 L121.1755 169.0510 "/>
<path d="M121.1755 169.0510 L121.8781 168.6997 "/>
<path d="M121.8781 168.6997 L122.5807 168.6997 "/>
<path d="M127.1475 166.2407 L127.1475 171.5101 "/>
<path d="M127.1475 171.5101 L126.7962 172.5640 "/>
<path d="M126.7962 172.5640 L126.0936 173.2666 "/>
<path d="M126.0936 173.2666 L125.0398 173.6179 "/>
<path d="M125.0398 173.6179 L124.3372 173.6179 "/>
<path d="M133.8222 168.6997 L133.8222 173.6179 "/>
<path d="M130.6605 168.6997 L130.6605 172.5640 "/>
<path d="M130.6605 172.5640 L131.0118 173.2666 "/>
<path d="M131.0118 173.2666 L131.7144 173.6179 "/>
<path d="M131.7144 173.6179 L132.7683 173.6179 "/>
<path d="M132.7683 173.6179 L133.4709 173.2666 "/>
<path d="M133.4709 173.2666 L133.8222 172.9153 "/>
<path d="M137.3351 173.6179 L137.3351 168.6997 "/>
<path d="M137.3351 169.4023 L137.6864 169.0510 "/>
<path d="M137.6864 169.0510 L138.3890 168.6997 "/>
<path d="M138.3890 168.6997 L139.4429 168.6997 "/>
<path d="M139.4429 168.6997 L140.1455 169.0510 "/>
<path d="M140.1455 169.0510 L140.4968 169.7536 "/>
<path d="M140.4968 169.7536 L140.4968 173.6179 "/>
<path d="M140.4968 169.7536 L140.8481 169.0510 "/>
<path d="M140.8481 169.0510 L141.5507 168.6997 "/>
<path d="M141.5507 168.6997 L142.6046 168.6997 "/>
<path d="M142.6046 168.6997 L143.3072 169.0510 "/>
<path d="M143.3072 169.0510 L143.6585 169.7536 "/>
<path d="M143.6585 169.7536 L143.6585 173.6179 "/>
<path d="M147.1715 168.6997 L147.1715 176.0770 "/>
<path d="M147.1715 169.0510 L147.8740 168.6997 "/>
<path d="M147.8740 168.6997 L149.2792 168.6997 "/>
<path d="M149.2792 168.6997 L149.9818 169.0510 "/>
<path d="M149.9818 169.0510 L150.3331 169.4023 "/>
<path d="M150.3331 169.4023 L150.6844 170.1049 "/>
<path d="M150.6844 170.1049 L150.6844 172.2127 "/>
<path d="M150.6844 172.2127 L150.3331 172.9153 "/>
<path d="M150.3331 172.9153 L149.9818 173.2666 "/>
<path d="M149.9818 173.2666 L149.2792 173.6179 "/>
<path d="M149.2792 173.6179 L147.8740 173.6179 "/>
<path d="M147.8740 173.6179 L147.1715 173.2666 "/>
<path d="M156.6565 173.2666 L155.9539 173.6179 "/>
<path d="M155.9539 173.6179 L154.5487 173.6179 "/>
<path d="M154.5487 173.6179 L153.8461 173.2666 "/>
<path d="M153.8461 173.2666 L153.4948 172.5640 "/>
<path d="M153.4948 172.5640 L153.4948 169.7536 "/>
<path d="M153.4948 169.7536 L153.8461 169.0510 "/>
<path d="M153.8461 169.0510 L154.5487 168.6997 "/>
<path d="M154.5487 168.6997 L155.9539 168.6997 "/>
<path d="M155.9539 168.6997 L156.6565 169.0510 "/>
<path d="M156.6565 169.0510 L157.0078 169.7536 "/>
<path d="M157.0078 169.7536 L157.0078 170.4562 "/>
<path d="M157.0078 170.4562 L153.4948 171.1588 "/>
<path d="M160.1694 173.6179 L160.1694 168.6997 "/>
<path d="M160.1694 170.1049 L160.5207 169.4023 "/>
<path d="M160.5207 169.4023 L160.8720 169.0510 "/>
<path d="M160.8720 169.0510 L161.5746 168.6997 "/>
<path d="M161.5746 168.6997 L162.2772 168.6997 "/>
<path d="M162.9798 174.3205 L168.6006 174.3205 "/>
<path d="M169.6545 166.2407 L174.2213 166.2407 "/>
<path d="M174.2213 166.2407 L171.7622 169.0510 "/>
<path d="M171.7622 169.0510 L172.8161 169.0510 "/>
<path d="M172.8161 169.0510 L173.5187 169.4023 "/>
<path d="M173.5187 169.4023 L173.8700 169.7536 "/>
<path d="M173.8700 169.7536 L174.2213 170.4562 "/>
<path d="M174.2213 170.4562 L174.2213 172.2127 "/>
<path d="M174.2213 172.2127 L173.8700 172.9153 "/>
<path d="M173.8700 172.9153 L173.5187 173.2666 "/>
<path d="M173.5187 173.2666 L172.8161 173.6179 "/>
<path d="M172.8161 173.6179 L170.7083 173.6179 "/>
<path d="M170.7083 173.6179 L170.0057 173.2666 "/>
<path d="M170.0057 173.2666 L169.6545 172.9153 "/>
<path d="M175.6265 174.3205 L181.2472 174.3205 "/>
<path d="M185.4628 169.7536 L186.5167 170.1049 "/>
<path d="M186.5167 170.1049 L186.8680 170.4562 "/>
<path d="M186.8680 170.4562 L187.2193 171.1588 "/>
<path d="M187.2193 171.1588 L187.2193 172.2127 "/>
<path d="M187.2193 172.2127 L186.8680 172.9153 "/>
<path d="M186.8680 172.9153 L186.5167 173.2666 "/>
<path d="M186.5167 173.2666 L185.8141 173.6179 "/>
<path d="M185.8141 173.6179 L183.0037 173.6179 "/>
<path d="M183.0037 173.6179 L183.0037 166.2407 "/>
<path d="M183.0037 166.2407 L185.4628 166.2407 "/>
<path d="M185.4628 166.2407 L186.1654 166.5920 "/>
<path d="M186.1654 166.5920 L186.5167 166.9433 "/>
<path d="M186.5167 166.9433 L186.8680 167.6459 "/>
<path d="M186.8680 167.6459 L186.8680 168.3485 "/>
<path d="M186.8680 168.3485 L186.5167 169.0510 "/>
<path d="M186.5167 169.0510 L186.1654 169.4023 "/>
<path d="M186.1654 169.4023 L185.4628 169.7536 "/>
<path d="M185.4628 169.7536 L183.0037 169.7536 "/>
<path d="M190.3810 173.6179 L190.3810 168.6997 "/>
<path d="M190.3810 170.1049 L190.7323 169.4023 "/>
<path d="M190.7323 169.4023 L191.0836 169.0510 "/>
<path d="M191.0836 169.0510 L191.7861 168.6997 "/>
<path d="M191.7861 168.6997 L192.4887 168.6997 "/>
<path d="M194.9478 173.6179 L194.9478 168.6997 "/>
<path d="M194.9478 166.2407 L194.5965 166.5920 "/>
<path d="M194.5965 166.5920 L194.9478 166.9433 "/>
<path d="M194.9478 166.9433 L195.2991 166.5920 "/>
<path d="M195.2991 166.5920 L194.9478 166.2407 "/>
<path d="M194.9478 166.2407 L194.9478 166.9433 "/>
<path d="M201.6225 173.6179 L201.6225 166.2407 "/>
<path d="M201.6225 173.2666 L200.9199 173.6179 "/>
<path d="M200.9199 173.6179 L199.5147 173.6179 "/>
<path d="M199.5147 173.6179 L198.8121 173.2666 "/>
<path d="M198.8121 173.2666 L198.4608 172.9153 "/>
<path d="M198.4608 172.9153 L198.1095 172.2127 "/>
<path d="M198.1095 172.2127 L198.1095 170.1049 "/>
<path d="M198.1095 170.1049 L198.4608 169.4023 "/>
<path d="M198.4608 169.4023 L198.8121 169.0510 "/>
<path d="M198.8121 169.0510 L199.5147 168.6997 "/>
<path d="M199.5147 168.6997 L200.9199 168.6997 "/>
<path d="M200.9199 168.6997 L201.6225 169.0510 "/>
<path d="M208.2971 168.6997 L208.2971 174.6718 "/>
<path d="M208.2971 174.6718 L207.9458 175.3744 "/>
<path d="M207.9458 175.3744 L207.5945 175.7257 "/>
<path d="M207.5945 175.7257 L206.8919 176.0770 "/>
<path d="M206.8919 176.0770 L205.8380 176.0770 "/>
<path d="M205.8380 176.0770 L205.1354 175.7257 "/>
<path d="M208.2971 173.2666 L207.5945 173.6179 "/>
<path d="M207.5945 173.6179 L206.1893 173.6179 "/>
<path d="M206.1893 173.6179 L205.4867 173.2666 "/>
<path d="M205.4867 173.2666 L205.1354 172.9153 "/>
<path d="M205.1354 172.9153 L204.7841 172.2127 "/>
<path d="M204.7841 172.2127 L204.7841 170.1049 "/>
<path d="M204.7841 170.1049 L205.1354 169.4023 "/>
<path d="M205.1354 169.4023 L205.4867 169.0510 "/>
<path d="M205.4867 169.0510 L206.1893 168.6997 "/>
<path d="M206.1893 168.6997 L207.5945 168.6997 "/>
<path d="M207.5945 168.6997 L208.2971 169.0510 "/>
<path d="M214.6204 173.2666 L213.9178 173.6179 "/>
<path d="M213.9178 173.6179 L212.5127 173.6179 "/>
<path d="M212.5127 173.6179 L211.8101 173.2666 "/>
<path d="M211.8101 173.2666 L211.4588 172.5640 "/>
<path d="M211.4588 172.5640 L211.4588 169.7536 "/>
<path d="M211.4588 169.7536 L211.8101 169.0510 "/>
<path d="M211.8101 169.0510 L212.5127 168.6997 "/>
<path d="M212.5127 168.6997 L213.9178 168.6997 "/>
<path d="M213.9178 168.6997 L214.6204 169.0510 "/>
<path d="M214.6204 169.0510 L214.9717 169.7536 "/>
<path d="M214.9717 169.7536 L214.9717 170.4562 "/>
<path d="M214.9717 170.4562 L211.4588 171.1588 "/>
<path d="M221.2951 173.6179 L221.2951 166.2407 "/>
<path d="M221.2951 173.2666 L220.5925 173.6179 "/>
<path d="M220.5925 173.6179 L219.1873 173.6179 "/>
<path d="M219.1873 173.6179 L218.4847 173.2666 "/>
<path d="M218.4847 173.2666 L218.1334 172.9153 "/>
<path d="M218.1334 172.9153 L217.7821 172.2127 "/>
<path d="M217.7821 172.2127 L217.7821 170.1049 "/>
<path d="M217.7821 170.1049 L218.1334 169.4023 "/>
<path d="M218.1334 169.4023 L218.4847 169.0510 "/>
<path d="M218.4847 169.0510 L219.1873 168.6997 "/>
<path d="M219.1873 168.6997 L220.5925 168.6997 "/>
<path d="M220.5925 168.6997 L221.2951 169.0510 "/>
<path d="M228.6723 173.6179 L224.4568 173.6179 "/>
<path d="M226.5645 173.6179 L226.5645 166.2407 "/>
<path d="M226.5645 166.2407 L225.8619 167.2946 "/>
<path d="M225.8619 167.2946 L225.1593 167.9972 "/>
<path d="M225.1593 167.9972 L224.4568 168.3485 "/>
<path d="M231.4827 166.9433 L231.8340 166.5920 "/>
<path d="M231.8340 166.5920 L232.5366 166.2407 "/>
<path d="M232.5366 166.2407 L234.2931 166.2407 "/>
<path d="M234.2931 166.2407 L234.9957 166.5920 "/>
<path d="M234.9957 166.5920 L235.3470 166.9433 "/>
<path d="M235.3470 166.9433 L235.6982 167.6459 "/>
<path d="M235.6982 167.6459 L235.6982 168.3485 "/>
<path d="M235.6982 168.3485 L235.3470 169.4023 "/>
<path d="M235.3470 169.4023 L231.1314 173.6179 "/>
<path d="M231.1314 173.6179 L235.6982 173.6179 "/>
</g></g>
<g style="fill:#000084; fill-opacity:0.0;  stroke:#000084; stroke-width:0.7377; stroke-opacity:1;  stroke-linecap:round; stroke-linejoin:round;">
<path d="M109.0329 83.5285 L109.0329 92.7500 "/>
<path d="M109.0329 92.7500 L94.2784 92.7500 "/>
<path d="M94.2784 83.5285 L109.0329 83.5285 "/>
<path d="M94.2784 92.7500 L94.2784 83.5285 "/>
<path d="M121.5181 126.6336 L112.2966 126.6336 "/>
<path d="M112.2966 126.6336 L112.2966 111.8792 "/>
<path d="M121.5181 111.8792 L121.5181 126.6336 "/>
<path d="M112.2966 111.8792 L121.5181 111.8792 "/>
<path d="M182.6842 126.7104 L151.3310 126.7104 "/>
<path d="M151.3310 126.7104 L145.7981 121.1774 "/>
<path d="M145.7981 121.1774 L145.7981 104.5787 "/>
<path d="M182.6842 104.5787 L182.6842 126.7104 "/>
<path d="M145.7981 104.5787 L182.6842 104.5787 "/>
<path d="M98.8376 112.2185 L98.8376 124.0221 "/>
<path d="M98.8376 124.0221 L74.4927 124.0221 "/>
<path d="M92.1981 118.1203 L89.2472 118.1203 "/>
<path d="M89.2472 118.1203 L89.2472 114.0628 "/>
<path d="M89.2472 118.1203 L89.2472 122.1778 "/>
<path d="M89.2472 118.1203 L84.8208 121.0712 "/>
<path d="M84.8208 115.1694 L89.2472 118.1203 "/>
<path d="M84.8208 118.1203 L81.1322 118.1203 "/>
<path d="M84.8208 121.0712 L84.8208 115.1694 "/>
<path d="M74.4927 112.2185 L98.8376 112.2185 "/>
<path d="M74.4927 124.0221 L74.4927 112.2185 "/>
<path d="M124.2595 92.7500 L124.2595 83.5285 "/>
<path d="M124.2595 83.5285 L139.0140 83.5285 "/>
<path d="M139.0140 92.7500 L124.2595 92.7500 "/>
<path d="M139.0140 83.5285 L139.0140 92.7500 "/>
<path d="M138.3825 126.6336 L129.1609 126.6336 "/>
<path d="M129.1609 126.6336 L129.1609 111.8792 "/>
<path d="M138.3825 111.8792 L138.3825 126.6336 "/>
<path d="M129.1609 111.8792 L138.3825 111.8792 "/>
<g>
</g>
<g>
</g>
<g>
</g>
<g>
</g>
<g>
</g>
<g>
</g>
<g>
</g>
<g>
</g>
<g>
</g>
<g>
</g>
<g>
</g>
<g>
</g>
<g>
</g>
<g>
</g>
<g>
</g>
<g>
</g>
<g>
</g>
<g>
</g>
</g> 
<svg:g><svg:g><svg:title>SVG Image created as ALTIMET02-Edge_Cuts.svg date 2023/09/06 12:29:52 </svg:title>
  <svg:desc>Image generated by PCBNEW </svg:desc>
<svg:g style="fill:#C2C200; fill-opacity:1.0000;stroke:#C2C200; stroke-opacity:1.0000; stroke-linecap:round; stroke-linejoin:round;" transform="translate(0 0) scale(1 1)">
</svg:g>
<svg:g style="fill:#C2C200; fill-opacity:0.0;  stroke:#C2C200; stroke-width:0.0000; stroke-opacity:1;  stroke-linecap:round; stroke-linejoin:round;">
</svg:g>
<svg:g style="fill:#C2C200; fill-opacity:0.0;  stroke:#C2C200; stroke-width:0.9369; stroke-opacity:1;  stroke-linecap:round; stroke-linejoin:round;">
<svg:path d="M296.5326 178.0825 L296.5326 31.9247 "/>
<svg:path d="M296.5326 31.9247 L0.4696 31.9247 "/>
<svg:path d="M0.4696 178.0825 L296.5326 178.0825 "/>
<svg:path d="M0.4696 31.9247 L0.4696 178.0825 "/>
<svg:g>
</svg:g>
<svg:g>
</svg:g>
<svg:g>
</svg:g>
<svg:g>
</svg:g>
<svg:g>
</svg:g>
<svg:g>
</svg:g>
<svg:g>
</svg:g>
<svg:g>
</svg:g>
<svg:g>
</svg:g>
<svg:g>
</svg:g>
<svg:g>
</svg:g>
<svg:g>
</svg:g>
<svg:g>
</svg:g>
<svg:g>
</svg:g>
<svg:g>
</svg:g>
<svg:g>
</svg:g>
<svg:g>
</svg:g>
<svg:g>
</svg:g>
</svg:g> 
</svg:g></svg:g></svg>
