<?xml version='1.0' encoding='ASCII' standalone='yes'?>
<svg xmlns:svg="http://www.w3.org/2000/svg" xmlns="http://www.w3.org/2000/svg" xmlns:xlink="http://www.w3.org/1999/xlink" version="1.1" width="297.0022mm" height="210.0072mm" viewBox="0.0000 0.0000 297.0022 210.0072">
<title>SVG Image created as ALTIMET02-B_Fab.svg date 2023/09/22 07:24:08 </title>
  <desc>Image generated by PCBNEW </desc>
<g style="fill:#000084; fill-opacity:1.0000;stroke:#000084; stroke-opacity:1.0000; stroke-linecap:round; stroke-linejoin:round;" transform="translate(0 0) scale(1 1)">
</g>
<g style="fill:#000084; fill-opacity:0.0;  stroke:#000084; stroke-width:0.0000; stroke-opacity:1;  stroke-linecap:round; stroke-linejoin:round;">
</g>
<g style="fill:#000084; fill-opacity:0.01;  stroke:#000084; stroke-width:1.1066; stroke-opacity:1;  stroke-linecap:round; stroke-linejoin:round;">
<text x="103.2602" y="102.3773" transform="scale(-1 1) translate(-206.520446 0)" textLength="21.8682" font-size="9.8363" lengthAdjust="spacingAndGlyphs" text-anchor="middle" opacity="0.01" style="font-family:monospace">5k1</text>
<g class="stroked-text"><desc>5k1</desc>
<path d="M98.5177 94.6668 L95.0048 94.6668 "/>
<path d="M95.0048 94.6668 L94.6535 98.1797 "/>
<path d="M94.6535 98.1797 L95.0048 97.8284 "/>
<path d="M95.0048 97.8284 L95.7073 97.4771 "/>
<path d="M95.7073 97.4771 L97.4638 97.4771 "/>
<path d="M97.4638 97.4771 L98.1664 97.8284 "/>
<path d="M98.1664 97.8284 L98.5177 98.1797 "/>
<path d="M98.5177 98.1797 L98.8690 98.8823 "/>
<path d="M98.8690 98.8823 L98.8690 100.6388 "/>
<path d="M98.8690 100.6388 L98.5177 101.3414 "/>
<path d="M98.5177 101.3414 L98.1664 101.6927 "/>
<path d="M98.1664 101.6927 L97.4638 102.0440 "/>
<path d="M97.4638 102.0440 L95.7073 102.0440 "/>
<path d="M95.7073 102.0440 L95.0048 101.6927 "/>
<path d="M95.0048 101.6927 L94.6535 101.3414 "/>
<path d="M102.0307 102.0440 L102.0307 94.6668 "/>
<path d="M102.7333 99.2336 L104.8411 102.0440 "/>
<path d="M104.8411 97.1258 L102.0307 99.9362 "/>
<path d="M111.8670 102.0440 L107.6514 102.0440 "/>
<path d="M109.7592 102.0440 L109.7592 94.6668 "/>
<path d="M109.7592 94.6668 L109.0566 95.7207 "/>
<path d="M109.0566 95.7207 L108.3540 96.4232 "/>
<path d="M108.3540 96.4232 L107.6514 96.7745 "/>
</g></g>
<g style="fill:#000084; fill-opacity:0.01;  stroke:#000084; stroke-width:0.5902; stroke-opacity:1;  stroke-linecap:round; stroke-linejoin:round;">
<text x="103.2602" y="89.2901" transform="scale(-1 1) translate(-206.520446 0)" textLength="8.2344" font-size="4.9182" lengthAdjust="spacingAndGlyphs" text-anchor="middle" opacity="0.01" style="font-family:monospace">R1</text>
<g class="stroked-text"><desc>R1</desc>
<path d="M102.6455 89.1215 L101.4159 87.3650 "/>
<path d="M100.5377 89.1215 L100.5377 85.4329 "/>
<path d="M100.5377 85.4329 L101.9429 85.4329 "/>
<path d="M101.9429 85.4329 L102.2942 85.6086 "/>
<path d="M102.2942 85.6086 L102.4698 85.7842 "/>
<path d="M102.4698 85.7842 L102.6455 86.1355 "/>
<path d="M102.6455 86.1355 L102.6455 86.6624 "/>
<path d="M102.6455 86.6624 L102.4698 87.0137 "/>
<path d="M102.4698 87.0137 L102.2942 87.1894 "/>
<path d="M102.2942 87.1894 L101.9429 87.3650 "/>
<path d="M101.9429 87.3650 L100.5377 87.3650 "/>
<path d="M106.1584 89.1215 L104.0506 89.1215 "/>
<path d="M105.1045 89.1215 L105.1045 85.4329 "/>
<path d="M105.1045 85.4329 L104.7532 85.9599 "/>
<path d="M104.7532 85.9599 L104.4019 86.3111 "/>
<path d="M104.4019 86.3111 L104.0506 86.4868 "/>
</g></g>
<g style="fill:#000084; fill-opacity:0.0;  stroke:#000084; stroke-width:1.1066; stroke-opacity:1;  stroke-linecap:round; stroke-linejoin:round;">
<g transform="rotate(-90.000000 127.1661 119.2564)">
<text x="127.1661" y="122.9450" transform="scale(-1 1) translate(-254.332289 0)" textLength="35.9201" font-size="9.8363" lengthAdjust="spacingAndGlyphs" text-anchor="middle" opacity="0.01" style="font-family:monospace">100nF</text>
</g>
<g class="stroked-text"><desc>100nF</desc>
<path d="M123.8108 107.8393 L123.8108 103.6237 "/>
<path d="M123.8108 105.7315 L131.1881 105.7315 "/>
<path d="M131.1881 105.7315 L130.1342 105.0289 "/>
<path d="M130.1342 105.0289 L129.4316 104.3263 "/>
<path d="M129.4316 104.3263 L129.0803 103.6237 "/>
<path d="M131.1881 112.4061 L131.1881 113.1087 "/>
<path d="M131.1881 113.1087 L130.8368 113.8113 "/>
<path d="M130.8368 113.8113 L130.4855 114.1626 "/>
<path d="M130.4855 114.1626 L129.7829 114.5139 "/>
<path d="M129.7829 114.5139 L128.3777 114.8652 "/>
<path d="M128.3777 114.8652 L126.6212 114.8652 "/>
<path d="M126.6212 114.8652 L125.2160 114.5139 "/>
<path d="M125.2160 114.5139 L124.5134 114.1626 "/>
<path d="M124.5134 114.1626 L124.1621 113.8113 "/>
<path d="M124.1621 113.8113 L123.8108 113.1087 "/>
<path d="M123.8108 113.1087 L123.8108 112.4061 "/>
<path d="M123.8108 112.4061 L124.1621 111.7035 "/>
<path d="M124.1621 111.7035 L124.5134 111.3522 "/>
<path d="M124.5134 111.3522 L125.2160 111.0009 "/>
<path d="M125.2160 111.0009 L126.6212 110.6496 "/>
<path d="M126.6212 110.6496 L128.3777 110.6496 "/>
<path d="M128.3777 110.6496 L129.7829 111.0009 "/>
<path d="M129.7829 111.0009 L130.4855 111.3522 "/>
<path d="M130.4855 111.3522 L130.8368 111.7035 "/>
<path d="M130.8368 111.7035 L131.1881 112.4061 "/>
<path d="M131.1881 119.4321 L131.1881 120.1347 "/>
<path d="M131.1881 120.1347 L130.8368 120.8372 "/>
<path d="M130.8368 120.8372 L130.4855 121.1885 "/>
<path d="M130.4855 121.1885 L129.7829 121.5398 "/>
<path d="M129.7829 121.5398 L128.3777 121.8911 "/>
<path d="M128.3777 121.8911 L126.6212 121.8911 "/>
<path d="M126.6212 121.8911 L125.2160 121.5398 "/>
<path d="M125.2160 121.5398 L124.5134 121.1885 "/>
<path d="M124.5134 121.1885 L124.1621 120.8372 "/>
<path d="M124.1621 120.8372 L123.8108 120.1347 "/>
<path d="M123.8108 120.1347 L123.8108 119.4321 "/>
<path d="M123.8108 119.4321 L124.1621 118.7295 "/>
<path d="M124.1621 118.7295 L124.5134 118.3782 "/>
<path d="M124.5134 118.3782 L125.2160 118.0269 "/>
<path d="M125.2160 118.0269 L126.6212 117.6756 "/>
<path d="M126.6212 117.6756 L128.3777 117.6756 "/>
<path d="M128.3777 117.6756 L129.7829 118.0269 "/>
<path d="M129.7829 118.0269 L130.4855 118.3782 "/>
<path d="M130.4855 118.3782 L130.8368 118.7295 "/>
<path d="M130.8368 118.7295 L131.1881 119.4321 "/>
<path d="M128.7290 125.0528 L123.8108 125.0528 "/>
<path d="M128.0264 125.0528 L128.3777 125.4041 "/>
<path d="M128.3777 125.4041 L128.7290 126.1067 "/>
<path d="M128.7290 126.1067 L128.7290 127.1606 "/>
<path d="M128.7290 127.1606 L128.3777 127.8632 "/>
<path d="M128.3777 127.8632 L127.6751 128.2145 "/>
<path d="M127.6751 128.2145 L123.8108 128.2145 "/>
<path d="M127.6751 134.1865 L127.6751 131.7274 "/>
<path d="M123.8108 131.7274 L131.1881 131.7274 "/>
<path d="M131.1881 131.7274 L131.1881 135.2404 "/>
</g></g>
<g style="fill:#000084; fill-opacity:0.0;  stroke:#000084; stroke-width:0.5902; stroke-opacity:1;  stroke-linecap:round; stroke-linejoin:round;">
<g transform="rotate(-90.000000 114.7724 119.2564)">
<text x="114.7724" y="121.1007" transform="scale(-1 1) translate(-229.544788 0)" textLength="8.2344" font-size="4.9182" lengthAdjust="spacingAndGlyphs" text-anchor="middle" opacity="0.01" style="font-family:monospace">C2</text>
</g>
<g class="stroked-text"><desc>C2</desc>
<path d="M113.4480 118.6416 L113.2723 118.4660 "/>
<path d="M113.2723 118.4660 L113.0967 117.9390 "/>
<path d="M113.0967 117.9390 L113.0967 117.5878 "/>
<path d="M113.0967 117.5878 L113.2723 117.0608 "/>
<path d="M113.2723 117.0608 L113.6236 116.7095 "/>
<path d="M113.6236 116.7095 L113.9749 116.5339 "/>
<path d="M113.9749 116.5339 L114.6775 116.3582 "/>
<path d="M114.6775 116.3582 L115.2044 116.3582 "/>
<path d="M115.2044 116.3582 L115.9070 116.5339 "/>
<path d="M115.9070 116.5339 L116.2583 116.7095 "/>
<path d="M116.2583 116.7095 L116.6096 117.0608 "/>
<path d="M116.6096 117.0608 L116.7853 117.5878 "/>
<path d="M116.7853 117.5878 L116.7853 117.9390 "/>
<path d="M116.7853 117.9390 L116.6096 118.4660 "/>
<path d="M116.6096 118.4660 L116.4340 118.6416 "/>
<path d="M116.4340 120.0468 L116.6096 120.2225 "/>
<path d="M116.6096 120.2225 L116.7853 120.5738 "/>
<path d="M116.7853 120.5738 L116.7853 121.4520 "/>
<path d="M116.7853 121.4520 L116.6096 121.8033 "/>
<path d="M116.6096 121.8033 L116.4340 121.9790 "/>
<path d="M116.4340 121.9790 L116.0827 122.1546 "/>
<path d="M116.0827 122.1546 L115.7314 122.1546 "/>
<path d="M115.7314 122.1546 L115.2044 121.9790 "/>
<path d="M115.2044 121.9790 L113.0967 119.8712 "/>
<path d="M113.0967 119.8712 L113.0967 122.1546 "/>
</g></g>
<g style="fill:#000084; fill-opacity:0.0;  stroke:#000084; stroke-width:1.1066; stroke-opacity:1;  stroke-linecap:round; stroke-linejoin:round;">
<g transform="rotate(-90.000000 191.1681 115.6445)">
<text x="191.1681" y="119.3331" transform="scale(-1 1) translate(-382.336124 0)" textLength="82.2913" font-size="9.8363" lengthAdjust="spacingAndGlyphs" text-anchor="middle" opacity="0.01" style="font-family:monospace">MS5611-01BA</text>
</g>
<g class="stroked-text"><desc>MS5611-01BA</desc>
<path d="M187.8128 77.1775 L195.1900 77.1775 "/>
<path d="M195.1900 77.1775 L189.9205 79.6366 "/>
<path d="M189.9205 79.6366 L195.1900 82.0957 "/>
<path d="M195.1900 82.0957 L187.8128 82.0957 "/>
<path d="M188.1641 85.2573 L187.8128 86.3112 "/>
<path d="M187.8128 86.3112 L187.8128 88.0677 "/>
<path d="M187.8128 88.0677 L188.1641 88.7703 "/>
<path d="M188.1641 88.7703 L188.5154 89.1216 "/>
<path d="M188.5154 89.1216 L189.2179 89.4729 "/>
<path d="M189.2179 89.4729 L189.9205 89.4729 "/>
<path d="M189.9205 89.4729 L190.6231 89.1216 "/>
<path d="M190.6231 89.1216 L190.9744 88.7703 "/>
<path d="M190.9744 88.7703 L191.3257 88.0677 "/>
<path d="M191.3257 88.0677 L191.6770 86.6625 "/>
<path d="M191.6770 86.6625 L192.0283 85.9599 "/>
<path d="M192.0283 85.9599 L192.3796 85.6086 "/>
<path d="M192.3796 85.6086 L193.0822 85.2573 "/>
<path d="M193.0822 85.2573 L193.7848 85.2573 "/>
<path d="M193.7848 85.2573 L194.4874 85.6086 "/>
<path d="M194.4874 85.6086 L194.8387 85.9599 "/>
<path d="M194.8387 85.9599 L195.1900 86.6625 "/>
<path d="M195.1900 86.6625 L195.1900 88.4190 "/>
<path d="M195.1900 88.4190 L194.8387 89.4729 "/>
<path d="M195.1900 96.1475 L195.1900 92.6346 "/>
<path d="M195.1900 92.6346 L191.6770 92.2833 "/>
<path d="M191.6770 92.2833 L192.0283 92.6346 "/>
<path d="M192.0283 92.6346 L192.3796 93.3372 "/>
<path d="M192.3796 93.3372 L192.3796 95.0937 "/>
<path d="M192.3796 95.0937 L192.0283 95.7962 "/>
<path d="M192.0283 95.7962 L191.6770 96.1475 "/>
<path d="M191.6770 96.1475 L190.9744 96.4988 "/>
<path d="M190.9744 96.4988 L189.2179 96.4988 "/>
<path d="M189.2179 96.4988 L188.5154 96.1475 "/>
<path d="M188.5154 96.1475 L188.1641 95.7962 "/>
<path d="M188.1641 95.7962 L187.8128 95.0937 "/>
<path d="M187.8128 95.0937 L187.8128 93.3372 "/>
<path d="M187.8128 93.3372 L188.1641 92.6346 "/>
<path d="M188.1641 92.6346 L188.5154 92.2833 "/>
<path d="M195.1900 102.8222 L195.1900 101.4170 "/>
<path d="M195.1900 101.4170 L194.8387 100.7144 "/>
<path d="M194.8387 100.7144 L194.4874 100.3631 "/>
<path d="M194.4874 100.3631 L193.4335 99.6605 "/>
<path d="M193.4335 99.6605 L192.0283 99.3092 "/>
<path d="M192.0283 99.3092 L189.2179 99.3092 "/>
<path d="M189.2179 99.3092 L188.5154 99.6605 "/>
<path d="M188.5154 99.6605 L188.1641 100.0118 "/>
<path d="M188.1641 100.0118 L187.8128 100.7144 "/>
<path d="M187.8128 100.7144 L187.8128 102.1196 "/>
<path d="M187.8128 102.1196 L188.1641 102.8222 "/>
<path d="M188.1641 102.8222 L188.5154 103.1735 "/>
<path d="M188.5154 103.1735 L189.2179 103.5248 "/>
<path d="M189.2179 103.5248 L190.9744 103.5248 "/>
<path d="M190.9744 103.5248 L191.6770 103.1735 "/>
<path d="M191.6770 103.1735 L192.0283 102.8222 "/>
<path d="M192.0283 102.8222 L192.3796 102.1196 "/>
<path d="M192.3796 102.1196 L192.3796 100.7144 "/>
<path d="M192.3796 100.7144 L192.0283 100.0118 "/>
<path d="M192.0283 100.0118 L191.6770 99.6605 "/>
<path d="M191.6770 99.6605 L190.9744 99.3092 "/>
<path d="M187.8128 110.5507 L187.8128 106.3352 "/>
<path d="M187.8128 108.4429 L195.1900 108.4429 "/>
<path d="M195.1900 108.4429 L194.1361 107.7403 "/>
<path d="M194.1361 107.7403 L193.4335 107.0377 "/>
<path d="M193.4335 107.0377 L193.0822 106.3352 "/>
<path d="M187.8128 117.5766 L187.8128 113.3611 "/>
<path d="M187.8128 115.4689 L195.1900 115.4689 "/>
<path d="M195.1900 115.4689 L194.1361 114.7663 "/>
<path d="M194.1361 114.7663 L193.4335 114.0637 "/>
<path d="M193.4335 114.0637 L193.0822 113.3611 "/>
<path d="M190.6231 120.7383 L190.6231 126.3591 "/>
<path d="M195.1900 131.2772 L195.1900 131.9798 "/>
<path d="M195.1900 131.9798 L194.8387 132.6824 "/>
<path d="M194.8387 132.6824 L194.4874 133.0337 "/>
<path d="M194.4874 133.0337 L193.7848 133.3850 "/>
<path d="M193.7848 133.3850 L192.3796 133.7363 "/>
<path d="M192.3796 133.7363 L190.6231 133.7363 "/>
<path d="M190.6231 133.7363 L189.2179 133.3850 "/>
<path d="M189.2179 133.3850 L188.5154 133.0337 "/>
<path d="M188.5154 133.0337 L188.1641 132.6824 "/>
<path d="M188.1641 132.6824 L187.8128 131.9798 "/>
<path d="M187.8128 131.9798 L187.8128 131.2772 "/>
<path d="M187.8128 131.2772 L188.1641 130.5746 "/>
<path d="M188.1641 130.5746 L188.5154 130.2233 "/>
<path d="M188.5154 130.2233 L189.2179 129.8720 "/>
<path d="M189.2179 129.8720 L190.6231 129.5207 "/>
<path d="M190.6231 129.5207 L192.3796 129.5207 "/>
<path d="M192.3796 129.5207 L193.7848 129.8720 "/>
<path d="M193.7848 129.8720 L194.4874 130.2233 "/>
<path d="M194.4874 130.2233 L194.8387 130.5746 "/>
<path d="M194.8387 130.5746 L195.1900 131.2772 "/>
<path d="M187.8128 140.7622 L187.8128 136.5467 "/>
<path d="M187.8128 138.6545 L195.1900 138.6545 "/>
<path d="M195.1900 138.6545 L194.1361 137.9519 "/>
<path d="M194.1361 137.9519 L193.4335 137.2493 "/>
<path d="M193.4335 137.2493 L193.0822 136.5467 "/>
<path d="M191.6770 146.3830 L191.3257 147.4369 "/>
<path d="M191.3257 147.4369 L190.9744 147.7882 "/>
<path d="M190.9744 147.7882 L190.2718 148.1395 "/>
<path d="M190.2718 148.1395 L189.2179 148.1395 "/>
<path d="M189.2179 148.1395 L188.5154 147.7882 "/>
<path d="M188.5154 147.7882 L188.1641 147.4369 "/>
<path d="M188.1641 147.4369 L187.8128 146.7343 "/>
<path d="M187.8128 146.7343 L187.8128 143.9239 "/>
<path d="M187.8128 143.9239 L195.1900 143.9239 "/>
<path d="M195.1900 143.9239 L195.1900 146.3830 "/>
<path d="M195.1900 146.3830 L194.8387 147.0856 "/>
<path d="M194.8387 147.0856 L194.4874 147.4369 "/>
<path d="M194.4874 147.4369 L193.7848 147.7882 "/>
<path d="M193.7848 147.7882 L193.0822 147.7882 "/>
<path d="M193.0822 147.7882 L192.3796 147.4369 "/>
<path d="M192.3796 147.4369 L192.0283 147.0856 "/>
<path d="M192.0283 147.0856 L191.6770 146.3830 "/>
<path d="M191.6770 146.3830 L191.6770 143.9239 "/>
<path d="M189.9205 150.9498 L189.9205 154.4628 "/>
<path d="M187.8128 150.2473 L195.1900 152.7063 "/>
<path d="M195.1900 152.7063 L187.8128 155.1654 "/>
</g></g>
<g style="fill:#000084; fill-opacity:0.0;  stroke:#000084; stroke-width:0.5533; stroke-opacity:1;  stroke-linecap:round; stroke-linejoin:round;">
<g transform="rotate(-90.000000 164.2412 115.6445)">
<text x="164.2412" y="117.4888" transform="scale(-1 1) translate(-328.482328 0)" textLength="8.2994" font-size="4.9182" lengthAdjust="spacingAndGlyphs" text-anchor="middle" opacity="0.01" style="font-family:monospace">U1</text>
</g>
<g class="stroked-text"><desc>U1</desc>
<path d="M166.2521 112.8341 L163.2661 112.8341 "/>
<path d="M163.2661 112.8341 L162.9148 113.0098 "/>
<path d="M162.9148 113.0098 L162.7392 113.1854 "/>
<path d="M162.7392 113.1854 L162.5635 113.5367 "/>
<path d="M162.5635 113.5367 L162.5635 114.2393 "/>
<path d="M162.5635 114.2393 L162.7392 114.5906 "/>
<path d="M162.7392 114.5906 L162.9148 114.7663 "/>
<path d="M162.9148 114.7663 L163.2661 114.9419 "/>
<path d="M163.2661 114.9419 L166.2521 114.9419 "/>
<path d="M162.5635 118.6305 L162.5635 116.5228 "/>
<path d="M162.5635 117.5767 L166.2521 117.5767 "/>
<path d="M166.2521 117.5767 L165.7252 117.2254 "/>
<path d="M165.7252 117.2254 L165.3739 116.8741 "/>
<path d="M165.3739 116.8741 L165.1982 116.5228 "/>
</g></g>
<g style="fill:#000084; fill-opacity:0.01;  stroke:#000084; stroke-width:1.1066; stroke-opacity:1;  stroke-linecap:round; stroke-linejoin:round;">
<text x="88.5980" y="106.3167" transform="scale(-1 1) translate(-177.195947 0)" textLength="105.1256" font-size="9.8363" lengthAdjust="spacingAndGlyphs" text-anchor="middle" opacity="0.01" style="font-family:monospace">BZT52H-C3V6,115</text>
<g class="stroked-text"><desc>BZT52H-C3V6,115</desc>
<path d="M41.1729 102.1192 L42.2268 102.4705 "/>
<path d="M42.2268 102.4705 L42.5781 102.8218 "/>
<path d="M42.5781 102.8218 L42.9294 103.5244 "/>
<path d="M42.9294 103.5244 L42.9294 104.5782 "/>
<path d="M42.9294 104.5782 L42.5781 105.2808 "/>
<path d="M42.5781 105.2808 L42.2268 105.6321 "/>
<path d="M42.2268 105.6321 L41.5242 105.9834 "/>
<path d="M41.5242 105.9834 L38.7138 105.9834 "/>
<path d="M38.7138 105.9834 L38.7138 98.6062 "/>
<path d="M38.7138 98.6062 L41.1729 98.6062 "/>
<path d="M41.1729 98.6062 L41.8755 98.9575 "/>
<path d="M41.8755 98.9575 L42.2268 99.3088 "/>
<path d="M42.2268 99.3088 L42.5781 100.0114 "/>
<path d="M42.5781 100.0114 L42.5781 100.7140 "/>
<path d="M42.5781 100.7140 L42.2268 101.4166 "/>
<path d="M42.2268 101.4166 L41.8755 101.7679 "/>
<path d="M41.8755 101.7679 L41.1729 102.1192 "/>
<path d="M41.1729 102.1192 L38.7138 102.1192 "/>
<path d="M45.3885 98.6062 L50.3066 98.6062 "/>
<path d="M50.3066 98.6062 L45.3885 105.9834 "/>
<path d="M45.3885 105.9834 L50.3066 105.9834 "/>
<path d="M52.0631 98.6062 L56.2787 98.6062 "/>
<path d="M54.1709 105.9834 L54.1709 98.6062 "/>
<path d="M62.2507 98.6062 L58.7378 98.6062 "/>
<path d="M58.7378 98.6062 L58.3865 102.1192 "/>
<path d="M58.3865 102.1192 L58.7378 101.7679 "/>
<path d="M58.7378 101.7679 L59.4403 101.4166 "/>
<path d="M59.4403 101.4166 L61.1968 101.4166 "/>
<path d="M61.1968 101.4166 L61.8994 101.7679 "/>
<path d="M61.8994 101.7679 L62.2507 102.1192 "/>
<path d="M62.2507 102.1192 L62.6020 102.8218 "/>
<path d="M62.6020 102.8218 L62.6020 104.5782 "/>
<path d="M62.6020 104.5782 L62.2507 105.2808 "/>
<path d="M62.2507 105.2808 L61.8994 105.6321 "/>
<path d="M61.8994 105.6321 L61.1968 105.9834 "/>
<path d="M61.1968 105.9834 L59.4403 105.9834 "/>
<path d="M59.4403 105.9834 L58.7378 105.6321 "/>
<path d="M58.7378 105.6321 L58.3865 105.2808 "/>
<path d="M65.4124 99.3088 L65.7637 98.9575 "/>
<path d="M65.7637 98.9575 L66.4663 98.6062 "/>
<path d="M66.4663 98.6062 L68.2228 98.6062 "/>
<path d="M68.2228 98.6062 L68.9254 98.9575 "/>
<path d="M68.9254 98.9575 L69.2767 99.3088 "/>
<path d="M69.2767 99.3088 L69.6280 100.0114 "/>
<path d="M69.6280 100.0114 L69.6280 100.7140 "/>
<path d="M69.6280 100.7140 L69.2767 101.7679 "/>
<path d="M69.2767 101.7679 L65.0611 105.9834 "/>
<path d="M65.0611 105.9834 L69.6280 105.9834 "/>
<path d="M72.7896 105.9834 L72.7896 98.6062 "/>
<path d="M72.7896 102.1192 L77.0052 102.1192 "/>
<path d="M77.0052 105.9834 L77.0052 98.6062 "/>
<path d="M80.5182 103.1731 L86.1389 103.1731 "/>
<path d="M93.8674 105.2808 L93.5161 105.6321 "/>
<path d="M93.5161 105.6321 L92.4622 105.9834 "/>
<path d="M92.4622 105.9834 L91.7596 105.9834 "/>
<path d="M91.7596 105.9834 L90.7058 105.6321 "/>
<path d="M90.7058 105.6321 L90.0032 104.9295 "/>
<path d="M90.0032 104.9295 L89.6519 104.2269 "/>
<path d="M89.6519 104.2269 L89.3006 102.8218 "/>
<path d="M89.3006 102.8218 L89.3006 101.7679 "/>
<path d="M89.3006 101.7679 L89.6519 100.3627 "/>
<path d="M89.6519 100.3627 L90.0032 99.6601 "/>
<path d="M90.0032 99.6601 L90.7058 98.9575 "/>
<path d="M90.7058 98.9575 L91.7596 98.6062 "/>
<path d="M91.7596 98.6062 L92.4622 98.6062 "/>
<path d="M92.4622 98.6062 L93.5161 98.9575 "/>
<path d="M93.5161 98.9575 L93.8674 99.3088 "/>
<path d="M96.3265 98.6062 L100.8934 98.6062 "/>
<path d="M100.8934 98.6062 L98.4343 101.4166 "/>
<path d="M98.4343 101.4166 L99.4882 101.4166 "/>
<path d="M99.4882 101.4166 L100.1908 101.7679 "/>
<path d="M100.1908 101.7679 L100.5421 102.1192 "/>
<path d="M100.5421 102.1192 L100.8934 102.8218 "/>
<path d="M100.8934 102.8218 L100.8934 104.5782 "/>
<path d="M100.8934 104.5782 L100.5421 105.2808 "/>
<path d="M100.5421 105.2808 L100.1908 105.6321 "/>
<path d="M100.1908 105.6321 L99.4882 105.9834 "/>
<path d="M99.4882 105.9834 L97.3804 105.9834 "/>
<path d="M97.3804 105.9834 L96.6778 105.6321 "/>
<path d="M96.6778 105.6321 L96.3265 105.2808 "/>
<path d="M103.0011 98.6062 L105.4602 105.9834 "/>
<path d="M105.4602 105.9834 L107.9193 98.6062 "/>
<path d="M113.5400 98.6062 L112.1349 98.6062 "/>
<path d="M112.1349 98.6062 L111.4323 98.9575 "/>
<path d="M111.4323 98.9575 L111.0810 99.3088 "/>
<path d="M111.0810 99.3088 L110.3784 100.3627 "/>
<path d="M110.3784 100.3627 L110.0271 101.7679 "/>
<path d="M110.0271 101.7679 L110.0271 104.5782 "/>
<path d="M110.0271 104.5782 L110.3784 105.2808 "/>
<path d="M110.3784 105.2808 L110.7297 105.6321 "/>
<path d="M110.7297 105.6321 L111.4323 105.9834 "/>
<path d="M111.4323 105.9834 L112.8375 105.9834 "/>
<path d="M112.8375 105.9834 L113.5400 105.6321 "/>
<path d="M113.5400 105.6321 L113.8913 105.2808 "/>
<path d="M113.8913 105.2808 L114.2426 104.5782 "/>
<path d="M114.2426 104.5782 L114.2426 102.8218 "/>
<path d="M114.2426 102.8218 L113.8913 102.1192 "/>
<path d="M113.8913 102.1192 L113.5400 101.7679 "/>
<path d="M113.5400 101.7679 L112.8375 101.4166 "/>
<path d="M112.8375 101.4166 L111.4323 101.4166 "/>
<path d="M111.4323 101.4166 L110.7297 101.7679 "/>
<path d="M110.7297 101.7679 L110.3784 102.1192 "/>
<path d="M110.3784 102.1192 L110.0271 102.8218 "/>
<path d="M117.7556 105.6321 L117.7556 105.9834 "/>
<path d="M117.7556 105.9834 L117.4043 106.6860 "/>
<path d="M117.4043 106.6860 L117.0530 107.0373 "/>
<path d="M124.7815 105.9834 L120.5660 105.9834 "/>
<path d="M122.6738 105.9834 L122.6738 98.6062 "/>
<path d="M122.6738 98.6062 L121.9712 99.6601 "/>
<path d="M121.9712 99.6601 L121.2686 100.3627 "/>
<path d="M121.2686 100.3627 L120.5660 100.7140 "/>
<path d="M131.8075 105.9834 L127.5919 105.9834 "/>
<path d="M129.6997 105.9834 L129.6997 98.6062 "/>
<path d="M129.6997 98.6062 L128.9971 99.6601 "/>
<path d="M128.9971 99.6601 L128.2945 100.3627 "/>
<path d="M128.2945 100.3627 L127.5919 100.7140 "/>
<path d="M138.4821 98.6062 L134.9692 98.6062 "/>
<path d="M134.9692 98.6062 L134.6179 102.1192 "/>
<path d="M134.6179 102.1192 L134.9692 101.7679 "/>
<path d="M134.9692 101.7679 L135.6717 101.4166 "/>
<path d="M135.6717 101.4166 L137.4282 101.4166 "/>
<path d="M137.4282 101.4166 L138.1308 101.7679 "/>
<path d="M138.1308 101.7679 L138.4821 102.1192 "/>
<path d="M138.4821 102.1192 L138.8334 102.8218 "/>
<path d="M138.8334 102.8218 L138.8334 104.5782 "/>
<path d="M138.8334 104.5782 L138.4821 105.2808 "/>
<path d="M138.4821 105.2808 L138.1308 105.6321 "/>
<path d="M138.1308 105.6321 L137.4282 105.9834 "/>
<path d="M137.4282 105.9834 L135.6717 105.9834 "/>
<path d="M135.6717 105.9834 L134.9692 105.6321 "/>
<path d="M134.9692 105.6321 L134.6179 105.2808 "/>
</g><text x="89.5349" y="135.8626" transform="scale(-1 1) translate(-179.069764 0)" textLength="16.2475" font-size="9.8363" lengthAdjust="spacingAndGlyphs" text-anchor="middle" opacity="0.01" style="font-family:monospace">D1</text>
<g class="stroked-text"><desc>D1</desc>
<path d="M84.0898 135.5293 L84.0898 128.1520 "/>
<path d="M84.0898 128.1520 L85.8463 128.1520 "/>
<path d="M85.8463 128.1520 L86.9002 128.5033 "/>
<path d="M86.9002 128.5033 L87.6028 129.2059 "/>
<path d="M87.6028 129.2059 L87.9541 129.9085 "/>
<path d="M87.9541 129.9085 L88.3053 131.3137 "/>
<path d="M88.3053 131.3137 L88.3053 132.3676 "/>
<path d="M88.3053 132.3676 L87.9541 133.7728 "/>
<path d="M87.9541 133.7728 L87.6028 134.4754 "/>
<path d="M87.6028 134.4754 L86.9002 135.1780 "/>
<path d="M86.9002 135.1780 L85.8463 135.5293 "/>
<path d="M85.8463 135.5293 L84.0898 135.5293 "/>
<path d="M95.3313 135.5293 L91.1157 135.5293 "/>
<path d="M93.2235 135.5293 L93.2235 128.1520 "/>
<path d="M93.2235 128.1520 L92.5209 129.2059 "/>
<path d="M92.5209 129.2059 L91.8183 129.9085 "/>
<path d="M91.8183 129.9085 L91.1157 130.2598 "/>
</g><text x="198.5187" y="133.1846" transform="scale(-1 1) translate(-397.037473 0)" textLength="45.4051" font-size="9.8363" lengthAdjust="spacingAndGlyphs" text-anchor="middle" opacity="0.01" style="font-family:monospace">Fiducial</text>
<g class="stroked-text"><desc>Fiducial</desc>
<path d="M180.9539 128.9871 L178.4948 128.9871 "/>
<path d="M178.4948 132.8513 L178.4948 125.4741 "/>
<path d="M178.4948 125.4741 L182.0078 125.4741 "/>
<path d="M184.8182 132.8513 L184.8182 127.9332 "/>
<path d="M184.8182 125.4741 L184.4669 125.8254 "/>
<path d="M184.4669 125.8254 L184.8182 126.1767 "/>
<path d="M184.8182 126.1767 L185.1695 125.8254 "/>
<path d="M185.1695 125.8254 L184.8182 125.4741 "/>
<path d="M184.8182 125.4741 L184.8182 126.1767 "/>
<path d="M191.4928 132.8513 L191.4928 125.4741 "/>
<path d="M191.4928 132.5000 L190.7902 132.8513 "/>
<path d="M190.7902 132.8513 L189.3850 132.8513 "/>
<path d="M189.3850 132.8513 L188.6824 132.5000 "/>
<path d="M188.6824 132.5000 L188.3311 132.1487 "/>
<path d="M188.3311 132.1487 L187.9798 131.4461 "/>
<path d="M187.9798 131.4461 L187.9798 129.3383 "/>
<path d="M187.9798 129.3383 L188.3311 128.6358 "/>
<path d="M188.3311 128.6358 L188.6824 128.2845 "/>
<path d="M188.6824 128.2845 L189.3850 127.9332 "/>
<path d="M189.3850 127.9332 L190.7902 127.9332 "/>
<path d="M190.7902 127.9332 L191.4928 128.2845 "/>
<path d="M198.1674 127.9332 L198.1674 132.8513 "/>
<path d="M195.0058 127.9332 L195.0058 131.7974 "/>
<path d="M195.0058 131.7974 L195.3571 132.5000 "/>
<path d="M195.3571 132.5000 L196.0597 132.8513 "/>
<path d="M196.0597 132.8513 L197.1136 132.8513 "/>
<path d="M197.1136 132.8513 L197.8161 132.5000 "/>
<path d="M197.8161 132.5000 L198.1674 132.1487 "/>
<path d="M204.8421 132.5000 L204.1395 132.8513 "/>
<path d="M204.1395 132.8513 L202.7343 132.8513 "/>
<path d="M202.7343 132.8513 L202.0317 132.5000 "/>
<path d="M202.0317 132.5000 L201.6804 132.1487 "/>
<path d="M201.6804 132.1487 L201.3291 131.4461 "/>
<path d="M201.3291 131.4461 L201.3291 129.3383 "/>
<path d="M201.3291 129.3383 L201.6804 128.6358 "/>
<path d="M201.6804 128.6358 L202.0317 128.2845 "/>
<path d="M202.0317 128.2845 L202.7343 127.9332 "/>
<path d="M202.7343 127.9332 L204.1395 127.9332 "/>
<path d="M204.1395 127.9332 L204.8421 128.2845 "/>
<path d="M208.0038 132.8513 L208.0038 127.9332 "/>
<path d="M208.0038 125.4741 L207.6525 125.8254 "/>
<path d="M207.6525 125.8254 L208.0038 126.1767 "/>
<path d="M208.0038 126.1767 L208.3551 125.8254 "/>
<path d="M208.3551 125.8254 L208.0038 125.4741 "/>
<path d="M208.0038 125.4741 L208.0038 126.1767 "/>
<path d="M214.6784 132.8513 L214.6784 128.9871 "/>
<path d="M214.6784 128.9871 L214.3271 128.2845 "/>
<path d="M214.3271 128.2845 L213.6245 127.9332 "/>
<path d="M213.6245 127.9332 L212.2193 127.9332 "/>
<path d="M212.2193 127.9332 L211.5167 128.2845 "/>
<path d="M214.6784 132.5000 L213.9758 132.8513 "/>
<path d="M213.9758 132.8513 L212.2193 132.8513 "/>
<path d="M212.2193 132.8513 L211.5167 132.5000 "/>
<path d="M211.5167 132.5000 L211.1654 131.7974 "/>
<path d="M211.1654 131.7974 L211.1654 131.0948 "/>
<path d="M211.1654 131.0948 L211.5167 130.3922 "/>
<path d="M211.5167 130.3922 L212.2193 130.0409 "/>
<path d="M212.2193 130.0409 L213.9758 130.0409 "/>
<path d="M213.9758 130.0409 L214.6784 129.6896 "/>
<path d="M219.2452 132.8513 L218.5427 132.5000 "/>
<path d="M218.5427 132.5000 L218.1914 131.7974 "/>
<path d="M218.1914 131.7974 L218.1914 125.4741 "/>
</g></g>
<g style="fill:#000084; fill-opacity:0.01;  stroke:#000084; stroke-width:0.4426; stroke-opacity:1;  stroke-linecap:round; stroke-linejoin:round;">
<text x="198.5187" y="116.2170" transform="scale(-1 1) translate(-397.037473 0)" textLength="10.4335" font-size="3.9345" lengthAdjust="spacingAndGlyphs" text-anchor="middle" opacity="0.01" style="font-family:monospace">FID2</text>
<g class="stroked-text"><desc>FID2</desc>
<path d="M195.3571 114.5380 L194.3734 114.5380 "/>
<path d="M194.3734 116.0837 L194.3734 113.1328 "/>
<path d="M194.3734 113.1328 L195.7786 113.1328 "/>
<path d="M196.9028 116.0837 L196.9028 113.1328 "/>
<path d="M198.3080 116.0837 L198.3080 113.1328 "/>
<path d="M198.3080 113.1328 L199.0106 113.1328 "/>
<path d="M199.0106 113.1328 L199.4321 113.2733 "/>
<path d="M199.4321 113.2733 L199.7132 113.5543 "/>
<path d="M199.7132 113.5543 L199.8537 113.8354 "/>
<path d="M199.8537 113.8354 L199.9942 114.3974 "/>
<path d="M199.9942 114.3974 L199.9942 114.8190 "/>
<path d="M199.9942 114.8190 L199.8537 115.3811 "/>
<path d="M199.8537 115.3811 L199.7132 115.6621 "/>
<path d="M199.7132 115.6621 L199.4321 115.9432 "/>
<path d="M199.4321 115.9432 L199.0106 116.0837 "/>
<path d="M199.0106 116.0837 L198.3080 116.0837 "/>
<path d="M201.1183 113.4138 L201.2589 113.2733 "/>
<path d="M201.2589 113.2733 L201.5399 113.1328 "/>
<path d="M201.5399 113.1328 L202.2425 113.1328 "/>
<path d="M202.2425 113.1328 L202.5235 113.2733 "/>
<path d="M202.5235 113.2733 L202.6640 113.4138 "/>
<path d="M202.6640 113.4138 L202.8046 113.6949 "/>
<path d="M202.8046 113.6949 L202.8046 113.9759 "/>
<path d="M202.8046 113.9759 L202.6640 114.3974 "/>
<path d="M202.6640 114.3974 L200.9778 116.0837 "/>
<path d="M200.9778 116.0837 L202.8046 116.0837 "/>
</g></g>
<g style="fill:#000084; fill-opacity:0.01;  stroke:#000084; stroke-width:1.1066; stroke-opacity:1;  stroke-linecap:round; stroke-linejoin:round;">
<text x="140.1427" y="121.7420" transform="scale(-1 1) translate(-280.285393 0)" textLength="21.8682" font-size="9.8363" lengthAdjust="spacingAndGlyphs" text-anchor="middle" opacity="0.01" style="font-family:monospace">5k1</text>
<g class="stroked-text"><desc>5k1</desc>
<path d="M135.4002 114.0315 L131.8872 114.0315 "/>
<path d="M131.8872 114.0315 L131.5359 117.5444 "/>
<path d="M131.5359 117.5444 L131.8872 117.1931 "/>
<path d="M131.8872 117.1931 L132.5898 116.8418 "/>
<path d="M132.5898 116.8418 L134.3463 116.8418 "/>
<path d="M134.3463 116.8418 L135.0489 117.1931 "/>
<path d="M135.0489 117.1931 L135.4002 117.5444 "/>
<path d="M135.4002 117.5444 L135.7515 118.2470 "/>
<path d="M135.7515 118.2470 L135.7515 120.0035 "/>
<path d="M135.7515 120.0035 L135.4002 120.7061 "/>
<path d="M135.4002 120.7061 L135.0489 121.0574 "/>
<path d="M135.0489 121.0574 L134.3463 121.4087 "/>
<path d="M134.3463 121.4087 L132.5898 121.4087 "/>
<path d="M132.5898 121.4087 L131.8872 121.0574 "/>
<path d="M131.8872 121.0574 L131.5359 120.7061 "/>
<path d="M138.9132 121.4087 L138.9132 114.0315 "/>
<path d="M139.6158 118.5983 L141.7235 121.4087 "/>
<path d="M141.7235 116.4905 L138.9132 119.3009 "/>
<path d="M148.7495 121.4087 L144.5339 121.4087 "/>
<path d="M146.6417 121.4087 L146.6417 114.0315 "/>
<path d="M146.6417 114.0315 L145.9391 115.0854 "/>
<path d="M145.9391 115.0854 L145.2365 115.7879 "/>
<path d="M145.2365 115.7879 L144.5339 116.1392 "/>
</g></g>
<g style="fill:#000084; fill-opacity:0.01;  stroke:#000084; stroke-width:0.5902; stroke-opacity:1;  stroke-linecap:round; stroke-linejoin:round;">
<text x="131.6367" y="89.2901" transform="scale(-1 1) translate(-263.273495 0)" textLength="8.2344" font-size="4.9182" lengthAdjust="spacingAndGlyphs" text-anchor="middle" opacity="0.01" style="font-family:monospace">R2</text>
<g class="stroked-text"><desc>R2</desc>
<path d="M131.0220 89.1215 L129.7924 87.3650 "/>
<path d="M128.9142 89.1215 L128.9142 85.4329 "/>
<path d="M128.9142 85.4329 L130.3194 85.4329 "/>
<path d="M130.3194 85.4329 L130.6707 85.6086 "/>
<path d="M130.6707 85.6086 L130.8463 85.7842 "/>
<path d="M130.8463 85.7842 L131.0220 86.1355 "/>
<path d="M131.0220 86.1355 L131.0220 86.6624 "/>
<path d="M131.0220 86.6624 L130.8463 87.0137 "/>
<path d="M130.8463 87.0137 L130.6707 87.1894 "/>
<path d="M130.6707 87.1894 L130.3194 87.3650 "/>
<path d="M130.3194 87.3650 L128.9142 87.3650 "/>
<path d="M132.4272 85.7842 L132.6028 85.6086 "/>
<path d="M132.6028 85.6086 L132.9541 85.4329 "/>
<path d="M132.9541 85.4329 L133.8324 85.4329 "/>
<path d="M133.8324 85.4329 L134.1837 85.6086 "/>
<path d="M134.1837 85.6086 L134.3593 85.7842 "/>
<path d="M134.3593 85.7842 L134.5350 86.1355 "/>
<path d="M134.5350 86.1355 L134.5350 86.4868 "/>
<path d="M134.5350 86.4868 L134.3593 87.0137 "/>
<path d="M134.3593 87.0137 L132.2515 89.1215 "/>
<path d="M132.2515 89.1215 L134.5350 89.1215 "/>
</g></g>
<g style="fill:#000084; fill-opacity:0.01;  stroke:#000084; stroke-width:1.1066; stroke-opacity:1;  stroke-linecap:round; stroke-linejoin:round;">
<text x="78.2698" y="116.9547" transform="scale(-1 1) translate(-156.539696 0)" textLength="45.4051" font-size="9.8363" lengthAdjust="spacingAndGlyphs" text-anchor="middle" opacity="0.01" style="font-family:monospace">Fiducial</text>
<g class="stroked-text"><desc>Fiducial</desc>
<path d="M60.7050 112.7571 L58.2459 112.7571 "/>
<path d="M58.2459 116.6214 L58.2459 109.2442 "/>
<path d="M58.2459 109.2442 L61.7589 109.2442 "/>
<path d="M64.5693 116.6214 L64.5693 111.7032 "/>
<path d="M64.5693 109.2442 L64.2180 109.5955 "/>
<path d="M64.2180 109.5955 L64.5693 109.9468 "/>
<path d="M64.5693 109.9468 L64.9206 109.5955 "/>
<path d="M64.9206 109.5955 L64.5693 109.2442 "/>
<path d="M64.5693 109.2442 L64.5693 109.9468 "/>
<path d="M71.2439 116.6214 L71.2439 109.2442 "/>
<path d="M71.2439 116.2701 L70.5413 116.6214 "/>
<path d="M70.5413 116.6214 L69.1361 116.6214 "/>
<path d="M69.1361 116.6214 L68.4335 116.2701 "/>
<path d="M68.4335 116.2701 L68.0822 115.9188 "/>
<path d="M68.0822 115.9188 L67.7309 115.2162 "/>
<path d="M67.7309 115.2162 L67.7309 113.1084 "/>
<path d="M67.7309 113.1084 L68.0822 112.4058 "/>
<path d="M68.0822 112.4058 L68.4335 112.0545 "/>
<path d="M68.4335 112.0545 L69.1361 111.7032 "/>
<path d="M69.1361 111.7032 L70.5413 111.7032 "/>
<path d="M70.5413 111.7032 L71.2439 112.0545 "/>
<path d="M77.9186 111.7032 L77.9186 116.6214 "/>
<path d="M74.7569 111.7032 L74.7569 115.5675 "/>
<path d="M74.7569 115.5675 L75.1082 116.2701 "/>
<path d="M75.1082 116.2701 L75.8108 116.6214 "/>
<path d="M75.8108 116.6214 L76.8647 116.6214 "/>
<path d="M76.8647 116.6214 L77.5673 116.2701 "/>
<path d="M77.5673 116.2701 L77.9186 115.9188 "/>
<path d="M84.5932 116.2701 L83.8906 116.6214 "/>
<path d="M83.8906 116.6214 L82.4854 116.6214 "/>
<path d="M82.4854 116.6214 L81.7828 116.2701 "/>
<path d="M81.7828 116.2701 L81.4315 115.9188 "/>
<path d="M81.4315 115.9188 L81.0802 115.2162 "/>
<path d="M81.0802 115.2162 L81.0802 113.1084 "/>
<path d="M81.0802 113.1084 L81.4315 112.4058 "/>
<path d="M81.4315 112.4058 L81.7828 112.0545 "/>
<path d="M81.7828 112.0545 L82.4854 111.7032 "/>
<path d="M82.4854 111.7032 L83.8906 111.7032 "/>
<path d="M83.8906 111.7032 L84.5932 112.0545 "/>
<path d="M87.7549 116.6214 L87.7549 111.7032 "/>
<path d="M87.7549 109.2442 L87.4036 109.5955 "/>
<path d="M87.4036 109.5955 L87.7549 109.9468 "/>
<path d="M87.7549 109.9468 L88.1062 109.5955 "/>
<path d="M88.1062 109.5955 L87.7549 109.2442 "/>
<path d="M87.7549 109.2442 L87.7549 109.9468 "/>
<path d="M94.4295 116.6214 L94.4295 112.7571 "/>
<path d="M94.4295 112.7571 L94.0782 112.0545 "/>
<path d="M94.0782 112.0545 L93.3756 111.7032 "/>
<path d="M93.3756 111.7032 L91.9704 111.7032 "/>
<path d="M91.9704 111.7032 L91.2678 112.0545 "/>
<path d="M94.4295 116.2701 L93.7269 116.6214 "/>
<path d="M93.7269 116.6214 L91.9704 116.6214 "/>
<path d="M91.9704 116.6214 L91.2678 116.2701 "/>
<path d="M91.2678 116.2701 L90.9165 115.5675 "/>
<path d="M90.9165 115.5675 L90.9165 114.8649 "/>
<path d="M90.9165 114.8649 L91.2678 114.1623 "/>
<path d="M91.2678 114.1623 L91.9704 113.8110 "/>
<path d="M91.9704 113.8110 L93.7269 113.8110 "/>
<path d="M93.7269 113.8110 L94.4295 113.4597 "/>
<path d="M98.9964 116.6214 L98.2938 116.2701 "/>
<path d="M98.2938 116.2701 L97.9425 115.5675 "/>
<path d="M97.9425 115.5675 L97.9425 109.2442 "/>
</g></g>
<g style="fill:#000084; fill-opacity:0.01;  stroke:#000084; stroke-width:0.4426; stroke-opacity:1;  stroke-linecap:round; stroke-linejoin:round;">
<text x="78.2698" y="99.9871" transform="scale(-1 1) translate(-156.539696 0)" textLength="10.4335" font-size="3.9345" lengthAdjust="spacingAndGlyphs" text-anchor="middle" opacity="0.01" style="font-family:monospace">FID1</text>
<g class="stroked-text"><desc>FID1</desc>
<path d="M75.1082 98.3080 L74.1246 98.3080 "/>
<path d="M74.1246 99.8538 L74.1246 96.9029 "/>
<path d="M74.1246 96.9029 L75.5297 96.9029 "/>
<path d="M76.6539 99.8538 L76.6539 96.9029 "/>
<path d="M78.0591 99.8538 L78.0591 96.9029 "/>
<path d="M78.0591 96.9029 L78.7617 96.9029 "/>
<path d="M78.7617 96.9029 L79.1832 97.0434 "/>
<path d="M79.1832 97.0434 L79.4643 97.3244 "/>
<path d="M79.4643 97.3244 L79.6048 97.6055 "/>
<path d="M79.6048 97.6055 L79.7453 98.1675 "/>
<path d="M79.7453 98.1675 L79.7453 98.5891 "/>
<path d="M79.7453 98.5891 L79.6048 99.1512 "/>
<path d="M79.6048 99.1512 L79.4643 99.4322 "/>
<path d="M79.4643 99.4322 L79.1832 99.7132 "/>
<path d="M79.1832 99.7132 L78.7617 99.8538 "/>
<path d="M78.7617 99.8538 L78.0591 99.8538 "/>
<path d="M82.5557 99.8538 L80.8695 99.8538 "/>
<path d="M81.7126 99.8538 L81.7126 96.9029 "/>
<path d="M81.7126 96.9029 L81.4315 97.3244 "/>
<path d="M81.4315 97.3244 L81.1505 97.6055 "/>
<path d="M81.1505 97.6055 L80.8695 97.7460 "/>
</g></g>
<g style="fill:#000084; fill-opacity:0.0;  stroke:#000084; stroke-width:1.1066; stroke-opacity:1;  stroke-linecap:round; stroke-linejoin:round;">
<g transform="rotate(-90.000000 146.1655 119.2564)">
<text x="146.1655" y="122.9450" transform="scale(-1 1) translate(-292.330938 0)" textLength="28.8942" font-size="9.8363" lengthAdjust="spacingAndGlyphs" text-anchor="middle" opacity="0.01" style="font-family:monospace">10uF</text>
</g>
<g class="stroked-text"><desc>10uF</desc>
<path d="M142.8102 111.3522 L142.8102 107.1367 "/>
<path d="M142.8102 109.2445 L150.1874 109.2445 "/>
<path d="M150.1874 109.2445 L149.1335 108.5419 "/>
<path d="M149.1335 108.5419 L148.4309 107.8393 "/>
<path d="M148.4309 107.8393 L148.0796 107.1367 "/>
<path d="M150.1874 115.9191 L150.1874 116.6217 "/>
<path d="M150.1874 116.6217 L149.8361 117.3243 "/>
<path d="M149.8361 117.3243 L149.4848 117.6756 "/>
<path d="M149.4848 117.6756 L148.7822 118.0269 "/>
<path d="M148.7822 118.0269 L147.3770 118.3782 "/>
<path d="M147.3770 118.3782 L145.6205 118.3782 "/>
<path d="M145.6205 118.3782 L144.2154 118.0269 "/>
<path d="M144.2154 118.0269 L143.5128 117.6756 "/>
<path d="M143.5128 117.6756 L143.1615 117.3243 "/>
<path d="M143.1615 117.3243 L142.8102 116.6217 "/>
<path d="M142.8102 116.6217 L142.8102 115.9191 "/>
<path d="M142.8102 115.9191 L143.1615 115.2165 "/>
<path d="M143.1615 115.2165 L143.5128 114.8652 "/>
<path d="M143.5128 114.8652 L144.2154 114.5139 "/>
<path d="M144.2154 114.5139 L145.6205 114.1626 "/>
<path d="M145.6205 114.1626 L147.3770 114.1626 "/>
<path d="M147.3770 114.1626 L148.7822 114.5139 "/>
<path d="M148.7822 114.5139 L149.4848 114.8652 "/>
<path d="M149.4848 114.8652 L149.8361 115.2165 "/>
<path d="M149.8361 115.2165 L150.1874 115.9191 "/>
<path d="M147.7283 124.7015 L142.8102 124.7015 "/>
<path d="M147.7283 121.5398 L143.8641 121.5398 "/>
<path d="M143.8641 121.5398 L143.1615 121.8911 "/>
<path d="M143.1615 121.8911 L142.8102 122.5937 "/>
<path d="M142.8102 122.5937 L142.8102 123.6476 "/>
<path d="M142.8102 123.6476 L143.1615 124.3502 "/>
<path d="M143.1615 124.3502 L143.5128 124.7015 "/>
<path d="M146.6744 130.6736 L146.6744 128.2145 "/>
<path d="M142.8102 128.2145 L150.1874 128.2145 "/>
<path d="M150.1874 128.2145 L150.1874 131.7274 "/>
</g></g>
<g style="fill:#000084; fill-opacity:0.0;  stroke:#000084; stroke-width:0.5902; stroke-opacity:1;  stroke-linecap:round; stroke-linejoin:round;">
<g transform="rotate(-90.000000 133.7717 119.2564)">
<text x="133.7717" y="121.1007" transform="scale(-1 1) translate(-267.543437 0)" textLength="8.2344" font-size="4.9182" lengthAdjust="spacingAndGlyphs" text-anchor="middle" opacity="0.01" style="font-family:monospace">C1</text>
</g>
<g class="stroked-text"><desc>C1</desc>
<path d="M132.4473 118.6416 L132.2716 118.4660 "/>
<path d="M132.2716 118.4660 L132.0960 117.9390 "/>
<path d="M132.0960 117.9390 L132.0960 117.5878 "/>
<path d="M132.0960 117.5878 L132.2716 117.0608 "/>
<path d="M132.2716 117.0608 L132.6229 116.7095 "/>
<path d="M132.6229 116.7095 L132.9742 116.5339 "/>
<path d="M132.9742 116.5339 L133.6768 116.3582 "/>
<path d="M133.6768 116.3582 L134.2038 116.3582 "/>
<path d="M134.2038 116.3582 L134.9064 116.5339 "/>
<path d="M134.9064 116.5339 L135.2577 116.7095 "/>
<path d="M135.2577 116.7095 L135.6090 117.0608 "/>
<path d="M135.6090 117.0608 L135.7846 117.5878 "/>
<path d="M135.7846 117.5878 L135.7846 117.9390 "/>
<path d="M135.7846 117.9390 L135.6090 118.4660 "/>
<path d="M135.6090 118.4660 L135.4333 118.6416 "/>
<path d="M132.0960 122.1546 L132.0960 120.0468 "/>
<path d="M132.0960 121.1007 L135.7846 121.1007 "/>
<path d="M135.7846 121.1007 L135.2577 120.7494 "/>
<path d="M135.2577 120.7494 L134.9064 120.3981 "/>
<path d="M134.9064 120.3981 L134.7307 120.0468 "/>
</g></g>
<g style="fill:#000084; fill-opacity:0.01;  stroke:#000084; stroke-width:1.1066; stroke-opacity:1;  stroke-linecap:round; stroke-linejoin:round;">
<text x="158.6817" y="173.9512" transform="scale(-1 1) translate(-317.363363 0)" textLength="150.7942" font-size="9.8363" lengthAdjust="spacingAndGlyphs" text-anchor="middle" opacity="0.01" style="font-family:monospace">SolderJumper_3_Bridged12</text>
<g class="stroked-text"><desc>SolderJumper_3_Bridged12</desc>
<path d="M85.6120 173.2666 L86.6658 173.6179 "/>
<path d="M86.6658 173.6179 L88.4223 173.6179 "/>
<path d="M88.4223 173.6179 L89.1249 173.2666 "/>
<path d="M89.1249 173.2666 L89.4762 172.9153 "/>
<path d="M89.4762 172.9153 L89.8275 172.2127 "/>
<path d="M89.8275 172.2127 L89.8275 171.5101 "/>
<path d="M89.8275 171.5101 L89.4762 170.8075 "/>
<path d="M89.4762 170.8075 L89.1249 170.4562 "/>
<path d="M89.1249 170.4562 L88.4223 170.1049 "/>
<path d="M88.4223 170.1049 L87.0171 169.7536 "/>
<path d="M87.0171 169.7536 L86.3145 169.4023 "/>
<path d="M86.3145 169.4023 L85.9632 169.0510 "/>
<path d="M85.9632 169.0510 L85.6120 168.3485 "/>
<path d="M85.6120 168.3485 L85.6120 167.6459 "/>
<path d="M85.6120 167.6459 L85.9632 166.9433 "/>
<path d="M85.9632 166.9433 L86.3145 166.5920 "/>
<path d="M86.3145 166.5920 L87.0171 166.2407 "/>
<path d="M87.0171 166.2407 L88.7736 166.2407 "/>
<path d="M88.7736 166.2407 L89.8275 166.5920 "/>
<path d="M94.0431 173.6179 L93.3405 173.2666 "/>
<path d="M93.3405 173.2666 L92.9892 172.9153 "/>
<path d="M92.9892 172.9153 L92.6379 172.2127 "/>
<path d="M92.6379 172.2127 L92.6379 170.1049 "/>
<path d="M92.6379 170.1049 L92.9892 169.4023 "/>
<path d="M92.9892 169.4023 L93.3405 169.0510 "/>
<path d="M93.3405 169.0510 L94.0431 168.6997 "/>
<path d="M94.0431 168.6997 L95.0970 168.6997 "/>
<path d="M95.0970 168.6997 L95.7996 169.0510 "/>
<path d="M95.7996 169.0510 L96.1509 169.4023 "/>
<path d="M96.1509 169.4023 L96.5021 170.1049 "/>
<path d="M96.5021 170.1049 L96.5021 172.2127 "/>
<path d="M96.5021 172.2127 L96.1509 172.9153 "/>
<path d="M96.1509 172.9153 L95.7996 173.2666 "/>
<path d="M95.7996 173.2666 L95.0970 173.6179 "/>
<path d="M95.0970 173.6179 L94.0431 173.6179 "/>
<path d="M100.7177 173.6179 L100.0151 173.2666 "/>
<path d="M100.0151 173.2666 L99.6638 172.5640 "/>
<path d="M99.6638 172.5640 L99.6638 166.2407 "/>
<path d="M106.6898 173.6179 L106.6898 166.2407 "/>
<path d="M106.6898 173.2666 L105.9872 173.6179 "/>
<path d="M105.9872 173.6179 L104.5820 173.6179 "/>
<path d="M104.5820 173.6179 L103.8794 173.2666 "/>
<path d="M103.8794 173.2666 L103.5281 172.9153 "/>
<path d="M103.5281 172.9153 L103.1768 172.2127 "/>
<path d="M103.1768 172.2127 L103.1768 170.1049 "/>
<path d="M103.1768 170.1049 L103.5281 169.4023 "/>
<path d="M103.5281 169.4023 L103.8794 169.0510 "/>
<path d="M103.8794 169.0510 L104.5820 168.6997 "/>
<path d="M104.5820 168.6997 L105.9872 168.6997 "/>
<path d="M105.9872 168.6997 L106.6898 169.0510 "/>
<path d="M113.0131 173.2666 L112.3105 173.6179 "/>
<path d="M112.3105 173.6179 L110.9053 173.6179 "/>
<path d="M110.9053 173.6179 L110.2027 173.2666 "/>
<path d="M110.2027 173.2666 L109.8514 172.5640 "/>
<path d="M109.8514 172.5640 L109.8514 169.7536 "/>
<path d="M109.8514 169.7536 L110.2027 169.0510 "/>
<path d="M110.2027 169.0510 L110.9053 168.6997 "/>
<path d="M110.9053 168.6997 L112.3105 168.6997 "/>
<path d="M112.3105 168.6997 L113.0131 169.0510 "/>
<path d="M113.0131 169.0510 L113.3644 169.7536 "/>
<path d="M113.3644 169.7536 L113.3644 170.4562 "/>
<path d="M113.3644 170.4562 L109.8514 171.1588 "/>
<path d="M116.5261 173.6179 L116.5261 168.6997 "/>
<path d="M116.5261 170.1049 L116.8774 169.4023 "/>
<path d="M116.8774 169.4023 L117.2287 169.0510 "/>
<path d="M117.2287 169.0510 L117.9313 168.6997 "/>
<path d="M117.9313 168.6997 L118.6339 168.6997 "/>
<path d="M123.2007 166.2407 L123.2007 171.5101 "/>
<path d="M123.2007 171.5101 L122.8494 172.5640 "/>
<path d="M122.8494 172.5640 L122.1468 173.2666 "/>
<path d="M122.1468 173.2666 L121.0929 173.6179 "/>
<path d="M121.0929 173.6179 L120.3903 173.6179 "/>
<path d="M129.8754 168.6997 L129.8754 173.6179 "/>
<path d="M126.7137 168.6997 L126.7137 172.5640 "/>
<path d="M126.7137 172.5640 L127.0650 173.2666 "/>
<path d="M127.0650 173.2666 L127.7676 173.6179 "/>
<path d="M127.7676 173.6179 L128.8215 173.6179 "/>
<path d="M128.8215 173.6179 L129.5241 173.2666 "/>
<path d="M129.5241 173.2666 L129.8754 172.9153 "/>
<path d="M133.3883 173.6179 L133.3883 168.6997 "/>
<path d="M133.3883 169.4023 L133.7396 169.0510 "/>
<path d="M133.7396 169.0510 L134.4422 168.6997 "/>
<path d="M134.4422 168.6997 L135.4961 168.6997 "/>
<path d="M135.4961 168.6997 L136.1987 169.0510 "/>
<path d="M136.1987 169.0510 L136.5500 169.7536 "/>
<path d="M136.5500 169.7536 L136.5500 173.6179 "/>
<path d="M136.5500 169.7536 L136.9013 169.0510 "/>
<path d="M136.9013 169.0510 L137.6039 168.6997 "/>
<path d="M137.6039 168.6997 L138.6578 168.6997 "/>
<path d="M138.6578 168.6997 L139.3604 169.0510 "/>
<path d="M139.3604 169.0510 L139.7117 169.7536 "/>
<path d="M139.7117 169.7536 L139.7117 173.6179 "/>
<path d="M143.2246 168.6997 L143.2246 176.0770 "/>
<path d="M143.2246 169.0510 L143.9272 168.6997 "/>
<path d="M143.9272 168.6997 L145.3324 168.6997 "/>
<path d="M145.3324 168.6997 L146.0350 169.0510 "/>
<path d="M146.0350 169.0510 L146.3863 169.4023 "/>
<path d="M146.3863 169.4023 L146.7376 170.1049 "/>
<path d="M146.7376 170.1049 L146.7376 172.2127 "/>
<path d="M146.7376 172.2127 L146.3863 172.9153 "/>
<path d="M146.3863 172.9153 L146.0350 173.2666 "/>
<path d="M146.0350 173.2666 L145.3324 173.6179 "/>
<path d="M145.3324 173.6179 L143.9272 173.6179 "/>
<path d="M143.9272 173.6179 L143.2246 173.2666 "/>
<path d="M152.7096 173.2666 L152.0070 173.6179 "/>
<path d="M152.0070 173.6179 L150.6019 173.6179 "/>
<path d="M150.6019 173.6179 L149.8993 173.2666 "/>
<path d="M149.8993 173.2666 L149.5480 172.5640 "/>
<path d="M149.5480 172.5640 L149.5480 169.7536 "/>
<path d="M149.5480 169.7536 L149.8993 169.0510 "/>
<path d="M149.8993 169.0510 L150.6019 168.6997 "/>
<path d="M150.6019 168.6997 L152.0070 168.6997 "/>
<path d="M152.0070 168.6997 L152.7096 169.0510 "/>
<path d="M152.7096 169.0510 L153.0609 169.7536 "/>
<path d="M153.0609 169.7536 L153.0609 170.4562 "/>
<path d="M153.0609 170.4562 L149.5480 171.1588 "/>
<path d="M156.2226 173.6179 L156.2226 168.6997 "/>
<path d="M156.2226 170.1049 L156.5739 169.4023 "/>
<path d="M156.5739 169.4023 L156.9252 169.0510 "/>
<path d="M156.9252 169.0510 L157.6278 168.6997 "/>
<path d="M157.6278 168.6997 L158.3304 168.6997 "/>
<path d="M159.0330 174.3205 L164.6537 174.3205 "/>
<path d="M165.7076 166.2407 L170.2745 166.2407 "/>
<path d="M170.2745 166.2407 L167.8154 169.0510 "/>
<path d="M167.8154 169.0510 L168.8693 169.0510 "/>
<path d="M168.8693 169.0510 L169.5719 169.4023 "/>
<path d="M169.5719 169.4023 L169.9232 169.7536 "/>
<path d="M169.9232 169.7536 L170.2745 170.4562 "/>
<path d="M170.2745 170.4562 L170.2745 172.2127 "/>
<path d="M170.2745 172.2127 L169.9232 172.9153 "/>
<path d="M169.9232 172.9153 L169.5719 173.2666 "/>
<path d="M169.5719 173.2666 L168.8693 173.6179 "/>
<path d="M168.8693 173.6179 L166.7615 173.6179 "/>
<path d="M166.7615 173.6179 L166.0589 173.2666 "/>
<path d="M166.0589 173.2666 L165.7076 172.9153 "/>
<path d="M171.6797 174.3205 L177.3004 174.3205 "/>
<path d="M181.5160 169.7536 L182.5699 170.1049 "/>
<path d="M182.5699 170.1049 L182.9212 170.4562 "/>
<path d="M182.9212 170.4562 L183.2725 171.1588 "/>
<path d="M183.2725 171.1588 L183.2725 172.2127 "/>
<path d="M183.2725 172.2127 L182.9212 172.9153 "/>
<path d="M182.9212 172.9153 L182.5699 173.2666 "/>
<path d="M182.5699 173.2666 L181.8673 173.6179 "/>
<path d="M181.8673 173.6179 L179.0569 173.6179 "/>
<path d="M179.0569 173.6179 L179.0569 166.2407 "/>
<path d="M179.0569 166.2407 L181.5160 166.2407 "/>
<path d="M181.5160 166.2407 L182.2186 166.5920 "/>
<path d="M182.2186 166.5920 L182.5699 166.9433 "/>
<path d="M182.5699 166.9433 L182.9212 167.6459 "/>
<path d="M182.9212 167.6459 L182.9212 168.3485 "/>
<path d="M182.9212 168.3485 L182.5699 169.0510 "/>
<path d="M182.5699 169.0510 L182.2186 169.4023 "/>
<path d="M182.2186 169.4023 L181.5160 169.7536 "/>
<path d="M181.5160 169.7536 L179.0569 169.7536 "/>
<path d="M186.4341 173.6179 L186.4341 168.6997 "/>
<path d="M186.4341 170.1049 L186.7854 169.4023 "/>
<path d="M186.7854 169.4023 L187.1367 169.0510 "/>
<path d="M187.1367 169.0510 L187.8393 168.6997 "/>
<path d="M187.8393 168.6997 L188.5419 168.6997 "/>
<path d="M191.0010 173.6179 L191.0010 168.6997 "/>
<path d="M191.0010 166.2407 L190.6497 166.5920 "/>
<path d="M190.6497 166.5920 L191.0010 166.9433 "/>
<path d="M191.0010 166.9433 L191.3523 166.5920 "/>
<path d="M191.3523 166.5920 L191.0010 166.2407 "/>
<path d="M191.0010 166.2407 L191.0010 166.9433 "/>
<path d="M197.6756 173.6179 L197.6756 166.2407 "/>
<path d="M197.6756 173.2666 L196.9730 173.6179 "/>
<path d="M196.9730 173.6179 L195.5679 173.6179 "/>
<path d="M195.5679 173.6179 L194.8653 173.2666 "/>
<path d="M194.8653 173.2666 L194.5140 172.9153 "/>
<path d="M194.5140 172.9153 L194.1627 172.2127 "/>
<path d="M194.1627 172.2127 L194.1627 170.1049 "/>
<path d="M194.1627 170.1049 L194.5140 169.4023 "/>
<path d="M194.5140 169.4023 L194.8653 169.0510 "/>
<path d="M194.8653 169.0510 L195.5679 168.6997 "/>
<path d="M195.5679 168.6997 L196.9730 168.6997 "/>
<path d="M196.9730 168.6997 L197.6756 169.0510 "/>
<path d="M204.3503 168.6997 L204.3503 174.6718 "/>
<path d="M204.3503 174.6718 L203.9990 175.3744 "/>
<path d="M203.9990 175.3744 L203.6477 175.7257 "/>
<path d="M203.6477 175.7257 L202.9451 176.0770 "/>
<path d="M202.9451 176.0770 L201.8912 176.0770 "/>
<path d="M201.8912 176.0770 L201.1886 175.7257 "/>
<path d="M204.3503 173.2666 L203.6477 173.6179 "/>
<path d="M203.6477 173.6179 L202.2425 173.6179 "/>
<path d="M202.2425 173.6179 L201.5399 173.2666 "/>
<path d="M201.5399 173.2666 L201.1886 172.9153 "/>
<path d="M201.1886 172.9153 L200.8373 172.2127 "/>
<path d="M200.8373 172.2127 L200.8373 170.1049 "/>
<path d="M200.8373 170.1049 L201.1886 169.4023 "/>
<path d="M201.1886 169.4023 L201.5399 169.0510 "/>
<path d="M201.5399 169.0510 L202.2425 168.6997 "/>
<path d="M202.2425 168.6997 L203.6477 168.6997 "/>
<path d="M203.6477 168.6997 L204.3503 169.0510 "/>
<path d="M210.6736 173.2666 L209.9710 173.6179 "/>
<path d="M209.9710 173.6179 L208.5658 173.6179 "/>
<path d="M208.5658 173.6179 L207.8632 173.2666 "/>
<path d="M207.8632 173.2666 L207.5120 172.5640 "/>
<path d="M207.5120 172.5640 L207.5120 169.7536 "/>
<path d="M207.5120 169.7536 L207.8632 169.0510 "/>
<path d="M207.8632 169.0510 L208.5658 168.6997 "/>
<path d="M208.5658 168.6997 L209.9710 168.6997 "/>
<path d="M209.9710 168.6997 L210.6736 169.0510 "/>
<path d="M210.6736 169.0510 L211.0249 169.7536 "/>
<path d="M211.0249 169.7536 L211.0249 170.4562 "/>
<path d="M211.0249 170.4562 L207.5120 171.1588 "/>
<path d="M217.3483 173.6179 L217.3483 166.2407 "/>
<path d="M217.3483 173.2666 L216.6457 173.6179 "/>
<path d="M216.6457 173.6179 L215.2405 173.6179 "/>
<path d="M215.2405 173.6179 L214.5379 173.2666 "/>
<path d="M214.5379 173.2666 L214.1866 172.9153 "/>
<path d="M214.1866 172.9153 L213.8353 172.2127 "/>
<path d="M213.8353 172.2127 L213.8353 170.1049 "/>
<path d="M213.8353 170.1049 L214.1866 169.4023 "/>
<path d="M214.1866 169.4023 L214.5379 169.0510 "/>
<path d="M214.5379 169.0510 L215.2405 168.6997 "/>
<path d="M215.2405 168.6997 L216.6457 168.6997 "/>
<path d="M216.6457 168.6997 L217.3483 169.0510 "/>
<path d="M224.7255 173.6179 L220.5099 173.6179 "/>
<path d="M222.6177 173.6179 L222.6177 166.2407 "/>
<path d="M222.6177 166.2407 L221.9151 167.2946 "/>
<path d="M221.9151 167.2946 L221.2125 167.9972 "/>
<path d="M221.2125 167.9972 L220.5099 168.3485 "/>
<path d="M227.5359 166.9433 L227.8872 166.5920 "/>
<path d="M227.8872 166.5920 L228.5898 166.2407 "/>
<path d="M228.5898 166.2407 L230.3462 166.2407 "/>
<path d="M230.3462 166.2407 L231.0488 166.5920 "/>
<path d="M231.0488 166.5920 L231.4001 166.9433 "/>
<path d="M231.4001 166.9433 L231.7514 167.6459 "/>
<path d="M231.7514 167.6459 L231.7514 168.3485 "/>
<path d="M231.7514 168.3485 L231.4001 169.4023 "/>
<path d="M231.4001 169.4023 L227.1846 173.6179 "/>
<path d="M227.1846 173.6179 L231.7514 173.6179 "/>
</g></g>
<g style="fill:#000084; fill-opacity:0.0;  stroke:#000084; stroke-width:0.7377; stroke-opacity:1;  stroke-linecap:round; stroke-linejoin:round;">
<path d="M110.6375 82.8350 L110.6375 92.0566 "/>
<path d="M110.6375 92.0566 L95.8830 92.0566 "/>
<path d="M95.8830 82.8350 L110.6375 82.8350 "/>
<path d="M95.8830 92.0566 L95.8830 82.8350 "/>
<path d="M119.3832 126.6336 L110.1616 126.6336 "/>
<path d="M110.1616 126.6336 L110.1616 111.8792 "/>
<path d="M119.3832 111.8792 L119.3832 126.6336 "/>
<path d="M110.1616 111.8792 L119.3832 111.8792 "/>
<path d="M182.6842 126.7104 L151.3310 126.7104 "/>
<path d="M151.3310 126.7104 L145.7981 121.1774 "/>
<path d="M145.7981 121.1774 L145.7981 104.5787 "/>
<path d="M182.6842 104.5787 L182.6842 126.7104 "/>
<path d="M145.7981 104.5787 L182.6842 104.5787 "/>
<path d="M98.9261 111.4808 L98.9261 124.7598 "/>
<path d="M98.9261 124.7598 L78.2698 124.7598 "/>
<path d="M94.1309 118.1203 L91.1800 118.1203 "/>
<path d="M91.1800 118.1203 L91.1800 114.0628 "/>
<path d="M91.1800 118.1203 L91.1800 122.1778 "/>
<path d="M91.1800 118.1203 L86.7537 121.0712 "/>
<path d="M86.7537 115.1694 L91.1800 118.1203 "/>
<path d="M86.7537 118.1203 L83.0650 118.1203 "/>
<path d="M86.7537 121.0712 L86.7537 115.1694 "/>
<path d="M78.2698 111.4808 L98.9261 111.4808 "/>
<path d="M78.2698 124.7598 L78.2698 111.4808 "/>
<circle cx="198.5187" cy="114.7415" r="7.3772"/> 
<path d="M124.2595 92.0566 L124.2595 82.8350 "/>
<path d="M124.2595 82.8350 L139.0140 82.8350 "/>
<path d="M139.0140 92.0566 L124.2595 92.0566 "/>
<path d="M139.0140 82.8350 L139.0140 92.0566 "/>
<circle cx="78.2698" cy="98.5116" r="7.3772"/> 
<path d="M138.3825 126.6336 L129.1609 126.6336 "/>
<path d="M129.1609 126.6336 L129.1609 111.8792 "/>
<path d="M138.3825 111.8792 L138.3825 126.6336 "/>
<path d="M129.1609 111.8792 L138.3825 111.8792 "/>
<g>
</g>
<g>
</g>
<g>
</g>
<g>
</g>
<g>
</g>
<g>
</g>
<g>
</g>
<g>
</g>
<g>
</g>
<g>
</g>
<g>
</g>
<g>
</g>
<g>
</g>
<g>
</g>
<g>
</g>
<g>
</g>
<g>
</g>
<g>
</g>
<g>
</g>
<g>
</g>
</g> 
<svg:g><svg:g><svg:title>SVG Image created as ALTIMET02-Edge_Cuts.svg date 2023/09/22 07:24:08 </svg:title>
  <svg:desc>Image generated by PCBNEW </svg:desc>
<svg:g style="fill:#C2C200; fill-opacity:1.0000;stroke:#C2C200; stroke-opacity:1.0000; stroke-linecap:round; stroke-linejoin:round;" transform="translate(0 0) scale(1 1)">
</svg:g>
<svg:g style="fill:#C2C200; fill-opacity:0.0;  stroke:#C2C200; stroke-width:0.0000; stroke-opacity:1;  stroke-linecap:round; stroke-linejoin:round;">
</svg:g>
<svg:g style="fill:#C2C200; fill-opacity:0.0;  stroke:#C2C200; stroke-width:0.9369; stroke-opacity:1;  stroke-linecap:round; stroke-linejoin:round;">
<svg:path d="M296.5326 178.0825 L296.5326 31.9247 "/>
<svg:path d="M296.5326 31.9247 L0.4696 31.9247 "/>
<svg:path d="M0.4696 178.0825 L296.5326 178.0825 "/>
<svg:path d="M0.4696 31.9247 L0.4696 178.0825 "/>
<svg:g>
</svg:g>
<svg:g>
</svg:g>
<svg:g>
</svg:g>
<svg:g>
</svg:g>
<svg:g>
</svg:g>
<svg:g>
</svg:g>
<svg:g>
</svg:g>
<svg:g>
</svg:g>
<svg:g>
</svg:g>
<svg:g>
</svg:g>
<svg:g>
</svg:g>
<svg:g>
</svg:g>
<svg:g>
</svg:g>
<svg:g>
</svg:g>
<svg:g>
</svg:g>
<svg:g>
</svg:g>
<svg:g>
</svg:g>
<svg:g>
</svg:g>
<svg:g>
</svg:g>
<svg:g>
</svg:g>
</svg:g> 
</svg:g></svg:g></svg>
