<?xml version='1.0' encoding='ASCII' standalone='yes'?>
<svg xmlns:svg="http://www.w3.org/2000/svg" xmlns="http://www.w3.org/2000/svg" xmlns:xlink="http://www.w3.org/1999/xlink" version="1.1" width="297.0022mm" height="210.0072mm" viewBox="0.0000 0.0000 297.0022 210.0072">
<title>SVG Image created as ALTIMET02-F_Fab.svg date 2023/07/05 13:23:35 </title>
  <desc>Image generated by PCBNEW </desc>
<g style="fill:#848484; fill-opacity:1.0000;stroke:#848484; stroke-opacity:1.0000; stroke-linecap:round; stroke-linejoin:round;" transform="translate(0 0) scale(1 1)">
</g>
<g style="fill:#848484; fill-opacity:0.0;  stroke:#848484; stroke-width:0.0000; stroke-opacity:1;  stroke-linecap:round; stroke-linejoin:round;">
</g>
<g style="fill:#848484; fill-opacity:0.01;  stroke:#848484; stroke-width:1.1066; stroke-opacity:1;  stroke-linecap:round; stroke-linejoin:round;">
<text x="148.5011" y="173.3020" textLength="150.2409" font-size="9.8363" lengthAdjust="spacingAndGlyphs" text-anchor="middle" opacity="0.01" style="font-family:monospace">SolderJumper_3_Bridged12</text>
<g class="stroked-text"><desc>SolderJumper_3_Bridged12</desc>
<path d="M221.5708 172.6174 L220.5170 172.9687 "/>
<path d="M220.5170 172.9687 L218.7605 172.9687 "/>
<path d="M218.7605 172.9687 L218.0579 172.6174 "/>
<path d="M218.0579 172.6174 L217.7066 172.2661 "/>
<path d="M217.7066 172.2661 L217.3553 171.5635 "/>
<path d="M217.3553 171.5635 L217.3553 170.8609 "/>
<path d="M217.3553 170.8609 L217.7066 170.1583 "/>
<path d="M217.7066 170.1583 L218.0579 169.8070 "/>
<path d="M218.0579 169.8070 L218.7605 169.4557 "/>
<path d="M218.7605 169.4557 L220.1657 169.1044 "/>
<path d="M220.1657 169.1044 L220.8682 168.7531 "/>
<path d="M220.8682 168.7531 L221.2195 168.4018 "/>
<path d="M221.2195 168.4018 L221.5708 167.6993 "/>
<path d="M221.5708 167.6993 L221.5708 166.9967 "/>
<path d="M221.5708 166.9967 L221.2195 166.2941 "/>
<path d="M221.2195 166.2941 L220.8682 165.9428 "/>
<path d="M220.8682 165.9428 L220.1657 165.5915 "/>
<path d="M220.1657 165.5915 L218.4092 165.5915 "/>
<path d="M218.4092 165.5915 L217.3553 165.9428 "/>
<path d="M213.1397 172.9687 L213.8423 172.6174 "/>
<path d="M213.8423 172.6174 L214.1936 172.2661 "/>
<path d="M214.1936 172.2661 L214.5449 171.5635 "/>
<path d="M214.5449 171.5635 L214.5449 169.4557 "/>
<path d="M214.5449 169.4557 L214.1936 168.7531 "/>
<path d="M214.1936 168.7531 L213.8423 168.4018 "/>
<path d="M213.8423 168.4018 L213.1397 168.0506 "/>
<path d="M213.1397 168.0506 L212.0858 168.0506 "/>
<path d="M212.0858 168.0506 L211.3832 168.4018 "/>
<path d="M211.3832 168.4018 L211.0319 168.7531 "/>
<path d="M211.0319 168.7531 L210.6806 169.4557 "/>
<path d="M210.6806 169.4557 L210.6806 171.5635 "/>
<path d="M210.6806 171.5635 L211.0319 172.2661 "/>
<path d="M211.0319 172.2661 L211.3832 172.6174 "/>
<path d="M211.3832 172.6174 L212.0858 172.9687 "/>
<path d="M212.0858 172.9687 L213.1397 172.9687 "/>
<path d="M206.4651 172.9687 L207.1677 172.6174 "/>
<path d="M207.1677 172.6174 L207.5190 171.9148 "/>
<path d="M207.5190 171.9148 L207.5190 165.5915 "/>
<path d="M200.4930 172.9687 L200.4930 165.5915 "/>
<path d="M200.4930 172.6174 L201.1956 172.9687 "/>
<path d="M201.1956 172.9687 L202.6008 172.9687 "/>
<path d="M202.6008 172.9687 L203.3034 172.6174 "/>
<path d="M203.3034 172.6174 L203.6547 172.2661 "/>
<path d="M203.6547 172.2661 L204.0060 171.5635 "/>
<path d="M204.0060 171.5635 L204.0060 169.4557 "/>
<path d="M204.0060 169.4557 L203.6547 168.7531 "/>
<path d="M203.6547 168.7531 L203.3034 168.4018 "/>
<path d="M203.3034 168.4018 L202.6008 168.0506 "/>
<path d="M202.6008 168.0506 L201.1956 168.0506 "/>
<path d="M201.1956 168.0506 L200.4930 168.4018 "/>
<path d="M194.1697 172.6174 L194.8723 172.9687 "/>
<path d="M194.8723 172.9687 L196.2775 172.9687 "/>
<path d="M196.2775 172.9687 L196.9801 172.6174 "/>
<path d="M196.9801 172.6174 L197.3314 171.9148 "/>
<path d="M197.3314 171.9148 L197.3314 169.1044 "/>
<path d="M197.3314 169.1044 L196.9801 168.4018 "/>
<path d="M196.9801 168.4018 L196.2775 168.0506 "/>
<path d="M196.2775 168.0506 L194.8723 168.0506 "/>
<path d="M194.8723 168.0506 L194.1697 168.4018 "/>
<path d="M194.1697 168.4018 L193.8184 169.1044 "/>
<path d="M193.8184 169.1044 L193.8184 169.8070 "/>
<path d="M193.8184 169.8070 L197.3314 170.5096 "/>
<path d="M190.6567 172.9687 L190.6567 168.0506 "/>
<path d="M190.6567 169.4557 L190.3054 168.7531 "/>
<path d="M190.3054 168.7531 L189.9541 168.4018 "/>
<path d="M189.9541 168.4018 L189.2515 168.0506 "/>
<path d="M189.2515 168.0506 L188.5489 168.0506 "/>
<path d="M183.9821 165.5915 L183.9821 170.8609 "/>
<path d="M183.9821 170.8609 L184.3334 171.9148 "/>
<path d="M184.3334 171.9148 L185.0360 172.6174 "/>
<path d="M185.0360 172.6174 L186.0899 172.9687 "/>
<path d="M186.0899 172.9687 L186.7924 172.9687 "/>
<path d="M177.3074 168.0506 L177.3074 172.9687 "/>
<path d="M180.4691 168.0506 L180.4691 171.9148 "/>
<path d="M180.4691 171.9148 L180.1178 172.6174 "/>
<path d="M180.1178 172.6174 L179.4152 172.9687 "/>
<path d="M179.4152 172.9687 L178.3613 172.9687 "/>
<path d="M178.3613 172.9687 L177.6587 172.6174 "/>
<path d="M177.6587 172.6174 L177.3074 172.2661 "/>
<path d="M173.7945 172.9687 L173.7945 168.0506 "/>
<path d="M173.7945 168.7531 L173.4432 168.4018 "/>
<path d="M173.4432 168.4018 L172.7406 168.0506 "/>
<path d="M172.7406 168.0506 L171.6867 168.0506 "/>
<path d="M171.6867 168.0506 L170.9841 168.4018 "/>
<path d="M170.9841 168.4018 L170.6328 169.1044 "/>
<path d="M170.6328 169.1044 L170.6328 172.9687 "/>
<path d="M170.6328 169.1044 L170.2815 168.4018 "/>
<path d="M170.2815 168.4018 L169.5789 168.0506 "/>
<path d="M169.5789 168.0506 L168.5250 168.0506 "/>
<path d="M168.5250 168.0506 L167.8224 168.4018 "/>
<path d="M167.8224 168.4018 L167.4711 169.1044 "/>
<path d="M167.4711 169.1044 L167.4711 172.9687 "/>
<path d="M163.9582 168.0506 L163.9582 175.4278 "/>
<path d="M163.9582 168.4018 L163.2556 168.0506 "/>
<path d="M163.2556 168.0506 L161.8504 168.0506 "/>
<path d="M161.8504 168.0506 L161.1478 168.4018 "/>
<path d="M161.1478 168.4018 L160.7965 168.7531 "/>
<path d="M160.7965 168.7531 L160.4452 169.4557 "/>
<path d="M160.4452 169.4557 L160.4452 171.5635 "/>
<path d="M160.4452 171.5635 L160.7965 172.2661 "/>
<path d="M160.7965 172.2661 L161.1478 172.6174 "/>
<path d="M161.1478 172.6174 L161.8504 172.9687 "/>
<path d="M161.8504 172.9687 L163.2556 172.9687 "/>
<path d="M163.2556 172.9687 L163.9582 172.6174 "/>
<path d="M154.4731 172.6174 L155.1757 172.9687 "/>
<path d="M155.1757 172.9687 L156.5809 172.9687 "/>
<path d="M156.5809 172.9687 L157.2835 172.6174 "/>
<path d="M157.2835 172.6174 L157.6348 171.9148 "/>
<path d="M157.6348 171.9148 L157.6348 169.1044 "/>
<path d="M157.6348 169.1044 L157.2835 168.4018 "/>
<path d="M157.2835 168.4018 L156.5809 168.0506 "/>
<path d="M156.5809 168.0506 L155.1757 168.0506 "/>
<path d="M155.1757 168.0506 L154.4731 168.4018 "/>
<path d="M154.4731 168.4018 L154.1219 169.1044 "/>
<path d="M154.1219 169.1044 L154.1219 169.8070 "/>
<path d="M154.1219 169.8070 L157.6348 170.5096 "/>
<path d="M150.9602 172.9687 L150.9602 168.0506 "/>
<path d="M150.9602 169.4557 L150.6089 168.7531 "/>
<path d="M150.6089 168.7531 L150.2576 168.4018 "/>
<path d="M150.2576 168.4018 L149.5550 168.0506 "/>
<path d="M149.5550 168.0506 L148.8524 168.0506 "/>
<path d="M148.1498 173.6713 L142.5291 173.6713 "/>
<path d="M141.4752 165.5915 L136.9083 165.5915 "/>
<path d="M136.9083 165.5915 L139.3674 168.4018 "/>
<path d="M139.3674 168.4018 L138.3135 168.4018 "/>
<path d="M138.3135 168.4018 L137.6109 168.7531 "/>
<path d="M137.6109 168.7531 L137.2596 169.1044 "/>
<path d="M137.2596 169.1044 L136.9083 169.8070 "/>
<path d="M136.9083 169.8070 L136.9083 171.5635 "/>
<path d="M136.9083 171.5635 L137.2596 172.2661 "/>
<path d="M137.2596 172.2661 L137.6109 172.6174 "/>
<path d="M137.6109 172.6174 L138.3135 172.9687 "/>
<path d="M138.3135 172.9687 L140.4213 172.9687 "/>
<path d="M140.4213 172.9687 L141.1239 172.6174 "/>
<path d="M141.1239 172.6174 L141.4752 172.2661 "/>
<path d="M135.5031 173.6713 L129.8824 173.6713 "/>
<path d="M125.6668 169.1044 L124.6129 169.4557 "/>
<path d="M124.6129 169.4557 L124.2616 169.8070 "/>
<path d="M124.2616 169.8070 L123.9103 170.5096 "/>
<path d="M123.9103 170.5096 L123.9103 171.5635 "/>
<path d="M123.9103 171.5635 L124.2616 172.2661 "/>
<path d="M124.2616 172.2661 L124.6129 172.6174 "/>
<path d="M124.6129 172.6174 L125.3155 172.9687 "/>
<path d="M125.3155 172.9687 L128.1259 172.9687 "/>
<path d="M128.1259 172.9687 L128.1259 165.5915 "/>
<path d="M128.1259 165.5915 L125.6668 165.5915 "/>
<path d="M125.6668 165.5915 L124.9642 165.9428 "/>
<path d="M124.9642 165.9428 L124.6129 166.2941 "/>
<path d="M124.6129 166.2941 L124.2616 166.9967 "/>
<path d="M124.2616 166.9967 L124.2616 167.6993 "/>
<path d="M124.2616 167.6993 L124.6129 168.4018 "/>
<path d="M124.6129 168.4018 L124.9642 168.7531 "/>
<path d="M124.9642 168.7531 L125.6668 169.1044 "/>
<path d="M125.6668 169.1044 L128.1259 169.1044 "/>
<path d="M120.7486 172.9687 L120.7486 168.0506 "/>
<path d="M120.7486 169.4557 L120.3973 168.7531 "/>
<path d="M120.3973 168.7531 L120.0461 168.4018 "/>
<path d="M120.0461 168.4018 L119.3435 168.0506 "/>
<path d="M119.3435 168.0506 L118.6409 168.0506 "/>
<path d="M116.1818 172.9687 L116.1818 168.0506 "/>
<path d="M116.1818 165.5915 L116.5331 165.9428 "/>
<path d="M116.5331 165.9428 L116.1818 166.2941 "/>
<path d="M116.1818 166.2941 L115.8305 165.9428 "/>
<path d="M115.8305 165.9428 L116.1818 165.5915 "/>
<path d="M116.1818 165.5915 L116.1818 166.2941 "/>
<path d="M109.5072 172.9687 L109.5072 165.5915 "/>
<path d="M109.5072 172.6174 L110.2097 172.9687 "/>
<path d="M110.2097 172.9687 L111.6149 172.9687 "/>
<path d="M111.6149 172.9687 L112.3175 172.6174 "/>
<path d="M112.3175 172.6174 L112.6688 172.2661 "/>
<path d="M112.6688 172.2661 L113.0201 171.5635 "/>
<path d="M113.0201 171.5635 L113.0201 169.4557 "/>
<path d="M113.0201 169.4557 L112.6688 168.7531 "/>
<path d="M112.6688 168.7531 L112.3175 168.4018 "/>
<path d="M112.3175 168.4018 L111.6149 168.0506 "/>
<path d="M111.6149 168.0506 L110.2097 168.0506 "/>
<path d="M110.2097 168.0506 L109.5072 168.4018 "/>
<path d="M102.8325 168.0506 L102.8325 174.0226 "/>
<path d="M102.8325 174.0226 L103.1838 174.7252 "/>
<path d="M103.1838 174.7252 L103.5351 175.0765 "/>
<path d="M103.5351 175.0765 L104.2377 175.4278 "/>
<path d="M104.2377 175.4278 L105.2916 175.4278 "/>
<path d="M105.2916 175.4278 L105.9942 175.0765 "/>
<path d="M102.8325 172.6174 L103.5351 172.9687 "/>
<path d="M103.5351 172.9687 L104.9403 172.9687 "/>
<path d="M104.9403 172.9687 L105.6429 172.6174 "/>
<path d="M105.6429 172.6174 L105.9942 172.2661 "/>
<path d="M105.9942 172.2661 L106.3455 171.5635 "/>
<path d="M106.3455 171.5635 L106.3455 169.4557 "/>
<path d="M106.3455 169.4557 L105.9942 168.7531 "/>
<path d="M105.9942 168.7531 L105.6429 168.4018 "/>
<path d="M105.6429 168.4018 L104.9403 168.0506 "/>
<path d="M104.9403 168.0506 L103.5351 168.0506 "/>
<path d="M103.5351 168.0506 L102.8325 168.4018 "/>
<path d="M96.5092 172.6174 L97.2118 172.9687 "/>
<path d="M97.2118 172.9687 L98.6169 172.9687 "/>
<path d="M98.6169 172.9687 L99.3195 172.6174 "/>
<path d="M99.3195 172.6174 L99.6708 171.9148 "/>
<path d="M99.6708 171.9148 L99.6708 169.1044 "/>
<path d="M99.6708 169.1044 L99.3195 168.4018 "/>
<path d="M99.3195 168.4018 L98.6169 168.0506 "/>
<path d="M98.6169 168.0506 L97.2118 168.0506 "/>
<path d="M97.2118 168.0506 L96.5092 168.4018 "/>
<path d="M96.5092 168.4018 L96.1579 169.1044 "/>
<path d="M96.1579 169.1044 L96.1579 169.8070 "/>
<path d="M96.1579 169.8070 L99.6708 170.5096 "/>
<path d="M89.8345 172.9687 L89.8345 165.5915 "/>
<path d="M89.8345 172.6174 L90.5371 172.9687 "/>
<path d="M90.5371 172.9687 L91.9423 172.9687 "/>
<path d="M91.9423 172.9687 L92.6449 172.6174 "/>
<path d="M92.6449 172.6174 L92.9962 172.2661 "/>
<path d="M92.9962 172.2661 L93.3475 171.5635 "/>
<path d="M93.3475 171.5635 L93.3475 169.4557 "/>
<path d="M93.3475 169.4557 L92.9962 168.7531 "/>
<path d="M92.9962 168.7531 L92.6449 168.4018 "/>
<path d="M92.6449 168.4018 L91.9423 168.0506 "/>
<path d="M91.9423 168.0506 L90.5371 168.0506 "/>
<path d="M90.5371 168.0506 L89.8345 168.4018 "/>
<path d="M82.4573 172.9687 L86.6729 172.9687 "/>
<path d="M84.5651 172.9687 L84.5651 165.5915 "/>
<path d="M84.5651 165.5915 L85.2677 166.6454 "/>
<path d="M85.2677 166.6454 L85.9703 167.3480 "/>
<path d="M85.9703 167.3480 L86.6729 167.6993 "/>
<path d="M79.6469 166.2941 L79.2956 165.9428 "/>
<path d="M79.2956 165.9428 L78.5930 165.5915 "/>
<path d="M78.5930 165.5915 L76.8365 165.5915 "/>
<path d="M76.8365 165.5915 L76.1340 165.9428 "/>
<path d="M76.1340 165.9428 L75.7827 166.2941 "/>
<path d="M75.7827 166.2941 L75.4314 166.9967 "/>
<path d="M75.4314 166.9967 L75.4314 167.6993 "/>
<path d="M75.4314 167.6993 L75.7827 168.7531 "/>
<path d="M75.7827 168.7531 L79.9982 172.9687 "/>
<path d="M79.9982 172.9687 L75.4314 172.9687 "/>
</g><path d="M227.2014 41.2938 L170.9869 41.2938 "/>
<path d="M170.9869 78.7702 L227.2014 78.7702 "/>
<path d="M170.9869 41.2938 L170.9869 78.7702 "/>
<path d="M227.2014 78.7702 L227.2014 41.2938 "/>
</g>
<g style="fill:#848484; fill-opacity:0.0;  stroke:#848484; stroke-width:2.8107; stroke-opacity:1;  stroke-linecap:round; stroke-linejoin:round;">
<circle cx="36.0721" cy="142.4799" r="22.1298"/> 
<circle cx="260.9301" cy="67.5273" r="22.1298"/> 
<circle cx="36.0721" cy="67.5273" r="22.1298"/> 
<circle cx="260.9301" cy="142.4799" r="22.1298"/> 
<g>
</g>
<g>
</g>
<g>
</g>
<g>
</g>
<g>
</g>
<g>
</g>
<g>
</g>
<g>
</g>
<g>
</g>
<g>
</g>
<g>
</g>
<g>
</g>
<g>
</g>
<g>
</g>
<g>
</g>
<g>
</g>
<g>
</g>
</g> 
<svg:g><svg:g><svg:title>SVG Image created as ALTIMET02-Edge_Cuts.svg date 2023/07/05 13:23:35 </svg:title>
  <svg:desc>Image generated by PCBNEW </svg:desc>
<svg:g style="fill:#C2C200; fill-opacity:1.0000;stroke:#C2C200; stroke-opacity:1.0000; stroke-linecap:round; stroke-linejoin:round;" transform="translate(0 0) scale(1 1)">
</svg:g>
<svg:g style="fill:#C2C200; fill-opacity:0.0;  stroke:#C2C200; stroke-width:0.0000; stroke-opacity:1;  stroke-linecap:round; stroke-linejoin:round;">
</svg:g>
<svg:g style="fill:#C2C200; fill-opacity:0.0;  stroke:#C2C200; stroke-width:0.9369; stroke-opacity:1;  stroke-linecap:round; stroke-linejoin:round;">
<svg:path d="M296.5326 178.0825 L296.5326 31.9247 "/>
<svg:path d="M296.5326 31.9247 L0.4696 31.9247 "/>
<svg:path d="M0.4696 178.0825 L296.5326 178.0825 "/>
<svg:path d="M0.4696 31.9247 L0.4696 178.0825 "/>
<svg:g>
</svg:g>
<svg:g>
</svg:g>
<svg:g>
</svg:g>
<svg:g>
</svg:g>
<svg:g>
</svg:g>
<svg:g>
</svg:g>
<svg:g>
</svg:g>
<svg:g>
</svg:g>
<svg:g>
</svg:g>
<svg:g>
</svg:g>
<svg:g>
</svg:g>
<svg:g>
</svg:g>
<svg:g>
</svg:g>
<svg:g>
</svg:g>
<svg:g>
</svg:g>
<svg:g>
</svg:g>
<svg:g>
</svg:g>
</svg:g> 
</svg:g></svg:g></svg>
