<?xml version='1.0' encoding='ASCII' standalone='yes'?>
<svg xmlns:svg="http://www.w3.org/2000/svg" xmlns="http://www.w3.org/2000/svg" xmlns:xlink="http://www.w3.org/1999/xlink" version="1.1" width="29.700220cm" height="21.000720cm" viewBox="0 0 2970022 2100072">
<title>SVG Picture created as ALTIMET02-B_Fab.svg date 2023/02/15 20:12:08 </title>
  <desc>Picture generated by PCBNEW </desc>
<g style="fill:#000084; fill-opacity:1.000000;stroke:#000084; stroke-opacity:1.000000; stroke-linecap:round; stroke-linejoin:round;" transform="translate(0 0) scale(1 1)">
</g>
<g style="fill:#000084; fill-opacity:0.0;  stroke:#000084; stroke-width:0.000000; stroke-opacity:1;  stroke-linecap:round; stroke-linejoin:round;">
</g>
<g style="fill:#000084; fill-opacity:0.01;  stroke:#000084; stroke-width:8776.579146; stroke-opacity:1;  stroke-linecap:round; stroke-linejoin:round;">
<text x="1550013.387682" y="1293629.968312" transform="scale(-1 1) translate(-3100026.775363 0)" textLength="169959.098777" font-size="78014.017349" lengthAdjust="spacingAndGlyphs" text-anchor="middle" opacity="0.01" style="font-family:monospace">DNF</text>
<g class="stroked-text"><desc>DNF</desc>
<path d="M1621061 1290843 L1621061 1232333 L1607130 1232333 L1598772 1235119 L1593199 1240691 L1590413 1246264 L1587627 1257409 L1587627 1265767 L1590413 1276912 L1593199 1282485 L1598772 1288057 L1607130 1290843 L1621061 1290843 "/>
<path d="M1562551 1290843 L1562551 1232333 L1529116 1290843 L1529116 1232333 "/>
<path d="M1481751 1260195 L1501254 1260195 "/>
<path d="M1501254 1290843 L1501254 1232333 L1473392 1232333 "/>
</g></g>
<g style="fill:#000084; fill-opacity:0.01;  stroke:#000084; stroke-width:4680.842211; stroke-opacity:1;  stroke-linecap:round; stroke-linejoin:round;">
<text x="1550013.387682" y="1189832.292279" transform="scale(-1 1) translate(-3100026.775363 0)" textLength="45707.839087" font-size="39006.979419" lengthAdjust="spacingAndGlyphs" text-anchor="middle" opacity="0.01" style="font-family:monospace">R1</text>
<g class="stroked-text"><desc>R1</desc>
<path d="M1554889 1188439 L1564641 1174508 "/>
<path d="M1571606 1188439 L1571606 1159183 L1560461 1159183 L1557675 1160577 L1556282 1161970 L1554889 1164756 L1554889 1168935 L1556282 1171721 L1557675 1173114 L1560461 1174508 L1571606 1174508 "/>
<path d="M1527027 1188439 L1543744 1188439 "/>
<path d="M1535385 1188439 L1535385 1159183 L1538171 1163363 L1540958 1166149 L1543744 1167542 "/>
</g></g>
<g style="fill:#000084; fill-opacity:0.0;  stroke:#000084; stroke-width:8776.579146; stroke-opacity:1;  stroke-linecap:round; stroke-linejoin:round;">
<g transform="rotate(-90.000000 1288237.287022 1476299.835603)">
<text x="1288237.287022" y="1505555.099423" transform="scale(-1 1) translate(-2576474.574043 0)" textLength="264177.840798" font-size="78014.017349" lengthAdjust="spacingAndGlyphs" text-anchor="middle" opacity="0.01" style="font-family:monospace">100nF</text>
</g>
<g class="stroked-text"><desc>100nF</desc>
<path d="M1314706 1385747 L1314706 1352313 "/>
<path d="M1314706 1369030 L1256195 1369030 L1264554 1363458 L1270126 1357885 L1272913 1352313 "/>
<path d="M1256195 1421968 L1256195 1427541 L1258982 1433113 L1261768 1435899 L1267340 1438685 L1278485 1441472 L1292416 1441472 L1303561 1438685 L1309133 1435899 L1311920 1433113 L1314706 1427541 L1314706 1421968 L1311920 1416396 L1309133 1413609 L1303561 1410823 L1292416 1408037 L1278485 1408037 L1267340 1410823 L1261768 1413609 L1258982 1416396 L1256195 1421968 "/>
<path d="M1256195 1477692 L1256195 1483265 L1258982 1488837 L1261768 1491623 L1267340 1494410 L1278485 1497196 L1292416 1497196 L1303561 1494410 L1309133 1491623 L1311920 1488837 L1314706 1483265 L1314706 1477692 L1311920 1472120 L1309133 1469334 L1303561 1466548 L1292416 1463761 L1278485 1463761 L1267340 1466548 L1261768 1469334 L1258982 1472120 L1256195 1477692 "/>
<path d="M1275699 1522272 L1314706 1522272 "/>
<path d="M1281271 1522272 L1278485 1525058 L1275699 1530631 L1275699 1538989 L1278485 1544562 L1284057 1547348 L1314706 1547348 "/>
<path d="M1284057 1594713 L1284057 1575210 "/>
<path d="M1314706 1575210 L1256195 1575210 L1256195 1603072 "/>
</g></g>
<g style="fill:#000084; fill-opacity:0.0;  stroke:#000084; stroke-width:4680.842211; stroke-opacity:1;  stroke-linecap:round; stroke-linejoin:round;">
<g transform="rotate(-90.000000 1386534.973456 1476299.835603)">
<text x="1386534.973456" y="1490927.467513" transform="scale(-1 1) translate(-2773069.946913 0)" textLength="45707.839087" font-size="39006.979419" lengthAdjust="spacingAndGlyphs" text-anchor="middle" opacity="0.01" style="font-family:monospace">C2</text>
</g>
<g class="stroked-text"><desc>C2</desc>
<path d="M1396983 1471423 L1398376 1470030 L1399769 1465851 L1399769 1463065 L1398376 1458885 L1395590 1456099 L1392803 1454706 L1387231 1453313 L1383052 1453313 L1377479 1454706 L1374693 1456099 L1371907 1458885 L1370514 1463065 L1370514 1465851 L1371907 1470030 L1373300 1471423 "/>
<path d="M1373300 1482568 L1371907 1483961 L1370514 1486748 L1370514 1493713 L1371907 1496499 L1373300 1497892 L1376086 1499286 L1378872 1499286 L1383052 1497892 L1399769 1481175 L1399769 1499286 "/>
</g></g>
<g style="fill:#000084; fill-opacity:0.01;  stroke:#000084; stroke-width:8776.579146; stroke-opacity:1;  stroke-linecap:round; stroke-linejoin:round;">
<text x="1668906.779845" y="1339853.285147" transform="scale(-1 1) translate(-3337813.559691 0)" textLength="489861.254400" font-size="78014.017349" lengthAdjust="spacingAndGlyphs" text-anchor="middle" opacity="0.01" style="font-family:monospace">BZV55C3V6</text>
<g class="stroked-text"><desc>BZV55C3V6</desc>
<path d="M1883445 1306418 L1875086 1309204 L1872300 1311991 L1869514 1317563 L1869514 1325922 L1872300 1331494 L1875086 1334280 L1880659 1337067 L1902948 1337067 L1902948 1278556 L1883445 1278556 L1877872 1281342 L1875086 1284128 L1872300 1289701 L1872300 1295273 L1875086 1300846 L1877872 1303632 L1883445 1306418 L1902948 1306418 "/>
<path d="M1850010 1278556 L1811003 1278556 L1850010 1337067 L1811003 1337067 "/>
<path d="M1797072 1278556 L1777569 1337067 L1758065 1278556 "/>
<path d="M1710699 1278556 L1738562 1278556 L1741348 1306418 L1738562 1303632 L1732989 1300846 L1719058 1300846 L1713486 1303632 L1710699 1306418 L1707913 1311991 L1707913 1325922 L1710699 1331494 L1713486 1334280 L1719058 1337067 L1732989 1337067 L1738562 1334280 L1741348 1331494 "/>
<path d="M1654975 1278556 L1682837 1278556 L1685624 1306418 L1682837 1303632 L1677265 1300846 L1663334 1300846 L1657761 1303632 L1654975 1306418 L1652189 1311991 L1652189 1325922 L1654975 1331494 L1657761 1334280 L1663334 1337067 L1677265 1337067 L1682837 1334280 L1685624 1331494 "/>
<path d="M1593678 1331494 L1596465 1334280 L1604823 1337067 L1610396 1337067 L1618754 1334280 L1624327 1328708 L1627113 1323135 L1629899 1311991 L1629899 1303632 L1627113 1292487 L1624327 1286915 L1618754 1281342 L1610396 1278556 L1604823 1278556 L1596465 1281342 L1593678 1284128 "/>
<path d="M1574175 1278556 L1537954 1278556 L1557458 1300846 L1549099 1300846 L1543527 1303632 L1540740 1306418 L1537954 1311991 L1537954 1325922 L1540740 1331494 L1543527 1334280 L1549099 1337067 L1565816 1337067 L1571389 1334280 L1574175 1331494 "/>
<path d="M1521237 1278556 L1501733 1337067 L1482230 1278556 "/>
<path d="M1437650 1278556 L1448795 1278556 L1454368 1281342 L1457154 1284128 L1462726 1292487 L1465513 1303632 L1465513 1325922 L1462726 1331494 L1459940 1334280 L1454368 1337067 L1443223 1337067 L1437650 1334280 L1434864 1331494 L1432078 1325922 L1432078 1311991 L1434864 1306418 L1437650 1303632 L1443223 1300846 L1454368 1300846 L1459940 1303632 L1462726 1306418 L1465513 1311991 "/>
</g><text x="1668906.779845" y="1559267.763796" transform="scale(-1 1) translate(-3337813.559691 0)" textLength="102825.289574" font-size="78014.017349" lengthAdjust="spacingAndGlyphs" text-anchor="middle" opacity="0.01" style="font-family:monospace">D1</text>
<g class="stroked-text"><desc>D1</desc>
<path d="M1712093 1556481 L1712093 1497970 L1698162 1497970 L1689803 1500757 L1684230 1506329 L1681444 1511902 L1678658 1523046 L1678658 1531405 L1681444 1542550 L1684230 1548122 L1689803 1553695 L1698162 1556481 L1712093 1556481 "/>
<path d="M1622934 1556481 L1656368 1556481 "/>
<path d="M1639651 1556481 L1639651 1497970 L1645223 1506329 L1650796 1511902 L1656368 1514688 "/>
</g></g>
<g style="fill:#000084; fill-opacity:0.0;  stroke:#000084; stroke-width:14861.674020; stroke-opacity:1;  stroke-linecap:round; stroke-linejoin:round;">
<g transform="rotate(-90.000000 836653.034699 1472438.140779)">
<text x="836653.034699" y="1509592.325830" transform="scale(-1 1) translate(-1673306.069398 0)" textLength="169053.648362" font-size="99077.807300" lengthAdjust="spacingAndGlyphs" text-anchor="middle" opacity="0.01" style="font-family:monospace">IC1</text>
</g>
<g class="stroked-text"><desc>IC1</desc>
<path d="M870268 1399899 L795960 1399899 "/>
<path d="M863191 1477745 L866730 1474207 L870268 1463591 L870268 1456514 L866730 1445899 L859653 1438822 L852576 1435283 L838422 1431745 L827806 1431745 L813652 1435283 L806575 1438822 L799498 1445899 L795960 1456514 L795960 1463591 L799498 1474207 L803037 1477745 "/>
<path d="M870268 1548515 L870268 1506053 "/>
<path d="M870268 1527284 L795960 1527284 L806575 1520207 L813652 1513130 L817191 1506053 "/>
</g></g>
<g style="fill:#000084; fill-opacity:0.01;  stroke:#000084; stroke-width:8776.579146; stroke-opacity:1;  stroke-linecap:round; stroke-linejoin:round;">
<text x="1074439.819026" y="1412343.616135" transform="scale(-1 1) translate(-2148879.638053 0)" textLength="150638.981061" font-size="78014.017349" lengthAdjust="spacingAndGlyphs" text-anchor="middle" opacity="0.01" style="font-family:monospace">DNF</text>
<g class="stroked-text"><desc>DNF</desc>
<path d="M1145488 1409557 L1145488 1351046 L1131557 1351046 L1123198 1353833 L1117626 1359405 L1114839 1364977 L1112053 1376122 L1112053 1384481 L1114839 1395626 L1117626 1401198 L1123198 1406771 L1131557 1409557 L1145488 1409557 "/>
<path d="M1086977 1409557 L1086977 1351046 L1053543 1409557 L1053543 1351046 "/>
<path d="M1006177 1378909 L1025681 1378909 "/>
<path d="M1025681 1409557 L1025681 1351046 L997818 1351046 "/>
</g></g>
<g style="fill:#000084; fill-opacity:0.01;  stroke:#000084; stroke-width:4680.842211; stroke-opacity:1;  stroke-linecap:round; stroke-linejoin:round;">
<text x="1312226.603354" y="1189832.292279" transform="scale(-1 1) translate(-2624453.206708 0)" textLength="45707.839087" font-size="39006.979419" lengthAdjust="spacingAndGlyphs" text-anchor="middle" opacity="0.01" style="font-family:monospace">R2</text>
<g class="stroked-text"><desc>R2</desc>
<path d="M1317102 1188439 L1326854 1174508 "/>
<path d="M1333819 1188439 L1333819 1159183 L1322674 1159183 L1319888 1160577 L1318495 1161970 L1317102 1164756 L1317102 1168935 L1318495 1171721 L1319888 1173114 L1322674 1174508 L1333819 1174508 "/>
<path d="M1305957 1161970 L1304564 1160577 L1301778 1159183 L1294812 1159183 L1292026 1160577 L1290633 1161970 L1289240 1164756 L1289240 1167542 L1290633 1171721 L1307350 1188439 L1289240 1188439 "/>
</g></g>
<g style="fill:#000084; fill-opacity:0.0;  stroke:#000084; stroke-width:8776.579146; stroke-opacity:1;  stroke-linecap:round; stroke-linejoin:round;">
<g transform="rotate(-90.000000 1154482.220837 1476299.835603)">
<text x="1154482.220837" y="1505555.099423" transform="scale(-1 1) translate(-2308964.441675 0)" textLength="208453.525974" font-size="78014.017349" lengthAdjust="spacingAndGlyphs" text-anchor="middle" opacity="0.01" style="font-family:monospace">10uF</text>
</g>
<g class="stroked-text"><desc>10uF</desc>
<path d="M1180951 1413609 L1180951 1380175 "/>
<path d="M1180951 1396892 L1122440 1396892 L1130799 1391320 L1136371 1385747 L1139158 1380175 "/>
<path d="M1122440 1449830 L1122440 1455403 L1125226 1460975 L1128013 1463761 L1133585 1466548 L1144730 1469334 L1158661 1469334 L1169806 1466548 L1175378 1463761 L1178165 1460975 L1180951 1455403 L1180951 1449830 L1178165 1444258 L1175378 1441472 L1169806 1438685 L1158661 1435899 L1144730 1435899 L1133585 1438685 L1128013 1441472 L1125226 1444258 L1122440 1449830 "/>
<path d="M1141944 1519486 L1180951 1519486 "/>
<path d="M1141944 1494410 L1172592 1494410 L1178165 1497196 L1180951 1502768 L1180951 1511127 L1178165 1516699 L1175378 1519486 "/>
<path d="M1150302 1566851 L1150302 1547348 "/>
<path d="M1180951 1547348 L1122440 1547348 L1122440 1575210 "/>
</g></g>
<g style="fill:#000084; fill-opacity:0.0;  stroke:#000084; stroke-width:4680.842211; stroke-opacity:1;  stroke-linecap:round; stroke-linejoin:round;">
<g transform="rotate(-90.000000 1252779.907272 1476299.835603)">
<text x="1252779.907272" y="1490927.467513" transform="scale(-1 1) translate(-2505559.814544 0)" textLength="45707.839087" font-size="39006.979419" lengthAdjust="spacingAndGlyphs" text-anchor="middle" opacity="0.01" style="font-family:monospace">C1</text>
</g>
<g class="stroked-text"><desc>C1</desc>
<path d="M1263228 1471423 L1264621 1470030 L1266014 1465851 L1266014 1463065 L1264621 1458885 L1261835 1456099 L1259048 1454706 L1253476 1453313 L1249297 1453313 L1243724 1454706 L1240938 1456099 L1238152 1458885 L1236759 1463065 L1236759 1465851 L1238152 1470030 L1239545 1471423 "/>
<path d="M1266014 1499286 L1266014 1482568 "/>
<path d="M1266014 1490927 L1236759 1490927 L1240938 1488141 L1243724 1485354 L1245117 1482568 "/>
</g></g>
<g style="fill:#000084; fill-opacity:0.01;  stroke:#000084; stroke-width:8776.579146; stroke-opacity:1;  stroke-linecap:round; stroke-linejoin:round;">
<text x="1178471.537170" y="1850650.191442" transform="scale(-1 1) translate(-2356943.074339 0)" textLength="1175270.309181" font-size="78014.017349" lengthAdjust="spacingAndGlyphs" text-anchor="middle" opacity="0.01" style="font-family:monospace">SolderJumper_3_Bridged12</text>
<g class="stroked-text"><desc>SolderJumper_3_Bridged12</desc>
<path d="M1758004 1845077 L1749645 1847863 L1735714 1847863 L1730142 1845077 L1727355 1842291 L1724569 1836719 L1724569 1831146 L1727355 1825574 L1730142 1822788 L1735714 1820001 L1746859 1817215 L1752431 1814429 L1755218 1811643 L1758004 1806070 L1758004 1800498 L1755218 1794925 L1752431 1792139 L1746859 1789353 L1732928 1789353 L1724569 1792139 "/>
<path d="M1691135 1847863 L1696707 1845077 L1699493 1842291 L1702280 1836719 L1702280 1820001 L1699493 1814429 L1696707 1811643 L1691135 1808856 L1682776 1808856 L1677204 1811643 L1674417 1814429 L1671631 1820001 L1671631 1836719 L1674417 1842291 L1677204 1845077 L1682776 1847863 L1691135 1847863 "/>
<path d="M1638197 1847863 L1643769 1845077 L1646555 1839505 L1646555 1789353 "/>
<path d="M1590831 1847863 L1590831 1789353 "/>
<path d="M1590831 1845077 L1596403 1847863 L1607548 1847863 L1613121 1845077 L1615907 1842291 L1618693 1836719 L1618693 1820001 L1615907 1814429 L1613121 1811643 L1607548 1808856 L1596403 1808856 L1590831 1811643 "/>
<path d="M1540679 1845077 L1546251 1847863 L1557396 1847863 L1562969 1845077 L1565755 1839505 L1565755 1817215 L1562969 1811643 L1557396 1808856 L1546251 1808856 L1540679 1811643 L1537893 1817215 L1537893 1822788 L1565755 1828360 "/>
<path d="M1512817 1847863 L1512817 1808856 "/>
<path d="M1512817 1820001 L1510031 1814429 L1507244 1811643 L1501672 1808856 L1496100 1808856 "/>
<path d="M1459879 1789353 L1459879 1831146 L1462665 1839505 L1468237 1845077 L1476596 1847863 L1482169 1847863 "/>
<path d="M1406941 1808856 L1406941 1847863 "/>
<path d="M1432017 1808856 L1432017 1839505 L1429230 1845077 L1423658 1847863 L1415299 1847863 L1409727 1845077 L1406941 1842291 "/>
<path d="M1379079 1847863 L1379079 1808856 "/>
<path d="M1379079 1814429 L1376292 1811643 L1370720 1808856 L1362361 1808856 L1356789 1811643 L1354003 1817215 L1354003 1847863 "/>
<path d="M1354003 1817215 L1351216 1811643 L1345644 1808856 L1337285 1808856 L1331713 1811643 L1328927 1817215 L1328927 1847863 "/>
<path d="M1301065 1808856 L1301065 1867367 "/>
<path d="M1301065 1811643 L1295492 1808856 L1284347 1808856 L1278775 1811643 L1275989 1814429 L1273202 1820001 L1273202 1836719 L1275989 1842291 L1278775 1845077 L1284347 1847863 L1295492 1847863 L1301065 1845077 "/>
<path d="M1225837 1845077 L1231409 1847863 L1242554 1847863 L1248126 1845077 L1250913 1839505 L1250913 1817215 L1248126 1811643 L1242554 1808856 L1231409 1808856 L1225837 1811643 L1223050 1817215 L1223050 1822788 L1250913 1828360 "/>
<path d="M1197975 1847863 L1197975 1808856 "/>
<path d="M1197975 1820001 L1195188 1814429 L1192402 1811643 L1186830 1808856 L1181257 1808856 "/>
<path d="M1175685 1853436 L1131105 1853436 "/>
<path d="M1122747 1789353 L1086526 1789353 L1106029 1811643 L1097671 1811643 L1092098 1814429 L1089312 1817215 L1086526 1822788 L1086526 1836719 L1089312 1842291 L1092098 1845077 L1097671 1847863 L1114388 1847863 L1119961 1845077 L1122747 1842291 "/>
<path d="M1075381 1853436 L1030802 1853436 "/>
<path d="M997367 1817215 L989008 1820001 L986222 1822788 L983436 1828360 L983436 1836719 L986222 1842291 L989008 1845077 L994581 1847863 L1016871 1847863 L1016871 1789353 L997367 1789353 L991795 1792139 L989008 1794925 L986222 1800498 L986222 1806070 L989008 1811643 L991795 1814429 L997367 1817215 L1016871 1817215 "/>
<path d="M958360 1847863 L958360 1808856 "/>
<path d="M958360 1820001 L955574 1814429 L952788 1811643 L947215 1808856 L941643 1808856 "/>
<path d="M922139 1847863 L922139 1808856 "/>
<path d="M922139 1789353 L924925 1792139 L922139 1794925 L919353 1792139 L922139 1789353 L922139 1794925 "/>
<path d="M869201 1847863 L869201 1789353 "/>
<path d="M869201 1845077 L874773 1847863 L885918 1847863 L891491 1845077 L894277 1842291 L897063 1836719 L897063 1820001 L894277 1814429 L891491 1811643 L885918 1808856 L874773 1808856 L869201 1811643 "/>
<path d="M816263 1808856 L816263 1856222 L819049 1861795 L821835 1864581 L827408 1867367 L835767 1867367 L841339 1864581 "/>
<path d="M816263 1845077 L821835 1847863 L832980 1847863 L838553 1845077 L841339 1842291 L844125 1836719 L844125 1820001 L841339 1814429 L838553 1811643 L832980 1808856 L821835 1808856 L816263 1811643 "/>
<path d="M766111 1845077 L771684 1847863 L782828 1847863 L788401 1845077 L791187 1839505 L791187 1817215 L788401 1811643 L782828 1808856 L771684 1808856 L766111 1811643 L763325 1817215 L763325 1822788 L791187 1828360 "/>
<path d="M713173 1847863 L713173 1789353 "/>
<path d="M713173 1845077 L718745 1847863 L729890 1847863 L735463 1845077 L738249 1842291 L741035 1836719 L741035 1820001 L738249 1814429 L735463 1811643 L729890 1808856 L718745 1808856 L713173 1811643 "/>
<path d="M654663 1847863 L688097 1847863 "/>
<path d="M671380 1847863 L671380 1789353 L676952 1797712 L682525 1803284 L688097 1806070 "/>
<path d="M632373 1794925 L629587 1792139 L624014 1789353 L610083 1789353 L604511 1792139 L601724 1794925 L598938 1800498 L598938 1806070 L601724 1814429 L635159 1847863 L598938 1847863 "/>
</g></g>
<g style="fill:#000084; fill-opacity:0.0;  stroke:#000084; stroke-width:5851.052764; stroke-opacity:1;  stroke-linecap:round; stroke-linejoin:round;">
<path d="M1491502 1211773 L1608523 1211773 "/>
<path d="M1491502 1138635 L1491502 1211773 "/>
<path d="M1608523 1211773 L1608523 1138635 "/>
<path d="M1608523 1138635 L1491502 1138635 "/>
<path d="M1423104 1534810 L1423104 1417789 "/>
<path d="M1349965 1417789 L1349965 1534810 "/>
<path d="M1349965 1534810 L1423104 1534810 "/>
<path d="M1423104 1417789 L1349965 1417789 "/>
<path d="M1765449 1459799 L1765449 1366183 "/>
<path d="M1648428 1412991 L1648428 1380810 "/>
<path d="M1572364 1459799 L1765449 1459799 "/>
<path d="M1683534 1389587 L1648428 1412991 "/>
<path d="M1683534 1436395 L1683534 1389587 "/>
<path d="M1683534 1412991 L1712789 1412991 "/>
<path d="M1572364 1366183 L1572364 1459799 "/>
<path d="M1625023 1412991 L1648428 1412991 "/>
<path d="M1765449 1366183 L1572364 1366183 "/>
<path d="M1648428 1412991 L1683534 1436395 "/>
<path d="M1648428 1412991 L1648428 1445172 "/>
</g>
<g style="fill:#000084; fill-opacity:0.0;  stroke:#000084; stroke-width:14861.674020; stroke-opacity:1;  stroke-linecap:round; stroke-linejoin:round;">
<path d="M1167354 1384672 L892355 1384672 "/>
<path d="M892355 1384672 L892355 1560203 "/>
<path d="M892355 1560203 L1167354 1560203 "/>
<path d="M1167354 1560203 L1167354 1384672 "/>
</g>
<g style="fill:#000084; fill-opacity:0.0;  stroke:#000084; stroke-width:5851.052764; stroke-opacity:1;  stroke-linecap:round; stroke-linejoin:round;">
<path d="M1253716 1138635 L1253716 1211773 "/>
<path d="M1370737 1211773 L1370737 1138635 "/>
<path d="M1253716 1211773 L1370737 1211773 "/>
<path d="M1370737 1138635 L1253716 1138635 "/>
<path d="M1289348 1417789 L1216210 1417789 "/>
<path d="M1216210 1534810 L1289348 1534810 "/>
<path d="M1216210 1417789 L1216210 1534810 "/>
<path d="M1289348 1534810 L1289348 1417789 "/>
<g>
</g>
<g>
</g>
<g>
</g>
<g>
</g>
<g>
</g>
<g>
</g>
<g>
</g>
<g>
</g>
<g>
</g>
<g>
</g>
<g>
</g>
<g>
</g>
<g>
</g>
<g>
</g>
<g>
</g>
<g>
</g>
<g>
</g>
</g> 
<svg:g><svg:g><svg:title>SVG Picture created as ALTIMET02-Edge_Cuts.svg date 2023/02/15 20:12:08 </svg:title>
  <svg:desc>Picture generated by PCBNEW </svg:desc>
<svg:g style="fill:#C2C200; fill-opacity:1.000000;stroke:#C2C200; stroke-opacity:1.000000; stroke-linecap:round; stroke-linejoin:round;" transform="translate(0 0) scale(1 1)">
</svg:g>
<svg:g style="fill:#C2C200; fill-opacity:0.0;  stroke:#C2C200; stroke-width:0.000000; stroke-opacity:1;  stroke-linecap:round; stroke-linejoin:round;">
</svg:g>
<svg:g style="fill:#C2C200; fill-opacity:0.0;  stroke:#C2C200; stroke-width:7430.837010; stroke-opacity:1;  stroke-linecap:round; stroke-linejoin:round;">
<svg:path d="M4399 1888565 L4399 729354 "/>
<svg:path d="M4399 729354 L2352543 729354 "/>
<svg:path d="M2352543 1888565 L4399 1888565 "/>
<svg:path d="M2352543 729354 L2352543 1888565 "/>
<svg:g>
</svg:g>
<svg:g>
</svg:g>
<svg:g>
</svg:g>
<svg:g>
</svg:g>
<svg:g>
</svg:g>
<svg:g>
</svg:g>
<svg:g>
</svg:g>
<svg:g>
</svg:g>
<svg:g>
</svg:g>
<svg:g>
</svg:g>
<svg:g>
</svg:g>
<svg:g>
</svg:g>
<svg:g>
</svg:g>
<svg:g>
</svg:g>
<svg:g>
</svg:g>
<svg:g>
</svg:g>
<svg:g>
</svg:g>
</svg:g> 
</svg:g></svg:g></svg>
