<?xml version='1.0' encoding='ASCII' standalone='yes'?>
<svg xmlns:svg="http://www.w3.org/2000/svg" xmlns="http://www.w3.org/2000/svg" xmlns:xlink="http://www.w3.org/1999/xlink" version="1.1" width="29.700220cm" height="21.000720cm" viewBox="0 0 2970022 2100072">
<title>SVG Picture created as ALTIMET02-F_Fab.svg date 2023/06/15 00:46:29 </title>
  <desc>Picture generated by PCBNEW </desc>
<g style="fill:#848484; fill-opacity:1.000000;stroke:#848484; stroke-opacity:1.000000; stroke-linecap:round; stroke-linejoin:round;" transform="translate(0 0) scale(1 1)">
</g>
<g style="fill:#848484; fill-opacity:0.0;  stroke:#848484; stroke-width:0.000000; stroke-opacity:1;  stroke-linecap:round; stroke-linejoin:round;">
</g>
<g style="fill:#848484; fill-opacity:0.01;  stroke:#848484; stroke-width:11065.848630; stroke-opacity:1;  stroke-linecap:round; stroke-linejoin:round;">
<text x="1485011.007924" y="1733020.193249" textLength="1503883.944460" font-size="98363.074344" lengthAdjust="spacingAndGlyphs" text-anchor="middle" opacity="0.01" style="font-family:monospace">SolderJumper_3_Bridged12</text>
<g class="stroked-text"><desc>SolderJumper_3_Bridged12</desc>
<path d="M2215708 1725994 L2205169 1729507 L2187604 1729507 L2180578 1725994 L2177065 1722481 L2173552 1715455 L2173552 1708429 L2177065 1701403 L2180578 1697890 L2187604 1694377 L2201656 1690864 L2208682 1687351 L2212195 1683838 L2215708 1676812 L2215708 1669786 L2212195 1662760 L2208682 1659247 L2201656 1655734 L2184091 1655734 L2173552 1659247 "/>
<path d="M2131397 1729507 L2138423 1725994 L2141935 1722481 L2145448 1715455 L2145448 1694377 L2141935 1687351 L2138423 1683838 L2131397 1680325 L2120858 1680325 L2113832 1683838 L2110319 1687351 L2106806 1694377 L2106806 1715455 L2110319 1722481 L2113832 1725994 L2120858 1729507 L2131397 1729507 "/>
<path d="M2064650 1729507 L2071676 1725994 L2075189 1718968 L2075189 1655734 "/>
<path d="M2004930 1729507 L2004930 1655734 "/>
<path d="M2004930 1725994 L2011956 1729507 L2026008 1729507 L2033034 1725994 L2036546 1722481 L2040059 1715455 L2040059 1694377 L2036546 1687351 L2033034 1683838 L2026008 1680325 L2011956 1680325 L2004930 1683838 "/>
<path d="M1941696 1725994 L1948722 1729507 L1962774 1729507 L1969800 1725994 L1973313 1718968 L1973313 1690864 L1969800 1683838 L1962774 1680325 L1948722 1680325 L1941696 1683838 L1938183 1690864 L1938183 1697890 L1973313 1704916 "/>
<path d="M1906567 1729507 L1906567 1680325 "/>
<path d="M1906567 1694377 L1903054 1687351 L1899541 1683838 L1892515 1680325 L1885489 1680325 "/>
<path d="M1839820 1655734 L1839820 1708429 L1843333 1718968 L1850359 1725994 L1860898 1729507 L1867924 1729507 "/>
<path d="M1773074 1680325 L1773074 1729507 "/>
<path d="M1804691 1680325 L1804691 1718968 L1801178 1725994 L1794152 1729507 L1783613 1729507 L1776587 1725994 L1773074 1722481 "/>
<path d="M1737944 1729507 L1737944 1680325 "/>
<path d="M1737944 1687351 L1734431 1683838 L1727405 1680325 L1716866 1680325 L1709841 1683838 L1706327 1690864 L1706327 1729507 "/>
<path d="M1706327 1690864 L1702815 1683838 L1695789 1680325 L1685250 1680325 L1678224 1683838 L1674711 1690864 L1674711 1729507 "/>
<path d="M1639581 1680325 L1639581 1754097 "/>
<path d="M1639581 1683838 L1632555 1680325 L1618503 1680325 L1611477 1683838 L1607964 1687351 L1604451 1694377 L1604451 1715455 L1607964 1722481 L1611477 1725994 L1618503 1729507 L1632555 1729507 L1639581 1725994 "/>
<path d="M1544731 1725994 L1551757 1729507 L1565809 1729507 L1572835 1725994 L1576348 1718968 L1576348 1690864 L1572835 1683838 L1565809 1680325 L1551757 1680325 L1544731 1683838 L1541218 1690864 L1541218 1697890 L1576348 1704916 "/>
<path d="M1509601 1729507 L1509601 1680325 "/>
<path d="M1509601 1694377 L1506088 1687351 L1502575 1683838 L1495549 1680325 L1488524 1680325 "/>
<path d="M1481498 1736533 L1425290 1736533 "/>
<path d="M1414751 1655734 L1369083 1655734 L1393673 1683838 L1383134 1683838 L1376109 1687351 L1372596 1690864 L1369083 1697890 L1369083 1715455 L1372596 1722481 L1376109 1725994 L1383134 1729507 L1404212 1729507 L1411238 1725994 L1414751 1722481 "/>
<path d="M1355031 1736533 L1298823 1736533 "/>
<path d="M1256668 1690864 L1246129 1694377 L1242616 1697890 L1239103 1704916 L1239103 1715455 L1242616 1722481 L1246129 1725994 L1253155 1729507 L1281258 1729507 L1281258 1655734 L1256668 1655734 L1249642 1659247 L1246129 1662760 L1242616 1669786 L1242616 1676812 L1246129 1683838 L1249642 1687351 L1256668 1690864 L1281258 1690864 "/>
<path d="M1207486 1729507 L1207486 1680325 "/>
<path d="M1207486 1694377 L1203973 1687351 L1200460 1683838 L1193434 1680325 L1186408 1680325 "/>
<path d="M1161817 1729507 L1161817 1680325 "/>
<path d="M1161817 1655734 L1165330 1659247 L1161817 1662760 L1158305 1659247 L1161817 1655734 L1161817 1662760 "/>
<path d="M1095071 1729507 L1095071 1655734 "/>
<path d="M1095071 1725994 L1102097 1729507 L1116149 1729507 L1123175 1725994 L1126688 1722481 L1130201 1715455 L1130201 1694377 L1126688 1687351 L1123175 1683838 L1116149 1680325 L1102097 1680325 L1095071 1683838 "/>
<path d="M1028325 1680325 L1028325 1740046 L1031838 1747072 L1035351 1750585 L1042377 1754097 L1052916 1754097 L1059941 1750585 "/>
<path d="M1028325 1725994 L1035351 1729507 L1049403 1729507 L1056428 1725994 L1059941 1722481 L1063454 1715455 L1063454 1694377 L1059941 1687351 L1056428 1683838 L1049403 1680325 L1035351 1680325 L1028325 1683838 "/>
<path d="M965091 1725994 L972117 1729507 L986169 1729507 L993195 1725994 L996708 1718968 L996708 1690864 L993195 1683838 L986169 1680325 L972117 1680325 L965091 1683838 L961578 1690864 L961578 1697890 L996708 1704916 "/>
<path d="M898345 1729507 L898345 1655734 "/>
<path d="M898345 1725994 L905371 1729507 L919423 1729507 L926449 1725994 L929962 1722481 L933475 1715455 L933475 1694377 L929962 1687351 L926449 1683838 L919423 1680325 L905371 1680325 L898345 1683838 "/>
<path d="M824573 1729507 L866728 1729507 "/>
<path d="M845650 1729507 L845650 1655734 L852676 1666273 L859702 1673299 L866728 1676812 "/>
<path d="M796469 1662760 L792956 1659247 L785930 1655734 L768365 1655734 L761339 1659247 L757826 1662760 L754313 1669786 L754313 1676812 L757826 1687351 L799982 1729507 L754313 1729507 "/>
</g><path d="M2272014 412938 L1709869 412938 "/>
<path d="M1709869 787701 L2272014 787701 "/>
<path d="M1709869 412938 L1709869 787701 "/>
<path d="M2272014 787701 L2272014 412938 "/>
</g>
<g style="fill:#848484; fill-opacity:0.0;  stroke:#848484; stroke-width:28107.255521; stroke-opacity:1;  stroke-linecap:round; stroke-linejoin:round;">
<circle cx="360720.787104" cy="1424799.422738" r="221297.791798"/> 
<circle cx="2609301.228744" cy="675272.608858" r="221297.791798"/> 
<circle cx="360720.787104" cy="675272.608858" r="221297.791798"/> 
<circle cx="2609301.228744" cy="1424799.422738" r="221297.791798"/> 
<g>
</g>
<g>
</g>
<g>
</g>
<g>
</g>
<g>
</g>
<g>
</g>
<g>
</g>
<g>
</g>
<g>
</g>
<g>
</g>
<g>
</g>
<g>
</g>
<g>
</g>
<g>
</g>
<g>
</g>
<g>
</g>
<g>
</g>
</g> 
<svg:g><svg:g><svg:title>SVG Picture created as ALTIMET02-Edge_Cuts.svg date 2023/06/15 00:46:29 </svg:title>
  <svg:desc>Picture generated by PCBNEW </svg:desc>
<svg:g style="fill:#C2C200; fill-opacity:1.000000;stroke:#C2C200; stroke-opacity:1.000000; stroke-linecap:round; stroke-linejoin:round;" transform="translate(0 0) scale(1 1)">
</svg:g>
<svg:g style="fill:#C2C200; fill-opacity:0.0;  stroke:#C2C200; stroke-width:0.000000; stroke-opacity:1;  stroke-linecap:round; stroke-linejoin:round;">
</svg:g>
<svg:g style="fill:#C2C200; fill-opacity:0.0;  stroke:#C2C200; stroke-width:9369.085174; stroke-opacity:1;  stroke-linecap:round; stroke-linejoin:round;">
<svg:path d="M2965326 1780824 L2965326 319247 "/>
<svg:path d="M2965326 319247 L4695 319247 "/>
<svg:path d="M4695 1780824 L2965326 1780824 "/>
<svg:path d="M4695 319247 L4695 1780824 "/>
<svg:g>
</svg:g>
<svg:g>
</svg:g>
<svg:g>
</svg:g>
<svg:g>
</svg:g>
<svg:g>
</svg:g>
<svg:g>
</svg:g>
<svg:g>
</svg:g>
<svg:g>
</svg:g>
<svg:g>
</svg:g>
<svg:g>
</svg:g>
<svg:g>
</svg:g>
<svg:g>
</svg:g>
<svg:g>
</svg:g>
<svg:g>
</svg:g>
<svg:g>
</svg:g>
<svg:g>
</svg:g>
<svg:g>
</svg:g>
</svg:g> 
</svg:g></svg:g></svg>
