<?xml version='1.0' encoding='ASCII' standalone='yes'?>
<svg xmlns:svg="http://www.w3.org/2000/svg" xmlns="http://www.w3.org/2000/svg" xmlns:xlink="http://www.w3.org/1999/xlink" version="1.1" width="29.700220cm" height="21.000720cm" viewBox="0 0 2970022 2100072">
<title>SVG Picture created as ALTIMET02-B_Fab.svg date 2023/05/25 08:07:24 </title>
  <desc>Picture generated by PCBNEW </desc>
<g style="fill:#000084; fill-opacity:1.000000;stroke:#000084; stroke-opacity:1.000000; stroke-linecap:round; stroke-linejoin:round;" transform="translate(0 0) scale(1 1)">
</g>
<g style="fill:#000084; fill-opacity:0.0;  stroke:#000084; stroke-width:0.000000; stroke-opacity:1;  stroke-linecap:round; stroke-linejoin:round;">
</g>
<g style="fill:#000084; fill-opacity:0.01;  stroke:#000084; stroke-width:11065.848630; stroke-opacity:1;  stroke-linecap:round; stroke-linejoin:round;">
<text x="1953465.250751" y="1030707.666857" transform="scale(-1 1) translate(-3906930.501503 0)" textLength="214290.970218" font-size="98363.074344" lengthAdjust="spacingAndGlyphs" text-anchor="middle" opacity="0.01" style="font-family:monospace">DNF</text>
<g class="stroked-text"><desc>DNF</desc>
<path d="M2043045 1027194 L2043045 953422 L2025481 953422 L2014942 956935 L2007916 963961 L2004403 970987 L2000890 985039 L2000890 995577 L2004403 1009629 L2007916 1016655 L2014942 1023681 L2025481 1027194 L2043045 1027194 "/>
<path d="M1969273 1027194 L1969273 953422 L1927117 1027194 L1927117 953422 "/>
<path d="M1867397 988552 L1891988 988552 "/>
<path d="M1891988 1027194 L1891988 953422 L1856858 953422 "/>
</g></g>
<g style="fill:#000084; fill-opacity:0.01;  stroke:#000084; stroke-width:5901.785936; stroke-opacity:1;  stroke-linecap:round; stroke-linejoin:round;">
<text x="1953465.250751" y="899835.563725" transform="scale(-1 1) translate(-3906930.501503 0)" textLength="57630.201942" font-size="49181.500286" lengthAdjust="spacingAndGlyphs" text-anchor="middle" opacity="0.01" style="font-family:monospace">R1</text>
<g class="stroked-text"><desc>R1</desc>
<path d="M1959612 898079 L1971908 880514 "/>
<path d="M1980690 898079 L1980690 861192 L1966638 861192 L1963125 862949 L1961369 864705 L1959612 868218 L1959612 873488 L1961369 877001 L1963125 878757 L1966638 880514 L1980690 880514 "/>
<path d="M1924483 898079 L1945561 898079 "/>
<path d="M1935022 898079 L1935022 861192 L1938535 866462 L1942048 869975 L1945561 871731 "/>
</g></g>
<g style="fill:#000084; fill-opacity:0.0;  stroke:#000084; stroke-width:11065.848630; stroke-opacity:1;  stroke-linecap:round; stroke-linejoin:round;">
<g transform="rotate(-90.000000 1623407.872277 1261024.863012)">
<text x="1623407.872277" y="1297911.025112" transform="scale(-1 1) translate(-3246815.744554 0)" textLength="333085.584838" font-size="98363.074344" lengthAdjust="spacingAndGlyphs" text-anchor="middle" opacity="0.01" style="font-family:monospace">100nF</text>
</g>
<g class="stroked-text"><desc>100nF</desc>
<path d="M1656780 1146853 L1656780 1104697 "/>
<path d="M1656780 1125775 L1583008 1125775 L1593547 1118749 L1600573 1111723 L1604086 1104697 "/>
<path d="M1583008 1192521 L1583008 1199547 L1586521 1206573 L1590034 1210086 L1597060 1213599 L1611112 1217112 L1628677 1217112 L1642729 1213599 L1649755 1210086 L1653268 1206573 L1656780 1199547 L1656780 1192521 L1653268 1185496 L1649755 1181983 L1642729 1178470 L1628677 1174957 L1611112 1174957 L1597060 1178470 L1590034 1181983 L1586521 1185496 L1583008 1192521 "/>
<path d="M1583008 1262781 L1583008 1269807 L1586521 1276833 L1590034 1280346 L1597060 1283859 L1611112 1287372 L1628677 1287372 L1642729 1283859 L1649755 1280346 L1653268 1276833 L1656780 1269807 L1656780 1262781 L1653268 1255755 L1649755 1252242 L1642729 1248729 L1628677 1245216 L1611112 1245216 L1597060 1248729 L1590034 1252242 L1586521 1255755 L1583008 1262781 "/>
<path d="M1607599 1318988 L1656780 1318988 "/>
<path d="M1614625 1318988 L1611112 1322501 L1607599 1329527 L1607599 1340066 L1611112 1347092 L1618138 1350605 L1656780 1350605 "/>
<path d="M1618138 1410325 L1618138 1385735 "/>
<path d="M1656780 1385735 L1583008 1385735 L1583008 1420864 "/>
</g></g>
<g style="fill:#000084; fill-opacity:0.0;  stroke:#000084; stroke-width:5901.785936; stroke-opacity:1;  stroke-linecap:round; stroke-linejoin:round;">
<g transform="rotate(-90.000000 1747345.376934 1261024.863012)">
<text x="1747345.376934" y="1279467.944062" transform="scale(-1 1) translate(-3494690.753869 0)" textLength="57630.201942" font-size="49181.500286" lengthAdjust="spacingAndGlyphs" text-anchor="middle" opacity="0.01" style="font-family:monospace">C2</text>
</g>
<g class="stroked-text"><desc>C2</desc>
<path d="M1760518 1254877 L1762275 1253120 L1764031 1247851 L1764031 1244338 L1762275 1239068 L1758762 1235555 L1755249 1233799 L1748223 1232042 L1742954 1232042 L1735928 1233799 L1732415 1235555 L1728902 1239068 L1727145 1244338 L1727145 1247851 L1728902 1253120 L1730658 1254877 "/>
<path d="M1730658 1268928 L1728902 1270685 L1727145 1274198 L1727145 1282980 L1728902 1286493 L1730658 1288250 L1734171 1290006 L1737684 1290006 L1742954 1288250 L1764031 1267172 L1764031 1290006 "/>
</g></g>
<g style="fill:#000084; fill-opacity:0.01;  stroke:#000084; stroke-width:11065.848630; stroke-opacity:1;  stroke-linecap:round; stroke-linejoin:round;">
<text x="2103370.613527" y="1088987.802976" transform="scale(-1 1) translate(-4206741.227055 0)" textLength="617635.914951" font-size="98363.074344" lengthAdjust="spacingAndGlyphs" text-anchor="middle" opacity="0.01" style="font-family:monospace">BZV55C3V6</text>
<g class="stroked-text"><desc>BZV55C3V6</desc>
<path d="M2373869 1046832 L2363330 1050345 L2359817 1053858 L2356304 1060884 L2356304 1071422 L2359817 1078448 L2363330 1081961 L2370356 1085474 L2398459 1085474 L2398459 1011702 L2373869 1011702 L2366843 1015215 L2363330 1018728 L2359817 1025754 L2359817 1032780 L2363330 1039806 L2366843 1043319 L2373869 1046832 L2398459 1046832 "/>
<path d="M2331713 1011702 L2282531 1011702 L2331713 1085474 L2282531 1085474 "/>
<path d="M2264967 1011702 L2240376 1085474 L2215785 1011702 "/>
<path d="M2156065 1011702 L2191194 1011702 L2194707 1046832 L2191194 1043319 L2184168 1039806 L2166603 1039806 L2159578 1043319 L2156065 1046832 L2152552 1053858 L2152552 1071422 L2156065 1078448 L2159578 1081961 L2166603 1085474 L2184168 1085474 L2191194 1081961 L2194707 1078448 "/>
<path d="M2085805 1011702 L2120935 1011702 L2124448 1046832 L2120935 1043319 L2113909 1039806 L2096344 1039806 L2089318 1043319 L2085805 1046832 L2082292 1053858 L2082292 1071422 L2085805 1078448 L2089318 1081961 L2096344 1085474 L2113909 1085474 L2120935 1081961 L2124448 1078448 "/>
<path d="M2008520 1078448 L2012033 1081961 L2022572 1085474 L2029598 1085474 L2040137 1081961 L2047163 1074935 L2050676 1067909 L2054189 1053858 L2054189 1043319 L2050676 1029267 L2047163 1022241 L2040137 1015215 L2029598 1011702 L2022572 1011702 L2012033 1015215 L2008520 1018728 "/>
<path d="M1983929 1011702 L1938261 1011702 L1962851 1039806 L1952312 1039806 L1945286 1043319 L1941774 1046832 L1938261 1053858 L1938261 1071422 L1941774 1078448 L1945286 1081961 L1952312 1085474 L1973390 1085474 L1980416 1081961 L1983929 1078448 "/>
<path d="M1917183 1011702 L1892592 1085474 L1868001 1011702 "/>
<path d="M1811794 1011702 L1825846 1011702 L1832872 1015215 L1836385 1018728 L1843410 1029267 L1846923 1043319 L1846923 1071422 L1843410 1078448 L1839897 1081961 L1832872 1085474 L1818820 1085474 L1811794 1081961 L1808281 1078448 L1804768 1071422 L1804768 1053858 L1808281 1046832 L1811794 1043319 L1818820 1039806 L1832872 1039806 L1839897 1043319 L1843410 1046832 L1846923 1053858 "/>
</g><text x="2103370.613527" y="1365634.018729" transform="scale(-1 1) translate(-4206741.227055 0)" textLength="129646.080876" font-size="98363.074344" lengthAdjust="spacingAndGlyphs" text-anchor="middle" opacity="0.01" style="font-family:monospace">D1</text>
<g class="stroked-text"><desc>D1</desc>
<path d="M2157821 1362120 L2157821 1288348 L2140256 1288348 L2129717 1291861 L2122691 1298887 L2119178 1305913 L2115665 1319965 L2115665 1330504 L2119178 1344556 L2122691 1351582 L2129717 1358608 L2140256 1362120 L2157821 1362120 "/>
<path d="M2045406 1362120 L2087562 1362120 "/>
<path d="M2066484 1362120 L2066484 1288348 L2073510 1298887 L2080536 1305913 L2087562 1309426 "/>
</g></g>
<g style="fill:#000084; fill-opacity:0.0;  stroke:#000084; stroke-width:18738.170347; stroke-opacity:1;  stroke-linecap:round; stroke-linejoin:round;">
<g transform="rotate(-90.000000 1054033.074095 1256155.889615)">
<text x="1054033.074095" y="1303001.315482" transform="scale(-1 1) translate(-2108066.148190 0)" textLength="213149.343501" font-size="124921.111056" lengthAdjust="spacingAndGlyphs" text-anchor="middle" opacity="0.01" style="font-family:monospace">IC1</text>
</g>
<g class="stroked-text"><desc>IC1</desc>
<path d="M1096416 1164695 L1002726 1164695 "/>
<path d="M1087494 1262848 L1091955 1258386 L1096416 1245002 L1096416 1236079 L1091955 1222694 L1083032 1213771 L1074109 1209310 L1056263 1204848 L1042879 1204848 L1025033 1209310 L1016110 1213771 L1007187 1222694 L1002726 1236079 L1002726 1245002 L1007187 1258386 L1011649 1262848 "/>
<path d="M1096416 1352077 L1096416 1298539 "/>
<path d="M1096416 1325308 L1002726 1325308 L1016110 1316385 L1025033 1307462 L1029494 1298539 "/>
</g></g>
<g style="fill:#000084; fill-opacity:0.01;  stroke:#000084; stroke-width:11065.848630; stroke-opacity:1;  stroke-linecap:round; stroke-linejoin:round;">
<text x="1353843.799647" y="1180386.401053" transform="scale(-1 1) translate(-2707687.599295 0)" textLength="189931.422539" font-size="98363.074344" lengthAdjust="spacingAndGlyphs" text-anchor="middle" opacity="0.01" style="font-family:monospace">DNF</text>
<g class="stroked-text"><desc>DNF</desc>
<path d="M1443424 1176873 L1443424 1103101 L1425859 1103101 L1415320 1106614 L1408294 1113640 L1404781 1120665 L1401268 1134717 L1401268 1145256 L1404781 1159308 L1408294 1166334 L1415320 1173360 L1425859 1176873 L1443424 1176873 "/>
<path d="M1369652 1176873 L1369652 1103101 L1327496 1176873 L1327496 1103101 "/>
<path d="M1267776 1138230 L1292366 1138230 "/>
<path d="M1292366 1176873 L1292366 1103101 L1257237 1103101 "/>
</g></g>
<g style="fill:#000084; fill-opacity:0.01;  stroke:#000084; stroke-width:5901.785936; stroke-opacity:1;  stroke-linecap:round; stroke-linejoin:round;">
<text x="1653654.525199" y="899835.563725" transform="scale(-1 1) translate(-3307309.050399 0)" textLength="57630.201942" font-size="49181.500286" lengthAdjust="spacingAndGlyphs" text-anchor="middle" opacity="0.01" style="font-family:monospace">R2</text>
<g class="stroked-text"><desc>R2</desc>
<path d="M1659802 898079 L1672097 880514 "/>
<path d="M1680879 898079 L1680879 861192 L1666828 861192 L1663315 862949 L1661558 864705 L1659802 868218 L1659802 873488 L1661558 877001 L1663315 878757 L1666828 880514 L1680879 880514 "/>
<path d="M1645750 864705 L1643993 862949 L1640480 861192 L1631698 861192 L1628185 862949 L1626428 864705 L1624672 868218 L1624672 871731 L1626428 877001 L1647506 898079 L1624672 898079 "/>
</g></g>
<g style="fill:#000084; fill-opacity:0.0;  stroke:#000084; stroke-width:11065.848630; stroke-opacity:1;  stroke-linecap:round; stroke-linejoin:round;">
<g transform="rotate(-90.000000 1454764.339154 1261024.863012)">
<text x="1454764.339154" y="1297911.025112" transform="scale(-1 1) translate(-2909528.678308 0)" textLength="262826.224943" font-size="98363.074344" lengthAdjust="spacingAndGlyphs" text-anchor="middle" opacity="0.01" style="font-family:monospace">10uF</text>
</g>
<g class="stroked-text"><desc>10uF</desc>
<path d="M1488137 1181983 L1488137 1139827 "/>
<path d="M1488137 1160905 L1414365 1160905 L1424904 1153879 L1431930 1146853 L1435442 1139827 "/>
<path d="M1414365 1227651 L1414365 1234677 L1417878 1241703 L1421391 1245216 L1428417 1248729 L1442468 1252242 L1460033 1252242 L1474085 1248729 L1481111 1245216 L1484624 1241703 L1488137 1234677 L1488137 1227651 L1484624 1220625 L1481111 1217112 L1474085 1213599 L1460033 1210086 L1442468 1210086 L1428417 1213599 L1421391 1217112 L1417878 1220625 L1414365 1227651 "/>
<path d="M1438955 1315475 L1488137 1315475 "/>
<path d="M1438955 1283859 L1477598 1283859 L1484624 1287372 L1488137 1294397 L1488137 1304936 L1484624 1311962 L1481111 1315475 "/>
<path d="M1449494 1375196 L1449494 1350605 "/>
<path d="M1488137 1350605 L1414365 1350605 L1414365 1385735 "/>
</g></g>
<g style="fill:#000084; fill-opacity:0.0;  stroke:#000084; stroke-width:5901.785936; stroke-opacity:1;  stroke-linecap:round; stroke-linejoin:round;">
<g transform="rotate(-90.000000 1578701.843811 1261024.863012)">
<text x="1578701.843811" y="1279467.944062" transform="scale(-1 1) translate(-3157403.687623 0)" textLength="57630.201942" font-size="49181.500286" lengthAdjust="spacingAndGlyphs" text-anchor="middle" opacity="0.01" style="font-family:monospace">C1</text>
</g>
<g class="stroked-text"><desc>C1</desc>
<path d="M1591875 1254877 L1593631 1253120 L1595388 1247851 L1595388 1244338 L1593631 1239068 L1590118 1235555 L1586605 1233799 L1579580 1232042 L1574310 1232042 L1567284 1233799 L1563771 1235555 L1560258 1239068 L1558502 1244338 L1558502 1247851 L1560258 1253120 L1562015 1254877 "/>
<path d="M1595388 1290006 L1595388 1268928 "/>
<path d="M1595388 1279467 L1558502 1279467 L1563771 1275954 L1567284 1272441 L1569041 1268928 "/>
</g></g>
<g style="fill:#000084; fill-opacity:0.01;  stroke:#000084; stroke-width:11065.848630; stroke-opacity:1;  stroke-linecap:round; stroke-linejoin:round;">
<text x="1485010.992076" y="1733020.193249" transform="scale(-1 1) translate(-2970021.984153 0)" textLength="1481826.019524" font-size="98363.074344" lengthAdjust="spacingAndGlyphs" text-anchor="middle" opacity="0.01" style="font-family:monospace">SolderJumper_3_Bridged12</text>
<g class="stroked-text"><desc>SolderJumper_3_Bridged12</desc>
<path d="M2215708 1725994 L2205169 1729507 L2187604 1729507 L2180578 1725994 L2177065 1722481 L2173552 1715455 L2173552 1708429 L2177065 1701403 L2180578 1697890 L2187604 1694377 L2201656 1690864 L2208682 1687351 L2212195 1683838 L2215708 1676812 L2215708 1669786 L2212195 1662760 L2208682 1659247 L2201656 1655734 L2184091 1655734 L2173552 1659247 "/>
<path d="M2131397 1729507 L2138422 1725994 L2141935 1722481 L2145448 1715455 L2145448 1694377 L2141935 1687351 L2138422 1683838 L2131397 1680325 L2120858 1680325 L2113832 1683838 L2110319 1687351 L2106806 1694377 L2106806 1715455 L2110319 1722481 L2113832 1725994 L2120858 1729507 L2131397 1729507 "/>
<path d="M2064650 1729507 L2071676 1725994 L2075189 1718968 L2075189 1655734 "/>
<path d="M2004930 1729507 L2004930 1655734 "/>
<path d="M2004930 1725994 L2011956 1729507 L2026008 1729507 L2033033 1725994 L2036546 1722481 L2040059 1715455 L2040059 1694377 L2036546 1687351 L2033033 1683838 L2026008 1680325 L2011956 1680325 L2004930 1683838 "/>
<path d="M1941696 1725994 L1948722 1729507 L1962774 1729507 L1969800 1725994 L1973313 1718968 L1973313 1690864 L1969800 1683838 L1962774 1680325 L1948722 1680325 L1941696 1683838 L1938183 1690864 L1938183 1697890 L1973313 1704916 "/>
<path d="M1906567 1729507 L1906567 1680325 "/>
<path d="M1906567 1694377 L1903054 1687351 L1899541 1683838 L1892515 1680325 L1885489 1680325 "/>
<path d="M1839820 1655734 L1839820 1708429 L1843333 1718968 L1850359 1725994 L1860898 1729507 L1867924 1729507 "/>
<path d="M1773074 1680325 L1773074 1729507 "/>
<path d="M1804691 1680325 L1804691 1718968 L1801178 1725994 L1794152 1729507 L1783613 1729507 L1776587 1725994 L1773074 1722481 "/>
<path d="M1737944 1729507 L1737944 1680325 "/>
<path d="M1737944 1687351 L1734431 1683838 L1727405 1680325 L1716866 1680325 L1709840 1683838 L1706327 1690864 L1706327 1729507 "/>
<path d="M1706327 1690864 L1702814 1683838 L1695788 1680325 L1685250 1680325 L1678224 1683838 L1674711 1690864 L1674711 1729507 "/>
<path d="M1639581 1680325 L1639581 1754097 "/>
<path d="M1639581 1683838 L1632555 1680325 L1618503 1680325 L1611477 1683838 L1607964 1687351 L1604451 1694377 L1604451 1715455 L1607964 1722481 L1611477 1725994 L1618503 1729507 L1632555 1729507 L1639581 1725994 "/>
<path d="M1544731 1725994 L1551757 1729507 L1565809 1729507 L1572835 1725994 L1576348 1718968 L1576348 1690864 L1572835 1683838 L1565809 1680325 L1551757 1680325 L1544731 1683838 L1541218 1690864 L1541218 1697890 L1576348 1704916 "/>
<path d="M1509601 1729507 L1509601 1680325 "/>
<path d="M1509601 1694377 L1506088 1687351 L1502575 1683838 L1495549 1680325 L1488523 1680325 "/>
<path d="M1481497 1736533 L1425290 1736533 "/>
<path d="M1414751 1655734 L1369083 1655734 L1393673 1683838 L1383134 1683838 L1376108 1687351 L1372595 1690864 L1369083 1697890 L1369083 1715455 L1372595 1722481 L1376108 1725994 L1383134 1729507 L1404212 1729507 L1411238 1725994 L1414751 1722481 "/>
<path d="M1355031 1736533 L1298823 1736533 "/>
<path d="M1256668 1690864 L1246129 1694377 L1242616 1697890 L1239103 1704916 L1239103 1715455 L1242616 1722481 L1246129 1725994 L1253155 1729507 L1281258 1729507 L1281258 1655734 L1256668 1655734 L1249642 1659247 L1246129 1662760 L1242616 1669786 L1242616 1676812 L1246129 1683838 L1249642 1687351 L1256668 1690864 L1281258 1690864 "/>
<path d="M1207486 1729507 L1207486 1680325 "/>
<path d="M1207486 1694377 L1203973 1687351 L1200460 1683838 L1193434 1680325 L1186408 1680325 "/>
<path d="M1161817 1729507 L1161817 1680325 "/>
<path d="M1161817 1655734 L1165330 1659247 L1161817 1662760 L1158304 1659247 L1161817 1655734 L1161817 1662760 "/>
<path d="M1095071 1729507 L1095071 1655734 "/>
<path d="M1095071 1725994 L1102097 1729507 L1116149 1729507 L1123175 1725994 L1126688 1722481 L1130201 1715455 L1130201 1694377 L1126688 1687351 L1123175 1683838 L1116149 1680325 L1102097 1680325 L1095071 1683838 "/>
<path d="M1028325 1680325 L1028325 1740046 L1031838 1747072 L1035351 1750585 L1042377 1754097 L1052915 1754097 L1059941 1750585 "/>
<path d="M1028325 1725994 L1035351 1729507 L1049402 1729507 L1056428 1725994 L1059941 1722481 L1063454 1715455 L1063454 1694377 L1059941 1687351 L1056428 1683838 L1049402 1680325 L1035351 1680325 L1028325 1683838 "/>
<path d="M965091 1725994 L972117 1729507 L986169 1729507 L993195 1725994 L996708 1718968 L996708 1690864 L993195 1683838 L986169 1680325 L972117 1680325 L965091 1683838 L961578 1690864 L961578 1697890 L996708 1704916 "/>
<path d="M898345 1729507 L898345 1655734 "/>
<path d="M898345 1725994 L905371 1729507 L919423 1729507 L926449 1725994 L929962 1722481 L933475 1715455 L933475 1694377 L929962 1687351 L926449 1683838 L919423 1680325 L905371 1680325 L898345 1683838 "/>
<path d="M824573 1729507 L866728 1729507 "/>
<path d="M845650 1729507 L845650 1655734 L852676 1666273 L859702 1673299 L866728 1676812 "/>
<path d="M796469 1662760 L792956 1659247 L785930 1655734 L768365 1655734 L761339 1659247 L757826 1662760 L754313 1669786 L754313 1676812 L757826 1687351 L799982 1729507 L754313 1729507 "/>
</g></g>
<g style="fill:#000084; fill-opacity:0.0;  stroke:#000084; stroke-width:7377.232420; stroke-opacity:1;  stroke-linecap:round; stroke-linejoin:round;">
<path d="M1879692 927500 L2027237 927500 "/>
<path d="M1879692 835284 L1879692 927500 "/>
<path d="M2027237 927500 L2027237 835284 "/>
<path d="M2027237 835284 L1879692 835284 "/>
<path d="M1793453 1334797 L1793453 1187252 "/>
<path d="M1701237 1187252 L1701237 1334797 "/>
<path d="M1701237 1334797 L1793453 1334797 "/>
<path d="M1793453 1187252 L1701237 1187252 "/>
<path d="M2225094 1240221 L2225094 1122185 "/>
<path d="M2077550 1181203 L2077550 1140628 "/>
<path d="M1981646 1240221 L2225094 1240221 "/>
<path d="M2121813 1151694 L2077550 1181203 "/>
<path d="M2121813 1210712 L2121813 1151694 "/>
<path d="M2121813 1181203 L2158699 1181203 "/>
<path d="M1981646 1122185 L1981646 1240221 "/>
<path d="M2048041 1181203 L2077550 1181203 "/>
<path d="M2225094 1122185 L1981646 1122185 "/>
<path d="M2077550 1181203 L2121813 1210712 "/>
<path d="M2077550 1181203 L2077550 1221777 "/>
</g>
<g style="fill:#000084; fill-opacity:0.0;  stroke:#000084; stroke-width:18738.170347; stroke-opacity:1;  stroke-linecap:round; stroke-linejoin:round;">
<path d="M1470994 1145497 L1124264 1145497 "/>
<path d="M1124264 1145497 L1124264 1366814 "/>
<path d="M1124264 1366814 L1470994 1366814 "/>
<path d="M1470994 1366814 L1470994 1145497 "/>
</g>
<g style="fill:#000084; fill-opacity:0.0;  stroke:#000084; stroke-width:7377.232420; stroke-opacity:1;  stroke-linecap:round; stroke-linejoin:round;">
<path d="M1579882 835284 L1579882 927500 "/>
<path d="M1727426 927500 L1727426 835284 "/>
<path d="M1579882 927500 L1727426 927500 "/>
<path d="M1727426 835284 L1579882 835284 "/>
<path d="M1624809 1187252 L1532594 1187252 "/>
<path d="M1532594 1334797 L1624809 1334797 "/>
<path d="M1532594 1187252 L1532594 1334797 "/>
<path d="M1624809 1334797 L1624809 1187252 "/>
<g>
</g>
<g>
</g>
<g>
</g>
<g>
</g>
<g>
</g>
<g>
</g>
<g>
</g>
<g>
</g>
<g>
</g>
<g>
</g>
<g>
</g>
<g>
</g>
<g>
</g>
<g>
</g>
<g>
</g>
<g>
</g>
<g>
</g>
</g> 
<svg:g><svg:g><svg:title>SVG Picture created as ALTIMET02-Edge_Cuts.svg date 2023/05/25 08:07:24 </svg:title>
  <svg:desc>Picture generated by PCBNEW </svg:desc>
<svg:g style="fill:#C2C200; fill-opacity:1.000000;stroke:#C2C200; stroke-opacity:1.000000; stroke-linecap:round; stroke-linejoin:round;" transform="translate(0 0) scale(1 1)">
</svg:g>
<svg:g style="fill:#C2C200; fill-opacity:0.0;  stroke:#C2C200; stroke-width:0.000000; stroke-opacity:1;  stroke-linecap:round; stroke-linejoin:round;">
</svg:g>
<svg:g style="fill:#C2C200; fill-opacity:0.0;  stroke:#C2C200; stroke-width:9369.085174; stroke-opacity:1;  stroke-linecap:round; stroke-linejoin:round;">
<svg:path d="M4695 1780824 L4695 319247 "/>
<svg:path d="M4695 319247 L2965326 319247 "/>
<svg:path d="M2965326 1780824 L4695 1780824 "/>
<svg:path d="M2965326 319247 L2965326 1780824 "/>
<svg:g>
</svg:g>
<svg:g>
</svg:g>
<svg:g>
</svg:g>
<svg:g>
</svg:g>
<svg:g>
</svg:g>
<svg:g>
</svg:g>
<svg:g>
</svg:g>
<svg:g>
</svg:g>
<svg:g>
</svg:g>
<svg:g>
</svg:g>
<svg:g>
</svg:g>
<svg:g>
</svg:g>
<svg:g>
</svg:g>
<svg:g>
</svg:g>
<svg:g>
</svg:g>
<svg:g>
</svg:g>
<svg:g>
</svg:g>
</svg:g> 
</svg:g></svg:g></svg>
