<?xml version='1.0' encoding='ASCII' standalone='yes'?>
<svg xmlns:svg="http://www.w3.org/2000/svg" xmlns="http://www.w3.org/2000/svg" xmlns:xlink="http://www.w3.org/1999/xlink" version="1.1" width="297.0022mm" height="210.0072mm" viewBox="0.0000 0.0000 297.0022 210.0072">
<title>SVG Image created as ALTIMET02-B_Fab.svg date 2023/07/05 13:23:35 </title>
  <desc>Image generated by PCBNEW </desc>
<g style="fill:#000084; fill-opacity:1.0000;stroke:#000084; stroke-opacity:1.0000; stroke-linecap:round; stroke-linejoin:round;" transform="translate(0 0) scale(1 1)">
</g>
<g style="fill:#000084; fill-opacity:0.0;  stroke:#000084; stroke-width:0.0000; stroke-opacity:1;  stroke-linecap:round; stroke-linejoin:round;">
</g>
<g style="fill:#000084; fill-opacity:0.01;  stroke:#000084; stroke-width:1.1066; stroke-opacity:1;  stroke-linecap:round; stroke-linejoin:round;">
<text x="195.3465" y="103.0708" transform="scale(-1 1) translate(-390.693050 0)" textLength="22.7201" font-size="9.8363" lengthAdjust="spacingAndGlyphs" text-anchor="middle" opacity="0.01" style="font-family:monospace">DNF</text>
<g class="stroked-text"><desc>DNF</desc>
<path d="M204.3046 102.7375 L204.3046 95.3602 "/>
<path d="M204.3046 95.3602 L202.5481 95.3602 "/>
<path d="M202.5481 95.3602 L201.4942 95.7115 "/>
<path d="M201.4942 95.7115 L200.7916 96.4141 "/>
<path d="M200.7916 96.4141 L200.4403 97.1167 "/>
<path d="M200.4403 97.1167 L200.0890 98.5219 "/>
<path d="M200.0890 98.5219 L200.0890 99.5758 "/>
<path d="M200.0890 99.5758 L200.4403 100.9810 "/>
<path d="M200.4403 100.9810 L200.7916 101.6836 "/>
<path d="M200.7916 101.6836 L201.4942 102.3862 "/>
<path d="M201.4942 102.3862 L202.5481 102.7375 "/>
<path d="M202.5481 102.7375 L204.3046 102.7375 "/>
<path d="M196.9274 102.7375 L196.9274 95.3602 "/>
<path d="M196.9274 95.3602 L192.7118 102.7375 "/>
<path d="M192.7118 102.7375 L192.7118 95.3602 "/>
<path d="M186.7398 98.8732 L189.1988 98.8732 "/>
<path d="M189.1988 102.7375 L189.1988 95.3602 "/>
<path d="M189.1988 95.3602 L185.6859 95.3602 "/>
</g></g>
<g style="fill:#000084; fill-opacity:0.01;  stroke:#000084; stroke-width:0.5902; stroke-opacity:1;  stroke-linecap:round; stroke-linejoin:round;">
<text x="195.3465" y="89.9836" transform="scale(-1 1) translate(-390.693050 0)" textLength="7.9393" font-size="4.9182" lengthAdjust="spacingAndGlyphs" text-anchor="middle" opacity="0.01" style="font-family:monospace">R1</text>
<g class="stroked-text"><desc>R1</desc>
<path d="M195.9613 89.8150 L197.1908 88.0585 "/>
<path d="M198.0691 89.8150 L198.0691 86.1264 "/>
<path d="M198.0691 86.1264 L196.6639 86.1264 "/>
<path d="M196.6639 86.1264 L196.3126 86.3020 "/>
<path d="M196.3126 86.3020 L196.1369 86.4777 "/>
<path d="M196.1369 86.4777 L195.9613 86.8290 "/>
<path d="M195.9613 86.8290 L195.9613 87.3559 "/>
<path d="M195.9613 87.3559 L196.1369 87.7072 "/>
<path d="M196.1369 87.7072 L196.3126 87.8828 "/>
<path d="M196.3126 87.8828 L196.6639 88.0585 "/>
<path d="M196.6639 88.0585 L198.0691 88.0585 "/>
<path d="M192.4483 89.8150 L194.5561 89.8150 "/>
<path d="M193.5022 89.8150 L193.5022 86.1264 "/>
<path d="M193.5022 86.1264 L193.8535 86.6533 "/>
<path d="M193.8535 86.6533 L194.2048 87.0046 "/>
<path d="M194.2048 87.0046 L194.5561 87.1803 "/>
</g></g>
<g style="fill:#000084; fill-opacity:0.0;  stroke:#000084; stroke-width:1.1066; stroke-opacity:1;  stroke-linecap:round; stroke-linejoin:round;">
<g transform="rotate(-90.000000 162.3408 126.1025)">
<text x="162.3408" y="129.7911" transform="scale(-1 1) translate(-324.681574 0)" textLength="35.3668" font-size="9.8363" lengthAdjust="spacingAndGlyphs" text-anchor="middle" opacity="0.01" style="font-family:monospace">100nF</text>
</g>
<g class="stroked-text"><desc>100nF</desc>
<path d="M165.6961 114.6853 L165.6961 110.4698 "/>
<path d="M165.6961 112.5776 L158.3189 112.5776 "/>
<path d="M158.3189 112.5776 L159.3727 111.8750 "/>
<path d="M159.3727 111.8750 L160.0753 111.1724 "/>
<path d="M160.0753 111.1724 L160.4266 110.4698 "/>
<path d="M158.3189 119.2522 L158.3189 119.9548 "/>
<path d="M158.3189 119.9548 L158.6702 120.6574 "/>
<path d="M158.6702 120.6574 L159.0215 121.0087 "/>
<path d="M159.0215 121.0087 L159.7240 121.3600 "/>
<path d="M159.7240 121.3600 L161.1292 121.7113 "/>
<path d="M161.1292 121.7113 L162.8857 121.7113 "/>
<path d="M162.8857 121.7113 L164.2909 121.3600 "/>
<path d="M164.2909 121.3600 L164.9935 121.0087 "/>
<path d="M164.9935 121.0087 L165.3448 120.6574 "/>
<path d="M165.3448 120.6574 L165.6961 119.9548 "/>
<path d="M165.6961 119.9548 L165.6961 119.2522 "/>
<path d="M165.6961 119.2522 L165.3448 118.5496 "/>
<path d="M165.3448 118.5496 L164.9935 118.1983 "/>
<path d="M164.9935 118.1983 L164.2909 117.8470 "/>
<path d="M164.2909 117.8470 L162.8857 117.4957 "/>
<path d="M162.8857 117.4957 L161.1292 117.4957 "/>
<path d="M161.1292 117.4957 L159.7240 117.8470 "/>
<path d="M159.7240 117.8470 L159.0215 118.1983 "/>
<path d="M159.0215 118.1983 L158.6702 118.5496 "/>
<path d="M158.6702 118.5496 L158.3189 119.2522 "/>
<path d="M158.3189 126.2781 L158.3189 126.9807 "/>
<path d="M158.3189 126.9807 L158.6702 127.6833 "/>
<path d="M158.6702 127.6833 L159.0215 128.0346 "/>
<path d="M159.0215 128.0346 L159.7240 128.3859 "/>
<path d="M159.7240 128.3859 L161.1292 128.7372 "/>
<path d="M161.1292 128.7372 L162.8857 128.7372 "/>
<path d="M162.8857 128.7372 L164.2909 128.3859 "/>
<path d="M164.2909 128.3859 L164.9935 128.0346 "/>
<path d="M164.9935 128.0346 L165.3448 127.6833 "/>
<path d="M165.3448 127.6833 L165.6961 126.9807 "/>
<path d="M165.6961 126.9807 L165.6961 126.2781 "/>
<path d="M165.6961 126.2781 L165.3448 125.5755 "/>
<path d="M165.3448 125.5755 L164.9935 125.2242 "/>
<path d="M164.9935 125.2242 L164.2909 124.8729 "/>
<path d="M164.2909 124.8729 L162.8857 124.5216 "/>
<path d="M162.8857 124.5216 L161.1292 124.5216 "/>
<path d="M161.1292 124.5216 L159.7240 124.8729 "/>
<path d="M159.7240 124.8729 L159.0215 125.2242 "/>
<path d="M159.0215 125.2242 L158.6702 125.5755 "/>
<path d="M158.6702 125.5755 L158.3189 126.2781 "/>
<path d="M160.7779 131.8989 L165.6961 131.8989 "/>
<path d="M161.4805 131.8989 L161.1292 132.2502 "/>
<path d="M161.1292 132.2502 L160.7779 132.9528 "/>
<path d="M160.7779 132.9528 L160.7779 134.0067 "/>
<path d="M160.7779 134.0067 L161.1292 134.7093 "/>
<path d="M161.1292 134.7093 L161.8318 135.0605 "/>
<path d="M161.8318 135.0605 L165.6961 135.0605 "/>
<path d="M161.8318 141.0326 L161.8318 138.5735 "/>
<path d="M165.6961 138.5735 L158.3189 138.5735 "/>
<path d="M158.3189 138.5735 L158.3189 142.0865 "/>
</g></g>
<g style="fill:#000084; fill-opacity:0.0;  stroke:#000084; stroke-width:0.5902; stroke-opacity:1;  stroke-linecap:round; stroke-linejoin:round;">
<g transform="rotate(-90.000000 174.7345 126.1025)">
<text x="174.7345" y="127.9468" transform="scale(-1 1) translate(-349.469075 0)" textLength="7.9393" font-size="4.9182" lengthAdjust="spacingAndGlyphs" text-anchor="middle" opacity="0.01" style="font-family:monospace">C2</text>
</g>
<g class="stroked-text"><desc>C2</desc>
<path d="M176.0590 125.4877 L176.2346 125.3121 "/>
<path d="M176.2346 125.3121 L176.4103 124.7851 "/>
<path d="M176.4103 124.7851 L176.4103 124.4338 "/>
<path d="M176.4103 124.4338 L176.2346 123.9069 "/>
<path d="M176.2346 123.9069 L175.8833 123.5556 "/>
<path d="M175.8833 123.5556 L175.5320 123.3799 "/>
<path d="M175.5320 123.3799 L174.8294 123.2043 "/>
<path d="M174.8294 123.2043 L174.3025 123.2043 "/>
<path d="M174.3025 123.2043 L173.5999 123.3799 "/>
<path d="M173.5999 123.3799 L173.2486 123.5556 "/>
<path d="M173.2486 123.5556 L172.8973 123.9069 "/>
<path d="M172.8973 123.9069 L172.7217 124.4338 "/>
<path d="M172.7217 124.4338 L172.7217 124.7851 "/>
<path d="M172.7217 124.7851 L172.8973 125.3121 "/>
<path d="M172.8973 125.3121 L173.0729 125.4877 "/>
<path d="M173.0729 126.8929 L172.8973 127.0685 "/>
<path d="M172.8973 127.0685 L172.7217 127.4198 "/>
<path d="M172.7217 127.4198 L172.7217 128.2981 "/>
<path d="M172.7217 128.2981 L172.8973 128.6494 "/>
<path d="M172.8973 128.6494 L173.0729 128.8250 "/>
<path d="M173.0729 128.8250 L173.4242 129.0007 "/>
<path d="M173.4242 129.0007 L173.7755 129.0007 "/>
<path d="M173.7755 129.0007 L174.3025 128.8250 "/>
<path d="M174.3025 128.8250 L176.4103 126.7173 "/>
<path d="M176.4103 126.7173 L176.4103 129.0007 "/>
</g></g>
<g style="fill:#000084; fill-opacity:0.01;  stroke:#000084; stroke-width:1.1066; stroke-opacity:1;  stroke-linecap:round; stroke-linejoin:round;">
<text x="210.3371" y="108.8988" transform="scale(-1 1) translate(-420.674123 0)" textLength="63.8218" font-size="9.8363" lengthAdjust="spacingAndGlyphs" text-anchor="middle" opacity="0.01" style="font-family:monospace">BZV55C3V6</text>
<g class="stroked-text"><desc>BZV55C3V6</desc>
<path d="M237.3869 104.7012 L236.3330 105.0525 "/>
<path d="M236.3330 105.0525 L235.9817 105.4038 "/>
<path d="M235.9817 105.4038 L235.6304 106.1064 "/>
<path d="M235.6304 106.1064 L235.6304 107.1603 "/>
<path d="M235.6304 107.1603 L235.9817 107.8629 "/>
<path d="M235.9817 107.8629 L236.3330 108.2142 "/>
<path d="M236.3330 108.2142 L237.0356 108.5655 "/>
<path d="M237.0356 108.5655 L239.8460 108.5655 "/>
<path d="M239.8460 108.5655 L239.8460 101.1882 "/>
<path d="M239.8460 101.1882 L237.3869 101.1882 "/>
<path d="M237.3869 101.1882 L236.6843 101.5395 "/>
<path d="M236.6843 101.5395 L236.3330 101.8908 "/>
<path d="M236.3330 101.8908 L235.9817 102.5934 "/>
<path d="M235.9817 102.5934 L235.9817 103.2960 "/>
<path d="M235.9817 103.2960 L236.3330 103.9986 "/>
<path d="M236.3330 103.9986 L236.6843 104.3499 "/>
<path d="M236.6843 104.3499 L237.3869 104.7012 "/>
<path d="M237.3869 104.7012 L239.8460 104.7012 "/>
<path d="M233.1713 101.1882 L228.2532 101.1882 "/>
<path d="M228.2532 101.1882 L233.1713 108.5655 "/>
<path d="M233.1713 108.5655 L228.2532 108.5655 "/>
<path d="M226.4967 101.1882 L224.0376 108.5655 "/>
<path d="M224.0376 108.5655 L221.5786 101.1882 "/>
<path d="M215.6065 101.1882 L219.1195 101.1882 "/>
<path d="M219.1195 101.1882 L219.4708 104.7012 "/>
<path d="M219.4708 104.7012 L219.1195 104.3499 "/>
<path d="M219.1195 104.3499 L218.4169 103.9986 "/>
<path d="M218.4169 103.9986 L216.6604 103.9986 "/>
<path d="M216.6604 103.9986 L215.9578 104.3499 "/>
<path d="M215.9578 104.3499 L215.6065 104.7012 "/>
<path d="M215.6065 104.7012 L215.2552 105.4038 "/>
<path d="M215.2552 105.4038 L215.2552 107.1603 "/>
<path d="M215.2552 107.1603 L215.6065 107.8629 "/>
<path d="M215.6065 107.8629 L215.9578 108.2142 "/>
<path d="M215.9578 108.2142 L216.6604 108.5655 "/>
<path d="M216.6604 108.5655 L218.4169 108.5655 "/>
<path d="M218.4169 108.5655 L219.1195 108.2142 "/>
<path d="M219.1195 108.2142 L219.4708 107.8629 "/>
<path d="M208.5806 101.1882 L212.0935 101.1882 "/>
<path d="M212.0935 101.1882 L212.4448 104.7012 "/>
<path d="M212.4448 104.7012 L212.0935 104.3499 "/>
<path d="M212.0935 104.3499 L211.3909 103.9986 "/>
<path d="M211.3909 103.9986 L209.6345 103.9986 "/>
<path d="M209.6345 103.9986 L208.9319 104.3499 "/>
<path d="M208.9319 104.3499 L208.5806 104.7012 "/>
<path d="M208.5806 104.7012 L208.2293 105.4038 "/>
<path d="M208.2293 105.4038 L208.2293 107.1603 "/>
<path d="M208.2293 107.1603 L208.5806 107.8629 "/>
<path d="M208.5806 107.8629 L208.9319 108.2142 "/>
<path d="M208.9319 108.2142 L209.6345 108.5655 "/>
<path d="M209.6345 108.5655 L211.3909 108.5655 "/>
<path d="M211.3909 108.5655 L212.0935 108.2142 "/>
<path d="M212.0935 108.2142 L212.4448 107.8629 "/>
<path d="M200.8520 107.8629 L201.2033 108.2142 "/>
<path d="M201.2033 108.2142 L202.2572 108.5655 "/>
<path d="M202.2572 108.5655 L202.9598 108.5655 "/>
<path d="M202.9598 108.5655 L204.0137 108.2142 "/>
<path d="M204.0137 108.2142 L204.7163 107.5116 "/>
<path d="M204.7163 107.5116 L205.0676 106.8090 "/>
<path d="M205.0676 106.8090 L205.4189 105.4038 "/>
<path d="M205.4189 105.4038 L205.4189 104.3499 "/>
<path d="M205.4189 104.3499 L205.0676 102.9447 "/>
<path d="M205.0676 102.9447 L204.7163 102.2421 "/>
<path d="M204.7163 102.2421 L204.0137 101.5395 "/>
<path d="M204.0137 101.5395 L202.9598 101.1882 "/>
<path d="M202.9598 101.1882 L202.2572 101.1882 "/>
<path d="M202.2572 101.1882 L201.2033 101.5395 "/>
<path d="M201.2033 101.5395 L200.8520 101.8908 "/>
<path d="M198.3930 101.1882 L193.8261 101.1882 "/>
<path d="M193.8261 101.1882 L196.2852 103.9986 "/>
<path d="M196.2852 103.9986 L195.2313 103.9986 "/>
<path d="M195.2313 103.9986 L194.5287 104.3499 "/>
<path d="M194.5287 104.3499 L194.1774 104.7012 "/>
<path d="M194.1774 104.7012 L193.8261 105.4038 "/>
<path d="M193.8261 105.4038 L193.8261 107.1603 "/>
<path d="M193.8261 107.1603 L194.1774 107.8629 "/>
<path d="M194.1774 107.8629 L194.5287 108.2142 "/>
<path d="M194.5287 108.2142 L195.2313 108.5655 "/>
<path d="M195.2313 108.5655 L197.3391 108.5655 "/>
<path d="M197.3391 108.5655 L198.0417 108.2142 "/>
<path d="M198.0417 108.2142 L198.3930 107.8629 "/>
<path d="M191.7183 101.1882 L189.2592 108.5655 "/>
<path d="M189.2592 108.5655 L186.8002 101.1882 "/>
<path d="M181.1794 101.1882 L182.5846 101.1882 "/>
<path d="M182.5846 101.1882 L183.2872 101.5395 "/>
<path d="M183.2872 101.5395 L183.6385 101.8908 "/>
<path d="M183.6385 101.8908 L184.3411 102.9447 "/>
<path d="M184.3411 102.9447 L184.6924 104.3499 "/>
<path d="M184.6924 104.3499 L184.6924 107.1603 "/>
<path d="M184.6924 107.1603 L184.3411 107.8629 "/>
<path d="M184.3411 107.8629 L183.9898 108.2142 "/>
<path d="M183.9898 108.2142 L183.2872 108.5655 "/>
<path d="M183.2872 108.5655 L181.8820 108.5655 "/>
<path d="M181.8820 108.5655 L181.1794 108.2142 "/>
<path d="M181.1794 108.2142 L180.8281 107.8629 "/>
<path d="M180.8281 107.8629 L180.4768 107.1603 "/>
<path d="M180.4768 107.1603 L180.4768 105.4038 "/>
<path d="M180.4768 105.4038 L180.8281 104.7012 "/>
<path d="M180.8281 104.7012 L181.1794 104.3499 "/>
<path d="M181.1794 104.3499 L181.8820 103.9986 "/>
<path d="M181.8820 103.9986 L183.2872 103.9986 "/>
<path d="M183.2872 103.9986 L183.9898 104.3499 "/>
<path d="M183.9898 104.3499 L184.3411 104.7012 "/>
<path d="M184.3411 104.7012 L184.6924 105.4038 "/>
</g><text x="210.3371" y="136.5634" transform="scale(-1 1) translate(-420.674123 0)" textLength="15.6942" font-size="9.8363" lengthAdjust="spacingAndGlyphs" text-anchor="middle" opacity="0.01" style="font-family:monospace">D1</text>
<g class="stroked-text"><desc>D1</desc>
<path d="M215.7822 136.2301 L215.7822 128.8529 "/>
<path d="M215.7822 128.8529 L214.0257 128.8529 "/>
<path d="M214.0257 128.8529 L212.9718 129.2042 "/>
<path d="M212.9718 129.2042 L212.2692 129.9067 "/>
<path d="M212.2692 129.9067 L211.9179 130.6093 "/>
<path d="M211.9179 130.6093 L211.5666 132.0145 "/>
<path d="M211.5666 132.0145 L211.5666 133.0684 "/>
<path d="M211.5666 133.0684 L211.9179 134.4736 "/>
<path d="M211.9179 134.4736 L212.2692 135.1762 "/>
<path d="M212.2692 135.1762 L212.9718 135.8788 "/>
<path d="M212.9718 135.8788 L214.0257 136.2301 "/>
<path d="M214.0257 136.2301 L215.7822 136.2301 "/>
<path d="M204.5407 136.2301 L208.7562 136.2301 "/>
<path d="M206.6484 136.2301 L206.6484 128.8529 "/>
<path d="M206.6484 128.8529 L207.3510 129.9067 "/>
<path d="M207.3510 129.9067 L208.0536 130.6093 "/>
<path d="M208.0536 130.6093 L208.7562 130.9606 "/>
</g></g>
<g style="fill:#000084; fill-opacity:0.0;  stroke:#000084; stroke-width:1.8738; stroke-opacity:1;  stroke-linecap:round; stroke-linejoin:round;">
<g transform="rotate(-90.000000 105.4033 125.6156)">
<text x="105.4033" y="130.3001" transform="scale(-1 1) translate(-210.806615 0)" textLength="25.5642" font-size="12.4921" lengthAdjust="spacingAndGlyphs" text-anchor="middle" opacity="0.01" style="font-family:monospace">IC1</text>
</g>
<g class="stroked-text"><desc>IC1</desc>
<path d="M109.6402 116.4696 L100.2711 116.4696 "/>
<path d="M108.7479 126.2848 L109.1940 125.8387 "/>
<path d="M109.1940 125.8387 L109.6402 124.5002 "/>
<path d="M109.6402 124.5002 L109.6402 123.6079 "/>
<path d="M109.6402 123.6079 L109.1940 122.2695 "/>
<path d="M109.1940 122.2695 L108.3017 121.3772 "/>
<path d="M108.3017 121.3772 L107.4094 120.9310 "/>
<path d="M107.4094 120.9310 L105.6249 120.4849 "/>
<path d="M105.6249 120.4849 L104.2864 120.4849 "/>
<path d="M104.2864 120.4849 L102.5018 120.9310 "/>
<path d="M102.5018 120.9310 L101.6095 121.3772 "/>
<path d="M101.6095 121.3772 L100.7172 122.2695 "/>
<path d="M100.7172 122.2695 L100.2711 123.6079 "/>
<path d="M100.2711 123.6079 L100.2711 124.5002 "/>
<path d="M100.2711 124.5002 L100.7172 125.8387 "/>
<path d="M100.7172 125.8387 L101.1634 126.2848 "/>
<path d="M109.6402 135.2077 L109.6402 129.8540 "/>
<path d="M109.6402 132.5309 L100.2711 132.5309 "/>
<path d="M100.2711 132.5309 L101.6095 131.6386 "/>
<path d="M101.6095 131.6386 L102.5018 130.7463 "/>
<path d="M102.5018 130.7463 L102.9480 129.8540 "/>
</g></g>
<g style="fill:#000084; fill-opacity:0.01;  stroke:#000084; stroke-width:1.1066; stroke-opacity:1;  stroke-linecap:round; stroke-linejoin:round;">
<text x="135.3844" y="118.0386" transform="scale(-1 1) translate(-270.768760 0)" textLength="22.7201" font-size="9.8363" lengthAdjust="spacingAndGlyphs" text-anchor="middle" opacity="0.01" style="font-family:monospace">DNF</text>
<g class="stroked-text"><desc>DNF</desc>
<path d="M144.3424 117.7053 L144.3424 110.3281 "/>
<path d="M144.3424 110.3281 L142.5860 110.3281 "/>
<path d="M142.5860 110.3281 L141.5321 110.6794 "/>
<path d="M141.5321 110.6794 L140.8295 111.3820 "/>
<path d="M140.8295 111.3820 L140.4782 112.0846 "/>
<path d="M140.4782 112.0846 L140.1269 113.4898 "/>
<path d="M140.1269 113.4898 L140.1269 114.5437 "/>
<path d="M140.1269 114.5437 L140.4782 115.9488 "/>
<path d="M140.4782 115.9488 L140.8295 116.6514 "/>
<path d="M140.8295 116.6514 L141.5321 117.3540 "/>
<path d="M141.5321 117.3540 L142.5860 117.7053 "/>
<path d="M142.5860 117.7053 L144.3424 117.7053 "/>
<path d="M136.9652 117.7053 L136.9652 110.3281 "/>
<path d="M136.9652 110.3281 L132.7497 117.7053 "/>
<path d="M132.7497 117.7053 L132.7497 110.3281 "/>
<path d="M126.7776 113.8411 L129.2367 113.8411 "/>
<path d="M129.2367 117.7053 L129.2367 110.3281 "/>
<path d="M129.2367 110.3281 L125.7237 110.3281 "/>
</g></g>
<g style="fill:#000084; fill-opacity:0.01;  stroke:#000084; stroke-width:0.5902; stroke-opacity:1;  stroke-linecap:round; stroke-linejoin:round;">
<text x="165.3655" y="89.9836" transform="scale(-1 1) translate(-330.730905 0)" textLength="7.9393" font-size="4.9182" lengthAdjust="spacingAndGlyphs" text-anchor="middle" opacity="0.01" style="font-family:monospace">R2</text>
<g class="stroked-text"><desc>R2</desc>
<path d="M165.9802 89.8150 L167.2098 88.0585 "/>
<path d="M168.0880 89.8150 L168.0880 86.1264 "/>
<path d="M168.0880 86.1264 L166.6828 86.1264 "/>
<path d="M166.6828 86.1264 L166.3315 86.3020 "/>
<path d="M166.3315 86.3020 L166.1559 86.4777 "/>
<path d="M166.1559 86.4777 L165.9802 86.8290 "/>
<path d="M165.9802 86.8290 L165.9802 87.3559 "/>
<path d="M165.9802 87.3559 L166.1559 87.7072 "/>
<path d="M166.1559 87.7072 L166.3315 87.8828 "/>
<path d="M166.3315 87.8828 L166.6828 88.0585 "/>
<path d="M166.6828 88.0585 L168.0880 88.0585 "/>
<path d="M164.5750 86.4777 L164.3994 86.3020 "/>
<path d="M164.3994 86.3020 L164.0481 86.1264 "/>
<path d="M164.0481 86.1264 L163.1698 86.1264 "/>
<path d="M163.1698 86.1264 L162.8185 86.3020 "/>
<path d="M162.8185 86.3020 L162.6429 86.4777 "/>
<path d="M162.6429 86.4777 L162.4672 86.8290 "/>
<path d="M162.4672 86.8290 L162.4672 87.1803 "/>
<path d="M162.4672 87.1803 L162.6429 87.7072 "/>
<path d="M162.6429 87.7072 L164.7507 89.8150 "/>
<path d="M164.7507 89.8150 L162.4672 89.8150 "/>
</g></g>
<g style="fill:#000084; fill-opacity:0.0;  stroke:#000084; stroke-width:1.1066; stroke-opacity:1;  stroke-linecap:round; stroke-linejoin:round;">
<g transform="rotate(-90.000000 145.4764 126.1025)">
<text x="145.4764" y="129.7911" transform="scale(-1 1) translate(-290.952868 0)" textLength="28.3409" font-size="9.8363" lengthAdjust="spacingAndGlyphs" text-anchor="middle" opacity="0.01" style="font-family:monospace">10uF</text>
</g>
<g class="stroked-text"><desc>10uF</desc>
<path d="M148.8317 118.1983 L148.8317 113.9827 "/>
<path d="M148.8317 116.0905 L141.4545 116.0905 "/>
<path d="M141.4545 116.0905 L142.5084 115.3879 "/>
<path d="M142.5084 115.3879 L143.2110 114.6853 "/>
<path d="M143.2110 114.6853 L143.5623 113.9827 "/>
<path d="M141.4545 122.7652 L141.4545 123.4678 "/>
<path d="M141.4545 123.4678 L141.8058 124.1704 "/>
<path d="M141.8058 124.1704 L142.1571 124.5216 "/>
<path d="M142.1571 124.5216 L142.8597 124.8729 "/>
<path d="M142.8597 124.8729 L144.2649 125.2242 "/>
<path d="M144.2649 125.2242 L146.0214 125.2242 "/>
<path d="M146.0214 125.2242 L147.4265 124.8729 "/>
<path d="M147.4265 124.8729 L148.1291 124.5216 "/>
<path d="M148.1291 124.5216 L148.4804 124.1704 "/>
<path d="M148.4804 124.1704 L148.8317 123.4678 "/>
<path d="M148.8317 123.4678 L148.8317 122.7652 "/>
<path d="M148.8317 122.7652 L148.4804 122.0626 "/>
<path d="M148.4804 122.0626 L148.1291 121.7113 "/>
<path d="M148.1291 121.7113 L147.4265 121.3600 "/>
<path d="M147.4265 121.3600 L146.0214 121.0087 "/>
<path d="M146.0214 121.0087 L144.2649 121.0087 "/>
<path d="M144.2649 121.0087 L142.8597 121.3600 "/>
<path d="M142.8597 121.3600 L142.1571 121.7113 "/>
<path d="M142.1571 121.7113 L141.8058 122.0626 "/>
<path d="M141.8058 122.0626 L141.4545 122.7652 "/>
<path d="M143.9136 131.5476 L148.8317 131.5476 "/>
<path d="M143.9136 128.3859 L147.7778 128.3859 "/>
<path d="M147.7778 128.3859 L148.4804 128.7372 "/>
<path d="M148.4804 128.7372 L148.8317 129.4398 "/>
<path d="M148.8317 129.4398 L148.8317 130.4937 "/>
<path d="M148.8317 130.4937 L148.4804 131.1963 "/>
<path d="M148.4804 131.1963 L148.1291 131.5476 "/>
<path d="M144.9675 137.5196 L144.9675 135.0606 "/>
<path d="M148.8317 135.0606 L141.4545 135.0606 "/>
<path d="M141.4545 135.0606 L141.4545 138.5735 "/>
</g></g>
<g style="fill:#000084; fill-opacity:0.0;  stroke:#000084; stroke-width:0.5902; stroke-opacity:1;  stroke-linecap:round; stroke-linejoin:round;">
<g transform="rotate(-90.000000 157.8702 126.1025)">
<text x="157.8702" y="127.9468" transform="scale(-1 1) translate(-315.740369 0)" textLength="7.9393" font-size="4.9182" lengthAdjust="spacingAndGlyphs" text-anchor="middle" opacity="0.01" style="font-family:monospace">C1</text>
</g>
<g class="stroked-text"><desc>C1</desc>
<path d="M159.1946 125.4877 L159.3703 125.3121 "/>
<path d="M159.3703 125.3121 L159.5459 124.7851 "/>
<path d="M159.5459 124.7851 L159.5459 124.4338 "/>
<path d="M159.5459 124.4338 L159.3703 123.9069 "/>
<path d="M159.3703 123.9069 L159.0190 123.5556 "/>
<path d="M159.0190 123.5556 L158.6677 123.3799 "/>
<path d="M158.6677 123.3799 L157.9651 123.2043 "/>
<path d="M157.9651 123.2043 L157.4381 123.2043 "/>
<path d="M157.4381 123.2043 L156.7355 123.3799 "/>
<path d="M156.7355 123.3799 L156.3842 123.5556 "/>
<path d="M156.3842 123.5556 L156.0330 123.9069 "/>
<path d="M156.0330 123.9069 L155.8573 124.4338 "/>
<path d="M155.8573 124.4338 L155.8573 124.7851 "/>
<path d="M155.8573 124.7851 L156.0330 125.3121 "/>
<path d="M156.0330 125.3121 L156.2086 125.4877 "/>
<path d="M159.5459 129.0007 L159.5459 126.8929 "/>
<path d="M159.5459 127.9468 L155.8573 127.9468 "/>
<path d="M155.8573 127.9468 L156.3842 127.5955 "/>
<path d="M156.3842 127.5955 L156.7355 127.2442 "/>
<path d="M156.7355 127.2442 L156.9112 126.8929 "/>
</g></g>
<g style="fill:#000084; fill-opacity:0.01;  stroke:#000084; stroke-width:1.1066; stroke-opacity:1;  stroke-linecap:round; stroke-linejoin:round;">
<text x="148.5011" y="173.3020" transform="scale(-1 1) translate(-297.002198 0)" textLength="150.2409" font-size="9.8363" lengthAdjust="spacingAndGlyphs" text-anchor="middle" opacity="0.01" style="font-family:monospace">SolderJumper_3_Bridged12</text>
<g class="stroked-text"><desc>SolderJumper_3_Bridged12</desc>
<path d="M221.5708 172.6174 L220.5169 172.9687 "/>
<path d="M220.5169 172.9687 L218.7605 172.9687 "/>
<path d="M218.7605 172.9687 L218.0579 172.6174 "/>
<path d="M218.0579 172.6174 L217.7066 172.2661 "/>
<path d="M217.7066 172.2661 L217.3553 171.5635 "/>
<path d="M217.3553 171.5635 L217.3553 170.8609 "/>
<path d="M217.3553 170.8609 L217.7066 170.1583 "/>
<path d="M217.7066 170.1583 L218.0579 169.8070 "/>
<path d="M218.0579 169.8070 L218.7605 169.4557 "/>
<path d="M218.7605 169.4557 L220.1656 169.1044 "/>
<path d="M220.1656 169.1044 L220.8682 168.7531 "/>
<path d="M220.8682 168.7531 L221.2195 168.4018 "/>
<path d="M221.2195 168.4018 L221.5708 167.6993 "/>
<path d="M221.5708 167.6993 L221.5708 166.9967 "/>
<path d="M221.5708 166.9967 L221.2195 166.2941 "/>
<path d="M221.2195 166.2941 L220.8682 165.9428 "/>
<path d="M220.8682 165.9428 L220.1656 165.5915 "/>
<path d="M220.1656 165.5915 L218.4092 165.5915 "/>
<path d="M218.4092 165.5915 L217.3553 165.9428 "/>
<path d="M213.1397 172.9687 L213.8423 172.6174 "/>
<path d="M213.8423 172.6174 L214.1936 172.2661 "/>
<path d="M214.1936 172.2661 L214.5449 171.5635 "/>
<path d="M214.5449 171.5635 L214.5449 169.4557 "/>
<path d="M214.5449 169.4557 L214.1936 168.7531 "/>
<path d="M214.1936 168.7531 L213.8423 168.4018 "/>
<path d="M213.8423 168.4018 L213.1397 168.0506 "/>
<path d="M213.1397 168.0506 L212.0858 168.0506 "/>
<path d="M212.0858 168.0506 L211.3832 168.4018 "/>
<path d="M211.3832 168.4018 L211.0319 168.7531 "/>
<path d="M211.0319 168.7531 L210.6806 169.4557 "/>
<path d="M210.6806 169.4557 L210.6806 171.5635 "/>
<path d="M210.6806 171.5635 L211.0319 172.2661 "/>
<path d="M211.0319 172.2661 L211.3832 172.6174 "/>
<path d="M211.3832 172.6174 L212.0858 172.9687 "/>
<path d="M212.0858 172.9687 L213.1397 172.9687 "/>
<path d="M206.4651 172.9687 L207.1677 172.6174 "/>
<path d="M207.1677 172.6174 L207.5190 171.9148 "/>
<path d="M207.5190 171.9148 L207.5190 165.5915 "/>
<path d="M200.4930 172.9687 L200.4930 165.5915 "/>
<path d="M200.4930 172.6174 L201.1956 172.9687 "/>
<path d="M201.1956 172.9687 L202.6008 172.9687 "/>
<path d="M202.6008 172.9687 L203.3034 172.6174 "/>
<path d="M203.3034 172.6174 L203.6547 172.2661 "/>
<path d="M203.6547 172.2661 L204.0060 171.5635 "/>
<path d="M204.0060 171.5635 L204.0060 169.4557 "/>
<path d="M204.0060 169.4557 L203.6547 168.7531 "/>
<path d="M203.6547 168.7531 L203.3034 168.4018 "/>
<path d="M203.3034 168.4018 L202.6008 168.0506 "/>
<path d="M202.6008 168.0506 L201.1956 168.0506 "/>
<path d="M201.1956 168.0506 L200.4930 168.4018 "/>
<path d="M194.1697 172.6174 L194.8723 172.9687 "/>
<path d="M194.8723 172.9687 L196.2775 172.9687 "/>
<path d="M196.2775 172.9687 L196.9801 172.6174 "/>
<path d="M196.9801 172.6174 L197.3313 171.9148 "/>
<path d="M197.3313 171.9148 L197.3313 169.1044 "/>
<path d="M197.3313 169.1044 L196.9801 168.4018 "/>
<path d="M196.9801 168.4018 L196.2775 168.0506 "/>
<path d="M196.2775 168.0506 L194.8723 168.0506 "/>
<path d="M194.8723 168.0506 L194.1697 168.4018 "/>
<path d="M194.1697 168.4018 L193.8184 169.1044 "/>
<path d="M193.8184 169.1044 L193.8184 169.8070 "/>
<path d="M193.8184 169.8070 L197.3313 170.5096 "/>
<path d="M190.6567 172.9687 L190.6567 168.0506 "/>
<path d="M190.6567 169.4557 L190.3054 168.7531 "/>
<path d="M190.3054 168.7531 L189.9541 168.4018 "/>
<path d="M189.9541 168.4018 L189.2515 168.0506 "/>
<path d="M189.2515 168.0506 L188.5489 168.0506 "/>
<path d="M183.9821 165.5915 L183.9821 170.8609 "/>
<path d="M183.9821 170.8609 L184.3334 171.9148 "/>
<path d="M184.3334 171.9148 L185.0360 172.6174 "/>
<path d="M185.0360 172.6174 L186.0898 172.9687 "/>
<path d="M186.0898 172.9687 L186.7924 172.9687 "/>
<path d="M177.3074 168.0506 L177.3074 172.9687 "/>
<path d="M180.4691 168.0506 L180.4691 171.9148 "/>
<path d="M180.4691 171.9148 L180.1178 172.6174 "/>
<path d="M180.1178 172.6174 L179.4152 172.9687 "/>
<path d="M179.4152 172.9687 L178.3613 172.9687 "/>
<path d="M178.3613 172.9687 L177.6587 172.6174 "/>
<path d="M177.6587 172.6174 L177.3074 172.2661 "/>
<path d="M173.7945 172.9687 L173.7945 168.0506 "/>
<path d="M173.7945 168.7531 L173.4432 168.4018 "/>
<path d="M173.4432 168.4018 L172.7406 168.0506 "/>
<path d="M172.7406 168.0506 L171.6867 168.0506 "/>
<path d="M171.6867 168.0506 L170.9841 168.4018 "/>
<path d="M170.9841 168.4018 L170.6328 169.1044 "/>
<path d="M170.6328 169.1044 L170.6328 172.9687 "/>
<path d="M170.6328 169.1044 L170.2815 168.4018 "/>
<path d="M170.2815 168.4018 L169.5789 168.0506 "/>
<path d="M169.5789 168.0506 L168.5250 168.0506 "/>
<path d="M168.5250 168.0506 L167.8224 168.4018 "/>
<path d="M167.8224 168.4018 L167.4711 169.1044 "/>
<path d="M167.4711 169.1044 L167.4711 172.9687 "/>
<path d="M163.9581 168.0506 L163.9581 175.4278 "/>
<path d="M163.9581 168.4018 L163.2556 168.0506 "/>
<path d="M163.2556 168.0506 L161.8504 168.0506 "/>
<path d="M161.8504 168.0506 L161.1478 168.4018 "/>
<path d="M161.1478 168.4018 L160.7965 168.7531 "/>
<path d="M160.7965 168.7531 L160.4452 169.4557 "/>
<path d="M160.4452 169.4557 L160.4452 171.5635 "/>
<path d="M160.4452 171.5635 L160.7965 172.2661 "/>
<path d="M160.7965 172.2661 L161.1478 172.6174 "/>
<path d="M161.1478 172.6174 L161.8504 172.9687 "/>
<path d="M161.8504 172.9687 L163.2556 172.9687 "/>
<path d="M163.2556 172.9687 L163.9581 172.6174 "/>
<path d="M154.4731 172.6174 L155.1757 172.9687 "/>
<path d="M155.1757 172.9687 L156.5809 172.9687 "/>
<path d="M156.5809 172.9687 L157.2835 172.6174 "/>
<path d="M157.2835 172.6174 L157.6348 171.9148 "/>
<path d="M157.6348 171.9148 L157.6348 169.1044 "/>
<path d="M157.6348 169.1044 L157.2835 168.4018 "/>
<path d="M157.2835 168.4018 L156.5809 168.0506 "/>
<path d="M156.5809 168.0506 L155.1757 168.0506 "/>
<path d="M155.1757 168.0506 L154.4731 168.4018 "/>
<path d="M154.4731 168.4018 L154.1218 169.1044 "/>
<path d="M154.1218 169.1044 L154.1218 169.8070 "/>
<path d="M154.1218 169.8070 L157.6348 170.5096 "/>
<path d="M150.9602 172.9687 L150.9602 168.0506 "/>
<path d="M150.9602 169.4557 L150.6089 168.7531 "/>
<path d="M150.6089 168.7531 L150.2576 168.4018 "/>
<path d="M150.2576 168.4018 L149.5550 168.0506 "/>
<path d="M149.5550 168.0506 L148.8524 168.0506 "/>
<path d="M148.1498 173.6713 L142.5290 173.6713 "/>
<path d="M141.4751 165.5915 L136.9083 165.5915 "/>
<path d="M136.9083 165.5915 L139.3674 168.4018 "/>
<path d="M139.3674 168.4018 L138.3135 168.4018 "/>
<path d="M138.3135 168.4018 L137.6109 168.7531 "/>
<path d="M137.6109 168.7531 L137.2596 169.1044 "/>
<path d="M137.2596 169.1044 L136.9083 169.8070 "/>
<path d="M136.9083 169.8070 L136.9083 171.5635 "/>
<path d="M136.9083 171.5635 L137.2596 172.2661 "/>
<path d="M137.2596 172.2661 L137.6109 172.6174 "/>
<path d="M137.6109 172.6174 L138.3135 172.9687 "/>
<path d="M138.3135 172.9687 L140.4213 172.9687 "/>
<path d="M140.4213 172.9687 L141.1239 172.6174 "/>
<path d="M141.1239 172.6174 L141.4751 172.2661 "/>
<path d="M135.5031 173.6713 L129.8824 173.6713 "/>
<path d="M125.6668 169.1044 L124.6129 169.4557 "/>
<path d="M124.6129 169.4557 L124.2616 169.8070 "/>
<path d="M124.2616 169.8070 L123.9103 170.5096 "/>
<path d="M123.9103 170.5096 L123.9103 171.5635 "/>
<path d="M123.9103 171.5635 L124.2616 172.2661 "/>
<path d="M124.2616 172.2661 L124.6129 172.6174 "/>
<path d="M124.6129 172.6174 L125.3155 172.9687 "/>
<path d="M125.3155 172.9687 L128.1259 172.9687 "/>
<path d="M128.1259 172.9687 L128.1259 165.5915 "/>
<path d="M128.1259 165.5915 L125.6668 165.5915 "/>
<path d="M125.6668 165.5915 L124.9642 165.9428 "/>
<path d="M124.9642 165.9428 L124.6129 166.2941 "/>
<path d="M124.6129 166.2941 L124.2616 166.9967 "/>
<path d="M124.2616 166.9967 L124.2616 167.6993 "/>
<path d="M124.2616 167.6993 L124.6129 168.4018 "/>
<path d="M124.6129 168.4018 L124.9642 168.7531 "/>
<path d="M124.9642 168.7531 L125.6668 169.1044 "/>
<path d="M125.6668 169.1044 L128.1259 169.1044 "/>
<path d="M120.7486 172.9687 L120.7486 168.0506 "/>
<path d="M120.7486 169.4557 L120.3973 168.7531 "/>
<path d="M120.3973 168.7531 L120.0460 168.4018 "/>
<path d="M120.0460 168.4018 L119.3435 168.0506 "/>
<path d="M119.3435 168.0506 L118.6409 168.0506 "/>
<path d="M116.1818 172.9687 L116.1818 168.0506 "/>
<path d="M116.1818 165.5915 L116.5331 165.9428 "/>
<path d="M116.5331 165.9428 L116.1818 166.2941 "/>
<path d="M116.1818 166.2941 L115.8305 165.9428 "/>
<path d="M115.8305 165.9428 L116.1818 165.5915 "/>
<path d="M116.1818 165.5915 L116.1818 166.2941 "/>
<path d="M109.5071 172.9687 L109.5071 165.5915 "/>
<path d="M109.5071 172.6174 L110.2097 172.9687 "/>
<path d="M110.2097 172.9687 L111.6149 172.9687 "/>
<path d="M111.6149 172.9687 L112.3175 172.6174 "/>
<path d="M112.3175 172.6174 L112.6688 172.2661 "/>
<path d="M112.6688 172.2661 L113.0201 171.5635 "/>
<path d="M113.0201 171.5635 L113.0201 169.4557 "/>
<path d="M113.0201 169.4557 L112.6688 168.7531 "/>
<path d="M112.6688 168.7531 L112.3175 168.4018 "/>
<path d="M112.3175 168.4018 L111.6149 168.0506 "/>
<path d="M111.6149 168.0506 L110.2097 168.0506 "/>
<path d="M110.2097 168.0506 L109.5071 168.4018 "/>
<path d="M102.8325 168.0506 L102.8325 174.0226 "/>
<path d="M102.8325 174.0226 L103.1838 174.7252 "/>
<path d="M103.1838 174.7252 L103.5351 175.0765 "/>
<path d="M103.5351 175.0765 L104.2377 175.4278 "/>
<path d="M104.2377 175.4278 L105.2916 175.4278 "/>
<path d="M105.2916 175.4278 L105.9942 175.0765 "/>
<path d="M102.8325 172.6174 L103.5351 172.9687 "/>
<path d="M103.5351 172.9687 L104.9403 172.9687 "/>
<path d="M104.9403 172.9687 L105.6429 172.6174 "/>
<path d="M105.6429 172.6174 L105.9942 172.2661 "/>
<path d="M105.9942 172.2661 L106.3455 171.5635 "/>
<path d="M106.3455 171.5635 L106.3455 169.4557 "/>
<path d="M106.3455 169.4557 L105.9942 168.7531 "/>
<path d="M105.9942 168.7531 L105.6429 168.4018 "/>
<path d="M105.6429 168.4018 L104.9403 168.0506 "/>
<path d="M104.9403 168.0506 L103.5351 168.0506 "/>
<path d="M103.5351 168.0506 L102.8325 168.4018 "/>
<path d="M96.5092 172.6174 L97.2118 172.9687 "/>
<path d="M97.2118 172.9687 L98.6169 172.9687 "/>
<path d="M98.6169 172.9687 L99.3195 172.6174 "/>
<path d="M99.3195 172.6174 L99.6708 171.9148 "/>
<path d="M99.6708 171.9148 L99.6708 169.1044 "/>
<path d="M99.6708 169.1044 L99.3195 168.4018 "/>
<path d="M99.3195 168.4018 L98.6169 168.0506 "/>
<path d="M98.6169 168.0506 L97.2118 168.0506 "/>
<path d="M97.2118 168.0506 L96.5092 168.4018 "/>
<path d="M96.5092 168.4018 L96.1579 169.1044 "/>
<path d="M96.1579 169.1044 L96.1579 169.8070 "/>
<path d="M96.1579 169.8070 L99.6708 170.5096 "/>
<path d="M89.8345 172.9687 L89.8345 165.5915 "/>
<path d="M89.8345 172.6174 L90.5371 172.9687 "/>
<path d="M90.5371 172.9687 L91.9423 172.9687 "/>
<path d="M91.9423 172.9687 L92.6449 172.6174 "/>
<path d="M92.6449 172.6174 L92.9962 172.2661 "/>
<path d="M92.9962 172.2661 L93.3475 171.5635 "/>
<path d="M93.3475 171.5635 L93.3475 169.4557 "/>
<path d="M93.3475 169.4557 L92.9962 168.7531 "/>
<path d="M92.9962 168.7531 L92.6449 168.4018 "/>
<path d="M92.6449 168.4018 L91.9423 168.0506 "/>
<path d="M91.9423 168.0506 L90.5371 168.0506 "/>
<path d="M90.5371 168.0506 L89.8345 168.4018 "/>
<path d="M82.4573 172.9687 L86.6728 172.9687 "/>
<path d="M84.5651 172.9687 L84.5651 165.5915 "/>
<path d="M84.5651 165.5915 L85.2677 166.6454 "/>
<path d="M85.2677 166.6454 L85.9703 167.3480 "/>
<path d="M85.9703 167.3480 L86.6728 167.6993 "/>
<path d="M79.6469 166.2941 L79.2956 165.9428 "/>
<path d="M79.2956 165.9428 L78.5930 165.5915 "/>
<path d="M78.5930 165.5915 L76.8365 165.5915 "/>
<path d="M76.8365 165.5915 L76.1339 165.9428 "/>
<path d="M76.1339 165.9428 L75.7826 166.2941 "/>
<path d="M75.7826 166.2941 L75.4314 166.9967 "/>
<path d="M75.4314 166.9967 L75.4314 167.6993 "/>
<path d="M75.4314 167.6993 L75.7826 168.7531 "/>
<path d="M75.7826 168.7531 L79.9982 172.9687 "/>
<path d="M79.9982 172.9687 L75.4314 172.9687 "/>
</g></g>
<g style="fill:#000084; fill-opacity:0.0;  stroke:#000084; stroke-width:0.7377; stroke-opacity:1;  stroke-linecap:round; stroke-linejoin:round;">
<path d="M187.9693 92.7500 L202.7238 92.7500 "/>
<path d="M187.9693 83.5285 L187.9693 92.7500 "/>
<path d="M202.7238 92.7500 L202.7238 83.5285 "/>
<path d="M202.7238 83.5285 L187.9693 83.5285 "/>
<path d="M179.3453 133.4797 L179.3453 118.7253 "/>
<path d="M170.1238 118.7253 L170.1238 133.4797 "/>
<path d="M170.1238 133.4797 L179.3453 133.4797 "/>
<path d="M179.3453 118.7253 L170.1238 118.7253 "/>
<path d="M222.5095 124.0221 L222.5095 112.2185 "/>
<path d="M207.7550 118.1203 L207.7550 114.0628 "/>
<path d="M198.1646 124.0221 L222.5095 124.0221 "/>
<path d="M212.1814 115.1694 L207.7550 118.1203 "/>
<path d="M212.1814 121.0712 L212.1814 115.1694 "/>
<path d="M212.1814 118.1203 L215.8700 118.1203 "/>
<path d="M198.1646 112.2185 L198.1646 124.0221 "/>
<path d="M204.8041 118.1203 L207.7550 118.1203 "/>
<path d="M222.5095 112.2185 L198.1646 112.2185 "/>
<path d="M207.7550 118.1203 L212.1814 121.0712 "/>
<path d="M207.7550 118.1203 L207.7550 122.1778 "/>
</g>
<g style="fill:#000084; fill-opacity:0.0;  stroke:#000084; stroke-width:1.8738; stroke-opacity:1;  stroke-linecap:round; stroke-linejoin:round;">
<path d="M147.0994 114.5497 L112.4264 114.5497 "/>
<path d="M112.4264 114.5497 L112.4264 136.6814 "/>
<path d="M112.4264 136.6814 L147.0994 136.6814 "/>
<path d="M147.0994 136.6814 L147.0994 114.5497 "/>
</g>
<g style="fill:#000084; fill-opacity:0.0;  stroke:#000084; stroke-width:0.7377; stroke-opacity:1;  stroke-linecap:round; stroke-linejoin:round;">
<path d="M157.9882 83.5285 L157.9882 92.7500 "/>
<path d="M172.7427 92.7500 L172.7427 83.5285 "/>
<path d="M157.9882 92.7500 L172.7427 92.7500 "/>
<path d="M172.7427 83.5285 L157.9882 83.5285 "/>
<path d="M162.4810 118.7253 L153.2594 118.7253 "/>
<path d="M153.2594 133.4797 L162.4810 133.4797 "/>
<path d="M153.2594 118.7253 L153.2594 133.4797 "/>
<path d="M162.4810 133.4797 L162.4810 118.7253 "/>
<g>
</g>
<g>
</g>
<g>
</g>
<g>
</g>
<g>
</g>
<g>
</g>
<g>
</g>
<g>
</g>
<g>
</g>
<g>
</g>
<g>
</g>
<g>
</g>
<g>
</g>
<g>
</g>
<g>
</g>
<g>
</g>
<g>
</g>
</g> 
<svg:g><svg:g><svg:title>SVG Image created as ALTIMET02-Edge_Cuts.svg date 2023/07/05 13:23:35 </svg:title>
  <svg:desc>Image generated by PCBNEW </svg:desc>
<svg:g style="fill:#C2C200; fill-opacity:1.0000;stroke:#C2C200; stroke-opacity:1.0000; stroke-linecap:round; stroke-linejoin:round;" transform="translate(0 0) scale(1 1)">
</svg:g>
<svg:g style="fill:#C2C200; fill-opacity:0.0;  stroke:#C2C200; stroke-width:0.0000; stroke-opacity:1;  stroke-linecap:round; stroke-linejoin:round;">
</svg:g>
<svg:g style="fill:#C2C200; fill-opacity:0.0;  stroke:#C2C200; stroke-width:0.9369; stroke-opacity:1;  stroke-linecap:round; stroke-linejoin:round;">
<svg:path d="M0.4696 178.0825 L0.4696 31.9247 "/>
<svg:path d="M0.4696 31.9247 L296.5326 31.9247 "/>
<svg:path d="M296.5326 178.0825 L0.4696 178.0825 "/>
<svg:path d="M296.5326 31.9247 L296.5326 178.0825 "/>
<svg:g>
</svg:g>
<svg:g>
</svg:g>
<svg:g>
</svg:g>
<svg:g>
</svg:g>
<svg:g>
</svg:g>
<svg:g>
</svg:g>
<svg:g>
</svg:g>
<svg:g>
</svg:g>
<svg:g>
</svg:g>
<svg:g>
</svg:g>
<svg:g>
</svg:g>
<svg:g>
</svg:g>
<svg:g>
</svg:g>
<svg:g>
</svg:g>
<svg:g>
</svg:g>
<svg:g>
</svg:g>
<svg:g>
</svg:g>
</svg:g> 
</svg:g></svg:g></svg>
