%TF.GenerationSoftware,KiCad,Pcbnew,7.0.7-7.0.7~ubuntu23.04.1*%
%TF.CreationDate,2023-09-06T12:28:47+00:00*%
%TF.ProjectId,ALTIMET02,414c5449-4d45-4543-9032-2e6b69636164,rev?*%
%TF.SameCoordinates,Original*%
%TF.FileFunction,Copper,L1,Top*%
%TF.FilePolarity,Positive*%
%FSLAX46Y46*%
G04 Gerber Fmt 4.6, Leading zero omitted, Abs format (unit mm)*
G04 Created by KiCad (PCBNEW 7.0.7-7.0.7~ubuntu23.04.1) date 2023-09-06 12:28:47*
%MOMM*%
%LPD*%
G01*
G04 APERTURE LIST*
G04 Aperture macros list*
%AMFreePoly0*
4,1,19,0.550000,-0.750000,0.000000,-0.750000,0.000000,-0.744911,-0.071157,-0.744911,-0.207708,-0.704816,-0.327430,-0.627875,-0.420627,-0.520320,-0.479746,-0.390866,-0.500000,-0.250000,-0.500000,0.250000,-0.479746,0.390866,-0.420627,0.520320,-0.327430,0.627875,-0.207708,0.704816,-0.071157,0.744911,0.000000,0.744911,0.000000,0.750000,0.550000,0.750000,0.550000,-0.750000,0.550000,-0.750000,
$1*%
%AMFreePoly1*
4,1,19,0.000000,0.744911,0.071157,0.744911,0.207708,0.704816,0.327430,0.627875,0.420627,0.520320,0.479746,0.390866,0.500000,0.250000,0.500000,-0.250000,0.479746,-0.390866,0.420627,-0.520320,0.327430,-0.627875,0.207708,-0.704816,0.071157,-0.744911,0.000000,-0.744911,0.000000,-0.750000,-0.550000,-0.750000,-0.550000,0.750000,0.000000,0.750000,0.000000,0.744911,0.000000,0.744911,
$1*%
G04 Aperture macros list end*
%ADD10C,0.150000*%
%TA.AperFunction,NonConductor*%
%ADD11C,0.150000*%
%TD*%
%TA.AperFunction,ComponentPad*%
%ADD12R,1.524000X1.524000*%
%TD*%
%TA.AperFunction,ComponentPad*%
%ADD13C,6.000000*%
%TD*%
%TA.AperFunction,SMDPad,CuDef*%
%ADD14FreePoly0,180.000000*%
%TD*%
%TA.AperFunction,SMDPad,CuDef*%
%ADD15R,1.000000X1.500000*%
%TD*%
%TA.AperFunction,SMDPad,CuDef*%
%ADD16FreePoly1,180.000000*%
%TD*%
%TA.AperFunction,ViaPad*%
%ADD17C,0.800000*%
%TD*%
%TA.AperFunction,Conductor*%
%ADD18C,0.508000*%
%TD*%
%TA.AperFunction,Conductor*%
%ADD19C,0.381000*%
%TD*%
G04 APERTURE END LIST*
D10*
D11*
X114101905Y-107134819D02*
X114101905Y-106134819D01*
X114101905Y-106134819D02*
X114435238Y-106849104D01*
X114435238Y-106849104D02*
X114768571Y-106134819D01*
X114768571Y-106134819D02*
X114768571Y-107134819D01*
X115720952Y-107134819D02*
X115244762Y-107134819D01*
X115244762Y-107134819D02*
X115244762Y-106134819D01*
X116006667Y-106849104D02*
X116482857Y-106849104D01*
X115911429Y-107134819D02*
X116244762Y-106134819D01*
X116244762Y-106134819D02*
X116578095Y-107134819D01*
X117244762Y-106611009D02*
X117387619Y-106658628D01*
X117387619Y-106658628D02*
X117435238Y-106706247D01*
X117435238Y-106706247D02*
X117482857Y-106801485D01*
X117482857Y-106801485D02*
X117482857Y-106944342D01*
X117482857Y-106944342D02*
X117435238Y-107039580D01*
X117435238Y-107039580D02*
X117387619Y-107087200D01*
X117387619Y-107087200D02*
X117292381Y-107134819D01*
X117292381Y-107134819D02*
X116911429Y-107134819D01*
X116911429Y-107134819D02*
X116911429Y-106134819D01*
X116911429Y-106134819D02*
X117244762Y-106134819D01*
X117244762Y-106134819D02*
X117340000Y-106182438D01*
X117340000Y-106182438D02*
X117387619Y-106230057D01*
X117387619Y-106230057D02*
X117435238Y-106325295D01*
X117435238Y-106325295D02*
X117435238Y-106420533D01*
X117435238Y-106420533D02*
X117387619Y-106515771D01*
X117387619Y-106515771D02*
X117340000Y-106563390D01*
X117340000Y-106563390D02*
X117244762Y-106611009D01*
X117244762Y-106611009D02*
X116911429Y-106611009D01*
X117911429Y-107039580D02*
X117959048Y-107087200D01*
X117959048Y-107087200D02*
X117911429Y-107134819D01*
X117911429Y-107134819D02*
X117863810Y-107087200D01*
X117863810Y-107087200D02*
X117911429Y-107039580D01*
X117911429Y-107039580D02*
X117911429Y-107134819D01*
X118816190Y-107087200D02*
X118720952Y-107134819D01*
X118720952Y-107134819D02*
X118530476Y-107134819D01*
X118530476Y-107134819D02*
X118435238Y-107087200D01*
X118435238Y-107087200D02*
X118387619Y-107039580D01*
X118387619Y-107039580D02*
X118340000Y-106944342D01*
X118340000Y-106944342D02*
X118340000Y-106658628D01*
X118340000Y-106658628D02*
X118387619Y-106563390D01*
X118387619Y-106563390D02*
X118435238Y-106515771D01*
X118435238Y-106515771D02*
X118530476Y-106468152D01*
X118530476Y-106468152D02*
X118720952Y-106468152D01*
X118720952Y-106468152D02*
X118816190Y-106515771D01*
X119149524Y-106468152D02*
X119673333Y-106468152D01*
X119673333Y-106468152D02*
X119149524Y-107134819D01*
X119149524Y-107134819D02*
X119673333Y-107134819D01*
%TA.AperFunction,EtchedComponent*%
%TO.C,JP3*%
G36*
X131065000Y-113926000D02*
G01*
X130565000Y-113926000D01*
X130565000Y-113326000D01*
X131065000Y-113326000D01*
X131065000Y-113926000D01*
G37*
%TD.AperFunction*%
%TD*%
D12*
%TO.P,J3,1*%
%TO.N,GND*%
X141478000Y-99314000D03*
%TO.P,J3,2*%
X141478000Y-101854000D03*
%TO.P,J3,3*%
%TO.N,SCLK*%
X138938000Y-99314000D03*
%TO.P,J3,4*%
X138938000Y-101854000D03*
%TO.P,J3,5*%
%TO.N,VDD*%
X136398000Y-99314000D03*
%TO.P,J3,6*%
X136398000Y-101854000D03*
%TO.P,J3,7*%
%TO.N,MOSI{slash}SDA*%
X133858000Y-99314000D03*
%TO.P,J3,8*%
X133858000Y-101854000D03*
%TO.P,J3,9*%
%TO.N,GND*%
X131318000Y-99314000D03*
%TO.P,J3,10*%
X131318000Y-101854000D03*
%TD*%
%TO.P,J1,1*%
%TO.N,MISO*%
X126492000Y-99314000D03*
%TO.P,J1,2*%
X126492000Y-101854000D03*
%TO.P,J1,3*%
%TO.N,CS{slash}A*%
X123952000Y-99314000D03*
%TO.P,J1,4*%
X123952000Y-101854000D03*
%TD*%
D13*
%TO.P,H1,1,1*%
%TO.N,GND*%
X147320000Y-111760000D03*
%TD*%
%TO.P,H4,1,1*%
%TO.N,GND*%
X116840000Y-101600000D03*
%TD*%
D12*
%TO.P,J2,1*%
%TO.N,GND*%
X136144000Y-114300000D03*
%TO.P,J2,2*%
X136144000Y-111760000D03*
%TO.P,J2,3*%
%TO.N,VDD*%
X138684000Y-114300000D03*
%TO.P,J2,4*%
X138684000Y-111760000D03*
%TO.P,J2,5*%
%TO.N,GND*%
X141224000Y-114300000D03*
%TO.P,J2,6*%
X141224000Y-111760000D03*
%TD*%
D14*
%TO.P,JP3,1,A*%
%TO.N,VDD*%
X131465000Y-113626000D03*
D15*
%TO.P,JP3,2,C*%
%TO.N,CS{slash}A*%
X130165000Y-113626000D03*
D16*
%TO.P,JP3,3,B*%
%TO.N,GND*%
X128865000Y-113626000D03*
%TD*%
D13*
%TO.P,H3,1,1*%
%TO.N,GND*%
X147320000Y-101600000D03*
%TD*%
%TO.P,H2,1,1*%
%TO.N,GND*%
X116840000Y-111760000D03*
%TD*%
D17*
%TO.N,VDD*%
X138684000Y-106934000D03*
%TO.N,CS{slash}A*%
X128071400Y-110490000D03*
%TO.N,GND*%
X127254000Y-114808000D03*
X133350000Y-106426000D03*
X134366000Y-106426000D03*
X136398000Y-106426000D03*
X142748000Y-106680000D03*
X127254000Y-112776000D03*
X135382000Y-106426000D03*
X143764000Y-108712000D03*
X129286000Y-110490000D03*
X127254000Y-113792000D03*
X141732000Y-106680000D03*
%TD*%
D18*
%TO.N,VDD*%
X138684000Y-106934000D02*
X136398000Y-104648000D01*
X136398000Y-104648000D02*
X136398000Y-101854000D01*
D19*
%TO.N,CS{slash}A*%
X130165000Y-112583600D02*
X130165000Y-113626000D01*
X128071400Y-110490000D02*
X130165000Y-112583600D01*
%TD*%
%TA.AperFunction,Conductor*%
%TO.N,GND*%
G36*
X136320742Y-112202788D02*
G01*
X136373857Y-112248182D01*
X136393997Y-112315086D01*
X136394000Y-112315930D01*
X136394000Y-113743934D01*
X136374315Y-113810973D01*
X136321511Y-113856728D01*
X136252353Y-113866672D01*
X136233453Y-113862426D01*
X136210998Y-113855500D01*
X136110688Y-113855500D01*
X136110680Y-113855500D01*
X136036481Y-113866684D01*
X135967256Y-113857211D01*
X135914142Y-113811816D01*
X135894003Y-113744912D01*
X135894000Y-113744069D01*
X135894000Y-112316065D01*
X135913685Y-112249026D01*
X135966489Y-112203271D01*
X136035647Y-112193327D01*
X136054542Y-112197572D01*
X136077002Y-112204500D01*
X136077004Y-112204500D01*
X136177311Y-112204500D01*
X136177312Y-112204500D01*
X136251518Y-112193315D01*
X136320742Y-112202788D01*
G37*
%TD.AperFunction*%
%TA.AperFunction,Conductor*%
G36*
X141400742Y-112202788D02*
G01*
X141453857Y-112248182D01*
X141473997Y-112315086D01*
X141474000Y-112315930D01*
X141474000Y-113743934D01*
X141454315Y-113810973D01*
X141401511Y-113856728D01*
X141332353Y-113866672D01*
X141313453Y-113862426D01*
X141290998Y-113855500D01*
X141190688Y-113855500D01*
X141190680Y-113855500D01*
X141116481Y-113866684D01*
X141047256Y-113857211D01*
X140994142Y-113811816D01*
X140974003Y-113744912D01*
X140974000Y-113744069D01*
X140974000Y-112316065D01*
X140993685Y-112249026D01*
X141046489Y-112203271D01*
X141115647Y-112193327D01*
X141134542Y-112197572D01*
X141157002Y-112204500D01*
X141157004Y-112204500D01*
X141257311Y-112204500D01*
X141257312Y-112204500D01*
X141331518Y-112193315D01*
X141400742Y-112202788D01*
G37*
%TD.AperFunction*%
%TA.AperFunction,Conductor*%
G36*
X131494742Y-99756788D02*
G01*
X131547857Y-99802182D01*
X131567997Y-99869086D01*
X131568000Y-99869930D01*
X131568000Y-101297934D01*
X131548315Y-101364973D01*
X131495511Y-101410728D01*
X131426353Y-101420672D01*
X131407453Y-101416426D01*
X131384998Y-101409500D01*
X131284688Y-101409500D01*
X131284680Y-101409500D01*
X131210481Y-101420684D01*
X131141256Y-101411211D01*
X131088142Y-101365816D01*
X131068003Y-101298912D01*
X131068000Y-101298069D01*
X131068000Y-99870065D01*
X131087685Y-99803026D01*
X131140489Y-99757271D01*
X131209647Y-99747327D01*
X131228542Y-99751572D01*
X131251002Y-99758500D01*
X131251004Y-99758500D01*
X131351311Y-99758500D01*
X131351312Y-99758500D01*
X131425518Y-99747315D01*
X131494742Y-99756788D01*
G37*
%TD.AperFunction*%
%TA.AperFunction,Conductor*%
G36*
X141654742Y-99756788D02*
G01*
X141707857Y-99802182D01*
X141727997Y-99869086D01*
X141728000Y-99869930D01*
X141728000Y-101297934D01*
X141708315Y-101364973D01*
X141655511Y-101410728D01*
X141586353Y-101420672D01*
X141567453Y-101416426D01*
X141544998Y-101409500D01*
X141444688Y-101409500D01*
X141444680Y-101409500D01*
X141370481Y-101420684D01*
X141301256Y-101411211D01*
X141248142Y-101365816D01*
X141228003Y-101298912D01*
X141228000Y-101298069D01*
X141228000Y-99870065D01*
X141247685Y-99803026D01*
X141300489Y-99757271D01*
X141369647Y-99747327D01*
X141388542Y-99751572D01*
X141411002Y-99758500D01*
X141411004Y-99758500D01*
X141511311Y-99758500D01*
X141511312Y-99758500D01*
X141585518Y-99747315D01*
X141654742Y-99756788D01*
G37*
%TD.AperFunction*%
%TA.AperFunction,Conductor*%
G36*
X151581039Y-97301685D02*
G01*
X151626794Y-97354489D01*
X151638000Y-97406000D01*
X151638000Y-115954000D01*
X151618315Y-116021039D01*
X151565511Y-116066794D01*
X151514000Y-116078000D01*
X112646000Y-116078000D01*
X112578961Y-116058315D01*
X112533206Y-116005511D01*
X112522000Y-115954000D01*
X112522000Y-115109844D01*
X134882000Y-115109844D01*
X134888401Y-115169372D01*
X134888403Y-115169379D01*
X134938645Y-115304086D01*
X134938649Y-115304093D01*
X135024809Y-115419187D01*
X135024812Y-115419190D01*
X135139906Y-115505350D01*
X135139913Y-115505354D01*
X135274620Y-115555596D01*
X135274627Y-115555598D01*
X135334155Y-115561999D01*
X135334172Y-115562000D01*
X135894000Y-115562000D01*
X135894000Y-114856065D01*
X135913685Y-114789026D01*
X135966489Y-114743271D01*
X136035647Y-114733327D01*
X136054542Y-114737572D01*
X136077002Y-114744500D01*
X136077004Y-114744500D01*
X136177311Y-114744500D01*
X136177312Y-114744500D01*
X136251518Y-114733315D01*
X136320742Y-114742788D01*
X136373857Y-114788182D01*
X136393997Y-114855086D01*
X136394000Y-114855930D01*
X136394000Y-115562000D01*
X136953828Y-115562000D01*
X136953844Y-115561999D01*
X137013372Y-115555598D01*
X137013379Y-115555596D01*
X137148086Y-115505354D01*
X137148093Y-115505350D01*
X137263187Y-115419190D01*
X137263188Y-115419189D01*
X137314420Y-115350752D01*
X137370353Y-115308880D01*
X137440045Y-115303896D01*
X137501368Y-115337381D01*
X137512953Y-115350750D01*
X137540269Y-115387239D01*
X137564187Y-115419190D01*
X137564455Y-115419547D01*
X137679664Y-115505793D01*
X137679671Y-115505797D01*
X137814517Y-115556091D01*
X137814516Y-115556091D01*
X137821444Y-115556835D01*
X137874127Y-115562500D01*
X139493872Y-115562499D01*
X139553483Y-115556091D01*
X139688331Y-115505796D01*
X139803546Y-115419546D01*
X139855047Y-115350749D01*
X139910979Y-115308880D01*
X139980671Y-115303896D01*
X140041994Y-115337381D01*
X140053579Y-115350751D01*
X140104813Y-115419190D01*
X140219906Y-115505350D01*
X140219913Y-115505354D01*
X140354620Y-115555596D01*
X140354627Y-115555598D01*
X140414155Y-115561999D01*
X140414172Y-115562000D01*
X140974000Y-115562000D01*
X140974000Y-114856065D01*
X140993685Y-114789026D01*
X141046489Y-114743271D01*
X141115647Y-114733327D01*
X141134542Y-114737572D01*
X141157002Y-114744500D01*
X141157004Y-114744500D01*
X141257311Y-114744500D01*
X141257312Y-114744500D01*
X141331518Y-114733315D01*
X141400742Y-114742788D01*
X141453857Y-114788182D01*
X141473997Y-114855086D01*
X141474000Y-114855930D01*
X141474000Y-115562000D01*
X142033828Y-115562000D01*
X142033844Y-115561999D01*
X142093372Y-115555598D01*
X142093379Y-115555596D01*
X142228086Y-115505354D01*
X142228093Y-115505350D01*
X142343187Y-115419190D01*
X142343190Y-115419187D01*
X142429350Y-115304093D01*
X142429354Y-115304086D01*
X142479596Y-115169379D01*
X142479598Y-115169372D01*
X142485999Y-115109844D01*
X142486000Y-115109827D01*
X142486000Y-114550000D01*
X141778361Y-114550000D01*
X141711322Y-114530315D01*
X141665567Y-114477511D01*
X141655623Y-114408353D01*
X141657467Y-114398421D01*
X141672264Y-114333593D01*
X141672264Y-114333590D01*
X141661557Y-114190705D01*
X141663296Y-114190574D01*
X141666894Y-114131855D01*
X141708192Y-114075497D01*
X141773403Y-114050413D01*
X141783512Y-114050000D01*
X142486000Y-114050000D01*
X142486000Y-113490172D01*
X142485999Y-113490155D01*
X142479598Y-113430627D01*
X142479596Y-113430620D01*
X142429354Y-113295913D01*
X142429350Y-113295906D01*
X142343191Y-113180813D01*
X142274334Y-113129267D01*
X142232463Y-113073333D01*
X142227479Y-113003641D01*
X142260964Y-112942318D01*
X142274334Y-112930733D01*
X142343191Y-112879186D01*
X142429350Y-112764093D01*
X142429354Y-112764086D01*
X142479596Y-112629379D01*
X142479598Y-112629372D01*
X142485999Y-112569844D01*
X142486000Y-112569827D01*
X142486000Y-112010000D01*
X141778361Y-112010000D01*
X141711322Y-111990315D01*
X141665567Y-111937511D01*
X141655623Y-111868353D01*
X141657467Y-111858421D01*
X141672264Y-111793593D01*
X141672264Y-111793590D01*
X141661557Y-111650705D01*
X141663296Y-111650574D01*
X141666894Y-111591855D01*
X141708192Y-111535497D01*
X141773403Y-111510413D01*
X141783512Y-111510000D01*
X142486000Y-111510000D01*
X142486000Y-110950172D01*
X142485999Y-110950155D01*
X142479598Y-110890627D01*
X142479596Y-110890620D01*
X142429354Y-110755913D01*
X142429350Y-110755906D01*
X142343190Y-110640812D01*
X142343187Y-110640809D01*
X142228093Y-110554649D01*
X142228086Y-110554645D01*
X142093379Y-110504403D01*
X142093372Y-110504401D01*
X142033844Y-110498000D01*
X141474000Y-110498000D01*
X141474000Y-111203934D01*
X141454315Y-111270973D01*
X141401511Y-111316728D01*
X141332353Y-111326672D01*
X141313453Y-111322426D01*
X141290998Y-111315500D01*
X141190688Y-111315500D01*
X141190680Y-111315500D01*
X141116481Y-111326684D01*
X141047256Y-111317211D01*
X140994142Y-111271816D01*
X140974003Y-111204912D01*
X140974000Y-111204069D01*
X140974000Y-110498000D01*
X140414155Y-110498000D01*
X140354627Y-110504401D01*
X140354620Y-110504403D01*
X140219913Y-110554645D01*
X140219906Y-110554649D01*
X140104812Y-110640809D01*
X140053578Y-110709249D01*
X139997644Y-110751119D01*
X139927952Y-110756103D01*
X139866630Y-110722617D01*
X139855046Y-110709248D01*
X139803547Y-110640455D01*
X139803544Y-110640452D01*
X139688335Y-110554206D01*
X139688328Y-110554202D01*
X139553482Y-110503908D01*
X139553483Y-110503908D01*
X139493883Y-110497501D01*
X139493881Y-110497500D01*
X139493873Y-110497500D01*
X139493864Y-110497500D01*
X137874129Y-110497500D01*
X137874123Y-110497501D01*
X137814516Y-110503908D01*
X137679671Y-110554202D01*
X137679664Y-110554206D01*
X137564455Y-110640452D01*
X137512953Y-110709249D01*
X137457018Y-110751120D01*
X137387327Y-110756103D01*
X137326004Y-110722617D01*
X137314420Y-110709248D01*
X137263186Y-110640808D01*
X137148093Y-110554649D01*
X137148086Y-110554645D01*
X137013379Y-110504403D01*
X137013372Y-110504401D01*
X136953844Y-110498000D01*
X136394000Y-110498000D01*
X136394000Y-111203934D01*
X136374315Y-111270973D01*
X136321511Y-111316728D01*
X136252353Y-111326672D01*
X136233453Y-111322426D01*
X136210998Y-111315500D01*
X136110688Y-111315500D01*
X136110680Y-111315500D01*
X136036481Y-111326684D01*
X135967256Y-111317211D01*
X135914142Y-111271816D01*
X135894003Y-111204912D01*
X135894000Y-111204069D01*
X135894000Y-110498000D01*
X135334155Y-110498000D01*
X135274627Y-110504401D01*
X135274620Y-110504403D01*
X135139913Y-110554645D01*
X135139906Y-110554649D01*
X135024812Y-110640809D01*
X135024809Y-110640812D01*
X134938649Y-110755906D01*
X134938645Y-110755913D01*
X134888403Y-110890620D01*
X134888401Y-110890627D01*
X134882000Y-110950155D01*
X134882000Y-111510000D01*
X135589639Y-111510000D01*
X135656678Y-111529685D01*
X135702433Y-111582489D01*
X135712377Y-111651647D01*
X135710532Y-111661578D01*
X135695736Y-111726407D01*
X135695735Y-111726408D01*
X135706443Y-111869295D01*
X135704703Y-111869425D01*
X135701106Y-111928145D01*
X135659808Y-111984503D01*
X135594597Y-112009587D01*
X135584488Y-112010000D01*
X134882000Y-112010000D01*
X134882000Y-112569844D01*
X134888401Y-112629372D01*
X134888403Y-112629379D01*
X134938645Y-112764086D01*
X134938649Y-112764093D01*
X135024809Y-112879187D01*
X135093666Y-112930734D01*
X135135536Y-112986668D01*
X135140520Y-113056359D01*
X135107034Y-113117682D01*
X135093666Y-113129266D01*
X135024809Y-113180812D01*
X134938649Y-113295906D01*
X134938645Y-113295913D01*
X134888403Y-113430620D01*
X134888401Y-113430627D01*
X134882000Y-113490155D01*
X134882000Y-114050000D01*
X135589639Y-114050000D01*
X135656678Y-114069685D01*
X135702433Y-114122489D01*
X135712377Y-114191647D01*
X135710532Y-114201578D01*
X135704418Y-114228369D01*
X135695736Y-114266407D01*
X135695735Y-114266408D01*
X135706443Y-114409295D01*
X135704703Y-114409425D01*
X135701106Y-114468145D01*
X135659808Y-114524503D01*
X135594597Y-114549587D01*
X135584488Y-114550000D01*
X134882000Y-114550000D01*
X134882000Y-115109844D01*
X112522000Y-115109844D01*
X112522000Y-110490000D01*
X127165940Y-110490000D01*
X127185726Y-110678256D01*
X127185727Y-110678259D01*
X127244218Y-110858277D01*
X127244221Y-110858284D01*
X127338867Y-111022216D01*
X127465528Y-111162888D01*
X127465529Y-111162888D01*
X127618665Y-111274148D01*
X127618670Y-111274151D01*
X127791592Y-111351142D01*
X127791593Y-111351142D01*
X127791597Y-111351144D01*
X127963587Y-111387701D01*
X128025069Y-111420893D01*
X128025488Y-111421310D01*
X129169376Y-112565197D01*
X129202861Y-112626520D01*
X129197877Y-112696211D01*
X129170908Y-112768517D01*
X129164501Y-112828116D01*
X129164500Y-112828135D01*
X129164500Y-114423870D01*
X129164501Y-114423876D01*
X129170908Y-114483483D01*
X129221202Y-114618328D01*
X129221206Y-114618335D01*
X129307452Y-114733544D01*
X129307455Y-114733547D01*
X129422664Y-114819793D01*
X129422671Y-114819797D01*
X129557517Y-114870091D01*
X129557516Y-114870091D01*
X129564444Y-114870835D01*
X129617127Y-114876500D01*
X130712872Y-114876499D01*
X130772483Y-114870091D01*
X130772494Y-114870086D01*
X130773094Y-114869946D01*
X130774342Y-114869890D01*
X130780195Y-114869261D01*
X130780234Y-114869626D01*
X130819262Y-114867882D01*
X130915000Y-114881647D01*
X130915003Y-114881647D01*
X131536886Y-114881647D01*
X131536889Y-114881647D01*
X131679345Y-114861165D01*
X131817300Y-114820658D01*
X131948216Y-114760871D01*
X132069164Y-114683143D01*
X132069169Y-114683140D01*
X132069166Y-114683143D01*
X132177939Y-114588891D01*
X132177941Y-114588889D01*
X132272088Y-114480237D01*
X132272090Y-114480233D01*
X132272097Y-114480226D01*
X132349904Y-114359155D01*
X132349907Y-114359147D01*
X132349910Y-114359143D01*
X132392261Y-114266407D01*
X132409632Y-114228370D01*
X132409632Y-114228369D01*
X132409632Y-114228367D01*
X132409814Y-114227970D01*
X132410250Y-114226262D01*
X132450180Y-114090277D01*
X132470642Y-113947962D01*
X132470642Y-113891603D01*
X132470647Y-113891585D01*
X132470647Y-113840236D01*
X132470647Y-113411764D01*
X132470646Y-113411764D01*
X132470646Y-113360476D01*
X132470642Y-113360396D01*
X132470642Y-113304039D01*
X132470642Y-113304038D01*
X132452925Y-113180812D01*
X132450529Y-113164147D01*
X132450180Y-113161722D01*
X132440650Y-113129266D01*
X132409632Y-113023630D01*
X132409116Y-113022500D01*
X132349910Y-112892856D01*
X132349897Y-112892833D01*
X132272103Y-112771783D01*
X132272088Y-112771762D01*
X132177943Y-112663113D01*
X132177940Y-112663110D01*
X132069170Y-112568861D01*
X132033937Y-112546218D01*
X131948221Y-112491131D01*
X131948217Y-112491129D01*
X131948216Y-112491129D01*
X131817300Y-112431342D01*
X131679345Y-112390835D01*
X131679342Y-112390834D01*
X131536889Y-112370353D01*
X130915000Y-112370353D01*
X130914991Y-112370353D01*
X130913204Y-112370417D01*
X130845507Y-112353128D01*
X130797904Y-112301985D01*
X130792860Y-112290484D01*
X130781344Y-112260118D01*
X130775748Y-112252011D01*
X130764725Y-112232466D01*
X130760688Y-112223495D01*
X130722972Y-112175355D01*
X130720774Y-112172368D01*
X130686020Y-112122017D01*
X130649341Y-112089522D01*
X130640237Y-112081456D01*
X130637525Y-112078904D01*
X128999481Y-110440860D01*
X128965996Y-110379537D01*
X128963841Y-110366138D01*
X128957074Y-110301748D01*
X128957074Y-110301745D01*
X128957072Y-110301740D01*
X128898579Y-110121716D01*
X128803933Y-109957784D01*
X128677271Y-109817112D01*
X128677270Y-109817111D01*
X128524134Y-109705851D01*
X128524129Y-109705848D01*
X128351207Y-109628857D01*
X128351202Y-109628855D01*
X128205400Y-109597865D01*
X128166046Y-109589500D01*
X127976754Y-109589500D01*
X127944297Y-109596398D01*
X127791597Y-109628855D01*
X127791592Y-109628857D01*
X127618670Y-109705848D01*
X127618665Y-109705851D01*
X127465529Y-109817111D01*
X127338866Y-109957785D01*
X127244221Y-110121715D01*
X127244218Y-110121722D01*
X127185727Y-110301740D01*
X127185726Y-110301744D01*
X127165940Y-110490000D01*
X112522000Y-110490000D01*
X112522000Y-107714828D01*
X113521896Y-107714828D01*
X113521897Y-107714828D01*
X120253605Y-107714828D01*
X120253605Y-105554808D01*
X113521897Y-105554808D01*
X113521896Y-107714828D01*
X112522000Y-107714828D01*
X112522000Y-102663870D01*
X122689500Y-102663870D01*
X122689501Y-102663876D01*
X122695908Y-102723483D01*
X122746202Y-102858328D01*
X122746206Y-102858335D01*
X122832452Y-102973544D01*
X122832455Y-102973547D01*
X122947664Y-103059793D01*
X122947671Y-103059797D01*
X123082517Y-103110091D01*
X123082516Y-103110091D01*
X123086749Y-103110546D01*
X123142127Y-103116500D01*
X124761872Y-103116499D01*
X124821483Y-103110091D01*
X124956331Y-103059796D01*
X125071546Y-102973546D01*
X125122734Y-102905166D01*
X125178667Y-102863297D01*
X125248359Y-102858313D01*
X125309682Y-102891798D01*
X125321261Y-102905161D01*
X125372454Y-102973546D01*
X125372457Y-102973548D01*
X125487664Y-103059793D01*
X125487671Y-103059797D01*
X125622517Y-103110091D01*
X125622516Y-103110091D01*
X125626749Y-103110546D01*
X125682127Y-103116500D01*
X127301872Y-103116499D01*
X127361483Y-103110091D01*
X127496331Y-103059796D01*
X127611546Y-102973546D01*
X127697796Y-102858331D01*
X127748091Y-102723483D01*
X127754500Y-102663873D01*
X127754500Y-102663844D01*
X130056000Y-102663844D01*
X130062401Y-102723372D01*
X130062403Y-102723379D01*
X130112645Y-102858086D01*
X130112649Y-102858093D01*
X130198809Y-102973187D01*
X130198812Y-102973190D01*
X130313906Y-103059350D01*
X130313913Y-103059354D01*
X130448620Y-103109596D01*
X130448627Y-103109598D01*
X130508155Y-103115999D01*
X130508172Y-103116000D01*
X131068000Y-103116000D01*
X131068000Y-102410065D01*
X131087685Y-102343026D01*
X131140489Y-102297271D01*
X131209647Y-102287327D01*
X131228542Y-102291572D01*
X131251002Y-102298500D01*
X131251004Y-102298500D01*
X131351311Y-102298500D01*
X131351312Y-102298500D01*
X131425518Y-102287315D01*
X131494742Y-102296788D01*
X131547857Y-102342182D01*
X131567997Y-102409086D01*
X131568000Y-102409930D01*
X131568000Y-103116000D01*
X132127828Y-103116000D01*
X132127844Y-103115999D01*
X132187372Y-103109598D01*
X132187379Y-103109596D01*
X132322086Y-103059354D01*
X132322093Y-103059350D01*
X132437187Y-102973190D01*
X132437188Y-102973189D01*
X132488420Y-102904752D01*
X132544353Y-102862880D01*
X132614045Y-102857896D01*
X132675368Y-102891381D01*
X132686953Y-102904750D01*
X132687266Y-102905168D01*
X132738187Y-102973190D01*
X132738455Y-102973547D01*
X132853664Y-103059793D01*
X132853671Y-103059797D01*
X132988517Y-103110091D01*
X132988516Y-103110091D01*
X132992749Y-103110546D01*
X133048127Y-103116500D01*
X134667872Y-103116499D01*
X134727483Y-103110091D01*
X134862331Y-103059796D01*
X134977546Y-102973546D01*
X135028734Y-102905166D01*
X135084667Y-102863297D01*
X135154359Y-102858313D01*
X135215682Y-102891798D01*
X135227261Y-102905161D01*
X135278454Y-102973546D01*
X135278457Y-102973548D01*
X135393664Y-103059793D01*
X135393671Y-103059797D01*
X135528517Y-103110091D01*
X135528516Y-103110091D01*
X135532756Y-103110547D01*
X135535823Y-103111817D01*
X135536062Y-103111874D01*
X135536052Y-103111912D01*
X135597307Y-103137285D01*
X135637155Y-103194678D01*
X135643500Y-103233836D01*
X135643500Y-104584000D01*
X135642191Y-104601969D01*
X135638684Y-104625908D01*
X135643264Y-104678241D01*
X135643500Y-104683648D01*
X135643500Y-104691946D01*
X135647325Y-104724674D01*
X135654056Y-104801610D01*
X135655516Y-104808677D01*
X135655464Y-104808687D01*
X135657123Y-104816167D01*
X135657174Y-104816155D01*
X135658839Y-104823180D01*
X135685247Y-104895740D01*
X135709535Y-104969034D01*
X135712586Y-104975575D01*
X135712536Y-104975598D01*
X135715876Y-104982497D01*
X135715925Y-104982473D01*
X135719165Y-104988925D01*
X135761599Y-105053444D01*
X135802131Y-105119156D01*
X135806611Y-105124822D01*
X135806569Y-105124855D01*
X135811401Y-105130786D01*
X135811443Y-105130752D01*
X135816081Y-105136280D01*
X135816085Y-105136285D01*
X135844165Y-105162778D01*
X135872247Y-105189272D01*
X137773951Y-107090975D01*
X137804201Y-107140338D01*
X137856818Y-107302277D01*
X137856821Y-107302284D01*
X137951467Y-107466216D01*
X138078128Y-107606888D01*
X138078129Y-107606888D01*
X138231265Y-107718148D01*
X138231270Y-107718151D01*
X138404192Y-107795142D01*
X138404197Y-107795144D01*
X138589354Y-107834500D01*
X138589355Y-107834500D01*
X138778644Y-107834500D01*
X138778646Y-107834500D01*
X138963803Y-107795144D01*
X139136730Y-107718151D01*
X139289871Y-107606888D01*
X139416533Y-107466216D01*
X139511179Y-107302284D01*
X139569674Y-107122256D01*
X139589460Y-106934000D01*
X139569674Y-106745744D01*
X139511179Y-106565716D01*
X139416533Y-106401784D01*
X139289871Y-106261112D01*
X139289870Y-106261111D01*
X139136734Y-106149851D01*
X139136729Y-106149848D01*
X138963807Y-106072857D01*
X138963805Y-106072856D01*
X138905850Y-106060537D01*
X138844369Y-106027343D01*
X138843952Y-106026928D01*
X137188819Y-104371795D01*
X137155334Y-104310472D01*
X137152500Y-104284114D01*
X137152500Y-103233836D01*
X137172185Y-103166797D01*
X137224989Y-103121042D01*
X137263252Y-103110546D01*
X137265902Y-103110260D01*
X137267483Y-103110091D01*
X137402331Y-103059796D01*
X137517546Y-102973546D01*
X137568734Y-102905166D01*
X137624667Y-102863297D01*
X137694359Y-102858313D01*
X137755682Y-102891798D01*
X137767261Y-102905161D01*
X137818454Y-102973546D01*
X137818457Y-102973548D01*
X137933664Y-103059793D01*
X137933671Y-103059797D01*
X138068517Y-103110091D01*
X138068516Y-103110091D01*
X138072749Y-103110546D01*
X138128127Y-103116500D01*
X139747872Y-103116499D01*
X139807483Y-103110091D01*
X139942331Y-103059796D01*
X140057546Y-102973546D01*
X140109047Y-102904749D01*
X140164979Y-102862880D01*
X140234671Y-102857896D01*
X140295994Y-102891381D01*
X140307579Y-102904751D01*
X140358813Y-102973190D01*
X140473906Y-103059350D01*
X140473913Y-103059354D01*
X140608620Y-103109596D01*
X140608627Y-103109598D01*
X140668155Y-103115999D01*
X140668172Y-103116000D01*
X141228000Y-103116000D01*
X141228000Y-102410065D01*
X141247685Y-102343026D01*
X141300489Y-102297271D01*
X141369647Y-102287327D01*
X141388542Y-102291572D01*
X141411002Y-102298500D01*
X141411004Y-102298500D01*
X141511311Y-102298500D01*
X141511312Y-102298500D01*
X141585518Y-102287315D01*
X141654742Y-102296788D01*
X141707857Y-102342182D01*
X141727997Y-102409086D01*
X141728000Y-102409930D01*
X141728000Y-103116000D01*
X142287828Y-103116000D01*
X142287844Y-103115999D01*
X142347372Y-103109598D01*
X142347379Y-103109596D01*
X142482086Y-103059354D01*
X142482093Y-103059350D01*
X142597187Y-102973190D01*
X142597190Y-102973187D01*
X142683350Y-102858093D01*
X142683354Y-102858086D01*
X142733596Y-102723379D01*
X142733598Y-102723372D01*
X142739999Y-102663844D01*
X142740000Y-102663827D01*
X142740000Y-102104000D01*
X142032361Y-102104000D01*
X141965322Y-102084315D01*
X141919567Y-102031511D01*
X141909623Y-101962353D01*
X141911467Y-101952421D01*
X141926264Y-101887593D01*
X141926264Y-101887590D01*
X141915557Y-101744705D01*
X141917296Y-101744574D01*
X141920894Y-101685855D01*
X141962192Y-101629497D01*
X142027403Y-101604413D01*
X142037512Y-101604000D01*
X142740000Y-101604000D01*
X142740000Y-101044172D01*
X142739999Y-101044155D01*
X142733598Y-100984627D01*
X142733596Y-100984620D01*
X142683354Y-100849913D01*
X142683350Y-100849906D01*
X142597190Y-100734812D01*
X142528333Y-100683265D01*
X142486463Y-100627331D01*
X142481479Y-100557639D01*
X142514965Y-100496317D01*
X142528335Y-100484732D01*
X142597189Y-100433188D01*
X142597190Y-100433187D01*
X142683350Y-100318093D01*
X142683354Y-100318086D01*
X142733596Y-100183379D01*
X142733598Y-100183372D01*
X142739999Y-100123844D01*
X142740000Y-100123827D01*
X142740000Y-99564000D01*
X142032361Y-99564000D01*
X141965322Y-99544315D01*
X141919567Y-99491511D01*
X141909623Y-99422353D01*
X141911467Y-99412421D01*
X141926264Y-99347593D01*
X141926264Y-99347590D01*
X141915557Y-99204705D01*
X141917296Y-99204574D01*
X141920894Y-99145855D01*
X141962192Y-99089497D01*
X142027403Y-99064413D01*
X142037512Y-99064000D01*
X142740000Y-99064000D01*
X142740000Y-98504172D01*
X142739999Y-98504155D01*
X142733598Y-98444627D01*
X142733596Y-98444620D01*
X142683354Y-98309913D01*
X142683350Y-98309906D01*
X142597190Y-98194812D01*
X142597187Y-98194809D01*
X142482093Y-98108649D01*
X142482086Y-98108645D01*
X142347379Y-98058403D01*
X142347372Y-98058401D01*
X142287844Y-98052000D01*
X141728000Y-98052000D01*
X141728000Y-98757934D01*
X141708315Y-98824973D01*
X141655511Y-98870728D01*
X141586353Y-98880672D01*
X141567453Y-98876426D01*
X141544998Y-98869500D01*
X141444688Y-98869500D01*
X141444680Y-98869500D01*
X141370481Y-98880684D01*
X141301256Y-98871211D01*
X141248142Y-98825816D01*
X141228003Y-98758912D01*
X141228000Y-98758069D01*
X141228000Y-98052000D01*
X140668155Y-98052000D01*
X140608627Y-98058401D01*
X140608620Y-98058403D01*
X140473913Y-98108645D01*
X140473906Y-98108649D01*
X140358812Y-98194809D01*
X140307578Y-98263249D01*
X140251644Y-98305119D01*
X140181952Y-98310103D01*
X140120630Y-98276617D01*
X140109046Y-98263248D01*
X140057547Y-98194455D01*
X140057544Y-98194452D01*
X139942335Y-98108206D01*
X139942328Y-98108202D01*
X139807482Y-98057908D01*
X139807483Y-98057908D01*
X139747883Y-98051501D01*
X139747881Y-98051500D01*
X139747873Y-98051500D01*
X139747864Y-98051500D01*
X138128129Y-98051500D01*
X138128123Y-98051501D01*
X138068516Y-98057908D01*
X137933671Y-98108202D01*
X137933664Y-98108206D01*
X137818455Y-98194452D01*
X137767266Y-98262832D01*
X137711332Y-98304702D01*
X137641640Y-98309686D01*
X137580318Y-98276200D01*
X137568734Y-98262832D01*
X137554222Y-98243447D01*
X137517546Y-98194454D01*
X137517544Y-98194453D01*
X137517544Y-98194452D01*
X137402335Y-98108206D01*
X137402328Y-98108202D01*
X137267482Y-98057908D01*
X137267483Y-98057908D01*
X137207883Y-98051501D01*
X137207881Y-98051500D01*
X137207873Y-98051500D01*
X137207864Y-98051500D01*
X135588129Y-98051500D01*
X135588123Y-98051501D01*
X135528516Y-98057908D01*
X135393671Y-98108202D01*
X135393664Y-98108206D01*
X135278455Y-98194452D01*
X135227266Y-98262832D01*
X135171332Y-98304702D01*
X135101640Y-98309686D01*
X135040318Y-98276200D01*
X135028734Y-98262832D01*
X135014222Y-98243447D01*
X134977546Y-98194454D01*
X134977544Y-98194453D01*
X134977544Y-98194452D01*
X134862335Y-98108206D01*
X134862328Y-98108202D01*
X134727482Y-98057908D01*
X134727483Y-98057908D01*
X134667883Y-98051501D01*
X134667881Y-98051500D01*
X134667873Y-98051500D01*
X134667864Y-98051500D01*
X133048129Y-98051500D01*
X133048123Y-98051501D01*
X132988516Y-98057908D01*
X132853671Y-98108202D01*
X132853664Y-98108206D01*
X132738455Y-98194452D01*
X132686953Y-98263249D01*
X132631018Y-98305120D01*
X132561327Y-98310103D01*
X132500004Y-98276617D01*
X132488420Y-98263248D01*
X132437186Y-98194808D01*
X132322093Y-98108649D01*
X132322086Y-98108645D01*
X132187379Y-98058403D01*
X132187372Y-98058401D01*
X132127844Y-98052000D01*
X131568000Y-98052000D01*
X131568000Y-98757934D01*
X131548315Y-98824973D01*
X131495511Y-98870728D01*
X131426353Y-98880672D01*
X131407453Y-98876426D01*
X131384998Y-98869500D01*
X131284688Y-98869500D01*
X131284680Y-98869500D01*
X131210481Y-98880684D01*
X131141256Y-98871211D01*
X131088142Y-98825816D01*
X131068003Y-98758912D01*
X131068000Y-98758069D01*
X131068000Y-98052000D01*
X130508155Y-98052000D01*
X130448627Y-98058401D01*
X130448620Y-98058403D01*
X130313913Y-98108645D01*
X130313906Y-98108649D01*
X130198812Y-98194809D01*
X130198809Y-98194812D01*
X130112649Y-98309906D01*
X130112645Y-98309913D01*
X130062403Y-98444620D01*
X130062401Y-98444627D01*
X130056000Y-98504155D01*
X130056000Y-99064000D01*
X130763639Y-99064000D01*
X130830678Y-99083685D01*
X130876433Y-99136489D01*
X130886377Y-99205647D01*
X130884532Y-99215578D01*
X130869736Y-99280407D01*
X130869735Y-99280408D01*
X130880443Y-99423295D01*
X130878703Y-99423425D01*
X130875106Y-99482145D01*
X130833808Y-99538503D01*
X130768597Y-99563587D01*
X130758488Y-99564000D01*
X130056000Y-99564000D01*
X130056000Y-100123844D01*
X130062401Y-100183372D01*
X130062403Y-100183379D01*
X130112645Y-100318086D01*
X130112649Y-100318093D01*
X130198809Y-100433187D01*
X130267666Y-100484734D01*
X130309536Y-100540668D01*
X130314520Y-100610359D01*
X130281034Y-100671682D01*
X130267666Y-100683266D01*
X130198809Y-100734812D01*
X130112649Y-100849906D01*
X130112645Y-100849913D01*
X130062403Y-100984620D01*
X130062401Y-100984627D01*
X130056000Y-101044155D01*
X130056000Y-101604000D01*
X130763639Y-101604000D01*
X130830678Y-101623685D01*
X130876433Y-101676489D01*
X130886377Y-101745647D01*
X130884532Y-101755578D01*
X130869736Y-101820407D01*
X130869735Y-101820408D01*
X130880443Y-101963295D01*
X130878703Y-101963425D01*
X130875106Y-102022145D01*
X130833808Y-102078503D01*
X130768597Y-102103587D01*
X130758488Y-102104000D01*
X130056000Y-102104000D01*
X130056000Y-102663844D01*
X127754500Y-102663844D01*
X127754499Y-101044128D01*
X127748091Y-100984517D01*
X127697884Y-100849906D01*
X127697797Y-100849671D01*
X127697793Y-100849664D01*
X127611813Y-100734811D01*
X127611546Y-100734454D01*
X127543166Y-100683265D01*
X127501297Y-100627333D01*
X127496313Y-100557641D01*
X127529798Y-100496318D01*
X127543161Y-100484738D01*
X127611546Y-100433546D01*
X127697796Y-100318331D01*
X127748091Y-100183483D01*
X127754500Y-100123873D01*
X127754499Y-98504128D01*
X127748091Y-98444517D01*
X127697884Y-98309906D01*
X127697797Y-98309671D01*
X127697793Y-98309664D01*
X127611547Y-98194455D01*
X127611544Y-98194452D01*
X127496335Y-98108206D01*
X127496328Y-98108202D01*
X127361482Y-98057908D01*
X127361483Y-98057908D01*
X127301883Y-98051501D01*
X127301881Y-98051500D01*
X127301873Y-98051500D01*
X127301864Y-98051500D01*
X125682129Y-98051500D01*
X125682123Y-98051501D01*
X125622516Y-98057908D01*
X125487671Y-98108202D01*
X125487664Y-98108206D01*
X125372455Y-98194452D01*
X125321266Y-98262832D01*
X125265332Y-98304702D01*
X125195640Y-98309686D01*
X125134318Y-98276200D01*
X125122734Y-98262832D01*
X125108222Y-98243447D01*
X125071546Y-98194454D01*
X125071544Y-98194453D01*
X125071544Y-98194452D01*
X124956335Y-98108206D01*
X124956328Y-98108202D01*
X124821482Y-98057908D01*
X124821483Y-98057908D01*
X124761883Y-98051501D01*
X124761881Y-98051500D01*
X124761873Y-98051500D01*
X124761864Y-98051500D01*
X123142129Y-98051500D01*
X123142123Y-98051501D01*
X123082516Y-98057908D01*
X122947671Y-98108202D01*
X122947664Y-98108206D01*
X122832455Y-98194452D01*
X122832452Y-98194455D01*
X122746206Y-98309664D01*
X122746202Y-98309671D01*
X122695908Y-98444517D01*
X122689501Y-98504116D01*
X122689501Y-98504123D01*
X122689500Y-98504135D01*
X122689500Y-100123870D01*
X122689501Y-100123876D01*
X122695908Y-100183483D01*
X122746202Y-100318328D01*
X122746206Y-100318335D01*
X122832452Y-100433544D01*
X122832453Y-100433544D01*
X122832454Y-100433546D01*
X122881447Y-100470222D01*
X122900832Y-100484734D01*
X122942702Y-100540668D01*
X122947686Y-100610360D01*
X122914200Y-100671682D01*
X122900832Y-100683266D01*
X122832452Y-100734455D01*
X122746206Y-100849664D01*
X122746202Y-100849671D01*
X122695908Y-100984517D01*
X122689501Y-101044116D01*
X122689501Y-101044123D01*
X122689500Y-101044135D01*
X122689500Y-102663870D01*
X112522000Y-102663870D01*
X112522000Y-97406000D01*
X112541685Y-97338961D01*
X112594489Y-97293206D01*
X112646000Y-97282000D01*
X151514000Y-97282000D01*
X151581039Y-97301685D01*
G37*
%TD.AperFunction*%
%TD*%
M02*
