%TF.GenerationSoftware,KiCad,Pcbnew,7.0.7-7.0.7~ubuntu23.04.1*%
%TF.CreationDate,2023-10-04T13:35:05+00:00*%
%TF.ProjectId,ALTIMET02,414c5449-4d45-4543-9032-2e6b69636164,rev?*%
%TF.SameCoordinates,Original*%
%TF.FileFunction,Legend,Bot*%
%TF.FilePolarity,Positive*%
%FSLAX46Y46*%
G04 Gerber Fmt 4.6, Leading zero omitted, Abs format (unit mm)*
G04 Created by KiCad (PCBNEW 7.0.7-7.0.7~ubuntu23.04.1) date 2023-10-04 13:35:05*
%MOMM*%
%LPD*%
G01*
G04 APERTURE LIST*
%ADD10C,0.150000*%
%ADD11C,0.120000*%
G04 APERTURE END LIST*
D10*
X132771427Y-115762295D02*
X132771427Y-114962295D01*
X132428571Y-115038485D02*
X132390475Y-115000390D01*
X132390475Y-115000390D02*
X132314285Y-114962295D01*
X132314285Y-114962295D02*
X132123809Y-114962295D01*
X132123809Y-114962295D02*
X132047618Y-115000390D01*
X132047618Y-115000390D02*
X132009523Y-115038485D01*
X132009523Y-115038485D02*
X131971428Y-115114676D01*
X131971428Y-115114676D02*
X131971428Y-115190866D01*
X131971428Y-115190866D02*
X132009523Y-115305152D01*
X132009523Y-115305152D02*
X132466666Y-115762295D01*
X132466666Y-115762295D02*
X131971428Y-115762295D01*
X131171427Y-115686104D02*
X131209523Y-115724200D01*
X131209523Y-115724200D02*
X131323808Y-115762295D01*
X131323808Y-115762295D02*
X131399999Y-115762295D01*
X131399999Y-115762295D02*
X131514285Y-115724200D01*
X131514285Y-115724200D02*
X131590475Y-115648009D01*
X131590475Y-115648009D02*
X131628570Y-115571819D01*
X131628570Y-115571819D02*
X131666666Y-115419438D01*
X131666666Y-115419438D02*
X131666666Y-115305152D01*
X131666666Y-115305152D02*
X131628570Y-115152771D01*
X131628570Y-115152771D02*
X131590475Y-115076580D01*
X131590475Y-115076580D02*
X131514285Y-115000390D01*
X131514285Y-115000390D02*
X131399999Y-114962295D01*
X131399999Y-114962295D02*
X131323808Y-114962295D01*
X131323808Y-114962295D02*
X131209523Y-115000390D01*
X131209523Y-115000390D02*
X131171427Y-115038485D01*
X130257142Y-114924200D02*
X130942856Y-115952771D01*
X130028571Y-115724200D02*
X129914285Y-115762295D01*
X129914285Y-115762295D02*
X129723809Y-115762295D01*
X129723809Y-115762295D02*
X129647618Y-115724200D01*
X129647618Y-115724200D02*
X129609523Y-115686104D01*
X129609523Y-115686104D02*
X129571428Y-115609914D01*
X129571428Y-115609914D02*
X129571428Y-115533723D01*
X129571428Y-115533723D02*
X129609523Y-115457533D01*
X129609523Y-115457533D02*
X129647618Y-115419438D01*
X129647618Y-115419438D02*
X129723809Y-115381342D01*
X129723809Y-115381342D02*
X129876190Y-115343247D01*
X129876190Y-115343247D02*
X129952380Y-115305152D01*
X129952380Y-115305152D02*
X129990475Y-115267057D01*
X129990475Y-115267057D02*
X130028571Y-115190866D01*
X130028571Y-115190866D02*
X130028571Y-115114676D01*
X130028571Y-115114676D02*
X129990475Y-115038485D01*
X129990475Y-115038485D02*
X129952380Y-115000390D01*
X129952380Y-115000390D02*
X129876190Y-114962295D01*
X129876190Y-114962295D02*
X129685713Y-114962295D01*
X129685713Y-114962295D02*
X129571428Y-115000390D01*
X129228570Y-115762295D02*
X129228570Y-114962295D01*
X129228570Y-114962295D02*
X128923808Y-114962295D01*
X128923808Y-114962295D02*
X128847618Y-115000390D01*
X128847618Y-115000390D02*
X128809523Y-115038485D01*
X128809523Y-115038485D02*
X128771427Y-115114676D01*
X128771427Y-115114676D02*
X128771427Y-115228961D01*
X128771427Y-115228961D02*
X128809523Y-115305152D01*
X128809523Y-115305152D02*
X128847618Y-115343247D01*
X128847618Y-115343247D02*
X128923808Y-115381342D01*
X128923808Y-115381342D02*
X129228570Y-115381342D01*
X128428570Y-115762295D02*
X128428570Y-114962295D01*
X140919166Y-104340819D02*
X141252499Y-103864628D01*
X141490594Y-104340819D02*
X141490594Y-103340819D01*
X141490594Y-103340819D02*
X141109642Y-103340819D01*
X141109642Y-103340819D02*
X141014404Y-103388438D01*
X141014404Y-103388438D02*
X140966785Y-103436057D01*
X140966785Y-103436057D02*
X140919166Y-103531295D01*
X140919166Y-103531295D02*
X140919166Y-103674152D01*
X140919166Y-103674152D02*
X140966785Y-103769390D01*
X140966785Y-103769390D02*
X141014404Y-103817009D01*
X141014404Y-103817009D02*
X141109642Y-103864628D01*
X141109642Y-103864628D02*
X141490594Y-103864628D01*
X139966785Y-104340819D02*
X140538213Y-104340819D01*
X140252499Y-104340819D02*
X140252499Y-103340819D01*
X140252499Y-103340819D02*
X140347737Y-103483676D01*
X140347737Y-103483676D02*
X140442975Y-103578914D01*
X140442975Y-103578914D02*
X140538213Y-103626533D01*
X136854066Y-106785580D02*
X136901685Y-106833200D01*
X136901685Y-106833200D02*
X137044542Y-106880819D01*
X137044542Y-106880819D02*
X137139780Y-106880819D01*
X137139780Y-106880819D02*
X137282637Y-106833200D01*
X137282637Y-106833200D02*
X137377875Y-106737961D01*
X137377875Y-106737961D02*
X137425494Y-106642723D01*
X137425494Y-106642723D02*
X137473113Y-106452247D01*
X137473113Y-106452247D02*
X137473113Y-106309390D01*
X137473113Y-106309390D02*
X137425494Y-106118914D01*
X137425494Y-106118914D02*
X137377875Y-106023676D01*
X137377875Y-106023676D02*
X137282637Y-105928438D01*
X137282637Y-105928438D02*
X137139780Y-105880819D01*
X137139780Y-105880819D02*
X137044542Y-105880819D01*
X137044542Y-105880819D02*
X136901685Y-105928438D01*
X136901685Y-105928438D02*
X136854066Y-105976057D01*
X136473113Y-105976057D02*
X136425494Y-105928438D01*
X136425494Y-105928438D02*
X136330256Y-105880819D01*
X136330256Y-105880819D02*
X136092161Y-105880819D01*
X136092161Y-105880819D02*
X135996923Y-105928438D01*
X135996923Y-105928438D02*
X135949304Y-105976057D01*
X135949304Y-105976057D02*
X135901685Y-106071295D01*
X135901685Y-106071295D02*
X135901685Y-106166533D01*
X135901685Y-106166533D02*
X135949304Y-106309390D01*
X135949304Y-106309390D02*
X136520732Y-106880819D01*
X136520732Y-106880819D02*
X135901685Y-106880819D01*
X132661904Y-110054819D02*
X132661904Y-110864342D01*
X132661904Y-110864342D02*
X132614285Y-110959580D01*
X132614285Y-110959580D02*
X132566666Y-111007200D01*
X132566666Y-111007200D02*
X132471428Y-111054819D01*
X132471428Y-111054819D02*
X132280952Y-111054819D01*
X132280952Y-111054819D02*
X132185714Y-111007200D01*
X132185714Y-111007200D02*
X132138095Y-110959580D01*
X132138095Y-110959580D02*
X132090476Y-110864342D01*
X132090476Y-110864342D02*
X132090476Y-110054819D01*
X131090476Y-111054819D02*
X131661904Y-111054819D01*
X131376190Y-111054819D02*
X131376190Y-110054819D01*
X131376190Y-110054819D02*
X131471428Y-110197676D01*
X131471428Y-110197676D02*
X131566666Y-110292914D01*
X131566666Y-110292914D02*
X131661904Y-110340533D01*
X139538094Y-107154819D02*
X139538094Y-106154819D01*
X139538094Y-106154819D02*
X139299999Y-106154819D01*
X139299999Y-106154819D02*
X139157142Y-106202438D01*
X139157142Y-106202438D02*
X139061904Y-106297676D01*
X139061904Y-106297676D02*
X139014285Y-106392914D01*
X139014285Y-106392914D02*
X138966666Y-106583390D01*
X138966666Y-106583390D02*
X138966666Y-106726247D01*
X138966666Y-106726247D02*
X139014285Y-106916723D01*
X139014285Y-106916723D02*
X139061904Y-107011961D01*
X139061904Y-107011961D02*
X139157142Y-107107200D01*
X139157142Y-107107200D02*
X139299999Y-107154819D01*
X139299999Y-107154819D02*
X139538094Y-107154819D01*
X138014285Y-107154819D02*
X138585713Y-107154819D01*
X138299999Y-107154819D02*
X138299999Y-106154819D01*
X138299999Y-106154819D02*
X138395237Y-106297676D01*
X138395237Y-106297676D02*
X138490475Y-106392914D01*
X138490475Y-106392914D02*
X138585713Y-106440533D01*
X131992666Y-104754819D02*
X132325999Y-104278628D01*
X132564094Y-104754819D02*
X132564094Y-103754819D01*
X132564094Y-103754819D02*
X132183142Y-103754819D01*
X132183142Y-103754819D02*
X132087904Y-103802438D01*
X132087904Y-103802438D02*
X132040285Y-103850057D01*
X132040285Y-103850057D02*
X131992666Y-103945295D01*
X131992666Y-103945295D02*
X131992666Y-104088152D01*
X131992666Y-104088152D02*
X132040285Y-104183390D01*
X132040285Y-104183390D02*
X132087904Y-104231009D01*
X132087904Y-104231009D02*
X132183142Y-104278628D01*
X132183142Y-104278628D02*
X132564094Y-104278628D01*
X131611713Y-103850057D02*
X131564094Y-103802438D01*
X131564094Y-103802438D02*
X131468856Y-103754819D01*
X131468856Y-103754819D02*
X131230761Y-103754819D01*
X131230761Y-103754819D02*
X131135523Y-103802438D01*
X131135523Y-103802438D02*
X131087904Y-103850057D01*
X131087904Y-103850057D02*
X131040285Y-103945295D01*
X131040285Y-103945295D02*
X131040285Y-104040533D01*
X131040285Y-104040533D02*
X131087904Y-104183390D01*
X131087904Y-104183390D02*
X131659332Y-104754819D01*
X131659332Y-104754819D02*
X131040285Y-104754819D01*
X134266666Y-106659580D02*
X134314285Y-106707200D01*
X134314285Y-106707200D02*
X134457142Y-106754819D01*
X134457142Y-106754819D02*
X134552380Y-106754819D01*
X134552380Y-106754819D02*
X134695237Y-106707200D01*
X134695237Y-106707200D02*
X134790475Y-106611961D01*
X134790475Y-106611961D02*
X134838094Y-106516723D01*
X134838094Y-106516723D02*
X134885713Y-106326247D01*
X134885713Y-106326247D02*
X134885713Y-106183390D01*
X134885713Y-106183390D02*
X134838094Y-105992914D01*
X134838094Y-105992914D02*
X134790475Y-105897676D01*
X134790475Y-105897676D02*
X134695237Y-105802438D01*
X134695237Y-105802438D02*
X134552380Y-105754819D01*
X134552380Y-105754819D02*
X134457142Y-105754819D01*
X134457142Y-105754819D02*
X134314285Y-105802438D01*
X134314285Y-105802438D02*
X134266666Y-105850057D01*
X133314285Y-106754819D02*
X133885713Y-106754819D01*
X133599999Y-106754819D02*
X133599999Y-105754819D01*
X133599999Y-105754819D02*
X133695237Y-105897676D01*
X133695237Y-105897676D02*
X133790475Y-105992914D01*
X133790475Y-105992914D02*
X133885713Y-106040533D01*
D11*
%TO.C,R1*%
X137985436Y-103565000D02*
X138439564Y-103565000D01*
X137985436Y-105035000D02*
X138439564Y-105035000D01*
%TO.C,C2*%
X135917000Y-108873252D02*
X135917000Y-108350748D01*
X137387000Y-108873252D02*
X137387000Y-108350748D01*
%TO.C,U1*%
X127346400Y-109772400D02*
X127846400Y-109772400D01*
X132546400Y-109672400D02*
X132546400Y-108722400D01*
X127346400Y-109272400D02*
X127346400Y-109772400D01*
X132546400Y-106972400D02*
X132546400Y-106472400D01*
X127346400Y-106472400D02*
X127346400Y-106972400D01*
X127846400Y-106472400D02*
X127346400Y-106472400D01*
X132546400Y-106472400D02*
X132046400Y-106472400D01*
%TO.C,D1*%
X137990000Y-107458000D02*
X141850000Y-107458000D01*
X137990000Y-109458000D02*
X137990000Y-107458000D01*
X137990000Y-109458000D02*
X141850000Y-109458000D01*
%TO.C,R2*%
X134593064Y-105035000D02*
X134138936Y-105035000D01*
X134593064Y-103565000D02*
X134138936Y-103565000D01*
%TO.C,C1*%
X133341600Y-108873252D02*
X133341600Y-108350748D01*
X134811600Y-108873252D02*
X134811600Y-108350748D01*
%TO.C,JP1*%
X132750000Y-113926000D02*
X132750000Y-113326000D01*
X132100000Y-112626000D02*
X129300000Y-112626000D01*
X129300000Y-114626000D02*
X132100000Y-114626000D01*
X128650000Y-113326000D02*
X128650000Y-113926000D01*
X132050000Y-114626000D02*
G75*
G03*
X132750000Y-113926000I1J699999D01*
G01*
X132750000Y-113326000D02*
G75*
G03*
X132050000Y-112626000I-699999J1D01*
G01*
X128650000Y-113926000D02*
G75*
G03*
X129350000Y-114626000I700000J0D01*
G01*
X129350000Y-112626000D02*
G75*
G03*
X128650000Y-113326000I0J-700000D01*
G01*
%TD*%
M02*
