M48
; DRILL file {KiCad 6.0.11+dfsg-1~bpo11+1} date Sun May 28 08:27:01 2023
; FORMAT={3:3/ absolute / metric / suppress leading zeros}
; #@! TF.CreationDate,2023-05-28T08:27:01+00:00
; #@! TF.GenerationSoftware,Kicad,Pcbnew,6.0.11+dfsg-1~bpo11+1
; #@! TF.FileFunction,Plated,1,2,PTH
FMAT,2
METRIC,TZ
; #@! TA.AperFunction,Plated,PTH,ViaDrill
T1C0.400
; #@! TA.AperFunction,Plated,PTH,ComponentDrill
T2C0.889
; #@! TA.AperFunction,Plated,PTH,ComponentDrill
T3C3.000
%
G90
G05
T1
X127254Y-112014
X128524Y-113030
X129286Y-104648
X129286Y-112268
X129286Y-113538
X133096Y-107188
X134112Y-107188
X135128Y-107188
X135128Y-113538
X136144Y-107188
X137160Y-107188
X137160Y-109474
X138684Y-106718
X141478Y-106426
X142240Y-110490
X142748Y-106426
X144018Y-108712
T2
X122682Y-99314
X122682Y-101854
X125222Y-99314
X125222Y-101854
X127762Y-99314
X127762Y-101854
X131318Y-99314
X131318Y-101854
X133858Y-99314
X133858Y-101854
X136398Y-99314
X136398Y-101854
X138938Y-99314
X138938Y-101854
X141478Y-99314
X141478Y-101854
T3
X116840Y-101600
X116840Y-111760
X147320Y-101600
X147320Y-111760
T0
M30
