%TF.GenerationSoftware,KiCad,Pcbnew,7.0.7-7.0.7~ubuntu23.04.1*%
%TF.CreationDate,2023-09-06T21:23:02+00:00*%
%TF.ProjectId,ALTIMET02,414c5449-4d45-4543-9032-2e6b69636164,rev?*%
%TF.SameCoordinates,Original*%
%TF.FileFunction,Copper,L2,Bot*%
%TF.FilePolarity,Positive*%
%FSLAX46Y46*%
G04 Gerber Fmt 4.6, Leading zero omitted, Abs format (unit mm)*
G04 Created by KiCad (PCBNEW 7.0.7-7.0.7~ubuntu23.04.1) date 2023-09-06 21:23:02*
%MOMM*%
%LPD*%
G01*
G04 APERTURE LIST*
G04 Aperture macros list*
%AMRoundRect*
0 Rectangle with rounded corners*
0 $1 Rounding radius*
0 $2 $3 $4 $5 $6 $7 $8 $9 X,Y pos of 4 corners*
0 Add a 4 corners polygon primitive as box body*
4,1,4,$2,$3,$4,$5,$6,$7,$8,$9,$2,$3,0*
0 Add four circle primitives for the rounded corners*
1,1,$1+$1,$2,$3*
1,1,$1+$1,$4,$5*
1,1,$1+$1,$6,$7*
1,1,$1+$1,$8,$9*
0 Add four rect primitives between the rounded corners*
20,1,$1+$1,$2,$3,$4,$5,0*
20,1,$1+$1,$4,$5,$6,$7,0*
20,1,$1+$1,$6,$7,$8,$9,0*
20,1,$1+$1,$8,$9,$2,$3,0*%
%AMFreePoly0*
4,1,19,0.550000,-0.750000,0.000000,-0.750000,0.000000,-0.744911,-0.071157,-0.744911,-0.207708,-0.704816,-0.327430,-0.627875,-0.420627,-0.520320,-0.479746,-0.390866,-0.500000,-0.250000,-0.500000,0.250000,-0.479746,0.390866,-0.420627,0.520320,-0.327430,0.627875,-0.207708,0.704816,-0.071157,0.744911,0.000000,0.744911,0.000000,0.750000,0.550000,0.750000,0.550000,-0.750000,0.550000,-0.750000,
$1*%
%AMFreePoly1*
4,1,19,0.000000,0.744911,0.071157,0.744911,0.207708,0.704816,0.327430,0.627875,0.420627,0.520320,0.479746,0.390866,0.500000,0.250000,0.500000,-0.250000,0.479746,-0.390866,0.420627,-0.520320,0.327430,-0.627875,0.207708,-0.704816,0.071157,-0.744911,0.000000,-0.744911,0.000000,-0.750000,-0.550000,-0.750000,-0.550000,0.750000,0.000000,0.750000,0.000000,0.744911,0.000000,0.744911,
$1*%
G04 Aperture macros list end*
%ADD10C,0.150000*%
%TA.AperFunction,NonConductor*%
%ADD11C,0.150000*%
%TD*%
%TA.AperFunction,ComponentPad*%
%ADD12R,1.524000X1.524000*%
%TD*%
%TA.AperFunction,ComponentPad*%
%ADD13C,6.000000*%
%TD*%
%TA.AperFunction,SMDPad,CuDef*%
%ADD14RoundRect,0.250000X-0.262500X-0.450000X0.262500X-0.450000X0.262500X0.450000X-0.262500X0.450000X0*%
%TD*%
%TA.AperFunction,SMDPad,CuDef*%
%ADD15RoundRect,0.250000X0.475000X-0.250000X0.475000X0.250000X-0.475000X0.250000X-0.475000X-0.250000X0*%
%TD*%
%TA.AperFunction,SMDPad,CuDef*%
%ADD16R,0.550000X0.950000*%
%TD*%
%TA.AperFunction,SMDPad,CuDef*%
%ADD17RoundRect,0.250000X-0.300000X-0.300000X0.300000X-0.300000X0.300000X0.300000X-0.300000X0.300000X0*%
%TD*%
%TA.AperFunction,SMDPad,CuDef*%
%ADD18C,1.000000*%
%TD*%
%TA.AperFunction,SMDPad,CuDef*%
%ADD19RoundRect,0.250000X0.262500X0.450000X-0.262500X0.450000X-0.262500X-0.450000X0.262500X-0.450000X0*%
%TD*%
%TA.AperFunction,SMDPad,CuDef*%
%ADD20FreePoly0,180.000000*%
%TD*%
%TA.AperFunction,SMDPad,CuDef*%
%ADD21R,1.000000X1.500000*%
%TD*%
%TA.AperFunction,SMDPad,CuDef*%
%ADD22FreePoly1,180.000000*%
%TD*%
%TA.AperFunction,ViaPad*%
%ADD23C,0.800000*%
%TD*%
%TA.AperFunction,Conductor*%
%ADD24C,0.508000*%
%TD*%
%TA.AperFunction,Conductor*%
%ADD25C,0.200000*%
%TD*%
%TA.AperFunction,Conductor*%
%ADD26C,0.250000*%
%TD*%
%TA.AperFunction,Conductor*%
%ADD27C,0.400000*%
%TD*%
%TA.AperFunction,Conductor*%
%ADD28C,0.381000*%
%TD*%
G04 APERTURE END LIST*
D10*
D11*
X150058094Y-107134819D02*
X150058094Y-106134819D01*
X150058094Y-106134819D02*
X149724761Y-106849104D01*
X149724761Y-106849104D02*
X149391428Y-106134819D01*
X149391428Y-106134819D02*
X149391428Y-107134819D01*
X148439047Y-107134819D02*
X148915237Y-107134819D01*
X148915237Y-107134819D02*
X148915237Y-106134819D01*
X148153332Y-106849104D02*
X147677142Y-106849104D01*
X148248570Y-107134819D02*
X147915237Y-106134819D01*
X147915237Y-106134819D02*
X147581904Y-107134819D01*
X146915237Y-106611009D02*
X146772380Y-106658628D01*
X146772380Y-106658628D02*
X146724761Y-106706247D01*
X146724761Y-106706247D02*
X146677142Y-106801485D01*
X146677142Y-106801485D02*
X146677142Y-106944342D01*
X146677142Y-106944342D02*
X146724761Y-107039580D01*
X146724761Y-107039580D02*
X146772380Y-107087200D01*
X146772380Y-107087200D02*
X146867618Y-107134819D01*
X146867618Y-107134819D02*
X147248570Y-107134819D01*
X147248570Y-107134819D02*
X147248570Y-106134819D01*
X147248570Y-106134819D02*
X146915237Y-106134819D01*
X146915237Y-106134819D02*
X146819999Y-106182438D01*
X146819999Y-106182438D02*
X146772380Y-106230057D01*
X146772380Y-106230057D02*
X146724761Y-106325295D01*
X146724761Y-106325295D02*
X146724761Y-106420533D01*
X146724761Y-106420533D02*
X146772380Y-106515771D01*
X146772380Y-106515771D02*
X146819999Y-106563390D01*
X146819999Y-106563390D02*
X146915237Y-106611009D01*
X146915237Y-106611009D02*
X147248570Y-106611009D01*
X146248570Y-107039580D02*
X146200951Y-107087200D01*
X146200951Y-107087200D02*
X146248570Y-107134819D01*
X146248570Y-107134819D02*
X146296189Y-107087200D01*
X146296189Y-107087200D02*
X146248570Y-107039580D01*
X146248570Y-107039580D02*
X146248570Y-107134819D01*
X145343809Y-107087200D02*
X145439047Y-107134819D01*
X145439047Y-107134819D02*
X145629523Y-107134819D01*
X145629523Y-107134819D02*
X145724761Y-107087200D01*
X145724761Y-107087200D02*
X145772380Y-107039580D01*
X145772380Y-107039580D02*
X145819999Y-106944342D01*
X145819999Y-106944342D02*
X145819999Y-106658628D01*
X145819999Y-106658628D02*
X145772380Y-106563390D01*
X145772380Y-106563390D02*
X145724761Y-106515771D01*
X145724761Y-106515771D02*
X145629523Y-106468152D01*
X145629523Y-106468152D02*
X145439047Y-106468152D01*
X145439047Y-106468152D02*
X145343809Y-106515771D01*
X145010475Y-106468152D02*
X144486666Y-106468152D01*
X144486666Y-106468152D02*
X145010475Y-107134819D01*
X145010475Y-107134819D02*
X144486666Y-107134819D01*
D10*
D11*
X121979818Y-106874504D02*
X121503628Y-106874504D01*
X122075056Y-107160219D02*
X121741723Y-106160219D01*
X121741723Y-106160219D02*
X121408390Y-107160219D01*
X120598866Y-107160219D02*
X121075056Y-107160219D01*
X121075056Y-107160219D02*
X121075056Y-106160219D01*
X120408389Y-106160219D02*
X119836961Y-106160219D01*
X120122675Y-107160219D02*
X120122675Y-106160219D01*
X119503627Y-107160219D02*
X119503627Y-106160219D01*
X119027437Y-107160219D02*
X119027437Y-106160219D01*
X119027437Y-106160219D02*
X118694104Y-106874504D01*
X118694104Y-106874504D02*
X118360771Y-106160219D01*
X118360771Y-106160219D02*
X118360771Y-107160219D01*
X117884580Y-106636409D02*
X117551247Y-106636409D01*
X117408390Y-107160219D02*
X117884580Y-107160219D01*
X117884580Y-107160219D02*
X117884580Y-106160219D01*
X117884580Y-106160219D02*
X117408390Y-106160219D01*
X117122675Y-106160219D02*
X116551247Y-106160219D01*
X116836961Y-107160219D02*
X116836961Y-106160219D01*
X116027437Y-106160219D02*
X115932199Y-106160219D01*
X115932199Y-106160219D02*
X115836961Y-106207838D01*
X115836961Y-106207838D02*
X115789342Y-106255457D01*
X115789342Y-106255457D02*
X115741723Y-106350695D01*
X115741723Y-106350695D02*
X115694104Y-106541171D01*
X115694104Y-106541171D02*
X115694104Y-106779266D01*
X115694104Y-106779266D02*
X115741723Y-106969742D01*
X115741723Y-106969742D02*
X115789342Y-107064980D01*
X115789342Y-107064980D02*
X115836961Y-107112600D01*
X115836961Y-107112600D02*
X115932199Y-107160219D01*
X115932199Y-107160219D02*
X116027437Y-107160219D01*
X116027437Y-107160219D02*
X116122675Y-107112600D01*
X116122675Y-107112600D02*
X116170294Y-107064980D01*
X116170294Y-107064980D02*
X116217913Y-106969742D01*
X116217913Y-106969742D02*
X116265532Y-106779266D01*
X116265532Y-106779266D02*
X116265532Y-106541171D01*
X116265532Y-106541171D02*
X116217913Y-106350695D01*
X116217913Y-106350695D02*
X116170294Y-106255457D01*
X116170294Y-106255457D02*
X116122675Y-106207838D01*
X116122675Y-106207838D02*
X116027437Y-106160219D01*
X115313151Y-106255457D02*
X115265532Y-106207838D01*
X115265532Y-106207838D02*
X115170294Y-106160219D01*
X115170294Y-106160219D02*
X114932199Y-106160219D01*
X114932199Y-106160219D02*
X114836961Y-106207838D01*
X114836961Y-106207838D02*
X114789342Y-106255457D01*
X114789342Y-106255457D02*
X114741723Y-106350695D01*
X114741723Y-106350695D02*
X114741723Y-106445933D01*
X114741723Y-106445933D02*
X114789342Y-106588790D01*
X114789342Y-106588790D02*
X115360770Y-107160219D01*
X115360770Y-107160219D02*
X114741723Y-107160219D01*
X114360770Y-106874504D02*
X113884580Y-106874504D01*
X114456008Y-107160219D02*
X114122675Y-106160219D01*
X114122675Y-106160219D02*
X113789342Y-107160219D01*
%TA.AperFunction,EtchedComponent*%
%TO.C,JP1*%
G36*
X131600000Y-113926000D02*
G01*
X131100000Y-113926000D01*
X131100000Y-113326000D01*
X131600000Y-113326000D01*
X131600000Y-113926000D01*
G37*
%TD.AperFunction*%
%TD*%
D12*
%TO.P,J3,1*%
%TO.N,GND*%
X141478000Y-99314000D03*
%TO.P,J3,2*%
X141478000Y-101854000D03*
%TO.P,J3,3*%
%TO.N,SCLK*%
X138938000Y-99314000D03*
%TO.P,J3,4*%
X138938000Y-101854000D03*
%TO.P,J3,5*%
%TO.N,VDD*%
X136398000Y-99314000D03*
%TO.P,J3,6*%
X136398000Y-101854000D03*
%TO.P,J3,7*%
%TO.N,MOSI{slash}SDA*%
X133858000Y-99314000D03*
%TO.P,J3,8*%
X133858000Y-101854000D03*
%TO.P,J3,9*%
%TO.N,GND*%
X131318000Y-99314000D03*
%TO.P,J3,10*%
X131318000Y-101854000D03*
%TD*%
%TO.P,J1,1*%
%TO.N,MISO*%
X126492000Y-99314000D03*
%TO.P,J1,2*%
X126492000Y-101854000D03*
%TO.P,J1,3*%
%TO.N,CS{slash}A*%
X123952000Y-99314000D03*
%TO.P,J1,4*%
X123952000Y-101854000D03*
%TD*%
D13*
%TO.P,H1,1,1*%
%TO.N,GND*%
X147320000Y-111760000D03*
%TD*%
%TO.P,H4,1,1*%
%TO.N,GND*%
X116840000Y-101600000D03*
%TD*%
D12*
%TO.P,J2,1*%
%TO.N,GND*%
X136144000Y-114300000D03*
%TO.P,J2,2*%
X136144000Y-111760000D03*
%TO.P,J2,3*%
%TO.N,VDD*%
X138684000Y-114300000D03*
%TO.P,J2,4*%
X138684000Y-111760000D03*
%TO.P,J2,5*%
%TO.N,GND*%
X141224000Y-114300000D03*
%TO.P,J2,6*%
X141224000Y-111760000D03*
%TD*%
D13*
%TO.P,H3,1,1*%
%TO.N,GND*%
X147320000Y-101600000D03*
%TD*%
%TO.P,H2,1,1*%
%TO.N,GND*%
X116840000Y-111760000D03*
%TD*%
D14*
%TO.P,R1,1*%
%TO.N,VDD*%
X137300000Y-104300000D03*
%TO.P,R1,2*%
%TO.N,SCLK*%
X139125000Y-104300000D03*
%TD*%
D15*
%TO.P,C2,1*%
%TO.N,VDD*%
X136362600Y-109562000D03*
%TO.P,C2,2*%
%TO.N,GND*%
X136362600Y-107662000D03*
%TD*%
D16*
%TO.P,U1,1,VDD*%
%TO.N,VDD*%
X131821400Y-109197400D03*
%TO.P,U1,2,PS*%
%TO.N,/PS*%
X130571400Y-109197400D03*
%TO.P,U1,3,GND*%
%TO.N,GND*%
X129321400Y-109197400D03*
%TO.P,U1,4,CSB*%
%TO.N,CS{slash}A*%
X128071400Y-109197400D03*
%TO.P,U1,5,CSB*%
X128071400Y-107047400D03*
%TO.P,U1,6,SDO*%
%TO.N,MISO*%
X129321400Y-107047400D03*
%TO.P,U1,7,SDI/SDA*%
%TO.N,MOSI{slash}SDA*%
X130571400Y-107047400D03*
%TO.P,U1,8,SCLK*%
%TO.N,SCLK*%
X131821400Y-107047400D03*
%TD*%
D17*
%TO.P,D1,1,K*%
%TO.N,VDD*%
X138800000Y-108458000D03*
%TO.P,D1,2,A*%
%TO.N,GND*%
X141600000Y-108458000D03*
%TD*%
D18*
%TO.P,FID2,*%
%TO.N,*%
X125300000Y-108000000D03*
%TD*%
D19*
%TO.P,R2,1*%
%TO.N,VDD*%
X135500000Y-104300000D03*
%TO.P,R2,2*%
%TO.N,MOSI{slash}SDA*%
X133675000Y-104300000D03*
%TD*%
D18*
%TO.P,FID1,*%
%TO.N,*%
X141600000Y-105800000D03*
%TD*%
D15*
%TO.P,C1,1*%
%TO.N,VDD*%
X134076600Y-109562000D03*
%TO.P,C1,2*%
%TO.N,GND*%
X134076600Y-107662000D03*
%TD*%
D20*
%TO.P,JP1,1,A*%
%TO.N,VDD*%
X132000000Y-113626000D03*
D21*
%TO.P,JP1,2,C*%
%TO.N,/PS*%
X130700000Y-113626000D03*
D22*
%TO.P,JP1,3,B*%
%TO.N,GND*%
X129400000Y-113626000D03*
%TD*%
D23*
%TO.N,VDD*%
X131800000Y-112400000D03*
X138712000Y-107600000D03*
%TO.N,CS{slash}A*%
X128071400Y-111100000D03*
%TO.N,GND*%
X127254000Y-114808000D03*
X133350000Y-106426000D03*
X134366000Y-106426000D03*
X136398000Y-106426000D03*
X127254000Y-112776000D03*
X135382000Y-106426000D03*
X129900000Y-108100000D03*
X127254000Y-113792000D03*
%TD*%
D24*
%TO.N,VDD*%
X136398000Y-101854000D02*
X136400000Y-101856000D01*
X137466600Y-108458000D02*
X136362600Y-109562000D01*
X131821400Y-112421400D02*
X131821400Y-113447400D01*
X136400000Y-101856000D02*
X136400000Y-104392000D01*
X138684000Y-108430000D02*
X138712000Y-108458000D01*
X136398000Y-104394000D02*
X135278500Y-104394000D01*
X136400000Y-104392000D02*
X136398000Y-104394000D01*
X138712000Y-107600000D02*
X138712000Y-108458000D01*
X136398000Y-104394000D02*
X137517500Y-104394000D01*
X134076600Y-109562000D02*
X136362600Y-109562000D01*
X131821400Y-109197400D02*
X131821400Y-112378600D01*
X138712000Y-111732000D02*
X138684000Y-111760000D01*
D25*
X132000000Y-113626000D02*
X132000000Y-113800000D01*
D24*
X134076600Y-109562000D02*
X132959000Y-109562000D01*
X138684000Y-111760000D02*
X138684000Y-114300000D01*
X132594400Y-109197400D02*
X131821400Y-109197400D01*
X132959000Y-109562000D02*
X132594400Y-109197400D01*
X134106600Y-109592000D02*
X134076600Y-109562000D01*
X138712000Y-108458000D02*
X138712000Y-111732000D01*
X138712000Y-108458000D02*
X137466600Y-108458000D01*
X131821400Y-113447400D02*
X132000000Y-113626000D01*
X131800000Y-112400000D02*
X131821400Y-112421400D01*
X136398000Y-99314000D02*
X136398000Y-101854000D01*
D26*
X131826000Y-108970000D02*
X131826000Y-109220000D01*
D24*
X131821400Y-112378600D02*
X131800000Y-112400000D01*
X134076600Y-109562000D02*
X133975000Y-109663600D01*
D27*
%TO.N,MOSI{slash}SDA*%
X133858000Y-103989500D02*
X133453500Y-104394000D01*
D28*
X132506000Y-104394000D02*
X133453500Y-104394000D01*
D27*
X133858000Y-101854000D02*
X133858000Y-103989500D01*
X133858000Y-99314000D02*
X133858000Y-101854000D01*
D28*
X130571400Y-107047400D02*
X130571400Y-106328600D01*
X130571400Y-106328600D02*
X132506000Y-104394000D01*
%TO.N,MISO*%
X126492000Y-101854000D02*
X126492000Y-99314000D01*
X126492000Y-103251000D02*
X126492000Y-101854000D01*
X129321400Y-106080400D02*
X126492000Y-103251000D01*
X129321400Y-107047400D02*
X129321400Y-106080400D01*
%TO.N,CS{slash}A*%
X128071400Y-111100000D02*
X128071400Y-109197400D01*
X123952000Y-103378000D02*
X123952000Y-101854000D01*
X127621400Y-107047400D02*
X123952000Y-103378000D01*
X128071400Y-107047400D02*
X127621400Y-107047400D01*
X128071400Y-109197400D02*
X128071400Y-107047400D01*
X123952000Y-101854000D02*
X123952000Y-99314000D01*
%TO.N,/PS*%
X130571400Y-113497400D02*
X130700000Y-113626000D01*
X130571400Y-109197400D02*
X130571400Y-113497400D01*
D27*
%TO.N,SCLK*%
X138938000Y-103989500D02*
X138938000Y-105162000D01*
X138938000Y-101854000D02*
X138938000Y-103989500D01*
X138938000Y-103989500D02*
X139342500Y-104394000D01*
X138938000Y-99314000D02*
X138938000Y-101854000D01*
X132504000Y-105494000D02*
X131821400Y-106176600D01*
X138938000Y-105162000D02*
X138606000Y-105494000D01*
D28*
X131821400Y-107047400D02*
X131821400Y-106176600D01*
D27*
X138606000Y-105494000D02*
X132504000Y-105494000D01*
%TD*%
%TA.AperFunction,Conductor*%
%TO.N,GND*%
G36*
X152042778Y-96819827D02*
G01*
X152088665Y-96872517D01*
X152100000Y-96924310D01*
X152100000Y-116376000D01*
X152080315Y-116443039D01*
X152027511Y-116488794D01*
X151976000Y-116500000D01*
X112224000Y-116500000D01*
X112156961Y-116480315D01*
X112111206Y-116427511D01*
X112100000Y-116376000D01*
X112100000Y-108000000D01*
X124294659Y-108000000D01*
X124313975Y-108196129D01*
X124371188Y-108384733D01*
X124464086Y-108558532D01*
X124464090Y-108558539D01*
X124589116Y-108710883D01*
X124741460Y-108835909D01*
X124741467Y-108835913D01*
X124915266Y-108928811D01*
X124915269Y-108928811D01*
X124915273Y-108928814D01*
X125103868Y-108986024D01*
X125300000Y-109005341D01*
X125496132Y-108986024D01*
X125684727Y-108928814D01*
X125858538Y-108835910D01*
X126010883Y-108710883D01*
X126135910Y-108558538D01*
X126207122Y-108425310D01*
X126228811Y-108384733D01*
X126228811Y-108384732D01*
X126228814Y-108384727D01*
X126286024Y-108196132D01*
X126305341Y-108000000D01*
X126286024Y-107803868D01*
X126228814Y-107615273D01*
X126228811Y-107615269D01*
X126228811Y-107615266D01*
X126135913Y-107441467D01*
X126135909Y-107441460D01*
X126010883Y-107289116D01*
X125858539Y-107164090D01*
X125858532Y-107164086D01*
X125684733Y-107071188D01*
X125684727Y-107071186D01*
X125496132Y-107013976D01*
X125496129Y-107013975D01*
X125300000Y-106994659D01*
X125103870Y-107013975D01*
X124915266Y-107071188D01*
X124741467Y-107164086D01*
X124741460Y-107164090D01*
X124589116Y-107289116D01*
X124464090Y-107441460D01*
X124464086Y-107441467D01*
X124371188Y-107615266D01*
X124313975Y-107803870D01*
X124294659Y-108000000D01*
X112100000Y-108000000D01*
X112100000Y-105780208D01*
X113413509Y-105780208D01*
X113413509Y-107540228D01*
X122455339Y-107540228D01*
X122455339Y-105780208D01*
X113413509Y-105780208D01*
X112100000Y-105780208D01*
X112100000Y-102660856D01*
X122889500Y-102660856D01*
X122889502Y-102660882D01*
X122892413Y-102685987D01*
X122892415Y-102685991D01*
X122937793Y-102788764D01*
X122937794Y-102788765D01*
X123017235Y-102868206D01*
X123120009Y-102913585D01*
X123145135Y-102916500D01*
X123337000Y-102916499D01*
X123404039Y-102936183D01*
X123449794Y-102988987D01*
X123461000Y-103040499D01*
X123461000Y-103311883D01*
X123458167Y-103338232D01*
X123457215Y-103342612D01*
X123457215Y-103342614D01*
X123457215Y-103342615D01*
X123460842Y-103393324D01*
X123461000Y-103397748D01*
X123461000Y-103413116D01*
X123461001Y-103413130D01*
X123463186Y-103428333D01*
X123463658Y-103432727D01*
X123467287Y-103483446D01*
X123467287Y-103483447D01*
X123468853Y-103487645D01*
X123475406Y-103513319D01*
X123476043Y-103517750D01*
X123476043Y-103517751D01*
X123476044Y-103517753D01*
X123482826Y-103532604D01*
X123497162Y-103563995D01*
X123498856Y-103568084D01*
X123516628Y-103615730D01*
X123516628Y-103615731D01*
X123519311Y-103619315D01*
X123532837Y-103642111D01*
X123534697Y-103646184D01*
X123568009Y-103684627D01*
X123570771Y-103688056D01*
X123579979Y-103700358D01*
X123579982Y-103700361D01*
X123590840Y-103711219D01*
X123593857Y-103714459D01*
X123627155Y-103752887D01*
X123627159Y-103752891D01*
X123630922Y-103755309D01*
X123651565Y-103771944D01*
X127227455Y-107347834D01*
X127244087Y-107368472D01*
X127246508Y-107372240D01*
X127246515Y-107372247D01*
X127284932Y-107405535D01*
X127288159Y-107408538D01*
X127299042Y-107419421D01*
X127311363Y-107428644D01*
X127314768Y-107431387D01*
X127353216Y-107464703D01*
X127357283Y-107466560D01*
X127380084Y-107480089D01*
X127383668Y-107482772D01*
X127383671Y-107482773D01*
X127419633Y-107496186D01*
X127475567Y-107538057D01*
X127493892Y-107584059D01*
X127496365Y-107583387D01*
X127498815Y-107592391D01*
X127544193Y-107695164D01*
X127550688Y-107704645D01*
X127549691Y-107705327D01*
X127577566Y-107756375D01*
X127580400Y-107782733D01*
X127580400Y-108462066D01*
X127560715Y-108529105D01*
X127544315Y-108549458D01*
X127544192Y-108549637D01*
X127498815Y-108652409D01*
X127495900Y-108677531D01*
X127495900Y-109717256D01*
X127495902Y-109717282D01*
X127498813Y-109742387D01*
X127498815Y-109742391D01*
X127544193Y-109845164D01*
X127550688Y-109854645D01*
X127549691Y-109855327D01*
X127577565Y-109906374D01*
X127580399Y-109932732D01*
X127580399Y-110543322D01*
X127560714Y-110610361D01*
X127547472Y-110625821D01*
X127548190Y-110626457D01*
X127543218Y-110632068D01*
X127446582Y-110772068D01*
X127386260Y-110931125D01*
X127386259Y-110931130D01*
X127365755Y-111100000D01*
X127386259Y-111268869D01*
X127386260Y-111268874D01*
X127446582Y-111427931D01*
X127482336Y-111479728D01*
X127543217Y-111567929D01*
X127647112Y-111659972D01*
X127670550Y-111680736D01*
X127821173Y-111759789D01*
X127821175Y-111759790D01*
X127986344Y-111800500D01*
X128156456Y-111800500D01*
X128321625Y-111759790D01*
X128401092Y-111718081D01*
X128472249Y-111680736D01*
X128472250Y-111680734D01*
X128472252Y-111680734D01*
X128599583Y-111567929D01*
X128696218Y-111427930D01*
X128756540Y-111268872D01*
X128777045Y-111100000D01*
X128756540Y-110931128D01*
X128696218Y-110772070D01*
X128599583Y-110632071D01*
X128599579Y-110632067D01*
X128594609Y-110626457D01*
X128596845Y-110624475D01*
X128567029Y-110576886D01*
X128562400Y-110543321D01*
X128562400Y-109932732D01*
X128582085Y-109865693D01*
X128598724Y-109845045D01*
X128606735Y-109837035D01*
X128609046Y-109839346D01*
X128648514Y-109807118D01*
X128717933Y-109799199D01*
X128780613Y-109830069D01*
X128786444Y-109836796D01*
X128786488Y-109836753D01*
X128873920Y-109924185D01*
X128873925Y-109924188D01*
X128976523Y-109969489D01*
X129001605Y-109972399D01*
X129571400Y-109972399D01*
X129641186Y-109972399D01*
X129641208Y-109972397D01*
X129666269Y-109969491D01*
X129666273Y-109969490D01*
X129768874Y-109924188D01*
X129768879Y-109924185D01*
X129856312Y-109836753D01*
X129858691Y-109839132D01*
X129897904Y-109807115D01*
X129967324Y-109799200D01*
X130030003Y-109830073D01*
X130036053Y-109837055D01*
X130036069Y-109837040D01*
X130044080Y-109845051D01*
X130045950Y-109848475D01*
X130048394Y-109851296D01*
X130050690Y-109854648D01*
X130049693Y-109855330D01*
X130077565Y-109906374D01*
X130080399Y-109932732D01*
X130080399Y-112522013D01*
X130060714Y-112589052D01*
X130035111Y-112615420D01*
X130035360Y-112615669D01*
X129947793Y-112703236D01*
X129902415Y-112806006D01*
X129902415Y-112806008D01*
X129899500Y-112831131D01*
X129899500Y-114420856D01*
X129899502Y-114420882D01*
X129902413Y-114445987D01*
X129902415Y-114445991D01*
X129947793Y-114548764D01*
X129947794Y-114548765D01*
X130027235Y-114628206D01*
X130130009Y-114673585D01*
X130155135Y-114676500D01*
X131244864Y-114676499D01*
X131244879Y-114676497D01*
X131244882Y-114676497D01*
X131269987Y-114673586D01*
X131269988Y-114673585D01*
X131269991Y-114673585D01*
X131275481Y-114671160D01*
X131344757Y-114662085D01*
X131348333Y-114662699D01*
X131450000Y-114681705D01*
X131450001Y-114681705D01*
X132071886Y-114681705D01*
X132071889Y-114681705D01*
X132158016Y-114669322D01*
X132295971Y-114628815D01*
X132375120Y-114592669D01*
X132496074Y-114514937D01*
X132561836Y-114457954D01*
X132604815Y-114408353D01*
X132655981Y-114349304D01*
X132655983Y-114349300D01*
X132655990Y-114349293D01*
X132703031Y-114276095D01*
X132703034Y-114276087D01*
X132703037Y-114276083D01*
X132762757Y-114145315D01*
X132762757Y-114145313D01*
X132762759Y-114145310D01*
X132787273Y-114061822D01*
X132788973Y-114050000D01*
X135082000Y-114050000D01*
X135589639Y-114050000D01*
X135656678Y-114069685D01*
X135702433Y-114122489D01*
X135712377Y-114191647D01*
X135710532Y-114201578D01*
X135695736Y-114266406D01*
X135695736Y-114266407D01*
X135695735Y-114266408D01*
X135706443Y-114409295D01*
X135704703Y-114409425D01*
X135701106Y-114468145D01*
X135659808Y-114524503D01*
X135594597Y-114549587D01*
X135584488Y-114550000D01*
X135082001Y-114550000D01*
X135082001Y-115106785D01*
X135082002Y-115106808D01*
X135084908Y-115131869D01*
X135084909Y-115131873D01*
X135130211Y-115234474D01*
X135130214Y-115234479D01*
X135209520Y-115313785D01*
X135209525Y-115313788D01*
X135312123Y-115359089D01*
X135337206Y-115361999D01*
X135893999Y-115361999D01*
X135894000Y-115361998D01*
X135894000Y-114856065D01*
X135913685Y-114789026D01*
X135966489Y-114743271D01*
X136035647Y-114733327D01*
X136054542Y-114737572D01*
X136077002Y-114744500D01*
X136077004Y-114744500D01*
X136177311Y-114744500D01*
X136177312Y-114744500D01*
X136251518Y-114733315D01*
X136320742Y-114742788D01*
X136373857Y-114788182D01*
X136393997Y-114855086D01*
X136394000Y-114855930D01*
X136394000Y-115361999D01*
X136950786Y-115361999D01*
X136950808Y-115361997D01*
X136975869Y-115359091D01*
X136975873Y-115359090D01*
X137078474Y-115313788D01*
X137078479Y-115313785D01*
X137157785Y-115234479D01*
X137157788Y-115234474D01*
X137203089Y-115131877D01*
X137203089Y-115131875D01*
X137205999Y-115106794D01*
X137206000Y-115106791D01*
X137206000Y-114550000D01*
X136698361Y-114550000D01*
X136631322Y-114530315D01*
X136585567Y-114477511D01*
X136575623Y-114408353D01*
X136577467Y-114398421D01*
X136592264Y-114333593D01*
X136587956Y-114276106D01*
X136581557Y-114190705D01*
X136583296Y-114190574D01*
X136586894Y-114131855D01*
X136628192Y-114075497D01*
X136693403Y-114050413D01*
X136703512Y-114050000D01*
X137205999Y-114050000D01*
X137205999Y-113493214D01*
X137205997Y-113493191D01*
X137203091Y-113468130D01*
X137203090Y-113468126D01*
X137157788Y-113365525D01*
X137157785Y-113365520D01*
X137078479Y-113286214D01*
X137078474Y-113286211D01*
X136975876Y-113240910D01*
X136950794Y-113238000D01*
X136394000Y-113238000D01*
X136394000Y-113743934D01*
X136374315Y-113810973D01*
X136321511Y-113856728D01*
X136252353Y-113866672D01*
X136233453Y-113862426D01*
X136210998Y-113855500D01*
X136110688Y-113855500D01*
X136110680Y-113855500D01*
X136036481Y-113866684D01*
X135967256Y-113857211D01*
X135914142Y-113811816D01*
X135894003Y-113744912D01*
X135894000Y-113744069D01*
X135894000Y-113238000D01*
X135337214Y-113238000D01*
X135337191Y-113238002D01*
X135312130Y-113240908D01*
X135312126Y-113240909D01*
X135209525Y-113286211D01*
X135209520Y-113286214D01*
X135130214Y-113365520D01*
X135130211Y-113365525D01*
X135084910Y-113468122D01*
X135084910Y-113468124D01*
X135082000Y-113493205D01*
X135082000Y-114050000D01*
X132788973Y-114050000D01*
X132807735Y-113919507D01*
X132807735Y-113832494D01*
X132806965Y-113827142D01*
X132805705Y-113809506D01*
X132805705Y-113442493D01*
X132806967Y-113424847D01*
X132807735Y-113419506D01*
X132807735Y-113332493D01*
X132787273Y-113190178D01*
X132762759Y-113106690D01*
X132762758Y-113106688D01*
X132762757Y-113106684D01*
X132703037Y-112975916D01*
X132703024Y-112975893D01*
X132655997Y-112902717D01*
X132655981Y-112902695D01*
X132561834Y-112794043D01*
X132561832Y-112794041D01*
X132505283Y-112745042D01*
X132467508Y-112686264D01*
X132467508Y-112616395D01*
X132470534Y-112607382D01*
X132485140Y-112568872D01*
X132505645Y-112400000D01*
X132485140Y-112231128D01*
X132475041Y-112204500D01*
X132447323Y-112131412D01*
X132424818Y-112072070D01*
X132402869Y-112040272D01*
X132397850Y-112033000D01*
X132375967Y-111966646D01*
X132375900Y-111962560D01*
X132375900Y-111510000D01*
X135082000Y-111510000D01*
X135589639Y-111510000D01*
X135656678Y-111529685D01*
X135702433Y-111582489D01*
X135712377Y-111651647D01*
X135710532Y-111661578D01*
X135695736Y-111726407D01*
X135695735Y-111726408D01*
X135706443Y-111869295D01*
X135704703Y-111869425D01*
X135701106Y-111928145D01*
X135659808Y-111984503D01*
X135594597Y-112009587D01*
X135584488Y-112010000D01*
X135082001Y-112010000D01*
X135082001Y-112566785D01*
X135082002Y-112566808D01*
X135084908Y-112591869D01*
X135084909Y-112591873D01*
X135130211Y-112694474D01*
X135130214Y-112694479D01*
X135209520Y-112773785D01*
X135209525Y-112773788D01*
X135312123Y-112819089D01*
X135337206Y-112821999D01*
X135893999Y-112821999D01*
X135894000Y-112821998D01*
X135894000Y-112316065D01*
X135913685Y-112249026D01*
X135966489Y-112203271D01*
X136035647Y-112193327D01*
X136054542Y-112197572D01*
X136077002Y-112204500D01*
X136077004Y-112204500D01*
X136177311Y-112204500D01*
X136177312Y-112204500D01*
X136251518Y-112193315D01*
X136320742Y-112202788D01*
X136373857Y-112248182D01*
X136393997Y-112315086D01*
X136394000Y-112315930D01*
X136394000Y-112821999D01*
X136950786Y-112821999D01*
X136950808Y-112821997D01*
X136975869Y-112819091D01*
X136975873Y-112819090D01*
X137078474Y-112773788D01*
X137078479Y-112773785D01*
X137157785Y-112694479D01*
X137157788Y-112694474D01*
X137203089Y-112591877D01*
X137203089Y-112591875D01*
X137205999Y-112566794D01*
X137206000Y-112566791D01*
X137206000Y-112010000D01*
X136698361Y-112010000D01*
X136631322Y-111990315D01*
X136585567Y-111937511D01*
X136575623Y-111868353D01*
X136577467Y-111858421D01*
X136592264Y-111793593D01*
X136589731Y-111759789D01*
X136581557Y-111650705D01*
X136583296Y-111650574D01*
X136586894Y-111591855D01*
X136628192Y-111535497D01*
X136693403Y-111510413D01*
X136703512Y-111510000D01*
X137205999Y-111510000D01*
X137205999Y-110953214D01*
X137205997Y-110953191D01*
X137203091Y-110928130D01*
X137203090Y-110928126D01*
X137157788Y-110825525D01*
X137157785Y-110825520D01*
X137078479Y-110746214D01*
X137078474Y-110746211D01*
X136975876Y-110700910D01*
X136950794Y-110698000D01*
X136394000Y-110698000D01*
X136394000Y-111203934D01*
X136374315Y-111270973D01*
X136321511Y-111316728D01*
X136252353Y-111326672D01*
X136233453Y-111322426D01*
X136210998Y-111315500D01*
X136110688Y-111315500D01*
X136110680Y-111315500D01*
X136036481Y-111326684D01*
X135967256Y-111317211D01*
X135914142Y-111271816D01*
X135894003Y-111204912D01*
X135894000Y-111204069D01*
X135894000Y-110698000D01*
X135337214Y-110698000D01*
X135337191Y-110698002D01*
X135312130Y-110700908D01*
X135312126Y-110700909D01*
X135209525Y-110746211D01*
X135209520Y-110746214D01*
X135130214Y-110825520D01*
X135130211Y-110825525D01*
X135084910Y-110928122D01*
X135084910Y-110928124D01*
X135082000Y-110953205D01*
X135082000Y-111510000D01*
X132375900Y-111510000D01*
X132375900Y-110064485D01*
X132395585Y-109997446D01*
X132448389Y-109951691D01*
X132517547Y-109941747D01*
X132581103Y-109970772D01*
X132590525Y-109979850D01*
X132605773Y-109996178D01*
X132643890Y-110019356D01*
X132649135Y-110022925D01*
X132684679Y-110049879D01*
X132701567Y-110056538D01*
X132720496Y-110065940D01*
X132736010Y-110075375D01*
X132736012Y-110075376D01*
X132778957Y-110087408D01*
X132784978Y-110089432D01*
X132826480Y-110105799D01*
X132844542Y-110107655D01*
X132865306Y-110111602D01*
X132882786Y-110116500D01*
X132927398Y-110116500D01*
X132933737Y-110116824D01*
X132978109Y-110121386D01*
X132995989Y-110118303D01*
X133017059Y-110116500D01*
X133080035Y-110116500D01*
X133147074Y-110136185D01*
X133178838Y-110165574D01*
X133208676Y-110204921D01*
X133329256Y-110296360D01*
X133329257Y-110296360D01*
X133329258Y-110296361D01*
X133470036Y-110351877D01*
X133558498Y-110362500D01*
X133558503Y-110362500D01*
X134594697Y-110362500D01*
X134594702Y-110362500D01*
X134683164Y-110351877D01*
X134823942Y-110296361D01*
X134944522Y-110204922D01*
X134944523Y-110204921D01*
X134974362Y-110165574D01*
X135030555Y-110124051D01*
X135073165Y-110116500D01*
X135366035Y-110116500D01*
X135433074Y-110136185D01*
X135464838Y-110165574D01*
X135494676Y-110204921D01*
X135615256Y-110296360D01*
X135615257Y-110296360D01*
X135615258Y-110296361D01*
X135756036Y-110351877D01*
X135844498Y-110362500D01*
X135844503Y-110362500D01*
X136880697Y-110362500D01*
X136880702Y-110362500D01*
X136969164Y-110351877D01*
X137109942Y-110296361D01*
X137230522Y-110204922D01*
X137321961Y-110084342D01*
X137377477Y-109943564D01*
X137388100Y-109855102D01*
X137388100Y-109372042D01*
X137407785Y-109305003D01*
X137424414Y-109284366D01*
X137659962Y-109048819D01*
X137721285Y-109015334D01*
X137747643Y-109012500D01*
X137940519Y-109012500D01*
X138007558Y-109032185D01*
X138039323Y-109061574D01*
X138107078Y-109150922D01*
X138108425Y-109151943D01*
X138109344Y-109153188D01*
X138113073Y-109156916D01*
X138112513Y-109157475D01*
X138149948Y-109208134D01*
X138157500Y-109250747D01*
X138157500Y-110573500D01*
X138137815Y-110640539D01*
X138085011Y-110686294D01*
X138033501Y-110697500D01*
X137877144Y-110697500D01*
X137877117Y-110697502D01*
X137852012Y-110700413D01*
X137852008Y-110700415D01*
X137749235Y-110745793D01*
X137669794Y-110825234D01*
X137624415Y-110928006D01*
X137624415Y-110928008D01*
X137621500Y-110953131D01*
X137621500Y-112566856D01*
X137621502Y-112566882D01*
X137624413Y-112591987D01*
X137624415Y-112591991D01*
X137669793Y-112694764D01*
X137669794Y-112694764D01*
X137669794Y-112694765D01*
X137749235Y-112774206D01*
X137852009Y-112819585D01*
X137877135Y-112822500D01*
X138005500Y-112822499D01*
X138072539Y-112842183D01*
X138118294Y-112894987D01*
X138129500Y-112946499D01*
X138129500Y-113113500D01*
X138109815Y-113180539D01*
X138057011Y-113226294D01*
X138005501Y-113237500D01*
X137877142Y-113237500D01*
X137877119Y-113237502D01*
X137852011Y-113240414D01*
X137852008Y-113240415D01*
X137749235Y-113285793D01*
X137669794Y-113365234D01*
X137624415Y-113468006D01*
X137624415Y-113468008D01*
X137621500Y-113493131D01*
X137621500Y-115106856D01*
X137621502Y-115106882D01*
X137624413Y-115131987D01*
X137624415Y-115131991D01*
X137669793Y-115234764D01*
X137669794Y-115234765D01*
X137749235Y-115314206D01*
X137852009Y-115359585D01*
X137877135Y-115362500D01*
X139490864Y-115362499D01*
X139490879Y-115362497D01*
X139490882Y-115362497D01*
X139515987Y-115359586D01*
X139515988Y-115359585D01*
X139515991Y-115359585D01*
X139618765Y-115314206D01*
X139698206Y-115234765D01*
X139743585Y-115131991D01*
X139746500Y-115106865D01*
X139746499Y-114050000D01*
X140162000Y-114050000D01*
X140669639Y-114050000D01*
X140736678Y-114069685D01*
X140782433Y-114122489D01*
X140792377Y-114191647D01*
X140790532Y-114201578D01*
X140775736Y-114266406D01*
X140775736Y-114266407D01*
X140775735Y-114266408D01*
X140786443Y-114409295D01*
X140784703Y-114409425D01*
X140781106Y-114468145D01*
X140739808Y-114524503D01*
X140674597Y-114549587D01*
X140664488Y-114550000D01*
X140162001Y-114550000D01*
X140162001Y-115106785D01*
X140162002Y-115106808D01*
X140164908Y-115131869D01*
X140164909Y-115131873D01*
X140210211Y-115234474D01*
X140210214Y-115234479D01*
X140289520Y-115313785D01*
X140289525Y-115313788D01*
X140392123Y-115359089D01*
X140417206Y-115361999D01*
X140973999Y-115361999D01*
X140974000Y-115361998D01*
X140974000Y-114856065D01*
X140993685Y-114789026D01*
X141046489Y-114743271D01*
X141115647Y-114733327D01*
X141134542Y-114737572D01*
X141157002Y-114744500D01*
X141157004Y-114744500D01*
X141257311Y-114744500D01*
X141257312Y-114744500D01*
X141331518Y-114733315D01*
X141400742Y-114742788D01*
X141453857Y-114788182D01*
X141473997Y-114855086D01*
X141474000Y-114855930D01*
X141474000Y-115361999D01*
X142030786Y-115361999D01*
X142030808Y-115361997D01*
X142055869Y-115359091D01*
X142055873Y-115359090D01*
X142158474Y-115313788D01*
X142158479Y-115313785D01*
X142237785Y-115234479D01*
X142237788Y-115234474D01*
X142283089Y-115131877D01*
X142283089Y-115131875D01*
X142285999Y-115106794D01*
X142286000Y-115106791D01*
X142286000Y-114550000D01*
X141778361Y-114550000D01*
X141711322Y-114530315D01*
X141665567Y-114477511D01*
X141655623Y-114408353D01*
X141657467Y-114398421D01*
X141672264Y-114333593D01*
X141667956Y-114276106D01*
X141661557Y-114190705D01*
X141663296Y-114190574D01*
X141666894Y-114131855D01*
X141708192Y-114075497D01*
X141773403Y-114050413D01*
X141783512Y-114050000D01*
X142285999Y-114050000D01*
X142285999Y-113493214D01*
X142285997Y-113493191D01*
X142283091Y-113468130D01*
X142283090Y-113468126D01*
X142237788Y-113365525D01*
X142237785Y-113365520D01*
X142158479Y-113286214D01*
X142158474Y-113286211D01*
X142055876Y-113240910D01*
X142030794Y-113238000D01*
X141474000Y-113238000D01*
X141474000Y-113743934D01*
X141454315Y-113810973D01*
X141401511Y-113856728D01*
X141332353Y-113866672D01*
X141313453Y-113862426D01*
X141290998Y-113855500D01*
X141190688Y-113855500D01*
X141190680Y-113855500D01*
X141116481Y-113866684D01*
X141047256Y-113857211D01*
X140994142Y-113811816D01*
X140974003Y-113744912D01*
X140974000Y-113744069D01*
X140974000Y-113238000D01*
X140417214Y-113238000D01*
X140417191Y-113238002D01*
X140392130Y-113240908D01*
X140392126Y-113240909D01*
X140289525Y-113286211D01*
X140289520Y-113286214D01*
X140210214Y-113365520D01*
X140210211Y-113365525D01*
X140164910Y-113468122D01*
X140164910Y-113468124D01*
X140162000Y-113493205D01*
X140162000Y-114050000D01*
X139746499Y-114050000D01*
X139746499Y-113493136D01*
X139746497Y-113493117D01*
X139743586Y-113468012D01*
X139743585Y-113468010D01*
X139743585Y-113468009D01*
X139698206Y-113365235D01*
X139618765Y-113285794D01*
X139618764Y-113285793D01*
X139515992Y-113240415D01*
X139490868Y-113237500D01*
X139490865Y-113237500D01*
X139362500Y-113237500D01*
X139295461Y-113217815D01*
X139249706Y-113165011D01*
X139238500Y-113113500D01*
X139238500Y-112946499D01*
X139258185Y-112879460D01*
X139310989Y-112833705D01*
X139362500Y-112822499D01*
X139490856Y-112822499D01*
X139490864Y-112822499D01*
X139490879Y-112822497D01*
X139490882Y-112822497D01*
X139515987Y-112819586D01*
X139515988Y-112819585D01*
X139515991Y-112819585D01*
X139618765Y-112774206D01*
X139698206Y-112694765D01*
X139743585Y-112591991D01*
X139746500Y-112566865D01*
X139746499Y-111510000D01*
X140162000Y-111510000D01*
X140669639Y-111510000D01*
X140736678Y-111529685D01*
X140782433Y-111582489D01*
X140792377Y-111651647D01*
X140790532Y-111661578D01*
X140775736Y-111726407D01*
X140775735Y-111726408D01*
X140786443Y-111869295D01*
X140784703Y-111869425D01*
X140781106Y-111928145D01*
X140739808Y-111984503D01*
X140674597Y-112009587D01*
X140664488Y-112010000D01*
X140162001Y-112010000D01*
X140162001Y-112566785D01*
X140162002Y-112566808D01*
X140164908Y-112591869D01*
X140164909Y-112591873D01*
X140210211Y-112694474D01*
X140210214Y-112694479D01*
X140289520Y-112773785D01*
X140289525Y-112773788D01*
X140392123Y-112819089D01*
X140417206Y-112821999D01*
X140973999Y-112821999D01*
X140974000Y-112821998D01*
X140974000Y-112316065D01*
X140993685Y-112249026D01*
X141046489Y-112203271D01*
X141115647Y-112193327D01*
X141134542Y-112197572D01*
X141157002Y-112204500D01*
X141157004Y-112204500D01*
X141257311Y-112204500D01*
X141257312Y-112204500D01*
X141331518Y-112193315D01*
X141400742Y-112202788D01*
X141453857Y-112248182D01*
X141473997Y-112315086D01*
X141474000Y-112315930D01*
X141474000Y-112821999D01*
X142030786Y-112821999D01*
X142030808Y-112821997D01*
X142055869Y-112819091D01*
X142055873Y-112819090D01*
X142158474Y-112773788D01*
X142158479Y-112773785D01*
X142237785Y-112694479D01*
X142237788Y-112694474D01*
X142283089Y-112591877D01*
X142283089Y-112591875D01*
X142285999Y-112566794D01*
X142286000Y-112566791D01*
X142286000Y-112010000D01*
X141778361Y-112010000D01*
X141711322Y-111990315D01*
X141665567Y-111937511D01*
X141655623Y-111868353D01*
X141657467Y-111858421D01*
X141672264Y-111793593D01*
X141669731Y-111759789D01*
X141661557Y-111650705D01*
X141663296Y-111650574D01*
X141666894Y-111591855D01*
X141708192Y-111535497D01*
X141773403Y-111510413D01*
X141783512Y-111510000D01*
X142285999Y-111510000D01*
X142285999Y-110953214D01*
X142285997Y-110953191D01*
X142283091Y-110928130D01*
X142283090Y-110928126D01*
X142237788Y-110825525D01*
X142237785Y-110825520D01*
X142158479Y-110746214D01*
X142158474Y-110746211D01*
X142055876Y-110700910D01*
X142030794Y-110698000D01*
X141474000Y-110698000D01*
X141474000Y-111203934D01*
X141454315Y-111270973D01*
X141401511Y-111316728D01*
X141332353Y-111326672D01*
X141313453Y-111322426D01*
X141290998Y-111315500D01*
X141190688Y-111315500D01*
X141190680Y-111315500D01*
X141116481Y-111326684D01*
X141047256Y-111317211D01*
X140994142Y-111271816D01*
X140974003Y-111204912D01*
X140974000Y-111204069D01*
X140974000Y-110698000D01*
X140417214Y-110698000D01*
X140417191Y-110698002D01*
X140392130Y-110700908D01*
X140392126Y-110700909D01*
X140289525Y-110746211D01*
X140289520Y-110746214D01*
X140210214Y-110825520D01*
X140210211Y-110825525D01*
X140164910Y-110928122D01*
X140164910Y-110928124D01*
X140162000Y-110953205D01*
X140162000Y-111510000D01*
X139746499Y-111510000D01*
X139746499Y-110953136D01*
X139746497Y-110953117D01*
X139743586Y-110928012D01*
X139743585Y-110928010D01*
X139743585Y-110928009D01*
X139698206Y-110825235D01*
X139618765Y-110745794D01*
X139618764Y-110745793D01*
X139515992Y-110700415D01*
X139490868Y-110697500D01*
X139490865Y-110697500D01*
X139390500Y-110697500D01*
X139323461Y-110677815D01*
X139277706Y-110625011D01*
X139266500Y-110573500D01*
X139266500Y-109368493D01*
X139286185Y-109301454D01*
X139338989Y-109255699D01*
X139344999Y-109253143D01*
X139372342Y-109242361D01*
X139492922Y-109150922D01*
X139584361Y-109030342D01*
X139639877Y-108889564D01*
X139650500Y-108801102D01*
X139650500Y-108708000D01*
X140750000Y-108708000D01*
X140750000Y-108801053D01*
X140760613Y-108889443D01*
X140816079Y-109030095D01*
X140907435Y-109150564D01*
X141027904Y-109241920D01*
X141168556Y-109297386D01*
X141256946Y-109308000D01*
X141350000Y-109308000D01*
X141350000Y-108708000D01*
X141850000Y-108708000D01*
X141850000Y-109308000D01*
X141943054Y-109308000D01*
X142031443Y-109297386D01*
X142172095Y-109241920D01*
X142292564Y-109150564D01*
X142383920Y-109030095D01*
X142439386Y-108889443D01*
X142450000Y-108801053D01*
X142450000Y-108708000D01*
X141850000Y-108708000D01*
X141350000Y-108708000D01*
X140750000Y-108708000D01*
X139650500Y-108708000D01*
X139650500Y-108208000D01*
X140750000Y-108208000D01*
X141350000Y-108208000D01*
X141350000Y-107608000D01*
X141850000Y-107608000D01*
X141850000Y-108208000D01*
X142450000Y-108208000D01*
X142450000Y-108114946D01*
X142439386Y-108026556D01*
X142383920Y-107885904D01*
X142292564Y-107765435D01*
X142172095Y-107674079D01*
X142031443Y-107618613D01*
X141943054Y-107608000D01*
X141850000Y-107608000D01*
X141350000Y-107608000D01*
X141256946Y-107608000D01*
X141168556Y-107618613D01*
X141027904Y-107674079D01*
X140907435Y-107765435D01*
X140816079Y-107885904D01*
X140760613Y-108026556D01*
X140750000Y-108114946D01*
X140750000Y-108208000D01*
X139650500Y-108208000D01*
X139650500Y-108114898D01*
X139639877Y-108026436D01*
X139584361Y-107885658D01*
X139584360Y-107885657D01*
X139584360Y-107885656D01*
X139492925Y-107765082D01*
X139492922Y-107765078D01*
X139462391Y-107741926D01*
X139420870Y-107685735D01*
X139414223Y-107628177D01*
X139417645Y-107600000D01*
X139397140Y-107431128D01*
X139336818Y-107272070D01*
X139240183Y-107132071D01*
X139112852Y-107019266D01*
X139112849Y-107019263D01*
X138962226Y-106940210D01*
X138797056Y-106899500D01*
X138626944Y-106899500D01*
X138461773Y-106940210D01*
X138311150Y-107019263D01*
X138183816Y-107132072D01*
X138087182Y-107272068D01*
X138026860Y-107431125D01*
X138026859Y-107431130D01*
X138006355Y-107600000D01*
X138026335Y-107764554D01*
X138014874Y-107833477D01*
X137967970Y-107885263D01*
X137903239Y-107903500D01*
X137476076Y-107903500D01*
X137409361Y-107901221D01*
X137409360Y-107901221D01*
X137398113Y-107903961D01*
X137379590Y-107908475D01*
X137350236Y-107912000D01*
X136612600Y-107912000D01*
X136612600Y-108476457D01*
X136592915Y-108543496D01*
X136576281Y-108564138D01*
X136415238Y-108725181D01*
X136353915Y-108758666D01*
X136327557Y-108761500D01*
X135844498Y-108761500D01*
X135805453Y-108766188D01*
X135756038Y-108772122D01*
X135615256Y-108827639D01*
X135494676Y-108919078D01*
X135464838Y-108958426D01*
X135408645Y-108999949D01*
X135366035Y-109007500D01*
X135073165Y-109007500D01*
X135006126Y-108987815D01*
X134974362Y-108958426D01*
X134944523Y-108919078D01*
X134823943Y-108827639D01*
X134683161Y-108772122D01*
X134637526Y-108766642D01*
X134594702Y-108761500D01*
X133558498Y-108761500D01*
X133519453Y-108766188D01*
X133470038Y-108772122D01*
X133329254Y-108827640D01*
X133233168Y-108900504D01*
X133167857Y-108925327D01*
X133099493Y-108910899D01*
X133070563Y-108889381D01*
X132993189Y-108812007D01*
X132947626Y-108763222D01*
X132909512Y-108740045D01*
X132904267Y-108736475D01*
X132868721Y-108709520D01*
X132868719Y-108709519D01*
X132851829Y-108702858D01*
X132832900Y-108693456D01*
X132817390Y-108684025D01*
X132817387Y-108684024D01*
X132817385Y-108684023D01*
X132774438Y-108671989D01*
X132768421Y-108669966D01*
X132726920Y-108653601D01*
X132726918Y-108653600D01*
X132726916Y-108653600D01*
X132708857Y-108651743D01*
X132688090Y-108647796D01*
X132670617Y-108642900D01*
X132670614Y-108642900D01*
X132626010Y-108642900D01*
X132619667Y-108642575D01*
X132575291Y-108638013D01*
X132575286Y-108638013D01*
X132557403Y-108641097D01*
X132536335Y-108642900D01*
X132470584Y-108642900D01*
X132403545Y-108623215D01*
X132357790Y-108570411D01*
X132357191Y-108569079D01*
X132348606Y-108549635D01*
X132269165Y-108470194D01*
X132226569Y-108451386D01*
X132166392Y-108424815D01*
X132141265Y-108421900D01*
X131501543Y-108421900D01*
X131501517Y-108421902D01*
X131476412Y-108424813D01*
X131476408Y-108424815D01*
X131373635Y-108470193D01*
X131373634Y-108470194D01*
X131286069Y-108557760D01*
X131283651Y-108555342D01*
X131244571Y-108587242D01*
X131175150Y-108595147D01*
X131112476Y-108564265D01*
X131106789Y-108557701D01*
X131106731Y-108557760D01*
X131019165Y-108470194D01*
X130916392Y-108424815D01*
X130891265Y-108421900D01*
X130251543Y-108421900D01*
X130251517Y-108421902D01*
X130226412Y-108424813D01*
X130226408Y-108424815D01*
X130123635Y-108470193D01*
X130123634Y-108470194D01*
X130036069Y-108557760D01*
X130033761Y-108555452D01*
X129994254Y-108587695D01*
X129924832Y-108595594D01*
X129862160Y-108564707D01*
X129856353Y-108558005D01*
X129856312Y-108558047D01*
X129768879Y-108470614D01*
X129768874Y-108470611D01*
X129666276Y-108425310D01*
X129641194Y-108422400D01*
X129571400Y-108422400D01*
X129571400Y-109972399D01*
X129001605Y-109972399D01*
X129071399Y-109972398D01*
X129071400Y-109972398D01*
X129071400Y-108422400D01*
X129071399Y-108422399D01*
X129001603Y-108422400D01*
X128976530Y-108425308D01*
X128976526Y-108425309D01*
X128873925Y-108470611D01*
X128873920Y-108470614D01*
X128786488Y-108558047D01*
X128784111Y-108555670D01*
X128744852Y-108587702D01*
X128675429Y-108595591D01*
X128612762Y-108564695D01*
X128606743Y-108557747D01*
X128606731Y-108557760D01*
X128598719Y-108549748D01*
X128596850Y-108546325D01*
X128594400Y-108543497D01*
X128592105Y-108540146D01*
X128593102Y-108539462D01*
X128565234Y-108488425D01*
X128562400Y-108462067D01*
X128562400Y-107912000D01*
X133051600Y-107912000D01*
X133051600Y-107955053D01*
X133062213Y-108043443D01*
X133117679Y-108184095D01*
X133209035Y-108304564D01*
X133329504Y-108395920D01*
X133470156Y-108451386D01*
X133558546Y-108462000D01*
X133826600Y-108462000D01*
X133826600Y-107912000D01*
X133051600Y-107912000D01*
X128562400Y-107912000D01*
X128562400Y-107782733D01*
X128582085Y-107715694D01*
X128598719Y-107695052D01*
X128606731Y-107687040D01*
X128609149Y-107689458D01*
X128648210Y-107657565D01*
X128717630Y-107649649D01*
X128780310Y-107680521D01*
X128786009Y-107687099D01*
X128786069Y-107687040D01*
X128794194Y-107695165D01*
X128873635Y-107774606D01*
X128976409Y-107819985D01*
X129001535Y-107822900D01*
X129641264Y-107822899D01*
X129641279Y-107822897D01*
X129641282Y-107822897D01*
X129666387Y-107819986D01*
X129666388Y-107819985D01*
X129666391Y-107819985D01*
X129769165Y-107774606D01*
X129848606Y-107695165D01*
X129848606Y-107695164D01*
X129856731Y-107687040D01*
X129859149Y-107689458D01*
X129898210Y-107657565D01*
X129967630Y-107649649D01*
X130030310Y-107680521D01*
X130036009Y-107687099D01*
X130036069Y-107687040D01*
X130044194Y-107695164D01*
X130044194Y-107695165D01*
X130123635Y-107774606D01*
X130226409Y-107819985D01*
X130251535Y-107822900D01*
X130891264Y-107822899D01*
X130891279Y-107822897D01*
X130891282Y-107822897D01*
X130916387Y-107819986D01*
X130916388Y-107819985D01*
X130916391Y-107819985D01*
X131019165Y-107774606D01*
X131098606Y-107695165D01*
X131098606Y-107695164D01*
X131106731Y-107687040D01*
X131109149Y-107689458D01*
X131148210Y-107657565D01*
X131217630Y-107649649D01*
X131280310Y-107680521D01*
X131286009Y-107687099D01*
X131286069Y-107687040D01*
X131294193Y-107695165D01*
X131294194Y-107695165D01*
X131373635Y-107774606D01*
X131476409Y-107819985D01*
X131501535Y-107822900D01*
X132141264Y-107822899D01*
X132141279Y-107822897D01*
X132141282Y-107822897D01*
X132166387Y-107819986D01*
X132166388Y-107819985D01*
X132166391Y-107819985D01*
X132269165Y-107774606D01*
X132348606Y-107695165D01*
X132393985Y-107592391D01*
X132396900Y-107567265D01*
X132396900Y-107412000D01*
X133051600Y-107412000D01*
X133826600Y-107412000D01*
X133826600Y-106862000D01*
X134326600Y-106862000D01*
X134326600Y-108462000D01*
X134594654Y-108462000D01*
X134683043Y-108451386D01*
X134823695Y-108395920D01*
X134944164Y-108304564D01*
X135035520Y-108184095D01*
X135090986Y-108043443D01*
X135096484Y-107997658D01*
X135124021Y-107933444D01*
X135181904Y-107894311D01*
X135251754Y-107892684D01*
X135311396Y-107929079D01*
X135341894Y-107991941D01*
X135342716Y-107997658D01*
X135348213Y-108043443D01*
X135403679Y-108184095D01*
X135495035Y-108304564D01*
X135615504Y-108395920D01*
X135756156Y-108451386D01*
X135844546Y-108462000D01*
X136112600Y-108462000D01*
X136112600Y-106862000D01*
X136612600Y-106862000D01*
X136612600Y-107412000D01*
X137387600Y-107412000D01*
X137387600Y-107368946D01*
X137376986Y-107280556D01*
X137321520Y-107139904D01*
X137230164Y-107019435D01*
X137109695Y-106928079D01*
X136969043Y-106872613D01*
X136880654Y-106862000D01*
X136612600Y-106862000D01*
X136112600Y-106862000D01*
X135844546Y-106862000D01*
X135756156Y-106872613D01*
X135615504Y-106928079D01*
X135495035Y-107019435D01*
X135403679Y-107139904D01*
X135348213Y-107280556D01*
X135342716Y-107326341D01*
X135315179Y-107390555D01*
X135257296Y-107429688D01*
X135187445Y-107431315D01*
X135127804Y-107394920D01*
X135097306Y-107332058D01*
X135096484Y-107326341D01*
X135090986Y-107280556D01*
X135035520Y-107139904D01*
X134944164Y-107019435D01*
X134823695Y-106928079D01*
X134683043Y-106872613D01*
X134594654Y-106862000D01*
X134326600Y-106862000D01*
X133826600Y-106862000D01*
X133558546Y-106862000D01*
X133470156Y-106872613D01*
X133329504Y-106928079D01*
X133209035Y-107019435D01*
X133117679Y-107139904D01*
X133062213Y-107280556D01*
X133051600Y-107368946D01*
X133051600Y-107412000D01*
X132396900Y-107412000D01*
X132396899Y-106527536D01*
X132394968Y-106510883D01*
X132393986Y-106502413D01*
X132393985Y-106502411D01*
X132393985Y-106502409D01*
X132369918Y-106447903D01*
X132360848Y-106378628D01*
X132390672Y-106315443D01*
X132395637Y-106310176D01*
X132674996Y-106030816D01*
X132736318Y-105997334D01*
X132762676Y-105994500D01*
X138538857Y-105994500D01*
X138565215Y-105997334D01*
X138569927Y-105998359D01*
X138621671Y-105994657D01*
X138626094Y-105994500D01*
X138641799Y-105994500D01*
X138657342Y-105992264D01*
X138661740Y-105991791D01*
X138713483Y-105988091D01*
X138717992Y-105986408D01*
X138743685Y-105979850D01*
X138748457Y-105979165D01*
X138795646Y-105957613D01*
X138799728Y-105955922D01*
X138831474Y-105944083D01*
X138848329Y-105937797D01*
X138848329Y-105937796D01*
X138848331Y-105937796D01*
X138852189Y-105934907D01*
X138874995Y-105921375D01*
X138879373Y-105919377D01*
X138918564Y-105885416D01*
X138922014Y-105882637D01*
X138924930Y-105880453D01*
X138934593Y-105873221D01*
X138945720Y-105862092D01*
X138948925Y-105859109D01*
X138988143Y-105825128D01*
X138990751Y-105821068D01*
X139007381Y-105800431D01*
X139007812Y-105800000D01*
X140594659Y-105800000D01*
X140613975Y-105996129D01*
X140617042Y-106006238D01*
X140657163Y-106138501D01*
X140671188Y-106184733D01*
X140764086Y-106358532D01*
X140764090Y-106358539D01*
X140889116Y-106510883D01*
X141041460Y-106635909D01*
X141041467Y-106635913D01*
X141215266Y-106728811D01*
X141215269Y-106728811D01*
X141215273Y-106728814D01*
X141403868Y-106786024D01*
X141600000Y-106805341D01*
X141796132Y-106786024D01*
X141984727Y-106728814D01*
X142158538Y-106635910D01*
X142310883Y-106510883D01*
X142435910Y-106358538D01*
X142508273Y-106223157D01*
X142528811Y-106184733D01*
X142528811Y-106184732D01*
X142528814Y-106184727D01*
X142586024Y-105996132D01*
X142605341Y-105800000D01*
X142600890Y-105754808D01*
X144107566Y-105754808D01*
X144107566Y-107514828D01*
X150435693Y-107514828D01*
X150435693Y-105754808D01*
X144107566Y-105754808D01*
X142600890Y-105754808D01*
X142586024Y-105603868D01*
X142528814Y-105415273D01*
X142528811Y-105415269D01*
X142528811Y-105415266D01*
X142435913Y-105241467D01*
X142435909Y-105241460D01*
X142310883Y-105089116D01*
X142158539Y-104964090D01*
X142158532Y-104964086D01*
X141984733Y-104871188D01*
X141984727Y-104871186D01*
X141796132Y-104813976D01*
X141796129Y-104813975D01*
X141600000Y-104794659D01*
X141403870Y-104813975D01*
X141215266Y-104871188D01*
X141041467Y-104964086D01*
X141041460Y-104964090D01*
X140889116Y-105089116D01*
X140764090Y-105241460D01*
X140764086Y-105241467D01*
X140671188Y-105415266D01*
X140613975Y-105603870D01*
X140594659Y-105800000D01*
X139007812Y-105800000D01*
X139244431Y-105563381D01*
X139265068Y-105546751D01*
X139269128Y-105544143D01*
X139303109Y-105504925D01*
X139306092Y-105501720D01*
X139317221Y-105490593D01*
X139326637Y-105478014D01*
X139329417Y-105474564D01*
X139363377Y-105435373D01*
X139365375Y-105430995D01*
X139378907Y-105408189D01*
X139381796Y-105404331D01*
X139393650Y-105372546D01*
X139435519Y-105316612D01*
X139495050Y-105292760D01*
X139519064Y-105289877D01*
X139659842Y-105234361D01*
X139780422Y-105142922D01*
X139871861Y-105022342D01*
X139927377Y-104881564D01*
X139938000Y-104793102D01*
X139938000Y-103806898D01*
X139927377Y-103718436D01*
X139871861Y-103577658D01*
X139871860Y-103577657D01*
X139871860Y-103577656D01*
X139780422Y-103457077D01*
X139659841Y-103365638D01*
X139659839Y-103365637D01*
X139517010Y-103309312D01*
X139461866Y-103266406D01*
X139438673Y-103200499D01*
X139438500Y-103193958D01*
X139438500Y-103040499D01*
X139458185Y-102973460D01*
X139510989Y-102927705D01*
X139562500Y-102916499D01*
X139744856Y-102916499D01*
X139744864Y-102916499D01*
X139744879Y-102916497D01*
X139744882Y-102916497D01*
X139769987Y-102913586D01*
X139769988Y-102913585D01*
X139769991Y-102913585D01*
X139872765Y-102868206D01*
X139952206Y-102788765D01*
X139997585Y-102685991D01*
X140000500Y-102660865D01*
X140000499Y-101604000D01*
X140416000Y-101604000D01*
X140923639Y-101604000D01*
X140990678Y-101623685D01*
X141036433Y-101676489D01*
X141046377Y-101745647D01*
X141044532Y-101755578D01*
X141029736Y-101820406D01*
X141029736Y-101820407D01*
X141029735Y-101820408D01*
X141040443Y-101963295D01*
X141038703Y-101963425D01*
X141035106Y-102022145D01*
X140993808Y-102078503D01*
X140928597Y-102103587D01*
X140918488Y-102104000D01*
X140416001Y-102104000D01*
X140416001Y-102660785D01*
X140416002Y-102660808D01*
X140418908Y-102685869D01*
X140418909Y-102685873D01*
X140464211Y-102788474D01*
X140464214Y-102788479D01*
X140543520Y-102867785D01*
X140543525Y-102867788D01*
X140646123Y-102913089D01*
X140671206Y-102915999D01*
X141227999Y-102915999D01*
X141228000Y-102915998D01*
X141228000Y-102410065D01*
X141247685Y-102343026D01*
X141300489Y-102297271D01*
X141369647Y-102287327D01*
X141388542Y-102291572D01*
X141411002Y-102298500D01*
X141411004Y-102298500D01*
X141511311Y-102298500D01*
X141511312Y-102298500D01*
X141585518Y-102287315D01*
X141654742Y-102296788D01*
X141707857Y-102342182D01*
X141727997Y-102409086D01*
X141728000Y-102409930D01*
X141728000Y-102915999D01*
X142284786Y-102915999D01*
X142284808Y-102915997D01*
X142309869Y-102913091D01*
X142309873Y-102913090D01*
X142412474Y-102867788D01*
X142412479Y-102867785D01*
X142491785Y-102788479D01*
X142491788Y-102788474D01*
X142537089Y-102685877D01*
X142537089Y-102685875D01*
X142539999Y-102660794D01*
X142540000Y-102660791D01*
X142540000Y-102104000D01*
X142032361Y-102104000D01*
X141965322Y-102084315D01*
X141919567Y-102031511D01*
X141909623Y-101962353D01*
X141911467Y-101952421D01*
X141926264Y-101887593D01*
X141926264Y-101887590D01*
X141915557Y-101744705D01*
X141917296Y-101744574D01*
X141920894Y-101685855D01*
X141962192Y-101629497D01*
X142027403Y-101604413D01*
X142037512Y-101604000D01*
X142539999Y-101604000D01*
X142539999Y-101047214D01*
X142539997Y-101047191D01*
X142537091Y-101022130D01*
X142537090Y-101022126D01*
X142491788Y-100919525D01*
X142491785Y-100919520D01*
X142412479Y-100840214D01*
X142412474Y-100840211D01*
X142309876Y-100794910D01*
X142284794Y-100792000D01*
X141728000Y-100792000D01*
X141728000Y-101297934D01*
X141708315Y-101364973D01*
X141655511Y-101410728D01*
X141586353Y-101420672D01*
X141567453Y-101416426D01*
X141544998Y-101409500D01*
X141444688Y-101409500D01*
X141444680Y-101409500D01*
X141370481Y-101420684D01*
X141301256Y-101411211D01*
X141248142Y-101365816D01*
X141228003Y-101298912D01*
X141228000Y-101298069D01*
X141228000Y-100792000D01*
X140671214Y-100792000D01*
X140671191Y-100792002D01*
X140646130Y-100794908D01*
X140646126Y-100794909D01*
X140543525Y-100840211D01*
X140543520Y-100840214D01*
X140464214Y-100919520D01*
X140464211Y-100919525D01*
X140418910Y-101022122D01*
X140418910Y-101022124D01*
X140416000Y-101047205D01*
X140416000Y-101604000D01*
X140000499Y-101604000D01*
X140000499Y-101047136D01*
X140000497Y-101047117D01*
X139997586Y-101022012D01*
X139997585Y-101022010D01*
X139997585Y-101022009D01*
X139952206Y-100919235D01*
X139872765Y-100839794D01*
X139872763Y-100839793D01*
X139769992Y-100794415D01*
X139744868Y-100791500D01*
X139744865Y-100791500D01*
X139562500Y-100791500D01*
X139495461Y-100771815D01*
X139449706Y-100719011D01*
X139438500Y-100667500D01*
X139438500Y-100500499D01*
X139458185Y-100433460D01*
X139510989Y-100387705D01*
X139562500Y-100376499D01*
X139744856Y-100376499D01*
X139744864Y-100376499D01*
X139744879Y-100376497D01*
X139744882Y-100376497D01*
X139769987Y-100373586D01*
X139769988Y-100373585D01*
X139769991Y-100373585D01*
X139872765Y-100328206D01*
X139952206Y-100248765D01*
X139997585Y-100145991D01*
X140000500Y-100120865D01*
X140000499Y-99064000D01*
X140416000Y-99064000D01*
X140923639Y-99064000D01*
X140990678Y-99083685D01*
X141036433Y-99136489D01*
X141046377Y-99205647D01*
X141044532Y-99215578D01*
X141029736Y-99280407D01*
X141029735Y-99280408D01*
X141040443Y-99423295D01*
X141038703Y-99423425D01*
X141035106Y-99482145D01*
X140993808Y-99538503D01*
X140928597Y-99563587D01*
X140918488Y-99564000D01*
X140416001Y-99564000D01*
X140416001Y-100120785D01*
X140416002Y-100120808D01*
X140418908Y-100145869D01*
X140418909Y-100145873D01*
X140464211Y-100248474D01*
X140464214Y-100248479D01*
X140543520Y-100327785D01*
X140543525Y-100327788D01*
X140646123Y-100373089D01*
X140671206Y-100375999D01*
X141227999Y-100375999D01*
X141228000Y-100375998D01*
X141228000Y-99870065D01*
X141247685Y-99803026D01*
X141300489Y-99757271D01*
X141369647Y-99747327D01*
X141388542Y-99751572D01*
X141411002Y-99758500D01*
X141411004Y-99758500D01*
X141511311Y-99758500D01*
X141511312Y-99758500D01*
X141585518Y-99747315D01*
X141654742Y-99756788D01*
X141707857Y-99802182D01*
X141727997Y-99869086D01*
X141728000Y-99869930D01*
X141728000Y-100375999D01*
X142284786Y-100375999D01*
X142284808Y-100375997D01*
X142309869Y-100373091D01*
X142309873Y-100373090D01*
X142412474Y-100327788D01*
X142412479Y-100327785D01*
X142491785Y-100248479D01*
X142491788Y-100248474D01*
X142537089Y-100145877D01*
X142537089Y-100145875D01*
X142539999Y-100120794D01*
X142540000Y-100120791D01*
X142540000Y-99564000D01*
X142032361Y-99564000D01*
X141965322Y-99544315D01*
X141919567Y-99491511D01*
X141909623Y-99422353D01*
X141911467Y-99412421D01*
X141926264Y-99347593D01*
X141926264Y-99347590D01*
X141915557Y-99204705D01*
X141917296Y-99204574D01*
X141920894Y-99145855D01*
X141962192Y-99089497D01*
X142027403Y-99064413D01*
X142037512Y-99064000D01*
X142539999Y-99064000D01*
X142539999Y-98507214D01*
X142539997Y-98507191D01*
X142537091Y-98482130D01*
X142537090Y-98482126D01*
X142491788Y-98379525D01*
X142491785Y-98379520D01*
X142412479Y-98300214D01*
X142412474Y-98300211D01*
X142309876Y-98254910D01*
X142284794Y-98252000D01*
X141728000Y-98252000D01*
X141728000Y-98757934D01*
X141708315Y-98824973D01*
X141655511Y-98870728D01*
X141586353Y-98880672D01*
X141567453Y-98876426D01*
X141544998Y-98869500D01*
X141444688Y-98869500D01*
X141444680Y-98869500D01*
X141370481Y-98880684D01*
X141301256Y-98871211D01*
X141248142Y-98825816D01*
X141228003Y-98758912D01*
X141228000Y-98758069D01*
X141228000Y-98252000D01*
X140671214Y-98252000D01*
X140671191Y-98252002D01*
X140646130Y-98254908D01*
X140646126Y-98254909D01*
X140543525Y-98300211D01*
X140543520Y-98300214D01*
X140464214Y-98379520D01*
X140464211Y-98379525D01*
X140418910Y-98482122D01*
X140418910Y-98482124D01*
X140416000Y-98507205D01*
X140416000Y-99064000D01*
X140000499Y-99064000D01*
X140000499Y-98507136D01*
X140000497Y-98507117D01*
X139997586Y-98482012D01*
X139997585Y-98482010D01*
X139997585Y-98482009D01*
X139952206Y-98379235D01*
X139872765Y-98299794D01*
X139872763Y-98299793D01*
X139769992Y-98254415D01*
X139744865Y-98251500D01*
X138131143Y-98251500D01*
X138131117Y-98251502D01*
X138106012Y-98254413D01*
X138106008Y-98254415D01*
X138003235Y-98299793D01*
X137923794Y-98379234D01*
X137878415Y-98482006D01*
X137878415Y-98482008D01*
X137875500Y-98507131D01*
X137875500Y-100120856D01*
X137875502Y-100120882D01*
X137878413Y-100145987D01*
X137878415Y-100145991D01*
X137923793Y-100248764D01*
X137923794Y-100248765D01*
X138003235Y-100328206D01*
X138106009Y-100373585D01*
X138131135Y-100376500D01*
X138313500Y-100376499D01*
X138380539Y-100396183D01*
X138426294Y-100448987D01*
X138437500Y-100500499D01*
X138437500Y-100667500D01*
X138417815Y-100734539D01*
X138365011Y-100780294D01*
X138313501Y-100791500D01*
X138131143Y-100791500D01*
X138131117Y-100791502D01*
X138106012Y-100794413D01*
X138106008Y-100794415D01*
X138003235Y-100839793D01*
X137923794Y-100919234D01*
X137878415Y-101022006D01*
X137878415Y-101022008D01*
X137875500Y-101047131D01*
X137875500Y-102660856D01*
X137875502Y-102660882D01*
X137878413Y-102685987D01*
X137878415Y-102685991D01*
X137923793Y-102788764D01*
X137923794Y-102788765D01*
X138003235Y-102868206D01*
X138106009Y-102913585D01*
X138131135Y-102916500D01*
X138313500Y-102916499D01*
X138380539Y-102936183D01*
X138426294Y-102988987D01*
X138437500Y-103040499D01*
X138437500Y-103457679D01*
X138417815Y-103524718D01*
X138412304Y-103532604D01*
X138378139Y-103577656D01*
X138352721Y-103642113D01*
X138327853Y-103705171D01*
X138284949Y-103760314D01*
X138219041Y-103783507D01*
X138151056Y-103767386D01*
X138102580Y-103717070D01*
X138097148Y-103705178D01*
X138046861Y-103577658D01*
X138046860Y-103577657D01*
X138046860Y-103577656D01*
X137955422Y-103457077D01*
X137834843Y-103365639D01*
X137694061Y-103310122D01*
X137648426Y-103304642D01*
X137605602Y-103299500D01*
X137078500Y-103299500D01*
X137011461Y-103279815D01*
X136965706Y-103227011D01*
X136954500Y-103175500D01*
X136954500Y-103040499D01*
X136974185Y-102973460D01*
X137026989Y-102927705D01*
X137078500Y-102916499D01*
X137204856Y-102916499D01*
X137204864Y-102916499D01*
X137204879Y-102916497D01*
X137204882Y-102916497D01*
X137229987Y-102913586D01*
X137229988Y-102913585D01*
X137229991Y-102913585D01*
X137332765Y-102868206D01*
X137412206Y-102788765D01*
X137457585Y-102685991D01*
X137460500Y-102660865D01*
X137460499Y-101047136D01*
X137460497Y-101047117D01*
X137457586Y-101022012D01*
X137457585Y-101022010D01*
X137457585Y-101022009D01*
X137412206Y-100919235D01*
X137332765Y-100839794D01*
X137332763Y-100839793D01*
X137229992Y-100794415D01*
X137204868Y-100791500D01*
X137204865Y-100791500D01*
X137076500Y-100791500D01*
X137009461Y-100771815D01*
X136963706Y-100719011D01*
X136952500Y-100667500D01*
X136952500Y-100500499D01*
X136972185Y-100433460D01*
X137024989Y-100387705D01*
X137076500Y-100376499D01*
X137204856Y-100376499D01*
X137204864Y-100376499D01*
X137204879Y-100376497D01*
X137204882Y-100376497D01*
X137229987Y-100373586D01*
X137229988Y-100373585D01*
X137229991Y-100373585D01*
X137332765Y-100328206D01*
X137412206Y-100248765D01*
X137457585Y-100145991D01*
X137460500Y-100120865D01*
X137460499Y-98507136D01*
X137460497Y-98507117D01*
X137457586Y-98482012D01*
X137457585Y-98482010D01*
X137457585Y-98482009D01*
X137412206Y-98379235D01*
X137332765Y-98299794D01*
X137332763Y-98299793D01*
X137229992Y-98254415D01*
X137204865Y-98251500D01*
X135591143Y-98251500D01*
X135591117Y-98251502D01*
X135566012Y-98254413D01*
X135566008Y-98254415D01*
X135463235Y-98299793D01*
X135383794Y-98379234D01*
X135338415Y-98482006D01*
X135338415Y-98482008D01*
X135335500Y-98507131D01*
X135335500Y-100120856D01*
X135335502Y-100120882D01*
X135338413Y-100145987D01*
X135338415Y-100145991D01*
X135383793Y-100248764D01*
X135383794Y-100248765D01*
X135463235Y-100328206D01*
X135566009Y-100373585D01*
X135591135Y-100376500D01*
X135719500Y-100376499D01*
X135786539Y-100396183D01*
X135832294Y-100448987D01*
X135843500Y-100500499D01*
X135843500Y-100667500D01*
X135823815Y-100734539D01*
X135771011Y-100780294D01*
X135719501Y-100791500D01*
X135591142Y-100791500D01*
X135591119Y-100791502D01*
X135566011Y-100794414D01*
X135566008Y-100794415D01*
X135463235Y-100839793D01*
X135383794Y-100919234D01*
X135338415Y-101022006D01*
X135338415Y-101022008D01*
X135335500Y-101047131D01*
X135335500Y-102660856D01*
X135335502Y-102660882D01*
X135338413Y-102685987D01*
X135338415Y-102685991D01*
X135383793Y-102788764D01*
X135383794Y-102788765D01*
X135463235Y-102868206D01*
X135566009Y-102913585D01*
X135591135Y-102916500D01*
X135721500Y-102916499D01*
X135788539Y-102936183D01*
X135834294Y-102988987D01*
X135845500Y-103040499D01*
X135845500Y-103175500D01*
X135825815Y-103242539D01*
X135773011Y-103288294D01*
X135721500Y-103299500D01*
X135194398Y-103299500D01*
X135155353Y-103304188D01*
X135105938Y-103310122D01*
X134965156Y-103365639D01*
X134844577Y-103457077D01*
X134753139Y-103577656D01*
X134727721Y-103642113D01*
X134702853Y-103705171D01*
X134659949Y-103760314D01*
X134594041Y-103783507D01*
X134526056Y-103767386D01*
X134477580Y-103717070D01*
X134472148Y-103705178D01*
X134421861Y-103577658D01*
X134421860Y-103577657D01*
X134421860Y-103577656D01*
X134383696Y-103527329D01*
X134358873Y-103462017D01*
X134358500Y-103452404D01*
X134358500Y-103040499D01*
X134378185Y-102973460D01*
X134430989Y-102927705D01*
X134482500Y-102916499D01*
X134664856Y-102916499D01*
X134664864Y-102916499D01*
X134664879Y-102916497D01*
X134664882Y-102916497D01*
X134689987Y-102913586D01*
X134689988Y-102913585D01*
X134689991Y-102913585D01*
X134792765Y-102868206D01*
X134872206Y-102788765D01*
X134917585Y-102685991D01*
X134920500Y-102660865D01*
X134920499Y-101047136D01*
X134920497Y-101047117D01*
X134917586Y-101022012D01*
X134917585Y-101022010D01*
X134917585Y-101022009D01*
X134872206Y-100919235D01*
X134792765Y-100839794D01*
X134792763Y-100839793D01*
X134689992Y-100794415D01*
X134664868Y-100791500D01*
X134664865Y-100791500D01*
X134482500Y-100791500D01*
X134415461Y-100771815D01*
X134369706Y-100719011D01*
X134358500Y-100667500D01*
X134358500Y-100500499D01*
X134378185Y-100433460D01*
X134430989Y-100387705D01*
X134482500Y-100376499D01*
X134664856Y-100376499D01*
X134664864Y-100376499D01*
X134664879Y-100376497D01*
X134664882Y-100376497D01*
X134689987Y-100373586D01*
X134689988Y-100373585D01*
X134689991Y-100373585D01*
X134792765Y-100328206D01*
X134872206Y-100248765D01*
X134917585Y-100145991D01*
X134920500Y-100120865D01*
X134920499Y-98507136D01*
X134920497Y-98507117D01*
X134917586Y-98482012D01*
X134917585Y-98482010D01*
X134917585Y-98482009D01*
X134872206Y-98379235D01*
X134792765Y-98299794D01*
X134792763Y-98299793D01*
X134689992Y-98254415D01*
X134664865Y-98251500D01*
X133051143Y-98251500D01*
X133051117Y-98251502D01*
X133026012Y-98254413D01*
X133026008Y-98254415D01*
X132923235Y-98299793D01*
X132843794Y-98379234D01*
X132798415Y-98482006D01*
X132798415Y-98482008D01*
X132795500Y-98507131D01*
X132795500Y-100120856D01*
X132795502Y-100120882D01*
X132798413Y-100145987D01*
X132798415Y-100145991D01*
X132843793Y-100248764D01*
X132843794Y-100248765D01*
X132923235Y-100328206D01*
X133026009Y-100373585D01*
X133051135Y-100376500D01*
X133233500Y-100376499D01*
X133300539Y-100396183D01*
X133346294Y-100448987D01*
X133357500Y-100500499D01*
X133357500Y-100667500D01*
X133337815Y-100734539D01*
X133285011Y-100780294D01*
X133233501Y-100791500D01*
X133051143Y-100791500D01*
X133051117Y-100791502D01*
X133026012Y-100794413D01*
X133026008Y-100794415D01*
X132923235Y-100839793D01*
X132843794Y-100919234D01*
X132798415Y-101022006D01*
X132798415Y-101022008D01*
X132795500Y-101047131D01*
X132795500Y-102660856D01*
X132795502Y-102660882D01*
X132798413Y-102685987D01*
X132798415Y-102685991D01*
X132843793Y-102788764D01*
X132843794Y-102788765D01*
X132923235Y-102868206D01*
X133026009Y-102913585D01*
X133051135Y-102916500D01*
X133233499Y-102916499D01*
X133300538Y-102936183D01*
X133346293Y-102988987D01*
X133357499Y-103040499D01*
X133357499Y-103195536D01*
X133337814Y-103262575D01*
X133285010Y-103308330D01*
X133278989Y-103310890D01*
X133140160Y-103365637D01*
X133140158Y-103365638D01*
X133019577Y-103457077D01*
X132928139Y-103577656D01*
X132872622Y-103718437D01*
X132863575Y-103793784D01*
X132836037Y-103857998D01*
X132778155Y-103897131D01*
X132740459Y-103903000D01*
X132572122Y-103903000D01*
X132545765Y-103900166D01*
X132541391Y-103899214D01*
X132541384Y-103899214D01*
X132500848Y-103902113D01*
X132490663Y-103902842D01*
X132486241Y-103903000D01*
X132470878Y-103903000D01*
X132455676Y-103905185D01*
X132451280Y-103905658D01*
X132404746Y-103908987D01*
X132400557Y-103909287D01*
X132400556Y-103909287D01*
X132400552Y-103909288D01*
X132396357Y-103910853D01*
X132370688Y-103917405D01*
X132366246Y-103918043D01*
X132319989Y-103939168D01*
X132315911Y-103940857D01*
X132298548Y-103947333D01*
X132268267Y-103958628D01*
X132264676Y-103961317D01*
X132241895Y-103974833D01*
X132237820Y-103976694D01*
X132237812Y-103976699D01*
X132199400Y-104009984D01*
X132195954Y-104012761D01*
X132183654Y-104021968D01*
X132183638Y-104021983D01*
X132172766Y-104032853D01*
X132169532Y-104035863D01*
X132131113Y-104069154D01*
X132131107Y-104069161D01*
X132128686Y-104072929D01*
X132112058Y-104093561D01*
X130270961Y-105934658D01*
X130250329Y-105951286D01*
X130246561Y-105953707D01*
X130246554Y-105953713D01*
X130213263Y-105992132D01*
X130210253Y-105995366D01*
X130199383Y-106006238D01*
X130199368Y-106006254D01*
X130190161Y-106018554D01*
X130187384Y-106022000D01*
X130154099Y-106060412D01*
X130154094Y-106060420D01*
X130152233Y-106064495D01*
X130138717Y-106087276D01*
X130136028Y-106090867D01*
X130118262Y-106138501D01*
X130116568Y-106142589D01*
X130095443Y-106188846D01*
X130094805Y-106193288D01*
X130088253Y-106218957D01*
X130086688Y-106223152D01*
X130086687Y-106223159D01*
X130083058Y-106273872D01*
X130082586Y-106278266D01*
X130080400Y-106293478D01*
X130080400Y-106308852D01*
X130080241Y-106313284D01*
X130079664Y-106321344D01*
X130055240Y-106386806D01*
X130043674Y-106400154D01*
X130036080Y-106407750D01*
X130033665Y-106405335D01*
X129994534Y-106437256D01*
X129925110Y-106445139D01*
X129862445Y-106414237D01*
X129856786Y-106407704D01*
X129856731Y-106407760D01*
X129848718Y-106399747D01*
X129846709Y-106396068D01*
X129844096Y-106393051D01*
X129842109Y-106390150D01*
X129843105Y-106389467D01*
X129815233Y-106338424D01*
X129812400Y-106312074D01*
X129812400Y-106146516D01*
X129815234Y-106120160D01*
X129816185Y-106115788D01*
X129816185Y-106115784D01*
X129812558Y-106065074D01*
X129812400Y-106060650D01*
X129812400Y-106045286D01*
X129812400Y-106045283D01*
X129810208Y-106030041D01*
X129809741Y-106025691D01*
X129806113Y-105974957D01*
X129804547Y-105970758D01*
X129797993Y-105945076D01*
X129797356Y-105940649D01*
X129797356Y-105940647D01*
X129787479Y-105919020D01*
X129776233Y-105894393D01*
X129774538Y-105890303D01*
X129772716Y-105885417D01*
X129756772Y-105842669D01*
X129756771Y-105842667D01*
X129754088Y-105839083D01*
X129740562Y-105816286D01*
X129738703Y-105812216D01*
X129738701Y-105812213D01*
X129705406Y-105773790D01*
X129702638Y-105770356D01*
X129693421Y-105758042D01*
X129682551Y-105747172D01*
X129679534Y-105743931D01*
X129646244Y-105705512D01*
X129646240Y-105705508D01*
X129642472Y-105703087D01*
X129621834Y-105686455D01*
X127063559Y-103128180D01*
X127030074Y-103066857D01*
X127035058Y-102997165D01*
X127076930Y-102941232D01*
X127142394Y-102916815D01*
X127151240Y-102916499D01*
X127298856Y-102916499D01*
X127298864Y-102916499D01*
X127298879Y-102916497D01*
X127298882Y-102916497D01*
X127323987Y-102913586D01*
X127323988Y-102913585D01*
X127323991Y-102913585D01*
X127426765Y-102868206D01*
X127506206Y-102788765D01*
X127551585Y-102685991D01*
X127554500Y-102660865D01*
X127554499Y-101604000D01*
X130256000Y-101604000D01*
X130763639Y-101604000D01*
X130830678Y-101623685D01*
X130876433Y-101676489D01*
X130886377Y-101745647D01*
X130884532Y-101755578D01*
X130869736Y-101820407D01*
X130869735Y-101820408D01*
X130880443Y-101963295D01*
X130878703Y-101963425D01*
X130875106Y-102022145D01*
X130833808Y-102078503D01*
X130768597Y-102103587D01*
X130758488Y-102104000D01*
X130256001Y-102104000D01*
X130256001Y-102660785D01*
X130256002Y-102660808D01*
X130258908Y-102685869D01*
X130258909Y-102685873D01*
X130304211Y-102788474D01*
X130304214Y-102788479D01*
X130383520Y-102867785D01*
X130383525Y-102867788D01*
X130486123Y-102913089D01*
X130511206Y-102915999D01*
X131067999Y-102915999D01*
X131067999Y-102915998D01*
X131068000Y-102410065D01*
X131087685Y-102343026D01*
X131140489Y-102297271D01*
X131209647Y-102287327D01*
X131228542Y-102291572D01*
X131251002Y-102298500D01*
X131251004Y-102298500D01*
X131351311Y-102298500D01*
X131351312Y-102298500D01*
X131425518Y-102287315D01*
X131494741Y-102296788D01*
X131547856Y-102342182D01*
X131567996Y-102409086D01*
X131567999Y-102409930D01*
X131567999Y-102915998D01*
X131568000Y-102915999D01*
X132124786Y-102915999D01*
X132124808Y-102915997D01*
X132149869Y-102913091D01*
X132149873Y-102913090D01*
X132252474Y-102867788D01*
X132252479Y-102867785D01*
X132331785Y-102788479D01*
X132331788Y-102788474D01*
X132377089Y-102685877D01*
X132377089Y-102685875D01*
X132379999Y-102660794D01*
X132380000Y-102660791D01*
X132380000Y-102104000D01*
X131872361Y-102104000D01*
X131805322Y-102084315D01*
X131759567Y-102031511D01*
X131749623Y-101962353D01*
X131751467Y-101952421D01*
X131766264Y-101887593D01*
X131766264Y-101887590D01*
X131755557Y-101744705D01*
X131757296Y-101744574D01*
X131760894Y-101685855D01*
X131802192Y-101629497D01*
X131867403Y-101604413D01*
X131877512Y-101604000D01*
X132379999Y-101604000D01*
X132379998Y-101047214D01*
X132379997Y-101047191D01*
X132377091Y-101022130D01*
X132377090Y-101022126D01*
X132331788Y-100919525D01*
X132331785Y-100919520D01*
X132252479Y-100840214D01*
X132252474Y-100840211D01*
X132149876Y-100794910D01*
X132124794Y-100792000D01*
X131568000Y-100792000D01*
X131568000Y-101297934D01*
X131548315Y-101364973D01*
X131495511Y-101410728D01*
X131426353Y-101420672D01*
X131407453Y-101416426D01*
X131384998Y-101409500D01*
X131284688Y-101409500D01*
X131284680Y-101409500D01*
X131210481Y-101420684D01*
X131141256Y-101411211D01*
X131088142Y-101365816D01*
X131068003Y-101298912D01*
X131068000Y-101298069D01*
X131068000Y-100792000D01*
X130511214Y-100792000D01*
X130511191Y-100792002D01*
X130486130Y-100794908D01*
X130486126Y-100794909D01*
X130383525Y-100840211D01*
X130383520Y-100840214D01*
X130304214Y-100919520D01*
X130304211Y-100919525D01*
X130258910Y-101022122D01*
X130258910Y-101022124D01*
X130256000Y-101047205D01*
X130256000Y-101604000D01*
X127554499Y-101604000D01*
X127554499Y-101047136D01*
X127554497Y-101047117D01*
X127551586Y-101022012D01*
X127551585Y-101022010D01*
X127551585Y-101022009D01*
X127506206Y-100919235D01*
X127426765Y-100839794D01*
X127426765Y-100839793D01*
X127323992Y-100794415D01*
X127298868Y-100791500D01*
X127298865Y-100791500D01*
X127107000Y-100791500D01*
X127039961Y-100771815D01*
X126994206Y-100719011D01*
X126983000Y-100667500D01*
X126983000Y-100500499D01*
X127002685Y-100433460D01*
X127055489Y-100387705D01*
X127107000Y-100376499D01*
X127298856Y-100376499D01*
X127298864Y-100376499D01*
X127298879Y-100376497D01*
X127298882Y-100376497D01*
X127323987Y-100373586D01*
X127323988Y-100373585D01*
X127323991Y-100373585D01*
X127426765Y-100328206D01*
X127506206Y-100248765D01*
X127551585Y-100145991D01*
X127554500Y-100120865D01*
X127554499Y-99064000D01*
X130256000Y-99064000D01*
X130763639Y-99064000D01*
X130830678Y-99083685D01*
X130876433Y-99136489D01*
X130886377Y-99205647D01*
X130884532Y-99215578D01*
X130869736Y-99280407D01*
X130869735Y-99280408D01*
X130880443Y-99423295D01*
X130878703Y-99423425D01*
X130875106Y-99482145D01*
X130833808Y-99538503D01*
X130768597Y-99563587D01*
X130758488Y-99564000D01*
X130256001Y-99564000D01*
X130256001Y-100120785D01*
X130256002Y-100120808D01*
X130258908Y-100145869D01*
X130258909Y-100145873D01*
X130304211Y-100248474D01*
X130304214Y-100248479D01*
X130383520Y-100327785D01*
X130383525Y-100327788D01*
X130486123Y-100373089D01*
X130511206Y-100375999D01*
X131067999Y-100375999D01*
X131067999Y-100375998D01*
X131068000Y-99870065D01*
X131087685Y-99803026D01*
X131140489Y-99757271D01*
X131209647Y-99747327D01*
X131228542Y-99751572D01*
X131251002Y-99758500D01*
X131251004Y-99758500D01*
X131351311Y-99758500D01*
X131351312Y-99758500D01*
X131425518Y-99747315D01*
X131494741Y-99756788D01*
X131547856Y-99802182D01*
X131567996Y-99869086D01*
X131567999Y-99869930D01*
X131567999Y-100375998D01*
X131568000Y-100375999D01*
X132124786Y-100375999D01*
X132124808Y-100375997D01*
X132149869Y-100373091D01*
X132149873Y-100373090D01*
X132252474Y-100327788D01*
X132252479Y-100327785D01*
X132331785Y-100248479D01*
X132331788Y-100248474D01*
X132377089Y-100145877D01*
X132377089Y-100145875D01*
X132379999Y-100120794D01*
X132380000Y-100120791D01*
X132380000Y-99564000D01*
X131872361Y-99564000D01*
X131805322Y-99544315D01*
X131759567Y-99491511D01*
X131749623Y-99422353D01*
X131751467Y-99412421D01*
X131766264Y-99347593D01*
X131766264Y-99347590D01*
X131755557Y-99204705D01*
X131757296Y-99204574D01*
X131760894Y-99145855D01*
X131802192Y-99089497D01*
X131867403Y-99064413D01*
X131877512Y-99064000D01*
X132379999Y-99064000D01*
X132379999Y-99063999D01*
X132379998Y-98507214D01*
X132379997Y-98507191D01*
X132377091Y-98482130D01*
X132377090Y-98482126D01*
X132331788Y-98379525D01*
X132331785Y-98379520D01*
X132252479Y-98300214D01*
X132252474Y-98300211D01*
X132149876Y-98254910D01*
X132124794Y-98252000D01*
X131568000Y-98252000D01*
X131568000Y-98757934D01*
X131548315Y-98824973D01*
X131495511Y-98870728D01*
X131426353Y-98880672D01*
X131407453Y-98876426D01*
X131384998Y-98869500D01*
X131284688Y-98869500D01*
X131284680Y-98869500D01*
X131210481Y-98880684D01*
X131141256Y-98871211D01*
X131088142Y-98825816D01*
X131068003Y-98758912D01*
X131068000Y-98758069D01*
X131068000Y-98252000D01*
X130511214Y-98252000D01*
X130511191Y-98252002D01*
X130486130Y-98254908D01*
X130486126Y-98254909D01*
X130383525Y-98300211D01*
X130383520Y-98300214D01*
X130304214Y-98379520D01*
X130304211Y-98379525D01*
X130258910Y-98482122D01*
X130258910Y-98482124D01*
X130256000Y-98507205D01*
X130256000Y-99064000D01*
X127554499Y-99064000D01*
X127554499Y-98507136D01*
X127554497Y-98507117D01*
X127551586Y-98482012D01*
X127551585Y-98482010D01*
X127551585Y-98482009D01*
X127506206Y-98379235D01*
X127426765Y-98299794D01*
X127426765Y-98299793D01*
X127323992Y-98254415D01*
X127298865Y-98251500D01*
X125685143Y-98251500D01*
X125685117Y-98251502D01*
X125660012Y-98254413D01*
X125660008Y-98254415D01*
X125557235Y-98299793D01*
X125477794Y-98379234D01*
X125432415Y-98482006D01*
X125432415Y-98482008D01*
X125429500Y-98507131D01*
X125429500Y-100120856D01*
X125429502Y-100120882D01*
X125432413Y-100145987D01*
X125432415Y-100145991D01*
X125477793Y-100248764D01*
X125477794Y-100248765D01*
X125557235Y-100328206D01*
X125660009Y-100373585D01*
X125685135Y-100376500D01*
X125877000Y-100376499D01*
X125944039Y-100396183D01*
X125989794Y-100448987D01*
X126001000Y-100500499D01*
X126001000Y-100667500D01*
X125981315Y-100734539D01*
X125928511Y-100780294D01*
X125877001Y-100791500D01*
X125685143Y-100791500D01*
X125685117Y-100791502D01*
X125660012Y-100794413D01*
X125660008Y-100794415D01*
X125557235Y-100839793D01*
X125477794Y-100919234D01*
X125432415Y-101022006D01*
X125432415Y-101022008D01*
X125429500Y-101047131D01*
X125429500Y-102660856D01*
X125429502Y-102660882D01*
X125432413Y-102685987D01*
X125432415Y-102685991D01*
X125477793Y-102788764D01*
X125477793Y-102788765D01*
X125477794Y-102788765D01*
X125557235Y-102868206D01*
X125660009Y-102913585D01*
X125685135Y-102916500D01*
X125877000Y-102916499D01*
X125944039Y-102936183D01*
X125989794Y-102988987D01*
X126001000Y-103040499D01*
X126001000Y-103184883D01*
X125998167Y-103211232D01*
X125997215Y-103215612D01*
X125997215Y-103215614D01*
X125997215Y-103215615D01*
X126000842Y-103266324D01*
X126001000Y-103270748D01*
X126001000Y-103286116D01*
X126001001Y-103286130D01*
X126003186Y-103301333D01*
X126003658Y-103305727D01*
X126007287Y-103356446D01*
X126007287Y-103356447D01*
X126008853Y-103360645D01*
X126015406Y-103386319D01*
X126016043Y-103390750D01*
X126037162Y-103436995D01*
X126038856Y-103441084D01*
X126056628Y-103488730D01*
X126056628Y-103488731D01*
X126059311Y-103492315D01*
X126072837Y-103515111D01*
X126074697Y-103519184D01*
X126108009Y-103557627D01*
X126110771Y-103561056D01*
X126119979Y-103573358D01*
X126119982Y-103573361D01*
X126130840Y-103584219D01*
X126133857Y-103587459D01*
X126167155Y-103625887D01*
X126167159Y-103625891D01*
X126170922Y-103628309D01*
X126191565Y-103644944D01*
X128676643Y-106130022D01*
X128710128Y-106191345D01*
X128705144Y-106261037D01*
X128663272Y-106316970D01*
X128597808Y-106341387D01*
X128529535Y-106326535D01*
X128519282Y-106320246D01*
X128519165Y-106320194D01*
X128436693Y-106283779D01*
X128416392Y-106274815D01*
X128391265Y-106271900D01*
X127751543Y-106271900D01*
X127751517Y-106271902D01*
X127726412Y-106274813D01*
X127726407Y-106274815D01*
X127677013Y-106296624D01*
X127607735Y-106305694D01*
X127544550Y-106275870D01*
X127539248Y-106270870D01*
X124479318Y-103210939D01*
X124445833Y-103149616D01*
X124442999Y-103123265D01*
X124442999Y-103040497D01*
X124462684Y-102973460D01*
X124515488Y-102927705D01*
X124566999Y-102916499D01*
X124758856Y-102916499D01*
X124758864Y-102916499D01*
X124758879Y-102916497D01*
X124758882Y-102916497D01*
X124783987Y-102913586D01*
X124783988Y-102913585D01*
X124783991Y-102913585D01*
X124886765Y-102868206D01*
X124966206Y-102788765D01*
X125011585Y-102685991D01*
X125014500Y-102660865D01*
X125014499Y-101047136D01*
X125014497Y-101047117D01*
X125011586Y-101022012D01*
X125011585Y-101022010D01*
X125011585Y-101022009D01*
X124966206Y-100919235D01*
X124886765Y-100839794D01*
X124886764Y-100839793D01*
X124783992Y-100794415D01*
X124758868Y-100791500D01*
X124758865Y-100791500D01*
X124567000Y-100791500D01*
X124499961Y-100771815D01*
X124454206Y-100719011D01*
X124443000Y-100667500D01*
X124443000Y-100500499D01*
X124462685Y-100433460D01*
X124515489Y-100387705D01*
X124567000Y-100376499D01*
X124758856Y-100376499D01*
X124758864Y-100376499D01*
X124758879Y-100376497D01*
X124758882Y-100376497D01*
X124783987Y-100373586D01*
X124783988Y-100373585D01*
X124783991Y-100373585D01*
X124886765Y-100328206D01*
X124966206Y-100248765D01*
X125011585Y-100145991D01*
X125014500Y-100120865D01*
X125014499Y-98507136D01*
X125014497Y-98507117D01*
X125011586Y-98482012D01*
X125011585Y-98482010D01*
X125011585Y-98482009D01*
X124966206Y-98379235D01*
X124886765Y-98299794D01*
X124886764Y-98299793D01*
X124783992Y-98254415D01*
X124758865Y-98251500D01*
X123145143Y-98251500D01*
X123145117Y-98251502D01*
X123120012Y-98254413D01*
X123120008Y-98254415D01*
X123017235Y-98299793D01*
X122937794Y-98379234D01*
X122892415Y-98482006D01*
X122892415Y-98482008D01*
X122889500Y-98507131D01*
X122889500Y-100120856D01*
X122889502Y-100120882D01*
X122892413Y-100145987D01*
X122892415Y-100145991D01*
X122937793Y-100248764D01*
X122937794Y-100248765D01*
X123017235Y-100328206D01*
X123120009Y-100373585D01*
X123145135Y-100376500D01*
X123337000Y-100376499D01*
X123404039Y-100396183D01*
X123449794Y-100448987D01*
X123461000Y-100500499D01*
X123461000Y-100667500D01*
X123441315Y-100734539D01*
X123388511Y-100780294D01*
X123337001Y-100791500D01*
X123145143Y-100791500D01*
X123145117Y-100791502D01*
X123120012Y-100794413D01*
X123120008Y-100794415D01*
X123017235Y-100839793D01*
X122937794Y-100919234D01*
X122892415Y-101022006D01*
X122892415Y-101022008D01*
X122889500Y-101047131D01*
X122889500Y-102660856D01*
X112100000Y-102660856D01*
X112100000Y-97023690D01*
X112119685Y-96956651D01*
X112172489Y-96910896D01*
X112223686Y-96899690D01*
X151975692Y-96800310D01*
X152042778Y-96819827D01*
G37*
%TD.AperFunction*%
%TD*%
M02*
