%TF.GenerationSoftware,KiCad,Pcbnew,7.0.5.1-1-g8f565ef7f0-dirty-deb11*%
%TF.CreationDate,2023-07-20T11:18:40+00:00*%
%TF.ProjectId,ALTIMET02,414c5449-4d45-4543-9032-2e6b69636164,rev?*%
%TF.SameCoordinates,Original*%
%TF.FileFunction,Copper,L1,Top*%
%TF.FilePolarity,Positive*%
%FSLAX46Y46*%
G04 Gerber Fmt 4.6, Leading zero omitted, Abs format (unit mm)*
G04 Created by KiCad (PCBNEW 7.0.5.1-1-g8f565ef7f0-dirty-deb11) date 2023-07-20 11:18:40*
%MOMM*%
%LPD*%
G01*
G04 APERTURE LIST*
G04 Aperture macros list*
%AMFreePoly0*
4,1,19,0.550000,-0.750000,0.000000,-0.750000,0.000000,-0.744911,-0.071157,-0.744911,-0.207708,-0.704816,-0.327430,-0.627875,-0.420627,-0.520320,-0.479746,-0.390866,-0.500000,-0.250000,-0.500000,0.250000,-0.479746,0.390866,-0.420627,0.520320,-0.327430,0.627875,-0.207708,0.704816,-0.071157,0.744911,0.000000,0.744911,0.000000,0.750000,0.550000,0.750000,0.550000,-0.750000,0.550000,-0.750000,
$1*%
%AMFreePoly1*
4,1,19,0.000000,0.744911,0.071157,0.744911,0.207708,0.704816,0.327430,0.627875,0.420627,0.520320,0.479746,0.390866,0.500000,0.250000,0.500000,-0.250000,0.479746,-0.390866,0.420627,-0.520320,0.327430,-0.627875,0.207708,-0.704816,0.071157,-0.744911,0.000000,-0.744911,0.000000,-0.750000,-0.550000,-0.750000,-0.550000,0.750000,0.000000,0.750000,0.000000,0.744911,0.000000,0.744911,
$1*%
G04 Aperture macros list end*
%ADD10C,0.150000*%
%TA.AperFunction,NonConductor*%
%ADD11C,0.150000*%
%TD*%
%TA.AperFunction,ComponentPad*%
%ADD12R,1.524000X1.524000*%
%TD*%
%TA.AperFunction,ComponentPad*%
%ADD13C,6.000000*%
%TD*%
%TA.AperFunction,SMDPad,CuDef*%
%ADD14FreePoly0,0.000000*%
%TD*%
%TA.AperFunction,SMDPad,CuDef*%
%ADD15R,1.000000X1.500000*%
%TD*%
%TA.AperFunction,SMDPad,CuDef*%
%ADD16FreePoly1,0.000000*%
%TD*%
%TA.AperFunction,ViaPad*%
%ADD17C,0.800000*%
%TD*%
%TA.AperFunction,Conductor*%
%ADD18C,0.508000*%
%TD*%
%TA.AperFunction,Conductor*%
%ADD19C,0.400000*%
%TD*%
G04 APERTURE END LIST*
D10*
D11*
X114101905Y-107134819D02*
X114101905Y-106134819D01*
X114101905Y-106134819D02*
X114435238Y-106849104D01*
X114435238Y-106849104D02*
X114768571Y-106134819D01*
X114768571Y-106134819D02*
X114768571Y-107134819D01*
X115720952Y-107134819D02*
X115244762Y-107134819D01*
X115244762Y-107134819D02*
X115244762Y-106134819D01*
X116006667Y-106849104D02*
X116482857Y-106849104D01*
X115911429Y-107134819D02*
X116244762Y-106134819D01*
X116244762Y-106134819D02*
X116578095Y-107134819D01*
X117244762Y-106611009D02*
X117387619Y-106658628D01*
X117387619Y-106658628D02*
X117435238Y-106706247D01*
X117435238Y-106706247D02*
X117482857Y-106801485D01*
X117482857Y-106801485D02*
X117482857Y-106944342D01*
X117482857Y-106944342D02*
X117435238Y-107039580D01*
X117435238Y-107039580D02*
X117387619Y-107087200D01*
X117387619Y-107087200D02*
X117292381Y-107134819D01*
X117292381Y-107134819D02*
X116911429Y-107134819D01*
X116911429Y-107134819D02*
X116911429Y-106134819D01*
X116911429Y-106134819D02*
X117244762Y-106134819D01*
X117244762Y-106134819D02*
X117340000Y-106182438D01*
X117340000Y-106182438D02*
X117387619Y-106230057D01*
X117387619Y-106230057D02*
X117435238Y-106325295D01*
X117435238Y-106325295D02*
X117435238Y-106420533D01*
X117435238Y-106420533D02*
X117387619Y-106515771D01*
X117387619Y-106515771D02*
X117340000Y-106563390D01*
X117340000Y-106563390D02*
X117244762Y-106611009D01*
X117244762Y-106611009D02*
X116911429Y-106611009D01*
X117911429Y-107039580D02*
X117959048Y-107087200D01*
X117959048Y-107087200D02*
X117911429Y-107134819D01*
X117911429Y-107134819D02*
X117863810Y-107087200D01*
X117863810Y-107087200D02*
X117911429Y-107039580D01*
X117911429Y-107039580D02*
X117911429Y-107134819D01*
X118816190Y-107087200D02*
X118720952Y-107134819D01*
X118720952Y-107134819D02*
X118530476Y-107134819D01*
X118530476Y-107134819D02*
X118435238Y-107087200D01*
X118435238Y-107087200D02*
X118387619Y-107039580D01*
X118387619Y-107039580D02*
X118340000Y-106944342D01*
X118340000Y-106944342D02*
X118340000Y-106658628D01*
X118340000Y-106658628D02*
X118387619Y-106563390D01*
X118387619Y-106563390D02*
X118435238Y-106515771D01*
X118435238Y-106515771D02*
X118530476Y-106468152D01*
X118530476Y-106468152D02*
X118720952Y-106468152D01*
X118720952Y-106468152D02*
X118816190Y-106515771D01*
X119149524Y-106468152D02*
X119673333Y-106468152D01*
X119673333Y-106468152D02*
X119149524Y-107134819D01*
X119149524Y-107134819D02*
X119673333Y-107134819D01*
%TA.AperFunction,EtchedComponent*%
%TO.C,JP3*%
G36*
X131680000Y-113838000D02*
G01*
X131180000Y-113838000D01*
X131180000Y-113238000D01*
X131680000Y-113238000D01*
X131680000Y-113838000D01*
G37*
%TD.AperFunction*%
%TD*%
D12*
%TO.P,J3,1*%
%TO.N,GND*%
X141478000Y-99314000D03*
%TO.P,J3,2*%
X141478000Y-101854000D03*
%TO.P,J3,3*%
%TO.N,SCLK*%
X138938000Y-99314000D03*
%TO.P,J3,4*%
X138938000Y-101854000D03*
%TO.P,J3,5*%
%TO.N,VDD*%
X136398000Y-99314000D03*
%TO.P,J3,6*%
X136398000Y-101854000D03*
%TO.P,J3,7*%
%TO.N,MOSI{slash}SDA*%
X133858000Y-99314000D03*
%TO.P,J3,8*%
X133858000Y-101854000D03*
%TO.P,J3,9*%
%TO.N,GND*%
X131318000Y-99314000D03*
%TO.P,J3,10*%
X131318000Y-101854000D03*
%TD*%
%TO.P,J2,1*%
%TO.N,MISO*%
X122682000Y-101854000D03*
%TO.P,J2,2*%
%TO.N,VDD*%
X122682000Y-99314000D03*
%TO.P,J2,3*%
%TO.N,SCLK*%
X125222000Y-101854000D03*
%TO.P,J2,4*%
%TO.N,MOSI{slash}SDA*%
X125222000Y-99314000D03*
%TO.P,J2,5*%
%TO.N,CS{slash}A*%
X127762000Y-101854000D03*
%TO.P,J2,6*%
%TO.N,GND*%
X127762000Y-99314000D03*
%TD*%
D13*
%TO.P,H1,1,1*%
%TO.N,GND*%
X147320000Y-111760000D03*
%TD*%
%TO.P,H4,1,1*%
%TO.N,GND*%
X116840000Y-101600000D03*
%TD*%
D14*
%TO.P,JP3,1,A*%
%TO.N,GND*%
X130780000Y-113538000D03*
D15*
%TO.P,JP3,2,C*%
%TO.N,CS{slash}A*%
X132080000Y-113538000D03*
D16*
%TO.P,JP3,3,B*%
%TO.N,VDD*%
X133380000Y-113538000D03*
%TD*%
D13*
%TO.P,H3,1,1*%
%TO.N,GND*%
X147320000Y-101600000D03*
%TD*%
%TO.P,H2,1,1*%
%TO.N,GND*%
X116840000Y-111760000D03*
%TD*%
D17*
%TO.N,VDD*%
X135128000Y-113538000D03*
X138684000Y-106717500D03*
%TO.N,CS{slash}A*%
X127254000Y-112014000D03*
%TO.N,GND*%
X141478000Y-106426000D03*
X135128000Y-107188000D03*
X134112000Y-107188000D03*
X137160000Y-107188000D03*
X129286000Y-113538000D03*
X129286000Y-104648000D03*
X142240000Y-110490000D03*
X137160000Y-109474000D03*
X142748000Y-106426000D03*
X129286000Y-112268000D03*
X133096000Y-107188000D03*
X144018000Y-108712000D03*
X136144000Y-107188000D03*
X128524000Y-113030000D03*
%TD*%
D18*
%TO.N,VDD*%
X136398000Y-104431500D02*
X138684000Y-106717500D01*
X136906000Y-113538000D02*
X135128000Y-113538000D01*
X134874000Y-97790000D02*
X124206000Y-97790000D01*
X124206000Y-97790000D02*
X122682000Y-99314000D01*
X136398000Y-99314000D02*
X134874000Y-97790000D01*
X136398000Y-101854000D02*
X136398000Y-104431500D01*
X138684000Y-106717500D02*
X138684000Y-111760000D01*
X135128000Y-113538000D02*
X133380000Y-113538000D01*
X138684000Y-111760000D02*
X136906000Y-113538000D01*
D19*
%TO.N,CS{slash}A*%
X132080000Y-113538000D02*
X132080000Y-114554000D01*
X127254000Y-112014000D02*
X127254000Y-102362000D01*
X127254000Y-113538000D02*
X127254000Y-112014000D01*
X131572000Y-115062000D02*
X128778000Y-115062000D01*
X127254000Y-102362000D02*
X127762000Y-101854000D01*
X132080000Y-114554000D02*
X131572000Y-115062000D01*
X128778000Y-115062000D02*
X127254000Y-113538000D01*
%TD*%
%TA.AperFunction,Conductor*%
%TO.N,GND*%
G36*
X123399591Y-97302002D02*
G01*
X123446084Y-97355658D01*
X123456188Y-97425932D01*
X123426694Y-97490512D01*
X123420566Y-97497095D01*
X122911067Y-98006595D01*
X122848754Y-98040620D01*
X122821971Y-98043500D01*
X121871350Y-98043500D01*
X121810803Y-98050009D01*
X121810795Y-98050011D01*
X121673797Y-98101110D01*
X121673792Y-98101112D01*
X121556738Y-98188738D01*
X121469112Y-98305792D01*
X121469110Y-98305797D01*
X121418011Y-98442795D01*
X121418009Y-98442803D01*
X121411500Y-98503350D01*
X121411500Y-100124649D01*
X121418009Y-100185196D01*
X121418011Y-100185204D01*
X121469110Y-100322202D01*
X121469112Y-100322207D01*
X121556739Y-100439261D01*
X121615343Y-100483133D01*
X121657889Y-100539969D01*
X121662953Y-100610784D01*
X121628928Y-100673096D01*
X121615343Y-100684867D01*
X121556739Y-100728738D01*
X121469112Y-100845792D01*
X121469110Y-100845797D01*
X121418011Y-100982795D01*
X121418009Y-100982803D01*
X121411500Y-101043350D01*
X121411500Y-102664649D01*
X121418009Y-102725196D01*
X121418011Y-102725204D01*
X121469110Y-102862202D01*
X121469112Y-102862207D01*
X121556738Y-102979261D01*
X121673792Y-103066887D01*
X121673794Y-103066888D01*
X121673796Y-103066889D01*
X121715857Y-103082577D01*
X121810795Y-103117988D01*
X121810803Y-103117990D01*
X121871350Y-103124499D01*
X121871355Y-103124499D01*
X121871362Y-103124500D01*
X121871368Y-103124500D01*
X123492632Y-103124500D01*
X123492638Y-103124500D01*
X123492645Y-103124499D01*
X123492649Y-103124499D01*
X123553196Y-103117990D01*
X123553199Y-103117989D01*
X123553201Y-103117989D01*
X123690204Y-103066889D01*
X123690799Y-103066444D01*
X123749913Y-103022191D01*
X123807261Y-102979261D01*
X123851131Y-102920656D01*
X123907966Y-102878111D01*
X123978781Y-102873045D01*
X124041094Y-102907070D01*
X124052866Y-102920656D01*
X124096737Y-102979260D01*
X124213792Y-103066887D01*
X124213794Y-103066888D01*
X124213796Y-103066889D01*
X124255857Y-103082577D01*
X124350795Y-103117988D01*
X124350803Y-103117990D01*
X124411350Y-103124499D01*
X124411355Y-103124499D01*
X124411362Y-103124500D01*
X124411368Y-103124500D01*
X126032632Y-103124500D01*
X126032638Y-103124500D01*
X126032645Y-103124499D01*
X126032649Y-103124499D01*
X126093196Y-103117990D01*
X126093199Y-103117989D01*
X126093201Y-103117989D01*
X126230204Y-103066889D01*
X126230799Y-103066444D01*
X126343991Y-102981709D01*
X126410511Y-102956898D01*
X126479885Y-102971989D01*
X126530087Y-103022191D01*
X126545500Y-103082577D01*
X126545499Y-111394770D01*
X126525497Y-111462891D01*
X126518791Y-111471676D01*
X126518842Y-111471713D01*
X126514957Y-111477059D01*
X126419476Y-111642438D01*
X126419473Y-111642445D01*
X126360457Y-111824072D01*
X126340496Y-112013999D01*
X126360457Y-112203927D01*
X126386437Y-112283883D01*
X126419473Y-112385556D01*
X126419476Y-112385561D01*
X126514958Y-112550941D01*
X126518843Y-112556288D01*
X126517233Y-112557457D01*
X126543853Y-112612925D01*
X126545500Y-112633229D01*
X126545500Y-113514685D01*
X126545385Y-113518490D01*
X126541598Y-113581092D01*
X126552902Y-113642782D01*
X126553475Y-113646544D01*
X126561033Y-113708794D01*
X126561034Y-113708798D01*
X126564650Y-113718333D01*
X126570771Y-113740289D01*
X126572612Y-113750332D01*
X126598353Y-113807528D01*
X126599809Y-113811043D01*
X126613334Y-113846705D01*
X126622046Y-113869675D01*
X126627840Y-113878069D01*
X126639035Y-113897919D01*
X126643223Y-113907222D01*
X126643225Y-113907226D01*
X126667449Y-113938146D01*
X126681899Y-113956590D01*
X126684154Y-113959655D01*
X126717775Y-114008361D01*
X126719785Y-114011273D01*
X126766740Y-114052871D01*
X126769486Y-114055456D01*
X128260541Y-115546512D01*
X128263127Y-115549258D01*
X128304727Y-115596215D01*
X128327604Y-115612006D01*
X128356342Y-115631844D01*
X128359406Y-115634098D01*
X128377051Y-115647921D01*
X128408774Y-115672774D01*
X128408777Y-115672775D01*
X128408778Y-115672776D01*
X128418065Y-115676956D01*
X128437927Y-115688157D01*
X128446325Y-115693954D01*
X128504992Y-115716203D01*
X128508458Y-115717639D01*
X128565670Y-115743388D01*
X128575696Y-115745225D01*
X128597662Y-115751347D01*
X128607199Y-115754965D01*
X128669473Y-115762525D01*
X128673216Y-115763095D01*
X128734907Y-115774401D01*
X128797502Y-115770614D01*
X128801302Y-115770500D01*
X131548685Y-115770500D01*
X131552488Y-115770614D01*
X131615093Y-115774402D01*
X131676812Y-115763091D01*
X131680525Y-115762526D01*
X131742801Y-115754965D01*
X131752330Y-115751350D01*
X131774304Y-115745226D01*
X131784329Y-115743389D01*
X131841552Y-115717634D01*
X131845009Y-115716202D01*
X131903675Y-115693954D01*
X131912066Y-115688161D01*
X131931922Y-115676961D01*
X131941226Y-115672775D01*
X131990636Y-115634063D01*
X131993621Y-115631867D01*
X132045273Y-115596215D01*
X132086887Y-115549240D01*
X132089456Y-115546512D01*
X132564519Y-115071450D01*
X132567247Y-115068881D01*
X132614215Y-115027273D01*
X132649844Y-114975655D01*
X132652095Y-114972596D01*
X132690774Y-114923226D01*
X132694958Y-114913928D01*
X132706159Y-114894069D01*
X132711954Y-114885675D01*
X132712950Y-114883047D01*
X132714196Y-114881402D01*
X132715496Y-114878926D01*
X132715907Y-114879142D01*
X132755810Y-114826446D01*
X132822466Y-114802002D01*
X132830762Y-114801729D01*
X133451886Y-114801729D01*
X133451889Y-114801729D01*
X133596622Y-114780920D01*
X133734577Y-114740413D01*
X133867586Y-114679670D01*
X133988540Y-114601938D01*
X133988544Y-114601935D01*
X134099051Y-114506179D01*
X134193205Y-114397518D01*
X134203141Y-114382056D01*
X134218359Y-114358379D01*
X134272015Y-114311886D01*
X134324356Y-114300500D01*
X134590919Y-114300500D01*
X134659040Y-114320502D01*
X134664972Y-114324558D01*
X134671248Y-114329118D01*
X134845712Y-114406794D01*
X135032513Y-114446500D01*
X135223487Y-114446500D01*
X135410288Y-114406794D01*
X135584752Y-114329118D01*
X135591021Y-114324562D01*
X135657889Y-114300705D01*
X135665081Y-114300500D01*
X136841272Y-114300500D01*
X136859532Y-114301830D01*
X136861741Y-114302153D01*
X136883672Y-114305366D01*
X136917105Y-114302440D01*
X136936555Y-114300740D01*
X136942048Y-114300500D01*
X136950414Y-114300500D01*
X136982590Y-114296739D01*
X136984414Y-114296552D01*
X137061240Y-114289831D01*
X137061246Y-114289828D01*
X137068425Y-114288347D01*
X137068437Y-114288407D01*
X137075914Y-114286749D01*
X137075900Y-114286690D01*
X137083027Y-114284999D01*
X137083042Y-114284998D01*
X137155580Y-114258596D01*
X137157186Y-114258038D01*
X137230440Y-114233765D01*
X137230443Y-114233762D01*
X137237090Y-114230664D01*
X137237116Y-114230720D01*
X137244003Y-114227386D01*
X137243976Y-114227331D01*
X137250534Y-114224036D01*
X137250534Y-114224035D01*
X137250539Y-114224034D01*
X137315021Y-114181622D01*
X137316448Y-114180713D01*
X137382149Y-114140188D01*
X137382149Y-114140187D01*
X137387909Y-114135634D01*
X137387947Y-114135682D01*
X137393874Y-114130855D01*
X137393834Y-114130807D01*
X137399452Y-114126091D01*
X137399462Y-114126085D01*
X137452425Y-114069945D01*
X137453624Y-114068711D01*
X139177401Y-112344935D01*
X139191240Y-112332975D01*
X139210822Y-112318398D01*
X139244952Y-112277721D01*
X139248651Y-112273685D01*
X139254573Y-112267765D01*
X139274727Y-112242274D01*
X139275807Y-112240949D01*
X139325396Y-112181853D01*
X139325396Y-112181851D01*
X139325399Y-112181849D01*
X139329430Y-112175720D01*
X139329483Y-112175755D01*
X139333595Y-112169300D01*
X139333541Y-112169267D01*
X139337387Y-112163029D01*
X139337395Y-112163020D01*
X139370032Y-112093027D01*
X139370755Y-112091535D01*
X139405394Y-112022566D01*
X139405395Y-112022563D01*
X139407907Y-112015663D01*
X139407965Y-112015684D01*
X139410477Y-112008455D01*
X139410417Y-112008435D01*
X139412721Y-112001480D01*
X139412725Y-112001473D01*
X139428327Y-111925904D01*
X139428693Y-111924253D01*
X139446500Y-111849123D01*
X139446500Y-111849122D01*
X139447352Y-111841835D01*
X139447411Y-111841842D01*
X139448190Y-111834225D01*
X139448129Y-111834220D01*
X139448767Y-111826917D01*
X139448769Y-111826908D01*
X139447421Y-111780577D01*
X139446527Y-111749814D01*
X139446500Y-111747982D01*
X139446500Y-107247571D01*
X139463381Y-107184571D01*
X139518527Y-107089056D01*
X139577542Y-106907428D01*
X139597504Y-106717500D01*
X139577542Y-106527572D01*
X139518527Y-106345944D01*
X139423040Y-106180556D01*
X139423038Y-106180554D01*
X139423034Y-106180548D01*
X139295255Y-106038635D01*
X139140752Y-105926382D01*
X138966288Y-105848706D01*
X138910411Y-105836828D01*
X138847938Y-105803099D01*
X138847515Y-105802677D01*
X137197405Y-104152566D01*
X137163379Y-104090254D01*
X137160500Y-104063471D01*
X137160500Y-103242855D01*
X137180502Y-103174734D01*
X137234158Y-103128241D01*
X137261733Y-103120679D01*
X137261526Y-103119803D01*
X137269198Y-103117989D01*
X137269201Y-103117989D01*
X137406204Y-103066889D01*
X137406799Y-103066444D01*
X137523261Y-102979261D01*
X137567132Y-102920657D01*
X137623968Y-102878110D01*
X137694784Y-102873046D01*
X137757096Y-102907071D01*
X137768868Y-102920657D01*
X137812738Y-102979261D01*
X137929792Y-103066887D01*
X137929794Y-103066888D01*
X137929796Y-103066889D01*
X137971857Y-103082577D01*
X138066795Y-103117988D01*
X138066803Y-103117990D01*
X138127350Y-103124499D01*
X138127355Y-103124499D01*
X138127362Y-103124500D01*
X138127368Y-103124500D01*
X139748632Y-103124500D01*
X139748638Y-103124500D01*
X139748645Y-103124499D01*
X139748649Y-103124499D01*
X139809196Y-103117990D01*
X139809199Y-103117989D01*
X139809201Y-103117989D01*
X139946204Y-103066889D01*
X139946799Y-103066444D01*
X140063261Y-102979261D01*
X140107444Y-102920240D01*
X140164280Y-102877693D01*
X140235095Y-102872629D01*
X140297408Y-102906654D01*
X140309180Y-102920240D01*
X140353095Y-102978904D01*
X140470034Y-103066444D01*
X140606906Y-103117494D01*
X140667402Y-103123999D01*
X140667415Y-103124000D01*
X141224000Y-103124000D01*
X141224000Y-102218805D01*
X141282960Y-102259004D01*
X141411002Y-102298500D01*
X141511312Y-102298500D01*
X141610499Y-102283550D01*
X141731224Y-102225412D01*
X141732000Y-102224691D01*
X141732000Y-103124000D01*
X142288585Y-103124000D01*
X142288597Y-103123999D01*
X142349093Y-103117494D01*
X142485964Y-103066444D01*
X142485965Y-103066444D01*
X142602904Y-102978904D01*
X142690444Y-102861965D01*
X142690444Y-102861964D01*
X142741494Y-102725093D01*
X142747999Y-102664597D01*
X142748000Y-102664585D01*
X142748000Y-102108000D01*
X141844618Y-102108000D01*
X141896447Y-102018228D01*
X141926264Y-101887593D01*
X141916251Y-101753972D01*
X141867297Y-101629240D01*
X141843979Y-101600000D01*
X142748000Y-101600000D01*
X142748000Y-101043414D01*
X142747999Y-101043402D01*
X142741494Y-100982906D01*
X142690444Y-100846035D01*
X142690444Y-100846034D01*
X142602904Y-100729095D01*
X142543823Y-100684868D01*
X142501276Y-100628032D01*
X142496212Y-100557217D01*
X142530237Y-100494904D01*
X142543823Y-100483132D01*
X142602904Y-100438904D01*
X142690444Y-100321965D01*
X142690444Y-100321964D01*
X142741494Y-100185093D01*
X142747999Y-100124597D01*
X142748000Y-100124585D01*
X142748000Y-99568000D01*
X141844618Y-99568000D01*
X141896447Y-99478228D01*
X141926264Y-99347593D01*
X141916251Y-99213972D01*
X141867297Y-99089240D01*
X141843979Y-99060000D01*
X142748000Y-99060000D01*
X142748000Y-98503414D01*
X142747999Y-98503402D01*
X142741494Y-98442906D01*
X142690444Y-98306035D01*
X142690444Y-98306034D01*
X142602904Y-98189095D01*
X142485965Y-98101555D01*
X142349093Y-98050505D01*
X142288597Y-98044000D01*
X141732000Y-98044000D01*
X141732000Y-98949194D01*
X141673040Y-98908996D01*
X141544998Y-98869500D01*
X141444688Y-98869500D01*
X141345501Y-98884450D01*
X141224776Y-98942588D01*
X141224000Y-98943308D01*
X141224000Y-98044000D01*
X140667402Y-98044000D01*
X140606906Y-98050505D01*
X140470035Y-98101555D01*
X140470034Y-98101555D01*
X140353095Y-98189096D01*
X140309179Y-98247760D01*
X140252343Y-98290306D01*
X140181527Y-98295370D01*
X140119216Y-98261345D01*
X140107444Y-98247760D01*
X140063527Y-98189095D01*
X140063261Y-98188739D01*
X140063259Y-98188738D01*
X140063259Y-98188737D01*
X139946207Y-98101112D01*
X139946202Y-98101110D01*
X139809204Y-98050011D01*
X139809196Y-98050009D01*
X139748649Y-98043500D01*
X139748638Y-98043500D01*
X138127362Y-98043500D01*
X138127350Y-98043500D01*
X138066803Y-98050009D01*
X138066795Y-98050011D01*
X137929797Y-98101110D01*
X137929792Y-98101112D01*
X137812738Y-98188739D01*
X137768867Y-98247343D01*
X137712031Y-98289889D01*
X137641216Y-98294953D01*
X137578904Y-98260928D01*
X137567133Y-98247343D01*
X137523261Y-98188739D01*
X137406207Y-98101112D01*
X137406202Y-98101110D01*
X137269204Y-98050011D01*
X137269196Y-98050009D01*
X137208649Y-98043500D01*
X137208638Y-98043500D01*
X136258028Y-98043500D01*
X136189907Y-98023498D01*
X136168933Y-98006595D01*
X135659433Y-97497095D01*
X135625407Y-97434783D01*
X135630472Y-97363968D01*
X135673019Y-97307132D01*
X135739539Y-97282321D01*
X135748528Y-97282000D01*
X151512000Y-97282000D01*
X151580121Y-97302002D01*
X151626614Y-97355658D01*
X151638000Y-97408000D01*
X151638000Y-115952000D01*
X151617998Y-116020121D01*
X151564342Y-116066614D01*
X151512000Y-116078000D01*
X112648000Y-116078000D01*
X112579879Y-116057998D01*
X112533386Y-116004342D01*
X112522000Y-115952000D01*
X112522000Y-105341143D01*
X113124953Y-105341143D01*
X113124953Y-108018857D01*
X120555048Y-108018857D01*
X120555048Y-105341143D01*
X113124953Y-105341143D01*
X112522000Y-105341143D01*
X112522000Y-97408000D01*
X112542002Y-97339879D01*
X112595658Y-97293386D01*
X112648000Y-97282000D01*
X123331470Y-97282000D01*
X123399591Y-97302002D01*
G37*
%TD.AperFunction*%
%TA.AperFunction,Conductor*%
G36*
X129990121Y-98572502D02*
G01*
X130036614Y-98626158D01*
X130048000Y-98678500D01*
X130048000Y-99060000D01*
X130951382Y-99060000D01*
X130899553Y-99149772D01*
X130869736Y-99280407D01*
X130879749Y-99414028D01*
X130928703Y-99538760D01*
X130952021Y-99568000D01*
X130048000Y-99568000D01*
X130048000Y-100124597D01*
X130054505Y-100185093D01*
X130105555Y-100321964D01*
X130105555Y-100321965D01*
X130193095Y-100438904D01*
X130252176Y-100483131D01*
X130294723Y-100539966D01*
X130299788Y-100610782D01*
X130265763Y-100673094D01*
X130252178Y-100684866D01*
X130193095Y-100729096D01*
X130105555Y-100846034D01*
X130105555Y-100846035D01*
X130054505Y-100982906D01*
X130048000Y-101043402D01*
X130048000Y-101600000D01*
X130951382Y-101600000D01*
X130899553Y-101689772D01*
X130869736Y-101820407D01*
X130879749Y-101954028D01*
X130928703Y-102078760D01*
X130952021Y-102108000D01*
X130048000Y-102108000D01*
X130048000Y-102664597D01*
X130054505Y-102725093D01*
X130105555Y-102861964D01*
X130105555Y-102861965D01*
X130193095Y-102978904D01*
X130310034Y-103066444D01*
X130446906Y-103117494D01*
X130507402Y-103123999D01*
X130507415Y-103124000D01*
X131064000Y-103124000D01*
X131064000Y-102218805D01*
X131122960Y-102259004D01*
X131251002Y-102298500D01*
X131351312Y-102298500D01*
X131450499Y-102283550D01*
X131571224Y-102225412D01*
X131572000Y-102224691D01*
X131572000Y-103124000D01*
X132128585Y-103124000D01*
X132128597Y-103123999D01*
X132189093Y-103117494D01*
X132325964Y-103066444D01*
X132325965Y-103066444D01*
X132442903Y-102978904D01*
X132486818Y-102920241D01*
X132543654Y-102877694D01*
X132614469Y-102872628D01*
X132676782Y-102906653D01*
X132688554Y-102920239D01*
X132732738Y-102979260D01*
X132849792Y-103066887D01*
X132849794Y-103066888D01*
X132849796Y-103066889D01*
X132891857Y-103082577D01*
X132986795Y-103117988D01*
X132986803Y-103117990D01*
X133047350Y-103124499D01*
X133047355Y-103124499D01*
X133047362Y-103124500D01*
X133047368Y-103124500D01*
X134668632Y-103124500D01*
X134668638Y-103124500D01*
X134668645Y-103124499D01*
X134668649Y-103124499D01*
X134729196Y-103117990D01*
X134729199Y-103117989D01*
X134729201Y-103117989D01*
X134866204Y-103066889D01*
X134866799Y-103066444D01*
X134983261Y-102979261D01*
X135027132Y-102920657D01*
X135083968Y-102878110D01*
X135154784Y-102873046D01*
X135217096Y-102907071D01*
X135228868Y-102920657D01*
X135272738Y-102979261D01*
X135389792Y-103066887D01*
X135389794Y-103066888D01*
X135389796Y-103066889D01*
X135431857Y-103082577D01*
X135526795Y-103117988D01*
X135534474Y-103119803D01*
X135533926Y-103122120D01*
X135588542Y-103144731D01*
X135629044Y-103203041D01*
X135635500Y-103242855D01*
X135635500Y-104366771D01*
X135634170Y-104385030D01*
X135630634Y-104409168D01*
X135630634Y-104409173D01*
X135635260Y-104462055D01*
X135635500Y-104467548D01*
X135635500Y-104475918D01*
X135639262Y-104508105D01*
X135639448Y-104509925D01*
X135646168Y-104586737D01*
X135647652Y-104593923D01*
X135647593Y-104593935D01*
X135649251Y-104601416D01*
X135649310Y-104601403D01*
X135651002Y-104608543D01*
X135677383Y-104681027D01*
X135677984Y-104682756D01*
X135702234Y-104755938D01*
X135705335Y-104762588D01*
X135705280Y-104762613D01*
X135708619Y-104769510D01*
X135708673Y-104769483D01*
X135711964Y-104776037D01*
X135754353Y-104840487D01*
X135755337Y-104842031D01*
X135795812Y-104907649D01*
X135795813Y-104907650D01*
X135795815Y-104907653D01*
X135800362Y-104913403D01*
X135800314Y-104913440D01*
X135805154Y-104919381D01*
X135805200Y-104919343D01*
X135809914Y-104924962D01*
X135866042Y-104977915D01*
X135867320Y-104979157D01*
X137415734Y-106527572D01*
X137766597Y-106878435D01*
X137797334Y-106928592D01*
X137849473Y-107089056D01*
X137849476Y-107089061D01*
X137904619Y-107184571D01*
X137921500Y-107247571D01*
X137921500Y-111391972D01*
X137901498Y-111460093D01*
X137884595Y-111481067D01*
X136627067Y-112738595D01*
X136564755Y-112772621D01*
X136537972Y-112775500D01*
X135665081Y-112775500D01*
X135596960Y-112755498D01*
X135591021Y-112751437D01*
X135584752Y-112746882D01*
X135410288Y-112669206D01*
X135223487Y-112629500D01*
X135032513Y-112629500D01*
X134845711Y-112669206D01*
X134671248Y-112746882D01*
X134664979Y-112751437D01*
X134598111Y-112775295D01*
X134590919Y-112775500D01*
X134324356Y-112775500D01*
X134256235Y-112755498D01*
X134218359Y-112717621D01*
X134193209Y-112678488D01*
X134193203Y-112678480D01*
X134153993Y-112633229D01*
X134100505Y-112571499D01*
X134099791Y-112570614D01*
X134099047Y-112569816D01*
X133988542Y-112474064D01*
X133988543Y-112474064D01*
X133988540Y-112474062D01*
X133911790Y-112424738D01*
X133867587Y-112396330D01*
X133734576Y-112335586D01*
X133596630Y-112295082D01*
X133596625Y-112295080D01*
X133596622Y-112295080D01*
X133451889Y-112274271D01*
X132830000Y-112274271D01*
X132775166Y-112278192D01*
X132756887Y-112279500D01*
X132746421Y-112282573D01*
X132697357Y-112283883D01*
X132697038Y-112286853D01*
X132628649Y-112279500D01*
X132628638Y-112279500D01*
X131531362Y-112279500D01*
X131531350Y-112279500D01*
X131470803Y-112286009D01*
X131470795Y-112286011D01*
X131333797Y-112337110D01*
X131333792Y-112337112D01*
X131216738Y-112424738D01*
X131129112Y-112541792D01*
X131129110Y-112541797D01*
X131078011Y-112678795D01*
X131078009Y-112678803D01*
X131071500Y-112739350D01*
X131071500Y-114227500D01*
X131051498Y-114295621D01*
X130997842Y-114342114D01*
X130945500Y-114353500D01*
X129123661Y-114353500D01*
X129055540Y-114333498D01*
X129034566Y-114316595D01*
X127999405Y-113281434D01*
X127965379Y-113219122D01*
X127962500Y-113192339D01*
X127962500Y-112633229D01*
X127982502Y-112565108D01*
X127989208Y-112556325D01*
X127989157Y-112556288D01*
X127993033Y-112550950D01*
X127993040Y-112550944D01*
X128088527Y-112385556D01*
X128147542Y-112203928D01*
X128167504Y-112014000D01*
X128147542Y-111824072D01*
X128088527Y-111642444D01*
X127993040Y-111477056D01*
X127993039Y-111477054D01*
X127989158Y-111471713D01*
X127990763Y-111470546D01*
X127964144Y-111415055D01*
X127962500Y-111394770D01*
X127962500Y-103250500D01*
X127982502Y-103182379D01*
X128036158Y-103135886D01*
X128088500Y-103124500D01*
X128572632Y-103124500D01*
X128572638Y-103124500D01*
X128572645Y-103124499D01*
X128572649Y-103124499D01*
X128633196Y-103117990D01*
X128633199Y-103117989D01*
X128633201Y-103117989D01*
X128770204Y-103066889D01*
X128770799Y-103066444D01*
X128887261Y-102979261D01*
X128974887Y-102862207D01*
X128974887Y-102862206D01*
X128974889Y-102862204D01*
X129025989Y-102725201D01*
X129032500Y-102664638D01*
X129032500Y-101043362D01*
X129026001Y-100982906D01*
X129025990Y-100982803D01*
X129025988Y-100982795D01*
X128974978Y-100846035D01*
X128974889Y-100845796D01*
X128974888Y-100845794D01*
X128974887Y-100845792D01*
X128887527Y-100729094D01*
X128887261Y-100728739D01*
X128887260Y-100728738D01*
X128828239Y-100684554D01*
X128785693Y-100627718D01*
X128780629Y-100556902D01*
X128814654Y-100494591D01*
X128828241Y-100482818D01*
X128886904Y-100438903D01*
X128974444Y-100321965D01*
X128974444Y-100321964D01*
X129025494Y-100185093D01*
X129031999Y-100124597D01*
X129032000Y-100124585D01*
X129032000Y-99568000D01*
X128128618Y-99568000D01*
X128180447Y-99478228D01*
X128210264Y-99347593D01*
X128200251Y-99213972D01*
X128151297Y-99089240D01*
X128127979Y-99060000D01*
X129032000Y-99060000D01*
X129032000Y-98678500D01*
X129052002Y-98610379D01*
X129105658Y-98563886D01*
X129158000Y-98552500D01*
X129922000Y-98552500D01*
X129990121Y-98572502D01*
G37*
%TD.AperFunction*%
%TA.AperFunction,Conductor*%
G36*
X131122960Y-99719004D02*
G01*
X131251002Y-99758500D01*
X131351312Y-99758500D01*
X131450499Y-99743550D01*
X131571224Y-99685412D01*
X131572000Y-99684691D01*
X131572000Y-101489194D01*
X131513040Y-101448996D01*
X131384998Y-101409500D01*
X131284688Y-101409500D01*
X131185501Y-101424450D01*
X131064776Y-101482588D01*
X131064000Y-101483308D01*
X131064000Y-99678805D01*
X131122960Y-99719004D01*
G37*
%TD.AperFunction*%
%TA.AperFunction,Conductor*%
G36*
X141282960Y-99719004D02*
G01*
X141411002Y-99758500D01*
X141511312Y-99758500D01*
X141610499Y-99743550D01*
X141731224Y-99685412D01*
X141732000Y-99684691D01*
X141732000Y-101489194D01*
X141673040Y-101448996D01*
X141544998Y-101409500D01*
X141444688Y-101409500D01*
X141345501Y-101424450D01*
X141224776Y-101482588D01*
X141224000Y-101483308D01*
X141224000Y-99678805D01*
X141282960Y-99719004D01*
G37*
%TD.AperFunction*%
%TD*%
M02*
