%TF.GenerationSoftware,KiCad,Pcbnew,7.0.7-7.0.7~ubuntu23.04.1*%
%TF.CreationDate,2023-09-21T00:32:38+00:00*%
%TF.ProjectId,ALTIMET02,414c5449-4d45-4543-9032-2e6b69636164,rev?*%
%TF.SameCoordinates,Original*%
%TF.FileFunction,Soldermask,Bot*%
%TF.FilePolarity,Negative*%
%FSLAX46Y46*%
G04 Gerber Fmt 4.6, Leading zero omitted, Abs format (unit mm)*
G04 Created by KiCad (PCBNEW 7.0.7-7.0.7~ubuntu23.04.1) date 2023-09-21 00:32:38*
%MOMM*%
%LPD*%
G01*
G04 APERTURE LIST*
G04 Aperture macros list*
%AMRoundRect*
0 Rectangle with rounded corners*
0 $1 Rounding radius*
0 $2 $3 $4 $5 $6 $7 $8 $9 X,Y pos of 4 corners*
0 Add a 4 corners polygon primitive as box body*
4,1,4,$2,$3,$4,$5,$6,$7,$8,$9,$2,$3,0*
0 Add four circle primitives for the rounded corners*
1,1,$1+$1,$2,$3*
1,1,$1+$1,$4,$5*
1,1,$1+$1,$6,$7*
1,1,$1+$1,$8,$9*
0 Add four rect primitives between the rounded corners*
20,1,$1+$1,$2,$3,$4,$5,0*
20,1,$1+$1,$4,$5,$6,$7,0*
20,1,$1+$1,$6,$7,$8,$9,0*
20,1,$1+$1,$8,$9,$2,$3,0*%
%AMFreePoly0*
4,1,19,0.550000,-0.750000,0.000000,-0.750000,0.000000,-0.744911,-0.071157,-0.744911,-0.207708,-0.704816,-0.327430,-0.627875,-0.420627,-0.520320,-0.479746,-0.390866,-0.500000,-0.250000,-0.500000,0.250000,-0.479746,0.390866,-0.420627,0.520320,-0.327430,0.627875,-0.207708,0.704816,-0.071157,0.744911,0.000000,0.744911,0.000000,0.750000,0.550000,0.750000,0.550000,-0.750000,0.550000,-0.750000,
$1*%
%AMFreePoly1*
4,1,19,0.000000,0.744911,0.071157,0.744911,0.207708,0.704816,0.327430,0.627875,0.420627,0.520320,0.479746,0.390866,0.500000,0.250000,0.500000,-0.250000,0.479746,-0.390866,0.420627,-0.520320,0.327430,-0.627875,0.207708,-0.704816,0.071157,-0.744911,0.000000,-0.744911,0.000000,-0.750000,-0.550000,-0.750000,-0.550000,0.750000,0.000000,0.750000,0.000000,0.744911,0.000000,0.744911,
$1*%
G04 Aperture macros list end*
%ADD10R,1.524000X1.524000*%
%ADD11C,6.000000*%
%ADD12RoundRect,0.250000X-0.262500X-0.450000X0.262500X-0.450000X0.262500X0.450000X-0.262500X0.450000X0*%
%ADD13RoundRect,0.250000X0.475000X-0.250000X0.475000X0.250000X-0.475000X0.250000X-0.475000X-0.250000X0*%
%ADD14R,0.550000X0.950000*%
%ADD15RoundRect,0.250000X-0.300000X-0.300000X0.300000X-0.300000X0.300000X0.300000X-0.300000X0.300000X0*%
%ADD16C,2.000000*%
%ADD17RoundRect,0.250000X0.262500X0.450000X-0.262500X0.450000X-0.262500X-0.450000X0.262500X-0.450000X0*%
%ADD18FreePoly0,180.000000*%
%ADD19R,1.000000X1.500000*%
%ADD20FreePoly1,180.000000*%
G04 APERTURE END LIST*
D10*
%TO.C,J3*%
X141478000Y-99314000D03*
X141478000Y-101854000D03*
X138938000Y-99314000D03*
X138938000Y-101854000D03*
X136398000Y-99314000D03*
X136398000Y-101854000D03*
X133858000Y-99314000D03*
X133858000Y-101854000D03*
X131318000Y-99314000D03*
X131318000Y-101854000D03*
%TD*%
%TO.C,J1*%
X126492000Y-99314000D03*
X126492000Y-101854000D03*
X123952000Y-99314000D03*
X123952000Y-101854000D03*
%TD*%
D11*
%TO.C,H1*%
X147320000Y-111760000D03*
%TD*%
%TO.C,H4*%
X116840000Y-101600000D03*
%TD*%
D10*
%TO.C,J2*%
X136144000Y-114300000D03*
X136144000Y-111760000D03*
X138684000Y-114300000D03*
X138684000Y-111760000D03*
X141224000Y-114300000D03*
X141224000Y-111760000D03*
%TD*%
D11*
%TO.C,H3*%
X147320000Y-101600000D03*
%TD*%
%TO.C,H2*%
X116840000Y-111760000D03*
%TD*%
D12*
%TO.C,R1*%
X137300000Y-104300000D03*
X139125000Y-104300000D03*
%TD*%
D13*
%TO.C,C2*%
X136362600Y-109562000D03*
X136362600Y-107662000D03*
%TD*%
D14*
%TO.C,U1*%
X131821400Y-109197400D03*
X130571400Y-109197400D03*
X129321400Y-109197400D03*
X128071400Y-109197400D03*
X128071400Y-107047400D03*
X129321400Y-107047400D03*
X130571400Y-107047400D03*
X131821400Y-107047400D03*
%TD*%
D15*
%TO.C,D1*%
X138800000Y-108458000D03*
X141600000Y-108458000D03*
%TD*%
D16*
%TO.C,FID2*%
X125300000Y-108000000D03*
%TD*%
D17*
%TO.C,R2*%
X135500000Y-104300000D03*
X133675000Y-104300000D03*
%TD*%
D16*
%TO.C,FID1*%
X141600000Y-105800000D03*
%TD*%
D13*
%TO.C,C1*%
X134076600Y-109562000D03*
X134076600Y-107662000D03*
%TD*%
D18*
%TO.C,JP1*%
X132000000Y-113626000D03*
D19*
X130700000Y-113626000D03*
D20*
X129400000Y-113626000D03*
%TD*%
M02*
