%TF.GenerationSoftware,KiCad,Pcbnew,7.0.7-7.0.7~ubuntu23.04.1*%
%TF.CreationDate,2023-09-06T12:28:47+00:00*%
%TF.ProjectId,ALTIMET02,414c5449-4d45-4543-9032-2e6b69636164,rev?*%
%TF.SameCoordinates,Original*%
%TF.FileFunction,Copper,L2,Bot*%
%TF.FilePolarity,Positive*%
%FSLAX46Y46*%
G04 Gerber Fmt 4.6, Leading zero omitted, Abs format (unit mm)*
G04 Created by KiCad (PCBNEW 7.0.7-7.0.7~ubuntu23.04.1) date 2023-09-06 12:28:47*
%MOMM*%
%LPD*%
G01*
G04 APERTURE LIST*
G04 Aperture macros list*
%AMRoundRect*
0 Rectangle with rounded corners*
0 $1 Rounding radius*
0 $2 $3 $4 $5 $6 $7 $8 $9 X,Y pos of 4 corners*
0 Add a 4 corners polygon primitive as box body*
4,1,4,$2,$3,$4,$5,$6,$7,$8,$9,$2,$3,0*
0 Add four circle primitives for the rounded corners*
1,1,$1+$1,$2,$3*
1,1,$1+$1,$4,$5*
1,1,$1+$1,$6,$7*
1,1,$1+$1,$8,$9*
0 Add four rect primitives between the rounded corners*
20,1,$1+$1,$2,$3,$4,$5,0*
20,1,$1+$1,$4,$5,$6,$7,0*
20,1,$1+$1,$6,$7,$8,$9,0*
20,1,$1+$1,$8,$9,$2,$3,0*%
%AMFreePoly0*
4,1,19,0.550000,-0.750000,0.000000,-0.750000,0.000000,-0.744911,-0.071157,-0.744911,-0.207708,-0.704816,-0.327430,-0.627875,-0.420627,-0.520320,-0.479746,-0.390866,-0.500000,-0.250000,-0.500000,0.250000,-0.479746,0.390866,-0.420627,0.520320,-0.327430,0.627875,-0.207708,0.704816,-0.071157,0.744911,0.000000,0.744911,0.000000,0.750000,0.550000,0.750000,0.550000,-0.750000,0.550000,-0.750000,
$1*%
%AMFreePoly1*
4,1,19,0.000000,0.744911,0.071157,0.744911,0.207708,0.704816,0.327430,0.627875,0.420627,0.520320,0.479746,0.390866,0.500000,0.250000,0.500000,-0.250000,0.479746,-0.390866,0.420627,-0.520320,0.327430,-0.627875,0.207708,-0.704816,0.071157,-0.744911,0.000000,-0.744911,0.000000,-0.750000,-0.550000,-0.750000,-0.550000,0.750000,0.000000,0.750000,0.000000,0.744911,0.000000,0.744911,
$1*%
G04 Aperture macros list end*
%ADD10C,0.150000*%
%TA.AperFunction,NonConductor*%
%ADD11C,0.150000*%
%TD*%
%TA.AperFunction,ComponentPad*%
%ADD12R,1.524000X1.524000*%
%TD*%
%TA.AperFunction,ComponentPad*%
%ADD13C,6.000000*%
%TD*%
%TA.AperFunction,SMDPad,CuDef*%
%ADD14RoundRect,0.250000X-0.262500X-0.450000X0.262500X-0.450000X0.262500X0.450000X-0.262500X0.450000X0*%
%TD*%
%TA.AperFunction,SMDPad,CuDef*%
%ADD15RoundRect,0.250000X0.475000X-0.250000X0.475000X0.250000X-0.475000X0.250000X-0.475000X-0.250000X0*%
%TD*%
%TA.AperFunction,SMDPad,CuDef*%
%ADD16R,0.550000X0.950000*%
%TD*%
%TA.AperFunction,SMDPad,CuDef*%
%ADD17R,1.300000X1.700000*%
%TD*%
%TA.AperFunction,SMDPad,CuDef*%
%ADD18RoundRect,0.250000X0.262500X0.450000X-0.262500X0.450000X-0.262500X-0.450000X0.262500X-0.450000X0*%
%TD*%
%TA.AperFunction,SMDPad,CuDef*%
%ADD19FreePoly0,180.000000*%
%TD*%
%TA.AperFunction,SMDPad,CuDef*%
%ADD20R,1.000000X1.500000*%
%TD*%
%TA.AperFunction,SMDPad,CuDef*%
%ADD21FreePoly1,180.000000*%
%TD*%
%TA.AperFunction,ViaPad*%
%ADD22C,0.800000*%
%TD*%
%TA.AperFunction,Conductor*%
%ADD23C,0.508000*%
%TD*%
%TA.AperFunction,Conductor*%
%ADD24C,0.250000*%
%TD*%
%TA.AperFunction,Conductor*%
%ADD25C,0.381000*%
%TD*%
%TA.AperFunction,Conductor*%
%ADD26C,0.400000*%
%TD*%
G04 APERTURE END LIST*
D10*
D11*
X150058094Y-107134819D02*
X150058094Y-106134819D01*
X150058094Y-106134819D02*
X149724761Y-106849104D01*
X149724761Y-106849104D02*
X149391428Y-106134819D01*
X149391428Y-106134819D02*
X149391428Y-107134819D01*
X148439047Y-107134819D02*
X148915237Y-107134819D01*
X148915237Y-107134819D02*
X148915237Y-106134819D01*
X148153332Y-106849104D02*
X147677142Y-106849104D01*
X148248570Y-107134819D02*
X147915237Y-106134819D01*
X147915237Y-106134819D02*
X147581904Y-107134819D01*
X146915237Y-106611009D02*
X146772380Y-106658628D01*
X146772380Y-106658628D02*
X146724761Y-106706247D01*
X146724761Y-106706247D02*
X146677142Y-106801485D01*
X146677142Y-106801485D02*
X146677142Y-106944342D01*
X146677142Y-106944342D02*
X146724761Y-107039580D01*
X146724761Y-107039580D02*
X146772380Y-107087200D01*
X146772380Y-107087200D02*
X146867618Y-107134819D01*
X146867618Y-107134819D02*
X147248570Y-107134819D01*
X147248570Y-107134819D02*
X147248570Y-106134819D01*
X147248570Y-106134819D02*
X146915237Y-106134819D01*
X146915237Y-106134819D02*
X146819999Y-106182438D01*
X146819999Y-106182438D02*
X146772380Y-106230057D01*
X146772380Y-106230057D02*
X146724761Y-106325295D01*
X146724761Y-106325295D02*
X146724761Y-106420533D01*
X146724761Y-106420533D02*
X146772380Y-106515771D01*
X146772380Y-106515771D02*
X146819999Y-106563390D01*
X146819999Y-106563390D02*
X146915237Y-106611009D01*
X146915237Y-106611009D02*
X147248570Y-106611009D01*
X146248570Y-107039580D02*
X146200951Y-107087200D01*
X146200951Y-107087200D02*
X146248570Y-107134819D01*
X146248570Y-107134819D02*
X146296189Y-107087200D01*
X146296189Y-107087200D02*
X146248570Y-107039580D01*
X146248570Y-107039580D02*
X146248570Y-107134819D01*
X145343809Y-107087200D02*
X145439047Y-107134819D01*
X145439047Y-107134819D02*
X145629523Y-107134819D01*
X145629523Y-107134819D02*
X145724761Y-107087200D01*
X145724761Y-107087200D02*
X145772380Y-107039580D01*
X145772380Y-107039580D02*
X145819999Y-106944342D01*
X145819999Y-106944342D02*
X145819999Y-106658628D01*
X145819999Y-106658628D02*
X145772380Y-106563390D01*
X145772380Y-106563390D02*
X145724761Y-106515771D01*
X145724761Y-106515771D02*
X145629523Y-106468152D01*
X145629523Y-106468152D02*
X145439047Y-106468152D01*
X145439047Y-106468152D02*
X145343809Y-106515771D01*
X145010475Y-106468152D02*
X144486666Y-106468152D01*
X144486666Y-106468152D02*
X145010475Y-107134819D01*
X145010475Y-107134819D02*
X144486666Y-107134819D01*
D10*
D11*
X121979818Y-106874504D02*
X121503628Y-106874504D01*
X122075056Y-107160219D02*
X121741723Y-106160219D01*
X121741723Y-106160219D02*
X121408390Y-107160219D01*
X120598866Y-107160219D02*
X121075056Y-107160219D01*
X121075056Y-107160219D02*
X121075056Y-106160219D01*
X120408389Y-106160219D02*
X119836961Y-106160219D01*
X120122675Y-107160219D02*
X120122675Y-106160219D01*
X119503627Y-107160219D02*
X119503627Y-106160219D01*
X119027437Y-107160219D02*
X119027437Y-106160219D01*
X119027437Y-106160219D02*
X118694104Y-106874504D01*
X118694104Y-106874504D02*
X118360771Y-106160219D01*
X118360771Y-106160219D02*
X118360771Y-107160219D01*
X117884580Y-106636409D02*
X117551247Y-106636409D01*
X117408390Y-107160219D02*
X117884580Y-107160219D01*
X117884580Y-107160219D02*
X117884580Y-106160219D01*
X117884580Y-106160219D02*
X117408390Y-106160219D01*
X117122675Y-106160219D02*
X116551247Y-106160219D01*
X116836961Y-107160219D02*
X116836961Y-106160219D01*
X116027437Y-106160219D02*
X115932199Y-106160219D01*
X115932199Y-106160219D02*
X115836961Y-106207838D01*
X115836961Y-106207838D02*
X115789342Y-106255457D01*
X115789342Y-106255457D02*
X115741723Y-106350695D01*
X115741723Y-106350695D02*
X115694104Y-106541171D01*
X115694104Y-106541171D02*
X115694104Y-106779266D01*
X115694104Y-106779266D02*
X115741723Y-106969742D01*
X115741723Y-106969742D02*
X115789342Y-107064980D01*
X115789342Y-107064980D02*
X115836961Y-107112600D01*
X115836961Y-107112600D02*
X115932199Y-107160219D01*
X115932199Y-107160219D02*
X116027437Y-107160219D01*
X116027437Y-107160219D02*
X116122675Y-107112600D01*
X116122675Y-107112600D02*
X116170294Y-107064980D01*
X116170294Y-107064980D02*
X116217913Y-106969742D01*
X116217913Y-106969742D02*
X116265532Y-106779266D01*
X116265532Y-106779266D02*
X116265532Y-106541171D01*
X116265532Y-106541171D02*
X116217913Y-106350695D01*
X116217913Y-106350695D02*
X116170294Y-106255457D01*
X116170294Y-106255457D02*
X116122675Y-106207838D01*
X116122675Y-106207838D02*
X116027437Y-106160219D01*
X115313151Y-106255457D02*
X115265532Y-106207838D01*
X115265532Y-106207838D02*
X115170294Y-106160219D01*
X115170294Y-106160219D02*
X114932199Y-106160219D01*
X114932199Y-106160219D02*
X114836961Y-106207838D01*
X114836961Y-106207838D02*
X114789342Y-106255457D01*
X114789342Y-106255457D02*
X114741723Y-106350695D01*
X114741723Y-106350695D02*
X114741723Y-106445933D01*
X114741723Y-106445933D02*
X114789342Y-106588790D01*
X114789342Y-106588790D02*
X115360770Y-107160219D01*
X115360770Y-107160219D02*
X114741723Y-107160219D01*
X114360770Y-106874504D02*
X113884580Y-106874504D01*
X114456008Y-107160219D02*
X114122675Y-106160219D01*
X114122675Y-106160219D02*
X113789342Y-107160219D01*
%TA.AperFunction,EtchedComponent*%
%TO.C,JP1*%
G36*
X131065000Y-113926000D02*
G01*
X130565000Y-113926000D01*
X130565000Y-113326000D01*
X131065000Y-113326000D01*
X131065000Y-113926000D01*
G37*
%TD.AperFunction*%
%TD*%
D12*
%TO.P,J3,1*%
%TO.N,GND*%
X141478000Y-99314000D03*
%TO.P,J3,2*%
X141478000Y-101854000D03*
%TO.P,J3,3*%
%TO.N,SCLK*%
X138938000Y-99314000D03*
%TO.P,J3,4*%
X138938000Y-101854000D03*
%TO.P,J3,5*%
%TO.N,VDD*%
X136398000Y-99314000D03*
%TO.P,J3,6*%
X136398000Y-101854000D03*
%TO.P,J3,7*%
%TO.N,MOSI{slash}SDA*%
X133858000Y-99314000D03*
%TO.P,J3,8*%
X133858000Y-101854000D03*
%TO.P,J3,9*%
%TO.N,GND*%
X131318000Y-99314000D03*
%TO.P,J3,10*%
X131318000Y-101854000D03*
%TD*%
%TO.P,J1,1*%
%TO.N,MISO*%
X126492000Y-99314000D03*
%TO.P,J1,2*%
X126492000Y-101854000D03*
%TO.P,J1,3*%
%TO.N,CS{slash}A*%
X123952000Y-99314000D03*
%TO.P,J1,4*%
X123952000Y-101854000D03*
%TD*%
D13*
%TO.P,H1,1,1*%
%TO.N,GND*%
X147320000Y-111760000D03*
%TD*%
%TO.P,H4,1,1*%
%TO.N,GND*%
X116840000Y-101600000D03*
%TD*%
D12*
%TO.P,J2,1*%
%TO.N,GND*%
X136144000Y-114300000D03*
%TO.P,J2,2*%
X136144000Y-111760000D03*
%TO.P,J2,3*%
%TO.N,VDD*%
X138684000Y-114300000D03*
%TO.P,J2,4*%
X138684000Y-111760000D03*
%TO.P,J2,5*%
%TO.N,GND*%
X141224000Y-114300000D03*
%TO.P,J2,6*%
X141224000Y-111760000D03*
%TD*%
D13*
%TO.P,H3,1,1*%
%TO.N,GND*%
X147320000Y-101600000D03*
%TD*%
%TO.P,H2,1,1*%
%TO.N,GND*%
X116840000Y-111760000D03*
%TD*%
D14*
%TO.P,R1,1*%
%TO.N,VDD*%
X137517500Y-104394000D03*
%TO.P,R1,2*%
%TO.N,SCLK*%
X139342500Y-104394000D03*
%TD*%
D15*
%TO.P,C2,1*%
%TO.N,VDD*%
X136362600Y-109562000D03*
%TO.P,C2,2*%
%TO.N,GND*%
X136362600Y-107662000D03*
%TD*%
D16*
%TO.P,U1,1,VDD*%
%TO.N,VDD*%
X131821400Y-109197400D03*
%TO.P,U1,2,PS*%
%TO.N,/PS*%
X130571400Y-109197400D03*
%TO.P,U1,3,GND*%
%TO.N,GND*%
X129321400Y-109197400D03*
%TO.P,U1,4,CSB*%
%TO.N,CS{slash}A*%
X128071400Y-109197400D03*
%TO.P,U1,5,CSB*%
X128071400Y-107047400D03*
%TO.P,U1,6,SDO*%
%TO.N,MISO*%
X129321400Y-107047400D03*
%TO.P,U1,7,SDI/SDA*%
%TO.N,MOSI{slash}SDA*%
X130571400Y-107047400D03*
%TO.P,U1,8,SCLK*%
%TO.N,SCLK*%
X131821400Y-107047400D03*
%TD*%
D17*
%TO.P,D1,1,K*%
%TO.N,VDD*%
X138712000Y-108458000D03*
%TO.P,D1,2,A*%
%TO.N,GND*%
X142212000Y-108458000D03*
%TD*%
D18*
%TO.P,R2,1*%
%TO.N,VDD*%
X135278500Y-104394000D03*
%TO.P,R2,2*%
%TO.N,MOSI{slash}SDA*%
X133453500Y-104394000D03*
%TD*%
D15*
%TO.P,C1,1*%
%TO.N,VDD*%
X134076600Y-109562000D03*
%TO.P,C1,2*%
%TO.N,GND*%
X134076600Y-107662000D03*
%TD*%
D19*
%TO.P,JP1,1,A*%
%TO.N,VDD*%
X131465000Y-113626000D03*
D20*
%TO.P,JP1,2,C*%
%TO.N,/PS*%
X130165000Y-113626000D03*
D21*
%TO.P,JP1,3,B*%
%TO.N,GND*%
X128865000Y-113626000D03*
%TD*%
D22*
%TO.N,VDD*%
X138684000Y-106934000D03*
%TO.N,CS{slash}A*%
X128071400Y-110490000D03*
%TO.N,GND*%
X127254000Y-114808000D03*
X133350000Y-106426000D03*
X134366000Y-106426000D03*
X136398000Y-106426000D03*
X142748000Y-106680000D03*
X127254000Y-112776000D03*
X135382000Y-106426000D03*
X143764000Y-108712000D03*
X129286000Y-110490000D03*
X127254000Y-113792000D03*
X141732000Y-106680000D03*
%TD*%
D23*
%TO.N,VDD*%
X137466600Y-108458000D02*
X136362600Y-109562000D01*
X136398000Y-103274500D02*
X135278500Y-104394000D01*
X138684000Y-108430000D02*
X138712000Y-108458000D01*
X138712000Y-108458000D02*
X138712000Y-106962000D01*
X133975000Y-112610000D02*
X132959000Y-113626000D01*
X132959000Y-113626000D02*
X131465000Y-113626000D01*
X134076600Y-109562000D02*
X136362600Y-109562000D01*
X138712000Y-111732000D02*
X138684000Y-111760000D01*
X134076600Y-109562000D02*
X132959000Y-109562000D01*
X138684000Y-111760000D02*
X138684000Y-114300000D01*
X132594400Y-109197400D02*
X131821400Y-109197400D01*
X132959000Y-109562000D02*
X132594400Y-109197400D01*
X134106600Y-109592000D02*
X134076600Y-109562000D01*
X138712000Y-108458000D02*
X138712000Y-111732000D01*
X138712000Y-108458000D02*
X137466600Y-108458000D01*
X136398000Y-103274500D02*
X137517500Y-104394000D01*
X138712000Y-106962000D02*
X138684000Y-106934000D01*
X136398000Y-99314000D02*
X136398000Y-101854000D01*
D24*
X131826000Y-108970000D02*
X131826000Y-109220000D01*
D23*
X133975000Y-109663600D02*
X133975000Y-112610000D01*
X133822600Y-109816000D02*
X134076600Y-109562000D01*
X134076600Y-109562000D02*
X133975000Y-109663600D01*
X136398000Y-101854000D02*
X136398000Y-103274500D01*
D25*
%TO.N,MOSI{slash}SDA*%
X130571400Y-105648600D02*
X131826000Y-104394000D01*
D26*
X133858000Y-103989500D02*
X133453500Y-104394000D01*
X133858000Y-101854000D02*
X133858000Y-103989500D01*
X133858000Y-99314000D02*
X133858000Y-101854000D01*
D25*
X130571400Y-107047400D02*
X130571400Y-105648600D01*
X131826000Y-104394000D02*
X133453500Y-104394000D01*
%TO.N,MISO*%
X126492000Y-101854000D02*
X126492000Y-99314000D01*
X126492000Y-103251000D02*
X126492000Y-101854000D01*
X129321400Y-106080400D02*
X126492000Y-103251000D01*
X129321400Y-107047400D02*
X129321400Y-106080400D01*
%TO.N,CS{slash}A*%
X125730000Y-105156000D02*
X123952000Y-103378000D01*
X127000000Y-105156000D02*
X125730000Y-105156000D01*
X128071400Y-110490000D02*
X128071400Y-109197400D01*
X128071400Y-106227400D02*
X127000000Y-105156000D01*
X123952000Y-103378000D02*
X123952000Y-101854000D01*
X128071400Y-109197400D02*
X128071400Y-107047400D01*
X128071400Y-107047400D02*
X128071400Y-106227400D01*
X123952000Y-101854000D02*
X123952000Y-99314000D01*
%TO.N,/PS*%
X130165000Y-111135000D02*
X130165000Y-113626000D01*
X130571400Y-109197400D02*
X130571400Y-110728600D01*
X130571400Y-110728600D02*
X130165000Y-111135000D01*
D26*
%TO.N,SCLK*%
X138938000Y-101854000D02*
X138938000Y-103989500D01*
X138938000Y-103989500D02*
X139342500Y-104394000D01*
X138938000Y-99314000D02*
X138938000Y-101854000D01*
X139342500Y-104394000D02*
X138242500Y-105494000D01*
X138242500Y-105494000D02*
X132504000Y-105494000D01*
X132504000Y-105494000D02*
X131821400Y-106176600D01*
D25*
X131821400Y-107047400D02*
X131821400Y-106176600D01*
%TD*%
%TA.AperFunction,Conductor*%
%TO.N,GND*%
G36*
X136320742Y-112202788D02*
G01*
X136373857Y-112248182D01*
X136393997Y-112315086D01*
X136394000Y-112315930D01*
X136394000Y-113743934D01*
X136374315Y-113810973D01*
X136321511Y-113856728D01*
X136252353Y-113866672D01*
X136233453Y-113862426D01*
X136210998Y-113855500D01*
X136110688Y-113855500D01*
X136110680Y-113855500D01*
X136036481Y-113866684D01*
X135967256Y-113857211D01*
X135914142Y-113811816D01*
X135894003Y-113744912D01*
X135894000Y-113744069D01*
X135894000Y-112316065D01*
X135913685Y-112249026D01*
X135966489Y-112203271D01*
X136035647Y-112193327D01*
X136054542Y-112197572D01*
X136077002Y-112204500D01*
X136077004Y-112204500D01*
X136177311Y-112204500D01*
X136177312Y-112204500D01*
X136251518Y-112193315D01*
X136320742Y-112202788D01*
G37*
%TD.AperFunction*%
%TA.AperFunction,Conductor*%
G36*
X141400742Y-112202788D02*
G01*
X141453857Y-112248182D01*
X141473997Y-112315086D01*
X141474000Y-112315930D01*
X141474000Y-113743934D01*
X141454315Y-113810973D01*
X141401511Y-113856728D01*
X141332353Y-113866672D01*
X141313453Y-113862426D01*
X141290998Y-113855500D01*
X141190688Y-113855500D01*
X141190680Y-113855500D01*
X141116481Y-113866684D01*
X141047256Y-113857211D01*
X140994142Y-113811816D01*
X140974003Y-113744912D01*
X140974000Y-113744069D01*
X140974000Y-112316065D01*
X140993685Y-112249026D01*
X141046489Y-112203271D01*
X141115647Y-112193327D01*
X141134542Y-112197572D01*
X141157002Y-112204500D01*
X141157004Y-112204500D01*
X141257311Y-112204500D01*
X141257312Y-112204500D01*
X141331518Y-112193315D01*
X141400742Y-112202788D01*
G37*
%TD.AperFunction*%
%TA.AperFunction,Conductor*%
G36*
X137926637Y-106214185D02*
G01*
X137972392Y-106266989D01*
X137982336Y-106336147D01*
X137954891Y-106396242D01*
X137955285Y-106396529D01*
X137953873Y-106398472D01*
X137953311Y-106399703D01*
X137951748Y-106401472D01*
X137951466Y-106401785D01*
X137856821Y-106565715D01*
X137856818Y-106565722D01*
X137804208Y-106727641D01*
X137798326Y-106745744D01*
X137790555Y-106819684D01*
X137778540Y-106934000D01*
X137796609Y-107105926D01*
X137784039Y-107174656D01*
X137747603Y-107218151D01*
X137737923Y-107225398D01*
X137672459Y-107249818D01*
X137604186Y-107234969D01*
X137554778Y-107185566D01*
X137545902Y-107165138D01*
X137521958Y-107092880D01*
X137521956Y-107092875D01*
X137429915Y-106943654D01*
X137305945Y-106819684D01*
X137156724Y-106727643D01*
X137156719Y-106727641D01*
X136990297Y-106672494D01*
X136990290Y-106672493D01*
X136887586Y-106662000D01*
X136612600Y-106662000D01*
X136612600Y-107788000D01*
X136592915Y-107855039D01*
X136540111Y-107900794D01*
X136488600Y-107912000D01*
X132851601Y-107912000D01*
X132851601Y-107961986D01*
X132862094Y-108064697D01*
X132917241Y-108231119D01*
X132917246Y-108231130D01*
X132951889Y-108287294D01*
X132970330Y-108354686D01*
X132949408Y-108421350D01*
X132895766Y-108466119D01*
X132826435Y-108474781D01*
X132821277Y-108473829D01*
X132783934Y-108466119D01*
X132757710Y-108460704D01*
X132691591Y-108445033D01*
X132682580Y-108442898D01*
X132675414Y-108442061D01*
X132675420Y-108442007D01*
X132667805Y-108441229D01*
X132667801Y-108441283D01*
X132660610Y-108440653D01*
X132583418Y-108442900D01*
X132574441Y-108442900D01*
X132507402Y-108423215D01*
X132475175Y-108393212D01*
X132467463Y-108382910D01*
X132453946Y-108364854D01*
X132453944Y-108364853D01*
X132453944Y-108364852D01*
X132338735Y-108278606D01*
X132338730Y-108278603D01*
X132231426Y-108238581D01*
X132175493Y-108196709D01*
X132151076Y-108131245D01*
X132165928Y-108062972D01*
X132215333Y-108013567D01*
X132231426Y-108006218D01*
X132338731Y-107966196D01*
X132453946Y-107879946D01*
X132540196Y-107764731D01*
X132590491Y-107629883D01*
X132596900Y-107570273D01*
X132596900Y-107412000D01*
X132851600Y-107412000D01*
X133826599Y-107412000D01*
X133826599Y-106662000D01*
X134326600Y-106662000D01*
X134326600Y-107412000D01*
X136112600Y-107412000D01*
X136112600Y-106662000D01*
X135837629Y-106662000D01*
X135837612Y-106662001D01*
X135734902Y-106672494D01*
X135568480Y-106727641D01*
X135568475Y-106727643D01*
X135419254Y-106819684D01*
X135307281Y-106931658D01*
X135245958Y-106965143D01*
X135176266Y-106960159D01*
X135131919Y-106931658D01*
X135019945Y-106819684D01*
X134870724Y-106727643D01*
X134870719Y-106727641D01*
X134704297Y-106672494D01*
X134704290Y-106672493D01*
X134601586Y-106662000D01*
X134326600Y-106662000D01*
X133826599Y-106662000D01*
X133551629Y-106662000D01*
X133551612Y-106662001D01*
X133448902Y-106672494D01*
X133282480Y-106727641D01*
X133282475Y-106727643D01*
X133133254Y-106819684D01*
X133009284Y-106943654D01*
X132917243Y-107092875D01*
X132917241Y-107092880D01*
X132862094Y-107259302D01*
X132862093Y-107259309D01*
X132851600Y-107362013D01*
X132851600Y-107412000D01*
X132596900Y-107412000D01*
X132596899Y-106524528D01*
X132590491Y-106464917D01*
X132590490Y-106464914D01*
X132590352Y-106463629D01*
X132602758Y-106394870D01*
X132625955Y-106362701D01*
X132757839Y-106230816D01*
X132819162Y-106197334D01*
X132845519Y-106194500D01*
X137859598Y-106194500D01*
X137926637Y-106214185D01*
G37*
%TD.AperFunction*%
%TA.AperFunction,Conductor*%
G36*
X131494742Y-99756788D02*
G01*
X131547857Y-99802182D01*
X131567997Y-99869086D01*
X131568000Y-99869930D01*
X131568000Y-101297934D01*
X131548315Y-101364973D01*
X131495511Y-101410728D01*
X131426353Y-101420672D01*
X131407453Y-101416426D01*
X131384998Y-101409500D01*
X131284688Y-101409500D01*
X131284680Y-101409500D01*
X131210481Y-101420684D01*
X131141256Y-101411211D01*
X131088142Y-101365816D01*
X131068003Y-101298912D01*
X131068000Y-101298069D01*
X131068000Y-99870065D01*
X131087685Y-99803026D01*
X131140489Y-99757271D01*
X131209647Y-99747327D01*
X131228542Y-99751572D01*
X131251002Y-99758500D01*
X131251004Y-99758500D01*
X131351311Y-99758500D01*
X131351312Y-99758500D01*
X131425518Y-99747315D01*
X131494742Y-99756788D01*
G37*
%TD.AperFunction*%
%TA.AperFunction,Conductor*%
G36*
X141654742Y-99756788D02*
G01*
X141707857Y-99802182D01*
X141727997Y-99869086D01*
X141728000Y-99869930D01*
X141728000Y-101297934D01*
X141708315Y-101364973D01*
X141655511Y-101410728D01*
X141586353Y-101420672D01*
X141567453Y-101416426D01*
X141544998Y-101409500D01*
X141444688Y-101409500D01*
X141444680Y-101409500D01*
X141370481Y-101420684D01*
X141301256Y-101411211D01*
X141248142Y-101365816D01*
X141228003Y-101298912D01*
X141228000Y-101298069D01*
X141228000Y-99870065D01*
X141247685Y-99803026D01*
X141300489Y-99757271D01*
X141369647Y-99747327D01*
X141388542Y-99751572D01*
X141411002Y-99758500D01*
X141411004Y-99758500D01*
X141511311Y-99758500D01*
X141511312Y-99758500D01*
X141585518Y-99747315D01*
X141654742Y-99756788D01*
G37*
%TD.AperFunction*%
%TA.AperFunction,Conductor*%
G36*
X151581039Y-97301685D02*
G01*
X151626794Y-97354489D01*
X151638000Y-97406000D01*
X151638000Y-115954000D01*
X151618315Y-116021039D01*
X151565511Y-116066794D01*
X151514000Y-116078000D01*
X112646000Y-116078000D01*
X112578961Y-116058315D01*
X112533206Y-116005511D01*
X112522000Y-115954000D01*
X112522000Y-105580208D01*
X113213509Y-105580208D01*
X113213509Y-107740228D01*
X122655338Y-107740228D01*
X122655339Y-107740228D01*
X122655339Y-105580208D01*
X113213509Y-105580208D01*
X112522000Y-105580208D01*
X112522000Y-102663870D01*
X122689500Y-102663870D01*
X122689501Y-102663876D01*
X122695908Y-102723483D01*
X122746202Y-102858328D01*
X122746206Y-102858335D01*
X122832452Y-102973544D01*
X122832455Y-102973547D01*
X122947664Y-103059793D01*
X122947671Y-103059797D01*
X123082516Y-103110091D01*
X123142116Y-103116499D01*
X123142119Y-103116499D01*
X123142127Y-103116500D01*
X123142134Y-103116499D01*
X123143620Y-103116580D01*
X123143951Y-103116696D01*
X123145431Y-103116856D01*
X123145393Y-103117205D01*
X123209513Y-103139816D01*
X123252383Y-103194988D01*
X123260999Y-103240403D01*
X123260999Y-103355247D01*
X123260886Y-103358990D01*
X123257194Y-103420023D01*
X123257195Y-103420028D01*
X123267331Y-103475342D01*
X123268217Y-103480174D01*
X123268780Y-103483876D01*
X123276152Y-103544582D01*
X123279644Y-103553792D01*
X123285666Y-103575395D01*
X123287441Y-103585081D01*
X123312540Y-103640851D01*
X123313973Y-103644310D01*
X123335653Y-103701478D01*
X123335656Y-103701482D01*
X123341250Y-103709586D01*
X123352274Y-103729134D01*
X123356308Y-103738099D01*
X123356314Y-103738108D01*
X123394018Y-103786234D01*
X123396238Y-103789251D01*
X123430980Y-103839583D01*
X123476753Y-103880135D01*
X123479464Y-103882686D01*
X125225305Y-105628526D01*
X125227856Y-105631236D01*
X125268417Y-105677020D01*
X125318768Y-105711774D01*
X125321755Y-105713972D01*
X125369895Y-105751688D01*
X125378869Y-105755726D01*
X125398413Y-105766749D01*
X125404056Y-105770644D01*
X125406519Y-105772345D01*
X125463682Y-105794023D01*
X125467137Y-105795453D01*
X125522915Y-105820558D01*
X125522917Y-105820558D01*
X125522919Y-105820559D01*
X125532592Y-105822331D01*
X125554227Y-105828362D01*
X125563417Y-105831848D01*
X125579913Y-105833850D01*
X125624117Y-105839217D01*
X125627812Y-105839779D01*
X125687972Y-105850805D01*
X125745044Y-105847352D01*
X125749008Y-105847113D01*
X125752753Y-105847000D01*
X126662416Y-105847000D01*
X126729455Y-105866685D01*
X126750097Y-105883319D01*
X127263211Y-106396433D01*
X127296696Y-106457756D01*
X127298820Y-106497366D01*
X127295900Y-106524527D01*
X127295900Y-107570270D01*
X127295901Y-107570276D01*
X127302308Y-107629883D01*
X127352603Y-107764729D01*
X127355666Y-107768821D01*
X127380084Y-107834285D01*
X127380400Y-107843133D01*
X127380400Y-108401666D01*
X127360715Y-108468705D01*
X127355668Y-108475975D01*
X127352605Y-108480065D01*
X127352602Y-108480071D01*
X127302308Y-108614917D01*
X127295901Y-108674516D01*
X127295900Y-108674535D01*
X127295900Y-109720270D01*
X127295901Y-109720276D01*
X127302308Y-109779883D01*
X127336552Y-109871693D01*
X127341536Y-109941384D01*
X127327758Y-109977025D01*
X127244220Y-110121718D01*
X127244218Y-110121722D01*
X127185727Y-110301740D01*
X127185726Y-110301744D01*
X127165940Y-110490000D01*
X127185726Y-110678256D01*
X127185727Y-110678259D01*
X127244218Y-110858277D01*
X127244221Y-110858284D01*
X127338867Y-111022216D01*
X127457532Y-111154006D01*
X127465529Y-111162888D01*
X127618665Y-111274148D01*
X127618670Y-111274151D01*
X127791592Y-111351142D01*
X127791597Y-111351144D01*
X127976754Y-111390500D01*
X127976755Y-111390500D01*
X128166044Y-111390500D01*
X128166046Y-111390500D01*
X128351203Y-111351144D01*
X128524130Y-111274151D01*
X128677271Y-111162888D01*
X128803933Y-111022216D01*
X128898579Y-110858284D01*
X128957074Y-110678256D01*
X128976860Y-110490000D01*
X128957874Y-110309359D01*
X128970444Y-110240632D01*
X129018176Y-110189608D01*
X129067720Y-110176079D01*
X129071400Y-110172400D01*
X129071400Y-109071400D01*
X129091085Y-109004361D01*
X129143889Y-108958606D01*
X129195400Y-108947400D01*
X129447400Y-108947400D01*
X129514439Y-108967085D01*
X129560194Y-109019889D01*
X129571400Y-109071400D01*
X129571400Y-110172400D01*
X129644228Y-110172400D01*
X129644244Y-110172399D01*
X129703772Y-110165998D01*
X129703775Y-110165997D01*
X129713061Y-110162534D01*
X129782753Y-110157547D01*
X129844077Y-110191029D01*
X129877565Y-110252351D01*
X129880400Y-110278714D01*
X129880400Y-110391015D01*
X129860715Y-110458054D01*
X129844081Y-110478697D01*
X129692480Y-110630296D01*
X129689754Y-110632863D01*
X129643985Y-110673411D01*
X129643977Y-110673420D01*
X129609235Y-110723753D01*
X129607015Y-110726769D01*
X129569313Y-110774894D01*
X129569311Y-110774896D01*
X129565271Y-110783873D01*
X129554253Y-110803408D01*
X129548655Y-110811519D01*
X129526968Y-110868700D01*
X129525536Y-110872158D01*
X129500442Y-110927916D01*
X129498666Y-110937606D01*
X129492645Y-110959203D01*
X129489152Y-110968414D01*
X129489152Y-110968415D01*
X129481780Y-111029124D01*
X129481217Y-111032826D01*
X129470195Y-111092969D01*
X129470195Y-111092972D01*
X129473887Y-111154006D01*
X129474000Y-111157751D01*
X129474000Y-112331708D01*
X129454315Y-112398747D01*
X129424311Y-112430974D01*
X129307455Y-112518452D01*
X129307452Y-112518455D01*
X129221206Y-112633664D01*
X129221202Y-112633671D01*
X129170908Y-112768517D01*
X129164501Y-112828116D01*
X129164500Y-112828135D01*
X129164500Y-114423870D01*
X129164501Y-114423876D01*
X129170908Y-114483483D01*
X129221202Y-114618328D01*
X129221206Y-114618335D01*
X129307452Y-114733544D01*
X129307455Y-114733547D01*
X129422664Y-114819793D01*
X129422671Y-114819797D01*
X129557517Y-114870091D01*
X129557516Y-114870091D01*
X129564444Y-114870835D01*
X129617127Y-114876500D01*
X130712872Y-114876499D01*
X130772483Y-114870091D01*
X130772494Y-114870086D01*
X130773094Y-114869946D01*
X130774342Y-114869890D01*
X130780195Y-114869261D01*
X130780234Y-114869626D01*
X130819262Y-114867882D01*
X130915000Y-114881647D01*
X130915003Y-114881647D01*
X131536886Y-114881647D01*
X131536889Y-114881647D01*
X131679345Y-114861165D01*
X131817300Y-114820658D01*
X131948216Y-114760871D01*
X132069164Y-114683143D01*
X132069169Y-114683140D01*
X132069166Y-114683143D01*
X132177939Y-114588891D01*
X132177941Y-114588889D01*
X132272088Y-114480237D01*
X132272090Y-114480233D01*
X132272097Y-114480226D01*
X132299581Y-114437459D01*
X132352385Y-114391706D01*
X132403896Y-114380500D01*
X132895000Y-114380500D01*
X132912969Y-114381809D01*
X132918350Y-114382596D01*
X132936906Y-114385315D01*
X132989248Y-114380735D01*
X132994649Y-114380500D01*
X133002934Y-114380500D01*
X133002941Y-114380500D01*
X133035674Y-114376674D01*
X133112612Y-114369943D01*
X133112615Y-114369941D01*
X133119693Y-114368481D01*
X133119704Y-114368535D01*
X133127163Y-114366881D01*
X133127151Y-114366827D01*
X133134178Y-114365160D01*
X133134184Y-114365160D01*
X133188600Y-114345354D01*
X133206740Y-114338752D01*
X133280034Y-114314465D01*
X133286581Y-114311412D01*
X133286604Y-114311462D01*
X133293498Y-114308125D01*
X133293473Y-114308075D01*
X133299916Y-114304838D01*
X133299924Y-114304836D01*
X133342937Y-114276545D01*
X133364443Y-114262401D01*
X133394051Y-114244138D01*
X133430154Y-114221870D01*
X133430159Y-114221864D01*
X133435823Y-114217387D01*
X133435857Y-114217430D01*
X133441782Y-114212604D01*
X133441747Y-114212562D01*
X133447283Y-114207916D01*
X133447282Y-114207916D01*
X133447285Y-114207915D01*
X133500271Y-114151752D01*
X134463264Y-113188758D01*
X134476883Y-113176988D01*
X134496294Y-113162539D01*
X134530075Y-113122279D01*
X134533709Y-113118313D01*
X134539583Y-113112441D01*
X134560027Y-113086584D01*
X134609667Y-113027427D01*
X134609669Y-113027422D01*
X134613637Y-113021390D01*
X134613683Y-113021420D01*
X134617795Y-113014965D01*
X134617748Y-113014936D01*
X134621532Y-113008799D01*
X134621539Y-113008791D01*
X134654172Y-112938808D01*
X134688824Y-112869811D01*
X134688826Y-112869799D01*
X134691293Y-112863024D01*
X134691346Y-112863043D01*
X134693858Y-112855815D01*
X134693807Y-112855798D01*
X134696077Y-112848945D01*
X134696077Y-112848943D01*
X134696079Y-112848940D01*
X134707019Y-112795954D01*
X134739852Y-112734283D01*
X134800816Y-112700150D01*
X134870557Y-112704396D01*
X134926931Y-112745672D01*
X134937289Y-112761602D01*
X134938649Y-112764093D01*
X135024809Y-112879187D01*
X135093666Y-112930734D01*
X135135536Y-112986668D01*
X135140520Y-113056359D01*
X135107034Y-113117682D01*
X135093666Y-113129266D01*
X135024809Y-113180812D01*
X134938649Y-113295906D01*
X134938645Y-113295913D01*
X134888403Y-113430620D01*
X134888401Y-113430627D01*
X134882000Y-113490155D01*
X134882000Y-114050000D01*
X135589639Y-114050000D01*
X135656678Y-114069685D01*
X135702433Y-114122489D01*
X135712377Y-114191647D01*
X135710532Y-114201578D01*
X135705901Y-114221872D01*
X135695736Y-114266407D01*
X135695735Y-114266408D01*
X135706443Y-114409295D01*
X135704703Y-114409425D01*
X135701106Y-114468145D01*
X135659808Y-114524503D01*
X135594597Y-114549587D01*
X135584488Y-114550000D01*
X134882000Y-114550000D01*
X134882000Y-115109844D01*
X134888401Y-115169372D01*
X134888403Y-115169379D01*
X134938645Y-115304086D01*
X134938649Y-115304093D01*
X135024809Y-115419187D01*
X135024812Y-115419190D01*
X135139906Y-115505350D01*
X135139913Y-115505354D01*
X135274620Y-115555596D01*
X135274627Y-115555598D01*
X135334155Y-115561999D01*
X135334172Y-115562000D01*
X135894000Y-115562000D01*
X135894000Y-114856065D01*
X135913685Y-114789026D01*
X135966489Y-114743271D01*
X136035647Y-114733327D01*
X136054542Y-114737572D01*
X136077002Y-114744500D01*
X136077004Y-114744500D01*
X136177311Y-114744500D01*
X136177312Y-114744500D01*
X136251518Y-114733315D01*
X136320742Y-114742788D01*
X136373857Y-114788182D01*
X136393997Y-114855086D01*
X136394000Y-114855930D01*
X136394000Y-115562000D01*
X136953828Y-115562000D01*
X136953844Y-115561999D01*
X137013372Y-115555598D01*
X137013379Y-115555596D01*
X137148086Y-115505354D01*
X137148093Y-115505350D01*
X137263187Y-115419190D01*
X137263188Y-115419189D01*
X137314420Y-115350752D01*
X137370353Y-115308880D01*
X137440045Y-115303896D01*
X137501368Y-115337381D01*
X137512953Y-115350750D01*
X137540269Y-115387239D01*
X137564187Y-115419190D01*
X137564455Y-115419547D01*
X137679664Y-115505793D01*
X137679671Y-115505797D01*
X137814517Y-115556091D01*
X137814516Y-115556091D01*
X137821444Y-115556835D01*
X137874127Y-115562500D01*
X139493872Y-115562499D01*
X139553483Y-115556091D01*
X139688331Y-115505796D01*
X139803546Y-115419546D01*
X139855047Y-115350749D01*
X139910979Y-115308880D01*
X139980671Y-115303896D01*
X140041994Y-115337381D01*
X140053579Y-115350751D01*
X140104813Y-115419190D01*
X140219906Y-115505350D01*
X140219913Y-115505354D01*
X140354620Y-115555596D01*
X140354627Y-115555598D01*
X140414155Y-115561999D01*
X140414172Y-115562000D01*
X140974000Y-115562000D01*
X140974000Y-114856065D01*
X140993685Y-114789026D01*
X141046489Y-114743271D01*
X141115647Y-114733327D01*
X141134542Y-114737572D01*
X141157002Y-114744500D01*
X141157004Y-114744500D01*
X141257311Y-114744500D01*
X141257312Y-114744500D01*
X141331518Y-114733315D01*
X141400742Y-114742788D01*
X141453857Y-114788182D01*
X141473997Y-114855086D01*
X141474000Y-114855930D01*
X141474000Y-115562000D01*
X142033828Y-115562000D01*
X142033844Y-115561999D01*
X142093372Y-115555598D01*
X142093379Y-115555596D01*
X142228086Y-115505354D01*
X142228093Y-115505350D01*
X142343187Y-115419190D01*
X142343190Y-115419187D01*
X142429350Y-115304093D01*
X142429354Y-115304086D01*
X142479596Y-115169379D01*
X142479598Y-115169372D01*
X142485999Y-115109844D01*
X142486000Y-115109827D01*
X142486000Y-114550000D01*
X141778361Y-114550000D01*
X141711322Y-114530315D01*
X141665567Y-114477511D01*
X141655623Y-114408353D01*
X141657467Y-114398421D01*
X141672264Y-114333593D01*
X141670109Y-114304834D01*
X141661557Y-114190705D01*
X141663296Y-114190574D01*
X141666894Y-114131855D01*
X141708192Y-114075497D01*
X141773403Y-114050413D01*
X141783512Y-114050000D01*
X142486000Y-114050000D01*
X142486000Y-113490172D01*
X142485999Y-113490155D01*
X142479598Y-113430627D01*
X142479596Y-113430620D01*
X142429354Y-113295913D01*
X142429350Y-113295906D01*
X142343191Y-113180813D01*
X142274334Y-113129267D01*
X142232463Y-113073333D01*
X142227479Y-113003641D01*
X142260964Y-112942318D01*
X142274334Y-112930733D01*
X142343191Y-112879186D01*
X142429350Y-112764093D01*
X142429354Y-112764086D01*
X142479596Y-112629379D01*
X142479598Y-112629372D01*
X142485999Y-112569844D01*
X142486000Y-112569827D01*
X142486000Y-112010000D01*
X141778361Y-112010000D01*
X141711322Y-111990315D01*
X141665567Y-111937511D01*
X141655623Y-111868353D01*
X141657467Y-111858421D01*
X141672264Y-111793593D01*
X141672264Y-111793590D01*
X141661557Y-111650705D01*
X141663296Y-111650574D01*
X141666894Y-111591855D01*
X141708192Y-111535497D01*
X141773403Y-111510413D01*
X141783512Y-111510000D01*
X142486000Y-111510000D01*
X142486000Y-110950172D01*
X142485999Y-110950155D01*
X142479598Y-110890627D01*
X142479596Y-110890620D01*
X142429354Y-110755913D01*
X142429350Y-110755906D01*
X142343190Y-110640812D01*
X142343187Y-110640809D01*
X142228093Y-110554649D01*
X142228086Y-110554645D01*
X142093379Y-110504403D01*
X142093372Y-110504401D01*
X142033844Y-110498000D01*
X141474000Y-110498000D01*
X141474000Y-111203934D01*
X141454315Y-111270973D01*
X141401511Y-111316728D01*
X141332353Y-111326672D01*
X141313453Y-111322426D01*
X141290998Y-111315500D01*
X141190688Y-111315500D01*
X141190680Y-111315500D01*
X141116481Y-111326684D01*
X141047256Y-111317211D01*
X140994142Y-111271816D01*
X140974003Y-111204912D01*
X140974000Y-111204069D01*
X140974000Y-110498000D01*
X140414155Y-110498000D01*
X140354627Y-110504401D01*
X140354620Y-110504403D01*
X140219913Y-110554645D01*
X140219906Y-110554649D01*
X140104812Y-110640809D01*
X140053578Y-110709249D01*
X139997644Y-110751119D01*
X139927952Y-110756103D01*
X139866630Y-110722617D01*
X139855046Y-110709248D01*
X139803547Y-110640455D01*
X139803544Y-110640452D01*
X139688335Y-110554206D01*
X139688328Y-110554202D01*
X139547167Y-110501553D01*
X139491233Y-110459682D01*
X139466816Y-110394218D01*
X139466500Y-110385371D01*
X139466500Y-109889298D01*
X139486185Y-109822259D01*
X139538989Y-109776504D01*
X139547144Y-109773125D01*
X139604331Y-109751796D01*
X139719546Y-109665546D01*
X139805796Y-109550331D01*
X139856091Y-109415483D01*
X139862500Y-109355873D01*
X139862499Y-108708000D01*
X141062000Y-108708000D01*
X141062000Y-109355844D01*
X141068401Y-109415372D01*
X141068403Y-109415379D01*
X141118645Y-109550086D01*
X141118649Y-109550093D01*
X141204809Y-109665187D01*
X141204812Y-109665190D01*
X141319906Y-109751350D01*
X141319913Y-109751354D01*
X141454620Y-109801596D01*
X141454627Y-109801598D01*
X141514155Y-109807999D01*
X141514172Y-109808000D01*
X141962000Y-109808000D01*
X141962000Y-108708000D01*
X142462000Y-108708000D01*
X142462000Y-109808000D01*
X142909828Y-109808000D01*
X142909844Y-109807999D01*
X142969372Y-109801598D01*
X142969379Y-109801596D01*
X143104086Y-109751354D01*
X143104093Y-109751350D01*
X143219187Y-109665190D01*
X143219190Y-109665187D01*
X143305350Y-109550093D01*
X143305354Y-109550086D01*
X143355596Y-109415379D01*
X143355598Y-109415372D01*
X143361999Y-109355844D01*
X143362000Y-109355827D01*
X143362000Y-108708000D01*
X142462000Y-108708000D01*
X141962000Y-108708000D01*
X141062000Y-108708000D01*
X139862499Y-108708000D01*
X139862499Y-108208000D01*
X141062000Y-108208000D01*
X141962000Y-108208000D01*
X141962000Y-107108000D01*
X142462000Y-107108000D01*
X142462000Y-108208000D01*
X143362000Y-108208000D01*
X143362000Y-107560172D01*
X143361999Y-107560155D01*
X143355598Y-107500627D01*
X143355596Y-107500620D01*
X143305354Y-107365913D01*
X143305350Y-107365906D01*
X143219190Y-107250812D01*
X143219187Y-107250809D01*
X143104093Y-107164649D01*
X143104086Y-107164645D01*
X142969379Y-107114403D01*
X142969372Y-107114401D01*
X142909844Y-107108000D01*
X142462000Y-107108000D01*
X141962000Y-107108000D01*
X141514155Y-107108000D01*
X141454627Y-107114401D01*
X141454620Y-107114403D01*
X141319913Y-107164645D01*
X141319906Y-107164649D01*
X141204812Y-107250809D01*
X141204809Y-107250812D01*
X141118649Y-107365906D01*
X141118645Y-107365913D01*
X141068403Y-107500620D01*
X141068401Y-107500627D01*
X141062000Y-107560155D01*
X141062000Y-108208000D01*
X139862499Y-108208000D01*
X139862499Y-107560128D01*
X139856091Y-107500517D01*
X139823076Y-107412000D01*
X139805797Y-107365671D01*
X139805793Y-107365664D01*
X139754123Y-107296643D01*
X139719546Y-107250454D01*
X139624483Y-107179289D01*
X139582613Y-107123357D01*
X139575474Y-107067066D01*
X139589460Y-106934000D01*
X139569674Y-106745744D01*
X139511179Y-106565716D01*
X139416533Y-106401784D01*
X139289871Y-106261112D01*
X139248175Y-106230818D01*
X139136734Y-106149851D01*
X139136729Y-106149848D01*
X138963807Y-106072857D01*
X138963804Y-106072856D01*
X138931941Y-106066083D01*
X138870460Y-106032889D01*
X138836684Y-105971725D01*
X138841338Y-105902011D01*
X138870041Y-105857114D01*
X139096338Y-105630818D01*
X139157661Y-105597333D01*
X139184019Y-105594499D01*
X139655002Y-105594499D01*
X139655008Y-105594499D01*
X139757797Y-105583999D01*
X139845889Y-105554808D01*
X143907566Y-105554808D01*
X143907566Y-107714828D01*
X150635693Y-107714828D01*
X150635693Y-105554808D01*
X143907566Y-105554808D01*
X139845889Y-105554808D01*
X139924334Y-105528814D01*
X140073656Y-105436712D01*
X140197712Y-105312656D01*
X140289814Y-105163334D01*
X140344999Y-104996797D01*
X140355500Y-104894009D01*
X140355499Y-103893992D01*
X140354083Y-103880135D01*
X140344999Y-103791203D01*
X140344998Y-103791200D01*
X140340509Y-103777652D01*
X140289814Y-103624666D01*
X140197712Y-103475344D01*
X140073656Y-103351288D01*
X140073655Y-103351287D01*
X139943006Y-103270703D01*
X139896281Y-103218755D01*
X139885058Y-103149793D01*
X139912902Y-103085710D01*
X139936280Y-103066513D01*
X139935231Y-103065112D01*
X140057543Y-102973548D01*
X140057542Y-102973548D01*
X140057546Y-102973546D01*
X140109047Y-102904749D01*
X140164979Y-102862880D01*
X140234671Y-102857896D01*
X140295994Y-102891381D01*
X140307579Y-102904751D01*
X140358813Y-102973190D01*
X140473906Y-103059350D01*
X140473913Y-103059354D01*
X140608620Y-103109596D01*
X140608627Y-103109598D01*
X140668155Y-103115999D01*
X140668172Y-103116000D01*
X141228000Y-103116000D01*
X141228000Y-102410065D01*
X141247685Y-102343026D01*
X141300489Y-102297271D01*
X141369647Y-102287327D01*
X141388542Y-102291572D01*
X141411002Y-102298500D01*
X141411004Y-102298500D01*
X141511311Y-102298500D01*
X141511312Y-102298500D01*
X141585518Y-102287315D01*
X141654742Y-102296788D01*
X141707857Y-102342182D01*
X141727997Y-102409086D01*
X141728000Y-102409930D01*
X141728000Y-103116000D01*
X142287828Y-103116000D01*
X142287844Y-103115999D01*
X142347372Y-103109598D01*
X142347379Y-103109596D01*
X142482086Y-103059354D01*
X142482093Y-103059350D01*
X142597187Y-102973190D01*
X142597190Y-102973187D01*
X142683350Y-102858093D01*
X142683354Y-102858086D01*
X142733596Y-102723379D01*
X142733598Y-102723372D01*
X142739999Y-102663844D01*
X142740000Y-102663827D01*
X142740000Y-102104000D01*
X142032361Y-102104000D01*
X141965322Y-102084315D01*
X141919567Y-102031511D01*
X141909623Y-101962353D01*
X141911467Y-101952421D01*
X141926264Y-101887593D01*
X141926264Y-101887590D01*
X141915557Y-101744705D01*
X141917296Y-101744574D01*
X141920894Y-101685855D01*
X141962192Y-101629497D01*
X142027403Y-101604413D01*
X142037512Y-101604000D01*
X142740000Y-101604000D01*
X142740000Y-101044172D01*
X142739999Y-101044155D01*
X142733598Y-100984627D01*
X142733596Y-100984620D01*
X142683354Y-100849913D01*
X142683350Y-100849906D01*
X142597190Y-100734812D01*
X142528333Y-100683265D01*
X142486463Y-100627331D01*
X142481479Y-100557639D01*
X142514965Y-100496317D01*
X142528335Y-100484732D01*
X142597189Y-100433188D01*
X142597190Y-100433187D01*
X142683350Y-100318093D01*
X142683354Y-100318086D01*
X142733596Y-100183379D01*
X142733598Y-100183372D01*
X142739999Y-100123844D01*
X142740000Y-100123827D01*
X142740000Y-99564000D01*
X142032361Y-99564000D01*
X141965322Y-99544315D01*
X141919567Y-99491511D01*
X141909623Y-99422353D01*
X141911467Y-99412421D01*
X141926264Y-99347593D01*
X141926264Y-99347590D01*
X141915557Y-99204705D01*
X141917296Y-99204574D01*
X141920894Y-99145855D01*
X141962192Y-99089497D01*
X142027403Y-99064413D01*
X142037512Y-99064000D01*
X142740000Y-99064000D01*
X142740000Y-98504172D01*
X142739999Y-98504155D01*
X142733598Y-98444627D01*
X142733596Y-98444620D01*
X142683354Y-98309913D01*
X142683350Y-98309906D01*
X142597190Y-98194812D01*
X142597187Y-98194809D01*
X142482093Y-98108649D01*
X142482086Y-98108645D01*
X142347379Y-98058403D01*
X142347372Y-98058401D01*
X142287844Y-98052000D01*
X141728000Y-98052000D01*
X141728000Y-98757934D01*
X141708315Y-98824973D01*
X141655511Y-98870728D01*
X141586353Y-98880672D01*
X141567453Y-98876426D01*
X141544998Y-98869500D01*
X141444688Y-98869500D01*
X141444680Y-98869500D01*
X141370481Y-98880684D01*
X141301256Y-98871211D01*
X141248142Y-98825816D01*
X141228003Y-98758912D01*
X141228000Y-98758069D01*
X141228000Y-98052000D01*
X140668155Y-98052000D01*
X140608627Y-98058401D01*
X140608620Y-98058403D01*
X140473913Y-98108645D01*
X140473906Y-98108649D01*
X140358812Y-98194809D01*
X140307578Y-98263249D01*
X140251644Y-98305119D01*
X140181952Y-98310103D01*
X140120630Y-98276617D01*
X140109046Y-98263248D01*
X140057547Y-98194455D01*
X140057544Y-98194452D01*
X139942335Y-98108206D01*
X139942328Y-98108202D01*
X139807482Y-98057908D01*
X139807483Y-98057908D01*
X139747883Y-98051501D01*
X139747881Y-98051500D01*
X139747873Y-98051500D01*
X139747864Y-98051500D01*
X138128129Y-98051500D01*
X138128123Y-98051501D01*
X138068516Y-98057908D01*
X137933671Y-98108202D01*
X137933664Y-98108206D01*
X137818455Y-98194452D01*
X137767266Y-98262832D01*
X137711332Y-98304702D01*
X137641640Y-98309686D01*
X137580318Y-98276200D01*
X137568734Y-98262832D01*
X137554222Y-98243447D01*
X137517546Y-98194454D01*
X137517544Y-98194453D01*
X137517544Y-98194452D01*
X137402335Y-98108206D01*
X137402328Y-98108202D01*
X137267482Y-98057908D01*
X137267483Y-98057908D01*
X137207883Y-98051501D01*
X137207881Y-98051500D01*
X137207873Y-98051500D01*
X137207864Y-98051500D01*
X135588129Y-98051500D01*
X135588123Y-98051501D01*
X135528516Y-98057908D01*
X135393671Y-98108202D01*
X135393664Y-98108206D01*
X135278455Y-98194452D01*
X135227266Y-98262832D01*
X135171332Y-98304702D01*
X135101640Y-98309686D01*
X135040318Y-98276200D01*
X135028734Y-98262832D01*
X135014222Y-98243447D01*
X134977546Y-98194454D01*
X134977544Y-98194453D01*
X134977544Y-98194452D01*
X134862335Y-98108206D01*
X134862328Y-98108202D01*
X134727482Y-98057908D01*
X134727483Y-98057908D01*
X134667883Y-98051501D01*
X134667881Y-98051500D01*
X134667873Y-98051500D01*
X134667864Y-98051500D01*
X133048129Y-98051500D01*
X133048123Y-98051501D01*
X132988516Y-98057908D01*
X132853671Y-98108202D01*
X132853664Y-98108206D01*
X132738455Y-98194452D01*
X132686953Y-98263249D01*
X132631018Y-98305120D01*
X132561327Y-98310103D01*
X132500004Y-98276617D01*
X132488420Y-98263248D01*
X132437186Y-98194808D01*
X132322093Y-98108649D01*
X132322086Y-98108645D01*
X132187379Y-98058403D01*
X132187372Y-98058401D01*
X132127844Y-98052000D01*
X131568000Y-98052000D01*
X131568000Y-98757934D01*
X131548315Y-98824973D01*
X131495511Y-98870728D01*
X131426353Y-98880672D01*
X131407453Y-98876426D01*
X131384998Y-98869500D01*
X131284688Y-98869500D01*
X131284680Y-98869500D01*
X131210481Y-98880684D01*
X131141256Y-98871211D01*
X131088142Y-98825816D01*
X131068003Y-98758912D01*
X131068000Y-98758069D01*
X131068000Y-98052000D01*
X130508155Y-98052000D01*
X130448627Y-98058401D01*
X130448620Y-98058403D01*
X130313913Y-98108645D01*
X130313906Y-98108649D01*
X130198812Y-98194809D01*
X130198809Y-98194812D01*
X130112649Y-98309906D01*
X130112645Y-98309913D01*
X130062403Y-98444620D01*
X130062401Y-98444627D01*
X130056000Y-98504155D01*
X130056000Y-99064000D01*
X130763639Y-99064000D01*
X130830678Y-99083685D01*
X130876433Y-99136489D01*
X130886377Y-99205647D01*
X130884532Y-99215578D01*
X130869736Y-99280407D01*
X130869735Y-99280408D01*
X130880443Y-99423295D01*
X130878703Y-99423425D01*
X130875106Y-99482145D01*
X130833808Y-99538503D01*
X130768597Y-99563587D01*
X130758488Y-99564000D01*
X130056000Y-99564000D01*
X130056000Y-100123844D01*
X130062401Y-100183372D01*
X130062403Y-100183379D01*
X130112645Y-100318086D01*
X130112649Y-100318093D01*
X130198809Y-100433187D01*
X130267666Y-100484734D01*
X130309536Y-100540668D01*
X130314520Y-100610359D01*
X130281034Y-100671682D01*
X130267666Y-100683266D01*
X130198809Y-100734812D01*
X130112649Y-100849906D01*
X130112645Y-100849913D01*
X130062403Y-100984620D01*
X130062401Y-100984627D01*
X130056000Y-101044155D01*
X130056000Y-101604000D01*
X130763639Y-101604000D01*
X130830678Y-101623685D01*
X130876433Y-101676489D01*
X130886377Y-101745647D01*
X130884532Y-101755578D01*
X130869736Y-101820407D01*
X130869735Y-101820408D01*
X130880443Y-101963295D01*
X130878703Y-101963425D01*
X130875106Y-102022145D01*
X130833808Y-102078503D01*
X130768597Y-102103587D01*
X130758488Y-102104000D01*
X130056000Y-102104000D01*
X130056000Y-102663844D01*
X130062401Y-102723372D01*
X130062403Y-102723379D01*
X130112645Y-102858086D01*
X130112649Y-102858093D01*
X130198809Y-102973187D01*
X130198812Y-102973190D01*
X130313906Y-103059350D01*
X130313913Y-103059354D01*
X130448620Y-103109596D01*
X130448627Y-103109598D01*
X130508155Y-103115999D01*
X130508172Y-103116000D01*
X131068000Y-103116000D01*
X131068000Y-102410065D01*
X131087685Y-102343026D01*
X131140489Y-102297271D01*
X131209647Y-102287327D01*
X131228542Y-102291572D01*
X131251002Y-102298500D01*
X131251004Y-102298500D01*
X131351311Y-102298500D01*
X131351312Y-102298500D01*
X131425518Y-102287315D01*
X131494742Y-102296788D01*
X131547857Y-102342182D01*
X131567997Y-102409086D01*
X131568000Y-102409930D01*
X131568000Y-103116000D01*
X132127828Y-103116000D01*
X132127844Y-103115999D01*
X132187372Y-103109598D01*
X132187379Y-103109596D01*
X132322086Y-103059354D01*
X132322093Y-103059350D01*
X132437187Y-102973190D01*
X132437188Y-102973189D01*
X132488420Y-102904752D01*
X132544353Y-102862880D01*
X132614045Y-102857896D01*
X132675368Y-102891381D01*
X132686953Y-102904750D01*
X132687266Y-102905168D01*
X132738187Y-102973190D01*
X132738455Y-102973547D01*
X132860769Y-103065112D01*
X132858773Y-103067777D01*
X132896737Y-103105751D01*
X132911580Y-103174026D01*
X132887154Y-103239488D01*
X132852994Y-103270703D01*
X132722342Y-103351289D01*
X132598289Y-103475342D01*
X132506187Y-103624663D01*
X132503136Y-103631209D01*
X132500203Y-103629841D01*
X132468601Y-103675466D01*
X132404079Y-103702275D01*
X132390688Y-103703000D01*
X131848752Y-103703000D01*
X131845007Y-103702887D01*
X131783973Y-103699195D01*
X131783966Y-103699195D01*
X131723826Y-103710216D01*
X131720126Y-103710779D01*
X131659414Y-103718152D01*
X131650203Y-103721645D01*
X131628606Y-103727666D01*
X131618916Y-103729442D01*
X131563156Y-103754537D01*
X131559697Y-103755969D01*
X131502527Y-103777652D01*
X131502523Y-103777654D01*
X131502518Y-103777656D01*
X131502513Y-103777659D01*
X131502510Y-103777661D01*
X131494410Y-103783251D01*
X131474881Y-103794266D01*
X131465900Y-103798308D01*
X131465895Y-103798311D01*
X131465894Y-103798312D01*
X131445371Y-103814389D01*
X131417764Y-103836017D01*
X131414750Y-103838235D01*
X131364416Y-103872980D01*
X131364414Y-103872981D01*
X131323863Y-103918754D01*
X131321296Y-103921480D01*
X130098880Y-105143896D01*
X130096154Y-105146463D01*
X130050385Y-105187011D01*
X130050377Y-105187020D01*
X130015635Y-105237353D01*
X130013415Y-105240369D01*
X129975713Y-105288494D01*
X129975711Y-105288496D01*
X129971671Y-105297473D01*
X129960653Y-105317008D01*
X129955055Y-105325119D01*
X129933368Y-105382300D01*
X129931936Y-105385758D01*
X129903876Y-105448106D01*
X129858413Y-105501161D01*
X129791483Y-105521215D01*
X129724336Y-105501900D01*
X129703119Y-105484898D01*
X127472251Y-103254029D01*
X127438766Y-103192706D01*
X127443750Y-103123014D01*
X127485622Y-103067081D01*
X127492530Y-103062641D01*
X127496329Y-103059796D01*
X127496331Y-103059796D01*
X127611546Y-102973546D01*
X127697796Y-102858331D01*
X127748091Y-102723483D01*
X127754500Y-102663873D01*
X127754499Y-101044128D01*
X127748091Y-100984517D01*
X127697884Y-100849906D01*
X127697797Y-100849671D01*
X127697793Y-100849664D01*
X127611813Y-100734811D01*
X127611546Y-100734454D01*
X127543166Y-100683265D01*
X127501297Y-100627333D01*
X127496313Y-100557641D01*
X127529798Y-100496318D01*
X127543161Y-100484738D01*
X127611546Y-100433546D01*
X127697796Y-100318331D01*
X127748091Y-100183483D01*
X127754500Y-100123873D01*
X127754499Y-98504128D01*
X127748091Y-98444517D01*
X127697884Y-98309906D01*
X127697797Y-98309671D01*
X127697793Y-98309664D01*
X127611547Y-98194455D01*
X127611544Y-98194452D01*
X127496335Y-98108206D01*
X127496328Y-98108202D01*
X127361482Y-98057908D01*
X127361483Y-98057908D01*
X127301883Y-98051501D01*
X127301881Y-98051500D01*
X127301873Y-98051500D01*
X127301864Y-98051500D01*
X125682129Y-98051500D01*
X125682123Y-98051501D01*
X125622516Y-98057908D01*
X125487671Y-98108202D01*
X125487664Y-98108206D01*
X125372455Y-98194452D01*
X125321266Y-98262832D01*
X125265332Y-98304702D01*
X125195640Y-98309686D01*
X125134318Y-98276200D01*
X125122734Y-98262832D01*
X125108222Y-98243447D01*
X125071546Y-98194454D01*
X125071544Y-98194453D01*
X125071544Y-98194452D01*
X124956335Y-98108206D01*
X124956328Y-98108202D01*
X124821482Y-98057908D01*
X124821483Y-98057908D01*
X124761883Y-98051501D01*
X124761881Y-98051500D01*
X124761873Y-98051500D01*
X124761864Y-98051500D01*
X123142129Y-98051500D01*
X123142123Y-98051501D01*
X123082516Y-98057908D01*
X122947671Y-98108202D01*
X122947664Y-98108206D01*
X122832455Y-98194452D01*
X122832452Y-98194455D01*
X122746206Y-98309664D01*
X122746202Y-98309671D01*
X122695908Y-98444517D01*
X122689501Y-98504116D01*
X122689501Y-98504123D01*
X122689500Y-98504135D01*
X122689500Y-100123870D01*
X122689501Y-100123876D01*
X122695908Y-100183483D01*
X122746202Y-100318328D01*
X122746206Y-100318335D01*
X122832452Y-100433544D01*
X122832453Y-100433544D01*
X122832454Y-100433546D01*
X122881447Y-100470222D01*
X122900832Y-100484734D01*
X122942702Y-100540668D01*
X122947686Y-100610360D01*
X122914200Y-100671682D01*
X122900832Y-100683266D01*
X122832452Y-100734455D01*
X122746206Y-100849664D01*
X122746202Y-100849671D01*
X122695908Y-100984517D01*
X122689501Y-101044116D01*
X122689501Y-101044123D01*
X122689500Y-101044135D01*
X122689500Y-102663870D01*
X112522000Y-102663870D01*
X112522000Y-97406000D01*
X112541685Y-97338961D01*
X112594489Y-97293206D01*
X112646000Y-97282000D01*
X151514000Y-97282000D01*
X151581039Y-97301685D01*
G37*
%TD.AperFunction*%
%TD*%
M02*
