%TF.GenerationSoftware,KiCad,Pcbnew,7.0.5.1-1-g8f565ef7f0-dirty-deb11*%
%TF.CreationDate,2023-07-08T00:45:23+00:00*%
%TF.ProjectId,ALTIMET02,414c5449-4d45-4543-9032-2e6b69636164,rev?*%
%TF.SameCoordinates,Original*%
%TF.FileFunction,Soldermask,Bot*%
%TF.FilePolarity,Negative*%
%FSLAX46Y46*%
G04 Gerber Fmt 4.6, Leading zero omitted, Abs format (unit mm)*
G04 Created by KiCad (PCBNEW 7.0.5.1-1-g8f565ef7f0-dirty-deb11) date 2023-07-08 00:45:23*
%MOMM*%
%LPD*%
G01*
G04 APERTURE LIST*
G04 Aperture macros list*
%AMRoundRect*
0 Rectangle with rounded corners*
0 $1 Rounding radius*
0 $2 $3 $4 $5 $6 $7 $8 $9 X,Y pos of 4 corners*
0 Add a 4 corners polygon primitive as box body*
4,1,4,$2,$3,$4,$5,$6,$7,$8,$9,$2,$3,0*
0 Add four circle primitives for the rounded corners*
1,1,$1+$1,$2,$3*
1,1,$1+$1,$4,$5*
1,1,$1+$1,$6,$7*
1,1,$1+$1,$8,$9*
0 Add four rect primitives between the rounded corners*
20,1,$1+$1,$2,$3,$4,$5,0*
20,1,$1+$1,$4,$5,$6,$7,0*
20,1,$1+$1,$6,$7,$8,$9,0*
20,1,$1+$1,$8,$9,$2,$3,0*%
%AMFreePoly0*
4,1,19,0.550000,-0.750000,0.000000,-0.750000,0.000000,-0.744911,-0.071157,-0.744911,-0.207708,-0.704816,-0.327430,-0.627875,-0.420627,-0.520320,-0.479746,-0.390866,-0.500000,-0.250000,-0.500000,0.250000,-0.479746,0.390866,-0.420627,0.520320,-0.327430,0.627875,-0.207708,0.704816,-0.071157,0.744911,0.000000,0.744911,0.000000,0.750000,0.550000,0.750000,0.550000,-0.750000,0.550000,-0.750000,
$1*%
%AMFreePoly1*
4,1,19,0.000000,0.744911,0.071157,0.744911,0.207708,0.704816,0.327430,0.627875,0.420627,0.520320,0.479746,0.390866,0.500000,0.250000,0.500000,-0.250000,0.479746,-0.390866,0.420627,-0.520320,0.327430,-0.627875,0.207708,-0.704816,0.071157,-0.744911,0.000000,-0.744911,0.000000,-0.750000,-0.550000,-0.750000,-0.550000,0.750000,0.000000,0.750000,0.000000,0.744911,0.000000,0.744911,
$1*%
G04 Aperture macros list end*
%ADD10R,1.524000X1.524000*%
%ADD11C,6.000000*%
%ADD12RoundRect,0.250000X-0.262500X-0.450000X0.262500X-0.450000X0.262500X0.450000X-0.262500X0.450000X0*%
%ADD13RoundRect,0.250000X0.475000X-0.250000X0.475000X0.250000X-0.475000X0.250000X-0.475000X-0.250000X0*%
%ADD14R,1.300000X1.700000*%
%ADD15R,0.600000X1.100000*%
%ADD16RoundRect,0.250000X0.262500X0.450000X-0.262500X0.450000X-0.262500X-0.450000X0.262500X-0.450000X0*%
%ADD17FreePoly0,180.000000*%
%ADD18R,1.000000X1.500000*%
%ADD19FreePoly1,180.000000*%
G04 APERTURE END LIST*
D10*
%TO.C,J3*%
X141478000Y-99314000D03*
X141478000Y-101854000D03*
X138938000Y-99314000D03*
X138938000Y-101854000D03*
X136398000Y-99314000D03*
X136398000Y-101854000D03*
X133858000Y-99314000D03*
X133858000Y-101854000D03*
X131318000Y-99314000D03*
X131318000Y-101854000D03*
%TD*%
%TO.C,J2*%
X122682000Y-101854000D03*
X122682000Y-99314000D03*
X125222000Y-101854000D03*
X125222000Y-99314000D03*
X127762000Y-101854000D03*
X127762000Y-99314000D03*
%TD*%
D11*
%TO.C,H1*%
X147320000Y-111760000D03*
%TD*%
%TO.C,H4*%
X116840000Y-101600000D03*
%TD*%
%TO.C,H3*%
X147320000Y-101600000D03*
%TD*%
%TO.C,H2*%
X116840000Y-111760000D03*
%TD*%
D12*
%TO.C,R1*%
X137517500Y-104394000D03*
X139342500Y-104394000D03*
%TD*%
D13*
%TO.C,C2*%
X135636000Y-110490000D03*
X135636000Y-108590000D03*
%TD*%
D14*
%TO.C,D1*%
X138712000Y-108458000D03*
X142212000Y-108458000D03*
%TD*%
D15*
%TO.C,IC1*%
X131415000Y-110574000D03*
X130165000Y-110574000D03*
X128915000Y-110574000D03*
X127665000Y-110574000D03*
X127665000Y-108374000D03*
X128915000Y-108374000D03*
X130165000Y-108374000D03*
X131415000Y-108374000D03*
%TD*%
D16*
%TO.C,R2*%
X135278500Y-104394000D03*
X133453500Y-104394000D03*
%TD*%
D13*
%TO.C,C1*%
X133350000Y-110490000D03*
X133350000Y-108590000D03*
%TD*%
D17*
%TO.C,JP1*%
X133380000Y-113538000D03*
D18*
X132080000Y-113538000D03*
D19*
X130780000Y-113538000D03*
%TD*%
M02*
