%TF.GenerationSoftware,KiCad,Pcbnew,7.0.7-7.0.7~ubuntu23.04.1*%
%TF.CreationDate,2023-09-20T18:03:33+00:00*%
%TF.ProjectId,ALTIMET02,414c5449-4d45-4543-9032-2e6b69636164,rev?*%
%TF.SameCoordinates,Original*%
%TF.FileFunction,Legend,Top*%
%TF.FilePolarity,Positive*%
%FSLAX46Y46*%
G04 Gerber Fmt 4.6, Leading zero omitted, Abs format (unit mm)*
G04 Created by KiCad (PCBNEW 7.0.7-7.0.7~ubuntu23.04.1) date 2023-09-20 18:03:33*
%MOMM*%
%LPD*%
G01*
G04 APERTURE LIST*
%ADD10C,0.150000*%
%ADD11C,0.120000*%
%ADD12R,1.524000X1.524000*%
G04 APERTURE END LIST*
D10*
X133577200Y-105771428D02*
X133610533Y-105657142D01*
X133610533Y-105657142D02*
X133610533Y-105466666D01*
X133610533Y-105466666D02*
X133577200Y-105390475D01*
X133577200Y-105390475D02*
X133543866Y-105352380D01*
X133543866Y-105352380D02*
X133477200Y-105314285D01*
X133477200Y-105314285D02*
X133410533Y-105314285D01*
X133410533Y-105314285D02*
X133343866Y-105352380D01*
X133343866Y-105352380D02*
X133310533Y-105390475D01*
X133310533Y-105390475D02*
X133277200Y-105466666D01*
X133277200Y-105466666D02*
X133243866Y-105619047D01*
X133243866Y-105619047D02*
X133210533Y-105695237D01*
X133210533Y-105695237D02*
X133177200Y-105733332D01*
X133177200Y-105733332D02*
X133110533Y-105771428D01*
X133110533Y-105771428D02*
X133043866Y-105771428D01*
X133043866Y-105771428D02*
X132977200Y-105733332D01*
X132977200Y-105733332D02*
X132943866Y-105695237D01*
X132943866Y-105695237D02*
X132910533Y-105619047D01*
X132910533Y-105619047D02*
X132910533Y-105428570D01*
X132910533Y-105428570D02*
X132943866Y-105314285D01*
X133610533Y-104971427D02*
X132910533Y-104971427D01*
X132910533Y-104971427D02*
X132910533Y-104780951D01*
X132910533Y-104780951D02*
X132943866Y-104666665D01*
X132943866Y-104666665D02*
X133010533Y-104590475D01*
X133010533Y-104590475D02*
X133077200Y-104552380D01*
X133077200Y-104552380D02*
X133210533Y-104514284D01*
X133210533Y-104514284D02*
X133310533Y-104514284D01*
X133310533Y-104514284D02*
X133443866Y-104552380D01*
X133443866Y-104552380D02*
X133510533Y-104590475D01*
X133510533Y-104590475D02*
X133577200Y-104666665D01*
X133577200Y-104666665D02*
X133610533Y-104780951D01*
X133610533Y-104780951D02*
X133610533Y-104971427D01*
X133410533Y-104209523D02*
X133410533Y-103828570D01*
X133610533Y-104285713D02*
X132910533Y-104019046D01*
X132910533Y-104019046D02*
X133610533Y-103752380D01*
X134737533Y-106057142D02*
X134037533Y-106057142D01*
X134037533Y-106057142D02*
X134537533Y-105790476D01*
X134537533Y-105790476D02*
X134037533Y-105523809D01*
X134037533Y-105523809D02*
X134737533Y-105523809D01*
X134037533Y-104990475D02*
X134037533Y-104838094D01*
X134037533Y-104838094D02*
X134070866Y-104761904D01*
X134070866Y-104761904D02*
X134137533Y-104685713D01*
X134137533Y-104685713D02*
X134270866Y-104647618D01*
X134270866Y-104647618D02*
X134504200Y-104647618D01*
X134504200Y-104647618D02*
X134637533Y-104685713D01*
X134637533Y-104685713D02*
X134704200Y-104761904D01*
X134704200Y-104761904D02*
X134737533Y-104838094D01*
X134737533Y-104838094D02*
X134737533Y-104990475D01*
X134737533Y-104990475D02*
X134704200Y-105066666D01*
X134704200Y-105066666D02*
X134637533Y-105142856D01*
X134637533Y-105142856D02*
X134504200Y-105180952D01*
X134504200Y-105180952D02*
X134270866Y-105180952D01*
X134270866Y-105180952D02*
X134137533Y-105142856D01*
X134137533Y-105142856D02*
X134070866Y-105066666D01*
X134070866Y-105066666D02*
X134037533Y-104990475D01*
X134704200Y-104342857D02*
X134737533Y-104228571D01*
X134737533Y-104228571D02*
X134737533Y-104038095D01*
X134737533Y-104038095D02*
X134704200Y-103961904D01*
X134704200Y-103961904D02*
X134670866Y-103923809D01*
X134670866Y-103923809D02*
X134604200Y-103885714D01*
X134604200Y-103885714D02*
X134537533Y-103885714D01*
X134537533Y-103885714D02*
X134470866Y-103923809D01*
X134470866Y-103923809D02*
X134437533Y-103961904D01*
X134437533Y-103961904D02*
X134404200Y-104038095D01*
X134404200Y-104038095D02*
X134370866Y-104190476D01*
X134370866Y-104190476D02*
X134337533Y-104266666D01*
X134337533Y-104266666D02*
X134304200Y-104304761D01*
X134304200Y-104304761D02*
X134237533Y-104342857D01*
X134237533Y-104342857D02*
X134170866Y-104342857D01*
X134170866Y-104342857D02*
X134104200Y-104304761D01*
X134104200Y-104304761D02*
X134070866Y-104266666D01*
X134070866Y-104266666D02*
X134037533Y-104190476D01*
X134037533Y-104190476D02*
X134037533Y-103999999D01*
X134037533Y-103999999D02*
X134070866Y-103885714D01*
X134737533Y-103542856D02*
X134037533Y-103542856D01*
X124238104Y-104273332D02*
X124276200Y-104311428D01*
X124276200Y-104311428D02*
X124314295Y-104425713D01*
X124314295Y-104425713D02*
X124314295Y-104501904D01*
X124314295Y-104501904D02*
X124276200Y-104616190D01*
X124276200Y-104616190D02*
X124200009Y-104692380D01*
X124200009Y-104692380D02*
X124123819Y-104730475D01*
X124123819Y-104730475D02*
X123971438Y-104768571D01*
X123971438Y-104768571D02*
X123857152Y-104768571D01*
X123857152Y-104768571D02*
X123704771Y-104730475D01*
X123704771Y-104730475D02*
X123628580Y-104692380D01*
X123628580Y-104692380D02*
X123552390Y-104616190D01*
X123552390Y-104616190D02*
X123514295Y-104501904D01*
X123514295Y-104501904D02*
X123514295Y-104425713D01*
X123514295Y-104425713D02*
X123552390Y-104311428D01*
X123552390Y-104311428D02*
X123590485Y-104273332D01*
X124276200Y-103968571D02*
X124314295Y-103854285D01*
X124314295Y-103854285D02*
X124314295Y-103663809D01*
X124314295Y-103663809D02*
X124276200Y-103587618D01*
X124276200Y-103587618D02*
X124238104Y-103549523D01*
X124238104Y-103549523D02*
X124161914Y-103511428D01*
X124161914Y-103511428D02*
X124085723Y-103511428D01*
X124085723Y-103511428D02*
X124009533Y-103549523D01*
X124009533Y-103549523D02*
X123971438Y-103587618D01*
X123971438Y-103587618D02*
X123933342Y-103663809D01*
X123933342Y-103663809D02*
X123895247Y-103816190D01*
X123895247Y-103816190D02*
X123857152Y-103892380D01*
X123857152Y-103892380D02*
X123819057Y-103930475D01*
X123819057Y-103930475D02*
X123742866Y-103968571D01*
X123742866Y-103968571D02*
X123666676Y-103968571D01*
X123666676Y-103968571D02*
X123590485Y-103930475D01*
X123590485Y-103930475D02*
X123552390Y-103892380D01*
X123552390Y-103892380D02*
X123514295Y-103816190D01*
X123514295Y-103816190D02*
X123514295Y-103625713D01*
X123514295Y-103625713D02*
X123552390Y-103511428D01*
X141078390Y-105257523D02*
X141040295Y-105333713D01*
X141040295Y-105333713D02*
X141040295Y-105447999D01*
X141040295Y-105447999D02*
X141078390Y-105562285D01*
X141078390Y-105562285D02*
X141154580Y-105638475D01*
X141154580Y-105638475D02*
X141230771Y-105676570D01*
X141230771Y-105676570D02*
X141383152Y-105714666D01*
X141383152Y-105714666D02*
X141497438Y-105714666D01*
X141497438Y-105714666D02*
X141649819Y-105676570D01*
X141649819Y-105676570D02*
X141726009Y-105638475D01*
X141726009Y-105638475D02*
X141802200Y-105562285D01*
X141802200Y-105562285D02*
X141840295Y-105447999D01*
X141840295Y-105447999D02*
X141840295Y-105371808D01*
X141840295Y-105371808D02*
X141802200Y-105257523D01*
X141802200Y-105257523D02*
X141764104Y-105219427D01*
X141764104Y-105219427D02*
X141497438Y-105219427D01*
X141497438Y-105219427D02*
X141497438Y-105371808D01*
X141840295Y-104876570D02*
X141040295Y-104876570D01*
X141040295Y-104876570D02*
X141840295Y-104419427D01*
X141840295Y-104419427D02*
X141040295Y-104419427D01*
X141840295Y-104038475D02*
X141040295Y-104038475D01*
X141040295Y-104038475D02*
X141040295Y-103847999D01*
X141040295Y-103847999D02*
X141078390Y-103733713D01*
X141078390Y-103733713D02*
X141154580Y-103657523D01*
X141154580Y-103657523D02*
X141230771Y-103619428D01*
X141230771Y-103619428D02*
X141383152Y-103581332D01*
X141383152Y-103581332D02*
X141497438Y-103581332D01*
X141497438Y-103581332D02*
X141649819Y-103619428D01*
X141649819Y-103619428D02*
X141726009Y-103657523D01*
X141726009Y-103657523D02*
X141802200Y-103733713D01*
X141802200Y-103733713D02*
X141840295Y-103847999D01*
X141840295Y-103847999D02*
X141840295Y-104038475D01*
X138657200Y-105676571D02*
X138690533Y-105562285D01*
X138690533Y-105562285D02*
X138690533Y-105371809D01*
X138690533Y-105371809D02*
X138657200Y-105295618D01*
X138657200Y-105295618D02*
X138623866Y-105257523D01*
X138623866Y-105257523D02*
X138557200Y-105219428D01*
X138557200Y-105219428D02*
X138490533Y-105219428D01*
X138490533Y-105219428D02*
X138423866Y-105257523D01*
X138423866Y-105257523D02*
X138390533Y-105295618D01*
X138390533Y-105295618D02*
X138357200Y-105371809D01*
X138357200Y-105371809D02*
X138323866Y-105524190D01*
X138323866Y-105524190D02*
X138290533Y-105600380D01*
X138290533Y-105600380D02*
X138257200Y-105638475D01*
X138257200Y-105638475D02*
X138190533Y-105676571D01*
X138190533Y-105676571D02*
X138123866Y-105676571D01*
X138123866Y-105676571D02*
X138057200Y-105638475D01*
X138057200Y-105638475D02*
X138023866Y-105600380D01*
X138023866Y-105600380D02*
X137990533Y-105524190D01*
X137990533Y-105524190D02*
X137990533Y-105333713D01*
X137990533Y-105333713D02*
X138023866Y-105219428D01*
X138623866Y-104419427D02*
X138657200Y-104457523D01*
X138657200Y-104457523D02*
X138690533Y-104571808D01*
X138690533Y-104571808D02*
X138690533Y-104647999D01*
X138690533Y-104647999D02*
X138657200Y-104762285D01*
X138657200Y-104762285D02*
X138590533Y-104838475D01*
X138590533Y-104838475D02*
X138523866Y-104876570D01*
X138523866Y-104876570D02*
X138390533Y-104914666D01*
X138390533Y-104914666D02*
X138290533Y-104914666D01*
X138290533Y-104914666D02*
X138157200Y-104876570D01*
X138157200Y-104876570D02*
X138090533Y-104838475D01*
X138090533Y-104838475D02*
X138023866Y-104762285D01*
X138023866Y-104762285D02*
X137990533Y-104647999D01*
X137990533Y-104647999D02*
X137990533Y-104571808D01*
X137990533Y-104571808D02*
X138023866Y-104457523D01*
X138023866Y-104457523D02*
X138057200Y-104419427D01*
X138690533Y-104076570D02*
X137990533Y-104076570D01*
X138690533Y-103619427D02*
X138290533Y-103962285D01*
X137990533Y-103619427D02*
X138390533Y-104076570D01*
X139784200Y-105600381D02*
X139817533Y-105486095D01*
X139817533Y-105486095D02*
X139817533Y-105295619D01*
X139817533Y-105295619D02*
X139784200Y-105219428D01*
X139784200Y-105219428D02*
X139750866Y-105181333D01*
X139750866Y-105181333D02*
X139684200Y-105143238D01*
X139684200Y-105143238D02*
X139617533Y-105143238D01*
X139617533Y-105143238D02*
X139550866Y-105181333D01*
X139550866Y-105181333D02*
X139517533Y-105219428D01*
X139517533Y-105219428D02*
X139484200Y-105295619D01*
X139484200Y-105295619D02*
X139450866Y-105448000D01*
X139450866Y-105448000D02*
X139417533Y-105524190D01*
X139417533Y-105524190D02*
X139384200Y-105562285D01*
X139384200Y-105562285D02*
X139317533Y-105600381D01*
X139317533Y-105600381D02*
X139250866Y-105600381D01*
X139250866Y-105600381D02*
X139184200Y-105562285D01*
X139184200Y-105562285D02*
X139150866Y-105524190D01*
X139150866Y-105524190D02*
X139117533Y-105448000D01*
X139117533Y-105448000D02*
X139117533Y-105257523D01*
X139117533Y-105257523D02*
X139150866Y-105143238D01*
X139750866Y-104343237D02*
X139784200Y-104381333D01*
X139784200Y-104381333D02*
X139817533Y-104495618D01*
X139817533Y-104495618D02*
X139817533Y-104571809D01*
X139817533Y-104571809D02*
X139784200Y-104686095D01*
X139784200Y-104686095D02*
X139717533Y-104762285D01*
X139717533Y-104762285D02*
X139650866Y-104800380D01*
X139650866Y-104800380D02*
X139517533Y-104838476D01*
X139517533Y-104838476D02*
X139417533Y-104838476D01*
X139417533Y-104838476D02*
X139284200Y-104800380D01*
X139284200Y-104800380D02*
X139217533Y-104762285D01*
X139217533Y-104762285D02*
X139150866Y-104686095D01*
X139150866Y-104686095D02*
X139117533Y-104571809D01*
X139117533Y-104571809D02*
X139117533Y-104495618D01*
X139117533Y-104495618D02*
X139150866Y-104381333D01*
X139150866Y-104381333D02*
X139184200Y-104343237D01*
X139817533Y-103619428D02*
X139817533Y-104000380D01*
X139817533Y-104000380D02*
X139117533Y-104000380D01*
X135960295Y-105714666D02*
X136760295Y-105447999D01*
X136760295Y-105447999D02*
X135960295Y-105181333D01*
X136760295Y-104914666D02*
X135960295Y-104914666D01*
X135960295Y-104914666D02*
X135960295Y-104724190D01*
X135960295Y-104724190D02*
X135998390Y-104609904D01*
X135998390Y-104609904D02*
X136074580Y-104533714D01*
X136074580Y-104533714D02*
X136150771Y-104495619D01*
X136150771Y-104495619D02*
X136303152Y-104457523D01*
X136303152Y-104457523D02*
X136417438Y-104457523D01*
X136417438Y-104457523D02*
X136569819Y-104495619D01*
X136569819Y-104495619D02*
X136646009Y-104533714D01*
X136646009Y-104533714D02*
X136722200Y-104609904D01*
X136722200Y-104609904D02*
X136760295Y-104724190D01*
X136760295Y-104724190D02*
X136760295Y-104914666D01*
X136760295Y-104114666D02*
X135960295Y-104114666D01*
X135960295Y-104114666D02*
X135960295Y-103924190D01*
X135960295Y-103924190D02*
X135998390Y-103809904D01*
X135998390Y-103809904D02*
X136074580Y-103733714D01*
X136074580Y-103733714D02*
X136150771Y-103695619D01*
X136150771Y-103695619D02*
X136303152Y-103657523D01*
X136303152Y-103657523D02*
X136417438Y-103657523D01*
X136417438Y-103657523D02*
X136569819Y-103695619D01*
X136569819Y-103695619D02*
X136646009Y-103733714D01*
X136646009Y-103733714D02*
X136722200Y-103809904D01*
X136722200Y-103809904D02*
X136760295Y-103924190D01*
X136760295Y-103924190D02*
X136760295Y-104114666D01*
X135207810Y-109674819D02*
X135207810Y-108674819D01*
X135207810Y-108674819D02*
X135541143Y-109389104D01*
X135541143Y-109389104D02*
X135874476Y-108674819D01*
X135874476Y-108674819D02*
X135874476Y-109674819D01*
X136303048Y-109389104D02*
X136779238Y-109389104D01*
X136207810Y-109674819D02*
X136541143Y-108674819D01*
X136541143Y-108674819D02*
X136874476Y-109674819D01*
X137112572Y-108674819D02*
X137779238Y-109674819D01*
X137779238Y-108674819D02*
X137112572Y-109674819D01*
X138826858Y-108674819D02*
X139445905Y-108674819D01*
X139445905Y-108674819D02*
X139112572Y-109055771D01*
X139112572Y-109055771D02*
X139255429Y-109055771D01*
X139255429Y-109055771D02*
X139350667Y-109103390D01*
X139350667Y-109103390D02*
X139398286Y-109151009D01*
X139398286Y-109151009D02*
X139445905Y-109246247D01*
X139445905Y-109246247D02*
X139445905Y-109484342D01*
X139445905Y-109484342D02*
X139398286Y-109579580D01*
X139398286Y-109579580D02*
X139350667Y-109627200D01*
X139350667Y-109627200D02*
X139255429Y-109674819D01*
X139255429Y-109674819D02*
X138969715Y-109674819D01*
X138969715Y-109674819D02*
X138874477Y-109627200D01*
X138874477Y-109627200D02*
X138826858Y-109579580D01*
X139874477Y-109579580D02*
X139922096Y-109627200D01*
X139922096Y-109627200D02*
X139874477Y-109674819D01*
X139874477Y-109674819D02*
X139826858Y-109627200D01*
X139826858Y-109627200D02*
X139874477Y-109579580D01*
X139874477Y-109579580D02*
X139874477Y-109674819D01*
X140779238Y-108674819D02*
X140588762Y-108674819D01*
X140588762Y-108674819D02*
X140493524Y-108722438D01*
X140493524Y-108722438D02*
X140445905Y-108770057D01*
X140445905Y-108770057D02*
X140350667Y-108912914D01*
X140350667Y-108912914D02*
X140303048Y-109103390D01*
X140303048Y-109103390D02*
X140303048Y-109484342D01*
X140303048Y-109484342D02*
X140350667Y-109579580D01*
X140350667Y-109579580D02*
X140398286Y-109627200D01*
X140398286Y-109627200D02*
X140493524Y-109674819D01*
X140493524Y-109674819D02*
X140684000Y-109674819D01*
X140684000Y-109674819D02*
X140779238Y-109627200D01*
X140779238Y-109627200D02*
X140826857Y-109579580D01*
X140826857Y-109579580D02*
X140874476Y-109484342D01*
X140874476Y-109484342D02*
X140874476Y-109246247D01*
X140874476Y-109246247D02*
X140826857Y-109151009D01*
X140826857Y-109151009D02*
X140779238Y-109103390D01*
X140779238Y-109103390D02*
X140684000Y-109055771D01*
X140684000Y-109055771D02*
X140493524Y-109055771D01*
X140493524Y-109055771D02*
X140398286Y-109103390D01*
X140398286Y-109103390D02*
X140350667Y-109151009D01*
X140350667Y-109151009D02*
X140303048Y-109246247D01*
X141160191Y-108674819D02*
X141493524Y-109674819D01*
X141493524Y-109674819D02*
X141826857Y-108674819D01*
X142160191Y-109579580D02*
X142207810Y-109627200D01*
X142207810Y-109627200D02*
X142160191Y-109674819D01*
X142160191Y-109674819D02*
X142112572Y-109627200D01*
X142112572Y-109627200D02*
X142160191Y-109579580D01*
X142160191Y-109579580D02*
X142160191Y-109674819D01*
X142160191Y-109293866D02*
X142112572Y-108722438D01*
X142112572Y-108722438D02*
X142160191Y-108674819D01*
X142160191Y-108674819D02*
X142207810Y-108722438D01*
X142207810Y-108722438D02*
X142160191Y-109293866D01*
X142160191Y-109293866D02*
X142160191Y-108674819D01*
X128054381Y-110716295D02*
X128054381Y-109916295D01*
X128397237Y-109992485D02*
X128435333Y-109954390D01*
X128435333Y-109954390D02*
X128511523Y-109916295D01*
X128511523Y-109916295D02*
X128701999Y-109916295D01*
X128701999Y-109916295D02*
X128778190Y-109954390D01*
X128778190Y-109954390D02*
X128816285Y-109992485D01*
X128816285Y-109992485D02*
X128854380Y-110068676D01*
X128854380Y-110068676D02*
X128854380Y-110144866D01*
X128854380Y-110144866D02*
X128816285Y-110259152D01*
X128816285Y-110259152D02*
X128359142Y-110716295D01*
X128359142Y-110716295D02*
X128854380Y-110716295D01*
X129654381Y-110640104D02*
X129616285Y-110678200D01*
X129616285Y-110678200D02*
X129502000Y-110716295D01*
X129502000Y-110716295D02*
X129425809Y-110716295D01*
X129425809Y-110716295D02*
X129311523Y-110678200D01*
X129311523Y-110678200D02*
X129235333Y-110602009D01*
X129235333Y-110602009D02*
X129197238Y-110525819D01*
X129197238Y-110525819D02*
X129159142Y-110373438D01*
X129159142Y-110373438D02*
X129159142Y-110259152D01*
X129159142Y-110259152D02*
X129197238Y-110106771D01*
X129197238Y-110106771D02*
X129235333Y-110030580D01*
X129235333Y-110030580D02*
X129311523Y-109954390D01*
X129311523Y-109954390D02*
X129425809Y-109916295D01*
X129425809Y-109916295D02*
X129502000Y-109916295D01*
X129502000Y-109916295D02*
X129616285Y-109954390D01*
X129616285Y-109954390D02*
X129654381Y-109992485D01*
X130949619Y-110716295D02*
X130949619Y-110297247D01*
X130949619Y-110297247D02*
X130911524Y-110221057D01*
X130911524Y-110221057D02*
X130835333Y-110182961D01*
X130835333Y-110182961D02*
X130682952Y-110182961D01*
X130682952Y-110182961D02*
X130606762Y-110221057D01*
X130949619Y-110678200D02*
X130873428Y-110716295D01*
X130873428Y-110716295D02*
X130682952Y-110716295D01*
X130682952Y-110716295D02*
X130606762Y-110678200D01*
X130606762Y-110678200D02*
X130568666Y-110602009D01*
X130568666Y-110602009D02*
X130568666Y-110525819D01*
X130568666Y-110525819D02*
X130606762Y-110449628D01*
X130606762Y-110449628D02*
X130682952Y-110411533D01*
X130682952Y-110411533D02*
X130873428Y-110411533D01*
X130873428Y-110411533D02*
X130949619Y-110373438D01*
X131673429Y-110716295D02*
X131673429Y-109916295D01*
X131673429Y-110678200D02*
X131597238Y-110716295D01*
X131597238Y-110716295D02*
X131444857Y-110716295D01*
X131444857Y-110716295D02*
X131368667Y-110678200D01*
X131368667Y-110678200D02*
X131330572Y-110640104D01*
X131330572Y-110640104D02*
X131292476Y-110563914D01*
X131292476Y-110563914D02*
X131292476Y-110335342D01*
X131292476Y-110335342D02*
X131330572Y-110259152D01*
X131330572Y-110259152D02*
X131368667Y-110221057D01*
X131368667Y-110221057D02*
X131444857Y-110182961D01*
X131444857Y-110182961D02*
X131597238Y-110182961D01*
X131597238Y-110182961D02*
X131673429Y-110221057D01*
X132054382Y-110716295D02*
X132054382Y-110182961D01*
X132054382Y-110335342D02*
X132092477Y-110259152D01*
X132092477Y-110259152D02*
X132130572Y-110221057D01*
X132130572Y-110221057D02*
X132206763Y-110182961D01*
X132206763Y-110182961D02*
X132282953Y-110182961D01*
X132549620Y-110640104D02*
X132587715Y-110678200D01*
X132587715Y-110678200D02*
X132549620Y-110716295D01*
X132549620Y-110716295D02*
X132511524Y-110678200D01*
X132511524Y-110678200D02*
X132549620Y-110640104D01*
X132549620Y-110640104D02*
X132549620Y-110716295D01*
X127292476Y-111204295D02*
X127368666Y-111204295D01*
X127368666Y-111204295D02*
X127444857Y-111242390D01*
X127444857Y-111242390D02*
X127482952Y-111280485D01*
X127482952Y-111280485D02*
X127521047Y-111356676D01*
X127521047Y-111356676D02*
X127559142Y-111509057D01*
X127559142Y-111509057D02*
X127559142Y-111699533D01*
X127559142Y-111699533D02*
X127521047Y-111851914D01*
X127521047Y-111851914D02*
X127482952Y-111928104D01*
X127482952Y-111928104D02*
X127444857Y-111966200D01*
X127444857Y-111966200D02*
X127368666Y-112004295D01*
X127368666Y-112004295D02*
X127292476Y-112004295D01*
X127292476Y-112004295D02*
X127216285Y-111966200D01*
X127216285Y-111966200D02*
X127178190Y-111928104D01*
X127178190Y-111928104D02*
X127140095Y-111851914D01*
X127140095Y-111851914D02*
X127101999Y-111699533D01*
X127101999Y-111699533D02*
X127101999Y-111509057D01*
X127101999Y-111509057D02*
X127140095Y-111356676D01*
X127140095Y-111356676D02*
X127178190Y-111280485D01*
X127178190Y-111280485D02*
X127216285Y-111242390D01*
X127216285Y-111242390D02*
X127292476Y-111204295D01*
X127825809Y-112004295D02*
X128244857Y-111470961D01*
X127825809Y-111470961D02*
X128244857Y-112004295D01*
X128473428Y-111204295D02*
X129006762Y-111204295D01*
X129006762Y-111204295D02*
X128663904Y-112004295D01*
X129235333Y-111204295D02*
X129768667Y-111204295D01*
X129768667Y-111204295D02*
X129425809Y-112004295D01*
X130644857Y-111166200D02*
X129959143Y-112194771D01*
X131063905Y-111204295D02*
X131140095Y-111204295D01*
X131140095Y-111204295D02*
X131216286Y-111242390D01*
X131216286Y-111242390D02*
X131254381Y-111280485D01*
X131254381Y-111280485D02*
X131292476Y-111356676D01*
X131292476Y-111356676D02*
X131330571Y-111509057D01*
X131330571Y-111509057D02*
X131330571Y-111699533D01*
X131330571Y-111699533D02*
X131292476Y-111851914D01*
X131292476Y-111851914D02*
X131254381Y-111928104D01*
X131254381Y-111928104D02*
X131216286Y-111966200D01*
X131216286Y-111966200D02*
X131140095Y-112004295D01*
X131140095Y-112004295D02*
X131063905Y-112004295D01*
X131063905Y-112004295D02*
X130987714Y-111966200D01*
X130987714Y-111966200D02*
X130949619Y-111928104D01*
X130949619Y-111928104D02*
X130911524Y-111851914D01*
X130911524Y-111851914D02*
X130873428Y-111699533D01*
X130873428Y-111699533D02*
X130873428Y-111509057D01*
X130873428Y-111509057D02*
X130911524Y-111356676D01*
X130911524Y-111356676D02*
X130949619Y-111280485D01*
X130949619Y-111280485D02*
X130987714Y-111242390D01*
X130987714Y-111242390D02*
X131063905Y-111204295D01*
X131597238Y-112004295D02*
X132016286Y-111470961D01*
X131597238Y-111470961D02*
X132016286Y-112004295D01*
X132244857Y-111204295D02*
X132778191Y-111204295D01*
X132778191Y-111204295D02*
X132435333Y-112004295D01*
X133425810Y-111204295D02*
X133273429Y-111204295D01*
X133273429Y-111204295D02*
X133197238Y-111242390D01*
X133197238Y-111242390D02*
X133159143Y-111280485D01*
X133159143Y-111280485D02*
X133082953Y-111394771D01*
X133082953Y-111394771D02*
X133044857Y-111547152D01*
X133044857Y-111547152D02*
X133044857Y-111851914D01*
X133044857Y-111851914D02*
X133082953Y-111928104D01*
X133082953Y-111928104D02*
X133121048Y-111966200D01*
X133121048Y-111966200D02*
X133197238Y-112004295D01*
X133197238Y-112004295D02*
X133349619Y-112004295D01*
X133349619Y-112004295D02*
X133425810Y-111966200D01*
X133425810Y-111966200D02*
X133463905Y-111928104D01*
X133463905Y-111928104D02*
X133502000Y-111851914D01*
X133502000Y-111851914D02*
X133502000Y-111661438D01*
X133502000Y-111661438D02*
X133463905Y-111585247D01*
X133463905Y-111585247D02*
X133425810Y-111547152D01*
X133425810Y-111547152D02*
X133349619Y-111509057D01*
X133349619Y-111509057D02*
X133197238Y-111509057D01*
X133197238Y-111509057D02*
X133121048Y-111547152D01*
X133121048Y-111547152D02*
X133082953Y-111585247D01*
X133082953Y-111585247D02*
X133044857Y-111661438D01*
X130918390Y-105257523D02*
X130880295Y-105333713D01*
X130880295Y-105333713D02*
X130880295Y-105447999D01*
X130880295Y-105447999D02*
X130918390Y-105562285D01*
X130918390Y-105562285D02*
X130994580Y-105638475D01*
X130994580Y-105638475D02*
X131070771Y-105676570D01*
X131070771Y-105676570D02*
X131223152Y-105714666D01*
X131223152Y-105714666D02*
X131337438Y-105714666D01*
X131337438Y-105714666D02*
X131489819Y-105676570D01*
X131489819Y-105676570D02*
X131566009Y-105638475D01*
X131566009Y-105638475D02*
X131642200Y-105562285D01*
X131642200Y-105562285D02*
X131680295Y-105447999D01*
X131680295Y-105447999D02*
X131680295Y-105371808D01*
X131680295Y-105371808D02*
X131642200Y-105257523D01*
X131642200Y-105257523D02*
X131604104Y-105219427D01*
X131604104Y-105219427D02*
X131337438Y-105219427D01*
X131337438Y-105219427D02*
X131337438Y-105371808D01*
X131680295Y-104876570D02*
X130880295Y-104876570D01*
X130880295Y-104876570D02*
X131680295Y-104419427D01*
X131680295Y-104419427D02*
X130880295Y-104419427D01*
X131680295Y-104038475D02*
X130880295Y-104038475D01*
X130880295Y-104038475D02*
X130880295Y-103847999D01*
X130880295Y-103847999D02*
X130918390Y-103733713D01*
X130918390Y-103733713D02*
X130994580Y-103657523D01*
X130994580Y-103657523D02*
X131070771Y-103619428D01*
X131070771Y-103619428D02*
X131223152Y-103581332D01*
X131223152Y-103581332D02*
X131337438Y-103581332D01*
X131337438Y-103581332D02*
X131489819Y-103619428D01*
X131489819Y-103619428D02*
X131566009Y-103657523D01*
X131566009Y-103657523D02*
X131642200Y-103733713D01*
X131642200Y-103733713D02*
X131680295Y-103847999D01*
X131680295Y-103847999D02*
X131680295Y-104038475D01*
X119752381Y-108459104D02*
X120228571Y-108459104D01*
X119657143Y-108744819D02*
X119990476Y-107744819D01*
X119990476Y-107744819D02*
X120323809Y-108744819D01*
X121133333Y-108744819D02*
X120657143Y-108744819D01*
X120657143Y-108744819D02*
X120657143Y-107744819D01*
X121323810Y-107744819D02*
X121895238Y-107744819D01*
X121609524Y-108744819D02*
X121609524Y-107744819D01*
X122228572Y-108744819D02*
X122228572Y-107744819D01*
X122704762Y-108744819D02*
X122704762Y-107744819D01*
X122704762Y-107744819D02*
X123038095Y-108459104D01*
X123038095Y-108459104D02*
X123371428Y-107744819D01*
X123371428Y-107744819D02*
X123371428Y-108744819D01*
X123847619Y-108221009D02*
X124180952Y-108221009D01*
X124323809Y-108744819D02*
X123847619Y-108744819D01*
X123847619Y-108744819D02*
X123847619Y-107744819D01*
X123847619Y-107744819D02*
X124323809Y-107744819D01*
X124609524Y-107744819D02*
X125180952Y-107744819D01*
X124895238Y-108744819D02*
X124895238Y-107744819D01*
X125704762Y-107744819D02*
X125800000Y-107744819D01*
X125800000Y-107744819D02*
X125895238Y-107792438D01*
X125895238Y-107792438D02*
X125942857Y-107840057D01*
X125942857Y-107840057D02*
X125990476Y-107935295D01*
X125990476Y-107935295D02*
X126038095Y-108125771D01*
X126038095Y-108125771D02*
X126038095Y-108363866D01*
X126038095Y-108363866D02*
X125990476Y-108554342D01*
X125990476Y-108554342D02*
X125942857Y-108649580D01*
X125942857Y-108649580D02*
X125895238Y-108697200D01*
X125895238Y-108697200D02*
X125800000Y-108744819D01*
X125800000Y-108744819D02*
X125704762Y-108744819D01*
X125704762Y-108744819D02*
X125609524Y-108697200D01*
X125609524Y-108697200D02*
X125561905Y-108649580D01*
X125561905Y-108649580D02*
X125514286Y-108554342D01*
X125514286Y-108554342D02*
X125466667Y-108363866D01*
X125466667Y-108363866D02*
X125466667Y-108125771D01*
X125466667Y-108125771D02*
X125514286Y-107935295D01*
X125514286Y-107935295D02*
X125561905Y-107840057D01*
X125561905Y-107840057D02*
X125609524Y-107792438D01*
X125609524Y-107792438D02*
X125704762Y-107744819D01*
X126419048Y-107840057D02*
X126466667Y-107792438D01*
X126466667Y-107792438D02*
X126561905Y-107744819D01*
X126561905Y-107744819D02*
X126800000Y-107744819D01*
X126800000Y-107744819D02*
X126895238Y-107792438D01*
X126895238Y-107792438D02*
X126942857Y-107840057D01*
X126942857Y-107840057D02*
X126990476Y-107935295D01*
X126990476Y-107935295D02*
X126990476Y-108030533D01*
X126990476Y-108030533D02*
X126942857Y-108173390D01*
X126942857Y-108173390D02*
X126371429Y-108744819D01*
X126371429Y-108744819D02*
X126990476Y-108744819D01*
X127371429Y-108459104D02*
X127847619Y-108459104D01*
X127276191Y-108744819D02*
X127609524Y-107744819D01*
X127609524Y-107744819D02*
X127942857Y-108744819D01*
X121061905Y-110354819D02*
X121061905Y-109354819D01*
X121061905Y-109354819D02*
X121395238Y-110069104D01*
X121395238Y-110069104D02*
X121728571Y-109354819D01*
X121728571Y-109354819D02*
X121728571Y-110354819D01*
X122680952Y-110354819D02*
X122204762Y-110354819D01*
X122204762Y-110354819D02*
X122204762Y-109354819D01*
X122966667Y-110069104D02*
X123442857Y-110069104D01*
X122871429Y-110354819D02*
X123204762Y-109354819D01*
X123204762Y-109354819D02*
X123538095Y-110354819D01*
X124204762Y-109831009D02*
X124347619Y-109878628D01*
X124347619Y-109878628D02*
X124395238Y-109926247D01*
X124395238Y-109926247D02*
X124442857Y-110021485D01*
X124442857Y-110021485D02*
X124442857Y-110164342D01*
X124442857Y-110164342D02*
X124395238Y-110259580D01*
X124395238Y-110259580D02*
X124347619Y-110307200D01*
X124347619Y-110307200D02*
X124252381Y-110354819D01*
X124252381Y-110354819D02*
X123871429Y-110354819D01*
X123871429Y-110354819D02*
X123871429Y-109354819D01*
X123871429Y-109354819D02*
X124204762Y-109354819D01*
X124204762Y-109354819D02*
X124300000Y-109402438D01*
X124300000Y-109402438D02*
X124347619Y-109450057D01*
X124347619Y-109450057D02*
X124395238Y-109545295D01*
X124395238Y-109545295D02*
X124395238Y-109640533D01*
X124395238Y-109640533D02*
X124347619Y-109735771D01*
X124347619Y-109735771D02*
X124300000Y-109783390D01*
X124300000Y-109783390D02*
X124204762Y-109831009D01*
X124204762Y-109831009D02*
X123871429Y-109831009D01*
X124871429Y-110259580D02*
X124919048Y-110307200D01*
X124919048Y-110307200D02*
X124871429Y-110354819D01*
X124871429Y-110354819D02*
X124823810Y-110307200D01*
X124823810Y-110307200D02*
X124871429Y-110259580D01*
X124871429Y-110259580D02*
X124871429Y-110354819D01*
X125776190Y-110307200D02*
X125680952Y-110354819D01*
X125680952Y-110354819D02*
X125490476Y-110354819D01*
X125490476Y-110354819D02*
X125395238Y-110307200D01*
X125395238Y-110307200D02*
X125347619Y-110259580D01*
X125347619Y-110259580D02*
X125300000Y-110164342D01*
X125300000Y-110164342D02*
X125300000Y-109878628D01*
X125300000Y-109878628D02*
X125347619Y-109783390D01*
X125347619Y-109783390D02*
X125395238Y-109735771D01*
X125395238Y-109735771D02*
X125490476Y-109688152D01*
X125490476Y-109688152D02*
X125680952Y-109688152D01*
X125680952Y-109688152D02*
X125776190Y-109735771D01*
X126109524Y-109688152D02*
X126633333Y-109688152D01*
X126633333Y-109688152D02*
X126109524Y-110354819D01*
X126109524Y-110354819D02*
X126633333Y-110354819D01*
X122085714Y-111060057D02*
X122133333Y-111012438D01*
X122133333Y-111012438D02*
X122228571Y-110964819D01*
X122228571Y-110964819D02*
X122466666Y-110964819D01*
X122466666Y-110964819D02*
X122561904Y-111012438D01*
X122561904Y-111012438D02*
X122609523Y-111060057D01*
X122609523Y-111060057D02*
X122657142Y-111155295D01*
X122657142Y-111155295D02*
X122657142Y-111250533D01*
X122657142Y-111250533D02*
X122609523Y-111393390D01*
X122609523Y-111393390D02*
X122038095Y-111964819D01*
X122038095Y-111964819D02*
X122657142Y-111964819D01*
X123276190Y-110964819D02*
X123371428Y-110964819D01*
X123371428Y-110964819D02*
X123466666Y-111012438D01*
X123466666Y-111012438D02*
X123514285Y-111060057D01*
X123514285Y-111060057D02*
X123561904Y-111155295D01*
X123561904Y-111155295D02*
X123609523Y-111345771D01*
X123609523Y-111345771D02*
X123609523Y-111583866D01*
X123609523Y-111583866D02*
X123561904Y-111774342D01*
X123561904Y-111774342D02*
X123514285Y-111869580D01*
X123514285Y-111869580D02*
X123466666Y-111917200D01*
X123466666Y-111917200D02*
X123371428Y-111964819D01*
X123371428Y-111964819D02*
X123276190Y-111964819D01*
X123276190Y-111964819D02*
X123180952Y-111917200D01*
X123180952Y-111917200D02*
X123133333Y-111869580D01*
X123133333Y-111869580D02*
X123085714Y-111774342D01*
X123085714Y-111774342D02*
X123038095Y-111583866D01*
X123038095Y-111583866D02*
X123038095Y-111345771D01*
X123038095Y-111345771D02*
X123085714Y-111155295D01*
X123085714Y-111155295D02*
X123133333Y-111060057D01*
X123133333Y-111060057D02*
X123180952Y-111012438D01*
X123180952Y-111012438D02*
X123276190Y-110964819D01*
X123990476Y-111060057D02*
X124038095Y-111012438D01*
X124038095Y-111012438D02*
X124133333Y-110964819D01*
X124133333Y-110964819D02*
X124371428Y-110964819D01*
X124371428Y-110964819D02*
X124466666Y-111012438D01*
X124466666Y-111012438D02*
X124514285Y-111060057D01*
X124514285Y-111060057D02*
X124561904Y-111155295D01*
X124561904Y-111155295D02*
X124561904Y-111250533D01*
X124561904Y-111250533D02*
X124514285Y-111393390D01*
X124514285Y-111393390D02*
X123942857Y-111964819D01*
X123942857Y-111964819D02*
X124561904Y-111964819D01*
X124895238Y-110964819D02*
X125514285Y-110964819D01*
X125514285Y-110964819D02*
X125180952Y-111345771D01*
X125180952Y-111345771D02*
X125323809Y-111345771D01*
X125323809Y-111345771D02*
X125419047Y-111393390D01*
X125419047Y-111393390D02*
X125466666Y-111441009D01*
X125466666Y-111441009D02*
X125514285Y-111536247D01*
X125514285Y-111536247D02*
X125514285Y-111774342D01*
X125514285Y-111774342D02*
X125466666Y-111869580D01*
X125466666Y-111869580D02*
X125419047Y-111917200D01*
X125419047Y-111917200D02*
X125323809Y-111964819D01*
X125323809Y-111964819D02*
X125038095Y-111964819D01*
X125038095Y-111964819D02*
X124942857Y-111917200D01*
X124942857Y-111917200D02*
X124895238Y-111869580D01*
X126854295Y-105905142D02*
X126054295Y-105905142D01*
X126054295Y-105905142D02*
X126625723Y-105638476D01*
X126625723Y-105638476D02*
X126054295Y-105371809D01*
X126054295Y-105371809D02*
X126854295Y-105371809D01*
X126854295Y-104990856D02*
X126054295Y-104990856D01*
X126816200Y-104648000D02*
X126854295Y-104533714D01*
X126854295Y-104533714D02*
X126854295Y-104343238D01*
X126854295Y-104343238D02*
X126816200Y-104267047D01*
X126816200Y-104267047D02*
X126778104Y-104228952D01*
X126778104Y-104228952D02*
X126701914Y-104190857D01*
X126701914Y-104190857D02*
X126625723Y-104190857D01*
X126625723Y-104190857D02*
X126549533Y-104228952D01*
X126549533Y-104228952D02*
X126511438Y-104267047D01*
X126511438Y-104267047D02*
X126473342Y-104343238D01*
X126473342Y-104343238D02*
X126435247Y-104495619D01*
X126435247Y-104495619D02*
X126397152Y-104571809D01*
X126397152Y-104571809D02*
X126359057Y-104609904D01*
X126359057Y-104609904D02*
X126282866Y-104648000D01*
X126282866Y-104648000D02*
X126206676Y-104648000D01*
X126206676Y-104648000D02*
X126130485Y-104609904D01*
X126130485Y-104609904D02*
X126092390Y-104571809D01*
X126092390Y-104571809D02*
X126054295Y-104495619D01*
X126054295Y-104495619D02*
X126054295Y-104305142D01*
X126054295Y-104305142D02*
X126092390Y-104190857D01*
X126054295Y-103695618D02*
X126054295Y-103543237D01*
X126054295Y-103543237D02*
X126092390Y-103467047D01*
X126092390Y-103467047D02*
X126168580Y-103390856D01*
X126168580Y-103390856D02*
X126320961Y-103352761D01*
X126320961Y-103352761D02*
X126587628Y-103352761D01*
X126587628Y-103352761D02*
X126740009Y-103390856D01*
X126740009Y-103390856D02*
X126816200Y-103467047D01*
X126816200Y-103467047D02*
X126854295Y-103543237D01*
X126854295Y-103543237D02*
X126854295Y-103695618D01*
X126854295Y-103695618D02*
X126816200Y-103771809D01*
X126816200Y-103771809D02*
X126740009Y-103847999D01*
X126740009Y-103847999D02*
X126587628Y-103886095D01*
X126587628Y-103886095D02*
X126320961Y-103886095D01*
X126320961Y-103886095D02*
X126168580Y-103847999D01*
X126168580Y-103847999D02*
X126092390Y-103771809D01*
X126092390Y-103771809D02*
X126054295Y-103695618D01*
%TO.C,J3*%
X142748000Y-98044000D02*
X142748000Y-103124000D01*
X130048000Y-98044000D02*
X142748000Y-98044000D01*
X142748000Y-103124000D02*
X130048000Y-103124000D01*
X130048000Y-103124000D02*
X130048000Y-98044000D01*
%TO.C,J1*%
X127762000Y-98044000D02*
X127762000Y-103124000D01*
X122682000Y-98044000D02*
X127762000Y-98044000D01*
X127762000Y-103124000D02*
X122682000Y-103124000D01*
X122682000Y-103124000D02*
X122682000Y-98044000D01*
%TO.C,J2*%
X134874000Y-115570000D02*
X134874000Y-110490000D01*
X142494000Y-115570000D02*
X134874000Y-115570000D01*
X134874000Y-110490000D02*
X142494000Y-110490000D01*
X142494000Y-110490000D02*
X142494000Y-115570000D01*
D11*
%TO.C,JP3*%
X132215000Y-113326000D02*
X132215000Y-113926000D01*
X131565000Y-114626000D02*
X128765000Y-114626000D01*
X128765000Y-112626000D02*
X131565000Y-112626000D01*
X128115000Y-113926000D02*
X128115000Y-113326000D01*
X131515000Y-114626000D02*
G75*
G03*
X132215000Y-113926000I1J699999D01*
G01*
X132215000Y-113326000D02*
G75*
G03*
X131515000Y-112626000I-699999J1D01*
G01*
X128115000Y-113926000D02*
G75*
G03*
X128815000Y-114626000I700000J0D01*
G01*
X128815000Y-112626000D02*
G75*
G03*
X128115000Y-113326000I0J-700000D01*
G01*
%TD*%
D12*
%TO.C,J3*%
X141478000Y-99314000D03*
X141478000Y-101854000D03*
X138938000Y-99314000D03*
X138938000Y-101854000D03*
X136398000Y-99314000D03*
X136398000Y-101854000D03*
X133858000Y-99314000D03*
X133858000Y-101854000D03*
X131318000Y-99314000D03*
X131318000Y-101854000D03*
%TD*%
%TO.C,J1*%
X126492000Y-99314000D03*
X126492000Y-101854000D03*
X123952000Y-99314000D03*
X123952000Y-101854000D03*
%TD*%
M02*
