M48
; DRILL file {KiCad 7.0.7-7.0.7~ubuntu23.04.1} date Thu Sep 21 08:09:45 2023
; FORMAT={3:3/ absolute / metric / suppress leading zeros}
; #@! TF.CreationDate,2023-09-21T08:09:45+00:00
; #@! TF.GenerationSoftware,Kicad,Pcbnew,7.0.7-7.0.7~ubuntu23.04.1
; #@! TF.FileFunction,Plated,1,2,PTH
FMAT,2
METRIC,TZ
; #@! TA.AperFunction,Plated,PTH,ViaDrill
T1C0.400
; #@! TA.AperFunction,Plated,PTH,ComponentDrill
T2C0.889
; #@! TA.AperFunction,Plated,PTH,ComponentDrill
T3C3.000
%
G90
G05
T1
X127254Y-112776
X127254Y-113792
X127254Y-114808
X128071Y-111100
X129286Y-110490
X131800Y-112400
X133350Y-106426
X134366Y-106426
X135382Y-106426
X136398Y-106426
X138712Y-107600
T2
X123952Y-99314
X123952Y-101854
X126492Y-99314
X126492Y-101854
X131318Y-99314
X131318Y-101854
X133858Y-99314
X133858Y-101854
X136144Y-111760
X136144Y-114300
X136398Y-99314
X136398Y-101854
X138684Y-111760
X138684Y-114300
X138938Y-99314
X138938Y-101854
X141224Y-111760
X141224Y-114300
X141478Y-99314
X141478Y-101854
T3
X116840Y-101600
X116840Y-111760
X147320Y-101600
X147320Y-111760
T0
M30
