%TF.GenerationSoftware,KiCad,Pcbnew,6.0.11+dfsg-1~bpo11+1*%
%TF.CreationDate,2023-07-05T00:21:01+00:00*%
%TF.ProjectId,ALTIMET02,414c5449-4d45-4543-9032-2e6b69636164,rev?*%
%TF.SameCoordinates,Original*%
%TF.FileFunction,Legend,Bot*%
%TF.FilePolarity,Positive*%
%FSLAX46Y46*%
G04 Gerber Fmt 4.6, Leading zero omitted, Abs format (unit mm)*
G04 Created by KiCad (PCBNEW 6.0.11+dfsg-1~bpo11+1) date 2023-07-05 00:21:01*
%MOMM*%
%LPD*%
G01*
G04 APERTURE LIST*
%ADD10C,0.150000*%
%ADD11C,0.254000*%
%ADD12C,0.120000*%
G04 APERTURE END LIST*
D10*
X134251428Y-115931904D02*
X134251428Y-115131904D01*
X133908571Y-115208095D02*
X133870476Y-115170000D01*
X133794285Y-115131904D01*
X133603809Y-115131904D01*
X133527619Y-115170000D01*
X133489523Y-115208095D01*
X133451428Y-115284285D01*
X133451428Y-115360476D01*
X133489523Y-115474761D01*
X133946666Y-115931904D01*
X133451428Y-115931904D01*
X132651428Y-115855714D02*
X132689523Y-115893809D01*
X132803809Y-115931904D01*
X132880000Y-115931904D01*
X132994285Y-115893809D01*
X133070476Y-115817619D01*
X133108571Y-115741428D01*
X133146666Y-115589047D01*
X133146666Y-115474761D01*
X133108571Y-115322380D01*
X133070476Y-115246190D01*
X132994285Y-115170000D01*
X132880000Y-115131904D01*
X132803809Y-115131904D01*
X132689523Y-115170000D01*
X132651428Y-115208095D01*
X131737142Y-115093809D02*
X132422857Y-116122380D01*
X131508571Y-115893809D02*
X131394285Y-115931904D01*
X131203809Y-115931904D01*
X131127619Y-115893809D01*
X131089523Y-115855714D01*
X131051428Y-115779523D01*
X131051428Y-115703333D01*
X131089523Y-115627142D01*
X131127619Y-115589047D01*
X131203809Y-115550952D01*
X131356190Y-115512857D01*
X131432380Y-115474761D01*
X131470476Y-115436666D01*
X131508571Y-115360476D01*
X131508571Y-115284285D01*
X131470476Y-115208095D01*
X131432380Y-115170000D01*
X131356190Y-115131904D01*
X131165714Y-115131904D01*
X131051428Y-115170000D01*
X130708571Y-115931904D02*
X130708571Y-115131904D01*
X130403809Y-115131904D01*
X130327619Y-115170000D01*
X130289523Y-115208095D01*
X130251428Y-115284285D01*
X130251428Y-115398571D01*
X130289523Y-115474761D01*
X130327619Y-115512857D01*
X130403809Y-115550952D01*
X130708571Y-115550952D01*
X129908571Y-115931904D02*
X129908571Y-115131904D01*
%TO.C,R1*%
X141136666Y-104846380D02*
X141470000Y-104370190D01*
X141708095Y-104846380D02*
X141708095Y-103846380D01*
X141327142Y-103846380D01*
X141231904Y-103894000D01*
X141184285Y-103941619D01*
X141136666Y-104036857D01*
X141136666Y-104179714D01*
X141184285Y-104274952D01*
X141231904Y-104322571D01*
X141327142Y-104370190D01*
X141708095Y-104370190D01*
X140184285Y-104846380D02*
X140755714Y-104846380D01*
X140470000Y-104846380D02*
X140470000Y-103846380D01*
X140565238Y-103989238D01*
X140660476Y-104084476D01*
X140755714Y-104132095D01*
%TO.C,C2*%
X135993142Y-106005333D02*
X136040761Y-105957714D01*
X136088380Y-105814857D01*
X136088380Y-105719619D01*
X136040761Y-105576761D01*
X135945523Y-105481523D01*
X135850285Y-105433904D01*
X135659809Y-105386285D01*
X135516952Y-105386285D01*
X135326476Y-105433904D01*
X135231238Y-105481523D01*
X135136000Y-105576761D01*
X135088380Y-105719619D01*
X135088380Y-105814857D01*
X135136000Y-105957714D01*
X135183619Y-106005333D01*
X135183619Y-106386285D02*
X135136000Y-106433904D01*
X135088380Y-106529142D01*
X135088380Y-106767238D01*
X135136000Y-106862476D01*
X135183619Y-106910095D01*
X135278857Y-106957714D01*
X135374095Y-106957714D01*
X135516952Y-106910095D01*
X136088380Y-106338666D01*
X136088380Y-106957714D01*
%TO.C,D1*%
X141200095Y-110910380D02*
X141200095Y-109910380D01*
X140962000Y-109910380D01*
X140819142Y-109958000D01*
X140723904Y-110053238D01*
X140676285Y-110148476D01*
X140628666Y-110338952D01*
X140628666Y-110481809D01*
X140676285Y-110672285D01*
X140723904Y-110767523D01*
X140819142Y-110862761D01*
X140962000Y-110910380D01*
X141200095Y-110910380D01*
X139676285Y-110910380D02*
X140247714Y-110910380D01*
X139962000Y-110910380D02*
X139962000Y-109910380D01*
X140057238Y-110053238D01*
X140152476Y-110148476D01*
X140247714Y-110196095D01*
D11*
%TO.C,IC1*%
X126812523Y-108234238D02*
X125542523Y-108234238D01*
X126691571Y-109564714D02*
X126752047Y-109504238D01*
X126812523Y-109322809D01*
X126812523Y-109201857D01*
X126752047Y-109020428D01*
X126631095Y-108899476D01*
X126510142Y-108839000D01*
X126268238Y-108778523D01*
X126086809Y-108778523D01*
X125844904Y-108839000D01*
X125723952Y-108899476D01*
X125603000Y-109020428D01*
X125542523Y-109201857D01*
X125542523Y-109322809D01*
X125603000Y-109504238D01*
X125663476Y-109564714D01*
X126812523Y-110774238D02*
X126812523Y-110048523D01*
X126812523Y-110411380D02*
X125542523Y-110411380D01*
X125723952Y-110290428D01*
X125844904Y-110169476D01*
X125905380Y-110048523D01*
D10*
%TO.C,R2*%
X131992666Y-104846380D02*
X132326000Y-104370190D01*
X132564095Y-104846380D02*
X132564095Y-103846380D01*
X132183142Y-103846380D01*
X132087904Y-103894000D01*
X132040285Y-103941619D01*
X131992666Y-104036857D01*
X131992666Y-104179714D01*
X132040285Y-104274952D01*
X132087904Y-104322571D01*
X132183142Y-104370190D01*
X132564095Y-104370190D01*
X131611714Y-103941619D02*
X131564095Y-103894000D01*
X131468857Y-103846380D01*
X131230761Y-103846380D01*
X131135523Y-103894000D01*
X131087904Y-103941619D01*
X131040285Y-104036857D01*
X131040285Y-104132095D01*
X131087904Y-104274952D01*
X131659333Y-104846380D01*
X131040285Y-104846380D01*
%TO.C,C1*%
X133707142Y-106005333D02*
X133754761Y-105957714D01*
X133802380Y-105814857D01*
X133802380Y-105719619D01*
X133754761Y-105576761D01*
X133659523Y-105481523D01*
X133564285Y-105433904D01*
X133373809Y-105386285D01*
X133230952Y-105386285D01*
X133040476Y-105433904D01*
X132945238Y-105481523D01*
X132850000Y-105576761D01*
X132802380Y-105719619D01*
X132802380Y-105814857D01*
X132850000Y-105957714D01*
X132897619Y-106005333D01*
X133802380Y-106957714D02*
X133802380Y-106386285D01*
X133802380Y-106672000D02*
X132802380Y-106672000D01*
X132945238Y-106576761D01*
X133040476Y-106481523D01*
X133088095Y-106386285D01*
%TO.C,JP1*%
X134588285Y-115260380D02*
X135159714Y-115260380D01*
X134874000Y-115260380D02*
X134874000Y-114260380D01*
X134969238Y-114403238D01*
X135064476Y-114498476D01*
X135159714Y-114546095D01*
X129365333Y-114260380D02*
X128746285Y-114260380D01*
X129079619Y-114641333D01*
X128936761Y-114641333D01*
X128841523Y-114688952D01*
X128793904Y-114736571D01*
X128746285Y-114831809D01*
X128746285Y-115069904D01*
X128793904Y-115165142D01*
X128841523Y-115212761D01*
X128936761Y-115260380D01*
X129222476Y-115260380D01*
X129317714Y-115212761D01*
X129365333Y-115165142D01*
D12*
%TO.C,R1*%
X138202936Y-105129000D02*
X138657064Y-105129000D01*
X138202936Y-103659000D02*
X138657064Y-103659000D01*
%TO.C,C2*%
X136371000Y-109801252D02*
X136371000Y-109278748D01*
X134901000Y-109801252D02*
X134901000Y-109278748D01*
%TO.C,D1*%
X137912000Y-109458000D02*
X137912000Y-107458000D01*
X137912000Y-107458000D02*
X142212000Y-107458000D01*
X142212000Y-109458000D02*
X137912000Y-109458000D01*
D11*
%TO.C,IC1*%
X131890000Y-110974000D02*
X131890000Y-107974000D01*
X127190000Y-110974000D02*
X127190000Y-107974000D01*
X131882000Y-111506000D02*
G75*
G03*
X131882000Y-111506000I-45000J0D01*
G01*
D12*
%TO.C,R2*%
X134593064Y-105129000D02*
X134138936Y-105129000D01*
X134593064Y-103659000D02*
X134138936Y-103659000D01*
%TO.C,C1*%
X134085000Y-109801252D02*
X134085000Y-109278748D01*
X132615000Y-109801252D02*
X132615000Y-109278748D01*
%TO.C,JP1*%
X134130000Y-113838000D02*
X134130000Y-113238000D01*
X130680000Y-114538000D02*
X133480000Y-114538000D01*
X130030000Y-113238000D02*
X130030000Y-113838000D01*
X133480000Y-112538000D02*
X130680000Y-112538000D01*
X134130000Y-113238000D02*
G75*
G03*
X133430000Y-112538000I-699999J1D01*
G01*
X130030000Y-113838000D02*
G75*
G03*
X130730000Y-114538000I700000J0D01*
G01*
X130730000Y-112538000D02*
G75*
G03*
X130030000Y-113238000I0J-700000D01*
G01*
X133430000Y-114538000D02*
G75*
G03*
X134130000Y-113838000I1J699999D01*
G01*
%TD*%
M02*
