%TF.GenerationSoftware,KiCad,Pcbnew,7.0.5.1-1-g8f565ef7f0-dirty-deb11*%
%TF.CreationDate,2023-07-05T15:01:07+00:00*%
%TF.ProjectId,ALTIMET02,414c5449-4d45-4543-9032-2e6b69636164,rev?*%
%TF.SameCoordinates,Original*%
%TF.FileFunction,Legend,Top*%
%TF.FilePolarity,Positive*%
%FSLAX46Y46*%
G04 Gerber Fmt 4.6, Leading zero omitted, Abs format (unit mm)*
G04 Created by KiCad (PCBNEW 7.0.5.1-1-g8f565ef7f0-dirty-deb11) date 2023-07-05 15:01:07*
%MOMM*%
%LPD*%
G01*
G04 APERTURE LIST*
%ADD10C,0.150000*%
%ADD11C,0.120000*%
%ADD12R,1.524000X1.524000*%
G04 APERTURE END LIST*
D10*
X127552476Y-97136390D02*
X127476286Y-97098295D01*
X127476286Y-97098295D02*
X127362000Y-97098295D01*
X127362000Y-97098295D02*
X127247714Y-97136390D01*
X127247714Y-97136390D02*
X127171524Y-97212580D01*
X127171524Y-97212580D02*
X127133429Y-97288771D01*
X127133429Y-97288771D02*
X127095333Y-97441152D01*
X127095333Y-97441152D02*
X127095333Y-97555438D01*
X127095333Y-97555438D02*
X127133429Y-97707819D01*
X127133429Y-97707819D02*
X127171524Y-97784009D01*
X127171524Y-97784009D02*
X127247714Y-97860200D01*
X127247714Y-97860200D02*
X127362000Y-97898295D01*
X127362000Y-97898295D02*
X127438191Y-97898295D01*
X127438191Y-97898295D02*
X127552476Y-97860200D01*
X127552476Y-97860200D02*
X127590572Y-97822104D01*
X127590572Y-97822104D02*
X127590572Y-97555438D01*
X127590572Y-97555438D02*
X127438191Y-97555438D01*
X127933429Y-97898295D02*
X127933429Y-97098295D01*
X127933429Y-97098295D02*
X128390572Y-97898295D01*
X128390572Y-97898295D02*
X128390572Y-97098295D01*
X124536286Y-97898295D02*
X124536286Y-97098295D01*
X124536286Y-97098295D02*
X124802952Y-97669723D01*
X124802952Y-97669723D02*
X125069619Y-97098295D01*
X125069619Y-97098295D02*
X125069619Y-97898295D01*
X125602953Y-97098295D02*
X125755334Y-97098295D01*
X125755334Y-97098295D02*
X125831524Y-97136390D01*
X125831524Y-97136390D02*
X125907715Y-97212580D01*
X125907715Y-97212580D02*
X125945810Y-97364961D01*
X125945810Y-97364961D02*
X125945810Y-97631628D01*
X125945810Y-97631628D02*
X125907715Y-97784009D01*
X125907715Y-97784009D02*
X125831524Y-97860200D01*
X125831524Y-97860200D02*
X125755334Y-97898295D01*
X125755334Y-97898295D02*
X125602953Y-97898295D01*
X125602953Y-97898295D02*
X125526762Y-97860200D01*
X125526762Y-97860200D02*
X125450572Y-97784009D01*
X125450572Y-97784009D02*
X125412476Y-97631628D01*
X125412476Y-97631628D02*
X125412476Y-97364961D01*
X125412476Y-97364961D02*
X125450572Y-97212580D01*
X125450572Y-97212580D02*
X125526762Y-97136390D01*
X125526762Y-97136390D02*
X125602953Y-97098295D01*
X134436200Y-105619428D02*
X134474295Y-105505142D01*
X134474295Y-105505142D02*
X134474295Y-105314666D01*
X134474295Y-105314666D02*
X134436200Y-105238475D01*
X134436200Y-105238475D02*
X134398104Y-105200380D01*
X134398104Y-105200380D02*
X134321914Y-105162285D01*
X134321914Y-105162285D02*
X134245723Y-105162285D01*
X134245723Y-105162285D02*
X134169533Y-105200380D01*
X134169533Y-105200380D02*
X134131438Y-105238475D01*
X134131438Y-105238475D02*
X134093342Y-105314666D01*
X134093342Y-105314666D02*
X134055247Y-105467047D01*
X134055247Y-105467047D02*
X134017152Y-105543237D01*
X134017152Y-105543237D02*
X133979057Y-105581332D01*
X133979057Y-105581332D02*
X133902866Y-105619428D01*
X133902866Y-105619428D02*
X133826676Y-105619428D01*
X133826676Y-105619428D02*
X133750485Y-105581332D01*
X133750485Y-105581332D02*
X133712390Y-105543237D01*
X133712390Y-105543237D02*
X133674295Y-105467047D01*
X133674295Y-105467047D02*
X133674295Y-105276570D01*
X133674295Y-105276570D02*
X133712390Y-105162285D01*
X134474295Y-104819427D02*
X133674295Y-104819427D01*
X133674295Y-104819427D02*
X133674295Y-104628951D01*
X133674295Y-104628951D02*
X133712390Y-104514665D01*
X133712390Y-104514665D02*
X133788580Y-104438475D01*
X133788580Y-104438475D02*
X133864771Y-104400380D01*
X133864771Y-104400380D02*
X134017152Y-104362284D01*
X134017152Y-104362284D02*
X134131438Y-104362284D01*
X134131438Y-104362284D02*
X134283819Y-104400380D01*
X134283819Y-104400380D02*
X134360009Y-104438475D01*
X134360009Y-104438475D02*
X134436200Y-104514665D01*
X134436200Y-104514665D02*
X134474295Y-104628951D01*
X134474295Y-104628951D02*
X134474295Y-104819427D01*
X134245723Y-104057523D02*
X134245723Y-103676570D01*
X134474295Y-104133713D02*
X133674295Y-103867046D01*
X133674295Y-103867046D02*
X134474295Y-103600380D01*
X127628667Y-104172104D02*
X127590571Y-104210200D01*
X127590571Y-104210200D02*
X127476286Y-104248295D01*
X127476286Y-104248295D02*
X127400095Y-104248295D01*
X127400095Y-104248295D02*
X127285809Y-104210200D01*
X127285809Y-104210200D02*
X127209619Y-104134009D01*
X127209619Y-104134009D02*
X127171524Y-104057819D01*
X127171524Y-104057819D02*
X127133428Y-103905438D01*
X127133428Y-103905438D02*
X127133428Y-103791152D01*
X127133428Y-103791152D02*
X127171524Y-103638771D01*
X127171524Y-103638771D02*
X127209619Y-103562580D01*
X127209619Y-103562580D02*
X127285809Y-103486390D01*
X127285809Y-103486390D02*
X127400095Y-103448295D01*
X127400095Y-103448295D02*
X127476286Y-103448295D01*
X127476286Y-103448295D02*
X127590571Y-103486390D01*
X127590571Y-103486390D02*
X127628667Y-103524485D01*
X127933428Y-104210200D02*
X128047714Y-104248295D01*
X128047714Y-104248295D02*
X128238190Y-104248295D01*
X128238190Y-104248295D02*
X128314381Y-104210200D01*
X128314381Y-104210200D02*
X128352476Y-104172104D01*
X128352476Y-104172104D02*
X128390571Y-104095914D01*
X128390571Y-104095914D02*
X128390571Y-104019723D01*
X128390571Y-104019723D02*
X128352476Y-103943533D01*
X128352476Y-103943533D02*
X128314381Y-103905438D01*
X128314381Y-103905438D02*
X128238190Y-103867342D01*
X128238190Y-103867342D02*
X128085809Y-103829247D01*
X128085809Y-103829247D02*
X128009619Y-103791152D01*
X128009619Y-103791152D02*
X127971524Y-103753057D01*
X127971524Y-103753057D02*
X127933428Y-103676866D01*
X127933428Y-103676866D02*
X127933428Y-103600676D01*
X127933428Y-103600676D02*
X127971524Y-103524485D01*
X127971524Y-103524485D02*
X128009619Y-103486390D01*
X128009619Y-103486390D02*
X128085809Y-103448295D01*
X128085809Y-103448295D02*
X128276286Y-103448295D01*
X128276286Y-103448295D02*
X128390571Y-103486390D01*
X141078390Y-105257523D02*
X141040295Y-105333713D01*
X141040295Y-105333713D02*
X141040295Y-105447999D01*
X141040295Y-105447999D02*
X141078390Y-105562285D01*
X141078390Y-105562285D02*
X141154580Y-105638475D01*
X141154580Y-105638475D02*
X141230771Y-105676570D01*
X141230771Y-105676570D02*
X141383152Y-105714666D01*
X141383152Y-105714666D02*
X141497438Y-105714666D01*
X141497438Y-105714666D02*
X141649819Y-105676570D01*
X141649819Y-105676570D02*
X141726009Y-105638475D01*
X141726009Y-105638475D02*
X141802200Y-105562285D01*
X141802200Y-105562285D02*
X141840295Y-105447999D01*
X141840295Y-105447999D02*
X141840295Y-105371808D01*
X141840295Y-105371808D02*
X141802200Y-105257523D01*
X141802200Y-105257523D02*
X141764104Y-105219427D01*
X141764104Y-105219427D02*
X141497438Y-105219427D01*
X141497438Y-105219427D02*
X141497438Y-105371808D01*
X141840295Y-104876570D02*
X141040295Y-104876570D01*
X141040295Y-104876570D02*
X141840295Y-104419427D01*
X141840295Y-104419427D02*
X141040295Y-104419427D01*
X141840295Y-104038475D02*
X141040295Y-104038475D01*
X141040295Y-104038475D02*
X141040295Y-103847999D01*
X141040295Y-103847999D02*
X141078390Y-103733713D01*
X141078390Y-103733713D02*
X141154580Y-103657523D01*
X141154580Y-103657523D02*
X141230771Y-103619428D01*
X141230771Y-103619428D02*
X141383152Y-103581332D01*
X141383152Y-103581332D02*
X141497438Y-103581332D01*
X141497438Y-103581332D02*
X141649819Y-103619428D01*
X141649819Y-103619428D02*
X141726009Y-103657523D01*
X141726009Y-103657523D02*
X141802200Y-103733713D01*
X141802200Y-103733713D02*
X141840295Y-103847999D01*
X141840295Y-103847999D02*
X141840295Y-104038475D01*
X139262200Y-105600381D02*
X139300295Y-105486095D01*
X139300295Y-105486095D02*
X139300295Y-105295619D01*
X139300295Y-105295619D02*
X139262200Y-105219428D01*
X139262200Y-105219428D02*
X139224104Y-105181333D01*
X139224104Y-105181333D02*
X139147914Y-105143238D01*
X139147914Y-105143238D02*
X139071723Y-105143238D01*
X139071723Y-105143238D02*
X138995533Y-105181333D01*
X138995533Y-105181333D02*
X138957438Y-105219428D01*
X138957438Y-105219428D02*
X138919342Y-105295619D01*
X138919342Y-105295619D02*
X138881247Y-105448000D01*
X138881247Y-105448000D02*
X138843152Y-105524190D01*
X138843152Y-105524190D02*
X138805057Y-105562285D01*
X138805057Y-105562285D02*
X138728866Y-105600381D01*
X138728866Y-105600381D02*
X138652676Y-105600381D01*
X138652676Y-105600381D02*
X138576485Y-105562285D01*
X138576485Y-105562285D02*
X138538390Y-105524190D01*
X138538390Y-105524190D02*
X138500295Y-105448000D01*
X138500295Y-105448000D02*
X138500295Y-105257523D01*
X138500295Y-105257523D02*
X138538390Y-105143238D01*
X139224104Y-104343237D02*
X139262200Y-104381333D01*
X139262200Y-104381333D02*
X139300295Y-104495618D01*
X139300295Y-104495618D02*
X139300295Y-104571809D01*
X139300295Y-104571809D02*
X139262200Y-104686095D01*
X139262200Y-104686095D02*
X139186009Y-104762285D01*
X139186009Y-104762285D02*
X139109819Y-104800380D01*
X139109819Y-104800380D02*
X138957438Y-104838476D01*
X138957438Y-104838476D02*
X138843152Y-104838476D01*
X138843152Y-104838476D02*
X138690771Y-104800380D01*
X138690771Y-104800380D02*
X138614580Y-104762285D01*
X138614580Y-104762285D02*
X138538390Y-104686095D01*
X138538390Y-104686095D02*
X138500295Y-104571809D01*
X138500295Y-104571809D02*
X138500295Y-104495618D01*
X138500295Y-104495618D02*
X138538390Y-104381333D01*
X138538390Y-104381333D02*
X138576485Y-104343237D01*
X139300295Y-103619428D02*
X139300295Y-104000380D01*
X139300295Y-104000380D02*
X138500295Y-104000380D01*
X136214295Y-105714666D02*
X137014295Y-105447999D01*
X137014295Y-105447999D02*
X136214295Y-105181333D01*
X137014295Y-104914666D02*
X136214295Y-104914666D01*
X136214295Y-104914666D02*
X136214295Y-104724190D01*
X136214295Y-104724190D02*
X136252390Y-104609904D01*
X136252390Y-104609904D02*
X136328580Y-104533714D01*
X136328580Y-104533714D02*
X136404771Y-104495619D01*
X136404771Y-104495619D02*
X136557152Y-104457523D01*
X136557152Y-104457523D02*
X136671438Y-104457523D01*
X136671438Y-104457523D02*
X136823819Y-104495619D01*
X136823819Y-104495619D02*
X136900009Y-104533714D01*
X136900009Y-104533714D02*
X136976200Y-104609904D01*
X136976200Y-104609904D02*
X137014295Y-104724190D01*
X137014295Y-104724190D02*
X137014295Y-104914666D01*
X137014295Y-104114666D02*
X136214295Y-104114666D01*
X136214295Y-104114666D02*
X136214295Y-103924190D01*
X136214295Y-103924190D02*
X136252390Y-103809904D01*
X136252390Y-103809904D02*
X136328580Y-103733714D01*
X136328580Y-103733714D02*
X136404771Y-103695619D01*
X136404771Y-103695619D02*
X136557152Y-103657523D01*
X136557152Y-103657523D02*
X136671438Y-103657523D01*
X136671438Y-103657523D02*
X136823819Y-103695619D01*
X136823819Y-103695619D02*
X136900009Y-103733714D01*
X136900009Y-103733714D02*
X136976200Y-103809904D01*
X136976200Y-103809904D02*
X137014295Y-103924190D01*
X137014295Y-103924190D02*
X137014295Y-104114666D01*
X136477810Y-108912819D02*
X136477810Y-107912819D01*
X136477810Y-107912819D02*
X136811143Y-108627104D01*
X136811143Y-108627104D02*
X137144476Y-107912819D01*
X137144476Y-107912819D02*
X137144476Y-108912819D01*
X137573048Y-108627104D02*
X138049238Y-108627104D01*
X137477810Y-108912819D02*
X137811143Y-107912819D01*
X137811143Y-107912819D02*
X138144476Y-108912819D01*
X138382572Y-107912819D02*
X139049238Y-108912819D01*
X139049238Y-107912819D02*
X138382572Y-108912819D01*
X140096858Y-107912819D02*
X140715905Y-107912819D01*
X140715905Y-107912819D02*
X140382572Y-108293771D01*
X140382572Y-108293771D02*
X140525429Y-108293771D01*
X140525429Y-108293771D02*
X140620667Y-108341390D01*
X140620667Y-108341390D02*
X140668286Y-108389009D01*
X140668286Y-108389009D02*
X140715905Y-108484247D01*
X140715905Y-108484247D02*
X140715905Y-108722342D01*
X140715905Y-108722342D02*
X140668286Y-108817580D01*
X140668286Y-108817580D02*
X140620667Y-108865200D01*
X140620667Y-108865200D02*
X140525429Y-108912819D01*
X140525429Y-108912819D02*
X140239715Y-108912819D01*
X140239715Y-108912819D02*
X140144477Y-108865200D01*
X140144477Y-108865200D02*
X140096858Y-108817580D01*
X141144477Y-108817580D02*
X141192096Y-108865200D01*
X141192096Y-108865200D02*
X141144477Y-108912819D01*
X141144477Y-108912819D02*
X141096858Y-108865200D01*
X141096858Y-108865200D02*
X141144477Y-108817580D01*
X141144477Y-108817580D02*
X141144477Y-108912819D01*
X141525429Y-107912819D02*
X142144476Y-107912819D01*
X142144476Y-107912819D02*
X141811143Y-108293771D01*
X141811143Y-108293771D02*
X141954000Y-108293771D01*
X141954000Y-108293771D02*
X142049238Y-108341390D01*
X142049238Y-108341390D02*
X142096857Y-108389009D01*
X142096857Y-108389009D02*
X142144476Y-108484247D01*
X142144476Y-108484247D02*
X142144476Y-108722342D01*
X142144476Y-108722342D02*
X142096857Y-108817580D01*
X142096857Y-108817580D02*
X142049238Y-108865200D01*
X142049238Y-108865200D02*
X141954000Y-108912819D01*
X141954000Y-108912819D02*
X141668286Y-108912819D01*
X141668286Y-108912819D02*
X141573048Y-108865200D01*
X141573048Y-108865200D02*
X141525429Y-108817580D01*
X142430191Y-107912819D02*
X142763524Y-108912819D01*
X142763524Y-108912819D02*
X143096857Y-107912819D01*
X143430191Y-108817580D02*
X143477810Y-108865200D01*
X143477810Y-108865200D02*
X143430191Y-108912819D01*
X143430191Y-108912819D02*
X143382572Y-108865200D01*
X143382572Y-108865200D02*
X143430191Y-108817580D01*
X143430191Y-108817580D02*
X143430191Y-108912819D01*
X143430191Y-108531866D02*
X143382572Y-107960438D01*
X143382572Y-107960438D02*
X143430191Y-107912819D01*
X143430191Y-107912819D02*
X143477810Y-107960438D01*
X143477810Y-107960438D02*
X143430191Y-108531866D01*
X143430191Y-108531866D02*
X143430191Y-107912819D01*
X129832381Y-110462295D02*
X129832381Y-109662295D01*
X130175237Y-109738485D02*
X130213333Y-109700390D01*
X130213333Y-109700390D02*
X130289523Y-109662295D01*
X130289523Y-109662295D02*
X130479999Y-109662295D01*
X130479999Y-109662295D02*
X130556190Y-109700390D01*
X130556190Y-109700390D02*
X130594285Y-109738485D01*
X130594285Y-109738485D02*
X130632380Y-109814676D01*
X130632380Y-109814676D02*
X130632380Y-109890866D01*
X130632380Y-109890866D02*
X130594285Y-110005152D01*
X130594285Y-110005152D02*
X130137142Y-110462295D01*
X130137142Y-110462295D02*
X130632380Y-110462295D01*
X131432381Y-110386104D02*
X131394285Y-110424200D01*
X131394285Y-110424200D02*
X131280000Y-110462295D01*
X131280000Y-110462295D02*
X131203809Y-110462295D01*
X131203809Y-110462295D02*
X131089523Y-110424200D01*
X131089523Y-110424200D02*
X131013333Y-110348009D01*
X131013333Y-110348009D02*
X130975238Y-110271819D01*
X130975238Y-110271819D02*
X130937142Y-110119438D01*
X130937142Y-110119438D02*
X130937142Y-110005152D01*
X130937142Y-110005152D02*
X130975238Y-109852771D01*
X130975238Y-109852771D02*
X131013333Y-109776580D01*
X131013333Y-109776580D02*
X131089523Y-109700390D01*
X131089523Y-109700390D02*
X131203809Y-109662295D01*
X131203809Y-109662295D02*
X131280000Y-109662295D01*
X131280000Y-109662295D02*
X131394285Y-109700390D01*
X131394285Y-109700390D02*
X131432381Y-109738485D01*
X132727619Y-110462295D02*
X132727619Y-110043247D01*
X132727619Y-110043247D02*
X132689524Y-109967057D01*
X132689524Y-109967057D02*
X132613333Y-109928961D01*
X132613333Y-109928961D02*
X132460952Y-109928961D01*
X132460952Y-109928961D02*
X132384762Y-109967057D01*
X132727619Y-110424200D02*
X132651428Y-110462295D01*
X132651428Y-110462295D02*
X132460952Y-110462295D01*
X132460952Y-110462295D02*
X132384762Y-110424200D01*
X132384762Y-110424200D02*
X132346666Y-110348009D01*
X132346666Y-110348009D02*
X132346666Y-110271819D01*
X132346666Y-110271819D02*
X132384762Y-110195628D01*
X132384762Y-110195628D02*
X132460952Y-110157533D01*
X132460952Y-110157533D02*
X132651428Y-110157533D01*
X132651428Y-110157533D02*
X132727619Y-110119438D01*
X133451429Y-110462295D02*
X133451429Y-109662295D01*
X133451429Y-110424200D02*
X133375238Y-110462295D01*
X133375238Y-110462295D02*
X133222857Y-110462295D01*
X133222857Y-110462295D02*
X133146667Y-110424200D01*
X133146667Y-110424200D02*
X133108572Y-110386104D01*
X133108572Y-110386104D02*
X133070476Y-110309914D01*
X133070476Y-110309914D02*
X133070476Y-110081342D01*
X133070476Y-110081342D02*
X133108572Y-110005152D01*
X133108572Y-110005152D02*
X133146667Y-109967057D01*
X133146667Y-109967057D02*
X133222857Y-109928961D01*
X133222857Y-109928961D02*
X133375238Y-109928961D01*
X133375238Y-109928961D02*
X133451429Y-109967057D01*
X133832382Y-110462295D02*
X133832382Y-109928961D01*
X133832382Y-110081342D02*
X133870477Y-110005152D01*
X133870477Y-110005152D02*
X133908572Y-109967057D01*
X133908572Y-109967057D02*
X133984763Y-109928961D01*
X133984763Y-109928961D02*
X134060953Y-109928961D01*
X134327620Y-110386104D02*
X134365715Y-110424200D01*
X134365715Y-110424200D02*
X134327620Y-110462295D01*
X134327620Y-110462295D02*
X134289524Y-110424200D01*
X134289524Y-110424200D02*
X134327620Y-110386104D01*
X134327620Y-110386104D02*
X134327620Y-110462295D01*
X129070476Y-110950295D02*
X129146666Y-110950295D01*
X129146666Y-110950295D02*
X129222857Y-110988390D01*
X129222857Y-110988390D02*
X129260952Y-111026485D01*
X129260952Y-111026485D02*
X129299047Y-111102676D01*
X129299047Y-111102676D02*
X129337142Y-111255057D01*
X129337142Y-111255057D02*
X129337142Y-111445533D01*
X129337142Y-111445533D02*
X129299047Y-111597914D01*
X129299047Y-111597914D02*
X129260952Y-111674104D01*
X129260952Y-111674104D02*
X129222857Y-111712200D01*
X129222857Y-111712200D02*
X129146666Y-111750295D01*
X129146666Y-111750295D02*
X129070476Y-111750295D01*
X129070476Y-111750295D02*
X128994285Y-111712200D01*
X128994285Y-111712200D02*
X128956190Y-111674104D01*
X128956190Y-111674104D02*
X128918095Y-111597914D01*
X128918095Y-111597914D02*
X128879999Y-111445533D01*
X128879999Y-111445533D02*
X128879999Y-111255057D01*
X128879999Y-111255057D02*
X128918095Y-111102676D01*
X128918095Y-111102676D02*
X128956190Y-111026485D01*
X128956190Y-111026485D02*
X128994285Y-110988390D01*
X128994285Y-110988390D02*
X129070476Y-110950295D01*
X129603809Y-111750295D02*
X130022857Y-111216961D01*
X129603809Y-111216961D02*
X130022857Y-111750295D01*
X130251428Y-110950295D02*
X130784762Y-110950295D01*
X130784762Y-110950295D02*
X130441904Y-111750295D01*
X131013333Y-110950295D02*
X131546667Y-110950295D01*
X131546667Y-110950295D02*
X131203809Y-111750295D01*
X132422857Y-110912200D02*
X131737143Y-111940771D01*
X132841905Y-110950295D02*
X132918095Y-110950295D01*
X132918095Y-110950295D02*
X132994286Y-110988390D01*
X132994286Y-110988390D02*
X133032381Y-111026485D01*
X133032381Y-111026485D02*
X133070476Y-111102676D01*
X133070476Y-111102676D02*
X133108571Y-111255057D01*
X133108571Y-111255057D02*
X133108571Y-111445533D01*
X133108571Y-111445533D02*
X133070476Y-111597914D01*
X133070476Y-111597914D02*
X133032381Y-111674104D01*
X133032381Y-111674104D02*
X132994286Y-111712200D01*
X132994286Y-111712200D02*
X132918095Y-111750295D01*
X132918095Y-111750295D02*
X132841905Y-111750295D01*
X132841905Y-111750295D02*
X132765714Y-111712200D01*
X132765714Y-111712200D02*
X132727619Y-111674104D01*
X132727619Y-111674104D02*
X132689524Y-111597914D01*
X132689524Y-111597914D02*
X132651428Y-111445533D01*
X132651428Y-111445533D02*
X132651428Y-111255057D01*
X132651428Y-111255057D02*
X132689524Y-111102676D01*
X132689524Y-111102676D02*
X132727619Y-111026485D01*
X132727619Y-111026485D02*
X132765714Y-110988390D01*
X132765714Y-110988390D02*
X132841905Y-110950295D01*
X133375238Y-111750295D02*
X133794286Y-111216961D01*
X133375238Y-111216961D02*
X133794286Y-111750295D01*
X134022857Y-110950295D02*
X134556191Y-110950295D01*
X134556191Y-110950295D02*
X134213333Y-111750295D01*
X135203810Y-110950295D02*
X135051429Y-110950295D01*
X135051429Y-110950295D02*
X134975238Y-110988390D01*
X134975238Y-110988390D02*
X134937143Y-111026485D01*
X134937143Y-111026485D02*
X134860953Y-111140771D01*
X134860953Y-111140771D02*
X134822857Y-111293152D01*
X134822857Y-111293152D02*
X134822857Y-111597914D01*
X134822857Y-111597914D02*
X134860953Y-111674104D01*
X134860953Y-111674104D02*
X134899048Y-111712200D01*
X134899048Y-111712200D02*
X134975238Y-111750295D01*
X134975238Y-111750295D02*
X135127619Y-111750295D01*
X135127619Y-111750295D02*
X135203810Y-111712200D01*
X135203810Y-111712200D02*
X135241905Y-111674104D01*
X135241905Y-111674104D02*
X135280000Y-111597914D01*
X135280000Y-111597914D02*
X135280000Y-111407438D01*
X135280000Y-111407438D02*
X135241905Y-111331247D01*
X135241905Y-111331247D02*
X135203810Y-111293152D01*
X135203810Y-111293152D02*
X135127619Y-111255057D01*
X135127619Y-111255057D02*
X134975238Y-111255057D01*
X134975238Y-111255057D02*
X134899048Y-111293152D01*
X134899048Y-111293152D02*
X134860953Y-111331247D01*
X134860953Y-111331247D02*
X134822857Y-111407438D01*
X124745810Y-104172104D02*
X124707714Y-104210200D01*
X124707714Y-104210200D02*
X124593429Y-104248295D01*
X124593429Y-104248295D02*
X124517238Y-104248295D01*
X124517238Y-104248295D02*
X124402952Y-104210200D01*
X124402952Y-104210200D02*
X124326762Y-104134009D01*
X124326762Y-104134009D02*
X124288667Y-104057819D01*
X124288667Y-104057819D02*
X124250571Y-103905438D01*
X124250571Y-103905438D02*
X124250571Y-103791152D01*
X124250571Y-103791152D02*
X124288667Y-103638771D01*
X124288667Y-103638771D02*
X124326762Y-103562580D01*
X124326762Y-103562580D02*
X124402952Y-103486390D01*
X124402952Y-103486390D02*
X124517238Y-103448295D01*
X124517238Y-103448295D02*
X124593429Y-103448295D01*
X124593429Y-103448295D02*
X124707714Y-103486390D01*
X124707714Y-103486390D02*
X124745810Y-103524485D01*
X125469619Y-104248295D02*
X125088667Y-104248295D01*
X125088667Y-104248295D02*
X125088667Y-103448295D01*
X125736286Y-104248295D02*
X125736286Y-103448295D01*
X126193429Y-104248295D02*
X125850571Y-103791152D01*
X126193429Y-103448295D02*
X125736286Y-103905438D01*
X130918390Y-105257523D02*
X130880295Y-105333713D01*
X130880295Y-105333713D02*
X130880295Y-105447999D01*
X130880295Y-105447999D02*
X130918390Y-105562285D01*
X130918390Y-105562285D02*
X130994580Y-105638475D01*
X130994580Y-105638475D02*
X131070771Y-105676570D01*
X131070771Y-105676570D02*
X131223152Y-105714666D01*
X131223152Y-105714666D02*
X131337438Y-105714666D01*
X131337438Y-105714666D02*
X131489819Y-105676570D01*
X131489819Y-105676570D02*
X131566009Y-105638475D01*
X131566009Y-105638475D02*
X131642200Y-105562285D01*
X131642200Y-105562285D02*
X131680295Y-105447999D01*
X131680295Y-105447999D02*
X131680295Y-105371808D01*
X131680295Y-105371808D02*
X131642200Y-105257523D01*
X131642200Y-105257523D02*
X131604104Y-105219427D01*
X131604104Y-105219427D02*
X131337438Y-105219427D01*
X131337438Y-105219427D02*
X131337438Y-105371808D01*
X131680295Y-104876570D02*
X130880295Y-104876570D01*
X130880295Y-104876570D02*
X131680295Y-104419427D01*
X131680295Y-104419427D02*
X130880295Y-104419427D01*
X131680295Y-104038475D02*
X130880295Y-104038475D01*
X130880295Y-104038475D02*
X130880295Y-103847999D01*
X130880295Y-103847999D02*
X130918390Y-103733713D01*
X130918390Y-103733713D02*
X130994580Y-103657523D01*
X130994580Y-103657523D02*
X131070771Y-103619428D01*
X131070771Y-103619428D02*
X131223152Y-103581332D01*
X131223152Y-103581332D02*
X131337438Y-103581332D01*
X131337438Y-103581332D02*
X131489819Y-103619428D01*
X131489819Y-103619428D02*
X131566009Y-103657523D01*
X131566009Y-103657523D02*
X131642200Y-103733713D01*
X131642200Y-103733713D02*
X131680295Y-103847999D01*
X131680295Y-103847999D02*
X131680295Y-104038475D01*
X121174381Y-107017104D02*
X121650571Y-107017104D01*
X121079143Y-107302819D02*
X121412476Y-106302819D01*
X121412476Y-106302819D02*
X121745809Y-107302819D01*
X122555333Y-107302819D02*
X122079143Y-107302819D01*
X122079143Y-107302819D02*
X122079143Y-106302819D01*
X122745810Y-106302819D02*
X123317238Y-106302819D01*
X123031524Y-107302819D02*
X123031524Y-106302819D01*
X123650572Y-107302819D02*
X123650572Y-106302819D01*
X124126762Y-107302819D02*
X124126762Y-106302819D01*
X124126762Y-106302819D02*
X124460095Y-107017104D01*
X124460095Y-107017104D02*
X124793428Y-106302819D01*
X124793428Y-106302819D02*
X124793428Y-107302819D01*
X125269619Y-106779009D02*
X125602952Y-106779009D01*
X125745809Y-107302819D02*
X125269619Y-107302819D01*
X125269619Y-107302819D02*
X125269619Y-106302819D01*
X125269619Y-106302819D02*
X125745809Y-106302819D01*
X126031524Y-106302819D02*
X126602952Y-106302819D01*
X126317238Y-107302819D02*
X126317238Y-106302819D01*
X127126762Y-106302819D02*
X127222000Y-106302819D01*
X127222000Y-106302819D02*
X127317238Y-106350438D01*
X127317238Y-106350438D02*
X127364857Y-106398057D01*
X127364857Y-106398057D02*
X127412476Y-106493295D01*
X127412476Y-106493295D02*
X127460095Y-106683771D01*
X127460095Y-106683771D02*
X127460095Y-106921866D01*
X127460095Y-106921866D02*
X127412476Y-107112342D01*
X127412476Y-107112342D02*
X127364857Y-107207580D01*
X127364857Y-107207580D02*
X127317238Y-107255200D01*
X127317238Y-107255200D02*
X127222000Y-107302819D01*
X127222000Y-107302819D02*
X127126762Y-107302819D01*
X127126762Y-107302819D02*
X127031524Y-107255200D01*
X127031524Y-107255200D02*
X126983905Y-107207580D01*
X126983905Y-107207580D02*
X126936286Y-107112342D01*
X126936286Y-107112342D02*
X126888667Y-106921866D01*
X126888667Y-106921866D02*
X126888667Y-106683771D01*
X126888667Y-106683771D02*
X126936286Y-106493295D01*
X126936286Y-106493295D02*
X126983905Y-106398057D01*
X126983905Y-106398057D02*
X127031524Y-106350438D01*
X127031524Y-106350438D02*
X127126762Y-106302819D01*
X127841048Y-106398057D02*
X127888667Y-106350438D01*
X127888667Y-106350438D02*
X127983905Y-106302819D01*
X127983905Y-106302819D02*
X128222000Y-106302819D01*
X128222000Y-106302819D02*
X128317238Y-106350438D01*
X128317238Y-106350438D02*
X128364857Y-106398057D01*
X128364857Y-106398057D02*
X128412476Y-106493295D01*
X128412476Y-106493295D02*
X128412476Y-106588533D01*
X128412476Y-106588533D02*
X128364857Y-106731390D01*
X128364857Y-106731390D02*
X127793429Y-107302819D01*
X127793429Y-107302819D02*
X128412476Y-107302819D01*
X128793429Y-107017104D02*
X129269619Y-107017104D01*
X128698191Y-107302819D02*
X129031524Y-106302819D01*
X129031524Y-106302819D02*
X129364857Y-107302819D01*
X122483905Y-108912819D02*
X122483905Y-107912819D01*
X122483905Y-107912819D02*
X122817238Y-108627104D01*
X122817238Y-108627104D02*
X123150571Y-107912819D01*
X123150571Y-107912819D02*
X123150571Y-108912819D01*
X124102952Y-108912819D02*
X123626762Y-108912819D01*
X123626762Y-108912819D02*
X123626762Y-107912819D01*
X124388667Y-108627104D02*
X124864857Y-108627104D01*
X124293429Y-108912819D02*
X124626762Y-107912819D01*
X124626762Y-107912819D02*
X124960095Y-108912819D01*
X125626762Y-108389009D02*
X125769619Y-108436628D01*
X125769619Y-108436628D02*
X125817238Y-108484247D01*
X125817238Y-108484247D02*
X125864857Y-108579485D01*
X125864857Y-108579485D02*
X125864857Y-108722342D01*
X125864857Y-108722342D02*
X125817238Y-108817580D01*
X125817238Y-108817580D02*
X125769619Y-108865200D01*
X125769619Y-108865200D02*
X125674381Y-108912819D01*
X125674381Y-108912819D02*
X125293429Y-108912819D01*
X125293429Y-108912819D02*
X125293429Y-107912819D01*
X125293429Y-107912819D02*
X125626762Y-107912819D01*
X125626762Y-107912819D02*
X125722000Y-107960438D01*
X125722000Y-107960438D02*
X125769619Y-108008057D01*
X125769619Y-108008057D02*
X125817238Y-108103295D01*
X125817238Y-108103295D02*
X125817238Y-108198533D01*
X125817238Y-108198533D02*
X125769619Y-108293771D01*
X125769619Y-108293771D02*
X125722000Y-108341390D01*
X125722000Y-108341390D02*
X125626762Y-108389009D01*
X125626762Y-108389009D02*
X125293429Y-108389009D01*
X126293429Y-108817580D02*
X126341048Y-108865200D01*
X126341048Y-108865200D02*
X126293429Y-108912819D01*
X126293429Y-108912819D02*
X126245810Y-108865200D01*
X126245810Y-108865200D02*
X126293429Y-108817580D01*
X126293429Y-108817580D02*
X126293429Y-108912819D01*
X127198190Y-108865200D02*
X127102952Y-108912819D01*
X127102952Y-108912819D02*
X126912476Y-108912819D01*
X126912476Y-108912819D02*
X126817238Y-108865200D01*
X126817238Y-108865200D02*
X126769619Y-108817580D01*
X126769619Y-108817580D02*
X126722000Y-108722342D01*
X126722000Y-108722342D02*
X126722000Y-108436628D01*
X126722000Y-108436628D02*
X126769619Y-108341390D01*
X126769619Y-108341390D02*
X126817238Y-108293771D01*
X126817238Y-108293771D02*
X126912476Y-108246152D01*
X126912476Y-108246152D02*
X127102952Y-108246152D01*
X127102952Y-108246152D02*
X127198190Y-108293771D01*
X127531524Y-108246152D02*
X128055333Y-108246152D01*
X128055333Y-108246152D02*
X127531524Y-108912819D01*
X127531524Y-108912819D02*
X128055333Y-108912819D01*
X123507714Y-109618057D02*
X123555333Y-109570438D01*
X123555333Y-109570438D02*
X123650571Y-109522819D01*
X123650571Y-109522819D02*
X123888666Y-109522819D01*
X123888666Y-109522819D02*
X123983904Y-109570438D01*
X123983904Y-109570438D02*
X124031523Y-109618057D01*
X124031523Y-109618057D02*
X124079142Y-109713295D01*
X124079142Y-109713295D02*
X124079142Y-109808533D01*
X124079142Y-109808533D02*
X124031523Y-109951390D01*
X124031523Y-109951390D02*
X123460095Y-110522819D01*
X123460095Y-110522819D02*
X124079142Y-110522819D01*
X124698190Y-109522819D02*
X124793428Y-109522819D01*
X124793428Y-109522819D02*
X124888666Y-109570438D01*
X124888666Y-109570438D02*
X124936285Y-109618057D01*
X124936285Y-109618057D02*
X124983904Y-109713295D01*
X124983904Y-109713295D02*
X125031523Y-109903771D01*
X125031523Y-109903771D02*
X125031523Y-110141866D01*
X125031523Y-110141866D02*
X124983904Y-110332342D01*
X124983904Y-110332342D02*
X124936285Y-110427580D01*
X124936285Y-110427580D02*
X124888666Y-110475200D01*
X124888666Y-110475200D02*
X124793428Y-110522819D01*
X124793428Y-110522819D02*
X124698190Y-110522819D01*
X124698190Y-110522819D02*
X124602952Y-110475200D01*
X124602952Y-110475200D02*
X124555333Y-110427580D01*
X124555333Y-110427580D02*
X124507714Y-110332342D01*
X124507714Y-110332342D02*
X124460095Y-110141866D01*
X124460095Y-110141866D02*
X124460095Y-109903771D01*
X124460095Y-109903771D02*
X124507714Y-109713295D01*
X124507714Y-109713295D02*
X124555333Y-109618057D01*
X124555333Y-109618057D02*
X124602952Y-109570438D01*
X124602952Y-109570438D02*
X124698190Y-109522819D01*
X125412476Y-109618057D02*
X125460095Y-109570438D01*
X125460095Y-109570438D02*
X125555333Y-109522819D01*
X125555333Y-109522819D02*
X125793428Y-109522819D01*
X125793428Y-109522819D02*
X125888666Y-109570438D01*
X125888666Y-109570438D02*
X125936285Y-109618057D01*
X125936285Y-109618057D02*
X125983904Y-109713295D01*
X125983904Y-109713295D02*
X125983904Y-109808533D01*
X125983904Y-109808533D02*
X125936285Y-109951390D01*
X125936285Y-109951390D02*
X125364857Y-110522819D01*
X125364857Y-110522819D02*
X125983904Y-110522819D01*
X126317238Y-109522819D02*
X126936285Y-109522819D01*
X126936285Y-109522819D02*
X126602952Y-109903771D01*
X126602952Y-109903771D02*
X126745809Y-109903771D01*
X126745809Y-109903771D02*
X126841047Y-109951390D01*
X126841047Y-109951390D02*
X126888666Y-109999009D01*
X126888666Y-109999009D02*
X126936285Y-110094247D01*
X126936285Y-110094247D02*
X126936285Y-110332342D01*
X126936285Y-110332342D02*
X126888666Y-110427580D01*
X126888666Y-110427580D02*
X126841047Y-110475200D01*
X126841047Y-110475200D02*
X126745809Y-110522819D01*
X126745809Y-110522819D02*
X126460095Y-110522819D01*
X126460095Y-110522819D02*
X126364857Y-110475200D01*
X126364857Y-110475200D02*
X126317238Y-110427580D01*
X122015333Y-97098295D02*
X122282000Y-97898295D01*
X122282000Y-97898295D02*
X122548666Y-97098295D01*
X122815333Y-97898295D02*
X122815333Y-97098295D01*
X122815333Y-97098295D02*
X123005809Y-97098295D01*
X123005809Y-97098295D02*
X123120095Y-97136390D01*
X123120095Y-97136390D02*
X123196285Y-97212580D01*
X123196285Y-97212580D02*
X123234380Y-97288771D01*
X123234380Y-97288771D02*
X123272476Y-97441152D01*
X123272476Y-97441152D02*
X123272476Y-97555438D01*
X123272476Y-97555438D02*
X123234380Y-97707819D01*
X123234380Y-97707819D02*
X123196285Y-97784009D01*
X123196285Y-97784009D02*
X123120095Y-97860200D01*
X123120095Y-97860200D02*
X123005809Y-97898295D01*
X123005809Y-97898295D02*
X122815333Y-97898295D01*
X122224857Y-104248295D02*
X122224857Y-103448295D01*
X122224857Y-103448295D02*
X122491523Y-104019723D01*
X122491523Y-104019723D02*
X122758190Y-103448295D01*
X122758190Y-103448295D02*
X122758190Y-104248295D01*
X123139143Y-104248295D02*
X123139143Y-103448295D01*
%TO.C,J3*%
X130048000Y-98044000D02*
X142748000Y-98044000D01*
X130048000Y-103124000D02*
X130048000Y-98044000D01*
X142748000Y-98044000D02*
X142748000Y-103124000D01*
X142748000Y-103124000D02*
X130048000Y-103124000D01*
%TO.C,J2*%
X129032000Y-103124000D02*
X121412000Y-103124000D01*
X129032000Y-98044000D02*
X129032000Y-103124000D01*
X121412000Y-103124000D02*
X121412000Y-98044000D01*
X121412000Y-98044000D02*
X129032000Y-98044000D01*
D11*
%TO.C,JP3*%
X130030000Y-113838000D02*
X130030000Y-113238000D01*
X133480000Y-114538000D02*
X130680000Y-114538000D01*
X130680000Y-112538000D02*
X133480000Y-112538000D01*
X134130000Y-113238000D02*
X134130000Y-113838000D01*
X130030000Y-113838000D02*
G75*
G03*
X130730000Y-114538000I699999J-1D01*
G01*
X133430000Y-114538000D02*
G75*
G03*
X134130000Y-113838000I0J700000D01*
G01*
X134130000Y-113238000D02*
G75*
G03*
X133430000Y-112538000I-700000J0D01*
G01*
X130730000Y-112538000D02*
G75*
G03*
X130030000Y-113238000I-1J-699999D01*
G01*
%TD*%
D12*
%TO.C,J3*%
X141478000Y-99314000D03*
X141478000Y-101854000D03*
X138938000Y-99314000D03*
X138938000Y-101854000D03*
X136398000Y-99314000D03*
X136398000Y-101854000D03*
X133858000Y-99314000D03*
X133858000Y-101854000D03*
X131318000Y-99314000D03*
X131318000Y-101854000D03*
%TD*%
M02*
