%TF.GenerationSoftware,KiCad,Pcbnew,7.0.5.1-1-g8f565ef7f0-dirty-deb11*%
%TF.CreationDate,2023-07-20T12:07:59+00:00*%
%TF.ProjectId,ALTIMET02,414c5449-4d45-4543-9032-2e6b69636164,rev?*%
%TF.SameCoordinates,Original*%
%TF.FileFunction,Legend,Bot*%
%TF.FilePolarity,Positive*%
%FSLAX46Y46*%
G04 Gerber Fmt 4.6, Leading zero omitted, Abs format (unit mm)*
G04 Created by KiCad (PCBNEW 7.0.5.1-1-g8f565ef7f0-dirty-deb11) date 2023-07-20 12:07:59*
%MOMM*%
%LPD*%
G01*
G04 APERTURE LIST*
%ADD10C,0.150000*%
%ADD11C,0.254000*%
%ADD12C,0.120000*%
G04 APERTURE END LIST*
D10*
X134251427Y-115932295D02*
X134251427Y-115132295D01*
X133908571Y-115208485D02*
X133870475Y-115170390D01*
X133870475Y-115170390D02*
X133794285Y-115132295D01*
X133794285Y-115132295D02*
X133603809Y-115132295D01*
X133603809Y-115132295D02*
X133527618Y-115170390D01*
X133527618Y-115170390D02*
X133489523Y-115208485D01*
X133489523Y-115208485D02*
X133451428Y-115284676D01*
X133451428Y-115284676D02*
X133451428Y-115360866D01*
X133451428Y-115360866D02*
X133489523Y-115475152D01*
X133489523Y-115475152D02*
X133946666Y-115932295D01*
X133946666Y-115932295D02*
X133451428Y-115932295D01*
X132651427Y-115856104D02*
X132689523Y-115894200D01*
X132689523Y-115894200D02*
X132803808Y-115932295D01*
X132803808Y-115932295D02*
X132879999Y-115932295D01*
X132879999Y-115932295D02*
X132994285Y-115894200D01*
X132994285Y-115894200D02*
X133070475Y-115818009D01*
X133070475Y-115818009D02*
X133108570Y-115741819D01*
X133108570Y-115741819D02*
X133146666Y-115589438D01*
X133146666Y-115589438D02*
X133146666Y-115475152D01*
X133146666Y-115475152D02*
X133108570Y-115322771D01*
X133108570Y-115322771D02*
X133070475Y-115246580D01*
X133070475Y-115246580D02*
X132994285Y-115170390D01*
X132994285Y-115170390D02*
X132879999Y-115132295D01*
X132879999Y-115132295D02*
X132803808Y-115132295D01*
X132803808Y-115132295D02*
X132689523Y-115170390D01*
X132689523Y-115170390D02*
X132651427Y-115208485D01*
X131737142Y-115094200D02*
X132422856Y-116122771D01*
X131508571Y-115894200D02*
X131394285Y-115932295D01*
X131394285Y-115932295D02*
X131203809Y-115932295D01*
X131203809Y-115932295D02*
X131127618Y-115894200D01*
X131127618Y-115894200D02*
X131089523Y-115856104D01*
X131089523Y-115856104D02*
X131051428Y-115779914D01*
X131051428Y-115779914D02*
X131051428Y-115703723D01*
X131051428Y-115703723D02*
X131089523Y-115627533D01*
X131089523Y-115627533D02*
X131127618Y-115589438D01*
X131127618Y-115589438D02*
X131203809Y-115551342D01*
X131203809Y-115551342D02*
X131356190Y-115513247D01*
X131356190Y-115513247D02*
X131432380Y-115475152D01*
X131432380Y-115475152D02*
X131470475Y-115437057D01*
X131470475Y-115437057D02*
X131508571Y-115360866D01*
X131508571Y-115360866D02*
X131508571Y-115284676D01*
X131508571Y-115284676D02*
X131470475Y-115208485D01*
X131470475Y-115208485D02*
X131432380Y-115170390D01*
X131432380Y-115170390D02*
X131356190Y-115132295D01*
X131356190Y-115132295D02*
X131165713Y-115132295D01*
X131165713Y-115132295D02*
X131051428Y-115170390D01*
X130708570Y-115932295D02*
X130708570Y-115132295D01*
X130708570Y-115132295D02*
X130403808Y-115132295D01*
X130403808Y-115132295D02*
X130327618Y-115170390D01*
X130327618Y-115170390D02*
X130289523Y-115208485D01*
X130289523Y-115208485D02*
X130251427Y-115284676D01*
X130251427Y-115284676D02*
X130251427Y-115398961D01*
X130251427Y-115398961D02*
X130289523Y-115475152D01*
X130289523Y-115475152D02*
X130327618Y-115513247D01*
X130327618Y-115513247D02*
X130403808Y-115551342D01*
X130403808Y-115551342D02*
X130708570Y-115551342D01*
X129908570Y-115932295D02*
X129908570Y-115132295D01*
%TO.C,R1*%
X141136666Y-104848819D02*
X141469999Y-104372628D01*
X141708094Y-104848819D02*
X141708094Y-103848819D01*
X141708094Y-103848819D02*
X141327142Y-103848819D01*
X141327142Y-103848819D02*
X141231904Y-103896438D01*
X141231904Y-103896438D02*
X141184285Y-103944057D01*
X141184285Y-103944057D02*
X141136666Y-104039295D01*
X141136666Y-104039295D02*
X141136666Y-104182152D01*
X141136666Y-104182152D02*
X141184285Y-104277390D01*
X141184285Y-104277390D02*
X141231904Y-104325009D01*
X141231904Y-104325009D02*
X141327142Y-104372628D01*
X141327142Y-104372628D02*
X141708094Y-104372628D01*
X140184285Y-104848819D02*
X140755713Y-104848819D01*
X140469999Y-104848819D02*
X140469999Y-103848819D01*
X140469999Y-103848819D02*
X140565237Y-103991676D01*
X140565237Y-103991676D02*
X140660475Y-104086914D01*
X140660475Y-104086914D02*
X140755713Y-104134533D01*
%TO.C,C2*%
X135995580Y-106005333D02*
X136043200Y-105957714D01*
X136043200Y-105957714D02*
X136090819Y-105814857D01*
X136090819Y-105814857D02*
X136090819Y-105719619D01*
X136090819Y-105719619D02*
X136043200Y-105576762D01*
X136043200Y-105576762D02*
X135947961Y-105481524D01*
X135947961Y-105481524D02*
X135852723Y-105433905D01*
X135852723Y-105433905D02*
X135662247Y-105386286D01*
X135662247Y-105386286D02*
X135519390Y-105386286D01*
X135519390Y-105386286D02*
X135328914Y-105433905D01*
X135328914Y-105433905D02*
X135233676Y-105481524D01*
X135233676Y-105481524D02*
X135138438Y-105576762D01*
X135138438Y-105576762D02*
X135090819Y-105719619D01*
X135090819Y-105719619D02*
X135090819Y-105814857D01*
X135090819Y-105814857D02*
X135138438Y-105957714D01*
X135138438Y-105957714D02*
X135186057Y-106005333D01*
X135186057Y-106386286D02*
X135138438Y-106433905D01*
X135138438Y-106433905D02*
X135090819Y-106529143D01*
X135090819Y-106529143D02*
X135090819Y-106767238D01*
X135090819Y-106767238D02*
X135138438Y-106862476D01*
X135138438Y-106862476D02*
X135186057Y-106910095D01*
X135186057Y-106910095D02*
X135281295Y-106957714D01*
X135281295Y-106957714D02*
X135376533Y-106957714D01*
X135376533Y-106957714D02*
X135519390Y-106910095D01*
X135519390Y-106910095D02*
X136090819Y-106338667D01*
X136090819Y-106338667D02*
X136090819Y-106957714D01*
%TO.C,D1*%
X141200094Y-110912819D02*
X141200094Y-109912819D01*
X141200094Y-109912819D02*
X140961999Y-109912819D01*
X140961999Y-109912819D02*
X140819142Y-109960438D01*
X140819142Y-109960438D02*
X140723904Y-110055676D01*
X140723904Y-110055676D02*
X140676285Y-110150914D01*
X140676285Y-110150914D02*
X140628666Y-110341390D01*
X140628666Y-110341390D02*
X140628666Y-110484247D01*
X140628666Y-110484247D02*
X140676285Y-110674723D01*
X140676285Y-110674723D02*
X140723904Y-110769961D01*
X140723904Y-110769961D02*
X140819142Y-110865200D01*
X140819142Y-110865200D02*
X140961999Y-110912819D01*
X140961999Y-110912819D02*
X141200094Y-110912819D01*
X139676285Y-110912819D02*
X140247713Y-110912819D01*
X139961999Y-110912819D02*
X139961999Y-109912819D01*
X139961999Y-109912819D02*
X140057237Y-110055676D01*
X140057237Y-110055676D02*
X140152475Y-110150914D01*
X140152475Y-110150914D02*
X140247713Y-110198533D01*
D11*
%TO.C,IC1*%
X126812318Y-108234237D02*
X125542318Y-108234237D01*
X126691365Y-109564714D02*
X126751842Y-109504238D01*
X126751842Y-109504238D02*
X126812318Y-109322809D01*
X126812318Y-109322809D02*
X126812318Y-109201857D01*
X126812318Y-109201857D02*
X126751842Y-109020428D01*
X126751842Y-109020428D02*
X126630889Y-108899476D01*
X126630889Y-108899476D02*
X126509937Y-108838999D01*
X126509937Y-108838999D02*
X126268032Y-108778523D01*
X126268032Y-108778523D02*
X126086603Y-108778523D01*
X126086603Y-108778523D02*
X125844699Y-108838999D01*
X125844699Y-108838999D02*
X125723746Y-108899476D01*
X125723746Y-108899476D02*
X125602794Y-109020428D01*
X125602794Y-109020428D02*
X125542318Y-109201857D01*
X125542318Y-109201857D02*
X125542318Y-109322809D01*
X125542318Y-109322809D02*
X125602794Y-109504238D01*
X125602794Y-109504238D02*
X125663270Y-109564714D01*
X126812318Y-110774238D02*
X126812318Y-110048523D01*
X126812318Y-110411380D02*
X125542318Y-110411380D01*
X125542318Y-110411380D02*
X125723746Y-110290428D01*
X125723746Y-110290428D02*
X125844699Y-110169476D01*
X125844699Y-110169476D02*
X125905175Y-110048523D01*
D10*
%TO.C,R2*%
X131992666Y-104848819D02*
X132325999Y-104372628D01*
X132564094Y-104848819D02*
X132564094Y-103848819D01*
X132564094Y-103848819D02*
X132183142Y-103848819D01*
X132183142Y-103848819D02*
X132087904Y-103896438D01*
X132087904Y-103896438D02*
X132040285Y-103944057D01*
X132040285Y-103944057D02*
X131992666Y-104039295D01*
X131992666Y-104039295D02*
X131992666Y-104182152D01*
X131992666Y-104182152D02*
X132040285Y-104277390D01*
X132040285Y-104277390D02*
X132087904Y-104325009D01*
X132087904Y-104325009D02*
X132183142Y-104372628D01*
X132183142Y-104372628D02*
X132564094Y-104372628D01*
X131611713Y-103944057D02*
X131564094Y-103896438D01*
X131564094Y-103896438D02*
X131468856Y-103848819D01*
X131468856Y-103848819D02*
X131230761Y-103848819D01*
X131230761Y-103848819D02*
X131135523Y-103896438D01*
X131135523Y-103896438D02*
X131087904Y-103944057D01*
X131087904Y-103944057D02*
X131040285Y-104039295D01*
X131040285Y-104039295D02*
X131040285Y-104134533D01*
X131040285Y-104134533D02*
X131087904Y-104277390D01*
X131087904Y-104277390D02*
X131659332Y-104848819D01*
X131659332Y-104848819D02*
X131040285Y-104848819D01*
%TO.C,C1*%
X133709580Y-106005333D02*
X133757200Y-105957714D01*
X133757200Y-105957714D02*
X133804819Y-105814857D01*
X133804819Y-105814857D02*
X133804819Y-105719619D01*
X133804819Y-105719619D02*
X133757200Y-105576762D01*
X133757200Y-105576762D02*
X133661961Y-105481524D01*
X133661961Y-105481524D02*
X133566723Y-105433905D01*
X133566723Y-105433905D02*
X133376247Y-105386286D01*
X133376247Y-105386286D02*
X133233390Y-105386286D01*
X133233390Y-105386286D02*
X133042914Y-105433905D01*
X133042914Y-105433905D02*
X132947676Y-105481524D01*
X132947676Y-105481524D02*
X132852438Y-105576762D01*
X132852438Y-105576762D02*
X132804819Y-105719619D01*
X132804819Y-105719619D02*
X132804819Y-105814857D01*
X132804819Y-105814857D02*
X132852438Y-105957714D01*
X132852438Y-105957714D02*
X132900057Y-106005333D01*
X133804819Y-106957714D02*
X133804819Y-106386286D01*
X133804819Y-106672000D02*
X132804819Y-106672000D01*
X132804819Y-106672000D02*
X132947676Y-106576762D01*
X132947676Y-106576762D02*
X133042914Y-106481524D01*
X133042914Y-106481524D02*
X133090533Y-106386286D01*
%TO.C,JP1*%
X134588285Y-115262819D02*
X135159713Y-115262819D01*
X134873999Y-115262819D02*
X134873999Y-114262819D01*
X134873999Y-114262819D02*
X134969237Y-114405676D01*
X134969237Y-114405676D02*
X135064475Y-114500914D01*
X135064475Y-114500914D02*
X135159713Y-114548533D01*
X129365332Y-114262819D02*
X128746285Y-114262819D01*
X128746285Y-114262819D02*
X129079618Y-114643771D01*
X129079618Y-114643771D02*
X128936761Y-114643771D01*
X128936761Y-114643771D02*
X128841523Y-114691390D01*
X128841523Y-114691390D02*
X128793904Y-114739009D01*
X128793904Y-114739009D02*
X128746285Y-114834247D01*
X128746285Y-114834247D02*
X128746285Y-115072342D01*
X128746285Y-115072342D02*
X128793904Y-115167580D01*
X128793904Y-115167580D02*
X128841523Y-115215200D01*
X128841523Y-115215200D02*
X128936761Y-115262819D01*
X128936761Y-115262819D02*
X129222475Y-115262819D01*
X129222475Y-115262819D02*
X129317713Y-115215200D01*
X129317713Y-115215200D02*
X129365332Y-115167580D01*
D12*
%TO.C,R1*%
X138202936Y-105129000D02*
X138657064Y-105129000D01*
X138202936Y-103659000D02*
X138657064Y-103659000D01*
%TO.C,C2*%
X136371000Y-109801252D02*
X136371000Y-109278748D01*
X134901000Y-109801252D02*
X134901000Y-109278748D01*
%TO.C,D1*%
X137912000Y-109458000D02*
X137912000Y-107458000D01*
X137912000Y-107458000D02*
X142212000Y-107458000D01*
X142212000Y-109458000D02*
X137912000Y-109458000D01*
D11*
%TO.C,IC1*%
X131890000Y-110974000D02*
X131890000Y-107974000D01*
X127190000Y-110974000D02*
X127190000Y-107974000D01*
X131882000Y-111506000D02*
G75*
G03*
X131882000Y-111506000I-45000J0D01*
G01*
D12*
%TO.C,R2*%
X134593064Y-105129000D02*
X134138936Y-105129000D01*
X134593064Y-103659000D02*
X134138936Y-103659000D01*
%TO.C,C1*%
X134085000Y-109801252D02*
X134085000Y-109278748D01*
X132615000Y-109801252D02*
X132615000Y-109278748D01*
%TO.C,JP1*%
X134130000Y-113838000D02*
X134130000Y-113238000D01*
X130680000Y-114538000D02*
X133480000Y-114538000D01*
X130030000Y-113238000D02*
X130030000Y-113838000D01*
X133480000Y-112538000D02*
X130680000Y-112538000D01*
X134130000Y-113238000D02*
G75*
G03*
X133430000Y-112538000I-699999J1D01*
G01*
X130030000Y-113838000D02*
G75*
G03*
X130730000Y-114538000I700000J0D01*
G01*
X130730000Y-112538000D02*
G75*
G03*
X130030000Y-113238000I0J-700000D01*
G01*
X133430000Y-114538000D02*
G75*
G03*
X134130000Y-113838000I1J699999D01*
G01*
%TD*%
M02*
