%TF.GenerationSoftware,KiCad,Pcbnew,7.0.7-7.0.7~ubuntu23.04.1*%
%TF.CreationDate,2023-09-06T12:28:47+00:00*%
%TF.ProjectId,ALTIMET02,414c5449-4d45-4543-9032-2e6b69636164,rev?*%
%TF.SameCoordinates,Original*%
%TF.FileFunction,Legend,Top*%
%TF.FilePolarity,Positive*%
%FSLAX46Y46*%
G04 Gerber Fmt 4.6, Leading zero omitted, Abs format (unit mm)*
G04 Created by KiCad (PCBNEW 7.0.7-7.0.7~ubuntu23.04.1) date 2023-09-06 12:28:47*
%MOMM*%
%LPD*%
G01*
G04 APERTURE LIST*
%ADD10C,0.150000*%
%ADD11C,0.050000*%
%ADD12C,0.120000*%
%ADD13R,1.524000X1.524000*%
G04 APERTURE END LIST*
D10*
X133538200Y-105619428D02*
X133576295Y-105505142D01*
X133576295Y-105505142D02*
X133576295Y-105314666D01*
X133576295Y-105314666D02*
X133538200Y-105238475D01*
X133538200Y-105238475D02*
X133500104Y-105200380D01*
X133500104Y-105200380D02*
X133423914Y-105162285D01*
X133423914Y-105162285D02*
X133347723Y-105162285D01*
X133347723Y-105162285D02*
X133271533Y-105200380D01*
X133271533Y-105200380D02*
X133233438Y-105238475D01*
X133233438Y-105238475D02*
X133195342Y-105314666D01*
X133195342Y-105314666D02*
X133157247Y-105467047D01*
X133157247Y-105467047D02*
X133119152Y-105543237D01*
X133119152Y-105543237D02*
X133081057Y-105581332D01*
X133081057Y-105581332D02*
X133004866Y-105619428D01*
X133004866Y-105619428D02*
X132928676Y-105619428D01*
X132928676Y-105619428D02*
X132852485Y-105581332D01*
X132852485Y-105581332D02*
X132814390Y-105543237D01*
X132814390Y-105543237D02*
X132776295Y-105467047D01*
X132776295Y-105467047D02*
X132776295Y-105276570D01*
X132776295Y-105276570D02*
X132814390Y-105162285D01*
X133576295Y-104819427D02*
X132776295Y-104819427D01*
X132776295Y-104819427D02*
X132776295Y-104628951D01*
X132776295Y-104628951D02*
X132814390Y-104514665D01*
X132814390Y-104514665D02*
X132890580Y-104438475D01*
X132890580Y-104438475D02*
X132966771Y-104400380D01*
X132966771Y-104400380D02*
X133119152Y-104362284D01*
X133119152Y-104362284D02*
X133233438Y-104362284D01*
X133233438Y-104362284D02*
X133385819Y-104400380D01*
X133385819Y-104400380D02*
X133462009Y-104438475D01*
X133462009Y-104438475D02*
X133538200Y-104514665D01*
X133538200Y-104514665D02*
X133576295Y-104628951D01*
X133576295Y-104628951D02*
X133576295Y-104819427D01*
X133347723Y-104057523D02*
X133347723Y-103676570D01*
X133576295Y-104133713D02*
X132776295Y-103867046D01*
X132776295Y-103867046D02*
X133576295Y-103600380D01*
X134864295Y-105905142D02*
X134064295Y-105905142D01*
X134064295Y-105905142D02*
X134635723Y-105638476D01*
X134635723Y-105638476D02*
X134064295Y-105371809D01*
X134064295Y-105371809D02*
X134864295Y-105371809D01*
X134064295Y-104838475D02*
X134064295Y-104686094D01*
X134064295Y-104686094D02*
X134102390Y-104609904D01*
X134102390Y-104609904D02*
X134178580Y-104533713D01*
X134178580Y-104533713D02*
X134330961Y-104495618D01*
X134330961Y-104495618D02*
X134597628Y-104495618D01*
X134597628Y-104495618D02*
X134750009Y-104533713D01*
X134750009Y-104533713D02*
X134826200Y-104609904D01*
X134826200Y-104609904D02*
X134864295Y-104686094D01*
X134864295Y-104686094D02*
X134864295Y-104838475D01*
X134864295Y-104838475D02*
X134826200Y-104914666D01*
X134826200Y-104914666D02*
X134750009Y-104990856D01*
X134750009Y-104990856D02*
X134597628Y-105028952D01*
X134597628Y-105028952D02*
X134330961Y-105028952D01*
X134330961Y-105028952D02*
X134178580Y-104990856D01*
X134178580Y-104990856D02*
X134102390Y-104914666D01*
X134102390Y-104914666D02*
X134064295Y-104838475D01*
X134826200Y-104190857D02*
X134864295Y-104076571D01*
X134864295Y-104076571D02*
X134864295Y-103886095D01*
X134864295Y-103886095D02*
X134826200Y-103809904D01*
X134826200Y-103809904D02*
X134788104Y-103771809D01*
X134788104Y-103771809D02*
X134711914Y-103733714D01*
X134711914Y-103733714D02*
X134635723Y-103733714D01*
X134635723Y-103733714D02*
X134559533Y-103771809D01*
X134559533Y-103771809D02*
X134521438Y-103809904D01*
X134521438Y-103809904D02*
X134483342Y-103886095D01*
X134483342Y-103886095D02*
X134445247Y-104038476D01*
X134445247Y-104038476D02*
X134407152Y-104114666D01*
X134407152Y-104114666D02*
X134369057Y-104152761D01*
X134369057Y-104152761D02*
X134292866Y-104190857D01*
X134292866Y-104190857D02*
X134216676Y-104190857D01*
X134216676Y-104190857D02*
X134140485Y-104152761D01*
X134140485Y-104152761D02*
X134102390Y-104114666D01*
X134102390Y-104114666D02*
X134064295Y-104038476D01*
X134064295Y-104038476D02*
X134064295Y-103847999D01*
X134064295Y-103847999D02*
X134102390Y-103733714D01*
X134864295Y-103390856D02*
X134064295Y-103390856D01*
X124238104Y-104273332D02*
X124276200Y-104311428D01*
X124276200Y-104311428D02*
X124314295Y-104425713D01*
X124314295Y-104425713D02*
X124314295Y-104501904D01*
X124314295Y-104501904D02*
X124276200Y-104616190D01*
X124276200Y-104616190D02*
X124200009Y-104692380D01*
X124200009Y-104692380D02*
X124123819Y-104730475D01*
X124123819Y-104730475D02*
X123971438Y-104768571D01*
X123971438Y-104768571D02*
X123857152Y-104768571D01*
X123857152Y-104768571D02*
X123704771Y-104730475D01*
X123704771Y-104730475D02*
X123628580Y-104692380D01*
X123628580Y-104692380D02*
X123552390Y-104616190D01*
X123552390Y-104616190D02*
X123514295Y-104501904D01*
X123514295Y-104501904D02*
X123514295Y-104425713D01*
X123514295Y-104425713D02*
X123552390Y-104311428D01*
X123552390Y-104311428D02*
X123590485Y-104273332D01*
X124276200Y-103968571D02*
X124314295Y-103854285D01*
X124314295Y-103854285D02*
X124314295Y-103663809D01*
X124314295Y-103663809D02*
X124276200Y-103587618D01*
X124276200Y-103587618D02*
X124238104Y-103549523D01*
X124238104Y-103549523D02*
X124161914Y-103511428D01*
X124161914Y-103511428D02*
X124085723Y-103511428D01*
X124085723Y-103511428D02*
X124009533Y-103549523D01*
X124009533Y-103549523D02*
X123971438Y-103587618D01*
X123971438Y-103587618D02*
X123933342Y-103663809D01*
X123933342Y-103663809D02*
X123895247Y-103816190D01*
X123895247Y-103816190D02*
X123857152Y-103892380D01*
X123857152Y-103892380D02*
X123819057Y-103930475D01*
X123819057Y-103930475D02*
X123742866Y-103968571D01*
X123742866Y-103968571D02*
X123666676Y-103968571D01*
X123666676Y-103968571D02*
X123590485Y-103930475D01*
X123590485Y-103930475D02*
X123552390Y-103892380D01*
X123552390Y-103892380D02*
X123514295Y-103816190D01*
X123514295Y-103816190D02*
X123514295Y-103625713D01*
X123514295Y-103625713D02*
X123552390Y-103511428D01*
X141078390Y-105257523D02*
X141040295Y-105333713D01*
X141040295Y-105333713D02*
X141040295Y-105447999D01*
X141040295Y-105447999D02*
X141078390Y-105562285D01*
X141078390Y-105562285D02*
X141154580Y-105638475D01*
X141154580Y-105638475D02*
X141230771Y-105676570D01*
X141230771Y-105676570D02*
X141383152Y-105714666D01*
X141383152Y-105714666D02*
X141497438Y-105714666D01*
X141497438Y-105714666D02*
X141649819Y-105676570D01*
X141649819Y-105676570D02*
X141726009Y-105638475D01*
X141726009Y-105638475D02*
X141802200Y-105562285D01*
X141802200Y-105562285D02*
X141840295Y-105447999D01*
X141840295Y-105447999D02*
X141840295Y-105371808D01*
X141840295Y-105371808D02*
X141802200Y-105257523D01*
X141802200Y-105257523D02*
X141764104Y-105219427D01*
X141764104Y-105219427D02*
X141497438Y-105219427D01*
X141497438Y-105219427D02*
X141497438Y-105371808D01*
X141840295Y-104876570D02*
X141040295Y-104876570D01*
X141040295Y-104876570D02*
X141840295Y-104419427D01*
X141840295Y-104419427D02*
X141040295Y-104419427D01*
X141840295Y-104038475D02*
X141040295Y-104038475D01*
X141040295Y-104038475D02*
X141040295Y-103847999D01*
X141040295Y-103847999D02*
X141078390Y-103733713D01*
X141078390Y-103733713D02*
X141154580Y-103657523D01*
X141154580Y-103657523D02*
X141230771Y-103619428D01*
X141230771Y-103619428D02*
X141383152Y-103581332D01*
X141383152Y-103581332D02*
X141497438Y-103581332D01*
X141497438Y-103581332D02*
X141649819Y-103619428D01*
X141649819Y-103619428D02*
X141726009Y-103657523D01*
X141726009Y-103657523D02*
X141802200Y-103733713D01*
X141802200Y-103733713D02*
X141840295Y-103847999D01*
X141840295Y-103847999D02*
X141840295Y-104038475D01*
X138618200Y-105676571D02*
X138656295Y-105562285D01*
X138656295Y-105562285D02*
X138656295Y-105371809D01*
X138656295Y-105371809D02*
X138618200Y-105295618D01*
X138618200Y-105295618D02*
X138580104Y-105257523D01*
X138580104Y-105257523D02*
X138503914Y-105219428D01*
X138503914Y-105219428D02*
X138427723Y-105219428D01*
X138427723Y-105219428D02*
X138351533Y-105257523D01*
X138351533Y-105257523D02*
X138313438Y-105295618D01*
X138313438Y-105295618D02*
X138275342Y-105371809D01*
X138275342Y-105371809D02*
X138237247Y-105524190D01*
X138237247Y-105524190D02*
X138199152Y-105600380D01*
X138199152Y-105600380D02*
X138161057Y-105638475D01*
X138161057Y-105638475D02*
X138084866Y-105676571D01*
X138084866Y-105676571D02*
X138008676Y-105676571D01*
X138008676Y-105676571D02*
X137932485Y-105638475D01*
X137932485Y-105638475D02*
X137894390Y-105600380D01*
X137894390Y-105600380D02*
X137856295Y-105524190D01*
X137856295Y-105524190D02*
X137856295Y-105333713D01*
X137856295Y-105333713D02*
X137894390Y-105219428D01*
X138580104Y-104419427D02*
X138618200Y-104457523D01*
X138618200Y-104457523D02*
X138656295Y-104571808D01*
X138656295Y-104571808D02*
X138656295Y-104647999D01*
X138656295Y-104647999D02*
X138618200Y-104762285D01*
X138618200Y-104762285D02*
X138542009Y-104838475D01*
X138542009Y-104838475D02*
X138465819Y-104876570D01*
X138465819Y-104876570D02*
X138313438Y-104914666D01*
X138313438Y-104914666D02*
X138199152Y-104914666D01*
X138199152Y-104914666D02*
X138046771Y-104876570D01*
X138046771Y-104876570D02*
X137970580Y-104838475D01*
X137970580Y-104838475D02*
X137894390Y-104762285D01*
X137894390Y-104762285D02*
X137856295Y-104647999D01*
X137856295Y-104647999D02*
X137856295Y-104571808D01*
X137856295Y-104571808D02*
X137894390Y-104457523D01*
X137894390Y-104457523D02*
X137932485Y-104419427D01*
X138656295Y-104076570D02*
X137856295Y-104076570D01*
X138656295Y-103619427D02*
X138199152Y-103962285D01*
X137856295Y-103619427D02*
X138313438Y-104076570D01*
X139906200Y-105600381D02*
X139944295Y-105486095D01*
X139944295Y-105486095D02*
X139944295Y-105295619D01*
X139944295Y-105295619D02*
X139906200Y-105219428D01*
X139906200Y-105219428D02*
X139868104Y-105181333D01*
X139868104Y-105181333D02*
X139791914Y-105143238D01*
X139791914Y-105143238D02*
X139715723Y-105143238D01*
X139715723Y-105143238D02*
X139639533Y-105181333D01*
X139639533Y-105181333D02*
X139601438Y-105219428D01*
X139601438Y-105219428D02*
X139563342Y-105295619D01*
X139563342Y-105295619D02*
X139525247Y-105448000D01*
X139525247Y-105448000D02*
X139487152Y-105524190D01*
X139487152Y-105524190D02*
X139449057Y-105562285D01*
X139449057Y-105562285D02*
X139372866Y-105600381D01*
X139372866Y-105600381D02*
X139296676Y-105600381D01*
X139296676Y-105600381D02*
X139220485Y-105562285D01*
X139220485Y-105562285D02*
X139182390Y-105524190D01*
X139182390Y-105524190D02*
X139144295Y-105448000D01*
X139144295Y-105448000D02*
X139144295Y-105257523D01*
X139144295Y-105257523D02*
X139182390Y-105143238D01*
X139868104Y-104343237D02*
X139906200Y-104381333D01*
X139906200Y-104381333D02*
X139944295Y-104495618D01*
X139944295Y-104495618D02*
X139944295Y-104571809D01*
X139944295Y-104571809D02*
X139906200Y-104686095D01*
X139906200Y-104686095D02*
X139830009Y-104762285D01*
X139830009Y-104762285D02*
X139753819Y-104800380D01*
X139753819Y-104800380D02*
X139601438Y-104838476D01*
X139601438Y-104838476D02*
X139487152Y-104838476D01*
X139487152Y-104838476D02*
X139334771Y-104800380D01*
X139334771Y-104800380D02*
X139258580Y-104762285D01*
X139258580Y-104762285D02*
X139182390Y-104686095D01*
X139182390Y-104686095D02*
X139144295Y-104571809D01*
X139144295Y-104571809D02*
X139144295Y-104495618D01*
X139144295Y-104495618D02*
X139182390Y-104381333D01*
X139182390Y-104381333D02*
X139220485Y-104343237D01*
X139944295Y-103619428D02*
X139944295Y-104000380D01*
X139944295Y-104000380D02*
X139144295Y-104000380D01*
X135960295Y-105714666D02*
X136760295Y-105447999D01*
X136760295Y-105447999D02*
X135960295Y-105181333D01*
X136760295Y-104914666D02*
X135960295Y-104914666D01*
X135960295Y-104914666D02*
X135960295Y-104724190D01*
X135960295Y-104724190D02*
X135998390Y-104609904D01*
X135998390Y-104609904D02*
X136074580Y-104533714D01*
X136074580Y-104533714D02*
X136150771Y-104495619D01*
X136150771Y-104495619D02*
X136303152Y-104457523D01*
X136303152Y-104457523D02*
X136417438Y-104457523D01*
X136417438Y-104457523D02*
X136569819Y-104495619D01*
X136569819Y-104495619D02*
X136646009Y-104533714D01*
X136646009Y-104533714D02*
X136722200Y-104609904D01*
X136722200Y-104609904D02*
X136760295Y-104724190D01*
X136760295Y-104724190D02*
X136760295Y-104914666D01*
X136760295Y-104114666D02*
X135960295Y-104114666D01*
X135960295Y-104114666D02*
X135960295Y-103924190D01*
X135960295Y-103924190D02*
X135998390Y-103809904D01*
X135998390Y-103809904D02*
X136074580Y-103733714D01*
X136074580Y-103733714D02*
X136150771Y-103695619D01*
X136150771Y-103695619D02*
X136303152Y-103657523D01*
X136303152Y-103657523D02*
X136417438Y-103657523D01*
X136417438Y-103657523D02*
X136569819Y-103695619D01*
X136569819Y-103695619D02*
X136646009Y-103733714D01*
X136646009Y-103733714D02*
X136722200Y-103809904D01*
X136722200Y-103809904D02*
X136760295Y-103924190D01*
X136760295Y-103924190D02*
X136760295Y-104114666D01*
X135207810Y-109674819D02*
X135207810Y-108674819D01*
X135207810Y-108674819D02*
X135541143Y-109389104D01*
X135541143Y-109389104D02*
X135874476Y-108674819D01*
X135874476Y-108674819D02*
X135874476Y-109674819D01*
X136303048Y-109389104D02*
X136779238Y-109389104D01*
X136207810Y-109674819D02*
X136541143Y-108674819D01*
X136541143Y-108674819D02*
X136874476Y-109674819D01*
X137112572Y-108674819D02*
X137779238Y-109674819D01*
X137779238Y-108674819D02*
X137112572Y-109674819D01*
X138826858Y-108674819D02*
X139445905Y-108674819D01*
X139445905Y-108674819D02*
X139112572Y-109055771D01*
X139112572Y-109055771D02*
X139255429Y-109055771D01*
X139255429Y-109055771D02*
X139350667Y-109103390D01*
X139350667Y-109103390D02*
X139398286Y-109151009D01*
X139398286Y-109151009D02*
X139445905Y-109246247D01*
X139445905Y-109246247D02*
X139445905Y-109484342D01*
X139445905Y-109484342D02*
X139398286Y-109579580D01*
X139398286Y-109579580D02*
X139350667Y-109627200D01*
X139350667Y-109627200D02*
X139255429Y-109674819D01*
X139255429Y-109674819D02*
X138969715Y-109674819D01*
X138969715Y-109674819D02*
X138874477Y-109627200D01*
X138874477Y-109627200D02*
X138826858Y-109579580D01*
X139874477Y-109579580D02*
X139922096Y-109627200D01*
X139922096Y-109627200D02*
X139874477Y-109674819D01*
X139874477Y-109674819D02*
X139826858Y-109627200D01*
X139826858Y-109627200D02*
X139874477Y-109579580D01*
X139874477Y-109579580D02*
X139874477Y-109674819D01*
X140255429Y-108674819D02*
X140874476Y-108674819D01*
X140874476Y-108674819D02*
X140541143Y-109055771D01*
X140541143Y-109055771D02*
X140684000Y-109055771D01*
X140684000Y-109055771D02*
X140779238Y-109103390D01*
X140779238Y-109103390D02*
X140826857Y-109151009D01*
X140826857Y-109151009D02*
X140874476Y-109246247D01*
X140874476Y-109246247D02*
X140874476Y-109484342D01*
X140874476Y-109484342D02*
X140826857Y-109579580D01*
X140826857Y-109579580D02*
X140779238Y-109627200D01*
X140779238Y-109627200D02*
X140684000Y-109674819D01*
X140684000Y-109674819D02*
X140398286Y-109674819D01*
X140398286Y-109674819D02*
X140303048Y-109627200D01*
X140303048Y-109627200D02*
X140255429Y-109579580D01*
X141160191Y-108674819D02*
X141493524Y-109674819D01*
X141493524Y-109674819D02*
X141826857Y-108674819D01*
X142160191Y-109579580D02*
X142207810Y-109627200D01*
X142207810Y-109627200D02*
X142160191Y-109674819D01*
X142160191Y-109674819D02*
X142112572Y-109627200D01*
X142112572Y-109627200D02*
X142160191Y-109579580D01*
X142160191Y-109579580D02*
X142160191Y-109674819D01*
X142160191Y-109293866D02*
X142112572Y-108722438D01*
X142112572Y-108722438D02*
X142160191Y-108674819D01*
X142160191Y-108674819D02*
X142207810Y-108722438D01*
X142207810Y-108722438D02*
X142160191Y-109293866D01*
X142160191Y-109293866D02*
X142160191Y-108674819D01*
X128054381Y-110716295D02*
X128054381Y-109916295D01*
X128397237Y-109992485D02*
X128435333Y-109954390D01*
X128435333Y-109954390D02*
X128511523Y-109916295D01*
X128511523Y-109916295D02*
X128701999Y-109916295D01*
X128701999Y-109916295D02*
X128778190Y-109954390D01*
X128778190Y-109954390D02*
X128816285Y-109992485D01*
X128816285Y-109992485D02*
X128854380Y-110068676D01*
X128854380Y-110068676D02*
X128854380Y-110144866D01*
X128854380Y-110144866D02*
X128816285Y-110259152D01*
X128816285Y-110259152D02*
X128359142Y-110716295D01*
X128359142Y-110716295D02*
X128854380Y-110716295D01*
X129654381Y-110640104D02*
X129616285Y-110678200D01*
X129616285Y-110678200D02*
X129502000Y-110716295D01*
X129502000Y-110716295D02*
X129425809Y-110716295D01*
X129425809Y-110716295D02*
X129311523Y-110678200D01*
X129311523Y-110678200D02*
X129235333Y-110602009D01*
X129235333Y-110602009D02*
X129197238Y-110525819D01*
X129197238Y-110525819D02*
X129159142Y-110373438D01*
X129159142Y-110373438D02*
X129159142Y-110259152D01*
X129159142Y-110259152D02*
X129197238Y-110106771D01*
X129197238Y-110106771D02*
X129235333Y-110030580D01*
X129235333Y-110030580D02*
X129311523Y-109954390D01*
X129311523Y-109954390D02*
X129425809Y-109916295D01*
X129425809Y-109916295D02*
X129502000Y-109916295D01*
X129502000Y-109916295D02*
X129616285Y-109954390D01*
X129616285Y-109954390D02*
X129654381Y-109992485D01*
X130949619Y-110716295D02*
X130949619Y-110297247D01*
X130949619Y-110297247D02*
X130911524Y-110221057D01*
X130911524Y-110221057D02*
X130835333Y-110182961D01*
X130835333Y-110182961D02*
X130682952Y-110182961D01*
X130682952Y-110182961D02*
X130606762Y-110221057D01*
X130949619Y-110678200D02*
X130873428Y-110716295D01*
X130873428Y-110716295D02*
X130682952Y-110716295D01*
X130682952Y-110716295D02*
X130606762Y-110678200D01*
X130606762Y-110678200D02*
X130568666Y-110602009D01*
X130568666Y-110602009D02*
X130568666Y-110525819D01*
X130568666Y-110525819D02*
X130606762Y-110449628D01*
X130606762Y-110449628D02*
X130682952Y-110411533D01*
X130682952Y-110411533D02*
X130873428Y-110411533D01*
X130873428Y-110411533D02*
X130949619Y-110373438D01*
X131673429Y-110716295D02*
X131673429Y-109916295D01*
X131673429Y-110678200D02*
X131597238Y-110716295D01*
X131597238Y-110716295D02*
X131444857Y-110716295D01*
X131444857Y-110716295D02*
X131368667Y-110678200D01*
X131368667Y-110678200D02*
X131330572Y-110640104D01*
X131330572Y-110640104D02*
X131292476Y-110563914D01*
X131292476Y-110563914D02*
X131292476Y-110335342D01*
X131292476Y-110335342D02*
X131330572Y-110259152D01*
X131330572Y-110259152D02*
X131368667Y-110221057D01*
X131368667Y-110221057D02*
X131444857Y-110182961D01*
X131444857Y-110182961D02*
X131597238Y-110182961D01*
X131597238Y-110182961D02*
X131673429Y-110221057D01*
X132054382Y-110716295D02*
X132054382Y-110182961D01*
X132054382Y-110335342D02*
X132092477Y-110259152D01*
X132092477Y-110259152D02*
X132130572Y-110221057D01*
X132130572Y-110221057D02*
X132206763Y-110182961D01*
X132206763Y-110182961D02*
X132282953Y-110182961D01*
X132549620Y-110640104D02*
X132587715Y-110678200D01*
X132587715Y-110678200D02*
X132549620Y-110716295D01*
X132549620Y-110716295D02*
X132511524Y-110678200D01*
X132511524Y-110678200D02*
X132549620Y-110640104D01*
X132549620Y-110640104D02*
X132549620Y-110716295D01*
X127292476Y-111204295D02*
X127368666Y-111204295D01*
X127368666Y-111204295D02*
X127444857Y-111242390D01*
X127444857Y-111242390D02*
X127482952Y-111280485D01*
X127482952Y-111280485D02*
X127521047Y-111356676D01*
X127521047Y-111356676D02*
X127559142Y-111509057D01*
X127559142Y-111509057D02*
X127559142Y-111699533D01*
X127559142Y-111699533D02*
X127521047Y-111851914D01*
X127521047Y-111851914D02*
X127482952Y-111928104D01*
X127482952Y-111928104D02*
X127444857Y-111966200D01*
X127444857Y-111966200D02*
X127368666Y-112004295D01*
X127368666Y-112004295D02*
X127292476Y-112004295D01*
X127292476Y-112004295D02*
X127216285Y-111966200D01*
X127216285Y-111966200D02*
X127178190Y-111928104D01*
X127178190Y-111928104D02*
X127140095Y-111851914D01*
X127140095Y-111851914D02*
X127101999Y-111699533D01*
X127101999Y-111699533D02*
X127101999Y-111509057D01*
X127101999Y-111509057D02*
X127140095Y-111356676D01*
X127140095Y-111356676D02*
X127178190Y-111280485D01*
X127178190Y-111280485D02*
X127216285Y-111242390D01*
X127216285Y-111242390D02*
X127292476Y-111204295D01*
X127825809Y-112004295D02*
X128244857Y-111470961D01*
X127825809Y-111470961D02*
X128244857Y-112004295D01*
X128473428Y-111204295D02*
X129006762Y-111204295D01*
X129006762Y-111204295D02*
X128663904Y-112004295D01*
X129235333Y-111204295D02*
X129768667Y-111204295D01*
X129768667Y-111204295D02*
X129425809Y-112004295D01*
X130644857Y-111166200D02*
X129959143Y-112194771D01*
X131063905Y-111204295D02*
X131140095Y-111204295D01*
X131140095Y-111204295D02*
X131216286Y-111242390D01*
X131216286Y-111242390D02*
X131254381Y-111280485D01*
X131254381Y-111280485D02*
X131292476Y-111356676D01*
X131292476Y-111356676D02*
X131330571Y-111509057D01*
X131330571Y-111509057D02*
X131330571Y-111699533D01*
X131330571Y-111699533D02*
X131292476Y-111851914D01*
X131292476Y-111851914D02*
X131254381Y-111928104D01*
X131254381Y-111928104D02*
X131216286Y-111966200D01*
X131216286Y-111966200D02*
X131140095Y-112004295D01*
X131140095Y-112004295D02*
X131063905Y-112004295D01*
X131063905Y-112004295D02*
X130987714Y-111966200D01*
X130987714Y-111966200D02*
X130949619Y-111928104D01*
X130949619Y-111928104D02*
X130911524Y-111851914D01*
X130911524Y-111851914D02*
X130873428Y-111699533D01*
X130873428Y-111699533D02*
X130873428Y-111509057D01*
X130873428Y-111509057D02*
X130911524Y-111356676D01*
X130911524Y-111356676D02*
X130949619Y-111280485D01*
X130949619Y-111280485D02*
X130987714Y-111242390D01*
X130987714Y-111242390D02*
X131063905Y-111204295D01*
X131597238Y-112004295D02*
X132016286Y-111470961D01*
X131597238Y-111470961D02*
X132016286Y-112004295D01*
X132244857Y-111204295D02*
X132778191Y-111204295D01*
X132778191Y-111204295D02*
X132435333Y-112004295D01*
X133425810Y-111204295D02*
X133273429Y-111204295D01*
X133273429Y-111204295D02*
X133197238Y-111242390D01*
X133197238Y-111242390D02*
X133159143Y-111280485D01*
X133159143Y-111280485D02*
X133082953Y-111394771D01*
X133082953Y-111394771D02*
X133044857Y-111547152D01*
X133044857Y-111547152D02*
X133044857Y-111851914D01*
X133044857Y-111851914D02*
X133082953Y-111928104D01*
X133082953Y-111928104D02*
X133121048Y-111966200D01*
X133121048Y-111966200D02*
X133197238Y-112004295D01*
X133197238Y-112004295D02*
X133349619Y-112004295D01*
X133349619Y-112004295D02*
X133425810Y-111966200D01*
X133425810Y-111966200D02*
X133463905Y-111928104D01*
X133463905Y-111928104D02*
X133502000Y-111851914D01*
X133502000Y-111851914D02*
X133502000Y-111661438D01*
X133502000Y-111661438D02*
X133463905Y-111585247D01*
X133463905Y-111585247D02*
X133425810Y-111547152D01*
X133425810Y-111547152D02*
X133349619Y-111509057D01*
X133349619Y-111509057D02*
X133197238Y-111509057D01*
X133197238Y-111509057D02*
X133121048Y-111547152D01*
X133121048Y-111547152D02*
X133082953Y-111585247D01*
X133082953Y-111585247D02*
X133044857Y-111661438D01*
X130918390Y-105257523D02*
X130880295Y-105333713D01*
X130880295Y-105333713D02*
X130880295Y-105447999D01*
X130880295Y-105447999D02*
X130918390Y-105562285D01*
X130918390Y-105562285D02*
X130994580Y-105638475D01*
X130994580Y-105638475D02*
X131070771Y-105676570D01*
X131070771Y-105676570D02*
X131223152Y-105714666D01*
X131223152Y-105714666D02*
X131337438Y-105714666D01*
X131337438Y-105714666D02*
X131489819Y-105676570D01*
X131489819Y-105676570D02*
X131566009Y-105638475D01*
X131566009Y-105638475D02*
X131642200Y-105562285D01*
X131642200Y-105562285D02*
X131680295Y-105447999D01*
X131680295Y-105447999D02*
X131680295Y-105371808D01*
X131680295Y-105371808D02*
X131642200Y-105257523D01*
X131642200Y-105257523D02*
X131604104Y-105219427D01*
X131604104Y-105219427D02*
X131337438Y-105219427D01*
X131337438Y-105219427D02*
X131337438Y-105371808D01*
X131680295Y-104876570D02*
X130880295Y-104876570D01*
X130880295Y-104876570D02*
X131680295Y-104419427D01*
X131680295Y-104419427D02*
X130880295Y-104419427D01*
X131680295Y-104038475D02*
X130880295Y-104038475D01*
X130880295Y-104038475D02*
X130880295Y-103847999D01*
X130880295Y-103847999D02*
X130918390Y-103733713D01*
X130918390Y-103733713D02*
X130994580Y-103657523D01*
X130994580Y-103657523D02*
X131070771Y-103619428D01*
X131070771Y-103619428D02*
X131223152Y-103581332D01*
X131223152Y-103581332D02*
X131337438Y-103581332D01*
X131337438Y-103581332D02*
X131489819Y-103619428D01*
X131489819Y-103619428D02*
X131566009Y-103657523D01*
X131566009Y-103657523D02*
X131642200Y-103733713D01*
X131642200Y-103733713D02*
X131680295Y-103847999D01*
X131680295Y-103847999D02*
X131680295Y-104038475D01*
X119650381Y-108033104D02*
X120126571Y-108033104D01*
X119555143Y-108318819D02*
X119888476Y-107318819D01*
X119888476Y-107318819D02*
X120221809Y-108318819D01*
X121031333Y-108318819D02*
X120555143Y-108318819D01*
X120555143Y-108318819D02*
X120555143Y-107318819D01*
X121221810Y-107318819D02*
X121793238Y-107318819D01*
X121507524Y-108318819D02*
X121507524Y-107318819D01*
X122126572Y-108318819D02*
X122126572Y-107318819D01*
X122602762Y-108318819D02*
X122602762Y-107318819D01*
X122602762Y-107318819D02*
X122936095Y-108033104D01*
X122936095Y-108033104D02*
X123269428Y-107318819D01*
X123269428Y-107318819D02*
X123269428Y-108318819D01*
X123745619Y-107795009D02*
X124078952Y-107795009D01*
X124221809Y-108318819D02*
X123745619Y-108318819D01*
X123745619Y-108318819D02*
X123745619Y-107318819D01*
X123745619Y-107318819D02*
X124221809Y-107318819D01*
X124507524Y-107318819D02*
X125078952Y-107318819D01*
X124793238Y-108318819D02*
X124793238Y-107318819D01*
X125602762Y-107318819D02*
X125698000Y-107318819D01*
X125698000Y-107318819D02*
X125793238Y-107366438D01*
X125793238Y-107366438D02*
X125840857Y-107414057D01*
X125840857Y-107414057D02*
X125888476Y-107509295D01*
X125888476Y-107509295D02*
X125936095Y-107699771D01*
X125936095Y-107699771D02*
X125936095Y-107937866D01*
X125936095Y-107937866D02*
X125888476Y-108128342D01*
X125888476Y-108128342D02*
X125840857Y-108223580D01*
X125840857Y-108223580D02*
X125793238Y-108271200D01*
X125793238Y-108271200D02*
X125698000Y-108318819D01*
X125698000Y-108318819D02*
X125602762Y-108318819D01*
X125602762Y-108318819D02*
X125507524Y-108271200D01*
X125507524Y-108271200D02*
X125459905Y-108223580D01*
X125459905Y-108223580D02*
X125412286Y-108128342D01*
X125412286Y-108128342D02*
X125364667Y-107937866D01*
X125364667Y-107937866D02*
X125364667Y-107699771D01*
X125364667Y-107699771D02*
X125412286Y-107509295D01*
X125412286Y-107509295D02*
X125459905Y-107414057D01*
X125459905Y-107414057D02*
X125507524Y-107366438D01*
X125507524Y-107366438D02*
X125602762Y-107318819D01*
X126317048Y-107414057D02*
X126364667Y-107366438D01*
X126364667Y-107366438D02*
X126459905Y-107318819D01*
X126459905Y-107318819D02*
X126698000Y-107318819D01*
X126698000Y-107318819D02*
X126793238Y-107366438D01*
X126793238Y-107366438D02*
X126840857Y-107414057D01*
X126840857Y-107414057D02*
X126888476Y-107509295D01*
X126888476Y-107509295D02*
X126888476Y-107604533D01*
X126888476Y-107604533D02*
X126840857Y-107747390D01*
X126840857Y-107747390D02*
X126269429Y-108318819D01*
X126269429Y-108318819D02*
X126888476Y-108318819D01*
X127269429Y-108033104D02*
X127745619Y-108033104D01*
X127174191Y-108318819D02*
X127507524Y-107318819D01*
X127507524Y-107318819D02*
X127840857Y-108318819D01*
X120959905Y-109928819D02*
X120959905Y-108928819D01*
X120959905Y-108928819D02*
X121293238Y-109643104D01*
X121293238Y-109643104D02*
X121626571Y-108928819D01*
X121626571Y-108928819D02*
X121626571Y-109928819D01*
X122578952Y-109928819D02*
X122102762Y-109928819D01*
X122102762Y-109928819D02*
X122102762Y-108928819D01*
X122864667Y-109643104D02*
X123340857Y-109643104D01*
X122769429Y-109928819D02*
X123102762Y-108928819D01*
X123102762Y-108928819D02*
X123436095Y-109928819D01*
X124102762Y-109405009D02*
X124245619Y-109452628D01*
X124245619Y-109452628D02*
X124293238Y-109500247D01*
X124293238Y-109500247D02*
X124340857Y-109595485D01*
X124340857Y-109595485D02*
X124340857Y-109738342D01*
X124340857Y-109738342D02*
X124293238Y-109833580D01*
X124293238Y-109833580D02*
X124245619Y-109881200D01*
X124245619Y-109881200D02*
X124150381Y-109928819D01*
X124150381Y-109928819D02*
X123769429Y-109928819D01*
X123769429Y-109928819D02*
X123769429Y-108928819D01*
X123769429Y-108928819D02*
X124102762Y-108928819D01*
X124102762Y-108928819D02*
X124198000Y-108976438D01*
X124198000Y-108976438D02*
X124245619Y-109024057D01*
X124245619Y-109024057D02*
X124293238Y-109119295D01*
X124293238Y-109119295D02*
X124293238Y-109214533D01*
X124293238Y-109214533D02*
X124245619Y-109309771D01*
X124245619Y-109309771D02*
X124198000Y-109357390D01*
X124198000Y-109357390D02*
X124102762Y-109405009D01*
X124102762Y-109405009D02*
X123769429Y-109405009D01*
X124769429Y-109833580D02*
X124817048Y-109881200D01*
X124817048Y-109881200D02*
X124769429Y-109928819D01*
X124769429Y-109928819D02*
X124721810Y-109881200D01*
X124721810Y-109881200D02*
X124769429Y-109833580D01*
X124769429Y-109833580D02*
X124769429Y-109928819D01*
X125674190Y-109881200D02*
X125578952Y-109928819D01*
X125578952Y-109928819D02*
X125388476Y-109928819D01*
X125388476Y-109928819D02*
X125293238Y-109881200D01*
X125293238Y-109881200D02*
X125245619Y-109833580D01*
X125245619Y-109833580D02*
X125198000Y-109738342D01*
X125198000Y-109738342D02*
X125198000Y-109452628D01*
X125198000Y-109452628D02*
X125245619Y-109357390D01*
X125245619Y-109357390D02*
X125293238Y-109309771D01*
X125293238Y-109309771D02*
X125388476Y-109262152D01*
X125388476Y-109262152D02*
X125578952Y-109262152D01*
X125578952Y-109262152D02*
X125674190Y-109309771D01*
X126007524Y-109262152D02*
X126531333Y-109262152D01*
X126531333Y-109262152D02*
X126007524Y-109928819D01*
X126007524Y-109928819D02*
X126531333Y-109928819D01*
X121983714Y-110634057D02*
X122031333Y-110586438D01*
X122031333Y-110586438D02*
X122126571Y-110538819D01*
X122126571Y-110538819D02*
X122364666Y-110538819D01*
X122364666Y-110538819D02*
X122459904Y-110586438D01*
X122459904Y-110586438D02*
X122507523Y-110634057D01*
X122507523Y-110634057D02*
X122555142Y-110729295D01*
X122555142Y-110729295D02*
X122555142Y-110824533D01*
X122555142Y-110824533D02*
X122507523Y-110967390D01*
X122507523Y-110967390D02*
X121936095Y-111538819D01*
X121936095Y-111538819D02*
X122555142Y-111538819D01*
X123174190Y-110538819D02*
X123269428Y-110538819D01*
X123269428Y-110538819D02*
X123364666Y-110586438D01*
X123364666Y-110586438D02*
X123412285Y-110634057D01*
X123412285Y-110634057D02*
X123459904Y-110729295D01*
X123459904Y-110729295D02*
X123507523Y-110919771D01*
X123507523Y-110919771D02*
X123507523Y-111157866D01*
X123507523Y-111157866D02*
X123459904Y-111348342D01*
X123459904Y-111348342D02*
X123412285Y-111443580D01*
X123412285Y-111443580D02*
X123364666Y-111491200D01*
X123364666Y-111491200D02*
X123269428Y-111538819D01*
X123269428Y-111538819D02*
X123174190Y-111538819D01*
X123174190Y-111538819D02*
X123078952Y-111491200D01*
X123078952Y-111491200D02*
X123031333Y-111443580D01*
X123031333Y-111443580D02*
X122983714Y-111348342D01*
X122983714Y-111348342D02*
X122936095Y-111157866D01*
X122936095Y-111157866D02*
X122936095Y-110919771D01*
X122936095Y-110919771D02*
X122983714Y-110729295D01*
X122983714Y-110729295D02*
X123031333Y-110634057D01*
X123031333Y-110634057D02*
X123078952Y-110586438D01*
X123078952Y-110586438D02*
X123174190Y-110538819D01*
X123888476Y-110634057D02*
X123936095Y-110586438D01*
X123936095Y-110586438D02*
X124031333Y-110538819D01*
X124031333Y-110538819D02*
X124269428Y-110538819D01*
X124269428Y-110538819D02*
X124364666Y-110586438D01*
X124364666Y-110586438D02*
X124412285Y-110634057D01*
X124412285Y-110634057D02*
X124459904Y-110729295D01*
X124459904Y-110729295D02*
X124459904Y-110824533D01*
X124459904Y-110824533D02*
X124412285Y-110967390D01*
X124412285Y-110967390D02*
X123840857Y-111538819D01*
X123840857Y-111538819D02*
X124459904Y-111538819D01*
X124793238Y-110538819D02*
X125412285Y-110538819D01*
X125412285Y-110538819D02*
X125078952Y-110919771D01*
X125078952Y-110919771D02*
X125221809Y-110919771D01*
X125221809Y-110919771D02*
X125317047Y-110967390D01*
X125317047Y-110967390D02*
X125364666Y-111015009D01*
X125364666Y-111015009D02*
X125412285Y-111110247D01*
X125412285Y-111110247D02*
X125412285Y-111348342D01*
X125412285Y-111348342D02*
X125364666Y-111443580D01*
X125364666Y-111443580D02*
X125317047Y-111491200D01*
X125317047Y-111491200D02*
X125221809Y-111538819D01*
X125221809Y-111538819D02*
X124936095Y-111538819D01*
X124936095Y-111538819D02*
X124840857Y-111491200D01*
X124840857Y-111491200D02*
X124793238Y-111443580D01*
X126854295Y-105905142D02*
X126054295Y-105905142D01*
X126054295Y-105905142D02*
X126625723Y-105638476D01*
X126625723Y-105638476D02*
X126054295Y-105371809D01*
X126054295Y-105371809D02*
X126854295Y-105371809D01*
X126854295Y-104990856D02*
X126054295Y-104990856D01*
X126816200Y-104648000D02*
X126854295Y-104533714D01*
X126854295Y-104533714D02*
X126854295Y-104343238D01*
X126854295Y-104343238D02*
X126816200Y-104267047D01*
X126816200Y-104267047D02*
X126778104Y-104228952D01*
X126778104Y-104228952D02*
X126701914Y-104190857D01*
X126701914Y-104190857D02*
X126625723Y-104190857D01*
X126625723Y-104190857D02*
X126549533Y-104228952D01*
X126549533Y-104228952D02*
X126511438Y-104267047D01*
X126511438Y-104267047D02*
X126473342Y-104343238D01*
X126473342Y-104343238D02*
X126435247Y-104495619D01*
X126435247Y-104495619D02*
X126397152Y-104571809D01*
X126397152Y-104571809D02*
X126359057Y-104609904D01*
X126359057Y-104609904D02*
X126282866Y-104648000D01*
X126282866Y-104648000D02*
X126206676Y-104648000D01*
X126206676Y-104648000D02*
X126130485Y-104609904D01*
X126130485Y-104609904D02*
X126092390Y-104571809D01*
X126092390Y-104571809D02*
X126054295Y-104495619D01*
X126054295Y-104495619D02*
X126054295Y-104305142D01*
X126054295Y-104305142D02*
X126092390Y-104190857D01*
X126054295Y-103695618D02*
X126054295Y-103543237D01*
X126054295Y-103543237D02*
X126092390Y-103467047D01*
X126092390Y-103467047D02*
X126168580Y-103390856D01*
X126168580Y-103390856D02*
X126320961Y-103352761D01*
X126320961Y-103352761D02*
X126587628Y-103352761D01*
X126587628Y-103352761D02*
X126740009Y-103390856D01*
X126740009Y-103390856D02*
X126816200Y-103467047D01*
X126816200Y-103467047D02*
X126854295Y-103543237D01*
X126854295Y-103543237D02*
X126854295Y-103695618D01*
X126854295Y-103695618D02*
X126816200Y-103771809D01*
X126816200Y-103771809D02*
X126740009Y-103847999D01*
X126740009Y-103847999D02*
X126587628Y-103886095D01*
X126587628Y-103886095D02*
X126320961Y-103886095D01*
X126320961Y-103886095D02*
X126168580Y-103847999D01*
X126168580Y-103847999D02*
X126092390Y-103771809D01*
X126092390Y-103771809D02*
X126054295Y-103695618D01*
D11*
X126720709Y-97520142D02*
X126720709Y-97805856D01*
X126720709Y-97662999D02*
X126220709Y-97662999D01*
X126220709Y-97662999D02*
X126292138Y-97710618D01*
X126292138Y-97710618D02*
X126339757Y-97758237D01*
X126339757Y-97758237D02*
X126363566Y-97805856D01*
X136372709Y-115808142D02*
X136372709Y-116093856D01*
X136372709Y-115950999D02*
X135872709Y-115950999D01*
X135872709Y-115950999D02*
X135944138Y-115998618D01*
X135944138Y-115998618D02*
X135991757Y-116046237D01*
X135991757Y-116046237D02*
X136015566Y-116093856D01*
D10*
%TO.C,J3*%
X142748000Y-98044000D02*
X142748000Y-103124000D01*
X130048000Y-98044000D02*
X142748000Y-98044000D01*
X142748000Y-103124000D02*
X130048000Y-103124000D01*
X130048000Y-103124000D02*
X130048000Y-98044000D01*
%TO.C,J1*%
X127762000Y-98044000D02*
X127762000Y-103124000D01*
X122682000Y-98044000D02*
X127762000Y-98044000D01*
X127762000Y-103124000D02*
X122682000Y-103124000D01*
X122682000Y-103124000D02*
X122682000Y-98044000D01*
%TO.C,J2*%
X134874000Y-115570000D02*
X134874000Y-110490000D01*
X142494000Y-115570000D02*
X134874000Y-115570000D01*
X134874000Y-110490000D02*
X142494000Y-110490000D01*
X142494000Y-110490000D02*
X142494000Y-115570000D01*
D12*
%TO.C,JP3*%
X132215000Y-113326000D02*
X132215000Y-113926000D01*
X131565000Y-114626000D02*
X128765000Y-114626000D01*
X128765000Y-112626000D02*
X131565000Y-112626000D01*
X128115000Y-113926000D02*
X128115000Y-113326000D01*
X131515000Y-114626000D02*
G75*
G03*
X132215000Y-113926000I1J699999D01*
G01*
X132215000Y-113326000D02*
G75*
G03*
X131515000Y-112626000I-699999J1D01*
G01*
X128115000Y-113926000D02*
G75*
G03*
X128815000Y-114626000I700000J0D01*
G01*
X128815000Y-112626000D02*
G75*
G03*
X128115000Y-113326000I0J-700000D01*
G01*
%TD*%
D13*
%TO.C,J3*%
X141478000Y-99314000D03*
X141478000Y-101854000D03*
X138938000Y-99314000D03*
X138938000Y-101854000D03*
X136398000Y-99314000D03*
X136398000Y-101854000D03*
X133858000Y-99314000D03*
X133858000Y-101854000D03*
X131318000Y-99314000D03*
X131318000Y-101854000D03*
%TD*%
%TO.C,J1*%
X126492000Y-99314000D03*
X126492000Y-101854000D03*
X123952000Y-99314000D03*
X123952000Y-101854000D03*
%TD*%
M02*
