%TF.GenerationSoftware,KiCad,Pcbnew,7.0.7-7.0.7~ubuntu23.04.1*%
%TF.CreationDate,2023-09-06T12:28:47+00:00*%
%TF.ProjectId,ALTIMET02,414c5449-4d45-4543-9032-2e6b69636164,rev?*%
%TF.SameCoordinates,Original*%
%TF.FileFunction,Legend,Bot*%
%TF.FilePolarity,Positive*%
%FSLAX46Y46*%
G04 Gerber Fmt 4.6, Leading zero omitted, Abs format (unit mm)*
G04 Created by KiCad (PCBNEW 7.0.7-7.0.7~ubuntu23.04.1) date 2023-09-06 12:28:47*
%MOMM*%
%LPD*%
G01*
G04 APERTURE LIST*
%ADD10C,0.150000*%
%ADD11C,0.120000*%
G04 APERTURE END LIST*
D10*
X132473427Y-115932295D02*
X132473427Y-115132295D01*
X132130571Y-115208485D02*
X132092475Y-115170390D01*
X132092475Y-115170390D02*
X132016285Y-115132295D01*
X132016285Y-115132295D02*
X131825809Y-115132295D01*
X131825809Y-115132295D02*
X131749618Y-115170390D01*
X131749618Y-115170390D02*
X131711523Y-115208485D01*
X131711523Y-115208485D02*
X131673428Y-115284676D01*
X131673428Y-115284676D02*
X131673428Y-115360866D01*
X131673428Y-115360866D02*
X131711523Y-115475152D01*
X131711523Y-115475152D02*
X132168666Y-115932295D01*
X132168666Y-115932295D02*
X131673428Y-115932295D01*
X130873427Y-115856104D02*
X130911523Y-115894200D01*
X130911523Y-115894200D02*
X131025808Y-115932295D01*
X131025808Y-115932295D02*
X131101999Y-115932295D01*
X131101999Y-115932295D02*
X131216285Y-115894200D01*
X131216285Y-115894200D02*
X131292475Y-115818009D01*
X131292475Y-115818009D02*
X131330570Y-115741819D01*
X131330570Y-115741819D02*
X131368666Y-115589438D01*
X131368666Y-115589438D02*
X131368666Y-115475152D01*
X131368666Y-115475152D02*
X131330570Y-115322771D01*
X131330570Y-115322771D02*
X131292475Y-115246580D01*
X131292475Y-115246580D02*
X131216285Y-115170390D01*
X131216285Y-115170390D02*
X131101999Y-115132295D01*
X131101999Y-115132295D02*
X131025808Y-115132295D01*
X131025808Y-115132295D02*
X130911523Y-115170390D01*
X130911523Y-115170390D02*
X130873427Y-115208485D01*
X129959142Y-115094200D02*
X130644856Y-116122771D01*
X129730571Y-115894200D02*
X129616285Y-115932295D01*
X129616285Y-115932295D02*
X129425809Y-115932295D01*
X129425809Y-115932295D02*
X129349618Y-115894200D01*
X129349618Y-115894200D02*
X129311523Y-115856104D01*
X129311523Y-115856104D02*
X129273428Y-115779914D01*
X129273428Y-115779914D02*
X129273428Y-115703723D01*
X129273428Y-115703723D02*
X129311523Y-115627533D01*
X129311523Y-115627533D02*
X129349618Y-115589438D01*
X129349618Y-115589438D02*
X129425809Y-115551342D01*
X129425809Y-115551342D02*
X129578190Y-115513247D01*
X129578190Y-115513247D02*
X129654380Y-115475152D01*
X129654380Y-115475152D02*
X129692475Y-115437057D01*
X129692475Y-115437057D02*
X129730571Y-115360866D01*
X129730571Y-115360866D02*
X129730571Y-115284676D01*
X129730571Y-115284676D02*
X129692475Y-115208485D01*
X129692475Y-115208485D02*
X129654380Y-115170390D01*
X129654380Y-115170390D02*
X129578190Y-115132295D01*
X129578190Y-115132295D02*
X129387713Y-115132295D01*
X129387713Y-115132295D02*
X129273428Y-115170390D01*
X128930570Y-115932295D02*
X128930570Y-115132295D01*
X128930570Y-115132295D02*
X128625808Y-115132295D01*
X128625808Y-115132295D02*
X128549618Y-115170390D01*
X128549618Y-115170390D02*
X128511523Y-115208485D01*
X128511523Y-115208485D02*
X128473427Y-115284676D01*
X128473427Y-115284676D02*
X128473427Y-115398961D01*
X128473427Y-115398961D02*
X128511523Y-115475152D01*
X128511523Y-115475152D02*
X128549618Y-115513247D01*
X128549618Y-115513247D02*
X128625808Y-115551342D01*
X128625808Y-115551342D02*
X128930570Y-115551342D01*
X128130570Y-115932295D02*
X128130570Y-115132295D01*
X141136666Y-104848819D02*
X141469999Y-104372628D01*
X141708094Y-104848819D02*
X141708094Y-103848819D01*
X141708094Y-103848819D02*
X141327142Y-103848819D01*
X141327142Y-103848819D02*
X141231904Y-103896438D01*
X141231904Y-103896438D02*
X141184285Y-103944057D01*
X141184285Y-103944057D02*
X141136666Y-104039295D01*
X141136666Y-104039295D02*
X141136666Y-104182152D01*
X141136666Y-104182152D02*
X141184285Y-104277390D01*
X141184285Y-104277390D02*
X141231904Y-104325009D01*
X141231904Y-104325009D02*
X141327142Y-104372628D01*
X141327142Y-104372628D02*
X141708094Y-104372628D01*
X140184285Y-104848819D02*
X140755713Y-104848819D01*
X140469999Y-104848819D02*
X140469999Y-103848819D01*
X140469999Y-103848819D02*
X140565237Y-103991676D01*
X140565237Y-103991676D02*
X140660475Y-104086914D01*
X140660475Y-104086914D02*
X140755713Y-104134533D01*
X136564666Y-106785580D02*
X136612285Y-106833200D01*
X136612285Y-106833200D02*
X136755142Y-106880819D01*
X136755142Y-106880819D02*
X136850380Y-106880819D01*
X136850380Y-106880819D02*
X136993237Y-106833200D01*
X136993237Y-106833200D02*
X137088475Y-106737961D01*
X137088475Y-106737961D02*
X137136094Y-106642723D01*
X137136094Y-106642723D02*
X137183713Y-106452247D01*
X137183713Y-106452247D02*
X137183713Y-106309390D01*
X137183713Y-106309390D02*
X137136094Y-106118914D01*
X137136094Y-106118914D02*
X137088475Y-106023676D01*
X137088475Y-106023676D02*
X136993237Y-105928438D01*
X136993237Y-105928438D02*
X136850380Y-105880819D01*
X136850380Y-105880819D02*
X136755142Y-105880819D01*
X136755142Y-105880819D02*
X136612285Y-105928438D01*
X136612285Y-105928438D02*
X136564666Y-105976057D01*
X136183713Y-105976057D02*
X136136094Y-105928438D01*
X136136094Y-105928438D02*
X136040856Y-105880819D01*
X136040856Y-105880819D02*
X135802761Y-105880819D01*
X135802761Y-105880819D02*
X135707523Y-105928438D01*
X135707523Y-105928438D02*
X135659904Y-105976057D01*
X135659904Y-105976057D02*
X135612285Y-106071295D01*
X135612285Y-106071295D02*
X135612285Y-106166533D01*
X135612285Y-106166533D02*
X135659904Y-106309390D01*
X135659904Y-106309390D02*
X136231332Y-106880819D01*
X136231332Y-106880819D02*
X135612285Y-106880819D01*
X125946819Y-107360495D02*
X126756342Y-107360495D01*
X126756342Y-107360495D02*
X126851580Y-107408114D01*
X126851580Y-107408114D02*
X126899200Y-107455733D01*
X126899200Y-107455733D02*
X126946819Y-107550971D01*
X126946819Y-107550971D02*
X126946819Y-107741447D01*
X126946819Y-107741447D02*
X126899200Y-107836685D01*
X126899200Y-107836685D02*
X126851580Y-107884304D01*
X126851580Y-107884304D02*
X126756342Y-107931923D01*
X126756342Y-107931923D02*
X125946819Y-107931923D01*
X126946819Y-108931923D02*
X126946819Y-108360495D01*
X126946819Y-108646209D02*
X125946819Y-108646209D01*
X125946819Y-108646209D02*
X126089676Y-108550971D01*
X126089676Y-108550971D02*
X126184914Y-108455733D01*
X126184914Y-108455733D02*
X126232533Y-108360495D01*
X141200094Y-107134819D02*
X141200094Y-106134819D01*
X141200094Y-106134819D02*
X140961999Y-106134819D01*
X140961999Y-106134819D02*
X140819142Y-106182438D01*
X140819142Y-106182438D02*
X140723904Y-106277676D01*
X140723904Y-106277676D02*
X140676285Y-106372914D01*
X140676285Y-106372914D02*
X140628666Y-106563390D01*
X140628666Y-106563390D02*
X140628666Y-106706247D01*
X140628666Y-106706247D02*
X140676285Y-106896723D01*
X140676285Y-106896723D02*
X140723904Y-106991961D01*
X140723904Y-106991961D02*
X140819142Y-107087200D01*
X140819142Y-107087200D02*
X140961999Y-107134819D01*
X140961999Y-107134819D02*
X141200094Y-107134819D01*
X139676285Y-107134819D02*
X140247713Y-107134819D01*
X139961999Y-107134819D02*
X139961999Y-106134819D01*
X139961999Y-106134819D02*
X140057237Y-106277676D01*
X140057237Y-106277676D02*
X140152475Y-106372914D01*
X140152475Y-106372914D02*
X140247713Y-106420533D01*
X131992666Y-104848819D02*
X132325999Y-104372628D01*
X132564094Y-104848819D02*
X132564094Y-103848819D01*
X132564094Y-103848819D02*
X132183142Y-103848819D01*
X132183142Y-103848819D02*
X132087904Y-103896438D01*
X132087904Y-103896438D02*
X132040285Y-103944057D01*
X132040285Y-103944057D02*
X131992666Y-104039295D01*
X131992666Y-104039295D02*
X131992666Y-104182152D01*
X131992666Y-104182152D02*
X132040285Y-104277390D01*
X132040285Y-104277390D02*
X132087904Y-104325009D01*
X132087904Y-104325009D02*
X132183142Y-104372628D01*
X132183142Y-104372628D02*
X132564094Y-104372628D01*
X131611713Y-103944057D02*
X131564094Y-103896438D01*
X131564094Y-103896438D02*
X131468856Y-103848819D01*
X131468856Y-103848819D02*
X131230761Y-103848819D01*
X131230761Y-103848819D02*
X131135523Y-103896438D01*
X131135523Y-103896438D02*
X131087904Y-103944057D01*
X131087904Y-103944057D02*
X131040285Y-104039295D01*
X131040285Y-104039295D02*
X131040285Y-104134533D01*
X131040285Y-104134533D02*
X131087904Y-104277390D01*
X131087904Y-104277390D02*
X131659332Y-104848819D01*
X131659332Y-104848819D02*
X131040285Y-104848819D01*
X134436180Y-111085333D02*
X134483800Y-111037714D01*
X134483800Y-111037714D02*
X134531419Y-110894857D01*
X134531419Y-110894857D02*
X134531419Y-110799619D01*
X134531419Y-110799619D02*
X134483800Y-110656762D01*
X134483800Y-110656762D02*
X134388561Y-110561524D01*
X134388561Y-110561524D02*
X134293323Y-110513905D01*
X134293323Y-110513905D02*
X134102847Y-110466286D01*
X134102847Y-110466286D02*
X133959990Y-110466286D01*
X133959990Y-110466286D02*
X133769514Y-110513905D01*
X133769514Y-110513905D02*
X133674276Y-110561524D01*
X133674276Y-110561524D02*
X133579038Y-110656762D01*
X133579038Y-110656762D02*
X133531419Y-110799619D01*
X133531419Y-110799619D02*
X133531419Y-110894857D01*
X133531419Y-110894857D02*
X133579038Y-111037714D01*
X133579038Y-111037714D02*
X133626657Y-111085333D01*
X134531419Y-112037714D02*
X134531419Y-111466286D01*
X134531419Y-111752000D02*
X133531419Y-111752000D01*
X133531419Y-111752000D02*
X133674276Y-111656762D01*
X133674276Y-111656762D02*
X133769514Y-111561524D01*
X133769514Y-111561524D02*
X133817133Y-111466286D01*
D11*
%TO.C,R1*%
X138202936Y-103659000D02*
X138657064Y-103659000D01*
X138202936Y-105129000D02*
X138657064Y-105129000D01*
%TO.C,C2*%
X135627600Y-108873252D02*
X135627600Y-108350748D01*
X137097600Y-108873252D02*
X137097600Y-108350748D01*
%TO.C,U1*%
X127346400Y-109772400D02*
X127846400Y-109772400D01*
X132546400Y-109672400D02*
X132546400Y-108722400D01*
X127346400Y-109272400D02*
X127346400Y-109772400D01*
X132546400Y-106972400D02*
X132546400Y-106472400D01*
X127346400Y-106472400D02*
X127346400Y-106972400D01*
X127846400Y-106472400D02*
X127346400Y-106472400D01*
X132546400Y-106472400D02*
X132046400Y-106472400D01*
%TO.C,D1*%
X137912000Y-107458000D02*
X142212000Y-107458000D01*
X137912000Y-109458000D02*
X137912000Y-107458000D01*
X142212000Y-109458000D02*
X137912000Y-109458000D01*
%TO.C,R2*%
X134593064Y-105129000D02*
X134138936Y-105129000D01*
X134593064Y-103659000D02*
X134138936Y-103659000D01*
%TO.C,C1*%
X133341600Y-108873252D02*
X133341600Y-108350748D01*
X134811600Y-108873252D02*
X134811600Y-108350748D01*
%TO.C,JP1*%
X132215000Y-113926000D02*
X132215000Y-113326000D01*
X131565000Y-112626000D02*
X128765000Y-112626000D01*
X128765000Y-114626000D02*
X131565000Y-114626000D01*
X128115000Y-113326000D02*
X128115000Y-113926000D01*
X131515000Y-114626000D02*
G75*
G03*
X132215000Y-113926000I1J699999D01*
G01*
X132215000Y-113326000D02*
G75*
G03*
X131515000Y-112626000I-699999J1D01*
G01*
X128115000Y-113926000D02*
G75*
G03*
X128815000Y-114626000I700000J0D01*
G01*
X128815000Y-112626000D02*
G75*
G03*
X128115000Y-113326000I0J-700000D01*
G01*
%TD*%
M02*
